<svg xmlns="http://www.w3.org/2000/svg" style="isolation:isolate" viewBox="0 0 1065 650" width="1420" height="650pt"><defs><clipPath id="a"><path d="M0 0h1065v650H0z"/></clipPath></defs><g clip-path="url(#a)"><clipPath id="b"><path fill="#FFF" d="M0 0h1065v650H0z"/></clipPath><g clip-path="url(#b)"><path fill="none" d="M0 0h1065v650H0z"/><path d="M545.34 60.368q-2.053 0-2.053-2.078V28.904q0-2.078 2.053-2.078h11.438q4.473 0 6.856 2.412 2.383 2.411 2.383 6.938v1.484q0 4.527-2.383 6.939-2.383 2.411-6.856 2.411h-9.385v11.28q0 2.078-2.053 2.078Zm2.053-29.387v11.874h9.385q2.786 0 3.96-1.188 1.173-1.187 1.173-4.007v-1.484q0-2.795-1.173-3.995-1.174-1.2-3.96-1.2h-9.385Zm27.911 29.387q-1.051 0-1.552-.507-.501-.508-.501-1.571V28.953q0-1.088.501-1.583.501-.495 1.552-.495 1.075 0 1.564.495.489.495.489 1.583V58.29q0 1.063-.489 1.571-.489.507-1.564.507Zm27.862 0H597.3q-5.597 0-8.273-2.709-2.676-2.709-2.676-8.373V37.907q0-5.714 2.664-8.422 2.664-2.709 8.236-2.659h5.915q4.594 0 7.014 1.917 2.419 1.917 2.81 6.048.147 1.039-.391 1.583-.537.544-1.564.544-1.857 0-2.15-2.078-.245-2.275-1.552-3.067-1.308-.792-4.167-.792h-5.915q-2.591-.024-4.069.594-1.479.618-2.102 2.14-.623 1.521-.623 4.192v11.379q0 2.647.623 4.156.623 1.508 2.114 2.139 1.491.631 4.106.631h5.866q2.859 0 4.167-.804 1.307-.804 1.552-3.055.293-2.078 2.15-2.078 1.027 0 1.564.545.538.544.391 1.583-.391 4.155-2.81 6.06-2.42 1.905-7.014 1.905Zm33.702 0h-7.038q-4.18 0-6.514-1.707-2.334-1.707-2.92-5.269-.098-1.088.44-1.632.537-.545 1.564-.545 1.026 0 1.503.495.476.495.648 1.534.366 1.706 1.576 2.337 1.21.631 3.703.631h7.038q3.153 0 4.29-1.15 1.136-1.15 1.136-4.292 0-3.191-1.173-4.366-1.173-1.175-4.253-1.175h-6.061q-4.619 0-6.855-2.288-2.236-2.288-2.236-6.963 0-4.65 2.211-6.901 2.212-2.251 6.831-2.251h5.817q3.886 0 6.098 1.608 2.212 1.607 2.798 4.922.147 1.064-.391 1.62-.537.557-1.613.557-.977 0-1.466-.52-.489-.519-.636-1.508-.391-1.46-1.49-1.992-1.1-.532-3.3-.532h-5.817q-2.932 0-3.934 1.052-1.003 1.051-1.003 3.945 0 2.919 1.027 4.007 1.026 1.089 3.959 1.089h6.061q4.815 0 7.173 2.374 2.359 2.375 2.359 7.322 0 4.923-2.346 7.26-2.347 2.338-7.186 2.338Zm-212.115 0q-2.053 0-2.053-2.078V28.904q0-2.078 2.053-2.078h11.438q4.472 0 6.855 2.412 2.383 2.411 2.383 6.938v1.484q0 4.527-2.383 6.939-2.383 2.411-6.855 2.411h-9.385v11.28q0 2.078-2.053 2.078Zm2.053-29.387v11.874h9.385q2.786 0 3.959-1.188 1.173-1.187 1.173-4.007v-1.484q0-2.795-1.173-3.995-1.173-1.2-3.959-1.2h-9.385Zm27.911 29.387q-1.051 0-1.552-.507-.501-.508-.501-1.571V28.953q0-1.088.501-1.583.501-.495 1.552-.495 1.075 0 1.564.495.488.495.488 1.583V58.29q0 1.063-.488 1.571-.489.507-1.564.507Zm11.34-.446q-1.638-1.137-.489-2.918l8.945-13.358-9.434-13.456q-1.1-1.633.538-2.919 1.686-1.163 2.835.544l8.749 12.418L486 27.815q1.271-1.657 2.835-.445 1.662 1.237.489 2.869l-9.63 13.556 9.239 13.159q1.148 1.707-.538 2.968-1.686 1.163-2.835-.544l-8.505-12.12-8.114 12.17q-1.125 1.607-2.884.494Zm29.914.248q-1.955-.767-1.173-2.721l11.634-28.991q.733-1.632 2.297-1.632h.098q1.588.074 2.151 1.632l11.829 28.991q.782 1.954-1.125 2.721-1.93.767-2.688-1.138l-2.64-6.481h-15.226l-2.517 6.481q-.758 1.929-2.64 1.138Zm12.611-26.764-5.841 14.989h11.927l-6.086-14.989Zm23.658 26.962h-1.173q-1.955 0-1.955-1.979v-1.237q0-1.929 1.955-1.929h1.173q1.858 0 1.858 1.929v1.237q0 1.979-1.858 1.979Z" fill="#FFF"/><g opacity=".66" style="opacity:.66"><linearGradient id="c" x1=".5" y1="0" x2=".809" y2=".18" gradientTransform="matrix(1029 0 0 307 18 18)" gradientUnits="userSpaceOnUse"><stop offset="0%" stop-opacity=".75" style="stop-color:#2615bd"/><stop offset="100%" stop-opacity="0" style="stop-color:#000"/></linearGradient><path d="M59 96.125 18 19.1 360 18l66 56.118h219L706 19.1l341-1.1-45 78.125L706 325H360L59 96.125Z" fill="url(#c)"/></g><g opacity=".66" style="opacity:.66"><linearGradient id="d" x1=".5" y1="0" x2=".178" y2=".183" gradientTransform="matrix(1029 0 0 307 18 18)" gradientUnits="userSpaceOnUse"><stop offset="0%" stop-opacity=".75" style="stop-color:#2615bd"/><stop offset="100%" stop-opacity="0" style="stop-color:#000"/></linearGradient><path d="M59 96.125 18 19.1 360 18l66 56.118h219L706 19.1l341-1.1-45 78.125L706 325H360L59 96.125Z" fill="url(#d)"/></g><path stroke-width="2" stroke="#ffffff" stroke-opacity="2500" stroke-linecap="square" stroke-miterlimit="3" d="M177 136.194 313 138"/><path stroke-width="2" stroke="#ffffff" stroke-opacity="5000" stroke-linecap="square" stroke-miterlimit="3" d="M144.751 123.097 266 124.903"/><path stroke-width="2" stroke="#ffffff" stroke-opacity="7500" stroke-linecap="square" stroke-miterlimit="3" d="m116 110 171.143 1.806"/><path d="m781 84-34 28H603l-34-28" fill="none" stroke-width="3" stroke="#20079D" stroke-opacity="10000" stroke-linecap="square" stroke-miterlimit="3"/><path d="m299 84 34 28h144l34-28" fill="none" stroke-width="2" stroke="#20079D" stroke-opacity="10000" stroke-linecap="square" stroke-miterlimit="3"/><path d="m799 66 25-23h167M286 69l-25-23H94" fill="none" stroke-width="3" stroke="#20079D" stroke-opacity="10000" stroke-linecap="square" stroke-miterlimit="3"/><path d="M249 64v8h-8.2v4h8.2v8h4v-8h8v-4h-8v-8h-4ZM811 100v8h-8.2v4h8.2v8h4v-8h8v-4h-8v-8h-4ZM911.5 156v10h-10v5h10v10h5v-10h10v-5h-10v-10h-5ZM187.5 74v10h-10v5h10v10h5V89h10v-5h-10V74h-5ZM886.5 97.5v10h-10v5h10v10h5v-10h10v-5h-10v-10h-5Z" fill="#FFF"/><path d="m773.8 43-53 41h-15l53-41h15Z" fill="#20079D" fill-opacity=".5"/><path d="m742.8 43-53 41h-15l53-41h15Z" fill="#20079D"/><path d="m802.8 44-53 41h-15l53-41h15Z" fill="#20079D" fill-opacity=".25"/><path d="m308 43 53 41h15l-53-41h-15Z" fill="#20079D" fill-opacity=".5"/><path d="m339 43 53 41h15l-53-41h-15Z" fill="#20079D"/><path d="m279 44 53 41h15l-53-41h-15Z" fill="#20079D" fill-opacity=".25"/><path d="M18 19h342l66 55.118h219L706 19h341" fill="none" stroke-width="5" stroke="#20079D" stroke-opacity="10000" stroke-linecap="square" stroke-miterlimit="3"/><path d="m426 73 13 11h190l16-11" fill="none" stroke-width="3" stroke="#20079D" stroke-opacity="10000" stroke-linecap="square" stroke-miterlimit="3"/></g><g style="opacity:.2"><path d="M36.5 641.217h33.446l20.904-33.446H57.404L36.5 641.217Z" fill="#6200FF" style="opacity:.4"/><path d="M103.392 641.217h33.446l20.904-33.446h-33.446l-20.904 33.446Z" fill="#6200FF" style="opacity:.2"/><path d="M170.284 641.217h33.446l20.904-33.446h-33.446l-20.904 33.446Z" fill="#6200FF" style="opacity:.4"/><path d="M237.177 641.217h33.446l20.904-33.446H258.08l-20.903 33.446Z" fill="#6200FF" style="opacity:.2"/><path d="M304.069 641.217h33.446l20.904-33.446h-33.446l-20.904 33.446Z" fill="#6200FF" style="opacity:.4"/><path d="M370.961 641.217h33.446l20.904-33.446h-33.446l-20.904 33.446Z" fill="#6200FF" style="opacity:.2"/><path d="M437.853 641.217h33.446l20.904-33.446h-33.446l-20.904 33.446Z" fill="#6200FF" style="opacity:.4"/><path d="M504.746 641.217h33.445l20.904-33.446h-33.446l-20.903 33.446Z" fill="#6200FF" style="opacity:.2"/><path d="M571.638 641.217h33.446l20.904-33.446h-33.447l-20.903 33.446Z" fill="#6200FF" style="opacity:.4"/><path d="M638.53 641.217h33.446l20.904-33.446h-33.446l-20.904 33.446Z" fill="#6200FF" style="opacity:.2"/><path d="M705.422 641.217h33.446l20.904-33.446h-33.446l-20.904 33.446Z" fill="#6200FF" style="opacity:.4"/><path d="M772.314 641.217h33.446l20.904-33.446h-33.446l-20.904 33.446Z" fill="#6200FF" style="opacity:.2"/><path d="M839.206 641.217h33.446l20.904-33.446H860.11l-20.904 33.446Z" fill="#6200FF" style="opacity:.4"/><path d="M906.099 641.217h33.446l20.904-33.446h-33.446l-20.904 33.446Z" fill="#6200FF" style="opacity:.2"/><path d="M972.991 641.217h33.446l20.904-33.446h-33.446l-20.904 33.446Z" fill="#6200FF" style="opacity:.4"/></g><g fill="#20079D"><path d="M51.006 590.199h4.852v2.332h-4.852v-2.332ZM75.946 586.231V596.5c0 .79-.714 1.449-1.579 1.449h-8.013v-13.166h8.013c.865 0 1.579.658 1.579 1.448Zm-2.746.884h-4.476v8.501H73.2c.207 0 .377-.151.377-.338v-7.825c0-.188-.17-.338-.377-.338ZM90.016 586.231V596.5c0 .79-.715 1.449-1.58 1.449h-6.47c-.866 0-1.58-.659-1.58-1.449v-10.269c0-.79.715-1.448 1.58-1.448h6.47c.865 0 1.58.658 1.58 1.448Zm-2.747.884h-4.137c-.207 0-.377.15-.377.339v7.824c0 .187.17.338.377.338h4.137c.207 0 .377-.15.377-.338v-7.824c0-.189-.17-.339-.377-.339ZM111.195 584.783v13.166h-2.709l-4.514-8.634v8.634h-2.369v-13.166h2.689l4.533 8.67v-8.67h2.37ZM125.264 586.231V596.5c0 .79-.715 1.449-1.58 1.449h-6.47c-.865 0-1.579-.659-1.579-1.449v-10.269c0-.79.714-1.448 1.579-1.448h6.47c.865 0 1.58.658 1.58 1.448Zm-2.746.884h-4.138c-.207 0-.376.15-.376.339v7.824c0 .187.169.338.376.338h4.138c.207 0 .376-.15.376-.338v-7.824c0-.189-.169-.339-.376-.339ZM138.375 587.115h-3.612v10.833h-2.37v-10.833h-3.611v-2.332h9.593v2.332ZM158.67 586.231v2.313h-2.37v-1.09c0-.189-.169-.339-.376-.339h-4.138c-.207 0-.377.15-.377.339v7.824c0 .187.17.338.377.338h4.138c.207 0 .376-.15.376-.338v-1.091h2.37v2.314c0 .789-.715 1.448-1.58 1.448h-6.47c-.865 0-1.58-.659-1.58-1.448v-10.27c0-.79.715-1.448 1.58-1.448h6.47c.865 0 1.58.658 1.58 1.448ZM172.401 586.231v4.27c0 .601-.358 1.072-.941 1.241.583.169.941.639.941 1.241v4.966h-2.37v-4.664c0-.264-.113-.377-.376-.377h-4.477v5.041h-2.37v-13.166h8.012c.866 0 1.581.658 1.581 1.448Zm-2.746.884h-4.477v3.461h4.477c.263 0 .376-.113.376-.377v-2.745c0-.189-.169-.339-.376-.339ZM186.469 586.231V596.5c0 .79-.714 1.449-1.579 1.449h-6.47c-.865 0-1.58-.659-1.58-1.449v-10.269c0-.79.715-1.448 1.58-1.448h6.47c.865 0 1.579.658 1.579 1.448Zm-2.745.884h-4.138c-.207 0-.377.15-.377.339v7.824c0 .187.17.338.377.338h4.138c.207 0 .376-.15.376-.338v-7.824c0-.189-.169-.339-.376-.339ZM200.502 586.231v2.313h-2.37v-1.09c0-.189-.169-.339-.376-.339h-4.101c-.207 0-.376.15-.376.339v2.407c0 .188.169.338.376.338h5.266c.866 0 1.581.659 1.581 1.449v4.853c0 .789-.715 1.448-1.581 1.448h-6.432c-.865 0-1.579-.659-1.579-1.448v-2.314h2.369v1.091c0 .187.169.338.376.338h4.101c.207 0 .376-.15.376-.338v-2.408c0-.188-.169-.339-.376-.339h-5.267c-.865 0-1.579-.658-1.579-1.448v-4.852c0-.79.714-1.448 1.579-1.448h6.433c.865 0 1.58.658 1.58 1.448ZM214.533 586.231v2.313h-2.37v-1.09c0-.189-.169-.339-.376-.339h-4.1c-.207 0-.377.15-.377.339v2.407c0 .188.17.338.377.338h5.266c.865 0 1.579.659 1.579 1.449v4.853c0 .789-.714 1.448-1.579 1.448h-6.432c-.866 0-1.581-.659-1.581-1.448v-2.314h2.37v1.091c0 .187.17.338.377.338h4.1c.207 0 .376-.15.376-.338v-2.408c0-.188-.169-.339-.376-.339h-5.266c-.865 0-1.58-.658-1.58-1.448v-4.852c0-.79.715-1.448 1.58-1.448h6.432c.865 0 1.58.658 1.58 1.448ZM225.029 590.199h4.852v2.332h-4.852v-2.332Z"/></g><g fill="#20079D"><path d="M250.661 590.199h4.852v2.332h-4.852v-2.332ZM275.601 586.231V596.5c0 .79-.715 1.449-1.58 1.449h-8.012v-13.166h8.012c.865 0 1.58.658 1.58 1.448Zm-2.746.884h-4.476v8.501h4.476c.207 0 .376-.151.376-.338v-7.825c0-.188-.169-.338-.376-.338ZM289.67 586.231V596.5c0 .79-.715 1.449-1.58 1.449h-6.47c-.865 0-1.58-.659-1.58-1.449v-10.269c0-.79.715-1.448 1.58-1.448h6.47c.866 0 1.58.658 1.58 1.448Zm-2.746.884h-4.138c-.207 0-.376.15-.376.339v7.824c0 .187.169.338.376.338h4.138c.207 0 .376-.15.376-.338v-7.824c0-.189-.169-.339-.376-.339ZM310.849 584.783v13.166h-2.708l-4.514-8.634v8.634h-2.37v-13.166h2.689l4.533 8.67v-8.67h2.37ZM324.919 586.231V596.5c0 .79-.715 1.449-1.58 1.449h-6.47c-.865 0-1.58-.659-1.58-1.449v-10.269c0-.79.715-1.448 1.58-1.448h6.47c.865 0 1.58.658 1.58 1.448Zm-2.746.884h-4.138c-.207 0-.376.15-.376.339v7.824c0 .187.169.338.376.338h4.138c.207 0 .376-.15.376-.338v-7.824c0-.189-.169-.339-.376-.339ZM338.029 587.115h-3.611v10.833h-2.37v-10.833h-3.611v-2.332h9.592v2.332ZM358.324 586.231v2.313h-2.37v-1.09c0-.189-.169-.339-.376-.339h-4.138c-.207 0-.376.15-.376.339v7.824c0 .187.169.338.376.338h4.138c.207 0 .376-.15.376-.338v-1.091h2.37v2.314c0 .789-.715 1.448-1.58 1.448h-6.47c-.865 0-1.58-.659-1.58-1.448v-10.27c0-.79.715-1.448 1.58-1.448h6.47c.866 0 1.58.658 1.58 1.448ZM372.055 586.231v4.27c0 .601-.357 1.072-.94 1.241.583.169.94.639.94 1.241v4.966h-2.37v-4.664c0-.264-.112-.377-.376-.377h-4.477v5.041h-2.369v-13.166h8.012c.865 0 1.58.658 1.58 1.448Zm-2.746.884h-4.477v3.461h4.477c.264 0 .376-.113.376-.377v-2.745c0-.189-.169-.339-.376-.339ZM386.124 586.231V596.5c0 .79-.715 1.449-1.579 1.449h-6.471c-.865 0-1.579-.659-1.579-1.449v-10.269c0-.79.715-1.448 1.579-1.448h6.471c.864 0 1.579.658 1.579 1.448Zm-2.746.884h-4.138c-.207 0-.376.15-.376.339v7.824c0 .187.169.338.376.338h4.138c.207 0 .376-.15.376-.338v-7.824c0-.189-.169-.339-.376-.339ZM400.156 586.231v2.313h-2.37v-1.09c0-.189-.169-.339-.376-.339h-4.1c-.207 0-.376.15-.376.339v2.407c0 .188.169.338.376.338h5.266c.866 0 1.58.659 1.58 1.449v4.853c0 .789-.715 1.448-1.58 1.448h-6.432c-.865 0-1.58-.659-1.58-1.448v-2.314h2.37v1.091c0 .187.169.338.376.338h4.1c.207 0 .376-.15.376-.338v-2.408c0-.188-.169-.339-.376-.339h-5.266c-.865 0-1.58-.658-1.58-1.448v-4.852c0-.79.715-1.448 1.58-1.448h6.432c.866 0 1.58.658 1.58 1.448ZM414.188 586.231v2.313h-2.37v-1.09c0-.189-.169-.339-.376-.339h-4.1c-.207 0-.377.15-.377.339v2.407c0 .188.17.338.377.338h5.266c.865 0 1.579.659 1.579 1.449v4.853c0 .789-.714 1.448-1.579 1.448h-6.433c-.865 0-1.58-.659-1.58-1.448v-2.314h2.37v1.091c0 .187.17.338.377.338h4.1c.207 0 .376-.15.376-.338v-2.408c0-.188-.169-.339-.376-.339h-5.267c-.865 0-1.579-.658-1.579-1.448v-4.852c0-.79.715-1.448 1.579-1.448h6.433c.865 0 1.58.658 1.58 1.448ZM424.683 590.199h4.853v2.332h-4.853v-2.332Z"/></g><g fill="#20079D"><path d="M450.315 590.199h4.853v2.332h-4.853v-2.332ZM475.256 586.231V596.5c0 .79-.715 1.449-1.58 1.449h-8.012v-13.166h8.012c.865 0 1.58.658 1.58 1.448Zm-2.746.884h-4.477v8.501h4.477c.207 0 .376-.151.376-.338v-7.825c0-.188-.169-.338-.376-.338ZM489.325 586.231V596.5c0 .79-.715 1.449-1.58 1.449h-6.47c-.865 0-1.58-.659-1.58-1.449v-10.269c0-.79.715-1.448 1.58-1.448h6.47c.865 0 1.58.658 1.58 1.448Zm-2.746.884h-4.138c-.207 0-.376.15-.376.339v7.824c0 .187.169.338.376.338h4.138c.207 0 .376-.15.376-.338v-7.824c0-.189-.169-.339-.376-.339ZM510.504 584.783v13.166h-2.708l-4.514-8.634v8.634h-2.37v-13.166h2.689l4.533 8.67v-8.67h2.37ZM524.574 586.231V596.5c0 .79-.715 1.449-1.58 1.449h-6.47c-.866 0-1.58-.659-1.58-1.449v-10.269c0-.79.715-1.448 1.58-1.448h6.47c.865 0 1.58.658 1.58 1.448Zm-2.747.884h-4.138c-.206 0-.376.15-.376.339v7.824c0 .187.17.338.376.338h4.138c.207 0 .377-.15.377-.338v-7.824c0-.189-.17-.339-.377-.339ZM537.684 587.115h-3.612v10.833h-2.37v-10.833h-3.611v-2.332h9.593v2.332ZM557.979 586.231v2.313h-2.37v-1.09c0-.189-.169-.339-.376-.339h-4.138c-.207 0-.376.15-.376.339v7.824c0 .187.169.338.376.338h4.138c.207 0 .376-.15.376-.338v-1.091h2.37v2.314c0 .789-.715 1.448-1.58 1.448h-6.47c-.865 0-1.58-.659-1.58-1.448v-10.27c0-.79.715-1.448 1.58-1.448h6.47c.865 0 1.58.658 1.58 1.448ZM571.71 586.231v4.27c0 .601-.358 1.072-.941 1.241.583.169.941.639.941 1.241v4.966h-2.37v-4.664c0-.264-.113-.377-.376-.377h-4.477v5.041h-2.37v-13.166h8.013c.865 0 1.58.658 1.58 1.448Zm-2.746.884h-4.477v3.461h4.477c.263 0 .376-.113.376-.377v-2.745c0-.189-.169-.339-.376-.339ZM585.779 586.231V596.5c0 .79-.715 1.449-1.58 1.449h-6.47c-.865 0-1.58-.659-1.58-1.449v-10.269c0-.79.715-1.448 1.58-1.448h6.47c.865 0 1.58.658 1.58 1.448Zm-2.746.884h-4.138c-.207 0-.376.15-.376.339v7.824c0 .187.169.338.376.338h4.138c.207 0 .376-.15.376-.338v-7.824c0-.189-.169-.339-.376-.339ZM599.811 586.231v2.313h-2.37v-1.09c0-.189-.169-.339-.376-.339h-4.101c-.206 0-.376.15-.376.339v2.407c0 .188.17.338.376.338h5.267c.865 0 1.58.659 1.58 1.449v4.853c0 .789-.715 1.448-1.58 1.448h-6.432c-.866 0-1.58-.659-1.58-1.448v-2.314h2.369v1.091c0 .187.17.338.377.338h4.1c.207 0 .376-.15.376-.338v-2.408c0-.188-.169-.339-.376-.339h-5.266c-.865 0-1.58-.658-1.58-1.448v-4.852c0-.79.715-1.448 1.58-1.448h6.432c.865 0 1.58.658 1.58 1.448ZM613.842 586.231v2.313h-2.369v-1.09c0-.189-.17-.339-.377-.339h-4.1c-.207 0-.376.15-.376.339v2.407c0 .188.169.338.376.338h5.266c.866 0 1.58.659 1.58 1.449v4.853c0 .789-.714 1.448-1.58 1.448h-6.432c-.865 0-1.58-.659-1.58-1.448v-2.314h2.37v1.091c0 .187.169.338.376.338h4.1c.207 0 .377-.15.377-.338v-2.408c0-.188-.17-.339-.377-.339h-5.266c-.865 0-1.58-.658-1.58-1.448v-4.852c0-.79.715-1.448 1.58-1.448h6.432c.866 0 1.58.658 1.58 1.448ZM624.338 590.199h4.852v2.332h-4.852v-2.332Z"/></g><g fill="#20079D"><path d="M649.97 590.199h4.853v2.332h-4.853v-2.332ZM674.911 586.231V596.5c0 .79-.715 1.449-1.58 1.449h-8.012v-13.166h8.012c.865 0 1.58.658 1.58 1.448Zm-2.746.884h-4.477v8.501h4.477c.207 0 .376-.151.376-.338v-7.825c0-.188-.169-.338-.376-.338ZM688.98 586.231V596.5c0 .79-.715 1.449-1.58 1.449h-6.47c-.865 0-1.58-.659-1.58-1.449v-10.269c0-.79.715-1.448 1.58-1.448h6.47c.865 0 1.58.658 1.58 1.448Zm-2.746.884h-4.138c-.207 0-.377.15-.377.339v7.824c0 .187.17.338.377.338h4.138c.207 0 .376-.15.376-.338v-7.824c0-.189-.169-.339-.376-.339ZM710.159 584.783v13.166h-2.709l-4.514-8.634v8.634h-2.369v-13.166h2.689l4.533 8.67v-8.67h2.37ZM724.228 586.231V596.5c0 .79-.714 1.449-1.579 1.449h-6.47c-.866 0-1.58-.659-1.58-1.449v-10.269c0-.79.714-1.448 1.58-1.448h6.47c.865 0 1.579.658 1.579 1.448Zm-2.746.884h-4.138c-.206 0-.376.15-.376.339v7.824c0 .187.17.338.376.338h4.138c.207 0 .377-.15.377-.338v-7.824c-.001-.189-.17-.339-.377-.339ZM737.339 587.115h-3.612v10.833h-2.37v-10.833h-3.611v-2.332h9.593v2.332ZM757.634 586.231v2.313h-2.37v-1.09c0-.189-.169-.339-.376-.339h-4.138c-.207 0-.377.15-.377.339v7.824c0 .187.17.338.377.338h4.138c.207 0 .376-.15.376-.338v-1.091h2.37v2.314c0 .789-.715 1.448-1.58 1.448h-6.47c-.865 0-1.58-.659-1.58-1.448v-10.27c0-.79.715-1.448 1.58-1.448h6.47c.865 0 1.58.658 1.58 1.448ZM771.365 586.231v4.27c0 .601-.358 1.072-.941 1.241.583.169.941.639.941 1.241v4.966h-2.37v-4.664c0-.264-.113-.377-.376-.377h-4.477v5.041h-2.37v-13.166h8.013c.865 0 1.58.658 1.58 1.448Zm-2.746.884h-4.477v3.461h4.477c.263 0 .376-.113.376-.377v-2.745c0-.189-.169-.339-.376-.339ZM785.434 586.231V596.5c0 .79-.715 1.449-1.58 1.449h-6.47c-.865 0-1.58-.659-1.58-1.449v-10.269c0-.79.715-1.448 1.58-1.448h6.47c.865 0 1.58.658 1.58 1.448Zm-2.747.884h-4.137c-.207 0-.377.15-.377.339v7.824c0 .187.17.338.377.338h4.137c.207 0 .377-.15.377-.338v-7.824c0-.189-.17-.339-.377-.339ZM799.466 586.231v2.313h-2.37v-1.09c0-.189-.169-.339-.376-.339h-4.101c-.206 0-.376.15-.376.339v2.407c0 .188.17.338.376.338h5.267c.865 0 1.58.659 1.58 1.449v4.853c0 .789-.715 1.448-1.58 1.448h-6.432c-.866 0-1.58-.659-1.58-1.448v-2.314h2.369v1.091c0 .187.17.338.377.338h4.1c.207 0 .376-.15.376-.338v-2.408c0-.188-.169-.339-.376-.339h-5.266c-.866 0-1.58-.658-1.58-1.448v-4.852c0-.79.715-1.448 1.58-1.448h6.432c.865 0 1.58.658 1.58 1.448ZM813.497 586.231v2.313h-2.37v-1.09c0-.189-.169-.339-.376-.339h-4.1c-.207 0-.377.15-.377.339v2.407c0 .188.17.338.377.338h5.266c.866 0 1.58.659 1.58 1.449v4.853c0 .789-.714 1.448-1.58 1.448h-6.432c-.865 0-1.58-.659-1.58-1.448v-2.314h2.37v1.091c0 .187.169.338.376.338h4.1c.207 0 .377-.15.377-.338v-2.408c0-.188-.17-.339-.377-.339h-5.266c-.865 0-1.58-.658-1.58-1.448v-4.852c0-.79.715-1.448 1.58-1.448h6.432c.866 0 1.58.658 1.58 1.448ZM823.993 590.199h4.852v2.332h-4.852v-2.332Z"/></g><g fill="#20079D"><path d="M849.625 590.199h4.852v2.332h-4.852v-2.332ZM874.565 586.231V596.5c0 .79-.714 1.449-1.579 1.449h-8.013v-13.166h8.013c.865 0 1.579.658 1.579 1.448Zm-2.746.884h-4.476v8.501h4.476c.207 0 .377-.151.377-.338v-7.825c0-.188-.17-.338-.377-.338ZM888.635 586.231V596.5c0 .79-.715 1.449-1.58 1.449h-6.47c-.865 0-1.58-.659-1.58-1.449v-10.269c0-.79.715-1.448 1.58-1.448h6.47c.865 0 1.58.658 1.58 1.448Zm-2.747.884h-4.138c-.206 0-.376.15-.376.339v7.824c0 .187.17.338.376.338h4.138c.207 0 .377-.15.377-.338v-7.824c-.001-.189-.17-.339-.377-.339ZM909.814 584.783v13.166h-2.709l-4.514-8.634v8.634h-2.369v-13.166h2.689l4.533 8.67v-8.67h2.37ZM923.883 586.231V596.5c0 .79-.715 1.449-1.58 1.449h-6.47c-.865 0-1.58-.659-1.58-1.449v-10.269c0-.79.715-1.448 1.58-1.448h6.47c.865 0 1.58.658 1.58 1.448Zm-2.746.884h-4.138c-.207 0-.376.15-.376.339v7.824c0 .187.169.338.376.338h4.138c.207 0 .376-.15.376-.338v-7.824c0-.189-.169-.339-.376-.339ZM936.993 587.115h-3.611v10.833h-2.37v-10.833h-3.611v-2.332h9.592v2.332ZM957.289 586.231v2.313h-2.37v-1.09c0-.189-.17-.339-.377-.339h-4.137c-.207 0-.377.15-.377.339v7.824c0 .187.17.338.377.338h4.137c.207 0 .377-.15.377-.338v-1.091h2.37v2.314c0 .789-.715 1.448-1.58 1.448h-6.47c-.865 0-1.58-.659-1.58-1.448v-10.27c0-.79.715-1.448 1.58-1.448h6.47c.865 0 1.58.658 1.58 1.448ZM971.019 586.231v4.27c0 .601-.357 1.072-.94 1.241.583.169.94.639.94 1.241v4.966h-2.369v-4.664c0-.264-.113-.377-.377-.377h-4.476v5.041h-2.37v-13.166h8.012c.866 0 1.58.658 1.58 1.448Zm-2.745.884h-4.477v3.461h4.477c.263 0 .376-.113.376-.377v-2.745c0-.189-.17-.339-.376-.339ZM985.089 586.231V596.5c0 .79-.715 1.449-1.58 1.449h-6.47c-.866 0-1.58-.659-1.58-1.449v-10.269c0-.79.714-1.448 1.58-1.448h6.47c.865 0 1.58.658 1.58 1.448Zm-2.747.884h-4.137c-.207 0-.377.15-.377.339v7.824c0 .187.17.338.377.338h4.137c.207 0 .377-.15.377-.338v-7.824c0-.189-.17-.339-.377-.339ZM999.12 586.231v2.313h-2.369v-1.09c0-.189-.17-.339-.377-.339h-4.1c-.207 0-.376.15-.376.339v2.407c0 .188.169.338.376.338h5.266c.866 0 1.58.659 1.58 1.449v4.853c0 .789-.714 1.448-1.58 1.448h-6.432c-.865 0-1.58-.659-1.58-1.448v-2.314h2.37v1.091c0 .187.169.338.376.338h4.1c.207 0 .377-.15.377-.338v-2.408c0-.188-.17-.339-.377-.339h-5.266c-.865 0-1.58-.658-1.58-1.448v-4.852c0-.79.715-1.448 1.58-1.448h6.432c.866 0 1.58.658 1.58 1.448ZM1013.152 586.231v2.313h-2.37v-1.09c0-.189-.169-.339-.376-.339h-4.1c-.207 0-.377.15-.377.339v2.407c0 .188.17.338.377.338h5.266c.865 0 1.58.659 1.58 1.449v4.853c0 .789-.715 1.448-1.58 1.448h-6.433c-.865 0-1.579-.659-1.579-1.448v-2.314h2.369v1.091c0 .187.17.338.377.338h4.1c.207 0 .376-.15.376-.338v-2.408c0-.188-.169-.339-.376-.339h-5.267c-.865 0-1.579-.658-1.579-1.448v-4.852c0-.79.715-1.448 1.579-1.448h6.433c.865 0 1.58.658 1.58 1.448ZM1023.648 590.199h4.852v2.332h-4.852v-2.332Z"/></g><path d="m697.818 268.984 8.104 8.105v169.039l-8.104 8.104h-330.68l-8.104-8.104V277.089l8.104-8.105h330.68Zm2.29-5.593h-335.26l-11.363 11.364v173.663l11.363 11.363h335.304l11.363-11.363V274.755l-11.407-11.364Zm-6.078 183.75H370.926l-4.58-4.58V280.612l4.58-4.58H694.03l4.581 4.58v161.949l-4.581 4.58Z" fill="#FFF"/><path d="M389.6 404.991h18.675v18.675H389.6v-18.675Zm18.675-19.071h18.674v18.675h-18.674V385.92Zm90.641-63.114v-2.863c2.688-.264 4.581-.704 5.683-1.322 1.057-.616 1.849-2.07 2.377-4.404h2.952v29.729h-4.008v-21.14h-7.004Zm41.093-3.92c1.321 2.466 1.982 5.813 1.982 10.13 0 4.052-.616 7.4-1.805 10.086-1.762 3.788-4.625 5.726-8.589 5.726-3.568 0-6.254-1.542-8.015-4.669-1.454-2.599-2.203-6.078-2.203-10.483 0-3.391.44-6.298 1.321-8.72 1.63-4.536 4.625-6.782 8.897-6.782 3.876-.045 6.695 1.541 8.412 4.712Zm-3.787 19.907c1.145-1.717 1.718-4.932 1.718-9.645 0-3.391-.441-6.166-1.234-8.368-.792-2.203-2.466-3.304-4.845-3.304-2.202 0-3.832 1.057-4.844 3.128-1.013 2.07-1.542 5.153-1.542 9.205 0 3.039.308 5.505.969 7.355 1.013 2.819 2.731 4.229 5.109 4.229 1.982-.045 3.523-.882 4.669-2.6Zm12.024-1.541c.925-1.894 2.731-3.655 5.417-5.197l4.008-2.334c1.806-1.058 3.039-1.938 3.788-2.687 1.145-1.145 1.718-2.466 1.718-3.964 0-1.718-.529-3.127-1.542-4.14s-2.422-1.542-4.184-1.542c-2.555 0-4.361.969-5.33 2.907-.528 1.057-.837 2.467-.88 4.316h-3.832c.044-2.598.528-4.712 1.453-6.342 1.63-2.907 4.492-4.316 8.589-4.316 3.435 0 5.902.925 7.487 2.774 1.586 1.85 2.379 3.921 2.379 6.167 0 2.378-.838 4.448-2.511 6.122-.969.969-2.731 2.202-5.241 3.567l-2.863 1.586c-1.366.749-2.423 1.453-3.215 2.159-1.41 1.232-2.246 2.553-2.643 4.007h16.296v3.523h-20.48c.132-2.465.661-4.712 1.586-6.606Zm36.468 6.694v-7.311h-13.081v-3.655l13.653-18.983h3.171v19.379h4.404v3.259h-4.404v7.311h-3.743Zm-.044-10.57v-13.521l-9.557 13.521h9.557Zm14.534 8.5c-1.585-1.937-2.378-4.316-2.378-7.09h3.919c.177 1.937.529 3.347 1.102 4.228.968 1.585 2.731 2.379 5.285 2.379 1.982 0 3.567-.53 4.757-1.587 1.19-1.057 1.805-2.422 1.805-4.096 0-2.07-.616-3.479-1.893-4.316-1.277-.837-2.995-1.233-5.242-1.233h-.749c-.264 0-.528 0-.792.044v-3.303l.969.088h.837c1.409 0 2.554-.221 3.479-.661 1.586-.793 2.378-2.158 2.378-4.184 0-1.497-.528-2.642-1.585-3.435a6.029 6.029 0 0 0-3.699-1.234c-2.512 0-4.229.837-5.198 2.511-.528.925-.837 2.202-.881 3.92h-3.699c0-2.203.44-4.097 1.321-5.682 1.541-2.774 4.228-4.184 8.06-4.184 3.038 0 5.417.661 7.047 2.026 1.674 1.366 2.51 3.303 2.51 5.902 0 1.85-.484 3.303-1.497 4.448a6.287 6.287 0 0 1-2.379 1.674c1.586.441 2.775 1.278 3.656 2.511.88 1.233 1.321 2.73 1.321 4.536 0 2.863-.925 5.153-2.819 6.959s-4.536 2.686-7.972 2.686c-3.523 0-6.077-.968-7.663-2.907Zm25.458-28.54h21.228v3.744h-17.089v9.294h15.019v3.655h-15.019v13.917h-4.139v-30.61Z" fill="#20079D"/><g fill="#FFF"><path d="M390.173 220.228h30.654v36.203h-30.654v-36.203ZM397.617 186.667h15.855v33.561h-15.855v-33.561ZM440.955 220.228h30.654v36.203h-30.654v-36.203ZM448.399 186.667h15.856v33.561h-15.856v-33.561ZM491.738 220.228h30.654v36.203h-30.654v-36.203ZM499.181 186.667h15.855v33.561h-15.855v-33.561Zm43.339 33.561h30.654v36.203H542.52v-36.203ZM549.963 186.667h15.856v33.561h-15.856v-33.561Zm43.339 33.561h30.654v36.203h-30.654v-36.203ZM600.745 186.667h15.856v33.561h-15.856v-33.561Zm43.34 33.561h30.654v36.203h-30.654v-36.203ZM651.528 186.667h15.855v33.561h-15.855v-33.561Zm-7.443 280.734h30.654v36.204h-30.654v-36.204ZM651.528 503.605h15.855v33.56h-15.855v-33.56Zm-58.226-36.204h30.654v36.204h-30.654v-36.204Z"/><path d="M600.745 503.605h15.856v33.56h-15.856v-33.56Zm-58.225-36.204h30.654v36.204H542.52v-36.204Z"/><path d="M549.963 503.605h15.856v33.56h-15.856v-33.56Zm-58.225-36.204h30.654v36.204h-30.654v-36.204Z"/><path d="M499.181 503.605h15.855v33.56h-15.855v-33.56Zm-58.226-36.204h30.654v36.204h-30.654v-36.204Z"/><path d="M448.399 503.605h15.856v33.56h-15.856v-33.56Zm-58.182-36.204h30.654v36.204h-30.654v-36.204Z"/><path d="M397.617 503.605h15.855v33.56h-15.855v-33.56Z"/></g></g></svg>