<svg xmlns="http://www.w3.org/2000/svg" xmlns:xlink="http://www.w3.org/1999/xlink" viewBox="0 0 1065 650" width="1420" height="866.667" xmlns:v="https://vecta.io/nano"><style><![CDATA[.B{stroke:#fff}.C{stroke:#20079d}.D{stroke-linecap:square}.E{stroke-miterlimit:3}.F{stroke-opacity:100}.G{stroke-width:3}.H{stroke-width:2.597}.I{stroke-miterlimit:10}]]></style><defs><clipPath id="A"><path d="M0 0h1065v650H0z"/></clipPath><path id="B" d="M59 96.125L18 19.1 360 18l66 56.118h219L706 19.1l341-1.1-45 78.125L706 325H360L59 96.125z"/></defs><g clip-path="url(#A)"><path d="M0 0h1065v650H0z" fill="transparent"/><path d="M545.34 60.368h0 0q-2.053 0-2.053-2.078h0V28.904h0q0-2.078 2.053-2.078h0 11.438 0q4.473 0 6.856 2.412h0 0q2.383 2.411 2.383 6.938h0v1.484h0q0 4.527-2.383 6.939h0 0q-2.383 2.411-6.856 2.411h0-9.385v11.28h0q0 2.078-2.053 2.078zm2.053-29.387v11.874h9.385 0q2.786 0 3.96-1.188h0 0q1.173-1.187 1.173-4.007h0v-1.484h0q0-2.795-1.173-3.995h0 0q-1.174-1.2-3.96-1.2h0-9.385 0zm27.911 29.387h0 0q-1.051 0-1.552-.507h0 0q-.501-.508-.501-1.571h0V28.953h0q0-1.088.501-1.583h0 0q.501-.495 1.552-.495h0 0q1.075 0 1.564.495h0 0q.489.495.489 1.583h0V58.29h0q0 1.063-.489 1.571h0 0q-.489.507-1.564.507zm27.862 0H597.3h0q-5.597 0-8.273-2.709h0 0q-2.676-2.709-2.676-8.373h0V37.907h0q0-5.714 2.664-8.422h0 0q2.664-2.709 8.236-2.659h0 5.915 0q4.594 0 7.014 1.917h0 0q2.419 1.917 2.81 6.048h0 0q.147 1.039-.391 1.583h0 0q-.537.544-1.564.544h0 0q-1.857 0-2.15-2.078h0 0q-.245-2.275-1.552-3.067h0 0q-1.308-.792-4.167-.792h0-5.915 0q-2.591-.024-4.069.594h0 0q-1.479.618-2.102 2.14h0 0q-.623 1.521-.623 4.192h0v11.379h0q0 2.647.623 4.156h0 0q.623 1.508 2.114 2.139h0 0q1.491.631 4.106.631h0 5.866 0q2.859 0 4.167-.804h0 0q1.307-.804 1.552-3.055h0 0q.293-2.078 2.15-2.078h0 0q1.027 0 1.564.545h0 0q.538.544.391 1.583h0 0q-.391 4.155-2.81 6.06h0 0q-2.42 1.905-7.014 1.905h0 0zm33.702 0h-7.038 0q-4.18 0-6.514-1.707h0 0q-2.334-1.707-2.92-5.269h0 0q-.098-1.088.44-1.632h0 0q.537-.545 1.564-.545h0 0q1.026 0 1.503.495h0 0q.476.495.648 1.534h0 0q.366 1.706 1.576 2.337h0 0q1.21.631 3.703.631h0 7.038 0q3.153 0 4.29-1.15h0 0q1.136-1.15 1.136-4.292h0 0q0-3.191-1.173-4.366h0 0q-1.173-1.175-4.253-1.175h0-6.061 0q-4.619 0-6.855-2.288h0 0q-2.236-2.288-2.236-6.963h0 0q0-4.65 2.211-6.901h0 0q2.212-2.251 6.831-2.251h0 5.817 0q3.886 0 6.098 1.608h0 0q2.212 1.607 2.798 4.922h0 0q.147 1.064-.391 1.62h0 0q-.537.557-1.613.557h0 0q-.977 0-1.466-.52h0 0q-.489-.519-.636-1.508h0 0q-.391-1.46-1.49-1.992h0 0q-1.1-.532-3.3-.532h0-5.817 0q-2.932 0-3.934 1.052h0 0q-1.003 1.051-1.003 3.945h0 0q0 2.919 1.027 4.007h0 0q1.026 1.089 3.959 1.089h0 6.061 0q4.815 0 7.173 2.374h0 0q2.359 2.375 2.359 7.322h0 0q0 4.923-2.346 7.26h0 0q-2.347 2.338-7.186 2.338h0 0zm-212.115 0h0 0q-2.053 0-2.053-2.078h0V28.904h0q0-2.078 2.053-2.078h0 11.438 0q4.472 0 6.855 2.412h0 0q2.383 2.411 2.383 6.938h0v1.484h0q0 4.527-2.383 6.939h0 0q-2.383 2.411-6.855 2.411h0-9.385v11.28h0q0 2.078-2.053 2.078zm2.053-29.387v11.874h9.385 0q2.786 0 3.959-1.188h0 0q1.173-1.187 1.173-4.007h0v-1.484h0q0-2.795-1.173-3.995h0 0q-1.173-1.2-3.959-1.2h0-9.385 0zm27.911 29.387h0 0q-1.051 0-1.552-.507h0 0q-.501-.508-.501-1.571h0V28.953h0q0-1.088.501-1.583h0 0q.501-.495 1.552-.495h0 0q1.075 0 1.564.495h0 0q.488.495.488 1.583h0V58.29h0q0 1.063-.488 1.571h0 0q-.489.507-1.564.507zm11.34-.446h0 0q-1.638-1.137-.489-2.918h0l8.945-13.358-9.434-13.456h0q-1.1-1.633.538-2.919h0 0q1.686-1.163 2.835.544h0l8.749 12.418L486 27.815h0q1.271-1.657 2.835-.445h0 0q1.662 1.237.489 2.869h0l-9.63 13.556 9.239 13.159h0q1.148 1.707-.538 2.968h0 0q-1.686 1.163-2.835-.544h0l-8.505-12.12-8.114 12.17h0q-1.125 1.607-2.884.494zm29.914.248h0 0q-1.955-.767-1.173-2.721h0l11.634-28.991h0q.733-1.632 2.297-1.632h0 .098 0q1.588.074 2.151 1.632h0l11.829 28.991h0q.782 1.954-1.125 2.721h0 0q-1.93.767-2.688-1.138h0l-2.64-6.481h-15.226l-2.517 6.481h0q-.758 1.929-2.64 1.138zm12.611-26.764l-5.841 14.989h11.927l-6.086-14.989h0zm23.658 26.962h-1.173 0q-1.955 0-1.955-1.979h0v-1.237h0q0-1.929 1.955-1.929h0 1.173 0q1.858 0 1.858 1.929h0v1.237h0q0 1.979-1.858 1.979h0 0z" fill="#fff"/><g opacity=".66"><linearGradient id="C" x1=".5" y1="0" x2=".809" y2=".604" gradientTransform="matrix(1029,0,0,307,18,18)" gradientUnits="userSpaceOnUse"><stop offset="0%" stop-opacity=".75" stop-color="#2615bd"/><stop offset="100%" stop-opacity="0" stop-color="#000"/></linearGradient><use xlink:href="#B" fill="url(#C)"/></g><g opacity=".66"><linearGradient id="D" x1=".5" y1="0" x2=".178" y2=".615" gradientTransform="matrix(1029,0,0,307,18,18)" gradientUnits="userSpaceOnUse"><stop offset="0%" stop-opacity=".75" stop-color="#2615bd"/><stop offset="100%" stop-opacity="0" stop-color="#000"/></linearGradient><use xlink:href="#B" fill="url(#D)"/></g><g stroke-width="2" class="C D E"><path vector-effect="non-scaling-stroke" stroke-opacity="25" d="M177 136.194L313 138"/><path vector-effect="non-scaling-stroke" stroke-opacity="50" d="M144.751 123.097L266 124.903"/><path vector-effect="non-scaling-stroke" stroke-opacity="75" d="M116 110l171.143 1.806"/></g><g fill="none" class="C D E F"><path d="M781 84l-34 28H603l-34-28" vector-effect="non-scaling-stroke" class="G"/><path d="M299 84l34 28h144l34-28" vector-effect="non-scaling-stroke" stroke-width="2"/><g class="G"><path d="M799 66l25-23h167M286 69l-25-23H94" vector-effect="non-scaling-stroke"/></g></g><g fill="#fff"><path d="M249 64v8h-8.2v4h8.2v8h4v-8h8v-4h-8v-8h-4 0zm562 36v8h-8.2v4h8.2v8h4v-8h8v-4h-8v-8h-4 0zm100.5 56v10h-10v5h10v10h5v-10h10v-5h-10v-10h-5 0zm-724-82v10h-10v5h10v10h5V89h10v-5h-10V74h-5 0zm699 23.5v10h-10v5h10v10h5v-10h10v-5h-10v-10h-5 0z"/></g><g fill="#20079d"><path d="M773.8 43l-53 41h-15l53-41h15 0z" fill-opacity=".5"/><path d="M742.8 43l-53 41h-15l53-41h15 0z"/><path d="M802.8 44l-53 41h-15l53-41h15 0z" fill-opacity=".25"/><path d="M308 43l53 41h15l-53-41h-15 0z" fill-opacity=".5"/><path d="M339 43l53 41h15l-53-41h-15 0z"/><path d="M279 44l53 41h15l-53-41h-15 0z" fill-opacity=".25"/></g><g fill="none" class="C D E F"><path d="M18 19h342l66 55.118h219L706 19h341" vector-effect="non-scaling-stroke" stroke-width="5"/><path d="M426 73l13 11h190l16-11" vector-effect="non-scaling-stroke" class="G"/></g><g fill="#fff"><g class="B H I"><path d="M767.024 576.392l-2.772-2.007c34.069-47.026 52.078-102.682 52.078-160.943 0-151.43-123.196-274.632-274.631-274.632v-3.421c153.319 0 278.052 124.734 278.052 278.053 0 58.988-18.233 115.337-52.727 162.95zm-85.03 21.788l-2.074-2.722c57.395-43.655 90.312-109.993 90.312-182.016 0-126.019-102.52-228.539-228.539-228.539v-3.421c127.903 0 231.96 104.057 231.96 231.96.006 73.096-33.404 140.429-91.659 184.738zm-140.295.431v-3.421c100.217 0 181.748-81.531 181.748-181.748s-81.531-181.748-181.748-181.748v-3.421c102.101 0 185.169 83.068 185.169 185.169S643.8 598.611 541.699 598.611z" vector-effect="non-scaling-stroke"/></g><g stroke-width="6.06" class="B"><circle vector-effect="non-scaling-stroke" cx="405.456" cy="412.816" r="8.865"/><circle vector-effect="non-scaling-stroke" cx="541.699" cy="596.817" r="8.865"/><circle vector-effect="non-scaling-stroke" cx="680.96" cy="596.817" r="8.865"/><circle vector-effect="non-scaling-stroke" cx="765.638" cy="575.391" r="8.865"/></g><path d="M542.263 551.278c-76.349 0-138.461-62.113-138.461-138.462h3.376c0 74.488 60.597 135.085 135.085 135.085 74.483 0 135.086-60.597 135.086-135.085 0-74.483-60.598-135.086-135.086-135.086v-3.376c76.35 0 138.462 62.112 138.462 138.462s-62.112 138.462-138.462 138.462z" vector-effect="non-scaling-stroke" class="B H I"/><circle vector-effect="non-scaling-stroke" cx="542.263" cy="411.055" r="74.7" class="B"/><path d="M440.336 131.935c-.537-.274-1.107-.509-1.705-.71-.604-.196-1.18-.296-1.727-.296-.744 0-1.325.162-1.761.492-.431.329-.649.782-.649 1.358a1.5 1.5 0 0 0 .442 1.079 3.98 3.98 0 0 0 1.152.805l1.492.648c.453.162.9.358 1.347.587.447.223.844.503 1.202.833a3.5 3.5 0 0 1 .844 1.224c.207.486.307 1.084.307 1.8 0 .782-.195 1.498-.587 2.152s-.955 1.168-1.699 1.554-1.638.575-2.694.575a8.03 8.03 0 0 1-1.839-.206c-.598-.135-1.163-.325-1.699-.565a10.15 10.15 0 0 1-1.482-.81l1.068-1.873c.33.246.704.475 1.129.676a7.51 7.51 0 0 0 1.319.492 4.88 4.88 0 0 0 1.275.185 3.83 3.83 0 0 0 1.263-.218c.419-.146.766-.375 1.051-.688.279-.313.419-.732.419-1.257 0-.425-.117-.789-.358-1.09s-.559-.565-.955-.794a9.77 9.77 0 0 0-1.297-.609l-1.42-.599a6.97 6.97 0 0 1-1.347-.81 3.78 3.78 0 0 1-1.017-1.185c-.263-.464-.392-1.04-.392-1.727 0-.822.19-1.537.576-2.141s.917-1.085 1.593-1.442 1.465-.548 2.353-.576c1.057 0 1.957.129 2.706.38a9.4 9.4 0 0 1 1.984.917l-.894 1.839zm14.723-3.047c1.14 0 2.113.191 2.923.576s1.431.934 1.862 1.644.648 1.576.648 2.593a5.93 5.93 0 0 1-.279 1.772 4.76 4.76 0 0 1-.867 1.604c-.391.481-.911.867-1.565 1.152s-1.448.43-2.398.43h-2.158v5.204h-2.409v-14.975h4.243 0zm.33 7.468c.519 0 .961-.089 1.319-.268s.631-.403.833-.676c.195-.274.341-.565.43-.867a2.89 2.89 0 0 0 .134-.805 2.92 2.92 0 0 0-.123-.793c-.084-.297-.218-.576-.413-.844s-.459-.487-.805-.66-.783-.257-1.314-.257h-2.219v5.165h2.158v.005zm14.376-7.468h9.939v2.303h-7.53v3.991h6.708v2.303h-6.708v4.075h7.815v2.303h-10.224v-14.975zm19.911 0h9.938v2.303h-7.529v3.991h6.707v2.303h-6.707v4.075h7.814v2.303h-10.223v-14.975h0zm19.91 14.975v-14.975h4.259c1.482 0 2.745.224 3.796.677s1.895 1.051 2.538 1.789 1.112 1.565 1.408 2.476a8.84 8.84 0 0 1 .442 2.744c0 1.124-.202 2.136-.598 3.024a6.9 6.9 0 0 1-1.638 2.292c-.693.637-1.487 1.124-2.387 1.459s-1.85.503-2.851.503h-4.969v.011zm2.409-2.303h2.141c.794 0 1.52-.112 2.18-.341a4.96 4.96 0 0 0 1.716-.989c.486-.431.867-.973 1.129-1.616.269-.642.403-1.38.403-2.202 0-.933-.157-1.733-.464-2.398s-.716-1.207-1.213-1.626a5.02 5.02 0 0 0-1.638-.928c-.587-.202-1.174-.297-1.75-.297h-2.509v10.397h.005zm-80.625 33.309h9.938v2.303h-7.535v3.991h6.708v2.303h-6.708v4.075h7.815v2.303H431.37v-14.975zm27.596 15.511l-11.498-11.151.699.291.061 10.324h-2.426v-15.489h.123l11.314 11.151-.554-.162-.039-10.469h2.387v15.511h-.067v-.006zm5.098-15.511h9.938v2.303h-7.529v3.991h6.708v2.303h-6.708v4.075h7.814v2.303h-10.223v-14.975zm18.653 0c.821 0 1.576.106 2.263.319s1.269.525 1.75.933c.481.414.855.917 1.123 1.509s.403 1.28.403 2.046a6.11 6.11 0 0 1-.268 1.772c-.179.593-.47 1.124-.872 1.593-.403.475-.934.855-1.593 1.152s-1.476.441-2.449.441h-2.157v5.204h-2.409v-14.974h4.209v.005zm.329 7.468c.537 0 .979-.084 1.336-.257s.632-.386.833-.649.341-.536.431-.832.134-.571.134-.833c0-.246-.039-.52-.123-.811s-.224-.576-.419-.844-.47-.492-.811-.671-.777-.268-1.297-.268h-2.219v5.165h2.135 0zm2.588 1.42l3.824 6.087h-2.778l-3.908-6.026 2.862-.061zm19.458 4.712c-.19.19-.475.38-.855.553-.375.179-.8.341-1.263.492s-.945.268-1.443.358c-.491.089-.961.134-1.397.134-1.207 0-2.292-.185-3.259-.553a7.35 7.35 0 0 1-2.476-1.532 6.64 6.64 0 0 1-1.582-2.314c-.369-.889-.553-1.856-.553-2.901 0-1.303.207-2.454.615-3.443.413-.995.972-1.828 1.688-2.51s1.531-1.191 2.459-1.532 1.901-.514 2.929-.514c.906 0 1.744.101 2.521.307s1.437.464 1.984.783l-.782 2.219c-.263-.151-.598-.296-1.006-.442-.414-.145-.828-.257-1.258-.34a5.98 5.98 0 0 0-1.151-.123c-.867 0-1.638.123-2.315.357-.676.241-1.257.593-1.738 1.062s-.844 1.034-1.101 1.7-.38 1.425-.38 2.275c0 .765.134 1.47.402 2.096s.643 1.174 1.124 1.626 1.056.8 1.727 1.04 1.414.358 2.219.358c.464 0 .917-.039 1.358-.123s.816-.213 1.129-.392v-2.487h-2.817v-2.303h5.227v6.149h-.006zm8.491-3.477l-5.534-10.123h2.94l4.215 8.066-.721.039 4.153-8.105h2.94l-5.618 10.123v4.857h-2.386v-4.857h.011zm-69.195 50.039c-.19.19-.475.38-.855.553a10.48 10.48 0 0 1-1.263.492 10.97 10.97 0 0 1-1.442.358c-.492.089-.962.134-1.398.134-1.207 0-2.292-.185-3.259-.553a7.35 7.35 0 0 1-2.476-1.532c-.687-.654-1.213-1.42-1.582-2.314a7.51 7.51 0 0 1-.553-2.901c0-1.303.207-2.454.615-3.443.413-.995.972-1.828 1.688-2.51s1.531-1.191 2.459-1.532 1.901-.514 2.929-.514c.906 0 1.744.101 2.521.307s1.437.464 1.985.783l-.783 2.219c-.263-.151-.598-.296-1.006-.442-.414-.145-.827-.257-1.258-.341-.425-.083-.81-.122-1.151-.122-.867 0-1.638.122-2.314.357-.677.241-1.258.593-1.739 1.062-.481.464-.844 1.034-1.101 1.7s-.38 1.425-.38 2.275c0 .765.134 1.47.402 2.096s.643 1.174 1.124 1.626a4.88 4.88 0 0 0 1.727 1.04c.671.24 1.414.358 2.219.358.464 0 .917-.039 1.359-.123s.816-.213 1.129-.392v-2.487h-2.818v-2.303h5.227v6.149h-.006zm8.038-13.6c.822 0 1.576.106 2.264.319a4.91 4.91 0 0 1 1.75.933 4.32 4.32 0 0 1 1.123 1.509c.268.593.402 1.28.402 2.046 0 .593-.089 1.18-.268 1.772a4.34 4.34 0 0 1-.872 1.593c-.402.475-.933.855-1.593 1.152s-1.476.441-2.448.441h-2.158v5.204h-2.409v-14.975h4.209v.006zm.33 7.468c.537 0 .978-.084 1.336-.257s.631-.386.833-.649c.195-.262.341-.536.43-.833s.134-.57.134-.832c0-.246-.039-.52-.123-.811s-.223-.576-.419-.844-.469-.492-.81-.671-.777-.268-1.297-.268h-2.219v5.165h2.135zm2.594 1.42l3.823 6.087h-2.778l-3.907-6.026 2.862-.061zm5.265 6.087l6.624-15.595h.145l6.624 15.595h-2.756l-4.65-11.85 1.704-1.152-5.349 13.002h-2.342zm4.153-5.573h5.12l.822 2.057h-6.663l.721-2.057zm13.538-9.402l4.712 11.727-1.38-.268 4.404-11.459h2.818l-6.708 15.673-6.708-15.673h2.862zm13.555 0h2.409v14.975h-2.409v-14.975zm5.635 0h10.016v2.303h-3.868v12.672h-2.386v-12.672h-3.762v-2.303zm17.193 10.123l-5.533-10.123h2.94l4.214 8.066-.721.039 4.154-8.105h2.94l-5.618 10.123v4.857h-2.387v-4.857h.011zm-83.241 36.523h9.53v2.191H437.3v12.051h-2.269v-12.051h-3.583v-2.191zm12.728 0h9.452v2.191h-7.16v3.795h6.377v2.192h-6.377v3.873h7.434v2.191h-9.726v-14.242h0zm25.707 14.751l-10.939-10.604.665.274.056 9.821h-2.309v-14.734h.118l10.76 10.604-.531-.157-.039-9.961h2.269v14.751h-.05v.006zm11.777-11.856a11.27 11.27 0 0 0-1.626-.676c-.576-.19-1.124-.285-1.644-.285-.704 0-1.263.156-1.671.469s-.615.744-.615 1.292a1.45 1.45 0 0 0 .419 1.028c.28.296.649.548 1.096.766l1.42.615c.43.156.855.341 1.28.559.424.212.805.48 1.145.793s.604.699.8 1.163.296 1.034.296 1.711c0 .743-.184 1.425-.559 2.045s-.911 1.113-1.615 1.476-1.56.548-2.56.548c-.598 0-1.185-.067-1.75-.196a8.5 8.5 0 0 1-1.615-.536c-.509-.23-.979-.487-1.409-.772l1.017-1.783a6.42 6.42 0 0 0 1.079.649c.403.195.822.352 1.252.469a4.62 4.62 0 0 0 1.213.173c.403 0 .805-.067 1.202-.206s.732-.358 1.001-.654c.268-.302.402-.699.402-1.197 0-.402-.117-.749-.341-1.039s-.531-.537-.911-.755c-.38-.212-.788-.408-1.235-.576l-1.353-.57c-.458-.207-.883-.464-1.28-.771a3.67 3.67 0 0 1-.967-1.124c-.246-.441-.375-.989-.375-1.643 0-.783.185-1.459.548-2.035s.872-1.028 1.515-1.369 1.392-.52 2.241-.548c1.007 0 1.862.123 2.572.363s1.341.531 1.889.872l-.861 1.744zm4.22-2.895h2.292v14.242h-2.292v-14.242zm5.629 7.143c0-.989.19-1.922.57-2.8.38-.872.9-1.649 1.565-2.331.666-.676 1.437-1.207 2.32-1.593s1.822-.576 2.828-.576c.99 0 1.929.19 2.806.576.884.386 1.655.917 2.331 1.593a7.45 7.45 0 0 1 1.582 2.331c.386.872.576 1.805.576 2.8 0 1.007-.19 1.946-.576 2.829s-.911 1.654-1.582 2.32a7.21 7.21 0 0 1-2.331 1.553 7.2 7.2 0 0 1-2.806.559c-1.017 0-1.962-.184-2.839-.559a7.31 7.31 0 0 1-2.309-1.548c-.665-.659-1.185-1.431-1.565-2.308s-.57-1.828-.57-2.846zm2.348 0c0 .705.128 1.364.38 1.979s.609 1.152 1.068 1.616a4.91 4.91 0 0 0 1.587 1.084 4.81 4.81 0 0 0 1.956.391c.677 0 1.314-.128 1.906-.391a4.8 4.8 0 0 0 1.554-1.084 5.16 5.16 0 0 0 1.046-1.616c.257-.615.38-1.269.38-1.979s-.129-1.38-.392-1.995-.614-1.157-1.056-1.627a4.73 4.73 0 0 0-1.565-1.095 4.78 4.78 0 0 0-1.934-.392c-.693 0-1.336.129-1.94.392a4.85 4.85 0 0 0-1.576 1.095c-.453.47-.799 1.012-1.045 1.633a5.35 5.35 0 0 0-.369 1.989zm28.093 7.608l-10.939-10.604.666.274.056 9.821h-2.309v-14.734h.117l10.761 10.604-.532-.157-.039-9.961h2.27v14.751h-.051v.006z"/></g></g></svg>