<svg xmlns="http://www.w3.org/2000/svg" style="isolation:isolate" viewBox="0 0 1065 650" width="1420" height="650pt"><defs><clipPath id="a"><path d="M0 0h1065v650H0z"/></clipPath></defs><g clip-path="url(#a)"><clipPath id="b"><path fill="#FFF" d="M0 0h1065v650H0z"/></clipPath><g clip-path="url(#b)"><path fill="none" d="M0 0h1065v650H0z"/><path d="M545.34 60.368q-2.053 0-2.053-2.078V28.904q0-2.078 2.053-2.078h11.438q4.473 0 6.856 2.412 2.383 2.411 2.383 6.938v1.484q0 4.527-2.383 6.939-2.383 2.411-6.856 2.411h-9.385v11.28q0 2.078-2.053 2.078Zm2.053-29.387v11.874h9.385q2.786 0 3.96-1.188 1.173-1.187 1.173-4.007v-1.484q0-2.795-1.173-3.995-1.174-1.2-3.96-1.2h-9.385Zm27.911 29.387q-1.051 0-1.552-.507-.501-.508-.501-1.571V28.953q0-1.088.501-1.583.501-.495 1.552-.495 1.075 0 1.564.495.489.495.489 1.583V58.29q0 1.063-.489 1.571-.489.507-1.564.507Zm27.862 0H597.3q-5.597 0-8.273-2.709-2.676-2.709-2.676-8.373V37.907q0-5.714 2.664-8.422 2.664-2.709 8.236-2.659h5.915q4.594 0 7.014 1.917 2.419 1.917 2.81 6.048.147 1.039-.391 1.583-.537.544-1.564.544-1.857 0-2.15-2.078-.245-2.275-1.552-3.067-1.308-.792-4.167-.792h-5.915q-2.591-.024-4.069.594-1.479.618-2.102 2.14-.623 1.521-.623 4.192v11.379q0 2.647.623 4.156.623 1.508 2.114 2.139 1.491.631 4.106.631h5.866q2.859 0 4.167-.804 1.307-.804 1.552-3.055.293-2.078 2.15-2.078 1.027 0 1.564.545.538.544.391 1.583-.391 4.155-2.81 6.06-2.42 1.905-7.014 1.905Zm33.702 0h-7.038q-4.18 0-6.514-1.707-2.334-1.707-2.92-5.269-.098-1.088.44-1.632.537-.545 1.564-.545 1.026 0 1.503.495.476.495.648 1.534.366 1.706 1.576 2.337 1.21.631 3.703.631h7.038q3.153 0 4.29-1.15 1.136-1.15 1.136-4.292 0-3.191-1.173-4.366-1.173-1.175-4.253-1.175h-6.061q-4.619 0-6.855-2.288-2.236-2.288-2.236-6.963 0-4.65 2.211-6.901 2.212-2.251 6.831-2.251h5.817q3.886 0 6.098 1.608 2.212 1.607 2.798 4.922.147 1.064-.391 1.62-.537.557-1.613.557-.977 0-1.466-.52-.489-.519-.636-1.508-.391-1.46-1.49-1.992-1.1-.532-3.3-.532h-5.817q-2.932 0-3.934 1.052-1.003 1.051-1.003 3.945 0 2.919 1.027 4.007 1.026 1.089 3.959 1.089h6.061q4.815 0 7.173 2.374 2.359 2.375 2.359 7.322 0 4.923-2.346 7.26-2.347 2.338-7.186 2.338Zm-212.115 0q-2.053 0-2.053-2.078V28.904q0-2.078 2.053-2.078h11.438q4.472 0 6.855 2.412 2.383 2.411 2.383 6.938v1.484q0 4.527-2.383 6.939-2.383 2.411-6.855 2.411h-9.385v11.28q0 2.078-2.053 2.078Zm2.053-29.387v11.874h9.385q2.786 0 3.959-1.188 1.173-1.187 1.173-4.007v-1.484q0-2.795-1.173-3.995-1.173-1.2-3.959-1.2h-9.385Zm27.911 29.387q-1.051 0-1.552-.507-.501-.508-.501-1.571V28.953q0-1.088.501-1.583.501-.495 1.552-.495 1.075 0 1.564.495.488.495.488 1.583V58.29q0 1.063-.488 1.571-.489.507-1.564.507Zm11.34-.446q-1.638-1.137-.489-2.918l8.945-13.358-9.434-13.456q-1.1-1.633.538-2.919 1.686-1.163 2.835.544l8.749 12.418L486 27.815q1.271-1.657 2.835-.445 1.662 1.237.489 2.869l-9.63 13.556 9.239 13.159q1.148 1.707-.538 2.968-1.686 1.163-2.835-.544l-8.505-12.12-8.114 12.17q-1.125 1.607-2.884.494Zm29.914.248q-1.955-.767-1.173-2.721l11.634-28.991q.733-1.632 2.297-1.632h.098q1.588.074 2.151 1.632l11.829 28.991q.782 1.954-1.125 2.721-1.93.767-2.688-1.138l-2.64-6.481h-15.226l-2.517 6.481q-.758 1.929-2.64 1.138Zm12.611-26.764-5.841 14.989h11.927l-6.086-14.989Zm23.658 26.962h-1.173q-1.955 0-1.955-1.979v-1.237q0-1.929 1.955-1.929h1.173q1.858 0 1.858 1.929v1.237q0 1.979-1.858 1.979Z" fill="#FFF"/><g opacity=".66" style="opacity:.66"><linearGradient id="c" x1=".5" y1="0" x2=".809" y2=".18" gradientTransform="matrix(1029 0 0 307 18 18)" gradientUnits="userSpaceOnUse"><stop offset="0%" stop-opacity=".75" style="stop-color:#2615bd"/><stop offset="100%" stop-opacity="0" style="stop-color:#000"/></linearGradient><path d="M59 96.125 18 19.1 360 18l66 56.118h219L706 19.1l341-1.1-45 78.125L706 325H360L59 96.125Z" fill="url(#c)"/></g><g opacity=".66" style="opacity:.66"><linearGradient id="d" x1=".5" y1="0" x2=".178" y2=".183" gradientTransform="matrix(1029 0 0 307 18 18)" gradientUnits="userSpaceOnUse"><stop offset="0%" stop-opacity=".75" style="stop-color:#2615bd"/><stop offset="100%" stop-opacity="0" style="stop-color:#000"/></linearGradient><path d="M59 96.125 18 19.1 360 18l66 56.118h219L706 19.1l341-1.1-45 78.125L706 325H360L59 96.125Z" fill="url(#d)"/></g><path stroke-width="2" stroke="#ffffff" stroke-opacity="2500" stroke-linecap="square" stroke-miterlimit="3" d="M177 136.194 313 138"/><path stroke-width="2" stroke="#ffffff" stroke-opacity="5000" stroke-linecap="square" stroke-miterlimit="3" d="M144.751 123.097 266 124.903"/><path stroke-width="2" stroke="#ffffff" stroke-opacity="7500" stroke-linecap="square" stroke-miterlimit="3" d="m116 110 171.143 1.806"/><path d="m781 84-34 28H603l-34-28" fill="none" stroke-width="3" stroke="#20079D" stroke-opacity="10000" stroke-linecap="square" stroke-miterlimit="3"/><path d="m299 84 34 28h144l34-28" fill="none" stroke-width="2" stroke="#20079D" stroke-opacity="10000" stroke-linecap="square" stroke-miterlimit="3"/><path d="m799 66 25-23h167M286 69l-25-23H94" fill="none" stroke-width="3" stroke="#20079D" stroke-opacity="10000" stroke-linecap="square" stroke-miterlimit="3"/><path d="M249 64v8h-8.2v4h8.2v8h4v-8h8v-4h-8v-8h-4ZM811 100v8h-8.2v4h8.2v8h4v-8h8v-4h-8v-8h-4ZM911.5 156v10h-10v5h10v10h5v-10h10v-5h-10v-10h-5ZM187.5 74v10h-10v5h10v10h5V89h10v-5h-10V74h-5ZM886.5 97.5v10h-10v5h10v10h5v-10h10v-5h-10v-10h-5Z" fill="#FFF"/><path d="m773.8 43-53 41h-15l53-41h15Z" fill="#20079D" fill-opacity=".5"/><path d="m742.8 43-53 41h-15l53-41h15Z" fill="#20079D"/><path d="m802.8 44-53 41h-15l53-41h15Z" fill="#20079D" fill-opacity=".25"/><path d="m308 43 53 41h15l-53-41h-15Z" fill="#20079D" fill-opacity=".5"/><path d="m339 43 53 41h15l-53-41h-15Z" fill="#20079D"/><path d="m279 44 53 41h15l-53-41h-15Z" fill="#20079D" fill-opacity=".25"/><path d="M18 19h342l66 55.118h219L706 19h341" fill="none" stroke-width="5" stroke="#20079D" stroke-opacity="10000" stroke-linecap="square" stroke-miterlimit="3"/><path d="m426 73 13 11h190l16-11" fill="none" stroke-width="3" stroke="#20079D" stroke-opacity="10000" stroke-linecap="square" stroke-miterlimit="3"/></g><g style="opacity:.2"><path d="M36.5 641.217h33.446l20.904-33.446H57.404L36.5 641.217Z" fill="#6200FF" style="opacity:.4"/><path d="M103.392 641.217h33.446l20.904-33.446h-33.446l-20.904 33.446Z" fill="#6200FF" style="opacity:.2"/><path d="M170.284 641.217h33.446l20.904-33.446h-33.446l-20.904 33.446Z" fill="#6200FF" style="opacity:.4"/><path d="M237.177 641.217h33.446l20.904-33.446H258.08l-20.903 33.446Z" fill="#6200FF" style="opacity:.2"/><path d="M304.069 641.217h33.446l20.904-33.446h-33.446l-20.904 33.446Z" fill="#6200FF" style="opacity:.4"/><path d="M370.961 641.217h33.446l20.904-33.446h-33.446l-20.904 33.446Z" fill="#6200FF" style="opacity:.2"/><path d="M437.853 641.217h33.446l20.904-33.446h-33.446l-20.904 33.446Z" fill="#6200FF" style="opacity:.4"/><path d="M504.746 641.217h33.445l20.904-33.446h-33.446l-20.903 33.446Z" fill="#6200FF" style="opacity:.2"/><path d="M571.638 641.217h33.446l20.904-33.446h-33.447l-20.903 33.446Z" fill="#6200FF" style="opacity:.4"/><path d="M638.53 641.217h33.446l20.904-33.446h-33.446l-20.904 33.446Z" fill="#6200FF" style="opacity:.2"/><path d="M705.422 641.217h33.446l20.904-33.446h-33.446l-20.904 33.446Z" fill="#6200FF" style="opacity:.4"/><path d="M772.314 641.217h33.446l20.904-33.446h-33.446l-20.904 33.446Z" fill="#6200FF" style="opacity:.2"/><path d="M839.206 641.217h33.446l20.904-33.446H860.11l-20.904 33.446Z" fill="#6200FF" style="opacity:.4"/><path d="M906.099 641.217h33.446l20.904-33.446h-33.446l-20.904 33.446Z" fill="#6200FF" style="opacity:.2"/><path d="M972.991 641.217h33.446l20.904-33.446h-33.446l-20.904 33.446Z" fill="#6200FF" style="opacity:.4"/></g><g fill="#20079D"><path d="M51.006 590.199h4.852v2.332h-4.852v-2.332ZM75.946 586.231V596.5c0 .79-.714 1.449-1.579 1.449h-8.013v-13.166h8.013c.865 0 1.579.658 1.579 1.448Zm-2.746.884h-4.476v8.501H73.2c.207 0 .377-.151.377-.338v-7.825c0-.188-.17-.338-.377-.338ZM90.016 586.231V596.5c0 .79-.715 1.449-1.58 1.449h-6.47c-.866 0-1.58-.659-1.58-1.449v-10.269c0-.79.715-1.448 1.58-1.448h6.47c.865 0 1.58.658 1.58 1.448Zm-2.747.884h-4.137c-.207 0-.377.15-.377.339v7.824c0 .187.17.338.377.338h4.137c.207 0 .377-.15.377-.338v-7.824c0-.189-.17-.339-.377-.339ZM111.195 584.783v13.166h-2.709l-4.514-8.634v8.634h-2.369v-13.166h2.689l4.533 8.67v-8.67h2.37ZM125.264 586.231V596.5c0 .79-.715 1.449-1.58 1.449h-6.47c-.865 0-1.579-.659-1.579-1.449v-10.269c0-.79.714-1.448 1.579-1.448h6.47c.865 0 1.58.658 1.58 1.448Zm-2.746.884h-4.138c-.207 0-.376.15-.376.339v7.824c0 .187.169.338.376.338h4.138c.207 0 .376-.15.376-.338v-7.824c0-.189-.169-.339-.376-.339ZM138.375 587.115h-3.612v10.833h-2.37v-10.833h-3.611v-2.332h9.593v2.332ZM158.67 586.231v2.313h-2.37v-1.09c0-.189-.169-.339-.376-.339h-4.138c-.207 0-.377.15-.377.339v7.824c0 .187.17.338.377.338h4.138c.207 0 .376-.15.376-.338v-1.091h2.37v2.314c0 .789-.715 1.448-1.58 1.448h-6.47c-.865 0-1.58-.659-1.58-1.448v-10.27c0-.79.715-1.448 1.58-1.448h6.47c.865 0 1.58.658 1.58 1.448ZM172.401 586.231v4.27c0 .601-.358 1.072-.941 1.241.583.169.941.639.941 1.241v4.966h-2.37v-4.664c0-.264-.113-.377-.376-.377h-4.477v5.041h-2.37v-13.166h8.012c.866 0 1.581.658 1.581 1.448Zm-2.746.884h-4.477v3.461h4.477c.263 0 .376-.113.376-.377v-2.745c0-.189-.169-.339-.376-.339ZM186.469 586.231V596.5c0 .79-.714 1.449-1.579 1.449h-6.47c-.865 0-1.58-.659-1.58-1.449v-10.269c0-.79.715-1.448 1.58-1.448h6.47c.865 0 1.579.658 1.579 1.448Zm-2.745.884h-4.138c-.207 0-.377.15-.377.339v7.824c0 .187.17.338.377.338h4.138c.207 0 .376-.15.376-.338v-7.824c0-.189-.169-.339-.376-.339ZM200.502 586.231v2.313h-2.37v-1.09c0-.189-.169-.339-.376-.339h-4.101c-.207 0-.376.15-.376.339v2.407c0 .188.169.338.376.338h5.266c.866 0 1.581.659 1.581 1.449v4.853c0 .789-.715 1.448-1.581 1.448h-6.432c-.865 0-1.579-.659-1.579-1.448v-2.314h2.369v1.091c0 .187.169.338.376.338h4.101c.207 0 .376-.15.376-.338v-2.408c0-.188-.169-.339-.376-.339h-5.267c-.865 0-1.579-.658-1.579-1.448v-4.852c0-.79.714-1.448 1.579-1.448h6.433c.865 0 1.58.658 1.58 1.448ZM214.533 586.231v2.313h-2.37v-1.09c0-.189-.169-.339-.376-.339h-4.1c-.207 0-.377.15-.377.339v2.407c0 .188.17.338.377.338h5.266c.865 0 1.579.659 1.579 1.449v4.853c0 .789-.714 1.448-1.579 1.448h-6.432c-.866 0-1.581-.659-1.581-1.448v-2.314h2.37v1.091c0 .187.17.338.377.338h4.1c.207 0 .376-.15.376-.338v-2.408c0-.188-.169-.339-.376-.339h-5.266c-.865 0-1.58-.658-1.58-1.448v-4.852c0-.79.715-1.448 1.58-1.448h6.432c.865 0 1.58.658 1.58 1.448ZM225.029 590.199h4.852v2.332h-4.852v-2.332Z"/></g><g fill="#20079D"><path d="M250.661 590.199h4.852v2.332h-4.852v-2.332ZM275.601 586.231V596.5c0 .79-.715 1.449-1.58 1.449h-8.012v-13.166h8.012c.865 0 1.58.658 1.58 1.448Zm-2.746.884h-4.476v8.501h4.476c.207 0 .376-.151.376-.338v-7.825c0-.188-.169-.338-.376-.338ZM289.67 586.231V596.5c0 .79-.715 1.449-1.58 1.449h-6.47c-.865 0-1.58-.659-1.58-1.449v-10.269c0-.79.715-1.448 1.58-1.448h6.47c.866 0 1.58.658 1.58 1.448Zm-2.746.884h-4.138c-.207 0-.376.15-.376.339v7.824c0 .187.169.338.376.338h4.138c.207 0 .376-.15.376-.338v-7.824c0-.189-.169-.339-.376-.339ZM310.849 584.783v13.166h-2.708l-4.514-8.634v8.634h-2.37v-13.166h2.689l4.533 8.67v-8.67h2.37ZM324.919 586.231V596.5c0 .79-.715 1.449-1.58 1.449h-6.47c-.865 0-1.58-.659-1.58-1.449v-10.269c0-.79.715-1.448 1.58-1.448h6.47c.865 0 1.58.658 1.58 1.448Zm-2.746.884h-4.138c-.207 0-.376.15-.376.339v7.824c0 .187.169.338.376.338h4.138c.207 0 .376-.15.376-.338v-7.824c0-.189-.169-.339-.376-.339ZM338.029 587.115h-3.611v10.833h-2.37v-10.833h-3.611v-2.332h9.592v2.332ZM358.324 586.231v2.313h-2.37v-1.09c0-.189-.169-.339-.376-.339h-4.138c-.207 0-.376.15-.376.339v7.824c0 .187.169.338.376.338h4.138c.207 0 .376-.15.376-.338v-1.091h2.37v2.314c0 .789-.715 1.448-1.58 1.448h-6.47c-.865 0-1.58-.659-1.58-1.448v-10.27c0-.79.715-1.448 1.58-1.448h6.47c.866 0 1.58.658 1.58 1.448ZM372.055 586.231v4.27c0 .601-.357 1.072-.94 1.241.583.169.94.639.94 1.241v4.966h-2.37v-4.664c0-.264-.112-.377-.376-.377h-4.477v5.041h-2.369v-13.166h8.012c.865 0 1.58.658 1.58 1.448Zm-2.746.884h-4.477v3.461h4.477c.264 0 .376-.113.376-.377v-2.745c0-.189-.169-.339-.376-.339ZM386.124 586.231V596.5c0 .79-.715 1.449-1.579 1.449h-6.471c-.865 0-1.579-.659-1.579-1.449v-10.269c0-.79.715-1.448 1.579-1.448h6.471c.864 0 1.579.658 1.579 1.448Zm-2.746.884h-4.138c-.207 0-.376.15-.376.339v7.824c0 .187.169.338.376.338h4.138c.207 0 .376-.15.376-.338v-7.824c0-.189-.169-.339-.376-.339ZM400.156 586.231v2.313h-2.37v-1.09c0-.189-.169-.339-.376-.339h-4.1c-.207 0-.376.15-.376.339v2.407c0 .188.169.338.376.338h5.266c.866 0 1.58.659 1.58 1.449v4.853c0 .789-.715 1.448-1.58 1.448h-6.432c-.865 0-1.58-.659-1.58-1.448v-2.314h2.37v1.091c0 .187.169.338.376.338h4.1c.207 0 .376-.15.376-.338v-2.408c0-.188-.169-.339-.376-.339h-5.266c-.865 0-1.58-.658-1.58-1.448v-4.852c0-.79.715-1.448 1.58-1.448h6.432c.866 0 1.58.658 1.58 1.448ZM414.188 586.231v2.313h-2.37v-1.09c0-.189-.169-.339-.376-.339h-4.1c-.207 0-.377.15-.377.339v2.407c0 .188.17.338.377.338h5.266c.865 0 1.579.659 1.579 1.449v4.853c0 .789-.714 1.448-1.579 1.448h-6.433c-.865 0-1.58-.659-1.58-1.448v-2.314h2.37v1.091c0 .187.17.338.377.338h4.1c.207 0 .376-.15.376-.338v-2.408c0-.188-.169-.339-.376-.339h-5.267c-.865 0-1.579-.658-1.579-1.448v-4.852c0-.79.715-1.448 1.579-1.448h6.433c.865 0 1.58.658 1.58 1.448ZM424.683 590.199h4.853v2.332h-4.853v-2.332Z"/></g><g fill="#20079D"><path d="M450.315 590.199h4.853v2.332h-4.853v-2.332ZM475.256 586.231V596.5c0 .79-.715 1.449-1.58 1.449h-8.012v-13.166h8.012c.865 0 1.58.658 1.58 1.448Zm-2.746.884h-4.477v8.501h4.477c.207 0 .376-.151.376-.338v-7.825c0-.188-.169-.338-.376-.338ZM489.325 586.231V596.5c0 .79-.715 1.449-1.58 1.449h-6.47c-.865 0-1.58-.659-1.58-1.449v-10.269c0-.79.715-1.448 1.58-1.448h6.47c.865 0 1.58.658 1.58 1.448Zm-2.746.884h-4.138c-.207 0-.376.15-.376.339v7.824c0 .187.169.338.376.338h4.138c.207 0 .376-.15.376-.338v-7.824c0-.189-.169-.339-.376-.339ZM510.504 584.783v13.166h-2.708l-4.514-8.634v8.634h-2.37v-13.166h2.689l4.533 8.67v-8.67h2.37ZM524.574 586.231V596.5c0 .79-.715 1.449-1.58 1.449h-6.47c-.866 0-1.58-.659-1.58-1.449v-10.269c0-.79.715-1.448 1.58-1.448h6.47c.865 0 1.58.658 1.58 1.448Zm-2.747.884h-4.138c-.206 0-.376.15-.376.339v7.824c0 .187.17.338.376.338h4.138c.207 0 .377-.15.377-.338v-7.824c0-.189-.17-.339-.377-.339ZM537.684 587.115h-3.612v10.833h-2.37v-10.833h-3.611v-2.332h9.593v2.332ZM557.979 586.231v2.313h-2.37v-1.09c0-.189-.169-.339-.376-.339h-4.138c-.207 0-.376.15-.376.339v7.824c0 .187.169.338.376.338h4.138c.207 0 .376-.15.376-.338v-1.091h2.37v2.314c0 .789-.715 1.448-1.58 1.448h-6.47c-.865 0-1.58-.659-1.58-1.448v-10.27c0-.79.715-1.448 1.58-1.448h6.47c.865 0 1.58.658 1.58 1.448ZM571.71 586.231v4.27c0 .601-.358 1.072-.941 1.241.583.169.941.639.941 1.241v4.966h-2.37v-4.664c0-.264-.113-.377-.376-.377h-4.477v5.041h-2.37v-13.166h8.013c.865 0 1.58.658 1.58 1.448Zm-2.746.884h-4.477v3.461h4.477c.263 0 .376-.113.376-.377v-2.745c0-.189-.169-.339-.376-.339ZM585.779 586.231V596.5c0 .79-.715 1.449-1.58 1.449h-6.47c-.865 0-1.58-.659-1.58-1.449v-10.269c0-.79.715-1.448 1.58-1.448h6.47c.865 0 1.58.658 1.58 1.448Zm-2.746.884h-4.138c-.207 0-.376.15-.376.339v7.824c0 .187.169.338.376.338h4.138c.207 0 .376-.15.376-.338v-7.824c0-.189-.169-.339-.376-.339ZM599.811 586.231v2.313h-2.37v-1.09c0-.189-.169-.339-.376-.339h-4.101c-.206 0-.376.15-.376.339v2.407c0 .188.17.338.376.338h5.267c.865 0 1.58.659 1.58 1.449v4.853c0 .789-.715 1.448-1.58 1.448h-6.432c-.866 0-1.58-.659-1.58-1.448v-2.314h2.369v1.091c0 .187.17.338.377.338h4.1c.207 0 .376-.15.376-.338v-2.408c0-.188-.169-.339-.376-.339h-5.266c-.865 0-1.58-.658-1.58-1.448v-4.852c0-.79.715-1.448 1.58-1.448h6.432c.865 0 1.58.658 1.58 1.448ZM613.842 586.231v2.313h-2.369v-1.09c0-.189-.17-.339-.377-.339h-4.1c-.207 0-.376.15-.376.339v2.407c0 .188.169.338.376.338h5.266c.866 0 1.58.659 1.58 1.449v4.853c0 .789-.714 1.448-1.58 1.448h-6.432c-.865 0-1.58-.659-1.58-1.448v-2.314h2.37v1.091c0 .187.169.338.376.338h4.1c.207 0 .377-.15.377-.338v-2.408c0-.188-.17-.339-.377-.339h-5.266c-.865 0-1.58-.658-1.58-1.448v-4.852c0-.79.715-1.448 1.58-1.448h6.432c.866 0 1.58.658 1.58 1.448ZM624.338 590.199h4.852v2.332h-4.852v-2.332Z"/></g><g fill="#20079D"><path d="M649.97 590.199h4.853v2.332h-4.853v-2.332ZM674.911 586.231V596.5c0 .79-.715 1.449-1.58 1.449h-8.012v-13.166h8.012c.865 0 1.58.658 1.58 1.448Zm-2.746.884h-4.477v8.501h4.477c.207 0 .376-.151.376-.338v-7.825c0-.188-.169-.338-.376-.338ZM688.98 586.231V596.5c0 .79-.715 1.449-1.58 1.449h-6.47c-.865 0-1.58-.659-1.58-1.449v-10.269c0-.79.715-1.448 1.58-1.448h6.47c.865 0 1.58.658 1.58 1.448Zm-2.746.884h-4.138c-.207 0-.377.15-.377.339v7.824c0 .187.17.338.377.338h4.138c.207 0 .376-.15.376-.338v-7.824c0-.189-.169-.339-.376-.339ZM710.159 584.783v13.166h-2.709l-4.514-8.634v8.634h-2.369v-13.166h2.689l4.533 8.67v-8.67h2.37ZM724.228 586.231V596.5c0 .79-.714 1.449-1.579 1.449h-6.47c-.866 0-1.58-.659-1.58-1.449v-10.269c0-.79.714-1.448 1.58-1.448h6.47c.865 0 1.579.658 1.579 1.448Zm-2.746.884h-4.138c-.206 0-.376.15-.376.339v7.824c0 .187.17.338.376.338h4.138c.207 0 .377-.15.377-.338v-7.824c-.001-.189-.17-.339-.377-.339ZM737.339 587.115h-3.612v10.833h-2.37v-10.833h-3.611v-2.332h9.593v2.332ZM757.634 586.231v2.313h-2.37v-1.09c0-.189-.169-.339-.376-.339h-4.138c-.207 0-.377.15-.377.339v7.824c0 .187.17.338.377.338h4.138c.207 0 .376-.15.376-.338v-1.091h2.37v2.314c0 .789-.715 1.448-1.58 1.448h-6.47c-.865 0-1.58-.659-1.58-1.448v-10.27c0-.79.715-1.448 1.58-1.448h6.47c.865 0 1.58.658 1.58 1.448ZM771.365 586.231v4.27c0 .601-.358 1.072-.941 1.241.583.169.941.639.941 1.241v4.966h-2.37v-4.664c0-.264-.113-.377-.376-.377h-4.477v5.041h-2.37v-13.166h8.013c.865 0 1.58.658 1.58 1.448Zm-2.746.884h-4.477v3.461h4.477c.263 0 .376-.113.376-.377v-2.745c0-.189-.169-.339-.376-.339ZM785.434 586.231V596.5c0 .79-.715 1.449-1.58 1.449h-6.47c-.865 0-1.58-.659-1.58-1.449v-10.269c0-.79.715-1.448 1.58-1.448h6.47c.865 0 1.58.658 1.58 1.448Zm-2.747.884h-4.137c-.207 0-.377.15-.377.339v7.824c0 .187.17.338.377.338h4.137c.207 0 .377-.15.377-.338v-7.824c0-.189-.17-.339-.377-.339ZM799.466 586.231v2.313h-2.37v-1.09c0-.189-.169-.339-.376-.339h-4.101c-.206 0-.376.15-.376.339v2.407c0 .188.17.338.376.338h5.267c.865 0 1.58.659 1.58 1.449v4.853c0 .789-.715 1.448-1.58 1.448h-6.432c-.866 0-1.58-.659-1.58-1.448v-2.314h2.369v1.091c0 .187.17.338.377.338h4.1c.207 0 .376-.15.376-.338v-2.408c0-.188-.169-.339-.376-.339h-5.266c-.866 0-1.58-.658-1.58-1.448v-4.852c0-.79.715-1.448 1.58-1.448h6.432c.865 0 1.58.658 1.58 1.448ZM813.497 586.231v2.313h-2.37v-1.09c0-.189-.169-.339-.376-.339h-4.1c-.207 0-.377.15-.377.339v2.407c0 .188.17.338.377.338h5.266c.866 0 1.58.659 1.58 1.449v4.853c0 .789-.714 1.448-1.58 1.448h-6.432c-.865 0-1.58-.659-1.58-1.448v-2.314h2.37v1.091c0 .187.169.338.376.338h4.1c.207 0 .377-.15.377-.338v-2.408c0-.188-.17-.339-.377-.339h-5.266c-.865 0-1.58-.658-1.58-1.448v-4.852c0-.79.715-1.448 1.58-1.448h6.432c.866 0 1.58.658 1.58 1.448ZM823.993 590.199h4.852v2.332h-4.852v-2.332Z"/></g><g fill="#20079D"><path d="M849.625 590.199h4.852v2.332h-4.852v-2.332ZM874.565 586.231V596.5c0 .79-.714 1.449-1.579 1.449h-8.013v-13.166h8.013c.865 0 1.579.658 1.579 1.448Zm-2.746.884h-4.476v8.501h4.476c.207 0 .377-.151.377-.338v-7.825c0-.188-.17-.338-.377-.338ZM888.635 586.231V596.5c0 .79-.715 1.449-1.58 1.449h-6.47c-.865 0-1.58-.659-1.58-1.449v-10.269c0-.79.715-1.448 1.58-1.448h6.47c.865 0 1.58.658 1.58 1.448Zm-2.747.884h-4.138c-.206 0-.376.15-.376.339v7.824c0 .187.17.338.376.338h4.138c.207 0 .377-.15.377-.338v-7.824c-.001-.189-.17-.339-.377-.339ZM909.814 584.783v13.166h-2.709l-4.514-8.634v8.634h-2.369v-13.166h2.689l4.533 8.67v-8.67h2.37ZM923.883 586.231V596.5c0 .79-.715 1.449-1.58 1.449h-6.47c-.865 0-1.58-.659-1.58-1.449v-10.269c0-.79.715-1.448 1.58-1.448h6.47c.865 0 1.58.658 1.58 1.448Zm-2.746.884h-4.138c-.207 0-.376.15-.376.339v7.824c0 .187.169.338.376.338h4.138c.207 0 .376-.15.376-.338v-7.824c0-.189-.169-.339-.376-.339ZM936.993 587.115h-3.611v10.833h-2.37v-10.833h-3.611v-2.332h9.592v2.332ZM957.289 586.231v2.313h-2.37v-1.09c0-.189-.17-.339-.377-.339h-4.137c-.207 0-.377.15-.377.339v7.824c0 .187.17.338.377.338h4.137c.207 0 .377-.15.377-.338v-1.091h2.37v2.314c0 .789-.715 1.448-1.58 1.448h-6.47c-.865 0-1.58-.659-1.58-1.448v-10.27c0-.79.715-1.448 1.58-1.448h6.47c.865 0 1.58.658 1.58 1.448ZM971.019 586.231v4.27c0 .601-.357 1.072-.94 1.241.583.169.94.639.94 1.241v4.966h-2.369v-4.664c0-.264-.113-.377-.377-.377h-4.476v5.041h-2.37v-13.166h8.012c.866 0 1.58.658 1.58 1.448Zm-2.745.884h-4.477v3.461h4.477c.263 0 .376-.113.376-.377v-2.745c0-.189-.17-.339-.376-.339ZM985.089 586.231V596.5c0 .79-.715 1.449-1.58 1.449h-6.47c-.866 0-1.58-.659-1.58-1.449v-10.269c0-.79.714-1.448 1.58-1.448h6.47c.865 0 1.58.658 1.58 1.448Zm-2.747.884h-4.137c-.207 0-.377.15-.377.339v7.824c0 .187.17.338.377.338h4.137c.207 0 .377-.15.377-.338v-7.824c0-.189-.17-.339-.377-.339ZM999.12 586.231v2.313h-2.369v-1.09c0-.189-.17-.339-.377-.339h-4.1c-.207 0-.376.15-.376.339v2.407c0 .188.169.338.376.338h5.266c.866 0 1.58.659 1.58 1.449v4.853c0 .789-.714 1.448-1.58 1.448h-6.432c-.865 0-1.58-.659-1.58-1.448v-2.314h2.37v1.091c0 .187.169.338.376.338h4.1c.207 0 .377-.15.377-.338v-2.408c0-.188-.17-.339-.377-.339h-5.266c-.865 0-1.58-.658-1.58-1.448v-4.852c0-.79.715-1.448 1.58-1.448h6.432c.866 0 1.58.658 1.58 1.448ZM1013.152 586.231v2.313h-2.37v-1.09c0-.189-.169-.339-.376-.339h-4.1c-.207 0-.377.15-.377.339v2.407c0 .188.17.338.377.338h5.266c.865 0 1.58.659 1.58 1.449v4.853c0 .789-.715 1.448-1.58 1.448h-6.433c-.865 0-1.579-.659-1.579-1.448v-2.314h2.369v1.091c0 .187.17.338.377.338h4.1c.207 0 .376-.15.376-.338v-2.408c0-.188-.169-.339-.376-.339h-5.267c-.865 0-1.579-.658-1.579-1.448v-4.852c0-.79.715-1.448 1.579-1.448h6.433c.865 0 1.58.658 1.58 1.448ZM1023.648 590.199h4.852v2.332h-4.852v-2.332Z"/></g><path d="m734.72 512.352-2.333-1.688c28.669-39.573 43.824-86.407 43.824-135.434 0-127.429-103.67-231.103-231.102-231.103v-2.879c129.018 0 233.981 104.964 233.981 233.982 0 49.638-15.343 97.056-44.37 137.122Zm-71.553 18.335-1.745-2.291c48.298-36.735 75.997-92.559 75.997-153.166 0-106.045-86.27-192.316-192.316-192.316v-2.879c107.631 0 195.195 87.564 195.195 195.195.005 61.51-28.109 118.171-77.131 155.457Zm-118.058.363v-2.879c84.332 0 152.941-68.608 152.941-152.941s-68.609-152.941-152.941-152.941v-2.879c85.918 0 155.819 69.902 155.819 155.82 0 85.918-69.901 155.82-155.819 155.82Z" fill="#FFF" stroke-width="3.463" stroke="#FFF" stroke-miterlimit="10"/><g fill="#FFF" stroke-width="8.08" stroke="#FFF"><circle cx="430.46" cy="374.703" r="7.46"/><circle cx="545.109" cy="529.54" r="7.46"/><circle cx="662.297" cy="529.54" r="7.46"/><circle cx="733.553" cy="511.51" r="7.46"/></g><path d="M545.583 491.219c-64.248 0-116.515-52.268-116.515-116.516h2.841c0 62.682 50.992 113.674 113.674 113.674 62.678 0 113.675-50.992 113.675-113.674 0-62.677-50.993-113.675-113.675-113.675v-2.841c64.249 0 116.516 52.267 116.516 116.516s-52.267 116.516-116.516 116.516Z" fill="#FFF" stroke-width="3.463" stroke="#FFF" stroke-miterlimit="10"/><circle cx="545.583" cy="373.221" r="62.86" fill="#FFF" stroke-width="1.333" stroke="#FFF"/><path d="M459.811 138.341c-.451-.23-.931-.428-1.434-.597a4.716 4.716 0 0 0-1.454-.249c-.626 0-1.115.136-1.481.414-.363.277-.547.658-.547 1.143-.003.34.131.667.372.908.281.281.609.51.97.677l1.255.545c.381.137.758.302 1.134.494.376.188.71.424 1.011.701.308.289.55.64.71 1.03.175.409.259.912.259 1.515 0 .658-.164 1.26-.494 1.811-.33.55-.804.983-1.43 1.308-.626.324-1.378.483-2.267.483a6.764 6.764 0 0 1-1.547-.173 7.57 7.57 0 0 1-1.43-.475 8.66 8.66 0 0 1-1.247-.682l.899-1.576c.277.207.592.4.95.569.356.172.727.311 1.11.414.349.099.71.151 1.072.155a3.228 3.228 0 0 0 1.063-.183c.353-.123.645-.316.885-.579.234-.263.352-.616.352-1.058 0-.357-.098-.664-.301-.917a2.823 2.823 0 0 0-.804-.668 8.22 8.22 0 0 0-1.091-.513l-1.195-.504a5.815 5.815 0 0 1-1.133-.681 3.178 3.178 0 0 1-.856-.997c-.222-.391-.33-.876-.33-1.454 0-.691.16-1.293.485-1.801a3.479 3.479 0 0 1 1.34-1.214c.569-.3 1.233-.461 1.98-.485.89 0 1.647.109 2.277.32a7.957 7.957 0 0 1 1.67.772l-.753 1.547Zm12.39-2.564c.959 0 1.778.161 2.46.485.681.324 1.204.786 1.566 1.383.363.598.546 1.327.546 2.182a5.002 5.002 0 0 1-.235 1.492 4.003 4.003 0 0 1-.73 1.349c-.329.405-.766.73-1.317.97-.55.24-1.218.362-2.017.362h-1.816v4.379h-2.028v-12.602h3.571Zm.278 6.285c.436 0 .808-.075 1.11-.226a1.9 1.9 0 0 0 .7-.569c.165-.23.287-.475.362-.729.07-.22.108-.448.113-.678a2.474 2.474 0 0 0-.103-.667 2.222 2.222 0 0 0-.348-.71 1.82 1.82 0 0 0-.677-.556c-.292-.145-.659-.216-1.106-.216h-1.867v4.346h1.816v.005Zm12.097-6.285h8.364v1.938h-6.337v3.359h5.645v1.938h-5.645v3.429h6.577v1.938h-8.604v-12.602Zm16.755 0h8.363v1.938h-6.336v3.359h5.644v1.938h-5.644v3.429h6.576v1.938h-8.603v-12.602Zm16.754 12.602v-12.602h3.584c1.247 0 2.31.189 3.195.57.884.381 1.594.884 2.135 1.505a5.922 5.922 0 0 1 1.185 2.084c.245.745.371 1.525.372 2.309 0 .946-.17 1.798-.503 2.545a5.816 5.816 0 0 1-1.378 1.929 6.076 6.076 0 0 1-2.009 1.227 6.818 6.818 0 0 1-2.399.424h-4.182v.009Zm2.028-1.938h1.801c.668 0 1.279-.094 1.835-.287a4.2 4.2 0 0 0 1.444-.832 3.63 3.63 0 0 0 .95-1.36c.226-.54.339-1.162.339-1.853 0-.785-.132-1.459-.391-2.018a3.886 3.886 0 0 0-1.02-1.368 4.22 4.22 0 0 0-1.379-.781 4.508 4.508 0 0 0-1.472-.25h-2.112v8.749h.005Zm-67.846 28.029h8.362v1.938h-6.34v3.359h5.644v1.938h-5.644v3.429h6.576v1.938h-8.598V174.47Zm23.222 13.053-9.676-9.384.588.245.052 8.688h-2.042v-13.034h.104l9.52 9.383-.466-.136-.033-8.81h2.009v13.053h-.056v-.005Zm4.29-13.053h8.362v1.938h-6.335v3.359h5.645v1.938h-5.645v3.429h6.575v1.938h-8.602V174.47Zm15.696 0c.691 0 1.326.09 1.904.269a4.137 4.137 0 0 1 1.473.785c.405.348.72.772.945 1.27.226.498.339 1.077.339 1.721a5.134 5.134 0 0 1-.225 1.492 3.677 3.677 0 0 1-.734 1.34c-.339.4-.786.72-1.341.97-.554.249-1.242.371-2.06.371h-1.816v4.379h-2.027v-12.601h3.542v.004Zm.277 6.285c.452 0 .824-.071 1.124-.217.301-.145.532-.324.701-.546.169-.221.287-.451.363-.7a2.39 2.39 0 0 0 .113-.701c0-.207-.033-.437-.104-.682a2.286 2.286 0 0 0-.352-.71 1.955 1.955 0 0 0-.683-.565c-.287-.151-.654-.226-1.091-.226h-1.868v4.347h1.797Zm2.178 1.195 3.218 5.122h-2.338l-3.289-5.071 2.409-.051Zm16.374 3.965c-.16.16-.4.32-.72.465a8.744 8.744 0 0 1-1.063.414 9.049 9.049 0 0 1-1.214.301 6.626 6.626 0 0 1-1.175.113c-1.016 0-1.929-.155-2.743-.465a6.195 6.195 0 0 1-2.083-1.289 5.576 5.576 0 0 1-1.332-1.948 6.31 6.31 0 0 1-.465-2.441c0-1.096.174-2.065.517-2.897.348-.837.818-1.538 1.421-2.112a5.92 5.92 0 0 1 2.069-1.289 7.08 7.08 0 0 1 2.465-.433c.762 0 1.468.085 2.121.258.654.174 1.21.391 1.67.659l-.658 1.868a5.336 5.336 0 0 0-.847-.372 7.314 7.314 0 0 0-1.058-.286 5.006 5.006 0 0 0-.969-.104c-.729 0-1.378.104-1.948.3a3.975 3.975 0 0 0-1.463.894 3.95 3.95 0 0 0-.926 1.431c-.216.56-.32 1.199-.32 1.914 0 .644.113 1.237.339 1.764.225.527.541.988.945 1.368.405.381.889.673 1.454.875.564.202 1.19.302 1.867.302.39 0 .772-.033 1.143-.104s.686-.179.95-.33v-2.093h-2.371v-1.938h4.399v5.175h-.005Zm7.145-2.926-4.657-8.519h2.474l3.547 6.788-.607.033 3.495-6.821h2.474l-4.728 8.519v4.087h-2.007v-4.087h.009Zm-58.228 42.108c-.16.16-.399.32-.719.465-.345.161-.7.299-1.063.414a9.045 9.045 0 0 1-1.214.301 6.637 6.637 0 0 1-1.176.113c-1.016 0-1.929-.156-2.742-.465a6.2 6.2 0 0 1-2.084-1.289 5.597 5.597 0 0 1-1.331-1.948 6.32 6.32 0 0 1-.466-2.441c0-1.096.175-2.065.518-2.897.348-.837.818-1.538 1.42-2.112a5.933 5.933 0 0 1 2.07-1.289 7.075 7.075 0 0 1 2.464-.433c.763 0 1.468.085 2.122.258.654.174 1.209.391 1.67.659l-.659 1.868a5.184 5.184 0 0 0-.846-.372 7.462 7.462 0 0 0-1.059-.287 5.072 5.072 0 0 0-.968-.103c-.73 0-1.379.103-1.948.3a3.975 3.975 0 0 0-1.463.894c-.405.391-.71.87-.926 1.431-.217.56-.32 1.199-.32 1.914 0 .644.113 1.237.338 1.764.226.527.541.988.946 1.368.418.39.913.688 1.453.875.565.202 1.19.302 1.867.302.391 0 .772-.033 1.144-.104a3.04 3.04 0 0 0 .95-.33v-2.093h-2.371v-1.938h4.398v5.175h-.005Zm6.764-11.445c.692 0 1.326.09 1.905.269.54.159 1.041.426 1.473.785.404.349.727.782.945 1.27.226.499.338 1.077.338 1.721 0 .499-.075.993-.225 1.492a3.67 3.67 0 0 1-.734 1.34c-.338.4-.785.72-1.341.97-.555.249-1.242.371-2.06.371h-1.815v4.379h-2.028v-12.602h3.542v.005Zm.278 6.285c.452 0 .823-.071 1.124-.217.301-.145.531-.324.701-.546.164-.22.287-.451.362-.701.075-.25.113-.479.113-.7 0-.207-.033-.437-.104-.682a2.243 2.243 0 0 0-.352-.71 1.94 1.94 0 0 0-.682-.565c-.287-.151-.654-.226-1.091-.226h-1.868v4.347h1.797Zm2.183 1.195 3.217 5.122h-2.338l-3.288-5.071 2.409-.051Zm4.43 5.122 5.574-13.123h.122l5.574 13.123h-2.319l-3.913-9.972 1.434-.969-4.501 10.941h-1.971Zm3.495-4.69h4.309l.691 1.731h-5.607l.607-1.731Zm11.392-7.912 3.965 9.869-1.161-.226 3.706-9.643h2.371L495 226.841l-5.645-13.189h2.408Zm11.407 0h2.027v12.602h-2.027v-12.602Zm4.742 0h8.428v1.938h-3.255v10.664h-2.008V215.59h-3.165v-1.938Zm14.468 8.519-4.656-8.519h2.474l3.546 6.788-.607.033 3.496-6.821h2.474l-4.728 8.519v4.087h-2.009v-4.087h.01Zm-70.048 30.734h8.02v1.844h-3.095v10.141h-1.91v-10.141h-3.015v-1.844Zm10.711 0h7.954v1.844h-6.025v3.193h5.366v1.845h-5.366v3.259h6.255v1.844h-8.184v-11.985Zm21.632 12.413-9.205-8.923.56.23.047 8.265h-1.943v-12.399h.099l9.055 8.923-.447-.132-.033-8.382h1.909v12.413h-.042v.005Zm9.911-9.977a9.52 9.52 0 0 0-1.369-.569 4.406 4.406 0 0 0-1.383-.24c-.592 0-1.063.132-1.406.395-.344.264-.518.626-.518 1.087-.002.324.125.635.353.865.235.25.546.462.922.645l1.195.518c.362.131.72.286 1.077.47.357.178.678.404.964.667.286.264.508.588.673.979.165.39.249.87.249 1.44 0 .625-.155 1.199-.47 1.721a3.339 3.339 0 0 1-1.359 1.242c-.593.305-1.313.461-2.155.461-.503 0-.997-.057-1.472-.165a7.198 7.198 0 0 1-1.359-.451 8.415 8.415 0 0 1-1.186-.65l.856-1.5c.284.211.588.394.908.546a6.16 6.16 0 0 0 1.053.395c.333.093.676.142 1.021.145.339 0 .678-.056 1.012-.173.334-.117.616-.301.842-.551.225-.254.338-.588.338-1.007 0-.338-.098-.63-.287-.874-.188-.244-.447-.452-.766-.635a7.506 7.506 0 0 0-1.04-.485l-1.138-.48a5.308 5.308 0 0 1-1.077-.649 3.079 3.079 0 0 1-.814-.945c-.207-.372-.316-.833-.316-1.383 0-.659.156-1.228.462-1.713.305-.484.733-.865 1.274-1.152.542-.286 1.172-.437 1.886-.461.848 0 1.567.104 2.165.306a7.624 7.624 0 0 1 1.589.734l-.724 1.467Zm3.551-2.436h1.929v11.985h-1.929v-11.985Zm4.737 6.011c0-.832.159-1.617.479-2.356a6.526 6.526 0 0 1 1.317-1.962 6.184 6.184 0 0 1 1.952-1.34 5.867 5.867 0 0 1 2.38-.485c.833 0 1.624.16 2.361.485a6.308 6.308 0 0 1 1.962 1.34 6.254 6.254 0 0 1 1.331 1.962c.325.733.485 1.519.485 2.356a5.86 5.86 0 0 1-.485 2.38 6.234 6.234 0 0 1-1.331 1.953 6.08 6.08 0 0 1-1.962 1.307 6.052 6.052 0 0 1-2.361.47 6.015 6.015 0 0 1-2.389-.47 6.17 6.17 0 0 1-1.943-1.303 6.163 6.163 0 0 1-1.317-1.942 5.96 5.96 0 0 1-.479-2.395Zm1.975 0c0 .593.108 1.148.32 1.665.212.518.513.97.899 1.36a4.141 4.141 0 0 0 2.981 1.241c.57 0 1.106-.107 1.604-.329a4.039 4.039 0 0 0 1.308-.912c.376-.394.675-.855.88-1.36.216-.517.32-1.068.32-1.665 0-.598-.109-1.161-.33-1.679a4.636 4.636 0 0 0-.889-1.369 3.973 3.973 0 0 0-1.316-.922 4.03 4.03 0 0 0-1.628-.329 4.034 4.034 0 0 0-2.959 1.251 4.165 4.165 0 0 0-.879 1.374 4.52 4.52 0 0 0-.311 1.674Zm23.641 6.402-9.205-8.923.56.23.047 8.265h-1.943v-12.399h.099l9.055 8.923-.448-.132-.033-8.382h1.911v12.413h-.043v.005Z" fill="#FFF"/></g></svg>