<svg xmlns="http://www.w3.org/2000/svg" viewBox="0 0 762 762" stroke-width="3" xmlns:v="https://vecta.io/nano"><path stroke="#000" opacity="0" d="M1 0l761 1v761H0L1 0zm166 66l-4 2-73 75v9q20 21 30 53l6 25 6 11v13l6 11v47l-6 11v49l-6 11v51l6 11v49q12 12 14 34l12 18 47 46q20 7 30 24l17 5 13 13q19 5 30 18l17 5 37 25 28 14h9l82-44q10-13 30-18l13-13 17-5q18-23 48-36l11-19h2l9-4 32-57v-43l6-10v-74l-2-1-4-6v-55l-2-4-2-2-2-2v-32l6-10v-14l12-29v-13l29-52h2v-1l2-1 3-4-4-4-1-1-13-12-12-15-2-1-10-8-6-9-34-31H167z"/><g fill="#010f19" stroke="#010f19"><path d="M167 66h429l31 30-6-6-3 1q-7 4-6 18l6 11h-2l-32-30H483l-3-2-1-4-5 2-2 4H179l-57 55-2 13 12 17v7l18 41q-2 15 6 21v33q9 4 6 21l-6 8v45l-6 9v103q10 8 6 31l24 42 1 1 24 25 3 2 3 4 57 38 3 4 57 32 2 3 17 9h7l31 18 7-5 1-2 42-22v-2l41-22 1-2 71-46 1-2 31-29 2-4 4-2 8-16 4-2 8-17q-4-15 3-19l3 1v18l-27 53-3-6-4 2-8 17 4 4 5 1 5-2-8 12q-30 13-48 36l-17 5-13 13q-20 5-30 18l-82 44h-9l-28-14-37-25-17-5q-11-13-30-18l-13-13-17-5q-10-17-30-24l-47-46-12-18q-2-22-14-34v-49l-6-11v-51l6-11v-49l6-11v-47l-6-11v-13l-6-11-6-25q-10-32-30-53v-9l73-75 4-2zm440 12v3l5 3v-2l-5-4zm-477 24l-4 4 1 2 2-1 3-4-2-1zm-12 12l-4 4 1 2 2-1 3-4-2-1zm-12 12l-4 4 1 2 2-1 3-4-2-1zm523-30l1 1v1l-1-2zm2 3l5 7 9 8h-5l-9-15zm-438 9h377l10 6 3 4 3 2 32 34-21 44h-3v-6l12-23v-13l-27-35q-19 1-27-7-5 7-18 6-7-8-23-6l-2 4-23 2-12-6-9 6-6-5-6 5q-3-7-14-6l-2 4-14 8-6-5-9 5-12-6-9 6-8-6h-37l-9 6-6-5-8 9 17 18-35 24-6 18 5 3v8l-15 9 1 1-18 11 2-3v-3l-4 2-5 10 1 1-8 6-1 3-4 2h-3q-2-16 6-21l17-11-5-7 22-16 2-5-7-10q-18-2-28-11l-1-21-3-5-3-1-5 4-1 3 6 12-5 9 5 9-5 8-18 12 11 27v25l4 4 5 1 3-5v5l-11 16-4 2-21 47q4 22-6 31v32l6 8v16q7 4 6 18l24 43h1l36 37q27 21 64 32 22-5 30 6h26l8-6h22q3-8 18-6l20-11v-2l36-22v-2l13-11 2-4 3-1 9-17 4-2 18-36 2 1v6l-21 42-18 22-8 5-6 11-24 13-6 11-18 9h-31q-11 10-36 7 2 21-9 28l-14 10 9 14 11 7 7 17 3 1 4-3 5-8 3-1 4 4 5 7 9 1 11-9 17-6 1-3-12-18 4-5 18-13 9 6 12-6 4 4 5 7 3 1 29-18v3l-18 13 1 2-19 10 1 2-61 34 1 2-43 20v3l-30-14-1-3h-5l-1-4-35-17-1-3h-11l-1-6-5-3-1-3-11-3-1-3h-7l2-5q-10 1-12-4l-1-3h-7l2-5-8-1-14-11-3-5-7-2-32-29 1-2-15-25q2-15-6-18V352l6-9v-97l-6-8v-16q-8-4-6-18l-23-49 38-40v-2l10-5zm143 432l-4 2-8 10q2 15-5 22l9 7q9-6 10-21l19-9 3-4-1-3-4-4-9 6-10-6zm311-426l1 1v1l-1-2zm2 3l11 13 13 12 1 1 4 4-3 4-2 1v1h-2l-2 5-1-1 4-11-9-7-14-22zm-3 39l2 1 1 5 5 3-5 6-12 7q0 15-9 20h-4l18-40 4-2zm22 3l-1 2-10 15-1-1 12-16zm-12 18l-1 2-4 9-1-1 6-10zm-314 3l12 1-3 5h-20l11-6zm85 0l11 2h1l5 7 5 3h-8l-15-9 1-3zm-97 6v3l-10 3v-1l10-5zm320 3l-1 2-4 9-1-1 6-10zm-338 3v3l-8 3 2-3 6-3zm139 0l10 6h-4l-7-3 1-3zm12 6l10 6h-4l-7-3 1-3zm181 3l-1 2v1l-1-1 2-2zm-169 3l3 2 2 4h-2l-3-6zm119 0v10l-5 2-1-6 4-5 2-1zm28 0l2 1v12l-11 20-1-11 10-22z"/><path d="M352 216h62l48 21 10 9 3 4 3 2 3 4 3 2 2 3h1l5 6h1q16 17 23 45h-2q-11-33-35-52l-11-5-3-8-56-25h-54l-2 4-45 16-24 24-5 9-8 5-1 9 6 9q-8 2-6 15l4 5 2 1q0 16 13 21l39 26 3 4 10 4-17 39v13l-9 18h-3v-6q-13-3-17 4l-4 7-9 2 12 17h-2q-19-11-27-33l-2 1-17-34v-12l-6-8v-48l6-9 6-4v-3l-4 2-1 3-1-16 18-29 3-1 3-9 31-31 51-21zm-88 120l-2 1-4 5 1 3 29 21 3-1 3-4-2-5-28-20zm229-120l5 3 3 3 12 12 3 6h-2l-21-24zm149 0v2l-3 6-1-1 4-7zm-54 9v18l-5 3-1-12 6-9zm50 0l-1 2v1l-1-1 2-2zm-2 9v2l-3 6-1-1 4-7zm-4 9l-1 2v1l-1-1 2-2zm-254 3v9l-5 3-1-6 4-5 2-1zm231 0l3 1q4 19-5 26l-1-24 3-3zm-27 1v88h-1l-5-10v-67l6-11zm-197 2l5 4v5l-6-3 1-6zm144 9l5 4v2l-6-3 1-3zm-157 1v17l-3 6h-3q-2-17 6-23zm258 0v2l-2 1 2-3zm-2 4l-1 2v1l-1-1 2-2zm-237 4l5 15h-2l-3-15zm235 0l-1 2v1l-1-1 2-2zm-85 10l5 11h-2l-3-11zm-175 6v14l-6 8q2 13-3 19h-3v-18l12-23zm31 0l5 17h-2q-8-4-3-17zm150 6l3 5 2 1v5l-6-3 1-8zm78 14l1 2 2 2 2 5h-1l-2-6-3-1 1-2zm-222 7l9 14 2 1-1 3-8-4-2-14zm153 2l2 1v5l-6-2 4-4zm-273 6l23 1-2 5h-19l-3-2 1-4zm210 0l4 4 1 3-8 11-4 3-2 3q-16 2-22 15l-2 3-9 4-4 7-21 8 6 11h-3l-4-2-4-11 3-5 11-5v-2l18-10v-2l18-10v-2l21-12 1-11zm24 0l5 3v21l-6-3 1-21zm-180 6l11 1-2 6-8 4-1-11zm272 0l3 1v23l-6-2v-19l3-3zm-86 24l5 4-2 8h-4l1-12zm60 0l5 3v42l-6-8 1-37zm-22 12l3 1q2 16-5 22l-1-20 3-3zm52 1l5 11v91l-5 8V361zm18 5l2 6h-1l-1-6zm4 6l1 1v1l-1-2zm-113 1v20l-5 3-1-12 6-11zm34 17l2 1q2 16-5 22l-1-19 4-4zm-40 7v11l-11 22-6 2-1-3 18-32zm-83 2l5 9h-2l-3-9zm-52 5l68 52 2-9 5 5-2 4-4 3-1 2-28-14-4-8-9-3-2-4-25-17-25 19-5 9q-6 8-21 7l-10 8-5 9-3 1-5-3-1-2 6-1-2-6-4-2 1-4 3-1 2-4 2 11 25-17v-2l24-16v-2l6-4v-2l12-9zm58 10l3 2 2 10h-2l-3-12zm149 0v66l-11 28-5 3-5 11-33 33-10 3v-1l8-6 6-10 24-20 20-40 2-65 4-2zm-143 13l5 11h-2l-3-11zm53 11v3l-33 33h-7v-1l22-19 12-13 6-3zm138 7v2l-2 1 2-3zm-335 23l14 12h-2l-11-5-2-4 1-3zm18 6l13 10 23 8 9-6 11 12h-20l-37-15 1-9zm137 0v3l-5 3v-1l3-4 2-1zm-15 6l3 1-1 3-4 2-1-3 3-3zm-14 6l5 1 1 5h-11v-1l4-2 1-3zm-48 6l5 1-2 5-4-2 1-4zm18 0l17 1-3 5q-12 3-15-2l1-4zm233 6v2l-3 6-1-1 4-7zm-4 9l-1 2-4 9-1-1 6-10zm-6 12l-1 2-10 15-1-1 12-16zm-12 18l-1 2-9 18-9 4h-2l-2 5-1-1 10-16 9-3 5-9z"/></g><g fill="#0c1c23" stroke="#0c1c23"><path d="M607 78l5 4v2l-5-3v-3zm-131 6l4 2 2 4h-9l1-2 2-4zm143 6l7 6-2 1 4 4 2 1 1-2 13 18 4 2 1-2 19 26-2 1 1 5 5-1-1 2-29 52v13l-12 29v14l-2-1-4 6 2 1-2 36-4-2-8-17-5 3 5 9h-2q-7-6-4-20l6-9 6-4v-3l-5 3-1-15-5 2-1-1 6-11 3-1 9-18v-12l-2-1-4 3 6-8 1 4 8-10 7-18 14-9-2-4h-4l-1-6 1-4-5-5-2 1-25-27 2-1q-7-5-6-18l7-12zm18 42l-1 3 12 9 3-1 3-4-1-3q-4-7-16-4zm-507-30l2 1-3 4-2 1-1-2 4-4z"/><path d="M439 114l15 6 6-5 6 5 9-6q8 9 30 6l5-3 1-3h12q4 7 18 6l12-6 11 6q13-3 17 4 7 18 23 28l2 17-12 23v6h3l3-5v5l-5 10-1-4-5 4-1 8h4l2-1-5 11-4 2-3 18 2 1-1 3-1-3-5 10-1-5-5 4q-8 5-7 21l3 4 7-6-4-8 6-8v64h-1l-7-10-6 5-4-6-5 3 3-4 8-16v-7l-13-22-10-5-13-24 6-9-3-5-3-1-5 4-4 8-3 1 6 11h-2l-5-6h1l-14-17 2-1-3-5-2-1-1 2-5-2-1 2-14-7 2-1-15-18-3 1 3 5-3 1v1l-4-1 3-1-10-5-7-9 1-4 16-14-8-15-3-1-5 4-4 7-12 1-5-6-7-5-8 5q-14-3-18 4l-9 20h-27l5-3v-3l-11 3 2 3q-14-1-20 6l3 1-3 1-1-2-17 8-1-2-9 6 1 1-3 1-1-8-5-2 9-21 32-21-17-19 9-8 6 5 8-6h37l9 6 9-6 12 6 9-5 6 5 14-9 1-3zm71 18l-4 2-7 8 11 8 5-2 7-9-1-3-11-4zm-144 12l-2 1-4 5 1 3 5 3 3-1 3-4-1-3-5-4zm-120-12l5 4 1 21 4 4q5 8 21 7l9 8 2 5-7 9-17 11 5 7-20 14-3 18 2 1-1 3-1-3-3 5-8-3-1-27-11-27 20-14 3-7-5-9 5-9-6-12 4-5 2-1zm171 30l3 3v3l-6-2 3-4zm-18 6l11 10q20 2 30 14h-1l-11-6h-16l-8-6-14-2 1-4h5l3-6zm33 6l5 4 2 3-3-1-10-2 6-4zm-263 40l5 12h-1l-4-12zm99 2l2 1-3 5 1 1-3 1-1-2 4-6zm87 6l14 1-3 5h6l3-6h34l58 28 3 6q17 6 26 22l18 34h2l1-4 5 12-2-2-4 1v10l-21-47-3 1-2 5-10-6-9 6-9-9 12-17-15-9-19 7-19 19 11 16-11 15 5 6-14 13 2-4v-2l-5-10-1 4-6-7 4 2h2l-12-14 4 2h2l-5-17-1 3-2-3 2-1-6-17 6-1-3-11-3 2v-3l-6-3-1-3-4 1h-2l-4 3-1 8 2 1-1 3-1-3q-8 6-6 23l2 1-1 3-1-3-12 23v18l2 1-9 5 1-2v-4l-12 1-32-1 2-5-23-1-1 4 2 2-7 1-1-7-4-1-2-11 6-9q-8-3-6-15l4-5 7-4 27-31 46-17 1-3zm-180 16l5 12h-1l-4-12zm359 22l7 17-1-1h-3l-5-11 2-1v-4zm-92 4q8 5 9 18l11 9-8 9-10-8 6-9-11-4-1-9 4-6zm-285 7l5 13-4-3-1-10zm389 15l3 3 3 5h-2l-3-5-1 3-2-3 2-1v-2zm61 11l10 7q-2 21 7 32l1 18 5-1 2 19-2 1v5l-5 3 6 9 5-1v14l-1-1-5 1 1 5 5-1v20l-1-1-5 1 1 5 5-1v14l-1-1-11 10 1 2 5-3v3 42l-27 48-12 6-8 16-4 2-8-3-1-3 10-18 2 1 3 5 27-53v-18l-3-1-3 2 6-12 3-1 3-6v-91l-12-25 3 1h3v-24l-5 2v-29zm15 117l-3 4 5 2v-5l-2-1zM162 298v5l-5 7-1-4 6-8zm463 7l2 2 3 12-1-1-3-1-1-12zm-72 11l5 8h-2l-3-8zm-303 2l2 1-5 7v-3l3-5zm200 0l6 1-2 5h-12l8-6zm19 0h21l2 3v4l-21-1-3-2 1-4zm105 6l3 2 11 24-2-2-13-11-3-7 4-6zm-76 1v6l-3 4-4 1 4-5 3-6zm61 6q7 7 5 24l-5 7v-31zm-295 5l28 20 2 5-3 4-3 1-29-21-1-3 4-5 2-1zm253 3l4 3-2 1 3 4 1-4 5 8-3-3-3 1 1 11 5-2v6l-11 19-3 1-4-2 6-9-6-3 11-18-4-13zm-31 1v15l-3 4-3 1-6-3v-3h-8l20-14zm96 15v20l-2-2-2 1-10 16-4-2v-4l-4 2-1 3-1-5 6-11 16-14 2-4zm-120 3l1 2 5 1-5 9 6 6 11 3-5 8-12 7q-9 7-7 27l6 9q-8 3-6 15l3 4h1l6-10 3-1 12 6 5-3v-3l-6-2 22-27 6-2 6-17 2 2 1 4 1 1-1 3-1-3-18 35h4l2-1-5 9-1-2-17 14-1-2q-19-3-23 9l-1-3h-2l2-4-5-5-2 1-5-14h1l3 4h2l-5-11-1 3-2-3 2-1-5-17-1 4-6-7 4 2h2l-5-9-2 1-5-11 3 1h3l-6-11 23-10 5-8 8-3zm105 2l3 3-5 8-1-8 3-3zm-326 22l5 12h-1l-4-12zm338 2l3 2h1l11 26-5 7-1-5-6 4v18l-2 2-9 4-1 3 4 4 5 1 3-2v33l-20 40-17 17-10 6-8 12-4 2 3 1-3 1-1-2-30 18-5-3-4-8-3-1-12 6-9-6-20 16-1 3 12 18-3 4q-20 0-26 13h-7l-5-3-4-8-3-1-5 4-4 7-3 1-5-3-6-18-12-6-6-12 16-12q9-9 8-27 25 4 38-6l-3 4 1 2h5l3-6q30 4 42-11l7-12 23-12 7-12 7-4 16-20 21-42v-6l-2-1 2-4 1 3 5-10 4 1 2 5-12 17 2-1 17-5 9 5v-2l-4-9q7-5 6-18l-6-9 3-3zM408 552l-2 1-4 5 2 11 8 6 8-10-1-9-11-4zm-27-137l23 17h-2l-17-12v2l21 22h2l1-8 10 6 5 7 25 12h1l1 1q17 2 25-6l-15 16-4 2 3 1-3 1-1-2-5 4-1 2 4 1-14 5v-1l4-2v-3l-5 2-1-2-12 7-1 3-10 4-1-2-18 1 2 5h-15l1-2v-4l-6 1 2 5h-4l-13-12-9 6-22-8-13-10-1 8-4-1-7-10-6-3-1 3 3 3-8-5 4-1-17-15 1-3 10-3 5-8 14-1 1 6 1 1-1 3-1-3-3 5-3 1 2 5-2 1 1 5v2l3 3 3 1 4-3 9-13q17-2 27-11l15-19 13-7zm28 71l-1 3 4 2 1-2-4-3zm-234-8l5 12h-1l-4-12zm6 18l5 10-3-2-2-8zm252 26l1 1-11 5v-1l10-5zm-258 4l6 10h-1l-5-10zm228 2l1 1-11 5v-1l10-5zm-67 12l10 6 9-6 4 4 1 3-3 4-8 3-1-2-6 1 2 3 1 1-7 3q-1 15-10 21l-9-7q7-7 5-22l8-10 4-2zm-109 12l9 6h-1l-6-3-2 1v-4zm321 17v2l-9 5 2-3 7-4zm-38 1l2 1-7 4-1-1 6-4zm-18 12l2 1-7 4-1-1 6-4zm-17 36l1 1-8 6-4-1 11-6zm-133 5l6 5v1l-10-4 4-2zm49 43l1 1-8 5-1-1 8-5z"/></g><path d="M181 90l2 1-3 5 4 2 2 8-2 3-3 1-1-8-11 6-1-6h-2l15-12zm41 0l8 1-2 9 2 1v1h-8v-4l-3-1 3-1v-6zm121 6l5 2-1 4-5-2 1-4zm138 0l5 1-2 4h-2l-1-5zm102 0l5 4v2l-6-3 1-3zm-6 6l3 2 1 3h-1l-4-2 1-3zm2 6l3 1v1l-3-2zm-429 18l6 1-5 8-12 3-1-3 12-9zm-6 18l2 1-2 16-6-11 4-5 2-1zm-15 6l15 15v3l-15-5-2-6-1 3-2-3 2-1 3-6zm513 3v3l-5 10-2-3 7-10zm-24 5l1 4-12 23-1-4 12-23zm-461 24l5 12-4-3-1-9zm467 5v5l-5 10-1-4 6-11zm-181 5l11 6h-4l-7-6zm161 6l1 1-4 8-1-2 4-7zm-217 12l11 6h-1l-10-6zm96 6l11 6-2 1v2l-2-3h1l-8-6zm-326 6l9 2 2 3 1-3 1 4-2 1-2 5-10-8 1-4zm278 0l23 12h-1l-22-12zm159 2v5l-5 8-1-2 6-11zm18 1v3l-5 10-1-4 6-9zm-347 3l1 1-9 5 2-3 6-3zm-108 7l3 5 2 2-1 4-4 3v-14zm18 13l5 13-3-2-2-11zm413 6v5l-5 7-1-1 6-11zm18 1v6l-5 7-1-4 6-9zm-445 3l13 4-3 8-7-1-3-11zm332 3l2 3-4-1 2-2zm-121 17v4l-5 8-1-1 6-11zm145 23l5 15h-1l-4-15zm66 14l5 13h-1l-4-13zm-337 1v2l-5 10-1-3 6-9zm-84 4v5l-5 8-1-5 6-8zm277 4l2 1-12 5v-1l10-5zm84 4l5 12h-1l-4-12zm30 4l5 13-3-2-2-11zm-393 28l2 1-5 10-1-5 4-6zm447 2l5 13-3-2-2-11zm-18 1l5 13h-1l-4-13zm-31 6v6l-5 7-1-4 6-9zm-402 5l1 4 5 3 1 3 7 1-1 3-7 6 1 2 3-1 2-4v6l-3 5q-12-3-14 3l-1-23 6-8zm360 36v5l-5 7-1-1 6-11zm96 1v36l-9 15-8 4-1 8-6-3v-11l6-9q-4-15 3-19l14-8-2-4-3-1 2-5 4-3zm-395 1l5 12h-1l-4-12zm150 2l1 1-11 5v-1l10-5zm-216 3q2 6 14 3l3-2v19l-3-5-3 2 3 4 3 2v4l-18-9 1-18zm380 9l3 1 1 5 1 1-17 29h-9l-1-4-4-2-1 21-3 3h-3v-6l-12 4 6 3-5 9-3-4h-2l4-2v-2l-4-1-7 5-1-2 6-9-3-1 7-12q15 4 19-2l-5-10 6-11-2-1 2-4 1 3 3-5 2 1 1 5 5-2 3-4 12-6zm-362 24l4 3-2 3-4-1 2-5zm312 38l-5 6-1 3 1 1h-2v-3l-2 3 1 1-8 5 1 1-7 5 1 1-15 5-1-6q-13 2-18-3l-1-2 5-2 2-9v-2l6-1 6 2 2 5 4-1 2-3 4-2 1-3 4 1h1l1 2q14 4 18-4zm-300 16l5 4v2l-6-2 1-4zm112 0l17 2 3 8-2-2q-14-1-18-8zm121 0l8 1q-15 14-42 17v-1l7-4v-2l14-9 3 4 10-6zm-77 12q6 8 21 7l-7 4-15-8 1-3zm36 10l1 2h-3l2-2zm-156 18l5 7h-1l-7-4 2-1 1-2zm62 44l1 1h-1v-1zm-2 2v2h-1l1-2zm18 10l4 2v3h-4v-5zm13 7l3 1 1 4h-2l-3-1 1-4zm105 24l1 5h-5l-1-2 5-3z" fill="#ce824b" stroke="#ce824b"/><path d="M184 90l11 1-3 5 6 3-2 3-4 1-1 3-6 2 1-2-3-10h-3l4-6zm47 0l18 1-3 5h3l3-2 2 3 19 11h-29l2-3v-3l-15-11-3 2 3-3zm121 0l9 1-1 5v2l1 4-1 3-6-3-5 3-2-3 1-4v-2h6l-2-6zm96 0l41 1-4 5-5-1-2-4-4 3 1 2 3 2 2 3 1-4 2 4h1l2-4h2v-2l4-2 1 3 6-1 4 1h2 5l-2-5 71-1-3 4 1 2 11 6v-2-2l49 48 5 7-24 45-6 17v10l-6 9q4 22-6 30v49l6 9v45l6 9v35l-6 5 2 4 3 3-6 7-10 4-1-62-6-9v-39q-9-7-6-26l4 2h2v-12l-5 3-1-11 4 2h2v-18l-5 3 3-4 8-22-2-1-4 3 12-32-2-1 2-4 3-1 3-12-2-1 18-36 2-1-1-5-4-3-2 1-29-32-4-1-2-4v-3h-2l1-2-2-4-3 1 1 3-2-2-17-2-6-3 6-3-2-5-4 3-1 2-5-1-2-4-4 3-1 6-5 3v2l-5-3-1 3 3 3h-12l3-5-2-1-4 3v-3l-6 1v2l-15-8-15 6 3 5h-11l2-3v-3l-4-1-4-10-10 5-8-6zm83 1l-3 5h6v-2l-3-3zm52 11l1 6h4v-3l-5-3zm24 276l-1 6h3l2-3-4-3zM216 93l1 3 5 3-2 1-1 2 2 1-4 2-2-4-5-2 1-3 5-3zm60 0l1 3 2 1-6 5-3-5 6-4zm169 0l5 5-1 4-7-1v-2l-1-2 3-1 1-3zm-214 4l1 1 1 2-2 1v1l-1-2h-2l2-1 1-2zm-65 5l2 1 1 5 11-6v9l-41 37-1 3 6 10 1-3 1 4-2 1 6 10 1-3 1 4-2 1 12 20-3-3-3 1 6 10 1-3 1 4-2 1q9 5 6 22h-1l-2-5-9 1 9 11 3-2 1-4 5 4v21l6 14-7-7-13-2-4-3 4-9 2-1-1-5-3-1-8-14v-10q-7-5-6-18l-18-32v-7h1l5 7 12 3v-3l-15-15-3 6-6-3 3-8 21-21 1 2 5-3v-3h-2l18-18zm-16 24l-12 9 1 3 12-3 5-8-6-1zm176-24l4 2 2 4h-9l1-2 2-4zm168 0l4 2 3 4h-11l2-3 2-3zm-25 108l5 4v2l-6-3 1-3zm17 8l5 4-2 1 4 2 7 13 3 2-5 1-1 5h-5v-12q-8-5-6-16zm-19 22l9 6v1l-9-7zm44 6l5 4v2l-6-3 1-3zm-6 7l11 5 1-5 7 11 2 2 10 22 4 2h1l7 16-2 1 4 5 2 1v22l-3-5-3 1 6 7h1q9 8 5 31-10 7-6 30l-15 33h-3v-6l-17 8-1-2-5 3-1-3-3 1 7-8 2-4-2-1-4 3 6-8 1 4 11-16-8-1 5-12h3v-6l-5 3-1-2 9-19h3v-6l-5 3-1-17 4 2h2l-5-17-1 4-6-7 4 2h2l-7-19 5 1h2l-11-17-1 3-2-3 2-1 1-3 5 3v-6l-15-17-2-18zm-342 12l3 5 6-1 2-4 1 11 5-3v30l-3-3-3 1 3 11-3 1-2 11-10 4 1 2 5 1 1 47 5-3v6q-2 5-11 3l-3-6h-4l6-17-2-1-3 5-1-31 6-9 1-60zm-3 77l-3 4 5 2v-5l-2-1zm8 46v3l-3 5h-3l6-8zm0 9v20q-3 6-14 3-7-3-4-14l4-4 12-1 2-4zm227 17l9 6h-1l-8-6zm107 24l2 1-6 12 5 9-21 4-1 3-1-5h-2l24-24zm-225 51l2 3-2 1 8 5h-2l-9-5 2-1 1-3zm203 1l1 2 4 1-9 4-1-1 5-6zm-54 8l3 1-3 4 1 1h-12l11-6zm-101 12l5 2 2 8 3 2h-4l-11-5 4-1 1-6zm54 0l5 4-12 10 1 4-1-1q-8-7-24-5l-8-5 2-1 1-3 28 9 3-6 4-3 1-3zm-180 18l17 16v2l-18-15 1-3zm42 36l5 4v2l-6-3 1-3zm37 25l3 1 1 4h-2l-3-1 1-4zm73 41l1 1h-1v-1zm11 7l4 3v1l-6-2 2-2zm17 11l5 3-2 3-4-2 1-4z" fill="#e2894f" stroke="#e2894f"/><path d="M196 90l23 1-9 6 2 3 3 2-11 1 3 5h-19v-1l4-2 1-3 5-2-2-4h-4l4-6zm54 0l41 1-4 5-5-1-2-4-10 6 3 5 7-5 5 10 3-2 2-3 4 2 3 4h-23l-21-11 5-1-2-5-9 5-1-2 4-4zm16 8l-1 2 4 1v-1l-3-2zm32-8l10 1-4 9-4-1-2-9zm25 0l15 1-6 8-2 1v3l-4-1-2 1-1-13zm19 0q10-2 12 4v2l-12-3v-3zm59 0l10 1-3 5 6 3-2 3-4 1 3 5h-16l4-5 3-10-1-3zm23 0l10 1-3 5-5-1-2-5zm19 0l14 6 9-5 6 11 2 1-3 5h-18l9-11-2-1-10 6v-1l-1-5-6-6zm47 0l3 1-2 3-4 2v2l-2-2 5-6zm8 0l12 3-2-2-4 3-1 2-5-1v-5zm82 0l8 3 48 49v4l-53-50-1 2-6-2 4-6zm-349 1l15 12-3 5h-11l2-5-3-1 1-2h1l-1-3-2 1v1h-2l3-8zm246 0l3 3 1 2-1 5-3-5h-3l3-5zm54 0l3 3v2h-6l3-5zm12 0l3 3 2 2 4-1 3-4 3 3v2l-6 3q5 6 19 3l9 6h-41l1-2v-4h-5l5-3 3-8zm-204 5l4 6h-1l-6-3 3-3zm102 0l2 4v2l-5-3 3-3zm54 1l19 10 8-5v3q-4 7-20 3l-5-6-5 2-3 4-9-3 1-3 14-5zm-274 2l1 1 2 3 4 3 1 2h-15l2-3 5-2-2-1 2-3zm133 3l8 6h-15l3-4 4-2zm32 0l4 2 2 4h-10l2-3 2-3zm143 0l5 4 1 2h-3l-3-6zm54 0l1 1-2 1 1-2zm-435 18l2 1-1 3-4 2-1-2 4-4zm9 72l5 4v7l-5-11zm447 0l2 1v5l-4 1-1 3-1-3 4-7zm-159 4l3 2-3 1 17 9v2q-20 4-24-7l1-5h5l1-2zm-282 8l2 1 3 7-4-3-1-5zm210 6l3 1-11 5 2-3 6-3zm225 0l2 1-5 10-1-7 4-4zm-129 3l5 3 1-2 1 3 9 5 1 3-3-3-20-1 3-5h2l1-3zm18 13q8 5 6 20l5-1 2 7 6 1-2 1v11l14 17-2 1 3 4h1l1-2 1 9h-2l-4-2v1l-5-7h-2l-4-10-1 4-2-3 2-1-5-8h-2l-4-7-2 1-5-8-4-1 4-1q3-13-3-17l-8-3 3-4h8l1-2zm18 12l11 8 1-2 7 14-2 1v1l-5-7-1 2-14-15h2l1-2zm6 8l-1 3 6 3v-2l-5-4zm81-6l2 1-5 10-1-7 4-4zm-417 22l5 11-5 3v-14zm411 2l2 1v17l-6-3q-3-12 4-15zm-45 20l5 12-4-3-1-4h-3l2-1 1-4zm45 4l2 1v11l-6-3 4-9zm-69 7l11 17h-2l-5-2-4-15zm-342 5l5 4v11q-8-4-5-15zm372 6l2 1 2 5h-1l-3-6zm-24 7l5 17h-2q-8-4-3-17zm-343 8v6l-6 8v40l-3 3h-3v-48h-6l4-6 8-2 1 2 5-3zm367 9l3 2 2 6-6-5 1-3zm-18 1l5 17h-2q-8-4-3-17zm-369 11l2 1v5l-5-2 3-4zm372 18l2 1v5l-5 2-1-4 4-4zm75 18l4 3-2 3h-3l1-6zm-81 6l2 1v5l-5 2-1-4 4-4zm-285 2l5 12-3-2-2-10zm279 16l8 1-11 16-1-10 4-7zm-6 18l2 1-11 15-1-3 6-11 4-2zm0 12l2 1-3 5h-3l4-6zm-285 1l5 15h-1l-4-15zm251 30v5l-11 14-1-2 12-17zm-19 15l1 1 1 7 1 1-5 3-3-1v-3h-5l8-5v-2l2-1zm-184 8l5 4 2 2 4 3v3l-11-5 2-1-2-6zm208 1l-1 2-1 3h-3l1-3 4-2zm-35 2v7l-3 2-3-4 2-3 4-2zm-18 8l-1 2-2 5-3-1 4-5 2-1zm-88 15l9 4h-7l-2-4zm17 1l4 3 1 2h1l2 4h-3l-11-5 5-1 1-3zm23 1l1 2 1 1-9 5 7-8zm-47 111l5 3v2l-6-2 1-3zm13 6l3 1 1 4h-3l-2-3 1-2z" fill="#f19356" stroke="#f19356"/><path d="M220 90l2 6h-5l-1-2 4-4zm72 0l8 4 2 6 3 2-5 1 3 4 10-5 8 6h-23l-5-6-5 2-2 3-4-2-3-9h-3l3-5 3 3 2 2 4-1 4-5zm72 0l28 1-2 5 5 2-2 4-3 1-4-1-5 6h-6l3-5-6-1-8-12zm17 1l-3 5h6v-2l-3-3zm31-1q11-3 14 4l2 2 4-1 8 2v3l2 2-4 1 3 5h-29l-4-5 6-3-2-4h-4l4-6zm-157 1l3 3v2h-6l3-5zm252 0l3 3v2h-6l3-5zm-171 3l1 2 1 1v3l3 2h-8l-2-3h1l4-5zm-15 2l3 3-2 3-4-2 3-4zm139 0l2 1-9 11h-10l3-4 14-8zm-194 2l3 2v1l-4-1 1-2zm-61 4l11 1-3 5-9-3 1-3zm306 0l5 1-2 4-4-2 1-3zm-365 60l1 1 3 9h-1l-3-10zm6 12l1 1 3 9h-1l-3-10zm281 16l3 2-4 1 10 5-4 1 2 5 10 9v3l-12-8-1-4-5-2-3-9 3-1 1-2zm30 17l4 3-4 1 5 3v2l-4 2-1 3 10 2-8 5-12-17 9-1 1-3zm18 7l3 2-4 1 6 3v4l-1-3-10-4 5-1 1-2zm-3 8l2 4-5 6 10 6 1 14h-2l-8-5-2-5-4-1 4-1-6-8 11-6-1-4zm21 18l17 16v1l-13-5 1-4-4-2-2 1 1-7zm30 22l7 14-2 1v3l-8-15 2-1 1-2zm-30 6l5 8h-2l-3-8zm18 14l2 1 1 4h-1l-2-5zm-6 4l5 8h-2l-3-8zm-336 26l5 4-3 8h-3l1-12zm76 156l6 4 1 4-7-8zm198 16l1 1 1 1 1 1-7 5v1l-5-1 10-5-4-1 3-2zm-72 20l7 3v5l-7-8zm-42 6l12 1-5 3v2l-7-6zm32 5l4 1h1l-2 6-3-5h-3l3-2z" fill="#fd9f57" stroke="#fd9f57"/><path d="M310 90q11-3 14 4v4l-3-2-3 4 4 2 2-1-2 6-10-5-9 5-3-4 5-1-1-2 6-10zm30 0l7 6-5 1v1l-6-2 4-6zm23 0l10 12 5 1-3 5q-12 3-15-3l1-3 5-1-1-5h-5l3-6zm30 0l9 4-5 10-1-2h-3l2-4v-2h1l-2-5-3 2 2-3zm43 0l8 4v2h-12l4-6zm59 0l3 3v3h-6l3-6zm-114 1l3 3v2h-6l3-5zm-50 9l17 3-3 5q-12 3-15-3l1-5zm-107 2l10 1-3 5-7-6zm215 0l10 1-5 3-1 2-5-3 1-3zm96 0l5 1-3 5-2-6zm49 1l4 3v2h-3l-1-5zm-193 2l3 2 2-1-3 2-2-3zm-21 75l4 1-12 5v-1l8-5zm20 6q11-1 15 6l-3 1v2l-3-2-4 5-11-2 1-4 5-3v-3zm37 3l4 3-2 1 5 11-2 1 4 4 2 1 1-2 11 8v-3l-1-3 7 4 9 14 12-6 2 4-11 6 6 8h-8l-8-5-2-5q-22-5-33-19l3-1-6-15 6-3 1-3zm12 27l-1 3 12 3v-2l-11-4zm7-18l16 6 1-2 13 8-2 1v1l-5-2-1 3-5-2 4-1-21-12zm54 48l4 2-1 4-5-2 2-4zm23 12l5 4v2l-6-2 1-4zm12 18l2 1 3 11h-3l-2-12zm-313 14v5l-5 7-1-1 6-11zm-6 18v5l-5 7-1-1 6-11zm6 76l6 2v10l-6 1v1l-7-8h1l1-2 5 2v-4-2zm-5 16l16 13h1l-6 2v1l-12-5 1-11zm10 2l6 4 1 3-1-1-6-6zm11 13l2 2 6 12-3-3h-4l1-4-4-2-2 1 4-6zm-9 10l5 4 2 3 2 2 10 14 10 4 4 4 2 2 4 4 2 2 8 8 10 4 2 2 10 4 2 2 10 2 1-2 3 2-3 1 5 3 1 8h-7l-11-6q-15 4-19-2l-8-10-4 1v5l-12-9-3-8-12-7q-10-11-10-30l-3-1-1-6zm113 7l2 1-9 5 3-4 4-2zm103 8l5 12-4-3-1-9zm33 22l2 1-5 7-1-2h-2l6-6zm-4 9l-4 5-5 10h-3q-2-12 6-14l1 2 5-3zm-17 9l1 1-8 6v-1l1-3 6-3zm-128 18l13 6 1-3 5 3 23 1-11 8v3l-11-6q-15 4-19-2l-1-10zm79 0l11 1-11 5v-1-5zm-25 6l10 1-3 5 2 1-7 4-2-11zm-13 6l2 1-1 5-5-1 4-5z" fill="#fdac61" stroke="#fdac61"/><path d="M393 91l3 3v2h-6l3-5zm-2 11l5 1-2 4-4-2 1-3zm-19 81l1 3 17 2-3 4-3 1v2l-3-3h-21l2-4 10-5zm26 3l16 2-1 2-7 2-8-6zm26 0l8 4v2l-8-6zm10 6q8-2 10 4v2l-10-6zm-35 1l2 2v1l-5 2v-1l3-4zm34 11l5 3v3l-5-3v-3zm-12 6l16 12h-4l-11-5-1-7zm-79 6l4 1-12 5 2-3 6-3zm97 0l11 4v2l-12-3 1-3zm66 16l11 13h-1l-13-10 2-1 1-2zm-241 42v2l-5 8-1-2 6-8zm102 28v5l-5 7-1-1 6-11zm31 0l5 12-4-3-1-9zm-177 4l2 1-3 10-8 4 3-4 6-11zm228 18l4 1-11 5v-1l7-5zm-235 24l3 1-5 8-1-6 3-3zm-2 15l16 13 1 9-1-1-11 2v4l-6-3 1-24zm18 26l9 3 2 3 1-3 1 4-2 1 4 10 2 1 1-4 5 15h-1l-2-5-9 1v1l-2-1-4 10q16 0 21 13l5 12 4 3 2 3 4 3 2 3 15 6 1 3 2 3h4l1-2 3 2-3 1 11 8 1 3h-1l-6-3-1-3-11-3-1-3q-13-1-17-9l-1-3-5-3-1-3-5-3-1-3q-11 0-15-7l-5-11-3-1-2-5-4-1 1-11 5-1-3-10-9-4 1-3h5l1-7zm219 61l2 4h-1l-1-4zm24 18l2 1-3 5h-3l4-6zm-27 18l4 1-10 5-1-2 7-4zm-126 3l5 3 1-2 3 2-3 1 8 5h-13l-1-9zm108 3l5 3-2 3h-10l1-3 6-3zm-84 4l11 6 1 2h-7l-6-3 1-5zm51 8l6 1-9 5-1-2 4-4z" fill="#ffbb6f" stroke="#ffbb6f"/><path d="M363 96l3 3-2 3-4-2 3-4zm-26 90l3 1-13 5v-1l10-5zm-30 12l3 1-13 5v-1l10-5zm294 110l5 12-3-2-2-10zm-421 20v2l-5 10-1-3 6-9zm149 38l9 6h-1l-8-6zm104 0l1 1-11 5v-1l10-5zm-269 66l2 2 8 20-3 2 2-3-4-3-2 5 1 1-5-3-4-8-9-4 1-6 17 9v-4l-6-4 2-4zm430 14v5l-5 8-1-5 6-8zm-89 10l5 4 1 2 7 1-1 3-5 3-1 3-7 4 1-20zm101 1v6l-3 5-8 2-1-2 4-5 6-2 2-4zm0 15v5l-5 3-1-2 6-6zm-128 2l2 1-6 11h3l5-4-2 4h3l1 1q-5 8-21 5l-1-2 16-16zm14 0l6 1 1 5 1 1-11 6 3-4v-3l-6-2 6-4zm-6 8v2h-1l1-2zm-32 4l2 1-1 6-4 2-1-5 4-4zm32 2l1 3-2 1-1-2 2-2zm-145 4l11 6h-3l-8-6zm144 1l1 1-3 4-16 7 1-4 5-2-2-1 3-2 1 2 10-5zm-62 11l3 2 2 2 16 3 1 5 3 1q-8 8-26 5v-1l4-2-2-8-2 1-3 10h-5v-4l-4-1-15 11 7-8-1-3 22-13zm-120 6l13 6h-3l-10-6zm88 11l-4 7q-12 3-15-2l3-4 16-1zm-52 1l13 5 3-2-6 3-10-6zm-145 1l6 5-2 1v1l-4-7zm66 54l3 1 1 4h-2l-3-1 1-4zm40 25v2h-1l1-2zm-3 3l1 1h-1v-1zm12 1l1 1h-1v-1zm-2 2v2h-1l1-2zm18 10l5 4v1l-6-2 1-3z" fill="#c17d49" stroke="#c17d49"/><path d="M625 96l5 3v3l-5-3v-3zm-507 18l1 1-1 3-3 1-1-1 4-4zm523 0l7 3v3l-7-6zm-54 5l31 34-33-32 2-2zm-481 7l1 1-1 3-3 1-1-1 4-4zm404 6l11 4 1 3-7 9-5 2-11-8 7-8 4-2zm127 0q12-3 16 4l1 3-3 4-3 1-12-9 1-3zm-271 12l5 4 1 3-3 4-3 1-5-3-1-3 4-5 2-1zm301 0l5 3-1 3h-5l1-6zm-217 6l5 4 6 12-17 15 8 11-2 1v1l-4-1 4-1-9-6-6-11-3-1-6 4 2 2-2 1v2l-9-3 2-3-10-9-1 3 6 8h-2l-13-11-3 6-6 1 2 5h-9l1-2 10-21q16 1 24-6l4 5-2 1 4 4 2 1 1-2 12 2 4-3 5-8 2-1zm-38 6l-4 6h3l3-5-2-1zm5 6l-3 4 6 2v-3l-3-3zm-63 12l6 1-1 3-4 2 4 1-7 5 2-3v-3l-5-2 1-2 4-2zm109 18l13 12-2 1v1l-4-1 4-1-10-5-2-4 1-3zm161 2l1 4 2 1-2 4-1-4-5 7-1-1 6-11zm-461 2l5 12h-1l-4-12zm455 16v4l-5 8-1-1 6-11zm-269 4l1 1-11 5v-1l10-5zm150 0l4 4 1 2h-2l-3-6zm-129 6l4 1-2 5h-6l4-6zm158 0l5 4 1 3-6 9 16 25 12 9 8 16v7l-11 19q1-13-7-16l4 2h2l1-3 3 2 2-11-3-5-8-1-1 3 3 3-4-2-4-10-1 4-2-3 2-1q1-13-6-16l-5-2-1 2-8-13 2-1-6-11 4-2 6-10 2-1zm-209 6l3 1-13 5v-1l10-5zm-168 2l5 12-3-2-2-10zm425 22v7l-6 9 4 7-7 6-3-11 10-17 2-1zm-183 1l3 11-6 1v3l-6-11 3 1h3l3-5zm66 0l15 9-12 18 10 8 9-6 9 6 3-6 3 2 14 28q-1 13 6 18v13l5 9-11 18 6 3-6 9 4 2 2-1v8l-2-1-7 18-8 4-19 24 6 3-1 3-5 2-12-6-5 4-3 7h-2l-2-11 6-9q-9-5-6-21l10-17 14-9v-4l-8-1 1-2-4-3-1 2-5-5 5-8-6-1 4-6 8 1 2 3 5 2 4-3 1-17 4-4 7-3 1-10-2-4-3-1-1 2-23-2-1 4 2 2h-16l2-5-6-1-8 6 2-3v-3h-6l-23 12-2-1 13-13-5-7 11-15-11-15 19-19 19-7zm-17 11l-4 6 1 9 5 3h6q1-15-8-18zm9 18l-7 10 10 8 8-9-11-9zm165-24l2 1-5 7-1-4 4-4zm12 0l1 1-2 5h-3l4-6zm-394 4v2l-5 10-2-3 2-1 5-8zm-77 3l5 13-4-3-1-10zm113 3v2l-5 8-1-1 6-9zm340 14l2 1 10 17 2 2q-2 12 4 16l2 2-1 34h-5v-18l-6-11q4-18-3-24l-9-4 1-8 3 5h2l-5-9 3-3zm-213 16l11 14h-2l-5-2-4-12zm12 15l5 10-2 1-3-11zm150 0l3 5 6-5 8 13h-4l-2 5 14 17-2 1-2 10-15 15-1-2 6-9-3-3-3 2v-2h-3q5-6 3-18l-9-17 3-1-3-5 3-1 1-5zm-313 7v4l-5 8-1-1 6-11zm337 11l5 13-4-3-1-10zm-373 3v2l-5 10-1-3 6-9zm313 3l5 13-4-3-1-4-1 4-3-4 3-1 1-5zm-343 1v4l-5 8-1-1 6-11zm-24 14v3l-5 10-1-4 6-9zm372 12v2l-5 10-1-4 6-8zm103 8l5 3-1 15h-5l-5-9 5-3 1-6zm-52 1l3 3v10l-3-2-3 4q8 2 6 15l-6 12 5 9-2 1q-4-6-15-5l-11 6-1-2 12-16-3-6-3 2v-14l-5 3 3-4 2-4 1 4 3-5 2 1 3 5 6-5 6-12zm10 18q7 4 5 19l-4-3-1-16zm42 11l5 2-1 4h-5l1-6zm-198 4l5 7 1-4 2 5-3 1v3l-5-12zm161 6v12l-5 7-1-11 6-8zm28 2l2 1v5l-5-2 3-4zm-261 6l1 1-9 5 2-3 6-3zm24 0l23 16v8l-22-19-1-5zm246 6l5 2-1 4h-5l1-6zm-366 10l5 10-3-2-2-8zm317 0v11l-6 3-5-3-1-3 4-5 8-3zm52 8l1 1-4 9-4 2h-3l10-12zm-166 6l3 1-3 5h3l3-4v-2l6 1-3 5q-8 7-23 6v-1l2-4 1 2 11-9zm-317 8l5 12-3-2-2-10zm371 2v2l-5 8h-2l7-10zm-227 5l4 3-4 1 7 5h-1l-9-5 2-1 1-3zm143 15v3l-5 3v1l-3-1 8-6zm-29 6l4 3-1 2-4-2 1-3zm197 8v4l-5 10-1-3 6-11zm-30 13l1 2-4 1 3-3zm-125 9l3 1-13 5v-1l10-5zm146 0l-2 3-1-2 3-1zm-173 18l4 1-2 5h-6l4-6zm161 0l-2 3-1-2 3-1zm-242 18l5 1v2l-4 1-1-4zm65 0l11 4 1 9-8 10-8-6-2-11 4-5 2-1zm-157 18l7 1-2 4-3-2-2 1v-4zm19 12l6 1-3 5h-3v-6zm163 35l-1 4-4 2-1-2 5-2 1-2zm-104 24l11 7-2 1-10-6 1-2zm105 0v2l-11 5v-1l11-6z" fill="#1a2429" stroke="#1a2429"/><path d="M187 108l3 1-11 5 2-3 6-3zm386 0l11 6h-1l-10-6zm33 74v4l-5 10-1-3 6-11zm-225 28l3 3 1 1 3 2h-13v-1l3-1 3-4zm-206 32l5 14h-1l-4-14zm298 4l9 6h-1l-8-6zm115 2v4l-5 10-1-3 6-11zm-360 24v4l-5 10-1-3 6-11zm373 30l5 14h-1l-4-14zm-18 18l5 14h-1l-4-14zm-427 42v4l-5 10-1-3 6-11zm433 12l5 14h-1l-4-14zm-247 1v3l-5 10-1-3 6-10zm204 41v4l-5 10-1-3 6-11zm-377 6l5 13-3-2-2-11zm341 50v5l-15 9v-1l15-13zm96 18v2l-5 10-1-3 6-9zm-443 5l8 3 3-2 1 2 2 1 3 5 1-4 1 4-2 1 2 5 4 3 1-2 5 10 1-3 1 4-1 2-18-14-1 12h-3l-10-25 2-2zm422 9l3 1 1 5 5-3 1 3 1 1-7 15-5 3-1 3-4 2h-3v-6l-11 2q-7-4 3-8l2-4 1 4 4-3 1-2-2-1 2-4 1 4 5-10 3-2zm-158 18l3 1-11 5 2-3 6-3zm125 21l1 3 1 1-8 7v-2l-11 5-1-1 6-5 1 1 11-9zm-322 15l12 6-2 1v1l-6-2-1-4-3-2zm35 22l5 5-2 3-4-2-2-3 2-1 1-2zm171 38l1 1-1 3-3 1-1-1 4-4zm27 0l2 1-2 4-1-2-4 3-1-1 2-3 4-2zm-14 13l1 1v1l-4 2-1-2 4-2zm-94 3l6 3-1 3 4 2 2 3-3-3-3 1v5l-6 1 2 5h-1l-7-3 1-9h5l-1-4-4-1 5-1 1-2zm-18 6l1 3 6 5h-1l-7-3 1-5zm34 1l11 7-4 1v1l-1-2h1l-8-5 1-2z" fill="#8d5f40" stroke="#8d5f40"/><path d="M178 114l4 1-15 11 11-12zm-16 16v5l-7 3 7-8zm432 88v4l-5 10-1-3 6-11zm-323 4l1 1-9 5 2-3 6-3zm132 98l6 8 3 2h-6l-3-1v-9zm-77 4l10 3v5l-10-8zm-116 14v5l-5 10-1-4 6-11zm1 54l5 14h-1l-4-14zm383 41v6l-5 10-1-5 6-11zm-257 5l1 1-11 5v-1l10-5zm-150 68l5 15h-1l-4-10-1 2-2-3h2l1-4zm-12 4l18 15 13 15-2 1v5l-6 1 6 11h-2q-15-9-21-27l-2 1-7-9 2-1 1-12zm392 18l5 1-2 5h4l2-1 1 1 5-3 1 2-5 3-11 16h-3v-12h-8l8-11 3-1zm-12 18l3 1-8 10-4-2 9-9zm-326 10l3 2-3 1 5 3 1 3-1 5-12-3 1-3h5l-2-6 3-2zm329 2v3l-5 3-1-2 6-4zm-12 6v3l-5 3v-1l3-4 2-1zm-299 4l4 7h-1l-6-4 2-1 1-2zm269 0l1 2 1 1-7 5-1-2 6-6zm-263 20l5 4v2l-6-3 1-3zm226 4l1 1 1 1h1l-3 4-4 2-1-2 5-3-3-1 3-2zm-30 18l1 1 1 1h1l-5 6h-3l2-4 3-1-3-1 3-2zm31 2v3l-10 3v-1l10-5zm-14 6l2 1v2l-4 2-1-1 3-4zm-135 3l4 3-2 1 5 5 10 6h1l1 1 4 3v2l-6 1v7l-4-1-3-5-4-1-1-3-8-16h2l1-3zm131 0v3h-2l2-3zm-43 7l1 1 1 1 1 1-2 5 6 1v8l-5 2-1-5h-6l-2-5 2-1 1-6 4-2zm-100 2l16 12h-4l-11-5-2-4 1-3zm119 6v3l-7 3 3-4 4-2zm-77 7l5 17h-2l-8-5-2-6 6-1 1-5zm34 3l2 2-1 6h4q2-7 14-6v3l-2 4-23 11 1-2q-3-13 3-15v-2l2-1z" fill="#7c563c" stroke="#7c563c"/><path d="M582 113l1 2 7 5h-1l-9-5 2-2zm-416 13l4 1-8 7 4-8zm-12 12l4 1-13 15-1-3 10-13zm-21 38l5 14h-1l-4-14zm266 4l11 6h-1l-10-6zm-254 26l5 14h-1l-4-14zm467 24v4l-5 10-1-3 6-11zm-360 8v2l-5 8-1-1 6-9zm354 28v5l-5 10-1-4 6-11zm-101 12l5 14h-1l-4-14zm-343 30v4l-5 10-1-3 6-11zm270 16l4 1-11 5 3-4 4-2zm-252 8v4l-5 10-1-3 6-11zm25 30l5 14h-1l-4-14zm323 6v4l-5 10-1-3 6-11zm-354 24v5l-3 5-2 1v-1l5-10zm156 12v4l-5 10-1-3 6-11zm-161 3l3 3 2 21h-1q-8-8-4-24zm365 33l1 3-6 9-1-1 6-11zm-299 6l5 12-3-2-2-10zm-84 6l5 14h-1l-4-14zm461 6v4l-5 10-1-3 6-11zm-96 8v2l-5 8-1-1 6-9zm-205 14l11 6h-3l-8-6zm-154 10l5 12h-1l-4-12zm416 26l-2 3-1-2 3-1zm-240 6l13 6h-3l-10-6zm255 3l1 2-4 1 3-3zm-208 3l14 1-4 2-2 3-4-1-1-3-3-2zm193 0l3 1-2 5h-4l3-6zm-392 3l2 3-4-1 2-2zm401 1v2l-5 8-1-2 6-8zm-377 8l15 12 3 4 3 2 2 6-6 1 2 3 10 2 2-6-1 2 17 27 1-2 2 3-13-5-1-4-23-14-2-5-14-7 2-1-6-11 6-1 1-6zm351 0l8 1 1 11 1 1-8 7v-2l-11 6 4 1-7 5v1q-18 18-43 29l1 1-21 11 3 1-3 1-1-2-11 6 3 1-3 1-1-2-11 4-1 2 5 1-10 5 3 1-3 1-1-2-6 4 1 2-6 2-1-2-8 6v1l-3 1-1-8h-6l3-6 3-1 1-5 5-2 1 2 4-3 1-2-4-1 15-6v1l-5 3 1 2 7-5 1-2 3-1 1-4 5-2 1 2 5-1 3-4-2-1 5-3 1 3 7-5 1-2 3-1 1-4 5-2 1 2 11-8 1-4 5-2 1 2 11-7 8-9 3-1-3-1 4-2 1 2 11-6 3 5 9-8v-3h-5l3-6zm-10 24l-2 1-3 4v1l5-3v-3zm-302 6l8 6-3 1 3 5h-2l-6-12zm12 18l12 8 4 8 3 2h-4l-7-3-5-12-3-3zm27 4l6 3-1 4 1 1h-7l-2-5 2-1 1-2zm-6 14l13 12h-1l-11-5-2-4 1-3zm36 4l6 3-1 3 10 8 2 3-3-3-3 1 6 8 6 6v5l-4-1 3-1-14-11-2-4-13-6 1-3h5l-2-5 2-1 1-2zm30 18l6 3-1 5-9-5 3-1 1-2zm64 6l1 1 1 1 5 3 1 3 5 1-1 3-4 2 4 1-7 5 2-3v-3l-17 6-1-5 3-6v-2l3-1 1-4 4-2zm-46 8l11 6 1-3 4 3-2 1 5 5 4-1-2-5h4l4-1 3 2-5 18-7 3-17-9 2-1-5-18z" fill="#674b36" stroke="#674b36"/><path d="M588 119l27 26 3 7-32-31 2-2zM378 256v2l-5 10-1-4 6-8zm109 0l5 10-3-2-2-8zm-330 4l5 15h-1l-4-15zm449 11v6l-4 10q7 6 4 23h-1q-8-9-5-28l6-11zm-95 19l5 14h-1l-6-11 2-3zm-145 8v2l-5 10-1-3 6-9zm181 0l5 12h-1l-4-12zm6 24l5 12h-1l-4-12zm-127 2l5 1-12 5 3-4 4-2zm157 2l5 15h-1l-4-15zm-96 4l1 1-9 5 2-3 6-3zm36 2l5 15h-1l-4-15zm84 17l5 15h-1l-4-15zm-451 6v5l-5 10-1-4 6-11zm265 22v2h-1l1-2zm168 3l5 15h-1l-4-15zm-67 14v2l-5 10-1-4 6-8zm-348 3v16h-1l-2-5-3-1 2-5 2-1 2-4zm420 30v6l-5 10-1-5 6-11zm-287 29l5 4v2l-6-2 1-4zm155 18l2 1-9 6-1-1 8-6zm126 8v4l-5 10-1-3 6-11zm-89 4l1 1-11 5v-1l10-5zm-36 24l1 1-11 5v-1l10-5zm-95 18q12-2 16 4l1 2h-7l-10-6zm-187 4l5 10-3-2-2-8zm349 25l3 2-10 8-1-3h-2l10-7zm22 4l1 3 1 1-9 6-1-1 7-5-4-1 5-3zm-315 3l13 18h2l-3-5 3-1 1-2 6 3-1 4 6 5 2 2 4-1 7 2-1 4 6 4 1 3q9-2 11 4l2 2 4-1 7 2-1 4 6 4v3l-6 1 2 3 13 8-3 1 2 6-2-2-28-16-9-11-4-2-1 3 2 4-3-5-4-1 4-1-5-3-7-13-10-2-1 5-17-27 2-2zm-4 18l10 6-3-1-7-5zm26 9l5 11h-2l-12-7 8-1 1-3zm217 2l3 2-10 5 2 1-3 2v-3h-2l10-7zm34 1l2 1-9 6 1-4 6-3zm-18 12l2 1-9 6-4-1 11-6zm-163 12l11 6-2 1h-2v1l-1-3-6-5zm-4 6l5 4v5l-5-9zm137 0l4 1-11 6-4-1 11-6zm-75 18l7 1-4 2-1 3-5-1 3-5zm33 3l1 3 3 1-11 6-1-1 7-5-4-1 5-3z" fill="#543f30" stroke="#543f30"/><path d="M637 142l5 10-4-3-1-7zm-158 80l7 4v2h-8l2-3-1-3zM219 384l3 2v4l-6-3 3-3zm-8 4l23 22-1 3-16-14-2 1-4-12zm10 26l7 4v7l-5-8-2 1v-4zm15 6l4 2-1 4-5-2 2-4zm-7 7l3 5 2 2v9l-5-16zm42 53l7 6-2 1v5l-8-5 2-1 1-6zm16 12h14l11 6q14-4 18 4l2 8 9 6-5 1 1 3 3 2h-4l-6-3-1-9-5 1v5l-12-3-5-12-12-3-1 4 2 2-12-5 4-1-1-6zm132 4l1 1 1 1 4 1-20 11-4-5 18-6-3-1 3-2zm-47 8l8 6-2 1-3 5-2 1-1-7-6 3v3l-5-2 7-8 4-2zm-24 6l6 4 1 2h-1l-9-4 3-2z" fill="#e19c57" stroke="#e19c57"/><path d="M619 148l5 5-2 3-2 1-1 3v-12zm-1 58v4l-5 10-1-3 6-11zm-234 4l10 6h-4l-6-3v-3zm33 6l13 6h-3l-10-6zm-266 10l5 12h-1l-4-12zm455 36v2l-5 10-1-3 6-9zm-215 16l5 14h-1l-4-14zm162 48l5 12-3-2-2-10zm54 30l5 12-3-2-2-10zm-18 14l5 13h-1l-4-13zm-438 77l5 13h-1l-4-13zm23 24v11l-2-2-10-2 12-7zm336 0l1 2-13 10 12-12zm-353 13l5 3v5l-6-3 1-5zm435 2l8 4 1 2 2 1-2 4-1-2-6 3-6-3v-3h-2l2-4 1 3 3-5zm-417 6l5 4v7l-3-5h-3l1-6zm305 6l2 1-21 12-1-1 20-12zm120 1v5l-3 6h-3l6-11zm-20 5l2 1-5 10-1-4 4-7zm-169 13l3 3 1 2 10 1q-7 9-27 5v-1l13-10zm55 83l2 1-2 5h-4l4-6zm-71 43l1 1v1l-5 2-1-1 5-3z" fill="#aa6f46" stroke="#aa6f46"/><path d="M643 148l5 5-2 3-4 2v-1l1-9zm-231 8l2 1-3 5h-3l4-6zm9 0l5 4v2l-5-3v-3zm-12 12l10 9-2 3h-3l-5-12zm-49 12l4 1-11 5 3-4 4-2zm-65 23l3 2-11 5 2-3 5-2 1-2zm36 19l1 1-11 5v-1l10-5zm-79 15l1 2-4 1 3-3zm336 7v2l-5 10-1-4 6-8zm-109 8l7 4v1l-7-5zm127 25v16h-1l-3-9 4-7zm-59 5l10 4 1 9-2 4-4-2-5-15zm-325 2v4l-5 10-1-3 6-11zm-60 20v3l-5 10-1-5 6-8zm54 0v2l-5 10-1-3 6-9zm222 14l6 1-3 5h-14l11-6zm-233 49l5 13-3-2-2-11zm264 5l4 3-1 2-4-2 1-3zm89 8v5l-5 7-1-1 6-11zm31 5l5 13-4-3-1-10zm-37 19v5l-5 9-1-3 6-11zm42 20v3l-5 10-1-5 6-8zm-122 26l2 2-3 4h-3l4-6zm59 0l-2 3-1-2 3-1zm-77 6l2 1-3 5h-3l4-6zm158 7v6l-5 7-1-2 6-11zm-174 20l1 3 3 1-4 2-2 3-4-2 2-5 4-2zm-18 9l4 1-11 5 3-4 4-2zm180 14v4l-5 8-1-1 6-11zm-24 2v2l-5 8-1-1 6-9zm12 18v2l-5 8-1-1 6-9zm-223 2l12 6h-4l-8-6zm31 0l5 1-11 5v-1l2-3 4-2zm-187 36l9 6h-1l-8-6zm44 9l2 3-4-1 2-2zm16 33l9 6h-1l-8-6zm72 41l11 7h-3l-11-5 3-2z" fill="#2e3133" stroke="#2e3133"/><g fill="#b87447" stroke="#b87447"><path d="M121 154l5 10-3-2-2-8zm18 34l5 14h-1l-4-14zm461 12v4l-5 8-1-1 6-11zm-221 10l-1 2v1l-9 3v-1l10-5zm-210 8l5 12-4-3-1-9zm-12 38l5 12h-1l-4-12zm336 6l5 10-3-2-2-8zm-133 58v4l-3 6h-7l8-6 2-4zm91 34l1 1-9 5 2-3 6-3zm-295 14v5l-5 7-1-1 6-11zm18 14v5l-5 7-1-4 6-8zm378 18v2l-5 10-1-3 6-9zm-383 34l5 13-3-2-2-11z"/><path d="M151 441l10 7 5 7 6 1 2-1q4 15-3 19l-9 4 2 2-8-3v-21q-8-4-5-15zm461 7v5l-5 7-1-4 6-8zm-6 15v9l-6 8h3l3-2q3 11-3 14h-3l-1-4-7-2-3 5-1-18 3 1h3l3-6 7-1 2-4zm-123 18l2 2v1l-4 2-1-2 3-3zm10 4l3 2-8 4-1-1 3-4 3-1zm-6 7l3 1-3 1v-2zm99 0l2 1 2 3 3 2-9 1-1 3-1-3 4-7zm-163 19l1 1 2 7-6 3v-1l3-10zm-23 6l2 2-8 9h-7l5-7 8-4zm-40 5l10 6h-17l3-4 4-2zm160 42l2 1-2 5h-4l4-6zm-259 12l1 1h-1v-1zm-2 2v2h-1l1-2zm61 35l8 5-4 1v1l-4-7zm105 12l1 3-5 2-1-2 5-3zm-58 15l3 2 2 4v1l-8-4 2-1 1-2z"/></g><path d="M636 164l1 3-12 23-1-3 12-23zm-317 28l3 1-13 5v-1l10-5zM162 314v4l-5 8-1-1 6-11zm159 10l11 6h-1l-10-6zm148 18l1 1-9 5 2-3 6-3zm-259 2v26h-1l-5-15 6-11zm348 32v2l-5 10-1-3 6-9zm-384 12v2l-5 10-1-4 6-8zm79 28l5 14h-1l-4-14zm186 6l5 14h-1l-4-14zm-270 5l5 13-4-3-1-10zm371 1v4l-5 10-1-3 6-11zm54 12v4l-5 8-1-1 6-11zm18 14v2l-5 10-1-4 6-8zm-96 11l1 2-4 1 3-3zm-359 13l18 5 5 12-3-3-3 1-3 5-8-3-2 1-1-3 2-1v-6l-6-2 1-6zm164 8l13 6h-3l-10-6zm279 9l1 3-6 11-1-2-5 3-1-6-6 2v-2h-2l2-4 1 3 3-5 14-3zm-23 20l-2 3-2 3-2 1-1-2 7-5zm-262 1l13 6h-3l-10-6zm247 12l1 1-10 15-8 6-4 2-1-2 22-22zm-339 22l4 7-1-1-6-3 2-1 1-2zm280 27l-5 8-5 2-1-1 11-9zm-18 12l1 2-5 2-1-1 5-3zm-194 5l2 2 3 4-2 1v1l-6-4 3-4zm164 13l1 2-5 2-1-1 5-3zm-54 30l1 2-6 3 2 1-1 3-1-4h-4l9-5z" fill="#9a6642" stroke="#9a6642"/><path d="M367 180l1 1-11 5v-1l10-5zm132 52l5 8-1-1-5-2 1-5zm-243 2l1 1-4 7-1-1 4-7zm-7 12l-2 3-1-2 3-1zm193 78l4 1-12 5v-1l8-5zm-219 93q7 5 5 19h-1l-6-17 2-2zm72 81q12-1 15 7l-1-1q-12 3-15-2l1-4zm105 7l2 2-1-1-1-1z" fill="#d29656" stroke="#d29656"/><g fill="#ffe096" stroke="#ffe096"><path d="M376 180q14-2 18 6h-21l-1-2 4-4zm-33 6l1 1-7 4-1-1 7-4zm-85 57v3l-2 4-6 2 8-9zm19 9l2 1-6 11h-3l3-10 4-2zm108 18l5 4v3l-2-1-4 3 1-9zm6 18l2 1 3 15h-1l-4-16zm-139 4v2l-3 6h-2l5-8zm118 2l2 1-5 10-1-7 4-4zm21 18q9-2 11 4v12l-6-8-4-1-1-7zm-12 6l5 1-2 4-4-2 1-3zm-99 6l7 6-2 1 11 11-17-12-2-4 3-2zm74 6l2 1-7 5-1-2 6-4zm108 9v6l-2 4-14 5v-1l16-14zm-155 9l10 6h-4l-7-3 1-3zm134 6l3 1-3 5 1 1-13 5v-1l9-7 3-4zm-122 1l11 5 1-3 18 21 5 3v3l-12 4 1 2 5 3 3 3 7 5q5-7 20-5v9q-6 10-22 11l-1 3-1-5-6 3-2 3-10-3v-9l-5 2-1-1 6-11 6-25-24-16 1-2zm-84 8l5 7-6 5 1-12zm138 3l11 9-8 9-16-6 7-9 6-3zm2 6l-3 4 4 2 2-3-3-3z"/><path d="M420 372l-1 2-2 4-3 2 2 2 7 3 15 36v8l-3-3-15 1 2 3 3 2h-7l-14-11-2-5q-14-1-18-11l1-3h5q-7-5-6-18l4-6 6 5 6-5 6 5 14-11zm-92 48l2 1v8l-3-2-2 4-1-7 4-4zm26 0v3l-9 9h-6v-1l3-1 6-7 6-3zm-32 12l2 1-5 8-1-2 4-7zm105 0l14 1 3 9h-1l-1-4-4 1v2l-12-6 1-3zm-94 60l9 4v1l-9-5zm8 6l1 1v1l-1-2zm23 0l8 3-2 3h-11l5-6z"/></g><path d="M389 180l12 6h-5l-7-6zm-43 6l19 1-5 3 1 2h20l3 4 2 2q12 2 16-3l1-3 11-3-1-2 10-1 3 6-6 2 6 16-6 1 2 5h-22q-7-10-29-6l-13 6 2-3v-3l-6 1-2 5h-9l5-3v-3l-8 6 1 1-28 13-1-2-8 6v1l-15 13-1-2-17 10-1 8 2 1-7 9-5 4-7 14-4 2-3 6 2 1-2 14-6 8v40l-5-3-1 18h3l3-2v19l-3-5-9-1q2-12-3-16l-15-10 6-14-3-1-3 2v-28l4-4 7-3 1-8-2-1-3 5-1-7 12-26 4-3 2-4-2-1 8-14 1 2 16-9 7-14-4-1 7-5v-2l6-4v-2l45-25 1 2 17-8 1 2 9-6zm-82 84l-2 1-3 4v1l5-3v-3zm-29 66l-1 6h3l2-3-4-3zm0 12l-1 6h3l2-3-4-3zm217-150l10 4v2l-10-6zm23 12l5 4v2l-6-3 1-3zm19 12l10 10v2l-9-6-1-6zm-113 24l3 3q-2 16 6 23l-2-2-4 1v11l-17 14-1-4 10-16h2v-6l-5 3-1-2 9-25zm4 42l5 3 12 24-3-3-12-5-6 5-6-5-14 8 3-4 2-4 4-2 6-11 8-3 1-3zm-13 30l6 3 3 3 10-6 9 8 2 3 1 1-4 11-21 1-12-8v-4l-17 15 1 1q14 5 22 17l-2 3 1 1-14 9-5-14-10-14 9-12 7-6 2-4 12-8zm111 6l9 3-1 2-28 15-1-8-8 6-4-9 3-3h22l8-6zm-196 6l10 6 3 8h-1l-3-1-9-13zm29 0q11-1 14 6v-2l-5-3 8-1 5 6 4-2v3l-3 5-3 1-6 17-11-5-2-5-11-5 4-8 8-1-2-6zm119 0l8 1-10 5-1-3 3-3zm-12 12l15 13-7 9-4 2 3 1-3 1-1-2-11 6-7-9 15-21zm-48 31l2 2-1 2-3-1 2-3zm-26 17l4 4 1 2h-2l-3-6zm-13 2v5l-5 10-1-4 6-11zm91 0l5 12-4-3-1-9zm-186 4l5 4v8l-5-3v-9zm93 12l2 1-8 11-3 2-1-1 6-11 4-2zm-93 6l9 2 8 16 1-4 1 4-2 1 6 7 1 1 7 9-2 1 9 11h-2l-7-1-2-5-4-1-2-5-4-1-3-11q-12-9-14-24zm113 0v3l-5 3-1-2 6-4zm-20 7l2 2 1 3 5 1-1 3-4 2 4 1-4 2-1-3h-6l4-11zm85 11l12 6h-4l-8-6zm20 6l3 2 7 15-1-1-6-3 2-1-5-12zm-121 2l1 4 9 1-14 10-2-4 6-11zm-29 26l5 8h-4l-4-5 3-3zm7 8l14 6 2 4v2l-6-1-5-8-5-3zm18 12l10 4v2l-10-6zm12 6l15 6-2 1 3 5-1-1-10-4 2-1-7-6zm24 6l12 1-4 5-4-1-1-3-3-2zm22 0l19 1-2 3-17 2v-1-5zm24 0l12 3-2 3h-11l1-4v-2z" fill="#ffcf7f" stroke="#ffcf7f"/><path d="M394 180l12 6h-4l-8-6zm-83 144q13-1 18 6h-11l-7-6z" fill="#d8b897" stroke="#d8b897"/><path d="M325 192l4 1-10 5-1-2 7-4zm21 18l2 1-1 3-6 2 5-6zm9 0l5 1-3 5h-5l3-6zm-43 18v3l-7 3 3-4 4-2zm-50 6l2 1-19 21-4 2-1-2 6-8 4-2 2-4 4-2 2-4 4-2zm26 12v3l-12 11 8-12 4-2zm-56 24l2 1-5 7-1-1 4-7zm32 0v3l-5 3v-1l3-4 2-1zm112 0l2 1v5l-4 2-1 3-1-7 4-4zm12 6l2 2 2 10-2 1v1l-5-2-2 4-9 4-7 12-1-2 6-11-2-1 14-12 4-6zm-13 31l7 5 6-5 7 5-5 1 2 6-1-1-10 6-2-3 3 2 2-4-5-1-1 2-6-2-11 8-1-10 15-9zm99 17l8 1-8 5v-1-5zm-161 3l4 3-2 1 3 5-11 4-1 5 14 9-3 2-3-1 3-1-10-6-1 2-14-19 20-1 1-3zm136 1l1 1 1 1 1 1-2 6 4 5 8-6v3l-17 15 3 1-3 1-1-2-5 2-1-2-15-12-15 22 7 8 11-6v3l-6 3 2 1-2 7 2 4h-2l-6-3 2-3 2-1 1-3-1-1-13 10-6-5-6 5-7-3-2 11 6 11-6 1v1l-3-1-2 1-1-8q-16-2-21 5l-4-5h1l-3-5-2-1-1 2-6-2 2-4 10-2-2-6h-4l-18-24 7-12 3-1 3-8 10-3v1l-5 3 1 2 1 1-8 12q11 9 15 27l9-7-6 7 1 2 15 6 8-9-11-9h-3l2-3-23-17 15-16 2 1 6 8q7 6 25 3l4-3 2-9 31 1-2 5h4l13-8zm-126 2l7 4v2l-7-6zm-88 6l4 3-2 3h-3l1-6zm0 12l4 3-2 3h-3l1-6zm0 12l5 4v4l-5-8zm5 10v5l-5 3-1-2 6-6zm135 2l3 3-2 3-4-2 3-4zm0 1l-2 3 3 1 1-2-2-2zm-39 39l2 6 8 2 2-1 1 1 5-3 1 3 3 1-3 1-1-2-11 8-1-2h-6l-1-5-4 3v1l-1-5h-2l8-8zm22 2l6 1-8 4-1-1 3-4zm63 12q13-3 17 3h1l1 3-14 1v2l-5-2 4-1-5-3 1-3zm-94 1l3 3 1 2 5 1-3 5 1 1-15 5-1-2 6-9-2-1 2-4 1 3 2-4zm-68 5l2 1 3 7-4-3-1-5zm173 5l10 9 2 4h-2l-14-11 4-2zm-161 13l17 16v1l-10-4-6-8-1-5zm121 48l4 2-1 4h-10l5-3 2-3z" fill="#ffda8a" stroke="#ffda8a"/><path d="M281 324h28l3 4v2h-24l-7-6zm173 0h18l2 3-2 3h-22l4-6z" fill="#ffeec7" stroke="#ffeec7"/></svg>