<svg xmlns="http://www.w3.org/2000/svg" viewBox="0 0 762 762" stroke-width="3" xmlns:v="https://vecta.io/nano"><path stroke="#000" opacity="0" d="M1 0l761 1v761H0L1 0zm166 66l-4 2-73 75v9q20 21 30 53l6 25 6 11v13l6 11v47l-6 11v49l-6 10v52l6 11v49q12 12 14 34l12 18 47 46q20 7 30 24l17 5 13 13q19 5 30 18l17 5 37 25 28 14h9l82-44q10-13 30-18l13-13 17-5q18-23 48-36l9-15 13-8 32-57v-43l6-10v-74l-2-1-4-6v-55l-2-4-2-2-2-2v-32l6-10v-14l12-29v-13q14-34 36-58l-4-4-26-28-10-8-1-1h-1l-6-9-34-31H167z"/><g fill="#000a1c" stroke="#000a1c"><path d="M270 66l13 6 10-4 14 4 11-6h45l-2 3 8 20 9-5v4l-2 2h-42l2-3v-3l-6 4 2 2H178l38-18h43l11-6zm69 1l-3 5h6v-2l-3-3zm37-1h69l10 6h-17q-8 8-24 7l-2 11-10-2 1-4 11-6-8-11q-7 7-22 5l-8-6zm92 0l3 1-2 3q3 10 18 8l4-2-8-9 88-1 9 6q2-7 14-6l14 12-2 1v5l-4 2-2 5 4 5 2 1v5q-10 2-12-3 2-11-3-14l-9-1-2-5-10 5-5-3-4-8-12-6-12 16-33 1-9-5q-9 10-32 5l-1-12h-5l11-6zm-303 2l2 1-11 13q7 3 6 15l-36 41 2 1-7 9-7 5 2 3-2 1 22 40 2 1 1-4 5 15h-1l-2-5-3 1v8l-3-2-2 3 17 25 1-3 1 4-2 1-2 5-13-18-3 1v9l-12-35-20-40-7-7-3-11 12-15 1 2 4-2 1-3-2-1 8-7 1 1 4-2 1-3-2-1 8-7 1 1 4-3 1-2-2-1 35-34zm-41 136l-3 4 5 2v-5l-2-1zM385 84l5 1-2 5-4-2 1-4zm42 0l11 4-1 2-11-2 1-4zm-119 24l6 1-3 5-5-1 2-5zm21 0l9 1-2 5 5 1q-7 7-23 5l-6-3q4-7 18-3l-1-6zm23 0l28 1-7 5h-29v-1l8-5zm55 0l7 4 1 2 5-2-1-3 45-1-3 4-10 5-1-3-12 1v2q-4-7-18-3-5 7-18 6l-6-3 12-3-1-6zm72 0l9 1-3 5-5-1-1-5zm18 0l51 1-7 5-31 1-1 3-3 1-2-5-6-2-1-4zm54 0l9 1-3 5-5-1-1-5zm-359 6h82l2 3-5 3h-31l-12 6q-5-7-18-6l-12 6-6-3v-3l-22 20-2 11 4 4 7 5 1 3-12 23h-9l-8-20h-2l-5-11 3 1h3l38-40 4-2zm189 0l8 1-5 3v2l-6-2 3-4zm201 10l14 14-3-1-9-6-2-7zm-327 20l3 1v5l-6-2 3-4zm387 14l2 4 2-1-2 3-19 39-1-10 18-35zm-33 4l3 1-5 8-1-6 3-3zm-3 15v3l-3 6h-3l6-9zm-265 3l13 1-3 5h-11l2-3-1-3zm-11 6v3l-10 3v-1l10-5zm270 1v6l-3 5h-3l6-11zm-288 5v3l-10 3v-1l10-5zm-12 3v6l-10 3v-1l9-4-2-1 3-3zm-117 3l9 9-9 15-3 1 6 17h-8q-8-4-4-18l-6-8 4 2h2v-6l-4-1-2-9h1l3 4 11-6zm280 1l9 5h-3l-7-3 1-2zm-175 5v3l-6 3 4 1-3 1-1-2-3 1 3-4 6-3zm334 0l2 1-5 16-1-10 4-7zm-28 3v6l-5 3-1-3 6-6zm-232 9h37l8 6h-41l-6-3 2-3zm-15 4l1 1 1 1 4 1q-6 7-21 5v-1l15-7zm74 2l11 6v-2l-5-3 5-1 10 6-4 1 2 3 16 8v-2l-2-4 7 6-4 1 7 5v1l-44-21 1-4zm195 0l2 1q1 10-5 13l-1-10 4-4zm-28 4v12l-5 7-1-11 6-8zm-339 8l3 1-3 5h-3l3-6zm-3 7v5l-5 8-1-2-6 4 1 2 1 1-1 3-1-4-3 6-3 1 1-2 11-14 1 2 5-10zm132 5v3l-5 8-1-5 4-5 2-1zm232 0l2 1q2 15-5 20l-1-17 4-4zm-460 1q-2 16 6 23v13l6 9-6 8q4 21-5 29l-1-5-6-2q7-4 6-16l-6-12-5 3 5 7-6 5 1-42 11 3v-2l-6-10 6-11zm31 0l11 15-6 3-6-4 1-14zm287 1l6 4 1-2 3 2-4 1 10 5-1 2 3 4 1-4 1 4q-4 6-7-3l-6-2-7-11zm-83 2l5 3v5l-6-3 1-5zm197 3v33l-5 4-1-26 6-11zm-210 6v10l-4 1v-3l4-8zm19 6l3 5 2 1v11h-3l-2-17zm-115 3l-1 4-4 9-2-3 1-2h-2l2-4 1 3 5-7zm-90 1q-3 17 6 23-9 4-6 21l6 12-11 16-1-24 3 1h3l-6-9v-35l6-5zm36 4l1 3 1 1-1 3-1-3-6 11 2 1-7 16-3 1h-4l18-33zm277 1l7 14-2 1v2 2l-9-16 4-3zm-133 9v8l-5 8-1-5 6-11zm31 0l5 10-4 1-1-11zm150 6l3 5 2 1v5l-6-3 1-8zm30 3l5 5v38l-6-10 1-33zm-217 9v17l-3 6h-3q-2-17 6-23zm151 0l5 11h-3l-2-11zm-255 4l-2 3-1 3-3 1-3 2-1-4 10-5zm-46 2v6l-6 16-6-8 12-14zm346 5l2 1v5l-5-2 3-4zm-286 3l1 3 2 1-9 8v-3h-3l9-9zm133 0l5 9h-2l-3-9zm114 3l5 4v19q-9-7-5-23zm95 9v18l-6-5q-2-11 6-13zm-402 1v5l-5 3v-1l5-7zm34 2l2 1-5 7-1-4 4-4zm-94 1q-2 12 4 17l2-1v4l-6 8v16q-8 4-6 18l-3-2-8 9 8 2 3-2 1 2 5-2v16l-2-2-4 1 6 13-2-2-4 1v30l6 8h1l5 11-2-2-4 1q-3 20 6 28l1-4 5 8-3-3-3 1v6l15 24 51 50q15 5 24 18l35 17 25 19 17 5 56 34 10-5-4-1 7-5 1-2 11-5-2 3 1 3 25-13-1 4-46 27-8-6-1 14-4-1-3-5-4-2-1 2-14-7 2-1q1-13-7-16l-10-2-1 3 9 9-1 1-54-30-3-5-4-2-1 2-14-7 2-1-3-11-8-1-1 2-17-5q-10-17-30-24l-46-45-12-18-15-36v-49l-6-11v-49l2-1 1 1h1l2-4-2-1 3-27 3 2 14-22zm-20 95l-3 4 5 2v-5l-2-1zm264 240l-4 4 1 2 2-1 3-4-2-1zm97-335l1 1-1 2-5 3v-1l1-3 4-2zm-287 6v37l6 12-2-2-4 1v6l12 20-3-3-3 1 15 42 23 29-3-1-8-4q-5-16-18-24l-6-18-3-1-5 4-6 18 5 9-5 9 5 6-6 9 4 4 15 1q4-7 18-6l5 4 4 7 6 3 6 15q31 14 50 40l-11 13q16 11 24 32l17-6v18l-6 1v2l-5-3-1 2-12-5v-3h-9l4-6 11 6v-5l-17-7-1 6-6-3-1-3h-5l-1-4-13-2 2-5q-6-8-20-7l2-5-11-7-1 2-10-7-1-4-6-2 2-1-32-30-1 2-4-1 1-2-12-23h-3q2-16-6-21v-95q8-6 7-21l5 9-6 8 13 6 4-3 1-33 6-11zm66 215l-2 1-4 5 1 3 5 3 3-1 3-4-1-3-5-4zm-29-212q8 4 5 20h-3l-3-2 1-18zm40 1l9 7-3-1-8-4 2-2zm186 5l3 3-14 9v-1-3h-4l15-8zm116 2l5 4v35l-6-8 1-31zm-406 6l3 1-2 5-3 2-1-5 3-3zm272 4l1 1 1 1h2l2 1-17 9v-1-3h-4l15-8zm-144 1l33 20-1 3-7 4-2-8-25-17 2-2zm-62 7l3 1q1 10-5 13l-1-11 3-3zm321 1v6l-5 10-1-8 6-8zm-133 3l1 1 1 1h2l2 1-9 5-2-2 5-3-3-1 3-2zm91 9v9l-5 7-1-5 6-11zm96 6v16h-1l-5-8 6-8zm-371 2l5 14h-1l-4-14zm309 3l2 1-5 16-1-13 4-4zm-226 9v3l-3 6h-3l6-9zm-83 1l8 8 16 31-1-1h-3l-2-6-1 4-2-3 2-1-5-11-1 3-2-3 2-1-5-9-2 1-4-12zm38 8l3 13-3 4-9 1-5-3-1-3 4-5 11-7zm39 1v10l-4 1-1-2 5-9zm294 0v40h-1l-5-7v-25l6-8zm-110 5l2 1-5 8-1-3 4-6zm-69 1l5 11h-2l-3-11zm-74 3l1 1 1 1h2l2 1-10 5-1-2 6-3-4-1 3-2zm26 0l5 2 1-2 3 2-3 1 5 3v4l-11-7v-3zm156 7l-2 3-4 9-1-4 4-7 3-1z"/><path d="M352 426l7 1-10 5 2 1-4 1 1-2h-2l6-6zm93 1l5 11h-2l-3-11zm143 2v49l-6 5v-45l6-9zm-272 3l4 1-5 11h-3q-2-10 4-12zm182 6v3l-5 3-1-2 6-4zm40 0l2 1-5 10-1-4 4-7zm-203 4l1 1 1 1 2 1-14 8-3-3 13-8zm-23 3l1 13h-1l-1-3-5-2 1-3 3-1 2-4zm-35 2l6 5 7 10-2 1v1l-13-14h1l1-3zm174 1l5 5-7 4 2-9zm-20 1l9 7v1l-13-6 4-2zm101 1l2 1-17 28-2-3 1-2h-2l2-4 1 4 11-22 4-2zm-52 6v3l-15 15h-7v-1l22-17zm-166 3l2 2h-1l-1-2zm-67 7l11 16-10-9-1-7zm72 11l2 3-2 1 8 5h-2l-7-3 1-6zm191 1l1 2 3-1-8 9-1 3-2-3 1-2h-4l10-8zm-68 2l2 1-1 3-4 2-1-2 4-4zm168 0l2 1-5 16-1-13 4-4zm-357 3l11 9v-3l-1-3 9 6-2 1 8 11-3-1-22-20zm174 3l5 1 1 5h-11v-1l4-2 1-3zm-66 3l3 2 2-1 1 2 1 1-4 5h-6l1-4-4-1 5-1 1-3zm221 0v4l-3 5h-3l6-9zm-85 1l1 1 1 1 3-1-10 11v-1-3h-5l10-5-3-1 3-2zm-148 2l8 6h-2l-7-3 1-3zm51 0l14 1-3 5q-11 1-11-6zm88 11l3 2-12 6-1-1 10-7zm86 1l2 1-3 5h-3l4-6zm-287 5l13 7v-3l-1-3 23 12 8 9 5 3h-5l-45-23 2-2zm20 7l-1 4 6 2v-3l-5-3zm263-5v5l-36 39-10 3v-1l7-4 3-6 8-6v-2l19-16 3-6 4-2 2-4zm-109 3l1 1 1 1 4 1-27 11v-1l9-4-3-1 4-2 1 2 10-5-3-1 3-2zm140 1l-2 3q-7 20-22 33l-2-3 1-2h-2l8-10 2 4 4-3v-3h-2l8-16 4-2 3-1zm-166 7l-3 4 1 2 4 1q-5 8-21 5v-1l19-11zm-76 6l12 6h26l8-6-3 4 1 2 10 1q-9 8-29 6v2l-3-3q-20 4-27-3l6-3-1-6zm241 21l-1 4-1 3-5 3-2-1 9-9zm-281 3l5 3-2 3h-4l1-6zm245 10l-1 4-2 3-3 2-2-1 8-8zm-48 2v3q-2 5-10 3v-1l4-2 1 2 3-4 2-1zm66 4v2l-6 9-7 4 1-4 1-9 11-2zm-78 2l1 6-10 6h-7v-1l4-2 1 2 2-4-2-1 11-6zm45 0l-3 4 1 2 2 1q-9 14-26 20l6 9 7 1-8 8-17 5-13 13-53 29-1-2h-6v-12h-2l2-5-4-1 12-6-2 3 1 3 28-17-4-1 7-5 1-2 11-5-2 3 1 3q18-6 29-20l2-3v-2l9-4-3-1 4-2 1 2 16-11-4-1 8-6zm-45 42l-29 21-1-3-4 2-8 10 1 6 16-8q9-17 30-24l1-3-6-1zm-26 6l-4 4 1 2 2-1 3-4-2-1zm8-36l1 6-57 30 8-9 48-27zm19 18l1 1-9 5 2-3 6-3zm-169 17l9 7h-2l-7-3v-4zm75 7l3 1 2 5-13 5-1-2 9-9zm-56 6q15 2 22 12h-4l-7-3v-3l-12-3 1-3zm41 6v3l-10 3v-1l10-5zm-17 6l5 1v4l-6-2 1-3zm53 24l4 1-11 6 1-4 6-3z"/></g><path d="M167 66l102 1-10 5h-43l-38 18v1l-51 47v-1l33-36 2-11-6-9 11-12-2-1-35 34 33-34 4-2zm105 0l45 1-17 5-10-4-8 4-10-6zm174 0l21 1-11 5-10-6zm126 0l15 1-8 5-7-6zm23 0l14 12-9-9-5-3zm42 39l1 2 7 7-6-6-4-1 2-2zm-444 3l114 1-1 5H192l-42 40v2l-5-1 5-9 33-31v-2l10-5zm122 0q12-3 15 3v3h-18l3-6zm24 0l12 1-14 5-1-3 3-3zm42 0h25l2 3v3h-30l3-6zm31 0l8 2-2 4h-4l-2-6zm53 0q12-3 15 3v3h-23l8-6zm24 0l9 3v3h-12l3-6zm60 0l3 3 1 3h-6l-1-3 3-3zm12 0q14-2 19 6l3 4 3 2 31 33-2 3h-3l-11-15-6-2-12-15h-2l-4-7-20-3 4-6zm-459 21l-9 10-2 5-1-1 12-14zm559 0l13 14 4 4-5 6 4-5-2-4-3-1-11-14zM91 150l29 54h-1l-28-54zm24 6l5 3h1l11 16 6 23-1-1-4-2-18-39zm531 0l2 1-3 5h-2l3-6zm-483 34l5 8h-2l-3-8zm-24 14l3 2q11 9 8 33h-1l-11-19 1-16zm30 1l3 5 2 1v5l-6-3 1-8zm-48 5l5 12h-1l-4-12zm159 0l2 1-3 5h-3l4-6zm72 6l9 1-1 2 5 3h-16l-1-2 4-4zm48 0q11-3 14 4v2q-12 1-14-6zm-66 6l7 1-10 5-1-2 4-4zm90 0l8 4v2l-8-6zm-297 6l5 12h-1l-4-12zm198 0l4 1-10 5-1-2 7-4zm114 0l15 6 2 4v2l-18-9 1-3zm-132 6l10 1-38 29-2 5-5 3-1 3-1-7 37-34zm-156 6l5 4v25q-9-9-5-29zm312 0l9 6 2 4v2l-10-5-1-7zm-85 9v6l-5 3v-1l5-8zm-140 3l2 1-3 5h-3l4-6zm-57 9l5 5-1 4-4 3v-12zm307 3l4 3h1l5 8h-1l-8-5-1-6zm-260 1v5l-3 6h-3l6-11zm139 4l4 1h1l-3 6h-3l1-7zm-99 7l2 1-15 29-8 3-1-2 18-29 4-2zm-46 1v5l-3 6h-3l6-11zm283 11l2 1 3 10h-1l-4-11zm-139 3v6l-5 3v-1l5-8zm31 2l4 1h1v6l-6-3 1-4zm-181 2v8l-5 3v-1l5-10zm295 5l2 1 3 8-3-2-2-7zm114 3l1 2 2 2-1-1-3-1 1-2zm-444 6l5 9h-3l-2-9zm68 3l2 1-4 9-1-7 3-3zm-39 1v15l-5 2-1-6 6-11zm-54 8v26l-2 1q-7-5-4-18l6-9zm181 3l5 1-2 10h-3v-11zm-66 6l11 3 46 33 3 4 10 4-2 4h-6l-10-10-34-19-2-5-15-9-1-5zm-28 6l3 1v10l-6-8 3-3zm235 0l7 1-16 10-1-1 3-5 7-5zm-23 19l1 1-1 2-4 2-1-2 5-3zm-278 5l3 1q2 15-5 20l-1-18 3-3zm260 7l1 1-1 2-4 2-1-2 5-3zm-305 5v2l-2 1 2-3zm292 0l7 1-5 3 1 2-1 6h-3l-2-7 3-5zm-274 3v25l-5 2-1-18 6-9zm-20 1v2l-2 1 2-3zm113 2l3 1v5l-6-3 3-3zm93 3v4l-3 5h-3l6-9zm-131 3l5 3v14l-5-17zm42 7l5 11h-3l-2-11zm186 9l5 3v5l-6-3 1-5zm-52 4l15 14v2q-5-7-18-6l-11 6-1-2 15-14zm-170 4l5 4 24 47h1l20 27 3 3v3l-17-11-10-12-15-24v-7l-12-23 1-7zm42 3l5 9h-2l-3-9zm-108 3l5 3v6l-5-9zm405 0l2 1-5 10-1-4 4-7zm-226 5v7l-3 6-8 3-1-3 5-9h1l1-3 5-1zm74 1l10 3 41 34-1 3-8-3-3-5-35-22-1-8-3-2zm-139 1l5 11h-2l-3-11zm-114 5l5 3v36l-6-8 1-31zm-18 6l5 12h-1l-4-12zm219 0l2 1-7 9-4 2-1-2 3-5 7-5zm-75 7l5 11h-2q-6-2-3-11zm51 11l1 1-6 9-4-1-1-2 10-7zm-33 12l5 4v2l-6-3 1-3zm-138 12l5 3v21l-4-1-1-23zm363 0l2 1-3 5h-3l4-6zm-11 13v2l-2 3h-3l1-3 4-2zm-370 5l11 24h-1l-10-24zm138 0l27 18 2 6h-3l-20-11-4-6-2-7zm213 6l8 1-1 3-13 8v1l-15 5-1-2 3-5 19-11zm-327 6l5 3h1l17 30h1l24 25 3 2 3 4 57 38 3 4 57 32 3 4 58 27-11 5-55-34-17-5-25-19-35-17q-9-13-24-18l-51-50-15-24 1-7zm447 0l2 1-5 10-1-4 4-7zm-297 12l5 3v3l-6-2 1-4zm150 0l4 1-10 5-1-2 7-4zm-312 6l14 24 46 45 8 5-1-1-7-3-47-46-13-24zm54 0l32 30h-5l-27-30zm123 0l38 9v3q-32 5-38-12zm114 0l13 1-16 5-1-2 4-4zm-30 6l19 1q-6 7-22 5l-1-2 4-4zm180 6l2 1-3 5h-2l3-6zm-12 12l2 1-11 16-9 7 1 1-10 5-1-2 3-5 25-23zm27 5l-1 2-2 4-4 2 1-2 3-1 3-5zm-354 13l8 6h-5l-3-6zm336 5l-1 2-6 9-6 3 1-2 8-5 4-7zm-318 7l8 6h-5l-3-6zm273 0l7 1-16 11-1-2 10-10zm-255 12l5 4v1l-6-2 1-3zm232 7l1 1-11 13-18 9-1-3 3-4 17-10 1-2 8-4zm-300 1l25 22h-1l-24-22zm331 1l-18 19-5 2v-1l23-20zm-221 15l10 6h-4l-7-3 1-3zm-78 6l2 2-1-1-1-1zm231 0l2 1-3 4-2 1-1-2 4-4zm37 0l1 1-18 15-54 30 1-2 53-29 17-15zm-264 2l22 18-1-1-21-17zm218 4l4 1-28 17-1-3 3-4 22-11zm-194 14l2 2-1-1-1-1zm8 4l2 2-1-1-1-1zm153 0l2 1-2 5-33 18-1-3 3-4 31-17zm-149 2l13 10h-1l-12-10zm20 10l2 2-1-1-1-1zm4 2l16 12-1-1-15-11zm83 10l2 1-3 4-2 1-1-2 4-4zm43 0l1 1-12 6 1-2 10-5zm-108 2l8 5-1-1-7-4zm14 7l14 11-1-1-13-10zm16 11l2 2-1-1-1-1zm8 4l2 2-1-1-1-1zm4 2l2 2-1-1-1-1z" fill="#000114" stroke="#000114"/><g fill="#061022" stroke="#061022"><path d="M364 66q15-2 20 6h13l9-5 9 11q16 2 23-6h24l1 12 12 1-3 5h-35l1-2-11-4-1 4 2 2h-16l2-11-3-1-9 7 2 5h-15l1-2v-4l-6 1 2 5h-9l1-2v-4l-9 5-8-20 3-3zm108 0q16-3 19 9v1l-11 2-11-8 3-4zm9 6l-1 3 4 2 1-2-4-3zm-142-5l3 3v2h-6l3-5zm210 0l14 9 5 7 3 1 9-5 3 5 10 4 1 10-6-6-4-2H483l-3-2-1-3 17-6 8 5h31l4-3 10-14zm58 14l5 3 1-2 7 8-2 1v5l-11 3 11 21h-2l-17-18h7v-6l-4-1-2-5 4-6h2l1-3zm-273 3l2 1-3 5q-6-3 1-6zm302 23l8 7-2 1v2l-5-2 4-1-4-3-1-4zm-258 4l1 3 1 1-2 3 6 2 2-4 12-2v4l11 2q7-9 26-6l2 4-14 8-3-6-14 12-5-10-7-2-7 6-8-6h-37l-9 6-7-4-7 8 17 18-35 24-4 15-15 17h3l15-12v3l-2 3 1 1-10 5 3 1-3 1-1-2-10 7-2 5 2 1-10 5 2-3v-3l-4 2-5 10 1 1-8 6-1 3-1-4-5 2-1-8 6-9 17-11-5-7 22-16 2-5-8-17-10 5-17-9-1-10 3 1h3v-6l-5 2-4-13-3-1-5 4-1 3 6 12-5 9 5 9-5 8-18 12 11 27v19l-6 17h3l12-6-1 2-1 3-1-2-12 15 2 1-1 3-1-4-5 10-4 2-15 30h4l2-1 1 1 1 1-1 3-1-3-12 15 7 8 2 1-3 5 2 1-1 3-1-3-6 11v31l-3 4-3 1-12-6 6-9-6-9h-2l2-5-3-1-3 2 18-32q-8-7-6-24l6-9q-10-7-6-26l6-3-18-24 4 2h8l-6-17 4-2 8-14-9-9-11 6-3-5-1 3-2-3 2-1-5-9-2 1-1-3 8-1 12-24-3-5-8-4-1-9 22-24 2 1 2 3 5 2q4-7 18-6l12 6 11-6h31l5-3-1-3 32-1 4 1h2l1 1v3l17 2 11-6h31l5-3zm168 0l1 3 4 1-17 5-11-5q16 2 23-4zm-47 1l5 3 2 4 2-1-1 2q-22 4-30-5l4-2 4 1h2 11l1-2zm-45 2l5 1-6 5q-6-3 1-6zm11 0l6 1-6 5-3-3 3-3zm96 0q13-2 17 6h-14l-6-3 3-3zm100 16l13 14 3 3-4 5-2-8-8-5-2-9zm-68 7l19 17 1 2 5-2v2l-11 22-4 2-3 6 2 1-1 3-1-3-5 7-1-2 12-21 6-5v-4l-5 2q-1-20-16-25l2-2zm-473 11v10l-2-2-4-2 3-4 3-2zm528 10l1 4 5 3-5 6-8 3 1-2 6-14zm-497 8l5 12h-1l-4-12zm276 11l12 6 6 7 3 2h-7l-20-11 5-1 1-3zm-89 3l4 3-2 3h-9l5-3 2-3zm298 1v6l-5 8-1-2 6-12zm-185 8l2 3-2 1 10 5h-4l-7-3 1-6zm24 12l5 9h-2l-3-9zm-351 3l2 1v5l-5-2 3-4zm470 0v3l-6 5 4-7 2-1zm-459 7l3 3v4l-5-5 2-2zm489 0v6l-5 10-1-5h-2l2-4 1 3 5-10zm-211 5l11 6-4 1 2 5h-2l-9-5 3-1-1-6zm80 0l5 3 3 3 12 12 3 6h-2l-21-24zm-139 6l5 1-15 5v-1l10-5zm-25 4l1 1 1 1 10 1-22 11h-8l2-3 5-2-4-1 4-2 1 2 11-5-4-1 3-2zm-196 2l9 8 6 10 2-1-6 14 6 11h-8q-14-13-9-42zm322 6l9 6-2 1v2l-5-2 4-1-6-6zm133 4v5l-5 3v-1l5-7zm-6 9v6l-5 10-1-5 6-11zm-113 3l7 8-1 1-7-4 1-5zm-173 1l1 2-13 13-5 9-5 1v-1l15-20 7-4zm233 8l5 3v2l-6-3 1-2zm83 0l1 5 2 1-3 2v-2l-5 8-1-5 6-9zm-240 15v2l-3 6-3 1 1-2 5-7zm-215 3l5 13-4-3-1-10zm113 1l1 4-7 12 6 1-1 3-9 4-7 13-1-3h-2l3-1 17-33zm271 0l4 10h-1l-3-10zm41 8v10l-2-2-4-2 3-4 3-2zm-77 4l5 10 1-4 1 4-2 1v4l-7-11 2-4zm-343 2v6l-5 7-1-5 6-8zm389 1l1 1h-1v-1zm-409 1l2 1q7 4 6 18l-6 9 6 3q-2 19-14 28l-4-2q-5-35 12-48l-5-6 3-3zm218 1l1 5 1 1-1 3-1-3-5 10-1-5 6-11zm43 15l6 4 2 4-3 1 3 5 3 1-1 3-7-3 2-1-5-14zm-136 2l3 3-18 13 1 2 3 2 6 15 27 19 4-3 1-3-7-10-20-13-3-9 12-10v4l-6 3q-2 12 7 15l3 2 2 3 22 15 2 3 20 15-8 1 8 9 3-1 1-2 1 5h3l2-4v4l-5 10-4 2-3 6 2 1-1 3-1-3-7 14-1-2-2 1-2 4 2 1-1 3-1-3-3 5-3 1-1 3-23 9 1 6-8-3-4-10-1 4-2-3 2-1-20-35 2-1-5-15-1 2-3-4 3-1v-6h-3l3-11-3-1-3 2 1-10 5 2 1-15 5 3v-5l-6-3v-4h-3l3-5-2-1 2-4 21-14zm18 96l-11 7-4 5 1 3 5 3 9-1 3-4-3-13zm-2-90l23 1 3 5h-24l-2-6zm207 0l6 2 2 3 1-2 2 3-4 2-5 8v-1q2-12-2-15zm-145 6l3 1-2 6-3 1-1-5 3-3zm264 0l3 1-5 7-1-5 3-3zm-92 7l5 16h-1q-7-4-4-16zm-32 3l1 1 1 1h2l1 1-4 2-2 3h-6l8-5-4-1 3-2zm122 6l5 8h-3l-2-8zm-84 8l5 4-2 8h-4l1-12zm-59 5l2 2-4 2-2 3-4 1-4-1 12-7zm100 2l1 5 2 1-8 13-1-11 6-8zm49 6q7 7 5 24l-5 7v-31zm-163 2v4l-3 4-9 2-4-1 16-9zm72 10v6l-5 10-1-5h-3l3-2 1 1 5-10zm-392 5l2 1-2 4h-2l2-5zm453 1q6 4 5 16h-1l-4-10-1 2-2-3h2l1-5zm-156 2l5 9h-2l-3-5-1 3-2-3 2-1 1-3zm95 7v5l-5 3v-1l5-7zm-381 3l3 3-3 8-8-2 8-9zm472 3q6 3 5 15l-5 7v-22zm-97 3v11l-11 22-6 2-1-3 9-8 3-6-2-1-2 1 10-18zm42 0l1 5 2 1-3 2v-2l-5 10-1-5 6-11zm-347 1l5 12-4-3-1-9zm228 13l5 14h-1l-4-14zm-60 3l11 4 1 3-2-2-8-4-9 6-4-1 11-6zm209 0v15l-5 8-1-19 6-4zm-36 2v5l-23 44-1-2 6-12-2-1 2-4 1 3 5-10-2-1 2-4 1 3 5-10-2-1 2-4 1 4 5-10zm-193 8l1 1 1 1 2 1-12 16-19 7v-1l7-4v-2l7-5 2-4 3-1-2-1 10-5-3-1 3-2zm-229 2l2 1v5l-5-2 3-4zm80 6l5 4 4 15 21 26q19 7 30 24l16 9 2 3 42 21 26 1v3l25 2 3 4q2 19-9 25l-14 10 9 14 11 7 7 17 3 1 4-3 5-8 3-1 4 4 2 14 1 1-8 10 1 1-6 2-1-2-11 6v1l-6-1-1 2-4-1 3-1-16-12h-13l-1-4-4-1 2-1-8-6-1 2-4-1 4-1-6-3 1-3h5v-18l-18 7v5l-11-6-4 6h-3l1-12 17 6v-3l-23-30 11-12-23-24-30-18-4-15-6-1 3-2v-3l-4 2v1l-3-7-11-2q-7 8-24 6l-5-3-1-3 6-9-5-6 5-9-5-9 9-20 2-1zm126 108l-4 2-8 12-5-2-1 6h4l2-1q1 12-5 17l9 7q11-4 8-22l12-3v-1l9-4 3-7-5-4-9 6-10-6zm3 61l-2 3 3 1 1-2-2-2zm69-169l8 6h-5l-3-6zm85 8l-1 2 1 2 1 1-14 13v-2h-2-2l4-2 1 1 12-15zm-72 2l9 8-3 1-6-4v-5zm192 0q8 5 5 21l-5 8v-29zm-300 16l2 3 3-1v3l-3 4-3 1-5-3-1-2 6-1 1-4zm-12 10l16 12h-4l-11-5-2-4 1-3zm156 5l-1 2-3 5h-3l4-5 3-2zm-138 1l13 10q18 2 28 12-3 5-5-1l-6-3-1 2-22-7-1-4-6-2 2-1-2-6zm197 2l1 4-2 4-6 2 5-6 2-4zm-257 2l7 8-8-3 1-5zm329 0v2l-5 10-7 5 1 3 3-1 2-4v5l-5 10-1-4-4 2-2 4 2 1-1 3-1-3-5 7v-3l17-32 6-5zm-225 8l3 3-3 2q-5-2 0-5zm249 1v12l-27 53h-3v-6h-2q14-11 20-29l-2-1 2-4 1 4 5-11-2-1 8-17zm-108 1l1 4-6 9-7 4-4-1 14-12 2-4zm-135 4l3 2-1 4h-7l5-6z"/><path d="M379 492l5 1-2 5-4-2 1-4zm18 0l7 6h-5l-2-6zm96 0l4 1-12 5 2-3 6-3zm-336 2l5 12-4-3-1-4-1 4-3-4 3-1 1-4zm316 20l1 1-8 13-4-2v-4l-6 4-3 7-22 1 3-4 11-2 28-14zm-59 20l5 1-15 5v-1l10-5zm127 5l1 2-7 7v-3l3-4 3-2zm59 7l2 1-1 3-10 8 1 1-3 1-1-2 6-9 6-3zm-24 2l1 4-7 15 3 3-3 1-3 11 1 1-31 23h-8l-6-9q17-6 26-20v-2l14-8 13-19zm-306 4l5 4 1 3-3 4-3 1-5-3-1-3 4-5 2-1zm253 5l-1 2v2l-6 3 2 1-2 1v-2l-5 4v1l-1-2-5 3 4 1-4 2-1-3h-3l22-13zm-64 7l10 6 12-6 4 4 5 8 3-1 2 2-2 4-1-2-5 3 4 1-4 2-1-3-31 19v-3-2l-14-7-3-7 4-5 17-13zm123 3l1 2-4 1 3-3zm-189 9l3 3-2 3-4-2 3-4zm130 12l4 1-10 5v2l-1-2h-4l11-6zm-85 18l5 1-14 11 1 1-4 2 1 3-11 4-2-4h-3l27-18zm66 6l6 1-1 3q-21 7-30 24l-16 8-1-6 6-8 1 2 35-24zm-251 6l10 4 1 8h-2l-9-12zm24 18l7 6h-1l-7-3 1-3zm159 12l2 1 1 11 5 1v2l-21 9 1 1-22 14-23 9-7-3 1-15 9 6 47-29v-2l7-5zm-105 12q12-1 15 8l2 10h-2l-8-5-8-10 1-3zm53 11l1 1h-1v-1zm-23 13l7 6h-1l-7-3 1-3z"/></g><g fill="#0d1726" stroke="#0d1726"><path d="M481 72l4 3-1 2-4-2 1-3zm126 6l5 4v2l-6-3 1-3zm-131 6l4 2 2 4h-9l1-2 2-4zm143 6l7 6-2 1 4 4 2 1 1-2 9 13 1 1-4 1 11 5 1-2 19 26-2 1 1 5 5-3v6q-19 21-30 50v13l-12 29v14l-2-1-4 6 2 1-2 36-4-2-8-17-5 3 5 9h-2q-7-6-4-20l6-9 1 2 5-8-2-1-3 5-1-17-5 2-1-1 6-11 4-2 8-17v-12l-3-1 3-5 1 5 5-10 3-1 7-19 14-8-2-4h-4l-1-6 1-4-5-5-2 1-25-27 2-1-11-21 11-3 1-6zm12 18l-1 3 6 3v-4l-5-2zm6 24l-1 3 12 9 3-1 3-4-1-3q-3-7-16-4zm-507-30l1 1-1 3-3 1-1-1 4-4z"/><path d="M439 114l11 1 3 5 11-6-2 3 3 3 12-6q7 10 30 6l3-2 1-4h12q4 7 18 6 5-7 19-6v4l19 3 10 15 3 2 12 14 2 19-12 21v6h4l2-4v4l-5 10-1-4-5 4-1 8h4l2-1-5 11-5 3-2 17 2 1-1 3-1-3-5 10-1-5-5 4q-8 5-7 21l3 4 7-6-4-8 6-8v64h-1l-7-10-6 5-5-6 7-24-13-22-10-5-12-25 5-8-3-5-3-1-5 4-4 8-3 1 6 11h-2l-5-6h1l-14-17 2-1-3-5-2-1-1 2-5-2-1 2-14-7 2-1-5-9-1 3-9-12-3 1 3 5-3 1v1l-4-1 3-1-10-5 2-1-3-2v2h-2l1-2-4-7 10-12-5-6 6-9-3-5-3-1-5 4-3 14-16-8-2-4-7-5-8 5q-14-3-18 4l-9 20h-27l5-3v-3l-11 3 2 3-15 2-1 2-4 2 3 1-3 1-1-2-17 8-1-2-11 5-1-5-17 12v-1l14-16 7-18 32-21-17-19 10-7 5 4 8-6h37l9 6 9-6 5 4 4 8 14-12 3 6 15-9 1-3zm71 18l-4 2-7 8 11 8 5-2 7-9-1-3-11-4zm-144 12l-2 1-4 5 1 3 5 3 3-1 3-4-1-3-5-4zm-120-12l5 4 1 21 4 4 15 7 9-5 8 18-7 9-17 11 5 7-20 14-3 18 2 1-1 3-1-4-3 6-14 6-1-6q9-9 6-30l-11-27 20-14 3-7-5-9 5-9-6-12 4-5 2-1zm171 30l3 6-1-1-5-2 3-3zm-19 8l42 22h-1l-11-6h-13l-25-8 1-4h5l2-4zm34 4l6 3 1 5h-1l-11-4 1-2 4-2zm-131 24l3 1-3 1v-2zm-132 16l5 12h-1l-4-12zm99 2l2 1-3 5 1 1-3 1-1-2 4-6zm92 6l9 1-3 5h6l3-6h36l57 28 2 6 16 11h1l6 7 3 2-1 2 15 29-1-1-3-1-3-11-3-1-5-11-3 1-2 5-10-6-9 6-9-9 12-17-15-9-19 7-19 19 17 18-17 12 5 7-14 13 2-4v-2l-1-3-3-1-2 1 1-2h2l-12-17 3-1-1-12h-2l-2-6-1 4-2-3 2-1v-12h-3l-2-5 5-1-3-11-3 2v-3l-6-3v-3l-11 3-1 9 2 1-1 3-1-4-6 18 3 1-3 5 2 1-1 3-1-4-12 24v18l2 1-9 5 1-2v-4l-5 2-1-2-6 1-26-1-4-3v-3l-24 1 2 5h-9l1-2v-4h-6l-2-6-22 14 1-2 5-10 3-1 7-13 8-3v-3h-6l10-18 7-3 16-20v-2l13-11h9l41-18zm-185 16l5 12h-1l-4-12zm360 23l5 15h-2l-6-11 2-1 1-3zm-93 3q8 5 9 18l8 6 2 5-5 4-1 2-11-7 6-9-11-4-1-9 4-6zm-285 7l5 13-4-3-1-10zm390 13l4 9-2 1-2-6-1 4-2-3 3-5zm60 13l10 7q-2 21 7 32l1 18 5-1 2 19-2 1v5l-5 3 9 9 2-1v14l-1-1-5 1 1 5 5-1v20l-1-1-5 1 1 5 5-1v14l-1-1-11 10 1 2 5-3v3 42l-27 48-12 6-8 16-4 2-9-3 10-21 2 1 1 5 3-1 26-52v-18l-3-1-3 2 6-12 3-1 3-6v-91l-12-25 3 1h3v-24l-5 2v-29zm14 118l-2 2 1 2 4 1v-2l-3-3zM162 298v5l-5 7-1-4 6-8zm463 7l2 2 3 12-1-1-3-1-1-12zm-108 3l5 12-2-2-4 1v10l-6-17h2 4l1-4zm36 8l5 8h-2l-3-8zm-103 2l6 1-2 5h-12l8-6zm19 0h20l3 4v2h-21l-3-2 1-4zm27 0l7 3-1 2-3-2-1 2-2-5zm-238 6l6 1q1 15 12 20l16 11 2 5-3 4-3 1-29-21-4-15h-3l2-4 4-2zm316 0l3 3 11 23-2-2-13-11-3-7 4-6zm-76 1v6l-3 4-4 2-3-1 7-5 3-6zm-6 4v2h-1l1-2zm67 2q7 7 5 24l-5 7v-31zm-312 9l5 3v5l-6-3 1-5zm239 0v15l-3 4-3 1-6-3v-3l-7 1-3-1 7-5v-2l15-7zm31 0l5 7 1-4 2 5-3 1 1 11 5-2v5l-11 20-1-2q-3 6-6 1l6-9-6-3 11-18-4-12zm65 15v20l-2-2-2 1-10 16-4-2v-4l-4 2-1 3-1-4 6-11 12-10 6-9zm-120 3l1 2 3 2 1 3-5 4 7 7 11 5v3l-17 10q-9 7-7 27l5 10q-6 3-5 14l3 4h1l14-26 7-3 9 5 12-17 6-1 8-22 1 11 1 1-1 3-1-3-18 35h4l2-1-5 9-1-2-15 12-2 5-1-2v-3q-19-3-23 9l-1-3h-2l2-4-5-5-2 1-5-13h1l2 3h3l-5-12-1 4-2-3 2-1-5-15-1 2-6-7 4 2h2v-6l-5-3-2 1-5-14h1l3 4h2l-6-11 23-10 2-6 11-5zm18 68l-4 2-1 2 5 2 5-2v-1l-5-3zm88-66l2 4-5 7-1-7 4-4zm-81 6l5 3 3 3 3-2 2-3 4 3-5 6 3 1 6-5 2 4-6 5-1 2-11-5-2-6-4-2 1-4zm-168 12q9-2 11 4l-2 6-10-7 1-3zm-78 4l5 12h-1l-4-12zm338 2l3 3 1-2 11 27-5 7-1-5-6 4v18l-2 2-9 4-1 3 4 4 5 1 3-2v35l-21 39-15 15-11 7-7 11-6 3 4 1-3 1-1-2-21 12 1 1-12 5-7-11-3-1-12 6-9-6-20 16-1 3 6 8 11 6-2 3 1 1-22 8-23 15q2-13-4-17l-3-1-5 4-4 7-3 1-5-3-6-18-12-6-6-12 16-12q9-9 8-27 25 4 36-6l-1 2 1 4h5l3-6h22l4-3 5-9 2 1 3 5 6-5 4-10 26-14 7-13 8-3 12-19 3-1 21-42v-6l-2-1 2-4 1 3 5-10 1 2 3-2 2 6-8 11-4 2 1 4q4-7 18-6l9 5v-2l-4-9q7-5 6-18l-6-9 3-3zm-65 102l-4 6h3l3-5-2-1zm-106 66l-6 5 2 12 8 6 8-10-1-9-11-4zm-15 24l-3 4 4 2 2-3-3-3zm-12-161l21 15 1 2h-4l-10-12-5 1 21 23 3-2 1-6 11 6 4 7 24 12 2-3 1 4q18 2 25-7l2 2-22 17 4 1-3 1-1-2-5 4-1 2 4 1-13 5v-1l3-1v-4l-5 2-1-2-12 7v2l-11 5-1-2-18 1 2 5h-15l1-2v-4l-6 1 2 5h-8v-1l-1-5h-5l-2-6-4 3v3l-24-6-17-12-1 8-4-1 3-1-16-12-1 3-5-2 2-1q-13-7-15-23l24-10 1-3 3-1 2-4 1 17 1 1-1 3-1-4-3 6-3 1 1 3 3 2-4 1 1 5v2l3 3 3 1 4-3 7-13 2 1 27-12 10-14v-2l18-10zm28 71l-1 3 4 2 1-2-4-3zm-94-65l1 1-1 4h-3l3-5zm-140 57l5 12h-1l-4-12zm69 14l2 1-1 3h-3l2-4zm-61 6l3 8-3-2-2-4 2-2zm250 24l1 1-11 5v-1l10-5zm-258 4l6 10h-1l-5-10zm228 2l1 1-11 5v-1l10-5zm-67 12l10 6 9-6 5 4-3 7-8 3-1-2-5 3 1 3-8 1q3 18-8 22l-9-7q8-7 5-24l8-8 4-2zm-109 12l9 6h-1l-8-6zm321 17v2l-9 5 2-3 7-4zm-38 1l2 1-1 3-2-1-3 2v-3l4-2zm-18 12l2 1-6 4v-3l4-2zm-153 19l2 2-1 2-3-1 2-3zm136 17l1 1-8 5v1l-4-1 11-6zm-133 5l6 5v1l-10-4 4-2zm131 8l1 1-1 2-4 2-1-2 5-3zm-82 35l1 1-8 4 1-2 6-3z"/></g><path d="M181 90l2 1-3 5 4 2 2 8-2 3-3 1-1-8-11 6-1-2 7-13 6-3zm41 0l8 1-2 5 3 1-2 3 1 2h-10l1-2-2-3 3-1v-6zm259 5l5 2-2 5-3-5-1 4-3-4 4-2zm-140 1l10 1-3 2v-2l-3 5-4-6zm239 0l8 4v2l-8-6zm-3 6l3 2 1 3-1-1-4-1 1-3zm2 6l3 1v1l-3-2zm-429 18l6 1-5 8-12 3-1-3 12-9zm-6 18l2 1-2 16-6-11 4-5 2-1zm-15 6l15 15v3l-15-5-2-6-1 3-2-3 2-1 3-6zm483 20l1 3-6 12-1-4 6-11zm12 17v5l-5 10-1-4 6-11zm-181 5l11 6h-3l-8-6zm161 6l2 1-5 8-1-2 4-7zm-121 18l11 6-2 1v2l-2-3h1l-8-6zm-326 6l9 2 2 3 1-3 1 4-2 1v5l-12-8 1-4zm437 2v5l-5 8-1-2 6-11zm-329 4l1 1-9 5 2-3 6-3zm182 0l13 6h-3l-10-6zm-290 7l3 5 2 2-1 4-4 3v-14zm18 13l5 13-3-2-2-11zm413 6v5l-5 7-1-1 6-11zm-427 4q12-2 16 6l-4 2-2 4-7-1-3-11zm211 20v4l-5 8-1-1 6-11zm223 34l6 3 1 3h-2l-6-3 1-3zm-12 3l5 13h-1l-4-13zm-337 1v2l-5 10-1-3 6-9zm-84 4v5l-5 8-1-5 6-8zm277 4l2 1-12 5v-1l10-5zm114 8l5 13-3-2-2-11zm-393 28l2 1-5 10-1-5 4-6zm429 3l5 13h-1l-4-13zm-31 6v3l-5 10-1-4 6-9zm-402 5l1 4 5 3 1 3 7 1-1 3-6 5-1-3-5-3-1 2-5-8 5-7zm12 17v6l-3 5h-6l3-5 1 2 5-8zm-14 5l2 1-5 8-1-5 4-4zm362 14l1 4 2 1-2 4-1-4-5 9-1-3 6-11zm96 1v18l-6 10 5 9-4 2-2-4-7-2-3 5-1-14 17-11-2-4-3-1 2-5 4-3zm-395 1l5 12h-1l-4-12zm150 2l1 1-11 5v-1l10-5zm-216 3q2 6 13 4l-2 5-6 1 12 16h-1l-17-8 1-18zm380 9l3 1 1 5 1 1-1 3-1-3-9 17h-3v-12l-6 2-3 4-8 3 1 1 6 3v3l10 3-3 5h-9v-4l-4-1-3-6-3 2-2-3 6-11-2-1 2-4 1 3 3-5 2 1 1 5 5-1 3-5 12-6zm-362 24l4 3-2 3h-3l1-6zm429 0l2 1 1 5 3-1 2-4v5l-3 6-14-2 5-8 4-2zm-95 9l1 18-5 3-4-12-17 6v-1l2-4 1 4 9-11 12-1 1-2zm86 8l5 2v5l-6-3 1-4zm-111 13l1 1-2 5h-3l4-6zm9 0l5 1-5 9-1-4h-4l4-2 1-4zm-26 10l1 1-3 7 1 1-13 5v-1l3-2 1-6 5-2 1-2 4-1zm-29 2l12 1 1 7-2-2-3 2-5 10-9-3-1-2 13-2v-6l-6-2v-3zm43 4v2h-1l1-2zm-9 2l2 1v2l-4 2-1-1 3-4zm-170 6q8-2 10 4v2l-10-6zm154 1l1 5 1 1-7 5v-1l5-10zm-51 1l3 2 1 2 1 1-14 6-4-1 13-10zm-62 10q6 8 21 7l-7 4-15-8 1-3zm36 10l1 2h-3l2-2zm-156 18l5 7h-1l-7-4 2-1 1-2zm62 44l1 1h-1v-1zm-2 2v2h-1l1-2zm18 10l4 2v3h-4v-5zm13 7l3 1 1 4h-2l-3-1 1-4zm105 24v4l-4 1-1-2 5-3zm-29 19v2h-1l1-2zm-3 3l1 1h-1v-1z" fill="#d3a74d" stroke="#d3a74d"/><path d="M184 90l11 1-3 5 6 3-2 3-4 1-1 3-6 2 1-2-3-10h-3l4-6zm49 0l15 1-2 5h4l2-1 2 2 18 11h-27l1-2v-4l-12-8-1-4zm120 0l8 1-1 5v2l1 4-1 3-6-3-5 3-1-3h-3l3-5 1 2 5-3-1-6zm95 0l28 1-2 5 4 2 2 3 1-4 2 5-3 1 2 5h-10l2-3v-3h-6l-2-11-10 5-8-6zm31 0l10 1-4 5-5-1-1-5zm30 0l45 1-2 5h6v-3l-1-3 21 1-2 5 12 6v-2l1-3 47 50 1-2 4 9-23 44-6 17v10l-6 9q4 22-6 30v50l-5-2-1 3 12 7v45l6 9v35l-6 5 2 4 3 3-6 7-10 4-1-62-6-9v-39q-9-7-6-26l4 2h2v-12l-5 3-1-11 4 2h2v-18l-5 3 3-4 8-22-2-1-4 3 12-32-2-1 2-4 3-1 3-6-2-1-2 1 4-6-2-1 18-36 2-1-1-5-4-3-2 1-29-32-4-1-2-4-3-9-3 1v2l-5-3h-25l-2-11-4 3-1 6-5 3v1l-5-2-1 4 2 2h-10l2-5-3-1-3 2v-2l-6 1-15-6-10 5 1-2 1 1 2-4-2-1 5-3 1 3 6-1 4 1h2 5l-1-6zm22 1l-3 5h6v-2l-3-3zm52 11l1 6h4v-4l-5-2zm24 276l-1 6h3l2-3-4-3zM445 93l4 3 1 4-7 2v-1l-2-4 3-1 1-3zm-231 3l7 3-2 3-8-2 3-4zm62 0l3 1-3 1v4l-4-1 2-4 2-1zm-45 1l1 1 1 2-2 1v1l-2-2 2-3zm-65 5l2 1 1 5 11-6v9l-41 37-1 3 6 10 1-3 1 4-2 1 6 11 1-4 1 4-2 1 12 20-3-3-3 1 6 10 1-3 1 4-2 1q9 5 6 22h-1l-2-5-9 1 9 11h3l1-6 5 4v21l6 13-5-5-19-6 4-9 2-1-1-5-3-1-8-14v-10q-7-5-6-18l-18-32v-7h1l5 7 12 3v-3l-15-15-3 6-6-3 3-8 21-21 1 2 5-3v-3h-2l18-18zm-16 24l-12 9 1 3 12-3 5-8-6-1zm177-24l3 3 2 3h-9l1-2 3-4zm167 0l4 2 2 4h-9l1-2 2-4zm-25 108l5 4v2l-6-3 1-3zm17 8l5 4-2 1 4 2 7 13 3 2-5 1-2 5h-4v-12q-8-5-6-16zm-19 22l9 6v1l-9-7zm44 6l5 4v2l-6 3 1 1 5 2 1-5 7 11 1 1 11 23 4 3 1-2 7 17-2 1 1 5 4-1 1 24h-1l-2-5-3 1 6 7h1q9 8 5 31-10 7-6 30l-15 33h-3v-6l-17 8-1-2-5 2-1-2-3 1 1-2 2-4 4-2 2-4-2-1-2 1 4-6 1 4 11-16-8-1 6-12h2v-6l-5 2-1-1 12-24-2-1-4 3 1-18 5 3v-6l-5-11-1 4-6-7 4 2h2v-12l-4-1-3-6 5 1h2l-5-8-2 1-4-10-1 3-2-3 8-1-2-12-13-11-3-15 3-5 2-1 1 1 1-5zm-348 19l3 5 6-1 2-4 1 11 5-3v29l-2-2-4 1v20l-3 3-9 4 1 2 5 1 1 47 5-3v6q-2 5-11 3l-3-6h-4l6-17-2-1-3 5-1-14 6-3v-6l-5 3-1-11 6-9 1-60zm5 123v3l-3 5h-3l6-8zm0 9v20q-3 6-14 3-7-3-4-14l4-4 12-1 2-4zm227 17l9 6h-1l-8-6zm107 24l2 1-6 12 4 10-20 3-1 3-1-5h-2l24-24zm8 6l6 1-3 5-8-2 1-2 4-2zm-30 46l1 2 3 1-8 4-1-1 5-6zm-205 2l12 6h-4l-8-6zm170 5l4 1h1l-2 5h-2l-1-6zm-19 1l1 1-1 2 5 3h-15v-1l10-5zm-101 12l5 3 2 7 3 2h-7l-8-5 4-1 1-6zm54 0l5 4-12 10 1 4-1-1q-8-7-24-5l-11-5 5-1 1-3 27 9 2-4 6-4 1-4zm-180 18l17 16v2l-18-15 1-3zm42 36l5 4v1l-6-2 1-3zm37 25l3 1 1 4h-2l-3-1 1-4zm85 47l2 2 1 4h-5l-1-3 3-3zm16 12l4 2v3h-4v-5z" fill="#e3af50" stroke="#e3af50"/><path d="M196 90l11 1-3 9 2 2-2 1-8-1 2-3-6-3 4-6zm67 0l9 1-4 5-4-2-1-4zm65 0l10 1-7 5-3-6zm73 0l9 1-2 5 2 1-2 3 2 2-2 1v2l-6-3-1-12zm24 0l9 1-4 5-4-2-1-4zm19 0l11 6-5 1-1-2-5-2v-3zm33 0l3 3-2-2-3 2 2-3zm13 0l3 1-2 3-4 2 2 1-2 4h2l7-4 7 5-5 1-4-1h-2l-6-1-1-5 5-6zm8 0l8 1-3 5-5-1v-5zm57 0l3 3-2-2-3 2 2-3zm-90 1l3 3v7l-2-3-3 2v1l-1-5h-5l8-5zm66 0l3 3v2h-6l3-5zm12 0l3 3 1 8q20-3 28 6h-36l3-4 3-1-2-1 2-3-2-2-4 3 4-9zm-284 2l4 3-4 1 5 3 2 3-1-1-12-5 5-1 1-3zm-24 1l7 8-2 1-2 5h-5l1-5-3-1 1-2h1l-2-3 3-1 1-2zm354 0l7 8-2 1v1l-5-7-3 1-1-2h3l1-2zm-250 2l4 6h-8l1-2 3-4zm-60 1l3 8-1-1-4-1 2-1-2-3 2-2zm-7 1v2h-1l1-2zm19 4l3 3 2 3h-9l1-2 3-4zm180 0l3 1-3 5h-6l6-6zm133 90l2 1-5 9-1-3 4-7zm-117 34q7 4 5 17l-3-2-6-12 3-1 1-2zm18 12l11 8 1-2 7 14-2 1v1l-5-7h-3l2-1-1-4-4-2-1 5-8-10 2-1 1-2zm87 2l2 1-5 10-1-7 4-4zm-79 12l-2 3v1l-1-1 3-3zm-16 12l1 1v3l-1-4zm3 0l4 2h1l13 16h-4l-11-8-3-10zm86 0l2 1v17l-6-3q-3-12 4-15zm-406 4v5l-5 3-1-2 6-6zm406 20l2 1v11l-6-3 4-9zm-63 16l5 8h-2l-5-2-1-3 2-1 1-2zm-349 17l-4 5-1 3-3 1h-4l4-6 8-3zm-3 9l5 1-1 3-1-3-5 10-1-8 3-3zm376 0l3 2 2 6-6-5 1-3zm-18 1l5 17h-2q-8-4-3-17zm-355 6v6l-5 10-1-5 6-11zm-14 5l2 1v5l-5 2-1-4 4-4zm372 18l2 1-5 10-1-7 4-4zm-358 9v6l-5 3-1-3 6-6zm433 9l4 3-2 3h-3l1-6zm-81 24l2 1-5 7-1-4 4-4zm-16 20l2 5-3 1-4 8-1-3 6-11zm-30 42v4l-3 6 1 1-9 7-1-1 12-17zm5 23l-1 2-1 3h-3l1-3 4-2zm-140 25l8 4h-5l-5-2 2-2zm16 1l4 3-4 1 5 2h1l1 3h-2l-11-5 5-1 1-3zm17 0l-5 6-1-2 6-4zm6 1v8h-7l7-8zm2 2l2 1-2 1v-2zm-35 114l1 1h-1v-1zm-2 2v2h-1l1-2z" fill="#edb854" stroke="#edb854"/><path d="M208 90l5 1-8 9 2 2-3-8 4-4zm115 0l7 4 1 2 5-3-4 5-1 3 1 1-2 1-4-1-2 1-1-13zm257 0l7 6h-10l-1-2 4-4zm-103 1l3 3v2h-6l3-5zm78 0l3 3v2h-6l3-5zm-290 3l1 2h-3l2-2zm146 2l-2 3 2 3-3-2 3-4zm40 0l10 1-11 5v-1l1-5zm-180 1l1 5v1l7 5h-5l-8-5 4-1 1-5zm272 0l2 2-2 3 2 1-4 2-1-3h-4l7-5zm-78 1l2 2 2 2 1 1-10 5 2-3 3-7zm-272 4l7 1-2 3 2 2h-12l4-2 1-4zm48 0l5 1-3 5h-5l3-6zm113 0l1 1h-1v-1zm127 0l10 1-7 5-3-6zm25 0l4 3 2 3h-6l-2-4 2-2zm14 0l2 1-3 5h-5l6-6zm9 0l5 4 1 2h-3l-3-6zm37 0l14 6h-4l-10-6zm35 4l7 8-2 1v1l-7-8h1l1-2zm-453 14l2 1v2l-5 2-1-1 4-4zm471 4l7 8-2 1v1l-7-8h1l1-2zm-246 86l3 1-11 5 2-3 6-3zm225 0l1 1-4 9-1-6 4-4zm-120 18l6 2-3 1 2 3h-3l-4-2 2-4zm9 7l6 11 5-1v2l-3 5-3 1v2q-10-4-5-20zm17 20v11l-2-2-7-5 9-4zm1 18l8 9-10-7 2-2zm16 14l1 7h-2l-4-5 5-2zm-347 35l1 2 2 1-2 4-3 1-3 2-1-2h-2l3-1 5-7zm0 21v9l-5 7-1-5 6-11zm0 14v12l-6 5q-2-13 6-17zm352 27l2 1v5l-5 2-1-4 4-4zm-1 18l-3 4-3 8h-3l6-11 3-1zm-11 18l1 1-2 5h-2l3-6zm-53 58l1 1v1h-4l3-2zm0 3v2l-4 6-1-3h-4l9-5zm-28 21l1 2h-3l2-2z" fill="#f2bc58" stroke="#f2bc58"/><path d="M214 90l5 1-9 8 1 1 3 2h-6l-3-3 9-9zm36 0l3 1-4 5h-3l4-6zm7 0l7 4 1 2-1 2-4-1 4-1-7-6zm17 0l16 1-3 5-5-1-2-4-9 5 3 1-2 1-2-3 4-5zm24 0l10 1-2 11-6-3-2-9zm50 0l6 4v2h-7l1-4v-2zm-117 1l3 3v2h-6l3-5zm181 5l7 3-2 3-8-2 3-4zm-135 2l1 4-2 1 10 4 2-1-8 2-9-5 5-1 1-4zm125 0v4h-1l-1-2 2-2zm39 0l1 1v2h-2l1-3zm21 1v6l-8 3 8-9zm-261 3l6 6h-6l-3-3 3-3zm21 0l6 4 1 2h-15l2-3 6-3zm164 0l4 3 2 3h-10l2-3 2-3zm106 0v3l-7 3 3-4 4-2zm7 0l6 1-1 4 1 1-7-3 1-3zm-146 1l9 5h-15l2-3 4-2zm48 0l10 5h-16l2-3 4-2zm110 2l3 2 2-1-3 2-2-3zm-353 87l4 4v6l-4-10zm282 6l19 12-9 1v2l-12-10 2-5zm-276 6l1 1 3 7-3-2-1-6zm299 12l5 3-2 3-4-2 1-4zm24 34l8 8 5 6h-4l-5-2-5-8-4-1 4-1 1-2zm54 34l5 12-3-2-2-6-1 2-1-2h1l1-4zm-24 12l4 10h-1l-3-10zm30 10l2 1 1 4-3 1v-6zm-306 80l5 12-3-2-2-10zm279 16l4 1-3 1-4 9-1-4 4-7zm-92 97l4 3 1 2-1-1-6-2 2-2zm-91 126l5 3v1l-6-2 1-2zm13 6l3 1 1 4h-2l-3-1 1-4z" fill="#f7be57" stroke="#f7be57"/><path d="M220 90l2 6h-7l5-6zm71 0l9 4 2 6 4 2 1-2 6 3-4 5h-4l1-2-11-4h-2l-5 2-2 3-4-2-2-9h-9l9-5 4 5 4-1 6 1v-2l-3-3-3 2 3-3zm216 1l3 3v2h-6l3-5zm-80 4l4 1h2l2 1-7 4-1-6zm-7 3v2q-9 4-4 8l-8-3 1-3 10-2 1-2zm-215 4l16 1-13 5-3-6zm179 0l1 1-4 5h-5l8-6zm38 0l4 2 3 4h-7l-2-4 2-2zm29 0l1 1-8 5v-1l1-2 6-3zm60 0l5 1-2 4-4-2 1-3zm-359 72l1 1 3 9h-1l-3-10zm347 66l7 6-7 1v-7zm30 22l7 14-2 1v3l-8-15 2-1 1-2zm-30 4l4 10h-1q-6-2-3-10z" fill="#ffc958" stroke="#ffc958"/><path d="M255 90l3 6h-5l-1-3 3-3zm121 0l4 1-2 5h6v-3l-1-3 9 1-2 5 5 3-2 3-3 1-6-1-5 3-1-3h-6l-2-5 2-1 4-6zm36 0q11-3 14 4l4 8 5-6h-2l5-3 2 9-2 1 2 5h-10l-5-6-5 2 1 4h-4q-7-4 3-8v-2l-12-2 4-6zm-121 1l3 3v2h-6l3-5zm-26 5l5 1v5l-6-2 1-4zm57 0l1 4-3 1-1-1 3-4zm-27 7l7 5h-4l-3-5zm208 143l4 1 1 3-6 2v-1l1-3v-2z" fill="#ffd159" stroke="#ffd159"/><path d="M310 90l3 1-1 4 9 2-2 4h2l3-2v6l-3 2-4-5-11-3 4-9zm53 0l10 12 5 1-3 5q-12 3-15-3l1-3 5-1-1-5h-5l3-6zm32 0l7 4-3 8 1 1-3 1-1-2h-3l2-4v-2h1l-1-6zm41 0l5 1-8 5-1-2 4-4zm-55 1l3 3v2h-6l3-5zm-156 11l9 1-2 5-4-2v-2l-3-2zm106 0l10 1-5 3-1 2-5-3 1-3zm108 0l9 1-4 2-2 3-3-6zm145 0l4 3v3h-3l-1-6zm-214 78l4 1-11 5v-1l7-5zm27 4l3 2-3 1 5 3v2l-6 1v2l-6-3-2-5 8-1 1-2zm138 93l5 11h-3l-2-11zm-319 31v4l-5 8-1-1 6-11zm141 196l13 1-10 5v-1l-1-3-2-2zm27 0l8 1-2 5 2 1-7 4-1-11z" fill="#ffda60" stroke="#ffda60"/><path d="M314 90l4 3-2 3-4-1 2-5zm67 0l3 3-2-2-3 2 2-3zm-39 12l6 1-3 5h-10l3-4 4-2zm193 0l5 1-3 5-2-6zm-111 96l3 2 2 4h-8v-1l3-5zm39 4l3 2-3 1 10 5-5 1v1l-1-3-10-4 5-1 1-2zm-12 11l2 3-2 1 5 3v2l-4-1-1-4-3 1-1-2h3l1-3zm9 9l6 5 2-1-3 2-5-6zm11 6l-2 3 2 3-3-2 3-4zm30 18l2 2-2 4h-3l3-6zm34 30l2 1 3 10h-1l-4-11zm-313 14l1 4 2 1-2 4-1-4-5 7-1-1 6-11zm16 154l2 1v2l-2-3zm4 1l8 5 2 3-3-3-3 1 3 5-6-5-1-6zm17 26l5 9h-2l-3-9zm18 9l14 12h-6l-8-12zm54 22l8 8h-6l-2-8zm30 7l-1 4v3l-6-2v-2l-4-1 11-2z" fill="#ffd15e" stroke="#ffd15e"/><path d="M318 90l6 4v3l-7-1 1-4v-2zm109 99l1 1h-1v-1zm-38 1l1 1 2 2 3 2-6 2-4-2 2-4 2-1zm41 0l2 2h-1l-1-2zm-7 3l2 2-4 8-2-3 4-7zm3 11l4 2 3 4 2 1-1 4 4 4 14 9h-1l-24-11 2-1-5-10 2-2zm37 30l7 6h-4l-3-6zM229 420l5 9-4-3-1-6zm239 52l1 2 1 1-1 3h-2l-4 2 4 1-4 2-1-5 6-6zm-11 8l3 1-9 4-1-1 7-4zm-101 25l4 3-1 2-5-3 2-2z" fill="#ffd968" stroke="#ffd968"/><path d="M340 90l3 6h-6l-1-2 4-4zm102 0l2 6-4 1v1l-2-4 4-4zm53 0l3 3v3h-6l3-6zm-199 12l10 4q-3 5-5-1l-5-3zm131 88l3 2v2l4 10-2 1v4l-6-11h-3l2-3-1-3h2l1-2zm22 8l11 6h-4l-7-6zm-29 2l1 4 4 1-5 2v3l-6-2 6-8zm19 8l10 8h-13l-2-4 4-2 1-2zm12 2l5 4 9 14 11-6-8 9 6 9h-3l-8-6-1 2-4-1 4-1-10-5-3-5-4-1 5-1 2-6h1l-2-6zm1 7v4l4 1v-2l-4-3zm71 41l5 4v2l-6-2 1-4zm-297 36l2 1v2l-8 3v-1l2-4 1 4 3-5zm-4 90l4 3 2 9-6 1v1l-7-8 2-1 4 1 1-4v-2zm-5 16l16 13v-2l-6-8 2-1 5 4-1 8-5 1v1l-12-5 1-11zm23 20l6 3v8l-5-10-1-1zm-11 2l7 10 3 3-1 2-3-2-2 1-4-14zm114 10l1 1-9 5 2-3 6-3zm102 8l5 12-3-2-2-10zm-210 2l5 5 1-3 7 12-2 1v4l-5-8-2 1-4-12zm24 20l5 4v2l-5-3v-3zm219 0l1 1-4 7-1-2h-2l6-6zm-216 12q12-2 16 6l-2 1v1l-5-2-1 6-8-5 2-1-2-6zm206 3v6l-5 3-1-2 5-3-4-1 5-3zm-60 21l10 1-10 5v-1-5z" fill="#ffd165" stroke="#ffd165"/><path d="M342 90l6 2-1 4-5-2v-4zm239 0l7 4v2l-7-6zm14 12l5 4v2l-6-3 1-3zm12 12l11 10v2l-12-9 1-3zm18 18l11 10v4l-11-14zm-180 64l3 2 2 3 12 7v2l-20-11 2-1 1-2zm24 18l5 2 1-2 10 8 1 3-3-3h-17l2-3-1-3h1l1-2zm14 15l3 8-3-2-2-4 2-2zm15 18l1 5 7 1-10 5-4-5 4-2 2-4zm-323 17l4 3-4 5v-8zm330 10l11 13 1-4 2 5-3 1v4l-5-7h-2l-4-10-1 4-2-3 2-1 1-2zm-330 26l5 4v9l-2-1-3 5v-17zm348 14l2 4 3 1v11l-6-3 1-13zm-343 7v6l-7 3 1-2 1 1 5-8zm-6 11v4l-5 10-1-3 6-11zm0 20v5l-5 8-1-5 6-8zm340 80l2 1-2 5h-4l4-6zm-285 1l5 15h-1l-4-15zm233 47l1 6 1 1-6 4 1-4 3-7zm-185 4l7 8 4 4v1l-10-4-2-4 1-5zm173 5v7l-3 2-3-4 2-3 4-2z" fill="#f3c05d" stroke="#f3c05d"/><path d="M365 90l9 1-2 5-7-6zm-29 4l1 3-3 4-3-1 5-6zm126 2v3l-9 9h-5l4-7 10-5zm-148 6l4 3 2 3h-10l2-3 2-3zm-168 60l1 1 3 9h-1l-3-10zm287 28l3 2-4 1 6 3 1 3-1 4 12 11v2l-12-9-1-3-5-3-3-8 3-1 1-2zm30 17l4 3 1 3v3l-6 1 3 5 8 1-8 4-11-16 8-1 1-3zm18 7l3 2-4 1 6 3v4l-1-3-7-4 2-1 1-2zm-9 14l5 1-2 3 11 6v13l-10-4-2-5-4-1 4-1-5-9 3-3zm41 25l3 3v1l-5-2 2-2zm1 29l5 1 1 4h-1l-2-4-1 4-2-5zm-3 4l5 7 2 1h-4l-3-8zm-333 26l2 2q2 8-3 10h-3l4-12zm69 138l5 4v4l-4-1-2-4 1-3zm4 18l7 4v4l-7-8zm198 16l1 1 1 1 3 1-9 5v1l-5-1 10-5-4-1 3-2zm-72 20l7 3v5l-7-8zm-42 6l11 1-4 2v2l-7-5zm37 4v2l-2 4h-2l-2-4h2l4-2z" fill="#fac65c" stroke="#fac65c"/><path d="M393 91l3 3v2h-6l3-5zm-2 11l5 1-2 4-4-2 1-3zm-19 81l1 3q13-3 16 3v1l-4 2v2l-1-2q-20-4-26 6l-3-3 17-12zm-30 9l3 1-9 8 2-7 4-2zm55 0l5 3-10 3v-1l4-2 1-3zm9 0l8 1-2 10h-2l-4-11zm29 0l9 4v2h-6v-4l-3-2zm-68 6l3 2 1 2-4 2v-6zm66 6l5 3v3h-6l1-6zm-12 4l1 3 4 3v2l-11-5 5-1 1-2zm21 8l2 1v4l-2-5zm4 1l4 3v2l-4-1v-4zm59 15l11 13h-1l-13-10 2-1 1-2zm-241 42v2l-5 8-1-2 6-8zm102 28v5l-5 7-1-1 6-11zm31 0l5 12-4-3-1-9zM235 426l5 4v2l-6-2 1-4zm18 18l11 8h1l5 7 24 15 1-2 3 2-3 1 16 11h-5q-34-12-54-38l1-4zm219 24l2 1-3 5h-3l4-6zm-27 18l3 1-9 4-1-1 7-4zm-126 3l5 3 1-2 3 2-3 1 10 5h-15l-1-9zm108 3l-1 2-1 2-4 2-1-2 7-4zm-84 4l11 5-6 3-11-5 5-1 1-2zm51 8l6 1-9 5-1-2 4-4z" fill="#ffe670" stroke="#ffe670"/><path d="M174 94v3l-5 8-1-3h-2l8-8zm192 4v2h-1l1-2zm276 56v2l-5 10-1-3 6-9zm-24 4v4l-5 10-1-3 6-11zm-461 24l5 12-3-2-2-10zm230 28l11 6h-1l-10-6zm48 12l13 6h-3l-10-6zm177 4v2l-5 10-1-3 6-9zm-6 30v5l-5 7-1-3 6-9zm-89 46l5 14h-1l-4-14zm6 26l5 12h-1l-4-12zm84 34l5 12-3-2-2-10zm-456 19l5 8 1-2 2 3-4 2-4 7v-18zm11 13l1 2 2 1-3 2v-2l-3 5h-6l3-5 1 2 4-2 1-3zm6 24v19h-1l-2-5-3 1 6 8-12-11 1-4h5l3-6 3-2zm444 11v18l-3-2-3-7 6-9zm-78 4v5l-11 20-1-2-12-3 4-3 2-5-3-1 5-6 4 1 1 11 3-1 8-16zm64 11l8 4 1 2 1 1-1 3-1-3-3 5h-3v-6l-5 3-1-2 4-7zm-96 7l5 5-3 1v4l-4-8 2-2zm90 4l-3 4 5 7-4 2-2-9 4-4zm-108 7l5 1-8 10-1-4 4-7zm8 6l5 3-2-2-8 7 2 4-3 1v1l-3-2-2 4-2-4-4 3 3-4 2-5 1 5 5-8 6-3zm-26 24l10 1-1 3-4 2 2 1-4 2-1-3-4 2-1 4 3 1-7 5 1 1-12 5 5-6 6-5 2-5-1-3 2-4 1 4 3-5zm-24 6l3 3 2 3 4-1 1 4-2 1v-3l-5 10-1-5h-9l7-12zm-261 6l5 4v2l-5-1v-5zm112 0l12 6h-4l-8-6zm11 0l8 3 1 7-2-2-4-1 2-1-5-6zm111 0l7 1-19 13-1-2-14 6-2-3q18-4 29-15zM297 605l1 1h-1v-1zm10 3v2h-1l1-2zm107 24v2h-1l1-2z" fill="#c9a24c" stroke="#c9a24c"/><path d="M363 96l2 2v3l-2 1-3-3 3-3zm-26 90l1 1-11 5v-1l10-5zm-30 12l3 1-13 5v-1l10-5zm294 110l5 12-4-3-1-9zm-421 20v2l-5 10-1-3 6-9zm149 38l9 6h-1l-8-6zm104 0l3 1-13 5v-1l10-5zm-276 24l5 1-2 5 1 1-4 2-1-3h-3l4-6zm6 42l3 2 8 18-2-2-4 1-2 4-7-10-9-4 1-5 17 8v-3l-5-9zm431 14v5l-5 7-1-4 6-8zm-89 10l5 4 1 2 7 1-1 3-5 3-1 3-5 3-1 3v-22zm101 1v6l-3 5-8 2-1-2h-2l2-3-1-3 11-1 2-4zm-112 12l3 3 2 8 3 1-11 5 1-2v-4l-4-1-1-3 7-7zm112 0v8l-5 3-1-2 6-9zm-125 5l2 1-2 4v-5zm-2 1v2l-5 9h3l3-5 2 5 2 1q-6 7-20 7l-1 3-1-7 17-15zm4 5l3 3-2 1v-3l-1-1zm-28 7l1 1-1 5-4 2-1-5 5-3zm31 1v4h-1l-1-2 2-2zm-145 4l11 6h-3l-8-6zm144 1l1 1-3 4-16 7-4-1 10-5-2-1 3-2 1 2 10-5zm-25 6l1 1-7 10 2-3v-3l-3 1-1-2 8-4zm-37 5q5 8 21 7l1 5 3 1q-8 8-26 5v-1l4-2-2-8-2 1-5 10h-3v-4l-4-1-11 11h-7v-1l7-4 2-5v-2l1 1 1 1 20-14zm-116 3l2 3-2 1 9 5h-3l-11-5 4-1 1-3zm78 11l3 4 3-1-4 7q-12 3-15-2l3-4h9l1-4zm-46 4l11 6h-1l-10-6zm21 0l1 1h-1v-1zm-166 1l6 5-2 1v1l-4-7zm66 54l3 1 1 4h-2l-3-1 1-4zm65 41l5 4v1l-6-2 1-3z" fill="#c29d4b" stroke="#c29d4b"/><path d="M625 96l5 3v3l-5-3v-3zm6 12l5 2v4l-6-3 1-3zm-513 6l1 1-1 3-3 1-1-1 4-4zm525 0l5 3v3l-6-3 1-3zm-537 12l1 1-1 3-3 1-1-1 4-4zm404 6l11 4 1 3-7 9-5 2-11-8 7-8 4-2zm127 0l14 2-3 2 1 2 3-1 1-2 1 4-3 4-3 1-12-9 1-3zm-271 12l5 4 1 3-3 4-3 1-5-3-1-3 4-5 2-1zm301 0l5 3-5 3v-6zm-217 6l5 4 1 3-6 9 5 6-5 4v-2l-8 5-10-5-6 4v2h-12l-16-10-2 1v-3l-4 3 1 3-3 1 2 5h-9l1-2 10-21q16 1 24-6l4 5-2 1 4 4 2 1 1-2 15 8 6-17 2-1zm-39 6l-3 4-6 3 6 7v-4l6-9-3-1zm37 0l-3 4 3 1 2-4-2-1zm-31 6l-3 3 4 2h1l-2-5zm4 4l-1 5-2 3-7-5-2 1 2 5 5 3 15-6v-1l-10-5zm-67 8l6 1-1 3-4 2 4 1-7 5 2-3v-3l-5-2 1-2 4-2zm96 3l-4 7 3 7h-1l-6-4 2-1 1-5 5-4zm-3 15l3 1v1l-3-2zm16 0l9 8 1 3-1-1-8-3-2-4 1-3zm-300 4l5 12h-1l-4-12zm308 8l3 1v1l-3-2zm147 8v5l-5 7-1-1 6-11zm-119 4l4 4 1 2h-2l-3-6zm-129 6l4 1-2 5h-6l4-6zm158 0l5 4 1 4-2 1v-2l-2 1-2 4 2 1-1 2 15 26 12 9 8 16v7l-6 12-4-2-1-4-1 3-2-3 2-1 1-2 3 1 2-11-9-18-8-2-2 1-4-8-6-3-1 2-8-13 2-1-6-11 4-2 6-10 2-1zm-209 6l3 1-13 5v-1l10-5zm-168 2l5 12-3-2-2-10zm425 22v7l-6 9 4 7-7 6-3-11 10-17 2-1zm-183 1l3 11h-3l-4-1-2-4 3-1 3-5zm66 0l15 9-12 18 10 8 9-6 9 6 3-6 3 2 6 10 2 2 4 10 2 2v5l-5-1-1 3 7 5 10 32-11 18 6 3-5 7-1-2h-2l2-3-3-3-6 5-2-2 4-7-3-1-2 1v-2l-6 1v1l-5-2-1 4 2 2-8 1 3 9 3-1 1-3 4-2-2-3 3 2 1 3 10 5h1l1 1h5l1-2 5 3-8 17-4 1 3 4h1l-8 3-10 15-10-5-9 6-2 5-3-11-4 3q2 13-5 19l3 1h3l-3 6h-2l-2-11 5-8q-7-7-5-22l10-17 14-7-2-6h-5l1-3-6-5v-4h-2l1-2-2-4h-3l2-4 10-2 2 4 5 2 4-3 3-19 9-5 2-9 3-1 1-2-4-3h-30l-1 4 2 2h-16l2-5-6-1-8 6 2-3v-3h-6l-23 12-2-1 13-13-5-7 17-12-17-18 19-19 19-7zm-17 11l-4 6 1 9 5 3h6q1-15-8-18zm9 18l-7 10 10 7 2-1 1 2 2-1 3-4-1-1v-1l-2-5-8-6zm165-24l2 1-3 5h-3l4-6zm12 0l1 1-2 5h-3l4-6zm-394 2v4l-5 10-2-3 7-11zm-77 6l5 12-4-3-1-9zm113 2v2l-5 8-1-1 6-9zm271 3l6 13-1 3-5-10-1 3-2-3 2-1 1-5zm69 11l2 1 10 17 2 2q-2 12 4 16l2 2-1 34h-5v-18l-6-11q4-18-3-24l-9-4 1-8 3 5h2l-5-9 3-3zm-213 16l10 14h-1l-5-2-4-12zm162 15l3 5 6-5 8 13h-4l-1 3-3-10-2 1-2 11 4 4 2 1 1-5 13 17-2 1q1 10-5 13l-1-2-6 1v1l-6-2q3-25-8-35l2-1-3-5 3-1 1-5zm-149 6l4 3-1 2-3-1v-4zm-164 1v5l-5 7-1-1 6-11zm337 12l5 12-4-3-1-9zm-373 2v2l-5 10-1-4 6-8zm-30 4v5l-5 7-1-1 6-11zm-24 14v2l-5 10-1-3 6-9zm414 12l1 2 1 1-8 7 6-10zm-105 2l-2 3 6 7-7-6 3-4zm28 3l3 2 2-1-3 2-2-3zm138 3l5 3-1 15-10-8 3-4h2l1-6zm-52 1l3 3v8l-6 3q7 3 6 16l-6 12 5 9-2 1q-4-6-15-5l-11 6-1-4 9-7 3-7-3-6h-3v-12l-5 3 3-4 2-4 1 4 3-5 2 1 3 5 6-5 6-12zm10 18q7 5 5 19l-4-3-1-16zm42 11l5 2-1 4h-5l1-6zm-37 10v11l-5 8-1-11 6-8zm27 3l3 3v2l-4-1-1-2 2-2zm-236 5l5 2 9 10 3 3v5l-17-20zm95 6l5 3v1l-5 2-3-1 2-1v-2h-2l3-2zm151 0l5 2-1 4h-5l1-6zm-155 2v2h-1l1-2zm-211 6l5 12-3-2-2-10zm317 2v11l-6 3-5-3-1-3 4-5 8-3zm-179 5l3 2 2-1-3 2-2-3zm231 3l1 1-4 9-4 2h-3l10-12zm-166 6l2 1-2 5 5 1q-5 7-19 5v-1l2-4 1 2 11-9zm54 10v2l-5 10-2-2 7-10zm-84 20v3l-5 3v1l-3-1 8-6zm-29 6l4 3-1 2-4-2 1-3zm105 0l2 1-3 5h-3l4-6zm-63 30l3 1-13 5v-1l10-5zm-29 18l6 1-2 5h-6l2-6zm-74 18v3l-3 2-2-2 5-3zm60 0l11 4 1 9-8 10-8-6-2-12 2-1 2 2h2l-1-4h-2l3-2zm-157 18l7 1-3 5-4-2v-4zm182 47l-1 4-4 2v-3l5-3zm-104 24l11 7h-3l-9-5 1-2zm105 0v2l-11 5v-1l11-6z" fill="#1a212c" stroke="#1a212c"/><path d="M187 108l3 1-11 5 2-3 6-3zm386 0l11 6-2 1v-2l-9-5zm33 74v4l-5 10-1-3 6-11zm-225 28l3 3 1 1 3 2h-13v-1l3-1 3-4zm-206 32l5 14h-1l-4-14zm298 4l11 6h-3l-8-6zm-245 26v4l-5 10-1-3 6-11zm-72 90v4l-5 10-1-3 6-11zm390 54v4l-5 10-1-3 6-11zm-377 9l3 3 2 6-4-3-1-6zm341 47v3l-5 7-1-1 6-9zm-330 24l2 8-2 1 2 5 4 3 1-2 5 10 1-3 1 4-1 2-18-14-1 12h-3l-5-11 2-1 1-12 11-2zm247 26l3 1-11 5 2-3 6-3zm149 0l6 1 1 5 1 1-1 3-1-3-3 5h-3v-6h-8l-12 12 10-13 10-5zm-24 22v5l-17 9-1-2 6-5 1 1 11-8zm-116 74l2 1-3 5h-3l4-6zm24 0l5 1-2 4-1-2-4 3-1-1 3-5zm-10 12v3l-10 3v-1l10-5zm-95 4l6 3-2 5-5-1-1-3-4-1 5-1 1-2zm16 7l11 7-4 1v3l-2-3 2-1-8-5 1-2zm-34 1l7 6h-1l-7-3 1-3zm12 0l3 2 2 3 1-4 2 5-3 1 2 5h-1l-7-3 1-9z" fill="#8a713e" stroke="#8a713e"/><path d="M178 114l4 1-15 11 11-12zm-16 16v5l-7 3 7-8zm432 88v4l-5 10-1-3 6-11zm-323 4l3 1-11 5 2-3 6-3zm132 98l6 8 3 2h-6l-3-1v-9zm-76 4l8 2 1 6-6-6-3-2zm-117 14v4l-5 10-1-3 6-11zm1 54l5 14h-1l-4-14zm383 42v4l-5 10-1-3 6-11zm-257 4l1 1-11 5v-1l10-5zm-150 68l5 15h-1l-4-10-1 2-2-3h2l1-4zm-12 4l18 15 13 15-2 1v5l-6 1 6 11h-2q-15-9-21-27l-2 1-7-9 2-1 1-12zm393 18l4 1-2 5h4l2-1 1 1 3-1-2 3-11 16h-3v-12h-8l12-12zm-12 18l2 1-9 11h-3l6-9 4-3zm-327 10l3 2-3 1 5 3v8h-9l-3-7 3 1h3l-2-6h2l1-2zm329 2v3q-2 5-10 3v-1l10-5zm-12 6v3l-5 3v-1l3-4 2-1zm-299 4l4 7-1-1-6-3 2-1 1-2zm269 0l1 2 1 1-6 4v-1l4-6zm-5 8l1 1-2 1 1-2zm-261 12l8 3v3l-5-3-1 2-2-5zm229 4l1 1 1 1 1 1-7 4-1-1 3-5 2-1zm-30 18l1 1 1 1 1 1-12 5v-1l9-4-3-1 3-2zm30 3l1 1v1l-9 3v-1l8-4zm-13 5l2 1v2l-4 2-1-1 3-4zm-4 3v3h-2l2-3zm-131 1l3 2 3 4 3 2 3 4 5 2h1l1 1 4 3v2l-6 1v7l-4-1-3-5-4-1 2-1-10-12h1l-2-6h2l1-2zm88 6l1 1 1 1 3 1-4 2 1 3 5 1v8l-9 3v-1l3-1v-4h-6l-1-6 2-6 4-2zm-100 2l5 3 6 6 5 3h-4l-11-5-2-4 1-3zm118 7l1 1v1l-7 3 2-3 4-2zm-76 6l5 17h-2l-8-5-2-6 6-1 1-5zm34 3l2 2h-4v-1l2-1zm13 2l6 1-3 5 1 1-23 11 1-2 1-13 5-2 1 5 11-6z" fill="#7d683b" stroke="#7d683b"/><path d="M581 114l9 6h-1l-8-6zm-433 30l1 1-4 8-1-2 4-7zm3 0l1 1-2 1 1-2zm455 122v4l-5 10-1-3 6-11zM169 409l5 12-1-1-4 1v-12zm365 31v4l-5 8-1-1 6-11zm-147 93l1 1h-1v-1zm-170 19l5 4q-2 16 9 20h3l-2-5 2-1 1-5 12 21 3 2-4 1v1l-4-1 4-1-10-5-3-5-4-2-1 2-10-7-2-5-4-1 4-1-3-5 3-1 1-6zm310 10l1 1-6 13h3l6-5-8 10-1-4-3 4-2 1v2l-1-4 4-10 2-1 3-4v-2l2-1zm-23 18v3l-3 4-6 1v-1l9-7zm-221 12l6 3-1 4 1 1-9-5 2-1 1-2zm202 0l1 1-1 5-4 2v2l-1-2h-4l7-5v-2l2-1zm-19 20l2 1-3 5h-5l6-6zm-153 6l3 2 2 4h-2l-3-6zm122 6l-3 4 1 8 6-4-3 4v1l-7 5 1 1-3 1-1-8h-6l1-3 14-9zm-92 4l5 3v4l-8-4 2-1 1-2zm68 8l3 1-3 5-6 1-1-2 7-5zm7 6l2 1v2l-5 3 3 1-3 1-1-2h-3l3-5 1 4 3-5zm-33 5l4 1h2l3 1-9 5-2-5 2-2z" fill="#6d5a37" stroke="#6d5a37"/><path d="M588 119l27 26 3 7-32-31 2-2zM378 256v2l-5 10-1-4 6-8zm109 0l5 10-3-2-2-8zm-330 4l5 15h-1l-4-15zm449 11v6l-4 10q7 6 4 23h-1q-8-9-5-28l6-11zm-95 19l5 14h-1l-6-11 2-3zm-145 8v2l-5 10-1-3 6-9zm181 0l5 12h-1l-4-12zm6 24l5 12h-1l-4-12zm-127 2l5 1-12 5 3-4 4-2zm157 2l5 15h-1l-4-15zm-96 4l3 1-11 5 2-3 6-3zm36 2l5 15h-1l-4-15zm84 17l5 15h-1l-4-15zm-451 6v5l-5 10-1-4 6-11zm433 25l5 15h-1l-4-15zm-67 14v2l-5 10-1-4 6-8zm-348 3v16h-1l-2-5-3-1 6-10zm420 30v5l-5 10-1-4 6-11zm-287 29l5 4v2l-6-2 1-4zm155 18l2 1-9 6-1-1 8-6zm126 8v4l-5 10-1-3 6-11zm-89 4l3 1-13 5v-1l10-5zm-36 24l1 1-11 5v-1l10-5zm-95 18q12-2 16 4l1 2h-7l-10-6zm-187 4l5 10-3-2-2-8zm349 25l2 2-9 5v2l-1-2h-4l12-7zm-293 7l7 6 2 4 4 8h2l-3-5 4-2 6 2-1 4 6 5 2 2 4-1 7 2-1 4 18 11 2 2 4-1 7 2-1 4 6 4-2 3-4 1 1 3 11 4h1l2 4-3 1 2 6-2-2-28-16-9-11-4-2-1 3 2 4-3-5-4-1 4-1-5-3-7-13q-15 0-21-9l-7-15 2-2zm316 0l1 1-9 6-1-1 9-6zm-320 18l12 6-3 1-9-7zm26 9l5 11h-2l-12-7 8-1 1-3zm251 0l2 3 2 1-11 6 1-4 5-2-2-1 3-3zm-34 2v2l-7 5 2 1-3 2v-3h-2l10-7zm16 13l2 1-9 6-4-1 11-6zm-163 12l11 6-2 1h-2v1l-1-2h1l-7-6zm-4 6l5 4v2l-6-1 1-5zm122 0l3 1-1 3-7 2 5-6zm15 0l4 1-11 6-4-1 11-6zm-75 18l7 1-4 2-2 3-4-2 3-4zm33 6l4 1-11 6-1-1 8-6z" fill="#564b32" stroke="#564b32"/><path d="M166 126l4 1-8 7 4-8zm-21 80l5 14h-1l-4-14zm467 24v4l-5 10-1-3 6-11zm-107 48l5 14h-1l-4-14zm-325 54v4l-5 10-1-3 6-11zm-9 88l3 3v7l-2-4-4-2 3-4zm64 26l5 12-3-2-2-10zm377 12v4l-5 10-1-3 6-11zm-301 22l11 6h-3l-8-6zm22 42l13 6h-3l-10-6zm240 6l3 1-2 5h-4l3-6zm9 2l1 3-6 9-1-2 6-10zm-377 10l15 12-4 1v5l-11-6-1 3 3 3-2 1 8 5h-2l-9-5 2-1-6-11 6-1 1-6zm351 0l5 1-2 4-1-4-5 8-1-2 4-7zm2 7l1 5 5-3 1 3 1 1-8 7v-2l-11 6 3 1-3 1-1-2-5 4-1 2 4 1-14 11-1-1 5-10-3-1-8 6v-1l6-14 5-2-4-1 4-2 1 2 14-6-3 4 1 2 9-7 2-4zm-335 9l3 2 2 6h-3l-2-8zm296 14l-3 4-3 8h-3l2-5v-2l7-5zm1 12l2 1-3 5 1 1-9 4-1-1 6-8 4-2zm-273 6l3 2 2 3 1-2 2 3-9-3 1-3zm237 12l2 1-2 5 1 1-4 2-1-5 4-4zm-39 12l4 1-10 5v2l-1-2h-4l11-6zm-138 6l6 2 2 4h-2l-7-3 1-3zm124 4l1 1 1 1 1 1-9 6 1-2 1-5 4-2zm-108 8h5l11 12-3 1v1l-4-1 3-1-11-8-1-4zm122 0l3 1-10 5 4 1-3 1q-5-2 0-5l6-3zm-44 10l1 1-5 10-2-2 2-1 2-5v-2l2-1zm-34 6l3 2-3 1 5 3v8l-6-2-4-10h2 2l1-2zm23 5v13l-2 3-7 3-3-1-1-15 2-1 4 1 3-1 4-2z" fill="#73633a" stroke="#73633a"/><path d="M650 134l2 1-1 3h-3l2-4zm-202 22l2 1-2 4-3-1 3-4zm-40 4l1 2 1 1-2 3v4l-6-7 6-3zm13 6l10 5v1l-10 5-1-3h-2l2-3-1-3h1l1-2zm-25 2v6h-2l-2-3 4-3zm54 6v3l-6 5v4h-3l-3-8h2l3 1 7-5zm174 20v4l-5 10-1-3 6-11zm-275 22l1 1-11 5v-1l10-5zm182 13l1 1-1 4h-3l3-5zm-146 27l5 7 2 1-2 1v3l-5-12zm156 12l8 3-2 3 6 4 2 4h-6l-4-1-4-13zm-81 26l2 1-3 4-2 1-1-2 4-4zm93 7l3 5 2 2-2 4-3 2-2-9 2-4zm-48 11l5 2v6l-5-8zm62 7l3 3v14l-5-3-1-9 3-5zm-44 19l5 12-3-2-2-10zm48 22l5 1-3 5h-3l1-6zm-43 4v2l-5 10-1-3 6-9zm-62 2l2 1 2 5-2 1v1l-5-5 3-3zm27 0l5 1-2 4-4-2 1-3zm-21 6l2 4-2 1v-1h1l-1-4zm12 0l7 3-1 2h-2l-1-4-1 5-5 1 4 2v1l-4-1-1-5h2l3 1v-1l-1-4zm24 6l2 1v5h-6l4-6zm2 22v2l-3 5-3-4 6-3zm-77 6l5 12h-1l-4-12zm-72 14l3 1-11 5 2-3 6-3zm104 0l3 3q2 14-5 19l-3 1-3-1 8-22zm0 1l-2 3 3 1 1-2-2-2zm12 7l2 1v1h-3l1-2zm-76 4l7 3-2 8-4-2-1-9zm77 18l2 1v2l-8 3 2-3 1 2 3-5zm-327 8l5 12-3-2-2-10zm144 8l1 2-2 1 8 5h-1l-9-5 2-1 1-2zm139 19v2l-2 1 2-3zm172 9v4l-5 10-1-3 6-11zm-201 60l3 2v2l-4-1 1-3zm-135 28l6 1-3 5h-3v-6z" fill="#25282f" stroke="#25282f"/><path d="M154 138l4 1-9 5 5-6zm-21 38l5 14h-1l-4-14zm266 4l13 6h-3l-10-6zm129 188v4l-5 10-1-3 6-11zm-354 24v4l-3 6-2 1v-1l5-10zm342 74v2l-5 8-1-1 6-9zm-359 24l5 12h-1l-4-12zm224 38l13 1-5 3v1h-4l-1-3-3-2zm181 12l2 1q2 9-3 11h-3v-6h-3l3-5 1 4 3-5zm-357 12l11 10v2l-11-5 2-1-2-6zm24 24l7 6h-4l-3-6zm290 6l-2 3-1-2 3-1zm-33 22v5l-6 3 4 1-3 1-1-2h-2l2-4h2l3-1 1-3zm-79 30l1 1 1 1 1 1-7 5 1 3-2 3 5 1-10 5-1-2 7-16 4-2zm-34 12l3 2-1 2q5 5 3 18h-1l-13-7 2-1 1-2 5 2v-8l-5-3 5-1 1-2z" fill="#735d38" stroke="#735d38"/><path d="M637 142l5 10-4-3-1-7zm-159 80l8 4v2h-8l1-2-1-4zM217 384l5 3-2 3-4-2 1-4zm-6 4l13 14-2 1v1l-7-4-4-12zm18 18l3 6h-2l-3-4h1l1-2zm8 14l3 3v3l-6-3 3-3zm-8 7l5 16h-1l-4-16zm18 29l5 4v2l-6-3 1-3zm24 24l5 4 3 8h-5l-5-6h1l1-6zm15 12q14-3 20 4l2 2h20l2 3 2 9 9 6-5 1v1l-7-8-5 1v1l-22-14h-10l-6-6zm133 4l1 1 1 1 4 1-15 5v-1l9-4-3-1 3-2zm14 0l5 3-2 5-8-5 4-1 1-2zm-61 8l8 6-2 1-5 7-1-8-6 3v6l-5-2 4-1-4-2 2-3-2-1 11-6zm-24 6l6 4 1 2h-1l-9-4 3-2z" fill="#e5c45a" stroke="#e5c45a"/><path d="M619 148l5 5-2 3-2 1-1 3v-12zm-1 58v4l-5 10-1-3 6-11zm-234 4l10 6h-3l-7-3v-3zm33 6l13 6h-3l-10-6zm-266 10l5 12h-1l-4-12zm455 36v2l-5 10-1-3 6-9zm-215 16l5 14h-1l-4-14zm162 48l5 12-3-2-2-10zm54 30l5 12-3-2-2-10zm-18 14l5 13h-1l-4-13zm-438 77l5 13h-1l-4-13zm23 24v11l-2-2-10-2 1-4 11-3zm336 0l1 2-4 1 3-3zm-353 13l5 3v5l-6-3 1-5zm435 2l8 4 1 2 5-3-4 5-1 3-1-2-15 4 1-2 2-4-2-1 2-4 1 3 3-5zm-417 6l4 3-2 3h-5l3-6zm305 6l2 1-21 12-1-1 20-12zm120 1v5l-3 6h-3l6-11zm-20 5l2 1-5 10-1-4 4-7zm-169 13l3 3 1 2 9 1q-6 8-23 5l10-11zm55 83l2 1-2 5h-4l4-6zm-71 43l1 1v1l-5 2-1-1 5-3z" fill="#ac8b45" stroke="#ac8b45"/><path d="M643 148l5 5-2 3-2 1-1 3-2-2 2-10zm-231 8l1 1-2 5h-3l4-6zm10 0l4 4v1l-4-1v-4zm-12 13l10 6v2l-3 1-6-4-1-5zm-49 11l3 1-11 5 2-3 6-3zm-66 23l3 2-13 5v-1l9-4 1-2zm36 19l1 1-11 5v-1l10-5zm-79 15l1 2-4 1 3-3zm336 7v2l-5 10-1-3 6-9zm-111 8l9 4v1l-9-5zm8 6l2 1-1 3-1-4zm64 14l1 1 2 5-5-4 2-2zm57 5v16h-1l-3-9 4-7zm-59 3l8 3 3 11-3 5-8-19zm-325 4v4l-5 10-1-3 6-11zm-60 20v3l-5 10-1-4 6-9zm54 0v2l-5 10-1-3 6-9zm223 14l5 1-3 5h-13l11-6zm-234 49l5 13-3-2-2-11zm264 5l4 3v1l-5-1 1-3zm12 0l3 2 1 3h-1l-4-2 1-3zm6 1l2 5-3 1v2l-5-2 5-1 1-5zm-66 4v2h-1l1-2zm137 3v4l-5 8-1-1 6-11zm31 5l5 13-3-2-2-11zm-37 19v4l-5 10-1-3 6-11zm-87 17l2 2-1 2-3-1 2-3zm129 3v3l-5 10-1-4 6-9zm-122 26l5 1-2 4-1-2-5 3-1-2 4-4zm59 0l-2 3-1-2 3-1zm-77 6l1 1-2 5h-3l4-6zm158 7v5l-5 8-1-2 6-11zm-175 21l1 1 1 1 3 1-4 2-2 3-4-2 3-5 2-1zm-16 8l3 1-11 5 2-3 6-3zm179 14v4l-5 8-1-1 6-11zm-24 2l1 1-6 9-1-1 6-9zm12 18v2l-5 10-1-3 6-9zm-223 2l12 6h-4l-8-6zm31 0l4 1-10 5v-1l2-3 4-2zm-187 36l9 6h-1l-8-6zm43 10l2 2-1-1-1-1zm17 32l9 6h-1l-8-6zm72 41l11 7h-3l-11-5 3-2z" fill="#2e3034" stroke="#2e3034"/><path d="M121 154l5 10-3-2-2-8zm18 34l5 14h-1l-4-14zm461 12v4l-5 8-1-1 6-11zm-221 10l-1 2v1l-9 3v-1l10-5zm-210 8l5 12-3-2-2-10zm-12 38l5 12h-1l-4-12zm336 6l5 10-3-2-2-8zm-133 58v4l-3 6h-7l8-6 2-4zm91 34l3 1-13 5v-1l10-5zm-295 14v4l-5 8-1-1 6-11zm18 14v5l-5 7-1-3 6-9zm378 18v2l-5 10-1-3 6-9zm-383 34l5 13-3-2-2-11zm-18 7l10 7 5 7 2-1 1 2 5-2v17q-2 5-12 4l2 5h-4l-4-3v-21q-8-4-5-15zm461 7v5l-5 7-1-4 6-8zm-6 15v6l-6 11h3l3-2q3 11-3 14h-3l-1-4-7-2-3 5-1-18 3 1h3l3-6 7-1 2-4zm-102 14l1 2-3 1 1 1 1-4zm-21 4l2 2-3 2-1-1 2-3zm10 4l3 2-8 4v-1l2-4 3-1zm-6 7l3 1-3 1v-2zm99 0l2 1-5 9-1-3 4-7zm-132 12l2 1-3 5h-3l4-6zm-31 7l1 1 2 7-8 3 2-3 3-8zm-23 6l1 1-4 7-9 3 4-7 8-4zm-41 6l11 5h-17l2-3 4-2zm161 41l2 1-2 5h-4l4-6zm-259 12l1 1h-1v-1zm-2 2v2h-1l1-2zm61 35l8 5-4 1v1l-4-7zm105 12l1 3-5 2-1-2 5-3zm-58 15l3 2 2 4v1l-10-4 4-1 1-2z" fill="#b99348" stroke="#b99348"/><path d="M636 164v4l-11 22-1-3 12-23zm-317 28l3 1-13 5v-1l10-5zM162 314v4l-5 8-1-1 6-11zm159 10l11 6h-1l-10-6zm148 18l1 1-9 5 2-3 6-3zm-259 2v26h-1l-5-15 6-11zm348 30v4l-5 10-1-3 6-11zm-384 14v2l-5 10-1-4 6-8zm79 28l5 14h-1l-4-14zm186 6l5 14h-1l-4-14zm-270 6l5 12-4-3-1-9zm371 0v4l-5 10-1-3 6-11zm54 12v4l-5 8-1-1 6-11zm18 14v2l-5 10-1-4 6-8zm-96 11l1 2-4 1 3-3zm-359 13l18 5 5 13-3 2 2-3-4-3-3 6-4 1v1l-7-4-1-3 2-1v-6l-6-2 1-6zm164 8l13 6h-3l-10-6zm279 9l1 3-6 11-1-2-5 3-1-6-6 2v-2h-2l2-4 1 3 3-5 14-3zm-23 20l-1 2-1 3-4 2-1-2 7-5zm-262 1l11 6h-1l-10-6zm247 12l2 1-11 15-7 5-5 2-1-1 22-22zm-339 22l5 7h-1l-7-4 2-1 1-2zm280 27l-5 8-5 2-1-1 11-9zm-18 12l1 2-5 2-1-1 5-3zm-194 5l2 2 3 4-2 1v1l-6-4 3-4zm164 13l1 2-5 2-1-1 5-3zm-54 30l1 2-6 3 2 1-1 3-1-4h-4l9-5z" fill="#9c7f42" stroke="#9c7f42"/><path d="M367 180l1 1-11 5v-1l10-5zm132 52l5 8-1-1-5-2 1-5zm-243 2l1 1-4 7-1-1 4-7zm3 0l3 1-3 1v-2zm183 90l4 1-12 5v-1l8-5zm-219 93q7 5 5 19h-1l-6-17 2-2zm67 81q15-2 21 6h-11l-10-6z" fill="#d3b757" stroke="#d3b757"/><path d="M376 180l10 1q-3 6-13 5l-1-2 4-4zm15 132q9-2 11 4v3l-4-1h-2l-6-3 1-3zm-112 12l8 6-2 1 3 5h-2l-8-5 1-7zm28 25l9 5h-3l-7-3 1-2zm18 11l7 6h-1l-7-3 1-3zm112 1l1 1v1l-9 3v-1l8-4zm-62 6l3 3v2l-10 4-1-1 8-8zm-35 17l2 1-5 7-1-1 4-7zm79 0l4 1 3 7-4-3-1-4-2-1zm-8 8l21 14v6l-2-4-4 1q2 12-3 17l-3 1 1 3 3 2h-6l-14-11-2-5-4-1-2-4 1-3q12 3 16-3l1-3-3-10zm-77 10l5 1-2 4-1-2-6 5 4-8zm30 6l2 1-1 3-6 2 5-6zm69 6l2 1 3 15h-1l-4-9h-3l2-1 1-6zm-80 7l1 1-3 4h-3l1-3 4-2zm74 11l3 2 1 3-1-1-4-1 1-3zm9 0l5 1 3 9h-1l-4-9-1 4-2-5zm-3 4l1 2h-2l1-2zm-100 56l9 4v1l-9-5zm37 6l3 1-1 2-6 3v-1l4-5z" fill="#fffd9e" stroke="#fffd9e"/><path d="M387 180l8 6h-15v-1l7-5zm-47 6l4 1-7 5-1-2 4-4zm-82 58v5l-5 3v2l-1-2h-2l8-8zm18 8v9l-5 3-1-6 4-5 2-1zm109 18l5 4v3l-6-1 1-6zm6 18l2 1 3 16h-1l-4-17zm-139 1v5l-3 6h-3l6-11zm118 5l2 1-5 10-1-7 4-4zm9 24l4 3-1 2-4-2 1-3zm19 0l4 2v9l-6-9 2-2zm-44 12l2 1-7 5-1-2 6-4zm-65 4l1 3 6 5h-1l-9-5 2-1 1-2zm171 8l2 1-3 5 1 1-14 5v-1l14-11zm-141 12q19 6 29 22l1 2 4 3v1l-11 5 1 3 15 12q4-9 20-6v9q-2 11-16 9v-1l4-2v-3l-24 12-6-3v-9l-5 3 5-6 1 2 5-10-6-1 6-11-2-1 2-11-10-6-3-5-4-2-1 2-5-8zm125 0v3l-6 3 4 1-3 1q-6-3 1-6l4-2zm-204 10v7l-4 1-2-4 6-4zm132 2l6 3-2-2-9 8 1 1 3-1v3l-10-2 7-8 4-2zm7 4l15 14 6-5 6 5 13-11v2l-2 3-3 2 3 4 3 2h1l5 10-1-1-14-11q-11 4-9 22l2 2-8 1 3 5h-5l-10-11 6-1-9-24-6 5-2-2 4-7-2-1-3 2 6-3 1-2zm30 21l5 12-3 4-4 1 1-2 1-15zm18 27l5 4h1l3 5-1-1h-12l4-8zm-99 2l2 1v5l-4 2-1 3-1-7 4-4zm20 1l1 5 1 1q-2 7-12 5v-1l9-4-2-1 3-5zm-26 11l2 1-5 10-1-4 4-7zm108 0l6 2 2 3 1-4 3 6-1-1-8-2-1 2-2-6zm-67 66l6 1-3 4 1 1h-2l-5-2 3-4z" fill="#fffb95" stroke="#fffb95"/><path d="M390 180l6 4v2l-6-3v-3zm-44 6l4 1-2 5h-11l9-6zm-33 12l3 1-9 5v2l-1-4 7-4zm49 2l4 2 1 2 2 1-3 5h3l3-2-2 3-12 5 2-3v-3h-2l4-10zm-61 4l3 1-9 4-1-1 7-4zm36 0q15-3 19 6-12-2-16 6v1l-27 13q-7-4 2-7l7-12 3-1 5 4 1 2 3-1 3-11zm54 0l3 2 1 3h-1l-4-2 1-3zm12 0l9 6 2 3 5 3h-13q-6-2-3-12zm-6 1l2 5h-2v-5zm-117 11l2 1-3 5h-3l4-6zm29 1l2 2-8 9h-3l1-6h4l4-5zm-18 11l3 3 1 3 5 1-11 13-1-2-11 9-1-3-5 4-13 20 2 1-1 3-1-3-6 11 2 1-1 3-1-3-6 11 2 1-2 14-3 3h-3v-6l-4-1-2-7q8-4 6-16l-3-6-3 2v-2h-2l2-5-2-1-4 3 6-8-2-1 2-4 1 3 5-10h2v-2l7-5-3 4 3 8 3-2 1-7 3 2 2-1 1 2 4-3 9-13 16-10 1 2 4-2-1-3-3 2 2-3zm90 18l1 1h-1v-1zm0 13l1 1 8 13-3-3-3 1 1 5 2 1-3 5-13 6-1-1 8-22-2-1 2-4 1 3 2-4zm4 29l5 3 8 21h-5l-6-5-6 5-6-5-10 5-1-2 6-5 6-11 8-3 1-3zm-13 30l6 3 3 3 3-2 1-4 11 1 2 5 2 2 8 13-5 3h-25l-12-8v-4l-14 12-3-4 9-8 2-4 12-8zm111 6l8 2v3l-28 15-1-2h-3l3-5-2-1-9 6-1-9 3-3h22l8-6zm-243 1v9l-6 8-2 12-4-12 12-17zm31 1v2h-1l1-2zm16 4l7 2 6 12h-1l-3-1-1-4-6-2 2-1-4-6zm27 0q12-2 16 6v-2l-5-3 8-1 4 6 5-2v3l-3 5-3 1-6 14 3 3-14-5-2-5-11-5 4-8 8-1-1-4-3-2zm11 18l-1 4 4 2 2-5-5-1zm110-18l8 1-10 5-1-3 3-3zm-89 12l26 19-2 5 1 1-11 8v3l-5-3-1-9-12-18 4-6zm77 0l9 9 1 3 5 1-3 5 1 1-10 5 4 1-3 1-1-2-11 6-7-9 15-21zm-183 9v12l-3-3-3-1 2-5 4-3zm-8 9q5 3 2 17h-1l-5-11 4-6zm143 13l2 2-2 3h-3l3-5zm-135 2v13h-1l-1-4-4-1 2-5 4-3zm109 15l4 4 1 2h-2l-3-6zm-13 2l1 4 5 1-3 5-7 1-1 3-1-3 6-11zm91 0l5 12-2-2-10-3 1-3h5l1-4zm-186 4l5 4v7l-4-1-1-10zm93 12l2 1-2 5h-6l2-4 4-2zm-90 6l5 1 3 9h-1l-4-9-1 4-2-5zm110 0l3 1-2 4-1-2-5 3-1-2 6-4zm-21 8l3 2 1 2 5 1-1 3-4 2 3 1-3 1-1-2h-6l-3-5 4-2 2-3zm-79 4l1 1 3 5 1-4 1 4-2 1 6 7 1 1 7 9-2 2-7-4-9-22zm182 12l5 1 3 10h-1l-4-10-1 2-2-3zm-115 6l7 1-14 10-1-2 5-8 3-1zm-32 22l5 7h-1l-7-4 2-1 1-2zm8 8l13 6 2 4v1l-15-11zm18 12l9 4v1l-9-5zm12 6l13 6h-3l-10-6zm27 6l7 1-1 4 1 1h-7v-6zm24 0l15 1-9 5-6-3v-3z" fill="#fff487" stroke="#fff487"/><path d="M395 180l11 6h-4l-7-6zm-84 144l17 6h-10l-7-6z" fill="#d9ca9a" stroke="#d9ca9a"/><path d="M351 186l14 1-11 8 3 3 8 1-5 3-2 8q-5-7-18-6l7-10v-2h1l3-6zm72 1l3 3v2h-6l3-5zm-88 3l1 1 1 1 4 1-5 3 2 8-2 1-3 11h-3l-1-4-5-2-5 4-9 14 1 1-10 5 3 1-3 1-1-2h-6l-2-6-4 3-5 6-17 11-5 9-2 1-1-12 13-21 5-2-4-1 4-2 1 2 1 1-2 5h7l17-12 2 4 2 1 4-16v-2l5-3-1 2 3 8 6-11-2-1 16-8zm-26 27l-4 5h-4l-1 6h3l8-9-2-2zm59-23l17 4 7 6-2 1 2 3 3 1v-1l-2-3 3-1 4-6 2 1 2 5-2 1 3 11-4-4-4-1 2-1-2-5-1 5h-26l2-5-2-1 1-2-3-8zm55 12l1 1 2 6-1-1-4-1 2-1v-4zm-10 3l12 7h-5l-9-5 2-2zm-124 1l4 1-10 5v2l-1-2h-2l9-6zm205 12l10 10v2l-9-6-1-6zm-244 30l2 1-2 11-4-2 4-10zm-10 4v3l-5 10-1-4 6-9zm145 4l5 12-4-3-1-9zm-153 16l2 1-2 5-4 3 1 3 5 4v2l-5 2-1-2h-6l6-16 4-2zm5 6l3 11h-1l-5-8 3-3zm1 17l-4 5 4 8 2 1 1 5 1 1-14 23v7l4 5 2 1v5l-4 2-2 5 7 17h-1l-5-3-6-12-13-6 6-14-3-1-3 2 6-20-5-9 5-3 3 6 3-5 2-17 14-3zm87 49l5 1-2 5-4-2 1-4zm-84 64l5 7 1-4 3 6-1-1-9-2 1-6zm178 20l11 6h-3l-8-6zm-101 8v5l-5 8-1-2 6-11zm127 6l4 9-1-1-6-3 2-1 1-4zm-180 1l6 5 7 10h-2l-10-7-3-6 2-2zm110 51l3 2 2 2 3 2h-14v-1l3-1 3-4zm26 0l7 3-2 3-4-2-1-4z" fill="#ffef7e" stroke="#ffef7e"/><path d="M399 186l15 2-1 2-5 2-9-6zm26 0l7 4v1l-7-5zm-16 18l7 1-2 4 1 1-7-3 1-3zm18 10l1 3 9 5h-4l-11-5 4-1 1-2zm-84 2l3 1-11 5 2-3 6-3zm94 0l5 2 2 3 1-4 2 5h-3l-7-6zM211 367l5 11h-3l-2-11zm24 23l3 2 2 3 1-3 1 4-2 1v2l-5-9zm-6 1l5 10 1-2 2 3-10-1-2-4 3-1 1-5zm0 23l7 1-2 9 2 3h-2v1l-5-14zm17 19l1 5 9 2 2 4h-2l-6-5-4 3 8 8-12-5v-2l4-10z" fill="#ffde73" stroke="#ffde73"/><path d="M414 186l12 3-2-2-4 3 1 2 1 1-5 11-9 1v1l-6-4v-4l-6 4v2l-28-10-1 2 2 2-3 1v2l-3-1 2-1-7-1q6-10 26-6l1 4 12 2 5-3-1-3h1l1-3 4 3-2 1 6 10h1l2-10-5-1 5-3v-3zm-54 3l-5 6 2 3-3-2 6-7zm-14 3l1 3-7 9-4-2 10-10zm-29 4l1 1 1 1 2 1-6 11-3-8 5-3-3-1 3-2zm136 2l9 4v1l-9-5zm-148 4l1 1q4 14-2 18l-4-2v-3q-8 10-23 12l-1-3 6-5 2-3v-2l9-4-3-1 4-2 1 2 10-5-3-1 3-2zm88 8l11 6h-4l-7-6zm82 0l5 4v2l-6-3 1-3zm-206 16l1 1-5 10-2-3h-3l7-5v-2l2-1zm-38 56l3 1 6 12-3 5q-11-2-15 4 3 14-3 20l-3-6h-2l2-14 4-4 8-2 3-4h3l-3-6h-3l3-6zm-20 39q6 4 5 16l-5 8v-24zm237 3l4 1-11 5v-1l7-5zm44 2v2h-1l1-2zm-279 22l3 1-5 8-1-6 3-3zm-2 15l14 9 7 11 6 3 2 9h-1l-2-5-3 1 10 16 1 1-2 1 3 4 1-4 3 6-1-1-9-2-5-13-1 2-8-16-9-1-1 5-6-12 3 1h3l-5-15zm35 57l4 2 2 3 1-3 1 4-2 1 12 25-8-7 2-1-3-6h-9v-18zm182 72l3 2 1 4h-10v-1l4-2 2-3zm-92 6l11 6h-5l-6-3v-3z" fill="#ffe579" stroke="#ffe579"/><path d="M325 192l3 1-9 4-1-1 7-4zm45 12l2 1-3 5h-3l4-6zm-22 6l12 1-3 5h-17l8-6zm-57 19l2 2-2 3h-3l3-5zm20 0l1 1v1l-9 3v-1l8-4zm-48 6l1 1-5 8-18 14v2l-1-4 6-8 4-2 2-4 4-2 2-4 2 1 3-2zm25 11v3l-12 11 8-12 4-2zm92 1l3 1 1 15h-1l-1-4-2 1-1 3-1-13 2-3zm-122 2v6l-3 2-1-6 4-2zm12 10l1 5 1 1-7 9-4 2h-3l12-17zm106 5l2 1-5 16-1-10 4-7zm-144 6l2 1-5 7-1-1 4-7zm156 6l2 2 2 10-2 1v1l-5-2-2 4-9 4-7 12-1-2 6-11-2-1-4 3 4-9 14-6 4-6zm-130 1v8l-5 3v-1l5-10zm117 30l7 5 6-5 4 5-2 1 2 5-8 1-2 5-4-2 3 1 2-1-2-4-3 1v1l-6-2-11 8-1-10 15-9zm-101 17l3 1-1 3 2 2-7-1 1-4 2-1zm200 0l8 1-8 5v-1-5zm-25 4l1 1 1 1 1 1-2 11h4l8-6v3l-11 12-6 3 3 1-3 1-1-2-8 6 1 1 1-4v-3h-6l-8-12-7 6-9 16 7 8 12-7-1 2v2l-6 3 2 1-2 7 2 4h-5l-3-4 4-3 1-3-1-1-13 11-6-5-6 5-17-18h-6l2-5-26-19-4 7 10 13 6 15 2 1 6-9-5 6 3 3h7l1-3 1 3 5-3-5 6 2 2 6-5 9 24-6 1v1l-3-1-2 1-1-8q-16-2-21 6l-15-12 3-6 8-2-2-4h-3l-18-24 7-12 3-1 3-8 10-3v1l-5 3 1 2 1 1-1 2 3 3 14-12 6 9q9 7 31 3l5-3-6-8 32-1-2 3 1 3 16-8zm-100 62l3 6h2l-1-2-4-4zm-55-60q17-4 24 4v2l-11 4-1 5 14 9-2 1v1l-4-1 3-1-10-6-1 2-12-20zm29 0l7 4v2l-7-6zm-83 4v17l-5 4-3-1 2-12 6-8zm-5 25l5 5-5 3-3-6 3-2zm0 12l4 1h1l-3 6-2 1v-8zm176 13l14 12-5 1v1l-9-7-1 2-1-2q3 13-3 17l-4-2q-2-18 9-22zm16 24l3 2 2 3 1-3 1 4-2 1v5l-6-2 1-10zm-91 4l2 6 7 2 3-2 1 2 5-3 1 3 3 1-3 1-1-2-5 3-1-2-3 5 2 1-4 2-1-3h-6l-1-4-4 2v1l-1-5-5 3-1-2 4-7 8-2zm22 2l6 1-8 4-1-1 3-4zm63 12l15 2 2 3 1-3 1 4-14 1v1l-4-1 3-1-5-3 1-3zm-94 1l3 3 1 2 5 1-3 5 1 1-15 7-1-2 6-11-2-1 2-4 1 3 2-4zm-68 5l2 1 3 7-4-3-1-5zm170 6l9 3 1-2 5 11h-2l-13-12zm-157 12l16 16v2l-10-5-5-7-1-6zm122 48l8 4 1 2h-17v-1l8-5z" fill="#fff88c" stroke="#fff88c"/><path d="M391 105l3 2 2-1-3 2-2-3zm73 99l12 6-2 1v1l-1-3-9-5zm13 18l1 5-6 1 5-6zM235 435l3 2 1-2 1 1 2 8h-5l-4-7 2-2zm16 15l7 4 2 8-2 1 4 4 2 1 1-2 40 22 9 10h-5l-3-4-14-2-17-16q-22-1-31-13l2-1 1-2 5 2v-9l-1-3zm102 52l1 1 1 1 1 1 1 5q-19 4-23-5l19-3zm17 8l2 1-3 5q-6-3 1-6z" fill="#fad664" stroke="#fad664"/><path d="M252 238v2l-5 8-1-1 6-9zm-90 70v4l-5 10-1-3 6-11zm270 16l4 1-11 5 3-4 4-2zm-227 38l5 14h-1l-4-14zm125 42v4l-5 10-1-3 6-11zm-161 3l3 3 2 9h-1l-4-12zm-18 45l5 14h-1l-4-14zm75 118l8 3v3l-8-6zm306 0l2 1-6 11 2 1-9 5 1-2v-4h-5l4-3 1-2 1 4 9-11zm-285 4l3 2 2 4v2l-4-1-1-7zm262 0l2 2-1 6 5 1-8 11 2 1-8 5 1 1-15 8-1-9h-5l5-3 1-9 5-2 1 2 10-3 2-9 4-2zm-251 14l10 8 4 8 3 2h-4l-7-3-6-15zm216 9l1 3 5 1-3 11 1 1-10 5 4 1-3 1-1-2h-3l3-5-2-1-8 7-2 5 5 1-10 5 3 1-3 1-1-2h-5l5-3v-3l-9 6 1 1-9 5-1-8 21-15v-2l3-1 1-4 5-2 1 2 5-1 3-4-2-1 5-3zm-197 9l13 12h-1l-11-5-2-4 1-3zm36 4l6 3-1 3 10 8-4 1 1 5h-3l-3-5h-3l2-1-3-6h-2-3l2-3-1-3h1l1-2zm101 29l1 3 2 1-2 4-1-4-3 5h-9l4-6 8-3zm-52 4l4 3v2h-3l-1-5z" fill="#635536" stroke="#635536"/><path d="M588 248v4l-5 10-1-3 6-11zm13 54l5 14h-1l-4-14zm-18 18l5 14h-1l-4-14zm6 54l5 14h-1l-4-14zm-247 1v3l-5 10-1-3 6-10zm162 103v2h-1l1-2zm-1 3l1 1v1l-9 3v-1l8-4zm103 9v2l-5 10-1-3 6-9zm-443 5q7 2 5 15h-2l-5-13 2-2zm422 9l3 1 1 5 5-3 1 3 1 1-11 17h-3v-6l-17 6v2l-1-2h-2l8-10 1 4 5-3v-3h-2l2-4 1 4 5-10 3-2zm-33 39l1 2-7 4 6-6zm-321 15l11 6-2 1v1l-6-2v-4l-3-2zm34 22l4 4 1 2-3 2-5-5 2-1 1-2zm90 61l4 1h1v6l-4-1-1-4-1 4-3-4 4-2z" fill="#947842" stroke="#947842"/><path d="M281 324h28l8 6h-29l-7-6zm173 0h18l2 3-2 3h-22l4-6z" fill="#fffdc8" stroke="#fffdc8"/><path d="M211 382l5 8h-2l-3-8zm12 14l3 2 2 3 10 3 2 15h-1l-2-5h-3l-1-10-11-5 1-3zm24 8l5 14h-1l-4-9-1 4-3-4 3-1 1-4zm-14 7v2h-1l1-2zm8 10l5 12-4 8-4-8 2-1v-4l-4-1 4-1 1-5z" fill="#ffd875" stroke="#ffd875"/><path d="M223 402l5 3v3l-6-3 1-3zm-2 12l7 4v7l-5-8-2 1v-4zm68 81l2 3-2 1 10 5h-7l-8-5 4-1 1-3zm23 8l12 10v3l-12-3v-10zm91 1l9 1-9 5-2-4 2-2zm-72 9l6 7 3 2h-4l-6-3 1-6z" fill="#dcbc59" stroke="#dcbc59"/><path d="M388 186l2 4h-1l-1-4zm2 11l1 1h-1v-1zM237 414l3 5 1 1-6 1-1-4 3-3zm13 25l5 5-3 1v2l-4-7 2-1zm6 11q18 28 56 36l1-2 3 2-4 1 6 3 1 8h-3l-10-10-35-17-13-12-2-9zm-15 4l4 8h-1l-3-8zm89 44l11 6h-7l-4-6z" fill="#ffdd6a" stroke="#ffdd6a"/></svg>