<svg xmlns="http://www.w3.org/2000/svg" viewBox="0 0 762 762" stroke-width="3" xmlns:v="https://vecta.io/nano"><path stroke="#000" opacity="0" d="M1 0l761 1v761H0L1 0zm166 66l-4 2-18 20-1-1-11 9-1 6h-3l-3 8-2-2-4 1 2 5h-7l-1 3-5 3-19 23 2 13 10 6 2 12h4l30 91v47l-6 11v49l-6 11v51l6 11v49q12 12 14 34h4v6h6l2 12 22 18v4l13 10 1 4 8 5-1 2 21 11v4l13 12 17 5 13 13q19 5 30 18l17 2v6h6v4l59 32h9l16-8 7-7 89-47v-3l19-13 11-2 8-10 40-26v-3l4-1 7-15h2l9-4 32-57v-43l6-10v-74l-2-1-4-3v-58l-2-4-2-2-2-2v-35l6-7v-14l12-29v-13l29-52h2v-1l2-1 3-4-4-4-1-1-13-12-12-15-9-6v-1l-1-1-1-1h-1l-6-9-26-19 2-5-9-7H167z"/><g fill="#040404" stroke="#040404"><path d="M167 66l174 1-15 13-2 7 3 3q-17 3-21-6l-1-4-5-2-5 4-3 8h-43l3-5-6-1q-5 9-20 6l2-3v-3l-15 6q-7-10-27-6l-8 6v1l-57 53v-1l17-26 11-6q-3-29 13-38l-2-1-14 13 21-19zm183 0l15 1-15 13-2 7 3 3h-18l9-6 11-15-3-3zm96 0l25 1-2 3 5 9-3 4-8 1-4-11-13-7zm36 0l21 1-11 5-10-6zm36 0l15 1-8 5-7-6zm36 0l44 2-6 4-8-4q-6 6-20 4l-10-6zm46 2l6 5-2 5-4-10zM363 84l3 1-2 5h-7l6-6zm10 0l5 1-2 5-4-2 1-4zm38 0l3 1-2 5h-7l6-6zm16 0l11 1-2 5-10-2 1-4zm-283 3v3l-9 17-3-1-2-3 2-1 1-6 11-9zm451 9l4 4 1 2h-2l-3-6zm42 9l1 2 1 1-2 1v-2h-2l2-2zm-516 3l5 3v3l-6-2 1-4zm72 0h377l10 6 3 4 3 2 32 34-2 2h-4l-19-22-9-3-9-15-4-2h-60l-2 4-3 1-7-5h-60l-1 3-3-3h-93l-12 6-6-3v-3l-54 1-2 5-7-5-6 5-6-5-24 11q-3-7-15-6l-9 6-9-6-30 22 1 2 5 3-8 9-4-2v-4l-4 2-2 5 6 11h-3l-4-2-4-11 38-40v-2l10-5zm-82 18l3 3 1 3 5 3-12 3-6-3 6-4 3-5zm550 3l13 14 4 4-3 4-2 1v1l-1-2 5-3-2-4-3-1-11-13-2 1 2-2zM91 145l8 16 3-2 4-8 3-1 12 9 11 16v7l18 41q-3 16 6 21v35l-3-2q-7-10-3-31l-18-27 6-3-8-22-11-12-7-2-3 2-1-8h-4l-2-12-10-6-1-11zm555 11l2 1-14 29h-4l12-28 4-2zm-305 24l12 1-12 5 1-2-1-4zm-230 5l9 5-5 4-4-9zm52 4l5 9h-2l-3-9zm-40 3l3 3-2 3-4-2 3-4zm189 0v3l-10 3v-1l10-5zm316 0l2 1-5 10-1-5 4-6zm-328 3v6l-8 3 2-3 5-2-2-1 3-3z"/><path d="M183 198l9 9-12 15-5-2-2 1q-7-6-5-21h1l3 4 11-6zm439 6l2 1-5 10-1-4 4-7zm-28 3v6l-5 3-1-3 6-6zm-312 3v3l-5 3v-1l3-4 2-1zm70 6h60l2 3v3h-60q-7 8-23 6l-1-2 22-10zm-225 3l5 7-5 4-2-8 2-3zm297 3h8l22 12 4 4 14 8 3 4 3 2 3 4 3 2 2 3h1l5 6h1q12 12 17 32h-1l-4-7-2 1q-6-21-22-32l-6-2-8-11-16-7-2-5-22-7-3-7zm192 0l2 1q1 10-5 13l-1-10 4-4zm-441 1l5 11h-3l-2-11zm413 3v12l-5 7-1-11 6-8zm-263 2l4 1-10 5-1-2 7-4zm-76 6l3 1-3 5h-3l3-6zm58 0l10 1-7 5 1 1-33 25-4 10-4 3-23 44-1-16 18-29 4-2 2-8 31-31 6-3zm71 12v9l-5 3-1-6 4-5 2-1zm232 0l2 1-5 14-1-11 4-4zm-429 1l11 15-6 3v29l-6-2 1-45zm204 3l5 3v5l-6-3 1-5zm-145 2v3l-5 3v-1l3-4 2-1zm-101 13l5 9-4 7 4 1 3-6 3 3-2 3-4 1-5 10v-28zm252 0l3 5 2 1v10q-8-4-5-16zm-163 2v3l-9 18h-3q1-16 12-21zm144 1v6l-5 7-1-11 2-1 2 1 2-2zm208 8l2 2-5 9-1-5 4-6zm-214 7v14l-5 3-1-6 6-11zm31 9l3 2 2-1v7l-6-3 1-5zm-181 3v8l-5 3v-1l5-10zm361 0l5 8v32h-1q-10-13-4-40zm-66 5l2 1 3 11h-3l-2-12zm-328 6l3 1 6 15-11 13-1-26 3-3zm-27 1v44q-2 5-12 3l-6-3 12-14q-3-21 6-30zm199 0l3 5 2-1-5 12v-16zm-145 6v20l-5 3-1-12 6-11zm60 2l1 3 2 1-9 8v-3h-3l9-9zm133 0l5 9h-2l-3-9zm114 3l5 4v13l-5-17zm-180 6l8 1-5 10h-3v-11zm-93 6l2 1v29l-6-2v-24l4-4zm27 0l11 3 36 24 13 13 10 4-2 4h-6l-10-10-23-11-27-20-2-7zm220 1l1 1-1 2-4 2-1-2 5-3zm-13 5l7 1-7 5 1 1-10 5-1-2 3-5 7-5zm-274 7v34h-1q-7-7-5-23l6-11zm259 5l4 1-16 11-1-2 13-10zm120 0l5 3-1 3-3 2-1 3v-11zm-450 1l5 9-5 7v-16zm44 5l3 1 6 15-6 8 4 2 2 5q-8 7-6 23l-6-2v-49l3-3zm-27 3v107l6 8v27l6 7 1 1 17 30h1l24 25 3 2 3 4 60 42 57 32 3 4 16 8h7l31 18 8-5v-2l42-22v-2l42-22v-2l29-16 1-2 17-10 1-2 24-16v-2l31-29 2-4 4-2 2-4 6-2v4l-18 17-35 36q-24 9-36 30l3 3 20-12 8-1 1 2-9 9-11 2-19 13v3l-7-8-5-2-45 30-3-6-57 36-78-47-6 5-34-28-11-2-5 3 2 3-2 1q-19-2-25-15v-4l-6-2 3 1 7-5 6 5 1-2q-14-18-35-27l-6 4 1 4-1 1-12-11v-4l-22-18h2l11 6 6 11 3-2-13-25-7-2-4 3v-3h-6v-6h-4l8-7 2-11q-8-8-6-24l-4-1-10-16-3 2-1-26-6-17h1l9 16h8q2-18-6-24 8-7 6-23l-11-4-1-9 12-17-6-3 12-7zm436 3l2 2v25q-9-5-6-21l4-6zm-343 6l3 1v17l-6-3q-3-12 3-15zm193 0l2 1-2 5 1 1-11 6v5h-3l-2-7 3-5 12-6zm128 1v6l-5 10-1-8 6-8zm-359 11l5 4v21l30 56h1l19 25 38 26 4 4 39 14q22-5 30 6l30 1-4 2-1-2-3 5-9 1v2l-23-9-1 6-6-2v-4h-18l-48-21q-38-22-63-56l-9-18q3-14-3-19l-3 1-6 11q2 15-5 22l5 9-3 4-9 1-5-3-1-3q8-7 6-24l-3-5-8-1-1 48-6-3 1-66 6 3 9-7 6-16 8-1 1-12zm131 3v4l-3 5h-3l6-9zm-89 4l5 17h-3q-7-4-2-17zm309 5l2 1-5 16-1-13 4-4zm-429 1l5 9-5 7v-16zm203 8v3l-3 6h-3l6-9zm103 1l5 3v5l-6-3 1-5zm-52 3l69 53 1-8 5 5-9 7-8-3-2-5-17-10-2-4-27-17-2-5-11-2-8 6 1 1-10 5-1-2 3-5 18-16zm-128 5l4 4 1 8h-2l-3-12zm297 6l2 1-5 8-1-2 4-7zm-226 1v11l-5 10-5 4-1 3-1-11h-3l3-5 1 4 6-11 3-1 2-4zm115 0l5 11h-2l-3-11zm-180 6l5 11h-2l-3-11zm359 0v22h-1q-6-4-5-14l6-8zm-266 5l7 1-22 20-11 3v-1l6-4 1-2 6-4v-2l13-11zm93 1l5 11h-2l-3-11zm93 11l2 1-5 10-1-4 4-7zm-267 3l12 11 11 13 5 3h-7l-22-21 1-6zm41 4l1 11 11-6-1 2-4 9-3 1-4-2-6-9 4-2 2-4zm276 2v30l-3-2q-5-6-3-19l6-9zm-56 3l2 1-3 5h-3l4-6zm-52 6v3l-5 3-1-2 6-4zm45 6l3 1-11 16-9 7-4 3-11 12-19 12-2 3-21 6-1-2 15-9v-2l29-16 1-2 6-4v-2l13-11 2-4 4-2 2-4 3-2zm-57 6v3q-2 5-10 3v-1l10-5zm-26 12l2 1-1 3-4 2-1-2 4-4zm-261 1l5 17h-2q-8-4-3-17zm44 5l7 17 13 5 9 12 9 6 1 3-5 9 9 7 15-11 8 6 9 22-5 6 5 9-5 9 5 14h-2l-5-6-11-3 1-3h5l-15-35-9-1-5 4-1 3 15 23h-5l-4-6h-7l1-4q-14-1-18-11l-2-14-4 3v2h-8l-32-29 1-2-3-9h1l9 10h2l10-29 11-7zm-8 48l9 12h2l-1-8-10-4zm365-45v4l-3 5h-3l6-9zm-395 10l5 11h-2l-3-11zm387 5l2 1-3 5h-3l4-6zm30 0l2 1-5 10-1-4 4-7zm-34 7v5l-9 12h-3l6-11 4-2 2-4zm28 5l2 1-3 5h-3l4-6zm-162 6l13 1-19 11h-27l-1-2 4-4h21l9-6zm116 12v3l-18 18-10 3v-1l7-4 3-6 8-6v-2l10-5zm-233 18l5 3-2 3h-4l1-6zm272 6l-2 3-1-2 3-1zm-75 6v3l-8 3 2-3 1 2 3-4 2-1zm55 6l9 6-4 1v3l-6 3-3-1 4-12zm-73 6v3q-2 5-10 3v-1l4-2 1 2 3-4 2-1zm-12 6l1 6-18 6v-1l3-4 14-7zm-283 5l10 7-2 1-10-6 2-2zm104 13l11 9v2l-6-2v-3h-9l4-6zm18 12l10 6h-4l-7-3 1-3zm113 0v3l-8 3 2-3 6-3zm-101 6l8 6h-2l-7-3 1-3zm-70 6l3 3-2 3-4-2 3-4zm144 0l3 1 2 5-13 5-1-2 9-9zm-138 6l4 10-1-1-8-3 5-6zm82 0q15 2 22 12h-4l-7-3v-3l-12-3 1-3zm-70 6l7 12 13 6h-6l-19-12 5-6zm111 0v3l-10 3v-1l10-5zm-17 6l5 1v4l-6-2 1-3zm95 0l6 1-12 9v-1l4-8 2-1zm-159 6l9 9-5 7-1-4h-6v-6h-5l8-6z"/></g><g fill="#0c0c0c" stroke="#0c0c0c"><path d="M342 66l11 3-11 15-14 6-4-6 14-16 4-2zm24 0h79l16 10 2 8 10-3 1-3-5-9 12-3 12 6q6-8 24-6l9 6q6-10 27-6 6 8 24 6l10-4 5 4 6-4 2 2 4 8 5 2-2 1 1 1 4 2 1-2 7 8-2 1q-7 4-6 18l6 11h-2l-17-18h1l-3-5-2-1-1 2-10-8H483l-3-2-2-4-4 3-2 3h-36l2-5-11-1-1 4 2 2h-16l2-5-3-1-6 6h-28l1-2v-4l-6 1 2 5h-9l1-2v-4l-14 6-4-6 14-16 4-2zm-206 6l2 1-12 17q4 17-3 23l-12 7-15 24 2 1-2 13-12-8-5 4-3 7-4-2-6-15 12-14 1 2 1 1v3l11 2 5-3-6-3-2-6-3 2-1-2h-2l3-6 5-2 1 2 5-2-1-3 7-1 3-12 3 3-2-2-3 2 3 3h2l1-2 2 1q7-22 25-35zm140 6l6 4 1 2 7 6h-21l1-2 4-9 2-1zm-114 6q20-4 26 6h-33l3-4 4-2zm36 0l6 1-3 5h-11l8-6zm24 0l6 1-3 5h-11l8-6zm390 23l1 1 1 1 6 5-2 1v2l-5-2 4-1-4-3-1-4zm-365 7l53 1 2 3 8 2 8-6h93l2 4-14 8-6-5-11 11-2-1-5-10-3-1-9 6-8-6h-37l-9 6-8-6-6 10 17 18-35 24-6 18 5 3-3 5 2 1-8 5 1 1-10 5 4 1-3 1-1-2-5 4-1 2 2 1-10 5 2-3v-3l-4 2-5 10 1 1-8 6-1 3-1-4-5 2-1-8 6-9 17-11-5-7 22-16 2-5-8-17-10 5-17-9-1-21-3-5-3-1-5 4-1 3 6 12-5 9 5 9-5 8-18 12 11 27v19l-6 12 3 4 13-6 2-4v5l-5 8-1-2-5 4-1 2 2 1-1 3-1-4-5 10-10 8-3 12 2 1-8 17 2 1-8 17v12l2 1-8 17v13l6 10 1-3 1 4-2 1v11l-11 4q0 13-8 18l-7 2-4-7 3 1h3q-2-17 6-24l-3-6h-3l6-9-6-15-5 2-1-4q8-6 8-20l10-11-6-15-5 2-1-15 3 1h3l1-30 5-2q-13-11-18-29l3 1h3l-7-12h4 3l12-15-9-9-11 6-3-5-1 3-2-3 2-1-5-9-2 1-11-23 3 1h3l-6-12 4-6 2 1 3 5 9-8-2-4h-4l2-4 29-20 9 6q2-7 15-6l9 6 24-11 6 5 6-5 6 5 3-6zm175 0l27 1-8 5-7-4-5 4-7-6zm30 0q22-4 31 5h1l-22 1-10-6zm48 0l27 1-17 5-10-6zm30 0q18-4 24 6h-14l-10-6zm107 16l13 14 3 3-2 3-3 1v-1l-1-6-8-5-4-7 2-2zm-76 1q19 6 27 23l1 2 5-2v2l-21 42h-3v-6l12-23v-13l-21-25zm63 26l1 5 5 3-5 6-8 3 1-2 6-15zm-221 20l12 6 6 7 3 2h-7l-20-11 5-1 1-3zm-315 3q13 2 18 14l8 22-6 3 18 27q-5 24 6 33l1-2q8 5 5 21-16 9-12 39l-12 14 14 4-1 3-4 2-9 4 6 3q-11 7-12 24l4 4 8 2q2 17-6 24 8 6 6 23h-8q-13-10-10-36l6-9q-8-4-6-15l12-27q-11-9-6-33l6-11q-3-22 6-30l-4-2 4-8-12-20q2-16-5-22l5-6-6-5v1l-11-26 4-7-9-3-1-2 3-3zm11 12l-3 4 4 2 2-3-3-3zm24 84l-3 6h4l2-3-3-3zm191-96l4 3-2 3h-9l5-3 2-3zm16 0v3l-7 3 3-4 4-2zm276 2l1 4 5-2v3l-8 11 2-3v-3l-4 2-1 3-1-4 6-11zm-300 4v3l-10 3v-1l10-5zm121 3l2 3-2 1 10 5h-4l-7-3 1-6zm12 10l9 5h-3l-7-3 1-2zm12 2l5 9h-2l-3-9zm119 3v3l-6 5 4-7 2-1zm30 1v12l-5 10-1-5h-2l8-17zm-211 11l11 6 3 7-18-6 5-1-1-6zm80 0l5 3 3 3 12 12 3 6h-2l-21-24zm-139 6l5 1-15 5v-1l10-5zm-25 4l1 1 1 1 10 1-29 12 2-5 3-1-3-1 4-2 1 2 10-5-3-1 3-2zm111 8l12 6-3-1-9-5zm15 0l9 6h-2l-7-6zm133 4v5l-5 3v-1l5-7zm-6 9v30l-1-1-3 2-1 3-1-26 6-8zm-113 3l6 9-2-2-5-2 1-5zm-173 1l1 2-13 13-5 9-4 1 1-2q2-15 14-20l6-3zm316 2l1 11 2 1-3 2v-2l-5 8-1-11 6-9zm-240 6v9l-3 2-3-1 6-10zm157 0l5 3v2l-6-3 1-2zm-157 15v2l-3 6-3 1 1-2 5-7zm19 0l5 8h-2l-3-8zm150 4l4 10h-1l-3-10zm-271 2v3l-6 11 6 3-10 5-7 13-1-2 18-33zm312 0v22l-4-3-2-11 6-8zm-185 3l3 5 2 2-2 4-4-2 1-9zm150 6l3 5 2 1v5l-6-3 1-8zm-42 3l5 7 1-3 1 4-2 1v4l-7-11 2-2zm-145 3l1 5 1 1-4 11-4-6 6-11zm43 15l6 4 2 4-3 1 3 5 3 1-1 3-7-3 2-1-5-14zm-136 2l3 3-18 13 1 2 3 2 6 15 27 19 4-3 1-3-7-10-20-13-3-9 12-10v4l-6 3 6 14q15 5 24 18l23 11 10 10 5 1-1 3-7 5 1 3 3-1 2-4v5l-5 10-4 2-3 6 2 1-5 11-3 1-5 10-1-4-5 8-25 13 1 3-1 1-13-10-4-10-1 4-2-3 2-1-5-11-1 3-2-3 2-1-3-11-2-1-1 4-6-11 3 1h3l-5-17-1 4-6-7 4 2h2v-18l-5 2-1-9 3 1h3v-30h-2l2-4 21-14zm-18 31l-2 3 5 2v-2l-3-3zm76 35l-1 6h3l2-3-4-3zm-9 43l-3 4v1l4-2-1-3zm240-109l3 2 2 4-3 1v4l-6-7 4-4zm-196 4v2l-3 6h-3l6-8zm-77 2l23 1-2 5h-19l-3-2 1-4zm207 0l6 2 2 3 1-2 2 3-4 2-5 8v-1q2-12-2-15zm-144 6l2 1-2 6-3 1-1-4 4-4zm263 0l3 1v23l-6-2v-19l3-3zm-92 1q7 6 5 22h-1l-2-4 2-1-5-3 1-14zm-32 9l1 1 1 1h2l1 1-4 2-2 3-4 1 2-5 3-1-3-1 3-2zm-18 12l1 1 1 1 2 1-9 8-2 3-10 4-3 7-9 2v-3-4h-4l16-8 1 2 16-11-3-1 3-2zm56 2l5 4-2 8h-4l1-12zm65 5v8l-1-1-3 2-1 3-1-5 4-6 2-1zm-24 2l1 5 2 1-8 13-1-11 6-8zm49 6l5 11v49l-5 7v-67zm-91 12v20l-5 3-3-5 2-1v-6h-3l3-2 1 1 5-10zm61 6l5 14-3-2-2-6-1 2-2-3h2l1-5zm-156 2l5 9h-2l-3-5-1 3-2-3 2-1 1-3zm89 16v11l-11 22-6 2-1-3 18-32zm42 0l1 5 2 1-3 2v-2l-5 10-1-5 6-11zm-347 1l5 12-4-3-1-9zm228 11l5 16h-1l-4-16zm-61 5l12 4 1 3-2-2-9-3-8 5 2-5 4-2zm210 0v33l-5 8-1-17h-3l3-3 2-19 4-2zm-36 1v6l-21 42-11 11 8-9v-3l-6 2v-1l6-11 1 4 3-1 2-4-2-1 2-4 1 3 5-10-2-1 8-16 3-1 3-6zm-341 5l3 2 2 17 9 18 45 44 48 27q13-1 18 6l18 1 3 5h3l1-6 23 10q2 19-9 25l-14 10 9 14 11 7 7 17 3 1 4-3 5-8 3-1 4 4 2 14 1 1-8 10 1 1-6 2-1-2-11 6v1l-6-1-1 2-4-1 3-1q-8-14-30-13v-3l-4-1 2-1-8-6-1 2-4-1 3-1-10-6-1 2-6-2-8-12-4 1-3 5h-3l-1-5 1-7-5-9 5-9-5-9 5-6-11-24-7-3-15 11-8-8 5-9-3-5-13-8-5-10-14-4-4-15-14 10-7 26-10-7-1-4-1 3-2-3 2-1-5-11-1 4-6-7 4 2h2l-5-17-1 4-6-7 4 2h2l1-48 10 4 1 15-6 12 4 4 9 1 4-3 1-3-5-9q8-6 5-21l7-12zm125 120l-4 2-8 12-5-2-1 6h4l2-1q1 12-5 17l9 7q11-4 8-22l12-3v-1l9-4 3-7-5-4-9 6-10-6zm23-116l1 1 1 1 2 1-12 16-19 7v-1l27-22-3-1 3-2zm48 7l9 7h-5l-4-7zm-89 5v2l-3 6-3 1 1-2 5-7zm295 0q9 6 5 27l-5 8v-35zm-115 2v3l-18 17v-2h-2-2l4-2 1 1 11-14 6-3zm-77 4l19 14-3-1-16-8v-5zm-90 2l1 1-7 5 4 1-4 2-1-3h-2l9-6zm144 14l-1 2 1 2 1 1-8 7v-2h-3l10-10zm-162 2l3 2h3l-4 5-3 1-5-3-1-2 6-1 1-2zm-13 7l15 13h-2l-11-5-2-4v-4zm-165 2l7 7 6 10 2 1v12q7 4 6 18l-8 10h-2q-2-22-14-34v-21l3-3zm448 0l5 11-5 10-7 5 1 3 3-1 2-4v5l-5 10-1-4-4 2-2 4 2 1-1 3-1-3-5 7v-3l17-34 1-12zm-330 3l13 14-12-7-1-7zm204 1l-1 2-3 5h-3l4-5 3-2zm-138 1l13 10 23 8 9-6 8 7-2 5h-15l-37-15 1-9zm197 4v3l-1 3-6 2 7-8zm93 2l3 1v18l-27 53-3-6h-2l14-17-3-1-3 2 1-2 5-10 1 4 3-1 2-4-2-1 2-4 1 3 5-10-2-1 5-24zm-177 3l1 9h-11v-1l4-2 1-3 5-3zm72 7v3l-5 8-20 9 3-4q14-4 22-16z"/><path d="M379 492l5 1-2 5-4-2 1-4zm18 0l17 1-3 5q-12 3-15-2l1-4zm96 0l1 1-9 5 2-3 6-3zm-336 2l5 12-4-3-1-9zm142 16l23 12h-4l-19-12zm175 4v3l-8 11-4-2v-4l-6 4-3 7-22 1 3-4 15-7-3-1 4-2 1 2 23-8zm84 11l1 3 1 1-8 7v-2h-3l9-9zm-153 3l-3 4 1 2 16 1q-7 8-25 5v-1l2-4 1 2 4-2-4-1 8-6zm-245 6l12 8 8 19-3 2-8-14-11-4-2-7 4-4zm57 0l10 4 1 8h-2l-9-12zm324 5l1 2-7 7v-3l3-4 3-2zm59 7l2 1-5 10-8 3v-3l5-8 6-3zm-363 1l1 1 2 12h-1l-3-1-3-5-4-1 5-1 3-5zm339 3v3l-6 14 7 3 5-3v3l-2 5-9-5-4 12 2 1-30 21-11 2-20 12-3-3 71-65zm-312 2l11 4 13 32-6 1-8-1 2-5-10-8-8-17 4-5 2-1zm259 5l-1 2v2l-6 3 2 1-2 1v-2l-5 4v1l-1-2-2 3 1 1-5 3 1 2-6 2-1-2-5 4v1l-1-2-5 3 4 1-4 2-1-3-17 10-1 2 4 1-33 19-1-2-12 8 1 4-11 4-2-4h-3l21-15 17-6 1-3-12-18 4-5 18-13 9 6 12-6 4 4 5 8 33-19zm-325 13q21 9 35 27l-1 2-7-5-6 5-8-4 2-1-19-13-2-7 6-4zm195 6l3 3-2 3-4-2 3-4zm130 12l1 1-9 5 2-3 6-3zm-18 12l1 1-9 5 2-3 6-3zm-253 12l11 2 35 28 6-5 78 47 56-36 3 6 27-20 1 2 4-2v-2h-2l16-8 10 9v1l-28 12-2 6-82 44h-7l-59-32 5-7-9-9-9 6-18-9-3-9-6 4-3-1-3-9-6 4-20-15 2-1-2-3 5-3zm15 12l-3 4 4 2 2-3-3-3zm117 47l1 1h-1v-1z"/></g><g fill="#161616" stroke="#161616"><path d="M608 80l4 2v2l-5-2 1-2zm-131 4l3 3 2 3h-9l1-2 3-4zm142 6l7 6-2 1 4 4 2 1 1-2 9 13 1 1-4 1 11 5 1-2 19 26-2 1 1 5 5-1-1 2-29 52v13l-12 29v14l-2-1-4 6 2 1-2 2v34l-4-2-8-17-5 3 5 9h-2q-7-6-4-20l6-9 1 2 5-8-4-1-2 1v-13l-5 2-1-1 6-11 4-2 8-17v-12l-3-1 3-5 1 5q11-11 15-30l14-8-2-4h-4l-1-6 1-4-5-5-2 1-25-27 2-1q-7-5-6-18l7-12zm12 18l-1 3 6 3v-4l-5-2zm6 24l-1 3 12 9 3-1 3-4-1-3q-3-7-16-4zm-508-29l3 3v2l-5-2 2-3z"/><path d="M439 114l15 6 7-4 5 4 9-6q9 10 32 6l3-2 1-4h12q4 7 18 6l12-6q7 9 26 7 7 20 25 31l2 17-12 23v6h3l3-5v5l-5 10-1-4-5 4-1 8h4l2-1-5 11-5 3-2 17 2 1-1 3-1-3-5 7-1-2-5 4q-8 5-7 21l3 4 9-6v44l-1-1-8-5-7 4-3-5 7-24-3-6-3-1-3-11-3-1-1-3-10-5-12-25 5-8-3-5-3-1-5 4-4 8-3 1 6 11h-2l-5-6h1l-14-17 2-1-3-5-2-1-1 2-5-2-1 2-14-7 2-1-5-9-1 3h-2l1-2-8-10-3 1 3 5-4 2-3-1 3-1-10-5 2-1-3-2v2h-2l1-2-4-7 10-12-4-7 5-8-3-5-3-1-5 4-3 14-16-8-1-4-8-5-8 5q-14-3-18 4l-9 20h-27l5-3v-3l-12 1-2 5-10 2-1 2-4 2 3 1-3 1-1-2-17 8-1-2-11 5-1-5-5-2 9-21 32-21-17-19 6-9 9 6 8-6h37l9 6 9-6 4 4 5 8 12-11 6 5 14-9 1-3zm71 18l-4 2-7 8 11 8 5-2 7-9-1-3-11-4zm-144 12l-2 1-4 5 1 3 5 3 3-1 3-4-1-3-5-4zm-120-12l5 4 1 21 4 4 15 7 9-5 8 18-7 9-17 11 5 7-20 14-3 18 2 1-1 3-1-3-3 5-12 5-3-5q9-9 6-30l-11-27 20-14 3-7-5-9 5-9-6-12 4-5 2-1zm170 30l4 2v4l-6-1 2-5zm-18 8l10 6 2 2q20 2 30 14h-1l-11-6h-13l-25-8 1-4 7-4zm34 4l6 3 1 5h-1l-11-4 1-2 4-2zm-131 24l3 1-3 1v-2zm-132 16l5 12h-1l-4-12zm99 2l2 1-3 5 1 1-3 1-1-2 4-6zm92 6l7 1-1 5h6l3-6h34l59 28 2 6 25 21 3 6-1-1-5 1-2 5-10-6-9 6-9-9q11-5 12-19l-15-7-19 7-19 19 17 18-17 12 5 7-14 13 2-4v-2l-1-3-3-1-2 1 1-2h2l-15-20 4 2h2l-1-12-3-1-1-4-1 3-2-3 2-1v-12h-3l-2-5 5-1-3-11-3 2v-3l-6-3-1-3-4 1-2-1-4 3-1 9 2 1-1 3-1-3q-8 6-6 23l2 1-1 3-1-4-12 24v18l2 1-9 5 1-2v-4l-12 1-32-1 2-5-23-1-1 4 2 2h-10l2-5-6-1-2-6-22 14 1-2 5-10 3-1 7-13 8-3-6-3 10-18 7-3 16-20v-2l16-11 47-18zm-185 16l5 12h-1l-4-12zm401 21v14l-6-5 6-9zm-41 2l5 15h-2l-6-11 2-1 1-3zm-93 3q8 5 9 18l8 6 2 5-5 4-1 2-11-7 6-9-11-4-1-9 4-6zm-285 7l5 13-4-3-1-10zm390 13l5 10-4-1-1-4-1 3-2-3 3-5zm-48 3l2 2 9 18-1-1-3-1-3-11-3-1-1-6zm108 10l10 7 1 21 6 11q-3 13 4 18l2-1 2 19-2 1-5 9 10 8h1v13l-5-1-1 6h5 1v19l-5-1-1 6h5 1v13l-2-1-10 12h3l4-1-1 43-27 48-12 6-8 16h-2l-5 2-6-3 10-21 2 1 3 5 27-53v-18l-3-1-3 2 6-12 3-1 3-6v-91l-12-25 3 1h3v-24l-5 2v-29zm14 118l-2 3 3 1 1-2-2-2zM162 298v5l-5 7-1-4 6-8zm463 7l2 2 3 12-1-1-3-1-1-12zm-108 3l5 12-2-2-4 1v6l-4-2-2-11h2 4l1-4zm36 8l5 8h-2l-3-8zm-103 2l6 1-2 5h-12l8-6zm19 0h20l3 4v3l-21-1-3-2 1-4zm27 0l7 3-1 2-3-2-1 2-2-5zm-238 6l6 1q1 15 12 20l16 11 2 5-3 4-3 1-29-21-4-15h-3l2-4 4-2zm316 0l3 3 11 22-1-1-14-11-3-7 4-6zm-76 1v6l-3 4-4 2-3-1 7-5 3-6zm-6 4v2h-1l1-2zm67 2q7 7 5 24l-5 7v-31zm-42 8l4 3-2 1 3 4 1-4 5 8-3-3-3 1 1 11 5-2v5l-11 20-1-2q-3 6-6 1l6-9-6-3 11-18-4-13zm-31 1v15l-3 4-3 1-14-6 5-7 15-7zm-237 3l3 3v2l-5-2 2-3zm213 15l1 2 3 2 1 3-5 4 8 9 10 2v4l-17 10q-9 7-7 27l4 5 2 2q-8 5-6 21l3 1 11-24 11-6 9 5 12-17 8-1q-2-13 4-17l3 6 1 1-1 3-1-3-18 35h4l2-1-5 9-1-2-15 12-2 5-1-2v-3q-19-3-23 9l-1-3h-2l2-4-5-5-2 1-5-13h1l2 3h3l-5-12-1 4-2-3 2-1-5-17-1 4-6-7 4 2h2v-6l-5-3-2 1-5-14h1l3 4h2l-6-11 23-10 3-7 10-4zm18 68l-4 2-1 2 5 2 5-2v-1l-5-3zm102-67v14l-1-1-3 2-10 16-4-2v-4l-4 2-1 3-1-4 6-11 12-10 3-4 3-1zm-14 1l2 4-5 7-1-7 4-4z"/><path d="M487 366l5 3 3 3 3-2 2-3 10 8-2 3-4 3-1 2-11-7-2-4-4-1 1-5zm14 7l-2 3 3 1 1-2-2-2zm-176 5l4 3-2 3h-3l1-6zm-84 4l5 12h-1l-4-12zm338 2l3 3 1-2 11 27-5 7-1-5-6 4q4 16-3 20l-8 4-1 3 4 4 7 1h1v31l-23 45-10 8 1 1-15 9-7 11-6 3 4 1-3 1-1-2-32 18-7-11-3-1-12 6-9-6-20 16-1 3 12 18-3 4-9 1-29 18q2-13-4-17l-3-1-5 4-4 7-3 1-5-3-6-18-12-6-6-12 16-12q9-9 8-27 25 4 36-6l-1 2 1 4h5l3-6h22l4-3 5-9 2 1 3 5 6-5 7-13 23-11 7-13 8-3 15-20 21-42v-6l-2-1 2-4 1 3 5-10 1 2 3-2 2 6-8 11-4 2 1 4q4-7 18-6l9 5v-2l-4-9q7-5 6-18l-6-9 3-3zm-65 102l-4 6h3l3-5-2-1zm-106 66l-6 5 2 12 8 6 8-10-1-9-11-4zm-15 24l-3 4 4 2 2-3-3-3zm-13-160l16 8 2 2 8 6h-4l-6-3-1-3-5-2-1-4-5 1 21 23 3-1 1-7 11 6 4 7 25 12h1l1 1q18 2 25-7l2 2-13 11 1 1-10 5 4 1-3 1-1-2-5 4-1 2 4 1-13 5v-1l3-1v-4l-5 2-1-2-12 7-1 3-10 4-1-2-18 1 2 5h-15l1-2v-4l-6 1 2 5h-9l1-2v-4l-9-6-9 6-22-8-13-10-1 8-4-1-7-10-6-3-1 3 3 3-8-5 5-1-15-12-3-8 30-16 1 12 1 1-1 3-1-4-3 6-3 1 2 5-2 1 1 5v2l3 3 3 1 4-3 7-13h2q17-2 27-11l10-14v-2l17-9zm31 71l-2 3 3 1 1-2-2-2zm-95-66l1 3-4 2v-1l3-4zm-141 57l5 12h-1l-4-12zm6 18l5 10-3-2-2-8zm252 26l1 1-11 5v-1l10-5zm-258 4l6 10h-1l-5-10zm228 2l1 1-11 5v-1l10-5zm-67 12l10 6 9-6 5 4-3 7-8 3-1-2-5 3 1 3-8 1q3 18-8 22l-9-7q8-7 5-24l8-8 4-2zm-109 12l9 6h-1l-8-6zm321 17v2l-9 5 2-3 7-4zm-38 1l2 1-1 3-2-1-3 2v-3l4-2zm-18 12l2 1-6 4v-3l4-2zm-17 36l1 1-8 5v1l-4-1 11-6zm-133 5l6 5h-2l-8-3 4-2zm129 9l2 1v1l-4 2-1-2 3-2zm-80 34l1 1-8 4 1-2 6-3z"/></g><path d="M181 90l1 1-7 5 2 1-4 1 2-5 6-3zm160 6l9 1-4 5-4-2-1-4zm-161 1l1 4 2-4 1 3-3 2 2 1-3 2v-3h-3l3-5zm-29 29l5 1-3 5h-9l1-3 6-3zm-22 25l3 3v2l-6-2 3-3zm314 41l11 6h-3l-8-6zm40 24l11 6-2 1v1l-1-2h1l-9-6zm-218 12l1 1-9 5 2-3 6-3zm-108 8l2 4 3 3-2 3-3 2v-12zm18 12l5 12-3-2-2-10zm413 6v4l-5 8-1-1 6-11zm7 58l5 3h1l1 3h-1l-7-3 1-3zm-349 4v2l-5 10-1-3 6-9zm193 8l2 1-12 5v-1l10-5zm114 8l5 12-3-2-2-10zm-393 28l2 1-5 9-1-3 4-7zm-1 18l3 6 5 1-7 5-4-2v1l-6-7 4 2h2l3-6zm58 34l5 12h-1l-4-12zm395 0v10l-2-2-4-2 3-4 3-2zm-245 2l1 1-9 5 2-3 6-3zm-210 15l5 8 2 1-2 1v1l-4-1 3-1-5-3 1-6zm377 0l1 3 1 1-1 3-1-3-9 17h-3v-12l-5 2-1-1 4-7q11 3 14-3zm-26 3l2 1 1 5 4 1-4 2 2 3-9 3 1 1 7 3v3l10 3-3 5h-9v-4l-4-1-3-6-3 2-1-4 5-10-2-1 2-4 1 4 3-6zm-339 18l4 3-2 3h-3l1-6zm428 0l-2 3-1-2 3-1zm9 1v5l-3 6h-6l9-11zm-103 7v2h-1l1-2zm-13 4q9-1 11 5l3-2v12l-5 3-4-12-12 6-2 5-1-5h-2l2-4 1 3 9-11zm104 5v7h-2l-3-3 5-4zm-116 13l2 1-3 5h-3l4-6zm9 0l5 1-5 9-1-4h-4l4-2 1-4zm-30 10l3 1 2-1 1 2 2 1-2 4-1-4-3 5 1 1-11 5 1-2 1-7 5-2 1-3zm-26 2l13 1 1 7h-1-4l-5 10-6-1 3-2 2-3 4-2v-5l-7-5zm44 4v2h-1l1-2zm-179 8l12 6h-2l-10-6zm107 0l1 1-7 11-1-2-6 3-4-1 17-12zm47 1l1 5 1 1-7 5-1-2 6-9zm-113 12q6 7 21 6l-7 4-15-8 1-2zm-120 27l5 7h-1l-7-4 2-1 1-2zm80 61l1 1h-1v-1zm10 3v2h-1l1-2zm107 24v2h-1l1-2z" fill="#c3c3c3" stroke="#c3c3c3"/><path d="M184 90l11 1-3 5 6 3-2 3-4 1v2l-8 3 2-3-3-9h-3l4-6zm49 0l15 1-2 5 26 12h-27l1-2v-4l-6-2v-4l-6-2-1-4zm120 0l9 1-2 5v2l1 4h-13v-1l4-5h2l-1-6zm97 0l15 1-15 8-2 3-5-1-1-4 3-2 4 1 1-4v-2zm21 0l5 1-2 5 4 2 2 3 1-4 2 4 5-4v-2l4-2 1 3 6-1 4 1h2 5l-1-5 45-1-2 3 1 3h5l-2-5 22-1-2 3 1 3 11 6v-2l1-3 5 7 1 1 36 37 3 2 2 2h1l5 7-24 45-6 17v10l-6 8q5 22-6 30v51l-5-2-1 3 12 7v46l6 8v35l-6 5 2 4 4 4-17 11-1-63-6-8v-40q-10-7-6-26l4 2h2v-12l-5 3-1-6q9-5 6-20l-2-1-4 3 12-26-2-1-4 3 12-32-2-1 2-4 4-3 2-4-2-1-2 1 4-6-2-1 18-36 2-1-1-5-4-3-2 1-29-32-4-1-2-4-3-9-3 1v1l-5-2-1 3-22-4-4-10-4 3v5l-12 4 2 5h-9l1-2v-4q-20 3-27-5l-15 6 2 5h-10l2-3v-3l-5 3-1-12 3-3zm60 1l-3 5h6v-2l-3-3zm52 11l1 6h4v-3l-5-3zm24 276l-1 6h3l2-3-4-3zM479 90l10 1-4 5-5-1-1-5zm-268 6l11 3-1 3-11-2 1-4zm62 0l6 1-4 5-5-3 3-3zm-42 1l1 1 1 2-2 1v1l-2-2 2-3zm-65 5l5 1-3 5h3l9-6v9l-41 37-1 3 6 10 1-3 1 4-2 1 6 11 1-4 1 4-2 1 8 17-2 1 6 11 1-4 1 4-2 1q9 5 6 22h-1l-2-5-9 1 10 11h2l1-6 5 4v21l6 13-2-2-22-9 4-9 2-1-1-5-3-1-8-14v-10q-7-5-6-18l-18-32v-7h1l7 8 10 2v-2l-14-16-4 3v3l-6-3 3-8 21-21 1 2 5-2v-4h-2l18-18zm-16 24l-12 10 1 2 15-6 2-5-6-1zm177-24l3 3 2 3h-9l1-2 3-4zm167 0l4 2 2 4h-9l1-2 2-4zm-25 108l5 4v2h-6l1-6zm17 8l5 4-2 1 4 2 7 9-2 1 1 5 1 1-1 3-3 1-4-2q2-17-9-20l3-1v-4zm-19 22l9 6v1l-9-7zm44 6l5 4v2l-6-3 1-3zm6 7l5 7 1 1 13 27 4 3h1l7 15-2 1 1 5 4-1 1 24h-1l-2-5-3 1 6 7h1q10 8 5 32-11 7-6 29l-15 33h-3v-6l-16 8-1 3-1-5-5 2-1-2-3 1 1-2 2-4 3-1h1l2-5-2-1-2 1 4-6 1 4 11-16-2-1-4 3v-3h-2l6-12h2v-6l-5 2-1-1 12-24-2-1-4 3 1-18 5 3v-6l-5-11-1 3-2-3 2-1q1-15-7-19l5 1h2l-5-8h-2l-4-9 5-1-1-12-17-13-3-4 3-1 2-10 10 4 1-5zm-354 12l3 5 6-1 2-4 1 5 2 1-3 5h3l3-2v28l-5-2q2 17-4 24l-9 4 1 2 5-3 1 3 2 1-3 11 3 1q-7 8-3 29l3 1-3 5h3l3-2-3 8-10-1-2-5h-3l6-17-2-1-3 5-1-14 6-3v-6l-5 3-1-12 6-8 1-60zm352 29l1 1v3l-1-4zm-347 93v4l-5 8-1-5 5-3-2-1 3-3zm-12 10l1 5 9-1 2-4v20q-3 6-15 3-6-3-3-15l6-8zm67 5l5 4v2l-6-2 1-4zm-3 12l8 4v7l-5-7-2 1-1-5zm175 0l9 6h-1l-8-6zm107 24l2 1-6 12 4 10-20 2-1 3-1-4h-2l24-24zm14 1v5l-3 6-8-2 1-2 8-3 2-4zm-36 51l1 2 3 1-8 4v-1l4-6zm-205 2l13 6 1-3 10 9h-7l-17-12zm170 5l4 1h1l-2 5-3-6zm-19 1l1 1-1 4 1 1h-12l11-6zm-114 5l18 9 8 8 3 2h-13l-16-9-2-8 2-2zm94 1l6 1-9 4-1-1 4-4zm-27 6l5 4-1 2-3-1-1-5zm-36 3q3 7 17 4l2 3 8 2 2-4 5-2 1 4-6 4 1 4-1-1q-8-7-24-5l-11-5 5-1 1-3zm-143 15l16 16v2l-15-12-1-6zm41 36l5 4v1l-6-2 1-3zm37 25l3 1 1 4h-2l-3-1 1-4zm85 47l2 2 1 4h-5l-1-3 3-3zm16 12l4 2v3h-4v-5z" fill="#d1d1d1" stroke="#d1d1d1"/><path d="M196 90l11 1-3 8 3 3-3 1v2l-8-3 2-3-6-3 4-6zm66 0l11 1-4 5-5-1-2-5zm66 0l10 1-4 5-4-1-2-5zm73 0l9 1-2 5 3 1-2 3 2 2-3 1v2l-6-3-1-12zm24 0l9 1-4 5-4-2-1-4zm19 0l6 2-1 4-5-1v-5zm22 0l4 1-2 10-3-4-3 2v-3h-5l9-6zm11 0l3 3-2-2-3 2 2-3zm13 0l3 1-2 3-4 2v2l-2-2 5-6zm8 0l7 1-2 5-5-1v-5zm57 0l3 3-2-2-3 2 2-3zm-24 1l3 3v2h-6l3-5zm12 0l3 3 4 8q18-3 25 6h-36l3-4 4-2-2-5-9 5v-1l5-2 3-8zm-284 2l4 3-4 1 5 3 3 4-1-1-13-6 5-1 1-3zm-24 1l5 3 2 5-2 1-2 5h-6l2-5-3-1 1-2h1l-2-3 3-1 1-2zm354 0l6 9 36 38 1 1h-1l-36-38-5-3-1-4-3 1-1-2h3l1-2zm-147 2l2 6-2-1v-5zm13 0l1 1-5 2v-1l4-2zm-176 1l1 1 2 7-1-1-6-2 4-5zm60 0l3 3 1 2h-1l-4-2 1-3zm156 0l8 5-5 1-4-1h-2-5l8-5zm-204 5l3 3 2 3h-9l1-2 3-4zm181 0l2 1-3 5h-6l7-6zm99 0l2 2-1-1-1-1zm-302 2l4 4-3-3-1-1zm306 0l2 2-1-1-1-1zm-384 1l1 1-5 2v-1l4-2zm-42 18l1 1-5 2v-1l4-2zm485 19l2 1 3 2 3 7-4-3-1-4h-3v-3zm-477 50l11 21-4-3-7-18zm447 0l2 1-5 9-1-3 4-7zm-4 18v2l-2 1 2-3zm-2 4v2l-1 2-1-1 2-3zm-2 5l-1 2v1l-1-1 2-2zm-115 3l9 8 5 15 3-2 1 2-3 1-7-5-6-13h-3l1-6zm24 16l11 8 1-2 7 14-2 1 1 1-5-3-1-4h-3l2-1-1-4-4-2-1 2-7-8h1l1-2zm87 2l2 1-5 10-1-7 4-4zm-86 13l1 1-2 1 1-2zm-328 11l2 9-5 3-1-2 5-7-1-3zm319 0l7 4 2 2 12 12-2 1v2l-13-10-4-8-2 1v-4zm89 0l2 1q3 15-5 19l-1-16 4-4zm-48 24l2 2 1-2 5 9-4-3-1-4-3-2zm48 0l2 1v11l-6-3 4-9zm-69 6l5 10 6 6v2l-5-3-2 1-1-3 1-2-4-11zm6 18l5 12h-1l-4-12zm-349 6v2l-2 1 2-3zm-2 4v2l-3 5-1-2-5 3-1-2 9-4 1-2zm0 8l4 1-1 3-5 4-1 3-1-7 4-4zm375 0l3 2 2 6-6-5 1-3zm-18 1l5 17h-2q-8-4-3-17zm-355 6v9l-5 7-1-5 6-11zm-14 5l2 1v5l-5 2-1-4 4-4zm372 18l2 1-5 10-1-7 4-4zm-358 9v6l-5 3-1-2 6-7zm433 9l4 3-2 3h-3l1-6zm-388 6l3 3-2 3-4-2 3-4zm-8 4l13 14-2 1v1l-7-4-4-12zm315 14l2 1-5 7-1-4 4-4zm-297 4l3 6-6-3 2-1 1-2zm287 14v2l-2 1 2-3zm-6 2l2 5-3 1-4 8-1-3 6-11zm4 2v2h-1l1-2zm-285 4l5 15h-1l-4-15zm18 28l5 4v2l-6-3 1-3zm233 8v4l-3 6 1 1-9 7-1-1 12-17zm-209 16l5 4 3 8v2l-11-7 2-1 1-6zm214 7l-1 2-1 3h-3l1-3 4-2zm-199 5q14-3 20 4l2 2h20l2 3 2 9 4 4 1 2-1 2-7-8-23-9-1-3-11 1v1l-8-8zm-5 2l3 2h-1l-2-2zm5 2l2 2h-1l-1-2zm133 0l1 1 1 1 4 1-14 5v-1l9-4-4-1 3-2zm14 0l5 3-3 5h-5l2-3-1-3h1l1-2zm-64 8l11 6-2 1 4 5 2-1 4 2-11 5 1-2-1-4-5 2v-1l-1-7-3 2-2 5 3 4 1 1h-4l-6-3v-3q-13 4-17-2l1-2 5-2 5 4 1 1 8-4v-2l3-1 3-4zm-18 126l1 1h-1v-1zm-2 2v2h-1l1-2z" fill="#d8d8d8" stroke="#d8d8d8"/><path d="M208 90l9 1-3 5-4 1 1 5h-3l-4-8 4-4zm42 0l3 1-1 2 5 3h-10l-1-2 4-4zm6 0l8 4 1 2-1 3-5-2 4-1-7-6zm18 0l3 1-2 3-4 2v1l-1-2 4-5zm6 0l11 1-4 5-5-1-2-5zm18 0l10 1-4 10-4-2-2-9zm25 0l7 4 1 2-1 7-4-1-2 1-1-13zm19 0q10-2 12 4v2l-12-3v-3zm238 0l8 4v2h-12l4-6zm-349 1l3 3v2h-6l3-5zm246 0l3 3v2h-6l3-5zm78 0l3 3v2h-6l3-5zm-143 5l2 1-2 5-3-3 3-3zm45 0l-1 2-1 2-5 2v-1l1-2 6-3zm-55 1l2 6 7 5h-16l3-4 3-1-2-1 3-5zm39 0l2 5-2-2h-2l2-3zm24 0l3 8q-3 6-14 3l8-9 3-2zm78 0l3 3-1 3-7 5 2-3v-3h-4l7-5zm-278 3l5 2 1-2 15 7 2-1q-3 5-14 2l-9-8zm-72 2l14 6h-18v-1l3-1 1-4zm29 0l6 4 1 2h-15l2-3 6-3zm19 0l5 1-3 5h-5l3-6zm113 0l9 6h-17l2-3 6-3zm32 0l4 2 2 4h-10l2-3 2-3zm95 0l11 1-3 5-9-3 1-3zm18 0l11 4 1 2h-9l-3-6zm20 0l3 1-3 5h-4l4-6zm10 0l5 3 1 3h-3l-3-6zm67 0l40 40v1l-39-35-1-6zm-25 1l9 5h-4l-6-3 1-2zm-423 17l2 1v2l-5 2-1-1 4-4zm10 72l4 4v6l-4-10zm287 4l3 2-3 1 17 9v2q-16 2-21-5l-2-6 5-1 1-2zm-281 8l1 1 3 7-3-2-1-6zm209 6l3 1-11 5 2-3 6-3zm99 0l3 3 2 3 8 6-5 1 1 5 3 2 11 16 3-2v3l1 5 8 1-3 2v9l-11-3-2 1-5-8-4-1 4-1q2-13-3-18l-8-2 4-7-16-4 5-8 1 3h5l-2-6zm126 0l1 1-4 9-1-6 4-4zm-96 30l14 15-16-13 2-2zm-327 24l4 3-2 3h-3l1-6zm330 10l11 11 1-2 3 5 2-1v7h-3l-4-1-4-7h-2l-4-10-1 4-2-3 2-1 1-2zm36 10l5 12-3-2-2-6-1 2-1-2h1l1-4zm-24 12l4 10h-1l-3-10zm-342 4l5 4v11q-8-4-5-15zm372 6l2 1 1 4-3 1v-6zm-24 8l5 16h-2q-7-3-3-16zm-349 6l1 4 5-3v6q-2 5-11 3v-1l5-9zm0 14v3l-3 5h-3l6-8zm0 12v23l-5 3-1-18 6-8zm352 38l2 1v5l-5 2-1-4 4-4zm-285 2l5 12-3-2-2-10zm-15 16l7 9h-1l-6-9zm294 0l2 1q2 9-3 11h-3l4-12zm-6 18l1 1-2 5h-2l3-6zm0 12l2 1-2 5h-4l4-6zm-285 1l5 15h-1l-4-15zm232 45l1 1 1 7 1 1-5 3-3-1v-3h-5l8-5v-2l2-1zm-187 2l10 12 4 4v1l-10-4-2-4-2-9zm176 9v7l-3 2-3-4 6-5zm-21 9l3 3-2 3-4-2 3-4zm-92 127l5 3v1l-6-2 1-2zm13 6l3 1 1 4h-2l-3-1 1-4z" fill="#e2e2e2" stroke="#e2e2e2"/><path d="M218 90l4 3v3h-8l4-6zm36 0l4 4v2l-6-3 2-3zm24 0l4 4 2 2 4-1 4-5 8 4 2 6 3 2-5 1 3 4 20-11 1 9-3 3h-23l-5-6-5 2-2 3-4-2-3-9h-8l5-3 2-3zm31 0l9 2-1 4-5-1-2-4-3 2 2-3zm55 0l28 1-2 5h6v-3l-1-3 7 4-3 8 2 1-8 5-2-3 3 2 2-4-5-1h-2l-5 2-3 4q-19 3-26-5l11-2-1-5h-5l4-6zm48 0q11-3 14 4l2 2 4-1 4-5 5 1-3 5 3 1-2 3 3 2-4 1 3 5h-29l-4-5 6-3v-4h-6l4-6zm95 0l3 3v3h-6l3-6zm-171 5l3 2-2 3 16 3-14 5-8-5-1-3 1-4 5-1zm-71 1l5 1v5l-6-2 1-4zm193 0l4 1-9 11h-11l14-9 2-3zm-253 6l16 1-13 5-3-6zm19 0l10 1-3 5-3-1-1-3-3-2zm282 0l12 1-3 5-5-1-1-3-3-2zm27 0l7 1-3 5-3-1-1-5zm-387 60l1 1 3 9h-1l-3-10zm6 12l1 1 3 9h-1l-3-10zm218 6l4 1-11 5v-1l7-5zm63 10l3 2-3 1 5 3 6 11 5 3 4 5 2-1-2-3 9-1-1-4-4-1 5-1 1-2 13 8-2 1 1 1-6-2-6 11 16 4-4 7 9 4 2 16h-2l-8-5-2-5-4-1 4-1-6-9 4-6v-2l-7 5-15-8-2-4-10-8-2-4-4-2-3-9 3-1 1-2zm-10 8l3 6h-2l-3-4 2-2zm58 16l3 2-4 1 6 3v2l-8-5 2-1 1-2zm21 27l14 16h-1l-8-3v-2h-9l4-11zm-121 5l1 1h-1v-1zm148 16l11 25h-1l-4-7h-2l-7-15 2-1 1-2zm-30 6l5 8h-2l-3-8zm18 14l5 3-1 3-3-1-1-5zm-6 4l5 7 2 1h-4l-3-8zm-289 4v5l-5 7-1-1 6-11zm-47 17l5 14-5 3v-17zm96 19v2h-1l1-2zm221 0v2h-1l1-2zM235 435l6 5 5 7 12 7q-2 10 4 13l8 5-6 3v7l-19-20h1l1-2 5 2v-3l-18-17-1-5 2-2zm42 39q24 7 38 24h-6l-8-6-19-1-8-10 2-1 1-6zm172 10l3 3-7 6-6-1 10-5-3-1 3-2zm-118 17q3 7 18 3l11 6 2 1-6 4-8-5-6 4v2l-6-2-2-4-4-2 1-7zm43 3l13 1-3 7-10-8zm-4 6l2 6-3 5-3-5 4-6z" fill="#efefef" stroke="#efefef"/><path d="M183 90l-3 4 1 2 3 2h-2l-1 3h2l2-1 1 5-2 4-3 1-1-4 3-4-3-1v-4l-3 5 2 1-10 5-1-2 6-8 3-1-2-1 8-6zm39 0l8 1-2 5 3 1-2 4 1 1h-9l1-3-1-3h1v-6zm259 5l5 2-2 4h-2l-1-4-1 4-3-4 4-2zm100 1l7 4v2l-7-6zm-4 6l3 2 1 3-1-1-4-1 1-3zm2 6l3 1v1l-3-2zm-435 22l1 2 7 1q-3 6-13 5l-1-2 6-6zm0 14l2 1-2 16-6-11 4-5 2-1zm-15 6l3 3-2-2-3 2 2-3zm-2 4l5 2 1-2 11 14h-6l-10-7-1-4-1 3-2-3 2-1 1-2zm485 16l1 4-6 11-1-4 6-11zm-245 10l1 1-11 5v-1l10-5zm257 7v5l-5 10-1-4 6-11zm-20 11l2 1-5 7h-2l5-8zm-447 24l9 2 2 3 1-3 1 4-2 1v5l-12-9 1-3zm437 2v5l-5 7-1-1 6-11zm-145 3l9 7h-1l-11-5 3-2zm-193 7l1 1-4 7-1-1 4-7zm3 0l1 1-2 1 1-2zm240 0l5 4v2h-6l1-6zm-338 24q12-2 15 6l-3 2-2 4-7-1-3-11zm211 20v4l-5 8-1-1 6-11zm211 38l5 12h-1l-4-12zm-421 4v5l-5 7-1-4 6-8zm280 4l4 1-12 5v-1l8-5zm147 40l5 12h-1l-4-12zm-31 6v2l-5 10-1-4 6-8zm-402 4l1 4 1 1-2 5-5-2 5-8zm12 10l2 1-1 3-4 2 3 2-3 10h-5l2-4 3-1 2-5-1-1-3 2-1-3h-2l8-6zm-14 12l2 1-5 7-1-4 4-4zm362 14l1 4 2 1-2 4-1-4-5 9-1-3 6-11zm-365 8l13 3-2 5-4 1v2l-2 1 2 6 3 2h-7q-8-4-3-20zm72 0q7 4 5 18h-1l-6-16 2-2zm389 6v5l-6 11 5 8-4 2-1-4-9-2-2 4-1-12 18-12zm-80 2l2 1-3 5h-8l9-6zm-16 11l1 1-3 5-3-1 1-2 3-1 1-2zm-353 1l5 4v1l-6-2 1-3zm342 8v2h-1l1-2zm-6 3v2h-1l1-2zm99 1l2 1 1 5 1 1-10 5-3-3 5-7 4-2zm-95 10l1 5-3 2-4-5 6-2zm-208 38q12-2 16 6l1 3-5-3-1 3-12-6 1-3zm171 0l2 1v2l-4 2v-1l2-4zm-16 3l-2 3-1-2 3-1zm-24 3l7 1-2 3-5-1v-3zm-24 4q5 3 0 5l-4 2-1-1 5-6zm-6 6v2h-1l1-2zm-119 76v2h-1l1-2zm18 10l4 2v3h-4v-5zm13 7l3 1 1 4h-2l-3-1 1-4zm105 24v4l-4 1-1-2 5-3zm-29 19v2h-1l1-2zm-3 3l1 1h-1v-1z" fill="#c7c7c7" stroke="#c7c7c7"/><path d="M318 90l6 4v3l-3-1-18 11-3-4 5-1-1-2 5-9 3 3 2 2 4-1v-5zm22 0l3 4 3 2h-9l-1-2 4-4zm53 0l3 3-2-2-3 2 2-3zm49 0l2 6h-5l-1-2 4-4zm53 0l3 3v3h-6l3-6zm-164 10l1 3 6 5h-4l-3-8zm108 2l10 1-7 5-3-6zm145 1l4 3v2h-3l-1-5zm-158 89l6 4 2 8-2 1 4 4 2 1 1-2 7 8-8 1 2 3 10 2 1-2 15 8 6-5 1 3-5 6 6 8h-8l-8-5-2-5-27-13-6-12 3-1-3-6-2 1-1-1 4-5 2-1zm21 6l14 6h-4l-10-6zm2 12l6 3-1 2-5-5zm75 48l4 4v2h-3l-1-6zm11 22l5 8h-2l-3-1v-7zm-319 28v5l-5 8-1-2 6-11zm6 76l5 4 1 8-6 1v1l-7-8 2-1 4 1 1-4v-2zm-5 16l7 8 6 6-2 1v1l-12-5 1-11zm10 2l6 4 1 5h-1l-6-9zm2 19l7 11 2 2 2 6-7-4-4-15zm113 11l2 1-10 5 2-3 6-3zm103 8l5 13-3-2-2-11zm-210 2l13 14-2 1v5h-3l-8-20zm24 11q17 25 53 33l1-2 3 2-3 1 5 3 1 8h-3q-15-17-39-24l-1 6-6 1v5l-6-3 1-9 5-2-11-7v-12zm219 9l1 1-4 7-1-2h-2l6-6zm-10 10l1 2 1 1-5 11h-3q-2-12 6-14zm-11 8l1 1-7 4-1-1 7-4zm-127 18l11 6h-7l-4-6zm78 0l10 1-10 5v-1-5zm-58 6l17 1-1 2-8 3-8-6zm38 0l2 1 1 5 1 1-7 4-1-7 4-4z" fill="#f5f5f5" stroke="#f5f5f5"/><path d="M393 91l3 3v2h-6l3-5zm-2 11l5 1-2 4-4-2 1-3zm-15 78h20l11 6q17-3 25 4v2l-11 4-1 3 12 20 5 3h-4q-10-10-33-6l-8-6h-21l-8 6h-16q-5 7-18 6l-28 14-35 35-12 18-8 16v10l-6 8v69l18 37h1l7 15 29 28 15 8 2 4v2h-6l-28-14q-15-18-36-29l-5-11-3-1-6-16 4-1 1-3h1l-3-8-9-4 1-3h5l-3-11-7-1-2 6-6-3v-65l6-9v-9l6-15 24-41 4-2 2-4 4-2 2-4 3-1v-2l6-4v-2l6-4v-2l10-8 57-27h27l9-6zm58 12q8-2 10 4v2h-6l-1-4-3-2zm18 6l10 4v2l-10-6zm-19 6l5 4v2l-5-3v-3zm43 6l4 4v2h-3l-1-6zm-37 6q9-2 11 4v2l-12-3 1-3zm55 6l22 22v1l-21-17-1-6zm-114 25l3 1q-1 15 7 23v13l12 29 2 17h36l8-6h41l2 2v3l-10 3-22 16 1 1-19 11 1 1-20 12-2 7 12 23 17 52-1-1-44-33-2-5q-16-2-21-14-9 12-24 18l1 1-25 17 1 1-7 5 1 1-14 10-2-4 12-23 18-55-14-7-46-34-11-3 1-4 46-1 18 10 1 2 22-8 1-15q8-6 6-21l6-8v-13q8-8 8-24zm92 221l2 1-3 5h-3l4-6zm-158 18l15 6h10l8 6 61 2-1 4-16 6-1-6h-48q-8-8-24-7l-1-9-3-2zm131 0l4 1-10 5-1-2 7-4zm-18 6l5 4v2h-12l1-3 6-3z" fill="#fefefe" stroke="#fefefe"/><path d="M174 94v3l-3 5h-5l8-8zm468 60v2l-5 10-1-3 6-9zm-24 4v4l-5 10-1-3 6-11zm-461 24l5 12-3-2-2-10zm230 28l11 6h-1l-10-6zm48 12l13 6h-3l-10-6zm177 4v2l-5 10-1-3 6-9zm-6 30v5l-5 7-1-3 6-9zm-89 46l5 14h-1l-4-14zm6 26l5 12h-1l-4-12zm84 34l5 12-3-2-2-10zm-456 20l5 7 1-2 2 3-4 2-4 6v-16zm11 11v4l-3 5h-3l2-4 3-1-2-1 3-3zm6 25v19h-1l-2-5-3 1 6 8-7-4-4-7 3-4h2l6-8zm444 12v16l-4-3-2-5 6-8zm-78 3v5l-11 20-1-2-12-3 4-3 5-12 3 1 1 11 3-1 8-16zm64 11l8 4 1 2 5-3-4 5-1 3-1-4-3 5h-3v-6l-5 2v-3l3-5zm-426 6l2 4-3 2 2-3-1-3zm330 1l5 5-3 1v4l-4-8 2-2zm87 9l5 4-1 4-4 3 2 3-3-2 1-12zm-105 2l5 1-8 10-1-4 4-7zm8 6l5 3q-5-5-10 6l2 3-3 1v1h-4l-1 3 1 1h-5l3-5-2-1-4 3 6-9 1 5 5-8 6-3zm-26 24l10 1-1 3-3 2 1 1-5 3v-1-3l-4 2-1 3 3 2-7 5 1 1-12 5 5-6 3-2 5-8-1-3 2-4 1 4 3-5zm-24 6l3 3 2 3 4-1 2 2-2 4-1-4-5 8-1-3h-9l7-12zm-261 6l5 4v2l-6-2 1-4zm112 0l12 6h-4l-8-6zm14 0l5 4 1 6-2-2-4-1-1-3 1-4zm108 0l8 1q-15 14-42 17v-1l24-10v-2l10-5zm-67 20l4 3 3-2-4 3-3-4z" fill="#bcbcbc" stroke="#bcbcbc"/><path d="M363 96l3 3-2 3-4-2 3-4zm-26 90l1 1-11 5v-1l10-5zm-30 12l3 1-13 5v-1l10-5zm294 110l5 12-4-3-1-9zm-421 20v2l-5 10-1-3 6-9zm149 38l9 6h-1l-8-6zm104 0l1 1-9 5 2-3 6-3zm-276 24l5 1-3 5 2 1-4 2-1-3h-3l4-6zm6 42l3 2 8 18-2-2-4 1-2 4-7-10-9-4 1-5 17 8v-3l-5-9zm431 14v4l-5 8-1-4 6-8zm-89 10l5 4 1 2 7 1-1 3-5 3-1 3-5 3-1 3v-22zm101 1v6l-3 5-8 2-2-7 11-2 2-4zm-111 12l4 11 3 1-11 5 1-2v-4l-4-1-1-2 8-8zm111 0v8l-5 3-1-2 6-9zm-127 6v2l-5 9h4 4l2 1q-5 8-21 5l-1-2 17-15zm-25 11l2 1-1 6-4 2-1-5 4-4zm32 2v4h-1l-1-2 2-2zm-145 4l11 6h-3l-8-6zm144 1l1 1-3 4-16 7-3-1 9-5 1-3 1 2 10-5zm-25 6l1 1-4 6-1-2h-5l9-5zm-36 5l3 4 17 3 1 5 3 1q-8 8-26 5v-1l4-2-2-8-2 1-5 10h-3v-4l-4-1q-6 9-18 11v-1l32-23zm-121 6l13 6h-3l-10-6zm36 12l11 6h-1l-10-6zm21 0l1 1h-1v-1zm15 0l17 1q-3 8-17 5l-3-3 3-3zm-181 1l6 5-2 1v1l-4-7zm66 54l3 1 1 4h-2l-3-1 1-4zm65 41l5 4v1l-6-2 1-3z" fill="#b4b4b4" stroke="#b4b4b4"/><path d="M625 96l5 3v3l-5-3v-3zm6 12l5 2v4l-6-3 1-3zm-514 6l3 3-5 3-1-3 3-3zm526 0l5 3v3l-6-3 1-3zm-537 12l2 1-2 5h-4l4-6zm404 6l11 4 1 3-7 9-5 2-11-8 7-8 4-2zm127 0l14 2-3 2 1 2 3-1 1-2 1 4-3 4-3 1-12-9 1-3zm-271 12l5 4 1 3-3 4-3 1-5-3-1-3 4-5 2-1zm301 0l5 3-1 3h-5l1-6zm-217 6l5 4 1 3-5 8 4 7-5 4v-2l-8 5-10-5-6 4v2h-7l3-4 9-4v-2l-11-4-1-4-5 2 2 4 4 3-2 3-5-6-5-2 3-4 3-1v-5l-6 2-2 4-4 1 8 11 4 4 1 2h-1l-6-3-1-3-9-4-8 5 2 5h-9l1-2 10-21q16 1 24-6l4 5-2 1 2 5h4l1-2 15 8 6-17 2-1zm-2 6l-3 4 3 1 2-4-2-1zm-52 12l-4 3 1 2 3-2v-3zm-47 6l11 1-1 3-4 2 4 1-7 5 2-3v-3h-8l3-6zm101 3l-4 7 3 7h-1l-6-4 2-1 1-5 5-4zm-3 15l3 1v1l-3-2zm16 0l9 8 1 3h-1l-9-4 2-1-2-6zm-300 4l5 12h-1l-4-12zm308 8l3 1v1l-3-2zm147 8v5l-5 7-1-1 6-11zm-119 4l4 4 1 2h-2l-3-6zm-131 6l6 1-2 5h-6l2-6zm160 0l5 4 1 4-2 1v-2l-2 1-2 4 2 1-1 2 15 26 8 5 2 2 2 2 4 10 2 2 2 11-6 13-5-7-1 3-2-3 3-2 2 1q5-4 3-16l-4-3-1-4-1 2-2-3h2l-1-6-10-2-2 1-4-8-6-3-1 2-8-13 2-1-6-11 4-2 6-10 2-1zm-209 6l3 1-13 5v-1l10-5zm-168 2l5 12-3-2-2-10zm425 22v7l-6 9 6 7-9 6-3-11 10-17 2-1zm-183 1l3 11h-3l-4-1-2-4 3-1 3-5zm66 0l15 7q-1 14-12 20l10 8 9-6 9 6 3-6 5 2 4 10 2 2 4 10 2 2v7l-5-3-1 3 7 5 3 4 2 2q-3 18 5 26l-11 18 6 3-5 7-1-2h-2l2-3-10-8-2 1v-2l-6 1v1l-5-2-1 5 1 1-7 1 1 5h5l1-5 3 5h2l1-2 10 7h1l1 1h5l1-2 5 3v5l-4 2-4 10-4 1 3 5-7 2-10 15-10-5-11 7-1-7-6 3v4l-4-2-2-17 10-17 14-7-1-6h-6l1-2-5-3-1-3v-4h-2l1-2-2-4h-3l4-6 15 6 4-3 3-19 9-5 2-9 3-1 1-2-4-3h-30l-1 4 2 2h-16l2-5-6-1-8 6 2-3v-3h-6l-23 12-2-1 13-13-5-7 17-12-17-18 19-19 19-7zm-17 11l-4 6 1 9 5 3h6q1-15-8-18zm9 18l-7 10 10 7 2-1 1 2 2-1 3-4-1-1v-1l-2-5-8-6zm31 97l-1 2 4 1v-1l-3-2zm132-121l4 1-3 5h-3l2-6zm14 0l1 1-2 5h-3l4-6zm-394 1v5l-5 10-2-3 7-12zm-77 7l5 12-4-3-1-9zm113 2v2l-5 8-1-1 6-9zm271 3l5 10 1-2 2 3-3 1v2 2l-5-10-1 3-2-3 2-1 1-5zm69 11l2 1 10 17 2 2q-2 12 4 16l2 2-1 34-3-1-2-17-6-11v-19l-3-5-9-4 1-8 3 5h2l-5-9 3-3zm-213 16l10 14h-1l-5-2-4-12zm170 15l9 7v6h-4l-1 3-3-10-2 1-2 11 4 4 2 1 1-5 13 17-2 1-1 11-4 2-1-2-6 1v1l-6-2q3-25-8-35l2-1 1-6 8-5zm-157 6l4 3-1 2-3-1v-4zm-164 1v5l-5 7-1-1 6-11zm337 12l5 12-4-3-1-9zm-373 2v2l-5 10-1-4 6-8zm-30 4v5l-5 7-1-1 6-11zm-24 14v2l-5 10-1-4 6-8zm414 12l1 2 1 1-8 7 6-10zm-105 2l-2 3 5 6-6-5 3-4zm28 3l3 2 2-1-3 2-2-3zm87 3l2 2v10l-6 3q7 3 6 16l-6 12 5 9-2 1q-4-6-15-5l-11 6-1-4 9-7 3-7-3-6h-3v-12l-5 3 3-4 2-4 1 4 3-5 2 1 3 5 6-5 7-13zm51 0l5 3-1 15-10-8 6-10zm-130 1l2 2-1 2-3-1 2-3zm88 18q7 5 5 19l-4-3-1-16zm42 11l5 2-1 4h-5l1-6zm-37 10v11l-5 8-1-11 6-8zm27 3l2 2-1 2-3-1 2-3zm-236 5l5 2 3 4 3 2 2 2 3 2 1 3v5l-17-20zm95 6l5 3v1l-5 2-3-1 2-1v-2h-2l3-2zm151 0l5 2-1 4h-5l1-6zm-155 2v2h-1l1-2zm-14 2v3l-5 9 3 1h3l-4 7-3-1q-2-15 6-19zm-197 3l5 13-3-2-2-11zm311 5l6 1-1 11-10-3-1-3 4-5 2-1zm58 6l1 1-4 9-4 2h-3l10-12zm-166 6l1 1-1 5 5 1-17 5v-1l8-9 4-2zm54 10v2l-5 8h-2l7-10zm-84 20v3l-5 3v1l-1-3 6-4zm76 6l2 1-3 5h-3l4-6zm-103 1l2 2-1 2-3-1 2-3zm40 29l3 1-13 5v-1l10-5zm-29 18l6 1-2 5h-6l2-6zm163 0l-2 3-1-2 3-1zm-237 18v3l-3 2-2-2 5-3zm60 0l11 4 1 9-8 10-8-6-2-12 2-1 2 2h2l-1-4h-2l3-2zm-157 18l7 3-2 3-5-2v-4zm182 47l-1 4-2 3-4-2 3-4 4-1zm-104 24l11 7h-3l-9-5 1-2zm105 0v2l-11 5v-1l11-6z" fill="#252525" stroke="#252525"/><path d="M187 108l3 1-11 5 2-3 6-3zm386 0l11 6-2 1v-2l-9-5zm33 74v4l-5 10-1-3 6-11zm-225 28l3 3 1 1 3 2h-13v-1l3-1 3-4zm-206 32l5 14h-1l-4-14zm298 4l9 6h-1l-8-6zm-245 26v4l-5 10-1-3 6-11zm-72 90v4l-5 10-1-3 6-11zm225 40l12 12-11-11-12 11 11-12zm165 14v4l-5 10-1-3 6-11zm-377 6l5 12-4-3-1-9zm341 50v5l-6 5 6-10zm-341 26l8 1 3 5 1-4 1 4-2 1 2 5 4 3 1-2 5 10 1-3 1 4-1 2-18-14-1 12h-3l-5-11 2-1 1-12zm258 24l3 1-11 5 2-3 6-3zm149 0l6 1 1 5 1 1-1 3-1-4-3 6h-3v-6h-8l-12 12 10-13 10-5zm-24 22l1 2 1 1-8 7v-2l-11 5-1-1 6-5 1 1 11-8zm-282 40v2h-1l1-2zm-3 3l1 1h-1v-1zm169 31l2 1-3 5h-3l4-6zm24 0l4 1-6 5-1-1 3-5zm-11 13l1 1v1l-9 3v-1l8-4zm-94 3l6 3-2 5-5-1-1-3-4-1 5-1 1-2zm-18 6l1 3 6 5h-1l-7-3 1-5zm34 1l11 7-4 1v1l-1-2h1l-8-5 1-2zm-22 1l3 2 2 3 1-4 2 5-3 1 2 5h-1l-7-3 1-9z" fill="#848484" stroke="#848484"/><path d="M178 114l4 1-15 11 11-12zm-16 16v5l-7 3 7-8zm432 88v4l-5 10-1-3 6-11zm-323 4l1 1-9 5 2-3 6-3zm132 98l6 8 3 2h-6l-3-1v-9zm-76 4l9 3v5l-9-8zm-117 14v4l-5 10-1-3 6-11zm1 54l5 14h-1l-4-14zm383 42v4l-5 10-1-3 6-11zm-257 4l1 1-9 5 2-3 6-3zm-150 68l5 15h-1l-4-10-1 2-2-3h2l1-4zm-12 4l18 15 5 6h1l7 9-2 1v5l-6 1 6 11h-2q-15-9-21-27l-2 1-7-9 2-1 1-12zm393 18l4 1-2 5h4l2-1 1 1 2 1-12 17h-3v-12h-8l12-12zm-13 18l3 1-9 11h-3l9-12zm-326 10l3 2-3 1 5 3 1 3-1 5q-10 2-12-3l1-3h5l-2-6h2l1-2zm329 2v3q-2 5-10 3v-1l10-5zm-12 6v3l-5 3v-1l3-4 2-1zm-299 4l4 7h-1l-6-4 1-2 1 1 1-2zm269 0l1 2 1 1-6 4v-1l4-6zm-266 20l8 3v3l-5-3-1 2-2-5zm229 4l1 1 1 1h1l-3 4-4 2-1-2 6-3-4-1 3-2zm-30 18l1 1 1 1 1 1-7 5-1-2 5-3-3-1 3-2zm31 2v3l-10 3v-1l10-5zm-15 6l3 1v2l-8 3 5-6zm-134 4l3 2 3 4 3 2 2 3 6 3h1l1 1 4 3v2l-6 1v7l-4-1-3-5-4-1-1-3-8-9 2-1-2-6h2l1-2zm88 6l1 1 1 1 1 1-2 5 6 1v8l-10 3v-1l4-2v-3h-6l-1-6 2-6 4-2zm-100 2l5 2 6 7 5 3h-4l-11-5-2-4 1-3zm119 6v3l-7 3 3-4 4-2zm-77 7l5 17h-2l-8-5-2-6 6-1 1-5zm34 3l2 2-1 6h4q2-7 14-6v3l-2 4-23 11 1-2q-3-13 3-15v-2l2-1z" fill="#797979" stroke="#797979"/><path d="M581 114l9 6h-1l-8-6zm-415 12l4 1-8 7 4-8zm-12 12l4 1-13 15-1-3 10-13zm-21 38l5 14h-1l-4-14zm266 4l13 6h-3l-10-6zm-254 26l5 14h-1l-4-14zm467 24v4l-5 10-1-3 6-11zm-6 36v4l-5 10-1-3 6-11zm-101 12l5 14h-1l-4-14zm-325 54v4l-5 10-1-3 6-11zm348 36v4l-5 10-1-3 6-11zm-354 24v4l-3 6-2 1v-1l5-10zm-5 17q7 6 5 22h-1q-7-7-4-22zm365 31l1 3-6 9-1-1 6-11zm-299 6l5 12-3-2-2-10zm377 12v4l-5 10-1-3 6-11zm-96 8v2l-5 8-1-1 6-9zm-205 14l11 6h-3l-8-6zm-154 10l5 12h-1l-4-12zm176 32l13 6h-3l-10-6zm48 6l13 1-4 2-2 3-4-2v-2l-3-2zm192 0l3 1-2 5h-4l3-6zm9 1l1 4-6 9-1-2 6-11zm-377 11l15 12 3 4 3 2 2 6-6 1 9 11h3l-2-5 2-1 1-5 12 21 3 2v2l2 3 1-2 2 3-13-5-2-5q-16-2-22-13l-2-5-14-7 2-1-6-11 6-1 1-6zm351 0l8 1 1 11 1 1-8 7v-2l-11 6 3 1-3 1-1-2-5 4-1 2 4 1-25 17 1 1-11 5 7-8v-4h-6l3-5-2-1 11-7 3-4v-2l9-4-4-1 4-2 1 2 11-6 1 6 11-9v-3h-5l3-6zm-52 40v3l-3 4-6 1v-1l9-7zm-221 12l6 3-1 4 1 1-9-5 2-1 1-2zm202 0l1 1v16l-6 3 4 1-3 1-1-2-2 1 2-12-5-1 7-5 1-2 2-1zm-40 20l4 1-10 5v2l-1-2h-4l11-6zm21 0l2 1-3 5h-5l6-6zm-159 6l9 2 2 4h-5l-7-3 1-3zm125 5l2 2-2 11h4l8-7 1 1 4 1-10 5 3 1-3 1-1-2-8 6v1l-3 1-1-8h-6l3-6 3-1 1-5 5-1zm-89 5l6 3-1 5-9-5 3-1 1-2zm-19 2l12 9v5l-4-1 3-1-11-8v-4zm83 4l1 1 1 1 5 1-3 5-8 4-1 2 5 1-10 5-1-5 3-6v-2l3-1 1-4 4-2zm11 8l2 1-1 3-4 2 3 1-3 1-1-2h-3l3-5 1 4 3-5zm-45 3l4 3-2 1 5 5 4-1-1-4 3-1 4-1 3 2-5 18-7 3-17-9 2-1-3-11 3-1 1-2 5 2 1-3z" fill="#6c6c6c" stroke="#6c6c6c"/><path d="M588 119l27 26 3 7-32-31 2-2zM378 256v2l-5 10-1-3 6-9zm109 0l5 10-3-2-2-8zm-330 4l5 15h-1l-4-15zm449 11v6l-3 5-2 1-1-1 6-11zm-5 16l3 3 2 20h-1q-7-8-4-23zm-90 3l5 14h-1l-6-11 2-3zm-145 8v2l-5 10-1-3 6-9zm181 0l5 12h-1l-4-12zm6 24l5 12h-1l-4-12zm-127 2l5 1-12 5 3-4 4-2zm157 2l5 15h-1l-4-15zm-96 4l3 1-11 5 2-3 6-3zm36 2l5 15h-1l-4-15zm84 18l5 14h-1l-4-14zm-451 5v5l-5 10-1-4 6-11zm433 25l5 15h-1l-4-15zm-67 14v2l-5 10-1-3 6-9zm-348 3v16h-1l-2-5-3-1 6-10zm420 30v5l-5 10-1-4 6-11zm-287 29l5 4v2l-6-2 1-4zm156 18l1 1-9 6-1-1 9-6zm125 8v4l-5 10-1-3 6-11zm-89 4l1 1-11 5v-1l10-5zm-36 24l1 1-11 5v-1l10-5zm-95 18q12-2 16 4l1 2h-7l-10-6zm-187 4l5 10-3-2-2-8zm349 25l3 2-10 5v2l-1-2h-4l12-7zm-293 7l7 6 2 4 4 8h2l-3-5 4-2 6 2-1 4 6 5 2 2 4-1 7 2-1 4 18 11 2 2 4-1 7 2-1 4 6 4-2 3-4 1 2 3 10 4h1l2 4-3 1 2 6-2-2-28-16-9-11-4-2-1 3 2 4-3-5-4-1 4-1-5-3-7-13q-15 0-21-9l-7-15 2-2zm315 0l2 1-9 6-1-1 8-6zm-319 18l9 6v1l-9-7zm26 9l5 11h-2l-12-7 8-1 1-3zm217 2l2 2-9 5 2 1-3 2v-3h-2l10-7zm34 1l2 1-9 6 1-4 6-3zm-18 12l2 1-9 6-4-1 11-6zm-163 12l11 6-2 1h-2v1l-1-2h1l-7-6zm-4 6l5 4v2l-6-1 1-5zm122 0l3 1-1 3-4 2-1-3 3-3zm15 0l4 1-11 6-4-1 11-6zm-75 18l7 1-4 2-2 3-4-2 3-4zm33 6l4 1-11 6-1-1 8-6z" fill="#545454" stroke="#545454"/><path d="M650 134l2 1-1 3h-3l2-4zm-202 22l2 1-2 4-3-1 3-4zm-40 4l1 2 1 1-2 3 2 2-2 1v1l-6-7 6-3zm13 6l10 5v1l-10 5-1-3h-2l2-3-1-3h1l1-2zm-25 2v3l-3 2-1-2 4-3zm54 6v3l-6 5v4h-3l-3-8h2l3 1 7-5zm174 20v4l-5 10-1-3 6-11zm-275 22l1 1-11 5v-1l10-5zm182 13l1 1-1 4h-3l3-5zm-146 27l5 7 2 1-2 1v3l-5-12zm156 12l6 3-1 2 6 6 1-2 2 5h-5l-4-2v1l-5-13zm-81 26l2 1-3 4-2 1-1-2 4-4zm93 7l5 9-5 4-2-9 2-4zm-48 11l5 4v4l-5-8zm62 7l3 3v14l-5-3-1-9 3-5zm-44 19l5 12-3-2-2-10zm48 22l5 1-3 5h-3l1-6zm-43 4v2l-5 10-1-3 6-9zm-62 2l2 1 2 5q-3 6-7-2l3-4zm27 0l5 1-2 4-4-2 1-3zm-7 6l6 4v2l-4-1-1-4-1-1zm22 6l2 1v5h-6l4-6zm-26 1l3 2v1l-4-1 1-2zm28 21v6q-3 5-6-1l1-3 5-2zm-77 6l5 12h-1l-4-12zm-71 13v2l-9 5 2-3 7-4zm101 6l4 1h1l-5 16-3 1-3-1 6-17zm14 3l2 1v1h-3l1-2zm-76 4l7 3-2 9-5-12zm77 18l2 1v2l-8 3 2-3 1 2 3-5zm-327 8l5 12-3-2-2-10zm142 10l9 6h-1l-8-6zm141 17v2l-2 1 2-3zm172 9v4l-5 10-1-3 6-11zm-201 60l3 2v2l-4-1 1-3zm-135 28l6 1-3 5h-3v-6z" fill="#2f2f2f" stroke="#2f2f2f"/><path d="M619 148l5 5-2 3-2 1-1 3v-12zm-1 58v4l-5 10-1-3 6-11zm-234 4l10 6h-3l-7-3v-3zm33 6l13 6h-3l-10-6zm-266 10l5 12h-1l-4-12zm455 36v2l-5 10-1-3 6-9zm-215 16l5 14h-1l-4-14zm162 48l5 12-3-2-2-10zm54 30l5 12-3-2-2-10zm-18 14l5 13h-1l-4-13zm-438 77l5 13h-1l-4-13zm23 24v11l-2-2-10-2 12-7zm336 0l1 2-4 1 3-3zm-353 13l5 3v5l-6-3 1-5zm435 2l8 4 1 2 5-3-4 5-1 3-1-2-15 4 1-2 2-4-2-1 2-4 1 3 3-5zm-417 6l5 4v6l-2-4h-6l3-6zm305 6l2 1-21 12-1-1 20-12zm120 1v5l-3 6h-3l6-11zm-20 5l2 1-5 10-1-4 4-7zm-169 13l3 3 1 2 9 1q-6 9-26 5v-1l13-10zm55 83l2 1-2 5h-4l4-6zm-71 43l1 1v1l-5 2-1-1 5-3z" fill="#a2a2a2" stroke="#a2a2a2"/><path d="M642 148l6 5-2 3-3 2-1-10zm-231 8l3 1-2 5h-4l3-6zm10 0l5 3v3l-6-2 1-4zm-12 12l5 3 3 3 3 1-2 5-4-2-2-4-4-2 1-4zm-48 12l3 1-11 5 2-3 6-3zm-66 24l3 1-13 5v-1l10-5zm36 18l1 1-11 5v-1l10-5zm257 22v2l-5 10-1-3 6-9zm-109 8l7 4v1l-7-5zm69 18l4 3v3l-6-3 2-3zm58 7v16h-1l-2-5-3-1 2-5 2-1 2-4zm-58 5l10 3-3 15-7-18zm-326 2v4l-5 10-1-3 6-11zm-60 20v3l-5 10-1-4 6-9zm54 0v2l-5 10-1-3 6-9zm223 14l5 1-3 5h-13l11-6zm-234 49l5 13-3-2-2-11zm276 5l5 2v4l-6-1 1-5zm-12 1l5 3-3 2-2-5zm-48 4v2h-1l1-2zm137 3v4l-5 8-1-1 6-11zm31 5l5 13-3-2-2-11zm-37 19v4l-5 10-1-3 6-11zm-86 16l2 1-1 5-5-1 4-5zm128 4v3l-5 10-1-4 6-9zm-123 26l6 1-2 4-1-2-5 3-1-3 3-3zm60 0l-2 3-1-2 3-1zm-77 6l2 1-2 5h-4l4-6zm158 7v5l-5 8-1-2 6-11zm-175 21l1 1 1 1 3 1-4 2-2 3-4-2 3-5 2-1zm-16 8l3 1-11 5 2-3 6-3zm179 14v4l-5 8-1-1 6-11zm-24 2v2l-5 10-1-3 6-9zm12 18v2l-5 8-1-1 6-9zm-223 2l12 6h-4l-8-6zm31 0l4 1-10 5v-1l2-3 4-2zm-187 36l9 6h-1l-8-6zm43 10l2 2-1-1-1-1zm17 32l9 6h-1l-8-6zm72 41l11 7h-3l-11-5 3-2z" fill="#3a3a3a" stroke="#3a3a3a"/><path d="M121 154l5 10-3-2-2-8zm18 34l5 14h-1l-4-14zm461 12v4l-5 8-1-1 6-11zm-221 10l-1 2v1l-7 3 2-3 6-3zm-210 8l5 12-3-2-2-10zm-12 38l5 12h-1l-4-12zm336 6l5 10-3-2-2-8zm-133 58v4l-2 4-7 2v-1l7-5 2-4zm91 34l1 1-9 5 2-3 6-3zm-295 14v4l-5 8-1-1 6-11zm18 14v5l-5 7-1-3 6-9zm378 18v2l-5 10-1-3 6-9zm-383 34l5 13-3-2-2-11zm-18 7l10 7 5 7 2-1 1 2 5-2v17l-12 7 2 2-8-3v-21q-8-4-5-15zm461 7v5l-5 7-1-4 6-8zm-6 15v6l-6 11h3l3-2q3 11-3 14h-3l-1-4-7-2-3 5-1-18 3 1h3l3-6 7-1 2-4zm-123 18l2 2-3 2-1-1 2-3zm10 4l3 2-8 4v-1l2-4 3-1zm-6 7l3 1-3 1v-2zm99 0l2 1-5 9-1-3 4-7zm-132 12l2 1-3 5h-3l4-6zm-31 7l1 1 2 7-8 3 2-3 3-8zm-21 5l3 1q-5 9-17 11l4-7 10-5zm-43 7l11 5h-17l2-3 4-2zm161 41l2 1-2 5h-4l4-6zm-259 12l1 1h-1v-1zm-2 2v2h-1l1-2zm61 35l8 5-4 1v1l-4-7zm105 12l1 3-5 2-1-2 5-3zm-58 15l3 2 2 4v1l-10-4 4-1 1-2z" fill="#adadad" stroke="#adadad"/><path d="M636 164v4l-11 22-1-3 12-23zm-317 28l3 1-13 5v-1l10-5zM162 314v4l-5 8-1-1 6-11zm159 10l11 6h-1l-10-6zm148 18l1 1-9 5 2-3 6-3zm-259 2v26h-1l-5-15 6-11zm348 30v4l-5 10-1-3 6-11zm-384 14v2l-5 10-1-4 6-8zm79 28l5 12-3-2-2-10zm186 6l5 14h-1l-4-14zm-270 6l5 12-4-3-1-9zm371 0v4l-5 10-1-3 6-11zm54 12v4l-5 8-1-1 6-11zm18 14v2l-5 10-1-4 6-8zm-96 11l1 2-4 1 3-3zm-359 13l18 5 5 12-3-3-3 1-2 5-4 1v4l-5-8-2 1-1-3 2-1v-6l-6-2 1-6zm164 8l13 6h-3l-10-6zm279 9l1 3-6 11-1-2-5 3-1-6-6 2v-2h-2l2-4 1 3 3-5 14-3zm-23 20l-1 2-1 3-3 1v-1l2-4 3-1zm-262 1l11 6h-1l-10-6zm247 12l2 1-11 15-7 5-5 2-1-1 22-22zm-339 22l5 7h-1l-7-4 2-1 1-2zm280 27l-5 8-5 2-1-1 11-9zm-18 12l1 2-5 2-1-1 5-3zm-194 5l2 2 3 4-2 1v1l-6-4 3-4zm164 13l1 2-5 2-1-1 5-3zm-54 30l1 2-6 3 2 1-1 3-1-4h-4l9-5z" fill="#939393" stroke="#939393"/><path d="M252 238v2l-5 8-1-1 6-9zm-90 70v4l-5 10-1-3 6-11zm270 16l4 1-11 5 3-4 4-2zm-227 38l5 14h-1l-4-14zm125 42v4l-5 10-1-3 6-11zm-161 3l3 3 2 9h-1l-4-12zm-18 45l5 14h-1l-4-14zm30 79l2 3-4-1 2-2zm45 39l8 3v3l-8-6zm21 4l3 2 2 4v2l-4-1-1-7zm262 0l4 3-3 5 6 1-8 11 1 1-8 5 1 1-15 8-1-20 6-3 1 2 10-3 2-9 4-2zm19 8l2 1-10 5 2-3 6-3zm-270 6l10 8 4 8 3 2h-7l-10-18zm217 8l-1 2 1 2 5 1-2 12-10 5 4 1-3 1-1-2h-3l3-5-2-1-8 7-2 5 5 1-10 5 3 1-3 1-1-2h-5l5-3v-3l-6 3-8 9h-4l3-12 3-2 2-3v-2l4-2 1 3 8-5v-2l3-1 1-4 5-2 1 2 5-1 3-4-2-1 6-4zm-198 10l13 12h-1l-11-5-2-4 1-3zm36 4l6 3-1 3 10 8 2 3-3-3-3 1 1 5h-3l-3-5h-3l2-1-3-6h-5l2-3-1-3h1l1-2zm101 29l1 3 2 1-2 4-1-4-3 5h-9l4-5 8-4zm-52 4l4 3v2h-3l-1-5z" fill="#636363" stroke="#636363"/><path d="M588 248v4l-5 10-1-3 6-11zm13 54l5 14h-1l-4-14zm-18 18l5 14h-1l-4-14zm6 54l5 14h-1l-4-14zm-247 2v2l-5 10-1-3 6-9zm162 102v2h-1l1-2zm-1 3l1 1v1l-9 3v-1l8-4zm103 9v2l-5 10-1-3 6-9zm-443 5l5 15h-2l-5-13 2-2zm422 9l3 1 1 5 5-3 1 3 1 1-7 15-4 2h-3v-6l-17 6v2l-1-2h-2l8-10 1 4 5-3v-3h-2l2-4 1 4 5-10 3-2zm-33 39l1 2-7 4 6-6zm-321 15l11 6-2 1v1l-6-2v-4l-3-2zm34 22l4 4v3h-4l-3-4 2-1 1-2zm90 61l4 1h1v6l-4-1-1-4-1 4-3-4 4-2z" fill="#8c8c8c" stroke="#8c8c8c"/></svg>