<svg xmlns="http://www.w3.org/2000/svg" viewBox="0 0 36 36"><path fill="#009E49" d="M32 5H4a4 4 0 0 0-4 4v18a4 4 0 0 0 4 4h28a4 4 0 0 0 4-4V9a4 4 0 0 0-4-4z"/><path fill="#FFF" d="M1.808 5.654a3.978 3.978 0 0 0-.44.334v24.024c.139.121.286.233.441.335L36 18 1.808 5.654c.001-.001 0-.001 0 0z"/><path fill="#FCD116" d="M3.168 28.712 32.5 18 3.168 7.288z"/><path fill="#141414" d="M18 18 3.168 7.288l-1.8-1.3c-.31.271-.577.589-.791.942l.018 22.126c.214.354.463.684.773.955l1.8-1.3L18 18z"/><path fill="#CE1126" d="m.577 6.93-.001.002A3.975 3.975 0 0 0 0 9v18c0 .757.229 1.453.594 2.057L16 18 .577 6.93z"/></svg>