<svg xmlns="http://www.w3.org/2000/svg" viewBox="0 0 36 36"><path fill="#009B3A" d="M32 5H4a4 4 0 0 0-4 4v18a4 4 0 0 0 4 4h28a4 4 0 0 0 4-4V9a4 4 0 0 0-4-4z"/><path fill="#141414" d="M35.762 28.361c.154-.425.238-.883.238-1.361V9c0-.477-.084-.935-.237-1.359l-.001-.002L21.416 18l14.346 10.361zM14.584 18 .238 7.639v.001A3.984 3.984 0 0 0 0 9v18c0 .478.084.936.238 1.361L14.584 18z"/><path fill="#FFD202" d="M32.535 5.035 18 15.533 3.465 5.035h-.001A4.006 4.006 0 0 0 .237 7.638L14.584 18 .238 28.361l.001.003a4.005 4.005 0 0 0 3.223 2.6h.004L18 20.467l14.534 10.497a4.005 4.005 0 0 0 3.227-2.601l.001-.003L21.416 18 35.762 7.639a4.004 4.004 0 0 0-3.227-2.604z"/></svg>