<svg xmlns="http://www.w3.org/2000/svg" viewBox="0 0 36 36"><path fill="#141414" d="M32 5H4a4 4 0 0 0-4 4v4.5h36V9a4 4 0 0 0-4-4z"/><path fill="#007A3D" d="M0 27a4 4 0 0 0 4 4h28a4 4 0 0 0 4-4v-4.5H0V27z"/><path fill="#EEE" d="M0 13.5h36v9H0z"/><path fill="#C4111B" d="M1.129 6.223A3.984 3.984 0 0 0 0 9v18c0 1.08.433 2.057 1.129 2.777L12 18 1.129 6.223z"/><g fill="#C4111B"><path d="M17.894 18.033a3.467 3.467 0 0 1 2.817-3.405 3.467 3.467 0 1 0-.001 6.81 3.466 3.466 0 0 1-2.816-3.405z"/><path d="m19.13 20.132 1.478-1.057 1.467 1.073-.548-1.732L23 17.353l-1.817-.014-.556-1.73-.575 1.724-1.817-.006 1.462 1.079-.567 1.726z"/></g></svg>