<svg xmlns="http://www.w3.org/2000/svg" viewBox="0 0 36 36"><path fill="#EEE" d="M36 27a4 4 0 0 1-4 4H4a4 4 0 0 1-4-4V9a4 4 0 0 1 4-4h28a4 4 0 0 1 4 4v18z"/><g fill-rule="evenodd" clip-rule="evenodd" fill="#5C913B"><path d="M12.974 22.148c.013.061-.008.072-.073.053-.355-.1-.67-.26-.891-.568a.905.905 0 0 1-.148-.334c-.013-.059-.002-.09.068-.072.411.101.739.324.97.682.045.07.072.15.074.239zm8.469.069a.416.416 0 0 1 .064-.303c.23-.363.562-.584.977-.69.073-.018.075.021.063.074a1.015 1.015 0 0 1-.366.572 1.752 1.752 0 0 1-.738.347zm.95.23a.16.16 0 0 1-.059.092c-.294.269-.632.418-1.038.379a.58.58 0 0 1-.278-.113c-.045-.031-.042-.053-.001-.088.148-.127.319-.207.505-.256.255-.066.514-.084.776-.041.033.004.065.01.095.027zm-9.954-.049c.276.004.584.061.858.244.05.033.133.07.128.119-.006.057-.09.084-.149.109a.792.792 0 0 1-.515.031 1.375 1.375 0 0 1-.689-.369c-.023-.023-.059-.051-.046-.084.01-.025.053-.023.083-.029.094-.019.189-.021.33-.021zm1.091-.384a.774.774 0 0 1-.044.271c-.019.051-.042.059-.087.025a.843.843 0 0 1-.285-.412c-.096-.267-.141-.541-.072-.822.024-.098.035-.1.104-.027.256.271.36.601.384.965zm7.35-.03c.028-.338.13-.666.383-.932.073-.078.087-.076.106.027.079.412.004.793-.25 1.131-.039.053-.099.131-.154.115-.066-.018-.062-.115-.074-.184-.01-.043-.007-.09-.011-.157zm-2.228.62c.032.551-.229.947-.604 1.303-.119-.432.093-1.097.604-1.303zm-2.282 1.314c-.362-.352-.628-.723-.614-1.236.002-.076.026-.078.085-.043.35.209.508.529.546.92.012.111.011.224-.017.359zm3.627-1.908c.067.193.059.387.02.582a1.14 1.14 0 0 1-.325.629c-.09.084-.104.082-.151-.035a.706.706 0 0 1-.016-.445 1.379 1.379 0 0 1 .441-.719l.031-.012zm-5.59-.008c.333.223.567.764.488 1.1-.015.066-.028.156-.085.174-.053.016-.105-.062-.145-.111-.28-.341-.351-.725-.258-1.163zm5.622 1.43c.326.02.607.137.824.391.07.082.065.09-.041.119-.271.074-.522.006-.766-.107a1.4 1.4 0 0 1-.366-.246c-.045-.041-.044-.066.016-.09a.861.861 0 0 1 .333-.067zm-5.644.002a.781.781 0 0 1 .306.057c.093.037.097.049.023.111a1.482 1.482 0 0 1-.718.353.85.85 0 0 1-.401-.016c-.103-.029-.107-.035-.036-.119a1.112 1.112 0 0 1 .826-.386zm5.786.826c-.384.185-.944.174-1.219-.254-.038-.062-.028-.082.038-.098.456-.105.84.03 1.181.352zm-5.928.004a1.225 1.225 0 0 1 1.164-.36c.096.023.098.029.043.109-.189.277-.46.377-.782.357a1.01 1.01 0 0 1-.425-.106zm1.399-.922a.722.722 0 0 1-.045.228c-.021.057-.045.062-.091.024a1.257 1.257 0 0 1-.358-.516c-.082-.203-.147-.41-.11-.635.005-.027.005-.066.028-.074.032-.014.051.025.071.045.22.217.406.453.483.76.009.035.013.07.018.108l.004.06zm3.128.004a.892.892 0 0 1 .11-.414c.102-.201.245-.373.407-.531.048-.045.069-.049.084.023a.935.935 0 0 1-.037.455c-.076.266-.195.508-.407.697-.078.068-.085.064-.122-.031a.568.568 0 0 1-.035-.199zm.662 1.398c-.199.014-.401.021-.6-.035-.272-.078-.442-.269-.564-.514-.018-.035-.02-.057.031-.057.471.002.845.195 1.127.566.006.006.008.016.012.025 0 .003-.003.007-.006.015zm-4.471.008a.786.786 0 0 1 .227-.272c.259-.213.55-.344.893-.342.058 0 .087.004.051.072-.174.344-.445.533-.834.539-.107.005-.214.003-.337.003zm5.395-1.932c-.132-.195-.142-.402-.091-.615.053-.228.169-.426.323-.602.042-.049.063-.041.091.01a.65.65 0 0 1 .06.42 1.492 1.492 0 0 1-.383.787zm-6.583-1.255c.311.269.553.887.286 1.244-.348-.266-.511-.977-.286-1.244zm-.502 1.863a.859.859 0 0 1-.451-.113c-.092-.059-.09-.067-.011-.135.18-.158.393-.178.616-.145.17.025.335.074.501.117.057.016.056.035.023.074a.568.568 0 0 1-.279.152c-.121.036-.246.05-.399.05zm7.841 0a1.186 1.186 0 0 1-.501-.098l-.05-.025c-.05-.029-.12-.062-.117-.119.003-.051.083-.043.13-.055.217-.057.432-.123.66-.105.14.012.261.064.367.154.08.068.081.076-.011.135-.148.095-.316.109-.478.113z"/><path d="M18.027 24.555c-.25-.061-.502-.121-.752-.184a.292.292 0 0 0-.144 0c-.25.064-.502.123-.755.18a1.62 1.62 0 0 1 .551-.27l-.815-.283c.1-.016.165.016.231.033.262.068.526.125.792.176.114.021.22-.016.328-.037.319-.062.635-.145.952-.225-.299.125-.608.223-.936.334.208.067.389.143.548.276z"/></g><path fill-rule="evenodd" clip-rule="evenodd" fill="#F4900C" d="m25.774 11.114-.149.073c-.268.126-.521.299-.838.278-.03-.002-.065.014-.071.048-.021.1-.097.112-.176.113a.42.42 0 0 0-.356.193.653.653 0 0 1-.398.281c-.056.012-.108.044-.157.074a.735.735 0 0 1-.467.112c-.055-.006-.091.011-.124.056-.077.103-.162.202-.244.301-.045.053-.094.106-.161.119-.224.044-.402.181-.596.286-.362.196-.726.39-1.132.485-.168.039-.346.087-.51.043-.135-.036-.218.009-.309.075a1.22 1.22 0 0 0-.158.127.776.776 0 0 1-.673.232.221.221 0 0 0-.143.019c-.22.12-.468.123-.706.169-.108.022-.219-.017-.322.008-.246.057-.487-.01-.726-.032-.177-.017-.351-.058-.53-.029a.321.321 0 0 1-.282-.081c-.078-.07-.157-.075-.245-.024a.226.226 0 0 1-.23.007.345.345 0 0 0-.267-.022.588.588 0 0 1-.345.014c-.271-.087-.551-.151-.811-.271-.125-.058-.125-.054-.113.088.014.165.071.323.065.492-.008.231-.018.461-.036.692-.026.343-.204.574-.498.735a.322.322 0 0 1-.322.007c-.204-.1-.405-.206-.619-.286-.273-.102-.541-.127-.816-.008-.094.041-.175.129-.294.099-.007-.002-.02.013-.028.021-.096.1-.196.197-.233.337-.054.201-.142.373-.344.475-.111.056-.202.15-.317.204-.158.074-.351.086-.465-.018-.135-.124-.333-.198-.396-.397-.012-.037-.055-.065-.08-.009-.054.124-.106.252-.042.39.047.101.097.2.175.28a.178.178 0 0 1 .046.089.786.786 0 0 1 .002.348.225.225 0 0 0 .03.184c.026.042.074.102.051.132-.092.118-.006.192.048.277.004.008.01.017.01.026-.004.138.095.187.199.233.062.028.125.059.147.131.059.192.085.393.153.585.023.065.038.11.1.145.141.078.291.143.378.297.041.072.135.094.223.084.034-.004.076-.018.094.014.042.068.109.068.17.062.143-.016.244.045.325.154a.307.307 0 0 0 .163.113c.146.049.292.098.431.162.083.039.164.053.243-.01.021-.016.045-.018.07-.014a.392.392 0 0 0 .349-.104c.041-.037.091-.062.144-.037.089.041.173.021.261 0 .097-.025.199-.033.288.018.166.094.27.248.372.404.066.1.065.209.046.32-.007.039.007.045.042.047.191.014.383.031.579.049-.017-.065-.064-.107-.098-.156-.075-.113-.123-.236-.079-.367a.832.832 0 0 1 .449-.49c.088-.043.183-.08.272-.123.25-.123.507-.108.766-.033a.374.374 0 0 0 .382-.119.086.086 0 0 1 .064-.031c.07-.01.143-.021.211 0 .073.025.132.025.186-.043.024-.029.069-.037.11-.035.027 0 .051 0 .074-.025.063-.074.151-.102.243-.123.021-.004.043-.002.059-.021.135-.169.331-.215.529-.255a.237.237 0 0 0 .161-.104c.145-.21.289-.263.536-.198.062.017.078-.005.093-.057.026-.094.068-.182.155-.232.049-.028.061-.062.061-.111.001-.142.003-.284.006-.425.007-.328.248-.499.498-.539.153-.024.308-.007.461-.004.106.003.2.031.287.088.079.053.151.115.231.168.078.054.158.049.242.003.072-.04.105-.092.083-.174-.013-.051.013-.066.06-.063.071.005.153.023.209-.016.13-.088.262-.044.393-.035.05.003.102.002.144.028.108.07.249.063.351.149.007.006.021.001.056.001-.053-.028-.048-.058-.04-.093a.283.283 0 0 0-.048-.229c-.079-.113-.221-.179-.243-.336-.005-.03-.056-.056-.087-.08-.061-.047-.124-.091-.186-.137-.037-.028-.075-.06-.085-.106-.037-.181-.162-.298-.286-.418a.917.917 0 0 1-.288-.855c.018-.11.029-.224.104-.31.066-.076.145-.137.138-.25-.001-.013.011-.031.021-.039.131-.108.259-.219.45-.18a.668.668 0 0 0 .248.003c.109-.017.194-.073.225-.191.016-.062.028-.129.062-.183.177-.289.435-.501.713-.683.114-.075.253-.125.38-.186.081-.038.16-.083.249-.095a.181.181 0 0 0 .126-.077c.158-.207.328-.401.597-.471.074-.019.109-.084.136-.153.033-.09.065-.188.148-.24.259-.163.482-.398.815-.416.072-.003.111-.044.129-.112l.07-.277c.003-.004.011-.01.01-.012-.011-.007-.02-.002-.028.003z"/></svg>