<svg xmlns="http://www.w3.org/2000/svg" viewBox="0 0 36 36"><path fill="#4189DD" d="M32 5H4a4 4 0 0 0-4 4v13.055h36V9a4 4 0 0 0-4-4zM6.276 11.276l-.943 3.057-.943-3.057-3.057-.943L4.39 9.39l.943-3.057.943 3.057 3.057.943-3.057.943zM4 31h28a3.991 3.991 0 0 0 3.867-3.028H.133A3.991 3.991 0 0 0 4 31zm-4-6.972h36V26H0z"/><path fill="#FFF" d="m5.333 6.333-.942 3.058-3.057.943 3.057.943.943 3.057.943-3.057 3.057-.943-3.058-.943-.943-3.058zm.727 4.727-.726 2.355-.727-2.355-2.355-.726 2.355-.726.726-2.355.727 2.354 2.355.726-2.355.727z"/><path fill="#D21034" d="m5.333 7.252-.726 2.355-2.355.726 2.355.727.726 2.355.727-2.355 2.355-.727-2.355-.726z"/><path fill="#F9D616" d="M0 22.055h36v1.972H0zM0 27c0 .337.054.659.133.972h35.734A3.95 3.95 0 0 0 36 27v-1H0v1z"/></svg>