<svg xmlns="http://www.w3.org/2000/svg" viewBox="0 0 36 36"><path fill="#EEE" d="M0 12.9h36v10.2H0z"/><path fill="#171796" d="M36 27a4 4 0 0 1-4 4H4a4 4 0 0 1-4-4v-4h36v4z"/><path fill="#D52B1E" d="M32 5H4a4 4 0 0 0-4 4v4h36V9a4 4 0 0 0-4-4z"/><path fill="#D52B1E" d="M11.409 7.436V18.97a6.591 6.591 0 0 0 13.182 0V7.436H11.409z"/><path d="M14.25 18h2.5v2.5h-2.5zm2.5 2.5h2.5V23h-2.5zm0-5h2.5V18h-2.5zm2.5 2.5h2.5v2.5h-2.5zm0-5h2.5v2.5h-2.5zm2.5 2.5h2.341V18H21.75zm-7.5-2.5h2.5v2.5h-2.5zm7.5 10h.805a6.08 6.08 0 0 0 1.334-2.5H21.75V23zm-2.5 0v1.931a6.074 6.074 0 0 0 2.5-1.171V23h-2.5zm-5 0v-2.5h-2.139a6.069 6.069 0 0 0 1.334 2.5h.805zm-2.341-7.5h2.341V18h-2.341zM14.25 23v.76a6.074 6.074 0 0 0 2.5 1.171V23h-2.5z" fill="#FFF"/><path fill="#171796" d="m24.757 8.141-1.998.791-1.328-1.682-1.829 1.126L18 6.949l-1.603 1.428-1.826-1.128-1.331 1.684-1.995-.793-1.122 2.08 1.331 2.862.176-.082c.78-.363 1.603-.662 2.443-.888l.04-.011a15.042 15.042 0 0 1 2.523-.451l.064-.006c.705-.06 1.896-.06 2.601 0l.058.005c.824.074 1.678.226 2.536.453l.033.009c.836.225 1.658.524 2.441.889l.175.082 1.331-2.861-1.118-2.08z"/><path fill="#0193DD" d="m16.638 8.681.221 2.563c.33-.026.729-.051 1.141-.051.412 0 .811.025 1.141.051l.221-2.563L18 7.468l-1.362 1.213zm7.941-.053-1.698.673-.668 2.489c.731.206 1.45.468 2.144.779l1.086-2.336-.864-1.605zm-13.157-.002-.866 1.606 1.087 2.336c.69-.31 1.409-.572 2.144-.779l-.67-2.49-1.695-.673z"/></svg>