<svg xmlns="http://www.w3.org/2000/svg" viewBox="0 0 36 36"><path fill="#002D62" d="M36 27a4 4 0 0 1-4 4H4a4 4 0 0 1-4-4V9a4 4 0 0 1 4-4h28a4 4 0 0 1 4 4v18z"/><path fill="#DD2E44" d="M32 5H20v11h16V9a4 4 0 0 0-4-4z"/><path fill="#CE1225" d="M4 31h12V20H0v7a4 4 0 0 0 4 4z"/><path fill="#EEE" d="M36 15H21V5h-6v10H0v6h15v10h6V21h15z"/><path fill="#002D62" d="M18.022 15.945h-1.917l.335.323v1.655h1.582v-1.978zm0 3.936c.255-.278.429-.267 1.15-.267.385 0 .43-.262.43-.771v-.92h-1.58v1.958z"/><path fill="#CE1225" d="M18.022 19.881c-.255-.278-.429-.267-1.151-.267-.386 0-.431-.262-.431-.771v-.92h1.582v1.958zm0-3.936h1.915l-.335.323v1.655h-1.58v-1.978z"/><path fill="#FFF" d="M18.295 19.677v-3.732h-.547v3.735a.69.69 0 0 1 .274.201.744.744 0 0 1 .273-.204z"/><path fill="#FFF" d="M16.44 17.644h3.161v.547H16.44z"/><path fill="#002D62" d="m18.022 17.556 1.038-1.108v.335l.192-.161v1.851c0 .687-1.082.619-1.231.302-.149.317-1.232.385-1.232-.302v-1.851l.193.161v-.335l1.04 1.108z"/><path fill="#FFF" d="M18.022 18.743c-.498.267-.821.057-.821-.198v-.318c-.193 0-.411-.099-.411-.162v-.273c0 .081.324.155.411.155v-.958l.18.143v-.249l.274.28v.196l-.181-.153v.81c.187 0 .333.111.548.111.214 0 .36-.111.547-.111v-.81l-.18.153v-.196l.273-.28v.249l.181-.143v.958c.087 0 .41-.075.41-.155v.273c0 .063-.218.162-.41.162v.318c0 .255-.324.466-.821.198v-.279c.267.155.547.193.547.025v-.199c-.187 0-.333.112-.547.112-.215 0-.361-.112-.548-.112v.199c0 .168.281.13.548-.025v.279z"/><path fill="#CE1225" d="M18.389 17.164v.196l.18-.153v.81c-.187 0-.333.111-.547.111-.215 0-.361-.111-.548-.111v-.81l.181.153v-.196l.367.393.367-.393z"/><path fill="#CE1225" d="M16.79 18.066v.407c0 .687 1.083.619 1.232.302.148.317 1.231.385 1.231-.302v-.407c0 .061-.218.161-.41.161v.318c0 .254-.324.465-.821.198-.498.267-.821.057-.821-.198v-.318c-.193 0-.411-.099-.411-.161z"/><path fill="#002D62" d="M18.438 15.282c.019-.05.038-.122.056-.188a3.917 3.917 0 0 0-.472-.03c-.16 0-.331.012-.473.03.018.066.037.138.056.188.012.038-.062.131-.329.115a4.167 4.167 0 0 0-.854.059c.049.075.067.09.062.148-.007.065-.16.126-.427.164-.267.037-.37.314-.462.711a1.817 1.817 0 0 0-.375-.101c.06-.258.267-.844.526-.903-.063-.14-.048-.21.193-.323.261-.122.703-.196 1.19-.214-.031-.118 0-.165.153-.231.131-.057.339-.1.741-.1.4 0 .609.043.739.1.154.065.184.113.154.231.486.018.929.092 1.189.214.241.112.256.183.193.323.258.059.466.645.525.903-.101.015-.27.058-.373.101-.092-.397-.196-.674-.464-.711-.267-.038-.421-.099-.427-.164-.007-.058.013-.073.061-.148a4.162 4.162 0 0 0-.853-.059c-.266.016-.34-.078-.329-.115z"/><g fill="#996B38"><path d="m18.022 17.65 1.273-1.09.028.033-1.301 1.113zm0-.122 1.075-1.167.031.031-1.106 1.2zm0-.16.854-1.179.034.025-.888 1.228zm0 .282-1.273-1.09-.028.033 1.301 1.113z"/><path d="m18.022 17.528-1.075-1.167-.031.031 1.106 1.2zm0-.16-.855-1.179-.035.025.89 1.228z"/></g><path d="m19.274 16.544.183-.096-.122.167c-.01.009-.069-.063-.061-.071zm-.2-.195.172-.117-.102.18c-.01.009-.078-.055-.07-.063zm-.221-.172.157-.137-.082.191c-.008.012-.082-.044-.075-.054zm-2.084.367-.184-.096.123.167c.01.009.069-.063.061-.071zm.199-.195-.17-.117.103.18c.008.009.076-.055.067-.063zm.222-.172-.156-.137.08.191c.009.012.083-.044.076-.054z" fill="#FFCE46"/><path fill="#FFF" d="M17.713 17.372c.05-.041.191-.109.274-.065.064-.074.216-.138.299-.095l.176.543c-.049.035-.148.017-.21.055-.017.01-.065.037-.073.057-.03-.013-.098-.006-.146.01-.044.013-.075.059-.127.066l-.193-.571"/><path d="m17.908 17.948-.197-.575.001-.003c.054-.044.194-.107.277-.065.058-.07.215-.139.299-.095l.178.545c-.026.021-.063.026-.102.031a.27.27 0 0 0-.109.028c-.022.013-.065.037-.072.056-.032-.012-.103-.002-.147.011-.019.006-.035.018-.052.03-.023.016-.046.032-.076.037zm-.191-.575.193.57a.204.204 0 0 0 .069-.038.21.21 0 0 1 .054-.031c.045-.015.114-.024.148-.009.003-.019.046-.043.066-.055.035-.021.076-.026.116-.031.038-.004.074-.009.097-.026l-.178-.54c-.075-.039-.226.02-.293.096-.081-.042-.218.022-.272.064z"/><path fill="#549334" d="M19.707 20.28c.163-.001.379.043.447.068a1.039 1.039 0 0 0-.285-.149c.149.024.187.049.287.074.069.02.08.027.083.127.001.067.001.154.042.014.038-.126.052-.144-.015-.186a1.38 1.38 0 0 0-.261-.135c.192.05.348.112.441.173a.74.74 0 0 0-.236-.229c.112.026.262.087.367.144a.742.742 0 0 0-.244-.229c.17.036.351.092.449.147-.095-.125-.203-.235-.345-.278.189.023.368.08.449.129-.11-.105-.225-.216-.338-.254.155.021.299.061.383.099a.866.866 0 0 0-.449-.22c.117.002.267.013.394.039a.776.776 0 0 0-.368-.108c.193-.044.41-.038.647.04a1.588 1.588 0 0 0-.443-.171c.094-.005.231-.027.319-.015a1.657 1.657 0 0 0-.434-.073c.19-.056.379-.092.493-.113-.199-.013-.423 0-.622.032.22-.187.38-.187.523-.211.142-.025.249-.056.101-.071-.096-.009-.174-.017-.241-.018.155-.047.351-.146.416-.181.065-.034.224-.149.053-.072-.171.078-.416.09-.638.115a.607.607 0 0 0-.229.064c.12-.069.255-.142.396-.21.141-.068.11-.091.233.049.059.069.055 0-.022-.178-.062-.138-.115-.074-.25-.021-.05.02-.114.048-.188.088.078-.093.348-.405.392-.458.048-.053.119.009.211.068.088.06.058.003-.026-.094-.085-.096-.125-.111-.181-.064-.055.047-.325.218-.476.361.276-.261.596-.556.669-.639-.158.085-.3.18-.427.278.044-.062.124-.178.166-.227-.064.043-.152.089-.202.136.074-.132.152-.253.163-.274.017-.034.035-.042.061-.044l.14-.012c.08-.006.049-.023.014-.032-.222-.058-.213-.033-.263.015a1.975 1.975 0 0 0-.136.16c.056-.173.224-.334.251-.383-.174.096-.266.171-.328.25.079-.128.328-.324.403-.402-.077.031-.239.112-.282.162.041-.073.08-.149.116-.227a.949.949 0 0 0-.312.334c.008-.032.021-.08.034-.12.044-.085.164-.202.226-.271.063-.068.077-.087.254.025a.662.662 0 0 0-.091-.174c-.051-.077-.075-.044-.145.014-.039.031-.075.075-.145.136.076-.196.165-.406.212-.542a1.464 1.464 0 0 0-.306.485c.006-.137.081-.417.068-.56a.862.862 0 0 0-.154.352c-.004-.151-.006-.338-.043-.445.011.093-.085.306-.11.455-.06-.142-.126-.279-.164-.374.003.074.024.245.056.447-.05-.155-.231-.317-.237-.441-.005.18.125.485.139.572.002.028.013.07.023.118-.062-.1-.21-.28-.249-.398 0 .074.028.204.042.285-.078-.072-.133-.03-.265.219.043-.013.093-.068.13-.093s.072-.052.112.012c.05.082.185.27.258.51-.021-.069-.146-.231-.19-.302.01.034.032.146.047.211a1.651 1.651 0 0 0-.167-.345c-.004.081.056.309.065.405-.035-.083-.074-.156-.105-.218.023.064.057.292.053.409a2.503 2.503 0 0 0-.142-.223c.032.094.059.28.064.387a.98.98 0 0 0-.045-.082c-.062-.1-.103.081-.14.174-.038.093-.018.08.025.016.065-.099.057-.086.095.022.024.064.091.217.146.417-.054-.088-.129-.205-.169-.292-.041-.087-.044-.082 0 .091.028.113.099.323.07.547a6.192 6.192 0 0 0-.149-.465c.008.097.02.281.02.359a.402.402 0 0 0-.083-.11c.041.131.051.358.051.5a.947.947 0 0 0-.084-.229 2.61 2.61 0 0 0 .051.456 1.034 1.034 0 0 0-.09-.237c.021.116.028.307-.006.431a.808.808 0 0 0-.048-.189c-.01.058-.024.227-.065.3a.814.814 0 0 0 .016-.268 1.544 1.544 0 0 1-.119.315c.015-.055.036-.16.042-.264-.014.065-.058.118-.082.174.012-.092.015-.169.011-.205a1.224 1.224 0 0 1-.204.391c.048-.126.061-.26.061-.341-.08.141-.087.201-.214.369a.496.496 0 0 0 .041-.324c-.01.036-.054.14-.118.252a.945.945 0 0 1 .03-.334c-.055.037-.13.144-.13.224a.464.464 0 0 0-.1-.205c.043.278.027.52-.14.631-.372.244-.687.785-1.142.986a.77.77 0 0 1 .144.125c.435-.192.728-.625 1.065-.867.16-.086.527.107.932.002.156-.04.46.05.596.106-.064-.087-.187-.157-.406-.2z"/><path fill="#549334" d="M16.575 19.999c.075-.013.28-.011.443.016-.108-.041-.039-.298-.17-.394.134.062.191.04.262.052l.025.007a.244.244 0 0 1 .031-.148c.018.068.093.083.158.133.01.007.021.017.033.028.003-.081.12-.187.133-.24.025.072.091.123.115.225.062.262-.143.317-.068.504.372.244.703.731 1.157.933a.736.736 0 0 0-.143.125c-.603-.267-.992-1.04-1.544-1.078l-.042.017c-.137.066-.265.116-.386.09a.537.537 0 0 0-.33.06c.153-.237.232-.305.326-.33a.52.52 0 0 1-.348.007c-.068.165-.228.212-.371.23-.143.02-.248.077-.293.156a.53.53 0 0 1 .01-.234.765.765 0 0 0-.227.005c.085-.033.162-.274.37-.303a.38.38 0 0 1-.102-.098c.049.028.093-.003.183-.027a.656.656 0 0 1 .183-.02.362.362 0 0 1-.137-.204c-.064.194-.276.246-.401.255-.15.01-.221.059-.249.1 0-.092.03-.167.064-.217-.062.006-.119.008-.151.021a.397.397 0 0 1 .171-.276c-.091-.021-.217-.181-.224-.295.072.083.367-.003.511.158a.406.406 0 0 1-.147-.287c.033.044.104.045.174.085-.097-.352-.341-.273-.485-.385-.183-.144-.109-.393-.255-.511.064 0 .117.004.16.015-.031-.076-.03-.226-.027-.316.035.112.159.097.237.206a.166.166 0 0 0 .015-.091c.056.067.108.125.141.187-.01-.118.038-.187.074-.219-.003.042.009.144.056.237s.065.199.03.37c-.032.162.034.287.117.406.009-.071-.001-.278-.023-.343s-.032-.174-.01-.296c.013.05.071.122.134.183a.15.15 0 0 1 .035.062c.02-.044.033-.078.048-.115.02-.056-.239-.15-.225-.442-.174-.097-.331-.226-.374-.459a.291.291 0 0 0 .096.05c-.096-.143-.121-.324-.087-.414.023.075.099.094.181.152.02-.155-.144-.267-.14-.416.006-.236.13-.239.173-.386a.734.734 0 0 1 .077.157c.028-.099.148-.173.15-.248.062.09.108.191.074.293a.28.28 0 0 1 .226.03c-.152.028-.143.211-.243.258-.1.047-.287.178-.24.376.062.068.12.177.153.364.03.029.057.065.076.107a.724.724 0 0 0 .066-.148c-.009-.078-.112-.164-.14-.24-.038-.101.052-.255.016-.392.049.019.133.05.192.125.046-.108.135-.176.137-.357.037.071.068.149.088.226a.547.547 0 0 1 .27-.195c-.072.124-.047.246-.05.349-.003.102-.006.274-.155.388-.149.116-.188.147-.22.438.063-.137.214-.243.22-.316.031.13.056.23.052.319.05-.059.14-.092.246-.097-.075.086-.131.425-.33.465-.198.041-.278.242-.332.324-.068.103-.085.182-.017.318a.696.696 0 0 1 .054-.296c.066-.132.208-.187.217-.28a.997.997 0 0 1 .025.241c.1-.202.311-.144.37-.203a.53.53 0 0 0-.103.237.384.384 0 0 1-.22.267c-.092.044-.172.051-.22.146-.012.056.036.103.036.188a.199.199 0 0 1 .028-.08c.057-.082.094-.144.094-.19.125.124.152.246.112.376-.04.132-.07.238.011.342a.451.451 0 0 0 .156.087c.066-.066-.011-.146-.086-.224-.075-.077-.068-.26-.006-.335.062-.077.116-.156.112-.224.046.04.096.113.111.153a.29.29 0 0 1 .106-.142c.01.109.081.159.081.277a.272.272 0 0 1 .156-.156c-.016.06.039.151.047.208a.304.304 0 0 1-.022.152.289.289 0 0 1-.152.165c-.029.014-.074.028-.119.049.106-.014.299.021.343.1-.079-.03-.25.033-.334.067z"/><g fill="#CE1225"><path d="M18.12 20.687c-.02-.018-.049-.026-.098-.026-.048 0-.077.009-.097.026-.196-.067-.323-.038-.323.023v.188c0 .032.072.072.337.008.02.012.041.022.083.022.043 0 .067-.01.087-.024v.001c.266.065.338.024.338-.008v-.188c0-.062-.128-.092-.327-.022z"/><path d="M18.427 20.679a.8.8 0 0 1 .238.055 2.136 2.136 0 0 0-.029.225.569.569 0 0 0-.208-.07v-.21zm-.805 0a.807.807 0 0 0-.238.055c.01.041.03.191.03.225a.564.564 0 0 1 .207-.07v-.21z"/><path d="M18.022 20.485c.567 0 1.023.034 1.386.112-.044.034-.083.079-.112.101-.033.028-.021.106.054.173a.443.443 0 0 0 .438.042l.104-.046c-.051.043-.093.1-.07.153.107.239.519-.075.765.226.066-.084.231-.259.299-.324-.14-.17-.335-.142-.496-.129.059-.097.065-.171-.064-.263-.052-.038-.233-.032-.399.043.03-.078.025-.206-.232-.319-.392-.176-1.057-.212-1.672-.212-.616 0-1.282.036-1.674.212-.257.113-.263.241-.231.319-.168-.075-.347-.081-.401-.043-.128.092-.121.166-.062.263-.162-.013-.357-.041-.497.129.068.066.234.24.298.324.246-.302.659.013.765-.226.024-.054-.018-.11-.068-.153l.103.046a.442.442 0 0 0 .438-.042c.075-.067.087-.145.054-.173-.03-.022-.067-.067-.113-.101.363-.077.819-.112 1.387-.112z"/></g></svg>