<svg xmlns="http://www.w3.org/2000/svg" viewBox="0 0 36 36"><path fill="#003893" d="M32 5H4a4 4 0 0 0-4 4v10h36V9a4 4 0 0 0-4-4z"/><path fill="#EEE" d="M0 19h36v2H0zm0 5h36v2H0z"/><path fill="#CF2027" d="M0 21v3h36v-3H0z"/><path fill="#003893" d="M4 31h28a4 4 0 0 0 4-4v-1H0v1a4 4 0 0 0 4 4z"/><path fill="#F7D116" d="m14.347 15.903.764-.555h-.944l-.292-.898-.292.898h-.944l.764.555-.292.899.764-.555.764.555zm6.182 4.492.764-.555h-.944l-.292-.899-.292.899h-.945l.765.555-.292.898.764-.555.764.555zm-12.364 0 .765-.555h-.945l-.292-.899-.292.899h-.944l.764.555-.292.898.764-.555.764.555zm0 4.017.765-.555h-.945l-.292-.898-.292.898h-.944l.764.555-.292.898.764-.555.764.555zm12.364 0 .764-.555h-.944l-.292-.898-.292.898h-.945l.765.555-.292.898.764-.555.764.555zm-6.362 3.936-.292-.898-.292.898h-.944l.764.555-.292.899.764-.555.764.555-.292-.899.764-.555zm4.001-.686.764-.555h-.945l-.291-.898-.292.898h-.945l.764.555-.292.898.765-.555.764.555zm0-10.504.764-.555h-.945l-.291-.898-.292.898h-.945l.764.555-.292.898.765-.555.764.555zM9.582 27.662l-.764-.555h.945l.291-.898.292.898h.945l-.764.555.292.898-.765-.555-.764.555zm0-10.504-.764-.555h.945l.291-.898.292.898h.945l-.764.555.292.898-.765-.555-.764.555z"/></svg>