<svg xmlns="http://www.w3.org/2000/svg" viewBox="0 0 36 36"><path fill="#039" d="M32 5H4a4 4 0 0 0-4 4v18a4 4 0 0 0 4 4h28a4 4 0 0 0 4-4V9a4 4 0 0 0-4-4z"/><path d="m18.539 9.705.849-.617h-1.049l-.325-.998-.324.998h-1.049l.849.617-.325.998.849-.617.849.617zm0 17.333.849-.617h-1.049l-.325-.998-.324.998h-1.049l.849.617-.325.998.849-.617.849.617zm-8.666-8.667.849-.617h-1.05l-.324-.998-.325.998H7.974l.849.617-.324.998.849-.617.849.617zm1.107-4.285.849-.617h-1.05l-.324-.998-.324.998h-1.05l.849.617-.324.998.849-.617.849.617zm0 8.619.849-.617h-1.05l-.324-.998-.324.998h-1.05l.849.617-.324.998.849-.617.849.617zm3.226-11.839.849-.617h-1.05l-.324-.998-.324.998h-1.05l.849.617-.324.998.849-.617.849.617zm0 15.067.849-.617h-1.05l-.324-.998-.324.998h-1.05l.849.617-.324.998.849-.616.849.616zm11.921-7.562-.849-.617h1.05l.324-.998.325.998h1.049l-.849.617.324.998-.849-.617-.849.617zm-1.107-4.285-.849-.617h1.05l.324-.998.324.998h1.05l-.849.617.324.998-.849-.617-.849.617zm0 8.619-.849-.617h1.05l.324-.998.324.998h1.05l-.849.617.324.998-.849-.617-.849.617zm-3.226-11.839-.849-.617h1.05l.324-.998.324.998h1.05l-.849.617.324.998-.849-.617-.849.617zm0 15.067-.849-.617h1.05l.324-.998.324.998h1.05l-.849.617.324.998-.849-.616-.849.616z" fill="#FC0"/></svg>