<svg xmlns="http://www.w3.org/2000/svg" viewBox="0 0 36 36"><path fill="#009543" d="M1.067 29.701A3.973 3.973 0 0 0 4 31h28a4 4 0 0 0 4-4V9a3.97 3.97 0 0 0-1.019-2.643L1.067 29.701z"/><path fill="#003580" d="M34.933 6.299A3.973 3.973 0 0 0 32 5H4a4 4 0 0 0-4 4v18a3.97 3.97 0 0 0 1.019 2.643L34.933 6.299z"/><path fill="#EEE" d="M36 9a4 4 0 0 0-4-4h-.664L0 26.942V27a4 4 0 0 0 4 4h.664L36 9.059V9z"/><path fill="#D20F34" d="M32.984 5.136.175 28.108a3.988 3.988 0 0 0 2.912 2.777L35.843 7.949a3.986 3.986 0 0 0-2.859-2.813z"/><path fill="#FFCE00" d="m8 8 .809 1.981L10.5 8.67l-.29 2.12 2.12-.29-1.311 1.691L13 13l-1.981.809L12.33 15.5l-2.12-.29.29 2.12-1.691-1.311L8 18l-.809-1.981L5.5 17.33l.29-2.12-2.12.29 1.311-1.691L3 13l1.981-.809L3.67 10.5l2.12.29-.29-2.12 1.691 1.311z"/><circle fill="#003580" cx="8" cy="13" r="3.175"/><circle fill="#FFCE00" cx="8" cy="13" r="2.467"/></svg>