<svg xmlns="http://www.w3.org/2000/svg" viewBox="0 0 36 36"><path fill="#C4272F" d="M36 27a4 4 0 0 1-4 4H4a4 4 0 0 1-4-4V9a4 4 0 0 1 4-4h28a4 4 0 0 1 4 4v18z"/><path fill="#005197" d="M12 5h12v26H12z"/><g fill="#F9CF01"><path d="M1.286 16.429h1.571V29H1.286zm2.395 2.357H8.32v.786H3.681zm5.462-2.357h1.571V29H9.143zm-5.462 9.427H8.32v.786H3.681zm.087-9.427h4.464L6 17.989zm-.087 11.198h4.638L6 29.249zm3.89-15.913a1.57 1.57 0 1 1-3.141 0 1.57 1.57 0 0 1 3.141 0zm-.785-2.946c0 .759-.352.982-.786.982s-.786-.223-.786-.982C5.214 8.008 5.754 7 6 7s.786 1.008.786 1.768z"/><path d="M6 14.404c-1.303 0-2.438-.593-3.084-1.477a3.137 3.137 0 0 0 6.168.001c-.646.883-1.781 1.476-3.084 1.476zm2.569 8.31a2.558 2.558 0 0 0-1.649-2.39c.299.257.58.447.58 1.062 0 .973-.578 1.496-1.5 1.496v.009a1.198 1.198 0 0 0-1.158 1.193c0 .645.516 1.167 1.158 1.191v.008c.01 0 .018-.003.028-.003.005 0 .009.003.014.003.015 0 .027-.008.042-.008a2.563 2.563 0 0 0 2.485-2.561zm-2.94 1.37c0-.229.183-.413.413-.413a.413.413 0 1 1-.413.413z"/><path d="M6 20.152v-.006l-.021.002-.01-.002c-.011 0-.02.006-.031.006a2.564 2.564 0 0 0-2.507 2.562c0 1.096.687 2.023 1.649 2.391-.299-.257-.557-.448-.557-.999 0-.98.524-1.522 1.43-1.522l.002-.018c.005 0 .009.003.014.003.668 0 1.211-.546 1.211-1.212 0-.659-.527-1.188-1.18-1.205zm-.031 1.62a.417.417 0 1 1 0-.835.417.417 0 0 1 0 .835z"/></g></svg>