<svg xmlns="http://www.w3.org/2000/svg" viewBox="0 0 36 36"><path fill="#009E49" d="M4 5a4 4 0 0 0-4 4v15.323L26.496 5H4z"/><path fill="#CE1126" d="M32 31a4 4 0 0 0 4-4V11.186L8.767 31H32z"/><path fill="#FCD116" d="M26.496 5 0 24.323v1.874L29.066 5zM8.767 31 36 11.186V9.312L6.197 31z"/><path fill="#141414" d="M32 5h-2.934L0 26.197V27a4 4 0 0 0 4 4h2.197L36 9.312V9a4 4 0 0 0-4-4z"/><path d="m27.152 9.729-2.074 1.513-2.079-1.505.798 2.439-2.074 1.513 2.567-.005.797 2.44.789-2.443 2.567-.004-2.08-1.505zM13.185 19.915l-2.074 1.513-2.079-1.505.798 2.439-2.074 1.513 2.567-.005.797 2.44.789-2.443 2.567-.004-2.08-1.505z" fill="#FFF"/></svg>