<svg xmlns="http://www.w3.org/2000/svg" viewBox="0 0 36 36"><path fill="#377E3F" d="M0 27a4 4 0 0 0 4 4h28a4 4 0 0 0 4-4v-1H0v1z"/><path fill="#EEE" d="M0 23h36v3H0z"/><path fill="#377E3F" d="M32 5H4a4 4 0 0 0-4 4v1h36V9a4 4 0 0 0-4-4z"/><path fill="#EEE" d="M0 10h36v3H0z"/><path fill="#B40A2D" d="M0 23h36V13H0v10zm16.833-6.11L18 13.297l1.167 3.593h3.778l-3.057 2.221 1.167 3.593L18 20.483l-3.056 2.221 1.167-3.593-3.057-2.221h3.779z"/><path fill="#ECC81D" d="M14.944 22.703 18 20.483l3.056 2.22-1.167-3.593 3.056-2.22h-3.778L18 13.297l-1.167 3.593h-3.778l3.056 2.22z"/></svg>