<svg xmlns="http://www.w3.org/2000/svg" viewBox="0 0 36 36"><path fill="#EA0B19" d="M32 5H4a3.978 3.978 0 0 0-2.629.99L6.923 10H36V9a4 4 0 0 0-4-4z"/><path fill="#EEE" d="M13.846 15H36v-5H6.923z"/><path fill="#EA0B19" d="m18 18-4.154 3H36v-6H13.846z"/><path fill="#EEE" d="M6.923 26H36v-5H13.846z"/><path fill="#EA0B19" d="M1.371 30.01c.703.615 1.621.99 2.629.99h28a4 4 0 0 0 4-4v-1H6.923l-5.552 4.01z"/><path fill="#0F55EC" d="M13.846 21 18 18l-4.154-3-6.923-5-5.552-4.01A3.988 3.988 0 0 0 0 9v18c0 1.201.532 2.276 1.371 3.01L6.923 26l6.923-5z"/><path fill="#FFF" d="m8.187 18.838 2.313-1.675H7.641l-.888-2.726-.89 2.726H3l2.315 1.677-.89 2.723 2.325-1.684 2.325 1.684z"/></svg>