<svg xmlns="http://www.w3.org/2000/svg" viewBox="0 0 36 36"><path fill="#E1E8ED" d="M28 4c-.825 0-1.62.125-2.369.357A6.498 6.498 0 0 0 19.5 0c-3.044 0-5.592 2.096-6.299 4.921A4.459 4.459 0 0 0 10.5 4 4.5 4.5 0 0 0 6 8.5c0 .604.123 1.178.339 1.704A4.98 4.98 0 0 0 5 10c-2.762 0-5 2.238-5 5s2.238 5 5 5h23a8 8 0 1 0 0-16z"/><path d="M6.53 26.75a.5.5 0 0 0-.683-.183L4 27.634V25.5a.5.5 0 0 0-1 0v2.135l-1.849-1.067a.5.5 0 1 0-.5.867L2.499 28.5.651 29.567a.5.5 0 0 0 .5.867L3 29.366V31.5a.5.5 0 0 0 1 0v-2.133l1.848 1.067a.5.5 0 1 0 .5-.867L4.5 28.5l1.848-1.067a.499.499 0 0 0 .182-.683zm10 4a.5.5 0 0 0-.683-.183L14 31.634V29.5a.5.5 0 0 0-1 0v2.135l-1.849-1.067a.5.5 0 1 0-.5.867l1.848 1.067-1.848 1.067a.5.5 0 0 0 .5.867L13 33.366V35.5a.5.5 0 0 0 1 0v-2.133l1.848 1.067a.5.5 0 1 0 .5-.867L14.5 32.5l1.848-1.067a.499.499 0 0 0 .182-.683zM11 27.5a.5.5 0 0 0 1 0v-2.133l1.848 1.067a.5.5 0 1 0 .5-.867L12.5 24.5l1.848-1.067a.501.501 0 0 0-.5-.867L12 23.634V21.5a.5.5 0 0 0-1 0v2.135l-1.849-1.067a.5.5 0 1 0-.5.867l1.848 1.067-1.848 1.067a.5.5 0 0 0 .5.867L11 25.366V27.5zm12.848-.066a.5.5 0 1 0 .5-.867L22.5 25.5l1.848-1.067a.501.501 0 0 0-.5-.867L22 24.634V22.5a.5.5 0 0 0-1 0v2.135l-1.849-1.067a.5.5 0 1 0-.5.867l1.848 1.067-1.848 1.067a.5.5 0 0 0 .5.867L21 26.366V28.5a.5.5 0 0 0 1 0v-2.133l1.848 1.067zm10.5-1.867L32.5 24.5l1.848-1.067a.501.501 0 0 0-.5-.867L32 23.634V21.5a.5.5 0 0 0-1 0v2.135l-1.849-1.067a.5.5 0 1 0-.5.867l1.848 1.067-1.848 1.067a.5.5 0 0 0 .5.867L31 25.366V27.5a.5.5 0 0 0 1 0v-2.133l1.848 1.067a.501.501 0 0 0 .5-.867zM29.53 30.75a.5.5 0 0 0-.683-.183L27 31.634V29.5a.5.5 0 0 0-1 0v2.135l-1.849-1.067a.5.5 0 1 0-.5.867l1.848 1.067-1.848 1.067a.5.5 0 0 0 .5.867L26 33.366V35.5a.5.5 0 0 0 1 0v-2.133l1.848 1.067a.5.5 0 1 0 .5-.867L27.5 32.5l1.848-1.067a.499.499 0 0 0 .182-.683z" fill="#5DADEC"/></svg>