<svg xmlns="http://www.w3.org/2000/svg" viewBox="0 0 36 36"><path fill="#FFD983" d="M14.017 10.368 8.173 4.524a2.58 2.58 0 0 0-.15-3.479 2.59 2.59 0 0 0-3.662 0 2.584 2.584 0 0 0-.715 2.282 2.584 2.584 0 0 0-2.282.715 2.59 2.59 0 0 0 0 3.662 2.58 2.58 0 0 0 3.479.15l5.844 5.844 3.33-3.33z"/><path fill="#C1694F" d="M32.954 32.636c1.665-1.665 5.874-8.81.046-14.636-4.059-4.058-7.328-3.826-13.416-5.335C17.087 11.833 13.833 8.833 13 8c-.833.833-.542 3.873-.542 3.873S8.833 12.167 8 13c.833.833 4.699 4.489 5.375 6.207 1.821 5.774 1.613 8.711 5.671 12.77 6.66 6.659 12.244 2.323 13.908.659z"/></svg>