<svg xmlns="http://www.w3.org/2000/svg" viewBox="0 0 36 36"><circle fill="#C1694F" cx="18" cy="18" r="17"/><path fill="#E29386" d="M27.258 27.642a1.012 1.012 0 0 1-1.144-1.669l1.67-1.144a1.01 1.01 0 0 1 1.142 1.668l-1.668 1.145zm2.438-7.095a.998.998 0 0 1-.549-1.303 1.002 1.002 0 0 1 1.304-.549l1.852.755a1 1 0 1 1-.755 1.852l-1.852-.755zm-4.494-5.256a1.008 1.008 0 0 1-.555-1.318 1.01 1.01 0 0 1 1.316-.556l1.875.764a1.012 1.012 0 0 1-.764 1.873l-1.872-.763zm-21.001 7a1.012 1.012 0 0 1 .763-1.874l1.873.764a1.012 1.012 0 0 1-.762 1.874l-1.874-.764zm3.557-6.149a1.011 1.011 0 0 1-1.144-1.669l1.67-1.144a1.01 1.01 0 1 1 1.142 1.669l-1.668 1.144zm9.028 3.739a1.5 1.5 0 1 1 1.132-2.779l2.778 1.134a1.499 1.499 0 1 1-1.132 2.777l-2.778-1.132zm-6.184 6.052a1.011 1.011 0 1 1 .718 1.889l-1.892.721a1.008 1.008 0 0 1-1.302-.586c-.2-.524.062-1.107.585-1.307l1.891-.717z"/><path fill="#292F33" d="M24 19H12a2 2 0 0 0-2 2v11.998A16.914 16.914 0 0 0 18 35c2.893 0 5.615-.727 8-2.002V21a2 2 0 0 0-2-2z"/></svg>