<svg xmlns="http://www.w3.org/2000/svg" viewBox="0 0 36 36"><path fill="#BE1931" d="M18 2C9.716 2 3 6.492 3 14.5c0 .059.052.758.125 1.509C3.391 15.995 18 28 18 28s14.607-12.006 14.871-11.992c.05-.494.129-1.431.129-1.508C33 6.492 26.284 2 18 2z"/><path fill="#F4900C" d="M30.166 11.509a1.484 1.484 0 0 0-.918.196c-.003-.432-.059-.811-.202-1.104l.376-1.128a1.5 1.5 0 0 0-.948-1.897 1.474 1.474 0 0 0-1.032.036 1.49 1.49 0 0 0-1.645-1.1 1.479 1.479 0 0 0-.348.096 1.501 1.501 0 0 0-2.935.188L22.2 9.102a1.483 1.483 0 0 0-1.306-.6 1.497 1.497 0 0 0-1.329 1.075l-.073-.728a1.499 1.499 0 0 0-2.985.276l-.02.01a1.495 1.495 0 0 0-.6-1.346l-.417-2.084a1.5 1.5 0 0 0-2.942.588l.718 3.591-.382 1.605-1.454-4.002a1.5 1.5 0 1 0-2.82 1.026l1.108 3.047c-.345.236-.594.61-.646 1.058l-.245 2.099-.327-1.963a1.5 1.5 0 0 0-2.959.493l1.55 9.299h23.305c.049-.122 1.116-9.38 1.116-9.38a1.502 1.502 0 0 0-1.326-1.657z"/><path fill="#FFCC4D" d="M27.486 7.797c-.009-.064-.028-.123-.044-.184a1.49 1.49 0 0 0-1.645-1.1 1.479 1.479 0 0 0-.348.096 1.495 1.495 0 0 0-.935 1.593l1.956 14.343h3.028L27.486 7.797zm-4.99 2.096a1.498 1.498 0 0 0-.297-.79 1.483 1.483 0 0 0-1.306-.6 1.497 1.497 0 0 0-1.329 1.075 1.494 1.494 0 0 0-.061.528l.879 12.312.009.127H23.4l-.002-.027-.902-12.625zm-11.781 1.408a1.49 1.49 0 0 0-1.017.258c-.345.236-.594.61-.646 1.058l-1.159 9.929h3.02l1.118-9.581a1.5 1.5 0 0 0-1.316-1.664zm4.756-5.595a1.5 1.5 0 0 0-2.942.588l3.25 16.252h3.059l-3.367-16.84z"/><path fill="#DD2E44" d="M29 17c0 2.762-4.373 5-11 5S7 19.762 7 17c0-1.104-1.896-1-3-1-.316 0-.609-.005-.875.009C3.186 16.644 5 31 5 31a4 4 0 0 0 4 4h18a4 4 0 0 0 4-4s1.858-14.864 1.871-14.992C32.607 15.994 32.314 16 32 16c-1.104 0-3-.104-3 1z"/><circle fill="#BE1931" cx="18" cy="28" r="4"/></svg>