<svg xmlns="http://www.w3.org/2000/svg" viewBox="0 0 36 36"><path fill="#FFAC33" d="M35.066 35.066a1.958 1.958 0 0 1-2.771 0L12.198 14.97a1.96 1.96 0 1 1 2.772-2.773l20.096 20.098a1.958 1.958 0 0 1 0 2.771z"/><path fill="#DD2E44" d="M27.8 14.08c0 7.576-6.142 13.72-13.72 13.72C6.503 27.8.36 21.656.36 14.08.36 6.502 6.503.36 14.08.36c7.578 0 13.72 6.142 13.72 13.72z"/><path fill="#F4900C" d="M17.411 27.376a12.373 12.373 0 0 1-4.379-.503 12.27 12.27 0 0 1-7.3-6.003 9.616 9.616 0 0 1-.719-7.376A9.613 9.613 0 0 1 9.72 7.77a7.493 7.493 0 0 1 5.751-.561 7.494 7.494 0 0 1 4.463 3.67 5.804 5.804 0 0 1 .434 4.451 5.797 5.797 0 0 1-2.84 3.455 4.452 4.452 0 0 1-3.412.333 4.45 4.45 0 0 1-2.648-2.178 3.391 3.391 0 0 1 1.395-4.583 2.486 2.486 0 0 1 1.915-.187c.231.07.447.171.644.299a2.413 2.413 0 0 0-2.194.037 2.773 2.773 0 0 0-1.14 3.746 3.197 3.197 0 0 0 1.901 1.564c.822.25 1.692.166 2.45-.239a3.781 3.781 0 0 0 1.555-5.108 4.438 4.438 0 0 0-2.645-2.174 4.437 4.437 0 0 0-3.408.332 5.355 5.355 0 0 0-2.202 7.235 6.4 6.4 0 0 0 3.807 3.13c1.645.5 3.387.33 4.905-.479a7.754 7.754 0 0 0 3.794-4.614 7.769 7.769 0 0 0-.58-5.944 9.453 9.453 0 0 0-5.623-4.624 9.44 9.44 0 0 0-7.245.708 11.565 11.565 0 0 0-5.66 6.883 11.57 11.57 0 0 0 .865 8.869 14.248 14.248 0 0 0 3.623 4.392 13.655 13.655 0 0 0 6.455 1.615 13.602 13.602 0 0 0 3.331-.422zm-1.325-12.548a.988.988 0 0 0 .377-.356 1.815 1.815 0 0 1-.947 1.378c-.297.158-.637.19-.957.093a1.247 1.247 0 0 1-.743-.611.81.81 0 0 1 .333-1.094.452.452 0 0 1 .611.185.978.978 0 0 0 1.326.405z"/><path fill="#FFCC4D" d="M24.515 8.499C22.946 5.027 18.398 1.187 12.744.564c-.212-.023-.423-.033-.633-.047A13.69 13.69 0 0 0 3.24 5.693c3.382-2.809 6.776-3.214 9.264-2.944 4.835.533 8.694 3.751 10.006 6.655 2.009 4.448.023 9.702-4.424 11.71a6.812 6.812 0 0 1-5.247.165 6.814 6.814 0 0 1-3.828-3.594 5.275 5.275 0 0 1 2.631-6.97 4.003 4.003 0 0 1 5.287 1.997 2.984 2.984 0 0 1-.822 3.524c.263-.27.47-.593.607-.956a2.754 2.754 0 0 0-.067-2.118 3.163 3.163 0 0 0-1.777-1.669 3.16 3.16 0 0 0-2.437.077 3.683 3.683 0 0 0-1.944 2.068 3.688 3.688 0 0 0 .089 2.837 4.328 4.328 0 0 0 2.433 2.284 4.334 4.334 0 0 0 3.335-.105 5.183 5.183 0 0 0 2.586-6.847c-1.405-3.111-5.083-4.497-8.195-3.095-3.752 1.696-5.425 6.128-3.731 9.88a8.997 8.997 0 0 0 5.056 4.745 9.046 9.046 0 0 0 3.205.59c1.269 0 2.534-.27 3.725-.808 5.551-2.51 8.029-9.067 5.523-14.62zm-9.859 6.003a.572.572 0 0 1-.297.318 1.099 1.099 0 0 0 .026 2.016 2.271 2.271 0 0 1-.597-.134 2.15 2.15 0 0 1-1.206-1.133 1.495 1.495 0 0 1-.036-1.154c.142-.376.423-.676.792-.841a.972.972 0 0 1 .754-.024.98.98 0 0 1 .551.518.568.568 0 0 1 .013.434z"/></svg>