<svg xmlns="http://www.w3.org/2000/svg" viewBox="0 0 36 36"><path fill="#DA9F83" d="M34.966 17.87c.414 4.649-2.082 8.731-4.831 12.206-2.304 2.554-5.602 3.631-8.901 4.285-3.198 1.089-6.766.739-9.716-.895-1.034-.43-2.248-.559-3.167-1.176-2.879-1.846-4.524-4.927-5.779-8.029-1.627-2.916-1.74-6.483-1.414-9.742.219-1.107.967-2.032 1.388-3.051.729-2.127 1.916-3.963 3.569-5.475.786-.787 1.377-1.823 2.303-2.444.919-.617 2.103-.758 3.137-1.188 1.016-.422 1.968-1.08 3.072-1.299 1.072-.213 2.201.106 3.335.106 2.235-.056 4.482.148 6.575.789 1.034.43 1.781 1.38 2.7 1.997.926.622 1.999 1.04 2.784 1.827 1.603 1.566 2.984 3.411 3.94 5.446.65 2.109.957 4.389 1.005 6.643z"/><path fill="#8A4B38" d="M22.638 16.947a2.245 2.245 0 0 1 1.386 4.271c-1.181.384-3.871.201-4.255-.978-.383-1.181 1.687-2.911 2.869-3.293zm8.57-.672a1.069 1.069 0 1 1-1.638-1.377c.381-.451 1.514-1.057 1.966-.677.453.381.053 1.601-.328 2.054zm-22-7A1.069 1.069 0 1 1 7.57 7.898c.381-.451 1.514-1.057 1.966-.677.453.381.053 1.601-.328 2.054zm12.093-1.894a1.607 1.607 0 1 1 1.732-2.71c.749.479 1.872 2.05 1.394 2.798-.48.75-2.377.392-3.126-.088zm-7.926 6.217a2.145 2.145 0 1 1 3.869-1.856c.513 1.07.682 3.643-.387 4.154-1.071.514-2.971-1.227-3.482-2.298zm1.024 14.099a1.92 1.92 0 0 1 2.672-.492c.874.605 1.094 1.801.49 2.675s-2.528 2.147-3.4 1.544c-.875-.604-.366-2.854.238-3.727zm10.013-.406a1.473 1.473 0 1 1 1.586-2.481c.686.438 1.715 1.878 1.276 2.562-.438.688-2.176.359-2.862-.081zM5.536 18.42a2.069 2.069 0 1 1 3.084 2.759c-.763.854-2.992 1.955-3.843 1.191-.854-.763-.005-3.099.759-3.95z"/></svg>