<svg xmlns="http://www.w3.org/2000/svg" viewBox="0 0 36 36"><path fill="#FFAC33" d="M33 7.222c0-1.414.717-.707 1.424-1.414 1.416-1.414 2.128-3.536.714-4.95-1.415-1.414-3.534-.697-4.948.717-.708.707.002 1.425-1.412 1.425h-5.657l.707.697s3.536 4.944 4.243 4.237c-.707.708 4.231 4.24 4.231 4.24l.698.705V7.222z"/><path fill="#CCD6DD" d="m30.899 15-4.949-4.95L21 5.101c-.707.707-4.243 0-5.657 1.414l-.707.707-2.122 2.122L1.615 20.242a4 4 0 0 0 0 5.657l8.485 8.485a4 4 0 0 0 5.657 0l9.9-9.899 3.121-3.121.707-.707c1.414-1.415.707-4.95 1.414-5.657z"/><path fill="#55ACEE" d="M32.667 14.646c-.977.977-1.852 1.684-2.828.707l-9.192-9.192c-.977-.977-.269-1.852.707-2.829a2.5 2.5 0 0 1 3.535 0l7.778 7.778a2.5 2.5 0 0 1 0 3.536z"/><path fill="#99AAB5" d="M13 32a.999.999 0 0 1-.707-1.707l12-12a1 1 0 1 1 1.414 1.415l-12 12A1 1 0 0 1 13 32zm-4-4a.999.999 0 0 1-.707-1.707l12-12a.999.999 0 1 1 1.414 1.414l-12 12.001A1 1 0 0 1 9 28zm-4-4a.999.999 0 0 1-.707-1.707l12-12a.999.999 0 1 1 1.414 1.414l-12 12.001A1 1 0 0 1 5 24z"/></svg>