<svg xmlns="http://www.w3.org/2000/svg" viewBox="0 0 36 36"><path fill="#E1E8ED" d="M31.301 11H4.668a3 3 0 1 0 0 6c.182 0 .357-.023.53-.053L5.182 17l.637 14.004C5.918 33.202 7.8 35 10 35h16c2.2 0 4.082-1.798 4.182-3.996L30.818 17l-.015-.05c.163.027.327.05.498.05a3 3 0 1 0 0-6z"/><path d="M28.668 17v16.989c.863-.734 1.444-1.796 1.492-2.986L30.84 17h-2.172zm-6 0h3v18h-3zm-6 18V17h3v18zm-6-18h3v18h-3zM5.16 17l.68 14.003c.054 1.342.776 2.528 1.828 3.254V17H5.16z" fill="#DA2F47"/><path opacity=".6" fill="#99AAB5" d="m5.16 17 .097 2h25.485l.098-2z"/><path fill="#FFD983" d="M30.929 11.07c.043-.184.071-.373.071-.57 0-.674-.27-1.284-.704-1.733.422-.266.704-.732.704-1.267a1.5 1.5 0 0 0-2.058-1.39 1.494 1.494 0 0 0-1.052-1.052A1.5 1.5 0 0 0 26.5 3c-.191 0-.372.039-.54.104a2.495 2.495 0 1 0-4.897.94c-.64.113-1.19.469-1.563.969A2.49 2.49 0 0 0 17.5 4 2.5 2.5 0 0 0 15 6.5l.001.012a2.463 2.463 0 0 0-1.047-.466A2.496 2.496 0 0 0 11.5 4a2.496 2.496 0 0 0-2.455 2.055A3.495 3.495 0 0 0 8.5 6 3.5 3.5 0 0 0 5 9.5c0 .545.135 1.054.357 1.514A1.495 1.495 0 0 0 5.5 14h25a1.495 1.495 0 0 0 .429-2.93z"/><g fill="#FFAC33"><circle cx="28" cy="8" r="1"/><circle cx="24.5" cy="5.5" r="1.5"/><circle cx="12" cy="7" r="1"/><path d="M31 12.5a1.497 1.497 0 0 0-2.914-.483C28.057 12.015 28.031 12 28 12a1 1 0 0 0-1 1h3.908c.056-.157.092-.324.092-.5zM9.5 12c.198 0 .385.04.558.11A1.496 1.496 0 0 1 13 12.5c0 .176-.036.343-.092.5h4.184a1.483 1.483 0 0 1-.092-.5 1.5 1.5 0 0 1 1.5-1.5c.237 0 .459.06.658.158A1.485 1.485 0 0 1 19 10.5a1.5 1.5 0 1 1 2.89.558c.638.172 1.11.749 1.11 1.442 0 .176-.036.343-.092.5h2.968l-.566-.5c.42-.367.69-.899.69-1.5a2 2 0 0 0-2-2 1.98 1.98 0 0 0-1.03.294c.015-.097.03-.193.03-.294a1.997 1.997 0 0 0-3.816-.828A1.488 1.488 0 0 0 18.5 8a1.5 1.5 0 0 0-1.39 2.058c-.638.173-1.11.75-1.11 1.442 0 .198.04.385.11.558a1.49 1.49 0 0 0-.61.332 1.487 1.487 0 0 0-1-.39c-.237 0-.459.06-.659.159.099-.2.159-.422.159-.659a1.5 1.5 0 0 0-2.058-1.39 1.496 1.496 0 1 0-2.832.948 1.49 1.49 0 0 0-.61.332 1.487 1.487 0 0 0-1-.39A1.5 1.5 0 0 0 6 12.5c0 .176.036.343.092.5h2c.207-.581.756-1 1.408-1z"/></g><path fill="#FFF" d="M4 13v1a1 1 0 0 0 1 1h26a1 1 0 0 0 1-1v-1H4z"/></svg>