<svg xmlns="http://www.w3.org/2000/svg" viewBox="0 0 36 36"><path fill="#FFAC33" d="M2.72 5.464h3.53v2.679H4.464c-1.786 0-1.786.893-1.786 1.786v7.387c0 1.359 1.289 1.542 1.289 1.542H6.25v2.679H2.72A2.72 2.72 0 0 1 0 18.818V8.183a2.72 2.72 0 0 1 2.72-2.719z"/><path fill="#FFAC33" d="M5.357 5.464h15.179V24c0 1.1-.9 2-2 2H7.357c-1.1 0-2-.9-2-2V5.464z"/><path fill="#F4900C" d="M8.482 23.321a.893.893 0 0 0 .893-.893v-9.821a.893.893 0 1 0-1.786 0v9.821c0 .494.4.893.893.893zm4.464 0a.893.893 0 0 0 .893-.893v-9.821a.893.893 0 1 0-1.786 0v9.821c.001.494.4.893.893.893zM5.357 8.575V5.464h15.179v4.878a2.703 2.703 0 0 1-.933.175 2.718 2.718 0 0 1-2.516-1.694 1.345 1.345 0 0 1-1.994-.246 2.71 2.71 0 0 1-2.288 1.26 2.705 2.705 0 0 1-2.159-1.083 1.698 1.698 0 0 1-1.58 1.083 1.696 1.696 0 0 1-1.488-.893c-.27.132-.57.213-.892.213-.882 0-1.329-.582-1.329-.582z"/><path fill="#E1E8ED" d="M8.036 1h11.607c1.786 0 2.679.893 2.679 2.679v2.76a2.72 2.72 0 0 1-5.235 1.026 1.35 1.35 0 0 1-.883.334c-.46 0-.865-.23-1.111-.58a2.712 2.712 0 0 1-2.288 1.259 2.705 2.705 0 0 1-2.159-1.083 1.698 1.698 0 0 1-1.58 1.083c-.62 0-1.15-.34-1.447-.837a1.339 1.339 0 0 1-2.262-.967V3.679C5.357 1.893 6.25 1 8.036 1z"/><path d="M30.495 6.514a1 1 0 0 1-.707-1.708l3.552-3.55a1 1 0 0 1 1.414 1.415l-3.552 3.55a.993.993 0 0 1-.707.293zm-4.164-1.697a1 1 0 0 1-.944-1.331l.97-2.773a1 1 0 0 1 1.888.66l-.97 2.773a1 1 0 0 1-.944.671zm6.143 5.774a1.001 1.001 0 0 1-.333-1.943l2.494-.881a1 1 0 1 1 .666 1.886l-2.494.881a1.001 1.001 0 0 1-.333.057z" fill="#FA743E"/><path fill="#FFAC33" d="M33.28 15.464h-3.53v2.679h1.786c1.786 0 1.786.893 1.786 1.786v7.387c0 1.359-1.289 1.542-1.289 1.542H29.75v2.679h3.53A2.72 2.72 0 0 0 36 28.818V18.183a2.72 2.72 0 0 0-2.72-2.719z"/><path fill="#FFCC4D" d="M30.643 15.464H15.464V34c0 1.1.9 2 2 2h11.179c1.1 0 2-.9 2-2V15.464z"/><path fill="#F4900C" d="M18.589 33.321a.893.893 0 0 1-.893-.893v-9.821a.893.893 0 0 1 1.786 0v9.821c0 .494-.4.893-.893.893zm8.929 0a.893.893 0 0 1-.893-.893v-9.821a.893.893 0 1 1 1.786 0v9.821c0 .494-.4.893-.893.893zm-4.464 0a.893.893 0 0 1-.893-.893v-9.821a.893.893 0 1 1 1.786 0v9.821a.893.893 0 0 1-.893.893z"/><path fill="#FFAC33" d="M30.643 18.575v-3.111H15.464v4.878c.292.107.604.175.933.175a2.718 2.718 0 0 0 2.516-1.694 1.345 1.345 0 0 0 1.994-.246 2.71 2.71 0 0 0 2.288 1.26c.884 0 1.663-.429 2.159-1.083.248.633.86 1.083 1.58 1.083.645 0 1.199-.364 1.488-.893.27.132.57.213.892.213.882 0 1.329-.582 1.329-.582z"/><path fill="#EEE" d="M27.964 11H16.357c-1.786 0-2.679.893-2.679 2.679v2.76a2.72 2.72 0 0 0 5.235 1.026c.238.205.545.334.883.334.46 0 .865-.23 1.111-.58a2.712 2.712 0 0 0 2.288 1.259c.884 0 1.663-.429 2.159-1.083.248.633.86 1.083 1.58 1.083.62 0 1.15-.34 1.447-.837.24.229.564.372.922.372.74 0 1.339-.6 1.339-1.339v-2.995C30.643 11.893 29.75 11 27.964 11z"/></svg>