<svg xmlns="http://www.w3.org/2000/svg" viewBox="0 0 36 36"><path fill="#99AAB5" d="M19 1.5a1.5 1.5 0 1 0-3 0V11a1 1 0 0 1-2 0V1.5a1.5 1.5 0 1 0-3 0V11a1 1 0 0 1-2 0V1.5a1.5 1.5 0 1 0-3 0v9c0 .127.021.249.051.367-.03.207-.051.417-.051.633 0 2.316 1.75 5.957 4 6.442V33.5a2.5 2.5 0 1 0 5 0V17.942c2.25-.485 4-4.126 4-6.442 0-.216-.021-.426-.051-.633.03-.118.051-.24.051-.367v-9zM27.5 0c-.104 0-.204.019-.306.031C27.13.021 27.067 0 27 0c-2.209 0-5 5.477-5 11 0 4.658 1.275 8.56 3 9.672V33.5a2.5 2.5 0 1 0 5 0v-31A2.5 2.5 0 0 0 27.5 0z"/></svg>