<svg xmlns="http://www.w3.org/2000/svg" viewBox="0 0 36 36"><path fill="#269" d="M36 4a4 4 0 0 0-4-4H4a4 4 0 0 0-4 4v28a4 4 0 0 0 4 4h28a4 4 0 0 0 4-4V4z"/><path fill="#FFCC4D" d="M18 20c-.419 0-.809.265-.949.684l-3 9a1 1 0 1 0 1.897.633l3-9A1 1 0 0 0 18 20z"/><path fill="#FFCC4D" d="M18 20a1 1 0 0 0-.965 1.263l3.226 11.856a.999.999 0 1 0 1.93-.526l-3.227-11.856A.999.999 0 0 0 18 20z"/><path fill="#FFCC4D" d="M18 20a1 1 0 0 0-.621.216l-13.25 10.5a1 1 0 1 0 1.242 1.568l13.25-10.5A1 1 0 0 0 18 20z"/><path fill="#FFCC4D" d="M18.001 20c-.039 0-.077.002-.116.006L5.553 21.423a1 1 0 0 0 .229 1.987l12.333-1.417A1 1 0 0 0 18.001 20z"/><path fill="#FFCC4D" d="M3.5 13.083a1.001 1.001 0 0 0-.431 1.902l14.5 6.917a1 1 0 1 0 .861-1.805L3.93 13.18a.995.995 0 0 0-.43-.097z"/><path fill="#FFCC4D" d="M7.333 4.833a1 1 0 0 0-.817 1.575l10.666 15.167a1 1 0 1 0 1.636-1.15L8.151 5.258a.997.997 0 0 0-.818-.425z"/><path fill="#FFCC4D" d="M18 20a1 1 0 0 0-.664 1.749l11.708 10.375a1 1 0 0 0 1.326-1.497L18.663 20.251A.998.998 0 0 0 18 20z"/><path fill="#FFCC4D" d="M18 20a1 1 0 0 0-.314 1.95l12.333 4.083a1 1 0 1 0 .629-1.899l-12.333-4.083A.993.993 0 0 0 18 20z"/><path fill="#FFCC4D" d="M31.835 18.5a.977.977 0 0 0-.108.006l-13.835 1.5a1 1 0 1 0 .216 1.988l13.833-1.5a1 1 0 0 0-.106-1.994z"/><path fill="#FFCC4D" d="M18.001 22a1 1 0 0 1-.59-1.807l8.917-6.5a.999.999 0 1 1 1.177 1.616l-8.917 6.5a.994.994 0 0 1-.587.191z"/><path fill="#FFCC4D" d="M17.999 22a1 1 0 0 1-.855-1.517l7.834-13a1 1 0 1 1 1.713 1.033l-7.834 13a1 1 0 0 1-.858.484z"/><path fill="#55ACEE" d="M20 0h-4v19a2 2 0 0 0 4 0V0z"/><circle fill="#F5F8FA" cx="18" cy="21" r="3"/><path fill="#F5F8FA" d="M6.963 31.694a2.36 2.36 0 1 0-4.719 0 2.36 2.36 0 0 0 4.719 0z"/><circle fill="#F5F8FA" cx="29.708" cy="31.375" r="2.958"/><path fill="#F5F8FA" d="M22.833 32.856a1.606 1.606 0 1 0-3.212 0 1.606 1.606 0 0 0 3.212 0z"/><circle fill="#F5F8FA" cx="3.077" cy="13.917" r="1.75"/><path fill="#F5F8FA" d="M9.75 5.167a2.833 2.833 0 1 0-5.666 0 2.833 2.833 0 0 0 5.666 0zm24.584 14.25a2.208 2.208 0 1 0-4.416 0 2.208 2.208 0 0 0 4.416 0z"/><circle fill="#F5F8FA" cx="25.917" cy="8" r="1.75"/></svg>