<svg xmlns="http://www.w3.org/2000/svg" viewBox="0 0 36 36"><path fill="#77B255" d="M32 30.529C32 32.998 29.969 35 27.5 35S23 32.998 23 30.529V18.588C23 16.119 25.031 13 27.5 13s4.5 3.119 4.5 5.588v11.941z"/><path fill="#FFE8B6" d="M21.456 5.588c0 2.198-1.337 3.98-2.985 3.98s-2.985-1.782-2.985-3.98 1.337-3.98 2.985-3.98 2.985 1.782 2.985 3.98z"/><path fill="#77B255" d="M23 30.529C23 32.998 20.969 35 18.5 35S14 32.998 14 30.529V5.588C14 3.119 16.031 0 18.5 0S23 3.119 23 5.588v24.941z"/><path fill="#FFE8B6" d="M21.456 5.588c0 2.198-1.337 3.98-2.985 3.98s-2.985-1.782-2.985-3.98 1.337-3.98 2.985-3.98 2.985 1.782 2.985 3.98zm9 13c0 2.199-1.337 3.98-2.985 3.98s-2.985-1.781-2.985-3.98c0-2.198 1.337-3.981 2.985-3.981 1.648.001 2.985 1.783 2.985 3.981z"/><path fill="#77B255" d="M14 30.529C14 32.998 11.969 35 9.5 35S5 32.998 5 30.529V11.588C5 9.119 7.031 6 9.5 6S14 9.119 14 11.588v18.941z"/><path fill="#FFE8B6" d="M12.456 11.588c0 2.198-1.337 3.98-2.985 3.98s-2.985-1.782-2.985-3.98 1.337-3.98 2.985-3.98 2.985 1.782 2.985 3.98z"/><path fill="#5C913B" d="M24 22a1 1 0 0 1-1 1h-9a1 1 0 1 1 0-2h9a1 1 0 0 1 1 1zm0-8a1 1 0 0 1-1 1h-9a1 1 0 0 1 0-2h9a1 1 0 0 1 1 1zm-9 4a1 1 0 0 1-1 1H5a1 1 0 1 1 0-2h9a1 1 0 0 1 1 1z"/><path fill="#D99E82" d="M35 32.5a2.5 2.5 0 0 1-2.5 2.5h-28a2.5 2.5 0 1 1 0-5h28a2.5 2.5 0 0 1 2.5 2.5z"/><path fill="#5C913B" d="M31 27s-1.229-.565-3.272-1.176c-.645 1.426-1.299 2.785-1.561 3.426-.52 1.27-1.125.875-.925-.169.102-.532.461-2.616.736-3.729a35.117 35.117 0 0 0-7.162-.995c-.15 1.727-.402 3.219-.483 4.144-.125 1.417-1.5 1.333-1.625.042-.068-.702-.164-2.683-.26-4.171a27.126 27.126 0 0 0-6.292 1.016c.091 1.014.304 2.885.386 3.53.186 1.469-.553 1.086-.833.291a70.512 70.512 0 0 0-1.267-3.259c-.816.3-1.631.645-2.442 1.05-2 1-4 3-4 4v1h33v-1c0-1-2-3-4-4z"/></svg>