<svg xmlns="http://www.w3.org/2000/svg" viewBox="0 0 36 36"><path fill="#FCAB40" d="M27.999 36a1 1 0 0 1-.969-.758c-.036-.136-.926-3.436-4.273-4.272C18.054 29.794 18 23.277 18 23a1 1 0 0 1 .998-.999c.554.034 1 .445 1.002.997 0 .053.054 5.234 3.242 6.032 4.53 1.132 5.682 5.54 5.727 5.728a.998.998 0 0 1-.97 1.242z"/><path fill="#BB1A34" d="M18 25c-1.1 0-1.598-.805-1.105-1.789l1.211-2.422c.492-.984 1.297-.984 1.789 0l1.211 2.422C21.598 24.195 21.1 25 20 25h-2z"/><path fill="#BB1A34" d="M28 9c0 6-7 12-9 12s-9-6-9-12c0-5.799 4.582-9 9-9s9 3.201 9 9z"/><path fill="#FCAB40" d="M20 22h-2a1 1 0 1 1 0-2h2a1 1 0 1 1 0 2z"/></svg>