<svg xmlns="http://www.w3.org/2000/svg" viewBox="0 0 36 36"><path fill="#DD2E44" d="M19.281 6.392c0 .405-2.37.405-2.37 0 0-.9-14.911-9.899-14.911-2.7v13.499c0 2.487 3.476 1.947 7.193.361-1.429 3.525-4.498 9.68-7.05 13.934a1 1 0 0 0 1.305 1.409l5.258-2.629c.441.726.931 1.868 1.376 2.906.333.778.678 1.582 1.024 2.275A1.003 1.003 0 0 0 12 36a1 1 0 0 0 .707-.293c1.42-1.419 3.429-8.395 4.793-14.093 1.364 5.698 3.373 12.674 4.793 14.093a.998.998 0 0 0 1.601-.26c.347-.693.691-1.497 1.024-2.275.445-1.038.935-2.181 1.376-2.906l5.258 2.629a1.002 1.002 0 0 0 1.305-1.409c-2.735-4.558-6.061-11.296-7.328-14.643C29.652 18.933 34 20.02 34 17.19V3.691c0-7.198-14.719 1.801-14.719 2.701z"/><path fill="#A0041E" d="M2.114 17.869c1.177 3.199 11.468-1.787 14.86-5.179.31-.31.549-.602.758-.885-10.446.252-14.542 3.857-15.618 6.064zm16.482-6.068c.212.285.453.578.765.89 3.6 3.6 14.639 8.999 14.639 4.5v-.209c-1.671-2.199-6.037-5.022-15.404-5.181z"/><path fill="#EA596E" d="M22 11.4a3.6 3.6 0 0 1-3.599 3.6h-1.802A3.6 3.6 0 0 1 13 11.4V7.6A3.6 3.6 0 0 1 16.599 4h1.802A3.6 3.6 0 0 1 22 7.6v3.8z"/></svg>