<svg xmlns="http://www.w3.org/2000/svg" viewBox="0 0 36 36"><path fill="#E8EAEB" d="M33.73 18.187c-.491 1.981-1.376 2.514-3.356 2.022L18.72 17.322l3.332-13.448 11.655 2.888c1.979.491 2.515 1.376 2.023 3.356l-2 8.069z"/><path fill="#66757F" d="M14.1 34.383a.923.923 0 0 1-.897-1.144L20.811 2.32a.923.923 0 1 1 1.793.442L14.996 33.68a.924.924 0 0 1-.896.703z"/><path fill="#BE1931" d="M30.248 13.042a3.232 3.232 0 1 1-6.275-1.555 3.232 3.232 0 0 1 6.275 1.555z"/><path fill="#E8EAEB" d="M2.27 18.187c.491 1.981 1.375 2.514 3.356 2.022l11.655-2.887-3.333-13.448L2.293 6.762C.313 7.253-.221 8.138.27 10.118l2 8.069z"/><path fill="#66757F" d="M21.9 34.383a.924.924 0 0 1-.896-.703L13.396 2.762a.924.924 0 0 1 1.794-.442l7.607 30.918a.923.923 0 0 1-.897 1.145z"/><path fill="#BE1931" d="M5.752 13.042a3.233 3.233 0 1 0 6.276-1.556 3.233 3.233 0 0 0-6.276 1.556z"/></svg>