<svg xmlns="http://www.w3.org/2000/svg" viewBox="0 0 36 36"><path fill="#CCD6DD" d="M33 32a4 4 0 0 1-4 4H7a4 4 0 0 1-4-4V4a4 4 0 0 1 4-4h22a4 4 0 0 1 4 4v28z"/><path fill="#292F33" d="M19 31a1 1 0 1 1-2 0V5a1 1 0 0 1 2 0v26z"/><path fill="#99AAB5" d="M15 6a1 1 0 0 1-1 1h-4a1 1 0 0 1 0-2h4a1 1 0 0 1 1 1zm0 12a1 1 0 0 1-1 1h-4a1 1 0 1 1 0-2h4a1 1 0 0 1 1 1zm0 12a1 1 0 0 1-1 1h-4a1 1 0 1 1 0-2h4a1 1 0 0 1 1 1zM27 6a1 1 0 0 1-1 1h-4a1 1 0 1 1 0-2h4a1 1 0 0 1 1 1zm0 12a1 1 0 0 1-1 1h-4a1 1 0 1 1 0-2h4a1 1 0 0 1 1 1zm0 12a1 1 0 0 1-1 1h-4a1 1 0 1 1 0-2h4a1 1 0 0 1 1 1zm-12-5.894c0 .494-.4.894-.893.894h-2.214a.893.893 0 0 1-.893-.894v-.213c0-.493.4-.893.893-.893h2.214c.493 0 .893.4.893.894v.212zm10 0c0 .494-.4.894-.893.894h-2.215a.893.893 0 0 1-.892-.894v-.213c0-.493.4-.893.893-.893h2.215c.492 0 .892.4.892.894v.212z"/><path fill="#269" d="M25 13a2 2 0 0 1-2 2H13a2 2 0 0 1-2-2v-2a2 2 0 0 1 2-2h10a2 2 0 0 1 2 2v2z"/></svg>