<svg xmlns="http://www.w3.org/2000/svg" viewBox="0 0 36 36"><path fill="#CCD6DD" d="m34.768 10.814-2.736-2.737-4.108-4.106-2.738-2.738c-1.512-1.512-3.963-1.512-5.433-.041l-5.91 5.911c.082.301.157.589.157.897a2 2 0 0 1-2 2c-.308 0-.596-.075-.857-.2l-9.91 9.911a3.872 3.872 0 0 0 0 5.476l2.738 2.737 4.106 4.107 2.737 2.737a3.872 3.872 0 0 0 5.476 0l9.911-9.91A1.965 1.965 0 0 1 26 24a2 2 0 0 1 2-2c.308 0 .597.075.857.2l5.91-5.911a3.872 3.872 0 0 0 .001-5.475zM16 14a2 2 0 1 1 .001-4.001A2 2 0 0 1 16 14zm4 4a2 2 0 1 1 .001-4.001A2 2 0 0 1 20 18zm4 4a2 2 0 1 1 .001-4.001A2 2 0 0 1 24 22z"/><path fill="#99AAB5" d="M11 30a.999.999 0 0 1-.707-1.707l4-4a.999.999 0 1 1 1.414 1.414l-4 4A.997.997 0 0 1 11 30zm-3-3a.999.999 0 0 1-.707-1.707l7-7a.999.999 0 1 1 1.414 1.414l-7 7A.997.997 0 0 1 8 27zm-3-3a.999.999 0 0 1-.707-1.707l7-7a.999.999 0 1 1 1.414 1.414l-7 7A.997.997 0 0 1 5 24zM20.397 6.783c-.245-.534-.229-1.179.204-1.611.45-.45 1.059-.467 1.61-.204l6.277 2.951c.186.084.322.187.381.246.331.331.289.832-.025 1.146-.355.356-.721.348-1.06.178l-1.051-.543-2.357 2.357.534 1.043c.179.347.187.712-.161 1.06-.34.339-.883.373-1.222.034-.136-.136-.194-.28-.22-.339l-2.91-6.318zm3.172 2.985 1.611-1.611-3.248-1.671-.017.017 1.654 3.265z"/></svg>