<svg xmlns="http://www.w3.org/2000/svg" viewBox="0 0 36 36"><path fill="#CCD6DD" d="M30.806 15.347H19.201l8.205-8.205-.707-.707-8.205 8.205V3.036h-1V14.64L9.288 6.435l-.707.707 8.206 8.205H5.182v1h11.605l-8.206 8.206.707.707 8.206-8.206v11.605h1V17.055l8.205 8.205.707-.707-8.205-8.206h11.605z"/><path fill="#AAB8C2" d="M17.994 1.394c-7.982 0-14.453 6.471-14.453 14.453 0 7.982 6.471 14.453 14.453 14.453 7.983 0 14.454-6.471 14.454-14.453-.001-7.982-6.472-14.453-14.454-14.453zm0 26.683c-6.755 0-12.23-5.475-12.23-12.23s5.475-12.23 12.23-12.23c6.754 0 12.23 5.475 12.23 12.23s-5.475 12.23-12.23 12.23z"/><path fill="#AAB8C2" d="M17.993 23.374c-4.15 0-7.526-3.377-7.526-7.527s3.376-7.526 7.526-7.526c4.151 0 7.528 3.376 7.528 7.526s-3.376 7.527-7.528 7.527zm0-13.553c-3.323 0-6.026 2.704-6.026 6.026s2.704 6.027 6.026 6.027c3.324 0 6.028-2.704 6.028-6.027s-2.704-6.026-6.028-6.026z"/><path fill="#8899A6" d="m27.279 34.429-8.376-18.344c-.021-.046-.058-.076-.085-.117-.038-.059-.072-.118-.123-.169-.051-.051-.11-.085-.17-.123-.041-.027-.071-.064-.117-.085-.012-.005-.024-.003-.035-.008-.064-.027-.132-.034-.201-.047-.061-.011-.121-.03-.182-.03-.054 0-.106.018-.161.027-.075.013-.149.022-.219.051-.011.005-.023.003-.034.008-.044.02-.074.057-.114.082-.061.039-.121.074-.173.125-.051.051-.086.111-.124.171-.026.04-.063.07-.083.115L8.709 34.429a1 1 0 0 0 1.819.83l7.465-16.351 7.465 16.351a1 1 0 0 0 1.821-.83z"/><path d="M12.9 36H7.079a1 1 0 1 1 0-2H12.9a1 1 0 1 1 0 2zm15.999 0h-5.82a1 1 0 1 1 0-2h5.82a1 1 0 1 1 0 2z" fill="#553788"/><path fill="#744EAA" d="M21.284 29.819a2.779 2.779 0 0 1-2.779 2.779h-1.112a2.779 2.779 0 1 1 0-5.558h1.112a2.78 2.78 0 0 1 2.779 2.779z"/><path fill="#CBB7EA" d="M21.227 29.263a2.779 2.779 0 0 0-2.723-2.224h-1.112a2.78 2.78 0 0 0-2.724 2.224h6.559z"/><path fill="#5C913B" d="M11.017 26.527a2.779 2.779 0 0 1-2.779 2.779H7.126a2.779 2.779 0 1 1 0-5.558h1.112a2.779 2.779 0 0 1 2.779 2.779z"/><path fill="#C6E5B3" d="M10.96 25.971a2.779 2.779 0 0 0-2.723-2.224H7.126a2.78 2.78 0 0 0-2.724 2.224h6.558z"/><path fill="#3B94D9" d="M34.977 17.633a2.779 2.779 0 0 1-2.779 2.779h-1.112a2.779 2.779 0 1 1 0-5.558h1.112a2.777 2.777 0 0 1 2.779 2.779z"/><path fill="#BBDDF5" d="M34.921 17.077a2.779 2.779 0 0 0-2.723-2.224h-1.112a2.779 2.779 0 0 0-2.723 2.224h6.558z"/><path fill="#5C913B" d="M31.644 7.887a2.779 2.779 0 0 1-2.779 2.779h-1.112a2.779 2.779 0 1 1 0-5.558h1.112a2.779 2.779 0 0 1 2.779 2.779z"/><path fill="#C6E5B3" d="M31.588 7.331a2.779 2.779 0 0 0-2.723-2.224h-1.112a2.779 2.779 0 0 0-2.723 2.224h6.558z"/><path fill="#BE1931" d="M31.644 26.527a2.779 2.779 0 0 1-2.779 2.779h-1.112a2.779 2.779 0 1 1 0-5.558h1.112a2.779 2.779 0 0 1 2.779 2.779z"/><path fill="#F4ABBA" d="M31.588 25.971a2.779 2.779 0 0 0-2.723-2.224h-1.112a2.779 2.779 0 0 0-2.723 2.224h6.558z"/><path fill="#BE1931" d="M11.017 7.887a2.779 2.779 0 0 1-2.779 2.779H7.126a2.779 2.779 0 1 1 0-5.558h1.112a2.779 2.779 0 0 1 2.779 2.779z"/><path fill="#F4ABBA" d="M10.96 7.331a2.779 2.779 0 0 0-2.723-2.224H7.126a2.78 2.78 0 0 0-2.724 2.224h6.558z"/><path fill="#744EAA" d="M21.284 2.876a2.779 2.779 0 0 1-2.779 2.779h-1.112a2.779 2.779 0 1 1 0-5.558h1.112a2.778 2.778 0 0 1 2.779 2.779z"/><path fill="#CBB7EA" d="M21.227 2.32A2.779 2.779 0 0 0 18.504.096h-1.112a2.78 2.78 0 0 0-2.724 2.224h6.559z"/><path fill="#3B94D9" d="M7.682 17.633a2.779 2.779 0 0 1-2.779 2.779H3.79a2.779 2.779 0 1 1 0-5.558h1.112a2.778 2.778 0 0 1 2.78 2.779z"/><path fill="#BBDDF5" d="M7.625 17.077a2.779 2.779 0 0 0-2.723-2.224H3.79a2.78 2.78 0 0 0-2.724 2.224h6.559z"/><path fill="#553788" d="M14.952 15.847a3.041 3.041 0 1 1 6.082 0 3.041 3.041 0 0 1-6.082 0z"/></svg>