<svg xmlns="http://www.w3.org/2000/svg" viewBox="0 0 36 36"><path fill="#31373D" d="M32 21v1h-2v-1c0-.446-.09-.867-.225-1.268a6 6 0 0 0-1.776-11.733 5.972 5.972 0 0 0-4.131 1.656A7 7 0 0 0 10 11a6.987 6.987 0 0 0 3.409 6H13a4 4 0 0 0-4 4H8l-6-4H1v14h1l6-4h1v2a4 4 0 0 0 4 4h13a4 4 0 0 0 4-4v-3h2v1h3v-6h-3z"/><path fill="#66757F" d="M22 11a5 5 0 1 1-10.001-.001A5 5 0 0 1 22 11z"/><circle fill="#CCD6DD" cx="17" cy="11" r="2"/><circle fill="#66757F" cx="27.999" cy="14" r="4"/><circle fill="#CCD6DD" cx="27.999" cy="14" r="2"/><path fill="#8899A6" d="M17 20h10v10H17z"/><path fill="#31373D" d="M19 22h6v6h-6z"/><circle fill="#8899A6" cx="12.999" cy="28" r="2"/></svg>