<svg xmlns="http://www.w3.org/2000/svg" viewBox="0 0 36 36"><path fill="#F18F26" d="M23.912 12.087C22.219 10.394 20.318 9.5 18.415 9.5c-1.626 0-3.189.667-4.402 1.88-1.519 1.519-1.727 2.39-1.865 2.966-.071.295-.106.421-.255.57a.502.502 0 0 0-.14.406.51.51 0 0 0 .225.369c.013.009.324.22.368.651.039.394-.13 1.08-1.16 2.11-.629.629-1.252.948-1.85.948-.981 0-1.649-.87-1.654-.877a.499.499 0 0 0-.876.138c-.221.663-.251.668-.535.709-.59.086-1.578.229-3.624 2.275C.972 23.32.381 25.412.939 27.693c.395 1.617 1.408 3.358 2.708 4.659 1.408 1.408 3.802 2.912 6.301 2.912 1.654 0 3.137-.643 4.406-1.912 2.045-2.046 2.189-3.033 2.274-3.624.042-.284.046-.313.71-.534a.502.502 0 0 0 .14-.876c-.008-.006-.805-.619-.873-1.527-.047-.638.27-1.302.944-1.976.963-.963 1.622-1.165 2.005-1.165.504 0 .746.357.752.366a.501.501 0 0 0 .779.09c.149-.149.275-.185.57-.255.576-.139 1.446-.348 2.965-1.866 2.286-2.286 2.955-6.234-.708-9.898z"/><path fill="#292F33" d="M34 3 19 20l-3-3L33 2z"/><path fill="#642116" d="M13 27a.997.997 0 0 1-.707-.293l-3-3a.999.999 0 1 1 1.414-1.414l3 3A.999.999 0 0 1 13 27z"/><path fill="#CCD6DD" d="M4.628 29.935 28.8 5.807l.53.531L5.16 30.466zm.869.869L29.67 6.676l.531.532L6.028 31.335z"/><path fill="#F18F26" d="M34.704 2.685a1.128 1.128 0 0 1-.001 1.592l-3.186 3.186a1.129 1.129 0 0 1-1.593-.001l-1.39-1.389a1.128 1.128 0 0 1 .001-1.592l3.187-3.186a1.13 1.13 0 0 1 1.593 0l1.389 1.39z"/><path fill="#292F33" d="m2 32 4-5s1 0 2 1 1 2 1 2l-5 4-2-2z"/><circle fill="#642116" cx="33" cy="8" r="1"/><circle fill="#642116" cx="35" cy="6" r="1"/><circle fill="#642116" cx="28" cy="3" r="1"/><circle fill="#642116" cx="30" cy="1" r="1"/></svg>