<svg xmlns="http://www.w3.org/2000/svg" viewBox="0 0 36 36"><path fill="#FCAB40" d="m5.622 33.051-2.674-2.673L23.337 9.987c3.344-3.343 1.337-8.021 2.007-8.689.666-.67 1.335-.002 1.335-.002l8.023 8.023c.668.668 0 1.336 0 1.336-.669.67-5.778-.908-8.692 2.006L5.622 33.051z"/><path fill="#CCD6DD" d="M5.457 33.891a2.369 2.369 0 0 0-3.349-3.35l.087.087a.939.939 0 0 0-1.296.027.945.945 0 0 0 0 1.336L4.008 35.1a.94.94 0 0 0 1.369-1.29l.08.081z"/><path fill="#FCAB40" d="M13.31 33.709a5.636 5.636 0 0 1-4.011-1.661 5.633 5.633 0 0 1-1.661-4.011c0-1.515.59-2.939 1.661-4.011L19.995 13.33a5.637 5.637 0 0 1 4.012-1.661c1.515 0 2.94.59 4.011 1.661a5.68 5.68 0 0 1 0 8.022L17.322 32.047a5.64 5.64 0 0 1-4.012 1.662zM24.007 15.45c-.506 0-.98.197-1.338.554L11.974 26.7a1.879 1.879 0 0 0-.554 1.337c0 .506.197.979.553 1.336.358.357.832.555 1.337.555s.98-.197 1.337-.555l10.696-10.695a1.893 1.893 0 0 0-1.336-3.228z"/><path fill="#FCAB40" d="M25.344 24.026a1.892 1.892 0 0 0 2.674-2.674l-8.022-8.023a1.89 1.89 0 1 0-2.673 2.675l8.021 8.022zm-4.012 4.011a1.892 1.892 0 0 0 2.676-2.674l-8.023-8.023a1.893 1.893 0 0 0-2.675 2.675l8.022 8.022zm-4.01 4.011a1.89 1.89 0 1 0 2.673-2.674l-8.021-8.022a1.892 1.892 0 0 0-2.675 2.674l8.023 8.022z"/><path fill="#CCD6DD" d="M14.648 13.329a.946.946 0 0 0 1.337 0l1.337-1.336a.947.947 0 0 0-1.337-1.338l-1.337 1.338a.943.943 0 0 0 0 1.336zm-4.011 4.012c.37.371.967.37 1.337 0l1.336-1.337a.943.943 0 0 0 0-1.337.944.944 0 0 0-1.337 0l-1.337 1.337a.945.945 0 0 0 .001 1.337zm-4.012 4.012c.37.37.967.37 1.337 0l1.337-1.338a.944.944 0 1 0-1.336-1.337l-1.337 1.338a.945.945 0 0 0-.001 1.337z"/></svg>