<svg xmlns="http://www.w3.org/2000/svg" viewBox="0 0 36 36"><path fill="#2A6797" d="M20.952 18.872c-.265 2.577-.003 7.809.241 8.497.247.686 2.206 3.499 2.674 4.202.407.61-2.035 2.397-2.526 1.87-.887-.95-3.271-4.407-3.466-4.959-.195-.554-.966-6.297-1.403-9.329l4.48-.281z"/><path fill="#66757F" d="M12.115 3.532 9.502 2.113c-.449-.249.029-1.303.479-1.054l2.692 1.466-.558 1.007z"/><path fill="#CCD6DD" d="M16.492 33.744c-.658-.864-4.719.256-6.118.957C9.44 35.17 9.717 36 9.717 36h7.033s.399-1.391-.258-2.256z"/><path fill="#CC9B7A" d="M20.357 8.932c-2.148-1.12-5.023-2.745-7.273-5.713-.235-.31-2.122.944-1.969 1.156 2.125 2.938 4.438 5.5 11.075 7.398.069.02-.943-2.376-1.833-2.841z"/><path fill="#4289C1" d="M22.66 30.437c.12-.038.249-.065.374-.097-.19-.282-.388-.577-.588-.879-.118.035-.232.076-.347.116a94.546 94.546 0 0 1-.802-1.253 6.6 6.6 0 0 1 .362-.093c-.23-.378-.403-.689-.466-.862-.004-.011-.008-.033-.012-.046-.112.03-.227.055-.335.09a14.719 14.719 0 0 1-.319-1.505c.152-.036.305-.072.464-.099a45.276 45.276 0 0 1-.065-.999 7.696 7.696 0 0 0-.544.106 24.714 24.714 0 0 1-.156-1.649c.206-.042.418-.073.635-.096a55.444 55.444 0 0 1-.017-1.003c-.221.021-.44.045-.651.082-.001-.191.01-.466.021-.688.649-.842 1.058-1.939.713-3.468l-7.889.092s-1.107 9.026-1.107 9.857c0 .828.516 4.528.83 5.856.105.439 3.91.614 3.773-.354-.086-.599-.645-4.492-.554-4.948.086-.431.513-2.597 1.245-4.133l.064.448c.052-.059.108-.112.162-.168.055.507.123 1 .2 1.458-.051.041-.104.08-.153.123.07.461.134.871.191 1.21.059-.066.124-.126.186-.189.124.529.481 1.331.553 1.45-.086.079-.166.165-.247.249.148.243.34.541.557.868.076-.086.154-.17.236-.251.251.392.538.834.837 1.29-.073.07-.138.149-.207.222.199.282.4.562.596.827.057-.065.117-.126.177-.188.427.649.831 1.259 1.131 1.71.237.051.611-.08.999-.304-.316-.475-.825-1.242-1.358-2.053.182-.123.373-.236.574-.338.461.705.94 1.431 1.331 2.02.3-.234.561-.495.714-.733-.339-.509-.726-1.095-1.108-1.678zm-4.093-4.858a25.898 25.898 0 0 1-.184-1.593c.27-.169.555-.319.86-.438.038.558.095 1.119.166 1.656a6.538 6.538 0 0 0-.842.375zm.179 1.065c.256-.162.527-.308.817-.429.11.628.233 1.174.357 1.575a6.356 6.356 0 0 0-.695.393c-.041-.07-.347-.866-.479-1.539zm1.851 3.684c-.304-.465-.593-.911-.84-1.297a5.53 5.53 0 0 1 .594-.337c.204.331.491.781.82 1.289-.2.106-.39.221-.574.345z"/><path d="M19.198 22.592c.4-.332.798-.711 1.122-1.166-3.304.609-5.935-.062-7.598-.634l-.121 1.016c1.255.419 2.988.867 5.106.867.476-.001.977-.033 1.491-.083zm-2.604 3.518c.104-.338.225-.678.354-1.01-1.907.06-3.494-.274-4.66-.605-.04.349-.078.684-.113 1.006 1.118.31 2.577.612 4.318.612l.101-.003zm-.61 2.984c-.016-.24-.02-.42-.005-.497.018-.091.055-.276.103-.5a15.397 15.397 0 0 1-4.128-.437 6.252 6.252 0 0 0-.024.383c0 .14.016.368.042.648.969.218 2.188.42 3.613.42.128-.001.268-.014.399-.017zm-3.759 1.67c.048.343.1.69.152 1.028.628.08 1.348.144 2.162.144.548 0 1.138-.034 1.756-.104a98.8 98.8 0 0 1-.128-.994 15.462 15.462 0 0 1-3.942-.074z" fill="#88C9F9"/><g fill="#55ACEE"><path d="M14.2 18.73c-.056.269-1.602 8.59-1.643 9.077a3.463 3.463 0 0 0-.018.431c.008.139.626 5.29.705 5.892.274.061.636.102 1.024.115-.075-.569-.72-5.897-.73-6.068-.003-.05-.001-.12.004-.206.025-.393 1.485-8.301 1.638-9.036l-.98-.205z"/><path d="M16.691 18.454c-.001.014-.133 1.436-.312 2.322-.051.253-.123.534-.198.819a26.53 26.53 0 0 1-.28.972c-.25.814-.54 1.67-.815 2.472l-.001.004c-.124.361-.853 2.598-.889 3.001a1.447 1.447 0 0 0-.005.194c.011.176.641 5.411.719 6.004.363-.017.709-.062.99-.14-.075-.572-.7-5.734-.711-5.924-.001-.018.005-.052.007-.078.028-.313.895-2.911.924-2.997.276-.805.557-1.647.799-2.454.102-.342.193-.671.274-.989.059-.234.122-.472.165-.686.188-.938.321-2.367.327-2.428l-.994-.092zm2.706.599c0 .629-.265 1.913-.503 2.56-.045.121-.841 1.651-.985 1.979.359-.293.828-.617 1.298-1.008.201-.167.399-.348.59-.543.065-.167.128-.359.187-.566.238-.832.413-1.886.413-2.422h-1z"/></g><path fill="#D5AB88" d="M25.376 5.216a3.578 3.578 0 1 1-7.157.001 3.578 3.578 0 0 1 7.157-.001"/><path fill="#4289C1" d="M19.929 5.215c-1.71-1.278-2.587-3.85-1.95-4.525 1.196-1.268 3.688-.109 4.328.983.641 1.094-1.86 3.929-2.378 3.542z"/><path fill="#77B255" d="M13.038 18.185s.196-6.405 3.264-8.772c2.289-1.768 6.143-.446 7.165 1.599 1.024 2.045-2.414 3.167-2.414 8.28 0 1.023-8.015.898-8.015-1.107z"/><path fill="#D5AB88" d="M20.179 5.813c-.466 1.068-.788 1.977-.988 2.783.574.271 1.061 1.31 1.701 1.542 1.056.383 1.173-.277 1.197-.398.257-1.297.908-2.537 1.328-3.203.512-.809-2.646-2.084-3.238-.724z"/><path fill="#50A5E6" d="M18.942 3.06c0 1.151 1.674 4.486 4.971 4.473 1.727-.007 2.037-1.91 2.028-3.172-.006-1.081-1.176-2.966-2.808-3.433-1.631-.467-4.191.679-4.191 2.132z"/><path fill="#CCD6DD" d="M22.887 31.456c1.5-.255 1.286 1.386 1.247 1.974-.093 1.4-.37 2.57-1.362 2.57h-3.321s-.184-1.522 1.603-1.868c.353-.069-.312-2.312 1.833-2.676z"/><path fill="#D5AB88" d="M13.63 8.191c-.717-.828-.977-1.983-.796-3.425a1.648 1.648 0 0 0 1.006-1.503c0-.913-.763-1.652-1.705-1.652-.94 0-1.704.739-1.704 1.652 0 .206.044.402.115.584-.005.007-.026.004-.028.014-.871 7.123 4.099 7.824 5.732 8.055.101.014 1.768-2.244 1.666-2.244-1.993 0-3.435-.498-4.286-1.481z"/><path fill="#77B255" d="M14.445 8.385c-.384 1.283-1.605 2.723-1.605 2.723 1.765 1.579 3.844 1.719 3.844 1.719s1.818-2.049 2.159-3.28c-1.551.432-4.398-1.162-4.398-1.162z"/><path fill="#66757F" d="M29.589 11.917c-.013-.006-.024-.007-.037-.012-.049-.036-.091-.076-.147-.107l-15.62-8.65c-.449-.249-.706.926-.257 1.175l14.883 8.24c-.436.748-.717 1.871-.827 2.339-.189.805 1.137 1.61 2.004 1.61.867.001 1.027-4.072.001-4.595z"/></svg>