<svg xmlns="http://www.w3.org/2000/svg" viewBox="0 0 36 36"><path fill="#963B22" d="M18.528 3.81c-.731 0-1.421.173-2.037.472a2.975 2.975 0 0 0-3.488 2.928v5.1h.007c.078 2.748 2.326 4.954 5.093 4.954s5.015-2.206 5.093-4.954h.007V8.485a4.675 4.675 0 0 0-4.675-4.675z"/><path fill="#D4AB88" d="M15.447 34.875h-1.02s-1.384-3.348-1.18-5.736l2.531.549c.56 1.564-.331 5.187-.331 5.187zm4.885 0h1.02s1.384-3.348 1.18-5.736L20 29.688c-.559 1.564.332 5.187.332 5.187z"/><path fill="#DD2E44" d="M13.452 35.149c.102-.243.316-.694.339-.955.023-.261.034-.354.238-.426.345-.121 1.427-.087 1.613-.016.185.071.188.263.214.424.026.161.113.424.226.64s.406.697.26 1.034c-.061.14-.402.138-1.497.138s-1.408-.026-1.483-.118-.011-.477.09-.721zm8.875 0c-.102-.243-.316-.694-.339-.955-.023-.261-.034-.354-.238-.426-.345-.121-1.427-.087-1.613-.016-.185.071-.188.263-.214.424-.026.161-.113.424-.226.64s-.406.697-.26 1.034c.061.14.402.138 1.497.138s1.408-.026 1.483-.118c.074-.092.011-.477-.09-.721z"/><path fill="#D4AB88" d="M8.31 4.156c.011.127.814 1.525 1.266 2.625.452 1.1.747 2.25.984 2.5.476.499 1.926 1.474 2.911 2.937.985 1.464-1.977 2.58-2.611 1.588-.451-.706-1.309-2.368-2.097-3.759-.304-.54-.897-1.454-1.328-2.516-.406-1-.642-2.168-.702-2.312-.179-.425-.879-.977-.913-1.407 0 0 2.454-.084 2.49.344zm19.159 0c-.011.127-.814 1.525-1.266 2.625-.452 1.1-.747 2.25-.984 2.5-.476.499-1.926 1.474-2.911 2.937-.985 1.464 1.977 2.58 2.611 1.588.451-.706 1.309-2.368 2.097-3.759.304-.54.897-1.454 1.328-2.516.406-1 .642-2.168.702-2.312.178-.425.878-.977.912-1.406 0-.001-2.453-.085-2.489.343z"/><path fill="#99AAB5" d="M36 3.5a.5.5 0 0 1-.5.5H.5a.5.5 0 0 1 0-1h35a.5.5 0 0 1 .5.5z"/><path fill="#292F33" d="M34 0a1 1 0 0 0-1 1 1 1 0 1 0-2 0v5a1 1 0 1 0 2 0 1 1 0 1 0 2 0V1a1 1 0 0 0-1-1zM4 0a1 1 0 0 0-1 1 1 1 0 1 0-2 0v5a1 1 0 1 0 2 0 1 1 0 1 0 2 0V1a1 1 0 0 0-1-1z"/><path fill="#DD2E44" d="M24.918 13.806c-.625-.583-2.611-1.588-2.611-1.588-.709.401-1.237 1.188-1.465 1.571l-1.398.394h-2.89l-1.627-.406c-.231-.387-.755-1.162-1.458-1.559 0 0-1.986 1.004-2.611 1.588.406 1.039 1.543 2.428 1.543 2.428l.008-.001c.4.821.854 1.362.945 1.547.386.781.646 4.72.646 4.72l4 1.5 3.779-1.5s.26-3.939.643-4.719c.091-.185.545-.727.945-1.547l.008.001c0-.001 1.138-1.39 1.543-2.429z"/><path fill="#D4AB88" d="M16.471 11.412v3.059a1.529 1.529 0 1 0 3.058 0v-3.059h-3.058z"/><path fill="#963B22" d="M18.375 3.353c-.89 0-1.712.284-2.386.763a2.62 2.62 0 0 0-2.49 2.612c0 1.156.005 2.613 1.529 3.156a4.125 4.125 0 1 0 3.347-6.531z"/><path fill="#D4AB88" d="M21.75 5.602h-7.5v4.5a3.75 3.75 0 1 0 7.5 0v-4.5z"/><path fill="#963B22" d="m18 4-3.924 1.533v3.139c1.831 0 2.236-1.893 2.327-2.737.031.844.639 2.737 5.52 2.737V5.533L18 4z"/><path fill="#C1694F" d="M19.5 12.353h-3s0 .75 1.5.75 1.5-.75 1.5-.75z"/><circle fill="#662113" cx="16.125" cy="9.728" r=".375"/><path fill="#662113" d="M20.25 9.728a.375.375 0 1 1-.75 0 .375.375 0 0 1 .75 0z"/><path fill="#C1694F" d="M17.25 10.853h1.5s0 .75-.75.75-.75-.75-.75-.75z"/><g fill="#D4AB88"><path d="M27.096 4.363c-.33-.157-.476-.428-.377-.719l.003-.01c.099-.291.291-.346.738-.339 0 0 1.521.076 2.437.712 0 0-.199.304-.447.56l-.003.01c-.101.29-1.614.137-2.351-.214z"/><path d="M27.843 3.47a.257.257 0 0 1-.188-.31l.087-.357c.033-.137.173-.221.31-.188s.221.173.188.31l-.087.357a.258.258 0 0 1-.31.188zm-.445-.87a.315.315 0 0 0-.397.197l-.279.837c-.055.164.168-.068.332-.013a.314.314 0 0 0 .397-.196l.144-.427a.316.316 0 0 0-.197-.398z"/><path d="M28.384 3.399a.257.257 0 0 1-.188-.31l.082-.334c.033-.137.173-.221.31-.188s.221.173.188.31l-.082.334a.258.258 0 0 1-.31.188z"/><path d="M28.9 3.424a.257.257 0 0 1-.188-.31l.068-.277c.033-.137.173-.221.31-.188s.221.173.188.31l-.068.277a.258.258 0 0 1-.31.188z"/><path d="M29.419 3.447a.257.257 0 0 1-.188-.31l.04-.162c.033-.137.173-.221.31-.188s.221.173.188.31l-.04.162a.257.257 0 0 1-.31.188z"/></g><g fill="#D4AB88"><path d="M8.683 4.363c.33-.157.476-.428.377-.719l-.003-.01c-.1-.29-.292-.346-.738-.339 0 0-1.521.076-2.437.712 0 0 .199.304.447.56l.003.01c.1.29 1.614.137 2.351-.214z"/><path d="M7.936 3.47a.257.257 0 0 0 .188-.31l-.088-.357a.257.257 0 0 0-.31-.188.257.257 0 0 0-.187.31l.087.357a.258.258 0 0 0 .31.188zm.445-.87a.315.315 0 0 1 .397.197l.279.837c.055.164-.168-.068-.332-.013a.314.314 0 0 1-.397-.196l-.144-.427a.315.315 0 0 1 .197-.398z"/><path d="M7.395 3.399a.257.257 0 0 0 .188-.31l-.082-.334a.257.257 0 0 0-.31-.188.258.258 0 0 0-.188.31l.082.334a.258.258 0 0 0 .31.188z"/><path d="M6.879 3.424a.258.258 0 0 0 .188-.31l-.068-.277a.257.257 0 0 0-.309-.188.257.257 0 0 0-.188.31l.068.277a.256.256 0 0 0 .309.188z"/><path d="M6.36 3.447a.257.257 0 0 0 .188-.31l-.04-.162a.257.257 0 0 0-.31-.188.258.258 0 0 0-.187.31l.04.162a.255.255 0 0 0 .309.188z"/></g><path fill="#DD2E44" d="M21.779 24.5 18 23l-4 1.5s-.94 1.766-.94 5.188h2.719c.917-.979 1.25-3.604 1.25-3.604h1.721s.333 2.625 1.25 3.604h2.719c0-3.422-.94-5.188-.94-5.188z"/><path fill="#C1694F" d="M14 22.5h7.779v2H14z"/><path fill="#14171A" d="M19 22.399h.65v2.209H19z"/><circle fill="#14171A" cx="18.5" cy="23.458" r=".167"/><path fill="#14171A" d="M18.021 23.458a.167.167 0 0 1-.334 0 .167.167 0 0 1 .334 0z"/><circle fill="#14171A" cx="17.208" cy="23.458" r=".167"/><circle fill="#14171A" cx="16.562" cy="23.458" r=".167"/><circle fill="#14171A" cx="15.917" cy="23.458" r=".167"/><circle fill="#14171A" cx="15.271" cy="23.458" r=".167"/><circle fill="#14171A" cx="14.625" cy="23.458" r=".167"/><circle fill="#14171A" cx="17.208" cy="23.458" r=".167"/><circle fill="#657786" cx="16.318" cy="23.458" r=".148"/><circle fill="#657786" cx="16.553" cy="23.458" r=".148"/><path fill="#657786" d="M16.318 23.31h.235v.297h-.235z"/><path fill="#657786" d="M16.729 24.846h-.758v-2.698h.758v.35h-.408v1.998h.408z"/></svg>