<svg xmlns="http://www.w3.org/2000/svg" viewBox="0 0 36 36"><path fill="#55ACEE" d="m18 8-7-8H0l14 17 11.521-4.75z"/><path fill="#3B88C3" d="m25 0-7 8 5.39 7.312 1.227-1.489L36 0z"/><path fill="#FFAC33" d="M23.26 16.026c.08-.217.131-.448.131-.693a2 2 0 0 0-2-2h-6.667a2 2 0 0 0-2 2c0 .245.05.476.131.693-3.258 1.826-5.464 5.307-5.464 9.307C7.391 31.224 12.166 36 18.058 36c5.891 0 10.667-4.776 10.667-10.667-.001-4-2.206-7.481-5.465-9.307z"/><circle fill="#FFD983" cx="18.058" cy="25.333" r="8"/><path fill="#FFAC33" d="M21.278 30.634a.699.699 0 0 1-.406-.131L18 28.444l-2.871 2.059a.697.697 0 0 1-1.071-.777l1.071-3.456-2.845-2.005a.698.698 0 0 1 .409-1.259l3.524-.005 1.122-3.37a.697.697 0 0 1 1.324 0l1.103 3.37 3.542.005a.697.697 0 0 1 .409 1.259l-2.846 2.005 1.071 3.456a.695.695 0 0 1-.664.908z"/></svg>