<svg xmlns="http://www.w3.org/2000/svg" viewBox="0 0 36 36"><path fill="#662113" d="m9.294 7.969.55-.372v-.395a.5.5 0 0 0-.5-.5h-2a.5.5 0 0 0-.5.5V9.07l.632.428-.632.427v4.277h3V8.341l-.55-.372z"/><path fill="#D99E82" d="M31 21v-5l-5.965-5.965-2.41 1.507.167-3.75L18 3 5 16v7h2v1H5v9h26v-5.5h-1v-1h1V22h-2v-1z"/><path fill="#C1694F" d="M10 26h4v6h-4zm0-9h4v4h-4zm12.5 9h4v4h-4z"/><path fill="#BCBEC0" d="M33.5 33.5A1.5 1.5 0 0 1 32 35H4a1.5 1.5 0 0 1 0-3h28a1.5 1.5 0 0 1 1.5 1.5z"/><path d="m31.707 15.293-5.802-5.802-1.74 1.088 6.128 6.128a.997.997 0 0 0 1.414 0 .999.999 0 0 0 0-1.414zm-8.854-8.855-4.146-4.146a.999.999 0 0 0-1.414 0l-13 13a.999.999 0 1 0 1.414 1.414L18 4.414l4.732 4.732.121-2.708z" fill="#292F33"/><path fill="#662113" d="m24.42 10.42-1.795 1.122.125-2.792-1.979-1.979-1.625 7.417 3.687 1.729-2.75 7.666L27 17l-1-5zM8.997 18.918l5.58-1.722.428 1.389-5.58 1.721zm-.318 10.848 5.753-2.952.664 1.293-5.754 2.952zm18.489-.274-5.58-1.722.429-1.388 5.58 1.721z"/><path fill="#662113" d="m14.728 31.046-5.99-2.705.597-1.324 5.99 2.704z"/></svg>