<svg xmlns="http://www.w3.org/2000/svg" viewBox="0 0 36 36"><path fill="#BE1931" d="M21 15a4 4 0 0 1-4 4H4a4 4 0 0 1-4-4v-3a4 4 0 0 1 4-4h13a4 4 0 0 1 4 4v3z"/><path fill="#BE1931" d="M36 6a4 4 0 0 1-4 4H20a4 4 0 0 1-4-4V5a4 4 0 0 1 4-4h12a4 4 0 0 1 4 4v1z"/><path fill="#F4ABBA" d="M0 12v22a2 2 0 0 0 2 2h31V12H0z"/><path fill="#3B88C3" d="M2 32h12v4H2zm0-6h16v4H2z"/><path fill="#FFD4DE" d="M16 5v31h18a2 2 0 0 0 2-2V5H16z"/><path fill="#55ACEE" d="M18 20h16v4H18zm0-6h16v4H18zm0-6h16v4H18zm0 18h16v4H18z"/><path fill="#FFD4DE" d="M22 7h2v24h-2zm6 0h2v24h-2z"/><path fill="#3B88C3" d="M22 32h8v4h-8z"/><path fill="#DD2E44" d="M10 14v4H6v-4H4v10h2v-4h4v4h2V14z"/><path fill="#F4ABBA" d="M7 25h2v6H7zm7 0h2v6h-2z"/><path fill="#EA596E" d="M3 3C3 .239 6.963-1 8 3c1.122-4 5-2.761 5 0 0 3-5 6-5 6S3 6 3 3z"/></svg>