<svg xmlns="http://www.w3.org/2000/svg" viewBox="0 0 36 36"><path fill="#AA8DD8" d="M7.415 4c1-1 .25-4-1.438-4s-1.562 2-.562 2 1 2 1 3 1-1 1-1zM3.232 5.72c1-1 .25-4-1.438-4s-1.562 2-.562 2 1 2 1 3 1-1 1-1z"/><path fill="#744EAA" d="M29.607 32.856c.189.808 1.227 2.28 2.032 2.091.806-.19 1.077-1.971.888-2.777a1.499 1.499 0 1 0-2.92.686zm-5.434.649c.003.83.681 2.498 1.509 2.495.828-.004 1.494-1.677 1.491-2.506a1.5 1.5 0 0 0-3 .011zm-5.271-2.446c-.326.764-.365 2.563.396 2.89.763.324 2.037-.947 2.363-1.71a1.501 1.501 0 0 0-2.759-1.18zm-5.031-11.04c-.812.172-2.308 1.173-2.139 1.983.173.81 1.945 1.124 2.757.953a1.501 1.501 0 1 0-.618-2.936zm-2.037-5c-.812.172-2.308 1.173-2.139 1.983.173.81 1.945 1.124 2.757.953a1.502 1.502 0 0 0 1.16-1.777 1.502 1.502 0 0 0-1.778-1.159z"/><path fill="#9266CC" d="M27.244 34c2.831 0 4.926-.877 5.266-1.027a4.5 4.5 0 0 0-3.588-8.253c-.133.05-1.793.649-3.343-.072-1.851-.861-2.995-3.309-3.628-5.209-.144-.43-.385-1.274-.686-2.316-1.866-6.471-2.832-8.285-3.983-9.82C13.571 2.352 7.69 2.007 4.799 2.587a4.5 4.5 0 0 0-3.53 5.295 4.499 4.499 0 0 0 5.296 3.53c.162-.026 2.204-.306 3.424 1.169.643 1.287 2.08 5.128 2.63 7.034.346 1.199.629 2.171.794 2.667 1.773 5.317 4.666 8.893 8.603 10.629A12.867 12.867 0 0 0 27.244 34z"/><circle fill="#FFF" cx="6.682" cy="5" r="1"/><path d="M30.923 32.964a1 1 0 0 1-.965-1.267c.757-2.722-.77-4.542-.785-4.56a1 1 0 0 1 1.517-1.303c.092.107 2.234 2.66 1.195 6.397a1 1 0 0 1-.962.733zm-7.199-.563a1.001 1.001 0 0 1-.731-1.684c1.485-1.587 1.453-4.193 1.452-4.22a1 1 0 0 1 .972-1.028c.542-.005 1.013.419 1.028.972.004.139.073 3.437-1.991 5.644a1 1 0 0 1-.73.316zm-8.542-8.696a1 1 0 0 1-.162-1.986c3.074-.51 4.774-2.377 4.791-2.396a.999.999 0 0 1 1.5 1.322c-.087.099-2.156 2.415-5.964 3.046a.935.935 0 0 1-.165.014zm2.921 4.857a1 1 0 0 1-.302-1.953c2.693-.853 3.88-2.83 3.892-2.85a.999.999 0 1 1 1.725 1.011c-.063.108-1.595 2.663-5.013 3.744a.971.971 0 0 1-.302.048zm-4.619-10.67a1 1 0 0 1-.124-1.993c2.689-.34 4.657-1.971 4.676-1.988a1 1 0 0 1 1.293 1.526c-.097.083-2.42 2.029-5.718 2.446a.915.915 0 0 1-.127.009zm-1.821-4.767a1.001 1.001 0 0 1-.3-1.955c3.13-.983 4.253-2.692 4.299-2.764a1.002 1.002 0 0 1 1.375-.312.996.996 0 0 1 .324 1.366c-.06.097-1.506 2.396-5.399 3.619-.099.031-.2.046-.299.046z" fill="#744EAA"/></svg>