<svg xmlns="http://www.w3.org/2000/svg" viewBox="0 0 36 36"><path fill="#FFAC33" d="M8.231 10c6-8 14-10 18-10 1 0 1 1 0 1s-6 2-7 9-11 0-11 0zm-1 18c4 3 13 8 18 8 3 0 2-1 1-1s-9-3-10-7-9 0-9 0z"/><path fill="#FFCC4D" d="M35 9c-1.611 0-4.059 2.972-5.268 6.294-1.475-5.62-6.166-10.739-12.945-10.739-8.273 0-12.061 10.216-14.524 14.479-.629 1.091-4.091 1.034-.989 3.103-3.103 2.068.449 2.243 1.222 3.103 2.625 2.92 8.997 6.205 14.291 6.205 5.655 0 11.12-3.786 12.863-8.958C30.828 25.896 33.353 29 35 29c2.209 0-2-5.582-2-10s4.209-10 2-10z"/><g fill="#F4900C"><path d="M18.001 17.967a.998.998 0 0 0 .966 1.032l.034.001a1 1 0 0 0 .998-.967c.201-6.065 5.758-8.816 6.35-9.092a13.767 13.767 0 0 0-1.51-1.467c-1.885 1.057-6.634 4.323-6.838 10.493zm5.018-2.163a1 1 0 0 0 1.962.392c.516-2.581 2.296-3.574 3.592-3.956a15.674 15.674 0 0 0-1.028-1.768c-1.877.691-3.908 2.246-4.526 5.332z"/><path d="M13 20a1 1 0 1 0 2 0c0-8.97 5.841-12.544 8.266-13.641a12.403 12.403 0 0 0-2.205-1.067C17.888 7.169 13 11.446 13 20z"/></g><circle fill="#292F33" cx="9.5" cy="15.5" r="1.5"/></svg>