<svg xmlns="http://www.w3.org/2000/svg" viewBox="0 0 36 36"><path fill="#FFDC5D" d="M15.438 22v-3h5v3h1.861v6h-9v-6z"/><path fill="#3B93D9" d="M25.472 22h-5L18 25.778 15.438 22H9.472c-1.779 0-1.945 1.193-1.945 2.973V36h20.945V24.973c0-1.973-1-2.973-3-2.973z"/><path fill="#1B6399" d="M23.486 26h1.028v10h-1.028zm-12 0h1.028v10h-1.028z"/><path fill="#FFDC5D" d="M25.438 14V5l-15-1v10h.024c.252 3.89 3.498 6.969 7.476 6.969 3.806 0 6.957-2.822 7.443-6.473.022-.165.046-.329.057-.496z"/><path fill="#FFAC33" d="M25.381 14.495A8.82 8.82 0 0 0 27.298 9 8.861 8.861 0 0 0 18.437.139a8.802 8.802 0 0 0-3.713.825c.11-.007.379-.013.517-.017a7.139 7.139 0 0 0-7.082 7.137c0 2.058.884 3.898 2.278 5.199V10c6.07 0 9.549-2.576 11.356-4.603.491 1.542 1.565 3.883 3.644 4.466V14c-.01.167-.034.331-.056.495z"/><path fill="#BF6952" d="M21.16 17.723h-6.444s.805 1.61 3.222 1.61 3.222-1.61 3.222-1.61zM18.438 15.5h-1a.5.5 0 0 1 0-1h1a.5.5 0 0 1 0 1z"/><path fill="#662113" d="M14.438 13a1 1 0 0 1-1-1v-1a1 1 0 0 1 2 0v1a1 1 0 0 1-1 1zm7 0a1 1 0 0 1-1-1v-1a1 1 0 0 1 2 0v1a1 1 0 0 1-1 1z"/><path fill="#FFDC5D" d="M28.998 34v-3h-4v3h-1v2h6v-2z"/><path fill="#88C9F9" d="M24.998 33h-2c-2.493 0-4.276 1.385-4.814 3h17.632c-.517-1.602-2.159-3-3.818-3h-3l-.466.466L26.998 35l-2-2z"/><path fill="#FFDC5D" d="m32.993 27.04-.002-.04h.007v-4.286l-4.286-.857-7.714.857V27H21l-.002.04c0 .644.106 1.263.296 1.844A5.995 5.995 0 0 0 26.996 33a5.995 5.995 0 0 0 5.697-4.103c.192-.585.3-1.208.3-1.857z"/><path fill="#F4900C" d="M33.998 25.125A6.125 6.125 0 0 0 27.873 19a6.16 6.16 0 0 0-.875.07 6.148 6.148 0 0 0-.875-.07 6.125 6.125 0 0 0-6.125 6.125c0 1.418.487 2.721 1.296 3.759a5.92 5.92 0 0 1-.296-1.844L21 27h-.002v-1.911c4.172-.181 6.588-1.592 7.929-2.91.91 1.074 2.351 2.414 4.071 2.816V27h-.007l.002.04c0 .649-.108 1.272-.301 1.857a6.09 6.09 0 0 0 1.306-3.772z"/><path fill="#BF6952" d="M28.998 30h-4s.389 1.333 2 1.333 2-1.333 2-1.333zm-2-.5a.47.47 0 0 1-.35-.15c-.1-.09-.15-.22-.15-.35s.05-.26.15-.36c.17-.17.52-.18.71.01.09.091.14.221.14.351s-.05.26-.15.35a.472.472 0 0 1-.35.149z"/><path fill="#662113" d="M28.998 28a.832.832 0 0 1-.833-.833v-.833a.832.832 0 1 1 1.666 0v.833a.832.832 0 0 1-.833.833zm-4 0a.832.832 0 0 1-.833-.833v-.833a.832.832 0 1 1 1.666 0v.833a.832.832 0 0 1-.833.833z"/><path fill="#FFDC5D" d="M10.998 34v-3h-4v3h-1v2h6v-2z"/><path fill="#88C9F9" d="M6.998 33h-2C2.505 33 .722 34.385.184 36h17.632c-.517-1.602-2.159-3-3.818-3h-3l-.466.466L8.998 35l-2-2z"/><path fill="#FFDC5D" d="m14.993 27.04-.002-.04h.007v-4.286l-4.286-.857-7.714.857V27H3l-.002.04c0 .644.106 1.263.296 1.844A5.995 5.995 0 0 0 8.996 33a5.995 5.995 0 0 0 5.697-4.103c.192-.585.3-1.208.3-1.857z"/><path fill="#F4900C" d="M15.998 25.125A6.125 6.125 0 0 0 9.873 19a6.16 6.16 0 0 0-.875.07 6.148 6.148 0 0 0-.875-.07 6.125 6.125 0 0 0-6.125 6.125c0 1.418.487 2.721 1.296 3.759a5.92 5.92 0 0 1-.296-1.844L3 27h-.002v-1.911c4.172-.181 6.588-1.592 7.929-2.91.91 1.074 2.351 2.414 4.071 2.816V27h-.007l.002.04c0 .649-.108 1.272-.301 1.857a6.09 6.09 0 0 0 1.306-3.772z"/><path fill="#BF6952" d="M10.998 30h-4s.389 1.333 2 1.333 2-1.333 2-1.333zm-2-.5a.47.47 0 0 1-.35-.15c-.1-.09-.15-.22-.15-.35s.05-.26.15-.36c.17-.17.52-.18.71.01.09.091.14.221.14.351s-.05.26-.15.35a.472.472 0 0 1-.35.149z"/><path fill="#662113" d="M10.998 28a.832.832 0 0 1-.833-.833v-.833a.832.832 0 1 1 1.666 0v.833a.832.832 0 0 1-.833.833zm-4 0a.832.832 0 0 1-.833-.833v-.833a.832.832 0 1 1 1.666 0v.833a.832.832 0 0 1-.833.833z"/></svg>