<svg xmlns="http://www.w3.org/2000/svg" viewBox="0 0 36 36"><path fill="#FFDC5D" d="M5 8.042c6.626 0 12 5.373 12 12 0 6.626-5.374 12-12 12-1.787 0-3.476-.401-5-1.102V9.143a11.94 11.94 0 0 1 5-1.101z"/><path fill="#FFAC33" d="M15.333 15.042c-.055.06-.128.115-.197.171-.72.716-1.753 1.477-3.219 2.036-3.691 1.407-9.121.297-9.121.297s.748-1.198 2.101-2.492A17.112 17.112 0 0 0 0 17.425v-9.25a13.44 13.44 0 0 1 6-1.428c6.508-.008 9.915 3.393 10.059 6.135.176.085.352.168.531.265 0 0-.237.641-.902 1.459a9.567 9.567 0 0 1-.249.29c-.038.047-.064.1-.106.146z"/><path fill="#662113" d="M10 21.542c1.411 0 1.497-1.251 1.5-1.503a.5.5 0 0 1 1 .003c0 .864-.523 2.5-2.5 2.5a.5.5 0 0 1 0-1zm-5 0c1.411 0 1.497-1.251 1.5-1.503a.5.5 0 0 1 1 .003c0 .864-.523 2.5-2.5 2.5a.5.5 0 0 1 0-1z"/><path fill="#C1694F" d="M9.995 25.542a.501.501 0 0 1 .005-1c.602 0 1.5.399 1.5 1.5 0 .438-.143.765-.352 1 .209.235.352.562.352 1 0 1.101-.898 1.5-1.5 1.5a.497.497 0 0 1-.496-.494.503.503 0 0 1 .49-.506c.231-.006.506-.098.506-.5s-.275-.494-.5-.5h-.011a.5.5 0 0 1 .006-1c.23-.006.505-.098.505-.5 0-.403-.274-.494-.505-.5z"/><path fill="#FFDC5D" d="M31 8.042c-6.626 0-12 5.373-12 12 0 6.626 5.374 12 12 12 1.787 0 3.476-.401 5-1.102V9.143a11.94 11.94 0 0 0-5-1.101z"/><path fill="#FFAC33" d="M20.667 15.042c.055.06.128.115.197.171.72.716 1.753 1.477 3.219 2.036 3.691 1.407 9.121.297 9.121.297s-.748-1.198-2.101-2.492A17.085 17.085 0 0 1 36 17.425v-9.25a13.428 13.428 0 0 0-6-1.429c-6.508-.008-9.915 3.393-10.059 6.135-.176.085-.352.168-.531.265 0 0 .237.641.902 1.459.077.094.161.191.249.29.038.048.064.101.106.147z"/><path fill="#662113" d="M26 21.542c-1.411 0-1.497-1.251-1.5-1.503a.5.5 0 0 0-1 .003c0 .864.523 2.5 2.5 2.5a.5.5 0 0 0 0-1zm5 0c-1.411 0-1.497-1.251-1.5-1.503a.5.5 0 0 0-1 .003c0 .864.523 2.5 2.5 2.5a.5.5 0 0 0 0-1z"/><path fill="#C1694F" d="M26.005 25.542a.501.501 0 0 0-.005-1c-.602 0-1.5.399-1.5 1.5 0 .438.143.765.352 1-.209.235-.352.562-.352 1 0 1.101.898 1.5 1.5 1.5.273 0 .493-.22.496-.494a.503.503 0 0 0-.49-.506c-.231-.006-.506-.098-.506-.5s.275-.494.5-.5h.011a.5.5 0 0 0-.006-1c-.23-.006-.505-.098-.505-.5 0-.403.274-.494.505-.5z"/><path fill="#DD2E44" d="M26.539 4.711A4.711 4.711 0 0 0 21.828 0C20.249 0 18.855.78 18 1.972A4.704 4.704 0 0 0 14.172 0a4.711 4.711 0 0 0-4.711 4.711c0 .369.047.727.127 1.07.654 4.065 5.173 8.353 8.411 9.529 3.238-1.177 7.758-5.465 8.412-9.528.081-.344.128-.702.128-1.071z"/></svg>