<svg xmlns="http://www.w3.org/2000/svg" viewBox="0 0 36 36"><path fill="#FFDC5D" d="M3.945 14c.253 3.89 3.521 6.969 7.5 6.969s7.247-3.079 7.5-6.969V4h-15v10z"/><path fill="#FFAC33" d="M15.483.808c-.333 0-.657.034-.974.09C13.337.328 12.334 0 10.945 0c-4.907 0-9 4.093-9 9v7c.148 5.223 4.241 9.568 9.5 9.568s9.352-4.345 9.5-9.568V6c0-3.122-2.339-5.192-5.462-5.192zM18.945 14c-.253 3.89-3.521 6.969-7.5 6.969S4.198 17.89 3.945 14V9.663c5.328-.155 8.51-2.343 10.237-4.181C14.597 6.957 15.746 9 18.945 9v5z"/><path fill="#9268CA" d="M18.945 22h-16C1.166 22 1 23.193 1 24.973V36h20.945V24.973c0-1.973-1-2.973-3-2.973z"/><path fill="#7450A8" d="M16.945 26h1.028v10h-1.028zm-12 0h1.028v10H4.945z"/><path fill="#FFDC5D" d="M8.945 19v3a2.5 2.5 0 1 0 5 0v-3h-5z"/><path fill="#DA2F47" d="M8.214 17.769h6.461s-.808 1.616-3.231 1.616-3.23-1.616-3.23-1.616z"/><path fill="#BF6952" d="M11.945 15.5h-1a.5.5 0 0 1 0-1h1a.5.5 0 0 1 0 1z"/><path fill="#662113" d="M7.945 13a1 1 0 0 1-1-1v-1a1 1 0 1 1 2 0v1a1 1 0 0 1-1 1zm7 0a1 1 0 0 1-1-1v-1a1 1 0 1 1 2 0v1a1 1 0 0 1-1 1z"/><path fill="#FFDC5D" d="M28.001 35v-4h-4v4h-1v1h6v-1z"/><path fill="#88C9F9" d="M31.001 33h-3l-2 3h8.818c-.518-1.602-2.159-3-3.818-3zm-13.814 3h8.814l-2-3h-2c-.368 0-.719.032-1.055.088-1.941.326-3.301 1.535-3.759 2.912z"/><path fill="#FFDC5D" d="M32.995 26.047 32.993 26h.008v-6h-3.557c-1.018-.574-2.192-.906-3.446-.906s-2.428.332-3.446.906h-3.551v6h.002l-.002.047c0 .145.013.286.022.428.224 3.64 3.257 6.525 6.975 6.525 3.383 0 6.206-2.387 6.856-5.558a6.97 6.97 0 0 0 .141-1.395z"/><path fill="#F4900C" d="M34.335 22.861A7.86 7.86 0 0 0 26.474 15a7.817 7.817 0 0 0-3.464.812 6.136 6.136 0 0 0-6.009 6.133 6.1 6.1 0 0 0 2.022 4.53c-.009-.142-.022-.284-.022-.428l.002-.047h-.002v-3.035c4.856-.18 7.656-1.81 9.204-3.332 1.065 1.257 2.765 2.841 4.796 3.257V26h-.008l.002.047c0 .478-.049.944-.141 1.395a7.818 7.818 0 0 0 1.481-4.581z"/><path fill="#BF6952" d="M29.001 30h-6s.583 2 3 2 3-2 3-2zm-3-.5a.47.47 0 0 1-.35-.15c-.1-.09-.15-.22-.15-.35s.05-.26.15-.36c.17-.17.52-.18.71.01.09.091.14.221.14.351s-.05.26-.15.35a.472.472 0 0 1-.35.149z"/><path fill="#662113" d="M23.001 28a1 1 0 0 1-1-1v-1a1 1 0 1 1 2 0v1a1 1 0 0 1-1 1zm6 0a1 1 0 0 1-1-1v-1a1 1 0 1 1 2 0v1a1 1 0 0 1-1 1z"/></svg>