<svg xmlns="http://www.w3.org/2000/svg" viewBox="0 0 36 36"><path fill="#292F33" d="M36 36v-2a6 6 0 0 0-6-6H14a6 6 0 0 0-6 6v2h28z"/><path fill="#E1E8ED" d="M17 28h9.929v8H17z"/><path fill="#FFDC5D" d="M17.64 28.101c1.744 1.268 2.848 1.963 4.36 1.963 1.512 0 2.615-.696 4.359-1.963V24.29h-8.72v3.811z"/><path fill="#F9CA55" d="M17.632 25.973c1.216 1.374 2.724 1.746 4.364 1.746 1.639 0 3.146-.373 4.363-1.746v-3.491h-8.728v3.491z"/><path fill="#FFDC5D" d="M15.444 15.936c0 1.448-.734 2.622-1.639 2.622s-1.639-1.174-1.639-2.622.734-2.623 1.639-2.623c.905-.001 1.639 1.174 1.639 2.623m16.389 0c0 1.448-.733 2.622-1.639 2.622-.905 0-1.639-1.174-1.639-2.622s.733-2.623 1.639-2.623c.906-.001 1.639 1.174 1.639 2.623"/><path fill="#FFDC5D" d="M13.477 16.959c0-5.589 3.816-10.121 8.523-10.121s8.522 4.532 8.522 10.121S26.707 27.08 22 27.08c-4.706 0-8.523-4.531-8.523-10.121"/><path fill="#6D6E71" d="m26.525 21.346-1.268-.274c-.405-.095-1.173-.072-1.535-.072h-3.689c-.362 0-1.131-.023-1.536.071l-1.266.274c-.348.101-.55.393-.45.74.082.288.345.441.63.441.059 0 .12-.026.18-.042l1.267-.371a.639.639 0 0 0-.066.676.657.657 0 0 0 .88.289l1.034-.518a.64.64 0 0 0 .639.587.656.656 0 0 0 .587-.363l.068-.138-.053.138c.114.229.224.363.465.363a.665.665 0 0 0 .292-.069.646.646 0 0 0 .347-.518l1.033.518a.656.656 0 0 0 .88-.289.643.643 0 0 0-.066-.676l1.266.371c.059.016.121.042.181.042.285 0 .547-.152.63-.441.099-.347-.102-.639-.45-.739zM22 3.48c5.648 0 9.178 4.168 9.178 7.641s-.706 4.863-1.412 3.473l-1.412-2.778s-4.235 0-5.647-1.39c0 0 2.118 4.168-2.118 0 0 0 .706 2.779-3.53-.694 0 0-2.118 1.389-2.824 4.862-.196.964-1.412 0-1.412-3.473C12.822 7.648 15.646 3.48 22 3.48"/><path fill="#662113" d="M18 17c-.55 0-1-.45-1-1v-1c0-.55.45-1 1-1s1 .45 1 1v1c0 .55-.45 1-1 1m8 0c-.55 0-1-.45-1-1v-1c0-.55.45-1 1-1s1 .45 1 1v1c0 .55-.45 1-1 1"/><path fill="#C1694F" d="M22.75 19.75h-1.5c-.413 0-.75-.337-.75-.75s.337-.75.75-.75h1.5c.413 0 .75.337.75.75s-.337.75-.75.75"/><path fill="#99AAB5" d="M22.001 30.878s3.381 2.494 4.093 2.778c.156.063-.366-3.656-.366-3.656h-7.454s-.523 3.781-.231 3.625c.638-.343 3.958-2.747 3.958-2.747"/><path fill="#269" d="M23.312 33.438s.375-.625.531-.906c.183-.329.453-1.57.453-1.57v-.963l-4.583.003v.96s.287 1.241.47 1.57c.156.281.528.906.528.906s-.753.562-1.035 2.563h4.667c-.281-1.595-1.031-2.563-1.031-2.563"/><path fill="#F5F8FA" d="M17.292 26.625c.566.566 4.709 3.383 4.709 3.383s-2.126 1.242-4.084 3.534c-.197.23-1.542-4.625-1.583-5.709-.012-.303.687-1.479.958-1.208m9.438 0c-.566.566-4.709 3.383-4.709 3.383s2.126 1.242 4.084 3.534c.196.23 1.542-4.625 1.583-5.709.012-.303-.687-1.479-.958-1.208"/><path fill="#292F33" d="M27.62 28s-1.542 5.463-5.62 7.411C17.922 33.463 16.38 28 16.38 28H15v8h14v-8h-1.38z"/><path fill="#66757F" d="M12.083 33.341c.251 0 .401 2.659.401 2.659h-.956s.193-2.659.555-2.659m3 0c.251 0 .401 2.659.401 2.659h-.956s.193-2.659.555-2.659m16.846 0c-.251 0-.401 2.659-.401 2.659h.956c-.001 0-.194-2.659-.555-2.659m-3 0c-.251 0-.401 2.659-.401 2.659h.956c-.001 0-.194-2.659-.555-2.659"/><path fill="#C1694F" d="M7.854 23.665c.468 1.24.178 2.498-.649 2.812-.826.311-1.876-.441-2.345-1.681-.468-1.239-.178-2.498.649-2.811.826-.312 1.876.44 2.345 1.68"/><path fill="#662113" d="m9.092 36-3.479-9.208.25-.094a2.14 2.14 0 0 0 1.242-2.75 2.14 2.14 0 0 0-2.75-1.241l-1.995.754a2.137 2.137 0 0 0-1.242 2.749 2.138 2.138 0 0 0 2.749 1.241l.25-.094L7.382 36h1.71z"/><path fill="#C1694F" d="M3.363 25.361c.468 1.24.178 2.498-.649 2.812-.826.312-1.876-.44-2.345-1.681-.468-1.239-.178-2.498.649-2.811.827-.312 1.877.44 2.345 1.68"/><path fill="#FFDC5D" d="m11.318 36-.466-1.588a2.353 2.353 0 0 0-2.911-1.592l-1.255.368A2.35 2.35 0 0 0 5.076 36h6.242z"/></svg>