<svg xmlns="http://www.w3.org/2000/svg" viewBox="0 0 36 36"><path fill="#FFDC5D" d="M21 14c.253 3.89 3.521 6.969 7.5 6.969S35.747 17.89 36 14V4H21v10z"/><path fill="#FFAC33" d="M36 21.752V14c-.253 3.89-3.521 6.969-7.5 6.969S21.253 17.89 21 14V9.663c5.328-.155 8.51-2.343 10.237-4.181C31.652 6.957 32.801 9 36 9V1.9c-.931-.689-2.115-1.093-3.462-1.093-.333 0-.657.034-.974.09C30.393.328 29.39 0 28 0c-4.907 0-9 4.093-9 9v7c.064 2.258.868 4.35 2.182 6L24 24h9l2.818-2c.064-.08.121-.166.182-.248z"/><path fill="#9268CA" d="M35.818 22H21c-2 0-3 1-3 2.973V36h18V22h-.182z"/><path fill="#7450A8" d="M20.986 26h1.028v10h-1.028z"/><path fill="#FFDC5D" d="M26 19v3a2.5 2.5 0 1 0 5 0v-3h-5z"/><path fill="#DA2F47" d="M25.27 17.769h6.46s-.808 1.616-3.23 1.616-3.23-1.616-3.23-1.616z"/><path fill="#BF6952" d="M29 15.5h-1a.5.5 0 0 1 0-1h1a.5.5 0 0 1 0 1z"/><path fill="#662113" d="M25 13a1 1 0 0 1-1-1v-1a1 1 0 1 1 2 0v1a1 1 0 0 1-1 1zm7 0a1 1 0 0 1-1-1v-1a1 1 0 1 1 2 0v1a1 1 0 0 1-1 1z"/><path fill="#FFDC5D" d="M5 22v-4h5v4h2v6H3v-6z"/><path fill="#3B94D9" d="M15 22h-5l-2.472 3.778L5 22H0v14h18V24.973C18 23 17 22 15 22z"/><path fill="#1B6399" d="M13.986 26h1.028v10h-1.028z"/><path fill="#FFDC5D" d="M15 14V5L0 4v10h.024c.252 3.89 3.498 6.969 7.476 6.969 3.791 0 6.932-2.799 7.438-6.428.025-.18.05-.358.062-.541z"/><path fill="#FFAC33" d="M3.806.806A7.095 7.095 0 0 0 0 1.912v8.083c5.947-.055 9.375-2.593 11.162-4.598.506 1.589 1.633 4.021 3.838 4.51V14c-.012.183-.037.361-.062.54A8.86 8.86 0 0 0 8.139 0 8.812 8.812 0 0 0 4.4.836a6.866 6.866 0 0 0-.594-.03zM15 5v.166l-.028-.167L15 5z"/><path fill="#BF6952" d="M10.722 17.723H4.278s.805 1.61 3.222 1.61 3.222-1.61 3.222-1.61zM8 15.5H7a.5.5 0 0 1 0-1h1a.5.5 0 0 1 0 1z"/><path fill="#662113" d="M4 13a1 1 0 0 1-1-1v-1a1 1 0 0 1 2 0v1a1 1 0 0 1-1 1zm7 0a1 1 0 0 1-1-1v-1a1 1 0 0 1 2 0v1a1 1 0 0 1-1 1z"/><path fill="#F4900C" d="M19.432 32.852c-.264.511-.432.921-.432 1.148 4.656 0 9-3 9-3-1.125-3.688-1.666-8.139-1.666-8.139A7.86 7.86 0 0 0 18.473 15a7.817 7.817 0 0 0-3.464.812 6.136 6.136 0 0 0-5.545 8.47C9.214 25.893 8.731 28.604 8 31c0 0 4.344 3 9 3 0-.227-.167-.636-.431-1.146C13.39 32.198 11 29.4 11 26.047l.002-.047H11v-6h3.551c1.018-.574 2.192-.906 3.446-.906s2.429.332 3.446.906H25v6h-.008l.002.047c0 3.351-2.386 6.147-5.562 6.805z"/><path fill="#FFDC5D" d="M20 35v-4h-4v4h-1v1h6v-1z"/><path fill="#EA596E" d="M14 33c-2.493 0-4.276 1.385-4.814 3H18l-2-3h-2zm9 0h-3l-2 3h8.818c-.518-1.602-2.159-3-3.818-3z"/><path fill="#FFDC5D" d="M24.994 26.047 24.992 26H25v-6h-3.557c-1.018-.574-2.192-.906-3.446-.906s-2.428.332-3.446.906H11v6h.002l-.002.047c0 3.353 2.39 6.152 5.569 6.807a7.065 7.065 0 0 0 2.863-.002c3.176-.658 5.562-3.454 5.562-6.805z"/><path fill="#F4900C" d="m26 23-1-4-3-2-11 1-.861 5c5.41 0 8.425-1.755 10.065-3.367C21.44 21.092 23.528 23 26 23z"/><path fill="#BF6952" d="M21 30h-6s.583 2 3 2 3-2 3-2zm-3-.5a.47.47 0 0 1-.35-.15c-.1-.09-.15-.22-.15-.35s.05-.26.15-.36c.17-.17.52-.18.71.01.09.09.14.22.14.35s-.05.26-.15.35a.47.47 0 0 1-.35.15z"/><path fill="#662113" d="M15 28a1 1 0 0 1-1-1v-1a1 1 0 1 1 2 0v1a1 1 0 0 1-1 1zm6 0a1 1 0 0 1-1-1v-1a1 1 0 1 1 2 0v1a1 1 0 0 1-1 1z"/></svg>