<svg xmlns="http://www.w3.org/2000/svg" viewBox="0 0 36 36"><path fill="#0B0200" d="M0 7.139C6.911 5.55 13.967 9.61 15.976 16.503c.532 1.825.669 3.712.407 5.609a.502.502 0 0 1-.356.412l-.044.01A35.876 35.876 0 0 0 18.642 36H0V7.139z"/><path fill="#7C533E" d="M3.03 14.375c6.583-.698 10.13 2.858 12.403 7.875.041.09.113.156.192.207-1.222 5.332-5.986 9.314-11.687 9.314a11.94 11.94 0 0 1-3.937-.675V18.679c1.587-.906 3.029-2.099 3.029-4.304z"/><path d="M3.937 22.271c1.978 0 2.5-1.636 2.5-2.5a.5.5 0 0 0-1-.003c-.003.252-.089 1.503-1.5 1.503a.5.5 0 0 0 0 1zm5 0c1.977 0 2.5-1.636 2.5-2.5a.5.5 0 0 0-1-.003c-.003.252-.089 1.503-1.5 1.503a.5.5 0 0 0 0 1z"/><path fill="#3D2E24" d="M8.937 29.271c.602 0 1.5-.399 1.5-1.5 0-.438-.143-.765-.352-1 .209-.235.352-.562.352-1 0-1.101-.898-1.5-1.5-1.5a.5.5 0 0 0-.005 1c.231.006.505.098.505.5s-.274.494-.505.5a.501.501 0 0 0-.006 1h.011c.225.006.5.098.5.5s-.275.494-.506.5a.502.502 0 0 0-.49.506.497.497 0 0 0 .496.494z"/><path fill="#292F33" d="M36 7.139C29.089 5.55 22.033 9.61 20.024 16.503a13.375 13.375 0 0 0-.407 5.609.502.502 0 0 0 .356.412l.044.01A35.876 35.876 0 0 1 17.358 36H36V7.139z"/><path fill="#F7DECE" d="M32.97 14.375c-6.583-.698-10.13 2.858-12.403 7.875a.499.499 0 0 1-.192.207c1.222 5.332 5.986 9.314 11.687 9.314a11.94 11.94 0 0 0 3.937-.675V18.679c-1.587-.906-3.029-2.099-3.029-4.304z"/><path fill="#662113" d="M32.063 22.271c-1.978 0-2.5-1.636-2.5-2.5a.5.5 0 0 1 1-.003c.003.252.089 1.503 1.5 1.503a.5.5 0 0 1 0 1zm-5 0c-1.977 0-2.5-1.636-2.5-2.5a.5.5 0 0 1 1-.003c.003.252.089 1.503 1.5 1.503a.5.5 0 0 1 0 1z"/><path fill="#C1694F" d="M27.063 29.271c-.602 0-1.5-.399-1.5-1.5 0-.438.143-.765.352-1-.209-.235-.352-.562-.352-1 0-1.101.898-1.5 1.5-1.5a.5.5 0 0 1 .005 1c-.23.006-.505.098-.505.5s.274.494.505.5a.501.501 0 0 1 .006 1h-.011c-.225.006-.5.098-.5.5s.275.494.506.5a.502.502 0 0 1 .49.506.497.497 0 0 1-.496.494z"/><path fill="#DD2E44" d="M26.539 4.711A4.711 4.711 0 0 0 21.828 0C20.249 0 18.855.78 18 1.971A4.706 4.706 0 0 0 14.172 0a4.711 4.711 0 0 0-4.711 4.711c0 .369.047.727.127 1.07.654 4.065 5.173 8.353 8.411 9.529 3.238-1.177 7.758-5.465 8.412-9.528.081-.345.128-.702.128-1.071z"/></svg>