<svg xmlns="http://www.w3.org/2000/svg" viewBox="0 0 36 36"><path fill="#AF7E57" d="M32 20c0-2.209-1.119-4-2.5-4-.012 0-.021.005-.033.005C27.955 9.704 23.394 5.125 18 5.125s-9.956 4.58-11.467 10.88C6.521 16.004 6.511 16 6.5 16 5.119 16 4 17.791 4 20c0 2.107 1.021 3.815 2.314 3.97C7.537 30.619 12.299 35 18 35c5.7 0 10.463-4.381 11.685-11.03C30.979 23.815 32 22.107 32 20z"/><path fill="#60352A" d="M13 21a1 1 0 0 1-1-1v-2a1 1 0 0 1 2 0v2a1 1 0 0 1-1 1zm10 0a1 1 0 0 1-1-1v-2a1 1 0 1 1 2 0v2a1 1 0 0 1-1 1z"/><path fill="#915A34" d="M18 31c-4.201 0-5.491-1.077-5.707-1.293a.999.999 0 0 1 1.376-1.45c.08.058 1.1.743 4.331.743 3.355 0 4.326-.739 4.336-.747.39-.389 1.001-.37 1.393.021.391.391.369 1.043-.021 1.434C23.491 29.923 22.201 31 18 31zm1-5h-2a1 1 0 1 1 0-2h2a1 1 0 1 1 0 2z"/><path fill="#60352A" d="M33 12.65a2.49 2.49 0 0 0-1.171-2.11c.106-.277.171-.575.171-.89a2.492 2.492 0 0 0-2.193-2.469c.118-.323.193-.667.193-1.031a3 3 0 0 0-3-3c-.395 0-.77.081-1.115.22A2.994 2.994 0 0 0 23 1.15c-.87 0-1.646.376-2.194.967C20.384.971 19.292.15 18 .15s-2.384.821-2.806 1.967A2.982 2.982 0 0 0 13 1.15a2.992 2.992 0 0 0-2.884 2.22A2.984 2.984 0 0 0 9 3.15a3 3 0 0 0-3 3c0 .364.075.708.193 1.031A2.492 2.492 0 0 0 4 9.65c0 .315.065.613.171.89a2.49 2.49 0 0 0-.03 4.204A3.026 3.026 0 0 0 4 15.65c0 1.381.895 2.5 2 2.5.327 0 .63-.107.903-.281C7.347 19.312 8 20.132 8 18.15c0-1.585.013-2.552.76-4.081 1.189.403 2.908.159 4.533-.779a8.13 8.13 0 0 0 .793-.525c.378 1.362 1.986 2.385 3.914 2.385 1.296 0 2.437-.47 3.167-1.187.476 1.259 2.002 2.187 3.833 2.187 1.076 0 2.049-.322 2.767-.841.262.914.272 1.723.272 2.841 0 2.348.674 1.358 1.119-.24.256.15.54.24.842.24 1.105 0 2-1.119 2-2.5 0-.321-.053-.625-.14-.906A2.496 2.496 0 0 0 33 12.65z"/></svg>