<svg xmlns="http://www.w3.org/2000/svg" viewBox="0 0 36 36"><path fill="#D1D3D4" d="M32.733 10.633C32.733 14.702 26.137 18 18 18S3.267 14.702 3.267 10.633 4.4 2 18 2c13.6 0 14.733 4.564 14.733 8.633z"/><path fill="#D5AB88" d="M32.167 13.466c-.318 0-.619.103-.904.258C29.903 6.108 24.486 1 18 1 11.513 1 6.097 6.108 4.737 13.724c-.285-.154-.586-.257-.904-.257C2.269 13.466 1 15.497 1 18c0 2.504 1.269 4.533 2.833 4.533.381 0 .743-.124 1.075-.342C6.503 29.574 11.753 35 18 35s11.497-5.426 13.091-12.81c.332.219.695.343 1.076.343C33.731 22.533 35 20.504 35 18c0-2.503-1.269-4.534-2.833-4.534z"/><path fill="#662113" d="M11.201 19a1 1 0 0 1-.448-1.895l2.267-1.133a1.001 1.001 0 0 1 .895 1.789l-2.267 1.133a.998.998 0 0 1-.447.106zm13.598 0c-.15 0-.303-.034-.446-.105l-2.267-1.133a1 1 0 0 1 .895-1.789l2.267 1.133A1 1 0 0 1 24.799 19z"/><path d="M26 14h-3a1 1 0 1 1 0-2h3a1 1 0 1 1 0 2zm-13 0h-3a1 1 0 0 1 0-2h3a1 1 0 0 1 0 2z" fill="#D1D3D4"/><path fill="#C1694F" d="M18 30.333c-2.474 0-4.879-1.188-4.981-1.238a1 1 0 0 1 .893-1.79c.021.011 2.094 1.028 4.087 1.028 2.008 0 4.065-1.017 4.086-1.027a1 1 0 0 1 .895 1.789c-.101.051-2.505 1.238-4.98 1.238zM19 25h-2a1 1 0 1 1 0-2h2a1 1 0 1 1 0 2z"/></svg>