<svg xmlns="http://www.w3.org/2000/svg" viewBox="0 0 36 36"><path fill="#DA2F47" d="M28 21c0 2.209-3 15-9 15h-8c-6 0-9-12.791-9-15V4a4 4 0 0 1 4-4h18a4 4 0 0 1 4 4v17z"/><path fill="#F5F8FA" d="M14.441 9.171c2.138 2.343 2.715 5.509 1.29 7.071-1.422 1.561-4.312.928-6.448-1.415-2.137-2.343-2.715-5.509-1.29-7.071 1.424-1.561 4.313-.927 6.448 1.415z"/><path fill="#292F33" d="M15.934 12.707c.609.781.609 2.048 0 2.829-.607.781-1.593.781-2.201 0-.608-.781-.608-2.047 0-2.828.608-.782 1.594-.782 2.201-.001z"/><path fill="#F5F8FA" d="M21.727 9.271c-1.826 2.342-2.318 5.509-1.1 7.071 1.215 1.562 3.68.929 5.504-1.414 1.824-2.343 2.316-5.509 1.1-7.071-1.215-1.562-3.68-.929-5.504 1.414z"/><ellipse fill="#292F33" cx="22.276" cy="14.221" rx="1.557" ry="2"/><path fill="#292F33" d="M20.892 11a2.001 2.001 0 0 1-1.577-3.229l4.67-6a2 2 0 1 1 3.157 2.457l-4.67 6a2 2 0 0 1-1.58.772zm-4.671 0a1.999 1.999 0 0 1-1.58-.771l-4.672-6a2 2 0 0 1 3.156-2.458l4.672 6A2 2 0 0 1 16.221 11z"/><path fill="#FDD888" d="M24 31.001c-.81 0-1.571-.496-1.873-1.299C22.023 29.443 20.96 27 18 27s-4.023 2.443-4.135 2.722a2.011 2.011 0 0 1-2.583 1.133 1.99 1.99 0 0 1-1.154-2.557C10.208 28.081 12.181 23 18 23s7.792 5.081 7.873 5.298A2 2 0 0 1 24 31.001z"/><path fill="#292F33" d="M18.555 22s4.482-.553 7.05 4c2.819 5 2.819-5 2.114-6-.704-1-1.451 1.386-2.82.9-2.821-1-6.344 1.1-6.344 1.1zm0 0s-5.888-.553-9.263 4c-3.703 5-3.703-5-2.778-6 .926-1 1.907 1.725 3.706 1.239 3.704-1 8.335.761 8.335.761z"/><path fill="#E75A70" d="M32.262 15c-.09 0-.174.019-.262.029V15H18.154c-1.511 0-2.734 1.343-2.734 3s1.224 3 2.734 3H32v-.029c.088.009.172.029.262.029C33.774 21 35 19.657 35 18c0-1.656-1.226-3-2.738-3z"/></svg>