<svg xmlns="http://www.w3.org/2000/svg" viewBox="0 0 36 36"><path fill="#CCD6DD" d="M36 27a4 4 0 0 1-4 4H4a4 4 0 0 1-4-4V9a4 4 0 0 1 4-4h28a4 4 0 0 1 4 4v18z"/><path fill="#99AAB5" d="M11.949 17.636.637 28.948c-.027.029-.037.064-.06.092.34.57.814 1.043 1.384 1.384.029-.023.063-.033.09-.06L13.365 19.05a1 1 0 0 0-1.416-1.414M35.423 29.04c-.021-.028-.033-.063-.06-.09L24.051 17.636a1 1 0 1 0-1.415 1.414l11.313 11.314c.026.026.062.037.09.06a3.978 3.978 0 0 0 1.384-1.384"/><path fill="#99AAB5" d="M32 5H4a4 4 0 0 0-4 4v1.03l14.527 14.496a4.883 4.883 0 0 0 6.885 0L36 10.009V9a4 4 0 0 0-4-4"/><path fill="#E1E8ED" d="M32 5H4A3.992 3.992 0 0 0 .405 7.275l14.766 14.767a4 4 0 0 0 5.657 0L35.595 7.275A3.991 3.991 0 0 0 32 5"/><path fill="#DD2E44" d="M27 16.78a4.986 4.986 0 0 0-4.986-4.987 4.98 4.98 0 0 0-4.053 2.087 4.98 4.98 0 0 0-4.051-2.087 4.987 4.987 0 0 0-4.987 4.987c0 .391.05.769.134 1.133.693 4.302 5.476 8.841 8.904 10.087 3.428-1.246 8.212-5.785 8.904-10.086.085-.365.135-.744.135-1.134z"/></svg>