<svg xmlns="http://www.w3.org/2000/svg" viewBox="0 0 36 36"><path fill="#963B22" d="M16.906 1.262c-2.02-.654-6.772-.475-7.96 1.069-3.09.06-6.713 2.852-7.189 6.535-.47 3.645.578 5.338.951 8.079.422 3.106 2.168 4.099 3.564 4.515C8.281 24.114 10.415 24 14 24c7 0 10.334-4.684 10.629-12.639.178-4.812-2.645-8.456-7.723-10.099z"/><path fill="#FA743E" d="M22 27H4a4 4 0 0 0-4 4v5h26v-5a4 4 0 0 0-4-4z"/><path fill="#DD551F" d="M21 32h1v4h-1zM4 32h1v4H4z"/><path fill="#D4AB88" d="M10 22v6a3 3 0 1 0 6 0v-6h-6z"/><path fill="#D4AB88" d="M20.909 11.701c-.677-.938-1.545-1.693-3.446-1.96.713.327 1.396 1.455 1.485 2.079.089.624.178 1.129-.386.505-2.26-2.499-4.722-1.515-7.162-3.041-1.704-1.067-2.223-2.246-2.223-2.246s-.208 1.574-2.792 3.178c-.749.465-1.643 1.5-2.139 3.03C3.889 14.345 4 15.325 4 17c0 4.889 4.029 9 9 9s9-4.147 9-9c0-3.041-.319-4.229-1.091-5.299z"/><path fill="#C1694F" d="M17 22H9s1 2 4 2 4-2 4-2z"/><path fill="#FA743E" d="M29 36h-7l1-17h6z"/><path fill="#CC9B7A" d="M31.541 15.443a1.286 1.286 0 0 0-1.517-.997L27.35 15H25a2 2 0 0 0-2 2v2h5a1.996 1.996 0 0 0 1.992-1.927l.355-.073H31c0-.074-.028-.144-.045-.216.444-.276.698-.799.586-1.341z"/><path fill="#D4AB88" d="M36 16a1 1 0 0 0-1-1l-6 1h-5a1 1 0 0 0-1 1v2h6l6-2s1-.447 1-1z"/><path fill="#C1694F" d="M14 19.5h-2a.5.5 0 0 1 0-1h2a.5.5 0 0 1 0 1z"/><path fill="#662113" d="M9 16a1 1 0 0 1-1-1v-1a1 1 0 0 1 2 0v1a1 1 0 0 1-1 1zm8 0a1 1 0 0 1-1-1v-1a1 1 0 0 1 2 0v1a1 1 0 0 1-1 1z"/></svg>