<svg xmlns="http://www.w3.org/2000/svg" viewBox="0 0 36 36"><path fill="#0B0200" d="M14 0c-1.721 0-3.343.406-4.793 1.111A7.064 7.064 0 0 0 8 1a7 7 0 0 0-7 7v12h.018C1.201 26.467 6.489 31.656 13 31.656c6.511 0 11.799-5.189 11.982-11.656H25v-9c0-6.075-4.925-11-11-11z"/><path fill="#9268CA" d="M22 27H4a4 4 0 0 0-4 4v5h26v-5a4 4 0 0 0-4-4z"/><path fill="#7450A8" d="M21 32h1v4h-1zM4 32h1v4H4z"/><path fill="#7C533E" d="M10 22v6a3 3 0 1 0 6 0v-6h-6z"/><path fill="#7C533E" d="M9 5s-.003 5.308-5 5.936V17c0 4.971 4.029 9 9 9s9-4.029 9-9v-5.019C10.89 11.605 9 5 9 5z"/><path fill="#DF1F32" d="M17 22H9s1 2 4 2 4-2 4-2z"/><path fill="#9268CA" d="M29 36h-7l1-17h6z"/><path fill="#664131" d="M31.541 15.443a1.286 1.286 0 0 0-1.517-.997L27.35 15H25a2 2 0 0 0-2 2v2h5a1.996 1.996 0 0 0 1.992-1.927l.355-.073H31c0-.074-.028-.144-.045-.216.444-.276.698-.799.586-1.341z"/><path fill="#7C533E" d="M36 16a1 1 0 0 0-1-1l-6 1h-5a1 1 0 0 0-1 1v2h6l6-2s1-.447 1-1z"/><path fill="#3D2E24" d="M14 19.5h-2a.5.5 0 0 1 0-1h2a.5.5 0 0 1 0 1z"/><path d="M9 16a1 1 0 0 1-1-1v-1a1 1 0 0 1 2 0v1a1 1 0 0 1-1 1zm8 0a1 1 0 0 1-1-1v-1a1 1 0 0 1 2 0v1a1 1 0 0 1-1 1z"/></svg>