<svg xmlns="http://www.w3.org/2000/svg" viewBox="0 0 36 36"><path fill="#CCD6DD" d="M34 16C34 6 26.837 0 18 0 9.164 0 2 6 2 16c0 5.574.002 10.388 6 12.64V33a3 3 0 1 0 6 0v-3.155c.324.027.659.05 1 .07V33a3 3 0 1 0 6 0v-3.085c.342-.021.676-.043 1-.07V33a3 3 0 0 0 6 0v-4.36c5.998-2.252 6-7.066 6-12.64z"/><circle fill="#292F33" cx="11" cy="14" r="5"/><circle fill="#292F33" cx="25" cy="14" r="5"/><path fill="#292F33" d="M19.903 23.062C19.651 22.449 18.9 22 18 22s-1.652.449-1.903 1.062A1.494 1.494 0 0 0 15 24.5a1.5 1.5 0 0 0 1.5 1.5c.655 0 1.206-.422 1.41-1.007.03.001.059.007.09.007s.06-.006.09-.007a1.496 1.496 0 1 0 1.813-1.931z"/></svg>