<svg xmlns="http://www.w3.org/2000/svg" viewBox="0 0 36 36"><path fill="#CCD6DD" d="M27.071 9.929a.999.999 0 0 1-.707-1.707S35.166.054 35.556.444c.391.391-7.778 9.192-7.778 9.192a.997.997 0 0 1-.707.293z"/><path fill="#ADD3E0" d="M28.839 11.404a1.5 1.5 0 0 1-2.121 0l-2.121-2.121a1.5 1.5 0 0 1 0-2.122C25.182 6.575 28.414 5.414 29 6l1 1c.586.585-.575 3.818-1.161 4.404z"/><path fill="#C1E1EA" d="M17.464 25.606a2 2 0 0 1-2.828 0l-4.243-4.242a2 2 0 0 1 0-2.829l12.021-12.02a2 2 0 0 1 2.828 0l4.243 4.243a2 2 0 0 1 0 2.829L17.464 25.606z"/><path fill="#D2ECF3" d="M10.394 21.364a2 2 0 0 1 0-2.829l12.02-12.02a2 2 0 0 1 2.828 0L10.394 21.364z"/><path fill="#CCD6DD" d="M7.272 32.971 3.03 28.728l11.777-11.777 4.243 4.241z"/><path fill="#99AAB5" d="M7.747 35.324a1.5 1.5 0 0 1-2.122 0l-4.95-4.95a1.5 1.5 0 0 1 2.122-2.121l4.95 4.95a1.5 1.5 0 0 1 0 2.121zm10.071-7.243a1.5 1.5 0 0 1-2.121 0l-7.778-7.777a1.501 1.501 0 0 1 2.122-2.122l7.778 7.778a1.5 1.5 0 0 1-.001 2.121z"/><path fill="#292F33" d="m14.322 14.607-1.042 1.042.04.04 7.035 7.035 1.042-1.042z"/><path fill="#66757F" d="m14.322 14.607-1.042 1.042.04.04 1.374 1.374 1.042-1.042zm8.291 3.333a.736.736 0 0 0 0 1.042l.742.742 1.042-1.042-.742-.742a.736.736 0 0 0-1.042 0zm1.875-1.875a.736.736 0 0 0 0 1.042l.742.742 1.042-1.042-.742-.742a.736.736 0 0 0-1.042 0zm2.917-1.875a.736.736 0 1 0-1.042 1.042l.742.742 1.042-1.042-.742-.742z"/></svg>