<svg xmlns="http://www.w3.org/2000/svg" viewBox="0 0 36 36"><path fill="#F4ABBA" d="M35.885 11.833c0-5.45-4.418-9.868-9.867-9.868-3.308 0-6.227 1.633-8.018 4.129-1.791-2.496-4.71-4.129-8.017-4.129-5.45 0-9.868 4.417-9.868 9.868 0 .772.098 1.52.266 2.241C1.751 22.587 11.216 31.568 18 34.034c6.783-2.466 16.249-11.447 17.617-19.959.17-.721.268-1.469.268-2.242z"/><path fill="#EA596E" d="M31.423 13.372a7.405 7.405 0 0 0-7.405-7.406A7.393 7.393 0 0 0 18 9.065a7.39 7.39 0 0 0-6.017-3.099 7.406 7.406 0 0 0-7.406 7.406c0 .579.074 1.141.199 1.681C5.805 21.442 12.908 28.184 18 30.034c5.091-1.851 12.195-8.592 13.223-14.98.127-.541.2-1.103.2-1.682z"/><path fill="#DD2E44" d="M27.191 14.831a5.071 5.071 0 0 0-5.07-5.072c-1.7 0-3.2.839-4.121 2.123a5.06 5.06 0 0 0-4.121-2.123 5.072 5.072 0 0 0-5.072 5.072c0 .397.05.781.136 1.151.705 4.376 5.569 8.992 9.056 10.259 3.485-1.268 8.352-5.884 9.055-10.259.088-.37.137-.755.137-1.151z"/></svg>