<svg xmlns="http://www.w3.org/2000/svg" viewBox="0 0 36 36"><path fill="#BCBEC0" d="M20 2h-1V1a1 1 0 1 0-2 0v1h-1a1 1 0 1 0 0 2h1v6a1 1 0 1 0 2 0V4h1a1 1 0 1 0 0-2z"/><path fill="#F4ABBA" d="m18 9-5.143 4H13v9h10v-9h.143z"/><path fill="#662113" d="M19.999 15A2 2 0 0 0 16 15v7h4l-.001-7z"/><path fill="#F4ABBA" d="M17.999 18 4 26v9a1 1 0 0 0 1 1h26a1 1 0 0 0 1-1v-9l-14.001-8z"/><path fill="#DD2E44" d="M31.998 27a.988.988 0 0 1-.495-.132l-13.504-7.717-13.504 7.717a.999.999 0 1 1-.992-1.736l14-8a.998.998 0 0 1 .992 0l14 8A.998.998 0 0 1 31.998 27zm-8.999-13a1 1 0 0 1-.624-.219l-4.376-3.5-4.374 3.5a1 1 0 0 1-1.25-1.562l4.999-4a1.001 1.001 0 0 1 1.25 0l5.001 4A1 1 0 0 1 22.999 14z"/><path fill="#662113" d="M12.999 31A2 2 0 1 0 9 31v5h4v-5h-.001zm7-2A2 2 0 0 0 16 29v7h4l-.001-7zm7 2A2 2 0 0 0 23 31v5h4l-.001-5z"/><path fill="#DD2E44" d="M1 6c0-2.761 3.963-4 5 0 1.121-4 5-2.761 5 0 0 3-5 6-5 6S1 9 1 6zm24 0c0-2.761 3.963-4 5 0 1.121-4 5-2.761 5 0 0 3-5 6-5 6s-5-3-5-6z"/></svg>