<svg xmlns="http://www.w3.org/2000/svg" viewBox="0 0 36 36"><path fill="#DD2E44" d="M33.885 15.764A8.764 8.764 0 0 0 25.121 7 8.747 8.747 0 0 0 18 10.667 8.747 8.747 0 0 0 10.879 7a8.764 8.764 0 0 0-8.764 8.764c0 .685.087 1.35.236 1.99C3.568 25.315 11.975 33.292 18 35.482c6.024-2.19 14.432-10.167 15.647-17.728.151-.64.238-1.304.238-1.99z"/><path fill="#FDCB58" d="M1.499 11.042a1 1 0 0 1-.893-1.448c1.016-2.031 3.793-5.195 7.283-5.588a1 1 0 0 1 .223 1.988c-2.679.302-4.928 2.917-5.717 4.495-.176.35-.529.553-.896.553zm-.458-5.417a.999.999 0 0 1-.827-1.561c.936-1.381 2.895-2.909 4.682-3.021a.994.994 0 0 1 1.06.936 1 1 0 0 1-.935 1.061C4.06 3.1 2.617 4.082 1.87 5.186a1.002 1.002 0 0 1-.829.439zm33.46 5.417a1 1 0 0 1-.896-.553c-.789-1.578-3.039-4.193-5.718-4.495a1 1 0 0 1 .224-1.988c3.489.393 6.267 3.557 7.282 5.588a1 1 0 0 1-.892 1.448zm.458-5.417a1 1 0 0 1-.829-.439c-.747-1.104-2.19-2.086-3.151-2.146a1 1 0 0 1-.935-1.061.993.993 0 0 1 1.06-.936c1.788.112 3.747 1.64 4.683 3.021a1 1 0 0 1-.828 1.561z"/></svg>