<svg xmlns="http://www.w3.org/2000/svg" viewBox="0 0 36 36"><path d="M16.867 15.734c.625.626 1.64.626 2.266 0l6.232-6.231a1.604 1.604 0 0 0 0-2.266l-6.232-6.231a1.602 1.602 0 0 0-2.266 0l-6.232 6.231a1.602 1.602 0 0 0 0 2.266l6.232 6.231zm9.631 9.63c.625.626 1.64.626 2.266 0l6.232-6.231a1.604 1.604 0 0 0 0-2.266l-6.232-6.231a1.602 1.602 0 0 0-2.266 0l-6.232 6.231a1.602 1.602 0 0 0 0 2.266l6.232 6.231zm-1.134 1.134-6.231-6.232a1.602 1.602 0 0 0-2.266 0l-6.231 6.232a1.6 1.6 0 0 0 0 2.265l6.231 6.232c.626.625 1.64.625 2.266 0l6.231-6.232a1.6 1.6 0 0 0 0-2.265zm-9.63-9.63-6.231-6.232a1.602 1.602 0 0 0-2.266 0l-6.231 6.232a1.6 1.6 0 0 0 0 2.265l6.231 6.232c.626.625 1.64.625 2.266 0l6.231-6.232a1.6 1.6 0 0 0 0-2.265z" fill="#55ACEE"/><path d="m15.734 16.868-3.214-3.215A6.965 6.965 0 0 0 11 18c0 1.644.571 3.153 1.52 4.347l3.214-3.214a1.6 1.6 0 0 0 0-2.265zm6.614 6.612-3.215-3.215a1.605 1.605 0 0 0-2.266 0l-3.215 3.215A6.967 6.967 0 0 0 18 25a6.967 6.967 0 0 0 4.348-1.52zm-2.082-4.347 3.215 3.215A6.973 6.973 0 0 0 25 18a6.962 6.962 0 0 0-1.52-4.347l-3.215 3.215a1.603 1.603 0 0 0 .001 2.265zm-1.133-3.399 3.215-3.214A6.967 6.967 0 0 0 18 11a6.962 6.962 0 0 0-4.347 1.52l3.215 3.214a1.6 1.6 0 0 0 2.265 0z" fill="#3B88C3"/><circle fill="#BBDDF5" cx="18" cy="18" r="5"/></svg>