<svg xmlns="http://www.w3.org/2000/svg" viewBox="0 0 36 36"><path fill="#292F33" d="M36 32a4 4 0 0 1-4 4H4a4 4 0 0 1-4-4V4a4 4 0 0 1 4-4h28a4 4 0 0 1 4 4v28z"/><path fill="#FFD983" d="M34 18c0 8.837-7.163 16-16 16-8.836 0-16-7.163-16-16C2 9.164 9.164 2 18 2c8.837 0 16 7.164 16 16zm-16-2.667a2.667 2.667 0 1 0 0 5.334 2.667 2.667 0 0 0 0-5.334z"/><path fill="#FFAC33" d="M13.811 17.535a4.215 4.215 0 0 1 1.193-2.53L7.943 7.943a14.178 14.178 0 0 0-4.075 8.487l9.943 1.105zm8.378.93a4.222 4.222 0 0 1-1.194 2.53l7.062 7.062a14.178 14.178 0 0 0 4.075-8.487l-9.943-1.105z"/><path fill="#FFE8B6" d="m18.469 22.189 1.111 9.941a14.175 14.175 0 0 0 8.476-4.074l-7.062-7.062a4.21 4.21 0 0 1-2.525 1.195zm-.91-8.38-1.048-9.953a14.184 14.184 0 0 0-8.569 4.087l7.062 7.062a4.216 4.216 0 0 1 2.555-1.196z"/><path fill="#F5F8FA" d="M36 21a2 2 0 0 1-2 2H23a2 2 0 0 1-2-2v-6a2 2 0 0 1 2-2h11a2 2 0 0 1 2 2v6z"/></svg>