<svg xmlns="http://www.w3.org/2000/svg" viewBox="0 0 36 36"><path fill="#BE1931" d="M23.651 23.297 12.702 12.348l9.386-7.821 9.385 9.385z"/><path fill="#DD2E44" d="M34.6 13.912a4.42 4.42 0 0 1-6.255 0l-6.257-6.256a4.426 4.426 0 0 1 6.257-6.258L34.6 7.656a4.423 4.423 0 0 1 0 6.256z"/><path fill="#99AAB5" d="M14 17.823S-.593 35.029.188 35.813C.97 36.596 18.177 22 18.177 22L14 17.823z"/><path fill="#DD2E44" d="M25.215 27.991a4.423 4.423 0 0 1-6.258 0L8.009 17.041a4.425 4.425 0 0 1 6.258-6.256l10.948 10.949a4.424 4.424 0 0 1 0 6.257z"/></svg>