<svg xmlns="http://www.w3.org/2000/svg" viewBox="0 0 36 36"><path fill="#FFCC4D" d="M30.021 34.264a3.998 3.998 0 0 1-5.656 0L1.736 11.636a4 4 0 0 1 0-5.657l4.243-4.242a4 4 0 0 1 5.657 0l22.626 22.628a4 4 0 0 1 .001 5.656l-4.242 4.243z"/><path fill="#292F33" d="M9.515 6.687a1 1 0 0 1-1.414-1.415l3.536-3.536 1.414 1.415-3.536 3.536zm5.656 1.414a.999.999 0 1 1-1.414-1.414l1.415-1.415 1.414 1.415-1.415 1.414zm1.415 5.656a.999.999 0 1 1-1.414-1.414l3.536-3.536c.486.486.929.928 1.414 1.415l-3.536 3.535zm5.656 1.414a.998.998 0 0 1-1.413 0 .998.998 0 0 1 0-1.414l1.414-1.415c.485.487.928.928 1.414 1.415l-1.415 1.414zm1.415 5.657a1 1 0 0 1-1.415-1.414l3.536-3.535 1.414 1.414-3.535 3.535zm7.071 7.071a.998.998 0 0 1-1.413 0 .998.998 0 0 1-.001-1.414l3.536-3.535 1.414 1.414-3.536 3.535zm-1.415-5.657a1 1 0 1 1-1.414-1.413l1.415-1.414 1.413 1.413-1.414 1.414z"/></svg>