<svg xmlns="http://www.w3.org/2000/svg" viewBox="0 0 36 36"><path fill="#FFD983" d="M36 18c0 9.941-8.059 18-18 18S0 27.941 0 18 8.059 0 18 0s18 8.059 18 18zm-18-3a3 3 0 1 0 0 6 3 3 0 0 0 0-6z"/><path fill="#FFAC33" d="M13.288 17.476a4.74 4.74 0 0 1 1.343-2.846L6.686 6.686a15.948 15.948 0 0 0-4.584 9.547l11.186 1.243zm9.425 1.048a4.74 4.74 0 0 1-1.343 2.846l7.944 7.944a15.948 15.948 0 0 0 4.584-9.547l-11.185-1.243z"/><path fill="#FFE8B6" d="m18.527 22.712 1.251 11.183a15.952 15.952 0 0 0 9.536-4.582l-7.944-7.944a4.749 4.749 0 0 1-2.843 1.343zm-1.023-9.427L16.325 2.089a15.95 15.95 0 0 0-9.639 4.598l7.944 7.944a4.746 4.746 0 0 1 2.874-1.346z"/></svg>