<svg xmlns="http://www.w3.org/2000/svg" viewBox="0 0 36 36"><path fill="#292F33" d="M32 13H4a4 4 0 0 0-4 4v2a4 4 0 0 0 4 4v9a4 4 0 0 0 4 4h20a4 4 0 0 0 4-4v-9a4 4 0 0 0 4-4v-2a4 4 0 0 0-4-4z"/><path fill="#CCD6DD" d="M30 15a2 2 0 0 1-2 2H8a2 2 0 0 1-2-2V2a2 2 0 0 1 2-2h20a2 2 0 0 1 2 2v13z"/><path fill="#55ACEE" d="M18 13a1 1 0 0 1-1 1H9a1 1 0 0 1-1-1V3a1 1 0 0 1 1-1h8a1 1 0 0 1 1 1v10z"/><path fill="#CCD6DD" d="M30 32a2 2 0 0 1-2 2H8a2 2 0 0 1-2-2V21a2 2 0 0 1 2-2h20a2 2 0 0 1 2 2v11z"/><path fill="#66757F" d="M28 4a1 1 0 0 1-1 1h-6a1 1 0 1 1 0-2h6a1 1 0 0 1 1 1zm0 4a1 1 0 0 1-1 1h-6a1 1 0 1 1 0-2h6a1 1 0 0 1 1 1zm0 4a1 1 0 0 1-1 1h-6a1 1 0 1 1 0-2h6a1 1 0 0 1 1 1z"/><path fill="#99AAB5" d="M14 20a1 1 0 1 1-2 0v-4a1 1 0 1 1 2 0v4zm10 0a1 1 0 1 1-2 0v-4a1 1 0 1 1 2 0v4z"/></svg>