<svg xmlns="http://www.w3.org/2000/svg" viewBox="0 0 36 36"><path fill="#CCD6DD" d="M36 32a4 4 0 0 1-4 4H4a4 4 0 0 1-4-4V14a4 4 0 0 1 4-4h28a4 4 0 0 1 4 4v18z"/><path fill="#99AAB5" d="M11.95 22.636.637 33.949c-.027.028-.037.063-.06.091.34.57.814 1.043 1.384 1.384.029-.023.063-.033.09-.06L13.365 24.05a1 1 0 0 0-1.415-1.414M35.423 34.04c-.021-.028-.033-.063-.06-.09L24.051 22.636a1 1 0 1 0-1.415 1.414l11.313 11.314c.026.026.062.037.09.06a3.978 3.978 0 0 0 1.384-1.384"/><path fill="#99AAB5" d="M32 10H4a4 4 0 0 0-4 4v1.03l14.528 14.496a4.88 4.88 0 0 0 6.884 0L36 15.009V14a4 4 0 0 0-4-4z"/><path fill="#E1E8ED" d="M32 10H4a3.992 3.992 0 0 0-3.595 2.275l14.766 14.767a4 4 0 0 0 5.657 0l14.767-14.767A3.991 3.991 0 0 0 32 10z"/><path fill="#55ACEE" d="M26.716 7H22V2a2 2 0 0 0-2-2h-4a2 2 0 0 0-2 2v5H9.148c-1.223 0-1.515.624-.651 1.489l7.863 7.863a2.23 2.23 0 0 0 3.145 0l7.863-7.863C28.232 7.624 27.94 7 26.716 7z"/></svg>