<svg xmlns="http://www.w3.org/2000/svg" viewBox="0 0 36 36"><path fill="#292F33" d="M26.797 28.781c.484 1.109-.268 2.391.739 4.323 1.088 2.087 3.653 2.801 5.292 2.817 1.078.011 1.189-.447.759-.667-.681-.349-.598-.871-.598-.871s.464.429 1.308.663c.621.173 1.307.216 1.518-.379.182-.51-1.647-.142-2.491-1.954 1.092.494 1.692.224 2.146-.151.257-.213.453-.625.109-.5-.344.125-2.703.391-3.047-2.062 1.088 1.231 2.402 1.122 3.019.708.403-.271.503-.803.11-.621-1.422.656-2.051-.606-2.975-1.856-1.113-1.507-2.936-.996-3.686-1.324-.276-.122-2.203 1.874-2.203 1.874z"/><path fill="#553788" d="M10.087 6.851a2.29 2.29 0 1 1-3.24 3.242 2.29 2.29 0 0 1 3.24-3.242z"/><path fill="#553788" d="M7.227 10.218a2.29 2.29 0 1 1-3.238 3.24 2.29 2.29 0 0 1 3.238-3.24z"/><path fill="#553788" d="M5.051 14.064a2.292 2.292 0 0 1 0 3.24 2.292 2.292 0 0 1-3.24 0 2.292 2.292 0 0 1 0-3.24 2.292 2.292 0 0 1 3.24 0z"/><path fill="#553788" d="M4.039 18.317a2.292 2.292 0 1 1-3.244 3.24 2.292 2.292 0 0 1 3.244-3.24z"/><path fill="#553788" d="M4.494 22.67a2.29 2.29 0 1 1-3.239 3.239 2.29 2.29 0 0 1 0-3.239 2.29 2.29 0 0 1 3.239 0z"/><path fill="#553788" d="M6.848 26.289a2.29 2.29 0 1 1-3.238 3.24 2.29 2.29 0 0 1 3.238-3.24z"/><path fill="#553788" d="M10.923 27.681a2.292 2.292 0 0 1 0 3.24 2.292 2.292 0 0 1-3.24 0 2.292 2.292 0 0 1 0-3.24 2.292 2.292 0 0 1 3.24 0z"/><path fill="#553788" d="M15.327 28.288a2.292 2.292 0 1 1-3.24 3.241 2.292 2.292 0 0 1 3.24-3.241z"/><path fill="#553788" d="M19.604 27.807a2.29 2.29 0 1 1-3.239 3.241 2.292 2.292 0 0 1 3.239-3.241z"/><path fill="#553788" d="M23.806 26.34a2.291 2.291 0 1 1-3.241 3.239 2.291 2.291 0 0 1 3.241-3.239zM10.214 7.231a2.29 2.29 0 1 0 3.24-3.238 2.29 2.29 0 0 0-3.24 3.238z"/><path fill="#553788" d="M14.061 5.055a2.292 2.292 0 0 0 3.24 0 2.292 2.292 0 0 0 0-3.24 2.29 2.29 0 1 0-3.24 3.24z"/><path fill="#553788" d="M18.313 4.042a2.29 2.29 0 1 0 3.242-3.24 2.29 2.29 0 0 0-3.242 3.24z"/><path fill="#553788" d="M22.666 4.498a2.29 2.29 0 1 0 3.24-3.238 2.29 2.29 0 0 0-3.24 3.238z"/><path fill="#553788" d="M26.286 6.851a2.288 2.288 0 0 0 3.238 0 2.29 2.29 0 1 0-3.238 0z"/><path fill="#553788" d="M27.677 10.926a2.294 2.294 0 0 0 3.241 0 2.296 2.296 0 0 0 0-3.24 2.292 2.292 0 0 0-3.241 3.24z"/><path fill="#553788" d="M28.285 15.33a2.292 2.292 0 0 0 3.24 0 2.29 2.29 0 1 0-3.24 0z"/><path fill="#553788" d="M27.804 19.607a2.29 2.29 0 1 0 3.24-3.238 2.29 2.29 0 0 0-3.24 3.238z"/><path fill="#553788" d="M26.336 23.81a2.291 2.291 0 1 0 3.239-3.241 2.291 2.291 0 0 0-3.239 3.241z"/><path fill="#F4900C" d="M28.153 24.583a2.546 2.546 0 0 0-3.599 0 2.543 2.543 0 0 0 0 3.599l2.398 1.2 2.4-2.4-1.199-2.399z"/></svg>