<svg xmlns="http://www.w3.org/2000/svg" viewBox="0 0 36 36"><path fill="#FFAC33" d="M20 6a2 2 0 0 1-4 0V2a2 2 0 0 1 4 0v4zm0 28a2 2 0 0 1-4 0v-4a2 2 0 0 1 4 0v4zM6 16a2 2 0 0 1 0 4H2a2 2 0 0 1 0-4h4zm28 0a2 2 0 0 1 0 4h-4a2 2 0 0 1 0-4h4zM8.101 25.071a2 2 0 0 1 2.828 2.828l-2.828 2.829A2 2 0 1 1 5.273 27.9l2.828-2.829zM27.899 5.272a2 2 0 0 1 2.828 2.829l-2.828 2.828A2 2 0 1 1 25.071 8.1l2.828-2.828zm-2.828 22.627a2 2 0 0 1 2.828-2.828l2.829 2.828a2 2 0 1 1-2.828 2.828l-2.829-2.828zM18 9a9 9 0 1 0 0 18 9 9 0 0 0 0-18zm0 14a5 5 0 1 1 0-10 5 5 0 0 1 0 10zM5.272 8.101a2 2 0 0 1 2.829-2.828l2.828 2.828A2 2 0 1 1 8.1 10.929L5.272 8.101z"/></svg>