<svg xmlns="http://www.w3.org/2000/svg" viewBox="0 0 36 36"><path fill="#AAB8C2" d="M13 3C7.477 3 3 7.477 3 13v10h4V13a6 6 0 0 1 6-5.999A6 6 0 0 1 19 13v10h4V13c0-5.523-4.477-10-10-10z"/><path fill="#FFAC33" d="M26 32a4 4 0 0 1-4 4H4a4 4 0 0 1-4-4V20a4 4 0 0 1 4-4h18a4 4 0 0 1 4 4v12z"/><path fill="#66757F" d="m32 22-16-4-11 7h12.184A2.99 2.99 0 0 1 20 23a3 3 0 0 1 0 6 2.99 2.99 0 0 1-2.816-2H5l11 7 16-4-1-4 1-4z"/><path fill="#292F33" d="M36 18h-3c-.55 0-1.201.402-1.447.894l-3.105 6.211c-.246.492-.246 1.297 0 1.789l3.105 6.211c.246.493.897.895 1.447.895h3V18z"/></svg>