<svg xmlns="http://www.w3.org/2000/svg" viewBox="0 0 36 36"><path fill="#3B88C3" d="M36 32a4 4 0 0 1-4 4H4a4 4 0 0 1-4-4V4a4 4 0 0 1 4-4h28a4 4 0 0 1 4 4v28z"/><path fill="#FFF" d="m30.174 14.023-3.301 2.75A6 6 0 0 1 21 24h-1.059c.037.329.059.662.059 1 0 1.054-.19 2.06-.523 3H21c5.522 0 10-4.478 10-10a9.965 9.965 0 0 0-.826-3.977zM30.2 10 23 4v4h-8C9.477 8 5 12.477 5 18c0 .099.012.194.015.292a8.958 8.958 0 0 1 4.273-2.125A6 6 0 0 1 15 12h8v4l7.2-6z"/><circle fill="#FFF" cx="11" cy="25" r="6"/><path fill="#3B88C3" d="M10.201 23.116h-.708c-.576 0-.815-.42-.815-.828 0-.419.3-.827.815-.827h1.703c.516 0 .804.371.804.852v5.752c0 .6-.384.935-.899.935s-.899-.336-.899-.935v-4.949z"/></svg>