<svg xmlns="http://www.w3.org/2000/svg" viewBox="0 0 36 36"><path fill="#FFAC33" d="M18 8C12.477 8 8 12.477 8 18s4.477 10 10 10 10-4.477 10-10S23.523 8 18 8zm0 16a6 6 0 1 1 0-12 6 6 0 0 1 0 12z"/><circle fill="#FFAC33" cx="18" cy="5" r="2"/><circle fill="#FFAC33" cx="18" cy="31" r="2"/><path fill="#FFAC33" d="M10.222 7.394a2 2 0 1 0-2.828 2.828 2 2 0 0 0 2.828-2.828zm18.384 18.384a2 2 0 1 1-2.828 2.828 2 2 0 0 1 2.828-2.828z"/><circle fill="#FFAC33" cx="5" cy="18" r="2"/><circle fill="#FFAC33" cx="31" cy="18" r="2"/><path fill="#FFAC33" d="M28.605 10.222a2 2 0 1 0-2.83-2.829 2 2 0 0 0 2.83 2.829zM10.222 28.606a2 2 0 1 1-2.828-2.828 2 2 0 0 1 2.828 2.828z"/></svg>