<svg xmlns="http://www.w3.org/2000/svg" viewBox="0 0 36 36"><path fill="#AAB8C2" d="M35 26a4 4 0 0 1-4 4H5a4 4 0 0 1-4-4V6.313C1 4.104 6.791 0 9 0h20.625C32.719 0 35 2.312 35 5.375V26z"/><path fill="#F5F8FA" d="M33 30a4 4 0 0 1-4 4H7a4 4 0 0 1-4-4V6c0-4.119-.021-4 5-4h21a4 4 0 0 1 4 4v24z"/><path fill="#FFF" d="M31 31a3 3 0 0 1-3 3H4a3 3 0 0 1-3-3V7a3 3 0 0 1 3-3h24a3 3 0 0 1 3 3v24z"/><path fill="#AAB8C2" d="M31 32a4 4 0 0 1-4 4H6a4 4 0 0 1-4-4V10a4 4 0 0 1 4-4h21a4 4 0 0 1 4 4v22z"/><path fill="#E1E8ED" d="M29 32a4 4 0 0 1-4 4H6a4 4 0 0 1-4-4V12a4 4 0 0 1 4-4h19.335C27.544 8 29 9.456 29 11.665V32z"/><path fill="#AAB8C2" d="M6 6C4.312 6 4.269 4.078 5 3.25 5.832 2.309 7.125 2 9.438 2H11V0H8.281C4.312 0 1 2.5 1 5.375V32a4 4 0 0 0 4 4h2V6H6z"/><g fill="#DD2E44"><path d="M17 4v23l4-6 4 6V4z"/><path d="M25 28a1 1 0 0 1-.832-.445L21 22.803l-3.168 4.752A.998.998 0 0 1 16 27V4a1 1 0 0 1 1-1h8a1 1 0 0 1 1 1v23a1 1 0 0 1-1 1zm-4-8c.334 0 .646.167.832.445L24 23.697V5h-6v18.697l2.168-3.252c.186-.278.498-.445.832-.445z"/></g><path fill="#F5F8FA" d="M15 2h12v2H15z"/></svg>