<svg xmlns="http://www.w3.org/2000/svg" viewBox="0 0 36 36"><path fill="#AAB8C2" d="M13 3C7.477 3 3 7.477 3 13v10h4V13a6 6 0 0 1 12 0v10h4V13c0-5.523-4.477-10-10-10z"/><path fill="#FFAC33" d="M26 32a4 4 0 0 1-4 4H4a4 4 0 0 1-4-4V20a4 4 0 0 1 4-4h18a4 4 0 0 1 4 4v12z"/><path fill="#C1694F" d="M35 9c0-4.971-4.029-9-9-9s-9 4.029-9 9c0 3.917 2.507 7.24 6 8.477V33.5a2.5 2.5 0 0 0 4.95.49c.018.001.032.01.05.01a1 1 0 0 0 1-1v-1a1 1 0 0 0-1-1v-1a1 1 0 0 0 1-1v-2a1 1 0 0 0-1-1v-2.277A1.99 1.99 0 0 0 29 22v-4.523c3.493-1.236 6-4.559 6-8.477zm-9-7a2 2 0 1 1-.001 4.001A2 2 0 0 1 26 2z"/></svg>