<svg xmlns="http://www.w3.org/2000/svg" viewBox="0 0 36 36"><path fill="#8899A6" d="M27.989 19.977c-.622 0-1.225.078-1.806.213L15.811 9.818a8.02 8.02 0 0 0 .212-1.806A8.012 8.012 0 0 0 8.012 0C7.11 0 5.91.916 6.909 1.915l2.997 2.997s.999 1.998-.999 3.995-3.996.998-3.996.998L1.915 6.909C.916 5.91 0 7.105 0 8.012a8.012 8.012 0 0 0 8.012 8.012 8.02 8.02 0 0 0 1.806-.212l10.371 10.371a7.963 7.963 0 0 0-.213 1.806A8.012 8.012 0 0 0 27.988 36c.901 0 2.101-.916 1.102-1.915l-2.997-2.997s-.999-1.998.999-3.995 3.995-.999 3.995-.999l2.997 2.997c1 .999 1.916-.196 1.916-1.102a8.012 8.012 0 0 0-8.011-8.012z"/></svg>