<svg xmlns="http://www.w3.org/2000/svg" viewBox="0 0 36 36"><path fill="#BF6952" d="m28.736 28.767-21.458.076-1.649 4.835a1.287 1.287 0 0 0-.073.582A2.04 2.04 0 0 0 7.573 36h20.894a2.04 2.04 0 0 0 2.017-1.74 1.26 1.26 0 0 0-.073-.582l-1.675-4.911z"/><path fill="#854836" d="m28.736 28.767-.19-.556a1.464 1.464 0 0 0-1.389-1.001H8.883c-.63 0-1.19.403-1.389 1.001l-.216.632a17.026 17.026 0 0 0 10.678 3.754c4.088 0 7.837-1.438 10.78-3.83z"/><circle fill="#AA8DD8" cx="17.956" cy="15.488" r="15.288"/><circle fill="#744EAA" cx="23.266" cy="12.37" r="4.195"/><circle fill="#744EAA" cx="14.875" cy="18.662" r="3.146"/><circle fill="#744EAA" cx="15.924" cy="5.028" r="2.098"/></svg>