<svg xmlns="http://www.w3.org/2000/svg" viewBox="0 0 36 36"><path fill="#99AAB5" d="M4.167 32.729c.292.167.626.271.987.271a2 2 0 1 0-2-2c0 .361.103.695.27.987L.278 35.133 1.154 28l9-7 5 5-7 9-7.134.876 3.147-3.147z"/><path fill="#66757F" d="M22.511 5.308a2.946 2.946 0 0 0 0 4.167l4.167 4.168a2.948 2.948 0 0 0 4.167 0l4.167-4.168a2.948 2.948 0 0 0 0-4.167l-4.167-4.167a2.946 2.946 0 0 0-4.167 0l-4.167 4.167z"/><path fill="#31373D" d="M9.511 18.309 26.713 1.105l8.333 8.335-17.201 17.203a2.949 2.949 0 0 1-4.168 0l-4.166-4.168a2.945 2.945 0 0 1 0-4.166z"/><path fill="#66757F" d="m17.469 10.35 2.125-2.125 8.334 8.334-2.125 2.125z"/></svg>