<svg xmlns="http://www.w3.org/2000/svg" viewBox="0 0 36 36"><path fill="#9AAAB4" d="m31.5 4-1.784 4.542L27.932 4h-4.147l-1.926 4.903L19.932 4h-3.863l-1.926 4.903L12.216 4H8.068L6.284 8.542 4.5 4H2.133l3.735 28.013h24.263L33.867 4H31.5zm-5.642 1.678 2.459 6.425-2.601 6.621-2.457-6.254 2.599-6.792zM18 6.049l2.457 6.42L18 18.723l-2.457-6.254L18 6.049zm-7.858-.371 2.599 6.792-2.457 6.254-2.601-6.621 2.459-6.425zM5.958 16.611l.326-.853 2.549 6.66-1.573 4.004-1.302-9.811zM8.068 32l2.216-5.79L12.5 32H8.068zm3.668-9.582 2.407-6.288 2.406 6.288-2.406 6.126-2.407-6.126zM15.784 32 18 26.21 20.216 32h-4.432zm3.667-9.582 2.406-6.288 2.406 6.288-2.406 6.126-2.406-6.126zM23.5 32l2.216-5.79L27.932 32H23.5zm5.392-5.192-1.725-4.39 2.549-6.659.411 1.074-1.235 9.975z"/><path fill="#67757F" d="M32 34a2 2 0 0 0-2-2H6a2 2 0 0 0 0 4h24a2 2 0 0 0 2-2zm4-32a2 2 0 0 0-2-2H2a2 2 0 0 0 0 4h32a2 2 0 0 0 2-2z"/></svg>