<svg xmlns="http://www.w3.org/2000/svg" viewBox="0 0 36 36"><circle fill="#FFCC4D" cx="18" cy="18" r="18"/><path fill="#664500" d="M6.999 17a1 1 0 0 1-.893-1.447C6.158 15.448 7.424 13 11 13c3.577 0 4.842 2.449 4.894 2.553a1.001 1.001 0 0 1-1.783.906C14.067 16.378 13.28 15 11 15c-2.317 0-3.099 1.433-3.106 1.447a.998.998 0 0 1-.895.553zM29 17a1 1 0 0 0 .893-1.447C29.841 15.448 28.575 13 24.999 13c-3.577 0-4.842 2.449-4.894 2.553a1.001 1.001 0 0 0 1.783.906c.044-.081.831-1.459 3.111-1.459 2.317 0 3.099 1.433 3.106 1.447A.998.998 0 0 0 29 17zm.503 6.52c.323-.749.461-1.257.466-1.277a1 1 0 0 0-1.94-.487C27.955 22.051 26.081 29 18 29s-9.955-6.949-10.03-7.245a1 1 0 0 0-1.94.487C6.052 22.33 8.331 31 18 31c1.65 0 3.07-.266 4.315-.685 4.33-1.458 6.374-4.91 7.188-6.795z"/><path fill="#E75B70" d="m32.407 26.681-2.956-3.051s-.68-.438-1.273.568c-.78 1.322-2.075 2.935-3.934 4.171-.781.519-2.139 1.189-2.697 1.318-.735.169-.388.964-.388.964.585-.127 1.051-.301 1.051-.301l.296.296 2.726 2.726c1.728 1.728 5 2 7 0s1.904-4.962.175-6.691z"/><path fill="#DE3146" d="M29.915 31.074a.545.545 0 0 0 0-.771l-3.629-3.629-.796.748 3.653 3.653a.547.547 0 0 0 .772-.001z"/></svg>