<svg xmlns="http://www.w3.org/2000/svg" viewBox="0 0 36 36"><path fill="#FFCC4D" d="M36 18c0 9.941-8.059 18-18 18S0 27.941 0 18 8.059 0 18 0s18 8.059 18 18"/><path fill="#664500" d="M18 21.849c-2.966 0-4.935-.346-7.369-.819-.557-.106-1.638 0-1.638 1.638 0 3.275 3.763 7.369 9.007 7.369s9.007-4.094 9.007-7.369c0-1.638-1.082-1.745-1.638-1.638-2.434.473-4.402.819-7.369.819"/><path fill="#DD2E44" d="M16.65 3.281a4.666 4.666 0 0 0-8.884.254 4.666 4.666 0 0 0-4.225-.58A4.67 4.67 0 0 0 .692 8.911c.122.344.284.663.472.958 1.951 3.582 7.588 6.1 11.001 6.131 2.637-2.167 5.446-7.665 4.718-11.677a4.712 4.712 0 0 0-.233-1.042zm2.7 0a4.67 4.67 0 0 1 5.956-2.85 4.67 4.67 0 0 1 2.929 3.104 4.666 4.666 0 0 1 4.225-.58 4.671 4.671 0 0 1 2.85 5.956 4.72 4.72 0 0 1-.473.958c-1.951 3.582-7.588 6.1-11.002 6.131-2.637-2.167-5.445-7.665-4.717-11.677.037-.348.112-.698.232-1.042z"/></svg>