<svg xmlns="http://www.w3.org/2000/svg" viewBox="0 0 36 36"><path fill="#FFCC4D" d="M36 18c0 9.941-8.059 18-18 18-9.94 0-18-8.059-18-18C0 8.06 8.06 0 18 0c9.941 0 18 8.06 18 18"/><path fill="#664500" d="M28.457 17.797c-.06-.135-1.499-3.297-4.457-3.297-2.957 0-4.397 3.162-4.457 3.297a.503.503 0 0 0 .755.605c.012-.009 1.262-.902 3.702-.902 2.426 0 3.674.881 3.702.901a.498.498 0 0 0 .755-.604zm-12 0c-.06-.135-1.499-3.297-4.457-3.297-2.957 0-4.397 3.162-4.457 3.297a.499.499 0 0 0 .754.605C8.31 18.393 9.559 17.5 12 17.5c2.426 0 3.674.881 3.702.901a.498.498 0 0 0 .755-.604zM18 22c-3.623 0-6.027-.422-9-1-.679-.131-2 0-2 2 0 4 4.595 9 11 9 6.404 0 11-5 11-9 0-2-1.321-2.132-2-2-2.973.578-5.377 1-9 1z"/><path fill="#FFF" d="M9 23s3 1 9 1 9-1 9-1-2 4-9 4-9-4-9-4z"/></svg>