<svg xmlns="http://www.w3.org/2000/svg" viewBox="0 0 36 36"><path fill="#FFCC4D" d="M36 18c0 9.941-8.059 18-18 18-9.94 0-18-8.059-18-18C0 8.06 8.06 0 18 0c9.941 0 18 8.06 18 18"/><path fill="#664500" d="M20.871 28c1.335-.412 2.629-1.156 2.629-2.5 0-2.619-4.912-2.968-5.472-2.999a.493.493 0 0 0-.527.468.5.5 0 0 0 .464.53c.035.002 3.535.299 3.535 2.001s-3.5 1.999-3.535 2.001c-.013.001-.023.008-.036.01a.446.446 0 0 0-.149.041l-.015.009a.476.476 0 0 0-.127.1c-.014.015-.023.031-.035.047a.496.496 0 0 0-.06.103c-.012.029-.018.061-.024.092-.004.023-.016.044-.018.067 0 .011.004.021.004.031s-.005.021-.004.031c.001.024.013.045.018.068.006.031.011.061.023.09.013.03.031.057.049.084.017.024.032.05.052.071.023.023.05.041.078.061.024.017.046.034.074.047a.387.387 0 0 0 .101.027c.024.006.044.018.069.02.035.001 3.535.298 3.535 2s-3.5 1.999-3.535 2.001A.501.501 0 0 0 18 33.5l.028-.001c.56-.031 5.472-.38 5.472-2.999 0-1.344-1.294-2.088-2.629-2.5zM16 19c-.419 0-.809-.265-.949-.684C14.848 17.717 14.034 16 13 16c-1.062 0-1.888 1.827-2.051 2.316a.999.999 0 1 1-1.897-.633C9.177 17.307 10.356 14 13 14s3.823 3.307 3.949 3.684A1 1 0 0 1 16 19zm10 0a.999.999 0 0 1-.948-.684C24.849 17.717 24.033 16 23 16c-1.062 0-1.889 1.827-2.052 2.316a1 1 0 1 1-1.897-.633C19.177 17.307 20.355 14 23 14s3.823 3.307 3.948 3.684A1 1 0 0 1 26 19z"/></svg>