<svg xmlns="http://www.w3.org/2000/svg" viewBox="0 0 36 36"><circle fill="#FFCC4D" cx="18" cy="18" r="18"/><ellipse fill="#664500" cx="11.5" cy="15.5" rx="2.5" ry="3.5"/><path fill="#664500" d="M28.457 17.797c-.06-.135-1.499-3.297-4.457-3.297-2.957 0-4.397 3.162-4.457 3.297a.503.503 0 0 0 .755.605c.012-.009 1.262-.902 3.702-.902 2.426 0 3.674.881 3.702.901a.498.498 0 0 0 .755-.604zM5.999 11A1 1 0 0 1 5.2 9.4C8.462 5.05 12.816 5 13 5a1 1 0 0 1 .004 2c-.155.002-3.568.086-6.204 3.6a.998.998 0 0 1-.801.4zm23.002 3a.998.998 0 0 1-.801-.4c-2.592-3.456-6.961-2.628-7.004-2.62a.998.998 0 0 1-1.177-.784 1.001 1.001 0 0 1 .784-1.177c.231-.047 5.657-1.072 8.996 3.38A1 1 0 0 1 29.001 14zm-8.922 13.042c1.335-.412 2.629-1.156 2.629-2.5 0-2.619-4.912-2.968-5.472-2.999a.493.493 0 0 0-.527.468.5.5 0 0 0 .464.53c.035.002 3.535.299 3.535 2.001s-3.5 1.999-3.535 2.001c-.014.001-.024.009-.037.011a.445.445 0 0 0-.146.04l-.019.011a.471.471 0 0 0-.125.098c-.014.015-.024.031-.036.048a.446.446 0 0 0-.059.102c-.012.029-.018.061-.024.092-.004.023-.016.044-.018.067 0 .011.004.021.004.031s-.005.021-.004.031c.001.024.013.045.018.068.006.031.011.061.023.09.013.03.031.057.049.084.017.024.032.05.052.071.023.023.05.041.078.061.024.017.046.034.074.047a.387.387 0 0 0 .101.027c.024.006.044.018.069.02.035.002 3.535.299 3.535 2.001s-3.5 1.999-3.535 2.001a.501.501 0 0 0 .035.999l.028-.001c.56-.031 5.472-.38 5.472-2.999 0-1.345-1.294-2.089-2.629-2.501z"/><path fill="#FFAC33" d="M34.202 25.803a3.034 3.034 0 0 0-1.578-1.875 3.054 3.054 0 0 0-2.793.06 3.051 3.051 0 0 0-1.67-2.237 3.057 3.057 0 0 0-4.087 1.406c-.105.215-.18.437-.23.659-.775 2.556.64 6.341 2.192 7.948 1.23.13 2.953-.198 4.513-.873a18.035 18.035 0 0 0 3.653-5.088z"/><path fill="#DD2E44" d="M35.654 27.222a3.054 3.054 0 0 0-4.198-4.026 3.051 3.051 0 0 0-1.67-2.237 3.058 3.058 0 0 0-4.087 1.406c-.105.215-.18.437-.23.659-.774 2.556.64 6.341 2.192 7.948 2.223.234 6.077-.979 7.615-3.161.145-.179.273-.374.378-.589z"/></svg>