<svg xmlns="http://www.w3.org/2000/svg" viewBox="0 0 36 36"><path fill="#FFCC4D" d="M36 18c0 9.941-8.059 18-18 18-9.94 0-18-8.059-18-18C0 8.06 8.06 0 18 0c9.941 0 18 8.06 18 18"/><path fill="#664500" d="M6 13a1 1 0 0 1-.004-2c.156-.002 3.569-.086 6.205-3.6a1 1 0 0 1 1.6 1.2C10.538 12.95 6.184 13 6 13zm24 0c-.184 0-4.537-.05-7.8-4.4a1 1 0 1 1 1.599-1.2c2.641 3.521 6.061 3.599 6.206 3.6.55.006.994.456.991 1.005A.996.996 0 0 1 30 13zM6.001 22a1 1 0 0 1-.601-1.799c.143-.107 2.951-2.183 6.856-2.933C9.781 16.027 7.034 16 6.999 16A1.001 1.001 0 0 1 7 14c.221 0 5.452.038 8.707 3.293A1 1 0 0 1 15 19c-4.613 0-8.363 2.772-8.4 2.8a.996.996 0 0 1-.599.2zm23.998-.001a.998.998 0 0 1-.598-.198C29.363 21.772 25.59 19 21 19a.999.999 0 0 1-.707-1.707C23.549 14.038 28.779 14 29 14a1 1 0 0 1 .002 2c-.036 0-2.783.027-5.258 1.268 3.905.75 6.713 2.825 6.855 2.933a1 1 0 0 1-.6 1.798zM18 30a1 1 0 0 1-.781-.375l-3.194-3.992L11.8 28.6a.998.998 0 0 1-1.507.107l-1-1a.999.999 0 1 1 1.414-1.414l.185.185L13.2 23.4a.996.996 0 0 1 1.58-.025L18 27.399l3.219-4.024c.193-.241.484-.375.797-.375.31.005.599.152.784.4l2.309 3.077.185-.185a.999.999 0 1 1 1.414 1.414l-1 1a.975.975 0 0 1-.778.29 1 1 0 0 1-.729-.397l-2.226-2.967-3.193 3.992A1.002 1.002 0 0 1 18 30z"/></svg>