<svg xmlns="http://www.w3.org/2000/svg" viewBox="0 0 36 36"><path fill="#FFCC4D" d="M36 18c0 9.941-8.059 18-18 18-9.94 0-18-8.059-18-18C0 8.06 8.06 0 18 0c9.941 0 18 8.06 18 18"/><path fill="#664500" d="M28.457 17.797c-.06-.135-1.499-3.297-4.457-3.297-2.957 0-4.397 3.162-4.457 3.297a.503.503 0 0 0 .755.605c.012-.009 1.262-.902 3.702-.902 2.426 0 3.674.881 3.702.901a.498.498 0 0 0 .755-.604zm-11 0c-.06-.135-1.499-3.297-4.457-3.297-2.957 0-4.397 3.162-4.457 3.297a.499.499 0 0 0 .754.605c.013-.009 1.262-.902 3.703-.902 2.426 0 3.674.881 3.702.901a.5.5 0 0 0 .755-.604zM13 28s1-4 5-4 5 4 5 4-1-1-5-1-5 1-5 1z"/><path fill="#5DADEC" d="M11 11a5 5 0 1 1-10 0C1 8.238 5 1 6 1s5 7.238 5 10z"/></svg>