<svg xmlns="http://www.w3.org/2000/svg" viewBox="0 0 36 36"><path fill="#FFCC4D" d="M36 18c0 9.941-8.059 18-18 18S0 27.941 0 18 8.059 0 18 0s18 8.059 18 18"/><circle fill="#FF7892" cx="7" cy="21" r="5"/><circle fill="#FF7892" cx="29" cy="21" r="5"/><path fill="#664500" d="M28.416 17.723C28.355 17.632 26.901 15.5 24 15.5c-2.9 0-4.355 2.132-4.416 2.223a.499.499 0 0 0 .071.638.504.504 0 0 0 .643.042c.012-.01 1.262-.903 3.702-.903 2.426 0 3.674.881 3.702.901a.5.5 0 0 0 .714-.678zM12 15.5c-2.9 0-4.355 2.132-4.416 2.223a.5.5 0 0 0 .713.68c.013-.01 1.262-.903 3.703-.903 2.426 0 3.674.881 3.702.901a.5.5 0 0 0 .714-.679c-.061-.09-1.515-2.222-4.416-2.222zM21.871 27c1.335-.412 2.629-1.156 2.629-2.5 0-2.619-4.912-2.968-5.473-2.999-.277-.036-.51.194-.526.468a.5.5 0 0 0 .464.53c.035.002 3.535.299 3.535 2.001s-3.5 1.999-3.535 2.001c-.01.001-.017.006-.026.007a.437.437 0 0 0-.31.159l-.015.021a.519.519 0 0 0-.073.125c-.011.027-.016.057-.021.086-.005.024-.017.046-.019.07-.001.01.004.02.004.031s-.005.021-.004.031c.002.025.013.046.019.07.006.029.011.059.022.087a.48.48 0 0 0 .051.088c.017.023.03.047.05.067a.457.457 0 0 0 .081.062c.024.017.045.033.071.046a.367.367 0 0 0 .101.027c.023.006.044.018.069.02.035.003 3.535.3 3.535 2.002s-3.5 1.999-3.535 2.001A.5.5 0 0 0 19 32.5l.027-.001c.561-.031 5.473-.38 5.473-2.999 0-1.344-1.294-2.088-2.629-2.5zm9.13-11a.998.998 0 0 1-.801-.4c-2.641-3.521-6.061-3.599-6.206-3.6a1.002 1.002 0 0 1-.991-1.005A.997.997 0 0 1 24 10c.184 0 4.537.05 7.8 4.4a1 1 0 0 1-.799 1.6zM4.999 16a1 1 0 0 1-.799-1.6C7.462 10.05 11.816 10 12 10a1 1 0 0 1 .004 2c-.156.002-3.569.086-6.205 3.6a.995.995 0 0 1-.8.4z"/></svg>