<svg xmlns="http://www.w3.org/2000/svg" viewBox="0 0 36 36"><path fill="#FFCC4D" d="M36 18c0 9.941-8.059 18-18 18S0 27.941 0 18 8.059 0 18 0s18 8.059 18 18"/><path fill="#664500" d="M18 21.5c-9.333 0-10.485 8.354-10.496 8.438a.5.5 0 0 0 .654.537c.059-.02 5.968-1.975 9.842-1.975 5.595 0 9.745 1.933 9.786 1.952a.502.502 0 0 0 .71-.515C28.485 29.854 27.333 21.5 18 21.5zM29 10c-5.554 0-7.802-4.367-7.895-4.553a1 1 0 0 1 1.787-.899C22.967 4.694 24.713 8 29 8a1 1 0 1 1 0 2zM7 10a1 1 0 0 1 0-2c5.083 0 5.996-3.12 6.033-3.253a1.007 1.007 0 0 1 1.219-.709c.53.139.851.673.718 1.205C14.921 5.437 13.704 10 7 10z"/><path fill="#CCD6DD" d="M18 23c4 0 6 2 6 2H12s2-2 6-2z"/><path fill="#664500" d="M6.001 19a1 1 0 0 1-.601-1.799c.143-.107 2.951-2.183 6.856-2.933C9.781 13.027 7.034 13 6.999 13A1.001 1.001 0 0 1 7 11c.221 0 5.452.038 8.707 3.293A1 1 0 0 1 15 16c-4.613 0-8.363 2.772-8.4 2.8a.996.996 0 0 1-.599.2zm23.998-.001a.998.998 0 0 1-.598-.198C29.363 18.772 25.59 16 21 16a1 1 0 0 1-.707-1.707C23.549 11.038 28.779 11 29 11a1 1 0 0 1 .002 2c-.036 0-2.783.027-5.258 1.268 3.905.75 6.713 2.826 6.855 2.933a1 1 0 0 1-.6 1.798z"/></svg>