<svg xmlns="http://www.w3.org/2000/svg" viewBox="0 0 36 36"><path fill="#FFCC4D" d="M36 18c0 9.941-8.059 18-18 18-9.94 0-18-8.059-18-18C0 8.06 8.06 0 18 0c9.941 0 18 8.06 18 18"/><path fill="#BDDDF4" d="M18 11c8.749 0 16.033 4.509 17.656 10.484.222-1.128.344-2.292.344-3.484 0-9.94-8.059-18-18-18C8.06 0 0 8.06 0 18c0 1.192.123 2.356.344 3.484C1.967 15.509 9.252 11 18 11z"/><ellipse fill="#664500" cx="11.5" cy="16.5" rx="2.5" ry="3.5"/><ellipse fill="#664500" cx="24.5" cy="16.5" rx="2.5" ry="3.5"/><path fill="#664500" d="M5.999 12a1 1 0 0 1-.799-1.6C8.462 6.05 12.816 6 13 6a1 1 0 0 1 .004 2c-.155.002-3.568.086-6.204 3.6a.998.998 0 0 1-.801.4zm24.002 0a.998.998 0 0 1-.801-.4c-2.64-3.521-6.061-3.598-6.206-3.6a1.002 1.002 0 0 1-.991-1.005A.997.997 0 0 1 23 6c.184 0 4.537.05 7.8 4.4a1 1 0 0 1-.799 1.6zm-6.516 15.879C23.474 27.835 22.34 23.5 18 23.5s-5.474 4.335-5.485 4.379a.495.495 0 0 0 .231.544.51.51 0 0 0 .596-.06c.011-.008 1.015-.863 4.658-.863 3.589 0 4.617.83 4.656.863a.5.5 0 0 0 .829-.484z"/></svg>