<svg xmlns="http://www.w3.org/2000/svg" viewBox="0 0 36 36"><path fill="#FFCC4D" d="M36 18c0 9.941-8.059 18-18 18S0 27.941 0 18 8.059 0 18 0s18 8.059 18 18"/><ellipse fill="#664500" cx="18" cy="25.5" rx="3" ry="3.5"/><path fill="#664500" d="M31.001 11a.998.998 0 0 1-.801-.4c-2.64-3.521-6.061-3.598-6.206-3.6a1.002 1.002 0 0 1-.991-1.005A.997.997 0 0 1 24 5c.184 0 4.537.05 7.8 4.4a1 1 0 0 1-.799 1.6zM4.999 11A1 1 0 0 1 4.2 9.4C7.462 5.05 11.816 5 12 5a1 1 0 0 1 .004 2c-.155.002-3.568.086-6.204 3.6a.998.998 0 0 1-.801.4z"/><ellipse fill="#664500" cx="12" cy="14.5" rx="2.5" ry="3.5"/><ellipse fill="#664500" cx="24" cy="14.5" rx="2.5" ry="3.5"/></svg>