<svg xmlns="http://www.w3.org/2000/svg" viewBox="0 0 36 36"><path fill="#DA2F47" d="M36 18c0 9.941-8.059 18-18 18-9.94 0-18-8.059-18-18C0 8.06 8.06 0 18 0c9.941 0 18 8.06 18 18"/><path fill="#292F33" d="M25.485 29.879C25.44 29.7 24.317 25.5 18 25.5c-6.318 0-7.44 4.2-7.485 4.379a.499.499 0 0 0 .237.554.507.507 0 0 0 .6-.077c.019-.019 1.954-1.856 6.648-1.856s6.63 1.837 6.648 1.855a.502.502 0 0 0 .598.081.5.5 0 0 0 .239-.557zm-9.778-12.586C12.452 14.038 7.221 14 7 14a1.001 1.001 0 0 0-.001 2c.029 0 1.925.022 3.983.737-.593.64-.982 1.634-.982 2.763 0 1.934 1.119 3.5 2.5 3.5s2.5-1.566 2.5-3.5c0-.174-.019-.34-.037-.507.013 0 .025.007.037.007a.999.999 0 0 0 .707-1.707zM29 14c-.221 0-5.451.038-8.707 3.293A.999.999 0 0 0 21 19c.013 0 .024-.007.036-.007-.016.167-.036.333-.036.507 0 1.934 1.119 3.5 2.5 3.5s2.5-1.566 2.5-3.5c0-1.129-.389-2.123-.982-2.763A13.928 13.928 0 0 1 29.002 16 1 1 0 0 0 29 14z"/></svg>