<svg xmlns="http://www.w3.org/2000/svg" viewBox="0 0 36 36"><path fill="#FFCC4D" d="M36 18c0 9.941-8.059 18-18 18S0 27.941 0 18 8.059 0 18 0s18 8.059 18 18"/><path fill="#664500" d="M29 10c-5.554 0-7.802-4.367-7.895-4.553a1 1 0 0 1 1.787-.899C22.967 4.694 24.713 8 29 8a1 1 0 1 1 0 2zM7 10a1 1 0 0 1 0-2c5.083 0 5.996-3.12 6.033-3.253a1.007 1.007 0 0 1 1.219-.709c.53.139.851.673.718 1.205C14.921 5.437 13.704 10 7 10zm-.999 13a1 1 0 0 1-.601-1.799c.143-.107 2.951-2.183 6.856-2.933C9.781 17.027 7.034 17 6.999 17A1 1 0 0 1 7 15c.221 0 5.452.038 8.707 3.293A1 1 0 0 1 15 20c-4.613 0-8.363 2.772-8.4 2.8a.996.996 0 0 1-.599.2zm23.998-.001a.998.998 0 0 1-.598-.198C29.363 22.772 25.59 20 21 20a.999.999 0 0 1-.707-1.707C23.549 15.038 28.779 15 29 15a1 1 0 0 1 .002 2c-.036 0-2.783.027-5.258 1.268 3.905.75 6.713 2.825 6.855 2.933a1 1 0 0 1-.6 1.798zm-4.545 7.792c-.118-.257-2.938-6.291-7.21-6.291-4.249 0-7.546 6.007-7.684 6.262a.5.5 0 0 0 .751.629c.031-.024 3.163-2.479 6.933-2.479 3.743 0 6.388 2.43 6.414 2.454a.501.501 0 0 0 .796-.575z"/></svg>