<svg xmlns="http://www.w3.org/2000/svg" viewBox="0 0 36 36"><circle fill="#FFCC4D" cx="18" cy="18" r="18"/><path fill="#664500" d="M29.52 15.42a.947.947 0 0 1-.771-.4c-2.543-3.521-5.837-3.599-5.976-3.6-.53-.006-.957-.456-.954-1.005.003-.551.43-.995.96-.995.177 0 4.369.05 7.511 4.4.32.442.233 1.069-.193 1.4a.936.936 0 0 1-.577.2zm-25.04 0a.939.939 0 0 1-.577-.2 1.026 1.026 0 0 1-.193-1.4c3.141-4.35 7.334-4.4 7.511-4.4.532 0 .963.448.963 1 0 .551-.429.998-.959 1-.15.002-3.437.086-5.975 3.6a.944.944 0 0 1-.77.4zm10.223 1.598c-.013.009-1.262.902-3.703.902-2.442 0-3.69-.893-3.7-.9a.499.499 0 0 0-.716.678c.061.09 1.515 2.222 4.416 2.222 2.9 0 4.355-2.132 4.416-2.223a.5.5 0 0 0-.713-.679zm12.642.042a.5.5 0 0 0-.643-.042c-.012.009-1.262.902-3.702.902-2.441 0-3.69-.893-3.7-.9a.499.499 0 0 0-.716.678c.061.09 1.515 2.222 4.416 2.222 2.9 0 4.355-2.132 4.416-2.223a.498.498 0 0 0-.071-.637zm-4.86 11.239c-.011-.044-1.145-4.379-5.485-4.379s-5.474 4.335-5.485 4.379a.496.496 0 0 0 .232.544.51.51 0 0 0 .596-.06c.009-.008 1.013-.863 4.657-.863 3.59 0 4.617.83 4.656.863a.5.5 0 0 0 .829-.484z"/><path fill="#DEE7ED" d="M3.24 29.842c-.035.044-.077.08-.111.127a2.818 2.818 0 0 0 3.278 4.275 3.76 3.76 0 1 0 1.889-5.534 2.814 2.814 0 0 0-1.139-2.801 2.82 2.82 0 0 0-3.932.671 2.813 2.813 0 0 0 .015 3.262z"/><path fill="#F3F7F9" d="M17.283 27.456c-.024.016-1.782 1.313-3.111 3.113-.49.664-.777 1.445-1.039 2.228a3.016 3.016 0 0 1-.36.729c-.02.05-.05.09-.08.14-.15.21-.32.4-.51.57-1.11.97-2.78 1.1-4.05.21-.36-.26-.65-.57-.87-.93-.74.27-1.59.19-2.27-.3a2.452 2.452 0 0 1-.59-3.42c.03-.04.07-.07.1-.11-.72-1-.621-2.476.495-3.358.964-.761 2.293-.637 3.215.174l.025.022c1.1.988 2.532 1.54 3.988 1.284 1.198-.211 2.708-.593 4.607-1.232.23-.08.49.03.6.25.12.22.05.49-.15.63z"/></svg>