<svg xmlns="http://www.w3.org/2000/svg" viewBox="0 0 36 36"><path fill="#FFCC4D" d="M36 18c0 9.941-8.059 18-18 18S0 27.941 0 18 8.059 0 18 0s18 8.059 18 18"/><path fill="#664500" d="M23.485 28.879C23.474 28.835 22.34 24.5 18 24.5s-5.474 4.335-5.485 4.379a.496.496 0 0 0 .232.544.51.51 0 0 0 .596-.06c.009-.008 1.013-.863 4.657-.863 3.59 0 4.617.83 4.656.863a.5.5 0 0 0 .829-.484zm-7.782-11.281c-.013.009-1.262.902-3.703.902-2.442 0-3.69-.893-3.7-.9a.499.499 0 0 0-.716.678c.061.09 1.515 2.222 4.416 2.222 2.9 0 4.355-2.132 4.416-2.223a.5.5 0 0 0-.713-.679zm12.642.042a.5.5 0 0 0-.643-.042c-.012.009-1.262.902-3.702.902-2.441 0-3.69-.893-3.7-.9a.499.499 0 0 0-.716.678c.061.09 1.515 2.222 4.416 2.222 2.9 0 4.355-2.132 4.416-2.223a.498.498 0 0 0-.071-.637zM31.001 16a.998.998 0 0 1-.801-.4c-2.641-3.521-6.061-3.599-6.206-3.6a1.002 1.002 0 0 1-.991-1.005A.997.997 0 0 1 24 10c.184 0 4.537.05 7.8 4.4a1 1 0 0 1-.799 1.6zM4.999 16a1 1 0 0 1-.799-1.6C7.462 10.05 11.816 10 12 10a1 1 0 0 1 .004 2c-.156.002-3.569.086-6.205 3.6a.995.995 0 0 1-.8.4z"/><path fill="#5DADEC" d="M23 23c6.211 0 13 4 13 9 0 4-3 4-3 4-8 0-1-9-10-13z"/></svg>