<svg xmlns="http://www.w3.org/2000/svg" viewBox="0 0 36 36"><path fill="#FFCC4D" d="M36 18c0 9.941-8.059 18-18 18-9.94 0-18-8.059-18-18C0 8.06 8.06 0 18 0c9.941 0 18 8.06 18 18"/><ellipse fill="#664500" cx="18" cy="27" rx="5" ry="6"/><path fill="#664500" d="M5.999 11A1 1 0 0 1 5.2 9.4C8.462 5.05 12.816 5 13 5a1 1 0 0 1 .004 2c-.155.002-3.568.086-6.204 3.6a.998.998 0 0 1-.801.4zm24.002 0a.998.998 0 0 1-.801-.4c-2.64-3.521-6.061-3.598-6.206-3.6a1.002 1.002 0 0 1-.991-1.005A.997.997 0 0 1 23 5c.184 0 4.537.05 7.8 4.4a1 1 0 0 1-.799 1.6zm-16.087 4.5 1.793-1.793a.999.999 0 1 0-1.414-1.414L12.5 14.086l-1.793-1.793a.999.999 0 1 0-1.414 1.414l1.793 1.793-1.793 1.793a.999.999 0 1 0 1.414 1.414l1.793-1.793 1.793 1.793a.997.997 0 0 0 1.414 0 .999.999 0 0 0 0-1.414L13.914 15.5zm11 0 1.793-1.793a.999.999 0 1 0-1.414-1.414L23.5 14.086l-1.793-1.793a.999.999 0 1 0-1.414 1.414l1.793 1.793-1.793 1.793a.999.999 0 1 0 1.414 1.414l1.793-1.793 1.793 1.793a.997.997 0 0 0 1.414 0 .999.999 0 0 0 0-1.414L24.914 15.5z"/></svg>