<svg xmlns="http://www.w3.org/2000/svg" viewBox="0 0 36 36"><circle fill="#F3F7F9" cx="30.583" cy="7.966" r="4"/><path fill="#F3F7F9" d="M7.839 29.942a4.65 4.65 0 0 1-1.578.436 4.316 4.316 0 0 1-4.627-3.937 4.306 4.306 0 0 1 3.937-4.627 4.297 4.297 0 0 1 3.719 1.633l-1.451 6.495z"/><circle fill="#FFCC4D" cx="18" cy="18" r="16"/><path fill="#664500" d="M15.057 17.023c0 1.664-.966 3.019-2.152 3.019-1.196 0-2.162-1.355-2.162-3.019 0-1.674.967-3.019 2.162-3.019 1.185-.001 2.152 1.345 2.152 3.019zm11.229 0c0 1.664-.967 3.019-2.162 3.019-1.196 0-2.162-1.355-2.162-3.019 0-1.674.967-3.019 2.162-3.019 1.196-.001 2.162 1.345 2.162 3.019z"/><path fill="#C9D5DD" d="M13.931 8.882a7.81 7.81 0 0 1-.359.618 7.748 7.748 0 0 1-1.604 1.774 7.377 7.377 0 0 1-1.963 1.156c-1.614.668-3.527.737-5.092.12a4.437 4.437 0 0 1-.697-.329c-.947-.488-1.734-1.216-2.212-2.102a6.905 6.905 0 0 0 2.63 1.216 6.69 6.69 0 0 0 4.175-.418 6.49 6.49 0 0 0 1.594-.986 6.662 6.662 0 0 0 2.342-3.955 4.4 4.4 0 0 0 1.574-.737c.159-.12.319-.249.458-.379a7.451 7.451 0 0 1-.846 4.022z"/><path fill="#F3F7F9" d="M35.378 4.814a3.015 3.015 0 0 1-.702 2.166 3.039 3.039 0 0 1-2.023 1.037 3.094 3.094 0 0 1-1.678-.366 5.63 5.63 0 0 1-.803 1.078c-.071.071-.132.132-.204.193a5.584 5.584 0 0 1-4.799 1.474 5.592 5.592 0 0 1-4.088-2.959 5.145 5.145 0 0 1-.417-1.037 2.592 2.592 0 0 1-.885.244 2.419 2.419 0 0 1-2.593-2.206 2.413 2.413 0 0 1 2.207-2.593 2.41 2.41 0 0 1 2.085.915A4.908 4.908 0 0 1 25.484.015a4.898 4.898 0 0 1 4.87 2.898 2.989 2.989 0 0 1 1.82-.824 2.987 2.987 0 0 1 3.204 2.725z"/><path fill="#C9D5DD" d="M34.467 7.208c-.1.339-.269.658-.518.937-.299.359-.707.608-1.166.807-.179.08-.389.14-.588.169a5.162 5.162 0 0 1-.628.787 5.977 5.977 0 0 1-2.152 1.495c-1.415.598-3.109.658-4.553.159a5.796 5.796 0 0 1-2.132-1.265 4.971 4.971 0 0 1-1.196-1.544 4.374 4.374 0 0 1-.448-1.315c.12.239.259.458.418.678a5.575 5.575 0 0 0 1.764 1.614h.01a5.503 5.503 0 0 0 1.893.668c1.823.309 3.557-.299 4.803-1.475.07-.06.13-.12.199-.189.1-.11.199-.219.289-.339.199-.229.369-.478.518-.747a3.05 3.05 0 0 0 1.674.369 3.12 3.12 0 0 0 1.813-.809z"/><path fill="#F3F7F9" d="M23.775 5.926c0 3.091-3.162 5.592-7.067 5.592-2.267 0-4.291-.844-5.582-2.156-1.261 1.485-3.437 2.471-5.277 2.471-2.786 0-5.043-2.257-5.043-5.043s2.257-5.043 5.043-5.043c.071 0 .152 0 .224.01A3.14 3.14 0 0 1 8.615.476c1.23 0 2.298.712 2.806 1.739C12.712 1.046 14.604.324 16.708.324c3.905-.001 7.067 2.501 7.067 5.602z"/><path fill="#DEE7ED" d="M27.92 4.408c-.06.409-.219.827-.458 1.216a3.793 3.793 0 0 1-1.345 1.285c-.438.249-.947.468-1.485.548a8.648 8.648 0 0 1-1.355 2.272h-.01a7.221 7.221 0 0 1-.538.568 6.867 6.867 0 0 1-.697.608 8.678 8.678 0 0 1-5.311 1.774c-1.644 0-3.368-.478-4.753-1.405a8.928 8.928 0 0 1-1.564-1.345 8.576 8.576 0 0 1-.897-1.096 8.272 8.272 0 0 1-.598-1.137 4.016 4.016 0 0 1-1.375-.379 2.982 2.982 0 0 1-.578-.329c-.568-.408-1.026-.936-1.255-1.554a2.801 2.801 0 0 1-.24-1.315A3.036 3.036 0 0 0 8.75 6.232l.189-.03a2.92 2.92 0 0 0 1.056-.428c.199.458.428.887.707 1.285.08.13.169.249.269.369.249.329.538.638.847.907a6.731 6.731 0 0 0 1.754 1.166 6.758 6.758 0 0 0 2.621.638 7.02 7.02 0 0 0 5.131-1.843l.179-.179a7 7 0 0 0 1.534-2.242c.658.279 1.395.329 2.152.229.598-.08 1.236-.458 1.744-.837.559-.41.957-.819.987-.859z"/><path fill="#F3F7F9" d="M33.607 33.196a2.966 2.966 0 0 1-2.776.468l-.041-.01c0 .02-.393 1.209-1.922 1.2a2.202 2.202 0 0 1-1.668-.752 4.487 4.487 0 0 1-4.535.976 4.388 4.388 0 0 1-2.522.793c-1.881.005-2.695-.671-3.142-1.139-3.891 2.271-8.874 1.171-10.483-.783a3.747 3.747 0 0 1-.397-.58 3.553 3.553 0 0 1-2.247.427C1.84 33.542.386 31.661.641 29.627a3.705 3.705 0 0 1 1.261-2.339c.051-.051.112-.102.163-.142a3.744 3.744 0 0 1 3.224-.65l.122.03c.152.041.295.102.437.163.142.061.285.132.417.213.193.112.366.234.529.376.102-.112.203-.214.305-.315l.02-.02c1.932-1.891 4.83-2.593 7.514-1.546a6.991 6.991 0 0 1 3.071 2.318 4.364 4.364 0 0 1 2.44-.732c.946 0 1.82.295 2.542.803 1.779-.488 3.64-.224 5.196.62.01 0 .01.01.01.01.224.112.447.244.651.397.213.142.417.305.62.468.183-.325.437-.62.752-.864a3.03 3.03 0 0 1 4.057.336l.183.214a3.012 3.012 0 0 1-.548 4.229z"/><path fill="#DEE7ED" d="m22.729 35.087-.07-.01a2.983 2.983 0 0 0-.149-1.743 2.983 2.983 0 0 0-2.401-1.843c-.12-.02-.249-.02-.379-.02a3.2 3.2 0 0 0-.757.09c-.03-.399-.1-.807-.199-1.186a6.852 6.852 0 0 0-1.166-2.501 6.997 6.997 0 0 0-3.109-2.361c-2.66-1.036-5.54-.339-7.453 1.534l-.02.02c-.11.1-.209.209-.309.319a3.011 3.011 0 0 0-.528-.379 3.202 3.202 0 0 0-.408-.209c-.12-.05-.239-.1-.369-.14-.02-.01-.05-.01-.07-.02l-.12-.03a3.67 3.67 0 0 0-3.198.647c-.05.04-.11.09-.159.14l-.01-.02c.438-.857 1.355-1.574 2.491-1.803.13-.02.259-.05.389-.06.389-.05.787-.06 1.186.01a8.088 8.088 0 0 1 3.517-2.431c1.754-.618 3.776-.618 5.56 0 1.764.578 3.428 1.774 4.434 3.358 0 .02.01.02.01.03.03.04.06.09.08.13a8.907 8.907 0 0 1 1.006 2.162c.01.04.03.09.05.13 0 .02.01.04.02.06.11.418.179.847.219 1.265.658.299 1.216.727 1.604 1.275.369.508.618 1.076.688 1.654.01.07.02.139.02.209.048.627-.101 1.245-.4 1.723z"/><path fill="#C9D5DD" d="M34.118 28.979c-.996-1.016-2.621-1.226-3.866-.498-.1.04-.189.1-.279.169a2.928 2.928 0 0 0-.767.847 6.56 6.56 0 0 0-.628-.458 4.508 4.508 0 0 0-.668-.389s0-.01-.01-.01a7.459 7.459 0 0 0-6.327-.249 7.095 7.095 0 0 0-.996.508.694.694 0 0 1-.05-.13 8.89 8.89 0 0 0-1.006-2.162c.14-.07.269-.14.399-.199 1.704-.817 3.776-1.126 5.669-.737.937.189 1.833.508 2.66.937a8.06 8.06 0 0 1 1.066.737c.658-.249 1.355-.339 2.003-.249.03 0 .07 0 .1.01.717.11 1.375.369 1.863.797.378.299.667.678.837 1.076z"/></svg>