<svg xmlns="http://www.w3.org/2000/svg" viewBox="0 0 36 36"><path fill="#FFCC4D" d="M35.734 19.929C35.375 16.66 35 15 34 13c0 0 3-9 1-12.7-.674-1.246-7.404 1.688-10 3.7 0 0-4-.998-7-.998S11 4 11 4C8.404 1.988 1.674-.946 1 .3-1 4 2 13 2 13 1 15 .625 16.66.266 19.929-.129 23.513.657 26.37 1 27c.39.716 2.367 3.025 5 5 4 3 10 4 12 4s8-1 12-4c2.633-1.975 4.61-4.284 5-5 .343-.63 1.129-3.487.734-7.071z"/><path fill="#E75A70" d="M18 19.5c3 0 3 .5 3 1.5s-1.5 3-3 3-3-2-3-3-.001-1.5 3-1.5z"/><path fill="#F18F26" d="M2 3c.447-1.342 5.64 1 6.64 2C8.64 5 4 8 3 11c0 0-2-5-1-8zm32 0c-.447-1.342-5.64 1-6.64 2 0 0 4.64 3 5.64 6 0 0 2-5 1-8z"/><path fill="#FFCC4D" d="M4.934 5.603C4.934 4.189 11 7 10 8s-2 1.603-3 2.603-2.066-4-2.066-5zm26.132 0C31.066 4.189 25 7 26 8s2 1.603 3 2.603 2.066-4 2.066-5z"/><path fill="#FEE7B8" d="M.701 25a.5.5 0 0 1-.31-.892c.162-.127 4.02-3.12 10.648-2.605.275.02.481.261.46.536-.021.275-.257.501-.537.46-6.233-.474-9.915 2.366-9.951 2.395a.51.51 0 0 1-.31.106zm8.868-4.663a.512.512 0 0 1-.149-.022c-4.79-1.497-8.737-.347-8.777-.336a.499.499 0 1 1-.288-.957c.173-.052 4.286-1.247 9.362.338a.5.5 0 0 1-.148.977zM35.299 25a.5.5 0 0 0 .31-.892c-.162-.127-4.02-3.12-10.648-2.605a.499.499 0 0 0-.46.536c.021.275.257.501.537.46 6.233-.474 9.915 2.366 9.951 2.395a.51.51 0 0 0 .31.106zm-8.868-4.663c.049 0 .1-.007.149-.022 4.79-1.497 8.737-.347 8.777-.336a.499.499 0 1 0 .288-.957c-.173-.052-4.286-1.247-9.362.338a.5.5 0 0 0 .148.977z"/><path fill="#292F33" d="M21.871 30c1.335-.412 2.629-1.156 2.629-2.5 0-2.619-4.912-2.968-5.473-2.999-.277-.035-.51.194-.526.468a.5.5 0 0 0 .464.53c.035.002 3.535.299 3.535 2.001s-3.5 1.999-3.535 2.001c-.01.001-.017.006-.027.008a.434.434 0 0 0-.308.157c-.006.007-.011.016-.017.022a.566.566 0 0 0-.072.124c-.011.027-.016.057-.021.086-.005.023-.017.046-.019.07-.001.011.004.021.004.032s-.005.021-.004.031c.002.025.013.046.019.07.006.029.011.059.022.087a.48.48 0 0 0 .051.088c.017.023.03.047.05.067a.457.457 0 0 0 .081.062c.024.017.045.033.071.046a.367.367 0 0 0 .101.027c.023.006.044.018.069.02.035.003 3.535.3 3.535 2.002 0 1.702-3.5 1.999-3.535 2.001A.5.5 0 0 0 19 35.5l.027-.001c.561-.031 5.473-.38 5.473-2.999 0-1.344-1.294-2.088-2.629-2.5zm6.545-12.277C28.355 17.632 26.901 15.5 24 15.5c-2.9 0-4.355 2.132-4.416 2.223a.499.499 0 0 0 .071.638.504.504 0 0 0 .643.042c.012-.01 1.262-.903 3.702-.903 2.426 0 3.674.881 3.702.901a.5.5 0 0 0 .714-.678zm-12 0C16.355 17.632 14.901 15.5 12 15.5c-2.9 0-4.355 2.132-4.416 2.223a.5.5 0 0 0 .713.68c.013-.01 1.262-.903 3.703-.903 2.426 0 3.674.881 3.702.901a.5.5 0 0 0 .714-.678zM31.001 16a.998.998 0 0 1-.801-.4c-2.641-3.521-6.061-3.599-6.206-3.6a1.002 1.002 0 0 1-.991-1.005A.997.997 0 0 1 24 10c.184 0 4.537.05 7.8 4.4a1 1 0 0 1-.799 1.6zM4.999 16a1 1 0 0 1-.799-1.6C7.462 10.05 11.816 10 12 10a1 1 0 0 1 .004 2c-.156.002-3.569.086-6.205 3.6a.995.995 0 0 1-.8.4z"/></svg>