<svg xmlns="http://www.w3.org/2000/svg" viewBox="0 0 36 36"><ellipse transform="rotate(-14.3 5.8 17)" fill="#D79E84" cx="5.801" cy="17" rx="3.678" ry="5.335"/><ellipse transform="rotate(-75.7 30.2 17)" fill="#D79E84" cx="30.199" cy="17" rx="5.335" ry="3.678"/><path fill="#BF6952" d="M18.985 35h-1.97c-6.5 0-12.803-4.982-12.803-11.956 0-3.985 1.477-5.978 1.477-5.978s-.492-1.993-.492-3.985C5.197 7.103 11.5 2.121 18 2.121c6.5 0 12.803 5.978 12.803 10.96 0 1.993-.492 3.985-.492 3.985s1.477 1.993 1.477 5.978C31.788 30.018 25.485 35 18.985 35z"/><path fill="#D79E84" d="M29.667 15.379a6.895 6.895 0 0 0-6.894-6.894A6.87 6.87 0 0 0 18 10.411a6.865 6.865 0 0 0-4.773-1.926 6.895 6.895 0 0 0-6.894 6.894 6.881 6.881 0 0 0 2.882 5.599 10.532 10.532 0 0 0-.761 3.946c0 5.565 4.274 9.015 9.545 9.015s9.545-3.45 9.545-9.015c0-1.401-.272-2.734-.761-3.946a6.878 6.878 0 0 0 2.884-5.599z"/><ellipse fill="#292F33" cx="13" cy="17" rx="2" ry="3"/><ellipse fill="#292F33" cx="23" cy="17" rx="2" ry="3"/><path fill="#642116" d="M18 31.5c2.715 0 5.027-1.38 5.895-3.309.359-.798-.25-1.691-1.157-1.691h-9.476c-.907 0-1.516.893-1.157 1.691.868 1.929 3.18 3.309 5.895 3.309z"/><ellipse fill="#642116" cx="16.5" cy="22" rx="1" ry="1.061"/><circle fill="#642116" cx="19.5" cy="22" r="1"/><path fill="#BF6952" d="M22.242.17s-5.303-1.061-7.424 2.121 4.242 1.061 4.242 1.061S20.121.17 22.242.17zM36 36l-14-4 3-6 11 2zM0 36l14-4-3-6-11 2z"/><path fill="#D79E84" d="M12.369 25.001s.118-1.26.094-2.719c-.031-1.906-2.582-2.852-3.375-1.062-.969 2.188-2.188 7.438-1.469 9.656s2.531 3.969 6.594 3.844 7.594-.906 8.688-1.594.845-2.378-.406-2.656c-1.125-.25-4.219.25-4.219.25s3.253-.694 4.156-1.281c1.25-.812.562-2.594-.656-2.625-1.202-.031-4.188.469-4.188.469s2.844-.75 3.75-1.531c.895-.771.562-2.469-1.031-2.531s-6.438.967-7.938 1.78z"/><path fill="#BF6952" d="M13.806 35.227c-3.52 0-5.76-1.411-6.662-4.196-.806-2.487.56-7.919 1.487-10.013.418-.946 1.3-1.411 2.297-1.205.995.201 2.013 1.111 2.035 2.462.012.744-.011 1.432-.038 1.937 2.056-.774 5.966-1.559 7.401-1.491.911.036 1.618.522 1.89 1.302a1.947 1.947 0 0 1-.799 2.295c.135-.004.261-.005.371-.003.803.021 1.498.589 1.731 1.414.235.834-.077 1.65-.815 2.13a2.17 2.17 0 0 1-.185.107l.083.017a1.882 1.882 0 0 1 1.462 1.546 1.978 1.978 0 0 1-.898 2.021c-1.131.712-4.648 1.539-8.938 1.671-.143.003-.284.006-.422.006zm-3.318-14.459c-.294 0-.703.111-.943.654-1.014 2.29-2.093 7.314-1.45 9.3.796 2.456 2.794 3.616 6.103 3.498 3.912-.12 7.424-.881 8.437-1.517a.976.976 0 0 0 .444-1.006.885.885 0 0 0-.693-.739c-.848-.188-3.196.121-4.031.255a.5.5 0 0 1-.184-.982c.88-.188 3.312-.771 3.988-1.211.523-.34.452-.827.397-1.021-.091-.322-.378-.675-.794-.686-1.174-.049-4.063.457-4.092.462a.5.5 0 0 1-.21-.977c.76-.201 2.88-.849 3.551-1.427a.944.944 0 0 0 .261-1.021c-.079-.225-.312-.605-.985-.632-1.452-.06-6.245.944-7.68 1.721a.502.502 0 0 1-.737-.486c.001-.012.115-1.251.092-2.664a1.56 1.56 0 0 0-1.234-1.498 1.257 1.257 0 0 0-.24-.023z"/><path fill="#D79E84" d="M23.631 25.001s-.118-1.26-.094-2.719c.031-1.906 2.582-2.852 3.375-1.062.969 2.188 2.188 7.438 1.469 9.656s-2.531 3.969-6.594 3.844-7.594-.906-8.688-1.594-.845-2.378.406-2.656c1.125-.25 4.219.25 4.219.25s-3.253-.694-4.156-1.281c-1.25-.812-.562-2.594.656-2.625 1.202-.031 4.188.469 4.188.469s-2.844-.75-3.75-1.531c-.895-.771-.562-2.469 1.031-2.531s6.438.967 7.938 1.78z"/><path fill="#BF6952" d="M22.194 35.227c-.139 0-.279-.003-.423-.007-4.29-.132-7.807-.959-8.938-1.671a1.978 1.978 0 0 1-.897-2.021 1.88 1.88 0 0 1 1.461-1.546l.083-.017a2.501 2.501 0 0 1-.184-.107c-.739-.479-1.051-1.296-.815-2.13.233-.825.929-1.394 1.731-1.414.111-.002.236-.001.371.003a1.951 1.951 0 0 1-.8-2.295c.272-.779.979-1.266 1.89-1.302 1.433-.049 5.346.718 7.401 1.491a29.057 29.057 0 0 1-.038-1.937c.022-1.35 1.04-2.261 2.034-2.462 1.004-.206 1.879.259 2.298 1.205.928 2.094 2.293 7.525 1.487 10.013-.901 2.785-3.141 4.196-6.661 4.197zm-7.824-4.329c-.304 0-.567.018-.755.06a.885.885 0 0 0-.693.739.975.975 0 0 0 .444 1.006c1.012.636 4.525 1.396 8.437 1.517 3.3.101 5.308-1.042 6.103-3.498.644-1.985-.437-7.01-1.45-9.3-.319-.72-.933-.681-1.185-.63a1.559 1.559 0 0 0-1.233 1.498c-.022 1.413.091 2.652.092 2.665a.498.498 0 0 1-.223.463.497.497 0 0 1-.514.022c-1.435-.776-6.187-1.786-7.68-1.721-.674.026-.907.407-.985.632a.945.945 0 0 0 .261 1.021c.671.579 2.791 1.227 3.551 1.427a.5.5 0 0 1-.211.977c-.03-.005-2.962-.493-4.092-.462-.416.011-.704.363-.795.686a.88.88 0 0 0 .398 1.021c.677.439 3.108 1.023 3.988 1.211a.5.5 0 0 1-.184.982c-.648-.106-2.213-.316-3.274-.316z"/><path fill="#9B3C07" d="M9.643 21.265c-.29-.199-.561-.403-.809-.613a2.384 2.384 0 0 0-.204.366c-.532 1.201-1.203 3.497-1.531 5.708l-2.148.45 2.998.879.155-1.268c.296-1.973.875-4.091 1.439-5.365.03-.065.068-.104.1-.157zm19.273 5.558c-.322-2.24-1.007-4.587-1.547-5.805a2.268 2.268 0 0 0-.216-.381c-.254.216-.516.424-.789.624.031.051.063.1.091.161.688 1.554 1.405 4.366 1.594 6.634l3.021-.88-2.154-.353z"/></svg>