<svg xmlns="http://www.w3.org/2000/svg" viewBox="0 0 36 36"><path fill="#FA743E" d="M27 22H9s-9 0-9 7c0 3.156 4 7 4 7h28s4-3.844 4-7c0-7-9-7-9-7z"/><path fill="#963B22" d="M21.906 4.262c-2.02-.654-6.772-.475-7.96 1.069-3.089.059-6.713 2.851-7.188 6.535-.47 3.645.578 5.338.951 8.079.422 3.106 2.168 4.099 3.564 4.515C13.281 27.114 15.415 27 19 27c7 0 10.334-4.684 10.629-12.639.178-4.811-2.645-8.456-7.723-10.099z"/><circle fill="#CC9B7A" cx="18" cy="28" r="3"/><path fill="#D4AB88" d="M25.89 15.686c-.677-.938-1.545-1.693-3.445-1.96.713.327 1.396 1.455 1.485 2.079.089.624.178 1.129-.386.505-2.261-2.499-4.723-1.515-7.163-3.041-1.704-1.066-2.223-2.246-2.223-2.246s-.208 1.574-2.792 3.178c-.749.465-1.643 1.5-2.139 3.03-.357 1.099-.246 2.079-.246 3.754 0 4.889 4.029 9 9 9s9-4.147 9-9c0-3.041-.318-4.23-1.091-5.299zM17 34l-5-1-2-1H7l-1 4h11c1 0 1-1 1-1 0-.553-1-1-1-1zm9-2-2 1-5 1s-1 .447-1 1c0 0 0 1 1 1h11l-1-4h-3z"/><path fill="#662113" d="M22 22a1 1 0 0 1-1-1v-1a1 1 0 1 1 2 0v1a1 1 0 0 1-1 1zm-8 0a1 1 0 0 1-1-1v-1a1 1 0 1 1 2 0v1a1 1 0 0 1-1 1z"/><path fill="#C1694F" d="M19 26.5h-2a.5.5 0 0 1 0-1h2a.5.5 0 0 1 0 1z"/><path d="M5.499 8a.994.994 0 0 1-.599-.2l-4-3a1 1 0 0 1 1.2-1.6l4 3A1 1 0 0 1 5.499 8zm3.002-3a1 1 0 0 1-.833-.445l-2-3A1 1 0 0 1 7.332.445l2 3A1.001 1.001 0 0 1 8.501 5zm22 3a1 1 0 0 1-.601-1.8l4-3a1 1 0 1 1 1.199 1.6l-4 3a.99.99 0 0 1-.598.2zm-3.002-3a1 1 0 0 1-.831-1.555l2-3a1 1 0 1 1 1.664 1.11l-2 3a1 1 0 0 1-.833.445z" fill="#5DADEC"/></svg>