<svg xmlns="http://www.w3.org/2000/svg" viewBox="0 0 36 36"><path fill="#7C533E" d="M9 5.938V17c0 4.971 4.029 9 9 9s9-4.029 9-9V6.25L9 5.938z"/><path fill="#3D2E24" d="M14 22h8s-1 2-4 2-4-2-4-2z"/><path d="M14 16a1 1 0 0 1-1-1v-1a1 1 0 0 1 2 0v1a1 1 0 0 1-1 1zm8 0a1 1 0 0 1-1-1v-1a1 1 0 0 1 2 0v1a1 1 0 0 1-1 1z"/><path fill="#3D2E24" d="M19 19.5h-2a.5.5 0 0 1 0-1h2a.5.5 0 0 1 0 1z"/><path fill="#7C533E" d="M10.847 13.715c0 1.58-.8 2.861-1.788 2.861s-1.788-1.281-1.788-2.861c0-1.58.801-2.861 1.788-2.861s1.788 1.281 1.788 2.861zm17.882 0c0 1.58-.8 2.861-1.788 2.861s-1.788-1.281-1.788-2.861c0-1.58.8-2.861 1.788-2.861s1.788 1.281 1.788 2.861z"/><path fill="#0B0200" d="M18 .823c-7.019 0-10.139 4.684-10.139 8.588 0 3.903 1.343 4.986 1.56 3.903.78-3.903 3.12-5.101 3.12-5.101 4.68 3.904 3.9.781 3.9.781 4.679 4.684 2.34 0 2.34 0 1.56 1.562 6.239 1.562 6.239 1.562s.78 1.198 1.559 2.759c.78 1.562 1.56 0 1.56-3.903 0-3.905-3.9-8.589-10.139-8.589z"/><path fill="#7C533E" d="M12.421 2.935a1.283 1.283 0 0 0-1.776.367L10 4.284V2a2 2 0 0 0-2-2H4a2 2 0 0 0-2 2v8s0 1 1 1h6l1-1V8.957l2.789-4.246a1.282 1.282 0 0 0-.368-1.776z"/><path fill="#583529" d="M4 0h1v5H4zm3 0h1v5H7z"/><path fill="#4289C1" d="M27 27H9l1-17H2v17s0 9 8 9h21v-5a4 4 0 0 0-4-4z"/><path fill="#2A6797" d="M26 32h1v4h-1z"/><path fill="#7C533E" d="M15 24v4a3 3 0 1 0 6 0v-4h-6z"/></svg>