<svg xmlns="http://www.w3.org/2000/svg" viewBox="0 0 36 36"><path fill="#77B255" d="M0 22v6a3 3 0 0 0 3 3h30a3 3 0 0 0 3-3v-6H0z"/><path fill="#6D6E71" d="M15 12a1 1 0 0 1-.768-1.64c5.186-6.224 12.325-7.307 12.626-7.35A.969.969 0 0 1 27 3h3a1 1 0 1 1 0 2h-2.919c-.69.119-6.878 1.319-11.312 6.641A.998.998 0 0 1 15 12z"/><path fill="#A7A9AC" d="M11 9h14v4H11z"/><path fill="#E6E7E8" d="M36 22v-8a3 3 0 0 0-3-3H3a3 3 0 0 0-3 3v8h36z"/><path fill="#5C913B" d="M0 22h36v2H0zm7 3a5.998 5.998 0 0 0-5.95 5.263A2.978 2.978 0 0 0 3 31h10a6 6 0 0 0-6-6zm27.95 5.263A5.998 5.998 0 0 0 23 31h10c.749 0 1.425-.284 1.95-.737z"/><circle cx="7" cy="31" r="4"/><circle fill="#99AAB5" cx="7" cy="31" r="2"/><circle cx="29" cy="31" r="4"/><circle fill="#99AAB5" cx="29" cy="31" r="2"/><path fill="#55ACEE" d="M27 19a1 1 0 0 1-1 1h-3a1 1 0 0 1-1-1v-3a1 1 0 0 1 1-1h3a1 1 0 0 1 1 1v3zm7 0a1 1 0 0 1-1 1h-3a1 1 0 0 1-1-1v-3a1 1 0 0 1 1-1h3a1 1 0 0 1 1 1v3zm-21 0a1 1 0 0 1-1 1H9a1 1 0 0 1-1-1v-3a1 1 0 0 1 1-1h3a1 1 0 0 1 1 1v3zm7 0a1 1 0 0 1-1 1h-3a1 1 0 0 1-1-1v-3a1 1 0 0 1 1-1h3a1 1 0 0 1 1 1v3zM5 15H0v7h5a1 1 0 0 0 1-1v-5a1 1 0 0 0-1-1z"/><path fill="#FFE8B6" d="M0 25h1v2H0z"/><path fill="#EA596E" d="M35 25h1v2h-1z"/><path fill="#F4ABBA" d="M35 22h1v2h-1z"/></svg>