<svg xmlns="http://www.w3.org/2000/svg" viewBox="0 0 36 36"><path fill="#292F33" d="M34 33a2 2 0 0 1-2 2h-3a2 2 0 0 1-2-2v-8a2 2 0 0 1 2-2h3a2 2 0 0 1 2 2v8zM9 33a2 2 0 0 1-2 2H4a2 2 0 0 1-2-2v-8a2 2 0 0 1 2-2h3a2 2 0 0 1 2 2v8z"/><path fill="#3B88C3" d="M9 5c4-1 14-1 18 0 3.881.97 5 11 5 11s2 0 2 4v8s-.119 3.03-4 4c-4 1-7 1-12 1s-8 0-12-1c-3.88-.97-4-4-4-4v-8s0-4 2-4C4 16 5.12 5.97 9 5z"/><path fill="#BBDDF5" d="M18 15c3.905 0 8.623.2 12 .561L29 10c-1-3-7-3-11-3S8 7 7 10l-1 5.561C9.377 15.2 14.095 15 18 15z"/><path fill="#3B88C3" d="M5 15.5A1.5 1.5 0 0 1 3.5 17h-2a1.5 1.5 0 1 1 0-3h2A1.5 1.5 0 0 1 5 15.5zm26 0a1.5 1.5 0 0 0 1.5 1.5h2a1.5 1.5 0 1 0 0-3h-2a1.5 1.5 0 0 0-1.5 1.5z"/><path fill="#FFCC4D" d="M11 23a3 3 0 0 1-3 3H7a3 3 0 1 1 0-6h1a3 3 0 0 1 3 3zm21 0a3 3 0 0 1-3 3h-1a3 3 0 0 1 0-6h1a3 3 0 0 1 3 3z"/><path fill="#269" d="M12.001 22a1 1 0 0 1-.833-.445c-1.742-2.614-6.319-3.565-6.365-3.574a1 1 0 0 1 .393-1.961c.221.044 5.431 1.119 7.636 4.426A1.001 1.001 0 0 1 12.001 22zm11.998 0a1 1 0 0 1-.831-1.555c2.204-3.307 7.415-4.382 7.636-4.426a1 1 0 0 1 .394 1.961c-.046.009-4.623.96-6.365 3.574a1 1 0 0 1-.834.446z"/><path fill="#55ACEE" d="M18 29c-5.663 0-12.639-.225-13.707-1.293a.999.999 0 0 1 1.267-1.536c.232.1 2.285.829 12.44.829s12.208-.729 12.44-.829a.999.999 0 0 1 1.267 1.536C30.639 28.775 23.663 29 18 29z"/><path fill="#269" d="M25 29.5c0 1.5-3.134 2.5-7 2.5s-7-1-7-2.5c0-.828 3.134-.5 7-.5s7-.328 7 .5z"/></svg>