<svg xmlns="http://www.w3.org/2000/svg" viewBox="0 0 36 36"><path fill="#66757F" d="M34 33a2 2 0 0 1-2 2h-3a2 2 0 0 1-2-2v-8a2 2 0 0 1 2-2h3a2 2 0 0 1 2 2v8zM9 33a2 2 0 0 1-2 2H4a2 2 0 0 1-2-2v-8a2 2 0 0 1 2-2h3a2 2 0 0 1 2 2v8zM5 15.5A1.5 1.5 0 0 1 3.5 17h-2a1.5 1.5 0 1 1 0-3h2A1.5 1.5 0 0 1 5 15.5zm26 0a1.5 1.5 0 0 0 1.5 1.5h2a1.5 1.5 0 1 0 0-3h-2a1.5 1.5 0 0 0-1.5 1.5z"/><path fill="#CCD6DD" d="M9 5c4-1 14-1 18 0 3.881.97 5 11 5 11s2 0 2 4v8s0 3-3 4c-3.911 1.304-8 1-13 1s-9.088.304-13-1c-3-1-3-4-3-4v-8s0-4 2-4C4 16 5.12 5.97 9 5z"/><path fill="#292F33" d="M18 21c-5.718 0-11.136-.101-16-.279V28s0 3 3 4c3.912 1.304 8 1 13 1s9.089.304 13-1c3-1 3-4 3-4v-7.279c-4.864.178-10.282.279-16 .279z"/><path fill="#55ACEE" d="M18 15c3.905 0 8.623.2 12 .561L29 10c-1-3-7-3-11-3S8 7 7 10l-1 5.561C9.377 15.2 14.095 15 18 15z"/><path fill="#CCD6DD" d="M12 24a2 2 0 0 1-2 2H6a2 2 0 0 1 0-4h4a2 2 0 0 1 2 2zm12 0a2 2 0 0 0 2 2h4a2 2 0 0 0 0-4h-4a2 2 0 0 0-2 2z"/><path fill="#66757F" d="M29 28.5a1.5 1.5 0 0 1-1.5 1.5h-19a1.5 1.5 0 1 1 0-3h19a1.5 1.5 0 0 1 1.5 1.5z"/><path fill="#99AAB5" d="M11.999 21c-.15 0-.303-.034-.446-.105l-6-3a1 1 0 0 1 .895-1.789l6 3A1 1 0 0 1 11.999 21zm12.002 0a1 1 0 0 1-.449-1.895l6-3a1 1 0 0 1 .895 1.789l-6 3a.99.99 0 0 1-.446.106z"/><path fill="#DD2E44" d="M18 3.5A1.5 1.5 0 0 1 16.5 5h-7a1.5 1.5 0 1 1 0-3h7A1.5 1.5 0 0 1 18 3.5z"/><path fill="#55ACEE" d="M28 3.5A1.5 1.5 0 0 1 26.5 5h-7a1.5 1.5 0 1 1 0-3h7A1.5 1.5 0 0 1 28 3.5z"/><path fill="#F5F8FA" d="M16 2h4v3h-4z"/></svg>