<svg xmlns="http://www.w3.org/2000/svg" viewBox="0 0 36 36"><path fill="#DD2E44" d="M34.16 28.812 31.244 2.678A3.011 3.011 0 0 0 28.251 0H7.664a3.012 3.012 0 0 0-2.997 2.704l-2.67 26.108H34.16z"/><circle fill="#BE1931" cx="18.069" cy="14" r="9.366"/><path fill="#99AAB5" d="M35.521 29.18H.479L0 34c0 2 2 2 2 2h32s2 0 2-2l-.479-4.82z"/><path fill="#CCD6DD" d="m35.594 29.912-.073-.732C35.38 28.442 34.751 28 34 28H2c-.751 0-1.38.442-1.521 1.18l-.073.732h35.188z"/><path fill="#EC9DAD" d="m29.647 13.63-7.668-1.248 4.539-6.308a.375.375 0 0 0-.523-.523l-6.309 4.538-1.247-7.667a.375.375 0 0 0-.74 0l-1.248 7.667-6.308-4.538a.375.375 0 0 0-.523.523l4.538 6.308L6.49 13.63a.374.374 0 0 0 0 .74l7.668 1.248-4.538 6.308a.375.375 0 0 0 .523.523l6.308-4.538 1.248 7.667a.374.374 0 0 0 .74 0l1.247-7.667 6.308 4.538a.375.375 0 0 0 .523-.523l-4.538-6.308 7.668-1.248a.374.374 0 0 0 0-.74z"/></svg>