<svg xmlns="http://www.w3.org/2000/svg" viewBox="0 0 36 36"><path fill="#58595B" d="M19 12V5h-2v7h-5v5h12v-5z"/><path fill="#FFD983" d="M34 28V18a4 4 0 0 0-4-4H6a4 4 0 0 0-4 4v10h32z"/><path fill="#269" d="M2 22v6a8 8 0 0 0 8 8h16a8 8 0 0 0 8-8v-6H2z"/><path fill="#88C9F9" d="M2 18h6v9H2zm8 0h7v9h-7zm9 0h7v9h-7zm9 0h6v9h-6z"/><path fill="#6D6E71" d="M33.213 10.977 3.27 2.954a1.001 1.001 0 0 1 .518-1.933L33.73 9.045a1 1 0 1 1-.517 1.932z"/><path fill="#A7A9AC" d="m23.348 4.361-1.933-.518.259-.965-5.795-1.553-.259.966-1.932-.518a2 2 0 0 0-1.036 3.864l9.66 2.588a2 2 0 0 0 1.036-3.864z"/><path fill="#808285" d="M13.877 4.931a2.001 2.001 0 0 1-3.864-1.035 2.001 2.001 0 0 1 3.864 1.035zm11.592 3.105a2 2 0 1 1-3.863-1.035 2 2 0 0 1 3.863 1.035z"/><path fill="#55ACEE" d="M2 18h6v2H2zm8 0h7v2h-7zm9 0h7v2h-7zm9 0h6v2h-6z"/></svg>