<svg xmlns="http://www.w3.org/2000/svg" viewBox="0 0 36 36"><path fill="#58595B" d="M19 12V5h-2v7h-3v3h8v-3z"/><path fill="#6D6E71" d="M33.213 10.977 3.27 2.954a1.001 1.001 0 0 1 .518-1.933L33.73 9.045a1 1 0 1 1-.517 1.932z"/><path fill="#A7A9AC" d="m23.348 4.361-1.933-.518.259-.965-5.795-1.553-.259.966-1.932-.518a2 2 0 0 0-1.036 3.864l9.66 2.588a2 2 0 0 0 1.036-3.864z"/><path fill="#808285" d="M13.877 4.931a2.001 2.001 0 0 1-3.864-1.035 2.001 2.001 0 0 1 3.864 1.035zm11.592 3.105a2 2 0 1 1-3.863-1.035 2 2 0 0 1 3.863 1.035z"/><path fill="#DD2E44" d="M6 32a4 4 0 0 0 4 4h16a4 4 0 0 0 4-4v-5H6v5zm20-18H10c-1.477 0-2.752.809-3.445 2h22.89c-.693-1.191-1.968-2-3.445-2z"/><path fill="#88C9F9" d="M6 18h24v9H6z"/><path fill="#55ACEE" d="M6.555 16A3.955 3.955 0 0 0 6 18h24c0-.732-.211-1.41-.555-2H6.555z"/><path fill="#231F20" d="M12 16h2v11h-2zm9 0h2v11h-2z"/></svg>