<svg xmlns="http://www.w3.org/2000/svg" viewBox="0 0 36 36"><path fill="#66757F" d="M31.543 17.53a2 2 0 0 0-.01-2.817L17.977 1.156a2 2 0 0 0-2.829 0l-3 3a2 2 0 0 0 0 2.829l13.556 13.556a2 2 0 0 0 2.829 0l.182-.182c1.937 1.949 3.223 3.834 3.223 6.641v6.707a2 2 0 0 0 4 0V27c0-4.43-2.21-7.273-4.395-9.47z"/><path fill="#99AAB5" d="M32.104 20.971c-.781.78-2.048.78-2.829 0L11.718 3.414A2 2 0 0 1 14.547.585l17.557 17.556c.78.782.78 2.049 0 2.83z"/><path fill="#55ACEE" d="M17.414 15.586a.999.999 0 0 1 0 1.414L1.708 32.707a1 1 0 1 1-1.415-1.414L16 15.586a.999.999 0 0 1 1.414 0zm-3-3a.999.999 0 0 1 0 1.414L1.708 26.707a1 1 0 1 1-1.415-1.414L13 12.586a.999.999 0 0 1 1.414 0zm-3-3a.999.999 0 0 1 0 1.414L2 20.414A1 1 0 1 1 .585 19L10 9.586a.999.999 0 0 1 1.414 0zm9 9a.999.999 0 0 1 0 1.414L7.708 32.707a1 1 0 1 1-1.415-1.414L19 18.586a.999.999 0 0 1 1.414 0zm3 3a.999.999 0 0 1 0 1.414L14 32.414A1 1 0 1 1 12.585 31L22 21.586a.999.999 0 0 1 1.414 0z"/></svg>