<svg xmlns="http://www.w3.org/2000/svg" viewBox="0 0 36 36"><path fill="#C1694F" d="M1 28h34v5H1z"/><path fill="#C1694F" d="M36 35a1 1 0 1 1-2 0V21a1 1 0 1 1 2 0v14zM0 35a1 1 0 1 0 2 0V13a1 1 0 1 0-2 0v22z"/><path fill="#269" d="M32 23H4a2 2 0 0 0-2 2v4h32v-4a2 2 0 0 0-2-2z"/><path fill="#55ACEE" d="M32 23H4a2 2 0 0 0-2 2v4h32v-4a2 2 0 0 0-2-2z"/><path fill="#5C913B" d="M2.126 19.938c-.261 1.073 1.485 2.419 3.9 3.006 2.415.587 4.584.192 4.846-.881.261-1.073-1.485-2.419-3.9-3.007-2.415-.587-4.585-.192-4.846.882z"/></svg>