<svg xmlns="http://www.w3.org/2000/svg" viewBox="0 0 36 36"><path fill="#E1E8ED" d="M36 13.062V32s0 4-4 4H4c-4 0-4-4-4-4v-4.938s17-10 36-14z"/><path fill="#9D0522" d="M26.004 15.523c-1.341.693-17.35 9.168-19.132 10.044-2.822 1.388-5.22.05-6.416-1.769-.617-.938-.406-1.219 0-1.312s1.424-.277 1.688.25c.438.875 2.531 2.031 3.625 1.531s17.938-9.531 18.562-9.812.906-.281 1.375 0 1.315.542.298 1.068z"/><path fill="#E75A70" d="M11.143 29.264a.496.496 0 0 1-.238-.061l-9.301-5.06a.5.5 0 0 1 .477-.879l9.301 5.06a.5.5 0 0 1-.239.94z"/><path fill="#9D0522" d="M35.452 20.607c-1.341.693-17.35 9.168-19.132 10.044-2.822 1.387-5.22.05-6.416-1.769-.617-.938-.406-1.219 0-1.312s1.424-.277 1.688.25c.438.875 2.531 2.031 3.625 1.531s17.938-9.531 18.563-9.812.906-.281 1.375 0 1.314.542.297 1.068z"/><path fill="#9D0522" d="M19.167 28.271a.5.5 0 0 1-.469-.674l2.479-6.666a.502.502 0 0 1 .846-.154l3.334 3.833a.5.5 0 1 1-.754.656l-2.782-3.198-2.185 5.877a.501.501 0 0 1-.469.326zm-9.289-4.909a.5.5 0 0 1-.468-.674l2.479-6.667a.498.498 0 0 1 .846-.153l3.333 3.833a.5.5 0 0 1-.755.656l-2.781-3.198-2.186 5.876a.498.498 0 0 1-.468.327zm18.605 0a.5.5 0 0 1-.469-.674l2.479-6.667a.498.498 0 0 1 .846-.153l3.333 3.833a.5.5 0 1 1-.754.656l-2.781-3.198-2.186 5.876a.496.496 0 0 1-.468.327z"/><path fill="#C1694F" d="M23.921 10.779c1.076-.558 1.113-.628 2.249-.024 1.136.604 6.569 3.484 7.21 3.825.814.434 1.112.591-.449 1.421-1.695.903-12.305 6.512-12.931 6.824-.765.381-1.311.327-2.206-.112-.718-.352-6.549-3.463-7.276-3.875-.82-.465-.482-.706.769-1.37 1.251-.666 12.634-6.689 12.634-6.689z"/><path fill="#C1694F" d="M10.085 17.075h1.416v1.329h-1.416zm22.838-3.308h1.125v1.422h-1.125z"/><path fill="#D99E82" d="M23.921 9.435c1.076-.558 1.113-.628 2.249-.024 1.136.604 6.569 3.484 7.21 3.825.814.434 1.112.591-.449 1.421-1.695.902-12.305 6.511-12.931 6.823-.765.381-1.311.327-2.206-.112-.718-.352-6.549-3.463-7.276-3.875-.82-.465-.482-.706.769-1.37 1.251-.665 12.634-6.688 12.634-6.688z"/><path fill="#BF6952" d="M12.532 17.375a.5.5 0 0 1-.235-.941L24.609 9.89a.499.499 0 1 1 .469.883l-12.312 6.544a.506.506 0 0 1-.234.058zm6.714 3.45a.5.5 0 0 1-.234-.942l12.312-6.544a.5.5 0 1 1 .469.883L19.48 20.767a.489.489 0 0 1-.234.058zm-2.171-1.133a.5.5 0 0 1-.235-.942l12.313-6.544a.5.5 0 1 1 .469.883L17.31 19.634a.501.501 0 0 1-.235.058zM14.84 18.56a.5.5 0 0 1-.235-.941l12.313-6.544a.5.5 0 1 1 .469.883l-12.312 6.544a.51.51 0 0 1-.235.058z"/></svg>