<svg xmlns="http://www.w3.org/2000/svg" viewBox="0 0 36 36"><circle fill="#292F33" cx="4.5" cy="31.5" r="4.5"/><circle fill="#DD2E44" cx="4.5" cy="31.5" r="3"/><circle fill="#292F33" cx="31.5" cy="31.5" r="4.5"/><circle fill="#DD2E44" cx="31.5" cy="31.5" r="3"/><path fill="#55ACEE" d="M31.5 33h-20c-.825 0-1.5-.675-1.5-1.5s.675-1.5 1.5-1.5h20c.825 0 1.5.675 1.5 1.5s-.675 1.5-1.5 1.5z"/><path fill="#55ACEE" d="M26.012 31.746c-.003-.082-.012-.163-.012-.246a5.5 5.5 0 0 1 5.5-5.5c1.21 0 2.326.396 3.234 1.058l.89-1.205a6.96 6.96 0 0 0-4.125-1.353 7 7 0 0 0-7 7c0 .102.011.201.015.302l1.498-.056zM5.629 26.117A5.5 5.5 0 0 1 10 31.495l3.5.003c-.001-4.34-3.074-7.962-7.163-8.81-.232 1.13-.476 2.31-.708 3.429z"/><path fill="#99AAB5" d="M4.395 31.998a.501.501 0 0 1-.385-.593l6.002-28.238a.501.501 0 0 1 .593-.385.501.501 0 0 1 .385.593L4.988 31.613a.501.501 0 0 1-.593.385z"/><path fill="#55ACEE" d="m6.123 26.261-.978-.208a1.002 1.002 0 0 1-.77-1.186l1.247-5.869a1.002 1.002 0 0 1 1.186-.77l.978.208c.538.114.885.648.77 1.186L7.31 25.49a1.005 1.005 0 0 1-1.187.771z"/><path fill="#DD2E44" d="m9.3 4.324-1.957-.416a1.504 1.504 0 0 1-1.155-1.779A1.505 1.505 0 0 1 7.967.973l1.956.416a1.504 1.504 0 0 1 1.155 1.779A1.504 1.504 0 0 1 9.3 4.324z"/><path fill="#55ACEE" d="M10.84 1.675A1.503 1.503 0 0 0 9.061 2.83L7.71 9.188a1.003 1.003 0 0 0 .77 1.186l.978.208a1.003 1.003 0 0 0 1.186-.77l1.351-6.358a1.504 1.504 0 0 0-1.155-1.779z"/><path fill="#DD2E44" d="m14.105 5.345-2.934-.624a1.504 1.504 0 0 1-1.155-1.779 1.504 1.504 0 0 1 1.779-1.155l2.934.624a1.504 1.504 0 0 1 1.155 1.779 1.503 1.503 0 0 1-1.779 1.155z"/><path fill="#EA596E" d="M15.903 4.194a1.5 1.5 0 1 1-2.933-.623 1.5 1.5 0 0 1 2.933.623z"/><circle fill="#55ACEE" cx="35.19" cy="26.46" r=".74"/></svg>