<svg xmlns="http://www.w3.org/2000/svg" viewBox="0 0 36 36"><path fill="#FFCC4D" d="M35.625 14.338 23.135.753A17.984 17.984 0 0 0 18 0c-2.369 0-4.625.47-6.697 1.301l-9.955 9.875A17.93 17.93 0 0 0 0 18c0 9.941 8.06 18 18 18 9.941 0 18-8.059 18-18 0-1.255-.13-2.48-.375-3.662z"/><path fill="#664500" d="M13 28s1-4 5-4 5 4 5 4-1-1-5-1-5 1-5 1zm15.957-10.203c-.06-.135-1.499-3.297-4.457-3.297-2.957 0-4.397 3.162-4.457 3.297a.5.5 0 0 0 .755.606c.012-.01 1.262-.903 3.702-.903 2.426 0 3.674.881 3.702.901a.498.498 0 0 0 .755-.604zm-13 0c-.06-.135-1.499-3.297-4.457-3.297-2.957 0-4.397 3.162-4.457 3.297a.5.5 0 0 0 .754.606c.013-.01 1.262-.903 3.703-.903 2.426 0 3.674.881 3.702.901a.498.498 0 0 0 .755-.604z"/><path fill="#E6E7E8" d="M34.979 12.068c-.136-.389-.271-.779-.432-1.155a18.031 18.031 0 0 0-1.259-2.382 18.031 18.031 0 0 0-2.125-2.781 17.789 17.789 0 0 0-.911-.911l-.123-.112a18.082 18.082 0 0 0-2.053-1.645c-.439-.297-.895-.57-1.361-.828A17.848 17.848 0 0 0 23.136.753l-7.421 1.351-4.41-.803c-1.08.434-2.107.968-3.072 1.593-.373.242-.731.501-1.083.769l-.12.089a18.066 18.066 0 0 0-2.721 2.58c-.039.045-.082.086-.12.132-.301.36-.58.738-.852 1.121A18.018 18.018 0 0 0 1.893 10c-.192.386-.381.774-.545 1.176L9.8 9.638l25.825 4.7a17.784 17.784 0 0 0-.646-2.27z"/><path fill="#BCBEC0" d="M34.546 10.912 18.671 8.023l5.914-1.076 2.956-.538 3.621-.659a17.789 17.789 0 0 0-.911-.911l-5.668 1.032-2.956.538-5.914 1.076-2.957.538-5.913 1.076-4.95.901c-.192.386-.381.774-.545 1.176L9.8 9.638l5.914-1.076 19.265 3.506c-.136-.39-.271-.779-.433-1.156z"/><path fill="#D1D3D4" d="m27.541 6.409 4.912.894c.295.397.573.806.835 1.228l-8.702-1.584 2.955-.538zM8.232 2.895c-.372.241-.73.5-1.082.768L9.8 3.18l-1.568-.285zm18.483-.641-5.087.926-5.914 1.076-2.956.538-5.914 1.077-2.535.461c-.039.045-.082.086-.12.132-.301.36-.58.738-.852 1.121l3.505-.638L9.8 6.409l5.914-1.076 2.956-.538 5.914-1.076 3.492-.635c-.44-.298-.896-.571-1.361-.83z"/></svg>