<svg xmlns="http://www.w3.org/2000/svg" viewBox="0 0 36 36"><circle fill="#FFCC4D" cx="18" cy="18" r="18"/><ellipse fill="#664500" cx="12.5" cy="16.5" rx="2.5" ry="3.5"/><ellipse fill="#664500" cx="23.5" cy="16.5" rx="2.5" ry="3.5"/><path fill="#664500" d="M29 12c-5.554 0-7.802-4.367-7.895-4.553a1 1 0 0 1 1.787-.899C22.967 6.694 24.713 10 29 10a1 1 0 1 1 0 2zm-22-.006a1 1 0 0 1 0-2c5.083 0 5.996-3.12 6.033-3.253.145-.528.69-.848 1.219-.709.53.139.851.673.718 1.205-.049.194-1.266 4.757-7.97 4.757z"/><path fill="#FFAC33" d="m35.968 17.068-4.005.813-16.187 10.508 7.118.963 11.685-7.211c.703-.431.994-.835 1.198-1.747s.191-3.326.191-3.326z"/><path fill="#664500" d="M23.485 29.379C23.474 29.335 22.34 26.5 18 26.5s-5.474 2.835-5.485 2.879a.496.496 0 0 0 .232.544.51.51 0 0 0 .596-.06C13.352 29.855 14.356 29 18 29c3.59 0 4.617.83 4.656.863a.5.5 0 0 0 .829-.484z"/><path fill="#CCD6DD" d="M35.474 15.729a2.502 2.502 0 0 0-3.501-.5L14.767 28.137c.646-.242 1.51-.444 2.615-.522.256-.018 2.66-.627 2.66-.627l1.293 1.036s.911.367 1.197.539l12.444-9.335a2.5 2.5 0 0 0 .498-3.499z"/><path fill="#DA2F47" d="M28.686 20.87c-.448-.596-.787-1.145-1.383-.698l-9.922 7.443c.256-.018.5-.042.783-.044 1.36-.009 2.4.195 3.17.452l7.588-5.692c.596-.447.211-.864-.236-1.461z"/><path fill="#67757F" d="m18.599 25.228 1.234 1.598.741-.595-1.197-1.587zm2.223-1.661 1.235 1.598.741-.595-1.197-1.587zm2.184-1.619 1.234 1.598.741-.595-1.197-1.587zm2.181-1.66 1.235 1.597.741-.594-1.197-1.587zm2.238-1.641 1.235 1.598.74-.595-1.196-1.587zm2.14-1.618 1.235 1.598.74-.595-1.196-1.587z"/><path fill="#452E04" d="m22.531 28.563.805.522s-.197-.362-.526-.726l-.279.204z"/></svg>