<svg xmlns="http://www.w3.org/2000/svg" viewBox="0 0 36 36"><circle fill="#FFCC4D" cx="18" cy="18" r="18"/><path fill="#664500" d="M22.5 25H18c-5.6 0-7-1-7-1s1.267 3.594 6.179 3.963c.104.023.211.037.321.037H22c.825 0 2-1.175 2-2s-.675-1-1.5-1zm-6.687-7.112a.501.501 0 0 1-.61.014C15.19 17.892 13.942 17 11.5 17c-2.441 0-3.69.893-3.7.9a.5.5 0 0 1-.757-.603C7.103 17.162 8.543 14 11.5 14c2.958 0 4.397 3.162 4.457 3.297a.499.499 0 0 1-.144.591zm12.999 0a.5.5 0 0 1-.61.014C28.19 17.892 26.941 17 24.5 17c-2.44 0-3.69.893-3.7.9a.5.5 0 0 1-.757-.603c.059-.135 1.5-3.297 4.457-3.297 2.958 0 4.398 3.162 4.457 3.297a.498.498 0 0 1-.145.591zM13.114 6.002A1 1 0 0 1 13.041 8c-.156-.004-3.57-.052-6.339 3.357a1 1 0 0 1-1.552-1.262c3.428-4.219 7.78-4.1 7.964-4.093zm9.403 1.672c.181-.033 4.473-.763 8.461 2.933a.997.997 0 0 1 .053 1.413.998.998 0 0 1-1.413.054c-3.228-2.992-6.608-2.456-6.75-2.432a.999.999 0 0 1-.351-1.968z"/><path fill="#88C9F9" d="M23 26h-3c-.55 0-1 .45-1 1v4c0 .55.45 1 1 1s1-.45 1-1v3.5c0 .825.675 1.5 1.5 1.5s1.5-.675 1.5-1.5V27c0-.55-.45-1-1-1z"/></svg>