<svg xmlns="http://www.w3.org/2000/svg" viewBox="0 0 36 36"><path fill="#FFCB4C" d="M35 18.619a6.869 6.869 0 0 0-6.869-6.869c-.979 0-2.752.578-2.752.578l-13.126 1.384s-2.717-1.581-4.383-1.581a6.869 6.869 0 0 0-6.835 7.571C1.406 28.763 8.849 36 18 36c9.389 0 17-7.611 17-17 0-.052-.009-.101-.012-.153.003-.076.012-.151.012-.228z"/><path fill="#F19020" d="M30.126 13.751c-.941-.244-1.009.386-2.202.246-1.168-.137.429-.739-.195-1.092-.21-.119-.511-.144-.882-.098-1.052.129-16.954.544-17.547.83-.527.254-.839.548-1.318.101-.603-.562-1.466-.238-1.716-.051-.322.242-.389.722.234 1.277.621.42 1.673.859 3.465 1.159.197.033.365.046.522.052 1.227.041 1.397-1.67 3.13-1.716 1.136-.03 11.153 1.07 11.978.958a2.34 2.34 0 0 1 .329-.024c1.563 0 1.926 1.45 3.589.316.705-.573 1.811-1.648.613-1.958z"/><path fill="#F36C24" d="M5.938 9.115c1.523 1.527 2.604 3.145 3.362 4.523a20.465 20.465 0 0 1 1.187 2.538c1.227.041 1.397-.67 3.13-.716 1.136-.03 1.783.769 2.623 1.229 1.502.822 2.569-.73 3.719-.73.85 0 2.219 1.207 3.176.764 1.387-.643 1.635-1.191 2.46-1.304.322-.791.741-1.696 1.252-2.609.74-1.324 1.678-2.665 2.841-3.693H5.938z"/><path fill="#CE5C1F" d="M29.306 9.435c1.281-1.263-23.039.016-22.341.788.988 1.094 2.2 3.153 2.2 3.153s4.757 2.405 8.351-.626c2.5 1.5 6 .969 7.562-1.609 0 0 1.217.453 2.451.531 0 0 .953-1.425 1.777-2.237z"/><ellipse fill="#65471B" cx="18" cy="28.638" rx="4.332" ry="4.95"/><path fill="#65471B" d="M14 20.606c0 1.473-.896 2.667-2 2.667-1.105 0-2-1.194-2-2.667 0-1.473.895-2.667 2-2.667 1.104 0 2 1.194 2 2.667zm12-.001c0 1.473-.895 2.667-2 2.667s-2-1.194-2-2.667c0-1.472.896-2.667 2-2.667 1.105.001 2 1.195 2 2.667z"/><path fill="#CCD6DD" d="M31.125 3.725c-.24 0-.467.045-.686.109a3.728 3.728 0 0 0-2.898-1.396c-.087 0-.169.02-.255.026a3.983 3.983 0 0 0-2.987-1.359c-1.505 0-2.8.839-3.486 2.066a2.236 2.236 0 0 0-3.825-.492 3.738 3.738 0 0 0-3.53-2.532c-1.323 0-2.48.689-3.148 1.723-.184-.029-.368-.058-.56-.058-1.432 0-2.661.812-3.293 1.992a3.377 3.377 0 0 0-.624-.063 3.375 3.375 0 1 0 0 6.75 3.31 3.31 0 0 0 1.614-.425c.376.282.838.456 1.345.456.145 0 .285-.016.422-.043a4.825 4.825 0 0 0 4.109 2.303 4.852 4.852 0 0 0 4.073-2.217 3.901 3.901 0 0 0 3.029 1.457 3.914 3.914 0 0 0 3.776-2.911c.034.001.065.01.099.01.283 0 .559-.031.826-.087a3.718 3.718 0 0 0 2.417.904c1.174 0 2.21-.551 2.897-1.396.219.064.446.109.686.109a2.463 2.463 0 1 0-.001-4.926z"/><circle fill="#E1E8ED" cx="27.795" cy="5.767" r="2.121"/><path fill="#E1E8ED" d="M19.876 5.903a2.16 2.16 0 0 0-2.16-2.161c-.368 0-.71.101-1.013.263a1.665 1.665 0 0 0-2.905-.306 3.73 3.73 0 0 0-2.548-1.013 3.741 3.741 0 0 0-3.625 2.838 2.012 2.012 0 1 0-1.429 3.429c.703 0 1.319-.361 1.679-.907a3.74 3.74 0 0 0 2.749 2.079 2.24 2.24 0 0 0 4.131-.635c.324.18.691.292 1.087.292 1.07 0 1.962-.749 2.19-1.75a2.155 2.155 0 0 0 1.844-2.129z"/></svg>