<svg xmlns="http://www.w3.org/2000/svg" viewBox="0 0 36 36"><path fill="#77B255" d="m26 26.163.017.836H6V36h24v-9.835z"/><path fill="#D5AB88" d="M14 26.999s.85 2.063 3.55 2.063S21 26.999 21 26.999l-.024-3.9-6.976-.1v4z"/><path fill="#CC9B7A" d="M14.066 25.029c1.058 1.207 2.049 1.51 3.477 1.51 1.426 0 2.426-.304 3.485-1.51v-3.515h-6.961v3.515z"/><path fill="#D5AB88" d="M11.842 16.187c0 1.271-.639 2.304-1.426 2.304-.788 0-1.426-1.033-1.426-2.304 0-1.272.639-2.305 1.426-2.305.788 0 1.426 1.033 1.426 2.305m14.26 0c0 1.271-.638 2.304-1.424 2.304-.789 0-1.428-1.033-1.428-2.304 0-1.272.639-2.305 1.428-2.305.786 0 1.424 1.033 1.424 2.305"/><path fill="#D5AB88" d="M10.13 17.087c0-4.911 3.32-8.893 7.416-8.893 4.095 0 7.416 3.982 7.416 8.893 0 4.91-3.32 8.893-7.416 8.893-4.095-.001-7.416-3.983-7.416-8.893"/><path fill="#C1694F" d="M17.546 23.099c-2.396 0-3.132-.62-3.256-.745a.582.582 0 0 1 0-.815.567.567 0 0 1 .786-.019c.045.032.627.428 2.47.428 1.914 0 2.466-.426 2.472-.431a.554.554 0 0 1 .796.014c.223.225.21.6-.013.824-.122.124-.858.744-3.255.744"/><path fill="#963B22" d="M17.546 5.243c4.914 0 7.986 3.663 7.986 6.714 0 3.051-.614 4.273-1.229 3.051l-1.229-2.44s-3.686 0-4.915-1.223c0 0 1.845 3.663-1.843 0 0 0 .614 2.442-3.071-.609 0 0-1.843 1.221-2.457 4.272-.17.847-1.229 0-1.229-3.051.001-3.052 2.459-6.714 7.987-6.714"/><path fill="#662113" d="M14.066 17.122a.877.877 0 0 1-.87-.878v-.879c0-.483.392-.878.87-.878.479 0 .87.395.87.878v.879a.877.877 0 0 1-.87.878m6.961 0a.876.876 0 0 1-.87-.878v-.879c0-.483.392-.878.87-.878.477 0 .87.395.87.878v.879a.878.878 0 0 1-.87.878"/><path fill="#C1694F" d="M18.199 19.539h-1.306a.656.656 0 0 1-.652-.659c0-.362.293-.659.652-.659h1.306c.359 0 .652.297.652.659a.656.656 0 0 1-.652.659"/><path fill="#D1D3D4" d="M5.895 14.205s-3.834 1.39-4.214 6.221c0 0-2.4-4.817-.522-10.149l4.736 3.928zm14.156-8.228s-2.758-3.005-7.363-1.497c0 0 3.522-4.069 9.167-4.387l-1.804 5.884zm9.22 10.36s1.972-3.571-.923-7.457c0 0 4.978 2.046 7.075 7.296l-6.152.161z"/><circle fill="#5C913B" cx="4.603" cy="10.986" r="3.5"/><circle fill="#BE1931" cx="22.516" cy="3.5" r="3.5"/><circle fill="#3B88C3" cx="32.396" cy="17.854" r="3.5"/><path fill="#CC9B7A" d="M32.646 23.488a.991.991 0 0 0-1.169-.774l-2.057.431h-1.809c-.85 0-1.538.695-1.538 1.555v1.552h3.847c.83 0 1.503-.666 1.532-1.496l.273-.057h.503c0-.059-.022-.113-.035-.169a.999.999 0 0 0 .453-1.042z"/><path fill="#D5AB88" d="M36.075 23.921a.772.772 0 0 0-.77-.776l-4.616.776h-3.847a.774.774 0 0 0-.77.778L26 26.25l1.611.002h3.078l4.616-1.553c.001 0 .77-.348.77-.778z"/><path fill="#CC9B7A" d="M3.43 27.236a.99.99 0 0 1 1.168-.774l2.058.431h1.808c.85 0 1.539.695 1.539 1.555V30H6.155c-.83 0-1.503-.666-1.532-1.496l-.273-.057h-.503c0-.059.022-.113.036-.169a.996.996 0 0 1-.453-1.042z"/><path fill="#D5AB88" d="M0 27.669c0-.429.344-.776.769-.776l4.617.776h3.847c.425 0 .769.349.769.778V30H5.386L.769 28.447S0 28.099 0 27.669z"/><path fill="#5C913B" d="M10 30h1v6h-1zm15-3h1v9h-1z"/></svg>