<svg xmlns="http://www.w3.org/2000/svg" viewBox="0 0 36 36"><circle fill="#E2EA55" cx="18" cy="18" r="18"/><path fill="#BECA28" d="M31.802 29.546C28.792 28.221 27 24.048 27 18c0-6.048 1.792-10.221 4.802-11.546a18.116 18.116 0 0 0-1.428-1.504C27.406 6.605 25 10.578 25 18c0 7.421 2.406 11.395 5.374 13.05.502-.477.984-.973 1.428-1.504zM11 18c0-7.421-2.406-11.395-5.374-13.049a17.94 17.94 0 0 0-1.428 1.503C7.208 7.78 9 11.952 9 18c0 6.048-1.792 10.22-4.802 11.546.445.531.926 1.027 1.428 1.504C8.593 29.395 11 25.421 11 18z"/><path fill="#DD2E44" d="M5.258 10.164c-.237 0-.457-.02-.651-.056a1 1 0 0 1 .368-1.966c.43.077 2.691.006 3.148-2.276a1 1 0 0 1 1.961.393c-.582 2.912-3.139 3.905-4.826 3.905zm1.439 4.192c-.53-.022-.938-.363-.941-.899-.003-.552.438-.893.99-.896 0 0 2.563.073 3.963-2.129a.995.995 0 0 1 1.38-.294c.466.296.603.921.307 1.387-1.986 3.126-5.683 2.832-5.699 2.831zm2.216 4.876c-.733-.035-1.406-.202-1.907-.47a1 1 0 0 1 .942-1.764c.81.432 2.911.379 3.775-.832a1 1 0 1 1 1.629 1.161c-1.036 1.451-2.875 1.98-4.439 1.905zm1.498 5.533c-1.554 0-2.995-.699-3.926-1.476a1 1 0 1 1 1.28-1.537c.194.163 1.952 1.566 3.782.785a1 1 0 0 1 .781 1.841 4.85 4.85 0 0 1-1.917.387zm-.494 5.277h-.028c-2.504 0-4.679-1.57-5.534-3.108-.269-.482-.094-1.044.388-1.312.483-.27 1.092-.07 1.36.412.484.871 1.996 2.134 3.841 2.185.552.016.987.388.972.939-.015.542-.459.884-.999.884zm16.417.52a1 1 0 0 1-.981-1.197c.664-3.322 3.894-4.15 5.478-3.849a1 1 0 0 1 .798 1.167.994.994 0 0 1-1.167.798c-.425-.08-2.69-.007-3.147 2.276a1.002 1.002 0 0 1-.981.805zm-2.795-5.552a1 1 0 0 1-.455-1.67c2.608-2.629 4.694-2.181 6.074-1.885l.109.024a1 1 0 0 1-.416 1.956l-.113-.025c-1.179-.253-2.397-.515-4.234 1.337a.996.996 0 0 1-.965.263zm-.452-5.695a1 1 0 0 1-.551-1.666c1.786-1.915 5.028-1.629 6.478-.59a1 1 0 1 1-1.165 1.626c-.745-.535-2.836-.758-3.852.329a.997.997 0 0 1-.91.301zm5.704-5.253a.997.997 0 0 1-.64-.232c-.194-.162-1.952-1.559-3.781-.785a1.001 1.001 0 0 1-.782-1.841c2.219-.942 4.535-.001 5.844 1.09a1 1 0 0 1-.641 1.768zm1.939-3.979a1 1 0 0 1-.875-.514c-.484-.872-1.996-2.123-3.841-2.174-.553-.015-.987-.506-.973-1.059.016-.542.46-1.003.999-1.003h.028c2.505 0 4.68 1.694 5.534 3.232a1.017 1.017 0 0 1-.389 1.376 1 1 0 0 1-.483.142z"/></svg>