<svg xmlns="http://www.w3.org/2000/svg" viewBox="0 0 36 36"><path fill="#5C913B" d="M20.958 8.542c-2.811 4.371-6.701 7.706-8.542 9.125C7.938 21.122.488 25.179 1 30.15c.375 3.642 2.714 5.669 8.143 5.283 5.184-.368 11.058-4.834 15.763-10.48 5.197-6.236 8.195-10.559 9.355-14.551.974-3.355 1.468-7.515-1.219-9.027C30.71.063 25.83.965 20.958 8.542z"/><circle fill="#5C913B" cx="18.217" cy="30.997" r=".639"/><circle fill="#5C913B" cx="21.417" cy="27.975" r=".639"/><circle fill="#5C913B" cx="20.987" cy="28.668" r=".639"/><circle fill="#5C913B" cx="23.958" cy="25.404" r=".639"/><circle fill="#5C913B" cx="30.021" cy="17.935" r=".639"/><circle fill="#5C913B" cx="33.708" cy="10.81" r=".639"/><circle fill="#5C913B" cx="34.427" cy="4.06" r=".639"/><path fill="#77B255" d="M6.924 34.192c5.312-.377 11.331-4.953 16.152-10.739 5.325-6.39 8.397-10.819 9.585-14.911.687-2.365 1.141-5.12.46-7.114-.028-.017-.051-.038-.08-.054C30.709.062 25.83.964 20.958 8.541c-2.811 4.372-6.701 7.706-8.542 9.125C7.938 21.122.488 25.179 1 30.15c.161 1.561.686 2.822 1.656 3.727 1.146.323 2.556.437 4.268.315z"/><path d="M16.497 25.752c-.441.097-.862-.029-1.258-.378-.396-.348-.575-.752-.535-1.2.004-.042.012-.13-.073-.168a.13.13 0 0 0-.147.034c-.469.533-.363 1.395.235 1.922.298.263.663.393 1.012.393.354 0 .69-.134.927-.402a.13.13 0 0 0 .016-.149c-.049-.079-.135-.061-.177-.052zm8.904-8.142c-.449-.019-.826-.251-1.119-.69-.293-.44-.361-.877-.205-1.298.015-.04.046-.122-.028-.181a.133.133 0 0 0-.15-.004 1.21 1.21 0 0 0-.524.865c-.048.359.043.733.255 1.053.294.441.764.687 1.219.687.23 0 .458-.062.657-.195a.134.134 0 0 0 .053-.141c-.028-.09-.116-.094-.158-.096zm-5.552.98h.002c.23 0 .438-.091.581-.253a.13.13 0 0 0 .017-.149c-.027-.047-.104-.066-.159-.056-.237.054-.474-.017-.693-.21-.221-.193-.32-.417-.297-.662.005-.054-.024-.129-.074-.15a.128.128 0 0 0-.146.034c-.294.334-.23.874.143 1.202.177.156.4.243.626.244zm8.934-7.262c-.221-.193-.32-.417-.297-.662.005-.054-.024-.129-.074-.15a.128.128 0 0 0-.146.034c-.294.334-.23.874.143 1.202a.96.96 0 0 0 .627.245h.002c.23 0 .438-.091.581-.253a.13.13 0 0 0 .017-.149c-.027-.046-.104-.067-.159-.056-.238.053-.474-.017-.694-.211zm-4.302.229h.002c.23 0 .438-.09.582-.254a.129.129 0 0 0 .015-.148c-.028-.048-.108-.066-.158-.055-.245.054-.475-.018-.693-.21-.221-.194-.32-.417-.297-.662.005-.054-.024-.129-.074-.15a.128.128 0 0 0-.146.033c-.294.334-.23.874.143 1.202a.952.952 0 0 0 .626.244zm6.191-6.676c-.246.055-.475-.018-.693-.21-.221-.194-.32-.417-.297-.662.005-.054-.024-.129-.074-.15a.127.127 0 0 0-.146.033c-.294.334-.23.874.143 1.202a.954.954 0 0 0 .627.244h.002c.23 0 .438-.09.582-.254a.129.129 0 0 0 .015-.148c-.028-.048-.108-.066-.159-.055zM5.82 28.208a1.296 1.296 0 0 1-.093-1.479.127.127 0 0 0-.018-.152.124.124 0 0 0-.152-.021c-.065.038-.13.076-.189.124-.308.247-.501.598-.544.99s.069.777.315 1.084a1.473 1.473 0 0 0 2.074.229c.058-.047.106-.099.162-.159a.124.124 0 0 0 .013-.152.127.127 0 0 0-.145-.051 1.3 1.3 0 0 1-1.423-.413zm9.722-7.372c.324 0 .65-.105.922-.323.058-.047.106-.099.162-.159a.124.124 0 0 0 .013-.152.127.127 0 0 0-.145-.051 1.298 1.298 0 0 1-1.424-.411 1.296 1.296 0 0 1-.093-1.479.127.127 0 0 0-.018-.152.126.126 0 0 0-.152-.021c-.065.038-.13.076-.189.124-.308.247-.501.598-.544.99s.069.777.315 1.084c.292.361.72.55 1.153.55zm9.622-14.159a1.296 1.296 0 0 1-.093-1.479.127.127 0 0 0-.018-.152.125.125 0 0 0-.152-.021c-.065.038-.13.076-.189.124-.308.247-.501.598-.544.99s.069.777.315 1.084a1.473 1.473 0 0 0 2.074.229c.058-.047.106-.099.162-.159a.124.124 0 0 0 .013-.152.127.127 0 0 0-.145-.051 1.3 1.3 0 0 1-1.423-.413zM12.559 29.056a.934.934 0 0 1-1.064.098.934.934 0 0 1-.451-.97.099.099 0 0 0-.058-.108.1.1 0 0 0-.119.029 1.321 1.321 0 0 0-.097.135 1.072 1.072 0 0 0-.107.823c.075.28.256.513.507.657a1.075 1.075 0 0 0 .822.107c.279-.075.513-.255.657-.507.028-.049.049-.101.068-.152a.1.1 0 0 0-.036-.116.096.096 0 0 0-.122.004zm-2.836-5.818a.933.933 0 0 1 .393-.995.1.1 0 0 0-.065-.182 1.09 1.09 0 0 0-.165.023c-.281.068-.52.242-.67.489a1.08 1.08 0 0 0 .359 1.489 1.08 1.08 0 0 0 .818.129 1 1 0 0 0 .159-.055.1.1 0 0 0 .061-.106.1.1 0 0 0-.087-.086.934.934 0 0 1-.803-.706zm12.202-9.621a.939.939 0 0 1-1.038.256.94.94 0 0 1-.592-.892.099.099 0 0 0-.072-.098.096.096 0 0 0-.113.045.945.945 0 0 0-.075.149 1.083 1.083 0 1 0 2.02.786c.02-.053.032-.106.044-.16a.1.1 0 0 0-.053-.111.105.105 0 0 0-.121.025zm-1.15 8.999a.938.938 0 0 1-1.045.226.936.936 0 0 1-.565-.908.1.1 0 0 0-.07-.1.1.1 0 0 0-.115.044.998.998 0 0 0-.079.144 1.084 1.084 0 0 0 1.995.846c.021-.047.033-.096.05-.159a.1.1 0 0 0-.049-.113.104.104 0 0 0-.122.02z" fill="#5C913B"/><circle fill="#77B255" cx="24.844" cy="20.719" r=".5"/><circle fill="#77B255" cx="30.875" cy="12.219" r=".5"/><circle fill="#77B255" cx="32.656" cy="7.219" r=".5"/><circle fill="#77B255" cx="28" cy="16.75" r=".5"/><circle fill="#77B255" cx="17.938" cy="28.344" r=".5"/><circle fill="#77B255" cx="20.656" cy="25.5" r=".789"/><circle fill="#77B255" cx="11.062" cy="32.938" r=".5"/><circle fill="#77B255" cx="25.781" cy="19.969" r=".5"/><circle fill="#77B255" cx="11.297" cy="19.828" r="1.422"/><circle fill="#77B255" cx="5.698" cy="23.355" r=".98"/><circle fill="#77B255" cx="26.448" cy="3.324" r=".98"/><circle fill="#77B255" cx="1.948" cy="27.23" r=".694"/><circle fill="#77B255" cx="2.48" cy="26.512" r=".694"/><circle fill="#77B255" cx="1.855" cy="31.324" r=".859"/><circle fill="#77B255" cx="13.509" cy="17.138" r=".639"/><circle fill="#77B255" cx="27.478" cy="2.169" r=".639"/><circle fill="#77B255" cx="31.447" cy="1.294" r=".639"/><circle fill="#77B255" cx="16.728" cy="14.201" r=".639"/><circle fill="#77B255" cx="19.697" cy="10.951" r=".639"/><circle fill="#77B255" cx="19.125" cy="11.594" r=".639"/><circle fill="#77B255" cx="22.009" cy="7.763" r=".639"/></svg>