<svg xmlns="http://www.w3.org/2000/svg" viewBox="0 0 36 36"><path fill="#5C913B" d="M29.866 24.625c2.522-.841 5.884-4.203 5.884-5.884s-2.522-.841-1.681-3.362 1.681-5.043 0-6.724-3.362 0-5.043-1.681 0-3.362-1.681-5.043-4.203-.841-6.724 0S18.939.25 17.258.25s-5.043 3.362-5.884 5.884-2.521.84-3.361 3.362c-.78 2.341.177 4.823-1.972 9.748-1.026 1.621-1.995 3.178-2.899 4.543C-.836 29.792.449 35.552.449 35.552s5.76 1.285 11.765-2.693c1.365-.904 2.922-1.873 4.543-2.899 4.925-2.15 7.407-1.192 9.748-1.972 2.521-.841.84-2.522 3.361-3.363z"/><path fill="#679E44" d="M34.253 19.017a.593.593 0 0 0-.75-.379c-3.21 1.054-5.749.677-7.001.349 2.811-2.865 5.337-5.842 7.222-8.589a.595.595 0 0 0-.98-.673c-1.082 1.576-2.403 3.251-3.878 4.944.082-1.765-.065-4.516-1.327-7.238a.594.594 0 0 0-1.078.5c1.679 3.623 1.194 7.416 1.062 8.235a85.923 85.923 0 0 1-4.356 4.402c.156-1.873.084-4.922-1.559-7.337a.593.593 0 1 0-.982.668c1.957 2.879 1.347 7.003 1.178 7.925-2.44 2.2-4.953 4.211-7.33 5.836 1.535-2.474 3.146-6.37 2-10.845a.593.593 0 1 0-1.151.295c1.679 6.557-3.33 11.987-3.778 12.456-5.407 3.356-8.373 4.368-8.407 4.379a.593.593 0 0 0 .188 1.158.61.61 0 0 0 .187-.03c.16-.054 3.996-1.354 11.056-6.036a62.148 62.148 0 0 0 4.176-3.05c.695.426 2.288 1.141 5.162 1.141.804 0 1.706-.057 2.717-.19a.595.595 0 0 0-.156-1.178c-3.704.492-5.777-.136-6.717-.581a85.397 85.397 0 0 0 5.799-5.235c.617.218 1.922.586 3.735.586 1.299 0 2.854-.189 4.592-.761a.599.599 0 0 0 .376-.752z"/><path fill="#3E721D" d="M12.753 24.327c.456-.09 1.009-.182 1.61-.281 3.811-.633 7.752-1.288 7.752-3.729 0-1.241-.664-1.982-1.101-2.436.25-.076.59-.147.825-.198 1.07-.227 2.402-.51 2.983-1.69.359-.729.313-1.608-.143-2.635.416-.307 1.58-.678 2.308-.909 1.796-.572 3.493-1.113 3.959-2.504.163-.484.223-1.25-.409-2.144-.008-.011-.02-.035-.028-.05-.495-.084-.989-.284-1.484-.778a2.726 2.726 0 0 1-.632-.939c.234.645.845 2.094 1.123 2.486 2.031 2.872-7.321 2.534-6.024 5.247 1.541 3.222-2.907 2.206-3.747 3.467-.841 1.261 1.121 1.401 1.121 3.082s-5.746 2.271-8.354 2.783C7.243 24.136.448 35.552.448 35.552s.508.11 1.363.165c2.052-3.324 7.257-10.666 10.942-11.39z"/><path fill="#77B255" d="M12.512 23.101c2.608-.512 8.354-1.102 8.354-2.783s-1.961-1.821-1.121-3.082c.841-1.261 5.288-.245 3.747-3.467-1.298-2.713 8.055-2.375 6.024-5.247-.322-.455-1.094-2.335-1.205-2.729-.363-1.287.321-2.574-.967-3.861-1.681-1.681-4.203-.841-6.724 0S18.939.25 17.258.25s-5.043 3.362-5.884 5.884-2.521.84-3.361 3.362c-.78 2.341.177 4.823-1.972 9.748-1.026 1.621-1.995 3.178-2.899 4.543C-.836 29.792.449 35.552.449 35.552s6.794-11.416 12.063-12.451z"/><path fill="#A6D388" d="M28.4 8.292c-2.723-1.262-5.475-1.409-7.24-1.326 1.693-1.476 3.367-2.797 4.944-3.878a.595.595 0 0 0-.672-.981c-2.747 1.884-5.724 4.411-8.589 7.222-.329-1.253-.706-3.791.349-7.001a.593.593 0 1 0-1.129-.371c-1.366 4.158-.55 7.265-.176 8.328a85.157 85.157 0 0 0-5.235 5.799c-.445-.94-1.071-3.013-.58-6.719a.595.595 0 0 0-1.178-.157c-.613 4.63.407 6.991.951 7.879a61.8 61.8 0 0 0-3.05 4.176C2.112 28.323.812 32.159.759 32.318a.594.594 0 1 0 1.128.375c.011-.034 1.023-2.999 4.378-8.406.463-.446 5.882-5.465 12.456-3.778a.595.595 0 0 0 .294-1.153c-4.475-1.144-8.373.468-10.848 2.003 1.625-2.378 3.637-4.893 5.838-7.334.923-.169 5.047-.777 7.925 1.18a.593.593 0 0 0 .825-.157.595.595 0 0 0-.157-.826c-2.416-1.642-5.465-1.714-7.338-1.558a85.889 85.889 0 0 1 4.401-4.355c.814-.134 4.598-.625 8.236 1.061a.595.595 0 0 0 .789-.289.589.589 0 0 0-.286-.789z"/></svg>