<svg xmlns="http://www.w3.org/2000/svg" viewBox="0 0 36 36"><circle fill="#FFCC4D" cx="17" cy="19" r="17"/><ellipse fill="#664500" cx="17.999" cy="26" rx="2" ry="2.5"/><path fill="#664500" d="M8.111 21.383a1 1 0 0 1-.845-1.533c.916-1.453 3.701-3.938 7.69-2.962a1 1 0 0 1-.476 1.942c-3.604-.882-5.502 2.056-5.521 2.086a1.001 1.001 0 0 1-.848.467zm11.973-3.742a1 1 0 0 1-.634-1.774c3.176-2.604 6.762-1.562 8.215-.646a1 1 0 0 1-1.064 1.694c-.138-.084-3.052-1.823-5.884.499a.992.992 0 0 1-.633.227z"/><path fill="#E2A62D" d="M13.346 31.273a.75.75 0 0 1-.722-.954c.437-1.54.258-3.029-.49-4.086-.497-.702-1.205-1.131-1.943-1.178-.414-.025-.728-.382-.702-.795s.381-.751.795-.701c1.193.074 2.313.733 3.073 1.807 1.011 1.429 1.27 3.383.709 5.361a.749.749 0 0 1-.72.546zm11.037-3.061a.744.744 0 0 1-.412-.124c-1.167-.77-1.82-2.117-1.792-3.695.029-1.635.809-3.153 1.984-3.869a.748.748 0 0 1 1.03.251.748.748 0 0 1-.251 1.03c-.735.448-1.244 1.499-1.264 2.614-.02 1.055.389 1.936 1.118 2.417a.75.75 0 0 1-.413 1.376z"/><path fill="#DD2E44" d="M17.179 2.72a.325.325 0 0 0-.189-.091S1.066-.394.377.214C-.311.823.74 16.998.74 16.998c.005.081.023.15.067.199.604.684 4.758-2.004 9.279-6.001 4.522-3.998 7.697-7.792 7.093-8.476z"/><path fill="#EA596E" d="M.349.271a.486.486 0 0 0-.038.123C.47 1.765 2.006 13.046 2.963 16.572c1.436-.803 2.895-1.894 4.609-3.253C6.116 10.654 1.158.146.349.271z"/><path fill="#3B88C3" d="m29.902 29.229-10.573-1.303c-1.13-.102-3.117-.112-3.015-1.902.093-1.623 2.04-1.373 3.479-1.16l10.638 1.774-.529 2.591z"/><path fill="#88C9F9" d="m30.43 26.639-4.222-.724c-.494-.089-.934.647-.956 1.426-.025.866.227 1.304.726 1.406l4.144.512.308-2.62z"/><path fill="#3B88C3" d="m34.918 26.341-2.622 2.411-4.687-5.097 2.622-2.411a3.372 3.372 0 0 1 4.751.199l.135.147a3.373 3.373 0 0 1-.199 4.751z"/><ellipse transform="rotate(-42.597 29.954 26.205)" fill="#88C9F9" cx="29.952" cy="26.203" rx="2.77" ry="3.462"/><ellipse transform="rotate(-42.597 29.954 26.205)" fill="#269" cx="29.952" cy="26.203" rx="1.385" ry="2.077"/><circle fill="#55ACEE" cx="2.5" cy="33.5" r="1.5"/><circle fill="#55ACEE" cx="29" cy="2" r="2"/><path fill="#EA596E" d="M4.864 29.246 2.526 23.63.412 29.675zM26 5l-4 1 1-4z"/><path fill="#77B255" d="M31.999 13 36 7.999 33 6z"/></svg>