<svg xmlns="http://www.w3.org/2000/svg" viewBox="0 0 36 36"><circle fill="#FFCC4D" cx="18" cy="18" r="18"/><path fill="#664500" d="M16 16.958c-.419 0-.809-.265-.949-.684-.203-.599-1.018-2.316-2.051-2.316-1.062 0-1.888 1.827-2.051 2.316a1 1 0 1 1-1.897-.633c.125-.377 1.304-3.684 3.949-3.684s3.823 3.307 3.949 3.684a1 1 0 0 1-.95 1.317zm10 0a.999.999 0 0 1-.948-.684c-.203-.599-1.019-2.316-2.052-2.316-1.062 0-1.889 1.827-2.052 2.316a1 1 0 0 1-1.897-.633c.125-.377 1.304-3.684 3.948-3.684s3.823 3.307 3.948 3.684A1 1 0 0 1 26 16.958zm1.335 3.733a.501.501 0 0 0-.635-.029c-.039.029-3.922 2.9-8.7 2.9-4.766 0-8.662-2.871-8.7-2.9a.5.5 0 0 0-.729.657c.129.215 3.217 5.243 9.429 5.243s9.301-5.028 9.429-5.243a.499.499 0 0 0-.094-.628z"/><path fill="#FFAC33" d="M21.229 3.947c0 .24.03.472.082.696.425 2.643 3.364 5.431 5.47 6.197 1.665-.605 3.846-2.476 4.898-4.539A18.027 18.027 0 0 0 23.75.939a3.059 3.059 0 0 0-2.521 3.008zm-7.486 25.131c.057-.242.09-.494.09-.754a3.319 3.319 0 0 0-3.319-3.319 3.312 3.312 0 0 0-2.697 1.389 3.314 3.314 0 0 0-2.697-1.389 3.304 3.304 0 0 0-2.88 1.698 18.071 18.071 0 0 0 8.068 7.574c1.637-1.351 3.131-3.307 3.435-5.199zm20.558-3.436a2.29 2.29 0 0 0-4.062-.685 2.299 2.299 0 0 0-4.105 1.859c.307 1.905 2.348 3.896 3.909 4.561a18.045 18.045 0 0 0 4.258-5.735z"/><path fill="#DD2E44" d="M33.625 3.269A3.063 3.063 0 0 0 30.562.206a3.057 3.057 0 0 0-2.489 1.282 3.063 3.063 0 0 0-5.47 2.477c.426 2.643 3.364 5.431 5.47 6.197 2.106-.766 5.044-3.554 5.469-6.196.053-.225.083-.457.083-.697zM12.208 28.408a3.319 3.319 0 0 0-3.319-3.319 3.312 3.312 0 0 0-2.697 1.389 3.311 3.311 0 0 0-2.697-1.389 3.319 3.319 0 0 0-3.23 4.073c.461 2.863 3.644 5.884 5.926 6.714 2.282-.829 5.465-3.85 5.926-6.713.058-.244.091-.496.091-.755zm23.74-2.281a2.299 2.299 0 0 0-4.167-1.337 2.299 2.299 0 0 0-4.105 1.859c.319 1.983 2.524 4.076 4.105 4.65 1.58-.574 3.786-2.667 4.104-4.65.04-.168.063-.342.063-.522z"/></svg>