<svg xmlns="http://www.w3.org/2000/svg" viewBox="0 0 36 36"><path fill="#A78E81" d="M7.214 22.804C8.414 26.402 15.61 30 21.607 30s11.969-2.523 11.969-6.121c0-1.199-9.57.124-15.567-2.275-3.341-1.336-9.595-4.798-10.795-3.598s0 4.798 0 4.798z"/><path d="M28.05 26c.41.943.278 2.134.128 2.958.29-.098.575-.202.849-.312C28.949 26.671 28.05 26 28.05 26zm-16.242 1.321c.646-.809.882-1.615 1.195-2.604 0 0-.798 1.38-2.036 2.101.272.172.551.34.841.503zm6.032-1.253c-.262 1.185-1.563 2.163-2.595 2.78.51.176 1.028.338 1.553.478 1.49-1.215 1.042-3.258 1.042-3.258zm4.592 2.358s-.465.794-1.086 1.564c.086.002.175.01.261.01.241 0 .482-.011.723-.019.166-.783.102-1.555.102-1.555zm13.483-5.468s-3.224 1.087-4.397.921c-1.172-.166-.879 2.656.147 2.121s3.136-.6 4.25-3.042zM7.214 18.006s2.399-3.598 8.771-2.154c4.823 1.093 9.22 4.553 15.217 3.353 0 0-.825 5.042-10.42 5.042S5.309 20.619 7.214 18.006z" fill="#846659"/><path fill="#A78E81" d="M1.789 21.604c3.06 0 8.233-4.018 8.211-6.843-.023-3.06-4.106-4.106-6.843-2.737s-4.106 9.58-1.368 9.58z"/><path fill="#A78E81" d="M2 14.5a.498.498 0 0 1-.41-.213c-.263-.376-1.206-2.56 6.089-8.658a.5.5 0 0 1 .642.768c-6.442 5.385-5.922 7.302-5.911 7.317A.5.5 0 0 1 2 14.5zM5.229 31H2.891a1 1 0 1 1 0-2h1.51l4.505-4.505a.999.999 0 1 1 1.414 1.414L5.229 31zm15.178-3.099a1.5 1.5 0 0 1-1.357-2.139l9.595-20.389A1.501 1.501 0 0 1 31.36 6.65l-9.594 20.39a1.501 1.501 0 0 1-1.359.861z"/><path fill="#A78E81" d="M19.844 27.812C22.469 28.562 26 26 27 22s.969-8.375 1.969-10.375S28 10 26 13s-6.156 14.812-6.156 14.812z"/><path fill="#292F33" d="M3.762 15.489c2.651.641.977 3.672-.684 3.672-2.419 0-2.199-4.369.684-3.672z"/><path fill="#CAB8AC" d="M34.89 31h-2.932a1 1 0 0 1-.997-.919L29.006 6.093A1 1 0 0 1 31 5.931L32.88 29h2.01a1 1 0 1 1 0 2zm-6.84 0H26a1 1 0 0 1-.753-.342l-6.311-7.212-3.833 3.677a1 1 0 0 1-1.385-1.443l4.589-4.401a.978.978 0 0 1 .736-.277c.272.012.528.135.709.341L26.454 29h1.596a1 1 0 1 1 0 2z"/></svg>