<svg xmlns="http://www.w3.org/2000/svg" viewBox="0 0 36 36"><path fill="#3E721D" d="M17.68 22s1.937 7.873 1.187 9.373c-2.373 4.746-1.187 4.627 0 4.627h2.373c2.373 0-1.187-14-1.187-14H17.68zM5.255 19.387s-.436 7.993-1.187 9.493C1.695 33.626 1.695 36 2.882 36h2.373c1.186 0 1.187-4.154 1.187-5.34 0-1.187 1.187-8.603 1.187-8.603l-2.374-2.67z"/><path fill="#77B255" d="M12.374 5.251c-2.068.017-4.209-.435-5.523 2.099-1.404 2.709-2.065 8.579.776 9.664 2.479.947 7.933-1.187 13.866 1.187 5.933 2.373 8.306 16.612 13.015 16.63 1.224.005 1.206 1.123.001 1.132-5.914.045-8.509-5.897-9.509-5.897 0 0 1 5.934 0 5.934h-4c-1 0 0-3.081 0-4.268v-1.667s-1.593 1.218-5.936 1.218C11.781 31.284 9 30.066 9 30.066S10 36 9 36H5.255c-1.678 0 .166-4.013 0-5.934-.102-1.182-.51-4.757-1.224-5.933-1.726-2.847-2.763-11.521-1.929-15.285.781-3.526 3.122-6.633 4.675-7.51C8.296.479 9.64-.162 12.968.373c1.775.285 3.591 2.922 2.89 4.274-.421.81-1.94.591-3.484.604z"/><path d="M12.967 2.181a.592.592 0 1 1-1.185.001.592.592 0 0 1 1.185-.001z"/><path d="M10.218 18.485a.575.575 0 1 1-1.1.34.575.575 0 0 1 1.1-.34zm3.874 1.248a.819.819 0 1 1-1.566.484.819.819 0 1 1 1.566-.484zm-1.625-1.426a.435.435 0 1 1-.831.258.435.435 0 0 1 .831-.258zm2.458-.331a.413.413 0 1 1-.788.244.413.413 0 0 1 .788-.244zm2.843.35a.763.763 0 1 1-1.458.45.763.763 0 0 1 1.458-.45zm4.753 1.979a.487.487 0 1 1-.61-.322.487.487 0 0 1 .61.322zm-5.854 0a.487.487 0 1 1-.61-.322.488.488 0 0 1 .61.322zm4.218-1.306a.487.487 0 1 1-.932.288.487.487 0 1 1 .932-.288zm-1.501.199a.722.722 0 1 1-1.378.427.722.722 0 0 1 1.378-.427z" fill="#5C913B"/></svg>