<svg xmlns="http://www.w3.org/2000/svg" viewBox="0 0 36 36"><path fill="#6D6E71" d="M28.688 20.312C28.688 26.217 23.904 31 18 31c-5.903 0-10.688-4.783-10.688-10.688 0-5.903 4.786-10.689 10.688-10.689 5.904.001 10.688 4.786 10.688 10.689z"/><path fill="#662113" d="M26 33.5H10c-1.665 0-2.479-1.339-2.763-2.31l-2.664-.056a.499.499 0 0 1-.472-.63l.594-2.216-2.446-.651a.501.501 0 0 1-.3-.741l1.199-1.993-2.156-1.192a.503.503 0 0 1-.103-.8l1.729-1.647-1.729-1.646a.502.502 0 0 1 .103-.8l2.156-1.194-1.2-1.994a.5.5 0 0 1 .3-.741l2.446-.65-.594-2.218a.501.501 0 0 1 .473-.63l2.575-.053.058-2.302a.5.5 0 0 1 .608-.475l2.521.561.717-2.234a.502.502 0 0 1 .699-.294l2.284 1.139 1.341-2.009a.504.504 0 0 1 .35-.218.493.493 0 0 1 .394.119L18 7.258l1.88-1.636a.501.501 0 0 1 .745.1l1.34 2.009 2.286-1.139a.5.5 0 0 1 .699.294l.716 2.234 2.521-.561a.5.5 0 0 1 .608.475l.058 2.302 2.574.053a.499.499 0 0 1 .472.63l-.595 2.217 2.449.65a.503.503 0 0 1 .301.741l-1.201 1.994 2.155 1.194a.5.5 0 0 1 .103.8l-1.729 1.646 1.729 1.647a.5.5 0 0 1-.103.8L32.854 24.9l1.2 1.993a.5.5 0 0 1-.3.741l-2.45.651.595 2.216a.5.5 0 0 1-.472.63l-2.663.056c-.285.974-1.099 2.313-2.764 2.313z"/><path fill="#8A4B38" d="M16.188 28.824a.5.5 0 0 1-.416-.223l-1.058-1.585-1.805.899a.502.502 0 0 1-.7-.295l-.564-1.757-1.99.442a.498.498 0 0 1-.609-.476l-.045-1.804-2.029-.043a.499.499 0 0 1-.472-.63l.464-1.732-1.92-.51a.501.501 0 0 1-.3-.741l.937-1.557-1.688-.934a.498.498 0 0 1-.103-.8l1.352-1.289-1.352-1.287a.502.502 0 0 1 .103-.8l1.689-.935-.937-1.558a.5.5 0 0 1 .3-.741l1.922-.511-.466-1.732a.501.501 0 0 1 .473-.63l2.029-.042.045-1.805a.5.5 0 0 1 .608-.475l1.99.442.564-1.756a.503.503 0 0 1 .7-.294l1.805.899 1.058-1.584a.502.502 0 0 1 .745-.099L18 4.172l1.484-1.291a.5.5 0 0 1 .745.099l1.057 1.583 1.807-.9a.5.5 0 0 1 .699.295l.562 1.756 1.991-.442a.5.5 0 0 1 .608.476l.045 1.804 2.028.042a.499.499 0 0 1 .472.63l-.465 1.734 1.924.511a.499.499 0 0 1 .301.741l-.938 1.558 1.689.935a.5.5 0 0 1 .103.8l-1.353 1.287 1.353 1.289a.5.5 0 0 1-.103.8l-1.688.934.938 1.557a.5.5 0 0 1-.3.741l-1.925.512.465 1.732a.5.5 0 0 1-.472.63l-2.028.043-.045 1.804a.5.5 0 0 1-.608.476l-1.991-.442-.562 1.757a.502.502 0 0 1-.699.295l-1.806-.899-1.058 1.585a.503.503 0 0 1-.745.1L18 27.407l-1.483 1.294a.501.501 0 0 1-.329.123z"/><path fill="#8A4B38" d="M13.5 27.052h9c3.521 0 6.5 2.575 6.5 4.5 0 1.65-1.35 2-3 2H10c-1.65 0-3-.35-3-2 0-1.925 2.99-4.5 6.5-4.5z"/><path fill="#D99E82" d="M26.222 22.779c0 4.088-3.68 7.398-8.222 7.398s-8.222-3.31-8.222-7.398c0-4.087 3.68-7.4 8.222-7.4s8.222 3.313 8.222 7.4z"/><path fill="#E6E7E8" d="M21.289 26.479c0 2.043-1.473 3.699-3.289 3.699s-3.289-1.656-3.289-3.699S16.183 22.78 18 22.78s3.289 1.655 3.289 3.699z"/><path fill="#231F20" d="M19.645 27.711a1.645 1.645 0 0 1-3.29 0c0-.908.736-1.642 1.645-1.642s1.645.734 1.645 1.642zm-4.934-6.166a1.233 1.233 0 1 1-2.466.002 1.233 1.233 0 0 1 2.466-.002zm9.044 0a1.233 1.233 0 1 1-2.466.002 1.233 1.233 0 0 1 2.466-.002z"/><path fill="#C1694F" d="M11.422 17.846s4.111-1.644 4.933 0C17.178 19.49 18 19.49 18 19.49v-4.934c0 .001-6.578.001-6.578 3.29zm13.155 0s-4.11-1.644-4.933 0C18.822 19.49 18 19.49 18 19.49v-4.934c0 .001 6.577.001 6.577 3.29z"/><path fill="#D99E82" d="M12.245 18.256a2.055 2.055 0 1 1-4.11.002 2.055 2.055 0 0 1 4.11-.002zm15.621 0a2.055 2.055 0 1 1-4.11.001 2.055 2.055 0 0 1 4.11-.001zM11 35c-2 0-2-4 2-4s4.062 4 2 4h-4zm10 0c-2 0-2-4 2-4s4.062 4 2 4h-4z"/></svg>