<svg xmlns="http://www.w3.org/2000/svg" viewBox="0 0 36 36"><path fill="#7A5C44" d="M6 21a2 2 0 0 1-2-2V4c0-1.105.895-1 2-1s2-.105 2 1c0 0-.606 6.424 0 11.997C8.54 20.971 12 22 12 22c0 1.105-4.895-1-6-1zm14 4.999a2 2 0 0 1-2-2v-21c0-1.105.895-1 2-1s2-.105 2 1c0 0-.446 5.108-.125 9.297.32 4.187.125 11.703.125 11.703a2 2 0 0 1-2 2z"/><path fill="#662113" d="M36 4 0 8V4l36-2z"/><path fill="#A78E81" d="M22.644 18.406c-.633 1.126-1.363 1.809-2.16 2.193-.402.041-1.132-.085-1.417-1.443a32.187 32.187 0 0 1-.668-6.594c0-4.144.601-8.742.601-8.742 0-.929 1.412-.936 2.086-.991-.156-.832-1.749-.83-3.684-.83-1.453 0-2.256 1.074-2.402 2.301-.147 1.228-.789 6.347-.744 10 .024 1.984.154 4.161.315 6.016-.792-.201-1.585-.393-2.364-.491-2.807-.356-6.505-.535-7.129-5.881C4.584 9.712 5 4.82 5 4.82c0-.929 1.412-1.158 2.086-1.213-.156-.832-1.678-.911-3.61-.783C2.026 2.92 1.235 3.668 1 5.3.622 7.929.578 13.988.8 18.176c.124 2.338.49 10.76 4.099 14.035C7.007 34.123 10.587 35.253 15 35c4.185-.24 7.623-1.796 9.548-3.413 3.342-2.807 4.09-4.837 4.229-7.035C29 21 24.02 15.959 22.644 18.406z"/><path fill="#A78E81" d="M35.025 22.671c-2.101 3.201-6.277 4.173-10.759 1.232s-5.253-7.159-3.152-10.36 7.488-2.584 10.384-.624 5.628 6.551 3.527 9.752z"/><path fill="#E2D2C7" d="M33.271 23.178c-1.5 2.287-5.164 2.984-9.005.464s-4.419-6.001-2.918-8.288c1.5-2.287 4.294-1.921 8.135.6s5.288 4.938 3.788 7.224z"/><path fill="#292F33" d="M20.565 14.564a6.329 6.329 0 0 0-.491 3.55c1.498.439 3.637.97 4.65.759 1.646-.342 2.198-1.817 1.956-2.981-.335-1.616-3.191-2.544-6.115-1.328z"/><circle fill="#F5F8FA" cx="23.389" cy="16.576" r="1.188"/><path fill="#292F33" d="M34.307 23.581a6.329 6.329 0 0 1-3.061 1.864c-.999-1.199-2.337-2.951-2.548-3.964-.342-1.646.792-2.739 1.956-2.981 1.617-.335 3.605 1.915 3.653 5.081z"/><circle fill="#F5F8FA" cx="31.338" cy="21.792" r="1.188"/><path fill="#292F33" d="M28.047 22.475a2.376 2.376 0 1 1-3.974-2.608c.72-1.098 1.542-.41 2.639.31 1.097.72 2.055 1.2 1.335 2.298z"/><path fill="#292F33" d="M27.979 25.122a.597.597 0 0 1-.073-.005c-4.479-.654-6.297-4.07-6.372-4.216a.5.5 0 0 1 .888-.461c.017.031 1.673 3.109 5.629 3.687a.501.501 0 0 1-.072.995z"/></svg>