<svg xmlns="http://www.w3.org/2000/svg" viewBox="0 0 36 36"><path fill="#EA596E" d="M22.903 27.55c1.218-.812 2.232-.783 3.073-.058-.435-1.131-2.348-3.624-2.348-3.624l-.725 3.682z"/><path fill="#F4ABBA" d="M22.949 27.679a.733.733 0 0 1-.728-.822l.426-3.448a.73.73 0 0 1 .264-.478l4.448-3.624-7.108-3.833a.732.732 0 1 1 .696-1.289l8.072 4.353a.73.73 0 0 1 .114 1.211l-5.07 4.13-.39 3.156a.729.729 0 0 1-.724.644z"/><path fill="#E1E8ED" d="M5.38 3.523 1.476 7.427C.5 8.403.5 11.331.5 13.283s1.952 1.952 1.952 0 3.904-4.88 6.832-5.856S5.38 3.523 5.38 3.523z"/><path fill="#292F33" d="M1.476 7.427C.5 8.403.5 11.331.5 13.283s1.952 1.952 1.952 0c0-.671.461-1.456 1.184-2.238 1.383-1.495-2.16-.69-2.16-3.618z"/><path fill="#EA596E" d="M16.598 31.913c.522.87.478 2.283.283 3.087.957-.457 2.435-2.827 2.435-2.827l-2.718-.26z"/><path fill="#EA596E" d="M17.366 35.203c.928-.616 2.595-.573 3.58-.138.986.435-.681-2.529-.681-2.529l-2.435 1.507-.464 1.16z"/><path fill="#F4ABBA" d="M25.877 27.679a.731.731 0 0 1-.61-.326l-1.952-2.928a.732.732 0 0 1 1.218-.812l1.952 2.928a.732.732 0 0 1-.608 1.138zm-5.857 4.88h-2.928a.732.732 0 0 1 0-1.464h2.196V16.211a.732.732 0 0 1 1.464 0v15.616a.732.732 0 0 1-.732.732z"/><path fill="#F4ABBA" d="M20.996 35.487a.732.732 0 0 1-.695-.5l-.601-1.804-2.09 2.09a.732.732 0 1 1-1.035-1.035l2.928-2.928a.733.733 0 0 1 1.212.286l.976 2.928a.732.732 0 0 1-.695.963z"/><circle fill="#EA596E" cx="8.308" cy="4.499" r="3.904"/><path fill="#EA596E" d="M12.579 20.716c-.573 0-1.14-.098-1.688-.3-2.025-.748-3.217-2.756-3.036-5.115.223-2.908 1.853-4.853 3.164-6.415 1.175-1.402 1.833-2.241 1.696-3.203-.163-1.143-.848-1.673-1.393-1.917-1.068-.477-2.506-.286-3.666.488L6.032 1.817C8.039.479 10.524.201 12.517 1.092c1.697.759 2.826 2.281 3.096 4.176.329 2.303-1.034 3.928-2.351 5.499-1.201 1.433-2.337 2.786-2.488 4.758-.081 1.051.342 1.852 1.131 2.144.858.315 2.341.04 3.68-1.792l2.364 1.727c-1.461 1.997-3.442 3.112-5.37 3.112z"/><path fill="#EA596E" d="M15.14 17.187c-2.166-3.248 0-7.808 2.928-9.76s10.736-2.928 15.616 4.88c5.401 8.641-2.763 4.433-4.88 3.904-7.808-1.952-11.712 3.904-13.664.976z"/><circle fill="#292F33" cx="6.356" cy="4.499" r=".976"/><path fill="#EA596E" d="M9.284 6.451c1.952-.976 4.255-.997 1.327 2.907-1.171 1.562 5.282-4.671 1.957-8.175-.536-.565-4.407-1.087-5.943-.174-.982.584 2.659 5.442 2.659 5.442z"/><circle fill="#EA596E" cx="28.804" cy="19.139" r=".976"/><circle fill="#EA596E" cx="20.02" cy="24.995" r=".976"/></svg>