<svg xmlns="http://www.w3.org/2000/svg" viewBox="0 0 36 36"><path fill="#FA743E" d="M35.002 36v-2a6 6 0 0 0-6-6h-14a6 6 0 0 0-6 6v2h26z"/><path fill="#963B22" d="M25.906 2.262c-2.02-.653-6.772-.475-7.96 1.069-3.089.059-6.713 2.851-7.188 6.535-.47 3.645.578 5.338.951 8.079.422 3.106 2.168 4.099 3.564 4.515C17.281 25.114 19.416 25 23 25c7 0 10.334-4.684 10.629-12.639.178-4.812-2.645-8.456-7.723-10.099z"/><path fill="#D4AB88" d="M19 23v6a3 3 0 1 0 6 0v-6h-6z"/><path fill="#CC9B7A" d="M18.519 25.995c1.058 1.207 2.049 1.51 3.477 1.51 1.426 0 2.426-.304 3.485-1.51V22.48H18.52v3.515z"/><path fill="#D4AB88" d="M29.909 12.701c-.677-.938-1.545-1.693-3.446-1.96.713.327 1.396 1.455 1.485 2.079.089.624.178 1.129-.386.505-2.261-2.499-4.723-1.515-7.163-3.041-1.704-1.066-2.223-2.246-2.223-2.246s-.208 1.574-2.792 3.178c-.749.465-1.643 1.5-2.139 3.03C12.889 15.345 13 16.325 13 18c0 4.889 4.029 9 9 9s9-4.147 9-9c0-3.041-.319-4.229-1.091-5.299z"/><path fill="#C1694F" d="M22.002 23.802c-2.754 0-3.6-.705-3.741-.848a.655.655 0 0 1 .902-.95c.052.037.721.487 2.839.487 2.2 0 2.836-.485 2.842-.49a.638.638 0 0 1 .913.015.669.669 0 0 1-.014.938c-.141.143-.987.848-3.741.848"/><path fill="#662113" d="M18 17a1 1 0 0 1-1-1v-1a1 1 0 0 1 2 0v1a1 1 0 0 1-1 1zm8 0a1 1 0 0 1-1-1v-1a1 1 0 0 1 2 0v1a1 1 0 0 1-1 1z"/><path fill="#C1694F" d="M23 20.5h-2a.5.5 0 0 1 0-1h2a.5.5 0 0 1 0 1z"/><path fill="#DD551F" d="M8.002 28.558V36h1l.303-7.442z"/><path fill="#FA743E" d="M4.335 28.053 3.002 36h5l.721-7.588z"/><path fill="#D4AB88" d="M6.789 22.258c.923-.923 3.558-2.964 4.215-3.637.658-.672 1.53.097 1.068.918-.462.821-3.129 3.847-3.129 3.847s1.59.462 1.949.872 1.026 3.078.41 3.488-1.539.103-1.539.103-.973 2.411-3.487 2.257c-1.044-.064-2.103-.975-2.001-2.514.103-1.539.904-2.969 1.18-3.796.308-.923 1.334-1.538 1.334-1.538z"/><path d="M6.103 20.705a.531.531 0 0 1-.146-.021C3.528 19.944 3.098 17.12 3.081 17a.5.5 0 0 1 .989-.143c.003.023.362 2.316 2.178 2.869a.501.501 0 0 1-.145.979zm-1.077 2.012a.506.506 0 0 1-.148-.022C1.321 21.593.366 17.586.327 17.416a.5.5 0 1 1 .975-.224c.008.036.872 3.618 3.873 4.548a.5.5 0 0 1-.149.977z" fill="#5DADEC"/></svg>