<svg xmlns="http://www.w3.org/2000/svg" viewBox="0 0 36 36"><path fill="#E1E8ED" d="M36 36v-2a6 6 0 0 0-6-6H14a6 6 0 0 0-6 6v2h28z"/><path fill="#EA596E" d="M29.799 28.127c0 1.36-3.491 2.434-7.799 2.434-4.307 0-7.799-1.06-7.799-2.42 0-.062.015-.141.029-.141h-.734l-.705.099.006 1.017c.114 2.405 4.186 3.392 9.203 3.392 4.996 0 9.054-1.009 9.2-3.414l.014-.974c0 .002-1.415-.055-1.415.007z"/><ellipse fill="#BE1931" cx="22" cy="28.07" rx="9.214" ry="3.439"/><path fill="#292F33" d="M22 30.533c-4.307 0-7.799-1.103-7.799-2.463s3.492-2.463 7.799-2.463 7.799 1.103 7.799 2.463-3.492 2.463-7.799 2.463z"/><path fill="#AF7E57" d="M17.64 27.937c1.744 1.267 2.848 1.511 4.36 1.511 1.511 0 2.616-.245 4.36-1.511v-3.811h-8.72v3.811z"/><path fill="#9B6A49" d="M17.632 25.973c1.216 1.374 2.724 1.746 4.364 1.746 1.639 0 3.147-.372 4.364-1.746v-3.491h-8.728v3.491z"/><path fill="#60352A" d="M25.597 3.516c-1.925-.623-6.455-.453-7.588 1.019-2.944.057-6.398 2.718-6.851 6.228-.448 3.475.551 5.088.906 7.701.403 2.96 2.067 3.907 3.397 4.303 1.914 2.529 3.949 2.421 7.366 2.421 6.672 0 9.85-4.464 10.131-12.047.17-4.585-2.521-8.059-7.361-9.625z"/><path fill="#AF7E57" d="M29.413 13.466c-.646-.894-1.472-1.614-3.284-1.868.68.311 1.331 1.387 1.416 1.982.085.595.17 1.076-.368.481-2.155-2.382-4.502-1.444-6.827-2.899-1.624-1.016-2.119-2.141-2.119-2.141s-.198 1.5-2.661 3.029c-.714.443-1.566 1.43-2.038 2.888-.34 1.048-.234 1.982-.234 3.578 0 4.66 3.841 8.578 8.578 8.578s8.578-3.953 8.578-8.578c-.001-2.898-.305-4.031-1.041-5.05z"/><path fill="#915A34" d="M22.827 20.9h-1.906a.477.477 0 1 1 0-.954h1.906a.477.477 0 1 1 0 .954z"/><path fill="#662113" d="M18.062 17.564a.953.953 0 0 1-.953-.953v-.953a.953.953 0 0 1 1.906 0v.953a.953.953 0 0 1-.953.953zm7.625 0a.953.953 0 0 1-.953-.953v-.953a.953.953 0 0 1 1.906 0v.953a.953.953 0 0 1-.953.953z"/><path fill="#915A34" d="M22 24.88c-2.754 0-3.6-.705-3.741-.848a.655.655 0 0 1 .902-.95c.052.037.721.487 2.839.487 2.2 0 2.836-.485 2.842-.49a.638.638 0 0 1 .913.015.669.669 0 0 1-.014.938c-.141.143-.987.848-3.741.848"/><path fill="#55ACEE" d="M33 33v3h3v-2c0-.341-.035-.674-.09-1H33z"/><path fill="#FFCC4D" d="M34 34h2v2h-2z"/><path fill="#E1E8ED" d="M24.004 36c-1.198-5.146-6.048-9-11.857-9C6.338 27 1.488 30.854.29 36h23.714z"/><path fill="#292F33" d="M22.669 36c-1.173-4.464-5.432-7.778-10.522-7.778S2.798 31.536 1.625 36h21.044z"/><path fill="#FFAC33" d="M21.637 36c-1.148-3.937-4.956-6.833-9.49-6.833S3.805 32.063 2.657 36h18.98z"/><path fill="#FFDC5D" d="m18.195 35.048.103-.063c.769-.468.928-1.538.301-2.182a8.437 8.437 0 0 0-1.566-1.267 8.174 8.174 0 0 0-1.785-.827c-.828-.273-1.711.233-1.866 1.091-.119.661.224 1.346.855 1.578a5.786 5.786 0 0 1 2.231 1.474c.443.472 1.174.533 1.727.196z"/><path fill="#9266CC" d="m6.344 14.262-1.542-.571-.6-2.2a.667.667 0 0 0-1.286.001l-.6 2.2-1.542.571a.665.665 0 0 0 0 1.25l1.534.568.604 2.415a.667.667 0 0 0 1.294-.001l.604-2.415 1.534-.568a.665.665 0 0 0 0-1.25z"/><path fill="#5DADEC" d="m11.28 4.634-2.61-.966-.966-2.61a1.104 1.104 0 0 0-2.07 0l-.966 2.61-2.61.966a1.104 1.104 0 0 0 0 2.07l2.61.966.966 2.61a1.103 1.103 0 0 0 2.07 0l.966-2.61 2.61-.966a1.104 1.104 0 0 0 0-2.07z"/></svg>