<svg xmlns="http://www.w3.org/2000/svg" viewBox="0 0 36 36"><path fill="#D4AB88" d="M5 8.316c-1.787 0-3.476.401-5 1.102v21.16c1.53 1 3.342 1.625 5.318 1.723.016.001.031.005.047.005 5.241.23 9.807-3.307 11.006-8.177.402-1.199.629-2.479.629-3.813 0-6.627-5.374-12-12-12z"/><path fill="#662113" d="M10 22.542c1.977 0 2.5-1.636 2.5-2.5a.5.5 0 0 0-1-.003c-.003.252-.089 1.503-1.5 1.503a.5.5 0 0 0 0 1zm-2.5-2.5a.5.5 0 0 0-1-.003c-.003.252-.089 1.503-1.5 1.503a.5.5 0 0 0 0 1c1.977 0 2.5-1.636 2.5-2.5z"/><path fill="#C1694F" d="M9.995 26.542a.501.501 0 0 0-.006 1H10c.225.006.5.098.5.5s-.275.494-.506.5a.502.502 0 0 0-.49.506.497.497 0 0 0 .496.494c.602 0 1.5-.399 1.5-1.5 0-.438-.143-.765-.352-1 .209-.235.352-.562.352-1 0-1.101-.898-1.5-1.5-1.5a.5.5 0 0 0-.005 1c.23.006.505.098.505.5s-.274.494-.505.5z"/><path fill="#963B22" d="M2.543 18.54c-1.17.957-1.657 2.437-1.576 3.417 2.691-4.234 8.495-2.335 10.977-7.127 0 0 5.82 1.809 4.529 8.956 0 0 2.474-2.568 2.474-5.143 0-3.11-.994-8.87-5.534-9.725C11.019 6.245 4.857 5.054 0 6.525v13.319c.821-.799 1.704-1.29 2.543-1.304z"/><path fill="#7C533E" d="M31 8.316c-6.626 0-12 5.373-12 12 0 1.334.227 2.614.629 3.813 1.198 4.87 5.765 8.406 11.006 8.177.016-.001.031-.005.047-.005A10.636 10.636 0 0 0 36 30.578V9.418a11.926 11.926 0 0 0-5-1.102z"/><path d="M26 21.542c-1.411 0-1.497-1.251-1.5-1.503a.5.5 0 0 0-1 .003c0 .864.523 2.5 2.5 2.5a.5.5 0 0 0 0-1zm5 0c-1.411 0-1.497-1.251-1.5-1.503a.5.5 0 0 0-1 .003c0 .864.523 2.5 2.5 2.5a.5.5 0 0 0 0-1z"/><path fill="#3D2E24" d="M26.005 25.542a.501.501 0 0 0-.005-1c-.602 0-1.5.399-1.5 1.5 0 .438.143.765.352 1-.209.235-.352.562-.352 1 0 1.101.898 1.5 1.5 1.5.273 0 .493-.22.496-.494a.503.503 0 0 0-.49-.506c-.231-.006-.506-.098-.506-.5s.275-.494.5-.5h.011a.5.5 0 0 0-.006-1c-.23-.006-.505-.098-.505-.5 0-.403.274-.494.505-.5z"/><path fill="#0B0200" d="M22.588 8.918c-4.54.855-5.534 6.614-5.534 9.725 0 2.575 2.474 5.143 2.474 5.143-1.291-7.147 4.529-8.956 4.529-8.956 2.482 4.792 8.286 2.893 10.977 7.127.08-.98-.406-2.459-1.576-3.417.839.014 1.722.505 2.543 1.304V6.525c-4.858-1.471-11.02-.28-13.413 2.393z"/><path fill="#DD2E44" d="M26.539 6.711A4.711 4.711 0 0 0 21.828 2c-1.579 0-2.973.78-3.828 1.972A4.704 4.704 0 0 0 14.172 2a4.711 4.711 0 0 0-4.711 4.711c0 .369.047.727.127 1.07.654 4.065 5.173 8.353 8.411 9.529 3.238-1.177 7.758-5.465 8.412-9.528.081-.344.128-.702.128-1.071z"/></svg>