<svg xmlns="http://www.w3.org/2000/svg" viewBox="0 0 36 36"><g fill="#E1E8ED"><circle cx="4.5" cy="25.5" r="4.5"/><circle cx="25.5" cy="20.5" r="5.5"/><circle cx="31" cy="26.5" r="5"/><circle cx="12" cy="24" r="5"/><path d="M33 30a3 3 0 0 0-3 3H6a3 3 0 1 0-3 3h29v-.184c.314.112.647.184 1 .184a3 3 0 1 0 0-6z"/><path d="M0 25.5h9V33H0zM20 23h9v4h-9zm11 3.5h5V33h-5z"/></g><path d="M23.35 20c1.014.324 2.845 1.15 2.65 2.941 1.924.357 2.306 1.966 2.436 2.907.248 1.79-7.436-.198-7.436-.198l-1-3.482L23.35 20zm-10.38.5c-.769.185-2.749.5-3.64 2.793-1.99 0-2.33 2.02-2.33 3.538 0 2.253 7.336 1.955 8.495.678 1.158-1.277.784-5.36.784-5.36L12.97 20.5z" fill="#77B255"/><path fill="#7C533E" d="M32 36v-4c0-3.314-2.685-6-6-6H10a6 6 0 0 0-6 6v4h28z"/><path fill="#7C533E" d="M13.667 27.122 18 31.001l4.316-2.627L22 22h-8z"/><path fill="#664131" d="M14 24c1.216 1.374 2.355 1.719 3.996 1.719 1.639 0 2.787-.346 4.004-1.719v-4h-8v4z"/><path fill="#7C533E" d="M11.444 13.936c0 1.448-.734 2.622-1.639 2.622s-1.639-1.174-1.639-2.622.734-2.623 1.639-2.623c.905-.001 1.639 1.174 1.639 2.623m16.389 0c0 1.448-.733 2.622-1.639 2.622-.905 0-1.639-1.174-1.639-2.622s.733-2.623 1.639-2.623c.906-.001 1.639 1.174 1.639 2.623"/><path fill="#7C533E" d="M9.477 14.96c0-5.589 3.816-10.121 8.523-10.121s8.522 4.532 8.522 10.121S22.707 25.081 18 25.081c-4.707-.001-8.523-4.532-8.523-10.121"/><path fill="#3D2E24" d="M18 21.802c-2.754 0-3.6-.705-3.741-.848a.655.655 0 0 1 .902-.95c.052.037.721.487 2.839.487 2.2 0 2.836-.485 2.842-.49a.638.638 0 0 1 .913.015.669.669 0 0 1-.014.938c-.141.143-.987.848-3.741.848"/><path fill="#0B0200" d="M18 1.48c5.648 0 9.178 4.168 9.178 7.641s-.706 4.863-1.412 3.473l-1.412-2.778s-4.235 0-5.647-1.39c0 0 2.118 4.168-2.118 0 0 0 .706 2.779-3.53-.694 0 0-2.118 1.389-2.824 4.862-.196.964-1.412 0-1.412-3.473C8.822 5.648 11.646 1.48 18 1.48"/><path d="M14 15c-.55 0-1-.45-1-1v-1c0-.55.45-1 1-1s1 .45 1 1v1c0 .55-.45 1-1 1m8 0c-.55 0-1-.45-1-1v-1c0-.55.45-1 1-1s1 .45 1 1v1c0 .55-.45 1-1 1"/><path fill="#3D2E24" d="M18.75 17.75h-1.5c-.413 0-.75-.337-.75-.75s.337-.75.75-.75h1.5c.413 0 .75.337.75.75s-.337.75-.75.75"/><path fill="#77B255" d="M13.758 25.712c-.269 3.395.314 5.641.636 6.672a.805.805 0 0 1-.729 1.045c-.714.039-1.591.08-2.116.08-1 0-3.477 2.243-3.942-.193C7.143 30.88 7 28.711 7 27.909s-.158-3.166 1.167-3.17c1.817-.005 2.155-.153 2.917-.705.857-.622 2.738.879 2.674 1.678zm8.426.007c.247 3.305-.257 5.437-.553 6.44-.145.492-.261.897.099 1.237.698.66 2.007-.07 2.49-.07.92 0 2.935 2.261 3.612-.991.633-3.039.604-5.475.604-6.255s-.468-1.038-1.077-1.363c-1.486-.792-1.982-.149-2.683-.687-.788-.605-2.55.911-2.492 1.689z"/><path fill="#A6D388" d="M8.002 25.236c.156-.67.885-1.175 1.063-.623.177.55.233 3.471.295 4.387s-.608-.184-.861-.898c-.254-.714-.644-2.234-.497-2.866zm19.115-.849c-.175-.579-.846-.279-1.003.176s.021 1.692-.01 2.465c-.031.773.325.014.551-.574.227-.588.627-1.521.462-2.067zm-16.802-.852c.024-.521.923-1.192 1.004-.656.081.536.571 6.09.845 7.289.274 1.199-.196.978-.522.124s-1.401-5.186-1.327-6.757zm14.802-.853c-.245-.141-.842.207-.89.639-.047.432-.005 4.021-.202 4.982-.196.961.115.81.383.133s1.831-5.106.709-5.754z"/><path d="M32 28a5.996 5.996 0 0 0-5.911 5.009C26.058 33.008 26.03 33 26 33a4.998 4.998 0 0 0-4.578 3H33c1.65 0 3-1.35 3-3v-3.463A5.968 5.968 0 0 0 32 28zm-18.422 8A4.998 4.998 0 0 0 9 33a4.95 4.95 0 0 0-2.166.512C6.932 33.19 7 32.855 7 32.5A3.5 3.5 0 0 0 3.5 29a3.49 3.49 0 0 0-3.45 3H0v1c0 1.65 1.35 3 3 3h10.578z" opacity=".7" fill="#FFF"/></svg>