<svg xmlns="http://www.w3.org/2000/svg" viewBox="0 0 36 36"><g fill="#E1E8ED"><circle cx="4.5" cy="25.5" r="4.5"/><circle cx="25.5" cy="20.5" r="5.5"/><circle cx="31" cy="26.5" r="5"/><circle cx="12" cy="24" r="5"/><path d="M33 30a3 3 0 0 0-3 3H6a3 3 0 1 0-3 3h29v-.184c.314.112.647.184 1 .184a3 3 0 1 0 0-6z"/><path d="M0 25.5h9V33H0zM20 23h9v4h-9zm11 3.5h5V33h-5z"/></g><path fill="#AF7E57" d="M31 36v-4.5c0-3.314-3.56-5.5-6.875-5.5h-12C8.812 26 5 28.186 5 31.5V36h26z"/><path fill="#60352A" d="M17.945 3.978c4.105 0 10.947 2.053 10.947 10.947 0 8.896 0 10.948-2.053 10.948s-4.79-2.053-8.895-2.053c-4.105 0-6.785 2.053-8.895 2.053-2.287 0-2.053-8.211-2.053-10.948.001-8.894 6.844-10.947 10.949-10.947"/><path fill="#AF7E57" d="M14.5 26c1 1.982 2.792 4.5 3.5 4.5s2.512-2.549 3.5-4.5v-3.591h-7V26z"/><path fill="#9B6A49" d="M14.322 24.088c1.022 1.155 2.29 1.468 3.668 1.468 1.379 0 2.647-.312 3.67-1.468v-2.937h-7.338v2.937z"/><path fill="#AF7E57" d="M9.734 14.627c0-5.834 3.676-10.563 8.211-10.563 4.533 0 8.209 4.73 8.209 10.563s-3.676 10.285-8.209 10.285c-4.535 0-8.211-4.452-8.211-10.285"/><path fill="#DF1F32" d="M17.945 22.452c-1.606 0-2.447-.794-2.537-.885a.685.685 0 0 1 .961-.974c.035.032.551.491 1.576.491 1.038 0 1.555-.473 1.576-.492a.688.688 0 0 1 .963.02c.26.269.26.691-.004.955-.089.091-.929.885-2.535.885"/><path fill="#60352A" d="M7.735 17.909c-.021-1-.044-.224-.044-.465 0-3.422 2.053.494 2.053-1.943 0-2.439 1.368-2.683 2.736-4.051.684-.685 2.053-2.026 2.053-2.026s3.421 2.067 6.158 2.067c2.736 0 5.474 1.375 5.474 4.112 0 2.736 2.053-1.584 2.053 1.837 0 .244-.023-.531-.04.469h.719c.006-2 .006-1.924.006-3.202C28.902 5.812 22.06 2.5 17.954 2.5 13.85 2.5 7.007 5.757 7.007 14.652c0 .793-.02 1.257.008 3.257h.72z"/><path fill="#662113" d="M14.608 16.796a.85.85 0 0 1-.846-.847v-.845c0-.465.381-.846.846-.846a.85.85 0 0 1 .847.846v.845a.85.85 0 0 1-.847.847m6.765 0a.85.85 0 0 1-.846-.847v-.845c0-.465.381-.846.846-.846.465 0 .846.381.846.846v.845a.85.85 0 0 1-.846.847"/><path fill="#915A34" d="M18.836 19.409h-1.69a.424.424 0 0 1-.423-.423v-.153c0-.233.189-.424.423-.424h1.69c.233 0 .424.19.424.424v.153a.424.424 0 0 1-.424.423"/><path fill="#9266CC" d="M9.75 31.5V36h11.5v-.5h5v-4z"/><path fill="#A47DE2" d="M19.25 31.5c2 1 2 4 2 4v.5h1v-.5h3v-4h-6z"/><path fill="#744EAA" d="M20.25 31.5c2 1 2 4 2 4v.5h4v-4.5h-6z"/><path fill="#744EAA" d="M20.25 31.5H9.75v1h11.621a2.977 2.977 0 0 0-1.121-1z"/><path fill="#9266CC" d="M20.371 32.5h1a2.977 2.977 0 0 0-1.121-1h-1c.481.24.844.598 1.121 1z"/><path fill="#553788" d="M20.25 31.5c.481.24.844.598 1.121 1h4.879v-1h-6z"/><path d="M32 28a5.996 5.996 0 0 0-5.911 5.009C26.058 33.008 26.03 33 26 33a4.998 4.998 0 0 0-4.578 3H33c1.65 0 3-1.35 3-3v-3.463A5.968 5.968 0 0 0 32 28zm-18.422 8A4.998 4.998 0 0 0 9 33a4.95 4.95 0 0 0-2.166.512C6.932 33.19 7 32.855 7 32.5A3.5 3.5 0 0 0 3.5 29a3.49 3.49 0 0 0-3.45 3H0v1c0 1.65 1.35 3 3 3h10.578z" opacity=".7" fill="#FFF"/></svg>