<svg xmlns="http://www.w3.org/2000/svg" viewBox="0 0 36 36"><path fill="#DD2E44" d="M20 0c-.249 0-.478.007-.713.012C19.19.01 19.097 0 19 0 9 0 2 4.582 2 9s6.373 4 13 4c4.442 0 7.648 0 9.966-.086L25 13l6 15h2s.343-3.055 1-7c1-6 .533-21-14-21z"/><path fill="#D1D3D4" d="M1.229 13c-.318 4.094.89 6.24 1.342 9.562.552 4.056 2.832 5.353 4.655 5.896 2.623 3.465 5.411 3.317 10.092 3.317 9.141 0 13.495-6.116 13.88-16.505a14.232 14.232 0 0 0-.093-2.269H1.229z"/><path fill="#7C533E" d="M26.339 15.713c-.884-1.225-2.017-2.211-4.499-2.56.931.427 1.823 1.901 1.939 2.715.116.815.233 1.474-.504.659-2.952-3.263-6.167-1.978-9.354-3.972-2.226-1.392-2.903-2.933-2.903-2.933s-.272 2.056-3.646 4.15c-.978.607-2.145 1.959-2.793 3.956-.465 1.435-.321 2.715-.321 4.903 0 6.385 5.262 11.753 11.753 11.753s11.753-5.415 11.753-11.753c0-3.97-.416-5.521-1.425-6.918z"/><path fill="#3D2E24" d="M16 31c-2.347 0-3.575-1.16-3.707-1.293a.999.999 0 0 1 1.404-1.424c.051.047.806.717 2.303.717 1.519 0 2.273-.69 2.305-.719a1.008 1.008 0 0 1 1.408.029.994.994 0 0 1-.006 1.397C19.575 29.84 18.347 31 16 31zm1-5h-2a1 1 0 1 1 0-2h2a1 1 0 1 1 0 2z"/><path d="M11 22a1 1 0 0 1-1-1v-2a1 1 0 0 1 2 0v2a1 1 0 0 1-1 1zm10 0a1 1 0 0 1-1-1v-2a1 1 0 1 1 2 0v2a1 1 0 0 1-1 1z"/><circle fill="#F1F2F2" cx="32" cy="29" r="4"/><path fill="#F1F2F2" d="M32 12a2 2 0 0 1-2 2H2a2 2 0 0 1-2-2v-1a2 2 0 0 1 2-2h28a2 2 0 0 1 2 2v1z"/></svg>