<svg xmlns="http://www.w3.org/2000/svg" viewBox="0 0 36 36"><path fill="#D4AB88" d="M32 19.886c0-2.209-1.119-4-2.5-4-.012 0-.021.005-.033.005C27.955 9.59 23.394 5.011 18 5.011s-9.956 4.58-11.467 10.88c-.012-.001-.022-.005-.033-.005-1.381 0-2.5 1.791-2.5 4 0 2.107 1.021 3.815 2.314 3.97 1.223 6.649 5.985 10.53 11.686 10.53 5.7 0 10.463-3.881 11.685-10.53 1.294-.155 2.315-1.863 2.315-3.97z"/><path fill="#963B22" d="M33 12.65a2.49 2.49 0 0 0-1.171-2.11c.106-.277.171-.575.171-.89a2.492 2.492 0 0 0-2.193-2.469c.118-.323.193-.667.193-1.031a3 3 0 0 0-3-3c-.395 0-.77.081-1.115.22A2.994 2.994 0 0 0 23 1.15c-.87 0-1.646.376-2.194.967C20.384.971 19.292.15 18 .15s-2.384.821-2.806 1.967A2.982 2.982 0 0 0 13 1.15a2.992 2.992 0 0 0-2.884 2.22A2.984 2.984 0 0 0 9 3.15a3 3 0 0 0-3 3c0 .364.075.708.193 1.031A2.492 2.492 0 0 0 4 9.65c0 .315.065.613.171.89a2.49 2.49 0 0 0-.03 4.204c-.613.992-.479 2.596 1.08 2.774-.089 1.381 1.254 2.515 1.337.535.045-1.069.367-2.436 1.114-3.965 1.189.403 2.673.223 3.876-.134s2.29-1.004 2.538-1.189c.378 1.362 1.986 2.385 3.914 2.385 1.296 0 2.798-.346 3.528-1.063.476 1.259 2.179 1.96 4.01 1.96 1.076 0 2.534-.417 3.252-.936.287.792.551 1.387.535 2.584-.031 2.348 1.025 1.464 1.47-.134 1.421.009 1.693-1.738 1.065-2.819A2.49 2.49 0 0 0 33 12.65z"/><path fill="#C1694F" d="M18 31c-2.347 0-3.575-1.16-3.707-1.293a.999.999 0 0 1 1.404-1.424c.051.047.806.717 2.303.717 1.519 0 2.273-.69 2.305-.719a1.008 1.008 0 0 1 1.408.029.994.994 0 0 1-.006 1.397C21.575 29.84 20.347 31 18 31zm1-5h-2a1 1 0 1 1 0-2h2a1 1 0 1 1 0 2z"/><path fill="#662113" d="M13 22a1 1 0 0 1-1-1v-2a1 1 0 0 1 2 0v2a1 1 0 0 1-1 1zm10 0a1 1 0 0 1-1-1v-2a1 1 0 1 1 2 0v2a1 1 0 0 1-1 1z"/></svg>