<svg xmlns="http://www.w3.org/2000/svg" viewBox="0 0 36 36"><path fill="#CCD6DD" d="M3 16v-2h30v2zm0 7v-2h30v2zm0 7v-2h30v2zM3 9V7h30v2z"/><path fill="#D5AB88" d="M35 33V1a1 1 0 0 0-1-1h-1a1 1 0 0 0-1 1H4a1 1 0 0 0-1-1H2a1 1 0 0 0-1 1v32h34zM4 4h28v29H4V4z"/><path fill="#3B94D9" d="M19 5.5A1.5 1.5 0 0 0 17.5 7a1.5 1.5 0 1 0-3 0 1.5 1.5 0 1 0-3 0 1.5 1.5 0 1 0-3 0 1.5 1.5 0 1 0-3 0v2a1.5 1.5 0 1 0 3 0 1.5 1.5 0 1 0 3 0 1.5 1.5 0 1 0 3 0 1.5 1.5 0 1 0 3 0 1.5 1.5 0 1 0 3 0V7A1.5 1.5 0 0 0 19 5.5z"/><path fill="#BE1931" d="M19 12.5a1.5 1.5 0 0 0-1.5 1.5 1.5 1.5 0 1 0-3 0 1.5 1.5 0 1 0-3 0 1.5 1.5 0 1 0-3 0 1.5 1.5 0 1 0-3 0v2a1.5 1.5 0 1 0 3 0 1.5 1.5 0 1 0 3 0 1.5 1.5 0 1 0 3 0 1.5 1.5 0 1 0 3 0 1.5 1.5 0 1 0 3 0v-2a1.5 1.5 0 0 0-1.5-1.5z"/><path fill="#5C913B" d="M19 19.5a1.5 1.5 0 0 0-1.5 1.5 1.5 1.5 0 1 0-3 0 1.5 1.5 0 1 0-3 0 1.5 1.5 0 1 0-3 0 1.5 1.5 0 1 0-3 0v2a1.5 1.5 0 1 0 3 0 1.5 1.5 0 1 0 3 0 1.5 1.5 0 1 0 3 0 1.5 1.5 0 1 0 3 0 1.5 1.5 0 1 0 3 0v-2a1.5 1.5 0 0 0-1.5-1.5z"/><path fill="#FFAC33" d="M19 26.5a1.5 1.5 0 0 0-1.5 1.5 1.5 1.5 0 1 0-3 0 1.5 1.5 0 1 0-3 0 1.5 1.5 0 1 0-3 0 1.5 1.5 0 1 0-3 0v2a1.5 1.5 0 1 0 3 0 1.5 1.5 0 1 0 3 0 1.5 1.5 0 1 0 3 0 1.5 1.5 0 1 0 3 0 1.5 1.5 0 1 0 3 0v-2a1.5 1.5 0 0 0-1.5-1.5z"/><path fill="#3B94D9" d="M29 10.5A1.5 1.5 0 0 1 27.5 9V7a1.5 1.5 0 1 1 3 0v2a1.5 1.5 0 0 1-1.5 1.5z"/><path fill="#BE1931" d="M29 17.5a1.5 1.5 0 0 1-1.5-1.5v-2a1.5 1.5 0 1 1 3 0v2a1.5 1.5 0 0 1-1.5 1.5z"/><path fill="#5C913B" d="M29 24.5a1.5 1.5 0 0 1-1.5-1.5v-2a1.5 1.5 0 0 1 3 0v2a1.5 1.5 0 0 1-1.5 1.5z"/><path fill="#FFAC33" d="M29 31.5a1.5 1.5 0 0 1-1.5-1.5v-2a1.5 1.5 0 0 1 3 0v2a1.5 1.5 0 0 1-1.5 1.5z"/><path fill="#BF6952" d="M35 33H1a1 1 0 0 0-1 1v1a1 1 0 0 0 1 1h34a1 1 0 0 0 1-1v-1a1 1 0 0 0-1-1z"/></svg>