<svg xmlns="http://www.w3.org/2000/svg" viewBox="0 0 36 36"><path fill="#55ACEE" d="M30 9c-1-2-5-4-7-4 0 0 1.194-2.174-1-3-.987-.372-2-.5-4-.5-1.615 0-3.013.128-4 .5-2.194.826-1 3-1 3-2 0-6 2-7 4S1 30.969 1 34.5c0 1 4.632 1.43 5 .5.791-2 3-16 3-16v15c0 2 5 1 9 1s9 1 9-1V19s2.525 15.12 3 16c.499.923 5 .5 5-.5C35 30.969 31 11 30 9z"/><path fill="#269" d="M14 3c0-.552 0-1 4-1s4 .448 4 1-1.791 2-4 2-4-1.448-4-2z"/><path fill="#3B88C3" d="M18 34.5a.5.5 0 0 1-.5-.5V6a.5.5 0 0 1 1 0v28a.5.5 0 0 1-.5.5zm-4.375-.972c-1.794 0-3.564-.177-3.675-.188a.499.499 0 0 1-.447-.548.497.497 0 0 1 .548-.446c.041.003 4.044.401 5.985.007a.5.5 0 0 1 .2.981c-.72.145-1.669.194-2.611.194zm-.97-3.084c-1.378 0-2.627-.079-2.881-.096a.5.5 0 0 1-.465-.532.491.491 0 0 1 .533-.466c1.323.089 5.002.223 6.109-.219a.5.5 0 1 1 .371.927c-.763.306-2.28.386-3.667.386zm1.217-3.179c-1.65 0-3.551-.143-4.105-.188a.5.5 0 0 1 .081-.996c2.574.208 5.549.275 6.072.024a.5.5 0 1 1 .432.902c-.409.196-1.39.258-2.48.258zm-.039-3.09c-1.77 0-3.75-.208-4.08-.244a.5.5 0 0 1-.443-.552.492.492 0 0 1 .551-.442c1.344.147 5.059.438 6.091.032a.5.5 0 1 1 .367.929c-.527.208-1.472.277-2.486.277zm.047-3.524c-1.753 0-3.767-.112-4.102-.132a.5.5 0 0 1-.47-.528c.016-.275.249-.505.528-.47 1.382.08 5.187.237 6.189.012a.5.5 0 1 1 .22.975c-.475.106-1.379.143-2.365.143zm-4.073-3.276c-.27 0-.492-.371-.5-.642-.007-.276.211-.584.487-.591l6.328-.205c.246.011.506.191.513.467.007.276-.211.652-.487.659l-6.328.312h-.013zM16.552 7h-.024c-.973 0-2.588-.904-2.769-1.004a.49.49 0 0 1-.197-.671.5.5 0 0 1 .679-.194c.606.333 1.775.872 2.334.898a.487.487 0 0 1 .476.508.488.488 0 0 1-.499.463zm10.02 5.784a.5.5 0 0 1-.401-.8l2.293-3.068a.5.5 0 0 1 .801.6l-2.293 3.068a.498.498 0 0 1-.4.2z"/><path fill="#3B88C3" d="M18.044 34.5a.5.5 0 0 1-.5-.5V6a.5.5 0 0 1 1 0v28a.5.5 0 0 1-.5.5zm9.473-18.76a.5.5 0 0 1-.159-.974l3-1a.501.501 0 0 1 .317.948l-3 1a.489.489 0 0 1-.158.026zm.612 3.481a.502.502 0 0 1-.159-.975l3-1a.5.5 0 0 1 .317.948l-3 1a.46.46 0 0 1-.158.027zm.576 3.485a.502.502 0 0 1-.159-.975l3-1a.502.502 0 0 1 .633.316.502.502 0 0 1-.316.633l-3 1a.455.455 0 0 1-.158.026zm.642 3.488a.501.501 0 0 1-.143-.977l3.014-.955a.501.501 0 0 1 .302.954l-3.014.955a.494.494 0 0 1-.159.023zm.594 3.405a.502.502 0 0 1-.445-.379.502.502 0 0 1 .367-.605l3.071-.754a.501.501 0 0 1 .238.972l-3.071.754a.483.483 0 0 1-.16.012zm.577 3.439a.501.501 0 0 1-.064-.985l3.082-.706a.501.501 0 0 1 .223.975l-3.082.706a.474.474 0 0 1-.159.01zm-8.099.49c-.942 0-1.891-.049-2.61-.195a.502.502 0 0 1 .199-.981c1.943.399 5.946-.003 5.985-.007a.5.5 0 1 1 .102.994c-.113.012-1.882.189-3.676.189zm.971-3.084c-1.388 0-2.904-.08-3.667-.385a.498.498 0 0 1-.278-.649.498.498 0 0 1 .649-.278c1.108.441 4.786.309 6.109.219a.517.517 0 0 1 .532.466.499.499 0 0 1-.466.532c-.253.016-1.502.095-2.879.095zm-1.218-3.179c-1.091 0-2.071-.062-2.479-.258a.5.5 0 0 1 .432-.902c.524.251 3.497.185 6.072-.024a.5.5 0 0 1 .08.996c-.553.045-2.455.188-4.105.188zm.038-3.09c-1.014 0-1.958-.068-2.485-.276a.498.498 0 0 1-.281-.648.497.497 0 0 1 .648-.281c1.031.404 4.746.115 6.09-.032a.5.5 0 0 1 .11.994c-.332.035-2.312.243-4.082.243zm-.064-3.524c1.753 0 3.767-.112 4.102-.132a.5.5 0 0 0 .47-.528c-.016-.275-.249-.505-.528-.47-1.382.08-5.187.237-6.189.012a.499.499 0 1 0-.22.975c.476.106 1.38.143 2.365.143zm4.09-3.276h-.013l-6.328-.322c-.276-.007-.494-.315-.487-.591a.562.562 0 0 1 .513-.526l6.328.147c.276.007.494.383.487.659-.007.272-.229.633-.5.633zm-6.193-3.625a.501.501 0 0 1-.051-.998l4.818-.499a.505.505 0 0 1 .549.446.501.501 0 0 1-.445.549l-4.818.499-.053.003zm.084-3.547a.5.5 0 0 1-.188-.963c1.6-.648 6.095-.93 6.307-.942.312-.025.511.199.524.474a.499.499 0 0 1-.474.525c-1.393.072-4.783.383-5.982.869a.495.495 0 0 1-.187.037zM9.496 12.784a.5.5 0 0 0 .401-.8L7.604 8.916a.5.5 0 0 0-.8.6l2.293 3.068c.097.131.248.2.399.2zm-.944 2.956a.5.5 0 0 0 .159-.974l-3-1a.501.501 0 0 0-.317.948l3 1a.48.48 0 0 0 .158.026zm-.612 3.481a.502.502 0 0 0 .159-.975l-3-1a.5.5 0 0 0-.317.948l3 1a.457.457 0 0 0 .158.027zm-.577 3.485a.502.502 0 0 0 .159-.975l-3-1a.502.502 0 0 0-.633.316.502.502 0 0 0 .316.633l3 1a.463.463 0 0 0 .158.026zm-.641 3.488a.501.501 0 0 0 .143-.977l-3.014-.955a.501.501 0 0 0-.302.954l3.014.955a.486.486 0 0 0 .159.023zm-.595 3.405a.502.502 0 0 0 .445-.379.502.502 0 0 0-.367-.605l-3.071-.754a.501.501 0 0 0-.238.972l3.071.754a.487.487 0 0 0 .16.012zm-.577 3.439a.501.501 0 0 0 .064-.985l-3.082-.706a.501.501 0 0 0-.223.975l3.082.706a.476.476 0 0 0 .159.01zM16.025 13.75a.501.501 0 0 0 .051-.998l-4.818-.499a.505.505 0 0 0-.549.446.501.501 0 0 0 .445.549l4.818.499.053.003zm-.083-3.547a.5.5 0 0 0 .188-.963c-1.6-.648-6.095-.93-6.307-.942-.313-.026-.511.199-.525.473a.5.5 0 0 0 .474.526c1.394.072 4.783.383 5.982.869a.5.5 0 0 0 .188.037zM19.492 7a.487.487 0 1 1-.024-.976c.561-.026 1.729-.56 2.334-.892a.501.501 0 0 1 .68.199.483.483 0 0 1-.197.664C22.104 6.095 20.488 7 19.516 7h-.024z"/></svg>