<svg xmlns="http://www.w3.org/2000/svg" viewBox="0 0 36 36"><path fill="#553788" d="M35 36a.999.999 0 0 1-.948-.684C33.388 33.326 31.595 32 25 32a1 1 0 1 1 0-2c5.635 0 9.653.797 10.948 4.684A1 1 0 0 1 35 36z"/><path fill="#553788" d="M3 3h22v30H3z"/><path fill="#C1694F" d="M26 4H2c-.55 0-2-3-2-3 0-.55.45-1 1-1h26c.55 0 1 .45 1 1 0 0-1.45 3-2 3zm0 28H2c-.55 0-2 3-2 3 0 .55.45 1 1 1h26c.55 0 1-.45 1-1 0 0-1.45-3-2-3z"/><path fill="#744EAA" d="M23 7H5c-.55 0-1-.45-1-1s.45-1 1-1h18c.55 0 1 .45 1 1s-.45 1-1 1zm0 4H5c-.55 0-1-.45-1-1s.45-1 1-1h18c.55 0 1 .45 1 1s-.45 1-1 1zm0 4H5c-.55 0-1-.45-1-1s.45-1 1-1h18c.55 0 1 .45 1 1s-.45 1-1 1zm0 4H5c-.55 0-1-.45-1-1s.45-1 1-1h18c.55 0 1 .45 1 1s-.45 1-1 1zm0 4H5c-.55 0-1-.45-1-1s.45-1 1-1h18c.55 0 1 .45 1 1s-.45 1-1 1zm0 4H5c-.55 0-1-.45-1-1s.45-1 1-1h18c.55 0 1 .45 1 1s-.45 1-1 1zm0 4H5c-.55 0-1-.45-1-1s.45-1 1-1h18c.55 0 1 .45 1 1s-.45 1-1 1z"/><path fill="#9266CC" d="M17.261 7H7.739A.74.74 0 0 1 7 6.261v-.522A.74.74 0 0 1 7.739 5h9.523a.74.74 0 0 1 .738.739v.523a.74.74 0 0 1-.739.738zm0 4H7.739A.74.74 0 0 1 7 10.261v-.522A.74.74 0 0 1 7.739 9h9.523a.74.74 0 0 1 .738.739v.523a.74.74 0 0 1-.739.738zm0 4H7.739A.74.74 0 0 1 7 14.261v-.523A.74.74 0 0 1 7.739 13h9.523a.74.74 0 0 1 .738.739v.523a.74.74 0 0 1-.739.738zm0 4H7.739A.74.74 0 0 1 7 18.261v-.523A.74.74 0 0 1 7.739 17h9.523a.74.74 0 0 1 .738.739v.523a.74.74 0 0 1-.739.738zm0 4H7.739A.74.74 0 0 1 7 22.261v-.523A.74.74 0 0 1 7.739 21h9.523a.74.74 0 0 1 .738.739v.523a.74.74 0 0 1-.739.738zm0 4H7.739A.74.74 0 0 1 7 26.261v-.523A.74.74 0 0 1 7.739 25h9.523a.74.74 0 0 1 .738.739v.523a.74.74 0 0 1-.739.738zm0 4H7.739A.74.74 0 0 1 7 30.261v-.523A.74.74 0 0 1 7.739 29h9.523a.74.74 0 0 1 .738.739v.523a.74.74 0 0 1-.739.738z"/></svg>