<svg xmlns="http://www.w3.org/2000/svg" viewBox="0 0 36 36"><path fill="#F4ABBA" d="M23.27.108C25.631.042 32.366 2.7 32.366 18.25c-.147 2.005-.342 9.193-5.379 12.714h-5.33c-1.027-.44-2.445-2.249-2.445-8.362 0-1.809 1.43-6.741 1.467-8.118.081-3.042-.634-4.525-1.842-7.531C17.304 3.14 19.749.205 23.27.108z"/><path fill="#EA596E" d="M29.408 7.443c.631 1.565 4.066 13.431-2.491 13.529-1.649.13-4.613-.179-2.14-7.906.947-2.494-1.367-7.637-1.579-8.655-.316-1.516 2.263-3.13 3.999-.831 1.555 2.057 2.211 3.863 2.211 3.863z"/><path fill="#F4ABBA" d="M23.401 20.622a.823.823 0 0 1-.417-1.533c3.134-1.837 6.378-6.191 7.165-7.913a.824.824 0 0 1 1.498.685c-.886 1.936-4.356 6.613-7.831 8.648a.81.81 0 0 1-.415.113z"/><path fill="#F4ABBA" d="M31.42 17.688a.818.818 0 0 1-.195-.023c-1.504-.366-6.195-2.541-8.011-6.311a.824.824 0 0 1 1.483-.715c1.54 3.196 5.668 5.122 6.917 5.426a.823.823 0 0 1-.194 1.623zM12.338 4.963c-2.371-.066-9.137 2.603-9.137 18.224.147 2.014.344 9.235 5.403 12.772h5.354c1.032-.442 2.456-2.26 2.456-8.4 0-1.818-1.398-6.773-1.474-8.154-.186-3.401.637-4.545 1.85-7.565 1.541-3.832-.915-6.779-4.452-6.877z"/><path fill="#EA596E" d="M6.172 12.331c-.634 1.572-4.084 13.492 2.502 13.59 1.656.131 4.634-.18 2.15-7.941-.951-2.505 1.373-7.672 1.586-8.695.317-1.523-2.273-3.144-4.017-.835-1.562 2.067-2.221 3.881-2.221 3.881z"/><path fill="#F4ABBA" d="M12.206 25.569a.83.83 0 0 1-.417-.113c-3.49-2.045-6.976-6.742-7.866-8.687a.827.827 0 0 1 1.504-.688c.792 1.73 4.05 6.104 7.198 7.948a.827.827 0 0 1-.419 1.54z"/><path fill="#F4ABBA" d="M4.211 22.563a.828.828 0 0 1-.196-1.631c1.247-.303 5.361-2.219 6.89-5.391a.827.827 0 1 1 1.49.718c-1.946 4.038-6.873 6.009-7.988 6.281a.832.832 0 0 1-.196.023z"/></svg>