<svg xmlns="http://www.w3.org/2000/svg" viewBox="0 0 36 36"><g fill="#66757F"><path d="M11.945 32.885a.501.501 0 0 1-.45-.28L.652 10.624a.5.5 0 1 1 .899-.443l10.843 21.98a.501.501 0 0 1-.449.724z"/><path d="M11.944 32.885a.503.503 0 0 1-.481-.358L4.042 7.612a.502.502 0 1 1 .962-.286l7.421 24.914a.501.501 0 0 1-.481.645z"/><path d="M11.944 32.885a.502.502 0 0 1-.5-.462L9.214 4.428a.502.502 0 0 1 1-.08l2.23 27.995a.502.502 0 0 1-.46.54l-.04.002z"/><path d="M11.945 32.885a.502.502 0 0 1-.259-.931l21-12.64a.501.501 0 1 1 .517.859l-21 12.64a.506.506 0 0 1-.258.072z"/><path d="M11.944 32.885a.5.5 0 0 1-.327-.882l19.705-16.957a.502.502 0 0 1 .654.761L12.271 32.763a.494.494 0 0 1-.327.122z"/><path d="M11.944 32.885a.503.503 0 0 1-.399-.806L28.546 9.726a.503.503 0 0 1 .799.607L12.344 32.687a.505.505 0 0 1-.4.198z"/></g><path fill="#A0041E" d="M33.25 20.343s-3.106-3.669-15.62-7.34S.521 10.741.521 10.741-1.158-4.917 20.982 1.578 33.25 20.343 33.25 20.343z"/><path fill="#F4900C" d="M15.799 29.523c-.095-.427-.489-.521-.633-.196-.144.325-.214 1.356-.214 1.356s-.337-.915-.656-1.37l-.031-.047a.778.778 0 0 0-.157-.167l-.02-.013c-.246-.206-.596-.356-1.034-.485s-.813-.191-1.132-.151h-.024a.8.8 0 0 0-.222.056c-.018.006-.034.015-.052.022-.514.21-1.292.799-1.292.799s.498-.906.552-1.257c.054-.351-.328-.485-.639-.177-.31.308-1.13 2.047-1.011 2.449.119.402.788.23 1.217.097l.198-.064c-.07.395-.111.863-.02 1.321-.887 1.998-.811 3.811-.411 3.928.616.181 1.137-2.356 1.44-2.267.303.089-.524 2.461.092 2.642.4.117 1.339-1.323 1.671-3.484.324-.337.542-.752.697-1.123.045.055.091.113.132.161.29.344.759.85 1.077.576.318-.272.567-2.179.472-2.606z"/><path fill="#FFAC33" d="M14.531 28.329c-.174.592-.851 1.497-1.758 1.231s-.988-1.393-.815-1.985.511-1.742 1.798-1.365.949 1.527.775 2.119z"/><path fill="#292F33" d="M13.783 26.115c-1.729-.507-2.329 1.149-2.03 1.65.299.502.64.04 1.463.282.823.241.861.814 1.384.553.522-.26.913-1.977-.817-2.485z"/><path fill="#99AAB5" d="M14.665 28.462a.753.753 0 1 1-1.447-.425c.117-.4.472-.411.872-.294.399.118.692.319.575.719z"/><path fill="#88C9F9" d="M14.398 28.425a.489.489 0 0 1-.605.331.489.489 0 0 1-.331-.605c.076-.258.305-.266.564-.19.258.076.448.206.372.464z"/><path fill="#99AAB5" d="M13.219 28.038a.753.753 0 1 1-1.447-.425c.117-.4.472-.411.872-.294s.693.319.575.719z"/><path fill="#88C9F9" d="M12.952 28.001a.489.489 0 0 1-.605.331.489.489 0 0 1-.331-.605c.076-.258.305-.266.564-.19s.448.206.372.464z"/><path fill="#FFAC33" d="m13.093 32.695-2.284-.67a.264.264 0 0 1 .149-.507l2.284.67a.264.264 0 0 1-.149.507z"/><path fill="#F4ABBA" d="M7.156 10.73c1.122.135 2.402.336 3.854.626L11.09.012C9.606.046 8.327.244 7.228.565L7.156 10.73zm16.935 4.463a50.98 50.98 0 0 1 3.581 1.555l5.431-8.593c-.752-.864-1.721-1.721-2.951-2.552l-6.061 9.59z"/><path fill="#DD2E44" d="m24.091 15.193 6.061-9.59c-2.163-1.461-5.128-2.84-9.17-4.026S13.7-.05 11.09.011l-.08 11.344c1.907.38 4.095.907 6.62 1.647a77.56 77.56 0 0 1 6.461 2.191z"/></svg>