<svg xmlns="http://www.w3.org/2000/svg" viewBox="0 0 36 36"><path fill="#FFE8B6" d="M17.483 30.971a1.078 1.078 0 0 1-1.168-.93L13.427 5.136c-.069-.57.676-1.133 1.657-1.22.981-.087 1.811.336 1.844.909l1.541 25.024a1.08 1.08 0 0 1-.986 1.122zm4.199-.146a1.077 1.077 0 0 1-1.058-1.051l-.192-25.071c-.007-.574.791-1.054 1.773-1.034.982.019 1.76.528 1.731 1.102l-1.157 25.045a1.075 1.075 0 0 1-1.097 1.009zm4.185.306a1.077 1.077 0 0 1-.939-1.158l2.501-24.947c.054-.572.899-.963 1.873-.838.974.124 1.694.714 1.603 1.281l-3.839 24.776a1.076 1.076 0 0 1-1.199.886z"/><path fill="#D99E82" d="M19.582 30.841a1.077 1.077 0 0 1-1.114-.992L16.927 4.825c-.038-.573.734-1.095 1.717-1.128.983-.034 1.788.433 1.789 1.007l.192 25.071a1.078 1.078 0 0 1-1.043 1.066zm4.197.081a1.076 1.076 0 0 1-.999-1.106l1.157-25.045c.024-.574.846-1.01 1.825-.938.979.071 1.729.622 1.669 1.193L24.93 29.973a1.079 1.079 0 0 1-1.151.949z"/><path fill="#BE1931" d="m29.781 31.803-1.033-.159a2.095 2.095 0 0 1-1.747-2.383l3.495-22.715a2.095 2.095 0 0 1 2.383-1.747l1.033.159a2.095 2.095 0 0 1 1.747 2.383l-3.495 22.715a2.096 2.096 0 0 1-2.383 1.747z"/><circle fill="#F5F8FA" cx="33.276" cy="9.088" r="1.045"/><circle fill="#F5F8FA" cx="33.276" cy="9.088" r="1.045"/><circle fill="#F5F8FA" cx="32.799" cy="12.186" r="1.045"/><circle fill="#F5F8FA" cx="32.322" cy="15.283" r="1.045"/><circle fill="#F5F8FA" cx="31.846" cy="18.381" r="1.045"/><circle fill="#F5F8FA" cx="31.369" cy="21.478" r="1.045"/><circle fill="#F5F8FA" cx="30.893" cy="24.576" r="1.045"/><circle fill="#F5F8FA" cx="30.416" cy="27.673" r="1.045"/><path fill="#BE1931" d="M14.591 31.252 5.25 32.318a2.096 2.096 0 0 1-2.313-1.839L.331 7.645A2.095 2.095 0 0 1 2.17 5.332l9.341-1.066a2.096 2.096 0 0 1 2.313 1.839l2.606 22.834a2.095 2.095 0 0 1-1.839 2.313z"/><path fill="#F5F8FA" d="m7.891 7.833-5.542.633a.87.87 0 0 1-.96-.764l-.04-.352a.87.87 0 0 1 .764-.96l5.541-.632a.87.87 0 0 1 .96.764l.04.352a.87.87 0 0 1-.763.959zm.355 3.114-5.541.633a.87.87 0 0 1-.96-.764l-.04-.352a.869.869 0 0 1 .763-.96l5.541-.632a.87.87 0 0 1 .96.764l.04.352a.868.868 0 0 1-.763.959zm.355 3.114-5.541.632a.87.87 0 0 1-.96-.764l-.04-.352a.87.87 0 0 1 .764-.96l5.541-.632a.87.87 0 0 1 .96.764l.04.352a.87.87 0 0 1-.764.96zm.356 3.114-5.541.632a.87.87 0 0 1-.96-.764l-.04-.352a.87.87 0 0 1 .764-.96l5.541-.632a.87.87 0 0 1 .96.764l.04.352a.87.87 0 0 1-.764.96zm.355 3.113-5.541.632a.87.87 0 0 1-.96-.764l-.04-.352a.87.87 0 0 1 .764-.96l5.541-.632a.87.87 0 0 1 .96.764l.04.352a.87.87 0 0 1-.764.96zm.355 3.114-5.541.632a.87.87 0 0 1-.96-.764l-.04-.352a.87.87 0 0 1 .764-.96l5.541-.632a.87.87 0 0 1 .96.764l.04.352a.87.87 0 0 1-.764.96zm.356 3.114-5.541.632a.87.87 0 0 1-.96-.764l-.04-.352a.87.87 0 0 1 .764-.96l5.541-.632a.87.87 0 0 1 .96.764l.04.352a.87.87 0 0 1-.764.96zm.355 3.114-5.541.632a.87.87 0 0 1-.96-.764l-.04-.352a.87.87 0 0 1 .764-.96l5.541-.632a.87.87 0 0 1 .96.764l.04.352a.87.87 0 0 1-.764.96z"/><path fill="#292F33" d="m5.582 9.148 2.427-.277a.87.87 0 0 0 .764-.96l-.04-.352a.87.87 0 0 0-.96-.764l-2.428.277a.87.87 0 0 0-.764.96l.04.352a.87.87 0 0 0 .961.764zm.355 3.114 2.427-.277a.87.87 0 0 0 .764-.96l-.04-.352a.87.87 0 0 0-.96-.764l-2.428.277a.87.87 0 0 0-.764.96l.04.352a.871.871 0 0 0 .961.764zm.711 6.228 2.427-.277a.87.87 0 0 0 .764-.96l-.04-.353a.87.87 0 0 0-.96-.764l-2.427.277a.87.87 0 0 0-.764.96l.04.352a.87.87 0 0 0 .96.765zm.355 3.113 2.427-.277a.87.87 0 0 0 .764-.96l-.04-.352a.87.87 0 0 0-.96-.764l-2.427.277a.87.87 0 0 0-.764.96l.04.352a.87.87 0 0 0 .96.764zm.355 3.114 2.427-.277a.87.87 0 0 0 .764-.96l-.04-.352a.87.87 0 0 0-.96-.764l-2.427.277a.87.87 0 0 0-.764.96l.04.352a.87.87 0 0 0 .96.764zm.711 6.228 2.427-.277a.87.87 0 0 0 .764-.96l-.04-.352a.87.87 0 0 0-.96-.764l-2.427.277a.87.87 0 0 0-.764.96l.04.352a.87.87 0 0 0 .96.764z"/><path fill="#A0041E" d="m10.103 6.529 2.252-.257a.435.435 0 0 0 .382-.48l-.02-.176a.435.435 0 0 0-.48-.382l-2.252.258a.435.435 0 0 0-.382.48l.02.176a.434.434 0 0 0 .48.381zm.237 2.076 2.252-.257a.435.435 0 0 0 .382-.48l-.02-.176a.435.435 0 0 0-.48-.382l-2.252.257a.436.436 0 0 0-.382.481l.02.176a.435.435 0 0 0 .48.381zm.237 2.076 2.252-.257a.435.435 0 0 0 .382-.48l-.02-.176a.435.435 0 0 0-.48-.382l-2.252.257a.435.435 0 0 0-.382.48l.02.176a.435.435 0 0 0 .48.382zm.237 2.076 2.252-.257a.435.435 0 0 0 .382-.48l-.02-.176a.435.435 0 0 0-.48-.382l-2.252.257a.435.435 0 0 0-.382.48l.02.176a.435.435 0 0 0 .48.382zm.237 2.076 2.252-.257a.435.435 0 0 0 .382-.48l-.02-.176a.435.435 0 0 0-.48-.382l-2.252.257a.435.435 0 0 0-.382.48l.02.176a.435.435 0 0 0 .48.382zm.237 2.076 2.252-.257a.435.435 0 0 0 .382-.48l-.02-.176a.435.435 0 0 0-.48-.382l-2.252.257a.435.435 0 0 0-.382.48l.02.176a.435.435 0 0 0 .48.382zm.237 2.075 2.252-.257a.435.435 0 0 0 .382-.48l-.02-.176a.435.435 0 0 0-.48-.382l-2.252.257a.435.435 0 0 0-.382.48l.02.176c.026.238.243.41.48.382zm.237 2.076 2.252-.257a.435.435 0 0 0 .382-.48l-.02-.176a.435.435 0 0 0-.48-.382l-2.252.257a.435.435 0 0 0-.382.48l.02.176a.433.433 0 0 0 .48.382zm.236 2.076 2.252-.257a.435.435 0 0 0 .382-.48l-.02-.176a.435.435 0 0 0-.48-.382l-2.252.257a.435.435 0 0 0-.382.48l.02.176a.435.435 0 0 0 .48.382zm.237 2.076 2.252-.257a.435.435 0 0 0 .382-.48l-.02-.176a.435.435 0 0 0-.48-.382l-2.252.257a.435.435 0 0 0-.382.48l.02.176a.435.435 0 0 0 .48.382zm.237 2.076 2.252-.257a.435.435 0 0 0 .382-.48l-.02-.176a.435.435 0 0 0-.48-.382l-2.252.257a.435.435 0 0 0-.382.48l.02.176a.435.435 0 0 0 .48.382zm.237 2.076 2.252-.257a.435.435 0 0 0 .382-.48l-.02-.176a.435.435 0 0 0-.48-.382l-2.252.257a.435.435 0 0 0-.382.48l.02.176a.435.435 0 0 0 .48.382z"/></svg>