<svg xmlns="http://www.w3.org/2000/svg" viewBox="0 0 36 36"><path fill="#B52E04" d="m12.691 34.484.008.008 4.59-10.124-5.657-5.657-10.124 4.59.008.008a2.087 2.087 0 0 0-.491.352c-1.562 1.562-.296 5.361 2.828 8.485s6.923 4.391 8.485 2.828c.145-.143.256-.311.353-.49z"/><path fill="#662113" d="M9.376 17.519c.545-1.059 3.556.521 6.07 3.035s4.047 5.549 3.035 6.07c-1.054.542-3.556-.521-6.07-3.035s-3.578-5.016-3.035-6.07z"/><path fill="#662113" d="M9.864 18.15a.501.501 0 0 1-.443-.732l8.485-16.263a.5.5 0 1 1 .887.463l-8.485 16.263a.5.5 0 0 1-.444.269zm8.486 8.486a.502.502 0 0 1-.232-.944l16.264-8.485a.5.5 0 1 1 .463.887l-16.264 8.485a.505.505 0 0 1-.231.057z"/><path fill="#C1694F" d="M10.218 17.297c.531-1.04 3.314.485 5.657 2.828s3.729 5.197 2.828 5.657c-.984.502-3.314-.485-5.657-2.828s-3.33-4.673-2.828-5.657z"/><path fill="#C1694F" d="M18.34 1.377 34.623 17.66l-15.92 8.122-8.485-8.485z"/><path fill="#662113" d="M34.021 18.262c-1.928 1.928-7.344-1.494-11.066-5.216S15.811 3.908 17.739 1.98c2.715-2.715 7.219.099 11.701 4.581s7.296 8.986 4.581 11.701z"/><path fill="#BE1931" d="M34.691 17.592c-1.806 1.806-6.616-.673-11.113-5.17s-6.975-9.307-5.17-11.113c2.543-2.543 6.993.324 11.476 4.807s7.35 8.933 4.807 11.476z"/><ellipse transform="rotate(-45.001 26.835 9.166)" fill="#662113" cx="26.835" cy="9.165" rx="4" ry="11.5"/><path fill="#D99E82" d="M24.89 11.11c4.114 4.114 8.502 6.508 10.337 5.758 1.471-2.612-1.258-6.666-5.344-10.751C25.798 2.032 21.744-.697 19.132.773c-.75 1.835 1.645 6.223 5.758 10.337z"/><ellipse transform="rotate(-45.001 27.896 8.105)" fill="#FFE8B6" cx="27.896" cy="8.104" rx="3" ry="10.5"/><path fill="#662113" d="M13.046 23.454a.5.5 0 0 1-.354-.853l11.314-11.314a.5.5 0 0 1 .707.707L13.4 23.308a.502.502 0 0 1-.354.146zm-1.556-1.556a.5.5 0 0 1-.408-.789l9.545-13.505a.5.5 0 0 1 .816.577l-9.545 13.506a.495.495 0 0 1-.408.211zm3.113 3.112a.498.498 0 0 1-.289-.908l13.505-9.546a.5.5 0 0 1 .578.817l-13.506 9.546a.506.506 0 0 1-.288.091zm-4.244-4.95a.5.5 0 0 1-.435-.744l8.485-15.132a.5.5 0 0 1 .872.49l-8.486 15.131a.499.499 0 0 1-.436.255zm6.082 6.081a.5.5 0 0 1-.246-.937l15.132-8.485a.5.5 0 0 1 .489.872l-15.131 8.486a.506.506 0 0 1-.244.064z"/></svg>