<svg xmlns="http://www.w3.org/2000/svg" viewBox="0 0 36 36"><path fill="#CCD6DD" d="m5.833 6.748 5.657-5.657.707 2.122 2.122.707.707 2.121 2.121.707.707 2.121 2.121.708-5.656 5.656z"/><path d="M11.844 4.273 7.248 8.869a.5.5 0 0 1-.707-.707l4.596-4.596a.5.5 0 0 1 .707.707zm1.414 1.415-4.596 4.596a.5.5 0 0 1-.707-.707l4.596-4.596a.5.5 0 0 1 .707.707zm1.414 1.414-4.596 4.596a.5.5 0 0 1-.707-.707l4.596-4.596a.5.5 0 0 1 .707.707zm1.414 1.414-4.596 4.596a.5.5 0 0 1-.707-.707l4.596-4.596a.5.5 0 0 1 .707.707zm1.415 1.414-4.596 4.596a.5.5 0 0 1-.707-.707l4.596-4.596a.5.5 0 0 1 .707.707z" fill="#99AAB5"/><path fill="#289193" d="M31.996 34.325a2.005 2.005 0 0 1-2.828 0L11.49 16.648a2.005 2.005 0 0 1 0-2.828 2.005 2.005 0 0 1 2.828 0l17.678 17.678c.778.777.778 2.05 0 2.827z"/><path fill="#3DB8C1" d="M15.026 17.355a2.005 2.005 0 0 1-2.828 0L3.712 8.869a1.003 1.003 0 0 1 0-1.414l1.414-1.414a1.003 1.003 0 0 1 1.414 0l8.485 8.485c.779.778.779 2.051.001 2.829z"/></svg>