<svg xmlns="http://www.w3.org/2000/svg" viewBox="0 0 36 36"><path fill="#D99E82" d="M10.481 25.519a1.82 1.82 0 0 1 0-2.567L32.433 1A1.82 1.82 0 0 1 35 1a1.82 1.82 0 0 1 0 2.567L13.048 25.519a1.82 1.82 0 0 1-2.567 0z"/><path fill="#DD637F" d="m15.009 24.848-3.901-3.901a1.505 1.505 0 0 1 0-2.121l.298-.298a1.505 1.505 0 0 1 2.121 0l3.901 3.901a1.505 1.505 0 0 1 0 2.121l-.298.298a1.505 1.505 0 0 1-2.121 0z"/><path fill="#DD637F" d="M2.95 22.466c3.118-3.118 8.004-3.286 10.915-.376s2.742 7.797-.376 10.915L2.95 22.466z"/><path fill="#BF345D" d="m11.922 34.664-10.63-10.63a1.003 1.003 0 0 1 0-1.414l.199-.199a1.003 1.003 0 0 1 1.414 0l10.63 10.63a1.003 1.003 0 0 1 0 1.414l-.199.199a1.003 1.003 0 0 1-1.414 0zm4.862-9.587-5.905-5.905a1.474 1.474 0 0 0-.029 1.385l4.548 4.548c.441.223.952.211 1.386-.028z"/><path fill="#EB8CAA" d="M6 25c3-3 5.5-3.5 5.5-3.5S7 20 4 23l2 2z"/></svg>