<svg xmlns="http://www.w3.org/2000/svg" viewBox="0 0 36 36"><path fill="#DD637F" d="M32.407 22.743c-1.024-2.991-2.742-5.684-4.518-8.275-1.027-1.498-2.107-2.966-3.09-4.493-.666-1.034-1.669-2.643-1.077-3.916.407-.875 1.495-1.092 2.336-.781 1.492.551 2.009 2.31 2.101 3.733.174 2.697 4.404 2.723 4.531 0 .174-3.702-2.184-7.239-5.842-8.172-3.679-.939-7.597 1.497-8.099 5.303-.508 3.857 2.49 7.148 4.529 10.094 1.952 2.82 3.963 5.727 4.793 9.104.347 1.413.691 3.337-.163 4.634-.68 1.034-2.007.675-2.986.262-1.59-.671-1.976-1.979-2.156-3.601-.212-1.915-.241-3.84-.632-5.734-.73-3.533-2.647-7.084-6.106-8.534-3.431-1.44-7.713-1.578-10.728.873-3.472 2.822-3.656 7.694-2.457 11.668 1.238 4.101 4.069 7.995 8.697 8.183 2.66.108 3.307-3.749.644-4.377-2.879-.679-4.077-3.502-4.707-6.144-.541-2.271-.381-5.801 2.429-6.429 2.481-.555 4.979.657 6.158 2.834 1.504 2.777 1.311 5.923 1.782 8.949.526 3.383 2.661 5.989 6.052 6.823 3.06.753 6.511.167 8.259-2.692 1.685-2.753 1.249-6.395.25-9.312z"/><path fill="#EF8EA7" d="M16.763 14.112c1.278.804 3.358 3.594 3.876 5.97.535 2.45.585 4.058.535 6.037-.045 1.775-.998 1.634-.958 0s-.206-3.902-.652-5.595c-.446-1.693-1.821-4.63-3.425-5.343l-7.908-.713s-2.982.6-3.787 6.015c-.245 1.649-.792 1.115-.757-.401.034-1.516.601-5.48 4.344-6.861 0 0 8.91.535 8.732.891z"/><path opacity=".85" fill="#BF345D" d="M25.839 12.78c.23-.071.464-.149.697-.235-.328-.467-.643-.943-.964-1.414-.115.041-.227.085-.347.12a8.842 8.842 0 0 1-2.106.344 9.323 9.323 0 0 1-3.296-.493c.345.664.746 1.311 1.17 1.941.73.131 1.471.2 2.2.173a10.4 10.4 0 0 0 2.646-.436zm1.215 4.956a9.929 9.929 0 0 0 2.187-.946l.128-.074a62.191 62.191 0 0 0-.914-1.399c-.593.352-1.208.655-1.871.849-.651.19-1.32.301-1.999.315-.397.008-.801-.044-1.202-.081.382.552.764 1.109 1.14 1.672.044 0 .088.009.132.009a8.883 8.883 0 0 0 2.399-.345zm4.876 3.769a24.73 24.73 0 0 0-.692-1.509 8.757 8.757 0 0 1-2.154.919 9.01 9.01 0 0 1-2.249.336c-.132.002-.262-.007-.393-.012.274.517.535 1.04.766 1.576.814-.025 1.635-.125 2.415-.344a10.552 10.552 0 0 0 2.307-.966zm1.33 6.772c.032-.556.024-1.116-.024-1.676-.946.1-1.887.132-2.865-.049a10.02 10.02 0 0 1-2.171-.651c.126.584.228 1.223.242 1.852.524.175 1.056.325 1.601.415 1.027.169 2.141.234 3.217.109zm-13.201-1.306c.721-.56 1.667-.921 2.639-1.097-.049-.542-.095-1.084-.139-1.626-.409.01-.818.057-1.224.164a7.233 7.233 0 0 0-2.503 1.218c-.425.318-.796.708-1.137 1.121.044.399.094.797.155 1.192.083.536.221 1.044.384 1.538.149-.371.295-.735.523-1.092.36-.563.758-.996 1.302-1.418zm-1.349-5.26c1.01-.692 2.147-1.031 3.325-1.204a15.956 15.956 0 0 0-.472-1.623c-1.36.072-2.721.56-3.82 1.306a8.953 8.953 0 0 0-.903.722c.208.703.351 1.42.456 2.147a6.435 6.435 0 0 1 1.414-1.348zm-1.361-4.906a6.64 6.64 0 0 1 1.624-.949c.301-.115.616-.191.931-.255a10.07 10.07 0 0 0-1.303-1.506 6.938 6.938 0 0 0-1.474.636c-1.05.623-1.923 1.469-2.685 2.413.493.365.925.81 1.283 1.324.441-.636 1.049-1.199 1.624-1.663zm-9.905-2.136c-.27-.748-.414-1.522-.366-2.319.004-.068.021-.132.029-.199a8.095 8.095 0 0 0-1.802 1.107c-.03.024-.055.051-.084.076a7.22 7.22 0 0 0 .341 1.731c.404 1.191 1.111 2.355 1.992 3.327.224-.653.579-1.228 1.106-1.644-.02-.025-.045-.045-.065-.07-.476-.613-.888-1.278-1.151-2.009zm-4.67 2.233c-.281.796-.46 1.631-.54 2.485.409.428.842.814 1.257 1.138 1.164.909 2.52 1.585 3.958 1.905a9.177 9.177 0 0 1-.21-1.842 10.169 10.169 0 0 1-2.254-1.273c-.836-.634-1.692-1.453-2.211-2.413zm.582 7.08a5.909 5.909 0 0 1-.827-.301c.092.422.196.84.318 1.246.089.295.189.588.294.88.727.146 1.467.211 2.162.212a13.046 13.046 0 0 0 3.234-.417 11.429 11.429 0 0 1-.651-1.6c-.799.135-1.602.241-2.418.24a8.409 8.409 0 0 1-2.112-.26zm1.681 5.315c-.026.007-.053.011-.079.018.372.516.785.993 1.232 1.428.662-.22 1.314-.476 1.93-.798a11.15 11.15 0 0 0 2.572-1.863 5.36 5.36 0 0 1-1.297-1.16 12.877 12.877 0 0 1-2.169 1.491c-.698.374-1.426.672-2.189.884zM24.163 8.922c-.277-.519-.507-1.081-.582-1.637a8.575 8.575 0 0 1-2.33-.317 8.858 8.858 0 0 1-2.041-.883c-.137-.08-.261-.177-.393-.264-.021.113-.049.223-.065.339a6.73 6.73 0 0 0-.021 1.526c.448.245.915.455 1.403.636 1.266.47 2.661.678 4.029.6zm-1.86-5.826c.107.854.462 1.6.984 2.281.157.205.321.412.491.614.316-.576.941-.839 1.572-.826a4.076 4.076 0 0 1-.314-.356c-.418-.522-.782-1.048-.922-1.71a1.585 1.585 0 0 1-.028-.32 4.32 4.32 0 0 1 .012-.455A2.875 2.875 0 0 1 24.84.669a6.703 6.703 0 0 0-2.3.568 3.878 3.878 0 0 0-.237 1.859zm5.35.831a5 5 0 0 0-1.434 1.449c.579.262 1.001.711 1.299 1.251.017-.037.028-.077.048-.113.281-.519.697-.964 1.147-1.235a3.687 3.687 0 0 1 1.868-.537c.351-.006.709.01 1.056.06.041.006.081.015.122.022a8.062 8.062 0 0 0-1.238-1.762c-.041.001-.084-.003-.124-.001-.972.047-1.931.323-2.744.866zm2.108 29.766a6.536 6.536 0 0 1-.334-.332l-.13-.143-.082-.097a7.225 7.225 0 0 1-.786-1.228l-.04-.081a5.854 5.854 0 0 1-.385-1.201c-.044-.212-.042-.475-.032-.735-.022.038-.036.079-.06.116-.436.662-1.137.75-1.842.621.022.216.052.42.083.582.145.759.455 1.498.842 2.164.317.545.732 1.04 1.184 1.485a6.647 6.647 0 0 0 1.989-.804l-.051-.039a6.49 6.49 0 0 1-.356-.308zm-6.593-2.765a7.21 7.21 0 0 1 .881-1.211c-.51-.431-.815-.981-1.005-1.62-.643.576-1.185 1.294-1.57 1.92-.509.831-.872 1.725-.971 2.699-.009.091-.001.188-.005.282a7.697 7.697 0 0 0 2.201 1.378c-.118-.472-.224-.943-.208-1.446.024-.713.327-1.393.677-2.002z"/><path fill="#BF345D" d="M8.543 10.815c1.604-.757 6.861-.757 9 1.292-.089.98-2.871 6.032-3.876 5.347-.98-.668-2.495-.802-4.144-.446-.936-.356-2.435-5.506-.98-6.193z"/><path fill="#D65073" d="M11.885 14.58c1.76.156 3.096.802 3.787 1.158.06-.055.119-.116.173-.178.48-.731.927-1.539 1.243-2.211l.032-.084c-.98-.891-3.257-1.565-5.69-1.562-2.241.003-3.493.795-3.493.795s-.127.829.475 2.558c.001.001 1.465-.654 3.473-.476z"/></svg>