<svg xmlns="http://www.w3.org/2000/svg" viewBox="0 0 36 36"><path fill="#F4ABBA" d="M24.625 19.219 20 14.32V3a2 2 0 0 0-4 0v11.32l-4.625 4.9a1 1 0 1 0 1.249 1.561C12.625 20.781 16 17 18 17s5.375 3.781 5.375 3.781a1.001 1.001 0 0 0 1.25-1.562z"/><path fill="#EA596E" d="M24.781 19.625a1.001 1.001 0 0 1-1.406.156S20 16 18 16s-5.375 3.781-5.375 3.781A.995.995 0 0 1 12 20a.996.996 0 0 1-.781-.375c-.033-.042-.044-.091-.07-.136A.993.993 0 0 0 12 21c.219 0 .44-.071.624-.219C12.625 20.781 16 17 18 17s5.375 3.781 5.375 3.781a1.001 1.001 0 0 0 1.406-.156.997.997 0 0 0 .07-1.136c-.026.045-.037.095-.07.136z"/><path fill="#DD2E44" d="M13.36 9.023c-.811-2.656-3.881-3.427-8.079 2.139-1.842 2.442-3.555 6.594-3.499 10.737.054 3.996-1.431 6.788-.065 10.59.633 1.762 6.119 2.911 10.158.416 1.691-1.044 2.792-2.257 2.495-3.98-.487-2.826-.495-4.843-.119-8.554.475-4.694.072-8.192-.891-11.348z"/><path fill="#EA596E" d="M13.36 9.023c-.811-2.656-3.881-3.427-8.079 2.139-1.842 2.442-3.555 6.594-3.499 10.737.054 3.996-1.431 6.788-.065 10.59 1.545-2.436 6 .178 10.04-2.317 1.691-1.044 2.28-3.56 2.242-4.693-.049-1.464.041-3.017.253-5.109.474-4.693.071-8.191-.892-11.347z"/><path fill="#DD2E44" d="M22 9.075c.04-2.777 3.003-3.141 7.459.958 2.483 2.284 4.044 6.757 4.871 11.584.832 4.856.387 10.182-.119 11.525-.614 1.628-5.371 2.294-8.673.119-2.128-1.401-3.455-3.863-3.03-6.772 1.129-7.723-.653-7.248-.508-17.414z"/><path fill="#EA596E" d="M22 9.075c.04-2.777 3.003-3.141 7.459.958 2.483 2.284 4.044 6.757 4.871 11.584.832 4.856.387 10.182-.119 11.525-.297-3.089-3.683-1.426-7.307-3.03-1.089-.482-1.515-.926-1.426-3.327.119-3.208-2.598-2.198-2.598-4.34.001-3.97-.994-5.397-.88-13.37zm-2.25-5.559a.467.467 0 0 1-.348-.155c-.012-.013-.444-.451-1.402-.451s-1.389.437-1.407.456a.47.47 0 0 1-.658.022.464.464 0 0 1-.032-.652c.07-.078.723-.761 2.097-.761s2.027.683 2.098.76a.468.468 0 0 1-.348.781zm0 3a.467.467 0 0 1-.348-.155c-.012-.013-.444-.451-1.402-.451s-1.389.437-1.407.456c-.177.185-.471.196-.658.022s-.203-.462-.032-.652c.07-.078.723-.761 2.097-.761s2.027.683 2.098.76a.468.468 0 0 1-.348.781zm0 3a.467.467 0 0 1-.348-.155c-.012-.013-.444-.451-1.402-.451s-1.389.437-1.407.456a.47.47 0 0 1-.658.022.464.464 0 0 1-.032-.652c.07-.078.723-.761 2.097-.761s2.027.683 2.098.76a.468.468 0 0 1-.348.781zm0 3a.467.467 0 0 1-.348-.155c-.012-.013-.444-.451-1.402-.451s-1.389.437-1.407.456c-.177.185-.471.196-.658.022s-.203-.462-.032-.652c.07-.078.723-.761 2.097-.761s2.027.683 2.098.76a.468.468 0 0 1-.348.781z"/></svg>