<svg xmlns="http://www.w3.org/2000/svg" viewBox="0 0 36 36"><path fill="#292F33" d="M16 5h4v3h-4z"/><path fill="#8899A6" d="M22 1h-8c-1.1 0-2 .9-2 2s.9 2 2 2h8c1.1 0 2-.9 2-2s-.9-2-2-2zm6.184 10.507-1.504-1.318a2.006 2.006 0 0 1-.186-2.822 2.006 2.006 0 0 1 2.822-.186l1.504 1.318c.827.725.911 1.995.186 2.822a2.006 2.006 0 0 1-2.822.186z"/><circle fill="#F5F8FA" cx="18" cy="21" r="11"/><path fill="#66757F" d="M18 7C10.268 7 4 13.268 4 21s6.268 14 14 14 14-6.268 14-14S25.732 7 18 7zm0 25c-6.065 0-11-4.935-11-11s4.935-11 11-11 11 4.935 11 11-4.935 11-11 11z"/><path fill="#292F33" d="M27 22H17a1 1 0 1 1 0-2h10a1 1 0 1 1 0 2z"/><circle fill="#292F33" cx="18" cy="12" r="1"/><circle fill="#292F33" cx="18" cy="30" r="1"/><circle fill="#292F33" cx="12" cy="15" r="1"/><circle fill="#292F33" cx="24" cy="27" r="1"/><circle fill="#292F33" cx="9" cy="21" r="1"/><circle fill="#292F33" cx="24" cy="15" r="1"/><path fill="#DD2E44" d="M12 28a.999.999 0 0 1-.707-1.707l7-7a.999.999 0 1 1 1.414 1.414l-7 7A.997.997 0 0 1 12 28z"/></svg>