<svg xmlns="http://www.w3.org/2000/svg" viewBox="0 0 36 36"><path fill="#9266CC" d="M36 32a4 4 0 0 1-4 4H4a4 4 0 0 1-4-4V4a4 4 0 0 1 4-4h28a4 4 0 0 1 4 4v28z"/><g fill="#FFF"><path d="m32.664 18.705-3.959-1.596.295-4.258-2.742 3.272-3.959-1.596 2.265 3.617-2.741 3.273 4.141-1.035L28.228 24l.295-4.258z"/><path d="M28.228 24.5a.5.5 0 0 1-.424-.234l-2.071-3.311-3.788.947a.5.5 0 0 1-.505-.807l2.509-2.994-2.073-3.309a.5.5 0 0 1 .61-.729l3.622 1.459 2.51-2.993a.5.5 0 0 1 .882.356l-.271 3.896 3.622 1.459a.5.5 0 0 1-.066.949l-3.788.948-.271 3.896a.502.502 0 0 1-.498.467zm-2.264-4.618a.5.5 0 0 1 .424.234l1.447 2.314.189-2.724a.502.502 0 0 1 .378-.451l2.647-.663-2.531-1.02a.5.5 0 0 1-.312-.499l.188-2.723-1.754 2.092a.499.499 0 0 1-.569.143l-2.531-1.02 1.448 2.312a.5.5 0 0 1-.04.586l-1.754 2.094 2.648-.662a.64.64 0 0 1 .122-.013z"/></g><path fill="#FFF" d="M27.093 28.209a10.97 10.97 0 0 1-4.093.799c-6.065 0-11-4.926-11-10.992S16.935 7.033 23 7.033c1.401 0 2.778.301 4.092.828.122.05.385.136.392.139.641.281 1.859-1.031.471-2.015A14.854 14.854 0 0 0 19 3C10.729 3 4 9.729 4 18s6.729 15 15 15c3.295 0 6.432-1.061 9.07-3.07a1 1 0 0 0 .265-1.288 1.002 1.002 0 0 0-1.242-.433z"/></svg>