<svg xmlns="http://www.w3.org/2000/svg" viewBox="0 0 36 36"><path fill="#9266CC" d="M36 32a4 4 0 0 1-4 4H4a4 4 0 0 1-4-4V4a4 4 0 0 1 4-4h28a4 4 0 0 1 4 4v28z"/><path fill="#FFF" d="M28.742 23.398c1.696-5.48-.952-8.824-1.065-8.964l-.631-.776-.959.284c-.102.03-1.56.49-3.087 1.979V11c0-3.979-1.776-4.939-3.268-5.291-1.465-.345-2.971.291-4.024 1.269a3.499 3.499 0 0 0-1.976-1.269c-1.46-.345-2.959.286-4.012 1.257C8.705 5.619 7.393 5.5 7 5.5a1.5 1.5 0 1 0 0 3c.135 0 .832.492 1 2.5v12a1.5 1.5 0 1 0 3 0V9.914a1.5 1.5 0 1 1 3 0V23a1.5 1.5 0 1 0 3 0V9.914a1.5 1.5 0 1 1 3 0v11.415c-.427 1.99-.011 4.162.704 6.127-1.385.751-2.712 1.29-3.511 1.557a1.5 1.5 0 0 0 .945 2.848c.154-.052 1.812-.611 3.788-1.662a26.867 26.867 0 0 0 2.188 3.512 1.496 1.496 0 0 0 2.101.285 1.5 1.5 0 0 0 .285-2.102c-.51-.671-1.301-1.863-2.021-3.266 1.875-1.339 3.6-3.086 4.263-5.23zm-2.865-.887c-.377 1.216-1.374 2.325-2.587 3.276-.463-1.467-.657-2.944-.28-4.164.729-2.354 1.986-3.61 2.882-4.239.386 1.029.714 2.773-.015 5.127z"/></svg>