<svg xmlns="http://www.w3.org/2000/svg" viewBox="0 0 36 36"><path fill="#9266CC" d="M36 32a4 4 0 0 1-4 4H4a4 4 0 0 1-4-4V4a4 4 0 0 1 4-4h28a4 4 0 0 1 4 4v28z"/><path d="M29 30H7a1.5 1.5 0 1 1 0-3h22a1.5 1.5 0 0 1 0 3zm0-5h-8a1.5 1.5 0 0 1-.965-2.648c1.242-1.045 4.464-4.346 4.464-7.04 0-4.186-3.305-6.687-6.5-6.687s-6.5 2.478-6.5 6.625c0 2.699 3.23 6.046 4.474 7.109A1.5 1.5 0 0 1 15 25H7a1.5 1.5 0 1 1 0-3h4.465c-1.452-1.774-2.966-4.23-2.966-6.75 0-6.025 4.83-9.625 9.5-9.625 4.568 0 9.5 3.704 9.5 9.687 0 2.507-1.496 4.932-2.94 6.688H29a1.5 1.5 0 0 1 0 3z" fill="#FFF"/></svg>