<svg xmlns="http://www.w3.org/2000/svg" viewBox="0 0 36 36"><path fill="#9266CC" d="M36 32a4 4 0 0 1-4 4H4a4 4 0 0 1-4-4V4a4 4 0 0 1 4-4h28a4 4 0 0 1 4 4v28z"/><path fill="#FFF" d="M21.5 16.5A1.502 1.502 0 0 1 20 15v-3.694l-5.512 4.823A1.5 1.5 0 0 1 12 15v-3.548l-4.977 4.645a1.5 1.5 0 0 1-2.047-2.193l7.5-7A1.503 1.503 0 0 1 15 8v3.694l5.513-4.823A1.5 1.5 0 0 1 23 8v3.694l5.513-4.823A1.5 1.5 0 0 1 31 8v7a1.5 1.5 0 1 1-3 0v-3.694l-5.513 4.823a1.496 1.496 0 0 1-.987.371zm0 13A1.502 1.502 0 0 1 20 28v-3.694l-5.512 4.823A1.5 1.5 0 0 1 12 28v-3.548l-4.977 4.645a1.5 1.5 0 0 1-2.047-2.193l7.5-7A1.503 1.503 0 0 1 15 21v3.694l5.513-4.823A1.5 1.5 0 0 1 23 21v3.694l5.513-4.823A1.5 1.5 0 0 1 31 21v7a1.5 1.5 0 1 1-3 0v-3.694l-5.513 4.823a1.496 1.496 0 0 1-.987.371z"/></svg>