<svg xmlns="http://www.w3.org/2000/svg" viewBox="0 0 36 36"><path fill="#9266CC" d="M36 32a4 4 0 0 1-4 4H4a4 4 0 0 1-4-4V4a4 4 0 0 1 4-4h28a4 4 0 0 1 4 4v28z"/><path fill="#FFF" d="M30.5 18.5A1.5 1.5 0 0 0 29 17h-3.472c.291-6.296 3.25-8.705 3.371-8.8a1.5 1.5 0 0 0-1.801-2.4c-.18.135-4.242 3.296-4.567 11.2h-9.064C13.141 9.096 9.079 5.935 8.898 5.8a1.49 1.49 0 0 0-2.083.292c-.5.652-.376 1.59.271 2.098.132.104 3.093 2.514 3.384 8.81H7a1.5 1.5 0 1 0 0 3h3.398c-.535 5.524-3.161 7.691-3.31 7.809A1.501 1.501 0 0 0 8 30.5c.313 0 .629-.098.899-.3.173-.129 3.9-3.028 4.508-10.2h9.185c.607 7.172 4.335 10.071 4.507 10.2.269.201.582.298.892.298a1.5 1.5 0 0 0 1.192-.59c.5-.652.376-1.591-.271-2.099-.125-.099-2.773-2.26-3.312-7.81H29a1.5 1.5 0 0 0 1.5-1.499z"/></svg>