<svg xmlns="http://www.w3.org/2000/svg" viewBox="0 0 36 36"><path fill="#31373D" d="M27.819 33.653C28.46 32.997 29 32.072 29 30.801c0-3.149-3.645-6.753-5-9.801-1.333-3-2.104-5.875-.083-6.688l.17-.073c.578-.218.913-.47.913-.739 0-.46-.97-.872-2.494-1.147A6.98 6.98 0 0 0 25 7a7 7 0 1 0-14 0 6.98 6.98 0 0 0 2.494 5.353C11.97 12.628 11 13.04 11 13.5c0 .269.335.521.914.739.056.024.106.048.169.073C14.104 15.125 13.333 18 12 21c-1.355 3.048-5 6.652-5 9.801 0 1.271.54 2.196 1.181 2.852C7.432 34.058 7 34.515 7 35c0 .351.233.687.639 1H28.36c.407-.313.64-.649.64-1 0-.485-.432-.942-1.181-1.347z"/><path fill="#66757F" d="M22.001 4.75a.752.752 0 0 1-.672-.415c-.03-.058-.866-1.585-3.329-1.585s-3.298 1.527-3.333 1.593a.752.752 0 0 1-1.008.32.746.746 0 0 1-.33-.999C13.378 3.566 14.576 1.25 18 1.25c3.424 0 4.621 2.316 4.671 2.415a.749.749 0 0 1-.67 1.085zM22 14a.504.504 0 0 1-.224-.053c-.004-.001-.988-.447-3.776-.447-2.789 0-3.772.446-3.782.45a.502.502 0 0 1-.665-.234.498.498 0 0 1 .224-.664c.113-.056 1.192-.552 4.223-.552 3.03 0 4.11.496 4.224.553A.5.5 0 0 1 22 14zM10 34.5a.5.5 0 0 1-.049-.997C10 33.497 15.01 33 18 33s7.999.497 8.05.503a.498.498 0 0 1 .447.547.498.498 0 0 1-.547.447C25.9 34.492 20.94 34 18 34c-2.941 0-7.9.492-7.95.497L10 34.5z"/></svg>