<svg xmlns="http://www.w3.org/2000/svg" viewBox="0 0 36 36"><path fill="#269" d="M36 32a4 4 0 0 1-4 4H4a4 4 0 0 1-4-4V4a4 4 0 0 1 4-4h28a4 4 0 0 1 4 4v28z"/><circle fill="#FFF" cx="27" cy="7" r="3"/><path fill="#FFF" d="m13.06 13.06 2.367-2.366 3.859 1.158-2.635 2.847a10.018 10.018 0 0 1 4.392 3.379l5.017-5.017a1.5 1.5 0 0 0-.63-2.497l-9.999-3a1.495 1.495 0 0 0-1.492.376l-3 3a1.5 1.5 0 1 0 2.121 2.12zm16.065 4.949a1.496 1.496 0 0 0-1.262-.503l-6.786.617a9.966 9.966 0 0 1 1.464 2.879l3.548-.322-1.554 6.995a1.499 1.499 0 1 0 2.928.65l2-9a1.5 1.5 0 0 0-.338-1.316zM13 16a8 8 0 1 0 0 16 8 8 0 0 0 0-16zm0 14a6 6 0 1 1 .002-12.002A6 6 0 0 1 13 30z"/></svg>