<svg xmlns="http://www.w3.org/2000/svg" viewBox="0 0 36 36"><path fill="#66757F" d="M34 15h-3.362a12.915 12.915 0 0 0-1.582-3.814l2.379-2.379a2 2 0 0 0 0-2.829l-1.414-1.414a2 2 0 0 0-2.828 0l-2.379 2.379A12.924 12.924 0 0 0 21 5.362V2a2 2 0 0 0-2-2h-2a2 2 0 0 0-2 2v3.362a12.915 12.915 0 0 0-3.814 1.582L8.808 4.565a2 2 0 0 0-2.828 0L4.565 5.979a2.002 2.002 0 0 0-.001 2.829l2.379 2.379A12.918 12.918 0 0 0 5.362 15H2a2 2 0 0 0-2 2v2a2 2 0 0 0 2 2h3.362a12.92 12.92 0 0 0 1.582 3.813l-2.379 2.379c-.78.78-.78 2.048.001 2.829l1.414 1.414c.78.78 2.047.78 2.828 0l2.379-2.379a12.889 12.889 0 0 0 3.814 1.582V34a2 2 0 0 0 2 2h2a2 2 0 0 0 2-2v-3.362a12.92 12.92 0 0 0 3.813-1.582l2.379 2.379a2 2 0 0 0 2.828 0l1.414-1.414a2 2 0 0 0 0-2.829l-2.379-2.379a12.889 12.889 0 0 0 1.582-3.814H34a2 2 0 0 0 2-2v-2A2 2 0 0 0 34 15zM18 26a8 8 0 1 1 0-16 8 8 0 0 1 0 16z"/></svg>