<svg xmlns="http://www.w3.org/2000/svg" viewBox="0 0 36 36"><path fill="#744EAA" d="M10.582 18c2.075 1.244 2.74 3.559 2.416 6h4.837A12.74 12.74 0 0 0 18 22c0-6.075-5.001-11.731-10.27-11.731-8.479 0-9.866 9.043-4.567 11.731-1.059-5 4.122-5.975 7.419-4zm14.875 0c-2.075 1.244-2.74 3.559-2.416 6h-4.837a12.62 12.62 0 0 1-.165-2c0-6.075 5.001-11.731 10.269-11.731 8.479 0 9.866 9.043 4.567 11.731 1.061-5-4.121-5.975-7.418-4zm4.334 8.647A3.488 3.488 0 0 1 26.5 29a3.49 3.49 0 0 1-3.449-3h-2.615A4.931 4.931 0 0 0 20 28c0 2.762 2.238 5 5 5s5-2.238 5-5c0-.472-.086-.92-.209-1.353zM12.949 26A3.49 3.49 0 0 1 9.5 29a3.489 3.489 0 0 1-3.291-2.353A4.923 4.923 0 0 0 6 28c0 2.762 2.238 5 5 5s5-2.238 5-5c0-.715-.165-1.386-.436-2h-2.615z"/><path fill="#AA8DD8" d="M13 10.227C13 3.951 18 0 18 0s5 3.951 5 10.227S20.762 25 18 25s-5-8.497-5-14.773z"/><path fill="#AA8DD8" d="M14 30c0-3.313 2.344-6 4-6 1.656 0 4 2.687 4 6s-4 6-4 6-4-2.687-4-6z"/><path fill="#9266CC" d="M25 24.5a3.5 3.5 0 0 1-3.5 3.5h-7a3.5 3.5 0 1 1 0-7h7a3.5 3.5 0 0 1 3.5 3.5z"/></svg>