<svg xmlns="http://www.w3.org/2000/svg" viewBox="0 0 36 36"><circle fill="#E1E8ED" cx="18" cy="18" r="18"/><path fill="#B3BEC4" d="M31.802 29.546C28.792 28.221 27 24.048 27 18c0-6.048 1.792-10.221 4.802-11.546a18.116 18.116 0 0 0-1.428-1.504C27.406 6.605 25 10.578 25 18c0 7.421 2.406 11.395 5.374 13.05.502-.477.984-.973 1.428-1.504zM11 18c0-7.421-2.406-11.395-5.374-13.049a17.94 17.94 0 0 0-1.428 1.503C7.208 7.78 9 11.952 9 18c0 6.048-1.792 10.22-4.802 11.546.445.531.926 1.027 1.428 1.504C8.593 29.395 11 25.421 11 18z"/><path d="M5.092 10.164c-.237 0-.457-.02-.651-.056a1 1 0 0 1 .368-1.966c.43.077 2.691.006 3.148-2.276a.999.999 0 1 1 1.961.393c-.583 2.912-3.139 3.905-4.826 3.905zm1.7 3.961c-.53 0-.952-.323-.978-.859-.026-.551.4-.911.952-.937 0 0 2.564-.035 3.869-2.294A.993.993 0 0 1 12 9.683c.478.276.642.894.365 1.373-1.851 3.206-5.557 3.069-5.573 3.069zM9 19.282c-.734 0-1.414-.135-1.928-.378a1 1 0 0 1 .856-1.808c.83.393 2.926.239 3.73-1.012a1 1 0 1 1 1.683 1.081c-.964 1.501-2.776 2.117-4.341 2.117zm1.161 5.525c-1.554 0-2.995-.699-3.926-1.476a1 1 0 0 1 1.28-1.537c.194.163 1.952 1.566 3.782.785a1 1 0 0 1 .781 1.842 4.88 4.88 0 0 1-1.917.386zM9.75 30h-.028c-2.504 0-4.679-1.57-5.534-3.108-.269-.482-.094-1.044.388-1.312.483-.269 1.092-.07 1.36.412.484.871 1.996 2.134 3.841 2.185.552.016.987.388.972.939-.015.542-.459.884-.999.884zm17.438.188a1 1 0 0 1-.981-1.197c.664-3.322 3.894-4.15 5.478-3.849a1 1 0 0 1 .798 1.167.994.994 0 0 1-1.167.798c-.425-.08-2.69-.007-3.147 2.276a1.003 1.003 0 0 1-.981.805zm-2.564-4.5a.999.999 0 0 1-.865-1.5c1.852-3.206 3.984-3.304 5.394-3.369l.111-.005a1 1 0 1 1 .096 1.998l-.115.005c-1.204.056-2.449.112-3.754 2.371a.998.998 0 0 1-.867.5zm-1-6.063a.999.999 0 0 1-.84-1.54c1.415-2.203 4.656-2.501 6.268-1.738a1 1 0 0 1-.855 1.808c-.829-.393-2.926-.239-3.732 1.012a.997.997 0 0 1-.841.458zm5.625-5.937a.997.997 0 0 1-.64-.232c-.194-.162-1.952-1.559-3.781-.785a1.001 1.001 0 0 1-.782-1.841c2.219-.942 4.535-.001 5.844 1.09a1 1 0 0 1-.641 1.768zm1.814-3.938a1 1 0 0 1-.875-.514c-.484-.872-1.996-2.123-3.841-2.174-.553-.015-.987-.506-.973-1.059.017-.542.461-1.003 1-1.003h.028c2.505 0 4.68 1.694 5.534 3.232a1.017 1.017 0 0 1-.389 1.376 1 1 0 0 1-.484.142z" fill="#DD2E44"/></svg>