<svg xmlns="http://www.w3.org/2000/svg" viewBox="0 0 36 36"><circle fill="#E1E8ED" cx="18" cy="26" r="10"/><path fill="#E1E8ED" d="M12 11a6 6 0 1 1 12 0 6 6 0 0 1-12 0z"/><path fill="#414042" d="M23 6a2 2 0 0 1-2 2h-6a2 2 0 0 1-2-2V2a2 2 0 0 1 2-2h6a2 2 0 0 1 2 2v4z"/><path fill="#231F20" d="M25 7a1 1 0 0 1-1 1H12a1 1 0 0 1 0-2h12a1 1 0 0 1 1 1z"/><path fill="#DD2E44" d="M22.5 15h-9a1.495 1.495 0 0 0-.5 2.908V25a1 1 0 0 0 1 1h1a1 1 0 0 0 1-1v-7h6.5a1.5 1.5 0 1 0 0-3z"/><path fill="#414042" d="M19 24a1 1 0 1 1-1.998.002A1 1 0 0 1 19 24zm0 5a1 1 0 1 1-1.998.002A1 1 0 0 1 19 29z"/><path fill="#F4900C" d="M19 12a1 1 0 1 1-1.998.002A1 1 0 0 1 19 12z"/><path fill="#414042" d="M16 10a1 1 0 1 1-2 0 1 1 0 0 1 2 0zm6 0a1 1 0 1 1-2 0 1 1 0 1 1 2 0z"/><path fill="#FFAC33" d="m10.394 20.081-3.452-1.479-.547-2.866a1 1 0 0 0-1.965.375l.294 1.54-1.33-.57a.999.999 0 1 0-.788 1.838l.743.318-1.056 1.056a.999.999 0 1 0 1.414 1.414l1.621-1.621 4.278 1.833a.999.999 0 1 0 .788-1.838zm22.922-3.03-1.465-.488.855-.855a.999.999 0 1 0-1.414-1.414l-.751.751-.572-2.287a.999.999 0 1 0-1.939.486l.862 3.45-3.6 3.6a.999.999 0 1 0 1.415 1.413l3.563-3.563 2.413.805a.999.999 0 1 0 .633-1.898z"/></svg>