<svg xmlns="http://www.w3.org/2000/svg" viewBox="0 0 36 36"><path fill="#F4900C" d="M13.917 36a.417.417 0 0 1-.371-.607L17 29h-5.078c-.174 0-.438-.031-.562-.297-.114-.243-.057-.474.047-.703L15 19c.078-.067 6.902.393 7 .393a.417.417 0 0 1 .369.608l-3.817 6h5.032c.174 0 .329.108.391.271a.418.418 0 0 1-.119.461l-9.666 9.166a.422.422 0 0 1-.273.101z"/><path fill="#E1E8ED" d="M28 4c-.825 0-1.62.125-2.369.357A6.498 6.498 0 0 0 19.5 0c-3.044 0-5.592 2.096-6.299 4.921A4.459 4.459 0 0 0 10.5 4 4.5 4.5 0 0 0 6 8.5c0 .604.123 1.178.339 1.704A4.98 4.98 0 0 0 5 10c-2.762 0-5 2.238-5 5s2.238 5 5 5h23a8 8 0 1 0 0-16z"/><path fill="#5DADEC" d="m10.999 24.961-.113-3.421-2.87 1.708a1.966 1.966 0 0 0-1.036 1.799A2.034 2.034 0 0 0 9.056 27a1.975 1.975 0 0 0 1.943-2.039zm-2 8-.113-3.421-2.87 1.708a1.966 1.966 0 0 0-1.036 1.799A2.034 2.034 0 0 0 7.056 35a1.974 1.974 0 0 0 1.943-2.039zm-4.979-5.54L3.907 24l-2.87 1.708a1.966 1.966 0 0 0-1.036 1.799 2.033 2.033 0 0 0 2.076 1.953 1.974 1.974 0 0 0 1.943-2.039zm25-2.46-.113-3.421-2.869 1.708a1.964 1.964 0 0 0-1.036 1.799A2.033 2.033 0 0 0 27.078 27a1.974 1.974 0 0 0 1.942-2.039zm-2 9-.113-3.421-2.869 1.708a1.964 1.964 0 0 0-1.036 1.799A2.033 2.033 0 0 0 25.078 36a1.974 1.974 0 0 0 1.942-2.039zm6-4-.113-3.421-2.869 1.708a1.964 1.964 0 0 0-1.036 1.799A2.033 2.033 0 0 0 31.078 32a1.974 1.974 0 0 0 1.942-2.039z"/></svg>