<svg xmlns="http://www.w3.org/2000/svg" viewBox="0 0 36 36"><path fill="#D99E82" d="M29 17v5c0 4.142-4.896 9-11 9S7 26.142 7 22v-5H5v5c0 5.246 5.268 11 13 11s13-5.754 13-11v-5h-2z"/><path fill="#C1694F" d="M22 32.083A1.917 1.917 0 0 1 20.083 34h-4.166A1.917 1.917 0 0 1 14 32.083v-.166c0-1.059.858-1.917 1.917-1.917h4.166c1.059 0 1.917.858 1.917 1.917v.166z"/><path fill="#EA596E" d="M2 17c0-2.762 6.611-5 16-5s16 2.238 16 5c0 2.761-6.611 6-16 6S2 19.761 2 17z"/><path fill="#DD2E44" d="M3 16C3 9 9.198 2 18 2s15 7 15 14c0 1-6.198 4-15 4S3 17 3 16z"/><path fill="#A0041E" d="M25 19a1 1 0 0 1-1-1c0-7.728-1.93-13.625-1.949-13.684a1 1 0 0 1 1.898-.633c.08.24 1.876 5.71 2.04 13.223 1.139-.161 3.165-.602 5.564-1.801a1 1 0 0 1 .895 1.789C28.284 18.976 25.132 19 25 19zm-14 0c-.132 0-3.284-.024-7.447-2.106a1 1 0 0 1 .895-1.789c2.399 1.2 4.425 1.64 5.565 1.801.164-7.513 1.959-12.983 2.039-13.223a1 1 0 0 1 1.897.633C13.929 4.374 12 10.271 12 18a1 1 0 0 1-1 1z"/><path fill="#FFF" d="M21 12h-2v-2a1 1 0 0 0-2 0v2h-2a1 1 0 0 0 0 2h2v2a1 1 0 0 0 2 0v-2h2a1 1 0 1 0 0-2z"/></svg>