<svg xmlns="http://www.w3.org/2000/svg" viewBox="0 0 36 36"><path fill="#99AAB5" d="M26 33c2 2-11 2-9 0 3 0 3-3 3-3h3s0 3 3 3zm-14 0c2 2-11 2-9 0 3 0 3-3 3-3h3s0 3 3 3z"/><path fill="#99AAB5" d="M30 36H2c-1.104 0-2.104-3-1-3h28c3 0 3-3 4-4 5 3 2 7-3 7z"/><path fill="#E6E7E8" d="M1 28c0-9 2-14 2-21 0-2.279 13-2 13 0s-1.5 10 5 13c6.268 2.893 15 2 15 8H1z"/><path fill="#E6E7E8" d="M36 28c-24 0-19.001-1-25-1H1v1a2 2 0 0 0 2 2h8c2.333 0 .398-2.041 3-1 5 2 20 1 20 1a2 2 0 0 0 2-2z"/><path fill="#DD2E44" d="M16.312 20.75a.999.999 0 0 1-.719-1.694l1.688-1.75a.999.999 0 1 1 1.439 1.389l-1.688 1.75a1.002 1.002 0 0 1-.72.305zM19.999 23a1 1 0 0 1-.893-1.447l1-2a1 1 0 0 1 1.789.895l-1 2c-.176.35-.529.552-.896.552zm4.002 1a1.001 1.001 0 0 1-.992-1.142l.209-1.458a1.005 1.005 0 0 1 1.132-.849c.547.079.927.585.849 1.132l-.209 1.458a1 1 0 0 1-.989.859z"/></svg>