<svg xmlns="http://www.w3.org/2000/svg" viewBox="0 0 36 36"><path fill="#AF7E57" d="M26.3 26.621c-.339-.021-.504-.165-.57-.496a52.645 52.645 0 0 1-.356-1.993l-3.912.767c.118.473.644 2.5 1.322 3.806.393.757.831.782 1.79.838 0 0 3.726-.134 6.305-.231 1.142-.043 1.225-1.795.253-2.014-.692-.156-1.438-.3-2.053-.36-.465-.046-2.539-.303-2.779-.317zm-7.462-1.676-1.729-3.593c-.428.233-2.257 1.253-3.35 2.237-.635.572-.549 1.002-.36 1.944 0 0 1.087 3.639 1.831 6.111.32 1.062 2.024.713 1.995-.251-.022-.732-.07-1.523-.171-2.156-.073-.463-.348-2.534-.394-2.77-.064-.334.033-.53.337-.677a54.163 54.163 0 0 1 1.841-.845z"/><path fill="#1C6399" d="M32.67 26.978c-.133.007-.238.02-.315.037l-1.55.085a.135.135 0 0 0-.131.147c.017.225.309.899.018 1.424-.195.351-.656.495-.688.679a.102.102 0 0 0 .091.118s.284-.012.532.003c.217.1.626.182.836.408.063.148.242.283.364.684.072.239.412 1.33.412 1.33.081.278.189.345.236.494.095.306.263 1.127.346 1.387a.54.54 0 0 0 .672.375s.385-.362.64-2.01c.15-.967.095-4.904.095-4.904l-1.558-.257z"/><path fill="#CCD6DD" d="M31.227 29.855a.2.2 0 0 1-.175-.297l.17-.307a.2.2 0 0 1 .349.194l-.17.307a.195.195 0 0 1-.174.103z"/><path fill="#3B94D9" d="M33.882 29.325c-.243-.098-.797-.461-.953-.853-.141-.354-.241-1.312-.259-1.493.297-.028.753-.01.9.004.194.018.447.044.585.166a71.459 71.459 0 0 0-.273 2.176z"/><path fill="#CCD6DD" d="M34.148 27.12s-.002.164-.079.276c-.077.113-.129.39-.149.596-.019.206-.105.981-.083 1.524.022.544.194 1.527.203 1.855.009.328.003.839-.065 1.217-.069.378-.142.715-.199.922a1.944 1.944 0 0 1-.285.639s.43-.03.757-.667c.258-.503.402-.986.454-1.457l.263-3.109c.081-.868.1-1.309.061-1.475-.007-.029-.013-.152-.106-.279-.06-.083-.762-.153-.772-.042zm-2.472 3.287a.2.2 0 0 1-.087-.38l.317-.152a.203.203 0 0 1 .268.094.2.2 0 0 1-.094.267l-.317.152a.21.21 0 0 1-.087.019zm.268.657a.2.2 0 0 1-.059-.391l.354-.11a.2.2 0 1 1 .119.382l-.354.11a.213.213 0 0 1-.06.009zm.232.678a.198.198 0 0 1-.196-.164.2.2 0 0 1 .16-.233l.333-.061a.199.199 0 0 1 .232.161.2.2 0 0 1-.16.233l-.333.061-.036.003z"/><path fill="#1C6399" d="M17.911 32.716a1.93 1.93 0 0 0-.114-.296l-.467-1.48a.135.135 0 0 0-.175-.09c-.214.073-.794.523-1.375.371-.388-.102-.642-.513-.828-.498a.102.102 0 0 0-.092.117s.082.272.129.516c-.043.235-.021.651-.188.911-.128.098-.214.305-.572.522-.213.129-1.186.729-1.186.729-.25.148-.287.269-.42.351-.273.168-1.026.535-1.257.68a.539.539 0 0 0-.197.744s.446.283 2.106.121c.974-.095 4.775-1.117 4.775-1.117s-.049-1.295-.139-1.581z"/><path fill="#CCD6DD" d="M15.3 32.271a.229.229 0 0 1-.051-.006l-.34-.089a.2.2 0 0 1-.143-.244.197.197 0 0 1 .244-.143l.34.089a.2.2 0 0 1-.05.393z"/><path fill="#3B94D9" d="M15.939 34.472c.035-.26.248-.886.59-1.135.308-.224 1.211-.559 1.382-.622.101.281.197.727.22.873.031.192.072.411-.022.609 0 .001-1.543.176-2.17.275z"/><path fill="#CCD6DD" d="M18.141 34.183s-.159.039-.287-.008-.409-.028-.614.004c-.204.033-.976.142-1.497.298-.521.157-1.431.567-1.747.657s-.812.211-1.195.239c-.383.027-.728.04-.942.036a1.948 1.948 0 0 1-.69-.117s.136.409.834.567a4.166 4.166 0 0 0 1.524.078c.036-.005 3.077-.517 3.077-.517.861-.137 1.293-.229 1.444-.307.027-.014.144-.05.244-.172.065-.078-.042-.776-.151-.758zm-3.379-1.16a.2.2 0 0 1-.153-.071l-.227-.269a.2.2 0 0 1 .024-.282.2.2 0 0 1 .282.024l.227.269a.2.2 0 0 1-.153.329zm-.6.47a.199.199 0 0 1-.17-.095l-.194-.316a.199.199 0 1 1 .339-.209l.194.316a.199.199 0 0 1-.169.304zm-.652.384a.202.202 0 0 1-.182-.116l-.143-.308a.2.2 0 0 1 .364-.168l.143.308a.2.2 0 0 1-.182.284z"/><path fill="#1C6399" d="M16.404 21.332c.751-.398 3.235-1.653 4.947-1.804a.35.35 0 0 1 .352.235l1.328 3.635a.345.345 0 0 1-.216.451c-.781.25-2.74.915-4.22 1.719a.34.34 0 0 1-.448-.106c-.456-.664-1.642-2.477-1.923-3.76a.34.34 0 0 1 .18-.37z"/><path fill="#357BAA" d="M21.264 25.576c-.196-.827-.785-3.547-.501-5.242a.348.348 0 0 1 .316-.281l3.853-.37a.344.344 0 0 1 .382.323c.046.818.196 2.882.601 4.517a.341.341 0 0 1-.216.407c-.758.274-2.811.965-4.123.914a.339.339 0 0 1-.312-.268z"/><path fill="#AF7E57" d="M18.032 10.676c-.037.617.172 1.537 1.603 1.665 1.43.128 2.808-.164 3.392-.377.584-.214.637.836.892 1.807.256.974.44 1.739.407 1.947-.054.352-.726 1.071-.388 1.647.338.576.848 1.115 1.404.854s1.009-.557 1.136-.889c.127-.333-.626-1.25-.674-1.525s-.081-3.894-.146-4.3c-.08-.496-.172-1.177-1.01-1.395s-4.153-.593-4.985-.688c-.953-.109-1.582.436-1.631 1.254z"/><path fill="#AF7E57" d="M18.885 6.217c.253-.418.429-.895.475-1.466C19.525 2.71 18.155.934 16.3.784c-1.855-.15-4.184 1.475-3.897 3.502.285 2.013 1.746 4.863 3.38 4.169.431-.183.861-.38 1.267-.604.205.194.429 1.001.435 1.713.012 1.814 2.507 1.72 2.492-.097-.013-1.437-1.002-2.239-1.092-3.25z"/><path fill="#60352A" d="M12.925 1.639c2.296-1.793 3.976-1.717 5.471-.76 1.485.951 1.77 3.017 1.528 4.378-.241 1.361-.633 1.329-.633 1.329s-1.781.607-2.096-1.071c-.1-.531.466-.883-.265-1.599-.47-.461-1.372-.111-1.299.618.073.729-.314.632-.314.632l-1.3-1.814s-.951.046-1.384.968c-.272.579-1.713-1.115.292-2.681z"/><path fill="#4289C1" d="M22.418 9.765c-.897-1.578-2.174-2.314-3.528-1.683-4.238 1.976-1.905 5.849.189 12.276 0 0 3.134.202 6.325-.14.001 0-.826-6.654-2.986-10.453z"/><path fill="#AF7E57" d="M19.924 10.175c-.603-.298-1.614-.479-2.349.901-.735 1.38-1.027 2.884-1.06 3.561-.033.677-1.108.284-2.191.128-1.086-.156-2.853-.332-3.048-.453-.191-.118-1.565-.234-2.03-.242-.34-.005-2.104.282-2.496.612-.461.388 2.73.461 3.01.729.28.269.876.481 1.274.587.294.078 4.391 1.364 4.826 1.471.531.131 1.253.327 1.827-.421.574-.748 2.356-3.913 2.804-4.707.512-.909.232-1.771-.567-2.166z"/><circle fill="#FFAC33" cx="6.397" cy="21.831" r="3.603"/><path fill="#C1694F" d="M7.365 21.657c.764.708 1.573 1.273 2.329 1.615.122-.277.201-.573.25-.881-.628-.303-1.297-.777-1.942-1.37l1.304-1.304a3.619 3.619 0 0 0-.621-.652l-1.32 1.32c-.646-.702-1.158-1.437-1.455-2.11a3.567 3.567 0 0 0-.879.223c.013.031.016.059.03.09.336.785.927 1.635 1.667 2.434L5.43 22.319c-.796-.737-1.642-1.325-2.423-1.662-.1.29-.162.595-.185.914.636.302 1.317.782 1.972 1.385l-1.158 1.158c.193.232.408.444.652.621l1.142-1.142c.592.643 1.023 1.262 1.304 1.803.315-.03.617-.093.903-.199-.356-.751-.914-1.542-1.564-2.247l1.292-1.293z"/></svg>