<svg xmlns="http://www.w3.org/2000/svg" viewBox="0 0 36 36"><path fill="#D2A077" d="M32.218 10.913A4.493 4.493 0 0 0 28.5 8.946H28s-5.353-5.672-5.15-6.091A3.486 3.486 0 0 0 21 5.924s-5.509-3.431-5.247-3.947C14.71 2.669 14 3.946 14 5.424v.522S8.553 4.321 8.857 3.851A3.486 3.486 0 0 0 7 6.924V8.81l-6 6.272v2.645l17.16 14.439c0 .001 13.128-22.164 14.058-21.253z"/><g fill="#F3D2A2"><path d="M4.124 18.946c1.474 0 2.738-.831 3.392-2.043.678 1.212 1.958 2.043 3.446 2.043h.076c1.153 0 2.169-.51 2.889-1.298a4.077 4.077 0 0 0 .554-.777 7.91 7.91 0 0 0 .342-.833c.052-.173.106-.344.134-.526.141.167.296.319.46.46.069.059.45.339.576.413.589.351 1.271.56 2.008.56h3.166a6.41 6.41 0 0 0-1.424 1c-1.729 1.568-2.579 4.085-2.579 7.663a.5.5 0 0 0 1 0c0-3.962 1.01-6.427 3.24-7.663 1.175-.651 2.682-.967 4.571-.967.059 0 .526-.033.526-.033a.5.5 0 0 0 0-1H18a3 3 0 1 1 0-6h11c.973 0 2.288.056 3.218.967.325.318.604.736.803 1.297l1.659 5.472c.156.512.73 2.857.626 3.346 0 7.34-8.7 14.972-19.004 14.972C6.326 36 1 27.883 1 17.957v-.229c.01.01.021.016.031.026.881.882 1.799 1.192 2.845 1.192h.248z"/><path d="M3.864 5.946h.271A2.865 2.865 0 0 1 7 8.81v6.272a2.864 2.864 0 0 1-2.864 2.864h-.272A2.864 2.864 0 0 1 1 15.082V8.81a2.864 2.864 0 0 1 2.864-2.864zm10.136 9a2.98 2.98 0 0 1-1.014 2.233 2.976 2.976 0 0 1-1.986.767 3 3 0 0 1-3-3v-9c0-.816.328-1.554.857-2.095A2.986 2.986 0 0 1 11 2.946a3 3 0 0 1 3 3v9zm4-6a3.974 3.974 0 0 0-3 1.38v-6.38c0-.758.29-1.442.753-1.97A2.979 2.979 0 0 1 18 .946a3 3 0 0 1 3 3v5h-3zm4-4.007c0-.812.326-1.545.85-2.085a2.98 2.98 0 0 1 2.143-.909h.014A2.994 2.994 0 0 1 28 4.939v4.007h-6V4.939z"/></g></svg>