<svg xmlns="http://www.w3.org/2000/svg" viewBox="0 0 36 36"><path fill="#99AAB5" d="M31.986 32.729a1.98 1.98 0 0 1-.987.271 2 2 0 1 1 2-2c0 .361-.104.695-.271.987l3.146 3.146L34.999 28l-9-7-5 5 7 9 7.134.876-3.147-3.147z"/><path fill="#66757F" d="M13.643 5.308a2.946 2.946 0 0 1 0 4.167l-4.167 4.168a2.948 2.948 0 0 1-4.167 0L1.141 9.475a2.948 2.948 0 0 1 0-4.167l4.167-4.167a2.946 2.946 0 0 1 4.167 0l4.168 4.167z"/><path fill="#31373D" d="M26.643 18.309 9.44 1.105 1.107 9.44l17.202 17.202a2.949 2.949 0 0 0 4.168 0l4.166-4.168a2.945 2.945 0 0 0 0-4.165z"/><path fill="#66757F" d="m8.225 16.56 8.334-8.335 2.124 2.125-8.333 8.334z"/></svg>