<svg xmlns="http://www.w3.org/2000/svg" viewBox="0 0 36 36"><path fill="#9266CC" d="M36 32a4 4 0 0 1-4 4H4a4 4 0 0 1-4-4V4a4 4 0 0 1 4-4h28a4 4 0 0 1 4 4v28z"/><path fill="#FFF" d="m27.152 18 3.716-6.504A1 1 0 0 0 30 10h-7.42l-3.712-6.496c-.355-.623-1.381-.623-1.736 0L13.42 10H6a1.001 1.001 0 0 0-.868 1.496L8.848 18l-3.716 6.504A1 1 0 0 0 6 26h7.42l3.712 6.496a.999.999 0 0 0 1.736 0L22.58 26H30a1 1 0 0 0 .868-1.496L27.152 18zm1.124-6L26 15.984 23.723 12h4.553zm-3.428 6-3.428 6h-6.84l-3.429-6 3.429-6h6.839l3.429 6zM18 6.016 20.277 10h-4.553L18 6.016zM7.723 12h4.554L10 15.985 7.723 12zm0 12L10 20.015 12.277 24H7.723zM18 29.984 15.723 26h4.553L18 29.984zM23.723 24 26 20.016 28.276 24h-4.553z"/></svg>