<svg xmlns="http://www.w3.org/2000/svg" viewBox="0 0 36 36"><path fill="#77B255" d="M36 32a4 4 0 0 1-4 4H4a4 4 0 0 1-4-4V4a4 4 0 0 1 4-4h28a4 4 0 0 1 4 4v28z"/><circle fill="#FFF" cx="18" cy="18" r="3"/><path fill="#FFF" d="M20 4a2 2 0 0 0-4 0v8a2 2 0 0 0 4 0V4zm0 20a2 2 0 0 0-4 0v8a2 2 0 0 0 4 0v-8zM4 16a2 2 0 0 0 0 4h8a2 2 0 0 0 0-4H4zm20 0a2 2 0 0 0 0 4h8a2 2 0 0 0 0-4h-8zm-8.829-2.243a.999.999 0 1 1-1.414 1.414L6.272 7.687a1 1 0 1 1 1.415-1.415l7.484 7.485zm14.557 14.556a.998.998 0 0 1 0 1.414.998.998 0 0 1-1.414 0l-7.485-7.485a.999.999 0 1 1 1.414-1.414l7.485 7.485zm-15.971-7.485a.999.999 0 1 1 1.414 1.414l-7.485 7.486a1 1 0 1 1-1.415-1.415l7.486-7.485zM28.313 6.272a.998.998 0 0 1 1.414 0 .998.998 0 0 1 0 1.414l-7.485 7.485a.999.999 0 1 1-1.414-1.414l7.485-7.485z"/></svg>