<svg xmlns="http://www.w3.org/2000/svg" xmlns:xlink="http://www.w3.org/1999/xlink" viewBox="0 0 315.4 305.6" width="406" height="306" xmlns:v="https://vecta.io/nano"><defs><linearGradient id="A" x1="156.7" y1="259" x2="159.6" y2="341.5" gradientUnits="userSpaceOnUse"><stop offset="0" stop-opacity="0"/><stop offset="1"/></linearGradient><linearGradient id="B" x1="67.7" y1="231.6" x2="64.8" y2="116.6" gradientUnits="userSpaceOnUse"><stop offset="0" stop-opacity="0"/><stop offset="1"/></linearGradient><linearGradient id="C" x1="256" y1="215.8" x2="254.1" y2="143.6" xlink:href="#A"/><linearGradient id="D" x1="154.9" y1="238.5" x2="159.5" y2="81.8" xlink:href="#B"/></defs><g fill="#10569a"><path d="M96 206.2c20.7 9 44 9 66.7 8.7 11.8-.2 24-.4 35-5.3 15-6.8 24.7-21.5 38-31.4 15-11.4 34.4-16.3 49-28.3 14.4-11.8 23-29.4 23.3-48s-7.6-36.5-21.6-48.8c-7.7-6.8-17-11.6-26.2-16.3L214 13c-10.8-5.6-22-11.2-34-12.7a88 88 0 0 0-30.4 2.8c-28.3 6.4-56.4 17.4-77 37.6-18 17.4-29.5 40.8-49 56.3-5 4-10.5 7.4-14.2 12.7-13 18.8.2 42.8 17.2 52.5 23.6 13.3 44.8 33.2 69.5 44z" opacity=".2"/><ellipse cx="157.7" cy="286.1" rx="157.7" ry="19.5"/></g><ellipse cx="157.7" cy="286.1" rx="157.7" ry="19.5" fill="url(#A)"/><path d="M71.3 95.8c-6-4-13.2-5.5-20.2-4-1.3.2-2.5.7-3.5 1.5-2.4 2-2 5.7-2.6 8.8-.8 3.8-3.3 7-4.2 10.7-.5 2.8-.6 5.7-.1 8.5a140 140 0 0 0 7.9 32.4l-11 145a477 477 0 0 0 34.1 3.6l2.4-138z" fill="#eea886"/><path fill="url(#B)" d="M58.8 180.3l14.6 59v-85L67 135l-8 45.3z"/><path d="M249.3 97c6-4 13.2-5.4 20.2-4 1.3.2 2.5.7 3.5 1.5 2.4 2 2 5.7 2.6 8.8.8 3.8 3.3 7 4.2 10.7.5 2.8.6 5.7.1 8.5A139 139 0 0 1 272 155l11 143-34 4-2.4-136.5z" fill="#eea886"/><path fill="url(#C)" d="M263.7 176l-5.2 26.6-11 24-1-52 17 1.6z"/><rect x="52.6" y="48.4" width="211.7" height="133.4" rx="8.4" fill="#10569a"/><rect x="52.6" y="48.4" width="211.7" height="133.4" rx="8.4" fill="url(#D)"/><rect x="52.6" y="43.1" width="211.7" height="133.4" rx="8.4" fill="#10569a"/><path d="M71.4 98.6c3.4-3.7 3.4-3.7 7.2-8.2l16.2-19c2.6-2.8 5-5.8 7-9H117a110 110 0 0 0-.6 12.4V99h2.2a52 52 0 0 0 7.4-.6V112a59 59 0 0 0-7.3-.5h-2.2v3.7c-.1 3 .1 6.2.6 9.2h-15.4a66 66 0 0 0 .6-9.3v-3.6H81l-9.7.3zm31-8a128 128 0 0 1 .4-10.8l-4.6 6-11 13.3h15zm36 28.6c-2.4-2.3-4.2-5.2-5.5-8.3a50 50 0 0 1-3-17 45 45 0 0 1 4.7-20.7c4.6-7.6 12.3-11.8 21.8-11.8 7.3 0 13.6 2.5 18.2 7 2.4 2.3 4.3 5.2 5.5 8.3a50 50 0 0 1 3 17.2 44 44 0 0 1-4.7 20.8c-4.5 7.5-12.3 11.7-21.8 11.7a25 25 0 0 1-18.1-7zm7-26c0 13.4 3.8 20.3 11.2 20.3s11-6.7 11-20c0-13-4-19.6-11.2-19.6-7 0-11 7-11 19.3zm41.5 5.4c3.4-3.7 3.4-3.7 7.2-8.2l16.2-19a68 68 0 0 0 7-9h15.3a127 127 0 0 0-.6 12.4V99h2.2a52 52 0 0 0 7.4-.6V112a59 59 0 0 0-7.3-.5H232v3.7c-.1 3 .1 6.2.6 9.2h-15.4a66 66 0 0 0 .6-9.3v-3.6h-21.2l-9.7.3zm31-8a128 128 0 0 1 .4-10.8l-4.6 6-11 13.3h15zm-146 56a23 23 0 0 1 3.8-.3c1.5-.1 3 .3 4.3 1.3 1 .8 1.4 2 1.4 3.2.1 1.2-.4 2.4-1.2 3.3-1.3 1.2-3 1.8-4.7 1.7-.5 0-1 0-1.6-.1v6.2h-2zm2 7.4c.5.1 1 .2 1.6.2 2.4 0 4-1.2 4-3.3s-1.4-3-3.6-3c-.6 0-1.3 0-2 .2zm10.8 3l-1.6 4.8h-2l5.2-15.4h2.4L94 162h-2l-1.6-4.8zm5-1.6l-1.5-4.4c-.3-1-.6-2-.8-2.8h0l-.8 2.8-1.5 4.5zm18 5.8a23 23 0 0 1-4.7 1c-2 .2-4.2-.5-5.8-2s-2.3-3.6-2-5.7c0-4.6 3.2-8 8.3-8 1.3 0 2.6.2 3.8.7l-.5 1.6c-1-.5-2.2-.7-3.4-.7-3.7 0-6.2 2.3-6.2 6.2s2.3 6.2 6 6.2c1 0 1.8-.1 2.6-.4v-4.6h-3V154h5zm11-6.5h-6v5.6h6.7v1.7h-8.7v-15.4h8.3v1.7h-6.3v5h6zm8 7.3v-15.4h2.2l5 7.8a49 49 0 0 1 2.8 5h0c-.2-2-.2-4-.2-6.3v-6.4h2V162h-2l-5-7.8-3-5h-.1l.2 6.3v6.6zm28.2-8c0 5.3-3.2 8-7.2 8s-7-3.2-7-7.8c0-5 3-8 7.2-8s7 3.2 7 7.8zm-12 .3c0 3.3 1.8 6.2 5 6.2s5-3 5-6.4c0-3-1.6-6.2-5-6.2s-5 3-5 6.4zm17-6h-4.7v-1.7h11.4v1.7H162V162h-2zm13.2-1.7h8.3v1.7h-6.3v5h5.8v1.6h-5.8v7h-2zm24.3 7.5c0 5.3-3.2 8-7 8-4 0-7-3.2-7-7.8 0-5 3-8 7-8s7 3.2 7 7.8zm-12 .3c0 3.3 1.8 6.2 5 6.2s5-3 5-6.4c0-3-1.6-6.2-5-6.2s-5 3-5 6.4zm16.5-7.8v9c0 3.4 1.5 5 3.6 5 2.3 0 3.7-1.5 3.7-5v-9h2v9c0 4.7-2.5 6.7-5.8 6.7-3 0-5.5-1.8-5.5-6.6v-9zm12.8 15.5v-15.4h2.2l5 7.8a44 44 0 0 1 2.8 5h.1c-.2-2-.2-4-.2-6.3v-6.4h2V162h-2l-5-7.8-3-5h-.1l.2 6.3v6.6zm15-15.3l4.2-.3c3 0 5 .7 6.2 2 1.5 1.4 2.3 3.5 2.2 5.5.1 2.2-.7 4.4-2.2 6-1.4 1.4-3.8 2.2-6.8 2.2h-3.6zm2 13.6l2 .1c4.3 0 6.6-2.4 6.6-6.5 0-3.6-2-6-6.2-6H232z" fill="#fff"/><path d="M61.6 94c1 .4 1.6 1 2 2s.7 2 .6 3l.3 6.5c.1 1 0 2-.4 3s-1.5 1.6-2.6 1.4c.8 2.5.5 5.3-.8 7.6-.3.5-.6 1-.7 1.6-.1.7 0 1.3.1 2 .5 3.3-.5 6.6-2.7 9a4 4 0 0 1-1.2 1 5 5 0 0 1-1.9.4l-3 .3a1 1 0 0 1-1.3-.9c-2.2-7-3.2-14.5-3-22l1.3-11c.5-2 1.4-5.4 3.7-6.3 3-1 6.8 1 9.3 2.5zm193 0c-1 .4-1.6 1-2 2s-.7 2-.6 3l-.3 6.5c-.1 1 0 2 .4 3s1.5 1.6 2.6 1.4c-.8 2.5-.5 5.3.8 7.6a8 8 0 0 1 .8 1.6c.1.7 0 1.3-.1 2-.4 3.3.5 6.6 2.7 9a4 4 0 0 0 1.2 1 5 5 0 0 0 1.9.4l3 .3a1 1 0 0 0 1.3-.9c2.2-7 3.2-14.5 3-22a62 62 0 0 0-1.3-11.1c-.5-2-1-4.8-3.3-5.7-3-1-7.2.4-9.8 2z" fill="#eea886"/></svg>