<svg xmlns="http://www.w3.org/2000/svg" xmlns:xlink="http://www.w3.org/1999/xlink" width="860.131" height="571.148" xmlns:v="https://vecta.io/nano"><path d="M435.735 160.527c-7.669-12.684-16.757-26.228-30.99-30.37-16.482-4.796-33.413 4.732-47.775 14.135-42.949 28.12-84.31 58.594-123.893 91.283l.043.492q46.226-3.188 92.451-6.376c22.265-1.535 45.296-3.283 64.972-13.816 7.467-3.997 14.745-9.336 23.206-9.708 10.512-.462 19.677 6.879 26.88 14.549 42.607 45.371 54.937 114.754 102.738 154.616-30.142-74.335-66.132-146.163-107.633-214.807z" fill="#f2f2f2"/><path d="M697.636 545.355c-4.712-5.95-6.637-7.343-11.285-13.348q-56.764-73.416-106.708-151.792-33.924-53.23-64.483-108.504-14.549-26.278-28.3-52.969-10.67-20.695-20.865-41.638l-5.711-12.009-13.439-28.244c-5.317-10.616-11.789-21.745-21.553-28.877-4.443-3.379-9.756-5.424-15.319-5.895-7.948-.513-15.282 2.769-22.176 6.353-50.439 26.301-97.659 59.276-140.37 96.798a730.78 730.78 0 0 0-114.042 126.591c-1.008 1.439-3.392.064-2.374-1.384q6.009-8.498 12.257-16.813c51.789-68.878 115.289-128.109 187.6-174.986q18.248-11.826 37.183-22.542c6.362-3.603 12.752-7.16 19.251-10.497 6.371-3.273 13.137-6.215 20.416-6.325 24.77-.385 37.595 27.667 46.405 46.542q4.153 8.911 8.406 17.766 16.075 33.621 33.387 66.628 10.685 20.379 21.837 40.52 34.707 62.718 73.779 122.897c34.506 53.143 68.737 100.089 108.046 149.785 1.082 1.375-.852 3.337-1.944 1.944zM244.982 191.378l-4.318-4.813c-11.422-12.633-23.679-25.118-39.364-32.361a57.11 57.11 0 0 0-23.927-5.546c-8.562.028-16.932 2.273-24.843 5.418-3.74 1.494-7.398 3.19-11.001 4.996-4.116 2.072-8.159 4.281-12.183 6.509q-11.331 6.27-22.368 13.091-21.961 13.572-42.546 29.216-10.671 8.113-20.902 16.758-9.516 8.031-18.646 16.492c-1.302 1.201-3.245-.743-1.944-1.943l4.85-4.446q6.875-6.215 13.971-12.193Q54.7 211.638 68.31 201.563q21.163-15.676 43.783-29.225 11.304-6.765 22.918-12.963c2.338-1.247 4.703-2.466 7.096-3.621a113.09 113.09 0 0 1 16.868-6.866c8.213-2.657 16.903-3.511 25.476-2.503a66.33 66.33 0 0 1 23.505 8.131c15.401 8.608 27.346 21.919 38.97 34.909 1.174 1.32-.761 3.273-1.944 1.953zm315.56 130.907l36.905-13.498 18.323-6.702c5.968-2.183 11.921-4.667 18.09-6.23a28.54 28.54 0 0 1 16.374.209 37.74 37.74 0 0 1 12.771 7.917 103.64 103.64 0 0 1 10.475 11.186l11.868 14.467q24.441 29.891 48.563 60.041 24.121 30.15 47.92 60.556 23.857 30.48 47.385 61.216 2.882 3.765 5.76 7.534c1.06 1.388 3.449.02 2.375-1.388q-23.702-31.044-47.735-61.835-24.092-30.864-48.516-61.466-24.424-30.601-49.179-60.937-6.167-7.558-12.354-15.099c-3.48-4.241-6.92-8.527-10.736-12.474-7.005-7.245-15.758-13.648-26.234-13.822-6.16-.102-12.121 1.852-17.844 3.923l-18.486 6.759-37.163 13.592-9.291 3.398c-1.649.603-.937 3.262.731 2.652z" fill="#e4e4e4"/><g fill="#f2f2f2"><path d="M196.443 170.1c-18.754-9.639-42.771-7.751-60.005 4.291 32.872 5.671 65.384 13.259 97.371 22.726-13.283-7.784-23.673-19.98-37.365-27.017z"/><path d="M136.253 174.358l-3.61 2.935 3.795-2.901-.185-.033zM661.615 322.42c-3.633-4.422-7.56-9.052-12.994-10.848l-5.073.2c38.618 68.239 90.774 127.866 153.267 175.221q-67.6-82.286-135.2-164.572z"/><use xlink:href="#B"/><use xlink:href="#B" x="233" y="203"/><use xlink:href="#B" x="-232" y="189"/></g><circle cx="649.249" cy="51" r="51" fill="#6c63ff"/><g fill="#f0f0f0"><use xlink:href="#C"/><use xlink:href="#C" x="-106" y="68"/></g><path d="M851.011 92.728a.98.98 0 0 1-.302-.047C586.303 9.063 353.265 19.998 204.33 43.895c-20.269 3.251-40.591 7.006-60.404 11.161l-15.597 3.378-18.532 4.306q-3.873.917-7.595 1.849l-11.66 2.957-13.797 3.672c-.017.006-.034.011-.051.015v.001l-15.323 4.325-7.799 2.307a31.01 31.01 0 0 0-.776.228l-.536.163-.924.275-.02.006v.001l-.812.252-2.841.864C23.119 87.22 9.626 92.603 9.493 92.656a1 1 0 1 1-.744-1.856c.134-.053 13.693-5.463 38.328-13.058l2.85-.866.754-.234c.026-.01.052-.018.078-.025l.919-.273.537-.163.801-.235 7.798-2.307 15.334-4.328c.016-.006.033-.01.049-.015v-.001l13.845-3.685 11.68-2.962q3.738-.93 7.609-1.853l18.563-4.312 15.622-3.383c19.843-4.162 40.198-7.923 60.497-11.179 149.149-23.932 382.52-34.884 647.299 48.854a1 1 0 0 1-.301 1.953z" fill="#ccc"/><g fill="#3f3d56"><path d="M262.989 419.84a6.73 6.73 0 0 0-1.7-2.67 6.43 6.43 0 0 0-.92-.71c-2.61-1.74-6.51-2.13-8.99 0a5.81 5.81 0 0 0-.69.71q-1.11 1.365-2.28 2.67l-3.96 4.24-1.18 1.15-.69.67-2.69 2.45-1.45 1.26-2.2 1.81-.21.16c-.02.01-.03.03-.05.04-.01 0-.02 0-.03.02-.027.011-.051.028-.07.05l-.48.34c.04-.02.08-.05.12-.07l-.55.42-5.37 3.69a99.21 99.21 0 0 1-14.22 7.55l-1.01.4a85.97 85.97 0 0 1-40.85 6.02q-2.13-.165-4.26-.45l-4.89-.86a97.93 97.93 0 0 1-18.02-5.44 118.65 118.65 0 0 1-20.66-12.12l-3.02-2.11 3.38-8.48 1.6-4.12c4.09-10.63 7.93-21.36 11.61-32.13q5.58-16.365 10.53-32.92.51-1.68.99-3.36 2.595-8.745 4.98-17.53l.45-1.7q.69-2.52 1.35-5.04c1-3.79-1.26-8.32-5.24-9.23-3.983-1.021-8.059 1.295-9.22 5.24l-1.3 4.85q-3.165 11.745-6.66 23.41-.51 1.68-1.02 3.36-7.71 25.41-16.93 50.31-1.11 3.015-2.25 6.01l-1.12 2.94-2.23 5.79-1.31 3.38-.85 2.12a41.81 41.81 0 0 0-8.81-2.12l-.48-.06c-2.33-.28-4.686-.26-7.01.06-7.043.822-13.358 4.727-17.24 10.66-4.77 7.51-4.71 18.25 1.98 24.63 6.89 6.57 17.32 6.52 25.43 2.41a28.35 28.35 0 0 0 10.52-9.86 50.57 50.57 0 0 0 2.74-4.65l.63.43 2.39 1.69a111.74 111.74 0 0 0 14.51 8.91 108.36 108.36 0 0 0 34.62 10.47l.8.1a89.23 89.23 0 0 0 4.01.41 103.78 103.78 0 0 0 55.58-11.36q2.175-1.125 4.31-2.36 3.315-1.92 6.48-4.08c1.15-.78 2.27-1.57 3.38-2.4a101.04 101.04 0 0 0 13.51-11.95q2.355-2.475 4.51-5.11a8.06 8.06 0 0 0 2.2-5.3c-.008-.903-.177-1.797-.5-2.64zm-165.59 23.82c.21-.15.42-.31.62-.47-.06.15-.35.32-.62.47zm3.21-3.23c-.23.26-.44.52-.67.78-.7.783-1.451 1.518-2.25 2.2-.11.1-.23.2-.35.29-.154.075-.295.148-.43.23q-.645.39-1.32.72c-.881.324-1.788.575-2.71.75a16.8 16.8 0 0 1-2.13.02h-.02c-.49-.109-.974-.242-1.45-.4-.24-.12-.47-.26-.7-.4-.09-.08-.17-.16-.22-.21a2.44 2.44 0 0 1-.27-.29l-.35-.61c-.006-.005-.009-.012-.01-.02a9.69 9.69 0 0 1-.21-.77 12.51 12.51 0 0 1 .01-1.37 13.47 13.47 0 0 1 .54-1.88 11.07 11.07 0 0 1 .69-1.26c.02-.04.12-.2.23-.38.01-.01.01-.01.01-.02.15-.17.3-.35.46-.51.27-.3.56-.56.85-.83a18.02 18.02 0 0 1 1.75-1.01 19.48 19.48 0 0 1 2.93-.79 24.99 24.99 0 0 1 4.41.04 30.3 30.3 0 0 1 4.1 1.01c-.813 1.578-1.739 3.095-2.77 4.54-.04.06-.08.12-.12.17zm-11.12-3.29a2.18 2.18 0 0 1-.31.39 1.41 1.41 0 0 1 .31-.39z"/><path d="M232.929 317.71q-.135 4.71-.27 9.42-.285 10.455-.59 20.92-.315 11.775-.66 23.54-.165 6.075-.34 12.15-.465 16.365-.92 32.72l-.1 3.38q-.225 8.115-.45 16.23-.255 8.805-.5 17.61-.18 6.6-.37 13.21-1.35 47.895-2.7 95.79a7.65 7.65 0 0 1-7.5 7.5c-4.128-.033-7.467-3.372-7.5-7.5q.75-26.94 1.52-53.88.675-24.36 1.37-48.72.225-8.025.45-16.06.345-12.09.68-24.18l.1-3.38.08-2.96q.66-23.475 1.32-46.96.27-9.24.52-18.49.3-10.545.6-21.08l.26-9.26a7.65 7.65 0 0 1 7.5-7.5c4.128.033 7.467 3.372 7.5 7.5zm411.428 2.081a893.24 893.24 0 0 1-28.161 87.941l-9.372 23.712.756-1.792c-1.468 3.732-3.342 7.291-5.59 10.612q-.229.321-.467.636 1.166-1.49.443-.589l-.768.895a23.62 23.62 0 0 1-2.249 2.203q-.301.258-.612.504l.938-.729c-.109.257-.873.597-1.111.743a18.27 18.27 0 0 1-2.405 1.219l1.792-.756c-1.361.548-2.781.938-4.231 1.161l1.994-.268a17.02 17.02 0 0 1-4.298.046l1.994.268a14 14 0 0 1-3.405-.917l1.792.756a12.01 12.01 0 0 1-1.679-.896c-.271-.177-1.105-.809-.015.025 1.133.866.146.074-.088-.156-.194-.192-.37-.4-.56-.595-.882-.905.996 1.557.397.499a18.18 18.18 0 0 1-.878-1.637l.756 1.792c-.344-.853-.588-1.743-.728-2.651l.268 1.994a13.65 13.65 0 0 1-.003-3.405l-.268 1.994c.183-1.262.517-2.498.995-3.68l-.756 1.792a16.73 16.73 0 0 1 1.178-2.298 6.73 6.73 0 0 1 .729-1.071c.049.016-1.269 1.513-.569.757.183-.198.354-.406.539-.602.296-.314.614-.601.926-.898 1.045-.994-1.462.966-.257.179a19.05 19.05 0 0 1 2.749-1.499l-1.792.756a20.31 20.31 0 0 1 4.995-1.34l-1.994.268a25.63 25.63 0 0 1 6.461.076l-1.994-.268a33.21 33.21 0 0 1 7.892 2.22l-1.792-.756c5.39 2.314 10.163 5.749 14.928 9.118a111.95 111.95 0 0 0 14.506 8.907 108.39 108.39 0 0 0 34.622 10.474c35.105 4.3 69.987-9.546 92.586-36.752a8.08 8.08 0 0 0 2.197-5.303 7.63 7.63 0 0 0-2.197-5.303c-2.752-2.526-7.949-3.239-10.607 0-2.518 3.075-5.226 5.989-8.107 8.727q-2.017 1.914-4.142 3.71-1.214 1.026-2.461 2.011c-.393.311-1.619 1.138.263-.197-.431.306-.845.64-1.271.955a99.27 99.27 0 0 1-20.332 11.565l1.792-.756a96.83 96.83 0 0 1-24.171 6.622l1.994-.268a97.65 97.65 0 0 1-25.754-.038l1.994.268a99.8 99.8 0 0 1-24.857-6.77l1.792.756c-7.68-3.398-14.968-7.62-21.736-12.591-3.523-2.608-7.238-4.946-11.113-6.994-4.515-2.306-9.403-3.792-14.438-4.389-9.439-1.111-19.057 2.566-24.246 10.72-4.776 7.505-4.714 18.244 1.974 24.625 6.888 6.572 17.318 6.517 25.436 2.406 7.817-3.959 12.513-12.185 15.815-19.942 7.431-17.455 14.01-35.314 20.14-53.263q9.097-26.637 16.499-53.813.917-3.366 1.807-6.739c1.001-3.789-1.261-8.32-5.238-9.226-3.984-1.026-8.065 1.291-9.226 5.238z"/><path d="M719.19 317.71l-2.7 95.793-2.685 95.294-1.518 53.884c.035 4.127 3.373 7.465 7.5 7.5a7.65 7.65 0 0 0 7.5-7.5l2.7-95.793 2.685-95.294 1.518-53.884c-.035-4.127-3.373-7.465-7.5-7.5a7.65 7.65 0 0 0-7.5 7.5z"/></g><path d="M459.591 535.935h2.329V429.893h54.329v-2.323H461.92v-44.744h41.956q-.923-1.173-1.899-2.317H461.92v-29.553l-2.329-.943v30.496h-45.652v-37.865l-2.329.155v37.71h-36.42v-28.251l-2.317 1.093v27.158h-30.616v2.317h30.616v44.744h-30.616v2.323h30.616v106.042h2.317V429.893c9.66-.002 18.925 3.835 25.755 10.665s10.667 16.095 10.665 25.755v69.622h2.329V429.893h45.652zM375.19 427.57v-44.744h36.42v44.744zm38.749 0v-44.744h.914a44.74 44.74 0 0 1 44.738 44.744z" opacity=".2"/><path d="M445.369 504.14a63.06 63.06 0 0 1-20.05 33.7l-2.25 1.87q-2.805.255-5.57.52l-4.54.43-.27.03-.19-1.64-.76-6.64c-5.972-9.75-7.186-21.687-3.3-32.44 2.64-7.12 7.42-13.41 12.12-19.65 6.49-8.62 12.8-17.14 13.03-27.65 3.193 4.087 5.848 8.567 7.9 13.33a16.43 16.43 0 0 0-5.12 3.77c-.41.45-.82 1.08-.54 1.62.24.46.84.57 1.36.63l3.76.39 3 .32a63.99 63.99 0 0 1 2.45 12.18 61.19 61.19 0 0 1-1.03 19.23z" fill="#3f3d56"/><g fill="#6c63ff"><path d="M478.569 477.93c-5.9 4.29-9.35 10.46-12.03 17.26a16.63 16.63 0 0 0-7.17 4.58c-.41.45-.82 1.08-.54 1.62.24.46.84.57 1.36.63l3.76.39c-2.68 8.04-5.14 16.36-9.88 23.15a36.99 36.99 0 0 1-12.03 10.91 38.49 38.49 0 0 1-4.02 1.99q-7.62.585-14.95 1.25-2.805.255-5.57.52l-4.54.43q-.015-.825 0-1.65c.316-14.651 5.706-28.739 15.25-39.86a66.09 66.09 0 0 1 1.38-1.54c4.835-5.164 10.521-9.46 16.81-12.7 9.91-5.152 21.016-7.562 32.17-6.98z"/><path d="M419.229 535.1l-1.15 3.4-.58 1.73-4.54.43-.27.03-4.96.51-1.28-1.53c-21.729-26.313-18.123-65.236 8.07-87.11-1.32 6.91.22 13.53 2.75 20.1-.27.11-.53.22-.78.34a16.43 16.43 0 0 0-5.12 3.77c-.41.45-.82 1.08-.54 1.62.24.46.84.57 1.36.63l3.76.39 3 .32q.705.075 1.41.15l.2.44c2.85 6.18 5.92 12.39 7.65 18.83.434 1.616.774 3.255 1.02 4.91 1.56 11.329-2.12 22.752-10 31.04z"/></g><g fill="#3f3d56"><path d="M519.887 390.061c-8.609-16.792-21.946-30.921-37.632-41.304-15.737-10.368-33.794-16.683-52.563-18.38q-3.69-.335-7.399-.393c-2.921-.044-46.866 12.632-61.587 22.982-14.713 10.224-26.816 23.764-35.333 39.527a102.5 102.5 0 0 0-12.126 51.633c.729 18.085 5.77 35.734 14.703 51.476 8.811 15.691 21.322 28.992 36.444 38.746 15.338 9.787 30.745 35.736 48.854 36.652 18.246.923 39.054-23.555 55.695-30.987 16.641-7.494 31.028-19.219 41.726-34.005a110.25 110.25 0 0 0 19.599-48.948c2.574-18.083 1.374-36.733-4.801-54.016a111.86 111.86 0 0 0-5.58-12.983c-1.78-3.505-6.996-4.796-10.261-2.691a7.68 7.68 0 0 0-2.691 10.261q1.568 3.088 2.915 6.278l-.756-1.792a101.15 101.15 0 0 1 6.876 25.538l-.268-1.994a109.23 109.23 0 0 1-.066 28.683l.268-1.994c-1.296 9.516-3.836 18.82-7.555 27.674l.756-1.792a104.21 104.21 0 0 1-6.672 13.098q-1.923 3.186-4.081 6.222c-.632.888-1.283 1.761-1.939 2.631-.856 1.136 1.167-1.483.282-.369l-.452.569q-.681.852-1.382 1.688c-3.118 3.72-6.52 7.191-10.176 10.384q-1.366 1.192-2.778 2.331c-.469.378-.932.773-1.421 1.125.019-.013 1.58-1.199.656-.511l-.87.652q-2.91 2.156-5.974 4.092c-4.703 2.963-9.638 5.543-14.756 7.713l1.792-.756c-8.828 3.716-18.106 6.255-27.597 7.552l1.994-.268c-9.485 1.282-19.099 1.299-28.589.051l1.994.268c-8.625-1.158-17.062-3.439-25.095-6.784l1.792.756c-4.653-1.965-9.14-4.303-13.416-6.991q-3.174-2-6.184-4.247l-.855-.645c-.915-.691.658.51.67.518a19.17 19.17 0 0 1-1.535-1.225q-1.454-1.184-2.861-2.422a101.99 101.99 0 0 1-10.493-10.709q-1.213-1.434-2.374-2.911c-.335-.426-.947-1.29.404.529l-.542-.712q-.647-.858-1.276-1.728-2.203-3.048-4.188-6.246a109.29 109.29 0 0 1-7.805-15.108l.756 1.792a106.59 106.59 0 0 1-7.34-26.837l.268 1.994c-1.14-8.506-1.156-17.125-.048-25.636l-.268 1.994c1.136-8.241 3.353-16.297 6.595-23.959l-.756 1.792c2.039-4.797 4.445-9.429 7.195-13.856q2.066-3.323 4.378-6.485.525-.718 1.062-1.428c.324-.428 1.215-1.493-.305.388.149-.184.293-.374.439-.56q1.269-1.608 2.6-3.165a107.4 107.4 0 0 1 10.883-11.021q1.474-1.292 2.995-2.529.691-.562 1.391-1.113l.562-.439c-1.997 1.59-.555.433-.102.093q3.134-2.348 6.435-4.461c4.893-3.129 10.04-5.841 15.387-8.108l-1.792.756c7.76-3.258 42.141-10.949 48.394-10.11l-1.994-.268c9.191 1.283 18.174 3.765 26.72 7.382l-1.792-.756c4.331 1.839 8.539 3.953 12.6 6.329q3.043 1.784 5.967 3.763 1.384.937 2.738 1.915.677.489 1.346.989l.741.558c1.039.779-1.431-1.128-.342-.267 3.646 2.865 7.109 5.955 10.368 9.253q2.401 2.445 4.637 5.045 1.147 1.334 2.246 2.708c.364.455 1.605 2.101.084.085l1.114 1.479c3.16 4.277 5.966 8.805 8.392 13.538 1.793 3.498 6.987 4.802 10.261 2.691a7.68 7.68 0 0 0 2.691-10.261z"/><path d="M432.497 512.456a3.78 3.78 0 0 1-2.739-6.551l.259-1.03q-.051-.124-.103-.247c-3.48-8.298-25.685 14.833-26.645 22.632a30.03 30.03 0 0 0 .527 10.328 120.39 120.39 0 0 1-10.952-50.003 116.2 116.2 0 0 1 .721-12.963q.597-5.293 1.657-10.511c3.855-18.873 12.132-36.563 24.151-51.616 6.874.384 12.898-.663 13.48-13.985.103-2.37 1.861-4.422 2.248-6.756a30.72 30.72 0 0 1-1.979.183l-.624.032-.077.003c-1.473.066-2.848-.739-3.512-2.055s-.493-2.901.436-4.046q.425-.523.851-1.046l1.302-1.603c.05-.051.096-.105.14-.161l1.485-1.829a10.83 10.83 0 0 0-3.55-3.432c-4.959-2.905-11.801-.893-15.384 3.593-3.593 4.486-4.271 10.779-3.023 16.384a43.4 43.4 0 0 0 6.003 13.383l-.818 1.022c-4.916 6.322-9.201 13.11-12.794 20.268 1.016-7.939-11.412-36.608-16.218-42.681-5.773-7.294-17.611-4.111-18.628 5.136q-.015.134-.029.268 1.071.604 2.096 1.282c1.758 1.175 2.615 3.308 2.157 5.372s-2.135 3.636-4.225 3.958l-.105.016c-9.556 13.644 21.077 49.155 28.745 41.181a125.11 125.11 0 0 0-6.734 31.693c-.488 6.378-.459 12.786.086 19.16l-.032-.226c-1.704-13.882-30.931-34.523-39.466-32.803-4.917.99-9.76.765-9.013 5.725q.018.119.036.237a34.44 34.44 0 0 1 3.862 1.861q1.071.604 2.096 1.282c1.758 1.175 2.615 3.308 2.157 5.372s-2.135 3.636-4.225 3.958l-.105.016-.215.032c-4.35 14.966 27.907 39.12 47.518 31.435h.011c1.943 8.445 4.759 16.665 8.402 24.528h30.015c.108-.333.204-.678.301-1.011a34.1 34.1 0 0 1-8.305-.495l6.681-8.219a1.86 1.86 0 0 0 .14-.161l3.399-4.185v-.002a49.95 49.95 0 0 0-1.464-12.725zm-34.371-67.613l.016-.021-.016.043zm-6.648 59.932l-.258-.581c.011-.42.011-.839 0-1.269 0-.118-.021-.237-.021-.355l.29 2.227z"/><circle cx="95.249" cy="439" r="11"/><circle cx="227.249" cy="559" r="11"/><circle cx="728.249" cy="559" r="11"/><circle cx="755.249" cy="419" r="11"/><circle cx="723.249" cy="317" r="11"/><use xlink:href="#D"/><circle cx="484.249" cy="349" r="11"/><use xlink:href="#D" x="111" y="-70"/><use xlink:href="#D" x="-31" y="-102"/><circle cx="599.249" cy="443" r="11"/><circle cx="426.249" cy="338" r="16"/></g><path d="M858.941 570.841l-857.75.307a1.19 1.19 0 0 1-1.031-1.786 1.19 1.19 0 0 1 1.031-.595l857.75-.307a1.19 1.19 0 1 1 0 2.381z" fill="#cacaca"/><defs ><path id="B" d="M346.15 285.941a37.48 37.48 0 0 0 14.931 20.959c2.82 1.92 6.157 3.762 7.122 7.035a8.38 8.38 0 0 1-.874 6.15c-1.067 1.838-2.364 3.533-3.861 5.041l-.137.512c-6.998-4.147-13.656-9.393-17.522-16.551s-4.406-16.539.341-23.145"/><path id="C" d="M741.284 11.87c-24.717-3.341-52.935 10.019-59.341 34.124a21.6 21.6 0 0 0-41.094 2.109l2.83 2.027c52.967 11.454 107.797 11.206 160.659-.726-17.193-18.069-38.337-34.192-63.054-37.533z"/><path id="D" d="M264.249 419a10.95 10.95 0 0 1-21.847 1.034 10.95 10.95 0 0 1 21.637-3.194 10.99 10.99 0 0 1 .21 2.16z"/></defs></svg>