<svg xmlns="http://www.w3.org/2000/svg" xmlns:xlink="http://www.w3.org/1999/xlink" viewBox="0 0 520.81 393.28" width="406" height="306" xmlns:v="https://vecta.io/nano"><style><![CDATA[.B{fill:#143ce0}]]></style><defs><linearGradient id="A" x1="477.372" y1="224.538" x2="482.149" y2="261.338" gradientUnits="userSpaceOnUse"><stop offset="0" stop-color="#010101" stop-opacity="0"/><stop offset=".95" stop-color="#010101"/></linearGradient><linearGradient id="B" x1="302.87" y1="145.15" x2="153.63" y2="323.22" xlink:href="#A"/><linearGradient id="C" x1="407.418" y1="241.492" x2="412.205" y2="278.29" xlink:href="#A"/><linearGradient id="D" x1="276.283" y1="253.924" x2="281.057" y2="290.715" xlink:href="#A"/><linearGradient id="E" x1="158.881" y1="252.258" x2="122.083" y2="257.044" xlink:href="#A"/><linearGradient id="F" x1="94.307" y1="237.066" x2="57.506" y2="241.843" xlink:href="#A"/><linearGradient id="G" x1="60.83" y1="222.8" x2="499.22" y2="222.8" xlink:href="#A"/><linearGradient id="H" x1="429.02" y1="117.74" x2="201.37" y2="180.23" gradientUnits="userSpaceOnUse"><stop offset="0" stop-color="#fff" stop-opacity="0"/><stop offset=".95" stop-color="#fff"/></linearGradient><linearGradient id="I" x1="269.31" y1="100.48" x2="268.18" y2="263.28" xlink:href="#A"/><linearGradient id="J" x1="313.46" y1="169.74" x2="214.41" y2="191.44" xlink:href="#A"/><linearGradient id="K" x1="289.741" y1="158.108" x2="276.547" y2="160.756" xlink:href="#A"/><linearGradient id="L" x1="315.699" y1="158.94" x2="305.558" y2="160.987" xlink:href="#A"/><linearGradient id="M" x1="283.91" y1="213.82" x2="291.3" y2="104.3" xlink:href="#A"/><linearGradient id="N" x1="289.88" y1="182.13" x2="299.54" y2="182.13" xlink:href="#A"/><linearGradient id="O" x1="416.92" y1="123.92" x2="212.17" y2="180.12" xlink:href="#H"/><path id="P" d="M370.79 137.33v1.08c-.174 13.772-10.784 25.157-24.51 26.3-15.57 1.41-32.58 2.4-50.53 2.86h0c-8.07.24-16.33.33-24.76.33-7.62 0-15.12-.09-22.46-.27-20.36-.49-39.51-1.63-56.8-3.29a26.86 26.86 0 0 1-23.88-21.26l-.51-5.27s26.23-14.54 99-13.64h1.57c9.82.15 20.45.57 32 1.39 19.7 1.32 42 3.67 67.07 7.43z"/></defs><g class="B"><path d="M426.38 346.17c23.36-18.27 42.47-43.81 46.75-73.16.83-5.69 1.12-11.53 3.07-16.95 3.55-9.85 12-16.91 19.07-24.66 36-39.57 33.53-108-5.24-144.82-22.73-21.62-54.24-32-77.26-53.37-10.83-10-20.06-22.64-33.74-28.18-7.85-3.18-16.49-3.71-24.95-4.13-32.17-1.6-65.07-2.08-95.84 7.46-41.69 12.92-77.15 43.54-120.19 50.78-16.18 2.73-32.95 2-48.7 6.64-15.9 4.7-29.84 14.53-42.24 25.57-17.09 15.2-32.11 33.33-40.46 54.63s-9.47 46 .26 66.73c9.19 19.52 26.7 33.54 42.06 48.7s29.75 34 29.52 55.61c-.08 7.39-1.83 15.2 1.3 21.89 3.31 7.07 11.07 10.75 18.3 13.7 99.79 40.65 237.19 64.87 328.29-6.44z" opacity=".24"/><ellipse cx="478.58" cy="233.68" rx="19.5" ry="11.02" transform="matrix(.97 -.25 .25 .97 -50.07 77.7)"/></g><ellipse cx="478.58" cy="233.68" rx="19.5" ry="11.02" transform="matrix(.97 -.25 .25 .97 -50.07 77.7)" fill="url(#A)"/><g class="B"><path d="M236.38 255.09l-37.31 128.89s96.66 16.95 152.62 5.08L307.6 241.48z" opacity=".24"/><ellipse cx="268.34" cy="186.35" rx="135.4" ry="77.5"/></g><ellipse cx="268.34" cy="186.35" rx="135.4" ry="77.5" fill="url(#B)"/><g transform="matrix(.99824 -.059306 .059306 .99824 -20.75 -25.85)"><ellipse cx="408.62" cy="250.64" rx="19.5" ry="11.02" class="B"/><ellipse cx="408.62" cy="250.64" rx="19.5" ry="11.02" fill="url(#C)"/></g><g transform="matrix(.99824 -.059306 .059306 .99824 -21.72 -33.61)"><ellipse cx="277.48" cy="263.07" rx="19.5" ry="11.02" class="B"/><ellipse cx="277.48" cy="263.07" rx="19.5" ry="11.02" fill="url(#D)"/></g><g transform="matrix(.094282 -.995546 .995546 .094282 -123.34 328.1)"><ellipse cx="149.72" cy="253.46" rx="11.02" ry="19.5" class="B"/><ellipse cx="149.72" cy="253.46" rx="11.02" ry="19.5" fill="url(#E)"/></g><g transform="matrix(.294874 -.955536 .955536 .294874 -174.25 198.86)"><ellipse cx="85.14" cy="238.27" rx="11.02" ry="19.5" class="B"/><ellipse cx="85.14" cy="238.27" rx="11.02" ry="19.5" fill="url(#F)"/></g><path d="M492.45 172.28c0 21.07-97.94 38.15-218.77 38.15S54.92 193.35 54.92 172.28c0-2-1.45-14.5.21-16.4 16-18.31 109.06-21.76 218.55-21.76 120.83 0 218.77 17.08 218.77 38.16z" class="B"/><path d="M499.07 222.8c0 21.07-97.94 38.15-218.77 38.15S61.54 243.87 61.54 222.8c0-1.61-1.39-13.85-.28-15.41 13.4-18.83 107.44-22.75 219-22.75 110 0 202.47 3.12 217.92 21.55 1.56 1.81.89 14.72.89 16.61z" transform="translate(-6.62 -50.52)" fill="url(#G)"/><path d="M492.46 157.57c0 12.71-35.66 24-90.47 30.9-36 4.57-80.37 7.25-128.32 7.25-50.26 0-96.58-3-133.53-7.92-51.83-7-85.22-17.91-85.22-30.23s33.03-23.09 84.46-30.09c37.07-5 83.69-8 134.34-8 48.31 0 92.94 2.74 129.14 7.35 54.3 6.89 89.6 18.09 89.6 30.74z" class="B"/><path d="M459.1 154.58c0 11.07-31.05 20.88-78.78 26.91-31.39 4-70 6.32-111.74 6.32-43.77 0-84.1-2.57-116.27-6.9-45.14-6.08-74.22-15.6-74.22-26.33s28.77-20.14 73.51-26.22c32.28-4.38 72.87-7 117-7 42.06 0 80.93 2.39 112.45 6.4 47.33 6.06 78.05 15.81 78.05 26.82z" fill="none" stroke="#fff" stroke-miterlimit="10" stroke-width="3.01"/><path d="M370.38 138.48a102.22 102.22 0 0 1-3 24.59c-27.21 3.46-60.66 5.48-96.85 5.48-37.93 0-72.88-2.23-100.77-6-9.31-38.158 4.172-78.268 34.639-103.056s72.481-29.829 107.947-12.951 58.053 52.659 58.034 91.937z" class="B"/><path d="M377.41,187.85v1.08a26.73,26.73,0,0,1-24.51,26.3c-22.59,2-48.18,3.19-75.32,3.19-28.73,0-55.74-1.3-79.26-3.56a26.86,26.86,0,0,1-23.88-21.26,25.24,25.24,0,0,1-.51-5v-.24a102.94,102.94,0,0,1,2.25-21.44,101.74,101.74,0,0,1,201.23,21Z" transform="translate(-6.62 -50.52)" fill="url(#H)"/><use xlink:href="#P" class="B"/><use xlink:href="#P" x="6.62" y="50.52" transform="translate(-6.62 -50.52)" fill="url(#I)"/><path d="M306.23 117.94c-1.24 2.44-3.29 4.33-5.15 6.32a14.42 14.42 0 0 0-1.18 1.3c-1 1-1.86 2.07-2.71 3.16a16 16 0 0 0-1.08 1.41c-.39.45-.72.94-1.06 1.42l-1.32 2-.18.24c-.21.27-.39.57-.57.84a30.09 30.09 0 0 0-4.28 9.55 16.19 16.19 0 0 0-.3 1.74v.21a11.14 11.14 0 0 0-.12 1.72 13.26 13.26 0 0 0 1.62 6.51 21.9 21.9 0 0 0 1.42 2.13l1.48 2.11a17.21 17.21 0 0 1 1.56 3.34 22.1 22.1 0 0 1 .66 2.38 55.41 55.41 0 0 1 .73 3.29 1.51 1.51 0 0 0 .06.36h0c0-.12 0-.24-.06-.36-8.07.24-16.33.33-24.76.33-7.62 0-15.12-.09-22.46-.27a2.6 2.6 0 0 1 .18-.49 15.69 15.69 0 0 1 6.8-6.92c2.41-1.27 5.09-1.9 7.62-2.92a14.41 14.41 0 0 0 1.66-.73 32.19 32.19 0 0 0 3.13-1.77h0a28.8 28.8 0 0 0 3.19-2.5 12.27 12.27 0 0 0 1-.94l.93-1a15.07 15.07 0 0 0 1.57-2.23 9.15 9.15 0 0 0 .57-1.23 12.29 12.29 0 0 0-.24-8.53 22.79 22.79 0 0 0-.7-1.68c-.25-.54-.54-1.09-.84-1.63s-.6-1.08-.93-1.59-.63-1-.94-1.51h0c-.27-.39-.54-.81-.78-1.17l-4.34-6.54c-.21-.33-.42-.63-.66-1 0-.06-.09-.12-.09-.18l-2.08-3.05c-.7-1-1.29-1.71-2-2.53a43.42 43.42 0 0 1-3.14-3.61 12.89 12.89 0 0 1-1.53-2.92 15.17 15.17 0 0 1-.5-1.62 16.38 16.38 0 0 1-.4-5.13c.09-.87.21-1.71.36-2.56.12-.42.21-.84.33-1.26a24.94 24.94 0 0 1 1.98-4.95 36.45 36.45 0 0 1 5.24-7.11 35.83 35.83 0 0 1 4.63-4.39 22.54 22.54 0 0 1 2.65-1.81 13.79 13.79 0 0 1 1.42-.75l1.44-.61a28.59 28.59 0 0 1 3.26-1c3.79-.87 6.92-.3 10.33 2.86l8 7.38c2.7 2.47 5.27 5 7.86 7.47a11.1 11.1 0 0 1 .84.84 9.41 9.41 0 0 1 2.14 2.86 5.23 5.23 0 0 1 .33.91 15.57 15.57 0 0 1 .48 2.89c.46 4.33.88 8.97-1.07 12.92z" class="B"/><path d="M312.85 168.46c-1.24 2.44-3.29 4.33-5.15 6.32a14.42 14.42 0 0 0-1.18 1.3c-1 1-1.86 2.07-2.71 3.16l-1.08 1.41-1.06 1.42-1.32 2-.18.24c-.21.27-.39.57-.57.84a30.09 30.09 0 0 0-4.28 9.55l-.24 1.17v.13a2.32 2.32 0 0 0-.06.45v.21a11.14 11.14 0 0 0-.12 1.72 13.26 13.26 0 0 0 1.62 6.51 21.9 21.9 0 0 0 1.42 2.13l1.51 2.11a17.09 17.09 0 0 1 1.53 3.34 22.1 22.1 0 0 1 .66 2.38l.7 3.29c-8.07.24-16.33.33-24.76.33-7.62 0-15.12-.09-22.46-.27a2.6 2.6 0 0 1 .18-.49 15.69 15.69 0 0 1 6.8-6.92c2.41-1.27 5.09-1.9 7.62-2.92a14.41 14.41 0 0 0 1.66-.73 24.68 24.68 0 0 0 3.13-1.77h0a25.63 25.63 0 0 0 3.19-2.5 12.27 12.27 0 0 0 1-.94l.93-1a13.13 13.13 0 0 0 1.57-2.23 9.15 9.15 0 0 0 .57-1.23 12.29 12.29 0 0 0-.24-8.53 22.79 22.79 0 0 0-.7-1.68c-.25-.54-.54-1.12-.84-1.63s-.6-1.08-.93-1.59-.63-1-.94-1.51h0c-.27-.39-.54-.81-.78-1.17l-4.34-6.54c-.21-.33-.42-.63-.63-1 0-.06-.09-.12-.09-.18l-2.08-3.05c-.7-1-1.29-1.71-2-2.53a43.42 43.42 0 0 1-3.14-3.61 12.89 12.89 0 0 1-1.53-2.92 16.29 16.29 0 0 1-.9-6.75c.09-.87.21-1.71.36-2.56.12-.42.21-.84.33-1.26a21.73 21.73 0 0 1 1.98-4.96 36.45 36.45 0 0 1 5.24-7.11 35.83 35.83 0 0 1 4.63-4.39 22.54 22.54 0 0 1 2.65-1.81 13.79 13.79 0 0 1 1.42-.75c.48-.24 1-.45 1.44-.64.26-.09.48-.13.73-.22a25.47 25.47 0 0 1 2.53-.77c3.79-.87 6.92-.3 10.33 2.86l8 7.38c2.7 2.47 5.24 5 7.86 7.44h0a7.4 7.4 0 0 1 .84.84 9.41 9.41 0 0 1 2.14 2.86 5.23 5.23 0 0 1 .33.91 15.57 15.57 0 0 1 .48 2.89c.46 4.38.88 9.02-1.07 12.97z" transform="translate(-6.62 -50.52)" fill="url(#J)"/><g class="B"><ellipse cx="277.17" cy="160.62" rx="7.39" ry="9.25" transform="matrix(.837337 -.546687 .546687 .837337 -49.34 127.12)"/><ellipse cx="306.05" cy="160.88" rx="9.25" ry="6.17" transform="matrix(.546687 -.837337 .837337 .546687 -2.58 278.7)"/></g><ellipse cx="277.17" cy="160.62" rx="7.39" ry="9.25" transform="matrix(.837337 -.546687 .546687 .837337 -49.34 127.12)" fill="url(#K)"/><ellipse cx="306.05" cy="160.88" rx="9.25" ry="6.17" transform="matrix(.546687 -.837337 .837337 .546687 -2.58 278.7)" fill="url(#L)"/><g transform="translate(-6.62 -50.52)"><path d="M300.34 184l-.73 1.1a30.19 30.19 0 0 0-4.3 9.54l-.22 1.19a.18.18 0 0 1 0 .1c-.82 4.26-.54 8.81-2.57 12.78a2.48 2.48 0 0 1-1.44 1.4c-1.28.35-2.38-.86-2.81-1.94-1.1-2.63-1.06-5.5-1.44-8.29a31.24 31.24 0 0 0-8.72-17.5l-.78-1.19-5-7.49a1.63 1.63 0 0 1-.11-.17c3.48 1.53 10.24 5.89 11.4 6.56 2.89 1.6 6.33 8 9.66 8.76 2.45.6 4.3-1.43 7.06-4.85z" fill="url(#M)"/><path d="M295.09 181.74a1.28 1.28 0 0 0 .51.09 1.38 1.38 0 0 0 .42-.17 6.34 6.34 0 0 1 3.3-.45.24.24 0 0 1 .18 0c.11.12-.06.3-.21.36-1 .42-2.21.39-3.16 1a2.89 2.89 0 0 1-1 .5 2.16 2.16 0 0 1-.86-.17 6.09 6.09 0 0 0-2.25-.24 7.42 7.42 0 0 1-1.82.1c-.14 0-.32-.12-.31-.26s.18-.19.32-.21c1.63-.29 3.19-1.06 4.88-.55z" fill="url(#N)"/><path d="M370.51,187.4V188a24.08,24.08,0,0,1-22.05,23.65c-20.31,1.82-43.34,2.85-67.74,2.85-25.83,0-50.13-1.15-71.29-3.17a24.06,24.06,0,0,1-21.94-23.65v-.23a91.51,91.51,0,1,1,183,0Z" opacity=".23" fill="url(#O)"/></g></svg>