<svg id="Layer_1" data-name="Layer 1" xmlns="http://www.w3.org/2000/svg" xmlns:xlink="http://www.w3.org/1999/xlink" viewBox="0 0 388.98 281.92" width="406" height="306" class="illustration styles_illustrationTablet__1DWOa"><defs><linearGradient id="linear-gradient" x1="313.05" y1="330.35" x2="335.38" y2="330.35" gradientUnits="userSpaceOnUse"><stop offset="0" stop-opacity="0"></stop><stop offset="0.99"></stop></linearGradient><linearGradient id="linear-gradient-2" x1="338.21" y1="330.35" x2="360.54" y2="330.35" xlink:href="#linear-gradient"></linearGradient><linearGradient id="linear-gradient-3" x1="343.75" y1="349.97" x2="328.22" y2="166.02" gradientUnits="userSpaceOnUse"><stop offset="0.02" stop-color="#fff" stop-opacity="0"></stop><stop offset="0.58" stop-color="#fff" stop-opacity="0.39"></stop><stop offset="0.68" stop-color="#fff" stop-opacity="0.68"></stop><stop offset="1" stop-color="#fff"></stop></linearGradient><linearGradient id="linear-gradient-4" x1="335.34" y1="185.59" x2="310.27" y2="159.16" xlink:href="#linear-gradient-3"></linearGradient><linearGradient id="linear-gradient-5" x1="341.42" y1="110.43" x2="328.47" y2="111.52" gradientUnits="userSpaceOnUse"><stop offset="0" stop-color="#e5c5d5"></stop><stop offset="0.42" stop-color="#ead4d1"></stop><stop offset="1" stop-color="#f0e9cb"></stop></linearGradient><linearGradient id="linear-gradient-6" x1="305.92" y1="223.85" x2="316.41" y2="223.85" xlink:href="#linear-gradient-3"></linearGradient><linearGradient id="linear-gradient-7" x1="290.46" y1="162.65" x2="284.87" y2="155.57" xlink:href="#linear-gradient-5"></linearGradient><linearGradient id="linear-gradient-8" x1="27.8" y1="213.11" x2="170.97" y2="213.11" xlink:href="#linear-gradient-3"></linearGradient></defs><title>Artificial Intelligence</title><path d="M277.68,65.54,275.16,73H260a19.49,19.49,0,0,0-19.49,19.5V174.5l-34,99.65c1.29,4.55-26.25,13.66-73,13.16-68.12-.71-70.19-13.16-70.19-13.16L4,67.13Z" transform="translate(-3.98 -65.54)" fill="#181063" opacity="0.18" style="isolation: isolate;"></path><path d="M189.52,278.65,235.44,66.77H46.86L83.92,279.33s-19.31,11.76,48.81,12.48C179.46,292.3,190.82,283.2,189.52,278.65Z" transform="translate(-3.98 -65.54)" fill="#181063" opacity="0.18" style="isolation: isolate;"></path><path d="M260.21,322.37c-3.46-.24-7.57-1.07-8.85-4.26-.93-2.32.1-5-.29-7.44-.81-5.24-7.11-7.43-12.35-8.58l-22.3-4.86c-2.31-.51-4.79-1.11-6.33-2.89-1.09-1.27-1.53-3-2.37-4.42-3.49-6.05-12.13-6.12-19.15-5.51A830.58,830.58,0,0,1,70,286.21c-11.88-.67-24.37-1.49-35.11,3.57a6.1,6.1,0,0,0-3.21,2.68c-.86,1.91.27,4.09,1.46,5.82,10.06,14.58,27.05,23.38,44.48,27.28s35.52,3.44,53.39,3l68.17-1.83c2.7-.08,5.73,0,7.63,1.87s1.9,5.17,3.15,7.67c1.74,3.49,5.77,5.19,9.55,6.32,14.59,4.36,30.09,4.53,45.34,4.67,38.14.35,76.33.69,114.4-1.79,5.66-.37,12.79-2.07,13.64-7.61.52-3.41-2-6.71-5.07-8.3s-6.71-1.84-10.2-2.06l-62.93-3.95c-8-.5-16.08-2.22-23.94-2.4C280.57,320.87,270.55,323.09,260.21,322.37Z" transform="translate(-3.98 -65.54)" fill="#181063" opacity="0.18" style="isolation: isolate;"></path><path d="M335.35,333.3a1.67,1.67,0,0,1-.11,1,1.69,1.69,0,0,1-1.27.59,93.24,93.24,0,0,1-20.92.53,30,30,0,0,1,11.44-4.71,2.07,2.07,0,0,0,2.34-2.09,14.82,14.82,0,0,1,.79-3.08,1.14,1.14,0,0,1,.4-.6,1.24,1.24,0,0,1,.66-.09l3.62.19c1.44.09,1.5,0,1.86,1.43A48.46,48.46,0,0,1,335.35,333.3Z" transform="translate(-3.98 -65.54)" fill="#3e3e54"></path><path d="M360.51,333.3a1.6,1.6,0,0,1-.12,1,1.69,1.69,0,0,1-1.27.59,93.15,93.15,0,0,1-20.91.53,30,30,0,0,1,11.44-4.71,2.82,2.82,0,0,0,2.05-1,3,3,0,0,0,.29-1.08,14.22,14.22,0,0,1,.79-3.08,1.09,1.09,0,0,1,.4-.6,1.19,1.19,0,0,1,.65-.09l3.62.19c1.45.09,1.5,0,1.87,1.43A50,50,0,0,1,360.51,333.3Z" transform="translate(-3.98 -65.54)" fill="#3e3e54"></path><path d="M335.35,333.3a1.67,1.67,0,0,1-.11,1,1.69,1.69,0,0,1-1.27.59,93.24,93.24,0,0,1-20.92.53,30,30,0,0,1,11.44-4.71,2.07,2.07,0,0,0,2.34-2.09,14.82,14.82,0,0,1,.79-3.08,1.14,1.14,0,0,1,.4-.6,1.24,1.24,0,0,1,.66-.09l3.62.19c1.44.09,1.5,0,1.86,1.43A48.46,48.46,0,0,1,335.35,333.3Z" transform="translate(-3.98 -65.54)" fill="url(#linear-gradient)"></path><path d="M360.51,333.3a1.6,1.6,0,0,1-.12,1,1.69,1.69,0,0,1-1.27.59,93.15,93.15,0,0,1-20.91.53,30,30,0,0,1,11.44-4.71,2.82,2.82,0,0,0,2.05-1,3,3,0,0,0,.29-1.08,14.22,14.22,0,0,1,.79-3.08,1.09,1.09,0,0,1,.4-.6,1.19,1.19,0,0,1,.65-.09l3.62.19c1.45.09,1.5,0,1.87,1.43A50,50,0,0,1,360.51,333.3Z" transform="translate(-3.98 -65.54)" fill="url(#linear-gradient-2)"></path><path d="M311.46,210.93,319.92,327l16.94-.19-1.46-83,11.35,82.54,14.29.13-.54-124S344.75,173.29,311.46,210.93Z" transform="translate(-3.98 -65.54)" fill="#3e3e54"></path><path d="M383.39,92.45v85.19a19.5,19.5,0,0,1-19.5,19.49H260a19.49,19.49,0,0,1-19.49-19.49V92.45A19.49,19.49,0,0,1,260,73H363.89A19.51,19.51,0,0,1,383.39,92.45Z" transform="translate(-3.98 -65.54)" fill="#181063" opacity="0.18" style="isolation: isolate;"></path><path d="M267.66,129.74c1.47,10.24,4.85,20.11,8.21,29.9,2.67,7.76,5.58,15.9,11.78,21.28,3.05,2.66,7,4.85,8.1,8.75.64,2.34.06,4.83-.51,7.19l20.79-.47a3.69,3.69,0,0,0,1.89-.37,3.4,3.4,0,0,0,1.26-1.92c1.61-4.59,1.51-9.57,1.76-14.43.6-12,3.71-24.36,11.84-33.16a12,12,0,0,0,2.69-3.6,10.3,10.3,0,0,0,.38-4.25q-.94-19.77-.42-39.56a6,6,0,0,0-.24-2.31,5.79,5.79,0,0,0-1.08-1.57l-6-7a4.76,4.76,0,0,0-1.23-1.14c-1.37-.8-3.11-.15-4.56.51-2.65,1.21-5.5,2.61-6.76,5.23a12.56,12.56,0,0,0-.89,5.1l-.45,13.22c-.15,4.22-.09,8.95,2.9,11.92,1.33,1.3,3.15,2.17,4,3.82a7.42,7.42,0,0,1,.43,4.18,33.53,33.53,0,0,1-1.67,7.34,66.36,66.36,0,0,1-3.1,7.14l-12,25c-.29.58-.75,1.27-1.39,1.15a1.5,1.5,0,0,1-.87-.74c-8.16-12-12.61-26.41-21.84-37.63-1.44-1.75-3.45-4.16-5.71-4.89C272.46,127.59,270.2,129,267.66,129.74Z" transform="translate(-3.98 -65.54)" fill="#181063" opacity="0.18" style="isolation: isolate;"></path><path d="M280.48,148.08c-2.16-5.93-5.27-13.73-7.43-19.66-.55-1.5-1.1-3-1.75-4.46,7.31-1,14.25-2.35,21.61-2.84a1.64,1.64,0,0,1,2.08,1.45l10.41,31.88-5.9,19.24Z" transform="translate(-3.98 -65.54)" fill="#fff"></path><path d="M337.31,257.34c8.56,0,17-1.15,24.95-4.29a6.76,6.76,0,0,0,2.64-1.58c1.27-1.41,1.22-3.54,1.09-5.43-1.95-28.85-5.85-57.6-5.94-86.51,0-5.34.09-10.74-1.12-15.94s-3.93-10.27-8.44-13.13c-4.91-3.12-11.12-3.17-16.92-2.74-5.39.41-11,1.24-15.45,4.29-10.2,7-5.81,25.47-6.27,36a430.21,430.21,0,0,1-5.1,46.95c-1.36,8.76-2.85,17.5-4.31,26.24-.76,4.53-1,10.2,2.87,12.62a11.75,11.75,0,0,0,4.76,1.32c6.72.87,13.46,1.71,20.23,2.07,1.69.09,3.38.15,5.07.17,2.08,0,2-.37,2.9-2.22q2.26-4.83,4.51-9.67.51,6,.7,12.13" transform="translate(-3.98 -65.54)" fill="#181063"></path><path d="M337.32,257.15c8.57,0,17-1.15,25-4.3a6.72,6.72,0,0,0,2.63-1.58c1.27-1.41,1.23-3.53,1.1-5.43-1.95-28.85-5.85-57.6-5.94-86.51,0-5.34.09-10.74-1.12-15.93s-3.94-10.28-8.44-13.13c-4.91-3.12-11.12-3.18-16.93-2.74-5.39.41-11,1.24-15.44,4.28-10.2,6.95-5.81,25.47-6.27,36a430.23,430.23,0,0,1-5.11,46.95c-1.35,8.76-2.84,17.5-4.31,26.25-.75,4.53-1,10.19,2.88,12.61a11.59,11.59,0,0,0,4.75,1.32c6.73.87,13.46,1.71,20.24,2.07,1.69.09,3.38.15,5.07.17,2.08,0,2-.36,2.9-2.21q2.25-4.85,4.51-9.68.51,6.06.69,12.13" transform="translate(-3.98 -65.54)" fill="url(#linear-gradient-3)"></path><path d="M317.85,171.29c-1.11,3.11-2.22,6.22-3.63,9.2a8.92,8.92,0,0,1-3.09,4,6.45,6.45,0,0,1-3,.84c-3.84.21-7.45-1.81-10.5-4.14a46,46,0,0,1-11.82-13.42,4.4,4.4,0,0,1-.7-1.76,4.84,4.84,0,0,1,1.21-3.12l4.36-6.26a48.13,48.13,0,0,0,9.77,9.46,1.38,1.38,0,0,0,1.15.37c.42-.13.61-.61.74-1l5.28-17.23c1.67-5.41,3.75-11.36,8.73-14.06a4.6,4.6,0,0,1,2-.63,4.69,4.69,0,0,1,3.27,1.68c4.32,4.42,4.12,10.28,2.76,15.8A212.63,212.63,0,0,1,317.85,171.29Z" transform="translate(-3.98 -65.54)" fill="#181063"></path><path d="M317.82,171.06c-1.11,3.11-2.22,6.22-3.63,9.2a8.92,8.92,0,0,1-3.09,4,6.59,6.59,0,0,1-3.05.85c-3.83.2-7.44-1.82-10.49-4.15a45.89,45.89,0,0,1-11.82-13.42,4.59,4.59,0,0,1-.71-1.75,4.85,4.85,0,0,1,1.22-3.13l4.36-6.25a47.58,47.58,0,0,0,9.77,9.45,1.34,1.34,0,0,0,1.14.37c.43-.13.62-.61.75-1L307.55,148c1.66-5.42,3.74-11.37,8.73-14.06a4.35,4.35,0,0,1,2-.63,4.64,4.64,0,0,1,3.27,1.67c4.32,4.42,4.12,10.28,2.75,15.8A211.67,211.67,0,0,1,317.82,171.06Z" transform="translate(-3.98 -65.54)" fill="url(#linear-gradient-4)"></path><path d="M330.94,124.16a4.19,4.19,0,0,0-.39-1.89c-.59-1.13-1.92-1.6-3.1-2.06-2.32-.91-4.63-2.25-5.8-4.44-1.29-2.39-1-5.3-.56-8a31.63,31.63,0,0,1,2.33-8.7,12.79,12.79,0,0,1,6.1-6.41c3.38-1.5,7.37-.94,10.77.49a9.61,9.61,0,0,1,3.46,2.22c2,2.17,2.17,5.4,2.07,8.34a79.62,79.62,0,0,1-4.47,23.81,3.5,3.5,0,0,1-.83,1.51,3.14,3.14,0,0,1-1.51.67c-1.87.44-5.33.94-7.1-.1C330,128.49,331,126.17,330.94,124.16Z" transform="translate(-3.98 -65.54)" fill="url(#linear-gradient-5)"></path><path d="M324.72,92.5c.77,3.25,3.21,5.91,6,7.73a12.69,12.69,0,0,1,3.41,2.6c1.51,1.94,1.35,4.66,1.12,7.11.69.31,1.42-.33,1.92-.91s1.28-1.19,1.94-.81a1.44,1.44,0,0,1,.55.69,4.62,4.62,0,0,1-2.12,5.85,3.69,3.69,0,0,0-1.08.61,2,2,0,0,0,0,2.34c.44.72,1.1,1.28,1.54,2,1.14,1.8,1,4.58,2.88,5.5a3.24,3.24,0,0,0,3.57-.89,9.49,9.49,0,0,0,1.84-3.43q3.56-9.73,6.79-19.56a9.47,9.47,0,0,0,.7-3.91A4.82,4.82,0,0,0,351.67,94a2.39,2.39,0,0,1-.85-.72,2.52,2.52,0,0,1-.05-1.54,5.37,5.37,0,0,0-1.64-4.23A12,12,0,0,0,345.18,85a31.15,31.15,0,0,0-14.46-2.39C326.28,82.94,323.78,88.52,324.72,92.5Z" transform="translate(-3.98 -65.54)" fill="#3e3e54"></path><path d="M320.29,164.88a343.34,343.34,0,0,1-5.53,81" transform="translate(-3.98 -65.54)" fill="#fff"></path><path d="M316.27,217.46a19.59,19.59,0,0,1-.41,7.16,10,10,0,0,1-4,5.8c-1.18.76-2.83,1.16-4,.31a4.34,4.34,0,0,1-1.31-2.56,20.88,20.88,0,0,1-.65-5.83c.09-1.49.68-5.43,2.48-5.83a6.58,6.58,0,0,1,1.42.27c.71.09,1.43.15,2.14.23Z" transform="translate(-3.98 -65.54)" fill="url(#linear-gradient-6)"></path><path d="M286.47,162.73a17.88,17.88,0,0,1-6-14.65c1.37-.19,2.54.93,3.42,2s1.9,2.37,2.77,3.61a1.23,1.23,0,0,0,.58.55c.33.11.73-.06,1,.11a1,1,0,0,1,.36.44,19.5,19.5,0,0,1,1.26,2.8" transform="translate(-3.98 -65.54)" fill="url(#linear-gradient-7)"></path><path d="M217.7,141.5c-1.16,2.26-3.54,3.56-5.8,4.71q-31.89,16.33-65,30.16c-11.7,4.9-23.9,9.63-36.59,9.41-2.93-.05-6.1-.48-8.17-2.56-1.88-1.91-2.41-4.79-2.23-7.47A18.27,18.27,0,0,1,106,163.34l-.55-1.21c-2.09-4.72-3.84-9.8-2.94-14.85,1-5.48,6.32-10.52,11.71-9.15a10.26,10.26,0,0,1,12-16.25c-1.34-3.29-2.71-6.74-2.43-10.28.35-4.53,6.94-10.54,10.16-13.68a18.16,18.16,0,0,1,15.73-4.82,14.19,14.19,0,0,1,2.21.61c3-3.84,8.43-4.92,13.29-4.47,12.36,1.16,23.32,11.33,25.4,23.57,7.7-1.19,15.52,6.08,14.89,13.86a12.42,12.42,0,0,1,12.7,9.28A8.14,8.14,0,0,1,217.7,141.5Z" transform="translate(-3.98 -65.54)" fill="#181063"></path><path d="M189.44,114.5a15.16,15.16,0,0,0-7-5.88,22.94,22.94,0,0,0-7.48-1.49,20.36,20.36,0,0,0-7.38.69,9.76,9.76,0,0,0-5.71,4.5" transform="translate(-3.98 -65.54)" fill="none" stroke="#fff" stroke-linecap="round" stroke-miterlimit="10" stroke-width="1.94"></path><path d="M127.48,135.86a12.32,12.32,0,0,1,2.5-5.76,8.15,8.15,0,0,1,1.64-2c1.92-1.54,4.69-1.15,7.11-.68a21.72,21.72,0,0,1,.15-5.64,7.22,7.22,0,0,1,2.91-4.67c2.2-1.41,5.05-1,7.63-.59" transform="translate(-3.98 -65.54)" fill="none" stroke="#fff" stroke-linecap="round" stroke-miterlimit="10" stroke-width="1.94"></path><path d="M195.87,138.16c-1.21-2.15-4.23-2.51-6.62-1.85a12.45,12.45,0,0,0-8.91,11.13" transform="translate(-3.98 -65.54)" fill="none" stroke="#fff" stroke-linecap="round" stroke-miterlimit="10" stroke-width="1.94"></path><path d="M116.69,173.59a37.6,37.6,0,0,1,.3-9.71,6.93,6.93,0,0,1,1.56-3.89,6,6,0,0,1,3.19-1.5A13.92,13.92,0,0,1,136,164.88c-.79-3.38,1.75-7,5.08-8s7.05.16,9.72,2.39" transform="translate(-3.98 -65.54)" fill="none" stroke="#fff" stroke-linecap="round" stroke-miterlimit="10" stroke-width="1.94"></path><path d="M171.69,137c.95.77.9,2.22.68,3.43-.77,4-2.9,8.16-6.68,9.77a13.32,13.32,0,0,1-5.88.79c-3.64-.2-7.54-1.28-9.69-4.22l-3.47,3.4" transform="translate(-3.98 -65.54)" fill="none" stroke="#fff" stroke-linecap="round" stroke-miterlimit="10" stroke-width="1.94"></path><path d="M162.93,129.7a7.71,7.71,0,0,1,6.59-7.81,12.28,12.28,0,0,1,4.13.4c2.07.49,4.24,1.28,5.41,3.06" transform="translate(-3.98 -65.54)" fill="none" stroke="#fff" stroke-linecap="round" stroke-miterlimit="10" stroke-width="1.94"></path><path d="M148.77,88.92l-1.48,2.32a18.12,18.12,0,0,0-15.73,4.82c-3.23,3.14-9.81,9.15-10.17,13.68-.28,3.54,1.09,7,2.43,10.27a10.26,10.26,0,0,0-12,16.26c-5.39-1.37-10.73,3.67-11.71,9.15-.9,5,.85,10.13,2.94,14.84L92.41,176.88c-7.31,3.66-16.87,4.23-23.11-1a15.34,15.34,0,0,1-3.39-4.05c-3.09-5.36-2.6-12.34.48-17.69s9.16-9.78,15-11.76A13.89,13.89,0,0,1,88.8,123a24.88,24.88,0,0,1-1.62-9.55,17.79,17.79,0,0,1,8.06-13.27,23.69,23.69,0,0,1,15.39-3.48,2.55,2.55,0,0,0,3.18-1.86A19.06,19.06,0,0,1,123,86.55a38.25,38.25,0,0,1,6.67-1.91,22.68,22.68,0,0,1,6.18-.78,19,19,0,0,1,6,1.61A55.9,55.9,0,0,1,148.77,88.92Z" transform="translate(-3.98 -65.54)" fill="#181063"></path><path d="M143.42,116.9a17.75,17.75,0,0,1,9.65-17.3" transform="translate(-3.98 -65.54)" fill="none" stroke="#fff" stroke-linecap="round" stroke-miterlimit="10" stroke-width="1.94"></path><path d="M153.69,135.4a9.12,9.12,0,0,0-10.18,10.9" transform="translate(-3.98 -65.54)" fill="none" stroke="#fff" stroke-linecap="round" stroke-miterlimit="10" stroke-width="1.94"></path><path d="M132.76,149.76a14.18,14.18,0,0,0-16.55,4.1" transform="translate(-3.98 -65.54)" fill="none" stroke="#fff" stroke-linecap="round" stroke-miterlimit="10" stroke-width="1.94"></path><path d="M94.6,131.27A4.15,4.15,0,0,1,93,127.7a10.16,10.16,0,0,1,1.1-3.92,36.53,36.53,0,0,1,2.49-4.55,10.86,10.86,0,0,1,2.67-3.09c2.43-1.74,5.7-1.57,8.68-1.32" transform="translate(-3.98 -65.54)" fill="none" stroke="#fff" stroke-linecap="round" stroke-miterlimit="10" stroke-width="1.94"></path><path d="M119.08,100.86a6.18,6.18,0,0,0-5.28,2.5,10.91,10.91,0,0,0-2,5.67" transform="translate(-3.98 -65.54)" fill="none" stroke="#fff" stroke-linecap="round" stroke-miterlimit="10" stroke-width="1.94"></path><path d="M81,164.92c-.6.27-1.09-.57-1.19-1.22a14.12,14.12,0,0,1,8.79-15" transform="translate(-3.98 -65.54)" fill="none" stroke="#fff" stroke-linecap="round" stroke-miterlimit="10" stroke-width="1.94"></path><ellipse cx="126.27" cy="222.35" rx="81.74" ry="22.63" fill="#181063"></ellipse><ellipse cx="130.15" cy="213.11" rx="71.59" ry="13.28" fill="url(#linear-gradient-8)"></ellipse><polyline points="129.57 221.77 129.57 186.27 99.29 186.27 99.29 148.11" fill="none" stroke="#fff" stroke-miterlimit="10" stroke-width="1.45"></polyline><circle cx="99.74" cy="143.75" r="4.36" fill="none" stroke="#fff" stroke-miterlimit="10" stroke-width="1.45"></circle><circle cx="68.13" cy="168.55" r="4.36" fill="none" stroke="#fff" stroke-miterlimit="10" stroke-width="1.45"></circle><circle cx="114.19" cy="147.02" r="4.36" fill="none" stroke="#fff" stroke-miterlimit="10" stroke-width="1.45"></circle><circle cx="127" cy="128.77" r="4.36" fill="none" stroke="#fff" stroke-miterlimit="10" stroke-width="1.45"></circle><circle cx="162.15" cy="132.85" r="4.36" fill="none" stroke="#fff" stroke-miterlimit="10" stroke-width="1.45"></circle><circle cx="190.95" cy="144.93" r="4.36" fill="none" stroke="#fff" stroke-miterlimit="10" stroke-width="1.45"></circle><circle cx="173.6" cy="197.89" r="4.36" fill="none" stroke="#fff" stroke-miterlimit="10" stroke-width="1.45"></circle><polyline points="99.29 164.47 114.28 164.47 114.28 150.57" fill="none" stroke="#fff" stroke-miterlimit="10" stroke-width="1.45"></polyline><polyline points="130.36 191.99 148.07 191.99 148.07 165.28 127.09 165.28 127.09 133.13" fill="none" stroke="#fff" stroke-miterlimit="10" stroke-width="1.45"></polyline><polyline points="162.24 137.21 162.24 176.18 148.34 176.18" fill="none" stroke="#fff" stroke-miterlimit="10" stroke-width="1.45"></polyline><polyline points="128.72 202.89 82.67 202.89 82.67 169.64 72.04 169.64" fill="none" stroke="#fff" stroke-miterlimit="10" stroke-width="1.45"></polyline><polyline points="162.42 162.74 173.69 162.74 173.69 193.81" fill="none" stroke="#fff" stroke-miterlimit="10" stroke-width="1.45"></polyline><polyline points="173.69 178.36 181.46 178.36 181.46 145.66 187.59 145.66" fill="none" stroke="#fff" stroke-miterlimit="10" stroke-width="1.45"></polyline><rect x="251.36" y="19.89" width="37.61" height="24.12" rx="4.47" fill="#181063" opacity="0.18" style="isolation: isolate;"></rect><rect x="252.92" y="21.09" width="37.61" height="24.12" rx="4.47" fill="#181063" opacity="0.18" style="isolation: isolate;"></rect></svg>