<svg xmlns="http://www.w3.org/2000/svg" xmlns:xlink="http://www.w3.org/1999/xlink" xmlns:v="https://vecta.io/nano" viewBox="0 0 1065 650" width="1420" height="866.667"><style><![CDATA[.B{fill:#143ce0}.C{stroke-miterlimit:3}.D{stroke:#20079d}.E{stroke-linecap:square}.F{stroke-miterlimit:10}.G{stroke-width:2}.H{stroke-width:2.025}.I{stroke-linecap:round}]]></style><defs><clipPath id="A"><path d="M0 0h1065v650H0z"/></clipPath><path id="B" d="M765.168 612.232c.102.515.043 1.049-.169 1.529a2.58 2.58 0 0 1-1.942.902 142.55 142.55 0 0 1-31.988.811 45.87 45.87 0 0 1 17.493-7.202c.913.12 1.834-.164 2.521-.778s1.073-1.497 1.057-2.418c.232-1.609.637-3.188 1.208-4.71.099-.364.313-.686.611-.917a1.9 1.9 0 0 1 1.009-.138l5.536.291c2.202.137 2.293 0 2.844 2.186.855 3.434 1.463 6.924 1.82 10.444z"/><path id="C" d="M803.64 612.232a2.45 2.45 0 0 1-.184 1.529 2.58 2.58 0 0 1-1.942.902 142.42 142.42 0 0 1-31.973.811 45.87 45.87 0 0 1 17.493-7.202c1.213-.046 2.351-.601 3.134-1.529a4.59 4.59 0 0 0 .444-1.652 21.68 21.68 0 0 1 1.208-4.709c.094-.367.309-.69.611-.918.312-.138.657-.186.994-.138l5.536.291c2.217.138 2.293 0 2.859 2.187.847 3.43 1.455 6.914 1.82 10.428z"/></defs><g clip-path="url(#A)"><mask id="D" x="-200%" y="-200%" width="400%" height="400%"><path d="M-2130-1300h4260v2600h-4260z" fill="#fff"/><path d="M545.34 60.368h0 0q-2.053 0-2.053-2.078h0V28.904h0q0-2.078 2.053-2.078h0 11.438 0q4.473 0 6.856 2.412h0 0q2.383 2.411 2.383 6.938h0v1.484h0q0 4.527-2.383 6.939h0 0q-2.383 2.411-6.856 2.411h0-9.385v11.28h0q0 2.078-2.053 2.078zm2.053-29.387v11.874h9.385 0q2.786 0 3.96-1.188h0 0q1.173-1.187 1.173-4.007h0v-1.484h0q0-2.795-1.173-3.995h0 0q-1.174-1.2-3.96-1.2h0-9.385zm27.911 29.387h0 0q-1.051 0-1.552-.507h0 0q-.501-.508-.501-1.571h0V28.953h0q0-1.088.501-1.583h0 0q.501-.495 1.552-.495h0 0q1.075 0 1.564.495h0 0q.489.495.489 1.583h0V58.29h0q0 1.063-.489 1.571h0 0q-.489.507-1.564.507zm27.862 0H597.3h0q-5.597 0-8.273-2.709h0 0q-2.676-2.709-2.676-8.373h0V37.907h0q0-5.714 2.664-8.422h0 0q2.664-2.709 8.236-2.659h0 5.915 0q4.594 0 7.014 1.917h0 0q2.419 1.917 2.81 6.048h0 0q.147 1.039-.391 1.583h0 0q-.537.544-1.564.544h0 0q-1.857 0-2.15-2.078h0 0q-.245-2.275-1.552-3.067h0 0q-1.308-.792-4.167-.792h0-5.915 0q-2.591-.024-4.069.594h0 0q-1.479.618-2.102 2.14h0 0q-.623 1.521-.623 4.192h0v11.379h0q0 2.647.623 4.156h0 0q.623 1.508 2.114 2.139h0 0q1.491.631 4.106.631h0 5.866 0q2.859 0 4.167-.804h0 0q1.307-.804 1.552-3.055h0 0q.293-2.078 2.15-2.078h0 0q1.027 0 1.564.545h0 0q.538.544.391 1.583h0 0q-.391 4.155-2.81 6.06h0 0q-2.42 1.905-7.014 1.905h0zm33.702 0h-7.038 0q-4.18 0-6.514-1.707h0 0q-2.334-1.707-2.92-5.269h0 0q-.098-1.088.44-1.632h0 0q.537-.545 1.564-.545h0 0q1.026 0 1.503.495h0 0q.476.495.648 1.534h0 0q.366 1.706 1.576 2.337h0 0q1.21.631 3.703.631h0 7.038 0q3.153 0 4.29-1.15h0 0q1.136-1.15 1.136-4.292h0 0q0-3.191-1.173-4.366h0 0q-1.173-1.175-4.253-1.175h0-6.061 0q-4.619 0-6.855-2.288h0 0q-2.236-2.288-2.236-6.963h0 0q0-4.65 2.211-6.901h0 0q2.212-2.251 6.831-2.251h0 5.817 0q3.886 0 6.098 1.608h0 0q2.212 1.607 2.798 4.922h0 0q.147 1.064-.391 1.62h0 0q-.537.557-1.613.557h0 0q-.977 0-1.466-.52h0 0q-.489-.519-.636-1.508h0 0q-.391-1.46-1.49-1.992h0 0q-1.1-.532-3.3-.532h0-5.817 0q-2.932 0-3.934 1.052h0 0q-1.003 1.051-1.003 3.945h0 0q0 2.919 1.027 4.007h0 0q1.026 1.089 3.959 1.089h0 6.061 0q4.815 0 7.173 2.374h0 0q2.359 2.375 2.359 7.322h0 0q0 4.923-2.346 7.26h0 0q-2.347 2.338-7.186 2.338h0zm-212.115 0h0 0q-2.053 0-2.053-2.078h0V28.904h0q0-2.078 2.053-2.078h0 11.438 0q4.472 0 6.855 2.412h0 0q2.383 2.411 2.383 6.938h0v1.484h0q0 4.527-2.383 6.939h0 0q-2.383 2.411-6.855 2.411h0-9.385v11.28h0q0 2.078-2.053 2.078zm2.053-29.387v11.874h9.385 0q2.786 0 3.959-1.188h0 0q1.173-1.187 1.173-4.007h0v-1.484h0q0-2.795-1.173-3.995h0 0q-1.173-1.2-3.959-1.2h0-9.385zm27.911 29.387h0 0q-1.051 0-1.552-.507h0 0q-.501-.508-.501-1.571h0V28.953h0q0-1.088.501-1.583h0 0q.501-.495 1.552-.495h0 0q1.075 0 1.564.495h0 0q.488.495.488 1.583h0V58.29h0q0 1.063-.488 1.571h0 0q-.489.507-1.564.507zm11.34-.446h0 0q-1.638-1.137-.489-2.918h0l8.945-13.358-9.434-13.456h0q-1.1-1.633.538-2.919h0 0q1.686-1.163 2.835.544h0l8.749 12.418L486 27.815h0q1.271-1.657 2.835-.445h0 0q1.662 1.237.489 2.869h0l-9.63 13.556 9.239 13.159h0q1.148 1.707-.538 2.968h0 0q-1.686 1.163-2.835-.544h0l-8.505-12.12-8.114 12.17h0q-1.125 1.607-2.884.494zm29.914.248h0 0q-1.955-.767-1.173-2.721h0l11.634-28.991h0q.733-1.632 2.297-1.632h0 .098 0q1.588.074 2.151 1.632h0l11.829 28.991h0q.782 1.954-1.125 2.721h0 0q-1.93.767-2.688-1.138h0l-2.64-6.481h-15.226l-2.517 6.481h0q-.758 1.929-2.64 1.138zm12.611-26.764l-5.841 14.989h11.927l-6.086-14.989zm23.658 26.962h-1.173 0q-1.955 0-1.955-1.979h0v-1.237h0q0-1.929 1.955-1.929h0 1.173 0q1.858 0 1.858 1.929h0v1.237h0q0 1.979-1.858 1.979h0z"/></mask><path xmlns="http://www.w3.org/2000/svg" fill="#fff" d="M545.34 60.368h0 0q-2.053 0-2.053-2.078h0V28.904h0q0-2.078 2.053-2.078h0 11.438 0q4.473 0 6.856 2.412h0 0q2.383 2.411 2.383 6.938h0v1.484h0q0 4.527-2.383 6.939h0 0q-2.383 2.411-6.856 2.411h0-9.385v11.28h0q0 2.078-2.053 2.078zm2.053-29.387v11.874h9.385 0q2.786 0 3.96-1.188h0 0q1.173-1.187 1.173-4.007h0v-1.484h0q0-2.795-1.173-3.995h0 0q-1.174-1.2-3.96-1.2h0-9.385zm27.911 29.387h0 0q-1.051 0-1.552-.507h0 0q-.501-.508-.501-1.571h0V28.953h0q0-1.088.501-1.583h0 0q.501-.495 1.552-.495h0 0q1.075 0 1.564.495h0 0q.489.495.489 1.583h0V58.29h0q0 1.063-.489 1.571h0 0q-.489.507-1.564.507zm27.862 0H597.3h0q-5.597 0-8.273-2.709h0 0q-2.676-2.709-2.676-8.373h0V37.907h0q0-5.714 2.664-8.422h0 0q2.664-2.709 8.236-2.659h0 5.915 0q4.594 0 7.014 1.917h0 0q2.419 1.917 2.81 6.048h0 0q.147 1.039-.391 1.583h0 0q-.537.544-1.564.544h0 0q-1.857 0-2.15-2.078h0 0q-.245-2.275-1.552-3.067h0 0q-1.308-.792-4.167-.792h0-5.915 0q-2.591-.024-4.069.594h0 0q-1.479.618-2.102 2.14h0 0q-.623 1.521-.623 4.192h0v11.379h0q0 2.647.623 4.156h0 0q.623 1.508 2.114 2.139h0 0q1.491.631 4.106.631h0 5.866 0q2.859 0 4.167-.804h0 0q1.307-.804 1.552-3.055h0 0q.293-2.078 2.15-2.078h0 0q1.027 0 1.564.545h0 0q.538.544.391 1.583h0 0q-.391 4.155-2.81 6.06h0 0q-2.42 1.905-7.014 1.905h0zm33.702 0h-7.038 0q-4.18 0-6.514-1.707h0 0q-2.334-1.707-2.92-5.269h0 0q-.098-1.088.44-1.632h0 0q.537-.545 1.564-.545h0 0q1.026 0 1.503.495h0 0q.476.495.648 1.534h0 0q.366 1.706 1.576 2.337h0 0q1.21.631 3.703.631h0 7.038 0q3.153 0 4.29-1.15h0 0q1.136-1.15 1.136-4.292h0 0q0-3.191-1.173-4.366h0 0q-1.173-1.175-4.253-1.175h0-6.061 0q-4.619 0-6.855-2.288h0 0q-2.236-2.288-2.236-6.963h0 0q0-4.65 2.211-6.901h0 0q2.212-2.251 6.831-2.251h0 5.817 0q3.886 0 6.098 1.608h0 0q2.212 1.607 2.798 4.922h0 0q.147 1.064-.391 1.62h0 0q-.537.557-1.613.557h0 0q-.977 0-1.466-.52h0 0q-.489-.519-.636-1.508h0 0q-.391-1.46-1.49-1.992h0 0q-1.1-.532-3.3-.532h0-5.817 0q-2.932 0-3.934 1.052h0 0q-1.003 1.051-1.003 3.945h0 0q0 2.919 1.027 4.007h0 0q1.026 1.089 3.959 1.089h0 6.061 0q4.815 0 7.173 2.374h0 0q2.359 2.375 2.359 7.322h0 0q0 4.923-2.346 7.26h0 0q-2.347 2.338-7.186 2.338h0zm-212.115 0h0 0q-2.053 0-2.053-2.078h0V28.904h0q0-2.078 2.053-2.078h0 11.438 0q4.472 0 6.855 2.412h0 0q2.383 2.411 2.383 6.938h0v1.484h0q0 4.527-2.383 6.939h0 0q-2.383 2.411-6.855 2.411h0-9.385v11.28h0q0 2.078-2.053 2.078zm2.053-29.387v11.874h9.385 0q2.786 0 3.959-1.188h0 0q1.173-1.187 1.173-4.007h0v-1.484h0q0-2.795-1.173-3.995h0 0q-1.173-1.2-3.959-1.2h0-9.385zm27.911 29.387h0 0q-1.051 0-1.552-.507h0 0q-.501-.508-.501-1.571h0V28.953h0q0-1.088.501-1.583h0 0q.501-.495 1.552-.495h0 0q1.075 0 1.564.495h0 0q.488.495.488 1.583h0V58.29h0q0 1.063-.488 1.571h0 0q-.489.507-1.564.507zm11.34-.446h0 0q-1.638-1.137-.489-2.918h0l8.945-13.358-9.434-13.456h0q-1.1-1.633.538-2.919h0 0q1.686-1.163 2.835.544h0l8.749 12.418L486 27.815h0q1.271-1.657 2.835-.445h0 0q1.662 1.237.489 2.869h0l-9.63 13.556 9.239 13.159h0q1.148 1.707-.538 2.968h0 0q-1.686 1.163-2.835-.544h0l-8.505-12.12-8.114 12.17h0q-1.125 1.607-2.884.494zm29.914.248h0 0q-1.955-.767-1.173-2.721h0l11.634-28.991h0q.733-1.632 2.297-1.632h0 .098 0q1.588.074 2.151 1.632h0l11.829 28.991h0q.782 1.954-1.125 2.721h0 0q-1.93.767-2.688-1.138h0l-2.64-6.481h-15.226l-2.517 6.481h0q-.758 1.929-2.64 1.138zm12.611-26.764l-5.841 14.989h11.927l-6.086-14.989zm23.658 26.962h-1.173 0q-1.955 0-1.955-1.979h0v-1.237h0q0-1.929 1.955-1.929h0 1.173 0q1.858 0 1.858 1.929h0v1.237h0q0 1.979-1.858 1.979h0z"/><g class="C G"><path d="M545.34 60.368h0 0q-2.053 0-2.053-2.078h0V28.904h0q0-2.078 2.053-2.078h0 11.438 0q4.473 0 6.856 2.412h0 0q2.383 2.411 2.383 6.938h0v1.484h0q0 4.527-2.383 6.939h0 0q-2.383 2.411-6.856 2.411h0-9.385v11.28h0q0 2.078-2.053 2.078zm2.053-29.387v11.874h9.385 0q2.786 0 3.96-1.188h0 0q1.173-1.187 1.173-4.007h0v-1.484h0q0-2.795-1.173-3.995h0 0q-1.174-1.2-3.96-1.2h0-9.385zm27.911 29.387h0 0q-1.051 0-1.552-.507h0 0q-.501-.508-.501-1.571h0V28.953h0q0-1.088.501-1.583h0 0q.501-.495 1.552-.495h0 0q1.075 0 1.564.495h0 0q.489.495.489 1.583h0V58.29h0q0 1.063-.489 1.571h0 0q-.489.507-1.564.507zm27.862 0H597.3h0q-5.597 0-8.273-2.709h0 0q-2.676-2.709-2.676-8.373h0V37.907h0q0-5.714 2.664-8.422h0 0q2.664-2.709 8.236-2.659h0 5.915 0q4.594 0 7.014 1.917h0 0q2.419 1.917 2.81 6.048h0 0q.147 1.039-.391 1.583h0 0q-.537.544-1.564.544h0 0q-1.857 0-2.15-2.078h0 0q-.245-2.275-1.552-3.067h0 0q-1.308-.792-4.167-.792h0-5.915 0q-2.591-.024-4.069.594h0 0q-1.479.618-2.102 2.14h0 0q-.623 1.521-.623 4.192h0v11.379h0q0 2.647.623 4.156h0 0q.623 1.508 2.114 2.139h0 0q1.491.631 4.106.631h0 5.866 0q2.859 0 4.167-.804h0 0q1.307-.804 1.552-3.055h0 0q.293-2.078 2.15-2.078h0 0q1.027 0 1.564.545h0 0q.538.544.391 1.583h0 0q-.391 4.155-2.81 6.06h0 0q-2.42 1.905-7.014 1.905h0zm33.702 0h-7.038 0q-4.18 0-6.514-1.707h0 0q-2.334-1.707-2.92-5.269h0 0q-.098-1.088.44-1.632h0 0q.537-.545 1.564-.545h0 0q1.026 0 1.503.495h0 0q.476.495.648 1.534h0 0q.366 1.706 1.576 2.337h0 0q1.21.631 3.703.631h0 7.038 0q3.153 0 4.29-1.15h0 0q1.136-1.15 1.136-4.292h0 0q0-3.191-1.173-4.366h0 0q-1.173-1.175-4.253-1.175h0-6.061 0q-4.619 0-6.855-2.288h0 0q-2.236-2.288-2.236-6.963h0 0q0-4.65 2.211-6.901h0 0q2.212-2.251 6.831-2.251h0 5.817 0q3.886 0 6.098 1.608h0 0q2.212 1.607 2.798 4.922h0 0q.147 1.064-.391 1.62h0 0q-.537.557-1.613.557h0 0q-.977 0-1.466-.52h0 0q-.489-.519-.636-1.508h0 0q-.391-1.46-1.49-1.992h0 0q-1.1-.532-3.3-.532h0-5.817 0q-2.932 0-3.934 1.052h0 0q-1.003 1.051-1.003 3.945h0 0q0 2.919 1.027 4.007h0 0q1.026 1.089 3.959 1.089h0 6.061 0q4.815 0 7.173 2.374h0 0q2.359 2.375 2.359 7.322h0 0q0 4.923-2.346 7.26h0 0q-2.347 2.338-7.186 2.338h0zm-212.115 0h0 0q-2.053 0-2.053-2.078h0V28.904h0q0-2.078 2.053-2.078h0 11.438 0q4.472 0 6.855 2.412h0 0q2.383 2.411 2.383 6.938h0v1.484h0q0 4.527-2.383 6.939h0 0q-2.383 2.411-6.855 2.411h0-9.385v11.28h0q0 2.078-2.053 2.078zm2.053-29.387v11.874h9.385 0q2.786 0 3.959-1.188h0 0q1.173-1.187 1.173-4.007h0v-1.484h0q0-2.795-1.173-3.995h0 0q-1.173-1.2-3.959-1.2h0-9.385zm27.911 29.387h0 0q-1.051 0-1.552-.507h0 0q-.501-.508-.501-1.571h0V28.953h0q0-1.088.501-1.583h0 0q.501-.495 1.552-.495h0 0q1.075 0 1.564.495h0 0q.488.495.488 1.583h0V58.29h0q0 1.063-.488 1.571h0 0q-.489.507-1.564.507zm11.34-.446h0 0q-1.638-1.137-.489-2.918h0l8.945-13.358-9.434-13.456h0q-1.1-1.633.538-2.919h0 0q1.686-1.163 2.835.544h0l8.749 12.418L486 27.815h0q1.271-1.657 2.835-.445h0 0q1.662 1.237.489 2.869h0l-9.63 13.556 9.239 13.159h0q1.148 1.707-.538 2.968h0 0q-1.686 1.163-2.835-.544h0l-8.505-12.12-8.114 12.17h0q-1.125 1.607-2.884.494zm29.914.248h0 0q-1.955-.767-1.173-2.721h0l11.634-28.991h0q.733-1.632 2.297-1.632h0 .098 0q1.588.074 2.151 1.632h0l11.829 28.991h0q.782 1.954-1.125 2.721h0 0q-1.93.767-2.688-1.138h0l-2.64-6.481h-15.226l-2.517 6.481h0q-.758 1.929-2.64 1.138zm12.611-26.764l-5.841 14.989h11.927l-6.086-14.989zm23.658 26.962h-1.173 0q-1.955 0-1.955-1.979h0v-1.237h0q0-1.929 1.955-1.929h0 1.173 0q1.858 0 1.858 1.929h0v1.237h0q0 1.979-1.858 1.979h0z" mask="url(#D)"  stroke="#fff"/><g class="D E"><path  stroke-opacity=".25" d="M177 136.194L313 138"/><path  stroke-opacity=".5" d="M144.751 123.097L266 124.903"/><path  stroke-opacity=".75" d="M116 110l171.143 1.806"/></g></g><g fill="none" class="C D E"><path d="M781 84l-34 28H603l-34-28m-270 0l34 28h144l34-28" /><g class="G"><path d="M799 66l25-23h167M286 69l-25-23H94" /></g></g><path d="M249 64v8h-8.2v4h8.2v8h4v-8h8v-4h-8v-8h-4zm562 36v8h-8.2v4h8.2v8h4v-8h8v-4h-8v-8h-4zm100.5 56v10h-10v5h10v10h5v-10h10v-5h-10v-10h-5zm-724-82v10h-10v5h10v10h5V89h10v-5h-10V74h-5zm699 23.5v10h-10v5h10v10h5v-10h10v-5h-10v-10h-5z"/><g fill="#20079d"><path d="M773.8 43l-53 41h-15l53-41h15z" fill-opacity=".5"/><path d="M742.8 43l-53 41h-15l53-41h15z"/><path d="M802.8 44l-53 41h-15l53-41h15z" fill-opacity=".25"/><path d="M308 43l53 41h15l-53-41h-15z" fill-opacity=".5"/><path d="M339 43l53 41h15l-53-41h-15z"/><path d="M279 44l53 41h15l-53-41h-15z" fill-opacity=".25"/></g><g fill="none" class="C D E"><path d="M18 19h342l66 55.118h219L706 19h341"  stroke-width="4"/><path d="M426 73l13 11h190l16-11"  class="G"/></g><linearGradient id="E" x1="532.5" y1="18" x2="532.5" y2="325" gradientUnits="userSpaceOnUse"><stop offset="0%" stop-opacity=".75" stop-color="#2615bd"/><stop offset="100%" stop-opacity="0" stop-color="#000"/></linearGradient><path d="M59 96.125L18 19.1 360 18l66 56.118h219L706 19.1l341-1.1-45 78.125L706 325H360L59 96.125z" fill="url(#E)"/><use xlink:href="#B"/><use xlink:href="#C"/><linearGradient id="F" x1="731.069" y1="607.722" x2="765.214" y2="607.722" gradientUnits="userSpaceOnUse"><stop offset="2.545367628088296e-13%" stop-color="#000"/></linearGradient><use xlink:href="#B" fill="url(#F)"/><linearGradient id="G" x1="769.541" y1="607.661" x2="803.689" y2="607.661" gradientUnits="userSpaceOnUse"><stop offset="100%" stop-color="#000"/></linearGradient><use xlink:href="#C" fill="url(#G)"/><path d="M728.637 425.116l12.937 177.483 25.903-.291-2.233-126.915 17.355 126.212 21.851.199-.826-189.609s-24.083-44.634-74.987 12.921z" fill="#051142"/><g opacity=".58"><path d="M838.626 243.948v130.264c-.01 16.463-13.356 29.802-29.818 29.802H649.95c-7.904 0-15.485-3.139-21.074-8.728s-8.728-13.17-8.728-21.074V243.948c.033-16.435 13.367-29.741 29.802-29.741h158.858c16.435.008 29.767 13.306 29.818 29.741h0z" fill="#fff"/></g><g opacity=".18" class="B"><path d="M661.663 300.968c2.248 15.658 7.416 30.75 12.554 45.72 4.082 11.866 8.532 24.313 18.012 32.54 4.664 4.067 10.704 7.416 12.386 13.379.979 3.578.092 7.386-.78 10.995l31.79-.719c.997.07 1.994-.125 2.89-.566a5.19 5.19 0 0 0 1.927-2.936c2.462-7.018 2.309-14.633 2.691-22.065.918-18.349 5.673-37.249 18.105-50.705a18.35 18.35 0 0 0 4.113-5.504c.645-2.102.843-4.316.581-6.499q-1.437-30.23-.642-60.491a9.18 9.18 0 0 0-.367-3.533c-.414-.886-.972-1.697-1.652-2.4l-9.174-10.704c-.519-.688-1.156-1.278-1.881-1.743-2.095-1.223-4.755-.23-6.973.78-4.052 1.85-8.41 3.991-10.336 7.997a19.19 19.19 0 0 0-1.361 7.798l-.688 20.215c-.23 6.453-.138 13.685 4.434 18.227 2.034 1.988 4.817 3.318 6.116 5.841.831 2.023 1.059 4.242.658 6.392a51.24 51.24 0 0 1-2.554 11.223 101.48 101.48 0 0 1-4.74 10.918l-18.349 38.228c-.443.886-1.147 1.942-2.125 1.758-.576-.187-1.054-.594-1.331-1.131-12.477-18.35-19.282-40.384-33.395-57.541-2.202-2.675-5.276-6.361-8.732-7.477-3.838-1.284-7.293.872-11.177 2.003h0z"/></g><path d="M681.266 329.012l-11.361-30.062-2.676-6.82c11.177-1.529 21.789-3.593 33.044-4.343.722-.203 1.498-.073 2.114.357s1.007 1.112 1.066 1.861l15.918 48.747-9.022 29.42-29.083-39.16z" fill="#fff"/><path d="M768.18 495.791c13.104 0 25.995-1.758 38.227-6.575 1.509-.485 2.886-1.311 4.022-2.416 1.942-2.156 1.881-5.398 1.682-8.303-2.982-44.115-8.945-88.076-9.083-132.283 0-8.165.138-16.422-1.712-24.358s-6.025-15.719-12.906-20.077c-7.508-4.771-17.004-4.863-25.888-4.19-8.242.627-16.82 1.896-23.609 6.545-15.597 10.627-8.884 38.946-9.588 55.047-1.288 24.056-3.896 48.022-7.813 71.791l-6.591 40.139c-1.147 6.927-1.529 15.582 4.404 19.282a17.72 17.72 0 0 0 7.263 2.019c10.291 1.33 20.582 2.614 30.949 3.165a187.65 187.65 0 0 0 7.753.26c3.18 0 3.058-.551 4.434-3.379q3.441-7.417 6.897-14.802.779 9.266 1.055 18.548" fill="#ececec"/><path d="M738.408 364.502l-5.55 14.068a13.65 13.65 0 0 1-4.725 6.117 9.87 9.87 0 0 1-4.588 1.284c-5.871.321-11.391-2.768-16.055-6.33-7.309-5.592-13.45-12.564-18.074-20.521-.548-.809-.913-1.727-1.07-2.691.029-1.76.685-3.451 1.85-4.771l6.667-9.572c4.27 5.504 9.3 10.375 14.939 14.465a2.11 2.11 0 0 0 1.758.566c.643-.199.933-.933 1.132-1.529l8.074-26.347c2.553-8.272 5.734-17.37 13.349-21.499a7.03 7.03 0 0 1 3.058-.963 7.17 7.17 0 0 1 5 2.569c6.606 6.758 6.3 15.719 4.22 24.16a325 325 0 0 1-9.985 30.994h0z" class="B"/><path d="M738.362 364.151l-5.55 14.067c-.953 2.452-2.593 4.576-4.725 6.117a10.08 10.08 0 0 1-4.664 1.3c-5.856.305-11.376-2.783-16.04-6.346a70.17 70.17 0 0 1-18.074-20.521c-.544-.807-.913-1.718-1.086-2.676a7.42 7.42 0 0 1 1.866-4.786l6.667-9.557c4.262 5.507 9.293 10.374 14.939 14.45a2.05 2.05 0 0 0 1.743.566c.658-.199.948-.933 1.147-1.529l8.074-26.346c2.538-8.288 5.718-17.386 13.349-21.5.925-.565 1.975-.896 3.058-.963 1.947.128 3.755 1.051 5 2.554 6.606 6.758 6.3 15.719 4.205 24.16a323.8 323.8 0 0 1-9.909 31.01h0z" fill="#ececec"/><linearGradient id="H" x1="774.449" y1="271.441" x2="754.688" y2="273.986" gradientUnits="userSpaceOnUse"><stop offset="0%" stop-color="#e5c5d5"/><stop offset="42%" stop-color="#ead4d1"/><stop offset="100%" stop-color="#f0e9cb"/></linearGradient><path d="M758.424 292.436c.029-.997-.175-1.986-.596-2.89-.902-1.728-2.936-2.447-4.74-3.15-3.548-1.392-7.08-3.441-8.869-6.789-1.973-3.655-1.529-8.104-.856-12.233a48.36 48.36 0 0 1 3.562-13.303c1.844-4.273 5.152-7.748 9.328-9.802 5.168-2.293 11.269-1.437 16.468.749a14.7 14.7 0 0 1 5.291 3.395c3.058 3.318 3.318 8.257 3.165 12.753a121.76 121.76 0 0 1-6.835 36.408c-.224.863-.66 1.657-1.269 2.309a4.8 4.8 0 0 1-2.309 1.024c-2.859.673-8.15 1.437-10.857-.153-2.92-1.697-1.391-5.245-1.483-8.318h0z" fill="url(#H)"/><path d="M748.913 244.025c1.178 4.969 4.909 9.037 9.175 11.82 1.951 1.019 3.714 2.364 5.214 3.975 2.309 2.967 2.064 7.126 1.713 10.872 1.055.474 2.171-.505 2.936-1.391s1.957-1.82 2.966-1.239a2.2 2.2 0 0 1 .841 1.055c1.39 3.372-.014 7.247-3.242 8.945-.599.216-1.157.531-1.651.933-.771 1.068-.771 2.51 0 3.578.673 1.101 1.682 1.957 2.355 3.058 1.743 2.753 1.529 7.004 4.403 8.41 1.926.724 4.099.183 5.459-1.36a14.5 14.5 0 0 0 2.814-5.245q5.444-14.878 10.383-29.909a14.49 14.49 0 0 0 1.07-5.979 7.37 7.37 0 0 0-3.227-5.23c-.513-.259-.959-.637-1.299-1.101a3.85 3.85 0 0 1-.077-2.355 8.21 8.21 0 0 0-2.507-6.468 18.37 18.37 0 0 0-6.04-3.838c-6.975-2.959-14.555-4.212-22.111-3.654-6.789.504-10.612 9.037-9.175 15.123h0z" fill="#3e3e54"/><path d="M742.139 354.701a524.95 524.95 0 0 1-8.456 123.857" fill="#fff"/><linearGradient id="I" x1="720.121" y1="444.885" x2="736.233" y2="444.885" gradientUnits="userSpaceOnUse"><stop offset="100%" stop-opacity="0" stop-color="#fff"/><stop offset="100%" stop-opacity=".064" stop-color="#fff"/><stop offset="100%" stop-opacity=".431" stop-color="#fff"/><stop offset="100%" stop-opacity=".711" stop-color="#fff"/></linearGradient><path d="M735.992 435.101a29.94 29.94 0 0 1-.627 10.948c-.895 3.601-3.069 6.753-6.116 8.869-1.804 1.162-4.327 1.774-6.116.474-1.094-1.039-1.8-2.42-2.004-3.914-.749-2.91-1.083-5.911-.993-8.915.137-2.278 1.039-8.303 3.792-8.915a10.09 10.09 0 0 1 2.171.413l3.272.352 6.621.688z" fill="url(#I)"/><linearGradient id="J" x1="0" y1=".5" x2=".453" y2="1.392" gradientTransform="matrix(14.425,0,0,22.434,681.184,328.98)" gradientUnits="userSpaceOnUse"><stop offset="100%" stop-color="#f0e9cb"/><stop offset="100%" stop-color="#eee2cd"/><stop offset="100%" stop-color="#e9d2d2"/></linearGradient><path d="M690.425 351.413c-6.377-5.632-9.769-13.913-9.174-22.401 2.094-.291 3.883 1.422 5.229 3.058s2.905 3.624 4.236 5.52a1.88 1.88 0 0 0 .887.841c.504.168 1.116-.092 1.529.168.244.167.436.4.55.673.754 1.375 1.398 2.806 1.927 4.282" fill="url(#J)"/><path d="M585.269 318.951c-1.774 3.455-5.413 5.443-8.869 7.202q-48.763 24.97-99.391 46.117c-17.891 7.493-36.546 14.725-55.95 14.389-4.481-.076-9.328-.734-12.493-3.914-2.875-2.921-3.685-7.325-3.41-11.423a27.94 27.94 0 0 1 9.312-18.976l-.841-1.85c-3.196-7.218-5.871-14.985-4.495-22.707 1.529-8.38 9.664-16.086 17.905-13.992a15.69 15.69 0 0 1 18.35-24.847c-2.049-5.031-4.144-10.307-3.716-15.72.535-6.926 10.612-16.116 15.536-20.918 6.381-6.156 15.318-8.894 24.052-7.37a21.64 21.64 0 0 1 3.38.933c4.587-5.872 12.89-7.523 20.321-6.835 18.9 1.773 35.659 17.324 38.84 36.041 11.774-1.82 23.731 9.297 22.768 21.193 9.025-.494 17.148 5.441 19.42 14.19.765 2.825.511 5.83-.719 8.487h0z" fill="#071e7b"/><path d="M542.056 277.665c-2.557-4.027-6.295-7.167-10.703-8.991-3.659-1.393-7.525-2.163-11.438-2.279-3.794-.341-7.619.016-11.285 1.055a14.93 14.93 0 0 0-8.731 6.881m-52.586 35.995c.493-3.216 1.81-6.251 3.823-8.807.668-1.147 1.514-2.179 2.508-3.058 2.936-2.355 7.171-1.759 10.872-1.04-.299-2.873-.222-5.772.229-8.624a11.04 11.04 0 0 1 4.45-7.141c3.364-2.156 7.722-1.529 11.667-.902m71.027 33.089c-1.851-3.287-6.469-3.838-10.123-2.829a19.04 19.04 0 0 0-13.624 17.019m-97.328 39.986a57.54 57.54 0 0 1 .459-14.847c.162-2.182.995-4.259 2.386-5.948a9.17 9.17 0 0 1 4.877-2.294c8.584-1.515 17.223 2.357 21.805 9.771-1.208-5.168 2.676-10.704 7.768-12.233s10.78.245 14.863 3.655m31.943-34.053c1.453 1.177 1.376 3.394 1.04 5.244-1.178 6.117-4.435 12.478-10.215 14.94a20.38 20.38 0 0 1-8.991 1.208c-5.566-.306-11.529-1.958-14.817-6.453l-5.306 5.199m24.894-31.301a11.79 11.79 0 0 1 10.077-11.942 18.79 18.79 0 0 1 6.315.611c3.165.75 6.483 1.958 8.272 4.68" fill="none"  stroke="#fff" class="F H I"/><path d="M479.868 238.55l-2.263 3.548a27.71 27.71 0 0 0-24.053 7.37c-4.939 4.802-15 13.991-15.551 20.918-.428 5.413 1.667 10.704 3.716 15.704a15.69 15.69 0 0 0-18.349 24.863c-8.242-2.095-16.408 5.612-17.906 13.992-1.376 7.645 1.3 15.489 4.495 22.691l-16.269 25.414c-11.178 5.597-25.796 6.468-35.338-1.529-2.073-1.749-3.827-3.844-5.183-6.193-4.725-8.196-3.976-18.869.734-27.05s14.006-14.954 22.936-17.982c-2.789-5.381-3.146-11.697-.981-17.358a21.24 21.24 0 0 1 12.312-12.276 38.03 38.03 0 0 1-2.477-14.603c.784-8.294 5.326-15.771 12.324-20.291a36.22 36.22 0 0 1 23.533-5.321 3.9 3.9 0 0 0 4.863-2.844c3.143-5.671 8.088-10.132 14.052-12.677a58.48 58.48 0 0 1 10.199-2.92 34.69 34.69 0 0 1 9.45-1.193c3.173.312 6.272 1.144 9.175 2.462a85.57 85.57 0 0 1 10.581 5.275h0z" fill="#071e7b"/><path d="M471.687 281.335c-.917-10.998 4.917-21.456 14.756-26.454m.948 54.742a13.95 13.95 0 0 0-12.108 4.295c-3.097 3.316-4.387 7.931-3.458 12.372m-16.438 5.291c-8.89-3.782-19.21-1.225-25.307 6.269m-33.043-34.542c-1.676-1.297-2.594-3.345-2.447-5.459.15-2.091.723-4.13 1.682-5.994 1.103-2.407 2.375-4.732 3.807-6.958 1.05-1.819 2.436-3.422 4.083-4.724 3.716-2.661 8.716-2.401 13.273-2.019m17.034-21.346c-3.162-.159-6.193 1.276-8.074 3.823a16.68 16.68 0 0 0-3.058 8.67m-47.096 85.461c-.918.413-1.667-.872-1.82-1.865-1.316-9.825 4.227-19.283 13.441-22.937" fill="none"  stroke="#fff" class="F H I"/><ellipse  cx="451.549" cy="542.796" rx="124.989" ry="34.604" class="B"/><linearGradient id="K" x1="348.014" y1="528.667" x2="566.951" y2="528.667" gradientUnits="userSpaceOnUse"><stop offset="100%" stop-color="#8d86ec"/><stop offset="100%" stop-opacity=".005" stop-color="#fff"/><stop offset="100%" stop-opacity=".393" stop-color="#fff"/><stop offset="100%" stop-opacity=".682" stop-color="#fff"/></linearGradient><ellipse  cx="457.482" cy="528.667" rx="109.468" ry="20.306" fill="url(#K)"/><g fill="none" stroke="#fff" stroke-width="1.513"><path d="M456.595 541.909v-54.283h-46.301v-58.351"  class="F"/><circle  cx="410.982" cy="422.608" r="6.667"/><circle  cx="362.647" cy="460.53" r="6.667"/><circle  cx="433.077" cy="427.608" r="6.667"/><circle  cx="452.665" cy="399.702" r="6.667"/><circle  cx="506.413" cy="405.941" r="6.667"/><circle  cx="550.451" cy="424.413" r="6.667"/><circle  cx="523.921" cy="505.394" r="6.667"/><g class="F"><path d="M410.294 454.291h22.921v-21.254m24.588 63.335h27.08V455.53h-32.08v-49.161m53.748 6.239v59.589h-21.255m-30.001 40.842H384.88v-50.842h-16.254m138.2-10.551h17.233v47.509" /><path d="M524.059 475.53h11.881v-50.001h9.373" /></g></g><g opacity=".18" class="B"><path d="M649.655 233.21h43.84a6.84 6.84 0 0 1 6.835 6.837v23.216a6.84 6.84 0 0 1-6.835 6.837h-43.84a6.84 6.84 0 0 1-6.835-6.837v-23.216a6.84 6.84 0 0 1 6.835-6.837z"/></g><g opacity=".37" class="B"><path d="M652.045 235.05h43.84a6.84 6.84 0 0 1 6.835 6.835v23.21a6.84 6.84 0 0 1-6.835 6.835h-43.84a6.84 6.84 0 0 1-6.835-6.835v-23.21a6.84 6.84 0 0 1 6.835-6.835z"/></g></g></svg>