<svg id="Layer_1" data-name="Layer 1" xmlns="http://www.w3.org/2000/svg" xmlns:xlink="http://www.w3.org/1999/xlink" viewBox="0 0 378.04 304.92" width="406" height="306" class="illustration styles_illustrationTablet__1DWOa"><defs><linearGradient id="linear-gradient" x1="262.37" y1="270.68" x2="183.48" y2="211.29" gradientUnits="userSpaceOnUse"><stop offset="0.01"></stop><stop offset="0.13" stop-opacity="0.69"></stop><stop offset="0.25" stop-opacity="0.32"></stop><stop offset="1" stop-opacity="0"></stop></linearGradient></defs><title>28</title><path d="M156.4,67.24C122.71,89,99.9,123.73,78.08,157.42,69.18,171.17,60.24,185,53.66,200c-6.73,15.36-10.88,31.78-13.26,48.39-3.55,24.78-1.67,53.55,17.47,69.69,10.05,8.47,23.32,12,36.25,14.31,51.4,9.26,104.36,3.58,156.23,9.6,28.38,3.3,56.61,10.11,85.15,8.61s58.64-13.24,72.84-38c16.57-28.93,6.82-65.81-8.42-95.46s-35.86-57.64-41.23-90.54c-2.21-13.51-1.89-27.94-8.57-39.88-7.47-13.37-22.2-20.86-36.57-26.15C264.28,42.39,202.5,37.43,156.4,67.24Z" transform="translate(-38.94 -45.9)" fill="#181063" opacity="0.18" style="isolation: isolate;"></path><path d="M87.1,183.78c3.81,3.82,8.61,6.47,13.34,9.06l23,12.65a5.52,5.52,0,0,0,2.41.86,5.35,5.35,0,0,0,2.62-.85,282.26,282.26,0,0,0,35.71-22.43c-2.62-2.33-5.44-4.76-8.91-5.33a19.56,19.56,0,0,0-5.71.23,219.16,219.16,0,0,1-42.07,1.56,61.43,61.43,0,0,1-6.64-.66c-1.69-.29-4.15-1.52-5.84-1.21C93.68,177.91,87.52,184.2,87.1,183.78Z" transform="translate(-38.94 -45.9)" fill="#181063" opacity="0.18" style="isolation: isolate;"></path><path d="M164.79,253.73c6.29,6.3,14.21,10.67,22,15l38,20.86a9.16,9.16,0,0,0,4,1.43,9.06,9.06,0,0,0,4.34-1.41,468,468,0,0,0,58.91-37c-4.32-3.85-9-7.86-14.69-8.79a32.2,32.2,0,0,0-9.44.37,362,362,0,0,1-69.41,2.58,103,103,0,0,1-10.95-1.1c-2.78-.47-6.85-2.51-9.63-2C175.65,244.05,165.48,254.42,164.79,253.73Z" transform="translate(-38.94 -45.9)" fill="#181063" opacity="0.18" style="isolation: isolate;"></path><path d="M295.45,190.85c3.52,3.52,7.94,6,12.29,8.36l21.2,11.64a3.8,3.8,0,0,0,4.64,0,260.92,260.92,0,0,0,32.9-20.67c-2.42-2.15-5-4.38-8.21-4.91a18.3,18.3,0,0,0-5.27.21,201.7,201.7,0,0,1-38.76,1.44,56.94,56.94,0,0,1-6.11-.61c-1.55-.27-3.83-1.4-5.38-1.11C301.52,185.45,295.84,191.24,295.45,190.85Z" transform="translate(-38.94 -45.9)" fill="#181063" opacity="0.18" style="isolation: isolate;"></path><path d="M283.65,311c3.51,3.51,7.94,6,12.29,8.35L317.14,331a5.23,5.23,0,0,0,2.22.8,5.1,5.1,0,0,0,2.42-.79,262,262,0,0,0,32.9-20.66c-2.42-2.15-5-4.39-8.21-4.91a17.62,17.62,0,0,0-5.27.21,202.51,202.51,0,0,1-38.76,1.44,54.51,54.51,0,0,1-6.11-.62c-1.55-.26-3.83-1.4-5.38-1.11C289.72,305.55,284,311.34,283.65,311Z" transform="translate(-38.94 -45.9)" fill="#181063" opacity="0.18" style="isolation: isolate;"></path><path d="M75.29,309.29c3.52,3.52,7.94,6,12.3,8.36l21.19,11.64a3.8,3.8,0,0,0,4.64,0,260.92,260.92,0,0,0,32.9-20.67c-2.42-2.15-5-4.38-8.21-4.91a18.3,18.3,0,0,0-5.27.21,201.7,201.7,0,0,1-38.76,1.44,56.94,56.94,0,0,1-6.11-.61c-1.55-.27-3.82-1.4-5.38-1.11C81.36,303.89,75.68,309.68,75.29,309.29Z" transform="translate(-38.94 -45.9)" fill="#181063" opacity="0.18" style="isolation: isolate;"></path><polygon points="186.57 233.39 128.88 200.08 128.88 191 186.21 166.98 243.9 191.21 243.9 200.29 186.57 233.39" fill="#181063"></polygon><polygon points="186.57 224.31 128.88 191 186.21 157.9 243.9 191.21 186.57 224.31" fill="#fff"></polygon><polygon points="186.53 216.12 143.06 191.02 186.25 166.08 229.72 191.18 186.53 216.12" fill="#181063"></polygon><polygon points="186.5 212.03 150.15 191.04 186.28 170.18 222.63 191.17 186.5 212.03" fill="#fff"></polygon><path d="M216.27,240.79l-38.44-11a11.34,11.34,0,0,1,2.9-2l30.53-16.44a2.07,2.07,0,0,1,3,.39l24.2,21.63a3.81,3.81,0,0,1,1.51,2.19,2.57,2.57,0,0,1-1.6,2.46,7,7,0,0,1-3.08.41,46.35,46.35,0,0,1-8.13-1,10.59,10.59,0,0,0-3.48-.39,3.07,3.07,0,0,0-2.66,2" transform="translate(-38.94 -45.9)" fill="url(#linear-gradient)"></path><path d="M226.63,228.38a8.83,8.83,0,0,0,.69,3.72,6.14,6.14,0,0,0,2.71,2.5,10.61,10.61,0,0,0,7.89.78,1.48,1.48,0,0,0,.91-.55,1.24,1.24,0,0,0,.16-.78,5.8,5.8,0,0,0-2.07-3.71,13,13,0,0,1-2.84-3.27c-1.21-2.44-.31-8.95-4.91-7.9C225.32,220,226.52,225.66,226.63,228.38Z" transform="translate(-38.94 -45.9)" fill="#ffbbab"></path><path d="M226,232.78s-.65,1.61.15,2.55,9.07,6.09,14.64,1.95-7.55-4.68-7.55-4.68Z" transform="translate(-38.94 -45.9)" fill="#181063"></path><path d="M226.31,229a1.18,1.18,0,0,1,1.49.39,4.86,4.86,0,0,0,4.43,1.58c1.82-.43,2.54-2.52,3.45-2.53s5.71,4.09,6,5.85-2.18,3-4.9,3.22-8.88-1.71-10-3.14A5.82,5.82,0,0,1,226.31,229Z" transform="translate(-38.94 -45.9)" fill="#fff"></path><path d="M210.84,230.9a8.83,8.83,0,0,0,.69,3.72,6.14,6.14,0,0,0,2.71,2.5,10.6,10.6,0,0,0,7.89.78,1.48,1.48,0,0,0,.91-.55,1.24,1.24,0,0,0,.16-.78,5.8,5.8,0,0,0-2.07-3.71,13,13,0,0,1-2.84-3.27c-1.21-2.44-.31-9-4.91-7.9C209.53,222.56,210.73,228.18,210.84,230.9Z" transform="translate(-38.94 -45.9)" fill="#ffbbab"></path><path d="M210.2,235.3s-.65,1.61.15,2.55,9.07,6.09,14.64,2-7.55-4.68-7.55-4.68Z" transform="translate(-38.94 -45.9)" fill="#181063"></path><path d="M210.52,231.56A1.18,1.18,0,0,1,212,232a4.86,4.86,0,0,0,4.43,1.58c1.82-.43,2.54-2.52,3.45-2.53s5.71,4.09,6,5.85-2.18,3.05-4.9,3.22-8.88-1.71-10.05-3.14A5.79,5.79,0,0,1,210.52,231.56Z" transform="translate(-38.94 -45.9)" fill="#fff"></path><path d="M207.54,162.92s-.86,47.3,2.65,63.08l8.89,1.09,6.15-64.76Z" transform="translate(-38.94 -45.9)" fill="#473f47"></path><path d="M235,157.75s4.19,25.52-.89,66.49l-8.89,1.1-6.15-64.76Z" transform="translate(-38.94 -45.9)" fill="#473f47"></path><path d="M245.43,137.41c-.1,1.71-.66,3.2-2.14,3.69a1.64,1.64,0,0,1-.38.1c-2.73.55-6.31-1.53-8.81-3.34a33.65,33.65,0,0,1-3-2.43V117.16l13.28,13.6A21.3,21.3,0,0,1,245.43,137.41Z" transform="translate(-38.94 -45.9)" fill="#fff"></path><path d="M234.91,138.62c0,.85.11,1.72.11,2.58,0,4.72-1.09,9.59.31,14.22a5.15,5.15,0,0,1,.4,3.16,4,4,0,0,1-2,1.9c-4.16,2.27-9,3-13.66,3.63-3.53.49-8.54,1.54-11.81-.36-1.39-.81-1.86-2.32-2.3-3.83-1.42-4.78-1.83-9.93-2.21-14.89,0-.65-.09-1.3-.13-2q-.4-6.78-.27-13.56c.06-3.29.32-6.83,2.46-9.31,2.85-3.3,8.37-5.48,12.55-6.25a14.34,14.34,0,0,1,4.13-.23,17.49,17.49,0,0,1,5.58,1.9c2.08,1,3.93,1.89,4.95,3.95a27.89,27.89,0,0,1,2.32,7.48,26.93,26.93,0,0,1,.13,7.34c-.12,1.2-.43,2.39-.55,3.58C234.92,138.19,234.91,138.4,234.91,138.62Z" transform="translate(-38.94 -45.9)" fill="#fff"></path><path d="M215.57,165.2a4.16,4.16,0,0,1-1.63.13c-1.31-.07-2.58-.78-3.86-1-.63-.12-1.2-.43-1.82-.58-3.13-.78-3.5-9.56-3.81-11.92-.81-6.25-2-12.72-2.13-19a21.25,21.25,0,0,1,.83-7.16,8.28,8.28,0,0,1,4.69-5.21,2.35,2.35,0,0,1,1.38-.15c1.83.47,1.77,2.56,2.38,3.94.7,1.55,2.67,2.81,4.47,2s2.06-3.42,2.75-5.4a6.24,6.24,0,0,1,2.81-3.48c3.27-1.74,5.82.93,6.92,3.83s-.1,6.7-.68,9.81c-1.45,7.7-3.48,15.42-7.44,22.24-1.6,2.76-4.66,6.06-4.64,9.29C215.79,164.11,216.23,164.91,215.57,165.2Z" transform="translate(-38.94 -45.9)" fill="#020202" opacity="0.1"></path><path d="M223.22,111.87a3.05,3.05,0,0,1-2.12.35,9.84,9.84,0,0,1-1.78-.52c-.93-.33-.75.9-.8,1.63a13.5,13.5,0,0,0,.11,2.77,2.3,2.3,0,0,1,0,1,1.45,1.45,0,0,1-1.07,1,3.22,3.22,0,0,1-1.48,0,9.21,9.21,0,0,1-1.63-.47,2.58,2.58,0,0,1-1.15-.76,3,3,0,0,1-.37-1.92c.16-4.77-.17-10.1,1.77-14.58a4.46,4.46,0,0,1,6.23-2.67,10.06,10.06,0,0,1,4.83,3.09,2.15,2.15,0,0,1,.3,1.8q-.16,1.63-.48,3.24c-.24,1.21-.53,2.42-.88,3.61A4.21,4.21,0,0,1,223.22,111.87Z" transform="translate(-38.94 -45.9)" fill="#ffbbab"></path><path d="M224.36,100.87a4.51,4.51,0,0,1-.72,0,11.41,11.41,0,0,0-3.46-.62,4.12,4.12,0,0,0-3.4,4.19c-.56,0-.37-.91-.64-1.41s-1.32-.26-1.57.35a4,4,0,0,0,0,2,5.54,5.54,0,0,1-.86,3.61c-.17.25-.47.52-.72.36s-.31-.69-.41-1a8.11,8.11,0,0,0-.61-1.17c-.44-.73-1-1.42-1.44-2.14-.82-1.28-1.47-2.87-1-4.31a3.39,3.39,0,0,1,1.09-1.48c.49-.39,1.15-.44,1.63-.78s.26-.65.42-1.09a8.28,8.28,0,0,1,2.69-3.13,9.2,9.2,0,0,1,7-2.26,6.61,6.61,0,0,1,5.28,5.36A2.82,2.82,0,0,1,229,100a3.87,3.87,0,0,1-.23,1.39,2.87,2.87,0,0,1-2.74,1.79,4.47,4.47,0,0,0,.13-1.67.85.85,0,0,0-.11-.35C225.88,100.84,225,100.86,224.36,100.87Z" transform="translate(-38.94 -45.9)" fill="#473f47"></path><path d="M219.53,111.77l-.33-.12a.37.37,0,0,0-.25,0c-.1,0-.15.14-.19.23a5.11,5.11,0,0,0-.34,2.36l.13,1.25s-4.09-2-2.67-6.13a20.4,20.4,0,0,0,3.63,2.42Z" transform="translate(-38.94 -45.9)" fill="#e0a194"></path><path d="M256.5,132.69a26.17,26.17,0,0,1-6.38,6.35,12.65,12.65,0,0,1-6,2.15,2,2,0,0,1-.84-.09,2.26,2.26,0,0,1-1.15-.8,6.66,6.66,0,0,1-1.54-3.79c-.15-3.64,3.8-5.75,3.8-5.75s9-2.87,10-2.4c.59.25,1.14,1.52,1.52,2.61C256.29,131.89,256.5,132.69,256.5,132.69Z" transform="translate(-38.94 -45.9)" fill="#fff"></path><path d="M243.42,130.85l5.26-16.54a2.6,2.6,0,0,1,2.67-1.81l4.19.31a2.61,2.61,0,0,1,2.23,3.57l-6.58,16.38a2.59,2.59,0,0,1-2.54,1.62l-2.88-.14A2.61,2.61,0,0,1,243.42,130.85Z" transform="translate(-38.94 -45.9)" fill="#181063"></path><path d="M216.87,149.72h0a6.75,6.75,0,0,1-8.61-4.1l-6.11-17.22a6.75,6.75,0,0,1,4.1-8.61h0c3.51-1.24,4.11,1,5.35,4.47L216.88,140C218.13,143.49,220.38,148.47,216.87,149.72Z" transform="translate(-38.94 -45.9)" fill="#fff"></path><path d="M256.5,132.69a26.17,26.17,0,0,1-6.38,6.35,12.65,12.65,0,0,1-6,2.15,2,2,0,0,1-.84-.09,1.64,1.64,0,0,1-.38.1c-2.73.55-6.31-1.53-8.81-3.34l0-.06.85-5.46a21.48,21.48,0,0,0,5.63,4.17,8.08,8.08,0,0,0,4.83.9,4.7,4.7,0,0,0,1.29-.4,41.75,41.75,0,0,0,9.25-6C256.29,131.89,256.5,132.69,256.5,132.69Z" transform="translate(-38.94 -45.9)" fill="#020202" opacity="0.1"></path><path d="M221.42,112c.13-.53.38-1.16.92-1.27.71-.13,1.24.74,2,.81.38,0,.79-.15,1.14,0a1.33,1.33,0,0,1,.44.38A6.39,6.39,0,0,1,224,121.4a2.63,2.63,0,0,1-1.51.41,3.4,3.4,0,0,1-1.36-.58c-1.35-.84-.71-2.27-.57-3.59A43.86,43.86,0,0,1,221.42,112Z" transform="translate(-38.94 -45.9)" fill="#ffbbab"></path><path d="M216.19,149.8c-1.82.37-8.59-2.05-3.33-14.39,2.4-5.65,3.64-11,6.82-16.27a1.77,1.77,0,0,1,.74-.79,1.7,1.7,0,0,1,1,0,34.7,34.7,0,0,1,4.48,1.06.93.93,0,0,1,.55.32,1,1,0,0,1,.09.6c-.39,5.1-2.38,9.93-3.19,15-.52,3.29-.58,6.76-2.17,9.69C220.63,146,217.32,149.57,216.19,149.8Z" transform="translate(-38.94 -45.9)" fill="#fff"></path><path d="M254.64,124.22a3.42,3.42,0,0,0-3.59-.47,4.89,4.89,0,0,0-2.41,4,6,6,0,0,0,.65,3.65,4.59,4.59,0,0,0,5.59,1.92,4.38,4.38,0,0,0,2.46-4.63,5.44,5.44,0,0,0-1-1.76A10.59,10.59,0,0,0,254.64,124.22Z" transform="translate(-38.94 -45.9)" fill="#ffbbab"></path><path d="M171.58,255.51l-.22,0a1.16,1.16,0,0,1-.92-1.36,12,12,0,0,1,7.28-8.35,1.16,1.16,0,0,1,1.52.64,1.17,1.17,0,0,1-.65,1.52,9.68,9.68,0,0,0-5.86,6.63A1.18,1.18,0,0,1,171.58,255.51Z" transform="translate(-38.94 -45.9)" fill="#fff"></path><path d="M180.77,261.17a.82.82,0,0,1-.22,0,1.17,1.17,0,0,1-.93-1.36,12.05,12.05,0,0,1,7.29-8.36,1.17,1.17,0,1,1,.87,2.17,9.65,9.65,0,0,0-5.86,6.63A1.18,1.18,0,0,1,180.77,261.17Z" transform="translate(-38.94 -45.9)" fill="#fff"></path><path d="M190,266.84l-.22,0a1.17,1.17,0,0,1-.93-1.36,12.06,12.06,0,0,1,7.28-8.36,1.17,1.17,0,0,1,1.52.64,1.16,1.16,0,0,1-.64,1.52,9.67,9.67,0,0,0-5.86,6.63A1.18,1.18,0,0,1,190,266.84Z" transform="translate(-38.94 -45.9)" fill="#fff"></path><path d="M199.15,272.51l-.22,0a1.17,1.17,0,0,1-.93-1.36,12,12,0,0,1,7.28-8.36,1.17,1.17,0,0,1,.88,2.16,9.68,9.68,0,0,0-5.87,6.63A1.16,1.16,0,0,1,199.15,272.51Z" transform="translate(-38.94 -45.9)" fill="#fff"></path><path d="M208.34,278.17a.9.9,0,0,1-.23,0,1.16,1.16,0,0,1-.92-1.36,12,12,0,0,1,7.28-8.36,1.17,1.17,0,0,1,.88,2.17,9.68,9.68,0,0,0-5.87,6.63A1.16,1.16,0,0,1,208.34,278.17Z" transform="translate(-38.94 -45.9)" fill="#fff"></path><path d="M278.54,255.5a.82.82,0,0,0,.22,0,1.17,1.17,0,0,0,.93-1.36,12,12,0,0,0-7.29-8.35,1.16,1.16,0,1,0-.87,2.16,9.65,9.65,0,0,1,5.86,6.63A1.17,1.17,0,0,0,278.54,255.5Z" transform="translate(-38.94 -45.9)" fill="#fff"></path><path d="M269.35,261.17a.78.78,0,0,0,.22,0,1.17,1.17,0,0,0,.93-1.36,12,12,0,0,0-7.28-8.36,1.17,1.17,0,0,0-1.52.65,1.16,1.16,0,0,0,.64,1.52,9.68,9.68,0,0,1,5.87,6.63A1.17,1.17,0,0,0,269.35,261.17Z" transform="translate(-38.94 -45.9)" fill="#fff"></path><path d="M260.16,266.84l.22,0a1.16,1.16,0,0,0,.93-1.36A12,12,0,0,0,254,257.1a1.17,1.17,0,0,0-.88,2.16,9.7,9.7,0,0,1,5.87,6.63A1.17,1.17,0,0,0,260.16,266.84Z" transform="translate(-38.94 -45.9)" fill="#fff"></path><path d="M251,272.51l.22,0a1.17,1.17,0,0,0,.92-1.36,12,12,0,0,0-7.28-8.36,1.16,1.16,0,0,0-1.52.64,1.17,1.17,0,0,0,.64,1.52,9.68,9.68,0,0,1,5.87,6.63A1.18,1.18,0,0,0,251,272.51Z" transform="translate(-38.94 -45.9)" fill="#fff"></path><path d="M241.79,278.17a.86.86,0,0,0,.22,0,1.16,1.16,0,0,0,.92-1.36,12,12,0,0,0-7.28-8.36,1.17,1.17,0,0,0-.87,2.17,9.68,9.68,0,0,1,5.86,6.63A1.17,1.17,0,0,0,241.79,278.17Z" transform="translate(-38.94 -45.9)" fill="#fff"></path><polygon points="280.61 278.37 249.21 260.24 249.21 255.29 280.42 242.22 311.82 255.41 311.82 260.35 280.61 278.37" fill="#181063"></polygon><polygon points="280.61 273.43 249.21 255.29 280.42 237.27 311.82 255.41 280.61 273.43" fill="#fff"></polygon><polygon points="280.59 268.97 256.93 255.31 280.44 241.73 304.11 255.39 280.59 268.97" fill="#181063"></polygon><polygon points="280.58 266.74 260.78 255.31 280.45 243.96 300.25 255.38 280.58 266.74" fill="#fff"></polygon><path d="M290.2,311.32h-.13a.64.64,0,0,1-.5-.74,6.53,6.53,0,0,1,4-4.55.63.63,0,0,1,.82.35.63.63,0,0,1-.35.83,5.25,5.25,0,0,0-3.19,3.61A.64.64,0,0,1,290.2,311.32Z" transform="translate(-38.94 -45.9)" fill="#fff"></path><path d="M295.2,314.41l-.12,0a.63.63,0,0,1-.51-.74,6.57,6.57,0,0,1,4-4.55.65.65,0,0,1,.83.35.64.64,0,0,1-.36.83,5.28,5.28,0,0,0-3.19,3.61A.64.64,0,0,1,295.2,314.41Z" transform="translate(-38.94 -45.9)" fill="#fff"></path><path d="M300.2,317.49h-.12a.63.63,0,0,1-.5-.74,6.5,6.5,0,0,1,4-4.55.63.63,0,0,1,.83.35.65.65,0,0,1-.35.83,5.26,5.26,0,0,0-3.2,3.61A.63.63,0,0,1,300.2,317.49Z" transform="translate(-38.94 -45.9)" fill="#fff"></path><path d="M305.2,320.58l-.12,0a.62.62,0,0,1-.5-.74,6.55,6.55,0,0,1,4-4.55.64.64,0,0,1,.48,1.18,5.25,5.25,0,0,0-3.19,3.61A.64.64,0,0,1,305.2,320.58Z" transform="translate(-38.94 -45.9)" fill="#fff"></path><path d="M310.2,323.66h-.12a.63.63,0,0,1-.5-.74,6.53,6.53,0,0,1,4-4.55.64.64,0,0,1,.48,1.18,5.26,5.26,0,0,0-3.19,3.61A.64.64,0,0,1,310.2,323.66Z" transform="translate(-38.94 -45.9)" fill="#fff"></path><path d="M348.42,311.32h.12a.64.64,0,0,0,.51-.74,6.55,6.55,0,0,0-4-4.55.64.64,0,0,0-.47,1.18,5.25,5.25,0,0,1,3.19,3.61A.64.64,0,0,0,348.42,311.32Z" transform="translate(-38.94 -45.9)" fill="#fff"></path><path d="M343.42,314.41l.12,0a.63.63,0,0,0,.51-.74,6.57,6.57,0,0,0-4-4.55.64.64,0,0,0-.48,1.18,5.28,5.28,0,0,1,3.2,3.61A.64.64,0,0,0,343.42,314.41Z" transform="translate(-38.94 -45.9)" fill="#fff"></path><path d="M338.42,317.49h.12a.63.63,0,0,0,.5-.74,6.5,6.5,0,0,0-4-4.55.63.63,0,0,0-.83.35.65.65,0,0,0,.35.83,5.26,5.26,0,0,1,3.2,3.61A.63.63,0,0,0,338.42,317.49Z" transform="translate(-38.94 -45.9)" fill="#fff"></path><path d="M333.42,320.58l.12,0a.62.62,0,0,0,.5-.74,6.55,6.55,0,0,0-4-4.55.64.64,0,0,0-.48,1.18,5.25,5.25,0,0,1,3.19,3.61A.64.64,0,0,0,333.42,320.58Z" transform="translate(-38.94 -45.9)" fill="#fff"></path><path d="M328.42,323.66h.12a.64.64,0,0,0,.5-.74,6.53,6.53,0,0,0-4-4.55.64.64,0,1,0-.48,1.18,5.26,5.26,0,0,1,3.19,3.61A.64.64,0,0,0,328.42,323.66Z" transform="translate(-38.94 -45.9)" fill="#fff"></path><polygon points="87 150.25 55.6 132.12 55.6 127.18 86.81 114.1 118.22 127.29 118.22 132.24 87 150.25" fill="#181063"></polygon><polygon points="87 145.31 55.6 127.18 86.81 109.16 118.22 127.29 87 145.31" fill="#fff"></polygon><polygon points="86.98 140.85 63.32 127.19 86.83 113.61 110.5 127.28 86.98 140.85" fill="#181063"></polygon><polygon points="86.97 138.63 67.17 127.2 86.84 115.84 106.64 127.27 86.97 138.63" fill="#fff"></polygon><path d="M96.59,183.21l-.12,0a.63.63,0,0,1-.51-.74,6.57,6.57,0,0,1,4-4.55.63.63,0,0,1,.82.35.63.63,0,0,1-.35.83,5.28,5.28,0,0,0-3.19,3.61A.65.65,0,0,1,96.59,183.21Z" transform="translate(-38.94 -45.9)" fill="#fff"></path><path d="M101.59,186.29h-.12a.64.64,0,0,1-.51-.74,6.55,6.55,0,0,1,4-4.55.64.64,0,0,1,.83.35.65.65,0,0,1-.35.83,5.24,5.24,0,0,0-3.2,3.61A.63.63,0,0,1,101.59,186.29Z" transform="translate(-38.94 -45.9)" fill="#fff"></path><path d="M106.59,189.38l-.12,0a.62.62,0,0,1-.5-.74,6.55,6.55,0,0,1,4-4.55.64.64,0,1,1,.48,1.18,5.28,5.28,0,0,0-3.2,3.61A.63.63,0,0,1,106.59,189.38Z" transform="translate(-38.94 -45.9)" fill="#fff"></path><path d="M111.59,192.46h-.12a.63.63,0,0,1-.5-.74,6.53,6.53,0,0,1,4-4.55.64.64,0,1,1,.48,1.18,5.25,5.25,0,0,0-3.19,3.61A.64.64,0,0,1,111.59,192.46Z" transform="translate(-38.94 -45.9)" fill="#fff"></path><path d="M116.6,195.55l-.13,0a.63.63,0,0,1-.5-.74,6.57,6.57,0,0,1,4-4.55.64.64,0,0,1,.47,1.18,5.28,5.28,0,0,0-3.19,3.61A.65.65,0,0,1,116.6,195.55Z" transform="translate(-38.94 -45.9)" fill="#fff"></path><path d="M154.82,183.2h.12a.62.62,0,0,0,.5-.74,6.54,6.54,0,0,0-4-4.55.64.64,0,0,0-.47,1.18,5.28,5.28,0,0,1,3.19,3.61A.64.64,0,0,0,154.82,183.2Z" transform="translate(-38.94 -45.9)" fill="#fff"></path><path d="M149.81,186.29h.12a.64.64,0,0,0,.51-.74,6.55,6.55,0,0,0-4-4.55.64.64,0,0,0-.47,1.18,5.25,5.25,0,0,1,3.19,3.61A.64.64,0,0,0,149.81,186.29Z" transform="translate(-38.94 -45.9)" fill="#fff"></path><path d="M144.81,189.38l.12,0a.64.64,0,0,0,.51-.74,6.57,6.57,0,0,0-4-4.55.64.64,0,1,0-.48,1.18,5.28,5.28,0,0,1,3.2,3.61A.64.64,0,0,0,144.81,189.38Z" transform="translate(-38.94 -45.9)" fill="#fff"></path><path d="M139.81,192.46h.12a.63.63,0,0,0,.5-.74,6.53,6.53,0,0,0-4-4.55.63.63,0,0,0-.83.35.64.64,0,0,0,.35.83,5.22,5.22,0,0,1,3.19,3.61A.64.64,0,0,0,139.81,192.46Z" transform="translate(-38.94 -45.9)" fill="#fff"></path><path d="M134.81,195.55l.12,0a.62.62,0,0,0,.5-.74,6.55,6.55,0,0,0-4-4.55.64.64,0,0,0-.83.35.63.63,0,0,0,.35.83,5.28,5.28,0,0,1,3.19,3.61A.65.65,0,0,0,134.81,195.55Z" transform="translate(-38.94 -45.9)" fill="#fff"></path><polygon points="71.96 275.9 40.55 257.76 40.55 252.82 71.77 239.75 103.17 252.93 103.17 257.88 71.96 275.9" fill="#181063"></polygon><polygon points="71.96 270.95 40.55 252.82 71.77 234.8 103.17 252.93 71.96 270.95" fill="#fff"></polygon><polygon points="71.94 266.5 48.27 252.83 71.79 239.26 95.46 252.92 71.94 266.5" fill="#181063"></polygon><polygon points="71.93 264.27 52.13 252.84 71.8 241.49 91.6 252.91 71.93 264.27" fill="#fff"></polygon><path d="M81.54,308.85h-.12a.63.63,0,0,1-.5-.74,6.53,6.53,0,0,1,4-4.55.62.62,0,0,1,.82.35.63.63,0,0,1-.35.82,5.28,5.28,0,0,0-3.19,3.61A.64.64,0,0,1,81.54,308.85Z" transform="translate(-38.94 -45.9)" fill="#fff"></path><path d="M86.55,311.93h-.12a.63.63,0,0,1-.51-.74,6.57,6.57,0,0,1,4-4.55.63.63,0,0,1,.82.35.63.63,0,0,1-.35.83,5.28,5.28,0,0,0-3.19,3.61A.64.64,0,0,1,86.55,311.93Z" transform="translate(-38.94 -45.9)" fill="#fff"></path><path d="M91.55,315h-.12a.65.65,0,0,1-.51-.74,6.55,6.55,0,0,1,4-4.55.63.63,0,0,1,.83.35.63.63,0,0,1-.35.82,5.28,5.28,0,0,0-3.2,3.61A.63.63,0,0,1,91.55,315Z" transform="translate(-38.94 -45.9)" fill="#fff"></path><path d="M96.55,318.1h-.12a.62.62,0,0,1-.5-.74,6.55,6.55,0,0,1,4-4.55.64.64,0,0,1,.48,1.18,5.25,5.25,0,0,0-3.19,3.61A.64.64,0,0,1,96.55,318.1Z" transform="translate(-38.94 -45.9)" fill="#fff"></path><path d="M101.55,321.19h-.12a.63.63,0,0,1-.5-.74,6.53,6.53,0,0,1,4-4.55.63.63,0,0,1,.83.35.64.64,0,0,1-.35.83,5.25,5.25,0,0,0-3.19,3.61A.64.64,0,0,1,101.55,321.19Z" transform="translate(-38.94 -45.9)" fill="#fff"></path><path d="M139.77,308.85h.12a.64.64,0,0,0,.51-.74,6.55,6.55,0,0,0-4-4.55.63.63,0,0,0-.47,1.17,5.28,5.28,0,0,1,3.19,3.61A.64.64,0,0,0,139.77,308.85Z" transform="translate(-38.94 -45.9)" fill="#fff"></path><path d="M134.77,311.93h.12a.63.63,0,0,0,.51-.74,6.57,6.57,0,0,0-4-4.55.64.64,0,1,0-.48,1.18,5.28,5.28,0,0,1,3.2,3.61A.63.63,0,0,0,134.77,311.93Z" transform="translate(-38.94 -45.9)" fill="#fff"></path><path d="M129.77,315h.12a.63.63,0,0,0,.5-.74,6.53,6.53,0,0,0-4-4.55.63.63,0,0,0-.83.35.63.63,0,0,0,.35.82,5.28,5.28,0,0,1,3.2,3.61A.62.62,0,0,0,129.77,315Z" transform="translate(-38.94 -45.9)" fill="#fff"></path><path d="M124.77,318.1h.12a.62.62,0,0,0,.5-.74,6.55,6.55,0,0,0-4-4.55.64.64,0,0,0-.83.35.63.63,0,0,0,.35.83,5.28,5.28,0,0,1,3.19,3.61A.64.64,0,0,0,124.77,318.1Z" transform="translate(-38.94 -45.9)" fill="#fff"></path><path d="M119.76,321.19h.13a.64.64,0,0,0,.5-.74,6.55,6.55,0,0,0-4-4.55.63.63,0,0,0-.82.35.64.64,0,0,0,.35.83,5.25,5.25,0,0,1,3.19,3.61A.64.64,0,0,0,119.76,321.19Z" transform="translate(-38.94 -45.9)" fill="#fff"></path><polygon points="292.79 160.33 261.38 142.2 261.38 137.25 292.59 124.18 324 137.37 324 142.31 292.79 160.33" fill="#181063"></polygon><polygon points="292.79 155.38 261.38 137.25 292.59 119.23 324 137.37 292.79 155.38" fill="#fff"></polygon><polygon points="292.76 150.93 269.1 137.27 292.61 123.69 316.28 137.35 292.76 150.93" fill="#181063"></polygon><polygon points="292.75 148.7 272.96 137.27 292.63 125.92 312.42 137.34 292.75 148.7" fill="#fff"></polygon><path d="M302.37,193.28h-.12a.64.64,0,0,1-.51-.74,6.55,6.55,0,0,1,4-4.55.64.64,0,0,1,.83.35.65.65,0,0,1-.36.83,5.25,5.25,0,0,0-3.19,3.61A.63.63,0,0,1,302.37,193.28Z" transform="translate(-38.94 -45.9)" fill="#fff"></path><path d="M307.37,196.37l-.12,0a.62.62,0,0,1-.5-.74,6.52,6.52,0,0,1,4-4.55.64.64,0,0,1,.48,1.18,5.28,5.28,0,0,0-3.2,3.61A.64.64,0,0,1,307.37,196.37Z" transform="translate(-38.94 -45.9)" fill="#fff"></path><path d="M312.37,199.45h-.12a.63.63,0,0,1-.5-.74,6.53,6.53,0,0,1,4-4.55.63.63,0,0,1,.83.35.65.65,0,0,1-.35.83,5.22,5.22,0,0,0-3.19,3.61A.64.64,0,0,1,312.37,199.45Z" transform="translate(-38.94 -45.9)" fill="#fff"></path><path d="M317.37,202.54l-.12,0a.62.62,0,0,1-.5-.74,6.55,6.55,0,0,1,4-4.55.64.64,0,0,1,.83.35.63.63,0,0,1-.35.83A5.28,5.28,0,0,0,318,202,.65.65,0,0,1,317.37,202.54Z" transform="translate(-38.94 -45.9)" fill="#fff"></path><path d="M322.38,205.62h-.12a.64.64,0,0,1-.51-.74,6.55,6.55,0,0,1,4-4.55.64.64,0,0,1,.47,1.18,5.25,5.25,0,0,0-3.19,3.61A.64.64,0,0,1,322.38,205.62Z" transform="translate(-38.94 -45.9)" fill="#fff"></path><path d="M360.6,193.28h.12a.63.63,0,0,0,.5-.74,6.53,6.53,0,0,0-4-4.55.63.63,0,0,0-.83.35.64.64,0,0,0,.35.83,5.25,5.25,0,0,1,3.19,3.61A.64.64,0,0,0,360.6,193.28Z" transform="translate(-38.94 -45.9)" fill="#fff"></path><path d="M355.59,196.37l.13,0a.63.63,0,0,0,.5-.74,6.57,6.57,0,0,0-4-4.55.64.64,0,0,0-.47,1.18,5.28,5.28,0,0,1,3.19,3.61A.65.65,0,0,0,355.59,196.37Z" transform="translate(-38.94 -45.9)" fill="#fff"></path><path d="M350.59,199.45h.12a.64.64,0,0,0,.51-.74,6.55,6.55,0,0,0-4-4.55.64.64,0,1,0-.47,1.18,5.25,5.25,0,0,1,3.19,3.61A.63.63,0,0,0,350.59,199.45Z" transform="translate(-38.94 -45.9)" fill="#fff"></path><path d="M345.59,202.54l.12,0a.62.62,0,0,0,.5-.74,6.52,6.52,0,0,0-4-4.55.64.64,0,1,0-.48,1.18A5.28,5.28,0,0,1,345,202,.64.64,0,0,0,345.59,202.54Z" transform="translate(-38.94 -45.9)" fill="#fff"></path><path d="M340.59,205.62h.12a.63.63,0,0,0,.5-.74,6.53,6.53,0,0,0-4-4.55.63.63,0,0,0-.83.35.64.64,0,0,0,.35.83,5.22,5.22,0,0,1,3.19,3.61A.64.64,0,0,0,340.59,205.62Z" transform="translate(-38.94 -45.9)" fill="#fff"></path><g opacity="0.57"><polygon points="89.53 245.65 88.55 243.9 116.47 228.33 138.85 238.62 169.47 221.58 170.45 223.33 138.93 240.86 116.56 230.57 89.53 245.65" fill="#fff"></polygon></g><g opacity="0.57"><polygon points="96.12 229.02 95.17 227.26 118.17 214.92 129.38 219.8 142.47 210.31 143.64 211.93 129.62 222.09 118.26 217.14 96.12 229.02" fill="#fff"></polygon></g><g opacity="0.57"><polygon points="232.86 269.86 209.67 257.69 248.51 232.46 212.81 217.04 213.6 215.2 252.73 232.1 213.62 257.51 233.79 268.08 232.86 269.86" fill="#fff"></polygon></g><g opacity="0.57"><polygon points="96.5 185.2 77.43 174.55 142.55 136.44 143.56 138.17 81.46 174.51 96.51 182.91 131.48 163.86 152.6 175.47 151.63 177.22 131.47 166.14 96.5 185.2" fill="#fff"></polygon></g></svg>