<svg xmlns="http://www.w3.org/2000/svg" width="563.232" height="596.817" xmlns:v="https://vecta.io/nano"><circle cx="215.615" cy="68.266" r="26.701" fill="#fd6584"/><path d="M275.373 55.623c-1.539-5.046-5.928-8.696-11.17-9.29a1.08 1.08 0 0 0-.18 0 1.42 1.42 0 0 0-.22-.05c-8.94-1.16-18.88 1.66-25.57 7.8a23.96 23.96 0 0 0-5.83 8.04c-2.518-3.439-6.57-5.415-10.83-5.28-5.544.367-10.264 4.17-11.8 9.51-.169.654.111 1.341.69 1.69a6.67 6.67 0 0 0 2.79 1.42 186.85 186.85 0 0 0 6.67 1.29q6.54 1.14 13.15 1.85 4.365.465 8.75.74a192.98 192.98 0 0 0 18.16.28c3-.1 5.88-.2 8.62-1.52a12.8 12.8 0 0 0 4.95-4.31 14.55 14.55 0 0 0 1.82-12.17zm-54.93 38.9a13.65 13.65 0 0 0-.56-3.3 13.26 13.26 0 0 0-11.18-9.29c-.057-.005-.113-.005-.17 0-.076-.021-.152-.038-.23-.05-4.948-.606-9.969-.09-14.69 1.51-7.26 2.43-13.63 7.33-16.7 14.33a12.92 12.92 0 0 0-10.84-5.28c-5.544.367-10.264 4.17-11.8 9.51-.16.653.119 1.335.69 1.69a6.74 6.74 0 0 0 2.79 1.42c2.22.47 4.44.9 6.68 1.29q6.54 1.14 13.14 1.85a195.18 195.18 0 0 0 26.92 1.02c2.99-.1 5.88-.2 8.62-1.52a12.77 12.77 0 0 0 4.94-4.31c1.753-2.612 2.593-5.731 2.39-8.87z" fill="#e6e6e6"/><path d="M418.13 431.48h-24.34V51.51l-4.96-3.58q-.495-.345-.99-.69a288.32 288.32 0 0 0-62.01-32.94l-4.72 65.1v.004h-30.37V3.39l-5.96-1.38v77.394H170.1V0l-5.96 1.16v78.244h-31.37V79.4l-4.95-68.27c-21.346 7.399-41.747 17.287-60.78 29.46l-1.98 1.28-3.97 2.63v386.98H26.82c-8.903-.006-17.228 4.41-22.217 11.784s-5.991 16.744-2.673 25.006a25.54 25.54 0 0 0 1.75 3.56c.871 1.486 1.883 2.886 3.02 4.18a26.76 26.76 0 0 0 20.12 9.11h391.31c14.812 0 26.82-12.008 26.82-26.82s-12.008-26.82-26.82-26.82zM314.57 169.782L295.64 431.48h-137.4l-18.93-261.698zm6.11-84.419l-4.67 64.556h-25.27V85.363zm-35.9 0v64.556h-45.632c-1.863-3.656-5.619-5.958-9.723-5.959h-5.959c-4.103.001-7.859 2.303-9.723 5.959H170.1V85.363zm-120.64 64.556h-26.27l-4.67-64.556h30.94z" fill="#f2f2f2"/><path d="M2.368 474.727c8.687 10.293 18.083 19.967 28.12 28.95l379.58 1c10.037-8.983 19.433-18.657 28.12-28.95z" fill="#3f3d56"/><path d="M194.058 377.917v102.56h71.85v-102.56a3.45 3.45 0 0 0-2.43-3.3c-.332-.11-.68-.164-1.03-.16h-64.92c-.919-.002-1.801.362-2.452 1.011s-1.017 1.53-1.018 2.449zm28.04 35.24a7.67 7.67 0 1 1 15.34 0v11.9a7.67 7.67 0 1 1-15.34 0z" fill="#2f2e41"/><path d="M193.838 477.197v9.89c.003 1.066.864 1.931 1.93 1.94h68.43a1.94 1.94 0 0 0 1.93-1.94v-9.89zm-112.81-253.8v187.26a9.01 9.01 0 0 0 9 9h277.5a9.01 9.01 0 0 0 9-9v-187.26c-.012-4.964-4.036-8.984-9-8.99h-277.5c-4.964.006-8.988 4.026-9 8.99z" fill="#3f3d56"/><path d="M87.538 225.727v182.62a4.82 4.82 0 0 0 4.81 4.81h272.87a4.82 4.82 0 0 0 4.81-4.81v-182.62a4.82 4.82 0 0 0-4.81-4.82H92.348a4.82 4.82 0 0 0-4.81 4.82z" fill="#5b68fd"/><path d="M143.178 491.357a2.95 2.95 0 0 0 2.32 1.11h162.34c.899-.001 1.75-.407 2.316-1.105s.788-1.615.604-2.495l-2.52-11.97c-.212-.992-.912-1.809-1.86-2.17-.338-.132-.697-.2-1.06-.2h-157.31c-.363 0-.722.067-1.06.2a2.99 2.99 0 0 0-1.86 2.17l-2.52 11.97c-.182.88.042 1.794.61 2.49z" fill="#2f2e41"/><path d="M148.008 477.027c-.049-.001-.098.008-.145.025a.51.51 0 0 0-.328.353l-2.521 11.977a.48.48 0 0 0 .102.396l.011.014a.45.45 0 0 0 .371.176h162.34c.144.002.28-.063.37-.175a.46.46 0 0 0 .106-.397l-2.522-11.983a.5.5 0 0 0-.304-.349c-.054-.023-.111-.035-.17-.035z" fill="#fff"/><g fill="#3f3d56"><path d="M101.121 246.063h255.323c.552-.012.993-.463.993-1.015s-.441-1.003-.993-1.015H101.121c-.552.012-.993.463-.993 1.015s.441 1.003.993 1.015z"/><ellipse cx="339.064" cy="232.765" rx="5.95" ry="6.083"/><ellipse cx="318.508" cy="232.765" rx="5.95" ry="6.083"/><ellipse cx="297.952" cy="232.765" rx="5.95" ry="6.083"/><path d="M112.409 229.297a1.1 1.1 0 0 0 .317.776c.204.206.482.323.773.324h14.6c.6-.014 1.08-.505 1.08-1.105s-.479-1.091-1.08-1.105h-14.6c-.607.007-1.094.503-1.09 1.11zm0 4.15a1.1 1.1 0 0 0 .317.776c.204.206.482.323.773.324h14.6c.601-.013 1.081-.504 1.081-1.105s-.48-1.092-1.081-1.105h-14.6c-.607.007-1.094.503-1.09 1.11zm0 4.14c-.004.607.483 1.103 1.09 1.11h14.6c.6-.014 1.08-.505 1.08-1.105s-.479-1.091-1.08-1.105h-14.6c-.29.001-.568.118-.773.324a1.09 1.09 0 0 0-.317.776zm205.992 39.47H139.164c-4.903.006-8.876 3.979-8.881 8.881v87.237c.005 4.903 3.979 8.876 8.881 8.882h179.237c4.903-.006 8.876-3.979 8.881-8.882v-87.237c-.006-4.903-3.979-8.876-8.881-8.881zm6.881 8.881v25.452h-63v-32.333h56.119a6.89 6.89 0 0 1 6.881 6.881zm-128 59.786V313.39h63v32.334zm63 2v32.333h-63v-32.333zm-65-2h-63V313.39h63zm2-34.334v-32.333h63v32.333zm65 2h63v32.334h-63zm-123.119-34.333h56.119v32.333h-63v-25.452a6.89 6.89 0 0 1 6.881-6.881zm-6.881 94.118v-25.451h63v32.333h-56.119a6.89 6.89 0 0 1-6.881-6.882zm186.119 6.882h-56.119v-32.333h63v25.451a6.89 6.89 0 0 1-6.881 6.882z"/></g><g fill="#fff"><path d="M219.673 299.206c-1.591-2.631-3.475-5.439-6.427-6.298-3.418-.995-6.93.981-9.908 2.931-8.907 5.832-17.485 12.152-25.695 18.932l.009.102 19.174-1.322c4.618-.318 9.394-.681 13.475-2.865 1.549-.829 3.058-1.936 4.813-2.013 2.18-.096 4.081 1.427 5.575 3.017 8.837 9.41 11.394 23.799 21.307 32.066a314.6 314.6 0 0 0-22.322-44.55zm54.317 79.811l-2.34-2.768q-11.773-15.226-22.131-31.481-7.036-11.04-13.373-22.503-3.017-5.45-5.869-10.985-2.213-4.292-4.327-8.635l-1.184-2.491-2.787-5.858c-1-2.319-2.531-4.37-4.47-5.989a6.1 6.1 0 0 0-3.177-1.223 8.86 8.86 0 0 0-4.599 1.318 148.05 148.05 0 0 0-29.112 20.075 151.56 151.56 0 0 0-23.652 26.254c-.209.298-.703.013-.492-.287q1.246-1.762 2.542-3.487c10.741-14.285 23.91-26.569 38.907-36.291q3.785-2.453 7.711-4.675a111.08 111.08 0 0 1 3.993-2.177 9.73 9.73 0 0 1 4.234-1.312c5.137-.08 7.797 5.738 9.624 9.653q.861 1.848 1.743 3.685 3.334 6.973 6.924 13.818 2.216 4.226 4.529 8.404 7.198 13.007 15.301 25.488c7.156 11.022 14.256 20.758 22.408 31.064.224.285-.177.692-.403.403zm-93.878-73.413l-.895-.998c-2.369-2.62-4.911-5.209-8.164-6.711a11.84 11.84 0 0 0-4.962-1.15 14.16 14.16 0 0 0-5.152 1.124c-.776.31-1.534.662-2.282 1.036-.854.43-1.692.888-2.527 1.35q-2.35 1.3-4.639 2.715-4.554 2.815-8.824 6.059-2.213 1.683-4.335 3.475-1.973 1.665-3.867 3.42c-.27.249-.673-.154-.403-.403l1.006-.922q1.426-1.289 2.898-2.529 2.684-2.264 5.506-4.354 4.389-3.251 9.08-6.061 2.344-1.403 4.753-2.688a40.68 40.68 0 0 1 1.472-.751 23.46 23.46 0 0 1 3.498-1.424c1.703-.551 3.506-.728 5.284-.519a13.77 13.77 0 0 1 4.875 1.686c3.194 1.785 5.671 4.546 8.082 7.24.243.274-.158.679-.403.405zm65.445 27.149l7.654-2.799 3.8-1.39a38.86 38.86 0 0 1 3.752-1.292 5.92 5.92 0 0 1 3.396.043 7.83 7.83 0 0 1 2.649 1.642c.78.719 1.507 1.494 2.172 2.32l2.461 3q5.069 6.199 10.072 12.452 5.003 6.253 9.938 12.559 4.948 6.321 9.827 12.696.598.781 1.195 1.563c.22.288.715.004.492-.288q-4.916-6.438-9.9-12.824-4.996-6.401-10.062-12.748-5.065-6.347-10.199-12.638-1.279-1.567-2.562-3.131l-2.227-2.587a8.03 8.03 0 0 0-5.441-2.867 10.5 10.5 0 0 0-3.701.814l-3.834 1.402-7.707 2.819-1.927.705c-.342.125-.194.676.152.55zm-75.512-31.562a12.36 12.36 0 0 0-12.445.89 177.5 177.5 0 0 1 20.194 4.713c-2.755-1.614-4.91-4.144-7.749-5.603z"/><path d="M157.562 302.074l-.749.609.787-.602zm108.957 30.707a6.37 6.37 0 0 0-2.695-2.25l-1.052.041a119.34 119.34 0 0 0 31.787 36.34z"/><circle cx="261.597" cy="311.227" r="6.059"/></g><path d="M349.522 378.557a4.51 4.51 0 0 0 4.5-4.5v-93a4.5 4.5 0 1 0-9 0v93a4.51 4.51 0 0 0 4.5 4.5z" fill="#3f3d56"/><path d="M349.522 378.557a4.51 4.51 0 0 0 4.5-4.5v-19.72a5.58 5.58 0 0 0-9 0v19.72a4.51 4.51 0 0 0 4.5 4.5z" fill="#2f2e41"/><path d="M349.522 359.557a4.85 4.85 0 0 0 4.84-4.84v-21.208a6 6 0 0 0-9.679 0v21.208a4.85 4.85 0 0 0 4.84 4.84z" fill="#5b68fd"/><path d="M349.522 355.701c1.948-.003 3.527-1.582 3.53-3.53v-15.469a4.38 4.38 0 0 0-7.06 0v15.469c.003 1.948 1.582 3.527 3.53 3.53z" fill="#3f3d56"/><path d="M210.699 483.036c-1.645-1.473-1.787-4-.317-5.648l39.316-43.992a4 4 0 1 1 5.965 5.331l-39.316 43.992c-1.473 1.645-4 1.787-5.648.317z" fill="#5b68fd"/><path d="M536.85 555.466c0 7.29-1.72 12.87-1.51 17.33a287.27 287.27 0 0 1-36.3 13.02l-4.21 1.16c-7.63-23.36-15.27-44.75-18.28-47.02-6.89-5.17-10.34 16.22-10.34 11.05s3.45-5.17-5.16-12.06c-8.62-6.89-3.45-37.9-3.45-37.9l-12.06-31.01 13.49-49.46 17.52-64.25h17.23a35.34 35.34 0 0 0 1.36 1.06c4.31 3.52 17.31 15.28 15.87 28.23-.43 3.86.53 15.08 2.2 30.02 5.08 45.11 16.75 94.15 16.75 107.09 0 17.23 6.89 22.4 6.89 32.74z" fill="#e6e6e6"/><path d="M522.402 415.467l-.05-.13a26.64 26.64 0 0 0-1.35-3.04c-2.91-5.47.17-13.87-3.11-23.15-5.3-15.04-11.76-23.91-21.23-31.86l-.85-.71-.01-.01c-6.32-5.19-13.94-10.04-23.4-16.08l-6.17-3.95c-2.76-1.77-2.61-7.67-2.45-13.91.18-6.93.37-14.11-3.03-18.59l-.22-.29-.35-.09c-11.657-2.306-23.547-3.222-35.42-2.73h-.01a69.66 69.66 0 0 0-14.93 2.19c-.36.1-.72.2-1.07.32-.27.07-.54.16-.81.25l-.22.08-.17.16c-3.29 3.29-4.05 9.19-4.41 15.34v.01q-.105 1.68-.18 3.36c-.28 5.98-.54 11.63-2.74 14.08a57.79 57.79 0 0 1-17.47 13.44c-10.33 5.1-18.5 4.94-18.62 4.94l-.95-.03-.09.94c-6.86 13.07-6.6 46.79-6.81 82.9q-.015 3.015-.04 6.06c-.12 16.82-.44 33.93-1.7 49.52-.55 6.7-1.26 13.11-2.21 19.1-4.62 29.17-25.55 4.95-35.56 24.36.329 1.909.883 3.772 1.65 5.55 1.15.68 2.33 1.34 3.5 2q7.785 4.335 15.86 8.09l.9.41c9.874 4.569 20.052 8.451 30.46 11.62l6.11 1.77c18.134 5.006 36.806 7.803 55.61 8.33a1.7 1.7 0 0 1 .23-.01c22.239-.615 44.332-3.799 65.84-9.49q.45-.12.9-.24l4.21-1.16a287.28 287.28 0 0 0 36.3-13.02 9.24 9.24 0 0 0 .13 1.31 3.03 3.03 0 0 0 .06.42c.02-.16.04-.32.05-.48.06-.47.11-.95.16-1.43 6.12-59.68-6.59-110.35-16.34-136.15z" fill="#3f3d56"/><path d="M384.968 269.2c12.572 22.989 39.408 34.183 64.589 26.941s41.972-30.98 40.412-57.136-21.053-47.73-46.917-51.927-51.179 10.107-60.929 34.428c-.256.641-.487 1.281-.717 1.948-5.413 15.056-4.116 31.709 3.562 45.746z" fill="#ffb6b6"/><g fill="#2f2e41"><path d="M376.921 223.455c2.409-6.74 1.358-3.229 3.793-9.944-1.589 5.946.923 9.277.692 9.944h66.658v-38.749c-19.529-7.74-38.621-14.326-50.154 0-21.4.001-38.748 17.349-38.749 38.749z"/><path d="M400.55 331.168l.231-2.178c.717-5.279 2.511-10.354 4.331-15.377l5.817-16.248a46.52 46.52 0 0 0 2.178 29.523c11.251-8.765 4.152-28.806 18.862-28.806 35.366 0 71.758-28.678 71.758-64.069 0-35.366-15.172-61.814-50.538-61.814-35.392 0-64.095 16.197-64.787 51.563 43.567 10.251 3.921 103.818 12.148 107.406z"/><circle cx="499.308" cy="187.588" r="41.004"/><path d="M563.232 422.747q-.21 3.165-.37 6.74c-2.12 44.89-.29 105.32-14.58 138.11q-4.8 2.625-9.7 5.02-.195.09-.36.18l-2.64 1.25a.3.3 0 0 1-.11.06 238.81 238.81 0 0 1-29.81 11.71l-3.77 1.16q-.405.12-.81.24c-19.193 5.676-39.035 8.865-59.04 9.49l-3.05.07-1.03.02-3.35.02q-3.39 0-6.75-.1c-18.805-.527-37.476-3.324-55.61-8.33-2.05-.56-4.08-1.15-6.11-1.77-10.408-3.169-20.586-7.051-30.46-11.62-.3-.13-.6-.27-.9-.41q-8.07-3.75-15.86-8.09l-3.5-2c-.767-1.778-1.321-3.641-1.65-5.55-2.27-10.91-4.09-3.55-5.39-26.25-1.19-20.81-1.95-41.68-2.23-53.61l-.13-7.47c1.06-7.58 18.1-16.18 42.95-24.35l7.27-2.3c6.72-2.07 13.9-4.1 21.4-6.06 19.1-5 40.31-9.59 61.36-13.38 10.39-1.86 20.74-3.53 30.79-4.95 17.63-2.5 34.31-4.23 48.58-4.94l4.03-.17 4.17-.13c20.56-.45 34.6 1.69 36.66 7.41z"/></g><path d="M563.232 422.747q-.21 3.165-.37 6.74c-15.58-16.78-183.42 58.18-254.48 103.21-1.19-20.81-1.95-41.68-2.23-53.61l-.13-7.47c1.06-7.58 18.1-16.18 42.95-24.35l7.27-2.3c6.72-2.07 13.9-4.1 21.4-6.06 19.1-5 40.31-9.59 61.36-13.38 10.39-1.86 20.74-3.53 30.79-4.95 17.63-2.5 34.31-4.23 48.58-4.94l4.03-.17 4.17-.13c20.56-.45 34.6 1.69 36.66 7.41z" opacity=".2"/><path d="M221.901 474.76c3.186 4.017 7.988 6.416 13.113 6.552s10.047-2.005 13.442-5.847l56.948 23.389-6.145-31.396-53.137-17.397a17.42 17.42 0 0 0-24.221 24.699z" fill="#ffb6b6"/><path d="M411.335 344.02l-.312-.033-33.209 2.411a29.81 29.81 0 0 0-21.561 11.675c-1.19 1.558-2.22 3.233-3.075 4.997l-.009.005c-2.863 5.858-3.726 12.493-2.456 18.888l15.634 78.703-37.618-3.418-13.732 2.347-16.205-6.538-33.251.566-.771 2.548-6.975 23.123-.548 1.817 50.775 31.996 14.721-4.478 6.935 5.327.333.009 13.752.272 58.648 1.15 16.031-28.401 2.505-4.453c18.618-41.709 23.213-70.826 21.755-90.885-.764-10.599-3.214-18.655-6.181-24.727-9.173-18.763-24.541-22.744-25.187-22.902z" fill="#3f3d56"/><path d="M504.494 223.992a47.35 47.35 0 0 1-34.173-30.183c-2.406-6.978-3.314-14.64-7.352-20.85 6.152-8.448 11.085-17.719 14.655-27.541 1.382-3.802 4.617-10.705-.868-12.797-4.37-1.667-9.335 2.356-11.926 5.529-1.968 2.405-3.38 5.216-4.133 8.231q-1.34-5.918-2.68-11.835c-.236-.786-1.049-1.248-1.845-1.048-7.322 1.248-12.632 8.028-13.554 15.169-.503 3.676.333 7.411 2.356 10.522 2.352 3.578 5.796 6.144 9.074 8.81 3.486 2.836 6.44 5.856 8.314 10.003 1.948 4.31 2.825 9.027 4.117 13.552a50.21 50.21 0 0 0 37.219 35.331c1.882.411 2.686-2.48.797-2.893zm-41.347-71.716a17.41 17.41 0 0 1 2.837-10.665 16.89 16.89 0 0 1 3.853-4.174c1.432-1.094 3.545-2.544 5.44-2.142 2.458.521 1.469 3.265.947 4.919q-1.033 3.274-2.272 6.479c-1.608 4.149-3.475 8.192-5.59 12.107-1.098 2.038-2.271 4.032-3.496 5.994q-1.267-5.594-2.534-11.188c.548-.201.885-.753.814-1.332zm-17.52.597c-1.012-7.029 3.106-13.788 9.817-16.111q3.572 15.77 7.143 31.541c-.491.725-.998 1.439-1.507 2.152-.133-.153-.255-.311-.393-.462-4.995-5.435-13.703-9.14-15.061-17.12z" fill="#5b68fd"/></svg>