<svg xmlns="http://www.w3.org/2000/svg" xmlns:xlink="http://www.w3.org/1999/xlink" viewBox="0 0 1920 1080" xmlns:v="https://vecta.io/nano"><style><![CDATA[.c{fill:#f6874e}.d{fill:#1d2436}.e{fill:#ec5e4d}.f{fill:#913636}.g{fill:#ce6d3e}.h{fill:#273150}.i{opacity:.5}.j{stroke-miterlimit:10}.k{fill:#48598b}.l{fill:#f4e8d8}.m{fill:#102441}.n{fill:#3d4c6d}.o{stroke-linecap:round}.p{stroke-linejoin:round}]]></style><path d="M563.99 428.82c18.07-2.01 417.76 7.12 417.76 7.12 186.76-27.11 470.19-113.03 486.59-116.31 30.12-6.02 127.17 107.37 178.38 134.48s225.92 19.08 186.76 82.34-206.85 166.68-285.17 205.84c0 0-229.7 75.62-295.97 87.67s-49.85 59.34-97.32 83.08c-79.61 39.8-155.35 51.33-407.47 72.79-141.58 12.05-471.56 3.17-427.25-75.95S140.48 883.61 177.88 754.8c28.48-98.11 144.92-128.73 215.21-170.9 0 0 152.83-153.07 170.9-155.08zm678.86 413.02s96-31.4 191.47-36.4c104.72-5.48-25.32 44.31-129.76 82.29-76.99 28-131.84 75.03-116.31 25.32 11.87-37.98 54.6-71.21 54.6-71.21z" class="l"/><g fill="#a69989"><path d="M1415.33 420.91c50.21 0 215.32 25.17 215.32 25.17l-171.01 41.29-149.3-19.2c0 .01 54.78-47.26 104.99-47.26zm80.27 106.01l165.68-43.68s37.24-8.95 48.03-8.7c14.39.33 59.91 3.68 95.06 16.23 3.88 1.38-171.7 43.68-171.7 43.68l-137.07-7.53zm-194.3 122c4.52 0 248.52 61.75 225.93 75.31s-49.7 45.18-135.56 39.16c-85.85-6.02-225.07-57.03-200.32-73.8 88.87-60.25 115.1-45.06 109.95-40.67zM425.61 882.31s37.08-38.77 65.99-51.16c14.77-6.33 115.87-76.55 156.54-82.58 25.02-3.71 225.4-20.65 286.15-15.93 37.98 2.95-22.76 12.7-27.3 30.86-13.05 52.22-87.82 75.96-87.82 75.96l-122.33 18.31-45.18-28.45-55.61 52.86-149.54 18.99-20.9-18.86z"/><path d="M810.29 873.84s64.26-12.05 61.25-27.11-50.21-31.13-116.48-10.04c-66.26 21.08 55.23 37.15 55.23 37.15zm-388.02 55.82s89.73-21.31 83.56-37.98-159.68 37.2-83.56 37.98z"/></g><path d="M718.4 534.86c-11.44 16.69-50.23 20.88-97.5 15.39-47.27-5.48-67.58-5.85-56.14-22.54 2.8-4.08 25.1-14.63 25.1-14.63s29.08-10.71 46.51-15.55c37.67-10.45 80.39-18.01 102.72-14.38 68.78 7.09-9.24 35.02-20.69 51.71z" class="e"/><path d="M718.4 534.86c11.44-16.69 89.47-44.62 20.68-51.7-22.33-3.63-65.05 3.92-102.72 14.38.01-.01 70.6 54.01 82.04 37.32z" class="f i"/><path d="M1133.78 219.8c-15.25-3.25-55.9-35.46-55.9-35.46s-3.76-18.81 7.12-22.55 99.12-18.38 193.26-14.18 147.36 7.06 184.21 12.28c28.87 4.09 69.29 20.7 93.82 40.17 21.72 18.61 13.76 28.15.29 30.12s-238.55 28.94-422.8-10.38z" fill="#f7d04c"/><path d="M1133.78 219.8l-50.1-28.11s-13.56-10.62-2.68-14.35c10.88-3.74 107.23-21.39 201.37-17.2 94.14 4.2 150.37 8.77 184.21 12.28 29 3.01 69.29 20.7 93.82 40.17s-12.21 18.14-25.68 20.11c-9.09 1.33-108.88 11.18-226.61 6.5-56.66-2.24-117.48-7.85-174.33-19.4z" class="e"/><path d="M1133.78 219.8s160.78 14.36 255.21 4.28c74.81-7.98 98.16-48.6 110.21-44.22 21.57 7.84 45.46 20.25 61.2 32.74 24.53 19.47-12.21 18.14-25.68 20.11s-227.19 23.63-400.94-12.91z" class="f i"/><path d="M1410.58 239.99l-36.94-26.87c-2.43-1.62-2.9-3.45.02-3.73l80.26-5.05c3.18-.38 6.12 1.72 6.69 2.09l45.18 28.71m-339.1-10.25l-23.38-15.75c-1.96-.93-.16-1.28 2.01-1.03l69.2 4.1c.71.08 1.39.35 1.96.78l22.14 20.67" fill="none" stroke="#913636" class="j"/><path d="M915.72 603.73l62.25 37.15s237.97-144.59 271.11-156.64c0 0 .34-9.92 33.22-14.07 62.21-5.35 56.27-91.99 66.16-148.56 3.49-19.94 11.49-100.13 9.81-101.8-2.68-2.68-29.12-25.44-29.12-25.44-37.18-.25-28.83 1.83-28.83 1.83s-2.05 85.2-20.12 100.27c-18.07 15.06-81.25 14.05-122.42 9.03-48.68-5.94-192.37-11.37-213.96 2.69 0 0 86.35 4.69 96.39 100.41s-71.6 198.81-124.49 195.13z" class="f"/><path d="M1213.57 314.1c-3.07-1.15-3.66-6.72-.43-6.63 15.7.43 28.57-10.14 39.2-20.27 13.68-13.04 4.98-69.98 5.01-86.43 0-1.91 1.24-3.52 2.9-3.77l65.61-3.36c3.03-.45 3.74 2.88 2.96 6.26-5.15 22.6-17.17 90.33-22.32 101.14-5.26 11.03-11.45 13.75-18.03 16.37s-28.26 9.91-32.56 10.64c-4.29.74-7.71-.02-10.95-1.47-3.22-1.46-31.39-12.48-31.39-12.48z" class="e"/><g fill="none" stroke="#f7d04c" class="j"><path d="M1003.33 300.21c90.35-2.21 140.22 65.46 129.23 166.39-5.4 49.59-33.68 94.37-72.41 126.99m61.4-291.59c79.61-1.95 123.55 59.18 113.86 148.12-1.98 18.19-7.46 35.65-15.64 51.91"/><path d="M1133.78 445.42L1236.37 424"/></g><g fill="#eb5e4d"><circle cx="1144.41" cy="432.78" r="3.26"/><circle cx="1142.65" cy="456.13" r="3.26"/><circle cx="1229.01" cy="435.54" r="3.26"/><circle cx="1229.51" cy="416.97" r="3.26"/><path d="M1067.94 318.93c-.92.98-3.04 1.08-4.7.34-1.57-.7-2.37-1.97-1.81-2.96.61-1.08 2.62-1.5 4.56-.81 2.08.74 2.97 2.35 1.95 3.43zm31.13 23.73c-1 .95-2.9.92-4.29.11-1.32-.76-1.99-2.11-1.51-3.17.56-1.24 2.5-1.76 4.36-.9 2.02.94 2.63 2.84 1.44 3.96zm19.75 38.41c-1.05.88-2.77.67-3.95-.25-1.1-.85-1.65-2.24-1.25-3.35.5-1.38 2.33-1.99 4.13-.95 2.02 1.17 2.42 3.41 1.07 4.55zm8.29 47.53c-1.21.88-2.89.67-3.91-.25-.94-.85-1.25-2.24-.65-3.35.75-1.38 2.69-1.99 4.3-.95 1.82 1.16 1.82 3.41.26 4.55z"/><use xlink:href="#B"/><use xlink:href="#B" x="-13.72" y="46.86"/><ellipse transform="matrix(.1095 -.994 .994 .1095 611.0145 1292.8152)" cx="1027.06" cy="305.39" rx="1.86" ry="3.85"/><path d="M1203.15 322.12c-.89.95-2.94 1.05-4.56.33-1.53-.67-2.3-1.91-1.76-2.87.59-1.05 2.54-1.45 4.43-.78 2.02.71 2.88 2.27 1.89 3.32zm21.65 25.28c-.97.92-2.81.89-4.16.1-1.28-.74-1.93-2.04-1.46-3.08.54-1.21 2.42-1.71 4.23-.87 1.95.91 2.55 2.75 1.39 3.85zm15.39 31.21c-1.02.85-2.69.65-3.83-.24-1.06-.82-1.6-2.18-1.21-3.25.49-1.33 2.26-1.93 4.01-.92 1.95 1.13 2.34 3.31 1.03 4.41zm5.54 36.98c-1.17.85-2.8.65-3.79-.24-.92-.82-1.22-2.18-.63-3.25.72-1.33 2.61-1.93 4.17-.92 1.76 1.13 1.76 3.31.25 4.41z"/><use xlink:href="#C"/><use xlink:href="#C" x="-3.85" y="37.65"/></g><path d="M1041.87 310.72s-1.71-11.63-3.95-17.86c-2.37-6.61-5.7-7.88-21.86-9.63-22.19-2.4-17.25 3.53-17.25 3.53l4.94 15.3 38.12 8.66z" class="d"/><path d="M1000.79 302.33l2.96-.27-4.74-17.65s-2.96-1.88-2.96 2.22 4.74 15.7 4.74 15.7z" class="f"/><path d="M998.82 297.31l-1.98-7.63c-.53-2.59-1.54-5.11 1.05-5.23 7.09-.32 23-.36 31.73 1.78 6.52 1.6 10.67 24.14 10.67 24.14s23.04 4.1 50.64 2.14l79.12-5.54s-51.55-24.23-91.84-26.78c-40.29-2.56-75.32-1.33-78.74-1.25s-8.69 2.29-7.64 7.99 4.21 13.43 4.21 13.43l4.74 1.97-1.96-5.02zm261.09 88.72l-2.66 18.08 12.89 20.38 63.93-6.12-37.17-16.71 16.59-20.13-32.14-3.88 3.25-17.93z" class="c"/><path d="M1260.04 389.17l-2.47 16.96 11.99 19.11 59.44-5.74-34.56-15.67 15.42-18.88-29.88-3.65 3.02-16.81z" class="d"/><path d="M915.72 603.73l62.25 37.15s237.97-144.59 271.11-156.64c0 0-2.76 5.21 28.57-5.57 64.98-22.36 58.55-72 72.93-177.19 5.29-38.73 9.37-79.99 7.7-81.67-.53-.53-29.12-25.44-29.12-25.44l17.91 45.85s-14.7 104.33-22.59 117.48c-13.56 22.59-74.1 33.58-129.61 45.2-123.17 25.77-154.63 5.69-154.63 5.69 10.04 95.74-71.63 198.82-124.52 195.14z" class="f i"/><path d="M1502.13 624.82c-3.35-19.41-27.45-23.43-56.23-26.11-7.84-.73-41.5-5.42-84.7-11.61l-31.78-6.46-14.06 6.69-16-9.17-163.01-23.92s1.97-19.72-8.38-20.91l-76.7 40.28c-41.04 22.02-82.33 34.76-96.32 55.98-5.6 8.5.51 19.78 10.69 19.86 9.97.08 18.51-1.28 26.42-3.66 19.94 8.67 180.72 78.06 240.96 87.47 43.42 6.78 55.26 17.98 83.09 12.55 21.65-4.22 56.71-19.85 99.66-46.69 80.33-50.2 90.51-50.23 86.36-74.3z" class="e"/><path d="M1487.06 612.27c-1.67-10.02-12.38-10.88-41.17-13.56-7.84-.73-41.5-5.42-84.7-11.61l-31.78-6.46-14.06 6.69-16-9.17-163.01-23.92s1.97-19.72-8.38-20.91l-76.7 40.28 45.18 33.14 286.51 24.77 24.1 27.45c63.14-32.25 82.52-31.64 80.01-46.7z" class="f i"/><g class="c"><path d="M1002.76 634.88c34.65 8.73 171.92 43.04 229.59 53.53 66.27 12.05 85.68 13.39 89.03 24.1 5.68 18.18 3.35 32.13-8.53 34.31-19.77 3.62-58.41-8.2-98.57-16.23s-196.14-71.63-196.14-71.63c-11.72-3.36-25.44-8.55-25.44-20.74.01 0 1.63-5.46 10.06-3.34z"/><path d="M1200.89 683.06l48.2-10.04 10.04-16.07 32.13 6.02 84.35-16.07 26.11 8.03-16.74 40.16-13.39 24.1-26.11-6.02-52.88 14.73c0 .01-84.14-36.19-91.71-44.84z"/></g><path d="M1214.81 691.09l42.84-8.93 8.93-14.28 28.56 5.36 74.97-14.28 23.21 7.14-11.69 27.67-10.71 21.42-27.45-6.02-50.21 11.38c.01-.01-71.72-21.77-78.45-29.46z" class="d"/><path d="M1103.83 627.5c3.35-1.34-26.94 25.94-26.94 25.94s2.84 21.59-2.51 20.25-17.4-18.07-17.4-26.11c-.01-8.03 43.5-18.75 46.85-20.08z" class="c"/><path d="M1100.02 631.27c2.8-1.12-22.54 21.7-22.54 21.7s2.38 18.06-2.1 16.94-14.56-15.12-14.56-21.84 36.4-15.68 39.2-16.8z" class="d"/><path d="M1128.09 615.78s102.42 22.59 117.48 21.09 31.63-9.04 31.63-9.04l-149.11-12.05z" class="f i"/><g fill="#f6be4a"><path d="M1050.76 465.32c-22.09 98.29-125.53 180.54-229.23 180.78-102.46.23-162.35-84.54-134.32-176.17 27.76-90.73 125.57-168.57 222.84-170.75 98.38-2.22 162.11 70.96 140.71 166.14z" opacity=".63"/><path d="M1050.76 465.32c-22.09 98.29-125.53 180.54-229.23 180.78-102.46.23-162.1-83.53-134.32-176.17 27.26-90.88 125.57-168.57 222.84-170.75 98.38-2.22 162.11 70.96 140.71 166.14z" opacity=".63"/></g><path d="M946.56 471.61c-17.24 79.54-90.26 145.58-163.09 147.51S665.58 558.14 682.82 478.6s91.12-148.4 163.95-150.33 117.03 63.81 99.79 143.34z" class="c"/><path d="M944.5 475.9c-16.29 75.16-85.29 137.56-154.11 139.39-68.82 1.82-111.4-57.63-95.1-132.78 16.29-75.16 84.01-144.38 152.83-146.2 68.81-1.83 112.67 64.44 96.38 139.59z" class="d"/><path d="M911.21 361.62l37.05-5.9-.4 49.58L984 421.49l7.66 50.52-58.36 38.09s-39.71-110.33-22.09-148.48z" class="c"/><path d="M911.12 358.44l8.28 5.65 28.7-5.36-.25 49.2 33.39 15.56 7.78 50.21-73.81 47.7s-11.91-70.86-10.66-121.89c.42-17.02 2.3-31.83 6.57-41.07z" class="d"/><path d="M864.68 519.9l25.51-36.35c2.8-3.99 7.49-6.21 12.35-5.85 7.03.52 18.15 1.54 30.87 3.43 12.55 1.87 16.15 18.27 5.56 25.25h0c-3.41 2.25-8.85 35.09-8.85 35.09s-33 30.45-36.48 29.12l-22.56-29.81c-8.43-3.21-11.58-13.5-6.4-20.88z" fill="#29ace4"/><g fill="none" stroke="#48598b" stroke-width="2" class="j o p"><path d="M811.8 347.68s20.8 89.99 103.93 99.41c50.21 5.69 58.91-16.4 58.91-16.4"/><path d="M798.41 350.03s-5.19 76.65 49.7 87.36c44.33 8.65 87.69-62.25 88.36-74.97"/></g><path d="M1538.27 482.23l19.41-70.06s-6.99-32.18 6.7-40.39c40.16-24.1 72.3 12.05 72.3 12.05s20.35 36.14 17.4 39.5l-74.98 109.33c-5.7.89-23 .6-40.86-.02l-48.17-2.2 48.2-48.21z" class="c"/><path d="M1636.37 384.21c4.67-1.74 26.42 29.08 20.39 40.46s-63.49 106.09-65.6 106.44c-.01 0-10.53 2.14-22.33 1.89-7.14-.15 13.24-13.19 26.35-38.03l37.49-70.96s1.2-36.81 3.7-39.8z" class="e"/><path d="M599.43 615.78s84.35-78.32 141.58-84.35 86.44-3.74 101.75-5.02c32.13-2.68 48.2 43.51 64.93 52.21 0 0 26.11-9.04 44.18 12.05s38.16 41.17 38.16 41.17l43.68 26.61s13.94 33.84-8.53 34.64c-58.29 2.08-201.43-15.63-268.1-30.12-92.38-20.08-185.77-12.04-157.65-47.19zm564.3-77.77c-13.43-4.95 23.1-47.96 42.78-64.06s65.3-26.39 89-23.26 61.27 60.82 61.27 60.82l-100.63 26.83c-8.05 2.7-78.99 4.63-92.42-.33z" class="l"/><path d="M902.67 881.37l33.14-21.09 6.02-24.1 27.11-6.02 25.6 3.01 12.05 21.09-.5 25.44-43.18 9.2c.01 0-43.67 10.54-60.24-7.53zm173.74-168.04l-27.52 5.41s-4.4 9.4-15.34 13.64 6.89 12.24 6.89 12.24l54.05-7.28 12.7-11.46-30.78-12.55zm-350.52-49.3s-18.07 2.01-26.11-6.02c-8.03-8.03 20.08-44.18 40.16-48.2s20.08 16.07 32.13 30.12c12.06 14.06-14.04 28.12-46.18 24.1z" fill="#866694"/><path d="M719.44 657.7c29.67-10.43 33.41-41.51 18.5-40.86-8.63.37-28.79 25.39-33.14 35.14-4.34 9.75 14.64 5.72 14.64 5.72z" class="d"/><path d="M825.35 849.07c.87 21.83-48.39 49.28-77.32 45.85-27.61-3.27-39.82-37.5-31.82-63.87 6.61-21.76 24.76-36.09 43.53-41.57 8.03-2.34 21.76-3.35 34.14 0 19.59 5.3 32.81 29.47 31.47 59.59z" fill="#c93f37"/><path d="M800.43 831.54c.22 26.8-47 34.29-60.76 32.93s-25.03-19.3-17-42.01c3.17-8.96 8.3-14.26 14.73-17.23 7.03-3.24 12.71 5.67 22 6.3 8.98.61 20.98-6.95 28.03-2.85 7.66 4.45 12.91 11.6 13 22.86z" class="m"/><path d="M796.29 828.2c.85 25.43-38.89 38.97-56.62 36.27-17.72-2.7-23.39-19.27-16.07-39.83 3.77-10.59 8.53-16.43 16.53-18.2 4.84-1.07 11.21 6.6 17.61 6.82 9.94.35 20-7.38 28.12-3.01 6.79 3.65 10.12 8.74 10.43 17.95z" fill="#feed7f"/><path d="M721.74 848.35l69.47-1.29s4.02-30.79-6.02-34.81c-10.04-4.01-65.86 29.01-63.45 36.1z" class="e"/><path d="M714.9 835.35s9.42 8.37 19.46 8.37 12.4-13.05 19.52-13.05c4.05 0 5.49 11.37 10.54 14.06 8.2 4.35 27.79-1.51 32.81-4.02s14.73 20.08 3.68 31.13-45.85 31.13-66.94 20.08c-21.08-11.05-24.09-35.49-19.07-56.57z" fill="#c93f37"/><path d="M720.26 836.67s5.36 8.18 14.81 8.18 13.55-12.27 17.33-12.76 5.16 11.12 9.92 13.75c7.72 4.25 30.71-1.47 35.44-3.93 4.73-2.45 9.14 24.19 3.47 30.44-4.12 4.54-11.67 14.37-22.81 18.02-14.51 4.75-33.61 7.44-44.43 1.55-19.85-10.81-18.45-34.63-13.73-55.25z" class="m"/><g class="l"><path d="M722.43 891.91s8.53-10.04 19.08-5.52 29.12-7.53 41.67-16.07c12.55-8.53 40.42 1 34.89 10.54-5.52 9.55-73.55 50.21-95.64 11.05z"/><path d="M733.74 884.33c2.38 6.29-3.52 10.46-11.32 10.92-6.73.4-15.24-1.93-20.97-5.97-7.6-5.36-9.94-13.43-.81-16.88 12.04-4.55 29.54 2.5 33.1 11.93zm751.65-352.56s16.07-9.37 27.45-7.36 16.74 3.35 16.74 3.35 35.48-17.4 47.53-2.01c12.04 15.39-116.49 34.81-91.72 6.02zm48.2-14.73s-12.05 2.68-8.03 4.02 12.72-1.34 12.72-1.34 1.33-4.01-4.69-2.68zm42.34-107.1s-15.56 22.09-9.54 23.43 12.05-10.04 12.05-10.04 7.36 8.03 17.4-4.02 12.97-13.96 16.07-19.41c5.69-10.04-6.36-11.21-10.38-4.52s0-6.19-8.03-3.51c-8.03 2.67-14.89 9.37-17.57 18.07zM1007.6 626.32s9.04-7.53 16.57 0c7.53 7.54-42.17 13.56-16.57 0zm216.05 17.24s-44.35-14.22-72.97-.67c-12.84 6.08-7.53 16.57-7.53 16.57s-22.59 13.56-13.56 19.58c9.04 6.02 16.57 6.02 27.11-1.51s22.59-.17 42.17-9.2 74.49-20.25 24.78-24.77zm-65.93 79.66s49.2-17.07 57.23-10.04 1 14.06 1 14.06 24.1-5.02 38.16-2.01 26.11 17.07 29.12 25.1-33.14-4.02-33.14-4.02-72.29-5.01-92.37-23.09zM616.93 497.93c13.81-1.9 30.4 3.12 21.99 8.88s-28.57 11.96-28.57 11.96 12.98 11.76-4.29 19.61c-4.5 2.05 1.04 10.06-4.88 14.78-16.77 13.37-49.38 28.35-72.3 23.92-31-6-25.44-22.34-11.32-50.95 14.12-28.6 85.56-26.3 99.37-28.2z"/></g><path d="M466.59 835.73s-40.99 1.16-44.7 6.71c-5.19 7.76-3.94 20.66 11.31 25.33 15.25 4.68 37.02-6.92 37.02-6.92s23.15-28.87-3.63-25.12z" class="e"/><path d="M470.93 839.1s-40.99 1.16-44.7 6.71c-5.19 7.76-3.94 20.66 11.31 25.33 15.25 4.68 37.02-6.92 37.02-6.92s23.14-28.87-3.63-25.12z" fill="#13161f"/><path d="M533.91 764.77s-64.06-19.28-75.69-17.2c-11.62 2.08-24.31 16.06-14.54 31.21s13.59 16.35 44.21 22.14l19.16 7.14s37.84 9.53 48.2 6.53c12.64-3.67.43-48.08-21.34-49.82z" class="h"/><path d="M522.11 761.38s-50.17-16.34-58.74-14.81-11.38 9.87-6.49 22.1c4.93 12.34 14.05 9.03 36.61 13.29 4.54-.01 18.83-2.51 24.1-8.03 5.28-5.52 8.54-11.05 4.52-12.55z" class="k"/><path d="M480.83 781.49s19.29-4.71 25.72-7.06c0 0 5.17 10.73-9.2 14.39-9.75 2.49-16.52-7.33-16.52-7.33zm156.42-8.73c6.53 13.95 1.34 50.87-11.71 50.87s-72.57-7.52-79.32-8.53c-10.04-1.51-12.35-23.97-12.35-43.46s14.88-2.89 49.16-2.89c34.29-.01 45.96-13.65 54.22 4.01z" class="h"/><path d="M421.87 892.75l-14.39 9.96c-8.79 6.02-12.05 5.77-12.55 15.31-.4 7.69 14.89 15.83 32.97 8.2 18.07-7.63 32.13-18.08 32.13-18.08s-.1-12.35-3.85-14.72c-8.44-5.34-18.67-14.41-34.31-.67z" class="e"/><path d="M422.04 887.67l-14.51 9.78c-8.86 5.92-12.12 5.62-12.74 15.16-.5 7.68 13.21 14.5 31.38 7.09s32.35-17.68 32.35-17.68 1.54-10.83-2.18-13.25c-8.37-5.45-18.49-14.65-34.3-1.1z" fill="#13161f"/><path d="M419.69 893.92l-11.29-10.6 12.63-68.39 3.35-17.24s7.2-33.97 8.53-37.15c1.34-3.18 12.73-13.16 28.95-13.72 16.36-.57 20.08 33.47 14.06 61.59-4.21 19.63-9.04 52.38-9.04 52.38l-5.69 27.78-15.4 9.37-26.1-4.02z" class="h"/><path d="M425.61 882.31l-13.03-5.33-.91-10.93 10.54-57.74 3.14-16.57 7.66-31.42c2.01-4.98 14.85-13.44 28.95-13.93 6.9-.5 12.8 7.2 14.48 16.48 2.01 11.17-2.87 25.36-5.81 39.12-3.66 17.07-15.77 38.2-15.77 38.2l-3.01 18.07-9.04 10.54-17.2 13.51z" class="k"/><path d="M473.59 799.7s-12.46 18.39-17.8 21.68c0 0 7.83-.69 11.91-4.21 4.09-3.53 5.89-17.47 5.89-17.47z" class="h"/><path d="M453.35 860.94l-11.74 13.76c-.01-.01 11.51-2.15 11.74-13.76z" class="k"/><path d="M570.31 822.13c-2.41 4.83-16.74 25.6-20.75 32.97-16.79 30.79 16.25 49.3 41.42 26.1 25.16-23.19 37.49-52.57 40.43-61.07 2.93-8.5-8.8-15.92-18.42-19.08-10.13-3.34-33.98 3.67-42.68 21.08z" class="h"/><g class="k"><path d="M578.53 812.11c-3.43 3.25-14.64 21.89-18.36 28.19-.32.06 25.2-14.66 25.2-14.66s42.61-16.16 45.85-23.43l-27.44-3.39c.01.01-19.91 8.24-25.25 13.29z"/><path d="M560.17 840.3s34.74-9.13 42.77-14.16 13.05-9.04 13.05-9.04l-48.7 17.57-7.12 5.63z"/></g><path d="M482.56 838.3l20.09 4.11 51.98 2.39c7.15.22 31.64 6.64 30.8 33.41-.42 13.49-18.4 16.28-18.4 16.28l-55.87-10.03-40.94-11.14s-2.13-18.81.08-21.64 12.26-13.38 12.26-13.38z" class="h"/><path d="M559.54 875l9.96 10.38s-5.45 2.97-8.39 1.66c-2.93-1.31-8.57-5.03-9.71-9.41l5 1.29 3.14-3.92z" class="m"/><path d="M567.3 842.71l26.11-2.01c-.01 0-16.07 14.06-26.11 2.01z" class="k"/><path d="M507.45 654.53c-3.67 3.29-20.82 23.18-29.12 35.58-9.53 14.24-17.95 22.01-23.65 30.1-11.77 16.72 9.41 29.65 18.61 22.1s20.85-22.17 26.61-27.68c14.09-13.48 18.45-20.67 24.16-26.42 8.69-8.74 5.14-53.17-16.61-33.68z" class="c"/><path d="M512.57 682.05c-2.73 2.45-23.08 28.47-21.69 26.51-5.9 8.34-.77 16.79-.77 16.79l11.55-12.53c10.5-10.04 17.21-18.96 21.46-23.24 6.47-6.52 5.66-22.05-10.55-7.53z" class="g"/><path d="M618.51 653.6c-5.66-10.12-39.41-13.99-62.67-11.1-9.84 1.22-18.48 1.81-25.69 3-9.84 1.62-15.06 4.42-15.06 4.42-.27.47-1.97 3.15-1.51 6.28 2.48 16.81 10.54 38.91 10.54 38.91l14.06 49.2s-8.25 23.79-6.02 27.78c1.37 2.45 10.31 23.23 24.77 27.45 16.07 4.69 81.67-22.76 81.67-22.76s3.13-37.55 2.01-47.53c-1.51-13.33-11.56-56.82-22.1-75.65z" fill="#fdeb7e"/><path d="M587.38 776.44c-9.04 6.02-30.12 9.04-30.12 9.04s-27.33-17.38-25.1-13.39c1.37 2.45 10.31 23.23 24.77 27.45 16.07 4.69 81.67-22.76 81.67-22.76s3.13-37.55 2.01-47.53c-1.5-13.32-6.46-58.84-24.1-78.66-7.71-8.66-37.4-10.98-60.66-8.09-9.84 1.22-18.48 1.81-25.69 3-9.84 1.62-15.06 4.42-15.06 4.42s-2.55 4.22-1.51 9.29c1.76 8.53 13.22 45.48 13.22 45.48l4.03-7.9 47.52 6.35s10.44 14.48 13.6 15.79l-4.48-10.29 24.02 29.63s-4.47 9.53-9.99 19.18c-1.26 2.21-21.08 16.72-21.08 16.72l6.95 2.27z" fill="#f6be4a"/><path d="M580.29 641.75c1.31.1 2.26 1.26 2.11 2.56-.91 7.77-5.48 32.32-27.15 33.72-21.45 1.39-23.17-32.83-23.17-32.83s14.12-2.52 30.2-3.48c8.51-.51 14.82-.21 18.01.03z" class="g"/><path d="M555.25 678.04c-21.45 1.39-23.15-32.84-23.15-32.84l4.78-.77 18.37 33.61z" class="c"/><ellipse transform="matrix(.9268 -.3754 .3754 .9268 -209.1296 278.9214)" cx="611.18" cy="676.11" rx="18.53" ry="29.79" class="g"/><path d="M542.1 642.05s-1.03 2.37-.92 5.27c.41 11.66 2.88 40.64 13.74 45.6 4.04 1.85 14.48-22.13 15.67-40.46.26-4.02.92-10.81-2.77-13.32" fill="none" stroke="#913636" class="j"/><ellipse cx="555.92" cy="696.61" rx="2.34" ry="5.36" fill="#29ace4"/><path d="M599.18 600.72c-9.46 25.44-46.4 43.51-46.4 43.51-7.25-3.63-39.6-30.64-38.7-54.22 0-24.03-.58-36.82 38.49-36.82s54.98 25 46.61 47.53z" class="d"/><path d="M595.94 594.73c-8.03 21.6-38.93 8.59-38.93 8.59-6.16-3.08-27.61-12.3-29.62-25.6-1.72-11.37-4.31-24.35 28.87-24.35 30.37-.01 46.79 22.23 39.68 41.36z" class="n"/><path d="M589.39 606.08s4.02-6.69 3.01-15.06c0-.01 9.37 4.34-3.01 15.06z" class="d"/><path d="M536.1 620.58l7.1 28.34c2.43 8.62 26.4 8.24 26.44 0 .01-2.91-2.61-34.17-2.61-34.17l-30.93 5.83zm85.75 34.7c-10.7-8.79-26.01-7-26.45 11.94-.14 6.03 8.28 19.4 16.4 36.06 15.05 30.88 13.83 29.19 12.23 26.22 3.55 6.57 10.57 10.51 20.7 7.65 8.42-2.38 9.72-.39 6.58-16.6-1.57-8.11-6.26-18.52-11.46-29.96-5.21-11.44-8.62-27.62-18-35.31z" class="g"/><g class="c"><path d="M620.18 682.05c-4.35-3.68-18.41-18.07-17.4-6.69.41 4.6.96 5.75 6.77 20.26l15.49 38.52c2.56 5.79 9.17 8.4 19.69 3.01 4.16-2.13-11.83-41.37-11.83-41.37s-8.37-10.05-12.72-13.73z"/><path d="M654.49 731.92c-3.56-12.12-25.45-9.1-25.23 6.99s5.74 25.73 10.34 40.29c5.57 17.61 13.05 35.9 13.05 35.9s3.34 9.59 12.05 6.78c8.89-2.87 8.64-5.22 7.8-19.23-.84-14.02-13.88-56.68-18.01-70.73z"/></g><g class="g"><path d="M654.49 731.92c-1.89-5.75-6.23-7.36-10.75-7.45 3.52 9.59 2.89 20.84 4.39 24.1 7.3 22.34 10.54 57.32 12.22 65.69 1.33 6.64 9.61 5.77 12.2-2.49.68-2.16.13-6.22-.04-9.12-.85-14.02-13.46-56.81-18.02-70.73z"/><path d="M654.28 814.81s-12.17 16.95-13.38 21.79-5.57 16.22-5.57 16.22 0 5.81 9.08 2.5c5.46-1.99 7.38-12.18 7.38-12.18l7.02-4.84 14.82 9.06 10.03 10.82s2.12 2.21 3.64 2.36c2.51.25 4.6-1.9 4.6-1.9l-10.23-15.92 9.5 9.29 3.84 4.88s2.84 1.89 4.09 1.64 5.22-3.21 5.22-3.21l-3.65-5.31s2.89-1.6 2.92-3.32-5.11-7.3-5.11-7.3l.73-6.64s-26.94-25.52-28.77-25.44c-8.13.38-14.53 4.65-16.16 7.5z"/></g><path d="M653.9 812.09s-11.8 19.67-13.01 24.52c-1.21 4.84-5.57 16.22-5.57 16.22s-1.8 4.25 7.28.94c5.46-1.99 6.02-10.29 6.02-10.29l8.28-12.8 9.12 2.34 7.7-.33c-3.84-8.36-10.31-22.34-12.55-22.34-3.5-.02-4.88-.24-7.27 1.74zm-166.93-33.32s-32.44-34.81-34.77-38.99c-2.32-4.16-2.1-8.3-1.24-11.36s4.25-8.39 14.27-9.92c13.54-2.07 16.13 4.8 19.87 9.61s14.66 24.44 18.7 32.78c4.11 8.49 7.04 11.38 1.39 18.29-6.11 7.49-18.22-.41-18.22-.41z" class="c"/><path d="M486.97 778.77s-32.44-34.81-34.77-38.99c-2.32-4.16-2.1-8.3-1.24-11.36s17.08 6.41 20.82 11.22 14.66 24.44 18.7 32.78c4.11 8.49 20.36-.15 14.72 6.76-6.12 7.49-18.23-.41-18.23-.41z" class="g"/><path d="M490.57 801.95c-4.79 1.04-5.65 5.2-4.76 6.22 1.79 2.07 6.6 6.33 6.6 6.33s4.97 1.04 6.16-2.49c.9-4.57-5.22-10.66-8-10.06z" fill="#af5531"/><path d="M488.68 779.2l-2.28 18.58 6.44 9.96-.04 7.3 7.51-1.99 5.44.66 8.79-2.65 8.48-3.42s4.1-9.98 2.9-14.5-15.93-21.1-19.32-23.49c-3.41-2.4-14.94 3.57-17.92 9.55z" class="c"/><path d="M488.68 779.2l-2.28 18.58 6.44 9.96-.04 7.3 7.51-1.99 5.44.66 8.79-2.65 8.48-3.42s4.1-9.98 2.9-14.5-27.23 2.72-27.23 2.72-2.33-16.61-6.13-21.04c-1.01.24-3.33 3.13-3.88 4.38zm57.9-215.6s-21.25-2.77-24.91.23-10.99 50.04-6.84 62.55c4.15 12.52 42.75 11.78 53.51 4.98 2.51-1.58 8.7-10.29 11.87-21.76 3.31-12-4.46-20.91-4.78-25.68-.54-8.11-28.85-20.32-28.85-20.32z" class="g"/><path d="M573.92 613.76c-1.6 8.05-15.46 21.98-31.69 20.38s-27.4-7.75-27.1-26.18c.31-19.02 24.81-34.93 41.04-33.32 16.24 1.6 19.62 20.19 17.75 39.12z" class="c"/><path d="M552.95 584.74c-.31 3.13-1.92 4.35-3.48 4.2s-2.49-1.63-2.18-4.76 1.83-5.54 3.39-5.38 2.57 2.82 2.27 5.94zm-25.1 1.23c-.31 3.13-1.92 4.35-3.48 4.2s-2.49-1.63-2.18-4.76 1.83-5.54 3.39-5.38c1.56.15 2.58 2.81 2.27 5.94z" fill="#34273a"/><path d="M549.56 571.05s4.53 3.5 5.28 3.5" fill="none" stroke="#34273a" class="j o p"/><ellipse transform="matrix(.4021 -.9156 .9156 .4021 -205.8412 889.9194)" cx="578.45" cy="602.56" rx="13.04" ry="7.51" class="c"/><path d="M564.71 559.67s-44.53 21.84-56.62 21.66 4.76-27.78 24.34-31.91c19.57-4.12 32.28 10.25 32.28 10.25z" class="d"/><path d="M566.96 559.89s-.61 2.62-8.7 4.35c-13.97 3-39.55 5.82-45.69 5.73-9.7-.15 4.35-16.87 19.91-20.79 16.66-4.2 34.48 10.71 34.48 10.71z" class="n"/><path d="M541.94 560.81s-13.81 9.79-24.35 10.29c0 0 24.86-.75 24.35-10.29z" class="d"/><path d="M572.52 572.55s-4.41 17.39-2.93 22.92l3.87 8.45 5.16-25.05-6.1-6.32z" class="n"/><defs ><path id="B" d="M1126.44 470.1c-1.21.88-2.89.67-3.91-.25-.94-.85-1.25-2.24-.65-3.35.75-1.38 2.69-1.99 4.3-.95 1.82 1.17 1.82 3.41.26 4.55z"/><path id="C" d="M1246.31 436.51c-1.17.85-2.8.65-3.79-.24-.92-.82-1.21-2.18-.63-3.25.72-1.33 2.61-1.93 4.17-.92 1.76 1.13 1.76 3.31.25 4.41z"/></defs></svg>