<svg xmlns="http://www.w3.org/2000/svg" xmlns:xlink="http://www.w3.org/1999/xlink" xmlns:v="https://vecta.io/nano" viewBox="0 0 1065 650" width="1420" height="866.667"><style><![CDATA[.B{fill:#143ce0}.C{fill:#aaaeff}.D{fill:#f7ad7e}.E{fill:#f3fcff}.F{stroke-miterlimit:3}.G{stroke:#20079d}.H{stroke-linecap:square}.I{stroke-width:2}.J{fill:#3f3d56}]]></style><defs><clipPath id="A"><path d="M0 0h1065v650H0z"/></clipPath><path id="B" d="M309.15 345.05h473.41c4.471 0 8.1 3.629 8.1 8.1v2.33c0 4.471-3.629 8.1-8.1 8.1H309.15c-4.471 0-8.1-3.629-8.1-8.1v-2.33c0-4.471 3.629-8.1 8.1-8.1z"/><path id="C" d="M609.898 273.779l3.749-10.372-2.797-1.01 1.107-3.031 10.567 3.885-1.069 2.914-2.311-.835-11.83 32.555a3.01 3.01 0 0 1-1.57 1.703c-.729.335-1.563.366-2.315.084h0c-.757-.271-1.374-.836-1.71-1.567s-.364-1.567-.077-2.318l8.256-22.008z"/></defs><g clip-path="url(#A)"><mask id="D" x="-200%" y="-200%" width="400%" height="400%"><path d="M-2130-1300h4260v2600h-4260z" fill="#fff"/><path d="M545.34 60.368h0 0q-2.053 0-2.053-2.078h0V28.904h0q0-2.078 2.053-2.078h0 11.438 0q4.473 0 6.856 2.412h0 0q2.383 2.411 2.383 6.938h0v1.484h0q0 4.527-2.383 6.939h0 0q-2.383 2.411-6.856 2.411h0-9.385v11.28h0q0 2.078-2.053 2.078zm2.053-29.387v11.874h9.385 0q2.786 0 3.96-1.188h0 0q1.173-1.187 1.173-4.007h0v-1.484h0q0-2.795-1.173-3.995h0 0q-1.174-1.2-3.96-1.2h0-9.385zm27.911 29.387h0 0q-1.051 0-1.552-.507h0 0q-.501-.508-.501-1.571h0V28.953h0q0-1.088.501-1.583h0 0q.501-.495 1.552-.495h0 0q1.075 0 1.564.495h0 0q.489.495.489 1.583h0V58.29h0q0 1.063-.489 1.571h0 0q-.489.507-1.564.507zm27.862 0H597.3h0q-5.597 0-8.273-2.709h0 0q-2.676-2.709-2.676-8.373h0V37.907h0q0-5.714 2.664-8.422h0 0q2.664-2.709 8.236-2.659h0 5.915 0q4.594 0 7.014 1.917h0 0q2.419 1.917 2.81 6.048h0 0q.147 1.039-.391 1.583h0 0q-.537.544-1.564.544h0 0q-1.857 0-2.15-2.078h0 0q-.245-2.275-1.552-3.067h0 0q-1.308-.792-4.167-.792h0-5.915 0q-2.591-.024-4.069.594h0 0q-1.479.618-2.102 2.14h0 0q-.623 1.521-.623 4.192h0v11.379h0q0 2.647.623 4.156h0 0q.623 1.508 2.114 2.139h0 0q1.491.631 4.106.631h0 5.866 0q2.859 0 4.167-.804h0 0q1.307-.804 1.552-3.055h0 0q.293-2.078 2.15-2.078h0 0q1.027 0 1.564.545h0 0q.538.544.391 1.583h0 0q-.391 4.155-2.81 6.06h0 0q-2.42 1.905-7.014 1.905h0zm33.702 0h-7.038 0q-4.18 0-6.514-1.707h0 0q-2.334-1.707-2.92-5.269h0 0q-.098-1.088.44-1.632h0 0q.537-.545 1.564-.545h0 0q1.026 0 1.503.495h0 0q.476.495.648 1.534h0 0q.366 1.706 1.576 2.337h0 0q1.21.631 3.703.631h0 7.038 0q3.153 0 4.29-1.15h0 0q1.136-1.15 1.136-4.292h0 0q0-3.191-1.173-4.366h0 0q-1.173-1.175-4.253-1.175h0-6.061 0q-4.619 0-6.855-2.288h0 0q-2.236-2.288-2.236-6.963h0 0q0-4.65 2.211-6.901h0 0q2.212-2.251 6.831-2.251h0 5.817 0q3.886 0 6.098 1.608h0 0q2.212 1.607 2.798 4.922h0 0q.147 1.064-.391 1.62h0 0q-.537.557-1.613.557h0 0q-.977 0-1.466-.52h0 0q-.489-.519-.636-1.508h0 0q-.391-1.46-1.49-1.992h0 0q-1.1-.532-3.3-.532h0-5.817 0q-2.932 0-3.934 1.052h0 0q-1.003 1.051-1.003 3.945h0 0q0 2.919 1.027 4.007h0 0q1.026 1.089 3.959 1.089h0 6.061 0q4.815 0 7.173 2.374h0 0q2.359 2.375 2.359 7.322h0 0q0 4.923-2.346 7.26h0 0q-2.347 2.338-7.186 2.338h0zm-212.115 0h0 0q-2.053 0-2.053-2.078h0V28.904h0q0-2.078 2.053-2.078h0 11.438 0q4.472 0 6.855 2.412h0 0q2.383 2.411 2.383 6.938h0v1.484h0q0 4.527-2.383 6.939h0 0q-2.383 2.411-6.855 2.411h0-9.385v11.28h0q0 2.078-2.053 2.078zm2.053-29.387v11.874h9.385 0q2.786 0 3.959-1.188h0 0q1.173-1.187 1.173-4.007h0v-1.484h0q0-2.795-1.173-3.995h0 0q-1.173-1.2-3.959-1.2h0-9.385zm27.911 29.387h0 0q-1.051 0-1.552-.507h0 0q-.501-.508-.501-1.571h0V28.953h0q0-1.088.501-1.583h0 0q.501-.495 1.552-.495h0 0q1.075 0 1.564.495h0 0q.488.495.488 1.583h0V58.29h0q0 1.063-.488 1.571h0 0q-.489.507-1.564.507zm11.34-.446h0 0q-1.638-1.137-.489-2.918h0l8.945-13.358-9.434-13.456h0q-1.1-1.633.538-2.919h0 0q1.686-1.163 2.835.544h0l8.749 12.418L486 27.815h0q1.271-1.657 2.835-.445h0 0q1.662 1.237.489 2.869h0l-9.63 13.556 9.239 13.159h0q1.148 1.707-.538 2.968h0 0q-1.686 1.163-2.835-.544h0l-8.505-12.12-8.114 12.17h0q-1.125 1.607-2.884.494zm29.914.248h0 0q-1.955-.767-1.173-2.721h0l11.634-28.991h0q.733-1.632 2.297-1.632h0 .098 0q1.588.074 2.151 1.632h0l11.829 28.991h0q.782 1.954-1.125 2.721h0 0q-1.93.767-2.688-1.138h0l-2.64-6.481h-15.226l-2.517 6.481h0q-.758 1.929-2.64 1.138zm12.611-26.764l-5.841 14.989h11.927l-6.086-14.989zm23.658 26.962h-1.173 0q-1.955 0-1.955-1.979h0v-1.237h0q0-1.929 1.955-1.929h0 1.173 0q1.858 0 1.858 1.929h0v1.237h0q0 1.979-1.858 1.979h0z"/></mask><path d="M545.34 60.368h0 0q-2.053 0-2.053-2.078h0V28.904h0q0-2.078 2.053-2.078h0 11.438 0q4.473 0 6.856 2.412h0 0q2.383 2.411 2.383 6.938h0v1.484h0q0 4.527-2.383 6.939h0 0q-2.383 2.411-6.856 2.411h0-9.385v11.28h0q0 2.078-2.053 2.078zm2.053-29.387v11.874h9.385 0q2.786 0 3.96-1.188h0 0q1.173-1.187 1.173-4.007h0v-1.484h0q0-2.795-1.173-3.995h0 0q-1.174-1.2-3.96-1.2h0-9.385zm27.911 29.387h0 0q-1.051 0-1.552-.507h0 0q-.501-.508-.501-1.571h0V28.953h0q0-1.088.501-1.583h0 0q.501-.495 1.552-.495h0 0q1.075 0 1.564.495h0 0q.489.495.489 1.583h0V58.29h0q0 1.063-.489 1.571h0 0q-.489.507-1.564.507zm27.862 0H597.3h0q-5.597 0-8.273-2.709h0 0q-2.676-2.709-2.676-8.373h0V37.907h0q0-5.714 2.664-8.422h0 0q2.664-2.709 8.236-2.659h0 5.915 0q4.594 0 7.014 1.917h0 0q2.419 1.917 2.81 6.048h0 0q.147 1.039-.391 1.583h0 0q-.537.544-1.564.544h0 0q-1.857 0-2.15-2.078h0 0q-.245-2.275-1.552-3.067h0 0q-1.308-.792-4.167-.792h0-5.915 0q-2.591-.024-4.069.594h0 0q-1.479.618-2.102 2.14h0 0q-.623 1.521-.623 4.192h0v11.379h0q0 2.647.623 4.156h0 0q.623 1.508 2.114 2.139h0 0q1.491.631 4.106.631h0 5.866 0q2.859 0 4.167-.804h0 0q1.307-.804 1.552-3.055h0 0q.293-2.078 2.15-2.078h0 0q1.027 0 1.564.545h0 0q.538.544.391 1.583h0 0q-.391 4.155-2.81 6.06h0 0q-2.42 1.905-7.014 1.905h0zm33.702 0h-7.038 0q-4.18 0-6.514-1.707h0 0q-2.334-1.707-2.92-5.269h0 0q-.098-1.088.44-1.632h0 0q.537-.545 1.564-.545h0 0q1.026 0 1.503.495h0 0q.476.495.648 1.534h0 0q.366 1.706 1.576 2.337h0 0q1.21.631 3.703.631h0 7.038 0q3.153 0 4.29-1.15h0 0q1.136-1.15 1.136-4.292h0 0q0-3.191-1.173-4.366h0 0q-1.173-1.175-4.253-1.175h0-6.061 0q-4.619 0-6.855-2.288h0 0q-2.236-2.288-2.236-6.963h0 0q0-4.65 2.211-6.901h0 0q2.212-2.251 6.831-2.251h0 5.817 0q3.886 0 6.098 1.608h0 0q2.212 1.607 2.798 4.922h0 0q.147 1.064-.391 1.62h0 0q-.537.557-1.613.557h0 0q-.977 0-1.466-.52h0 0q-.489-.519-.636-1.508h0 0q-.391-1.46-1.49-1.992h0 0q-1.1-.532-3.3-.532h0-5.817 0q-2.932 0-3.934 1.052h0 0q-1.003 1.051-1.003 3.945h0 0q0 2.919 1.027 4.007h0 0q1.026 1.089 3.959 1.089h0 6.061 0q4.815 0 7.173 2.374h0 0q2.359 2.375 2.359 7.322h0 0q0 4.923-2.346 7.26h0 0q-2.347 2.338-7.186 2.338h0zm-212.115 0h0 0q-2.053 0-2.053-2.078h0V28.904h0q0-2.078 2.053-2.078h0 11.438 0q4.472 0 6.855 2.412h0 0q2.383 2.411 2.383 6.938h0v1.484h0q0 4.527-2.383 6.939h0 0q-2.383 2.411-6.855 2.411h0-9.385v11.28h0q0 2.078-2.053 2.078zm2.053-29.387v11.874h9.385 0q2.786 0 3.959-1.188h0 0q1.173-1.187 1.173-4.007h0v-1.484h0q0-2.795-1.173-3.995h0 0q-1.173-1.2-3.959-1.2h0-9.385zm27.911 29.387h0 0q-1.051 0-1.552-.507h0 0q-.501-.508-.501-1.571h0V28.953h0q0-1.088.501-1.583h0 0q.501-.495 1.552-.495h0 0q1.075 0 1.564.495h0 0q.488.495.488 1.583h0V58.29h0q0 1.063-.488 1.571h0 0q-.489.507-1.564.507zm11.34-.446h0 0q-1.638-1.137-.489-2.918h0l8.945-13.358-9.434-13.456h0q-1.1-1.633.538-2.919h0 0q1.686-1.163 2.835.544h0l8.749 12.418L486 27.815h0q1.271-1.657 2.835-.445h0 0q1.662 1.237.489 2.869h0l-9.63 13.556 9.239 13.159h0q1.148 1.707-.538 2.968h0 0q-1.686 1.163-2.835-.544h0l-8.505-12.12-8.114 12.17h0q-1.125 1.607-2.884.494zm29.914.248h0 0q-1.955-.767-1.173-2.721h0l11.634-28.991h0q.733-1.632 2.297-1.632h0 .098 0q1.588.074 2.151 1.632h0l11.829 28.991h0q.782 1.954-1.125 2.721h0 0q-1.93.767-2.688-1.138h0l-2.64-6.481h-15.226l-2.517 6.481h0q-.758 1.929-2.64 1.138zm12.611-26.764l-5.841 14.989h11.927l-6.086-14.989zm23.658 26.962h-1.173 0q-1.955 0-1.955-1.979h0v-1.237h0q0-1.929 1.955-1.929h0 1.173 0q1.858 0 1.858 1.929h0v1.237h0q0 1.979-1.858 1.979h0z" fill="#fff"/><g class="F I"><path d="M545.34 60.368h0 0q-2.053 0-2.053-2.078h0V28.904h0q0-2.078 2.053-2.078h0 11.438 0q4.473 0 6.856 2.412h0 0q2.383 2.411 2.383 6.938h0v1.484h0q0 4.527-2.383 6.939h0 0q-2.383 2.411-6.856 2.411h0-9.385v11.28h0q0 2.078-2.053 2.078zm2.053-29.387v11.874h9.385 0q2.786 0 3.96-1.188h0 0q1.173-1.187 1.173-4.007h0v-1.484h0q0-2.795-1.173-3.995h0 0q-1.174-1.2-3.96-1.2h0-9.385zm27.911 29.387h0 0q-1.051 0-1.552-.507h0 0q-.501-.508-.501-1.571h0V28.953h0q0-1.088.501-1.583h0 0q.501-.495 1.552-.495h0 0q1.075 0 1.564.495h0 0q.489.495.489 1.583h0V58.29h0q0 1.063-.489 1.571h0 0q-.489.507-1.564.507zm27.862 0H597.3h0q-5.597 0-8.273-2.709h0 0q-2.676-2.709-2.676-8.373h0V37.907h0q0-5.714 2.664-8.422h0 0q2.664-2.709 8.236-2.659h0 5.915 0q4.594 0 7.014 1.917h0 0q2.419 1.917 2.81 6.048h0 0q.147 1.039-.391 1.583h0 0q-.537.544-1.564.544h0 0q-1.857 0-2.15-2.078h0 0q-.245-2.275-1.552-3.067h0 0q-1.308-.792-4.167-.792h0-5.915 0q-2.591-.024-4.069.594h0 0q-1.479.618-2.102 2.14h0 0q-.623 1.521-.623 4.192h0v11.379h0q0 2.647.623 4.156h0 0q.623 1.508 2.114 2.139h0 0q1.491.631 4.106.631h0 5.866 0q2.859 0 4.167-.804h0 0q1.307-.804 1.552-3.055h0 0q.293-2.078 2.15-2.078h0 0q1.027 0 1.564.545h0 0q.538.544.391 1.583h0 0q-.391 4.155-2.81 6.06h0 0q-2.42 1.905-7.014 1.905h0zm33.702 0h-7.038 0q-4.18 0-6.514-1.707h0 0q-2.334-1.707-2.92-5.269h0 0q-.098-1.088.44-1.632h0 0q.537-.545 1.564-.545h0 0q1.026 0 1.503.495h0 0q.476.495.648 1.534h0 0q.366 1.706 1.576 2.337h0 0q1.21.631 3.703.631h0 7.038 0q3.153 0 4.29-1.15h0 0q1.136-1.15 1.136-4.292h0 0q0-3.191-1.173-4.366h0 0q-1.173-1.175-4.253-1.175h0-6.061 0q-4.619 0-6.855-2.288h0 0q-2.236-2.288-2.236-6.963h0 0q0-4.65 2.211-6.901h0 0q2.212-2.251 6.831-2.251h0 5.817 0q3.886 0 6.098 1.608h0 0q2.212 1.607 2.798 4.922h0 0q.147 1.064-.391 1.62h0 0q-.537.557-1.613.557h0 0q-.977 0-1.466-.52h0 0q-.489-.519-.636-1.508h0 0q-.391-1.46-1.49-1.992h0 0q-1.1-.532-3.3-.532h0-5.817 0q-2.932 0-3.934 1.052h0 0q-1.003 1.051-1.003 3.945h0 0q0 2.919 1.027 4.007h0 0q1.026 1.089 3.959 1.089h0 6.061 0q4.815 0 7.173 2.374h0 0q2.359 2.375 2.359 7.322h0 0q0 4.923-2.346 7.26h0 0q-2.347 2.338-7.186 2.338h0zm-212.115 0h0 0q-2.053 0-2.053-2.078h0V28.904h0q0-2.078 2.053-2.078h0 11.438 0q4.472 0 6.855 2.412h0 0q2.383 2.411 2.383 6.938h0v1.484h0q0 4.527-2.383 6.939h0 0q-2.383 2.411-6.855 2.411h0-9.385v11.28h0q0 2.078-2.053 2.078zm2.053-29.387v11.874h9.385 0q2.786 0 3.959-1.188h0 0q1.173-1.187 1.173-4.007h0v-1.484h0q0-2.795-1.173-3.995h0 0q-1.173-1.2-3.959-1.2h0-9.385zm27.911 29.387h0 0q-1.051 0-1.552-.507h0 0q-.501-.508-.501-1.571h0V28.953h0q0-1.088.501-1.583h0 0q.501-.495 1.552-.495h0 0q1.075 0 1.564.495h0 0q.488.495.488 1.583h0V58.29h0q0 1.063-.488 1.571h0 0q-.489.507-1.564.507zm11.34-.446h0 0q-1.638-1.137-.489-2.918h0l8.945-13.358-9.434-13.456h0q-1.1-1.633.538-2.919h0 0q1.686-1.163 2.835.544h0l8.749 12.418L486 27.815h0q1.271-1.657 2.835-.445h0 0q1.662 1.237.489 2.869h0l-9.63 13.556 9.239 13.159h0q1.148 1.707-.538 2.968h0 0q-1.686 1.163-2.835-.544h0l-8.505-12.12-8.114 12.17h0q-1.125 1.607-2.884.494zm29.914.248h0 0q-1.955-.767-1.173-2.721h0l11.634-28.991h0q.733-1.632 2.297-1.632h0 .098 0q1.588.074 2.151 1.632h0l11.829 28.991h0q.782 1.954-1.125 2.721h0 0q-1.93.767-2.688-1.138h0l-2.64-6.481h-15.226l-2.517 6.481h0q-.758 1.929-2.64 1.138zm12.611-26.764l-5.841 14.989h11.927l-6.086-14.989zm23.658 26.962h-1.173 0q-1.955 0-1.955-1.979h0v-1.237h0q0-1.929 1.955-1.929h0 1.173 0q1.858 0 1.858 1.929h0v1.237h0q0 1.979-1.858 1.979h0z" mask="url(#D)"  stroke="#fff"/><g class="G H"><path  stroke-opacity=".25" d="M177 136.194L313 138"/><path  stroke-opacity=".5" d="M144.751 123.097L266 124.903"/><path  stroke-opacity=".75" d="M116 110l171.143 1.806"/></g></g><g fill="none" class="F G H"><path d="M781 84l-34 28H603l-34-28m-270 0l34 28h144l34-28" /><g class="I"><path d="M799 66l25-23h167M286 69l-25-23H94" /></g></g><path d="M249 64v8h-8.2v4h8.2v8h4v-8h8v-4h-8v-8h-4zm562 36v8h-8.2v4h8.2v8h4v-8h8v-4h-8v-8h-4zm100.5 56v10h-10v5h10v10h5v-10h10v-5h-10v-10h-5zm-724-82v10h-10v5h10v10h5V89h10v-5h-10V74h-5zm699 23.5v10h-10v5h10v10h5v-10h10v-5h-10v-10h-5z"/><g fill="#20079d"><path d="M773.8 43l-53 41h-15l53-41h15z" fill-opacity=".5"/><path d="M742.8 43l-53 41h-15l53-41h15z"/><path d="M802.8 44l-53 41h-15l53-41h15z" fill-opacity=".25"/><path d="M308 43l53 41h15l-53-41h-15z" fill-opacity=".5"/><path d="M339 43l53 41h15l-53-41h-15z"/><path d="M279 44l53 41h15l-53-41h-15z" fill-opacity=".25"/></g><g fill="none" class="F G H"><path d="M18 19h342l66 55.118h219L706 19h341"  stroke-width="4"/><path d="M426 73l13 11h190l16-11"  class="I"/></g><linearGradient id="E" x1="532.5" y1="18" x2="532.5" y2="325" gradientUnits="userSpaceOnUse"><stop offset="0%" stop-opacity=".75" stop-color="#2615bd"/><stop offset="100%" stop-opacity="0" stop-color="#000"/></linearGradient><path d="M59 96.125L18 19.1 360 18l66 56.118h219L706 19.1l341-1.1-45 78.125L706 325H360L59 96.125z" fill="url(#E)"/><g opacity=".66"><ellipse  cx="541" cy="594.532" rx="307" ry="33.371" fill-opacity=".941"/></g><path d="M523.479 569.066l1.554 16.161s-6.196 9.363-14.277 9.965l-10.819-3.283 1.321-23.775" class="D"/><path d="M499.937 591.909l.525-9.537 23.678-6.371.893 9.226s-6.196 9.363-14.277 9.965l-10.819-3.283h0z" fill="#fff"/><path d="M447.977 565.628l-1.748 21.736s6.371 9.712 14.665 10.237l11.092-3.361-1.36-24.416" class="D"/><path d="M471.986 594.24l-.544-9.712-24.319-6.546-.913 9.46s6.371 9.712 14.665 10.236l11.111-3.438z" fill="#fff"/><path d="M438.498 358.488s-1.476 23.64 2.176 93.8l4.72 113.709s3.593 8.314 15.675 8.469l12.879-4.875 11.809-179.81 12.315 183.5s15.831 2.856 27.194-3.418c8.023-4.429-1.767-211.55-1.767-211.55-26.904 12.67-58.045 12.734-85.001.175h0z" class="J"/><path d="M467.693 207.795s-32.089 15.539-32.827 20.609l3.632 130.143s10.431 13.597 42.345 13.597c32.711 0 41.121-9.344 42.578-13.597s6.682-128.958 5.944-134.28-30.341-16.161-30.341-16.161l-31.331-.311z" class="E"/><path d="M469.635 207.717l-.388 166.33c11.272 3.395 23.417 2.338 33.934-2.952l-8.663-163.378-12.548 2.953-12.335-2.953z" class="B"/><path d="M480.727 342.988l22.94 93.644 33.448-3.322-12.839-116.662-28.263-101.88-15.286 128.22h0z" class="E"/><path d="M469.849 188.954l-.097 19.424c.097 6.118 1.942 17.851 12.936 17.851s12.374-14.957 12.179-17.851c.296-4.34.296-8.694 0-13.034-.738-7.148-24.396-11.344-25.018-6.39z" class="D"/><path d="M469.907 201.832s1.282 14.18 10.315 12.354a17.66 17.66 0 0 0 14.374-14.569c.711-3.173-.343-6.484-2.759-8.663l-21.93 10.878z" fill-opacity=".12"/><g class="D"><path d="M500.656 189.828c-3.477 10.256-12.84 16.607-19.424 17.21s-13.714-5.381-16.608-12.859-3.244-36.11-3.244-36.11c-.096-1.906.277-3.807 1.088-5.536.913-2.078 2.583-8.352 4.836-10.159 10.426-2.719 21.402-2.483 31.701.68 2.175 1.943 3.263 7.964 3.768 9.071a9.51 9.51 0 0 1 .427 2.098c.913 6.896.525 26.631-2.544 35.605h0z"/><path d="M461.089 165.703c-1.411-.908-3.279-.606-4.332.699-.409.837-.571 1.774-.466 2.7.003.93.074 1.858.214 2.778.568 2.451 1.805 4.697 3.574 6.487.411.484.904.892 1.456 1.205a2.29 2.29 0 0 0 1.846.174c.95-.538 1.553-1.531 1.593-2.622a13.84 13.84 0 0 0-.603-6.837 9.03 9.03 0 0 0-3.282-4.584h0zm43.432-.369c1.411-.908 3.279-.607 4.332.699.409.837.571 1.774.466 2.7 0 .931-.078 1.86-.233 2.778a13.48 13.48 0 0 1-3.555 6.487 5.84 5.84 0 0 1-1.456 1.205c-.59.344-1.302.408-1.943.174-.95-.538-1.553-1.531-1.593-2.622-.376-2.293-.169-4.645.602-6.837a9.03 9.03 0 0 1 3.38-4.584h0z"/></g><g class="E"><path d="M480.727 342.988l-12.665 93.644-47.551-3.322 18.24-116.662 28.942-108.833 13.034 135.173h0zM435.526 227.2s-23.911 58.273-26.65 68.354c0 0 5.828 40.616 9.052 35.391 10.217-16.103 20.162-41.257 20.162-41.257l-2.564-62.488zm91.78-6.488s23.911 58.273 26.65 68.335c0 0-5.827 40.635-9.052 35.41-10.217-16.103-20.162-41.257-20.162-41.257l2.564-62.488z"/></g><path d="M503.55 166.519c0-.467-.175-.933-.272-1.399-.598-2.443-1.411-4.828-2.428-7.129l-4.739-11.654-.739-1.943v-.116c.036.053.036.122 0 .175-.261.264-.58.463-.932.582-2.142.815-4.343 1.464-6.585 1.943a21.37 21.37 0 0 1-8.721-.622c-2.428-.699-4.915-2.777-7.498-2.661h-.369a5.83 5.83 0 0 0-5.458 4.817c-.518 6.337-1.883 12.576-4.06 18.55-2.778-1.942-3.069-5.613-3.088-8.838v-10.042a13.16 13.16 0 0 1 .544-4.778c.543-1.613 1.879-2.831 3.535-3.225 1.34-.233 2.875.214 4.021-.505a4.27 4.27 0 0 0 1.398-3.108c.224-2.354 1.099-4.601 2.525-6.487 3.186-3.73 9.246-3.885 14.044-2.409s8.916 4.526 13.597 6.332c3.166 1.244 6.837 2.079 8.877 4.701.917 1.416 1.495 3.025 1.69 4.701a30.38 30.38 0 0 1-5.342 23.115h0z" class="J"/><linearGradient id="F" x1="495.372" y1="153.982" x2="506.075" y2="153.982" gradientUnits="userSpaceOnUse"><stop offset="100%" stop-color="#000"/></linearGradient><path d="M504.58 163.275c-.297.679-.742 1.282-1.302 1.767-.598-2.443-1.411-4.828-2.428-7.128l-5.478-13.597c1.063-.643 2.235-1.085 3.458-1.302a5.69 5.69 0 0 1 4.642 1.205 6.95 6.95 0 0 1 1.846 3.477 27.85 27.85 0 0 1 .66 6.487 18.14 18.14 0 0 1-1.398 9.091h0z" fill="url(#F)"/><linearGradient id="G" x1="471.248" y1="140.179" x2="501.919" y2="140.179" gradientUnits="userSpaceOnUse"><stop offset="100%" stop-color="#000"/></linearGradient><path d="M501.918 142.394c-2.158.936-4.132 2.252-5.827 3.885l-.738-1.943v-.116c.036.052.036.122 0 .174-.261.264-.58.464-.932.583-2.142.815-4.344 1.464-6.585 1.943-2.919.396-5.888.184-8.722-.622-2.428-.699-4.914-2.778-7.497-2.661h-.369l.427-1.263c1.243-4.04 2.059-7.517 6.682-8.779 2.715-.654 5.571-.388 8.119.757a33.24 33.24 0 0 0 7.401 3.108c1.595.053 3.182.255 4.739.602 1.829.707 3.105 2.381 3.302 4.332h0z" fill="url(#G)"/><path d="M432.127 373.056h25.99v4.604h-25.99v-4.604zm73.715-3.243h23.892v4.331h-23.892v-4.331z" class="E"/><path d="M547.313 599.854c1.36.816 2.894 1.942 2.797 3.729-.073.751-.371 1.461-.855 2.04-3.01 4.137-19.618 2.855-24.377 2.816-10.781-.116-10.334.544-20.978-1.476a4.86 4.86 0 0 1-2.389-.913 6.07 6.07 0 0 1-1.554-4.04c-.373-3.544-.288-7.122.252-10.645.01-.361.164-.704.427-.951.281-.146.614-.146.894 0 1.686.723 3.435 1.288 5.225 1.69a13.05 13.05 0 0 0 8.411-1.943c1.304-.76 2.544-1.624 3.71-2.583.816-.641 2.37-2.681 3.36-2.759s2.817 1.516 3.73 2.079l4.448 2.68 16.899 10.276zm-87.234-7.945a29.97 29.97 0 0 1-10.703-6.177c-.577-.586-1.325-.973-2.137-1.107-.404.02-.803.098-1.185.233-7.461 2.411-14.558 5.828-21.094 10.159-1.729 1.146-3.652 2.797-3.497 5.07.156 2.622 2.875 3.885 5.148 4.429a105.25 105.25 0 0 0 40.227 2.253 6.12 6.12 0 0 0 3.302-1.166 7.17 7.17 0 0 0 1.943-4.273c.563-3.496.796-8.352-.68-11.557a13.6 13.6 0 0 1-11.324 2.136h0z" class="J"/><g class="B"><use xlink:href="#B"/><path d="M309.15 430.61h473.41c4.471 0 8.1 3.629 8.1 8.1v2.33c0 4.471-3.629 8.1-8.1 8.1H309.15c-4.471 0-8.1-3.629-8.1-8.1v-2.33c0-4.471 3.629-8.1 8.1-8.1z"/><path d="M653.913 442.071h22.047v163.202h-22.047V442.071zm-350.802 0h25.815v163.202h-25.815V442.071zm464.919 0h20.901v163.202H768.03V442.071z"/></g><path d="M410.877 301.595l69.267-23.601 3.069 31.312-65.285 21.639s-2.875 10.256-7.051-29.35h0z" class="E"/><path d="M500.423 283.278v-14.102h-3.885v-4.118h14.413v3.885h-3.166v44.365c0 2.145-1.74 3.884-3.885 3.884h0c-2.146 0-3.885-1.739-3.885-3.884l.408-30.03z" class="C"/><path d="M489.468 276.266a10.04 10.04 0 0 1 3.884-1.185 9.13 9.13 0 0 1 3.283.718 60.86 60.86 0 0 1 9.984 4.546c.924.439 1.72 1.108 2.312 1.942.617.806.601 1.931-.039 2.719-.661.564-1.69.525-2.292 1.146a2.97 2.97 0 0 0-.544 2.273l.349 8.741a7.59 7.59 0 0 1-.971 5.05c-1.515 1.943-4.409 1.943-6.837 1.574a51.4 51.4 0 0 1-15.345-4.837c-1.542-.551-2.625-1.944-2.778-3.574-.757-3.03-3.088-10.023-1.651-12.995s7.945-4.856 10.645-6.118h0z" class="D"/><path d="M553.956 289.047l30.205-12.801c4.303-1.801 9.261.12 11.227 4.351l3.885 8.624c2.545 5.521.171 12.062-5.323 14.666-16.335 7.769-47.356 22.085-49.123 20.57-2.351-2.059 9.129-35.41 9.129-35.41h0z" class="E"/><path d="M599.253 270.322c.949-1.408 2.132-2.643 3.497-3.652 1.379-.747 2.902-1.19 4.467-1.301a52.87 52.87 0 0 1 9.285-.35c.977-.012 1.947.166 2.855.524a8.59 8.59 0 0 1 2.273 1.671l5.827 5.458a6.76 6.76 0 0 1 2.195 3.03c.232 1.966-.672 3.893-2.331 4.973a38.73 38.73 0 0 0-4.623 3.457c-1.029 1.088-1.69 2.467-2.68 3.594-2.72 2.896-7.098 3.488-10.489 1.418-1.302-.855-2.487-2.137-4.041-2.195-1.215.101-2.381.523-3.379 1.224a10.86 10.86 0 0 1-9.712.738c-3.147-1.535-5.226-6.216-3.128-9.324a24.62 24.62 0 0 1 4.72-3.885c1.929-1.615 3.692-3.417 5.264-5.38h0z" class="D"/><use xlink:href="#C" class="E"/><linearGradient id="H" x1="0" y1=".5" x2=".647" y2="1.262" gradientTransform="matrix(21.078,0,0,40.497,601.445,259.366)" gradientUnits="userSpaceOnUse"><stop offset="100%" stop-color="#000"/></linearGradient><use xlink:href="#C" fill="url(#H)"/><path d="M611.316 264.766c-.641.253-1.341.777-1.166 1.438a1.58 1.58 0 0 0 .641.738c1.068.782 2.184 1.495 3.341 2.137-2.022-.624-4.223-.026-5.652 1.534a2.33 2.33 0 0 0-.486 1.204c.016.619.3 1.2.777 1.593a7.02 7.02 0 0 0 1.574.894l2.933 1.34a7.04 7.04 0 0 1-2.39.155 1.94 1.94 0 0 0-1.942 1.108 1.59 1.59 0 0 0 .33 1.417 4.31 4.31 0 0 0 1.166.972l1.942 1.282c.409.309.86.558 1.34.738a4.04 4.04 0 0 0 2.351 0 6.68 6.68 0 0 0 2.874-1.651 11.65 11.65 0 0 0 2.39-3.885 6.94 6.94 0 0 0 .815-4.526c-.538-1.18-1.189-2.305-1.942-3.36-.563-1.166-.33-1.807-1.573-2.545a8.49 8.49 0 0 0-7.323-.583h0z" class="D"/><path d="M651.271 323.855a22.36 22.36 0 0 1-44.351 4.016c-2.077-11.378 4.867-22.462 16.011-25.558 1.228-.333 2.079-1.447 2.079-2.719v-12.645h-2.04v-2.933h12.684v2.933h-1.709v12.431a3.69 3.69 0 0 0 2.486 3.438 22.36 22.36 0 0 1 14.84 21.037z" class="C"/><path d="M619.396 316.746c9.479-.233 19.133 2.797 28.321.466 2.139 6.662.669 13.956-3.885 19.269a18.88 18.88 0 0 1-18.725 5.594c-2.158-.633-4.208-1.589-6.08-2.836-3.192-1.847-5.654-4.734-6.973-8.178-4.215-8.352-.214-14.121 7.342-14.315h0z" class="B"/><path d="M723.607 323.855a22.36 22.36 0 0 1-44.36 4.012 22.36 22.36 0 0 1 16.117-25.534c1.228-.333 2.079-1.448 2.079-2.72v-12.664H695.5v-2.933h12.684v2.933h-1.69v12.431a3.67 3.67 0 0 0 2.467 3.438 22.34 22.34 0 0 1 14.646 21.037z" class="C"/><path d="M691.732 316.746c9.479-.233 19.133 2.797 28.321.466a20.11 20.11 0 0 1-3.885 19.269 18.88 18.88 0 0 1-18.725 5.594c-2.159-.633-4.208-1.589-6.08-2.836-3.192-1.847-5.654-4.734-6.973-8.178-4.196-8.352-.233-14.121 7.342-14.315h0z" class="B"/><linearGradient id="I" x1="336.615" y1="403.347" x2="337.415" y2="465.549" gradientUnits="userSpaceOnUse"><stop offset="100%" stop-color="#000"/></linearGradient><path d="M381.333 412.08a22.36 22.36 0 0 1-44.348 4.048 22.36 22.36 0 0 1 15.988-25.57c1.235-.326 2.096-1.442 2.098-2.72v-12.664h-1.942v-2.933h12.664v2.933h-1.689v12.412a3.69 3.69 0 0 0 2.486 3.457 22.36 22.36 0 0 1 14.743 21.037z" fill="url(#I)"/><path d="M349.458 404.97c9.479-.252 19.113 2.798 28.32.467a20.16 20.16 0 0 1-3.885 19.268 18.94 18.94 0 0 1-18.725 5.595c-2.162-.631-4.213-1.595-6.079-2.856-3.197-1.833-5.66-4.715-6.974-8.158-4.157-8.372-.272-14.121 7.343-14.316z" class="B"/><path d="M688.333 411.264a22.36 22.36 0 0 1-44.349 4.022 22.36 22.36 0 0 1 15.989-25.564c1.232-.327 2.086-1.445 2.079-2.719v-12.645h-2.04v-2.933h12.684v2.933h-1.69v12.431a3.71 3.71 0 0 0 2.487 3.458 22.32 22.32 0 0 1 14.84 21.017z" class="C"/><path d="M656.516 404.077c9.479-.233 19.133 2.797 28.34.466 2.147 6.661.676 13.96-3.885 19.269-4.703 5.209-11.915 7.366-18.706 5.594-2.161-.625-4.212-1.581-6.079-2.836-3.193-1.847-5.654-4.733-6.974-8.177-4.351-8.353-.349-14.122 7.304-14.316h0z" class="B"/><linearGradient id="J" x1="607.348" y1="231.741" x2="609.721" y2="338.803" gradientUnits="userSpaceOnUse"><stop offset="100%" stop-opacity="0" stop-color="#fff"/><stop offset="100%" stop-opacity=".015" stop-color="#fff"/><stop offset="100%" stop-opacity=".399" stop-color="#fff"/></linearGradient><path d="M620.853 269.001a38.06 38.06 0 0 0 .117-7.576 23.32 23.32 0 0 0-2.856-7.128c-3.885-7.187-7.769-14.471-9.712-22.416s-1.379-16.821 3.186-23.6c3.671-5.478 9.537-9.033 14.218-13.714 4.578-4.581 7.971-10.208 9.887-16.394l19.599 10.412c3.845 1.776 7.365 4.186 10.412 7.128 5.827 6.41 6.604 16.317 4.001 24.63s-8.003 15.423-13.286 22.357l-14.199 18.57a8.75 8.75 0 0 0-1.943 3.885 13.6 13.6 0 0 0 1.049 5.128c1.107 4.541-.541 9.309-4.215 12.198-11.227 8.508-16.646-4.001-16.258-13.48z" fill="url(#J)"/><path d="M608.81 290.562c-.807 1.339-1.459 2.766-1.942 4.254-.232 1.042-.697 2.018-1.36 2.855-.451.608-1.285.783-1.943.408-.221-.193-.389-.441-.485-.719-.213-.546-.331-1.124-.35-1.709a9.72 9.72 0 0 1 1.205-4.021c.466-.991.621-1.942 1.787-1.942.563.077 2.447 1.845 3.088.874zm-101.997 17.015c-.097 1.06-.097 2.126 0 3.186.048.74-.065 1.482-.33 2.175-.375.915-1.185 1.58-2.156 1.768-.987.145-1.963-.324-2.467-1.185a4.38 4.38 0 0 1-.388-1.67c0-1.049-.816-3.458.388-3.885.447-.253 4.915-.117 4.953-.389h0zm-189.891 50.698h18.531v75.871h-18.531v-75.871zm439.318 0h18.531v75.871H756.24v-75.871z" class="B"/><g fill="#1c1357"><use xlink:href="#B"/><path d="M309.15 430.61h473.41c4.471 0 8.1 3.629 8.1 8.1v2.33c0 4.471-3.629 8.1-8.1 8.1H309.15c-4.471 0-8.1-3.629-8.1-8.1v-2.33c0-4.471 3.629-8.1 8.1-8.1z"/><path d="M653.913 448.694h22.047v156.579h-22.047V448.694zm-350.802 0h25.815v156.579h-25.815V448.694zm464.919 0h20.901v36.355 120.224H768.03V448.694zM316.922 363.48h18.531v67.422h-18.531V363.48zm439.318.02h18.531v67.402H756.24V363.5z"/></g><path d="M617.667 392.675v-14.121h-3.884v-4.196h14.393v3.982h-3.147v44.365c0 2.145-1.739 3.885-3.885 3.885h0c-2.145 0-3.884-1.74-3.884-3.885l.407-30.03z" class="C"/><path d="M624.155 416.975a15.84 15.84 0 0 0 0 3.185 5.06 5.06 0 0 1-.311 2.156c-.381.918-1.199 1.582-2.175 1.768-.984.154-1.961-.308-2.467-1.166-.239-.524-.365-1.093-.369-1.67-.097-1.049-.835-3.458.369-3.885.408-.272 4.895-.136 4.953-.388z" class="B"/><path d="M598.787 392.675v-14.121h-3.885v-4.196h14.413v3.982h-3.108v44.365c0 2.145-1.739 3.885-3.885 3.885h0c-2.145 0-3.885-1.74-3.885-3.885l.35-30.03z" class="C"/><path d="M605.178 416.975c-.097 1.059-.097 2.126 0 3.185a5.07 5.07 0 0 1-.331 2.156 2.93 2.93 0 0 1-2.156 1.768c-.998.183-2.002-.284-2.505-1.166-.237-.526-.368-1.093-.389-1.67-.097-1.049-.816-3.458.369-3.885.505-.272 4.973-.136 5.012-.388h0z" class="B"/><path d="M579.829 392.675v-14.121h-3.885v-4.196h14.53v3.982h-3.147v44.365c0 2.145-1.74 3.885-3.885 3.885h0c-2.146 0-3.885-1.74-3.885-3.885l.272-30.03z" class="C"/><path d="M586.22 416.975c-.097 1.059-.097 2.126 0 3.185a5.09 5.09 0 0 1-.311 2.156c-.382.918-1.199 1.582-2.176 1.768a2.43 2.43 0 0 1-2.467-1.166 4.11 4.11 0 0 1-.369-1.67c-.097-1.049-.835-3.458.369-3.885.428-.272 4.915-.136 4.954-.388z" class="B"/><path d="M560.852 392.675v-14.121h-3.885v-4.196h14.413v3.982h-3.167v44.365c0 2.145-1.739 3.885-3.884 3.885h0c-2.146 0-3.885-1.74-3.885-3.885l.408-30.03z" class="C"/><g class="B"><path d="M567.164 416.975c-.097 1.059-.097 2.126 0 3.185.048.734-.065 1.47-.33 2.156-.375.915-1.185 1.58-2.156 1.768a2.41 2.41 0 0 1-2.467-1.166c-.236-.526-.368-1.093-.388-1.67-.097-1.049-.816-3.458.388-3.885.525-.272 4.953-.136 4.953-.388zm-18.666-19.444h87.778v3.535h-87.778v-3.535z"/><path d="M546.07 397.531h4.195v34.633h-4.195v-34.633zm86.01 0h4.196v34.633h-4.196v-34.633z"/></g><path d="M388.675 311.695v-12.373h-3.341v-3.593h12.626v3.477h-2.778v38.848a3.38 3.38 0 0 1-.99 2.39c-.633.634-1.493.99-2.39.99h0a3.38 3.38 0 0 1-3.341-3.399l.214-26.34z" class="C"/><path d="M394.289 332.984a14.85 14.85 0 0 0 0 2.797c.035.661-.064 1.322-.292 1.943a2.56 2.56 0 0 1-1.942 1.534c-.869.143-1.735-.267-2.176-1.029a3.72 3.72 0 0 1-.33-1.457c0-.913-.718-3.03.33-3.458.525-.213 4.41-.097 4.41-.33h0z" class="B"/><path d="M372.067 311.695v-12.373h-3.341v-3.593h12.607v3.477h-2.758v38.848c0 .896-.357 1.756-.99 2.39a3.38 3.38 0 0 1-2.39.99h0c-.903 0-1.769-.362-2.404-1.004a3.38 3.38 0 0 1-.976-2.415l.252-26.32z" class="C"/><path d="M377.681 332.984a13.48 13.48 0 0 0 0 2.797c.052.66-.041 1.323-.272 1.943a2.6 2.6 0 0 1-1.942 1.534c-.863.14-1.722-.27-2.156-1.029a3.4 3.4 0 0 1-.331-1.457c0-.913-.738-3.03.311-3.458.428-.213 4.332-.097 4.39-.33z" class="B"/><path d="M355.44 311.695v-12.373h-3.341v-3.593h12.626v3.477h-2.778v38.848a3.38 3.38 0 0 1-.99 2.39c-.633.634-1.493.99-2.389.99h0a3.38 3.38 0 0 1-2.404-1.004c-.635-.642-.987-1.512-.976-2.415l.252-26.32z" class="C"/><path d="M361.054 332.984a14.85 14.85 0 0 0 0 2.797c.035.661-.064 1.322-.291 1.943-.342.811-1.075 1.39-1.943 1.534s-1.735-.267-2.175-1.029a3.72 3.72 0 0 1-.331-1.457c0-.913-.718-3.03.331-3.458.446-.213 4.37-.097 4.409-.33h0z" class="B"/><path d="M338.833 311.695v-12.373h-3.341v-3.593h12.606v3.477h-2.758v38.848a3.38 3.38 0 0 1-3.38 3.38h0c-.903 0-1.769-.362-2.404-1.004a3.38 3.38 0 0 1-.976-2.415l.253-26.32z" class="C"/><g class="B"><path d="M344.446 332.984a13.48 13.48 0 0 0 0 2.797c.052.66-.041 1.323-.272 1.943a2.6 2.6 0 0 1-1.942 1.534c-.863.14-1.722-.27-2.156-1.029a3.7 3.7 0 0 1-.33-1.457c0-.913-.739-3.03.31-3.458.428-.213 4.351-.097 4.39-.33zm-16.433-17.035h76.901v3.089h-76.901v-3.089z"/><path d="M325.877 315.949h3.671v30.341h-3.671v-30.341zm75.366 0h3.671v30.341h-3.671v-30.341z"/></g><path d="M450.988 399.279V387.78h-3.127v-3.341h11.654v3.224h-2.486v36.13c-.011 1.73-1.416 3.127-3.147 3.127h0c-.838 0-1.641-.334-2.232-.929s-.92-1.399-.914-2.237l.252-24.475z" class="C"/><path d="M456.194 419.034c-.088.865-.088 1.737 0 2.602.026.602-.067 1.202-.272 1.768-.308.744-.975 1.279-1.768 1.418a1.94 1.94 0 0 1-1.942-.952 3.56 3.56 0 0 1-.311-1.359c0-.855-.66-2.817.311-3.205.349-.136 3.943-.039 3.982-.272h0z" class="B"/><path d="M435.546 399.279V387.78h-3.108v-3.341h11.655v3.224h-2.564v36.13a3.13 3.13 0 0 1-3.147 3.127h0c-.836 0-1.638-.335-2.225-.93s-.913-1.4-.903-2.236l.292-24.475z" class="C"/><path d="M440.752 419.034c-.088.865-.088 1.737 0 2.602.025.602-.067 1.202-.272 1.768a2.37 2.37 0 0 1-1.749 1.418 1.94 1.94 0 0 1-1.942-.952 3.56 3.56 0 0 1-.311-1.359c0-.855-.66-2.817.311-3.205.233-.136 3.924-.039 3.963-.272z" class="B"/><path d="M420.104 399.279V387.78h-3.108v-3.341h11.654v3.224h-2.505v36.13a3.13 3.13 0 0 1-3.147 3.127h0c-.836 0-1.638-.335-2.225-.93s-.913-1.4-.903-2.236l.234-24.475z" class="C"/><path d="M425.368 419.034c-.078.865-.078 1.737 0 2.602.025.602-.067 1.202-.272 1.768a2.33 2.33 0 0 1-1.749 1.418 1.94 1.94 0 0 1-1.942-.952c-.185-.431-.29-.891-.311-1.359 0-.855-.66-2.817.311-3.205.233-.136 3.963-.039 3.963-.272z" class="B"/><path d="M404.661 399.279V387.78h-3.108v-3.341h11.655v3.224h-2.583v36.13a3.13 3.13 0 0 1-3.128 3.127h0c-.838 0-1.641-.334-2.232-.929s-.92-1.399-.914-2.237l.31-24.475z" class="C"/><g class="B"><path d="M409.828 419.034c-.078.865-.078 1.737 0 2.602.042.601-.044 1.203-.252 1.768a2.39 2.39 0 0 1-1.768 1.418 1.94 1.94 0 0 1-1.942-.952 3.55 3.55 0 0 1-.292-1.359c0-.855-.68-2.817.292-3.205.33-.136 3.962-.039 3.962-.272zM394.6 403.242h71.442v2.875H394.6v-2.875z"/><path d="M392.638 403.242h3.418v28.184h-3.418v-28.184zm70.005 0h3.418v28.184h-3.418v-28.184z"/></g></g></svg>