<svg xmlns="http://www.w3.org/2000/svg" viewBox="0 0 888.48 696.572" width="1184.64" height="928.763" xmlns:v="https://vecta.io/nano"><defs><clipPath id="A"><path d="M0 0h888.48v696.572H0z"/></clipPath></defs><g clip-path="url(#A)"><path d="M381.03 281.434c13.527-13.196 18.25-34.945 10.55-48.576s-24.907-13.984-38.433-.788-32.537 48.883-24.837 62.515 39.194.046 52.72-13.151zm-46.68 7.156c-2.881-1.385-3.665-5.736-1.752-9.718s5.801-6.088 8.682-4.704 3.665 5.735 1.752 9.718-5.801 6.088-8.682 4.704h0z" fill="#3f3d56"/><path d="M364.315 271.393q-1.954-1.785-3.907-3.57c-1.788-1.432-3.253-3.226-4.297-5.265-1.129-2.845-1.413-5.955-.819-8.958a21.5 21.5 0 0 1 5.822-11.543l-.209 3.032c1.565-1.829 3.405-3.403 5.456-4.664 1.929-.996 4.051-.926 4.889.846.96 2.028.046 5.665 1.347 7.293 2.25 2.814 8.115-3.264 10.588-.764 1.442 1.457.759 4.913.004 7.822a43.58 43.58 0 0 1-3.662 10.361c-3.011 5.422-8.51 9.005-12.23 7.543a10.15 10.15 0 0 1-2.982-2.133h0z" fill="#6c63ff"/><path d="M352.78 272.121c-.685-2.322.722-5.344 2.057-7.888l.674-.699c1.388-.698 2.893-1.132 4.44-1.279a3.18 3.18 0 0 1 3.276 2.237c.395 1.363.077 3.311 1.021 4.108 1.827 1.541 5.491-3.231 7.234-1.568.978.933.271 3.339-.987 4.521-1.19.99-2.658 1.587-4.201 1.707q-3.355.558-6.71 1.115a11.4 11.4 0 0 1-3.991.201 3.52 3.52 0 0 1-2.813-2.455z" fill="#2f2e41"/><path d="M345.402 273.85c.472-3.435 3.099-8.964 5.442-13.689l.914-1.439a23.4 23.4 0 0 1 4.48-4.115c1.275-.697 2.16-.183 1.839 2.099-.283 2.021-1.461 5.313-1.001 6.164.889 1.646 6.303-7.753 7.062-5.871.427 1.056-1.303 5.268-2.951 7.758a17.55 17.55 0 0 1-4.469 4.695q-3.197 2.449-6.395 4.898c-1.044.949-2.263 1.685-3.59 2.166-.985.177-1.618-.581-1.331-2.666z" fill="#ff6584"/><g fill="#e6e6e6"><path d="M640.214 469.608v-5.489a27.16 27.16 0 0 0 0-4.873V10.5c0-5.799-4.701-10.5-10.5-10.5s-10.5 4.701-10.5 10.5v448.746a27.16 27.16 0 0 0 0 4.873v5.489L512.918 687.092A27 27 0 0 0 532.01 695c7.161 0 14.028-2.845 19.092-7.908l68.112-172.815V684.5c0 5.799 4.701 10.5 10.5 10.5s10.5-4.701 10.5-10.5V514.277l68.113 172.815A27 27 0 0 0 727.419 695c7.161 0 14.028-2.845 19.092-7.908L640.214 469.608zm-524.091 161.33c-11.435-11.297-21.176-24.189-28.918-38.276a169.93 169.93 0 0 1-16.936-44.658c-3.564-15.841-4.744-32.126-3.502-48.315 2.575-32.972 14.759-64.466 35.044-90.588q1.858-2.383 3.805-4.694c1.447-1.723 3.906.758 2.469 2.469-20.7 24.821-33.668 55.166-37.301 87.281a164.36 164.36 0 0 0 47.808 134.313c1.603 1.58-.867 4.048-2.469 2.469v-.001z"/><path d="M100.404 412.066a42.57 42.57 0 0 0 4.146-1.809l.203.317-4.349 1.492zm26.957-30.8c-.572 3.2-1.603 6.3-3.063 9.204-4.031 8.094-10.451 14.755-18.392 19.081-.44.234-.894.483-1.349.703l-1.626-2.55c-3.562-5.701-6.727-11.695-8.178-18.231-1.7-7.635-.777-16.208 4.118-22.32 4.88-6.111 14.201-8.851 20.957-4.894a14.74 14.74 0 0 1 4.836 4.675l-2.022 2.491c-.059.077-.123.15-.191.22l-1.773 2.183-7.328 9.013c3.45.635 6.96.876 10.464.719l.85-.044c.894-.059 1.803-.132 2.697-.25zm-49.432 60.101l-.938 12.223-.249 3.312-.806-.396a71.52 71.52 0 0 1-37.327-45.709c-.873-3.413-1.485-6.886-1.832-10.391l14.26-2.213c-3.845-5.001-8.66-9.173-14.157-12.266 1.253-12.231 5.673-23.925 12.823-33.927 1.231 20.488 22.686 33.516 30.541 52.466a42.62 42.62 0 0 1-2.315 36.901h0zm-4.074 107.349l-3.415.074a71.62 71.62 0 0 1-51.938-22.789 69.57 69.57 0 0 1-12.794-20.034l.293-.044 14.26-2.213c-5.043-6.571-11.746-11.68-19.418-14.801-1.038-6.623-1.117-13.36-.235-20.005 10.728 17.484 35.803 18.891 51.645 31.905 7.555 6.297 12.706 15.009 14.582 24.664a40.1 40.1 0 0 1 .747 7.24 33.22 33.22 0 0 1 0 1.729l.352.792 5.921 13.482zm47.131 20.239l-9.101 11.197c3.73.685 7.529.912 11.314.674a71.63 71.63 0 0 1-18.715 31.758 56.85 56.85 0 0 1-2.579 2.388l-.542.484-.792-2.242-.014-.015-4.485-12.413c-5.69-5.72-9.63-12.944-11.358-20.825v-.029a40.91 40.91 0 0 1-.718-14.069c2.506-20.356 19.711-38.66 15.432-58.723a71.03 71.03 0 0 1 21.25 28.826l-7.328 9.013c3.45.635 6.96.876 10.464.718 1.228 4.961 1.896 10.044 1.993 15.154.015.733.015 1.451 0 2.183l-4.631 5.701a2.5 2.5 0 0 1-.19.22h0zm595.32 101.121c-1.832-15.97-1.343-32.121 1.451-47.951 2.767-15.759 7.746-31.048 14.788-45.415 7.15-14.577 16.435-28.007 27.549-39.845a169.17 169.17 0 0 1 84.077-48.633q2.942-.692 5.908-1.273c2.207-.436 2.568 3.038.376 3.471a165.28 165.28 0 0 0-83.764 44.641 164.36 164.36 0 0 0-46.913 134.628c.258 2.236-3.213 2.612-3.472.377h0z"/><path d="M841.217 489.661c1.433.474 2.89.87 4.365 1.189l-.04.374-4.325-1.563z"/><path d="M881.525 482.552c-2.45 2.135-5.197 3.905-8.154 5.253a44.13 44.13 0 0 1-26.29 3.344l-1.492-.297.331-3.007c.797-6.674 2.086-13.329 5.052-19.332 3.46-7.015 9.552-13.117 17.196-14.812 7.633-1.705 16.614 2.001 19.399 9.318a14.75 14.75 0 0 1 .839 6.674l-3.137.674a2.54 2.54 0 0 1-.287.052l-2.75.59-11.358 2.432a46.33 46.33 0 0 0 7.704 7.117l.69.498c.733.515 1.487 1.027 2.257 1.496zm-76.184 15.859l-8.391 8.936-2.269 2.425-.381-.813a71.52 71.52 0 0 1-.443-59.012 69.42 69.42 0 0 1 5.084-9.245l12.499 7.211c.138-6.306-1-12.575-3.346-18.431 8.642-8.746 19.414-15.088 31.254-18.402-11.88 16.737-3.325 40.335-9.078 60.025a42.62 42.62 0 0 1-24.929 27.306h0zm-70.448 81.102l-2.707-2.083c-15.282-12.449-24.757-30.647-26.193-50.306a69.55 69.55 0 0 1 2.584-23.63l.256.149 12.499 7.212a46.63 46.63 0 0 0-5.856-23.704c3.341-5.811 7.501-11.11 12.353-15.736-2.597 20.348 16.062 37.158 20.253 57.227a42.72 42.72 0 0 1-4.093 28.359c-1.131 2.152-2.455 4.197-3.955 6.11-.356.466-.714.912-1.084 1.348l-.221.837-3.836 14.217zm24.046 45.307l-14.109 3.023a46.48 46.48 0 0 0 8.394 7.615c-10.162 7.274-22.051 11.763-34.485 13.02-1.166.116-2.344.203-3.507.246l-.726.037.789-2.244-.003-.02 4.284-12.484a42.41 42.41 0 0 1 4.2-23.346l.018-.023c2.072-4.253 4.866-8.115 8.257-11.414 14.71-14.292 39.588-17.775 48.826-36.091a71.03 71.03 0 0 1-1.505 35.781l-11.358 2.432c2.29 2.656 4.875 5.043 7.704 7.117a68.49 68.49 0 0 1-7.943 13.057c-.448.581-.898 1.14-1.368 1.702l-7.182 1.541a2.52 2.52 0 0 1-.286.051z"/></g><path d="M824.163 395.5H435.266c-9.413-.011-17.041-7.638-17.052-17.051V106.551c.011-9.413 7.639-17.041 17.052-17.051h388.897c9.413.011 17.04 7.639 17.051 17.051v271.898c-.011 9.412-7.639 17.04-17.051 17.051h0z" fill="#f2f2f2"/><g fill="#e6e6e6"><path d="M687.214 106.5h-115c-15.18-.017-27.483-12.319-27.5-27.5v-.5h170v.5c-.017 15.181-12.319 27.483-27.5 27.5h0zm.5 306h-115c-15.18-.017-27.482-12.319-27.5-27.5v-.5h170v.5c-.017 15.181-12.319 27.483-27.5 27.5h0z"/></g><g fill="#6c63ff"><path d="M659.714 343c0 16.569-12.431-2-29-2s-30-13.431-30-30 13.432-30 30-30 29 45.431 29 62zm-115-150c0 16.569-13.431 30-30 30s-25 33.569-25 17 8.432-77 25-77 30 13.432 30 30z"/></g><path d="M504.334 159.925c4.33-2.525 9.631-1.657 13.744.902 4.678 2.91 7.267 7.923 8.407 13.185a42.48 42.48 0 0 1-.057 17.128c-1.115 5.445-3.972 11.23-9.769 12.793-3.863 1.041-8.18-.301-9.588-4.287-1.103-3.255-.426-6.85 1.785-9.481 3.252-3.66 8.92-3.848 13.177-2.022 5.007 2.147 8.06 6.995 9.346 12.125 1.529 6.099.566 12.425-1.043 18.404-1.749 6.498-4.065 12.851-6.147 19.247-4.061 12.473-7.798 25.182-8.77 38.328-1.484 20.08 5.128 43.25 23.481 54.021 9.907 5.815 21.829 6.742 32.92 4.446 11.697-2.422 22.143-8.463 31.214-16.086 4.714-4.03 9.15-8.374 13.277-13.002a9.82 9.82 0 0 1 10.487-3.102c9.542 3.032 7.784 18.308-1.657 20.182-4.29.851-8.94-1.213-12.115-3.999a23.28 23.28 0 0 1-6.975-11.906c-2.402-9.632.403-20.236 6.1-28.195 6.436-8.99 16.854-14.588 27.163-17.918 11.737-3.791 24.029-4.908 36.235-6.144 12.491-1.265 25.114-2.741 36.908-7.285 9.49-3.687 18.305-8.918 26.088-15.482 15.689-13.12 26.802-30.887 31.733-50.736a88.39 88.39 0 0 0 2.226-14.605c.132-1.927-2.868-1.919-3 0-1.469 21.457-11.411 41.867-26.448 57.103-7.5 7.633-16.281 13.891-25.943 18.49-11.641 5.501-24.297 7.662-37.005 9.04-12.978 1.407-26.12 2.237-38.728 5.854-11.146 3.197-22.26 8.619-29.853 17.635-6.695 7.949-10.364 18.855-9.058 29.243 1.216 9.667 7.379 19.618 17.505 21.719 4.752.986 9.67-.268 12.84-4.087a15.13 15.13 0 0 0 2.044-15.703c-3.022-5.706-9.881-8.188-15.856-5.737a15.27 15.27 0 0 0-5.44 4.203c-8.655 9.491-18.481 18.349-30.307 23.668-11.031 4.962-24.023 6.828-35.689 3.032-22.085-7.186-30.546-32.437-29.214-53.655.871-13.886 5.043-27.298 9.355-40.438 2.203-6.71 4.711-13.401 6.257-20.302 1.385-6.178 1.808-12.724-.209-18.817-1.761-5.318-5.308-10.053-10.559-12.282-4.771-2.024-10.618-1.977-14.882 1.216-6.166 4.616-6.731 16.06.884 19.613 5.054 2.357 11.141.522 14.868-3.392 4.179-4.389 5.539-10.575 6.009-16.428.889-11.062-1.55-24.404-12.801-29.395-4.635-2.056-9.985-2.288-14.455.319a1.5 1.5 0 0 0-.494 2.027 1.5 1.5 0 0 0 2.008.563h.001z" fill="#3f3d56"/><path d="M773.714 174c0 17.57 27.58 62.37 18.3 75.82q-1.725 2.52-3.65 4.9c-4.15 5.19-8.911 9.861-14.18 13.91-.89.7-1.79 1.37-2.7 2.02-3.234 2.293-6.625 4.355-10.15 6.17l-1.94.96c-36.797 17.686-80.988 6.172-104.476-27.222s-19.387-78.875 9.696-107.528c.74-.74 1.5-1.46 2.28-2.17 7.737-7.089 16.746-12.651 26.55-16.39.01 0 .01-.01.02-.01 14.705-5.584 30.683-6.918 46.11-3.85h.02l1.02.22c37.77 7.99 33.1 13.02 33.1 53.17z" fill="#6c63ff"/><g fill="#3f3d56"><path d="M761.344 276.44a1.56 1.56 0 0 1-.01.38l-1.94.96a1.5 1.5 0 0 1-1.05-1.34 20.45 20.45 0 0 0-.87-4.45c-3.9-12.56-17.58-18.98-29.52-21.25-14.61-2.79-29.98-1.63-43.88-7.66-5.699-2.319-10.748-5.992-14.71-10.7-4.146-5.186-6.229-11.721-5.85-18.35.82-15.59 11.81-27.79 15.57-42.5 1.55-6.06 1.55-12.38-1.21-18.1-2.34-4.86-6.54-9.13-12.14-9.73-.458-.034-.873-.282-1.12-.67.74-.74 1.5-1.46 2.28-2.17a14.56 14.56 0 0 1 2.97.77c5.48 2.1 9.29 6.85 11.43 12.18 2.47 6.17 2.24 12.81.52 19.14-4.01 14.76-15.79 27.57-15.33 43.48.4 13.79 12.44 22.39 24.58 26.03 15.02 4.5 31.29 2.37 46.15 7.58 11.69 4.1 23.04 13.27 24.13 26.4zm12.84-7.81l-2.7 2.02a1.25 1.25 0 0 1-.33-.98c.5-12.936-3.96-25.574-12.47-35.33a50.16 50.16 0 0 0-12.96-10.74c-5.12-2.93-10.74-4.5-16.31-6.32-5.48-1.79-11.05-3.96-15.24-8.05-4.27-4.17-6.37-9.82-7.01-15.66-1.51-13.84 5.42-26.56 5.98-40.19.25-6.08-1.09-11.99-4.86-16.88-3.26-4.22-8.07-7.1-13.52-6.46-1.8.22-1.89-2.42-.33-2.93.107-.035.218-.058.33-.07 6.34-.74 12.09 2.74 15.86 7.62 4.39 5.67 5.91 12.58 5.47 19.65-.86 13.68-8.06 26.83-5.72 40.73a21.07 21.07 0 0 0 9.03 14.56c5.02 3.31 10.95 4.8 16.61 6.64a55.59 55.59 0 0 1 15.81 7.74c4.722 3.457 8.861 7.646 12.26 12.41a53.18 53.18 0 0 1 10.1 32.24zm17.83-18.81q-1.725 2.52-3.65 4.9c1.337-7.769 1.041-15.732-.87-23.38-2.335-9.628-7.06-18.512-13.74-25.83a51.6 51.6 0 0 0-11.44-9.33c-4.85-2.9-10.15-5.35-13.58-10.03-7.44-10.16-2.42-23.42-.02-34.34 1.26-5.7 1.94-11.77-.39-17.29-1.81-4.28-5.39-8.29-10.25-8.78-1.91-.19-1.92-3.2 0-3q.54.06 1.08.15c5.31.96 9.4 4.92 11.62 9.8 2.88 6.37 2.31 13.25.84 19.92-2.42 10.97-8.03 25.5 2 34.46 4.23 3.78 9.72 5.87 14.28 9.22a55.78 55.78 0 0 1 10.88 10.49 62.58 62.58 0 0 1 13.24 43.04h0zm-459.752-41.007l-16.001-60.193c-.181-.682.203-1.386.874-1.603s1.394.13 1.646.788l21.536 56.258-8.055 4.75z"/></g><path d="M345.583 222.46a30.25 30.25 0 0 1-6.753-2.265l-3.186-1.719-1.095-.636-2.59-1.517-2.203-1.288c-1.075-.626-2.23-1.355-2.542-2.564-.193-1.159.145-2.343.92-3.226a13.2 13.2 0 0 1 2.704-2.399q3.388-2.488 6.781-4.969l.606-1.326a17.11 17.11 0 0 1 4.986 3.224 6.1 6.1 0 0 1 1.752 4.461 5.17 5.17 0 0 1-.178 1.076c-.437 1.537-1.581 2.845-2.26 4.32a8.47 8.47 0 0 0-.357.949c-.615 1.923-.34 4.02.749 5.72.67.954 1.594 1.702 2.666 2.159h0z" fill="#ccc"/><path d="M348.929 223.016a7.2 7.2 0 0 1-3.346-.556l3.346.556h0z" fill="#e6e6e6"/><path d="M345.583 222.46a30.25 30.25 0 0 1-6.753-2.265l-3.186-1.719-1.095-.636-2.59-1.517c.303-.407.628-.798.972-1.171 3.205-3.487 7.583-5.455 12.032-6.916a5.17 5.17 0 0 1-.178 1.076c-.437 1.537-1.581 2.845-2.26 4.32a8.47 8.47 0 0 0-.357.949c-.615 1.923-.341 4.02.749 5.72.67.954 1.594 1.702 2.666 2.159z" fill="#6c63ff"/><path d="M878.662 695.382a1.19 1.19 0 0 1-1.19 1.19H15.182a1.19 1.19 0 0 1-1.03-1.785 1.19 1.19 0 0 1 1.03-.595h862.29c.316-.001.619.124.843.348s.348.526.347.842h0z" fill="#ccc"/></g></svg>