<?xml version="1.0" encoding="UTF-8" standalone="no"?><!-- Generator: Gravit.io --><svg xmlns="http://www.w3.org/2000/svg" xmlns:xlink="http://www.w3.org/1999/xlink" style="isolation:isolate" viewBox="0 0 980 310" width="980pt" height="310pt"><defs><clipPath id="_clipPath_kC8FKxLD4KUMX4N3qLaazURGCGJ4GMZ2"><rect width="980" height="310"/></clipPath></defs><g clip-path="url(#_clipPath_kC8FKxLD4KUMX4N3qLaazURGCGJ4GMZ2)"><path d=" M 327.51 299.47 L 300.37 272.28 L 59.84 272.28 L 14.14 226.58 L 14.14 84.48 L 58.55 40.06 L 297.4 40.06 L 321.92 15.54 L 906.96 15.54 L 948.07 56.69 L 948.07 252.39 L 928.17 272.28 L 711.65 272.28 L 684.51 299.42 L 329.61 299.47 L 327.51 299.47 Z " fill="rgb(26,26,26)"/><path d=" M 905.84 18.23 L 945.38 57.81 L 945.38 251.28 L 927.06 269.6 L 710.54 269.6 L 683.4 296.74 L 329.62 296.78 L 328.63 296.78 L 301.49 269.6 L 60.95 269.6 L 16.82 225.47 L 16.82 85.59 L 59.66 42.75 L 298.51 42.75 L 323.03 18.23 L 905.84 18.23 Z  M 908.07 12.86 L 905.84 12.86 L 323.04 12.86 L 320.82 12.86 L 319.25 14.43 L 296.3 37.38 L 59.67 37.38 L 57.45 37.38 L 55.88 38.95 L 13.04 81.79 L 11.47 83.36 L 11.47 85.58 L 11.47 225.46 L 11.47 227.68 L 13.04 229.25 L 57.17 273.38 L 58.74 274.95 L 60.96 274.95 L 299.26 274.95 L 324.83 300.56 L 326.4 302.14 L 328.63 302.14 L 329.62 302.14 L 683.4 302.1 L 685.62 302.1 L 687.19 300.53 L 712.76 274.96 L 927.06 274.96 L 929.28 274.96 L 930.85 273.39 L 949.17 255.07 L 950.74 253.5 L 950.74 251.28 L 950.74 57.8 L 950.74 55.58 L 949.17 54.01 L 909.63 14.43 L 908.07 12.86 L 908.07 12.86 Z " fill="rgb(255,255,255)"/><path d=" M 341.95 1.85 L 709.31 1.85 L 723.36 15.91 L 325.42 15.91" fill="rgb(255,255,255)"/><path d=" M 264.18 269.76 L 297.79 269.76 L 328.95 300.92 L 686.71 300.93 L 686.71 306.28 L 300.7 306.28 L 264.18 269.76 Z " fill="rgb(255,255,255)"/><path d=" M 330.1 278.88 L 690.04 278.88 L 682.79 286.13 L 337.35 286.13 L 330.1 278.88 Z " fill="rgb(255,255,255)"/><path d=" M 927.07 253.98 L 927.06 261.34 L 703.96 261.34 L 695.87 269.43 L 324.29 269.43 L 316.2 261.34 L 60.95 261.34 L 60.95 253.98 L 927.07 253.98 Z " fill="rgb(29,49,159)"/><path d=" M 711.68 273.03 L 928.68 273.03 L 948.55 253.16 L 948.55 64.24 L 956.9 72.6 L 956.9 173.41 L 971.69 188.2 L 971.69 263.74 L 941.67 293.76 L 840.35 293.76 L 825.96 308.15 L 792.41 308.15 L 766.73 308.15 L 750.52 291.95 L 692.74 291.95 L 711.68 273.03 Z " fill="rgb(29,49,159)"/><rect x="397.41" y="29.72" width="417.7" height="6.97" transform="matrix(1,0,0,1,0,0)" fill="rgb(29,49,159)"/><path d=" M 204.69 68.3 L 140.02 68.3 L 140.02 68.3 L 87.19 68.3 L 59.93 95.56 L 134.05 95.56 L 134.05 95.56 L 177.44 95.56 L 204.69 68.3 Z " fill="rgb(29,49,159)"/><path d=" M 262.3 68.3 L 235.04 95.56 L 202.3 95.56 L 229.56 68.3 L 262.3 68.3 Z " fill="rgb(29,49,159)"/><path d=" M 319.9 68.3 L 292.64 95.56 L 259.91 95.56 L 287.17 68.3 L 319.9 68.3 Z " fill="rgb(29,49,159)"/><path d=" M 377.5 68.3 L 350.24 95.56 L 317.51 95.56 L 344.77 68.3 L 377.5 68.3 Z " fill="rgb(29,49,159)"/><path d=" M 435.1 68.3 L 407.84 95.56 L 375.11 95.56 L 402.37 68.3 L 435.1 68.3 Z " fill="rgb(29,49,159)"/><path d=" M 492.71 68.3 L 465.45 95.56 L 432.71 95.56 L 459.97 68.3 L 492.71 68.3 Z " fill="rgb(29,49,159)"/><path d=" M 704.1 232.47 C 701.3 232.47 699.04 234.74 699.04 237.53 C 699.04 240.32 701.31 242.59 704.1 242.59 C 706.89 242.59 709.16 240.33 709.16 237.53 C 709.16 234.73 706.89 232.47 704.1 232.47 Z  M 707.63 238.52 L 705.17 238.52 L 705.17 241.05 L 703.04 241.05 L 703.04 238.52 L 700.58 238.52 L 700.58 236.52 L 703.04 236.52 L 703.04 234 L 705.17 234 L 705.17 236.53 L 707.63 236.53 L 707.63 238.52 Z " fill="rgb(255,255,255)"/><circle vector-effect="non-scaling-stroke" cx="704.0999980926514" cy="237.5299847412109" r="7.580000000000041" fill="none" stroke-width="1.489" stroke="rgb(255,255,255)" stroke-linejoin="miter" stroke-linecap="butt" stroke-miterlimit="10"/><rect x="523.26" y="49.53" width="380.43" height="60.33" transform="matrix(1,0,0,1,0,0)" fill="rgb(29,49,159)"/><mask id="_mask_7hCdWTtJ1uvMyNaJ1JDLx6qteXbEswIA" x="-200%" y="-200%" width="400%" height="400%"><rect x="-200%" y="-200%" width="400%" height="400%" style="fill:white;"/><line x1="8.31" y1="213.16" x2="8.31" y2="95.56" fill="black" stroke="none"/></mask><line x1="8.31" y1="213.16" x2="8.31" y2="95.56" mask="url(#_mask_7hCdWTtJ1uvMyNaJ1JDLx6qteXbEswIA)" vector-effect="non-scaling-stroke" stroke-width="21.478" stroke="rgb(255,255,255)" stroke-linejoin="miter" stroke-linecap="butt" stroke-miterlimit="10"/><path d=" M 823 182.753 C 823.653 154.01 843.577 133.76 868.074 130.493 C 897.47 126.574 921.967 146.498 926.54 172.954 C 931.113 198.105 917.394 221.295 894.531 230.767 C 892.571 231.42 891.591 231.094 890.611 229.134 L 879.179 199.738 C 878.526 198.105 878.853 196.798 880.813 196.145 C 886.038 193.858 888.978 189.939 889.958 184.386 C 891.264 175.894 885.059 167.728 876.24 167.075 C 868.401 166.422 861.215 171.975 859.909 179.814 C 858.929 186.673 862.195 193.205 868.727 196.145 C 870.687 197.125 871.014 198.105 870.361 200.064 L 859.255 229.46 C 858.602 230.767 857.622 231.42 855.989 230.767 C 843.904 226.194 834.105 217.049 828.553 205.617 C 823.327 195.165 823.327 187.326 823 182.753 L 823 182.753 Z  M 827.246 182.427 C 827.246 183.733 827.246 185.366 827.573 186.999 C 828.879 202.024 838.025 217.375 855.336 225.541 C 855.989 225.868 856.316 225.868 856.642 225.214 C 859.909 217.049 862.848 208.556 866.114 200.391 C 866.441 199.738 866.114 199.411 865.461 199.084 C 858.929 194.838 855.336 188.959 855.989 180.793 C 856.316 176.221 857.949 172.301 860.888 169.035 C 867.094 162.176 877.22 160.543 885.385 165.442 C 892.244 169.362 895.837 176.874 894.857 184.386 C 894.204 190.919 890.938 195.818 885.059 199.084 C 884.405 199.411 884.405 199.738 884.732 200.391 C 887.998 208.556 891.264 217.049 894.204 225.214 C 894.531 225.868 894.857 225.868 895.511 225.541 C 903.023 221.948 909.229 217.049 914.128 210.516 C 921.314 200.391 924.58 188.959 922.947 176.547 C 919.681 151.724 897.47 131.147 868.727 134.739 C 846.517 137.352 827.573 156.297 827.246 182.427 L 827.246 182.427 Z " fill="rgb(255,255,255)"/><g clip-path="url(#_clipPath_r64NuW9MI0Hsb8qnGvHOsfGXAqaV4C1u)"><text transform="matrix(1,0,0,1,60,158.144)" style="font-family:'Ubuntu';font-weight:400;font-size:42px;font-style:normal;fill:#ffffff;stroke:none;">VISIBLE AND OPEN SOURCE CODE</text></g><defs><clipPath id="_clipPath_r64NuW9MI0Hsb8qnGvHOsfGXAqaV4C1u"><rect x="0" y="0" width="711" height="52.3" transform="matrix(1,0,0,1,60,119)"/></clipPath></defs><g clip-path="url(#_clipPath_ObKFSYOctL3118QRtgSqz9Yl77569P5d)"><text transform="matrix(1,0,0,1,590.416,97.597)" style="font-family:'Ubuntu';font-weight:700;font-size:48px;font-style:normal;fill:#ffffff;stroke:none;">WARNING </text></g><defs><clipPath id="_clipPath_ObKFSYOctL3118QRtgSqz9Yl77569P5d"><rect x="0" y="0" width="380" height="60.47" transform="matrix(1,0,0,1,523,49.53)"/></clipPath></defs><g clip-path="url(#_clipPath_Hx4SOHrWHbsNRJ7sht5lbNW6QeOftCPH)"><text transform="matrix(1,0,0,1,60,193.668)" style="font-family:'Ubuntu';font-weight:400;font-size:24px;font-style:normal;fill:#ffffff;stroke:none;">MORE EYES, MORE TRUST.</text></g><defs><clipPath id="_clipPath_Hx4SOHrWHbsNRJ7sht5lbNW6QeOftCPH"><rect x="0" y="0" width="711" height="39.216" transform="matrix(1,0,0,1,60,171.3)"/></clipPath></defs><g clip-path="url(#_clipPath_yeKgcXZa2B5gMb1lvYFhqh8FvL1AdZt3)"><text transform="matrix(1,0,0,1,718.255,242.427)" style="font-family:'Ubuntu';font-weight:700;font-size:14px;font-style:normal;fill:#ffffff;stroke:none;">SAFETY FIRST</text></g><defs><clipPath id="_clipPath_yeKgcXZa2B5gMb1lvYFhqh8FvL1AdZt3"><rect x="0" y="0" width="141" height="21.547" transform="matrix(1,0,0,1,718.255,226.453)"/></clipPath></defs></g></svg>