<svg xmlns="http://www.w3.org/2000/svg" xmlns:xlink="http://www.w3.org/1999/xlink" viewBox="0 0 406 306" width="541.333" height="408" xmlns:v="https://vecta.io/nano"><defs><clipPath id="A"><path d="M0 0h406v306H0z"/></clipPath><path id="B" d="M193.961 221.291a39.73 39.73 0 0 0-37.325-11.342c-5.428 1.273-10.533 3.704-15.949 5.011-12.651 2.927-25.939-.334-35.798-8.784 3.1 10.309 10.574 18.735 20.439 23.043-9.351-.081-18.263-3.773-26.619-7.916-12.731-6.296-25.625-13.889-39.872-14.386-16.759-.51-31.955 8.958-45.636 18.714a49.77 49.77 0 0 1 34.085-4.733c25.463 5.683 44.201 30.832 70.195 32.974 15.243 1.25 29.838-5.787 43.159-13.31a98.46 98.46 0 0 0-11.412 20.717c11.204-9.444 29.641-4.792 41.087-13.947 4.292-3.652 7.282-8.599 8.519-14.097a17.66 17.66 0 0 0 0-10.219c-1.158-3.252-4.097-6.03-7.546-6.204"/><path id="C" d="M209.03 135.39c-2.06 2.732-4.108 5.452-6.365 8.01a64.27 64.27 0 0 1-7.026 6.828 2.75 2.75 0 0 0-1.064 1.377 2.66 2.66 0 0 0 .925 2.13c2.315 2.581 4.711 5.069 7.234 7.43.78 1.116 1.977 1.868 3.32 2.086a5.04 5.04 0 0 0 3.81-.928c11.886-5.996 21.99-14.954 33.564-21.551a4.2 4.2 0 0 1 1.585-.636 4.27 4.27 0 0 1 1.817.289c8.925 2.794 17.675 6.118 26.203 9.954.738.399 1.558.621 2.396.648a4.98 4.98 0 0 0 2.627-1.239c3.804-2.819 7.37-5.947 10.66-9.351a3.62 3.62 0 0 0 1.157-1.933 3.55 3.55 0 0 0-.995-2.419 72.37 72.37 0 0 0-22.997-19.814 53.36 53.36 0 0 0-23.426-6.945c-6.111-.208-15.208.405-19.675 5.347-2.211 2.466-3.704 5.787-5.405 8.553-2.576 4.192-5.361 8.252-8.345 12.164z"/><path id="D" d="M201.762 112.868l9.525-2.454c9.051-1.528 18.159 2.593 27.326 2.234.523.048 1.04-.139 1.412-.509a1.8 1.8 0 0 0 .22-1.158l-.347-8.576a18.88 18.88 0 0 0-1.273-7.291c-2.119-4.63-7.639-6.76-12.674-6.459s-9.71 2.558-14.236 4.78l-11.226 5.463c-2.581 1.273-6.1 2.593-7.708 5.185-1.019 1.667-1.632 5.903-.452 7.512 1.655 2.338 7.083 1.689 9.433 1.273z"/><path id="E" d="M321.528 39.953l-.116-3.009c.262-2.723-1.171-5.327-3.611-6.563-1.934-1.545-4.072-2.815-6.354-3.773-4.113-1.474-8.676-.975-12.372 1.354-2.684 1.857-4.88 4.335-6.401 7.222a5.11 5.11 0 0 1-1.828 2.234c-.637.27-1.323.404-2.014.394-4.063.208-8.438.335-11.806-1.922a3.24 3.24 0 0 0-1.794-.775c-.513.115-.95.449-1.195.915s-.274 1.016-.078 1.504a4.2 4.2 0 0 0 2.315 2.095c3.808 1.84 8.206 1.805 12.442 1.99 7.037.324 14.027 1.378 21.018 2.315 2.967.438 5.959.685 8.958.741 2.604.023 2.928-2.407 2.836-4.722z"/><path id="F" d="M243.671 97.521c-8.658.174-17.361-.752-25.937.775-8.515 1.54-16.418 5.465-22.789 11.32-.447.502-1.03.864-1.678 1.041-1.158.185-2.118-.856-2.72-1.863-2.778-4.63-2.766-10.417-2.315-15.81.533-6.366 1.655-12.928 5.243-18.217a15.36 15.36 0 0 1 4.537-4.56 19.82 19.82 0 0 1 8.854-2.431c10.301-.868 20.59 1.042 30.902 1.597 2.941.319 5.915.047 8.75-.798 4.12-1.493 7.118-5.058 10.845-7.35 4.722-2.905 10.416-3.68 15.925-4.143a24.21 24.21 0 0 1 9.259.486c2.951.914 5.694 3.137 6.377 6.157s-.74 6.007-2.21 8.692c-1.119 2.223-2.541 4.28-4.225 6.111-2.766 2.79-6.412 4.398-9.675 6.516-2.778 1.817-4.317 4.109-6.586 6.354-5.37 5.266-15.486 5.972-22.557 6.123z"/><path id="G" d="M254.747 196.928a40.62 40.62 0 0 0-3.658 10.671c-.243 1.308-.347 2.882.66 3.739a4 4 0 0 0 2.593.66l24.629.532a2.48 2.48 0 0 0 1.609-.347 1.91 1.91 0 0 0 .555-1.493c0-2.408-1.782-4.491-3.842-5.787s-4.445-1.898-6.574-3.033a3.19 3.19 0 0 1-.973-.729c-1.053-1.296.186-3.102.776-4.629.089-.192.129-.403.116-.614a1.16 1.16 0 0 0-1.158-.845c-1.666-.092-2.847 1.748-4.49 2.026-.724.065-1.453-.022-2.142-.255-1.249-.324-8.101-3.298-8.101.104z"/><path id="H" d="M150.409 161.906a8.82 8.82 0 0 0-4.19 1.03 9.02 9.02 0 0 0-2.65 3.229 111.39 111.39 0 0 0-6.343 12.928c-.821 2.002-1.562 4.363-.474 6.227 1.08 1.555 2.957 2.351 4.826 2.048 1.822-.325 3.556-1.027 5.093-2.06 2.245-1.21 4.303-2.738 6.111-4.537 1.423-1.527 2.65-3.472 4.629-4.097 1.505-.497 3.252-.185 4.63-.96.255-.116.455-.328.555-.591.127-.486-.347-.902-.775-1.157l-1.841-1.262c-.727-.414-1.358-.978-1.851-1.655-1.702-2.65 1.412-5.787.208-8.263-1.042-2.141-5.914-1.019-7.928-.88z"/><path id="I" d="M281.135 66.885c-.058-.359.567-.197.787.093 3.912 5.474 6.076 11.967 8.611 18.194s5.66 12.511 10.914 16.712c2.153 1.736 4.873 3.472 5.012 6.262.092 2.152-1.482 3.97-2.952 5.532-3.472 3.669-7.557 7.616-12.58 7.43-.533-1.967-2.396-3.206-3.959-4.502-6.122-5.058-9.074-12.974-14.34-18.923-2.615-2.951-5.868-5.532-7.361-9.178-2.002-4.931-.289-10.567 2.014-15.359 1.049-2.458 2.553-4.696 4.433-6.597a9.18 9.18 0 0 1 7.257-2.638c2.731.32 4.882 2.476 5.196 5.208"/></defs><g clip-path="url(#A)"><g opacity=".18"><path d="M338.715 17.963C322.893 5.579 302.338.602 282.304.058a150.54 150.54 0 0 0-70.241 15.243c-16.609 8.101-31.539 19.258-47.453 28.598-33.402 19.583-71.144 31.308-103.354 52.8S1.79 153.932 6.384 192.38c4.329 36.295 35.937 64.061 69.929 77.487s71.145 15.995 106.861 23.703c32.731 7.06 66.839 18.518 98.794 8.541 17.06-5.324 31.805-16.365 48.61-22.337 20.59-7.303 45.37-7.743 59.953-24.004 11.354-12.651 12.8-31.527 9.803-48.252-3.472-19.536-11.782-37.834-14.097-57.637-1.991-16.99 1.493-33.506.775-50.358-1.169-28.02-26.805-64.848-48.297-81.56z" fill="#68e1fd"/></g><g opacity=".59"><use xlink:href="#B" fill="#68e1fd"/></g><use xlink:href="#B" fill="#ff7300"/><path d="M192.804 226.719c-5.125-5.368-12.685-7.664-19.93-6.053-2.894.683-5.614 1.968-8.507 2.674-6.756 1.565-13.854-.175-19.12-4.688 1.668 5.49 5.656 9.973 10.914 12.269-4.988 0-9.745-2.026-14.224-4.225-6.829-3.368-13.68-7.453-21.296-7.685-8.935-.278-17.071 4.803-24.305 9.988a26.5 26.5 0 0 1 18.194-2.523c13.599 3.033 23.611 16.458 37.488 17.604 8.101.671 15.937-3.102 23.043-7.106-2.466 3.43-4.511 7.145-6.088 11.064 5.972-5.046 15.822-2.557 21.991-7.442 2.289-1.954 3.885-4.598 4.548-7.534.538-1.777.538-3.674 0-5.451a4.83 4.83 0 0 0-4.039-3.311" fill="#fa0"/><linearGradient id="J" x1="0" y1=".5" x2=".435" y2="-.401" gradientTransform="matrix(68.374,0,0,20.219,126.486,222.31)" gradientUnits="userSpaceOnUse"><stop offset="100%" stop-color="#ffe658"/><stop offset="100%" stop-opacity=".971" stop-color="#fff"/><stop offset="100%" stop-opacity=".657" stop-color="#fff"/><stop offset="100%" stop-opacity=".369" stop-color="#fff"/></linearGradient><path d="M192.815 227.854c-3.521-3.687-8.715-5.263-13.691-4.155-1.991.463-3.866 1.354-5.857 1.828-4.641 1.067-9.513-.126-13.136-3.217 1.14 3.782 3.881 6.875 7.5 8.46a23.14 23.14 0 0 1-9.78-2.905c-4.63-2.315-9.398-5.115-14.629-5.277-6.146-.197-11.736 3.298-16.736 6.863 3.829-2.053 8.267-2.669 12.511-1.736 9.34 2.083 16.203 11.319 25.752 12.094 5.59.463 10.949-2.129 15.833-4.884a36.8 36.8 0 0 0-4.178 7.604c4.108-3.472 10.879-1.759 15.046-5.115 1.576-1.341 2.677-3.156 3.136-5.174a6.56 6.56 0 0 0 0-3.75 3.3 3.3 0 0 0-2.766-2.315" fill="url(#J)"/><g fill="#f3bd8d"><path d="M180.964 153.781a187.52 187.52 0 0 0-27.372 11.574 9.83 9.83 0 0 0-3.658 2.743c-.967 1.251-.967 2.997 0 4.248.973.995 2.547 1.007 3.935.937 17.34-.849 34.5-3.91 51.064-9.108a3.2 3.2 0 0 0 1.516-.799c.787-.88.405-2.315-.139-3.333-5.393-10.509-15.694-9.456-25.346-6.262zm75.762 45.474c-.192.427-.138.924.14 1.301s.738.574 1.203.516l4.629.764a1.9 1.9 0 0 0 2.488-1.227c2.315-4.387 4.526-8.889 7.257-13.044 5.579-8.46 13.542-15.462 17.28-24.884a44.44 44.44 0 0 0 2.315-8.634c.821-4.733.926-10.266-2.581-13.541-.46-.519-1.113-.824-1.806-.845a2.86 2.86 0 0 0-1.389.625c-3.472 2.408-8.773 4.792-11.446 8.102-2.107 2.65-3.472 6.782-4.919 9.838a157.61 157.61 0 0 0-9.838 26.099q-2.014 7.384-3.333 14.93z"/></g><use xlink:href="#C" fill="#3f3d56"/><linearGradient id="K" x1=".327" y1=".309" x2=".525" y2=".534" gradientTransform="matrix(95.301,0,0,54.024,194.572,109.292)" gradientUnits="userSpaceOnUse"><stop offset="24.501122208167267%" stop-color="#000"/></linearGradient><use xlink:href="#C" fill="url(#K)"/><use xlink:href="#D" fill="#3f3d56"/><linearGradient id="L" x1="0" y1=".5" x2=".217" y2="1.476" gradientTransform="matrix(48.58,0,0,24.651,191.684,88.627)" gradientUnits="userSpaceOnUse"><stop offset="100%" stop-color="#000"/></linearGradient><use xlink:href="#D" fill="url(#L)"/><path d="M318.31 58.135a2.77 2.77 0 0 1 .556 1.725c-.19.566-.674.983-1.262 1.088-.567.139-1.157.104-1.736.196-2.176.371-3.588 2.396-4.872 4.19s-3.068 3.669-5.267 3.472c-1.086-.251-2.136-.64-3.124-1.157-2.864-.848-5.953-.427-8.484 1.157-1.157.672-2.535 1.528-3.889 1.158-1.206-.425-2.135-1.402-2.5-2.628a15.04 15.04 0 0 1-.879-6.053 5.3 5.3 0 0 1 .416-2.21c.533-1.158 1.667-1.736 2.489-2.639.638-.753 1.174-1.585 1.597-2.477 1.387-2.552 2.933-5.014 4.629-7.372 2.315-3.276 5.29-6.54 9.259-7.408 3.327-.545 6.734.236 9.491 2.176 2.477 1.597 3.669 4.769 3.866 7.662s-1.841 6.099-.29 9.12z" fill="#f3bd8d"/><path d="M321.111 43.24c1.019 1.157 2.106 2.569 1.574 3.981-.603 1.14-1.844 1.793-3.125 1.644-2.488-.116-4.629-1.806-6.817-2.894-2.514-1.224-5.317-1.733-8.101-1.47a2.08 2.08 0 0 0-.926.255 2.31 2.31 0 0 0-.718.995l-2.847 6.158c-.579-.475-.475-1.366-.382-2.107s-.069-1.713-.799-1.898a1.36 1.36 0 0 0-.868.15 3.38 3.38 0 0 0-1.759 3.982c.127.393.289.891 0 1.157-.217.124-.471.169-.717.128-1.227 0-2.142 1.064-2.963 1.979s-1.945 1.84-3.125 1.539a1.04 1.04 0 0 1-.66-.428 1.46 1.46 0 0 1 0-1.042l.498-2.708a3.94 3.94 0 0 0-.104-2.581 4.81 4.81 0 0 0-2.153-1.644c-.81-.451-1.644-1.157-1.632-2.06.134-.878.759-1.602 1.609-1.863l2.465-.81a5.6 5.6 0 0 1 .243-4.537 5.79 5.79 0 0 1 3.009-1.864c2.815-.952 5.72-1.615 8.669-1.979a16.21 16.21 0 0 1 7.257.44 20.6 20.6 0 0 1 3.009 1.447c0 .474 4.525 2.511 5.092 2.835a15.14 15.14 0 0 1 4.271 3.195z" fill="#3f3d56"/><use xlink:href="#E" fill="#68e1fd"/><use xlink:href="#E"/><path d="M290.996 68.691c-2.211 7.604-10.544 11.944-13.611 19.235-.729 1.736-1.157 3.577-1.724 5.359-2.222 6.724-6.945 12.326-9.641 18.877-.938 2.315-1.702 4.803-3.634 6.342-1.606 1.154-3.578 1.681-5.544 1.482-7.246-.452-12.824-7.13-20.011-8.102-4.271-.579-8.519.938-12.57 2.442.483-6.816 1.536-13.579 3.148-20.219a42.5 42.5 0 0 1 9.375-17.998c2.257-2.43 4.884-4.502 7.037-7.025 1.331-1.562 9.086 2.546 10.602 1.157 1.273-1.157-3.831-7.881-2.315-8.634 5.127-2.296 10.525-3.934 16.064-4.872 5.892-1.158 12.35-2.164 17.651.683a11.71 11.71 0 0 1 5.786 6.944c.865 3.059.066 6.348-2.106 8.669" fill="#fff"/><path d="M323.692 124.442l1.933.717a18.43 18.43 0 0 1 5.845 3.669c1.503 1.345 2.854 2.851 4.027 4.491 2.286 3.374 2.474 7.749.486 11.307a2.47 2.47 0 0 1-1.342 1.227c-.94.102-1.869-.271-2.477-.995a27.67 27.67 0 0 1-5.717-7.176c-1.158-2.106-2.547-4.71-4.954-4.768-.543.046-1.089.046-1.632 0-.567-.171-1.086-.472-1.516-.88-5.787-4.711-11.319-9.942-18.159-12.893-3.264-1.412-6.945-2.431-9.051-5.324-.25-.251-.384-.595-.37-.949.497-3.229 4.305-7.824 7.754-7.581 2.731.208 3.97 2.396 5.856 3.947 2.246 1.851 19.19 15.208 19.317 15.208z" fill="#f3bd8d"/><use xlink:href="#F" fill="#68e1fd"/><linearGradient id="M" x1="0" y1=".5" x2=".441" y2="1.397" gradientTransform="matrix(101.093,0,0,53.834,188.008,56.844)" gradientUnits="userSpaceOnUse"><stop offset="100%" stop-color="#000"/></linearGradient><use xlink:href="#F" fill="url(#M)"/><g fill="#3f3d56"><use xlink:href="#G"/><use xlink:href="#H"/></g><linearGradient id="N" x1="250.926" y1="203.8" x2="281.14" y2="203.8" gradientUnits="userSpaceOnUse"><stop offset="100%" stop-color="#000"/></linearGradient><use xlink:href="#G" fill="url(#N)"/><linearGradient id="O" x1="136.206" y1="174.46" x2="162.617" y2="174.46" gradientUnits="userSpaceOnUse"><stop offset="100%" stop-color="#000"/></linearGradient><use xlink:href="#H" fill="url(#O)"/><use xlink:href="#I" fill="#68e1fd"/><linearGradient id="P" x1="0" y1=".5" x2=".893" y2=".049" gradientTransform="matrix(42.079,0,0,57.238,264.383,63.877)" gradientUnits="userSpaceOnUse"><stop offset="100%" stop-color="#000"/></linearGradient><use xlink:href="#I" fill="url(#P)"/><path d="M380.913 239.022c-11.979 8.102-38.194 13.634-38.194 13.634l-149.915.637-.313-19.676-.277-21.214c3.182-.637 147.357-2.558 147.357-2.558a75.85 75.85 0 0 1 42.754 14.687c7.222 5.231 4.838 10.196-1.412 14.49z" fill="#5e56ff"/><path d="M380.913 239.022c-11.979 8.102-38.194 13.634-38.194 13.634l-149.915.637-.637-19.606h.324c8.218-.324 146.988-1.158 146.988-1.158a141.75 141.75 0 0 1 41.434 6.493h0z" fill="#171577"/><g fill="#68e1fd"><path d="M192.214 212.403l-15.637-22.419h16.042l34.675 21.701-35.08.718h0zm.787 40.138L177.364 274.6h16.042l34.675-21.701-35.08-.358h0z"/></g><linearGradient id="Q" x1="0" y1=".5" x2=".693" y2="-.221" gradientTransform="matrix(50.716,0,0,22.418,176.577,189.984)" gradientUnits="userSpaceOnUse"><stop offset="100%" stop-color="#bdd2ff"/><stop offset="100%" stop-color="#000"/></linearGradient><path d="M192.214 212.403l-15.637-22.419h16.042l34.675 21.701-35.08.718h0z" fill="url(#Q)"/><linearGradient id="R" x1="0" y1=".5" x2=".693" y2="-.221" gradientTransform="matrix(50.716,0,0,22.06,177.364,252.541)" gradientUnits="userSpaceOnUse"><stop offset="100%" stop-color="#bdd2ff"/><stop offset="100%" stop-color="#000"/></linearGradient><path d="M193.001 252.541L177.364 274.6h16.042l34.675-21.701-35.08-.358h0z" fill="url(#R)"/><linearGradient id="S" x1="198.521" y1="231.615" x2="198.596" y2="275.014" gradientUnits="userSpaceOnUse"><stop offset="100%" stop-color="#000"/></linearGradient><path fill="url(#S)" d="M198.521 209.914h6.921v43.402h-6.921z"/><linearGradient id="T" x1="335.81" y1="231.615" x2="335.885" y2="275.014" gradientUnits="userSpaceOnUse"><stop offset="100%" stop-color="#000"/></linearGradient><path fill="url(#T)" d="M335.81 209.914h6.921v43.402h-6.921z"/></g></svg>