<svg xmlns="http://www.w3.org/2000/svg" xmlns:xlink="http://www.w3.org/1999/xlink" viewBox="0 0 520 700" width="693.333" height="933.333" xmlns:v="https://vecta.io/nano"><style><![CDATA[.B{fill:#ffb6b6}.C{fill:#2f2e41}.D{fill:#3f3d56}.E{fill:#6c63ff}.F{fill:#f0f0f0}.G{fill:#ffb8b8}]]></style><defs><clipPath id="A"><path d="M0 0h520v700H0z"/></clipPath><path id="B" d="M125.707 103.241c-3.866-7.158-4.405-16.539.341-23.145 2.348 8.529 7.637 15.953 14.931 20.958 2.82 1.921 6.157 3.763 7.122 7.035a8.38 8.38 0 0 1-.874 6.15 24.86 24.86 0 0 1-3.861 5.041l-.137.512c-6.998-4.147-13.656-9.393-17.522-16.551z"/></defs><g clip-path="url(#A)"><path d="M112.014 47.522c-7.67-12.684-16.757-26.227-30.99-30.369-16.482-4.797-33.413 4.732-47.775 14.134C-9.7 59.407-51.061 89.882-90.644 122.57l.043.493q46.226-3.188 92.451-6.376c22.266-1.535 45.296-3.282 64.972-13.815 7.467-3.997 14.745-9.336 23.206-9.708 10.512-.462 19.677 6.879 26.88 14.549 42.607 45.371 54.937 114.754 102.738 154.616A1517.04 1517.04 0 0 0 112.014 47.522h0z" fill="#f2f2f2"/><g fill="#e4e4e4"><path d="M373.915 432.351c-4.712-5.95-6.637-7.343-11.285-13.348q-56.764-73.416-106.708-151.792-33.923-53.23-64.483-108.505-14.548-26.278-28.299-52.968-10.671-20.696-20.865-41.638l-5.711-12.01-13.439-28.244c-5.317-10.616-11.789-21.745-21.553-28.877-4.443-3.379-9.756-5.424-15.319-5.895-7.948-.513-15.281 2.769-22.175 6.353-50.439 26.301-97.659 59.276-140.37 96.798a730.8 730.8 0 0 0-114.042 126.591c-1.008 1.44-3.391.065-2.374-1.384q6.01-8.498 12.257-16.813c51.789-68.877 115.29-128.108 187.6-174.985Q25.397 13.808 44.331 3.091c6.362-3.603 12.752-7.16 19.252-10.496 6.371-3.273 13.136-6.216 20.415-6.326 24.77-.385 37.596 27.667 46.405 46.543q4.153 8.91 8.407 17.766 16.075 33.621 33.387 66.628 10.685 20.379 21.837 40.519 34.707 62.719 73.778 122.897c34.506 53.143 68.737 100.089 108.046 149.785 1.082 1.375-.852 3.337-1.943 1.944zM236.821 209.28l36.904-13.498 18.323-6.702c5.968-2.182 11.921-4.667 18.09-6.23a28.54 28.54 0 0 1 16.374.209 37.73 37.73 0 0 1 12.771 7.916c3.763 3.465 7.264 7.204 10.475 11.187l11.867 14.467q24.442 29.891 48.564 60.041 24.121 30.15 47.919 60.556 23.857 30.48 47.386 61.216 2.882 3.765 5.76 7.534c1.059 1.388 3.449.02 2.374-1.388q-23.702-31.045-47.735-61.835-24.091-30.864-48.516-61.466-24.424-30.601-49.179-60.937-6.167-7.558-12.354-15.099c-3.48-4.24-6.92-8.527-10.736-12.474-7.006-7.245-15.758-13.648-26.235-13.822-6.159-.102-12.121 1.853-17.844 3.923l-18.486 6.76-37.163 13.592-9.291 3.398c-1.648.603-.936 3.262.732 2.652h0z"/></g><path d="M337.893 209.415c-3.633-4.422-7.56-9.052-12.994-10.848l-5.073.2a575.44 575.44 0 0 0 153.267 175.22q-67.6-82.286-135.2-164.572z" fill="#f2f2f2"/><path d="M494.573 645.795c-2.256-18.144-13.5-36.02-30.803-41.924a84.24 84.24 0 0 1-.004 57.834c-2.659 7.192-6.365 14.914-3.864 22.163 1.556 4.51 5.362 7.961 9.618 10.118s8.978 3.186 13.641 4.194l.918.759c7.403-16.717 12.751-35.001 10.494-53.144z" class="F"/><g fill="#fff"><path d="M463.598 604.214a71.99 71.99 0 0 1 17.899 40.521 31.01 31.01 0 0 1-.353 9.708 17.79 17.79 0 0 1-4.422 8.249c-1.994 2.19-4.287 4.199-5.713 6.836a10.89 10.89 0 0 0-.532 8.889c1.259 3.612 3.741 6.556 6.269 9.351 2.806 3.103 5.77 6.281 6.962 10.395.145.498.91.245.766-.253-2.076-7.157-9.023-11.222-12.337-17.669-1.546-3.008-2.195-6.5-.745-9.675 1.267-2.777 3.63-4.851 5.667-7.051a18.97 18.97 0 0 0 4.625-7.904 28.66 28.66 0 0 0 .725-9.659 69.86 69.86 0 0 0-5.102-21.227 73.28 73.28 0 0 0-13.176-21.116c-.344-.385-.875.222-.533.605h0z"/><path d="M481.28 639.859c5.143-1.249 8.624-6.039 8.223-11.316-.041-.517-.846-.477-.805.04.382 4.915-2.873 9.376-7.67 10.511-.505.12-.249.884.252.765h0zm-3.401 21.855a20.82 20.82 0 0 1-9.298-11.991c-.146-.498-.911-.245-.765.253 1.55 5.225 5.014 9.674 9.7 12.458.447.265.807-.456.363-.72h0zm-4.475-43.964c-1.858.883-4.036.772-5.795-.294-.443-.271-.802.451-.362.719 1.948 1.169 4.349 1.296 6.41.34.206-.075.318-.298.256-.509-.071-.21-.298-.325-.509-.256h0z"/></g><path d="M411.027 636.277l.817.537c3.644 2.396 7.087 5.085 10.296 8.038l.748.687c7.655 7.199 13.906 15.757 18.437 25.238a82.52 82.52 0 0 1 4.516 11.684c1.666 5.529 3.033 11.656 6.331 16.179.339.476.707.93 1.102 1.36h29.808c.068-.034.136-.061.204-.095l1.19.054-.15-.639c-.027-.122-.061-.245-.088-.367a3.96 3.96 0 0 1-.055-.238.66.66 0 0 0-.02-.075c-.014-.075-.034-.143-.048-.211q-.449-1.826-.925-3.652a121.42 121.42 0 0 0-10.207-26.795c-.137-.252-.272-.51-.422-.762a78.76 78.76 0 0 0-7.066-10.718c-1.454-1.843-2.999-3.611-4.632-5.297-4.225-4.35-9.109-8.009-14.472-10.841-10.69-5.645-23.068-7.807-34.493-4.359l-.871.272z" class="F"/><g fill="#fff"><path d="M411.094 636.655a71.99 71.99 0 0 1 38.688 21.578c2.262 2.345 4.139 5.033 5.564 7.963a17.78 17.78 0 0 1 1.434 9.249c-.273 2.949-.893 5.934-.445 8.898a10.89 10.89 0 0 0 4.927 7.418c3.181 2.125 6.935 2.982 10.635 3.691 4.109.789 8.389 1.542 11.818 4.108.416.311.874-.352.459-.662-5.966-4.465-13.961-3.528-20.488-6.68-3.045-1.471-5.666-3.869-6.42-7.277-.66-2.98-.022-6.058.28-9.042.392-3.073.027-6.196-1.066-9.095a28.64 28.64 0 0 0-5.237-8.148 69.84 69.84 0 0 0-16.853-13.878 73.25 73.25 0 0 0-23.234-8.926c-.507-.101-.566.703-.062.803h0z"/><path d="M446.673 654.47c3.355-4.093 3.25-10.014-.247-13.986-.344-.388-.963.128-.619.517 3.265 3.694 3.351 9.216.204 13.01-.331.399.334.856.662.459h0zm10.443 19.498a20.82 20.82 0 0 1-14.643-3.976c-.417-.31-.875.353-.459.662 4.384 3.239 9.828 4.705 15.246 4.107.516-.058.369-.85-.144-.793h0zm-30.043-32.409c-.951 1.824-2.757 3.046-4.803 3.254-.517.051-.37.843.144.793 2.259-.24 4.252-1.584 5.322-3.588.119-.185.075-.43-.102-.561-.183-.125-.433-.08-.56.102h-.001z"/></g><path d="M103.562 537.56l-2.055 1.352c-9.175 6.033-17.844 12.802-25.923 20.239-.634.565-1.267 1.148-1.884 1.73a213.74 213.74 0 0 0-46.419 63.542 207.53 207.53 0 0 0-11.37 29.417c-4.195 13.921-7.637 29.349-15.941 40.735A35.63 35.63 0 0 1-2.805 698h-75.049c-.17-.086-.342-.154-.513-.24l-2.997.137.377-1.609c.069-.309.154-.617.223-.925.051-.205.103-.411.137-.599.017-.069.034-.137.051-.189.034-.188.086-.359.12-.53q1.13-4.598 2.329-9.195c0-.017 0-.017.016-.035 6.148-23.338 14.298-46.368 25.685-67.429l1.061-1.918a198.15 198.15 0 0 1 17.791-26.985 175.25 175.25 0 0 1 11.661-13.339c10.639-10.952 22.935-20.162 36.437-27.294 26.917-14.212 58.08-19.657 86.847-10.975l2.191.685z" class="F"/><g fill="#fff"><path d="M103.394 538.512c-36.981 7.333-71.858 26.528-97.408 54.327-5.524 6.011-10.604 12.588-14.007 20.052-3.262 7.3-4.509 15.34-3.612 23.285.687 7.425 2.25 14.94 1.121 22.403-1.191 7.866-5.861 14.302-12.405 18.676-8.007 5.352-17.46 7.508-26.777 9.295-10.345 1.984-21.121 3.882-29.755 10.343-1.046.783-2.199-.886-1.155-1.668 15.021-11.242 35.151-8.883 51.583-16.819 7.668-3.703 14.267-9.74 16.166-18.32 1.661-7.503.056-15.254-.705-22.766-.799-7.888-.254-15.47 2.683-22.9 3.005-7.601 7.839-14.391 13.185-20.516 12.226-13.799 26.546-25.59 42.434-34.94a184.47 184.47 0 0 1 58.496-22.475c1.277-.253 1.425 1.771.156 2.023h0z"/><path d="M13.814 583.365a27.2 27.2 0 0 1 .623-35.212c.866-.977 2.425.323 1.558 1.301-8.22 9.3-8.437 23.203-.513 32.756.832 1.006-.84 2.155-1.668 1.155h0zm-26.291 49.092a52.42 52.42 0 0 0 36.867-10.011c1.049-.779 2.203.889 1.156 1.668a54.53 54.53 0 0 1-38.386 10.34c-1.3-.145-.93-2.14.363-1.997h0zm75.639-81.598c2.397 4.592 6.942 7.67 12.095 8.193 1.301.128.93 2.123-.363 1.996-5.688-.604-10.707-3.987-13.4-9.034a1.05 1.05 0 0 1 .257-1.411 1.02 1.02 0 0 1 1.411.256h0z"/></g><g class="E"><use xlink:href="#B"/><path d="M361.707 451.241c-3.866-7.158-4.405-16.539.341-23.145 2.348 8.529 7.637 15.953 14.931 20.958 2.82 1.921 6.157 3.763 7.122 7.035a8.38 8.38 0 0 1-.874 6.15 24.86 24.86 0 0 1-3.861 5.041l-.137.512c-6.998-4.147-13.656-9.393-17.522-16.551zm-310 20c-3.866-7.158-4.405-16.539.341-23.145 2.348 8.529 7.637 15.953 14.931 20.958 2.82 1.921 6.157 3.763 7.122 7.035a8.38 8.38 0 0 1-.874 6.15 24.86 24.86 0 0 1-3.861 5.041l-.137.512c-6.998-4.147-13.656-9.393-17.522-16.551zm-269.856 6.359c-33.489 0-65.876-11.96-91.328-33.725-8.49-7.268-17.536-19.902-26.887-37.551-12.086-23.025-13.087-50.287-2.723-74.137-4.933 5.017-10.388 9.492-16.273 13.347l-2.975 1.98-.172-3.568a141.97 141.97 0 0 1-.17-6.873c-.012-13.121 1.799-26.18 5.38-38.803 16.236-57.068 19.013-118.353 8.251-182.152a200.41 200.41 0 0 1-2.772-33.228c0-109.185 88.846-198.014 198.053-198.014C-64.36-115.245 11.471-60.52 38.268 20.572l.597 1.803-1.76.712c-9.009 3.787-18.499 6.311-28.2 7.501a134.48 134.48 0 0 0 31.445 2.634l1.635-.057.399 1.59c3.924 15.744 5.907 31.909 5.904 48.135l-.007 1.754c-.074 24.926 10.461 48.705 28.973 65.397a140.85 140.85 0 0 1 45.951 103.931c0 23.147-15.732 53.531-28.93 74.945a42.38 42.38 0 0 1-31.11 19.927 41.39 41.39 0 0 1-33.401-10.79c6.246 12.56 14.387 24.085 24.136 34.172l1.801 1.855-2.236 1.303A140.41 140.41 0 0 1-17.321 394.5l-1.457-.004c-37.761 0-73.603 14.629-98.336 40.137-26.529 27.328-62.949 42.816-101.035 42.967h0z"/></g><path d="M-225.756 326.452c-1.095.001-2.066-.703-2.405-1.745a2.53 2.53 0 0 1 .917-2.826c.305-.221 31.003-22.341 76.896-39.144 42.425-15.532 106.939-29.613 173.354-8.476a2.53 2.53 0 0 1 1.716 1.868c.196.885-.098 1.807-.769 2.416s-1.617.812-2.479.532c-65.055-20.703-128.399-6.855-170.084 8.406-45.238 16.564-75.363 38.269-75.662 38.486-.431.315-.951.484-1.484.483h0z" class="D"/><path d="M201.699 685.202l12.969-.001 6.17-50.025-19.141.001.002 50.025h0z" class="B"/><path d="M198.391 680.968l3.65-.001 14.252-5.796 7.639 5.796h.001a16.28 16.28 0 0 1 16.277 16.276v.529l-41.819.002v-16.806z" class="C"/><path d="M251.958 677.029l12.651 2.856 17.038-47.437-18.672-4.215-11.017 48.796h0z" class="B"/><g class="C"><path d="M249.664 672.17l3.561.804 15.179-2.514 6.174 7.335h.001c8.768 1.981 14.271 10.694 12.292 19.463l-.117.516-40.792-9.21 3.702-16.394zm-64.391-292.795c-6.081 18.339-5.438 38.246 1.461 59.612l2.949 120.293s-4.394 78.886 9.786 106.645h20.564l10.182-113.849 1.279-76.417 44.088 64.47-28.081 123.935 25.31 2.262 45.568-134.498-56.222-130.486-76.884-21.967z"/></g><path d="M394.846 197.528a9.8 9.8 0 0 1-3.899 7.319c-2.318 1.743-5.289 2.369-8.114 1.71l-18.592 29.449-7.457-16.49 18.799-25.437c1.453-4.777 6.249-7.712 11.164-6.832s8.394 5.297 8.099 10.281h0z" class="G"/><g class="E"><path d="M380.356 214.119l-42.744 69.045-.163.042-86.849 22.648a27.85 27.85 0 0 1-30.645-22.841h0c-1.366-7.828.681-15.865 5.624-22.086a27.82 27.82 0 0 1 20.242-10.47l73.339-4.055 45.995-40.856 15.201 8.573z"/><path d="M265.824 405.195l-74.777-11.961a14.27 14.27 0 0 1-8.411-19.978l3.391-6.783-1.318-71.263a52.79 52.79 0 0 1 25.631-46.176l7.292-4.36 3.686-9.359 33.981.829.099 12.274 12.169 19.406v.08l-.764 105.622-3.354 10.9 5.072 12.678-2.697 8.091z"/></g><circle vector-effect="non-scaling-stroke" cx="241.42" cy="192.803" r="30.876" class="G"/><path d="M209.269 199.533c-.921-3.879-.498-9.338.022-13.245 1.348-10.417 7.051-19.773 15.693-25.744a11.3 11.3 0 0 1 5.631-2.237c2.044-.086 4.259 1.009 4.887 2.956 1.041-2.598 3.11-4.65 5.716-5.669a17.87 17.87 0 0 1 8.137-1.096 29.74 29.74 0 0 1 24.808 17.734c.825 1.959 3.128-5.277 4.173-3.426a8.23 8.23 0 0 0 4.667 4.1c2.048.572 2.879 9.007 3.685 7.04 1.271 2.955.938 6.354-.881 9.007s-4.87 4.188-8.084 4.068c-2.084-.078-4.076-.845-6.135-1.175a15.3 15.3 0 0 0-16.748 11.449 20.26 20.26 0 0 0-2.667-5.932 6.86 6.86 0 0 0-5.503-3.023c-2.109.242-4.025 1.343-5.295 3.044-1.359 1.596-2.38 3.458-3.75 5.045-4.018 4.658-9.452 15.521-15.178 14.728-4.518-.625-11.921-12.326-13.178-17.624z" class="C"/><path d="M304.776 418.029a12.14 12.14 0 0 0 7.837-6.64c1.501-3.263 1.479-7.024-.06-10.271l26.161-85.289-19.242-3.814-23.927 83.601a12.21 12.21 0 0 0-5.34 15.306c2.355 5.719 8.615 8.772 14.571 7.107h0z" class="B"/><path d="M340.238 290.911a14.02 14.02 0 0 0-8.723-.53v.018c-.974.234-1.917.583-2.808 1.042-.977.479-1.89 1.079-2.719 1.783a13.74 13.74 0 0 0-4.026 5.58l-12.749 22.214c-.742 1.276-.884 2.813-.389 4.203.484 1.397 1.555 2.514 2.931 3.055l2.755 1.077 13.085 5.139 4.82 1.907 3.25 1.271c1.373.542 2.916.458 4.222-.231s2.247-1.914 2.576-3.354l5.757-24.88c2.835-7.256-.735-15.437-7.982-18.294z" class="D"/><path d="M378.153 674.695h13.32l6.339-51.379h-19.659v51.379h0z" class="B"/><path d="M371.122 697.774h9.553l1.705-9.019 4.367 9.019h25.335c2.493 0 4.696-1.621 5.438-4s-.15-4.966-2.201-6.382l-20.233-13.973v-9.118l-21.28 1.271-2.684 32.202z" class="C"/><path d="M248.608 648.266l11.457 6.795 31.66-40.958-16.909-10.028-26.208 44.191h0z" class="B"/><path d="M230.789 664.531l8.216 4.872 6.067-6.887-.844 9.985 21.791 12.923c2.144 1.272 4.866 1.002 6.718-.667s2.403-4.347 1.361-6.612l-10.274-22.338 4.651-7.843-18.952-9.762-18.734 26.329z" class="C"/><path d="M384.098 346.185l6.473 41.266-61.494.809 8.092-39.647 46.929-2.428h0z" class="B"/><g class="D"><path d="M390.808 386.929l17.564 42.597 1.279 113.913-14.988 108.763h-16.587l-6.796-106.99-16.715-73.207-16.486 76.567-51.259 74.943h-25.189l46.309-82.585 5.359-89.962s-3.34-38.165 13.756-60.685l4.161-12.022 59.592 8.668zm.851-78.748l-.159-1.13c-2.767-18.537-20-31.349-38.548-28.66a34.75 34.75 0 0 0-21.437 11.99v.018c-.283.336-.548.689-.812 1.042-.477.6-.919 1.236-1.342 1.872-3.828 5.783-5.799 12.596-5.651 19.53v.017a33.66 33.66 0 0 0 1.112 7.911 126.64 126.64 0 0 1 2.773 13.721 141.83 141.83 0 0 1 1.077 8.617 119.5 119.5 0 0 1 .388 4.167v.018c.53 6.728.707 12.767.866 17.446l.264 6.286c.004.107.015.214.036.318a5.36 5.36 0 0 0 1.342 2.932 2.57 2.57 0 0 0 .3.317 6.31 6.31 0 0 0 2.755 1.448c.354.071.715.107 1.077.106h.106l10.294-4.803 8.123-3.778 27.565-12.856a5.55 5.55 0 0 0 5.121-3.708v-.018c.035-.141.088-.282.123-.441 1.484-5.845 4.115-12.114 5.051-22.196.123-1.448.229-2.949.282-4.556v-.018a104.14 104.14 0 0 0-.706-15.592h0z"/></g><g class="B"><circle vector-effect="non-scaling-stroke" cx="353.377" cy="246.807" r="26.001"/><path d="M405.578 425.256a12.14 12.14 0 0 0 .018-18.613l-11.788-88.429-19.08 4.557 13.115 85.963c-3.653 4.99-2.996 11.923 1.529 16.139s11.487 4.38 16.206.383h0z"/></g><path d="M404.828 333.23l-2.732-13.27-1.463-7.092-.949-4.627a13.98 13.98 0 0 0-1.432-5.458c-2.961-6.004-9.731-9.104-16.211-7.423s-10.889 7.681-10.558 14.368l-2.342 25.506a5.09 5.09 0 0 0 1.416 3.988c1.028 1.061 2.466 1.624 3.941 1.542l2.949-.165 4.652-.262 4.171-.224.016.007 7.743-.442 2.626-.134 3.485-.199c1.475-.091 2.838-.816 3.737-1.989s1.246-2.678.951-4.126h0z" class="D"/><g class="C"><path d="M337.519 225.593v.018c.002 1.131-.142 2.258-.43 3.352l-.164.585v.009c-1.242 3.96-4.267 7.111-8.175 8.512-.283.11-.575.201-.867.283a11.83 11.83 0 0 1-1.882.384c-.572.081-1.148.121-1.726.119a13.27 13.27 0 0 1-1.352-.064c-1.051-.107-2.085-.343-3.078-.704a3.87 3.87 0 0 1-.456-.164c-.075-.026-.148-.057-.22-.091a13.26 13.26 0 0 1-7.268-7.507c-1.293-3.392-1.139-7.166.427-10.441l.009-.009c.65-1.359 1.531-2.596 2.604-3.653a13.2 13.2 0 0 1 9.334-3.855c.174-.003.348.003.521.019 4.083.168 7.863 2.206 10.248 5.525a13.12 13.12 0 0 1 2.137 4.713c.224.974.337 1.97.338 2.969z"/><path d="M322.235 217.561c-2.388-8.999-10.269-15.46-19.562-16.036s-17.912 4.861-21.393 13.497c-2.845 7.057-1.802 15.065-3.506 22.48-3.102 13.499-16.295 23.961-30.145 23.906l25.776 10.386c2.853 1.15 5.889 2.321 8.921 1.807 4.485-.76 7.606-5.044 8.87-9.414s1.161-9.011 1.96-13.489c2.108-11.17 9.591-20.58 20-25.148 2.902-1.24 6.127-2.175 8.179-4.572s1.938-6.922-1.036-7.978m43.707 4.665c-3.497-7.64-12.722-6.086-21.064-5.078s-15.692 6.886-19.424 14.414-4.07 16.469-1.921 24.591c1.446 5.465 4.102 10.798 8.507 14.341s25.115 11.921 26.839 4.706c-2.155 9.413 2.18 7.94 8.598 15.154 3.324-9.985 4.883-28.8 8.207-38.786l1.501-4.509c1.055-3.168 2.111-6.342 2.873-9.593.957-4.084 1.326-8.768-1.211-12.109s-8.928-3.47-10.21.524"/></g><path d="M359.82 249.462l-1.111-7.076c.755-8.799-.478-22.797 5.297-24.721l3.532 3.532c-2.234.744-6.483 13.904-7.718 28.265z" fill="#ff6584"/><path d="M302.594 430.157c-2.899-.109-5.6-1.497-7.376-3.789a9.8 9.8 0 0 1-1.83-8.088l-29.722-18.154 16.378-7.7 25.713 18.419c4.798 1.382 7.803 6.134 6.996 11.061s-5.172 8.472-10.159 8.251h0z" class="G"/><path d="M285.79 415.915l-69.671-41.716-.045-.163-23.933-86.502c-1.922-14.626 7.895-28.213 22.385-30.981h0a27.82 27.82 0 0 1 32.935 25.381l5.142 73.271 41.534 45.384-8.347 15.326z" class="E"/><path d="M405.467 221.415l-10.443 2.871c-3.415.934-6.942-1.072-7.884-4.484l-13.171-47.918a6.42 6.42 0 0 1 4.483-7.884l10.444-2.87a6.42 6.42 0 0 1 7.883 4.483l13.172 47.919a6.42 6.42 0 0 1-4.484 7.883z" class="D"/><g class="E"><path d="M377.902 166.78a3.46 3.46 0 0 0-2.416 4.248l13.172 47.919a3.46 3.46 0 0 0 4.248 2.416l10.443-2.871a3.46 3.46 0 0 0 2.417-4.248l-13.172-47.918a3.46 3.46 0 0 0-4.248-2.416l-10.444 2.87zM223.707 480.241c-3.866-7.158-4.405-16.539.341-23.145 2.348 8.529 7.637 15.953 14.931 20.958 2.82 1.921 6.157 3.763 7.122 7.035a8.38 8.38 0 0 1-.874 6.15 24.86 24.86 0 0 1-3.861 5.041l-.137.512c-6.998-4.147-13.656-9.393-17.522-16.551z"/></g><path d="M519.081 699.377h-882.472a.92.92 0 0 1-.796-1.379.92.92 0 0 1 .796-.46h882.472a.92.92 0 0 1 .919.92.92.92 0 0 1-.919.919h0z" fill="#ccc"/><g opacity=".2"><path d="M221.788 311v59.614l41.878 32.055L218.788 382l3-71h0z"/></g><g opacity=".2"><path d="M376.177 335.991l-6.183 47.911 17.649 23.52-11.466-71.431h0z"/></g></g></svg>