<svg xmlns="http://www.w3.org/2000/svg" xmlns:xlink="http://www.w3.org/1999/xlink" viewBox="0 0 960 1080" xmlns:v="https://vecta.io/nano"><style><![CDATA[.R{fill:#a96443}.S{fill:#1d2538}.T{fill:#33a86d}.U{fill:#f5894e}.V{fill:#f7bc4b}.W{fill:#273252}.X{fill:#288453}.Y{fill:#7a462f}.Z{fill:#665070}.a{fill:#856792}.b{fill:#feed7f}.c{fill:#121721}.d{fill:#992c29}]]></style><path d="M660.93 214.93l244.48-95.17c14.77-4.92-34.46-44.3-136.19-16.41 0 0-29.53-34.46-77.12-3.28-47.58 31.17-54.15 80.4-34.46 83.68 0 0-62.35 27.89-65.63 44.3-3.27 16.41 68.92-13.12 68.92-13.12zM278.61 568.32l579.66-248.58c30.12-11.52 25.43-30.91 16.57-38.88s-59.09-28.44-119.33-.98c0 0 17.72-27.46-75.3-5.32s-64.67 34.55-64.67 34.55-25.69-86.81-176.29-43.41c0 0-17.72-73.53-106.3-62.01-88.59 11.52-126.68 93.9-117.82 135.54s27.46 46.06 27.46 46.06-38.09 4.43-45.18 28.35-1.77 24.8-1.77 24.8-77.96 73.53-92.13 96.56-26.58 37.21-3.54 28.35c23.03-8.86 56.7-29.23 56.7-29.23s-31.89 26.58-31.01 33.66c.89 7.09-89.46 73.28-47.82 64.42 41.64-8.85 200.77-63.88 200.77-63.88z" fill="#f3e7d9"/><path d="M612.48 942.31s20.15-35.12 54.72-35.05 45.83 17.42 45.83 17.42 11.84-24.82 32.23-23.85 60.63 42.81 60.63 42.81l-193.41-1.33z" class="Z"/><g class="a"><path d="M346.27 954.58s-138.9 4.8-183.96 10.68c-36.4 4.75-59.08 16.88-61.45 19.78-5.2 6.36 15.56 6.33 15.56 6.33s-33.76.66-39.56 10.68c-6.01 10.38 142.42 0 142.42 0s-45.11 9.92 15.43 11.87c73.58 2.37 214.81 10.68 284.14-8.51 40.7-11.27-1.08-38.57-44.01-38.57s-128.57-12.26-128.57-12.26z"/><path d="M540.91 942.71l138.86-1.19c47.08-.4 129.65.06 145.98 5.14 22.41 6.98-.31 14.51-.31 14.51s26.02 3.9 46.83 5.2 79.35 15.61 23.42 15.61-260.56 9.04-333.41 12.94-63.36 3.97-98.49.07-82.89-39.27 77.12-52.28z"/><path d="M681.81 981.15c-92.1-4.07-146 22.54-47.35 25.04 103.92 2.64 139.44-20.97 47.35-25.04zm-117.61 27.06c-55.33-2.45-87.72 13.54-28.44 15.05 62.43 1.58 83.78-12.6 28.44-15.05z"/></g><path d="M354.13 969.7l-130.04 5.91c-49.15 2.73-3.11 18.65 54.75 14.56 0 0-38.78 11.37 28.41 14.1 67.2 2.73 153.48-5.46 116.98-12.13-30.75-5.62-65.13-1.97-65.13-1.97s69.07-17.44-4.97-20.47zm157 2.41s-68.46 1.64-38.66 12.33c29.8 10.68 75.71 9.04 78.13 1.64s-5.64-4.93-5.64-4.93 42.69 4.93 55.58.82-19.33-13.15-55.58-13.15-33.83 3.29-33.83 3.29z" class="Z"/><path d="M845 923.52s-46.87.98-32.22 6.84 61.52 2.93 58.59-1.95-26.37-4.89-26.37-4.89z" class="a"/><path d="M643.37 949.23s11.73 2.14 26.92 1.38c0 0-6.21 4.4 15.87 3.98 22.09-.42 81.04.34 70.4-9.66-18.82-17.69-35.05-9.83-35.05-9.83s-4.56-9.96-27.54-5.41c-47.72 9.46-50.6 19.54-50.6 19.54z" class="Z"/><path d="M169.44 968.43s17.41-23.74 44.31-22.15 34.81 14.24 34.81 14.24 28.48-25.32 44.31-23.74 36.4 39.16 36.4 39.16l-159.83-7.51z" class="a"/><path d="M294.85 983.04s9.43-15.01 6.73-21.69-13.46 7.48-13.46 7.48 3.85-27.76-8.98-20.94c-11.97 6.36-10.66 23.47-3.74 30.67 6.92 7.19 19.45 4.48 19.45 4.48zm405.23 22.31s-23.98-24.86-10.62-29.31 19.29 19.29 19.29 19.29 11.87-48.97 23.74-41.55-4.45 41.55-4.45 41.55 19.29-31.16 22.26-25.23c2.97 5.94-2.97 19.29-2.97 19.29s38.58-25.23 35.61-11.87c-2.97 13.35-25.23 31.16-57.87 31.16s-24.99-3.33-24.99-3.33z" class="T"/><path d="M354.1 691.03h264.49s46.81 14.63 58.87 69.44c11.39 51.78 6.58 52.61 6.58 52.61l-240.05 15.35c-.01 0-73.45-141.78-89.89-137.4z" class="U"/><path d="M281.76 835.01s-15.83-141.78 74.05-143.98c89.88-2.19 88.17 137.4 88.17 137.4l-162.22 6.58z" class="V"/><path d="M306.65 805.41s-6.92-80.22 49.86-81.43 56.78 78.42 56.78 78.42l-106.64 3.01z" class="Y"/><path d="M315.55 805.41s-2.64-81.43 40.96-81.43c56.79 0 56.78 78.42 56.78 78.42l-97.74 3.01z" class="R"/><path d="M281.76 835.01l27.4 141.4 142.5 10.96-7.68-158.94z" class="V"/><path d="M443.98 828.43l234.57-18.63-2.19 149.07-224.7 28.5z" class="U"/><path d="M428.64 710.05l184.75-5.14s30.28 8.43 42.34 47.89c6.58 19.73 6.58 46.04 6.58 46.04l-194.48 3.73c0-.01-5.21-69.5-39.19-92.52z" class="R"/><path d="M434.76 715.24l172.15-5.14s27.46 6.54 39.52 46c6.58 19.73 7.23 42.74 7.23 42.74l-185.83 3.73c0-.01-7.75-66.76-33.07-87.33zM306.19 847.52s72.18-11.66 122.45-3.75l6.58 119.48-114-7.67-15.03-108.06z" class="Y"/><path d="M315.81 852.7s62.55-11.66 112.82-3.75l6.58 114.3-104.37-7.67-15.03-102.88zm159.96-8.92l10.96 119.48 178.67-18.87V835.86s-24.26-6.07-88.44-4.34c-48.22 1.31-101.19 12.26-101.19 12.26z" class="R"/><path d="M476.16 849.88l10.57 113.37 169.56-18.03V842.89s-15.16-5.43-79.33-3.69c-48.22 1.3-100.8 10.68-100.8 10.68z" class="Y"/><path d="M677.57 812.45l-233.76 7.8 119.28 2.6 115.34-1.73z" fill="#cc6d3d"/><path d="M443.8 820.24l-162.57 8.68 162.69-5.46z" fill="#ce9436"/><path d="M501.75 802.27s10.68-59.93-31.65-93.16l31.25-.2s27.69 18.99 26.9 92.57l-26.5.79z" class="R"/><path d="M511.24 806.23s13.05-66.46-36.79-105.63l27.3.4s36.4 28.48 35.6 102.07l-26.11 3.16z" class="U"/><path d="M574.54 806.23s17.8-57.56-26.9-99.1l27.3-1.38s29.67 25.32 28.88 98.9l-29.28 1.58z" class="R"/><path d="M584.82 806.23s13.05-66.46-36.79-105.63l25.71.4s43.52 25.32 40.35 103.65l-29.27 1.58z" class="U"/><path d="M506.69 838.37s7.62 99.59 6.43 122.14l25.02-2.67-11.77-122.34-19.68 2.87z" class="R"/><path d="M517.18 828.78s7.12 113.93 5.93 136.48l27.3-2.37-11.87-134.11h-21.36z" class="U"/><path d="M585.35 831.29l10.23 120.45 19.84-2.04-6.07-118.68z" class="R"/><path d="M596.69 828.38l9.5 129.76 21.36-3.56-7.12-128.17z" class="U"/><path d="M310.27 793.31l102.37-2.71-1.62-10.74-100.22 2.9zm5.15-22.68l91.78-4.35s-1.58-6.53-2.37-7.71c-.79-1.19-88.62 2.57-88.62 2.57l-.79 10.09m8.31-23.35l73.38-2.77s-2.18-4.15-4.35-5.74l-67.05 1.38-1.98 7.13zm7.12 100.81l11.67 108.13 9.95.6-9.49-110.84zm35.34 109.72L358.27 845l12.66-.53L375.29 959zm24.79 1.71l-7.52-114.92 13.06-.4 3.56 115.91zM408.71 845l5.94 116.9 10.48.59-3.56-117.09z" class="Y"/><path d="M443.99 725.53l44.11-1.38 7.52 11.87-44.31 2.97-3.86-7.81-3.46-5.65zm11.87 24.82l41.93-2.27 4.75 14.63-42.33 1.98zm73.58-3.95l43.91-2.67 3.69 14.76-43.78 1.72zm-66.07 30.56l41.15-.8v13.55l-38.57.2zm72.4-3.56l46.68-.8.79 14.91-46.15 1.58zm-16.48-50.25l41.4-2.37 8.57 12.92-44.17 1.32zm72.79-4.08l35.08.13 8.97 12.4-36 .13-4.22-6.99c-1.86-3.17-3.83-5.67-3.83-5.67zm12.79 22.94l36-1.19 7.51 18.6-39.03-.93zm8.17 32.31l39.56-1.06 3.7 15.83-41.94.39zM495.68 845l8.44 116.41-11.87 1.27-10.55-117.94zm78.07-9.36l6.26 117.76-17.21 1.78-6.72-117.7zm73.05-.66l1.06 111.16-11.61 1.06-3.16-112.75z" class="R"/><path d="M572.51 768.9l-5.24.05s-22.39 31.35-51.3 42.05c0 0 20.24 34.98 54.49 59.7l6.25-.18-4.2-101.62z" fill="#cc6d3d"/><path d="M614.39 806.08s-24.9-9.9-41.94-37.22c0 0-20.97 35.2-44.92 43.87 0 0 16.64 32.81 48.71 57.53 0 0 34.09-28.19 38.15-64.18z" class="V"/><path d="M616.21 807.01s-24.41-9.09-41.12-34.16c0 0-25.87 41.02-40.11 40.23s66.33 25.31 66.33 25.31c5.95-9.03 13.5-19.76 14.9-31.38z" class="b"/><g class="W"><ellipse cx="576.58" cy="813.31" rx="10.84" ry="11.27"/><use xlink:href="#B"/></g><g class="c"><ellipse cx="573.02" cy="813.31" rx="10.84" ry="11.27"/><use xlink:href="#B" x="-3.56"/></g><path d="M677.4 649.57l-16.62 33.23 16.62 21.36 14.24-21.36z" class="b"/><path d="M244.44 797.92l-19.87 39.74 19.87 25.54 17.03-25.54z" class="V"/><path d="M260.44 685.18l-11.2 22.39 11.2 14.4 9.59-14.4zm164.96 35.6l-11.19 22.39 11.19 14.4 9.6-14.4zm191.76 16.37l-11.2 22.4 11.2 14.4 9.6-14.4zM484.56 853.7l-15.9 31.79 15.9 20.43 13.62-20.43zm227.85-128.17l-15.74 31.49 15.74 20.25 13.5-20.25z" class="b"/><path d="M199.65 624.65l-14.78 59.29 14.78 41.59 14.66-41.59zm515.72-51.03l-24.92 49.84 24.92 32.05 22.55-33.24z" class="V"/><g class="T"><ellipse cx="302.91" cy="914.49" rx="6.65" ry="5.78"/><ellipse cx="304.5" cy="932.06" rx="6.65" ry="5.78"/><path d="M297.2 950.99c-5.3-.53-.58-13.3 6.94-12.14s0 8.67 0 8.67-1.16 4.05-6.94 3.47zm4.19-22.76s4.55-3.25-.22-7.59-8.46-2.6-8.46 4.12c.01 6.72 2.83 6.94 8.68 3.47zm7.59 27.75c-.87-3.25-8.02-7.15-9.54.65-1.52 7.81 8.24 8.02 9.32 4.34s.22-4.99.22-4.99zm9.86 14.58c-1.44-4.11-13.31-9.04-15.83.82s13.67 10.14 15.47 5.48.36-6.3.36-6.3zm356.22-61.2c-11-.55-18.14 16.64-7.1 18.81 11.04 2.18 18.1-18.26 7.1-18.81z"/></g><path d="M685.31 899.5c3.15-10.46-14.19-11.41-14.98-3.8s11.82 14.26 14.98 3.8zm-20.04 45.89c3.15-10.46-14.19-11.41-14.98-3.8-.8 7.61 11.82 14.26 14.98 3.8z" class="X"/><g class="T"><path d="M658.52 963.22c2.29-7.6-10.32-8.3-10.89-2.77-.58 5.53 8.6 10.37 10.89 2.77z"/><path d="M669.07 961.64c2.29-7.6-10.32-8.3-10.89-2.77-.58 5.53 8.6 10.37 10.89 2.77z"/></g><g class="X"><path d="M681.12 888.76c7.37-2.68-4.13-15.68-8.45-12.64-4.33 3.04 1.07 15.32 8.45 12.64zm-19.35-3.17c5.66 5.43 9.25-4.77 4.62-7.3-4.64-2.54-10.29 1.87-4.62 7.3z"/><use xlink:href="#C"/><path d="M671.88 816.84c5.66 5.43 9.25-4.77 4.62-7.3-4.63-2.54-10.28 1.87-4.62 7.3z"/><use xlink:href="#D"/><use xlink:href="#C" x="-5.27" y="-49.06"/><use xlink:href="#D" x="-153.23" y="10.02"/><use xlink:href="#D" x="-143.73" y="-0.66"/><use xlink:href="#D" x="-143.73" y="11.61"/><use xlink:href="#C" x="-176.57" y="-33.63"/></g><path d="M672.6 962.3s3.47-19.95 14.74-18.21c11.27 1.73 3.47 17.35-4.34 19.95-7.8 2.6-10.4-1.74-10.4-1.74z" class="T"/><path d="M671.09 952.37s-6.79-11.71-.26-15.67 9.23 7.4 6.34 12.09-6.08 3.58-6.08 3.58zm-240.55-32.21s-5.93 21.36 5.93 16.62 7.12-22.55-5.93-16.62zm9.49-13.05s-1.19 16.62 9.49 9.49c10.69-7.12.01-15.42-9.49-9.49zm-4.74-22.55s2.37 18.99 10.68 9.49c8.3-9.49-8.31-17.8-10.68-9.49zm-115.52 93.76s-2.37-26.11 7.12-26.11 2.37 23.74 2.37 23.74 16.62-23.74 21.36-11.87c4.75 11.87-20.17 26.11-30.85 14.24zm176.04-3.96s-3.96-14.64 5.93-22.15 7.12 13.05 7.12 13.05 8.31-17.8 18.2-12.26-1.98 22.15-1.98 22.15 8.92-3.63 9.89 5.14-56.18 15.03-51.03-1.58 11.87-4.35 11.87-4.35z" class="X"/><g class="T"><path d="M492.33 993.54c7.49-3.05-13.79-41.14-30.94-51.91s-10.7 32.4 1.69 43.63 21.76 11.33 29.25 8.28z"/><path d="M477.89 994.25s-25.67-20.01-44.19-21.6-5.13 14.24-5.13 14.24-18.98-6.35-25.11 3.28c-6.12 9.64 74.43 4.08 74.43 4.08zm33.73-4.14c1.72-2.76 1.72-11.52-10.95-11.6s-17.05 11.04-13.02 14.36c4.04 3.32 22.25 0 23.97-2.76zm-52.18 48.9s-5.97-3.86-17.28-2.39c-11.18 1.45-15.32 3.95-7.3 6.22 5.16 1.46 20.62 1.58 24.58-3.83z"/></g><path d="M416.3 1022.23s-5.97-3.86-17.28-2.39c-11.18 1.45-15.32 3.95-7.3 6.22 5.15 1.46 20.62 1.58 24.58-3.83z" class="X"/><path d="M441.98 1028.74s-5.97-3.86-17.28-2.39c-11.18 1.45-15.32 3.95-7.3 6.22 5.15 1.46 20.62 1.57 24.58-3.83zm-24.66 5.13s-5.97-3.86-17.28-2.39c-11.18 1.45-15.32 3.95-7.3 6.22 5.16 1.46 20.63 1.58 24.58-3.83z" class="T"/><g class="X"><path d="M331.97 1032.31s-6.34-4.66-18.94-3.79c-12.45.86-17.19 3.35-8.48 6.39 5.61 1.96 22.69 3.11 27.42-2.6zm46.92 2.83s-6.34-4.66-18.94-3.79c-12.45.86-17.19 3.35-8.48 6.39 5.61 1.95 22.69 3.11 27.42-2.6zm-26.41-10.19s-4.96-3.65-14.84-2.97c-9.75.67-13.47 2.62-6.64 5.01 4.39 1.53 17.77 2.44 21.48-2.04z"/><path d="M353.51 1036.14s-6.34-4.66-18.94-3.79c-12.45.86-17.19 3.35-8.48 6.39 5.61 1.96 22.69 3.11 27.42-2.6z"/></g><path d="M511.68 615.05s43.8 12.58 39.46 43.36c-4.34 30.79-12.58 23.85-12.58 23.85s14.31-2.6 22.98 2.6 2.17 7.81 2.17 7.81l-107.07 3.04s4.74-21.25 15.58-43.8c10.85-22.55 39.46-36.86 39.46-36.86zm36.34-232.79s.58-17.74 2.93-30.94c2.25-12.62 8.01-5.62 13.15 5.04 5.39 11.18 8.52 29.39 9.59 33.67 1.07 4.29-21.32 7.1-25.67-7.77zm52.48 305.59c-1.02-6.82-12.3-12.93-12.3-12.93-.45-1.5-2.19-5.86-2.19-5.86s-10.49-40.33-10.37-45.39l2.85-104.65c.91-24.13-43.83 14-46.22 37.58-1.7 16.82 18.01 75.07 18.5 76.32l14.45 45.68c1.69 4.28 10.61 15.63 16.19 15.03 5.6-.59 20.09.89 19.09-5.78z" class="S"/><path d="M531.12 507.17c-13.69-1.85-54.2-11.27-54.2-31.65 0-23.91-.64-50.29 3.35-64.52 0 0-4.62-24.04-5.44-37.34-.81-13.3 2.41-14.67 8.38-9.59s16.95 24.65 16.95 24.65 26.98-19.15 53.53-14.53 37.83 19.14 43.15 32.58l.97.84s24.32 6.26 37.94 8.38 18.9 7.58 16.49 22.25-3.71 18.29-10.15 25.01c-6.43 6.72-38.77 21.66-55.43 28.35l-10.88 23.6c-9.56 4.22-30.97-6.17-44.66-8.03z" class="W"/><path d="M509.96 500.62s-35.33 9.41-35.44-14.5 1.75-60.9 5.74-75.13c0 0-4.62-24.04-5.44-37.34-.81-13.3 2.41-14.67 8.38-9.59s16.95 24.65 16.95 24.65 26.98-19.15 53.53-14.53c0 0-27.44 20.29-35.78 33.3s-2.27 61.75-2.27 61.75 25.36 16.23 24.15 19.28c-3.85 9.73-29.82 12.11-29.82 12.11z" class="S"/><path d="M554.07 381.19l-.53-28.5c-.1-12.82 7.47-7.26 12.62 3.4 5.39 11.18 9.68 22.97 10.75 27.25 1.08 4.28-21.15 8.56-22.84-2.15zm7.81 120.43s-84.78-25.23-93.63-16.99c-18.65 17.35-31.11 35.4-62.01 85.43-9.11 14.74-26.89 21.25-41.19 52.9-12.45 27.54 1.33 61.48 11.3 68.42 7.91 2.9 74.37 1.58 91.78-22.02 16.44-22.29 29.39-31.63 71.08-73.32 15.82-15.82 24.76-26.28 29.8-41.41 8.66-26.02 7.94-47.42-7.13-53.01z" class="W"/><path d="M511.61 503.27s-34.51-26.88-43.36-18.65c-18.65 17.35-31.11 35.4-62.01 85.43-9.11 14.74-26.89 21.25-41.19 52.9-12.45 27.54 1.37 61.52 11.35 68.46 0 0 8.6-34.63 21.17-53.28 12.58-18.65 96.27-86.73 96.27-86.73 17.33-19.51 32.84-42.53 17.77-48.13z" class="S"/><ellipse transform="matrix(.9364 -.351 .351 .9364 -111.4607 249.755)" cx="633.21" cy="432.34" rx="18.53" ry="13.81" class="c"/><path d="M542.63 691.9c-1.24-8.64-15.34-18.21-15.34-18.21-.53-1.89-.3-5.17-.62-7.1-4.47-26.85-9.59-43.4-9.49-49.85.2-13.39-.46-44.29.4-75.03s-60.1-3.05-53.58 21.84l18.37 67.04 28.1 58.89c2 5.38 3.74 9.26 10.28 9.03 11.85-.41 23.09 1.84 21.88-6.61z" class="S"/><path d="M528.6 674.55c-.53-1.89-3.36-5.65-3.69-7.59-4.47-26.85-9.56-39.77-10.19-46.18-1.9-19.47 3.24-102.55 3.24-102.55l-20.57 32.24-1.71 76.95 22.3 61.01c2 5.38 16.95 8.47 23.2 6.5 7.59-2.38-12.58-20.38-12.58-20.38z" class="W"/><path d="M558.95 494.19s17.92 2.57 27.72-2.6c12.84-4.99 34.29-15.56 34.29-15.56l-36.4 5.01-25.61 13.15z" class="S"/><path d="M473.64 469.04s-5.62 8.37-6.21 15.03c0 0 23.85 11.53 65.14 23.12 22.13 6.21 47.12 10.69 47.12 10.69l5.78-17.92c0-.02-63.53-6.56-111.83-30.92z" class="d"/><path d="M548.55 406.36l-10.12.22c-.97 2.67-.23 6.71 2.17 10.42 3.27 5.06 8.38 7.58 11.41 5.62s2.84-7.65-.43-12.71c-.9-1.4-1.94-2.59-3.03-3.55zm41.59-5.79c-1.68-2.61-4.07-4.3-6.28-4.72l-4.94 7.95c.32 1.03.8 2.07 1.45 3.08 2.61 4.05 6.92 5.91 9.61 4.17 2.71-1.75 2.78-6.44.16-10.48z" class="c"/><path d="M420.55 602.57s30.35 1.73 34.69 25.15 1.73 48.57 1.73 48.57 12.14-22.55 4.34-51.17c-7.81-28.62-40.76-22.55-40.76-22.55z" class="S"/><path d="M468.76 675.71s14.17 4.05 25.73 9.25 17.35 19.66 8.67 22.55c-8.67 2.89-60.75-10.07-60.75-10.07l-33.63-5.54c0 0 20.66-27.75 59.98-16.19z" class="W"/><path d="M578.79 500.16s18.25 25.95 19.57 35.79l-18.29-2.27c0 0-6.71-17.11-1.28-33.52z" class="d"/><path d="M578.54 500.8s20.59-4.45 29.49-.75l1.73 24.95c0 .01-24.71-15.57-31.22-24.2z" fill="#c94039"/><path d="M578.54 500.8c5.13 8.51 31.22 24.2 31.22 24.2s-6.66-14.42-10.05-16.56c-3.39-2.13-21.17-7.64-21.17-7.64z" class="d"/><path d="M374.04 681.1s-20.62 8.43-26.6 24.86c-6.94 19.08-3.47 58.4 29.49 56.66 0 0-18.27-22.18-15.03-41.05 3.47-20.24 13.6-27.84 14.51-31.57.92-3.74-2.37-8.9-2.37-8.9z" class="S"/><defs ><path id="B" d="M577.17 842.36h-.68c-1.97 0-3.56-1.59-3.56-3.56v-27.14c0-1.97 1.59-3.56 3.56-3.56h.68c1.97 0 3.56 1.59 3.56 3.56v27.14c0 1.97-1.6 3.56-3.56 3.56z"/><path id="C" d="M672.41 859.57c5.66 5.43 9.25-4.77 4.62-7.3-4.64-2.54-10.28 1.87-4.62 7.3z"/><path id="D" d="M659.75 815.52c5.66 5.43 9.25-4.77 4.62-7.3s-10.28 1.87-4.62 7.3z"/></defs></svg>