<svg xmlns="http://www.w3.org/2000/svg" width="782.4" height="665.6" xmlns:v="https://vecta.io/nano"><g fill="#f1f1f1"><path d="M688 640.8a58 58 0 0 0 27.3 24.1s4.8-19.5-3.7-36.2-27.3-24-27.3-24-4.8 19.5 3.7 36.2z"/><path d="M694 635.5a58 58 0 0 1 21.6 29.2s-20 3-35.7-6.8-21.6-29.2-21.6-29.2 20-3 35.7 6.8z"/></g><path fill="#ffb7b7" d="M471.6 653.4h-11l-5.3-42.8h16.4v42.8z"/><path d="M474.4 664.2h-35.8v-.5a14 14 0 0 1 13.9-13.9h0 22z" fill="#2f2e41"/><path fill="#ffb7b7" d="M540.4 653.4h-11l-5.3-42.8h16.4v42.8z"/><path d="M543.2 664.2h-35.8v-.5a14 14 0 0 1 13.9-13.9h0 22z" fill="#2f2e41"/><path d="M508.2 412l-21.8-44 5.6-36.5-26.3-7.2-2.7 49 34 46.3c-.7 4.8 2.6 9.3 7.4 10.2a9 9 0 0 0 10.4-7c1-4.7-2-9.5-6.7-10.7zm47.2 0l21.8-44-5.6-36.5 26.3-7.2 2.7 49-34 46.3c.7 4.8-2.6 9.3-7.4 10.2a9 9 0 0 1-10.4-7c-1-4.7 2-9.5 6.7-10.7z" fill="#ffb7b7"/><circle cx="540.8" cy="238" r="23.9" fill="#ffb9b9"/><path d="M517 238s-2.6-4-1.6-8c.6-2.4.8-4.8.7-7.3a72 72 0 0 1 4.2-10.6c2-3.8 1-5.4 7.7-6.6s4-9.8 21.2-.5a5 5 0 0 0 5.3 2c3.6-.7 5 4.3 5 4.3s2.4-1.4 3.3.6 7.3-1.2 7.3 12.3-7.3 25.5-7.3 25.5-5 16-17 13.8-13.6-1-21.7-16.3c-1.7 4.8-4.2-13.5-7-9.2zm-28.7 154.4l-2.8 11s-13 6.3-18.3 63l-7 85-10.7 89 22.3 1.7 15.5-56.4L520.7 467l6.3 89.7-7 81.3 23.5 1 16.3-90.6s25-132.7 9-136.5l-1.6-13.8z" fill="#2f2e41"/><g fill="#3f3d56"><path d="M483.2 290.3l38.4-21.2 32.6 1.7 39 23L577 395.3s9.3 10.4-18.8 7.4-73.6-5.5-73.6-5.5-3.7-7.3 4.2-8.3 1.3-.8 1.3-.8-4.7-15.2 0-18l2.3-31z"/><path d="M493.8 292l-10.6-1.6-22.5 40 36.5 16-3.4-54.6zm87 7l12.5-5.2 12.4 56.4-33.7 6.4 8.8-57.6z"/></g><path d="M292.4 665.6h489a1 1 0 1 0 0-2h-489a1 1 0 1 0 0 2z" fill="#cbcbcb"/><path fill="#fff" d="M113 397.6h127v64H113z"/><path d="M128 414h97v3.3h-97zm0 14h97v3.3h-97zm0 14h97v3.3h-97z" fill="#3729c1"/><path d="M241 462.6H112v-66h129zm-127-2h125v-62H114z" fill="#3f3d56"/><path d="M148.7 318c-27 0-53.2-7.5-76-21.6l-.6-.4.4-.6 76-123h145.2v.7a145 145 0 0 1-144.8 144.8z" fill="#3729c1"/><path d="M55.6 266l-.5-.3c-53.3-33-71-102-39.8-156.5l.3-.5 101.4 58z" fill="#f1f1f1"/><path d="M293.5 153.3H148L179.3 11l.7.1a145 145 0 0 1 113.6 141.4z" fill="#3729c1"/><path d="M124.7 131L26 74.5l.3-.5a113 113 0 0 1 122.4-54.2l.5.1z" fill="#f1f1f1"/><path fill="#fff" d="M367 1h127v64H367z"/><path d="M382 17.4h97v3.3h-97zm0 14h97v3.3h-97zm0 14h97v3.3h-97z" fill="#3729c1"/><g fill="#3f3d56"><path d="M495 66H366V0h129zm-127-2h125V2H368zM175.8 232h2v164.6h-2z"/><path d="M216.4 101l150-68 .8 1.8-150 68z"/></g></svg>