<?xml version="1.0" encoding="UTF-8" standalone="no"?><!-- Generator: Gravit.io --><svg xmlns="http://www.w3.org/2000/svg" xmlns:xlink="http://www.w3.org/1999/xlink" style="isolation:isolate" viewBox="0 0 960 1080" width="960pt" height="1080pt"><defs><clipPath id="_clipPath_TtASQugeIBimCIZhMbNSVa8tWjfz8X1x"><rect width="960" height="1080"/></clipPath></defs><g clip-path="url(#_clipPath_TtASQugeIBimCIZhMbNSVa8tWjfz8X1x)"><path d=" M 724.37 505.62 C 724.37 505.62 718.43 464.03 756.46 449.77 C 756.46 449.77 799.24 467.6 799.24 467.6 C 799.24 467.6 827.76 417.69 858.66 430.76 C 858.66 430.76 881.24 474.73 881.24 474.73 C 881.24 474.73 894.31 458.09 902.63 466.41 C 902.63 466.41 885.99 493.74 837.27 512.76 C 788.55 531.77 632.86 573.37 632.86 573.37 L 724.37 505.62 L 724.37 505.62 Z  M 384.71 492.41 C 384.71 492.41 179.22 537.65 115.32 546.29 C 115.32 546.29 35.09 567.19 69.84 530.75 C 69.84 530.75 137.64 486.4 137.64 486.4 C 137.64 486.4 88.89 432.95 154.2 383.91 C 180.3 364.32 230.02 410.6 230.02 410.6 L 327.72 365.48 L 375.83 343.26 L 417.9 323.83 C 417.9 323.83 401.38 276.41 411.82 234.54 C 422.43 192.02 474.43 171.32 525.12 206.53 C 525.12 206.53 523.37 132.97 569.44 106.55 C 615.51 80.13 698.22 97.16 729.8 127.28 C 761.38 157.4 766.01 219.02 740.05 292.45 C 740.05 292.45 786.27 272.36 806.91 308.28 C 827.55 344.2 729.54 382.93 678.57 403.13 C 627.63 423.33 384.71 492.41 384.71 492.41 L 384.71 492.41 Z " fill="rgb(255,255,255)" fill-opacity="0.3"/><path d=" M 680 992 C 675 990 519 1006 470 998 C 421 990 394 973 386 973 C 378 973 429 930 429 930 L 362 957 L 305 960 C 299 960 169 954 161 954 C 153 954 156 950 158 948 C 160 946 143 942 143 937 C 143 932 149 927 154 925 C 159 923 152 918 161 909 L 171 899 C 171 899 170 890 178 878 C 178 878 198 863 198 863 C 198 863 236 834 238 834 C 238 834 454 794 454 794 C 454 794 490 795 502 793 C 502 793 514 789 524 789 C 524 789 558 796 565 799 C 565 799 582.86 804.21 563.86 808.21 C 563.86 808.21 529.05 817.7 529.05 817.7 L 585.62 823.24 L 609.36 830.36 L 681.76 828.78 C 681.76 828.78 780.01 839 796.01 839 C 812.01 839 820.81 840.85 819.03 842.43 C 817.24 844.01 808 849 808 849 C 808 849 813.88 848.36 825.15 852.71 C 839.18 858.13 834 869 834 869 C 834 869 881.53 890.36 899.99 903.55 C 910.85 911.3 890 930 877 932 C 864 934 736 979 721 983 C 706 987 680 992 680 992 Z " fill="rgb(22,7,62)"/><path d=" M 567.02 924.91 C 567.02 924.91 549.22 932.56 685.31 951.02 C 752.92 960.19 807.95 953.79 875.2 933.61 C 889.8 929.23 928.97 903.96 874.67 892.99 C 831.74 884.32 696.92 888.53 678.58 891.67 C 637.04 898.8 567.02 924.91 567.02 924.91 Z  M 490.73 803.02 C 485.8 807.17 478.29 813.12 469.44 818.98 L 496.99 810.98 C 507.35 808.47 501.53 805.59 490.73 803.02 Z  M 446.36 795.95 L 211.37 837.09 L 245.4 845 C 245.4 845 261.53 852.2 289.11 854.82 C 291.76 853.23 295.73 851.89 301.72 851.35 C 321.1 849.61 380.9 835.01 380.9 835.01 C 363.21 843.63 339.28 850.64 319.62 855.51 L 323.74 855.28 C 356.15 853.15 411.38 836.76 452.09 824.3 C 457.55 819.67 465.74 813.74 477.24 807.81 L 487.81 802.35 C 471.18 798.76 446.36 795.95 446.36 795.95 L 446.36 795.95 Z " fill="rgb(4,7,45)"/><path d=" M 499.36 784.79 C 499.36 784.79 527.29 770.77 559.9 772.6 C 583.63 773.94 570.19 779.33 570.19 779.33 C 570.19 779.33 603.16 783.29 581.33 790.21 C 547.34 800.98 469.29 812.19 469.29 812.19 L 499.36 784.79 L 499.36 784.79 Z " fill="rgb(29,37,56)"/><path d=" M 505.31 825.22 C 505.31 825.22 447.16 839.46 480.39 839.46 C 480.39 839.46 572.96 834.71 569.4 834.71 C 569.4 834.71 505.31 825.22 505.31 825.22 L 505.31 825.22 Z  M 430.54 953.4 C 430.54 953.4 391.38 959.33 409.18 967.64 C 409.18 967.64 454.28 964.08 454.28 964.08 L 430.54 953.4 L 430.54 953.4 Z  M 317.79 926.1 L 334.41 929.66 C 340.34 930.85 330.85 943.9 315.42 943.9 C 299.99 943.9 277.44 937.97 292.87 932.03 C 308.3 926.09 317.79 926.1 317.79 926.1 Z " fill="rgb(4,7,45)"/><path d=" M 583.24 816.91 C 583.24 816.91 621.35 800.03 647.91 797.94 C 647.91 797.94 697.57 801.88 697.57 801.88 C 697.57 801.88 688.33 820.36 665.23 821.45 C 642.14 822.55 583.24 816.91 583.24 816.91 L 583.24 816.91 Z  M 828.62 921.42 C 828.62 921.42 820.86 929.18 829.91 930.48 C 838.97 931.77 879.08 922.72 879.08 922.72 C 879.08 922.72 882.96 907.19 868.73 909.78 C 854.5 912.37 828.62 921.42 828.62 921.42 L 828.62 921.42 Z  M 806.78 896.5 C 813.85 895.77 849.75 900.77 852.55 904.51 C 855.36 908.26 797.31 922.3 786.07 921.36 C 774.83 920.42 776.81 905.24 781.8 903.15 C 786.79 901.06 799.71 897.23 806.78 896.5 Z " fill="rgb(29,37,56)"/><path d=" M 788.08 945.68 C 788.08 945.68 830.68 951.13 837.49 951.24 C 844.31 951.34 839.19 970.45 796.6 977.79 C 754 985.13 725.04 975.09 740.37 967.33 C 755.71 959.57 788.08 945.68 788.08 945.68 L 788.08 945.68 Z  M 697.57 956.96 C 697.57 956.96 721.82 959.87 725.7 959.87 C 725.7 959.87 726.67 971.51 702.42 976.36 C 702.42 976.36 661.69 975.39 670.41 970.54 C 679.15 965.68 697.57 956.96 697.57 956.96 L 697.57 956.96 Z  M 788.96 867.95 C 794.89 865.58 803.2 860.83 821 865.58 C 838.8 870.33 819.81 878.63 819.81 878.63 C 819.81 878.63 767.59 886.94 760.47 879.82 C 758.1 877.44 783.02 870.32 788.96 867.95 L 788.96 867.95 Z " fill="rgb(4,7,45)"/><path d=" M 180.52 869.52 C 180.52 869.52 164.7 853.85 149.93 858.87 C 135.16 863.88 139.38 878.3 139.38 878.3 C 139.38 878.3 133.58 866.39 124.61 870.78 C 115.64 875.17 123.03 890.21 123.03 890.21 C 123.03 890.21 115.12 885.2 106.15 894.6 C 97.18 904 125.14 902.24 125.14 902.24 L 141.76 898.8 C 141.76 898.8 118.02 904.44 135.43 913.84 C 135.43 913.84 172.09 919.66 200.05 910.26 C 200.05 910.26 233.79 885.82 180.52 869.52 L 180.52 869.52 Z " fill="rgb(29,37,56)"/><path d=" M 258.45 857.26 C 258.45 857.26 275.07 866.75 254.89 870.31 L 234.71 873.87 C 234.71 873.87 303.55 890.49 256.07 901.17 C 208.6 911.85 190.8 897.61 190.8 897.61 C 190.8 897.61 189.61 907.1 165.88 904.73 C 142.14 902.36 91.11 905.92 131.46 879.81 C 171.81 853.7 258.45 857.26 258.45 857.26 Z " fill="rgb(4,7,45)"/><g><path d=" M 178.45 858.88 C 178.45 858.88 154.31 826.98 144.21 834.13 C 144.21 834.13 148.59 849.32 148.59 849.32 C 148.59 849.32 120.87 827.59 120.12 841.3 C 120.12 841.3 134.85 856.86 134.85 856.86 C 134.85 856.86 115.39 850.46 110.56 862.2 C 105.73 873.95 134.72 874.73 134.72 874.73 C 134.72 874.73 105.92 875.77 121.36 885.91 C 121.36 885.91 155.21 885.74 167.71 878.56 C 180.21 871.39 178.45 858.88 178.45 858.88 Z  M 203.2 637.7 C 203.2 637.7 187.05 612.73 177.75 623.46 C 162.32 641.26 184.87 665 184.87 665 C 184.87 665 162.58 663.55 161 677.26 C 159.42 690.97 175.77 713.66 175.77 713.66 C 175.77 713.66 159.95 703.11 154.14 717.88 C 148.34 732.65 186.05 756.39 186.05 756.39 C 186.05 756.39 151.5 728.96 146.23 747.42 C 140.96 765.88 150.98 793.31 165.75 805.97 C 180.52 818.63 206.37 824.43 215.86 811.77 C 225.35 799.11 203.2 637.7 203.2 637.7 Z " fill="rgb(40,132,83)"/><path d=" M 181.31 804.38 C 181.31 804.38 161.79 791.19 146.5 793.3 C 131.2 795.41 131.73 802.79 132.79 810.18 C 133.84 817.56 158.11 821.26 158.11 821.26 C 158.11 821.26 145.98 815.46 143.87 826.01 C 141.76 836.56 160.75 833.39 160.75 833.39 C 160.75 833.39 154.95 847.63 158.11 857.13 C 161.27 866.62 192.66 864.51 192.66 864.51 C 192.66 864.51 231.95 832.34 181.31 804.38 L 181.31 804.38 Z " fill="rgb(40,132,83)"/></g><path d=" M 218.6 777.33 C 218.6 777.33 183.56 757.6 171.55 762.72 C 159.55 767.84 173.87 774.85 187.24 785.01 C 187.24 785.01 178.95 779.92 172.82 788.38 C 166.69 796.84 188.96 811.25 188.96 811.25 C 188.96 811.25 172.67 810.84 164.68 824.4 C 156.69 837.96 200.12 840.67 218.5 828.66 C 236.88 816.64 249.46 803.39 218.6 777.33 L 218.6 777.33 Z  M 440.03 633.48 C 440.03 633.48 445.3 592.86 463.24 591.28 C 481.17 589.7 470.62 618.71 470.62 618.71 C 470.62 618.71 478.53 609.74 487.5 610.27 C 496.47 610.8 507.02 639.28 505.96 655.11 C 504.91 670.93 495.41 677.79 495.41 677.79 C 495.41 677.79 500.16 673.57 505.96 676.74 C 511.76 679.9 509.65 690.45 509.65 690.45 C 509.65 690.45 521.78 684.65 524.95 695.2 C 528.11 705.75 501.74 730.54 500.16 731.07 C 498.58 731.6 515.98 718.41 527.59 722.63 C 539.19 726.85 534.97 737.93 534.97 737.93 C 534.97 737.93 541.3 729.49 546.57 735.82 C 551.84 742.15 539.71 759.03 539.71 759.03 C 539.71 759.03 548.15 759.56 542.87 770.63 C 537.6 781.71 524.94 785.4 513.33 778.01 C 501.73 770.63 511.22 776.96 511.22 776.96 C 511.22 776.96 531.79 784.87 517.55 791.73 C 517.55 791.73 540.23 796.48 523.35 800.17 C 506.47 803.86 491.17 800.17 491.17 800.17 C 491.17 800.17 492.75 803.33 470.6 804.92 C 448.45 806.5 421.55 788.04 421.55 788.04 L 440.03 633.48 L 440.03 633.48 Z " fill="rgb(51,168,109)"/><path d=" M 459.02 740.96 C 459.02 740.96 453.09 713.66 462.58 711.29 C 462.58 711.29 466.14 730.28 466.14 730.28 C 466.14 730.28 486.32 691.12 487.5 712.48 C 488.69 733.84 468.51 774.19 468.51 774.19 C 468.51 774.19 488.69 737.4 491.06 752.83 C 493.43 768.26 483.94 777.75 483.94 777.75 C 483.94 777.75 535.37 773.4 501.35 789.22 C 467.33 805.04 456.65 799.11 459.02 740.96 L 459.02 740.96 Z " fill="rgb(40,132,83)"/><path d=" M 479.59 659.59 C 470.77 661.75 467.72 659.33 464.56 650.22 C 461.4 641.1 462.19 638.3 462.19 638.3 L 469.31 644.61 L 474.58 631.64 L 480.38 640.4 L 485.65 636.12 C 485.66 636.12 491.46 656.69 479.59 659.59 Z  M 482.04 695.87 C 469.25 701.26 464.77 678.58 464.77 678.58 L 472.38 680.76 L 473.36 670.62 L 479.55 678.7 L 485.1 673.7 C 485.1 673.7 494.84 690.48 482.04 695.87 L 482.04 695.87 Z  M 177.43 798.73 C 164.64 804.12 160.16 781.44 160.16 781.44 L 167.77 783.62 L 168.75 773.48 L 174.94 781.56 L 180.49 776.56 C 180.49 776.56 190.22 793.34 177.43 798.73 Z  M 180.59 770.24 C 167.8 775.63 163.32 752.95 163.32 752.95 L 170.93 755.13 L 171.91 744.99 L 178.1 753.07 L 183.65 748.07 C 183.65 748.07 193.38 764.85 180.59 770.24 Z  M 509.66 763.77 C 509.66 763.77 498.58 760.61 499.64 752.17 L 500.69 743.73 L 505.44 750.06 L 513.88 735.29 L 516.52 749 L 524.96 744.25 C 524.96 744.25 529.7 766.93 509.66 763.77 L 509.66 763.77 Z " fill="rgb(255,172,255)"/><path d=" M 451.68 771.86 L 400.48 335.09 C 403.6 325.08 407.59 308.73 406.97 291.99 C 406.24 272.2 396.37 266.92 391.16 265.51 C 390.82 264.68 390.45 263.86 390.04 263.06 C 393.33 259.77 399.17 252.84 396.97 246.99 C 393.97 238.99 382.97 244.99 382.97 244.99 C 397.97 236.99 406.92 215.15 389.92 200.15 C 372.92 185.15 351.15 195.67 351.15 195.67 C 357.15 182.67 353.46 168.23 347.46 163.23 C 341.46 158.23 322.11 163.36 321.32 169.59 C 320.6 175.22 325.92 172.66 329.92 172.66 C 333.92 172.66 332.97 174.99 328.97 194.99 C 324.97 214.99 314.97 207.99 307.97 204.99 C 300.97 201.99 315.65 185.1 317.65 175.1 C 319.65 165.1 309.21 143.72 270.97 149.99 C 239.38 155.17 235.45 182.09 238.97 190.99 C 242.49 199.89 253.97 217.99 238.97 222.99 C 223.97 227.99 227.66 222.97 222.71 211.99 C 211.9 188.02 230.11 181.47 235.11 177.47 C 240.11 173.47 215.98 170 206.98 176 C 197.98 182 194.98 193 197.98 210 C 200.98 227 209.98 234 209.98 234 C 194.98 225 170.24 220.52 151.24 240.52 C 132.24 260.52 156.98 292 156.98 292 C 156.98 292 146.98 286 146.98 296 C 146.98 306 154.98 309 154.98 309 C 142.98 312 147.98 326 149.98 355 C 151.04 370.38 157.44 381.82 163.23 389.17 L 163.98 404 L 192.56 817.89 C 193.84 836.48 211.21 849.69 229.47 845.97 L 427.23 805.66 C 442.92 802.46 453.54 787.77 451.68 771.86 L 451.68 771.86 Z " fill="rgb(39,50,82)"/><path d=" M 468.7 771.86 L 417.5 335.09 C 420.62 325.08 424.61 308.73 423.99 291.99 C 423.26 272.2 413.39 266.92 408.18 265.51 C 407.84 264.68 407.47 263.86 407.06 263.06 C 410.35 259.77 416.19 252.84 413.99 246.99 C 410.99 238.99 399.99 244.99 399.99 244.99 C 414.99 236.99 417.99 215.99 400.99 200.99 C 383.99 185.99 355.99 204.99 355.99 204.99 C 361.99 191.99 354.99 168.99 348.99 163.99 C 342.99 158.99 335.25 160.92 334.99 167.99 C 334.79 173.35 339.99 168.99 343.99 168.99 C 347.99 168.99 349.99 174.99 345.99 194.99 C 341.99 214.99 331.99 207.99 324.99 204.99 C 317.99 201.99 322.99 197.99 324.99 187.99 C 326.99 177.99 319.99 148.99 287.99 149.99 C 255.99 150.99 251.83 182.09 255.99 190.99 C 260.15 199.89 270.99 217.99 255.99 222.99 C 240.99 227.99 238.99 219.99 229.99 211.99 C 220.99 203.99 223.99 188.99 223.99 188.99 L 233.99 180.99 C 238.99 176.99 232.99 169.99 223.99 175.99 C 214.99 181.99 211.99 192.99 214.99 209.99 C 217.99 226.99 226.99 233.99 226.99 233.99 C 211.99 224.99 184.99 223.99 165.99 243.99 C 146.99 263.99 173.99 291.99 173.99 291.99 C 173.99 291.99 163.99 285.99 163.99 295.99 C 163.99 305.99 171.99 308.99 171.99 308.99 C 159.99 311.99 164.99 325.99 166.99 354.99 C 168.05 370.37 174.45 381.81 180.24 389.16 L 181 404 L 209.58 817.89 C 210.86 836.48 228.23 849.69 246.49 845.97 L 444.25 805.66 C 459.94 802.46 470.57 787.77 468.7 771.86 L 468.7 771.86 Z " fill="rgb(29,37,56)"/><path d=" M 226.78 789.07 L 192 332 C 190 299 210 267 242 263 C 274 259 354 256 354 256 C 369.82 254.46 394 265 397 297 C 400 329 449.71 750.89 449.71 750.89 C 451.267 765.741 441.269 779.338 426.63 782.28 L 261.35 815.5 C 244.21 818.94 227.96 806.52 226.78 789.07 L 226.78 789.07 Z " fill="rgb(0,34,10)"/><g opacity="0.75"><path d=" M 409.97 411.02 L 405.22 369.09 L 231.15 265.84 C 231.15 265.84 209.79 265.84 201.08 291.95 L 409.97 411.02 L 409.97 411.02 Z  M 191.86 329.13 L 194.76 369.48 L 420.12 498.19 L 414.71 453.62 L 191.86 329.13 Z " fill="rgb(4,42,22)"/></g><circle vector-effect="non-scaling-stroke" cx="294.58" cy="186" r="13.050000000000011" fill="rgb(67,78,105)" fill-opacity="0.7607843137254902"/><circle vector-effect="non-scaling-stroke" cx="293" cy="186" r="11" fill="rgb(247,188,75)"/><circle vector-effect="non-scaling-stroke" cx="295.37" cy="180.59" r="4.009999999999991" fill="rgb(254,237,127)"/><circle vector-effect="non-scaling-stroke" cx="199.84" cy="249.10000000000002" r="11" fill="rgb(247,188,75)"/><circle vector-effect="non-scaling-stroke" cx="202.21" cy="243.69" r="4.009999999999991" fill="rgb(254,237,127)"/><circle vector-effect="non-scaling-stroke" cx="384.98" cy="228.73" r="11" fill="rgb(247,188,75)"/><circle vector-effect="non-scaling-stroke" cx="387.35" cy="223.32" r="4.009999999999991" fill="rgb(254,237,127)"/><g style="opacity:0.8;"><path d=" M 313.04 467.99 C 313.04 467.99 279.49 468.34 273.46 448.5 C 267.42 428.65 290.38 346.88 317.14 346.88 C 343.9 346.88 361.94 410.97 370.01 428.83 C 378.08 446.69 368.82 454.94 346.27 462.06 C 329.86 467.24 313.04 467.99 313.04 467.99 Z " fill="rgb(22,53,14)"/><path d=" M 309.48 453.75 C 309.48 453.75 280.59 487.86 273.88 507.16 C 273.88 507.16 262.93 816.31 262.93 816.31 L 437.66 780.12 C 437.66 780.12 394.11 518.16 384.25 497.66 C 384.25 497.66 353.15 456.22 341.52 450.19 C 329.9 444.16 309.48 453.75 309.48 453.75 L 309.48 453.75 Z " fill="rgb(22,53,14)"/></g><path d=" M 703.02 653.54 C 703.69 658.24 653.47 683.1 621.21 681.76 C 588.96 680.42 550.67 682.64 544.86 676.07 C 540.31 670.93 557.91 660.84 557.91 660.84 C 557.91 660.84 582.84 649.02 623.89 641.27 C 677.32 631.2 702.35 648.84 703.02 653.54 L 703.02 653.54 Z " fill="rgb(201,64,57)"/><path d=" M 671.58 724.38 C 671.58 724.38 675.31 748.42 683.07 773.17 C 688.41 790.2 689.77 796.41 689.73 832.34 C 689.72 840.56 692.25 869.59 692.06 875.28 C 691.73 885.16 691.88 892.17 686.82 891.21 C 678.85 889.7 676.4 886.44 667.32 846.95 C 655.18 794.18 642.22 724.83 642.22 724.83 L 671.58 724.38 L 671.58 724.38 Z " fill="rgb(255,170,123)"/><path d=" M 671.58 724.38 C 671.58 724.38 675.31 748.42 683.07 773.17 C 688.41 790.2 689.77 796.41 689.73 832.34 C 689.72 840.56 694.47 877.25 694.28 882.94 C 693.95 892.82 691.89 892.17 686.82 891.21 C 678.85 889.7 682.19 876.76 673.1 837.28 C 660.96 784.51 664.7 781.71 664.7 781.71 L 671.58 724.38 L 671.58 724.38 Z " fill="rgb(242,153,104)"/><g><path d=" M 624.84 639.56 C 624.84 639.56 631.8 706.16 639.05 721.79 C 648.7 742.59 670.45 740.31 673.17 727.59 C 677.49 707.38 682.07 670.59 681.54 650.51 C 680.96 628.93 650.73 609.22 624.84 639.56 L 624.84 639.56 Z " fill="rgb(39,50,82)"/><path d=" M 673.17 721.59 C 679.63 724.92 684.52 773 684.52 773 L 653 779.28 C 653 779.28 644.63 757.86 639.79 728.07 C 635.34 700.64 667.76 711.45 673.17 721.59 L 673.17 721.59 Z " fill="rgb(39,50,82)"/></g><path d=" M 635.21 638.1 C 635.21 638.1 634.39 670.75 639.34 693.22 C 640.72 699.48 644.29 722.35 645.87 725.75 C 655.52 746.55 670.45 740.3 673.17 727.58 C 677.49 707.37 682.07 670.58 681.54 650.5 C 680.96 628.93 661.1 607.75 635.21 638.1 L 635.21 638.1 Z " fill="rgb(29,37,56)"/><path d=" M 687.66 874.57 C 684.78 873.78 681.68 874.59 679.25 876.33 C 669.65 883.22 670.22 884.72 657.65 893.4 C 648.56 899.68 679.37 896.27 681.75 889.35 C 683.79 883.41 697.17 877.16 687.66 874.57 L 687.66 874.57 Z " fill="rgb(206,120,74)"/><path d=" M 696.44 878.51 C 695.93 873.62 688 877.83 681.55 879.82 C 676.8 882.48 672.89 884.46 669.5 886.15 C 659.99 890.89 650.73 896.52 646.83 897.15 C 635.27 899 654.01 906.2 656.71 906.28 C 659.4 906.35 678.26 901.42 678.26 901.42 L 680.59 901.29 C 681.13 902.84 685.15 902.29 686.79 902.29 L 694.88 900.51 C 694.88 900.51 697.39 899.62 698.01 898.05 C 698.87 895.87 696.89 882.77 696.44 878.51 L 696.44 878.51 Z " fill="rgb(29,37,56)"/><path d=" M 673.17 721.59 C 679.63 724.92 684.52 773 684.52 773 L 656.76 778.34 C 656.76 778.34 650.51 756.6 645.67 726.81 C 641.21 699.38 667.76 711.45 673.17 721.59 Z " fill="rgb(29,37,56)"/><path d=" M 629.63 646.99 C 629.63 646.99 628.14 694.38 626.1 706.79 C 626.1 706.79 591.42 757.44 579.81 708.92 C 574.18 685.39 563.46 654.8 572.18 639.37 C 581.31 623.22 626.64 620.95 629.63 646.99 L 629.63 646.99 Z " fill="rgb(39,50,82)"/><path d=" M 629.63 646.99 C 629.63 646.99 628.27 694.47 625.97 706.74 C 623 722.56 593.42 722.4 589.97 705.55 C 588.37 697.73 580.39 683.05 574.81 679.37 C 569.22 675.69 571.17 666.24 568.22 660.64 L 577.73 638.72 C 584.09 621.77 626.64 620.95 629.63 646.99 Z " fill="rgb(29,37,56)"/><path d=" M 589.54 769.41 C 590.78 780.26 604.08 882.91 608.43 901.74 C 611.34 914.3 625.6 915.77 625.17 898.27 C 624.55 873.2 630.5 839.58 630.42 829.29 C 630.18 798.38 623.06 762.71 623.06 762.71 C 623.06 762.71 588.97 764.4 589.54 769.41 Z " fill="rgb(255,170,124)"/><path d=" M 603.02 792.78 C 604.78 807.03 607.15 881.59 611.51 900.43 C 614.42 912.99 624.55 917.89 624.12 900.38 C 623.5 875.31 630.51 839.58 630.43 829.29 C 630.19 798.38 624.12 769.57 624.12 769.57 C 624.12 769.57 601.26 778.53 603.02 792.78 Z " fill="rgb(242,153,104)"/><path d=" M 584.03 725.26 L 589.83 770.1 L 625.7 767.46 C 625.7 767.46 632.89 724.93 622.4 707.72 C 622.4 707.72 581.92 708.38 584.03 725.26 Z " fill="rgb(39,50,82)"/><path d=" M 591.42 714.71 L 598.94 769.44 L 624.65 767.46 C 624.65 767.46 632.89 724.93 622.41 707.72 C 622.41 707.72 588.25 691.51 591.42 714.71 Z " fill="rgb(29,37,56)"/><path d=" M 613.42 895.25 L 585.32 915.31 C 572.64 924.26 622.77 920.24 625.3 910.11 C 627.83 899.99 625.49 886.61 613.42 895.25 L 613.42 895.25 Z " fill="rgb(206,120,74)"/><path d=" M 626.96 900.38 C 624.67 896.54 613.32 900.93 611.51 901.91 C 609.7 902.89 589.89 913.03 589.89 913.03 C 589.89 913.03 576.69 918.23 571.29 919.67 C 555.98 923.73 582.02 929.41 584.57 929.8 C 587.12 930.19 611.9 924.86 611.9 924.86 L 613.52 925.17 L 616.81 927.3 C 616.81 927.3 630.78 926.62 631.31 924.92 C 632.03 922.57 629.24 904.22 626.96 900.38 L 626.96 900.38 Z " fill="rgb(29,37,56)"/><path d=" M 595.11 432.73 L 596.69 456.2 L 629.4 457.25 L 624.65 419.8 L 595.11 432.73 Z " fill="rgb(204,109,61)"/><path d=" M 573.75 527.33 L 589.57 557 C 589.57 557 574.02 590.92 562.6 619.14 C 562.6 619.14 541.7 669.74 544.47 676.86 C 544.47 676.86 553.44 670.4 574.18 663.61 C 597.82 655.88 661.57 643.5 703.19 653.53 C 703.19 653.53 666.23 582.31 651.45 548.04 C 651.45 548.04 670.94 470.1 646.07 456.66 C 621.21 443.22 596.28 454.34 589.57 457.7 C 584.34 460.32 572.43 487.11 569.26 496.34 C 567 502.93 565.65 512.42 573.75 527.33 L 573.75 527.33 Z " fill="rgb(201,64,57)"/><path d=" M 584.59 511.09 L 591.54 550.67 L 568.46 606.51 L 607.77 623.64 L 550.8 659.07 L 589.83 652.48 C 589.83 652.48 689.68 640.99 703.18 653.55 C 703.18 653.55 666.22 582.33 651.44 548.06 C 651.44 548.06 670.93 470.12 646.06 456.68 C 621.2 443.24 596.27 454.36 589.56 457.72 C 582.85 461.06 571.83 473.46 584.59 511.09 L 584.59 511.09 Z " fill="rgb(153,44,41)"/><path d=" M 582.48 370.31 C 582.48 370.31 570.16 376.64 567.83 396.08 C 567.83 396.08 570.3 440.64 594.98 436.43 C 633.69 429.84 627.98 398.73 625.66 391.87 C 615.71 362.53 582.48 370.31 582.48 370.31 Z " fill="rgb(227,139,91)"/><path d=" M 584.47 369.35 C 584.47 369.35 572.15 375.68 569.82 395.12 C 569.82 395.12 572.29 439.68 596.97 435.47 C 635.68 428.88 629.97 397.77 627.65 390.91 C 617.7 361.58 584.47 369.35 584.47 369.35 Z " fill="rgb(242,153,104)"/><path d=" M 580.26 405.12 C 580.26 405.12 571.65 380.3 583.05 368.67 C 592.44 359.09 602.86 357.4 616.87 357.09 C 616.87 357.09 596.63 358.13 584.96 379.03 C 580.86 386.38 580.26 405.12 580.26 405.12 Z " fill="rgb(247,188,75)"/><path d=" M 594.24 364 C 594.24 364 612.6 349.82 634.45 361.76 C 634.45 361.76 657.62 381.59 658.15 391.37 C 658.15 391.37 655.78 404.03 655.78 404.03 C 655.78 404.03 665.33 409 666.7 417.07 C 666.7 417.07 670.37 439.86 643.64 445.96 C 625.14 450.19 615.68 446.22 615.68 446.22 C 617.39 445.7 594.46 462.38 577.17 449.65 C 565.12 440.77 562.29 418.28 580.2 409.69 C 580.21 409.7 575.87 369.89 594.24 364 L 594.24 364 Z " fill="rgb(232,207,69)"/><path d=" M 602.55 365.58 C 602.55 365.58 620.91 351.4 642.76 363.34 C 642.76 363.34 665.93 383.17 666.46 392.95 C 666.46 392.95 664.09 405.61 664.09 405.61 C 664.09 405.61 673.64 410.58 675.01 418.65 C 675.01 418.65 678.68 441.44 651.95 447.54 C 633.45 451.77 623.99 447.8 623.99 447.8 C 625.7 447.28 602.77 463.96 585.48 451.23 C 573.43 442.35 570.6 419.86 588.51 411.27 C 588.52 411.29 584.18 371.47 602.55 365.58 L 602.55 365.58 Z " fill="rgb(242,227,116)"/><path d=" M 574.16 400.72 C 574.16 400.72 576.49 387.23 581.64 388.76 C 581.64 388.76 588.51 403.44 578.9 410.42 C 578.9 410.42 574.16 400.72 574.16 400.72 L 574.16 400.72 Z " fill="rgb(227,139,91)"/><path d=" M 572.39 402 C 572.39 402 574.24 391.29 578.33 392.51 C 582.41 393.72 583.78 404.16 576.16 409.7 C 568.54 415.24 572.39 402 572.39 402 L 572.39 402 Z " fill="rgb(242,153,104)"/><path d=" M 607.07 360.81 C 607.07 360.81 596.93 341.01 589.18 346.02 C 589.18 346.02 598.72 365.92 598.72 365.92 C 598.72 365.92 583.83 354.31 577.57 360.91 C 577.57 360.91 580.73 379.44 594.57 377.69 C 594.57 377.69 607.07 360.81 607.07 360.81 L 607.07 360.81 Z " fill="rgb(255,250,133)"/><path d=" M 611.03 360.02 C 611.03 360.02 600.89 340.22 593.14 345.23 C 585.38 350.24 602.68 365.13 602.68 365.13 C 602.68 365.13 587.79 353.52 581.53 360.12 C 575.27 366.72 584.69 378.65 598.53 376.9 C 612.38 375.16 611.03 360.02 611.03 360.02 Z " fill="rgb(234,213,95)"/><g><path d=" M 584.14 378.91 C 584.14 378.91 576.91 387.83 569.45 391.69 C 563.81 394.61 559.28 395.17 559.28 395.17 L 560.39 392.89 L 557.56 390.74 C 557.56 390.74 568.13 389.55 581.92 377.59 L 584.14 378.91 L 584.14 378.91 Z " fill="rgb(153,44,41)"/><path d=" M 584.87 377.86 C 584.87 377.86 581.13 388.72 575.45 394.9 C 571.15 399.57 567.09 401.65 567.09 401.65 L 567.36 399.13 L 563.96 398.08 C 563.96 398.08 573.49 393.34 582.35 377.38 L 584.87 377.86 L 584.87 377.86 Z " fill="rgb(153,44,41)"/><path d=" M 580.14 382.34 C 578.01 381.98 575.9 370.64 580.96 370.36 C 585.73 370.1 591.14 370.67 590.27 374.27 C 589.4 377.87 582.27 382.7 580.14 382.34 Z " fill="rgb(153,44,41)"/></g><path d=" M 578.26 375.89 C 578.26 375.89 579.01 371.01 580.52 371.11 C 580.52 371.11 580.7 373.3 580.33 376.51 C 580.33 376.51 578 377.95 578.26 375.89 L 578.26 375.89 Z " fill="rgb(247,188,75)"/><path d=" M 581.89 379.97 C 581.89 379.97 582.19 377.73 578.91 375.58 C 575.63 373.44 573.13 372.27 571.07 373.58 C 569 374.88 568.33 380.56 569.53 383.4 C 570.73 386.24 577.99 384.02 579.81 382.93 C 581.64 381.85 581.89 379.97 581.89 379.97 Z " fill="rgb(153,44,41)"/><path d=" M 573.13 510.46 C 573.13 510.46 573.71 548.88 575.33 560.17 C 576.02 564.95 578.23 572.48 583.24 574.41 C 590.08 577.05 598.94 569.96 600.03 561.44 C 601.92 546.66 606.83 512.46 600.65 505.58 C 594.47 498.7 573.79 495.42 573.13 510.46 L 573.13 510.46 Z " fill="rgb(242,153,104)"/><path d=" M 585.65 519.96 L 584.13 561.52 C 584.02 568.34 597.37 581.22 599.34 566.21 C 601.31 551.2 607.66 516.9 601.37 509.94 C 595.08 502.98 586.37 504.68 585.65 519.96 Z " fill="rgb(227,139,91)"/><path d=" M 548.03 628.8 C 545.46 628.01 540.05 625.02 551.39 601.7 C 560.19 583.6 557.77 580.89 571.32 562.97 C 580.88 550.33 595.48 561.28 594.46 571.17 C 593.44 581.06 581.99 596.49 571.76 611.1 C 557.66 631.27 550.6 629.59 548.03 628.8 L 548.03 628.8 Z " fill="rgb(242,153,104)"/><path d=" M 571.9 590.95 C 575.94 577.87 583.97 557.46 584.34 557.42 C 592.06 556.51 598.2 564.17 597.47 571.27 C 596.45 581.16 582.39 596.4 572.16 611.01 C 568.74 615.89 560.69 623.86 560.69 623.86 C 560.69 623.86 567.86 604.03 571.9 590.95 L 571.9 590.95 Z " fill="rgb(227,139,91)"/><path d=" M 583.2 465.76 C 583.2 465.76 573.38 467.18 571.68 482.39 C 569.97 497.6 571.49 513.78 571.49 513.78 L 604.21 516.02 C 604.21 516.02 607.21 509.83 606.59 483.01 C 606.03 458.67 583.2 465.76 583.2 465.76 Z " fill="rgb(201,64,57)"/><g><path d=" M 578.46 467.96 C 578.46 467.96 589.28 486.55 589.17 489.81 C 589.05 493.07 586.14 514.59 586.14 514.59 L 604.22 516.02 C 604.22 516.02 607.23 509.57 606.05 483.79 C 605.5 471.63 595.91 465.42 588.98 464.82 C 583.04 464.32 578.46 467.96 578.46 467.96 L 578.46 467.96 Z " fill="rgb(153,44,41)"/><path d=" M 583.58 485.55 C 583.58 485.55 591.54 496.16 589.63 503.4 L 587.26 507.52 C 587.26 507.53 585.24 487.6 583.58 485.55 L 583.58 485.55 Z " fill="rgb(153,44,41)"/></g><path d=" M 519.2 639.33 C 519.2 639.33 513.49 651.69 516.93 652.8 C 521.69 654.34 521.1 646.72 524.52 641.01 C 527.94 635.3 527.54 632.32 519.2 639.33 L 519.2 639.33 Z  M 538.91 633.52 C 538.91 633.52 531.27 641.73 529.71 645.07 C 528.14 648.41 530.04 648.72 532.61 647.59 C 535.18 646.46 538.75 645.22 543.09 639.68 C 547.43 634.14 553.83 630.89 538.91 633.52 Z " fill="rgb(227,139,91)"/><path d=" M 559.14 616.12 C 554.35 614.57 528.21 621.98 528.21 621.98 C 528.21 621.98 513.84 633.42 511.36 637.96 C 508.88 642.5 501.66 652.94 503.22 654.49 C 505.44 656.69 508.91 652.05 508.91 652.05 C 508.91 652.05 506.95 656.69 509.11 656.73 C 511.27 656.77 514.02 652.13 516.03 648.58 C 518.04 645.03 521.71 643.7 521.71 643.7 C 521.71 643.7 516.68 650.38 516.49 653.74 C 516.3 657.1 519.21 656.05 521.49 652.63 C 523.78 649.21 530.35 637.47 533.39 636.13 C 536.43 634.79 542.77 638.4 548.42 634.94 C 557.45 629.42 563.94 617.67 559.14 616.12 L 559.14 616.12 Z " fill="rgb(242,153,104)"/><path d=" M 634.67 448.08 C 623.97 449 608.31 451.06 600.39 451.81 C 592.47 452.56 581.2 462.49 579.55 464.69 C 575.99 469.44 583.26 463.66 588.73 472.12 C 590.9 475.47 593.13 479.39 594.96 483.88 C 601.42 499.72 608.16 509.73 607.92 523.21 C 607.68 536.68 601.24 650.18 609.4 675.19 C 617.55 700.2 643.18 784.67 643.18 784.67 C 643.18 784.67 669.44 768.55 692.5 770.77 C 715.56 772.99 793.11 752.39 803.12 745.65 C 803.12 745.65 729.44 648.1 717.22 601.09 C 705 554.08 675.38 475.3 675.38 475.3 C 675.38 475.3 669.78 445.05 634.67 448.08 L 634.67 448.08 Z " fill="rgb(201,64,57)"/><path d=" M 701.13 770.63 C 701.13 770.63 715.37 770.1 738.58 764.83 L 707.46 721.58 L 679.77 680.44 L 697.57 719.6 L 701.13 770.63 L 701.13 770.63 Z  M 803.13 745.64 C 803.13 745.64 761.27 760.34 752.56 761.92 L 698.76 612.78 C 698.76 608.04 643.77 533.26 638.23 516.65 C 632.69 500.03 694.01 530.89 694.01 530.89 C 694.01 530.89 711.42 579.94 719.33 608.43 C 727.24 636.91 803.13 745.64 803.13 745.64 Z " fill="rgb(153,44,41)"/><path d=" M 692.48 614.94 C 692.48 614.94 697.01 642.35 729.97 653.35 L 692.48 614.94 L 692.48 614.94 Z " fill="rgb(232,115,111)"/><path d=" M 234.64 840.91 C 234.64 840.91 237.87 825.66 233.32 814.15 C 228.76 802.64 229.66 816.77 229.66 816.77 C 229.66 816.77 227.83 799.61 215.49 800.44 C 203.16 801.27 219.16 836.92 219.16 836.92 C 219.16 836.92 212.56 820.41 202.04 827.64 C 191.52 834.87 203.65 852.66 203.65 852.66 C 203.65 852.66 205.77 831.13 188.33 841.16 C 170.89 851.19 174.87 868.36 174.87 868.36 C 174.87 868.36 159.88 844 155.35 849.71 C 150.82 855.42 168.59 869.47 168.59 869.47 C 168.59 869.47 148.51 865.08 151.08 873.4 C 153.65 881.72 162.38 881 162.38 881 C 162.38 881 162.5 882.45 179.2 881.26 C 195.9 880.07 181.28 875.15 181.28 875.15 C 181.28 875.15 227.36 874.14 220.32 871.19 C 213.27 868.23 201.64 867.03 201.64 867.03 C 201.64 867.03 264.88 864.19 264.34 852.27 C 263.79 840.34 234.64 840.91 234.64 840.91 L 234.64 840.91 Z  M 338.76 911.46 C 338.76 911.46 344.3 893.26 335.6 890.89 C 335.6 890.89 323.73 908.3 323.73 908.3 C 323.73 908.3 319.77 885.35 315.03 892.48 C 310.28 899.6 319.78 908.3 319.78 908.3 C 319.78 908.3 309.49 883.77 298.42 886.94 C 287.34 890.1 298.42 908.3 298.42 908.3 C 298.42 908.3 288.13 905.14 289.72 911.46 C 291.3 917.79 339.57 917 352.23 914.62 C 364.87 912.25 338.76 911.46 338.76 911.46 L 338.76 911.46 Z " fill="rgb(12,89,51)"/><path d=" M 371.99 905.13 C 393.75 897.61 406.8 891.68 418.67 891.68 C 430.54 891.68 455.86 901.17 461.4 901.17 C 466.94 901.17 454.28 911.46 425.8 916.2 C 397.32 920.94 385.45 915.41 385.45 915.41 C 385.45 915.41 350.72 912.48 371.99 905.13 Z  M 443.59 921.35 L 475.63 921.35 C 482.75 921.35 472.07 934.4 472.07 934.4 C 472.07 934.4 437.65 942.71 430.53 942.71 C 423.41 942.71 443.59 921.35 443.59 921.35 L 443.59 921.35 Z " fill="rgb(29,37,56)"/></g></svg>