<svg xmlns="http://www.w3.org/2000/svg" width="843" height="770.6" xmlns:v="https://vecta.io/nano"><path d="M787 457.5a299 299 0 0 0-21-262.9l-477.3 66L746 165.3A298 298 0 0 0 509.7 48.9C345 49 211.5 182.5 211.5 347.2a301 301 0 0 0 2.8 40.7zm-555.6-3c43 111.7 151.5 191 278.3 191 119 0 221.8-69.8 269.6-170.6z" fill="#f2f2f2"/><path d="M772 558.3c0 117.2-172.8 212.2-386 212.2-114.5 0-217.4-27.4-288-71C51.8 671.2 19.4 636 6.4 597A121 121 0 0 1 0 558.3C0 441 320-87.5 386 346s386 95 386 212.2z" fill="#372ac1"/><path d="M577.8 635.3c0 43.3-136.7 78.4-305.3 78.4-65 0-125-5.2-174.6-14C51.8 671.2 19.4 636 6.4 597c52.3-23.8 152-40 266.2-40 168.6 0 305.3 35 305.3 78.4z" opacity=".1"/><path d="M357.5 189c-24.2-41-72-42.8-72-42.8s-46.6-6-76.6 56.3c-28 58-66.4 114-6.2 127.7l11-33.8 6.7 36.4a221 221 0 0 0 25.7.4c64.5-2 125.8.6 124-22.5-2.6-30.7 11-82.3-12.4-121.6zM199.2 547c-1 4.5-1.6 9-3 13.3-1.5 4.3-4 8.2-5.2 12.5-4.4 13.7 1.7 29 11.5 39.6a66 66 0 0 0 31.5 18.7c8.8 2.2 18 2.5 27 2.8 25.2 1 51 1.6 74.8-6.5a130 130 0 0 0 21.7-9.9c2.2-1 4-2.6 5.6-4.4 1.8-2.6 2-6 2-9-.1-10.7-2.2-21.3-1.7-32l.8-17.7c-1.2-13.3-11.8-25.3-25-28-6.8-1.5-13.8-.7-20.7 0a538 538 0 0 1-53.8 2.4l-54.8-3.2c-5.4-.1-5.3 1.6-7 6.8a127 127 0 0 0-3.9 14.7z" fill="#2f2e41"/><path d="M251.2 283.7a32 32 0 0 1-4.6 13.2c-3.2 4.4-8.4 7-11.8 11-5.2 6.3-5.5 15-5.5 23.3 0 7.5.1 15.5 4.3 21.7a38 38 0 0 0 10.9 9.6C260.2 373 277 383.7 296 384c7.8.1 16.2-2 21.4-7.8a32 32 0 0 0 5.2-9.2c4.8-12 7.8-24.5 8.7-37.3.4-6 .4-12.2-1.7-18-2.3-6.4-7-11.7-10-17.7-3.6-7.2-5-15.4-3.8-23.4.2-.6.1-1.2-.1-1.7-.5-.6-1.3-1-2-.8l-37.5-2.7c-3.5-.2-7-.6-10.4-1.2-2-.4-7.4-3.3-9.3-2.5-3.6 1.4-4.5 18-5.2 21.8z" fill="#a0616a"/><path d="M251.2 284.8a32 32 0 0 1-4.6 13.2c-3.2 4.4-8.4 7-11.8 11-5.2 6.3-5.5 15-5.5 23.3 0 7.5.1 15.5 4.3 21.7a38 38 0 0 0 10.9 9.6c15.7 10.6 32.6 21.3 51.5 21.7 7.8.1 16.2-2 21.4-7.8a32 32 0 0 0 5.2-9.2c4.8-12 7.8-24.5 8.7-37.3.4-6 .4-12.2-1.7-18-2.3-6.4-7-11.7-10-17.7-3.6-7.2-5-15.4-3.8-23.4.2-.6.1-1.2-.1-1.7-.5-.6-1.3-1-2-.8l-37.5-2.7c-3.5-.2-7-.6-10.4-1.2-2-.4-7.4-3.3-9.3-2.5-3.6 1.4-4.5 18-5.2 21.8z" opacity=".1"/><circle cx="287.1" cy="233.7" r="55" fill="#a0616a"/><path d="M259 356.8c3 3 6 6 9.7 7.7 3.7 1.7 8 2.2 12 2.3 10 .3 20.7-1.5 27.5-8.7 9-9.2 8.6-24 15.6-34.7.6-1 1.3-1.8 2.2-2.5 1.2-.6 2.5-1 3.8-1 8.8-.1 16.5 5.6 23.4 11 3 2.4 6.3 5 8.2 8.4 1.4 2.7 2.3 5.5 2.8 8.5 3.4 16.8 4.5 34 5.6 51l1.2 28.3c-.1 31-7.4 61.7-14.6 92-1 4-2.2 8.3-5.7 10-1.6.7-3.3 1-5 1.2-20.6 2.4-41.2 4.8-62 5.2q-12 .2-24.3-.6c-1.4 0-2.8-.3-4-.7-1.8-1-3.3-2.2-4.5-3.8-11.2-14-12-33.7-11.8-51.7q.3-66.2 4.7-132.3c.2-3.6.3-8-2.3-11 4.7 7.6 11.3 14.5 17.5 21z" fill="#d0cde1"/><g fill="#575a89"><path d="M247.3 293.4c-2 3.4-15.5 11.7-18.2 14.5-14.8 15.6-41.7 15-55.2 31.7a52 52 0 0 0-9 20.6c-2.6 10.4-4 21.7.4 31.4 4 9.4 13 16 18.8 24.3 6.5 9.2 9.4 20.4 12.2 31.3a76 76 0 0 1 3.3 24.6c-1 9.4-5.5 18-8.2 27s-3.2 20 3 27c4.6 5.2 11.7 7.3 18.6 8.5a196 196 0 0 0 26.5 2.3c7.8.3 16.5.4 22.5-4.6 4.8-4 6.8-10.4 7-16.6s-1-12.3-1.8-18.5a217 217 0 0 1-1.4-19.2q-1.8-43.2-.5-86.4c.2-6 .4-12-1-18-1.7-7.7-5.8-14.6-9.3-21.7a82 82 0 0 1-9.1-43.3c1-15.4 7.8-27.2 1.2-15.2zm77.2 1c2.8 3 12.4 4 16 5.7 3.3 1.7 7 2.6 10.5 3.6a137 137 0 0 1 37 17c2.4 1.4 4.5 3.2 6.2 5.3 2 2.8 2.7 6.3 3.4 9.7 1.8 8.7 3.5 17.6 3 26.5-.4 9.4-3.3 18.6-6 27.6L384 423.6c-8 25.2-15.8 50.6-18 76.8-1.2 14.6-.7 29.2 1.6 43.6.2 1.5.4 3-.5 4.2-.7.7-1.6 1-2.6 1.2-5 .8-10-1.8-14.6-4a162 162 0 0 0-44.6-14.6 104 104 0 0 0 13.9-28.6 173 173 0 0 0 4.2-19.7l5-28.4 4.2-31.4c.4-4 .1-8-.7-11.8-1-3.7-2.8-7.2-4.5-10.7a91 91 0 0 1-8.7-54.4c1.4-8 4-16 3-24.2-1-7.8 0-13.8-2-21.5-8.2-31.6-.6-11.3 4.7-5.8z"/><path d="M173.8 366c-3.7 7.6-9.8 14.2-12 22.4a49 49 0 0 0-1 11.7c0 6-.1 12 1.7 17.6l4.4 10.5a38 38 0 0 1 2.5 15.6c-.4 7.4-3 14.5-3 22-.3 11.6 5 22.5 10.3 32.8 2.7-6.6 8-11.7 15-14s14.2-1.3 20.2 2.4c1.4-1.3 1.5-3.4 1.6-5.2q.6-20.2 1-40.3c.6-20.8 1-42-3.7-62-2.2-9-5.5-18.2-11.7-25.3-3.2-3.7-14.3-13.6-19.6-9.4-2.4 2-1.8 7-2.2 9.6-.6 4-1.8 8-3.5 11.8zM402 344c1.7 5.4 1.8 11.2 2 17q.1 17.4-.5 35a65 65 0 0 1-2.3 17.7c-1.2 3.7-3 7.2-4.3 11-3.7 11.2-1.7 23.3-1.4 35a40 40 0 0 1-1 11.3c-2 7.3-7.2 13.2-10.8 19.8-3.5 6.3-5.6 13.3-9.7 19.2s-11.3 10.5-18.2 8.7c-5.3-1.4-9-6-11.6-10.8a53 53 0 0 1-5.5-34.3c2.6-14.3 11-27 14-41 4.2-19.5-2.2-39.6-2-59.5-.1-3 .3-6.2 1.3-9.2 1.6-4.6 5-8.2 8-11.8l11-14.4c2.3-3.4 5.3-12 9.3-12.7 9-1.6 19.3 12.5 21.5 19.4z"/></g><path d="M127.5 538.3c-5-1.2-10-1.8-15-1.6-10.8.6-20.8 5.8-27.5 14.3s-9.4 19.5-7.5 30c1 5.7 3.4 11 6 16.3 4 8 8.8 16.2 16.2 21.4a63 63 0 0 0 14.3 6.8l39 14.7 17.3 6.3a338 338 0 0 0 90.3 17.9c9.4.6 19 .7 28-1.4 2.2-.5 4.5-1.3 5.7-3 .7-1.3 1.2-2.7 1.3-4.2L298 639c.3-2.4.7-5-.2-7-1-2.8-4-4.6-6.5-6-25.7-14.7-55.6-23-77.2-43-5-4.8-9.3-12.3-15.5-15.5-7-3.7-15.3-5.8-22.5-9-15.8-7.4-31.4-16-48.6-19.8z" fill="#2f2e41"/><path d="M166.5 561c13.8 4.3 72 34.3 82 44.7-1.3.5-46.7-25-48-25.4-12.4-3.7-24.8-7.5-36.6-13-2.4-1-15.4-6.2-14.8-9.2.7-3.4 15 2 17.5 2.8z" opacity=".1"/><g fill="#a0616a"><path d="M338.6 673.4c.8.1 1.6-.2 2.2-.6.6-.7.8-1.6.7-2.5q0-11.5-.1-23c-6.6-3-14-4-21.2-5l-33.7-4.5c.8.1-5.3 14.5-4.3 16.5 1.6 3.4 14 6.4 17.7 8 12.3 5.6 25 11.7 38.8 11.2z"/><path d="M232.7 647.2c-6.4 1-13.5 2-17.6 7-5.2 6.3-3 15.7-.5 23.5.4 1.6 1 3 2.2 4.3 1.7 1.7 4.3 2 6.7 2 5.8.4 12 .7 17-2.2 2.4-1.3 4.4-3.3 6.6-5 3.7-2.5 8-4.4 12.2-5.6 8-2.5 16.2-4.2 24.5-5 3.3-.3 6.6-.5 9.6-1.7s6-3.4 6.8-6.6c1.2-4.2-1.2-8.4-3.6-12a48 48 0 0 0-10.3-12.7c-6.3-5-9.4-1-15.7 2-12 6-24.8 10-38 12z"/></g><g fill="#2f2e41"><path d="M216 653l-40.5-12-15-3c-5 0-10.5 1.7-13.8 5.6-3 3.7-4 8.7-4.8 13.5l-1.7 10.2a49 49 0 0 0-1 15.7c.7 5.2 3.4 10.4 8 13 5.6 3 12.5 1.6 18.7.3a190 190 0 0 1 38.3-4c4.8-.1 10 0 14.2-2.3 5-2.7 8-8.4 8.7-14 .8-8.7-2-20-11.2-22.8zm138.5-10.5c5.2-1 10-4 15-5.7 7-2.5 14.7-2.5 22.2-2.4 2.8 0 5.7.1 8 1.6 3.3 2.2 4 6.6 4.7 10.5q1.7 11.8 3.4 23.7c.6 4.5 1.3 9 .3 13.4s-4 8.6-8.3 9.8c-5.3 1.4-10.5-2-15.5-4.2-12.5-5.5-27-4-40-8.3-2.4-.8-5-2-6-4.3a11 11 0 0 1-.5-4c.2-7.6-1.4-18 1-25.3 2-6.5 10-4.7 16-4.7z"/><path d="M440 528.7c8-2 16.5-2.6 24.7-1.7 6.6.7 13.4 2.6 18.3 7 6 5.6 7.8 14.2 8 22.3.3 16-5 32-15 44.5-2.5 3.2-5.4 6-8.7 8.3a57 57 0 0 1-11.3 5.4l-87.4 34.5-70 24c-1.3.6-3 .7-4.2.2s-2.5-1.5-3-3a181 181 0 0 1-19.2-35c-.5-.6-.7-1.4-.4-2s.8-1.3 1.5-1.6l61.8-35.5c4.4-2.5 9-5 12.6-8.7 2.7-2.6 5-5.6 6.5-9 1.3-2.7 1.4-9 3-11 1.6-2 7-2 9.6-3 3.6-1 7-2.4 10.5-4 13.8-6.2 26-15.2 39.4-22.4a101 101 0 0 1 23.6-9.8z"/></g><path d="M405 555.3c-10.6 8-24.4 15.3-35 23.5-3.6 2.8-63.5 36.5-64.3 41 9.8 1.7 72.4-42 81.3-46.5s17-10.5 24.7-16.6c2-1.6 10.5-6.2 4.7-8-3.2-1-9.2 5-11.6 6.7z" opacity=".1"/><path d="M332 295.3h-93.2c-8 0-14.3 6.4-14.3 14.3v5.2h-1v11.7h1v8.2h-1v7h1V428c0 8 6.4 14.3 14.3 14.3H332c8 0 14.3-6.4 14.3-14.3V309.6c0-8-6.4-14.3-14.3-14.3z" fill="#3f3d56"/><path fill="#2f2e41" d="M346.8 185l-47.3-24.8-65.3 10-13.5 59.7 33.6-1.3 9.4-22v21.6l15.5-.6 9-35 5.6 37.2 55.2-1-2.3-44z"/><path d="M186 521c2.3 3.5 5 7 8.8 8.8a17 17 0 0 0 15.2-.4c4.7-2.5 8.5-6.3 11-11 5-9 6.2-20 5.6-30.3s-3-20.7-3.8-31a262 262 0 0 1-.8-22.7c0-1.6 0-3.3 1-4.6 1-1.6 3.2-2 5-2.5 10.4-3 17.3-12.8 22.2-22.4 3.3-6.4 6.2-13.5 5.5-20.7s-5.8-14.4-13-15.2c-6-.6-11.4 3.2-15.7 7.3a67 67 0 0 0-19.7 39.3c-1 7.3-.7 14.8-2.7 22-4.2 15.2-17.5 24.5-24.2 38-7.3 15-3.3 32 5.6 45.4zm195.8-58a29 29 0 0 1-16 15.4c-4.4 1.8-9.3 2-14 1-4.7-1.3-8.4-4.7-10.2-9.2a31 31 0 0 1-1.2-7c-.7-10.2-.4-20.8 3.3-30.3 1.4-3.7 3.4-7.2 4.5-11a55 55 0 0 0 1.7-13.4l1.2-28c.2-2 .1-4-.4-6-1.2-4-5-6.7-8.5-9-8.4-5.8-16.6-12.6-20.7-22-1.2-3-2-6-1.4-9 1-5.5 6.7-9 12.3-10.3 7.3-1.6 15-.1 21.2 4s10.4 10.7 11.7 18c.5 3 .5 6.4 1 9.5.7 6.7 2.8 13.3 4.2 20 3.3 16.4 1.6 33.3 5 49.7 2.7 13.7 13 22.6 6.7 37.6z" fill="#a0616a"/><circle cx="286.6" cy="346.4" r="11.7" fill="#d0cde1"/><g fill="#3f3d56"><path d="M780.3 359c-25.3 0-48.2 15.3-58 38.7S718 448 736 466s45 23.3 68.3 13.6 38.7-32.5 38.7-58c0-16.6-6.6-32.6-18.4-44.3S797 359 780.3 359zm31 46.8v2c0 21-16 45.5-45.5 45.5-8.7 0-17.2-2.5-24.5-7.2l3.8.2a32 32 0 0 0 19.9-6.8 16 16 0 0 1-14.9-11.1 15 15 0 0 0 3 .3c1.4 0 2.8-.2 4.2-.6a16 16 0 0 1-12.8-15.7v-.2c2.2 1.2 4.7 2 7.3 2a16 16 0 0 1-5-21.4c8 10 20 16 33 16.7-.3-1.2-.4-2.4-.4-3.6A16 16 0 0 1 807 395c3.6-.7 7-2 10-4a16 16 0 0 1-7 8.8c3.2-.4 6.3-1.2 9.2-2.5-2 3.2-4.8 6-8 8.3z"/><circle cx="760.2" cy="184.6" r="11.1"/><path d="M774 156.8h-27.8a14 14 0 0 0-13.9 13.9v27.8a14 14 0 0 0 13.9 13.9H774a14 14 0 0 0 13.9-13.9v-27.8a14 14 0 0 0-13.9-13.9zm-14 44.5c-9.2 0-16.7-7.5-16.7-16.7s7.7-16.6 17-16.6 16.7 7.5 16.7 16.7-7.5 16.7-16.7 16.7zm18-30.6c-2.3 0-4.2-2-4.2-4.2s2-4.2 4.2-4.2 4.2 2 4.2 4.2c0 1-.4 2.2-1.2 3s-1.8 1.2-3 1.2zM759.5 119a66.1 66.1 0 1 0 0 132.1 66 66 0 1 0 0-132.1zm34 79.4c0 10.7-8.7 19.5-19.5 19.5h-27.8c-10.7 0-19.5-8.7-19.5-19.5v-27.8c0-10.7 8.7-19.5 19.5-19.5H774c10.7 0 19.5 8.7 19.5 19.5zM491.5 0a65 65 0 1 0 46 19 65 65 0 0 0-46-19zM512 39.3h-8.3c-5.7 0-6.8 2.7-6.8 6.6v8.4h13.5l-1.8 13.2H497v35.8h-15V67.6h-11V54.4h10.8v-9.8a17 17 0 0 1 18.6-18l11.6.5z"/></g></svg>