<svg xmlns="http://www.w3.org/2000/svg" viewBox="0 0 960 1080" width="1280" height="1440" xmlns:v="https://vecta.io/nano"><style><![CDATA[.B{fill:#fff}.C{stroke:#4b3355}.D{stroke-miterlimit:10}.E{stroke-width:4}.F{fill:none}.G{fill:#cc6d3d}.H{fill:#f5894e}.I{fill:#273252}.J{fill:#f3e7d9}.K{fill:#1d2538}.L{fill:#665070}.M{fill:#288453}.N{fill:#bb83c3}.O{fill:#c94039}.P{fill:#3e4c6f}.Q{fill:#4b3355}.R{fill:#33a86d}.S{fill:#f7bc4b}]]></style><defs><clipPath id="A"><path d="M0 0h960v1080H0z"/></clipPath></defs><g clip-path="url(#A)"><g class="J"><path d="M582.773 166.171s40.471-72.306 112.756-19.537c0 0 23.521-43.496 83.268-36.747 25.868 2.92 72.232-1.314 91.497 40.627s7.135 86.011 7.135 86.011 32.241 4.11 48.148 38.02c5.862 12.496 23.145 48.075-12.11 43.058s-412.991-133.971-435.72-141.44-110.971-50.714-110.971-50.714 37.696 1.169 78.094 8.501 59.225 19.547 59.225 19.547 57.431 4.246 78.678 12.674zm-250.502 24.407s76.457 38.312 65.724 99.238c0 0 2.68 4.954-48.889-21.352s-72.587-33.681-161.32-81.901c-71.774-39.001-89.151-56.628-89.151-56.628s56.837 7.875 98.006 22.467 44.497 35.756 44.497 35.756 46.104-15.552 91.133 2.42z" fill-opacity=".5"/></g><path d="M868.375 935.921s13.362 2.211 29.039-1.199c15.677-3.401 4.454-14.405 4.454-14.405s29.79 4.496 28.309-7.99-22.228-11.39-22.228-11.39c18.66-22.927 19.286-36.341 11.421-44.988-7.875-8.647-21.174 10.389-21.174 10.389s27.193-50.453 1.44-52.695-24.21 30.937-24.21 30.937 9.92-12.986-3.212-19.808-25.503 14.321-25.503 14.321c13.257-18.003 15.5-43.756-2.984-46.698-18.483-2.931-31.563 33.462-31.563 33.462s-24.501-7.124-43.902 9.554 11.536 40.889 11.536 40.889-32.502-12.903-35.151-.616 13.247 13.07 11.567 18.129c0 0-14.676-2.452-17.742 3.306-6.53 12.267 9.273 44.925 23.583 48.701s10.859.563 10.859.563-7.938 14.426 3.212 19.808 45.854-18.598 45.854-18.598 36.402 16.397 52.226 9.899-5.831-21.571-5.831-21.571z" class="K"/><path d="M843.884 925.835l14.133-306.129c2.504-101.783-2.816-194.501-4.412-211.638-2.274-24.345 6.728-295.834 6.728-295.834L845.657 0 729.96 1.127l10.598 474.97-4.412 198.787-24.731 249.438 132.469 1.513z" class="N"/><path d="M843.884 925.835l14.133-306.129c2.504-101.783-7.645-5.059-9.241-22.197l-39.616 77.573-44.57-188.169L760.877.615l-30.917.512 10.587 474.97-4.412 198.787-24.731 249.438 132.48 1.513z" class="L"/><path d="M686.955 9.909l14.916 84.175-12.277 419.667c1.763 24.94 3.515 80.869 1.763 105.819-1.763 24.94-7.636 184.268-7.636 184.268l-13.831 47.866h-43.11l-.521-124.052 19.359-133.022 1.763-120.182-6.154-465.697 45.728 1.158z" class="N"/><path d="M660.597 560.376s27.224-71.565 28.986-46.625 3.515 80.869 1.763 105.819c-1.763 24.94-9.294 185.916-9.294 185.916l-12.183 46.218H626.76l-.522-124.052 19.359-133.022 1.763-120.182-1.617-89.86 14.854 175.788z" class="L"/><g class="K"><path d="M484.882 897.703s-14.415-.97-29.853-8.334c-15.447-7.364-1.105-16.042-1.105-16.042s-32.022-2.608-27.433-15.198c4.59-12.6 25.858-6.394 25.858-6.394-13.779-28.35-11.151-42.431-.866-49.493 10.285-7.051 19.453 15.959 19.453 15.959s-15.907-59.017 11.38-55.053 17.576 38.03 17.576 38.03-7.125-15.907 8.167-19.776c15.291-3.881 22.978 21.101 22.978 21.101-9.366-21.925-5.403-49.212 14.499-47.741s24.596 42.442 24.596 42.442 27.171-1.408 43.245 20.642-21.957 39.626-21.957 39.626 36.894-5.455 36.633 7.948-16.95 10.327-16.428 16.001c0 0 15.833 1.043 17.607 7.76 3.786 14.332-20.601 44.372-36.372 44.79-15.771.427-11.411-2.066-11.411-2.066s4.714 16.908-8.167 19.777-43.058-30.51-43.058-30.51-41.796 8.136-56.628-2.482c-14.853-10.608 11.286-20.987 11.286-20.987z"/><path d="M424.395 956.146s-13.581 4.923-30.677 4.423-7.479-14.238-7.479-14.238-30.353 10.535-31.24-2.837c-.886-13.383 21.081-16.282 21.081-16.282-24.043-20.382-27.318-34.328-20.757-44.936 6.561-10.597 24.23 6.759 24.23 6.759s-38.364-47.584-11.797-54.969 31.428 27.704 31.428 27.704-12.934-11.672-.501-21.394 29.529 10.035 29.529 10.035c-17.419-16.283-24.794-42.849-5.987-49.535s39.626 28.913 39.626 28.913 24.293-12.256 47.897 1.44-4.109 45.123-4.109 45.123 31.553-19.881 36.726-7.51-11.338 16.292-8.584 21.268c0 0 14.916-5.435 19.244 0 9.242 11.588-.949 48.909-15.208 55.658s-11.275 2.712-11.275 2.712 11.129 13.57.501 21.393-51.705-10.545-51.705-10.545-34.964 24.303-52.821 20.579 1.878-23.761 1.878-23.761z"/></g><g class="L"><path d="M772.841 52.821l9.898 188.169c3.297 21.456 8.251 41.263 8.251 41.263l9.899-3.849s1.648 38.51 4.954 64.921c3.296 26.41-1.648 95.732-1.648 95.732l-9.898-148s-3.297 12.099-8.251 1.648-8.251-97.381-13.205-133.7 0-106.184 0-106.184zm34.661 377.986s1.648 112.233-6.603 148.553V457.217l6.603-26.41zM658.948 113.892l5.779 140.303c1.648 36.319-5.779 145.247-.824 170.009 0 0 1.377-122.696 4.131-148.553 2.743-25.858.271-151.85-9.086-161.759z"/></g><path d="M767.062 400.683s-5.778 36.726-10.733 51.579-6.603 227.775-6.603 227.775l8.668 37.133 19.391 56.941 31.365-70.971-24.763-152.673-17.325-149.784z" class="N"/><g class="L"><path d="M644.512 181.566l7.427-106.465-2.618-66.016-8.115-.334 3.306 172.815zM817.4 31.365s6.603 47.866 0 82.527l9.899 11.557 3.296 123.791 3.296-143.598h-8.25L817.4 31.365z"/></g><path d="M678.756 485.275l-9.898 54.469 4.954 130.394-13.205-109.762c-.01 0 16.501-70.156 18.149-75.101z" class="N"/><g class="K"><path d="M833.912 769.166s-4.954-24.762 6.603-24.762 23.104 21.456 11.557 29.707c-11.557 8.261-18.16-4.945-18.16-4.945zm-14.853 28.059s8.251-28.059 18.16-16.501c9.898 11.557 1.648 37.957-18.16 16.501zm19.808 33.013s-3.849-14.853-9.899-14.853-6.603 19.807-6.603 19.807-13.205-24.762-18.159-8.25c-4.955 16.501 9.898 21.456 9.898 21.456s-28.058-8.251-19.807 14.853 23.103 6.602 23.103 6.602-4.954 21.456 18.16 6.603 44.57-59.423 3.307-46.218z"/></g><g class="M"><path d="M744.98 639.128s5.32-30.155-10.639-23.052c-15.959 7.093-3.546 21.278-3.546 21.278s-21.279-1.773-12.413 15.959 21.279 8.866 21.279 8.866-24.825 19.506-15.959 30.155c8.866 10.64 17.732 0 17.732 0s5.32 31.928 15.959 19.506c10.639-12.413 0-23.052 0-23.052s15.959-12.413 10.639-23.052-12.412.887-12.412.887 14.185-38.135-10.64-27.495zm31.073-52.623c12.569 0 14.457 28.736 0 32.679s-12.569-32.679 0-32.679zm-1.23 51.882s11.192 9.158-1.023 12.204c-12.204 3.066-7.113-13.216 1.023-12.204z"/></g><path d="M832.264 422.546s-4.954 80.879-6.602 85.833-11.558 105.632-11.558 105.632l-6.602 31.364 26.41-56.116 4.955-89.13 3.296-125.439-8.251 28.058-1.648 19.798z" class="L"/><g class="M"><path d="M690.178 947.906s-4.402-76.384 24.971-73.442 17.628 48.471 17.628 48.471 33.784-52.883 49.942-69.04 26.441 24.971 4.401 60.226c0 0 42.599-64.628 66.099-64.628s35.256 5.872 14.687 29.373c-20.559 23.5-29.373 30.843-29.373 30.843s47-22.03 69.04-4.402 22.03 23.5 2.942 27.913c-19.099 4.401-49.942 7.343-49.942 7.343s32.314-4.402 17.628 22.029c-14.687 26.442-80.786 13.216-89.6 5.873 0 0 26.442 33.785-10.284 35.255s-39.657-47-39.657-47-13.216 23.5-36.716 27.912c-23.511 4.402-11.766-36.726-11.766-36.726z"/><path d="M621.857 968.882s-16.96 6.154-38.312 5.518-9.346-17.774-9.346-17.774-35.057 18.243-36.163 1.533 23.469-25.409 23.469-25.409c-30.019-25.461-34.118-42.87-25.92-56.117 8.199-13.236 30.26 8.439 30.26 8.439s-47.908-59.424-14.729-68.644 39.241 34.598 39.241 34.598-16.158-14.582-.626-26.713c15.521-12.131 36.882 12.538 36.882 12.538-21.747-20.329-30.968-53.509-7.478-61.864s49.493 36.111 49.493 36.111 30.343-15.302 59.809 1.804-5.131 56.346-5.131 56.346 39.407-24.824 45.863-9.377-14.165 20.34-10.723 26.557c0 0 18.619-6.791 24.033 0 11.546 14.467-1.189 61.071-18.995 69.51-17.815 8.428-14.07 3.39-14.07 3.39s13.904 16.949.625 26.712-64.576-13.173-64.576-13.173-43.652 30.342-65.963 25.701c-22.28-4.652 2.357-29.686 2.357-29.686z"/></g><g class="R"><path d="M778.202 911.941s2.472-34.661 16.095-34.661c13.612 0 1.241 19.808 1.241 19.808s13.612-9.899 21.049 4.954-16.095 19.808-16.095 19.808 12.382 1.241 22.28 9.899c9.899 8.668-2.472 24.762-23.521 13.612 0 0 0 18.566-17.336 7.427s-14.853-16.095-14.853-16.095-10.858-10.326-7.426-18.566c6.185-14.854 18.566-6.186 18.566-6.186z"/><path d="M734.873 914.413s-12.381-16.094 1.241-23.521c13.612-7.427 11.14 13.612 11.14 13.612s0-32.189 17.336-25.993c17.336 6.185-3.713 25.993-3.713 25.993s23.521-14.853 24.762-2.472-18.566 13.612-18.566 13.612-16.095 25.993-34.661 9.899 2.461-11.13 2.461-11.13z"/></g><mask id="B" x="-200%" y="-200%" width="400%" height="400%"><path d="M-1920-2160h3840v4320h-3840z" class="B"/><path d="M770.087 907.811s-11.964 46.489-29.706 58.317c-8.303 5.539-51.716 20.079-51.716 20.079"/></mask><path d="M770.087 907.811s-11.964 46.489-29.706 58.317c-8.303 5.539-51.716 20.079-51.716 20.079" mask="url(#B)" vector-effect="non-scaling-stroke" class="C D E F"/><mask id="C" x="-200%" y="-200%" width="400%" height="400%"><path d="M-1920-2160h3840v4320h-3840z" class="B"/><path d="M765.132 923.217l24.21-.543"/></mask><path mask="url(#C)" vector-effect="non-scaling-stroke" d="M765.132 923.217l24.21-.543" class="C D E"/><mask id="D" x="-200%" y="-200%" width="400%" height="400%"><path d="M-1920-2160h3840v4320h-3840z" class="B"/><path d="M731.577 971.083s-2.201-29.707-1.095-35.767"/></mask><path d="M731.577 971.083s-2.201-29.707-1.095-35.767" mask="url(#D)" vector-effect="non-scaling-stroke" class="C D E F"/><mask id="E" x="-200%" y="-200%" width="400%" height="400%"><path d="M-1920-2160h3840v4320h-3840z" class="B"/><path d="M750.279 956.23s16.502 1.095 23.104-.553"/></mask><path d="M750.279 956.23s16.502 1.095 23.104-.553" mask="url(#E)" vector-effect="non-scaling-stroke" class="C D E F"/><mask id="F" x="-200%" y="-200%" width="400%" height="400%"><path d="M-1920-2160h3840v4320h-3840z" class="B"/><path d="M643.271 836.84s11.557 42.088 0 58.6c-11.557 16.501-6.602 59.423-6.602 59.423"/></mask><path d="M643.271 836.84s11.557 42.088 0 58.6c-11.557 16.501-6.602 59.423-6.602 59.423" mask="url(#F)" vector-effect="non-scaling-stroke" class="C D E F"/><mask id="G" x="-200%" y="-200%" width="400%" height="400%"><path d="M-1920-2160h3840v4320h-3840z" class="B"/><path d="M606.962 881.411s7.427 33.837 30.531 31.365"/></mask><path d="M606.962 881.411s7.427 33.837 30.531 31.365" mask="url(#G)" vector-effect="non-scaling-stroke" class="C D E F"/><mask id="H" x="-200%" y="-200%" width="400%" height="400%"><path d="M-1920-2160h3840v4320h-3840z" class="B"/><path d="M689.489 875.632s3.297 29.707-12.381 37.133-41.263 15.677-41.263 15.677"/></mask><path d="M689.489 875.632s3.297 29.707-12.381 37.133-41.263 15.677-41.263 15.677" mask="url(#H)" vector-effect="non-scaling-stroke" class="C D E F"/><mask id="I" x="-200%" y="-200%" width="400%" height="400%"><path d="M-1920-2160h3840v4320h-3840z" class="B"/><path d="M686.183 903.962s31.365 1.377 39.407-22.76"/></mask><path d="M686.183 903.962s31.365 1.377 39.407-22.76" mask="url(#I)" vector-effect="non-scaling-stroke" class="C D E F"/><mask id="J" x="-200%" y="-200%" width="400%" height="400%"><path d="M-1920-2160h3840v4320h-3840z" class="B"/><path d="M649.05 875.632s24.762-12.381 34.661-45.394"/></mask><path d="M649.05 875.632s24.762-12.381 34.661-45.394" mask="url(#J)" vector-effect="non-scaling-stroke" class="C D E F"/><g class="J"><path d="M640.726 850.254s17.419 2.691 20.82-13.601c3.39-16.293.605-21.999.605-21.999l-8.178 6.53-9.596-15.74-8.24 14.134-12.121-5.414s-3.139 32.314 16.71 36.09zm46.218 34.453s17.42.553 20.82-17.253.605-23.5.605-23.5l-8.178 8.042-9.596-15.479-8.24 16.147-12.121-4.152c-.01-.021-3.139 34.818 16.71 36.195zm-81.286 8.668s17.419.552 20.82-17.253c3.39-17.805.605-23.5.605-23.5l-8.178 8.042-9.596-15.479-8.24 16.147-12.121-4.152c-.01-.021-3.139 34.807 16.71 36.195z"/></g><g class="I"><path d="M525.478 434.082s8.438 65.922 5.226 95.67c0 0 45.331-2.18 20.1 41.806-14.071 24.522-72.754 16.887-108.125 4.016s2.41-157.576 82.799-141.492z"/><path d="M427.503 419.959s-2.368-33.743 20.799-51.653 37.341-14.259 46.426-2.701c9.315 11.859-17.721 33.294-25.096 38.551-7.374 5.268 19.339-9.012 38.969-6.321 19.683 2.702 38.99 11.484 40.043 29.383s-56.899 14.854-56.899 14.854l-64.242-22.113z"/><path d="M468.172 393.215s-66.85-13.894-92.895 15.625-26.765 73.212-26.765 73.212-38.886 9.576-40.628 46.041c-1.731 36.466 59.57 61.332 120.349 30.082s56.43-139.781 39.939-164.96z"/></g><g fill="#48598b"><path d="M523.955 434.019s8.032 62.741 4.975 91.049c0 0 43.142-2.065 19.13 39.783-13.393 23.333-69.238 16.063-102.909 3.828-33.659-12.246 2.295-149.961 78.804-134.66z"/><path d="M476.193 399.932s-68.248-10.149-92.061 16.835-17.336 64.368-17.336 64.368-35.547 8.751-37.133 42.087 54.459 56.065 110.012 27.495c55.564-28.559 51.59-127.765 36.518-150.785z"/><path d="M441.417 423.244s-2.263-32.147 19.808-49.201 32.867-17.012 38.886-3.964c6.018 13.039-11.558 33.107-18.577 38.114-7.02 5.017 19.056-11.036 37.112-6.019s31.094 13.039 32.095 30.093-48.148 12.037-48.148 12.037l-61.176-21.06z"/></g><path d="M528.711 619.58s91.216 36.049 107.739 60.936 25.273 46.208-.668 46.563c-17.294.229-122.633-47.272-128.86-48.732s21.789-58.767 21.789-58.767z" class="G"/><path d="M484.663 598.083c35.193 14.019 51.371 22.739 51.371 22.739l-18.254 62.657s-12.496-3.588-43.475-22.332c-51.12-30.959-38.249-82.434 10.358-63.064z" class="O"/><path d="M603.937 563.286s23.177 29.05 39.439 55.94c14.373 23.771 60.727 78.876 29.404 99.686-39.032 25.92-59.497-8.178-73.829-34.881s-28.319-84.957-36.538-104.389c-8.021-18.953 8.532-63.607 41.524-16.356z" class="H"/><g class="G"><path d="M592.933 572.747s1.126 88.598-13.205 61.895 18.952-60.623 10.733-80.055c-8.032-18.952 2.472 18.16 2.472 18.16zm5.497-98.476l-17.607-20.903c-6.874-7.698-13.894.553-13.894.553l-6.185 10.733c0-.01 32.731 21.164 37.686 9.617z"/></g><path d="M555.289 487.768l11.035-16.929 13.143-3.702 5.779 8.991 8.407-1.586s2.628 9.524 6.832 13.758 4.203 22.228 4.203 22.228l-36.799 72.493s-26.974-15.208-26.15-36.664c.365-9.523 2.869-16.23 5.497-23.104s8.053-35.485 8.053-35.485z" class="H"/><path d="M581.376 478.673s-37.415 69.322-20.903 67.674c9.888-.991 27.672-22.874 34.661-34.108 12.652-20.361-1.377-45.947-13.758-33.566z" class="G"/><path d="M590.45 560.376s13.644-14.832 17.879-21.185 10.691-5.799 6.456-23.792-4.256-18.128-4.256-20.778-9.898-23.104-9.898-23.104-10.546-4.464-8.804-2.2l7.698 29.706-3.943 15.062s-17.148.803-21.914 26.202c-4.757 25.398 6.727 21.143 16.782 20.089z" class="H"/><path d="M455.937 588.153c9.982 5.08 19.547 32.961 25.169 60.112 6.217 30.009 6.936 55.021-38.374 96.149-26.818 24.346-46.219 49.515-46.219 49.515l-75.1 12.788-50.339-22.697s-12.349-36.414 24.763-94.085c21.977-34.15 36.497-114.653 58.213-117.783 52.372-7.531 85.594 7.719 101.887 16.001z" class="S"/><path d="M337.507 721.3l-18.566-19.808 4.954 29.707-2.472 75.518-50.338-22.697s-12.35-36.414 24.762-94.085c21.978-34.15 36.497-114.653 58.214-117.783 35.829-5.152 1.919 63.94-11.589 108.291-6.258 20.497-4.965 40.857-4.965 40.857z" fill="#ce9436"/><path d="M448.229 582.656s10.649.501 22.561 6.05 40.607 29.685 45.165 51.903c3.682 17.951 15.489 39.01 15.489 39.01s-16.094 4.131-23.938-1.241c-10.326-7.061-22.249-58.766-31.772-69.875-9.523-11.098-27.505-25.847-27.505-25.847z" class="P"/><path d="M466.962 551.75s-10.399 40.972-18.452 56.482-19.411 18.963-34.118 9.648c-17.326-10.973 4.965-76.279 4.965-76.279l47.605 10.149z" class="H"/><path d="M472.73 533.183s-8.751 36.268-14.738 51.747c0 0-25.848 12.287-38.375.208-11.557-11.139 2.89-62.51 2.89-62.51l50.223 10.555z" class="G"/><path d="M510.395 680.454l-6.602-4.955s51.444 26.817 69.697-94.606l6.78-46.103c2.472-18.713 1.648-49.243 1.648-49.243l9.899-4.131s6.175 29.175 4.954 50.338c-1.262 21.853-3.723 37.958-7.416 63.419-7.938 54.761-21.935 79.304-54.208 86.105-15.291 3.223-24.752-.824-24.752-.824z" class="I"/><path d="M292.353 602.359l-58.683 90.57c-17.513 28.82 40.763 30.259 58.86 13.518 9.482-8.772 0-1.648 46.771-64.368 18.88-25.336-7.166-68.289-46.948-39.72z" class="G"/><path d="M333.241 650.872s53.061-66.026 27.944-81.494c-34.974-21.54-63.606 28.611-74.204 41.274 0 0 27.819 6.05 46.26 40.22z" class="O"/><path d="M402.16 522.373c10.682-2.401 16.978-14.925 14.051-27.949s-13.978-21.649-24.66-19.248-16.978 14.925-14.05 27.949 13.977 21.649 24.659 19.248z" class="G"/><path d="M483.369 433.268c3.328 10.212-14.759 18.525-33.847 26.317-19.099 7.791-37.269 5.82-40.607-4.392-3.327-10.211 9.451-24.804 28.539-32.595 19.098-7.782 42.588.459 45.915 10.67z" fill="#273150"/><path d="M395.762 484.89c9.69-56.649 54.261-66.058 65.015-66.402 53.634-1.752 71.554 36.299 71.888 98.048.24 45.113-25.243 53.228-50.38 58.944-30.218 6.874-98.622-19.85-86.523-90.59z" class="G"/><path d="M523.194 526.539c10.92-56.419-16.867-99.414-5.696-81.599 10.65 16.971 15 41.462 15.167 71.596.24 45.113-25.243 53.228-50.38 58.944 0 0 33.482-10.567 40.909-48.941z" class="H"/><path d="M437.464 435.772c30.854-17.639 72.566-.459 72.566-.459s-35.109-43.851-78.543-13.821c-38.948 26.932-34.306 57.775-32.335 76.05-.01 0 1.826-40.92 38.312-61.77z" fill="#f6be4a"/><g class="O"><path d="M409.948 444.012s-8.011 19.453-19.067 30.124c-8.366 8.073-16.022 11.442-16.022 11.442l.762-4.579-6.102-2.284s17.92-7.625 35.85-35.851l4.579 1.148z"/><path d="M410.678 441.801s-.866 21.017-7.593 34.838c-5.09 10.451-11.13 16.23-11.13 16.23l-.855-4.558-6.519-.063s14.227-13.299 21.403-45.957l4.694-.49z"/><path d="M405.63 454.307c-4.976.615-17.211-23.208-6.133-27.193 10.43-3.755 22.853-6.091 23.302 2.504.469 8.594-12.183 24.073-17.169 24.689z"/></g><path d="M397.15 441.227s-1.586-11.349 1.846-12.141 1.846 4.746 3.171 12.141c1.324 7.385-4.225 4.746-5.017 0z" class="S"/><path d="M407.945 447.882s-.813-5.195-9.554-7.782-15.052-3.515-18.786.762-1.47 17.346 3.119 22.874 19.234-4.245 22.562-7.875c3.348-3.63 2.659-7.979 2.659-7.979z" class="O"/><path d="M380.273 451.772s1.585 10.556 6.592 10.817c7.448.396-2.639-17.409-3.953-20.319-1.325-2.889-6.071 2.649-2.639 9.502z" class="S"/><g class="Q"><path d="M554.068 457.092l-5.549 2.347 5.257 3.223.292-5.57zm38.385 65.807s-5.372 11.713-15.708 12.266c-10.337.543-101.47-2.628-105.423-3.515-1.638-.365-4.84-.104-3.296-3.744 2.18-5.153 11.004-7.98 11.004-7.98l113.423 2.973z"/></g><path d="M540.717 459.418l.657-4.391 1.836-.428-1.147 4.913-1.346-.094z" class="P"/><path d="M571.206 523.389l18.222.814a4.02 4.02 0 0 0 4.079-3.849c.198-4.412.125-14.123-.804-32.763-1.345-26.796-3.097-27.777-7.249-28.757-13.09-3.088-12.548 1.888-18.879.939-2.191-.324-7.093-1.471-12.507-2.681l-.24 3.807-12.788-1.533.48-4.736s-28.934-3.692-55.616-4.913c-13.476-.615-9.972.96-9.304 12.882 1.898 33.962.104 42.63.928 54.594.115 1.638.814 3.223 2.431 3.505 3.024.542 8.438.344 19.995.615l71.252 2.076z" fill="#856792"/><g class="Q"><path d="M466.868 463.882l.616 64.024c.083 3.056 1.731 2.013 4.026 0l5.601-3.443c1.512-1.366 1.867-3.619 1.585-5.643l-1.303-63.679c.104-4.078 1.648-7.979-5.779-2.753-1.742 1.23-4.485 4.787-4.955 6.873l.209 4.621zm101.668-.699c6.978 34.703 3.264 57.369 3.264 57.369.532-11.098-3.035-50.224-3.035-50.224l-.229-7.145z"/></g><path d="M540.54 490.418c-2.013 0-2.013-3.129 0-3.129s2.013 3.129 0 3.129h0z" class="I"/><path d="M501.915 455.12l.855 8.481-19.567-.731-.324-8.469 19.036.719z" class="K"/><mask id="K" x="-200%" y="-200%" width="400%" height="400%"><path d="M-1920-2160h3840v4320h-3840z" class="B"/><path d="M591.42 480.269s-11.901-5.706-21.591 1.21c0 0-71.94-12.747-94.71-6.937"/></mask><path d="M591.42 480.269s-11.901-5.706-21.591 1.21c0 0-71.94-12.747-94.71-6.937" mask="url(#K)" vector-effect="non-scaling-stroke" stroke-width="2" class="C D F"/><path d="M499.881 489.604c-.375 15.834 13.268 27.047 28.611 27.412s28.768-13.257 28.831-27.099c.062-13.643-17.472-28.017-26.213-28.225-17.596-.428-30.853 12.078-31.229 27.912z" class="I"/><g class="P"><circle vector-effect="non-scaling-stroke" cx="531.079" cy="487.935" r="22.801"/><path d="M557.894 487.09c.33-13.83-10.799-25.329-24.836-25.663s-25.7 10.622-26.029 24.452 10.799 25.329 24.836 25.663 25.7-10.623 26.029-24.452z"/></g><circle vector-effect="non-scaling-stroke" cx="532.122" cy="487.904" r="17.909" class="I"/><path d="M547.278 495.018c.96-2.045 1.523-4.308 1.575-6.707.219-9.242-7.093-16.908-16.334-17.138-6.092-.146-11.495 2.973-14.541 7.771 13.727-4.016 21.248 2.806 29.3 16.074z" fill="#48598b"/><circle vector-effect="non-scaling-stroke" cx="532.122" cy="487.904" r="7.02" class="K"/><circle vector-effect="non-scaling-stroke" cx="535.7" cy="483.179" r="2.795" class="J"/><path d="M552.984 460.763l.302-3.817a.93.93 0 0 0-.793-1.002l-8.98-1.366a.94.94 0 0 0-1.075.835l-.375 4.067 10.921 1.283z" class="I"/><g class="H"><path d="M597.877 472.894s-1.648-14.3-7.698-18.702-15.635-8.751-19.536-9.075c-3.296-.271-7.156 4.673-.824 11.005s8.25 3.578 11.275 5.778c3.035 2.191 7.156 12.09 16.783 10.994zm6.884 14.03s7.844 8.667 2.066 11.139-18.567 6.603-21.05 1.242c-2.472-5.362.825-7.427 7.427-10.733 6.603-3.297 9.075-6.186 11.557-1.648z"/><path d="M599.807 478.944s4.537 7.844-1.242 10.316-18.566 6.603-21.049 1.241.824-7.426 7.427-10.733c6.613-3.296 12.392-5.361 14.864-.824z"/><path d="M596.97 469.306s3.035 8.532-3.098 9.92c-6.134 1.377-19.464 3.098-20.914-2.629s2.17-7.155 9.263-9.189c7.082-2.045 13.142-3.015 14.749 1.898z"/></g><path d="M473.262 461.754s-6.603 73.453-36.038 139.771c-18.253 41.128-31.907 43.246-50.62 50.641-23.375 9.252-41.263-3.505-41.263-3.505s50.588-5.257 70.97-43.631c27.234-51.267 41.263-120.307 41.263-120.307l15.688-22.969z" class="I"/><path d="M413.171 537.241S273.536 637.323 257.608 657.882c-18.274 23.584-14.602 36.194-3.88 46.917 9.336 9.335 23.939 9.899 43.934-2.639 18.598-11.662 122.821-115.686 137.904-137.111 15.093-21.435 4.589-44.476-22.395-27.808z" class="H"/><g class="G"><path d="M353.602 585.128l-17.336 15.677s-10.733 33.013-4.131 55.293 26.411-15.677 26.411-15.677-11.547-39.616-4.944-55.293z"/><path d="M300.364 670.545l-42.756-12.674c-18.274 23.584-14.602 36.195-3.88 46.917 9.336 9.336 23.939 9.899 43.934-2.638 18.598-11.662 113.121-103.817 128.193-125.241l-125.491 93.636z"/></g><path d="M422.924 562.848s18.598 8.053 29.706-3.849 26.15-18.848 11.87-39.48-9.262-22.749-9.262-22.749l8.73-8.73 15.876 14.29s9.523 15.875 12.694 12.694c3.171-3.171 7.145-8.731-2.378-22.228l-3.411-21.831s-2.138-4.36-14.04-7.542c-11.901-3.171-21.164 1.492-21.164 1.492l-3.431-5.455 14.29-8.731s14.29 4.767 21.424 2.378c7.145-2.378 7.145-5.559-8.73-8.73s-24.606-3.171-24.606-3.171l-15.875 14.29-11.902 38.885-3.171 38.886c-.021 0-10.91 19.265 3.38 29.581z" class="H"/><path d="M395.689 648.171s-17.231 7.134-29.706.438c-13.122-7.041-16.262-67.716 6.947-81.974.646-.459.052-1.137-.616-1.044s-14.853 2.817-24.762 13.331-29.435 55.804-.136 72.754c12.851 7.447 38.364 3.515 48.273-3.505z" class="P"/><path d="M261.28 18.191l23.479 298.317v77.541s10.212 11.933 4.256 20.611-19.516 582.28-19.516 582.28l-158.274 2.89-8.512-503.289 12.767-70.491 5.956-409.538 139.844 1.679z" class="Q"/><path d="M261.28 18.191l23.479 298.317v77.541s10.212 11.933 4.256 20.611-19.516 582.28-19.516 582.28l-158.274 2.89-8.512-503.289 52.821 64.649-9.899-343.315 26.4-125.439 89.245-74.245z" fill="#34283a"/><g class="Q"><path d="M185.241 330.266l-13.206 95.002-4.954 106.351-6.603 259.494-14.853-99.259 4.955-133.293 19.807-204.19-13.205-313.827 28.059 289.722zm49.514-31.511v133.7l-11.557 8.25-9.899 113.893-11.557 6.602-9.899 97.381V556.246l8.251-26.411 14.853-100.687 11.557-14.853 8.251-115.54z"/></g><g class="K"><path d="M98.218 797.767s-17.545-8.897-8.752-22.937 18.776 3.807 18.776 3.807-5.581-20.684 6.727-26.243c12.319-5.57 34.275 8.866 22.791 31.73 0 0 20.225-8.292 22.53 13.633 2.306 21.935-9.794 20.486-9.794 20.486s34.453-14.885 29.644 10.347c-4.809 25.221-27.871 29.112-27.871 29.112s-39.563 5.278-39.594-11.453 17.158-14.05 17.158-14.05-32.658 9.001-35.631-8.637 17.283-9.189 17.283-9.189-44.57-7.834-13.267-16.606zm77.416-16.553c.761-16.168 19.411-17.221 22.947-.386 3.547 16.845-23.708 16.564-22.947.386zm-24.908-15.323s9.022-12.683 12.662.657c3.641 13.331-.886 11.307-8.355 8.387-7.457-2.931-4.307-9.044-4.307-9.044z"/></g><path d="M338.258 773.537s-3.431-18.859-29.028-35.162-36.737 11.547-36.737 11.547-34.035-45.697-48.659-26.953 14.707 44.883 14.707 44.883c-55.585 5.956-74.287 23.146-75.226 45.238-.928 22.092 42.276 14.238 42.276 14.238s-103.691 31.584-72.066 68.884 73.703-9.336 73.703-9.336-30.614 4.246-22.05 30.885c8.553 26.64 53.321 14.697 53.321 14.697-41.774 6.54-79.074 38.156-58.14 66.704s86.95-2.941 86.95-2.941 14.081 11.338 62.354 14.759 48.284-39.438 48.284-39.438 16.386 14.405 34.39 18.879c18.003 4.465 33.367 9.377 60.101-11.619 26.734-21.008 1.001-47.564 1.001-47.564s35.079-5.351 20.883-29.467-51.424-20.173-51.424-20.173 24.992-46.677 17.19-68.738-43.902 6.77-43.902 6.77 6.978-68.905-22.927-81.234c-29.926-12.35-55.001 35.141-55.001 35.141z" class="M"/><mask id="L" x="-200%" y="-200%" width="400%" height="400%"><path d="M-1920-2160h3840v4320h-3840z" class="B"/><path d="M259.715 861.978s-6.07 53.426 13.821 82.496"/></mask><path d="M259.715 861.978s-6.07 53.426 13.821 82.496" mask="url(#L)" vector-effect="non-scaling-stroke" class="C D E F"/><mask id="M" x="-200%" y="-200%" width="400%" height="400%"><path d="M-1920-2160h3840v4320h-3840z" class="B"/><path d="M285.093 857.212c-5.34 14.133-26.65 28.079-26.65 28.079"/></mask><path d="M285.093 857.212c-5.34 14.133-26.65 28.079-26.65 28.079" mask="url(#M)" vector-effect="non-scaling-stroke" class="C D E F"/><mask id="N" x="-200%" y="-200%" width="400%" height="400%"><path d="M-1920-2160h3840v4320h-3840z" class="B"/><path d="M260.404 908.426l-31.96-4.318"/></mask><path mask="url(#N)" vector-effect="non-scaling-stroke" d="M260.404 908.426l-31.96-4.318" class="C D E"/><mask id="O" x="-200%" y="-200%" width="400%" height="400%"><path d="M-1920-2160h3840v4320h-3840z" class="B"/><path d="M239.709 904.515l-10.608-23.563"/></mask><path mask="url(#O)" vector-effect="non-scaling-stroke" d="M239.709 904.515l-10.608-23.563" class="C D E"/><g class="R"><path d="M640.246 988.971s47.178-36.121 13.518-42.233-38.729 12.475-38.729 12.475 15.208-33.785-5.716-48.868-15.604 50.422-15.604 50.422-7.28-26.254-24.95-11.568c-17.68 14.687 8.96 34.703 8.96 34.703s-54.062-50.693-70.563-20.016c-16.512 30.666 47.042 42.63 47.042 42.63s-17.857 39.125 23.865 39.125c21.967 0 17.326-10.535 17.326-10.535s69.791 31.323 78.761.136-60.56-22.363-60.56-22.363 42.369.657 42.755-15.98-16.105-7.928-16.105-7.928z"/><path d="M478.196 944.339s-27.986-52.414 5.184-44.049c33.169 8.376 30.092 27.391 30.092 27.391s.146-37.05 25.43-42.119-6.675 52.362-6.675 52.362 17.492-20.882 27.505-.198-22.53 27.881-22.53 27.881 70.198-23.761 72.524 10.994-60.466 19.328-60.466 19.328-13.362 48.888-51.35 31.615c-19.996-9.096-16.387-19.86-16.387-19.86s-58.088-3.16-53.342-35.266 64.388 4.715 64.388 4.715-38.833-16.95-32.303-32.252c6.508-15.302 17.93-.542 17.93-.542z"/><path d="M695.122 971.229s47.178-36.121 13.518-42.234-38.729 12.475-38.729 12.475 15.208-33.785-5.716-48.867-15.604 50.421-15.604 50.421-7.281-26.253-24.95-11.567c-17.68 14.686 8.96 34.703 8.96 34.703s-54.062-50.693-70.564-20.017c-16.511 30.666 47.043 42.63 47.043 42.63s-8.074 50.036 33.659 50.036c21.967 0 7.542-21.445 7.542-21.445s69.791 31.323 78.761.135-60.56-22.363-60.56-22.363 42.369.657 42.755-15.98-16.115-7.927-16.115-7.927z"/></g><mask id="P" x="-200%" y="-200%" width="400%" height="400%"><path d="M-1920-2160h3840v4320h-3840z" class="B"/><path d="M597.22 939.728s-9.523 44.758 10.764 56.117"/></mask><path d="M597.22 939.728s-9.523 44.758 10.764 56.117" mask="url(#P)" vector-effect="non-scaling-stroke" class="C D E F"/><mask id="Q" x="-200%" y="-200%" width="400%" height="400%"><path d="M-1920-2160h3840v4320h-3840z" class="B"/><path d="M595.405 972.46c-17.471-.417-25.68-19.881-25.68-19.881"/></mask><path d="M595.405 972.46c-17.471-.417-25.68-19.881-25.68-19.881" mask="url(#Q)" vector-effect="non-scaling-stroke" class="C D E F"/><mask id="R" x="-200%" y="-200%" width="400%" height="400%"><path d="M-1920-2160h3840v4320h-3840z" class="B"/><path d="M608.329 947.155l-13.06 16.919"/></mask><path mask="url(#R)" vector-effect="non-scaling-stroke" d="M608.329 947.155l-13.06 16.919" class="C D E"/><path d="M407.518 795.577l-14.311.553"/><mask id="S" x="-200%" y="-200%" width="400%" height="400%"><path d="M-1920-2160h3840v4320h-3840z" class="B"/><path d="M388.67 791.446s-5.362 20.215-35.079 33.837c-29.706 13.612-37.133 108.938-37.133 108.938"/></mask><path d="M388.67 791.446s-5.362 20.215-35.079 33.837c-29.706 13.612-37.133 108.938-37.133 108.938" mask="url(#S)" vector-effect="non-scaling-stroke" class="C D E F"/><mask id="T" x="-200%" y="-200%" width="400%" height="400%"><path d="M-1920-2160h3840v4320h-3840z" class="B"/><path d="M358.275 775.633s-7.156 33.285 4.13 44.706"/></mask><path d="M358.275 775.633s-7.156 33.285 4.13 44.706" mask="url(#T)" vector-effect="non-scaling-stroke" class="C D E F"/><mask id="U" x="-200%" y="-200%" width="400%" height="400%"><path d="M-1920-2160h3840v4320h-3840z" class="B"/><path d="M330.216 863.804c-16.783-9.357-36.591-20.903-33.284-54.74"/></mask><path d="M330.216 863.804c-16.783-9.357-36.591-20.903-33.284-54.74" mask="url(#U)" vector-effect="non-scaling-stroke" class="C D E F"/><mask id="V" x="-200%" y="-200%" width="400%" height="400%"><path d="M-1920-2160h3840v4320h-3840z" class="B"/><path d="M331.562 811.463s-12.694 29.153-29.936 27.505"/></mask><path d="M331.562 811.463s-12.694 29.153-29.936 27.505" mask="url(#V)" vector-effect="non-scaling-stroke" class="C D E F"/><mask id="W" x="-200%" y="-200%" width="400%" height="400%"><path d="M-1920-2160h3840v4320h-3840z" class="B"/><path d="M399.809 935.879s-14.029-43.328-6.602-62.719 24.762-37.415 37.415-46.771"/></mask><path d="M399.809 935.879s-14.029-43.328-6.602-62.719 24.762-37.415 37.415-46.771" mask="url(#W)" vector-effect="non-scaling-stroke" class="C D E F"/><mask id="X" x="-200%" y="-200%" width="400%" height="400%"><path d="M-1920-2160h3840v4320h-3840z" class="B"/><path d="M399.267 813.737s-8.803 23.103 3.849 42.369"/></mask><path d="M399.267 813.737s-8.803 23.103 3.849 42.369" mask="url(#X)" vector-effect="non-scaling-stroke" class="C D E F"/><mask id="Y" x="-200%" y="-200%" width="400%" height="400%"><path d="M-1920-2160h3840v4320h-3840z" class="B"/><path d="M409.719 845.644s26.41-3.296 36.861-13.758"/></mask><path d="M409.719 845.644s26.41-3.296 36.861-13.758" mask="url(#Y)" vector-effect="non-scaling-stroke" class="C D E F"/><mask id="Z" x="-200%" y="-200%" width="400%" height="400%"><path d="M-1920-2160h3840v4320h-3840z" class="B"/><path d="M228.663 803.327s2.087 56.909-13.257 92.916"/></mask><path d="M228.663 803.327s2.087 56.909-13.257 92.916" mask="url(#Z)" vector-effect="non-scaling-stroke" class="C D E F"/><mask id="a" x="-200%" y="-200%" width="400%" height="400%"><path d="M-1920-2160h3840v4320h-3840z" class="B"/><path d="M192.479 799.248s11.443 23.501 24.565 26.432c11.317 2.534 9.283-.219 9.283-.219"/></mask><path d="M192.479 799.248s11.443 23.501 24.565 26.432c11.317 2.534 9.283-.219 9.283-.219" mask="url(#a)" vector-effect="non-scaling-stroke" class="C D E F"/><mask id="b" x="-200%" y="-200%" width="400%" height="400%"><path d="M-1920-2160h3840v4320h-3840z" class="B"/><path d="M264.503 807.332s-11.494 47.72-38.645 46.458"/></mask><path d="M264.503 807.332s-11.494 47.72-38.645 46.458" mask="url(#b)" vector-effect="non-scaling-stroke" class="C D E F"/><g class="J"><path d="M383.611 804.651s12.809 5.07 21.57-10.754 7.896-22.092 7.896-22.092l-10.253 5.07-4.277-17.67-12.84 12.736-10.201-7.719c0 .011-10.285 32.94 8.105 40.429zm-86.908 10.056s13.507 2.68 19.286-14.457 3.797-23.156 3.797-23.156l-9.179 6.832-7.375-16.616-10.347 14.832-11.422-5.758c.011.011-4.193 34.255 15.24 38.323z"/></g><g class="R"><path d="M239.616 927.848s9.669-66.099-22.239-44.622-21.414 40.418-21.414 40.418-14.248-39.146-42.922-34.88 26.984 52.852 26.984 52.852-26.452-15.437-29.174 10.254 34.431 20.924 34.431 20.924-83.299 1.564-72.545 39.219 71.325-2.556 71.325-2.556 3.004 24.356 29.32 23.459 13.936-24.418 13.936-24.418 9.054 21.059 23.093 14.863.365-34.379.365-34.379 43.298 2.065 38.834-15.928c-8.793-35.412-52.717-5.048-52.717-5.048s34.64-32.7 21.905-46.406c-12.715-13.706-19.182 6.248-19.182 6.248z"/><path d="M405.692 954.206s53.384-33.368 35.037-61.718c-18.348-28.361-53.384 46.708-53.384 46.708s44.612-53.175-7.75-63.147c-25.993-4.954-38.959 38.124-38.959 38.124s-23.354-50.046-50.046-40.033 11.682 68.394 11.682 68.394-30.374-30.582-27.891 22.645c.605 13.049 29.706 14.853 29.706 14.853s-43.329 7.427-13.111 28.309c38.698 23.271 66.944 6.728 82.433-9.742 0 0 36.769 16.157 47.043 4.955 27.224-29.717-14.76-49.348-14.76-49.348z"/></g><mask id="c" x="-200%" y="-200%" width="400%" height="400%"><path d="M-1920-2160h3840v4320h-3840z" class="B"/><path d="M363.5 894.605s-14.853 35.903 0 94.961c4.246 16.856 16.095 22.645 16.095 22.645"/></mask><path d="M363.5 894.605s-14.853 35.903 0 94.961c4.246 16.856 16.095 22.645 16.095 22.645" mask="url(#c)" vector-effect="non-scaling-stroke" class="C D E F"/><mask id="d" x="-200%" y="-200%" width="400%" height="400%"><path d="M-1920-2160h3840v4320h-3840z" class="B"/><path d="M390.735 919.368l-33.42 26.045"/></mask><path mask="url(#d)" vector-effect="non-scaling-stroke" d="M390.735 919.368l-33.42 26.045" class="C D E"/><mask id="e" x="-200%" y="-200%" width="400%" height="400%"><path d="M-1920-2160h3840v4320h-3840z" class="B"/><path d="M303.253 888.013c10.733 11.766 13.205 28.883 17.336 56.117s13.205 48.69 13.205 48.69"/></mask><path d="M303.253 888.013c10.733 11.766 13.205 28.883 17.336 56.117s13.205 48.69 13.205 48.69" mask="url(#e)" vector-effect="non-scaling-stroke" class="C D E F"/><mask id="f" x="-200%" y="-200%" width="400%" height="400%"><path d="M-1920-2160h3840v4320h-3840z" class="B"/><path d="M323.885 904.515l-5.779 25.586"/></mask><path mask="url(#f)" vector-effect="non-scaling-stroke" d="M323.885 904.515l-5.779 25.586" class="C D E"/><path d="M220.726 799.979s14.811 4.965 21.748-11.777 5.371-22.884 5.371-22.884l-9.638 6.206-6.248-17.107-11.348 14.134-11.025-6.53c-.011-.02-8.011 32.565 11.14 37.958z" class="J"/><mask id="g" x="-200%" y="-200%" width="400%" height="400%"><path d="M-1920-2160h3840v4320h-3840z" class="B"/><path d="M326.367 875.632s28.883 13.205 51.997-34.661"/></mask><path d="M326.367 875.632s28.883 13.205 51.997-34.661" mask="url(#g)" vector-effect="non-scaling-stroke" class="C D E F"/><path d="M365.701 860.455s11.964 4.006 17.565-9.512c5.612-13.529 4.34-18.494 4.34-18.494l-7.782 5.017-5.048-13.82-9.169 11.411-8.907-5.278s-6.467 26.327 9.001 30.676z" class="J"/><mask id="h" x="-200%" y="-200%" width="400%" height="400%"><path d="M-1920-2160h3840v4320h-3840z" class="B"/><path d="M665.551 950.315s-22.28 58.183-47.042 71.805"/></mask><path d="M665.551 950.315s-22.28 58.183-47.042 71.805" mask="url(#h)" vector-effect="non-scaling-stroke" class="C D E F"/><mask id="i" x="-200%" y="-200%" width="400%" height="400%"><path d="M-1920-2160h3840v4320h-3840z" class="B"/><path d="M633.362 940.417s-3.296 41.681 17.743 41.681"/></mask><path d="M633.362 940.417s-3.296 41.681 17.743 41.681" mask="url(#i)" vector-effect="non-scaling-stroke" class="C D E F"/><mask id="j" x="-200%" y="-200%" width="400%" height="400%"><path d="M-1920-2160h3840v4320h-3840z" class="B"/><path d="M638.598 1001.342s20.903 10.452 28.612 0"/></mask><path d="M638.598 1001.342s20.903 10.452 28.612 0" mask="url(#j)" vector-effect="non-scaling-stroke" class="C D E F"/><g class="M"><path d="M550.428 1013.452s-12.381-25.993 1.241-29.706c13.612-3.714 12.381 14.853 12.381 14.853s-6.049-16.501 14.989-17.743c21.049-1.241 11.14 21.049 11.14 21.049s25.858-34.254 41.952-18.159-6.185 29.706-6.185 29.706 19.808 7.427 6.185 21.049-25.993 7.427-25.993 7.427 23.521 18.566 1.241 14.853-25.993-7.427-25.993-7.427 8.668 29.707-11.14 23.522-8.668-35.903-8.668-35.903 0 16.095-16.094 16.095-9.492-13.205-9.492-13.205-33.837-22.697-15.27-30.124 29.706 3.713 29.706 3.713z"/><path d="M550.908 1012.013s13.549-40.648-2.545-39.418c-16.095 1.242-11.14 17.336-11.14 17.336s-3.713-48.283-16.095-35.902-4.954 28.475-4.954 28.475-19.808-25.993-24.763-17.335 8.668 22.28 8.668 22.28-24.762-14.854-24.762 1.241 19.808 16.094 19.808 16.094-35.903 16.095-16.095 29.707 51.997-3.713 51.997-3.713 37.279 15.698 19.881-18.765zm-217.73 11.056s-29.132-31.417-13.966-36.945c15.166-5.518 17.304 11.182 17.304 11.182s-16.564-45.499-.177-39.345 16.272 23.886 16.272 23.886 7.291-31.855 15.385-26.014 1.314 23.876 1.314 23.876 16.408-23.761 23.062-9.106-11.39 22.843-11.39 22.843 39.345-.177 26.932 20.403-48.878 18.097-48.878 18.097-12.871 3.786-25.858-8.877z"/></g><mask id="k" x="-200%" y="-200%" width="400%" height="400%"><path d="M-1920-2160h3840v4320h-3840z" class="B"/><path d="M323.885 960.631l-23.521-11.964"/></mask><path mask="url(#k)" vector-effect="non-scaling-stroke" d="M323.885 960.631l-23.521-11.964" class="C D E"/><g class="M"><path d="M259.058 71.732s23.146-6.947 23.146 3.473-18.514 15.041-23.146 9.252c-4.62-5.779 0-12.725 0-12.725zM241.66 25.774s36.226-10.66 27.704 10.66-31.96 12.788-27.704-10.66zm-6.394 21.31s17.054 11.724 6.394 20.246-20.246-13.852-6.394-20.246zm19.182 80.983s31.97-31.969 40.492-17.054-12.788 25.576-21.31 25.576c0 0 29.832 14.916 14.916 25.576s-19.182-4.266-19.182-4.266-17.054 29.832-25.576 10.66 2.128-21.31 2.128-21.31-17.054-12.788-12.788-25.575 21.32 6.393 21.32 6.393z"/><path d="M239.532 87.576s36.226 19.182 10.66 29.831c-25.576 10.66-29.842-21.299-10.66-29.831z"/></g></g></svg>