<svg xmlns="http://www.w3.org/2000/svg" xmlns:xlink="http://www.w3.org/1999/xlink" viewBox="0 0 1920 1080" xmlns:v="https://vecta.io/nano"><style><![CDATA[.t{fill:#273150}.u{fill:#f6874e}.v{fill:#ce6d3e}.w{fill:#f6be4a}.x{fill:none}.y{stroke-miterlimit:10}.z{fill:#f4e8d8}.AA{fill:#1d2436}.AB{fill:#1d2538}.AC{fill:#29ace4}.AD{stroke-linecap:round}.AE{stroke-linejoin:round}.AF{fill:#992c29}.AG{fill:#c93f37}.AH{fill:#a86243}.AI{fill:#634874}.AJ{opacity:.5}.AK{fill:#3d4c6d}.AL{fill:#972b28}.AM{fill:#7a4630}.AN{fill:#13161f}.AO{fill:#1689cb}.AP{fill:#c73f37}.AQ{fill:#102441}.AR{stroke-width:2}.AS{stroke:#273150}.AT{fill:#ec5e4d}]]></style><g class="z"><path d="M1540.03 947.13c-31.05-44.38-242.6-204.98-575.22-191.73-282.11 11.24-479.42 141.35-509.53 155.98s-17.56 24.39 67.75 12.19 127.96-9.76 127.96-9.76L645.97 926s-67.95 57.12-72.96 76.63c-5.02 19.51 22.58 21.95 52.69 9.76s251.11-54.68 278.71-57.12 76.25 13.16 96.32 15.59c20.07 2.44 152.55 43.73 180.4 46.14 27.85 2.42 13.89-42.55-21.36-106.13-15.62-28.18 128.79 43.44 161.41 50.76s-15.38-35.61-20.4-42.92 185.74 41.43 225.89 63.38c40.14 21.97 44.41 9.42 13.36-34.96zM793.04 734.45s-243.82 44.75-342.45-99.54-8.02-352.63 178.28-392.81c0 0-195.63 81.41-126.22 282.31s290.39 210.04 290.39 210.04zm572.3-72.29c53.02-51.27 60.27-94.95 90.16-146.03s61.61-79.06 61.61-79.06-19.34-.03-67.02 42.92c-42.44 38.23-84.75 126.79-84.75 126.79 9.56-44.1 6.76-99.73 6.76-99.73-55.59 121.54-249.5 207.54-304.3 179.52.01 0 144.54 123.54 297.54-24.41zm-119.35-201.67c9.13 0 171.71-75.22 178.99-147.94 5.48-54.79-5.48-136.98-138.81-178.99-151.26-47.66-213.69-23.74-272.13-7.31 0 0 162.55-23.74 263 47.49 167.93 119.09-31.05 286.75-31.05 286.75zm-74.89-191.77s-107.76-100.45-213.69-84.01c-74.02 11.49-266.66 58.76-295.88 175.33-20.01 79.86 69.4 111.41 69.4 111.41s-56.62-31.05-29.22-107.76 197.25-158.9 305.01-151.59 164.38 56.62 164.38 56.62zM626.84 369.17s-89.49 80.36-34.7 127.85 168.03 7.31 168.03 7.31-80.36 7.31-116.89-38.35c-36.53-45.67-16.44-96.81-16.44-96.81z"/><path d="M450.59 634.91s-131.5-57.53-101.36-169.85 82.19-60.27 82.19-60.27-10.96-104.1 46.57-136.98 79.45-11.87 79.45-11.87 27.4-29.22 41.09-23.74c6.09 2.44 6.94 7.03 6.02 11.39-1.24 5.84-36.99 24.79-42.55 26.96-16.08 6.29-29.87 11.78-63.01 45.66-48.56 49.64-65.07 120.8-62.1 181.73 5.48 112.31 13.7 136.97 13.7 136.97zm165.29-242s25.57-43.83-7.31-51.14-34.7 62.1-34.7 62.1-10.96-16.44-27.4 12.78 20.09 73.06 45.66 80.36c25.58 7.31 12.79-80.35 23.75-104.1zm767.54-34.7s54.11-6.28 80.82-67.12c24.66-56.16 0-93.15-28.77-101.36-28.77-8.22-52.05 4.11-52.05 4.11s24.66-71.23-36.98-79.45-60.27 19.18-60.27 19.18-20.55-30.14-49.31-42.46c-28.77-12.33-27.4 27.4-27.4 27.4s-27.4-30.14-65.75-21.92-37.35 17.56-19.54 18.93 124.78 1.56 194.64 72.79 64.61 169.9 64.61 169.9zM802.17 237.67S862.9 160.96 946.45 150c66.84-8.77 33.28 38.04 42.92 32.88 25.57-13.7 57.61-25.77 70.32-18.26 20.09 11.87 2.74 26.48 2.74 26.48s57.53 31.96 65.75 49.31c.91 4.57-47.61-36.32-110.5-41.09-72.14-5.48-215.51 38.35-215.51 38.35z"/></g><path d="M639.19 587.06s-3.21-11.67-6.88-20.03c-3.51-8-6.2-2.45-7.91 5.44-1.79 8.27-.95 20.84-.98 23.84-.03 3.01 15.25 1.3 15.77-9.25z" class="AB"/><path d="M671.64 686c8.78-3.41 27.59-26.33 23.84-42.19s-7.49-39.37-12.4-48.16c0 0-.77-16.66-2.36-25.61-1.58-8.94-3.94-9.34-7.08-5.02s-7.3 19.04-7.3 19.04-20.93-8.38-37.79-1.09-22.01 18.72-23.4 28.47l-.51.71s-18.47 4.56-27.16 8.14-11.32 8.04-7.38 17.38 4.6 14.01 9.94 17.44 28.92 10.91 41.02 12.69c0 0 5.14 21.81 9.26 27.63 4.12 5.83 32.55-6.01 41.32-9.43z" class="t"/><path d="M674.32 659.07s24.91.6 21.17-15.26-7.49-39.37-12.4-48.16c0 0-.77-16.66-2.36-25.61-1.58-8.94-3.94-9.34-7.08-5.02s-7.3 19.04-7.3 19.04-20.93-8.38-37.79-1.09c0 0 19.55.5 27.15 7.79s17.05 37.14 17.05 37.14-21.42 26.08-20.13 27.91c4.11 5.83 21.69 3.26 21.69 3.26z" class="AB"/><path d="M635 587.32l-4.2-18.97c-1.98-8.51-6.11-3.62-7.82 4.27-1.79 8.27-2.75 16.76-2.78 19.77-.02 3.01 15.39 2.29 14.8-5.07z" class="t"/><g fill="#121721"><ellipse transform="matrix(.3307 -.9437 .9437 .3307 -151.1884 996.7592)" cx="627.14" cy="604.97" rx="7.16" ry="4.78"/><path d="M568.29 629.3c-.63 5.16 1.99 7.53 3.3 10.44 1.79 3.97 12.7-3.46 13.34-8.62.63-5.16.69-12.42-5.47-11.28-4.29.8-10.54 4.3-11.17 9.46z"/></g><path d="M646.92 660.94s-23.73 12.19-25.22 6.61c-11.88-1.61-31.03-7.81-31.03-7.81l32.11-.02 24.14 1.22zm112.58 15.27c-.91-2.96-3.66-19.1-7.18-24.84-3.51-5.74-12.37-18.93-22.97-18.55 0 0 6.09-7.65 25.15 1.66 19.06 9.3 21.73 37.18 21.94 39.54.92 10.54-14.35 10.63-16.94 2.19zM627.34 818.89c1.7-4.97 8.38-10.25 8.38-10.25.64-1.12 2.86-3.37 3.03-4.44l5.17-34.07c.45-7.42-2.84-29.52-2.23-46.51s26.44-3.63 27.63 12.78c.85 11.7-7.29 59.58-8.14 64.26l-6.31 15.3c-2.33 3.26-8.8 5.58-15.45 5.9-6.64.3-13.74 1.89-12.08-2.97zm113.71-94.01c-6.44-2.13-16.45 3.42-16.56 12.55-.09 7.77 35.24 38.48 35.24 38.48l1.98 6.26s-4.98 5.75-2.85 8.84c.5.73 7.31-.47 12.8-1.57 4.02-.81 6.88-2.73 6.87-4.66l-.02-2.43 2.08-9.22-24.32-25.31c.01.01-6.42-20.02-15.22-22.94z" class="AB"/><path d="M650.83 661.21s26.66-19.06 50.07-8.58c20.93 9.37 30.47 10.95 53.81 11.3 14.66.22 24.73 51.8 21.69 61.84-5.5 18.76-70.25 20.42-78.55 20.7-24.46.83-44.91-11.69-55-16.47-9.05-4.29-22.38-29.15-11.06-48.08 4.32-7.22 9.3-15.04 19.04-20.71z" class="t"/><path d="M657.48 663.14c15.23-12.15 20-20.98 43.42-10.51 20.93 9.37 36.77 11.26 60.1 11.97 26.41.81 22.86 45.19 15.1 64.21-5.89 14.44-69.95 17.38-78.24 17.66 0 0 22.4-14.5 21.3-24.81-1.09-10.31-26.79-25.46-26.79-25.46-12.38-12.57-40.29-28.75-34.89-33.06z" class="AB"/><path d="M671.53 817.24c-.03-4.49 11.03-15.34 10.96-16.44-1.13-18.56-5.79-36.13-6.53-40.36-1.51-8.68-11.33-23.39-14.71-42.15-3.26-18.08 28.96-9.21 33.18 11.63 2.43 12.02 8.43 53.33 9.97 64.61a12.14 12.14 0 0 1-.29 4.76l-6.43 13.7c-.75 3.93-6.97 7.31-14.58 7.76s-11.52 2.6-11.57-3.51z" class="t"/><path d="M776.73 706.27c-8.04-7.33-25.92 2.3-29.18 5.28-3.42 3.13 11.52 22.8 12.27 25.55.78 2.87 33.88 21.12 40.6 26.46 7.27 5.78 1.19 13.72 5.53 16.2 2.2 1.26 20.55-2.59 19.38-9.79-1.1-6.8-8.32-17.51-8.5-18.05-.35-1.05-28.77-23.1-29.45-24.47-.65-1.34-8.27-19-10.65-21.18z" class="AB"/><path d="M696.4 644.58s4.83 5.13 6.05 9.65c0 0-14.71 10.63-41.23 23.27-14.21 6.77-36.16 12.99-36.16 12.99l-3.19-11.91c.01-.01 44.85-11.78 74.53-34z" class="AF"/><path d="M622.04 678.7s-7.71 15.81-6.47 23.76l19.89 6.37c0 0-7.72-23.14-13.42-30.13z" class="AG"/><g class="AF"><path d="M622.04 678.7c5.88 5.85 13.42 30.13 13.42 30.13s-10.37-8.26-11.43-11.44-1.99-18.69-1.99-18.69z"/><path d="M625.15 686.57s14.23 12.49 20.59 14.05l1.65-10.56c.01 0-10.3-5.21-22.24-3.49z"/></g><path d="M957.42 497.91l-93.15-5.48c-26.42-3.53-26.15-39.67-25.56-66.57l1.21-93.57c.54-26.12 15.4-43.96 41.8-43.96h76.6c29.62 0 47.49 17.72 47.49 46.55l7.31 118.58c0 30.05-25.23 48.59-55.7 44.45z" class="AI"/><path d="M860.43 316.47c8.61-19.87-15.18-37.97-37.85-45.78-32.18-11.08-35.99-16.99-49.18-23.85-16.2-8.43-29.94-11.53-39.76-4.14-9.81 7.39-11.94 20.19-6.13 25.77 13.71 13.19 20.25 16.13 37.7 28.6 31.96 22.83 49.03 27.79 59.36 34.7 17.31 11.59 25.56 8.47 35.86-15.3z" class="AH"/><path d="M867.16 319.52c8.61-19.87-119.41-34.92-101.96-22.46 31.96 22.83 49.03 27.79 59.36 34.7 17.32 11.6 32.31 11.53 42.6-12.24z" fill="#d77e5b"/><path d="M752.85 218.03c-6.96 10.05-18.05 27.33-8.66 36.73 6.77 6.77 3.86 13.56 13.87 8.7 11.25-5.47 18.21-31.04 18.51-31.65 5.29-10.71-16.68-23.93-23.72-13.78z" class="AM"/><path d="M793.36 161.28s-45.5 34.14-57.45 47.51c-11.82 13.23-22.11 29.37-15.26 47.55 4.16 11.04 8.94 18.51 23.74 13.71 16.99-5.51 30.07-29.54 36.92-44.84 9.19-20.49 20.99-30.83 27.96-37.98 8.94-9.17 8.25-38.13-15.91-25.95z" class="AH"/><path d="M857.52 154.21l.81 13.78-8.91 2.43-7.03-11.82z" class="t"/><path d="M785.09 178.63l10.42-16.64s21.94-8.21 34.59-9.14 19.83 5.02 19.83 5.02l1.07 24.39c.12 2.75-1.7 5.25-4.19 5.77l-3.89.81-5.99-.29-.23 3.27c-.11 1.64-1.16 3.07-2.61 3.57l-7.85 2.69-11.68 2.55s-8.81-2.23-7.88-8.11-16.26 5.36-21.59-13.89z" class="AH"/><path d="M771.88 177.72l8.59 14.59 21.6-6.97c1.87-.6 2.89-3.17 2.16-5.45h0c-.83-2.6-3.1-3.93-5.2-3.06l-14.74 4.12-2.86-6.49-9.55 3.26z" class="t"/><path d="M756.06 125.62c-21.92 8.22-115.98 36.53-115.98 36.53-.61 4.57.61 23.74 3.96 25.87 0 0 13.7 18.26 96.49.61 96.66-20.61 195.78-61.3 195.78-61.3l-1.58-26.37c.01.01-156.76 16.44-178.67 24.66z" fill="#b44c29"/><path d="M749.66 110.71c-22.12 7.66-97.41 31.51-108.37 48.25-8.56 13.08 20.7 25.11 126.63.46s147.94-46.73 163.46-54.03c15.52-7.31-20.55-16.74-87.36-20.24-15.3-.81-46.87 9.12-94.36 25.56z" fill="#f08650"/><path d="M644.34 169.76l35.31-12.18-30.44 16.44zm200.52-83.63l-59.13 19.41c.01-.01 59.01-16.84 59.13-19.41zm-121.22 65.52c9.59-4.57-30.79 7.86-51.14 16.44 0 0 41.55-11.88 51.14-16.44zm169.4-28.77l-4.57-5.48 15.52 2.29zm-162.55 47.03l6.85-7.3 8.21 5.93zm78.03-52.84c2.61 3.82-3.49 9.89-17.01 14.61-19.41 6.77-45.37 8.17-48.5.33-2.95-7.4 17.92-16.07 37.86-18.62 14.24-1.83 25.11-.03 27.65 3.68z" fill="#b44c29"/><path d="M807.27 113.87c2.19 2.78-4.08 7.98-17.31 12.69-18.99 6.76-43.8 9.85-46.17 3.98-2.24-5.54 18.28-13.9 37.45-17.42 13.69-2.51 23.9-1.95 26.03.75z" fill="#f08650"/><g class="AH"><path d="M960.72 290.53c3.89-13.63 24.9-5.45 35.39 1.14 16.69 10.47 14.94 18.25 26.25 24.15 20.43 10.66 76.96 49.7 61.53 67.47-15.42 17.77-41.31 1.97-61.51-10.62-14.46-9.01-40.12-28.31-54.56-42.44-6.01-5.88-10.99-26.07-7.1-39.7z"/><path d="M1080.36 409.36c7.44-12.19 15.08-23.17 4.98-35.38-15.82-19.11-28.23-8.65-38.86 4.44-10.45 12.88-10.4 17.18-19.94 30.14-9.61 13.05-28.1 31.8-28.1 31.8s-15.65 14-8.19 24.51c7.87 11.1 13.43 11.22 22.14 6.47 12.71-6.92 62.37-52.8 67.97-61.98z"/></g><path d="M833.49 744.23a4.6 4.6 0 0 0-.68.31c-3.31 1.82-30.34 16.44-33.48 20.36-2.57 3.21-.93 15.04-.03 20.36a4.56 4.56 0 0 0 3.01 3.55c6.4 2.21 23.26 8.09 39.61 6.44 20.5-2.07 19.87-9.79 35.13-17.09l19.08-9.4c1.45-.75 2.08-2.2 2.16-3.83l.84-17.88c.1-2.24-1.14-4.23-3.34-4.67-10.17-2.08-38.82-6.62-62.3 1.85z" class="AC"/><path d="M833.14 744.36s-31.06 16.96-34.4 21.13-.17 18.55-.17 18.55 22.23 8.84 42.73 6.77 20.49-8.9 35.75-16.2l20.43-10.11a1.91 1.91 0 0 0 1.03-1.61l.93-17c.09-1.56-.97-2.95-2.49-3.27-8.99-1.93-39.29-7.26-63.81 1.74z" class="AN"/><path d="M818 752.41s15.52-5.48 30.74 1.52m-19.48-8.22s15.52-5.48 30.74 1.52" stroke="#29ace4" class="x y AD AE AR"/><path d="M998.94 744.9c17.21 6.02 42.17 11.87 43.34 19.57 1.17 7.64 1.98 15.7 1.31 18.56-.51 2.16-1.43 3.45-3.09 4.16-4.23 1.81-12.67 6.15-29.74 7.85-7.37.74-23.55-3.22-33.42-10.53l-20.78-15.1a4.14 4.14 0 0 1-1.69-2.78l-1.29-8.66a4.17 4.17 0 0 1 2.23-4.33c7.49-3.8 29.09-13.65 43.13-8.74z" class="AC"/><path d="M1005.88 741.35c15.03 5.67 35.6 14.24 36.77 22.74 1.05 7.66 1.52 11.87 1.31 14.8-.1 1.43-3.56 2.11-5.25 2.82-4.3 1.81-12.89 6.16-30.24 7.88-7.5.74-22.22-1.47-32.24-8.77l-21.58-15.41c-.63-.44-1.05-1.12-1.18-1.88l-1.26-7.47a6.73 6.73 0 0 1 4.36-7.46c11.16-4.03 35.94-12.29 49.31-7.25z" class="AN"/><path d="M996.38 757.58s14-12.78 29.83-7.91m-39.57 1.82s14.61-11.57 30.44-6.7" stroke="#29ace4" class="x y AD AE AR"/><g class="w"><path d="M993.94 489.71s4.51 59.73 12.78 107.76c4.46 25.9 8.64 72.27 11.28 106.04 1.78 22.76 3.24 39.93 2.18 40.71-2.61 1.94-15.22-1.83-38.26 3.94-22.74 5.7-32.1 8.99-32.1 8.99l-3.57-10.98s-2.14-5.11.66-26.18c.83-6.23-6.3-15.9-7.32-23.84l-20.55-180.87c-7.09-79.84 60.02-92.45 74.9-25.57z"/><path d="M993.94 489.71s4.51 59.73 12.78 107.76c5.09 29.56 9.09 80.03 12.52 115.16.72 7.37 3.41 7.99 3.91 13.69.6 6.87-.41 16.74-3.38 18.3-3.22 1.69-14.8-2.23-37.84 3.54-22.74 5.7-32.1 8.99-32.1 8.99l-3.57-10.98c-1.12-5.21-1.29-7.8.66-26.18.66-6.16-6.36-16.34-7.32-23.84l-20.55-180.87c-7.1-79.84 60.01-92.45 74.89-25.57z" class="AJ"/><path d="M841.97 486.31l-4.99 108.71-5.16 149.1s5.14-1.98 26.95-1.3l31.3 13.91s7.02 1.9 8.87.84c1.85-1.05 6.87-5.98 7.36-17.96 1.56-38.09 1.85-121.1 1.28-127.25-.52-5.55.01-69.68 4.19-117.22 1.83-20.83-7.77-38.27-35.31-45.38-26.44-6.82-33.8 15.58-34.49 36.55zm164.76 111.16c5.04 29.28 9.02 79.05 12.42 114.14.25 2.53 3.5 8.92 3.74 11.28 1.36 13.41-1.05 21.87-3.69 22.42-2.65.54-14.22-2.92-37.26 2.85-22.74 5.7-32.1 8.99-32.1 8.99l-3.57-10.98s22.8-32.57 34.89-53.73c3.65-6.39 17.72-25.37 21.46-50.68 3.5-23.68 2.08-56.05 4.11-44.29z"/><ellipse cx="916.93" cy="468.94" rx="73.36" ry="53.65"/><ellipse cx="916.93" cy="468.94" rx="73.36" ry="53.65" class="AJ"/></g><g stroke="#feed7f" stroke-width="3" class="x y"><path d="M905.97 468.25c1.91-11.27-6.32-4.2-12.71-.46-4.72 2.77-8.46 4.85-4.06 8.03 7.08 5.12 15.53-.24 16.77-7.57zm1.22-1.37s9.13 10.5 17.35 11.87 6.85-10.96 1.37-13.24-15.52-2.28-18.72 1.37z"/><path d="M907.65 465.97s11.41 11.19 11.87 26.71m-13.7-4.11l1.83-22.6"/></g><path d="M985.88 680.95c10.34-10.69 19.76-36.19 19.02-48.78l-40.18 58.44c-3.68 6.69 20.76-9.24 21.16-9.66z" class="w"/><path d="M863.25 283.01s-6.75 1.57-8.79 22.83c-.91 9.47-8.71 53.24-8.15 83.49.66 35.46-2.37 83.4-2.37 83.4s24.72-7.29 61.19-10.09c36.48-2.8 80.71 12.36 80.71 12.36 14.12 2.33-.8-40.41-4.04-56.69-3.79-19.05 1.56-53.51-1.58-79.2-4.73-38.63-11.34-46.39-12.13-49.56-1.73-6.96-24.1-7.17-39.18-9.33-22.06-3.14-49.44.45-65.66 2.79z" class="AC"/><path d="M845.09 334.58s68.49-18.91 121.91-3.31l2.74 14.18s-62.55-22.69-126.48 2.84l1.83-13.71zm-2.28 17.02s70.77-19.38 124.19-3.78l2.74 14.18s-62.1-21.27-126.02 4.25l-.91-14.65z" class="AK"/><path d="M863.25 283.01s-6.75 1.57-8.79 22.83c-.91 9.47-8.71 53.24-8.15 83.49 34.05-52.24 115.92 72.15 143.98 74.59 7.76.67-8.9-29.1-9.74-57.98-.98-33.75 4.11-63.33 4.11-63.33-4.73-38.63-15.77-49.87-16.56-53.05-1.73-6.96-24.1-7.17-39.18-9.33-22.07-3.15-49.45.44-65.67 2.78z" class="AC AJ"/><g class="AM"><path d="M943.72 281.88c1.03-.06 0 2.37 0 2.37-7.23 6.56-24.17 16.77-39.24 16.77-14.87 0-27.39-.94-30.62-10.48-1.39-4.11 5.18-9.52 5.18-9.52s11.81-2.02 25.42-2.44c13.28-.42 38.23 3.36 39.26 3.3z"/><path d="M903.95 287.66c-11.95-.38-11.58-9.61-11.49-15.4l1.18-18.9c.07-4.6 4.88-8.41 12.32-8.19l12.85.2c7.22.22 10.76 4.19 11.42 8.65 0 0 2.12 19.92 1.38 26.13-.76 6.3-15.7 7.88-27.66 7.51z"/></g><path d="M988.57 326.38s3.33 41.91-2.42 36.57c-20.96-19.48-17.73-55.88-16.12-65.61s6.2-13.46 12.49-9.23c9.68 6.48 6.05 38.27 6.05 38.27z" class="AH"/><path d="M855.86 277.38c5.54.17 12.87 1.84 11.56 4.73-3.96 8.75-10.19 30.49-13.45 48.64-3.82 21.26-7.25 40.61-8.9 55.26-.76 6.76-6.67 12.11-11.93 8.33-1.49-1.07-2.61-2.57-2.96-4.66-1.37-8.37-6.13-44.83 13.5-104.59 2.43-7.38 6.35-7.89 12.18-7.71zm122.13 4.74c-3.65-2.84-18.88-5.95-24.53-4.21s-4 26.64 3.04 54.78c6.81 27.2 17.34 62.46 22.96 68.68 1.11 1.22 2.67 1.85 4.28 1.74 3.38-.24 8.76-1.42 8.48-6.53-.4-7.41-6.33-40.13-10.92-75.7-3.9-30.32.23-36.01-3.31-38.76z" class="AI"/><path d="M996.93 480.61c3.1.98 6.53.19 8.81-2.13 5.41-5.49 7.64-13.72 6.9-22.54-.91-10.96-14.15-15.07-22.68-16.89-6.75-1.45-12.35-2.89-14.39-3.43a1.69 1.69 0 0 0-1.5.32l-24.23 19.62a1.68 1.68 0 0 0-.62 1.4l.48 9.11a1.69 1.69 0 0 0 1.69 1.6h0c1.48 0 2.24 1.76 1.24 2.84l-.55.59a1.7 1.7 0 0 0-.3 1.86l2.41 5.21a1.69 1.69 0 0 0 2.37.76l1.54-.88a1.68 1.68 0 0 1 2.03.27l4.34 4.34a1.68 1.68 0 0 0 1.9.34l5.2-2.4a1.69 1.69 0 0 1 2.24.83c.55 1.16 1.51 2.66 3.06 3.43 2.38 1.19 12.46-3.94 15.06-5.3.4-.21.86-.25 1.29-.11l3.71 1.16z" class="AH"/><path d="M973.34 436.54l-23.49 19.01a1.68 1.68 0 0 0-.62 1.4l.48 9.11a1.69 1.69 0 0 0 1.69 1.6h0c1.48 0 2.24 1.76 1.24 2.84l-.55.59a1.7 1.7 0 0 0-.3 1.86l2.41 5.21a1.69 1.69 0 0 0 2.37.76l1.54-.88a1.68 1.68 0 0 1 2.03.27l4.34 4.34a1.68 1.68 0 0 0 1.9.34l5.2-2.4a1.69 1.69 0 0 1 2.24.83c.55 1.16 1.51 2.66 3.06 3.43 2.27 1.14 11.56-3.49 14.66-5.1.61-.32.97-.98.9-1.67l-.81-8.16a10.68 10.68 0 0 0-3.24-6.66l-3.1-2.97a10.65 10.65 0 0 1-3.29-7.36l-.15-4.36c-.07-2.06-.73-4.06-1.91-5.75l-4.16-5.96c-.56-.78-1.68-.94-2.44-.32z" fill="#d77e5b"/><path d="M952.08 217.77c-1.32 35.38-8.7 46.48-32.24 46.88-17.8.3-32.24-20.99-32.24-46.88s14.44-46.88 32.24-46.88 33.42 15.03 32.24 46.88z" class="t"/><path d="M942.15 209.75c-.17-23.21-2.7-36.49-28.37-38.38-13.4-.98-26.59.24-34.36 4.26-7.02 3.64-11.26 9.3-13.71 24.53-1.85 11.47-4.45 31.31-.61 50.52 2.46 12.31 18.25 16.97 32.17 17.93 35.94 2.48 41.46-7.07 43.7-24.01 3.02-22.93 1.24-25.32 1.18-34.85z" class="AM"/><path d="M937.5 223.8c-.22-20.12-8.49-28.86-31.6-30.57-12.06-.89-35.82 5.32-36.93 18.64-1.19 14.42-2.92 26.98-.36 39.46 2.2 10.73 13.71 14.49 26.25 15.37 32.36 2.26 39.73-8.7 41.64-23.38 1.63-12.5 1.09-11.26 1-19.52z" fill="#a96344"/><path d="M873.9 175.29c-2.15 1.3-2.98 2.59-4.5 10.89-.32 1.75 2.9-5.01 5.8-7.65s2.23.9 17.41.53 36.7-2.98 36.7-2.98l2.11 20.98 7.84 18.22 4.73-10.06c.71-17.86-2.51-28.26-14.24-32.2-21.47-7.22-47.96-2.51-55.85 2.27z" class="t"/><path d="M911.97 193.64c-.27 3.54-1.94 6.27-3.74 6.13s-3.06-3.09-2.83-6.63c.23-3.58 1.91-6.41 3.75-6.27 1.83.14 3.09 3.19 2.82 6.77z" fill="#102342"/><path d="M904.64 186.59l9.05-2.87" class="x y AD AE AS"/><path d="M886.58 194.53c-.12 3.34-1.58 5.91-3.26 5.78-1.69-.13-2.99-2.91-2.91-6.25.08-3.37 1.54-6.03 3.26-5.9 1.73.13 3.03 3 2.91 6.37z" fill="#102342"/><path d="M885.7 186.59l-8.13-2.32" class="x y AD AE AS"/><path d="M953.64 224.94c-2.36 9.57-9.14 16.29-15.21 15.31l.1-25.84c-.06-2.6 1.44-10.62 7.91-9.56 6.45 1.05 9.64 10.19 7.2 20.09z" class="AM"/><path d="M950.22 231.77c-.34 2.31-2.53 4-4.89 3.81s-4.04-2.2-3.73-4.51c.3-2.33 2.5-4.07 4.9-3.88 2.39.2 4.06 2.26 3.72 4.58z" fill="#e2d6c9"/><path d="M1046.07 419.15s-25.94.43-38.03-4.26c-12.09-4.68-8.68-54.5 15.36-61.06 27.47-7.5 60.48 8.52 78.74 21.4s10.84 32.14-15.58 41.22c-26.81 9.21-40.49 2.7-40.49 2.7z" class="AO"/><path d="M1102.6 395.74c0 12.8-48.55 13.45-63.36 13.45-14.8 0-26.8-10.38-26.8-23.18s12-23.18 26.8-23.18c14.8-.01 63.36 20.11 63.36 32.91z" class="AF"/><path d="M1092.72 403.81s65.9 22.43 104.26 78.44c32.84 47.96 79.14 17.05 106.54 29.83s-135.99 43.96-164.22 51.6c-33.79 9.13-133.78-103.71-115.06-134.75 22.62-37.53 68.48-25.12 68.48-25.12" class="AO"/><path d="M1108.7 418.48c.33 1.55 35.81 16.8 58.29 51.75 47.79 74.27 107.15 26.18 134.54 38.96s19.48 45.75 19.48 45.75-45.66-12.78-56.62 23.74-105.99 41.69-134.22 49.32c-33.79 9.13-111.49-4.54-111.49-4.54s-29.33-124.15 7.69-206.81c6.54-14.61 52.66-10.96 52.66-10.96l29.67 12.79z" class="AF"/><g class="t"><path d="M1054.37 310.09s-12.14-4.05-24.28 12.14c-9.54 12.72-14.39 24.28-4.95 40.01 2.67 4.45-8.09 5.4-1.35 24.28 7.06 19.77 47.21 20.68 60.7 11.24 0 0 26.08 22.03 55.3 6.29 19.66-10.59-7.19-38.67-7.19-38.67s14.03-30.55-18.34-60.67c-23.05-21.44-47.75-6.76-59.89 5.38z"/><ellipse cx="1045.07" cy="317.92" rx="15.51" ry="26.3"/><ellipse transform="matrix(.3925 -.9198 .9198 .3925 371.9092 1163.4009)" cx="1066.65" cy="300.17" rx="20.91" ry="12.81"/></g><g class="AK"><path d="M1051.08 316.74s-10.1-6.54-21.39 6.75-13.1 25.05-4.96 38.61c2.3 3.84-7.26 7.46-1.45 23.74 3.24 9.06 18.09 12.77 17.14 11.08s-.13-6.46-.13-6.46c10.21 6.1 26.9 9.69 44.51 8.31 9.89 5.93 28.13 5.33 39.92-1.02 16.95-9.12-6.2-33.33-6.2-33.33s12.1-26.33-15.81-52.3c-19.87-18.51-41.16-5.85-51.63 4.62z"/><path d="M1049.4 318.45c0 12.52 1.06 27.71-6.33 27.71-7.38 0-13.37-10.15-13.37-22.67s5.99-22.67 13.37-22.67 6.33 5.11 6.33 17.63z"/><path d="M1068.78 305c-3.91 9.15-8.57 22.15-14.18 19.75-5.61-2.39-6.99-11.76-3.09-20.91 3.91-9.15 11.62-14.63 17.23-12.24 5.61 2.4 3.95 4.25.04 13.4z"/></g><path d="M1105.7 404.03s11.34-3.16 13.19-11.34c0 0 3.96 11.87-13.19 11.34z" class="t"/><path d="M1118.2 431.8l24.15 46.17c5.35 9.27-9 20.07-18.36 17.56s-27.21-45.97-31.69-55.17c-4.49-9.21 14.06-23.66 25.9-8.56z" class="u"/><path d="M1120.8 436.33s-17.22-34.39-28.81-32.57c-11.62 1.82-11.39 7.06-8.92 17.18 3.66 15 13.68 35.08 13.68 35.08s9.97-15.83 24.05-19.69z" class="AG"/><path d="M1165.78 475.86s-23.29-1.52-28.77-3.35-24.89 7.08-16.89 20.09c6.54 10.65 42.31 6.54 48.4 4.11s8.67-18.72-2.74-20.85z" class="u"/><path d="M1225.9 230.66l-37.22 194.62-.83 5.66c-.61 1.39-2.1 1.62-7.55.37l-23.35-4.06 32.59-203.68c.16-1.04 19.69-18.48 19.69-18.48.65-.06 1.47-1 3.11.93l13.15 21.01c.78 1.6.57 2.79.41 3.63z" class="w"/><g class="u"><path d="M1225.9 230.66l-37.22 194.62-.83 5.66c-.61 1.39 1.97 1.7-3.47.44l37.44-202.84s-11.12-24.46-9.47-22.53l13.15 21.01c.77 1.61.56 2.8.4 3.64z"/><path d="M1206.19 325.55l1.91-7.78c.24-.56-.81-.89-1.9-.59l-7.4 2.04c-.66.18-.97.59-.69.9l6.53 6c.47.52 1.29 0 1.55-.57zm-24.42-53.86l5.27-3.61-3.93-4.34zm35.78-9.77l-6.22-5.98 7.77-.5z"/></g><g stroke="#f4e8d8" class="x y"><path d="M1210.67 205.12l-40.06 223.81"/><path d="M1176.01 308.16l4.82.84 4.18-5.94-2.96-5.94 10.31-9.45 3.94-3.7"/></g><g class="AB"><path d="M1162.33 504.35c-.1.31-2.42 1.4-6.58.3-4.88-1.29-4.45-4.64-4.45-4.64l8.25-71.28 22.76 3.65-19.98 71.97z"/><path d="M1152.08 525.9c6.66 1.71 12.9-3.19 13.8-10.59.86-7.03-3.47-13.61-9.56-15.02-6.02-1.39-11.94 2.72-13.35 9.46-1.48 7.09 2.53 14.46 9.11 16.15zm3.56-18.73c2.28.8 3.96 3.95 3.74 7.1-.22 3.22-2.34 5.18-4.71 4.31-2.35-.87-3.99-4.17-3.67-7.32.31-3.08 2.38-4.89 4.64-4.09z"/></g><path d="M1151.45 521.31c3.77 1.04 7.33-1.79 7.9-6.18.11-.86.09-1.72-.03-2.54.08.55.1 1.12.06 1.69-.22 3.22-2.34 5.18-4.71 4.31-2.35-.87-3.99-4.17-3.67-7.32.31-3.08 2.38-4.88 4.64-4.09 1.41.5 2.59 1.89 3.23 3.63-.87-2.44-2.72-4.38-5.04-4.97-3.55-.91-6.99 1.62-7.74 5.77-.76 4.27 1.61 8.67 5.36 9.7zm7.8-9.12l-.04-.22a2.07 2.07 0 0 1 .04.22zm-.2-.85l-.11-.34.11.34z" class="w"/><path d="M1158.96 504.54a.64.64 0 0 1 .37.13c.82.64 1.48 1.34 1.95 2.1.18.28.06.66-.25.84s-.71.1-.88-.18c-.4-.64-.97-1.25-1.68-1.8-.27-.21-.29-.59-.05-.85a.64.64 0 0 1 .54-.24z" class="z"/><path d="M1161.18 475.32c-4.19 0-7.13 1.32-7.13 1.32l4.12-34.83 1.2-14.68s21.49 3.12 24.2 3.93l-3.92 15.21-9.03 30.26c0 .01-5.25-1.21-9.44-1.21z" class="AP"/><path d="M1173.48 466.94l-1.27 4.19s-7.25-.61-15.97-.61c.01 0 2.64-2.5 17.24-3.58z" class="AB"/><path d="M1154.03 476.91s11.98-.1 15.91 1.93l-1.53 4.98s-12.22-3.4-14.79-3.4l.41-3.51z" class="AP"/><path d="M1155.5 464.42l.17-1.37s9.15-.52 15.23 1.41l-15.4-.04zm19.91-4.55l1.12-3.55s-12.17-2.64-20.18.51c0 0 14.7-.51 19.06 3.04zm4.24-13.59l-1.83 6.05s-11.95-4.85-20.61-3.23l1.26-10.91s9.06 3.66 21.18 8.09zm1.88-7.27l.89-3.16s-11.37-5.44-21.07-3.07c0 0 18.99 3.56 20.18 6.23z" class="AB"/><path d="M1139.63 409.69a3.9 3.9 0 0 1 2.19-.25l66.45 10.21c.85.18 1.69 1.6 4.07 5.17 1.6 2.4 2.35 5.49-.36 6.76-3.55 1.67-7.49 4.5-8.95 4.07l-63.76-11.35c-.98-.19-4.04-2.65-5.29-3.67-1.42-1.16-3.4-3.39-4.61-5.28a2.65 2.65 0 0 1 1.18-3.89l9.08-1.77z" class="AP"/><path d="M1137.97 406.86c.72-.31 1.51-.4 2.29-.26l67.47 11.99c.18.04 4.85 5.16 4.25 7.07s-8.71 5.29-8.71 5.29L1133.88 419c-1.13-1.54-3-3.1-4.27-5.07a2.77 2.77 0 0 1 1.23-4.06l7.13-3.01z" class="u"/><path d="M1137.97 406.86c.72-.31 1.51-.4 2.29-.26l8.44 9.56 54.57 14.79-69.39-11.95c-1.67-1.65-3-3.1-4.27-5.07a2.77 2.77 0 0 1 1.23-4.06l7.13-3.01zm38.29-90.29l-2.96 17.53 21.27 31.17 3.23-17.1zm-3.58 22.7l-.84 6.75 21.26 31.17 1.12-6.33z" class="w"/><path d="M1149.4 408.52l1.97 2.78c.66.98.86 1.08 1.87.43l3.21-1.97-7.05-1.24z" class="AP"/><path d="M1157.92 472.47c-.63 1.51.99 1.99 3.28 2.24 1.65.18 4.7-1.48 4.7-1.48s2.75.9 3.9 1.59c.59.35-4.6-.11-6.44 0s-6.01 1.87-6.01 1.87a1.36 1.36 0 0 0-.35.07c-1.4.5-2.28 1.98-2.02 4.29.04.31.19.54.42.75.29.27.82.38.62 1.21-.27 1.09-1.53 1.88-1.52 2.67 0 .45.88 4.25 1.18 4.59l4.04.16s-4.64.53-4.97 2.65c-.57 3.68 2.56 5.61 4.73 5.26 2.69-.43 2.67.89 4.99 1.29 0 0 5.72.62 6.48-1.37.8-2.09 3.35-3.72 4.14-6.67.46-1.73.46-5.17 1.72-7.24 2.47-4.04-.57-5.22.11-7.82.6-2.25 2.18-2.41 1.38-5.06-.63-2.06-2.79-2.64-4.37-3.22-1.58-.57-5.75-.92-9.88-.46.01.02-5.49 3.17-6.13 4.68z" class="v"/><g class="u"><path d="M1157.92 472.47c-.63 1.51.97 2.22 3.26 2.47 1.65.18 4.71-1.71 4.71-1.71s2.75.9 3.9 1.59c.59.35-4.6-.11-6.44 0s-6.01 1.87-6.01 1.87a1.36 1.36 0 0 0-.35.07c-1.4.5-2.4 2.11-2.13 4.41.04.31.67 1.07.9 1.28.29.27.06.62 0 .74-.5 1.01-1.11 1.23-1.28 2-.4 1.78.07 3.43 1.19 5.08l4.24.16s-4.89.52-5.17 2.65c-.27 2.05 1.49 4.84 3.84 4.24 3.36-.86 7.42.52 7.85.33 3.03-1.38.38-4.32 1.38-6.59.74-1.68.8-3.6 1.58-5.41.68-1.57.4-6.07.4-6.07l3.96-3.56-.4-4.75c-.49-2.46-6.86-3.94-9.3-3.48-.44.1-5.49 3.17-6.13 4.68z"/><path d="M1152.77 481.57c2.39 3.6 5.43-.14 4.72-5.61-.34-2.63-1.17-6.03-5.15-4.86s-3.84 4.04.43 10.47z"/></g><path d="M1188.91 594.42c.2 5.46-20.44 7.94-25.72 15.32-7.62 10.66-1.05 11.08-71.21 16.35-56.76 4.27-74.55-23.16-73.84-34.72.7-11.4 41.39-26.47 84.2-26.52 42.89-.04 86.15 18 86.57 29.57z" class="AT"/><use xlink:href="#B" class="t"/><use xlink:href="#B" class="AQ"/><path d="M1058.17 633.69c-12.06-2.88-29.05 7.12-27.85 20.44.91 10.16-9.28 13.06-16.13 32.89s43.83 32.89 48.4 7.74c4.56-25.15 28-53.33-4.42-61.07z" class="t"/><path d="M1058.94 630.43c-12.06-2.88-29.81 10.38-28.61 23.7.91 10.16 7 16.05.15 35.88s27.55 29.91 32.12 4.75c4.55-25.15 28.75-56.59-3.66-64.33z" class="AQ"/><path d="M1062.59 694.76c-4.57 25.15-31.96 95.3-34.7 107.87-2.74 12.58-11.87 17.25-11.87 17.25s-12.5 5.74-12.11-22.61c.29-21.66 3.44-90.41 10.29-110.24 0 0 17.35-7.26 28.31-4.35 10.95 2.89 20.08 12.08 20.08 12.08z" class="u"/><g class="v"><path d="M1062.59 694.76c-4.57 25.15-31.96 95.3-34.7 107.87-1.34 6.17-2.89 15.43-6.24 15.68-3.47.26-4.87 2.59-5.78-19.07-.91-20.32 7.76-92.39 14.61-112.22 0 0 1.07-7.26 12.03-4.35 10.95 2.9 20.08 12.09 20.08 12.09z"/><path d="M1016.77 791.29c-5.01 9.48-14.15 15.07-14.15 15.07s-6.48 11.47-5.55 15.79c.6 2.62 3.23 9.3 3.23 9.3s1.96 23.25 2.65 25.99c1.02 4.1 42.13 10.66 44.88 11.7s2.15-22.09 2.15-22.09-17.62-21.76-20.92-31.07c-3.25-9.14-6.88-34.91-12.29-24.69z"/></g><path d="M1086.33 554.48c-9.13 7.74-14.46 25.15-7.61 41.6s13.09 46.11 19.48 52.89 17.35 15.8 30.14 15.8c12.78 0 18.26-18.38 15.98-32.89s-10.5-55.63-16.89-74.01-31.97-11.13-41.1-3.39z" class="AQ"/><path d="M1099.93 638.69c-4.53 4.84-5.66 20.85-8.21 29.47-3.43 11.6-4.09 20.38-3.43 36.26.67 16.14 3.91 37.03 5.49 48.28 3.24 23.11-3.5 31.7 7.46 32.98 10.96 1.29 9.13-2.58 13.39-14.19s19.79-72.23 22.83-84.49c3.04-12.25 4.87-25.8 5.48-36.76s-30.91-24.48-43.01-11.55z" class="t"/><path d="M1101.47 637.26c-6.93 4.67-7.83 22.2-5.79 40.99 1.62 14.91 38.75 21.02 41.79 8.77s4.87-25.8 5.48-36.76-28.33-23.62-41.48-13z" class="AQ"/><path d="M1089.22 679.24c-3.69 12-1.85 32.44 3.35 70.43 3.16 23.12-1.52 39.45 9.44 40.74s12.85 1.65 15.06-10.51c2.24-12.33 17.35-80.62 20.39-92.87 0 0-13.7-8.38-26.48-9.03s-21.76 1.24-21.76 1.24z" class="u"/><path d="M1095.68 678.25c.07 13.71 5.54 56.37 6.17 79.18.65 23.57-5.63 29.61 5.33 30.9s7.74 3.74 9.9-8.43c2.34-13.22 17.35-80.62 20.39-92.87 0 0-13.13-7.96-26.48-9.03-5.39-.44-15.31.25-15.31.25z" class="v"/><path d="M1094.47 777.42s-1.26 7.68-4.72 15.75c-2.97 6.92 12.49 10.09 18.12 15.24 0 0 40.87 21.38 54.56 14.61 15.21-7.52-26.97-28.9-14.91-22.34 0 0-25.57-12.58-29.22-22.25-3.66-9.66-23.83-1.01-23.83-1.01z" class="u"/><path d="M1101.02 776.16c-.53 11.47-5.56 14.06-7.39 20.84-3.53 13.07 22.4 21.1 20.7 20.09 0 0 33.94 11.79 47.64 5.02 15.49-7.66-26.8-27.84-14.46-21.42 0 0-25.57-12.58-29.22-22.25s-16.79-12.63-17.27-2.28z" class="v"/><path d="M1090.74 787.51c.65-1.29 1.84-2.41 2.04-1.12.21 1.29 2.18 6.23 4.88 7.75 2.69 1.52 33.41 18.26 44.18 15.21 6.57-1.86 1.82-7.79-2.88-12.14-3-2.78-5.99-4.91-5.99-4.91l20.11 11.41c6.33 3.65 19.64 16.13 20.9 21 1.27 4.87-46.79 5.48-53.68 2.28s-17.1-12.33-20.9-15.98c-3.5-3.36-7.57-1.86-8.87-3.35-2.94-3.35-1.76-16.28.21-20.15z" class="AF"/><path d="M1076.74 402.96s12.16-2.74 16.44 2.74c4.92 6.31 18.07 22.52 18.72 35.42.52 10.28-1.25 18.5-6.43 32.8-4.25 11.75-9.98 29.79-17.2 33.07-22 9.99-40.79 8.36-53.08.99-4.57-2.74-9.42-9.69-9.05-27.88.16-7.84-.08-10.47-1.91-38.32-2.45-37.44 12.33-38.99 27.37-39.83 15.03-.85 25.14 1.01 25.14 1.01z" class="w"/><path d="M1075.14 417.55l-2.4-.13a7.79 7.79 0 0 1-7.36-8.21l1.7-31.54a7.79 7.79 0 0 1 8.21-7.36l2.4.13a7.79 7.79 0 0 1 7.36 8.21l-1.7 31.54c-.24 4.3-3.91 7.59-8.21 7.36z" class="u"/><path d="M1075.75 404.77l-2.4-.13a7.79 7.79 0 0 1-7.36-8.21l1.7-31.54a7.79 7.79 0 0 1 8.21-7.36l2.4.13a7.79 7.79 0 0 1 7.36 8.21l-1.7 31.54a7.81 7.81 0 0 1-8.21 7.36z" class="v"/><path d="M1004.23 805.11c-1.3.42-4.06 2.61-4.55 3.89-2.15 5.61-3.96 10.91-3.43 14.24.21 1.3 1.46 4.62 2.75 10.92 1.43 6.94.47 19.44 4.33 24.7 3.85 5.26 36.73 16.68 44.03 15.31 7.31-1.37 3.17-22.88 2.61-27.11-.59-4.46-16.6-24.44-23.26-39.3 0 0 .06 1.46 1.12 5.18 2.5 8.7 7.37 26.94.56 27.61-9.75.95-23.74-12.3-24.32-18.93-.57-6.55-1.64-11.78-1.45-13.13.19-1.37 1.61-3.38 1.61-3.38z" class="AF"/><path d="M1107.02 581.26l18.61 16.39c1.95 1.54 4.67.33 4.28-1.93-1.34-7.75-5.3-20.84-22.89-14.46z" class="AT"/><g class="w"><path d="M1026.67 486.36c-3.04 5.78-26.48 78.84-3.96 127.54 0 0 19.84-21.54 48.18-27.37 56.44-11.6 51.57 4.33 53.02 8.54.96 2.8 4 4.25 6.8 3.29.72-.25 1.53-.55 2.43-.91 12.68-5.06 34.73-12.74 55.25-5.48 0 0-39.81-66.22-93.05-99.25-50.96-31.58-65.63-12.14-68.67-6.36z"/><path d="M1127.86 590.76s-5.27-37.98-18.46-49.58c0 0 5.27 8.97 5.27 15.82l-6.33-4.22s6.56 9.68 11.08 19.52c3.96 8.62 5.73 17.47 8.44 18.46z" class="AJ"/></g><path d="M1112.79 343.82c7.73 37.19-7.43 49.87-33.67 49.05-19.72-.62-35.87-13.1-37.16-37.78-1.3-24.68 9.09-44.93 28.56-48.19 25.7-4.3 37.24 12.76 42.27 36.92z" class="v"/><g class="u"><path d="M1103.75 352.28l.95 5.25c3.64 24.89-8.18 33.51-27.73 32.92-15.68-.48-28.53-10.19-29.56-29.4s15.15-32.1 30.64-34.63c20.45-3.35 21.7 7.05 25.7 25.86z"/><ellipse transform="matrix(.9882 -.1529 .1529 .9882 -42.6352 163.6981)" cx="1042.72" cy="358.98" rx="11.05" ry="14.14"/></g><path d="M1041.95 344.87l6.33 6.95s.03-29.07 22.81-37.08c20.28-7.14 29.56.86 29.56.86s-10.95-18.09-38.52-6.24c-23.06 9.91-20.18 35.51-20.18 35.51z" class="w"/><g class="t"><ellipse cx="1060.79" cy="342.9" rx="3.21" ry="6"/><ellipse cx="1093.78" cy="340.33" rx="3.21" ry="6"/></g><path d="M1090 333.05l6-3.29m-30.09 5l-7.96-2.14" class="x y AD AE AS"/><g fill="#ee5d4f"><path d="M1097.63 310.5s5.78 7.03 11.71 10.04c4.48 2.28 8.08 2.7 8.08 2.7l-.9-1.8 2.23-1.72s-8.38-.88-19.38-10.27l-1.74 1.05z"/><path d="M1097.05 309.68s3.03 8.58 7.57 13.44c3.43 3.67 6.67 5.3 6.67 5.3l-.23-1.99 2.69-.85s-7.57-3.69-14.69-16.29l-2.01.39z"/><path d="M1100.72 314.21c2.14-.38 4.17-11.79-.92-12.03-4.79-.23-10.22.39-9.32 4 .91 3.61 8.11 8.41 10.24 8.03z"/></g><path d="M1102.57 307.72s-.79-4.89-2.31-4.78-.16 2.2.23 5.42c.4 3.22 2.35 1.43 2.08-.64z" fill="#f7bc4b"/><path d="M1098.95 311.85s-.32-2.25 2.96-4.43 5.78-3.37 7.86-2.07 2.81 6.99 1.62 9.86-8.49.69-10.33-.39c-1.84-1.09-2.11-2.97-2.11-2.97z" fill="#ee5d4f"/><path d="M1110.89 309.94s.69 4.57-1.35 5.31c-3.03 1.11-1.12-7.54-.94-8.9.17-1.37 2.84.32 2.29 3.59z" fill="#f7bc4b"/><path d="M1031.54 463.11s11.92 26.58 17.36 32.41c5.48 5.88 12.73 12.41 19.86 9.65 7.11-2.75 10.25-20.46 5.24-29.74-4.95-9.16-14.03-35.58-17.09-39.75-3.04-4.15-14.37-1.21-19.89 2.14-5.56 3.36-9.48 15.36-5.48 25.29z" class="u"/><path d="M1060.65 442.93s-10.24-41.19-23.94-39.37c-13.08 1.74-15.49 12.9-13.84 28.19 1.68 15.62 8.87 32.14 8.87 32.14s2.73-14.98 28.91-20.96z" class="AT"/><path d="M1056.5 429.55s-6.08-27.81-19.78-25.99c-13.08 1.74-15.49 12.9-13.84 28.19 1.68 15.62 4.26 18.65 4.26 18.65s1.36-9.86 3.18-15.79c1.57-5.09 11.57-7.46 11.57-7.46l14.61 2.4z" class="AG"/><path d="M1138.38 453.79s-20.7 4.26-32.25 8.07c-10.18 3.36-27.62 9.04-37.58 16.08-10.05 7.11-11.21 17.27-8.54 23.91 2.7 6.7 15.67 2.71 26.38-.95 10.66-3.65 51.2-23.04 61.12-29.45 9.84-6.37 7.3-23.89-9.13-17.66z" class="v"/><path d="M1095 465.66c-10.96 3.04-16.49 5.24-26.45 12.28-10.05 7.11-11.21 17.27-8.54 23.91 2.7 6.7 15.67 2.71 26.38-.95 10.67-3.65 18.26-37.92 8.61-35.24z" class="u"/><path d="M1145.42 466.73c3.01 4.12 10.65 3.49 13.22 1.31 3.12-2.63 4.98-4.87 6.96-4.86 1.24 0 5.81.86 8.31 1.99.14.27-.46 1.33-.35 1.63.15.42.28.67.73.7 2.84.2 5.18-1.67 5.03-4.64l-.29-3.95 2.91-3.52.56-11.03-9.65-10.38c-.48-.51-1.16-.78-1.86-.73l-13.12.97a2.52 2.52 0 0 0-1.93 1.15l-11.91 18.64c-.01.01-1.62 8.6 1.39 12.72z" class="v"/><path d="M1173.42 459.68c.91.99 2.34 2.5 3.57 3.46 1.33 1.04 2.42 1.41 2.33-.28l-.29-3.95 3.63-2.89s.84-8.56.56-11.03c-.75-6.56-10.47-11.43-10.47-11.43-.86-.43-1.07-.35-1.77-.3 0 0-3.09 5.11-3.28 6.65s2.66 8.31 2.66 8.31-3.11 3.95-3.28 5.13c-.41 2.77 3.18 2.9 6.34 6.33z" class="u"/><path d="M1027.5 442.22s.91-6.16 5.48-7.99c0 0-5.07 14.77-5.85 16.17s-.77-4.75.37-8.18z" class="AG"/><path d="M1024.54 411.78c-2.44 7-11.57 30.74-20.7 83.1s5.48 119.93 14 127.24 38.35-46.88 102.28-13.09c0 0-43.85-62.88-68.49-80.06-30.14-21-27.7-71.84-24.05-98.93 3.66-27.08-3.04-18.26-3.04-18.26" class="AC"/><g class="AO"><path d="M1003.84 494.89c-9.13 52.36 5.48 119.93 14 127.24s38.35-46.88 102.28-13.09c0 0-23.19-32.32-37.57-49.04 0 0-18.52 27.27-23.27 26.28-2.82-.59-25.86 1.4-39.56-15.03s-15.88-76.36-15.88-76.36z"/><path d="M1018.93 556.6s.76 5.9 7.52 15.82c8.17 11.99 32.84 17.01 32.84 17.01l9.89-6.53s-13.58-1.12-25.19-6.92-24.62-15.7-25.06-19.38z"/></g><path d="M1063.5 400.45c-4.59-1.06-30.59-3.2-37.9 9.59-7.31 12.78-1.37 36.45-1.37 36.45s1.36-19.51 11.19-25.72c5.69-3.6 39.23 8.16 44.06 8.9 8.9 1.37-2.28-11.41-2.28-11.41s-7.76-16.44-13.7-17.81z" class="AC"/><path d="M1084.73 402.2c-3.16.81-11.99 30.76-3.28 25.42 2.29-1.41 14.9-5.25 29.3-3.88 9.59.91 17.14 6.32 17.81 5.25 2.29-3.66-30.38-30.26-43.83-26.79z" class="AO"/><circle cx="1081.08" cy="423.43" r="1.6" class="t"/><path d="M828.04 546.24s1.08-20.03-9.44-21.19-32.94 22.06-38.01 24.53c-5.07 2.48-9.07 10.46-11.66 12.93s-9.55 4.36-13.41 7.46c-3.87 3.11-17.42 12.46-7.7 22.9 9.74 10.46 13.42 13.53 26.84 7.83 13.38-5.69 56.88-44.12 53.38-54.46z" class="AA"/><path d="M807.21 655.96s-35.51-11.62-76.23-16.77c-18.36-2.32-19.29 25.29-7.15 46.58 6.67 11.71 42.24 20.14 75.14 36.38 27.2 13.42 52.01 36.21 63.3 35.74 24.91-1.05 9.08-88.2-55.06-101.93z" fill="#48598b"/><path d="M774.62 668.24c-5.42-.47 4.36 10.09 6.91 14.72 7.42 13.47 13.49 28.85 20.02 38.61 5.77 8.62 1.72-2.93-2.97-17.6-2.13-6.66-3.73-13.04-5.28-17.4-.87-2.46-18.68-18.33-18.68-18.33z" class="t"/><path d="M775.76 829.7s-20.83 17.53-28.12 26.99c-7.32 9.49 12.23 19.79 29.58 17.41 17.31-2.37 33.72-8.69 39.58-18.11 5.84-9.39 5.88-9.49 15.03-19.57 9.12-10.04-3.43-31.35-8.6-35.83-5.18-4.47-44.61 13.92-47.47 29.11z" fill="#ec6141"/><path d="M776.3 825.13s-20.83 17.53-28.12 26.99c-7.32 9.49 13.49 15.83 30.84 13.45 17.31-2.37 29.13-5.35 34.99-14.77 5.84-9.39 10.1-10.77 19.25-20.85 9.12-10.04-4.32-29.44-9.49-33.92-5.18-4.48-44.61 13.91-47.47 29.1z" class="AN"/><path d="M764.21 797.1s6.34 9.72 5.11 13.68c-1.23 3.97-4.98 14.98 9.88 19.97 12.66 4.25 43.33-13.99 53-20.38 1.72-1.14 2.86-2.98 3.05-4.93.52-5.43.81-16.61-4.42-23.23-7.1-8.97-6.17-6.39-17.4-35.96-11.14-29.36-46.71-90.44-48.94-96.71-2.23-6.26-31.16-12.22-36.99-11.53-5.84.69-28.47 30.59-27.87 38.83.6 8.26 13.42 36.84 24.44 61.12 11.08 24.42 24.68 35.74 27.93 42.74 5.09 10.97 12.21 16.4 12.21 16.4z" fill="#48598b"/><path d="M823.49 773.41c-5.23-9.74-2.71 4.87-5.46 15.22-1.58 5.94 10.7-5.48 5.46-15.22zm-59.69 20.7s6.28 16.29 9.79 17.5c3.51 1.22 14.02-.15 21.15-3.8 7.13-3.66-18.21 2.13-30.94-13.7zm-53.1-104.64s3.82-6.54 6.85-12.53 4.47 14.3-2.08 19.52c-6.55 5.23-4.77-6.99-4.77-6.99zm79.05-.23l-20.49-10.06-25.29-20.23s5.92.12 10.56 3.37c2.1 1.47 13.15 10.62 19.17 15.41 7.25 5.79 13.81 9.19 16.05 11.51z" class="t"/><path d="M910.96 552.72s-104.93-23.11-84.93-38.35c19.87-15.15 75.31-42.42 95.58-13.09 20.41 29.54 1.65 61.94-10.65 51.44z" class="AA"/><path d="M951.31 765s1.64-3.87 6.51-7.24c4.86-3.36 19.93-1.96 22.62 4.01 2.69 5.99 2.66 47.05 2.66 49.83 0 2.79-5.41 14.36-10.32 21.16-4.92 6.82-14.19 8.13-22.36 4.93s-2.64-17.29-.43-24.02c2.21-6.7-2.5-41.46 1.32-48.67z" fill="#ec6141"/><path d="M948.12 761.81s.29-2.38 5.16-5.75c4.86-3.36 19.93-1.96 22.62 4.01 2.69 5.99 4.01 45.56 4.01 48.34 0 2.79-5.41 14.36-10.32 21.16-4.92 6.82-14.19 8.13-22.36 4.93s-2.64-17.29-.43-24.02c2.21-6.71-2.5-41.46 1.32-48.67z" class="AN"/><g class="t"><path d="M922.96 777.26s18.24-15.59 26.8-15.97c18.28-.82 14.05 17.56 14.01 30.23-.03 12.71-9.89 22.07-13.55 24.5s2.72 1.19-7.91 15.68c-10.69 14.56-29.67 32.01-42.31 33.79-9.63 1.36-41.93-15.61-24.66-50.23 5.4-10.81 37.92-28.85 47.62-38z"/><path d="M863.93 700.2s-3.38 83.02-1.99 114.39c1.4 31.65-.04 46.56 7.62 54.39 7.67 7.85 21.59 9.31 31.35 6.09 9.74-3.22 6.24-7.28 14-9.44 7.75-2.15 13.31-25.68 15.29-33.63 1.98-7.93 7.27-85 9.33-112.86 2.05-27.63-3.51-41.75-26.12-41.47-22.65.3-45.41 6.31-49.48 22.53z"/></g><path d="M861.87 713.62s-1.14 77.18-.05 106.01c1.11 29.09-.03 42.78 6 49.99 6.04 7.21 17.02 8.56 24.71 5.59 7.68-2.96 26.76-31.94 28.32-39.24 1.56-7.29 7.12-56.97 2.12-104.04-2.69-25.3-2.77-38.37-20.59-38.11-17.85.25-37.3 4.89-40.51 19.8z" fill="#47588a"/><path d="M801.07 673.57c5.54 7.23 11.56 12.49 18.87 18.26 1.71 1.35 59.66 25.57 59.66 25.57s-32.52-12.36-28-9.13c19.31 13.79 24.35 23.13 46.88 28.61 5.26 1.28 16.2-9.05 19.33-5.63 10.05 10.96 6.48 31.71 7.31 21.46 2.96-36.59 15.71-53.28-11.87-67.58-29.05-15.06-127.64-31.76-112.18-11.56z" class="t"/><g class="w"><path d="M813.55 655.26c.85-7.58-.98-36.9-.69-74.03.29-36.73.03-51.31 21.31-59.89 21.18-8.54 47.72-11.07 67.84 2.07 9.33 6.09 13.42 139.46 15.2 151.38 1.78 11.96-19.24 31.57-38.24 32.79-19.03 1.23-67.85-30.52-65.42-52.32z"/><path d="M860.74 663.83s-3.02 5.64-1.77 11.06c-11.09-4.82-22-10.27-25.02-14.1 0 0 9.74 16.44 24.35 21.92s28 3.04 28 3.04-20.86-14.35-25.56-21.92z" class="AJ"/></g><path d="M800.9 666.74h0c0 .39.14.76.41 1.04 2.18 2.28 8.78 12.14 18.93 15.58 2.72.92 7.4-1.07 7.42-2.23l.05-2.37c.01-.57-5.67-.02-6.17-.28-3-1.58-15.67-11.51-20.95-17.75-.91-1.08.32 4.57.31 6.01z" class="z"/><path d="M842.92 517.38c2.57-1.43-31.33 14.98-16.11 82.86 4.05 18.05.03 49.56 1.35 55.67 1.33 6.11 5.42 19.75-.6 22.84-11.15 5.72-21.71-11.86-25.6-15.8-6.04-6.1 6.38-8.96 5.87-31.45-.54-23.77-8.51-56.94-6.95-70.44 3.57-30.81 13.73-33.19 17.72-36.01 4.35-3.07 21.21-5.93 24.32-7.67z" class="AL"/><path d="M842.92 517.38c.97-3.6-19.68 7.15-22.51 9.71-2.76 2.5-5.68 5.95-8.33 10.73-8.49 15.28 13.04 54.41 13.04 54.41s-.07-37.43.75-45.97c.81-8.52 15.18-21.92 17.05-28.88z" class="z"/><path d="M843.61 514.43s-1.03 2.37-.92 5.27c.41 11.66 2.85 43.89 7.2 44.29 4.42.4 6.46-.66 12-18.73 1.18-3.85 12.92-32.84 9.23-35.34" stroke="#913636" class="x y"/><ellipse cx="850.7" cy="568.59" rx="2.34" ry="5.36" class="AC"/><path d="M842.81 503.53l.68 18.2c.28 7.57 7.23 13.16 15.2 12.22l1.08-.13c7.65-.9 13.25-7.5 12.52-14.72l-1.83-18.04c-.86-8.51-10.03-13.72-18.54-10.56h0c-5.64 2.1-9.32 7.36-9.11 13.03z" class="v"/><path d="M881.41 687.78l.07 1.52c.04.87.37 1.68.93 2.28 4.01 4.32 21.1 22.25 32.39 26.49 8.69 3.26 20.35 3.87 27 3.92 3.16.02 6.06-2.03 7.4-5.24h0c.88-2.1-.23-4.53-2.25-4.94-10.12-2.07-37.54-9.04-60.43-27.19-2.17-1.73-5.25.17-5.11 3.16z" class="z"/><path d="M874.49 511.52c-3.12 2.42-16.51 26.65-5.3 60.08 11.3 33.73.96 94.33 8.29 109.37 2.09 4.28 32.04 31.52 43.41 32 7.49.31 18.28 1.52 25.77 2.5 3.52.46 8.94-6.37 9.06-9.95.37-11.32 0-35.26-7.62-59.27-10.4-32.79-11.2-126.73-37.58-139.18-20.14-9.51-32.91 2.03-36.03 4.45z" class="AL"/><path d="M909.91 652.29s21.19 12.91 26.81 14.73l-3.18 7.58s-23.73-12.91-27.44-17.88l3.81-4.43zM873.9 509.72c6.24-5.43 26.54-8.21 32.62-4.34 3.44 2.18-12.82-4.69-21.07 13.91-10.22 23.02-13.9 59.65-13.9 59.65s-5.55-3.02-7.53-32.31c-1.32-19.55 3.63-31.47 9.88-36.91z" class="z"/><path d="M926.03 639.02s2.51-7.31 1.37-10.73-4.11 8.22-7.53 13.01c-1.65 2.3 5.1-1.5 6.16-2.28z" class="AL"/><path d="M807.47 640.69l-.84 4.04 5.4-3.12.99-4.8z" class="z"/><path d="M869.72 721.51s9.13 5.33 15.22 10.2 17.66 8.68 17.66 8.68-14.62 2.43-32.88-18.88z" class="t"/><path d="M799.55 593.82c4.7 13.94-10.59 30.7-24.98 30.84-8.62.09-15.1-3.88-20.87-11.82-2.18-3-.85-6.48-2.43-9.76-1.22-2.54-5.49-4.87-6.3-7.31-4.6-13.93 3.36-23.99 17.61-25.38 10.27-1 12.39 5.81 18.03 8.36 2.03.92 8.15 1.1 10.05 2.28 6.86 4.31 6.59 5.98 8.89 12.79z" class="AG"/><path d="M796.74 602.75c.71 7.23-3.85 14.43-10.21 16.08-6.37 1.64-12.09-2.92-12.78-10.17-.69-7.24 2.42-17.78 8.76-19.4 6.33-1.63 13.52 6.27 14.23 13.49z" class="z"/><path d="M793.47 603.48c.52 5.44-2.8 10.87-7.42 12.1-4.62 1.24-8.78-2.2-9.28-7.66-.5-5.45 2.69-16.24 9.69-14.41 4.61 1.2 6.49 4.54 7.01 9.97z" class="v"/><path d="M784.71 594.73c-2.59 2.04-4.67 6.28-5.4 12.78s13.37 13.53 13.37 13.53 8.79 3.25 14.65-10.84c2.33-5.61-9.69-16-9.6-19.58.33-12.99-8.77.76-13.02 4.11z" class="u"/><path d="M795.9 592.9s-4.57.53-3.65 3.96c.91 3.42 8.1 9.51 15.64 7.69S795.9 592.9 795.9 592.9z" class="v"/><path d="M751.61 598.38c-.61-3.96-.2-7.75-.3-8.52-.3-2.28-3.65 8.83-3.65 8.83 4.1 5.93 4.26 1.74 3.95-.31zm26.94-19.18s-8.68-7.76-11.41 4.57c-.01 0 5.02-3.2 11.41-4.57z" class="AL"/><path d="M910.61 591.86c-6.23-10.08-12.57-22.89-19.1-32.92-6.52-10-2.77-41.77 11.42-47.24 14.15-5.45 16.79 1.28 29.85 20.18 13.11 18.98 33.33 68.77 27.08 85.93-3.33 9.13-32.64 13.78-49.25-25.95z" class="AA"/><path d="M955.82 601.2c-6.97-10.03-15.86-16.97-34.04-13.32-9.06 1.82-10.21 10.43-10.21 10.43s-10.33-.94-15.04 3.26c-4.72 4.21-20.71 0-20.2 21s5.66 30.65 19.7 33.33c14.03 2.68 35.95-15.66 35.95-15.66s7.73 1.5 18-8.26c10.36-9.84 16.91-14.85 5.84-30.78z" class="AG"/><path d="M913.91 595.48s8.27-7.28 16.4-.1c.89.79-10.03-1.4-16.4.1zm-37.11 35.97c-1.07 18.99 21.68 17.1 21.68 17.1s-4.36 2.01-1.65 2.75c3.2.87 8.8 1.82 12.22-.57 12.22-8.55 19.03-29.54 4.08-38.14-2.74-1.57-3.55 10.29-3.95 6.87-.43-3.63-4.29-9.25-11.12-12.82-3.81-2-19.94 1.27-21.26 24.81zm57.99-23.94s-3.92-4.11-8.97-5.94-13.89-3.88-13.89-3.88c1.39-.42 23.41-1.78 22.86 9.82z" class="AL"/><path d="M887.03 608.23c-3.45.21-14.41 1.31-15.25 20.74-.67 15.68 13.3 19.33 13.3 19.33s10.17.88 14.8-3.06c6.24-5.31 6.75-17.94 2.88-28.75-1.99-5.54-12.28-8.47-15.73-8.26z" class="z"/><path d="M880.09 611.84c-3.44.15-13.44-1.72-13.96 16.72-.42 14.87 13.56 18.53 13.56 18.53s10.14.97 14.69-2.71c6.13-4.96 6.43-16.94 2.4-27.25-2.07-5.3-13.25-5.44-16.69-5.29z" class="v"/><path d="M811.81 545.74s3.97-5.39 15.3-5.04c15.83.49 32.83 5.24 37.89 12.39 3.75 5.29 3.96 10.66 3.96 10.66s5.03.49 7.52 4.17c1.57 2.32.87 31.49.87 31.49-.27 5.15-2.84 8.69-8.08 8.62l-4.44-.06-54.1-7.07c.02 0-4.09-48.84 1.08-55.16z" class="AI"/><path d="M793.16 586.51c.61 14 12.62 16.45 16.08 17.03 9.35 1.56 59.7 5.96 59.7 5.96s8.78-3.36 3.77-3.71c-1.2-.08-26.05-5.63-34.19-7.11-13.87-2.52-18.57-11.57-18.57-11.57s-27.07-6.99-26.79-.6z" fill="#7e6391"/><path d="M867.12 651.46l4.14-41.13c-.24-2.12-1.91-3.01-8.49-4.16l-5.67-.54c-1.21-.12-4.13.47-4.25 4.11l-2.07 46.58c-.18 1.7 5.93.51 5.93.51 9.03-1.12 10.22-1.53 10.41-5.37zm-47.44-58.33c-8.71 3.88-14.38 5.04-22.37 1.18-5.94-2.53-7.58-15.48-7.43-19.54l.11-13.96c.32-9.1 8.08-16.47 17.33-16.47h0c13.31-.01 20.26 10.36 19.9 23.48l-.47 7.86c-.11 4.05-3.07 15.67-7.07 17.45z" class="AI"/><g fill="#7e6391"><path d="M854.88 656.02l1.14-47.72c.2-3.91.45-4.56-5.8-5.08l-5.64-.04c-4.65.25-6.95 2.61-7.09 6.45l1.94 38.14c-.09 6.79-.97 8.68 3.82 9.06 7.98.63 11.54 1.52 11.63-.81z"/><path d="M834.41 609.4c.58 5.92 1.82 12.33 10.05 14.37.35.09 6.81-.32 6.81-.32l-2.71-15.69c.05-3.09-1.6-4.73-3.56-4.95l-6.95-.48c-2.55-.29-4.02 3.14-3.64 7.07z"/></g><path d="M841.32 609.52c.49 5.63 1.91 11.96 9.02 13.91.3.08.62.08.93.02h0c4.23.35 10.99-2.31 11.04-5.26l.68-12.01c-.2-.5-17.99-2.83-17.99-2.83-2.2-.27-4.01 2.44-3.68 6.17z" class="AI"/><path d="M816.5 566.22c-.47 4.9-4.92 8.62-9.94 8.31s-8.7-4.54-8.22-9.45c.48-4.9 4.94-8.6 9.95-8.29 5 .32 8.68 4.54 8.21 9.43z" class="AA"/><path d="M813.75 563.63c-.65 6.81-6.83 11.99-13.81 11.56-6.99-.43-12.1-6.32-11.43-13.14.67-6.8 6.86-11.95 13.82-11.51s12.07 6.3 11.42 13.09z" class="w"/><path d="M808.44 562.62c-.41 4.29-4.31 7.54-8.7 7.27s-7.62-3.98-7.19-8.27c.42-4.28 4.32-7.53 8.7-7.25s7.6 3.97 7.19 8.25z" class="AA"/><path d="M828.89 545.78c6.38 4.41 7.97 10.93 6.31 22.41-.14.94.62 1.78 1.74 1.95l23.34 3.85c1.41.22 5.02 1.23 5.17.03.62-4.85 1.42-18.7-8.72-23.87-4.79-2.44-16.36-5.78-25.8-7.54-2.32-.43-3.83 1.93-2.04 3.17z" fill="#bb83c3"/><g class="x y AD AE AR"><path d="M831.07 541.71s16.89 6.88 9.88 30.21m2.22-27.55s13.99 9.23 7.26 28.65m1.91-25.95s12.51 9.16 7.18 26.96" stroke="#634874"/><path d="M834.64 575.24l30.66 5.33" stroke="#bb83c3"/></g><path d="M892.37 618.39s-2.46-9.7-3.86-12.36c-.69-1.31-.53-3.92-2.12-7.76-1.72-4.16-.88-7.52-2.72-10.82-1.56-2.8-8.77 2.3-8.48 7.57.16 2.98.52 8.8 1.32 11.71.9 3.3-11.43.69-11.43.69-1.31-.46-9.78.14-11.16.29l-8.74.12c-3.63 1.17-4.24 3.81-4.12 7.62.06 2.04 9.86.89 14.01 1.56 3.02.48 9.75-.65 9.85-.21 0 0-23.1 5.78-24.37 8.75-2.5 5.89-1.78 13.6-.86 14.75l2.94 3.67s-.16 4.39 3.04 6.54c4.83 3.25 20.21 5.95 20.21 5.95s18.14-6.12 21.17-8.99c3.03-2.86 6.81-5.2 7.2-14.33.37-9.1-1.88-14.75-1.88-14.75z" class="u"/><path d="M840.53 625.54c-2.45 5.91-1.78 13.6-.86 14.75l2.94 3.67s-.16 4.39 3.04 6.54c4.83 3.25 20.21 5.95 20.21 5.95l-5.52-10.49s-4.9-23.97-6.34-24.79-12.57 2.21-13.47 4.37z" class="v"/><path d="M799.24 534.32l-.64-31.99-14.78 13.35-16.88-24.66-1.74 29.15-24.42.29 18.94 12.81-9.04 11.02 24.3 1.11c2.16.09-11.6-5.8-11.6-5.8l1.58-5.8-5.27-8.97 11.08-.53 2.11-11.6 10.16 9.88 10.41-6.71c-.01-.01 5.8 18.68 5.79 18.45z" class="w"/><path d="M783.53 612.46l11.17 10.31a1.22 1.22 0 0 0 .68.31c2.44.27 17.58.06 22.55-.73 2.17-.34 7.44-5.73 13.07-11.24 1.76-1.73 3.02-2.74 4.81-4.91.99-1.2 1.24-2.77-.11-3.54 0 0-2.21-1.23-3.43-.32-.53.4-.57.25-.44-.05.27-.63 0-1.36-.64-1.62-1.24-.5-3.14-.94-5.01 0-2.74 1.37-2.44.99-2.44.99 0-1.29-1.45-2.82-3.35-2.89-2.54-.1-4.56 1.38-4.95 1.69-.05.04-3.49.81-6.54 2.26-3.62 1.72-8.98-.53-11.8-1.6-5.19-1.96-13.23-2.17-13.98 10.39 0 .35.15.71.41.95z" class="u"/><path d="M891.37 460.48c-5 28.38-14.46 33.64-14.46 33.64-41.24 15.16-75.6-1.94-79.09-26.73-4.51-24.88-7.53-37.93 34.4-46.04 41.66-8.05 63.55 14.21 59.15 39.13z" class="AA"/><path d="M886.71 454.98c-4.26 24.05-40.03 17.11-40.03 17.11-7.23-1.89-32.13-6.91-36.82-20.26-4-11.38-9.24-24.19 26.33-31.07 32.39-6.26 54.27 13.08 50.52 34.22z" class="AK"/><path d="M881.98 468.09s2.96-7.77.21-16.19c0 0 10.87 2.51-.21 16.19z" class="AA"/><path d="M819.94 431.34s-24.61 6.54-27.36 11.32c-2.75 4.79 9.54 57.98 19.64 69.47 10.12 11.52 54.97-7.48 63.03-20.09 6.6-10.31 3.38-13.83 1.75-27.36-1.69-14.1-14.11-19.99-16.56-24.84-4.15-8.27-40.5-8.5-40.5-8.5z" class="v"/><path d="M871.96 471.86c1.81 9.23-7.25 30.31-25.89 36-18.71 5.72-33.84 4.26-41.57-15.57-7.93-20.35 12.23-48.12 30.78-53.66 18.48-5.51 30.36 12.47 36.68 33.23z" class="u"/><path d="M817.97 469.69c.74 3.24-.54 5.05-2.23 5.45-1.7.4-3.17-.75-3.9-4-.74-3.24.04-6.2 1.74-6.6 1.68-.39 3.65 1.91 4.39 5.15z" fill="#34273a"/><path d="M841.92 446.01l-4.74 4.81m-20.66 9.82l-6.66.43" stroke="#34273a" class="x y AD AE"/><path d="M839.03 458.19c.79-2.52 5.05-7.41 10.43-5.91l-9.68 9.2c-.38.35-.9-2.81-.75-3.29z" fill="#34273a"/><path d="M880.84 456.88c.17 8.21-3.67 15.41-8.58 16.05s-9.02-5.52-9.17-13.74c-.15-8.21 3.7-15.35 8.59-15.98 4.89-.64 8.99 5.48 9.16 13.67z" class="u"/><path d="M844.92 420.98s-39.46 42.75-52.94 47.99c-13.52 5.26-6.74-31.43 13.08-44.44 19.71-12.92 39.86-3.55 39.86-3.55z" class="AA"/><path d="M847.48 420.21s.48 2.99-7.62 8.38c-14.02 9.33-40.99 23.71-47.82 26.36-10.82 4.2-2.47-19.7 12.99-30.7 16.47-11.71 42.45-4.04 42.45-4.04z" class="AK"/><path d="M820.47 432.23s-10.95 16.42-22.38 21.66c-.01.01 27.08-11.88 22.38-21.66z" class="AA"/><path d="M854.96 431.86s2.82 20.18 6.87 25.33l7.98 7.17-5.4-28.6-9.45-3.9z" class="AK"/><defs ><path id="B" d="M1026.06 629.94s-10.96-44.5-11.87-58.04 44.75-32.89 52.97-10.64 10.05 58.04 10.05 74.49-2.74 30.96-22.83 29.99c-29.36-1.42-21.19-6.65-28.32-35.8z"/></defs></svg>