<svg xmlns="http://www.w3.org/2000/svg" width="923" height="637.605" xmlns:v="https://vecta.io/nano"><g fill="#e6e6e6"><path d="M91.169 590.838c.398 14.87 2.89 29.61 7.4 43.785.1.329.211.653.319.982h27.613l-.088-.982c-1.841-21.166 8.677-148.453 21.369-170.483-1.112 1.787-58.754 59.444-56.613 126.698z"/><path d="M93.241 634.623l.717.982h20.716l-.55-.982c-3.422-6.176-13.551-24.642-22.953-43.785-10.1-20.572-19.374-41.924-18.593-49.652-.242 1.742-7.234 54.876 20.663 93.437zm335.778-21.763c.202 7.555 1.468 15.044 3.76 22.245.051.167.107.332.162.499h14.029l-.045-.499c-.935-10.754 4.408-75.423 10.857-86.616-.565.908-29.851 30.201-28.763 64.37z"/><path d="M430.072 635.106l.364.499h10.525l-.279-.499c-1.739-3.138-6.885-12.52-11.662-22.245-5.131-10.452-9.843-21.3-9.446-25.226-.123.885-3.675 27.88 10.498 47.472z"/></g><path fill="#3f3d56" d="M345.964 182.157l-35.71 25.4 22.22 2.38 30.95-26.19-17.46-1.59z"/><path fill="#9f616a" d="M206.253 615.845l21.478-.001L237.949 533l-31.7.001.004 82.844z"/><path d="M200.774 608.833l42.298-.002h.002c14.887.001 26.955 12.069 26.956 26.955v.876l-69.254.003zm-8.024-288.888s-9.308 10.522 6.105 51.539l-2.715 224.902 49.95-.974 10.98-109.706 19.99-160.092z" fill="#2f2e41"/><path d="M142.879 284.442c-6.136-.017-11.146-4.909-11.31-11.042l-2.344-88.338 40.109-76.093a11.41 11.41 0 0 1 9.307-6.03l30.566-1.962-2.639 178.065-62.695 5.358q-.499.043-.994.042z" fill="#6c63ff"/><path d="M294.191 351.039l-.547-.084c-63.9-9.746-112.12-19.088-112.599-19.182l-.599-.116 16.751-40.742c-.132-4.257-3.758-123.808 3.183-158.156 6.72-33.251 38.394-38.7 42.003-39.213l3.624-12.008 45.787 23.826 7.986 27.484 1.622 75.327z" fill="#3f3d56"/><path d="M231.268 237c-29.5 0-53.5-32.075-53.5-71.5s24-71.5 53.5-71.5 53.5 32.075 53.5 71.5-24 71.5-53.5 71.5zm0-136c-25.64 0-46.5 28.935-46.5 64.5s20.86 64.5 46.5 64.5 46.5-28.935 46.5-64.5-20.86-64.5-46.5-64.5z" fill="#6c63ff"/><g fill="#9f616a"><path d="M321.768 196a14.94 14.94 0 0 0-10.977 4.801H233.83l-28.19 6.001 4.628 35.699 100.281-21.567c4.574 5.166 12.083 6.543 18.193 3.336s9.242-10.168 7.59-16.867-7.664-11.405-14.564-11.402z"/><circle cx="428.39" cy="181.45" r="37.091" transform="matrix(.707107 -.707107 .707107 .707107 -141.33196 224.86532)"/></g><path d="M255.005 20.6l-1.798-3.619 9.048-4.495S272.236-3.755 290.298.809s26.188 7.295 26.188 7.295l9.025 4.541-4.53 4.507 8.126 2.732-5.429 2.697 6.316 3.631-3.4 18.611s-5.648-14.116-16.505-8.722-30.717-2.789-30.717-2.789l-17.254 33.391s-3.559-11.705-9.906-8.584c0 0-16.213-25.821 2.793-37.52z" fill="#2f2e41"/><path d="M577.293 248.948l-1.585-29.734-16-13-9.269 27.534-51.843 69.143c-6.823 1.093-11.596 7.335-10.865 14.205s6.713 11.967 13.612 11.599 12.305-6.072 12.301-12.982c0-.175-.019-.345-.026-.518zm30.81 374.739l-12.259-.001-5.833-47.288 18.094.001-.002 47.288z" fill="#ffb7b7"/><path d="M611.23 635.571l-39.531-.001v-.5a15.39 15.39 0 0 1 15.386-15.386h.001l24.144.001z" fill="#2f2e41"/><path fill="#ffb7b7" d="M665.103 623.687l-12.259-.001-5.833-47.288 18.094.001-.002 47.288z"/><path d="M668.23 635.571l-39.531-.001v-.5a15.39 15.39 0 0 1 15.386-15.386h.001l24.144.001zm-16.085-510.835c5.191-21.431 9.588-45.604-.201-65.342-6.792-13.696-31.918-18.308-46.321-13.374s-24.817 18.32-29.397 32.915-4.048 30.323-2.052 45.495c26.49-.509 52.98-1.018 77.971.305z" fill="#2f2e41"/><circle cx="745.943" cy="225.038" r="30.89" transform="matrix(.877454 -.47966 .47966 .877454 -155.0298 254.17889)" fill="#ffb8b8"/><path d="M645.205 87.477a38.8 38.8 0 1 0-77.55 1.023c26.439.056 52.879.112 77.551-1.022zm-87.366 192.468s-5.027 73.011-2.299 95.283 32.43 216.983 32.43 216.983l22.405-.04 6.651-229.455 26.494 231.685 23.17-2.409 13.144-226.63s-2.061-84.846-18.813-93.354z" fill="#2f2e41"/><g fill="#3f3d56"><path d="M592.982 352.319c-16.456-.006-32.675-3.933-47.31-11.457l-.32-.164 12.384-82.172-.804-97.934c-.044-5.43 2.095-10.65 5.936-14.488s9.064-5.971 14.494-5.921l66.451.61c5.947.055 11.605 2.577 15.621 6.963s6.03 10.244 5.56 16.173l-6.218 78.51 20.565 63.724-3.574 4.752c-19.538 26.063-50.21 41.402-82.783 41.402z"/><path d="M550.255 224.673l6.963-71.052 2.238-3.185a20.25 20.25 0 0 1 13.126-8.31c5.306-.915 10.758.323 15.15 3.438l1.918 1.361-1.893 72.005zM835.58 571.806c18.001-4.973 25.683 22.363 7.727 27.495-18 4.972-25.682-22.364-7.727-27.495zm-99.808 35.183c18.001-4.973 25.683 22.363 7.727 27.495-18 4.972-25.682-22.364-7.727-27.495zm-40.393-288.307l.278-.078 46.367 125.882 6.113-1.718-46.699-126.785h0c-.208-4.026-3.193-7.363-7.171-8.018-23.188-3.667-32.587 16.917-32.587 16.917l.093.137 47.405 128.699 6.113-1.718-46.009-124.913c14.007-13.854 26.099-8.405 26.099-8.405z"/></g><path d="M748.519 614.07c-13.578-.118-25.505-9.041-29.452-22.033-8.849-28.965-29.729-98.365-32.496-117.199-3.602-24.522 16.695-31.496 17.147-31.646.546-.184 8.707-2.468 20.001-5.629L773 423.591a34.56 34.56 0 0 1 27.577 2.13c8.753 4.604 15.232 12.598 17.926 22.114l29.865 106.253c3.805 13.447-2.621 27.682-15.223 33.723-23.044 11.071-56.841 25.84-84.172 26.257l-.454.003z" fill="#6c63ff"/><path d="M690.448 314.327l-15.013-87.698-1.675-29.597-24.271 7.95 20.47 114.834c-2.292 6.199.435 13.132 6.336 16.108s13.097 1.049 16.72-4.48 2.519-12.895-2.566-17.118z" fill="#ffb7b7"/><path d="M679.541 221.129l-37.883-2.061-8.901-71.479.866-.751c4.308-3.737 9.928-5.604 15.616-5.188s10.976 3.081 14.695 7.405l1.752 2.038.026.129zm154.268 349.154l-38.72-131.052-91.049 25.731-.544-1.924 92.951-26.269.28.948 39 132-1.918.566zm-688.04-295.237l-4.123-89.901 42.232-82.554 1.78.911-41.989 82.081 4.098 89.371-1.998.092z" fill="#3f3d56"/><path d="M922 637.605H1a1 1 0 1 1 0-2h921a1 1 0 1 1 0 2z" fill="#ccc"/><path d="M210.761 249.192l-8.801-26.18-2.129-87.269 3.75-12.382c3.676-12.136 13.697-21.289 26.116-23.852s25.245 1.875 33.425 11.564 10.403 23.078 5.793 34.892l-20.1 51.506 1.022 1.983 43.546-.353 15.468 27.843z" fill="#3f3d56"/><path d="M488.166 435.492l-.031.006-48.264 9.662-41.519 16.72c-1.084.437-2.297.425-3.372-.033s-1.925-1.324-2.361-2.408q-.076-.189-.135-.385l-30.331-101.562c-.661-2.181.458-4.505 2.576-5.348l42.278-17.026.031-.006 48.264-9.662 41.519-16.72a4.41 4.41 0 0 1 5.733 2.441q.076.189.135.385l30.331 101.562a4.39 4.39 0 0 1-2.576 5.348z" fill="#e5e5e5"/><path d="M436.375 367.272c-11.068-3.906-22.507-7.327-33.998-10.169l-.577-.143 5.834 19.535 29.724-8.877zm-28.285 8.38l-5.3-17.747c10.937 2.723 21.821 5.97 32.377 9.661zm86.282 18.028q-7.728-4.37-15.678-8.369-2.192-1.104-4.398-2.176-13.462-6.549-27.336-11.941l-.108-.042-37.471 11.191 10.233 34.264 75.452-22.533zm-74.303 22.082l-9.845-32.965 36.599-10.93q13.379 5.203 26.452 11.526 2.27 1.097 4.523 2.227 7.873 3.942 15.546 8.258zm74.303-22.082q-7.728-4.37-15.678-8.369-2.192-1.104-4.398-2.176-13.462-6.549-27.336-11.941l-.108-.042-37.471 11.191 10.233 34.264 75.452-22.533zm-74.303 22.082l-9.845-32.965 36.599-10.93q13.379 5.203 26.452 11.526 2.27 1.097 4.523 2.227 7.873 3.942 15.546 8.258zm16.307-48.49c-11.068-3.906-22.507-7.327-33.998-10.169l-.577-.143 5.834 19.535 29.724-8.877zm-28.285 8.38l-5.3-17.747c10.937 2.723 21.821 5.97 32.377 9.661zm28.285-8.38c-11.068-3.906-22.507-7.327-33.998-10.169l-.577-.143 5.834 19.535 29.724-8.877zm-28.285 8.38l-5.3-17.747c10.937 2.723 21.821 5.97 32.377 9.661zm86.282 18.028q-7.728-4.37-15.678-8.369-2.192-1.104-4.398-2.176-13.462-6.549-27.336-11.941l-.108-.042-37.471 11.191 10.233 34.264 75.452-22.533zm-74.303 22.082l-9.845-32.965 36.599-10.93q13.379 5.203 26.452 11.526 2.27 1.097 4.523 2.227 7.873 3.942 15.546 8.258zm-30.859 16.291l.194.65 25.654-7.662 2.813 9.419-25.654 7.661.194.65 26.304-7.855-3.201-10.718zm37.096 6.962l1.966 6.582.632-.254-1.754-5.872 100.032-29.874-.194-.65zm95.929-45.982l-.194-.65-100.681 30.068 3.201 10.718 100.681-30.068-.194-.65-100.032 29.874-2.813-9.419zm-74.773-29.139c-15.332-5.891-31.082-10.632-47.119-14.184l-1.964-6.577-.632.254 1.979 6.628.664.401a330.1 330.1 0 0 1 46.936 14.152l.108.042 60.881-18.182-.194-.65zm-46.516 13.892l-25.654 7.661.194.65 26.304-7.855-9.726-32.566-.632.254zm109.117-25.512l-53.522 15.984.872.366q12.313 5.181 24.563 11.455 1.741.891 3.479 1.807 8.647 4.541 17.16 9.588l.63.157 17.051-5.092-.194-.65-17.01 5.08q-8.423-4.998-17.002-9.514-1.716-.904-3.436-1.788-11.99-6.159-24.109-11.299l51.713-15.444zm-115.906 96.343l.194.65 25.654-7.662 1.952 6.535.632-.254-2.128-7.124zm-16.925-56.674l.194.65 25.654-7.662 9.845 32.965-25.654 7.662.194.65 26.304-7.855-10.233-34.264zm59.145-24.671c-11.068-3.906-22.507-7.327-33.998-10.169l-.577-.143 5.834 19.535 29.724-8.877zm-28.285 8.38l-5.3-17.747c10.937 2.723 21.821 5.97 32.377 9.661zm86.282 18.028q-7.728-4.37-15.678-8.369-2.192-1.104-4.398-2.176-13.462-6.549-27.336-11.941l-.108-.042-37.471 11.191 10.233 34.264 75.452-22.533zm-74.303 22.082l-9.845-32.965 36.599-10.93q13.379 5.203 26.452 11.526 2.27 1.097 4.523 2.227 7.873 3.942 15.546 8.258zm16.307-48.49c-11.068-3.906-22.507-7.327-33.998-10.169l-.577-.143 5.834 19.535 29.724-8.877zm-28.285 8.38l-5.3-17.747c10.937 2.723 21.821 5.97 32.377 9.661zm86.282 18.028q-7.728-4.37-15.678-8.369-2.192-1.104-4.398-2.176-13.462-6.549-27.336-11.941l-.108-.042-37.471 11.191 10.233 34.264 75.452-22.533zm-74.303 22.082l-9.845-32.965 36.599-10.93q13.379 5.203 26.452 11.526 2.27 1.097 4.523 2.227 7.873 3.942 15.546 8.258z" fill="#fff"/><path d="M444.993 370.331c2.456 8.225-6.965 30.997-6.965 30.997s-20.366-13.876-22.822-22.101 2.22-16.885 10.446-19.341 16.885 2.22 19.341 10.446z" fill="#6c63ff"/><path d="M436.715 372.098c.822 2.754-.095 5.732-2.324 7.545s-5.332 2.106-7.86.74-3.986-4.12-3.692-6.979 2.281-5.259 5.035-6.081a7.1 7.1 0 0 1 8.842 4.775z" fill="#fff"/><circle cx="440.039" cy="408.062" r="4.19" fill="#6c63ff"/><path d="M485.758 352.972l-29.119 8.696a.62.62 0 0 1-.111.024l6.648-27.968c.081-.354.346-.636.693-.74s.724-.013.985.239l14.024 13.248.672.634z" fill="#fff"/><path opacity=".2" d="M485.758 352.972l-9.942 2.969 2.764-8.546.198-.616.1-.308.671.634 6.209 5.867z"/><path d="M501.972 348.13l-25.186 7.522 2.763-8.547.199-.616 3.601-11.138c.142-.353.428-.63.786-.76s.754-.103 1.091.076a1.2 1.2 0 0 1 .126.087z" fill="#fff"/></svg>