<svg viewBox="0 0 948 948" xmlns="http://www.w3.org/2000/svg"><path fill="#BBA17F" stroke="#BBA17F" stroke-width="3" d="m488.5 138 8 6h8l16 8 7.5 7.5-1.5 2.5-22-6-18.5-9.5 2.5-8.5Zm-66 6 3.5 2.5-2.5 3.5-3.5-2.5 2.5-3.5Zm18 0 4.5.5-1 4 14 2-7.5 4.5-2-3-10.5-4.5 2.5-3.5Zm69 174 5.5.5-15.5 5.5v-1l10-5Zm-23 51 5.5 8.5-2.5.5-3-9Zm-64 3 3.5 2.5-.5 3.5-5.5-.5 2.5-5.5Zm244 60 2.5.5 2 5-1.5.5-3-6Zm13 6 13.5 12.5 2 4-12-7-3.5-9.5Zm31 18 3.5 2.5 8 21 16 19v9l-3.5 2.5q-5.84-21.16-23.5-30.5-5.5-6.5-3-21l2.5-2.5Zm-504 210 3.5 2.5.5 1.5 3.5 1.5-13.5.5v-1l3.5-1.5 2.5-3.5Zm-27 5 1.5 6.5-6.5.5-.5-3.5 5.5-3.5Zm13 1 4.5.5-11.5 5.5.5-1.5.5-1.5 6-3Zm552 6 1.5.5-8 7 .5-4.5 6-3Zm-404 5 12.5 6.5-5.5.5-7.5-5.5.5-1.5Zm247 13 2.5.5-12.5 5.5v-1l10-5Zm-480 18 6.5 2.5-.5 4.5-5.5-4.5-.5-2.5Zm6 11 .5 1.5-5.5 7.5-.5-4.5 5.5-4.5Zm370 1 13.5.5-16.5 6.5.5-1.5 2.5-5.5Zm-159 71 11.5 6.5-2 1 2 4-1.5.5-4-2-1.5.5-4.5-10.5Zm563 5 .5 2.5-3.5 5.5-4 1-.5-1.5 7.5-7.5Zm-566 8 8.5 2.5-2.5 3.5-3-1-1.5.5 1-2-2.5-3.5Zm256 0 5.5.5-1 4 .5 1.5-6.5-1.5 1.5-4.5Zm-97 2 2 4 3.5 2.5-2.5 3.5-4.5-.5 1.5-9.5Zm421 33-1.5 4.5-.5 4.5-3.5-1.5-5-6 10.5-1.5Zm-9 31 6.5 1.5-4.5 8.5-1.5-4.5 1-3-1.5-2.5Zm-272 36 3.5 2.5-2.5 3.5-3.5-.5 2.5-5.5Zm-8 12 4.5.5-17.5 23.5-4.5-.5 11.5-20.5 6-3Zm-286 12 10.5 6.5-1.5 5.5-5.5-.5-6-9 2.5-2.5Z"/><path fill="#750E15" stroke="#750E15" stroke-width="3" d="m425.5 144 9.5.5-2.5 4.5-1-2-2 3-4.5-.5 1-4-.5-1.5Zm36 0 12.5 2.5-.5 3.5-11 2-1-8Zm-47 6 5.5 3.5-.5 2.5-11.5-.5.5-2.5 6-3Zm-19 6 6.5 1.5-.5 3.5-6 1 .5-1.5-.5-4.5Zm-18 10 1 2 2.5.5-8.5 5.5-.5-2.5 5.5-5.5Zm-38 38 2.5.5v23L330.5 251l-.5-11.5 6-11-6-1-.5-5.5-1.5-.5 2.5-6.5 4 1 1.5-5.5-2-1 5.5-5.5Zm119 6 3.5 1.5 3.5 10.5 10.5 5.5-11.5.5-4-12-10 9-.5-3.5 8.5-11.5Zm-27 18 11.5.5q-6.11 7.39-21.5 5.5v-1l10-5Zm68 0 34.5 15.5-.5 6.5-6-8-28-14Zm-92 6 11.5.5-17.5 5.5-9.5 7.5-2 11q14.36 12.64 18 36l-18 26 2.5 3.5-19.5-.5-1-9 16-10 2-23-11-21 12.5-18.5 16-8Zm-68 18 2.5 1.5-6.5 11.5-11.5-1.5 15.5-11.5Zm201 4 4.5 3.5.5 1.5 1-2 11.5 22.5q-2.29 17.29 6 24v18l-6.5.5-7.5-5.5 8-2-6-16v-19L540.5 256Zm-213 1-.5 1.5-.5 1.5-.5-1.5 1.5-1.5Zm8 12 .5 1.5-11.5 20.5-.5-2.5 9.5-18.5 2-1Zm-15 1 3.5.5-3.5 5.5-2.5-.5 2.5-5.5Zm-8 35 4 1 1.5-.5-2.5 6.5-3.5-1.5.5-5.5Zm91 19h11l24.5 9.5q16.26 6.24 11 34l-4-3-2-17-7.5-9.5-33-14Zm80 6 7.5.5-9 7-2 7 6 8-3.5 1.5-2-3-1 2-4.5-10.5 3-2 5.5-10.5Zm80 0 6.5 1.5v20l-2.5 2.5-28.5-15.5-1-2 8.5-.5 15 6 2.5-10.5-.5-1.5Zm-258 1 .5 10.5-18 48-12.5 21.5-6 4-2.5-1.5 8.5-16.5 1 2 22.5-44.5-1.5-.5-5.5 4.5-3.5 6.5-.5-4.5 11.5-22.5 3.5-1.5 2.5-5.5Zm57 5h19l2.5 2.5-1.5 3.5-22.5-1.5 2.5-4.5Zm117 19 1 5 5.5.5-2.5 5.5-1.5.5-2.5 5.5-5.5-2.5 5.5-14.5Zm90 5 11.5 8.5q11.77 14.23 7 45l-24 48v22l12 5q2.5 14.5-3 21L551.5 531 536 541.5 521.5 561l-30 15h-35L435 563.5l-3-6 6.5-8.5 20-8 16-1 17.5-8.5 6-15v-2l-1-4 15.5-6.5-2.5 3.5q-2.04 17.04 9.5 20.5l1.5-.5 1-6-9.5-24.5-2.5-1.5-2-3 2.5-.5 17.5 8.5 1.5 9.5 7.5-6.5 9-17v-19q7.24-4.76 6-18l30-42v-30l-6.5-8.5-6-3-30 12-10.5-5.5 5-1 .5-1.5 13 2 22-12ZM480 540l-11 6-17 2-8 14 17 8 1-5 4-1 1 3 8 3q22 3 32-7l9-20-2-3h-34Zm-81.5-168 3.5 1.5-1.5 8.5-6 2 1.5-2.5 2.5-9.5Z"/><path fill="#750E15" stroke="#750E15" stroke-width="3" d="M350.5 378q22.78-3.78 32.5 5.5l-11.5.5-5.5-3.5-.5-1.5-9.5 6.5-2 17 29.5 38.5 14.5 13.5 13.5 19.5 1.5-.5 13-29q-5.17-29.67 6-43l-3.5-5.5-2.5-.5 3.5-11.5 2.5-.5.5-4.5q8.25 8.75 5.5 28.5l-6 12v18l-6 19 8.5 17.5 16-6-.5 1.5 3 10-15.5.5-29 12-15.5-12.5-5-16-38-57-2-26 2.5-2.5Z"/><path fill="#750E15" stroke="#750E15" stroke-width="3" d="m449.5 400 .5 2.5q-8.81 6.69-6 25l6.5 8.5 19 2 8-4 6.5 4.5 2 4-3.5 1.5-3.5-1.5-2.5-4.5-20 6-11.5-5.5-4-6-3-12 11.5-20.5Zm-204 34 .5 4.5-6 11 12 3-2.5 3.5-7.5 1.5-3.5 8.5-10 5-1.5-2.5 4.5-6.5 8.5-3.5-.5-2.5-5.5-.5 11.5-21.5Zm225 16 9.5.5-3 5 2 1-16 11-.5 1.5-2.5-1.5 10.5-17.5Zm-253 29 .5 1.5-8.5 7.5.5-1.5 3.5-6.5 4-1Zm249 1q20.77-3.27 29.5 5.5l-22.5.5-7-6Zm-263 13 1.5 4.5-6.5 11.5-.5-5.5 5.5-10.5Zm236 17 5.5.5-1 2 11 9-6.5.5-6.5-4.5-4-6 1.5-1.5Zm47 6 7.5.5-1.5 2.5-16 3v-1l10-5Zm-295 2 1.5 3.5-6.5 8.5-.5-2.5 5.5-9.5Zm266 4 10.5 1.5-1.5 4.5-3.5-.5-2.5-3.5-3-2Zm89 72 5.5 2.5v27l-6 12v18l-6 12v18l-6 12-1.5 22.5-16 2-1.5-2.5 7-9q-1.24-13.24 6-18-4.17-25.67 6-37l-6.5-8.5-6-3-8.5 6.5-9 17v13L486.5 717q-9.5 7-30 3l-18.5-8.5-9.5-15.5-1.5.5-1 20v2l-.5 1.5-10.5-5.5 2-1-3-18-6-12v-27l5.5-2.5 18.5 8.5q-2.33 14.33 5.5 18.5l22 14 26.5-13.5v-19l2.5-2.5 8.5-3.5 16-26 27.5-33.5 6-3Zm-345 6 1.5.5 1 6-6.5 12.5-2-1-9 11-1.5-11.5 2-1 2.5-4.5 8.5-4.5 3.5-7.5Zm-4 25 .5 5.5-11.5 22.5-.5-4.5 11.5-23.5Zm369 23 33.5 30.5.5 5.5 3.5.5-12.5 5.5 2.5-3.5-.5-2.5-21-17-7.5 8.5 4 6-20.5 27.5-10 5 1.5-2.5 16-28q.43-22.57 10.5-35.5Zm204 12 9.5 9.5-2.5 2.5-8.5-10.5 1.5-1.5Zm-590 5 4 1 1.5-.5-3.5 6.5-2 1-1.5-6.5 1.5-1.5Zm180 1 5.5 2.5v10l8 23-2.5.5-5.5-3.5-6.5-11.5-17.5-6.5 2.5-8.5 16-6Z"/><path fill="#750E15" stroke="#750E15" stroke-width="3" d="m573.5 690 2.5 1.5-8.5 10.5-3.5-.5 9.5-11.5Zm-189 18 7.5 5.5-2.5.5-5.5-3.5.5-2.5Zm-281 12 4.5 1.5-1.5 4.5-4.5-.5 1.5-5.5Zm-5 12 3.5.5-1.5 3.5-6 2 1.5-2.5 2.5-3.5Zm778 16 5.5 4.5-1.5 3.5-4 2v-10Zm-414 3q8.59 8.41 5.5 28.5l-9.5.5-4-5-2.5-1.5-2-3 12-5 .5-14.5Zm401 39 .5 2.5-4.5 7.5-.5-3.5 4.5-6.5Zm34 2 2.5.5-1.5 3.5-6 2 5-6Zm-22 6 2.5.5-7.5 5.5.5-1.5 2.5-3.5 2-1Zm-838 6 4.5.5-2.5 5.5-3.5-2.5 1.5-3.5Zm845 6 2.5.5-8 5 2 1-3 2-.5-2.5-1.5-.5 8.5-5.5Zm-838 6 3.5 1.5-.5 4.5-5.5-2.5 2.5-3.5Zm273 101 .5 1.5-3.5 4.5-3 1 .5-1.5 2.5-4.5 3-1Zm-218 7 2.5.5-.5 11.5-5.5-2.5 3.5-9.5Z"/><path fill="#913B1F" stroke="#913B1F" stroke-width="3" d="m435.5 144 3.5.5-1.5 5.5-5.5-.5 3.5-5.5Zm-43 12 3.5 1.5-1.5 4.5-4.5-2.5 2.5-3.5Zm-12 6 3.5 2.5-2.5 3.5-3.5-.5 2.5-5.5Zm-30 24 3.5 2.5-2.5 3.5-3.5-2.5 2.5-3.5Zm-17 24 2.5.5-1.5 5.5-3.5-.5 2.5-5.5Zm126 6 2.5 1.5 2 10-14.5.5-16 6v-1q17.21-4.29 26-17Zm34 12 15.5 5.5-5.5.5-10-6Zm-74 6 5.5.5-21 13-2 11 12 17v25l-6 12 7.5 9.5q23.94 2.56 35.5 17.5l4 6-4.5 7.5-.5-7.5-11.5-12.5-24-9h-21l-3.5-3.5 16-22 2-11-18-29v-7l7.5-9.5 22-8Zm-101 5 4 1 1.5-.5-5.5 14.5-1-8-1.5-.5 2.5-6.5Zm216 8 17.5 34.5q-3 22 6 32l-2.5-1.5-19.5-13.5-2-23 6-12-7-13 1.5-3.5Zm-19 71 5.5.5-15.5 5.5v-1l10-5Zm-24 6 5.5.5-12.5 5.5-.5-1.5 7.5-4.5Zm45 6 4.5.5-1 4 .5 1.5-6.5-2.5 2.5-3.5Zm-57 4 .5 2.5-3.5 5.5-1.5.5 5 12-5.5 10.5-.5-23.5 3.5-6.5 2-1Zm84 1 .5 4.5-6.5 2.5-10.5-5.5 16.5-1.5Zm-276 26 .5 4.5-5.5 11.5-.5-5.5 5.5-10.5Zm198 3 1.5 2.5-1 14-15.5 15.5-2.5-1.5 6.5-24.5 5 2 3-6 3-2Zm84 2 10.5 7.5 2 15h-1l-8.5-15.5-13.5-1.5 10.5-5.5Zm-52 6q15.39-1.89 21.5 5.5l-11.5.5-10-6Zm34 0 5.5.5-15.5 5.5v-1l10-5Zm-132 4 1 2 1.5.5-7.5 5.5h-13q-6.71 8.29-24 6l-14-6q-6.03 4.97-3.5 18.5l27.5 34.5q5.83 8.17 21 7l9.5-7.5 2-17 6-14-6-8 4-3 1.5-3.5 1 5 3.5 1.5 2 5-6 11v31L412.5 474l-7.5-6.5-20.5-26.5-3.5-2.5-27-36v-13l7.5-9.5 4-1 2 3 29 2 23-8Zm7 0 5.5 7.5-4 2-1.5 3.5-1.5-10.5 1.5-2.5Zm155 21 .5 10.5-28 38-8 22v19L530.5 510l-1.5-.5-3.5-11.5-14.5-5.5q16.29 1.79 21-8l16-45 33.5-42.5Zm-132 6 .5 5.5-5.5 10.5-.5-6.5 5.5-9.5Zm-186 6 1 5 4.5.5-4.5 2.5-1-2-5 7 .5-3.5 4.5-9.5Zm218 5 4.5 1.5 6 16v13l-5.5 10.5-2.5-16.5 2-1-6-22 1.5-1.5Zm-227 12-8 9-1-2 9-7Zm221 7 1.5.5-3.5 2.5 2-3Zm-236 6 1.5 4.5-6.5 8.5-.5-1.5 5.5-11.5Zm240 17 2.5.5-1.5 2.5-8 3 3-4 4-2Zm-252 1 .5 6.5-5.5 7.5-.5-3.5 5.5-10.5Zm243 5-2.5 3.5-1.5 8.5-4.5-1.5 1.5-5.5 7-5Zm-20 10 4.5 3.5.5 1.5 5.5 2.5-7.5.5-3-8Zm-247 18 1 2 2.5.5-2.5 4.5-1-4-5 10-.5-4.5 5.5-8.5Zm310 14 2.5.5 6 21-1.5 2.5-7.5-6.5-3-14 3.5-3.5Zm-322 4 .5 2.5-2.5 6.5-3 2-1-3-1.5-.5 2.5-6.5 3 1 2-2Zm254 2 5.5.5-1 4q15.05-.05 23 7l-17.5.5-11.5-9.5 1.5-2.5Zm40 0 12.5 1.5-1.5 4.5-11 1-2.5-1.5 3-2-.5-3.5Zm-300 25 .5 23.5-1.5-.5-4 1-2.5-6.5 2-1 5.5-16.5Zm294 5h34l2.5 2.5-9.5 20.5q-9.8 9.7-32 7l-7.5-3.5-1.5-2.5-3.5.5-1.5 5.5-16.5-8.5 7.5-13.5 6-2-1.5 2.5 7.5 13.5 39 2 1.5-3.5-2-1-5.5-13.5-27.5-.5 10.5-5.5Zm-299 29 4 1 1.5-.5-.5 13.5-4-1-1.5.5.5-13.5Zm341 73 9.5 6.5 3 6q-10.41 10.59-6 36-7.24 4.76-6 18l-9.5 11.5h-15l-13 6 1.5-2.5-.5-3.5-5.5 2.5-1.5 3.5-4.5-1.5-1-4 15-5 16-37v-13l12.5-20.5 5-3ZM507 684l-3 4 4 2 2-3-3-3Zm-326.5-25 4 1 1.5-.5-1.5 6.5-4.5-1.5.5-5.5Zm392 8 21.5 17.5-3 5 2 1-7 5 .5 1.5-25.5 10.5 2 1q-5.45 8.05-21.5 5.5v-1l7.5-4.5 20-28-4-6 7.5-7.5Zm1.5 23-10 12h4l8-10-2-2Zm-230.5-6q16.43-2.43 20.5 7.5l2 6-2.5-1.5-1.5-.5-1.5-2.5-17-9Zm84 12 7.5 6.5 5.5 11.5q10.15 7.35 28.5 6.5l-7 10v35l-2.5 2.5-9.5 2.5 3.5 4.5 2.5 1.5 2 3-13.5 1.5-.5-2.5-1.5-4.5-4 1-.5-32.5-12-26v-18l1.5-2.5Zm-320 29 .5 1.5-4.5 7.5-1.5-.5-.5-1.5-2.5-.5 2.5-4.5 1 4 3-5 2-1Zm755 13 9.5 5.5-1.5.5-8-6Zm12 15 1.5.5-1.5 6.5-6 2 5.5-6.5.5-2.5Zm-16 44 .5 1.5h-1l.5-1.5Zm50 1 3.5 1.5 2 4-7.5 2.5-.5-5.5 2.5-2.5Zm-11 12 4.5.5-8 7 3.5-7.5Zm-244 6 1.5.5-1 4-.5 2.5-4-1h-2l-4.5-.5 10.5-5.5Zm252 4 .5 2.5-5.5 7.5-.5-1.5 5.5-8.5Zm6 12 .5 1.5-5.5 8.5-.5-2.5 5.5-7.5Zm-349 14 11.5.5-4 2-1.5 3.5-4.5-1.5-1.5-4.5Zm-501 12 4.5.5-1.5 5.5-4.5-2.5 1.5-3.5Zm14 24 2.5.5-.5 9.5-2-4-3.5-2.5 3.5-3.5Zm16 18q9.5-2 11.5 3.5l3 6-9.5 10.5-.5-2.5 5-10-9.5-7.5Zm220 16 1 2 1.5.5-3.5 5.5-4.5-2.5 2.5-3.5 3-2Z"/><path fill="#E5C29B" stroke="#E5C29B" stroke-width="3" d="M445.5 144q13-3.5 16.5 2.5l-2.5 3.5-15.5-1.5 1.5-4.5Zm40 96q22.19-4.19 28.5 7.5l2 14-2.5 2.5h-37l-2.5-12.5 6.5-8.5 5-3Zm16 54 1.5.5 7.5 17.5 5.5.5-1.5 3.5-28 2-1-3-11.5-4.5 6.5-7.5 21-9Zm-198 6 2.5.5-.5 6.5-4-1-1.5.5 3.5-6.5Zm-6 24 2.5.5-8.5 23.5-3.5-2.5 9.5-21.5Zm-12 30 2.5.5-2.5 5.5-2.5-1.5 2.5-4.5Zm173 0 9.5 3.5q3.61 22.11-5.5 31.5l-1-5-5 3-.5-30.5 2.5-2.5Zm29 13 13.5 5.5-3.5 4.5-2 1-3.5-2.5-.5 1.5-5.5-8.5 1.5-1.5Zm-214 5 2.5.5-5.5 10.5-.5-4.5 3.5-6.5Zm-6 12 2.5.5-5.5 16.5-.5-10.5 3.5-6.5Zm267 0q23.57-4.07 29.5 9.5L550.5 406l-16.5 4.5q-2.37 13.13-12.5 18.5l-6 3-8.5-6.5-15-34q18.07 1.07 27.5-6.5l9 5 5.5-3.5.5-2.5ZM517 396l-1 3 6 3v-3l-5-3Zm-10 6-3 3 12 9 6-2q-4-9-15-10Zm-245.5 0 2.5.5-5.5 10.5-.5-4.5 3.5-6.5Zm201 7 5.5 11.5-1.5-.5-3.5.5-1 10 .5 1.5-6.5-3.5 1.5-12.5 4.5-2.5.5-4.5Zm-207 5 1.5.5-14.5 17.5-.5-2.5 13.5-15.5Zm-24 30 2.5.5-2.5 5.5-2.5-1.5 2.5-4.5Zm263 6 3.5.5.5 2.5 11.5 5.5-2.5 9.5q-12.25 3.25-15.5-2.5-3.25-12.25 2.5-15.5Zm-281 18 2.5.5-3 11-14.5 16.5-6 5-.5-2.5 21.5-30.5Zm267 6 11.5 2.5-.5 3.5-11.5-3.5.5-2.5Zm-10 72 4.5.5-1 2 1.5 2.5 1.5.5 3 5-6.5 1.5-5.5-3.5 2.5-8.5Zm-287 90 2.5.5q3.75 13.75-2.5 17.5l-3.5-2.5 3.5-15.5Zm-12 36 2.5.5-2.5 5.5-20 6v-1l20-11Zm-39 12 2.5.5-8 5 4 1-4.5 2.5-1-3-3.5-.5 10.5-5.5Zm474 0 2.5.5-12.5 5.5v-1l10-5Zm189 0 8.5 3.5-.5 5.5-2-3 1.5-.5-7.5-5.5Zm-683 10 1.5.5-1.5 5.5-3.5 1.5-.5 1.5h-2l-10 5-.5-2.5 16.5-11.5Zm695 2 8.5 3.5-.5 5.5-2-3 1.5-.5-7.5-5.5Zm-238 12 3.5.5-13.5 5.5v-1l10-5Zm289 28 9.5 7.5 6 8-3.5 6.5-2-6-4-2-3 1-3 1-1.5-2.5 1-7-2-4 2-1 .5-1.5Zm24 26 2.5.5-16.5 11.5 8-9 6-3Zm-19 16 .5 2.5-3.5 4.5-4 1 7-8Zm36 5 .5 2.5-5.5 8.5-.5-2.5 5.5-8.5Zm-12 7 .5 2.5-3.5 4.5-4 1 7-8Zm-557 6 4.5 6.5-1.5.5-5.5-4.5 2-1 .5-1.5Zm557 5 1 2-9.5 6.5 8.5-8.5Zm-12 1 .5 2.5-6.5 9.5.5-1.5 5.5-10.5Zm-541 2 1.5.5-.5 1.5-1-2Zm-16 6 5.5 3.5 1 2-1.5-.5-5.5-2.5.5-2.5Zm245 0 6.5 2.5-2.5 3.5-4.5-.5 1-4-.5-1.5Zm-57 6 3.5 2.5-.5 16.5-4-1-1.5.5q-4-14.5 2.5-18.5Zm408 12 3.5 2.5-12.5 24.5-4 2-1.5-7.5 2.5-4.5 3-1 1 2 3.5-1.5 2-4-2-1 4.5-11.5Zm-338 6 5.5 2.5-2.5 3.5-3 2v-8Zm62 0 3.5 2.5-.5 4.5-5.5-2.5 2.5-4.5Zm-134 5 4 1 1.5-.5-2.5 6.5-3.5-2.5.5-4.5Zm384 6 7.5 6.5-1.5.5-6.5-3.5.5-3.5Zm-337 7 12.5 2.5-2.5 3.5-10.5-.5 1-4-.5-1.5Zm90 6 6.5 2.5-2.5 3.5-4.5-.5 1-4-.5-1.5Zm-18 30 4.5.5-12.5 5.5 2-3 6-3Z"/><path fill="#46331D" stroke="#46331D" stroke-width="3" d="m485.5 142 1 6 15.5 7.5 2 5-12 3 1.5 4.5 10.5 1.5-5 8 17 25-17 10 2 3-2.5 1.5-6.5-3.5 5-7-5-6 12-4-12-16-6-26-4.5-4.5-9.5-5.5 13.5-2.5Zm-24 7 .5 3.5-2.5 3.5-3 2-.5-4.5 5.5-4.5Zm-23 2 9 11 4.5.5-4.5 11.5-9.5-2.5.5-20.5Zm114 9q34.84 15.66 56.5 44.5l2 4-1.5 1.5-15-15-38-9-22.5 8.5-5 13 3.5 4.5 1.5.5-.5 1.5-2.5 1.5-2 4 2.5 3.5 2.5 1.5-12.5 3.5-10.5-5.5 5.5-.5 11 5 .5-1.5q-8.6-5.4-6-22l6-12-6-10 12-3-6-9 6.5-1.5 16 6 1.5-2.5-5-9 5-1 .5-1.5Zm-118 20q12.25-3.25 15.5 2.5l-6 8v23l-2.5 2.5h-19l-2.5-2.5 6-8v-8l8.5-17.5Zm24 24 3.5 2.5-.5 4.5-3-1-2.5 1.5 2.5-7.5Zm78 30 3.5 2.5-2.5 3.5-3.5-2.5 2.5-3.5Zm-15 84 5.5.5-15.5 5.5v-1l10-5Zm-24 6 5.5.5-15.5 5.5v-1l10-5Zm33 18 3.5 2.5-2.5 3.5-3.5-2.5 2.5-3.5Zm-32 22 1 3 7.5 4.5-8.5.5-2.5-5.5 2-1 .5-1.5Zm97 2 4.5 2.5 2.5 3.5 14.5 13.5 2.5 3.5 1.5.5-3.5.5-11-6-1 3-10-21Zm85 0 3.5 2.5-2.5 3.5-3.5-2.5 2.5-3.5Zm-279 6 19.5.5-3.5 5.5-15 3-1-9Zm24 0 6.5 2.5-.5 6.5-6-9Zm261 18 3.5 2.5-2.5 3.5-3.5-2.5 2.5-3.5Zm-59 6 32.5 20.5-.5 6.5-32-27Zm65 12 3.5 2.5 13 46-1 18 .5 1.5-5.5-3.5-8-11 1-6-2-5 2-1q1.31-12.81-6-17v-22l2.5-2.5Zm-52 12 10.5 5.5-3.5.5-7-6Zm24 6 9.5 5.5-1.5.5-8-6Zm76 162 3.5 2.5-2.5 3.5-3.5-2.5 2.5-3.5Zm18 48 3.5 2.5-2.5 3.5-3.5-2.5 2.5-3.5Zm-12 24 3.5 1.5-1.5 4.5-4.5-2.5 2.5-3.5Zm11 6 9.5 5.5-10.5 3.5-.5-6.5 1.5-2.5Zm-572 1 1 5 3.5.5-4 2-2.5 3.5-3.5-2.5 1.5-3.5 2.5-1.5 1.5-3.5Zm321 17 3.5 2.5-2.5 3.5-3.5-2.5 2.5-3.5Zm-146 9 2 3 14.5 7.5.5 1.5 5.5 2.5-5.5.5-17.5-9.5.5-5.5Zm-222 5 5.5 11.5-4-3-1.5-8.5Zm431 4 5.5.5-13.5 5.5 2-3 6-3Zm-30 12 5.5.5-15.5 5.5v-1l10-5Zm-113 4q7.4 3.6 5.5 16.5l-3.5-2.5-2.5-.5-1-5 1-3-2.5-3.5 2.5-.5.5-1.5Zm88 0 1.5.5.5 1.5 4.5.5q-7.92 10.58-31.5 5.5l2-3 23-5Zm-45 2 3.5.5 2 5-9.5.5 3.5-4.5.5-1.5Zm14 0 2.5.5-2.5 5.5-1.5.5-1.5 3.5-1.5-5.5 2.5-3.5 2-1Zm-267 12 5.5 2.5-1.5 3.5-4.5-2.5.5-3.5Zm503 5 .5 7.5-1.5-.5-4 1-2.5-6.5 7.5-1.5Zm-624 1 4.5.5-8 6-1.5 3.5-2.5-4.5 7.5-5.5Zm129 6 3.5 2.5-2.5 3.5-3.5-2.5 2.5-3.5Zm97 6 8.5 2.5-.5 6.5-8-9Zm-238 3 1 2-4.5 1.5 3.5-3.5Zm507 3 3.5 2.5-1.5 4.5-4 2-.5-6.5 2.5-2.5Zm-513 3 1 2-10.5 7.5 9.5-9.5Zm501 3 4.5 3.5 1 2-7.5 3.5-.5-6.5 2.5-2.5Zm-487 6 11.5 3.5.5 1.5 1.5.5-3.5.5-10-6Zm608 0 2.5 6.5-1.5-.5-4 1-.5-1.5 3.5-5.5Zm-634 7 .5 31.5-2-1q-6.36-5.64-4-20l5.5-10.5Zm43 2 17.5 37.5h-1L108.5 777Zm791 3 6.5 2.5-.5 4.5-4-1-1.5.5-.5-6.5Zm-797 13 11.5 27.5h-1l-11-22 .5-5.5Zm410 5 6.5.5-2 5 20 1-9.5 5.5-17.5-8.5 2.5-3.5Zm399 0 6.5 2.5-.5 4.5-5.5-3.5-.5-3.5Zm-587 2 4.5 8.5-1.5.5-3.5-2.5-1-2 1.5-4.5Zm-274 4 2.5.5 1 4-4.5 1.5-1.5-3.5 2.5-2.5Zm486 6 4.5.5-1 4 .5 1.5-6.5-2.5.5-1.5 1.5-.5.5-1.5Zm-470 3 7.5 8.5-6.5.5-1-9Zm-19 3 6.5 1.5-2.5 4.5-3.5-2.5-.5-3.5Zm536 0 15.5 5.5-5.5.5-10-6Zm-43 6 7.5 5.5-.5 1.5-9.5-1.5 2.5-5.5Zm224 0 5.5.5-7.5 5.5-.5-3.5 2.5-2.5Zm-552 6 3.5 1.5-2.5 4.5-3.5-2.5 2.5-3.5Zm451 6q6.5 4 2.5 18.5l5 11-12.5.5 1.5-2.5-.5-3.5-4.5-.5 5-3q-2.92-14.92 3.5-20.5Zm-543 1 4 6 1.5.5-.5 3.5-4 3-1-13Zm-64 5 8 6 13.5 2.5 4.5 9.5h5L99 869.5 78.5 872l-4-13-2-1-2 1-3-1h-2l-5 1-5.5-17.5 1.5-1.5Zm542 0 12.5.5-8.5 5.5-4-6Zm18 0 7.5 3.5 1 2-1.5.5-7-6Zm234 0 24.5 11.5-5.5.5-19-12Zm-294 5 7.5 3.5 1 3-7.5.5.5-1.5-1.5-5.5Zm336 6 7.5 4.5.5 1.5 1.5.5-2.5.5-7.5-5.5.5-1.5Zm-768 4 6.5 14.5-3 2-5 16-15 15-.5 6.5-8-9-6.5-5.5 3-1 .5-2.5 11-5 1 2 10.5-3.5 7-14-2-1 2-3-1.5-2.5-7.5-.5 7.5-8.5Zm475 3 1.5.5-1 4 .5 1.5-6.5-2.5 5.5-3.5Z"/><path fill="#46331D" stroke="#46331D" stroke-width="3" d="M83.5 876q14.5-4 18.5 2.5l-3.5 4.5-6.5 5.5-2 8 5 3-4.5.5-6.5-3.5-1.5-14.5-4 1-2.5-1.5 1.5-2.5 6-3Zm198 28 4.5 3.5 2 6-3-2-3.5-7.5Zm49 0 5.5 9.5-4-3-1.5-6.5Zm102 5 5.5 13.5h-1l-4.5-13.5Zm191 3 6.5 2.5-3.5 4.5-2 1-3-1-3 4-1-4-3 5-4 1-.5-1.5 4.5-5.5 3-2 1 2 5.5-.5-.5-5.5Zm-388 12q10.75-1.75 12.5 5.5l-2.5.5-10-6Zm64 4 4.5 3.5 1.5 3.5 2.5.5-4.5.5-4-8Zm318 12 .5 7.5-5.5.5 1.5-2.5 1.5-4.5 2-1Z"/><path fill="#846A5A" stroke="#846A5A" stroke-width="3" d="M505.5 144q14.72-1.72 20.5 5.5l7 10-5.5 2.5.5-1.5-7.5-8.5-15-8Zm30 6 4.5 2.5-.5 3.5-5.5-1.5 1.5-4.5Zm12 6 4.5 2.5-.5 3.5-5.5-.5 1.5-5.5Zm-53 204 3.5 2.5-.5 3.5-5.5-2.5 2.5-3.5Zm-69 25 .5 5.5-3.5 5.5-2 1-.5-1.5 5.5-10.5Zm259 62 8 9-8.5-3.5-1-3 1.5-2.5Zm98 225 3.5 2.5-.5 5.5-9.5-2.5 4-2 2.5-3.5Zm-237 42 4.5.5-14.5 5.5v-1l10-5Zm-462 40 .5 2.5-2.5 5.5-3.5-.5 5.5-7.5Zm356 20 4.5 1.5-1.5 4.5-4.5-2.5 1.5-3.5Zm-103 27 2 3-3.5-1.5 1.5-1.5Zm251 0 1 2-3.5.5 2.5-2.5Zm-257 6-.5 1.5-1 2 .5 1.5-1.5-2.5 2.5-2.5Zm240 2 6.5 1.5-1 4 .5 1.5-7.5-.5 1.5-6.5Zm-63 1 2.5 6.5-1.5-.5-4 1 .5-1.5 2.5-5.5Zm152 4 .5 6.5-4.5 1.5-1.5-4.5 5.5-3.5Zm-70 2 15.5 5.5-5.5.5-10-6Zm-487 8 .5 1.5h-1l.5-1.5Zm474 4 5.5 2.5-.5 4.5-5.5-3.5.5-3.5Zm5 11-.5 1.5-1.5 3.5-8 2v-1l10-6Zm-12 12-.5 1.5-1.5 3.5-4 2 .5-1.5-1-4 6.5-1.5Zm-497 7 4.5 3.5 1 3-5.5 8.5-1-3-2.5-.5 3.5-11.5Zm581 0 6.5.5-3.5 5.5-3.5-.5 1-4-.5-1.5Zm-575 29 5.5 3.5-.5 6.5q-7.3-1.8-5-10Zm236 25 3.5 2.5-2.5 3.5-3.5-.5 2.5-5.5Zm520 9 2 3-3.5-1.5 1.5-1.5Zm-493 21 6.5 2.5-.5 3.5-5.5-.5-.5-5.5Z"/><path fill="#330911" stroke="#330911" stroke-width="3" d="m431.5 147 1 3 2.5.5-5.5 9.5-6 1-9-2-40.5 24.5-19 39 5 18-8.5 21.5-8.5 4.5-6 16 4 14-16 56-1 26-6.5 12.5-3 1-5-27-3.5 1.5-20.5 36.5-3 2-2.5-.5 20-43v-10l6-10v-11q7.12-5.88 6.5-19.5l3 1 8-22 4.5-2.5 8-17v-9l6-8-2.5-1.5-14 11 .5-1.5 16-34v-23l-2-1 8-6 .5-6.5 4 1 1.5-4.5-.5-1.5 6.5-.5 11.5-13.5 1 2 11.5-7.5-1-4 7.5-1.5 9 1 2.5-1.5-1-4 6.5-3.5 1 3 11.5-.5-3-5 3.5-1.5 9 1 2-3ZM417 157l-2 2h3l-1-2Zm-74 107-1 2 2-1-1-1Zm-28 85-2 3 3 1 1-2-2-2Zm-6 13-1 2h2v-1l-1-1Zm165.5-215 5.5 6.5-1 3-1.5 2.5-8.5 2.5-2.5 13.5-4.5-1.5-1-16 .5-1.5-1.5-.5 4.5-5.5 9.5-.5.5-2.5Zm-2.5 10-1 2h1v-2Zm14.5 6 1.5 2.5h-1l-.5-2.5Zm4 8 1.5 2.5h-1l-.5-2.5Zm-26 6 1.5.5-1.5.5v-1Zm28 4 1.5 2.5h-1l-.5-2.5Zm-45 4-.5 1.5-.5 1.5-.5-1.5 1.5-1.5Zm-16 1 .5 1.5-2 1 1.5-2.5Zm125 0 1.5.5-10.5 5.5 1-2 8-4Zm12 2 3.5 1.5-1.5.5-2-2Zm-123 1-.5 1.5-.5 1.5-.5-1.5 1.5-1.5Zm-16 1 .5 1.5-1.5 2.5-.5-1.5 1.5-2.5Zm-4 14 .5 1.5-2 1 1.5-2.5Zm-2 4 .5 1.5-2 1 1.5-2.5Zm39 5 3.5 1.5-.5 1.5 1.5.5 1.5 2.5 1.5-.5.5 1.5 1.5-.5.5 1.5 1.5-.5.5 1.5 3-1 19.5 6.5-20.5.5-12.5-7.5-1.5-7.5Zm-21 9 2.5.5-2 1 2 1-2.5 3.5-8.5-.5 3-2-.5-1.5 2 1 4-3Zm-9 3 1.5.5-1.5.5v-1Zm-5 1 1.5.5-1.5.5v-1Zm-4 1 7.5 1.5q-6.11 7.39-21.5 5.5v-1l2.5-1.5.5-1.5h2l9-3Zm-15 4 1.5.5-1.5.5v-1Zm-2 3-1 2-3 1v-1l4-2Z"/><path fill="#330911" stroke="#330911" stroke-width="3" d="m389.5 239 5.5 1.5-8 6-8 15q14.37 10.63 11 39l-7.5 9.5-10.5 4.5 1 9-1 2 15 1q-16.1-2.6-22 5l2 1-2.5.5-2-1-7.5 6.5 4.5 3.5 2-1 21 1 1.5-.5-.5 3.5-29 13h-2l-2.5.5 3.5 9.5 22.5 7.5.5 1.5 1.5-.5.5 1.5 3-1 8.5 3.5-1.5 3.5-16-6h-22l-2.5 2.5v21l40 62 5 16 9.5 9.5 11 3q15.33-16.67 52-12l8 6q24.13-4.12 34.5 5.5l3.5 5.5 2.5 1.5-.5 1.5-1-2-4.5.5.5 3.5-1-3q-24.69.69-37.5-10.5l-.5-1.5-1.5.5-.5-1.5-3 1-27-1-3 1-2-1-1 2-1.5-.5-.5 1.5-1.5-.5-.5 1.5-1.5-.5-2.5 3.5-6.5 5.5-2 5 2.5 4.5 16 2 2-1 3.5 1.5-1 2 4.5 5.5 20.5 8.5-.5 1.5-5 1-24-7-24 10-23.5-18.5q-11.3-16.7-15-41-23.76-28.74-35-70v-55q8.14-9.86 6-30 13-20 18-48l24.5-27.5 5-3ZM352 355l-2 2h3l-1-2Zm181.5-113 3.5 1.5.5 2.5 1.5.5 6.5 9.5 2.5 1.5-2.5 3.5-4-5-2 1-6-15Zm15 20 3 6 3 1 1.5.5 3 6-1.5 5.5-9-19Zm12 19 .5 1.5h-1l.5-1.5Zm-2 2 2 3 1.5-.5-1 2 4 11-1.5 6.5q-7.9-6.77-5-22Zm7 18 .5 2.5h-1l.5-2.5Zm1 6 .5 9.5h-1l.5-9.5Zm-23 11q10.77-1.27 13.5 5.5l-5.5 1.5-2.5-1.5-.5-1.5-1.5.5-.5-1.5-3-3Z"/><path fill="#330911" stroke="#330911" stroke-width="3" d="m566.5 318 4.5 9.5-1 3 3 1-1 2 2 1 3 21 12 20-1 2h2l-1 2 2 1q6.13 12.38 3 34-9.29 12.71-6 38 7.86 9.14 6 28l-8 28-32.5 33.5-32 24-1.5-.5-.5 1.5-1.5-.5-.5 1.5-1.5-.5-1.5 2.5q-16.97 18.53-59 12l-22-8-15.5-14.5-3-10 6.5-7.5 22-6 6 3 26.5-7.5-1.5-2.5-2-1-4 2v-1l1.5-.5-3-1 1-4-.5-1.5q17.83 3.32 25.5-3.5l1.5-2.5 3.5.5-8.5 17.5-15 6-16 1-23.5 11.5-3 6 6.5 8.5q16.17 14.83 53 9 25.08-6.92 39.5-24.5l10.5-15.5q20.58-8.42 31.5-26.5 5.5-6.5 3-21l-12-5v-22l24-48v-30L575.5 363l-6-3-17 9v-1l3.5-1.5-3-1 5-3-8.5-13.5-2.5-1.5-1.5-2.5-1.5.5-.5-1.5-1.5.5-.5-1.5-3-1-3.5-2.5-1-4 1.5.5 3.5 1.5.5 1.5 28 15 2.5-2.5v-20l-4-3-1.5-3.5-1 4-2.5-4.5 4-2 1.5-4.5ZM477 528l1 4 2-1v-2l-3-1Zm-88.5-202 2.5.5-2.5.5v-1Zm20 1 1.5.5-1.5.5v-1Zm7 3q17.62 2.38 26.5 13.5l2 9h-1l-2.5-4.5-1.5.5.5-1.5-2.5-1.5-1.5-2.5-2.5-1.5-1.5-2.5-1.5.5-.5-1.5-1.5.5-.5-1.5-1.5.5-.5-1.5-1.5.5-.5-1.5-1.5.5.5-1.5-2 1-2-3-3-2Zm76 0 3.5.5-5 4-.5 1.5-1.5-.5-.5 1.5-3.5-1.5 7.5-5.5Zm-77 2 1.5.5-1.5.5v-1Zm-46 1 8.5.5-8.5.5v-1Zm17 6 .5 1.5h-1l.5-1.5Zm96 7 8.5 4.5 1 6-4.5 6.5-1-3-5.5-.5.5-8.5 2 3 3.5-1.5-4.5-6.5Zm-40 8 .5 4.5h-1l.5-4.5Zm3 7 5.5 7.5v31q-11.1 7.9-12 26l8 12-2.5.5-5.5.5.5 1.5 1.5-.5-7 11 4.5 7.5 17 4 10.5-6.5-.5-1.5 3.5-.5-8.5 14.5h-10l-15 6q-8.37-8.13-8.5-24.5l6-12v-18q8.83-8.67 6-29l-3-6h1l1.5 3.5 1-3 4 2 1.5-17.5-1-2 1.5-6.5Zm-.5 26-3 1 1 2h2v-3Zm-1.5-25 .5 2.5h-1l.5-2.5Z"/><path fill="#330911" stroke="#330911" stroke-width="3" d="m551.5 366-1 2-1.5-.5 2.5-1.5Zm-12 3 5.5.5-5.5.5v-1Zm59 6 4.5 7.5-2-1-2.5-6.5Zm-284 18 1.5.5-1.5.5v-1Zm-6 11 1.5.5-1.5.5v-1Zm-29 3-4 5-3.5 1.5 3 1-4 2-15 25 5.5.5q29.18-5.82 41.5-28.5l4.5-6.5 3.5 1.5-15.5 25.5-36.5 20.5-4.5 6.5-17 10h-2l-1.5.5-8.5 12.5-8.5 6.5-18.5 29.5-2.5 1.5-.5 2.5-1.5.5.5 1.5-1.5.5-1 3-.5 1.5-1.5.5-3.5 7.5-.5-8.5 23.5-42.5 8.5-7.5.5-1.5 7.5-5.5 1.5-3.5 4-2 8.5-3.5 3.5-8.5 8.5-2.5-2.5-3.5-9.5-.5q5.15-17.35 17.5-27.5l3.5-1.5 2.5-5.5 1 2 15-10ZM255 439l-2 2 2 1v-3Zm435.5-6 5.5 9.5-2-1-3.5-8.5Zm-217 5 5.5 2.5-.5 1.5-2-3-4 5-1.5.5.5 2.5 2.5.5-2.5.5-3-1-2.5 1.5v2l-.5 2.5-1-4-10.5-2.5-1-2 .5-2.5 8 2 12-6Zm136 1 10.5 3.5 1 5-13.5 6.5-4.5-3.5-1-5 2.5-3.5 5-3Zm-161 1 3.5 1.5-1.5.5-2-2Z"/><path fill="#330911" stroke="#330911" stroke-width="3" d="m480.5 442 4 2 1.5-.5-3.5 12.5-5.5-.5 3-5-3-1 1-3-1.5.5-1.5-.5 2-1-1-2 2 1 .5 1.5 2-4Zm-112 57 2.5 1.5-1.5 2.5-2.5-1.5 1.5-2.5Zm137 3 1.5.5-1.5.5v-1Zm-2 1 5.5 1.5-9.5 5.5-2.5-3.5 6.5-3.5Zm-17 1 2.5.5-2 1 10 4-8.5.5-2-6Zm8 2 1.5.5-1.5.5v-1Zm-57 2 1.5.5-1.5.5v-1Zm24 21 2.5.5-2.5.5v-1Zm88 48q9.81-.31 12.5 6.5l2 23q-6.5 5.5-5 19l11.5 13.5 15.5 10.5 18 24 2 8-5.5 2.5-1-6-33-30q-10.07 12.93-10.5 35.5L539.5 712l-1.5.5 1 2-4.5 2.5-.5-21.5 6-12v-18l6-12q-3-21 6-30v-27l-5.5-2.5-9.5 6.5-41.5 57.5-9.5 4.5v19l-2.5 2.5-25 11-24.5-17.5-4.5-17.5-19-6-2.5 2.5v27l6 12 3 18-2.5 1.5-22-1-7.5-5.5-1.5-3.5-5-3-1 3-2-3-2.5-1.5-9.5-34.5-21.5 8.5 1.5 7.5 3.5 1.5-4.5.5-8.5-5.5 2-1 2.5-15.5 23-18 6-1q13.06 13.94 11.5 42.5l16.5 18.5 1.5.5 1.5 2.5 1-2-1.5-.5 3-2 1-9q-11.14-17.36-6-51l2.5-4.5 22-2 13.5 10.5 8.5 12.5 14 6 23-8 9.5-9.5 5.5-9.5 11.5-7.5 6-17 5.5-5.5 9.5-6.5 17.5-21.5 5-3ZM411 643l-3 5h3l2-3-2-2Zm23 29 2 6h2l-2-4-2-2Zm-230.5-81 5.5 1.5 1 8-5 10-1 3-2.5 5.5-2.5-3.5 5-13-1.5-2.5-2.5 1.5-4.5 8.5-7.5 3.5-1.5 3.5-.5-19.5 3.5 2.5 14-9Zm-3 36 .5 2.5h-1l.5-2.5Zm-3 4 1.5 5.5-1.5 3.5-1.5-.5 1 2-2 1 .5 1.5-1.5.5.5 1.5-1.5.5.5 1.5-1.5.5.5 1.5-1.5.5.5 1.5-1.5-.5-3.5 7.5-.5-5.5 11.5-22.5Zm454 29 2.5.5q-1.75 34.25-20.5 51.5l-11.5 7.5-6.5 10.5-13 5-1.5-4.5 10-9 8.5-11.5 9.5-6.5 10-14 12.5-29.5Zm206 72 8.5 5.5-.5 1.5-7.5-4.5-.5-2.5Zm-770 12 1.5.5-4.5 9.5-4.5 2.5-1.5 3.5-10.5 8.5-1.5 4.5-6.5 3.5-.5-2.5-5.5-.5 6.5-8.5q18-6 27-21Zm794 11 .5 4.5-2.5 3.5-9 7-.5-5.5 1.5-3.5 10-6Zm-415 3 1.5 2.5-2-1 .5-1.5Zm3 2 .5 1.5h-1l.5-1.5Zm1 7 .5 7.5h-1l.5-7.5Zm421 1 2.5.5-.5 7.5-5.5-2.5 3.5-5.5Zm-838 16 .5 2.5-1 2-3 5-6.5 8.5-4 2-3 1-.5-3.5 2.5-4.5 15-13Zm853 3 5 10 2.5.5-7.5.5v-11Zm-863 16 .5 1.5h-1l.5-1.5Zm39 73-1 2-1.5-.5 2.5-1.5Zm43 6 .5 1.5-2 1 1.5-2.5Zm-27 7-1 2-1.5-.5 2.5-1.5Zm3 27 1 2 2.5-.5.5-1.5 1 3 1.5-.5-1 2q8.91 8.09 7 27l-5.5.5-8.5-11.5 2-1-.5-11.5-5 3-1.5-3.5 6.5-7.5Z"/><path fill="#141015" stroke="#141015" stroke-width="3" d="m435.5 150 5 24 9.5-2.5v-6l9.5-9.5 2.5.5-1 3 2.5 15.5 4.5-1.5 2.5-13.5 1.5-.5-2-1 2-1 .5 1.5 6.5-1.5 1-2v-2l-2-3 2.5-.5 4.5 3.5 7 28 12 14-12 4 .5 15.5 29 13h7l5.5-3.5.5-2.5 5.5-3.5-.5-2.5-5.5-.5.5-5.5 5.5-.5-.5-5.5-5.5-.5 3.5-6.5 1.5-.5 3.5-4.5 22-6q6.06 8.44 23 6l16.5 12.5 4.5 5.5 2.5-.5.5-1.5 1 8 9.5 6.5 32 58q-1.24 13.24 6 18v13l19 55-1 4 4.5 1.5 1.5-.5 1 19-1 4 4.5 1.5 1.5-.5 1 13-1 25 6 16-2.5.5-19.5-17.5-1.5-3.5-5.5-2.5v-2l-5.5-6.5-1.5-.5-2.5-3.5-8-2-18.5-15.5 1-2-20-14-3.5-7.5-8.5-4.5-2.5-7.5-1.5.5-2 5 20.5 34.5 6 1 19.5 17.5 1.5 3.5 30 18 18.5 18.5 1.5 2.5 4.5.5 11.5 14.5 1.5-.5 20 22 4.5 11.5 4-1 1.5 79.5-1 4 4.5 1.5 1.5-.5v12l13 31-1 4 4.5 1.5 1.5-.5 3.5 12.5 2.5.5q-.54 13.54 8.5 17.5l3-1 .5 2.5-.5 1.5-4 1-13.5-7.5-.5-1.5-5.5-1.5-.5-2.5-10-3-1.5 4.5 6 2-2.5 11.5-13 5q-3.33-6.67-15-5l-4.5 3.5q2.75 29.75-9.5 44.5l-15.5-2.5-.5-3.5-5 2-.5-17.5 9.5-20.5 2.5-1.5-1.5-22.5-10.5 1.5q1.76 15.26-6 21v11l-6 8v26l2.5 3.5 9 1h2l16.5-.5.5-2.5 4.5 2.5-4 1 4.5 2.5 1.5-.5q7.92 5.08 5 21l-6 2 1.5 4.5 9.5.5-8.5 17.5-6.5-1.5-3.5-10.5-2.5 1.5-2 39 18 5q-1.76 15.26 6 21l1.5 23.5 10.5-1.5-1.5-4.5-4.5-3.5q-4.25-16.25 3.5-20.5 21.83 4.33 32-3l1 3 9-6 14 6 .5-2.5-2.5-3.5 48.5 17.5 2 6-6 1-1.5 3.5-7 1q-10.83-9.17-35-5l-10.5 8.5q11.75 7.25 15.5 22.5l3.5 1.5 5.5 7.5 3.5 1.5 5.5 7.5 3.5 1.5 16.5 18.5 1.5-.5 11.5 19.5 4 2 3-4 2-1 6 4 4-16 4.5-1.5q1-11-6-14v-19l3.5-2.5 2.5 12.5 7.5 11.5 4.5-1.5.5-1.5 11-5 .5 15.5-6-5-.5-2.5-5.5 1.5 8 10-2 1v7q-10.04 7.46-12.5 22.5l-12.5-.5-7.5-10.5-3.5 2.5.5 2.5 3.5.5 1 5-142.5.5-2.5-17.5-16-19-1.5-29.5q-10.77-1.27-13.5 5.5l.5 1.5-13.5 11.5-1.5 3.5-9.5 7.5.5 1.5-25 23-11.5 5.5-3.5 6.5-10.5-.5 16.5-21.5 4.5-2.5 1.5-3.5 5.5-3.5 1-2-1.5-2.5-10.5 1.5-9 10 .5 1.5-7.5 5.5-8.5 17.5-29.5-.5 9-11-.5-1.5 42.5-34.5-.5-1.5 6.5-4.5-.5-1.5 15.5-7.5-1.5-3.5-10-6h-34l-8-6h-43l-5.5 3.5-.5 2.5-11.5-3.5-.5-1.5-2-1-3.5 2.5-2.5 3.5-9.5 2.5-2.5 3.5-3.5-1.5v-52l-2.5-5.5-1.5.5-2.5 34.5-5.5-2.5-1.5-3.5-4 1-2-25-19 6-6.5-29.5 14.5-.5q-2.19 12.69 4 17l13 1 1.5-13.5-6.5-8.5-11.5-2.5-2-17 2-1v-19q-9-8-6-28l3.5-6.5 14.5.5 1.5 11.5q28.2-4.2 42 6l20-12h10l30-12q23.01-6.99 36.5-23.5l.5-1.5 6.5-4.5-.5-1.5 7.5-5.5 1.5-3.5 4.5-2.5 1.5-3.5.5 9.5-16.5 23.5-11.5 8.5-6.5 9.5-6.5 5.5 1.5 4.5 13.5-5.5 7.5-11.5 10.5-6.5q18.28-17.22 20-51l-2-1 6-6 8-22v-42l-4.5-1.5-1.5.5-2.5-10.5-5-1-2.5 1.5-4.5 9.5-3.5 1.5q-.69 10.19 6 13v19l-6 8-4 15-13.5 19.5-10.5 9.5-2.5 7.5-7 3 1.5-2.5-4-11-21.5-26.5-19.5-14.5-2-13q8.17-8.83 5-29l-7.5-9.5-7-1-17.5 15.5-8.5 12.5-11.5 8.5-7.5 18.5-10.5 6.5-14.5 18.5-24 8-16.5-9.5-11.5-15.5q-7.23-7.27-25-4l-4.5 2.5-2 40 6 20-2.5 5.5-1.5.5 2 1h-3l-.5-1.5-15.5-14.5-3-24-10.5-22.5-6 1-23.5 18.5-2.5 15.5-21.5-17.5 1-2-15-29-.5-23.5-1.5-.5q10.32-4.68 8-22l-11.5-1.5-5.5 3.5q.77 14.27-7 20v32l11.5 25.5 1.5-.5 4.5 6.5 1.5-.5 4.5 6.5 1.5-.5 11.5 13.5 3.5 1.5 2.5 4.5 17.5 11.5 1.5 2.5 5.5.5-1 4 5.5 1.5 1-2 16 8 8.5.5-1 4q16.5-1 23.5 7.5h25l5 3 1.5-.5 5 10 1.5 35.5 4.5.5q3 17-6 22v21l3 4-3 1-.5 3.5-14-22-3.5 1.5-.5 9.5-6-9q-7.67-9.83-27-8l-2.5 1.5-6.5-11.5-3.5-1.5-2-4-1.5-2.5-10.5 1.5 12 14-2.5 2.5h-24q-4.67-11.33-20-12l-2 11-3-5-2.5.5-6 11 3 1 2.5 5.5 1-2 19 2q7-10.5 29-6l-.5 1.5-1.5 2.5-5 3-16-1-2 3-17 3-3-6-3.5.5-.5 5.5-6 1-2.5-1.5-2.5-5.5-1.5.5 1.5-12.5 5.5-1.5-.5-3.5-17.5-3.5 15.5-9.5 26.5-1.5-.5-4.5-40.5-.5 10.5-5.5 38.5-.5.5-1.5 2.5-.5-15.5-17.5-1.5-.5-2.5-3.5-2.5-1.5-5.5-6.5-21-9-7.5 4.5-3 18-6 11v12l12 2-1.5 3.5q-20.2 1.3-27.5 15.5l-1 3 6 2-.5 7.5-3-2q-11.86 5.14-8.5 25.5l6.5 8.5 48.5 2.5-1 4 61.5 1.5 10-6 18-2 16-16 2.5 5.5-4 2-7.5 14.5-2-1q-4.75 5.25-17 3l-11 6-84.5 1.5 5.5 12.5 1.5.5 4.5 6.5 1.5-.5 4.5 6.5 1.5-.5 22.5 30.5 1.5-.5 10.5 12.5 1.5-.5 16 21-16.5.5-2-6q-15.26 1.76-21-6l-1.5 3.5 5 8-16.5.5q.79-11.29-6-15l-1 2-5-8-1.5.5-16.5-24.5-1.5.5-4.5-6.5-1.5.5-16.5-24.5-1.5.5-12.5-15.5-4.5 1.5v12l24 40-6.5.5-21-11-10.5 9.5-3 5 4.5 5.5 17.5 8.5v2l.5 1.5 1-2 5.5 16.5-5.5.5-3-4-9-2-4.5 2.5-2.5 3.5-113.5-.5q1.91-18.91-7-27l1-2h-2l-.5-2.5-1 2-2.5-.5 4.5-8.5 1.5-.5v-5l18-20 6-20-2.5-4.5-1.5.5-.5 1.5-1.5-.5-1-24L99.5 787q-12.39-.61-15.5-10.5l6-4-1-4 1.5-.5 10.5 5.5-1 2 7.5 6.5 1.5-.5 31.5 68.5 5 1 4.5-3.5 3.5-7.5 9.5-3.5 1.5-3.5 7.5-5.5 5.5-11.5q18.5-3.5 26.5 3.5l1.5 2.5 4.5-1.5.5-16.5 15.5-12.5 2-19-12-23v-10h1l1.5 3.5 3.5-8.5-1.5-2.5-4.5.5-.5 5.5-2.5-.5-6.5-16.5-8.5-4.5 5.5-2.5 11 6 1.5-32.5 3.5-3.5 2.5.5 1.5 41.5 8.5-6.5 2-15 6-8v-19l-2.5-3.5-21-2-6.5-3.5-1.5-2.5-22 6-.5-12.5 5.5-9.5 1.5-.5-.5-1.5 1.5-.5-.5-1.5 1.5-.5-.5-1.5 1.5-.5-.5-1.5 1.5-.5-1-2 2-4 .5-19.5 3.5 2.5 4-7 1-3 3-14-2.5-3.5-18 9-3.5-3.5v-57l4.5-8.5 1.5-.5 2-3-.5-1.5 1.5-.5-.5-1.5 1.5-.5 1.5-3.5 1.5-.5 21.5-32.5 6.5-4.5 7.5-11.5 2-1h2l18.5-11.5 5.5-7.5q23.89-7.61 39.5-23.5l9-19-3.5-1.5-26 28-25 7-.5-4.5 17-23-.5-1.5 7.5-5.5 1.5-3.5 3-1 3.5-2.5 19.5-35.5 3.5 1.5 1 23 2.5 2.5 3.5-1.5 6-12v-21l17-66-4-10 6-15-1-2 1.5-.5 2 1 6.5-3.5 8-28-5-12 21.5-40.5 40-24 1 2-2.5.5 12.5 1.5 2.5-1.5 5.5-9.5Zm29.5 27v1h1l-1-1Zm-30 3-15 35 22 1 2-2v-21l6-11-15-2Zm23 24-8 21-6 3h-2l2-3-2-1 2-1v-1l-6 3-2-1v2l-3 2-8-1-10 3h-2l-1 2-16 8-6-1-5 3-25 28q-5 28-18 48 2 20-6 30v55q11 41 35 70 4 24 15 41l24 18 24-10 24 7 3-1 10 1 2-1 2 1 1 3-26 7-6-3-22 6-7 8 3 10 16 14 22 8q42 7 59-12l1-2h2v-1h2v-1h2l32-24 32-33 8-28q2-19-6-28-3-26 6-38 3-22-3-34l-2-1 1-2h-2l1-2-12-20-3-21-1-1-3-3 1-3-4-10-2 5h-1l1-24-4-11 1-2h-1l-3-3 1-7-3-6-1-1-3-1-5-9v-2l-1-1-7-9-33-19-28-7-3 1-1-1h-1l-1-1h-1l-1-1h-1l-2-2-1-1-5-11-3-1Zm-25 21v1h1l-1-1Zm-5 1v1h1l-1-1Zm-19 5v1h1l-1-1Zm127 3-2 4 5 2 1-4-4-2Zm25 47-1 2h1v-2Zm5 20-1 3h1v-3Zm1 6-1 10h1v-10Zm-252 86v1h1l-1-1Zm-6 11v1h1l-1-1Zm301 35-5 3-3 4 1 5 5 3 13-6-1-5-10-4Zm-241 60-2 3 3 1 1-2-2-2Zm93 30v1h2l-2-1Zm7 0v1h1l-1-1Zm127 83-2 4q4 11 23 8l1-4-14-2-1-1 2-1 1-3-10-1Zm-266 6-4 2-1 2 16 2 1-4-12-2Zm-129 9-1 3h1v-3Zm473 3-2 11 17 1 1-10-16-2Zm43 1-2 3 3 1 1-2-2-2Zm12 12-2 3 15 13 1-2-14-14Zm-463 29-2 3 1 27h4l1-2-1-27-3-1Zm-6 36-2 5 5 1 1-4-4-2Zm391 7-2 1-1 2-3 2-3 4-11 8-3 7-19 17-9 3-5 6-2-8-3-1-4 12-8-6-2 9-30 15-30 9-1 2-4 2-1 4 4 1 1 3q5 5 19 3v5l49 1 11 6h54v5l11 1 7-18-6-9v-46l-6-11-1-27-2-2Zm12 0-2 3 3 1 1-2-2-2Zm6 17q-6 7-3 23l11 1 1-4-2-2q-6-5-4-16l-3-2Zm-445 12-2 5 5 1 1-4-4-2Zm5 12 2 12h3l5-9-10-3Zm460 0-5 3 2 3 14-1 1-2-12-3Zm-219 4-1 2h1v-2Zm1 7-1 8h1v-8Zm-41 7-3 4 11 8v-3l-5-5-1-3-2-1Zm-85 6-2 1-1 4 17 1 1-4-15-2Zm162 30-3 5v36l5 1 1-40-3-2Zm-293 12-4 11 5 1 1-11-2-1Zm327 0-1 3-4 3-2 5 21 11 3 6-2 2-46 2 2 4 56-1 2-7 10-5 2-3-1-14-17 6-14-4-1-2-8-6Zm49 12-2 5 9 1 3 5 3 1 3-1v-1l6-4q8 9 29 6l1-10-52-2Zm74 0q-7 6-4 21l-5 3h-55l-4 2-2 3 75 1q-6 3 0 6l3-5q2-13-6-15v-14l-2-2Zm-31 72-1 2 1 4 3-2v-2l-3-2Zm-319 6-2 3-6 5 2 4 8-1 2-9-4-2Z"/><path fill="#141015" stroke="#141015" stroke-width="3" d="M527.5 318q14.78-3.28 19.5 3.5l.5 1.5 1.5-.5.5 1.5 2 1 9-1 3 5 1-4 2.5 4.5-33 2 3.5 10.5 3 2 1.5-.5.5 1.5 1.5-.5.5 1.5 2.5.5 1.5 2.5 6.5 5.5 3 8-2.5 4.5q-5.17 6.33-18 5l-5-6-4.5 1.5-3.5 4.5-8.5-3.5-3.5-7.5-7-1-2 6-5.5-3.5-1.5-2.5-4.5 1.5 1.5 4.5 4.5 3.5-2.5.5-9.5-4.5 5-13-3.5-4.5-7.5-3.5 3.5-8.5 4 1 1-2 1.5.5 2.5-3.5 2.5-1.5-2-1q6.77-7.73 23.5-5.5l11-6Zm2.5 24-2 5 5 1 1-4-4-2Zm20 25v1h1l-1-1Zm-10 2v1h5l-5-1Zm-167.5-45q33.42-4.92 47.5 9.5l.5 1.5 2-1 2 3 1.5-.5.5 1.5 1.5-.5.5 1.5 1.5-.5.5 1.5 2.5.5 1.5 2.5 2.5 1.5 1.5 2.5 3.5 2.5 2 17-1 2 1 15-1 3 1 3-2.5.5-4.5-2.5-6.5-15.5-13.5-.5 3-5-2.5-.5-4.5 3.5-1.5 2.5-2.5-1.5-.5-1.5-6-3-.5 2.5 2.5 3.5-8.5 1.5q1.75 8.75-3.5 10.5l-3.5-.5 1-3-9.5-3.5-2 1-1-2-1.5.5-.5-1.5q-16.2-.8-24.5-9.5l-1-7 3-1-3-1 4.5 1.5 29.5-13.5-1.5-8.5-22.5 1.5-.5 4.5-4.5-3.5 8.5-6.5 3 1v-1l-1.5-.5q5.9-7.6 22-5l-15-1 .5-1.5Zm16.5 2v1h2l-2-1Zm26 6v1h1l-1-1Zm-46 1v1h8l-8-1Zm17 6-1 2h1v-2Zm56 15-1 5h1v-5Zm1 8-1 3h1v-3Zm-51 4-2 5 5 1 1-4-4-2Zm49 21v1h2l-2-1Zm-126.5-38 2.5 1.5-1.5 2.5-2.5-1.5 1.5-2.5Zm-6 13 1.5.5-.5 1.5-1.5-.5.5-1.5Zm130 76 15.5 5.5v2l.5 1.5 10.5 2.5.5 3.5 1.5-3.5-.5-1.5 4.5-1.5.5-2.5 1.5-.5 3.5-4.5 3.5 5.5-3.5 5.5-8.5 1.5-4.5 5.5q-4.89 6.61-18 5l-10.5-6.5-2-6 6-9-.5-2.5Zm39.5 6-1 2h1v-2Zm-2 2v1h1l-1-1Zm-4 1v1h2l-2-1Zm-217.5-8 .5 2.5-2-1 1.5-1.5Zm178 47 4 1 27-1 2 1 2-1 1 2 1.5-.5.5 1.5q12.83 10.67 37 10l5-1 2.5 4.5-10.5 1.5h-2l-5.5 2.5 2 3-1.5.5-10.5-4.5 2-1-2.5-.5-.5 3.5 1.5 2.5-53-1-13 1-5.5-3.5-1-3 7.5-10.5 3.5-2.5.5-1.5 1.5.5.5-1.5 1.5.5.5-1.5 1.5.5.5-1.5Zm73.5 16v1h1l-1-1Zm-11 4v1h1l-1-1Zm-57 2v1h1l-1-1Zm38.5 20 3.5.5-.5 2.5-2 1-1-4Zm-66 115 2.5 1.5-2.5 3.5-2.5-.5 2.5-4.5Zm23 29 2.5 1.5 2 4-2.5.5-2-6Zm295 24 3.5.5q2.25 12.25-5.5 14.5l-.5-12.5 2.5-2.5Zm-596 5 5 3 1.5-.5 5.5 8.5 3.5 1.5 2 5-5.5 1.5-6.5-3.5-5.5-15.5Zm246 1 7.5 5.5-2 1-.5 1.5-3.5-1.5 3-1-5-3 .5-2.5Zm455 11 6.5 1.5.5 2.5 11.5 5.5.5 3.5 8.5 5.5-2.5.5-6.5 1.5 1.5 4.5 1.5.5 3 6-1.5-.5-4.5 1.5 1 5-1 4 12 5 1.5 2.5 6.5.5-2 8-21.5 21.5-2.5-.5-1.5-5.5-4-3-1.5.5-17-24 3.5 2.5 18.5-1.5 2-4v-2l-1.5-4.5-4.5-.5-2-5 8-2-1.5-10.5-4 1h-2l-14 11q-14.88-1.87-20 6l-.5-2.5 5.5-7.5 4.5-2.5 1.5-3.5 4.5-3.5 11.5-16.5 2-1Zm-2.5 7-3 6h5l1-5-3-1Zm22 42-1 4 6 4v4h4v-1l2-1v-3l-11-7Zm-18 6-1 4 4 2 5 6h3l-3-5 8-1 1-4-17-2Zm-681.5-54 8.5 2.5 1 3-1.5.5-8-6Zm32 0 6.5 2.5-2.5 3.5-3.5-1.5-.5-4.5Zm219 0q14.05-1.55 19.5 5.5l-9.5.5-10-6Zm334 0 5.5 2.5-21.5 39.5-2.5-.5 1.5-33.5 17-8Zm14 0 3.5 2.5-2.5 3.5-3.5-2.5 2.5-3.5Zm8 0 1.5.5-.5 1.5-1-2Zm3 0q11.75-1.75 16.5 3.5l-.5 2.5-14.5-.5-1.5-5.5Zm18 6 10.5 3.5-.5 2.5-10-6Z"/><path fill="#141015" stroke="#141015" stroke-width="3" d="m812.5 750 4.5.5-1 2 2.5 3.5-8.5-2.5 2.5-3.5Zm7 0q13.37-1.38 18.5 5.5l-10 1-.5 2.5-1.5-2.5 2-1-8.5-5.5Zm63 6 3.5.5 2 6-1.5-.5-6.5-.5 2.5-5.5Zm-66 12 5.5 3.5q-3 5.5-6-1l.5-2.5Zm78 3 2 4 6.5 4.5-8.5.5v-9Zm-829 1 .5 2.5L53.5 804l-5.5 1.5 1.5 8.5 3.5 1.5-10.5 1.5-1.5-7.5 1-5-2-1 4-2 9-11v-2L65.5 772ZM44 803l-1 2h1v-2Zm785.5-22 4.5 2.5-.5 2.5-5.5-3.5 1.5-1.5Zm83 14 2 3-3.5-1.5 1.5-1.5Zm-622 3 3.5 2.5 2 3-5.5.5-2.5-3.5 2.5-2.5Zm0 12 11.5.5-2 5 .5 1.5-1.5-.5-2.5 5.5-2 1-1-7-5.5-3.5 2.5-2.5Zm81 0 6.5 2.5-2.5 3.5-3 1-1-7Zm-317 6 17 9 1-2 3 6 3.5 1.5 11 27-6.5.5-4.5-3.5-3.5-8.5q-14.88 1.87-20-6l-1 2-1-8-3.5-.5-5-11 3.5-1.5 4 1 2-6Zm819 0 2.5.5-.5 5.5-5.5-.5 3.5-5.5Zm-441 24 6.5 1.5 5 7 1.5 15.5q5.41-7.59 20-6l20.5 12.5-2.5 11.5q-6.43-10.07-27-6h-2l-4.5 1.5-.5 10.5-5.5 1.5.5 4.5 2.5.5-3 2 1.5 9.5h41l5.5 3.5-.5 3.5-4-1-1.5 4.5 6 5q-9.89 6.61-6.5 26.5l-42.5-.5-2.5-6.5-2.5-1.5v-46l-6-8 .5-45.5Zm410 0h6l21 12h12l3-5 7.5 4.5 1.5 3.5 8 3 4-2 .5 3.5-2.5 4.5-3.5.5-1.5 15.5.5-1.5-.5-2.5-9-6h-28l-3-3-1.5.5-5.5-7.5-3.5-1.5-8-16 2.5-2.5Zm41.5 12-2 6h6v-4l-4-2Zm-61.5 6 5.5.5 6.5 9.5 5.5 4.5-.5 3.5q-12.61-.89-17.5-9.5l.5-8.5Zm-699 7 2.5 1.5-5.5 3.5-.5-2.5 3.5-2.5Zm-42 5 8.5 1.5-1.5 4.5q-13.33-1.33-16 8l-.5-5.5 2.5-3.5 7-5Zm32 6 .5 2.5-5.5 3.5-.5-2.5 5.5-3.5Zm-14 6 2.5.5-2 5 .5 1.5-4.5 1.5-.5 3.5-4.5-1.5 8.5-10.5Z"/><path fill="#141015" stroke="#141015" stroke-width="3" d="m474.5 882 5.5 3.5-.5 2.5-5.5-3.5.5-2.5Zm17 1 .5 19.5-3-2-2-9 4.5-8.5Zm343 24 5.5 2.5-.5 2.5-5.5-3.5.5-1.5Zm7 5 13.5.5-4.5 5.5-4.5-1.5-1.5-2.5-3-2Z"/><path fill="#485260" stroke="#485260" stroke-width="3" d="m438.5 149 13 7 4-2 .5 4.5-8.5 3.5-9-11-1.5-.5 1.5-1.5Zm88 0 8.5 1.5-1 4 5.5 1.5 1-3 6.5 3.5-1 5 6 11-6.5 1.5-15-6-2.5 1.5 6 9-12 3 6 11q-8.29 6.71-6 24l6 10-2.5.5-26.5-10.5 2-1-2-3 17-10-17-26 5-7-12-3 .5-3.5 11.5-2.5-2-5 1.5.5 25 6 4.5-2.5-6.5-10.5Zm-16 215 2.5 1.5 2.5 3.5 5.5 2.5-13.5.5-8.5-5.5 5.5-1.5 5 1 1-2Zm-118 2 3.5 2.5-2.5 3.5-3.5-2.5 2.5-3.5Zm138 0 3.5 2.5-.5 3.5-7.5-.5 4.5-5.5Zm76 18 14 6q17.75 22.25 44.5 35.5l.5 3.5-5-3 .5 1.5 7.5 10.5 3.5-.5-2-5 4.5 1.5 5.5 3.5-2 1 6 13-12.5-11.5-22.5-13.5 2-1q-28.5-13.5-45-39l.5-2.5Zm36.5 30-1 4 6 2v-3l-5-3Zm52.5 41 .5 5.5-3.5 1.5-4.5-5.5 7.5-1.5Zm-33 133 3.5 2.5-.5 4.5-5.5-1.5 2.5-5.5Zm-375 16 .5 7.5-5.5 2.5-.5-2.5 5.5-7.5Zm10 2 2.5.5-.5 19.5q-7.4-3.6-5.5-16.5l3.5-3.5Zm299 6 10.5 6.5-1 4 .5 1.5-12.5-9.5 2.5-2.5Zm-265 6 10.5 2.5-2.5 3.5-9.5-1.5 1.5-4.5Zm348 12 10.5 2.5-.5 4.5-10-7Zm-391 19 6.5 11.5-4-1-2.5-10.5Zm347 0 .5 4.5-11.5 14.5-.5-2.5 11.5-16.5Zm51 11 9.5 2.5-.5 5.5-1-2-10 2-.5-5.5 2.5-2.5Zm-39 4 .5 2.5-5.5 10.5-.5-5.5 5.5-7.5Zm-444 2 1.5.5-1.5 2.5-10 3v-1l10-5Zm17 6 7.5 1.5-.5 3.5-3.5 2.5-1.5 3.5-1.5-3.5 1-3-1.5-4.5Zm541 0q11.48-1.48 14.5 5.5l-21.5.5 3-4 4-2Zm-78 1 .5 5.5-5.5 10.5-.5-5.5 5.5-10.5Zm-450 5 6.5 1.5q1.94 15.94-6 22v13l-9.5 11.5q-6.5-4-2.5-18.5l6-11q-2.84-13.34 3.5-17.5l2-1Zm405 0-2 3-1-2 3-1Zm87 0 10 6 2.5-1.5-3.5 7.5-5.5-.5 2-4-2-1-3.5-6.5Zm-36 7 .5 5.5-5.5 10.5-.5-5.5 5.5-10.5Zm115 3 7 8-7.5-3.5.5-4.5Zm-669 2 2.5 6.5-1.5-.5-4.5 1.5-.5 8.5-2-4-3.5-2.5 9.5-9.5Zm217 0 7.5 3.5-.5 4.5-7-8Zm241 0 4.5.5-11.5 5.5 3-4 4-2Zm144 1 .5 5.5-5.5 10.5-.5-5.5 5.5-10.5Zm-60 6 .5 5.5-5.5 10.5-.5-5.5 5.5-10.5Zm-102 5 4.5.5-14.5 5.5v-1l10-5Zm245 0 9.5 5.5-1.5.5-8-6Zm-445 6 13.5 5.5-5.5.5-8-6Zm338 1 .5 5.5-5.5 10.5-.5-5.5 5.5-10.5Zm-319 5q13.37-1.38 18.5 5.5l-11.5.5-7-6Zm194 0 4.5.5-14.5 5.5v-1l10-5Zm155 0 7.5.5-1 4 .5 1.5-8.5-.5 2-4-.5-1.5Zm12 0 6 3 1-2 2.5 4.5-9.5.5.5-1.5-.5-4.5Zm-72 1 .5 16.5-6.5.5-4.5-3.5-1-3 1.5.5 3.5-1.5.5-1.5 1.5-.5.5-1.5 1.5-.5 2.5-5.5Zm-516 4 .5 3.5-5.5 3.5-11.5-5.5 16.5-1.5Zm24 0 .5 11.5-4.5 1.5-3.5-11.5 7.5-1.5Zm227 1 7.5 3.5-.5 2.5-5 1-2-7Zm103 0 10.5.5-17.5 5.5 3-4 4-2Zm124 0 4.5.5-3.5 4.5-1.5.5-10.5 24.5-4.5-1.5q-1.63-12.13 6.5-14.5l2.5-1.5 6.5-12.5Zm125 0 14.5 5.5-4.5.5-10-6Zm22 4 6.5 2.5-1 4 3.5 1.5 7-6 .5 1.5-10.5 14.5-1.5-4.5 1-4-10-7 4-1 .5-1.5Zm-95 2 4.5 1.5-.5 4.5-5.5-1.5 1.5-4.5Zm-590 1 .5 7.5-7.5 4.5-3.5-1.5 8-5 2.5-5.5Zm546 0 .5 17.5q7.94 6.06 6 22h-1l-11-22v-7l5.5-10.5Zm55 4 5.5 4.5 1 2-3.5.5-3-7Zm-168 1 1.5.5-11.5 5.5v-1l10-5Zm-330 1 17.5 45.5h-1l-17-35 .5-10.5Zm87 5 2.5 1.5 3.5 10.5 12-5 23.5 22.5 2 3-2.5 3.5-3.5-.5 1-4-16.5-7.5-1.5 9.5 1.5 2.5-15.5-.5 2-12-7.5-17.5-3.5 1.5-1.5 2.5-2.5 1.5-2.5 5.5-.5-5.5 9.5-11.5Zm515 0-2 3-1-2 3-1Zm-189 4 .5 2.5-3.5 5.5-4.5-.5 7.5-7.5Zm169 1 .5 1.5h-1l.5-1.5Zm-126 6 5.5 4.5 1 2-4.5.5-2-7Zm-55 5 1 2 5.5.5-3.5 5.5-10 1 1-4 6-5Zm103 1 4 1h2l2.5.5-2.5 4.5-1-4-3 5-8.5-2.5 2.5-3.5 4-1Zm90 0 11 9 1.5-.5-4.5-1.5-2.5.5 8 11-5.5.5-10.5-17.5 2.5-1.5Zm-517 2 .5 5.5-5.5 10.5-.5-5.5 5.5-10.5Zm-210 3 1 2 1.5.5-2 4-.5 2.5-3-1-2.5 1.5.5 10.5 5.5-2.5.5-4.5 3 1 2.5-1.5v5l16 16 20 40q-1.86 15.36 4 23L112.5 874l-5 2L88 858.5q9.3-7.7 26-8 2.33-20.83-11-26l5-9-3.5-5.5h-15l-16-6-1.5 6.5 18 40h-1q-6.89-23.61-23-38v-39L77.5 760Zm2.5 20-2 4h2l5 7 5 1v-3l-4-4-1-1-5-4Zm-6 12-2 5 12 1v-2l-10-4Zm519.5-31 1 7 1.5.5-.5 1.5-33.5 26.5-7.5 13.5-13.5-.5 15-7 2-10-2.5-.5-22 12 .5-1.5-.5-4.5-5.5 1.5 1 4-11.5.5-.5-2.5 2-3-2-1 71-31 1.5-2.5 3.5-1.5.5-1.5ZM580 774l-10 12h4l4-5 4-3v-3l-2-1Zm-38 18-2 6h4l2-5-4-1Zm177.5-29 .5 5.5-5.5 10.5-.5-4.5 5.5-11.5Zm-622 5 23 6 14.5 11.5-2.5 1.5-6-1-.5 2.5 3.5 4.5 5.5 4.5 3 8-3.5-2.5-4.5-3.5-.5-1.5-3.5.5 3.5 12.5 3.5 2.5 5 13h-1l-2.5-5.5-3.5-2.5-23.5-42.5-2.5-1.5-.5-1.5-1.5-.5-.5-1.5-5-3Zm512 0 2.5.5-3.5 5.5-2.5-.5 3.5-5.5Zm225 0 12.5.5-1 4 .5 1.5q-10.25 2.25-12.5-3.5l.5-2.5Zm-380 12q11-2.5 13.5 3.5l-.5 9.5-4-1-3 5-4.5 2.5.5 3.5 1.5.5-7 1 1 2-2-1q7.83-6.67 6-23l-1.5-2.5Zm151 0 .5 2.5-17.5 19.5-8 6-9 2-1.5-2.5 8.5-10.5 27-17Zm235 3 2 3-4.5.5 1.5 2.5q-5.5-3 1-6Zm-1 8 5 1 2.5.5-1 4 8 7-2.5 2.5-13.5-13.5 1.5-1.5Zm-683 1 5.5 2.5-1.5 3.5-4.5-1.5.5-4.5Z"/><path fill="#485260" stroke="#485260" stroke-width="3" d="m183.5 792 2.5 5.5-5 1-1 4 4 3 3 10-1.5.5-9-6-2 3-13 4-18.5-4.5-1-2 14-2-.5-2.5-5.5-4.5-2-4 1.5-.5 18.5 10.5 1.5 2.5 2.5-1.5 11.5-16.5Zm39 0 1.5.5-14.5 12.5-4.5-1.5 1.5-3.5 16-8Zm107 0 14.5 11.5-4.5.5-4.5-2.5-5.5-9.5Zm43 2 5.5 7.5-6.5 2.5.5-1.5.5-8.5Zm104 5 7.5 6.5 2 11-1.5-.5-1.5-.5-4.5-11.5-2.5 1.5-2.5 12.5-5.5-8.5 8.5-10.5Zm231 2 2 9 10.5 2.5-2.5 3.5-2.5.5 5 16h-1l-6.5-20.5-11.5-2.5 2.5-3.5 3.5-1.5-4-1 4.5-2.5Zm-392 3 3.5.5-1 4v2l-.5 4.5-3-5-2.5-.5 3.5-5.5Zm15 4 13.5 2.5q-3.02 6.98-14.5 5.5l.5-1.5-1-4 1.5-2.5Zm122 0 .5 1.5h-1l.5-1.5Zm-176 1 7.5 1.5-2.5 8.5-4.5-2.5 2-1-2.5-6.5Zm146 1q12.68 9.32 15.5 28.5l-2.5 1.5q-12.36-9.14-15.5-27.5l2.5-2.5Zm4.5 12-1 4 6 2v-3l-5-3Zm-127.5-5 1.5 10.5-5.5.5-1.5-3.5 5.5-7.5Zm7 0 5.5 7.5-6.5 3.5.5-1.5.5-9.5Zm563 3 1.5 2.5-1.5 5.5-5.5-2.5 2.5-3.5 3-2Zm-497 1 4 1 2-1-1.5 2.5-2.5 4.5-2-7Zm-205 1 5.5.5-6.5 9.5-20 13-8.5-12.5 2.5 1.5 4-1 4 1 3-1 16.5-8.5-.5-2.5Zm582 0 2.5.5-12.5 5.5v-1l10-5Zm38 0 15.5 5.5-4.5.5-11-6Zm-427 5 5.5 2.5-1.5 4.5-4.5-1.5-2-4 2.5-1.5Zm445 1 15.5 5.5-4.5.5-11-6Zm74 0 4.5.5-8.5 5.5.5-1.5 3.5-4.5Zm-530 6 4.5 2.5-2.5 3.5-3.5-1.5 1.5-4.5Zm474 0 15.5 5.5-5.5.5-10-6Zm-407 2 6.5 3.5 3 11h-1l-5.5-9.5-5 1-.5-2.5 2.5-3.5Zm460 4 5.5 2.5-2.5 3.5-3.5-2.5.5-3.5Zm-153 6 2.5 1.5 2 4-7.5 1.5-.5-3.5 3.5-3.5Zm74 0 7.5 3.5 1 2-8 2 18.5 26.5q6.26 12.74 29.5 8.5l-.5 5.5-17.5 1.5 1 4-1 4 1.5 2.5-1.5.5-.5 7.5-7-8 1.5-.5-1.5-11.5-4.5.5-.5 7.5-9-13-12.5-8.5q-5.67-16.83-19-26l10.5-7.5 2.5 4.5-2 1 16.5 25.5 13 10 .5-3.5-4-3-20.5-29.5-1.5-.5 1.5-2.5 6-3Zm19.5 36 1 5 4 1v-2l-5-4Zm48.5-36 15.5 5.5-5.5.5-10-6Zm19 0 3.5 2.5-2.5-1.5-3 2 2-3Zm-477 3 .5 8.5-2.5.5-4.5-5.5 6.5-3.5Zm-12 3 1.5.5-2.5 3.5-9 2v-1l10-5Zm440 0 3.5.5 2.5 3.5 3.5 1.5-10.5 1.5-.5-5.5 1.5-1.5Zm49 0 3.5 2.5-.5 3.5-5.5-.5 2.5-5.5Zm-440 3 10.5 3.5-8.5 5.5-2-9Z"/><path fill="#485260" stroke="#485260" stroke-width="3" d="m810.5 856 7.5 6.5 9.5 10.5 5.5 2.5-3.5 1.5-15.5-11.5-3.5-9.5Zm-743 2 4.5 1.5-3.5 10.5-2 1-1.5-7.5 2.5-5.5Zm282 0 33.5.5q-6.05 8.45-23.5 5.5l-10-6Zm120 0q8.75-1.75 10.5 3.5l1.5 2.5 4-1 .5 3.5-3.5 2.5-13-11Zm178 0 6.5 1.5-1.5 4.5-5.5-.5 1-4-.5-1.5Zm-221 1q7.39 6.11 5.5 21.5h-1q-7.31-6.81-4.5-21.5Zm-349 6 .5 7.5-6.5 3.5.5-1.5 5.5-9.5Zm763 2 5.5 10.5-4-3-3-5 1.5-2.5Zm-540 1 5.5 9.5-4-3-3-5 1.5-1.5Zm558 0 16.5 2.5-10.5 5.5-6.5-3.5-1-3 1.5-1.5Zm-733 2-.5 1.5-8.5 15.5-8 1-.5-2.5 17.5-15.5Zm368 0 4.5 1.5-.5 12.5-4-2-1.5.5 1.5-12.5Zm79 0 11.5 5.5-1.5.5-10-6Zm311 0 12.5 5.5-2.5.5-10-6Zm-625 3 2 3-3.5-1.5 1.5-1.5Zm282 2 3.5 2.5 2 27-4.5 1.5-13-27-5.5-2.5 9.5-.5 5 12 2.5-.5.5-12.5Zm-31 1 11.5.5-16.5 6.5-.5-3.5 5.5-3.5Zm374 0 4.5 1.5-1.5 4.5-4.5-1.5 1.5-4.5Zm-409 1 11.5 5.5-.5 4.5-11.5-8.5.5-1.5Zm-228 1 12.5 17.5-1.5 3.5-10.5-14.5-.5-6.5Zm591 2 2.5 1.5-1.5.5-1-2Zm-208 1 6.5 3.5-7.5 3.5-.5-2.5 1-3 .5-1.5Zm-550 1 3.5.5 1 7-2.5-1.5-3.5-1.5 1.5-4.5Zm604 0 6.5 2.5-.5 4.5-13.5-1.5 7.5-5.5Zm181 4 8 14 17-6-3 4-14 8-8-20Zm-360 1 3.5 2.5 2 10-2.5.5-5.5-11.5 2.5-1.5Zm-72 2 3 5 1.5.5-4.5 10.5v-16Zm-342 5 7.5 5.5-2.5.5-5.5-3.5.5-2.5Zm528 0 1.5.5-7 5-.5 2.5-.5-4.5 6.5-3.5Zm-342 3 2 3-3.5-1.5 1.5-1.5Zm-16 2 1.5 2.5h-1l-.5-2.5Zm4 3 11.5 21.5-2.5.5-20.5-11.5 5.5-.5 10 5 .5-1.5-6-10 1.5-3.5Zm395 2 1.5.5-3.5 5.5-5 3-.5-1.5 7.5-7.5Zm-149 2 5.5 3.5-.5 2.5-3.5-1.5-1.5-4.5Zm96 0 1.5.5-9.5 5.5 2-3 6-3Zm272 0 3.5.5 6 9-2.5 2.5-9.5-9.5 2.5-2.5Zm-542 4 12.5 15.5-1.5.5-11-16Zm-103 2 1.5.5-1 3 5 4 3 4-2.5.5-9.5-7.5-1-2 4.5-2.5Zm163 0 5.5 3.5-.5 2.5-5.5-3.5.5-2.5Zm36 1q9.63 10.38 5.5 34.5l-5.5.5v-35Zm258 0 17.5 24.5h-1l-.5-1.5-4-3-1.5.5-5.5-7.5-3.5-1.5-2-4 .5-7.5Zm155 4 12.5 1.5-1.5 11.5-9-6-3 11-8.5-6.5-2-6 2.5 1.5 8.5-.5-2-5 2.5-1.5Zm-228 2 1 4 3-4 1.5.5-4.5 6.5-1-2-2.5-.5 2.5-4.5Zm-215 5 3.5 1.5 2 10-2.5.5-3-12Zm89 1 .5 22.5-5.5.5-.5-12.5 5.5-10.5Zm-239 9 5.5 9.5-4-3-1.5-6.5Zm319 1 .5 1.5-8 7 2.5-5.5 5-3Zm-267 1 4.5.5 3 9h-1l-6.5-9.5Zm319 0 2.5.5-7.5 9.5-.5-6.5 5.5-3.5Zm-215 6 5.5 3.5-.5 2.5-5.5-.5.5-5.5Zm293 0 2.5.5-2.5 5.5-5.5-.5 1.5-3.5 4-2Z"/><path fill="#779083" stroke="#779083" stroke-width="3" d="m442.5 150 7.5 3.5 1 2-1.5.5-7-6Zm64 210 3.5 2.5-.5 3.5-5.5-1.5 2.5-4.5Zm136 54 5.5 3.5-.5 2.5-5.5-3.5.5-2.5Zm18 12 9.5 5.5-4 1-.5 1.5-5-8Zm1 168 4.5 1.5-.5 17.5-4-1-1.5.5 1.5-18.5Zm-54 24 10.5 2.5-2.5 3.5-9.5-1.5 1.5-4.5Zm-324 6 4.5 1.5-1.5 4.5-4 3-.5-7.5 1.5-1.5Zm364 2 .5 4.5-11.5 22.5-.5-4.5 11.5-22.5Zm18 3-.5 1.5-4.5 9.5-.5-4.5 3.5-5.5 2-1Zm9 1 11.5 5.5-8 1 2 5-5.5.5-2.5-9.5 2.5-2.5Zm-374 6 2.5.5 3 10h-1l-4.5-10.5Zm347 27 1 2-3.5.5 2.5-2.5Zm-346 3 2.5 1.5 3 5-4-1-1.5-5.5Zm340 4 .5 2.5-5.5 7.5-.5-2.5 5.5-7.5Zm45 8 3.5 1.5-6 16-.5 13.5-4-1-1.5 5.5 4.5.5 1.5-.5-9.5 12.5-2.5-1.5q-1.94-15.94 6-22v-13l5.5-10.5 3-1Zm57 3 1 3 2.5.5-3 2-.5-1.5-5 10-.5-8.5 5.5-5.5Zm-530 3 4.5.5-2.5 16.5-5.5-11.5 3.5-5.5Zm110 5 8.5 6.5-.5 1.5-9.5-6.5 1.5-1.5Zm301 0-1 4-7 3 3-4 5-3Zm92 1 3.5.5 5 16q-9.02 6.98-5.5 26.5l-5.5-3.5-.5-3.5-5 1-.5-1.5 6-11v-22l2.5-2.5Zm21 7 2 15 3.5 1.5-15.5 5.5 2.5-5.5 7.5-16.5Zm-388 5 4.5 1.5 2 4-2.5 1.5-8.5-1.5 4.5-5.5Zm12 0 10.5 3.5-.5 2.5-10-6Zm455 3 5.5 5.5-11 11-3.5 4.5-12.5-1.5 21-13 .5-6.5Zm-217 3 4.5.5-14.5 5.5v-1l10-5Zm152 0 3.5.5 4 5-9.5.5.5-1.5 1.5-4.5Zm-631 6 3.5 1.5 8 20-3.5 2.5-8.5-14.5.5-9.5Zm71 0 7.5.5-1 3 1.5 2.5-7 1-1-7Zm585 0 11.5 5.5-1.5.5-10-6Zm-638 4 5.5 3.5-1.5 4.5-4.5-1.5.5-6.5Zm45 2 .5 1.5h-1l.5-1.5Zm468 0 2.5 6.5-5.5 10.5-1-5-5 3-1.5-2.5 10.5-12.5Zm98 0 8.5.5-6.5 5.5-2-6Zm-582 3 1.5 3.5-2.5 5.5-9.5-5.5 3.5-1.5 2 1 5-3Zm391 3 3.5.5-14.5 5.5v-1l11-5Zm187 0 4.5 1.5-3.5 10.5-2.5-10.5 1.5-1.5Zm41 0 2.5 1.5-1.5-.5-1-1Zm-49 2 .5 3.5-17.5 35.5-1-5-2.5-.5 2.5-4.5 1 4 17-33Zm78 2 .5 1.5-5.5 8.5-.5-2.5 5.5-7.5Zm-629 1 4 1 1.5-.5-1.5 6.5-4.5-1.5.5-5.5Zm-42 1 17.5 7.5-1.5 4.5-10-2-1.5.5-4.5-10.5Zm701 5 .5 4.5-4.5 2.5-1.5-4.5 5.5-2.5Zm-217 2 1.5.5-.5 5.5-2-1-21 38-1-2-13 7-1.5-1.5 14.5-14.5 1 3 5.5-2.5-.5-3.5-5 2-1-2-28 20-22 22 2.5-3.5 9.5-15.5 19.5-12.5 4.5-5.5 9-8 17.5-5.5-.5-3.5-5.5-.5 3.5-5.5 6.5-1.5 2.5-7.5 4-2Zm-107 4 1.5.5-1.5.5v-1Zm-329 1 5.5 2.5-.5 3.5-5.5-3.5.5-2.5Zm105 0 2.5 1.5 6 16v9l-21.5 9.5-2.5-6.5 8-22 7.5-7.5Zm.5 12-10 12 1 6 10-2 1-14-2-2Zm418.5-12 3.5 2.5-.5 4.5-4-1-1.5.5 2.5-6.5Zm23 0 4.5 1.5-1.5 10.5-4.5-1.5 1.5-10.5Zm-91 1 11.5 22.5v21l-3-2q-6.17-7.83-3-25l-5.5-16.5Zm-559 1 1 4 2.5.5-2 1-1 13 2.5 3.5-8.5 1.5-3.5 4.5-2.5-1.5.5-4.5 5.5-1.5-.5-4.5-1.5-.5 7.5-15.5Zm745 1 6.5 3.5-1 4 .5 1.5-10.5-5.5 4-1 .5-2.5Zm-204 2 4 1 1.5-.5-1.5 6.5-4.5-1.5.5-5.5Zm180 6 1 2 9.5 4.5-5 1-.5 1.5-7.5-6.5.5-1.5 2-1Zm-120 1-.5 1.5 1 4-4.5.5-2-3 6-3Zm-528 6 5.5 3.5 3.5 7.5 8.5 4.5-7.5 12.5-4 1-.5-2.5 5-3 1-2-7.5-8.5-1.5-.5-2.5-12.5Zm157 0 12.5 4.5-.5 1.5-2 1-5-1-.5 4.5.5 1.5-6.5-3.5 1.5-8.5Zm-99 3 1.5 2.5h-1l-.5-2.5Z"/><path fill="#779083" stroke="#779083" stroke-width="3" d="M103.5 768h11l22.5 11.5-2 1 19.5 16.5.5-1.5-2.5-3.5-1.5-.5-1-4 4.5-1.5 4.5 5.5-3 1 1.5 5.5 4-1 4 6 3 1 4.5-3.5 4.5-7.5 4-1-4.5 5.5-6.5 12.5-2.5-1.5-1.5-2.5-32.5-19.5-3.5-5.5-2.5-1.5-1.5-2.5-23-9Zm630 0 4.5 1.5-12 28-1.5 12.5-4.5-1.5v-11l13.5-29.5Zm-511 1 5.5 11.5-1.5-.5-2.5-1.5-1.5-9.5Zm497 0 .5 11.5-9.5 23.5-2 1-.5-7.5 11.5-28.5Zm-640 11 10.5 9.5-.5 2.5-11.5-9.5 1.5-2.5Zm761 4 5.5 4.5-1.5 3.5-4.5-2.5-2-3 2.5-2.5Zm-613 1-.5 1.5-2.5 5.5-3 1v-3l1.5.5 2.5-4.5 2-1Zm-17 1 5.5 2.5-4.5 3.5-1-6Zm331 6 4.5.5-3.5 5.5-2.5-.5 1.5-5.5Zm104 0 2.5.5q-.25 13.25-9.5 17.5l-2.5 1.5 1 4-15.5.5 2-3 15.5-8.5 6.5-12.5Zm-459 3 11.5 6.5 6 16-2.5.5-10.5-2.5 1-10-5.5-1.5-1 5-4-6-1.5-.5 2.5-4.5 3.5-.5.5-2.5Zm390 2 .5 2.5-5.5 6.5-1.5.5-.5 4.5-5.5-2.5 5.5-7.5 7-4Zm-450 1 17 15 13.5 3.5-1 4 5.5 1.5 1-2 5.5 3.5-1.5 2.5-16 8-1.5-5.5v-2l-6.5-8.5-4-2-.5 2.5 7 10-1.5 5.5-5.5-3.5v-9l-12-17 .5-6.5Zm331 0 4.5.5-.5 2.5-5 2-.5-3.5 1.5-1.5Zm72 0 4.5.5-1.5 5.5-4.5-1.5 1.5-4.5Zm-193 4 12.5 2.5-1 4 .5 1.5-12.5-.5.5-7.5Zm113 0 .5 2.5 2 5-2 1 1.5 5.5 4-1 .5 9.5-5-4-1.5-2.5-5.5-4.5 1.5-7.5 3.5-1.5.5-2.5Zm138 0-.5 3.5-2.5 4.5-7.5-.5 10.5-7.5Zm109 1 4 1 1.5-.5-1.5 6.5-4.5-2.5.5-4.5Zm-623 1 16 6 16.5 1.5 2 5-4.5 7.5-1.5.5.5 1.5 1.5.5q12.39 4.61 10 24L90.5 857l-.5-11.5-18-40 1.5-1.5Zm5.5 6-1 3 11 3 1-4-11-2Zm12 24 1 11 15 1 1-4-17-8Zm114.5-30 4.5 1.5-.5 5.5-5.5-2.5 1.5-4.5Zm114 0 4.5 2.5.5 1.5 3.5 1.5-8.5.5-1.5-4.5 1.5-1.5Zm34 0 7.5.5-1 4 .5 1.5-7.5-.5 1-4-.5-1.5Zm381 6 3.5 1.5.5 10.5 11.5-3.5 1.5-8.5 4.5 1.5 1 10-30.5 8.5-1-8-5.5-3.5.5-1.5 13.5-5.5.5-1.5Zm33 6q16.73-2.23 23.5 5.5l-31.5.5 2-3 6-3Zm-491 3 6.5 4.5 2 4-3 1-.5 1.5-5-11Zm101 1 1.5.5-2.5 1.5 1-2Zm49 2 5.5 3.5-.5 2.5-5.5-3.5.5-2.5Zm367 0 15.5 5.5-5.5.5-10-6Zm-349 3 11 9 1-4 2 4 5.5 4.5.5 1.5 12 6 3.5-2.5 1 14-1.5 2.5-30-2-5.5-3.5q-3-11.5 2.5-14.5l3.5-1.5-1.5-4.5-4.5-2.5.5-6.5Zm32 3 3.5 2.5-.5 4.5-4-1-1.5.5 2.5-6.5Zm335 0 15.5 5.5-5.5.5-10-6Zm59 5 6 1 1.5-.5-2 5v2l-.5 1.5-5-9Zm-41 1h17l22.5 11.5-4.5.5q-7.03-8.47-25-6l-10-6Zm-416 8 .5 33.5-2.5.5-5-16-15.5-2.5 5-3 1.5-2.5 4.5 1.5 2.5 4.5 3.5-.5 5.5-15.5Zm7 2q7.83 4.17 5.5 18.5h-1q-6.92-5.92-4.5-18.5Zm366 8 5.5.5 24 35-1.5-.5-20.5-18.5-7.5-16.5Zm13 0q8.75-1.75 10.5 3.5 2.12 12.37 11.5 17.5l16.5 8.5-4.5.5-11-6 .5 1.5 6.5 8.5 3.5 1.5-7.5.5q-13.63-9.37-20-26l-3.5-2.5-4-6 1.5-1.5Zm-468 6q19.42-2.92 27.5 5.5l-17.5.5-10-6Zm52 0 5.5.5-5 3q-2.95 17.45 5.5 23.5l1-2 23.5 52.5v8l-2.5-1.5-3.5.5-.5 4.5-5.5-15.5h1l2.5 4.5 2.5-.5-3.5-11.5-2.5.5-.5 4.5-30-63-4.5-1.5q12.13.63 16.5-6.5Zm13.5 54-1 4 6 2v-3l-5-3Zm438.5-54 7.5 5.5 9.5 18.5 6.5.5-1.5 26.5-9-10-7.5-4.5 5-1-.5-5.5-6.5-.5 1-4-.5-1.5 6.5-1.5-5.5-13.5-1.5.5-3.5-9.5Zm6 0 13.5 6.5 4 9-14.5-13.5-3-2Zm-601 7 6.5 11.5-1.5 3.5-5-15Zm60 2 3 4-4.5-2.5 1.5-1.5Zm243 3 5.5.5-3.5 10.5-3-5-2.5-1.5 3.5-4.5Zm332 0 1.5.5-1 5 4.5.5 1.5-4.5-.5-1.5 11.5 5.5 1 3-1.5 3.5-5.5-.5 1-4-4.5-1.5-1.5 4.5.5 1.5-12.5-3.5-.5-2.5-4.5-.5 10.5-5.5Zm-569 1 5.5 12.5-3-2-5-9h1l.5 1.5 1-3Zm120 0q7.39 6.11 5.5 21.5h-1q-7.31-6.81-4.5-21.5Zm-168 3 5.5 9.5-3-2-2.5-7.5Zm194 2 3.5 2.5-2.5 3.5-3.5-2.5 2.5-3.5Zm69 0 10.5 7.5 9.5 22.5 4-1 .5 13.5-3.5 5.5-2.5-.5-6-17v-13l-7.5-9.5-9-2-3 1-3.5 1.5-1.5 8.5-4-6-1.5-.5 1.5-4.5 16-6Zm92 0 14.5 5.5-3.5.5-11-6Zm280 7 .5 4.5-3.5 6.5-4 1 1-4 1 2 5-10Zm-635 9 6.5 9.5-1.5 2.5-5-10-1.5-.5 1.5-1.5Zm431 1 .5 27.5 3 3-2.5 1.5-7-1-10 4-13.5-4.5 3.5-5.5 11.5-5.5-2-1 8-5 6.5-12.5 2-1Zm-274 1 4.5 1.5 3.5 9.5 5 1 3-5 .5 46.5-5.5.5-6.5-17.5v-19l-6-16 1.5-1.5Zm401 0 5.5 1.5-.5 10.5-5.5-3.5.5-8.5Zm13 0 5.5.5-1 4v2l-.5 1.5-5.5-3.5 1.5-4.5Zm-319 1 4.5 9.5-1.5.5-3-4-1 4-3.5-5.5 1.5.5 2.5-.5.5-4.5Zm-234 3 5.5 9.5-3-2-2.5-7.5Zm335 0 .5 4.5-6.5 4.5-1.5-1.5 7.5-7.5Zm223 5 16.5 8.5-4.5.5-10.5-5.5-1.5-3.5Zm-323 3 5.5 1.5 17 28v12l-11.5.5-6.5-11.5v-13l-6-16 1.5-1.5Zm.5 1v4l4 1v-2l-4-3Zm316.5-1 15.5 11.5v2l1 4-7.5.5-4.5-2.5-4.5-15.5Zm-558 4 17.5 20.5-3.5 4.5-3 1-5.5-3.5-1.5-6.5q-8-10-28-8l-1 8-11.5-12.5 18.5-1.5 23 12-.5-1.5-6-11 1.5-1.5Zm432 23 2 3 2.5.5-2.5 5.5-8.5 3.5-.5 2.5-5.5-.5 1.5-3.5 9.5-5.5 1-2v-2l.5-1.5Z"/><path fill="#1A1F3D" stroke="#1A1F3D" stroke-width="3" d="m536.5 192 5.5.5-3.5 4.5-1.5.5-3 6 6 1-.5 5.5-5.5.5-.5 1.5-2.5-1.5-2-4 7.5-14.5Zm-44 10 4.5 5.5-5 4 .5-9.5Zm40 12 1.5.5.5 1.5 5.5.5-3.5 5.5-2.5.5-.5 1.5-2.5-1.5-2-4 3.5-4.5Zm-23 146 5.5 3.5 1 5h-1l-.5-1.5-1.5-.5-1.5-2.5-1.5-.5-.5-3.5Zm87 1 1.5.5 2 6-2.5-1.5-3 1-.5-1.5 2.5-4.5Zm-194 5 6.5 3.5 1 2-4.5.5-3-6Zm15 0 2.5.5-3.5 5.5-4.5-.5 1.5-2.5 4-3Zm187 6 6.5 3.5 1 4-7.5-7.5Zm12 12 15.5 10.5-.5 1.5-10.5-5.5-.5-1.5-3.5-2.5-.5-2.5Zm-10 3 30 31q-6.5-14.5-23.5-18.5l-6.5-12.5Zm54 31 6.5 5.5 1 2-2.5.5-5.5-3.5.5-4.5Zm-8 159 7.5 3.5-.5 2.5-3-1-10 6 1.5-2.5 2.5-7.5 2-1Zm-358 5 4.5.5-10 6 4 9-10.5 13.5-.5-5.5 6-9 2.5-12.5 4-2Zm10 5 1.5.5-.5 7.5-4.5-3.5 3.5-4.5Zm338 5 7 8-1.5.5-.5 1.5-5-10Zm-45 20 8.5.5-1.5 3.5-1.5.5-.5 1.5-5-6Zm-268 6 1.5.5-1 4 .5 1.5-5.5-2.5.5-1.5 4-2Zm318 4 .5 1.5-5.5 10.5-.5-4.5 5.5-7.5Zm69 9 2.5 1.5-1.5 2.5-2.5-1.5 1.5-2.5Zm12 12 14.5 13.5-1.5 2.5-14.5-13.5 1.5-2.5Zm-440 11 .5 1.5h-1l.5-1.5Zm1 3 4 5 1.5-.5-5-2-.5-2.5Zm460 3 6.5 3.5 1 4-3.5 10.5-5.5-.5 2-11v-2l-.5-4.5Zm-126 4 1.5.5-12.5 15.5-.5-2.5 11.5-13.5Zm72 4 .5 10.5-1.5-.5-3.5-2.5 4.5-7.5Zm-468 4 11.5 3.5 1 3-1.5-.5-9.5 3.5q1.25 17.25-6.5 25.5l-1-23-1.5-.5 1.5-3.5 1 3 4-6 1.5-.5-.5-4.5Zm504 8 4 3 2.5-1.5-3.5 2.5-3-4Zm6 7 .5 3.5-5.5 10.5-1-5-5 2-.5-2.5 3.5-5.5 8-3Zm-498 4 .5 5.5-5.5 7.5-.5-2.5 5.5-10.5Zm450 0 .5 5.5-5.5 7.5-.5-2.5 5.5-10.5Zm-12 3 .5 2.5-5.5 10.5-.5-5.5 5.5-7.5Zm-544 2 4.5 1.5-.5 6.5-5.5-3.5 1.5-4.5Zm485 0 1.5.5q-4.4 10.1-17.5 11.5v-1l16-11Zm-486 7 5.5 14.5h-1l-4.5-14.5Zm599 3 .5 1.5-6 11 2 1-7.5 3.5-.5-3.5 5.5-10.5 1 2 5-5Zm-583 8 12.5 5.5-11.5.5.5-1.5-1.5-4.5Zm12 0 7.5 2.5-1.5 3.5-4.5-1.5-1.5-4.5Zm22 0 3.5 1.5 1 4-4.5.5-2.5-3.5 2.5-2.5Zm468 1 2.5 1.5 1 4-1.5-.5-6.5-.5 2.5-3.5 2-1Zm12 0 2.5 1.5-1.5 2.5-2.5-1.5 1.5-2.5Zm118 3 3.5 1.5-3 1 7 5-2.5.5-10.5-5.5 5-1 .5-1.5Zm-580 2 8.5 3.5 1 6h-1l-5.5-7.5-3-2Zm376 0 4.5.5-14.5 5.5v-1l10-5Zm65 4 .5 2.5-4.5 7.5-5.5 4.5-1.5 2.5-1-3-1.5-.5 2.5-5.5 11-8Zm49 0 6.5 2.5-1 4 .5 1.5-7.5-.5 1.5-7.5Zm17 0 1.5 9.5-2.5.5-3.5-1.5 4-1-5-3-1-2 6.5-2.5Zm114 0 .5 2.5-5.5 7.5-.5-1.5 5.5-8.5Zm-523 9 26.5 14.5 1 2-5.5.5-6-4-11 4-5-12-8.5 7.5-1.5 3.5-.5-5.5 5.5-8.5 5-2Zm-82 3 4 2 1.5-.5-3.5 5.5-2-4-1 4-2.5-4.5 3-1 .5-1.5Zm579 2 2.5.5 1.5 11.5 4-2 1 2 1.5.5-2.5 5.5-8.5-6.5-2-7 2.5-4.5Zm44 10 .5 1.5h-1l.5-1.5Zm-22 2 10.5 5.5-2 1 3 5-3.5.5-5-6-4.5-3.5 1.5-2.5Zm45 1 1.5 7.5-1.5-.5-5.5-2.5 1.5-2.5 4-2Zm-251 2-5 6-3.5 2.5.5 1.5-9 5-.5-2.5 5.5-6.5 12-6Zm-281 1 13.5 12.5 3 5-3 1-.5 1.5-4.5-.5 2-3-11-12 .5-4.5Zm-102 2 10.5 2.5-5.5 9.5-2.5-.5-2.5-11.5Zm467 0 5.5 2.5-1.5 2.5-4 1 .5-1.5-.5-4.5Zm115 6 5 3 1.5-.5 1 3-2 1 3 5-6-5-2.5-6.5Zm42 0 11.5 6.5-.5 3.5-1.5.5-.5 1.5-3.5-.5-.5-3.5-5.5-4.5.5-3.5Zm-778 6 3.5 1.5-2.5 10.5-3.5-.5.5-10.5 2-1Zm12 0 3.5 1.5-1.5 4.5-4 2-.5-5.5 2.5-2.5Zm628 4 .5 1.5h-1l.5-1.5Zm-614 2 7.5 2.5-.5 5.5-7.5-6.5.5-1.5Zm200 0 4.5.5-10 5 4 1-4.5 2.5-1-3-3.5-.5 10.5-5.5Zm129 0 2.5.5.5 3.5 5.5 4.5-.5 3.5-10.5-8.5 2.5-3.5Zm150 0 2.5.5-.5 3.5-3.5 2.5-4.5 5.5-3.5-.5 9.5-11.5Zm259 0 7.5 3.5-.5 2.5-4.5-1.5-2.5-4.5Zm-136 1 3 5 6.5-1.5 1.5-3.5.5 5.5-7.5 21.5-3.5 1.5 4 1-4.5 2.5v-32Zm-618 2 16.5 11.5 1 8h-1L84.5 777Zm750 7 3.5 1.5 2 4-.5 1.5-7.5-4.5 2-1 .5-1.5Zm-708 2q14.6 1.9 21.5 11.5l6.5 8.5 1.5.5-1.5 3.5q-13.25 3.25-16.5-3.5l-7.5-13.5-1.5-.5-2.5-6.5Zm152 1-1 2-12 11 11-12 2-1Zm29 0-2 3-3 1v-1l5-3Zm-248 3 8 32 8.5 1.5 3 6-1.5.5-2.5-1.5-2.5-5.5-1 2-17-9-1.5.5-.5-1.5-4.5-2.5.5-3.5 4 1 1.5-3.5-1-2 6.5-14.5Zm14 2 10.5 3.5-.5 2.5-11.5-1.5 1.5-4.5Zm448 0 5.5.5-12.5 5.5.5-1.5.5-1.5 6-3Zm34 0 2.5.5-3.5 11.5-18.5 6.5-.5 1.5-1.5-.5-.5-1.5-4.5-.5 8-5-2-1 20.5-11.5Zm-88 5 8.5 1.5-7.5 10.5-1-5-9.5-.5 9.5-6.5Zm-16 7 2.5 1.5 2 5-1.5-.5-1.5-.5-1.5-5.5Zm63 0 12.5 5.5-5.5.5-6.5-3.5-.5-2.5Zm338 1 8.5 5.5 2 4-1.5-.5-9.5-7.5.5-1.5Zm-452 1 3.5 1.5-1.5.5-2-2Zm5 2 5.5 3.5-1.5-.5-4-3Zm255 0 4.5 2.5-4.5 7.5v-10Zm-484 2 8.5 5.5-11 4-.5 4.5-1-2q-8.75 1.75-10.5-3.5l.5-2.5 13.5-4.5.5-1.5Zm90 0 3.5 2.5-2.5-1.5-7 6 6-7Zm-140 1 7 10 1.5.5 3 13 8.5 10.5 17-12 .5 1.5-1.5 2.5-12.5 6.5-2.5 6.5-5 1-2.5-1.5-13.5-38.5Zm312 0q6.88 5.13 5.5 18.5l-4-3-1.5-15.5Zm30 0 6.5 10.5-1.5.5-4.5-3.5-.5-7.5Zm-354 6 11.5 23.5-1.5.5-10.5-18.5.5-5.5Zm306 0 14.5 22.5-3 1-.5 28.5-10-31-5.5-2.5 4-2-2-5 2-1 .5-10.5Zm-207 5 2.5.5-.5 6.5-3-1-2.5 1.5 3.5-7.5Zm539 0 11.5.5q-4.54 7.46-18.5 5.5v-1l7-5Zm20 0q11-2.5 13.5 3.5l-.5 2.5q-10.84.43-13-6Zm-278 1 1.5.5 2 47-1.5-.5-4.5 1.5v11l-5 14 5 12-1.5-.5-5.5-2.5 1-4-24-3 1.5-4.5 16.5-.5-1.5-3.5-21-2-1.5 9.5 1.5 2.5-13 1-.5-4.5 6-5-1-3 1.5-7.5 4 1h2l5.5-1.5-1-4 14.5-.5v1l-1.5.5 7.5 8.5 4 1 .5-4.5-2-1 2-11-6-3 2.5 1.5 6.5-4.5 3-7v-29l2.5-5.5ZM475 882l-1 3 6 3v-2l-5-4Zm-58.5-54-15 16-2 1 1-2 16-15Zm57 0 1.5.5-2.5 3.5-6 2 3-4 4-2Zm-35 1q7.46 4.54 5.5 18.5l-4-3-3-5 1-6v-2l.5-2.5Zm287 3 .5 14.5-1.5-.5-4 3-1.5-15.5 1.5-.5 3 1 2-2Zm-467 3 1.5 2.5h-1l-.5-2.5Zm574 4 9.5 1.5-2 6 8 11-2.5.5-6.5-4.5-.5-1.5-4.5 1.5q.9 18.1 12 26l-5.5 2.5-10.5-5.5 3.5-1.5 6 1 .5-3.5-9-8-3.5-6.5-5.5.5q-2 12 6 14l-10-9-4.5-5.5-3.5-2.5-2.5-3.5-2.5-1.5-.5-1.5-5.5-2.5 10.5-.5 15 5 3.5-2.5.5-2.5 5.5-.5-1.5-6.5Zm-708 6 1.5.5-.5 11.5-4.5-8.5 3.5-3.5Zm660 1 12.5.5-6 3-1.5 2.5-2.5-1.5-1.5-3.5-1-1Zm-404 1-1 2-6 3 1-2 6-3Zm400 1-5.5 6.5 18 23-1.5.5-2.5-1.5q-3.24-15.25-15-22l6.5-6.5Zm-114 2q6.98 3.02 5.5 14.5l-3.5 5.5q-5.5-3 1-6l1.5-.5-4.5-13.5Zm-277 2 5.5.5-15.5 5.5v-1l10-5Z"/><path fill="#1A1F3D" stroke="#1A1F3D" stroke-width="3" d="m481.5 852 4.5 1.5 2 4-2.5 1.5-5.5-3.5 1.5-3.5Zm-15 6 9.5 5.5-2.5.5-7-6Zm-338 1 1.5.5 2 11-5.5 7.5-.5-2.5 3.5-5.5 1.5-.5-4-8 1.5-2.5Zm166 3 6.5 9.5-1.5.5-5-10Zm-177 2 7.5.5-5 3 .5 2.5 4.5.5-18.5 16.5-6 1 .5-1.5 1-4-2-1 2-3-13-3 1-4-.5-1.5q14.5-2 19 6l5.5-3.5 3.5-8.5Zm-3.5 12-6 4 1 2 5-3v-3Zm405.5-6 2.5 1.5 1.5 2.5 3.5 1.5-12.5.5 1.5-2.5.5-1.5 3-2Zm20 0 2.5.5-2.5 17.5-3.5-1.5-3-10 3.5-5.5 3-1Zm38 0 12.5 5.5-5.5.5-7-6Zm43 6 11.5 5.5-1.5.5-10-6Zm-117 4 .5 7.5-2.5.5-3.5-6.5 1.5.5 4-2Zm313 2 5.5 3.5-.5 2.5-3.5-1.5-1.5-4.5Zm-384 4q10.37 7.63 5.5 30.5h-1l-5-11 5-11-3-2-1.5-6.5Zm370 1 6.5 4.5 2 4-1.5.5-6.5-5.5-.5-3.5Zm62 2 5.5 12.5-4-3-1.5-9.5Zm-606 7 11.5 21.5-1.5-.5-9.5-4.5 5-1-7-12 1.5-3.5Zm570 4 7.5 5.5-2 1-.5 1.5-5.5-4.5.5-3.5Zm-592 1 20.5 10.5-23.5.5-4.5 2.5 6.5 7.5 3.5 1.5-5.5.5-7.5-4.5-3-5 4.5-5.5 9-8Zm622 3q6.55 2.95 5.5 13.5l-5.5 2.5-1-2-6.5-.5 4.5-5.5 2.5-1.5.5-6.5Zm-18 6 3.5 1.5-3 1 5 3 1 2-1.5-.5-7.5-4.5 2-1 .5-1.5Zm-349 12 .5 2.5-5.5 10.5-.5-5.5 5.5-7.5Zm356 2 9 6 1.5-.5-2.5 5.5-6-4-3 2-.5-7.5 1.5-1.5Zm-603 6 7.5 3.5 6 14-5.5.5-6-17-1 2-1-3Zm604 7 6.5 5.5 2 5-5.5.5-2-6-3.5-.5 2.5-4.5Zm-141 1 .5 9.5-5.5.5-.5-3.5 4-3 1.5-3.5Zm-269 2 3.5 2.5 1 5-4.5.5v-8Zm-204 2 9.5 2.5 2 3-17.5.5 1.5-2.5.5-1.5 4-2Z"/><path fill="#C96819" stroke="#C96819" stroke-width="3" d="m326.5 222 3.5.5-1.5 5.5-4.5-1.5 2.5-4.5Zm-11 24 2.5.5q2.06 16.06-5.5 22.5l-.5-16.5 3.5-6.5Zm-9 59 3.5 2.5 2 5-1.5-.5-2.5-1.5-1.5-5.5Zm149 39 .5 1.5h-1l.5-1.5Zm-161 2-.5 1.5-17.5 35.5-.5-5.5 6-11-2-1 2.5-6.5 4 1 1.5-5.5-2-1 2.5-6.5 4 1 2-2Zm-19 39 .5 5.5-3.5 6.5-2 1-.5-2.5 5.5-10.5Zm-18 31 .5 3.5-9.5 12.5-2.5-.5 11.5-15.5Zm-29 33 4 1 2-1-1.5 2.5-2.5 4.5-2.5-.5.5-6.5Zm-7 14 .5 5.5-5.5 10.5-.5-5.5 5.5-10.5Zm-36 66 .5 5.5-5.5 10.5-.5-5.5 5.5-10.5Zm-4 53 4.5 1.5-.5 5.5-4-1-1.5.5 1.5-6.5Zm10 48 .5 6.5-5.5 10.5-1-11-1.5-.5 7.5-5.5Zm-120 94 1 2 3.5.5-11.5 5.5 2-3 5.5-2.5-2-1 1.5-1.5Zm12 18 .5 4.5L66.5 759l7.5-8.5 1.5-2.5 7.5-3.5.5-2.5Zm-36 29 .5 5.5-7.5 3.5-.5-1.5 7.5-7.5Zm-23 4 5.5 14.5h-1L24.5 775Zm54 117 5.5 7.5-2.5.5-3-8Zm12 25 4 1 1.5-.5-2.5 6.5-3.5-2.5.5-4.5Z"/><path fill="#B21D1E" stroke="#B21D1E" stroke-width="3" d="m324.5 227 4 1h2l5.5.5-12 35 2 1-2.5 5.5-5.5 2.5.5 3.5 3.5-1.5 1.5-3.5 1 5 3.5-1.5 2-4-2.5-3.5 2.5-.5 1.5-2.5 4.5 1.5-1.5 4.5-2.5 1.5-15.5 34.5-4.5-1.5.5-3.5 5.5-3.5-.5-3.5-3.5-1.5-2-11 12-23v-6l-2.5-.5-1.5.5q6-5 4-18l-2-1 2.5-6.5Zm-13 90-.5 1.5-10.5 19.5-.5-2.5 9.5-17.5 2-1Zm-18 40 1 3 2.5.5-20.5 38.5-1.5-2.5 18.5-39.5Zm-24 48 1.5 2.5-4.5 6.5-2.5-.5 5.5-8.5Zm-36 46 1 5 5.5.5-3.5 5.5-6.5 1.5-8.5 13.5-4 2-.5-1.5 4.5-8.5 1 2 11-20Zm-18 25 .5 3.5-1.5.5-.5-2.5 1.5-1.5Zm-6 8 .5 1.5-3.5 6.5-2.5-.5 5.5-7.5Zm-12 15 .5 10.5-5.5 10.5-1-3-1.5-.5 7.5-17.5Zm-16 59 4.5 1.5-1.5 10.5-4.5-1.5 1.5-10.5Zm14 60 2.5 1.5-5.5 15.5-1-5-5 3-.5-3.5 9.5-11.5Zm-91 96 3.5 2.5-.5 4.5-4-1-1.5.5 2.5-6.5Zm-3 11 3.5 1.5-2.5 4.5-1-4-5 7-1.5-7.5 6.5-1.5Zm-26 25 4.5.5q-5.21 9.79-18.5 11.5v-1l14-11Zm810 27 1.5.5-1.5.5v-1Zm17 9 3.5 2.5-.5 4.5-3-1-3 4 .5-1.5-.5-2.5-1.5-.5 1.5-3.5 3-2Zm-9 28 .5 4.5-6 5 2-6-3 1 6.5-4.5Zm-12 9 1.5.5-1.5.5v-1Zm27 5 .5 1.5-1.5 2.5-.5-1.5 1.5-2.5Zm-2 5-.5 1.5-1.5 2.5.5-1.5 1.5-2.5Z"/><path fill="#D76651" stroke="#D76651" stroke-width="3" d="M449.5 228h43q4.76 7.24 18 6l21.5 13.5 8 19q-9.8 7.2-6 28l5.5 8.5 18.5 12.5-2.5 2.5h-30l2.5-3.5-2.5-8.5-13.5-7.5-8-17 7.5-9.5 10.5-4.5q3.53-20.03-7.5-25.5l-16-8h-40l-4 12-14-6-2.5 6.5 8.5 17.5 13.5 7.5 7 14-7.5 14.5q-21.08-3.58-26.5 8.5l6.5 7.5 29 2q6.74 7.76 22.5 6.5l-14 11q-5.53 6.97-3.5 21.5l-12-9-4.5 3.5-1 51q-8.29 6.71-6 24l3.5 4.5 8.5 4.5.5 1.5 9.5-6.5 2-11q-8.29-6.71-6-24l1.5.5 2.5-.5.5-1.5 12.5-11.5 1.5-9.5 3 5 1.5.5-5 18 6 11 2 17 16 18-20.5 7.5.5-1.5 2-17-7.5-17.5-4.5 1.5 6 22-2.5.5-8-5q-4.79 7.71-20 5l-9.5-7.5-2-11 6-11v-55l4.5-7.5 1.5-.5-.5-1.5-1.5-.5-9.5-10.5-18-9h-7l-9.5-7.5-2-5q10.41-10.59 6-36l-10-13-2-11 7.5-9.5 16-8q17.29 2.29 24-6Zm-128 6 2.5.5-1.5 5.5-3.5-.5 2.5-5.5Zm-16 85 .5 5.5-5.5 10.5-1.5-3.5 6.5-12.5Z"/><path fill="#D76651" stroke="#D76651" stroke-width="3" d="M541.5 330h20l2.5 2.5-1.5 3.5-22.5-1.5 1.5-4.5Zm-68 29 .5 19.5-5.5 10.5-.5-23.5 3.5-5.5 2-1Zm28 13q18.08-2.58 25.5 5.5l-17.5.5-8-6Zm56 0q13.34-2.84 17.5 3.5 8.17 5.83 7 21l-33 41-9 18v13L526.5 490l-17 2-10.5-5.5 11-1q10.41-10.59 6-36l7.5-9.5 10.5-4.5q3.58-16.42 16.5-23.5l12.5-7.5 7-15-7.5-9.5-11-2-12 6-10.5-5.5q19.94 2.44 28.5-6.5Zm-134 6 2.5 1.5-6 20 2 1 4 8q-8.29 6.71-6 24l-7.5 9.5-11 2-16.5-9.5q-6.6-18.9-23-28l-2-17 3.5-5.5q8.55 7.95 27 6 6.71-8.29 24-6l9-6ZM408 390l-22 8-7 8q9 13 27 19l8-10q-2-18 6-24l-12-1Zm-132.5-11 .5 5.5-5.5 10.5-.5-5.5 5.5-10.5Zm-30 51 1 2 1.5.5-3 1-4.5 9.5-2.5-7.5 2.5-4.5 3 1 2-2Zm240 21 1.5 4.5-4.5 5.5-14 10-.5-5.5 15-9 2.5-5.5Zm-258 1 1 4 2.5.5-2.5 4.5-1-4-5 10-1-5-1.5-.5 7.5-9.5Zm225 16 9.5.5 1.5 5.5 4-1 17.5 6.5-23.5.5-11.5-9.5 2.5-2.5Zm-1 42 34.5 1.5-3 4 2 1-11.5 5.5q-7.94-7.56-23.5-7.5l1.5-4.5Zm-268 6 2.5.5-5.5 8.5-.5-2.5 3.5-6.5Zm2 7 .5 5.5-5.5 10.5-.5-5.5 5.5-10.5Zm274 23 5.5.5-3 6 3.5 4.5 8.5 4.5.5 1.5 17.5-6.5-7.5-8.5-3.5-1.5 15.5-.5 7.5 16.5-36.5 1.5-9.5-7.5-2-7 3.5-3.5Zm-278 42 4.5 1.5-.5 5.5-4-1-1.5.5 1.5-6.5Zm-1 23 4 1 1.5-.5-2.5 6.5-3.5-2.5.5-4.5Zm0 42 4 1 1.5-.5-1.5 6.5-4.5-1.5.5-5.5Zm383 55 5.5.5-12.5 5.5 3-4 4-2Zm-455 9 5.5 4.5-1.5 4.5-4 3v-12Zm760 27 7.5 3.5-.5 4.5-7-8Zm19 20 .5 6.5-18.5 16.5-1.5-1.5 18-18 1.5-3.5Zm-240 52 5.5.5-15.5 5.5v-1l10-5Zm252 10 .5 4.5-7.5 3.5 7-8Zm-288 8 7.5.5-1 4 .5 1.5-7.5-.5 1-4-.5-1.5Zm-527 63 16.5 11.5-4.5 8.5-2 1 1.5-2.5-.5-3.5-5.5.5 2 5-3-2-7-15 2-1 .5-2.5Z"/><path fill="#E5A663" stroke="#E5A663" stroke-width="3" d="M458.5 234h40l20.5 12.5q6 6 3 21l-16 10-2 5 13.5 21.5 10.5 4.5-3.5 9.5-13.5-.5 5-3-.5-2.5-5.5-.5-7.5-17.5-17 6-11.5 9.5.5 1.5 11.5 4.5.5 2.5 22.5.5q-8.73 8.77-29.5 5.5-10.59-10.41-36-6l-10.5-8.5 6.5-7.5 22.5-4.5 5-13-12.5-18.5-10.5-4.5-6-19 6.5-2.5 10 6 4-12Zm27.5 6-5 3-7 9 3 12h37l2-2-2-14q-6-12-28-8Zm-176.5 30 2.5.5-.5 23.5-5.5-3.5q-2.45-14.45 3.5-20.5Zm-8 36 4.5 1.5q1.89 15.39-5.5 21.5l-1-5-1.5-.5 3.5-17.5Zm160 42 12.5 9.5-1.5 2.5-2.5 1.5-1.5 3.5-2-9-8-2-2.5 1.5 3.5-6.5 2-1Zm-182 18 2.5.5-11.5 22.5-1-5-1.5-.5 1.5-3.5 1 3 5.5-10.5-2-1 5.5-5.5Zm221 7q8.11 8.39 28 5l10.5 5.5-5 1-.5 2.5-6 3-9-5q-8.66 7.84-26.5 6.5l18.5 37.5 6 3 14.5-12.5 5.5-11.5q21.22.22 27.5-14.5-4.72-11.78-23-10l17.5-5.5 9.5 7.5 2 5-9.5 16.5-22.5 17.5-6.5 13.5-13.5 7.5-2 29-6.5 11.5q-15.39 1.89-21.5-5.5l4-1-2.5-5.5-9.5.5-.5 2.5-11.5-3.5 7.5-9.5 9.5-5.5 4.5-8.5 20.5-7.5-18-22v-13q-7.24-4.76-6-18l6.5-13.5 3 2 2.5-1.5 2.5-3.5Zm-5.5 77q-6 3-3 16 3 5 16 2l2-9-11-6-1-2-3-1Zm-27.5-71 .5 29.5q7.24 4.76 6 18l-7.5 9.5-4 1-2-3-9.5-5.5-1-15 5.5-10.5 1 11 4.5.5-5 3 1.5 12.5 7 2 3.5-12.5q-9.35-8.65-6-30l5.5-10.5Zm-60 11 12.5.5q-8.29 6.71-6 24l-8.5 10.5q-17.08-5.92-26.5-19.5l6.5-7.5 22-8Zm-138 1 .5 4.5-11.5 22.5-2.5-6.5 2-1 .5 2.5 5.5-10.5-2-1 1.5-3.5 1 3 5-10Z"/><path fill="#E5A663" stroke="#E5A663" stroke-width="3" d="m516.5 396 5.5 2.5-.5 3.5-5.5-3.5.5-2.5Zm-279 42 1.5.5-6.5 11.5 1.5-2.5-.5-3.5-1.5-.5 5.5-5.5Zm-18 24 2.5.5-5.5 10.5-1-5-1.5-.5 5.5-5.5Zm-22 34 .5 1.5-9.5 12.5-.5-2.5 3.5-7.5 6-4Zm-14 26 2.5.5q-9.13 8.87-6.5 29.5l-2.5-.5-3-17 5.5-10.5 4-2Zm282 24 4.5.5-2 8 10.5 3.5 1.5-2.5-3.5-4.5-1.5-.5-1-3 6.5-1.5 11.5 9.5-1.5 2.5-16 5-2-3-9.5-5.5-1-5 3.5-3.5Zm-284 48 4.5 1.5-1.5 16.5-4.5-1.5 1.5-16.5Zm-3 73 1.5 3.5-5.5 3.5-1-2-1.5-.5 6.5-4.5Zm-83 39 1 2 5-2 1.5 8.5-3.5 5.5-3.5-2.5-.5-3.5-11 6-.5-2.5L95.5 706Zm763 94 6 8 4 1 1.5-.5-1.5 5.5-5 2-6-10-3.5-1.5 4-1 .5-3.5Zm-790 70 3.5.5-2.5 5.5-3.5-2.5 2.5-3.5Zm22 42 5.5.5-2.5 5.5-3.5-2.5.5-3.5Z"/><path fill="#DF3711" stroke="#DF3711" stroke-width="3" d="m321.5 252 2.5.5-5.5 16.5-.5-13.5 3.5-3.5Zm-14 48 6.5.5-2 1-.5 9.5-3-5-2.5-1.5 1.5-4.5Zm-26 73 .5 8.5-6 5 5.5-13.5Zm-6 18 1.5 3.5-6.5 12.5-1-2-5 8-.5-4.5 5.5-10.5 3.5-1.5 2.5-5.5Zm-86 126 1.5.5-4.5 9.5-1-5-1.5-.5 5.5-4.5Zm-107 201 1.5.5 1 2-1 4 .5 1.5-11.5-.5 5-3 .5-2.5 4-2Zm19 1 .5 5.5-4.5 1.5-3-4-3.5-1.5 10.5-1.5Zm-14 19 6.5.5-9.5 7.5-.5-4.5 3.5-3.5Z"/><path fill="#EB5A19" stroke="#EB5A19" stroke-width="3" d="m317.5 259 .5 10.5-5.5 10.5-1-10-1.5-.5 1.5-3.5 1 3 5-10Zm-5 31 2 4 3.5.5-3.5 5.5-8 1-2.5-1.5 2.5-7.5 5 2 1-4Zm-13 42 .5 3.5-5.5 10.5-.5-3.5 5.5-10.5Zm-18 50 .5 1.5-5.5 10.5-.5-6.5 5.5-5.5Zm-205 339 1.5.5-1.5 2.5-4 2-.5-2.5 4.5-2.5Zm19 7 .5 6.5-7.5 3.5 5.5-6.5 1.5-3.5Zm-36 34 4.5.5L48.5 776l-.5-4.5 11.5-9.5Zm-20 18 1.5.5-4.5 10.5-.5-5.5 3.5-5.5Zm3 0 1.5.5-2 1 .5-1.5Z"/><path fill="#B80A14" stroke="#B80A14" stroke-width="3" d="m326.5 264 4.5.5-1.5 2.5-2.5.5 1.5 2.5-4 3-.5-4.5 2.5-4.5Zm-29 90 1.5.5-2.5 5.5-2.5-.5 3.5-5.5Zm-244 418 1 2 5.5.5L42.5 794l-1-2-5 3-.5-2.5 5.5-10.5 12-10Zm834 0 2 3 4.5 2.5.5 2.5 3.5.5-27 21-1 2 2 1-5.5 3.5-5.5-4.5-1-4 4.5-10.5q15.25-4.75 23-17Zm-1.5 5v1h1l-1-1Zm16.5 15 3.5 1.5 1 5-9.5 11.5-3.5 2.5-9.5 15.5-8.5-.5-1-5 4-6-2-1 9-6 5.5-11.5 10.5-4.5.5-1.5ZM882 823v1h1l-1-1Zm35.5-17 .5 22.5-1.5-.5-4.5 1.5-6.5 13.5-8 3 2.5-3.5-.5-2.5-4.5 1.5-1 3 .5 1.5-5.5-1.5 4.5-9.5 2.5-.5.5-1.5 7.5-5.5 1.5-3.5 4.5-3.5 7.5-14.5Zm-8.5 22-1 2h1v-2Zm-1 2-1 2h1v-2Zm-2 4-1 2h1v-2Z"/><path fill="#E7141E" stroke="#E7141E" stroke-width="3" d="m327.5 270 2.5.5-3.5 5.5-2.5-.5 3.5-5.5Zm-242 450 10.5 3.5 1 2-11.5.5-1.5-4.5 1.5-1.5Zm-46 72 2.5.5-.5 2.5-6 3 .5-1.5 3.5-4.5Zm866 10 .5 4.5-7.5 3.5 7-8Zm6 12 .5 2.5-5.5 7.5-.5-4.5 5.5-5.5Zm-20 20 4.5.5-3 1-4.5 8.5-.5-3.5 3.5-6.5Zm6 6 2.5.5-3.5 5.5-2.5-1.5 3.5-4.5Z"/><path fill="#E69919" stroke="#E69919" stroke-width="3" d="m306.5 307 3 5 2.5 1.5-2.5 4.5-1.5.5-1.5 3.5v-15Zm-230 419 1.5.5-4.5 2.5 1-2 2-1Zm16 6-10 13-8.5 4.5-1.5 2.5-.5-4.5L92.5 732Zm-27 24 2.5.5-19 13-.5 1.5-8.5 7.5-6.5 19.5-3.5-2.5q1.67-15.67-6-22l1.5.5 2.5 1.5 3.5 10.5 4.5-1.5q.75-15.75 12.5-20.5l17-8Z"/><path fill="#E2E1CD" stroke="#E2E1CD" stroke-width="3" d="m459.5 384 2.5.5-.5 29.5-5.5-.5v-26l3.5-3.5Zm47 18q11.5 1 15.5 9.5l-6.5 2.5-11.5-9.5 2.5-2.5Zm-43 18 4.5 1.5-3.5 10.5-2.5-1.5 1.5-10.5Zm-145 246 21.5 17.5 1.5 3.5 5.5 2.5-5.5.5-11-6-.5 2.5 6 9-2.5.5-7.5-5.5-1.5-3.5-5.5-2.5 2-1-3-5 6-1-5.5-11.5Zm-121 6 21.5.5 2 7-2.5 4.5-8.5-.5-1.5-5.5-2.5 1.5-2 5q8.12 6.38 6 23l-14.5 6.5-10-6-4.5 3.5-1 9q8.29 6.71 6 24l13.5 21.5 9 2 1.5-4.5-4-3q-9.05-9.95-9.5-28.5l-4 1-.5-10.5 3.5-2.5 7.5 5.5-2 1 3 2 .5-1.5q7.73 6.77 5.5 23.5l12 29v9l-2.5 4.5-11 5 1.5-2.5.5-3.5 5.5-2.5-1.5-3.5-15-6-1.5 10.5 6 2-.5 10.5-15.5-12.5-6.5-18.5-19.5-13.5 1.5-8.5 9 6 1.5-6.5-7.5-9.5-16.5-11.5.5-2.5 11.5 3.5 1.5 2.5 10.5-3.5-.5-1.5-5.5-1.5 3.5-5.5 2.5-.5-.5-4.5-23-1-6.5-3.5-7.5-20.5-9.5-.5 8.5-5.5 14-2 1 2 23-8 1 2q16.62 2.12 23-6Zm2.5 30-2 6h4l2-4-4-2Zm421.5-30 14.5.5-3.5 11.5-10.5 5.5-.5 1.5-6.5 4.5.5 1.5-52 29-25 6-20 10-7-4h-29l-2.5-2.5 2.5-3.5q13.79-9.71 41-6l29-12h12l8.5-5.5-.5-1.5 18.5-10.5-.5-1.5 18.5-10.5-.5-1.5 13-11Zm126 6h32l23.5 11.5-2 1 14 11-2 1 3 8-15 9 .5 1.5-7 3-6.5-3.5-2.5-4.5-20-2q-5.97-11.03-21.5-12.5l6-15-6-3 3.5-5.5Zm-627 12 5.5.5 1.5 11.5 1.5.5 12 30 21 35 6 24-1.5-.5-14-10-6 4-18.5-10.5-3.5-4.5-22-8-11.5-.5 5-11-5-1 2.5-5.5q12.37-2.13 17.5-11.5l2.5-5.5 1 2 8-3 5 12 4.5-1.5q-4.22-22.28-18.5-34.5l-4.5-.5 5-3 .5-5.5 6-3Zm15.5 48-2 1-8 11 2 6 10-6v-10l-2-2Zm3 12 7 24 4-1-8-21-3-2Z"/><path fill="#E2E1CD" stroke="#E2E1CD" stroke-width="3" d="m107.5 702 6.5 11.5-11.5.5-.5-8.5 5.5-3.5Zm720 12 .5 2.5-11.5 13.5-4.5 2.5-11.5 17.5-2.5-5.5 11.5-16.5 14-12 4-2Z"/><path fill="#E2E1CD" stroke="#E2E1CD" stroke-width="3" d="m741.5 720 3.5.5-1 16 3.5 1.5 3-12 9-6h8l6.5 3.5 1.5 8.5 3.5-.5 1-4-.5-1.5 11.5 5.5-2 1 2 3-5 6 1.5 2.5 4 3 1.5-.5q13.51 9.49 18.5 27.5l10.5-1.5-5-10 1.5-.5 4.5 2.5 16 20-1.5-.5q-6.33-6.17-21-4l-4 6-8.5 1.5 1.5 4.5h23l14 6 16 16 7 2 7.5-5.5 6.5-12.5 7.5-3.5 7.5-11.5 4-2-1.5 4.5-8.5 16.5-9.5 7.5.5 1.5-15.5 8.5-.5 20.5-16-6h-19l-24-12q-13.24 1.24-18-6h-13l-6.5-4.5-.5-1.5-9 6-3-12q-20-3-28 6l-.5-9.5 12-25v-11l-1.5-2.5-2.5 1.5-11.5 22.5-2.5-.5q-1.93-13.43 6-17v-12l15.5-36.5Zm.5 18-4 6 1 18h2q6-6 3-22l-2-2Zm22 0-2 11 5 1 1-10-4-2Zm20 6-10 17 3 1 9-11-1-6-1-1Zm-26 12-2 5 5 1 1-4-4-2Zm6 18-2 5 5 1 1-4-4-2Zm90.5-42 3.5 2.5-.5 3.5-5.5-2.5 2.5-3.5Zm-215 12 2.5.5 1.5 17.5q8.75-1.75 10.5 3.5-6.33 27.67-25.5 42.5l-22.5 3.5 1 4-3.5.5-5-6-3.5.5-1 4 .5 1.5-6.5-3.5 29.5-48.5 4-2 2.5.5 2.5 5.5 7.5-7.5 5.5-16.5Zm28 0 4.5 1.5-.5 4.5-5.5-2.5 1.5-3.5Zm163 0 3.5 2.5-.5 3.5-5.5-2.5 2.5-3.5Zm24 6 3.5.5-2.5 5.5-3.5-2.5 2.5-3.5Zm10 0 5.5 3.5-3.5 8.5-2-12Z"/><path fill="#E2E1CD" stroke="#E2E1CD" stroke-width="3" d="m885.5 762 .5 2.5-19 21 .5 1.5-7.5 5.5-2.5 11.5-5.5-3.5q-2.75-11.75 3.5-14.5l7.5-3.5 4.5-8.5q12.75-2.25 18-12Zm-187 12 3.5 2.5v25l-2.5 2.5-3.5-2.5v-25l2.5-2.5Zm-252 6 3.5 1.5-1.5 10.5-4.5-1.5 2.5-10.5Zm-120 12 3.5 2.5-.5 3.5-5.5-2.5 2.5-3.5Zm328 0 5.5 1.5-2.5 4.5-2.5.5-1 3 1.5 2.5 4.5 2.5-3.5 9.5-15.5-.5 6.5-15.5 6.5-4.5.5-3.5Zm63 0 2.5.5q2 9.5-3.5 11.5l-2.5-.5q-2-9.5 3.5-11.5Zm-339 6 2.5.5 3 8-10.5 3.5-1.5-2.5 6-5 .5-4.5Zm-100 6 15.5 1.5-1.5 4.5q-13 3.5-16.5-2.5l2.5-3.5Zm72 0 3.5 2.5-2.5 3.5-3.5-2.5 2.5-3.5Zm12 0 6.5.5-2.5 4.5-4 1-2.5-3.5 2.5-2.5Zm550 0 4.5 1.5-16.5 20.5-10.5 8.5-1.5 3.5-5 2-1.5-8.5 30.5-27.5Zm-708 6 5.5 2.5-1.5 3.5-4.5-1.5.5-4.5Zm272 0 3.5 2.5-2.5 9.5-3.5-2.5 2.5-9.5Zm240 6 3.5.5 2.5 5.5 3.5.5q2 9.5-3.5 11.5l-7.5-16.5 1.5-1.5Zm156 6 3.5 2.5-2.5 3.5-3.5-2.5 2.5-3.5Zm-2 18 5.5 3.5 1.5 2.5 4.5.5-1.5 4.5-8.5-4.5-1.5-6.5Zm39 0 2.5.5-3.5 5.5-2.5-.5 3.5-5.5Zm-492 6 2.5 1.5q-3 20 6 28v18l-2.5.5-9.5-23.5v-21l3.5-3.5Zm305 6 9.5 2.5-2.5 3.5-9.5-2.5 2.5-3.5Zm-421 6q13.25-3.25 16.5 3.5l1.5 2.5 4.5-1.5 2.5-3.5 9 5h30l6.5 3.5 12 26v7l18 35v12l-35.5.5-20.5-29.5-31-31-15-28 1.5-1.5Zm89 0 9.5 1.5 14 32v27l12 29-11.5.5-.5-18.5q-20.03-28.97-30-68l6.5-3.5Zm90 0 5.5 2.5-2.5 3.5-3.5-2.5.5-3.5Zm-234 6 8.5 6.5 8.5 14.5 1.5-.5 16.5 24.5 1.5-.5 16.5 24.5 1.5-.5 10 15-52.5.5-.5-12.5-9-17 3.5-.5 31 18 3.5-2.5 1-5-17.5-19.5-1.5.5-10.5-18.5-1.5.5-11-21 .5-6.5Zm44.5 72-3 5 5 1 1-4-3-2Zm258.5-66q22.03-3.53 31 6h31l17.5 7.5-2.5 4.5-11.5 5.5.5 1.5-12.5 10.5.5 1.5-38.5 31.5-1.5 9.5-5.5-.5 6-17-2.5-.5q-5.29 10.71-20 12l-1.5-2.5q16.55-12.45 12-46-7.6-3.9-6-17l3.5-6.5Zm274 6 4.5 3.5-.5 2.5-2.5-.5-1.5-5.5Zm56 6 11.5.5-6 5-3.5 9.5-8 3-3.5-11.5 9.5-6.5Zm-365 1 1.5.5.5 3.5 10.5 4.5q10 9.5 7 32l-2.5.5Q516 911 510 888.5l2.5-4.5 2-1Zm-21 5 8.5 7.5 8 16v13q8.12 6.38 6 23l-17.5.5-.5-30.5q-9.8-7.2-6-28l1.5-1.5Zm188 0 2.5 1.5q2.03 15.03-6.5 19.5L654 925.5l1.5 4.5h35l4.5 3.5 1 5-11 7-1.5 2.5-64.5-.5 29.5-32.5 10.5-5.5 4.5-9.5q12.75-2.25 18-12Zm-230 12 10.5 1.5-1.5 4.5-10.5-1.5 1.5-4.5Zm383 0q13.25.25 17.5 9.5l-.5 1.5-17.5-8.5.5-2.5Zm-496 42 3.5 2.5-.5 3.5-5.5-.5 2.5-5.5Z"/><path fill="#090A68" stroke="#090A68" stroke-width="3" d="m299.5 582 6.5 2.5-.5 2.5-3.5 2.5-1 2 4 5-4.5 5.5-1-14-8.5-.5 8.5-5.5Zm-9 11 3.5 4.5h-1l-2.5-4.5Zm-24 79 3.5 2.5v25l-2.5 2.5-3.5-2.5v-25l2.5-2.5Zm424 4 5.5 3.5-5.5 9.5v-13Zm29 2 5.5.5-8 5-2.5 5.5-.5-5.5 3.5-4.5 2-1Zm-459 30 3.5 2.5-2.5 3.5-3.5-2.5 2.5-3.5Zm90 0 3.5 2.5-.5 3.5-5.5-2.5 2.5-3.5Zm30 12 8.5 5.5-8.5.5-2.5-3.5 2.5-2.5Zm307 0 2.5.5-.5 6.5-4-1-1.5.5 3.5-6.5Zm-293 6 12.5 5.5-5.5.5-7-6Zm28 0 3.5 2.5-2.5 3.5-5.5-.5 4.5-5.5Zm417 6 .5 2.5-6 5 1.5 4.5 4.5 3.5-2.5 1.5-3.5-2.5-1.5-2.5-6.5-.5 13.5-11.5Zm15 12 3.5 2.5-2.5 3.5-3.5-.5 2.5-5.5Zm-26 12 17.5.5-3.5 4.5-13 1-1-6Zm-529 24 13.5.5-1 4 .5 1.5-18.5 9.5 1.5 2.5q13-3.5 16.5 2.5l-2.5 3.5-4 1-11.5-4.5-.5-1.5-4-1-1.5.5 3.5-6.5 8.5-3.5-.5-2.5q-15.18.82-20.5 11.5l-.5 1.5-2.5 1.5-5.5 7.5-1-4-5.5-2.5 15.5-14.5 20-7Zm24 0 12.5.5-2.5 5.5-10.5-.5 1-4-.5-1.5Zm21 0q12.25-3.25 15.5 2.5l-2.5 3.5q-12.25 3.25-15.5-2.5l2.5-3.5Zm18 6 4.5.5-1 4 4 3 2 6-12-11 2.5-2.5Zm-44 12 3.5 1.5 2 4-7.5.5 1.5-2.5.5-3.5Zm342 4 5.5 7.5-3.5.5-2-8Zm-273 2h9l21.5 13.5 2 10-21.5 17.5q-18.22-1.72-26 7h-58l-2.5-3.5 2.5-2.5h22l5.5-3.5-1.5-2.5-40.5 1.5 1 4-31.5.5-9.5-7.5-2-17 8.5-10.5 3.5 2.5.5 2.5 5.5 3.5 6.5 12.5 3.5 1.5-10 1 3.5 6.5 8 4 1-6 10 1 1.5-4.5-11.5-4.5-1.5.5q-6.61-4.89-5-18l6.5-3.5-.5 1.5 2.5 4.5 3.5.5-2.5 5.5-3.5.5 1.5 3.5 4 2h2l16.5-2.5.5-3.5 5.5-.5.5-5.5 5.5 3.5.5 2.5 4.5.5-11 8 1.5 3.5 8-5 8 5 .5-2.5-3.5-4.5-2.5-1.5 1.5-3.5 5.5.5-1 4 4.5 1.5 3-5 4.5 2.5.5 2.5 11.5 2.5 1.5 3.5 4-1 4 1 3-6 3.5-1.5 11.5-22.5ZM350 834l-2 5 11 1 1-4-10-2Z"/><path fill="#090A68" stroke="#090A68" stroke-width="3" d="m305.5 809 .5 6.5-5.5.5-.5-2.5 5.5-4.5Zm63 1 3.5 2.5-.5 14.5-2.5-4.5 2-1-5-3-.5-2.5-4.5-.5 7.5-5.5Zm-23 6q11.5-3 14.5 2.5l-8.5 3.5-6-6Zm18 6 2.5 6.5-1.5-.5-4.5-2.5 3.5-3.5Zm75 6 5.5 2.5-.5 6.5-5-9Zm48 30 4.5.5-4.5 8.5v-9Zm-40 30 3.5 1.5-2.5 4.5-3.5-.5 2.5-5.5Zm21 0 12.5 3.5-.5 2.5-12.5-.5 1-4-.5-1.5Zm-11 5 6.5 1.5-1 4 .5 1.5-6.5-2.5.5-4.5Zm32 19 3.5 2.5-.5 5.5-5.5-4.5 2.5-3.5Z"/><path fill="#0D1DB0" stroke="#0D1DB0" stroke-width="3" d="m657.5 582 2.5 8.5-9.5 8.5-8.5-8.5 2.5-2.5 13-6Zm-367 6 9.5.5q3.5 18-7.5 21.5l-3 1-1.5-7.5 4.5-5.5 1.5-.5-5-8 1.5-1.5Zm395 138 4.5 1.5-2.5 4.5-3.5-2.5 1.5-3.5Zm139 18 4.5.5-1 4 .5 1.5-6.5-2.5 2.5-3.5Zm-511 36 10.5 1.5-1.5 4.5-10.5-1.5 1.5-4.5Zm-20 6 6.5.5-1.5 3.5-8.5 3.5-2 9 .5 1.5-12.5 1.5-.5 7.5-4.5-2.5-1-2 7.5-9.5 1.5-.5 6.5-7.5 8-5Zm-7.5 6-4 6h3l3-5-2-1Zm58.5 24 11.5 6.5-2 4 .5 1.5-6.5-.5-2.5-4.5-3 1-1-2-4.5-.5 7.5-5.5Zm-51 4 .5 7.5-1.5-.5-4.5-2.5.5-2.5 5-2Zm36 2 1.5.5-1 3 5 4 1 4-2.5.5-7-5-5.5 4.5 3-5-2.5-.5-3.5 2.5 11.5-8.5Zm37 3 5.5 2.5v2l-2.5 4.5-3.5-.5.5-8.5Zm-26 18-1 2-1.5-.5 2.5-1.5Zm116 33 5.5 2.5-2.5 3.5-3.5-.5.5-5.5Zm2 12 9.5 1.5-1.5 4.5-10.5-1.5 2.5-4.5Z"/><path fill="#376AA8" stroke="#376AA8" stroke-width="3" d="m659.5 592 1.5 2.5-3.5 17.5-9 3-.5-14.5 9-6 .5-1.5 2-1Zm-366 17 .5 9.5 8 17-2 1-.5 2.5-9-14-7-1-1.5.5 2.5-12.5 9-3Zm-11 24 5.5 12.5h-1l-4.5-12.5Zm12 24 5 8 1-2 2 3-2.5.5-.5 1.5-5-11Zm392 9 8.5.5-3.5 8.5-1.5.5-.5 3.5-3-1-2.5 1.5 2.5-13.5Zm37 13 5.5 4.5.5 1.5 1.5.5-10.5 33.5-.5-5.5 5-8-5.5-15.5-5 2-.5-2.5 7.5-9.5 2-1Zm-351 26 4.5 2.5-2 1q4.54 7.46 18.5 5.5l8 6q14.5-4 18.5 2.5l-3.5 9.5-3.5-.5 1-5-5.5-.5-.5 4.5.5 1.5-24.5-9.5-1.5-2.5q-13.96 1.96-18.5-5.5l2.5-.5 11 5 .5-1.5-7.5-8.5-1.5-.5 3-1 .5-2.5Zm459 15 2.5.5-2.5 5.5-3.5-.5 3.5-5.5Zm-32 6 7.5.5-7.5 5.5-1.5-4.5 1.5-1.5Zm40 10 1.5 7.5-4.5.5-2.5-3.5 5.5-4.5Zm-23 8 6.5.5-1 4 .5 1.5-8.5-.5 2.5-5.5Zm-5 12 10.5 2.5-.5 5.5-1-3-9-5Zm-731 6 3.5.5-1.5 5.5-4.5-1.5 2.5-4.5Zm633 19 .5 5.5-5.5 10.5-.5-5.5 5.5-10.5Zm-345 5 3.5 2.5 2 3-2 1-.5 4.5-5.5-8.5 2.5-2.5Zm95 6 4.5 1.5-2.5 4.5-3 2-1-2-2.5-.5 3-2 1.5-3.5Zm-20 4 1 8 4.5.5-5 3-.5 13.5-5.5-16.5 5.5-8.5Zm34 8 2.5 1.5-.5 5.5-4-1-1.5.5 3.5-6.5Zm-117 12 5.5.5-.5 5.5-5.5 2.5-.5 3.5-5.5-1.5 6.5-10.5Zm-22 6 3.5.5-2.5 5.5-3.5-2.5 2.5-3.5Zm532 5 4 1h2l2.5.5-4.5 5.5-5.5-1.5-2-4 3.5-1.5Zm-725 1 4.5 1.5-1.5 4.5-4.5-1.5 1.5-4.5Zm328 3 .5 13.5-2.5.5-7.5-5.5-4-5 13.5-3.5Zm-185 1 5.5 3.5-1.5 4.5-9.5-5.5 5.5-2.5Zm14 8 4.5.5-1 4 .5 1.5-6.5-2.5 2.5-3.5Zm9 0 13.5.5-1 4 .5 1.5-13.5-.5 1-4-.5-1.5Z"/><path fill="#5195CA" stroke="#5195CA" stroke-width="3" d="m659.5 610 .5 14.5-11.5 26.5-6 3-1-6-2.5-.5 9-17q-3.75-14.75 3.5-18.5l8-2Zm-372 14 5.5 3.5 6.5 11.5 1-2 5 10 1-3 1.5 3.5-2 1 5.5 8.5 1.5-.5 1 3-8 1-.5 5.5-5-3-1 2-5-8-1 2-10.5-26.5 5-4-.5-4.5Zm73 76 3.5 1.5-3 1 10 5-2 1 2 1 7 9-2.5.5-20.5-10.5v-2l-1-4 6-1 .5-1.5Zm48 26 5.5.5-1.5 5.5-4.5-1.5.5-4.5Zm301 0 4.5.5-.5 7.5-5.5-4.5 1.5-3.5Zm-379 42 5.5 2.5-2.5 3.5-4.5-.5 1.5-5.5Zm518 0 3.5 2.5-2.5 3.5-3.5-2.5 2.5-3.5Zm-549 36 6.5 2.5-2.5 3.5-4.5-.5 1-4-.5-1.5Zm-23 10 1 3 4.5 2.5-.5 4.5q-7.3-1.8-5-10Zm168 18 5.5 3.5-1.5 4.5-4 2v-10Zm-137 8 4.5 1.5-1.5 4.5-4.5-1.5 1.5-4.5Zm18 0 10.5 2.5-2.5 3.5-9.5-1.5 1.5-4.5Z"/><path fill="#A5BBB7" stroke="#A5BBB7" stroke-width="3" d="m661.5 612 4.5 1.5-.5 11.5-3.5-2.5-2-9 1.5-1.5Zm-2 13 1 5 2.5.5-2.5 4.5-1-4-5 7-.5-2.5 5.5-10.5Zm-353 23 2.5.5 3 7-4-3-1.5-4.5Zm0 12 13.5 5.5-2 1-.5 2.5-2-3-3.5.5-.5 5.5-5-3-1 2-2.5-4.5 3-1 .5-5.5Zm335 9 1 2-3.5.5 2.5-2.5Zm-420 8 .5 1.5h-1l.5-1.5Zm-14 1 2.5 1.5.5 4.5 2.5.5-3 6q8.82 7.68 6 27-3.25 5.75-6.5-1.5l-10.5-2.5 11-6q2-17-6-24l3.5-5.5Zm111 3 2 3-1.5.5 8 5-3.5-.5-7.5-4.5 2-1 .5-2.5Zm429 3q5.25 2.75-.5 5.5l-3 6 2 1-2 5q15.14 1.36 21 12l-5.5.5-5-6-4 1-6-1-.5 4.5.5 1.5-6.5-3.5q-2.58-18.08 5.5-25.5l1 2 3-3Zm-616 6 2.5.5-8 7 1.5-5.5 4-2Zm215 0 13.5 9.5-.5 2.5-7 1-3-1-5 6-4.5-5.5 6-2 2-8-1.5-2.5Zm470 10 17.5 10.5-2.5 3.5-3 2-1-2-17 15-1-3-1.5-.5 14-15q-7.85-1.85-5.5-10.5Zm-707 2 4.5.5 10 12-1.5-.5-2.5.5 2 11-7.5 3.5-2.5-14.5 2-1-6-10 1.5-1.5Z"/><path fill="#A5BBB7" stroke="#A5BBB7" stroke-width="3" d="m199.5 702 4.5 1.5-2.5 4.5-3.5-.5 1.5-5.5Zm-14 6 9.5 5.5-14.5 1.5-.5-1.5 3.5-4.5 2-1Zm169 0 7.5 5.5-1.5.5-6.5-3.5.5-2.5Zm325 0 4.5 1.5-1.5 4.5-4.5-.5 1.5-5.5Zm-512 6 6.5 1.5-.5 4.5-3.5 1.5-1.5 3.5-1-11Zm642 0 2.5.5-9.5 6.5 1-4 6-3Zm-629 5 2.5 1.5 3 10h-1l-4.5-11.5Zm-37 1 16.5 5.5-3.5 1.5-6-1-.5 2.5 22 17 2 9-2.5 1.5-8-6-1.5 8.5 11.5 12.5 6 3 1-2 2.5 1.5q2.11 20.39 16.5 28.5l4 1 .5-10.5v-2l-1.5-4.5-4 1-.5-5.5 6.5-1.5 8.5 5.5-3 1 1 5-3.5 7.5-1.5.5-2 4v2l1 4-1 5 4.5 1.5 1.5-.5-2.5 6.5-3.5-2.5-9.5-21.5-8.5-3.5-1.5-2.5-9.5 3.5-4.5 7.5-3 1-4.5-3.5-2.5-8.5-4.5-3.5-1.5-2.5-4.5 1.5 1 4-1.5 2.5-14.5-13.5 2.5-1.5 10 6 6-4 14 11 10.5-7.5 2-7-11-7-4.5-8.5-2.5.5-.5 4.5-12.5-23.5 3.5.5 9.5-1.5-1.5-4.5-16-6-.5 2.5 2.5 3.5-8.5-12.5 1.5.5 3.5-.5 1-4-.5-1.5Zm602 0 4.5 1.5 1 4-2.5.5-4 1-.5-5.5 1.5-1.5Zm-541 4 5.5 12.5h-1l-4.5-9.5-1 2-2-3 2.5-.5.5-1.5Zm570 0 5.5 3.5-1.5 4.5-4.5-1.5.5-6.5Zm-605 2 4.5 1.5-1.5 2.5-5 2 .5-1.5 1.5-4.5Zm612 0 12.5 5.5-2 1 .5 5.5 1.5.5-2 6-.5 2.5-4.5-3.5-1-2 5-7-1.5-2.5 1.5-.5-9.5-5.5Zm34 3 1 2-4.5 1.5 3.5-3.5Zm-101 1 5.5 3.5-2.5 4.5-3.5-2.5.5-5.5Zm-69 2 2.5.5q-2.7 21.7 6 32l-3.5-2.5-8.5-1.5-.5-16.5-3.5 1.5-1.5 3.5-.5-4.5 5.5-10.5 4-2Zm24 0 2.5 12.5-1.5-.5-4 1-.5-6.5 3.5-6.5Zm173 0 3.5 2.5-1.5 3.5-4 1-.5-4.5 2.5-2.5Zm-656 5 4 1h2l3.5 1.5 2 6-2.5-1.5-3.5.5 1.5 3.5 3.5 1.5-4 1 8 5 2.5 5.5 1-4 2.5 4.5-3 1 1 5-1.5.5-9.5-7.5-5-10 3-1-5.5-12.5Zm342 0 3.5 1.5-12.5 4.5v-1l9-5Zm-426 1 2.5.5-10.5 5.5 2-3 6-3Z"/><path fill="#A5BBB7" stroke="#A5BBB7" stroke-width="3" d="m135.5 738 2.5 1.5.5 10.5 3.5 1.5 8 21-4.5 1.5-8-24-10 6-1.5-6.5 7.5-10.5 2-1Zm606 0 2.5 1.5-.5 5.5-4-1-1.5.5 3.5-6.5Zm22 0 4.5 1.5-1.5 10.5-4.5-1.5 1.5-10.5Zm-136 6 2.5 1.5 1.5 10.5 4-1 .5 1.5-9.5 11.5-3-6-5 3-.5-2.5 9.5-18.5Zm156 0 1.5.5 1 6-9.5 11.5-2.5-1.5 9.5-16.5Zm31 1-2 5-2.5 1.5-.5 4.5-5.5-2.5 10.5-8.5Zm-604 1 15 34 2.5 1.5-1.5 4.5-2.5 1.5-1.5 3.5-2.5.5.5 1.5 1.5-4.5v-9L210.5 746Zm462 0 2 4 3.5 2.5-2.5 3.5-3.5-2.5-2-3 2-1 .5-3.5Zm-579 4 2.5.5-5 11q15.23-1.23 22 6l-19.5.5q-6.25-2.75-3.5-14.5l1.5-2.5 2-1Zm622 0 4.5 1.5-2.5 4.5-3.5-2.5 1.5-3.5Zm126 0 4.5 2.5-2.5 3.5-3.5-1.5 1.5-4.5Zm-103 5 4 1 1.5-.5-3.5 6.5-1.5-.5-.5-6.5Zm-441 1 2.5 1.5-1.5 14.5-10 2-.5-6.5 9.5-11.5Zm394 0 4.5 2.5-2.5 3.5-3.5-1.5 1.5-4.5Zm66 0 4.5 1.5-1.5 4.5-4.5-1.5 1.5-4.5Zm-32 1 .5 5.5-5.5 10.5-.5-5.5 5.5-10.5Zm10 5 1.5.5 1 6-1.5-.5-4 1-.5-1.5 3.5-5.5Zm-411 6 5.5 1.5-1.5 4.5-4.5-1.5.5-4.5Zm281 0 .5 2.5-14.5 16.5-25.5 17.5-2 4 .5 1.5-8.5-.5 21.5-21.5 28-20Zm-443 1 3 6 5.5 4.5 3 4-1.5 2.5-4 2-6-19Zm491 0q-1.12 16.13 6.5 23.5l-1.5-.5-4.5.5-5.5 8.5-.5-2.5-.5-6.5-3.5 1.5-7.5 13.5-16 9h-13l-1.5-4.5q26.57 2.07 34-15l13.5-27.5Zm-527 5 1.5.5-1.5.5v-1Zm637 0 4.5 1.5-1.5 4.5-4.5-1.5 1.5-4.5Zm-314 6 6.5 3.5-.5 4.5-6-8Zm367 0 13.5.5-2 1 6.5 8.5 3.5 1.5 3.5 6.5q-11.05-8.45-31.5-7.5l6.5-10.5Zm-97 1 1 5 2.5.5-2.5 4.5-1-4-5 8-.5-3.5 5.5-10.5Zm-120 9 .5 2.5-12 20 2.5 3.5-8.5-1.5 1.5-4.5 2.5-1.5 13.5-18.5Zm252 0 .5 9.5-2.5-1.5-3.5-2.5 2.5-3.5 3-2Zm-478 3 6.5 4.5-2.5 1.5-2.5-1.5-1.5-4.5Zm340 6 1 5 5-3 1.5 8.5-2.5.5-10.5-2.5 1.5-3.5 2.5-1.5 1.5-3.5Zm-264 2 1 2-3.5.5 2.5-2.5Zm-263 3 5.5 1.5-1.5 10.5-4.5-2.5.5-9.5Zm107 0 6.5 1.5-1.5 4.5-5.5-.5 1-4-.5-1.5Zm76 0 5.5.5-3 4 .5 1.5-7.5-.5 2-1 2.5-4.5Zm368 0 17.5.5 1 6-1.5-.5-4.5 1.5-1.5 8.5-10 2-2-12-2.5.5-1.5 2.5-11 4-.5-1.5 8-5 2.5-3.5 6-3Zm-354 3 .5 2.5-5.5 10.5-1.5-4.5 1-4-.5-1.5 6-3Zm-305 3 11.5 1.5-1.5 4.5-10.5-3.5.5-2.5Zm372 0 5.5 2.5-1.5 3.5-4.5-1.5.5-4.5Zm145 0 3.5.5 4 5-3 1-.5 2.5-4.5-2.5-1-4 1.5-2.5Zm170 0 1.5.5 2.5 3.5 3.5 1.5-15.5 6.5-1.5-6.5 1.5.5 8-6Zm-321 4 6.5 5.5q6.82 2.68 5 14l-1.5-.5-10.5-8.5.5-10.5Zm-306 2 9.5 7.5 2 4-5.5.5-6-12Zm19 0 4.5 2.5-.5 3.5-5.5-1.5 1.5-4.5Zm145 0 3.5 2.5-2.5 9.5-3.5-2.5 2.5-9.5Zm479 0 15.5 5.5-5.5.5-10-6Zm18 6 15.5 5.5-5.5.5-10-6Zm65 5 3.5 2.5 2 10h-1l-4.5-12.5Zm-582 1 2.5.5 2 4-1.5-.5-3.5-1.5.5-2.5Zm598 4 1.5.5 1 7-2.5.5-4.5-1.5 2.5-5.5 2-1Zm-790 2 17.5 7.5-1.5 4.5-14.5-1.5-1.5-10.5Zm385 0 4.5 1.5q1.75 8.75-3.5 10.5l-2.5-.5 1.5-11.5Zm-57 7 1.5 5.5-1.5-.5-4 3-.5-5.5 4.5-2.5Zm2 12q7.39 6.11 5.5 21.5h-1q-7.31-6.81-4.5-21.5Zm-124 5 4.5.5-1 2 7 10-1.5 3.5-5-7-1.5.5-5-7 2.5-2.5Zm19 0q18.08-2.58 25.5 5.5l-5.5.5-9-5-4 5-4.5-1.5-2.5-4.5Zm84 0 8.5 3.5q-1.75 10.75 3.5 14.5l2.5-.5.5-4.5 9 23 2.5-.5.5-10.5 5.5 17.5-3.5 5.5-7.5-3.5-2.5-8.5-4 1-15-37Zm439 0 20 16 11.5 2.5 1.5 3.5 7.5 2.5-9 6-.5 3.5-7-10-10.5-.5-13.5-23.5Zm-454 7 6.5 17.5-1.5 2.5q-8.15-5.43-5-20Zm-12 2 11.5 25.5h-1L372.5 867Zm505 3 4.5 1.5-1.5 4.5-4.5-.5 1.5-5.5Zm-631 1 5.5 12.5-3-2-2.5-10.5Zm301 2-.5 1.5-.5 1.5-.5-1.5 1.5-1.5Zm278 3 14.5 7.5-1.5 4.5-12.5-5.5 2-1-2.5-5.5Zm-331 6 15 23 1-4 3 4 1.5-.5-5-15h1q5.44 22.06 20.5 34.5l2.5-.5.5-16.5 6 17 3.5-1.5 2.5-37.5q10.41 9.09 5.5 33.5l-12 22 6.5 1.5 17-12 .5 2.5-6.5 15.5-23.5-.5v-12L515.5 906l-5.5.5-.5 4.5-15-23-2 1-.5-4.5 2.5-2.5Z"/><path fill="#A5BBB7" stroke="#A5BBB7" stroke-width="3" d="M515.5 882h2q10.75.25 14.5 7.5l2 15h-1l-8.5-15.5-8.5-2.5-.5-4.5Zm-4 3-.5 1.5-.5 1.5-.5-1.5 1.5-1.5Zm376 0 1 3 2.5.5-2.5 4.5-1-2-2 4-3 1-.5-2.5 5.5-8.5Zm-209 3 2.5.5-16.5 11.5 8-9 6-3Zm5 0 6.5 2.5-1.5 3.5-2.5 1.5-1.5 3.5-1-11Zm-425 3 4.5 5.5-2-1-2.5-3.5-1.5.5 1.5-1.5Zm577 3q12.62.88 17.5 9.5l5 6-6.5 2.5.5-1.5-7.5-8.5-10.5-3.5 1.5-4.5Zm-451 1 17.5 39.5h-1l-17-34 .5-5.5Zm12 0 17.5 39.5h-1l-17-34 .5-5.5Zm216 1-8 11-1.5-1.5 9.5-9.5Zm-166 4 4.5.5-1 4 .5 1.5-6.5-2.5 2.5-3.5Zm15 0h22l2.5 2.5-2.5 3.5-22.5-.5 1-4-.5-1.5Zm-47 1q8.42 8.08 5.5 27.5h-1q-8.21-8.71-4.5-27.5Zm-144 8 15 16-16.5-14.5 1.5-1.5Zm222 0q8.05 5.45 5.5 21.5l-5.5 7.5v-29Zm180 2 2.5 1.5-15 9 .5 2.5 16 4 13-4 9.5 6.5 3 6-3.5 4.5-8.5 4.5-.5 2.5-5.5-.5 3.5-4.5 8.5-4.5-3.5-7.5-38.5-2.5.5-3.5 18-14Zm-162 2q7.39 6.11 5.5 21.5h-1q-7.31-6.81-4.5-21.5Zm-257 5 22.5 9.5 1 6-4.5-3.5-19-12Zm-7 4 8.5 7.5 3 10h-1l-11-13 .5-4.5Zm48 0 6.5 9.5-4-1-2.5-8.5Zm126 9 5.5 15.5h-1l-4.5-15.5Zm-130 5 3.5 1.5-1.5 4.5-4.5-1.5 2.5-4.5Zm112 1 5.5 10.5-5.5.5v-11Zm114 0 5.5 10.5-5.5.5v-11Z"/><path fill="#84D3D1" stroke="#84D3D1" stroke-width="3" d="m660.5 619 3 5 2.5 1.5-2.5 4.5-3.5-.5.5-10.5Zm-1 12 .5 16.5-11.5 16.5-4.5 2.5-1.5 3.5-3.5 1.5-2.5 5.5-1-5-13.5-.5q12.37-8.13 17.5-23.5l2.5.5.5 5.5 7.5-4.5 9.5-18.5Zm19 5 11.5 2.5-2.5 3.5-9.5-3.5.5-2.5Zm-366 30 3.5.5 1.5 2.5 1-2 5.5 10.5-6 1-.5 5.5-8.5-6.5-3-8 3.5 2.5 2.5-.5.5-5.5Zm18 18 17.5 8.5-3.5 9.5-12.5-5.5 4-1-5.5-11.5Zm299 0 2.5.5-9.5 5.5 3-4 4-2Zm120 3 .5 3.5-3.5 5.5-2.5-.5 5.5-8.5Zm-5 21 5.5.5-2.5 5.5-3.5-1.5.5-4.5Zm-548 12 7.5 3.5-.5 2.5-7-6Zm-3 12 4.5 1.5-.5 9.5-3-5-2.5-.5 1.5-5.5Zm599 0 5.5 2.5-2.5 3.5-3.5-.5.5-5.5Zm-606 7 5.5 10.5-2.5.5-3-11Zm12 6 5.5 15.5h-1l-4.5-7.5-5.5-2.5 5-1 .5-4.5Zm6 17 5.5 1.5-1.5 4.5-4.5-1.5.5-4.5Zm521 1 .5 5.5-5.5 7.5-.5-2.5 5.5-10.5Zm-610 5 12.5 5.5-2.5.5-10-6Zm56 0 8.5 3.5-.5 2.5-8-6Zm560 1 .5 5.5-11.5 22.5-1-5-2.5-.5 2.5-4.5 1 4 11-22Zm-281 14 5.5 8.5-5.5 10.5-4 2-2.5-.5.5-12.5 4 1 2-9Zm-251 3 4.5 1.5-1.5 4.5-4.5-1.5 1.5-4.5Zm606 0 7.5.5-3 4 .5 1.5-6.5-1.5 1.5-4.5Zm-74 1 .5 5.5-5.5 7.5-.5-2.5 5.5-10.5Zm-581 5 3.5 1.5 1 3-1.5.5-3.5-2.5.5-2.5Zm509 4 .5 9.5-2.5-1.5-2.5-.5-1-3 1.5-2.5 4-2Zm-18 12 .5 6.5-3.5 1.5-2.5-3.5 5.5-4.5Zm84 1 3.5 1.5-8 5-.5 1.5-.5-2.5.5-4.5 5-1Zm-351 7 3.5.5-2.5 5.5-3.5-2.5 2.5-3.5Zm495 0 2.5.5-7.5 6.5-.5-3.5 5.5-3.5Zm-5 13 5 11 1-5 2.5 4.5-3 1 2 5-2.5.5-10.5-5.5 5-1 .5-10.5Zm23 9 .5 9.5-2.5-1.5-3 2-1.5-2.5 1.5-5.5 5-2Zm-645 20 3.5 2.5 2 3-2 1-.5 10.5-5.5-14.5 2.5-2.5Zm649 24 2.5.5-3.5 5.5-2.5-.5 3.5-5.5Zm-645 36 5.5 3.5-.5 5.5-5-9Zm251 13 .5 16.5-5.5.5-.5-9.5 5.5-7.5Z"/><path fill="#ECE563" stroke="#ECE563" stroke-width="3" d="m156.5 678 1.5.5-7.5 5.5-.5-2.5 6.5-3.5Zm-131 90 4.5.5-.5 5.5-5.5-2.5 1.5-3.5Zm523 42 15.5 1.5-1.5 4.5q-13 3.5-16.5-2.5l2.5-3.5Zm52 6 25.5.5-3 1-2.5 4.5q-14.45 2.45-20.5-3.5l.5-2.5Zm-64 12 4.5.5 2 5-6.5.5-2.5-3.5 2.5-2.5Zm-31 6 4.5 1.5-1.5 4.5-4.5-1.5 1.5-4.5Zm85 0 3.5 2.5 2 3-5.5.5-2.5-3.5 2.5-2.5Zm46 5 5.5 2.5-2.5 4.5-3.5-2.5.5-4.5Zm-84 1 7.5 5.5-1.5.5-6.5-3.5.5-2.5Zm-17 12 16.5 1.5-1.5 4.5-16.5-1.5 1.5-4.5Zm84 6 22.5 1.5-1.5 4.5-22.5-1.5 1.5-4.5Z"/><path fill="#E8CA1E" stroke="#E8CA1E" stroke-width="3" d="m93.5 714 2.5.5 2 5-9.5.5 5-6Zm-15 12 16.5 1.5-4.5 6.5-1-2-5 1-7-1h-2l-7.5-.5 10.5-5.5Zm5 12 2.5.5-14 9-3.5 8.5Q48 760 38 774.5L34.5 786l-4.5-1.5-3-10 3-1 2.5-4.5 7.5-3.5 4.5-7.5 22-9 2 1 9-10 6-2Zm-36 4 .5 2.5-3.5 4.5-4 1 7-8Zm-12 12 .5 2.5-8.5 11.5-3 1 .5-1.5L35.5 754Zm591 62 9.5 1.5-1.5 4.5-13.5-.5 2.5-4.5 3-1Zm-85 12 14.5 5.5 3.5 6.5 4.5-1.5 1.5-2.5 7-2 3.5 8.5q-4.06 5.44-15.5 3.5l-8-6-1 2-9.5-7.5v-2l-.5-4.5Zm60 6 4.5 1.5-1.5 4.5-4.5-1.5 1.5-4.5Zm19 0 3.5 1.5-.5 4.5-5.5-2.5 2.5-3.5Zm-116 11 4 1 1.5-.5-2.5 6.5-3.5-2.5.5-4.5Zm19 7 11.5.5-1 4 .5 1.5-12.5-1.5 1.5-4.5Zm90 6 5.5.5-1 4 .5 1.5-6.5-1.5 1.5-4.5Z"/><path fill="#EDE511" stroke="#EDE511" stroke-width="3" d="m66.5 732 10 1 7-1h2l4.5.5-3.5 5.5-9.5 2.5-8.5 9.5-2-1-22.5 9.5-4.5 7.5-9 5-1-3-1.5-.5L39.5 750l7.5-3.5 1.5-5.5 18-9Z"/><path fill="#2231C6" stroke="#2231C6" stroke-width="3" d="m285.5 792 2.5.5-3.5 5.5-2.5-.5 3.5-5.5Zm-15 17 1 2 4.5 2.5-.5 4.5-5.5-2.5.5-6.5Zm96 11 3.5 1.5-1 2 2 3-1.5.5-3.5-2.5-1-2 1.5-2.5Zm-45 8 2.5.5-3.5 5.5q-5.5-3 1-6Zm-28 6 6.5 2.5-2.5 3.5-4.5-.5 1-4-.5-1.5Zm60 0 6.5 2.5-2.5 3.5-4.5-.5 1-4-.5-1.5Zm-18 6 6.5 2.5-6.5 3.5.5-1.5-.5-4.5Z"/><path fill="#A0A61E" stroke="#A0A61E" stroke-width="3" d="m542.5 810 4.5.5-1 4 .5 1.5-6.5-2.5 2.5-3.5Zm93 6 11.5.5-11.5 5.5.5-1.5-.5-4.5Zm24 5 .5 4.5-4.5 2.5-1.5-5.5 5.5-1.5Zm-85 8 1.5.5 2 4-2 1-.5 4.5-3-5-8.5 3.5-.5 1.5-4 1-3.5-6.5 1.5.5q12.43 1.43 17-5Zm19 5 7.5.5-1 4 .5 1.5-6.5-3.5-.5-2.5Zm12 0 6.5 1.5-1.5 4.5-5.5-.5 1-4-.5-1.5Zm18 0 13.5.5-1.5 6.5-4-1-3 4-3 1-6.5-4.5 5-1-.5-5.5Zm-106 18 5.5.5-1 4 .5 1.5-6.5-1.5 1.5-4.5Zm90 6 5.5.5-1 4 .5 1.5-6.5-1.5 1.5-4.5Z"/><path fill="#756A11" stroke="#756A11" stroke-width="3" d="m649.5 822 4.5 1.5 1 4-4.5.5-2.5-4.5 1.5-1.5Zm-18 18 4.5 1.5 1 4-11.5.5-1-2 2 1 3.5-2.5 1.5-2.5Zm-119 12 4.5.5-1 4 .5 1.5-6.5-2.5 2.5-3.5Zm89 6 5.5.5-1 4 .5 1.5-6.5-1.5 1.5-4.5Z"/><path fill="#0808D1" stroke="#0808D1" stroke-width="3" d="m276.5 834 11.5 3.5-1.5 7.5-10.5-8.5.5-2.5Z"/></svg>