<svg viewBox="0 0 528 528" xmlns="http://www.w3.org/2000/svg"><path fill="#151212" stroke="#151212" stroke-width="3" d="M268.5 66h33l22 8 7.5 7.5.5 1.5 10 3 28.5 28.5 32 58v13l12 23v25q9.71 9.29 6 32l-6 11v37q-11.12 11.88-6 40l6 11v31q7.24 4.76 6 18 6.92 25.08 24.5 39.5l10.5 5.5 3.5 7.5 50.5 22.5 13 20v19l-5.5.5-.5-13.5q-10.04-7.46-12.5-22.5h-11L451 472.5l-1.5-10.5q-12.61-.89-17.5-9.5l-3.5-8.5-6-3 1 2 1.5.5-7.5.5-13-17-8.5-4.5-1.5-2.5-4.5-.5 6.5-.5 4 3-3-4-9-1-3.5 2.5-3.5 9.5-.5-10.5 4-16v-2l6-15-1-8 6-24-4-12 7-20q-6.32-14.18-4-37l-6.5-13.5-5 2-.5-2.5 4-10h-1L372.5 287l-.5-4.5 4.5-8.5 1 2 7-26 3 10 6.5-21.5-8.5-14.5q-4.81-7.69-19-6l-3.5 2.5-5 13 1 8-7.5 9.5-4.5-2.5-7-34-22.5-37.5-9-3-.5 1.5 12 7 1 2-3-2-1.5-2.5q-8.75 1.75-10.5-3.5l.5-3.5 1.5.5-6.5-8.5-1.5.5 2.5 3.5-14.5-10.5.5-3.5 10 9-9-10-6.5-4.5 4.5-9.5 23-3 3 1 3.5-1.5-7-11 5.5-1.5 22 15 13-24 6.5-3.5L337.5 91l-3.5-2.5 1.5.5 1.5-.5L309.5 75l-1 2-4-5-8-1-21 1-3-1-7 2-2-1-5.5 3.5 1.5.5 1.5-.5-8.5 14.5-1.5.5-1 6 2 9-5.5 9.5-3-1-11 3-4-6-9.5 3.5-2.5 7.5-3.5-.5-1-7 5.5-13.5 17.5-6.5 7-14q-2.5-6-13.5-3.5-17.03 1.97-26.5 11.5l-9 17 1 6-1.5 2.5-8.5 3.5-1 5 3.5 4.5 5.5 2.5 1 5-3.5 4.5 2-1 .5 2.5-28 16-8 16q4 15.5-3.5 19.5l-1-5-3 12-2.5.5-1.5 3.5-.5-12.5 6-11v-25q7.24-4.76 6-18L182.5 97l7.5-3.5 4.5-8.5 26-13h37l11-6Zm94.5 52 10 30 20 36h1l-5-19-23-44-3-3Zm6 2 8 20 2 1-10-21Zm-183 19v1h3l-3-1Zm-3 1v1h2l-2-1Zm-2 1v1h1l-1-1Zm199 0-1 2h1v-2Zm-201 1v1h1l-1-1Zm-2 1v1h1l-1-1Zm-2 1v1h1l-1-1Zm-2 1v1h1l-1-1Zm-2 1v1h1l-1-1Zm-2 1v1h1l-1-1Zm-2 1-7 10 1 1 7-10-1-1Zm-7 11-4 5 1 1 3-4v-2Zm189 2-2 1-1 4 10 7h3l-2-6-1-1-3-3-1-1-3-1Zm-193 4-1 2h1v-2Zm254 63 1 6 2-3-3-3Zm-6 146-5 6 9 29 4 1 1 1-6-20 1-14-4-3Zm7 21 2 10h1l-3-10Zm6 18-1 4 4 3-3-7Zm-14 10 1 2h1l-2-2Zm17 16 1 2h1l-2-2Z"/><path fill="#151212" stroke="#151212" stroke-width="3" d="m219.5 96 9.5.5-12.5 3.5 3-4Zm-24 13 2.5 1.5-1.5 2.5-1.5-.5.5-3.5Zm28 4 6.5 3.5 1 5-5.5 10.5-3.5-2.5-1.5-3.5-4.5-.5 1.5-2.5 2.5-1.5 3.5-8.5Zm.5 1-2 11 5 1 1-10-4-2Zm31.5 0 2.5.5-.5 5.5-4.5-.5 2.5-5.5Zm-22 7 2 5 14.5-.5 1.5-3.5.5 3.5-3.5 6.5-8.5 2.5 1 3-4.5.5-3-4 6.5-.5-13-3 2.5-3.5 11.5 3.5-1 2 1.5.5 3.5-4.5-12-4 .5-3.5Zm31 23 10.5 5.5-4.5.5-6.5-3.5.5-2.5Zm12 6 8.5 5.5-2.5.5-6.5-3.5.5-2.5Zm-132 54 3 6 6.5 1.5 2 21h-1l-2.5-4.5-1.5 2.5 5 6v59l12 29v13l5.5 7.5 1.5-.5 23.5 39.5 4.5 2.5-26.5 45.5-5 1-1.5-.5-2 5 2.5.5 3.5-2.5-3.5 8.5-4.5-.5-.5-1.5-3 2-1.5-30.5 6-16v-47l-6.5-9.5-9 6-2.5-5.5 10-19-2.5-3.5-2 4-3.5 1.5-.5 1.5-6.5 3.5 1 13-2.5 4.5-4 2-.5-32.5 12-35v-65l-5.5-12.5Zm8.5 84 13 56 4 2 27 43 1-2-31-47-14-52Zm1 22-1 2 2 1-1-3Zm42 79-1 2h1v-2Zm-1 2-1 2h1v-2Zm-1 2-1 2h1v-2Zm-1 2-1 2h1v-2Zm-1 2-1 2h1v-2Zm-1 2-1 2h1v-2Zm-1 2-1 2h1v-2Zm-1 2-1 2h1v-2Zm-1 2-1 2h1v-2Zm-1 2-1 2h1v-2Zm-8 10-1 2h1v-2Zm-1 2-1 2h1v-2Zm-1 2-1 2h1v-2Zm-1 2-1 2h1v-2Zm-1 2-1 2h1v-2Zm-1 2-1 2h1v-2Zm-2 3-1 2h1v-2Zm-4 8-1 2h1v-2Zm-1 2-1 2h1v-2Zm111.5-230 4.5.5-1.5 4.5-5.5-1.5 2.5-3.5Zm89 9 10.5 2.5-12 2-.5 4.5-2.5-.5 2.5-7.5 2-1Zm-114 8 3.5 1.5-7.5 1.5 1-2 3-1Zm122 1 2.5.5 2 5-6.5.5-.5-1.5 2.5-4.5Zm-114 2 6.5 3.5-1.5-.5-1.5.5 5 10h-1l-5.5-7.5-12.5-2.5 11-2-.5-1.5Zm110 0 .5 3.5-1.5.5-.5-2.5 1.5-1.5Zm19 3 1.5 11.5-1.5 2.5v-14Zm-120 1 12.5 3.5-1.5.5-11-4Zm-97 2 1 4 6-1h2l2-1 .5 1.5-2 5h1l1.5-3.5 2.5-1.5 2.5-3.5 1.5.5 1 9-6.5 2.5-2-3-1 3-11-2-2 1-.5-1.5 1-4-.5-1.5 1.5-.5 1.5-3.5Zm97 1 14.5 4.5-1.5 5.5-10 1-3-11Zm-19 1 1 2 5.5.5-3.5 5.5-8.5-3.5.5-2.5 5-2Z"/><path fill="#151212" stroke="#151212" stroke-width="3" d="m162.5 240 2.5.5-1 3 4 8-2.5.5q-5.94-2.44-3-12Zm32 0 3.5 6.5-1.5-.5-1.5-.5-.5-5.5Z"/><path fill="#151212" stroke="#151212" stroke-width="3" d="m167.5 242 2.5 1.5-1.5 3.5-2.5-1.5 1.5-3.5Zm120 2 .5 4.5-14.5 3.5-1.5-2.5 1.5-.5 6 1 7.5-4.5.5-1.5Zm-97 4 1.5.5-5.5 3.5-.5-1.5 4.5-2.5Zm180 41-1 2-3 1v-1l4-2Zm-23 3 2 8 10.5-.5.5-7.5 3.5 8.5-4 3 2.5.5 2-1 .5 2.5-8 16-3 18 1 3q-8.27 3.73-8 16l1 8-5.5 9.5-1.5-22.5 2-8-4-33 5.5-11.5 8 3v-1l-7.5-6.5-1-2 3.5-2.5Zm6.5 12v1h4l-4-1Zm-127.5 3 1.5.5-1.5 2.5-4 2-.5-2.5 4.5-2.5Z"/><path fill="#151212" stroke="#151212" stroke-width="3" d="m365.5 314-3.5 4.5-3.5 10.5-1.5-.5 8.5-14.5Zm-111 22 2.5 1.5-2.5 4.5-5.5-.5 5.5-5.5Zm102 6 2.5 1.5-2.5 4.5-2.5-.5 2.5-5.5Zm-151 12 4.5 3.5-.5 2.5-2.5-.5-1.5-5.5Zm-68 9 1.5 12.5-8 37 1 5-7.5 11.5-2.5.5 2.5 3.5-6-1q-21 7.5-32.5 24.5l-14 22v7l-12 29-.5 13.5-5.5-.5v-19l6-11 6-25 14-22L96.5 434l23.5-8.5 6-12v-13l6-11q-3.69-17.69 3.5-24.5l1.5-.5.5-1.5Zm20 10 1.5.5-.5 3.5-2.5-1.5 1.5-2.5Zm221 57 .5 6.5-6 4-.5 1.5-.5-3.5 6-2 .5-6.5Zm-243 2 .5 2.5-1.5 3.5-1.5-.5 2.5-5.5Zm-11 5 1.5 3.5-4.5 2.5-.5-1.5 3.5-4.5Zm253 3 3.5.5-5.5 8.5-1.5-5.5 3.5-3.5Zm-170 4 2.5.5-3.5 5.5-2.5-.5 3.5-5.5Zm165 0 .5 2.5-6.5 12.5-.5-2.5 6.5-12.5Zm-219 18 1 4 1.5-.5v23l-3.5 3.5-2.5-.5 1-3-1.5-.5-8 2-2.5-6.5 1.5-2.5 7.5-5.5 2.5-5.5 1 7 1.5-8.5-2-1 2.5-5.5Zm.5 4-1 2h1v-2Zm203.5 2 2.5.5q-10.13 6.37-12.5 20.5l-7.5 5.5-2.5 5.5-5.5 4.5-.5 1.5-9.5 8.5-3.5 6.5-.5-4.5 39.5-48.5Z"/><path fill="#151212" stroke="#151212" stroke-width="3" d="m358.5 473 2.5 1.5-4.5 6.5-3 1-.5-3.5 3.5-4.5 2-1Zm-244 7 5.5 2.5-2.5 3.5-3-6Zm15 24 2.5.5-1.5 2.5-4 3-.5-2.5 3.5-3.5Zm2 6 .5 2.5-2.5 1.5 1.5-2.5.5-1.5Zm184 12 2.5.5-1.5 5.5-3.5-.5 2.5-5.5Z"/><path fill="#1F1614" stroke="#1F1614" stroke-width="3" d="M273.5 70v3l-9.5 5.5-8 16 5 12-5 4-3.5 9.5-1.5.5.5 1.5-12-5v1l5.5 1.5-7.5.5v-1l1.5-.5-2.5-.5-3.5 6.5 12 4-3 4 .5 1.5-2-1v2l-7-1 2 4-13.5-3.5.5-4.5 3 2 5.5-12.5-4.5-6.5-5.5 2.5-2.5 7.5-3.5 1.5 3 2-2 1-.5-1.5-3 6-4-1-2.5 1.5.5 1.5-14 6v-2L164 152.5l-8.5 14.5-.5-1.5 11.5-17.5 26.5-13.5-2.5-6.5-6.5-3.5-1-4 3.5-5.5 6.5-1.5 1-7-1-2L203.5 87q11.81-10.69 35-10l3.5 6.5-7.5 11.5-19.5 8.5-3 15 1.5 3.5 4.5-1.5 3.5-8.5 7-1 4 6 11-3 3 1 5.5-15.5-2-7 1.5-2.5 4.5-3.5 4-10-2-1 6.5-3.5 3 1 1.5-.5-.5-1.5 5-1ZM229 80l-10 2h9l-1 2-12-1-3 1 2 1-3 1-6 8-1-3q-10 9-10 28l1 6 2 1-1-2 2-12v13l6 2-6 1h7l6-14-1-4 2-8 1 4v-3l16-6 8-14-8-3Zm-13 2v1h3l-3-1Zm-4 24-1 4h1v-4Zm18 21-3 4 13 2 1-2-11-4Zm-18 1-1 2h1v-2Zm-9 5v1h2l-2-1Zm26 0v1h1l-1-1Zm-29 1v1h2l-2-1Zm-2 1v1h1l-1-1Zm98.5-64 1.5.5-1.5.5v-1Zm13 4 17.5 8.5-2 1 3 2 .5 1.5 1.5-.5-1-3 1.5-.5 6.5 4.5-2 1 21 20 1 2-9 6-10.5 21.5q-8.36-12.14-26-15l-1.5 2.5 7 10-5.5 1.5-16-1-11.5 6.5-1 6 24 21 3.5 5.5 10.5 4.5 19 34 9.5 36.5 5.5-3.5 4-13v-2l.5-3.5 1 2 .5-2.5 1-3 2.5-6.5 11-1 12.5 8.5 6 16-3.5 8.5-1.5-.5-6 22 1.5-.5 4-1 6.5 13.5q-1.76 25.26 4 43l-7 16 4 14-6 27 1 7-7 10 1 9q-5.67 5.33-4 18l2-1 3.5-9.5 8-1 36.5 29.5 1 5-1.5.5-2.5-1.5-1.5-3.5-5.5-2.5 4-1-28.5-24.5h-6v1l1.5.5-2 1-.5-1.5-1.5 3.5-.5 1.5-1.5-.5-3 19 1 3-6 9 2 1q-9.29 8.21-11.5 23.5l-4 1-4 2-11.5 8.5-5.5 7.5-8.5 5.5-14.5 23.5-3.5-.5q2.86-14.64 13.5-21.5l1.5-.5 4.5-5.5 1.5-.5 5.5-8.5 5.5-3.5q1.43-14.57 12-20l-1.5-.5-1.5.5 7.5-9.5.5 1.5-2 4 2-1 7-18-1-2 2.5-3.5 4.5-2.5-2-17 5-17-1-2 2.5-6.5 2.5-1.5 1-6-2-8 7-24-3-14 5-22-6.5-33.5-3.5 1.5-2.5 5.5-3-1-5.5 2.5-6.5 20.5-6.5 5.5-3 9 1.5 3.5 1-4 .5 6.5-1.5.5-1-3-7.5 27.5 1 4-4 11 1 3-3.5 6.5-2.5-.5 3-4-5 4-.5 1.5-3.5-.5 2-38-1.5-3.5-5.5-2.5q5.67-10.83 4-29l7.5-18.5 9 10 6.5 1.5-4.5.5-9-4-5.5 17.5 4 28-2 28h3l4-15-1-7 8-12-1-4 11-33-1.5-.5-3 1v-1l3.5-2.5 2-7-.5-1.5 2.5-.5-.5-1.5 2 1v-2l3.5-1.5 13-25 6-26-1.5-3.5-10.5-8.5-3.5-4.5-9-1-3.5 2.5-2 15 3 9-9 8-1.5 6.5-3-1-9 4-4-45-1 3-1.5-.5 1-8h-1l-.5 1.5-3.5-6.5 1-2h-2l-2-4-12.5-22.5-8.5-3.5-1.5-2.5-1.5-.5.5-1.5-1.5-.5-1.5-2.5-1.5.5-2.5-4.5-10-9-1 3-3.5-1.5-.5-4.5-2 1-5-3-1 2-3.5-1.5 3-1-10-5 2.5-.5 5 3-1-2-1.5-.5.5-1.5 9.5-3.5 6.5-9.5 29-11 2 1 2-16 5.5-4.5 1-5v-2l1-4-19-11 1.5-2.5Zm11.5 49 2 2v-1l-2-1Zm-47 23v1h1l-1-1Zm2 1v1h1l-1-1Zm59 60-1 2h1v-2Zm1 2-1 2h1v-2Zm2 5-1 3h1v-3Zm9 160-1 2h1v-2Zm-1 2-1 2h1v-2Zm32 63-4 4 2 5 5-8-3-1Zm0 11-1 2h1v-2Zm-1 4-1 3h1v-3Zm-1 3-1 2h1v-2Zm-1 2-2 3 2-1v-2Zm-4 7-1 2h1v-2Zm-1 2-1 2h1v-2Zm-1 2-1 2h1v-2Zm-10 2-2 1-4 5 1 3 3-1 4-6-2-2Zm9 0-1 2h1v-2Zm-3 5-1 2h1v-2ZM276.5 84l5.5 1.5-1.5 4.5-4.5-.5 2-1-.5-3.5-1-1Zm-4 1 2.5 1.5-1.5 2.5-3.5-1.5.5-1.5 2-1Z"/><path fill="#1F1614" stroke="#1F1614" stroke-width="3" d="m197.5 103 .5 6.5h-1l.5-6.5Zm164 14 4.5 3.5 23 44 5 19-1.5.5-31-67Zm5 1 13.5 24.5h-1L366.5 118Zm-78 8 3.5.5-9.5 5.5-.5-2.5 6.5-3.5Zm-33 12 2.5.5 1.5 3.5 3.5 1.5-8.5.5q-5.5-3 1-6Zm93 23 3 1 1.5.5 2.5 3.5 1.5.5 2 6-3.5.5-9.5-7.5.5-3.5 2-1Zm-197 26 1 5 3.5-2.5q-7.5 2.5-5 15h1l.5-1.5 5 13h10l24.5 9.5 6 19h-1l-1.5-3.5-1 6-9 3-2.5-8.5 4-6-3.5-4.5-1.5.5 1.5 2.5-9.5-.5.5-2.5 6.5-.5-10-2-4.5-5.5h-2l-7-1-1.5.5 1-3-4.5-9.5-5.5-.5-3-6 3.5-5.5 1.5.5 2.5-11.5Zm14.5 33v1h3l-3-1Zm-2 1v1h1l-1-1Zm13 2v1h1l-1-1Zm2 1v1h1l-1-1Zm3 1v1h1l-1-1Zm2 1v1h1l-1-1Zm10 9-1 2h1v-2Zm-3 1-3 4-4 3 3 5 6-2-1-9-1-1Zm4 2-1 3h1v-3Zm69.5-28 13.5.5-2 3 6.5 1.5v-2l11.5 6.5-.5 2.5-32 1-1.5-.5 2 9-12 3-1.5 3.5-2.5.5 2 1-2 1-.5 1.5-8.5-2.5 9-2-7.5-.5-2.5-.5-2.5-6.5-1.5-.5 1.5-2.5-5 1-.5-2.5 36.5-15.5Zm.5 4v1h8l-8-1Zm-4 1v1h1l-1-1Zm-2 1v1h1l-1-1Zm27 0-3 2h4v-1l-1-1Zm-29 1v1h1l-1-1Zm-2 1v1h1l-1-1Zm10 0v1h2l-2-1Zm-14 1v1h2l-2-1Zm12 0v1h1l-1-1Zm-15 1v1h1l-1-1Zm14 0-1 2h1v-2Zm-17 1v1h1l-1-1Zm-2 1v1h1l-1-1Zm-2 1v1h1l-1-1Zm-2 1v1h1l-1-1Zm-2 1v1h1l-1-1Zm17 2-3 1-1 2 7-1-3-2Zm-101.5 1 3.5 6.5-1.5.5-3.5-5.5 1.5-1.5Zm257 0 3.5 2.5-2.5 3.5-1-6Z"/><path fill="#1F1614" stroke="#1F1614" stroke-width="3" d="m265.5 233 2 1 3 1 10 2v-1l-3.5-1.5 4.5-.5 6.5 3.5-1 3 1 3-3.5 4.5-10 2-2-1-1 2 1.5.5-8.5 1.5-3.5-1.5 2.5-4.5 3-1 3.5-2.5-4.5-10.5Zm5.5 4 3 11 10-1 1-5-14-5Zm11 0v1h1l-1-1Zm-13 9v4h2l-1-1-1-3Zm-102.5-8 3.5.5 1 6-1 2 .5 1.5-3 1-3.5-5.5 2.5-5.5Zm1.5 4-2 4 3 1 1-3-2-2Zm191.5 13 .5 12.5-5.5 2.5-.5-4.5 5.5-10.5Zm12 29 .5 2.5-2 1 1.5-3.5Zm-219 4 14.5 51.5 31 47-12.5 23.5.5-1.5 10-23-26.5-39.5-3.5-2.5-13.5-55.5Zm76 18 4.5 1.5-2.5 4.5-11 6h-13l-2.5-3.5 17.5-4.5-1 2-1.5.5 5.5.5 1-3 2.5-1.5.5-2.5Zm-76 3 2.5 3.5-2-1-.5-2.5Zm4 10 2.5 8.5-10 16 2.5 3.5 9-6 6.5 9.5v47q-9.68 14.82-6 43l1.5 3.5 3.5-2.5 18.5-30.5-5.5 6.5-8 15 1.5.5 3-1 .5 1.5-1.5 2.5-6.5 2.5-2 5 4 1-13.5 27.5-1-7-4 12-1-7-7 10-3.5 1.5-1 6 7.5 2.5 4-2 .5 1.5-1 2 2 1-1.5 3.5-3.5 1.5.5 1.5-11 5-1-2-5.5 10.5.5 1.5-1.5-.5-.5 1.5-3.5 2.5-3.5 10.5-2.5-.5 2-7-2.5-5.5-4.5-.5 1.5-3.5 6 2 10.5-7.5-3-11 6-2-4-9 10-13 9-27 7-44-1-7 5-35-1.5-4.5-11 1-5.5-3.5-.5-2.5-1.5-.5 2-1 2-8-1-9 7-4 .5-1.5 4.5-2.5.5-2.5Zm-9.5 12-2 2 2 1v-3Zm18 115-1 2h1v-2Zm-1 3-1 3h1v-3Zm-10 13-3 6h2l1-2v-4Zm-14 17v1h1l-1-1Zm-1 19v1h1l-1-1Zm-2 2-1 2h1v-2Zm193.5-169 1.5.5-1.5 2.5v-3Zm-135 5 2.5.5 2 5-5.5.5-.5-2.5 1.5-3.5Zm45 0 13.5.5-8 4 .5 1.5-6.5-3.5.5-2.5Zm-16 1 3.5.5-1.5 2.5-6 2 4-5Zm-24 11 3 6 1-2-.5 3.5-.5 2.5-4.5-8.5 1.5-1.5Zm121 0 1.5.5-37.5 38.5-33 15-.5-2.5 29.5-11.5 40-40Z"/><path fill="#1F1614" stroke="#1F1614" stroke-width="3" d="m149.5 360 .5 23.5-3.5 6.5-2.5-.5 4-7 1.5-22.5Zm203 0 1.5 4.5-2.5 1.5.5-1.5.5-4.5Z"/><path fill="#1F1614" stroke="#1F1614" stroke-width="3" d="m142.5 364 3.5 1.5 1 15-2.5 4.5-3.5 1.5-8.5 38.5-1.5.5-4.5 14.5-1.5-.5-3-10 3-1 7-15-1-9 8-29-1-3 3-1-1-2 2.5-5.5Zm15 2 .5 5.5-1.5 2.5-.5-6.5 1.5-1.5Zm246 8 4.5 2.5-1 14 2.5 7.5 1-3 3.5 9.5h-1l-2.5-6.5-.5 2.5 4 11-2.5-1.5-3.5-1.5-9-29 4.5-5.5Zm.5 6-1 2h3v-1l-2-1Zm-247.5-4 1.5 7.5-1.5 4.5v-12Zm185 9 .5 4.5-1.5-.5-4.5-2.5 5.5-1.5Zm1 6 3 5 2.5 1.5-2.5 4.5-1.5.5-1.5 3.5v-15Zm-65 2 2.5.5-.5 1.5-19 6 2-3 15-5Zm102 3 1.5.5-1.5 5.5-1.5-4.5 1.5-1.5Z"/><path fill="#1F1614" stroke="#1F1614" stroke-width="3" d="m141.5 402 1.5.5-2.5 5.5-2.5-.5 3.5-5.5Zm14 2 .5 2.5-4 8-1.5 21.5-.5-21.5 5.5-10.5Zm261 9 3.5 6.5-4-3 .5-3.5Zm-280 2 1.5.5-1.5 4.5v-5Zm83 5 2.5.5-1.5 5.5-2.5 1.5-1.5 3.5-.5-7.5 3.5-3.5Zm182 5 5.5 4.5 1 4-6.5-5.5-3.5-1.5 3.5-1.5Zm-282 7 4.5 1.5-3.5 10.5-1-12Zm94 0 2.5.5-3.5 5.5-2.5-1.5 3.5-4.5Zm-94 13 1 5 1.5.5-3 2 1 3-5.5 3.5-.5-6.5 5.5-7.5Zm12 2 .5 2.5-3.5 6.5-2.5-.5 5.5-8.5Zm13 4 1.5.5-1.5 2.5v-3Zm-5 11 1.5.5-14.5 26.5-.5-2.5q10.58-8.42 13.5-24.5Zm-26 3 1 9 3.5.5-2.5 1.5-4.5-1.5-1 3 4 3-.5 1.5-1-2-4.5-.5 5.5-14.5Zm8 3 3.5.5-2.5 5.5-2.5-4.5 1.5-1.5Z"/><path fill="#1F1614" stroke="#1F1614" stroke-width="3" d="m112.5 476 1.5.5-.5 1.5-1.5-.5.5-1.5Zm-7 16 8.5 2.5-.5 3.5-8-6Zm80 1 .5 8.5-3.5 2.5-2.5-3.5 5.5-7.5Zm-57 23 1.5.5-2.5 1.5 1-2Zm-15 1 1.5.5-6.5 4.5 3-4 2-1Zm204 1 .5 2.5-2 1 1.5-3.5Zm-199 2 .5 3.5-1.5 4.5-2.5-.5 3.5-7.5Z"/><path fill="#2F1B18" stroke="#2F1B18" stroke-width="3" d="m267.5 72 1.5.5-2.5 1.5 1-2Zm7 0 2.5.5-2 3 1 4v2l1 2-.5 1.5 1.5.5-.5 3.5-1.5.5v2q3.25 13.25-3.5 16.5l-14 8-1-2-2.5-.5 3.5-5.5 2.5-1.5-5-14L267.5 75l7-3Zm.5 5-1 2h1v-2Zm-2 8-2 1-1 2 4 1 1-2-2-2Zm1 10-1 2h1v-2Zm-6 1-2 1-2 4 3 1 3-5-2-1Z"/><path fill="#2F1B18" stroke="#2F1B18" stroke-width="3" d="m293.5 72 7.5.5-1 2 5.5 3.5 1-3 4 5 16.5 8.5-2 5 1 4-5.5 6.5-1.5.5-1.5 15.5-8-1-27.5 15.5-4.5 7.5-7.5 1.5.5 1.5 7.5 4.5-1.5-.5-12-5-1 2-3.5-1.5 3-1-5-3-.5-2.5-1.5-.5 7.5-5.5.5 2.5-4 1 5.5 1.5 1.5-.5-.5 1.5 5 1 1-2 1.5.5.5-1.5 11-7 6.5-2.5-2-1 6-3 6.5-7.5 2.5-1.5-1-2 3-2-1-10 6-5-6.5-8.5-3.5-1.5-7-9-1.5-3.5Zm6.5 5 1 1 1 2v-2l-2-1Zm8 24-1 5h1v-5Zm-79.5-21 8.5 2.5-7.5 13.5-2.5-.5 7-11-14.5-2.5-4.5 1.5-.5 1.5-2-1v2-3l16-3Z"/><path fill="#2F1B18" stroke="#2F1B18" stroke-width="3" d="m281.5 84 6.5 2.5 2.5 3.5 3.5 2.5-.5 3.5-5.5-2.5-.5-1.5-6.5-2.5 1-4-.5-1.5Zm5.5 4-2 3h4l-2-3Zm38.5-4 4.5 1.5-.5 2.5-1.5-.5-1.5-2.5-1-1Zm-116 1-3 6-2.5.5-3.5 10.5-3.5 1.5-.5 5.5-.5-6.5L209.5 85Zm7 11 1.5.5-13.5 31.5-9.5-3.5-1-6 1.5-5.5 1.5.5-1 10 2.5 3.5 5.5-.5v-4l5.5-13.5 1.5.5 1-7h-2l.5-3.5 6-3Zm23 21 11 4 4-1-.5 1.5-1.5 3.5-1-4-3 5-4.5-.5 2-4-1.5-2.5-5-1-5 3 2-3 3-1Zm-24 7v3l-3.5 1.5-2 3 5 1-15.5 5.5v-1l5.5-2.5-2.5-.5-5 2v-1l7-2 2 1v-2l4.5-2.5 4.5-5.5Zm105 0 2.5.5-.5 1.5-2-2Zm-75 8 2.5.5-6.5 4.5v-3l4-2Zm-17 1 1.5.5-1.5.5v-1Zm53 18 3.5 2.5-1.5-.5-2-2Zm17 17 5.5 1.5 2 8h-1l-6.5-9.5Zm20 16 2.5 1.5 18 33 3.5 44.5 11-4 1.5.5 6.5-11.5 3.5-2.5-3-13 1.5-4.5 3-1 8 1 1-2 2.5-1.5-1-2 1.5-.5 6 7 5.5 4.5-.5 1.5-4-2-4 1-4-6-3.5 1.5-1.5 3.5-1-4-2 4-2.5 1.5-1 4 4 3 2 7-5.5 3.5-2-1-6.5 5.5-3.5 8.5-5-1-1.5 5.5 3 1 .5 1.5 4-2-5.5 6.5-4.5 17.5-3-1-7.5 18.5q1.67 18.17-4 29l6 3 1 5-2 3v33l3.5.5q9.44-8.56 11.5-24.5l-1-7 4.5-5.5 2.5.5-4 7 1 2-3 8 1.5.5 1.5-.5-5.5 11.5-1-2-7 11-4.5.5 5.5 3.5 1-3 5.5 9.5-1.5-.5-2.5-1.5-1.5-3.5-1 3-2-3-9.5-1.5 1-25-1.5-2.5-5-1-2.5 1.5-12.5 14.5-2.5 1.5 1 2-3 1 1 2h-2l1 2h-2l1 2-6.5 7.5-2.5 1.5 1 2-3 1 1 2h-2l1 2h-2l1 2h-2l1 2h-2l1 3-3 2 1 4-16 10-2.5 11.5-5.5-3.5 2-1-2.5-.5-2 1-1-3-2 1v-2l-2 1v-2l-2 1-18.5-17.5-2-10 11.5-.5 2 1 1-2 1.5.5.5-1.5 1.5.5.5 1.5 33-15 37.5-37.5-1-2 1.5-3.5 1.5-.5-.5-1.5 1.5.5-1-2 2-1 1-3 1.5-4.5 1 2 1.5-2.5-2-1 1-3-1-27 1-2-1.5-2.5-3.5-2.5-.5-2.5-4 8-2.5-1.5 7.5-8.5 2.5-1.5-1-2 3-2-1-7 1.5-2.5 1 2 .5-2.5-.5-1.5 1.5.5-1-2h2l-1-3 3-2-1-41 1-2-.5-1.5 1.5-.5-1.5-5.5-1.5-.5 1-2h-2l1-2h-2l1-2h-2l.5-1.5-1.5-.5.5-1.5-13.5-9.5 1-8-.5-3.5Zm1.5 8-1 2h1v-2Zm49 38v1h1l-1-1Zm-31 2-1 28h1v-28Zm31 13-1 2h1v-2Zm-33 22-1 2h1v-2Zm-4 10-1 3h1v-3Zm0 25-1 19h1v-19Zm0 69-1 15h1v-15Zm-30 17-1 2h1v-2Zm-24 5-15 5-2 3 19-6v-1l-2-1Zm-39 10v1h6l-6-1Zm-2 2-1 4h1v-4Zm52 4-1 2h1v-2Zm-36 18v1h1l-1-1Zm9 5v1h1l-1-1ZM155.5 190l.5 15.5-4-2-.5 1.5-.5-9.5 4.5-5.5Zm128 21 8.5 4.5-5 1-.5 1.5-3.5-.5 2-1-.5-2.5-2 1 1-4Zm2.5 4v1h1l-1-1Zm-21.5-1 8.5.5-8.5.5v-1Zm-4 1 1.5.5-7.5 3.5v-1l6-3Zm4 3 2.5.5-5 2-1 2 1.5.5 2-1-.5 1.5 1.5 4.5 9.5 5.5-5.5.5-8.5-4.5-1-7 2.5-3.5 2-1Zm-14 1 2.5.5-2.5.5v-1Zm-85 1 3.5.5-4 1 7.5 8.5 8.5.5-7 1-.5 1.5-1.5.5 2 1-3 1 1 3-2 1-.5-1.5-8 3-4-1-1.5.5-1-5 1.5-2.5 8 1 2.5-3.5-7-8 5.5-2.5Zm-1.5 2v1h1l-1-1Zm4 10-1 2h1v-2Zm79.5-12 1.5.5-1.5.5v-1Zm-3 1 1.5.5-9.5 4.5v-1l8-4Zm-68 2 3.5 1.5-1.5.5-2-2Zm5 2 3.5 1.5-1.5.5-2-2Zm11 1 5.5 12.5h-1l-4.5-12.5Zm35 0 1 2 6-2-2 4 1.5.5 3.5 7.5 8-1 3 1 2-4 2.5.5-3.5 5.5-10-2-2.5 1.5 4 1-1 3 1.5 2.5-1.5.5-1.5 3.5-16 4-.5-2.5 11-17-8-1-1-3 3.5-4.5Zm.5 23v2h4l-4-2Z"/><path fill="#2F1B18" stroke="#2F1B18" stroke-width="3" d="m360.5 228 .5 2.5h-1l.5-2.5Zm-178 3 3.5 2.5-.5 1.5-3-4Zm11 4 .5 1.5h-1l.5-1.5Zm1 3 .5 1.5h-1l.5-1.5Zm94 0 2 3 3-1 .5 2.5-6 5-1-7 1.5-2.5Zm-20 6 .5 2.5.5 2.5 2.5 1.5-1.5-.5-2.5-.5-1-4 1.5-1.5Zm121 1 .5 2.5-1 2 1 2h-1l-.5-1.5-2.5 1.5-1-3 4.5-3.5Zm-216 1 1.5.5-1 4 4.5 1.5 1.5-4.5-.5-1.5 6.5 4.5.5 1.5 5.5-2.5 1.5-2.5 2-1 1 2 1.5.5-2.5 3.5-21.5 6.5-.5 2.5-4.5-2.5 2-1-4.5-5.5 1.5-.5 1.5-3.5 4-2Zm88 0 4.5.5-3 1-1.5 3.5-2.5-1.5 2.5-3.5Zm92 21 .5 2.5-2-1 1.5-1.5Zm32 18 4.5 2.5v21l4 17-5 23 3 9-7 26 2 7-2.5 3.5-1.5.5-2 7 1 8q-6.5 5.5-5 19l1 4-3-2-.5-2.5-1.5-.5-1-7 1.5-2.5 1.5-.5-.5-1.5 1.5-.5-.5-1.5 1.5-.5-1-2h2l1-5-1-2 3-8-1.5-.5-1.5.5v-2l1.5-18.5 1.5.5-1-2h2l-1-2h2l-1-3 3-2-1-25 1.5-2.5 1.5-.5 1-3 .5-2.5 1.5-.5-6.5-4.5-5.5 3.5-2.5 3.5-2-10-.5 17.5-6.5 22.5-.5-11.5q9.5-10 7-32l-2-1-1.5-3.5-7 1 5.5-6.5 6.5-20.5 4-1 3 1 4-7Zm.5 57-1 22h1v-22Zm-2 27-1 2h1v-2Zm-4 10-1 13h1v-13Zm-6 41-1 6h1v-6Zm-4.5-133h2l1.5.5-8 5v2l-.5 1.5-4.5-7.5 6.5-.5 3-1Zm-148 24h2l2.5.5-.5 1.5 4-1-2 3-7 3 3-4 1.5-.5-6-1 2.5-1.5Zm137 18 .5 2.5-1 3 2 1-1 6 .5 1.5-2.5-1.5 1.5-12.5Zm-127 1 12.5 5.5-4.5.5-8-6Zm-85 1 .5 2.5-2-1 1.5-1.5Z"/><path fill="#2F1B18" stroke="#2F1B18" stroke-width="3" d="m377.5 336 .5 5.5-6 11q3.39 16.39-2.5 23.5l-5 1-3.5-1.5 2.5-3.5 1 2 .5-2.5-1-2 4.5-3.5 2 5 .5-8.5-1-4 7.5-22.5ZM366 374v1h2l-2-1Zm-143.5-37 1.5.5-5 4 3.5-4.5Zm24 3 3.5.5-2.5.5-1-1Zm-106 8 2.5.5 1.5 3.5 9 2 6-1 1.5 7.5-2.5 12.5-1.5-.5 1-6-3.5-6.5-4 1-2.5.5q3.82 19.82-4 28l2 1-1.5 3.5-1.5.5 1 8h-1l-.5-3.5-4.5 8.5 2 3h-2l-.5 4.5-1.5.5.5 4.5 1.5-.5v2l-.5 11.5-2-1-3.5 5.5 2 1-1.5 3.5-1.5.5 1 4-6 9 2 1-1.5 3.5-1.5.5 1 8h-1l-.5-6.5-2 5-3-5-2-1-9 12-.5-4.5 5.5-10.5 4-2 2.5-.5-1-3 7-4-.5-4.5-5 2-1.5-.5-4.5 6.5-.5-1.5 5.5-10.5 1 4 6.5-4.5 4.5-14.5 1.5-.5q.52-23.98 9.5-39.5l3.5-1.5 1-14-2.5-5.5-2.5.5-2 6 .5 1.5-2.5-.5v-21l2.5-2.5Zm-3.5 76-1 5h1v-5Zm45.5-66 3.5 4.5-4-3 .5-1.5Zm26 2 12 2v-1l-3.5-.5 16.5-.5 8.5 5.5-26.5.5-7-6Zm-14 16 2.5 3.5-3-2 .5-1.5Z"/><path fill="#2F1B18" stroke="#2F1B18" stroke-width="3" d="m157.5 377 1.5.5-3 21 1 9-4 8-3 28-9 27-10 15 4 7-6 2 3 9-6 4-2.5 4.5-3 1-5-2-1.5 3.5 6 2 1 6-2.5 5.5-.5-3.5 1-4v-2l-.5-1.5-6 4 2-4-6.5 4.5 2 1-3.5 5.5-10.5-.5 2.5-5.5 7.5-6.5 8-16-13-3-5-10 3.5-6.5 8-2 1 2 4.5-.5-3-2 2.5-4.5 5.5 3.5 2 4-1.5-.5q-11.35-.35-15 7l-2.5.5 3.5 7.5 9 3 1-2 1 2 5.5-1.5 1.5-3.5 2.5-1.5-1-2 3-1 14-26-1.5-.5-1.5.5 5.5-10.5 1 2 1.5-2.5-2-1 1-3-1-3 1.5-2.5 1.5-.5 1-3 1.5-5.5 1 3q-1.33-19.83 5.5-31.5l-2.5-4.5-1.5-.5 1-6 1-3 1.5-5.5 1 3 1.5-9.5-.5-1.5ZM146 444l-1 2h1v-2Zm-33 32-1 2h2v-1l-1-1Zm-9 8-1 2h1v-2Zm26 15-5 2-4 7 1 1 3-1 6-8-1-1Zm273.5-119 2.5.5-.5 1.5-2.5-.5.5-1.5Z"/><path fill="#2F1B18" stroke="#2F1B18" stroke-width="3" d="m151.5 394 .5 3.5h-1l.5-3.5Zm188 14 2.5.5-.5 5.5-5 2-.5-1.5 3.5-6.5Zm50 12 .5 17.5-5.5 8.5v-2l-3 2 1.5-2.5 3.5-19.5 1.5.5-1-2 2.5-2.5Zm-168 5 .5 3.5-11.5 17.5-1.5-2.5 1.5-6.5 2 1 3.5-5.5-2.5-.5-3.5 2.5 5.5-7.5 1 4 3-5 2-1Zm-97 8 .5 3.5h-1l.5-3.5Zm244 0 5.5 3.5-.5 1.5-1.5.5-.5 7.5-1-2-1.5-.5-1-2 1-3h-1l-.5 1.5-.5-3.5 1.5-3.5Zm1.5 3v1h1l-1-1Zm-205.5 10 .5 1.5h-1l.5-1.5Zm-1 3 .5 2.5h-1l.5-2.5Zm214 2 .5 1.5h-1l.5-1.5Zm-1 4 .5 2.5-2 4 3-1-5.5 11.5-.5-4.5 2-4h-2l4.5-8.5Zm-9 3-.5 1.5-6.5 8.5-2-1-7.5 6.5 14-12 2.5-3.5Zm-3.5 4-4 5 4-3v-2Zm-166.5 1 .5 8.5-3.5 2.5-2.5-4.5 4-3 1.5-3.5Zm-77 3 .5 2.5h-1l.5-2.5Zm250 1 .5 1.5-4.5 7.5.5-1.5 3.5-7.5Zm-228 10-2 3-1.5-.5 3.5-2.5Zm223 0-.5 1.5.5 1.5 2.5.5-1.5 3.5-3.5 1.5q-5.22 16.28-18.5 24.5l-5-1v2l-1.5-.5-.5 1.5-6.5 4.5 1 2-3 2 1 7h-1l-.5-3.5-1 4-6.5-.5 15.5-24.5 11.5-8.5 5.5-7.5 10.5-7.5 1.5-2.5Zm-174 6 .5 3.5-3.5 5.5-2.5-.5 5.5-8.5Zm-53 15 1.5.5-3 2-1 3 4 1-5.5 11.5-3.5.5 1 11-9.5.5-.5-1.5 5.5-11.5 4.5-2.5 6.5-14.5Zm-9.5 18v2l-1-1-2 4 3 1 2-4-2-2Zm-29.5-12 2.5 3.5-3.5 2.5q-5.5-3 1-6Zm218 17 1.5.5-1.5.5v-1Z"/><path fill="#572F26" stroke="#572F26" stroke-width="3" d="m277.5 72 16.5 1.5.5 2.5 8.5 7.5-2.5 1.5-6.5-3.5-2.5-3.5-3.5.5 1.5 5.5 4.5 2.5 1.5 3.5 10.5 2.5.5 3.5 2.5.5-6 17-10.5 10.5-23 14-5.5-3.5-.5-2.5-4.5 1.5-3.5 4.5-3 2-.5-4.5 11-6-3-2-.5-1.5-7 2-.5-2.5 3.5-5.5 2.5-.5 6.5-9.5 11-5-1.5 2.5-.5 1.5-14.5 7.5 5.5 6.5 6 3 11.5-9.5-.5-1.5-2-1-7 5-1.5-3.5 5-3 3.5-4.5 13.5-2.5-6.5-9.5-10 1-.5-5.5 6.5-1.5 11 6 .5-4.5-6-4-2.5-3.5-9.5-1.5 1.5-10.5Zm24 0 4.5 2.5-.5 3.5-5.5-3.5 1.5-2.5Zm-86 12 18.5.5-7.5 11.5q-12.62-2.63-16.5 3.5 1.55 14.05-5.5 19.5l-1-2-5 4-.5-17.5 4-2 9.5-15.5 4-2Zm-1.5 6-4 6h4l2-5-2-1Z"/><path fill="#572F26" stroke="#572F26" stroke-width="3" d="m267.5 96 2.5.5-3.5 5.5-2.5-1.5 3.5-4.5Zm-43 18 3.5 2.5-2.5 9.5-3.5-2.5 2.5-9.5Zm12 6 9.5 1.5-3.5 4.5-8.5-2.5 2.5-3.5Zm-18 6-2.5 3.5-.5 5.5-10 3v-1l9.5-4.5-2-1 2.5-3.5 3-2Zm-21 12 4.5.5-11.5 5.5 3-4 4-2Zm-30 16 .5 1.5-5.5 10.5-.5-4.5 5.5-7.5Zm121 5 15.5 16.5h-1L288.5 159Zm18 19 11.5 4.5.5 14.5 5.5 3.5 5.5 6.5 1-2 5.5 10.5v48l-6 18-11 16 2.5 1.5 6-4 2.5 4.5v31l-8 16-41.5 41.5q-22.4 2.1-35 14l-11.5.5q1.6 19.4 16.5 25.5l14 8 3 1 2 1 1-4 5.5 12.5-5.5 3.5-2-4-22.5-9.5-2.5-4.5-5.5-4.5-.5-1.5-3.5-1.5q2.6-16.1-6.5-20.5l-11.5-2.5-3-5 34.5-.5 27.5-19.5q16.24-7.26 13.5-33.5l3.5-2.5 2-41 32-46q5.83-5.67 4-19-12.26-10.74-12-34L307.5 185l-1.5-.5-1-5 1.5-1.5Z"/><path fill="#572F26" stroke="#572F26" stroke-width="3" d="m292.5 215 5 7 8.5 3.5-1.5 14.5-7.5 5.5 2 1-22.5 11.5h-10l-2.5-3.5 1.5-2.5q22.85 3.85 28.5-9.5l-.5-2.5-10.5-5.5 9-1 2-9-1.5-2.5 1.5-.5-3-5 1.5-1.5Zm-123 1 14.5 5.5-4.5.5-10-6Zm202 6 6.5 1.5-1.5 2.5-5 2 .5-1.5-.5-4.5Z"/><path fill="#572F26" stroke="#572F26" stroke-width="3" d="m268.5 228 12.5 5.5-4.5.5-8-6Zm-103 1 1.5 2.5-3 2 .5-1.5 1.5-.5-.5-2.5Zm14 5 6.5 2.5-4.5 2.5-2-5Zm48 0 5.5.5-6.5 10.5-1.5.5-2.5 5.5-.5-5.5 3.5-5.5 2.5-1.5-.5-4.5Zm26 0 5.5.5-4.5 5.5-2.5-.5 1.5-5.5Zm115 0 4.5.5-1.5 10.5-5.5-8.5 2.5-2.5Zm9 0 12.5 1.5-1.5 10.5-3.5 1.5-1.5 9.5q-7.62-7.95-6-23Zm-113 4 4.5 5.5-5.5 2.5.5-1.5.5-6.5Zm-107 2 4.5 1.5-.5 5.5-4-1-1.5.5 1.5-6.5Zm41 1 5.5 8.5-6.5 2.5.5-1.5.5-9.5Zm173 9 .5 11.5q-3.25 5.75-6.5-1.5l-5.5-1.5 1.5-4.5 10-4Zm-146 2 11.5.5-5.5 11.5-10.5 3.5-1.5 2.5-2.5-.5 8.5-17.5Zm-57 4 1 3 4.5 2.5 1 2-4.5.5-2-8Zm181 8 4.5 1.5-3.5 4.5-2.5-.5 1.5-5.5Zm25 0 6.5.5-3.5 9.5-5.5-7.5 2.5-2.5Zm-15 5 .5 5.5-9 2-.5 1.5-.5-1.5 9.5-7.5Zm8 1 4.5 2.5-5.5 3.5-.5-4.5 1.5-1.5Zm4 10 .5 2.5-3.5 5.5-4.5-.5 7.5-7.5Zm-23 7 5.5 1.5 1 11-4.5.5-2-13Zm-124 1 9.5 2.5-2.5 3.5-9.5-2.5 2.5-3.5Zm-68 1 11.5 22.5-5.5.5-6-23Zm59 17 11.5.5q-7.95 7.05-23 7l1 4-4.5.5-2.5-3.5 17.5-8.5Zm148 12 6.5 1.5 2 22-11 34 6.5 1.5 2.5-1.5 2-21 9.5-23.5 3-1 4.5 2.5-5 9q4 25-6 36v31q-7.24 4.76-6 18l2.5 5.5 3.5 1.5-2.5 4.5-7-5-1.5 8.5 1.5 2.5 2.5.5-7 16-16.5 20.5-2-1-3.5 5.5 2 1-8 7-.5-1.5-33.5 26.5-2.5 9.5-11.5-.5 5.5-15.5 5.5-3.5 1.5-2.5 14.5-8.5 9-24v-11l-6-1 2.5-5.5 9.5-3.5-.5-2.5-5.5-.5 15.5-35.5 2.5-.5-.5-5.5-1.5-.5 1.5-3.5 1 3 4-6 1.5-.5-1.5-8.5-1.5-.5-3-7 4-1 8-16v-14l6-10q-3.89-18.39 3.5-25.5Zm-195 7 6.5 17.5-5-2-1.5-15.5Zm65 22 3.5 1.5-2 4 1.5.5 3-2 1 3 2.5.5-1 3 2.5 3.5 1.5.5-2.5 4.5-7.5-5.5-2-4 1.5-2.5-1.5-.5-.5-1.5-3 2-2.5-1.5-1.5-2.5-3.5-1.5 10.5-1.5Zm-53 4 6.5 4.5 10.5 18.5 1.5-.5 5 12-2.5-1.5-3.5-.5-19-31 1.5-1.5Zm24 4 7 9 3.5 1.5-9.5.5-1-11Zm-53 5 4.5 2.5v22l-5 14 1.5 3.5 2.5.5q-8.33 9.17-5 30l-12 28v8L117.5 497l-3.5-2.5-1-2 1.5-8.5 4 2 1.5-6.5-2-4 2-1-6-1 1.5-10.5 4-1 2 12 2.5-1.5 14-39v-20l12-28 1.5-25.5Zm175 1 1.5.5 2.5 28.5 3.5.5-14.5 10.5-4-10-9.5 8.5.5 2.5 5.5.5-6.5 8.5-19 9 1.5-2.5q12.13-35.38 38.5-56.5Zm-104 48q8.25 7.75 5.5 26.5l-3.5 2.5-3-6-2.5.5-.5 1.5-.5-1.5q6-2 4-12v-2l-1-4 1.5-5.5Zm-7 30 .5 4.5-17.5 22.5-1-4-1.5-.5 1.5-3.5 1 3 5-10 3-1 6.5-5.5 2.5-5.5Z"/><path fill="#572F26" stroke="#572F26" stroke-width="3" d="m123.5 444 2.5.5-1.5 5.5-4.5-.5.5-3.5 3-2Zm191 24 3.5.5-8.5 11.5-2.5-.5 4.5-9.5 3-2Zm-207 2 .5 7.5-7.5 2.5 5.5-6.5 1.5-3.5Zm4 11 1.5.5-1.5.5v-1Zm-3 1 1.5.5-2 1 3 8-6.5.5-.5-4.5 4.5-5.5Zm257 2 1.5.5-10.5 19.5-4.5-.5 13.5-19.5Zm-174 3 .5 5.5-9.5 17.5-2.5-1.5.5-5.5 4 1 7-17Zm-95 3 6 8 2.5.5-3.5 6.5-2-1-3.5 4.5.5 1.5-4.5 1.5-4.5 8.5-7 2-.5-2.5L96.5 490Zm201 8 2.5.5-5.5 8.5-.5-2.5 3.5-6.5Zm-168 1 .5 2.5-5.5 6.5-3 1-.5-1.5 6.5-7.5 2-1Zm218 9 .5 2.5-6.5 17.5-11.5-.5 6.5-14.5 11-5Zm-30 5 .5 2.5-5.5 11.5-.5-5.5 5.5-8.5Zm-212 1 .5 1.5-9.5 7.5-.5-1.5 2.5-4.5 6.5-1.5.5-1.5Zm27 2 1.5.5-1.5 3.5v-4Zm-15 1 .5 2.5-4.5 8.5-5.5-.5 7.5-9.5 2-1Zm13 0 .5 1.5-2.5 3.5-2.5-1.5 1.5-2.5 3-1Z"/><path fill="#6E4B3A" stroke="#6E4B3A" stroke-width="3" d="m288.5 78 5.5 2.5.5 1.5L312 93.5l-5.5 2.5-1-4-10.5-2.5-3.5-5.5-3.5-1.5.5-4.5Zm-11 18 9.5.5 6 9-16.5 5.5-1-3-1.5.5 3.5-12.5Zm-7 14-.5 1.5.5 2.5 1.5.5-1 3 2.5 1.5 6-5 2.5 1.5-6.5 7.5-6 3-10.5-8.5 2.5-3.5 9-4Zm-14 16 3.5.5.5 1.5 2.5 1.5-6.5 2.5 1.5-2.5-.5-2.5-1-1Zm44 46 6 13 3.5 2.5 20 47v11l-9.5 13.5 3.5-4.5-.5-2.5-5.5-.5q7.5-6 6-21-3.5-6-16.5-2.5l-1.5.5-.5-3.5-13.5-8.5 2.5-.5 5.5-.5 6-18v-12l-5.5-13.5Zm-42 38 3.5.5-13.5 5.5v-1l10-5Zm-96 16 3.5 5.5-2.5 1.5-1-7Zm109 2 15.5 5.5-5.5.5-10-6Zm22 0 .5 1.5-2 1 1.5-2.5Zm-2 4 .5 1.5h-1l.5-1.5Zm14 7 .5 3.5-6.5 4.5-2.5-1.5 8.5-6.5Zm-106 3 1.5 2.5-2-1 .5-1.5Zm-42 4 4.5 1.5 2 4-7.5 2.5-.5-6.5 1.5-1.5Zm222 3 1.5 2.5h-1l-.5-2.5Zm-142 3 6.5.5-3.5 1.5-1.5-.5-4.5 7.5-.5-5.5 3.5-3.5Zm49 0 1.5.5-4.5 2.5 1-2 2-1Zm-105 5-1.5 4.5-1.5 2.5-4.5-1.5.5-4.5 7-1Zm202 0 .5 1.5h-1l.5-1.5Zm-19 3 4.5 3.5-3.5-2.5-1-1Zm-138 4 4.5.5-9 8-.5 1.5-4 2-1.5-7.5h1l.5 1.5 3.5-1.5 1.5-2.5 4-2Zm89 4 .5 1.5-8 7 7.5-8.5Zm47 2 4.5.5-3.5 5.5-9 3-1-2-5 8-.5-2.5 3.5-6.5 8.5-1.5 2.5-4.5Zm9 9 1 2-9.5 6.5 8.5-8.5Zm-68 7 .5 1.5-8 7 7.5-8.5Zm-139 18 2.5 4.5-2-1-.5-3.5Zm69 3 .5 7.5q-1.75 5.25-10.5 3.5v-1l7.5-4.5 2.5-5.5Zm-23 1-1 2-1.5-.5 2.5-1.5Zm-47 4 2.5 1.5 9.5 22.5 2.5.5 9 18-8-3-15.5-39.5Zm130 11 .5 12.5-4.5 7.5-1.5-.5 2.5-18.5 3-1Zm-6 24 .5 12.5-19.5 23.5-22 13v-1l9.5-4.5 17-19 4-15 7.5-8.5 3-1Zm-44 7 2.5.5-.5 6.5-2.5-1.5-1-4 1.5-1.5Zm-55 4 2.5 4.5-2-1-.5-3.5Zm10 2 5.5 2.5 1.5 3.5 21.5.5-14.5 5.5-2-3-10.5-4.5-.5-1.5-1.5-.5.5-2.5Zm-6 3 6.5 9.5-5-2-3-6 1.5-1.5Zm8 13 3 6 3.5 1.5 1.5 2.5 1.5.5 2.5 3.5 1.5.5.5 1.5 6.5 3.5-10.5 1.5-3-7-5.5-.5 2-6-3.5-7.5Zm114 15 1.5.5 3.5 9.5 1.5-.5-8.5 3.5-1-2-5.5-.5 8.5-10.5Zm-88 13 5.5 4.5 2 5h-1l-5.5-8.5-1-1Zm-4 1 5.5 13.5h-1l-4.5-13.5Zm117 1 .5 1.5h-1l.5-1.5Zm-105 19 3.5 1.5 4.5 5.5 3.5 2.5 1 3-2.5.5-4.5-2.5-2.5-3.5-3.5-2.5-2-3 2.5-1.5Zm-15 7 2.5.5 2 5-7.5 3.5-.5-2.5 3.5-6.5Zm110 2 .5 4.5-6 11 6 1-1.5 3.5-10.5 4.5.5 3.5 5.5.5v11L311.5 501l-12.5 6.5-.5 1.5-5 3 .5-1.5 6-12-2-1q9.5-4 8.5-18.5l3 1 8.5-11.5-3.5-.5-3 2 1.5-2.5 16.5-33.5Zm-78 4 18.5 9.5-6.5 2.5-5.5-2.5-2.5-3.5-3.5-2.5-.5-3.5Zm-36 6 .5 1.5-2 1 1.5-2.5Zm-2 4 .5 1.5-14 13 13.5-14.5Zm2 8 .5 2.5-4.5 2.5v-3l4-2Zm-23 17 4 1 1.5-.5-5.5 11.5-1-5-2.5-.5 3.5-6.5Zm153 7 1.5.5-2.5 5.5-2.5-.5 3.5-5.5Zm-235 2 3.5 1.5-.5 8.5-5.5-3.5.5-5.5 2-1Zm225 10 .5 2.5-17.5 19.5-3.5 1.5-3.5 12.5-11.5-.5 2.5-9.5 33-26Zm-144 1 .5 5.5-11.5 22.5-1.5-5.5 1.5-6.5 2 1 9-17Zm-86 5 7.5 1.5-8.5 16.5-7.5 2.5-1.5 9.5-17.5-.5 1.5-8.5 1 3 8.5-3.5 4.5-8.5 8.5-1.5 3.5-10.5Zm246 6 4.5.5-13.5 22.5-.5-5.5 9.5-17.5Zm-105 12 5.5 2.5-2.5 3.5-3.5-2.5.5-3.5Z"/><path fill="#463D4E" stroke="#463D4E" stroke-width="3" d="m213.5 90 2.5.5-2.5 5.5-3.5-.5 3.5-5.5Zm-10 27 .5 6.5-3.5 2.5-2.5-4.5 5.5-4.5Zm55 118 5.5 2.5-.5 3.5-4-1h-2l-1.5-.5 2.5-4.5Zm-47 173 4.5 2.5 1 4-1 5 2 1-3 1-4.5 9.5-.5-21.5 1.5-1.5Zm182 12 3 4 3.5 1.5-2.5 1.5-6-1-1.5.5 3.5-6.5Zm-3 11 4.5 2.5-10.5 24.5-1-2-4.5-.5 11-17 .5-7.5Zm-184 13-5.5 6.5-.5 1.5-.5-1.5 6.5-6.5Zm159 43 .5 4.5-5.5 10.5-.5-4.5 5.5-10.5Zm-210 3 .5 1.5-3.5 6.5-1.5-.5 4.5-7.5Zm-6 6 .5 1.5-1.5.5 1-2Z"/><path fill="#897264" stroke="#897264" stroke-width="3" d="m275.5 108 .5 3.5-5.5 2.5-.5-2.5 5.5-3.5Zm-24 20 1 4 1.5.5-7.5 5.5-.5-2.5 5.5-7.5Zm141 298 3.5 2.5-.5 4.5-5.5-3.5 2.5-3.5Zm-21 50 .5 3.5-5.5 10.5-.5-3.5 5.5-10.5Zm-24 41 .5 10.5-5.5.5.5-1.5 4.5-9.5Z"/><path fill="#95543F" stroke="#95543F" stroke-width="3" d="m219.5 126 2.5 8.5-1.5-.5-4 1-.5-5.5 3.5-3.5Zm32 9 2 9 14.5 5.5-4.5.5-28.5-11.5 10.5-2.5 1 2 5-3Zm29 20 19.5 16.5q7.8 8.2 6 26l-6.5 18.5-20.5-6.5 3-5-6-19 11-15-8-14 1.5-1.5Zm-119 9 1.5 3.5-1 37-3.5 5.5-2.5-1.5v-34l5.5-10.5Zm-3 58 5.5 11.5-5.5.5-2.5-9.5 2.5-2.5Zm70 0 3.5.5-8 6-1 3 1.5 2.5 3.5 2.5-5.5 7.5-.5-15.5 2.5-4.5 4-2Zm57 0 8.5 3.5-3.5 8.5-13.5-5.5 11-1-2.5-5.5Zm83 0 3.5 2.5-2.5 3.5-3.5-2.5 2.5-3.5Zm-61 6q13-3.5 16.5 2.5 1.5 15-6 21l6 1-30 46-1.5 25.5-2.5.5-3.5 23.5-7.5 5.5q-4.5 25.5-24 36l.5 1.5q-10.5 9-34 5l-7.5-4.5.5-1.5h31l4.5-2.5 2-14-17-7 11-2-.5-10.5-1.5-.5 2.5-5.5 10.5-3.5 1-2-2-1 2-4-11-2 6-4 .5-1.5 3.5.5 1.5 2.5 7 2 2.5-1.5 6-18 23.5-39.5 7.5-3.5 6-16-5.5-10.5-28 12v-1l28.5-14.5 1.5-14.5Zm67 6 3.5 2.5q-1.62 15.62 5 23l-2.5 4.5-8.5 1.5 1.5 4.5 1.5.5 1 3-3.5 6.5-10 8-3 1-4-1h-2l-5.5-2.5 5.5-8.5 1 2 11-5 1 2 5.5-2.5-1.5-3.5-10 2-.5-11.5 2.5-.5 8 4 1.5-27.5 2.5-2.5Zm-176 1 5.5 11.5-1.5-.5-1.5-.5-2.5-10.5Zm60 15 5.5 2.5 1 5-1.5.5-8.5-4.5.5-1.5 2.5-.5.5-1.5Zm-55 1 .5 5.5-5.5 1.5-.5-3.5 5.5-3.5Zm-11 1 4.5.5-17.5 11.5.5-1.5 3-4-.5-1.5 10-5Zm29 1 .5 4.5-5.5 10.5-.5-4.5 5.5-10.5Zm18 0 .5 2.5-1.5 44.5-4.5.5-.5 6.5-19-1-16 7 .5-1.5 1.5-3.5 15.5-5.5.5-27.5 2 1 3.5-2.5 2.5-3.5 9.5-7.5 5.5-9.5ZM224 288l-2 5 11 1 1-4-10-2Zm-67.5-15 27 56 8.5 1.5.5 5.5 1.5.5-2 4v2l1.5 5.5 4-1 6.5 14.5-2.5-1.5-3.5.5.5 2.5 1.5.5.5 1.5 10.5 4.5 1 2-8 1 4.5 6.5 1.5.5-.5 6.5-2.5-1.5-2.5-3.5-1.5.5-10.5-18.5-1.5.5-13.5-27.5-3.5-1.5v-6l-9-16 3-1-12-24 .5-14.5Z"/><path fill="#95543F" stroke="#95543F" stroke-width="3" d="m227.5 366 5.5.5-15.5 5.5v-1l10-5Zm-4 37 7.5 5.5 3 12-1.5-.5-4 1q.63-12.13-6.5-16.5l1.5-1.5Zm5 22 5.5 3.5 2.5 3.5 3.5 2.5.5 1.5 11.5 3.5 2.5 4.5 3.5 2.5.5 1.5 9 2 2.5-1.5.5 1.5 5-2 .5 5.5q-3.75 6.25-17.5 2.5l-9.5 5.5 2 1-10.5 4.5-3-22-1.5.5-5.5 9.5-14 3-1-2-5 3-1-3-1.5-.5 11.5-17.5 8.5-1.5.5-11.5Zm48 43 8.5.5 2 4-8.5 1.5-2-6Zm-79 7 .5 5.5-5.5 10.5-.5-5.5 5.5-10.5Zm-6 24 .5 5.5-11.5 22.5-.5-5.5 11.5-22.5Z"/><path fill="#A08B84" stroke="#A08B84" stroke-width="3" d="m256.5 127-2 5-2.5-.5.5-2.5 4-2Zm82 269 3.5 1.5-5.5 8.5-.5-8.5 2.5-1.5Zm-3 22 .5 1.5-5.5 10.5-.5-4.5 5.5-7.5Z"/><path fill="#BD8165" stroke="#BD8165" stroke-width="3" d="m218.5 134 20.5 9.5-22.5.5-1-6-15 6v-1l18-9Zm-32 10 10.5.5-16 9-7 20 6 19-6.5 17.5-5.5 3.5 1 2-5.5.5-1.5-2.5 6-6 .5-54.5 18-9Zm73 6 13.5 6.5 2 7-1.5 2.5-8.5 5.5-13 24 24 9-3.5 5.5-20 2-.5-11.5-5-11 17-28v-8l-4.5-3.5Zm-20 66 4.5.5-14.5 5.5v-1l10-5Zm-41 15 11.5 14.5-3.5.5-3.5-2.5-6-11 1.5-1.5Zm23 10 .5 5.5-5.5 10.5-.5-5.5 5.5-10.5Zm20 0 4.5 2.5-.5 2.5-5.5-3.5 1.5-1.5Zm-35 11 3.5.5q1.24 13.24-6 18v12l-5.5 10.5-1-5-5 1-2-7-9.5 3.5-1 3 2.5 3.5 8 2 1.5-.5-2.5 10.5-13 2-8-15-1.5.5q-8.83-10.17-5-33l2.5-.5 5 6 9.5 5.5-16 1 7.5 10.5 15.5-8.5-1-2 1.5-.5 3.5 2.5 3.5 9.5 2.5-1.5 10.5-28.5Zm48 0v2l21.5 7.5.5 1.5 8.5-4.5-.5-1.5q5.5-6.5 19-5l2.5 12.5-26 28-6 18-13.5 19.5-32.5-1.5q8.55-6.95 6.5-24.5l3 2 3-23q10.19 7.31 12 23l15.5-2.5 17-28 3-11-30.5-.5-15.5 13.5-1.5 3.5-.5-9.5 5-3 1.5-2.5 11.5-5.5-1.5-2.5-5 1-2.5-1.5 5.5-5.5ZM243 306l-3 12 10 5 2-16-9-1Z"/><path fill="#BD8165" stroke="#BD8165" stroke-width="3" d="m215.5 259 .5 21.5h-1l-1.5-4.5-3 1-.5-8.5 5.5-9.5Zm-24 50 .5 2.5 6.5 12.5 4.5 2.5-.5 1.5-10 4-1-2-5.5-1.5q-1.83-14.33 5.5-19.5Zm1 33 5.5 2.5-2.5 3.5-3.5-2.5.5-3.5Zm16 30 8.5.5-1 4 23.5 1.5 6.5-3.5-1-2 4.5-.5 2.5 4.5q-10.63 12.37-38.5 7.5l-5-12Zm12 85 1.5.5.5 4.5 19 6q8-9 28-6l7.5 3.5 1 2-2 1-.5 2.5-6-3-3.5 2.5-5.5 8.5-15 7-4.5-3.5-3.5-6.5-16-8-4.5 2.5 23.5 24.5 6 3 17-6 .5 8.5-11.5 9.5-1-6-15.5 2.5-8.5 21.5-36.5-.5-2.5-5.5-2.5-.5 12-28v-20l9.5-11.5 13-5Zm59 17 7.5.5-2.5 5.5-2.5-.5-2.5-5.5Z"/><path fill="#AC6A54" stroke="#AC6A54" stroke-width="3" d="m204.5 138 4.5.5-14.5 5.5v-1l10-5Zm27 0 13.5 5.5-5.5.5-8-6Zm16 6 15.5 5.5-4.5.5-11-6Zm18 6 14.5 5.5 2 4 5 12q-10.5 5.5-11 21l6 14-8.5 3.5 2.5-3.5-.5-2.5-23.5-8.5 15.5-26.5 6.5-3.5 1-5-6.5-8.5-3-2Zm-98 8 .5 49.5-6 7 .5 1.5-6.5-2.5.5-4.5 2 1 3.5-5.5v-36l5.5-10.5Zm99 64q17-4.5 21.5 3.5l-.5 2.5h-21l-2.5-2.5 2.5-3.5Zm-90 12 3.5 2.5-.5 3.5-5.5-.5 2.5-5.5Zm27 10 .5 1.5h-1l.5-1.5Zm43 0 7.5 2.5-11.5 5.5v-1l3.5-1.5-2-3 2-1 .5-1.5Zm57 2 2.5.5 5 13-8.5 15.5-8.5 4.5-24 44-2.5 10.5-5 1-5.5-3.5.5-1.5 3.5-.5 13-19 6-18 24-24 2-14-11-3 8.5-5.5Zm-82 1 .5 5.5-5.5 10.5-.5-5.5 5.5-10.5Zm-60 5 6.5 3.5-.5 5.5-5-3-1 23q-8.84-6.66-5.5-25.5l5.5-3.5Zm36 0 2.5.5-2 5 4.5.5 1.5-.5-9.5 24.5-1.5-.5-3.5-9.5-18.5-7.5 10.5-.5 16-12Zm61 3 1.5.5-1.5.5v-1Zm25 2-1 4-6 2-2-3-3.5-1.5 12.5-1.5Zm-31 1 4.5.5 1 2-13 7-1.5 2.5-3 1-.5-7.5 1.5.5 11-6Zm-41 18 2.5.5 2 26-7.5 3.5 1.5-2.5 1.5-27.5Zm-49 6 1.5 2.5-2-1 .5-1.5Zm3 6 2 4 4.5 2.5 4.5 11.5 13.5-2.5 3.5-15.5 4.5.5q1.89 15.39-5.5 21.5l-3.5 1.5-3 17 .5 1.5-4.5-2.5-16.5-39.5Zm74 11 .5 2.5-2.5 4.5-3.5-2.5.5-3.5 5-1Zm-6 17 .5 2.5-6 10 .5 1.5q-25.87-4.87-36 6l-.5-3.5 11-5-2.5-3.5-2.5-.5-2-5 2.5-1.5 33 1 2-2Zm3 14 16.5.5-2.5 3.5-4 2-10-6Zm-18 12 4.5.5-1 4 .5 1.5-6.5-2.5 2.5-3.5Zm37 0 2.5.5-3.5 4.5-2 1-.5-2.5 3.5-3.5Zm-22 24 11.5 5.5-21.5.5v-1l10-5Zm-29 6 5.5 2.5 3.5 9.5q27.29 4.79 38-7l.5 6.5-2.5 4.5-36 2-4-11-5.5-4.5.5-2.5Zm25 48 4.5 1.5-.5 4.5-5.5-1.5 1.5-4.5Zm7 25 1.5.5 2.5 21.5 1.5.5-3.5.5-16.5-6.5-.5-4.5-6 3 1-2 16.5-5.5 3.5-7.5Zm39 9 8.5 13.5-5.5.5-3-4-23-2h-2l-1.5-.5 9.5-5.5 17-2Zm-68 2 2.5.5.5 4.5 1.5.5-12 8-1.5 3.5-.5-4.5 9.5-12.5Zm-10 25 .5 12.5-5.5 9.5-.5-11.5 5.5-10.5Zm-6 24 .5 6.5-6 10 4 2 1 4-10.5.5.5-1.5 10.5-21.5Z"/><path fill="#CC9A88" stroke="#CC9A88" stroke-width="3" d="m213.5 138 2.5.5.5 5.5 6.5 3.5q-16.16.84-23 11l-8 16 1 4 1 3 6.5 14.5 15.5 6.5 2.5 5.5 9.5 5.5.5 2.5 10.5.5-16 8-1 16-12 28-.5 14.5-2-1-3.5 5.5 2.5.5 3.5-2.5q4.25 16.25-3.5 20.5l-7.5 2.5-1.5 9.5-5.5-3.5 12-32v-12q7.24-4.76 6-18l-3.5-.5-2.5 1.5.5-9.5 5 2 .5-2.5-11.5-12.5-1.5.5-5.5-7.5-23.5-9.5 3.5-4.5 2.5-.5 6-24-6-17 9.5-17.5 30-13Zm16 6q24.99-2.99 34.5 9.5v8q-12.89 12.11-17 33 6.59 2.41 5 13l-4.5 2.5q-10.07-5.93-7.5-24.5l10-20v-7L235.5 148l-1.5.5-1.5-2.5-3-2Z"/><path fill="#CC9A88" stroke="#CC9A88" stroke-width="3" d="m229.5 147 1.5.5-1.5.5v-1Zm22 102 1 3 1.5.5-4.5 5.5 1.5.5-8.5 5.5-2.5-8.5 11.5-6.5Zm6 15 30.5.5-3 11-17.5 28.5-15.5 2.5-2.5 16.5-9.5-5.5 2.5-11.5 9.5-.5v-6l-12-18 13.5-15.5 4-2Zm3.5 12-7 4v2l-1 2 5 3 13-3 2-5-12-3Zm12 0 2 4 1-3-3-1Zm-109.5-6 22.5 1.5-1.5 2.5-14 7-7-11Zm23 12 5.5 1.5-1.5 10.5-9.5-3.5-1-3 2.5-3.5 4-2Zm31 90 7.5.5-4.5 5.5-4.5-1.5 1.5-4.5Zm16 0 12.5 1.5-1.5 2.5-11 2 .5-1.5-.5-4.5Zm-12 96 16.5 8.5 4.5 7.5 4 2 16.5-9.5 3.5-6.5 6-2 5 6 4.5 3.5.5 2.5 1.5.5-20 19-.5-7.5-18 6-28.5-26.5.5-1.5 4-2Zm66 5 .5 1.5h-1l.5-1.5Zm-47 31 11.5.5.5 5.5 1.5.5-2.5 6.5-5-1-.5 4.5.5 1.5-4.5.5-2.5 5.5-11.5-.5 8.5-21.5 4-2Z"/><path fill="#D5AB99" stroke="#D5AB99" stroke-width="3" d="m220.5 144 13.5 3.5.5 1.5h2l13.5 9.5v7l-10 20v13l7.5 11.5 4-2 .5 4.5q-7.03 6.47-23.5 3.5l-2-4-8.5-4.5-5.5-8.5-12.5-3.5-8-16 1-4 1-3 12.5-20.5 16.5-4.5-2.5-3.5Zm9.5 3v1h1l-1-1Zm30.5 129 11 1 4-1 .5 2.5-2 1-.5-1.5-3 6-13 3-3.5-1.5.5-1.5-1.5-.5 1-2-.5-1.5 1.5-.5-.5-1.5 3-1 3-1Zm-53 6 2.5 1.5-3.5 4.5-2.5-.5 3.5-5.5Zm17 60 4.5.5-1 4 .5 1.5-6.5-2.5 2.5-3.5Zm1 30 8.5 1.5-1.5 4.5-11.5-.5 4.5-5.5Z"/><path fill="#3A1514" stroke="#3A1514" stroke-width="3" d="m294.5 74 .5 1.5h-1l.5-1.5Zm4 2 3.5 1.5-.5 2.5-1-2-2-2Zm-24 1 .5 1.5h-1l.5-1.5Zm-47 6 3.5.5-3.5.5v-1Zm56 2 5 6-4 1-1-2 1.5.5 1-2-2.5-3.5Zm-78 8-.5 1.5-3.5 7.5-.5-2.5 4.5-6.5Zm69 1-.5 1.5-.5 1.5-.5-1.5 1.5-1.5Zm34 6-.5 1.5-.5 4.5-.5-4.5 1.5-1.5Zm-3 8 1.5.5-.5 1.5-1.5.5.5 1.5-.5-2.5.5-1.5Zm-2 4v3l-1.5.5-3.5 5.5-2.5.5-.5 1.5-2 1 9.5-10.5.5-1.5Zm-96 1-.5 1.5-.5 1.5-.5-1.5 1.5-1.5Zm77 14-1 2-1.5.5-6.5 7.5-1.5-.5-.5 1.5-1.5-.5-.5 1.5-11.5-3.5 5.5-.5 1 2 3 1 15-11Zm34 60 .5 1.5h-1l.5-1.5Zm1 5 .5 1.5h-1l.5-1.5Zm3 6 7.5 8.5-6-5-1.5-3.5Zm14 24 .5 1.5h-1l.5-1.5Zm38 4 .5 1.5-1.5.5 1-2Zm-6 4 1.5.5-1.5.5v-1Zm-201 2 .5 1.5h-1l.5-1.5Zm170 0 .5 27.5h-1l.5-27.5Zm-165 1 2.5 1.5-1.5-.5-1-1Zm-1 2 1.5.5-.5 1.5-1-2Zm117 2 2.5 3.5h-1l-1.5-3.5Zm-57 1 .5 1.5h-1l.5-1.5Zm137 7 .5 1.5h-1l.5-1.5Zm-128 1 4.5 2.5-9.5 3.5v-1l4.5-2.5.5-2.5Zm146 0 1.5.5-2.5 1.5 1-2Zm-159 3 4.5 1.5-4.5.5v-2Zm140 0-1.5 2.5-.5 1.5-5 2 1-2 6-4Zm-32 15 1.5.5-.5 1.5-1.5.5 1 2-3.5 7.5-1.5-2.5 2-1-1-2 1.5-2.5 1.5.5-1-2 1.5-2.5Zm16 5 3.5 1.5-4.5 2.5.5-1.5.5-2.5Zm-20 8 .5 2.5h-1l.5-2.5Zm-2 5 1.5.5-.5 1.5-1.5.5.5 1.5-.5-2.5.5-1.5Zm-2 4v3l-1.5.5v2l1 3-3 2 1-5h-2l4.5-5.5Zm1 10 1.5.5 1 3-2-1-.5-2.5Zm3 6 .5 18.5h-1l.5-18.5Zm38 16 2 4 1.5.5-.5 1.5-1.5-.5-1.5-5.5Zm4 8 2 10 5-6 4-1 3.5 2.5-1.5-.5-3-1-4.5 3.5-7 18h2l-1.5 2.5-1-2-1.5 9.5 1 9h-1l-1.5-4.5-3.5 2.5.5 1.5-.5-2.5.5-1.5 1.5-.5 5-21h-2l1.5-2.5 1 2 1-18Zm-43 1 .5 1.5h-1l.5-1.5Zm-126 3 5.5 2.5.5 2.5 3 1 2.5-1.5 2.5-4.5q16.44-2.44 21.5 6.5l1.5 3.5 5 2h2l5.5.5-5.5 3.5q-7.69-7.31-25.5-4.5l5-3-.5-1.5-5.5.5-3.5 4.5q-16.25 4.25-20.5-3.5l-.5-2.5-1.5-.5 8.5-5.5Zm124 3 .5 1.5-2.5 3.5-.5-1.5 2.5-3.5Zm59 2 .5 1.5-2 1 1.5-2.5Zm-28 1 .5 5.5h-1l.5-5.5Zm-34 3 1.5.5-2 1 1 2-3 2-39.5 41.5 39.5-42.5 2.5-4.5Zm60 0 1.5.5-1.5.5v-1Zm-1 2 1.5 22.5h-1l-.5-22.5Z"/><path fill="#3A1514" stroke="#3A1514" stroke-width="3" d="m369.5 346 .5 1.5h-1l.5-1.5Zm-132 2 2.5.5-1.5 3.5-3 1-.5-1.5 2.5-3.5Zm137 0 .5 1.5h-1l.5-1.5Zm-19 2 .5 1.5-2.5 4.5-.5-2.5 2.5-3.5Zm-149 3 14.5 8.5-8.5.5-3.5-1.5 1-3-3.5-4.5Zm147 5 .5 2.5h-1l.5-2.5Zm-119 2 1.5.5-1.5.5v-1Zm90 1 1.5.5-17.5 18.5v-3l1.5-.5 12.5-14.5 2-1Zm4 1 1.5.5 1 3-2-1-.5-2.5Zm-172 1 .5 3.5h-1l.5-3.5Zm197 3 .5 1.5-2 1 1.5-2.5Zm30 0 1.5.5-.5 1.5-1.5.5 1 2-3.5 6.5-1-2 1.5-.5-1-2 1.5-2.5 1.5.5-1-2 1.5-2.5Zm-20 4 2 4 4-2-2 3-3.5-1.5-.5-3.5Zm-32 1 .5 14.5h-1l.5-14.5Zm48 8 .5 12.5h-1l.5-12.5Zm-73 1 .5 2.5-2.5 4.5-1.5.5.5 1.5-1.5-.5-1 2-4 6-.5 1.5v-3l1.5-.5 3-5 5.5-9.5Zm-157 4 .5 1.5-2 1 1.5-2.5Zm-2 4 .5 1.5-3 5-.5 1.5-1.5-.5.5-1.5 1.5-.5 2-4 .5-1.5Zm6 1 .5 1.5-2 1 1.5-2.5Zm115 1-1 2-1.5-.5 2.5-1.5Zm78 2 1.5 3.5h-1l-.5-3.5Zm-195 1 1.5.5-.5 5.5-1.5-.5 1-4-.5-1.5Zm109 1-1 2-5 2v-1l6-3Zm-8 4-1 2-1.5.5-.5 1.5-1.5-.5-.5 1.5-1.5-.5.5-1.5 6-3Zm42 0 .5 2.5-2.5 4.5-1.5.5 1 2-1.5 2.5-1.5-.5 1 2-2.5 1.5v-1l1.5-.5-1-2 6.5-11.5Zm-152 1 .5 2.5h-1l.5-2.5Zm10 1 1.5.5-.5 1.5-1.5-.5.5-1.5Zm226 1 .5 2.5h-1l.5-2.5Zm-140 2 6.5.5-8 2-.5 3.5-.5-3.5 2.5-2.5Zm140 3 .5 2.5-1.5 3.5.5-3.5.5-2.5Zm-237 1-.5 1.5-.5 1.5-1.5.5-.5 2.5-.5-2.5 1.5-2.5 2-1Zm9 5 .5 1.5h-1l.5-1.5Zm225 0 1 2-1.5.5.5 1.5-1.5-.5 1.5-3.5Zm-136 2q9.23 13.78 26.5 19.5l-2 1 .5 1.5-2.5-1.5.5-1.5-2 1-5.5-3.5-.5-1.5-1.5.5.5-1.5-2-1-12.5-10.5.5-2.5Zm134 3 1.5.5-1.5.5v-1Zm-1 2 1.5 6.5-2 1 1-6-.5-1.5Zm-236 5 .5 4.5h-1l.5-4.5Zm237 4 1.5.5 1 3-1.5.5-1-4Zm-225 7-.5 1.5-1.5 3.5-.5-1.5 2.5-3.5Zm221 1 1.5.5-1.5.5v-1Zm-234 1-.5 1.5-.5 1.5-1.5.5v2l-1.5 2.5-.5-2.5 2-1 2.5-4.5Zm233 1 .5 2.5v2l-.5 1.5-1.5-3.5 1.5-2.5Zm-223 3 1.5.5-1.5.5v-1Zm-1 2 1.5 2.5h-1l-.5-2.5Zm0 4 .5 1.5h-1l.5-1.5Zm-15 8-.5 1.5-.5 1.5-1.5.5v2l-.5 1.5-1.5.5-.5 5.5-3.5-.5-1-3 2 1 .5 1.5 3-7 1.5-.5 2.5-4.5Zm12 0 .5 1.5-3.5 5.5-.5-1.5 3.5-5.5Zm-9 21-3.5 4.5-.5 1.5-.5-1.5 4.5-4.5Zm-29 8 .5 1.5q-5.01 4.75 2.5 9.5l-5.5-3.5 2.5-7.5Zm22 2 .5 3.5-2.5 3.5-1.5.5-1.5 3.5-5 1-1.5-2.5 2.5 1.5 6.5-5.5.5-1.5 1.5-.5v-2l.5-1.5Zm-1 15 1.5.5-4 3 2.5-3.5Zm215 8 2.5 1.5-9 6-.5 1.5-1.5.5v2l-.5 1.5-1.5-.5.5-1.5 1.5-.5v-2l5.5-6.5 1.5.5 1.5-2.5Zm-228 12-1.5 2.5-2.5 4.5.5-1.5 3.5-5.5Zm63 0 4 1 1.5-.5-.5 6.5-5.5-.5.5-6.5Zm154 3 .5 3.5h-1l.5-3.5Z"/><path fill="#DADBDF" stroke="#DADBDF" stroke-width="3" d="m259.5 241 3.5.5-.5 3.5-4 1-.5-2.5 1.5-2.5Zm97 53 3.5 2.5-1.5 2.5-3.5-.5-1-2 2.5-2.5Zm-155 96 5.5.5 2 7-29 46 2 1-14 22v13l-12 30-.5 18.5-23.5-.5 5.5-15.5 3.5-1.5 2.5-5.5 1 2 2-4 7.5-5.5 2-23 10-13 2-11 33.5-60.5Zm126 6 2.5.5-3.5 5.5-2.5-.5 3.5-5.5Zm-13 8 3.5 1.5-12 38v12l-12 24v30l-6.5 18.5-46.5-.5 2.5-5.5 8.5-1.5v-7l34-34 2-7-12-17q1.91-16.91-5-25l5.5-7.5q24.78-3.72 38-19Zm-196 29 1.5 4.5-15 36-9 11-3 13-15 22-.5 8.5-17.5-.5v-11l6-11 6-25 15-24 15.5-15.5 16-8Zm296 17h11l23.5 13.5 2.5 10.5 38.5 17.5 2 4-.5 2.5q-13.24-1.24-18 6h-13L446 516.5l-2.5 11.5-95.5-.5 3-11 7-7 19.5-39.5 13-11q5.83-5.17 19-3l4.5-3.5.5-2.5Zm82 42 6.5 1.5 1 6-2.5-1.5-3.5-.5-1.5-5.5Z"/><path fill="#D8C5C3" stroke="#D8C5C3" stroke-width="3" d="m176.5 246 3.5 2.5-2.5 3.5-3.5-2.5 2.5-3.5Zm53 96 4.5 2.5-2.5 3.5-3.5-1.5 1.5-4.5Z"/><path fill="#878B99" stroke="#878B99" stroke-width="3" d="m257.5 244 1 2 1.5.5-2.5 5.5-5.5-.5 5.5-7.5Zm79 147 3.5 1.5 2 4-1.5-.5-4 1v-6Zm-127 7 .5 28.5-12 17q-2.75 32.75-18 53l-.5 14.5-4-1-1.5 5.5v2l-.5 7.5q-6.87-3.62-5.5-15.5l17.5-46.5 1 2q7.66-4.84 5.5-19.5l-11-2 28.5-45.5Z"/><path fill="#878B99" stroke="#878B99" stroke-width="3" d="m205.5 438 4.5 1.5-2.5 4.5-3.5-.5 1.5-5.5Zm-55 60 1.5.5-11.5 5.5v-1l10-5Z"/><path fill="#A6A5AB" stroke="#A6A5AB" stroke-width="3" d="m356.5 288 3.5 2.5-.5 4.5-4-1-1.5.5 2.5-6.5Zm40 141 4.5 2.5-2 1 8 5-12.5.5-.5-2.5 2.5-6.5Zm-205 26 .5 1.5-5.5 8.5-1.5-2.5 3.5-6.5 3-1Zm-18 38 .5 6.5-5.5 9.5-.5-4.5 5.5-11.5Zm-5 24 5.5 10.5-5.5.5v-11Zm308 0q10.07-1.58 12.5 4.5l2 6-21.5.5-.5-3.5 5.5-6.5 2-1Z"/><path fill="#6B1A19" stroke="#6B1A19" stroke-width="3" d="m208.5 330 9.5.5-2.5 4.5-3 1-2.5-1.5-1.5-4.5Zm-11 12 12.5 7.5.5 1.5 17 3 2-1h2l2-1 1 2 1.5.5-2 3 1.5 2.5q-24.17 3.67-32.5-8.5l-2.5-3.5-2 1-1-7Z"/><path fill="#932321" stroke="#932321" stroke-width="3" d="m202.5 342 8.5.5-1 2 2.5 3.5 1.5-.5-.5 1.5 10.5 3.5-7.5 1.5-6.5-3.5-.5-1.5-7-7Zm39 5 3.5.5-1.5 2.5-2.5-.5.5-2.5Z"/><path fill="#A93F2E" stroke="#A93F2E" stroke-width="3" d="m212.5 342 4.5.5-1 4 .5 1.5-6.5-3.5 2.5-2.5Z"/><path fill="#982523" stroke="#982523" stroke-width="3" d="m233.5 342 17.5 5.5-5 1-3.5 5.5-2.5-.5-.5-5.5-5.5-.5-.5-5.5Zm8.5 5-1 3h3l1-2-3-1Zm-29.5-1 15.5 5.5-.5 2.5-6.5-.5 3-1-12-5 .5-1.5Z"/><path fill="#C8CBCE" stroke="#C8CBCE" stroke-width="3" d="m260.5 240 1.5.5-1.5.5v-1Zm3 2 .5 1.5h-1l.5-1.5Zm93 57 1.5.5-1.5.5v-1Zm-22 92v3l-3.5 1.5 2 1q-6 7.5-3 24l-12 23 3.5.5 2.5-1.5-18 36v7L294.5 502l-.5-22.5 12-24v-12l12-38-1.5-2.5 7-3 1 2 3.5-1.5 2-4-2-1 6.5-4.5Zm67 47 22.5 11.5-10 1-1.5 3.5-16 2-18 15-.5-2.5 17.5-29.5 1 2 5-3Zm-226 15-.5 1.5-2.5 4.5.5-1.5 2.5-4.5Zm-4 7 .5 1.5-1.5 2.5-.5-1.5 1.5-2.5Zm8 8 .5 8.5-12 20-6.5 31.5-5.5-.5v-18l12.5-36.5 2 1 9-6Zm310 24 8.5 2.5.5 3.5 6.5 2.5 11 16v11l-11.5.5-5-14q-7.23-7.27-25-4l-7.5-4.5.5-1.5 24.5-6.5-2.5-5.5Zm-344 11-1 4-1-2-5 8-.5-2.5 3.5-6.5 4-1Zm315 1-1 2-1.5-.5 2.5-1.5Zm-4 2-6.5 7.5.5 2.5 8.5 6.5 2 5-16.5.5-.5-6.5 12.5-15.5Z"/><path fill="#302933" stroke="#302933" stroke-width="3" d="m214.5 96 1.5.5-2.5 1.5 1-2Zm-2 300 4 6 5.5.5-.5 11.5-5.5-.5-2.5-5.5-3 1-.5-10.5 2.5-2.5Zm6 24-2.5 3.5-5.5 10.5-.5-2.5 5.5-10.5 3-1Zm166 24 2.5.5-6.5 7.5-.5-1.5 4.5-6.5Zm34 0 9.5 5.5-1.5.5-8-6Zm-215 4 1 2 1.5.5-3 1-4.5 9.5-.5-4.5 5.5-8.5Zm-36 6 .5 1.5-5.5 8.5-.5-2.5 5.5-7.5Zm214 2 2.5.5-5.5 9.5-1.5-3.5 4.5-6.5Zm-186 6 2.5.5-3.5 5.5-2 1 .5-1.5 2.5-5.5Zm-6 18 2.5.5-6 11 3 1-2.5 3.5-1-3-3 5-2 1 .5-1.5 8.5-17.5Zm-13 36 3.5.5-2.5 5.5-3.5-2.5 2.5-3.5Z"/><path fill="#B4B7BD" stroke="#B4B7BD" stroke-width="3" d="m335.5 393 .5 23.5-11.5 25.5-6 2-.5-2.5 12-21q-3-16.5 3-24l-2-1 4.5-2.5Zm67 39 7.5 5.5-2 1-.5 2.5-2-3 1.5-.5-5-3 .5-2.5Zm-9 6 7.5.5-4.5 2.5-1-2-5 8-.5-2.5 3.5-6.5Zm-210 6 8.5 2.5-1.5 9.5-2.5.5-7.5 15.5-1-4-10 6-1.5-6.5 15.5-23.5Zm-4 33 .5 2.5-11.5 24.5-.5-7.5 11.5-19.5Zm282 27 5.5.5 2.5 3.5 23 2 8.5 5.5 3 12-12.5.5-6-10-9-1-5.5 4.5-2.5 6.5-7.5-.5-8.5-11.5-2.5-.5 7.5-9.5 4-2Zm-294 1 .5 22.5-5.5.5-.5-12.5 5.5-10.5Zm9 5 3.5 2.5-2.5 3.5-3.5-.5 2.5-5.5Z"/><path fill="#6B6576" stroke="#6B6576" stroke-width="3" d="m335.5 390 1.5.5-1.5.5v-1Zm6 11 .5 1.5-5.5 10.5-.5-5.5 3.5-5.5 2-1Zm-124 13 4.5 2.5-2.5 3.5-3.5-.5 1.5-5.5Zm-8 13 .5 11.5-1.5-.5-3.5.5-1 5 2 1-7.5 10.5-.5-11.5 11.5-16.5Zm168 36 .5 4.5-5.5 10.5-.5-4.5 5.5-10.5Zm-18 36 1.5 3.5-12.5 17.5-.5-4.5 11.5-16.5Z"/><path fill="#92A4BB" stroke="#92A4BB" stroke-width="3" d="m395.5 426 8.5 5.5-2 1-.5 1.5-2.5-1.5 2-1-5-3-.5-2.5Z"/><path fill="#ABBFD4" stroke="#ABBFD4" stroke-width="3" d="m408.5 438 7.5 5.5-2.5.5-5.5-3.5.5-2.5Z"/></svg>