<svg viewBox="0 0 750 690" xmlns="http://www.w3.org/2000/svg"><path fill="#0E0000" stroke="#0E0000" stroke-width="3" d="m324.5 90 47.5.5-2.5 5.5h-46q-5.74 7.76-21 6v-1l22-11Zm102 0q14.66-2.16 19.5 5.5l-14.5.5-5.5-3.5.5-2.5Zm26 6q14.05-1.55 19.5 5.5l-9.5.5-10-6Zm-164 6 11.5.5-1.5 3.5-12 2-50 24v-1l52-29Zm192 1 9.5 4.5-4.5.5-5.5-3.5.5-1.5Zm12 5 18.5 6.5-1.5 2.5-4 1-13.5-7.5.5-2.5Zm24 10 18.5 8.5-2.5 3.5-16.5-7.5.5-4.5Zm27 14 2.5.5.5 3.5 27.5 19.5-3.5.5-28.5-17.5-1-3 2.5-3.5Zm-311 1 1.5.5-2 4 .5 1.5-17 8-34.5 28.5-16.5 34.5-2.5-.5q4.59-35.91 30.5-50.5l40-26Zm118 9 4.5 3.5.5-3.5 1.5 5.5-2.5.5-4-6Zm10 4 6 8 11.5 5.5-.5 2.5-11-6-1 2-3.5-1.5 3-1-5-3 .5-6.5Zm-29 8 3.5 11.5-4.5 7.5h-2l-3.5-2.5-1-7 1.5.5 5.5-.5.5-9.5Zm245 3 20.5 17.5 2 5-1.5.5-21.5-20.5.5-2.5Zm-246 24 5 10 1-3 1.5 3.5-2 1 3.5 5.5 2.5.5q-3.93 18.43 2.5 26.5l2-1 1.5 3.5 4.5 9.5 3 1-.5-1.5-2-3 1.5-.5 15.5 6.5-20.5 2.5v-1l9.5-.5-9-4-4.5-9.5-6.5-4.5-2-20-4.5-5.5-7.5-3.5 5-2 1-7-.5-3.5Zm270 1 10.5 15.5-1.5.5q-9.23-4.45-9-16Zm-167 10 6.5.5-1 2 2 3-2.5.5-6.5-3.5 1.5-2.5Zm-119 2 1.5.5-1.5.5v-1Zm-36 5 2.5.5-5.5 1.5v-1l3-1Zm334 1 5.5 15.5-2.5.5q-5.5-5-3-16Zm-368 11 1.5.5-9.5 5.5-2.5-1.5 10.5-4.5Zm-81 17 4.5 1.5-2.5 3.5-2-5Zm31 4 1.5 5.5-5.5 15.5-1.5.5 5.5 7.5 1-3 2.5.5q-1.79 13.29 5 18l-1 3 1 7-2.5 6.5-1.5.5-1 3 2.5 1.5 4-7 8.5-2.5.5-1.5h2l8-3 .5 1.5-2.5 8.5-5.5.5-.5 2.5-3.5-2.5.5-1.5-5-1-4.5 3.5.5 3.5 5.5 3.5-.5 1.5-4 1-2.5-1.5-.5 3.5-2.5-1.5-2.5-6.5-5.5 2.5-1.5 2.5-1.5-.5-.5-3.5-1 3-.5-5.5 2.5-3.5-1.5-.5 4.5-2.5 1 3 3-1 5.5-3.5-2.5-10.5-1 2-1-3-4 1-1-3-1.5-.5 2-13-6.5-8.5-14.5-8.5-1-4 1.5-.5 10 8 2-3 3.5-1.5 5.5-11.5 2-1Zm198 8 3 2 1.5-.5 2 4-11.5.5.5-1.5 1.5-3.5 3-1Z"/><path fill="#0E0000" stroke="#0E0000" stroke-width="3" d="m306.5 247 4.5.5-.5 1.5-1.5-.5 7 19-49.5 11.5-7-2-4 5-13 5-4-5-4 1-1.5-.5-2.5 5.5-4.5-2.5.5-1.5 3.5-.5-1.5-2.5-5.5-2.5-.5-1.5-1.5-.5-.5-2.5-4.5-1.5 3.5-2.5h2l44-17 39.5-1.5.5-1.5 1.5-.5-.5-2.5ZM244 277l1 2v-1l-1-1Zm76.5-28 5.5 18.5-1.5-.5-3.5-2.5-.5-15.5Zm140 1 .5 6.5-3 10 1.5.5 9.5-7.5.5-1.5 1.5.5.5 1.5 1.5.5 1 10-1.5-.5-15-1-3 1-.5-3.5q7.04-4.46 6.5-16.5Zm9 2 4.5 1.5-4.5.5v-2Zm32 5 4 5 16-4 42.5 14.5 5.5 20.5 5 1-2.5-3.5-1-14h1q-2.19 11.19 3.5 14.5l1-4 10 5 4.5-3.5-3-2-1-10 1.5-2.5q10.25 4.75 1.5 9.5l-1 3 1.5.5 6-4 3.5 5.5-1.5-.5-4.5 1.5 1.5 4.5 4-1 .5 3.5-3.5 2.5-4.5-3.5-1.5 3.5-7.5 3.5 5 6q-3-5.14-6 0l2 3-7 3 2.5 3.5 2.5.5v35l3.5 6.5 2.5.5-.5 24.5-6-1-5.5 3.5q3.61 22.11-5.5 31.5l-1-2-2 3-3.5-.5-4.5-12.5-1.5-.5q1.75-11.75-3.5-16.5l-2.5-.5v-18q-7.17-6.83-7-21l-6.5-7.5-1.5-.5-3-6 6-3-3.5-4.5-11-1-47 2v-2l-12.5 1.5.5 1.5q-11.83 9.67-38 5l-5-6 14 1 15-3 4 2 26.5-6.5 5.5-8.5 14-2 6.5 5.5 1.5 3.5 31 7 4-8 1.5 2.5-1 3 3.5 1.5 2.5-1.5-1.5-3.5-1.5-.5 2.5-1.5 6.5-4.5 3.5-4.5 7.5-2.5q-7.77-6.23-6.5-21.5l-22-12h-11l-1.5 4.5 8 2-2 4 .5 1.5-24.5-9.5.5-1.5 4.5-1.5-2.5-5.5-8.5 1.5-1.5 4.5-15.5-.5 12-10 2.5-8.5Zm78.5 36-1 2h2v2l2-1 6 1 1-2-10-2Zm1 88-2 3 3-2-1-1Zm-394.5-98 2.5 4.5-3.5 1.5-4-1-1.5.5 2.5-4.5 1.5.5 1.5 3.5 1-5Z"/><path fill="#0E0000" stroke="#0E0000" stroke-width="3" d="m542.5 283 4.5 2.5 5.5 6.5 2.5 1.5-3.5.5-13.5-6.5 4.5-4.5Zm-259 3 19.5 12.5 2.5 30.5 20-3 .5 1.5-9 2 .5 1.5-11 5h-40l-3-4-4.5-1.5.5-1.5-19-2-12.5 4.5 1.5 4.5 16.5 1.5q-8.41 15.09-7.5 39.5l-2.5 1.5-2 6-.5 77.5-2.5.5-3 17 3 1 3 5-4 1-2 12 2.5 4.5 1.5-.5 1.5-3.5 2 17 4.5-1.5-2.5-16.5-3.5-.5 3.5-5.5 8.5 2.5.5 21.5 5.5 2.5v16q9.2 6.3 6 25 15.76 36.24 45 59 6.83 9.17 3 29l3.5 7.5 2.5 1.5-.5 23.5-1.5-.5 1 6h-3l-1.5-7.5-7.5 4.5-.5 7.5-70.5-.5q3.59-19.09-2.5-28.5l-6.5 5.5-9.5 23.5-77.5-.5 6-16v-14l23-45-2.5-1.5-6 4-2.5-8.5 3-2 3.5-16.5 2.5-1.5 9-25v-12l6-12v-36l.5-5.5 3.5-1.5 2-28 6-11 .5-37.5 3.5-1.5 2-15v-2l.5-32.5 3 2 14.5-29.5-2.5-4.5-7.5 6.5-1.5 3.5-.5-10.5 4-2 1-7-2.5-3.5-2.5-.5q-2-9.5 3.5-11.5l2.5.5 1.5 5.5 7.5 5.5 4.5 6.5 10-6h2l7-2 1 3 17 1 3.5-1.5-2-6 27.5-32.5ZM201 463l-4 8-10 6q7 5 5 20h-1l-5 8v40h-1l-11 31 3 5 7-4 2 5v42l5 9-7 20-16 25 3 5 10-8 29-32 1 2 17-31v-8l12-24-2-10-1-1-9 22-9 3-5 15-7 6-2-3 11-26v-12l12-24v-41q-9-6-6-24l-4-1-4-22-1-1-5 10h-1l-5-9-1-1Zm-36 138-2 3 3 1 1-2-2-2Zm64.5-312 4.5 2.5-4 1-.5-3.5Z"/><path fill="#0E0000" stroke="#0E0000" stroke-width="3" d="m247.5 307 .5 1.5-5.5 7.5-1.5-.5 6.5-8.5Zm31 53 9.5 1.5-1.5 2.5-10 2-.5-3.5 2.5-2.5Zm183 0 24.5.5-2.5 5.5q-28.73-3.73-40.5 9.5l-1.5 2.5-3.5-.5 7.5-9.5 16-8Zm-143 12 23.5 8.5-.5 3.5q-14.25 2.25-19.5-4.5l-3.5-7.5Zm-24 24 32.5.5-3.5 5.5-23.5 1.5-1.5 2.5-7 2 .5-1.5-.5-1.5-1.5-.5 1-2-2-1 5-3 .5-2.5Zm146 0q15.36-2.36 20.5 5.5l-22.5.5-.5-3.5 2.5-2.5Zm27 0q20.75-3.75 24.5 9.5l-9.5 2.5q-4.72-8.28-19.5-6.5l5-3-.5-2.5Zm124 0 2.5.5-.5 30.5-4-1-1.5.5v-27l3.5-3.5Zm-308 8 .5 1.5h-1l.5-1.5Zm317 86 5.5 8.5q-4.41 25.41 6 36v28h-1l-5-10-1.5-24.5-2.5-1.5-1.5-36.5Zm-57 20 2.5.5 1.5 3.5 22.5 2.5-.5 5.5-8.5 5.5-2.5 5.5-1-2q-13.84 5.16-11.5 26.5l6 18 8.5 11.5 9-4 9 21 8.5 5.5 7.5 11.5 10.5 6.5 27.5 49.5 3-2 .5 14.5-94.5.5-4-6-2.5-.5-.5-2.5-1.5.5-1.5-4.5-3-2-1 2-.5-1.5-1.5-5.5-2.5-1.5-1-8v-2q-7.77-7.23-7.5-22.5l-10 3-.5-30.5 11.5-24.5 3.5-1.5 15-29q-2.36-14.86 6-19v-21l3.5-3.5ZM512 634v1h1l-1-1Zm78.5-117 2.5 1.5-1.5 2.5-2.5-1.5 1.5-2.5Zm-429 33 .5 10.5-2.5 3.5-3 1-.5-6.5 5.5-8.5Zm451 18q9.04 6.96 5.5 26.5l-1.5-.5-2.5-1.5-1.5-24.5Zm6 28 11.5 28.5v12l-1.5-.5-2.5-1.5-3.5-16.5-2.5-1.5-1.5-20.5Zm-472 28 2.5.5 1 2-5.5 6.5-.5-6.5 2.5-2.5Zm-14 17 5.5 1.5-3.5 5.5-8 1 .5-1.5 2.5-5.5 3-1Zm500 8 3.5 5.5-1.5-.5-4.5-2.5 2.5-2.5Zm-324 38 .5 1.5h-1l.5-1.5Z"/><path fill="#110F3C" stroke="#110F3C" stroke-width="3" d="M378.5 90h41l11.5 5.5-59.5.5.5-1.5.5-1.5 6-3Zm-49 6 23 1 2-1-.5 1.5-.5 2.5-30 2-10.5 8.5.5 1.5 5 2h60l12 6h24l12 6h18q9 9 30 6 7 8 24 6l36 18 41 12 .5-4.5-9-7 3.5.5 5.5 2.5 1.5 2.5 19.5 18.5 12 18 6 17-3 1-.5 7.5-2.5-.5-7.5-13.5-31-21-63-26-21-7-20-1-10-5h-20l-1 2-1-2-2.5.5 5.5 8.5q6.83 5.67 22 3l14 6 20 1 10 8 28 11 23.5 16.5 3.5 4.5 2.5 1.5-.5 1.5 1.5.5-.5 1.5 1.5.5-1 2h2l-1 4 6 10-2.5 1.5-14.5-7.5.5-1.5-3 1-10.5-8.5 1-2-5.5-3.5-.5 3.5 1.5 2.5-8.5-6.5 1-2-5.5-3.5-.5 4.5.5 1.5-12.5-6.5-1.5-3.5-10-2-1 5-11.5-5.5-1.5-3.5-10-2-6.5 3.5-.5 1.5-11-6-6 1-2-4-7-1-9 5-.5-5.5q7.59-5.41 6-20L424.5 140l-2-1-19.5 16.5 3 1-3.5 1.5-1-2-3.5-.5 8-6 2.5-14.5 5 3 .5-2.5-22.5-9.5h-14q-5.1 7.4-17.5 7.5l-.5 6.5-11-2-1 2-4.5.5.5 1.5h-2l-3.5 2.5-.5 1.5-1-3-25 1-38 12h-16q-8 7-24 6l-50 26-1.5-4.5 19-21-2-1q17.99-18.51 44-29l-2-1 46.5-23.5 27-6h2l3-1 3 1 2-3 5-3Zm3.5 1v1h14l-14-1Zm17 39v1h1l-1-1Zm103 54v1h2l-2-1Zm94 26 2 6h3l-1-2-4-4Zm13 10v1h1l-1-1Zm3 1v1h2l-2-1Zm-93.5-125 27.5 11.5-8.5.5-19-12Zm70 29 2.5 6.5-5.5.5q-5.5-3 1-6l2-1Z"/><path fill="#110F3C" stroke="#110F3C" stroke-width="3" d="m376.5 156 7.5 1.5-.5 3.5-4 1-3-6Zm1 12 .5 2.5-8.5 3.5 2-3 6-3Zm-97 7 19 3 14-3 11.5 9.5 1.5 2.5 3.5 2.5-.5 2.5-11.5-1.5-.5-3.5-3-1-2.5 1.5-1.5 4.5-17 6h-19l-11 6-3.5-2.5.5-1.5-2 1-2.5-6.5 14-7 8.5-11.5 2-1Zm12.5 20v1h1l-1-1Zm-17 1v1h1l-1-1Zm126.5-19 5.5 8.5-2.5.5-3-9Zm-148 17 .5 2.5-2-1 1.5-1.5Zm128 4 1.5.5-1.5.5v-1Zm54 0 6.5 2.5.5 1.5 17 3 8-1 6.5 4.5 8 19-1 6 1.5 4.5 1-4 1.5.5-2.5 4.5-1.5.5 2.5 6.5 1.5.5-1 2 1.5.5 1-2 3.5 1.5-2.5 3.5h-15l-11.5-4.5 6-2-3.5-4.5-2-1-6.5 3.5 1 2-1.5 2.5-31.5-2.5 2-5-1.5.5-7-1-1 2-2 1-1-3-1.5-.5 2-5-2-1 2-1 .5 1.5 11-16 1 4 4.5-3.5 1-2v-2l-1.5-4.5-2.5-1.5 3.5-8.5 1 4 5.5-3.5-1.5-2.5Zm27.5 7v1h1l-1-1Zm4 1v1h1l-1-1Zm-29 4v6l10-2v-1l-10-3Zm26 7-2 3 3 1 1-2-2-2Zm-15 11-3 2-3 4 2 5 4 1 5-9-5-3Zm24 21v1h1l-1-1Zm10 0v1h1l-1-1Zm-241.5-49 1.5.5 1 2-3.5.5.5-1.5.5-1.5Zm3 4 .5 2.5-5.5 3.5-.5-3.5 1.5.5 4-3Zm245 6 7.5 3.5-.5 2.5-7-6Zm-182 2 .5 2.5-2-1 1.5-1.5Zm3 0 13 5 2-1 1.5 2.5-.5 1.5 1.5.5v2l7.5 10.5 2.5 1.5-.5 1.5 1.5.5-.5 1.5 1.5.5-1 2h2l-1 2 1.5 2.5-2.5.5-.5 2.5-7 3-8-5-1 2-2-3-12 1-3.5-4.5 4-13-1-6 2.5-10.5Zm-.5 31v1h1l-1-1Zm9 1v1h1l-1-1Zm-12.5-20 .5 1.5h-1l.5-1.5Zm177 0 .5 1.5h-1l.5-1.5Zm-101 40 56.5.5-3 5 2.5.5 18.5.5-4.5 2.5-1.5.5 1 3-3 13 3.5 5.5 2-1 .5 19.5-3 7 .5 1.5-3 1-14.5 3.5-.5 1.5-15 2-1-3-3.5-2.5 3-2 1-18q-7.96-9.54-6-29l-3.5-4.5-5-1-3.5 2.5 6 29-2.5 10.5-3 2-.5-19.5q-8.74-7.26-7.5-24.5l-16.5 1.5-5.5 10.5-1.5-6.5 2-3-1-2 12-4-.5-2.5Zm67.5 8v1h1l-1-1Zm4 35-1 3h1v-3Zm-23 20v1h2l-2-1Zm-97.5-56q10.5-2 12.5 4.5l1 32-3 7 .5 1.5-4 2-13 5-1-2-2-1-1.5.5-.5-1.5-1.5-.5-1-6 3-5 1-26 7.5-9.5 2-1Zm-145 5 2.5.5-1.5 3.5-4 1-.5-1.5 3.5-3.5Zm181 2 .5 1.5h-1l.5-1.5Zm135 0 34 10 12 7 12-2 .5 12.5-2.5 4.5-1.5.5-5.5 7.5-5.5-.5 4-1-37.5-24.5-1.5.5-.5-1.5h-2l-1.5-.5 1-2-2-5 4-1-8-3 .5-1.5Zm28.5 11v1h1l-1-1Zm5 1v1h1l-1-1Zm6 2v1h1l-1-1Zm18 9-1 3h1v-3Zm-193.5-19 .5 1.5h-1l.5-1.5Zm-129 4 1 2 5 1 5-1 .5 2.5-2 1-.5-1.5q-5.77 18.73-20 29l-2.5 1.5-4.5 5.5-1-2-15.5-11.5 2-1 3-7-3-4 4-1 .5-1.5 3.5-.5.5 1.5 5.5-3.5-2-1 2.5-1.5 5 1 1-4 3 4 3.5-1.5-1-5 1.5.5 4.5-.5.5-1.5Zm-4.5 3-1 2h1v-2Zm12 0v1h1l-1-1Zm120.5 0 .5 3.5h-1l.5-3.5Zm-188 4 4 1 1.5-.5-2.5 5.5-3.5-2.5.5-3.5Zm191 2 .5 22.5-3.5 6.5-4.5-.5 2-4h-2l7.5-24.5Zm220 5 7.5.5-5.5 8.5-4 1-1.5-3.5 3.5-6.5Zm-272 14 .5 1.5h-1l.5-1.5Zm28 8 1 2 3 1 6-1v1q-3.92 7.08-17 5l3-4 1.5-.5 2.5-3.5Zm-17 1 2.5.5-2.5.5v-1Zm-130 2 1.5.5 1 2-2.5 1.5-1.5-2.5 1.5-1.5Zm384 24 1.5 3.5-1.5.5-1.5-2.5 1.5-1.5Zm-398 58 5.5 1.5-2.5 4.5-3.5-2.5.5-3.5Zm408 48 4 1 1.5-.5-.5 7.5-3.5-2.5-1.5-5.5Zm-417 32 2.5 5.5-2.5 4.5-3.5-2.5 3.5-7.5Zm59 12 1.5.5 2 5-1.5-.5-4 1-.5-1.5 2.5-4.5Zm-68 16 4 1 1.5-.5v2l-2.5 10.5-3.5-2.5.5-10.5Zm-3 19 2.5.5-3.5 11.5-2 1-.5-6.5 3.5-6.5Zm-15 53 4 1 1.5-.5-6.5 30.5-2.5.5-2.5 4.5-1-5-1.5-.5 2.5-12.5 4 1 1.5-5.5-2-1 2.5-12.5Zm-12 42 4 1 1.5-.5-5.5 9.5-1-3-1.5-.5 2.5-6.5Zm371 10 .5 4.5-5.5 9.5-.5-11.5 1.5.5 3.5-1.5.5-1.5Zm7 12 .5 1.5h-1l.5-1.5Zm0 3 2.5 4.5h-1l-1.5-4.5Zm-390 5 4 1 1.5-.5 3.5 7.5 2.5 1.5-6.5 21.5-5.5-.5.5-30.5Zm9.5 9-1 4h1v-4Zm-1 5-1 2h1v-2Zm495.5-14 4 1 1.5-.5-1.5 4.5-2 1-2-6Zm-124 2 2.5 1.5-2.5 3.5-2.5-.5 2.5-4.5Zm-17 5 5.5.5-9 8 3.5-8.5Zm33 4 .5 1.5h-1l.5-1.5Zm4 7 4.5 1.5 1 2-.5 1.5 1.5.5 1 2-1.5-.5-3.5-.5 1-2-.5-2.5-1.5.5-.5 2.5-2.5-3.5 1.5-1.5Z"/><path fill="#0D0027" stroke="#0D0027" stroke-width="3" d="m323.5 96 5.5.5-6 4-.5 1.5-3-1-4 2-2.5-1.5 10.5-5.5Zm9 1 14.5.5-14.5.5v-1Zm-38 10 1.5.5-1.5.5v-1Zm-8 1-1 2-37 18v-1l38-19Zm-47 24 3.5.5-9.5 6.5 2-5 4-2Zm110 4 1.5.5-1.5.5v-1Zm-4 2 2.5 7.5-2.5.5-2-1-7 9-1-4-7.5 4.5-4 13 3.5 6.5 3.5.5-1 4v2l1 7-3.5-.5-2.5-1.5-5.5-6.5q-3.7-5.8-15-4l-11 3-13-3-7.5 6.5-6.5 9.5-10.5 3.5 2.5 6.5 2-1 1 3 1.5.5-42.5 16.5-2.5-.5-1-3q-.7-16.2 10.5-20.5l10.5-6.5 1-5-1.5-2.5-6-1-16 8-51 38-2.5-11.5 13-32 13.5-15.5 10-7 2.5 1.5-19 24 5.5 1.5 46-26q16.5 1.5 24-6h16l38-12 25-1 1 3 3-4 5-4ZM183 189l2 1-2-1Zm72 5-2 2 2 1v-3Zm-12 6-1 2v1h3l-1-2-1-1Zm3 4-4 3h-2l1 3 5-3v-3Zm-15.5-65 2.5 1.5-2 1 .5-1.5-13 6v-1l12-6Zm189 2 .5 5.5q-4.75 8.25-16.5 9.5v-1l16-14Z"/><path fill="#0D0027" stroke="#0D0027" stroke-width="3" d="m215.5 147-13 16 1-3-3 1v-1l15-13Zm217 3 2.5.5.5 1.5 1-2h20l10 5 20 1 21 7 63 26 35.5 25.5 3.5 9.5 2.5.5 1 3-1.5 13.5-4-1-1.5.5-1-5-34.5-34.5-8-2-1.5 5.5 14 26-2 1-.5-1.5-2 3-8.5-2.5 1.5-.5 4 2-2-5-3 1v-1l2.5-.5-2-8 1-2h-2l1-2-2-1 .5-1.5-1.5-.5-.5-2.5-4.5-3.5-1.5-2.5-60-34q-22.17 1.67-34-7h-16l-11.5-8.5.5-3.5Zm20 40 2.5.5-2.5.5v-1Zm-141 1 1.5.5-1.5.5v-1Zm6 0 1.5.5-1.5.5v-1Zm139 0 12.5 6.5-7 1 3 5-6.5 1.5-15.5-3.5-2-3 3.5-1.5 6 1 1-2 4.5-1.5-1-2 1.5-1.5Zm-152 1 1.5.5-11.5 5.5v-1l10-5Zm-12 3 1.5.5-1.5.5v-1Zm140 0 5.5 2.5-2 1 1.5 2.5-5 3v-9Zm-157 1 1.5.5-1.5.5v-1Zm215 1 2 4 1.5-.5-1.5-2.5 1 4-4.5-3.5 1.5-1.5Zm-216 1 1.5.5-11.5 5.5v-1l10-5Zm28 1 1.5.5-1.5.5v-1Zm20 1 1 2 2.5 1.5 19.5 36.5 7.5 2.5-.5 1.5-12 2 .5-3.5-1-3 .5-1.5-1.5-.5.5-1.5-1.5-.5-.5-2.5-3.5-2.5-6-9 .5-1.5-2.5-1.5 1-2-1.5-.5-3-1-11-3-2.5 15.5 1 7-3 6 1.5 2.5-2.5-1.5 3 4-13.5 3.5-2.5-1.5-10-18v-9l17.5-19.5 14 2 8-3ZM309 212l-2 2 2 1v-3Zm-1 12-1 2h1v-2Zm189.5-21 1.5.5-1.5.5v-1Z"/><path fill="#0D0027" stroke="#0D0027" stroke-width="3" d="m514.5 203 2 4 1.5-.5-1.5-2.5 1 4-4.5-3.5 1.5-1.5Zm-45 1q17.96 2.04 28 12l1-2 3.5 11.5-2 8 4 15-4.5 2.5-8 2-2.5-1.5 2-3-3.5-1.5-1 2-3 1v-1l2.5-1.5-.5-1.5-2.5-1.5-1-5 2-1-2-10 1-6-8.5-14.5-1.5.5.5-1.5-2 1-1-3-1-1Zm20.5 12-1 4v-1l3-2-2-1Zm1 2v2h2l-2-2Zm4 0-1 2h2v-1l-1-1Zm-10 6-1 2h1v-2Zm0 10v4l1-3-1-1Zm4 1-3 3 1 2 4-3-2-2Zm-25.5-30 1.5.5-1.5.5v-1Zm4 1 1.5.5-1.5.5v-1Z"/><path fill="#0D0027" stroke="#0D0027" stroke-width="3" d="m492.5 210 4.5 2.5-1.5-.5-3-2Zm36 0 6.5 5.5-1.5.5-5.5-2.5 1-2-.5-1.5Zm84 0 .5 1.5-2 1 1.5-2.5Zm-183 6 2.5.5-3.5 4.5-2 1-.5-2.5 3.5-3.5Zm111 0 7.5 6.5-1.5.5-6.5-3.5 1-2-.5-1.5Zm11 7 1.5.5-.5 1.5 1.5.5-1.5.5-2.5-1.5 1.5-1.5Zm4 3 5.5 3.5-1.5-.5-4-3Zm4 0 1.5.5-1.5.5v-1Zm-353 3 2.5 1.5-1.5 2.5-2.5-1.5 1.5-2.5Zm205 5 2.5.5-2.5 5.5-3.5-.5 3.5-5.5Zm5 5 8 2 1.5-.5-2.5 5.5-11.5-.5 5-4-.5-2.5Zm-106 4 1.5.5-1.5.5v-1Zm9 1 2.5 1.5 1 2-2-1-.5-1.5-1-1Zm138 2 5.5.5-.5 1.5 10.5 3.5-5.5.5-10-6Zm16 3 1.5.5-1.5.5v-1Zm-268 3 14.5 8.5q1.58 10.08-4.5 12.5l-11 3-2-1-1.5.5-2-4-1-13v-2l.5-1.5 4-2 3-1Zm313 1 2.5 1.5-1.5 2.5-2.5-1.5 1.5-2.5Zm59 5 5 1 2-1q7 3.5 3.5 17.5l-11.5 1.5-14.5-6.5-.5-1.5-2.5-1.5 5.5-3.5 13-6Zm-249 6 55.5 1.5-1.5 2.5-10.5 2.5 1 2-2 3 1 19q-7.21 8.29-7 24l1 3-10.5 2.5v-1l4.5-2.5-2.5-10.5-4.5 2.5-3 7 .5 1.5-5.5 3.5-.5 1.5-11 4-18-9-1.5.5v-2q7.5-17 5-44l-1-2 5.5-3.5 6.5-3.5-1.5-2.5Zm6.5 7-2 1-8 10-1 26-3 5 1 6h2v2l2-1 2 1 1 2 13-5 6-10-1-32q-2-7-12-5Zm36 7-1 2h1v-2Zm-1 4-1 2h1v-2Zm-1 7-1 4h1v-4Zm-12 19v1h1l-1-1Zm-37 6-1 2h1v-2Zm11 9v1h2l-2-1Zm126.5-54q18.43-.93 28 7l21.5.5-.5 1.5-1.5.5 2.5 3.5 5.5.5-4 1 5.5 9.5 3 1 35.5 22.5-4 1 5.5.5 6-8 1.5.5-2 1-7.5 9.5-6 1-41-31-32-9-13.5 10.5-3.5 6.5-1-5-2 1q-5.25-3.75-3.5-14.5l3-6-3-2 1.5-.5 3 2 3-5Zm53.5 20-1 2h2l-1-2Zm-108.5-19 2 1 4-1 4.5 3.5q-1.18 20.18 7 31v16l-2.5 3.5-15.5-3.5 2.5-8.5 1.5-.5 2-19-6-20 .5-2.5Z"/><path fill="#0D0027" stroke="#0D0027" stroke-width="3" d="m508.5 278 3.5 1.5-1.5.5-2-2Zm5 2 2.5 1.5-1.5.5-1-2Zm-260 2 5 1 2-1 1.5 3.5-26 37 .5 1.5-2-1-6 2-3-1-2.5 1.5.5-2.5 3.5-1.5 1.5-2.5 10.5-9.5 10-19-8-3 .5-1.5 3-1 9-3Zm7.5 2-1 2h1v-2Zm-13 4 1 1 2 3 1-3-4-1Zm274.5-6 2.5 1.5-1.5-.5-1-1Zm-298 2 1.5.5 3 5-2.5-1.5-4 1 .5-1.5 1.5-3.5Zm302 0 3.5 1.5-2 1 .5 1.5-1-3-1-1Zm5 2 2.5 1.5-1.5.5-1-2Zm9 2 2.5 1.5-1.5-.5-1-1Zm-305 1 .5 1.5-1.5 2.5-2 1 2.5-3.5.5-1.5Zm298 0 1.5.5-1.5.5v-1Zm5 1 1.5.5-1.5.5v-1Zm6 0 3.5 1.5-3.5 1.5v-1l1.5-.5-1.5-1.5Zm-328 4 5.5 1.5-5.5 3.5v-5Zm-36 3 3 2 2.5-1.5q-1.29 11.29 6 14l-1.5-.5-8.5-6.5-1.5-7.5Zm28 4 2.5 6.5-3.5 4.5-3 1-6.5-1.5 1.5-3.5 9.5-4.5-.5-2.5Zm354 0 .5 2.5h-1l.5-2.5Zm27 2-.5 1.5-.5 1.5-.5-1.5 1.5-1.5Zm-26 3 .5 1.5-2 1 1.5-2.5Zm-109 1 .5 2.5h-1l.5-2.5Z"/><path fill="#0D0027" stroke="#0D0027" stroke-width="3" d="m456.5 307 4.5 11.5-5.5 8.5-18 4-4.5-1.5.5-1.5-2.5-.5 2.5-.5 2 1 1-2q13.46.46 18.5-7.5l1.5-11.5Zm132 2 2.5 1.5-1.5.5-1-2Zm-10 4 2.5 1.5-1.5 2.5-2.5-1.5 1.5-2.5Zm-378 11-1.5 2.5 1.5 2.5 2-1 .5 4.5-1.5 2.5-1.5-.5-2-8 2.5-2.5Zm150 0 1.5.5-1.5.5v-1Zm234 24 1 2-2.5.5 1.5 2.5 1.5-.5.5-1.5 1.5 5.5-3.5 2.5-2.5-8.5 2.5-2.5Zm-398 63 3 2 2.5-1.5-2.5 7.5-3.5-2.5.5-5.5Zm-9 75 2 3-3.5-1.5 1.5-1.5Zm334 148 1.5.5-1.5.5v-1Zm-4 2 3.5.5-3.5 5.5-3.5-1.5 3.5-4.5Zm9 13 2 4 1.5-.5v2l3 5-1.5 5.5-5.5-11.5 1-2-.5-2.5Zm6 18 2 3 1.5.5 4.5 6.5 1.5.5 2 6h-1l-.5-1.5-1.5-.5v-2l-.5-1.5-4-1-2 1-2.5-5.5 1-2-.5-3.5Zm5.5 8-1 2h1v-2Zm-392.5-7 .5 3.5h-1l.5-3.5Zm2 4 .5 1.5-2 1 1.5-2.5Zm-3 1 .5 1.5h-1l.5-1.5Zm1 3 .5 1.5-1.5 2.5-.5-1.5 1.5-2.5Zm-2 5-.5 1.5-.5 1.5-.5-1.5 1.5-1.5Zm176 4 2.5 4.5-4.5.5-.5-1.5h2l-1-2 1.5-1.5Z"/><path fill="#1F295A" stroke="#1F295A" stroke-width="3" d="m355.5 96 23.5.5-1 4 24.5 1.5 29 12h25l11 6 61 18 23 12 .5-2.5-1.5-4.5 17.5 12.5 4.5 6.5 3.5 1.5-.5 4.5-41-12-31-16-17-2-12-6h-18l-12-6q-21 3-30-6h-24l-12-6h-60l-5.5-2.5 6.5-7.5 34.5-4.5 1.5-3.5Zm72 0h22q5.09 7.41 19 6l19.5 11.5-1.5.5-35-12-19.5-.5-1.5-3.5-3-2Zm93 29 12.5 6.5-7.5.5-5-7Zm-142 36 3 1 2-1 7.5 1.5-1.5 5.5-11 2-1-2-11.5 7.5-5.5 12.5-1-2-5 3 3.5-4.5 2.5-13.5 10.5-3.5-1-5 8.5-1.5Zm26 7 3.5 2.5-.5 14.5-5.5-14.5 2.5-2.5Zm-90 18 3.5 1.5-1.5 4.5-4.5-1.5.5-3.5 2-1Zm66 1 7.5 4.5 2 6-6.5 2.5.5-3.5-2.5-4.5-3.5-.5 2.5-4.5Zm61 0 8.5 2.5-1.5 2.5-12.5-.5 5.5-4.5Zm33 5 11.5 3.5-1.5 2.5-16.5-1.5 1.5-2.5 5-2Zm-99 6 6.5.5-4 2-2.5 3.5-3 1 .5-1.5 2.5-5.5Zm123 0 11.5 3.5-1.5 2.5-10.5-1.5.5-4.5Zm24 6 5.5 3.5-1.5 2.5-4.5-1.5.5-4.5Zm-84 6 10.5 2.5-.5 1.5-10 2v-6Zm96 0 5.5 3.5-1.5 2.5-4.5-2.5.5-3.5Zm-168 6 11.5 9.5-2.5.5-9.5-7.5.5-2.5Zm180 0 4.5 3.5 1 2-3.5.5-2-6Zm-82 1 2.5 1.5-1.5 2.5-2.5-1.5 1.5-2.5Zm-72 5 3.5.5-2.5 5.5-3.5-2.5 2.5-3.5Zm57 6 5.5 2.5-5.5 9.5-3.5-1.5-2-5 2.5-3.5 3-2Zm13 12 4.5 3.5 1 2-10.5.5-1.5-2.5 6.5-3.5Zm-85 34 .5 2.5-5.5 10.5-.5-4.5 5.5-8.5Zm19 12q8.64 6.36 5.5 24.5h-1q-8.92-6.42-4.5-24.5Zm-202 74 3.5.5-2.5 5.5-3.5-2.5 2.5-3.5Zm-6 42 3.5 2.5-1.5 3.5-4.5-1.5 2.5-4.5Zm406 48 5.5 2.5-1.5 3.5-4.5-1.5.5-4.5Zm-424 54 3.5 2.5-1.5 9.5-4.5-1.5 2.5-10.5Zm436 54 2.5.5 2 5-1.5.5-3-6Zm-448 6 3.5.5-5.5 10.5-.5-8.5 2.5-2.5Zm-5 12 2.5.5-1.5 11.5-4.5-1.5 3.5-10.5Zm-6 24 2.5.5-1.5 5.5-3.5-.5 2.5-5.5Zm-6 18 2.5.5-1.5 11.5-4.5-1.5 3.5-10.5Zm-7 18 3.5.5-2.5 5.5-3.5-2.5 2.5-3.5Zm-6 12 3.5 2.5-1.5 9.5-4.5-1.5 2.5-10.5Zm375 2 .5 4.5-2 4 .5 1.5-1.5-.5-5.5 6.5-5.5-.5 13.5-15.5Zm127 4 5.5 2.5-1.5 3.5-4.5-1.5.5-4.5Zm-145 16 .5 2.5-5.5 7.5-1.5-.5 6.5-9.5Z"/><path fill="#3C517F" stroke="#3C517F" stroke-width="3" d="M379.5 96h47l5.5 3.5 1 3-1 4q19.89-1.39 29.5 7.5h13l34 12 1.5-5.5-17-6 4.5-.5 10 5 2.5-1.5 2.5-3.5 3.5 2.5.5 7.5 3.5 1.5 5.5 6.5 7.5-.5.5-1.5 1 2 1.5.5-2 4 16 7 2 4-.5 2.5-23-12h-7l-65-24h-25l-29-12-24.5-1.5 1.5-4.5ZM517 126v3l5 3v-2l-5-4Zm-130.5 0 14.5 5.5-4.5.5-10-6Zm-27 49 .5 5.5-5.5 7.5-.5-2.5 5.5-10.5Zm43 9 4.5 2.5 1 4-3.5 1.5-2-8Zm-22 2 4.5 3.5-3.5-2.5-3 2 2-3Zm8 5 4.5 1.5 3 6-5.5 8.5-17 3-1.5-4.5.5-2.5 3 1 2.5-1.5.5 1.5 3.5-.5 3.5-5.5-1.5 2.5.5 3.5 5.5-1.5-3-4 3-1-1.5-6.5Zm-26 19 3.5.5 1 5-1.5 2.5-5.5-4.5 2.5-3.5Zm42 0 3.5 2.5-1.5 3.5-4.5-.5 2.5-5.5Zm-15 60 6.5 2.5-.5 7.5-6-10Zm-12 7 .5 11.5-5.5 10.5-.5-11.5 5.5-10.5Zm19 27q7.53 4.47 6 18l3.5 1.5-6.5.5q-7.85-4.35-3-20Zm-37 20 1.5.5-1 4 .5 1.5-6.5-.5 1.5-3.5 4-2Z"/><path fill="#6C92B1" stroke="#6C92B1" stroke-width="3" opacity=".98" d="M433.5 102h17l11 6h13l35.5 12.5-1.5 5.5-34-12h-13q-9.61-8.89-29.5-7.5l1.5-4.5Zm83 24 5.5 3.5-.5 2.5-4.5-3.5-.5-2.5Zm20 0 3.5 2.5-2.5 3.5-3.5-.5 2.5-5.5Zm-144 36 5.5.5-2 4 7 2-1.5 6.5-3-1-2.5 1.5-1.5-7.5-2.5-1.5-1-3 1.5-1.5Zm-9 6 1.5.5-2.5 3.5-8 2v-1l9-5Zm0 12 5.5 3.5 3 8-2.5.5-9-6-2.5 5.5 6 4-10 4-2 9-.5 2.5-4-1h-2l-4.5-.5 8-5 3-6-2-1q.25-10.75 7.5-14.5l6-3Zm-18 1 .5 5.5-3.5 5.5-4.5-.5 7.5-10.5Zm21 17 3.5 4.5-5.5 1.5-.5-3.5 2.5-2.5Zm17 0 6.5.5-8 7 1.5-7.5Zm-8 1 .5 5.5-3.5 4.5-7 1v-1l7.5-4.5 2.5-5.5Zm6 12 1 5 5-1 .5 1.5-7.5 9.5-5 2 .5-1.5-.5-4.5-5.5 1.5 1 4-13.5.5.5-1.5-2-4q14.46 1.96 21-4l.5-1.5 1.5-.5 2.5-5.5Zm-21 59 4.5.5-2.5 3.5-3.5 1.5 2 1-2.5 4.5-.5-8.5 2.5-2.5Zm-3 19 .5 11.5-5.5 10.5-.5-11.5 5.5-10.5Zm-6 31 3.5 9.5-7.5.5-1.5-4.5 4-2 1.5-3.5Z"/><path fill="#25151C" stroke="#25151C" stroke-width="3" d="m377.5 126 4.5.5-11.5 5.5 3-4 4-2Zm30 6 6.5 3.5-.5 2.5-5.5-3.5-.5-2.5Zm15 7 3.5 5.5-1.5-.5-4 2-.5-4.5 2.5-2.5Zm-30 17 8.5.5-15.5 5.5v-1l7-5Zm39 32 1.5 4.5-1.5 6.5-4.5-3.5 4.5-7.5Zm-89 31 2 3 6.5.5 3 10h-1l-4.5-9.5-1 2-4.5-2.5-.5-3.5Zm2 27 3 1 1.5-.5-1 4 3 2 4 11-13.5.5-.5-1.5 1-3-1-2 1-4-2-4h2l2.5-3.5Zm-7 15 1.5.5-1.5.5v-1Zm202 15 21.5 11.5-3 1-2.5 5.5-8.5-7.5-1.5-2.5-6.5-2.5 1-4-.5-1.5Zm-346 2 3.5.5 1 4-1.5-.5-10 1 1-2 6-3Zm398 4 2.5.5-1.5 3.5-5 2v-1l1.5-.5 2.5-4.5Zm-382 12 5.5 2.5-3.5 2.5-2-5Zm376 6 5.5.5-3.5 7.5-4.5-5.5 2.5-2.5Zm-21 4 4.5 5.5-7.5 2.5.5-1.5 2.5-6.5Zm-354 12 8.5 7.5-3 1-.5 2.5-5-6-3.5-2.5 3-1 .5-1.5Zm203 8 5 3 1.5.5.5 2.5 7.5 5.5-16.5.5.5-1.5 2-9-.5-1.5Zm133 0 5.5.5-1.5 3.5-2 1-2-5Zm-289 6 7.5 3.5 1 2-18 13-7.5 16.5-.5-10.5 6-17-.5-1.5 5.5-.5-.5-1.5 3 1 4.5-2.5-.5-2.5Zm61 0 27.5.5-9.5 5.5h-29v-1l11-5Zm86 0 6.5.5q-1.5 7-11.5 5.5l5-6Zm63 0 5.5.5-15.5 5.5v-1l10-5Zm26 0 35.5.5-1.5 2.5q-6.94 6.56-24 3l-10-6Zm40 0 6.5 3.5-3.5 2.5-3.5-1.5 1-3-.5-1.5Zm-61 2 2.5.5-2.5.5v-1Zm20 0 1.5.5-1.5.5v-1Zm-286 5 1.5.5 2 5-14.5 28.5-3.5-2.5.5-3.5 4 1 1.5-5.5-2-1 2-12 8.5-10.5Zm328 0 3 6 4.5 3.5 4 12h-1l-4.5-7.5-1.5.5-4.5-14.5Zm-61 17q19.01-2.01 27.5 6.5l2 5-18.5.5 1.5-2.5-.5-3.5-22.5-.5 10.5-5.5Zm-197 6 1.5.5-2 5 6.5.5 5.5-3.5-1-2 18.5-.5 32.5 15.5 1 2-4.5.5-16-6-.5 2.5 5.5 6.5 5.5 2.5-4.5.5-24-12h-31l-11 6 .5-1.5 12.5-14.5 5-2Zm179 0 5.5.5-21 13-2 4 3.5.5 2-3 23-9-1 2-5.5 3.5-.5 1.5-27 11h-9l-3.5-8.5 8.5-3.5-1 2-1.5.5.5 3.5 2.5-.5-.5-1.5-1.5-.5 1.5-.5 1.5.5 3.5-7.5 22-8Zm91 1 5.5 15.5-1.5 2.5-.5-1.5v-2l-3.5-14.5Zm-307 15 .5 14.5-5.5 10.5-.5-16.5 3.5-7.5 2-1Zm103 5 3.5 1.5-.5 1.5 2 1 3-1q6.5 3 1 6l-15.5 1.5-3.5 4.5-2.5 1.5-1.5 9.5-4.5-2.5-1-2 4-6-2-1 10-7 1-3-.5-1.5 6.5-.5.5-2.5Zm239 3 1.5.5q1.28 24.28-10.5 35.5l-12 5q-8.07-3.93-8.5-15.5h1l2.5 4.5 1-4 1 4 .5-6.5-1.5-2.5-1.5.5v-2l-2.5-4.5-1 2-4.5-7.5 2.5-3.5 2-1 3.5 1.5 3.5 16.5 2.5 1.5 3.5 11.5 3.5-.5 1.5-2.5 1 2 5.5-10.5 1.5-22.5 4-2Zm-291 8 7.5 3.5-4 1-.5 2.5-10.5 5.5.5 1.5 3.5 1.5-5 1 1.5 3.5 3.5 1.5-5.5.5-5.5-3.5.5-11.5 8-3-2.5 3.5.5 2.5 5.5-1.5.5-7.5 2-1Z"/><path fill="#25151C" stroke="#25151C" stroke-width="3" d="m302.5 402 3.5 1.5 3 4-15 3-.5 3.5-5.5-1.5.5-2.5 11.5-5.5.5-1.5 2-1Zm149 0 18.5.5-.5 1.5-8 4-10-6Zm21 0 9.5 5.5-1.5.5-6.5-3.5-.5-1.5-1-1Zm26 0 2.5.5 1 4-6.5 1.5.5-1.5 2.5-4.5Zm95 29 2.5 18.5-2 1 3 11-3 1 1 5-1 11 1 4-1 3 4.5.5 1.5-.5v37l3 5-3 1 2 6-2 1v23l6.5 22.5 1.5.5-2 6 4.5.5 2.5.5 2 5-3 1 2 6-2 1 .5 3.5 1.5.5-2 6 4.5.5 2.5.5 2 5-3 1 2 7-2 4 4.5.5 2.5.5 2 5-3 1 3.5 5.5 2-1 2.5 12.5-2 1 2.5 10.5 3-2 .5 11.5-3.5 2.5q-10.75-30.25-30-52l-11.5-7.5-6.5-10.5-6.5-3.5-8.5-20.5-9 4-8.5-11.5-6-18v-11l11.5-15.5 2.5 3.5h-2l1 6-1 12 13 25-1 2 3.5 2.5v-2l8.5 6.5 7.5 10.5 6 1 4.5-10.5-12-28-1-14-9-28 .5-1.5-5-3-1 2-1-2-11 3v-1l7.5-5.5 1.5-3.5 4.5-2.5 2-18 6-11v-30l5.5-10.5 6-3ZM574 510l-2 2 4 1v-2l-2-1Zm17 7-2 3 3 1 1-2-2-2Zm12 90-2 3 3 1 1-2-2-2ZM234.5 439l5.5 10.5v19q8.47 7.03 6 25l-2.5-1.5-7.5 1.5-2 4 4 1-2 1-1.5 3.5-1-4-2 4-2.5-1.5-1-4 1.5.5 4.5-1.5q2.14-12.14-3.5-16.5l-2.5-.5q-1.93-12.43 3.5-17.5l2.5-.5.5-22.5Zm-34 24 1.5.5 4.5 9.5 1.5-.5 4.5-9.5 1.5.5 2 17-1.5-.5-2.5 1.5-1 4 2 1-2 1-1.5 5.5-3 1-2.5-1.5-3.5-11.5-1 2 1.5.5-8.5 3.5-5.5-10.5 10-6 3.5-7.5Zm16 22 5.5 1.5q-3 18 6 24v41l-12 24v12l-11 26 1.5 3.5 7.5-6.5 4.5-14.5 9-3 .5 2.5-2 3 1 2-11 7 1 6-2 1 .5 1.5-1.5-.5-14.5 26.5-13.5 7.5 1 6-2 1 .5 1.5-1.5-.5-2.5 9.5-1.5-.5.5 5.5 26.5-24.5.5-1.5.5 1.5-37.5 35.5-2.5-5.5 16-25 7-20-5-9v-42l-2.5-4.5-7 4-2.5-5.5 10.5-30.5 1.5.5.5 6.5 4.5 2.5q-.58 21.58 7 35l-3 9 1.5.5 18.5-34.5q-1.34-22.84 7-36v-16l-1-3 1-3-3-1-5-17h2l.5-3.5ZM194 598v6h2l1-3-2-1-1-2Zm.5-104 .5 1.5h-1l.5-1.5Zm12 1 1.5.5-1.5.5v-1Zm-16 2 1.5.5 1 8-3.5 22.5-3 1-.5-24.5 4.5-7.5Zm56 2q6.88 5.12 5.5 18.5l-2.5-1.5-3.5-.5.5-16.5Zm302 11 3.5 2.5 1 3-1.5.5-5.5-3.5.5-1.5 2-1Z"/><path fill="#25151C" stroke="#25151C" stroke-width="3" d="m200.5 512 1.5.5-.5 1.5-1.5-.5.5-1.5Zm372 4 1.5.5 2 36-1.5 2.5-1.5.5-.5 1.5-1-2-4.5-2.5-3-12 6-2v-20l2.5-2.5Zm2.5 13-1 4h1v-4Zm-374.5-11 1.5.5-.5 1.5-1.5-.5.5-1.5Zm363 7-1.5 2.5-1.5 2.5.5-1.5 2.5-3.5Zm-395 1 3 2 2.5-1.5q2.1 17.1-5.5 24.5l-1-5-2.5-.5 3-11-3-1 3.5-7.5Zm371 4 .5 4.5-5.5 7.5-.5-1.5 5.5-10.5Zm20 1 1.5.5-1.5.5v-1Zm-365 5 1.5.5-1 2 2 3-4 2 2 1-.5 1.5-2.5-.5 1-3-1-2 2.5-4.5Zm-5 2 .5 4.5h-1l.5-4.5Zm-1 6 .5 1.5h-1l.5-1.5Zm-1 3 .5 3.5h-1l.5-3.5Zm415 0 .5 4.5h-1l.5-4.5Zm-440 10 4 1 1.5-.5-5.5 17.5-1-11-1.5-.5 2.5-6.5Zm74 14 1.5.5 2 10-5.5 11.5-1-5-5 1-.5-1.5 8.5-16.5Zm372 3 .5 5.5h-1l.5-5.5Zm-447 3 .5 5.5-4.5 7.5-1.5-.5 5.5-12.5Zm357 5-2 3-1-2 3-1Zm-243 5 1.5 2.5h-1l-.5-2.5Zm-42 7 .5 1.5-2 1 1.5-2.5Zm-78 1 .5 4.5-5.5 8.5-.5-1.5 5.5-11.5Zm354 0 .5 5.5-5.5 7.5-.5-5.5 5.5-7.5Zm-278 3 .5 1.5-1.5 2.5-.5-1.5 1.5-2.5Zm-67 3 2.5 1.5-1.5 2.5-2.5-1.5 1.5-2.5Zm61 1 .5 4.5h-1l.5-4.5Zm2 10 .5 1.5-2 1 1.5-2.5Zm-69 1 2.5 1.5-21 40-2.5 13.5q-8.88-4.12-6.5-19.5l5-2 2-4v-2l5.5-9.5 1 2 5.5-6.5-1.5-2.5-4 2-.5-2.5 3.5-5.5 2.5-.5.5-1.5 2 1 6-4Zm67 3 .5 1.5-1.5 2.5-.5-1.5 1.5-2.5Zm-6 5 4.5.5-13.5 23.5-1.5-2.5 1-4v-2l5.5-10.5 3.5-2.5.5-2.5Zm87 16q6.87 5.13 5.5 18.5l-1.5-.5-2.5-1.5-1.5-16.5Zm-82 24 1.5.5 2 28-5.5.5-3-7-1.5.5-2.5 6.5-5.5-.5q3-18.5 14.5-28.5Zm-4.5 17-2 4 4 1v-4l-2-1Zm92.5-5 5.5 16.5-5.5.5-1.5-3.5 1.5-13.5Z"/><path fill="#D1B773" stroke="#D1B773" stroke-width="3" d="m382.5 127 11.5 4.5-4 1 1.5 3.5 10.5 4.5.5 3.5 5-1-.5 1.5-5.5 8.5q-6.17 5.33-20 3l-3.5-5.5 2.5-.5 7 5q8.07-3.93 8.5-15.5l-21.5-1.5-2.5 1.5.5 4.5 1.5.5-2 9 1.5 2.5-10.5-6.5-3-8 3.5 2.5 2.5-.5-2-5 2-1-1-5 17.5-5.5Zm15 5 10.5 2.5-.5 4.5-10-7Zm26 12 2.5 8.5-2.5-1.5-1.5.5-8 15v2l-.5 4.5-3-5-3 1-11.5-3.5 2.5-4.5 3-1 1 2 8.5-5.5-.5-1.5 13-11Zm-82 8 .5 10.5-1.5-.5-4.5-1.5 2.5-4.5 1.5-.5 1.5-3.5Zm7 1 4.5 2.5 1 3-.5 3.5-5.5-1.5.5-7.5Zm7 3 13.5 6.5 2 4-6.5 2.5 1.5-2.5-7.5-8.5-3-2Zm71 6 3.5 1.5 1.5 3.5 1-4 2.5 4.5-3 1 .5 5.5 5-1-.5 1.5-4.5 9.5-1-4-9 5-8.5-10.5 2.5-.5 7 5 3-17Zm-85 7 1 5q14.5 3.5 18-4l-4.5 5.5-2 15v2l2 5-2 1 3 5-5.5.5-3.5-2.5-.5-3.5-5 1q-7.8-6.2-6.5-21.5l5.5-8.5Zm1.5 11-1 5v2l4 5h2l-1-6 1-5-5-1Zm77.5 15 5 3 1-2 4.5 3.5-3.5 7.5-1.5-.5-.5-2.5-8.5-.5 3.5-8.5Zm-78 6 5.5 4.5-1.5 4.5-4 3v-12Zm6 14 4 1 1.5-.5 7.5 16.5 3.5 1.5-8.5.5-10.5-17.5 2.5-1.5Zm19 19q12.14-2.14 16.5 3.5l1 2-9.5.5-8-6Zm40 0 2.5.5-8.5 5.5.5-1.5 1.5-2.5 4-2Zm176 42 4.5 2.5-1.5 3.5-4.5-.5 1.5-5.5Zm-401 12 3.5 2.5-2.5 3.5-3.5-2.5 2.5-3.5Zm260 115 1.5 5.5-1.5-.5-8.5-.5 8.5-4.5Zm117 77 4.5 1.5-1.5 4.5-4.5-1.5 1.5-4.5Zm-7 13 4 7 7.5 4.5-.5 8.5-6 3 .5-1.5-1.5-10.5-2.5-1.5-1.5-3.5-1.5-.5 1.5-5.5Z"/><path fill="#EFEF8F" stroke="#EFEF8F" stroke-width="3" d="m362.5 132 3.5 1.5-.5 4.5-5.5-2.5 2.5-3.5Zm40 6 5.5 1.5-1.5 4.5-4.5-.5.5-5.5Zm-23 6 15.5.5-7.5 10.5-7.5-5.5-2-4 1.5-1.5Zm-34 6 4 12 4.5-.5-2-5 2.5-.5 11.5 9.5-1.5 2.5-22 6-.5-18.5 3.5-5.5Zm77 1 3 2 1-2 5.5 15.5h-1l-2.5-4.5-2.5.5-2.5 16.5-6.5-4.5-3-6 6-3-1-6 3.5-8.5Zm9 29 .5 5.5-6.5 12.5-5.5-3.5-.5-2.5-1.5-.5 2.5-5.5 11-6Zm-89 6 5.5.5-.5 5.5-3.5-1.5-1.5-4.5Zm1 12 4.5.5 1.5 4.5 1.5.5 3 6-6 2-.5 4.5-5.5-2.5 6-5-1.5-4.5-4.5-3.5 1.5-2.5Zm70 16 1 2 5.5.5-1.5 3.5-10 2-.5-2.5 5.5-5.5Zm-58 2q8.06 11.94 26.5 13.5l2 4-18.5.5-5.5-3.5-6-13 1.5-1.5Zm42 12 10.5.5-1.5 3.5-8 2-2.5-4.5 1.5-1.5Zm155 271 3 5 2.5 1.5-2.5 4.5-3.5-2.5.5-8.5Z"/><path fill="#F9BE97" stroke="#F9BE97" stroke-width="3" d="M390.5 132q10.77-1.27 13.5 5.5l-2 1-.5 1.5-11.5-5.5.5-2.5Zm-15 12 3.5.5-1 3 1.5 2.5-1.5.5 2 5-4.5.5-3.5-8.5 3.5-3.5Zm33 12 1.5.5-7.5 5.5-.5-2.5 6.5-3.5Zm11 4 .5 5.5-4.5 2.5-1.5-2.5 5.5-5.5Zm-33 8 3.5 2.5-.5 5.5-5.5-2.5 2.5-5.5Zm22 0 4.5 2.5.5 2.5 1-4 2.5 4.5-3 1 2.5 5.5 5.5 4.5-.5 1.5-2 1-3-1-2.5 1.5-5.5-19.5Zm-54 24 7.5.5-4.5 5.5-3-6Zm65 12 6.5.5-.5 6.5-5-1h-2l-4.5-2.5 5.5-3.5Zm-65 1 3 5 3.5.5-1 4 16 13-4.5.5-16-12-1.5.5-1-6 1.5-5.5Zm71 10-.5 1.5-2.5 5.5-11.5 5.5-2.5 5.5-1-5-9.5-.5 8-6 1.5-3.5 1 4 11-3 1 2 3-5 2-1Zm-39 1 3.5.5-2.5 5.5-3.5-2.5 2.5-3.5Zm-5 12 15.5.5-1.5 6.5-4-1h-2l-5-3-1 2-2-5Zm-19 6 11.5 5.5-1.5.5-10-6Zm-20 132 56.5.5-3 5 2.5.5 3.5-4.5-.5-1.5 18.5.5-.5 2.5-22.5 11.5-1 13 6 8q-3.96 16.46 2.5 22.5l6 1 3.5-2.5.5-3.5 5 1 .5-2.5-4.5-3.5-1.5.5.5-5.5 13 5 13-6-.5 1.5-1.5 3.5-2-1-3.5 10.5 1.5 2.5 41 1 48-23 2.5 1.5 2 21-15 36-20 33-7 21v18q-8 7-6 24l-6.5 9.5-7 2-7.5-5.5-7.5-13.5q-4.9-6.6-19-4l-23-12-10.5-.5 3-5-2.5-.5-3.5 4.5.5 1.5-10 4-6.5-3.5q-8.7-4.3-9.5-16.5l-3.5-1.5 22.5-.5 1 12 5.5-2.5q-2.86-14.36 2.5-20.5l7 4 11.5-10.5 3-13-14.5-27.5-5-1-3.5 2.5q7.5 6.5 5 23l-2.5 4.5q-6.17 6.83-21 5l-4.5-2.5-2-4v-96l-5.5-8.5-1.5.5-5.5-7.5-17.5-5.5.5-2.5Zm48.5 24-6 8-1 3 1 45-1 4 2 4h2l1-3v-2l1-35 6-12-2-10-3-2Zm113 24-8 4v2l-1-1-1 2-1-1-1 2-1-1-1 2-1-1-25 11-19-1-4 2-8 10v2q2 16-5 25l2 10 17 15 10-2 46-49v-2l7-28-6-1Zm-121 67-2 1-1 2 3 1 5-1v-1l-5-2Zm39 11-2 2 1 5-11 22 9 5 3 1 16 1 5-7 1-4-4-7-18-18Zm-12 26-1 2h1v-2Zm-28 4-3 4 5 2v-5l-2-1Zm104.5-156h8l21.5 14.5-2.5 8.5-9-5-18.5-1.5-.5-2.5-7-2-4 3-1-3-5.5-.5.5-2.5 18-9Z"/><path fill="#F9BE97" stroke="#F9BE97" stroke-width="3" d="m329.5 412 1 2 5.5-.5.5-1.5 17.5 4.5q-8.51 5.99-7.5 21.5l-2.5.5-2 30 2.5 5.5 3.5 2.5v10l-6 13 12.5 14.5 3.5 1.5 7 9-5.5 6.5q-9.17 6.83-29 3l-16.5-8.5-15-37-20.5-25.5-8.5-3.5-6-16v-17l3.5-6.5 8.5 1.5.5 2.5 11.5 3.5.5 2.5 30 2 9.5-6.5 2-5-6-1 5.5-7.5Zm246 24 .5 12.5-4.5 1.5-1.5-8.5 5.5-5.5Zm-189 14 1.5.5-1.5.5v-1Zm162 36 3.5 2.5-.5 4.5-4-1-1.5.5 2.5-6.5Zm-312 24 3.5 2.5-1.5 2.5-3.5-.5-1-2 2.5-2.5Zm205 42 2.5.5 11 19-5.5 7.5-7 2-7.5-5.5-2-7 8.5-16.5Zm-68 6 40.5 1.5-.5 4.5-5.5 2.5-1.5 3.5-28.5-1.5-6-9 1.5-1.5Zm-6 36h76l11.5 8.5-17.5 18.5q-10.17 11.83-35 9l-16-5-10 4-7.5-5.5-8-19 6.5-10.5Zm31.5 8-8 12h2l5 3 10 1 5-4-1-5q-2-9-13-7Zm75.5 40 5.5.5v11L467.5 690l-30.5-.5-2.5-5.5-2.5-.5 33-35-.5-1.5 10-5Z"/><path fill="#090000" stroke="#090000" stroke-width="3" d="m322.5 90 1.5.5-23.5 11.5v-1l22-11Zm116 0 8.5 5.5-3.5-2.5-5-3Zm24 6 7.5 3.5-1.5.5-6-4Zm9 4 2.5 1.5-1.5.5-1-2Zm-185 2 1.5.5-71.5 38.5-45.5 39.5-4.5 8.5.5-1.5 25.5-29.5 54-36 40-20Zm194 0 7.5 3.5-1.5.5-6-4Zm9 4 2.5 1.5-1.5.5-1-2Zm9 2 8.5 5.5-3.5-2.5-5-3Zm24 12 8.5 5.5-3.5-2.5-5-3Zm24 15 1.5.5-1.5.5v-1Zm3 1 22.5 17.5-1.5.5-21-18Zm-201 2q9.5-2 11.5 3.5l1.5 12.5 3.5 1.5-4.5.5-12.5-9.5.5-8.5Zm7.5 4-1 4-4-2 4 4h2l-1-6Zm-20.5 8 .5 17.5-3.5 6.5-5.5-.5 2.5-1.5 1.5.5 4-8-3.5-10.5-1 10-6.5-1.5 4.5-8.5 7-4Zm238 4 24.5 20.5 20 35h-1l-20-35-15.5-15.5-8-5Zm-207 2 10.5 5.5-7.5.5-3-6Zm-36 24 5.5 3.5-.5 7.5-5-11Zm-99 1 6.5 1.5 1 5-2.5 3.5-16.5 12.5-3 13 8.5 3.5 10-4 4 1 6.5-5.5.5-1.5 30-12q21.35 3.35 30-6h20v1l-1.5.5 11 7q-2.68 18.68 6.5 25.5l5 3 .5-1.5-5-4 1.5.5 3 1 1.5-.5 7 13-1.5.5-3.5-2.5-1.5-4.5-.5 3.5 2.5 3.5 7.5 2.5-11.5.5-2.5-1.5-20.5-37.5-1.5-.5-.5-1.5-13 3-9-2-16.5 17.5-1 11 10.5 18.5 5 1 7-2 1.5 2.5-2 1-.5 1.5-39 1-45 18-1.5-2.5 1-8-14.5-8.5-6 4-1.5-.5 1 2-4 1-.5 2.5-6.5-8.5 1.5.5 1.5-.5 5-17-1.5-3.5-3.5 2.5-4.5 10.5-4.5 2.5-.5 1.5-11-8-.5 2.5 4.5 5.5 8.5 4.5-1.5-.5-11.5-7.5-2.5-11.5-3.5-.5-2-5h1l2.5 4.5 2.5-3.5-6-4 2.5 1.5 51-38 16-8Zm83.5 13v1h1l-1-1Zm-36 5-3 1v1l5-1-2-1Zm24 0v1h1l-1-1Zm-96 30-2 3 3 1 1-2-2-2Zm142 0-1 2h1v-2Zm-183.5-39 .5 1.5-3.5 6.5-.5-1.5 3.5-6.5Zm171 2 2.5.5 2 5-1.5.5-3-6Zm104 0 15.5 1.5-.5 1.5-4.5 1.5-.5 1.5-6-1-3 1-2.5-4.5 1.5-1.5Zm22 6h26l9 6h15l15.5 6.5.5 3.5 11.5 2.5.5 3.5 30 13 2-3 1 2-.5-3.5-12-28 5.5-1.5 38 36 1.5-.5-1 3 2 8-1.5 6.5-11.5 3.5-.5 2.5-5.5.5-.5 2.5-4-3h-2l-20 9-2.5.5 3 2-5.5.5-40-12-11 4-4-5-6 12-10 7-12.5-6.5-.5-9.5-1.5-.5-.5-1.5-1.5.5-5.5 6.5-5 2-.5-1.5 2-8h-1l-5.5 12.5-15.5-.5 3.5-5.5 13.5-2.5 1.5-15.5 12.5 6.5.5 1.5 4.5-.5-4-1 20.5-.5h2l10-4 1.5.5-4-20 2-10-6.5-7.5-30-7-3.5-3.5.5-2.5Zm-1.5 52-1 7h1v-7Zm58 3-2 3 3 1 1-2-2-2Z"/><path fill="#090000" stroke="#090000" stroke-width="3" d="m489.5 216 2.5.5-2 1 3 2-2.5.5-1-2-1 2 1-4Zm4 1 2.5 1.5-.5 1.5-1.5-.5-.5-2.5Zm-5 18 2.5 1.5-4.5 3.5-.5-2.5 2.5-2.5Zm-82 3 1.5.5.5 1.5 5.5.5-2.5 5.5-13.5-1.5-1.5-3.5-2.5-.5 12.5-2.5Zm-43 2 28.5.5-3 1-2.5 4.5-37.5-.5 4-2 .5-1.5 10-2Zm-56 6q13.25-3.25 16.5 3.5l1.5 14.5 4.5 2.5-10.5 7.5-1.5-.5 1 4q2.25 25.75-5 42l19 10-15.5.5v-1l8.5-1.5-.5-1.5-20 3q3.93-23.93-6-34l-16-9q-20.01 11.99-27.5 36.5l1.5 2.5-17 1-3.5-1.5 4.5-8.5 4.5-3.5 15-26-3.5-4.5-1.5-.5 3.5-4.5 9 2 32-10 15.5-1.5-7-19h2l-.5-1.5-3-1Zm13.5 3v16l4 2 1 1-5-19Zm-61 33 1 2v-1l-1-1Zm2 2-1 2h1v-2Zm-77.5-30 5.5 4.5 2 5h-1l-5.5-8.5-1-1Zm323 16 7.5 2.5-.5 3.5-7 2-1-2-3.5-.5 1.5-4.5 3-1Zm-293 3 6.5 1.5.5 2.5 1.5.5.5 1.5 6.5 3.5-.5 1.5-15 4-1.5-.5-.5 1.5-11.5 5.5-.5 3.5-2.5-1.5 1.5-3.5 1.5-.5 2-12-1-3 1.5-2.5 5 1 6-3Zm350 0 6.5 2.5q-2.4 13.4 4 18l-3.5.5-2.5-1.5-4.5-19.5Z"/><path fill="#090000" stroke="#090000" stroke-width="3" d="m572.5 276 3.5.5-.5 14.5q-6.09-3.78-3-15Zm-329 1 1.5.5-.5 1.5-1-2Zm-45 2 2.5 10.5-5 4 2.5-14.5Zm395 1 .5 1.5-1.5.5 1-2Zm-411 2 1.5.5 2.5 5.5 4.5 2.5-.5 1.5-3.5 1.5 2 1-3 2-2.5-12.5-1.5.5-1.5 3.5-.5-1.5 2.5-4.5Zm51 0 .5 8.5-1.5-.5-3.5-1.5 3-2 1.5-4.5Zm240 0 32 9 39.5 29.5-3.5 8.5-27-4-4.5-3.5-4.5-6.5-12-2-8.5 5.5-3.5 6.5-26 5-2.5-1.5 5-4 3-7-5-18 11.5-14.5 6-3Zm63 0 5.5.5-4.5 5.5-3.5-1.5 2.5-4.5Zm60 0 1.5.5 2 5h-1l-2.5-4.5-2.5 1.5 2.5-2.5Zm-17 6 11.5.5-8.5 3.5-3-4Zm-372 4 5.5 1.5-9 2-.5 3.5-.5-3.5 4.5-3.5Zm372 1 10.5 1.5-1.5 2.5-6-1-1.5.5-.5-1.5-1.5-.5.5-1.5Z"/><path fill="#090000" stroke="#090000" stroke-width="3" d="m591.5 294 6 5 2.5-1.5-13.5 2.5v-1l5.5-1.5-.5-3.5Zm-398 5 5.5 2.5 1.5 5.5 1.5-.5.5-3.5 1 4-9 5-7.5-9.5.5-2.5 1 4 2.5-1.5 2.5-3.5Zm.5 1-2 5 5 1 1-4-4-2Zm390.5 6 3.5 5.5-3.5.5-2.5-3.5 2.5-2.5Zm-228 2 1.5.5-1.5.5v-1Zm-1 2 4.5 2.5-1.5 9.5-10 2-.5-2.5 7.5-11.5Zm202 6-7 8-4.5-1.5 2.5-.5 2 1 7-7Zm-317 11 19.5 2.5-22.5.5 1-2 2-1Zm229 1 9.5.5-12.5 1.5v-1l3-1Zm56 0 11.5 1.5-17.5.5v-1l6-1Zm55 53 1.5.5-3.5 2.5 2-3Zm-127 15 14.5 1.5-1.5 2.5-5 2-8-6Zm-165 6 2.5.5-1 2 2 1-1.5 2.5-6.5-2.5.5-1.5 4-2Zm-103 54 .5 1.5-2 1 1.5-2.5Zm-2 4 .5 1.5-3.5 6.5-.5-1.5 3.5-6.5Zm417 29 5.5 8.5h-1l-4.5-8.5Zm6 33 5.5 11.5h-1l-4.5-11.5Zm-445 27-2.5 3.5-2.5 5.5-.5-1.5 5.5-7.5Zm451 18 5.5 8.5h-1l-4.5-8.5Zm6 27 5.5 11.5h-1l-4.5-11.5Zm6 18 5.5 11.5h-1l-4.5-11.5Zm-496 30 .5 1.5-2.5 4.5-.5-1.5 2.5-4.5Zm504 6 1.5.5 2 5h-1l-2.5-4.5-2.5 1.5 2.5-2.5Zm-328 30 3.5 1.5-1.5 10.5-7.5-.5q-1.75-8.75 3.5-10.5l2-1Zm6 1 1.5 6.5-2-1 .5-5.5Zm224 2 1 3 4.5 2.5 1 3-6.5.5v-9Z"/><path fill="#A3836F" stroke="#A3836F" stroke-width="3" d="m383.5 126 1.5.5-1.5.5v-1Zm-23 11 3.5 1.5 2 5-2.5.5-3-7Zm14 1 21.5 1.5-.5 4.5-23.5-.5.5-4.5 2-1Zm-31 8 14.5 9.5-4.5.5-5.5-3.5-1.5-2.5-2.5 1.5-1.5 3.5-1.5-3.5 2.5-5.5Zm83 0 11.5 22.5-1.5-.5-2.5-1.5-7.5-20.5Zm-90 15 5.5 2.5-1.5 4.5-2.5 1.5-1.5 3.5v-12Zm23 11 .5 2.5-5.5 10.5-.5-5.5 5.5-7.5Zm-17 8 5.5.5-1.5 5.5-4.5-1.5.5-4.5Zm29 10 .5 4.5-2 3 .5 1.5-13 5-3.5-5.5q13.3.3 17.5-8.5Zm46 2 2.5.5q2 9.5-3.5 11.5l-8.5 3.5-.5 3.5-4-1-1.5.5 8-12-.5-1.5 8-5Zm-50 18 4.5 1.5-.5 6.5-5.5-4.5 1.5-3.5Zm47 0 5.5 2.5-2.5 3.5-3.5-.5.5-5.5Zm5 12 2.5.5-7.5 9.5-3 2 2.5-3.5 1.5-6.5 4-2Zm-27 12 3.5 2.5 1 3-7.5.5.5-1.5 2.5-4.5Zm-35 12 10.5.5-2 6 5.5 8.5 5.5 2.5-5.5.5-15.5-7.5-2-5 3.5-5.5Zm28 24 4.5 2.5 2 3-12.5.5v-1l4.5-2.5 1.5-2.5Zm193 6 4.5.5-1 5 4.5.5 1.5-.5-2.5 6.5-9.5-2.5 2.5-9.5Zm-384 6 3.5 2.5-2.5 3.5-3.5-2.5 2.5-3.5Zm402 6 3.5 2.5-2.5 3.5-3.5-2.5 2.5-3.5Zm-219 13 .5 11.5-5.5 10.5-.5-11.5 5.5-10.5Zm19 21 11.5 3.5-1.5 4.5-12.5-.5 2.5-7.5Zm-65 44 15.5 5.5-5.5.5-10-6Zm-56 6 3.5.5-13.5 5.5v-1l10-5Zm16 0 12.5 5.5-4.5.5-8-6Zm27 13 3 5 2.5 1.5-2.5 4.5q-18.75 2.75-26.5-5.5l5-1 .5-2.5 5 3 1-3 11 3 1-5Zm140 5 3.5 2.5-2.5 3.5-3.5-2.5 2.5-3.5Zm-14 15q6.12 5.87 20.5 3.5l-3 4-.5 2.5-4-1h-2l-11.5-.5.5-8.5Zm-120 1 6.5 2.5-4.5 5.5h-9l-13 6-.5-1.5 2-3v-2l-1-5 1.5-.5 5.5 3.5.5 2.5 5.5-3.5.5-3.5 5 1 1-2Zm-24 2-.5 1.5 1 4-4.5.5-2-3 6-3Zm35 0 11.5 5.5-4.5.5-6.5-3.5-.5-2.5Zm225 66 2.5 1.5 3.5 4.5 6.5.5-3 18-5.5 9.5-1-4-8.5-5.5-3-13 1.5.5 5-1 4 1 1.5-4.5-4.5-1.5h-2l-4.5-.5 5-2 2.5-3.5Zm-1.5 18-1 3 6 3v-5l-5-1Zm-325.5-1 .5 4.5-3.5 2.5-2.5-4.5 5.5-2.5Zm312 4 1.5 3.5-3.5 5.5-1.5.5-1.5 4.5-.5-5.5 2.5-5.5 1.5-.5 1.5-2.5Zm-309 9 3.5 2.5-.5 4.5-4-1-1.5.5 2.5-6.5Zm303 15 .5 3.5-5.5 10.5-.5-5.5 5.5-8.5Zm-6 24 .5 3.5-5.5 10.5-.5-5.5 5.5-8.5Zm-30 102 .5 2.5-5.5 8.5-.5-2.5 5.5-8.5Zm-24 28 1.5 3.5-4.5 7.5-5.5.5-.5 1.5-.5-1.5 4-3 .5 1.5 5-10Zm-10 14-.5 1.5-.5 1.5-.5-1.5 1.5-1.5Z"/><path fill="#635D5F" stroke="#635D5F" stroke-width="3" d="m343.5 145 1.5.5-2.5 1.5 1-2Zm-2 3 .5 2.5-3.5 5.5-2 1-.5-1.5 5.5-7.5Zm49 25 4 1 1.5-.5-2.5 6.5-3.5-2.5.5-4.5Zm18 3 5.5 12.5-6.5 3.5.5-1.5-1-4 1.5-10.5Zm18 32 5.5 4.5-2.5 3.5-3 2v-10Zm-76 38 6.5.5-3 6 3.5 5.5 13.5 5.5-14.5.5-5-12-3.5-2.5 2.5-3.5Zm98 0 7.5 3.5q1.97 10.47-3.5 13.5l-4 1 1.5-2.5-1.5-15.5Zm-87 78 5.5.5-1 4 .5 1.5-6.5-1.5 1.5-4.5Zm46 0 6.5 2.5-1.5 3.5-5.5-.5 1-4-.5-1.5Zm-114 66 11.5 5.5-5.5.5-8.5-4.5 2.5-1.5Zm175 0 11.5 1.5-1.5 4.5-10.5-3.5.5-2.5Zm-138 11 8.5 6.5-10.5.5v-1l1.5-.5.5-5.5Zm-13 1 1.5.5-4.5 11.5-2.5-.5-1.5-3.5-3.5-1.5 5-1 1.5-3.5 4-2Zm126 0 11.5 5.5-5.5.5-5.5-3.5-.5-2.5Zm28 1 2.5 1.5.5 1.5 4.5 1.5-11 2-3.5 4.5-2.5-1.5 3-4-2-1 8.5-4.5Zm-240 83 2.5 4.5-5.5 2.5-.5-1.5 3.5-5.5Zm327 6 5.5.5-.5 5.5-5.5-3.5.5-2.5Zm-11 6 4.5 2.5-.5 4.5-7.5-1.5 3.5-5.5Zm20 24q5.75 3.25 2.5 15.5l-4.5 2.5-1.5-14.5 3.5-3.5Zm-28 1 .5 5.5-5.5 10.5-.5-5.5 5.5-10.5Zm-68 161 5.5.5-3.5 5.5-4.5-.5 2.5-5.5Z"/><path fill="#2E2132" stroke="#2E2132" stroke-width="3" d="m383.5 156 8.5.5-7.5 5.5-1-6Zm-48 14 .5 11.5-2.5-1.5-3.5-2.5 2.5-3.5 1.5-.5 1.5-3.5Zm22 16 2.5.5-3.5 5.5q-5.5-3 1-6Zm-7 24 3.5 2.5-2.5 3.5-3.5-2.5 2.5-3.5Zm-8 5 7.5 6.5-5.5.5-2-7Zm-18 31 9 5 10-5-1.5 2.5-1 4 1 4-1 2 1 3-1.5 2.5q-13 3.5-16.5-2.5l.5-15.5Zm13.5 15v1h1l-1-1Zm192.5 15 9.5 1.5-1.5 4.5-10.5-2.5 2.5-3.5Zm-344 5 6.5 1.5-1 4 4.5 1.5 1.5-.5-3.5 6.5-2.5-.5-5.5-12.5Zm50 1 3.5 2.5-.5 3.5-5.5-1.5 2.5-4.5Zm-12 6 3.5 2.5-.5 3.5-5.5-1.5 2.5-4.5Zm334 0 5.5 2.5-1.5 3.5-6.5-.5 2.5-5.5Zm-352 6 3.5 1.5 2 4-5.5.5-2.5-3.5 2.5-2.5Zm-12 6 3.5 2.5-2.5 3.5-3.5-2.5 2.5-3.5Zm11 13 4.5 2.5-.5 2.5-5.5-2.5 1.5-2.5Zm11 11 5.5.5-3.5 5.5-2-6Zm197 5 .5 1.5-3.5 5.5-4.5-.5 7.5-6.5Zm-183 1 27.5 1.5-1.5 2.5-4 1-2-1v2h-20l-2.5-2.5 2.5-3.5Zm169 0 4.5.5-7.5 5.5-.5-2.5 3.5-3.5Zm74 0q20.77-3.27 29.5 5.5l-39.5.5v-1l10-5Zm-.5 2v1h2l-2-1Zm20 0v1h1l-1-1Zm36.5-2 4.5 1.5 2 4-2.5 1.5-10.5-1.5 5-3 1.5-2.5Zm12 22 3.5 5.5h-1l-2.5-5.5Zm-222 14 28.5 9.5 3 8-3.5 1.5-5.5-4.5-1.5-2.5-2.5-1.5-.5-1.5-18-9Zm148 0 10.5.5-17.5 6.5-.5-1.5 7.5-5.5Zm79 1 5.5 17.5-1.5-.5-2.5-1.5-1.5-15.5Zm4.5 10-1 2h1v-2Zm-119.5-8 .5 3.5-3.5 5.5-2.5-.5.5-3.5 2.5-1.5-2-1 4.5-2.5Zm-3.5 6v1h1l-1-1Zm-131.5-3 14.5 5.5-4.5.5-10-6Zm166 18 10.5 5.5-7.5.5h-2l-2.5-.5 1.5-5.5Zm18 0 19.5 11.5-3 2-2.5 4.5-3.5-.5 1-3-13-9 1.5-5.5Zm-193 3 .5 7.5-5.5 1.5-.5-2.5 2.5-3.5-1.5-.5 4.5-2.5Zm265 6 5.5 14.5h-1l-.5-3.5-1 4-4.5-12.5 1.5-2.5Zm-247 3 11.5.5-5 3-.5 2.5-5.5-3.5-.5-2.5Zm140 0 15.5 5.5-5.5.5-10-6Zm25 0 1.5.5-2 1 .5-1.5Zm-188 6 10.5.5-5 2 1 3-1.5.5-5.5-3.5.5-2.5Zm287 12 2.5.5-10.5 5.5-.5-1.5 8.5-4.5Zm21 6 3.5 2.5-1.5 3.5-5 2 .5-1.5 2.5-6.5Zm4 36 5.5 1.5-1.5 22.5-4.5-.5 1-6-1-11 1-2-.5-4.5Zm-381 18 2.5 1.5-1 9 4.5 15.5 2.5.5-1 5 1 17-6 16-2 23-17 31v2l-1.5 3.5-1.5-.5-1-5h1l.5 1.5 2.5-.5-2-1 3-10q-7.68-11.32-6-32l-3.5-4.5-2.5-.5 1.5-23.5 3.5-1.5 2-24-1-15 9-4-2-1h3l2.5 10.5 3 1 2.5-1.5 1.5-5.5 1.5-.5-2-1 2.5-5.5ZM195 494l-1 2h1v-2Zm12 1v1h1l-1-1Zm-6 17-1 2h2v-1l-1-1Zm0 6-1 2h2v-1l-1-1Zm-6 18-3 5 2 2 3-1-2-3 1-2-1-1Zm-5 2-1 5h1v-5Zm3 5-1 3h3v-1l-2-2Zm-4 1-1 2h1v-2Zm-1 3-1 4h1v-4Zm385.5-45 .5 1.5-3 2 2.5-3.5Zm-26 2 4.5 1.5-.5 6.5-3-2-2 1-2.5-1.5 3.5-5.5Zm24 6h2l2.5.5-1 3 4 3 1 3 8 40 12 29-3 8 .5 1.5h-2l-10.5-5.5-6.5-9.5-4-2-2 1-2.5-3.5v-2l-11-18-1-17 1-3-1-4 1.5-2.5 1.5-.5 1-3 1.5-2.5 1.5 13.5-1 8 5.5 7.5 2.5.5.5 1.5 1-2 1.5-.5 1-34-2.5-4.5-3 2-1-2-1.5-.5 3.5-5.5Zm.5 1-2 2h2l1 2v-1l2-1-3-2Zm28.5 17 5.5 2.5 2 27-2 1 3.5 5.5 2.5.5-1.5 23.5-4.5-.5 2-6-2-1-6-22v-23l2-1-1.5-6.5Zm2.5 19-1 5h1v-5Zm6 27-1 6h1v-6Zm-356.5-45 5.5 12.5-3-2-2.5-10.5Z"/><path fill="#2E2132" stroke="#2E2132" stroke-width="3" d="m574.5 529 .5 3.5h-1l.5-3.5Zm-411 17 4.5.5-1.5 11.5-4.5-1.5 1.5-10.5Zm-2 19 .5 11.5-5.5 10.5-1-11-1.5-.5 1.5-3.5 1 3 5-10Zm360 7 1.5 2.5-6.5 9.5-.5-1.5 5.5-10.5Zm-292 16 4.5.5-11.5 33.5-6 4-2.5 1.5-5 10 1 4-27.5 30.5-2.5-.5.5-5.5 1.5.5 3.5-10.5 1.5-.5-1-6 18-12 11.5-23.5 1.5-.5-1-6 11-7-1-3 3.5-9.5Zm-3.5 14-1 5h1v-5Zm283.5-12 .5 4.5-5.5 7.5-.5-1.5 5.5-10.5Zm103 4 5.5 2.5-1.5 15.5-4.5-.5 2-6-2-1 .5-3.5 1.5-.5-1.5-6.5Zm-10 13 2.5 1.5-1.5 2.5-2.5-1.5 1.5-2.5Zm16 11 5.5 2.5-1.5 9.5-4.5-.5 2-6-1.5-5.5Zm6 18 5.5 2.5-1.5 3.5-2.5-1.5-1.5-4.5Zm-405 42 2.5.5-.5 4.5-3-1v1l2.5 1.5 1 5-5.5.5.5-1.5 1-5v-2l1.5-3.5Z"/><path fill="#0D1462" stroke="#0D1462" stroke-width="3" d="m401.5 156 .5 2.5-10.5 3.5v-1l10-5Zm211 60 5.5 2.5-3.5 9.5-2-12Zm-4 24 3.5 2.5-2.5 3.5-3.5-2.5 2.5-3.5Zm-96 396 3.5 2.5v17q7.77 7.23 7.5 22.5l3.5 2.5.5 1.5 1-3 1.5 3.5-.5 1.5 4.5 1.5-.5 4.5-58.5-.5 4.5-9.5 4.5-3.5 1.5-3.5 1 2 1.5-.5q17.35-14.15 24.5-38.5Zm-5.5 25-3 5h3l2-3-2-2Z"/><path fill="#DD886C" stroke="#DD886C" stroke-width="3" d="m341.5 167 .5 1.5-5.5 8.5-.5-3.5 3.5-5.5 2-1Zm174 187 22.5 1.5 8 16v43l11.5 20.5 4 2q6.11-9.89 20-12l3 1 3.5-2.5q-9.75 12.75-6 39l-5.5 10.5-1-5-5.5-3.5-.5-2.5-21.5 8.5-2 9 7 1-1.5 6.5-4-1-4 12-1.5.5-2 20-6 9v15L516.5 580l-3.5 1.5-2.5 5.5-1-2-5.5 8.5v51L480.5 676l-.5-10.5 12-36-2.5-3.5-9-2q-.6 12.9-9.5 17.5l2 1q-27.84 10.66-43 34l-3.5 4.5-11.5 6.5-1.5 2.5-17.5-.5 3.5-4.5 40-29 16.5-16.5 5.5-6.5 12.5-4.5-1.5-4.5-9 2-31 22h-73q-31.03-16.47-51.5-43.5l-31-56 4-6-35-92v-47l6.5-1.5 44 23 21-11h8l-4.5 5.5-2.5 3.5-18.5 6.5-1.5 2.5-4.5-1.5-1.5-2.5-10.5-3.5-1.5-2.5-9.5-2.5-1.5-2.5-6-3-8.5 6.5-3 6 6 11 3 18 9 9q15.35 45.15 42.5 78.5 9.5 7 30 3l25-12-.5 1.5-.5 1.5-24.5 12.5 1.5 8.5q15.94 1.94 22-6l72.5-1.5-1-4 5.5-.5 1.5 3.5-9.5 8.5h-63l-4.5 3.5-1 3 2.5 3.5 20.5 7.5-11 2 1.5 4.5 16.5-1.5-1-4 15.5-6.5 6.5 5.5 2 9-3.5 5.5-1.5.5-1.5 3.5h-52l-9.5 6.5-3 11 18.5 21.5 6 3h59l28.5-20.5 5.5-8.5 11.5-7.5 27-42v-42l24-48q3.42-25.08 15.5-41.5l2.5-.5-6-17-.5-18.5-3.5-1.5-4.5-8.5-14.5-4.5 1.5-2.5 8.5-3.5-5.5-6.5-6-3-4.5 2.5 2 3-5.5.5-3.5-5.5 11.5-6.5Zm58.5 78-9 10 4 2 2 18 10-2q-8-8-5-27l-2-1Zm-16 18-2 1-4 5 2 5h2l7-8-5-3ZM331 558l-4 2-3 5 2 9 4 2 6-3 6-8-1-3-10-4Zm151 54-2 5 5 1 1-4-4-2ZM325.5 360l112.5.5-1.5 3.5-16 5-1-3-77.5.5-.5 2.5-17.5-4.5 1.5-4.5Z"/><path fill="#DD886C" stroke="#DD886C" stroke-width="3" d="m480.5 366 4.5.5-17 9 .5 2.5 5.5.5 1.5 3.5 15.5 2.5 1.5 2.5 16.5 11.5 1 6-2.5 3.5 1.5.5-15.5 5.5v-1l9.5-6.5-5.5-8.5-3.5-1.5-1.5-3.5q-13.1-12.9-42.5-9.5l1.5-3.5 29-14Zm16 0 12.5 5.5-5.5.5-7-6Zm-217 6h11l26.5 11.5-2 1 3 5-8.5.5-9-6-1 6h-18q-6.06 7.94-22 6l-1.5-6.5 7.5-9.5 14-8Zm65 0q15.71-2.21 19.5 7.5l2 23 4.5 6.5 1.5.5-1.5 52.5-2.5 1.5-2 22v2l-.5 1.5-2-3-1.5.5-.5 1.5-12.5 5.5 16.5 19.5 5.5 2.5-10.5.5-16.5-13.5-1-4 5-1 1.5-17.5 3.5-2.5-5-6v-46l6-10-8-3 2-1 2.5-3.5 14 6 1.5-2.5-6-10 4-10-7.5-12.5-12-7Zm63 4 2 14 16.5.5-5 9 7.5 8.5 8.5.5-11.5 5.5-11-6-11 6-1.5-10.5 5-4-10-15 7-5 .5-1.5 3-2Zm177 8 3.5 2.5-.5 4.5-4-1-1.5.5 2.5-6.5Zm-2 11 4 1 1.5-.5-1.5 6.5-4.5-1.5.5-5.5Zm-250 1 3.5.5-.5 5.5-5.5-2.5 2.5-3.5Z"/><path fill="#DD886C" stroke="#DD886C" stroke-width="3" d="m344.5 402 3.5 2.5-2.5 3.5-3.5-2.5 2.5-3.5Zm129 6 6.5 3.5 1.5 2.5 9.5.5-8 5 2 1-10.5 5.5h-35l-1.5-8.5 2.5-3.5 3-1 12.5 1.5 1.5 5.5 4.5-1.5.5-4.5 5-2 1 2 5.5-.5-.5-5.5Zm110 0 4.5 1.5-.5 5.5-4-1-1.5.5 1.5-6.5Zm-21 66 7.5.5-1.5 3.5-1.5.5-.5 1.5-4-6Zm-160 12 10.5 7.5 1 7-7.5 3.5v-1l1.5-.5-1.5-10.5-11.5 3.5-3.5 4.5q-4.36 5.64-16 4l-5.5-9.5h1l.5 1.5 4 2q12.57 1.57 16.5-5.5l-.5-1.5 11-5Z"/><path fill="#DD886C" stroke="#DD886C" stroke-width="3" d="m395.5 502 .5 2.5-6.5 9.5-10 2v-1l12.5-9.5 1.5-2.5 2-1Zm-22 32 15 4q5.64-6.36 20-4l22.5 11.5-11.5.5q-10.59-10.41-36-6l-10-6Z"/><path fill="#E4DACC" stroke="#E4DACC" stroke-width="3" d="m359.5 168 4.5.5-11.5 5.5 3-4 4-2Zm73 0 5.5 2.5-2.5 3.5-3.5-.5.5-5.5Zm-49 3 1 3 5.5 3.5 1.5 2.5 4.5-1.5 2.5-4.5 3.5 1.5 1.5 16.5q11.29 1.29 14-6l2.5 2.5-7.5 7.5-10.5 3.5q1.93 12.43-3.5 17.5l-1.5.5-.5 1.5-7 3 .5-1.5-.5-4.5-5.5 1.5 1 4-9.5.5q-5.5-2-3.5-11.5 17.05 3.55 23-4l1-10-2.5-4.5-3.5-2.5-3.5-8.5-3-1-24 18 .5-1.5 8.5-22.5 15-3Z"/><path fill="#E4DACC" stroke="#E4DACC" stroke-width="3" d="m369.5 199 1.5.5-4.5 7.5-9 3-3-5-1 4-2.5-4.5q12.94.94 18.5-5.5Zm44 5 5.5.5-5 3 1 2-6.5 8.5-.5-10.5 5.5-3.5Zm7 6 5.5 2.5-5.5 8.5-1.5-5.5 1.5-5.5Zm-7 16 .5 4.5-15.5 9.5-2.5-6.5 1.5.5 10-3 1 2 5-7Zm-29 6 5.5 2.5-2.5 5.5-8.5-5.5 5-1 .5-1.5Zm-15 14h77l3.5 3.5q2.75 11.75-3.5 14.5h-69l-9.5-7.5-2-7 3.5-3.5Zm12 30 11.5.5 3 6v44q-4.25 7.75-20.5 3.5l-3.5-6.5 6-11v-31l3.5-5.5Zm-61 126 3.5 2.5-.5 3.5-5.5-2.5 2.5-3.5Zm-18 6 3.5 2.5-.5 3.5-5.5-2.5 2.5-3.5Zm30 0 3.5 2.5-.5 3.5-5.5-.5 2.5-5.5Zm109 0 2.5 3.5-5.5 2.5.5-1.5 2.5-4.5Zm29 0 3.5 2.5-.5 3.5-5.5-.5 2.5-5.5Zm78 84 3.5 2.5-.5 3.5-5.5-.5 2.5-5.5Zm4 17 4 1 1.5-.5-2.5 6.5-3.5-2.5.5-4.5Z"/><path fill="#682F2F" stroke="#682F2F" stroke-width="3" d="m390.5 163 2 5 3.5 2.5-1.5 3.5-4.5-1.5-1-4 1.5-5.5Zm-37 165 1 2 44.5.5-3 5 11 1q-8.75 8.25-28.5 5.5-11.71-9.79-37-6-19.69 13.31-47.5 18.5l3 5q-28.07-4.07-36 12l-3 6 3.5.5 12-6v1l-21 11-3-5-7.5 6.5-1.5 3.5-.5-23.5q5.83-17.67 19.5-27.5l4-2h73l17-8Zm56 8 124.5 1.5 1 6-4.5-1.5q-14.76-1.26-21 6h-71l-12-6-3 5-15.5-7.5 1.5-3.5Zm131 15 5.5 13.5h-1l-4.5-13.5Zm-73 3 5.5.5-15.5 5.5v-1l10-5Zm20 0 14.5 6.5-1.5-.5-13-6Zm-38 6 5.5.5-15.5 5.5v-1l10-5Zm-124 6 14.5 5.5-4.5.5-10-6Zm107 0 4.5.5-17 9 3.5 8.5 7.5.5-14.5 5.5q-5.5-3-2.5-14.5l18.5-9.5Zm-84 10 3.5 1.5 2 4-.5 4.5-2.5-1.5-2.5-8.5Zm95 2 5.5.5-15.5 5.5v-1l10-5Zm103 1 3 5 2.5 1.5-5 9q6.92 4.58 5 18l-2-1q-7.83-10.94-3.5-32.5Zm-217 5 6.5 2.5-5.5 6.5-7 3 .5-1.5.5-5.5 4 1 1.5-4.5-.5-1.5Zm129 0q11.48-1.48 14.5 5.5l-5 1-.5 1.5-5-2h-2l-4.5-.5 2.5-5.5Zm-120 6 12.5.5-3.5 5.5-9-6Zm96 0 14.5 5.5-10.5 1.5-3-1-2.5 1.5-.5 1.5-.5-6.5 2.5-2.5Zm-195 1 .5 57.5h-1l-5-10v-37l5.5-10.5Zm37 7-.5 1.5 1.5 12.5 3.5 1.5-4.5.5-6.5-3.5 6.5-12.5Zm161 1 1 3 3.5.5-12.5 5.5 4-5 1.5-.5 2.5-3.5Zm-101 2 5.5 1.5 1.5 5.5 4.5.5-.5 2.5-3 1-6.5-3.5-3.5-6.5 2-1Zm140 7 13.5.5-4 2-2.5 3.5-3.5-2.5-.5-1.5-3-2Zm-182 5 5.5 3.5-2.5 3.5-15.5-5.5 12.5-1.5Zm258 2 7 10 1.5.5-5.5.5-3-11Zm-312 48 5.5 15.5h-1l-4.5-15.5Zm341 6 .5 5.5-5.5 10.5-.5-4.5 5.5-11.5Zm-335 18q7.39 6.11 5.5 21.5h-1q-7.31-6.81-4.5-21.5Zm329 0 .5 11.5-5.5 8.5-1.5-2.5 6.5-17.5Zm-215 8 11.5 6.5-.5 2.5-11.5-2.5.5-6.5Zm183 9 3.5.5-3.5 5.5-3 2-.5-1.5 3.5-6.5Zm-291 19 5.5 15.5h-1l-4.5-15.5Zm281 25 .5 3.5-11.5 22.5-1.5-2.5 12.5-23.5Zm-189 4 3.5.5-2.5 5.5-3.5-2.5 2.5-3.5Zm-86 1 11.5 24.5-4-3-7.5-21.5Zm18 32 6.5 5.5 5 11-10-9-3-6 1.5-1.5Zm16 21 7.5 2.5-.5 5.5-7-8Zm14 15 11.5 4.5 2.5 4.5 3.5 2.5 1.5 2.5 16.5 8.5.5 2.5 16 8 61.5 1.5-1.5 2.5-45.5 29.5-1.5 2.5-53.5-.5q1.31-12.81-6-17v-25q-8.08-7.92-7-25l1.5-1.5Z"/><path fill="#893F3F" stroke="#893F3F" stroke-width="3" d="M341.5 336h24q9.32 8.68 30 6l13-6-.5 1.5.5 2.5 15 7 3-5 12 6h71q6.24-7.26 21-6l4.5 2.5 5 13h-1l-1-3 .5-1.5-16-5-18.5 9.5 1 2v2l1.5 4.5 9.5 2.5-2.5 3.5-13.5-5.5 4-1-5.5-8.5q-9.83-7.17-31-3-5.41 7.59-20 6l2.5-3.5-.5-2.5h-107q-7.68 7.82-24.5 6.5l3 5-2.5.5-24.5-9.5.5-2.5q27.78-4.72 47-18Z"/><path fill="#893F3F" stroke="#893F3F" stroke-width="3" d="m428.5 367 1.5.5-10.5 5.5 1-2 8-4Zm34 5 3.5.5-14.5 5.5v-1l11-5Zm-49 4 2.5 13.5-5.5.5-2.5-6.5 3.5-6.5 2-1Zm-61 1 3.5 5.5q7.27 7.23 4 25l-11.5 1.5-.5-2.5-1.5-4.5-4 1-2.5-1.5 2-4-3.5-1.5-2 1-2.5-1.5 3.5-4.5 10 5 4-6 2.5-1.5-3-10 1.5-1.5Zm-45 1 22.5 7.5-1.5 4.5-4.5-1.5-1.5-2.5-15-8Zm-59 1 3.5 2.5.5 2.5 6-4-16.5 17.5-1.5 3.5-.5-11.5 8.5-10.5Zm207 5 2.5.5-2 5v2l1 4-7.5.5-10.5-5.5 16.5-6.5Zm11 0 10.5 5.5-3.5.5-7-6Zm-42 3-1 2-1.5-.5 2.5-1.5Zm-137 3 5.5.5-21 12-2.5 7.5-3.5-1.5-2-6 23.5-12.5Zm195 0 11.5 5.5-1.5.5-10-6Zm-47 6 2.5.5-3.5 6.5-6 4-2.5-4.5 4-2 1.5-3.5 1 2 1-2 2-1Zm111 7 5.5 15.5h-1l-4.5-15.5Zm-268 11 14.5 5.5-4.5.5-10-6Zm180 0 3.5 2.5-2.5 3.5-3.5-2.5 2.5-3.5Zm117 2 .5 6.5-20.5 9.5-3.5-10.5h1l2.5 4.5q14.67 2.17 18.5-6.5l1.5-3.5Zm12 12 .5 3.5-5.5 10.5-.5-3.5 5.5-10.5Zm-347 31 5.5 14.5h-1l-4.5-14.5Zm339 14-.5 1.5-.5 1.5-.5-1.5 1.5-1.5Zm-333 2q7.39 6.11 5.5 21.5h-1q-7.31-6.81-4.5-21.5Zm331 2-.5 1.5-.5 1.5-.5-1.5 1.5-1.5Zm-216 15 5.5 3.5 1 2-2.5.5-5.5-3.5 1.5-2.5Zm41 0 5.5 2.5-1.5 8.5-10.5-5.5.5-2.5 6-3Zm-150 7q9.45 10.05 5.5 33.5h-1q-9.16-10.66-4.5-33.5Zm317 0 .5 4.5-5.5 8.5-.5-2.5 5.5-10.5Zm-209 3 11 2 1-2 17.5 2.5-3.5 5.5-13 5-13.5-8.5.5-4.5Zm-102 47 24.5 40.5-1.5.5-6.5-4.5-16.5-36.5Zm257 31 .5 1.5-5.5 10.5-1.5-3.5 2-1 4.5-7.5Zm-227 17 8 9-8.5-3.5-1-3 1.5-2.5Zm12 12 12.5 14.5-3.5.5-4.5-2.5-4.5-12.5Zm17 15 18.5 14.5 1 3-2.5.5-10.5-8.5-2.5-3.5-3.5-2.5-.5-3.5Zm24 18 6.5 3.5 1.5 2.5 15.5 5.5-6.5.5-16.5-8.5-.5-3.5Zm100 0 2.5.5-7.5 9.5-43.5 32.5-3.5 5.5-17.5-.5 2.5-3.5 45.5-29.5-1-2 22.5-12.5Z"/><path fill="#AE564F" stroke="#AE564F" stroke-width="3" d="m522.5 348 16.5 5.5-2.5.5q-22.44-3.94-31 6l-1.5-2.5 18.5-9.5Zm-180 6 107.5.5-3 5 2 1-15.5 5.5v-1l4.5-2.5-.5-2.5-106.5-.5 11.5-5.5Zm198 1 5.5 15.5h-1l-6-12 1.5-3.5Zm-222 5 6.5.5-1 4 .5 1.5-6.5-3.5.5-2.5Zm107 6 5.5.5-20 11-2.5 5.5-.5-7.5 17.5-9.5Zm-72 11 5.5 4.5 5 13-3.5 6.5q1.63-17.13-8.5-22.5l1.5-1.5Zm-90 1 5.5.5-9 7-2 9 12.5 1.5 16-6v1L264 402.5l2 6-1.5-.5-17-6-1.5 48.5 35 93-4 6q20.13 52.37 60.5 84.5l22 14 71.5.5-10.5 5.5h-55l-17.5-7.5-1.5-2.5-10.5-3.5-2.5-4.5q-6.79-10.71-21.5-13.5L298.5 606l-10-9-1 2-29.5-50.5v-39l-6-11v-13q-7.24-4.76-6-18l-6-9v-57l19.5-21.5 4-2Zm186 0 5.5.5-5 3 .5 2.5 4.5.5q-7.95 7.05-23 7l-3.5 10.5-2.5.5 3 5-6-5-2-4 5-8-5-1 28.5-11.5Zm-149 6 5.5 3.5-.5 2.5-5.5-3.5.5-2.5Zm15 0 8.5 3.5-.5 3.5-3.5-2.5-1.5-3.5-1 2-2-3Zm154 0 15.5 5.5-5.5 1.5-10-7Zm-131 12 3.5 1.5-2.5 4.5-3.5-2.5.5-2.5 2-1Zm244 5 4 1 1.5-.5-.5 7.5-4-1-3 18q-13.88 1.12-19 11l-6.5-4.5 21-10q-1.3-15.3 6.5-21.5Zm-222 2 5.5 9.5-6.5 1.5-8.5-5.5 9-1 .5-4.5Zm131 5 9.5.5q-3.63 6.87-15.5 5.5l.5-1.5 1.5-2.5 4-2Zm55 1 5.5 15.5h-1l-4.5-15.5Z"/><path fill="#AE564F" stroke="#AE564F" stroke-width="3" d="m299.5 414 6.5 1.5-5.5 7.5-5 2-6.5-4.5 11-2-.5-4.5Zm282 49 .5 5.5-11.5 28.5-.5-10.5 11.5-23.5Zm-28 17 4.5.5-.5 5.5-5.5-1.5 1.5-4.5Zm-191 6 1.5.5 1.5 2.5 1-2 5.5 12.5-2.5-1.5-2.5-1.5-1.5-2.5-4-2-1.5 14.5 14.5 8.5 15.5-8.5-.5-2.5-4.5-.5 10-7 1.5-2.5 1.5.5-2 1 .5 2.5 1.5.5-3.5 4.5-2.5 1.5-6.5 7.5-14 4-18.5-15.5-4-7 13-6 .5-1.5Zm6 48 15 6h25q9.61 8.89 29.5 7.5l-1.5 4.5h-71q-4.76 7.24-18 6l.5-1.5-.5-4.5-5 1-.5-3.5 25-13 1.5-2.5Zm11 42 16.5 1.5-1.5 4.5-16.5-1.5 1.5-4.5Zm136 3 1 2-3.5.5 2.5-2.5Zm-6 6 1.5 2.5-2 1-4.5 9.5-.5-4.5 5.5-8.5Zm-28 27 4.5 1.5-1.5 4.5-4.5-1.5 1.5-4.5Zm-14 12 6.5 1.5-1.5 4.5q-11.82.68-16.5 8.5L439.5 656 397 687.5l-1.5 2.5-5.5-.5 12.5-14.5 39.5-28.5 2-4-2.5-.5-4.5 3.5 30.5-21.5Z"/><path fill="#F2A683" stroke="#F2A683" stroke-width="3" d="m515.5 360 11.5 8.5-.5 1.5-9.5 4.5.5 1.5 14.5 4.5 5.5 9.5 2.5.5v18l6 17-4 2q-10.6 16.4-14 40l-24 48v42l-9 18-21.5 27.5-10.5 6.5-3.5 6.5-28 20h-59L351 617.5l-3-11 6.5-9.5 12-3-.5 1.5-5 12 11.5 19.5 7 2 14-4q7.46 8.04 26 5 22.92-8.08 35.5-26.5l-5.5-6.5-6-3-30.5-.5 1.5-3.5 2.5-1.5 2-9-5.5-7.5-6-2q-4.2 7.8-18 6l-22.5-9.5-1-3 2.5-3.5 4-2-.5 1.5 7.5 10.5 28.5-1.5 2.5-4.5 3.5-.5-1-5q24.49 4.49 31-9l-1-3 2.5-.5 7.5 5.5 9.5 15.5 7 2 7.5-5.5 3-18 6-12v-18l7-21 29-51 6-18v-17l-2.5-4.5-5-1-11 6-2.5-1.5 3-6-7.5-9.5-11.5-6.5.5-1.5q15.82-2.32 22 5l2.5-8.5-11-8 11-2-1.5-4.5-3.5-2.5.5-1.5 4-2ZM442 552l-9 17 2 7 8 5 7-2 5-7-11-19-2-1Zm-41.5-174 3.5.5-4.5 5.5-2.5.5 10 15-4.5 3.5q-8.73-4.77-6.5-20.5l2.5-3.5 2-1Zm78 0 7.5 2.5 1 3-7.5.5-4.5-2.5.5-1.5 3-2Zm-114 2 1 2 4.5 2.5 2 24-1.5.5-4.5-6.5-1.5-22.5Zm219 10 4.5 1.5-1.5 4.5-4.5-1.5 1.5-4.5Zm-169 18 2.5 1.5-1.5-.5-1.5.5-.5 13.5-7 2-3.5-2.5-1-9 1.5.5 11-6Z"/><path fill="#F2A683" stroke="#F2A683" stroke-width="3" d="m504.5 410 1.5.5-2.5 1.5 1-2Zm-74 1 1.5.5-4.5 2.5 1-2 2-1Zm6 1 1.5.5.5 1.5 1.5.5-2 10 .5 1.5-4.5-1.5-1-8 3.5-4.5Zm62 1 1.5.5-1.5.5v-1Zm-235 1 7.5 4.5-.5 1.5-3.5.5q-5.83 7.17-3 23l8.5 18.5 9.5 4.5 17 22 15.5 37.5q11.67 11.83 39 8l11.5-8.5-8-9 .5-2.5 14.5 5.5 2 8-2 1 1.5 3.5 3.5 1.5-11.5.5-23 12h-24l-9.5-6.5q-23.98-33.02-39-75l-9-9-3-18-6-12 6.5-8.5 5-3Zm63 0-2.5 3.5.5 2.5 5.5.5-5.5 8.5q-7.83 6.17-25 3l.5-1.5.5-1.5 20.5-8.5 5.5-6.5Zm165 0 5.5.5-11.5 6.5-2.5-1.5 8.5-5.5Zm92 0 4.5 1.5q1.75 8.75-3.5 10.5l-2.5-.5 1.5-11.5Z"/><path fill="#F2A683" stroke="#F2A683" stroke-width="3" d="m275.5 420 6.5 3.5 1 2-1.5.5-5.5-2.5-.5-3.5Zm12 6 6.5 3.5 1 2-1.5.5-5.5-2.5-.5-3.5Zm286 6 2.5.5-6.5 12.5-4.5-3.5 8.5-9.5Zm-226 5 .5 34.5 5 6-4.5 3.5-3-7-1.5-.5-2-30 2.5-5.5 3-1Zm223 12 4 1 1.5-.5 5 10-11 3 3.5 5.5 2.5.5-3.5 11.5-5.5-.5.5-1.5 2.5-1.5-.5-2.5-11.5 1.5-1.5 2.5-10 2-.5-5.5 2.5-4.5 21.5-8.5.5-12.5Zm-13 1 5.5 2.5-7.5 8.5-1.5-.5-2-5 3.5-4.5 2-1Zm-157 7 7.5 3.5 11 22 1 9-12.5 16.5-3 1-6-4-5 23-3.5-.5-.5-11.5-4.5-.5 9-6 4.5-10.5 12 5 3.5-8.5-7.5-8.5-4-1-8 4v-1l5.5-2.5 2-4q2.5-16.5-5-23l3.5-2.5Z"/><path fill="#F2A683" stroke="#F2A683" stroke-width="3" d="m371.5 461 .5 24.5 2.5 4.5 15 2 2.5.5q-3.93 7.07-16.5 5.5l-4.5-2.5q-7.83-8.17-5-27l3.5-6.5 2-1Zm-24 26 .5 10.5-5 1-.5 1.5-.5-3.5 5.5-9.5Zm-111 28 1.5.5-1.5.5v-1Zm142 19 1.5.5-1.5.5v-1Zm16 0-1 2-3 1v-1l4-2Zm18 2 3.5 1.5-1.5.5-2-2Zm5 2 5.5 3.5-1.5-.5-4-3Zm7 4 1.5.5-1.5.5v-1Zm-94 16 10.5 3.5 1 3-6.5 8.5-6 3-3.5-2.5-2-9 2.5-4.5 4-2Zm150 66 10.5 3.5 1 3-6 11v12L474.5 683l-1-2-5 7-.5-4.5 12-30v-11l-5.5-.5h-2l-1.5-.5q8.9-4.6 9.5-17.5Zm-16 22 1.5.5-2 1-32 34 .5 2.5 3.5 1.5 1 4-22.5.5.5-1.5 2.5-3.5 12.5-7.5 22.5-23.5 12-8Z"/><path fill="#F8D6AC" stroke="#F8D6AC" stroke-width="3" d="m399.5 366 2.5 1.5-3.5 4.5-2.5-.5 3.5-5.5Zm-9 24 3.5 1.5 2 10-6 12-1 35v2l-1.5 3.5-1.5-.5-2-4 1-4-1-45 1-3 1.5-5.5 4-2Zm-3.5 60v1h1l-1-1Zm28.5-36 4.5 3.5-.5 2.5-5.5-1.5 1.5-4.5Zm88 0 6.5.5-7 28v2L456.5 494l-10 2-16.5-15.5-2-10q6.67-8.33 5-25v-2l7.5-9.5 4-2 19 1 25-11 1.5.5.5-1.5 1.5.5.5-1.5 1.5.5 1.5-2.5 8-4Zm-121 67 5.5 1.5-.5 1.5-5 1-2.5-1.5.5-1.5 2-1Zm39 11 18.5 17.5 4 7-1 4-1.5 5.5-5 1-16 1-11.5-8.5.5-1.5 1 2 10.5-21.5-1-5 1.5-1.5Zm-40 30 2.5.5-.5 5.5-4.5-2.5 2.5-3.5Zm-9 6 7.5 5.5-1.5.5-6.5-3.5.5-2.5Zm27 0 2.5.5-3.5 5.5-2.5-1.5 3.5-4.5Zm-1 74q11.75-1.75 13.5 6.5l1 5-2 1 .5 1.5-5 1-10 1-4.5-2.5.5-1.5-1.5-.5 7.5-11.5Z"/></svg>