<svg viewBox="0 0 540 600" xmlns="http://www.w3.org/2000/svg"><path stroke="#000" stroke-width="3" opacity=".004" d="M.5 0 540 .5l-.5 599.5-47.5-.5-.5-41.5-5.5-3.5v-16q-7.24-4.76-6-18l-18-35v-25l-6-16 6-14-5-8 11-20-5.5-3.5-1.5.5-11-27 6-11v-33q-7.24-4.76-6-18l-12-18 2.5 1.5 3.5-.5-.5-5.5q-15.5 2-17.5-9.5-2.1-15.9-15-21l-3.5-11.5-5.5-.5-8.5-11.5-3.5-.5q-8.75-6.25-6.5-23.5l-5.5-.5-.5-5.5-2.5-.5-9-15-.5-14.5-5.5-.5-.5-11.5-5.5-.5-.5-11.5-11.5-9.5-.5-32.5-5.5-.5-2.5-17.5-3.5-.5-.5-11.5-5.5-.5-.5-5.5-2.5-.5-5.5-10.5-9.5-1.5-2.5-10.5-9.5-1.5-.5-5.5-11.5-.5-.5-5.5h-25L234 50.5l-.5 3.5-10.5 2.5-4.5 9.5-2.5.5v8l-12 26v69l4 9-4 5-.5 20.5-3.5.5-2 11-16 25-8 20-21 21 .5 1.5-31.5 29.5-5.5 11.5-2.5.5v11l-12 23q2.17 17.67-6 25l3 1q5.83 7.17 3 23l-10 7-2 7 6 16-6 14 10 27-4 2v17l-24 41q2.44 16.94-6 23l-.5 38.5-65.5-.5L.5 0Z"/><path stroke="#000" stroke-width="3" opacity=".004" d="m390.5 241 5.5 2.5-.5 2.5-5.5-3.5.5-1.5Z"/><path fill="#F1E88D" stroke="#F1E88D" stroke-width="3" d="m256.5 37 1.5 5.5-6 10 3.5 1.5 8-6 .5 2.5-6 5-.5 4.5-11.5-.5-1.5-5.5-4.5-3.5 1.5-2.5 9.5-3.5 1.5-5.5 4-2Zm-5 29q13.54-1.54 16.5 7.5l8 16v7L262.5 120l-4.5-1.5-1.5-16.5q-17.46 2.46-21.5-8.5l5-16 7.5-9.5 4-2Zm-2 60 2.5.5 1.5 29.5 10.5 1.5-1.5 4.5-17 6-9.5-7.5-14-33 2.5-.5 16 5 9-6Zm10 6 4.5 1.5-1.5 4.5-4.5-.5 1.5-5.5Zm-54 12 4.5 1.5-.5 4.5-5.5-2.5 1.5-3.5Zm53 48 11.5 1.5-1.5 4.5-10.5-1.5.5-4.5Zm-69 66 2.5.5-9.5 11.5-2.5-.5 9.5-11.5Zm57 18 5.5 2.5-2.5 3.5-3.5-2.5.5-3.5Zm152 0 15.5 9.5 1.5 2.5 4.5.5 18 21 11 26-1.5.5-13.5-13.5q-5.25-20.25-19.5-31.5l-18.5-9.5 2.5-5.5Zm-116 6 5.5 1.5-1.5 4.5-4.5-.5.5-5.5Zm56 13 14.5 13.5-2.5 3.5-2.5.5 6 10-2.5 1.5-21.5-9.5.5-2.5 5.5-1.5-.5-2.5-2.5-1.5-2-4 7.5-7.5Zm5.5 11-2 2 3 4h3l-1-4-3-2Zm-202.5-6 2.5.5-19.5 21.5-3 1-.5-1.5 20.5-21.5Zm100 6 4.5 1.5-18 59-20.5 34.5-19.5-12.5-7-20 3.5-4.5 1.5-.5-.5-1.5-1.5-.5-4-8 7.5-9.5 33.5-11.5 8.5-12.5 9.5-5.5 2.5-8.5Zm-26 6 .5 2.5-5.5 8.5-1-2-11.5 4.5-1.5 8.5-10 2-.5-8.5 29.5-15.5Zm94 18 38.5 13.5-3.5 5.5-2.5 1.5.5 1.5 1.5.5 10 19v13l-8.5 10.5-22.5-14.5-1.5-2.5-1.5.5-1.5 2.5-12.5 4.5.5 2.5 1.5.5 4 12-6.5 1.5-17.5-7.5q-4.44-33.44 13.5-44.5l10.5-3.5-.5-2.5-1.5-.5-4-10 3.5-3.5Zm-180 6 2.5.5-3.5 5.5-2.5-.5 3.5-5.5Zm-12 6 2.5.5-3.5 4.5-2 1-.5-2.5 3.5-3.5Z"/><path fill="#F1E88D" stroke="#F1E88D" stroke-width="3" d="m282.5 342 5.5 3.5-1.5 14.5-4.5-1.5.5-16.5Zm-177 12 2.5.5q4.06 22.06-6.5 29.5l-5.5-2.5 6-8q-2.28-13.77 3.5-19.5Zm172 12 4.5 1.5-1.5 4.5-4.5-1.5 1.5-4.5Zm-36 6 4.5.5-3.5 5.5-2.5-.5 1.5-5.5Zm-148 42 6.5 1.5 8 17-6 16 4.5 1.5 9-10 3-1 .5 1.5-4.5 8.5-1-2-9 15-2.5 1.5 1.5 4.5 4.5.5-3.5 5.5-5.5-.5-8-25q6.61-4.89 5-18l-5-12 2.5-4.5Zm5 66 3.5.5 2.5 5.5 3.5.5-9.5 11.5-2.5-1.5 3.5-4.5 2.5-1.5-1.5-4.5-4.5-3.5 2.5-2.5Zm-11 36 8.5.5-6 17v13l-12 29-.5 24.5-5.5-.5q4.62-26.12-4-39 6.36-5.64 4-20L87.5 516Zm378 18 2.5 1.5v23q7.94 6.06 6 22l-4.5 1.5-13.5-36.5 9.5-11.5Zm-290 54 4.5 1.5-.5 10.5-5.5-.5 1.5-11.5Zm300 0 4.5 1.5-.5 10.5-5.5-.5 1.5-11.5Z"/><path fill="#6F4006" stroke="#6F4006" stroke-width="3" d="m257.5 36 7.5.5-3.5 12.5-7 5q-5.75-3.25 1.5-6.5l2-10-.5-1.5Zm12 0 7.5.5-1 5 3.5.5 2.5-1.5-1.5 2.5-6.5 3.5-3.5 4.5-8 3 1.5-2.5 6-14-.5-1.5Zm14 6 5.5.5-1 4 .5 1.5-6.5-1.5 1.5-4.5Zm-52 12 2.5 8.5-1.5-.5-4-1-2 8 .5-1.5-.5-1.5-4 1-2.5-1.5L231.5 54Zm46 6q15.39-1.89 21.5 5.5l-2 1 9 17v7l-3.5 5.5-9 1-2.5-1.5 3-6-4.5-7.5-1.5-.5.5-1.5 1.5-.5 4-8-3.5-4.5-13-7Zm31 0 3.5 2.5-2.5 3.5-3.5-2.5 2.5-3.5Zm-92 9 4.5 3.5 1 2-10 14 4 12-4.5 1.5-2-6-2.5-.5 9.5-26.5Zm81 33 8.5.5-.5 5.5-11.5-2.5 3.5-3.5Zm-64 3 1 3 3.5 1.5 3 16-10.5.5q-6.75-4.25 3.5-8.5l-.5-3.5q-9.5-2-11.5 3.5l-2.5 8.5-3.5-1.5 1.5-4.5 16-15Zm42 0 .5 3.5-3.5 5.5-2 1-.5-1.5 5.5-8.5Zm-24 1 .5 2.5-4 10 4 3-1.5 4.5-5.5-.5q-1.25-14.25 6.5-19.5Zm-34 2 4.5 1.5-1.5 4.5-4.5-1.5 1.5-4.5Zm53 17 8.5 1.5-1 3 2.5 4.5 1.5.5-.5 1.5-2.5 1.5-3 7 4.5 6.5 1.5.5-1.5 4.5-5.5-.5 1-10-9-2 3.5-18.5Z"/><path fill="#6F4006" stroke="#6F4006" stroke-width="3" d="m293.5 125 21 1 8.5 8.5q-16.29 9.21-11 40-5.83 17.67-19.5 27.5l-28 14h-7l-22-8-7-7-1 2-12.5-22.5 5.5-.5 5 12 26 18h13l16.5-9.5 1-7-12-3 1.5-3.5 3.5-2.5 2.5-3.5 4.5-1.5q1.32-12.82-7.5-15.5l-3.5-1.5 9.5-.5 5 12 8.5-1.5 6-23 12-16q-14.5.5-21-7l2.5-1.5Zm-89 2 3 5 2.5 1.5-1.5 4.5-2.5 1.5-1.5 3.5v-16Z"/><path fill="#6F4006" stroke="#6F4006" stroke-width="3" d="m253.5 144 5.5.5-1 4 1.5 2.5-7.5-2.5 1.5-4.5Zm95 6 5.5 2.5-1.5 3.5-4.5-1.5.5-4.5Zm-139 5 5 15 1.5.5-1.5 3.5-4.5.5-.5 4.5-2 1 .5-3.5q-6-6-4-20l5.5-1.5Zm145 12 4 1 1.5-.5-2.5 6.5-3.5-2.5.5-4.5Zm-96 7-.5 1.5 1.5 4.5 10.5-1.5-1-4 5.5-.5 1.5 3.5-12 6 1.5 6.5 3.5 1.5-5.5.5-14.5-11.5 3-1 1.5-3.5 5-2Zm104 0 3.5 2.5-5.5 12.5-11 3-1.5-3.5 10-4 4.5-10.5Zm-153 9 .5 9.5-1.5-.5-4 1-.5-7.5 1.5.5 4-3Zm150 13q3.35 23.65 18.5 35.5l-1.5 2.5-8.5-6.5-1.5-2.5-1 2-11.5-23.5 5.5-7.5Zm-155 1 4 1 1.5-.5-1.5 6.5-4.5-2.5.5-4.5Zm168 2 5.5 8.5-5 8 2.5.5 2.5-1.5-1.5 7.5-3.5-.5-.5-22.5Zm-170 5 2.5 1.5 5 17-5.5 10.5-2-29Zm33 12-.5 1.5q7 8 6 24l-1.5.5-2.5-1.5q-5.83-7.17-3-23l1.5-1.5Zm2 0 6.5 1.5 3 5-1.5 2.5-8-9Zm146 13 .5 7.5 14.5 15.5 7-6 22.5 35.5-8.5 1.5-3.5-2.5-5.5-15.5-19.5-12.5 2-1-8-7-.5-1.5-1 3-5.5-10.5 4-3 1.5-3.5Zm-189 5 3.5 1.5-.5 2.5-2.5 1.5-12.5 24.5-28 18 19.5-20.5.5-4.5 2 1 16-22 1.5-.5.5-1.5ZM184 252l-4 6h3l3-5-2-1Zm88.5-17 9.5 8.5-1.5 2.5-10.5.5 4.5 13.5 19.5 6.5-6 4-.5 2.5-15.5-10.5-11-22 2.5-1.5 6 1 3-5Zm-37 17 4.5 1.5 2 10-2 1q-1.17 13.17 7 17l-7.5 1.5-6-1-11.5 9.5 1.5 2.5 6-1 .5 1.5-2.5 3.5-17 11-.5-3.5 25.5-53.5Zm.5 18-2 5 6 1v-4l-4-2Zm99.5-18 24 12q14.66-2.66 19.5 4.5l.5 1.5 4-1 6 1 1-2 6.5 8.5-2.5 4.5-1.5.5-4.5 12.5-9-2-33-26-17-2-9.5 7.5-1.5 3.5-.5-11.5 3.5-4.5 14-7Zm-138 1 .5 4.5-6 12 3 1-2 3 3.5 4.5 1.5.5-2.5 3.5-2.5-1.5-.5-1.5-9-3-4 2-1.5-2.5 1.5-2.5 10.5-4.5 7.5-15.5Z"/><path fill="#6F4006" stroke="#6F4006" stroke-width="3" d="m209.5 258 6.5.5v12L202.5 286l-7 2 8.5-9.5-.5-2.5-5.5-2.5 6-9-2-1 7.5-5.5Zm100 6 2.5.5-6.5 24.5-4-1-1.5.5.5-7.5 4 1 1.5-11.5-2-1 5.5-5.5Zm-51 7 5.5 13.5h-1l-1.5-2.5-3.5-.5.5-10.5Zm174 15 15.5 21.5 8 22v31q-7.24 4.76-6 18l6 11q-3.65 19.65 5 27l-5 7 6 9q-7.24 4.76-6 18 10.41 10.59 6 36l8 17-2 1-.5 3.5-2.5 1.5-9 12v19l-12 29v13l6 17-5.5.5-12.5-35.5v-13l7.5-9.5 9.5-5.5q-1.63-15.62 5.5-22.5l1.5-.5-.5-3.5-15 6-2.5-2.5v-28l-18-41q2.29-17.29-6-24v-19l-6-11v-34l-2.5-2.5-8.5-.5 5-15-5.5-2.5-4 11-11 1q-5.43-10.57-20-12l-1.5 5.5 28 26 2 26-23 12-14.5 24.5-38 20-5-12q-11.5-1-15.5-9.5l-.5-2.5-11 3-.5-7.5 4.5-1.5 4 5 3.5-2.5 1.5-2.5 2.5.5 1.5 2.5 4 2q9.19-9.81 33-5l15.5-13.5 5.5-9.5 8.5-2.5v-35L355.5 346l-1.5-.5 1.5-3.5 2.5-1.5 3.5-16.5 2.5.5 1.5 2.5 23 15 1.5-6.5-6-16 3.5-1.5 2 3 18.5 10.5 2 9 19.5 25.5 2.5-.5 2.5-5.5 3.5 1.5-2.5 4.5-3.5.5 1.5 3.5 5 2 9.5-7.5 2-35-9.5-22.5-8.5-4.5.5-2.5 5.5-.5-5.5-13.5ZM446 438l-2 2 8 22 4-1-6-21-4-2ZM161.5 288l2.5.5-14 13 5.5-10.5 6-3Zm126 1 .5 11.5-5.5 10.5-.5-11.5 5.5-10.5Zm-102 8 1.5 2.5-2.5 10.5-10 4-.5-2.5 11.5-14.5Zm115 4 8.5 10.5-6.5.5-2-11Zm-79 6 1 5 5.5.5.5 5.5 5-3-1.5 2.5-.5 1.5-7.5 5.5-1.5 3.5-7 2-5.5-3.5 6.5-12.5 2.5-1.5 2.5-5.5Zm-71 9 5.5 3.5-1.5 2.5-7 2 .5-1.5 2.5-6.5Z"/><path fill="#6F4006" stroke="#6F4006" stroke-width="3" d="m269.5 317 .5 1.5-3.5 5.5-2.5-1.5-1.5-2.5-4-1-.5 5.5q8.29 6.71 6 24l-6 11-2 17-22 24 6.5 1.5 15.5-13.5 9.5-22.5 4.5 1.5v17q10.3 6.7 12 22-18.04-.54-24 11l-.5 4.5-5.5-3.5 4.5-6.5 1.5-.5-.5-3.5h-6l-16.5 9.5-10.5 26.5q-22.11-.11-32 12h-25L152 442.5l-9.5-22.5-10 2-3.5-7.5 3-1-1-5 5-2 8-22v-19l17.5-26.5.5 3.5-10.5 19.5-1.5.5.5 3.5 6-2-.5 1.5q1.24 13.24-6 18v17l15.5 6.5 9-5 9.5 7.5 10.5 15.5 19.5-12.5q7.78-18.73 23.5-29.5l3.5-2.5 1.5-2.5 3.5-2.5 1.5-2.5 1.5-.5q5.17-5.83 3-19l6-12-7.5-9.5-10.5-4.5.5-4.5 3 1q6.8-9.7 26-7Zm-140 1 2.5.5-5.5 8.5-1-3-5 2 2-3 7-5Zm213 3 2 3 3.5 1.5-.5 2.5-7.5 6.5-.5 1.5-2.5-1.5-.5-1.5-7-3-7 5q-4.57-6.43-17-5l-18 12-5.5-3.5.5-9.5 4 1 5-6 47.5.5-3 4 2.5 1.5 3.5-4.5v-2l.5-2.5Z"/><path fill="#6F4006" stroke="#6F4006" stroke-width="3" d="m186.5 323 3.5 1.5-4 2-2.5 3.5-1.5.5-19.5 26.5-.5-3.5 18.5-26.5 6-4Zm14 1 3.5 1.5-.5 4.5-5.5-1.5 2.5-4.5Zm-86 3 5.5 12.5-6 5-8.5 9.5 2.5-3.5 6.5-23.5Zm14 3 3.5 1.5-1.5 4.5-4.5-.5 2.5-5.5Zm19 0 2.5.5-.5 3.5-2.5 1.5-8 16 3.5 4.5 1.5.5-.5 1.5-1.5.5-9.5 30.5-1-5-15 11-4-5-4 1-.5-7.5 5.5-8.5 2 9 10-8 1 2 5.5-1.5-.5-4.5-1.5-.5 8-15-5-6 11-14-3-1 6.5-5.5Zm-22 15L114 357.5l.5 2.5 8.5.5-9 8-.5-2.5-5 1-.5-1.5 17.5-20.5Zm6 46 .5 5.5-5.5 8.5-.5-3.5 5.5-10.5Zm-23 4 3.5 2.5 2 9h-1l-4.5-11.5Zm-1 12 .5 5.5-4.5 1.5-3.5-4.5 7.5-2.5Zm12 5 3.5 7.5-3 1 1.5 5.5 4-1 .5 1.5-9.5 13.5-8 4-.5-6.5 4-10-.5-1.5 2.5-.5q-1.27-10.77 5.5-13.5Zm.5 20-2 1-3 4v1l5-3v-3Zm162.5 1 5.5 11.5-3.5 5.5-5.5-.5q6.39-3.61 3.5-16.5Zm-161 5-1.5 2.5-6 15 3 1-8.5 5.5-.5-3.5 13.5-20.5Zm5 3 4 3 1.5-.5-3.5 6.5-2-9Zm142 2 1.5.5 3 6-5.5.5-3.5-5.5 4.5-1.5Zm-26 7 3.5 1.5 1.5 14.5 10 2 2-12 3.5.5 1 15-8.5 2.5-3.5-2.5-.5 1.5-3-4-8-1-1 2-10-8-1.5 5.5 6 2-1.5-.5-15.5 8.5-1 9 4.5 7.5 1.5.5-.5 1.5-1.5.5-4 7v29l4.5 1.5h2l3.5 1.5 7.5 19.5 1-2 5 8 5.5 2.5-2 1 7 9-3.5 7.5-1-2-4 3q.4-17.4-10-24l-3.5 1.5 6 14v9l7.5 11.5 10-5 .5 10.5-11.5.5-9-12-3.5 1.5-.5 10.5-5.5-.5-1.5-11.5-16.5-1.5-1.5-16.5h-23l-19 12 1.5-2.5 5.5-11.5 1 2 4.5-3.5 1-2-2-1 11.5-17.5q13.11 1.61 18-5l13 11 1.5-6.5-8-22-21-23 22-5q-6.61-4.89-5-18l21-15-2-1 8.5-4.5 7 5 4-12ZM200 558l-2 5 5 1 1-4-4-2Zm-81.5-102 2 12 11.5 2.5v64q-9.35 8.65-6 30L107.5 600l-5.5-.5 12-23 6-23-10.5-1.5-3 18-4.5-1.5-4.5-12.5-1.5-.5.5-1.5 1.5-.5q7.45-7.55 4-26l6-11v-25l12-16-2.5-1.5-9 6-.5-6.5 11-16-.5-1.5Zm-2.5 66-8 17 3 1q8-4 9-16l-4-2Zm171.5-66 6.5 3.5-9.5 20.5-2.5-1.5q-3.72-16.22 3.5-21.5l2-1Zm21 0 3.5 2.5-2.5 9.5-3.5-1.5 2.5-10.5Zm9 12 17.5 14.5-5 9v21l-3.5 3.5-7.5-.5 5-10-12-2-2-11 2-1 6-16-2.5-1.5q-3.9 7.6-17 6l2-3 17-9Z"/><path fill="#6F4006" stroke="#6F4006" stroke-width="3" d="m251.5 491 2 7 4-1 .5 9.5-11.5 3.5-.5-2.5 6-4-1.5-3.5-10.5-4.5 2.5-3.5 9-1Zm51 1 3.5 2.5-.5 4.5-4-1-1.5 5.5 2 1-16.5 22.5-7.5-6.5 5.5-8.5 14.5-8.5 4.5-11.5Zm-69 15 .5 13.5-4.5 1.5-2.5-11.5 6.5-3.5Zm245 13 7.5 19.5 2 18-2 1 1.5 5.5 4-1 .5 36.5-5.5.5-4-13-2.5-1.5.5-1.5 2.5-1.5 2-4-5-8v-37l-3.5-5.5-2.5-1.5 1.5-4.5 3-2Zm-164 2 3.5 1.5-.5 4.5-5.5-2.5 2.5-3.5Zm-175 48 4.5 1.5-.5 28.5-5.5-.5 1.5-29.5Zm156 12 4.5 1.5-2.5 4.5-3.5-2.5 1.5-3.5Zm-139 4 5.5 3.5-1.5 2.5-7 2 .5-1.5 2.5-6.5Zm168 2 23.5 8.5-.5 3.5-23.5-.5.5-11.5Z"/><path fill="#C78F2A" stroke="#C78F2A" stroke-width="3" d="m265.5 36 4.5 1.5-5.5 12.5-1-2-1.5.5 3.5-12.5Zm12 0 4.5 2.5-2.5 3.5-3.5-.5 1.5-5.5Zm-26 4 .5 2.5-3.5 4.5-8.5 2.5 3 4-6.5.5-1-4 16-10Zm38 2 4.5 2.5-2.5 3.5-3.5-1.5 1.5-4.5Zm-11 6 3.5 2.5-2.5 3.5-3.5-2.5 2.5-3.5Zm-33 10 1 2 12-1q24.29-1.79 34.5 10.5l1 3-4.5 7.5-1.5.5.5 1.5 1.5.5 4 8-3 5 2 1-20 11q-7.17 9.83-3 31l-3.5 5.5-14 1-1.5-19.5 1-4-4-3 4-15-.5-1.5 6.5 1.5 1.5 16.5 4.5-1.5q1.7-15.3 12-22v-7L262.5 68l-11-2-9.5 7.5-7 20 10 8-11 2-15.5 16.5-2.5 1.5 1.5 4.5 31.5.5q-3.63 6.87-15.5 5.5l-11-5-.5 5.5 19.5 33.5 5 2 17.5-7.5-1.5-4.5-10.5-1.5.5-5.5 17 7h11l1.5-4.5-4-3-2-7 4.5-5.5 1.5-.5-.5-1.5-1.5-.5-3-5 1.5-2.5-1.5-.5 8.5-4.5 7.5 4.5-2 1q6.5 7.5 21 7l-12 16-7.5 24.5-8.5-1.5-3.5-10.5q-28.35-3.85-34.5 14.5l1.5 3.5 15.5 11.5-5 1 1.5 5.5 10.5-1.5-1-4 11.5-.5 1.5 6.5-3.5 4.5q-7.83 9.17-27 7L224 190.5l-3.5-10.5-10.5 1.5-3.5 4.5-1.5-.5 3.5-6.5 1.5-.5.5-4.5 5.5-1.5-.5-2.5-1.5-.5-5-19 1-5-4.5-1.5-1.5.5 3.5-6.5 2.5-1.5-1.5-4.5-2.5-1.5-2-29 3.5-5.5 2.5.5 1.5 5.5 4.5-1.5-4-15 10-11-1.5-2.5-4.5-3.5 5.5-2.5 2 6 2.5-1.5 2.5-9.5 5.5 2.5 1.5 2.5 10-8ZM218 108l-2 5 5 1 1-4-4-2Zm42 24-2 6h5l1-4-4-2Zm96.5 30 3.5 2.5-1.5 3.5-4.5-1.5 2.5-4.5Z"/><path fill="#C78F2A" stroke="#C78F2A" stroke-width="3" d="m259.5 174 10.5 1.5-1.5 4.5-10.5-1.5 1.5-4.5Zm-54 18 4.5 1.5-1.5 4.5-4.5-1.5 1.5-4.5Zm158 0 6.5 1.5 3.5 28.5 4.5-1.5 2.5-10.5 3.5 2.5q3.11 15.61-3.5 21.5l-2.5 1.5 5 9-1.5.5-7.5-6.5-2-4 5-1 1-2q-15.31-11.69-18-36l3.5-3.5Zm-162 12 2.5 2.5v34L188.5 270l-9.5 3.5-2.5 4.5-23.5 15.5-20 36 5.5.5 17.5-9.5-1.5-2.5-3.5-2.5 28.5-37.5 7-2 6.5 3.5 1.5 2.5 3.5-2.5-.5-1.5-2.5-1.5-2-4 1.5-2.5-1.5-.5 10.5-5.5-.5 1.5-5 8 6 3-9 11 2 1-8 5-2.5 5.5-1-2-9.5 10.5q-2.42 21.08-13.5 33.5l-1-2-17.5 26.5v19l-9.5 23.5-8.5 1.5 1.5 4.5 2.5 1.5 2 27-2.5 1.5-5-6-5 2-1.5-2.5 8-16-4-3-2-5 5.5-10.5 1 2 5.5-8.5q-1.24-13.24 6-18v-13l4.5-7.5 1.5-.5-.5-1.5-2.5-1.5-2-4 9.5-16.5 1.5-.5-.5-3.5-8.5 5.5 2 1q-20.09 6.41-31 22l-3.5 6.5-1-11-1.5-.5 8-7 .5 1.5 4.5-3.5 1-2-2-1 2-6-6-9q13.99-26.01 37.5-42.5l34.5-23.5 10.5-22.5 1.5-.5-1.5-3.5-2.5.5-.5 1.5-4.5 3.5-12.5 18.5-1.5-.5 23-41 3.5-12.5ZM190 258l-10 12h3l9-11-2-1Zm-48 42-21 22 1 2-2 5 5 1 7-11-2-1-5 4 19-21-2-1Zm-13 30-3 6h3l-3 4 1 2 5-3-1-3 1-4-3-2Zm107.5-114 9.5 8.5.5-1.5 11 14 5.5 2.5-2 1 16.5 27.5 10.5 5.5-.5 9.5-5-1-.5 5.5 4.5.5 1.5-.5q-8.83 8.67-6 29l4 3 1 2-5 4 1.5 14.5 7 2 18-12-2.5 3.5 4.5 10.5 1.5.5-1.5 3.5q-10.75.25-14.5 7.5-11.83 11.67-8 39l22.5 7.5 1.5-6.5-4.5-7.5-1.5-.5 1.5-3.5 12.5-4.5.5-1.5 2.5 1.5 1.5 2.5 21 13q11.41-4.59 8.5-23.5L343.5 352l-1.5-.5 1.5-2.5 1.5-.5 3-5-25-8 2.5-3.5 5-2 6.5 3.5 1.5 2.5 1.5-.5 6.5-7.5 1.5-.5-1.5-3.5-2.5-.5-1.5-2.5-5.5-2.5 5.5-.5 10 6 1.5-2.5-6.5-9.5-5.5-2.5 1.5-3.5 3.5 1.5 1.5 4.5 4.5-2.5-13.5-14.5-8.5 7.5 3.5 5.5 1.5.5-1.5 3.5-4.5.5-.5 1.5q-12.71-9.29-17.5-26.5l13.5-21.5 17-2 37 28 9 2 5-13 2-1 1 2q16.92 5.08 26.5 17.5 6.87 23.63 24.5 36.5l1.5-.5-11-26-19-22 1.5-5.5q9.5-2 11.5 3.5l6 14-6 1 3.5 5.5 7.5 3.5 7 20v31l-7.5 9.5-5 2-5.5-3.5-.5-2.5-9.5-7.5-15.5-28.5q-13.46-1.04-18.5-10.5l-.5-1.5-3.5 1.5 6 21-2.5 1.5-23.5-16.5-.5-1.5-3.5 1.5q2.14 12.14-3.5 16.5l-2.5 1.5.5 2.5 2.5 1.5 9 12v35l-11 5-14.5 18.5-29 2-9 5-4.5-3.5-.5-1.5-3.5 1.5-1.5 2.5-2 1-4-5-4.5 1.5v25l-3.5 3.5-6.5-1.5-14-31q5.96-11.54 24-11-1.7-15.3-12-22l-1.5-18.5-4.5 1.5q-3.92 22.08-19.5 32.5l-9 2-1.5-2.5 24-27v-13q8.29-6.71 6-24l-6-16 2.5-.5 3.5 2.5 1.5 2.5 2.5-1.5 2-15-10-3-2-11 4.5-8.5 1.5-.5q-7.32-26.68-24-44 2.17-16.17-5-23l1.5-1.5ZM283 342l-1 17 5 1 1-14-5-4Zm152 18-3 6h4l2-4-3-2Zm-157 6-2 5 5 1 1-4-4-2Z"/><path fill="#C78F2A" stroke="#C78F2A" stroke-width="3" d="m240.5 264 3.5 1.5 5 10-3 1-.5 1.5q-7.45-3.48-5-14Zm146 0 3.5 2.5-.5 3.5-5.5-.5 2.5-5.5Zm-83 6 2.5.5-1.5 11.5-4.5-1.5 3.5-10.5Zm96 6 13.5 5.5-4.5 1.5-9-7Zm-166 6 6.5 1.5-7.5 8.5-9 2-1.5-2.5 11.5-9.5Zm68 6 4.5 1.5 6 20-2.5 2.5-7.5-7.5-2-15 1.5-1.5Zm-59 6 3.5 2.5-.5 10.5-4-1-5 11-4 2-.5-1.5 10.5-23.5Zm-23 7 2.5.5-4.5 12.5-1.5-.5-.5-1.5-25 13-3.5-1.5 32.5-22.5Zm-10 20 1.5 2.5-1 3 9.5 3.5 3-2-.5 1.5-3.5 5.5-27 7-9.5 7.5-2 5 4.5 7.5 1.5.5-.5 1.5-2.5 1.5-2 4 7 19 5.5 5.5 14 7 20.5-34.5 12.5-38.5 15.5 9.5 2 5-6 11q2.27 13.77-3.5 19.5l-2 1-1-2-5.5 1.5.5 4.5 1.5.5-3.5 4.5-17.5 16.5-12.5 18.5-14 7-16-21-5-2-9 5-14.5-6.5v-17l11.5-28.5 1 2 20-27 3-2 1 8 11.5-3.5.5-3.5 5 1 .5-4.5-.5-1.5 6-3Zm130 3 2.5 1.5-3.5 4.5-2.5-1.5 3.5-4.5Zm-210 31 1.5.5-16.5 21.5-1-2q-8.05 5.45-5.5 21.5l6 12-3.5 5.5-2.5 1.5 4 15-4 13 2.5.5 4.5-3.5-8.5 9.5-4.5-1.5 6-19-9.5-15.5-4.5-.5 5.5-4.5 4 5 4.5-1.5-1.5-10.5-2.5-1.5-5-16 3-1 6.5-12.5 4 1 10.5-11.5-2-1 8.5-4.5Z"/><path fill="#C78F2A" stroke="#C78F2A" stroke-width="3" d="m129.5 372 2.5.5-1.5 5.5-4.5-.5 3.5-5.5Zm-39 47 .5 1.5h-1l.5-1.5Zm355 19 4.5 1.5 6 21-4.5 1.5-7.5-22.5 1.5-1.5Zm-332 9 1.5 2.5-7 12 1.5-.5 8-5 1.5 2.5q-10.03 5.97-11 21l2.5.5 8-6 1.5 2.5-12 15v25l-6 11q3.56 19.06-4.5 26.5l-1.5.5.5 1.5 1.5.5 5.5 13.5 4.5-1.5 1.5-16.5 10.5 1.5-6 23-12.5 23.5-23.5-.5v-24l12-29v-13l6-17-9-1 9.5-18.5 2 1 9.5-11.5-6-3-.5-3.5-1.5-.5 1-2-2-3 9-4-.5-2.5-5.5-1.5 1.5-4.5 2.5-1.5 7.5-13.5Zm-23 2 .5 1.5h-1l.5-1.5Zm150 19 10.5 3.5 7 25-4.5 1.5-3-12-2.5-1.5-7.5-16.5Zm-9 1 2.5 1.5q-3.14 21.14 4 32l-3.5 6.5-1-2-11.5 4.5-1.5 22.5-4.5-1.5v-29l4.5-7.5 1.5-.5-.5-1.5-1.5-.5-4-14 3.5-4.5 12-6Zm84 5 2.5 1.5-6.5 16.5-17.5-8.5 2.5-3.5q14.5 2 19-6Z"/><path fill="#C78F2A" stroke="#C78F2A" stroke-width="3" d="m96.5 483 5.5 4.5-1.5 4.5-4 3v-12Zm205 15 4.5 1.5-2.5 4.5-3.5-.5 1.5-5.5Zm167 6 3.5 1.5 7 14-5 4 1.5 4.5 2.5 1.5 2 41 5 9-3.5 4.5-1.5.5 1.5 2.5 1.5.5 3 12-5.5.5-2-12-4.5 1.5-.5 10.5-23.5-.5-6-17v-13l12-29v-19l10.5-13.5 1.5-.5.5-3.5Zm-2.5 30-10 12 14 36 4-1q2-16-6-22v-23l-2-2Zm-350.5-12 4.5 1.5q-.61 12.39-9.5 16.5l-2.5-1.5 7.5-16.5Zm84 36 4.5 1.5-1.5 4.5-4.5-1.5 1.5-4.5Zm287 0 5.5 2.5-1.5 3.5-4.5-1.5.5-4.5Zm-419 3 4.5 8.5v30l-5.5.5-.5-37.5 1.5-1.5Zm104 3 2.5.5-3.5 4.5-2 1-.5-2.5 3.5-3.5Zm8 6 24.5 1.5 1.5 16.5 16.5 1.5-.5 10.5-41.5-.5-1.5-11.5-4.5 1.5-.5 10.5-23.5-.5 3.5-5.5 8.5-3.5-1.5-2.5-3.5-2.5 2.5-3.5 20-12Z"/><path fill="#391D00" stroke="#391D00" stroke-width="3" d="m281.5 41 .5 2.5.5 3.5 1.5.5-2.5 1.5-4-1-1.5 4.5v2l1.5 3.5 3.5 1.5-12.5.5 1.5-2.5-.5-3.5-4.5-.5 9-6 1.5-2.5 5.5-2.5.5-1.5Zm18 24 12.5 7.5 6 18v12l14.5 35.5q13.1 1.4 17.5 11.5l-2 1 1.5 5.5 4-1 1.5 7.5-1.5 7.5-15-25-6-1q-6.25 3.75-2.5 17.5l-6 12v12L305.5 207 284 218.5l-2 13 18 5-12 25 1.5 2.5q-12.57 1.57-16.5-5.5l-3-12 12-2-8.5-9.5-3.5 2.5-.5 2.5q-14.96-1.54-20.5-12.5l-6.5-11.5-8 1-7.5-13.5 1.5-2.5 11 9 25 6q25.17-7.33 39.5-25.5 12.17-12.33 8-41l11-15-13-9 2-9-13-6-1-2 8.5-1.5 3 1 2.5-3.5-4.5-2.5h-2l-7.5-.5q9.47-3.53 8-18l-9-17 2.5-1.5ZM247 216l-1 4 7 5 1 3h4v-8l-11-4ZM223.5 66l3.5.5-2.5 5.5-2.5-4.5 1.5-1.5Zm102 12 4.5 2.5-1.5 3.5-4.5-1.5 1.5-4.5Z"/><path fill="#391D00" stroke="#391D00" stroke-width="3" d="m294.5 96 4.5.5-14.5 5.5v-1l10-5Zm-58 6 4 5 3 1 2.5-1.5-1-4 4.5-.5 2.5 3.5-5.5 7.5-1-2-5 4-4-7-2.5-.5 2.5-5.5Zm43 6 2.5.5-1.5 3.5-7 2 .5-1.5 1.5-3.5 1 2 3-3Zm58 0 4.5 2.5-1.5 3.5-4.5-1.5 1.5-4.5Zm-112 6 4.5.5-8 7 3.5-7.5Zm45 4 5.5 2.5 1 5-2.5.5-4.5-1.5.5-6.5Zm-30 1 5.5 2.5-1.5 4.5-4.5-1.5.5-5.5Zm47 1 11.5 5.5-4.5.5-7.5-4.5.5-1.5Zm-24 24 7.5.5-1 10 .5 1.5-12.5-7.5 2.5 1.5 3.5-.5-.5-5.5Zm-59 5 5.5 3.5-1.5 3.5-4.5-2.5.5-4.5Zm60 13 1.5.5-9.5 5.5 2-3 6-3Zm4 0 9.5 5.5-2.5.5-7-6Zm67 6 18.5 7.5-2.5 4.5-13-5-6 5-2.5-5.5 2.5-4.5 3-2Zm-79 6 1.5.5-3.5 1.5v-1l2-1Zm19 0 6.5 3.5-.5 2.5-6.5 3.5-2.5 3.5-1.5.5-1 3 .5 1.5-6.5-3.5 1.5-6.5 10.5-4.5-.5-3.5Zm86 0-1.5 2.5-2.5 8.5-5 1 1.5-2.5 1.5-2.5 1.5-.5 2.5-5.5 2-1Zm-149 6 3.5 1.5 2 4-2 1v21l-2.5 2.5-3.5-1.5-1-5 1-21 2.5-2.5Zm153 1 2.5 10.5-8 3-5.5 8.5-1-5-2.5-.5-3-6 1.5.5 11.5-3.5 4.5-7.5Zm-144 10 2.5 4.5h-1l-1.5-4.5Zm-14 19 1.5 2.5-2-1 .5-1.5Zm159 15 5 6 3.5 2.5-3 1 .5 1.5-6.5-2.5-1-6 1.5-2.5Zm-159 1 .5 1.5h-1l.5-1.5Zm177 0 6 8 11.5 9.5-1.5 2.5-10-6-.5 2.5 9.5 8.5 5.5-4.5-6.5 5.5-14.5-15.5.5-10.5Zm-150 9 3 6 3.5 1.5 12 17-1.5.5-11-8h-2l-4 1v-18Zm150 8 2 3 6.5 5.5-2.5 1.5-6.5-1.5-2-6h2l.5-2.5Zm-49 3 14 10 10 2 3-5q6.64 10.36 22.5 11.5l-2.5 5.5-3.5-.5-2.5-3.5q-26.77-.73-41-14l-16.5 9.5q-.78 16.72-12.5 22.5l-.5-2.5 6-17-2.5-.5-7.5 6.5q12.34-16.66 33.5-24.5Zm-152 6 2.5.5-3.5 5.5-2.5-.5 3.5-5.5Zm35 0 3.5 2.5-5.5 14.5-1-11-4.5-.5 7.5-5.5Zm-21 6 .5 1.5h-1l.5-1.5Zm-24 3-19 22-1.5-1.5 20.5-20.5Zm233 2 6.5 4.5 1 7h-1l-8-10 1.5-1.5Zm-179 1 3.5.5-9 11v7L209.5 309l-7 4-.5-1.5 23.5-46.5 2-1Zm187 13 3 5 2.5 1.5-2.5 4.5-3.5-2.5-.5-1.5-3.5-1.5 4-2 .5-3.5Zm-153 5 1.5 2.5h-1l-.5-2.5Zm171 3 11.5 5.5-.5 3.5-5-3-1 2-5-8Zm-232 1 1.5.5-2.5 1.5 1-2Zm39 0 1 2 3.5 1.5 2 5-1.5-.5-4.5 1.5-3.5 4.5-8.5 3.5.5 2.5 7.5.5-5.5 11.5-2.5-.5-.5-5.5-5.5-.5.5-11.5 6.5-3.5 1.5-3.5 9-7Zm-76 1 1.5 1.5-14.5 14.5-1-2 14.5-12.5-.5-1.5Zm94 1 2.5.5-2.5 7.5-5.5-4.5 5.5-3.5Zm-66 4 1 2 5.5.5-12.5 15.5.5-1.5q-1.57-12.57 5.5-16.5Zm99 2 3.5.5-6.5 17.5-5 2-.5-2.5 8.5-17.5Zm-33 4 2.5 7.5-5.5.5-2.5-3.5 5.5-4.5Zm67 12 17.5 11.5-.5 2.5h-50l-3 3-1-3-1.5-.5 1-3-1-2 25.5-.5 12 5 1-13Zm-64 2 3.5 2.5 2 3-12.5.5v-1l7-5Zm-111 6 .5 1.5-2 1 1.5-2.5Zm42 0 2.5.5-9.5 6.5-.5-1.5 7.5-5.5Zm-69 6 3.5.5-2.5 5.5-3.5-2.5 2.5-3.5Zm60 1-1 2-10.5 9.5-.5 1.5-.5-1.5 12.5-11.5Zm179 11 4 1 2-1 1 2-2-1-.5 7.5q2 5.5 11.5 3.5l.5-2.5-5.5-6.5q2.25 11.25 18 9l4.5-3.5 1.5-8.5 5.5 2.5-6 21 8.5 18.5 3-1q-1.67 17.17 6.5 24.5v19l6 11v13l18 41v28l2.5 2.5 15-6 .5 3.5-3 2q-5.17 5.83-3 19l-3.5 4.5-12.5 8.5-1.5 3.5-.5-11.5-18-54v-51l-2.5-2.5-13-5-6 5-5-18-9.5 2.5-18.5 30.5-21 8q-7.05-7.45-23.5-5.5l43-25 11.5-21.5 20.5-9.5-2-26-25.5-25.5-2.5-.5 1.5-5.5Zm-194 3 .5 2.5-11.5 22.5-6 2-.5-3.5 11-8-5-1 5-3 1-2-3-1 2.5-4.5 1 4 3-4 1.5-.5-5-1 5.5-2.5Zm-27 3-7.5 8.5 5 7-4 3 3-4-5-6 8.5-8.5Z"/><path fill="#391D00" stroke="#391D00" stroke-width="3" d="m400.5 354 7.5 2.5-.5 8.5-7-11Zm-291 12 4.5.5-2.5 5.5-3.5-2.5 1.5-3.5Zm16 9-6 7-4 2-1.5-2.5 11.5-6.5Zm6 9 .5 6.5-5.5 10.5-1-11-5.5 3.5q1.87 14.87-6 20l2.5.5 4.5-1.5-5 3-2.5 9.5-3-5-2 1-.5-2.5 2.5-4.5 1.5-.5 2-12-3-5 3-1 .5-2.5 3 2 14-11Zm325 7 5.5 11.5-4.5 6.5-1.5-.5.5-17.5Zm-354 7 2 4 3.5 2.5-1.5 3.5-4.5-2.5.5-7.5Zm26 10 3.5 1.5-.5 4.5-5.5-2.5 2.5-3.5Zm123 0 6.5.5-.5 3.5-3.5 2.5-2 4 .5 1.5-6.5-3.5-.5-2.5-4.5 1.5-11.5 24.5-1.5-.5v-8l9.5-16.5 14-7Zm-117 12 5.5.5-3.5 4.5-4 3-.5-5.5 2.5-2.5Zm324 0-1.5 2.5 2 3-3-2 2.5-3.5Zm-171 6 6.5.5 7.5 9.5 10.5 4.5-.5 5.5-23-14-.5 2.5q8.63 6.38 6 24l-3.5-2.5-7.5 3.5-1 19 2.5 1.5 9-17 1 5 5.5 2.5-6 9v2l1 4-7 18 8.5.5 1-2 .5 1.5-20 14 6.5 9.5 7.5-6.5 10.5-16.5-2.5 3.5 6 15v21l-3.5 2.5-2.5-2.5-.5-21.5-8.5 6.5-5.5 23.5-9.5-2.5v-39l5-10-5-9v-29l5.5-9.5 3.5-2.5 3-7-6-14 5.5-3.5Zm-29 6 5 3 1.5-.5 4 8-5 2q11.2 9.3 6 35l-3.5 6.5-2.5.5-5.5 10.5-6.5-25.5 3.5 2.5 8.5-2.5-1.5-15.5-3.5.5-1.5 11.5-11.5-3.5-1-14 7-1 3.5-11.5 2.5-.5.5-5.5Zm-127 12 .5 1.5h-1l.5-1.5Zm84 0 8.5.5-2.5 3.5-36 14h-11l-9.5-5.5 2.5-.5h25l23-12Zm-69 6 3.5 2.5-2.5 3.5-3.5-2.5 2.5-3.5Zm-25 2 5.5 1.5 17 21v29l-6 12v12L126.5 563l-.5-17.5 6-11v-64l-12-3-1-11 2.5-4.5Zm109 4 6.5 5.5-5.5-4.5-3 2 2-3Z"/><path fill="#391D00" stroke="#391D00" stroke-width="3" d="M312.5 460q17.1 4.9 25.5 18.5l4 8-11.5 22.5-.5-17.5 5-9-17.5-14.5-20 12 3-4 3.5-1.5v-2l2.5-5.5 3 1 3-8Zm-90 1 2.5 1.5-16.5 11.5.5-1.5 6.5-7.5 7-4Zm-20 17 1.5.5q-1.43 12.43 5 17l-22 5 21 23 8 26-1.5 2.5-14-11-18.5 6.5-10.5 16.5 2.5-3.5 8.5-18.5 9.5-4.5-12-33 7.5-10.5 10.5-4.5 4.5-11.5Zm44 4 2 4 3.5 2.5-1.5 3.5-6.5-.5 2.5-9.5Zm-12 2 4.5 2.5 1 4-4.5 2.5-1-9Zm10 20 4.5.5-3 5 6.5.5 5-3 6.5 18.5-9.5 2.5q-6.17-3.83-3-17l-9.5 6.5-4.5 16.5-3.5-2.5-1-10q-.31-13.31 9.5-16.5l2-1Zm-20 6 3.5 1.5 1 10-1.5 17.5-3-5-2.5-.5v-21l2.5-2.5Zm105 3 .5 24.5-9.5 2.5-4.5-11.5 2-1-1-5 1.5-8.5 1 2 10-3Zm-101 28 6.5 11.5-1.5 2.5-5-14Zm98 5 3.5 2.5-2.5 3.5-3.5-2.5 2.5-3.5Zm-6 12 3.5 2.5q-1.77 18.77 8.5 25.5l33 2 9.5 6.5 3 5-29.5.5-3-6q-15.26 1.76-21-6l-10 6-2.5-5.5 6-12q-4-14.5 2.5-18.5Zm-92 4 6.5 5.5 1.5 2.5 3-1 .5 7.5-1.5-.5-4 1-6-15Zm17 1 6.5 3.5-.5 6.5-8-9 2-1Zm-104 1 2.5 6.5-1.5-.5-4 1-.5-2.5 3.5-4.5Zm-16 1 .5 5.5-12.5 29.5-5.5-.5 17.5-34.5Zm172 11 2.5 6.5-1.5-.5-4 1-.5-2.5 3.5-4.5Zm-52 3 1.5 2.5-4.5 6.5-2.5.5-.5 2.5-5.5-9.5 1.5.5 5-1 2 1 3-3Zm-90 9 .5 1.5-2 1 1.5-2.5Zm95 0 7.5 2.5-5.5 8.5-1-10-1-1Z"/><path fill="#0A0500" stroke="#0A0500" stroke-width="3" d="m293.5 47 11.5 3.5 2 10-1 4 4.5 1.5 1.5-4.5-.5-1.5 5.5 2.5 4.5 9.5 2.5.5 1 6-1 4 4.5 1.5 1.5-.5.5 6.5 3.5.5 3 18-1 4 4.5 1.5 1.5-.5v27l9 9-10.5-9.5-10.5-4.5-12-33v-12L311.5 72 276 56.5l.5-2.5 5.5-1.5.5-4.5 11-1Zm-59 6 11.5 3.5-9.5 9.5-2.5-2.5-1-9 1.5-1.5Zm-8 1 3.5.5-8 7 2.5-6.5 2-1Zm34 0 9.5.5-2.5 5.5-9.5-2.5 2.5-3.5Zm68 24 1.5.5-.5 1.5-1-2Zm-29 18 3.5.5-9 8 1.5 3.5 3.5 1.5 1.5 2.5 11.5 4.5-2.5 9.5q-15.67 1.67-22-6l-12 6 .5-1.5-.5-4.5-5.5-2.5 2.5-3.5 9.5-3.5-.5-2.5-5 3-.5-5.5 23.5-9.5Zm-62 6 8.5 1.5-.5 3.5-3 1-2.5-1.5-2.5-4.5Z"/><path fill="#0A0500" stroke="#0A0500" stroke-width="3" d="m307.5 102 4.5 2.5-2.5 3.5-3.5-1.5 1.5-4.5Zm33 6 1.5.5-.5 1.5-1-2Zm-95 3 .5 9.5-1.5-.5-4.5-1.5 1.5-4.5 4-3Zm-15 3 3.5.5-6 10 .5 1.5-7.5-.5 9.5-11.5Zm30 30 3.5 1.5-.5 4.5-5.5-2.5 2.5-3.5Zm11 0 4.5 2.5-2.5 9.5-3.5-1.5 1.5-10.5Zm61 0 8.5 3.5 14.5 26.5 4-1 1 2-1.5.5-2.5 5.5-2.5 1.5-2.5 3.5-3.5 1.5 3.5 10.5 2.5.5v7l12.5 28.5 6.5 2.5 5.5 7.5 3.5 1.5 2.5 6.5q14.6 1.9 21.5 11.5l6 8 2 9-1.5.5-16.5-5.5-7.5-11.5h-11l-15-11-3 5h-6l-18-12q-21.16 7.84-33.5 24.5l-2 40 10.5 1.5 1.5-7.5q-7.59-5.41-6-20l11.5-13.5.5 4.5-6 14 12 20v13l-2.5.5-10-5h-27l-2.5-2.5 2.5-3.5 3.5-.5 6-17-3.5-.5-2 3-.5-26.5 6-3-1.5-3.5-4.5-2.5 12-25-18-5 2.5-13.5q23.17-8.33 36.5-26.5l11.5-47.5Zm3.5 24-3 2-3 5 3 5 6-5 13 5 2-4-18-8Zm-131.5-14 1 2-1.5-.5.5-1.5Zm62 8 12.5 6.5 3 8-3.5-2.5q-18.43-3.93-26.5 2.5l-.5 3.5-5.5-2.5 20.5-15.5Zm-50 24 2.5.5 15 27v44l-3.5 6.5-7.5 3.5-21.5 45.5-17.5 10.5-.5 1.5-13.5 11.5-1.5 3.5h-2l-3 1 .5-1.5 13.5-27.5 13.5-7.5 7-10-6-1 .5-2.5 21.5-15.5 8-21-3.5-2.5-25 17 .5-1.5 16-44v-9l-5.5-10.5-1.5.5 2.5-.5 4.5.5.5 4.5 3 1 2.5-2.5.5-21.5Z"/><path fill="#0A0500" stroke="#0A0500" stroke-width="3" d="m377.5 209 .5 2.5-3.5 4.5-.5-2.5 1.5-3.5 2-1Zm-131 7 11.5 3.5-.5 8.5-3.5-.5-1.5-2.5-6.5-5.5.5-3.5Zm150 27 4 3h2l1.5.5-5.5 4.5-4-5 1.5-.5.5-2.5Zm-156 9 12.5 8.5q6.69 6.81 5.5 21.5l3.5 1.5-1.5 4.5-8.5 3.5 6 5-2.5 3.5-3.5 2.5 2.5 3.5q12.25-3.25 15.5 2.5l-2.5 9.5-3.5-2.5-2.5-3.5-19 12-.5-2.5q7.33-8.67 4-28l-3.5-5.5-2.5-.5.5-5.5 11.5-1.5-1.5-4.5-1.5-.5-9-15 .5-8.5Zm-4 18 3.5 2.5-.5 3.5-5.5-2.5 2.5-3.5Zm-58 7-.5 1.5-26.5 36.5-1.5.5-3 8 .5 1.5-13 5-.5-2.5 15.5-25.5 15.5-13.5-.5-1.5 14-10Zm264 11 1.5.5-.5 1.5-1-2Zm-203 9 .5 2.5-3.5 6.5-8.5-.5 1.5-3.5 10-5Zm45 27 3.5.5-2.5 5.5-3.5-2.5 2.5-3.5Zm81 12 12.5 9.5-.5 2.5q-9.5 2-11.5-3.5l-.5-8.5Zm-223 1-.5 1.5-10 13 5 6-14.5 20.5-8 3-.5-2.5 18-23-2.5-.5-15 5-.5-2.5q10.17-14.33 28.5-20.5Zm20 5 4.5.5-4 3-.5 1.5v-5Zm-3 6 2.5.5-3.5 4.5-1.5-.5 2.5-4.5Zm-3 6 4.5.5-4.5 2.5v-3Zm240 0 4.5 1.5q9.26 4.74 7 21l-3.5 1.5-8-24Zm-286 36 3.5 2.5-.5 3.5-5.5-2.5 2.5-3.5Zm13 0 2.5.5q1.89 15.39-5.5 21.5l-4 2-2.5-.5 9.5-23.5Zm339 9 5.5 3.5-7.5 15.5.5-1.5-4-7 5-8 .5-2.5Zm-360 7 1 2-1.5-.5.5-1.5Zm140 8 3.5.5.5 2.5 11 6 1.5-.5 5 12-3.5-2.5-2.5.5-.5 5.5-2.5.5-3.5 11.5-11.5 1.5-2.5 10.5-7-6-21.5 15.5-1.5 2.5-3.5 2.5-.5 1.5-3.5 2.5-4.5 11.5-12.5 6.5-3 11 12 28-12 7-6 16q-12.15 8.35-16.5 24.5l-1.5.5-6.5 14.5-5.5-.5v-33l-2.5-2.5-3.5 4.5-.5 31.5-23.5-.5 18-48v-12l12-36v-29L125.5 452l-5.5 1.5-.5 2.5-4.5-.5 7.5-17.5 3.5 2.5 1.5 9.5 2.5-.5 2-21 3.5-3.5 3.5-2.5 1.5-2.5 3.5 2.5q3.65 21.35 18.5 31.5l3.5 1.5 1.5 3.5 18 3 38.5-16.5.5-1.5 3.5-2.5.5-1.5 3.5-2.5q.45-16.55 10.5-23.5ZM147 450l-3 4 4 2 2-3-3-3Zm233.5-36 9.5 2.5q-3.25 12.25 2.5 15.5l7-5 14.5 7.5v51l18 54v26l12 34-65.5.5-7-9-6-3h-29l-4.5-2.5-10.5-27.5-3.5 2.5q2.29 20.79-6 31 2.75 5.25 5.5-.5l6-2 .5 10.5-71.5.5.5-1.5 5-8-7.5-2.5-8 6-2.5-5.5 4-2 6.5-13.5 1.5-.5-2.5-8.5-12.5-6.5q-12.12-9.88-9-35l5.5-.5 3 12 3.5-2.5q-2.21-15.71 7.5-19.5l4-1q-3.17 13.17 3 17l9.5-2.5q-8.37-8.63-6-28l6.5-11.5 2.5-.5q7.33-10.17 3-32l-2.5-3.5 17.5.5-5 4q-8.83 11.67-4 37l5 10-5 9v39l9.5 2.5q6.5-4 2.5-18.5l9.5-11.5 2.5.5v21l2.5 2.5 3.5-2.5v-21l-6-15 6-5-1.5-10.5-4.5 1.5-3.5 10.5-8.5-.5 6.5-17.5q12.61.89 17.5 9.5l.5 8.5 11.5 2.5q-7.28 3.72-6.5 15.5l-5.5 1.5 1.5 4.5 2.5.5 4.5 11.5 9.5-2.5v-28l12-24-15.5-18.5-14.5-7.5-1.5-3.5-4.5 1.5q2.06 11.56-3 16l.5 1.5-9 5 .5-1.5 5-8-6-3q3.83-24.33-6-35l2.5-.5 21.5 14.5 1.5 3.5q18.17-2.67 26 5l23.5-11.5 17.5-29.5ZM327 546l-3 4 4 2 2-3-3-3Zm-29 30-4 5 2 7 4-1-2-11ZM108.5 419l3.5 2.5 2 4-2.5.5-3-7Zm12 1 5.5 2.5-2.5 3.5-3.5-2.5.5-3.5Zm-2 13 1.5.5-3.5 4.5-1.5-.5 1.5-3.5 2-1Z"/><path fill="#0A0500" stroke="#0A0500" stroke-width="3" d="M230.5 462q14.92 6.58 15.5 27.5l-6 4 1.5 4.5 10.5 3.5-.5 2.5q-13.7-.7-17 9l-.5-2.5 5-10-4-7 5-3-1.5-4.5-4.5-2.5-.5-15.5-5.5-.5 2.5-5.5Zm0 96 8.5 11.5-2.5.5-4-5-4.5-3.5 2.5-3.5Zm5 18 4.5 1.5-.5 4.5-5.5-1.5 1.5-4.5Zm-5 12 8.5 11.5-10.5.5-.5-9.5 2.5-2.5Z"/></svg>