<svg viewBox="0 0 708 786" xmlns="http://www.w3.org/2000/svg"><path fill="#0276EA" stroke="#0276EA" stroke-width="3" opacity=".929" d="m312.5 60 1.5.5-7.5 9.5-.5-6.5 6.5-3.5Zm24 4 3.5 1.5-.5 6.5-3 1-.5-2.5-1-4 1.5-2.5Zm0 13 16.5 6.5-23.5.5.5-1.5-1-4 7.5-1.5Zm-30 2 9.5 4.5-4 1-11.5 16.5-4.5 2.5-2 17-5.5 8.5-11.5 6.5-.5 1.5-1-4-5 7-1-2-1.5-.5 2.5-13.5 3 2 2.5-1.5.5 7.5 5.5-2.5 6-21-2.5-.5-6.5 5.5-2.5 5.5-1-5-1.5-.5 7.5-9.5 2 1 13.5-8.5-.5-1.5 7.5-5.5 2.5-10.5Zm55 5q10.75.25 14.5 7.5l2 23 3.5 5.5 2.5.5-3 5 .5 1.5-13 5v-1l3.5-1.5 4-7-3-2 2-1q-6.56-6.94-3-24l-7.5-9.5-3-2Zm61 6 3.5 2.5-2.5 3.5-3.5-2.5 2.5-3.5Zm-117 36 11.5 5.5-5.5.5-5.5-3.5-.5-2.5Zm-12 6 4.5.5-3.5 1.5-1.5-.5-4.5 6.5-.5-4.5 5.5-3.5Zm66 4 .5 1.5-11.5 29.5-.5-11.5 11.5-19.5Zm-54 2 6.5 3.5-.5 2.5-6.5-.5 1-4-.5-1.5Zm-23 10 1 2 4-2 1 4-1.5-.5-2.5 4.5-2 1v-9Zm-12 1 4 1 1.5-.5-2.5 6.5-3.5-2.5.5-4.5Zm56 1 3.5.5-2.5 5.5-3.5-2.5 2.5-3.5Zm-56 10 5.5 12.5h-1l-4.5-12.5Zm26 8 20.5.5-10.5 5.5-10-6Zm72 0q14.72-1.72 20.5 5.5l-17 2v29l3.5 4.5 3 1 4.5-3.5 13-29-5-3 10.5-.5.5 6.5-12 23v7l-7.5 9.5-5 2-9.5-7.5-2-4v-40l2.5-2.5Zm-93 12 .5 16.5h-1l-5-9 3-2 2.5-5.5Zm72 5 .5 3.5q-3 6.5-6 1l-2-3 7.5-1.5Zm-64 1 4 2 1.5-.5 11 35 7.5 11.5 16.5 7.5 3.5 4.5 2.5-.5.5-7.5 5.5 10.5-11 7-1 3 5.5 8.5 5.5 2.5-5.5.5-17.5-8.5-2-8-16-19q5.31-27.81-8.5-36.5l-3 1-.5-11.5 1.5-1.5Zm-17 12 3.5 2.5-.5 4.5-4-1-1.5.5 2.5-6.5Zm81 6 6.5 2.5-2.5 3.5-5.5-.5 2-4-.5-1.5Z"/><path fill="#0276EA" stroke="#0276EA" stroke-width="3" opacity=".929" d="m282.5 208 5.5 4.5-6.5 3.5-.5-2.5-1-3 2-1 .5-1.5Zm-18 1 4 1 1.5-.5-.5 6.5-2.5-.5-2.5-6.5Zm8 19 3.5 2.5-.5 3.5-5.5-2.5 2.5-3.5Zm1 12 2.5.5-5.5 9.5-.5-6.5 3.5-3.5Zm205 10 1.5.5.5 1.5 1.5.5-2 3 1.5 2.5-1.5.5-.5 10.5-5.5-11.5 3-5-.5-1.5 2-1Zm-214 1 4 1 1.5-.5-2.5 6.5-3.5-2.5.5-4.5Zm95 1 4.5 1.5 2 5-7.5 9.5-21 2v-1l21.5-8.5 1-7-.5-1.5Zm-93 18 3.5 2.5-.5 17.5q-7.62-3.88-5.5-17.5l2.5-2.5Zm214 1 5.5 10.5-2.5.5-3-11Zm-223 17 1 2 3-2 2.5 6.5-1.5-.5-4.5 1.5 1.5 4.5 4-1 3 1 3-5 .5 5.5-5.5 10.5-1-5-6 1-4-1-2 1-1.5-3.5 7.5-15.5Zm55 0 14.5 12.5 3 7-8.5-7.5-3.5.5v18q7.76 5.74 6 21l-11.5 5.5-.5-9.5 6-12q-10.58-10.76-5.5-35.5Zm174 2 7.5 9.5-1.5.5-6.5-3.5.5-6.5Zm-244 28 3.5.5-3.5 5.5-3.5-.5 3.5-5.5Zm100 2 5.5 11.5-4-3-1.5-8.5Zm-88 4 3.5 1.5-3 4 .5 1.5-9 7-.5-2.5 5.5-10.5 3-1Zm-23 6 2.5.5-5.5 7.5-1-2-1.5-.5 5.5-5.5Zm123 8 6 8 3.5 1.5 1.5 3.5 6 3h76l2.5 2.5q3.25 12.25-2.5 15.5l-3.5-2.5-1.5-9.5-2.5.5-.5 1.5-3.5 2.5-9.5 15.5-.5-2.5-3.5-10.5-8.5-2.5-1.5-2.5-34-2-22.5-13.5-1.5-8.5Zm-115 14 .5 4.5-9.5 3.5v-1l9-7Zm22 2 2.5.5v14L252.5 382l-3.5 1.5-6.5 12.5-4 1-3.5-1.5 9-7 14-22-5-3 2-3-.5-1.5 7-5Zm285 3 3 4-4.5-2.5 1.5-1.5Zm-243 3 5.5.5-2.5 4.5-1-2-5 3 .5-1.5 2.5-4.5Zm-88 4 1 2 1.5.5-4.5 6.5-9 4-1-5-1.5-.5 2.5-6.5 4 1h2l5-2Zm25 2 1.5.5-9.5 5.5 2-3 6-3Zm65 1q-3.44 28.94 10 41l2.5.5q1.28 14.28-8.5 17.5L288 410.5q-3-11.5 2.5-14.5l3.5-2.5-.5-3.5-3.5 1.5-1.5 3.5-1.5-3.5 4.5-7.5 8.5-1.5 5.5-15.5Zm-7.5 23q-7 6-4 22l15 7 3-5-8-22-6-2Zm224.5-20 16.5 13.5 10 12q5.17 5.83 3 19l7.5 17.5 10.5 7.5 1.5 2.5 10.5 5.5q-2.92 14.92 3.5 20.5l2.5-1.5-2.5 7.5-3.5-2.5-11.5-24.5q-19.03-6.47-28.5-22.5l-2-23-24-29 6-1 .5-1.5Zm36 5 5.5 8.5-2.5.5-4.5-7.5 1.5-1.5Zm-370 9 3.5.5-.5 2.5-8 3 2-3 2.5-.5.5-2.5Zm300 0 8 2 31.5 25.5-2.5 2.5h-25L486 386.5l2.5-2.5Zm-69 1 1.5 3.5-12.5 17.5-.5-3.5 5.5-10.5 3.5-1.5 2.5-5.5Zm-240 6 .5 7.5-4.5 2.5-.5-1.5 4.5-8.5Zm36 3 1 2 1.5.5-3 1-4.5 6.5-.5-2.5 5.5-7.5Zm-43 6 1.5.5-.5 1.5-5.5 2.5-5.5 11.5-1-2-2.5-.5 3-5-2-1 12.5-7.5Zm8 8 1.5.5-7.5 15.5-3.5 1.5-6.5 12.5-2.5-5.5 6-12-2-1 14.5-11.5Zm33 0 2.5 3.5-3.5 2.5-1.5-2.5 2.5-3.5Zm234 0 4.5 5.5-9.5.5 5-6Zm-244 4 1 8 3.5 1.5-1.5 4.5-6.5 1.5-2.5 17.5-5.5-4.5-1.5-2.5-6.5-.5 2-5-4-1 14-12 1.5-3.5 6-4Zm-5.5 14-6 4 1 2 5-2v-4Zm268.5-12 7.5 2.5q-5.2 20.3-18 33 5.44 33.94-8.5 48.5l-3.5-.5.5-8.5 3 2 2.5-4.5v-31l18-39-1.5-2.5Zm-65 2 .5 5.5-5.5 10.5-.5-5.5 5.5-10.5Zm-180 2 .5 7.5-5.5 10.5-9.5 7.5-2.5 5.5-.5-4.5 5.5-10.5 3.5-1.5 8.5-14.5Zm193 7-.5 1.5v21l-2.5 2.5-8.5-3.5-2-4 7-1 6.5-16.5Zm-112 7 3.5.5 12 23-6.5 9.5-11.5 6.5q1.55 14.05-5.5 19.5l-1-4-11 8-.5-2.5 12-18v-13l-3.5-5.5-2.5-1.5 1.5-16.5 13-6Zm-5.5 18-3 4 4 2 2-3-3-3Zm6 12-3 6h3l3-5-3-1Zm-71.5-24 2.5.5-1.5 15.5-14.5 9.5-1.5 3.5-1.5-3.5 6.5-11.5 3.5-1.5 6.5-12.5Zm-43 8 3.5 1.5.5 2.5 2.5.5-9.5 19.5-5.5-7.5 4-2 4.5-14.5Zm205 4 8.5 1.5-1.5 2.5-10 2 .5-1.5 2.5-4.5Zm-246 12 4.5.5-1.5 3.5-1-3-5 10-.5-5.5 3.5-5.5Zm50 1 .5 5.5q-8.65 7.35-6 26l-8.5 9.5-3 2-1-2-3.5.5-2 10 4.5 1.5 1.5-.5-2.5 6.5-9.5-9.5 4-4 7.5-14.5 1 4 5.5-4.5-1.5-13.5-4 1-.5-3.5 5.5-4.5h2l8.5-6.5 1.5-3.5Zm152 5 4.5 1.5 2.5 3.5 3-2 .5 31.5h-1l-6.5-16.5-10.5 1.5q2.41 11.91-3.5 15.5l-27 7-11.5 8.5-12 15q4 14.5-2.5 18.5l-5.5-4.5-.5-1.5-1.5.5-4.5 5.5-19 12-2.5-6.5 11.5-14.5 1.5 2.5-1 6 2.5.5 9.5-8.5 23.5-32.5 12-10 13-3 9.5-7.5 5.5-16.5 8.5-3.5 1.5-2.5Zm-140 2 .5 4.5-12 23v49l2.5 3.5 2.5-1.5 6.5-10.5.5 2.5-7.5 16.5-8.5-6.5-2-4v-43l17.5-33.5Zm-48 2 1 2 3.5.5-9.5 5.5.5-1.5 4.5-6.5Z"/><path fill="#0276EA" stroke="#0276EA" stroke-width="3" opacity=".929" d="m373.5 474 4.5.5-.5 11.5-5.5 3.5.5 2.5 5.5 1.5 1.5 22.5 4.5 2.5q-1.84 16.34 7 22l-2.5.5-4.5-3.5-13.5-27.5-4.5 1.5-.5 24.5q-2.75-4.75-5.5 1.5l-1.5 2.5-9.5 3.5-13 20-1.5 12.5-16 14-.5-2.5q15.25-14.75 20-40l11.5-11.5 10.5-3.5.5-24.5 3.5.5q.47-21.53 9.5-34.5Zm-230 2 1 4 1.5.5-3 1-3.5 5.5-.5-2.5 4.5-8.5Zm3 10 3.5.5-2.5 5.5-3.5-2.5 2.5-3.5Zm268 0 17.5 6.5 2 5-3.5.5-14-6-2.5 1.5.5-7.5Zm-271 7 .5 5.5-5.5 10.5-.5-4.5 5.5-11.5Zm150 5 .5 5.5-5.5 10.5-1.5-3.5 6.5-12.5Zm111 0 3.5.5-3.5 5.5-2.5-.5 2.5-5.5Zm7 11-3.5 4.5-2.5 8.5-7-6q-5.75 3.25 1.5 6.5l7 15-5 9 6 14-3.5 2.5-6.5-4.5-2-4-1-4 4.5 1.5 2.5-.5-6-8v-16l-6-12 3.5-5.5 18-1Zm-270 1 1.5.5-4.5 9.5-.5-6.5 3.5-3.5Zm128 1 1.5 4.5-3.5 5.5-7 1 1-2 5.5-3.5 2.5-5.5Zm12 8 .5 2.5-1.5 4.5-8 3 9-10Zm-36 7 .5 17.5-11.5 2.5-.5-2.5 4.5-5.5 1.5-.5-1.5-3.5-10.5-2.5 1.5-3.5 16-2Zm-99 2 3.5 2.5-2.5 3.5-3.5-.5 2.5-5.5Zm25 0 2.5.5-.5 6.5-4-1-1.5.5 3.5-6.5Zm51 0 4.5.5-12.5 5.5 2-3 6-3Zm-79 7 .5 11.5-1.5-.5-9.5-.5 10-5-2-1 2.5-4.5Z"/><path fill="#0276EA" stroke="#0276EA" stroke-width="3" opacity=".929" d="m366.5 541 11.5 32.5h-1l-11-21 .5-11.5Zm-218 9 1.5.5.5 1.5 1.5.5-8 6-3.5 5.5-2.5 1.5 1 4-5.5.5-1.5-3.5 6-8v-2l3.5-4.5 3-1h2l2-1Zm236 28q8.08 7.42 5.5 25.5-3.25 5.75-6.5-1.5l-1.5-.5-.5-1.5-3.5 1.5 1 6-1.5 2.5-4.5-9.5 11-8 .5-14.5Zm-254 10 7.5 2.5-2.5 3.5-3 1-2.5-1.5 1-4-.5-1.5Zm175 14 .5 3.5-5.5 10.5-6.5 3.5 11.5-17.5Zm-167 2 5.5 2.5-9.5 11.5-4.5-.5 2.5-6.5 4 1 2-8Zm246 12 1.5.5 5.5 19.5 2.5-.5.5-1.5 5-4 2.5 2.5v24l-7.5 3.5 1.5-2.5-2.5-14.5-1.5.5-2 15 .5 1.5-6 3-1-3-5.5-.5 6-18q-7.24-4.76-6-18l3.5-5.5 2.5-.5.5-1.5Zm-96 8 3.5.5-13.5 5.5v-1l10-5Zm-134 1 .5 1.5-8.5 9.5q-7-4.5 4-9l4-2Zm-18 1 1.5 52.5-5.5 10.5-.5-43.5 5-4-5-10 4-3 .5-2.5Zm136 4 4.5.5-1 3 11 14-5 1-.5 7.5-11.5-17.5v-6l2.5-2.5Zm79 12 7.5 3.5 4.5 8.5 2.5 1.5 3.5 10.5 7.5.5-8.5 4.5q-6.73-8.27-25-5-2.87 15.62-15 22l-5 2-11-9-1.5.5-5-11 5.5 4.5 5.5 2.5 3.5 5.5 1.5-.5 11.5-22.5 12.5-7.5 5.5-10.5Zm4.5 12-2 5 6 1v-4l-4-2Zm262.5 11 4 1 1.5-.5 2 6-2 1 5.5 10.5 1-3 1.5 3.5-2 1 1.5 5.5 4-1 .5 4.5-3.5 2.5-14-31Zm-342 1 5.5 2.5-2.5 3.5-3.5-2.5.5-3.5Zm327 12 12.5 7.5q9.83 7.67 8 27h-1l-5-17-8.5-11.5-6.5 5.5-3 6-1.5 48.5-2.5 1.5-2 17 3.5 5.5 2.5 1.5 3.5 10.5 2.5 1.5-.5 4.5-11.5-.5q2.12-16.62-6-23v-25q10.41-10.59 6-36l9.5-23.5Zm-472 13 .5 23.5-6 11v37l6 12-6.5 11.5-17.5-.5v-18l12-23q-2.29-17.29 6-24v-19l5.5-10.5Zm493 24q10.48 12.02 5.5 39.5h-1q-10.13-12.63-4.5-39.5Zm-364 17 9.5 9.5-2.5 2.5-2.5 1.5 17 26-10 4-1.5 3.5-.5-18.5q-7.31-7.69-7.5-22.5l-4 1-.5-4.5 2.5-2.5Zm370 31q7.56 6.44 5.5 22.5l-5.5.5v-23Zm-358 17 3.5 2.5-.5 3.5-5.5-.5 2.5-5.5Z"/><path fill="#78C2F2" stroke="#78C2F2" stroke-width="3" opacity=".965" d="m315.5 60 12.5 5.5-15.5 1.5-.5-3.5 3.5-3.5Zm14 24h15L358 97.5l5.5 16.5 2.5 1.5v7L348.5 148l-.5-10.5 12-18L341.5 93l-12-3-15.5 13.5-2.5 16.5-5.5-2.5 2-14L325.5 86l4-2Zm105 24 3.5 2.5-2.5 3.5-3.5-2.5 2.5-3.5Zm-161 6 2.5.5-2.5 5.5-2.5-1.5 2.5-4.5Z"/><path fill="#78C2F2" stroke="#78C2F2" stroke-width="3" opacity=".965" d="m326.5 132 9.5 2.5 6 20h-1L329.5 134l-3-2Zm-49 18 4.5 1.5-.5 22.5-5.5-3.5 1.5-20.5Zm56 6 2.5.5-1.5 3.5-3 1 .5-1.5 1.5-3.5Zm41 0 3.5 2.5-2.5 3.5-3.5-.5 2.5-5.5Zm-32 5 4 1 1.5-.5-.5 13.5-4-1-1.5.5.5-13.5Zm-12 1 1.5.5-2 1 .5-1.5Zm-41 6 14.5 5.5-4.5.5-10-6Zm35 0 1.5.5-11.5 5.5v-1l10-5Zm-36 4 8.5 7.5 21.5 33.5 12 3h2l1.5.5q-3.6 7.4-16.5 5.5l-11.5-7.5-17.5-42.5Zm41 9q-2.03 16.03 7 21l3.5 1.5-4.5.5-8.5-5.5-3-7 5.5-10.5Zm-53 9 5.5 3.5-1.5 4.5-4.5-1.5.5-6.5Zm-10 14 3.5 2.5-2.5 3.5-3.5-2.5 2.5-3.5Zm75 0 6.5 2.5-6.5 4.5.5-3.5-.5-3.5Zm6 48 6.5 1.5-7.5 8.5-14 2-2.5-3.5 5.5-4.5 1 2 11.5-1.5-.5-4.5Zm147 18 3.5 2.5-2.5 3.5-3.5-2.5 2.5-3.5Zm-7 18q13-3.5 16.5 2.5l-6.5 9.5-8.5-6.5-1.5-5.5Zm43 42 6.5.5 3 9-2.5.5-6.5-4.5-2-4 1.5-1.5Zm-281 6 1.5.5-10.5 15.5-1-4-1.5-.5 7.5-9.5 4-2Zm255 12 9.5 5.5 1.5 3.5 5.5 2.5-2 1 2.5 4.5 1-4 2.5 4.5-2.5.5-18.5-15.5.5-2.5Zm-272 4 1.5.5.5 1.5 1.5.5-6.5 4.5-1.5-2.5 2.5-3.5 2-1Zm91 2 10 5 13-5 1.5 7.5-2.5-1.5-3.5.5-.5 5.5-20-6q-7.19 6.81-3.5 24.5l12 18-5.5 10.5-3-17-3.5-1.5-6-23 9.5-16.5 2-1Zm37 0 22.5 11.5-5.5.5-12-6-5 3v-9Zm-154 6 3.5.5-2.5 5.5-3.5-2.5 2.5-3.5Zm13 0 2.5.5-3.5 5.5-1.5-.5 2.5-5.5Zm327 1 5 8 1.5-.5 6 17-1.5.5-11.5-8.5-1-6v-2l-1-3 2-1 .5-4.5Zm-14 4 9.5 6.5-2.5.5-7.5-5.5.5-1.5Zm-147 1 16.5 7.5 6 23-20 46-13.5 13.5-2.5-1.5-1.5-2.5-17-2-35 12q2.41-18.91-4.5-28.5l9.5-18.5.5 23.5 6.5 8.5 6 3q13-11 42-6l9.5-7.5 8-22v-37l-7.5-9.5-3-2Zm-187 6 1.5.5-7.5 5.5-.5-2.5 6.5-3.5Zm53 0 .5 2.5-5.5 3.5-.5-2.5 5.5-3.5Zm-53 11-.5 3.5.5 3.5 1.5.5-8.5 6.5.5-3.5-.5-3.5-12 10 8.5-9.5.5-1.5 10-6Zm33 7 2.5.5-5.5 9.5-10 8-2.5-1.5 3-4-.5-1.5 3.5-1.5.5-3.5 9-6Zm321 3 2 3-3.5-1.5 1.5-1.5Zm-367 6-7.5 8.5-.5 1.5-31 29-.5-2.5 3.5-7.5 4-2 2.5-1.5-1.5-4.5-4 1 .5-1.5 2.5-5.5 2.5.5 1.5 5.5 4.5-1.5 6.5-13.5 7-4 .5 1.5-2 5 2.5.5 9-9Zm100 3 2.5 3.5-5.5 7.5-1-5-12 7-3.5-1.5 19.5-11.5Zm273 1 3 6 5.5 4.5 4 8-7-4q-7.83-3.93-5.5-14.5Zm-295 14 .5 3.5-5.5 8.5-1.5-2.5 4-6-2-1 4.5-2.5Zm182 3 10.5.5-1.5 3.5-10 2-.5-4.5 1.5-1.5Zm-28 6 8.5.5-5 9 11 18v36l-2.5.5-13.5-11.5-2-15h1l8.5 10.5 2.5-1.5q1.99-16.49-6.5-22.5l-3.5 1.5-1.5 3.5-.5-22.5 3.5-6.5Zm-166 9 1.5 2.5-19.5 34.5-1.5-.5 2-1 17.5-35.5Zm18 0 1.5 2.5v2l4.5 7.5 1-2q8.77 8.73 5.5 29.5L262.5 508l-22 14h-13l-23 12-.5-16.5h1l5.5 10.5 5.5-2.5 5.5-6.5 15.5-9.5 10.5-15.5 13.5-8.5 3-5v-25l3.5-5.5 2.5-.5-5-9 4.5-5.5Zm313 1 4 2 1.5-.5-1.5 18.5-4.5-1.5-1-17 1.5-1.5Zm-405 2 2.5.5-.5 2.5-7 3 1-2 1.5.5 2.5-4.5Zm-36 24 2.5.5-5.5 10.5-.5-4.5 3.5-6.5Zm84 6 2.5.5 1.5 4.5 1.5-.5-.5 1.5h-5L212 487.5l-7.5 15.5-.5-5.5 15.5-24.5 6-5Zm90 0 2.5.5q1.32 12.82-7.5 15.5l-10 4-.5-2.5 15.5-17.5Zm-180 6 2.5.5-5.5 7.5-.5-1.5 3.5-6.5Zm226 0 4.5 1.5-1.5 16.5-4.5-1.5 1.5-16.5Zm25 0q12.25-3.25 15.5 2.5 3.25 12.25-2.5 15.5l-13 6-2.5-2.5v-19l2.5-2.5Zm-254 29 4 1 1.5-.5-.5 26.5-5.5-5.5.5-21.5Zm38 31 3.5 2.5-1.5 13.5-3.5 1.5 4 1-4 3-1 2 2 1-6.5 4.5.5-1.5 6.5-27.5Zm-41 12 4.5.5-2 5v2l1 4-3.5.5-2.5-7.5 2.5-4.5Zm10 0 4.5 2.5-.5 3.5-7.5-.5 3.5-5.5Zm461 0 5.5 2.5-2.5 3.5-3.5-2.5.5-3.5Zm-460 18 3.5.5-2.5 5.5-3.5-2.5 2.5-3.5Zm223 0 6.5 1.5 2 11-3.5 4.5-7 1-1.5-12.5 3.5-5.5Zm-209 13-.5 1.5-9.5 17.5-1-8-2.5-.5 13.5-10.5Zm181 11 16 5 6-4q21.28 8.72 14.5 45.5l-2.5 1.5-12-23-1.5.5-16.5 21.5-1.5-.5-4-10 13-4 1-3-3.5-5.5-2.5.5-2.5 4.5-7.5-6.5-3.5-10.5-9.5 3.5-3.5 8.5-8.5 3.5-1 19 16.5 1.5 6-12 3.5.5-2 18-8.5 10.5-27.5-12.5 11.5-32.5 9.5-7.5 2.5-5.5 1 2 17-9Zm2.5 12-2 2 2 9 4 1v-10l-4-2Zm-203.5 6 3.5 2.5-2.5 3.5-3.5-2.5 2.5-3.5Zm0 12 3.5.5-.5 5.5-5.5-2.5 2.5-3.5Zm-6 18 3.5 2.5-1.5 7.5-3.5 1.5 2 1-3 5 2 1-3 1-4.5 9.5-.5-4.5 8.5-24.5Zm166 24 10.5 5.5-4.5.5-6.5-3.5.5-2.5Zm324 0 5.5 2.5-2.5 3.5-3.5-2.5.5-3.5Zm-501 6 2.5.5.5 5.5 5.5 1.5v17q-8.29 6.71-6 24L102.5 761l-.5-11.5 12-29q-2.29-17.29 6-24v-18l-8-1 5.5-11.5Zm513 18 5.5 2.5-2.5 3.5-3.5-2.5.5-3.5Zm-22 13 7.5 6.5 2 21h-1l-6.5-16.5-2.5 1.5-2.5 21.5q-7.05-5.45-5.5-19.5l8.5-14.5Zm28 5 5.5 2.5-2.5 3.5-3.5-2.5.5-3.5Zm-541 8 .5 16.5-1.5-.5-4.5-3.5 5.5-12.5Zm0 21 .5 12.5-3.5 5.5-4 1-.5-2.5 5.5-15.5 2-1Zm511 2 7 9 4 2 1-5 5.5 10.5v19q7.6 3.9 6 17l-5.5.5-5-7-1.5-.5-3.5-10.5-2.5-1.5q2.14-12.14-3.5-16.5l-2.5-1.5.5-15.5Zm-521 20 1 3 3.5.5-.5 10.5-5.5-12.5 1.5-1.5Zm16 10 .5 22.5-5.5.5-.5-12.5 5.5-10.5Zm142 5 8.5.5 6 17-22.5.5-.5-1.5 8.5-16.5Zm-.5 6-3 3 1 3 4-2 1-3-3-1Zm-153.5-5 .5 15.5h-1l-2.5-4.5-2.5-1.5 1.5-4.5 2.5-1.5 1.5-3.5Z"/><path fill="#002E6C" stroke="#002E6C" stroke-width="3" d="m320.5 60 10.5.5-1.5 4.5-9-5Zm24 0 4.5.5-2.5 5.5-4.5-1.5 2.5-4.5Zm-39 4 1.5 7.5-2.5 1.5-4.5 2.5.5 2.5 3.5 1.5 2 5-1.5-.5-4.5 1.5-2.5 4.5-5.5 4.5-.5 2.5-12 5 .5-1.5 1.5-3.5 1 2 5.5-8.5-2-1L305.5 64Zm93 2 3.5 2.5-2.5 3.5-3.5-2.5 2.5-3.5Zm-80 12 5.5 1.5-2.5 4.5-3.5-.5.5-5.5Zm50 0q9.82 7.18 27.5 6.5l1.5 3.5 3.5 1.5-2 1 9 24 1 15 17 33v36l2.5 5.5 3.5 1.5 1.5 10.5 4.5.5-2.5 10.5-3.5-2.5-3.5-7.5-2.5 16.5-11.5 29.5-1-2-48 27h-29l-4.5-2.5-4.5-9.5-3.5.5-2.5 4.5-5.5-3.5-.5-1.5-5.5-4.5-.5-1.5-3.5.5-3.5 5.5-12.5-24.5 4.5 3.5 11.5 5.5.5 6.5 23 9h26l7.5-5.5-.5-1.5 7.5-5.5 2-10-6-4 33-27 2-4-1.5-2.5-3.5-1.5 1.5-10.5 2.5-.5 8-22v-13l-5-1 9-6 1-9-9.5-8.5-31.5-.5 1.5-5.5 28.5-1.5-8.5-10.5-19 6v-1l19.5-11.5 1-3-5-5q2.87-18.87-6.5-25.5l-15-8ZM387 241l-2 3 3 1 1-2-2-2Zm-8 11-1 3 4 2 1-2-4-3Z"/><path fill="#002E6C" stroke="#002E6C" stroke-width="3" d="m366.5 132 4.5.5-8 5-8.5 14.5-.5-1.5 6.5-15.5 6-3Zm-43 2 5.5 3.5-2 1 3 5-3.5 6.5-2 1-1-7-5 2-1.5-2.5 1-4-.5-1.5 6.5-.5-.5-3.5Zm-18 10 6.5 1.5-1.5-.5-16.5 8.5 1.5 12.5 3.5 1.5-4.5.5-6.5-3.5q-2.75-11.75 3.5-14.5l14-6Zm66 12 1.5.5-4.5 5.5-8.5 1.5q-.69 10.19 6 13v26h-1l-5.5-16.5-8.5 5.5 2 1-5 3-.5 4.5-4.5-1.5 4-1-5-3 .5-3.5 3 1 8.5-10.5q-2.72-14.22 3.5-19.5l14-6Zm6 0 6.5 2.5 1 9-1.5-.5-5.5-2.5-.5-8.5Zm-60 5 8.5 1.5-8.5 5.5.5-1.5-2-4 1.5-1.5Zm128 19 4.5 2.5-.5 9.5-5.5-3.5 1.5-8.5Zm-180 9 2.5 3.5-3-2 .5-1.5Zm5 10 5 7 1.5.5 1 3-2 1-1.5 5.5-4.5-1.5.5-15.5Zm85 12 6.5 4.5-2.5.5-10.5-.5 5-2 1.5-2.5Zm-19 5 4.5.5-10 5 2 1-2.5 4.5-1.5-3.5 1.5-4.5 6-3Zm111 0 2.5 1.5 6 19-4.5 3.5-6.5-19.5 2.5-4.5Zm-177 3 4.5 2.5 1 3 2 3-7.5 1.5v-10Zm64 9 2.5.5-1 4 4.5 1.5 1.5-4.5-.5-1.5q17.15-3.15 24.5 3.5l.5 2.5 2.5.5-9 14 5 3-19.5.5-12-18-1.5-.5-2-4 1.5.5 3-2Zm22.5 1-2 1-6 8 1 1 7-4-1-1 4-2v-2l-3-1Zm-14 11-1 4 17 2 1-5-17-1Zm119.5 0 2.5.5-3 5 2.5.5 1-2 1.5 2.5-8.5 4.5-2.5-7.5 6.5-3.5Zm-184 6 3.5.5q3.5 13-2.5 16.5l-3.5-2.5-.5-2.5-3.5 1.5-1.5 3.5-.5-5.5 5.5-10.5 3-1Zm193 12q5.5 3 2.5 14.5h-1l-1.5-2.5-3.5.5 3.5 5.5 5.5.5 3 13 6.5 8.5 3.5 1.5-2.5 1.5-7-4-1 2-17.5-38.5 2 1 .5 2.5 3.5-.5 3.5-5.5Zm-201 13 5.5 17.5-5.5 10.5v-28Zm38 5 5.5 4.5-.5 1.5-7 1-.5-5.5 2.5-1.5Zm10 10 9.5 8.5 3 6-1.5 3.5-11.5-13.5.5-4.5Zm-58 8 3.5 2.5-2.5 3.5-3.5-2.5 2.5-3.5Zm46 1q8.77 8.73 5.5 29.5l-5.5 10.5v-40Zm185 7 6.5 9.5-6 1-.5 1.5-5.5-7.5 6-1-.5-3.5Zm-237 4 3.5 2.5-2.5 3.5-3.5-.5 2.5-5.5Zm82 3 2 3-3.5-1.5 1.5-1.5Zm6 7q5.8 13.2 24 14l9-5q6.63 15.37 27 17l24-12h17l18.5 8.5 2.5 3.5 27.5.5 5.5 8.5 5.5 2.5-2 1 8 5-6.5.5-12-5-3.5 1.5.5 1.5 8.5 4.5 2 9-10.5.5-2-4-9.5-4.5-4.5-7.5-9.5-4.5-2.5-9.5h-33l-6.5 2.5-1.5 3.5-4.5-1.5-.5-2.5-5.5 1.5-1.5 2.5q-11.29-1.29-14 6l-8-6q-20.66 3.66-27.5-6.5l-8.5-14.5-1.5.5-4.5-9.5-1.5-.5 1.5-1.5Zm-92 3 1.5.5-17.5 30.5-1-2-8 6 2.5-3.5 5.5-10.5 1 2 3.5-1.5 2-4-2-1 8.5-14.5 4-2Zm13 10 .5 1.5-2.5 4.5-5 1-.5-2.5 5.5-3.5 2-1Zm13 7 5.5.5v12L269.5 370l-1.5-.5 2-1q-2.65-18.65 6-26l-2.5-.5-6.5 5.5.5 1.5-23 12-.5-1.5 2-5-2-1 1.5-3.5 1 2 5-9 1 5h6l18-12Zm23 15 1.5 2.5-8.5 24.5-2.5.5-5.5 17.5-9.5 3.5-1.5 3.5-15 11-1-6-3.5 1.5-4.5 11.5-9.5 4.5-.5 1.5-1.5-2.5 10-9 15-29-2.5-1.5-12.5 11.5 17-14 2.5-4.5q13.9-1.6 18.5-12.5l1.5-4.5 1 2 11-12Zm-86 9 2.5.5-3.5 5.5-2.5-.5 3.5-5.5Zm11 6-2 3-1-2 3-1Zm33 10 1 2 4.5.5-3.5 2.5-3 1-3 1 .5-1.5 3.5-5.5Zm-5 8 2.5.5-3 2 .5-2.5Zm188 1 15 11 3-11 1.5.5 2 16-10.5.5-2-4-9.5-4.5-1-5 1.5-3.5Zm30 0 9.5 7.5 14.5 33.5 3.5 2.5-.5 3.5-11.5-7.5-2.5-10.5-15.5-8.5 2.5-20.5Z"/><path fill="#002E6C" stroke="#002E6C" stroke-width="3" d="m245.5 399 1 2-3.5.5 2.5-2.5Zm-5 3 1.5.5-3.5 4.5-4 3-.5-1.5 2.5-4.5 4-2Zm-55 4 .5 2.5-11.5 22.5-.5-4.5 11.5-20.5Zm-20 14 1.5.5-4.5 9.5-4 2-2.5-.5 9.5-11.5Zm341 0 3.5 1.5 2.5 4.5 15.5 8.5q.12 11.87 8.5 15.5l3.5 1.5-.5 10.5-4.5 2.5 7.5 9.5 3.5 2.5-5 13 9 5 2.5 9.5 2.5.5q5.87 7.62 3.5 23.5l2.5.5 3 6v35l6 9-5 11 2.5 4.5 2.5-.5.5-5.5 5.5 1.5-.5 4.5-5.5.5.5 2.5 11.5 5.5 2.5 3.5 3.5 2.5 2.5 3.5 3.5 1.5-.5 4.5-15-11-1.5 2.5 11.5 17.5 11.5 5.5 6 12v9l-12 35v23l-9.5 14.5-2.5-.5-.5-5.5-3.5 1.5-2.5 21.5q-9.11-9.39-5.5-31.5l15-9 9-24-6.5-.5-9 5-14.5-23.5-6-18v-36l-8.5-23.5-3.5-1.5v-29l-5.5-7.5-1.5.5-5-10-2.5-18.5-3.5-1.5-2.5-16.5-3.5-1.5-9.5-27.5-10 4-14.5-7.5-5.5-8.5-20 28-.5-21.5 10-4 4.5-7.5 9-2 4.5 2.5 9.5 15.5 2.5-1.5 2-16-5-10 2.5-1.5 11 16 1.5-.5 2-10-12-16v-6l2.5-2.5Zm43.5 84-3 5 1 6h2l2-10-2-1Zm6 24-3 5 1 6h2l2-10-2-1Zm41 115-2 3 3 1 1-2-2-2ZM167.5 434l2 4 2.5.5-4 2-2.5 3.5-3.5-2.5.5-3.5 3.5-.5 1.5-3.5Zm60 2 1.5.5-12.5 23.5-4.5 2.5-1.5 3.5-3 2 2.5-3.5-.5-2.5-5 2-.5-1.5 5.5-10.5 1 4 11.5-8.5-.5-3.5-7.5-.5 1.5-3.5 4-2 8-2Zm-75 2-2.5 3.5.5 2.5 1.5.5-9.5 5.5 1.5-2.5.5-4.5 3 1 2-4 3-2Zm37 0 2.5 5.5-4 1-1.5 3.5-2-4-2.5-.5 7.5-5.5Zm-15 17 1.5 1.5-8.5 8.5-7 4-3.5-1.5 17.5-12.5Zm-19 5 .5 2.5-5 11-1.5 3.5-4 2 .5-1.5 9.5-17.5Zm21 4 9.5 7.5-10 3-1.5 3.5-3-4-1.5-.5 4-2 2.5-7.5Zm24 10 3.5.5-3.5 5.5-2.5-.5 2.5-5.5Zm-39 6 2.5.5-9.5 5.5 2-3 5-3Zm6 4 .5 2.5.5 5.5 1.5.5-4 5 2.5 4.5 3-4 4.5.5-7.5 9.5-1-4-3 1 1.5-2.5 1-3-1.5-.5-14 5v-1l10.5-7.5q-1.5-10 5.5-11.5Zm295 7 3.5 2.5-2.5 5.5-1.5.5v6L451.5 524l-5 3-8-5-4 12-2 1-.5-22.5q4.25-6.75 8.5 3.5l3.5.5 1.5 5.5 8.5-7.5 8.5-23.5Z"/><path fill="#002E6C" stroke="#002E6C" stroke-width="3" d="m474.5 492 5.5 1.5-.5 4.5-3.5-1.5-1.5-4.5Zm-313 16 1.5.5-6.5 12.5-.5-2.5-.5-2.5-6.5.5 1.5 5.5 1.5-.5-2.5 7.5-6.5-1.5 2-1 4-9-1.5-.5-3 2-1-3-3 6-2 1 .5-1.5 4.5-9.5 1 4 5.5-1.5-1-4 12.5-2.5Zm22 8 2.5.5-.5 30.5-3-1-1 2-2.5 1.5-.5 1.5-1.5.5-2.5 5.5-.5-8.5 6-7q-3.32-17.83 3.5-25.5Zm-15 2 3.5 7.5-1.5 2.5-8 3 3.5-4.5 2.5-8.5Zm153 11 6.5 1.5 2 16-5.5 10.5q2.88-16.37-4-23l-6 2v-1l1.5-.5 1.5-3.5 4-2Zm-160 3 .5 2.5-5.5 7.5-.5-3.5 5.5-6.5Zm-12 1 .5 1.5-5.5 7.5-.5-1.5 3.5-6.5 2-1Zm15 7 3.5 2.5-.5 4.5-3-1-2 4-.5-7.5 2.5-2.5Zm280 0 5.5.5-1.5 5.5-4.5-1.5.5-4.5Zm-139 3 2.5.5-11 26-15.5 15.5-42 15h-9l-5-10-6-1-3.5 2.5-.5 2.5-23.5-21.5-6-19h1l6.5 16.5 10.5.5 2.5 9.5 5 1 16-5 4.5 2.5 4.5 13.5 5 1q10.16-7.34 28.5-6.5l22.5-24.5 2.5-1.5 10.5-17.5Zm126 2 .5 6.5-8.5 16.5-27.5 14.5 1 7-1.5 2.5-5.5-15.5 2.5-4.5 15-2 9.5-6.5 2-7-1.5-4.5-2.5-.5 2.5-5.5 2.5.5.5 3.5 3 1 8-6Zm-264 5 .5 1.5-5.5 10.5-.5-4.5 5.5-7.5Zm-12 8 .5 1.5-2 1 1.5-2.5Zm168 1 .5 6.5-5.5 9.5-.5-5.5 5.5-10.5Zm-176 5 4.5.5-3 1-2.5 4.5-1.5-.5 2.5-5.5Zm18 12 2.5.5-.5 6.5-2-1-6.5 5.5 6.5-11.5Zm251 1 9.5 8.5-.5 2.5-5.5-2.5-5-7 1.5-1.5Zm-101 4-16 17-3.5 1.5-14 16 .5 2.5 5.5.5-.5 2.5-23.5 6.5.5 2.5 5.5.5-2.5 5.5-9 1-.5-6.5 6.5-9.5q29.74-15.76 51-40Zm-150 5 .5 1.5-1.5 2.5-.5-1.5 1.5-2.5Zm-4 3 1 3 1.5-.5-8 20 5.5.5 1-3 7-2 2.5 1.5 8 22v53L167.5 715l-3.5-1.5-2.5-65.5-2.5-.5-3-12 3.5-5.5 2.5.5.5 17.5 2.5-.5q5.83-7.17 3-23l-4.5-8.5-5-3-6 11-2.5-.5-.5-11.5-5 3-.5-2.5 5.5-10.5 1.5.5 10.5-13.5Zm237 4 7.5 8.5h-1l-6.5-8.5Zm-93 4 .5 2.5-3.5 6.5-2.5-.5 5.5-8.5Zm103 6 12.5 20.5-16.5.5-2.5-5.5 12-1-1.5-5.5-2.5-.5-3-6 1.5-2.5Zm17 21 5.5.5-3.5 6.5-1.5.5.5 10.5 8.5-6.5.5-1.5.5 1.5-21.5 18.5-.5-2.5 12-26-.5-1.5Zm14 0 4.5 1.5-1.5 7.5.5-1.5-.5-1.5-4 3-2.5-.5 3.5-8.5Zm-217 6 4.5.5 5.5 7.5 22 15 4-12 3.5 1.5 2 14-6.5 10.5-3.5-1.5-1.5-2.5-3-2-6 9-7 2-8.5-17.5q2.26-18.18-5.5-24.5Zm254 1 7 4 6-4 2.5 10.5-2.5 4.5-13.5 4.5-2 9 3.5 5.5 10-4 2.5 1.5 2 24-3.5 2.5-5-15-5-1-2.5 1.5-2 16 6 9-3.5 2.5-13.5-19.5 4-7-10-6 19.5-38.5Zm-35 3 .5 1.5-8 7 7.5-8.5Zm-13 20 .5 1.5h-1l.5-1.5Zm-3 3 2.5.5-2 32-14.5 17.5-11-4-2.5 1.5-4.5 8.5-6-4-2.5 7.5 9.5 17.5 5 3 18.5-12.5 20.5-31.5 11-6 1 3 5-1 .5 2.5-11.5 19.5-1.5-2.5 4.5-6.5 2.5-1.5-.5-4.5-8.5 6.5-9 17 2.5.5 5.5-2.5-8 20 2.5 4.5 25 13 18-10 7.5 18.5-10.5 22.5-7.5-1.5-1.5-3.5-1.5.5-2.5 4.5-5.5-.5 2.5-9.5 7.5-4.5 2-15-2.5-.5-25 17-6-4-3 17-83.5-.5-1.5-5.5-4 1h-2l-3.5 2.5-.5 2.5-12.5-.5-.5-5.5-5.5.5-.5 5.5-17.5-.5-6-14v-15l-8.5-18.5-3.5-1.5-7.5-22.5-16 7-.5-49.5 1.5.5 16.5 8.5q2.38 13.13 12.5 18.5l29.5 6.5q-1.37 19.37 12.5 23.5l27 8 2.5-16.5-5-14 1.5-2.5 26.5-10.5-4-12 7.5-8.5 1.5.5 4.5 8.5 9 2 4.5-2.5 19.5-24.5ZM277 708l-1 4 6 2v-2l-5-4Zm46 31-3 1-8 11 2 21 9 2 1-24 5-9-6-2Zm92 5-3 1-6 10h-1l-5-9-1-1-2 4 8 13 9-3 1-4 2 1 3-8-5-4Zm-56 1-2 1-3 5 8 22h2l2-5-2-21-5-2Zm63 5-2 2 1 4 5-3-4-3Zm23 0-6 10 3 1 8-9-5-2Zm-48 12 1 18q11 2 15-3l-8-3-3-9-5-3Zm14 6-3 3 2 3h4l-3-6Zm12 7-2 3 3 1 1-2-2-2Z"/><path fill="#002E6C" stroke="#002E6C" stroke-width="3" d="m270.5 666 2.5.5 3 8-3-2-2.5-6.5Zm236 1 2.5 1.5-.5 1.5-3.5-.5 1.5-2.5Zm-204 18 2.5 1.5-1.5 2.5-2.5-1.5 1.5-2.5Zm-149 17 2.5.5-3.5 10.5-2 1-.5-5.5 3.5-6.5Zm287 12 .5 1.5h-1l.5-1.5Zm8 1 5.5 1.5 2 21-2.5 4.5-5 1-2.5-1.5-2-21 2.5-4.5 2-1Zm-281 4 .5 19.5-23.5 47.5-5.5-.5 12.5-29.5 4.5-2.5 6-9 2.5-24.5 3-1Zm66 8 1 2 3-2 12 10 3.5-2.5 4.5-7.5.5 11.5-9.5 17.5-36.5 19.5-2.5 10.5-5.5-.5-1-11 1.5-2.5 2 2 7.5-7.5 2-10-2-1 2.5-6.5 2 1 3.5-5.5-4-1 13-11 2.5-5.5Zm343 18 5.5 15.5h-1l-4.5-15.5Zm-395 5 2.5 1.5 2 11-1.5-.5-4 1-.5-11.5 1.5-1.5Zm325 7 8.5 18.5-1.5 2.5-6.5-4.5-3-14 2.5-2.5Zm76 6 11.5 22.5-5.5.5-6-23Zm-397 4 .5 18.5-5.5.5-.5-15.5 5.5-3.5Zm54 1 .5 2.5-5.5 3.5.5-1.5 2.5-3.5 2-1Z"/><path fill="#1E8CF3" stroke="#1E8CF3" stroke-width="3" opacity=".902" d="m331.5 61 4.5 2.5-.5 2.5-5.5-3.5 1.5-1.5Zm39 0-1 6-3 1-1-2-1.5-.5 6.5-4.5Zm-14 23 13.5 7.5 2 9h-1l-4.5-7.5-1.5.5-5.5-7.5-3-2Zm-57 16-.5 3.5-2.5 4.5-2 1-.5-1.5 5.5-7.5Zm73 15 2.5 4.5-2 1 3 2-3.5 5.5v-13Zm-102 4 4 1 1.5-.5-2.5 6.5-3.5-2.5.5-4.5Zm23 2 .5 7.5-5 3 4 1-4.5 2.5-1-3-6.5 3.5-.5 1.5-4 3-1-2-2.5-.5 2.5-4.5 1 4 3-4 11.5-6.5 2.5-5.5Zm-2 23 2 3-4 2 .5-1.5 1.5-3.5Zm155 6 3.5 2.5-2.5 3.5-3.5-2.5 2.5-3.5Zm-164 11 9.5 6.5-4 1-.5 1.5-5-9Zm37 6 2.5 1.5-11.5 5.5 3-4 6-3Zm66 7 10.5 3.5-15.5 31.5-3 1-4.5-3.5 5.5-3.5 4 1 7.5-17.5v-9l-4.5-3.5Zm-102 6 2.5 1.5 3 5-3.5-.5-3 1-.5-5.5 1.5-1.5Zm11 19 5.5 15.5h-1l-4.5-15.5Zm-15 17 4.5.5-2.5 7.5-3.5-5.5 1.5-2.5Zm21 1 5.5 12.5-4-3-1.5-9.5Zm10 17 7.5 3.5 1 2-1.5.5-7-6Zm13 6 6.5 3.5-.5 2.5-5.5-3.5-.5-2.5Zm6 12 2.5.5-3.5 4.5-4 2-.5-1.5 3.5-4.5 2-1Zm12 12 5.5.5-11.5 5.5.5-1.5 1.5-2.5 4-2Zm-20 36 9.5 7.5-1.5 1.5-8-9Zm-72 6 1.5.5-2.5 5.5-2.5-.5 3.5-5.5Zm69 7 5.5 15.5h-1l-4.5-15.5Zm-61 1 1.5 4.5-1.5 6.5-3-1-2.5 1.5 5.5-11.5Zm-1 16 1.5.5-1.5.5v-1Zm59 12 4.5.5-8 7 3.5-7.5Zm33 9 4.5 2.5 1 5-4.5 1.5-1-9Zm-94 9-1.5 2.5 2 3-3-2 2.5-3.5Zm153 0 6.5 3.5 1.5 2.5 9.5 3.5 1 8-5.5 10.5-1.5-3.5 1-7-6.5-10.5-1.5.5.5-1.5-2.5-.5-2.5-5.5Zm-173 11v3l-1.5-.5-4.5 6.5-1.5-.5 4.5-7.5 3-1Zm11 11 .5 2.5-5.5 7.5-.5-1.5 5.5-8.5Zm294 1 9.5 7.5 3 10h-1l-13-16 1.5-1.5Zm-233 2 10.5 22.5-1.5.5-9.5-17.5.5-5.5Zm-129 5 4.5.5-3 1-4.5 10.5-.5-8.5 3.5-3.5Zm239 0-2 3-1-2 3-1Zm-129 2 2.5 4.5-2.5 6.5-9.5-1.5 8-6 1.5-3.5Zm-69 4 3.5 2.5-8.5 3.5.5-1.5 1.5-3.5 3-1Zm13 0 6.5.5-8 6-1.5 3.5-.5-3.5 3.5-6.5Zm321 13 5.5 15.5h-1l-4.5-15.5Zm-264 2 21 15 8-11 .5 4.5-6 14q7.24 4.76 6 18l-4-3-8.5-16.5-17 7-1.5-4.5 4.5-9.5 2.5-1.5-1.5-2.5-1 2-2-3-1.5-.5-1-5 1.5-3.5Zm138 3 3.5.5-14 12-1.5 3.5-.5-3.5 6.5-9.5 6-3Zm-225 12 4.5.5-7.5 10.5-.5-5.5 3.5-5.5Zm258 0 4.5.5-13.5 28.5-.5-10.5 9.5-18.5Zm-279 6 1.5.5-11.5 5.5v-1l10-5Zm32 0-2 3-1-2 3-1Zm350 0 7.5 1.5 1.5 4.5 4.5 2.5 2 3-2.5.5-5.5-3.5-1.5-2.5-6-6Zm-166 4 9 13 6 1 2.5-1.5-6.5 13.5-4.5 1.5-.5 2.5-1.5.5.5 1.5-17 1h-2l-3.5 1.5.5 1.5-2-1-5.5 4.5-5.5 15.5-.5-5.5 9.5-17.5 1.5-.5 2.5-3.5 9.5-4.5.5-1.5 4-2 8.5-3.5-1.5-2.5-8 1 1.5-2.5 2-5-3-5 3-1 .5-1.5Zm-158 2 1.5.5q1.27 10.77-5.5 13.5l-.5-10.5 4.5-3.5Zm-35 7 .5 4.5-11.5 20.5-.5-2.5 6-11-3.5-.5-3 2 .5-1.5 3.5-6.5 2-1 3 1 3-5Zm85 10 3.5 2.5 2 17-23.5 40.5-1.5-4.5 7-13v-2l5.5-13.5 3.5-1.5 3-7-1-4 1-5-1-5 1.5-4.5Zm-133 1 2.5.5-9.5 5.5 3-4 4-2Zm66 4 .5 4.5-7.5 3.5-.5-2.5 2-1 .5 2.5 5-7Zm361 1 4 1 1.5-.5-2.5 6.5-3-7Zm-276 6-4.5 7.5-1.5 3.5-.5-6.5 6.5-4.5Zm41 1 1.5.5-2.5 3.5-6 2 3-4 4-2Zm6 0 5.5 2.5-1.5 2.5-3.5-2.5-.5-2.5Zm92 5 3 1 1.5-.5-3.5 6.5-2.5.5 2.5 5.5 3-1 .5 1.5-2.5 4.5-3.5-2.5-1.5-2.5-4.5 1.5-2.5 10.5-3.5-2.5 1.5-3.5 2.5-1.5 2-6v-2l1.5-8.5 6-1Zm-31 7 15.5 11.5-4.5.5-10.5-5.5 2-1-3-1v-2l.5-2.5Zm-115 1 .5 5.5-5.5 10.5-.5-5.5 5.5-10.5Zm-161 4 .5 1.5h-1l.5-1.5Zm197 0 .5 1.5-7.5 9.5q-20 2-28 16l1.5-4.5 3.5-7.5 4-2 8.5-1.5 1.5-2.5 9.5-4.5.5-1.5 4-2 2-1Zm76 1 2.5 1.5q3.31 16.31-3.5 22.5l-18.5 1.5-2 8 6 12h-1l-7.5-9.5-3 1-2.5-6.5 8-2q.25-10.75 7.5-14.5l7.5-3.5 1.5-2.5 1.5.5 3.5-8.5Zm-6.5 12-3 6h3l3-5-3-1Zm-201.5-11 .5 4.5-5.5 10.5-.5-4.5 5.5-10.5Zm171 0 3.5 2.5-.5 3.5-5.5-1.5 2.5-4.5Zm-194 3 5.5 3.5-5.5 4.5v-8Zm180 13 4 1 1.5-.5-3.5 6.5-2-7Zm-73 8 1.5 3.5-.5 1.5 1.5.5-3 1-4.5 6.5-.5-2.5 5.5-10.5Zm-32 5 2.5.5 1.5 4.5 1.5-.5-10.5 2.5-.5-1.5 5-4 .5-1.5Zm-27 7 10.5 4.5-10.5 1.5-5.5-1.5 5-3 .5-1.5Zm53 9 1.5.5-6.5 9.5-.5-2.5 5.5-7.5Zm82 2 2.5 7.5-2.5-1.5-4.5-.5 4.5-5.5Zm-94 2 1 4 4.5.5-5 3 .5 2.5 1.5.5-7.5 5.5-.5-5.5 5.5-10.5Zm120 2 5 2 1.5-.5 6 12-2.5.5-4.5-2.5-5.5-11.5Zm-36 2 1.5.5-10.5 17.5-4.5-.5 11.5-16.5 2-1Zm-150 4 1.5.5-3.5 5.5-2.5-1.5-1-3 1.5.5 4-2Zm145 26 5.5 2.5-1.5 3.5-4.5-.5.5-5.5Zm-13 5 .5 1.5-11.5 13.5-1-2-1.5-.5 13.5-12.5Zm41 18 3.5 1.5-5.5 4.5-2.5-4.5 1.5-.5 3-1Zm2 15 5.5 9.5-4 2-1.5 3.5-1.5-12.5 1.5-2.5Zm-79 7 1 2-7.5 4.5 6.5-6.5Zm-169 9 5.5 2.5-1.5 3.5-2 1-2.5-1.5 1-3-.5-2.5Zm227 12 2.5 1.5 1.5 10.5 2.5 1.5 2 5-1.5-.5-2.5-1.5-5.5-9.5-4.5-1.5 4-3 1.5-2.5Zm26 5 .5 1.5-6 17 6 1-.5 2.5-14 3-3.5-6.5 1.5.5 2.5-1.5 7.5-13.5 6-4Zm9 2 1.5.5 2 5-1.5-.5-4 1-.5-1.5 2.5-4.5Zm-45 3 .5 2.5-7.5 9.5-6 2 3.5-4.5.5-1.5 1.5-.5 1.5-2.5 6-5Zm-60 1 .5 2.5-.5 4.5-5.5-3.5.5-2.5 5-1Zm325 1 5.5 2.5-2.5 3.5-3.5-2.5.5-3.5Zm-326 12 11.5 5.5-3.5.5-8-6Zm43 4 .5 2.5-8.5 16.5-5.5-4.5 2.5-.5 5.5-1.5 5.5-12.5Zm279 20 3.5 2.5-2.5-1.5-6 5 5-6Zm-477 1 .5 5.5-5.5 10.5-.5-5.5 5.5-10.5Zm481 3 5.5 11.5h-1l-4.5-11.5Zm6 15 5.5 15.5h-1l-4.5-15.5Zm-493 12 .5 5.5-5.5 10.5-.5-5.5 5.5-10.5Zm-6 18 .5 11.5-11.5 22.5-.5-11.5 11.5-22.5Zm480 10 1.5 8.5-1 8 1 4-1 3 4 3 3.5 10.5 4.5 1.5-.5 4.5-5.5-.5-1.5-5.5-2.5-1.5-3.5-10.5-2.5-1.5-2-17 3.5-5.5 2-1Zm-492 32 .5 10.5-5.5.5.5-1.5 4.5-9.5Z"/><path fill="#4EAEF1" stroke="#4EAEF1" stroke-width="3" opacity=".969" d="m350.5 60 3.5 2.5-2.5 3.5-3.5-.5 2.5-5.5Zm-39 4 1.5 7.5-4.5.5-.5-2.5 3.5-5.5Zm19 7 5.5 1.5-.5 5.5q-12.19 1.69-15.5-5.5l10.5-1.5Zm-7 13 5.5.5-21 19-2 14 3 2-3 1 .5 3.5 4.5 1.5-10.5.5-.5-12.5L317.5 87l6-3Zm22 0q14.99-1.99 18.5 7.5l2 23 6 14-16 10-1.5 3.5-1.5-2.5 13-17v-7l-4-3q-2.44-20.91-16.5-28.5Zm-78 54 2.5.5-5.5 8.5-.5-2.5 3.5-6.5Zm12 0 2.5.5-.5 12.5-4-1-1.5.5q-2.25-10.25 3.5-12.5Zm20 0 6.5 2.5-2.5 3.5-4.5-.5 1-4-.5-1.5Zm37 7 5.5 12.5-2.5-1.5-3 2-1-2-1.5-.5 2.5-10.5Zm13 2-.5 1.5-.5 1.5-.5-1.5 1.5-1.5Zm-14 16 .5 5.5-5.5 8.5-.5-2.5 5.5-11.5Zm-53 3 5.5 5.5 18.5 43.5q5.25 8.25 19.5 7.5-3.93 7.07-16.5 5.5l-25-53-1.5-.5 4-1-5-3 .5-4.5Z"/><path fill="#4EAEF1" stroke="#4EAEF1" stroke-width="3" opacity=".969" d="M276.5 171q9.5 4 5.5 21.5l-1.5-.5-4.5-2.5.5-18.5Zm98 3 10.5 3.5 1.5 2.5 3.5 1.5-2.5 4.5-15.5-8.5 2.5-3.5Zm-35 6 2.5 1.5 1 4-6.5.5.5-1.5 2.5-4.5Zm-9 12 .5 1.5h-1l.5-1.5Zm-54 5 4 1 1.5-.5-.5 12.5-2.5-.5-2.5-12.5Zm66 13 3.5.5-11.5 6.5-2.5-1.5 10.5-5.5Zm-75 30 2.5.5-5.5 7.5-.5-1.5 3.5-6.5Zm86 12 6.5 2.5-5.5 6.5-11 3v-1l10.5-8.5-.5-2.5Zm-94 30 2.5 1.5 2 4-5.5.5-.5-4.5 1.5-1.5Zm65 36 10.5 3.5 13 20v13l-1.5-.5-14 5-9-5-4.5 3.5-7.5 16.5-3-2-2.5 1.5 9.5-25.5q10.47 1.97 13.5-3.5l1-15-3.5-6.5-2.5-1.5.5-3.5Zm-68 13-.5 1.5-3.5 5.5q-5-2.5 0-5l4-2Zm-31 5 2.5.5-2.5 5.5-2.5-1.5 2.5-4.5Zm14 15 1 2-3.5.5 2.5-2.5Zm-10 2 .5 1.5-2 1 1.5-2.5Zm125 1 5.5 3.5-.5 5.5-8 3 2.5-3.5.5-8.5Zm7 0 15 6h23l2.5 2.5 2.5 9.5 1.5.5q9.26 3.24 8 17l-5.5 10.5-1.5-2.5 1-8-7.5-17.5-39-18Zm-118 12 2.5.5.5 5.5 5.5-2.5.5-3.5 5.5.5-5.5 7.5-1-2-5.5 3.5.5 2.5 1.5.5-7.5 10.5-2-1-4 7-4.5 1.5 4-6-2-1 2.5-5.5 3.5-.5 2-5-6-1 3-5-.5-1.5 7-5Zm-40 9 1 3 1.5.5-14.5 9.5 12-13Zm109 4 7 17 2.5.5 2 8-3-2-8.5-23.5Zm-125 10 .5 1.5-8 7 3.5-7.5 4-1Zm32 1 2.5.5.5 4.5 1.5.5-2.5 1.5-4.5-1.5 2.5-5.5Zm333 4 5.5 12.5h-1l-4.5-12.5Zm-360 2 1.5.5-15.5 12.5-.5-1.5 14.5-11.5Zm35 3 .5 2.5-3.5 12.5-7.5 3.5-12.5 24.5-5 2-1.5-3.5 10.5-17.5 1 2 1-11 5.5-1.5-1.5-4.5-4.5-.5 3.5-5.5 4-1-1.5 4.5 1.5 2.5 10-9Zm55 3 2.5.5-9.5 6.5 1-4 6-3Zm41 4 .5 8.5-10.5 20.5-1.5-3.5 11.5-25.5Zm78 3 .5 4.5-5.5 10.5-.5-4.5 5.5-10.5Zm157 0 11 14 1.5-.5 11 20h-1l-21-24-1.5-9.5Zm-127 5 6.5 2.5 2.5 7.5 2.5-1.5 4.5-8.5q11.5-3 14.5 2.5v7L440.5 462l-3-4-3-2-2.5 1.5-11-23 5-8-8-1 13.5-11.5Zm14.5 6-2 2 1 4 10-2 1-3-10-1Zm-11 19-2 3 3 1 1-2-2-2Zm-153.5-23 .5 10.5-6 17v2l-.5 1.5-5.5-8.5 11.5-22.5Zm-23 3 2.5 1.5-8.5 15.5-3.5 1.5-15.5 33.5-4 2-2-5-10.5 7.5-13 22-.5 35.5q-8.77-8.73-5.5-29.5l17.5-34.5 1 2 2-3 3.5-2.5 2.5-3.5 13.5-7.5 10.5-29.5 9.5-4.5.5-1.5Zm-106 7-2 3-1-2 3-1Zm243 1 .5 10.5-4 2-5.5 16.5-10.5 4.5-.5 1.5-1.5-.5-4.5-5.5h-16q-19.12 6.88-30.5 21.5l-8.5 13.5-7.5 4.5-6.5 13.5-9 7-2.5-.5 13.5-29.5 13.5-7.5 2-10-2.5-.5-15 17-.5-5.5 9-11-.5-1.5 7.5-5.5 1.5-3.5 1 4 11-6h13q6.71-8.29 24-6l5.5 3.5 1.5 2.5 14.5-13.5 7.5-15.5Zm-212 5 1.5.5-2 5 .5 1.5-3 1-1-2-4.5-.5 8.5-5.5Zm-10 12 4.5.5-12.5 5.5 2-3 6-3Zm-18 4 1 2 2.5.5q-4.23 7.27-17.5 5.5-6.5-3-1-6l15-2Zm258 3 .5 15.5h-1l-2.5-4.5-2.5-1.5 5.5-9.5Zm169 4 4 1 1.5-.5-2.5 6.5-3.5-2.5.5-4.5Zm-439 8 .5 10.5-5.5 10.5-1-4-2.5-.5 3-5-2-1 1.5-3.5 1 3 5-10Zm289 3 5.5 8.5-5.5 10.5v-19Zm-267 2 2.5.5-3.5 5.5-2.5-.5 3.5-5.5Z"/><path fill="#4EAEF1" stroke="#4EAEF1" stroke-width="3" opacity=".969" d="m360.5 468 4.5 3.5 1 3-1.5-.5-4 1v-7Zm-79 7 .5 4.5-5.5 11.5-1.5-3.5 6.5-12.5Zm102 2 .5 13.5h-1l-3-9 3.5-4.5Zm-201 3 3.5 2.5-1.5 3.5-4.5-1.5 2.5-4.5Zm-44 8 2 4 2.5 1.5-4.5 8.5v-14Zm222 3 4 1 1.5-.5-1.5 6.5-4.5-1.5.5-5.5Zm-183 13 2.5.5-2.5 11.5-3.5-2.5 3.5-9.5Zm209 18q8.5 4 9.5 15.5-3 5.5-6-1l-5-13 1.5-1.5Zm-170 5 3.5 1.5-15.5 11.5-.5-2.5 5.5-6.5 7-4Zm57 7 2.5.5-1.5 3.5-4 2 .5-1.5 2.5-4.5Zm-120 12 1.5.5-2.5 5.5-2.5-.5 3.5-5.5Zm-27 5 .5 1.5h-1l.5-1.5Zm225 1 12.5 1.5 6 11-1.5-.5-6.5 1.5-2 15 6.5 1.5 4.5-3.5 1-9v-2l.5-1.5 5.5 16.5-3.5 4.5-9 1-9.5-6.5-3.5-11.5-3.5-1.5-1-11 3.5-5.5Zm-178 4 .5 4.5-16.5 8.5.5-1.5 3.5-5.5 3 1 9-7Zm165 8 3.5.5-.5 5.5-5 3-.5-6.5 2.5-2.5Zm-182 6 4.5.5-4.5 2.5v-3Zm-22 12 3.5 2.5 1.5 2.5 2-1-1 2-3 1-5.5-3.5 2.5-3.5Zm216 0 1.5.5 2.5 5.5 4.5.5 11 12-13.5-10.5-6 3q-3.65-6.35-15-5l-2.5-.5 5.5-4.5 9 5 3-6Zm-29 6 2.5.5-1.5 3.5-3.5 1.5 4 1-4.5 2.5-1.5-2.5 4.5-6.5Zm-7 12-8 9-1-2 9-7Zm58 2 5.5 16.5-5.5 7.5-1.5-21.5 1.5-2.5Zm-16 11 1.5.5 11.5 22.5 2.5-1.5.5-6.5 5.5 4.5-.5 3.5-14 6-6-11-14.5 8.5-4.5 7.5-12.5 8.5-5.5 9.5-15 1-10.5-5.5-1-3q3.25-18.25-8.5-21.5l-2.5-1.5 2-4-.5-1.5 15-8 .5 3.5-6 16 27.5 12.5 8.5-10.5q-4-14.5 2.5-18.5l3.5 2.5 2.5 8.5 12.5-11.5 5.5-10.5Zm-227 40-3.5 4.5-.5 15.5-5.5-1.5-.5-5.5-1.5-.5 1.5-3.5 1 3 5-10 4-2Zm479 37 3 2 1.5-.5 5 15h-1l-7.5-9.5-1.5.5-7.5 13.5-.5-9.5 4.5-7.5 2.5-1.5 1.5-2.5Zm-483 1 .5 11.5-5.5 10.5-.5-11.5 5.5-10.5Zm-6 24 .5 5.5-5.5 10.5-.5-5.5 5.5-10.5Zm481 6q7.39 6.11 5.5 21.5h-1q-7.31-6.81-4.5-21.5Zm18 0q8.42 8.08 5.5 27.5h-1q-8.21-8.71-4.5-27.5Zm-528 2 5.5 4.5-1.5 4.5-4 3v-12Zm23 10 .5 5.5-5.5 10.5-.5-5.5 5.5-10.5Zm150 9q-.84 14.34 6.5 20.5v12l-6.5 11.5-5.5-.5-6.5-17.5-7.5-.5 1.5-3.5 4.5-3.5 7.5-14.5 6-4Zm343 7 3.5 2.5 2 12-4-3-1.5-11.5Zm-499 2 .5 5.5-5.5 10.5-.5-5.5 5.5-10.5Zm517 6q7.05 5.45 5.5 19.5l-3-2-2.5-17.5Zm-540 2 5.5 9.5-3.5 5.5-2 1v-16Zm528 8 3.5 2.5 2.5 9.5 3.5 2.5 2 4-5.5.5-3-6-3.5-1.5.5-11.5Zm-528 12 3.5 2.5 2 4-5.5.5v-7Z"/><path fill="#003F92" stroke="#003F92" stroke-width="3" opacity=".992" d="m353.5 60 6.5 2.5-6 5-.5-7.5Zm19 0 5.5 2.5-2.5 3.5-5.5-.5 2.5-5.5Zm-30 5 4 1h2l4.5.5-5 3 1 2-7.5.5.5-1.5-2-4 2.5-1.5Zm-39 7 2.5 1.5 2 4-2 1-.5 4.5-3-5-2.5-.5 3.5-5.5Zm63 6 2.5 1.5-1.5-.5-1-1Zm4 2 3.5 1.5-1.5.5-2-2Zm5 2 5.5 3.5-1.5-.5-4-3Zm7 4 5.5 4.5 2 21 5 6-5.5 6.5-6 3 1-2 5.5-2.5-.5-7.5-3.5-2.5-2.5-25.5-1-1Zm-83 2 1 2 1.5.5-18 11 3 1-4.5 2.5-1-2-5 7-.5-1.5 3.5-6.5 12.5-5.5 4.5-6.5 3-2Zm-12 2 .5 1.5-2 1 1.5-2.5Zm33 42 9.5 3.5-.5 7.5-2.5-4.5 2-1-8.5-5.5Zm-10 6 7.5 1.5-1.5 4.5-4.5-1.5-1.5-4.5Zm-16 6 10.5.5-14.5 6.5-.5-1.5 4-2 .5-3.5Zm35 0 .5 1.5-2 1 1.5-2.5Zm-2 4 .5 1.5h-1l.5-1.5Zm44 11-3.5 4.5-2.5 12.5q-6.25-2.75-5.5-12.5l11.5-4.5Zm-67 3 7.5 3.5-1.5 2.5-5.5-.5 1-3-1.5-2.5Zm49 1 .5 15.5h-1l-5-8 5.5-7.5Zm-36 3 1 2-2.5-.5 1.5-1.5Zm64 0 2.5 1.5-1.5.5-1-2Zm4 2 19.5.5-9.5 5.5-10-6Zm-32 12 .5 1.5-2 1 1.5-2.5Zm54 0 .5 1.5-2 1 1.5-2.5Zm-138 2q-.97 16.47 7.5 23.5l-1.5.5-5-7-1.5-.5 1-2-4-8 3.5-6.5Zm82 2 .5 1.5-4 3 3.5-4.5Zm54 0 .5 1.5-1.5 2.5-.5-1.5 1.5-2.5Zm-2 5-.5 1.5-.5 1.5-.5-1.5 1.5-1.5Zm-2 4 .5 6.5-2.5 4.5-3 1-.5-1.5 5.5-10.5Zm-55 7 2.5 1.5-1.5-.5-1-1Zm12 12 4.5 3.5-2 1-1.5-3.5-1-1Zm-6 1 1.5.5-3.5 1.5v-1l2-1Zm-82 2 4 1h2l1.5.5-.5 5.5-1.5.5-.5 1.5-1-3-6.5-4.5 2.5-1.5Zm126 0 3.5 1.5 1 3-15.5 16.5-19.5 13.5 1.5 2.5-7.5-3.5 9.5-14.5 2-1 7 1 17.5-15.5.5-3.5Zm67 2 6.5 4.5-2 1-.5 3.5-4-9Zm-181 9 5.5 2.5-.5 12.5-8-1-1.5.5 4-9-5-3 5-1 .5-1.5Zm74 3 1.5.5-3.5 1.5v-1l2-1Zm-26 1 2 4 5.5 4.5 7 13-7-6-1.5-2.5-1 2-6-9-3.5-1.5 4-1 .5-3.5Zm28 1 1.5.5-1.5.5v-1Zm-5 1 2 1 1.5-.5-.5 2.5-7 4-.5-1.5 4.5-5.5Zm112 8 .5 2.5-1.5 3.5-2.5-.5 3.5-5.5Zm-79 1 2.5 1.5-1.5 2.5-2.5-1.5 1.5-2.5Zm-111 3 1.5.5-.5 1.5 1.5.5-3 1-4.5 9.5-.5-5.5 5.5-7.5Zm199 2 6.5.5-2.5 3.5-12 2 2-3 6-3Zm-182 6 10.5 5.5-4.5.5-6-6Zm86 0 4.5 2.5-1.5 2.5-3.5-2.5.5-2.5Zm84 5 1.5 3.5-2-1 .5-2.5Zm-91 1 .5 1.5-2 1 1.5-2.5Zm-65 3 10.5 8.5-4.5.5-6.5-3.5.5-5.5Zm63 1 .5 1.5-8 6-2.5 4.5-10 2v-1l19.5-11.5.5-1.5Zm95 0 .5 1.5h-1l.5-1.5Zm-200 1 4 1 1.5-.5-.5 7.5-7.5-1.5 2.5-6.5Zm55 7 15.5 5.5-5.5.5-10-6Zm149 0 4.5 1.5.5 1.5 1-2 5.5 10.5h-1l-2.5-5.5-8.5-3.5.5-2.5Zm-157 12 6.5 3.5-.5 4.5-1-3-4.5-2.5-.5-2.5Zm169 1 5.5 12.5-4-3-1.5-9.5Zm-174 4 3.5 2.5 2 15h-1q-6.8-5.64-4.5-17.5Zm184 12 7.5 4.5 8 14-2 1-.5 1.5-3.5-1.5-1.5-3.5-5.5-2.5 5-1-6.5-9.5-3.5-1.5 2.5-1.5Zm-154 11 5 8 1.5.5-1.5 3.5-6.5-10.5 1.5-1.5Zm-73 4 1.5 2.5-1.5 8.5-5.5-2.5 2.5-4.5 1.5-.5 1.5-3.5Zm-12 7-2.5 3.5-.5 1.5-.5-1.5 3.5-3.5Zm60 4 .5 5.5-5.5 10.5-.5-5.5 5.5-10.5Zm-70 2-.5 1.5-2.5 4.5.5-1.5 2.5-4.5Zm6 0-.5 1.5-2.5 4.5.5-1.5 2.5-4.5Zm101 0 6.5 9.5-2-1-4.5-7.5-1.5.5 1.5-1.5Zm-88 3-2 3-1-2 3-1Zm-23 4 .5 1.5-7.5 8.5-.5-1.5 7.5-8.5Zm6 0 .5 1.5-1.5 2.5-.5-1.5 1.5-2.5Zm12 1-3.5 4.5-5.5 12.5-1-2-1.5.5 7.5-12.5 4-3Zm-14 4-.5 1.5-.5 1.5-.5-1.5 1.5-1.5Zm32 3 2.5.5-5.5 10.5-1-4-9.5 4.5-3.5 4.5-9 2v-1l20.5-10.5-.5-1.5 6-5Zm153 0h33l2.5 2.5 2.5 9.5 7.5 2.5 4.5 7.5 9.5 4.5 1 3-5 2-2 11 7.5 17.5 2.5 1.5 2.5 9.5 3.5 2.5 2.5 9.5 5-2 12.5 26.5-2.5 5.5-1.5-.5-10.5-15.5-2.5 1.5q6.83 6.17 5 21l-3.5 6.5-1.5-.5-9.5-15.5-9-2-4.5 2.5-4.5 7.5-9 3-.5-1.5 21-24 3.5-12.5 11 7 .5-3.5-4-3-8-24-10.5-13.5-5-3-2.5 20.5 16 9 2 6-1.5-.5-4.5-2.5-1.5-3.5-22.5-8.5-1-3 7-1-2.5-16.5-1.5.5-2.5 10.5-15-11-1.5 6.5 1.5 2.5 9.5 4.5 1 3-26 10-1.5 2.5-3.5-.5-.5-5.5-3.5 1.5-5.5 10.5-2.5-.5v-12l11.5-16.5 2 1 16-17 4-2 6 4 14.5-21.5-12.5-7.5-30.5-.5 1.5-3.5 6-2Zm-121 2 .5 4.5-5.5 10.5-.5-4.5 5.5-10.5Zm104 0 4.5.5 1 3-20.5 6.5 3-4 10.5-3.5 1.5-2.5Zm-182 1 2.5.5-5.5 8.5-2.5-.5 5.5-8.5Zm140 3 11.5.5-1 4 .5 1.5-11-6Zm16 0 8.5 5.5-2.5.5-5.5-3.5-.5-2.5Zm-140 4 .5 1.5-10 9 9.5-10.5Zm247 3 19 5 1-2 5.5 7.5-11 4-3.5 6.5-4 2-5.5-2.5-1-3 7-1-2.5-9.5-8.5-4.5.5-1.5 3-1Zm-221 6 .5 7.5-7.5 3.5 3.5-4.5 3.5-6.5Zm30 0 1 5 2.5.5-5 3-9.5 19.5-.5-5.5 2.5-5.5 3.5-1.5 5.5-15.5Zm-36 17 3.5.5-3.5 5.5-15.5 12.5-1.5 3.5-.5-4.5 5.5-10.5 1 2 2-3-2.5-.5 6.5-3.5 3-1 2-1Zm-90 16 .5 4.5-7.5 3.5 7-8Zm108 2 2.5.5-8 5-.5 1.5-13.5 10.5-.5 1.5-9.5 4.5-.5 1.5-9.5 4.5 2 1-11.5 5.5 2-3 5.5-2.5.5-1.5 9.5-4.5 5.5-12.5 2.5.5.5 5.5 15.5-11.5 1.5-3.5 6-3Zm-43 6 1.5.5-4 2-2.5 4.5.5-1.5 2.5-4.5 2-1Zm271 18 15.5 11.5-4.5.5-10.5-8.5-.5-3.5Zm-348 9 1 2-4.5 2.5-1.5 3.5-1-2-4.5 2.5-.5 2.5-2 1 .5-1.5 6.5-9.5 1 2 5-3Zm367 6 11.5 15.5-1.5-.5-4.5-2.5-5.5-12.5Zm-340 3-3 4-5 2v-1l8-5Zm27 0 .5 1.5-2 1 1.5-2.5Zm12 0 .5 1.5-2 1 1.5-2.5Zm-80 4 .5 1.5h-1l.5-1.5Zm66 0 .5 1.5-2 1 1.5-2.5Zm12 0 .5 1.5-1.5 2.5-.5-1.5 1.5-2.5Zm-72 1-4 5-5 2v-1l9-6Zm70 4-.5 1.5-1.5 2.5.5-1.5 1.5-2.5Zm-14 3 .5 1.5-2 1 1.5-2.5Zm-2 4 .5 1.5-1.5 2.5-.5-1.5 1.5-2.5Zm-32 1 1.5 1.5-9.5 9.5-6 3 1-2 13.5-10.5-.5-1.5Zm365 0 3.5 1.5 2.5 16.5 3.5 2.5 14.5 19.5 10.5 6.5 1 3q-9.35 8.65-6 30l5 9-4 6 4 6q-7.12 4.88-5 19l4 3 8.5 21.5 5.5 3.5 2.5 3.5 3.5 2.5q8 4.5 6 19l9.5 14.5 2-1 2.5 6.5-2 1-.5 17.5-9.5 7.5-1.5 3.5-.5-10.5q7.42-6.58 6-22l-8.5-14.5-12.5-6.5-8-15 2.5-1.5 14 11 .5-4.5-6-4-2.5-3.5-3.5-2.5-2.5-3.5-9.5-3.5-.5-2.5-2.5-.5-2-7 5-8-6-9v-35l-3.5-6.5-2.5.5-2.5 10.5-1.5-.5-1-6 2.5-4.5 2.5-.5q2.97-16.48-3.5-23.5l-2.5.5-2.5 10.5-1.5-.5-1-6 2.5-4.5 2.5-.5-2.5-9.5-8.5-4.5 5-13-4-3-7-9 5-3 .5-6.5ZM571 588l-1 6h6v-4l-5-2ZM205.5 459l-.5 1.5-.5 1.5-.5-1.5 1.5-1.5Zm10 0 1 2-3.5 1.5-.5 1.5-.5-1.5 3.5-3.5Zm-39 4 3.5 1.5-1.5-.5-2.5.5-1.5 3.5-.5-1.5 2.5-3.5Zm27 0 1 5 7-3-.5 1.5-6.5 12.5-3.5.5 3-5-3.5-.5-2.5 1.5 5.5-12.5Zm-53 4-.5 1.5-1.5 2.5.5-1.5 1.5-2.5Zm22 4 1.5.5-4 2 2 1-19.5 12.5 4-5 3.5-1.5 2.5-3.5 10-6Zm-25 1 .5 1.5-1.5 2.5-.5-1.5 1.5-2.5Zm4 1-2 5-1.5-.5 4-3-.5-1.5Zm25 1 .5 1.5h-1l.5-1.5Zm285 1 .5 23.5-15.5 23.5-1.5-.5-2-6 18.5-40.5Zm-288 1 1 2 1.5-.5-7.5 13.5-.5-4.5 5.5-10.5Zm-28 1v3l-1.5-.5 1.5-2.5Zm-4 9 2.5.5-.5 5.5-2.5-.5-1-4 1.5-1.5Zm35 0 3.5 1.5-.5 5.5-8.5-1.5 3.5-4.5 2-1Zm18 0 3.5.5-2.5 5.5-3.5-1.5 2.5-4.5Zm399 3 1.5 28.5-1.5 3.5q-7.56-6.44-5.5-22.5l5.5-9.5Zm-426 7 1 2 2.5.5-2.5 3.5-1-3-5 9-3 2 2.5-3.5-.5-2.5-4.5-.5 10-5 .5-2.5Zm9 2-5.5 6.5-.5 1.5-.5-1.5 6.5-6.5Zm-30 6 4.5.5-1 4 .5 1.5-7 2v-2l-2.5-.5 2-1 3.5-4.5Zm201 0 4.5 2.5 2 15-5.5 9.5-13.5 12.5-5 8-2 17-21.5 28.5-3.5 2.5-3 6 2 1-7.5 10.5-2-1-4.5 3.5-.5-1.5-5.5-.5 15-17-.5-1.5 19.5-17.5 14-35v-12l-2.5-4.5-6-1-6.5 4.5.5 1.5-7.5 5.5-1.5 3.5-4.5 2.5-8.5 15.5-23.5 22.5-1.5 3.5q-19.61-2.11-30 5l-2.5-1.5-4.5-13.5-9-2-14 5-2.5-1.5-2.5-9.5-6.5-.5 1.5-11.5 10-2q6.02-14.48 25-16l.5 3.5-16 11-8 16 2.5 4.5 17-15 10-2 5.5 3.5 1 3-5 9 10.5 2.5 41.5-21.5q-1.19-21.19 11.5-28.5l25-10 10 5 7.5-8.5-5-3 1.5-3.5 4-2Zm-178 3-.5 1.5-.5 1.5-.5-1.5 1.5-1.5Zm-26 9 1 3 8-3-.5 1.5-1.5 4.5-1-5-5 10-1-5-2.5-.5 2.5-5.5Zm25 0 4.5 8.5-2-1-2.5-7.5Zm14 0 .5 1.5h-1l.5-1.5Zm249 5 .5 23.5-9.5 6.5-2.5-1.5-.5-3.5-2.5.5-.5 1.5-.5-1.5 4-7-4.5-7.5-1.5-.5 2.5-3.5 15-7Zm-266 7 4.5.5-3 1-4.5 7.5-2.5-.5 5.5-8.5Zm429 0 5.5.5-.5 8.5-5-9Zm-448 6 .5 1.5h-1l.5-1.5Zm33 1 .5 6.5-5.5 6.5-.5-5.5 5.5-7.5Zm-34 2-.5 1.5-.5 1.5-.5-1.5 1.5-1.5Zm14 1 .5 1.5-4 3 3.5-4.5Zm256 11-.5 1.5.5 1.5 2.5.5 1 7-5.5 7.5-21.5 5.5-2 9 5.5 10.5 1-2 14 22 3.5 1.5-.5 4.5-11.5.5-.5 2.5-11.5-6.5.5-2.5 11.5-6.5-11.5-21.5-1 3-11.5-28.5 18.5-.5 9 6 3-4 2.5-1.5 4.5-9.5Zm-260 6-.5 3.5-2.5 5.5-5.5.5-.5 1.5-.5-1.5 4-3 .5 1.5 5-8Zm33 1 3.5 7.5h-1l-2.5-7.5Zm-27 5 1 2-3.5.5 2.5-2.5Zm-16 6-.5 1.5.5 1.5 1.5.5-6.5 11.5-2.5-1.5-3-4 3-1-.5-3.5-3.5-1.5 11.5-3.5Zm20 15 1.5.5-4.5 9.5-2.5-4.5 5.5-5.5Zm-10 10 1 2 1.5.5-7.5 8.5-2.5-.5 1-2-3-1 9.5-7.5Zm-8 12 .5 1.5-1.5 2.5-.5-1.5 1.5-2.5Zm0 8 2.5.5.5 11.5 5-3-1.5 2.5-.5 1.5-9 5-.5-14.5 3.5-3.5Z"/><path fill="#003F92" stroke="#003F92" stroke-width="3" opacity=".992" d="m158.5 613 6.5 4.5q5.55 7.95 3 24l-3.5 6.5-2.5.5-.5 18.5-7.5-5.5q-6.18-5.32-4-19l9.5-18.5 2.5-.5-1.5-5.5-4 1-.5-3.5 2.5-2.5Zm1.5 17-4 6 3 12h3v-17l-2-1Zm-31.5-12-1.5 2.5 2 3-3-2 2.5-3.5Zm158 3-1 2-1.5.5 3 1-16.5 6.5-6.5-1.5 1.5-3.5 21-5Zm127 3 12.5 1.5-12 28 2.5.5 19.5-18.5 1.5-3.5 4-2 1.5.5-16.5 27.5-13.5 11.5-7.5 12.5-9 2-4.5-2.5-4.5-8.5-7.5 6.5-1 7 4 7-27 11-1 6q6.83 6.17 5 21l-2.5 5.5-27-8-11.5-11.5-1-4 1.5.5q15.61 1.89 23 12l4.5-2.5-4-7 17-26 2.5-10.5q12.71-13.29 34.5-17.5l1.5-2.5 3.5-2.5 1.5-2.5 3.5-2.5q10.5-6.5 7-27l-.5-1.5Zm-7.5 42-9 10 3 1 8-10-2-1Zm-136.5-32 4 15 2.5 1.5-.5 3.5-10-6-1.5.5-2.5-6.5-3.5-1.5 1.5-4.5 10-2Zm327 9 2.5 1.5-1.5 2.5-2.5-1.5 1.5-2.5Zm-332 10 4.5 3.5 5 11h-1l-.5-1.5-2.5.5 7.5 11.5 9.5-3.5 1.5-8.5 16.5 5.5-2 1 2.5 1.5 1.5-.5 17 29-2.5 5.5-3 1-1-4q-7.17-5.83-23-3L279 689.5l-5.5-11.5-15.5-7.5v-7l6.5-10.5Zm38.5 32-2 3 3 1 1-2-2-2Zm-161.5-7 7.5 3.5 1 3-11 21 11.5 8.5 3.5-2.5 2-9-2.5-.5-1 2-.5-1.5 6.5-12.5 3-1 3 25 3.5 1.5-1.5 4.5-2.5.5-2 24-8.5 11.5-3 1-.5-1.5q9.35-8.65 6-30l-3.5-4.5-8-1-12 6-.5-18.5 9.5-29.5Zm458 0 .5 1.5-2 1 1.5-2.5Zm-2 4 .5 1.5-1.5 2.5-.5-1.5 1.5-2.5Zm-145 2 3.5 2.5-1.5 3.5-4.5-.5 2.5-5.5Zm143 3-.5 1.5-.5 1.5-.5-1.5 1.5-1.5Zm-146 9 .5 4.5-4 3-7.5 14.5-4 2-2.5-.5 12.5-20.5 5-3Z"/><path fill="#003F92" stroke="#003F92" stroke-width="3" opacity=".992" d="m151.5 705-.5 1.5-.5 1.5-.5-1.5 1.5-1.5Zm442 7 .5 2.5-14.5 17.5-2.5.5q6.72 6.78 5 22l-2-1q-6.77-8.73-4-27l3.5-6.5 2.5.5.5 5.5 5.5-3.5 5.5-10.5Zm-320 2 1.5.5 7 18-1.5-.5q-15.26 1.76-21-6l-1.5.5 1.5-6.5 14-6Zm357 0 4.5.5 1 11-3.5 6.5-2.5-1.5.5-16.5Zm11 15 2.5 14.5-2 1-.5 22.5-4.5-2.5-1-26 5.5-9.5Zm-359 8 3.5 1.5 8 18v15l6 14-5.5.5-1-11-3.5-2.5-8-22 .5-13.5Zm-25 2 .5 4.5-5.5 8.5-.5-2.5 5.5-10.5Zm65 0 6.5 1.5-4.5 8.5-1-5-4.5 3.5-1 25 .5 1.5-4.5-2.5-2-21 7.5-10.5 3-1Zm-103 5 2.5.5-3.5 5.5-1.5-.5 2.5-5.5Zm195 0 5.5 3.5-3.5 8.5-2.5-1.5.5-10.5Zm-56 1 5.5 1.5 2 21-2.5 5.5-1.5-.5-8-22 2.5-4.5 2-1Zm86 5 5.5 1.5-8.5 9.5-2.5-1.5 5.5-9.5Zm-231 6 2.5.5q-.25 13.25-9.5 17.5l-2.5-6.5 1.5.5 2.5-1.5 2-4-2-1 5.5-5.5Zm32 0 2.5.5-7.5 15.5-4.5 3.5-2.5 10.5-23.5-.5q-.31-11.81 7.5-15.5 18.95-2.05 28-14Zm-5.5 12-2 1-3 4v1l5-3v-3Zm225.5-12 2.5.5-2.5 15.5-7.5 4.5-2.5 9.5-23.5-.5 2.5-16.5 7 4 24-17Zm117 1 11.5 27.5h-1l-11-22 .5-5.5Zm-433 5 .5 1.5-2 1 1.5-2.5Zm32 0 4.5 1.5-1.5 4.5-4 2-.5-6.5 1.5-1.5Zm215 0 5.5 2.5 2.5 9.5 8.5 2.5-11.5 3.5.5-1.5-1.5-4.5-4 1v-13Zm-249 4 .5 1.5-1.5 2.5-.5-1.5 1.5-2.5Zm-2 5-.5 1.5-2.5 4.5.5-1.5 2.5-4.5Zm502 6 .5 8.5-5.5.5.5-1.5 4.5-7.5Zm-506 1 .5 1.5-1.5 2.5-.5-1.5 1.5-2.5Zm177 2 5.5.5-.5 5.5-5.5-.5.5-5.5Zm146 1 1.5.5 2 4-5.5.5.5-1.5 1.5-3.5Zm-325 2-.5 1.5-.5 1.5-.5-1.5 1.5-1.5Z"/><path fill="#00010A" stroke="#00010A" stroke-width="3" d="m359.5 60 10.5.5-9.5 5.5-1-6Zm18 0 6.5 2.5.5 3.5 4.5-2.5-.5-1.5-3.5-1.5 10.5-.5.5 3.5-1.5 3.5-2.5 1.5 2.5 4.5 7-2 6.5 1.5 3 5-2.5.5-6 2-.5-1.5-.5-2.5-4-1-5 3-3.5-2.5-4.5-8.5-1.5-.5-.5-1.5-2.5 1.5-1.5 2.5-1-9Z"/><path fill="#00010A" stroke="#00010A" stroke-width="3" d="m398.5 77 1.5.5-1.5.5v-1Zm-3 1 .5 2.5h-1l.5-2.5Zm7 4 4 5 4.5 2.5-6.5.5-2-8Zm23 13 .5 4.5-3.5 2.5-5-6 8-1Zm-38 37 2.5.5-2.5 5.5-3.5-1.5.5-2.5 3-2Zm9 0 5.5 3.5-3.5 2.5-2-6Zm-87 18 9.5.5-1 2 5 3-7.5.5-3-5-1 4-2-5Zm75 0 .5 2.5h-1l.5-2.5Zm4 0 8 1 3-1 1 3 3.5 2.5.5 2.5 1-2 1.5.5-2.5 5.5-2.5-.5.5-1.5-5 1-10.5-7.5 1.5-3.5Zm10.5 1v1h1l-1-1Zm-43.5 42 4 2 1.5-.5 4 8-5.5-2.5-3.5-1.5-.5-2.5-1.5-.5 1.5-2.5Zm77 8 5.5 4.5-2.5 10.5-3.5-2.5.5-12.5Zm0 39 11.5 4.5 3.5 9.5 2.5 1.5-1 2 2.5 1.5 2.5.5-.5 1.5 3.5 2.5.5 1.5 2.5.5 1 3-.5 1.5 1.5.5-.5 1.5 2.5 1.5 4 8-4-3-.5-3.5-1 4-2.5 1.5 4.5 7.5 5.5 4.5 13 23-1.5-.5-10.5-8.5q-6.14-18.86-21.5-28.5l-4.5 3.5-1 7 9 26-2.5.5-3.5-2.5-8.5-14.5-11.5-1.5q-10.5-10.5-7-35l1-2-1-7 6.5-9.5 6-3Zm2.5 1v1h2l-2-1Zm-4 1v1h2l-2-1Zm-2 1v1h1l-1-1Zm-6 10-1 2h1v-2Zm-1 3-1 2h1v-2Zm29 8v2l2-1-2-1Zm8 1-1 2h1v-2Zm-7 4-1 5 3 1 1-4-3-2Zm11 4-1 2h1v-2Zm-177.5-9 1.5.5q-6.39 3.61-3.5 16.5l-1.5-.5q-3.25-13.25 3.5-16.5Zm9 0 2.5.5 3 12h-2l1.5 2.5 1.5.5-1 2 4-1 1.5-3.5.5 26.5-5 3-19.5 21.5-5.5 3.5-2.5 5.5-8 5-.5-1.5 4.5-8.5 3 2 2.5-1.5-2-1 14-25q7.66-15.34 8-38l-.5-4.5Zm1.5 6-1 2h1v-2Zm1 2-1 2h1v-2Zm1 2-1 2h1v-2Zm5 16-1 7h1v-7Zm0 12-1 3h1v-3Z"/><path fill="#00010A" stroke="#00010A" stroke-width="3" d="m286.5 267 1.5.5-1.5 10.5-1.5-9.5 1.5-1.5Zm-8 21 3.5.5-.5 2.5-5 3-.5-3.5 2.5-2.5Zm-6 12 3.5.5-5.5 10.5-.5-8.5 2.5-2.5Zm182 13 1.5 4.5-1.5.5v-5Zm-157 11 2.5 1.5-1.5 9.5-2.5-1.5 2-4-2-3 1.5-2.5Zm207 6 37.5 35.5-2 1-.5 1.5-17.5-11.5-17.5-26.5Zm-23 1 10.5 8.5q-4.5 7-9-4l-1.5-4.5Zm-191 11-.5 1.5.5 1.5 2-1 1.5 6.5-5.5 3.5-.5-1.5 4-2-3-1 1-4h-2l2.5-3.5Zm205 0 2.5.5-.5 5.5-4.5-2.5 2.5-3.5Zm15 6 8.5 5.5-2.5.5-6.5-3.5.5-2.5Zm-289 27 .5 5.5-11.5 13.5-4 2-8.5-.5 9.5-11.5 14-9Zm-18 24 .5 5.5-5.5 7.5-4.5 3.5-8.5 13.5-10 3-.5-1.5 4.5-8.5 6.5-3.5 5.5-7.5 2 1 10-13ZM193 412l-1 2h1v-2Zm-11 12-1 2h2l-1-2Zm49.5-4 2.5.5-3.5 5.5-2.5-.5 3.5-5.5Zm-60 30 2.5.5-3.5 5.5-2.5-.5 3.5-5.5Zm-6 30 2.5.5-3.5 5.5-2.5-.5 3.5-5.5Zm326 48 5.5 2.5 5 16-2 8 6.5 7.5 7.5-1.5 10.5-28.5 4.5 2.5 3.5 12.5 1.5-.5-35.5 56.5q-19.17 3.33-30 15h-28l-12.5-8.5 1.5-3.5 10-1 19-16 10-1 11 3q15.08-5.42 16.5-24.5l-10-20v-13l3.5-4.5 2-1Zm-326 18q5.5 3-1 6l-1.5-.5 2.5-5.5Zm-4 7 .5 7.5-5.5 3.5-.5-3.5 5.5-7.5Zm375 11 3.5 1.5-.5 4.5-3.5-2.5.5-3.5Zm-377 12 2.5.5-5.5 10.5-.5-4.5 3.5-6.5Zm41 18 .5 1.5-1.5 3.5-1.5-.5.5-3.5 2-1Zm3 0 14 7 2-1 1 3 4.5 2.5 3 7-3.5 4.5-6.5 4.5 1.5 14.5 1-5 1.5.5-1 16q9.21 6.29 7 24l-1 3 4.5 31.5 1-3 1.5.5-.5 9.5-1.5-.5-.5-2.5-4.5 19.5 1 5-13.5 9.5-3.5-1.5q-.47-21.53-9.5-34.5l-2.5 1.5-3.5 12.5-3.5-2.5-2.5-7.5-8.5-.5-1-7h1l.5 1.5 9.5-20.5 12-43 1-31-3-14 2.5-3.5Zm15.5 7v1h1l-1-1Zm2 39-1 5h1v-5Zm4 15-1 2h1v-2Zm1 3-1 3h1v-3Zm1 7-1 6h1v-6Zm-26 39v1h1l-1-1Zm339.5-86 5.5 1.5-.5 4.5-4-5-1-1Zm-9 13 3.5.5 1 2-2.5 3.5-7 2-1.5-2.5 6.5-5.5Zm9 49h5l9.5 9.5 3 5v50l-7.5 14.5-8.5-3.5 1-11-3-13 6-18-10-29 4.5-4.5Zm-16 11 2.5 1.5-1.5 2.5-2.5-1.5 1.5-2.5Zm6 12 2.5 1.5-1.5 2.5-2.5-1.5 1.5-2.5Zm-6 15 3.5 2.5-1.5 3.5-4.5-2.5 2.5-3.5Zm-24 3 2.5 1.5-1.5 2.5-2.5-1.5 1.5-2.5Zm34 41 1.5.5-2 1 .5-1.5Zm-366 2 4.5.5 1 21-2.5.5-9.5-.5q-2.44-16.44 6.5-21.5Z"/><path fill="#000A24" stroke="#000A24" stroke-width="3" d="m384.5 60 4.5 2.5-2.5 3.5-2.5-.5.5-5.5Z"/><path fill="#000A24" stroke="#000A24" stroke-width="3" d="m382.5 65 1 2 1.5.5 5.5 9.5 2 1 4.5-2.5-5-7 4.5-2.5-.5 1.5 1 4-2 1 8 5-2.5.5-2-1-3.5 1.5 1 3-1.5 2.5q-8.75 1.75-10.5-3.5l-2.5-8.5-2.5 1.5 2 1-3 1-.5 2.5h-39l-2.5-2.5 2.5-3.5q25.29 3.29 38-6v1l-4.5 2.5.5 2.5 7.5-4.5.5-1.5 2-1Zm-83 4 1 2L285 83.5 299.5 69Zm8 3q11.87-1.38 15.5 5.5l-5 1-.5 2.5-2-3 1.5-.5-9.5-5.5Zm97 6 15.5 6.5-3.5 5.5-10.5-3.5-4-6 2.5-2.5Zm-102 6 2.5 1.5-2.5 4.5-2.5-.5 2.5-5.5Zm109 12q9.75-1.25 11 6l9.5.5 1 6-1 6 2.5 4.5 1.5-.5 1.5-3.5 2.5 16.5-4.5.5L410 97.5l1.5-1.5Zm-19 30 5 6-1.5.5 2 5-9.5.5 1.5-2.5-.5-3.5-5.5 2.5 1 3q-16.46-2.46-22 6l-2.5 3.5-.5-2.5 6.5-9.5 24.5-6.5 1.5-2.5Zm31 1 12 23 2.5.5 8.5 11.5 3.5.5-.5 18.5-7-1-2 3-1.5.5 11 12q1.75 20.75 13.5 31.5l1.5.5 3 6-1.5-.5-13.5-5.5-10-28v-2l-2.5-7.5-6.5-5.5-2-28-11-26 4-1-3-1 1.5-1.5Zm-123 5q17.17-3.17 22.5 5.5l-28.5.5-.5-2.5 6.5-3.5Zm79 12h11l17.5 8.5-.5 7.5-.5-2.5-.5-1.5-1.5.5-.5 1.5-3-5-3.5-1.5 2-1-2.5-.5-3 1-6-1-1.5 3.5 13.5 7.5 3-2-1 3 2.5-.5.5-1.5.5 1.5-12.5 6.5-4-5-4-1-1.5.5-.5-6.5-23.5-.5 2.5-4.5 12-2 3 1 2-6Zm5.5 6-1 3h1v-3Zm-61.5-3 .5 8.5-1.5-.5-4.5-2.5 1.5-2.5 4-3Zm-15 3 3 5 1-4 2.5 4.5-3.5.5-5.5-3.5 2.5-2.5Zm-12 6 3.5.5 2 11-1.5.5-6.5-3.5 2.5-8.5Zm41 36 4.5 1.5.5 2.5 3.5 1.5-7.5.5-2.5-4.5 1.5-1.5Zm17 0 4.5 2.5-1.5-.5-2-1-1.5 2.5 3 2-.5 2.5-7.5-4.5 5.5-3.5Zm80 6 3.5 5.5-.5 1.5-5.5-4.5 2.5-2.5Zm-81 18 11.5 5.5-2 1 3 5-34.5.5v-1l22-11Zm-26 12 2.5.5-.5 5.5-5.5-2.5 3.5-3.5Zm105 0 5.5.5-3.5 4.5-2-5Zm11 6 6.5 1.5-1 6 2 7-2 7 3 2 .5 1.5 6-1q12.25 38.75 39 63l1.5-.5 7 9-2 1 18 25-2.5.5-3-5-6-3-1 2-7-8-4 1-2.5-1.5 2-5-15.5-12.5-.5 3.5 4 2-4 1v2l4 6-1.5.5-2-3-1.5-.5v-2l-.5-1.5-2.5-.5-9-11 2.5-1.5 1 2 7 3-3-5 3.5 2.5-2.5-3.5-6.5-4.5.5-1.5-2 1-10.5-4.5-.5-2.5-2.5 5.5 1.5 2.5 1.5.5 1 3 8 18-3.5.5-3-4-12.5-11.5-.5-1.5-1.5.5.5-1.5-2 1-23-7-11 5-3.5-4.5v-25l6-12-1-3 2-6-1-2 5.5-10.5 1.5 6.5-1 22 7.5 14.5 12.5 2.5 7.5 13.5 5 2 .5-2.5-9-25 4.5-9.5 16.5 15.5 9.5 16.5 8 6 .5-3.5-17.5-24.5-3.5-2.5-2-5 3-2-1-5 .5-1.5-1.5-.5.5-1.5-1.5-.5 1-2-3-1-3.5-5.5-5.5-3.5-1-2 .5-1.5-1.5-.5-5.5-11.5-5.5-2.5 1.5-3.5 6-2Zm16.5 31-1 2h1v-2Zm4 8-1 2h1v-2Zm1 2-1 4 4 3-3-7Zm-8 19-1 3 6 3v-3l-5-3Zm-2 19v5h1l-1-5Zm2.5-79 4.5 2.5-5.5 3.5-.5-4.5 1.5-1.5Z"/><path fill="#000A24" stroke="#000A24" stroke-width="3" d="m429.5 239 2.5 1.5-2 1 3 1-7.5 4.5 2-4-4 3 1.5-2.5.5-1.5 4.5-1.5-.5-1.5Zm-.5 3v1h1l-1-1Zm-149.5-2 5.5.5-2.5 4.5-1-4-3 5-1.5-.5 2.5-5.5Zm76 0 4.5.5-2.5 5.5-3.5-1.5 1.5-4.5Zm79 1 2.5.5-2.5.5v-1Zm-12 12 .5 1.5h-1l.5-1.5Zm-1 3 .5 1.5h-1l.5-1.5Zm-148 2 2.5.5-1 8 1 3-2.5.5-3.5-5.5 3.5-6.5Zm10 0 3 1 4-1 5 6-1.5.5 5.5 12.5 1-2 5.5 1.5-3.5 5.5-2.5-.5 1-2-3-2-3.5-7.5q.1 22.1-7.5 36.5l-14 25 2.5 1.5 1-2 24.5-22.5.5-2.5 1.5-.5-1-3h1l.5 2.5 2-1 .5 12.5-4 2-2.5 6.5-2-1-1.5 2.5 2 4-2 3 2.5 1.5 1.5-.5.5 1.5 3.5-1.5 1.5-3.5.5 5.5-11.5 15.5-2.5 1.5-1.5 2.5-6.5 4.5-5.5 11.5-2.5-.5.5-10.5 4.5-2.5 1-3 5-12-.5-1.5 1.5-.5-1-4-2.5-6.5-10 6-.5-2.5.5-1.5-3 1-3.5-1.5 1-6-5-6 12-20-3.5-.5-2.5 1.5 9.5-24.5 2.5.5.5 3.5 1.5-.5q-3.25-12.75 3-16l-1.5-.5-3.5 2.5 1.5-8.5Zm3.5 9-2 2 2 9 1-10-1-1Zm-8 21-3 4 1 2 5-3v-2l-3-1Zm11 55-2 3 2-1v-2Zm2 1-3 6h3l1-5-1-1Zm2 5-6 4 1 1 5-3v-2Zm156.5-85 2.5.5-2.5 1.5v-2Zm1 5 3.5 1.5-1.5 4.5-2.5-1.5.5-4.5Z"/><path fill="#000A24" stroke="#000A24" stroke-width="3" d="m302.5 290 .5 6.5h-1l.5-6.5Zm-1 37 .5 2.5h-1l.5-2.5Zm183 5 7.5 6.5-6.5-5.5-1-1Zm-218 2 1.5.5-1.5 3.5-1.5-.5.5-1.5 1.5-.5-.5-1.5Zm232 13 5.5 4.5-.5 1.5-7.5-4.5 2.5-1.5Zm-273 19 5.5.5-22.5 17.5 11.5-12.5 1.5-3.5 4-2Zm-16 27-3.5 4.5-1.5 3.5-1-2-11 15-.5-1.5.5-1.5-2.5 1.5-5.5 7.5-5 2 1.5-2.5q3.28-17.72 16.5-25.5l1 2 11-3Zm40 3 2.5.5-2.5 9.5-1.5.5-10 12-7.5 8.5-8 5-.5-3.5 11.5-18.5 4-2 7.5-2.5 4.5-9.5ZM232 420l-4 6h3l3-5-2-1Zm-34.5-8 .5 1.5-5.5 8.5-.5-2.5 5.5-7.5Zm-16 12 1 2-1.5-.5.5-1.5Zm-8 4 2 4 2.5.5-8.5 4.5.5-1.5 3.5-7.5Zm-3 22-2.5 3.5.5 2.5 5-3-1.5 2.5-.5 1.5-15 10-.5-7.5 14.5-9.5Zm2 25-.5 1.5-3.5 7.5-1-4-3.5-.5 8.5-4.5Zm316 6 29 12 3-1 4 13 2-1 4 19 2-1 1.5 21.5 6 9v11q7.33 5.67 6 20v2l1 29-1 3q8.5 9.5 7 29l1 3 4 10 1.5 29.5 1.5.5 5.5 30.5 3.5 1.5-1 18 5.5 18.5 1.5.5 12 27-58.5.5-.5-1.5 2-10q-12.81-13.69-10-43l1-3-3.5-2.5-1 2 1.5.5-13 6-10.5 31.5-1.5-.5-2-9 6-18-2.5-4.5-1.5.5-.5-1.5-11 4-6-4-5 4-3.5-5.5v-29l3.5-.5 6 11 6-4 10 4 19.5-17.5 11.5-26.5 1 2v-3l-9.5-5.5-1-7-1-3-.5-2.5-6.5-2.5-5.5-27.5-13-7-12.5 7.5-10.5 14.5-19-12-12 1-3-4-6.5-5.5-.5-1.5-9.5-8.5-6-12 5.5-4.5h2l2.5 1.5 1.5 2.5 13 7 3.5-2.5-4-11 10-13q-6.96-5.54-5-20l3.5-6.5 11.5.5 18.5 34.5 7.5-8.5-8-20-8-10q8.42-9.08 6-29l6.5-7.5 15.5-5.5-8.5-9.5-2.5-1.5.5-3.5 8-5Zm20.5 24-10 8 2 2 6-4 5 16h2l2-5-2-15-5-2Zm-10 17-1 4 6 2v-2l-5-4Zm-7 6-2 1-4 5v13l10 20q-1 19-16 24l-11-3-10 1-19 16-10 1-2 4 13 8h28q10-12 30-15l34-52-4-16-4-3-11 29-7 1-7-7 2-8-5-16-5-3Zm-47 19v1h5l-5-1Zm92 17-1 4 4 2v-4l-3-2Zm-11 13-5 9-9 6v2l-1 2h2l-1 2 18 8 9-3-4-6 4-13-2-7-5 4-6-4Zm15 41 1 1 4 5v-4l-5-2Zm-9 13-7 6 2 2 7-2 2-3-1-2-3-1Zm9 49-5 5 10 29-6 18 3 13-1 11 9 3 7-14v-50l-3-5-9-10h-5Zm-16 11-2 3 3 1 1-2-2-2Zm6 12-2 3 3 1 1-2-2-2Zm-6 15-3 4 5 2 1-3-3-3Zm-24 3-2 3 3 1 1-2-2-2Zm34 41-1 2 2-1-1-1Zm-40 1v1h1l-1-1Zm38 13-1 2h1v-2ZM153.5 492l2.5.5-3.5 5.5-2.5-.5 3.5-5.5Zm-7 18 3.5 2.5-2.5 3.5-3.5-.5 2.5-5.5Zm7 12 2.5.5.5 3.5 1.5-.5-.5 1.5 9-5 .5 1.5-8.5 10.5-2.5-.5-2.5-5.5-3.5-2.5 3.5-3.5Zm2 13 .5 7.5-10.5 8.5-1.5-5.5 1.5.5 7.5-5.5 2.5-5.5Z"/><path fill="#000A24" stroke="#000A24" stroke-width="3" d="m446.5 535 1.5.5 1 2-2.5 1.5-.5-2.5.5-1.5Zm-285 13 2.5 6.5-2 1-.5-2.5-5 7-.5-1.5 5.5-10.5Zm21 4 3.5 1.5 6 19-3.5-2.5-8.5-.5-.5-5.5-5 3-.5-3.5 4.5-7.5 3.5-2.5.5-1.5Zm133 0 2.5.5-1 9 1 2q-7.42 21.58-24.5 33.5l-33 20-18.5 3.5-4.5 7.5-4 2h-2l-2.5-1.5-.5-1.5-4-3-1.5 3.5 1 2h-2l-.5 1.5-1.5.5-.5 4.5-1.5-14.5 9-7 1-4-3.5-5.5-21-11-2.5 5.5q5.5 14.5 3 37-7.19 11.81-7 31l-16 44 9 1 4.5 9.5 3.5-2.5 2.5-11.5 2.5 1.5 8.5 33.5 4-2-1 3 2-1 1.5 3.5-11.5 15.5-2.5-.5-1-22v-2l-1.5-4.5-1.5.5-2 5 1 2-3.5 7.5-1.5-.5-4.5-7.5-1.5.5-.5-1.5-2 1-1.5-.5-.5 1.5-1.5-.5-2 4v2l-1 2 1 14-5 8 3 7-3.5 7.5-2-21-6.5 2.5q-6.15 5.85-4.5 19.5l-5.5-.5v-12l13-28-1-12 4-2 2-6-1-3 7-23v-2l6-14-1-2 7-16-1-3q-1.1-18.1 7-27l-1-3 1-26-1-3 1.5-4.5 1.5-.5 1-4-1.5.5-1.5-.5-1-5 1.5-7.5q10.38 13.62 28.5 19.5l.5 1.5 1.5.5 1.5 2.5 32-2q25.7-8.8 40.5-28.5l12.5-23.5ZM219 600v1h1l-1-1Zm-38 104-1 2h1v-2Zm-9.5-128 2.5.5-3.5 10.5-2 1-.5-9.5 3.5-2.5Zm-10 1 .5 7.5-5.5 3.5.5-1.5 4.5-9.5Z"/><path fill="#000A24" stroke="#000A24" stroke-width="3" d="m196.5 595 .5 3.5h-1l.5-3.5Zm24 45 .5 4.5h-1l.5-4.5Zm2 3 5.5 12.5v2l-.5 1.5-2-4-1 2-.5-1.5-1-3-2-6 1.5-3.5Zm3 15 .5 2.5h-1l.5-2.5Zm1 7 .5 5.5h-1l.5-5.5Zm2 6 2.5.5 4 27-1.5 4.5-1.5.5-.5 2.5-4.5-33.5 1.5-1.5Zm24 31 5.5 1.5-1.5 4.5-4.5-.5.5-5.5Zm-52 2 1.5.5-1.5.5v-1Zm31 6 1 3 1.5.5-1 10 1 2-5.5 8.5-1.5-5.5 4.5-18.5Zm-31 27 1.5.5-1.5.5v-1Z"/><path fill="#A5DCF2" stroke="#A5DCF2" stroke-width="3" opacity=".996" d="M313.5 66q13.25-3.25 16.5 3.5l-.5 2.5q-13.75 3.75-17.5-2.5l1.5-3.5Zm16 24h7l14.5 12.5 9 18-12 17-1.5 24.5-4.5-1.5v-11l-8.5-17.5h-9l-18.5-9.5.5-2.5 5.5-.5v-12L325.5 92l4-2Zm-33 48 3.5 2.5-2.5 3.5-3.5-2.5 2.5-3.5Zm39 21 .5 3.5-12 30 5.5 8.5 12.5 4.5-2 4 .5 1.5-17 5-8.5-6.5-22.5-34.5-4.5-3.5.5-3.5q8.65 9.35 30 6l11.5-8.5 2-3-.5-1.5 4-2Zm8 15 4.5 1.5-2.5 10.5-3.5-2.5 1.5-9.5Zm-4 78 8.5 1.5-1.5 4.5-10.5-.5 3.5-5.5Zm165 72 5.5 3.5 1.5 2.5 10 3 21.5 21.5 3 11-2.5.5-39-42Zm-267 24 2.5.5-3.5 5.5-2.5-.5 3.5-5.5Zm84 12 20 6 1-6 5.5 2.5 1.5 3.5 17-6q4.76 7.24 18 6l9.5 7.5 2 41q-7.24 4.76-6 18l-7.5 9.5-34 2-13 6-8.5-6.5-3-5v-25l6-12-12-17v-19l3.5-5.5Zm198 0 12.5 5.5 3.5 4.5 10.5 2.5.5 5.5 12.5 8.5q20.84 18.66 29 50l-3.5 1.5-3.5-1.5-18.5-27.5-1.5-.5-8.5-15.5-1.5.5-23.5-25.5-3.5-1.5v-2l-1.5-3.5-1 4-2-5Zm-305 13 1.5.5-15.5 16.5-2.5-.5 2-5-.5-1.5 7.5-4.5-.5-1.5 8-4Zm-25 17 2.5.5-2 5 .5 1.5-16 11-.5-3.5 2.5-3.5 13-11Zm92 18 .5 6.5-11.5 22.5-1-2-4.5 6.5 5 8-3 1-3 5v25l-6.5 8.5-15.5 10.5-8.5 13.5-17.5 11.5-2.5 3.5-3.5-.5q-8.29-6.71-6-24 6.5-19 21.5-29.5l5.5-.5.5-1.5 5.5-3.5 20.5-41.5 1 2 6-12 17-9Zm-107 30 2.5.5-2.5 4.5-3 1-3.5-.5.5-2.5 6-3Zm-14 7 1 2-5 2-.5-1.5 4.5-2.5Zm257 5 2.5.5q7.94 6.06 6 22l-2.5 1.5q-9.6-4.4-9.5-18.5l3.5-5.5Zm-283 30 3.5.5-1.5 23.5-4.5-1.5v-20l2.5-2.5Zm-6 54 3.5.5-2.5 5.5-3.5-2.5 2.5-3.5Zm6 12 4.5.5-3.5 5.5-3.5-.5 2.5-5.5Zm39 3 .5 5.5-5.5 3.5.5-1.5 2.5-3.5 1.5-.5-4-1 4.5-2.5Zm-45 33 4.5.5-1 4 .5 1.5-6.5-2.5 2.5-3.5Zm10 6 5.5.5q2 9.5-3.5 11.5l-2-12Zm-10 6 3.5.5-.5 5.5-5.5-2.5 2.5-3.5Zm195 6 6.5 1.5q.43 11.57 8.5 15.5l3.5-2.5-.5-2.5-3.5-1.5-2-9 4.5-1.5 2 12 3.5 1.5 2 5-3.5 4.5-16 1-3.5 3.5-2.5 8.5-16.5-1.5q-3.72-16.22 3.5-21.5l8.5-3.5 3.5-8.5 2-1Zm-192 45 .5 2.5-3.5 6.5-2.5-.5 3-5-2-1 4.5-2.5Zm-20 33 8.5.5v18l-18 53v13q-7.97 7.03-6.5 23.5l-5.5-.5-.5-29.5-4.5-1.5 2.5-4.5 7.5-3.5 1-44 15.5-24.5Zm498 30 2.5 1.5 6 16v18l-1.5-.5-8.5-6.5-2-23 3.5-5.5Zm-367 66 3.5.5-1.5 3.5-4 2-.5-3.5 2.5-2.5Zm-42 6 3.5 2.5-.5 3.5-5.5-.5 2.5-5.5Z"/><path fill="#0057BF" stroke="#0057BF" stroke-width="3" opacity=".973" d="m330.5 64 5.5 3.5-1.5 4.5-4.5-2.5-2-3 2-1 .5-1.5Zm23 1 .5 3.5-5.5 2.5-.5-1.5 5-3 .5-1.5Zm-29 11 5.5 3.5-1.5 4.5-5.5-.5 1.5-7.5Zm19 2q28.73-3.73 40.5 9.5-4.3 20.3 4.5 27.5l1.5.5-.5 7.5-7 4 1.5-4.5-.5-2.5-3.5-1.5-2-23-7.5-9.5-17-2-10-6Zm-58 12 1.5.5-2.5 5.5-1.5-.5 2.5-5.5Zm11 4 1.5.5-2 1-1.5 3.5-7 4-3.5-1.5 12.5-7.5Zm-11 14 2.5.5-8.5 23.5-3.5-.5q-2.5-17.5 7.5-22.5l2-1Zm17 18 3.5 1.5 1.5 2.5 3.5 1.5-12.5 1.5-3.5-1.5 7.5-5.5Zm-9 7 .5 2.5 1 3-1 4-.5 2.5-2-1-2.5 4.5.5 1.5h-4l-2.5-.5 4.5-10.5 4.5-2.5 1.5-3.5Zm37 3q6.98 3.02 5.5 14.5l-5.5 10.5-1.5-3.5.5-1.5-1.5-.5 2-5-2-1 2.5-13.5Zm-58 2 3.5.5-1.5 11.5-4.5-1.5 2.5-10.5Zm40 5 5.5 1.5-2.5 5.5-3.5-2.5.5-4.5Zm-25 8 2.5.5-2.5 12.5-5.5-4.5 1.5-3.5 2.5-1.5 1.5-3.5Zm15 5 13.5 5.5-.5 6.5-4.5-.5 1-2-9-4-2-4 1.5-1.5Zm51 1 .5 5.5-5.5 7.5-.5-2.5 5.5-10.5Zm18 3 1 2 5-1 2 5 15.5 7.5-5.5.5q-5.74-7.76-21-6l-2.5 1.5 5.5-9.5Zm-101 3 5.5 12.5-5.5 11.5v-24Z"/><path fill="#0057BF" stroke="#0057BF" stroke-width="3" opacity=".973" d="m405.5 168 2.5.5v11l-12 24v15L382.5 232l-10 2q.76-12.26-7-16l-3.5-1.5-2.5-4.5-5-1-1 2-16 3v-1l16.5-7.5-2.5-3.5q-15.71 2.21-19.5-7.5l-1-3 4.5-6.5 2 11 15 6h12l1.5-.5q-1.54 13.54 7.5 16.5l5 2 9.5-7.5 14-40-5-1 8.5-5.5Z"/><path fill="#0057BF" stroke="#0057BF" stroke-width="3" opacity=".973" d="m348.5 172 5.5 7.5-5.5 8.5v-16Zm-78 18 5.5 12.5h-1l-4.5-12.5Zm13 8 6.5 4.5q8.55 9.45 4 32l20.5 29.5q13.43 9.57 40 6l9.5-7.5 2-5-3-5 6.5-.5 2.5 5.5-6.5 9.5q-8.25 11.25-30 9l-22-8-7.5-7.5-1.5-2.5-13.5-6.5-4-24 1-11-3-1q5.75-2.75.5-5.5l-3.5-2.5 1.5-9.5Z"/><path fill="#0057BF" stroke="#0057BF" stroke-width="3" opacity=".973" d="m329.5 220 .5 1.5-6 11 1.5 2.5-6.5-2.5 2-4-2-1 10.5-7.5Zm-55 8 7.5 3.5-5.5 12.5-4 3 3.5-4.5-.5-2.5-5 3-1-3-1.5-.5 2.5-7.5 5 2 .5-3.5-1.5-2.5Zm64 0 3.5 2.5-2.5 3.5-3.5-2.5 2.5-3.5Zm20 1 1 2-5 2-.5-1.5 4.5-2.5Zm-22 14 7.5 8.5-12.5.5v-1l4.5-2.5-1-3 1.5-2.5Zm138 8 2.5 1.5-3 6 8 22 7 7-3 1-.5 4.5-11.5-22.5-1.5-12.5-4.5 2.5-.5 3.5-2.5-.5-2-7 2.5-4.5 9-1Zm6 3 .5 1.5h-1l.5-1.5Zm-216 2 3 2 2.5-1.5-1.5 7.5-4.5-1.5.5-6.5Zm230 8 1.5.5-1.5.5v-1Zm-186 18 3.5 1.5 1.5 2.5 3.5 1.5 8.5 11.5-13-11-1 5-3-5-2.5-1.5 2.5-4.5Zm-39 19 .5 4.5-5.5 10.5-1.5-2.5 6.5-12.5Zm61 1 5.5 11.5-4-3-3-5 1.5-3.5Zm168 3 .5 1.5h-1l.5-1.5Zm-247 2 1 5 5-1 .5 1.5-17.5 31.5-.5-1.5 12-24-1.5.5-8.5 6.5-13.5 20.5-3.5 1.5-3 6 5 1-9 6-1.5 4.5-3.5.5 3-5-3.5-.5-2.5 1.5-.5-1.5-1.5-.5 14.5-18.5 4 1 7.5-11.5-2-1 2.5-6.5 8 1 3.5-5.5-3-1 2.5-5.5 1 4 5-9Zm61 6 5.5 11.5-6 11q3.69 17.69-3.5 24.5l-6.5 1.5-1.5 3.5-.5-5.5 12-29 .5-17.5Zm186 2 1 4-1.5-.5 2-1-1.5-2.5Zm26 3 1.5.5-1.5.5v-1Zm-2 2 .5 1.5h-1l.5-1.5Zm-264 3 5.5 2.5-2.5 4.5-3 2-1-2-2.5-.5 3.5-6.5Zm260 1 1.5.5-1.5.5v-1Zm-170 4 6.5 9.5-1.5 3.5-6.5-11.5 1.5-1.5Zm-103 18 .5 1.5-5.5 8.5-.5-2.5 5.5-7.5Zm119 1 12.5 6.5-5.5.5-8.5-5.5 1.5-1.5Zm15 1 4.5 1.5 1.5 2.5 3.5 1.5-9.5.5-1.5-4.5 1.5-1.5Zm28 0h42l12.5 7.5-14.5 21.5-7-4-6.5 5.5-12.5 13.5-2.5-1.5 6.5-11.5 4.5-2.5 8.5-14.5 1.5-.5.5-1.5 3.5 1.5 2.5 10.5 3.5-2.5q3.25-12.25-2.5-15.5l-50.5-.5 10.5-5.5Zm-139 1 1.5.5q2.34 17.84-8.5 22.5l2.5-3.5-.5-14.5-6 4 2.5-3.5.5-1.5 8-4Zm-41 11 8.5.5-13.5 7.5.5-3.5 2.5-3.5 2-1Zm19 0 4.5.5-11.5 6.5 1-4 6-3Zm59 3 .5 3.5-7.5 17.5-7.5.5-.5 1.5-.5-1.5 9.5-16.5 3.5-1.5 2.5-3.5Zm211 1 5.5 7.5-6 1 22 25 4 27 17.5 17.5 12.5 6.5 12.5 25.5 3.5-2.5q-1.89-15.39 5.5-21.5l.5 38.5q-8.25 5.75-6 22l5.5 10.5 1-3 1.5 3.5-1 2 2.5 3.5 1.5.5-5 1 8 17-2 1 1 5-1 42 2.5.5 3.5-2.5 2 20-2 1 3.5 10.5 1.5-.5.5-1.5.5 19.5-2.5 1.5-9.5-14.5v-10l-8.5-11.5-3.5-2.5-2.5-3.5-3.5-1.5-10.5-23.5-1.5-.5q-1.96-14.46 5-20l-4-6 4-6q-8.65-7.35-5-27l6-12-2.5-3.5-18.5-14.5-7.5-12.5-1.5-.5-2.5-16.5-3.5-1.5q-1.74-16.26-13.5-22.5-6-10.5-21-12l-3 4-4 1-5-12-1.5-.5-3.5-10.5-2.5-1.5-6-23 3.5-5.5 8.5 1.5.5 2.5 6 2 3.5-2.5 5.5-8.5 8.5-1.5.5-1.5ZM489 384l-3 3 15 27h25l2-2-31-26-8-2Zm-261.5-8 .5 2.5-11.5 16.5-4.5 2.5-7.5 15.5-7.5 2.5 16-25 14.5-14.5Zm337 2 6.5 2.5 7 9-1 2 8.5 15.5 1.5-.5.5-1.5 2.5 8.5-3.5.5-11.5-8.5-17-24 3.5 2.5 2.5-.5.5-5.5Zm-313 3 .5 2.5-9.5 18.5-7.5 2.5-12.5 19.5-.5-6.5 13.5-19.5 8.5-3.5 7.5-13.5Zm-20 4 2.5 1.5-10.5 8.5-.5-1.5 6.5-7.5 2-1Zm66 5 6.5 1.5 8 22-7.5.5-5.5-3.5-.5-1.5-3.5.5-.5 2.5-.5-16.5 3.5-5.5Zm-21 11 4.5 1.5-8 5 2 1-12.5 6.5-.5-1.5 14-11 .5-1.5Zm171 1 8.5 1.5.5 2.5 23.5 9.5 2.5 4.5 3.5 1.5v11l-24 29q2.23 16.73-5.5 23.5l-.5-35.5q12.8-12.7 18-33l-24-5-2.5-3.5-6 6q-18.14-3.14-24.5 5.5l-2.5 5.5-3 1-9.5-.5q-2.06-16.06 5.5-22.5l1.5 3.5-1 13 2.5.5 7-12 2.5.5.5 5.5 4.5-1.5.5-1.5 22-9Zm-288 12 2.5.5-2.5 5.5-2.5-1.5 2.5-4.5Zm93 5 4.5 1.5-12.5 6.5-2.5-1.5 10-5 .5-1.5Zm-79 4-.5 3.5-4.5 9.5-1.5-3.5 6.5-9.5Zm24 3 .5 3.5-5.5 2.5-.5-2.5 5.5-3.5Zm-36 4 .5 2.5 2 5-2 1 1 5-16.5 6.5v-1l7.5-5.5 2-5-5-1 4.5-2.5 1 2 5-7Zm54 5-.5 3.5-17 35v6l3.5.5 3.5-.5-13 24v43l7.5 9.5 3 1 11-23 14-6 3 6 9.5 1.5-.5 2.5-1.5.5-3.5 4.5-1-3-10 2q-6.65 14.35-25.5 16.5l-1.5 11.5-4.5-2.5-6-16-.5-35.5-3.5.5-2 18-5.5 7.5-1-14-5.5 3.5-.5 9.5-4-1-7 16-3.5 1.5-2.5 5.5-1-2-5 7-1-4-2.5-.5 3.5-5.5 9.5-7.5 2-4-2-1 7.5-9.5 3.5-1.5 2.5-5.5 4.5-2.5 1-2-5-11 9.5 8.5 2.5-2.5q-3.25-12.25 2.5-15.5l1.5-.5 8.5-12.5 3 1 2.5-5.5-3.5-.5-2.5 1.5 6-26q5.08-16.92 17.5-26.5Zm-66 1 .5 1.5-3.5 6.5-2.5-6.5 1.5.5 4-2Zm36 2 2.5.5-12.5 5.5v-1l10-5Zm42 2 .5 4.5-5.5 8.5.5-3.5 4.5-9.5Zm-35 1 5.5 4.5-2.5 4.5-3.5-.5-1.5-3.5-2.5-.5 4-2 .5-2.5Zm-7 5 1.5 3.5-4.5 12.5-2.5.5-.5 1.5-3-1-3 8-7 4-.5-1.5 2-5-3.5-.5-8.5 11.5 2.5.5 6-5-1 2-3.5 2.5-.5 1.5-7.5 5.5-8 17 2 1-3.5 4.5-1.5.5-2.5 3.5-.5-3.5 6-16v-2l.5-1.5 3 2 2.5-5.5-3.5-.5-2.5 1.5-.5-1.5-3.5 1.5-.5 1.5-.5-1.5 4.5-6.5 2.5-.5 1.5-2.5 5.5-3.5-.5-1.5q15.98-4.52 24.5-16.5l-.5-1.5 7.5-5.5 1.5-3.5Zm111 4 1.5.5-1.5.5v-1Zm-2 2 .5 1.5h-1l.5-1.5Zm5 0 .5 1.5h-1l.5-1.5Zm-3 3 1.5.5-1.5.5v-1Z"/><path fill="#0057BF" stroke="#0057BF" stroke-width="3" opacity=".973" d="m215.5 460-.5 3.5-4.5 9.5-1.5-3.5 6.5-9.5Zm-66 3 1.5 3.5-6.5 11.5-.5-4.5 5.5-10.5Zm28 11 5.5.5-3.5 12.5-3-1-2.5 1.5-3.5 4.5-2.5-.5 9.5-17.5Zm166 12 10.5 1.5 6 16v29q-15.62 2.88-22 15l-11 29-20.5 28.5-1.5-3.5 23-33 4-21 15.5-16.5 1.5-.5q6.96-5.54 5-20l-3.5-5.5-3-1-5.5 3.5.5 2.5 4.5 2.5-7.5 8.5-15-5-26.5 16.5-7.5 24.5-11 2q-10.86 14.64-34 17l-4.5-2.5 5-10-2.5-3.5-9-2-22 17-2.5-5.5 8.5-15.5 15-10 1 2 11.5-2.5 2.5-3.5q16.93 1.93 21-9l.5 3.5-5.5 10.5-1-2q-9.87 5.12-11.5 18.5 2.75 5.25 5.5-.5l20.5-13.5.5-1.5 1.5.5.5 1.5 5 4q6.5-4 2.5-18.5l14.5-17.5 38.5-15.5 2.5-14.5Zm97 0 1.5.5-1.5.5v-1Zm9 15 .5 2.5-5.5 8.5-.5-3.5 5.5-7.5Zm-276 1 .5 2.5-5.5 7.5-.5-1.5 5.5-8.5Zm-22 2 10.5.5-3.5 5.5-8.5-1.5 1.5-4.5Zm216 6 4.5 1.5q3.41 19.09 15.5 29.5l2 1 1.5-.5 8 16-2.5.5-18.5.5 7 19-1.5 3.5-17.5-40.5v-29l1.5-1.5Zm76 3 .5 1.5-2.5 1.5v-1l1.5-.5.5-1.5Zm-290 3 2.5.5-.5 2.5-4 2-.5-1.5 2.5-3.5Zm278 3 .5 1.5-2.5 1.5v-1l1.5-.5.5-1.5Zm-29 6q2.89 5.61 13.5 3.5l-2 3 2 1 4 10-10.5 17.5-1.5-.5-6-16 5-7-4.5-11.5Zm-264 2 7.5 1.5-2 5 2 1-1.5 3.5-1-3-2.5 4.5 2 1-12.5 5.5 5-6 2.5-1.5-1-4 1.5-7.5Zm-8 31 7.5.5-3.5 5.5-4.5-.5 1-4-.5-1.5Zm271 2 4 3 2.5-1.5-3.5 2.5-3-4Zm-228 2 .5 5.5-11.5 4.5-.5-4.5 11.5-5.5Zm-18 6 .5 2.5-3 5 3 2 1 3-6.5 11.5-.5-4.5 5-10-1.5-.5-13 10-4-5-6.5-.5 4.5-5.5 5 6 2.5-1.5 5.5-10.5 8-2Zm235 16 11.5 21.5-12 7 1.5 3.5 10.5 5.5 1.5 2.5 10.5 1.5q3.67 23.17-9.5 29.5l-2 1-.5-23.5-2.5-2.5-5.5 4.5-.5 1.5-3.5-1.5q2.06-13.56-4.5-18.5l-1.5-.5-6-14 3.5-1.5 1 2 5 4q6.25-3.75 2.5-17.5v-2l.5-2.5Zm-231 4 1.5.5-2.5 5.5-2.5-.5 3.5-5.5Zm-22 4 2 8 4-2 1 2 4.5.5q-7.81 9.19-5 29l2.5.5 7.5-5.5 3.5-6.5 4.5 1.5-.5 4.5-3.5 1.5q-9.92 8.58-8 29l8.5 11.5 3.5 1.5-1.5 22.5-2.5.5-8.5 22.5-10.5-7.5 11-22-2.5-3.5-6-2-9 29-.5-17.5 6-11v-51l-5-3 5-1-.5-5.5-2.5-.5 9-11-5.5-2.5-1.5.5-5-9 5.5-3.5Zm17.5 33-4 2q-12 5-4 9l8-9v-2Zm137.5-9 2.5 1.5-2.5 4.5-5 3-3.5-1.5 8.5-7.5Zm-22 23 11 17 1.5-.5 4.5 7.5 5.5 2.5-5 1-3.5 10.5-7 1-11-24-2.5-1.5 1.5-4.5 10 6 .5-3.5-3-2-2.5-9.5Zm6.5 27-1 4 4 2 2-3-5-3Zm335.5-13 4 1 1.5-.5 2 6-2 1v6l14.5 29.5 3-2 2.5 7.5-2 1 3.5 10.5 1.5-.5.5-1.5.5 17.5q-10.31 9.19-6 33l3.5 5.5 5 1 3.5-2.5q2.23 15.73-6.5 20.5l-5.5-.5q2.12-16.62-6-23v-31l1.5.5 2.5-1.5 2-14-1.5-2.5-4.5.5-.5 10.5q-7.73-6.77-5.5-23.5L610.5 680l-7-2-9 23-.5-10.5 15.5-24.5 2.5-.5.5-12.5Zm-257 1 4.5 1.5-.5 4.5-5.5-1.5 1.5-4.5Zm34 6 8.5.5-1.5 2.5-17 5-17.5 12.5-2 10-17 27 4 6-5.5 2.5-23.5-13.5 1.5-4.5 2.5-.5 2-6-13-19 1.5-1.5 7 7 5 2 15.5-13.5 3.5-10.5q18.54-3.04 26 5l20-11Zm-94 6q8.75-1.75 10.5 3.5l1 3-2.5 1.5-1-2 1.5-.5-9.5-5.5Zm110 0 2.5.5-8.5 10.5-2.5-1.5 8.5-9.5Zm-274 49 1 11 18-6 4.5 3.5 1 21-18.5 41.5-11.5-.5 6-12-6-11v-37l5.5-10.5Zm462 0 .5 11.5q-10.41 10.59-6 36l6 16h-1l-11-22q2.03-16.53-5-24l14-12 2.5-5.5Zm-334 11q7.69 7.31 22.5 7.5v17l10.5 24.5 1.5.5-.5 10.5-17.5-.5-2.5-5.5-3 2-.5-2.5 3.5-5.5 8.5-2.5-17-26 5-4-9.5-9.5-2.5 1.5 1.5-7.5Zm64 18 .5 27.5-4.5 2.5-1.5-24.5 3.5-4.5 2-1Zm-116 18 2.5.5-3.5 5.5-1.5-.5 2.5-5.5Zm32 10 1.5.5-6.5 12.5-.5-5.5 5.5-7.5Zm-38 2 2.5 6.5-1.5-.5-4 1 .5-1.5 2.5-5.5Zm196 0 4.5 1.5-1.5 4.5-4.5-2.5 1.5-3.5Zm-53 6 3.5 2.5-.5 3.5-5.5-.5 2.5-5.5Z"/><path fill="#001D3F" stroke="#001D3F" stroke-width="3" d="m359.5 64 1 2 1.5.5-2 4 .5 1.5-7-1-3 1v-1l9-7Zm-3.5 6v1h2l-2-1Zm21.5-5 .5 3.5-5.5 3.5-.5-2.5 5-3 .5-1.5Zm-71 7 10.5 5.5-3 1 4 3-2.5.5-7.5-3.5-2-4 .5-2.5Zm74 0 3.5 2.5 3 9-5.5-4.5-3.5-1.5.5-2.5 2.5-.5-2-1 1.5-1.5Zm16 6 5.5.5-1 8 3.5 4.5 4 1 5-1 2.5 1.5 1 3-6 1 .5 1.5-1.5-.5 26.5 36.5 2.5 1.5 2.5 8.5 2-1 .5 3.5-4 3-.5 2.5-1.5-.5-.5-1.5-2.5-.5-9.5-20.5-4.5 1.5 10 23 1 27 7.5 9.5 2.5 1.5 2 7-1 2 7 16-2.5-1.5-3.5.5-2.5 5.5-4.5-5.5 2-13q-3.5-8-7-2l-.5 4.5-2.5-5.5 9-5q-9.55-4.45-10-18l2-17-3.5-6.5-3.5-2.5-11-21-1-14-7-21-7.5-10.5-1.5-.5 1.5-5.5Zm16.5 30 4 13 3-2-2-6-5-5Zm11 19-2 2h3l-1-2Z"/><path fill="#001D3F" stroke="#001D3F" stroke-width="3" d="m402.5 99 .5 2.5h-1l.5-2.5Zm32 19 1.5.5-1.5.5v-1Zm-26 1 .5 6.5h-1l.5-6.5Zm-18 7 1.5.5-1.5.5v-1Zm-2 1 2.5 1.5-8.5 3.5-.5-1.5h2l.5-1.5 1.5.5.5-1.5 1.5.5.5-1.5Zm-72 5 7.5 3.5-.5 2.5-7-6Zm54 6 2.5.5-2 5 7 2-.5 4.5-3-1-14.5 4.5.5 2.5 7.5.5-.5 1.5h-2l-3.5.5 2 1-8 3-1.5 3.5-.5-4.5 3.5-6.5 1.5.5 1-7h-1l-.5 1.5-.5-2.5 2-1 .5 1.5 7-9 3-1ZM359 158v2h3l-3-2Zm-37.5-14 2.5.5-1.5 3.5-3.5.5 2 1-1.5.5-1.5-2.5 3.5-3.5Zm-11 1 1.5 3.5-5.5 3.5-1-3-1.5-.5 6.5-3.5Zm-3.5 3v1h2l-2-1Zm87.5-2 15 5 1.5-.5-1 2 1 6-4 5 .5 1.5-2-1v2l-8 2v-1l2-1 1.5.5 2.5-3.5 2.5-1.5.5-2.5 1.5.5-2.5-9.5-11-4Zm8.5 19v1h1l-1-1Zm-100.5-16-2 3-6 3-.5-1.5 8.5-4.5Zm110 5 .5 3.5h-1l.5-3.5Zm-98 2 7.5.5.5 2.5 1-2 .5 1.5-4.5 3.5-1-2 3.5-.5-7.5-3.5Zm68 0 1.5.5-1.5.5v-1Zm4 6 3.5 1.5 3 4-5.5-4.5-1-1Zm40 7 .5 13.5h-1l.5-13.5Zm16 11 2.5.5-2 6 4.5 5.5 1.5.5 1 2-10-9-1-2 2-1 1.5-2.5Zm-85 6 2.5.5-.5 3.5-4.5-1.5 2.5-2.5Zm-2 4 5.5 2.5-1.5 2.5-5-3-1.5.5.5-1.5 2-1Zm71 3 .5 4.5h-1l.5-4.5Zm-77 1-.5 1.5.5 2.5 1-2 11.5 7.5-7.5.5-6.5-3.5 1.5-6.5Zm7.5 7v1h1l-1-1Zm93.5 0 3.5 2.5 7.5 14.5 1.5.5 5 14-2 1 1-2-2.5-5.5-4.5-2.5-9.5-22.5Zm12.5 19-1 2h1v-2Zm1 3-1 2h1v-2Zm-118.5-7 7.5.5-8 2 2 1-12.5 5.5 1-3-2 1-1-2 3-1 1 2 7.5-2.5 1.5-3.5Zm13 0 9.5 5.5-2.5.5-7-6Zm70 2 1.5.5 2 4-1.5-.5-3.5 1.5-.5 5.5-.5-6.5 2.5-4.5Zm-65 4 3.5 1.5-1.5 3.5-2-5Zm78 0 6.5 11.5-11 3-1.5 3.5-10.5 2.5-4.5 8.5-.5-3.5 9.5-21.5 4.5 1.5-2 1 2.5 4.5 3.5-4.5-2-1 4-3 1.5-2.5Zm-112 2 1 3 2-1v1l-4 1-.5-2.5 1.5-1.5Zm39 3 3.5 4.5-5.5 2.5-.5-2.5 2.5-4.5Zm-36 1 1.5.5-2.5 1.5 1-2Zm32 0 2.5.5-2.5.5v-1Zm91 0 5.5 2.5.5 1.5 2-1 1.5 4.5-7.5 4.5v-1l4.5-2.5-4-3-2.5-5.5Zm-5 11 2 1 2.5.5 1.5 10.5 2.5 1.5.5 4.5 3-8 5.5-2.5-2-1 1.5-3.5 1 4 3.5.5-8 6-2.5 10.5-1.5-2.5.5-1.5-10.5-3.5 1-9-2-5 1.5-2.5Zm13 0 2.5.5-2.5.5v-1Zm-178 1 4.5 11.5-2.5.5-3-8-1.5-.5 2.5-3.5Zm61 0 6.5.5-3.5 1.5-3-2Zm-65 1 .5 1.5-1.5 3.5-1.5-.5 2.5-4.5Zm1 4 1.5.5-.5 1.5-1.5-.5.5-1.5Zm4 11 3.5 1.5-3.5 1.5v-3Zm7 4 4 5-5.5-3.5 1.5-1.5Zm-17 1 4 2 1.5-.5-1.5 15.5-1.5-.5-2.5 9.5-.5-2.5 1-5-3-9 2-1-1-3 1.5-5.5Zm137 2 1.5.5-1 2v2l-1 7-1 3q-7.57 11.93-4 35l2.5 3.5h2l11-4 22 7 2-1 13 14 1.5.5 2.5 3.5 3.5-.5-10-20 .5-1.5-1.5-.5-1-5 4-1-.5 1.5 10 4 2-1 3 5 5.5 3.5 6 8-1.5.5-2.5-1.5-1.5-4.5-2 1-6-3-1.5.5 1-2-1.5-.5-1.5 2.5 10.5 11.5 1.5-.5 1 2-.5 1.5 2.5 1.5.5 1.5 2.5.5 1 2-2.5.5-13-3-5 1-3-1v1l15.5 1.5-15.5.5-2-3 1.5-.5q-10.28-12.72-34.5-11.5l-27 12h-7l-21-16-15 4-11-9-.5 1.5 9 8-1.5-.5-13-12-1.5.5-4.5-6.5-1.5.5q-6.91-21.09-24-32l1-2-6-3 .5-2.5 13.5 11.5 8.5 12.5.5-1.5-7-9 4.5-2.5 6 8 31 2 48.5-25.5 1.5-2.5ZM330 294l-1 2 2 1-1-3Zm3 4-1 2 2 1-1-3Zm3 4-1 2h1v-2Zm1 2-1 2h1v-2Zm6 7-1 2h1v-2Zm-38.5-36 2.5 1.5-1.5-.5-1-1Z"/><path fill="#001D3F" stroke="#001D3F" stroke-width="3" d="m274.5 276 .5 1.5h-1l.5-1.5Zm50 0 5.5 3.5-.5 1.5-5.5-2.5.5-2.5Zm15 12 23.5.5-23.5.5v-1Zm117 6 5.5 2.5-.5 3.5-5.5-3.5.5-2.5Zm23 5 7.5 10.5-3-2-4.5-8.5Zm-210 9 .5 2.5-1 3-4.5 6.5-.5-1.5 5.5-10.5Zm33 10 2.5.5-2.5 17.5-1-5-1.5.5 2.5-13.5Zm-.5 9-1 3h1v-3Zm-37.5-5 4.5 9.5-1.5 2.5-1.5.5.5 1.5-1.5.5 1 2-2 3 .5 1.5-8 2-1-3-.5 3.5 3 2-5.5.5-.5-8.5 8.5-4.5 3.5-1.5v-2l.5-9.5Zm2.5 3-1 4h1v-4Zm93.5 4 5.5.5-5.5.5v-1Zm69 0 11.5.5-11.5.5v-1Zm53 1 3.5.5-.5 1.5-3-2Zm-198 1 2.5 6.5 1 4-2 1v2l-6 13-.5 2.5-3 1 1.5-2.5 6-19-2.5-3.5-5.5-.5 8.5-4.5Zm-47 5 1.5.5-2.5 5.5-2.5-.5 3.5-5.5Zm257 1 3.5 2.5-5.5 4.5-1.5-2.5 3.5-4.5Zm-98 4 5.5.5-5.5.5v-1Zm-96 3-.5 1.5-8.5 12.5-8.5 6.5-.5 2.5-.5-2.5 4.5-6.5 5.5-3.5 1.5-2.5 3.5-2.5 3.5-5.5Zm-68 5 1.5.5-.5 1.5-7 3 2-3 4-2Zm11 5 2.5.5-3 5 .5 1.5-6.5 4.5.5 1.5-15 13-.5-1.5v-2l3.5-4.5 1.5-.5 4-5-.5-1.5 13-11Zm32 9 1.5 9.5-5.5 1.5-.5-1.5 1-2-2.5 1.5-2.5 1.5-1 2 6 1-13.5 1.5-.5-2.5 14.5-8.5 1.5.5 1.5-4.5Zm-2.5 5-1 2h1v-2Zm-13.5 18 2.5.5-4.5 9.5-1-3-6 3 9-10Zm-50 8 1.5.5-6.5 9.5-.5-2.5 1.5-2.5 1.5-.5-.5-1.5 1.5-.5 1.5-2.5Zm44 2 1.5.5-7 16 .5 1.5-7.5 5.5-3.5 7.5-7.5 5.5-1.5 3.5-4 2-8 2-.5-1.5 11.5-20.5.5 2.5-6 11 1.5-.5 14.5-11.5 11-12-.5-1.5 1.5-.5 3.5-9.5ZM223 433v3l2-1-2-2Z"/><path fill="#001D3F" stroke="#001D3F" stroke-width="3" d="M245.5 400v3l-1.5.5 1 2-5.5 2.5v-1l1.5-.5 4.5-6.5Zm-65 44 4.5.5-5.5 8.5-7 4 1.5-4.5-.5-2.5-13 6 2-3 18-9Zm-4.5 7-1 2h1v-2Zm37.5-7 8.5.5-6.5 8.5-5 2-.5-4.5 3.5-6.5Zm4.5 2-3 3 1 2 2-3v-2Zm-62.5 18 2 4 2.5.5-8.5 4.5.5-1.5 3.5-7.5Zm334 15 29.5 12.5-3.5-.5-27-10-8.5 5.5 1.5 4.5 2.5 1.5 5 7-2.5 3.5q-11.82.68-16.5 8.5l-3 12 1 2v2l-1 2 1 2-5 12q13 10 14 32l-5.5 3.5-19.5-33.5 1.5.5 3.5 2.5 14.5 27.5 3.5-1.5q-2.18-20.82-14-32l4-13-5-2-1-3 6-3 8.5-17.5 11.5-5.5-6-13 10.5-6.5Zm-322 4 1 2-3.5.5 2.5-2.5Zm-14 3 5.5.5-3 2 1.5.5 2-1 .5 4.5-4 6-.5 2.5-7 3 3-4 4.5-.5-4-1 4-6-2.5-.5-3 5-.5-4.5 3.5-6.5Zm310 0 1.5.5 1 5-1.5.5-2.5-4.5 1.5-1.5Zm-302 6 .5 3.5-3 2 2.5-5.5Zm10 0 5.5.5-2.5 4.5-1-4-3 5-2.5-.5 3.5-5.5Zm293 6 .5 2.5-2.5 4.5-.5-4.5 2.5-2.5Zm3 0 3.5 2.5-5.5 3.5-.5-1.5 2.5-4.5Zm55 0 3.5 5.5-2 1-1.5-6.5Zm-357 6 2.5.5-.5 16.5-5-9-2 3-.5-1.5 5.5-9.5Zm296 2 .5 1.5-5.5 10.5-.5-1.5 5.5-10.5Z"/><path fill="#001D3F" stroke="#001D3F" stroke-width="3" d="m506.5 506 7.5 1.5 2 10-2.5 4.5-2.5-1.5-3.5-8.5h-2l-2.5-1.5 3.5-4.5Zm3.5 3 1 3h2l-1-2-2-1Zm-347.5 6 2.5 7.5-7.5 4.5-2-5-3.5-.5 3.5-1.5 1 2 1.5-.5-.5-1.5 3.5-1.5 1.5-3.5Z"/><path fill="#001D3F" stroke="#001D3F" stroke-width="3" d="m159.5 516 .5 1.5-2 1 1.5-2.5Zm369 0 3.5 5.5-2 1-1.5-6.5Zm-388 6 3.5.5-2.5 5.5-3.5-2.5 2.5-3.5Zm10 4 2 9 1-7 4.5 8.5-2 1 1-2-1.5-.5-5 8-5 3-1.5-2.5q7.79-4.21 6.5-17.5Zm-1.5 14-1 2h1v-2Zm363.5-14 1.5.5-1.5.5v-1Zm22 11 9.5 16.5 1 19-2-1-8.5-34.5Zm-89 1 2 1 1.5-.5-2.5 1.5-1-2Zm-4 7-.5 1.5-3 17 3 12q-7.93 3.57-8 15l2 5-1.5 2.5-14.5-7.5-.5-1.5-1.5.5 3.5.5 10 6 1.5-3.5-1-8 8-14q-5.62-5.37-3-19l3.5-5.5 2-1Zm-258 1 2.5 6.5-1.5-.5-1.5-.5-.5-1.5-2.5-.5 3.5-3.5Zm261 1 5.5.5-5.5.5v-1Zm-266 4h2l1.5.5-2.5 4.5-2.5 1.5-2.5 5.5-.5-4.5 4.5-7.5Zm135 1 1.5.5q-8.22 23.78-26.5 37.5l-32 16h-23l-6.5-3.5-1.5-2.5-14.5-7.5 2.5 1.5 19 10h21q30.79-7.71 47.5-29.5l12.5-22.5Zm5 0 1.5 4.5-1.5 6.5-.5-2.5.5-8.5Zm227 0 .5 11.5h-1l.5-11.5Zm-390 8 1 4 1.5.5-1.5 3.5-4 2-4.5-.5 1.5-3.5 4.5-2.5 1.5-3.5Zm22 4 2.5.5.5 5.5 9.5 1.5 4.5 7.5 4.5 2.5-2 10 1 11-1 3 1 26-1 3-1 3q-6.18 9.82-5 27l-1 3-5 15v2l-6 14 1 3q-7.25 7.75-7 23v2l-1.5 5.5-2.5-.5 1-11h-1l-.5 6.5-.5-15.5 2-1 .5 9.5.5-9.5 11-27 1-49-10.5-28.5-8-1-4 2-.5-4.5 9.5-15.5 2.5-1.5 2-9-2.5-.5-3 2-.5-2.5.5-1.5-6 4-1-2-1.5-.5 1.5-3.5 2 1 10.5-4.5 3.5-4.5Zm-.5 2-1 4h1v-4Zm-1 4-1 2h1v-2Zm-3 2v1h1l-1-1Zm-3 1v1h2l-2-1Zm27 22-1 4h1v-4Zm120.5-31 .5 1.5q-6.75 20.75-23.5 31.5l14.5-15.5 8.5-17.5Zm209 15 5 2 5-1 1.5.5-3 16 2 6-7.5 3.5-17.5-8.5.5-1.5-1.5-.5 1-2-.5-1.5 1.5-.5-.5-1.5 3-1 5.5-3.5 3.5-5.5 2-1Zm.5 3-5 8 3 10 5 3 4-1-1-4 2-14-8-2Zm19.5-1 8.5 24.5 1 37q5.06 24.44 18.5 40.5l5 2 8-3 .5 2.5-7.5 18.5-9 3-4.5-1.5-1 10 2 5-1.5.5-2.5-15.5v-4l-6-18v-19l-6-16 1-3q.49-19.49-7-31l-1-29 1.5-3.5Zm15.5 90v16l2-1-1-14-1-1Zm-406.5-87 1 4 1.5.5-8 7-.5-1.5-1.5-.5 1.5-3.5 1 4 5-10Z"/><path fill="#001D3F" stroke="#001D3F" stroke-width="3" d="m166.5 585 .5 3.5-6.5 10.5-.5-1.5 6.5-12.5Zm247 1 3.5 1.5-3.5 1.5-4.5 3.5 2 7 19.5 20.5 2.5 1.5 1.5 2.5 3.5.5-3.5.5-13.5-11.5-14-22 2.5-3.5 4-2Zm138 2 .5 2.5h-1l.5-2.5Zm-259 9-1 2-19 14-30.5 11.5-3.5 5.5-5 2-2.5-1.5 3.5-1.5 3.5-1.5 5.5-7.5 17-3 32-20Zm-136 9 2 3 3.5.5-.5 2.5-5.5-.5.5-5.5Zm401 0 .5 30.5h-1l.5-30.5Zm-70 8 14.5 7.5 2 20 3.5 6.5 6.5 2.5 2 4v2l2.5 8.5 8.5 4.5-2 1-.5-1.5-11.5 25.5-14.5 15.5-8 3-8-4-5 2-5.5-8.5 6.5 5.5 5-1 11 3 7.5-6.5 6.5-18.5 5.5-3.5 7-10-3.5-4.5-2.5-1.5-6.5-14.5-4.5-3.5-3-23-3.5-4.5-11-3-9.5 6.5-9.5 12.5-23.5-11.5 2.5-1.5 19 12 13-16 9-5Zm-313 1 .5 2.5h-1l.5-2.5Zm49 12 5.5.5.5 1.5 1.5-.5-2.5.5-4 1-2.5-.5 1.5-2.5Zm-1 5 5.5 20.5-2-1-3.5-19.5Zm-42 3 .5 43.5h-1l.5-43.5Zm47 7 .5 1.5h-1l.5-1.5Z"/><path fill="#001D3F" stroke="#001D3F" stroke-width="3" d="m499.5 654 3.5.5 1 13-2.5 1.5-2.5-1.5-1-9 1.5-4.5Zm64 0 .5 2.5h-1l.5-2.5Zm-335 1 2.5 14.5 5 8 2 27-3.5 20.5-.5-2.5 2-18-2-26-7-22 1.5-1.5Zm5 11 .5 1.5h-1l.5-1.5Zm259 10 .5 6.5h-1l.5-6.5Zm96 2 5.5.5-2.5 4.5-2-4-1-1Zm-1 15 .5 2.5h-1l.5-2.5Zm-413 3 .5 2.5h-1l.5-2.5Zm78 5 1.5.5-2 1 .5 5.5 1.5.5-1.5.5-2.5-4.5 2.5-3.5Zm216 0 1.5.5-2 1v29l3.5 5.5 9-2 3 2 10-4 1 2 1.5-.5 2 4-6 23 1.5 2.5 2-1 1.5.5 9.5-29.5 12.5-5.5-2-1 2.5-1.5 2.5 4.5-1 2 1 24 9 24-2.5 5.5-1.5-.5-.5-4.5-8.5-2.5-1-2 4-9-8-5-3.5-5.5-5-1-4.5 3.5-3.5 7.5-5.5-1.5-1-11 2-6-5.5-8.5-11-3-5 1-3.5-2.5-2-28 3.5-6.5Zm41.5 36-3 4 1 5h3l1-8-2-1Zm-15 27-1 2h2v-1l-1-1Zm-218.5-56 5.5 3.5-.5 2.5-5.5-2.5.5-3.5Zm-23 24-4 5-3.5-2.5 1.5.5 6-3Zm-53 1 1.5.5 2 5-1 4 1.5 19.5 1.5.5-2.5 10.5-2-8-5.5 10.5 2.5-1.5 1.5.5-2.5 11.5-8.5-.5 1-10-4.5-24.5-4-1-1.5.5-1-2 2-3 1-3 .5-2.5 1.5.5.5-1.5 2 1 1.5-.5.5 1.5 1.5-.5 4.5 7.5 1.5-.5 3-8v-2l1.5-4.5Zm.5 4v1h1l-1-1Zm2 26-1 2h1v-2Zm367.5-29 1.5 15.5 13 30h-1l-8.5-21.5-1.5-.5-5-18 1.5-5.5Zm-403 6 1.5 5.5-12 25-1.5 15.5-7.5-.5 4-12-.5-1.5 1.5.5 7-15-.5-1.5 1.5.5-1-3 3-1-1-2h2l-1-2h2l2.5-8.5Zm-5.5 13-1 2h1v-2Z"/><path fill="#001D3F" stroke="#001D3F" stroke-width="3" d="m573.5 740 2.5 8.5h-1l-1.5-8.5Zm-387 18 1.5 10.5-1.5 7.5v-18Zm-7 7 .5 5.5-1.5 15.5-4.5-.5 4-9-3-7 3-2 .5 3.5 1-6Zm-30 11-.5 1.5-.5 1.5-.5-1.5 1.5-1.5Zm383 0 .5 1.5h-1l.5-1.5Zm-346 7 .5 2.5h-1l.5-2.5Zm-41 1 .5 1.5h-1l.5-1.5Z"/><path fill="#339BF2" stroke="#339BF2" stroke-width="3" opacity=".929" d="m363.5 66 2.5.5-.5 2.5-4 2 2-5Zm-51 18 10.5.5-6 3-17 26v14l-.5 1.5-10 3v-1l4.5-2.5 1.5-20.5 2.5-1.5L312.5 84Zm54 9q10.02 8.48 5.5 31.5h-1q-8.14-9.86-6-30l1.5-1.5Zm-58 33 13.5 5.5-3.5.5-10-6Zm-21 6 .5 5.5-5.5 10.5-1-10-5 3 3-4 1.5-.5.5-1.5 6-3Zm-18 7 2 17 4-1 .5 10.5h-1l-4.5-6.5-1.5.5-5-12 5.5-8.5Zm84 1 1.5 2.5-6.5 11.5-.5-3.5 5.5-10.5Zm-15 16 3.5 2.5-.5 22.5-2-1-3.5 5.5.5 1.5-1.5-.5-2.5 5.5-2.5-.5v-14l6-9 2.5-12.5Zm-9 2 .5 6.5-7.5 4.5-2.5-1.5 8-6 1.5-3.5Zm-47 13 4.5 2.5-4 1 4 3 13 31h-1L284.5 180l-2 1-2.5-6.5 2-1 .5-2.5Zm97 3 10.5 3.5-.5 3.5-4.5-2.5-.5-1.5-5-3Zm-7 4 15 8 2.5-1.5-7.5 19.5-4-1-5 3-1-28Zm-72 33 9 17 9-1 1.5 3.5-1 3 11 4-.5 5.5-11.5-4.5-1.5-2.5-10.5-4.5-5.5-20.5Zm-16 5 3.5.5-2.5 11.5-3.5-9.5 2.5-2.5Zm-15 25 .5 8.5-3.5 2.5-2.5-3.5 5.5-7.5Zm213 5 3.5 2.5-2.5 3.5-3.5-.5 2.5-5.5Zm-150 6 5.5.5-8 7 1.5 4.5 9.5.5-5 3-.5 1.5-8.5-5.5-2-4 5-4 2.5-3.5Zm27 4 .5 1.5-2.5 4.5-8 2v-1l10-7Zm121 2 5.5 3.5-.5 18.5q-7.9-6.77-5-22Zm-219 12 3.5.5-1 13 6 10-3.5 6.5-2.5-.5-1-11v-2l-2.5-4.5-2 1-.5-6.5 3.5-6.5Zm242 22 .5 11.5-3.5 2.5-3-4-3.5-1.5-5-6 6.5 5.5 3.5-.5 4.5-7.5Zm-185 8 11 9 1.5-.5 4.5 6.5 1.5-.5 10.5 18.5 1.5-.5 11.5 19.5 3.5 1.5-4 1-.5 2.5-5-3-1.5.5-.5-1.5-4.5-2.5v-9L332.5 319l-8-1-.5 3.5 3 2q5.17 5.83 3 19l-3.5 4.5-14 4 8-9 3.5-1.5v-17q-8.62-7.03-5.5-23.5Zm-60 6 5.5.5-3.5 11.5-2.5-.5.5-11.5Zm-21 12 2.5.5-2.5 5.5-2.5-1.5 2.5-4.5Zm273 0 5.5 2.5-2.5 3.5-3.5-2.5.5-3.5Zm-11 1 6.5 4.5-2 1-.5 1.5-4-7Zm29 6 7.5 4.5-7.5.5v-5Zm-28 17 3.5 2.5 2 3-2 1-.5 1.5-5.5-4.5 2.5-3.5Zm-272 12-.5 1.5 1 4-6 3-6.5 11.5-1-2-1.5.5 8-12-2-1 8.5-5.5Zm286 0 9.5 5.5-1.5.5-8-6Zm-203 2 .5 4.5-5.5 10.5-.5-4.5 5.5-10.5Zm235 2 5.5 9.5-3-2-2.5-7.5Zm-198 1 4 1 1.5-.5-3.5 6.5-2-7Zm-96 1 1.5.5-2 3 1.5 2.5-1.5.5-.5 3.5-5 2-1-6-6 4 2.5-3.5.5-1.5 10-5Zm148 0 7.5 1.5 2.5 4.5 3.5 1.5 6 16-5.5 8.5-.5-2.5q1.28-14.27-8.5-17.5l-3.5-2.5-1.5-9.5Zm120 6 21.5 17.5-1.5.5-20-18Zm-285 5-1.5 4.5.5 2.5 5.5.5-2.5 5.5-13.5 6.5-1.5 4.5-1-5-1.5-.5 7.5-9.5 4.5-3.5 1.5-3.5 2.5-.5-.5-1.5Zm-34 1 2.5.5-11.5 13.5-1-2-4.5-.5 4.5-7.5 1 2 9-6Zm107 0 3.5 2.5v10l12 21-5.5 7.5-12.5-28.5v-10l2.5-2.5Zm-70 16 2.5 1.5-1.5 3.5-7 3 1-2 1.5.5 3.5-6.5Zm53 2 2.5.5-3.5 5.5-1.5-.5 2.5-5.5Zm291 6 5.5 2.5-2.5 3.5-3.5-2.5.5-3.5Zm-30 1 7.5 21.5 22 27-2.5-1.5-3.5-2.5-1.5-2.5-4.5-2.5-1.5-4.5-10.5-2.5q1.76-15.26-6-21l.5-11.5Zm-145 1 1.5 2.5-6.5 11.5-.5-3.5 5.5-10.5Zm-195 4-2.5 3.5.5 2.5 1.5.5-2.5 16.5-3-5-2.5-.5 5.5-15.5 3-2Zm75 5 .5 6.5v2l.5 4.5 2 1 3.5 1.5-1.5 2.5-1.5.5-4 9 1 24-1 5 1 5-1 4 1 2-5.5 8.5-2.5-.5 2-28-6-17 6-11q-2.1-13.1 3.5-18.5l2-1Zm4.5 14-1 2h1v-2Zm-132.5-13 1.5.5-4.5 9.5-1-4-1.5-.5 5.5-5.5Zm62 6 2.5.5-13.5 19.5.5-3.5 8.5-15.5 2-1Zm43 0 3.5.5-10 5-.5 1.5-3.5-1.5 10.5-5.5Zm172 0 10.5.5-5.5 9.5-2.5-1.5-2.5-8.5Zm24 0 7.5 3.5-3.5 8.5-4.5-.5 2-9-1.5-2.5Zm-308 6 3.5 2.5-2.5 3.5-3 2-.5-5.5 2.5-2.5Zm165 0 .5 1.5-2 1 1.5-2.5Zm-110 5-3.5 4.5-5.5 10.5-.5-2.5 9.5-12.5Zm40 0 .5 1.5q-1.8 22.7-15.5 33.5l-10 4-.5-4.5 12-6 6-15-1.5-.5v2l-2-1-2.5 1.5-.5-2.5-3.5.5-1.5 3.5-.5-3.5 3.5-6.5 16-7Zm67 1 .5 1.5h-1l.5-1.5Zm78 13 1.5.5 2 5-6 11 3 1-4 2-.5 1.5-11.5 6.5-.5 1.5-1.5.5.5 1.5-1.5-.5-7.5 15.5q1.96-11.96-4-16l-2-1-1 3-12-3-9.5 6.5-3.5 11.5-4 3-1.5-.5-.5 1.5-10.5 5.5-1.5 2.5-10 3-.5-2.5 3.5-5.5 7.5-4.5 16.5-21.5 20-11h16l5 6 1.5-.5 1.5-2.5 10.5-4.5 4.5-15.5Zm42 0 2.5 1.5-1.5 2.5-2.5-1.5 1.5-2.5Zm-231 3 1.5.5-4.5 7.5-2.5-.5.5-6.5 3 1 2-2Zm-36 1 5.5 1.5-8 5 .5 1.5-19.5 11.5-1.5 3.5-1-4-1.5-.5 1-3-1-2q12.38.88 17-6l-.5-1.5 3.5-1.5.5-3.5 5-1Zm282 2 .5 27.5-3.5 1.5h-2l-6.5 1.5-1 8 1 3-3.5 5.5-2 1-2.5-1.5 2-1 6-17q-7.5-3-6-15l4.5-.5 3.5 2.5.5 1.5 9-17Zm-255 11 3.5.5-6.5 14.5-5 2-.5-7.5 5.5-7.5 3-2Z"/><path fill="#339BF2" stroke="#339BF2" stroke-width="3" opacity=".929" d="m408.5 461 3.5 2.5 4 16-2 1 1 3-.5 1.5 2.5.5-3.5 1.5-2-1-5 10-1.5-.5-.5 1.5-12.5 8.5-3.5 10.5-10.5-2.5v-24l-3-3 3-1-.5-11.5-2.5-.5 8.5-5.5 2 1 16.5-1.5-.5-1.5 1.5-.5.5-2.5 5-2ZM386 474l-6 8 6 16 15-6 1-16-16-2Zm-172.5-6 4.5.5-1.5 2.5-1-2-11 22-.5-4.5 9.5-18.5Zm236 9 .5 7.5-3.5 1.5-2.5-5.5 5.5-3.5Zm-170 7 .5 1.5-1.5 2.5-.5-1.5 1.5-2.5Zm-99 1 4 1 1.5-.5-.5 7.5-5.5-3.5.5-4.5Zm119 2 .5 5.5-5.5 10.5-.5-5.5 5.5-10.5Zm-24 1 1.5 3.5-2 5 1 2-12.5 20.5-4 2-2-5-2.5.5-.5 1.5-4.5 3.5-.5 1.5-10 5-11-5-2 3-6 3-2.5-1.5q6.77-7.73 23.5-5.5l26.5-18.5 7.5-15.5Zm85 9 4 1 1.5-.5-1.5 6.5-4.5-1.5.5-5.5Zm-61 11 .5 1.5-17.5 22.5-4.5 3.5-5.5 10.5-2.5-.5 1.5-3.5 3.5-1.5-5-2 3.5-10.5 8.5-2.5 5.5-8.5 3-1 9-8ZM274 534l-3 4 1 1 3-1 1-3-2-1Zm111.5-12-.5 1.5 8 16-2.5-1.5-1.5-.5-5-14 1.5-1.5Zm-187 1 6 11 1.5.5-2 5 2 1-1.5 3.5-5 2-1-23Zm-66 3 5.5 7.5-5.5 1.5-2.5-1.5 2.5-7.5Zm223 14 10.5 2.5q-2.03 17.03 7 23l-1.5 2.5-9-16-12.5 1.5-2 13 2 3-2 1 .5 5.5 5-1 3 7q3.6 7.4 16 6l4.5-3.5 1-8v-2l.5-2.5q7.05 5.45 5.5 19.5l-6.5 2.5h-4l-1.5.5 3 5-3 1v2l-.5 1.5-13-16-4.5-.5-2.5-5.5-1.5.5-2.5 5.5-9-5-5.5 4.5.5 1.5-14 5v-1l14.5-12.5 5.5-10.5 2.5-.5-.5-5.5-5 2-.5-1.5 3.5-6.5 6.5-1.5 9.5-16.5Zm-221 12 5.5.5-4.5 5.5-3.5-2.5 2.5-3.5Zm28 14-.5 1.5-5.5 12.5-2.5-6.5 3.5-1.5 3.5-1.5-5-1 6.5-3.5Zm158 22-2.5 3.5-11.5 16.5-.5-1.5 11.5-16.5 3-2Zm-188 10 5.5 8.5-1.5-.5-4 1-2.5-6.5 2-1 .5-1.5Zm474 14 5.5 2.5-2.5 3.5-3.5-2.5.5-3.5Zm-307 4 .5 4.5-6.5 4.5-3.5-1.5 9.5-7.5Zm-170 2 3.5.5-1 4 .5 1.5-5.5-2.5 2.5-3.5Zm248 1q-1.38 15.38 5.5 22.5l-7 5-7.5 13.5-2.5-1.5-3.5-10.5-2.5-1.5-1.5-10.5-2.5 1.5-.5 1.5-7.5 5.5-5.5 6.5-2.5 1.5-.5 1.5-1.5.5-4.5 5.5-3.5 2.5-7.5 15.5q-13.29-1.71-18.5-11.5 14.15 2.65 19-4l8.5-12.5 9.5-5.5 4.5-7.5 12-6 6 11 14.5-6.5-1.5-4.5-4.5-3.5 5.5-8.5Zm-94 10 .5 2.5-1 3 11 10 2 15-2 1 1 3-2.5-1.5-7.5-2.5-3-8 3.5 2.5 2.5-.5 1-5-13-16 7.5-3.5Zm-154 1 2.5.5 1.5 5.5 1.5.5 2 4-4.5 3.5-2-8-4 1 .5-1.5 2.5-5.5Zm262 18 4.5 1.5q1.75 8.75-3.5 10.5l-2.5-10.5 1.5-1.5Zm-260 2 .5 34.5-5.5 10.5-.5-37.5 5.5-7.5Zm494 22 1.5.5 3 9h-1l-3.5-9.5Zm-17 13 3.5 2.5-.5 4.5-3-2-3 4-2.5 1.5-2.5 5.5-.5-4.5 8.5-11.5Zm-483 18 .5 11.5-14 34 .5 1.5-1.5-.5-2.5 5.5-.5-5.5 17.5-46.5Zm493 6q7.39 6.11 5.5 21.5h-1q-7.31-6.81-4.5-21.5Zm-18 24q7.73 6.77 5.5 23.5l6 8 1.5 15.5 4.5 2.5-.5 3.5-5.5-.5-1.5-5.5-4.5-1.5-3.5-10.5-2.5-1.5 1-6-1-8 1-5-.5-14.5Zm-340 5 3.5 2.5-2.5 3.5-4 2 .5-1.5 2.5-6.5Zm382 6 5.5 2.5-2.5 3.5-3.5-2.5.5-3.5Zm-18 2q7.22 5.78 5.5 20.5h-1q-7.17-6.51-4.5-20.5Zm-373 8 .5 2.5-5.5 7.5-1.5-.5 6.5-9.5Zm-144 3 .5 17.5-5.5 10.5-.5-17.5 5.5-10.5Zm162 18 .5 10.5-5.5.5.5-1.5 4.5-9.5Z"/><path fill="#001649" stroke="#001649" stroke-width="3" d="m299.5 70-.5 3.5L285.5 90l-1.5.5-2 5 3 1-3 2-.5-1.5-5 10-.5-4.5q7.08-20.92 23.5-32.5Zm56 0 2.5.5-2.5.5v-1Zm-39 2 7.5 3.5-.5 1.5-7-5Zm56 6q11.1-1.6 13.5 5.5l-1.5.5-12-6Zm24 6 3.5 4.5-1.5-.5-2.5-1.5.5-2.5Zm3 6 2.5 1.5 8 20 2 18 13.5 23.5 2.5 1.5 2 19-2 8 10 13-9 5 1 4-1.5.5-2.5-5.5 1-5-1-10 1-14-18-41 .5-1.5-1.5-.5 1-7-6-15 .5-1.5-1.5-.5 1-3-3.5-9.5Zm5 0 16.5.5-1 4 .5 1.5-3.5-.5-1.5-3.5-6-1-3 1-2-2Zm8 18 5.5 4.5 2 6-3.5 2.5-4-13Zm20 5 4 1 1.5-.5-2.5 4.5-1.5-.5-1.5-4.5Zm-43 14 1.5.5-1.5.5v-1Zm-4 1 .5 1.5h-1l.5-1.5Zm-2 1 .5 1.5h-1l.5-1.5Zm-2 1 .5 1.5h-1l.5-1.5Zm54 2 8.5 2.5-1.5 9.5-2.5-1.5-.5-5.5-1.5.5 1-2-3.5-3.5Zm-64 11 7.5 1.5-6.5.5-1-2Zm20 1q14.75-2.75 18.5 5.5l.5 1.5 2.5 1.5-1 5v2l-2.5 4.5-4 1v-1l4.5-3.5 1-7-4.5-5.5-15-4Zm-86 3 3.5 1.5-3 1 .5 4.5 15 5 1-3 2-1 4.5 1.5-2.5 5.5-5.5-.5.5-1.5-3.5.5.5 1.5-17-6-.5 3.5 5 6q-3 5.5-6-1l-.5-8.5-4.5.5-.5 1.5-.5-2.5 1.5-3.5 2 1v-2l3 1 3-4 2 1v-2Zm18.5 10-1 2h1v-2Zm36.5-10-.5 1.5-1.5 7.5-1.5-.5-2.5 5.5-.5-8.5 5-3 1.5-2.5Zm83 0 1.5 3.5-1 4 .5 1.5-6.5-2.5.5-1.5 2.5-1.5.5-2.5 2-1Zm-124 1 2.5.5-4.5 1.5v-1l2-1Z"/><path fill="#001649" stroke="#001649" stroke-width="3" d="m311.5 149 1.5.5-1.5.5v-1Zm91 0 1.5.5-1.5.5v-1Zm-34 7 .5 1.5h-1l.5-1.5Zm63 0 .5 3.5h-1l.5-3.5Zm-65 1 .5 1.5-5 1 .5 1.5-4.5-1.5.5-1.5 3 1 5-2Zm19 5 6.5 5.5-6.5.5-1.5-3.5 1.5-2.5Zm17 3 2.5 1.5-1.5-.5-1-1Zm41 19 .5 2.5h-1l.5-2.5Zm-105 2 3.5 6.5-1.5-.5-4 1-.5-4.5 2.5-2.5Zm112 2 13.5 27.5-2 1 .5 1.5-4.5-3.5-6.5-13.5-1.5-.5-1-8 1.5-4.5Zm-97 1 6.5 1.5-1.5.5-3-1-4 2 2-3Zm-89 1 5.5 7.5-5.5 1.5v-9Zm85 6 1.5 2.5-2-1 .5-1.5Zm7 5 1.5.5-1.5.5v-1Zm-80 9 2.5.5 2 4-4.5 1.5v-6Zm168 5 3.5.5-3 8 5 11-2-1-6.5-11.5-3 4-4 2-5-2-9 21-.5-2.5 8.5-22.5 3-1 .5 2.5 2.5 3.5 3.5-2.5.5-6.5 3.5 2.5 2.5-5.5Zm-103 1 3.5.5-1.5 3.5-9.5 4.5.5 1.5-2.5-.5.5-2.5 3.5-1.5-1-2 6.5-3.5Zm4 2 3.5.5-3.5.5v-1Zm118 1-.5 1.5-.5 1.5-.5-1.5 1.5-1.5Zm-187 3 5.5 3.5-.5 2.5-5.5-2.5.5-3.5Zm88 0 4.5.5 3 8-3-2-.5-1.5-2 4-6.5-2.5 3.5-.5 3 1-.5-1.5-1.5-5.5Zm99 1 .5 1.5h-1l.5-1.5Zm-11 4 5.5 4.5-1.5 3.5-4-8Zm-122 1 2.5 1.5-1.5-.5-1-1Zm138 2 8 10 3.5.5-3.5 5.5-4 1-4-1-1.5.5 1-4-2.5-3.5-9.5 4.5 2.5 7.5 2-1 .5 1.5-1.5 5.5-2-6-2.5-1.5-1-11 2-1 .5 2.5 8.5-4.5.5-2.5 2 1 1-4Zm-126 10 5 2 3-1 4-1-.5 1.5-1 2 1.5 2.5-12.5-2.5.5-3.5Zm-61 3 .5 2.5h-1l.5-2.5Zm2 1 1.5.5 2.5 7.5 6.5 3.5-.5 4.5-7-4-4 3-.5-11.5 2-1-.5-2.5Zm130 17 .5 1.5-6.5 7.5-40 20-28 1-9.5-4.5-3.5-5.5-4.5 2.5 33.5 41.5 11 2 9-4 16 14 11 2 22-11 16-1 31 13 6-1 7.5 2.5-4.5.5q-16.78 1.28-24-7l-2 1q-7.17-8.83-25-7l-23 11-1.5-.5-.5 1.5-1.5-.5-.5 1.5-6-1-1.5.5-.5-1.5-1.5.5-.5-1.5-1.5.5-.5-1.5-15-13-7 4-1.5-.5-.5 1.5-6-1-1.5.5-.5-1.5-1.5.5-.5-1.5-1.5.5.5-1.5-7.5-6.5-18.5-23.5-1.5.5 1-2-11-15 2.5 1.5 6-2 4.5 3.5 1.5 3.5q10.05 6.45 30 3l45-22 6-6Zm-143 7 3.5 2.5 3 13h-1l-1.5-7.5-1.5.5-2.5-8.5Zm35 5 6.5 2.5-1.5 2.5-5-3-2 1 2-3Zm175 24 11.5 6.5-.5 2.5-6 1-5-10Zm-138 18 1 2-2.5-.5 1.5-1.5Zm-37 2 .5 6.5v2l-2.5 9.5-.5-4.5 2.5-13.5Zm199 1 5.5 3.5 1 2-1.5 2.5-5-8Zm-238 7 .5 3.5h-1l.5-3.5Zm220 3 11.5 8.5-.5 2.5-3-2-2 3q-8.36-2.54-6-12Zm36 0 4 2 1.5-.5 2 6-2 1-.5 1.5q-7.3-1.8-5-10Zm-259 3-4 7v-3l4.5-2.5-.5-1.5Zm38 0 .5 4.5-1.5.5-.5-3.5 1.5-1.5Zm-19 6 1.5 6.5-1.5 4.5v-11Zm23 1 .5 4.5-5.5 10.5-1-2-11 12-1-2-12 15-3 1-6.5-1.5 2.5-3.5 3.5-2.5 1-2v-2l2.5-4.5.5 1.5-5 11 2.5.5 8.5-5.5 6.5-9.5 6.5-4.5 6.5-11.5 2.5-1.5 1.5-3.5Zm-38 3-3 4-2 1-1.5-.5-.5 1.5-1.5-.5-.5 1.5-3.5-2.5.5-3.5 1 3 11-4Zm14 8 .5 1.5-5.5 9.5-.5-1.5 5.5-9.5Zm223 3 5.5 7.5-1.5-.5-7.5-4.5 3-1 .5-1.5Zm-249 41 1.5.5.5 2.5 2-3-.5 1.5-9.5 18.5-1.5.5-3.5 5.5-7.5 5.5 1.5 2.5-3.5-1.5q14.79-9.71 20-29l-1.5-.5-1.5.5.5-1.5 3-2Zm-14 12-1 2-6 4-1-2 4-2 4-2Zm-15 27-3 4-1.5-.5.5-2.5 2 1 2-2Zm-73 6 1.5.5-2.5 5.5-2.5-.5 3.5-5.5Zm64 8 .5 1.5-2.5 3.5-.5-2.5 2.5-2.5Zm-42 5 .5 1.5-4 3 3.5-4.5Zm307 6 6 9 17 7 7-4 9.5 23.5-1.5-.5-31-13-10.5 6.5 6 13-16 10-5.5 14.5-4.5 1.5 1.5 3.5 4.5 1.5-4 14q12.09 10.41 14 31l-3.5 1.5-17-30-2-1-3 1 .5-1.5-.5-4.5-1.5-.5 1-2-1.5-2.5-1.5.5-1 3 .5 1.5-1.5.5 1 5-2.5.5h-2l-3.5 2.5-1 17 3 9q-9.56 2.94-8 17l1 3-2.5 1.5-16-10-5.5 3.5-1 6 19.5 23.5 11 6 1.5-.5-10.5 17.5-2.5-.5.5-10.5 2.5-1.5 2-5-11-2-11.5-19.5-1 2-9.5-12.5-2-10 28-15q10.22-11.28 9.5-33.5l2.5-1.5 2.5-10.5 9 5 4.5-3.5 3.5-5.5 1.5-.5 9-24-1-3-.5-4.5-2 1-.5-1.5 20.5-28.5Zm-7.5 35 1 5 4 1v-4l-5-2Zm-7 6-3 5 1 1 5-3-3-3Zm-51 79-2 2 5 7 6 2v-2l-9-9ZM206.5 462l3.5.5-3.5 5.5-2.5-.5 2.5-5.5Zm-45 21 1 4 2-1-2.5 3.5-3.5 9.5-13 5-.5-1.5 4.5-8.5 1 4 5 1 4.5-10.5-1.5-.5-4 3 3-4 1.5-.5 2.5-3.5Zm16 9 .5 2.5-1.5 3.5-5.5-.5 2.5-4.5 1 4 3-5Zm345 5 3.5 1.5 2 6-4-3-1.5-4.5Z"/><path fill="#001649" stroke="#001649" stroke-width="3" d="m488.5 498 1 4-2 1 .5-1.5 1-2-.5-1.5Zm-4 5 1.5.5-1.5.5v-1Zm24 2 3.5.5-3.5.5v-1Zm-4 2-.5 1.5-1 2 1 2-3.5 2.5-1.5-2.5 5.5-5.5Zm5 2 2.5.5 1 2-2.5.5-1-3Zm6 1 .5 3.5h-1l.5-3.5Zm-354 1 6.5 11.5-1.5-.5-2.5-1.5-1.5-5.5-5 7-1.5-.5 2-1 2-4-.5-1.5 2.5-1.5-.5-2.5Zm367 4 3.5 1.5 2 6-4-3-1.5-4.5Zm-13 3 .5 3.5-2.5 4.5-1.5-.5-2-6h1l1.5 2.5 2.5-1.5.5-2.5Zm-17 4 5.5 3.5-.5 2.5-5.5-2.5.5-3.5Zm-346 6 .5 6.5h-1l.5-6.5Zm9 3-3 4-1.5.5-.5 1.5-.5-1.5 5.5-4.5Zm306 1 .5 1.5h-1l.5-1.5Zm-333 2 3.5 2.5-2.5 3.5-3 2-1.5-2.5 3.5-5.5Zm184 0 2.5.5q6.56 6.94 3 24l-8 22-16.5 16.5-39.5 28.5-2 22-3.5 5.5-26.5-19.5-1.5-3.5-1.5-.5 3.5-.5 6 3 6.5-4.5 3.5-5.5q17.85-.65 28-9l38.5-32.5 9-24-1.5-4.5-7.5 2.5q-7.33 22.17-24.5 34.5l-28 14-26 1-17.5-9.5 2.5-4.5 6-1 2.5 1.5 4.5 9.5h9l36-12 21.5-18.5q4.41-20.59 16.5-33.5l5-2Zm216 1 5 10 2.5.5.5 1.5 1.5.5-.5 1.5 1.5.5-.5 1.5 1.5.5-1 12 1 11h-1l-1-21-7.5-9.5-2.5-.5.5-1.5 1 2 .5-2.5-1.5-6.5Zm-387 4 1.5 2.5h-1l-.5-1.5-3.5 2.5 3.5-3.5Zm33 9v2l2.5.5-.5 1.5-2-1-1.5.5 1.5-3.5Zm293 10 .5 2.5h-1l.5-2.5Z"/><path fill="#001649" stroke="#001649" stroke-width="3" d="m540.5 560 1.5 5.5h-1l-.5-5.5Zm-387 3-3 4-1-2 4-2Zm23 3 .5 3.5-1.5 2.5-11.5 5.5-1.5 3.5-.5-2.5 14-9 .5-3.5Zm265 5 1.5 2.5-2 1 .5-3.5Zm36 0 1.5 2.5-2 1 .5-3.5Zm-287 1 20.5 19.5-10.5-9.5-7.5-4.5-2.5-5.5Zm279 5 3 2 1.5-.5-4 1-.5-2.5Zm56 0v3l-2 1 .5-1.5 1.5-2.5Zm11 0 2.5 6.5h-1l-.5-3.5-2-1-1.5.5 2.5-2.5Zm11 4 2.5 1.5 2 5-1 3 6 13-.5 1.5 1.5.5-1 31 6 15-.5 1.5 1.5.5-1 3 15.5 26.5 7-4 1.5.5.5-1.5 3.5 2.5 1 3-1.5 2.5-1.5.5v2l-2 7 .5 1.5-1.5.5.5 1.5-1.5.5.5 1.5-1.5.5-1.5 3.5-1.5-.5-1.5 2.5-3 1h-2l-4.5 3.5-.5 9.5-1.5-.5-2-12 1.5-4.5 4 2 11.5-5.5 6-17-3.5-1.5-7 3-6.5-4.5-16-38-1-37-7.5-24.5Zm-21 1 8.5 1.5-2 14 1 4-4.5 1.5-4.5-3.5-3-10 4.5-7.5Zm-359 1 .5 6.5-8 17 2.5.5 8-2 3.5 2.5q13.38 22.13 9 62l-1 14-11 27-2.5 22.5-.5-5.5 2-17 1-3 4-11v-2l6-16v-43l-6-15 .5-1.5-1.5-.5 1-3-3.5-7.5-5-1-8 2-2.5-3.5 2-1-.5-1.5 1.5-.5-.5-1.5 1.5-.5-.5-1.5 2.5-1.5-1-2 3-1 3.5-11.5Zm-20 11 2.5.5-1.5 3.5-4 2-.5-2.5 3.5-3.5Zm288 1v3l-5 1v-1l3.5-.5 1.5-2.5Zm-217 2 5.5 2.5-1.5.5-4-3Zm319 4v3l-2 1 1.5-2.5.5-1.5Zm-308 3 3.5 1.5-2.5.5-1-2Zm302 1 2.5.5-2.5.5v-1Zm-43 8 1.5.5-1.5.5v-1Zm58 2 2.5 6.5h-1l-1.5-6.5Zm-60 2 13.5 5.5q-2.3 20.3 7.5 28.5l1.5.5 7.5 15.5 3.5 2.5 1 2-9.5 12.5-6.5 4.5q1.43 15.93-8.5 20.5l-7 1-6-3-5 1-10-7q-6.82 7.68-3.5 25.5l3.5 10.5 6 1 4-1 9.5 4.5 4 8-2 14 1.5 2.5 5 1 6-10 4-1 4.5 2.5 4.5 6.5 5.5 2.5-4 9 2.5 3.5 7.5 1.5-.5 4.5-51.5-.5 10-25-7.5-15.5-19 10-24.5-13.5-2-10 11.5-22.5 1 2 11.5-19.5v-6l-4.5-1.5-5 6-11.5 6.5-22.5 33.5-14 7-4.5-3.5-9-21 2.5-3.5 6 4 5-9 6-1 7 4 14.5-17.5v-29q4.31-16.19 16-25l2-10-.5-1.5 24 12 12-15 7-4Zm-9.5 14-20 39 10 6-4 7 14 19 3-2-6-9 2-16 3-2 5 1 4 15h2l3-6-3-20-2-2-10 4-4-5 2-9 14-5 2-4-2-11-6 4-7-4Zm23 23-2 5 1 9 3 1 2-1-1-13-3-1Zm7 13-2 3h4v-1l-2-2Zm-58 48-2 1-3 5 2 21 3 1 5-1 2-4-2-21-5-2Zm58 42-3 3 3 14 7 4 1-2-8-19ZM224.5 624l2 3-4.5-.5 2.5-2.5Zm279 0 .5 3.5h-1l.5-3.5Zm-281 13 1.5 6.5h-1l-.5-6.5Zm3 0 2.5 4.5-1 2 1 8h-1l-1.5-14.5Zm5 22 3.5 6.5-1 2 3.5 4.5 7.5-2.5 5.5-8.5 4.5 3.5.5 1.5 3.5 1.5-.5 35.5-5-2-2.5 4.5 2.5 3.5 5-2 .5 19.5-3.5 5.5-2.5 1.5.5 1.5h-2l-4 1-10-9-2.5 1.5q6.19-11.81 4-32l-7.5-37.5Zm-2 2 1.5 9.5-2-1 .5-8.5Z"/><path fill="#001649" stroke="#001649" stroke-width="3" d="m561.5 671 1.5.5 1 14-2 1-.5-15.5Zm-3 12 1.5 5.5-2-1 .5-4.5Zm-43 5 .5 1.5h-1l.5-1.5Zm-281 11 1.5 13.5-1.5 7.5v-21Zm241 10 3.5 2.5h-3l-.5-2.5Zm89 1 .5 3.5h-1l.5-3.5Zm-88 23 2.5 1.5-3.5.5 1-2Zm95 2 16.5 49.5h-1l-15-35-.5-14.5Zm-62 2 2.5.5-1.5 8.5-2.5-.5-1-5 2.5-3.5Zm-343 4 .5 1.5-19.5 43.5-1.5-.5 1-3-.5-1.5 1.5-.5-.5-1.5 1.5-.5 1-2-.5-1.5 1.5-.5-.5-1.5 1.5-.5v-2l1.5-4.5 1.5-.5v-2l3.5-6.5 1.5-.5-.5-1.5 1.5-.5 1-2-.5-1.5 1.5-.5 1-2v-2l2.5-5.5Zm232 4 1.5.5 4.5 9.5 1.5-.5 5.5-9.5 2.5.5-.5 13.5-9 3-7.5-13.5 1.5-3.5Zm172 2 .5 2.5h-1l.5-2.5Zm-149 3 4.5 2.5-5.5 3.5-.5-4.5 1.5-1.5Zm-237 1 2.5 1.5 3 27-1.5 6.5-1.5-.5-1-9 2-15-3.5-10.5Zm19 11-.5 1.5-1 7 2 3-8.5 3.5.5-1.5 7.5-13.5Zm-24 2-.5 1.5 1 20h-1l-1-20 1.5-1.5Zm231 4 3.5 5.5-4.5.5-1.5-3.5 2.5-2.5Zm12 7 2.5 1.5-1.5 2.5-2.5-1.5 1.5-2.5Zm-81 5 .5 5.5-4.5.5-.5-2.5 4.5-3.5Z"/><path fill="#0855E1" stroke="#0855E1" stroke-width="3" opacity=".737" d="m275.5 176 .5 3.5-3.5 6.5-1.5-.5 4.5-9.5Zm193 46 2.5.5 8 16-2.5.5q-10.61-4.06-8-17Zm15 30 2.5.5-.5 7.5-4.5-3.5.5-3.5 2-1Zm10 13 3.5.5 1 4-5.5.5-.5-2.5 1.5-2.5Zm-7 13 6 8 3.5 1.5-6.5.5-5-6 1.5-.5.5-3.5Zm-229 6 1 4 1.5.5-2 1-.5-1.5-5 8-.5-1.5 5.5-10.5Zm242 22 4.5.5 8 11-2 1-.5 1.5-10-14Zm-254 4 1 2 1.5.5-1.5 3.5-1-4-5 10-1-4-1.5-.5 7.5-7.5Zm247 3 7.5 4.5-2 1-.5 1.5-5-7Zm31 6 3.5.5 3 4-2 1-.5 1.5-4.5-3.5.5-3.5Zm-6 6 3.5.5 1 6-1.5.5-7.5-2.5 4-3 .5-1.5Zm24 18 13.5 11.5 15 25-2.5-1.5-3.5.5-.5 1.5-6.5-4.5-10.5-18.5-1.5.5-7-9 2-1 1.5-4.5Zm-356 39 1 2 1.5.5-1.5 3.5-4 2-4.5-.5 7.5-7.5Zm392 8 6.5 5.5-2 1-.5 3.5-4-10Zm-271 8 5.5 11.5-3-2-2.5-9.5Zm277 4 4.5.5-1.5 4.5-2.5-1.5-.5-3.5Zm-7 4 14.5 8.5 3 6v29l-5.5 10.5-.5-29.5-11.5-24.5Zm-281 3 3.5.5 1.5 2.5 10.5 2.5-2.5 4.5-13.5-6.5.5-3.5Zm106 13 1 4 11-2 .5 1.5-7.5 17.5-4-2-1.5.5-5-9 5.5-10.5Zm-106 29 3.5.5-.5 3.5-3.5-.5.5-3.5Zm8 11 2.5.5-3.5 5.5-2.5-.5 1.5-4.5 2-1Zm152 20 .5 9.5-5.5 10.5-4.5 2.5-3.5 10.5-10-5-2 11-14 7h-11l-4.5-2.5-4-8 2.5-.5 6 5 8.5-16.5 1.5-12.5 4-1q4.76 7.24 18 6l2-11 3.5.5 1.5 10.5 3.5-.5 7.5-15.5Zm-163 5 1.5.5v10L282.5 520l-10.5 8.5-1.5 3.5-7 5-17 5-.5-16.5 23-6 12.5-25.5 7-5 4-2Zm303 35 1.5.5 2 4-1.5.5-2-5Zm5 30 5.5.5v38l-3.5 3.5-2.5-.5.5-41.5Zm-471 12 4.5.5-2.5 5.5-4.5-1.5 2.5-4.5Zm478 54 4.5.5-1.5 4.5-2.5-1.5-.5-3.5Zm-482 26 .5 3.5-5.5 10.5-.5-3.5 5.5-10.5Zm512 64 4.5.5-1.5 4.5-2.5-1.5-.5-3.5Zm5 42 5.5.5q3.5 14-3.5 17.5l-2.5-.5.5-17.5Z"/></svg>