<svg viewBox="0 0 708 786" xmlns="http://www.w3.org/2000/svg"><path fill="#E8D61B" stroke="#E8D61B" stroke-width="3" opacity=".996" d="m312.5 60 1.5.5-3.5 9.5-4 2-.5-8.5 6.5-3.5Zm38 0 3.5 2.5-5 3 4 1-4.5 2.5-.5-6.5 2.5-2.5Z"/><path fill="#E8D61B" stroke="#E8D61B" stroke-width="3" opacity=".996" d="m331.5 61 14.5 5.5-10 7 1.5 4.5 29 7 9.5 7.5 2 25 3.5 4.5 1-2 1.5.5-3 5 .5 1.5-20.5 7.5q-9.34 9.16-7.5 29.5-6.98-3.02-5.5-14.5l17-31-5-7-3-15-9.5-9.5-17-3-21.5 18.5q-5.67 6.83-3 22l17 7-13.5.5-4-5-2-1-3.5 1.5-3.5 4.5-2.5 1.5-.5 6.5-3-2-6.5 8.5 2.5 3.5 5-6 2.5 1.5-5.5 8.5-5 3-1.5-.5 2-7-2.5-1.5q-7.86 5.14-5.5 20.5l2.5 4.5 1.5-.5 2.5-11.5 3.5 2.5 2 12 24.5 43.5 13.5 3.5-6 5-1 4 15 3-4 2-1 4 1.5-.5 2.5.5 3 6 2 4-.5 1.5-3.5 2.5-3 7 10.5 2.5 21-12 1.5 2.5-2 1 2 5-4.5 6.5-2-1v2l-2-1-2.5 1.5.5 1.5-4-1-14 1-4-1-1.5.5.5-1.5-16-6-1.5.5v-2l-17-23-2-28-5.5-8.5-5.5 1.5-2 3 3 2 3 13h-1l-.5-3.5-1.5 2.5 4 5-5.5 3.5-2-6-8.5-5.5 10-2-1.5-4.5-4.5-3.5 2.5-8.5 3.5-2.5-5.5-3.5-1 5-2.5-4.5 1-7h-1l-.5 4.5-2.5-1.5 5-17-11-27q7.76-5.74 6-21l11.5-19.5 2 1 16-9 1.5.5-2-6 7-2 .5-10.5q4.81 7.69 19 6l2.5-5.5-2 1-1.5 3.5-.5-10.5 5.5-1.5h2l4.5-2.5-1.5-2.5-4.5-3.5 1.5-1.5Zm1.5 16-1 2h1v-2Zm-19 9v1h1l-1-1Zm-4 3-1 2h1v-2Zm-4 4v1h1l-1-1Zm-3 1v1h1l-1-1Zm-7 5v1h1l-1-1Zm-7 4v1h1l-1-1Zm-3 2-11 17 2 6h4l7-13-3-6 2-3-1-1Zm11 22v1h1l-1-1Zm74 0v1h1l-1-1Zm-4 1v1h1l-1-1Zm-76 4-1 2h1v-2Zm-18 6-3 7 4 1 1-4-1-1-1-3Zm13 13-1 2h1v-2Zm-7 50-1 2h1v-2Zm91.5-140-1 6-8 4-1.5-4.5 10.5-5.5Zm51 30 3.5.5-.5 3.5-3.5-.5.5-3.5Z"/><path fill="#E8D61B" stroke="#E8D61B" stroke-width="3" opacity=".996" d="M299.5 138q10.25-2.25 12.5 3.5l-.5 2.5-12.5-.5 1-4-.5-1.5Zm36 11 2 4 2-3 2.5 1.5 1.5 34.5 4-1-.5 1.5-1.5 3.5-3.5-1.5-1.5-2.5-4.5 1.5-3.5 4.5-2 1-.5-19.5 6-14-9-4-1-3 1.5-2.5 2.5.5 2.5 5.5 3.5-.5-2-1 2-3-.5-2.5Zm1.5 33v1h1l-1-1Zm108.5-31 3.5.5-.5 3.5-3.5-.5.5-3.5Z"/><path fill="#E8D61B" stroke="#E8D61B" stroke-width="3" opacity=".996" d="m328.5 163 1.5.5-3.5 4.5-6.5-.5 8.5-4.5Zm-23 5 12.5 3.5-.5 2.5-17.5-.5 1.5-3.5 4-2Zm5.5 1v1h1l-1-1Zm64.5-1 11.5 4.5-.5 1.5 4 1 11-1 .5 1.5-4 1 3 2q-10.21 13.29-12 35l-5.5 5.5-6 2-4-3-4.5-2.5-1-3-1-3 .5-1.5-1.5-.5 1.5-37.5 1.5.5.5 1.5 2-3 4-1Zm.5 1 1 2h1l-2-2Zm4 2v1h1l-1-1Zm3 1v1h2l-2-1Zm9 3v1h6l-6-1Zm-22 4-1 25h1v-25Zm-102.5 19 2.5.5-3.5 5.5-2 1 .5-1.5 2.5-5.5Zm79 6 7.5 3.5-1.5 2.5-1.5-.5-2.5-4.5-2-1Zm-82 5 3.5 2.5 2 4-2.5.5-3-7Zm78 1 4.5.5-15.5 5.5v-1l11-5Zm126 12 2.5.5 8 16-2.5.5q-10.61-4.06-8-17Zm-196 6 3.5 1.5-1.5 4.5-4 2-.5-5.5 2.5-2.5Zm-5 12 8.5.5-.5 6.5-4-1-4.5 11.5 2 1-4.5 2.5-.5-14.5 3.5-6.5Zm212 6 3.5.5q7.17 9.83 3 31l6 10-2.5.5-3.5-2.5-.5 1.5-5.5-13.5 1-2-2.5-8.5-2.5-.5-2-7 2.5-4.5 3.5-1.5-.5-3.5Zm-.5 6v1h1l-1-1Zm-2 2-1 4h1v-4Zm1 5-1 2h1v-2Zm15.5 6 3.5.5 1 3-4.5 1.5-1.5-2.5 1.5-2.5Zm-232 5 8.5 3.5q5.51 32.51-9.5 44.5l-2.5 1.5-.5 13.5-11 5-.5-2.5 6.5-17.5 4 1 .5-1.5-1-2 2-8-4.5-1.5-11 18-6.5 1.5-1.5 3.5-.5-4.5 16-19 11.5-35.5Zm5.5 7-1 12h1v-12Zm-5 14v1h2l-2-1Zm-2 3-2 5 5 1 1-5-4-1Zm-2 7 2 5v-2l5-1v-1h-1l-6-1Zm3 6v4h1l-1-4Zm3 0-1 2h1v-2Zm-8 14-2 4h2v4h1l-1-8Zm-4 7-1 2h1v-2Zm-1 2-2 3 1 1 2-1-1-3Zm61.5-42 5 3 1.5-.5 16.5 24.5 1.5-.5 4.5 6.5 1.5-.5 10.5 18.5 1.5-.5 5.5 7.5 3.5 1.5.5 4.5 3 1 1.5-.5 1.5 2.5 8-1 5 1 18-1 5 1 36-1 5.5 3.5 1 7-2.5 3.5-2.5-1.5-2.5-3.5-6.5 2.5-16 23v2L408.5 406l-2-1-4.5 15.5 3.5 4.5q11.57-.43 15.5-8.5l-1-2 4.5-.5 6 1 19-4 19 5v-1l-1.5-.5 5.5-.5 1.5 3.5-1.5-.5-1.5.5 2 3-17 29-1 30 1 12-5.5 10.5-2.5-1.5-4 7 1.5 2.5-1.5.5-.5 5.5-10-6-5 12-15 6v-2l-8.5 4.5-2 19 3 8-.5 1.5 1.5-.5.5-2.5.5 5.5q-3.25 5.75-6.5-1.5l-3.5-1.5-2-6-25.5-38.5-3.5.5-1 26 9.5 26.5 1-2 1.5.5-1 7 4.5 5.5 2 1 1.5-.5 5 12-3.5 11.5-7.5 2.5 13.5 28.5 7.5 1.5 2 13-1 5 1 4-6.5 3.5-3-1-11.5 4.5 2 1-.5 1.5-3.5-.5 2-1-2.5-.5-12 6q-4.9-6.6-19-4l-5.5 4.5-11.5 15.5-8 3-7.5-6.5-.5-1.5-3.5.5-5-10v-2l-1.5-2.5-4.5-2.5-.5-2.5-3-2-2.5 1.5 1.5 2.5 3.5 1.5-10.5.5-.5-1.5 1.5.5 3.5-.5-14-11-1.5-4.5-.5 2.5 1 2-1.5.5-.5-5.5 1-2-3.5-6.5-3.5-1.5 3.5-8.5 15-6 2 1v-2l2.5-.5 2-3-.5-1.5 1.5.5-1-2 10.5-14.5h2l1.5-.5 12-16-.5-1.5 1.5-.5-.5-1.5 1.5.5q12.47-13.03 16-35l10.5-10.5 9.5-6.5 1-27-9.5-16.5-7.5 2.5-6.5 13.5-28 8-17.5 16.5-6.5 20.5-2 1-5-1-21 13-2.5-5.5 13-18-4.5-.5-24 8-3-11-12-4-13.5 8.5-7.5 14.5-4 1-6.5-12.5v-38l-2.5-2.5-6.5 2.5-4 9 1 4-3.5 4.5-7.5-8.5 3.5-5.5 3.5-1.5-2-1q8.08-7.92 7-25l-3-5 8-2-6-10 3.5-.5 1 2 2.5-9.5-1-4 3.5-6.5 2.5-1.5-1.5-4.5-10 3-1-3-5.5-.5.5-2.5 21.5-15.5 1.5-3.5 9.5-7.5 30.5-42.5 26-12 .5 2.5-5 2 4 1 1 9-2.5 4.5-7.5 5.5-1.5 3.5-3.5-.5-4 7 .5 1.5-1.5-.5 1 2h-2l1 3-2.5 1.5h-2l-7.5 4.5-8 12 1 2-9.5 24.5-3-1-5.5 4.5-12 28 .5 1.5-1.5-.5 1 2-2 1-2 10 1 7-1 2 6.5 1.5 1.5-2.5-1-6 1.5-.5.5 1.5-1 4h1l2.5-7.5 3.5-2.5-.5-1.5-1.5.5.5-6.5 3.5-.5 1.5-3.5 3.5-1.5 8.5-16.5 3.5-1.5 6.5-18.5 19-8 1.5.5 3-4-.5-1.5 8-4 .5 1.5-10.5 20.5-1-2-19 37-4 1-1-3-3-1q-27.12 12.38-20.5 58.5l2.5 5.5 18-10 15-1 27.5-18.5 15-30v-17l-12-18 18-36-2.5-.5-11 6 4-7 7.5-5.5 5.5-11.5 3 1 10.5-15.5-1.5-5.5-3 4-.5-2.5 3.5-5.5 2 1 5.5-4.5 2-19-.5-1.5 1.5.5 3-19-5-3 .5-26.5Zm2.5 5v8-6l2-1-2-1Zm1 12-1 8h1v-8Zm35 32-1 2h1v-2Zm10 17-1 9-9 3-5-9-2-2-11 5-7-5-5 1-9 17 2 10 4 2q-1 11 6 14v20h-1l-10 16 5 8 3 18 33-11q15-2 22 5 18-11 20-39l2-1 10-19-9-23q-4-10-19-7l-1-1-11-5-1-1-6-5Zm13 1v1h5l-5-1Zm12 0v1h2l-2-1Zm13 0v1h2l-2-1Zm-9 1v1h7l-7-1Zm-85 5-1 3h1v-3Zm-53 1v1h1l-1-1Zm-6 3v1h1l-1-1Zm4 7-4 6h3l3-5-2-1Zm1 7-1 2h1v-2Zm-24 5-2 3 2-1v-2Zm67 1-1 2h1v-2Zm-1 2-1 2h1v-2Zm-70 1-1 2 2-1-1-1Zm8 0-5 3-2 3-1 2 9-7-1-1Zm1 2-15 16 3 1 14-16-2-1Zm60 0-1 2h1v-2Zm126 0-1 2h1v-2Zm-120 1-4 5 3 13 11 4 2-3-5-16-7-3Zm-7 1-1 2h1v-2Zm-1 2-1 2h1v-2Zm121 5-1 2h1v-2Zm11 16v1h3l-3-1Zm48 1v1h1l-1-1Zm-20 4-4 2-1 2 5 2 5-2v-1l-5-3Zm-255 6-3 5 5-4-2-1Zm52 1v1h1l-1-1Zm172 0-2 1-3 5v41l3 6 13 11 2-5q5-36-11-50l4-7-6-2Zm-175 2v1h1l-1-1Zm-29 1-1 2h1v-2Zm-28 4-3 2 1 1 7-1-5-2Zm8 5-1 3h1v-3Zm36 2-1 2h1v-2Zm-35 2-4 5v1l4-3v-3Zm34 0-1 2h1v-2Zm-42 9-1 2h1v-2Zm-2 12-1 2h1v-2Zm129 5-14 15 4 1 7-2 5-7-1-6-1-1Zm-127 4-1 2h1v-2Zm203 1-4 2-3 5 3 16 13-7 2-4-2-9-9-3Zm-28 1-3 6 2 10h2l2-5-2-10-1-1Zm-178 1v1h1l-1-1Zm-2 1v1h1l-1-1Zm24 1-1 2h1v-2Zm248 3-1 5h1v-5Zm-273 4-1 3h1v-3Zm9 0-1 7h1v-7Zm263 1-1 5h1v-5Zm-271 2-1 2h1v-2Zm270 4-1 2h1v-2Zm-270 3-1 3h1v-3Zm-1 3-1 2h1v-2Zm250 10v1h1l-1-1Zm8 1v1h1l-1-1Zm-10 1-1 2h1v-2Zm-1 3-1 3h1v-3Zm-251 1-1 2h1v-2Zm-3 3v1h1l-1-1Zm249 3v1h2l-2-1Zm-2 1v1h1l-1-1Zm-2 1v1h1l-1-1Zm-2 1v1h1l-1-1Zm-3 2v1h1l-1-1Zm-13 33v1h1l-1-1Zm2 1v1h1l-1-1Zm-39 6-2 1-3 5 2 9 3 1 5-1 2-4-2-9-5-2Zm12 3-1 2h1v-2Zm10 17-1 2h1v-2Zm1 2-1 2h1v-2Zm-51 1-18 9-16 16-8 22 2 7 25 11q11-6 8-27l5-2 3 11h2l16-21 2-1 10 22h2l2-5q5-33-14-41l-6 4-15-5Zm52 1-1 2h1v-2Zm-91 25-1 2h1v-2Zm-12 13v1h1l-1-1Zm-2 1v1h1l-1-1Zm-2 1v1h1l-1-1Zm-2 1v1h1l-1-1Zm-2 1v1h1l-1-1Zm-4 4-1 2h1v-2Zm127 18-1 2h1v-2Zm-5 5v1h1l-1-1Zm-87 14-1 2h1v-2Zm2 3-1 2h1v-2Zm175.5-386 7.5 10.5-1.5.5-6.5-3.5.5-7.5Zm12 5 5.5 3.5q-.44 20.94 14.5 26.5l7-5 8.5 10.5-5.5.5-2-6-4.5 1.5-.5 6.5-5.5-2.5-1.5-5.5-4.5-.5-1.5-5.5-4.5 1.5-.5 4.5-11.5-9.5.5-1.5 5.5 2.5 1.5 2.5 4.5-1.5-1.5-4.5-1.5-.5-4-11 1.5-6.5Zm-267 36 2.5.5-11.5 13.5-.5-1.5 9.5-12.5Zm309 12 14.5 12.5 15 25-2.5-1.5-3.5.5-1.5 5.5-2.5-.5-5.5-11.5-2.5-.5-12-21 .5-8.5Zm-41 1 4.5 2.5-.5 2.5-2.5-.5-1.5-4.5Zm-260 9 .5 4.5-9.5 3.5 1-2 7.5-3.5.5-2.5Zm275 2 7.5 3.5-.5 2.5-7-6Zm-290 1 3.5 2.5 1 2-6 3-4.5 9.5-9 3-41.5 30.5 2.5 7.5 21-17 .5 2.5-5.5 7.5-4.5 2.5-7.5 15.5-3.5 1.5-6.5 12.5-2.5-1.5q-1.5-12 6-15l-1-3-2.5-3.5-8.5 7.5-.5-1.5-5 7-.5-4.5 15.5-21.5 8.5-2.5v-6l15.5-15.5 14.5-7.5 3.5-4.5 3-1 3 1 2.5-1.5.5 1.5 3.5-1.5 2-4-2-1 .5-1.5 3.5-1.5.5-1.5ZM160 414l-4 6h3l3-5-2-1Zm10 7v2h2l-2-2Z"/><path fill="#E8D61B" stroke="#E8D61B" stroke-width="3" opacity=".996" d="m518.5 365 9 4 27.5 27.5 3 13 11.5 13.5 1-2 11.5 17.5 2.5 16.5 1.5-.5 2-24-12-24 3 1-1-3 4-2-6-12 2.5-.5q11.01 3.49 9.5 19.5l-2.5-1.5-2.5.5-1 2 2 1 .5 1.5 6.5 1.5 3 6v32l-8.5 15.5-3.5-.5-11.5-20.5-26.5-20.5-5-28-20-25 1-3-1-2-.5-3.5Zm3.5 4-1 2h1v-2Zm-72.5-3 .5 4.5-3.5 1.5-1-2 3.5-2.5.5-1.5Zm40 19 6 1 27.5 20.5 1 5q-6.14 5.36-20.5 2.5l-13-19-1.5.5 1-2h-2l1-3-1-4 1.5-1.5Zm-3 2 .5 2.5h-1l.5-2.5Zm-222 27 1.5.5-2 1 .5-1.5Zm-97 30 6.5.5-.5 2.5-15.5 9.5-1.5 3.5-4.5 2.5-1.5 3.5-3.5 1.5-3.5 15.5-1-4-4 9-.5-14.5 6-12-5-9 11.5-2.5h2l3-2 1 2 11-6Zm-17.5 7v1h1l-1-1Zm-2 1v1h1l-1-1Zm-1 5-1 2h1v-2Zm-1 10-1 2h1v-2Zm-1 2-1 2h1v-2Zm-1 2-1 2h1v-2Zm-1 3-1 3h1v-3Zm55.5-8 1 2-2.5-.5 1.5-1.5Zm-33 2 2.5.5-3 5 .5 1.5-9 5 .5-1.5 8.5-10.5Zm419 3 1.5.5-1.5.5v-1Zm-437 15 2.5.5-6.5 18.5-5.5-4.5.5-9.5 5 2 .5-1.5-1-3 4.5-2.5Zm-4 22 .5 1.5-5.5 10.5-.5-4.5 5.5-7.5Zm451 14 2.5.5 2 4h-3l-1.5-4.5Zm-462 4 5.5 7.5-5.5.5v-8Zm15 2q5.5 3-1 6l-2.5-.5 3.5-5.5Zm24 0 2.5.5-.5 2.5-4.5 2.5-.5 2.5-.5-4.5 3.5-3.5Zm-28 7 .5 5.5-3.5 5.5-7.5-.5 4.5-2.5 1 2 5-10Zm91 5 1.5.5-.5 5.5-1.5-.5.5-5.5Zm-81 6 2.5.5-6.5 8.5-2.5.5-1.5 2.5-2.5 1.5-1 4 .5 1.5-3.5 1.5.5 1.5 3.5 1.5-13.5.5-2.5-1.5 2.5-4.5 6.5-2.5-4-9q16.25 2.25 21.5-6.5Zm447 1 5.5 8.5v35l-5.5 3.5.5-1.5-1-38v-2l.5-5.5Zm-427 6 .5 7.5-12 7-3.5 8.5-3 1 .5-3.5 3.5-9.5 11.5-5.5 2.5-5.5Zm29 1 1.5.5-.5 2.5-3.5-1.5 2.5-1.5Zm-65 26 1 2 1.5.5-3 2 2 1 1 2-3 2-2.5 3.5-1.5.5-.5 1.5-.5-9.5 3.5-2.5 1.5.5-1-2 1.5-1.5Zm-5 18 5.5 3.5.5 1.5 1.5.5 1.5 6.5 1-4 1.5.5-.5 7.5-3.5-2.5-.5 1.5-1.5-4.5.5-3.5-5 1-1-8Zm3 14 3.5 2.5-2 17 1 41-1 5 1 4-2 1-.5-1.5-4.5 19.5 1 18-2.5 1.5-1.5-.5-2 43 4 15-3.5 8.5-24.5-.5.5-28.5 3.5-2.5 14-41 6-35-3.5-6.5-2.5-.5 5.5-16.5h2l4.5-2.5-.5-16.5-5 2-.5-1.5 5-11-4-5 4.5-6.5 4-2Zm2.5 4-3 2-3 4 5 3h1v-9Zm-1 62-1 3h1v-3Zm-6 23-1 4h1v-4Zm-1 4-1 12h1v-12Zm476.5-93 2.5.5 3 8-5.5 3.5-.5-1.5 1-2-.5-8.5Zm-452 13 .5 1.5-4.5 5.5-4-1-1.5 3.5 2 1-2.5.5-.5-5.5 6-1 .5-2.5 4-2Z"/><path fill="#E8D61B" stroke="#E8D61B" stroke-width="3" opacity=".996" d="m123.5 648 2.5.5-5.5 7.5-.5-1.5 3.5-6.5Zm489 0 2.5.5 3 10h-1l-4.5-10.5Zm6 13 5 8 1.5-.5 11 25v7h-1l-2.5-4.5-1.5-.5-1-3v-2l-12-24 .5-5.5Zm-342 5 4.5 3.5-1.5 2.5-3 2v-8Zm90 5 2.5.5-2.5.5v-1Zm237 7 1.5.5-2 3 3.5-2.5 9.5 7.5q8.99 13.51 10.5 34.5h2l1.5.5-.5 10.5-1-3-.5 3.5 2 30q7.21 7.29 6 23l-5.5.5-6.5-16.5v-19l-6-12v-30l-8.5-11.5-1.5.5-8 22 4.5 7.5 1.5.5v16l17 42-28.5.5-.5-11.5 1-2-5.5-11.5-1.5.5 1-7-1-12 7-22-1-21 5-3 2-9-1-4 3.5-5.5Zm-.5 4-1 2h1v-2Zm-1 2-1 3h1v-3Zm-4 17-1 7h1v-7Zm-1 10-1 3h1v-3Zm-1 5-1 2h1v-2Zm32 7-1 6h1v-6Zm-32 52-1 3h1v-3Zm1 4-1 3h1v-3Zm39.5-76 5.5 9.5-2.5 1.5-3-11Zm-546 21 5.5 3.5-1.5 4.5-4 2v-10Zm173 6 1 2 1.5.5-4 3 .5 1.5 2-1 2.5 7.5-2 6 14 23-6 3-1 4 2 6-15.5.5q-1.27-12.73-10-18l-4.5-.5 2-8 12-14 1.5-11.5 3.5-1.5.5-2.5Zm-1.5 7-1 3h1v-3Zm-1 5-1 3h1v-3Zm-4 9-1 2h1v-2Zm-9 11-1 2h1v-2Zm394.5-18 2.5.5q5.33 6.17 3 20l-5.5 3.5v-24Zm-557 18 4.5 1.5-5.5 12.5-.5-12.5 1.5-1.5Zm196 9 .5 2.5h-1l.5-2.5Zm-197 7 5.5 7.5-5.5.5v-8Z"/><path fill="#EEDA49" stroke="#EEDA49" stroke-width="3" d="m314.5 60 10.5 3.5-1 2 .5 1.5-6-1-7 4 .5-1.5 2.5-8.5Zm16 24q21.96-2.46 26.5 12.5l8 25-16.5 27.5-1.5-8.5 8.5-14.5 1.5-.5 3-9-3-2L341.5 93l-9-3-3 1-5.5 2.5-.5 1.5-6.5 5.5-.5 1.5-1.5.5-3 6v2l-2.5 9.5-3 1-.5-12.5L324.5 87l6-3Zm104 24 3.5 2.5-2.5 3.5-3.5-2.5 2.5-3.5Zm-159 2 .5 4.5-5.5 8.5-.5-2.5 5.5-10.5Z"/><path fill="#EEDA49" stroke="#EEDA49" stroke-width="3" d="m329.5 132 5.5 2.5 2.5 9.5 2.5.5 2 6-1.5-.5-4.5-.5-6.5-17.5Zm-50 18 2.5.5-2.5 22.5-1.5-.5-2-16 3.5-6.5Zm50 6 5.5 3.5-4 2 2 1-13.5 10.5-1.5-4.5q9.56 1.56 12-4l-.5-2.5-1.5-.5 2-4-.5-1.5Zm47 1 1.5 7.5-1.5-.5-4.5-2.5.5-2.5 4-2Zm-34 4 5.5 3.5-.5 10.5-4-1-1.5.5.5-13.5Zm-7 1 .5 1.5-2 1 1.5-2.5Zm-2 4 .5 1.5-1.5 2.5-.5-1.5 1.5-2.5Zm-41 1 12.5 1.5-5 3-2.5 3.5-3-2-1.5.5 1-2-1.5-4.5Zm-4 6 5.5 3.5.5 1.5 1.5-.5-.5 1.5 1.5.5 4 8-1 2 8 7 9.5 15.5 12 4 1.5-.5-1 2 .5 1.5-12 3-9.5-6.5-20.5-42.5Zm41 8q-2.75 17.75 7.5 22.5l-1.5.5-6.5-3.5-.5-1.5-1.5-.5-2-10 4.5-7.5Zm-53 11 5.5 3.5-4 3-1.5 2.5-1-3-4.5-.5 3.5-1.5 1.5.5.5-4.5Zm-7 7 .5 15.5h-1l-2.5-4.5-2.5-1.5 1.5-4.5 2.5-1.5 1.5-3.5Zm72 5 6.5 2.5-.5 3.5-7 1 1.5-4.5-.5-2.5Zm6 48 11.5.5q-7.67 9.33-22.5 11.5l-5.5-2.5 4.5-8.5 1 5 4-1h2l5.5-2.5-.5-2.5Zm145 17 4 1 1.5-.5-2.5 6.5-3.5-2.5.5-4.5Zm0 17 11.5 4.5-.5 6.5-5-3-1 6-8.5-5.5-3-6 6-1 .5-1.5Zm42 42 7.5 13.5-2 1-.5 3.5-10.5-15.5 5-1 .5-1.5Zm-286 8 5.5.5-1.5 3.5-3.5 1.5-2.5 5.5-1-2-5 8-2.5.5.5 1.5-10 4-3.5-4.5 9.5-1.5 2 1 9-17 3-1Zm256 10 9.5 7.5 3.5 4.5 3.5 1.5-2 1 2.5 4.5 1-4 2.5 4.5-.5 2.5-14.5-8.5-1.5-5.5-6.5-5.5 2-1 .5-1.5Zm36 5 5.5 8.5h-1l-4.5-8.5Zm-180 3 6.5 4.5-1.5 2.5-6 3 .5-1.5.5-8.5Zm-38 1 10 5 11-5 2.5 1.5 2 6-2.5-1.5-12 4-4.5-2.5-1.5-2.5-7.5 1.5-2 8v2l-.5 13.5-3.5-2.5-2-10 8.5-16.5 2-1Zm-115 5 2.5.5-.5 5.5-5 3-.5-2.5 3.5-6.5Zm12 0 2.5.5-3.5 5.5-2.5-.5 3.5-5.5Zm152 0 7.5 4.5-.5 1.5-6.5-2.5-.5-3.5Zm175 1 6 11 2.5.5 4 13-13-8 .5-16.5Zm-190 3 1.5.5-2.5 1.5 1-2Zm33 2 9.5 6.5 9 23-10.5 19.5-1.5-.5-1-37 1-3-6-5-.5-3.5Zm142 0 8.5 3.5-.5 2.5-8-6Zm-5 2 29.5 28.5 2 4-2-1-28.5-30.5-1-1Zm-328 4 2.5.5-10.5 5.5 2-3 6-3Zm51 0 2.5.5-3.5 5.5-2.5-.5 3.5-5.5Zm-49 10 1.5.5-2 1-2 4-5.5 10.5-1-2-2.5-.5 3-5-2.5-.5-13.5 11.5-2 4 .5 2.5 12-10-11 12-5 3-2.5-7.5 32.5-23.5Zm118 7 6.5 4.5.5 1.5 1.5.5 2 10-1.5 2.5-3 1-.5-10.5-5.5-9.5Zm242 0 13.5 14.5h-1L560.5 389Zm-329 1 2.5.5-14.5 16.5-2.5-1.5 14.5-15.5Zm54 12 2.5.5-5.5 10.5-1-5-17.5 9.5-5.5 11.5-2.5-.5 7.5-13.5 2.5-.5-.5-1.5 20-11Zm273 5 6.5 4.5.5 1.5 2.5 1.5 3 6-1.5 2.5-11-16Zm17 0 12.5 24.5h-1L575.5 407Zm-420 5 .5 2.5-5.5 8.5-.5-2.5 5.5-8.5Zm126 2 .5 1.5-2 1 1.5-2.5Zm-117 1 3.5 4.5-10 7-1.5 3.5-3.5 1.5-2.5 5.5-1-2-5.5 4.5 5.5-11.5 4.5-3.5 1.5-3.5 1 2 8-8Zm115 3 .5 1.5-1.5 2.5-.5-1.5 1.5-2.5Zm43 1 1.5.5q-2.75 18.75 5.5 26.5l7 3q12.97-9.53 40-5l10.5-6.5-.5-1.5 1.5-.5-.5-1.5 1.5-.5 1-4v-2l2.5-7.5 3-1 .5 6.5q-5.75 19.25-20.5 29.5-6.18-7.32-22-5l-33 11-2.5-18.5-5-8 9.5-15.5Zm127 1 5.5 2.5-.5 1.5-5 2-4.5-2.5.5-1.5 4-2Zm122 2 10 14 4 2 2-1 .5 12.5-2.5 5.5-1.5-.5q-.18-23.14-12.5-32.5Zm-294 1-.5 1.5-2.5 4.5.5-1.5 2.5-4.5Zm141 4 6.5 1.5-4 7q15.98 14.52 11 50l-2.5 5.5-12.5-11.5-3-12 1.5.5 5.5 2.5 1.5 2.5 3.5-8.5-9.5-14.5-2 1-.5-18.5 2.5-4.5 2-1Zm-163 3 .5 1.5-1.5 2.5-.5-1.5 1.5-2.5Zm18 0 .5 1.5-1.5 2.5-.5-1.5 1.5-2.5Zm-22 5 1.5 2.5-19.5 34.5.5-1.5 17.5-35.5Zm18 0 2.5.5-2 6q15.78 6.22 12 32L263.5 507l-24 15h-12l-21 11-2.5-11.5 1.5.5 3.5 1.5 1.5 4.5 5.5-1.5.5-3.5 19.5-12.5 11.5-16.5 12.5-7.5q7.38-10.12 4-31l3.5-5.5 2.5-.5-1.5-4.5-1.5.5-2-5 4.5-5.5Zm-96 3 1 5 3-5 2.5.5-1.5 3.5-3.5 1.5 3 1-3.5 1.5-1-2-2.5-.5 2.5-5.5Zm-31 23 1.5.5-11.5 21.5-.5-2.5 10.5-19.5Zm82 8 3.5 1.5.5 2.5 1.5.5-5 1 .5 1.5-1.5-.5-.5 1.5-10.5 9.5.5 1.5-1.5.5-4.5 9.5-3 1-.5-2.5q6.6-17.4 20.5-27.5Zm90 0 1.5.5 1 6-5.5 7.5-7 2-3.5-1.5 13.5-14.5Zm76 5 9.5 2.5 2 9-2.5 4.5-13 7-2.5-16.5 2.5-4.5 4-2Zm-28 1 1.5.5 2 10-2.5 5.5-1.5-.5-2-10 2.5-5.5Zm-229 29 2.5 1.5 2 22-3.5.5-2.5-2.5v-20l1.5-1.5Zm37 30 3.5.5-1.5 15.5-3.5 1.5 5 1-5 3-.5 1.5-1.5-3.5 1-17 2.5-2.5Zm-27 7 1.5 10.5-3.5.5-2.5-5.5 3-2 1.5-3.5Zm-14 5 5.5.5-3 4v2l-.5 5.5-2.5-.5-2-7 2.5-4.5Zm471 0 2.5.5 3 8-3-2-2.5-6.5Zm-435 11 5.5 1.5-7.5 4.5.5-1.5 1.5-4.5Zm-4 3 .5 3.5-1.5.5-.5-2.5 1.5-1.5Zm-18 4 .5 5.5-1.5-.5-3.5-1.5.5-1.5 4-2Zm221 1 5.5 1.5 2 9-2.5 4.5-5 1-2.5-1.5-2-9 2.5-4.5 2-1Zm-208 11 1.5.5-1.5 3.5v-4Zm-3 1 1.5.5-8.5 16.5-2.5-.5-.5-5.5-2.5-.5 12.5-10.5Zm183 11 15 5 6-4q19.71 7.79 14.5 40.5l-2.5 5.5-1.5-.5-10.5-21.5-1.5.5-16.5 21.5-1.5-.5-3-10 11-3-.5-1.5 1.5-.5-3.5-5.5-2.5.5-1.5 2.5-1.5-.5.5-1.5-6.5-4.5-4.5-8.5-5-1-2.5 1.5-5.5 8.5-6.5 3.5-2 4v2l2.5 13.5 8 2 5.5-2.5 6.5-9.5 2.5.5q2.27 21.27-9.5 28.5L297 641.5l-2-7 8-22 15.5-15.5 18-9Zm2.5 14-2 3 1 3 1-2 2 2-3 1 2 3h2l-2-9-1-1Zm4 10 2 2v-1l-2-1Zm-210.5-7 5.5 1.5-.5 5.5-5 3v-10Zm2 13 3.5.5-.5 5.5-5.5-2.5 2.5-3.5Zm-6 18 3.5.5-1.5 9.5-3.5 1.5 2 1-3 5 3 1-2.5 1.5-1.5-.5-5 16 3 1 3 17-22.5 67.5-1.5-.5 2.5-12.5 3.5-1.5-1-8 3.5-8.5 3.5-1.5-1-9 3.5-13.5 3.5-1.5-1-9 1-8-1-2 1-3-6-1q1.77-18.73 12-29l-2-1 4.5-11.5Zm168 24 3.5 2.5-.5 3.5-5.5-3.5.5-1.5 2-1Zm322 0 2.5.5 3 8-3-2-2.5-6.5Zm12 20 5.5 12.5-3-2-2.5-10.5Zm-22 17 6.5 5.5 3 18-1.5-.5-2.5-.5-5.5-10.5-1.5 3.5.5 1.5-1.5.5 1 2-1.5 10.5-3.5-2.5-2-10 8.5-17.5Zm28 5 2.5.5 3 8-3-2-2.5-6.5Zm-543 12 2.5.5-.5 12.5-5.5-3.5 3.5-9.5Zm2 17 .5 12.5-3.5 5.5-2 1-.5-15.5 5.5-3.5Zm511 6 7 4 1.5-.5-.5 1.5 3 2 1-5 5.5 11.5v19l6 16-6.5.5q-13.26-20.82-17-49Zm-520 19 3.5.5-.5 6.5-4-1-1.5.5 2.5-6.5Zm15 11 .5 18.5-5.5.5-.5-12.5 2.5-5.5 3-1Zm142 1q10.25-1.25 11.5 6.5l3 11-23.5.5.5-1.5 8.5-16.5Zm.5 6-4 4 1 2 5-3v-2l-2-1Zm-154.5-5 .5 15.5h-1l-5-8 5.5-7.5Z"/><path fill="#AD7215" stroke="#AD7215" stroke-width="3" d="m320.5 60 10.5.5-1.5 5.5-9-6Zm27 0 1.5.5-2.5 3.5-5 2-2.5-1.5 8.5-4.5Zm-42 4 .5 2.5-6 11 4 2 2 5-1.5-.5-4.5 1.5 1 4-4 1-2.5 4.5-2-1-1 2 1.5.5-13.5 5.5.5-1.5 1.5-3.5 1 4 5.5-10.5-2-1L305.5 64Zm93 2 3.5 2.5-2.5 3.5-3.5-2.5 2.5-3.5Zm-75 10 .5 2.5-3.5 5.5-3.5-1.5 2.5-3.5 4-3Zm44 2 23 6 9.5 7.5 8 22v13l18 35v37l12 28-4.5 1.5-3-12-2.5 1.5-8 35-13.5 15.5-40 20h-35l-4-12-3.5.5-1.5 5.5-10.5-8.5-2.5-3.5-3.5.5-1.5 5.5-4.5-2.5-7-17 4.5 1.5 8.5 2.5 1.5 7.5 22 8h26l7.5-5.5-2-1 9-6 2-7-4.5-6.5-1.5-.5 4.5-5.5 27.5-20.5 3-5-5-9 12-28v-13l-5-1 9-7 2-5-7.5-9.5-34.5-3.5 1.5-4.5 28.5-1.5-5.5-7.5-7-3-16 6v-1l22.5-11.5-9.5-30.5-19-11ZM387 240l-3 5 5 1 1-4-3-2Zm-8 12v6h4l1-4-5-2Z"/><path fill="#AD7215" stroke="#AD7215" stroke-width="3" d="m365.5 132 5.5.5-8 5-8.5 17.5-.5-4.5 8.5-16.5 3-2Zm-42 2 6.5 10.5-4.5 8.5-2-9-5 2-1.5-7.5 7-1-.5-3.5Zm-18 10 6.5 1.5-1.5-.5-16.5 8.5 1 14-1.5.5-5.5-3.5q-1.75-10.75 3.5-14.5l14-6Zm66 12 12.5 3.5 1.5 6.5 3.5 1.5-8.5.5-3-11-17.5 8.5q9.45 12.05 6 37h-1l-6.5-16.5-2.5.5-1.5 2.5-6.5 5.5-.5 6.5-6.5-3.5 1.5-8.5 3 2 2-4 1 2q9.79-7.21 6-28l6 1 11-6Zm-55 6 12.5.5-9.5 4.5-3-5Zm129 18 4.5 2.5-2.5 9.5-3.5-2.5 1.5-9.5Zm-180 9 1.5 2.5-2-1 .5-1.5Zm6 15 4.5 1.5 2 4-2 1 1 5-1.5.5-5.5-3.5 1.5-8.5Zm85 6 3.5 2.5 2 3-12.5.5v-1l7-5Zm-20 6 4.5.5-10.5 7.5-.5-4.5 6.5-3.5Zm109 0 4.5 1.5 6 21-4.5 1.5-7.5-22.5 1.5-1.5Zm-175 3 4.5 2.5-2 1 2.5 4.5 1.5.5-6.5 1.5-1.5-8.5 1.5-1.5Zm65 9 2.5.5-12.5 5.5v-1l10-5Zm6 0 14.5.5-8 10 2.5.5 9.5-5.5-1-5 1.5-.5 10 5 1.5-.5-6 2-.5 5.5-3.5 1.5-4.5 10.5q-11.44 1.94-15.5-3.5l-5-11 2-3 .5-2.5 2.5-1.5-.5-2.5Zm1.5 12-1 4q3 5 16 2l2-5-17-1Zm118.5 0 1.5.5-1 5 3.5.5 2.5-1.5-1.5 2.5-4.5 2.5-1.5 2.5-4.5-1.5 1.5-8.5 4-2Zm-185 4q7.83 4.17 5.5 18.5l-2.5.5-8-5-1.5.5 3.5-6.5 2.5-.5.5-7.5Zm195 14 2.5 6.5-3.5 5.5-2.5.5 3.5 5.5 8.5 2.5q-2.21 15.71 7.5 19.5l3.5 1.5-3.5 1.5-11.5-8.5-14-30 2.5 1.5 3.5-.5 3.5-5.5Zm-201 13 5.5 17.5-5.5 10.5v-28Zm37 5 3.5.5 3 5-7.5 1.5-.5-5.5 1.5-1.5Zm11 10 7.5 6.5 4 12h-1L318.5 286Zm-58 8 3.5.5-2.5 5.5-3.5-2.5 2.5-3.5Zm46 1q8.77 8.73 5.5 29.5l-5.5 8.5v-38Zm186 6 5.5 10.5-6 1-.5 1.5-5.5-7.5 6-1-1-3 1.5-1.5Zm-238 5 3.5 2.5-5.5 3.5-.5-3.5 2.5-2.5Zm253 6 12 11 6-5 11 12-12-11-6 5-11-12Zm-165 3q5.25 14.25 24 15l9-5q6.24 15.76 27 17l23-12h19l23 12h19l16.5 11.5-2 1 4 5-1.5.5-15-6-2.5 3.5 10 5 2 7-6.5 2.5-17.5-8.5-2.5-9.5-9.5-2.5-3.5-8.5-32-1-11 4-2-4-22 10q-7-8-26-4l-9.5-7.5-15-23 1.5-2.5Zm-93 4 2.5 1.5-17.5 32.5-1-5-5 1-.5-1.5 5.5-7.5 1 2 3.5-1.5 2-4-2-1 9.5-15.5 2-1Zm14 7 .5 4.5-3.5 4.5-7 1v-1l7.5-4.5 2.5-4.5Zm12 10 6.5 1.5v11L270.5 369l-.5-15.5 6-11-2.5-.5-7 8-22 10 1.5-2.5-.5-3.5-11 9 7-10 10.5-5.5.5-2.5 6 3 17-12Z"/><path fill="#AD7215" stroke="#AD7215" stroke-width="3" d="m299.5 351 1.5 2.5-16.5 42.5-11.5 5.5 2 1-16.5 11.5-1-6-3.5 1.5-5 10 2 1-11.5 6.5-2.5-1.5 10-9 17-37-2.5-.5-8 4-.5-1.5 4.5-5.5 1 2 18-3 21.5-21.5 1.5-2.5Zm-86 9 2.5.5-3.5 5.5q-5.5-3 1-6Zm227 24 13 12 5-12 3.5 2.5q3.25 12.25-2.5 15.5l-21.5-8.5 2.5-9.5Zm30 0 9.5 8.5 18 38-2.5 1.5-16-21-11.5-5.5v-19l2.5-2.5Zm-231 18 2.5.5-2.5 3.5-5 4 .5-3.5 2.5-3.5 2-1Zm-54 4 .5 2.5-11.5 22.5-1.5-4.5 12.5-20.5Zm-20 14 1.5 2.5-6.5 7.5-3 1 .5-1.5 7.5-9.5Z"/><path fill="#AD7215" stroke="#AD7215" stroke-width="3" d="m506.5 420 2.5 1.5 4.5 5.5 14.5 7.5v5l12 17-5 9 11 15-6 10 12 4 .5 9.5 3.5 1.5 2.5 22.5 3.5 1.5 2 40 5 9-5 10 3.5 5.5 2.5-.5 1.5-3.5 3-1 .5 1.5-2.5 3.5-2.5.5 1.5 3.5 22.5 17.5-1.5 2.5-15-12-1.5 2.5 12.5 18.5 11.5 5.5 6 22q-8 7-6 24l-6 10v20l-9.5 17.5-2-3-5-3-2 23q-9.45-10.05-5.5-33.5l16-9 6.5-18.5 1.5-.5-1.5-3.5-14 5-6.5-6.5-14-34v-37l-12-29v-25l-12-17v-13l-18-41-1.5-12.5-2.5.5-.5 1.5-8 4-17.5-7.5-1.5-10.5-2.5.5-19.5 28.5-.5-21.5 11-5 3.5-6.5 13-2 12 18 1.5-.5 1-17-6-11 2.5-1.5 12 18 3.5-2.5v-9l-12-22 2.5-2.5Zm43.5 84-4 10 4 2 2-11-2-1Zm6 24-4 10 4 2 2-11-2-1Zm42 114-4 5 5 1 1-2-2-4ZM167.5 433l2 5 3.5.5-10.5 5.5-.5-5.5 4-2 1.5-3.5Zm49 3 1 2 10-2 .5 2.5-17.5 28.5-.5-2.5-.5-2.5-5 1-.5-1.5 5.5-10.5 1 5 11.5-8.5-.5-3.5-8.5-.5 3.5-7.5Zm-27 2 2.5 3.5-5.5 7.5-1-5-4.5-.5 8.5-5.5Zm-40 4 1 2 1.5.5-13 8 2 3-3-2 6.5-10.5 3 1 2-2Zm24 14 2.5.5q-4.48 10.52-18.5 11.5v-1l16-11Zm-18 4 .5 2.5-5 11-1 3-2.5 3.5-2.5-1.5 10.5-18.5Zm22 3 8.5 8.5-2.5 2.5-7.5.5-1.5 3.5-3-4-2.5-.5 5-2 3.5-8.5Zm22 11 4.5 1.5-3.5 4.5-2.5-4.5 1.5-1.5Zm-37 5-2 5-8 2 1-2 9-5Zm5 5 .5 2.5 1 6-1 4 8 2-6.5 4.5-5-4-13 5v-1l5.5-2.5 10.5-16.5Z"/><path fill="#AD7215" stroke="#AD7215" stroke-width="3" d="m462.5 487 3 5 2.5 1.5-1.5 4.5-2.5 1.5-16.5 27.5-5.5-3.5-.5-1.5-3.5 1.5-5.5 15.5-.5-26.5 2.5-2.5 9.5 9.5 1.5 2.5 8.5-7.5q9.5-8.5 8.5-27.5Zm12 5 5.5 1.5-1.5 4.5-4.5-1.5.5-4.5Zm-313 13 1.5 3.5-5.5 9.5-1.5-.5-.5-1.5-6.5-.5 1-4-.5-1.5 10.5-1.5 1.5-3.5Z"/><path fill="#AD7215" stroke="#AD7215" stroke-width="3" d="m143.5 511 1.5 5.5-1 4 8.5 1.5 3.5-2.5-6.5 9.5-6.5-1.5 1-4-4.5-1.5-1.5.5 5.5-11.5Zm39 5 3.5 2.5-.5 28.5-3-1-4 5-1.5.5-2.5 5.5-.5-5.5 6-11v-22l2.5-2.5Zm-14 1 4.5 7.5-2.5 3.5-8 3 3.5-4.5 2.5-9.5Zm156 11 5.5 2.5q2.75 18.75-5.5 26.5 2.88-16.37-4-23l-4 1 1-4 7-3Zm-175 4 .5 2.5-5.5 10.5-.5-5.5 5.5-7.5Zm12 0 .5 2.5-5.5 10.5-1.5-3.5 6.5-9.5Zm3 8 3.5 2.5q1.83 14.33-5.5 19.5l-.5-4.5 5-11-2.5-.5-3.5.5 3.5-6.5Zm281 0 4.5 1.5-1.5 4.5-4.5-1.5 1.5-4.5Zm-14 1 .5 11.5-7.5 17.5q-19.18 2.82-28.5 15.5l1 4-1.5 2.5q-7.33-5.17-5.5-19.5 4-6.5 18.5-2.5l8.5-6.5 3-6-4.5-7.5-1.5-.5 2.5-3.5 3.5.5 2.5 4.5 7.5-6.5 1.5-3.5Zm-126 2 .5 2.5-8 23-17.5 17.5-47 14-4.5-3.5-2.5-8.5-14 5q-20.65-12.35-26.5-39.5h1l8.5 16.5 8.5 2.5 3.5 8.5 3 1q6-7.5 21-6l5 18 32-8 29.5-29.5 7.5-13.5Zm18 16 .5 5.5-5.5 10.5-.5-5.5 5.5-10.5Zm-176 5 3.5.5-1 4 2 1-5.5.5-1.5-2.5 2.5-3.5Zm18 12 2.5 1.5-1.5 7.5.5-1.5-.5-1.5-4 3-.5-2.5 3.5-6.5Z"/><path fill="#AD7215" stroke="#AD7215" stroke-width="3" d="m415.5 576 10.5 9.5-1.5 2.5-10.5-9.5 1.5-2.5Zm-254 13 1.5 3.5-7 18v2q2 9.5-3.5 11.5l-2.5-.5-3.5-12.5-1.5-.5 4.5-8.5 10.5-9.5 1.5-3.5Zm134 10 1.5 1.5-15 15 .5 2.5 5.5.5-1.5 3.5-17 2-5.5 3.5.5 2.5 5.5.5-1.5 4.5-9.5 1.5 5 18-3.5 5.5-2.5.5q-1.3 11.8 6.5 14.5l11.5 5.5q2.38 13.13 12.5 18.5l29.5 5.5q-1.19 19.69 12.5 24.5l17 3 11 6 1.5-17.5-6-13 2.5-3.5 27.5-9.5-6-11 5.5-8.5 4-3 5 12q12.25 3.25 15.5-2.5 2.78-18.22 17.5-24.5l.5 2.5v31L411.5 707l-14-5-3 12-6.5-4.5-.5-1.5-3.5 1.5q3.2 18.3 14.5 28.5l1.5-.5 1.5-2.5 16.5-10.5 21.5-32.5 13-8-2.5 3.5.5 2.5 5-1 .5 1.5-11.5 20.5-1.5-2.5 7-12-1.5.5-8.5 6.5-8 16 2.5.5 4.5-1.5q-8.92 6.58-7 24l28.5 12.5 1-2 17-9 7.5 18.5-12.5 23.5-5.5-.5-.5-5.5-5.5 2.5-.5 3.5-5.5-.5 2.5-11.5 9.5-2.5-.5-15.5-27 17-7-5-2 18-83.5-.5-1.5-5.5-5 1-4-1-2 6-11.5-.5-2.5-5.5-3.5 2.5-.5 3.5-17.5-.5-6-18v-11L272.5 714l-2.5.5-.5 2.5-11 6-.5-51.5-8.5-11.5-3.5 1.5-1.5 10.5-10.5-3.5-11-37 1.5-.5 29.5 21.5.5 1.5 3.5-1.5q-5.07-25.07 7.5-32.5l30-21ZM278 708l-2 5 5 1 1-4-4-2Zm46 30-5 3q-11 8-7 31l11 2 1-24 6-10-6-2Zm33 6-3 3v9l6 16 4 2 2-2v-25l-9-3Zm41 0-2 2 2 9 10 7 5-2 2-7 5 3h2l4-1-1-5-4 1-1-3-4-3h-2l-4-1-2 11-4 1-2-10-4-2Zm47 6-7 10 2 2 10-6v-2l-5-4Zm-48 12-1 17 16 1 2-5v-2l-1-5-5 2 1 4h-4l-5-10-3-2Zm25 12-2 5 5 1 1-4-4-2Z"/><path fill="#AD7215" stroke="#AD7215" stroke-width="3" d="m303.5 600 2.5.5-3.5 5.5-2.5-.5 3.5-5.5Zm105 3 13 19 10.5 3.5-1.5 4.5-2.5 1.5-2 9v2l-.5 3.5-10 8-1.5-2.5 12-22-3.5-4.5-18-1-2.5-2.5 1.5-3.5 10.5-.5-7-12 1.5-2.5Zm-241 3 6.5 1.5q-1.94 15.94 6 22v55l-12 29v25L143.5 786l-5.5-.5 24-41q-2.71-19.21 4-29l-4-7-.5-60.5-3.5-1.5-2-11 3.5-5.5 1.5.5 1.5 17.5 3.5-1.5 2-22-4.5-8.5-1.5-.5-.5-3.5-1.5-.5 1.5-2.5 6-3Zm-39 12-1.5 2.5 4 5-5-4 2.5-3.5Zm311 6 4.5 1.5-1.5 7.5.5-1.5-.5-1.5-4 3-.5-2.5 1.5-6.5Zm50 6 2.5 1.5-1.5 16.5-16.5 1.5 1.5 16.5 2.5-.5.5-1.5 12-4 1.5 28.5-4.5 1.5-3-18-10.5 1.5q-3.19 19.69 6 27l-2.5 1.5-15.5-18.5 4.5-7.5 1.5-.5-1.5-3.5-10.5-1.5 20.5-39.5 5.5 3.5.5 1.5 1.5-.5 1.5-2.5 4-3Zm-219 36 5.5 2.5-1.5 3.5-3.5-.5-.5-5.5Zm235 0 4.5 1.5-1.5 4.5-4.5-1.5 1.5-4.5Zm-203 18 3.5 2.5-2.5 3.5-3.5-2.5 2.5-3.5Z"/><path fill="#AD7215" stroke="#AD7215" stroke-width="3" d="m153.5 702 2.5 1.5-2.5 10.5-3.5-1.5 3.5-10.5Zm296 12 6.5 1.5-1.5 28.5-9.5-3.5-1-21 3.5-4.5 2-1Zm-216 13 1 2 3-2 10.5 9.5.5 1.5 1.5-.5 7.5-10.5.5 11.5-9.5 17.5-36.5 19.5-2.5 10.5-5.5-.5v-8q11.11-5.39 12-21l-2.5-.5-6.5 5.5 9.5-12.5 4 1 1.5-5.5-2-1 13.5-16.5Zm343 18 5.5 15.5h-1l-4.5-15.5Zm-395 5 4.5 1.5-.5 11.5-4-1-1.5.5 1.5-12.5Zm324 6 4.5 1.5 6 21-2.5.5-7.5-6.5-2-15 1.5-1.5Zm77 7 11.5 22.5-5.5.5-6-23Zm-402 4 4 1 1.5-.5-.5 18.5-5.5-.5.5-18.5Zm59 1 .5 2.5-5.5 3.5.5-1.5 2.5-3.5 2-1Z"/><path fill="#CAA815" stroke="#CAA815" stroke-width="3" d="m353.5 60 8.5 5.5-2 1-.5 1.5-4-1-1.5.5-.5-7.5Zm19 0 5.5 2.5-2.5 3.5-5 1-.5-1.5 2.5-5.5Zm-25 3 .5 6.5-7.5 2.5 3-4 3.5-1.5-4-1 4.5-2.5Zm-42 4 2.5 10.5-2 1-.5 4.5-3-5-2.5-.5 5.5-10.5Zm79 21 2.5 1.5 3 18 6 12-5.5 2.5q-10.15-10.83-6-34Zm-87 2 2.5 5.5-6.5 1.5-2.5-1.5 2.5-1.5 1.5.5 2.5-4.5Zm-15 10 3.5 2.5-3.5 2.5-1-2-5 10-1.5-3.5 4.5-7.5 3.5-.5-.5-1.5Zm38 32 9.5 2.5-.5 8.5-6-9-3-2Zm-10 6 7.5 1.5-1.5 4.5-4.5-1.5-1.5-4.5Zm-16 6 10.5.5-12.5 5.5 1.5-2.5.5-3.5Zm73 17-1.5 4.5-.5 13.5-5.5-13.5 7.5-4.5Zm-62 1 6.5 3.5-6.5 2.5.5-1.5-.5-4.5Zm44 6 4.5 1.5-.5 9.5-3-5-2.5-1.5 1.5-4.5Zm36 0 19.5.5-9.5 5.5-10-6Zm-32 12 .5 1.5-2 1 1.5-2.5Zm54 0 .5 1.5-2 1 1.5-2.5Zm-138 2 .5 10.5-1.5-.5-2.5-1.5 3.5-8.5Zm82 2 .5 1.5-4 3 3.5-4.5Zm50 9 .5 6.5-5.5 9.5-.5-6.5 5.5-9.5Zm-129 5 3.5.5-.5 6.5-4-1-1.5.5 2.5-6.5Zm124 13 4.5 8.5-13.5 14.5-17.5 10.5-4 5 4 3 2 7-2 1 1-4-2.5-4.5-10.5-.5 5.5-11.5 2.5-.5.5-5.5 5-1 6 1 18.5-15.5.5-7.5Zm-126 2 4.5 2.5-4 1 7 5-2 1-.5 4.5-2.5-4.5 2-1-4.5-2.5-1.5.5-1-3 2-1 .5-2.5Zm194 3 3.5 2.5 2 3-2 1-.5 3.5-2-4-3.5-2.5 2.5-3.5Zm-180 12 3.5.5-.5 12.5-10.5-1.5 5-3 2.5-8.5Zm54 0-2.5 3.5.5 1.5 2-1-.5 3.5-1 3 6 11-6.5-5.5-1.5-.5-1.5-3.5-3.5-.5 1.5-3.5 3.5-1.5-4-1 7.5-5.5Zm15 4 1 2 2.5.5-8.5 4.5-.5-1.5 5.5-5.5Zm33 8 3.5 1.5-1.5 4.5-4.5-1.5 2.5-4.5Zm77 0 4.5 2.5-2.5 3.5-3.5-.5 1.5-5.5Zm-191 6 3.5 2.5-.5 3.5-3.5 1.5-1.5 2.5-.5-7.5 2.5-2.5Zm202 0 5.5 2.5-13.5 3.5 2-3 6-3Zm-182 6 10.5 5.5-5.5.5-4.5-2.5-.5-3.5Zm86 0 5.5 1.5-1.5 4.5-3.5-.5-.5-5.5Zm94 6 1.5.5-.5 1.5-1-2Zm-203 3 .5 10.5-2.5-1.5-5.5-.5 1.5-3.5 6-5Zm37 0 10.5 8.5-5.5.5-5.5-3.5.5-5.5Zm63 1 .5 1.5-4 3 3.5-4.5Zm104 3 3.5 10.5-5.5.5-3.5-5.5 4-2 1.5-3.5Zm-113 4 2.5 1.5q-2.73 6.77-13.5 5.5v-1l11-6Zm-41 1 15.5 5.5-5.5.5-10-6Zm-10 12 8.5 3.5-.5 4.5-5-4-1.5.5-1.5-4.5Zm171 1 5.5 12.5-4-3-1.5-9.5Zm-174 2q7.33 5.17 5.5 19.5h-1q-7.04-6.21-4.5-19.5Zm182 15 9.5 2.5 6 13-3.5 2.5-7.5-5.5 5-1-5.5-10.5-3 1-1-2Zm-152 10 5.5 9.5-4-3-1.5-6.5Zm-73 3 1.5 3.5-2.5 10.5-2-3-1.5-.5-1-3 5.5-7.5Zm82 11 6.5 7.5h-1l-5.5-7.5Zm-34 1 .5 6.5-5.5 9.5-.5-7.5 5.5-8.5Zm-78 14-2.5 3.5-.5 1.5-.5-1.5 3.5-3.5Zm18 1 1.5.5-1.5 7.5-5 3-.5-3.5 5.5-7.5Zm22 2 2.5.5-5.5 10.5-1-4-2 1 .5-1.5 5.5-6.5Zm138 0 2.5.5 1.5 3.5q14.5-8 41-4l4.5 3.5 3.5 8.5 9.5 2.5 2.5 9.5 19 6 2.5-5.5-2.5-4.5-9.5-4.5 2.5-3.5 20 6h2l5.5 3.5-.5 2.5-11.5.5-2.5 9.5-7 1-14-5-.5 11.5 20.5 41.5 3-2 12.5 21.5v9l-3.5 2.5-12-18-2.5 1.5q8.65 7.35 6 26l-1.5 2.5-7.5-6.5-5.5-11.5-13.5 2.5-5.5 8.5-8 2-.5-2.5 21-23 3-12-6.5-8.5-29-15h-6l-1 3-20 8-6-4-6 10-1.5-.5-2-10 11.5-17.5 1 2 16-17 6-3 1 2 3 2 12-17 3.5-.5-6.5-8.5-6-3h-42q-4.81 7.69-19 6l-9-4-6 4-3-4-3.5-1.5 18.5-.5 9 4 17-10Zm29.5 42-3 10 22 8q5-3 2-15l-3-3-5 12-13-12Zm30 0-3 3v19l12 5 16 21 2-1-18-38-9-9Zm-165.5-40 .5 4.5-5.5 10.5-.5-4.5 5.5-10.5Zm-78 1 .5 2.5.5 5.5 1.5.5-7.5.5.5-1.5 4.5-7.5Zm32 8 .5 2.5-12.5 4.5v-1l12-6Zm10 8 .5 7.5-7.5 4.5-.5-1.5 7-5-2-1 2.5-4.5Zm30 0 .5 6.5-11.5 21.5-.5-5.5 11.5-22.5Zm-38 18 2.5.5-.5 4.5-17 14-.5-2.5 8-11-2-1 .5-1.5 2 1 7-4Zm-88 15 .5 4.5-7.5 3.5 7-8Zm108 2 2.5.5-1.5 2.5-7 4-2.5-1.5 8.5-5.5Zm-96 9 1 2-3.5.5 2.5-2.5Zm84 0-7 10-11 6-2.5-1.5 6.5-11.5 2.5.5.5 5.5 11-9Z"/><path fill="#CAA815" stroke="#CAA815" stroke-width="3" d="m508.5 420 16.5 11.5-4.5.5-11.5-9.5-.5-2.5Zm-262 2 1.5.5-2.5 1.5 1-2Zm-5 3 3.5 1.5-12.5 5.5 2-3 7-4Zm-86 5 3.5 2.5-3.5 6.5-4-1-1.5.5 5.5-8.5Zm373 5 9.5 9.5 17 41 9.5 9.5 9.5 5.5 1 6q-7.83 8.17-5 27l5 10-4 6 4 6-5 14q8.08 27.42 28 43l11.5 29.5 2-1 2.5 6.5-2 1v12L600.5 677l-.5-10.5 6-19-8.5-17.5-12.5-6.5-9-16 2.5-1.5 14 12 1.5-2.5-24-19-.5-2.5-3.5-1.5-2-5 5-9-5-9v-36l-3.5-5.5-2.5.5-2.5 11.5-3.5-2.5 3.5-9.5 2.5-.5q3.5-17-3.5-23.5l-2.5.5-2.5 11.5-3.5-2.5 3.5-9.5 2.5-.5-2.5-11.5-9.5-1.5 6-11-11-15 5-9-12-16 .5-4.5ZM574 589l-2 1-2 4h3l2-4-1-1ZM188.5 438l-3 4-1.5-.5 4.5-3.5Zm37 5-.5 1.5-.5 1.5-.5-1.5 1.5-1.5Zm-50 12 1.5 1.5-9.5 9.5 8-11Zm31 1 .5 1.5h-1l.5-1.5Zm12 0-5.5 6.5-.5 1.5-.5-1.5 6.5-6.5Zm-63 3 1 2-3.5.5 2.5-2.5Zm53 7 2.5 1.5-4.5 6.5-3 1-4-1-1.5.5.5-6.5 6-1h2l2-1Zm-59 2 .5 1.5-2 1 1.5-2.5Zm23 3 1.5.5-3.5 1.5v-1l2-1Zm-4 2 3.5 1.5-11.5 6.5-.5-1.5 8.5-6.5Zm8 1 .5 1.5h-1l.5-1.5Zm285 1 .5 23.5-15.5 23.5-2.5-1.5-9-10 6.5 5.5 2.5-.5.5-5.5 4.5-2.5 12.5-32.5Zm-288 1 1 2 1.5-.5-7.5 13.5-.5-4.5 5.5-10.5Zm-21 8v3l-2.5-1.5 2.5-1.5Zm-11 2 2.5.5-3.5 5.5q-5.5-3 1-6Zm36 0 2.5 7.5h-1l-.5-1.5-7.5-.5 6.5-5.5Zm16 0 4.5 2.5-1.5 3.5-4.5-1.5 1.5-4.5Zm400 3 .5 31.5h-1q-7.17-6.83-5-23l5.5-8.5Zm-416 8-6 7-4 1-3-1-2 4-2-4-3.5-.5 8.5-4.5 6 4 6-6Zm-33 5 1 2 5.5.5-1 4 .5 1.5-6 1v-9Zm202 3 5.5 1.5 2 16-22 25-6 24-26 34 2 1-7.5 10.5-1-2-6 7 .5-1.5-.5-2.5-5.5-.5 15-17-.5-1.5 19.5-17.5 14-35v-16l-5.5-2.5-9.5 5.5.5 1.5-7.5 5.5-1.5 3.5-3.5 1.5-5 11-29.5 29.5-32 8-5-18q-15.42-1.42-22 6l-4.5-3.5-3.5-8.5-3.5-2.5.5-9.5 8-1q7.99-12.51 24-17l2.5 3.5-15 11-8 21 2.5.5q7.54-14.96 27-18l4.5 2.5 1 6-4 6 10.5 3.5 26-16 14.5-4.5 2-16 10.5-13.5 25-10 10 5 7.5-8.5-3-6 2.5-1.5Zm-201 11 7.5.5-2.5 4.5-5 1-1.5-4.5 1.5-1.5Zm286 4 .5 20.5-8.5 10.5-3.5-2.5-.5-2.5-2.5-.5 3-5-5-10 1.5-2.5-1.5-.5 16.5-7.5Zm-266 8 4.5.5-7.5 8.5-.5-2.5 3.5-6.5Zm430 0 4.5.5-.5 8.5-4-9Zm-416 7 .5 5.5-5.5 10.5-.5-5.5 5.5-10.5Zm235 15 3.5 2.5 2 6-6.5 8.5-23.5 5.5 3 15h-1l-1.5-3.5-1 2-11.5-18.5v-6q5.08-5.42 17.5-3.5l11 6 8-14Zm-288 1 .5 1.5h-1l.5-1.5Zm29 4 .5 2.5-3.5 6.5-6 1v-3l3-1 1 2 5-8Zm-18 15 6.5 3.5-2.5 8.5-3.5-.5-.5-5.5-1.5-.5 2-4-.5-1.5Zm28 12 1.5.5-4.5 9.5-2.5-6.5 5.5-3.5Zm231 8 17.5 27.5-11.5 1.5-11.5-2.5 7.5-10.5 3.5-.5-8-14h2l.5-1.5Zm-241 2 1 2 1.5.5-9.5 8.5.5-1.5-.5-1.5-3.5-.5 10.5-7.5Zm-11 17 1 2 1.5.5 3.5 12.5 5.5-3.5.5-8.5 5.5.5.5 3.5 1.5.5q6.83 7.67 4 25l-3.5 6.5-2.5.5-.5 22.5-11.5-16.5v-13l8.5-17.5 3.5-.5-2.5-4.5-5.5 4.5.5 1.5-7 4-3.5-2.5.5-17.5Zm15.5 21-4 6 4 12h2l-1-17-1-1Zm123.5-7 2.5 1.5-14 7-6 21 7 13-3 1 1.5 5.5 4-1 1 4 7 2 2.5-1.5 5.5-9.5 7.5.5 6.5 8.5 1-2 14.5 22.5 2 10-4 6 24.5 13.5 3.5-2.5-4-6 20.5-37.5q12.03-12.47 33-16l9.5-9.5q10.8-6.2 8-26l-2.5-3.5q10.47-1.97 13.5 3.5l1 3-12 22 2.5 1.5 9.5-8.5.5-3.5 9.5-6.5 1.5-3.5 4-2 1.5.5-16.5 27.5-13.5 11.5-7.5 14.5q-12.25 3.25-15.5-2.5l-2.5-9.5-5.5 4.5-4 8 6 10-29 11-1 3q8.5 8 6 27l-1.5 2.5q-6.06-7.94-22-6L321 719.5l-5.5-17.5q-29.19 4.69-36.5-12.5l-5.5-11.5-13.5-7.5-2-10 3-1 3-12-5-11 11-3-.5-3.5-5.5-.5 1.5-3.5 18-3ZM406 666l-9 10 3 1 8-10-2-1Zm-103 18-3 4 4 2 2-3-3-3Z"/><path fill="#CAA815" stroke="#CAA815" stroke-width="3" d="m597.5 642 2.5 3.5-1.5 2.5-4.5-1.5 3.5-4.5Zm-325 6 3.5 1.5-.5 3.5-5.5-2.5 2.5-2.5Zm-131 30 6.5 2.5 1 6-10 19 10.5 8.5h2l4.5-2.5-1-9 6.5-17.5q-2.78 21.78 4.5 33.5-7.45 7.55-4 26L150.5 761l-.5-6.5q10.06-9.94 6-34l-11.5-.5-10 6-2.5-2.5v-19l5-6 4.5-20.5Zm456 5-.5 1.5-.5 1.5-.5-1.5 1.5-1.5Zm-144 1 2.5 4.5-5.5 1.5-.5-2.5 3.5-3.5Zm142 3-.5 1.5-.5 1.5-.5-1.5 1.5-1.5Zm-146 9 .5 2.5-11.5 19.5-4 2-2.5-.5 13.5-21.5 4-2Zm144 13 .5 6.5-8.5 10.5 2.5-3.5 5.5-13.5Zm-323 5 3.5 1.5 20 41v11l6 18-5.5.5-16-54-14.5-.5-.5-5.5-3.5 1.5-1.5 3.5-.5-7.5 12-7 .5-2.5Zm362 0 3.5 2.5q1.94 11.44-3.5 15.5l-2.5-1.5q-3.5-13 2.5-16.5Zm-55 6 6.5 4.5-.5 1.5-1.5.5-1.5 5.5-4.5-1.5 1.5-10.5Zm64 9 2.5 14.5-2 1v21l-2.5 2.5-3.5-2.5v-28l5.5-8.5Zm-65 4q7.7 5.8 5.5 21.5h-1q-7.31-6.81-4.5-21.5Zm-253 5 6.5 1.5-5.5 9.5-1-5-3.5 2.5-2 24 2.5 3.5-8.5-2.5q-4.27-22.77 6.5-30.5l5-3Zm-66 1 .5 5.5-3.5 6.5-2 1-.5-2.5 5.5-10.5Zm-38 5 2.5.5-1.5 5.5-3.5-.5 2.5-5.5Zm137 0 9.5 2.5v25l-2.5 2.5-3.5-2.5-6-16v-9l2.5-2.5Zm58 0 5.5 3.5-.5 8.5-5.5-3.5.5-8.5Zm30 6 5.5 3.5-.5 2.5-10 6-1.5-2.5 6.5-9.5Zm-231 6 2.5.5q-.82 15.18-11.5 20.5l-1-3-1.5-.5 1.5-3.5 1 3 5.5-10.5-2-1 5.5-5.5Zm32 0 2.5.5-7.5 16.5-6.5 4.5-.5 8.5-23.5-.5 6.5-14.5q18.83-3.17 29-15Zm-5.5 12-2 1-3 4v1l5-3v-3Zm225.5-12 2.5.5q3.75 13.75-2.5 17.5l-9.5 2.5-.5 9.5-23.5-.5 1.5-17.5 8 5 24-17Zm117 1 11.5 21.5v6h-1l-11-22 .5-5.5Zm-433 5 .5 1.5-2 1 1.5-2.5Zm32 0 4.5 1.5-1.5 4.5-4.5-1.5 1.5-4.5Zm215 0 3.5 1.5 4.5 10.5 9.5.5-2.5 5.5-10.5-.5 1-4-4.5-1.5-1.5.5.5-12.5Zm-249 4 .5 1.5-1.5 2.5-.5-1.5 1.5-2.5Zm-2 5-.5 1.5-2.5 4.5.5-1.5 2.5-4.5Zm502 6 .5 8.5-4.5.5-.5-2.5 4.5-6.5Zm-506 1 .5 1.5-2 1 1.5-2.5Zm179 2 3.5 2.5-.5 3.5-5.5-.5 2.5-5.5Zm144 0 3.5.5-.5 5.5-5.5-.5 2.5-5.5Z"/><path fill="#060515" stroke="#060515" stroke-width="3" d="m356.5 60 13.5.5-7.5 4.5-6-5Zm21 0 6.5 2.5-.5 1.5-2.5 1.5-2.5 3.5-1-9Zm8 0 10.5.5-2.5 5.5-1.5.5 2 10-2.5 1.5-8.5-12.5 6-2-.5-1.5-3-2Z"/><path fill="#060515" stroke="#060515" stroke-width="3" d="m393.5 71 7 1h2l5.5.5 3 5-2.5.5-8-1-2 1-2-3-2.5-1.5-.5-2.5Zm2 8 .5 1.5h-1l.5-1.5Zm7 0 2 5 1.5.5.5 1.5 1.5.5.5 1.5 2.5 1.5-2.5.5-4.5-2.5-1.5-8.5Zm15 17 8.5.5-2.5 5.5-6-6Zm-31 36 3.5.5-2.5 5.5-6.5-.5 5.5-5.5Zm10 0 4.5 2.5-.5 2.5-2 1-2-6Zm-85 18 7.5.5-1 4 .5 1.5-4.5-1.5-1.5-3.5-1-1Zm76 0 15.5 5.5-2.5 5.5-14.5-8.5 1.5-2.5Zm18 7 1.5.5-2.5 4.5-2.5-.5 3.5-4.5Zm-50 36 4 2 1.5-.5 4 8-2.5.5-6.5-4.5-2-4 1.5-1.5Zm77 8 5.5 4.5-.5 10.5-2.5-.5-2.5-14.5Zm0 39 2.5.5-10 6 .5 1.5 15-7 3.5 2.5 7.5 17.5 5.5 2.5.5 2.5 1-3 9.5 18.5-4-3-2.5-6.5-.5 2.5 2 7v2l20 32-1.5-.5-12.5-10.5-7.5-14.5-9.5-7.5-2.5-3.5-3.5 1.5-2 8 8 26-1.5.5-5.5-4.5-7.5-12.5-4-1-5 1q-12.75-9.25-8.5-35.5l1-2-1-11 12.5-9.5Zm-7.5 8-1 3h1v-3Zm-1 4-1 3h1v-3Zm-1 3-1 3h1v-3Zm-1 3-1 2h1v-2Zm37 8-1 2h1v-2Zm1 2-1 2h1v-2Zm-7 1-1 5h2v-4l-1-1Zm8 1-1 2h1v-2Zm-176.5-6 1.5.5-3.5 15.5-.5-13.5 2.5-2.5Zm10 0 2.5.5 3 13-1.5.5-3-7-.5 3.5 2.5 4.5 3.5 1.5v29L285.5 326l-12 5-.5-1.5 13-21 7-21 2-19-.5-4.5Zm-7 2 .5 11.5-1.5.5-.5-9.5 1.5-2.5Zm18 11 .5 29.5-1.5-.5-2 1-.5-24.5 3.5-5.5Zm-27 11 1.5.5-3.5 5.5-.5-3.5 2.5-2.5Zm-6 12 2.5.5-4.5 10.5-.5-8.5 2.5-2.5Z"/><path fill="#060515" stroke="#060515" stroke-width="3" d="m455.5 314 .5 1.5h-1l.5-1.5Zm-157 11 1.5.5-.5 10.5-1-11Zm-4 1 1.5 4.5-2 1 .5-5.5Zm230 3 1.5.5-1.5.5v-1Zm-44 1 17.5 12.5-.5 5.5-9.5-5.5-8-10 .5-2.5Zm24 0 37.5 35.5-2 1-.5 1.5-17.5-11.5-17.5-26.5Zm-223 1 .5 1.5h-1l.5-1.5Zm-12 1 5 1 1.5-.5-2.5 4.5-8 5-.5-1.5 4.5-8.5Zm23 12 .5 2.5-1.5 2.5-1.5-.5 2.5-4.5Zm218 4 8.5 5.5-2.5.5-6.5-3.5.5-2.5Zm-217 1 .5 1.5-5.5 3.5 1-2 4-3Zm-72 26 .5 5.5-11.5 13.5-4 2-8.5-.5 9.5-11.5 14-9Zm-18 24 .5 5.5-5.5 7.5-4.5 3.5-8.5 13.5-10 3-.5-1.5 4.5-8.5 5-4 .5 1.5-2 5 5-4-2-1 4.5-7.5 1.5.5-1 3 2-1 10.5-15.5ZM191 416l-1 2h1v-2Zm40.5 4 2.5.5-3.5 5.5-2.5-.5 3.5-5.5Zm-60 30 2.5.5-.5 2.5-5 2-.5-1.5 3.5-3.5Zm-6 30 2.5.5-3.5 5.5-2.5-.5 3.5-5.5Zm324 49 9.5 4.5 4 11-3 9 4.5 6.5 6 2 4.5-3.5q7.42-9.58 7.5-26.5l6.5 1.5 4 19-33.5 50.5q-19.17 3.33-30 15h-30l-9.5-6.5-2-4 14.5-4.5 18-15h12l5 3 16.5-15.5 2-7-10-20v-16l3.5-3.5Zm-325 18 2.5.5-2.5 4.5-2.5-.5 2.5-4.5Zm-3 6 .5 4.5-3.5 6.5-2.5-.5 5.5-10.5Zm377 13 1.5.5-.5 2.5-1-3Zm-379 10 2.5.5-5.5 10.5-.5-4.5 3.5-6.5Zm44 18 24.5 15.5-1.5 8.5-8.5 4.5-1 4 6.5 29.5 1-3q5.25 4.75 3.5 16.5h-1l-2.5-13.5-.5 4.5 7 49-4 19 1 6-13.5 9.5 1-3-5 2q.52-22.02-9-34l-1.5.5-2.5 12.5-5.5-.5-2.5-8.5-3-1-4 1-1.5-5.5 9-20 13-46 1-30-2-16 1.5-1.5ZM227 729l-2 3 2-1v-2Zm-28.5-134 1.5.5-.5 3.5-1.5-.5.5-3.5Zm345 24 2.5 1.5-.5 3.5-2-5Z"/><path fill="#060515" stroke="#060515" stroke-width="3" d="m221.5 627 .5 17.5h-1l-2-14 2.5-3.5Zm309 4 5.5.5-1.5 5.5-9 3-1.5-3.5 6.5-5.5Zm12 48 10.5 7.5 5 9v51l-8.5 13.5-6.5-2.5-2-5 2-7q-5.06-4.44-3-16l6-16-11-27 3.5-5.5 4-2Zm-310 24 1.5.5-.5 8.5-1.5-.5.5-8.5Zm290 15 5.5.5-.5 5.5-2 1-3.5-2.5.5-4.5Zm-353 45 3.5 1.5-1 8 1 8-1.5 5.5-9.5-.5q-2.87-17.87 7.5-22.5Zm6 4 1.5.5-1.5.5v-1Z"/><path fill="#110E15" stroke="#110E15" stroke-width="3" d="m382.5 60 6.5 2.5-1.5 2.5-4.5.5 8.5 12.5 2.5-1.5-2-10 3.5-2.5 1.5 2.5-1 4 .5 1.5-3-1 .5 1.5 1.5 2.5 2.5 1.5-.5 1.5-2.5 1.5 1 4-8.5.5-6-12-3.5 2.5-.5 3.5h-39l-2.5-2.5 2.5-3.5q25.29 3.29 38-6v1l-4.5 2.5.5 2.5 8.5-5.5 1.5-2.5 1.5-.5-1.5-3.5Zm-69 12 4.5 1.5-1.5 4.5-4.5-1.5 1.5-4.5Zm87 5 19.5 7.5-3.5 5.5-8.5-2.5-.5-1.5-1.5-.5-.5-1.5-1.5-.5-2.5-5.5-1-1Zm-98 7 3.5 2.5-2.5 3.5-3.5-2.5 2.5-3.5Zm108 12q10.88-1.38 13 6l2.5-1.5.5 1.5 5.5.5 1 6-1 9 1.5 2.5 2.5-1.5 1.5-3.5 2.5 16.5-5.5.5-4.5-10.5-21-24 1.5-1.5Zm12 30 3.5 2.5 9.5 21.5 2.5.5 1.5 5.5 10.5 6.5-.5 18.5-6-1-3.5 1.5-.5 1.5-1.5.5 1.5 2.5 4.5 2.5 1.5 3.5 4-1 .5 2.5 1 13 9.5 17.5 4.5 3.5 3 6-1.5-.5-13.5-5.5-4.5-17.5-4.5-.5q1.31-21.81-12-29v-25l-12-27 2.5-2.5Zm-31 1 6.5 4.5-2 1 2 5-9.5.5 1.5-2.5-.5-3.5-9 6-15.5 3.5-4.5 7.5-.5-4.5 6.5-9.5 18-3 7-5Zm-95 5 19.5 1.5 1.5 3.5 1-2 2 3h-24l-2.5-2.5 2.5-3.5Zm84 12q18.13-1.63 25.5 7.5l2 6-2 1 .5-1.5-2.5 1.5-2 3 2 1-4.5 5.5h-6l-14-12-19.5-.5 3.5-5.5 14.5-.5 2.5-5.5Zm7.5 6-2 3 15 8 2-5-15-6Zm-64.5-3 .5 8.5-4.5.5-1.5-4.5 5.5-4.5Zm-16 3 5.5 1.5 2 4-7.5.5-1.5-4.5 1.5-1.5Zm-11 6 3.5.5-1.5 11.5-4.5-2.5 2.5-9.5Zm41 36 4.5 1.5-2.5 4.5-3.5-2.5 1.5-3.5Zm14 0 5.5.5-.5 1.5-2.5.5 2 4-2.5-1.5-4.5-1.5 2.5-3.5Zm81 6 5.5 3.5-.5 3.5-5.5-4.5.5-2.5Zm-73 2 4.5 3.5-1.5.5-3-4Zm-6 16 11.5 5.5-2 1 3 5-34.5.5v-1l22-11Zm-26 12 2.5.5-.5 2.5-4 2 2-5Zm105 0 5.5.5-2.5 4.5-1.5-.5-1.5-4.5Zm12 6 3.5 1.5 2 19-.5 1.5 2.5 1.5.5 1.5 6-1 23.5 47.5 24 24-2 1 18 25-2.5.5-3-5-6-3-1 2-10-8-2.5-.5 1-5-18-15-2.5-3.5-3.5-2.5-2.5-3.5-13-6-2.5 6.5 12 23-2.5.5-15.5-14.5-2.5-3.5-27-6-10 5q-6.25-9.75-2.5-29.5 8.33-7.67 6-26l5.5-7.5 1 6 3-8 .5 2.5q-7.67 9.33-4 30l8.5 13.5 7-1 5.5 4.5 7.5 12.5 3 1 .5-6.5-8-21 2.5-7.5 3-1 9 10 6.5 4.5 7.5 14.5 10 8 .5-1.5-21-32 1-5-7.5-15.5-7.5-4.5-5.5-15.5-4-1-13.5 7.5-.5 2.5-.5-2.5 3.5-4.5 2.5-1.5-1.5-.5-1.5.5 17.5-8.5Zm-11.5 6-2 1v1l4-1-2-1Zm26 23 5 16 4 3-9-19Zm0 31q-6 3 1 6l2-3-3-3Zm-3 20-1 2h1v-2Zm3.5-80 2.5 1.5-1.5 2.5-4 2 .5-1.5 2.5-4.5Zm-180 6 3.5.5-1.5 5.5-3.5-1.5 1.5-4.5Zm77 0 3.5.5-3.5 5.5-3.5-.5 3.5-5.5Zm-84 18q5.5 2 3.5 11.5l-2.5.5-3.5-9.5 2.5-2.5Zm13 0 6.5 1.5 1.5 4.5 1-4 1.5 3.5-2 1 4.5 13.5 1.5-.5.5-2.5 5.5 1.5q-8.8 8.2-4 30l1.5-.5 2.5 1.5v8l-6.5 9.5-1.5.5 1.5 10.5 1-2 1 2 4-1 .5 3.5-11.5 14.5-1-4-5.5 4.5 2 1-11.5 17.5-2.5-.5 12-35-3.5-6.5-3.5 1.5 1 4-7.5.5 1.5-2.5-.5-1.5-5 1-2.5-.5 2-3-6-9 11-20-2.5-.5-2.5 1.5 8.5-19.5 1.5-.5 1.5-4.5 1 3 3.5-15.5-1.5-.5-2.5 1.5 3.5-7.5Zm2.5 8-2 3 1 9h1v-12Zm7 5-2 17-7 21-13 21 1 1 12-5 15-16v-29l-3-2-3-8Zm-16 17-3 3 1 3 3-5-1-1Zm16 38-1 6 2-1-1-5Zm-2 18-3 5h2l1-2v-3Z"/><path fill="#110E15" stroke="#110E15" stroke-width="3" d="m452.5 269 1.5.5-.5 4.5-1.5-.5.5-4.5Zm18 50 24.5 22.5-12.5-11.5-2.5.5 4 6-7-6-8-10 1.5-1.5Zm54 5 1.5.5-1.5.5v-1Zm-26 20 5.5 8.5-1.5.5-6.5-4.5 2-1 .5-3.5Zm-270 22 2.5.5-8.5 10.5-1-2-13 9 14-15 6-3Zm-19 27-3.5 4.5-1.5 3.5-1-2-20 26-.5-2.5 2-4-5 3q4.73-17.77 17.5-27.5l1 2 11-3ZM191 412l-5 8h2l4-7-1-1Zm58.5-16 2.5.5-4.5 13.5-13 12-1-2-3.5 1.5-2 4 2 1-7.5 5.5-.5-3.5 11.5-18.5 4-2 7.5-3.5 4.5-8.5Zm-52 16 .5 1.5-5.5 8.5-.5-2.5 5.5-7.5Zm-24 16 1 4 3.5.5-8.5 4.5.5-1.5 3.5-7.5Zm-3 22-2.5 3.5 1.5 2.5 2.5.5-15.5 10.5-.5-4.5 3.5-6.5 11-6Zm2 25-.5 1.5-3.5 7.5-1-4-3.5-.5 8.5-4.5Zm316 6 31.5 12.5 14 32v18l6 9q-2.12 16.62 6 23v44l-1.5.5-1.5-.5 2.5 4.5 1-2 5.5 7.5q-3 21 6 30v28q10.07 6.43 6 27l6 9v27l18 35-59.5.5 1.5-2.5 3-7-11-17-1.5-32.5-14.5 7.5-10.5 33.5-3.5-.5v-15l6-14-2.5-4.5-5-1-8 4-6-4-6 5-2.5-2.5v-33l2.5-.5 6 12 7-5 11 4 10.5-8.5 9-10q1.81-17.69 13-26l-11-5-2.5-13.5-6.5-2.5-5.5-29.5-13-5-12.5 7.5-10.5 14.5q-6.33-14.17-30-11L411 599.5l-3-9 5.5-2.5 22 12 .5-4.5-4-13 9-6 2-4q-6.96-5.54-5-20l3.5-6.5 14.5.5q2.65 22.35 14.5 35.5l6.5-5.5 2-4-7-19-9-11q8.46-7.04 5-26l6.5-12.5q13.75 3.75 17.5-2.5l-2.5-3.5-3.5-.5-4.5-7.5-1.5-.5.5-3.5 8-5Zm21.5 23-5 3q-12 4-4 9l7-6q5 3 2 16l4 2 2-2v-19l-6-3Zm-9 18-3 4 4 2 2-3-3-3Zm-11 7-4 4v16l10 20-2 7-16 15-5-3h-12l-18 15-15 5 2 4 10 6h30q10-12 30-15l33-50-4-19-6-2q-1 17-8 27l-4 3-6-2-5-6 3-9-4-11-9-5Zm49 37 1 3v-2l-1-1Zm-14 10-3 10-9 4-2 3 1 5 17 8 11-2-5-8 5-14-2-6-6 5-7-5Zm6 55-7 6 2 3 9-3 1-5-5-1Zm12 48-4 2-4 6 11 27-6 16q-2 11 3 16l-2 7 2 5 7 2 8-13v-51l-5-9-10-8Zm-20 39-1 5 4 2 2-1v-5l-5-1ZM153.5 492l2.5.5-2.5 5.5-3.5-.5 3.5-5.5Zm-7 18 3.5 2.5-2.5 3.5-3.5-.5 2.5-5.5Zm7 12 2.5.5-3.5 5.5-1.5-.5 2.5-5.5Zm11 0 2.5.5-8.5 11.5-2.5-.5 8.5-11.5Z"/><path fill="#110E15" stroke="#110E15" stroke-width="3" d="m446.5 534 3.5 2.5-.5 3.5-5.5-.5 2.5-5.5Zm-291 1 .5 4.5-6.5 9.5-4 2-1.5-2.5 11.5-13.5Zm6 13 1 4 1.5.5-1.5 3.5-1-3-5 10-.5-4.5 5.5-10.5Zm21 4 3.5 1.5 6 19-3.5-2.5-8.5-.5-1.5-4.5-4 2-.5-6.5 7-6 1.5-2.5Zm133 0 2.5.5q-2.89 32.61-25.5 45.5l-35 20q-13.75-3.75-17.5 2.5l-2.5 9.5-13-5-4.5 3.5-1 5 2.5 11.5 1-2 5.5 15.5h-1l-2.5-5.5-.5 2.5 3.5 14.5 1-3q9.38 11.12 5.5 35.5l-2 1 .5 8.5 1.5.5q2.55 16.05-5.5 21.5l-1-5-13.5 14.5 4 1-11.5 17.5-2.5-.5q3.59-19.09-2.5-28.5l-1.5.5-4.5 15.5-1.5-.5-4.5-8.5-5-1-2.5 1.5-2.5 30.5-3-4-2.5 1.5 6 9-5.5 7.5-2 1-.5-4.5 1-8-1-5 1-4-3.5-1.5q-10.28 5.22-8 23l-5.5-.5v-11l12-24v-16l5-6 1-14 18-49q-3-21 6-30l.5-36.5 1.5-.5-.5-3.5-1.5-.5.5-12.5 17.5 12.5 1.5 3.5q12.33 12.17 41 8 27.05-8.95 43.5-28.5l13.5-25.5ZM204 594l-2 2 2 16-1 30-13 46-9 20 2 5 4-1 3 1 2 9h6l2-12 2-1q9 12 9 34l5-2q15-8 15-31l-3-34-11-49 1-4 9-5 1-8-24-16Zm-35.5-18 5.5.5-3.5 10.5-2 1v-12Zm-7 1 .5 4.5-3.5 6.5-2.5-.5 5.5-10.5Zm91 125 5.5 1.5-1.5 4.5-4.5-.5.5-5.5Z"/><path fill="#F0D873" stroke="#F0D873" stroke-width="3" d="m324.5 64 3.5 1.5-4 1 6 3-6.5 3.5-15.5-1.5 16-6 .5-1.5Zm6 26h2q13.13 2.38 18.5 12.5l6.5 12.5 2.5 1.5-3.5 9.5-1.5.5-8 14 1 23-2.5-1.5-3.5-1.5-2.5-16.5-3.5-1.5-2.5-9.5-27.5-9.5 1.5-3.5 2.5-.5 3-10v-2l2.5-5.5 1.5-.5 5.5-6.5 1.5-.5.5-1.5 6-3Zm-36 47 5.5 3.5-2.5 3.5-3.5-2.5.5-4.5Zm41 22 .5 2.5-6 11-5 23 2.5 3.5 1.5.5 1.5 2.5 11.5 3.5-3 4 .5 1.5-9.5 4.5 4 1-3.5 1.5-1-2-13.5-5.5-13.5-19.5-2.5-1.5 1-2-4.5-8.5-2.5-1.5-2.5-3.5-3.5-1.5.5-6.5 3.5 1.5 2 4 1.5 2.5 2 1 3-1 17.5-.5.5-1.5 3 1 11.5-10.5-2-1 4.5-2.5Zm8 15 4.5 1.5-2.5 10.5-3.5-2.5 1.5-9.5Zm-7 78 11.5 1.5-1.5 2.5-5 2h-2l-3.5-.5.5-5.5Zm168 71 4 1h2l1.5.5-2 4 3.5 1.5 2.5-1.5.5 1.5 5 3 1.5-.5 13.5 15.5 3-1q9.15 9.85 7 31l12.5 8.5q20.84 18.66 29 50l-2.5 1.5-4.5-2.5-14.5-22.5-1.5-.5-3.5-4.5-3.5-1.5-2-10-28.5-28.5-3.5-1.5v-2l-1.5-3.5-1 4-2.5-4.5 3-1 .5-1.5 9.5 7.5 1.5 3.5 6 3 1-2 4 2 .5-3.5-43-44 2.5-1.5Zm-265 21 .5 6.5-4.5 3.5-.5-1.5 4.5-8.5Zm-7 8 1.5.5-.5 1.5-3.5-.5 2.5-1.5Zm89 8 7.5 1.5.5 1.5 9 2 7-4 4 5 21-6 2 4 17.5 3.5 2.5 4.5 3.5 2.5-1 3 1 41-4 2-3 8 1 3-1.5 2.5-1.5.5.5 1.5-1.5.5-2.5 4.5q-12.15 7.35-36 3l-12 5-7.5-4.5q-8-11.5-4-35l4-2 1-8-2.5-4.5-1.5-.5-3.5-4.5-3.5-1.5 1-18-1-4 3.5-6.5Zm-105 12 1.5.5-20 19 3-7-.5-1.5 16-11Zm-27 18 2.5.5-3 5 .5 1.5-15 11-.5-2.5 2.5-4.5 13-11Zm92 18 .5 5.5-11.5 22.5-4.5 2.5-1 3 2.5 4.5 2.5.5-.5 3.5-2.5.5q-7.13 7.87-3 27l-5.5 10.5-16.5 11.5-7.5 12.5-18.5 11.5-1.5 4.5-4.5-.5-2.5-5.5-3.5-1.5 1.5-22.5 2.5-.5 4.5-9.5 1.5-.5 8.5-10.5 1.5-.5 1.5-2.5 12.5-6.5 19.5-39.5 4.5-2.5 5.5-11.5 14-6Zm-109 28 1.5.5.5 1.5 2.5.5-2.5 4.5-1-5-3.5-.5 2.5-1.5Z"/><path fill="#F0D873" stroke="#F0D873" stroke-width="3" d="m172.5 439 .5 1.5-2.5 3.5-14 5-.5-1.5 5.5-7.5 1 4 10-5Zm243 11 7.5 6.5 3 9-3.5 7.5-2-3-6.5-3.5 1.5-16.5Zm-278 25 .5 33.5h-1l-2.5-4.5-2 1-.5-21.5 5.5-8.5Zm-6 55 1.5 4.5-3.5 5.5-3.5-2.5 5.5-7.5Zm4 16 3.5.5 2 5-7.5.5-1.5-2.5 3.5-3.5Zm38 3 .5 2.5-4.5.5v-1l4-2Zm-2 4 1.5.5-2.5 4.5-4.5-.5 1.5-3.5 1 3 3-4Zm-42 29 2.5.5-.5 21.5-2-4-3.5-2.5 2.5-3.5 1.5-.5 1-3-1.5-2.5-3.5-2.5 3.5-3.5Zm9 6 5.5.5.5 5.5 1.5.5-2.5 5.5-5.5-2.5.5-9.5Zm184 13 5.5 1.5 8.5 12.5 2.5.5-.5 1.5 2.5-1.5.5-1.5 2.5-.5-5-2-2-7 1.5-2.5 1.5.5 2.5 9.5 2.5.5 1 2v2l1 3-2 1 .5 1.5-17 2-3.5 3.5-3.5 6.5-8 2-5.5-2.5-2-13 1-3 1.5-3.5 8.5-5.5 3.5-6.5 2-1Zm16.5 5-1 2h3l-2-2Zm-207.5 39 .5 6.5-5.5 2.5.5-1.5 2-4-2-1 4.5-2.5Zm-18 29 1 4 5.5.5-1 4 1 8-1 2 1 8-4 2-3 14 1 8-4 2-3 8 1 8-4 2-3.5 23.5-2.5.5-2.5 17.5-5.5-.5-.5-29.5-5 2-.5-1.5 5.5-10.5 1 4 3.5-2.5 2-33-2-1q4.49-25.01 19.5-39.5Zm495 35 6 11 3.5 1.5-.5 22.5-11.5-7.5 1-21-.5-1.5 1.5-.5v-2l.5-2.5Zm-365 65 2.5.5-.5 2.5-5 3-.5-2.5 3.5-3.5Zm-43 6 3.5 2.5-.5 3.5-5.5-.5 2.5-5.5Z"/><path fill="#DEC515" stroke="#DEC515" stroke-width="3" d="m330.5 63 5.5 4.5-1.5 2.5-4 2-2-4-3.5-1.5 5-1 .5-2.5Zm23 0 .5 5.5-7.5 3.5 3-4 3.5-1.5-4-1 4.5-2.5Zm-21 14 1.5 2.5-2-1 .5-1.5Zm-5 1 .5 2.5-2.5 3.5-3.5-.5 1.5-3.5 1 3 3-5Zm18 0q27.39-3.39 38.5 9.5v21l6 14-7.5 4.5 1.5-4.5-.5-2.5-1.5.5-3.5 4.5 2.5-3.5-3-4-1-22-6.5-8.5-19-4-6-5Zm-32 8 1.5.5-1.5.5v-1Zm-4 3 .5 1.5-4.5 3.5v-1l3.5-2.5.5-1.5Zm-24 1 1.5.5-4.5 9.5-.5-3.5 3.5-6.5Zm137 0 1.5.5-1.5.5v-1Zm-2 2 .5 1.5h-1l.5-1.5Zm5 0 .5 1.5h-1l.5-1.5Zm-123 2 1.5.5-1.5.5v-1Zm-2 1 .5 1.5-2 1 1.5-2.5Zm122 0 1.5.5-1.5.5v-1Zm-128 1 2.5.5-1.5 2.5 2-1-1 2-2 1v-2l-6.5 3.5 1.5.5 1.5-.5-5 4-1 2 3 6-7.5 13.5-3.5-.5-2-6 10.5-16.5 2.5-1.5-1.5-.5-3 2 1-2 1.5-.5-2-1 10.5-5.5Zm9 30 2.5 1.5 3 4-11.5.5 2.5-3.5.5-1.5 3-1Zm-7 1 1.5.5-1.5.5v-1Zm74 0 1.5.5-1.5.5v-1Zm-4 1 1.5.5-1.5.5v-1Zm-76 4 .5 1.5h-1l.5-1.5Zm40 4 2.5 1.5 3 11-1 2 1.5-.5 2.5.5-1.5 2.5-1-2-2.5 3.5 2 1-3.5.5-3-6-1.5-.5 2.5-13.5Zm-58 2 1 3 1.5.5-1.5 4.5-3-1-1.5.5 3.5-7.5Zm18 0 3.5 2.5 1 3-2.5.5-5.5 4.5-.5 1.5-2.5-5.5 6.5-6.5Zm22 5 4 1 1.5-.5-1.5 5.5-4.5-2.5.5-3.5Zm-31 5 2.5 1.5-1.5 2.5-1-2-1.5-.5 1.5-1.5Zm165 2 1.5.5-1.5.5v-1Zm-161 1 .5 1.5h-1l.5-1.5Zm159 1 .5 1.5h-1l.5-1.5Zm5 0 .5 1.5h-1l.5-1.5Zm-162 1 .5 2.5-.5 11.5-4-6-1.5-.5.5-3.5 5-4Zm159 2 1.5.5-1.5.5v-1Zm-144 1 13.5 5.5 2 4 .5 1.5 1.5.5-2 1-.5 2.5-7.5-3.5 1.5-2.5-8.5-3.5-2-4 1.5-1.5Zm46 1 5.5 11.5-1.5-.5-4 1v-12Zm22 3 1.5.5 1.5 2.5 4.5 2.5 1.5 2.5 15.5 5.5-4 1 10.5 1.5.5-1.5-5-1 10.5-5.5.5 11.5-12 23v16L383.5 231l-11 3q.76-12.26-7-16l-3.5-1.5-2-4-1.5-2.5-4.5 1.5-.5 1.5-16 3v-1l11.5-5.5-1-4 .5-1.5-12.5-2.5-2.5-3.5-3.5-2.5 1.5-3.5 4-3 2 9q9.88 7.63 28.5 6.5l.5 3.5 1.5.5-1 2 8.5 9.5 3 1 10.5-7.5q1.79-21.71 12-35l-15-5 .5-1.5-4 1v-1l2.5-.5-9.5-3.5v1l2.5 1.5-1.5.5-5-2-2 3-1-2-2 1-.5-5.5 2.5-4.5 2-1ZM350 205l1 5h2l1-2-4-3Zm-79.5-40 4.5 11.5-4.5 8.5v-20Zm40 4 1.5.5-1.5.5v-1Z"/><path fill="#DEC515" stroke="#DEC515" stroke-width="3" d="m379.5 171 1.5.5-1.5.5v-1Zm-31 2 3.5 2.5 2 4-5.5 8.5-.5-2.5.5-12.5Zm21 6 .5 24.5h-1l.5-24.5Zm-33 3 1.5.5-1.5.5v-1Zm-63 3 .5 6.5v2l1 2-4 2-.5 2.5-1.5-2.5 1.5-8.5 2 1 1-5Zm5 16 3 4 3-4 7.5 3.5 4 33 18.5 24.5q11.21 9.79 34 8l15.5-9.5-2-5 2-1-1-2 5.5-.5 2.5 7.5-5.5 7.5-17 9h-13q-7.52-7.48-22-8l-7.5-7.5-1.5-2.5-13.5-6.5q-5.88-7.63-3.5-23.5l-5.5 2.5-1.5 7.5-3.5 1.5 1 2-2 1-.5-2.5-7.5-.5 1.5-3.5 5.5-2.5 1-4-.5-1.5 6-1h2l4.5-2.5-4-6 2-7-3.5-5.5-4.5-3.5.5-1.5Zm8.5 16-1 4h1v-4Z"/><path fill="#DEC515" stroke="#DEC515" stroke-width="3" d="m329.5 220 .5 4.5-6 8 .5 1.5-5.5-2.5 1.5-4.5 9-7Zm10 8 2 3-5 2-.5-1.5 3.5-3.5Zm18 0 2.5 5.5-5.5.5-.5-2.5 3.5-3.5Zm-29 10 2.5 3.5-2-1-.5-2.5Zm5 2 2 4 10.5 7.5-7.5.5-7.5-8.5 4 2-1.5-5.5Zm141 11 3 2 2-1v1l-2.5 1.5-.5 3.5-1-4-2 4-5.5 2.5-.5 3.5-5.5-3.5 3.5-8.5 9-1Zm-205 2 .5 7.5-6 5 1.5-5.5 3.5-1.5-2-1 2.5-4.5Z"/><path fill="#DEC515" stroke="#DEC515" stroke-width="3" d="m474.5 259 3 5 1.5-.5 2 9-1 4 5.5 10.5 1-2 2 3-2.5.5-.5 4.5-7-17-2.5-1.5-1.5-15.5Zm3 0 .5 1.5h-1l.5-1.5Zm17 5 1.5.5-1.5.5v-1Zm-228 13 .5 11.5h-1l.5-11.5Zm42 5 3 5 2.5.5-2 1-.5 5.5-5.5-9.5 2.5-2.5Zm-47 9 2.5.5-2.5.5v-1Zm53 2 3.5 1.5-1.5-.5-1.5.5-.5 6.5v-8Zm-57 8 6 1 1.5-.5-.5 1.5-4.5.5-.5 2.5-2-5Zm73 1 6.5 11.5q-2.5 5-5 0l1-2-4-6 1.5-3.5Zm-61 1 .5 2.5-5.5 10.5-1.5-3.5 6.5-9.5Zm46 2 .5 7.5h-1l.5-7.5Zm-51 1-.5 1.5-2.5 3.5-1.5-.5.5-3.5 1 3 3-4Zm-13 3 1 3 5-2 .5 2.5-2 4 1 2-1.5-.5-9 2-.5-2.5 5.5-8.5Zm61 6 4.5 2.5-5 37-3.5 4.5-3.5 2.5-1 7v2L292.5 389l-.5-1.5 2-3-2-1 7.5-15.5 3.5-2.5 2-5-1.5-.5-3 5-.5-5.5 12-28 .5-16.5Zm-57 6 1.5 7.5-4 3 3-6-1.5-.5-2.5 1.5 3.5-5.5Zm-4 1 .5 2.5-11.5 22.5-.5-4.5 11.5-20.5Zm7 0 1 2 2.5 1.5-3.5 6.5v-10Zm-21 2 4.5.5q-2.2 15.3-13.5 21.5l-3.5 1.5-3 6 3 1-1.5 2.5-3.5 1.5-.5 1.5-3 2-1-2-5 2-1-2-1.5-.5 13.5-15.5 10.5-9.5 2-4-2-1 1.5-3.5 1 3 3-5Zm14 4 .5 1.5-1 2-.5 2.5-1.5-.5 2.5-5.5Zm97 0 6.5 9.5h-4l1 2-2-1-1-2h2l-2.5-8.5Zm-103 17 .5 5.5-5 3-.5 2.5-.5-2.5 5.5-8.5Zm119 2 8.5 5.5-1.5 2.5-2.5-1.5-.5-1.5h-2l-3.5-1.5 1.5-3.5Zm43 1h42l12.5 9.5-.5 2.5-6.5 3.5-8.5 13.5-3.5-2.5-.5-1.5-15.5 12.5-6.5 7.5-2-3-.5 1.5.5 1.5-4.5 1.5 23.5-31.5 6.5 2.5 1.5 2.5 2.5-1.5 1-7-1.5-2.5-5-3h-35l-5 1-4.5-1.5 9.5-5.5Zm42.5 18-1 2-3 2 1 2 3-1v-5Zm-181.5-17 1.5.5q2.06 11.56-3 16l2 1-7.5 5.5 2.5-3.5-.5-3.5-2.5 1.5 2-7-3.5-.5-1.5.5 6-3-.5-2.5-3 1-.5-1.5 8.5-4.5Zm111 1 8.5 3.5-14.5 2.5v-1l5.5-.5-3-1 3.5-3.5Zm6 5 2.5.5-2.5.5v-1Z"/><path fill="#DEC515" stroke="#DEC515" stroke-width="3" d="m398.5 355 2.5.5-2.5.5v-1Zm-9 1 7.5.5-7.5.5v-1Zm-160 3 6.5 1.5-13.5 7.5-.5-2.5 2.5-4.5 5-2Zm17 1 4.5.5-12.5 5.5 2-3 6-3Zm267 0 8.5 10.5h-1l-1.5-2.5-.5 1.5 1 3-1 4 19 20 4 27 15.5 16.5 15.5 9.5 9.5 18.5 4.5-1.5 6.5-13.5.5 35.5q-8.6 5.4-6 22l5.5 10.5 1-3 1.5 3.5-2 1 3 5-2 1 7 17-2 1 1 7-1 33 1 6-.5 1.5 5-3 2.5 20.5-2 1 1 9-1 2 2.5.5 3.5-2.5-1.5 20.5-2.5-1.5-9-26q-21.72-17.78-29-50l5-10-4-6 4-6q-8.04-7.46-5-26l5-14-2.5-3.5-17.5-13.5-17-41-11.5-12.5q-5.39-11.11-21-12l-3 4-2 1-20.5-41.5v-11l6.5-.5 13 5 2.5-1.5 2.5-9.5 11.5-.5-2.5-5.5ZM490 385l-2 2 16 27q14 3 20-2l-1-5-27-21-6-1Zm-3 2-1 3h1v-3Zm98 84v1h1l-1-1ZM251.5 362l1.5.5-1.5.5v-1Zm-4 2-1 2-2 1 1-2 2-1Zm-20 12 .5 2.5-3 6 3-1-5.5 6.5-5 4-5.5 3.5-5 11-1.5 3.5-7.5 4.5q10.05-24.95 29.5-40.5Zm-2.5 9-2 3 2-1v-2Zm339.5-7 6.5 2.5 7 9-2 1 7 13-2.5.5-2.5.5 1 3-4-1-17-25 2 1 .5 1.5 2.5-.5 1.5-5.5Zm-314 1 2 5 1.5.5-11.5 17.5-7.5 2.5-12.5 19.5-.5-4.5 3-6h-2l9.5-13.5 10.5-7.5 7.5-13.5Zm-6.5 14-2 3 2-1v-2Zm-13.5-5 1.5.5-9.5 7.5 1.5-2.5 1.5-2.5 5-3Zm61 2 .5 1.5-5.5 7.5 2.5-3.5 2.5-5.5Zm6 1 7.5 2.5 5 16-2.5 3.5-10.5-4.5-3-13 3.5-4.5Zm120 3 .5 1.5-7.5 8.5-1-2-1.5.5 5.5-6.5-2.5 3.5.5 1.5 6-7Zm-140 7-3 8-11 6-1.5-1.5 8.5-8.5 7-4Zm167 1h6l19.5 11.5-3 1 6.5 3.5.5-2.5-.5-1.5 10.5 7.5 2 10-24 29q2.41 17.41-5.5 24.5l-1.5-12.5 2-26 16-27q-10.53-7.97-28.5-8.5l-23 5q-4.02 8.48-16 9l-3.5-8.5 4.5-11.5 2 1 1.5-.5-2 8 2.5 5.5 1.5-.5 5.5-9.5 6 4 20.5-8.5.5-2.5ZM421 414v2l4-1-4-1Zm162.5-6 5.5 2.5 1 3-2.5.5-3.5-1.5-.5-1.5-1.5-.5 1.5-2.5Zm-424 6 2.5.5-3.5 5.5-2.5-.5 3.5-5.5Zm101 1 1.5.5-6.5 3.5 1-2 4-2Zm-7 4 1 4-2.5.5-1.5 2.5v-2l-4.5 2.5 1.5.5 1.5-.5-7.5 5.5 2-3 2.5-1.5-4-2 11.5-6.5Zm-84 2 2.5 1.5-2.5.5v-2Zm4 2-.5 3.5-4.5 9.5-1.5-3.5 6.5-9.5Zm21 3 2.5.5-5 4 2.5-4.5Zm-39 3 1 2-3.5.5 2.5-2.5Zm5 1 1.5.5 1 7-9.5 12.5-6 3v-1l3.5-1.5-5-1 10-7 3-10-.5-1.5 2-1Zm54 0 .5 1.5h-1l.5-1.5Zm-27 3v2l6.5 2.5-2.5-1.5-8 2-1-2 1.5.5.5-1.5 3-2Zm-38 3 .5 4.5q-3 6.5-6 1l5.5-5.5Zm62 1 3.5 1.5-11 22-.5 7.5-5-2-.5 2.5 1.5 11.5 4-2 1 3 2-3 .5 1.5-3.5 4.5-1.5.5-4.5 10.5-6.5-1.5-1-8 3.5-11.5 1.5-.5-1-2 14.5-30.5 1.5-.5-.5-1.5 2.5-.5-.5-1.5ZM192 485l-1 7 2-1 4 1h2l1-5-1-1-1 2-2-2-3 1-1-2Zm-6.5-47 2.5.5-12.5 5.5v-1l10-5Zm9 1 .5 2.5h-1l.5-2.5Zm33 1 .5 4.5-5.5 8.5.5-3.5 4.5-9.5Zm4 0-.5 1.5-1.5 3.5-.5-1.5 2.5-3.5Zm-36 3 .5 2.5-8 7-3 11 2 3-2-1-1.5-3.5-3.5.5-.5 1.5-3-1-3 8-7 4 1.5-4.5-.5-2.5-9.5 7.5-2 4 2.5.5 4.5-3.5-3.5 4.5-9.5 4.5 2 1-7.5 15.5-.5-4.5 6-11-2.5-.5-4.5 1.5.5-1.5-5 3 3.5-4.5.5-5.5 1 4 .5-9.5-1-2 3.5-5.5 4.5.5-6 13 3.5.5 4.5-5.5-.5-1.5q15.98-4.52 24.5-16.5l-.5-1.5 7.5-5.5 1.5-3.5 1.5 3.5-1 4h1l8.5-10.5ZM147 467l-1 2h1v-2Zm-1 2-1 2h1v-2Zm-1 2-1 2h1v-2Zm1.5-14 .5 1.5h-1l.5-1.5Z"/><path fill="#DEC515" stroke="#DEC515" stroke-width="3" d="m215.5 460 .5 2.5-3 6h2l-8 5 .5-1.5 1 2 2.5-6.5 4.5-7.5Zm-28 13 .5 1.5-7 5 2 10h-1l-1.5-4.5-1 3-3-1-8 5 .5-1.5 8.5-16.5 3 5 6.5-4.5.5-1.5Zm-45 1 .5 2.5h-1l.5-2.5Zm312 7 .5 4.5-1.5 5.5-.5-4.5 1.5-5.5Zm-109 6 8.5 3.5q9.95 12.05 6 38l-4.5 5.5-16.5 13.5q-3.73 23.27-17.5 36.5l-1.5.5v2L308.5 602l-2 1-1-3-1.5-.5 22-28 6-24 20-21 2-16-2.5-4.5-5-1-2.5 1.5 3 7-8.5 7.5-14-5-26.5 16.5-6.5 23.5-45 20-5.5-3.5 4-10-1.5-2.5-9-2-24 18-.5-5.5 8.5-16.5 14.5-10.5-2.5-3.5q-16.01 4.49-24 17l-8.5 1.5 2 11-4.5.5-9.5-18.5-1.5-35.5-4.5 1.5q2.92 19.42-5.5 27.5l-1-12-4 1 1-2 3.5-1.5-.5-2.5-1.5-.5 2-4-3-2-3-17 5.5-2.5 1 3 1.5.5-4 2-3 6 5.5 3.5 2.5-1.5 8.5-14.5 6.5 2.5v38l6.5 12.5 5.5-2.5 9.5-16.5 14-5 8.5 4.5 2.5 10.5 28-8 .5 2.5-13 19 3.5 2.5 24-13h2l3.5-2.5 2-15 16.5-17.5 29-9 6.5-5.5 4.5-11.5ZM180 513l-2 3-3 2 2 3 3-4v-4Zm55 27-1 6h2v-5l-1-1Zm-32 14-3 2 4 1v-2l-1-1Zm-60.5-65 1.5 3.5-1.5-.5-1.5-.5 1.5-2.5Zm310 3 .5 1.5h-1l.5-1.5Zm3 0 .5 1.5-2 1 1.5-2.5Z"/><path fill="#DEC515" stroke="#DEC515" stroke-width="3" d="m182.5 495 .5 2.5-4.5 5.5 2.5-3.5 1.5-4.5Zm271 1 .5 1.5-1.5 2.5-.5-1.5 1.5-2.5Zm-4 3 1 3 1.5-.5-5.5 8.5h-6l-1.5-.5 1.5-.5 3.5-1.5 5.5-8.5Zm-311 2 5.5 4.5-5.5 9.5v-14Zm13 3 9.5.5-2.5 5.5-8.5-1.5 1.5-4.5Zm280 4 1.5.5-3 2-.5 1.5-.5-1.5 2.5-2.5Zm-3 5 .5 2.5h-1l.5-2.5Zm-61 1 5.5 2.5 9 18 19.5 23.5 3 1 1.5-5.5-3-11 4.5-14.5 20-10-2 3-9.5 4.5 1.5.5 8-4v1l-9 4-2-1 1 2 1.5.5-2 3 5 11-6 5q1.6 11.1-5.5 13.5l-1-5-1 3-3 1-4-3-1 3-14-2-6.5 3.5-.5 3.5-1.5.5-.5 1.5-9.5-26.5v-24l1.5-2.5Zm-214 2 2.5.5-3.5 5.5-3.5-.5 2-1 2.5-4.5Zm-15 11 8.5 1.5-3 5 2 1-1.5 3.5-1-3-5 10-1-2-7 3 5.5-6.5 2-4-1-3-2-4 3.5-1.5Zm29 5 .5 8.5-1.5-.5-4.5 1.5-5.5 14.5-3.5 1.5-2.5 5.5-1-2-4.5 2.5 1 3-2 1-.5-3.5-1.5-.5 2.5-5.5 2.5-1.5.5-1.5 6.5-4.5 2-4-2-1 1.5-3.5 1 4 5-10 6-4Zm-35 23 3.5 6.5-5.5 2.5-.5-1.5 1-3-.5-1.5 1.5-.5.5-2.5Z"/><path fill="#DEC515" stroke="#DEC515" stroke-width="3" d="m400.5 560 3.5 2.5-2.5-1.5-1-1Zm-227 1 .5 6.5-11.5 4.5-.5-4.5 11.5-6.5Zm-19 7 1.5.5-2 7 2 6-5.5 8.5-.5-2.5 5-10-1.5-.5-13 11-2-3-3-2-3 2-1-3-1.5-.5 7.5-5.5.5 3.5-1 3 .5 1.5 6.5-4.5-.5-6.5-4.5-2.5 5.5-1.5 7 1 3-2Zm222 0 1 2 1-2 8.5 13.5h-1l-1.5-3.5-1 3-1-3-3.5-2.5-2.5-7.5Zm9 16 4 7 .5-2.5-2-3h2l.5-1.5 11.5 21.5-8 5-3 6 11 2 1.5 5.5q8.75-1.75 10.5 3.5v14L396.5 663q-21.43 4.57-34.5 17.5l-5 15-14 22 4 5-6.5 2.5-21.5-13.5 4-12-16-25 1-2-2 1-.5 1.5-6.5-8.5 2.5-1.5 4.5 3.5 6 9-2-1-1.5-2.5-.5 1.5 3.5 6.5 1-3 8 9 5 1 12.5-10.5 7.5-11.5 15-1 9 4 30.5-15.5 2-14-2.5-6.5-9.5-3.5-1-9q-9.71-3.79-10-17l10-5-3.5-15.5Zm16.5 69-1 2-5 4v1l6-3v-4Zm-20 11-3 2h4v-1l-1-1Zm-15 7v1h2l-2-1Zm-207.5-83 1.5.5-2.5 5.5-2.5-.5 3.5-5.5Zm-22 1 2 11 5-1 4.5 1.5-3.5 8.5-1.5-.5-.5-2.5-1.5.5-.5 3.5-1-4-2.5 1.5-1-2 1.5-.5 1.5.5-.5-2.5-1.5-.5-1.5-2.5-4.5-2.5 1.5-4.5 3.5-2.5.5-1.5Zm166 16-6.5 7.5 1 3-7.5 9.5-13 7v-1l10.5-5.5-1.5-.5-1.5.5.5-1.5-1.5-.5 8-6 1.5-2.5 1 2 1.5-.5-.5-1.5 1.5.5-1-3 7.5-7.5Zm-165 6 1 2 1-2q6.62 3.38 4 16l3 2 2.5-1.5-.5 2.5-5.5.5.5 5.5 2.5-.5-2-1 1.5-3.5 4 1 4.5-7.5 2.5-4.5 2-1 2.5 4.5-4 1q-10.08 8.92-8 30l12 17v13l-6.5 17.5-3.5.5-2.5 11.5-10.5-8.5 10-23-1.5-2.5-6-2-4.5 20.5-4.5 5.5-1-3-2 16-.5-11.5 9-33v-40l-1-4 1-3-2-1 1.5-.5 1.5.5-2-12 1.5-1.5Zm-.5 67-2 5 2-1v-4Z"/><path fill="#DEC515" stroke="#DEC515" stroke-width="3" d="m137.5 616 .5 1.5-1.5.5 1-2Zm143 11 1.5.5-5.5 2.5v-1l4-2Zm-7 8 .5 1.5h-1l.5-1.5Zm-3 4 3.5 1.5 3 7-2.5.5-4.5 2.5 7.5 3.5.5-1.5-1-3h1l10.5 13.5 4.5 1.5-3.5.5-1.5-.5.5 1.5 2.5.5-5.5 9.5-5 1-4.5-2.5 5-4-2.5-3.5-2-1h-2l-4.5-3.5-4-13 4.5-10.5Zm342 10 5 10 1-3 1.5 3.5-2 1v6l13 25v2l.5 2.5 2.5 1.5 1.5 3.5 1-3 1.5 3.5-2 1 3.5 11.5 2-1 .5 15.5-6 9v28l3.5 2.5 2.5-1.5.5 1.5 5-3 .5 11.5-5.5 9.5-6.5-.5q1.21-15.71-6-23 2.21-23.21-3-39h1l1.5 8.5h2l1.5-.5 3-15-3.5-2.5-3 7-2-1-1.5.5q-1.14-27.36-16.5-40.5l-3-1-8 18-4.5 1.5q3.13-24.87 18-38l.5-11.5Zm-8.5 29-4 6 1 3 4-8-1-1Zm-198.5-12 2.5.5-8.5 10.5-2.5-1.5 8.5-9.5Z"/><path fill="#DEC515" stroke="#DEC515" stroke-width="3" d="m597.5 701 .5 6.5h-1l.5-6.5Zm-1 10 .5 2.5h-1l.5-2.5Zm-3 5 1.5 7.5q-7.96 10.54-7 30l7 20-1.5 4.5-11.5-21.5q2.47-17.97-6-25l1.5.5 3.5-.5 1.5-5.5 9.5-6.5 1.5-3.5Zm2 0 .5 1.5h-1l.5-1.5Zm-467 3h2l1.5.5 2.5 6.5q5.44-8.06 21-6l.5 23.5-18.5 42.5-10.5-.5 3-15-4-8v-37l2.5-6.5Zm133 7 2.5.5-2 5 .5 1.5-4 2-.5-3.5 3.5-5.5Zm5 6 13.5 1.5 2 17 12 35-19.5.5-2.5-8.5 1.5-2.5 5.5-2.5-14-26 2-8-3.5-2.5-2 4-.5-2.5 2.5-3.5 3-2Zm15.5 39-1 3h1v-3Zm-21.5-29 .5 2.5h-1l.5-2.5Zm63 2 .5 27.5q-3 5.5-6-1-3.89-18.39 3.5-25.5l2-1Zm-66 6-.5 1.5-1.5 2.5.5-1.5 1.5-2.5Zm-7 9-2.5 3.5-.5 1.5-.5-1.5 3.5-3.5Zm-43 3 2.5.5-5.5 10.5-.5-4.5 3.5-6.5Zm38 0 .5 1.5-2 1 1.5-2.5Zm-6 10 .5 2.5-5.5 10.5-.5-7.5 5.5-5.5Zm-38 2 2.5.5-.5 6.5-4-1-1.5.5 3.5-6.5Zm196 0 4.5 1.5-1.5 4.5-4.5-2.5 1.5-3.5Zm198 1 .5 2.5h-1l.5-2.5Zm1 4 .5 2.5h-1l.5-2.5Zm-254 1 5.5 2.5-.5 3.5-5.5-.5.5-5.5Z"/><path fill="#3C2215" stroke="#3C2215" stroke-width="3" d="m377.5 65 .5 1.5h-1l.5-1.5Zm-2 2 2.5 1.5-.5 1.5-5 2-.5-1.5 2-1-.5-1.5 2 1v-2Zm-20 1 4.5 1.5 1 2-10.5.5v-1l5-3Zm-47 4 4.5.5-1 4 4.5 1.5 1.5-.5-1.5 4.5-7.5-4.5-2-4 1.5-1.5Zm72 0 3.5 2.5-.5 5.5-5.5-2.5 2.5-5.5Zm16 6 5.5.5 3.5 10.5 1.5.5-2 1 7 3-3 5 21 23 4.5 10.5 3.5 2.5 1 2v2l1.5 4.5 3-2 .5 5.5-4 3 3 1-4.5 2.5-1-3-2.5-.5-6-11 2-1-7.5-11.5-3.5 2.5 9 21-2 1 3 6h-1l-1.5-3.5-2-1-.5 1.5 1 2-2.5.5-15.5-30.5v-13q-7.76-5.74-6-21v-2l-4.5-6.5-1.5.5 1-2-.5-3.5Zm8.5 15-1 2h1v-2Zm1 6-1 2h1v-2Zm4 3 10 11v-1l-10-10Zm-1 4-1 2h1v-2Zm1 2-1 2h1v-2Zm3 1 5 14 2-1-3-10-4-3Zm-2 1-1 2h1v-2Zm1 2-1 12h1v-12Zm-21.5 14 1.5.5-5.5 4.5-1.5-.5-.5 1.5h-2l-2.5-.5 10.5-5.5Zm-75 6 8.5 3.5-.5 2.5-5-3-1 2-2-5Z"/><path fill="#3C2215" stroke="#3C2215" stroke-width="3" d="m427.5 134 1.5 2.5-2-1 .5-1.5Zm-56 4 .5 2.5 1.5 3.5 6.5.5-2.5 5.5q-14-3.5-17.5 3.5l.5 2.5 5 1 4-1v1l-13 5-2.5-3.5 11.5-17.5 6-3Zm-.5 3-1 3h1v-3Zm-12 14-1 2h1v-2Zm4 2v1h1l-1-1Zm-41.5-13 2.5.5-2.5 4.5-4 1 .5-1.5 3.5-4.5Zm-11 1 2 3 3.5 1.5-4.5.5-4-1-1 2-.5-3.5 4.5-2.5Zm92 0 8.5 5.5 2 7-5.5 7.5-7 3 3.5-4.5 4-7-3.5-6.5-2-1-1.5.5.5-1.5 1.5-.5-.5-2.5Zm-102 5 4.5.5-10.5 7.5-.5-4.5 6.5-3.5Zm16 6 5.5.5.5 1.5 1.5-.5-1.5 4.5-4.5-1.5-1-2 .5-1.5-2 1 1-2Zm3.5 2v1h2l-2-1Zm110.5 1 1.5 21.5q13.17 7.83 12.5 29.5l4.5.5-2 1 3 2-1.5.5h-4l-1.5.5 7 24h-1l-2.5-4.5-24.5 11.5-1.5 2.5-.5-1.5 6-11q-2.27-13.78 3.5-19.5l3.5 11.5-3 1 3 1 1.5 3.5 1.5-.5 1.5-3.5 1.5-.5-2-1 1-7-2-4 2-1q3.5-14-3.5-17.5l-2.5.5-1 7 1 2h-1l-5-12 3 2 1.5 4.5 2-5 4.5-2.5-5.5-8.5-1.5-.5-.5-2.5-1 3-2.5-9.5q7.36-3.64 4.5-17.5Zm7.5 30-1 2h1v-2Zm3 37v1h1l-1-1Z"/><path fill="#3C2215" stroke="#3C2215" stroke-width="3" d="m443.5 180 .5 2.5-.5 5.5-4.5-2.5-1-2 2-1 .5-1.5 3-1Zm-86 6 3.5 7.5-2.5.5-1.5-.5-.5-1.5-2-1-2 1 5-6Zm-9 9 8.5 4.5-2 1 2.5.5 4.5 2.5-7.5.5-6.5-3.5.5-5.5Zm102 8 3.5 1.5 5.5 11.5 2-1 .5 2.5 1.5 4.5 1.5.5 3 10-2 1 1-2-5.5-8.5-3.5-1.5-7.5-18.5Zm10.5 18-1 2h1v-2Zm-116.5-5 8.5.5-10 3 2 1-8.5 4.5-1-2-1 3-3.5 1.5 3 1-3.5 1.5-1-2-1.5-.5 7.5-5.5 1.5.5.5-1.5 1.5.5.5-1.5 3 1v-1l-1.5-.5 3.5-3.5Zm14 0 7.5 3.5 6 12-2.5.5-7.5-3.5 4-1-.5-1.5 1.5.5-2.5-5.5-6-5Zm100 13 1 2 2-1 3.5 2.5-1 4 4 1-.5 2.5-11.5 2.5 1.5 9.5 4.5-1.5.5-1.5 5-2 .5 1.5-6.5 14.5-3-5-8.5-2.5.5-15.5 6-2 2 1 3.5-2.5-3.5-7.5Zm2.5 2 1 3v-2l-1-1Zm-177.5 9 4.5 2.5-.5 9.5-3.5-1.5-1-2 1-2-1.5-.5-1 4-1.5-3.5 4-2-2-1 1.5-3.5Zm62 0 10.5.5-3.5 5.5-4.5-1.5-2.5-4.5Zm-59 17 1.5.5-1.5.5v-1Zm-10 5 4 2 1.5-.5-2.5 18.5-1.5-.5-.5-3.5-1 6-.5-7.5.5-1.5-1.5-.5.5-1.5-1.5-.5 3-9-.5-1.5Zm17 0 .5 1.5h-1l.5-1.5Zm120 0 .5 1.5v2q1.67 15.67-6 22v24l2.5 5.5 15-5 24.5 8.5 8.5 9.5 9 6 .5-2.5-12-25q2.75-5.25 5.5.5l12.5 5.5 2.5 3.5 3.5 2.5 8 9-2 1-.5 1.5-15-13-1.5 2.5 14.5 15.5 2.5 1.5 2 4-1.5-.5h-18l-23-12h-21l-28 12-22-18-14 6-18-15-1.5.5q-11.62-23.38-30.5-39.5l-4 1-.5-2.5.5-4.5 16 12 2-6 5.5 3.5 1.5 8.5h36l46-26ZM325 283v1h1l-1-1Zm3 4-1 2h1v-2Zm2 3-1 2 2-1-1-1Zm7 1v1h27l-27-1Zm37 31v1h3l-3-1Zm56 4v1h11l-11-1Zm40 12v1h7l-7-1Z"/><path fill="#3C2215" stroke="#3C2215" stroke-width="3" d="m458.5 294 3.5 2.5-2.5 3.5q-6.5-3-1-6Zm23 8 4.5 6.5-4-3-.5-3.5Zm-212 6 .5 4.5-5.5 7.5-.5-1.5 5.5-10.5Zm36 8 .5 8.5-4.5 6.5-1.5-.5q-.75-10.75 5.5-14.5Zm-1.5 4-1 3h1v-3Zm-39.5 2 5.5 7.5-5.5 11.5-1.5.5 3 1-9.5 4.5-4.5-2.5 3.5-8.5 7.5-2.5 1.5-11.5Zm-6.5 19-1 2h1v-2Zm24.5-11 3.5 1.5 2 10-4.5 9.5-1.5.5.5 1.5-1.5.5.5 1.5-1.5.5.5 1.5-1.5.5.5 1.5-1.5.5.5 1.5-1.5.5.5 1.5-1.5.5.5 1.5-1.5.5 1 5-.5 1.5 2.5.5q-4.84 7.66-19.5 5.5l-.5-2.5 16-10q10-8 8-28v-2l.5-5.5Zm2.5 9-1 2h1v-2Zm0 4-1 2h1v-2Zm-11 26-1 3h1v-3Zm-36.5-33 1.5.5-2.5 5.5-2.5-.5 3.5-5.5Zm62 9-1.5 2.5-1.5 2.5-.5-1.5 3.5-3.5Zm-69 3 3.5.5-.5 2.5-4 2-1.5-2.5 2.5-2.5Zm63 3 1.5 2.5-2 1 1 2-9.5 5.5-.5-1.5 9.5-9.5Zm-50 3 2.5.5-3 5 .5 1.5-21 19-.5-2.5 2.5-4.5 1.5-.5 5-6-.5-1.5 13-11Zm18 30 .5 2.5q-6.9 25.1-25 39l.5 1.5-7.5 5.5-1.5 3.5-4 2-7.5-1.5 10.5-18.5.5 2.5-6 11 1.5-.5 25.5-21.5 1.5-4.5 1.5-.5-.5-1.5 1.5-.5-1-4-.5-2.5-1.5-.5 11.5-11.5ZM224 432l-1 2h2l-1-2Zm-14.5-38 .5 1.5-5.5 8.5-.5-2.5 5.5-7.5Z"/><path fill="#3C2215" stroke="#3C2215" stroke-width="3" d="m245.5 400 .5 2.5-2.5 3.5-2.5.5-.5 1.5-2.5-.5 7.5-7.5Zm-65 44 4.5.5-5.5 8.5-8 3-.5-1.5 3-2-.5-2.5-13 6 2-3 18-9Zm33 0 8.5.5-6.5 8.5-5 2-.5-4.5 3.5-6.5Zm-58 20 1 4 3.5.5-8.5 4.5.5-1.5 3.5-7.5Zm331 16 5.5.5-.5 2.5-3-2-3.5 2.5.5-1.5-5.5 4.5-.5 1.5-.5-1.5 7.5-6.5Zm11 3 2.5.5-2.5.5v-1Zm-337 1 1.5.5.5 1.5 1.5.5-8.5 14.5-6 3 .5-1.5 1.5-3.5 2.5-.5 2-6-4 1-1.5 3.5-.5-4.5 3.5-6.5 7-2Zm341 0 13.5 5.5-2 1 .5-1.5-3 1-2.5-1.5 2-1-3.5-1.5v2l-2.5-1.5.5-1.5-3-1Zm9.5 4v1h1l-1-1Zm-46.5-2 2.5.5 1 5-2.5.5-2.5-4.5 1.5-1.5Zm13 4 2.5 1.5-1.5-.5-1-1Z"/><path fill="#3C2215" stroke="#3C2215" stroke-width="3" d="m481.5 490 2.5 4.5.5 1.5 1.5-.5 1 5-1 2 .5 1.5-12.5.5-.5 2.5-2.5.5.5 1.5 1.5-.5-2.5 3.5-1-2-1.5 3.5h2l-1.5 2.5-1.5-3.5 3-8-1.5-.5-1.5.5-.5-1.5-4 6-.5-4.5 3.5-6.5 4.5.5-.5 1.5 2.5.5.5 1.5 11.5-4.5-1-3 .5-1.5-1.5-.5-.5-2.5ZM468 501l-1 2h1v-2Zm-297.5-9 4.5.5-2.5 5.5-4.5-2.5 2.5-3.5Zm-5 12 2.5 12.5-1.5-.5-3.5 1.5 1 5-8 11 2 1-1.5 3.5-1-3-1 2-1.5.5.5 1.5-2-1-7 10-.5-1.5q7.12-5.88 6.5-19.5l2 1 2-3 1.5-.5-.5-2.5-1.5-.5 11.5-17.5ZM154 528l-1 6h1v-6Zm356.5-22 3.5 2.5-.5 8.5-1.5-.5-4-9 2.5-1.5Zm.5 2-2 2 4 1v-1l-2-2Zm-51.5 2 2.5.5-5.5 8.5-.5-2.5 3.5-6.5Zm7 5 .5 2.5-1 3 2 1-.5 7.5-1.5.5-.5 5.5-2-7-3.5-1.5 2.5-4.5 1.5-.5 2.5-6.5Zm-326 7 3.5 2.5-2.5 3.5-2.5-1.5-1-2 2.5-2.5Zm306 11 3.5 1.5-.5 1.5-3-2-2.5 1.5.5-1.5 2-1Zm17 5-.5 1.5.5 1.5 1.5-.5-2 3 6.5 7.5-2.5-1.5 3 4-4-3-4-11 1.5-1.5Zm72 5 2 3 2 1 3-1q5.95 6.05 3.5 20.5l-2.5-1.5-2-1-1.5.5 1-5-5.5-16.5Zm-82 2 3.5 1.5 1 3h-1l-1.5-3.5-2-1Zm-270 1 2.5 6.5-1.5-.5-3.5 1.5-1.5 2.5-1.5-.5-3.5 4.5-.5-1.5 9.5-12.5Zm256 0 1.5.5-2.5 5.5-1.5-2.5 2.5-3.5Zm19 5 .5 1.5h-1l.5-1.5Zm-144 1-.5 1.5-2.5 5.5-1.5-.5 1 2h-2l1 3-1.5 2.5-1-2-1.5 3.5h2l-2.5 3.5-1.5-.5 1 2h-2l1 2-5 2 13.5-23.5 2-1Zm-2.5 4-1 2h1v-2Zm-3 6-1 2h1v-2Zm-3 6-1 2h1v-2Zm12.5-15 .5 1.5h-1l.5-1.5Zm118 0 .5 11.5h-1l.5-11.5Zm23 1 9.5 19.5-1.5 2.5-9.5-19.5 1.5-2.5Zm.5 2-1 2h1v-2Zm1 2-1 2h1v-2Zm1 2-1 2h1v-2Zm1 2-1 2h1v-2Zm1 2-1 2h1v-2Zm1 2-1 2h1v-2Zm1 2-1 2h1v-2Zm1 2-1 2h1v-2Zm1 2-1 2h1v-2Zm3.5-15 .5 2.5h-1l.5-2.5Zm-153 2 .5 1.5h-1l.5-1.5Zm-163 1 1 4 1.5.5-6.5 4.5-1.5-2.5 4-3 1.5-3.5Zm317 1 .5 3.5h-1l.5-3.5Zm-34 3 3.5 6.5h-2l-1 6h2l-4 3 .5-1.5-5.5 4.5-.5 1.5-.5-1.5 7-6 1-6-2-4 1.5-2.5Zm.5 2-1 2h1v-2Zm1 2-1 2h1v-2Zm34.5-4 3.5 6.5h-2l-1 6h2l-3 2 .5-1.5-3 1-2-3 3 2 2.5-6.5-2-4 1.5-2.5Zm.5 2-1 2h1v-2Zm1 2-1 2h1v-2Zm-299.5-3 1 2 1-2 2 5 11 3 1.5-.5 7 9-2 1v53q-9 9-6 30l-18 49-1 14-4.5 5.5-.5-19.5 12-29v-57q-7.31-7.69-7.5-22.5-11.29-1.29-14 6l-2.5-5.5 11.5-22.5 1 6 1-3 2.5-1.5 2-9-5.5-1.5-1 2-3-1-2.5 1.5-.5-1.5-1.5-.5 14-7 2.5-3.5Zm.5 4-1 2h1v-2Zm1 43-1 4h1v-4Zm6 22-1 13h1v-13Zm-13 93-1 3h1v-3Zm370.5-161 1.5 2.5-2-1 .5-1.5Zm-228 7-.5 1.5-2.5 5.5-.5-1.5 3.5-5.5Zm-12 4-12 13 9-12 3-1Zm226 1 4 3 3.5-2.5-1.5 2.5 3.5.5 1 6-1.5 2.5-1-2-1.5 3.5h2l-1 4 3 5h-2l-1.5 3.5-6.5.5.5 1.5-16.5-8.5-1-5 1.5-2.5 10.5-4.5 2.5-5.5 2.5-.5-.5-1.5Zm-.5 3-5 16 8 6h5l-2-5 3-15-9-2Zm10 5-1 2h1v-2Zm-2 10-1 2h1v-2Zm1 2-1 2h1v-2Zm10.5-20 11.5 28.5v37l14 34 6.5 6.5 13-6q5.75 3.25-1.5 6.5-.59 13.91-8.5 20.5l-11 3-.5-1.5.5-1.5-3-1-2 11-1.5-.5 2-11-2-1-3-12 1-2-2-23-8-18q3.38-16.37-3-23l2-1-5-8v-35l.5-2.5Zm3.5 15-1 2h1v-2Zm5 15-1 3h1v-3Zm0 7-1 9h1v-9Zm1 26-1 2h1v-2Zm8 25-1 3 2 1-1-4Zm-1 4-2 15 3 2-1-17Zm3 0-1 2h1v-2Zm20 13v1h1l-1-1Zm-8 2v1h3l-3-1Zm-4 19v1h1l-1-1ZM155.5 584l1 4 1.5.5-7.5 5.5-.5-2.5 5.5-7.5Zm275 1 .5 3.5h-1l.5-3.5Zm-19 1 1.5.5-6 5-.5 1.5-.5-1.5 3.5-4.5 2-1Zm3 1 7.5 4.5.5 1.5 1.5-.5.5 3.5-10.5-7.5.5-1.5Zm-127 1-1 4-2-1-1 3-21 10-2.5-1.5 27.5-14.5Zm-4.5 4v1h1l-1-1Zm-2 1v1h1l-1-1Zm-2 1v1h1l-1-1Zm-2 1v1h1l-1-1Zm-2 1v1h1l-1-1Zm-2 1v1h1l-1-1Zm-2 1v1h1l-1-1Zm-2 1v1h1l-1-1Zm-2 1v1h1l-1-1Zm-2 1v1h1l-1-1Zm-2 1v1h1l-1-1Zm169.5-14 3.5 6.5h-2l-.5 2.5-4.5-.5 4-1-2-5 1.5-2.5Zm.5 2-1 2h1v-2Zm1 2-1 2h1v-2Zm-26.5 2 1.5.5 26 29-3.5-2.5-1.5-.5-1.5-2.5-10.5-8.5-.5-2.5-3.5-2.5-6.5-10.5Zm-191 1 1.5.5-1.5.5v-1Zm5 2 3.5 2.5-2 1 .5-1.5-2 1v-3Zm6 4 1 2 1.5-.5-.5 1.5-3.5-1.5 1.5-1.5Zm55 1 1.5.5-22.5 15.5-1.5-.5-.5 1.5-1-2 24-15Zm-51 1 .5 1.5h-1l.5-1.5Zm26 0 1.5.5-1.5.5v-1Zm-23 1 20.5.5-21.5 1.5 1-2Zm252 10v2l5.5-.5-.5-1.5 2.5 1.5-18 9-2.5 3.5-.5-2.5 1.5-2.5 5.5-3.5-.5-1.5 2 1 1-3 4-2Zm-1.5 2v1h1l-1-1Zm-2 1v1h1l-1-1Zm-8 7-1 2h1v-2Zm20.5-8 2.5 1.5-.5 1.5 3.5 1.5-1.5.5-6.5-3.5 1.5.5 1.5-.5-.5-1.5Zm-249 3 11.5.5-11.5.5v-1Zm-3 1 1.5.5-3 2 1.5-2.5Zm-2 4 .5 3.5-6.5 4.5v-1l5.5-3.5.5-3.5Zm207 1 2.5 1.5-1.5.5-1-2Zm-221 1 6.5 3.5-.5 1.5-1.5-.5-.5-1.5-5.5-1.5 1.5-1.5Zm-4 2 1.5.5-1.5.5v-1Zm231 0 4 3-1-3 8 7 6-7v3l-2.5 1.5-1.5 3.5q-12.32 1.18-13-8Zm-232 5 5.5 11.5-3-2-.5-2.5-1 3-1.5-.5 1-3-.5-6.5Zm280 4 .5 5.5h-1l.5-5.5Zm2 5 3 6 6.5 2.5 2 12-.5 1.5 2.5 1.5.5 1.5 3-1 5.5 2.5-8.5 11.5-1-2-1.5 3.5h2l-7 14-6 8-5.5 6.5 4.5-5.5-.5-1.5-7.5 6.5 6-6 2-13 4.5-5.5 5.5-3.5 6-11-17-26 1.5-2.5Zm.5 2-1 2h1v-2Zm17 29-2 3 2-1v-2Zm-298.5-29 1.5 2.5-2-1 .5-1.5Z"/><path fill="#3C2215" stroke="#3C2215" stroke-width="3" d="m499.5 653 3.5.5 1 9-4.5 5.5-1.5-12.5 1.5-2.5Zm-271 3 5.5 12.5-2.5-1.5-2-1-1.5.5 1-3-1-4v-2l.5-1.5Zm2.5 8-1 2h1v-2Zm272.5 1 .5 6.5-2-1 1.5-5.5Zm-274 3 1.5.5-1.5.5v-1Zm1 2 1.5.5 1 2-.5 1.5 2.5 1.5 1 7h-1l-.5-5.5-1.5.5-2.5-7.5Zm264 8 1.5.5-3.5 8.5-.5-6.5 2.5-2.5Zm-258 14 1.5 9.5-1.5 11.5-2.5-17.5 2-1 .5-2.5Zm15 10 .5 5.5h-1l.5-5.5Zm216 1-.5 1.5-.5 4.5-.5-4.5 1.5-1.5Zm5 1 1 2 6 3 6-1v3l-3-2-3.5 2.5.5-1.5-5-3-1.5.5-.5-3.5Zm-194 4 3.5 2.5-2.5 3.5-3.5-2.5 2.5-3.5Zm211 2 1.5.5-1.5.5v-1Zm4 0 1.5.5-1.5.5v-1Zm72 6 1.5 2.5-2-1 .5-1.5Zm-330 5 .5 1.5-2 1 1.5-2.5Zm284 6 2.5 1.5v31l11 18-4.5 7.5-2 1-1-5-5.5-1.5-.5-1.5-1.5.5-.5 1.5-1.5-.5.5-10.5 2 4 1-4 2.5-1.5-2.5-3.5-3.5 1.5-.5 2.5-2.5-.5-4.5-11.5-6-1-4 2 .5-1.5 5.5-12.5 1.5-.5-.5-4.5-1.5.5 2.5-4.5 13-7Zm-7.5 5v1h1l-1-1Zm-1 4-4 6 1 3 3 1 1-9-1-1Zm-4 17v1h1l-1-1Zm-40.5-22 3.5 6.5-1.5.5-2-7Zm-220 1 5.5.5-2.5 4.5-3.5-2.5.5-2.5Zm-46 1 1.5.5 2 27-.5 1.5 2.5.5-1.5 3.5-1-3q-7.43 7.07-6 23l-7.5-.5-.5-17.5-3 9-2-27-3-1-1.5.5 2.5-9.5 5-1 2.5 1.5 4.5 8.5 1.5-.5 4.5-15.5ZM190 757l-1 5h1v-5Zm12 6-1 2h1v-2Zm-7 14-1 2h1v-2Zm295.5-44 5.5 1.5 2 9-5.5 8.5-1.5-.5 1 16h-1l-1-16 1-6-16-9 5.5-1.5 3 2 7-4Zm80 1 5.5 14.5h-1l-3.5-8.5-1 3-.5-4.5v-2l.5-2.5Zm-97 1v3l-2.5-.5 2.5-2.5Zm-306 5 .5 2.5v2l-12 30-.5 11.5-10.5-.5 22.5-45.5Zm404 6 .5 3.5-2 1 1.5-4.5Zm0 6 1.5.5-.5 1.5 1.5.5 4 11h-1l-5.5-13.5Z"/><path fill="#3C2215" stroke="#3C2215" stroke-width="3" d="m499.5 758 .5 3.5h-1l.5-3.5Zm-2 8 1.5.5-5.5 2.5v-1l4-2Zm-323 2 5.5 3.5-.5 4.5-5-8Zm5 10 .5 7.5-1.5.5-1-2-1 2-2.5-.5 5.5-7.5Zm9 2 .5 5.5-2.5.5-.5-3.5 2.5-2.5Z"/><path fill="#382F15" stroke="#382F15" stroke-width="3" d="m376.5 67 1.5.5-5.5 2.5v-1l4-2Zm-77 3 .5 2.5q-15.55 13.45-23.5 34.5l-.5-4.5q7.08-20.92 23.5-32.5Zm18 2 6.5 2.5-3.5 4.5-1.5.5-2.5 3.5-1.5-.5 3-2-.5-8.5Zm56 6 10.5 2.5 2 3-2.5.5-10-6Zm24 5 6.5 8.5h-2l-.5 3.5-7-9-3.5-1.5 6.5-1.5Zm8 7 15.5.5-1 4 .5 1.5-4-1-5 1 .5-1.5-1.5-2.5-5-2Zm-1 3 .5 1.5h-1l.5-1.5Zm1 6 .5 1.5h-1l.5-1.5Zm4 3 10.5 9.5-.5 1.5-2.5-1.5 3 10-2.5 1.5-6.5-14.5 1.5.5 3 1-6-8Z"/><path fill="#382F15" stroke="#382F15" stroke-width="3" d="M407.5 105q6.56 4.94 4.5 18.5h-1q1.6-13.56-3.5-18.5Zm25 8 4 1 1.5-.5-3.5 6.5-2-7Zm-6 17 4.5 7.5-1.5.5-3-8Zm10 2 7.5 2.5-2.5 8.5-1.5-.5-2-5v-2l-1.5-3.5Zm-66 9 .5 2.5h-1l.5-2.5Zm22 3 10.5.5-1 2 .5 1.5-2 1-8-5Zm-33 1 .5 6.5-2 3 1 2h-1l-.5-1.5-3.5 2.5 5.5-12.5Zm-54 2 2 9 10.5 1.5v2l1 2-1.5.5-16-6-.5 2.5 5 7-6.5 2.5.5-1.5-.5-10.5-1.5-.5 7-5-4-1 4.5-2.5Zm138 0 1.5 3.5-1 4 .5 1.5-6.5-2.5 5-3-3-1 3.5-2.5Z"/><path fill="#382F15" stroke="#382F15" stroke-width="3" d="m307.5 149 3.5.5-3.5.5v-1Zm12 0 1.5.5-1.5.5v-1Zm108 1 1.5.5 3 18h-1l-.5-9.5q2.88 13.38-4 17 2.18-13.68-3.5-19.5l3-1-2-4 2.5 1.5 1.5-.5-.5-2.5Zm1.5 3-1 2h1v-2Zm1 2-1 2h1v-2Zm-105.5-4 4.5 7.5-2.5 3.5-3.5-.5 1-4-2.5 1.5-2.5-.5 3-1 .5-1.5 1.5-.5.5-4.5Zm89 4 .5 1.5h-1l.5-1.5Zm-51 2 1.5.5-1.5.5v-1Zm22 3 7 8-7.5-3.5.5-4.5Zm45 23 1 3 5.5 4.5 1 4-6 4-.5 3.5q-6.37-4.62-4.5-17.5l3 1 .5-2.5Zm-91 3 3.5 2.5-.5 4.5-4-1-1.5.5 2.5-6.5Zm96 0 3.5 4.5h-1l-2.5-4.5Zm-170 4 5.5 4.5-5.5 8.5v-13Zm188 2 3.5 2.5 6 20-2.5 1.5-6-12-3.5-1.5 2.5-10.5Zm-97 8 2.5.5-2.5.5v-1Zm-79 10 5.5 2.5-2.5 3.5-3.5-1.5.5-4.5Zm171 1 2.5 1.5-2 1 2 1-.5 2.5-4-1-1.5.5-.5-1.5-1.5.5 3.5-2.5 2.5-.5-.5-1.5Zm-106 5 2.5.5-2.5 3.5 5-1v1l-6 1-1.5-.5-.5 1.5-1.5-.5-1.5 3.5-.5-1.5.5-1.5-5 3 5-6 6-3Zm25 4 5.5 9.5-4-3-.5-1.5-1 2-2.5-4.5h2l.5-2.5Zm.5 3-1 2h1v-2Zm93.5-2 2.5 3.5-3-2 .5-1.5Zm-184 1 5.5 2.5-2.5 3.5-3.5-1.5.5-4.5Zm164 4 1.5.5-3.5 2.5 2-3Zm-10 2 1.5.5-1.5.5v-1Zm23 0 4.5 1.5.5 1.5h2l1.5.5-.5 2.5h-2l-1.5.5-1.5 3.5-3-10Zm6.5 3-1 2h1v-2Zm8.5-2 8 11 3-1 2.5 6.5-13.5 3.5-1.5-3.5 1-4v-2l-.5-2.5-3.5-.5 1.5-3.5 2 1 1-5Zm-126 11 5.5 3.5 1 2-4.5.5-2-6Zm-65 3 2.5 3.5-3-2 .5-1.5Zm5 1 1.5.5-1.5.5v-1Zm0 2 1.5.5-1 2 2.5 3.5 2.5-.5.5-4.5 6.5 12.5-1.5 2.5-2-4-5-1-2.5 1.5-1.5 4.5-1.5-12.5 1.5-4.5Zm-12 22 4.5 2.5-1 2 2 1-.5 1.5 1.5.5-1.5 5.5-5-13Zm7 10 .5 4.5h-1l.5-4.5Zm47 5 2.5 1.5-1.5-.5-1-1Zm3 4 .5 1.5h-1l.5-1.5Zm2 3 1.5.5-2 1 .5-1.5Zm7 1 27.5.5-27.5.5v-1Zm140 2 15.5 10.5-.5 2.5-5.5.5-.5 1.5-9-15Zm30 25 3.5 2.5-2.5 3.5-3.5-2.5 2.5-3.5Zm-203 2 .5 2.5h-1l.5-2.5Zm70 2 3.5.5-3.5.5v-1Zm1 2 14.5 13.5-13.5-12.5-3 2 2-3Zm-69 1 .5 8.5-3.5 2.5-2.5-4.5 4-3 1.5-3.5Zm124 1 11.5.5-11.5.5v-1Zm93 3 4 1 1.5-.5 3 6-3 1-.5 1.5-5-9Zm-36 1 11.5 6.5-2.5 5.5-9-12Zm-17 8 7.5.5-7.5.5v-1Zm-185 1 .5 1.5h-1l.5-1.5Zm21 1 .5 2.5-5.5 10.5-1-2-23 24 5.5-6.5 4.5-8.5 7.5-3.5-1-2 2-1 5.5-9.5 5-4Zm-48 1 .5 1.5h-1l.5-1.5Zm27 2 .5 1.5h-1l.5-1.5Zm-27 4 1.5.5-1.5.5v-1Zm247 5 5.5 4.5-2.5 3.5-3.5-1.5-3-4 3.5-2.5Zm-231 17 .5 2.5h-1l.5-2.5Zm-21 32 .5 1.5h-1l.5-1.5Zm-14 5-4 5-1-2 5-3Zm3 0 1.5.5-1.5.5v-1Zm-18 26 1 2-1.5-.5.5-1.5Zm4 3 1 2-3.5.5 2.5-2.5Zm-75 3 3.5 2.5-2.5 3.5-3.5-.5 2.5-5.5Zm330 18 3.5 1.5 1.5 10.5 17 6 7.5-4.5.5-1.5 3.5 1.5v11l12 25-4-3-4.5-10.5-13.5-5.5 2-1-2.5-.5-7 1-7.5-4.5.5-1.5-5.5.5-3.5 5.5-2-1-1.5 2.5 3.5 5.5 2.5 1.5-3.5 5.5-9 2-1-2-3.5 1.5-1 3 1.5-.5 1.5.5-1 5 2-1 1.5-2.5.5 1.5-5.5 13.5-1.5-.5-.5-2.5-2 4-3.5 2.5 1.5 3.5 2.5.5 1.5 6.5 1-6 1.5.5-4.5 11.5-1-2-.5 6.5 9 7 8 21-8.5 8.5-2.5-2.5-12-31 1-2-3.5-1.5-4 1 .5-1.5-1-4 1-6-3.5-1.5-2.5 1.5 1 6-1 4 .5 1.5-6.5 1.5 1 2h-2q-1.89 16.89 6 24l-9.5 8.5-2.5.5 7 15-5.5 2.5-10.5-7.5-.5-1.5-7-4-3 1-2-1-2.5 3.5 1 3v2l8.5 11.5 13.5 12.5.5 1.5 8.5 3.5q-1.48 12.52-10.5 17.5l-2.5-1.5 3.5-10.5 2.5-1.5-1.5-4.5q-10.75-.25-14.5-7.5l-7.5-13.5-1 2-11.5-19.5q10.23-13.27 30-17l6-16v-13l7.5-17.5 2.5.5 1.5 2.5 4 2 8-10 1 2 5.5-8.5-3-1 2.5-4.5 1 4 7.5-10.5-3-1 1-4v-2l-1.5-5.5-4 1-.5-1.5 20.5-29.5Zm2.5 25v1h1l-1-1Zm13 2v1h2l-2-1Zm4 1v1h3l-3-1Zm7 2v1h1l-1-1Zm2 1v1h1l-1-1Zm2 1v1h1l-1-1Zm-35 2v1h1l-1-1Zm-3 2-1 5 5 1 1-4-5-2Zm9 2-1 2h1v-2Zm-15 16-1 2h1v-2Zm-1 2-1 2h1v-2Zm-1 3-1 3h1v-3Zm-9 33-1 2h1v-2Zm9 1-1 2h1v-2Zm-8 2-1 2h1v-2Zm-22 2-1 12h1v-12Zm23 1-1 2h1v-2Zm1 2-1 2h1v-2Zm11 1-1 3h1v-3Zm-10 1-1 2h1v-2Zm1 2-1 2h1v-2Zm10 1-1 4h1v-4Zm-9 1-1 2h1v-2Zm1 2-1 2h1v-2Zm-27 2-1 2h1v-2Zm28 0-1 2h1v-2Zm8 0-1 2h1v-2Zm-35 2-1 2h1v-2Zm28 0-1 2h1v-2Zm8 0-1 2h1v-2Zm-35 2-1 5h1v-5Zm28 0-1 2h1v-2Zm8 0-1 5h1v-5Zm-7 2-1 2h1v-2Zm-30 3-1 2h1v-2Zm36 0-1 2h1v-2Zm-59 1-2 3 11 9 1-2-10-10Zm21 1v1h1l-1-1Zm35 0v1h1l-1-1Zm-41 8-1 4h1v-4Zm-19 1v1h1l-1-1Zm20 4-1 2h1v-2Zm-25 1-1 2h1v-2Zm26 1-1 2h1v-2Zm1 2-1 2h-3v1h4v-3ZM205.5 462l4.5.5-1.5 3.5-3 1-1.5-3.5 1.5-1.5Zm-38 21 1 2-4.5 1.5 3.5-3.5Zm8 9 3.5 1.5-2.5 4.5-3.5-.5 2.5-5.5Zm-26 1 1 5 3.5.5-4 2 1 3-2.5.5-3.5-1.5 4.5-9.5Z"/><path fill="#382F15" stroke="#382F15" stroke-width="3" d="m487.5 498 4.5 2.5-2.5 3.5-3.5-1.5 1.5-4.5Zm23 6 5.5 2.5v19l-2.5 2.5-3.5-2.5.5-12.5 2 4 1.5-.5-2.5-10.5-3.5 1.5-.5 2.5-7 6q-7-4.5 4-9l6-3Z"/><path fill="#382F15" stroke="#382F15" stroke-width="3" d="m510.5 508 2.5 1.5-.5 1.5-3.5-1.5 1.5-1.5Zm18 3 5.5 12.5-4-3-1.5-9.5Zm-366 5 2 1 2-1 1.5 7.5-2 1 1-2-3-1-1.5-4.5-1.5.5 1.5-1.5Zm338 6 3.5 2.5-2.5 3.5-3.5-2.5 2.5-3.5Zm-347 6 .5 5.5h-1l.5-5.5Zm-19 6 2.5 1.5-4.5 6.5-1.5-2.5 3.5-5.5Zm183 0 4.5 1.5 2 23-8 22-17.5 17.5-38.5 27.5-3.5 28.5-2.5-.5-1.5-2.5-29-20-.5 1.5.5 1.5-1.5-2.5v-2l2.5-4.5 6 5 1.5-.5.5 1.5 4-1 2 1 1.5-3.5 2.5-9.5 17 1 1-2h2l34.5-22.5.5-1.5 10.5-9.5 11-24-1-4 1-2-4.5-1.5-3.5 2.5.5 1.5 1.5-.5q-7.67 22.83-25.5 35.5l-30 15h-23l-2.5-1.5-.5-1.5-1.5.5-.5-1.5-1.5.5-.5-1.5-2 1-9.5-5.5 2-1-5-2 .5-1.5 13-4 5 11 9 1 40-14 17.5-17.5q2.19-21.81 15.5-32.5l4-2Zm-6.5 22-1 2h1v-2Zm-1 2-1 2h1v-2Zm-1 2-1 2h1v-2Zm-1 2-1 2h1v-2Zm-1 2-1 2h1v-2Zm-1 2-1 2h1v-2Zm-1 2-1 2h1v-2Zm-1 2-1 2h1v-2Zm-1 2-1 2h1v-2Zm-18 18v1h1l-1-1Zm-2 1v1h1l-1-1Zm-2 1v1h1l-1-1Zm-2 1v1h1l-1-1Zm-2 1v1h1l-1-1Zm-2 1v1h1l-1-1Zm-2 1v1h1l-1-1Zm-2 1v1h1l-1-1Zm-48 1v1h1l-1-1Zm46 0v1h1l-1-1Zm-2 1v1h1l-1-1Zm-2 1v1h1l-1-1Zm-2 1v1h1l-1-1Zm-2 1v1h1l-1-1Zm-3 1v1h1l-1-1Zm-23 1v1h20l-20-1Zm12 15v1h11l-11-1Zm-3 1-1 2 2-1-1-1Zm-2 4-1 4h1v-4Zm-18 4v1h1l-1-1Zm12 3v1h1l-1-1Zm298.5-96 7.5 10.5-2.5 1.5-2.5-1.5-.5-1.5-2.5-.5 1-2-.5-6.5Zm-383 3-2 5-.5-1.5 2.5-3.5Zm13 8-2 3-1-2 3-1Zm376 13 2 6 3.5 2.5-.5 6.5-5-15Zm-363 6 .5 1.5h-1l.5-1.5Zm-1 4 .5 1.5-3 2 2.5-3.5Zm348 7 4 6 7.5.5.5 3.5.5-4.5-4-1q3.5-8 7-2l-5.5 13.5-1-2-.5 7.5h1l.5-1.5 5.5 7.5-10.5 2.5-1-2 6.5-.5-13-7 2-13h-1l-.5 2.5-.5-7.5 2.5-2.5Zm1.5 4-2 2 1 1 3-2-2-1Zm10 6-1 2h1v-2Zm-1 2-1 2h1v-2Zm0 10-1 2h1v-2Zm1 2-1 3h1v-3Zm-367.5-12 .5 1.5h-1l.5-1.5Zm-19 4 1 2 1.5.5-6.5 4.5 4-7Zm400 1 .5 1.5h-1l.5-1.5Zm5 15 .5 2.5h-1l.5-2.5Zm-377 4 .5 3.5h-1l.5-3.5Zm311 1 7.5 4.5-2 1 2.5.5 5-1 2.5 2.5 2 26h-2l10.5 17.5 1.5-.5-1 2 5 7-8.5 11.5-6.5 4.5-3 15h2l-6.5 7.5-7 2-5.5-3.5.5-1.5-5.5.5-3.5 5.5-2.5-6.5.5-1.5-1.5-.5-2.5-3.5-3.5 1.5 1 31-1 2 6.5 1.5 3-5 4.5 3.5-.5 1.5 10.5 7.5 1 20-1 2 5.5 1.5 1.5-3.5.5-8.5 5-3v2l1.5.5-1 12 7.5 9.5 6 2 1-2 1.5.5.5 1.5 5.5 1.5-.5 4.5-51.5-.5 12-24-7.5-17.5-17.5 9.5-.5 1.5-28.5-12.5v-11l11.5-22.5 1 2 11.5-25.5-3.5-1.5-18.5 13.5-21.5 32.5-12.5 6.5-.5 1.5-1.5-.5-14-28 3.5-1.5 2 3 5 3 3-12 14 5 14.5-16.5v-31l18-28v-6l-.5-1.5 3 1 3-1 13.5 10.5-.5 1.5 5.5-.5 2.5-4.5 2.5-1.5-1-2 4.5-7.5 12-7Zm-1.5 3v1h5l-5-1Zm-2 1v1h1l-1-1Zm-2 1v1h1l-1-1Zm-2 1v1h1l-1-1Zm17 0v1h1l-1-1Zm2 1v1h1l-1-1Zm-24 4-1 2h1v-2Zm-26 2v1h1l-1-1Zm40 4-4 3-2 3h-1l-1-1-5-4-21 40 11 1 1 4h-1l-5 8 16 18 2-1q-9-8-6-27l11-2 1 17 5 1 5-6v-6l-3 2-2-20-12 4-1 2h-2l-2-16 17-2 1-16-2-2Zm-32 1v1h1l-1-1Zm45 6-1 6h1v-6Zm1 7-1 2h1v-2Zm-4 9-2 3 2 12 4-5-1-9-3-1Zm4 12-2 6 4 1 4-1-1-5-4 1-1-2Zm-37 39-1 5h1v-5Zm11 5v1h2l-2-1Zm12 1v1h1l-1-1Zm4 0v1h1l-1-1Zm-44 4-2 1-4 5 1 21 10 3 1-28-6-2Zm17 17-1 4h1v-4Zm9 5v1h4l-4-1Zm15 15-1 15h1v-15Zm9 7-1 4h1v-4Zm54.5-143 .5 8.5h-1l.5-8.5Zm-8 1 4.5 7.5-2.5.5-2-8Zm-363 18 .5 12.5h-1l.5-12.5Zm39 5 .5 2.5h-1l.5-2.5Zm2 1 3.5 11.5h-1l-4-8 1.5-3.5Zm331 1 .5 1.5h-1l.5-1.5Zm-308 19 2.5.5 8 11v31l-1.5-.5-5.5.5.5 5.5 6-1 .5 19.5-5.5 7.5-1-2-5.5.5-.5 2.5-9-8-2.5 1.5-1-2 2-3-1-23 2 1 .5 11.5 1.5-16.5-1.5-4.5-1 3-1.5-.5 1-19h-2l.5-1.5-1.5-.5v-2l-.5-1.5-1.5-.5.5-1.5-1.5-.5-1-4h1l.5 2.5 1-2 .5 1.5-.5 1.5 14 5 3-12ZM236 677l-1 6h1v-6Zm0 44-1 2h1v-2Zm322.5-57 3.5 25.5-1.5.5-2.5-2.5.5-23.5Zm5 2 3.5 6.5-2-1-1.5-5.5Z"/><path fill="#382F15" stroke="#382F15" stroke-width="3" d="m562.5 670 1.5 16.5-3-2 1.5-14.5Zm-41 3 .5 1.5-5.5 7.5-.5-1.5 5.5-7.5Zm51 4 7 6 2.5-1.5-3.5 2.5-6-7Zm13 6 1.5.5-1.5.5v-1Zm-8 2 3.5.5-3.5.5v-1Zm-62 3 .5 1.5-3.5 6.5-1.5-.5 4.5-7.5Zm49 15 1.5.5.5 2.5 1-2 3.5 1.5-1 2v2l-.5 12.5-4.5-6.5 1-9h-1l-.5 7.5v-11Zm9 1 1.5.5-1.5.5v-1Zm-403 23 .5 2.5h-1l.5-2.5Zm341 5 1.5.5-1.5.5v-1Zm-1 4 1.5.5-1.5 9.5-2.5-1.5-1-3 3.5-5.5Zm-262 1 1.5.5-1.5.5v-1Zm257 1 .5 4.5-1.5.5-.5-3.5 1.5-1.5Zm66 2 16.5 41.5-4-3-10.5-24.5-1.5-.5.5-1.5-1.5-.5-1-8 1.5-3.5Zm.5 6-1 4h1v-4Zm-174.5-2 4.5 1.5 1.5 10.5 4.5-1.5 1.5-10.5 4.5 1.5-1.5 14.5-5 2-9.5-7.5-2-9 1.5-1.5Zm24 6 4.5 1.5-1.5 4.5-4.5-1.5 1.5-4.5Zm85 3 1.5.5-1.5.5v-1Zm-317 4 .5 4.5h-1l.5-4.5Zm14 4 .5 2.5 1 3-6.5 12.5-.5-5.5 4-8h-2l3.5-4.5Zm-.5 2-1 2h1v-2Zm312.5 1h2l3.5 1.5 1 2-3 2-.5 3.5-2-4-1 4-2.5-4.5 3-1-.5-3.5Zm-326 4 .5 17.5h-1l-.5-5.5-2.5 1.5 3.5-13.5Zm220 0 4.5 1.5-1.5 4.5-4.5-1.5 1.5-4.5Zm12 6 4.5 1.5-1.5 4.5-4.5-1.5 1.5-4.5Zm-227 3 .5 1.5h-1l.5-1.5Zm143 3 4.5 1.5-.5 4.5-5.5-.5 1.5-5.5Zm-160 4 .5 1.5h-1l.5-1.5Z"/></svg>