<svg viewBox="0 0 366 516" xmlns="http://www.w3.org/2000/svg"><path fill="#0872DE" stroke="#0872DE" stroke-width="3" d="m96.5 0 5.5.5 1 7L98.5 6l-2 1V0Zm134 6 3.5 2.5-.5 3.5-5.5-1.5 2.5-4.5Zm-122 10q7.07 3.93 5.5 16.5l-3-2-2.5-14.5Zm126 2 5.5 1.5 6 15-2.5 1.5q-9.88-4.69-9-18Zm-138 13q7.39 6.11 5.5 21.5h-1q-7.08-7.14-4.5-21.5Zm18 6L126 59.5v23l-6.5 1.5-9.5-7.5-3.5-10.5-2.5.5-.5 1.5-10 4 9-10 4-2q1.88 12.63 11 18l2.5-.5q2.12-16.62-6-23l.5-17.5Zm80 11L251 67.5 242.5 85l-2 1-14-18q-21.18-2.32-33-14l-1.5.5 2.5-6.5Zm-117 12 4.5.5Q60.48 68.98 48.5 87l.5-3.5L60.5 69l17-9Zm84 0 4.5.5-16 9-.5 4.5-5.5-4.5 17.5-9.5Zm31 1 12 15 15.5 8.5 1.5 2.5 14.5 3.5-1.5 2.5-13 3-10.5-5.5 2-1-15-14-.5 1.5-5-16Zm-115 11 5.5.5L70.5 79l1-4 6-3Zm80 0 9.5.5-5 3-1.5 2.5-4-1-1.5.5 2.5-5.5Zm14 7 2.5 1.5-6 16 13.5 21.5 29 2 16-6 1.5 2.5q-8.86 19.64-25.5 31.5l-5 2-39.5-31.5-2-9h1l6.5 8.5 10 2 .5-6.5-7.5-17.5-8.5 7.5-1.5 3.5-5.5-15.5L171.5 79Zm22.5 47-2 2 2 10 10-2 6-8-16-2ZM60.5 83l1.5 2.5L44.5 102 42 95.5l1.5.5 17-13Zm41 1 1.5.5-1.5.5v-1Zm-34 6 4.5.5-2.5 5.5-3.5-1.5 1.5-4.5Zm47 7 11.5 28.5v17l-2.5 1.5-3.5-2.5-.5 1.5q-7.73-6.77-5.5-23.5l-8-17 2-1 .5-2.5 5 3 1-5Zm-39 11q16.25-4.25 20.5 3.5l-.5 2.5q-16.58.92-21.5 13.5l-2 33 2.5 1.5 8-6 1.5 2.5-2.5 3.5 1.5.5-16.5 7.5-2-20-4 1-.5-25.5 1.5.5 3.5-.5 2.5-3.5 9.5-4.5 1-6-2.5-3.5Z"/><path fill="#0872DE" stroke="#0872DE" stroke-width="3" d="m89.5 120 12 3 1-2 4.5 10.5-15 8-3.5 10.5-4.5-1.5q2.12-14.12-5-19l4.5-6.5 6-3Zm4.5 1-10 9 2 2 7-1 3-9-2-1Zm146.5-1 5.5 2.5-1.5 3.5-4.5-.5.5-5.5Zm-108 12q6.71 8.29 24 6l9.5 7.5 2 5-4.5 7.5-1.5.5 1.5 3.5 3.5-1.5 8.5-16.5q17.4 6.6 27.5 20.5L184.5 184l-5 2 .5-1.5-.5-4.5-5.5 1.5 1 4-11.5.5v-1l8.5-5.5 1-3-4.5-5.5q-7.5-6-24-3l-.5 2.5 17 15-5.5.5-12.5-9.5-11-14v-11h1l4.5 7.5 13 3 4.5-3.5 1-3-7.5-9.5-15-8-1.5.5.5-6.5Zm39.5 30-3 3 8 8 9-8-1-3-7 5-3-1-1-3-2-1Zm59.5-30 2.5 1.5-1.5 16.5-4.5-1.5q-3.25-13.25 3.5-16.5Zm-180 6 2.5.5-.5 6.5-4-1-1.5.5 3.5-6.5Zm-4 8 .5 3.5-5.5 10.5-.5-3.5 5.5-10.5Zm182 22 4.5.5q-1.25 18.25-15.5 23.5l-2.5-.5 13.5-23.5Zm-67 37 15.5 12.5 2 8-3.5 2.5-8-15-5.5-2.5 2-1-2.5-4.5Zm-54 3 5.5 7.5-6.5.5-7.5-5.5 8-1 .5-1.5Zm-19 32 6.5 1.5q-8.44 6.06-6 23l-.5 2.5-11-14-1 4-2.5-4.5 3-1 1.5-3.5 10.5-3.5-.5-4.5Zm93 6 3.5 1.5 6 19-15.5 9.5-7.5-5.5 5-1 6-17-2-1 4.5-5.5Zm-116 3 5 6 6.5 5.5-.5 5.5q-10.58-4.87-11-17Zm27 40 2.5 1.5-.5 4.5-2-1q-6.03 4.97-3.5 18.5l7.5 9.5 4 1 4-11 2.5-.5.5-1.5 11.5 12.5-24.5 1.5-9.5-7.5-2-16 7.5-10.5 2-1Zm11 5 14.5 5.5-2 1 4 7-1.5 1.5-7-7-4-2-1 2-5.5-4.5 2.5-3.5Zm19 19 1.5 2.5h-1l-.5-2.5Zm3 3 5.5 3.5-1.5 4.5-4.5-2.5-2-3 2.5-2.5Zm149 72 .5 2.5-13.5 15.5-16 8-.5-2.5 9.5-15.5 20-8Zm-54 8 6.5 2.5-6 14v2l-6 11-2.5 17.5-13.5-12.5-2-17 1.5.5 22-18ZM210 414l-2 1-4 5 2 11 4 1 6-14-6-4ZM69.5 402l2.5.5q-7.59 5.41-6 20l-6 6-.5 8.5-4.5-6.5 8-22 6.5-6.5Zm42 7 8.5 11.5-7.5 9.5-14.5 8.5-1 4 .5 1.5-2-3-32 15q-5.75-2.25-3.5-12.5l1.5.5L75 432.5l2.5-5.5 2 11 4-2 1 8 11.5-9.5-.5-2.5-7.5-.5 23.5-22.5Z"/><path fill="#0872DE" stroke="#0872DE" stroke-width="3" d="m80.5 414 3.5.5q2 9.5-3.5 11.5l-2.5-.5 2.5-11.5Zm193 13 2.5 1.5q-9.81 7.69-6.5 28.5l-4-1-1.5.5q-4.19-22.19 7.5-28.5l2-1Zm-160 11 23.5 1.5-2.5 4.5-14.5 1.5 12 28v11h-1L111.5 451 98 463.5l-2 9q21.51 5.49 34.5 19.5l1.5-.5 3 6-3 1 .5 5.5 1.5.5-2 4 6 2-.5 5.5-12.5-1.5-4.5-7.5-12.5-6.5-.5-2.5-3.5 1.5-3.5 10.5-4.5-2.5q1.76-15.26-6-21v-25l7.5-14.5-.5 1.5.5 1.5 16.5-7.5-.5-4.5Zm-3.5 48-2 12h11l1-3-1-1-2-2-3-3-2-2-2-1Zm154.5-17 7 9 4 2 1-5 5.5 13.5-6.5 3.5-9.5-7.5-1.5-15.5Zm-83 5 4.5 1.5.5 2.5 5.5 4.5-3.5-2.5-2.5.5-.5 7.5-5.5-12.5 1.5-1.5Zm61 6 3.5 2.5-1.5 3.5-4 2-5.5-2.5 7.5-5.5Zm-50 4 1.5.5 4 12-4.5 1.5-2-4-5.5-4.5 3.5 2.5 2.5-.5.5-7.5Zm-117 3 2.5.5q-.61 12.39-9.5 16.5l-2.5-1.5q.25-10.75 7.5-14.5l2-1Zm154 8-.5 1.5.5 1.5 4-3 .5 2.5-1.5 6.5-4.5-2.5 1.5-6.5Z"/><path fill="#08223B" stroke="#08223B" stroke-width="3" d="m228.5 0 6.5 1.5 7 10-5.5.5-4-6-4 1V0Zm-114 31 5.5 14.5h-1L114.5 31Zm138 6q8.59 8.41 5.5 28.5l-3.5.5-10.5-7.5q10.29-4.71 8.5-21.5Zm-64 5q12.25-3.25 15.5 2.5l-.5 5.5-10-2-1.5 19.5L203.5 87l16.5 8.5 1.5 3.5 5.5 2.5-5 1-.5 1.5L188 78.5l-2-4-.5-8.5-1.5-.5 2-8-2.5-3.5 2.5-.5 2.5-11.5Zm.5 26-1 2h1v-2Zm1 4-1 2h1v-2Zm-57.5-12 5.5 2.5-.5 2.5-4.5-2.5-.5-2.5Zm46 10 1.5.5-3.5 7.5-3 1-11.5-1.5.5-2.5 16-5Zm-94 2 17.5.5 8 11-2 1-.5 1.5-7-2L90 92.5l1.5 3.5 14.5 5.5 2 4 15.5 57.5 6.5 5.5 5.5 6.5 5.5 4.5-2.5.5-11-6-1.5.5-7.5-18.5-4 1-1-7-3.5 1.5-4.5 16.5-4.5-.5 7-17v-19L93.5 102l-13 6-2.5-6.5 3.5-5.5 2.5-.5-.5-5.5-11 2-1-2-2.5-.5 4-3L78.5 75l6-3Zm54 3 8 9 3.5 2.5q-4.12 19.13 3 27l-3.5 1.5h-2l-15 6-4.5-2.5-1.5-3.5-1 4-2.5-4.5 3-1 .5-2.5 6 3 8.5-6.5q5.44-5.06 3-18l-7-13 1.5-1.5Zm-21 21 6.5 7.5h-1l-5.5-7.5Zm129 5 3.5 2.5 2 7-3.5-2.5q-13.79 1.29-19.5-5.5l17.5-1.5Zm-187 16 1 2-3.5.5 2.5-2.5Zm177 3 2.5.5-2.5 5.5-1.5-.5-1-2 2.5-3.5Zm-81 3-6 7-1.5-.5 7.5-6.5Zm76 3 2.5 5.5-6 3-2.5 3.5-15 6-.5-2.5 21.5-15.5Zm-158 6 4.5 1.5-.5 10.5-5.5-2.5 1.5-9.5Zm164 35-.5 1.5-.5 1.5-.5-1.5 1.5-1.5Zm-187 1 3.5.5-3.5 5.5-2 1-.5-2.5 2.5-4.5Zm-.5 3v1h1l-1-1Zm100.5 15 35 18h19l14-12-2.5 3.5-1.5 6.5q-8.33 10.17-29 8L155 197.5l1-4-6-5 .5-2.5Zm-6 18 5.5 2.5.5 2.5q14.77-.77 20.5 7.5l4.5 11.5 4-1 .5 1.5-3.5 4.5-8-5h-2l-7.5-.5 2-3-21-15-1-3 5.5-2.5Zm-44 26 8 4 2.5.5-8.5 14.5-.5-2.5-2.5-6.5-30.5-.5 3.5-6.5 8 2 6-2 3 1 1-3 11 3 .5-2.5-1.5-1.5Zm-66 10 12.5 5.5-5.5 1.5-7.5-1.5 2-3-1.5-2.5Zm25 6 6.5 2.5q.34 11.16 8 15l-5.5.5-3.5-2.5.5-1.5-1.5-.5-4.5-13.5Zm3.5 1-1 2h1v-2Zm13.5 25 3.5 1.5-1.5.5-2-2Zm98 29 15 10 18.5 3.5 6 10-1.5-.5-2.5.5-.5 3.5-2.5 1.5-1.5 2.5-13 5-12-9-1.5.5q-8.21-8.71-4.5-27.5Zm-27 11 2.5 1.5-.5 29.5-5.5-4.5-1.5-2.5-14.5-5.5 3.5-1.5 12 1 4-18Zm-9.5 20v1h1l-1-1Zm-5.5-9 1.5.5-1.5.5v-1Zm17 24 4 7 1.5.5-6.5 9.5-10 5-1-3-2.5-.5-.5-1.5-4 1q-10-9.5-32-7l-6 2-2.5-6.5 1.5.5h28q6.38 8.12 23 6l5-12 2-1Zm-1.5 4-1 2h1v-2Zm-11 12v1h1l-1-1Zm122.5 44 1.5 1.5-8 8 3 4-4-3 8-9-.5-1.5Zm-16 13 1.5.5q-2.35 24.85 7 38l-3.5-2.5-2.5.5-3 11-15.5 16.5-3 1-26.5-18.5-3.5-10.5-2.5-1.5.5-27.5q6.5 18.5 21 29l2.5-1.5 2-9 21.5-22.5 4-3ZM218 456l-2 2 1 14 4 2 5-1 2-3-6-12-4-2Zm-88.5-31-3.5 4.5.5 2.5 11.5 1.5-.5 6.5-1-2h-30l-9 5 .5-1.5 3.5-5.5 1 2q4.43-8.57 20-6l7-7Zm134 10 1 2-3.5 1.5-.5 1.5-.5-1.5 3.5-3.5Zm7 2 .5 1.5h-1l.5-1.5Zm-135 6-2.5 3.5 3 4-4-3 3.5-4.5Zm-43 7 2.5.5q-8.67 10.33-5.5 32.5l-6-9-4.5 2.5 11 20-5.5 10.5-9 3 2.5-3.5q-1.75-10.75 3.5-14.5l2.5-.5-1.5-5.5-10 2-.5-4.5 6-4q8-7 8-22l6.5-7.5Zm184 12 1.5 2.5-2-1 .5-1.5Zm-24 1 12.5 40.5-27.5.5 2.5-3.5 12-20 .5-17.5Zm-68 6 15.5 14.5-1.5.5-14-15Zm55 11 1.5.5-1.5 2.5-8.5 3.5-.5 1.5-.5-1.5 9.5-6.5Zm45 4 1.5 2.5-2-1 .5-1.5Zm-104 2 1.5 3.5h-1l-.5-3.5Z"/><path fill="#34A8FB" stroke="#34A8FB" stroke-width="3" d="m97.5 6 4 3 1.5-.5 11 25v21q8.12 6.38 6 23l-2.5.5q-9.12-5.37-11-18l-14 12Q75.05 69.05 69 77.5l.5 1.5-26 17-.5-1.5 4.5-8.5 20-18 5-3 2.5 1.5-3 5 2.5.5L90 64.5l-1-4 12-3 1-16-6-14 3 2 6.5 12.5 2.5-.5-7.5-29.5-4 1-.5-5.5L97.5 6Zm96 48q11.82 11.68 33 14L240 81.5l-3.5 8.5q-12.19 1.69-16.5-4.5l.5-1.5 1.5-.5-7.5-9.5-16-8-1 2-5.5-12.5 1.5-1.5Zm-20 6 11.5 1.5-5.5 7.5q-6.17 5.33-20 3l2-3 12.5-4.5-.5-4.5Zm-17 5 2.5 1.5-3 5v2l1 4-1.5-.5-5.5-2.5 1.5-6.5 5-3Zm-56 20 10.5 5.5 3 11-2.5.5-11-17Zm65 11 2.5 1.5 6 22-6.5.5-9.5-7.5-2-5 9.5-11.5Zm-2.5 12-1 3 6 3v-2l-5-4Zm-90.5 0 5.5 3.5-.5 4.5-1-2-9.5 3.5-1 2 5 1-6 4-.5 1.5-4.5-1.5 6.5-13.5 6-3Zm21 13 2.5.5-3.5 9.5-7 1-1.5-2.5 9.5-8.5Zm100 5 13.5.5-9 10 2 1-6.5.5-1.5-10.5 1.5-1.5Zm-60 12 20.5 13.5 2 5-3.5 4.5-9 1-6.5-3.5q-7.12-4.88-5-19l1.5-1.5Zm6.5 12-2 3 12 8v-1l-10-10Zm-78.5 0 4.5 1.5-.5 11.5-4-1-1.5.5 1.5-12.5Zm-8 1 .5 4.5-5.5 8.5-.5-2.5 5.5-10.5Zm118 11 2.5.5.5 3.5 3 1 7-5 1.5 2.5-9.5 8.5-7.5-8.5 2.5-2.5Zm-27 6q19.54-3.54 26.5 5.5l2 4-2.5 3.5-9 5-17.5-15.5.5-2.5Zm12.5 1-1 2 10 8h1l-1-3-9-7Zm18.5 11 4.5.5-1.5 5.5-4.5-1.5 1.5-4.5Zm-25 12 5.5 2.5-2.5 3.5-3.5-2.5.5-3.5Zm-53 7 10.5 8.5-.5 2.5-9.5-1.5-2-8 1.5-1.5Zm-29 41 21.5 1.5-1.5 4.5-10.5 3.5-.5 2.5-6.5-3.5-4-7 1.5-1.5Zm109 12 2.5.5-6.5 17.5q-13.25-.25-17.5-9.5l13.5-2.5 8-6Zm-99 1 11 14 1.5-.5 5 7-5.5 2.5-12.5-9.5-2-8 2-1 .5-4.5Zm15 41 2.5 1.5 2 4-6 2-1.5 3.5-.5-5.5 3.5-5.5Zm15 6 11 9 1.5-.5 4 9-1.5.5-15-18Zm-6 4 5.5 7.5-4 2-2.5 9.5-9.5-6.5-2-7 3.5 2.5 8.5-3.5.5-4.5Zm-25 110 2.5.5-2 11 3 1-2.5 4.5-1-4-4 7-12 10-1.5-12.5 1.5.5 9.5-3.5 1-8-2-1 7.5-5.5Zm132 0 6.5 3.5-6.5 14.5-3.5-1.5-2-11 3.5-4.5 2-1Zm-122 18 8.5.5-9.5 11.5-2.5-.5q-2-9.5 3.5-11.5Zm21 6 5.5 1.5-1.5 4.5-15 6-.5-1.5 2-4-.5-1.5 10-5Zm2 13 7.5 6.5 14 33-2.5 1.5q-12-14.5-33.5-19.5 1.52-16.48 14.5-21.5Zm155 5 4.5 1.5 6 22-1.5-.5-8.5-6.5-2-15 1.5-1.5Zm-79 24 5.5 3.5-.5 8.5-5.5-3.5.5-8.5Zm52 7-.5 1.5-3.5 7.5-4 2-1.5-.5 5.5-8.5 4-2Zm-106 11 5.5 2.5-2.5 3.5-3.5-.5.5-5.5Z"/><path fill="#A9DAFB" stroke="#A9DAFB" stroke-width="3" d="m97.5 12 4.5 1.5v11l6 17-2.5.5L96 26.5v-13l1.5-1.5Zm-14 48 6.5 1.5-1.5 4.5-16 6 .5-1.5 2-4-2-1L83.5 60Zm84 0 6.5 1.5-1.5 4.5-16 6 .5-1.5 2-4-2-1 10.5-5.5Zm31 6L220 79.5l2 4-2.5.5L198 68.5l.5-2.5Zm-100 20 7.5 5.5 2 9-1.5.5L90 93.5l8.5-7.5Zm64 22 5.5 3.5-.5 2.5-5.5-3.5.5-2.5Zm-91 6 5.5.5-2.5 4.5-8 1 .5-1.5 2.5-3.5 2-1Zm136 12 2.5 2.5-7.5 7.5-4 1-.5-1.5 9.5-9.5Zm-157 18 3.5 2.5-8.5 21.5-3.5-2.5 8.5-21.5Zm89 6 10.5 9.5-.5 1.5-11.5-8.5 1.5-2.5Zm-78 12 4.5 1.5q3.25 13.25-3.5 16.5l-2.5-.5 1.5-17.5Zm95 7 9.5 6.5 1 3-1.5.5-9.5-8.5.5-1.5Zm-63 131 8.5 3.5-1.5 6.5-7 2-3.5-6.5 3.5-5.5Zm-24 120 2.5.5-3.5 10.5-7 1-1.5-2.5 9.5-9.5Z"/><path fill="#083C77" stroke="#083C77" stroke-width="3" d="m234.5 10 8.5 2.5q12 10.5 9 36L243.5 59l-7.5-6.5-2-27h1l8.5 10.5 2.5-1.5-7.5-16.5-4.5.5-.5 3.5-5.5-10.5 1.5.5 4.5-.5.5-1.5Zm-120 16 5.5 14.5h-1L114.5 26Zm-13 27 .5 1.5-3.5 4.5q-23.12-2.62-33 8l1-4q11.25-11.25 35-10Zm67 1q14-3.5 17.5 3.5l-.5 4.5-1-2q-28.48-3.98-40 9l1.5-2.5.5-1.5 22-11Zm-42 7L144 89.5v13l-6.5 8.5-8 3-12-18-3 1-2.5-6.5 2-1L101.5 72l-4.5-.5 7-4 .5-1.5 3.5 1.5q.25 10.75 7.5 14.5l9 2 2-23Zm125 7q-.63 12.13 6.5 16.5L245.5 102q-17.15 3.15-24.5-3.5l-1-3 1.5.5 13.5-3.5 1.5-2.5 3.5-2.5 1.5-2.5 1.5-.5 8.5-16.5Zm-174 7 .5 3.5-5.5 8.5-6.5 4.5 1 4-21.5 6.5 8-9 8.5-7.5-1-2L77.5 75Zm121 0 14 15-2 1-9.5-6.5-4-7 1.5-2.5Zm-37 2 12.5 2.5-1.5-.5-18 11 1.5-2.5-2-9 7.5-1.5Zm12 8q-3.54 26.54 13 33l3.5 1.5-4.5.5-9.5-7.5-8-17 5.5-10.5Z"/><path fill="#083C77" stroke="#083C77" stroke-width="3" d="m150.5 90 1.5.5-1 2q7.32 6.18 5 22l13.5 15.5 29 20 21.5-19.5 8-15-.5-1.5q11.48-1.48 14.5 5.5l-2 1 .5 5.5 5-1 .5 19.5-11.5 28.5-1-5-5.5 1.5q-1.99 15.01-12 22l2 1q-6.13 15.87-32.5 11.5l-35-18-1 2-10.5-7.5 2-1-11-10q-12.22-6.28-11-26l1.5-2.5 4 3 1.5-18.5-6-16h1l10.5 19.5 13 3 11.5-8.5q-8.99-11.56-5.5-33.5Zm86.5 30-3 4 1 2h2l2-5-2-1Zm-5 6-22 16 1 2q12 0 17-8v13l5 1 1-16v-2l-2-6Zm-99 6-1 31 11 14 13 9 29-2 18-19q-10-14-27-21l-9 17-3 1-2-3 2-1 4-7-2-5-9-8q-18 2-24-6Zm-42.5-30 5.5 2.5 7 16-1.5 2.5-12-3-8.5 5.5-2 4q7 6.5 6.5 20.5l4.5-1.5q.25-10.75 7.5-14.5l10-3 .5 19.5-6.5 16.5-20.5-5.5 3-4-2.5-1.5-8 6-1.5-19.5 2.5 1.5 3.5-.5-1.5-11.5-4 1-.5-1.5L85.5 116l10.5-2.5-3.5-5.5-10.5-.5 8.5-5.5Zm-31 16 .5 49.5-3.5 6.5-2.5-.5-.5-5.5-6.5-.5q10.5-7.5 7-29l-2-1 7.5-19.5Zm9 50 5.5.5-4.5 11.5-5.5-.5 4.5-11.5Zm82 36 12.5.5-1 2 2.5 3.5-2 1-12.5-2.5.5-4.5Zm-51 6q2.71 7.29 14 6l1-2 5.5 8.5-7.5 9.5-5 2L82 222.5l14-2 .5-4.5 5.5-.5-2.5-5.5Zm59 18 9.5 1.5-2.5 4.5-9.5-2.5 2.5-3.5Zm-63 12 6.5 2.5q-7.79 10.21-6.5 29.5-8.25-4.75-5.5-20.5l6-10-.5-1.5Zm98 2 8.5 5.5 2 17-3.5 5.5-11.5-.5 3-6-7-17 8.5-4.5Zm-135 28q17.97-2.47 25 6l.5-2.5-.5-1.5 11 4h2l5.5.5-.5 10.5q-7.47-7.03-24-5l-19-12Zm59 30h18l2.5 2.5q3.5 15.5-3.5 20.5l-3 1 .5-1.5-1.5-4.5-4-2-1.5.5-7.5-16.5Zm-33 13 7 9 27 2h2l10.5 5.5q-14.57-1.57-20 6l-2.5 5.5-1-2-10 11-1.5.5 1 3-5.5.5q.06-15.56-7.5-23.5l.5-17.5Zm126 11 3.5 1.5 2 17-3.5 5.5h-18l-2.5-2.5 1.5-9.5 13.5-5.5 1.5-2.5 1.5-.5.5-3.5Zm41 72 3.5.5-9 17 2.5.5 11-6-7.5 8.5q7.4 3.6 6 16l-6 16 4.5 1.5 7-14 .5 44.5 7.5 9.5 5 2 5.5-3.5-12-26v-23h1q7.33 7.17 5 24l12 28v10l-2.5 2.5h-20q-9.31-11.69-8.5-33.5l-11-26-1.5-24.5-23.5 21.5-7.5 14.5q-19.59-12.41-21.5-42.5l5.5-7.5q-4.04 29.04 14 36l2 1 2.5-17.5 6.5-11.5 12-3 17-15Zm-138 12 18.5.5q2.71 19.21-9.5 23.5l-13.5-.5 9-7 2-5-8-10 1.5-1.5Zm-12 27-2.5 3.5-.5 1.5-.5-1.5 3.5-3.5Zm-6 6 2 3 1.5.5-4.5 8.5.5-1.5-.5-1.5-3.5 1.5L77.5 480 66 477.5l-6-15v-9l3.5 2.5 32-15Zm26 3 12.5.5-2 3 12 26 1.5 36.5 4.5-1.5v-20l2.5-2.5 3.5 2.5q2.57 19.57-6.5 27.5l-5.5-.5-1.5-5.5-4 1-6.5-2.5 2.5-4.5 3.5-1.5-1.5-4.5-2.5-1.5-2-23-12-28 1.5-1.5Zm62 25q8.22 14.78 26.5 19.5l6 13q-4 6.5-18.5 2.5L182 490.5l-2-9h1l9.5 12.5 1.5.5 1.5 3.5 4.5-1.5-4.5-12.5-1.5-.5-4.5-5.5-1.5-.5-1.5-3.5-4 1-.5-1.5 3.5-4.5Zm-127 11 3.5 2.5q3.25 12.25-2.5 15.5l-3.5-2.5q-3.25-12.25 2.5-15.5Z"/><path fill="#083C77" stroke="#083C77" stroke-width="3" d="m234.5 485 6 3 5-3 .5 3.5-9.5 15.5-3.5-.5 6-16-1.5-.5-6.5 4.5-2.5 4.5-.5-4.5 3.5-5.5 3-1Zm-157 1 6.5 1.5-.5 4.5-3.5 1.5-2 13-3.5 3.5-8.5-2.5.5-4.5 2 1q8.89-4.11 9.5-16.5l-.5-1.5Zm32 0 2.5.5 1.5 2.5 3.5 2.5 1.5 2.5 1.5.5-1.5 3.5-10.5.5 1.5 3.5 13.5 7.5-21.5.5.5-1.5 3.5-10.5 2.5-.5 1.5-11.5Z"/><path fill="#080E13" stroke="#080E13" stroke-width="3" d="M120.5 39 135 59.5l-3 1 3.5 4.5 8 1 2.5.5-2 4 10 7 2 4-3.5 8.5-2.5-.5-2-5 2-1-3.5-4.5-2-1-1 2-6.5-4.5-17-28 .5-8.5Zm66 3 1.5.5-2 1 .5-1.5Zm16 0 1.5.5-.5 1.5-1-2Zm2 3 29 9 1-4 6 8q12.56 1.44 17.5 10.5l3.5 9.5 3.5.5-1 10 16 7 5 7q6.17 7.83 3 25l6.5 8.5q13.37 1.62 18.5 11.5l1.5 2.5 3.5-1.5-2-9-13.5-19.5-2.5-.5q4.12-21.12-6.5-27.5L270 80.5l-1-2 8.5-.5L298 90.5l8 16v7l18 29v9l-2.5 3.5-5 1-13-11-3.5 7.5 2.5 3.5-8.5-3.5-8.5-20.5-3.5-.5q5.42-25.42-6.5-33.5l-22-2-2 11-3-5-2.5-1.5 12-18-7.5-16.5L204 50.5l.5-5.5Z"/><path fill="#080E13" stroke="#080E13" stroke-width="3" d="m136.5 60 1.5.5-.5 1.5-1-2Zm-28 24 2.5.5 2 5-1.5.5-3-6Zm8 12q8.61 4.89 9.5 17.5l-2.5.5-8.5-16.5 1.5-1.5Zm106 6 26 6 3.5 3.5 1.5 26.5 10.5.5 18.5 21.5 17.5 2.5-3.5 5.5-19-5-8 5-17.5 1.5v6l12 23v11L252.5 224l-.5-3.5q7.94-6.06 6-22l-12-23-.5-7.5-2.5.5q-8.03 22.47-27.5 33.5l.5-1.5v-5q16.67-11.33 24-32-1.24-13.24 6-18v-24q-5.87-10.62-25.5-7.5-7.35 8.65-26 6v-1l16-5 11.5-8.5.5-3.5Zm30.5 42-1 18h23l1-3q-6-13-23-15ZM78.5 106l1 2-1.5-.5.5-1.5Zm72 8 2.5.5 3 8q-4.89 8.61-17.5 9.5l-9.5-6.5-3-10h1l2.5 4.5 2.5.5 1.5 5.5 15.5-2.5 1.5-9.5Zm-109 42 2 12 6.5.5-2.5 4.5-15-5-2.5 7.5 8 16-1.5.5-6.5-3.5-8.5-13.5-1.5-.5 4-1 2.5-10.5 12.5-1.5 2.5-5.5Zm263 0 1.5.5-.5 1.5-1-2Zm24 0q18.25-3.25 23.5 6.5l2 10h-1l-4.5-7.5q-6.17-5.33-20-3l-14 11-6.5-4.5-2-3 3.5 2.5h5l14-12Z"/><path fill="#080E13" stroke="#080E13" stroke-width="3" d="m84.5 162 20.5 6.5-2 3 9.5 7.5 1-2 2 21 14 6 17-12 5 6h10l27.5 12.5-2 1-1 22 3.5 6.5 14.5-.5 2.5-10.5 23-1 13 6 3.5-2.5-2.5 8.5q-10.3-8.7-32-6l-1.5 73.5q12.21 11.79 13.5 34.5l4.5.5 1.5 3.5 29 2 68.5-65.5 21-54v-43l5.5-10.5.5 34.5 8.5 22.5 3.5 1.5-.5 42.5h-23L321 294.5l-3 11 12 23v15l-2.5 3.5-26 1v-1l21.5-7.5 1-11q-7.31-7.69-7.5-22.5l-10 2-35.5 35.5-1 3 21 2q-5.27 8.23-21 6 2.44 16.94-6 23l2.5.5 11-6 3.5 2.5 1 11q-7.36 20.14-23 32l5.5 8.5 9.5.5-8 6-1.5 3.5-4.5 2.5-4.5 11.5-3.5-2.5q7.35-7.15 6-23l-5-8 7.5-9.5 13.5-11.5 2-16-3.5-1.5q-9 11-34 6L194 408.5l-2.5 29.5q-8.08-7.42-5.5-25.5 18.4-17.1 29-42L203.5 354q-12.52 1.52-15.5-6.5l-3.5-10.5-2.5-1.5-3-6 7.5 4.5 5.5 2.5 1.5 11.5 27.5-.5 1-4-6-5v-10l-8.5-14.5q-23.35-.65-34-14h-11l-12.5 6.5 1.5 4.5 2.5 1.5 2 4v40l-2 1 1-3-3-2-3.5-40.5-2.5 1.5-2.5 16.5q-16.88 1.88-23.5-6.5l-24-27-1.5-8.5-4 2-1-2h-11l-23 12h-15L26 287.5l-2-7 5-12-5-12 6 5 1.5 2.5 10.5.5 1.5 5.5h13l20 12q18.45-1.95 27 6l15-6 1.5 2.5-6 4 1.5 3.5 27 2 1.5-4.5-12-2 .5-5.5q16.82 2.82 21.5-6.5l1-3-5-3v-13l-12-15 1.5-.5 10.5 8.5 1.5 2.5 4.5-1.5-6.5-14.5-30-2-4.5 2.5-1 8 5.5 4.5 1.5-.5 5 9-6.5 9.5-17.5 3.5-3.5 5.5-2.5-.5q-2.92-19.42 5.5-27.5l4.5-2.5 5-11-.5-1.5 7.5-5.5 1.5-3.5 3-1q5.5 7.5 21 5l.5-2.5-7.5-15.5-22-6-.5 3.5 6 8-2.5.5-20-18-5 6-2.5-.5L78.5 189 60 183.5l2.5-3.5 9.5-1.5 3-10-.5-1.5 10-5Zm-1.5 6-2 1-3 4 2 13 14 12v-2l5-3 6 5h3l-5-8 4-8-2-2-1-1q-5-12-21-11Zm62 36-6 3 1 3 21 14v2l-3 2-2 5 11 1 2-6 8 5 3-4-2-12q-4-16-27-13l-1 2-5-2Zm26 30-9 12 1 6q15-2 23-12v-4l-3-2-1 2-4 3-7-5Zm183 0-2 1-10 22v11q4 6 17 2l1-34-6-2Zm-161 8q-2 6-11 4l-2 3q-6 11-24 11l6 16h-3l-15 21 1 3 17-6 24-2 18-26-2-19-9-5Zm-83 5-6 8-2 1 3 8 15-1-3-11-7-5Zm-71 24-2 1-7 9 2 7 10 6 15-1 3-4-3-7-18-11Zm29 11-2 2 2 4 4-1-1-4-3-1Zm36 12-2 5 3 1 23 24 8-1q6-6 2-21l-17-2-17-6Zm120 55-14 7 12 16-12 15 1 3h7l22-12q13 3 19-3 7-5 5-19l-30-2-10-5Z"/><path fill="#080E13" stroke="#080E13" stroke-width="3" d="m107.5 166 .5 1.5-1.5.5 1-2Zm13 0q10 4.5 5.5 23.5l-3.5 2.5-2.5-2.5.5-23.5Zm-43 56 6.5 3.5-.5 2.5-11.5 1.5q1.75 8.75-3.5 10.5l-2.5.5-.5 7.5-18-2L12 230.5l.5-2.5h11l23 12h15l10-17 1 2 5-3Zm14 6 10.5 3.5-.5 2.5-11.5-3.5 1.5-2.5Zm-85 4 4.5 5.5-5 4 1.5 4.5 12.5 5.5-9.5.5L0 246.5.5 234l5.5-.5.5-1.5Zm27 14 8.5 1.5-2.5 4.5-9.5-.5 3.5-5.5Zm33 16q13.1 1.4 17.5 11.5l-.5 1.5-17.5-8.5.5-4.5Zm18 70 5.5 10.5 2 17-2 1 5 9-5.5 14.5-5.5-2.5 6-15q-10.41-10.44-5.5-34.5Zm61 33-1.5 4.5 6 28-20.5 34.5-3.5-.5q7.88-5.12 6-20l12-15v-11l-2.5-.5-15 11h-12L96 386.5l.5-2.5 16 6h15l8.5-6.5 2-14 3.5-3.5 4-1Zm130 61 6.5 2.5-6 15 18 47v15l-2.5 3.5-95 1-20.5-18.5-2-13 8.5-16.5 15 12 1-7 27 18 7.5-6.5q11.12-6.88 13.5-22.5l5.5 3.5q4.44 21.44-5.5 28.5l-2-8-14.5 6.5-2 16 58.5 1.5 1.5-13.5-12-29q1.91-16.91-5-25l5-9-.5-1.5ZM183 469l-3 4 2 19 15 12 19-1-6-15q-18-5-27-19ZM55.5 428l-.5 1.5.5 2.5 1.5.5q7.17 9.83 3 31l7.5 16.5 9.5.5-5 3-6 13v12l12.5 1.5 6.5-3.5 5-10-11-20 4.5-2.5L96 498.5l1.5 11.5 25.5.5 2 5-29.5.5-2-4-9-2-6.5 3.5-.5 2.5-18.5-.5-11-22v-9l6-11 1.5-45.5Zm.5 52-2 17 5 1 1-16-4-2Zm52.5-48 1.5.5-7.5 5.5-.5-2.5 6.5-3.5Zm29 0 5.5 2.5 1 5-6.5 14.5-4.5-7.5 5-13-.5-1.5Zm51 6 3.5 2.5-.5 12.5-1-2-2.5-1.5-2-7 2.5-4.5Z"/><path fill="#080E13" stroke="#080E13" stroke-width="3" d="m192.5 455 3.5 2.5 2 7h-1l-.5-1.5-2.5-1.5-1.5-6.5Zm-54 4 5.5 12.5h-1l-4.5-12.5Zm6 18 5.5 3.5 1 6-1 21-2.5 2.5-3.5-2.5.5-30.5Zm-4 33 3.5 2.5-.5 3.5-5.5-.5 2.5-5.5Z"/><path fill="#5D3C13" stroke="#5D3C13" stroke-width="3" d="m183.5 66 2.5.5 2 11-3.5 1.5-3-1-7 17-.5-16.5 4-1 5.5-11.5Zm24 30 13.5 8.5-6.5 7.5-12 3 1.5-2.5.5-10.5 5.5-.5-2.5-5.5Zm-91 60 3.5 2.5 1 33-1 4 1.5 2.5-7.5-2.5v-37l2.5-2.5Zm210 66-1.5 2.5-.5 1.5-.5-1.5 2.5-2.5Zm-15 8 .5 1.5-3 2 2.5-3.5Z"/><path fill="#2C2F35" stroke="#2C2F35" stroke-width="3" d="m144.5 79 3.5 1.5 1 3-1.5.5-3-5Zm108 25 24 26 5.5 1.5 7.5 16.5.5-1.5-7-14 1.5-.5 12 23 1.5.5-3.5.5-19-16-10-2-1.5.5-8.5-12.5-3.5-1.5 1-17-.5-3.5Zm1.5 7-1 2h1v-2Zm1 2-2 12 3-2-1-10Zm36 35-1 2h1v-2Zm-2.5-42 4.5 9.5-4.5 8.5-.5-2.5 1-2-1-9v-2l.5-2.5Zm1.5 6-1 5h1v-5Zm9.5 3 1 8 1-3 1.5.5 15 27-2.5 2.5-12-12-3.5-.5 4.5-.5 8 7 1.5-2.5-12.5-18.5-.5 1.5 4 10-4.5 1.5-6.5-13.5 4-3 1.5-4.5Zm-47 29q17.32 2.18 23.5 15.5l-2.5 2.5h-21v-18Zm4.5 3-3 4 4 9 12-1v-2l-13-10Z"/><path fill="#2C2F35" stroke="#2C2F35" stroke-width="3" d="m256.5 149 11.5 7.5-10.5 1.5-1-9Zm43 7 5.5 1.5 3 10-9.5.5 1.5-2.5-1-4 1-4-.5-1.5Zm31 6q15.73-2.23 20.5 6.5l2 7-2.5 4.5-1.5.5 1 2-2 1-1 4 1 21-6 3-6.5 22.5-10.5-8.5q7.31-5.19 5-20l-3.5-1.5-11 18-13.5-7.5 7-22 12.5-12.5q6.75 4.25-3.5 8.5l1.5 3.5q15.26-1.76 21 6l7.5-21.5-24-5 6.5-7.5 17 6 .5-1.5-17.5-6.5Zm18.5 8-1 2h1v-2Zm-2 19-1 3h1v-3Zm-1 5-2 7 1 7 2 1-1-15Zm-19 8v1h1l-1-1Zm3 21-1 3h1v-3Zm-6.5-58-8 9-3.5-2.5 2.5 1.5 9-8Zm-291 3 6.5 2.5-6 2 1 7h-1l-3-9 2.5-2.5Zm56 0 4 3h2l11.5 10.5-4 8 6 8-2.5.5-6-8-3.5 2.5-.5-6.5-5.5-3.5-1.5-14.5Zm7.5 6 5 8-1 5 1 3 2-6-7-10Z"/><path fill="#2C2F35" stroke="#2C2F35" stroke-width="3" d="M42.5 171v2l1.5.5-8 4-1.5 4.5.5-1.5-1-6 8.5-3.5Zm-5.5 3-1 2 2-1-1-1Zm12.5 1 2.5.5-2.5.5v-1Zm15 11 2 1 4-1 1 2-2.5.5 3 1-3 1 .5 1.5-4.5-2.5-.5-3.5Zm3.5 1v1h1l-1-1Zm-13.5 5 5.5 3.5-.5 2.5-5.5-3.5.5-2.5Zm82 4-7 8-3.5-2.5 2.5 1.5 8-7Zm-18 14 20 12 1-2 4.5 7.5-11.5.5-9.5-6.5 1.5.5 4 1-1-2-4.5-1.5-4.5-9.5Zm21.5 12-2 2-7-1-2 1 6 2 5-2v-2ZM.5 213l3.5 2.5-2.5-1.5-1-1Zm71 3 1 2 3.5.5-3.5 1.5-1-4Zm47 0 1.5.5 2 6-2 1-1.5-7.5Zm-113 3 1.5 2.5H6l-.5-2.5Zm72 0 1.5.5-.5 1.5-1-2Zm222 2 11.5 9.5-13.5 27.5-9.5 1.5 5 12-14 28-45 47 .5 1.5-6.5-3.5.5-1.5 4 1 .5-1.5-8-2 30.5-28.5 7.5-2.5 1-9-2-1 12-12 14-35-2-1 11.5-29.5 2-1Zm7.5 9-1 3h1v-3Zm-17 38-1 4h1v-4Zm-22 37v1h2l-2-1Zm79.5-82 .5 2.5-7 16 1 4-1.5 2.5-1-2-.5 2.5.5 1.5-1.5.5-3 9 1 4-1.5 2.5-1-2-.5 2.5.5 1.5-1.5.5-1.5 5.5-.5-9.5 17.5-41.5Zm-6.5 20-1 2h1v-2Zm-6 18-1 2h1v-2ZM59.5 233l.5 1.5-3 2 2.5-3.5Zm61 1 12.5.5-3 1 2 1 1.5 3.5 4.5 2.5 1.5 4.5 4.5 2.5 3.5 7.5 1.5-.5 1.5 13.5 4.5 2.5-5.5 6.5-16 3v-1l1.5-.5-2.5-.5-2 3-10-1-1.5.5-.5-2.5-8-1-4 2-1.5-5.5 6-3-3.5-.5-5.5 2.5 2.5 9.5 11-4 2.5 1.5-15.5 5.5-1-11-1.5-.5 2.5-5.5 8.5.5.5 1.5 14 4 1-6 9 6q10.51-3.49 8.5-19.5L132.5 243l-15-3-2.5.5-.5 3.5-.5-3.5 2.5-4.5 4-2Zm-.5 2v1h10l-10-1Zm-3 2-1 2h1v-2Zm32 21-1 5h1v-5Zm0 8v7l-1 2-6 2v1l7-2 2-3-2-7Zm-12 12v1h4l-4-1Z"/><path fill="#2C2F35" stroke="#2C2F35" stroke-width="3" d="m326.5 234 3.5 2.5q1.59 14.59-6 20v18l4.5 1.5 1.5-.5-3 5-23.5 24.5-2.5.5-37.5 39.5-1.5-.5-.5 1.5h-2l-1.5.5-.5 1.5v-3l12.5-11.5-1.5-3.5-16.5 14.5-.5 1.5-1.5.5 4 1-17.5.5v-1l67.5-65.5 5.5-11.5 2.5-.5 14.5-35.5ZM313 270l5 11 5 1 1-4-11-8Zm0 12-31 35 4 1 32-34-5-2Zm8 3v1h1l-1-1Zm-46 33-2 1-3 4 2 7 4-2 6-8-7-2Zm11 2v1h1l-1-1Zm-13 13-1 2h1v-2Zm-26 9-1 2-1 2h5l-2-2-1-2Zm110.5-108 1.5.5-1.5.5v-1Zm-187 1 9.5 5.5-6.5 8.5-11 3-.5-5.5 8.5-11.5Zm-.5 4-5 7 2 3 6-2 3-5-6-3Zm182.5-4h2l1.5.5-6 5-1.5 4.5-.5-2.5 2-3-.5-1.5 1.5-.5-.5-1.5 1.5.5.5-1.5Zm-341 3 6 8 6.5 3.5 1.5 2.5 6.5.5-2.5 7.5L14 246.5l-.5-2.5-1.5.5.5 1.5-6.5-2.5 2.5-3.5 1.5.5 1.5 3.5.5-1.5-.5-4.5Zm4.5 8v1h1l-1-1Zm134.5-8 5.5 8.5-1.5-.5-4.5-3.5.5-4.5Z"/><path fill="#2C2F35" stroke="#2C2F35" stroke-width="3" d="m169.5 241 3.5.5-1.5 4.5-4 1-.5-2.5 2.5-3.5Zm-122 5 12.5 1.5-1.5-.5-2 1-2-1-1 3-1.5.5-.5 1.5-6.5-4.5 2.5-1.5Zm1.5 1 4 2h1l-5-2Zm61.5 0 2.5 1.5-3.5.5 1-2Zm237 1 6.5 20.5-9.5 1.5-2.5-11.5 2.5-4.5 2 13 4 1v-1l-4.5-2.5 1.5-16.5Zm-317 1 .5 1.5h-1l.5-1.5Zm25 1 2.5 1.5-1.5-.5-1-1Zm52 0q9-1.5 10.5 4.5l2 4-1.5-.5-4.5-3.5-1.5-2.5-6.5-.5 1.5-1.5Zm-47 4 5.5 12.5-4-3-1-3v-2l-2-3 1.5-1.5Zm42 2 1 3 4 2 4.5 2.5-1.5.5h-2l-6.5-2.5.5-5.5Zm4.5 6v1h1l-1-1Zm-64.5-4 5.5.5-.5 5.5-3 1-7-2-5 1v-1l10-5Zm200 0 8.5.5-1.5 3.5-7 2-2.5-3.5 2.5-2.5Zm-86 4 17.5 11.5 1.5 2.5 4.5.5.5 11.5 3.5-1.5 11.5-16.5 4.5.5-14.5 20.5q-7.83 6.17-25 3l-16 6-.5-2.5 4-3 11.5-18.5 2.5-.5.5-2.5.5 2.5-14 19 4.5 1.5 8-4 21.5-1.5-20.5-.5-9 3-.5-2.5 6.5-9.5 5.5-4.5-3.5-6.5-3.5-2.5-1.5-5.5Zm38.5 10v3l1-2-1-1Zm-2 4-1 2h1v-2Zm-2 3-1 2h1v-2Zm-1 2-1 2h1v-2Zm-1 2-1 2h1v-2Zm-1 2-1 2h1v-2Zm-4 4v1h1l-1-1ZM38.5 271 57 282.5l2 7-1.5 2.5-15 2v-1l2.5-.5-3-1 .5-1.5 4.5-3.5-6.5-9.5-5.5-1.5 3.5-4.5Zm-1.5 3v1h5l-5-1Zm6 1 1 2h1l-2-2Zm3 2 1 2h1l-2-2Zm3 2 1 2h1l-2-2Zm3 2 2 8-8 2v1l10-3-1-5-3-3Zm16.5 1 3.5 2.5-2.5 3.5-3.5-2.5 2.5-3.5Zm51 4 1 2 10-1-1 4-8.5.5 9.5.5 2-1 2.5 1.5-1-2 4.5-2.5-.5 1.5 1 4-2.5.5h-2q-14.45 2.45-20.5-3.5l.5-2.5 4.5 1.5.5 1.5 1.5-.5-1.5-4.5Zm186 24 2 20 15.5 7.5-1.5 2.5-22 8h-27l-2.5-2.5 31.5-31.5 1.5.5 2.5-4.5Zm-3.5 6-1 2h1v-2Zm-1 2-25 27 3 1 10-1-9-1-2-1 23-23v-2Zm20 19v1h1l-1-1Zm-8 1-10 4v1l17-4-7-1Zm-15 5v1h1l-1-1Zm-153.5-3 2.5 7.5-2.5 4.5v-12Zm72 0 5.5 4.5-2.5 3.5-5.5-.5 2.5-7.5Zm-68 3 1.5 2.5-2 1 .5-3.5Zm76 6 8 5 27.5.5-4 1 2 1 .5 9.5 2.5.5-7.5 6.5q-20.06-.06-31 9l-.5-1.5 3-12-7-11 9.5-2.5q8.65 5.85 26 3l2.5-1.5-33.5-3.5-7.5 4.5q9.47 3.53 8 18l-7 10 2.5.5q11.35-11.15 34-11l9.5-7.5 1.5-3.5.5 1.5-6.5 9.5q-5.83 5.17-19 3l-28 12-.5-2.5 12-17-12-14 14.5-7.5Zm-133 11 5.5.5-2 4 1 3-3-2-1.5-5.5Zm26 0 2.5.5-2.5.5v-1Z"/><path fill="#2C2F35" stroke="#2C2F35" stroke-width="3" d="M98.5 363q24.76-3.26 35.5 7.5l-4.5 13.5-14 2-8-1-1.5.5.5-1.5 1.5-.5 6-13-2.5-3.5-5-1-11 6-.5-1.5 3.5-7.5Z"/><path fill="#2C2F35" stroke="#2C2F35" stroke-width="3" d="m134.5 366 3.5.5q2.23 15.73-6.5 20.5l-17 3-6.5-3.5 4.5-.5 10 2 10.5-5.5 3-12-1.5-4.5Zm-44 15 3.5 2.5-3 1 7 5-7.5.5-6.5-3.5-1-2 5.5-.5 1.5.5.5-3.5Zm52 4 1.5 10.5-9.5 12.5-1.5-.5-.5 2.5-1-2-1.5-.5 8-11-10-1 8-3-2-1 8.5-6.5Zm-3.5 5-3 2h4v3l2 1-1-5-2-1Zm2 6-1 4h1v-4Zm81.5 64 2.5 7.5-1.5 2.5-7.5-2.5 1.5.5 4.5-1.5.5-6.5Z"/><path fill="#2C2F35" stroke="#2C2F35" stroke-width="3" d="m226.5 466 .5 3.5-1.5 2.5-5 1v-1l5.5-2.5.5-3.5Z"/><path fill="#B04B13" stroke="#B04B13" stroke-width="3" d="m181.5 78 4 1 1.5-.5-7 24 3.5 5.5 2.5-.5 3.5-11.5 2.5-.5.5-13.5L208 95.5l2 4-.5 2.5-5.5.5-.5 8.5-9-15-2.5.5 6.5 17.5 5-2-2 3-10 5-15.5-13.5-2-11 7.5-17.5Z"/><path fill="#DE9213" stroke="#DE9213" stroke-width="3" d="m186.5 79 5.5 2.5.5 14.5 3.5 1.5 8 14-5.5 2.5-7-18-3.5 1.5-2.5 10.5-3.5-1.5-2-11 6.5-16.5Z"/><path fill="#5C6060" stroke="#5C6060" stroke-width="3" d="m266.5 78 3.5 2.5.5 1.5 3.5 1.5-4 1 2 5-5.5.5-2.5-9.5 2.5-2.5Zm28 16q7.66 4.84 5.5 19.5l-3.5 6.5-2.5 1.5 6 14-2.5.5-6.5-4.5-2-7 5-12-5.5-7.5-1.5.5-7-9 14-1 .5-1.5Z"/><path fill="#5C6060" stroke="#5C6060" stroke-width="3" d="M276.5 100q9.63 7.88 5.5 29.5l-2.5.5-24.5-22.5-3-6 1.5.5q15 1.5 21 12l2-14Zm-22 26 9.5 9.5-2.5 2.5-4.5-.5 1-4-4.5-1.5-1.5.5 2.5-6.5Zm12 12 33.5 20.5-2.5 3.5-9.5-.5-5.5-8.5-6-3-1 2-11.5-11.5 2.5-2.5Zm62 25-4.5 7.5 1.5 3.5q15.8-2.8 22.5 3.5l-8.5 20.5-8-6-13.5-2.5 6-8-3.5-1.5-14 16-.5-4.5 12-17-2-1 12.5-10.5Z"/><path fill="#5C6060" stroke="#5C6060" stroke-width="3" d="M277.5 164q9.08 6.92 28 4l8.5 5.5-2 1-21 23-15 29v14q-8.62 6.38-6 24-14.12 33.38-36 59l3.5.5 14.5-13.5.5 1.5 1.5.5-30.5 28.5q-.98-23.53-13.5-35.5v-10h1l5.5 8.5 15 8q23.21-13.79 26.5-47.5l-2.5-.5-6 12-9.5-12.5 1.5.5 9.5-2.5 1-3v-2l-1.5-4.5-16.5 1.5-.5 10.5-5.5-2.5q-3.25-12.25 2.5-15.5 19.25 3.25 25.5-6.5l7.5-15.5 3.5-1.5 3-5v-39l-5.5-7.5-5.5-2.5q13.41 1.91 18.5-4.5Zm.5 22-2 23 5 1 7-15-10-9Zm-149.5-12 23.5 17.5-2 1-.5 1.5-7-2-14 11-6.5-4.5-2-4 .5-2.5 5.5-1.5q-3.5-13 2.5-16.5Zm-64 17 1.5.5-1.5.5v-1Z"/><path fill="#5C6060" stroke="#5C6060" stroke-width="3" d="m305.5 199 .5 4.5-4.5 9.5-1.5-.5-.5-2.5-1.5-.5 7.5-10.5Zm-245 9 .5 1.5-2.5 3.5.5-1.5 1.5-3.5Zm284 2 3.5 2.5v9l-12 23-8.5 31.5-3.5-2.5v-15q7.12-5.88 6.5-19.5l4 1 1.5-4.5v-2l8.5-23.5Zm-287 4 .5 1.5-1.5 2.5-.5-1.5 1.5-2.5Zm237 1 5.5 3.5-5.5 7.5v-11Zm-239 4-.5 1.5-.5 1.5-.5-1.5 1.5-1.5Zm6 0-.5 1.5-.5 1.5-.5-1.5 1.5-1.5Zm232 10 .5 4.5-5.5 10.5-.5-4.5 5.5-10.5Zm65 6 1.5 32.5-3.5 2.5-8.5-15.5v-8l6.5-9.5 4-2Zm-77 30 .5 4.5q-5.08 16.92-17.5 26.5l-.5-1.5 17.5-29.5Zm31 17 5.5 2.5-33.5 33.5-2.5-2.5 30.5-33.5Zm0 24 5.5 2.5q-1.65 17.15 6 25-3.25 5.75-6.5-1.5l-11.5-4.5.5-18.5 6-3Zm-45 24 2.5 2.5-12.5 12.5-4 2-1.5-1.5 15.5-15.5Zm-135 4 11.5 4.5v19l-2.5 2.5-9.5-.5.5-25.5Zm-25 6 .5 1.5-5.5 8.5-1.5.5 2 3-4.5.5-2.5-2.5 11.5-11.5Zm-26 44 3 4 3.5 1.5-9.5 1.5.5-1.5 2.5-5.5Zm159 0 25.5.5-39.5 29.5 5.5-6.5 2-10-5.5-1.5h-2q-13.33-1.33-16 8l-1-2-3.5-.5 34.5-17.5Zm-149 6q15.26-1.76 21 6l25.5.5-9.5 11.5-20 2-28 28-2.5-2.5 21-21 9-17-16.5-7.5Zm21.5 15v1h1l-1-1Zm-35.5-13 .5 3.5-5.5 10.5-1-4-1.5-.5 7.5-9.5Z"/><path fill="#5C6060" stroke="#5C6060" stroke-width="3" d="m84.5 402 11.5 2.5L84.5 418l-1-4q-14.06-1.56-17 8l-.5-4.5 8.5-10.5 10-5Zm-4.5 8v1h3l-3-1Zm138.5 46 3.5 2.5-2.5 9.5-3.5-2.5 2.5-9.5Z"/><path fill="#89908F" stroke="#89908F" stroke-width="3" d="m270.5 84 11 6 1-2 11.5 5.5-.5 2.5q-15.39 1.89-21.5-5.5l-2-4 .5-2.5Zm-16 12 4.5.5-1 2 11.5 3.5.5-2.5-2.5-3.5 8.5 3.5q3 11.5-2.5 14.5-6.81-11.19-21.5-14.5l2.5-3.5Zm0 36 3.5 2.5-2.5 3.5-3.5-2.5 2.5-3.5Zm22 19 11.5 8.5-2.5.5-9.5-7.5.5-1.5Zm-22 17 11.5 5.5-8 1 2 5-2 1-.5 3.5-5.5-13.5 2.5-2.5Zm58 6 4.5.5-10.5 15.5-10.5 9.5-20 52v14l-18 28 2.5.5 4.5-1.5-12.5 17.5-16 14-2.5-.5q22.22-24.78 36-58v-13q8.29-6.71 6-24l10-21 26.5-33.5Zm-34 12 8.5 9.5-7.5 14.5-3.5-2.5v-19l2.5-2.5Zm-16 6 7.5 2.5q4.13 21.63-5.5 29.5l-.5-2.5-.5-5.5-1.5-.5 2-19-1.5-4.5Z"/><path fill="#89908F" stroke="#89908F" stroke-width="3" d="m305.5 193 .5 4.5-5.5 8.5-.5-2.5 5.5-10.5Zm-12 30 .5 4.5-5.5 10.5-.5-4.5 5.5-10.5Zm-81 11q20.72-2.22 30.5 6.5l-3 4 2.5.5 11-5-2 3-23.5 4.5 1.5 16.5 4.5-.5 2.5-11.5q12.25-3.25 15.5 2.5l-2.5 3.5-9.5 1.5q.08 12.42 8.5 16.5l3.5-1.5 3.5-10.5 2.5.5q-3.64 32.86-26.5 46.5L213 299.5l-3-6v-57l2.5-2.5Zm6.5 19-3 5v25l10 23h2v-29l-6-9-2-14-1-1Zm18 24q-6 7-3 23h3l9-11-2-1-6-10-1-1Zm50.5-36 .5 7.5-5.5 7.5-.5-4.5 5.5-10.5Zm-167 89 11.5 3.5-1.5 25.5-13.5-5.5 9-20-3.5-2.5-14 14-1.5-1.5 7.5-10.5 6-3Zm153 48 2.5 8.5-19.5 9.5 10-13 7-5Zm-193 12 3.5 1.5-1.5 4.5-4 2-.5-5.5 2.5-2.5Zm5 0 22.5 8.5Q97.31 420.31 78.5 434l-.5-2.5 6.5-12.5 3 1 8-11 4.5-2.5 2-5-3.5-4.5-13-7Zm143 6 5.5 2.5-9.5 15.5-2.5-6.5 6.5-11.5Zm-24 6 5.5.5-9.5 11.5-2.5-8.5 6.5-3.5Zm-133 1 2.5 5.5-8 7 5.5-12.5Z"/><path fill="#A5A8A8" stroke="#A5A8A8" stroke-width="3" d="m274.5 84 7.5 3.5-.5 2.5-7-6Zm-15 12q8.75-1.75 10.5 3.5l-.5 2.5-11.5-3.5 1.5-2.5Zm-1 78 8.5.5q5.17 5.83 3 19l-2.5-1.5-6.5-.5-3-10h1l2.5 4.5 2.5-.5-5.5-11.5Zm47 16 .5 2.5-9.5 17.5-2.5 1.5v11l-12 29v12L264.5 292l-4 2-2.5-.5 18-28v-14l6-10 6-26q5.17-16.33 17.5-25.5Zm-44 26 2.5.5-9.5 23.5-14 5-.5-1.5 6-5q2.63-16.37 15.5-22.5Zm-3.5 12-6 4 1 2 5-3v-3Zm-39.5 25 1.5.5 2 14 6 9v12l-1.5-.5-2.5-1.5-3.5-16.5-4 1-.5-13.5 2.5-4.5Zm18 24 1.5.5 5.5 10.5 2.5.5-9.5 11.5-2.5-.5q-3.21-15.71 2.5-22.5Zm-14 22 4 1 1.5-.5-.5 6.5-5.5-3.5.5-3.5Zm-100 32 3.5 2.5-9.5 20.5-4.5-.5 4.5-5.5 3.5-2.5-.5-3.5-11.5 8.5 1 3-4.5.5q-5.75-3.25 1.5-6.5l1.5-3.5 15-13Zm-39 59 17.5 9.5 1 3-5.5 7.5-1-2-1.5-.5 2-4-12.5-1.5-1.5.5 2-6-1-2 1-3-.5-1.5Zm-3 6-2 3-1-2 3-1Z"/><path fill="#4F6075" stroke="#4F6075" stroke-width="3" d="m148.5 115 1.5 4.5-2.5 4.5-13 2-2.5-3.5 16.5-7.5Zm-36 290 1.5.5-1.5.5v-1Zm-33 5 3.5.5-3.5.5v-1Z"/><path fill="#7C7B7B" stroke="#7C7B7B" stroke-width="3" d="m84.5 168 5.5 3.5-6.5 14.5-2.5-.5-3-11 2.5-4.5 4-2Zm-25 10 1.5 2.5-1 4 3 2 2 4-1.5-.5-9.5-7.5 1.5-2.5 4-2Zm255 2-5.5 6.5-.5 1.5-.5-1.5 6.5-6.5Zm-35 6 8.5 9.5-4 3 3-4-7.5-8.5Zm-10 30 .5 1.5-2 1 1.5-2.5Zm-3 6-2 3-1-2 3-1Zm11 3-.5 1.5-.5 1.5-.5-1.5 1.5-1.5Zm13 9 .5 1.5h-1l.5-1.5Zm-151 1 12.5 10.5-2 1-.5 1.5-9.5-7.5-.5-5.5Zm-18 6 10.5 8.5.5 2.5 3.5.5-8 6-1.5 3.5-6.5-19.5 1.5-1.5Zm150 8-.5 1.5-.5 1.5-.5-1.5 1.5-1.5Zm-238 3 7.5.5-2 5 .5 1.5-8 4-1.5-4.5 3.5-6.5Zm77 0 3.5 2.5 2 3-2 1-.5 1.5-5.5-4.5 2.5-3.5Zm130 13 1.5 2.5h-1l-.5-2.5Zm13 2-.5 1.5-.5 1.5-.5-1.5 1.5-1.5Zm-5 27-17 18-4.5-3.5 3.5 2.5 18-17Zm-35 6 4.5 3.5-1.5.5-3-4Zm38 9 1 2-15.5 12.5 14.5-14.5Zm-155 84 1.5.5-1.5.5v-1Zm137 9 .5 1.5-2 1 1.5-2.5Zm-161 4 2.5 2.5-8.5 8.5 7.5-8.5-1.5-2.5Zm159 0 .5 1.5-7 6 6.5-7.5Z"/><path fill="#25292F" stroke="#25292F" stroke-width="3" d="m252.5 108 .5 1.5h-1l.5-1.5Zm1 3 2.5 11.5-3.5 4.5-.5-1.5 2-12-.5-2.5Zm36 1 .5 4.5h-1l.5-4.5Zm-1 7 .5 1.5h-1l.5-1.5Zm12 1 13.5 22.5-7.5-4.5-5.5-1.5 4-2-4.5-14.5Zm4 3 3.5 6.5h-1l-2.5-6.5Zm-22 9 10.5 19.5-3-2-7.5-17.5Zm3 0 8.5 17.5h-1l-7.5-17.5Zm13 5 1.5.5-1.5.5v-1Zm-40 7 2.5 1.5-1.5-.5-1-1Zm-2 3 13.5 9.5-.5 2.5-12 1-3.5-9.5 2.5-3.5Zm.5 2 1 9 10-1-11-8Zm71.5 13 19.5 6.5 1 3h-1l-1.5-2.5-18-7Zm-238 6 2.5 1.5.5 1.5 2-1 8 9-9-8-4-3Zm-52 1 3.5 2.5-8 2-.5 3.5-.5-4.5 6-2-.5-1.5Zm5 3 1.5.5-1.5.5v-1Zm51 1 8.5 10.5-1 4 3-1-2 3 1.5 2.5-3-4-1.5 4.5 3.5 4.5-5-4-3.5.5 5-4 1-8-6.5-8.5Zm259 0 .5 1.5h-1l.5-1.5Zm-323 1 1.5 2.5-2-1 .5-1.5Zm-10 1 7.5 6.5 2 6-1.5.5-2.5-1.5-3.5-5.5-4 2-.5-3.5 2.5-4.5Zm85 5 1.5 2.5h-1l-.5-2.5Zm244 0 1.5.5-1.5.5v-1Zm-1 3 .5 1.5h-1l.5-1.5Zm-1 3 .5 1.5h-1l.5-1.5Zm-1 3 .5 2.5h-1l.5-2.5Zm-1 5 2.5 16.5h-1l-3-10 1.5-6.5Zm-255 1 3.5 2.5-1.5.5-2-3Zm236 7 1.5.5-1.5.5v-1Zm-209 8 4.5 5.5-2-1-2.5-4.5Zm-117 7 2.5 1.5-.5 3.5-2.5-.5.5-4.5Zm138 0 1.5 2.5-1 2 4 2-3-1-2.5 3.5-13-4 2 3 1.5.5-1.5.5-4.5-3.5 1.5-2.5 14 4 .5-2.5.5-4.5Zm-64 4 3.5.5-2.5.5-1.5.5.5 1.5-1.5-.5-.5 1.5-.5-1.5 2.5-2.5Zm255 2 .5 2.5h-1l.5-2.5Zm-328 2 2.5.5-2.5.5v-1Zm83 1 6.5 2.5-1.5 5.5-3-1h-2l-6.5-1.5-1-3 7-1 .5-1.5Zm.5 2 4 4v-1l-4-3Zm44.5-2 2.5 1.5-1.5.5-1-2Zm218 0 .5 2.5-4.5 8.5-.5-1.5 4.5-9.5Zm-342 4 5.5 6.5h-1L5.5 230Zm5 0 4.5 3.5-2.5.5-1.5-.5-.5-3.5Zm296 0 .5 2.5h-1l.5-2.5Zm47 4 3.5.5-3.5 1.5v-2Zm-223 1 1.5.5-13.5 2.5 1-2 11-1Zm221 0 .5 1.5-2.5 1.5v-1l1.5-.5.5-1.5Zm-236 1 1.5 3.5-1.5 3.5-1.5-4.5 1.5-2.5Zm.5 2-1 2h1v-2Zm33.5-2 4.5 5.5-3-2-1.5-3.5Zm24 0 4 3 1.5-.5-2.5 1.5-3-4Zm-4 3 6.5 2.5-3.5 5.5-6 2-1.5-3.5 4.5-6.5Zm.5 2-3 4 1 2 4-1 1-4-3-1Zm178.5-2 1.5.5-1.5 2.5v-3Zm-7 1 .5 1.5h-1l.5-1.5Zm-331 1 3.5 5.5h-1l-2.5-5.5Zm128 2 11.5 14.5h-1l-.5-1.5-1.5.5-3.5-7.5-4.5-2.5-.5-3.5Zm202 0 .5 1.5h-1l.5-1.5Zm-296 3 2.5.5-2.5.5v-1Zm297 0 .5 1.5-2.5 1.5-.5-1.5h2l.5-1.5Zm-293 1 4.5.5-4.5.5v-1Zm6 0 1.5.5-1.5.5v-1Zm55 0v2l3.5-.5-.5-1.5 5.5 6.5-4.5-3.5-9 3 5-6Zm229 3 1.5.5-3.5 6.5-.5-1.5 2.5-5.5Zm7 1 2 15 4.5 2.5-1.5-.5-5.5-2.5-1-12 1.5-2.5Zm-2 4-.5 1.5-.5 1.5-.5-1.5 1.5-1.5Zm-240 2 .5 1.5h-1l.5-1.5Zm232 1 .5 1.5h-1l.5-1.5Zm-187 1 .5 4.5h-1l.5-4.5Zm-44 1 3.5 2.5-1.5.5-2-3Zm-41 1 2.5 1.5-.5 3.5-2-5Zm271 0 .5 1.5h-1l.5-1.5Zm-297 2 5.5.5 1 2-2.5-1.5-4-1Zm298 1 .5 1.5-2.5 1.5-.5-1.5h2l.5-1.5Zm-187 3 2.5 6.5-2.5 3.5-12 3v-1l11.5-3.5 1-2-.5-6.5Zm141 1 .5 3.5h-1l.5-3.5Zm43 0 1.5.5-1.5 2.5v-3Zm-39 1 .5 1.5h-1l.5-1.5Zm60 0 1.5.5-1.5.5v-1Zm-194 1 5.5 4.5-4.5 6.5-3.5 2.5-4 9 2.5.5q9-6 27-3l4.5-3.5 7.5-12.5 3.5-.5-5 3-8.5 13.5-23 2-11 4-.5-2.5 13-20-3.5-3.5Zm-119 1 2 4 12.5 8.5 1 5-14.5 5.5-.5-1.5 13-4-3.5-7.5-15-7-1 2-2 1 4-5v2l5.5-.5-1.5-2.5Zm71 0-1 2-7 2 1-2 7-2Zm-65 4 4.5 2.5-1.5-.5-3-2Zm107 0-4 5-5 2v-1l9-6Z"/><path fill="#25292F" stroke="#25292F" stroke-width="3" d="m158.5 276-5.5 6.5-.5 1.5-.5-1.5 6.5-6.5Zm171 0-.5 1.5-.5 1.5-.5-1.5 1.5-1.5Zm-219 3 8.5 1.5-.5 1.5-5-2-8 4 .5-1.5.5-1.5 4-2Zm83 0-.5 1.5-2.5 4.5.5-1.5 2.5-4.5Zm-61 1 2.5.5-3 2-.5 1.5-.5-1.5 1.5-2.5Z"/><path fill="#25292F" stroke="#25292F" stroke-width="3" d="m112.5 282-1 2-7 3v-1l8-4Zm214 0-63 64-1.5-.5 11.5-13.5-.5 1.5.5 1.5 13-14-2 1 1-2 34-33 7-5Zm-269 1 1.5 2.5h-1l-.5-2.5Zm62 2-.5 1.5 2.5 4.5 10.5-2.5-1-2h1l.5 1.5 3.5.5-1 3 1 2-3.5-2.5-11 1-2.5-1.5-2-3 2.5-2.5Zm32 0-.5 1.5-1.5 3.5-.5-1.5 2.5-3.5Zm-92 2 .5 1.5h-1l.5-1.5Zm42 0 1.5.5-1.5.5v-1Zm87 1-3 4-5 2v-1l8-5Zm-41 5 .5 1.5-3.5 2.5 3-4Zm13 1-1 2-7 3v-1l8-4Zm114 6-5 6-2.5-.5 7.5-5.5Zm32 8-2.5 3.5-1.5 3.5-31.5 28.5 35.5-35.5Zm-5 8 .5 1.5-24 25 11 2-10.5 1.5-2.5-1.5 25.5-28.5Zm22 19 .5 1.5-2 1 1 2h-1l-.5-1.5-19 5v-1l21-7Zm-100 6 2.5.5-2.5.5v-1Zm24 0-.5 1.5 1.5 2.5 3.5 1.5-1.5.5-5.5-1.5 2.5-4.5Zm-99 1-.5 1.5 1 4-2-1 1.5-4.5Zm80 0 4.5.5-4.5.5v-1Zm69 1 1.5.5-1.5.5v-1Zm-37 2 .5 1.5-2.5 1.5-.5-1.5 2.5-1.5Zm-29 1 2.5 1.5-1.5.5-1-2Zm23 1 2.5.5-2.5.5v-1Zm-32 6q12.64 5.36 33 3l3-1v1l-24 2-12-3-4.5 2.5q8.36 4.14 7 18l-3 6 1.5.5q10.23-9.27 30-9l9-8 1 2-1.5-.5 1 2-6.5 4.5q-24.06 2.44-40 13l-.5-1.5q8.53-2.97 7-16l-8-11 7.5-4.5Zm-127 9 2.5.5-3.5 9.5-2 1 2.5-3.5-2-3 3 1-.5-5.5Zm24 1 1.5.5-1.5.5v-1Zm3 1 1.5.5-1.5.5v-1Zm10 4 2.5.5 1 5-5.5 11.5-13 3-9-2-1.5.5.5-1.5 17 1 6.5-3.5 3-12-1.5-2.5Z"/><path fill="#25292F" stroke="#25292F" stroke-width="3" d="m220.5 368 1.5 2.5-2-1 .5-1.5Zm36 7-1 2-3 1v-1l4-2Zm-121 7 .5 1.5-9.5 6.5v-1l8.5-5.5.5-1.5Zm-32 2 2.5 1.5-1.5-.5-1-1Zm35 2 1.5.5-6 5 1.5.5 5-2 1.5 5.5h-1l-1.5-3.5-8 2 7-8Zm-27 2 2.5 1.5-1.5.5-1-2Zm107 0-1 2-1.5-.5 2.5-1.5Zm-78 9 1.5 3.5h-3l1.5-3.5Zm-2 5 2.5.5-9 8 6.5-8.5Z"/><path fill="#404036" stroke="#404036" stroke-width="3" d="m36.5 174 2 1 3.5 1.5 2 3-2 1-.5 2.5-1-2-1.5 4.5 2 1 1.5 4.5 3-1 1 2 1.5-.5-1-2 2-1-4-2 3-1 .5-1.5 6.5 7.5-1 3 5 3-10.5.5-10.5-5.5-2-4 .5-7.5 2 4 .5-4.5-3-5 .5-1.5ZM50 187v1h1l-1-1Zm-2.5-9 2.5 1.5-1.5.5-1-2Zm6 0 1.5.5-2.5 1.5 1-2Zm18 8 8.5 5.5-9 2 1 2-3.5 2.5-1-2 1.5-.5-1-3 2-1-.5-1.5 2.5-.5-.5-3.5Zm-7 6 1.5.5-1.5.5v-1Zm24 9 1.5.5.5 2.5 5-2 2.5 7.5-3 2 3 4-2.5 1.5-5.5.5-.5-1.5-4.5.5-.5 1.5-10-6-.5 1.5 4 5-4-3-1-3 .5-1.5-1.5-.5 1.5-.5 6 4 5.5-8.5-2-1 1.5-2.5 3 1 1-2Zm5.5 6-1 2h1v-2Zm1 2-1 2h1v-2Zm-28.5 8 2 1 2-1 1.5 4.5-8.5 16.5-5 2 1.5-2.5-1.5-7.5-3.5-1.5 5.5-1.5 3.5-1.5 2.5-8.5Zm-36 21 4.5 5.5-3.5 5.5-1.5.5-.5 2.5-2.5-.5q5.61-2.89 3.5-13.5Zm-18 2 3.5.5 2.5 3.5 3.5 1.5-2 1 .5 1.5-8-8Zm45 7 2.5 1.5-1 7 9 14-5.5.5-2-4-2.5-1.5h2l-3.5-8.5-3.5-1.5 1-2-2-1 .5-1.5 5-3Zm-1.5 3v1h1l-1-1Zm-30.5-2 1.5.5-1.5.5v-1Zm23 10 2.5 5.5.5 2.5h4l2.5.5-3 1 1.5 2.5-13.5-1.5 2.5-4.5 2.5-.5.5-5.5Z"/><path fill="#4F4F40" stroke="#4F4F40" stroke-width="3" d="m40.5 174 7.5.5-1 4 5.5 1.5 1.5-.5 2 6-2 1 .5 1.5h-4l-3.5 1.5 1 2-1.5.5-1-2-1.5.5.5 1.5-2.5-1.5-1.5-4.5-2.5-1.5-2-6 3 2 .5 4.5 1-4 3 5 5 2 2.5-1.5-5.5-6.5-3.5-2.5-1.5-3.5Zm-22 12 3.5.5-8 6L5.5 212 0 209.5l.5-5.5 4.5-2.5 7.5-12.5 6-3Zm54 6 1.5.5-2.5 1.5 1-2Zm4 0 12.5 8.5-1.5 2.5-3-1-1.5.5-6.5-10.5Zm-16 3 8 3 3-2 .5 8.5-1.5-.5-4 1h-2l-4.5 3.5-6 16 5 3-5 1-.5 3.5-4.5-11.5 8.5-16.5 2.5-1.5-1-4 1.5-3.5Zm20 9 4.5 1.5-5.5 8.5-1.5.5 6.5 4.5 1-3 4.5.5-.5 2.5-8 3-8.5-10.5 3-2 1.5-2.5 2.5-1.5.5-1.5Zm-3.5 9v1h1l-1-1Z"/><path fill="#4F4F40" stroke="#4F4F40" stroke-width="3" d="m65.5 211 1 5 4.5.5-3.5 1.5-1.5-.5-4.5 10.5-1.5-5.5 5.5-11.5Zm-53 23q12.42-1.93 17.5 3.5l-.5 3.5-1-2-10.5 1.5 1 3-2 1-1-3-.5-1.5-3.5-.5.5-5.5Zm10 11 6 1 1.5-.5-3.5 6.5-3-4-3.5-1.5 2.5-1.5Zm3.5 3v1h1l-1-1Zm24.5 4 3.5.5-1 2 4 2 2 4h-1l-1.5-2.5-2.5.5 1.5 5.5 3 1 1.5-.5-5 2 7 3-4.5.5-7.5-5.5 1-2-3-8 2.5-2.5Zm.5 1v1h1l-1-1Zm-5.5 4 1.5.5-1.5.5v-1Z"/><path fill="#2A2D2A" stroke="#2A2D2A" stroke-width="3" d="m215.5 98 6.5 7.5h-1l-5.5-7.5Zm-162 74 1 2 1.5.5-1.5 3.5-4 2-2.5-3.5 4-1 1.5-3.5Zm-9 1 1.5.5-1.5.5v-1Zm-10 3 1.5 8.5h-1l-.5-8.5Zm-13 5 2.5 1.5 2 3-9.5.5 3-4 2-1Zm48 7 2.5.5-2.5.5v-1Zm-1 16 3.5 2.5 6.5 14.5 1.5.5-1.5.5-4-1v1l1.5.5-2.5 1.5-2.5-1.5 2.5-3.5 2.5-.5-4-1-.5-1.5-5.5-.5 2.5-11.5Zm-68 6 5 3 1.5-.5 7 15-2 1-1 5 1 4h-1L5.5 230 0 227.5l1.5-6.5 1.5.5-.5-3.5-2.5-1.5.5-2.5 1.5-.5-2-1 .5-2.5ZM7 220l-1 2h1v-2Zm-5 5v1h2l-2-1Zm94.5-15 5.5 3.5-.5 2.5-5.5-3.5.5-2.5Zm-4 6 3.5 2.5-1.5 2.5-8 1v-1l3.5-1.5 2.5-3.5Zm-38 12 5.5 3.5-2 4h2l-3.5 4.5-4.5-.5 2.5-11.5Zm-44 11 .5 1.5h-1l.5-1.5Zm3 5 3.5 2.5-1.5.5-2-3Zm39 4 1.5.5-1.5.5v-1Zm8 9 1.5 2.5-2-1 .5-1.5Zm171 86 1.5.5-1.5.5v-1Z"/><path fill="#78A16C" stroke="#78A16C" stroke-width="3" d="m59.5 170 .5 7.5-5.5 3.5.5-1.5 4.5-9.5Zm70 100 6 5 4.5-3.5-5.5 4.5-5-6Z"/><path fill="#6E6D4F" stroke="#6E6D4F" stroke-width="3" d="m42.5 180 5.5 3.5-.5 2.5-5.5-2.5.5-3.5Zm32 12 9.5 11.5-9.5 6.5q-5.75-3.25-2.5-15.5l2.5-2.5Zm-9 12 .5 6.5-6.5 17.5-5.5-3.5 9.5-19.5 2-1Zm-17 17 .5 1.5h-1l.5-1.5Zm-30 19 11.5 2.5-2.5 3.5-9.5-3.5.5-2.5Zm36 18 2.5.5 2 5-2.5.5-2-6Z"/><path fill="#4A4B4E" stroke="#4A4B4E" stroke-width="3" d="m288.5 125 .5 1.5h-1l.5-1.5Zm-199 50 .5 5.5-1.5 6.5-2.5.5 6.5 2.5.5-1.5-3-4 2.5 1.5 3.5.5-3.5 10.5-10-11 1.5-.5 5.5-10.5Zm-35 11 9.5 5.5 1 4-2.5.5-2.5-1.5-2.5-3.5-4.5-3.5 1.5-1.5Zm60 18 23.5 8.5-.5 8.5-23.5-14.5.5-2.5Zm17.5 10v2h2l-2-2Zm2.5 20 15.5 3.5-1 3 .5 1.5-11-7 1 5-1.5.5-.5 1.5-5.5-4.5 2.5-3.5Zm-17 6 2 1 6-1 9.5 6.5.5 1.5 4.5 3.5-7.5.5-7-10-5-1-1.5 5.5.5 1.5-4.5-3.5 2.5-4.5Zm1.5 2-1 3h1v-3Zm-76.5 5 5.5 2.5 1 2-2.5.5-2-1 1 2 2.5 1.5-4 2 .5 1.5-4.5-.5 2-5v-2l.5-3.5Zm63 5 3.5.5-2 1 2.5 4.5 4.5 3.5 1 2-1.5-.5-4-3-5.5-3.5 1.5-4.5Zm1.5 4-1 2h1v-2Zm18.5 4 2.5 9.5-2 1-.5 1.5-2.5-1.5-.5-2.5-2.5 4.5 6 1-.5 2.5-13.5-5.5 12-7 1.5-3.5Zm61 10 7.5.5-11.5 17.5-2.5-.5-.5-11.5-1.5-.5 8.5-5.5Zm.5 5-1 2 2-1-1-1Zm-5 2 1 3 3-1v-2l-2 1-2-1Zm-148.5-1q12.25-1.25 13.5 8.5l-6.5 7.5-7.5-4.5-2-7 2.5-4.5Zm3.5 3v1h2l-2-1Zm-1 1-1 5h1v-5Zm4 0 3 7v-4l-3-3Zm-1 7v1h3l-3-1Zm81.5-5 10.5 2.5-2.5 3.5-8.5-.5.5-5.5Zm141 72 2.5 8.5-5.5 3.5-.5-8.5 3.5-3.5Zm-155 13 5.5 1.5 1 5-5.5 10.5-11.5.5-.5 1.5-3.5-1.5 4-1-6-3 3.5-8.5 13-5Zm.5 2-5 2-1 2 8-2 1 5 1-4-4-3Zm-8 4v1h1l-1-1Zm10 3-2 3 2-1v-2Zm-13 3v2h9l-9-2Zm10 0v1h1l-1-1Z"/><path fill="#C1C2C2" stroke="#C1C2C2" stroke-width="3" d="m258.5 180 5.5 3.5-.5 2.5-3.5-1.5-1.5-4.5Zm-1 48 .5 2.5-5.5 3.5-.5-2.5 5.5-3.5Zm-40 42 4.5 1.5q-2.62 12.63 3.5 16.5l2.5 1.5-1.5 10.5-4.5-1.5-6-17v-10l1.5-1.5Z"/><path fill="#53FB6D" stroke="#53FB6D" stroke-width="3" d="m23.5 186 10.5 5.5 5 6-3.5-.5-17.5-5.5 1.5-3.5 4-2Zm-3 12 9.5 2.5-2.5 3.5-9.5-.5 2.5-5.5Zm12 6 9.5 2.5-9.5 3.5-2.5-3.5 2.5-2.5Zm21 4 .5 2.5-6 12 6 14-5.5 3.5-3.5-1.5 3-2-1.5-3.5-2.5-.5 1-3-3-8 3-5-.5-1.5 9-7Zm-41 2q15.39-1.89 21.5 5.5l1.5 4.5-4-3-.5 4.5 2.5 4.5 7.5 4.5 1 5-2.5.5L12 224.5l.5-4.5 15 3 1.5-2.5-1-4 1.5.5 1.5-.5-5.5-2.5-1 2-12.5-3.5.5-2.5Z"/><path fill="#8FFBA1" stroke="#8FFBA1" stroke-width="3" d="m17.5 190 1 2 15.5 5.5 1.5 3.5 1-2 2.5 4.5-8.5.5-2-6-10.5 1.5.5 4.5 1.5.5-2 1-.5-1.5-3-1-1.5 3.5 3 1-4 3-.5 1.5-4.5-3.5L17.5 190Zm133 56 4.5 1.5-.5 3.5-3.5-.5-.5-4.5Zm-12 6 2.5.5 3 11-8.5 11.5-6.5-5.5-2-7 5.5-7.5 6-3Zm-.5 5 1 2v-1l-1-1Zm-6 4-1 4h1v-4Zm7 2-1 2h1v-2Zm-1 2-1 2h1v-2Zm-3 3v1h1l-1-1Zm-20.5-10 4.5 1.5-.5 3.5-3.5-.5-.5-4.5Zm25 31 3.5.5-.5 3.5-3.5-.5.5-3.5Z"/><path fill="#33FB51" stroke="#33FB51" stroke-width="3" d="M34.5 191q8.62 8.38 25.5 8.5l-1.5 4.5q-14.72 1.72-20.5-5.5l-4-6 .5-1.5Z"/><path fill="#87FB9C" stroke="#87FB9C" stroke-width="3" d="M34.5 197q6.13 8.37 21.5 7.5l-1.5 3.5-8 6-10 2q-7.03-7.97-23.5-6.5l3-2-3-1 1.5-3.5 3.5 1.5.5 1.5 11-3 .5 2.5 1.5 4.5 10.5-3.5-1.5-2.5-2.5-1.5-1.5-3.5-1 2-1-4Zm-28 12 17.5 8.5-1.5 4.5-10-3-1.5.5L6.5 209Zm149 39 .5 1.5h-1l.5-1.5Zm-3 3 1.5.5-1.5.5v-1Zm-15 6 1.5.5-.5 1.5-1-2Zm-18 3 .5 1.5h-1l.5-1.5Zm12 1 .5 3.5h-1l.5-3.5Zm-15 2 1.5.5-1.5.5v-1Zm10 0 .5 1.5h-1l.5-1.5Zm12 0 .5 1.5-3.5 4.5-3.5-2.5 2.5 1.5 2.5-1.5 1.5-3.5Zm2 25 1.5.5-1.5.5v-1Zm-2 2 .5 1.5h-1l.5-1.5Zm5 0 .5 1.5h-1l.5-1.5Zm-3 3 1.5.5-1.5.5v-1Z"/><path fill="#840E1F" stroke="#840E1F" stroke-width="3" d="m327.5 204 2.5 12.5-6 9 2 1 6 7-2.5 1.5-4-1-13.5 35.5 8 6-2 1-.5 1.5-6-8-3.5 1.5-4 9-65.5 65.5-3 1-1.5-1.5 45-45 15-31-6-9 12-4 12-26-2-1-6.5-7.5-3.5-.5-1-5 1.5-2.5 16 8q1.88-12.62 11-18Z"/><path fill="#840E1F" stroke="#840E1F" stroke-width="3" d="m263.5 301 .5 5.5-3.5 4.5-5 1 6.5-7.5 1.5-3.5Zm12 17 3.5.5-9 8 3.5-7.5 2-1Z"/><path fill="#EB2029" stroke="#EB2029" stroke-width="3" d="m296.5 210 3.5.5-.5 5.5-5.5-2.5 2.5-3.5Zm34 24 5.5 2.5-2.5 3.5-3.5-2.5.5-3.5Zm-45 18 2.5.5-5.5 7.5-.5-2.5 3.5-5.5Zm33 24 5.5 2.5-2.5 3.5-3.5-2.5.5-3.5Zm-57 24 2.5.5-9.5 11.5-2.5-.5 9.5-11.5Zm18 18 1.5 2.5-6.5 7.5-3 1-1.5-1.5 9.5-9.5Z"/><path fill="#65FB7E" stroke="#65FB7E" stroke-width="3" d="m40.5 207-1 2-3 1v-1l4-2Zm13 0 1 2-7.5 4.5 6.5-6.5Zm-29 3 2.5 1.5-1.5-.5-1-1Zm-9 4 2.5 1.5-1.5.5-1-2Zm10 0 7 3 1-3 8 2 4-2v1l-1.5.5v2l-2 5 3 9-.5 1.5 3.5 1.5-1.5 3.5-4.5-1.5-2.5-7.5-8.5-5.5 2-4-4.5-3.5-.5 3.5 1 2-3.5 1.5-2.5-1.5 1-4-.5-1.5 1.5-.5.5-1.5Zm-13 5 2 3-3.5-1.5 1.5-1.5Z"/><path fill="#404146" stroke="#404146" stroke-width="3" d="m293.5 113 .5 1.5h-1l.5-1.5Zm-204 68 3.5 4.5h-2l2 4-3.5.5-3.5-2.5 3-1 .5-5.5Zm-37 7 7.5 5.5-.5 1.5-7-7Zm13 2 2.5 5.5-2.5.5-.5-2.5 1-2-.5-1.5Zm28 17 2.5 4.5-2-1-.5-3.5Zm31 5 9.5 7.5-1.5.5-8-8Zm7 2 2.5 1.5-2.5.5v-2Zm-57 14 3.5 2.5-2.5 3.5-3.5-2.5 2.5-3.5Zm44 14 .5 2.5h-1l.5-2.5Zm12 0 10.5 9.5-4.5-3.5-1.5-.5-.5-1.5-4-4Zm-86 9 4 1 1.5-.5 1 2-2.5.5-4-3Zm1 4 2.5.5 1 2-1.5.5-3-1-1.5.5 2.5-2.5Zm58 0 1.5 2.5-2-1 .5-1.5Zm3 1 .5 1.5h-1l.5-1.5Zm3 4 4.5 3.5-1.5.5-3.5-2.5.5-1.5Zm-51 6 3.5 1.5-1.5-.5-2-1Zm64 2 2 4 1.5.5-5.5.5-.5-1.5 2.5-3.5Zm72 2-5.5 6.5-.5 1.5-1-2-3 4-3.5-1.5.5-1.5 2 1 2.5-1.5.5-1.5 2-1 6-4Zm-77 4 2.5 1.5-1.5.5-1-2Zm-81 5 6.5 3.5-1.5 5.5-6.5-3.5 1.5-5.5Zm.5 1-1 5 6 2v-3l-5-4Zm150.5-1-.5 1.5-1.5 2.5.5-1.5 1.5-2.5Zm-157 2 .5 1.5h-1l.5-1.5Zm99 1 2.5 3.5-3 2 2-3-1.5-2.5Zm-88 9-1 2-1.5-.5 2.5-1.5Zm66 75 1.5.5-1.5.5v-1Zm-3 1 1.5.5-6.5 3.5 1-2 4-2Zm2 2 4.5 2.5-4.5 8.5-11 1-1.5-2.5 2.5 1.5 10.5-1.5 2-7-4.5-.5-9 6 3-4 8-4Zm7 2 .5 1.5h-1l.5-1.5Zm-2 5 .5 1.5-4 3 3.5-4.5Z"/><path fill="#1F2E38" stroke="#1F2E38" stroke-width="3" d="m188.5 68 .5 1.5h-1l.5-1.5Zm1 4 .5 1.5h-1l.5-1.5Zm-140 99 1.5.5-1.5.5v-1Zm71 44 2.5 5.5-1.5.5-1-6Zm-36 13 4.5 2.5-2.5.5-2-3Zm-6 4 6.5 1.5-6.5 1.5v-3Zm105 2 2.5 5.5-5.5 2.5-1-2-1.5-.5 5.5-5.5Zm-149 7 1.5 2.5-2 1 1-2-.5-1.5Zm28 6 .5 1.5h-1l.5-1.5Zm0 10 2 3 1.5.5-2.5.5-1-4Zm97 12 4.5 3.5-1.5-.5-3-3Zm35 3 1.5.5-.5 1.5-1.5-.5.5-1.5Zm-92 2 2.5 1.5 1 7-2 1-1.5-9.5Zm35 58 1.5.5-1.5.5v-1Zm10 19 .5 1.5h-1l.5-1.5Zm-49 7q22-2.5 32 7l4-1 .5 1.5-.5 2.5-22-6-8 1h-2l-6.5-1.5.5-1.5-1.5-.5 3.5-1.5Zm19.5 2v1h2l-2-1Zm18.5 3 1.5.5-1.5.5v-1Zm-3 44 .5 1.5h-1l.5-1.5Zm89 52 5.5 10.5-2.5 3.5-5 1-3.5-2.5-1-3 1.5.5 6 1 1.5-5.5-2.5-5.5Zm4.5 7-1 4h1v-4Zm-1 4-1 2h1v-2Zm-5 2v1h3l-3-1Z"/><path fill="#50798C" stroke="#50798C" stroke-width="3" d="m67.5 240-.5 1.5 6.5 9.5 1.5.5 3 6-2.5.5-4.5-3.5q-6.59-2.41-5-13l1.5-1.5Z"/><path fill="#C5C7C8" stroke="#C5C7C8" stroke-width="3" d="m118.5 343 1.5.5-9.5 10.5q-7-4.5 4-9l4-2Zm-37 53 2.5.5-3 5 .5 1.5-8 4 .5-1.5 3.5-7.5 4-2Zm12 12 1.5.5-7.5 10.5-2.5-.5 8.5-10.5Z"/></svg>