<svg viewBox="0 0 552 552" xmlns="http://www.w3.org/2000/svg"><path fill="#8D4728" stroke="#8D4728" stroke-width="3" d="M.5 0 6 .5 3.5 6 0 5.5.5 0Zm273 84 2.5 6.5-1.5-.5-4 1 .5-1.5 2.5-5.5Zm-10 15 1 3 5-2 .5 1.5-3.5 6.5-14 6h-10v-1l18.5-10.5 2.5-3.5Zm50 21q16.37 2.63 22.5 15.5v15l11 19-4 14 8 14-22.5.5 2.5-3.5.5-1.5 2.5-1.5.5-1.5 1.5-.5-.5-1.5-1.5-.5-10-14q10.41-10.59 6-36L318.5 123l-5-3Zm-122 22 .5 2.5-11.5 28.5-.5-10.5 11.5-20.5Zm-12 33 .5 11.5-5.5 7.5-.5-7.5 5.5-11.5Zm106 29 4.5.5-7.5 9.5-.5-3.5 3.5-6.5Zm44 0 12.5 2.5-3.5 9.5-11.5-5.5 3-1-.5-5.5Zm-119 4 5.5 4.5-2.5 3.5-5.5-.5 2.5-7.5Zm42 9 5.5 13.5-5.5 3.5-1.5-5.5 1.5-11.5Zm29 0 .5 4.5-5.5 10.5-.5-4.5 5.5-10.5Zm23 0 1.5 2.5-6.5 10.5-3.5-5.5 4.5-5.5 4-2Zm-107 2 2.5 8.5-2.5.5-11.5-1.5 1.5-4.5 10-3Zm156 9 6.5 2.5v16l-18 40q1.5 13.5-6 18v14q-12.04 33.96-38.5 53.5l-1.5.5-3.5 10.5-4.5-2.5-.5-2.5-10.5-.5 16-9 5.5-10.5 1.5-.5-.5-1.5-1.5-.5-2.5-3.5-6.5-3.5 5-1 .5-2.5 2 3 3.5-.5q-1.78-15.78 5.5-22.5l1.5 3.5-1 7 10.5.5 7.5-17.5v-13l9-11 3-13 18-35v-11l-6.5-1.5-15 6v-1l21-11Zm-190 6 2.5 1.5 2.5 14.5 5 2 .5-9.5-3-2 3-1 .5-4.5 23.5 46.5v26l19 38 21.5 22.5 18.5 9.5-11 1-.5 2.5-3-4-32.5-31.5-1.5-3.5-4 1-14-31-8.5 1.5-1.5 3.5-1-5-1.5-.5 2.5-6.5 4 1 1.5-11.5-2-1 2-10-9-2q5.63-5.37 3-19l-5.5-7.5-6-3-1 4q-7.22-5.78-5.5-20.5l1.5-1.5Zm124 4 1 2 3.5 1.5 2 35-1.5-.5-24.5 16.5-.5 1.5-3.5 1.5 1.5 4.5 15 5 13-15 .5 14.5-18.5 1.5-19.5-11.5 2-1 .5-1.5 4 2 3-4 10.5-5.5.5-17.5 5 3q-4.07-23.07 6-32Zm-41 44 7.5 5.5-2 1-.5 1.5-5-8Z"/><path fill="#8D4728" stroke="#8D4728" stroke-width="3" d="m211.5 354 3.5 1.5.5 1.5 35.5 34.5 24.5 25.5 33.5 14.5 3.5 4.5 8 2 3.5-2.5.5 26.5 1.5.5-2 23-17.5 26.5-.5-13.5 5.5-10.5 4.5-2.5 2-30 5-11-17-2-1.5-10.5-27-2-23.5-23.5Q244 382 222.5 369l-2.5-1.5-.5-1.5-3.5 1.5 6 16v20q8.62 6.38 6 24l6 10v20l6 11v27l2 2-4.5.5q-7.5-4-3.5-19.5l-6-11v-19q-8.29-6.71-6-24l-6-11v-19l-6-11v-28l1.5-1.5Zm-38 5 .5 7.5-1.5-.5-10 3 3.5-4.5 1.5-3.5 3-1 3-1Zm-11 46 2.5 1.5-1.5.5-1-2Z"/><path fill="#401C0E" stroke="#401C0E" stroke-width="3" d="m239.5 54 60.5 1.5 8.5 10.5 3.5 2.5 5 13-16 12 4 6-5.5 8.5-5.5 3.5 1 2-1.5-.5-5.5-2.5.5-2.5 5.5-1.5-.5-3.5-9-1-2.5 4.5.5 1.5-3.5-.5-4.5-23.5-2.5 1.5-2 13-3.5 3.5-2.5-.5-1.5-5.5-13.5 11.5 2 1-36.5 12.5-.5-1.5 2-9-3.5-1.5-7 5-.5-2.5 4-6-10-6q11.25-8.75 13.5-26.5l6 4 5-15 16-8Zm.5 6-5 4 7 12 3 1 6-1-2-3 9-1-1-5 5-1 2 3v21h3l12-17 6 4 3-4-2-10-4-3h-42Zm43 24-1 4 4 2 2-3-5-3Zm-59 6-2 5 5 1 1-4-4-2Zm13 1-3 5 3 6 3-2-2-8-1-1Zm-12 11-3 4q3 5 6-1l-3-3Zm88.5-48 4.5 2.5-2.5 3.5-3.5-1.5 1.5-4.5Zm13 6 3.5 2.5-.5 3.5-5.5-1.5 2.5-4.5Zm-25 54 15.5 5.5-5.5.5-10-6Zm17 0 5.5 2.5-.5 6.5-3.5-2.5 3-1-5-3 .5-2.5Zm-121 9 1 3 3-1-3 4-6 3-.5-2.5 5.5-6.5Zm148 3 2.5 4.5-3.5 1.5q-5.5-3 1-6Zm-11 6q14.47 2.53 19.5 14.5l2.5 3.5 3.5 2.5 12 34v30q7.93 3.57 6 17l-6 19 5 9-9 10-2 10-24 42q3 16.5-3 24L323.5 363l-29 18-.5-3.5 3.5-5.5 20.5-14.5 18-32v-8l30-87q-4.25-6.75-19.5-2.5l-7.5 5.5 2 1-14.5 5.5-3.5-11.5 2.5-5.5 4.5 2.5.5 8.5 11.5-9.5-.5-2.5-10.5-5.5q13.17 3.17 17-3l.5-6.5 5 3 .5-2.5-8.5-9.5 8.5-1.5-6-13q8.6-5.4 6-22L334.5 132Zm-149 15 .5 2.5-5.5 11.5-.5-5.5 5.5-8.5Zm-16 3 3.5.5 1 3-3.5 2.5-2.5-1.5 1.5-4.5Zm10 13 .5 11.5-5.5 10.5-.5-10.5 5.5-11.5Zm28 35 11.5.5-3 5 5 10-4.5 5.5-6 3-.5-3.5 6-4-1.5-4.5-8.5-5.5 4-1-2.5-5.5Zm93 0 10.5.5-23 15 .5 2.5 5.5.5-1.5 4.5-2.5 1.5-2 5 9 6-12 6-4.5 18.5-4.5-1.5v-23l8-22 7-7-.5-1.5 10-5Zm-103 6 4.5.5-12.5 5.5 2-3 6-3Zm49 3q7.86 5.14 5.5 20.5-12.13-.63-16.5 6.5l-1.5-2.5 12-7 .5-17.5Z"/><path fill="#401C0E" stroke="#401C0E" stroke-width="3" d="m303.5 210 2.5 6.5-9.5 6.5 3.5-4.5.5-4.5 1.5-.5 1.5-3.5Zm15 0 5 2 1.5-.5 2 4-5.5.5-2.5-1.5-.5-4.5Zm-154 7 1.5.5 5.5 10.5 2-1 .5 12.5-4.5.5-3-18-4 1-.5-3.5 2.5-2.5Zm39 3 .5 9.5-2.5.5-1.5-3.5-1-3 4.5-3.5Zm108 7 1.5.5-3.5 6.5-3.5-2.5.5-3.5 5-1Zm-99 1 5.5.5-4.5 5.5-3-1-1.5.5 1.5-4.5 2-1Zm-30 54 3.5 2.5-3.5 9.5-2 1-7-1-5.5 3.5-.5 10.5-1-2-6.5-.5 2.5-12.5 6 1 5.5-3.5-1-2 2.5-.5 5.5-3.5 1.5-2.5Zm94 8 1.5.5-6 3 1.5 5.5 5 1 11-6-10 11-15.5-7.5 2.5-3.5 10-4Zm-88 22 3.5 2.5 7 17-1.5 4.5-8-17-7.5 6.5-1.5 3.5-.5-5.5 3.5-6.5 3.5-2.5 1.5-2.5Zm79 0 8.5 1.5-.5 3.5-33 12-3.5-1.5-1-3 6-2 2-4-3-1 7.5-3.5 2 4q12 1.5 15-6Zm18 0 3.5.5-1 4 .5 1.5-6.5 1.5 1 4-5.5.5-1.5-2.5 3.5-4.5 6-5Zm-106 19 .5 5.5-3.5 5.5-3.5-.5 2-1 4.5-9.5Zm78 8 1 3 14.5 5.5-14.5.5-8.5-5.5 7.5-3.5Zm31 2 5.5 1.5-.5 5.5-11.5-1.5.5-3.5 6-2Zm-116 13 7.5 3.5.5 2.5 4.5 2.5-6.5 3.5-4.5-3.5-.5-7.5-1-1Zm4 18 3.5.5-1.5 3.5-6 2-.5-2.5 4.5-3.5Zm70 6 12 6h36l23-6 4.5 2.5q10.83 9.67 8 33l-5 14 1.5 2.5 6 2 3.5-2.5-9.5 32.5-2.5-.5v-27l-2.5-2.5-9.5-1.5-2.5-10.5-20-2-43.5-36.5.5-3.5Zm-69 6 2.5.5-2.5 5.5-3.5-.5 3.5-5.5Zm-15 5 4 1 1.5-.5.5 12.5 1.5.5-6.5 3.5-3-4-4 2-.5-2.5 3.5-5.5 2.5-.5.5-6.5Z"/><path fill="#180C0A" stroke="#180C0A" stroke-width="3" d="m299.5 54 13.5.5-1 4 3 5 3.5 7.5 4.5-1.5-2-4 2.5-.5 6 1 1-2 5.5 7.5-2.5.5-1.5-.5-5.5 13.5-8.5 3.5-6 15 7 4 .5 1.5 6.5 4.5 9.5 13.5 3 1 10-4 2.5 7.5-1 5q17.53 14.47 25 39l2 39 3.5 5.5 2 1 2.5-1.5.5 1.5.5-62.5-2-8 2.5-.5 3.5 6.5v95L378.5 280l-4 2-1.5.5 1.5 5.5 3-2 1 2 6.5.5-1.5 7.5-13-2-8.5 6.5q-2.46 21.54-14 34v9l6 12-2.5-1.5-4 1-4-1-1.5 35.5-6 11v28l-3.5 3.5-6.5-2.5-1-6q7.83-8.17 5-27l-8.5-16.5-9-2-18 6-.5-2.5q27.03-12.47 45-34 6-7.5 3-24l9-12 17-40 9-11q-6.35-3.65-5-15 7.5-6 6-21l-6-8v-30q-7.67-6.33-6-22l-6-9 1-2-7-6-12.5-13.5q-13.1-1.4-17.5-11.5l-2.5-8.5-3.5.5 1.5 3.5 3.5 1.5-5.5.5q-7.94-7.56-23.5-7.5l3.5-4.5 2.5-.5 5-9-4-5 16-12-7.5-15.5-8.5-7.5-1.5-4.5Zm46.5 72q-7 3-1 6l3-1-2-5ZM239.5 60l7.5.5-1 5v2l1.5 4.5 3.5 2.5-.5 1.5-6 1-2.5-1.5-7-12 4.5-3.5Zm12 0 12 2 18-2 4.5 2.5 2 10-3.5 4.5-6-4-12 17-2.5-.5 2-11-4.5-12.5-11.5-.5 2-4-.5-1.5Zm18.5 4-3 2 3 9 5-8-5-3Zm-48.5 0 .5 8.5-3.5 4.5-6-4q-2.25 17.75-13.5 26.5l10 6-4 8 1.5.5 5.5-4.5-.5 1.5 3.5 2.5-2.5 4.5-2.5 1.5 2.5.5 2.5-1.5-1.5 2.5-6.5 4.5.5 1.5-19.5 17.5-1.5 3.5-3.5 1.5-2.5 5.5-1-2-2.5 7.5h1l1.5-3.5.5 5.5-6 12-.5 31.5-3-2-.5 6.5 4-2-1.5 19.5-2.5-1.5-4.5-9.5-3 2 2-3 4.5-2.5-2-18 8-36-1.5.5-7.5-2.5-2-5 1.5-2.5 3.5.5-1 4 3.5 1.5 2.5-3.5-1.5-2.5-2.5-.5 1.5-2.5 6 1 6-13 3.5-1.5 7-15-6.5-3.5-11.5 9.5-4.5 6.5-1.5-.5 7-22q13.1-23.4 33.5-39.5l11-5ZM197 120l-3 6 2-1-4 5 1 2 6-3 3-5 1-4-4 1-2-1Zm146.5-46L363 90.5l1 4-1.5.5-19-21Zm-107 17 1.5.5 2 5-1.5-.5-4 1-.5-1.5 2.5-4.5Zm136 23 2.5.5 1 4-1.5.5-2-5Z"/><path fill="#180C0A" stroke="#180C0A" stroke-width="3" d="m378.5 132 2.5.5 3 8-3.5 2.5-2-11Zm-214 31 1.5.5-.5 9.5-3.5-2.5 2.5-7.5Zm1 34 .5 6.5-3-2 2.5-4.5Zm33 1q9.5-2 11.5 3.5l-.5 2.5q-15.9-2.4-21 6-6.5-4 3-8l1 2 5.5-3.5.5-2.5Zm21 0h8l18.5 9.5-1.5 18.5-10.5 5.5 1 2-6.5.5-.5-6.5 1.5.5 4-2 1 2 5.5-3.5-.5-2.5-1.5-.5 2-4-10.5-1.5h-2l-3.5.5-.5 4.5-1-3-4 7 4 1 2-1-1 2-10-1-2 3-1.5.5 1 4-1.5-.5-5.5-2.5.5-11.5 7-3-1.5 2.5.5 3.5 5-3h2l1.5-.5 1-2 1-3-5-12 3.5-3.5Zm92 0h33l9.5 9.5-.5 2.5-5.5-3.5-1.5-2.5-22.5 1.5-.5 6.5-5-2-.5 2.5 1.5 2.5 1.5.5-3 1-.5 1.5-1-2-4 1-9-7-2 4-1.5.5-5 11 5 6q-3.75 6.25-7.5-2.5l-4.5-1.5 3.5-6.5 1.5-.5 1-4-6-1 6.5-8.5 17-9Z"/><path fill="#180C0A" stroke="#180C0A" stroke-width="3" d="m325.5 216 16.5 6.5-9.5 11.5-2.5-.5-1.5-9.5-3-1-2 5-5 2-.5-2.5 3.5-10.5 7 2v-1l-3-2Zm-34 66 2.5 5.5-3.5 6.5-15 6-4.5-3.5 1.5-3.5 19-11Zm-135 35 4 1 1.5-.5-.5 7.5-4-1-1.5.5.5-7.5Zm80 1 9.5.5-3.5 5.5-8.5-3.5 2.5-2.5Zm48 0h19l2.5 2.5-2.5 3.5-21.5-1.5.5-3.5 2-1Zm-96 1 1.5.5 7.5 16.5 1-4 1.5 3.5-2 1 1.5 5.5 3-1 1.5 3.5-6 9 2 1-7.5 15.5-3.5 1.5-3 6 2 1-7.5 13.5-1-2-5.5 3.5.5 2.5 1.5.5-7.5 5.5-.5-17.5 3.5-6.5 8.5-3.5-.5-2.5-5 2-.5-10.5 1.5.5 3 2 6.5-3.5-4.5-5.5-2.5-.5v-2l-1.5-2.5-3.5-.5.5-1.5 2.5-.5-.5-2.5-2.5-.5q8.37-6.63 9-21l6.5-6.5Zm-6.5 23-2 5 5 1 1-4-4-2Zm2 12v1h1l-1-1Zm-6 30-4 6h4l2-5-2-1Zm-9.5-49 .5 1.5h-1l.5-1.5Zm90 1 29.5.5-.5 5.5-5.5 1.5 1 4-9.5.5-15.5-6.5.5-5.5Z"/><path fill="#0E0B0A" stroke="#0E0B0A" stroke-width="3" d="m317.5 59 7.5 1.5-1.5 4.5-2.5.5 2 4-4.5 1.5-3.5-7.5-.5-3.5 3-1Zm-70 1 4.5 1.5-2.5 4.5-3.5-.5 1.5-5.5Zm14 0 7.5.5-5.5 1.5-2-2Zm69 3L364 90.5l20 47h-1l-2.5-5.5-2.5.5 2.5 10.5 3-2 6.5 14.5h-1l-2.5-5.5-2.5.5 2 70h-1l-.5-1.5-3 1-3.5-2.5-1-36-14-31-13-18 1-4-2.5-4.5-11 4-8.5-7.5-5.5-9.5-4.5-2.5-.5-1.5-6.5-3.5q1.12-12.88 9.5-18.5l5.5-.5 5.5-13.5 3 1 .5-2.5-5.5-6.5ZM344 74l19 21h1l-1-4-19-17Zm29 40 2 5h1l-1-4-2-1ZM269.5 64l5.5 2.5-5.5 8.5-2.5-9.5 2.5-1.5Zm-55 2 1.5.5-27 24-4.5 8.5.5-1.5L210.5 68l4-2Zm50 7 1.5 5.5-1.5 2.5v-8Zm18 11 5.5 2.5-2.5 3.5-3.5-2.5.5-3.5Zm-47 12 4.5 1.5-2.5 4.5-3.5-2.5 1.5-3.5Zm-52 4 .5 1.5-9.5 12.5-.5-1.5 9.5-12.5Zm41 2 3.5 2.5q-3 6.5-6 1l2.5-3.5Zm-11 6 2.5 8.5-5.5 3.5 1-2 2.5-1.5 1-3-4-3 2.5-2.5Zm-26 7 6.5 3.5-7.5 15.5-3.5 1.5-5.5 12.5-6-1-2 3-4.5.5-1 4 3.5 4.5 6 1 1.5-.5q-8.33 16.67-8 42l2 12-6.5 4.5-.5-46.5 2.5 1.5 1.5-.5-.5-9.5-3 2-.5-11.5 6-10q-2.72-14.22 3.5-19.5l.5 1.5-2 5 1.5.5 6-8 10-8ZM166 197l-3 5 3 2v-7Zm7.5-77 .5 1.5-2 1 1.5-2.5Zm23 0 1.5.5-3.5 5.5-.5-1.5 2.5-4.5Z"/><path fill="#0E0B0A" stroke="#0E0B0A" stroke-width="3" d="m179.5 153 .5 3.5-2.5 4.5-.5-3.5 2.5-4.5Zm181 0 .5 1.5h-1l.5-1.5Zm-164 46 1.5.5-1.5 2.5-4 2-.5-2.5 4.5-2.5Zm-26 5 3.5 2.5-3.5 4.5v-7Zm136 9 5.5 3.5-.5 2.5-5 2v-8Zm-87 3-.5 1.5-.5 1.5-3 2 4-5Zm5 0 3.5.5-.5 16.5-15.5-5.5 8.5-1.5 3 1 1-2-2 1-5.5-2.5 6-5 .5 2.5 1-5Zm94 0 10.5 2.5-2.5.5-5-2-4 14-6 3 .5-1.5 6.5-16.5Zm-81 6 2.5.5-1.5 3.5-4 2-.5-2.5 3.5-3.5Zm152 30 .5 1.5-3.5 6.5-.5-1.5 3.5-6.5Zm-4 9-.5 1.5-.5 1.5-.5-1.5 1.5-1.5Zm-2 9 .5 1.5-3.5 6.5-.5-1.5 3.5-6.5Zm-6 9 2.5.5-4.5 8.5-2.5-1.5.5-4.5 1.5-.5-.5-1.5 3-1Zm-7 15 1.5.5-9 6-.5 1.5-.5-1.5 8.5-6.5Zm17 6 8.5 3.5-.5 5.5-8-9Zm-26 3-.5 1.5-.5 1.5-.5-1.5 1.5-1.5Zm-2 9 .5 1.5-3.5 6.5-.5-1.5 3.5-6.5Zm-4 9-.5 1.5-4.5 9.5-.5-1.5 5.5-9.5Zm-6 12-.5 1.5-.5 1.5-.5-1.5 1.5-1.5Zm-185 3 3.5.5.5 5.5 8.5.5-3.5 4.5 2.5.5-.5 2.5-2.5.5.5 1.5 4.5 1.5 1 2-1.5.5-5-2-4 2-4-14-3.5-.5 3.5-5.5Zm34 0 2.5.5 2 4-3.5 1.5-1-6Zm150 6 14.5 23.5-11.5.5-2.5-1.5-1-10 3.5-.5 2.5 1.5-5.5-13.5Zm-145 3 .5 2.5-3.5 6.5-2.5-.5 5.5-8.5Zm-20 9 1.5.5-1.5.5v-1Zm-3 3 2 3-2.5-.5.5-2.5Zm197 3 6.5 2.5-.5 3.5-5 3-1-9Zm-186 9 .5 2.5-3.5 6.5-2.5-.5 5.5-8.5Zm-12 21 .5 2.5-5.5 3.5-.5-2.5 5.5-3.5Z"/><path fill="#71311E" stroke="#71311E" stroke-width="3" d="m248.5 66 9.5 1.5-.5 4.5-11.5-2.5 2.5-3.5Zm-25 24 4.5 1.5-1.5 4.5-4.5-1.5 1.5-4.5Zm38 6 1.5.5 1 2-6.5 7.5-6 3-2.5-1.5L261.5 96Zm23 6 9.5 1.5-.5 3.5-5.5 1.5-.5 1.5-4.5-1.5-1-4 2.5-2.5Zm11 12 15.5 5.5-4.5.5-11-6Zm-95 6 2.5 1.5-2.5 4.5-2.5-.5 2.5-5.5Zm15 0 4.5.5-11.5 5.5 3-4 4-2Zm103 0 2.5 1.5-1.5-.5-1-1Zm6 3 21.5 22.5 8 16v13l-6 12 6 10-2.5 1.5-8.5-14.5v-6l4-11-11-16v-15L324.5 123Zm-83 81 10.5 3.5-.5 7.5-5-8-5-3Zm99 0 7.5 2.5-2.5 9.5-6.5-.5 3-9-1.5-2.5Zm-16 5 10.5 6.5-7.5.5-3-7Zm-120 7 4.5.5-10.5 6.5-.5-3.5 6.5-3.5Zm-41 6 4.5 1.5 1.5 16.5 4.5 2.5-.5 9.5-5.5-2.5q1.94-11.44-3.5-15.5l-2 1-.5-11.5 1.5-1.5Zm183 6 6.5.5-11.5 6.5-2.5-1.5 7.5-5.5Zm12 0 7.5 2.5-5.5 14.5-2-17Zm1 19 .5 6.5-23.5 63.5-.5-12.5 23.5-57.5Zm-83 10 4 1 1.5-.5-.5 12.5-5.5-3.5.5-9.5Zm15 19 2.5 1.5-.5 5.5-3-1-22 12-.5-1.5 23.5-16.5Zm-119 6 9.5.5-2.5 3.5-4 2-3-6Zm-5 6 6.5 1.5-1.5 2.5-5 2 .5-1.5-.5-4.5Zm85 0 5.5 3.5-.5 2.5-5.5-3.5.5-2.5Zm-69 24 4.5.5-3.5 4.5-1.5.5-8.5 23.5-1-5-3.5-.5 4-2 .5-10.5 4 1 5-12Zm66 1 2.5 1.5-1.5-.5-1-1Zm-57 5 6.5 12.5-2-1-4.5-11.5Zm113 0 6.5 2.5-5.5 7.5-1.5-4.5 1-4-.5-1.5Zm30 1 .5 6.5q-7.89 22.61-23.5 37.5l-14 9-.5-1.5q26.35-18.15 37.5-51.5Zm-36 15 .5 2.5-.5 11.5-4.5-1.5-1.5-4.5-1.5-.5 2.5-3.5 5-4Zm-89 12 34.5 33.5 1.5 2.5 43 36 22.5 4.5 1.5 9.5 10.5 2.5-5.5 3.5-9.5-5.5-2.5-3.5q-37.91-8.09-55.5-36.5L216.5 357l-1.5-.5-1.5-2.5-3 1v-9Zm-43 10 1 4 1.5.5-3 1-4.5 6.5-.5-1.5 5.5-10.5Z"/><path fill="#71311E" stroke="#71311E" stroke-width="3" d="m247.5 378 40.5.5 1.5 3.5 3 1 1.5-.5-35.5 1.5-11-6Z"/><path fill="#BA6D50" stroke="#BA6D50" stroke-width="3" d="m271.5 90 4.5 1.5-.5 11.5-2-1-6 12-14.5-.5 15-7 3.5-16.5Zm-37 24 4.5.5-14.5 5.5v-1l10-5Zm45 0h15q4.76 7.24 18 6l15.5 13.5 2 29-6 12 11 15q-4.25 12.75-25.5 8.5l2.5-3.5-3.5-7.5-8.5-2.5v-17l18-30-13.5-15.5-17-2-8-6Zm-68 11 1.5 1.5-7 7-2 28 11 16-13.5 14.5-3.5.5 3 5-15 9 1.5 3.5 18-5 4.5 2.5-3.5 8.5-20.5 7.5 1 4-1 12 5.5 9.5 1-2 14 23 3.5 1.5q-2.03 15.03 6.5 19.5l6 3 18.5-15.5q7.25-5.75 5.5-20.5l4.5-2.5-7.5-13.5-11.5-7.5 13.5-3.5 1 3 5-1h2l4-2 .5 39.5-5 9 7.5 8.5 13.5-7.5 1.5-3.5.5 7.5-12 7-1.5 2.5-16-12-.5 3.5 1.5 2.5h-5L231 299.5l-3 7 2.5 3.5 11.5 7.5-8 2 2 4-2 1 5.5 7.5 1.5-.5 11.5 14.5 10.5 2.5-13 6-.5 1.5-2.5 1.5-1 3 3.5 4.5 20 1 6.5-3.5 1.5-2.5 6.5-.5.5-1.5 2.5-.5-8-9 9.5-.5 10.5 8.5-8.5 14.5q-9.83 10.17-33 7-25.67-9.83-39.5-31.5l-20-40v-25l-24-47v-39l6-9v-13l12-32 12.5-12.5 7-4Z"/><path fill="#BA6D50" stroke="#BA6D50" stroke-width="3" d="m230.5 198 14.5 5.5-4.5.5-10-6Zm63 0 4.5.5-13.5 6.5 3-4 6-3Zm33 6 3.5 1.5-.5 4.5-5.5-2.5 2.5-3.5Zm-45 2 1.5 2.5-6.5 18.5-.5-11.5 5.5-9.5Zm-29 2q7.83 4.17 5.5 18.5h-1q-6.92-5.92-4.5-18.5Zm-59 20 21 6 3-4 8.5 3.5-4 1 2.5 3.5 1.5.5.5 1.5 7.5 3.5-1.5 2.5-10.5-1.5-1.5-2.5-27-14Zm128 0 4 12h11l16-6 1.5 12.5-18 35-2 11-8 8q-.25 22.25-9.5 35.5l-10.5-.5 6-16-17.5-7.5-13.5-.5 2-1 2.5-4.5 8.5-1.5 2.5-10.5 3.5.5 2.5 4.5 20.5-8.5 1-9 12-17v-11l-4-2-2.5-3.5-24-8-9.5 7.5-1.5 3.5-4-11-2.5-.5.5-2.5q7.83-6.17 25-3l8-6Zm-46 13 .5 33.5h-1q-7.17-6.83-5-23l5.5-10.5Zm-107 11 7.5 5.5-2 1 3.5 11.5 2-1 .5 7.5-3.5 5.5-5.5-.5q-7.09-9.59-2.5-29.5Z"/><path fill="#BA6D50" stroke="#BA6D50" stroke-width="3" d="M294.5 259q7.73 6.77 5.5 23.5l-5.5 10.5v-34Zm-114 40 4 1 1.5-.5-1.5 6.5-4.5-1.5.5-5.5Zm82 0 12.5 6.5-4.5.5-9.5-5.5 1.5-1.5Zm-88 18 4 1 1.5-.5-2.5 6.5-3.5-2.5.5-4.5Zm31 25 4.5 1.5-.5 5.5-3-1-2.5 1.5 1.5-7.5Zm12 24 32.5 31.5 4 10 22.5 22.5 29.5 3.5 1.5 10.5 15.5.5q-8.91 11.59-5 36l-5.5 8.5-1.5-2.5 1-18-14.5-23.5-24.5 11.5-5.5 9.5-5 1-3.5-2.5-15.5-43.5-1.5.5-2 5 5 14-10.5 14.5-.5-17.5-6-11q2.29-17.29-6-24v-19l-6-16 1.5-1.5Zm-50 1 1 5 2.5.5-3 2-.5-2.5-3 6-1.5-.5 4.5-10.5Zm73 114 11 14 1-2 27 41 2.5.5.5 11.5 2.5.5-3.5 5.5-6.5-1.5-8-23-20.5-26.5-5.5-2.5 2-1q-6.61-3.61-2.5-16.5Z"/><path fill="#CE8A6D" stroke="#CE8A6D" stroke-width="3" d="m273.5 102 2.5 1.5 1.5 10.5q6.06 8.44 23 6l14.5 12.5 3 6-18 29v17l11 5 1 5q-3.25 6.75-16.5 3.5v-1l4.5-2.5-.5-7.5-3.5-1.5-2-30 6-12-13.5-23.5-8.5-1.5-4.5-9.5-3 2-.5-3.5 3.5-5.5Zm-34 12 5.5.5-15.5 5.5v-1l10-5Zm-17 6 4.5.5-9 7-8 17 8.5 15.5 13.5 8.5 1 3-10.5 11.5-18.5 12.5 1 2-3.5.5-3.5-5.5 15-12 2-4q-16.08-8.92-11-39l9-11-.5-1.5 10-5Zm65 78 5.5.5-9 6-1.5 3.5-1-2-1.5.5 4.5-7.5 3-1Zm-21 7 2.5 1.5-1.5 2.5-2.5-1.5 1.5-2.5Zm-15 1 6.5 8.5-2-1-4.5-7.5Zm28 2 .5 1.5-1.5 2.5-.5-1.5 1.5-2.5Zm-21 15 3 5 1.5.5-4.5 10.5v-16Zm-72 5h6l29.5 15.5 1 2-1.5.5-5.5-3.5-1.5-2.5-19-6-3.5 11.5v2l-.5 1.5q-8.01-6.11-5-21Zm36 6 6.5.5-1.5 5.5-1.5-.5-.5-1.5-2.5-1.5-.5-2.5Zm9 0 12.5 8.5 7 13-5 3-.5 4.5-8-10-7 4-1.5-2.5 5-8v-2l-1.5-2.5-3.5-1.5 5-1-2.5-5.5Zm44 3 .5 3.5-5.5 10.5-.5-5.5 5.5-8.5Zm30 3 26.5 10.5-.5 1.5h-25l-4.5 2.5-2 14 4 2 4.5 9.5 14 2q1.27-12.73 10-18l3-1 .5 1.5-10 13-5.5 15.5-18 6-3-5-5 2-.5-2.5q8.29-6.71 6-24-7.24-4.76-6-18l6.5-8.5 5-3Zm-109 14 1 2 6.5 4.5 2.5 3.5 1.5.5 2 6-1.5-.5-4.5-2.5-7.5-13.5Zm-22 4 2.5.5 3 10-2.5 1.5-3-12Zm96 7 5.5 11.5-5.5 7.5-2-13-1.5-.5 3-1 .5-4.5Zm-25 4 .5 1.5-15.5 18.5-9 5-8.5-6.5-3-12 1.5.5 14 11 20-18Zm12 2q-2.89 12.89 3.5 16.5l-6-5-2-4 4.5-7.5Zm-5 21 9.5 7.5 2.5 4.5 5.5 1.5-6.5.5-8.5-5.5-2.5-8.5Zm-23 11-.5 1.5.5 1.5 10.5 4.5 1.5 5.5 1.5.5-1.5.5-12.5-8.5-1-4 1.5-1.5Zm44 3 11.5.5-2.5 4.5-5 1-4-6Zm-39 18 2.5.5 3 7-4-3-1.5-4.5Zm47 0 6.5 2.5-2.5 3.5-4.5-.5 1-4-.5-1.5Zm-8 24q12.25-1.25 13.5 8.5l-.5 1.5-2.5.5-.5 1.5-2.5-.5 1-4-8.5-7.5Zm-17 3 1.5.5-4 2-1 3 .5 1.5 23.5 2.5-2.5 3.5-22 2-5.5-3.5-1-3 2.5-3.5 1.5-.5.5-1.5 6-3Zm-84 4 1.5 2.5-5.5 2.5-.5-2.5 4.5-2.5Zm-1 11 1.5 2.5-2.5 3.5-2.5-.5 3.5-5.5Zm71 55 1.5.5 8 17v12l8.5 15.5 5 1 3.5-2.5 7.5-11.5 21-8 14.5 23.5v17q-8.82 7.68-6 27L284.5 546l-2.5-.5-.5-11.5-2.5-.5-4-7 4.5 1.5 7.5-2.5-.5-1.5-9.5-5.5-1-3 2.5-4.5 10 5 3.5-2.5 2-16 6-12v-17l-3.5-5.5-3-1-20 17-10 1-12-6-3.5 2.5-2 8 4 2 3 6-1.5 2.5-11.5-14.5q2.47-17.97-6-25 10.68-5.32 11-21l-5-9 2.5-4.5Z"/><path fill="#E8A485" stroke="#E8A485" stroke-width="3" d="m272.5 109 1.5.5 4.5 9.5 9.5 2.5 12 23q-10.41 10.59-6 36l2.5 5.5 3.5 1.5-1.5 8.5-14.5 3.5-8 15q4.32 22.32-5.5 30.5l-1-23-5.5.5 1.5 47.5 4.5 2.5-.5 12.5-8 3-3.5-6.5 1.5.5 4.5-1.5-.5-4.5-5 1-.5-37.5 5-11-3-2q-.04-14.46-8.5-20.5l-16-8-31.5-1.5 6.5-7.5 21.5-15.5 1-3-4.5-5.5-10.5-5.5-8-16 13.5-21.5 22-8 24.5-1.5 2.5-3.5ZM243 139l-9 11 3 6 15-3 6-7-15-7Zm-1 47-2 5 5 1 1-4-4-2Zm25 19-2 3 3 1 1-2-2-2Z"/><path fill="#E8A485" stroke="#E8A485" stroke-width="3" d="m249.5 228 2.5 3.5-5.5 2.5-.5-2.5 3.5-3.5Zm-54 6 20.5 7.5 1.5 2.5 16.5 2.5-5 9 2.5 1.5 6-4q8.07 3.93 8.5 15.5L224.5 287 210 274.5l-2.5-10.5-3.5-2.5-5.5-6.5-1.5.5-5-15 3.5-6.5Zm34 0 4.5 3.5-.5 2.5-5.5-.5 1.5-5.5Zm77 18h27l2.5 2.5-1.5 9.5-8.5 6.5-3.5 11.5-14.5-2.5-4.5-9.5-3.5-1.5 2.5-14.5 4-2Zm-63 36 8.5 3.5 6.5 12.5 14 2 3.5 3.5 1 2q-23.53-3.53-35.5 4.5l-5-9-7.5-1.5 14.5-17.5Zm17 36 4.5.5-1 4 .5 1.5-6.5-2.5 2.5-3.5Zm11 0 10.5 1.5-1.5 4.5-10.5-1.5 1.5-4.5Zm-7 24h8l9.5 7.5-1.5 4.5q-18.44 3.44-27.5-2.5l2-3-.5-1.5 10-5Zm29 114 4.5 2.5 2 21-9.5 29.5-3 1-9-5-2.5 4.5 4.5 6.5 6.5 2.5-.5 1.5-7 2-4.5-2.5-25.5-39.5-3.5-1.5 3.5-9.5 3-1q4.76 7.24 18 6l23-18Z"/><path fill="#8A5A53" stroke="#8A5A53" stroke-width="3" d="m276.5 104 3 4 12.5 5.5-13.5.5-2-10Zm59 84 .5 1.5h-1l.5-1.5Zm-132 16 1.5.5-1.5.5v-1Zm30 12 6.5 2.5-9.5 9.5-2.5-2.5.5-4.5 4 1 1.5-4.5-.5-1.5Zm81 0 2.5 1.5-4.5 8.5-1-4-3.5-.5 4-2 2.5-3.5Zm-9 4 1.5 2.5-1 4v2l1 5-7.5.5.5-1.5q-1.75-10.75 5.5-12.5Zm-59 8 1.5.5-9.5 5.5 2-3 6-3Zm23 74 2.5 1.5-1.5.5-1-2Zm30 54 .5 1.5h-1l.5-1.5Zm-134 10 5.5.5-2.5 4.5-1-4-4.5 10.5 1.5.5 3-6 1 3 5-8 .5 4.5-8.5 18.5-3.5-2.5q-4.5-17 3.5-21.5Z"/><path fill="#F0C4B4" stroke="#F0C4B4" stroke-width="3" d="m242.5 139 15.5 6.5-6.5 7.5-15 3-2.5-6.5 8.5-10.5Zm-1 47 4.5 1.5-1.5 4.5-4.5-1.5 1.5-4.5Zm23 36 5.5.5-.5 47.5-4.5-.5-.5-47.5Zm-5 54 4.5.5-1.5 5.5-4.5-1.5 1.5-4.5Z"/><path fill="#709DE4" stroke="#709DE4" stroke-width="3" d="m230.5 216 3.5 2.5-2.5 3.5-3.5-2.5 2.5-3.5Zm78 6 3.5.5-2.5 5.5-3.5-2.5 2.5-3.5Zm-68 286 21.5 27.5 2 16-17.5.5-2.5-5.5 2-1q4.67-21.17-3.5-29.5l-2 1v-9Zm71 30 .5 9.5-2.5-1.5-3.5.5-.5 5.5-11.5-.5 2.5-11.5 15-2Z"/><path fill="#A4A6AD" stroke="#A4A6AD" stroke-width="3" d="m164.5 288 3.5 2.5-2.5 3.5-3.5-2.5 2.5-3.5Zm232 10q8.84 6.66 5.5 25.5l-3.5 6.5-2.5-.5-.5-5.5-2.5-.5 3-5-2-1 2-15-1.5-2.5 1.5-.5.5-1.5Zm-238 8 8.5 1.5-2.5 4.5-8.5-2.5 2.5-3.5Zm-1 24 4.5 1.5-2.5 10.5-3.5-2.5 1.5-9.5Zm11 8 .5 1.5h-1l.5-1.5Zm2 3 1.5.5-1.5.5v-1Zm21 50 6.5 28.5-6 12 5 1-8.5 5.5-2.5-2.5v-34l5.5-10.5Zm187 15 11.5 11.5-1.5 1.5-8.5 3.5-4.5 7.5-5 1-4.5-3.5q-7.87-5.12-6-20l1.5-.5 6 13 2.5-1.5 5.5-10.5 2.5-.5.5-1.5Zm108 48 20.5 14.5 15 24q-2.29 17.29 6 24v35l-5.5.5-.5-25.5q-9.75-8.25-6-30L498.5 471l-1.5.5-5.5-7.5-3.5-1.5-2-4 .5-4.5Zm-259 12 2.5 7.5-11.5 1.5-72.5 35.5-2 7 17 34-4.5.5-18.5-30.5v-11l6.5-9.5 13-3 70-32Zm97 1 8 1 44 24h7l30.5 14.5-3 15-21.5 30.5-10.5-.5 29-40-78-35-1.5-2.5-4 1v-8Zm-84 74 5.5 10.5-5.5.5v-11Z"/><path fill="#B7B3BE" stroke="#B7B3BE" stroke-width="3" d="m385.5 289 10.5 8.5-.5 2.5-10.5-1.5-1-7 1.5-2.5Zm8 29 2.5.5-3.5 5.5-.5-2.5 1.5-3.5Zm-222 18 2.5.5-1.5 4.5-3.5-.5.5-3.5 2-1Zm222 0 2.5 11.5-6.5 9.5-4 2-1.5-10.5 5.5-10.5 4-2Zm-49 18 1.5.5-1.5.5v-1Zm32 7 1.5 7.5-1.5 2.5-22 2-3.5-6.5q17.83 2.33 25.5-5.5Zm-187 33 .5 1.5-1.5 2.5-.5-1.5 1.5-2.5Zm167 2 3.5 1.5q-4.05 24.55 8.5 32.5l5 1 4.5-3.5 2.5-5.5 9-4q-.94 12.94 5.5 18.5l-9 4-5.5 8.5-17.5-10.5q-5.17-5.83-3-19l-6-11v-10l2.5-2.5Zm-162 37 1.5.5-6.5 4.5 3-4 2-1Zm-8 3 1 2-1.5-.5.5-1.5Zm210 14 8.5 6.5 3 9-9.5 2.5q-6.58-4.08-2-18Zm102 21 17.5 26.5h-1L498.5 472l-1.5.5 1.5-1.5Zm18 46 5.5 10.5h-1l-4.5-10.5Zm-199 1 .5 3.5-5.5 10.5-.5-3.5 5.5-10.5Zm-226 4 4.5 1.5-1.5 4.5-4.5-1.5 1.5-4.5Zm422 6 2.5.5 3.5 5.5 2-1 .5 7.5-1.5-.5-7.5 6.5-2.5 5.5-6.5-.5q.3-16.2 9.5-23.5Z"/><path fill="#898E90" stroke="#898E90" stroke-width="3" d="m182.5 294 3.5.5-1.5 5.5-4.5-1.5 2.5-4.5Zm208 29 5.5 1.5.5 5.5 1.5.5-2.5 6.5-3-1-3 2 .5-1.5.5-13.5Zm-232 1 3.5 2.5-.5 4.5-4-1-1.5.5 2.5-6.5Zm24 18 3.5 2.5-2.5 3.5-3.5-2.5 2.5-3.5Zm18 30 3.5 2.5v17q9 8 6 28l-6.5 9.5-11 3 .5-1.5 5-16q-8-7-6-24l8.5-18.5Zm160 25 17.5 8.5-.5 2.5-2.5.5-6.5 11.5-1.5-.5-5.5-12.5-1.5-.5.5-9.5Z"/><path fill="#30333B" stroke="#30333B" stroke-width="3" d="m156.5 311 7.5 1.5-3.5 5.5-4.5-1.5.5-5.5Zm372 227q6.77 2.73 5.5 13.5l-5.5.5v-14Z"/><path fill="#C9C4CE" stroke="#C9C4CE" stroke-width="3" d="m177.5 312 2.5.5-2.5 5.5-2.5-1.5 2.5-4.5Zm30 36 2.5 2.5v35l6 11v19l12 35v14l-7.5 4.5 1.5-4.5-7.5-32.5-22 12h-10l-2.5-2.5-1.5-33.5-16.5 6.5-1.5 3.5-40 20q-13.24-1.24-18 6h-13l-16 8L44 481.5l-14 28v25L23.5 552l-5.5-.5 6-16v-31l21-36L66.5 447l18-9h13q4.76-7.24 18-6 24.17-6.83 38-24h11l19.5-18.5 19.5-39.5 4-2Zm-7.5 24-14 29 1 37 17-8 6-8v-21q-9-8-6-27l-4-2Zm143.5-17 3.5.5 2.5 10.5 4.5 3.5q-2.17 14.67 6.5 18.5 23.29 6.71 36 24 21.54 2.46 34 14h7l48.5 27.5 2 8-3.5-.5-52-29h-7l-23-12h-11l-.5 2.5q7.32 6.18 5 22l9 11-6.5-5.5-2.5.5 2 17-2.5.5-39.5-25.5-2-33h1l9.5 30.5 16 9 6-9 8.5-3.5q-6.96-5.54-5-20L377.5 404l-17-8h-2l-4.5 2.5-.5 4.5-9-1-2.5 1.5v41q-8.36 7.64-6.5 25.5l-10.5-3.5q7.32-6.18 5-22l6-11v-31l6-11 1.5-36.5Z"/><path fill="#C9C4CE" stroke="#C9C4CE" stroke-width="3" d="m421.5 438 4.5 1.5-1.5 4.5-4.5-1.5 1.5-4.5Zm6 12 3.5.5 1 9-1.5 2.5-3.5-.5-1-9 1.5-2.5Zm71 22 17.5 26.5q-2.71 22.71 6 34l-2.5 1.5-4-6-2.5.5-9.5 23.5-11.5-.5q8.29-6.71 6-24-7.56-7.94-7.5-23.5l-3.5.5-1 30-6.5 17.5-5.5-.5q-2.12-16.62 6-23v-31l7.5-17.5 3.5.5 2.5 17.5 3.5-.5 1-23 .5-2.5Zm9.5 38-9 10 9 7 2-15-2-2Zm-285.5-36 8.5.5q6.17 7.83 3 25l6 11v40h-1l-5-10v-25q-9.35-8.65-6-30l-7.5-9.5-1.5-.5 3.5-1.5Zm104 0 3.5 2.5.5 1.5 4.5 1.5-5 1v12L318.5 513l-.5-17.5 6-8 2.5-13.5Zm-265 18 3.5.5 1 12 12 29v18l-5.5.5-6.5-16.5v-14l-6-11v-16l1.5-2.5Zm396 0 3.5.5q-.64 15.64 7 23v36l-17.5.5-.5-12.5 6-11 1.5-36.5Zm-414 6 6.5 4.5 16 49-5.5.5q-8.85-6.65-6.5-24.5l-12-17v-10l1.5-2.5Zm48 12 3.5.5 1 12-1.5-.5-4 1-.5-10.5 1.5-2.5Zm53 5 .5 1.5h-1l.5-1.5Zm-54 12 4 1 1.5-.5q8 7 6 24l-5.5.5q-9.35-7.29-6-25Zm343 7 3.5.5 1 17-5.5.5-.5-15.5 1.5-2.5Zm86 6 2.5 1.5-.5 10.5-10.5-.5 8.5-11.5Z"/><path fill="#A11E14" stroke="#A11E14" stroke-width="3" d="m252.5 312 13.5.5q-2.73 6.77-13.5 5.5l-1.5-4.5 1.5-1.5Zm23 0 8.5.5-8 10 .5 1.5-17.5-.5 17-7-.5-4.5Zm18 15-6 7-1.5-.5 7.5-6.5Z"/><path fill="#7C0807" stroke="#7C0807" stroke-width="3" d="m289.5 312 14.5 5.5-14.5.5-1.5-4.5 1.5-1.5Zm4 12 12.5.5-5.5 10.5-1-2-4 5-3.5 2.5-.5 1.5-3.5-1.5-.5-4.5-4.5-.5 11-8-.5-3.5Zm-53 3 3 2 2.5-1.5.5 2.5q16.06-2.06 22.5 5.5l-11 1-3.5 5.5q-10.25 1.25-11.5-6.5l-2.5-8.5Z"/><path fill="#BE3725" stroke="#BE3725" stroke-width="3" d="m252.5 324 6.5.5-1 4 .5 1.5-12.5-.5.5-2.5 6-3Zm35 0 6.5 2.5q-4.62 11.88-23.5 9.5l-10.5-5.5 28-2-.5-4.5Z"/><path fill="#F3806A" stroke="#F3806A" stroke-width="3" d="m265.5 324 5.5.5-1 4 .5 1.5-6.5-1.5 1.5-4.5Z"/><path fill="#BEA150" stroke="#BEA150" stroke-width="3" d="m159.5 402 4.5 5.5-9.5.5 5-6Z"/><path fill="#ECE6ED" stroke="#ECE6ED" stroke-width="3" d="m344.5 402 9.5 1.5v35l7.5 9.5 25 16q6.31 5.69 20 4l1.5-6.5-12-17q2.03-16.53-5-24l11.5-.5 58 26 34.5 22.5q6.5 8.5 3 27l-1.5 2.5-3.5-.5-2.5-17.5-3.5.5-7 17v31q-7.97 7.03-6.5 23.5l-5.5-.5v-36q-7.56-7.94-7.5-23.5l-3.5.5-1 36q-7.97 7.03-6.5 23.5l-11.5-.5-1.5-17.5-3.5.5-1.5 17.5-40.5-.5 21-30 2-16-78-35q-2.65-18.65 6-26l.5-41.5 2-1Zm77.5 36-2 5 5 1 1-4-4-2Zm6 12-2 3 1 9h4l1-2-1-9-3-1Zm-250.5-42 2.5 1.5v32l2.5 2.5h10l22-12 7.5 32.5-2.5 4.5q-37.15 9.35-64 29h-7l-8.5 6.5-2 19 17 28-52.5.5-8-42-3.5.5-1 30 6 11-17.5.5-.5-18.5-12-29-1.5-12.5-3.5.5-1 18 6 11v14l6 16-5.5.5L54 509.5l-5.5-8.5-5-3-1.5 12.5 12 17q-2.29 17.29 6 24l-35.5.5-.5-6.5q10.41-10.59 6-36l14-28L73.5 452l16-8h13q4.76-7.24 18-6l41.5-21.5.5-2.5 15-6Z"/><path fill="#ECE6ED" stroke="#ECE6ED" stroke-width="3" d="m218.5 476 7.5 5.5 2 23 6 11v25l6 11-77.5.5-17.5-37.5 5.5-7.5 13-3 55-28Zm112 4 77.5 32.5-30.5 39.5-65.5-.5v-18q7.59-5.41 6-20l12-21 .5-12.5Zm157 24 3.5.5q-.64 15.64 7 23v13l-6.5 11.5-11.5-.5 6-17 1.5-30.5Zm20 6 2.5 1.5-2.5 15.5-8.5-7.5 8.5-9.5Z"/><path fill="#4864B1" stroke="#4864B1" stroke-width="3" d="M234.5 496q14.71 3.79 21.5 15.5l12 18 8 22-11.5.5-2.5-17.5-21.5-27.5-1.5.5-4.5-11.5Zm83 0 .5 20.5-5.5 10.5h-2l-3.5 2.5-4.5 5.5-4.5 3.5-.5 1.5-3.5 1.5-.5 10.5-11.5-.5 35.5-55.5Zm-76 26 4.5 1.5-.5 22.5-3.5-1.5-2-21 1.5-1.5Z"/><path fill="#5385C8" stroke="#5385C8" stroke-width="3" d="m240.5 507 9 10-10.5-8.5 1.5-1.5Zm1 9 2.5 1.5 2 5-1.5-.5-4 1-.5-5.5 1.5-1.5Zm70 10 .5 11.5-13.5 2.5-.5-1.5 9-8 2.5-3.5 2-1Zm-5 20 5.5 2.5-.5 3.5-5.5-.5.5-5.5Z"/></svg>