<svg viewBox="0 0 1284 1284" xmlns="http://www.w3.org/2000/svg"><path fill="#180E2C" stroke="#180E2C" stroke-width="3" d="M661 188v2h-1l1-2Zm-102 1 5 7h-1l-4-7Zm218 33 3 3-2 3-4-2 3-4Zm0 1-2 3 3 1 1-2-2-2Zm-54 17 3 3-2 3-4-2 3-4Zm0 1-2 3 3 1 1-2-2-2Zm-36 11-5 6-5-3 4 2 6-5Zm120 0 3 3-2 3-4-2 3-4Zm0 1-2 3 3 1 1-2-2-2Zm-152 7v2h-1l1-2Zm-10 3 1 1h-1v-1Zm12 0 1 1h-1v-1Zm-48 1 1 1-6 5 5-6Zm136 2v2h-1l1-2Zm11 0v2h-1l1-2Zm-246 12v2h-1l1-2Zm66 2 1 2h-3l2-2Zm-65 4v2h-1l1-2Zm-10 4 3 3-2-2-1-1Zm247 6 6 5 3-2-4 3-5-6Zm134 60 1 1h-1v-1Zm-20 107-3 4 3 4-4-3 4-5Zm-399 22 3 2 2-1-3 2-2-3Zm26 15 3 3-2-2-7 5-3-4 4 3 5-5Zm27 8 6 8-3 2 2-3-5-7Zm297 10 1 1-3 2 2-3Zm-129 33-11 12 5 7-3 2 2-3-5-6 12-12Zm80 10 1 1-3 2 2-3Zm-227 11-1 2v1l-1-1 2-2Zm136 5v2h-1l1-2Zm-174 3-3 4-4-2 3 1 4-3Zm-123 3-3 4 5 7-3 2 2-3-5-6 4-4Zm345 4 8 9-10-7 2-2Zm-163 2 1 1h-1v-1Zm30 310-1 2h-2l3-2Zm-104 57 2 4h-1l-1-4Zm-3 3 3 3h-1l-2-3Zm2 9 1 1-9 8 21 22-22-21 9-10Zm183 41 1 1h-1v-1Zm-23 4 3 3h-1l-2-3Z"/><path stroke="#000" stroke-width="3" d="m655 144 5 1 1 5 10 3-2-2-3 2 3 3h2l1-2 3 7 9-8 1-3 47 1 1 2 11 4 1 2 11 4 1 5 17 7 4 5 2 1 4 11 2 1 22 23 2 1 4 5 2 1 4 11 7 3-2-2-3 2 3 3h2l1-2 7 20 5 1q-3 16 4 23l2 1 4 5 2 1 3 9 9 3q-4 19 3 27l10 3-1 4 5 1h1l1 6 5 1 4 5 2 1v35l6 11v39l-6 11v29l-5 3 3 3 2 1v5l-3 1-3 11-3 1-3 6v35l-3 1-3 6v35l-6 1q-2 12 4 17l2 1 4 5 2 1v35l-3 1-3 6v29l-6 1v31q-9 8-6 28l-6 4v2l-6 4v2l-12 4v2l-12 4v2l-12 4v2l-3 1q-6 7-3 23l-6 1q2 17-6 24v23l-3 1-3 17-6 4v2l-3 1-3 11-6 1-18 29-3 1q-6 7-3 23l-6 1v19q-9 8-6 28l3 4 39 3 4 5 3 1-1 4 5 1h1q-2 13 4 18l2 1q-4 29 10 41l2 1 4 5 2 1q-2 12 4 17l2 1 4 5 2 1q-3 16 4 23l2 1 1 2 11 4 1 2 17 4 3 9 15 3 1 5 23 7 4 5 2 1 1 2 11 4 1 2q7 6 23 3l6-3 1-3 17 1 4 5 2 1 7 8q7 6 23 4l4 5 3 1-1 4 5 1h1l1 3 11 4 1 5 12 6 41 1 1 2q9 7 29 4l1 2q7 6 23 4l4 5 2 1 1 2 24 9 23 1 1 2 11 4 1 2 11 4 1 2 11 4 1 5q7 8 23 7l1 2 11 4 1 6-1 5H0l1-120q12 2 17-3l1-3q16 3 23-3l1-3h29l6-3 1-3 23-6 1-6q12 2 17-3l1-3 11 1 1 2 11 3 6-3 1-3q12 2 17-3l1-3 5-3 1-3q12 2 17-3l1-3h11l18-6 1-6q16 3 23-3l1-3q12 2 17-3l1-3 5-3 1-3q19 4 27-2l3-10 5-3 1-3h2l4-12 5-3 1-3 8-6 4-12h2q7-10 4-30l5-3 1-3 5-3 1-3q12 2 17-3l1-3 5-3 1-3 11-3 1-3 5-3 1-3 5-3 1-3h2l4-18h2l3-6 1-42h5v-24h-6l-3-12h-3l-3-12h-3l-3-12h-3v-95l-6-10-12-3v-3l-12-3-9-30h-3l1-60h5v-25l6-11 1-30h2l2-7-2-5h-3l1-72h2l3-6 1-42h2l4-12h2q6-8 3-23l-3-7h-3l1-6h2l4-12h5l7-18h2l3-11-3-7h-3l1-6 5-3 1-3 5-3 1-3h2l3-6v-56l3-3-2 3 2 2 3-2v-3h-2l4-1 4 3 1 3 11-3 1-3 5-3 1-3 5-3 2-7-1 2 2 2 8-6 1-2 1 8 8-6 2-7-2-5h-3l1-6h5l2-10v2l28 2 12-6v-18h-11l4-2 2-4q20 3 29-6l1-6 11-3 1-3q12 2 17-3l1-3h17l1-2 2 1h1v1h1l1-2 4 14 2 1 4 5 2 1 4 5 2 1 3 4 4-11 5 1 1 5q15 3 21-2l3-10h2l4-12h5l1-6Zm-85 18-50 19q-7 5-5 20l-16 9q-18-4-25 4l6 8-2 5-28 16-26 22-4 5v37l-18 20 6 9-2 11-13 13-3 13-6 8 6 9v19l-12 23v37l-12 29v25l12 29-12 17q3 21-6 30v102l24 10 6 14 6 1v86l24 47v71l-9 24-19 19-2 7-5-2-1 3-12 6-6 9h-16l-2 24q-18 16-27 42l-21 21-23 5-19 16q-14-1-18 6h-25l-11 9-60 27-16-6q-11 9-33 6l-23 18H47l-11 6H23l-15 6-2 101 1241 1 1-4-88-38q-18 2-24-6h-13l-11-6h-19l-23-12h-25q-5-7-18-6l-25-22q-22-2-34-14-15-2-20 6h-17l-35-19-2-9-28-3-2-9q-19-1-29-11l-19-21v-13l-12-17-12-43-12-23v-10l-5-2-1-4-4-2-2 3q-4 7-20 3l-4-2-12-16q-3-20 6-28v-37l3-6q5-11 20-13l37-88v-31l3-6q17-24 50-31l13-28v-61q11-13 6-41l-8-2 2-2v-58l6-11v-31l12-20-5-6 11-15q-3-22 6-30v-37q-10-10-6-34l-2-2-6-10-3-2-1-2-8-4-5-8-7-5-4-4-1-21-7-5-16-22v-19l-12-17-5-1-1-4-5-2-10-24-13-8q-12-8-17-22l-38-18h-37l-14 11-15-11-27 23-9-5-9 1-6 10-27-26-13-3Zm-77 14v2h-1l1-2Z"/><path fill="#07001C" stroke="#07001C" stroke-width="3" d="m585 144-2 3 1 2-2-1 3-4Zm83 7-1 2 2 2 2-1-1 2-4-2 2-3Zm-14 14-20 21-4-2 3 1 21-20Zm13 0 9 8 8-7-9 8-8-9Zm-195 33 2 4-2 1 1-2-1-3Zm-17 28-7 8-3-1h2l8-7Zm369 9-1 2 2 2 2-1-1 2-4-2 2-3Zm-411 12 1 3-3 2-1-2 2 1 1-2v-2Zm4 65-14 15 2 3-3-2 15-16Zm-30 66-2 3 2 3-3-2 3-4Zm498 90-8 9 5 7-3 2 2-3-5-6 9-9Z"/><path fill="#0B0622" stroke="#0B0622" stroke-width="3" d="m585 145 1 1-1 3-2-2 2-2Zm84 6 1 4-3-1 2-3Zm-99 11 11 2 28 28 7-11 9-1 9 6 27-24 15 12q7-18 39-12l-1 2 2 10 4-1-1-10 8-1 23 12h7l9 8 14 19 16 11 9 23-1 4 5 1h2l5 1 12 17v19l16 22 7 5 1 21 4 4 7 5 5 8 8 4 1 2 3 2 2 4-6 1 1 5 5 4 2 2 4-1q-3 21 6 31v37q-9 8-6 30l-12 15 5 6-11 20v31l-6 11v57l-3 3h-3l-6-12v-44l6-8v-55l6-14-5-8 5-7v-13q7-5 6-18l-3-1-3 2 6-15-6-12 3 1h3v-19l-8-22-7-1q-7-20-23-30l-4 2v4h-3l-3-7 3 1 3-1v-3l-12-5-6-13q-9-11-31-8l-13 6-4-7 3 1h3v-4l-7-2-8 5-9-5v-4l-9-2h-3v-12l-11 2-1-8-6 1-1 3-11-7-1-21-11 1v5l-9 5-15-5-6-12-11 3-2 20h-4l-1-16 6-11-3-2-4-18-3 1-2 4v46l-3 3h-3v-4l-10-2-3 11-5-2-2-9-9 6-3-6-4 2-11 14-2-1-5 3 4 1-3 1-2-2 1-3-4-3-2 3-3 1-7-4h-37l-1 6-12 3 1 1 11 3v2l-17 3-3-6-2 1-2 8-11 6-4 9-8 3-7 12q-30 12-48 36l2 3 1 1 1 3-4 7v67q-9 8-6 30l-18 47q5 22-6 30v40l-6 8q3 17-3 25l-9-3q-4-22 6-30l-5-6q7-4 5-16l-2-5h-6l8-12-12-29v-25l12-29 1-32 4 1 1-4-4-2-2 1 12-24v-19l-5-9 7-19 13-13 3-13-5-9 17-20v-37l4-5q18-7 28-23l25-13 3-7-5-9q7-6 24-3l16-9q-2-15 5-20l50-19Zm-16 18-8 12h3l4 6 11-2q-8-3-6-14l-4-2Zm111 6-4 2-1 2 11 2 1-4-7-2Zm14 18-1 6h6v-5l-5-1Zm-59 6-2 5 5 1 1-4-4-2Zm69 6-5 3 2 3 10-2v-2l-7-2Zm-123 6-2 5 5 1 1-4-4-2Zm41 0-1 12h6v-11l-5-1Zm170 0-3 4 4 2 2-3-3-3Zm-127 6-2 4 5 2 1-3-4-3Zm23 0-1 6h3l3 6h6v-5l-2-1-4-5-5-1Zm24 0-1 6h6v-5l-5-1Zm19 0-2 5 5 1 1-4-4-2Zm-133 12-1 6h6v-5l-5-1Zm104 0-3 6h4l2-5-3-1Zm36 0-3 4 4 2 2-3-3-3Zm-6 12-3 6h4l2-5-3-1Zm12 0-9 12h12v-11l-3-1Zm78 0-3 4 4 2 2-3-3-3Zm-58 12-4 2-1 2 5 2 7-2v-1l-7-3Zm-252 12-2 1-3 10 5 1 1-2 12-6v-1l-13-3Zm363 60-2 4 6 2v-4l-4-2ZM498 174l5 3v1l-5 2-5-2 1-2 4-2Zm-27 25 2 2-1 2-1-4Zm-18 24 1 1 1 2-8 7-1-2 7-8Zm372 12 1 4-3-1 2-3Zm-413 12 1 3-2 1 1-4Z"/><path fill="#0B0622" stroke="#0B0622" stroke-width="3" d="m658 258 2 1-1 4h-4l1-4 2-1Zm33 0 5 4v2l-6-3 1-3Zm144 84 2 1 2 5h-1l-3-6ZM486 474l29 12h28l27 22v2l-23 9-1 5 3 3 31 16 8 21-9 18q-15-1-22 5l-20-11-1-4 4-3-1-11-9 7-4 9-23 2-8 5-3-5h-33l-5-12-4 2v1l-3 1-6-4-3-11 3-5 34-20h37l3-2 7-13-10-9q-17 2-23-6l-6 5q-5-8-20-5l-19-9v-3h-6l1-3 17-3 10 6 20-8v-4Zm2 78-2 17 5 1 1-16-4-2Zm236-48 10 1-2 5h48l12 10-2 6-19 6-3-1-1-3-10 6-11-6h-38l-6-14 6-3 1-3 7 2 8-6Zm89 13 2 1 1 8-3 2-3-8 3-3Zm-122 29h44l3 4 2 2q8-2 10 4l3 7 5 1 8-4 6 4 2 4v2l-10-6-2 4q8 12 24 18v2l-12 2v3l-8-4 2-1-1-6-10-6-1 4 2 2-20 12h-8l-11-8-7-22-4 2v1l-11 6-3 7-15 2-5-2-1-5 5-8-5-6 18-15Zm43 6-2 4 5 2 1-3-4-3Zm-229 36 11 1-3 5-9-3 1-3Zm68 122 27 14v8l-15 23-11-16-9-4q6-4 5-14l-8-6 11-5Zm88 4 5 4-2 6-21 8-1-2 9-11 10-5Zm-165 84 25 12h19l11 6q21-3 30 6l65 1-7 5h-59l-8-6h-55l-23-8-2-12 4-4Zm203 30 4 1-1 4 1 1-7-2 3-4Zm-122 48 5 4v2l-6-3 1-3Zm6 18 5 1-1 3-5-1 1-3Zm-102 60 4 3v2l-5-2 1-3Zm2 13 2 1 8 14 23 12 3 7 31 13v4l-27 2-5-2-4-9-14-3-4-9-21-22 8-8Zm-98 11 5 4v44l-10 13-2 9 2 2-17-12-3-6v-35l6-1 8-10 10-5 1-3Zm134 6 5 6 4 1v2l-3 1-6-4-2-4 2-2Zm150 14 3 2 1 2 1 1-9 4-4-2 8-7Zm-26 10 4 3v2l-5-2 1-3Zm118 1 1 1v1l-7 3 2-3 4-2Zm-130 5 5 1v2l-9 3-2-3 6-3Z"/><path fill="#563542" stroke="#563542" stroke-width="3" d="m717 162 3 3-2 9-4-2 3-10Zm-162 18 3 3v6l-8-3 5-6Zm113 6 4 3-2 3-4-1 2-5Zm-47 24 3 3-2 3-4-2 3-4Zm19 6 2 7-1-1-4 1-1-1 4-6Zm50 0 6 3-9 3-1-4 4-2Zm-123 6 3 3-2 3-4-2 3-4Zm70 5 4 1h1l3 6-8 3v-10Zm80 1 3 3-2 3-4-2 3-4Zm-56 16 6 8 9 8 6 11-10-9-1-4-5 2-1 2-5 2v-6l-5 1-1-1 7-14Zm32 2 9 3v8l-7-9-2-2Zm-56 5 4 1h1l2 12 4-1v12l-3 1-4-6-3 2-4 10-14-4-6 4-2-8h2l19 2q7-7 4-25Zm54 11 5 2h2l4-1 6 10 5 2h1l1 1 5-1v4l-12 4v2l-7-9-16 5-2-6 2-1 3 1 2-4v-2l1-7Z"/><path fill="#563542" stroke="#563542" stroke-width="3" d="m621 264 3 2v4l-6-1 3-5Zm48 0 3 2v4l-6-2 3-4Zm-77 6 2 1-7 9-3 1-1-1 9-10Zm14 4v12l-4 2-3-11 7-3Zm-76 2 4 2-3 4-3-1 2-5Zm196 4 1 2 5-1q1 17 12 25h-2l-33-17 5-2 6 1 6-8Zm-232 2 4 1-2 5-4-2 2-4Zm52 0 30 1-3 5h-21l-23 12h-17v-1l17-5 11-8 1 2 5-1v-5Zm37 0 4 1-4 2v-3Zm177 13 2 1 3 10-2 1 7 5h-8l-13-9 5 3 3-1 5 1v-4l-4-2-2 1 2-5 2-1Zm-262 5 11 1-21 13-5 10-7 2-18 18-5 10-21 10 2 2 4 1q-7 5-6 19-9-5-6-22l24-13 8-13 16-11 4-9 6-1 10-15 4-2Zm284 2 14 12 6 10 14 6 1-6 5 2 8 20 10 6 1 3-1 5-12-2 3-4 3-1-1-5q-9 2-11-3l-7-13-29-17-1-9-5 2-1 2-6 2 9-10Zm62 52 8 2q-2 9 4 11l-12-13Zm37 0 4 6 3 3-2 3-4-2-2-3 2-1-1-6Zm-23 16 4 4 2 9h-1l-5-13Zm-436 14 4 2-1 4-5-1 2-5Zm442 1v22h-1l-5-11 6-11Zm-432 3v31l-11 4-1-3q8-7 6-24l6-8Zm-11 39 5 12-5 10v-22Zm443 12v6l-11 19-1-2 12-23Zm-444 24 2 17 15 1-5 3v2q-13-2-17 4l-1 9-17 34-1-5 24-65Zm433 3q7 4 5 19l-4 1-1-20Zm-386 2h29l20 16v1l-23-11h-19l-7-6Zm-15 5v2l-12 5v-1l12-6Zm63 1 19 10 1 2h-7l-13-12Zm26 6 10 6h-11v-1l1-5Zm18 1 21 13 1 4h-2l-21-9v-3h-5l5-3 1-2Zm12 14 19 19 16 6q-2 13 6 18l-21 44-19 6v-1l19-16 9-24-4-2q-5-16-18-24l-7-26Zm129 3 8 4 1 2-1 6-15 6-3 7 6 16-12 1-30 13 6 10-2 1-4-2v1l-6-16q8-11 24-14-3-14 4-17l19-9 5-9Zm22 0 4 2 1 4h-11v-1l4-2 2-3Zm16 0 2 1-8 5v-1l2-3 4-2Zm8 0h11l35 16v2l-46-18Z"/><path fill="#563542" stroke="#563542" stroke-width="3" d="m420 499 1 5 3 2 13 32-17 12 1 2 4 3-5 7 12 8 24 2 2 8 17 2 5 4 1 3-1 4-41-17h-13l-17-9-1-3 12-23q-2-16 5-22l-11-13 4-3 2-4Zm38 17 4 2-1 4-5-1 2-5Zm358 0 10 8 2 17-3 4q-30-3-45 9l4 9 11 7 7 12 8 2q2 11-3 15l-10 1 1-2q3-19-5-25l-28-13v-2l-27-8 2-16q15-2 20 6l6-6h45l4-3 1-13v-2Zm-106 12 10 2-1 4-11-1 2-5Zm-314 16v3l-5 10-1-5 6-8Zm93 8 3 3q3 12-2 15l-4-2q-3-13 3-16Zm49 6 2 10-5 2-1-8 4-4Zm314 7v18l-5 7-1-14 6-11Zm-197 3 8 14-6-5-2-9Zm53 2 6 2 6 19-6 9h4l2-1 2 7 22 2-1 4h-23l-29-11 11-1 6-12-6-14 6-4Zm1 6-1 3 6 3v-2l-5-4Zm-203 6 10 2-1 4-11-1 2-5Zm250 0 12 3v3l-12 2 1 4h-17v-1l10-7 1 2 5-1v-5Zm-270 6 8 6h-2l-6-3v-3Zm36 0q11-1 14 6h-21l3-4 4-2Zm24 0 23 1q-9 8-30 5l3-4 4-2Zm231 0 3 2-1 4-5-1 3-5Zm-105 4 14 8h-8l-6-3v-5Z"/><path fill="#563542" stroke="#563542" stroke-width="3" d="m726 594 11 1-5 3-1 2-5-1v-5Zm42 2q3 7 17 5l-5 3-1 2-5-1-6-9Zm79 2 5 9-5 7v-16Zm-477 8 2 2q5 27-9 34l-3-1q-5-28 10-35Zm15 4 1 2 4 2-1 4-3 2-1 3v-13Zm479 0 1 2 5-1v25q-8 7-6 25l-4-1h-8v-6l-5 2-1-9 3 1h3l2-4 9-5 1-15-6-10 6-4Zm-17 9 3 5 2 2-1 4-4 2v-13Zm-463 27v16l-4-3-2-5 6-8Zm-22 2 4 2q-3 18 6 25l7 3 5-3v26l-6 1-12-8 6-10-7-12-4 1-1-23 2-2Zm485 16 9 2 2-1-7 11-8 2-3-3 7-11Zm-299 44 8 5 7-5 3 6-8 2-6 17 12 20 30 21 15-17 11 11-20 12-29-12-25-1 5-8-9-19 4-7 2-25Zm28 0 11 6h-5l-7-4 1-2Zm23 11 7 3q0 10 8 14l12 3-8 5-10-7-7-14-6-2 4-2Zm51 0v2l-8 7v-1l4-6 4-2Zm-248 6v2l-4 10 4 3-5 9-1-17 4-6 2-1Zm271 0 5 2-9 17-33 10 2 2 2 2 1 4h-2l-6-5-6 11h-4l9-16 31-13 7-13 3-1Zm-184 55 3 3-1 3h-5l3-6Zm-3 18 8 1q-9 3-8 18l4 4q21-2 31 7h-29l-9-5q-5-6-3-19l4-5 2-1Zm20 0 16 6h13q4-7 18-6l23 12h7l9-6q3 7 15 7l-1 5h6v-6q13-1 18 6h25l16 10 1 2h-19l1-2v-4h-66l-35-18-4 6q-27 5-38-5l2-1-7-6Zm-109 7 11 16-4 3v1l-7-20Zm127 17 15 1-15 5-2-4 2-2Zm42 0 12 6h-2l-10-6Zm136 0 11 4 1 9-3 4-9 1-11-5 17-2-1-5h-16l11-6Zm-160 42 16 6h13l17 8-1 4-5-1-2-5-4 1q-2 15 6 20l7 3 14-11 3-11v-2l24 10 2 2 10-5v3l-11 11-24 9h-31l-11-6q-14 3-18-3-10-10-7-31l2-2Z"/><path fill="#563542" stroke="#563542" stroke-width="3" d="m593 876 9 1-3 5-5-1-1-5Zm-123 18 10 2-1 4-11-1 2-5Zm-49 1 25 33 5 2 9-7 4-11 34 16 2 8h8l13 12 4-6 3 3 2 21 14 5 8-5h31l35 18h49l5-3 2-8v-2l8-4 7 4 7-5-1 2-4 8 5 6-21 27 3-4v-3h-6l-1-4h-2l2-1-5-1-9 6-3 12 5 3-2 3 2 1-15 13-5 15-9 3-3 9-32 28-13 5q2 11-3 15l-31 27-2 10h-15l-37-17-3-5-59-29-24-18v-21l-12-23q3-22-6-30v-25h2l4-1v-5h-2l20-22q-1-14 6-18l1-37Zm31 47-4 11-22 16 9 16q5 10 20 11l13 24v11l11 3q7 4 7 15l29 7 1 11 11 1 1-16 37-2 16-6 1-10 13-5 5-7-30-2q-5-7-18-6-27-8-41-27l-17-5q-8-4-8-14l-8-2-26-24Zm18 6-2 4q5 7 17 8l1-10-16-2Zm48 30-2 2 3 11 18 11 3-1-1-17-14 6-3-10-4-2Zm30 6-2 5 11 1 1-4-10-2Zm121 0-3 6h3l3-5-3-1Zm-29 6-10 11 3 1 9-10-2-2Zm34 0-2 5 5 1 1-5-4-1Zm-34 6-6 11-16 9 2 4h11l17-7q-8-4-6-16l-2-1Z"/><path fill="#563542" stroke="#563542" stroke-width="3" d="m633 972 3 2-1 4h-5l3-6Zm30 0 3 2-1 4h-5l3-6Zm82 22 12 3-1 4 8 2-4 5 1 1q-4 6-15 5l-2-6h2l10-1-1-5-10 1v-9Zm-73 18 1 1-4 7h-5l8-8Zm69 8 3 1-3 5h-3l3-6Z"/><path fill="#1A4475" stroke="#1A4475" stroke-width="3" d="m550 186 13 9v1l-5 2v-1l-1-5-5 1v1l-6-2 4-6Zm256 48 4 3-1 3-5-1 2-5Zm73 96 3 3-2 3-4-2 3-4ZM771 990l3 3-1 3-3 2-1 3-1-5h-2l5-6Zm-3 13v5l-3 6h-8l8-5 3-6Zm-477 89 3 3-2 3-4-2 3-4Zm11 42 4 2v6l26 46 25 25 3 10-3 1-12-18-3 1v5l-9-6-14-26h-2l-17-33v-11l2-2Zm220 36 6 2-6 16-16 6-1-1 3-5 8-3v-3l-5-1 5-9h2l4-2Zm-161 60 5 4v2l-6-3 1-3Zm134 0 9 2-1 4h-11l3-6Zm-122 6 11 10 8 20 11 10 3 2h-17l1-2-11-24h-2l-4-16Z"/><path fill="#321933" stroke="#321933" stroke-width="3" d="m666 186 1 1-1 4 1 1-6-2 1-2 4-2Zm111 37 2 2-1 2-3-1 2-3Zm-123 17 2 1-7 9-1-4 4-5 2-1Zm34 0 2 1-3 5h-3l4-6Zm35 1 2 2-1 2-3-1 2-3Zm-31 5-1 2 5 12-2-2-4 1-4-1-2 11 6 2-3 5-4-2-14-21 4-1 9 6 8-6 2-6Zm26 6 2 1-3 5h-3l4-6Zm89 1 2 2-1 2-3-1 2-3Zm-210 11 4 6 9-5 2 6-1-1-5 2-2 4-10 2v1l-12 4v2l-8 3 2-3 5-2-4-1 5-3 1 2 9-6 2-4-2-1 5-6Zm27 0 6 4 1 2 5-2v3l-3 5h-16l2-7 5 1v-6Zm126 0 5 3v1l-5 2-5-2 1-2 4-2Zm-252 12 11 3v1l-10 4-1-2-5 1-1-1 4-5 2-1Zm25 0 6 1-1 4 3 1 3-4v-2q23-4 35 4 3-8 7 0l-2 2-34 2-5 7-24 9h-13l-10 8-5 10-7 2-11 16-13 8-3 8-23 12q-3 18 6 24l-6 8q2 16-5 23l-1-29h2l4-1-1-5-4 1-1-7 4-10-4-4 20-20 31-19 7-12 6-2 6-10 8-4 3-8 3 3 1 2q12 2 17-3l-1-3 1-4v-2l1-6Zm201 0 3 1-7 11-12-3 1-3 15-6Z"/><path fill="#321933" stroke="#321933" stroke-width="3" d="m516 282 1 1-1 4 1 1-6-2 1-2 4-2Zm220 6 8 4 1 2 9 6 2-1v7l-11-6-1 3-11-12 3-3Zm26 6 6 4v2l-6-3v-3Zm18 6h13l21 14 4 8 10 6q-3 5-6-1l-1-3-5 1v5l-18-9q-2-14-13-19l-14 10-8-5q13 1 17-7Zm51 30q16 11 25 30l7 4 7 20v18h-2l-4-3v-21l-5-8h-2l-6-16h-11l-1-4-11-5-3-8 3-1 3-6Zm4 12 2 6h3l-2-4-3-2Zm26-6 3 3v3l-6-3 3-3Zm4 67 5 12-5 10v-22Zm3 23 2 1-5 16-1-13 4-4Zm-487 6 3 3-2 3-4-2 3-4Zm39 13v18l-5 10-1-17 6-11Zm444 0v12l-6 9 6 9-6 11v55l-5 7-1-62h2l4-1q2-16-6-20l12-20Zm-401 23 23 9-21 8q-6-7-20-5l7-5 1-2 10-5Zm25 6 15 6h-5l-10-6Zm20 0h6l13 12h-11v-1l-8-11Zm-94 1v6l-5 10-1-5 6-11Zm24 5 5 1-5 3 1 2 5 1 2 3q8 10 29 8l9 6 6-5q5 8 21 5l10 9-8 14-39 1-35 22-1 9 6 8 5 1 5-2 6 10 32 1 3 5 9-6q17 4 23-3l7-11 1 8 1 1-1 2 5 6 17 9q-15-2-20 6-4-7-15-6l-8 6 2-3-1-3 1-4-10-2-2 5v2l2 5h-11l-15-6-1-4-17-2-6-3-1-9q-27 5-35-8l5-7-5-3 2-4 15-10-14-34h-3l1-18h11l2-4 4-2Zm20 36-2 5 5 1 1-4-4-2Zm87-30 13 1 2 3 10 3 8 28q13 9 20 25l2 1q-5 26-23 38l-17 3v-1l22-8 6-21-9-17-32-16-1-3 4-5 20-7-11-15-14-9Zm-137 7v6l-5 10-1-5 6-11Zm333 5 32 12h-40l-1-2 3-4h-2l8-6Zm-32 6 13 1-10 5-3-6Zm-7 6 5 1-5 3 7 15-1 4 11 1 1-4v-2q26-4 40 6 5-11 10-2l21-7 1-6-1-3h1l-3-5 3-1q6 7 20 7l-2 6 4 5 2-1v2l-3 4-47 1-7 6q-5-8-19-6l-2 14-2-2h-46l-18 15 5 7-5 9 4 4 15 1 4-3 5-8 11-7 3 7-1-1-11 4 6 15-6 11h-15l-16-8q-13-11-17-30l4 2 2-1-6-10 30-13 12-1-6-17 6-9 6-3Zm-300 1v6l-5 10-1-5 6-11Z"/><path fill="#321933" stroke="#321933" stroke-width="3" d="m749 552 16 7-9 5-5-3-2-9Zm-379 12 6 2 2 11-6 9 5 6-5 15-2-1-9 11-1-16 6-11q-3-18 4-26Zm395 0 9 6v-3l-1-3 22 12q6 6 3 22l-2 2h-24l-16-7 2-5q12-1 16 6h2l4-1-1-4 7-1-1-4-23-17 3-3Z"/><path fill="#321933" stroke="#321933" stroke-width="3" d="m757 576 7 6h-4l-3-6Zm95 7q-2 16 7 23l6 1-3 5-4 2q8 6 6 23l-3 4-9 5v2l-6-2q-3-13 3-16l3-1-1-5-3-1-2-8 6-9q-8-3-6-15l6-8Zm-131 3 7 8-8 2-2 4h-4l7-14Zm-331 6v8l-5 10-1-10 6-8Zm-6 27v27l-6 9q9 4 6 20l-6 3-9-5-4-25-4 1-1-7h2l8-7 3-13 8 2 3-5Zm465 35 3 1 1 5 5 1-2 5-10-2 3-10Zm-275 55 2 2-1-1-1-1Zm-14 5 10 7q1 11-6 14l11 7 10 14 15-23 1-10 13 19 5 2 21-12 2-4 9-8-9 10 1 2h6l16-9 1-6-1-3 7 4v8l-4 2-7 13q-23 3-35 17l-3 10-14-11-15 17-33-23-9-19 8-18Z"/><path fill="#321933" stroke="#321933" stroke-width="3" d="m584 714 14 6h-4l-10-6Zm-185 6 3 3-1 3-3 2-1 3-2-5 4-6Zm96 78-3 4q-2 10 4 13l27 8-1 4 1 1-12-6q-18 4-24-3l-1-9 9-12Zm8 0 10 6h-3l-7-6Zm50 6 34 18h-5l-11-6q-21 3-30-5l11-4 1-3Zm55 6 4 2v4h-6l2-6Zm40 12 6 1-2 5h-12l8-6Zm31 6 18 1-1 4 1 1q-15 4-19-3l1-3Zm26 0 3 2-1 4-5-2 3-4Zm-117 48 6 3 2 3 4-1 3-5 3 2q-1 14-11 19l-7 3-1-1 1-4-5-1-1 3q-8-4-6-16l3 1 4-1 4 1 1-4v-2Zm-136 66 30 25-8 9 28 31 13 5 5 7 27 1 5-3-1-3q13-1 19 6l30 2-5 7-13 5-1 10-16 6-37 2-1 16-11-1-1-11-29-7q0-11-7-15l-11-3v-11l-13-24q-15-1-20-11l-9-16 22-16 4-11Z"/><path fill="#321933" stroke="#321933" stroke-width="3" d="m470 948 16 2v6l-5-2-1 4 2 2-14-8 2-4Zm48 30 4 2v6l-4-2-2 1 2-7Zm-18 6 11 3q9 15 28 21h-5l-17-9-4-9-13-6Zm34 0 6 2-1 16-14-7 3-2v-3h-3l9-6Zm14 0 10 2-1 4-11-1 2-5Zm121 0 3 1-3 5h-3l3-6Zm5 6 4 1-1 5-5-1 2-5Zm71 3 2 3-4-1 2-2Zm-105 3 2 1q-2 11 6 14l-3-3-3 1 2 5-7 3-1-3-12 4 1 2h-5l-2-4 16-9 6-11Zm26 0 5 1-11 8 7 3 11-6v3l-5 7-9 8h-6l1-2-2-4h-3l6-15 6-3Zm102 2v5l-5 8-1-3h-3l7-6 2-4Zm-22 4 10 2-1 4-11-1 2-5Zm-355 1q8 9 5 30l12 23 2 22 3 2h-7l-22-28-4-1-2-4 12-20 1-24Z"/><path fill="#D3CED0" stroke="#D3CED0" stroke-width="3" d="m553 192 5 3-2 3-4-2 1-4Zm236 798 1 1h-1v-1Zm-2 2v2h-1l1-2Zm5 0v2h-1l1-2Zm-3 3 1 1h-1v-1Zm-438 1 9 3q2 11-3 15l-3 2 2 4 2 2 2 5-1-1-3 2-2 11q8 6 6 24l8 16 18 17 19 14 9 16-6 9 4 4 15 1 27 17 6-5 8 6q13-3 17 4-1 18 7 27l-6 11v19l-6 17 7 1-1 3 13 8 8-5 3-11-12-3 2-5 10-1q-4-20 3-28l-2-1 8-5 3 3 1 2-7 4 1 2 16 10 5 7 29 13-15 2 1 4h-1l-6-3v-3q-16-3-23 3l1 1 17 2 4 4 1 3-3 4-3 1q-7-8-24-6l-5 4-1 15 6 9-6 3 3 5h-11l2-3-3-8-8-4q0-14-8-19l-5-2-5 4-1 29 3 3h-24l9-17-2-1-3 5-4 1 3-10-3-2-14 7-1-1 4-5 8-4v-3l-4-1-2-5 4-5 3-1 12 6 4-3 1-3-3-5-14-4-4-14-9-1q-7 8-24 6l-9-5-6 5-6-5-6 5-24-17-17-29-13-13-24-60-3-1-5 4-1 20 4 2 2 5-1-1-5 2q-4 31 12 43l1-2 11 20 1-2 8 18 39 38 1-2 13 23h-2l-9-5-5-11-37-37-17-29-13-13q-2-21-15-30v-25l6-11-4-2-2-5h2l4-1-1-5-4 1-4-6 15-3 22-22q8-25 26-40v-23l3-3Zm426 0 1 1-6 5 5-6Zm-11 17-3 4-18 9 2 1-3 2v-3h-2l24-13Z"/><path fill="#D3CED0" stroke="#D3CED0" stroke-width="3" d="m361 1034 12 14 13 8-2 1v2l-2-3h1l-20-11-2-11Zm70 63 24 13h-5l-21-11 2-2Zm39 19 15 6-4 1-11-7Zm21 11 12 7h-5l-9-5 2-2Zm-184 8 11 25-4-3-7-22Zm208 4 12 7 3 4 13 8 11 16 19 8-9 2 2 4 7 1-6 10-14 1-1-6h-2l1-2-4-7 4-8q-21 1-29-10l-1-9-4 1-1-1 4-6h2l-9-11 2-2Zm-389 1 1 1h-1v-1Zm199 27 11 23-4-3-9-18 2-2Z"/><path fill="#D3CED0" stroke="#D3CED0" stroke-width="3" d="M530 1182q11 0 15 9l-4 8h2l6-5-3 4-3 8-11-17-3 2-1-7 2-2Zm487 0 1 1h-1v-1Zm-2 2v2h-1l1-2Zm5 0v2h-1l1-2Zm-3 3 1 1h-1v-1Zm-513 10v4l-5 10-1-5 6-9Zm60 9 5 4 1 3-3 4-3 1-5-3-1-3 4-5 2-1Zm-72 15v3l-2 6h-4l6-9Zm-129 3 3 2 3 4h-2l-7-1 3-5Zm208 0 5 3 1 3 6 1-1 4 1 1h-14l1-4v-2l1-6Zm17 6 11 3v1l-11 2v-6Zm-18 18 5 4 1 3-3 4-3 1-5-3-1-3 4-5 2-1Zm-175 18 6 4 1 4-7-8Zm37 6 9 6h-17l2-3 6-3Zm110 0 4 2 3 4h-11l2-3 2-3Zm30 0 4 2 3 4h-11l2-3 2-3Zm676 2v2h-1l1-2Zm21 4 3 3v3h-6l3-6Z"/><path fill="#C15555" stroke="#C15555" stroke-width="3" d="m681 204 3 3-2 3-4-2 3-4Zm-72 18 3 3-2 9-4-2 3-10Zm29 0 4 2-1 4-5-1 2-5Zm37 6 3 3 2 3-2 1v1l-6-4 3-4Zm24 0 3 3-2 3-4-2 3-4Zm-57 6 5 2-6 16-5-1 2-15 4-2Zm-57 6 3 3-2 3-4-2 3-4Zm73 0 2 9-6 14 1 1-6 3-1-15 10-12Zm34 7 8 7 2 9-4 1-6-17Zm38 5 2 10-9 2-3-2 10-10Zm-43 6 3 3-1 9-5-2 3-10Zm-14 4q10 5 12 19l1 1h-5l-5-6-7-5 3-1-1-5 2-3Zm44 8 3 3-1 3h-5l3-6Zm-74 4 4 2h1l-3 6h-3l1-8Zm-46 2 3 2 1 10h-1l-6-3v-3l-23 12h-13l-9-4 28-2 20-12Zm11 0 4 2 1 4-6 3-1-7 2-2Zm121 0 3 3-1 3h-5l3-6Zm-26 4 10 8-4 1-10-6 3-1 1-2Zm-160 2 3 2-1 4h-5l3-6Zm-1 11-1 4-11 3v-1l12-6Zm-32 7 11 1-33 19-7 13-12 7-2 8h-7l-20 20-2 4v49l-6 11v46l-2 2-10-1q-5-29 6-41l-6-14 12-5v-41l6-11-6-2 2-3 22-11 2-7 18-18 8-3 10-15 16-8Zm235 0 16 12h-11l-12-8 4 2h2l1-6Zm13 0 4 2v4l-6-1 2-5Zm24 6 4 2 2 8 32 22 6 10 8 2-1 4-4 2-20-24-29-17v-3h-5l5-3 2-3Zm60 48 14 14 8 17-5 10q-5-22-20-33l-4-1 5-1 2-6Zm37 0 3 3v3l-6-2 3-4Zm-15 67v18q-17 15-12 52-9-9-6-29l12-17q-2-17 6-24Zm-406 35 33 10 3-4 40 18 2-6 4 2 6 7-3-3-3 1-1 5-5-1-1-3q-9-10-29-8l-8-6h-34l-28 12v-1l20-12 4-11Zm100 24 2 1-2 1-1 2-5 2-3-1 9-5Zm-140 7 2 1q2 12-3 16l-3 2 11 13q-7 6-5 22l-12 24 4 4 14 7q16-2 23 6h-45l-2-3 5-6q-6-4-5-15 9-8 6-28l-2-2-10 9 22-50Zm287 5 3 2v7l-8-3-7 11-21 11-1 14q-16 2-23 13v4q-8-6-6-21l27-8 36-30Zm35 0 4 2 2 2 3 2q-12-2-17 4l-1 2-5-1-1-4 13-4 2-3Zm-169 1 10 5h1l8 10 25 14 3 13-12 17q2 13-3 19l-20 20q-8 6-23 3v-1l34-14 6-21 12-21q-8-6-7-19l-15-4-20-19 1-2Zm149 5 1 1-2 3-7 2 2-3 6-3Zm38 0 15 6h-5l-10-6Zm18 6q14-2 19 6h-2q-14 1-17-6Zm53 25 5 12-24 30q8 6 6 24l-5 8q-10 7-31 3v-1l2-3 23-2 4-3 1-13-10-3-7-14-12-6-1-7 18-8h25l4-3 2-14Zm-433 18v6l-5 8-1-3 6-11Zm253 6 5 18 8 11h-2l-5-3q-9-8-6-26Zm203 0v12l-5 10-1-11 6-11Zm-143 23 5 4v2l-6-3 1-3Zm-257 6 28 11 2-5 4 2 2 2 39 3q-9 8-29 5-9-9-30-6l-16-12Zm302 1 2 1-1 4h-5l2-4 2-1Zm-87 3 6 12-4-3-2-9Zm56 8 3 2 1 4-6 1-1-4 3-3Zm15 0q28-6 36 10l1 2q-9 9-31 6v-1l-1-5h-14l3-5v-2l2-3 4-2Zm-58 6q15-2 21 6h-11l-10-6Zm-290 1v12l-1-1h-4l5-11Zm314 5 15 6h-5l-10-6Zm163 0 3 3-1 3h-5l3-6Zm-21 1v16h-1l-2-5-3-1 2-5 2-1 2-4Zm-456 10v14l-5 10-1-17 4-6 2-1Zm456 32v18l-5 7-1-14 6-11Zm-286 5 10 2-3 11q-13 6-16 23l-5-1v-11l14-24Zm-175 13q10 12 5 41l-6 1v1l-24-10 1-19 5 3 1-8 5 9-6 9q5 7 17 8l2-35Z"/><path fill="#C15555" stroke="#C15555" stroke-width="3" d="m411 672 6 6 5 24 10 2-6 17 6 12q-7 4-6 18l8 17 22 2-5 8q10 6 13 20 16-2 22-15l1 3 5-1 1 7h35l2-18 10 2q-1 11-8 16l-4 1 2 3 15 3q-7 7-23 5-11-10-36-6l-5 4-1 15 6 8 5 3h-11l-12-6-11 9 7 15q11 1 16 9l-5 7 11 14v19l8 17 10 2 2 10 10 2q-2 12 4 16l4 1-3 5-18-12 1-4-4-2-2 1-1-5-33-14-9 16-5 2-16-13-14-22v-38l-16-33 4-3-12-16v-55l6-10-4-3 4-15-4-2h-2l-5 1-3-6 8-1 2-36 13-6Zm59 222-2 5 11 1 1-4-10-2Zm82-192 54 2q0 10 8 14l22 4-6 15 1 1q-18 3-23-7l-3-11-29-12-9 5-4-5-7 5-8-5-2 1 4-6 2-1Zm120 14 6 6-1 4-5-1v-9Zm-126 5v12l-4 10 9 17-5 7 1 1-7-1v-35l6-11Zm124 22-3 4-11 3v-1l14-6Zm-28 7 3 1-6 17-7-6-5 11-27 13-17-11 6-1 12 6 17-12 10-1 5-10 8 5v-2l-2-4-3-1 2-3 4-2Zm-82 18q15-2 21 6h-11l-10-6Zm10 24q17-2 24 6h25l5 4 2 2q6-8 23-6l23 14q0 10 8 14l3 2-5 1 2 5h-2l-11-5 5-1-3-5-14-7h-25q-9-9-30-6l-9-6q-4 7-15 6l-23-11q12 0 17-7Zm132 24q11-1 15 6l3 13-5 8-7 3-23-11 6-1q4 7 18 6l4-3 1-9-3-5-9-1-16 6v-1l16-11Z"/><path fill="#C15555" stroke="#C15555" stroke-width="3" d="M540 822q24-4 35 6h-11l-9-5-20 9-1 7 31 7 17 15-1 3-11 2 2 4q18-3 25 6h-15l-11-6h-13l-16-6-2 19 10 16q17-1 25 7h-23l-39-17-3-7q9-9 6-30l11-15-10-8q16 1 23-7Zm68 54 40 8-7 16-16 6h-17v-1l23-8 11-11v-3l-10 5-3-4-21-8Zm-79 75q3 7 18 3l11 6h25l16-6 9 16 19 8 3-2 1 2 5-1-1-4 14-1 9 5 2-1 1 2 5-1-1-4 8-2-1 4-1 7-4 2h-49l-35-18h-31l-9 5-15-6 1-14Zm169 9 10 9q-7 18-22 29l-3 16h-7l-14 14-5 11-43 43-13 25-17 11-15 28-16 6-11-5 4-1 2-10 24-24 9-5 3-15 11-3 34-30 3-9 9-3q1-19 15-25l13-2 3-3 24-36-5-6 5-8-2-1-6 5v-1l8-7 2-3Zm-17 6 3 3-2-2-3 2 2-3Zm-287 6 2 1-1 5h-4l3-6Zm246 18 2 2-9 10-3-1 10-11Zm99 6 5 3 2 15 15 1-16 8-1-3-5 2v-26Zm19 0 10 1-3 5-9-1 2-5Zm-367 67 13 17h-1l-10-6-2-11Zm20 17q15 2 21 15l41 21h-4q-37-12-58-36Zm75 41 8 7v1l-12-6 4-2Zm32 19 12 6h-2l-10-6Z"/><path fill="#EC946B" stroke="#EC946B" stroke-width="3" d="m679 234 5 3-2 3-4-2 1-4Zm-10 24 3 3v3l-5 1h-2l-5 3 1 2 6-1 7 7-2 1-1 3-35 8-15 12q-5-9-21-6l-11 6h-43q-9 13-30 14l6 14q-7 3-6 15 9 9 8 29l10 2-1 16-17 2v11l-16 19-2 11 20 21 41 2 29 18h7l23 12h13l15 11 9-5 9 5 27-11 5 4 1 2 3-1 4-11 16 6h37l11 6h37l16 6 7-17v-19q9-9 6-30l6-9 12-4-37-71-11-1q0-11-7-15-21-2-32-13l-7 4-27-21-17-2-9-5-13 5-2-6 9-12 51 30 30 1 2 3q27 12 44 34l4 10q15 1 20 14l8 14q-2 15 6 21v12q-8 6-6 24l-12 17v19l6 11v61l-5 10-1-5-6 2-11 32 5 6-7 14h-53l-11 6h-37l-11-5 48-1 9-6h33l8-5q5-6 3-19l-6-12 24-30-12-22-17-2-11-5-1-4-49-12-1-3-5 2-1 2-17 2-9 6-4-12-38 30-27 8q-2 15 6 22v13l10 16 8 5 7 12 17 8q16-2 23 6h-23l-23-12-3 6-7-5-15-36q3-14-3-18l-15-1-10 8-2 23-6 11v31l6 12-11 27 5 6q-7 3-6 15 6 17 20 27l23 2 12-6 9 5 6-5 14 8v11q-7 4-6 18l-13 23q-11 0-15 8l-3 10h-11l-24 12-6-3v-3h-5l28-15 3-9 7 6 7-18q18 3 24-6l8-17v-2l-1-5q-5-8-18-6l-16 9-7 12-5 2-1-1 6-14-18-2-10-7-3-11h-53l-5 4q1 17-7 26v35q20-2 30 7h13l16 12-5 1 2 5 15 6h-17q-7-8-24-6l-9 6h-27l-6-3v-3h-36l-1-12-5 2-13 14-9 2q-3-14-13-21l5-7-24-3-6-23 6-12-6-12 6-16-12-3q4-23-8-29l-16 8v34q-10 2-12-3l1-3h5v-30q-10-11-6-36l6-11v-69q9-6 6-24l10-10 2 2v17q-7 4-6 18l5 9-5 7 49 1 17 12h19q8 9 30 6l11-6h49l26-23q5-6 3-19 11-8 12-24l-5-9q-20-5-31-18l-6-13-18-8-9 4-9-7-1-3-5 2v4l-40-18-3 4-33-10-9 16-18 8 1-2v-46l6-11v-49l22-24 8-1 4-10 11-6 11-17 28-14q16 3 21-5v-2l8-3q5 6 20 4l23-12 2 4 9 2 3-4 10-3 1-2 3-1 13 4 5-12 3 12 3-1 2-13 4-4 14-2 3-4ZM476 612l-2 2 12 25-6 9v31l6 11q1 13-6 18v13l6 16 29 13q11-15 7-46l11-2 1-18 5-8-5-9 12-24q-4-21 6-28l-1-3h-53l-8 6-14-6Zm84 42-14 24v11l5 1q3-17 16-23l3-11-10-2Zm-30 120-2 18h4q7-5 8-16l-10-2Z"/><path fill="#EC946B" stroke="#EC946B" stroke-width="3" d="m609 270 3 3v4l-4-1-2 1 3-7Zm88 6 2 1-19 17-2-13 3 1 16-6Zm-178 6 3 3-2 3-4-2 3-4Zm327 303v22l-3 5-2 1-1-19 6-9Zm-124 15 10 1-3 5-9-2 2-4Zm119 17 3 3 2 29-5 10v-42Zm-167 43 4 2-1 10-5-1 2-11Zm166 7 2 11q11 1 14-6l2-4 1 4 5-3v18l-3-3-3 1-5 14-13 5q-1 11-8 16l-4-1 6-16v-25l6-11Zm-477 5 3 3v9l-6-3 3-9Zm29 48 4 1-2 5-4-2 2-4Zm438 12 4 2-1 4h-5l2-6Zm-90 36q18 3 25 18l5 24q15-1 20-13l8-20v27l-38 90q-15 1-20 13l-2 41q-10 9-6 32l12 18-2-2-4 1 1 29 4 1-5 3q-2 13-13 18l-19 7q-7-7-22-5l-11 9 5 7-15 27-11 11-39 28-6 11-24 15h-7q-7-8-23-6l17-7 2-9 18-24 13-7 11-23 43-43q5-17 19-25l8-1 2-15q15-11 22-29l-10-9-9 10-8-4q-7 8-21 8l-2 3q-8-8-26-5l-5 6-25-13-3-11-16 6h-25l-11-6q-15 4-19-3l-1-9-9-1-3-17-11-1-1-11-11-1-6-16v-19l-11-15 5-6-18-10-5-14 12-9 11 6h37l10 9-11 15q3 21-6 31l6 8 36 15h73l17-7 6-15q-20 1-29-8h-21l-9-6-19-1 2-5 10-1-11-14-37-10 4-10 18-6 9 6-1 2 8 7q19 2 29 14l15-12q4 12 21 12l12-6 9 5q10-3 8-19l-2-4 45 18 8-5 3-13-5-9-13-3-18 12-10-7-3-11-9-2-13-9q16 1 21-8l4-17 29 18 9-6 9 6 17-7 2-17Zm-54 72-2 2 2 22 16-1-1-13-15-10Zm-50 72-8 6-6-5-20 7-7 7 8 8 8-5 3 12 7-6 12 11 26-13q7-4 7-14l-17-8h-13Zm-70 12-2 5 11 1 1-4-10-2Z"/><path fill="#EC946B" stroke="#EC946B" stroke-width="3" d="m639 792 3 2 2 2 3 2q-15-2-21 6l-3-4-4-1q15 1 20-7ZM500 930l4 2-1 4-5-2 2-4Zm186 138 10 1-3 5-9-1 2-5Z"/><path fill="#F9D997" stroke="#F9D997" stroke-width="3" d="M666 264v6h-5l-1-2 6-4Zm7 12 5 4 1 14-1 6-21-11-8 5-1-6-6 4-6 14v19l-6 11q4 17-3 23l-8 4 11 13-9 8-6-5-3 6 6 9-3 2-9-6-5 4q-1 16-12 23l-12 7-1 15 10 16 18 6q7-9 27-5l8 6 7 11 3 1 12-6 12 6q10-10 36-6l9-6 21 12 12-6 9 5 8-11q-7-5-6-18l-13-22-11-5 12-14q-3-14 4-18l7-4 7-20v-25l-3-5q-29-11-48-30l10-1 32 23 7-4q11 11 31 13l5 6 4 10 10 2 9 23 7 7 20 39-15 7q-6 7-3 25l-6 11v19l-7 17-16-6h-37l-11-6h-37l-16-6-5 12h-3l-1-4-5-2-27 11-9-5-9 5-14-11h-13l-23-12h-7l-29-18h-37l-22-19-2-11 15-17 5-19 16-1-1-17-11-1v-17q-7-5-6-18l6-9-6-13q21-1 30-14h43q6-8 24-6l9 6 14-12 36-9 1-3Z"/><path fill="#F9D997" stroke="#F9D997" stroke-width="3" d="m700 276 2 6-9 6-3 11 1 1-7-3v-3h-2l18-18Zm5 19 8 5h-15v-1l7-4Zm-81 251 3 1-9 17v7l6 9-6 8q2 15-5 22l5 6-6 3v10l-6-10v-31q9-9 6-30l8-10 4-2Z"/><path fill="#F9D997" stroke="#F9D997" stroke-width="3" d="m634 546 7 4 1 15 12 23v7l9 11 3-2 1-4 23 12q25-4 36 6h37l11-6 54-1 6-14-5-6 13-33 4 1q5 25-6 35v73l-6 11v25l-6 16 4 1 10-18 13-5 4-13 5 4q3 21-5 30l-1-16-24 22 1 2 19 1-4 11q-33 7-50 31l-10 28-11 11-9 2q1-31-19-39l-11-3-3 18-17 6-9-6-9 6-28-18q0 16-9 22l-17 2-6-3-1-2v-2l-2-4-3-1-6 4 1 2 7 1q-6 9-26 5l-18-7 1-5 11 1 2 3 5 2q11-13 35-13 0-11 8-15l10-3 2-9 10-13q-1-14 6-18v-11l-15-8-6 5-9-5q-9 9-30 6l-16-13-8-16v-7l6-9-5-6 11-26 1 5 11 9-6 9q2 17-6 25l10 16 15 1 4-3 1-117-6-11q3-15-2-19Zm71 73-4 8-13 4-4 5 1 3 17 12-11 19 8 3q7 6 3 24l8 16q5 8 19 8l4 8 5 3 9-1 15-34-6-12 5-10-11-6 29-30-13-8-12 11-9-6-25-6-15-11Zm-31 41-2 11 5 1 1-10-4-2Zm156 72-2 6h5l1-4-4-2ZM476 612l14 6 8-6h53l1 3q-10 7-6 28l-12 24 5 9-5 8-1 18-11 2q4 31-7 46l-29-13-6-16v-13q7-5 6-18l-6-11v-31l6-9-12-25 2-2Z"/><path fill="#F9D997" stroke="#F9D997" stroke-width="3" d="m861 660 3 3-3 9h-3l3-12ZM566 828h97l3 4q2 16-8 19l-10-5q-5 7-18 6l-15-12-15 12q-10-12-28-14l-8-7 2-3Zm120 12 15 10 1 13-16 1-2-22 2-2Zm-50 72h13l17 8q0 10-7 14l-26 13-12-11-7 6-3-12-8 5-8-8 7-7 20-7 6 5 8-6Zm-70 12 10 2-1 4-11-1 2-5Zm178 102-1 2-4 6-1-4 6-4Zm-60 24q16-2 23 5l9-5-19 20-1-2-12 2 2 4 6 1-19 9-14 18-6 2 10-11 15-28-5-6 11-9Zm-299 6 2 1 3 10h-1l-4-11Zm233 72 2 1-11 16-7 1v-1l7-4 7-12 2-1Zm-55 24 12 6h-5l-7-6Zm-124 114 17 1q2 9-3 11-12 3-15-3l1-9Z"/><path fill="#FCEBCA" stroke="#FCEBCA" stroke-width="3" d="m646 288 2 1 1 5 9-5 20 11 1-6 5 1 2 3 31 2q21 21 50 34l1 27-9 22-8 5q2 22-13 29l16 11 14 35-8 10-10-5-12 6-21-12-8 6q-26-4-37 6l-12-6-12 6-5-3-6-12q-8-6-25-3l-9 5-20-8q-9-8-7-27l4-5 17-12 7-18 3-1 9 6 2-3-6-9 3-5 7 5 8-9-11-12 10-6q-2-22 7-32v-19l10-18Zm-18 258 8 4q-3 18 6 26v115l-3 4-15 1-5-3-7-15q8-7 6-24l6-9-12-9 1-18 5-2-5-7q8-6 5-21l6-9q-7-3-6-15l10-18Zm77 73 15 11 25 6 9 6 12-11 13 8-29 30 11 6-5 10 6 12-15 34-9 1-5-3-4-8q-14 0-19-8l-8-16q4-18-3-24l-8-3 11-19-17-12-1-3 4-5 13-4 4-8Zm151 83 2 1q3 16-3 23h-21l22-24Zm-220 84 5 4 1 2h-11l-1-2 6-4Zm106 245-3 4-1-2 4-2Zm-80 241 4 2-1 4-5-1 2-5Z"/><path fill="#F1ECE3" stroke="#F1ECE3" stroke-width="3" d="m788 991 3 1v3h-4l1-4Zm-11 6 2 1 1 12 12 23 12 43 12 17v13l19 20q9 9 28 10l3 10 27 2 3 10 33 18h21l16-6 36 15 23 21q13-1 18 6h25l23 12h19l11 6h13q6 8 24 6l65 30 24 8v3l-581 1v-1l-1-5-5 2 1 4h-81l-5-6-5 2-3 4q-17 4-21-3l-1-3-5 2-3 4h-23l-4-3 1-3 5-2q-9-6-6-22l4-5 15-1 12 6 4-3 1-3-3-5-20-3 1-2 22-2 2 4 4 2h43l4-2v-2l-23-2-2-6-4 1v5l-35-15-4-8-15-7 4-6 8-1 3-4 1 1 11 16 7-12 2 1 1 5q12 3 16-3l5-9 2-1-1-5-21-8-6-5-7-14-15-8 14-1q5 8 21 6l8 6h15q9-11 27-14l10-15v-2l49-35 5-10 15-4 28-28q13-2 18-12l2-4 4-2 2-4 3-1-2-1 21-12 11-17Zm-213 209-2 1-4 5 1 3 5 3 3-1 3-4-1-3-5-4Zm6 42-2 1-4 5 1 3 5 3 3-1 3-4-1-3-5-4Zm-212-222 2 2q-2 14 6 19l17 9-2 1 4 2 12 19q23 3 33 20l2 3 58 27 2 3 22 9 8 10v2l-4 2-6 25-2 1-17 42-7 5 1 3 5-2v2l-3 6h-9l6-17v-19l6-12-6-11q3-14-3-18-18 2-24-7l-6 5-26-17q-14 3-18-3l-1-3 6-9-17-24q-20-6-29-22l-8-16v-13q-7-5-6-18l4-6Zm-75 60 3 2 6 16 2 1q-10 10-6 36 12 10 15 30l13 13 17 29 37 37 8 13 9 4 3 8-3 3H10l-3-1-1-97 2-3 17-7h13l11-6h25l23-18q20 3 31-5 4 7 18 5l58-26 13-10h25q4-7 18-6l23-18Z"/><path fill="#F1ECE3" stroke="#F1ECE3" stroke-width="3" d="m306 1098 5 4 1 9q16 18 21 48l13 13 20 31 22 15 6-5 6 5 6-5q5 8 21 5 4-7 18-6l4 4 5 13 13 5 1 3-3 4-3 1-12-6-5 4-1 3 4 5 2 1-1 3-10 6-1 7v10l-6-3q-6 9-23 6l-7-3-3-8-6-1q-3-25-21-34l-4-1-2-4-1-3-4 2-3-13q-24-16-33-46l-2 1-20-46h-3q-4-17 4-23l2-1Zm710 85 3 1v3h-4l1-4Zm-536 59 10 8 6 15 7 5 1 5-3 3h-23l-4-3v-27l4-5 2-1Zm-20 18 2 1-5 7-1-2h-2l3-1 3-5Z"/><path fill="#4083B0" stroke="#4083B0" stroke-width="3" d="m774 995 2 2-7 10-1-5 4-6 2-1Zm-414 14v16h-1l-2-5-3-1 2-5 2-1 2-4Zm-58 119 4 2v5l-4-1-2 1 2-7Zm-1 19 12 24-1 2-12-20 1-6Zm217 11 4 2 2 8q8 9 27 9l-4 9 4 7-9 6-1-1 4-7q-4-9-15-9l-4 12-4-1-1-3h-2l1-2h2l6-16-6-2-5 3-1-2 2-13Zm-6 21 1 3 3 1-1 3-7 2v-1l4-8Zm-194 1 4 4 3 5-1 2-6-11Zm248 2 10 3-2 3-10-1 2-5Zm-60 9-1 2 1 1 5-1 2 2-3 5-1 24-11 2 1 4-7 3 1 3 11-1-1-4 6-1 1 7-5 8-7 3-12-8 2-4 2-1 16-44Zm-172 15 8 6 1-6 3 2 11 16 3-1 2 7 12 6-2 1 1 6-1 2-38-39Zm27 24-1 3 6 3v-2l-5-4Zm193 0 16 2-1 4-17-1 2-5Zm30 0 4 2-1 4-5-1 2-5Zm-199 16 5 10-4-3-1-7Zm-7 6 4 4 6 11-7-6-3-9Zm75 2 3 2q2 8-3 10-12 3-15-2l2-4 13-6Z"/></svg>