<svg viewBox="0 0 618 624" xmlns="http://www.w3.org/2000/svg"><path stroke="#000" stroke-width="3" opacity=".004" d="M.5 0 618 .5l-.5 623.5L0 623.5.5 0ZM305 24l-8 6-38 14-3 5-3 1-18 20-1-1-16 16-26 46v7l-18 41v13l-18 35v13q-7 4-6 18l-18 29q-2 14 6 20v13l12 23q-2 14 4 20l-1 3h-2l-1 6h3l1 3q-7 8-4 27l-9 18-27 12-60 19v7l20 34 31 31 5 11 11 10 33 19-1 2 7 4-1 2q3 6 15 5v6l41 18h19l35 12h93l35-12h19l17-12h7l16-8 13-13 18-9h11l1-10 11-2 3-11 37-37 14-29-17-4q-10-14-28-20v-1l-9-8-6-9-11-1-1-11-2-1-4-11-2-1-10-24v-17l-2-1-3-4 5-19 6-1v-61l-6-11v-41l-5-1-1-23-5-1-1-35-5-1-7-18-2-23-3-1-1-7-18-40-5-1-1-11-2-1-22-23-11-1-1 2q-16-2-21-14h-58Z"/><path fill="#54210F" stroke="#54210F" stroke-width="3" d="m306.5 24 54.5.5-1 3 15 32-2 1 5 3-.5 3.5-7.5-1.5 2-7L358.5 36 348 33.5l-.5-1.5-31-2-10.5 6.5 2 5-19.5 5.5-.5-2.5q7.44-3.06 6.5-14.5l12-6Zm78 12 6.5.5-1 4 7 4L408.5 58l3.5 1.5-.5 1.5 2.5 1.5.5 3.5 2.5.5-5.5 9.5-4 2-3.5-2.5L388.5 41l-2 1-2-6Z"/><path fill="#54210F" stroke="#54210F" stroke-width="3" d="M326.5 42q12.25-3.25 15.5 2.5l-.5 5.5-15-8Zm-8 18 1.5.5-11.5 5.5v-1l10-5Zm4 0 9.5.5-2.5 4.5-3 1-2.5-1.5-1.5-4.5Zm44 8-.5 1.5.5 2.5 2.5.5-2.5 3.5-1-2-2 3-11.5 6.5-1.5 2.5-5.5 3.5 2 1-22.5 11.5h-7L307 96.5l3.5-.5 12 4 17.5-9.5-3-1 13.5-9.5 1.5.5.5-1.5 3-1 4-2 1.5.5 5.5-8.5Zm11 3 1 7 15.5 8.5 2 11-6.5-5.5-18-8-5 3-1-3-3.5-.5 6-4 1.5-2.5 3.5-2.5 1.5-2.5 3-1Zm43 7 .5 1.5h-1l.5-1.5Zm-158 10-4 5-1-2 5-3Zm19 2 5.5.5-18.5 9.5v-1l3.5-1.5.5-2.5 1 2 1-3 1.5.5.5-1.5 1.5.5.5-1.5 1.5.5 1.5-2.5Zm8 0 15.5 5.5-5.5.5-10-6Zm149 28 8.5 2.5 3 6-1.5-.5-4.5.5 1.5 5.5 4-1q-1.95 16.45 5.5 23.5l-1.5 1.5-7.5-7.5-2-17-7-12 1.5-1.5Zm-22 20 1.5.5-1.5.5v-1Zm1 13 .5 1.5h-1l.5-1.5Zm9 0 3 6 1.5.5 9.5 15.5 7.5 3.5q9.29 8.21 8.5 26.5l5-2 1 3 5-1 .5 1.5-3.5 5.5-2.5.5-.5 5.5-8-12-1.5-.5-1.5-2.5-12-6-1.5.5-7-21 2-1-.5-5.5-5 2v-19Zm-10 3 .5 1.5h-1l.5-1.5Zm40 19 4 1 1.5-.5-2.5 6.5-3-7Zm-200 7 13.5 6.5-1.5.5-12-7Zm130 3 1.5.5-1.5.5v-1Zm-109 3 10.5 3.5-.5 4.5-1-3-9-5Zm3 4 3.5 2.5-1.5-.5-2-2Zm-31 12 .5 1.5h-1l.5-1.5Zm4 0 1.5.5-1.5.5v-1Zm99 2 7.5.5.5 5.5 13-6-2 3-1.5-.5-.5 1.5-1.5-.5-.5 1.5-11 6-2.5-5.5v-2l-1.5-3.5Zm-76 4 5.5 4.5 2 3-2.5.5-5.5-3.5.5-4.5Zm69 2 2.5 6.5-1.5-.5-4.5 1.5-5.5 8.5-1.5-5.5 3.5-4.5 3.5-2.5.5-1.5 3-2Zm-91 1q5.46 7.04 19.5 5.5l-11.5 4.5-4.5-2.5-.5-1.5-5 2-.5-2.5 2.5-5.5Zm141 5 .5 1.5h-1l.5-1.5Zm55 38q7.39 6.11 5.5 21.5l-11 3-13.5 21.5.5-1.5 1-2-1-2 12-23 .5-13.5 5.5-.5.5-3.5Zm-259 18q-1.96 11.96 4 16l3.5.5-3.5 5.5-7-6-2.5 1.5-.5 4.5-2.5-.5-1-3 9.5-18.5Zm24 1 .5 13.5h-1l-2-10 2.5-3.5Zm-3 5 .5 3.5-2-1 1.5-2.5Zm201 2 3.5 1.5-4.5.5 1-2Zm43 2 3.5 1.5 1 3-1.5-.5-3.5-1.5.5-2.5Zm-253 6 6.5 2.5 1 5-1.5 2.5-6-10Zm261 6 3.5 2.5-.5 5.5-5.5-4.5 2.5-3.5Zm-266 7q7.56 6.44 5.5 22.5l-1 2 2.5 4.5 1.5.5 3 6-1.5-.5-1.5-.5q-12.48-10.25-8.5-34.5Zm231 2 2.5.5-3.5 8.5-2.5-.5 1.5-3.5 3.5-1.5-6-1 4.5-2.5Zm33 1 5 4 1.5-.5q9.17 6.83 5 27h-1l-2.5-4.5-2.5.5-.5 4.5-3-5-2.5-.5.5-25.5Zm-49 3 .5 4.5-5.5 10.5.5-1.5-1-3 2.5-4.5 1.5.5-1-2 2-1 .5-3.5Zm-126 4 2.5 1.5-3 1-1.5 3.5-5.5-4.5 7.5-1.5Zm55 1 3.5.5.5 1.5 1.5-.5-1.5 5.5-4-7Zm83 10 .5 2.5-6 11v31l-5.5 10.5-.5-35.5 5-7-.5-1.5 1.5-.5 5.5-10.5Zm30 14-.5 1.5-4 13q8.33 10.17 6 31l5 5v19l-2.5.5-3.5-1.5-8.5-24.5-5-1-2.5 1.5-13.5 20.5-.5-5.5q9.5-10 6-33l19.5-24.5 4-2Zm13 1 4.5 6.5-4.5 8.5v-15Zm-258 12 5.5 15.5h-1l-4.5-15.5Zm252 17 5.5 3.5-.5 8.5-5.5-.5.5-11.5Zm-229 7 .5 4.5-4 11 3.5 4.5-2.5.5-2.5 3.5-.5-2.5q-1.62-15.12 5.5-21.5Zm-12 9 1.5 13.5-1.5 3.5-4-3-1.5 3.5-.5 9.5-3-1-2.5-.5-.5-8.5-1.5-.5-1-2 9-1 .5-12.5 3 1 2-2Zm-9.5 22-1 2 2 1-1-3Zm202.5-7 7.5 10.5-2 1q-1.75 9.75 4.5 11.5l13 6 1-2 22 8 13.5.5-2.5 6.5q-6.17 6.83-21 5l-35-24-7 16-.5-4.5 6-14-4 2 6-7h-2l.5-15.5Zm-198 16 3.5 1.5 2 7q-4.5-4.51-9 4l3-9-1-2 1.5-1.5Zm-18 2 4 7 1.5.5-6.5 15.5-5.5-2.5-1.5-3.5-4.5-2.5 1.5-3.5 10.5-1.5.5-9.5Z"/><path fill="#54210F" stroke="#54210F" stroke-width="3" d="m214.5 418 .5 1.5-3.5.5v-1l3-1Zm27 19 .5 1.5-2 1 1.5-2.5Zm253 1 9.5 3.5-2.5.5-7-4Zm-279 10 .5 2.5-2.5 5.5-3.5-.5 5.5-7.5Zm24 18 .5 1.5-6 11v22l-3.5 3.5-5.5-.5q5.75-2.75.5-5.5l-10.5 9.5-1.5 2.5-3.5 2.5-.5 1.5-2.5 1.5-8.5 15.5-1.5-.5q.12-13.38 8.5-18.5l1.5-.5 11.5-17.5 8.5-4.5 7-15-3-1 2.5-4.5 1 2 1.5-.5 3.5-4.5Zm-46 44-1.5 2.5-5.5 11.5-.5-2.5 5.5-10.5 2-1Zm-17 31 3.5 1.5-2 1-.5 2.5-5.5-.5 1.5-3.5 3-1Zm15 6 .5 7.5-17.5 23.5-1-2-2.5-.5 3-5-2-1 2-5-3.5-.5-1.5.5.5-1.5 10-8 1 3 8.5-5.5 2.5-5.5Z"/><path fill="#A74213" stroke="#A74213" stroke-width="3" d="M361.5 25 375 36.5l3 16-3.5 1.5-2-3-1 2L360 26.5l1.5-1.5Zm-69 6 1.5 2.5-7.5 12.5-3.5 1.5 2 1-3 2-.5-2.5-5 1-2-11-1.5-.5 19.5-6.5Zm104 11L410 53.5l-2 1-.5 1.5-11-14Zm-130 12 3.5 2.5-1.5 3.5-4.5-1.5 2.5-4.5Zm46 6 4.5.5-14.5 5.5v-1l10-5Zm-73 4 .5 2.5-5.5 8.5.5-3.5 4.5-7.5Zm131 3 .5 1.5-2.5 3.5-2.5-.5.5-2.5 4-2Zm-139 10-15 16-1-2 16-14Zm134 1 .5 2.5-5.5 3.5-.5-2.5 5.5-3.5Zm7 7q16.86 4.14 25.5 16.5l-2 1 3 5-2.5.5-8.5-5.5 2-1-3.5-4.5-2-1-1 2-9.5-7.5-1.5-5.5Zm-27 9v2l1.5.5-22.5 11.5h-7L289 96.5l11.5-.5q8.65 9.35 30 6l15-8Zm81 0 11.5 23.5h-1L426.5 94Zm-74 2 9.5 4.5-.5 1.5-9-6Zm-134 6 3.5.5-9.5 11.5-2.5-.5 2.5-5.5 3.5-2.5 2.5-3.5Zm18 0 2.5 1.5-2.5 4.5-2.5-.5 2.5-5.5Zm38 0 5.5.5-25.5 12.5-1-2 21-11Zm92 3 2 4 6.5 4.5 4 10-1 2 18 34v16l-1 3 .5 1.5-8.5-5.5-21-42 .5-27.5Zm78 21 5.5 2.5-2.5 3.5-3.5-2.5.5-3.5Zm-31 4 5 2 1.5-.5-2.5 6.5-3.5-2.5-.5-5.5Zm-174 24 .5 8.5-5.5 10.5-1-5-1.5-.5 2-5-2.5-.5-1.5.5 3.5-5.5 1 4 5-7Zm181 18 5 2 1-2 5.5 9.5-2.5-1.5-4 1-2.5-1.5-2.5-7.5Zm-54 8 4.5.5-15.5 5.5v-1l11-5Zm-18 6 4.5.5-14.5 5.5v-1l10-5Zm-60 4 8.5 13.5-3 1-.5 4.5-1-2-1.5-.5-5-8 2-1 .5-7.5Zm99 2 7.5 5.5v2l1 4-1.5.5h-4l-6.5-3.5.5-1.5 5.5-1.5-2.5-5.5Zm39 2 5.5 13.5h-1l-4.5-13.5Zm12 2q9.98 6.02 12.5 19.5l-6.5.5-6-20Zm-206 2 .5 1.5h-1l.5-1.5Zm13 0 10.5.5-16 7-.5 5.5-3-1-8 10-.5-10.5 5.5-8.5 1 3 11.5-3.5-.5-2.5Zm219 0 3.5 2.5-2.5 3.5-3.5-.5 2.5-5.5Zm-287 6 2.5.5-.5 2.5-5 2-.5-1.5 3.5-3.5Zm152 2 .5 4.5-5.5 10.5-.5-4.5 5.5-10.5Zm-49 10 8.5.5-1.5 2.5-4 2-3-5Zm-25 1 7.5 4.5-11.5.5.5-1.5 1.5-2.5 2-1Zm86 3 .5 8.5-1.5-.5-4 2-.5-2.5 5.5-7.5Zm30 0 1.5 2.5-1 4 1.5 2.5-14.5-1.5 2.5-3.5 10-4Zm28 2 6.5 2.5 2 10-1.5.5-3.5-2.5-1.5-4.5-9.5-.5 7.5-5.5Zm51 0 6.5.5-1 4-.5 2.5-4-1-1.5.5.5-6.5Zm-223 1 .5 5.5-4.5 8.5-1.5-2.5 5.5-11.5Zm125 1 1.5.5-1.5.5v-1Zm110 4 2.5 1.5-1.5-.5-1-1Zm-124 2 1 3 2-1 .5 14.5-5.5 11.5-.5-6.5 1-3-1-6 2.5-12.5Zm-135 2 .5 1.5-5.5 10.5-.5-3.5 5.5-8.5Zm170 2 4.5 2.5-2.5 3.5-3.5-1.5 1.5-4.5Zm33 5 1.5.5-3.5 6.5-2 1-.5-2.5 2.5-4.5 2-1Zm52 1 7.5 1.5 1.5 3.5 1-3 2.5 3.5-12.5.5-2.5-3.5 2.5-2.5Zm-236 5 4.5 3.5-1.5 3.5-3 1v-8Zm-25 3 .5 3.5-5.5 10.5-.5-3.5 5.5-10.5Zm204 2 .5 3.5-1 3 1 6-4 6-.5 2.5-1.5.5-3.5 10.5-2 1-.5-2.5q8.44-6.06 6-23l5.5-7.5Zm-228 8-.5 1.5q-13.95 15.05-19.5 38.5l-5 1-4.5-2.5q-2.58-18.08 5.5-25.5l2.5-.5.5-1.5 21-11ZM154 270q-6 2-4 12h3l3-11-2-1Zm308.5-12 5.5 2.5-2.5 3.5-3.5-2.5.5-3.5Zm-271 8 .5 4.5-10 22 16 19v17h-1L185.5 315l-11.5-5.5.5-4.5 5 1 .5-5.5-3-1q5.25-4.75 3-17l11.5-16.5Zm31 2 5.5 8.5-1.5-.5-4.5-.5.5-7.5Zm64 3-4 7-1-2-3.5-.5 8.5-4.5Zm55 3 .5 1.5h-1l.5-1.5Zm105 4 10.5 7.5-4.5-3.5-8 3-.5-3.5 2.5-3.5Zm-218 5 4.5 8.5-5 3-.5 21.5q-8.08-7.42-5.5-25.5l2-1-2-1 1.5-.5 4.5-2.5.5-2.5Zm41 2 2.5 3.5-8 14 5 3-3.5 1.5-1.5-.5-.5 2.5-11.5-17.5 2.5-3.5 8.5.5-5 3 .5 2.5 3.5-1.5-.5-1.5h2l5.5-2.5-4-1 4.5-2.5Zm120 1 .5 3.5-1 3 2 5-1 3v2l1 2-1 3v2l-2 19-34.5 47.5-6 3h-2l-23 10-11-5-15.5 6.5-.5 1.5-1-2-1 3-5-6-1.5.5-4-9 1.5-.5q5 9 22 6l9-4 15 4q17.58-5.42 27.5-18.5 9.3-9.7 8.5-29.5 11.48 1.48 14.5-5.5 7.5-12.5 3-37l5.5-7.5Zm-189 2 3.5 2.5 2 3-2 1-.5 1.5-5.5-2.5 2.5-5.5Zm145 0 12.5 8.5 3.5 7.5 3.5 1.5-17.5.5-.5-1.5.5-1.5-11.5-4.5.5-1.5 1.5-.5 5.5-7.5 2-1Zm23 0 3.5 2.5-2.5 8.5-1.5-.5-2-7 2.5-3.5Zm76 1q7.91 7.09 5.5 24.5l4.5 6.5 1.5.5 1 3-2.5 10.5-14 3 .5-1.5q5.83-7.17 3-23l-2.5-4.5-6-2-3 5-.5-8.5 12-5 .5-8.5Zm-123 8 1 2 1.5.5-1.5.5-1-3Zm-183 4 3 5 1.5.5 1 3-1.5 2.5-4 3-1.5-10.5 1.5-3.5Zm185 5 1.5 3.5-1.5-.5-1.5-.5 1.5-2.5Zm99 0 3.5.5-1.5 5.5-4.5-1.5 2.5-4.5Zm-114 6 10.5.5-1.5 2.5-3 1-6-4Zm15 0 9.5 5.5-2.5.5-6.5-3.5-.5-2.5Zm106 5-.5 1.5-.5 1.5-.5-1.5 1.5-1.5Z"/><path fill="#A74213" stroke="#A74213" stroke-width="3" d="m357.5 322 .5 1.5-3 2 2.5-3.5Zm-123 5 6.5 9.5-1.5 3.5-6.5-11.5 1.5-1.5Zm103 0 1.5.5-1.5.5v-1Zm16 1 1 2 4.5 2.5-9.5 11.5-3.5 2.5-.5 1.5-3.5-.5-2-10 8-3 3.5-5.5 2-1Zm72 3 .5 5.5-5.5 10.5-.5-5.5 5.5-10.5Zm-227 2 11.5 5.5v17q7.69 4.81 6 19l-3-2-14.5-39.5Zm261 3 6.5 1.5 2 7-3.5-2.5-2.5.5-2.5 5.5-3.5-2.5 3.5-9.5Zm-125 4 1.5.5-2.5 6.5-8.5-4.5 3.5-.5 1.5.5.5-1.5 4-1Zm103 3 .5 5.5-5.5 10.5-.5-8.5 3-2 2.5-5.5Zm30 4 2.5 12.5-5.5.5-2.5-8.5 5-3 .5-1.5Zm-215 4 17 18 1.5-.5 4 7-4.5 2.5-3-6-15 32-.5-3.5 1-2-1-2 10.5-30.5 1.5-.5-9.5-11.5-1.5-.5-.5-1.5-1.5.5 1.5-1.5Zm-53 9 2.5 1.5 11.5 16.5 2-1 .5 9.5-3.5-2.5-2.5.5 6 9-2.5 1.5-9-4-3 5-3.5-2.5 1.5-2.5 2.5-1.5 2-9-1-2 1-11-4.5-1.5-1.5.5 1.5-6.5Zm232 8 .5 4.5-5.5 8.5-.5-2.5 5.5-10.5Zm-200 4 1.5 2.5-4.5 8.5-1-2-4 2 .5-1.5 7.5-9.5Zm188 1 .5 11.5-3.5 5.5-2 1-.5-7.5 5.5-10.5Zm-197 16 5.5 2.5-2.5 4.5-3.5-2.5.5-4.5Zm225 1 2.5 1.5 6.5 14.5 6 2 4.5-3.5 1-5-2-3 2.5-1.5 2 1 4-6 5.5 2.5 2 9-2 1 1.5 5.5 4-1 2.5 6.5-2 1 1.5 5.5 4-1 .5 4.5-24.5 8.5-26.5-24.5-3-6 9.5-11.5Zm17.5 30-3 4 4 2 2-3-3-3Zm-50.5-25 5.5 3.5 1.5 3.5 4-1 16 20 2.5 1.5-.5 2.5-27.5-24.5-1.5-5.5Zm-117 1 4 1 2-1 1 2 1.5.5 6 12-6-5-2.5-3.5-6-6Zm-94 2 .5 3.5-3.5 6.5-2.5-1.5 1.5-4.5 2.5-.5 1.5-3.5Zm-11 9 5.5 2.5-.5 8.5-5.5-8.5.5-2.5Zm131 9 8.5 7.5-1.5.5-7-8Zm-72 5 .5 6.5-5.5 9.5-.5-10.5 3-1 2.5-4.5Zm82 3 5.5 3.5-1.5-.5-4-3Zm165 7 9.5 6.5 2 5-5.5 1.5-2-4-3.5-1.5 2-1-2.5-6.5Zm-16 1 3.5 1.5 2 4-10.5.5 5-6Zm-305 6 3.5.5 1 5-2.5 1.5-4-1-1.5.5 3.5-6.5Zm28 0 4.5 1.5-1.5 4.5-4.5-1.5 1.5-4.5Zm147 2 13.5 24.5-4-3-9.5-21.5Zm-166 8 7.5 2.5-3 1-2.5 4.5-4.5-.5 2.5-7.5Z"/><path fill="#A74213" stroke="#A74213" stroke-width="3" d="m177.5 450 1.5.5-4 10 1.5.5 4-3-.5 1.5q-3 11.5 2.5 14.5h2l13-6 .5 5.5-8 5-4 5 4.5.5 7-4 .5 2.5-12 21-1 11-20.5 26.5 3.5-4.5-.5-2.5-5.5-.5 12-17-6-1 .5-3.5 2.5-1.5 2-8-2.5-5.5-2.5-1.5 2.5-3.5 2.5 1.5 3.5 4.5q8.25-4.75-2.5-9.5l-.5-1.5-17 5-.5-2.5 6-10-3-5 3-1 .5-1.5 4 2 1.5-3.5-4-7 3.5-5.5 4.5-3.5 1.5-3.5 2 1 2-2Zm-7.5 12-2 5 6 1v-4l-4-2Zm5 18-1 3 6 3v-3l-5-3Zm24.5-30 3.5.5 1 8-2 3 .5 1.5-3.5 2.5-.5 1.5-1.5-9.5 2.5-7.5Zm40 19 .5 10.5-5.5 10.5-.5-10.5 5.5-10.5Zm-95 32 5.5 4.5-.5 3.5-4 1-1-9Zm69 9 4.5.5-7.5 9.5-.5-6.5 3.5-3.5Zm-10 21 1.5 2.5-2 1-10.5 21.5-.5-4.5 11.5-20.5Zm-41 13 1 2 4.5.5-.5 6.5-2-1-3 4-6 3-.5-1.5 6.5-13.5Z"/><path fill="#2C0C06" stroke="#2C0C06" stroke-width="3" d="m318.5 30 6.5.5-1 2 2.5.5 3.5-.5-1-2 12.5-.5 7.5 4.5-.5 1.5-1.5.5 4 1-3.5.5-19-4v3q11.56-.56 15.5 6.5l2 3-3-2-.5-1.5-2.5-.5.5-1.5-9-2v1l3.5 1.5-25.5.5-3.5-5.5 12.5-6.5Zm58 6 7.5 3.5.5 1.5 5.5 3.5L405.5 77l3 1 5.5-4.5 3.5-7.5 2-1 1.5 7.5-1 7 2 4-2 1 2.5 4.5 2-1 1.5 9.5 18 34v13l8.5 11.5 3-1 1.5 7.5-1 13 3.5 4.5 2-1 1.5 19.5-2.5 3.5-4 1q1.51-21.51-11-29l-5.5-2.5-13.5-20.5-1.5-.5 1-4v-27L417.5 92l-6-1-8.5 6.5 2 4-2-1-.5-1.5-1 5-5.5-5.5q2.02-11.53-4.5-14.5L381 78.5l3-1-3-9h1l.5 6.5 4.5-2.5 2-9-5.5-16.5-2 14-.5-6.5 1-11-3.5-4.5-1.5.5-.5-3.5Z"/><path fill="#2C0C06" stroke="#2C0C06" stroke-width="3" d="m352.5 38 6.5 2.5.5 1.5 1-3L372 61.5l-1.5-.5-2-1-3 5-1.5.5 4.5.5 3.5-2.5-2.5 3.5-7.5 5.5-1.5 4.5-1-2-19 13v-1l7.5-6.5-.5-2.5-1.5.5-4.5 6.5 1.5-2.5 1-5-10.5-4.5-10 4-10-7-7.5-.5 9-3-2-1 8.5-4.5 3 4 3 1 2.5-1.5 3.5-4.5 19 6 1.5-3.5-12-16 16 13 3.5 5.5 5.5-2.5-9.5-22.5-5-2Zm11 46 2.5.5-.5 5.5-4.5-2.5 2.5-3.5Z"/><path fill="#2C0C06" stroke="#2C0C06" stroke-width="3" d="m339.5 85-1 4-1.5-.5 1 2-18.5 9.5-24.5-9.5 8.5-1.5 20 7 1-2 15-9Zm-58 2 4.5.5-4.5.5v-1Zm9 0 3.5.5-3.5.5v-1Zm-13 1 2.5.5-3 1 4 1-12.5 6.5-3-1-1 2 2-1-1 2-4.5 2.5.5 1.5-13.5 11.5-1.5 3.5-6 5-.5-2.5 11.5-16.5 4-2 6.5-2.5-3-1 .5-1.5 2 1 16-10ZM263 98v1h1l-1-1Zm33.5-10 2.5.5-2.5.5v-1Zm97 20 8.5 3.5-.5 2.5-8-6Zm30 15 1.5 12.5-5 9 2 1-6.5 3.5-1.5-2.5 5.5-7.5 1 3q5.25-4.75 3.5-16.5l-.5-2.5Zm-4 28 .5 9.5-4.5 1.5-.5-4.5 4.5-6.5Zm-188 17 2.5.5-5.5 8.5-.5-5.5 3.5-3.5Zm198 0 2.5.5-.5 5.5-4.5-2.5 2.5-3.5Zm-186 12h11l13.5 8.5.5 1.5 5.5 2.5 1 3h-2l-2 6 2 1 2 3-2.5-1.5-1.5.5 4 6-2 1v-2l-1.5-3.5-11-2-9 3v-1l4.5-1.5-2-1 10-7-1.5-4.5-22.5-6.5 3.5-5.5Zm139 1 4.5 3.5.5 1.5 3 2h2l7.5 3.5.5 2.5 3 1 .5-1.5-3-1 5.5-.5 1.5 5.5-5.5.5-22-10-5.5 4.5 1.5.5 5-1v1q-3.04 6.46-14 5v-1l5.5-2.5-2-1 1.5-.5 2 1 2.5-4.5-.5-1.5-4 1v-1l5.5-1.5-4-1 8.5-4.5Zm36 3 .5 4.5h-1l.5-4.5Zm7 1 2.5 18.5-3 1 1 5-1.5 28.5-.5-27.5 1-2-2-4 2-1-2.5-4.5-2.5-.5-1-8h2l2.5-4.5 2-1Zm-3.5 9-1 2h1v-2Zm-196.5-8 5.5.5-3 2-3.5 9.5-2.5-.5q-2-9.5 3.5-11.5Zm135 0 7.5.5-3.5 4.5-4.5 1.5.5 1.5 7.5.5-8.5.5-3-1q-3.4 5.6-14 4l-.5-2.5 18.5-9.5Z"/><path fill="#2C0C06" stroke="#2C0C06" stroke-width="3" d="m367.5 189 3.5.5-3.5.5v-1Zm-149 15 3.5.5-.5 4.5-4.5 2.5 1 10h-1l-1.5-8.5-5.5 4.5 5.5-11.5 3-2Zm24 0 8.5.5-5 3 .5 1.5-1.5.5-.5 5.5-1-5-3.5-1.5 2.5-4.5Zm100 0 4.5 2.5.5 1.5 4.5 1.5 4.5 5.5 11-6v1l-9.5 5.5 1.5 2.5 5.5.5-9.5.5-3.5-2.5.5-1.5 2.5-.5-6.5-4.5-1 2-3-1-8 5 1.5-2.5 1.5-2.5 2.5-.5-1-2 5-2-4-1 .5-1.5Zm11.5 12v1h1l-1-1Zm113.5-11 1.5 17.5-1.5 5.5-2.5-.5-3-17 4-2 1.5-3.5Z"/><path fill="#2C0C06" stroke="#2C0C06" stroke-width="3" d="m248.5 207 1.5.5-1.5.5v-1Zm39 0 .5 6.5q-3 5.5-6-1l.5-2.5 5-3Zm87 1 4.5.5-4.5.5v-1Zm10 0 3.5 1.5 1.5 3.5 2.5 1.5-1 3 1 2-1 2 1.5.5 2.5-3.5-1.5-2.5 2.5 3.5-1.5 3.5-12 5 2-4-3.5-1.5.5-2.5 1 3 8.5-3.5-6.5-11.5Zm-131 2 5.5.5-2 1 3 2-1.5.5-5-3-2.5 1.5 2.5-2.5Zm-13 1 7.5 10.5-1.5.5-6.5-3.5.5-7.5Zm25 2 2.5.5-2.5.5v-1Zm-13 1 .5 1.5h-1l.5-1.5Zm9 0 2.5 1.5-1.5.5-1-2Zm171 4 5.5 14.5h-1l-4.5-14.5Z"/><path fill="#2C0C06" stroke="#2C0C06" stroke-width="3" d="m427.5 220 2.5 1.5 1 2-3 1-3 26 3.5.5 10.5-5.5-1-2 2 1 .5 1.5 3.5-.5.5-3.5 5.5 15.5-2.5.5-3-2-5 12-.5-12.5 1-2h-2l-.5-1.5-3.5 2.5 2 3h-1l-.5-1.5-11 7v-2l-3.5-2.5-1-7 1.5-3.5.5 2.5-1 4h1l2-6-1.5-2.5 1.5-.5-1-2 3 1-2-3h2l.5-1.5 1.5-.5.5-19.5Zm-3.5 26-1 2h1v-2Zm-210.5-20 .5 9.5h-1l-.5-7.5-1.5.5 2.5-2.5Zm3 0 .5 1.5h-1l.5-1.5Zm-13 10 .5 4.5-5.5 10.5-.5-4.5 5.5-10.5Zm2 3 .5 1.5h-1l.5-1.5Zm7 1 .5 2.5h-1l.5-2.5Zm3 1 .5 14.5-5 4 1.5 4.5 3.5 2.5-1.5 6.5-1-3-7.5-3.5-2-13 3.5-5.5 3.5-2.5.5-1.5 1 2 3-5Zm-2.5 13-1 2h1v-2Zm-10.5-7 .5 3.5h-1l.5-3.5Zm-1 5 .5 2.5-1.5 2.5-.5-1.5 1.5-3.5Zm-4 2 1 6 1-2 .5 1.5-3 23-1 3-.5 1.5q-6.81-6.19-3.5-22.5l5.5-10.5Z"/><path fill="#2C0C06" stroke="#2C0C06" stroke-width="3" d="m435.5 264 1 2 1.5-.5.5 4.5 5-1 .5 1.5-7.5 14.5.5-1.5 1-4-2 1-5.5 11.5-.5-1.5 1-4-6.5-.5-6 8-1.5.5 1 3h-1l-1.5-3.5-1 2-.5-1.5 1.5-2.5 1.5-.5-.5-1.5 1.5-.5v-2l1.5-3.5 3.5-2.5.5-1.5 1.5-.5.5-1.5 7.5-6.5 2.5-7.5ZM424 282l-2 3 1 1 3-2v-1l-2-1Zm-212.5-11 .5 1.5h-1l.5-1.5Zm-1 4 .5 2.5h-1l.5-2.5Zm2 1 .5 1.5h-1l.5-1.5Zm-3 3 2 3-1.5-.5 1 6-2.5.5-9.5-3.5 10-1 .5-4.5Z"/><path fill="#2C0C06" stroke="#2C0C06" stroke-width="3" d="m204.5 282 2.5.5-2.5.5v-1Zm231 4 .5 1.5-1.5 2.5-.5-1.5 1.5-2.5Zm-2 5-.5 1.5-5.5 10.5-4 3 3-5-2 1 3-4-.5 1.5.5 1.5 6-10Zm-4 2 .5 1.5h-1l.5-1.5Zm-229 1 7.5 5.5 2 4 1 2-7 1-.5 4.5-5.5-14.5 2.5-2.5Zm262 5 5.5 4.5-.5 2.5-5.5-3.5.5-3.5Zm-45 3 1.5 2.5-2-1 .5-1.5Z"/><path fill="#2C0C06" stroke="#2C0C06" stroke-width="3" d="m216.5 306 2.5 1.5-1.5-.5-7 2-3-1-.5 2.5 1.5 4.5 6-1 8 7 .5-2.5-2-4h1l10 19-4-2q-4 14.5 2.5 18.5l4.5-3.5 1-3-2-4 2 1 3.5 6.5 1-4 1.5 4.5-2 1 1.5 2.5 1.5.5 2.5 28.5 2-4 1 8 2.5 1.5-10.5 20.5-3.5 1.5-2.5 5.5-1.5-9.5 1-11-1.5-2.5-2.5-1.5 3.5-8.5 1.5.5 2.5-3.5 3 15 3.5-1.5 1-8-1-25-2.5-4.5-3.5 2.5-2.5 3.5-5.5 3.5 1.5 5.5 4.5 2.5-.5 1.5-1-2-1.5.5 1 2-1.5-.5-8.5 6.5-1.5 3.5-4 2-2.5-1.5v-23l-6-11-2.5-18.5-3.5-1.5.5-11.5 2 1 .5-2.5-2-8 4.5-.5 4 1 3-2Zm28.5 85-1 2h1v-2Zm-1 2-2 1-1 2 3-1v-2Zm33.5-87 10.5 2.5-1.5 3.5-7.5-.5-1.5-5.5Zm79 0 3.5 1.5.5 4.5 1.5.5q-1.75 7.25-12.5 5.5v-1l4.5-2.5-.5-2.5-2.5.5-.5 1.5-.5-1.5 4-3 2.5-3.5Z"/><path fill="#2C0C06" stroke="#2C0C06" stroke-width="3" d="m222.5 308 5.5 11.5-4-3-1.5-8.5Zm-3 1 1.5 3.5h-1l-.5-3.5Zm194 3 .5 1.5-2 1 1.5-2.5Zm2 2 2.5.5 1.5 3.5 1-4 2 4 3.5.5-11.5 22.5-1-3-1 4-.5-3.5 7-20-2.5-3.5-1.5.5-.5 1.5-.5-1.5 1.5-1.5Zm-4 2 .5 1.5h-1l.5-1.5Zm0 6 .5 1.5h-1l.5-1.5Zm-1 3 .5 1.5h-1l.5-1.5Zm-3 1 1.5 5.5-17 16q-8.21 5.29-8 19l3 10-2 3 1.5 3.5 17.5 12.5 4.5 8.5 1.5-.5.5-8.5 2.5 16.5-5.5 2.5-20.5-17.5-9-17v-12l1-2-1-5 10.5-13.5 1.5.5.5 1.5 11-12 1.5-.5-3-1 7.5-9.5Zm61 4 3.5 1.5 1.5 3.5 1.5.5-1.5 7.5-3.5-2.5-1.5-10.5Z"/><path fill="#2C0C06" stroke="#2C0C06" stroke-width="3" d="m411.5 343 .5 31.5h-1l.5-31.5Zm-168 6 3.5 5.5-2-1-1.5-4.5Zm-7 24 .5 2.5h-1l.5-2.5Zm174 7 .5 5.5h-1l.5-5.5Zm-204 16 3.5 6.5-7 9 1 2-2.5.5-3.5-5.5 4-1 4.5-11.5Zm16 0 5.5.5-.5 5.5-5.5-2.5.5-3.5Zm-10 12 3.5 1.5-.5 4.5-5.5-3.5 2.5-2.5Zm208 0 17.5 15.5-.5 2.5-14.5-7.5 1.5.5 4 1-8.5-9.5.5-2.5Zm-188 5 .5 7.5h-1l.5-7.5Zm188 1 1.5 2.5-2-1 .5-1.5Zm-216 6 1.5.5.5 2.5 1.5-.5-1-2 3.5-.5h2l3.5.5-3.5 5.5-10.5-.5 2.5-5.5Zm5.5 2v1h1l-1-1Zm21.5 0 .5 2.5-1 2 2.5.5 2-5 3 8 1.5.5-1 5 6 20-5 2q1.75 8.75-3.5 10.5l-6.5 4.5.5 2.5 3-1-.5 1.5-7.5 14.5-9.5 6.5-15.5 19.5-2.5-.5 2.5-3.5 1.5-.5 7-19 1-20 10-13q.96-23.54 11.5-37.5Zm2.5 42-5 3 1 1 4-2v-2Zm-5 7v3l1-2-1-1Zm-10 10-2 3 3 1 1-2-2-2Zm-37.5-42 10.5 5.5-2.5 5.5-8-11Zm16 92 .5 2.5-13.5 22.5-4 2-.5-5.5 3-1 3.5-4.5 2.5-.5-3-1 6.5-11.5 5-3Zm-27 33 3.5.5-3.5 5.5-2.5-1.5 2.5-4.5Z"/><path fill="#0F0906" stroke="#0F0906" stroke-width="3" d="m325.5 30 4.5 1.5-.5 1.5-4 1-1.5-2.5 1.5-1.5Zm3 4 18 3 11-1 2.5 5.5v2l7.5 19.5 1-3 3.5 2.5-7.5 3.5-5.5-3.5L347.5 49l-5.5-3.5-1.5-3.5-9.5-2.5 3.5-.5 6 2-1-2-12.5-3.5 1.5-1.5Zm19.5 3v1h3l-3-1Zm5 1v1h3l-3-1Zm4 1v1h1l-1-1Zm2 1-1 2h1v-2Zm-15 3-1 2h1v-2Zm21 21v1h1l-1-1Zm13.5-25q5.69 3.31 3.5 14.5l-1 7h1l1.5-13.5 5.5 21.5-4.5 6.5-2.5.5 1.5 2.5-5.5-.5.5-38.5Zm3.5 29-1 7h1v-7Zm-93.5-2 26.5.5-9 3 7.5.5 11 7 13-4 6.5 4.5-1 5 2-1 1.5-3.5 1.5.5-6.5 8.5-4 2v-2l-2.5 1.5.5 1.5h-2l-9.5 4.5-.5 1.5-23-7-23 1-2-1-10.5 6.5 3 1-15.5 8.5-.5-2.5 5.5-10.5 25-23 6-3ZM282 87v1h4l-4-1Zm9 0v1h3l-3-1Zm-13 1v1h2l-2-1Zm19 0v1h2l-2-1Zm-33 8-1 2 2-1-1-1Zm-4 1v2h2l-2-2Zm160.5-13 2.5.5 1 4-1.5.5-2-5Zm-9 7 7.5 2.5q-.17 16.67 7 26v27l-.5 3.5-8.5-.5 5-4-2-1 4-8h-1l-2.5 5.5-.5-17.5-18-20v-5l5.5-6.5 4-2Zm-7.5 8-1 2h1v-2Zm20 24-1 2h1v-2Zm1 2-1 11h1v-11Zm-4.5 55 5.5 2.5-1.5 3.5-2.5 1.5-1.5 3.5v-11Zm-52 6 9.5.5-2 1 1.5 2.5 5-2 6.5 3.5q-15.76-1.26-22.5 6.5h-15l2-3 5-1 9 1v-1l-7.5-.5.5-1.5 5.5-2.5 2.5-3.5Zm4.5 2v1h3l-3-1Zm-5 1v1h3l-3-1Zm4 4v1h1l-1-1Zm-120.5 11 8 1 8-1 4 2v-2l4.5 3.5.5 6.5 3.5 1.5-15.5.5-7.5-4.5 2-1-5.5-.5.5 1.5-4.5 10.5-6.5-5.5-3-7 1.5.5 2.5.5.5 4.5 1-6 1.5-.5.5-2.5 4-2Zm2.5 1v1h2l-2-1Zm-2 1v1h1l-1-1Zm21 0-1 2h1v-2Zm-24 1v1h1l-1-1Zm25 1-1 2h1v-2Zm-8 5v1h2l-2-1Zm109.5-9 8.5 3.5 6.5 10.5 1-2 3.5 2.5-2.5 3.5-1.5-.5-.5-1.5-8.5 3.5 3 1-4.5 3.5-4-12-4.5 1.5-3.5 4.5q-16.25 4.25-20.5-3.5l.5-8.5 7.5 5.5-3 2 11.5 1.5v-1l-5.5-.5-1-2 17.5-11.5Zm-.5 4v1h4l-4-1Zm-22 7v2l2-1-2-1Zm39 3-1 2h1v-2Zm-10 2-1 3h1v-3Zm44.5-16 2.5.5 3 18 12 23-3.5.5-2-3-.5 1.5-.5 2.5-12 4-.5-4.5 5-25-2.5-1.5-1 20v-36Zm-211 9 .5 27.5-3.5 5.5-1-2-3 4-2.5 1.5-2 12 4.5 7.5 6.5 2.5-4.5 8.5-1.5-.5-.5 4.5-9.5.5 8 3-11.5.5.5-1.5 2-3v-2l1-21-1-9 12-33 5.5-5.5Zm-1.5 13-2 2 1 8h1v-10Zm-8 13-1 2h1v-2Zm7 1-1 3h1v-3Zm-10 7-1 4h1v-4Zm-1 5-1 3h1v-3Zm-1 3-1 2h1v-2Zm-1 3-1 2h1v-2Zm12 13-1 2h1v-2Zm-1 4-1 3h1v-3Zm-6 7v1h2l-2-1Z"/><path fill="#0F0906" stroke="#0F0906" stroke-width="3" d="m425.5 242-.5 1.5-.5 1.5-.5-1.5 1.5-1.5Zm-2 4 .5 1.5-3.5 7.5-.5-2.5 3.5-6.5Zm16 7 .5 1.5-1 13 2-1 3.5-10.5 2.5 1.5-3 1-1.5 11.5-4.5-.5 1.5-16.5Zm-2 26 .5 2.5-15.5 24.5-2.5 1.5q.96 19.46-7 30l1 73-2-1-1.5-14.5-1 9-1.5-.5-12.5-16.5-9.5-4.5-1-4 2-7-3-11 7-11-1-4 12.5-9.5 6.5-4.5-1-7q8.89-9.61 7.5-29.5l3.5-1.5-1-2h2l1-2-.5-1.5 4-2 6.5.5.5 3.5 6-11Zm-6.5 11-1 2h1v-2Zm-1 3-1 2h1v-2Zm-12 2-1 3h1v-3Zm9 4-1 2h1v-2Zm-9 3-1 2h1v-2Zm-2 12 2 2v-1l-2-1Zm-1 1-1 2h1v-2Zm4 1-1 2h1v-2Zm-7 6-1 2h1v-2Zm-1 3-1 2h1v-2Zm-9 12v1h1l-1-1Zm11 1-1 4h1v-4Zm-1 5-1 32h1v-32Zm-20 4-1 2h1v-2Zm19 33-1 6h1v-6Zm-200.5-99 2.5 1.5 9 18v12l5.5 7.5 1.5.5 11 26h-1l-3.5-6.5-.5 2.5v2l-3.5 5.5-3.5-2.5.5-16.5 1.5.5-6.5-13.5-1 3-11-7-3 1-2.5-5.5 4-2-4.5-.5-.5 3.5 2 7-1.5.5-1.5-11.5 12-2-1.5-4.5-1.5-.5-3-11 1-5-.5-2.5Zm6.5 25v1h1l-1-1Zm-2 1v1h1l-1-1Zm-4 1v1h3l-3-1Zm9 1-1 2h1v-2Zm1 2-1 2h1v-2Zm1 3-1 2h1v-2Zm1 2-1 2h1v-2Zm200.5-34 2.5.5-.5 1.5-4 3 .5-1.5 1.5-3.5Zm-64 24 6.5 2.5-5.5 3.5-1-6Zm-8 6 2.5.5-1.5 3.5-3 1 .5-1.5 1.5-3.5Zm122 31 .5 1.5-2 1 1.5-2.5Zm-233 5 2.5.5q7.17 9.83 3 31h-1q4.29-19.79-2.5-28.5l-2.5-1.5.5-1.5Z"/><path fill="#0F0906" stroke="#0F0906" stroke-width="3" d="m240.5 353 2.5 1.5 3 35h-2l1 3-2.5 3.5-2.5-.5 4-3-.5-1.5-3 1-3-15-3 4-1.5-10.5 2-1-5-3 1.5-5.5 6.5-4.5 2.5-3.5Zm-4.5 17-1 2h1v-2Zm1 3-1 3h1v-3Zm2.5 32 .5 24.5-2.5 1.5.5-1.5-2.5-7.5-1 2-.5-10.5 5.5-8.5Zm181 6 8 9-6.5-2.5-1.5-6.5Zm-189 15 2.5.5-2.5.5v-1Zm2 38 .5 1.5-4.5 2.5-.5-1.5 4.5-2.5Z"/><path fill="#B36324" stroke="#B36324" stroke-width="3" d="m272.5 38 3.5 1.5.5 14.5 5.5-1.5 3-4-2-1 4.5-2.5 1 3q9-9 30-6l-.5 1.5-1.5 2.5q-22.4 2.1-35 14h-12l.5-1.5-2.5-4.5-3.5 2.5 1 3-23 13-7.5 16.5-1-2-11 17-1-2-5 2-1-2-3.5 1.5-2 4 2 1-2 5 2 1-7.5 10.5-1-2-7 3-.5-2.5L215.5 92 232 77.5l1.5-3.5 3.5-1.5q3.13-15.37 15.5-21.5l14.5-8.5-.5-1.5 6-3Zm136 16 5.5 3.5-.5 1.5-5.5-2.5.5-2.5Zm-35 12 4.5 2.5-2.5 3.5-6.5-.5 2.5-4.5 2-1Z"/><path fill="#B36324" stroke="#B36324" stroke-width="3" d="m261.5 84 4.5.5-7.5 7.5-1.5-1.5 4.5-6.5Zm123 12 4.5 3.5 1 2-2.5.5-3-6Zm12 6 7.5 5.5-2 1-.5 1.5-5-8Zm42 9 5.5 6.5-2.5.5-3.5-1.5-1-3 1.5-2.5Zm-214 3 3.5.5-3.5 5.5-2.5-.5 2.5-5.5Zm184 4 5 2 1-2 5.5 8.5-1.5-.5-4.5.5 2 5-3-2-4.5-11.5Zm-169 15 .5 6.5-5.5 6.5-.5-2.5 5.5-10.5Zm-6 19 1 4 2.5.5-2.5 4.5-1-4-5 10-.5-4.5 5.5-10.5Zm-45 34 3.5 2.5-.5 3.5-5.5-2.5 2.5-3.5Zm244 2 5.5 12.5-3-2-2.5-10.5Zm-48 4 5.5 3.5-.5 2.5-4 1-2.5-.5 1.5-6.5Zm-169 8 1.5 2.5-6.5 11.5-.5-3.5 5.5-10.5Zm226 4 2.5 5.5h-1l-1.5-5.5Zm3 12 16.5 1.5-2.5 4.5-9 1-3.5-2.5-1.5-4.5Zm-158 3 1.5.5-3.5 1.5v-1l2-1Zm62 1 2 4 3.5 1.5 1 2-4.5.5-3.5-1.5-1-4 2-1 .5-1.5Zm103 8 4.5 1.5-1.5 4.5-4.5-1.5 1.5-4.5Zm6 0 10.5 3.5 6 17-3-2-2.5-4.5-1 3-2.5-4.5 3-1-7.5-9.5-3-2Zm-19 2 5.5 11.5-3-2-2.5-9.5Zm-259 22-.5 1.5-21.5 49.5-1.5.5v18l-2.5 2.5-10.5-2.5-1.5-3.5-3.5-.5 3.5-5.5 1.5-.5 1-3-1.5-2.5-2.5-1.5-1.5-3.5-1 3-1.5-3.5 2-1 .5-2.5 5 3 1-3 7 2 2.5-1.5q4.87-23.63 19-38l-1.5-.5-10 6 2-5 16-8Zm-28 17 .5 1.5-3 1-4.5 9.5-.5-7.5 7.5-4.5Zm317 1 5.5 3.5-.5 2.5-3.5-1.5-1.5-4.5Zm-188 3 1.5.5-4.5 2.5 1-2 2-1Zm-101 5 1.5 3.5q1.4 12.9-4.5 18.5l-2 1-.5-12.5 5.5-10.5Zm268 4 12.5 5.5v2l3 5-1.5 16.5-9-23-2.5.5-.5 10.5-5.5-13.5 3.5-3.5Zm32 1 .5 14.5h-1l-1.5-3.5-3.5-2.5 1.5-3.5 2.5-1.5 1.5-3.5Zm-11 13 5.5 13.5h-1l-4.5-13.5Zm-33 10 6.5 2.5 2 21-9.5 19.5-2 1-.5-2.5q10.24-10.26 6-35l-2.5-.5q-6.03 4.97-3.5 18.5L420.5 351l-.5-3.5q8.12-6.38 6-23l9.5-18.5Zm15 1 5.5 12.5-1.5.5q-6.32-3.46-4-13Zm-276 3 21.5 15.5q2.46 21.54 14 34v8l6 9-2.5 1.5-13-18-2 1q3.28-17.78-4-25l-12 6-5-6-1.5-.5-3.5-4.5-2.5-1.5-2-12 3.5-5.5 2.5-.5.5-1.5Zm288 32 5.5 3.5-1.5 3.5-4 2-1-3-1.5-.5 2.5-5.5Zm11 23 .5 4.5-3.5 2.5-4.5-5.5 7.5-1.5Zm-203 1 .5 1.5h-1l.5-1.5Zm-73 5 3.5 6.5-5.5.5-3.5-5.5 5.5-1.5Zm75 0 3.5 4.5-3 2 2-3-2.5-3.5Zm-69 9 .5 5.5-3.5 5.5-2 1-.5-2.5 5.5-9.5Zm80 0 1.5 2.5-2-1 .5-1.5Zm33 0 2.5 1.5-1.5-.5-1-1Zm-89 1 .5 9.5-1.5-.5-4.5-1.5 1.5-5.5 4-2Zm-17 3 5.5 3.5-.5 4.5-5-8Zm209 1 .5 12.5-2.5-1.5-3.5-1.5 1.5-4.5 2.5-1.5 1.5-3.5Zm43 8 5.5 8.5-3.5 5.5-2 1v-15Zm-298 9 3.5 1.5-.5 3.5-4 1-1.5-3.5 2.5-2.5Zm27 17 1.5 6.5-9.5.5.5-1.5 1.5-3.5 1 4 3-5 2-1Zm317 18 1.5.5-1.5.5v-1Zm-334 6 5.5 2.5-1.5 7.5.5-1.5-.5-1.5-4 2-1-2-2.5-.5 2.5-4.5 1.5-.5-.5-1.5Zm-18 30 3.5 2.5 2 6h-1l-.5-1.5-3.5-1.5-.5-5.5Zm-16 13 3.5.5-7.5 17.5-4.5-.5 2.5-11.5 3.5-2.5 2.5-3.5Zm34 3q10 4.5 2 9l-4.5-5.5 2-1 .5-2.5Zm-19 1 1 2 6-1 2.5 1.5-15.5 23.5-11.5-.5 3.5-5.5 3-1 3 1 2.5-1.5-1.5-4.5-4.5-3.5 1.5-2.5 4.5 3.5 1.5 2.5 4.5-1.5-1.5-4.5-3.5-2.5 4.5-5.5Zm13 6 3.5 2.5 1 7-3.5 6.5-1.5-.5-.5-1.5-4.5-2.5 5.5-11.5Zm-1 17 1 3 5.5.5-12 17 6 1-12.5 28.5-9.5-4.5 8-2 2-23 11.5-20.5Zm-29 9 5.5.5-.5 5.5-3.5-1.5-1.5-4.5Zm71 2 .5 4.5-5.5 7.5-1-2 1.5-.5 4.5-9.5Z"/><path fill="#B36324" stroke="#B36324" stroke-width="3" d="m144.5 546 5.5 2.5-.5 3.5-5.5-1.5.5-4.5Zm47 9 1 2-9.5 6.5 8.5-8.5Z"/><path fill="#7B2B0D" stroke="#7B2B0D" stroke-width="3" opacity=".992" d="m293.5 34 .5 3.5-5.5 6.5-.5-2.5 5.5-7.5Zm98 2 4.5 2.5 2 3-2 1 .5 1.5-6.5-3.5 1.5-4.5Zm-127 6 1.5.5-9.5 5.5 2-3 6-3Zm13 6 4.5.5-2.5 5.5-3.5-.5 1.5-5.5Zm95 3 2 3 3-1 .5 9.5-1.5-.5-3.5-1.5 2-1-4-6 1.5-2.5Zm42 7 5.5 4.5-2.5 3.5-3.5-.5-1.5-4.5-1.5-.5 3-1 .5-1.5Zm-74 2 9.5 5.5-1.5.5-8-6Zm-107 10-.5 3.5L216.5 92l-.5-1.5L233.5 70Zm136 2 4.5.5-3.5 4.5-2.5 1.5-2.5 3.5.5-1.5-.5-2.5-6.5 4.5 1 2-3.5.5-2-1-3.5 2.5 4.5-6.5 9.5-4.5.5-1.5 1 2 3-4Zm53 0 3.5 2.5-.5 5.5-5.5-2.5 2.5-5.5Zm-51 12 2.5.5-2 1 2 5-1.5.5-6.5-3.5 5.5-3.5Zm-22 3-1 2-3 1 1-2 3-1Zm-62 3 11.5 5.5q-19.57-2.07-28.5 6.5l-1.5-.5-.5 1.5-.5-2.5L287.5 90Zm57 1 1.5.5-3.5 1.5v-1l2-1Zm-8 4 4.5 1.5-15.5 5.5 1-2 10-5Zm-35 1 15.5 5.5-5.5.5-10-6Zm-36 5 1.5.5-.5 1.5-1-2Zm-14 11 .5 2.5-5.5 8.5v-2l-1.5-.5 6.5-8.5Zm127 0 4 5 2-1 3.5 4.5-2 1 1.5 2.5 2.5.5-.5 1.5-8.5-5.5-3-5v-2l.5-1.5Zm18 24 2.5 4.5-.5 3.5-2.5-1.5.5-6.5Zm-159 8 2.5.5-5.5 10.5-.5-7.5 3.5-3.5Zm-6 18 2.5.5-2.5 5.5-3 2-.5-2.5 3.5-5.5Zm227 0 3.5 2.5-1.5 9.5-4.5-1.5 2.5-10.5Zm-231 14 1 4 4-1 4 2 5-1-3 4-9 2-2-5-5 7-.5-1.5 5.5-10.5Zm4.5 6-3 2 1 1 3-1-1-2Zm27.5-2q14.72-1.72 20.5 5.5l-10.5.5-10-6Zm112 0 11.5.5q-6.38 7.12-21.5 5.5v-1l10-5Zm14 0 10.5 2.5.5 3.5-11-6Zm-140 6 10.5 5.5-3.5.5-6.5-3.5-.5-2.5Zm-12 6-.5 1.5-.5 1.5-.5-1.5 1.5-1.5Zm155 0 11.5 5.5-2.5 1.5-9-7Zm50 3 13.5 7.5.5 1.5 4.5 3.5 7.5 20.5 3.5-.5 2.5-5.5 3.5 2.5-.5 20.5-7-15-10.5-3.5 1.5-4.5 2.5-1.5 1-4-11-2q-1.71-13.29-11.5-18.5l-1.5.5 1.5-1.5Zm-75 3 4.5.5-2 5 5 1-10.5 5.5-1-6-2.5-.5 5-3 1.5-2.5Zm16 6 11.5 3.5-.5 2.5-11-6Zm-153 7 1.5.5-4.5 14.5-.5-7.5 1.5-4.5 1.5.5.5-3.5Zm170 4 1.5.5.5 1.5 2-1 1.5 3.5-1.5 2.5-5 4 .5-1.5.5-9.5Zm-55 4-2.5 3.5-.5 1.5-.5-1.5 3.5-3.5Zm-78 2 1.5.5-1.5.5v-1Zm86 1 15.5.5-5 3-1.5 2.5-4.5-2.5-.5-1.5-4-2Zm-14 3 1 2-1.5-.5.5-1.5Zm76 21 2.5.5-5.5 10.5-.5-4.5 3.5-6.5Zm-258 24 2.5.5-3.5 11.5-2.5-.5q-2-9.5 3.5-11.5Zm254 2 .5 1.5-2 1 1.5-2.5Zm49 0 5.5 15.5h-1l-2.5-5.5-2.5.5-.5 1.5-9-6-1.5.5 11-3 .5-3.5Zm-51 4 .5 2.5-3.5 5.5-.5-1.5 3.5-6.5Zm-218 3-.5 1.5-2.5 4.5.5-1.5 2.5-4.5Zm140 3 3.5 1.5h-2l-.5 2.5-8 2v-1l7-5Zm116 1 .5 14.5-11.5 4.5-.5-2.5 11.5-16.5Zm-260 3 .5 1.5-1.5 2.5-.5-1.5 1.5-2.5Zm5 2 7 6 2.5-1.5 1 2-1.5 16.5-14.5-16.5 3-1 .5-4.5 2-1Zm22 8 2 4 3.5 2.5-2.5 3.5-3.5-2.5-2-3 2-1v-2l.5-1.5Zm-34 4 3.5.5-.5 5.5-5.5-1.5 2.5-4.5Zm88 0q12.57-1.57 16.5 5.5l-5 1-.5 2.5-11.5-6.5.5-2.5Zm128 0 3.5 2.5-2.5 3.5-3.5-2.5 2.5-3.5Zm76 1 5.5 12.5-4-3-1.5-3.5-2.5-.5 2-1 .5-4.5Zm-183 3 1.5.5-1.5.5v-1Zm128 0 .5 2.5-5.5 10.5-.5-4.5 5.5-8.5Zm18 3 .5 5.5-5.5 10.5-1-5-2.5-.5-3-6 1.5.5 4-1 3 1 3-5Zm-102 4 4 2 2-1 .5 2.5 1 3-3.5.5-8.5-5.5 4.5-1.5Zm69 7 3.5.5-2 1 .5 1.5 3-1v3l-1.5.5 2.5.5 3-5 .5 4.5-3.5 6.5-9 4-1-2-1.5.5-2.5 3.5-.5-2.5 8.5-15.5Zm-200 1 8.5 16.5-5.5.5q-7.13-3.63-3-17Zm263 4 1 7 3.5 1.5 2 9h-1l-2.5-4.5-6.5 1.5-2 8 6 3 2 11-2 1 2 5-2 1 1 12-1.5 7.5-4.5-4.5q1.3-22.3-6-36l4-8-1.5-.5-12.5 11.5-8.5 13.5-.5-2.5 9.5-23.5q10.75 1.75 14.5-3.5l.5-8.5 5-1Zm-36 2 .5 5.5-5.5 10.5-.5-5.5 5.5-10.5Zm-215 29 1.5 2.5-2-1 .5-1.5Zm156 11 1.5.5-.5 1.5-1.5.5 1 3-1.5 4.5-6 3-.5-1.5 4.5-10.5 3-1Zm-167 1 4.5 1.5-.5 10.5-3.5-1.5-2-9 1.5-1.5Zm220 1 .5 5.5-5.5 10.5-.5-5.5 5.5-10.5Zm49 4 4 1 1.5-.5q-1.33 14.33 6 20l-2.5-1.5-3.5.5-3.5 5.5-2.5-1.5-1-16 1.5-7.5Zm-37 2 .5 10.5-5.5 11.5-.5-13.5 5.5-8.5Zm11 6 5.5 1.5 8.5 24.5 1.5.5-1.5.5-8-16-7.5 6.5-3 6 25.5 27.5 3.5 1.5-6.5.5-18.5-6.5 2-1-1.5-3.5-16.5-15.5 14.5-25.5 2-1Zm-238 12 10 4 1.5-.5-.5 1.5-11 1-2.5-1.5 2.5-4.5Zm13 5 4.5 3.5-.5 2.5-4.5-1.5-1-3 1.5-1.5Zm28 2 .5 3.5-5.5 8.5-.5-1.5 5.5-10.5Zm-50 4 3.5.5-1 4-.5 2.5-4-1-1.5.5 3.5-6.5Zm21 4 2 1 3 1 6.5 1.5-1.5 4.5-4.5.5-.5 4.5-2-5-3.5-1.5.5-6.5Zm-28 8 3.5 2.5-2.5 3.5-3.5-.5 2.5-5.5Zm31 6 2.5 6.5-1.5-.5-2.5 1.5-2 4 2 3-2 13-6 8 2 1-3.5 4.5-3.5 1.5-.5 1.5-2.5-15.5 2-1 .5-4.5 4 1 1.5-4.5-4.5-1.5-1.5.5 4-7-.5-1.5 12-10Z"/><path fill="#7B2B0D" stroke="#7B2B0D" stroke-width="3" opacity=".992" d="m464.5 420 3.5 2.5-2.5 3.5-3.5-2.5 2.5-3.5Zm27 4 1 2 6.5.5-1.5 7.5-3-2h-2l-5 1-5-1-10 7-.5-1.5 2-5-5-1 22.5-7.5Zm-308 2 3.5.5-1 3 1.5 2.5-6.5-.5 2.5-5.5Zm62 7 .5 12.5-1.5-.5-4.5-2.5 5.5-9.5Zm-53 3 5.5 4.5-1 3v2l1 2-6.5 2.5.5-1.5-1-5 1.5-7.5Zm318 0 7 8-8.5-.5 1-3-1.5-2.5 1.5-.5.5-1.5Zm-265 13 .5 1.5h-1l.5-1.5Zm-74 1 2.5.5-5.5 7.5-.5-1.5 3.5-6.5Zm74 2 .5 1.5h-1l.5-1.5Zm-62 4q11.5-3 14.5 2.5l-2.5 8.5-13 7q-5.5-3-2.5-14.5l3.5-3.5Zm-14 6 4.5 1.5-.5 4.5-5.5-1.5 1.5-4.5Zm-11 6 3.5 2.5-.5 3.5-5.5-2.5 2.5-3.5Zm40 0 1.5 3.5 4 7-3 2-1.5 3.5-1.5-.5-.5-3.5-9 6q-5.75-3.25 1.5-6.5l4.5-5.5 3.5-.5.5-5.5Zm-24 12 5.5 2.5-.5 3.5-5.5-3.5.5-2.5Zm22 9 1.5 13.5-3 2-8.5 16.5-.5-14.5 10.5-17.5Zm.5 1-1 2h1v-2Zm28.5 8q5.44 3.5 0 7l-11 5 .5-1.5 6.5-7.5 4-3Zm-17 16 1.5.5q1.37 13.37-5.5 18.5l-1-2-11 20-.5-4.5 16.5-32.5Zm-31 8 2.5.5.5 5.5 1.5.5-7.5 14.5-3-2-8 5-.5-2.5 14.5-21.5Zm-43 12 3.5 2.5-2.5 3.5-3.5-2.5 2.5-3.5Zm51 4 1 2 1.5.5-7.5 5.5-1-4-2.5-.5.5-1.5 8-2Zm-10 14 4.5 2.5-12.5 9.5-.5-1.5 5.5-7.5 1.5-.5 1.5-2.5Zm-18 6 4.5.5-1.5 5.5-4.5-1.5 1.5-4.5Zm5 11 11.5 1.5-3.5 5.5-10.5-5.5 2.5-1.5Z"/><path fill="#D39B60" stroke="#D39B60" stroke-width="3" d="m320.5 42 21 12 1-2L354 63.5l-2.5 2.5q-5.52-8.98-22.5-6.5l1-3q-2.53-9.97-16-9l4-2 2.5-3.5Zm-19 8 .5 1.5h-1l.5-1.5Zm-37 10 10.5.5-20 11-8.5 11.5-1-4-5.5 10.5 2.5.5 1-2 .5 1.5-4.5 14.5-1-2-4 1-8.5-1.5 1.5-3.5 3.5-1.5L246.5 69l18-9ZM252 72l-2 1-3 4v1l5-3v-3Zm53.5-12 4.5.5-11.5 5.5 3-4 4-2Zm-30 12 2.5.5-8.5 6.5 2-5 4-2Z"/><path fill="#D39B60" stroke="#D39B60" stroke-width="3" d="m245.5 84 .5 1.5-2 1 1.5-2.5Zm12 4 .5 1.5-5.5 10.5-.5-4.5 5.5-7.5Zm-24 18 1 2 1.5.5-18.5 25.5-2.5 1.5-1.5 2.5-3 1-1-7-5 3-.5-4.5-1-4 6.5-8.5.5 2.5-5 10 1.5.5 6.5-4.5 2.5-5.5 1 2 5-8 1 5 3.5-1.5 2-4-5-1 10.5-7.5Zm170 2 10.5 9.5-.5 2.5-5-3-1.5.5-3.5-9.5Zm-164 16 .5 4.5-5.5 8.5-.5-5.5 5.5-7.5Zm-44 2 6.5.5-3.5 2.5-1-2-5 7-.5-1.5 3.5-6.5Zm8 16 1 2 5-1 .5 12.5-2.5 5.5-8-5-1.5 4.5 4 3 2 5-1.5-.5-4.5-2.5-1.5-3.5-4 1-1-7-3 1 5-6 3.5-2.5.5-1.5 5.5-2.5.5-2.5Zm-14 2 2.5.5-5.5 7.5-.5-1.5 3.5-6.5Zm232 12 4.5 1.5-1.5 10.5-4.5-1.5 1.5-10.5Zm-194 3 1 2-3.5.5 2.5-2.5Zm-24 14 .5 1.5-6 13 5 10-1.5.5-3.5-2.5-.5 1.5-7-11-4 1-.5-1.5 5.5-10.5 1 5 11-7Zm18 2 .5 11.5-5.5 10.5-2-1-2 3-2 1-.5-2.5 11.5-22.5Zm33 0 1.5.5-1.5.5v-1Zm172 5 5.5 3.5-.5 3.5-4-1-1.5.5.5-6.5Zm-240 11 4.5 3.5-.5 1.5-5 3-2.5-1.5 3-2 .5-4.5Zm-13 3 .5 4.5-5.5 10.5-.5-4.5 5.5-10.5Zm121 1 2 3-3.5-1.5 1.5-1.5Zm-98 3 1.5.5-3.5 1.5v-1l2-1Zm128 6 .5 2.5h-1l.5-2.5Zm-115 3 1 2-3.5 1.5-.5 1.5-.5-1.5 3.5-3.5Zm115 1 .5 1.5h-1l.5-1.5Zm-145 2 2.5.5-8 7 1.5-5.5 4-2Zm30 1 .5 7.5-8.5 3.5.5-1.5 1.5-3.5 1 2 1-2 1.5-.5 2.5-5.5Z"/><path fill="#D39B60" stroke="#D39B60" stroke-width="3" d="m205.5 213-.5 1.5-.5 1.5-.5-1.5 1.5-1.5Zm169 3 3.5 2.5-2.5 3.5-3.5-.5 2.5-5.5Zm-186 1 1.5.5-8 4-3.5 4.5-6 2 2-3 14-8Zm115 0 2.5 4.5h-1l-1.5-4.5Zm-142 1 1 4 1.5.5-2 5 2 1-3 1-4.5 6.5-.5-7.5 5.5-10.5Zm30 1-24 25-7 3v-1l31-27Zm247 3 3.5 1.5 2 4-2.5.5-3-6Zm-162 1 .5 1.5h-1l.5-1.5Zm-106 5-8 9-1.5-2.5h1l.5 1.5 8-8Zm30 0 3.5.5-3.5 5.5-5.5-.5 2.5-4.5 1 4 2.5-3.5-.5-1.5Zm261 18 6 3 1-2 5.5 7.5-3.5-2.5-3 1-4-1-1.5 4.5v2l-.5 4.5-5.5-11.5 1.5.5 4.5-1.5-.5-4.5Zm-270 1 .5 5.5-5.5 8.5-.5-2.5 5.5-11.5Zm-18 19 1 3 2.5 1.5-8.5 7.5-.5-1.5 5.5-10.5Zm301 0 5.5 14.5-4.5 1.5-3.5-5.5 2-1-2-5 2-1 .5-3.5Zm-331 2 1 2 1.5-.5-3.5 24.5-4.5-1.5q-3.14-18.14 5.5-24.5Zm42 2 .5 2.5-5.5 7.5-2-4-4.5 3.5.5 2.5 1.5.5-1.5 3.5-1-3-5 10-1-5-5 1 .5-1.5 2.5-5.5h5l15-12Zm19 24 2.5.5 2 4-1.5-.5-3.5-1.5.5-2.5Zm-43 1 1 5 5-2 .5 22.5-5.5 3.5q1.25-14.25-4.5-21.5l3.5-7.5Zm294 3 .5 7.5-2.5.5-3.5-4.5 5.5-3.5Zm17 2 7.5.5-1.5 29.5-4.5-1.5-1.5-28.5Zm-153 16 3.5.5-3.5.5v-1Zm10 7 .5 3.5-6.5 3.5.5-1.5 2.5-4.5 3-1Zm-185 2 8 11 1.5.5 2 3-1.5 2.5-4 2-6-19Zm28 11 7.5 3.5-.5 9.5-4-1-1.5.5-3-6 3-1-1.5-5.5Zm116 9 2 3-2.5-.5.5-2.5Zm-138 1 5.5 12.5h-1l-4.5-12.5Zm281 0 .5 4.5-6 9 3.5.5 2.5-1.5-7.5 17.5-3.5 1.5 4 1-4.5 2.5-.5-17.5 11.5-17.5Zm-125 3 10.5 4.5-5.5.5-5.5-3.5.5-1.5Zm-144 4 3.5 1.5 2 12-1.5-.5-4 1v-14Zm18 0 3.5 1.5 2 6-1.5-.5-2.5-1.5-1.5-5.5Zm-6 6 3.5 2.5 2 5-1.5-.5-2.5-.5-1.5-6.5Zm-20 4 1.5 13.5h-1l-1.5-4.5-3.5-2.5 2.5-3.5 1.5-.5.5-2.5Zm32 2 5.5 1.5 2 5-2 1-.5 4.5-5-12Zm-18 7 1.5 2.5-2-1 .5-1.5Zm-11 12 4.5 3.5 3.5 7.5 7 1 1.5-.5-3.5 6.5-8.5 1.5v37l2 3-3 2-23.5 35.5-2-1-3.5 2.5-1.5 3.5-4.5-.5 18-22v-14l6-10v-26q7.83-6.67 6-23l-3-1 2.5-4.5 2-1Zm34 5 .5 6.5-5.5 11.5-1-5-11 7-.5-1.5 6.5-12.5 3 1 5-6 3-1Zm229 6 4 1 1.5-.5-2.5 6.5-3.5-2.5.5-4.5Zm60 7 5.5 2.5-2.5 3.5-3.5-2.5.5-3.5Zm6 12 5.5 2.5-2.5 3.5-3.5-2.5.5-3.5Zm-301 1 1 5 1.5.5-1.5 3.5-1-4-5 10-3.5 1.5-2.5 5.5-1-5-5 1-.5-2.5 5.5-9.5 1 5 8.5-5.5 2.5-5.5Zm315 11 3.5 2.5-.5 5.5-5.5-4.5 2.5-3.5Zm-338 25 3 5 2-1-.5 1.5-3.5 6.5-4-1-1.5.5 4.5-11.5Zm-7 32 1 3 1.5.5-8 9 1.5 2.5-1.5.5-.5 1.5-5.5-2.5 11.5-14.5Zm84 4 .5 5.5-5.5 8.5-.5-3.5 5.5-10.5Zm-117 5 4.5.5-1 4 5 4-10.5 20.5-.5-11.5 5-9-5-6 2.5-2.5Zm13 12 2.5.5-3.5 5.5-2.5-1.5 3.5-4.5Zm93 0 2.5.5-8.5 5.5-.5-2.5 6.5-3.5Zm-7 12 .5 3.5-5.5 2.5-.5-2.5 5.5-3.5Zm-101 11 5.5 1.5-3.5 5.5-2-7Zm89 3 .5 6.5-7.5 3.5-.5-2.5 6-4 1.5-3.5Zm-97 4 7.5 3.5-.5 2.5-7-6Zm14 6 3.5 1.5 2 4-2.5.5-3-6Zm12 6 3.5 1.5 3.5 8.5 3.5 1.5-4.5.5-6.5-3.5.5-8.5Zm59 2 .5 4.5-3.5 5.5-1.5-.5 4.5-9.5Z"/><path fill="#C88638" stroke="#C88638" stroke-width="3" d="m321.5 42 12.5 5.5-4.5.5-8-6Zm-17 6 1.5.5-3.5 1.5v-1l2-1Zm-42 12 1.5.5-2.5 1.5 1-2Zm13 0 4.5.5-14.5 5.5v-1l10-5Zm-29 8 1.5.5-5 4-.5 1.5-.5-1.5 4.5-4.5Zm5 4 .5 2.5-5.5 3.5.5-1.5 2.5-3.5 2-1Zm19 6 1.5.5-9.5 5.5 2-3 6-3Zm152 0 4.5 2.5 17 35-6-4-.5 1.5L421 79.5l1.5-1.5Zm-177 1 .5 4.5-3.5 6.5-2.5-.5 5.5-10.5Zm-12 8 1.5 2.5-6.5 9.5-1.5-2.5 6.5-9.5Zm-20 15 2.5.5-3.5 5.5-2.5-.5 3.5-5.5Zm6 12 4.5.5-3 1-4.5 7.5-.5-5.5 3.5-3.5Zm189 3 2 3-3.5-1.5 1.5-1.5Zm-205 6 .5 2.5q-7.24 4.76-6 18l5 1-6 3-2.5 3.5-6.5 5.5-13.5 25.5-.5-1.5 11.5-28.5 4.5-3.5 2-4-2-1 7.5-16.5 1 2 3.5-2.5-3-1 4.5-2.5Zm211 3 5.5 1.5-2.5 4.5-3.5-2.5.5-3.5Zm-175 3 .5 3.5-5.5 10.5-.5-5.5 5.5-8.5Z"/><path fill="#C88638" stroke="#C88638" stroke-width="3" d="m207.5 132 2.5.5-1.5 11.5-4.5-.5q-2-9.5 3.5-11.5Zm215 18 3.5 2.5-.5 4.5-4-1-1.5.5 2.5-6.5Zm-195 10 .5 2.5q1.89 15.39-5.5 21.5l-.5-15.5 5.5-8.5Zm-34 2 3.5.5 3.5 5.5 3.5 1.5-1.5 4.5-10 6-.5-16.5 1.5-1.5Zm227 5 4 1 1.5-.5-.5 6.5-5.5-3.5.5-3.5Zm-199 20 .5 4.5-5.5 10.5-1.5-2.5.5-1.5-2.5-.5 2.5-1.5 1.5.5 4.5-9.5Zm23 0 2 3 3.5 1.5-4.5 1.5-3-1-2.5 1.5.5-4.5 4-2Zm-52 2 5 8 1-2 2 3-26.5 15.5v5l-9.5 9.5-2.5-.5 2.5-5.5 1.5-.5 7.5-15.5 2.5-1.5.5-1.5 14.5-7.5-2-3 3-1 .5-2.5ZM178 204l-4 4 1 2 4-2 1-3-2-1Zm254.5-11 5 8 1-2 8.5 22.5-3 1-.5 4.5-3-5-2.5.5-.5 3.5-5.5-11.5 2.5 1.5 8.5-.5-10.5-17.5-1 5-2.5-4.5 3-1 .5-4.5Zm-103 6 .5 5.5-5.5 10.5-.5-4.5 5.5-11.5Zm-135 5 3.5 2.5-2.5 3.5-3.5-2.5 2.5-3.5Zm15 4-.5 3.5-2.5 5.5-1.5.5-.5 1.5-.5-2.5 5.5-8.5Zm91 4 5.5 14.5h-1l-4.5-14.5Zm-110 5 1.5.5-24.5 25.5-17 11-.5-1.5 6.5-13.5 3 1 2-4 10-8 10.5-5.5.5-1.5 8-4Zm19 2 .5 2.5-5.5 10.5-4.5 3.5-8 29-5.5 7.5-1-2-15 12-5.5.5-.5 1.5-.5-1.5 3.5-5.5 8-6 1.5-.5-.5-1.5 7.5-5.5 1.5-3.5 2.5-.5 7.5-25.5 8.5-3.5-.5-2.5-3.5.5v2l-1.5 2.5-.5-8.5 11.5-5.5Zm137 5 .5 1.5h-1l.5-1.5Zm103 2 1.5 7.5-4.5.5-2.5-3.5 5.5-4.5Zm-101 2 5.5 3.5-.5 3.5-5.5-1.5.5-5.5Zm108 0 9.5 7.5 2 4-12 2 1 4-3.5.5-3.5-5.5 4-1 2-5v-2l.5-4.5Z"/><path fill="#C88638" stroke="#C88638" stroke-width="3" d="m183.5 246 1.5.5-10.5 22.5-1-3-1.5.5 7-13-1.5-.5-17.5 10.5.5 1.5-16 8 1.5-2.5.5-1.5 6.5-4.5-.5-1.5 31-17Zm280 0q8.75-1.75 10.5 3.5l-.5 4.5-5-7-1 2-4-3Zm0 6 4.5 1.5-.5 5.5-5.5-2.5 1.5-4.5Zm-145 1 3 5 2.5 1.5-1.5 4.5-4 1v-12Zm144 10 4 1 1.5-.5 2 6-2 1 7.5 11.5 4-1 .5 1.5-3.5 5.5-2 1-12-26Zm-6 3 5.5 13.5h-1l-4.5-13.5Z"/><path fill="#C88638" stroke="#C88638" stroke-width="3" d="m171.5 268 .5 1.5-1.5 2.5-.5-1.5 1.5-2.5Zm-2 5-.5 1.5-.5 1.5-.5-1.5 1.5-1.5Zm4 10 1 3 1.5-.5-2.5 26.5-3.5 1.5-1.5 3.5-.5-23.5 5.5-10.5Zm289 1 6.5 11.5-2.5-1.5-5.5-1.5-2-4 3-1 .5-3.5Zm-12 4 3.5 1.5 2 8-5.5 3.5v-13Zm-312 5 4 1 1.5-.5-.5 6.5-5.5-3.5.5-3.5Zm341 5 .5 1.5h-1l.5-1.5Zm-23 3q7.22 5.78 5.5 20.5l-3.5 2.5-8.5-20.5 3.5 2.5 2.5-.5.5-4.5Zm-300 2 1.5.5q5.94 6.56 4.5 20.5l5-3 4 10 4.5 3.5-.5 1.5-7.5.5 1.5 5.5 2.5 1.5 4.5 22.5 3.5 1.5v31l-6 9v13l-6 10-2.5 13.5-2.5-1.5-1-35 1.5.5 4.5-1.5-1-4 4-1q6.21-4.79 3-19l-6-11-2.5-17.5-3.5-1.5-1.5-16.5-4.5.5-.5 2.5-2-3-6.5-5.5-2.5-5.5-1 3-1.5-3.5 2-1-.5-1.5 10 2 2.5-2.5.5-18.5Zm317 1 .5 1.5h-1l.5-1.5Zm-38 8 2.5.5q4.13 24.13-5.5 34.5l-4.5 2.5-7.5 13.5-.5-11.5 12-21q-2.53-13.53 3.5-18.5Zm-107 5 7.5 3.5-5 3 3 1-3.5 1.5-2-9Zm146 12 4 1 1.5-.5-2.5 6.5-3.5-2.5.5-4.5Zm-282 7 3.5 1.5 2 33-3.5 1.5-3-6-5.5-1.5-2.5-10.5-3.5-1.5.5-12.5h4l8-4Zm96 6 5.5 2.5 1 3-3.5.5-3-6Zm19 6 15.5 5.5-5.5.5-10-6Zm156 12 10.5 2.5-1.5 3.5-7.5-.5-1.5-5.5Zm-32 3 .5 3.5-5.5 10.5-.5-5.5 5.5-8.5Zm-239 10 3 5 7.5 1.5-5.5 16.5-3.5 2.5-7.5 14.5-.5-5.5q9.64-10.86 6.5-34.5Z"/><path fill="#C88638" stroke="#C88638" stroke-width="3" d="m158.5 378 3.5 2.5-.5 6.5-4-3-1.5.5 2.5-6.5Zm306 0 3.5 2.5-.5 15.5-5.5-3.5q-3-11.5 2.5-14.5Zm-271 42 4.5 1.5-2.5 4.5-3.5-1.5 1.5-4.5Zm-14 9 1 3 11.5 2.5-.5 6.5-12-8-11 21-.5-3.5 11.5-21.5Z"/><path fill="#C88638" stroke="#C88638" stroke-width="3" d="m180.5 444 5.5 3.5q1.25 11.25-7.5 12.5l-3 1-.5-1.5 5.5-15.5Zm-19 1 .5 11.5-6 11v2l2 10-2 1-12 17v2l-.5 10.5-3.5 1.5-2 4v2l1 4v2l2.5 4.5 2.5-.5-1-6 1-4-.5-1.5 6.5-.5 3.5-5.5 8-1 2 1v-2l4.5 2.5-5.5 9.5-3.5 2.5q-7 9.5-3 30l-3.5 5.5-8.5-3.5-3.5-8.5-2.5.5-.5 7.5-19.5-13.5 2-1-3-5 3-1 .5-2.5 2 3 3.5-5.5-6-2 11-26-5-4 1.5-4.5 6.5.5-2 11 3 1-3 4 2.5 1.5 3.5-5.5-1-2 7-16-3.5-.5-2.5 1.5v-10q15.78-12.22 23.5-32.5ZM134 528l-2 6v2l2 4 4-1-1-4 1-5-4-2Zm-7 12 3 6h2l-2-4-3-2Zm18 6-1 5 6 1v-3l-5-3Zm97.5-90 3.5 2.5 2 4-1.5-.5-6 2-.5-5.5 2.5-2.5Zm-3 25 .5 5.5-5.5 10.5-.5-5.5 5.5-10.5Z"/><path fill="#C88638" stroke="#C88638" stroke-width="3" d="m158.5 486-7.5 8.5 2 3-3-2 8.5-9.5Zm49 47-3 4-1-2 4-2Z"/><path fill="#E79863" stroke="#E79863" stroke-width="3" d="m306.5 48 3.5.5-13.5 5.5v-1l4-2 1.5.5.5-1.5 4-2Zm-37 66 5.5.5-8 6-7 16 4 13-12 19 4 6-2 1 6 4-5.5.5-8.5-12.5 11-15 1-26 7.5-10.5 4-2Zm11 0 7.5 2.5q-.56 20.06 13.5 25.5l17 2 23.5 14.5q-2.03 15.03 6.5 19.5l5.5 2.5-2.5 5.5-20.5 9.5-6.5 12.5.5-1.5-1.5-8.5-4.5-2.5 10-13 7-23-45-21-10.5-24.5Zm-8 66 11.5 5.5-1.5.5-10-6Zm-29 12 3.5 1.5 2 4-11.5.5.5-1.5 1.5-3.5 1 2 3-3Zm47 24 3.5 2.5-.5 3.5-5.5-.5 2.5-5.5Zm54 0 3.5 2.5-.5 3.5-5 1-.5-4.5 2.5-2.5Zm-21 1 .5 5.5-5.5 10.5-.5-5.5 1.5-2.5 1.5-.5v-2l2.5-5.5Zm-55 3 1.5.5.5 1.5 8.5.5-3 1-1.5 2.5-5 2-7.5-5.5 6.5-2.5Zm-32 8 3.5 1.5-.5 39.5q-10.31-11.69-5.5-38.5l2.5-2.5Zm116 0 19.5 1.5-1.5 4.5-10.5 2.5 2.5 3.5 21.5.5q3.92 28.92-8.5 41.5l-22-6-9.5-7.5-2-7 6-9 6-22-1.5-2.5Zm4.5 18-6 18h-2l-1 3 21 4 7 5 2-1-2-21q-5-9-19-8Zm-98.5-14 2 2h31l2.5 2.5 2.5 9.5 9-1 .5 12.5-6 18 4.5 6.5 13.5-1.5.5-11.5 3.5 2.5 2 8q-3.91 10.09-18 10l3.5 9.5 1.5.5-4 1 5 3 1 2-1.5.5-9.5-5.5 4-1-2-3 .5-1.5-19-7-4.5 8.5 2.5 3.5-7.5-2.5-.5-3.5-5.5-.5 3.5-5.5q14.62-2.88 20.5-14.5l-2.5-3.5h-10l-29 12h-10l-2.5-7.5 2.5 1.5h9l36.5-12.5v-21l-2.5-2.5-16 6h-9l-4.5-11.5 2-1 .5-1.5Zm31.5 50-2 5 11 1 1-4-10-2Zm-24.5 30 4 3 1-2 5 10 1-3 1.5 3.5-2 1 1.5 5.5 4.5-.5.5-1.5 11.5 13.5-6.5 1.5-9-1q-6.5 4-2.5 18.5l11.5 14.5 5.5 2.5-5.5.5-9.5-7.5-19-38q7-6.5 6.5-20.5Zm55 0 3.5 2.5.5 1.5 3.5 1.5-2.5.5h-2l-7.5-1.5 2-1 2.5-3.5Zm-.5 4v1h3l-3-1Zm-179.5 2 2.5 5.5-1.5.5-2.5-4.5 1.5-1.5Zm195 0 6.5 2.5-2.5 3.5-8.5-.5 5-3-.5-2.5Zm-36 6 6.5 3.5.5 2.5 4.5.5-14.5 5.5q-5.5-3 1-6l2.5-1.5-.5-4.5Z"/><path fill="#E79863" stroke="#E79863" stroke-width="3" d="m288.5 348 18.5.5-1 2 5 3-20.5.5-2-6Zm34 6 6.5 3.5 1 15-3.5 4.5-31 1v-1l10-5q14.5 4 18.5-2.5l-1.5-15.5Zm-46 108 5.5 2.5-.5 3.5-5.5-3.5.5-2.5Zm95 6 4.5.5-14.5 5.5v-1l10-5Zm-30 12 4.5.5-13.5 5.5 1-2 8-4Z"/><path fill="#DBC3B7" stroke="#DBC3B7" stroke-width="3" d="m311.5 48 5.5.5-15.5 5.5v-1l10-5Zm9 1 9.5 8.5-13.5 2.5 1.5-2.5 2.5-8.5Zm-21 11 5.5.5-12.5 5.5 3-4 4-2Zm-33 6 5.5.5-9.5 5.5 1.5-2.5 2.5-3.5Zm-15 16 .5 1.5-5.5 8.5-.5-2.5 5.5-7.5Zm-11 17 3.5 1.5.5 1.5h2l2.5.5-8.5 15.5-4.5 3.5-2 17-3.5 5.5-2.5-.5-.5-5.5-4.5-2.5L240.5 99Zm-21 9 2.5.5-2.5 5.5-3.5 2.5-5.5 8.5-.5-7.5 9.5-9.5Zm-12 18 2.5.5-1.5 3.5-3 1-.5-1.5 2.5-3.5Zm65 1 6.5 4.5-7 2-2 8 6 5 1.5 2.5 3 1 1.5-.5q8.68 9.32 6 30l-6.5.5-5.5-3.5v-24l-3.5-3.5-3.5-2.5-5-11 4.5-5.5 4-3Zm-45 29 .5 2.5-17.5 37.5-3.5 1.5-.5 1.5-2 1-5.5-13.5 9-3 7-13-4-6 16.5-8.5Zm201 30 3.5 2.5-.5 5.5-5.5-3.5 2.5-4.5Zm-234 14 3.5 1.5 1 2-2.5.5-4.5 1.5-.5 4.5-9.5 6.5-4 5 .5 1.5-16 11-.5-2.5 32.5-31.5Zm-23 4 1.5.5-2.5 5.5-2.5-.5 3.5-5.5Zm137 1 9.5 5.5-2.5 4.5-2.5-.5-.5-1.5-1.5-.5-.5-2.5-2.5-1.5.5-3.5Zm-141 6 .5 4.5-3.5 6.5-2.5-.5 5.5-10.5Zm30 0 1 5 2.5.5-2.5 4.5-1-4-3 4-1.5.5 5 2-5.5 14.5-.5-4.5 5-10-1.5-.5-3 2-.5-3.5 5.5-10.5Zm109 2 3.5 2.5-3 1 5 3q3.93 20.93-5.5 28.5v-35Zm144 37 5 7 1-4 2.5 4.5-3 1-.5 3.5-5-12Zm-198 2 9.5 2.5 2 4-2.5 3.5-9 2-4.5-2.5-2-4 2.5-3.5 4-2Zm-98 4 1.5.5.5 1.5 3.5.5-8.5 4.5-.5-1.5 3.5-5.5Zm155 8 2.5.5 3.5 12.5 2.5 1.5-2.5 3.5-4.5-.5 1-3-5-4-1-7 3.5-3.5Zm153 2 10.5 21.5-7.5.5-5.5-17.5 2-1 .5-3.5Zm-298 22 3.5.5-1.5 5.5-4.5-1.5 2.5-4.5Zm131 25 4.5 2.5 1 2-9.5.5 4-5Zm14 5 9.5.5-3.5 5.5-3-5-1 3-2-4Zm-153 39 5.5 4.5-1.5 5.5-4 2v-12Zm143 9 5.5 2.5-.5 1.5-8 2-1-4 4-2Zm-137 5 3.5 2.5 2 6-4-3-1.5-5.5Zm19 1 2.5.5 2 5-3.5.5-2.5-4.5 1.5-1.5Zm-19 10 5.5 3.5-1.5 4.5-4.5-1.5.5-6.5Zm263 5 .5 6.5-3.5 2.5-2.5-4.5 1.5-2.5 4-2Zm-273 3 3.5.5-.5 6.5-4-1-1.5.5 2.5-6.5Zm-3 27 .5 21.5-6 11-2 17-16 19 3 1-2.5 4.5-1-4-3 5-2.5 1.5 2 4-2 1 .5 5.5 2.5.5-6.5 17.5-2.5.5-.5 5.5-3.5-1.5-1.5-3.5-1 3-1.5-3.5 2-1v-30l5-9-4-11 18.5-43.5 3.5-1.5-3-1 3.5-1.5 1 2 17-9Zm-8.5 16-2 3 3 1 1-2-2-2Zm-6 12-3 6 3 4 3-2-2-7-1-1Zm-2 11 1 5h2l2-4-5-1Zm-4 7-2 3 3 1 1-2-2-2Zm-5 11-4 6h3l3-5-2-1Zm291.5-30 10.5 1.5q1.89 15.39-5.5 21.5l-5-23Zm97 0 9.5 8.5-.5 3.5-9 5-3-5-11.5 9.5.5 2.5 4.5 2.5-6.5 7.5-37.5 20.5-5.5 9.5q-17.12 2.38-24.5 14.5l-6.5 10.5-16 11-7 1-6.5-4.5-2-4 8.5-13.5 7.5-3.5-4-7 14.5-7.5 6 4q28.74-8.76 47-28l27.5-10.5-.5-2.5h-29q-18.6 18.4-51 23l-7.5-5.5-2-5q16.11-1.89 23.5-12.5h25q4.76-7.24 18-6l38-18Zm-266 24 5.5 2.5v16L237.5 515l-13.5 8.5-7 18 4 8-3.5 4.5-21 14-16 5 5-6 5.5-4.5 12.5-21.5 1 2 2-3 3.5-2.5.5-1.5 4.5-3.5 10.5-16.5 8.5-3.5 12.5-44.5Zm25 6 22.5 9.5 1 2-1.5.5-22-12Zm-115 6 4.5 1.5-2.5 4.5-2.5-.5.5-5.5Zm-19 5 .5 3.5-7.5 3.5 1-2 1.5.5 2.5-4.5 2-1Zm13 13 5.5 2.5-2.5 3.5-3.5-2.5.5-3.5Zm-16 30 3.5 2.5-.5 3.5-5.5-.5 2.5-5.5Z"/><path fill="#E3D9A4" stroke="#E3D9A4" stroke-width="3" d="m317.5 48 3.5.5-5.5 11.5h-16L274 71.5l-.5 1.5-6.5 4.5.5 1.5L254 90.5l-5.5 11.5-3-1-1.5.5-.5-1.5-3.5-1.5.5-2.5 3.5-1.5 1.5-3.5 3.5-1.5L261.5 72l10.5-5.5.5-1.5 22-11q16.62 2.12 23-6Zm-36 93 .5 7.5-2.5 1.5-3.5-2.5.5-3.5 5-3Zm145 50 5.5 3.5-.5 3.5-2.5-.5-2.5-6.5Zm-217 4 .5 6.5-4 3-5.5 11.5-2.5-.5.5-11.5 3.5-1.5 1.5-3.5h2l1.5-.5 2.5-3.5Zm97 13 4.5 2.5.5 2.5 1.5.5.5 1.5 1.5.5-3 1-.5 2.5-4.5-2.5 3-1-4-3 .5-4.5Zm-109 9 .5 5.5-13.5 21.5-28 14-.5-2.5 5.5-6.5 13-6 22.5-20.5-4-1 4-3 .5-1.5Zm247 20 8 9 3.5 2.5-.5 8.5-5-7-1.5-.5-4.5-12.5Zm12 21 2.5.5 3 11-2.5.5-3-12Zm-150 15 1 2 4.5 3.5-1.5 3.5-4.5-1.5.5-7.5Zm-16 45h18l2.5 2.5.5 1.5 1-3 2.5 4.5-3 1-2.5 5.5-3.5-.5-.5-3.5-17.5-4.5 2.5-3.5Zm29 0 4.5 1.5-2.5 10.5-3.5-2.5-.5-3.5-1.5-.5 3.5-5.5Zm-158 47 1.5 5.5-1 2 6 12-1.5-.5-4.5-2.5-1.5-3.5-4.5-.5 1.5-9.5 3.5-1.5.5-1.5Zm-27 80 1.5.5 2 7-3.5 2.5-2.5-4.5 2.5-5.5Zm267 3 .5 2.5-10.5 13.5-11 4v-1l21-19Zm-273 15 2.5 1.5-1.5 2.5-2.5-1.5 1.5-2.5Zm232 11 4.5.5-14.5 5.5v-1l10-5Zm-231 12 5.5.5-2.5 4.5-3 1-6.5-.5 2.5-4.5 1 4 3-5Zm-9 12 2.5.5 1 3-1.5 2.5-2.5-.5.5-5.5Zm20 18 3.5 2.5-2.5 3.5-3.5-2.5 2.5-3.5Z"/><path fill="#E4B786" stroke="#E4B786" stroke-width="3" d="m332.5 48 9.5 3.5-.5 1.5-9-5Zm-68 18 1.5.5-1.5.5v-1Zm17 0 4.5.5-11.5 6.5-.5-1.5 7.5-5.5Zm-19 1 1.5 2.5-17 15 1 2-2 1 .5 1.5-1.5-.5 1 2-3.5 5.5-.5-1.5.5-2.5 1.5.5-1-2L258.5 69l2-1 2 1v-2Zm-3.5 3-4 5 5-4-1-1Zm-6 7-1 2h1v-2Zm-2 2-1 2h1v-2Zm-2 3-1 2h1v-2Zm2.5 15 .5 4.5-5.5 8.5-.5-2.5 5.5-10.5Zm-26 5 8.5.5-6.5 8.5-7 3 1.5-2.5-.5-3.5-1.5-.5 5.5-5.5Zm2.5 4-2 1-1 2 4-1v-1l-1-1Zm5.5 6 .5 2.5-11 21 5 3 .5 5.5 2 1 3-6 .5 10.5-5.5 10.5-1-4-16.5 8.5 4 7-7.5 12.5-8 2-.5-1.5q6.61-4.89 5-18l-3.5-5.5-1.5-.5.5-3.5 6.5 4.5-1 4 2 7-6 11 5-4 3-9-1-7q10.52-3.98 7.5-21.5l3.5-2.5 3-8-2 1-7 9-3.5 18.5-.5-1.5 2.5-19.5 14.5-12.5.5-2.5 1.5-.5v-2l2.5-5.5 1.5-.5 1.5-3.5Zm-3.5 34-1 2h1v-2Zm-1 2-3 5 2 2 1-2v-5Zm47.5-34 5.5 3.5-.5 3.5-2-3-3-1-9.5 5.5-2.5 4.5.5-1.5 5.5-8.5 6-3Zm-61 4 .5 1.5-5.5 8.5-1-2-1.5-.5 1.5-3.5 1 3 5-7Zm24 0 .5 4.5-5.5 7.5-.5-5.5 5.5-6.5Z"/><path fill="#E4B786" stroke="#E4B786" stroke-width="3" d="m274.5 120 2.5.5 13.5 24.5 38.5 16.5q-1.32 20.18-14 29v9l4 3 1.5 11.5 1.5-13.5-1-2 2.5-.5.5 17.5-6 11-1.5 50.5-2.5-1.5-2.5-11.5-5.5 3.5-.5 12.5-2.5-10.5 4.5-7.5 5-3 2 8 .5-29.5h-1l-1.5 12.5-4-3-2.5 1.5q10.64-8.86 6.5-32.5l5.5-3.5-.5-2.5-9-5-1 3-1.5.5-1 8 1 3h-1L294.5 195l-1.5.5-5.5-7.5-3.5-1.5-2.5-4.5-20-2-6.5-6.5-2-7 8.5-10.5-2.5 3.5q-5.56 2.44-4 12 3.75 6.75 16.5 4.5v-1q-10.5 2-12.5-4.5l9-20-5.5-18.5-1 6-1.5-3.5 2.5-4.5 1 2 7-9 4-3Zm-1.5 7-4 3-5 6 5 11 4 2 3 4v24l6 3h6q3-20-6-27v-19l-9-7Zm0 49v1h1l-1-1Zm15 7 1 1q14 7 15 27l1-7-3-9-3-3-3-3-8-6Zm17 29-1 2h1v-2Zm15 3-5 13 1 7 4-16v-4Zm-4 52-1 4h1v-4Zm1 4-1 3h1v-3Z"/><path fill="#E4B786" stroke="#E4B786" stroke-width="3" d="m282.5 122 12 20 15.5 7.5-1.5.5-19.5-12.5-6.5-15.5Zm-79 6 2.5 4.5-5.5 11.5-2.5-.5 5.5-15.5Zm61 18 .5 4.5h-1l.5-4.5Zm47 4 24.5 9.5-5.5 12.5-.5-1.5 4-9-22.5-11.5Zm-48 2 .5 1.5-2 1 1.5-2.5Zm-74 4 2.5.5v17l-9 24 .5 1.5-9.5 4.5 2 1-4-1 2-20 15.5-27.5Zm-1.5 11-9 19 2-1v8h-2l-1 5h2l9-25-1-6Zm33.5 5 .5 1.5-5.5 11.5-.5-5.5 5.5-7.5Zm108 1 .5 6.5-10.5 13.5 5.5-6.5 4.5-13.5Zm-82 19 9.5 1.5-.5 3.5-7 1-2-6Zm-44 4 .5 2.5-3.5 5.5-2.5-1.5-2-3 7-2 .5-1.5Zm-3.5 3-1 2 2-1-1-1Zm13.5-1 1.5.5-4.5 9.5-4.5 2.5-5.5 11.5-2.5-.5 2-1v-2l1.5-3.5 1.5.5-1-2h2l-1-2h2l-1-2 4.5-7.5 5-4Zm219 2 10.5 14.5-7.5 1.5q-6.88-3.38-3-16Zm-265 6 1 4 1.5.5-1.5 3.5-1-3-5 10-.5-4.5 5.5-10.5Zm21 4 3.5.5.5 1.5 5-2-.5 1.5-4.5 9.5-1.5.5 1 4-21.5 19.5-2-1v2l-1.5-.5-.5 1.5h-2l-6.5 3.5 2 1-7 6-2 6-1.5 3.5-5 2-.5-1.5 12.5-18.5 11-5 25.5-25.5-1.5-5.5-3.5 1.5 3 1-12.5 6.5 3.5-4.5 6.5-7.5Zm-1.5 5v1h1l-1-1Zm2 10-16 17 16-15v-2Zm51.5-3 5.5 3.5.5 2.5 14-6 7.5 5.5-16 1 .5 5.5 5.5 3.5-.5 5.5-4-6-3.5-2.5-1.5-3.5-5-2-2.5 4.5v27l5.5 14.5 15-5v1q-5.17 6.33-18 5l-3.5-3.5-1-44 1.5-6.5Zm204 0 4.5 1.5-2.5 4.5-2.5.5.5 5.5 10.5.5-2.5 5.5-2.5.5-.5 1.5-6.5-4.5-5-11 2.5 1.5 3.5-.5.5-5.5Zm-280 6-2.5 3.5.5 2.5 1.5.5-2 1-.5-1.5-3 5-1.5-.5 4.5-8.5 3-2Z"/><path fill="#E4B786" stroke="#E4B786" stroke-width="3" d="m245.5 232 4 6 3.5 1.5 2.5 8.5 14 3 13-5 .5 12.5-37.5 12.5-2.5-14.5 2.5-24.5Zm7.5 20-4 2-3 4 2 4 5 2 9-2 2-3-2-4-9-3Zm-61.5-17 .5 1.5-.5 1.5 1.5.5-13.5 28.5-4 2 .5-1.5 13-24-2.5 1.5-3.5-.5 7-6 1.5-3.5Zm-1.5 6-1 2h1v-2Z"/><path fill="#E4B786" stroke="#E4B786" stroke-width="3" d="m282.5 240 4.5 1.5 1 22-6.5.5v-1l4.5-2.5 1-15-2.5-3.5-12 4v-1l10-5Zm-21 6 9.5.5-9.5.5v-1Zm96 0q13.62-1.63 17.5 6.5 5.33 6.17 3 20l-1.5 2.5-4.5-2.5 4-2 1-10-7.5-11.5-10-2-3.5 2.5-1.5 9.5-.5-9.5 1.5-2.5 2-1Zm97 0 6.5 1.5-.5 3.5-6-5Zm-275 1 1.5.5-20.5 11.5-1.5-2.5h2l.5-1.5h2l16-8Z"/><path fill="#E4B786" stroke="#E4B786" stroke-width="3" d="m359.5 251 11.5 4.5 2 12-1.5-.5-14.5-2.5 2.5-13.5Zm109 1 5.5 3.5-.5 14.5-5.5-3.5.5-14.5Zm-190 12 1.5.5-16.5 5.5v-1l15-5Zm70 0 3.5.5 1.5 3.5 13.5 1.5-12.5.5-6.5-3.5.5-2.5Zm-47 4 .5 1.5-1 6 3 4-1.5.5-2.5-9.5 1.5-2.5Zm-13 2 4.5 1.5-.5 3.5-4 3v-8Zm-111 6 1.5.5-2.5 5.5-2.5-.5 3.5-5.5Zm108 12 12.5 5.5-1.5.5-10-3-2.5 3.5 13.5 1.5 5-2 2.5 5.5-19.5.5-3.5-5.5 3.5-6.5Zm181 0h2l2 1 3-1 1 6 2.5.5 2 4-7.5 1.5-5-12Zm-304 5 4 1 1.5-.5-3.5 6.5-2.5-.5.5-6.5Zm146 7 8.5 1.5-.5 3.5-3.5-.5-1.5-2.5-3-2Zm-40 12 1.5.5-.5 1.5-1-2Zm3 0 1.5.5 3 9h-1l-3.5-9.5Zm20 0 5.5 1.5-9 6 3.5-7.5Zm16 1 8.5 4.5-5.5.5-4.5-1.5 1.5-3.5Zm16 5 5.5 1.5-.5 3.5-2 1-1-3-1 4-.5-3.5-.5-3.5Zm-47 6 5.5 3.5-.5 2.5-4.5-1.5-.5-4.5Zm36 0 5.5.5 2 5-9.5.5 1-2 1.5-.5-.5-3.5Zm-156 12 4.5 1.5 1 22-2.5.5-8.5-15.5 4.5-2.5-.5 1.5 2.5 8.5 1.5-6.5-2.5-9.5Zm12 0 5.5 3.5-.5 2.5-4.5-1.5-.5-4.5Zm111 6 7.5 1.5 1 8h-1l-4.5-8.5-4.5 2.5-1 11 8.5 14.5 11 4v-1l-6.5-3.5q-11.36-4.64-9-23l1.5-.5 3 10 33.5 2.5-.5 7.5h-10l-9.5 6.5.5 1.5-7 2-13.5-11.5q-5.33-6.17-3-20l1.5-2.5 2-1Zm20.5 24-4 2 1 4 8-2v-1l-5-3Zm-124.5-17 3.5.5 4.5 11.5 1.5.5 7 17v8l-1.5 2.5-9 6-1.5-18.5 2 1 .5 1.5 3.5-1.5-2-6 2-1-.5-1.5-2.5.5-.5 2.5-2 1-4-14-1.5-.5-1-7 1.5-2.5Zm12.5 24-1 3h1v-3Zm1 4-2 9h-1l-2-6h-1l1 11h2l3-6v-8Zm242.5-25 .5 4.5-5.5 3.5-.5-2.5 5.5-5.5Z"/><path fill="#E4B786" stroke="#E4B786" stroke-width="3" d="M291.5 354h29l3.5 3.5-1.5 13.5-15 1v-1l14.5-2.5 1-8-3.5-3.5-28-3Zm-127 13 2.5.5 7 17v8l-1.5 2.5-4 1-4.5-2.5-2-4 3.5.5 1.5-.5 2-12-2-1 .5-1.5-1.5-.5.5-1.5-3.5-1.5-1-2 2.5-2.5Zm.5 1-1 2h1v-2Zm1 2-1 2h1v-2Zm4 10-1 2h1v-2Zm1 3-1 8h1v-8Zm-1 8-3 1v1h3v-2Zm254.5-15 1.5.5-.5 1.5-3.5-.5 2.5-1.5Zm0 3 1.5.5-1.5 8.5-3.5 1.5-.5 1.5-.5-9.5 4.5-2.5Zm-240 24 1.5.5q2.03 15.03-6.5 19.5l-5 2-.5-13.5 1.5-2.5 9-6Zm-3.5 4-4 12 3 1 3-9-1-3-1-1Zm-31.5 2 .5 7.5-7.5 3.5-.5-1.5 1.5-2.5 3.5-1.5 2.5-5.5Z"/><path fill="#E4B786" stroke="#E4B786" stroke-width="3" d="m179.5 413 .5 1.5h-1l.5-1.5Zm-8 19 2.5.5-7.5 22.5-2.5-1.5-2-9 6-1 1.5-10.5 2-1Zm-12 30 2.5.5 5 10-2.5.5-3-5-4.5-.5 2.5-5.5Zm103 6 1.5.5.5 1.5h2l7.5 3.5-4.5.5-7-6Zm-128 13 2.5.5 1 3-2.5 1.5-1-2-1.5.5.5 1.5-2.5-.5 3.5-4.5Zm-15 36 .5 16.5-8.5.5-3.5-10.5h1l2.5 4.5 2.5-.5.5-5.5 3.5-1.5 1.5-3.5Zm-1.5 6-2 6h-1v1l3-1v-6Z"/><path fill="#831709" stroke="#831709" stroke-width="3" d="m359.5 82 1 2 1.5.5-2 3 3 4-1.5-.5-13-1-1.5.5.5-1.5 1.5-.5.5-2.5 2 1 4-3 4 1-.5-1.5.5-1.5Zm5 10 7.5 6.5 33 40q6 7.5 3 24l-1.5-.5-10.5-8.5.5-10.5 2 1 .5-3.5-3-5-2.5-3.5-5.5-4.5.5-1.5 1.5-.5-.5-1.5-2.5-.5-1-2 2-1-3.5-4.5-1.5.5 2.5 3.5-10-12-3.5-2.5-6.5-12.5-1-1Zm-97 8 .5 2.5-11.5 5.5 2-3 7-3 1.5.5.5-2.5Zm-22 21 1.5.5-2.5 1.5 1-2Zm-2 3 .5 1.5-4 3 3.5-4.5Zm-4 21 .5 7.5-5.5 3.5.5-1.5 4.5-9.5Zm-6 33 1 2 2.5.5-2.5.5-1-3Zm175 1 3.5 2.5 1 6-2.5 4.5-13.5-5.5-.5-1.5-1.5.5.5-2.5 4 3h2l6.5-.5.5-6.5Zm-181 2 1 4 1-2 2-1 1 2-7 2 .5-1.5 1.5-3.5Zm3 11 3 1 2-1 .5 2.5-5 3-3.5 13.5-1.5.5-.5 3.5-1.5-.5q1.05 20.05-7.5 30.5l-.5-11.5 6-11q-1.84-19.84 6.5-29.5l2-1Zm2.5 1-1 2h1v-2Zm107.5 2 1.5.5-2.5 1.5 1-2Zm5 3 17.5.5-2.5 3.5-13 2-4.5-2.5 2.5-3.5Zm54 0 20.5 8.5v33l-6 13v11l-6 18 12 1-15.5 41.5-2.5-.5 3-2-2.5-.5-2.5-.5.5-1.5 1.5-.5-3-1 3-11-5-15 4.5-8.5 3.5-1.5 1-5h-1l-.5 1.5-.5-1.5 4-3-1-2q-1.08-17.08 7-25l-3-1 3-17-3.5-6.5-1.5-.5q-8.7-6.3-8.5-21.5l-1.5-.5.5-1.5Z"/><path fill="#831709" stroke="#831709" stroke-width="3" d="m398.5 215 .5 1.5h-1l.5-1.5Zm-69 2 1 11 4-2 1.5 5.5-6.5 14.5-5.5-2.5q-2.75-18.75 5.5-26.5Zm7 59 5.5 2.5-1.5 2.5-2.5 1.5-4.5 10.5-4 1 .5-1.5 2.5-4.5 3.5-1.5-.5-4.5-6 3-.5-1.5 7-5 .5-2.5Zm-28 12 4.5.5-1 4 .5 1.5-6.5-2.5 2.5-3.5Zm-35 12h12l17.5 11.5-14.5.5-2-6-13-6Zm12.5 4v1h1l-1-1Zm38.5-4q18.55-3.05 24.5 6.5l-3.5 5.5-4 1-3-1-2 1-2-1h-2l-8.5-3.5.5-8.5Zm35 15-9.5 10.5-4.5 10.5-1.5-.5-2-8 3.5-5.5 2.5-1.5.5-2.5 11-3Zm-23 9 4.5.5-10 5 2 1-3 2 .5-5.5 6-3Zm65 6 2.5.5-24 24-13.5 19.5-.5-2.5 1-2-1-2 2-1 2.5-3.5 5.5-4.5 13.5-24.5 1 2 3-4 1.5.5.5 1.5 6-4Zm-66 6 .5 2.5-5.5 2.5-.5-1.5 5.5-3.5Zm24 39-.5 1.5-.5 2.5-16.5 8.5.5 2.5q21.54 2.54 27-11l8.5 17.5v12l7.5 9.5 22.5 2.5q2.97 16.47-3.5 23.5-15 1.5-21-6l-3.5 2.5-4.5 7.5-6 1-6.5-4.5-2-9 4-11-5.5-7.5q-7.5-6-24-3L321 402.5l-2-4 19.5-8.5 21-15Z"/><path fill="#831709" stroke="#831709" stroke-width="3" d="m362.5 376-1 2-1.5-.5 2.5-1.5Zm-111 10 .5 4.5-5.5 10.5-.5-4.5 5.5-10.5Zm55 4 5.5 2.5-2.5 3.5-8.5-2.5.5-1.5 5-2Zm-90 9 2 3 4-1 3.5 2.5 2 5-1.5-.5-7-2h-2l-1.5-.5.5-6.5Zm29 3 .5 6.5-5.5 8.5-.5-6.5 5.5-8.5Zm-18 11-.5 1.5-2.5 4.5-2.5-1.5.5-3.5 5-1Zm14 9 4.5 9.5h-1l-3.5-9.5Zm-40 4 11.5.5-6 4v2l-3.5 15.5-1.5.5.5 1.5-6.5-.5 1-3 1-2-1-2 1-2-3-2 3-1 3.5-11.5Zm20 5 .5 2.5-5.5 6.5-.5-2.5 2-4-.5-1.5 4-1Zm267 1 5 1 2-1 3.5 1.5 2 4-3.5.5-9-6Zm-248 11 6.5 3.5 5 14h-1l-3.5-6.5-2 1 .5-1.5-.5-1.5-1.5.5-3.5-9.5Zm5.5 6-1 2h1v-2Zm-33.5 7 3.5.5-6.5 8.5-9 4 4.5-5.5.5-1.5 6.5-4.5.5-1.5Zm-9 23-.5 1.5-4.5 10.5-1.5-.5-.5 1.5-.5-1.5 2.5-6.5 2.5-1.5.5-2.5 2-1Zm-6 24-.5 1.5-2.5 5.5-2 1 .5-1.5 2.5-5.5 2-1Zm-12 19 .5 1.5-2 1 1.5-2.5Zm-2 4 .5 1.5-4 10 1.5 2.5-5 1-.5-4.5 7.5-10.5Zm3 10 1.5.5-4.5 3.5 3-4Zm-16 10 .5 1.5h-1l.5-1.5Zm-2 5 6.5 1.5-1.5 2.5-1.5.5-3.5 5.5v-10Z"/><path fill="#B1290D" stroke="#B1290D" stroke-width="3" d="M348.5 90q12.43-1.92 17.5 3.5l8.5 14.5 3.5 2.5 1 4v2l6.5 8.5 2.5 1.5 4.5 5.5 3.5 2.5q-4.75 22.75 8.5 27.5l3.5 1.5-.5 22.5-15.5-5.5 4-1-1-3 1-17-18-35 1-2-7.5-12.5-3.5-1.5-3.5-6.5-2.5-.5-.5-1.5-17-5-7 1v-1l11-5Zm-66 6 4.5.5-34 17 1 3-13.5 17.5-.5-4.5 5.5-7.5 4.5-2.5 5.5-11.5 27-12Zm71 90 4.5.5-23.5 11.5 3-4 16-8Zm-121 10 1.5.5-5.5 12.5-.5-5.5 4.5-7.5Zm.5 2-1 2h1v-2Zm144.5-2 1.5 7.5-12.5.5-.5-3.5 11.5-4.5Zm-99 2q8.75-1.75 10.5 3.5l2.5 5.5 1.5.5 1 8-6.5.5.5-1.5-1.5-10.5-10.5-2.5 2.5-3.5Zm116 0 7.5 3.5q-2.08 16.08 7.5 20.5l1.5.5 3 17q-8.84 9.66-6 31-10.39 8.61-11 27l5 14-30.5 51.5-7 3-.5-1.5 24-36 3-20-1-3 1.5-.5 2 1 2.5-3.5-3.5-2.5-2 1-.5-2.5v-2l-1-6 2.5-8.5 1.5-.5 3.5-10.5 2.5-1.5 1-3 2-9-1-3 2.5-8.5 1.5-.5 3-12-4.5-11.5-2.5-.5 1-3-1.5-2.5-4.5-2.5-2.5-3.5-2.5-1.5-1.5-2.5-4.5-1.5 5.5-.5 4.5-1.5-.5 1.5 1.5-.5-1.5-5.5Zm-65 13 .5 5.5-5.5 10.5-.5-5.5 5.5-10.5Zm-102 6 .5 5.5-5.5 11.5-.5-6.5 5.5-10.5Zm112 11 2.5 1.5-1.5 3.5-1.5-.5-.5-2.5-2.5 17.5 1 3-1 14 6 13-2.5-1.5-3.5.5-.5 2.5-11 6-.5-40.5 2.5 1.5 3.5-.5 7.5-16.5 2-1Z"/><path fill="#B1290D" stroke="#B1290D" stroke-width="3" d="m374.5 228 14.5.5-8.5 5.5-3-4-3-2Zm-153 7 1.5 2.5-1 38 6 2q2 10.5-4.5 12.5l-1.5.5-.5 7.5-5.5-10.5v-42l5.5-10.5Zm1.5 53v1h1l-1-1Zm58.5-12 .5 2.5-11.5 8.5-.5-1.5 11.5-9.5Zm60 4 1 8 2.5.5-2 1-5.5 7.5-1.5.5 1 2-13.5 1.5v-2l-1.5-.5-.5-1.5-2 1-6.5-3.5 22-3 4.5-10.5 2-1Zm-48 2 6.5 2.5-2.5 3.5-3.5-2.5-.5-3.5Zm-30 6 5.5.5-10.5 5.5-.5-2.5 5.5-3.5Zm23 12q11.37 9.63 36 6l1.5-.5-2 3 7 3-25.5.5-10.5-6.5-.5-1.5h-2l-4-4Zm54 0 7.5 3.5-2.5.5-5-4Zm-74 6 9 3 1.5-.5 7.5 9.5 3-5 2 11 4.5 3.5 1.5 8.5 10.5.5-3.5 5.5q-16.52-4.48-23.5-18.5l-9.5-15.5-3-2Zm99 0 6.5 2.5-7.5 3.5 1.5-2.5-.5-3.5Zm-27 6 3.5 1.5-.5 5.5-5.5-2.5 2.5-4.5Zm21 4 .5 2.5-7.5 10.5-1.5.5-2.5 3.5-.5-2.5 11.5-14.5Zm-18 7 2.5 12.5-8.5 4.5.5-1.5-.5-2.5-5.5 3.5-.5 3.5-11.5-3.5.5-3.5 11.5-1.5 3-4-2-1 2.5-1.5 1.5.5.5-1.5 5.5-2.5.5-1.5Zm-3.5 4v1h1l-1-1Zm-85.5 25 1 2 10.5 9.5-.5 2.5-2.5 1.5-9 30 1 2-1 21-3.5 5.5-2.5.5-.5 3.5-5.5-12.5 12-27 .5-38.5Zm107 18 .5 4.5-21.5 15.5-19.5 8.5 10.5 12.5q7.5 6 24 3l9.5 6.5 2 7-4 14 3.5 4.5 9 3 3.5-2.5 3.5-6.5 4-2q5.88 7.12 19.5 6.5L383.5 465l-17 3q-6.96-25.54-25-40L312 411.5l-6.5-13.5-1.5-.5-.5-1.5-3 1-6.5-3.5.5-3.5 1 2 1-2 17-6 12 5 21-11h2l11-8ZM307 390l-5 2-1 2 9 2 2-3-5-3Zm-87.5 36 2.5 1.5-1.5 4.5-4.5-.5 3.5-5.5Zm266 6 11.5 5.5-8.5.5-3-6Zm-291 18 4.5.5-1.5 6.5-8.5-1.5 2.5-4.5 3-1Zm52 4 5.5 7.5-2.5.5-4.5-5.5 1.5-2.5Zm-43 5 .5 5.5-5.5 3.5-14 6 3-4 9.5-4.5.5-1.5 1 3 3-4 1.5-.5v-2l.5-1.5Zm144 15 6.5.5-.5 2.5-13 3 3-4 4-2Zm-53 6 5.5 2.5-2.5 3.5-3.5-2.5.5-3.5Zm-97 3 .5 3.5-11.5 19.5-.5-2.5 11.5-20.5Zm-12 30 .5 8.5-3.5 6.5-2.5-.5-.5-5.5-1.5-.5 7.5-8.5Zm5 22-2 5-2.5-.5.5-2.5 4-2Zm-19 6 1.5.5-4.5 8.5-1-4-2.5-.5 6.5-4.5Zm-6 11 2.5 1.5-2.5 10.5-3.5 1.5-.5 3.5-7.5-4.5 2.5-1.5 4 1 1.5-5.5-2-1 3-2 2.5-3.5Z"/><path fill="#501006" stroke="#501006" stroke-width="3" d="m316.5 30 1.5.5-8.5 5.5 3-4 4-2Zm26 0 2.5 1.5-1.5-.5-1-1Zm4 2 1.5.5-1.5.5v-1Zm42 9 1.5 2.5-2-1 .5-1.5Zm2 4 5.5 8.5h-1l-4.5-8.5Zm-22 8 3.5 6.5h-1l-2.5-6.5Zm-48 7 3.5 2.5-2.5-1.5-3 2 2-3Zm76 0 7.5 14.5-2-1-5.5-13.5Zm-32 10-.5 1.5-1.5 2.5-.5-1.5 2.5-2.5Zm50 0 .5 1.5-2.5 3.5.5-1.5 1.5-3.5Zm-56 5 1.5.5-6.5 4.5-1.5-.5-5.5 6.5 4-7 8-4Zm25 5 2.5 1.5-1.5.5-1-2Zm4 2 5.5 3.5-1.5-.5-4-3Zm-25 2-1.5 2.5 2.5 3.5 3-1q18.37 4.63 27.5 18.5l-1 2 8.5 4.5 1-4 14 29 3-2 .5 1.5-3.5 5.5-1.5-.5-1 4 7 3-2 1-1.5 3.5-1.5-.5-1 7 3.5.5 1.5-.5 2 18-2 1-1 2 1 7-1 5 2.5 5.5 1.5-.5 3 5-1.5-.5-1.5.5 3 6v29l-2.5 4.5-1.5-.5 1 2-2 1 1 2-3 8 3.5 4.5 2 1 10.5-6.5-.5-1.5 3-2 .5 12.5-2 1-.5-1.5-9 14-1.5.5-.5 1.5-1.5.5-2.5 3.5-1.5-.5.5-1.5-6-2-5 2-.5-6.5 12-36v-33l-21-10 1.5.5 7 1 .5-3.5-1.5-2.5-5.5.5 3 1-.5 1.5-3.5-1.5-1.5-3.5-4-1-1.5.5.5-1.5-2 1-4.5-3.5 1-2-1.5-.5-3.5-1.5.5-1.5 27 12 2.5-7.5-2.5-4.5-2.5-1.5v-34l-15-24L365.5 92l-3.5-1.5-2-4 2.5-2.5Zm55.5 67-1 2h1v-2Zm1 33-1 5h1v-5Zm6 26-1 28h1v-28Zm11 46-1 2h1v-2ZM338.5 90l1.5.5-13.5 7.5v-1l12-7Zm-59 1 .5 1.5h-1l.5-1.5Zm-3 1 1.5.5-.5 1.5-1.5-.5-.5 1.5-1.5-.5-.5 2.5-1-2-1 3-14 8 1-2 1.5-.5-.5-1.5 2 1 1-3 14-8Zm22 0 1.5.5-1.5.5v-1Zm13 4 3.5 1.5-1.5-.5-2-1Zm-66 22 1.5.5-6.5 9.5-.5-4.5 5.5-5.5Zm194 4 2.5 4.5-2-1-.5-3.5Zm-4 41 5 9 6.5 3.5-1.5-.5-6.5-3.5-3.5-8.5Zm-202 9 .5 5.5-5.5 2.5-.5-2.5 5.5-5.5Zm223 2 .5 1.5h-1l.5-1.5Zm-8 3 7.5 14.5h-1l-6.5-14.5Zm-209 6 1 3 3.5.5-16 7q-7.77 9.73-6 29l-5.5 10.5-.5-4.5 1-2-1-10h1l.5 5.5.5-8.5-1-2 5-3-.5-4.5-5 2-.5-1.5 5.5-10.5 1 4 3.5-1.5 2.5-8.5 11-5Zm23 2 7 2 7-1 10.5 5.5 1 3-.5 3.5-11.5 1.5 1.5 4.5 10.5 2.5-6 4-.5 1.5-6.5-5.5-2.5-4.5-1.5-.5 2.5-6.5 1.5.5-2.5-4.5-4.5-1.5-1.5-2.5-4-2Zm19.5 6v1h1l-1-1Z"/><path fill="#501006" stroke="#501006" stroke-width="3" d="m421.5 194 .5 1.5h-1l.5-1.5Zm-81 2 1.5.5.5 1.5 2.5.5-2 3 11 5 1 2-1.5 3.5-2-3-4.5-1.5-.5-1.5-5.5 2.5 1 2-4 2-2 3 2 1-3 5 1 3-5.5 3.5-.5-23.5 3.5-6.5 7-2Zm2.5 8v2h3l-3-2Zm-84.5-6 1.5.5-7 4 .5 1.5-3.5-.5.5-1.5 8-4Zm112 8 .5 1.5h-1l.5-1.5Zm-2 1 .5 1.5h-1l.5-1.5Zm20 2 7.5 4.5-1.5 3.5-2.5-1.5-1.5-2.5-3.5-2.5 1.5-1.5Zm-11 12 1.5 6.5-4.5.5-2.5-3.5 5.5-3.5Zm17 0 1.5.5-.5 3.5-10 3v-1l9.5-4.5-.5-1.5Zm-182 33 .5 1.5h-1l.5-1.5Zm3 2 .5 9.5-2.5-1.5-2.5-1.5 1.5-4.5 3-2Zm226 18 .5 1.5-1.5 2.5-.5-1.5 1.5-2.5Zm-228 3 .5 5.5h-1l.5-5.5Zm-21 5 2.5 4.5-2-1-.5-3.5Zm143 0 .5 4.5-6 4-1.5 3.5-16.5-1.5 1.5-4.5q15.94 1.94 22-6Zm81 7 1.5.5-1.5.5v-1Zm-1 2 1.5.5-1.5.5v-1Zm16 5 1.5.5-2 3 1 3-4.5 2.5-3 1 2-3 1.5-.5 3.5-6.5Zm-232 7 2.5 4.5-2-1-.5-3.5Zm150 3 6.5.5-3.5 4.5-2.5 1.5-3.5 9.5-3.5 1.5 2 1-3 2 .5-11.5 4.5 3.5 1-5h-2l3.5-7.5Zm77 0 4.5.5-4.5 2.5v-3Zm-14 3 .5 1.5h-1l.5-1.5Zm-1 3 .5 1.5h-1l.5-1.5Zm-3 7 .5 1.5h-1l.5-1.5Zm-205 5 .5 1.5h-1l.5-1.5Zm218 3-.5 1.5-1.5 4.5-1.5-.5 3.5-5.5Zm-16 2L390 345.5l-.5 1.5-3.5 2.5-.5 2.5-4.5 2.5-.5 1.5-.5-1.5 25.5-25.5Zm-198 1 1.5 2.5-2-1 .5-1.5Zm210 4 1.5.5-2 1 .5-1.5Zm-177 4q17.87 11.63 11.5 47.5l-2 1-.5-2.5-1.5-.5-.5-7.5-1 3-.5-23.5v-2l-5-9 .5-1.5-1.5-.5.5-4.5Zm139 19-.5 1.5-1 6 1 2-1 13q7.52 19.98 23.5 31.5l8 3 4-3 1 2 1.5-.5-3 4 1 4-5.5 10.5-1-11q-21.47 3.97-27.5-7.5-.5-21.5-10.5-33.5-5.46 13.54-27 11l-.5-2.5 24-12 13.5-18.5Zm-146 21 .5 1.5h-1l.5-1.5Zm-12 3 1 2-3.5.5 2.5-2.5Zm28 7 .5 1.5-1.5 2.5-1.5-2.5h2l.5-1.5Zm-18 5 2.5.5-1 15 1 17-2.5.5-1.5-.5q-9.32 12.68-10 34l-10 13-1 20-7.5 19.5-1.5.5-2 3 2.5.5 13-14 .5 1.5-7.5 8.5-3.5 2.5-8.5 19.5-12 6-2.5-8.5 5.5-7.5 2.5-.5 10-20v-12l6-15-1.5-2.5-2.5-1.5-1-2 14-9 3-5-2-1 3-6-1-9q9.49-5.01 6.5-22.5l2 1 3.5-10.5-3-6 3-1 3.5-8.5Zm1.5 20-1 8h1v-8Zm-1 9-1 3h1v-3Zm13.5-29 2.5.5-2.5 3.5.5-1.5-.5-2.5Zm-36 6 .5 2.5h-1l.5-2.5Zm0 4 1 5 1.5.5q-4.75 2.75 1.5 5.5l1.5.5 1 5h-1l-.5-1.5-3.5 1.5.5 1.5-4-1-.5 1.5.5 1.5-1.5-.5-.5-2.5-1.5.5-.5 1.5-1.5-.5-4-12h1l2.5 4.5 2.5-.5-1-2 6.5-8.5Zm2 1 2.5 3.5-3-2 .5-1.5Zm29 17 5.5 11.5-3.5 5.5-1.5-.5-.5 1.5-1.5-3.5 1.5-14.5Z"/><path fill="#501006" stroke="#501006" stroke-width="3" d="m209.5 422 1.5.5-1.5.5v-1Zm221 0 2.5 1.5-1.5-.5-1-1Zm-190 23 3.5 6.5h-1l-2.5-6.5Zm-1 20-3.5 4.5-.5 1.5-1.5-.5.5-2.5 5-3Zm-9 5 2.5.5-2.5 4.5-1-3-1 2-.5-2.5 2.5-1.5Zm0 10 .5 1.5h-1l.5-1.5Zm-12 1 2.5 1.5-1.5 2.5-2.5-1.5 1.5-2.5Zm11 2-.5 1.5-3.5 6.5-6 3 1-2 5.5-2.5 3.5-6.5Zm-12 12-.5 1.5-2.5 4.5.5-1.5 2.5-4.5Zm-28 44-3.5 4.5.5 2.5 2.5.5-6 4 1 2-1.5-.5-3 1-10.5-1.5 2.5-5.5 6.5-.5.5-2.5 1.5.5.5 2.5 9-7Zm-25 25 4.5.5-1 4 .5 1.5-6.5-2.5 2.5-3.5Z"/><path fill="#D84F1D" stroke="#D84F1D" stroke-width="3" d="m287.5 96 11.5 5.5-21.5.5v-1l10-5Zm60 0 18.5 8.5 1 31 25 44-16.5.5 2.5-3.5-.5-2.5-8.5-5.5-14-21-6-18 11-16-6.5-8.5-12-3-16 6v-1l22-11Zm-45 6 14.5 5.5-5.5.5-9-6Zm-51 19 .5 5.5-11.5 33.5-1-16-2.5-.5 6.5-12.5 4.5-3.5 3.5-6.5Zm-12 42 .5 14.5-5.5 2.5-.5-6.5 5.5-10.5Zm97 29 4.5.5-9 6-1.5 3.5-.5-3.5 2.5-4.5 4-2Zm-42 4 4.5 7.5-1.5.5-3-8Zm-58 2 9.5 1.5-1.5 2.5-10 2-.5-3.5 2.5-2.5Zm148 0-.5 1.5 1.5 2.5 3.5 1.5-8.5.5-1-4 5-2Zm-90 7 5.5 16.5-1.5-.5-4.5-2.5-1-2 1.5-11.5Zm-50 17 9.5.5q-4 9.5-8 3l-1.5-3.5Zm10 6 3.5 1.5-.5 4.5-5.5-2.5 2.5-3.5Zm135 0 12.5.5 2.5 5.5 3.5 1.5-.5 3.5-3.5 1.5-8 17v13l-12 23-.5 13.5-11-1h-2l-10.5-3.5-3.5-7.5-14.5-7.5v-13l-6-16 5.5-11.5.5 5.5-5 11 3 1 5.5 11.5 22.5 12.5-2 5 2.5 5.5 1.5-.5 2-8-1.5-2.5 11.5-2.5 8-16v-18l6-17-13-1 2.5-3.5 4-2Zm-162 1q-.92 15.42 6.5 22.5l.5 35.5 19.5 1.5-2 6 12 15-4.5.5q-4.62-11.87-23-10-6.5 4-2.5 18.5l34 42 2 8-5-4-12.5-13.5-1.5.5-16.5-24.5-1.5.5q-8.83-10.17-5-33l5-3q-6.43-4.57-5-17l-6-7v-14l4-2 1-3-5-4 5.5-15.5Z"/><path fill="#D84F1D" stroke="#D84F1D" stroke-width="3" d="m367.5 234 5.5.5-1 4 .5 1.5-6.5-1.5 1.5-4.5Zm-92 42 5.5.5-13.5 10.5-8 1v-1l16-11Zm15 6 3.5 2.5 1 3-4.5.5-2.5-3.5 2.5-2.5Zm17 12 16.5 7.5-2.5-1.5-14-6Zm-18 6q14.72-1.72 20.5 5.5l-10.5.5-10-6Zm82 9L360 321.5l.5 2.5 3.5 1.5 3 10q-1.72 27.28-18.5 39.5l-23 9v-1l28.5-14.5 6-18-12.5-2.5-14 5-29.5-11.5 2-5-4-1 10.5-5.5 17-2 .5 5.5-12 3 2.5 5.5 13 5 4-9 2-1 3 11 3.5-.5 2.5-3.5 8.5-7.5 2-4-5-3 9.5-17.5 8-3Zm12 5 .5 9.5-6.5 10.5.5-1.5q-1.96-13.96 5.5-18.5Zm-91 10 7.5 2.5-2.5 3.5-3 2-2-8Zm-25 48 3 6 2.5.5-9 11v49q-8.46 10.04-7.5 29.5l-4.5-2.5-.5-1.5-3.5-1.5 4-1-2-11 2-1-.5-11.5-5 3-.5-3.5q10.31-9.19 6-33 11.87-12.13 15.5-32.5Zm44 6 5.5.5-14.5 5.5v-1l9-5Zm-23 9 7 9 10.5 8.5 7.5 9.5 9 2 29.5 23.5 14.5 28.5 3.5.5-15.5 7.5-1-2q-11.48-1.48-14.5 5.5l.5 1.5-9 4-.5-4.5 3-1q11.5-9.5 9-33-3.25-5.75-15.5-2.5L313 465.5l8.5 14.5 2.5.5-2.5 5.5-22.5-.5 1-4-5.5-1.5-1 2-11.5-5.5.5-2.5 5.5-.5v-24l12-18q-16.17-13.13-11.5-44.5Zm-18 81 10.5 5.5-4.5.5-6.5-3.5.5-2.5Z"/><path fill="#E37833" stroke="#E37833" stroke-width="3" d="M281.5 102h19q8.65 9.35 30 6l17-6 9.5 6.5 3 6q-10.03 5.97-11 21l25.5 38.5 3.5.5-3.5 5.5q-15.42-1.42-22 6l1.5-2.5-.5-3.5-7.5-4.5-6.5-19.5-21-12-17-2-11.5-11.5-4.5-16.5q-18.97-3.47-24.5 6.5-6.83 9.17-3 29l-12 19 8 11-15.5.5 1.5-2.5v-16l6-11v-12l9.5-24.5 26-12Zm-42 88 .5 2.5-5.5 7.5-.5-1.5 5.5-8.5Zm18 2 6.5 2.5-2.5 3.5-4.5-.5 1-4-.5-1.5Zm125 1 1.5.5-1.5 5.5-4 2-.5-5.5 4.5-2.5Zm-83 10 .5 11.5h-1l-5-10 5.5-1.5Zm-62 7 3 10 3.5 1.5 2 3-3.5-2.5-2.5.5-.5 5.5-5.5 2.5-.5 20.5q-8.41-9.09-5.5-29.5l9.5-11.5Zm63 6q8.25 8.75 5.5 28.5l-9.5 1.5-5-12h-31l-2.5-2.5-1-3 12.5-.5 18-8 1 2 5.5-.5.5-2.5 5 3 1-6Zm43 6 2.5 1.5 1.5 3.5 2.5.5-2 1 .5 5.5 4.5.5-11 30 7.5 9.5 26 8q12.42-12.58 8.5-41.5l-7-1 1-4-7-2 1-4-.5-1.5 6.5 3.5 1.5 2.5 16.5.5-6 17v18l-8.5 16.5-18 2-19.5-13.5-4.5-10.5-2.5-.5 5-11 1.5-30.5Zm-20 1 .5 35.5-1.5-.5-1.5-.5q-6.56-6.94-3-24l5.5-10.5Z"/><path fill="#E37833" stroke="#E37833" stroke-width="3" d="m362.5 234 4.5.5-1 4 .5 1.5-6.5-2.5 2.5-3.5Zm-128 25 8 23h10l34-12v1l-28 17h-22l-2.5-1.5.5-27.5Zm89 4 .5 11.5h-1l-2.5-4.5-2.5-1.5 1.5-4.5 4-1Zm-36 11 .5 5.5-15.5 8.5v-1l15-13Zm36 6 .5 4.5-7.5 3.5 7-8Zm-54 12 1 2 5.5.5 2 5-11.5.5-1.5-2.5 4.5-5.5Zm37 1 1 2 16.5 7.5-2.5 3.5-4.5-.5 1-4-11-5-.5-3.5Zm-70 7h9l16 12 3-5 7.5 4.5-8 2q1.96 14.46-5 20l24.5 42.5 27.5 2.5-17.5 5.5-11-6 .5 1.5q8.17 8.83 5 29l12 24q-16.88 10.12-12.5 41.5l-5.5.5-.5 1.5-3.5-1.5 3-1-10.5-5.5-1 3-12.5-3.5q-1.5-19.5 7-29v-49l12-15-40-52-2-20 2.5-2.5ZM277 462l-1 3 6 3v-3l-5-3Zm23.5-162 2.5 1.5-1.5-.5-1-1Zm72 6 11.5 1.5-7.5 26.5-9 2-5-12-2.5-.5 12.5-17.5Zm-75 6 9.5.5-3.5 5.5-3.5-2.5-.5-1.5-2.5-.5.5-1.5Zm11 19 1.5.5-2.5 1.5 1-2Zm-14 8 45 14q4.58-6.92 18-5l2.5 6.5-9.5 17.5-27 12-8.5-4.5 14-5 1-15-2.5-3.5q-11.28-10.22-33.5-9.5l-2-4 2-1 .5-2.5Zm-96 56 5.5 1.5-3.5 5.5-6.5.5-2 10 4 3 2 5-1.5-.5-4 1-2-7-4 1-.5-1.5 10.5-17.5 2-1Zm-19 38 12.5 8.5q-3.25 5.75-6.5-1.5l-8.5-2.5 2.5-4.5Zm70 5 2.5.5-.5 11.5-2.5-.5-3-8 3.5-3.5Zm77 6q12.25-3.25 15.5 2.5v15l-9.5 18.5-2.5.5.5 4.5 2-1-1 2-9.5-.5 2-5-3-1-8-15 13.5-20.5Zm-155 43 2.5 1.5-.5 3.5-5.5 1.5q1.35 11.35-5 15l.5 1.5-2-1-7 1 4.5-5.5 6-12-2-1 8.5-4.5Zm-10 33 .5 1.5-5.5 11.5-.5-4.5 5.5-8.5Z"/><path fill="#E2D9D7" stroke="#E2D9D7" stroke-width="3" d="m273.5 132 8.5 2.5-3.5 9.5-2.5.5-.5 1.5-5.5-4.5 3.5-9.5Zm1 85 1.5 2.5-5.5 2.5-.5-2.5 4.5-2.5Zm-123 179 4.5 1.5-.5 4.5-5.5-2.5 1.5-3.5Zm-4 12 2.5.5-5.5 7.5-.5-1.5 3.5-6.5Zm-9 12 4.5.5-10.5 5.5-.5-2.5 6.5-3.5Zm-12 6 4.5.5-5 3-17 47 4 7-5 8-.5 30.5L75 491.5l-21-38 1.5-2.5 71-25Zm285 6 2.5.5 6 35-6.5 12.5-5.5.5 4.5 7.5 11 3 30-12 15-11 29.5-.5 9.5-11.5 2.5.5 2.5 4.5 9.5-5.5-8-11 1.5-.5q19.92 6.58 31 22l16.5 3.5-14 28-37 37-3.5 10.5-10.5 2.5-1.5 9.5q-18.74-.24-28 9l-13 13-18 9h-7l-17 12h-19l-35 12h-89l-35-12h-19L175 580.5l4.5-8.5 4-2h9l26.5-17.5 2-4-4-10 12.5-20.5 8.5-3.5 14-28v-16l-1.5-2.5h10l33 18h44l47-18 14.5-11.5 12.5-24.5Zm87.5 36-1 3-27 10q-19 19-47 28l-6-4-15 8 4 7-7 3-9 14 2 4 7 4 7-1 16-11 6-10q7-13 25-15l5-9 38-21 6-7-4-3Zm-358.5-35 2.5 1.5-1.5 2.5-2.5-1.5 1.5-2.5Zm-8 23 5.5.5-2.5 4.5-1.5-.5-1.5-4.5Zm-9 18 2.5.5-3.5 5.5-2.5-.5 3.5-5.5Z"/><path fill="#B19191" stroke="#B19191" stroke-width="3" d="m275.5 216 6.5 3.5-.5 2.5-6.5-.5 1-4-.5-1.5Zm-138 61 .5 22.5-2.5.5-3.5-12.5 5.5-10.5Zm13 75 5.5 12.5h-1l-4.5-12.5Zm4 23 2.5 3.5-6.5 13.5-.5-8.5 4.5-8.5Zm-4 26 4.5 1.5-4.5 10.5-1-5-2.5-.5 3.5-6.5Zm266 19 27 21q5.83 5.17 19 3 8.65-9.35 30-6 5.88 7.12 19.5 6.5L456.5 468h-25l-17 11-.5-1.5 12-21v-11l-12-2-.5-11.5-2.5-.5 5.5-11.5Zm88 10 4.5 6.5-1.5.5-3.5-2.5.5-4.5Zm-261 32 8.5 3.5 1 2-7 1-5.5 16.5-.5-19.5 3.5-3.5Zm-4 31 .5 5.5-7.5 15.5-8.5 3.5-10.5 16.5-3 2-.5-14.5 11.5-13.5 1 2 14.5-11.5 2.5-5.5ZM222 516l-6 4 1 2 5-2v-4Zm-20.5 24 4.5.5-3 1-4.5 9.5-.5-5.5 3.5-5.5Zm-10 16 1 2 1.5.5-7.5 8.5-7 5 .5-1.5 11.5-14.5Z"/><path fill="#E3B583" stroke="#E3B583" stroke-width="3" d="m263.5 66 1 2-11.5 9.5-.5 1.5-1.5.5-3.5 6.5-1.5-2.5h2l-1-2 3-1 6-8 .5-2.5h2l1.5-.5-.5-1.5 1.5.5.5-1.5 1.5.5.5-1.5Zm-19 21 2.5.5-5.5 8.5-.5-2.5 2-1-.5-1.5 2.5-1.5-.5-2.5Zm-17 19 1.5.5-.5 1.5-4 1 1-2 2-1Zm3 9 1.5.5-1.5.5v-1Zm46 2 4.5 2.5.5 1.5 1.5-.5-1 3h2l-1 2 1.5 2.5 1.5-.5-1 3 4.5 7.5 1.5-.5 2.5 4.5 1.5-.5-.5 1.5 2-1 1 3 10 4 1.5-.5-.5 1.5 3-1v2l8 1 1.5-.5-.5 1.5 2-1v2l3 1 1.5-.5.5 2.5 6.5 4.5 1 3h-2l1 2h-2l1 2h-2l1 2h-2l1 3h-2l-1 8 .5 1.5-1.5-.5 1 2-3 1-3 4-3 5 3 12-1.5 7.5-3-13-2.5-1.5v-9q12.68-8.82 14-29l-42-20-10.5-21.5-9.5 6.5q-5.6 3.4-4 14l5 14-9 11v5l4.5 4.5 11.5 2.5-1.5-.5q-13.84 1.84-18.5-5.5-1.62-11.62 6-14l.5-2.5 1.5-.5-.5-1.5 1.5.5-1-3h2l-4-12 2-8-.5-1.5 1.5-.5-.5-1.5 1.5-.5-.5-1.5 1.5.5-1-2h2l3.5-4.5 6-2Zm-50 6 1.5.5-2 1-1.5 3.5-1.5.5-1 3-5.5 10.5-1.5.5v14q-8.5 1.5-7 13l1 3-8.5 12.5-1-2 1.5.5-1-2 4-2 3-10-2-7-.5-3.5 3 2 1-2 1.5.5-1-3h1l.5 1.5q-.6-18.1 9.5-25.5h-2l8.5-9.5Z"/><path fill="#E3B583" stroke="#E3B583" stroke-width="3" d="m211.5 138 1.5.5-2 1-.5 1.5-.5-1.5 1.5-1.5Zm18 8 .5 1.5-2.5 7.5-1.5-2.5 3.5-6.5Zm-30 10 1.5.5-2 1 .5 3.5 2.5 1.5-1.5-.5-2.5-1.5 1.5-4.5Zm-12 11 1.5 5.5-9.5 25.5-1.5-.5.5-4.5 2.5-.5-.5-7.5-1.5.5 8.5-18.5Zm65 0 .5 1.5h-1l.5-1.5Zm35 16 8.5 5.5 2.5 3.5 3.5 2.5 3 9-1.5 7.5q-.69-20.31-15-27l-1-1Zm-89 2 .5 2.5h-1l.5-2.5Zm59 9 .5 1.5h-1l.5-1.5Zm-58 5 1.5.5-2.5 1.5 1-2Zm-7 10 1 2 4-2-1 2-4 1v-3Zm13 0-.5 1.5 1 2h-2l-1 3 .5 1.5-1.5-2.5 3.5-5.5Zm99 3 .5 1.5h-1l.5-1.5Zm-113 1 1.5 5.5h-1l-.5-2.5-1.5.5.5-1.5-5 2 1-2 5-2Zm128 2 .5 3.5-4.5 16.5-.5-7.5 4.5-12.5Zm-119 4 1 2-2.5-.5 1.5-1.5Zm-10 4-1.5 2.5-15.5 16.5-6 4 1-2 22-21Zm53 6 5.5 2.5 3.5 5.5 4.5 3.5 4.5 6.5 9.5-.5-.5-1.5 3 1v-2l2 1v-2l2 1v-2l2 1v-2l6.5 2.5 1 15-3.5 4.5-2.5.5.5 1.5-3-1v2l-2-1v2l-2-1v2l-2-1v2l-3-1-6.5 1.5.5 1.5-3-1v2l-2-1v2l-2-1v2l-2-1v2l-3-1-5 1q-9.21-14.29-5.5-41.5l2.5-4.5Zm2.5 3-3 25 3 14 37-12v-13l-13 5-14-3-3-8-3-2-4-6Zm-86.5 1-2.5 3.5-.5 1.5-.5-1.5 3.5-3.5Zm155 4q-2.6 24.6 3.5 40.5h-1l-4.5-18.5-7.5 5.5-2 11 4 6-2.5.5-2-4-1.5.5 1-2-1-6 1-2-.5-1.5 1.5-.5-1-2 6.5-17.5 4 3 2-13Zm-125 4 .5 1.5-4.5 5.5v-2l-23 10 1-2 25.5-11.5.5-1.5Zm-24 5-1 2-9 6 3-4 7-4Zm294 0 2.5 1.5-.5 3.5-1-4-1-1Zm-100 1 8 1 1.5-.5-.5 1.5 2-1 4 6 1.5-.5-1 2h2l-1 4 1 7-2.5 5.5-2.5.5.5 1.5-3.5-2.5-.5-1.5-2 1v-2l-14.5-2.5-1-4 2.5-4.5 1.5.5 2.5-10.5 2-1Zm.5 4-3 14 15 2 1 1-2-12-11-5Zm96.5-2 3.5 2.5-2.5.5-1-3Zm-163 23 .5 1.5h-1l.5-1.5Zm84 1 .5 1.5-2.5 1.5v-1l1.5-.5.5-1.5Zm-91 18 9 2 1.5-.5-.5 1.5 3-1-2 3-13.5-1.5 2.5-3.5Zm191 8 1.5.5-1.5.5v-1Zm-166 3 2 3 2.5.5-2.5.5-2-4Zm6 0 .5 1.5h-1l.5-1.5Zm-12 15 4.5.5-4.5.5v-1Zm19 3 1.5 5.5-2 1 1-5-.5-1.5Zm5 0 .5 2.5-2.5 1.5v-1l1.5-.5.5-2.5Zm-53 7 1 2 1.5.5-1.5.5-1-3Zm-121 13 3.5 7.5-1.5 4.5-2.5-8.5v-2l.5-1.5Zm-3 2-1.5 2.5 3 4-4-3 2.5-3.5Zm133 0 2.5 1.5-.5 1.5-1-2-1-1Zm-4 1 3.5 2.5 2.5 6.5 4 3 28 2 3.5 3.5-2.5 9.5q-13.65-1.15-20 5l-1-2q5.14-7.86 19.5-6.5l-.5-7.5q-21.75 3.75-33.5-2.5l-2.5-9.5-1.5.5v11l11.5 14.5 4.5 1.5-3.5.5-10.5-6.5q-7.23-6.27-6-21l2.5-3.5 2-1Zm-106 5 4.5 1.5-.5 1.5-1-2-3.5.5-.5 1.5-.5-1.5 1.5-1.5Zm-1 9 1 2 2.5 1.5-1.5-.5-2.5-1.5.5-1.5Zm8 2 3.5 2.5-.5 1.5-1-2-2-2Zm-19 7 4.5 1.5-.5 1.5-1-2-2.5.5 2 4h-1l-1.5-3.5-1.5.5 1.5-2.5Zm20 3 2.5.5 1 2-1.5-.5-2 1v-3Zm4 4 .5 2.5h-1l.5-2.5Zm-19 4 .5 1.5h-1l.5-1.5Zm20 0 .5 7.5-3.5 6.5-1.5-.5-2-12 2 1 1.5 6.5 1.5-.5 1.5-8.5Zm105 0 1.5.5-1.5.5v-1Zm-124 3 .5 1.5h-1l.5-1.5Zm1 3 .5 7.5-1.5 2.5-5.5-2.5 2.5 1.5 3.5-1.5.5-7.5Zm21 4 .5 1.5-2.5 1.5v-1l1.5-.5.5-1.5Zm-18 6 .5 1.5-2.5 1.5v-1l1.5-.5.5-1.5Zm7 0 1 2 2.5.5-2.5.5-1-3Zm0 14 1.5.5 1 3-3.5 9.5-2.5-1.5 3.5-11.5Zm-.5 6-1 2h1v-2Zm-4.5-5 1.5.5-2 1-.5 1.5-.5-1.5 1.5-1.5Zm-6 24 1.5.5-2 1-.5 1.5-.5-1.5 1.5-1.5Zm-2 21 .5 1.5-2.5 1.5-1-2 2 1 1-2Zm-32 27 2.5 1.5-.5 1.5-1-2-1-1Zm-3 2 1 2 1.5.5-.5 1.5-2-4Zm-15 41 .5 5.5-3.5 1.5v-1l1.5-.5 1.5-5.5Z"/></svg>