<svg viewBox="0 0 708 708" xmlns="http://www.w3.org/2000/svg"><path fill="#F1F4DF" stroke="#F1F4DF" stroke-width="3" d="M324.5 6h59l11 6h13q4.76 7.24 18 6l72 39L537 96.5l27 48v7l12 29q-2.29 17.29 6 24v31l6 11v29q-8.65 7.35-6 26l5 12-7.5 9.5-2.5-.5-1.5-16.5-7.5-.5 2.5-3.5 6.5-.5-6-1 9-37 .5-17.5 1.5.5-4.5-11.5-1 3-2.5-33.5h2l-4.5-11.5-1 3-1.5-14.5 1-2-4.5-10.5-1.5-.5-1-5 1-2-6.5-13.5-.5 3.5q9.91 18.59 11 46l-1.5.5q-6.75-4.25-2.5-19.5l-14-40-24-36L485.5 62l-76-38q-17.29 2.29-24-6h-19l-11-6h-27q-8.97 9.53-31 6l-2.5-1.5.5-3.5q19.91 1.91 29-7Zm38.5 5 5 3h11l-16-3Zm19 0v1h1l-1-1Zm2 1v2h2l-2-2Zm11 5 2 2h2l-4-2Zm11 0v1h1l-1-1Zm2 1 1 2h1l-2-2Zm11 5 60 31h2l-5-5v2l-57-28Zm5 0v1h1l-1-1Zm2 1v1h1l-1-1Zm2 1v1h1l-1-1Zm2 1v1h1l-1-1Zm2 1v1h1l-1-1Zm2 1v1h1l-1-1Zm2 1v1h1l-1-1Zm2 1v1h1l-1-1Zm2 1v1h1l-1-1Zm2 1v1h1l-1-1Zm2 1v1h1l-1-1Zm2 1v1h1l-1-1Zm2 1v1h1l-1-1Zm2 1v1h1l-1-1Zm2 1v1h1l-1-1Zm2 1v1h1l-1-1Zm2 1v1h1l-1-1Zm2 1v1h1l-1-1Zm2 1v1h1l-1-1Zm2 1v1h1l-1-1Zm2 1v1h1l-1-1Zm2 1v1h1l-1-1Zm2 1v1h1l-1-1Zm2 1v1h1l-1-1Zm2 1v1h1l-1-1Zm2 1v1h1l-1-1Zm18 12q34 26 54 68l6 5-3-8-1 2-4-6 1-2-8-12-1 2-4-6 1-3-41-40Zm42 41-1 2h1v-2Zm1 2-1 2h1v-2Zm1 2-1 2h1v-2Zm10 14-1 2h1v-2Zm1 2-1 2h1v-2Zm1 2-1 2h1v-2Zm9 19-1 2 2 1-1-3Zm2 3-1 2h1v-2Zm6 18-1 2h1v-2Zm6 18-1 2h1v-2Zm6 24-1 2h1v-2Zm6 42-1 2h1v-2Zm0 26-1 2h1v-2Zm-1 2-5 8 1 4 4-10v-2Zm0 36-1 2h1v-2Z"/><path fill="#F1F4DF" stroke="#F1F4DF" stroke-width="3" d="m286.5 19 .5 2.5L240.5 50q-9.94 17.06-30 24L164 120.5l-20 40v37l-6 10v48l1.5 2.5-1.5.5-.5 47.5-5.5.5-9.5 23.5-8.5 2.5-.5 3.5-3.5.5-2 4v69l6 8q-2.86 14.36 2.5 20.5l3.5.5v19l14.5 22.5 3.5-1.5-2-4 4.5-.5 2.5 1.5-2.5 4.5-2.5.5.5 5.5h8l13-11 8.5 11.5v7l12 29v19l8 22 10 13 2 11 40.5 46.5 35 23 13 13 16 8 25.5.5-.5 2.5-5.5 1.5 18.5 3.5 14-4 16 4 9-5 8 2v-1l-10.5-3.5 24.5-.5 28-14 52.5-40.5 38-58q-1.24-13.24 6-18v-13l18-47 1.5-12.5q6.11 10.39 22 11l2-23 3.5.5 1.5 10.5 5.5-.5 12-29v-15l6-9v-84l-7-1 1-3-3-1 2.5-.5 2 1 .5-1.5-5.5-3.5-2 3-4.5-1.5 6.5-9.5 18.5 17.5 3 6v77q-8.29 6.71-6 24L581.5 489l-19 8-8-5-8.5 10.5v19l-6 11v13l-9 24-30 42-27.5 27.5-11 5-37 31-30 15q-17.29-2.29-24 6h-35q-6.71-8.29-24-6l-48-27-69.5-69.5-21-36v-13l-6-11v-13q-7.76-6.74-6.5-22.5-15.83 2.83-23-3L117 473.5l-15-36q3.35-21.35-6-30v-65l22-25 8-16v-85l6-10-5-6 11-25v-25l25.5-47.5 9.5-3.5q7.37-20.63 25.5-30.5l42-30 46-20ZM248 41l-2 1-1 2 4-2-1-1Zm-18 12-28 20-22 23 1 1 51-43-2-1Zm-62 54-1 3 3-2-2-1Zm-29 78-1 2h1v-2Zm-1 2-1 2h1v-2Zm-1 6-2 4 1 2 1-2v-4Zm2 2-2 4-3 1 2 3 3-5v-3Zm-4 18-3 4 2 1-1 40 2 43 1-38-1-50Zm-3 4-1 2h1v-2Zm0 84v1h2l-2-1Zm-5 10-2 3h2l1-2-1-1Zm-6 11-6 7v1l5-2 2-5-1-1Zm-17 18-2 3 2-1v-2Zm501 0v3h1l-1-3Zm-503 3-1 2h1v-2Zm505 0-1 2h1v-2Zm-505 62-1 2h1v-2Zm1 2-1 2 2 1-1-3Zm502 7-6 13 1 3 1-2 1 3 4-10-1-7Zm-498 3 7 24h1q-7-6-5-21l-3-3Zm500 0-1 2h1v-2Zm-499 18-1 2h1v-2Zm1 2-1 2h1v-2Zm490 1-7 19 1 1 7-13-1-7Zm-489 1-1 2h1v-2Zm1 2-1 2h1v-2Zm490 0-1 2h1v-2Zm-485 1-1 2h1v-2Zm-4 1-1 2h1v-2Zm1 2-1 4h1v-4Zm1 8-1 2h1v-2Zm1 2-1 2 2 1-1-3Zm5 10 1 6 4 2 1 1-2-6-4-3Zm456 13 5 1 1 2 1-2-7-1Zm5 3-3 4 3-2v-2Zm-422 1-16 8 1 2 16-8 2 5h1l-1-4-3-3Zm393 1v5l-1-1h-1l1 2 5-1-4-5Zm23 0v3h2l-1-1-1-2Zm-12 7 1 2h1l-2-2Zm-399 1-1 2h-1v1h2v-3Zm-18 1v1h1l-1-1Zm22 10v5h1l-1-5Zm0 5-1 2h1v-2Zm1 2-1 2 2 1-1-3Zm372 5-2 5 2-1v-4Zm0 5-3 4 1 1 2-3v-2Zm-367 1v5h1l-1-5Zm0 11-1 2h1v-2Zm361 1-2 3 1 2 1-2v-3Zm-360 1-1 2h1v-2Zm360 10-1 2h1v-2Zm-1 2-2 3 2-1v-2Zm-354 5v5h1l-1-5Zm0 5-1 2h1v-2Zm349 1-2 5 2-1v-4Zm-348 1-1 2 2 1-1-3Zm348 4-3 4 1 1 2-3v-2ZM312 683v1h1l-1-1Zm84 0v1h1l-1-1Zm-82 1v1h1l-1-1Zm80 0v1h1l-1-1Zm-68 1 3 2h2l-5-2Zm53 0-2 1-1 2 7-2-4-1Zm-47 2v1h1l-1-1Zm2 1v1h1l-1-1Zm40 0v1h1l-1-1Zm-38 1v1h1l-1-1Zm36 0v1h1l-1-1Zm-34 1v1h1l-1-1Zm32 0v1h1l-1-1Z"/><path fill="#F1F4DF" stroke="#F1F4DF" stroke-width="3" d="M267.5 110q19.49-1.99 25.5 9.5 9.71 9.29 6 32L284.5 176l-23 2q-17.04-3.96-26.5-15.5l-5-10 7-22 9.5-10.5 21-10Zm303 96 1.5 33.5-1.5.5v-34Zm-295 34q9.93 12.57 37 8l15-6h65l12.5 8.5-.5 1.5-1.5.5-2.5 3.5-38 12h-11l-15-7-28-6h-15l-18.5-7.5-.5-1.5-1.5-.5-1-2 3-2 .5-1.5Zm116 23 1.5.5-1.5.5v-1Zm29 31 1.5.5-7.5 5.5-.5-2.5 6.5-3.5Zm-166 36 3.5 2.5-2.5 3.5-3.5-2.5 2.5-3.5Zm199 0 3.5.5-4.5 5.5-3.5-.5 4.5-5.5Zm0 12 7.5 1.5-.5 3.5-7 1-2.5-1.5.5-3.5 2-1Zm-260 1 3.5.5-.5 3.5-4 1-.5-2.5 1.5-2.5Zm397 6 2.5.5-2.5 4.5-4.5-.5 3-1 1.5-3.5Zm-231 1 .5 1.5h-1l.5-1.5Zm-6 1 1.5.5 3 12q-5.13 9.37-3 26l1 65-1.5 2.5-7.5-2.5 1.5-100.5 5-3Zm-62 3 2.5.5.5 5.5 6.5.5-1 4 4.5 1.5 1.5-.5-.5 16.5-2-4-3.5-.5v-7l-11-15 2.5-1.5Zm53 0 .5 5.5-1 90 1 6-3-2v-97l2.5-2.5Zm220 0 4.5 1.5-.5 3.5-4 1v-6Zm-151 2 .5 3.5-1.5.5-.5-2.5 1.5-1.5Zm-1 5 1.5.5-.5 1.5-7 3 2-3 4-2Zm-209 5 3.5.5 3 9-2-1-3.5-7.5-3 1v-1l2-1Zm31 0 15.5.5q-3.6 7.4-16.5 5.5l.5-1.5.5-4.5Zm28 0 24.5 1.5-.5 3.5-16 3-2-3-6-5Zm155 0 25.5.5-2.5 5.5-25.5-1.5.5-3.5 2-1Zm27 0 1.5.5-2 1 .5-1.5Zm20 0 15.5 3.5-.5 4.5-15-8Zm-269 4-1 2-1.5-.5 2.5-1.5Zm313 0 1.5.5.5 1.5 1.5.5-2.5 5.5-5.5-.5 3-5-.5-1.5 2-1Z"/><path fill="#F1F4DF" stroke="#F1F4DF" stroke-width="3" d="m200.5 371 4.5.5 6.5 15.5 31 16h7l42-11 4.5 3.5q5.55 7.95 3 24l-9.5 15.5-17 7h-41L206 427.5l-5-6-8-26 4.5-22.5 3-2Zm159 0 .5 21.5h-1l-1-18 1.5-3.5Zm50 2 3.5.5-2.5 4.5-2.5-.5 1.5-4.5Zm-217 2 .5 1.5h-1l.5-1.5Zm391 46 3.5.5 1 7-1.5 2.5-3.5-.5-1-7 1.5-2.5Zm-18 12 3.5.5-.5 3.5-3.5-.5.5-3.5Zm14 5 2.5.5q3.5 14-3.5 17.5l-7.5-1.5 8.5-16.5Zm-447 12 5.5 3.5-.5 2.5-5.5-3.5.5-2.5Zm227 5 .5 3.5-8.5 3.5-2-3 9.5-2.5.5-1.5Zm-221 7 4.5 1.5-.5 3.5-3.5-.5-.5-4.5Zm267 18 1.5.5-4.5 7.5-.5-1.5 3.5-6.5Zm3 0 1.5.5-2 1 .5-1.5Zm-108 4 11.5 5.5 3 8-3 1-.5 1.5-1.5-2.5q4.75-2.75-1.5-5.5l-6-3-2 4v-9Z"/><path fill="#F1F4DF" stroke="#F1F4DF" stroke-width="3" d="m304.5 492 2.5 1.5-.5 1.5-1.5-.5-.5-2.5Zm34 14 3.5 1.5-.5 6.5-2-3-3.5-.5 2.5-4.5Zm-6 11 11 6 2.5.5 2 4-5.5.5-6.5-3.5-.5-2.5-5.5-.5 2.5-4.5Zm38 3 1.5.5-.5 1.5-3.5-.5 2.5-1.5Zm0 3 1.5.5-.5 1.5-9 3v-1l8-4Zm-11 3 .5 4.5q-1.75 5.25-10.5 3.5v-1l9.5-4.5.5-2.5Zm-38 32h11l15.5 8.5-4.5 2.5-2-1-1 2-8-6q-1.25 7.25-11 6l-3.5-8.5 3.5-3.5Zm.5 5 4 4 4-2 1-2-5 1-4-1Zm.5 49q21-4.5 28.5 4.5l-3 1 26 5-9.5 8.5h-27l-10-14-4.5-1.5-.5-3.5Zm58 6 2.5.5-2.5 5.5-.5-1.5 1-3-.5-1.5Zm-34 14 19.5.5-3.5 3.5h-26v-3l10-1Z"/><path fill="#E700BF" stroke="#E700BF" stroke-width="3" d="M330.5 12h23q7.64 8.36 25.5 6.5l-1 3 11.5 8.5q13.53-2.53 18.5 3.5l7.5 12.5 31 8 14 8L498 93.5l-.5 2.5-13.5 1.5-.5 1.5-2.5.5 18.5 24.5 9.5 6.5q1.62 18.88 15.5 25.5l3.5.5-1.5 3.5-16.5 3.5 1.5 10.5 10.5 2.5-2.5 3.5-15 2-.5-20.5 4.5-7.5 1.5-.5-.5-1.5-1.5-.5L462.5 87Q428.6 74.4 404 52.5L400.5 42q-21.13-4.87-34-18h-49l-66 33L235 73.5l-3.5 4.5-2.5 1.5-30.5 38.5-6 2-.5-6.5q8.12-6.38 6-23l-2-1L240.5 51 288 21.5l-1-3 7.5-1.5 25 1 11-6Zm194 175 15.5 7.5-2.5 3.5-13-6-2.5 5.5 18 16-2.5 1.5-15.5-7.5-.5-9.5-3.5 1.5-2.5 17.5-4-1-1.5.5v-13l14.5-16.5Zm27 21 .5 10.5-4.5 2.5-1.5-5.5 5.5-7.5Zm-48 53 1.5 14.5-8.5.5 1.5-2.5 2-9-.5-1.5 4-2Zm12 13 .5 8.5-7.5 9.5-5 2-7.5-5.5 13-4 6.5-10.5Zm-166 206 10.5 2.5-2.5 3.5-4.5-.5 1-2-4.5-3.5Z"/><path fill="#060041" stroke="#060041" stroke-width="3" d="M380.5 18q8.55 7.95 27 6l78 39 39.5 39.5 27 42v33l-11.5 7.5-2.5-1.5-1-3 1-7-3-2-1-4 1.5.5 4.5-1.5.5-10.5 5.5-.5v-6l-27-42L485.5 74l-38-20-14-12h-7l-23-12h-13L378 20.5l2.5-2.5Zm-185 72 2.5.5q1.93 12.42-3.5 17.5l-11.5 6.5-6.5 10.5-8.5 3.5q4.75 17.75-3.5 22.5l-1.5.5-13 23 7.5 17.5 4 2 2-3 1.5.5-4 5 .5 1.5-2 1-3.5 1.5q-3.25 12.25 2.5 15.5h2l1.5.5-1 3 1 3-2.5 5.5-3.5.5-.5 9.5-5.5-17.5-10-14 4-7v-37l4-9q14.87-40.63 47.5-63.5Zm212 180 1.5.5-1 4v2l.5 4.5 17.5 1.5-1.5 3.5-12.5 6.5-3.5 4.5-11.5 6.5-7.5 20.5-6.5 3.5-5.5 6.5-3 1q-6.03-9.47-20-11l-22 11q-8.5-4.5-9-17l-5.5-.5-1.5-5.5q-15.75-23.25-52.5-25.5l1.5-4.5q26.17-4.67 38 5l14-5 28 23 18 7q5.08-16.42 18-25l5.5-4.5 2.5-3.5 18-9Zm-18 58 .5 1.5-3.5 2.5 3-4Zm7 1 1.5 3.5-1.5-.5-2.5-1.5h2l.5-1.5Zm-1 4 1.5 2.5h-1l-.5-1.5-8.5 7.5 8.5-8.5Zm-104 39 2.5.5-.5 2.5-4 2-.5-1.5 2.5-3.5Zm159 0 2.5.5-9 8-.5 3.5-11.5-8.5 1.5-2.5 4.5 2.5.5 1.5 12-5Zm-163 1 .5 4.5-2.5.5.5-1.5 1.5-3.5Zm-35 5 5.5 1.5-1.5 4.5-4.5-.5.5-5.5Zm211 6 10.5.5-2.5 5.5-9.5-1.5 1.5-4.5Zm121 18 3.5 2.5-.5 3.5-5.5-.5 2.5-5.5Zm4 7 3 5 2-1 3 1 3.5-2.5q-7.74 7.26-6 24L582.5 447l-.5-2.5q10.24-10.76 6.5-35.5Zm-456 5 5.5.5-1 3 1 8-6 2-.5 4.5-5 1-.5-4.5 7-12-.5-2.5Zm449 9 .5 9.5-1.5-.5-3.5-.5 4.5-8.5Zm-404 3 8.5 3.5-1 10 2.5 3.5.5-1.5-2-3 2.5-.5 3.5 10.5h-1l-2.5-5.5-.5 2.5 15 31-2-1-17-38v-2l-3.5-8.5-1 2-2-3Zm3 12 1.5 2.5-2-1 .5-1.5Zm-55 1 .5 15.5h-1l-2.5-4.5-2.5-1.5 5.5-9.5Zm402 2 3.5.5-3.5.5v-1Zm-3 1 1.5.5-4.5 2.5 1-2 2-1Zm8 0 3.5 2.5 1 3h-1l-2.5-4.5-1-1Zm-223 2 2.5.5-5.5 8.5-.5-3.5 3.5-5.5Zm-137 2 2.5 5.5h-1l-1.5-5.5Zm415 1 .5 6.5-5.5 7.5-3 1-3.5-1.5-3-4 14-6-2-1 2.5-2.5Zm-394 3 50.5 31.5 18 24 14.5 34.5 5.5 2.5-2.5 3.5q-16.5-4.5-21 3l-.5-5.5-46-47h1l36.5 37.5 2.5-.5-5.5-6.5-31.5-30.5 27.5 26.5 3 1 .5-2.5-23.5-35.5-9.5-6.5-19.5-29.5Zm124 3 .5 5.5-8.5 3.5 2-3 5.5-4.5.5-1.5Zm-141 2 .5 2.5h-1l.5-2.5Zm334 5L495 476.5l-2.5 3.5 1.5-2.5 16.5-17.5Zm3 0 .5 1.5-20 19 19.5-20.5Zm-123 1 8.5 2.5-1.5-.5-3-1 7.5 8.5.5 3.5 2.5.5-2.5 4.5-1-4-3 6-10.5-16.5 2.5-3.5Zm2.5 1-3 3 9 8 2-1-8-10Zm-2 4v4l5 4-5-8Z"/><path fill="#060041" stroke="#060041" stroke-width="3" d="m164.5 462 3.5.5q3.7 27.3 19 43l-1 10 25 63 26 33 33.5 33.5 25 19 17 8q17.66-18.34 60-12 8.65 9.35 30 6l17-9 1 3 3-4 2 1 7.5-6.5 6-12-1-2 11.5-3.5 21.5-21.5q11.52-23.98 32-39l13-27 18-59v-2l1-2-1-2 2.5-.5 3.5-2.5 3.5-9.5 2.5.5v17l-18 47v13q-7.24 4.76-6 18l-21 36-21.5 27.5-35 23-13 13-30 15h-11l-29-12h-21l-17 12h-17l-18-9-37-31-11-5-21.5-21.5q-5.06-15.94-18-24-2.41-20.09-15-30 1.24-13.24-6-18v-19l-6-11-6-25-6-8v-12l2.5-2.5Z"/><path fill="#060041" stroke="#060041" stroke-width="3" d="m178.5 464 9.5 19.5h-1l-8.5-19.5Zm307 4 3.5.5-3 2q-5.12 27.88-20.5 45.5l-3.5-2.5v-31l2.5-2.5 12.5-5.5 2.5-3.5 6-3Zm46 5-.5 1.5-.5 1.5-.5-1.5 1.5-1.5Zm34 1 4.5 2.5-1.5 3.5-3.5-1.5.5-4.5Zm-365 4 7.5 8.5-8-7 .5-1.5Zm3 0 11.5 16.5-2-1-9.5-15.5Zm328 2-.5 1.5-1.5 2.5.5-1.5 1.5-2.5Zm-40 1-.5 1.5-11.5 22.5.5-1.5 11.5-22.5Zm-303 4 .5 1.5h-1l.5-1.5Zm337 0-3.5 4.5 1 8-2.5 6.5.5-1.5-5-7 9.5-10.5Zm-336 4 .5 3.5h-1l.5-3.5Z"/><path fill="#060041" stroke="#060041" stroke-width="3" d="m524.5 491-.5 1.5-.5 2.5-.5-2.5 1.5-1.5Zm-334 3 2.5 5.5h-1l-1.5-5.5Zm319 10 9.5.5-2.5 3.5 1.5.5-2 1 1 5-3 18-34 41-.5 5.5-3-4-9.5-5.5 1-4-4.5-1.5-1.5.5 8.5-24.5q13.13-2.37 18.5-12.5l13.5-19.5 7-4Zm-309 11 2.5 4.5h-1l-1.5-4.5Zm198 7q19.67-2.67 28 6h17l10-5 10.5 5.5-10.5 11.5-3 2-1-2-5.5 2.5 1 3-12.5 9.5 5.5-6.5-.5-3.5-7 9 .5-1.5 6-11q-4.58-7.92-17.5-7.5h-2l-9 2-1-2-2.5-.5 3-5-12-1 2.5-5.5Z"/><path fill="#060041" stroke="#060041" stroke-width="3" d="m419.5 539 1.5 6.5-3.5 4.5 1.5-2.5 1-3-7 5q9.25-5.25 6.5-10.5Zm-1 55 1.5.5-2.5 1.5 1-2Zm14 0 2.5 1.5-1.5-.5-1-1Zm-18 2 1.5.5-7.5 6.5 6-7Zm10 0 3.5.5-3.5.5v-1Zm-5 1 1.5.5-1.5.5v-1Zm12 0 1.5.5-1.5.5v-1Zm-16 2-.5 1.5-.5 1.5-.5-1.5 1.5-1.5Zm-32 4 1.5.5-1.5.5v-1Zm-117 3q19.37-2.37 28 6 2.71-7.29 14-6l-2.5 3.5.5 8.5 2.5.5-8 9 7.5 14.5q15.67-1.67 22 6 5.41-7.59 20-6l-2 3q-13.5 13.5-45 9l1.5-2.5-5.5-7.5-5.5-2.5-30-33 2.5-2.5Zm136 0 2.5 1.5-1.5-.5-1-1Zm21 3 .5 5.5h-1l.5-5.5Zm18 0 1.5 11.5h-1l-.5-11.5Zm-27 7 4 2 1.5-.5-1 2 1.5.5 1.5-.5-5 4-5.5 13.5-9 6-3-1-2.5-.5 11-7 6.5-18.5Zm29 6 1.5 2.5h-1l-.5-2.5Zm-60 14 3.5.5-3 10 2 1-2.5.5-5.5-3.5-.5-2.5-5.5 2.5-1.5 3.5-4.5-1.5 1.5-4.5 16-6Z"/><path fill="#EFA0CC" stroke="#EFA0CC" stroke-width="3" d="M317.5 24h49q13.63 13.87 35.5 19.5.25 10.75 7.5 14.5L466 91.5l43 62-5 8v79l-5.5 10.5-.5-84.5q-7.83-26.17-27-41L460.5 102 450 99.5l-1.5-9.5-34-15-47-45-60.5-.5 10.5-5.5Zm-36 18 2.5.5-4.5 11.5-9.5 1.5q1.75 8.75-3.5 10.5-28.85 6.15-44 26l-.5-2.5 8.5-11.5q18.73-24.77 51-36Zm230 174 4.5 1.5v55l-9.5 14.5-11 1-2.5-7.5 2.5-4.5 14.5-1.5 1.5-58.5Zm-373 42 2.5.5 3 6 .5 47.5 1.5.5-2 14-3.5 3.5-8.5-2.5 6-8-9-2 3.5-6.5 4 1 1.5-4.5v-2l.5-47.5Zm29 64 .5 11.5-4.5 2.5-3.5-5.5 2-1 5.5-7.5Zm-42 6 .5 23.5-3.5 2.5-9.5-17.5 2.5-4.5 10-4Zm36 24 .5 13.5-5.5 10.5-.5-15.5 5.5-8.5Zm-26 2 2.5 1.5q3.5 13-2.5 16.5l-9.5-2.5 9.5-15.5Zm14 2 .5 15.5-5.5 8.5-.5-13.5 5.5-10.5Zm187 121 11.5 4.5-1.5 4.5-4.5-.5-5.5-8.5Z"/><path fill="#0BD5B7" stroke="#0BD5B7" stroke-width="3" d="M306.5 30h59L396 57.5l-.5 2.5-10-2-25-22h-43q-18.73 19.77-47 30l-.5-9.5 12-4 3-10-.5-1.5 22-11Zm20 42h46l37 22 12.5 12.5 4 11-6.5 2.5-53-36q-28.75 3.75-42.5-7.5l.5-3.5 2-1Zm-143 72 2.5.5 1.5 17.5 12.5-4.5.5-1.5 3.5 1.5-.5 22.5-17-12-9.5-.5-3-11 9.5-12.5Zm21 51q6.87 3.62 5.5 15.5l-5.5 7.5v-23Zm0 60 6 15 6.5.5-1.5 5.5-14.5-.5q5.87-6.13 3.5-20.5Zm101 12 .5 5.5-8.5 3.5 2-3 5.5-2.5-2-1 2.5-2.5Zm108 2 3.5 6.5-7.5.5-1.5-4.5 5.5-2.5Zm-137 1 8.5 5.5-3.5.5-5.5-3.5.5-2.5Zm152 0 3.5 1.5 3 4-11.5.5 2.5-3.5.5-1.5 2-1Zm-181 72 5.5.5-1 4 .5 1.5-6.5-1.5 1.5-4.5Zm10 0 6.5 1.5-1.5 4.5-5.5-.5 1-4-.5-1.5Zm-6 18 11.5 5.5-21.5.5v-1l10-5Zm210 0 11.5 5.5-5.5.5-5.5-3.5-.5-2.5Zm-330 36 6.5 3.5-.5 3.5-5.5-3.5-.5-3.5Z"/><path fill="#4CE6D4" stroke="#4CE6D4" stroke-width="3" d="m317.5 36 9.5.5-8 21 5.5 2.5h30l39 13 9 8 36 18 26.5 26.5 14 21 7 20q-3.35 21.35 6 30v57l-8 10 .5 1.5q-6.83 7.17-23 5l-11 6h-15l-4-5-3-1-2.5 1.5-3.5 4.5-6.5-1.5-3-10 1.5-6.5 16 6h30l1.5-7.5-6-14 2.5-2.5 18 18 1.5-.5 2-4v-45q-8.29-6.71-6-24L455.5 152q-15.94-5.06-24-18-10.33-11.17-35-8l-59-36h-75q-25 9.5-38.5 30.5l-8 22v27l11 24-5 8 6 9v49l6 8-2.5 2.5h-21l-6.5-15.5v-17l3.5 2.5 2.5-.5-.5-23.5-5 3 3.5-4.5 2-11-6-9-2-14 2-1-1-23 7-13 6-25L233.5 93 264 74.5l-.5-2.5-5.5-.5.5-2.5 11-5 1 2q28.27-10.23 47-30Zm9.5 36-2 1-1 4q14 11 43 7l53 36 6-2-4-11-12-13-37-22h-46Zm-129.5 50 .5 17.5-6 16 8 1-1.5 2.5-11 3-2-18-1.5-.5 13.5-21.5Zm-47 108 5.5 10.5v37l6 10v14q7.41 5.09 6 19l-6.5 9.5-2.5-.5-4-23 1-12-6-11 .5-53.5Z"/><path fill="#4CE6D4" stroke="#4CE6D4" stroke-width="3" d="m266.5 264 15 6h12l6.5-2.5 2.5-3.5 3.5.5-3 5 2 1q-4.84 7.66-19.5 5.5l-9-6-1 3-11.5-5.5 2.5-3.5Zm-107 78 2.5 8.5-5.5 3.5-1-6-1.5-.5 5.5-5.5Zm-27 58 5.5 3.5-2.5 4.5-3.5-2.5-2-3 2-1 .5-1.5Zm452 14 3.5 2.5-.5 4.5-4-1-1.5.5 2.5-6.5Zm-464 11 4 1 1.5-.5-5.5 17.5-1-5-2.5-.5-3-6 1.5.5 4.5-1.5.5-5.5Zm462 6 4 1 1.5-.5-5.5 10.5-1.5-4.5 1.5-6.5Zm-171 49 2.5 3.5-5.5 2.5-.5-2.5 3.5-3.5Zm1 55 1.5 5.5-7.5 9.5-4 2-12.5-9.5q4.25-6.75 8.5 3.5l14-11Zm-50 5q12.25-3.25 15.5 2.5l-2.5 3.5q-12.25 3.25-15.5-2.5l2.5-3.5Zm-77 6 7.5.5-5 9 17 19-4.5 1.5-18.5-15.5q-2.75-11.75 3.5-14.5Zm29 30 3.5 2.5-2.5 3.5-3.5-2.5 2.5-3.5Zm30 12 3.5 2.5-2.5 3.5-3.5-2.5 2.5-3.5Z"/><path fill="#6BF5DC" stroke="#6BF5DC" stroke-width="3" d="M327.5 36h32l25 22 11 2 1-2q18.71 25.29 53.5 34.5l1.5 9.5 10.5 2.5 8 21q19.92 15.58 28 43v92q-2.5 6-13.5 3.5l4.5-5.5 3-5v-57l-6-11v-19l-7-20q-15.85-28.15-40.5-47.5l-36-18-9-8-39-13h-30l-5.5-2.5 8.5-21.5Zm-71 34 1.5.5.5 1.5 5.5.5-6.5 8.5L231 95.5l-15 23v7L203.5 156l-11.5-.5 6-16v-17l1-3L221.5 92l13-11 22-11Zm-29 121 .5 1.5h-1l.5-1.5Zm-89 17 11.5 14.5v61q7.94 6.06 6 22l-11.5 6.5-.5-49.5-6-8 .5-46.5Zm69 8 2.5.5-.5 23.5-5.5-3.5q-4.25-16.25 3.5-20.5Zm64 48 30.5.5-2.5 3.5-18 2-10-6Zm-118 84 2.5.5.5 5.5 1.5.5-2 4-.5 79.5-5.5-.5q2.29-17.29-6-24v-32l6-8q-3.32-17.83 3.5-25.5Z"/><path fill="#D700DC" stroke="#D700DC" stroke-width="3" d="m408.5 34 29 11 8.5 8.5-7.5.5-21-7-7.5-6.5-1.5-6.5Zm90 60q30.43 26.07 41.5 71.5l-3.5 2.5-4-12-4 2-1-2-4-1-1.5.5-5-7-12.5-22.5-9.5-6.5-14-20 3-1 .5-1.5 13.5-1.5.5-1.5Zm-307 22 1 4 6-2-.5 1.5-22 31-2 13 5 8-5 8 3 1 1 4-4 5 5 7-1.5 1.5-8.5-8.5 5-9q-9.56 1.56-12-4-1.41-13.91 6-19v-13l23.5-28.5Zm-3 64 13.5 1.5 2 5-1.5-.5q-13 3.5-16.5-2.5l2.5-3.5Zm-12 30 3.5 2.5-2.5 3.5-3.5-2.5 2.5-3.5Zm18 6 3.5 2.5v49l-2.5 2.5-3.5-2.5v-49l2.5-2.5Zm309 26 .5 18.5-5 3-.5 2.5-.5-13.5 5.5-10.5Zm-345 22 3.5 2.5-.5 15.5-3.5-1.5-2-14 2.5-2.5Zm30 12 3.5.5-2.5 5.5-3.5-2.5 2.5-3.5Zm-23 18 8.5 2.5-6 7 6 12-3.5 2.5-8.5-20.5 3.5-3.5Zm-12 12q6.5 4 2.5 18.5l7 11-1.5 6.5-11 6-1-30-4.5-2.5 8.5-9.5Zm-39 34 5.5 11.5h-1l-4.5-11.5Zm21 8 2.5 6.5-1.5-.5-2.5.5-7.5 13.5-.5-7.5 9.5-12.5Zm201 124 16.5 7.5-13.5.5-3-8Z"/><path fill="#18008B" stroke="#18008B" stroke-width="3" d="m448.5 54 31 15 39.5 38.5 27 42v6l-6 1-.5 4.5-14.5-35.5Q509.9 99.1 486.5 81l-38-27Zm-257 54 3.5.5-26.5 34.5-.5-14.5 11-6 8.5-12.5 4-2Zm-24 40 .5 8.5q-7.76 5.74-6 21l1.5 2.5-1.5.5-.5 11.5-4.5-.5-7-18 13.5-22.5 4-3Zm223 182 5.5 2.5-9.5 9.5-1.5-1.5 5.5-10.5Zm-216 96 5.5 3.5v10l20 40 12 18 46 49-10.5 13.5-3.5 2.5-.5 1.5-1.5-.5-2.5-3.5-27.5-15.5-8-16-12-43-18-41 .5-18.5Zm353 18 6.5 2.5v22l-18 27 5 7q-17.54-.04-24 11L479.5 537l-11.5 5.5v10l-6 16 15 7 2 3-9 11-8 16v7l-7.5 9.5-7 2q-5.25-3.75-3.5-14.5l12-5-1.5-4.5q-15.56 2.06-21-6h-15l-10.5 8.5 1 3-1 3 2.5 3.5-11.5-6.5 3-4-5.5-1.5h-2l-7.5-.5q6.25-3.25 3-16l-.5-1.5 6.5 2.5 1.5 3.5 2.5-1.5 2-4v-2l.5-4.5 21.5-7.5 2.5-10.5 5.5-.5 9.5-11.5 8.5-1.5 2.5-4.5 8.5-7.5 3-4-.5-1.5 14.5-12.5 16-33q18.65-13.85 29.5-35.5l4-2ZM430 564l-4 6h5l1-5-2-1Zm-37.5-102 8.5 9.5-2.5 1.5-8.5-8.5 2.5-2.5Zm-56 6 27.5 7.5 2 5-3.5 5.5-2.5-.5-1.5-5.5-22.5-9.5.5-2.5Zm69 6 2.5.5-2.5 5.5-1.5.5-1.5 3.5-.5-4.5 3.5-5.5Zm-24 48 3.5.5-1 4 5.5 1.5.5-4.5-.5-1.5 6.5.5 1 6-1 4 .5 1.5-6.5-.5-1.5-3.5-10.5-2.5 3.5-5.5Zm20 6 6.5.5-3.5 5.5-4.5-.5 2-4-.5-1.5Zm7 8-9 10-6.5-5.5 5.5 4.5 10-9Zm9 4 2.5 2.5-7.5 7.5-8 2v-1l7.5-5.5 1.5-3.5 4-2Zm-127 12-1.5 2.5 14 15-15-14 2.5-3.5Zm40 30 11.5 3.5 1 3-1 4 .5 1.5-6.5-2.5-.5-3.5-5 1v-7Zm17 6 8.5.5-3 1-2.5 4.5-3.5-.5 1-4-.5-1.5Zm26 0 13.5.5-6.5 5.5-7-6Zm-64 18 8.5.5-5.5 10.5-3 1-3.5-.5q-2-9.5 3.5-11.5Zm42 36 15.5.5-1 4 .5 1.5h-19l-16 6v-1l20-11Zm24 0 2.5.5 1.5 3.5 11 2 11-6 2 12q13-3.5 16.5 2.5l-12.5 7.5.5-1.5-.5-2.5-11.5-8.5-.5-3.5-17 6-6.5-3.5-1-3 1.5-3.5 3-2Zm-76 15 1 3 1.5.5-2 4 .5 1.5-6.5-3.5.5-2.5 5-3Z"/><path fill="#E7E6CC" stroke="#E7E6CC" stroke-width="3" d="M263.5 90h73l59 36q24.67-3.17 35 8l29.5 23.5 14 28q-2.29 17.29 6 24v43l-2.5 4.5-20-17-1.5 6.5 6 15q-3.25 5.75-15.5 2.5l-5-9-6-1q-4.9 6.6-19 4l-3-4-2.5 3.5 3 6-13.5.5-46 18-23-12q-16.46 2.96-21.5-5.5l4-1-6-2 2.5-.5 50 14 42.5-14.5-.5-1.5 11.5-6.5-6-17-1-38-6.5-8.5-47-19-1.5 4.5 11 14-3.5.5-18.5-20.5q-7.9-10.6-6-31L320.5 114l-32-17h-13q-26.34 8.66-42.5 27.5l-10 32 12.5 26.5 22.5 13.5v33l-5 17 9.5 12.5 2.5.5-3.5 4.5-13-6q-3.57 7.93-17 6l-3.5-5.5v-49l-5-9 5-9-12-23v-25l8-22L247.5 98l16-8ZM431 230l-5 10 1 6 5 2 5-8-1-7-5-3Zm133.5-33 3.5 1.5 2 12-1.5.5-4-14Zm5 38 1 5 2.5 1.5 2 18-10 23-1 18 2.5 3.5-2.5 1.5 7 1-2.5 11.5-7.5-6.5q-6.83-9.17-3-29l6-12q-4.3-24.8 5.5-35.5Z"/><path fill="#E7E6CC" stroke="#E7E6CC" stroke-width="3" d="m300.5 260 5.5 1.5-1.5 2.5-7.5-.5 3.5-3.5Zm-99 16 4.5.5-2 5 5 1-4 2 2 3-5.5.5-3.5-5.5 3.5-6.5Zm10 6 16.5 1.5-1.5 4.5-15.5-.5 4-2-.5-1.5-3-2Zm36 6 10.5 3.5 1 2-4.5.5-7-6Zm16 0q12.9-1.9 16.5 5.5l3.5 6.5-20.5-6.5 1-4-.5-1.5Zm174 0 7.5.5-2.5 5.5-4.5-1.5-.5-4.5Zm-29 12 4.5.5-10.5 5.5-.5-2.5 6.5-3.5Zm160 2 1.5.5-1.5.5v-1Zm-358 4 18.5.5-2.5 3.5-22 2-.5-2.5 6.5-3.5Zm191 12 5.5 1.5-.5 3.5-3 1-2-6Zm181 10 11.5 5.5-1.5 2.5q-8.75 1.75-10.5-3.5l.5-4.5Zm-137 2 6.5.5-3.5 5.5-4.5-1.5 1.5-4.5Zm12 0 4.5 2.5-1.5 2.5-6 1 1.5-2.5 1.5-3.5Zm-107 7 5.5 4.5-5 1 3 1-7 4-1.5 3.5-1-2-2 4-.5-5.5 3-5-2-1 7.5-4.5Zm-156 5 1.5.5-1.5.5v-1Zm3 2 .5 1.5h-1l.5-1.5Zm158 0 4 5 1-3q9.75 4.25 5.5 22.5l-5.5 8.5-.5-7.5 2-1 3-6-9.5-18.5Zm95 0 .5 1.5h-1l.5-1.5Zm11 0 .5 1.5h-1l.5-1.5Zm-117 8 .5 1.5h-1l.5-1.5Zm69 0 1 2 1.5.5-1.5 3.5-1-3-2.5 4.5 2 1-9.5 4.5.5-1.5 3.5-7.5 6-4Zm171 2 5.5.5-1.5 3.5-1-3-3 5-2.5-.5 2.5-5.5Zm-15 2 .5 1.5h-1l.5-1.5Zm-365 4 4.5 1.5 7 19-3-2-6.5-12.5-7.5-.5 5-3 .5-2.5Zm27 0 2 3-3.5-1.5 1.5-1.5Zm198 1 2.5 1.5-1.5-.5-1-1Zm-201 4 5.5 2.5-1.5 4.5-4.5-1.5 1-4-.5-1.5Zm228 0 23.5 10.5-1.5 2.5-10.5-.5-1.5-3.5-10.5-5.5-1-2 1.5-1.5Zm32 2 2.5.5-4.5 6.5-1-2-4.5-.5 7.5-4.5Zm-74 1 .5 1.5h-1l.5-1.5Zm-223 2 1 3 1.5-.5-7 25 2 1 5 22-.5 1.5 1.5.5 16.5 18.5 23 11 4-1 10 3 7-3 8 2q22.22-3.78 34.5-17.5l4.5-12.5 2.5-.5.5-1.5.5 11.5-9.5 17.5q-19.22-1.22-24 12h-33q-28.22-9.28-44.5-30.5l-9-18q1.83-14.83-5-21l10.5-22.5Zm-4.5 23-1 3h1v-3Zm43 60 4 3v-1l-4-2Zm42.5-81 5.5.5-2 10 6 4-.5 2.5-23 4v-1l5.5-1.5-4-1 8-6 4.5-11.5Z"/><path fill="#E7E6CC" stroke="#E7E6CC" stroke-width="3" d="m501.5 372 4.5.5-2 5 5.5.5 3-6 1 2 2.5 1.5-.5 8.5-4.5 2.5q10 12.5 5 40L503.5 441l-42 21h-11L416 447.5l-2-3 8.5-11.5 11 4 3.5-1.5-8.5-9.5-2.5-.5q.75-10.75-5.5-14.5l-1.5.5q-7.93-5.58-5.5-21.5l-3.5-1.5-2-4 11.5-.5 19 12q22.83-3.83 33 5l32.5-14.5-.5-2.5-5.5-.5q-2-9.5 3.5-11.5ZM425 400l-3 2 8 18 16 15 22 8q11 3 14-2l-1-4-12-10-18-3-26-24Zm74 12-2 1-13 14 3 4 13-1 4-9-1-6-4-3Zm-201.5-35 1 2-14 5v-1l13-6Zm5 1 1.5.5 2 22h-1l-1.5-2.5-1.5.5-2.5-15.5-4.5-.5 5-2 .5-1.5 2-1Z"/><path fill="#E7E6CC" stroke="#E7E6CC" stroke-width="3" d="m459.5 378 2.5.5-3.5 5.5-2.5-1.5 3.5-4.5Zm-240 6 12.5 5.5-4.5.5-8-6Zm69 1 1.5.5-1.5.5v-1Zm72 0 5.5 8.5v62l-3.5 6.5-4.5-.5 3-11v-52l-.5-13.5Zm-77 2 1.5.5-1.5.5v-1Zm-30 6 2.5.5-2.5.5v-1Zm-19 1 1.5.5-1.5.5v-1Zm12 0 3.5.5-3.5.5v-1Zm57 8 .5 17.5h-1l.5-17.5Zm-183 17 5.5 2.5-2.5 4.5-3.5-2.5.5-4.5Zm446 13 1.5.5-1.5.5v-1Zm-2 2 .5 1.5h-1l.5-1.5Zm5 0 .5 1.5h-1l.5-1.5Zm-3 3 1.5.5-1.5.5v-1Zm-437 7 5.5.5 3 7-2.5-1.5-3.5.5 3 5-2.5-1.5-1.5-.5-4-8 2.5-1.5Zm443 18 1.5.5-1.5.5v-1Zm-253 2 4.5 1.5-.5 2.5-5.5 1.5-3.5 4.5-4.5-.5 9.5-9.5Zm-179 3 1.5.5-1.5.5v-1Zm184 2 3 5h5l9.5 9.5-.5 1.5-17.5-8.5.5-7.5Zm-25 11 8.5 5.5-2.5.5-5.5-3.5-.5-2.5Zm70 0 2.5.5-3.5 5.5-1.5-.5 2.5-5.5Zm38 1 1 5q12.5-2 14.5 6.5l3 11-2.5 4.5-5 1-10.5-5.5-3.5-11.5-2 1-.5-3.5 5.5-8.5Zm-108 5 .5 8.5-3 7 3.5 1.5 10-5 1.5 5.5-5 10 7.5 8.5 3-1 2.5 1.5-5.5 5.5-29 6 .5-1.5 2.5-35.5 3 1 8-12Zm-4.5 15-1 3h1v-3Zm47.5 5 6 8 3.5 1.5 3.5 6.5 4.5-1.5 2.5-5.5 8-3 1.5 6.5-5 3 4 1-4.5 2.5-1-3-12 6 .5-1.5-1.5-4.5-6-4-1 3-1.5-3.5 1-2-2.5-9.5Zm-7 1 1.5 2.5h-1l-.5-2.5Zm0 4-.5 1.5-1.5 3.5-.5-1.5 2.5-3.5Zm-6 7 1 4 1.5.5-12.5 5.5v-1l9.5-4.5-2-1 2.5-3.5Zm9 16 8.5.5-5 3-.5 2.5-5.5-3.5 2.5-2.5Zm48 24 2.5 1.5 1 4-3.5.5-2.5-3.5 2.5-2.5Zm-54 6 3.5 2.5-2.5-1.5-6 5 5-6Zm24 0-2.5 3.5-3.5 14.5-14.5-3.5.5-10.5 10 2 10-6Zm2 0 19.5.5-.5 11.5-6-3-1.5 2.5 2 5-4.5 1.5-1.5-4.5 3-6-10.5-7.5Zm59 0 2.5.5-3.5 5.5-2.5-.5 3.5-5.5Zm-98 48 2.5 1.5 2 3-1 3 6.5 11.5 3.5 1.5.5 2.5 1.5.5-5.5.5-11.5-9.5 1.5-14.5Zm50 0 14.5 1.5-1.5 2.5-1.5.5 2 1-1.5.5-12-6Zm17 4-2.5 5.5.5 2.5 5-2 .5 1.5-6.5 9.5-14 3 2-4-1.5-.5 1.5-.5 9.5-7.5 2.5-4.5 2.5-.5-2-1 2.5-1.5Zm-52 17 1.5.5-1.5.5v-1Zm59 3 2.5.5-6.5 8.5-4 2-.5-2.5 8.5-8.5Zm-23 40 2.5.5-2.5.5v-1Z"/><path fill="#EFF1DA" stroke="#EFF1DA" stroke-width="3" d="m362.5 11 16.5 2.5-11.5.5-5-3Zm19 0 4.5 2.5-2.5.5-1-2-1-1Zm13 6 4.5 1.5-2.5.5-2-2Zm11 0 4.5 2.5-1.5.5-3-3Zm13 6 4 1 2-1L481 53.5l-2.5.5-60-31Zm5.5 1v1h1l-1-1Zm2 1v1h1l-1-1Zm2 1v1h1l-1-1Zm2 1v1h1l-1-1Zm2 1v1h1l-1-1Zm2 1v1h1l-1-1Zm2 1v1h1l-1-1Zm2 1v1h1l-1-1Zm2 1v1h1l-1-1Zm2 1v1h1l-1-1Zm2 1v1h1l-1-1Zm2 1v1h1l-1-1Zm2 1v1h1l-1-1Zm2 1v1h1l-1-1Zm2 1v1h1l-1-1Zm2 1v1h1l-1-1Zm2 1v1h1l-1-1Zm2 1v1h1l-1-1Zm2 1v1h1l-1-1Zm2 1v1h1l-1-1Zm2 1v1h1l-1-1Zm2 1v1h1l-1-1Zm2 1v1h1l-1-1Zm2 1v1h1l-1-1Zm2 1v1h1l-1-1Zm2 1v1h1l-1-1Zm-226.5-8 1.5.5-4.5 2.5 1-2 2-1Zm-18 12 2.5.5L180.5 97l-.5-1.5L201.5 73l28-20Zm262 7L533 99.5l19 33-6-5Q525.62 86.06 491.5 60Zm41.5 41-1 2h1v-2Zm1 2-1 2h1v-2Zm1 2-1 2h1v-2Zm1 2-1 2h1v-2Zm9 12-1 2h1v-2Zm1 2-1 2h1v-2Zm1 2-1 2h1v-2Zm1 2-1 2h1v-2ZM275.5 97h13l34.5 19.5 12 21q-1.9 20.4 6 31l18.5 20.5 3.5-.5-11-17 4.5-1.5 48.5 23.5q6.69 15.81 3 42l6 17v2l2 3-2 1-.5 1.5-1.5-3.5-.5-1.5-9.5 4.5.5 1.5-9 3-2-1-14.5 5.5.5 1.5-4-1-20 6q-13.82-11.68-39-12l-8 2-.5-2.5 1-2-6.5-1.5-4 5-34.5-.5 3-4-3-1q-8.55-4.95-9-18l5-11v-33l-27-18-8-28 8-23 13.5-14.5 31-16Zm-7.5 13-21 10-10 11-7 22 5 10q9 11 27 15l23-2 14-24q4-23-6-32-6-12-25-10Zm8 130-1 2-3 2 1 2h2v2l19 7h15l28 6 15 7h11l38-12 2-3 2-1v-1l-12-9h-65l-15 6q-28 5-37-8Zm-9 20v1h31l-31-1Zm42 1v1h2l-2-1Zm3 1v1h2l-2-1ZM167.5 107l2.5.5-3 2 .5-2.5Zm389 35 2.5 4.5h-1l-1.5-4.5Zm1 6 7.5 16.5h-1l-.5-1.5-.5 3.5 1.5 2.5 1.5.5 5 13h-1l-.5-1.5-.5 13.5 2 1 .5-2.5 5.5 13.5h-1l-1.5-2.5-.5 2.5 2.5 31.5 1-3 5.5 13.5h-1l-1.5-2.5-.5 17.5-9 37 6 1-9 1 2 1-5.5 2.5 1-2 1.5-.5q-6.25-3.25-3-16l11-28v-14l-3-5v-31L557.5 148Zm-419 37 .5 1.5-1.5 2.5-.5-1.5 1.5-2.5Zm-2 8 1 4 1-2 .5 2.5-3.5 5.5-1.5-3.5 2.5-6.5Zm.5 4-1 2h1v-2Zm-3.5 17-.5 1.5-1.5 3.5-.5-1.5 2.5-3.5Zm297 16 5.5 2.5 1 7-5.5 8.5-4.5-2.5-1-6 4.5-9.5Zm-296 26 1.5 6.5-2.5 39.5-2.5-.5 3-1-1-43 1.5-1.5Z"/><path fill="#EFF1DA" stroke="#EFF1DA" stroke-width="3" d="m582.5 273 .5 1.5-5.5 12.5-.5-4.5 5.5-9.5Zm-373 9 5.5 2.5-.5 1.5-7 2-2.5-3.5 4.5-2.5Zm33 6 11.5 5.5-4.5.5-7-6Zm11 0 10.5 1.5-1.5 4.5-4.5-1.5-1.5-2.5-3-2Zm169 6 3.5.5-3.5 5.5-19 6v-1l9.5-4.5-3-1 3.5-1.5 1 2 8-6Zm-296 17 1.5.5-1.5 2.5-1.5-.5 1.5-2.5Zm455 0 .5 1.5h-1l.5-1.5Zm-461 11 1.5.5-2.5 5.5-6 3 1.5-2.5 5.5-6.5Zm470 5 5.5 3.5-.5 1.5-2 1v-2l-4.5-.5 1.5-3.5Zm-338 3 1.5.5-2 3 1.5 2.5-7.5-2.5 6.5-3.5Zm4 0 7.5 3.5 1 2-8.5.5 1.5-2.5-1.5-3.5Zm-153 10 .5 1.5-2.5 3.5-.5-1.5 2.5-3.5Zm501 0 2.5 4.5h-1l-.5-1.5-1.5-.5.5-2.5Zm-253 2 8.5 3.5-1 6 6 12-3.5 5.5-1.5.5-2 19 3 10v52l-4.5 8.5-7.5.5 1.5 2.5-8.5-3.5.5-4.5 2.5 1.5-1-95 1-8h-1l-1.5 3.5-.5-2.5 3.5-5.5 1.5.5 3.5-4.5 3.5-.5-2.5-1.5Zm7.5 5-1 2h1v-2Zm-13 2-1 2h1v-2Zm8 2-5 3-2 101 8 2 1-2-1-65q-2-17 3-26l-3-12-1-1Zm231.5-3 6.5.5-2 1-1.5 3.5-3 1-3 2-.5-1.5 3.5-6.5Zm-169 1 2.5.5-2.5 4.5-2.5-.5 2.5-4.5Zm-115 11 4.5 2.5-1.5 3.5-4.5-1.5 1.5-4.5Zm-70 1 2.5 5.5-1.5-.5-4 1 .5-1.5 2.5-4.5Zm197 1 3.5 1.5-.5 2.5-5.5-.5.5-2.5 2-1Zm-230 4 4.5.5-2 1 2.5.5 1.5-.5 4.5 8.5 1-3 7 11 10 6 36.5.5-3 1 3.5.5 17.5-3.5-2-4 19-6-1-2 1.5-2.5 1 4 1.5.5-2 1-.5 1.5-4.5 1.5 5 1 2.5 15.5 2.5.5 1 21-2.5 3.5-1.5-.5-9.5 17.5-33 12-5-2-11 3-8-3-6.5 1.5 5 2-.5 1.5-5.5-3.5.5-1.5q-19.38-8.62-31.5-24.5l-.5-1.5-1.5.5v-2l-.5-1.5-1.5-.5 1-3-5.5-20.5-1.5-.5 6-24-1-4 6.5-3.5Zm-4.5 5-1 2 2-1-1-1Zm7 0-3 2-5 23 8 26 5 6 26 14h41l17-7 9-15q3-17-3-24l-4-4-42 11h-7l-31-16-7-15-4-1Zm88 14v1h1l-1-1Zm-5 2v1h1l-1-1Zm-25 5v1h2l-2-1Zm-5 1v1h2l-2-1Zm-19 1v1h1l-1-1Zm12 0v1h3l-3-1Zm57 8-1 18h1v-18Z"/><path fill="#EFF1DA" stroke="#EFF1DA" stroke-width="3" d="m256.5 366 12.5 5.5-4.5.5-8-6Zm31 2 .5 1.5h-1l.5-1.5Zm-101 25 .5 2.5h-1l.5-2.5Zm238 7 26 24 18 3 12.5 9.5 1 4q-3 5.5-14.5 2.5l-22-8-15.5-15.5-8-18 2.5-1.5Zm-323 5 2.5 4.5-2-1-.5-3.5Zm397 7 4.5 2.5 1 6-4.5 9.5-13 1-2.5-4.5 12.5-13.5 2-1Zm106 2 1 5 1-2 .5 1.5-5.5 12.5-1-3-1 2-.5-3.5 5.5-12.5Zm-5 2 .5 4.5-5.5 8.5-.5-2.5 5.5-10.5Zm-493 1 3.5 2.5-.5 3.5-3-6Zm3 15 .5 1.5h-1l.5-1.5Zm-2 3 5.5 13.5h-1l-4.5-13.5Zm491 3 1 5 1-2 .5 1.5-8.5 15.5-.5-1.5 6.5-18.5Zm-5 2 .5 4.5-5.5 8.5-.5-2.5 5.5-10.5Zm-480 13 2.5 4.5-2-1-.5-3.5Zm6 12 4.5 2.5 2 6-1.5-.5-3.5-2.5-1.5-5.5Zm456 13 7.5.5-4.5 6.5-4 1-.5-2.5h1l.5 1.5 5.5-4.5-.5-1.5-5-1Zm-417 4 3.5 2.5 1 4h-1l-2.5-4.5-14.5 7.5 2 1-1.5.5-3.5-2.5 16.5-8.5Zm393 1 4 5-5 1-.5-2.5 1.5-3.5Zm.5 3-1 2h1v-2Zm-249.5 3 9.5 6.5-13.5 7.5-1.5-4.5 5.5-9.5Zm2.5 3v3h2v-1l-2-2Zm7.5-2 3.5 1.5-.5 6.5-3-8Zm250 0 2.5 1.5-1.5.5-1-2Zm-399 1 .5 2.5-2.5.5v-1l1.5-.5.5-1.5Zm131 10 .5 2.5h-1l.5-2.5Zm-127 1 1.5 4.5-1 2 2 3-2-1-1-3 1-2-.5-3.5Zm168 6 1 3 3.5.5 1.5 2.5 1-3 7.5 10.5-2 1 1.5 5.5 10-3-1 4-10 5-4-12-2 1-10-6-2 4-.5-4.5 5.5-8.5Zm-.5 4-1 2h1v-2Zm-1 2-1 2h1v-2Zm12 4-1 3h1v-3Zm194.5-4 .5 3.5v2l-2.5 4.5-.5-1.5 2-3-1-3 1.5-2.5Z"/><path fill="#EFF1DA" stroke="#EFF1DA" stroke-width="3" d="m352.5 516 9.5.5-2.5 4.5-4 1-3-6Zm-179 4 1.5 4.5h-1l-.5-4.5Zm0 11 1.5 3.5h-1l-.5-3.5Zm361 1 .5 2.5-1.5 2.5-.5-2.5 1.5-2.5Zm0 11 .5 1.5-2.5 3.5-.5-1.5 2.5-3.5Zm-355 7 1.5 4.5-1 2 2 3-2-1-1-3 1-2-.5-3.5Zm349 6 .5 3.5v2l-2.5 4.5-.5-1.5 2-3-1-3 1.5-2.5Zm-207 7 4 1 5-1-1 2-4 2-4-4Zm25 1 9.5.5q-3.75 6.25-14.5 5.5l-.5-1.5 1.5-.5 3 1 1-5Zm14 3 8.5 4.5-3 9 .5 1.5-4.5-2.5-1.5-12.5Zm11 6 2 3-2 1-.5-2.5.5-1.5Zm-26 39h23l12 5 3.5-2.5-1-2 4.5-.5 2 3-5.5 2.5 2 1h-3l-.5-1.5-2.5 1.5 1 3-12.5 14.5-5.5-.5 2.5-3.5-31.5 1.5 1.5 2.5-3.5-2.5.5-1.5-2 1v-2l-3.5-2.5-4-11 4.5-.5 10 14h27l9.5-8.5-26-5 3-1-5.5-4.5Zm25.5 19v1h1l-1-1Zm-28.5 35h17l28.5 11.5-9 1 11 4-4.5.5-4-2-15 5-15-4-15 4-12.5-3.5 6-2-.5-2.5-3.5-.5 16.5-11.5Zm28.5 10v1h2l-2-1Zm-59.5 7 3.5 1.5-1.5.5-2-2Zm84 0 1.5.5-3.5 1.5v-1l2-1Zm-70 2 13.5 5.5-1.5.5-12-6Zm53 0 4.5.5-13.5 5.5v-1l9-5Z"/><path fill="#060023" stroke="#060023" stroke-width="3" d="m531.5 156 5 17 1.5.5-1 8 1.5 2.5 3 1 10-7 .5 16.5-3.5-2.5q-17.63 2.63-24-6L510 202.5l-1.5 72.5-2 1-2.5-2.5v-90l3.5-3.5h18l2.5-2.5-2.5-3.5q-12.25 3.25-15.5-2.5l2.5-9.5q14.86 2.36 19-6Zm16.5 28-1 5h1v-5Zm-369.5-16q11.87-1.38 15.5 5.5l-2 1 3 5-9 2 1.5 4.5 10.5 2.5 1.5 3.5 4-1 .5 9.5-3.5-2.5-14.5 9.5 1.5 2.5 8-6 2.5 5.5-4 2-2 4-.5 54.5-3.5.5-2.5 11.5q-13.75 3.75-17.5-2.5 2.5-19-6-27v-18l12-3-2.5-3.5-11.5-.5 2-7-1-3 .5-1.5-1.5-.5.5-1.5 13.5-5.5-2.5-4.5-11.5-4.5.5-1.5 1.5-.5 1-3-.5-1.5-2.5-.5 2-1 .5-11.5 11.5-.5 6-9-1.5-2.5Zm8.5 5v1h1l-1-1Zm-12 7-7 9 9 15 3-2-5-12 4-5-1-4-3-1Zm7 6-2 5 6 1v-4l-4-2Zm-18 5-1 2 2-1-1-1Zm12 19-2 5 5 1 1-4-4-2Zm-7 6-1 4 6 2v-3l-5-3Z"/><path fill="#060023" stroke="#060023" stroke-width="3" d="m524.5 193 15.5 5.5.5 3.5 11.5 2.5-3.5 5.5h-11l-15-12-.5 10.5 24 11 1.5 2.5 4.5.5-6.5 11.5-5.5.5 6 11v36l-12 18v18l12 21v100q-7.63 7.38-6.5 23.5l-3.5.5-1.5 2.5-2-21q-11.8-1.3-14.5 6.5-6.94 20.06-24 30L480.5 508l-14 8 3.5-4.5 16.5-41.5 2.5-1.5-2-1q17.18-5.82 27-19l14-28v-48l-7.5-10.5-10-2-.5 2.5 2.5 3.5-8 2-16 16-14 3-1-3-4.5-.5 23-14-.5-3.5h-17q-8.25-8.75-27.5-6.5 3.38-6.62 16-4l-14.5-.5-8.5 4.5 2.5.5 1.5-.5-.5 3.5-4 2-2-5-5.5-2.5-.5-3.5-5.5.5-1.5 10.5-10.5 1.5-.5 5.5-8.5-.5 5.5-6.5 7.5-5.5 1.5-3.5 6.5-3.5-2.5-4.5-3.5-2.5-.5-1.5-3-2-2.5 1.5-2.5 4.5-3.5 2.5-6 9q2.53 13.53-3.5 18.5l-7.5 2.5-1.5 15.5-5.5-2.5q3.25-12.25-2.5-15.5l-3.5 2.5v21l8.5 24.5 3.5-2.5q-3.5-15.5 3.5-20.5l2-1q-1.85 12.85 4 18l2.5.5q-7.83 6.67-6 23l9.5 24.5 2.5.5-1.5 3.5-4 2-8.5-11.5 2-1-5.5-.5-2.5 3.5 1.5 3.5 1-2 5.5 7.5h-2l4.5 7.5 3-6 .5 14.5-10 9-8 15q3 5.14 6 0l-.5 8.5-11.5 2.5.5 3.5 11.5 3.5.5 2.5 17.5.5-8.5 10.5-9-5-.5 3.5q3.49 10.51 19.5 8.5l10-8 1 2 .5-5.5-2.5-.5-4 2-.5-7.5 3.5-.5h2q12.92-.42 17.5 7.5l1 7-6.5 9.5-6 1h-2l-14.5 8.5-1 7 .5 1.5-7 1-4-1-1.5 4.5.5 1.5-6.5-1.5 2.5-5.5 7.5-5.5 2-11-5.5-.5-1 3-3 1-2.5-1.5-.5-2.5h-18q-5.29 9.21-23 6-10.59-10.41-36-6l-.5 7.5 6.5 8.5 29.5 10.5 1 3-6.5.5-1-4-11-2h-2l-4 1-6.5-1.5-.5-5.5-11.5 1.5-.5 10.5q-13.75 3.75-17.5-2.5l.5-15.5 16 6 .5-2.5-16-19 14.5-20.5q15.26 1.76 21-6h20l2.5 1.5-.5 3.5-15.5 3.5-1 8 21 2-3 5 2.5.5 5.5-4.5.5-1.5 21.5-.5.5-5.5 5.5-2.5-2.5-3.5-21.5-.5.5-2.5 15.5-4.5 2-15-6.5-1.5-17 6-6.5-3.5-7.5-14.5-9.5-1.5-.5-1.5q-16.87-1.62-24.5-12.5l.5-8.5h11l23 12 10.5.5-3 5 13.5.5 14.5-12.5 2-7-2.5-3.5-14-1-1.5 3.5 1.5 2.5-17.5-5.5 11.5-.5 16.5-8.5.5-9.5 5.5-1.5v-20l-2.5-2.5-3.5 2.5-.5 20.5-2.5-4.5 2-1-5-3v-66q9.39-7.11 6.5-26.5l3.5-1.5 8-16-2-1 4.5-5.5 4-1 11.5 4.5.5 1.5 2 1 3.5-2.5 2.5-3.5 1.5-.5 2-3-11-4 8-10-.5-1.5 14-5v1l-4.5 2.5.5 2.5 4.5-1.5 3.5-4.5 3.5.5.5 5.5 5.5-.5.5-5.5 14-6-2.5 3.5.5 2.5 4.5-1.5 3.5-4.5 3.5.5.5 5.5 3.5-1.5 2.5-10.5 5.5.5.5 5.5 17.5 1.5-1.5 4.5h-12l-8 6q-11.5-3-14.5 2.5l2.5 3.5 28.5.5-1 4 30.5 7.5 4.5-3.5 1-3-8.5-17.5-9.5-1.5 2.5-5.5 7.5-5.5 1.5-3.5 4.5-2.5 2-5-2.5-.5-3.5 2.5v-74l3.5-6.5 2.5-.5 2.5-4.5Zm4.5 23 2 6h3l-2-5-3-1Zm-8 5-1 2h1v-2Zm22 1-3 6h5l1-4-3-2Zm-22 46-1 2h1v-2Zm-92 43-1 2h1v-2Zm4 1v6l16-2 1-2-17-2Zm40 4v1h4l-4-1Zm-44 1-1 2h1v-2Zm6 5v1h7l-7-1Zm21 2q-4 8-17 6l-1 6-6 1 3 5 9-1-1-4 24-3 1-2-3-2-3-4-6-2Zm-15 1v1h2l-2-1Zm-51 3-2 3 2-1v-2Zm7 1-1 2-5-1-5 9-1 3-1 4 4 2 2-5-2-1 9-10v-3Zm38 0-1 2h1v-2Zm76 1-6 9 8 15 9-2-11-12 5-9-5-1Zm-114 4-1 2h1v-2Zm69 6-1 2h1v-2Zm-20 2-2 4q4 6 18 2v-5l-16-1Zm-13 6-1 4h2v2h4v-3l-5-3Zm30 3v1h1l-1-1Zm-11 1v1h1l-1-1Zm7 0v1h2l-2-1Zm6 4v1h1l-1-1Zm2 1 6 4h2l-8-4Zm11 4v1h11l-11-1Zm18 4-1 3h1v-3Zm1 3v1h1l-1-1Zm36 24-1 14h1v-14Zm-150 44-1 10h1v-10Zm145 5v1h3l-3-1Zm-3 1v1h1l-1-1Zm8 0v1h1l-1-1Zm-10 1v1h1l-1-1Zm13 1-1 2h1v-2Zm1 2-1 2h1v-2Zm-160 7v1h1l-1-1Zm5 3-4 6 4 6h2l-1-11-1-1Zm15 6v1h1l-1-1Zm-6 6-1 2h1v-2Zm-9 3-1 6h1v-6Zm113 5-1 2h1v-2Zm-116 6-1 2h1v-2Zm112 0-1 2h1v-2Zm-1 2-1 2h1v-2Zm-92 1-1 2h1v-2Zm91 1-1 2h1v-2Zm-1 2-1 2h1v-2Zm-1 2-1 2h1v-2Zm-1 2-1 2h1v-2Zm-149 2v1h1l-1-1Zm3 0v1h2l-2-1Zm145 0-1 2h1v-2Zm-1 2-1 2h1v-2Zm-1 2-1 2h1v-2Zm-1 2-1 2h1v-2Zm-1 2-1 2h1v-2Zm-114 5v1h1l-1-1Zm-37 24-1 2h1v-2Zm-1 2-1 2h1v-2Zm61 2-1 2h1v-2Zm-62 1-1 3h1v-3Zm60 1-1 2h1v-2Zm-79 1v1h3l-3-1Zm78 1-1 7h1v-7Zm-5 6-1 2h1v-2Zm55 0-1 2h1v-2Zm-49 1-1 2h1v-2Zm32 0-1 2h1v-2Zm-39 1-1 2h1v-2Zm-3 2v1h1l-1-1Zm-81 1-1 2h1v-2Zm46 0v1h1l-1-1Zm20 0v1h13l-13-1Zm69 1-1 2h1v-2Zm-39 1 2 3v-1l-2-2Zm-97 1-1 3h1v-3Zm19 0v1h3l-3-1Zm20 0v1h2l-2-1Zm46 0v1h7l-7-1Zm10 1v1h1l-1-1Zm15 2-1 2h1v-2Zm-100 9 2 6 2-1-1-3-3-2Zm-9 14v1h1l-1-1Zm3 1v1h2l-2-1ZM199.5 258l4.5 1.5-2.5 10.5-3.5-.5 1.5-11.5Zm-5 18 3.5.5-2.5 5.5-3.5-.5 2.5-5.5Zm-8 12 11.5 2.5.5 1.5 4 2h53l2.5 2.5.5 2.5 3 1 2.5-1.5 2.5-4.5q6.3 9.2 25 6l20.5 15.5-.5 2.5-15-6-2.5 5.5 6 1 .5 5.5 17.5.5-6 9 12 5 3.5 9.5 2.5.5q3.97 21.47-7.5 27.5l-7 2-5-18-10.5-9.5-1.5-2.5-4.5 1.5-3.5 4.5-2.5.5 10 15-3.5 4.5-1-2-3.5-.5 4-2-1.5-3.5-8.5-1.5-2.5-10.5-15 10q-4.36-5.64-16-4l-13 6-2.5-1.5-1.5-10.5-5.5.5-6 15q8 2 6 14l-2.5.5q-13.33-6.67-16-24h-23q-7.5 10.5-24 12l-.5-15.5 5-6 1-15 12-24-4.5-7.5-1.5-.5 1.5-2.5 2.5-1.5 2.5-5.5 5.5-3.5.5-2.5Zm11.5 12-2 1-10 17 2 5 10 7 7-3 2-3q5-9 22-6l8-6 9 6q16 3 23-2l-1-3-27-13-2 5-3-1-2-2-36-2Zm84 4v1h3l-3-1Zm15 19-1 2h1v-2Zm-51 1-6 3-1 2h-1l-4 5q4 6 17 2l1 4-4 2-2 5 17 1 1-4-6-4 2-4 14 6 2-5-5-1-1-5q-6-10-24-7Zm54 3v1h1l-1-1Zm-26 2-1 2h1v-2Zm-83 9v1h1l-1-1Zm8 0v1h1l-1-1Zm44 3-1 8 2 1-1-2 1-6-1-1Zm-50 1-1 3-4 3-2 5 5 1 1-2 6-4v-5l-5-1Zm98 0-3 6h4l2-5-3-1Zm7 2v1h2l-2-1Zm-30 1-3 6h2l1-2v-4Zm-85 3-1 6h1v-6Zm45 2v1h1l-1-1Zm6 0v1h1l-1-1Zm44 0v1h5l-5-1Zm-32 1v1h2l-2-1Zm17 0v1h2l-2-1Zm-13 1v1h12l-12-1Zm-54 2-1 2h1v-2Zm4 1v1h8l-8-1Zm39 0-1 4h1v-4Zm14 0v1h5l-5-1Zm-29 1-1 2h1v-2Zm25 0v1h2l-2-1Zm11 0 3 2h2l-5-2Zm9 0-2 1-1 2 4-1v-1l-1-1Zm-23 1-6 3v1l8-3-2-1Zm70 3-1 6h1v-6Zm-149 1-1 3h1v-3Zm53 3-1 2h1v-2Zm-1 4-1 2h1v-2Z"/><path fill="#060023" stroke="#060023" stroke-width="3" d="m492.5 288 5.5 3.5-.5 2.5-4.5-3.5-.5-2.5Zm-246 18 5.5 1.5-1.5 4.5-3.5-1.5-.5-4.5Zm-113 1 3.5.5-.5 3.5-3.5-.5.5-3.5Zm-4 11 7.5 1.5-6.5 11.5-4 2-.5-8.5 3.5-6.5Zm442 1 4.5 2.5.5 2.5 5-2 1 2 1.5.5-2 23-3.5 6.5-11.5-.5-3-6-1-23 7-1 1.5-4.5Zm3.5 8v1h2l-2-1Zm3 2-1 17h1v-17Zm-431.5-5 3.5 1.5v14l-7.5 14.5-4.5-2.5-1.5-3.5-10 6-.5-15.5 18-11 2.5-3.5Z"/><path fill="#060023" stroke="#060023" stroke-width="3" d="m109.5 342 5.5 2.5 7.5 15.5 3-1 2 13 10.5-1.5 2.5-10.5 3.5.5v60q7.29 2.71 6 14l-1.5 2.5-4-2-1.5.5-5.5-7.5-3.5-1.5 4-1-1-9 1-2-2-1 2-15-4-2 4-1-2.5-5.5-3.5 2.5 1 3-7 1 .5 5.5 5.5 3.5 2 8-2 1 1 2-6.5 11.5-2-20-10.5.5 1 5-3.5.5-3.5-6.5v-64l1.5-1.5Zm21.5 34v1h3l-3-1Zm9 6-1 3h1v-3Zm-11 9v1h1l-1-1Zm-6 4-1 2h1v-2Zm0 6-1 3h1v-3Zm472.5-58 3.5.5 1 67-5.5 3.5h-2l-2.5-1.5-1.5-3.5-1.5-.5 1-4-1.5-2.5 1.5-.5-1.5-17.5-4.5 1.5.5 16.5 1.5.5-2 5v2q3.25 13.25-3.5 16.5l-1.5.5q.4 14.4-6.5 21.5l-6.5 4.5 2.5 3.5 3.5 2.5-2.5 3.5-2.5 1.5-1 3 2.5 1.5 3.5-2.5-.5 10.5-4-2-.5 4.5 3.5 1.5 1.5-.5-1.5 5.5-4 1-6.5-3.5-.5-20.5-3.5 1.5-2.5 10.5-5.5-.5-.5-5.5-1.5-.5 2.5-5.5 5.5-1.5.5-16.5 5.5-1.5q-3.5-13 2.5-16.5l1.5-.5 2-4v-55l3.5-6.5 8-3 2 15 8.5-6.5 9.5-22.5ZM572 365l-1 3h1v-3Zm-3 3-1 32h1v-32Zm9 44-1 8h1v-8Zm-12 14-1 2h2l-1-2Zm5 2v1h1l-1-1Zm-6 4v12h2l3-11-5-1Zm-8 23-1 2h1v-2Zm-319.5-83 11.5.5-3.5 5.5-10.5-1.5.5-3.5 2-1Zm159 12 3.5 1.5 2 10-5.5.5v-12Zm-232 24 3.5 2.5v25l2.5 2.5 3-1 6.5 26.5 12 23 12 38-3-2-11.5-18.5-3 1-2.5-6.5 2-1-24-66v-21l2.5-2.5Zm8.5 38-1 2h1v-2Zm1 2-1 2h1v-2Zm1 2-1 2h1v-2Zm2 5-1 3h1v-3Zm2 9-1 2h1v-2Zm1 2-1 2h1v-2Zm1 2-1 2h1v-2Zm1 2-1 2h1v-2Zm1 2-1 2h1v-2Zm1 2-1 2h1v-2Zm1 2-1 2h1v-2Zm1 2-1 2h1v-2Zm1 2-1 2h1v-2Zm1 2-1 2h1v-2Zm1 3-1 2h1v-2Zm1 4-1 4h1v-4Zm1 5-1 2h1v-2Zm1 2-1 2h1v-2Zm1 2-1 2h1v-2Zm-18.5-84 5.5 2.5-.5 8.5-5-11Zm6 13 5 10 1-4 2.5 4.5-3 1 5.5 10.5 1-4 2.5 4.5-2 1 23.5 32.5 11.5 8.5 18 32-1.5.5-2-1 3 4 5.5 4.5 1 2-2.5.5q-29.4-22.1-48.5-54.5l-21-42 .5-10.5Zm4.5 10-1 3h1v-3Zm1 3 2 9h1l-3-9Zm4 9-1 2h1v-2Zm1 2 3 10h1l-4-10Zm5 10-1 3h1v-3Zm1 3-1 2h1v-2Zm1 2-1 2h1v-2Zm1 2-1 2h1v-2Zm1 2-1 2h1v-2Zm1 2-1 2h1v-2Zm1 2-1 2h1v-2Zm6 8-1 2h1v-2Zm3 4-1 2h1v-2Zm1 2-1 2h1v-2Zm1 2-1 2h1v-2Zm1 2-1 2h1v-2Z"/><path fill="#060023" stroke="#060023" stroke-width="3" d="m132.5 428 6 8 3.5 1.5 2.5 4.5 10.5 3.5 2.5 16.5 6.5.5-2.5 13.5-3-2q-2.92 7.58-14 7 4.27-36.27-15.5-48.5l3-1 .5-3.5Zm19.5 21-1 8h1v-8Zm-3 13-1 4h1v-4Zm8 3v1h1l-1-1Zm2 5v1h1l-1-1Zm156.5-32 2.5.5q3.21 16.21-5.5 20.5l-6 3-.5-8.5 6-9-3-1 6.5-5.5Zm-195 11 3.5 2.5 5 10-5.5.5-3-13Zm467 5 .5 1.5-3.5 6.5-4.5-.5 3-1 4.5-6.5Zm-54 16 1.5 9.5-1 2v2l-1 2 .5 1.5-2-1-6 12-2.5-.5-1-8 11.5-19.5Zm-2.5 11-1 2h1v-2Zm-7 11-1 3h1v-3Zm-2.5 11 .5 7.5-5.5 10.5-.5-5.5v-2l.5-4.5 1.5-.5-2-1 5.5-4.5Zm-166 79 4.5 1.5 1.5 2.5 3.5 1.5-13.5.5 2.5-3.5 1.5-2.5Zm18 0 3.5 1.5 1.5 2.5 3.5 1.5-8.5.5-1.5-4.5 1.5-1.5Zm-5 6 3.5 1.5-.5 5.5-4-1-1.5 4.5 4.5 1.5h2l18.5.5-1 4 5.5 1.5h2l12.5 5.5-8 1 .5 5.5 3.5 1.5-21.5 24.5-.5-4.5 12-20v-6l-71-3 2.5-4.5 2.5-1.5.5-4.5 5.5-.5-3-5 19-1 1.5-3.5 1 4 11.5-2.5 2.5-3.5Zm-5.5 11-1 2h1v-2Zm3 4v1h1l-1-1Zm18 0v1h1l-1-1Zm-50 1-1 2h1v-2Z"/><path fill="#060023" stroke="#060023" stroke-width="3" d="M420.5 594q15.39-1.89 21.5 5.5l-4 1 3.5 5.5 4.5.5-2 13 2.5 4.5 6.5.5-15 8 2 3-2 1 1 2-8.5 14.5-6 4-2.5.5-1.5 2.5-2-6-11.5-.5 2.5-3.5 13.5-7.5 3-12-3.5-.5-10 6 1.5-2.5 4.5-11.5 2.5-1.5-2-1 1-12-12-4 12.5-9.5Zm4.5 2v1h3l-3-1Zm-5 1v1h1l-1-1Zm12 0v1h1l-1-1Zm-17 3-1 2h1v-2Zm9 9-1 6h1v-6Zm18 0-1 10h1v-10Zm1 10-1 2h1v-2Zm2 4-1 2h1v-2Zm-24 3v1h6l-6-1Zm7 1 1 2v-1l-1-1Zm2 2-1 7h1v-7Zm-6 19-4 5 4 1 2-4-2-2Zm-112.5-48 12.5.5-5.5 9.5-1-4-13.5-.5 7.5-5.5Zm82 42 6.5.5-13.5 5.5v-1l7-5Z"/><path fill="#BA9376" stroke="#BA9376" stroke-width="3" d="m552.5 151 5.5 10.5v49q9.35 8.65 6 30-9.35 8.65-6 30l-5.5 7.5-.5-26.5 6-16-12-3 9.5-10.5 2.5-1.5-1.5-4.5-2.5-1.5-2-5 3.5-5.5 1.5-.5-5-11 .5-41.5Zm-424 47-1.5 2.5 5 7-3 2 2-3-5-6 2.5-2.5Zm117 66 35.5 11.5q-16.29-1.79-21 8l-1.5 4.5-18.5.5-.5 2.5-6.5-3.5 1-4q-14.27.77-20-7l2.5-1.5 17 7h17l1.5-6.5-3.5-4.5-13.5-1.5 10.5-5.5Zm156 0 5.5.5-7 4-1.5 2.5-38 23h-13L308 271.5l10.5-1.5 36 18 38.5-17.5-2-1 10.5-5.5Zm91 17 .5 1.5h-1l.5-1.5Zm-23 1 4.5 1.5-1.5 4.5-4.5-1.5 1.5-4.5Zm82 1 .5 11.5-4.5 7.5-1.5.5-.5 26.5-5.5-11.5 5-11-2.5-.5-3 4-4 2-1.5-8.5 11-7 6.5-13.5Zm-353 3 7 8-7.5-3.5.5-4.5Zm23 2 5.5.5-12.5 5.5 3-4 4-2Zm53 0 12.5 5.5-5.5.5-7-6Zm151 0 7.5.5-1 5v2l-1.5 2.5-6 2 1.5-2.5-.5-3.5-7.5-.5 7.5-5.5Zm24 0 12.5 1.5-1.5 4.5q-15.56-2.06-21 6l-2.5-5.5 13-2-.5-4.5Zm32 0 4.5 1.5-1.5 4.5-4.5-1.5 1.5-4.5Zm-181 10 7 8-1.5.5-.5 1.5-10.5-7.5 5-1 .5-1.5Zm-97 2 2.5.5-6.5 7.5-7 6-.5-2.5 7.5-9.5 4-2Zm26 0 4.5 2.5-.5 4.5-6.5-1.5 2.5-5.5Zm262 0h7l15.5 7.5 2 6-5.5-4.5q-8.28-6.22-25.5-3.5l2.5-3.5 4-2Zm-14 1 2.5.5 1 4-7 2 1 4-5.5.5-1.5-2.5 9.5-8.5Zm-236 5 4.5 1.5 1 4-1.5 2.5-5.5-3.5 1.5-4.5Zm166 0 2.5.5-7.5 11.5-6.5 1.5 1 4-4.5.5q-5.25-2.75.5-5.5l2.5-5.5 1 2 5-8 1 2 5-3Zm-95 4 5.5 3.5-1.5 4.5-4.5-1.5-2-4 2-1 .5-1.5Zm-91 2 5.5.5-15.5 5.5v-1l10-5Zm36 0 6.5 1.5-1.5 4.5-5.5-.5 1-4-.5-1.5Zm236 0 21 6 1.5-.5-1.5 6.5-4.5-1.5-1.5-2.5-15-8Zm61 1 8.5 6.5 3 4-8 2v11l9 17-3 1 .5 5.5 2.5.5-3 5v37l-6 12 5 8-2.5 3.5-6.5-1.5-2-4v-61l1.5.5 4.5-1.5v-17q-8.29-6.71-6-24l2.5-4.5Zm-362 4 16.5 1.5-11.5 5.5-4.5-3.5-.5-3.5Zm398 1 18.5 17.5-17.5-16.5-6 5 5-6Zm-339 6q11.48-1.48 14.5 5.5l-2.5.5-10-4-9 4 3-4 4-2Zm208 0 2.5 6.5-1.5-.5-9.5-.5 8.5-5.5Z"/><path fill="#BA9376" stroke="#BA9376" stroke-width="3" d="M546.5 334q7.83 4.17 5.5 18.5h-1q-6.92-5.92-4.5-18.5Zm36 0 17.5 4.5-.5 4.5-4-1-2 8-1-2-8.5 1.5-7.5 12.5-.5-2.5q8.36-7.64 6.5-25.5Zm-224 2 7.5 1.5-.5 6.5-7-8Zm-17 4 .5 2.5-5.5 10.5-.5-5.5 3.5-6.5 2-1Zm-150 6 1 2 1.5.5-4.5 5.5-3.5-2.5 2.5-3.5 3-2Zm105 2 3.5 2.5 2 3-2.5 1.5-4-1h-2l-1.5-.5 4.5-5.5Zm115 0 4.5.5-8 7 3.5-7.5Zm8 4 .5 2.5-5.5 7.5-.5-2.5 5.5-7.5Zm-140 2 2.5.5-3.5 5.5-2.5 1.5 1 4-7.5.5-2.5-1.5 12.5-10.5Zm27 4 5.5 4.5-1.5 3.5-4 1v-9Zm-109 2 5.5.5-12.5 5.5.5-1.5.5-1.5 6-3Zm28 5-2.5 3.5 8 9-9-8 3.5-4.5Zm351 0 7.5 1.5q-4 9.5-8 3l.5-4.5Zm-325 1 6.5 3.5 4 9-5.5-4.5-12.5-2.5 7.5-5.5Zm36 0 6.5 2.5-7.5 4.5 1.5-2.5-.5-4.5Zm164 0 9.5 5.5 1 2-2.5-1.5-11 1-.5-1.5 3.5-5.5Zm24 0 12.5.5-6.5 4.5-6-5Zm34 0 11.5 3.5 1 4-2.5-1.5-9.5-.5-.5-5.5Zm-211 3 1.5 3.5-3.5 5.5-18 6-2.5-4.5 5.5-3.5 1 2 14.5-5.5 1.5-3.5Zm121 3 14.5.5-2 1 3.5 9.5 13.5 6.5-11.5.5-11.5-9.5-.5-2.5-6 1 .5-3.5-.5-3.5Zm-84 1 .5 15.5-17.5 9.5-.5-2.5 13.5-16.5 1.5-.5 2.5-5.5Zm162 3 .5 2.5-5.5 8.5-11 3v-1l16-13Zm-263 1 11.5 2.5-1.5 4.5-12.5-5.5 2.5-1.5Zm288 2q8.77 8.73 5.5 29.5l-5.5 10.5v-40Zm-120 3 5.5 12.5h-1l-4.5-12.5Zm-145 2 2.5.5-12.5 5.5v-1l10-5Zm134 0 4.5 1.5-1.5 4.5-4.5-1.5 1.5-4.5Zm17 13 3 6 1.5.5q9.26 4.74 7 21l-11.5 3.5v-31Zm-90 9 4.5 3.5 5.5 6.5 3.5 2.5q6.36 5.64 4 20l-6 11 6 1 1.5 9.5 15.5 7.5-5.5.5-22.5-9.5-1-3q9.35-8.65 6-30l-3.5-4.5-8.5-2.5.5-12.5Zm78 1 4 1 1.5-.5-1.5 6.5-4.5-1.5.5-5.5Zm-273 1 2.5 6.5-1.5-.5-4.5 1.5-.5 5.5-4-1-1.5.5-2-6 8-2 3.5-4.5Zm461 0 3.5 2.5-.5 4.5-4-1-1.5.5 2.5-6.5Zm-404 7 6.5 11.5-5-2-1.5-9.5Zm341 6 .5 5.5-9.5 17.5-4 1-.5-1.5 13.5-22.5Zm-210 6 .5 5.5-13.5 29.5q-11.91-2.41-15.5 3.5l-2.5 8.5-16-6h-25q-4.76-7.24-18-6L198 447.5l-7-11 1.5-.5 14.5 13.5 2.5 3.5 24 9h43l23.5-14.5.5-1.5 2.5-1.5 8.5-17.5Zm62 5 4.5 1.5-.5 5.5-4-1-1.5.5 1.5-6.5Zm-217 1q8.42 8.08 5.5 27.5l-3.5 1.5-4-18-12.5-5.5 2.5-3.5 11 3 1-5Zm251 0 4 18 4.5 3.5 6 7-2.5.5-11.5-8.5-6-10 5.5-10.5Zm146 5 4.5 1.5-2.5 4.5-3.5-1.5 1.5-4.5Zm22 1 .5 5.5-5.5 7.5-.5-2.5 5.5-10.5Zm-203 4 4 1 1.5-.5-2.5 6.5-3.5-1.5.5-5.5Zm-245 1-.5 1.5 6 11-5-2-2-9 1.5-1.5Zm420 6 4.5 1.5-2.5 10.5-3.5-1.5 1.5-10.5Zm-56 6 2.5.5-4.5 5.5-21 12h-8l3-4q13.91-.59 20.5-8.5l1.5-2.5 6-3Zm-64 6 24.5 11.5-8.5.5-9.5-6.5-1.5-2.5-5-3Zm-99 5 7.5 4.5-.5 4.5-10.5-7.5 3.5-1.5Zm-8 1 3.5 2.5-.5 6.5-7.5-3.5 4.5-5.5Zm42 0q11.19-2.19 14.5 3.5l1 4-2 1 1-2-4.5-.5-6 11-1.5-3.5 1-2-6-9 2.5-2.5Zm-220 6 2 11 1.5.5-5.5.5-2.5-3.5 5-7-.5-1.5Zm16 0 6.5 5.5-5.5-4.5-9 8 8-9Zm255 0 7.5 3.5 1 2-15.5.5-.5-1.5 7.5-4.5Zm-120 6 2.5.5-8 11q2.29 17.29-6 24v17l17 2-13.5 5.5-9.5-18.5q7.24-4.76 6-18l-6-16 17.5-7.5Zm130 0 24.5 19.5 2 5-7.5 9.5-16 8h-7l-13.5-6.5 3.5-5.5q4.19 7.31 17 6l9.5-7.5 2-5-14.5-23.5Zm131 12 3.5 2.5-2.5-1.5-6 5 5-6Zm-153 1 .5 5.5-6 11 5 2 3 4-7.5 3.5-1-3-5 1-.5-1.5 11.5-22.5Zm-77 2 3 4 8 4 2-5 4.5 2.5-.5 6.5-2.5-1.5-.5-1.5-8.5.5q1.32 12.82-7.5 15.5l-4 2-.5-18.5 3.5-5.5 2.5-.5.5-2.5Zm45 16 5.5 4.5-4.5-3.5-1-1Zm-21 11 5.5 2.5-2.5 3.5-3.5-2.5.5-3.5Zm12 8-4.5 5.5-5.5 10.5-4.5-.5 3.5-10.5 11-5Zm-25 4 1.5.5-1.5 7.5-4.5-2.5 2.5-4.5 2-1Zm-54 15 2.5 14.5-2 1-1.5 5.5-4.5-1.5-1.5-2.5-10.5-3.5 1.5-10.5 6-1 3.5 1.5-5 3 3.5 8.5 2.5-.5 3-11-2-1 4.5-2.5Zm96 9 7.5.5-1 4 5.5 1.5 1-3 4 1 1.5-.5.5 2.5 5-1 .5 1.5-7.5 9.5-5 2 .5-1.5-.5-4.5-5.5.5-.5 1.5-4-2-1 2-1-8-10.5-.5 10.5-5.5Zm-65 5 5.5 3.5 2.5 3.5 1.5.5 3 5-1.5.5-9.5-7.5-1.5-5.5Zm19 7 4.5 1.5-.5 7.5-7.5-3.5 3.5-5.5Zm67 6 3.5 2.5-1.5 3.5-4.5-2.5 2.5-3.5Zm-72 6 3.5 2.5-1.5 3.5-4.5-1.5 2.5-4.5Zm-1 18 4.5 1.5-5 9 .5 1.5-2-6-1.5-.5 3.5-5.5Zm67 0 3.5 1.5-.5 4.5-5.5-2.5 2.5-3.5Zm-3 12 6.5 2.5-5.5 14.5-1-17Zm18 0 6.5 3.5-6.5 15.5-7.5-1.5 7-10-.5-1.5 1.5-.5-.5-5.5Zm-90 1q-3.03 21.53 8.5 28.5l-2.5.5-9.5-7.5-2-11 5.5-10.5Zm108 20-10 11-8 4 .5-1.5-.5-4.5-1.5-.5 9.5-6.5.5 1.5-2 5 2.5.5 9-9Zm-78 3 29.5.5q-12.02 10.48-39.5 5.5v-1l10-5Zm-52 12 4.5 1.5-1.5 4.5-4.5-1.5 1.5-4.5Z"/><path fill="#430233" stroke="#430233" stroke-width="3" d="m192.5 174 7.5 5.5-4.5.5-3-6Zm329 0 6.5 2.5-2.5 3.5-4.5-.5 1-4-.5-1.5Zm-340 12 4.5 1.5-.5 4.5-5.5-1.5 1.5-4.5Zm15 0 7.5 2.5-1.5 3.5-4.5-1.5-1.5-4.5Zm343 6q9.75-2.25 12 3l1-2 4.5 10.5-3 2-1.5 3.5-1-5-11.5-2.5-1-4 1-4-.5-1.5Zm-365 4 4 2 1.5-.5-2.5 6.5-3.5-2.5.5-5.5Zm-16 2 15.5 8.5-1.5 3.5-14 6q-5.75-3.25-2.5-15.5l2.5-2.5Zm40 0 5.5 3.5-.5 57.5-4-1-1.5.5-1.5-42.5-4 1-.5-1.5 3.5-5.5 2.5-.5-2.5-5.5-8 6-1.5-2.5 12.5-9.5Zm340 12 10.5.5-3.5 8.5-7.5-3.5 2-1-1.5-4.5Zm14 1 3 5 2.5 1.5-1.5 4.5-2.5.5-7.5 8.5 5.5-6.5-.5-2.5-4.5-.5 5-3 .5-7.5Zm-384 5 5.5 2.5-.5 3.5-5.5-2.5.5-3.5Zm360 0 3.5.5 2 5-3.5.5-2-6Zm14 6 3.5 1.5-1.5 4.5-4.5-.5 2.5-5.5Zm-386 6q13.75-3.75 17.5 2.5l-2.5 3.5-9.5.5v18l6 12q-3.75 13.75 2.5 17.5l16-1 4 1h2l5.5-2.5-.5-3.5-5 2-1-2-5 1-.5-1.5 2.5-5.5 4-1 4 1h2l5-2 .5 2.5q-7.12 5.88-6.5 19.5l-11-2-4 6-2.5.5-3.5 6.5-2.5 1.5.5 1.5 2.5 1.5 3 7-12 23q2.36 15.36-5.5 20.5l-1.5-13.5 1.5-6.5 5.5-1.5.5-17.5 4 1 1.5-6.5-5-9 5-7-9.5-1.5-2.5 1.5-3-13 3-1-1.5-17.5-4 1v-37Zm390 5 11.5 2.5-6 16v31l-9.5 16.5-8 3-.5-2.5 12-18v-36l-6-11 6.5-1.5Zm-49 29 .5 10.5-6 10 3 5-3 1 3.5 4.5 2 1 1-3 6 3 1.5-.5-2 5 12 4 6 16-3.5 4.5-3 1 .5-1.5q2.14-12.14-3.5-16.5l-21-6-5.5 3.5-1.5 2.5-4.5-1.5-.5-3.5-1.5-.5 14-2-.5-3.5-6.5-1.5 1-4-4.5-1.5-1.5 4.5.5 1.5-6.5-.5-1-6 1-4-4.5-1.5-1.5 4.5v2l-3.5 11.5-2.5-.5-1-6 1-4-36.5-1.5-8.5 5.5 2 1-20 11-8.5 14.5-.5-2.5 9.5-16.5 12.5-7.5.5-1.5 13.5-7.5-.5-2.5-17.5-1.5.5-4.5h42l11-6h13l23-8Zm-90 2 6.5 2.5-2.5 3.5-24.5 11.5-4.5 5.5-11.5 10.5-7.5 14.5-18-7q-10.25-17.75-33-23l-10 5q-11-10-37-5l-1.5 4.5.5 1.5-5.5-.5 6.5-9.5 35-2 10-4 37 22h13l47-30Zm-189 6h28l4.5 3.5 1 7-18.5 1.5-17.5-7.5 2.5-4.5Zm301 6 2.5.5-2.5 5.5-4 2 .5-1.5 3.5-6.5Zm-292 12 17.5 5.5-27.5.5v-1l10-5Z"/><path fill="#430233" stroke="#430233" stroke-width="3" d="m277.5 288 12.5 5.5-2.5.5-10-6Zm-21 6 9.5.5-2.5 4.5-3 1-2.5-1.5-1.5-4.5Zm12 0 12.5 5.5-5.5.5-7-6Zm165 0 4.5 1.5 1 4-1.5 6.5-5.5-.5-.5-5.5-11 6-.5-2.5 12-7 1.5-2.5Zm20 0 4.5.5-7.5 5.5-.5-2.5 3.5-3.5Zm-256 6 5.5.5-6 3q-6.35 3.65-5 15l3.5 4.5 3 1 16-6v1l-7.5 4.5-2.5 3.5-7 3-9.5-7.5-2-5 9.5-16.5 2-1Zm20 0 11.5.5-2.5 5.5-9-6Zm23 0 27.5 12.5 1 3-5.5 2.5.5-1.5-1.5-4.5-11.5-.5 1-4-5.5-1.5h-2l-4.5 1.5 1.5 4.5 2.5.5 1.5 2.5 5.5 2.5-5.5.5-9-6q-4.14 8.36-19 6v-1l16.5-6.5.5-7.5 4 2 2-5Zm52 0 8.5 3.5 1 2-2.5.5-7-6Zm166 6 11.5.5-2 4 .5 1.5-12.5-2.5 2.5-3.5Zm85 0 1.5.5-5 12q7.41 5.09 6 19l-4-3-8-23 1.5.5 8-6Zm29 0 3.5 2.5-.5 12.5-4-2-1.5.5 2.5-13.5Zm-276 6 15 6h2l4-1 6.5 1.5q.08 12.42 8.5 16.5l27-11 16 11 8-5-.5 1.5-8.5 16.5-2.5.5q3.34 18.84-5.5 25.5l-2-38q-18.84-3.34-25.5 5.5-7.17 9.83-3 31l-18 23v23l11 5 1 21-6 12 3.5 4.5 19.5 6.5-11 1-.5 2.5-14.5-7.5 2-1-5.5-.5-8.5 5.5-3.5 15.5-12-3-17.5 7.5 6 23-6 12 8 17-2 1-.5 1.5-5.5-2.5-14-34-23.5-29.5-35-17-8.5-8.5-12.5-24.5-8.5.5-1.5 11.5-4.5-2.5v-25l-2.5-2.5-3.5 2.5v21l24 66-2.5.5q-13.59-12.41-16-36l-6.5-.5 1-18-6-11v-55l5.5-10.5 1 5h6l18-12h10v1L183 371.5l-3 6-.5 38.5-5-2-.5 2.5 5.5 8.5 1-4 5 7 1.5-.5 14.5 23.5 38 17h25l16 6 5-11 14.5-2.5 12-28v-55l-6-10 5.5-2.5 4 13 12.5-7.5 2-22-4-2-4.5-10.5-9.5-2.5 6-9-13-1 1-4-4.5-1.5h-2l-5.5-.5 2.5-5.5ZM316 438l-4 3-6 9 1 12 10-2 1-21-2-1Zm127.5-126 6.5 1.5-1.5 2.5-5 2 .5-1.5-.5-4.5Zm44 0 22.5 9.5 1 2-1.5.5-23.5-8.5 1.5-3.5Zm-343 4 5.5 2.5-.5 6.5-3-1-2.5 1.5.5-9.5Zm263 2 6.5 2.5-2.5 3.5-3.5 2.5-.5 1.5-3 2-2.5-1.5-1.5-2.5-3.5-1.5 11-2-.5-4.5Z"/><path fill="#430233" stroke="#430233" stroke-width="3" d="m245.5 324 5.5.5-11 8 1 3-4.5.5-.5-4.5 1.5-2.5 1.5-.5.5-1.5 6-3Zm210 0 2.5.5-9.5 5.5 3-4 4-2Zm104 0 4.5 1.5-.5 21.5q-7.39-6.11-5.5-21.5l1.5-1.5Zm-97 4 5.5 3.5-1.5 2.5-5 2 .5-1.5.5-6.5Zm-330 1 7.5 1.5-13.5 7.5-.5-4.5 6.5-4.5Zm378 1 5.5.5-5 9 11 12-9.5 2.5-7.5-15.5 5.5-8.5Zm-241 5 6.5 1.5-2.5 5.5-11.5-5.5 7.5-1.5Zm169 0 5.5 2.5-.5 3.5-9 1-2.5-5.5 6.5-1.5Zm-327 1 3.5 7.5-1.5.5-4-2-1.5.5 3.5-6.5Zm140 0 7.5.5-1 3 1.5 2.5-9.5-.5 2-4-.5-1.5Zm-102 4 1 8 2.5.5-8.5 16.5-1-5-5 2-.5-9.5 2.5 1.5 2.5-.5 6.5-13.5Zm141 2 3.5.5-2.5 5.5-3.5-.5 2.5-5.5Zm94 0 5.5.5-2.5 5.5-3.5-2.5.5-3.5Zm32 0 3.5 2.5 2.5 3.5 2.5 1.5 1 3-6.5 3.5.5-1.5-1.5-6.5-6.5-.5 4.5-5.5Zm29 0 5.5.5-1 4 .5 1.5-6.5-2.5 1.5-3.5Zm101 1 5.5 10.5v67l3.5 5.5 4.5.5-2.5 12.5-4-1-1.5 4.5v2l-.5 6.5-4-1-1.5 10.5v2l-8.5 17.5-3.5-2.5q-3-12.5 3.5-15.5l2.5-.5q-1.83-16.33 6-23l.5-95.5Zm-114 5 5.5 2.5-.5 3.5-3.5-.5-.5-1.5-1.5-.5.5-3.5Zm-25 4 .5 2.5-5 11 5.5.5 1.5-.5-5 6 2 1-4 3-1 9 6 11v37l-6 12 11.5 14.5q20.09 2.41 30 15h25l16-8 21-20 8.5-3.5 13.5-33.5.5 11.5q-7 24.5-24.5 38.5L477 473.5l-1.5 2.5-13.5 6.5v31l2.5 2.5 15-8 .5 2.5-13.5 15.5-7 2-7-5q-7.46 8.04-26 5-8.33-8.67-28-6l-2.5 1.5-1-2 2.5-3.5 11-2q4.76 7.24 18 6l21.5-13.5 2-5-10.5-13.5-26-16-5 3-1-3-4.5-.5 5-3-.5-2.5-2.5-.5-9-24v-11l6-12-3-1-3-6 1.5.5 4.5-1.5-1.5-10.5-4 1h-2l-3.5 2.5-1 18-2.5 2.5-3.5-2.5q1.67-15.67-6-22v-21l3.5-2.5 5 18 3.5-.5.5-6.5 4 1 1.5-.5.5 6.5 5.5-.5-3.5-11.5-3 1-4-1-1.5.5 2.5-4.5 7.5-3.5 2-17 5.5-7.5Zm-288 1 5 1h2l2.5.5-2.5 4.5-4 1-3-7Zm176 1 4.5 1.5-2.5 4.5-3.5-2.5 1.5-3.5Zm274 0 9.5.5-2.5 4.5-1-2-6 3 .5-1.5-.5-4.5Zm-288 4 3.5 7.5-7.5.5-1.5-4.5 5.5-3.5Z"/><path fill="#430233" stroke="#430233" stroke-width="3" d="m432.5 358 5.5 2.5 2 5-5.5.5-2-8Zm78 2q11.81-.31 15.5 7.5l2 21h-1l-8.5-21.5-8.5-4.5.5-2.5Zm-221 11 .5 2.5-1.5 4.5-1-5-3 5-2.5-.5 1.5-3.5 6-3Zm125 0 5.5 2.5-3 4 2 1-9.5 4.5-.5-1.5 5-8 .5-2.5Zm-165 1 12.5 7.5 1 2q-8.29 10.71-29.5 8.5l-7.5-5.5 2-1 .5-7.5 4.5 3.5.5 1.5 11 3 1.5-4.5 1-3 2.5-4.5Zm3.5 6-1 6h5l1-4-5-2Zm200.5-6 8.5 2.5-2.5 3.5-9.5 1.5 1.5 4.5q16.74 1.74 24-6l-3 4-10.5 3.5 1 4-13.5.5-16.5-9.5-1-4 8.5 7.5 3.5-.5.5-3.5 9-8Zm44 3-9 10q-3.96 6.54-16 5l3-4 13-2 9-9Zm-363 15 3.5 2.5-.5 3.5-5.5-1.5 2.5-4.5Zm429 13 .5 18.5-4-3-2-5 5.5-10.5Zm-431 4 4 1 1.5-.5-2.5 6.5-3.5-2.5.5-4.5Zm-18 1 7.5.5-3.5 5.5-4.5-1.5.5-4.5Zm30 7 5.5 12.5-4-3-1.5-9.5Zm230 11 3.5 2.5-.5 4.5-4-1-1.5.5 2.5-6.5Zm-247 6 8.5 7.5 8 21h-1l-8.5-16.5-8 1-.5-11.5 1.5-1.5Zm449 0 5.5 1.5-5.5 9.5-1.5-4.5 1.5-6.5Zm17 4 .5 2.5-5.5 10.5-1-2-2 3 1.5.5-4.5 2.5-.5-5.5 11.5-11.5Zm-29 1 4 1 1.5-.5-3.5 6.5-1.5-.5-.5-6.5Zm-198 4 4.5 2.5-2 1 2.5 4.5 1.5.5-3.5 12.5-6.5-.5q5.87-6.13 3.5-20.5Zm203 7 1.5.5-1 6 6 5 1.5 2.5 7.5.5-5.5 11.5-3.5-2.5-1.5-9.5-4.5 1.5-3.5 4.5-2.5-1.5 2.5-4.5 3.5-2.5-2.5-3.5-1.5-.5-2-3 5.5-4.5Zm-443 3 5 8 1-2 7 11 4-1 .5 7.5-1.5-.5-8.5-1.5-8-14 .5-7.5Zm255 5 1.5.5 1 11-2.5.5-3.5-6.5 3.5-5.5Zm174 6 2.5.5-.5 19.5-7-8 1.5-.5 3.5-11.5Zm-410 18 6.5.5-7.5 4.5-.5-3.5 1.5-1.5Zm214 5 2.5 1.5-2 4 2 1-13.5.5-.5-2.5 11.5-4.5Zm172 1 2.5 1.5-18 58-13 27-53.5 60.5-9 3-2.5-3.5 15-8-2-1 8-5q3.96-25.54 19.5-39.5l1.5-.5v-5l34-41 8-22 .5-12.5 5.5-2.5 3.5-9.5Zm-130 4 .5 2.5-11.5 22.5-1-2q-2.75 5.75-5.5.5l11.5-18.5 6-5Zm-82 2 11.5 3.5 1.5 2.5 4.5.5-1.5 4.5-9.5-5.5-1.5-2.5-5-3Zm23 10 5.5 9.5-4-3-1.5-6.5Zm-154 2 3.5 2.5 25.5 43.5q17.09 1.41 24.5 12.5l.5 1.5 1.5-.5 2.5-3.5 5.5-4.5 5.5-8.5 1 2 3-3h19v1l-16.5 6.5 1.5 10.5 10.5 3.5 1.5 2.5 4.5-1.5.5-4.5 7.5 5.5-2 1q-3.75 13.75 2.5 17.5l15.5-.5.5-6.5 5 1h2l4-1 2.5 1.5-2 5 5.5.5h2l4-1 2 7 4.5 3.5-.5 2.5-6 1-4-1h-14l-18 12q-8-8.5-27-6-5.25 2.75.5 5.5l27.5 30.5 8.5 5.5 2 4-1.5 2.5 1.5.5-11 6-.5 1.5q-32.26-21.24-56.5-50.5l-31-43-20-53v-9l2.5-2.5ZM296 648l-2 5 5 1 1-4-4-2Zm75.5-138 6.5 2.5q1.94 11.44-3.5 15.5l-7.5-.5 8-5 1-5-4.5-7.5Zm-38 12 7.5 5.5-15.5.5v-1l8-5Zm26 10 1 2h21l2.5 2.5-2.5 3.5-4 1-16-1-1.5 4.5.5 1.5-4.5.5-2.5 3.5-5 2-.5-2.5 11.5-17.5Zm-29 6 1 2 9.5 5.5-8.5.5-2-8Zm116 2 3.5.5-1.5 5.5-4.5-1.5 2.5-4.5Zm-75 18 5.5.5-12.5 5.5 3-4 4-2Zm42 6 2.5.5-8 7 3.5-6.5 2-1Zm16 0 2.5.5-1.5 5.5-4.5-.5 3.5-5.5Zm34 0 4.5 1.5-1.5 4.5-4.5-1.5 1.5-4.5Zm-107 6 3.5 2.5 3.5 8.5 9.5 1.5-1 4-.5 2.5-3-1-2.5 1.5-1.5-2.5-4.5-2.5-1.5-2.5-4.5 1.5-3.5 4.5-2.5-1.5-2-4 6-2 4.5-10.5Zm23 0 4.5 3.5 1.5 2.5 6-1 .5 1.5-2 4 .5 1.5-6 1-5-13Zm59 30 17.5 1.5-1.5 4.5-14.5-1.5-1.5-4.5Z"/><path fill="#430233" stroke="#430233" stroke-width="3" d="m309.5 618 5.5.5-3 12 7.5 9.5 21.5 2.5-11.5 5.5-23.5-8.5-5-13 8.5-8.5Zm96 0 1.5 2.5h-1l-.5-2.5Zm-16 7 1.5 4.5-4.5 6.5-19 6v-1l19.5-10.5 2.5-5.5Zm36 9 .5 2.5-3.5 6.5-14.5 8.5-1.5 2.5-4.5-1.5.5-5.5 6 1 17-14Zm-24 2 2.5.5-9.5 5.5 3-4 4-2Zm22 12 2.5 1.5-2.5 4.5-3.5-1.5 3.5-4.5Z"/><path fill="#D9D4AF" stroke="#D9D4AF" stroke-width="3" d="m558.5 169 5.5 10.5q-4.5 22.5 4.5 31.5l1.5.5v23l-6 11v25q-9.83 10.67-6 35l9.5 12.5 2-1 .5 4.5-2.5 2.5-12-12-1.5 1.5-2 17q8.82 7.68 6 27l-3.5 2.5q-6.5-4-2.5-18.5l-6-9v-29l6-9q-3-18 6-24-3.56-21.06 6-29v-20l-6-11 .5-41.5Zm-310 89 16.5 6.5-1 4 .5 1.5-20-6-11 6 .5-1.5-2-4q12.54 1.04 16.5-6.5Zm60 6 8.5 5.5-10.5 2.5-.5-5.5 2.5-2.5Zm82 5-2 5-12 2-23 12-33.5-17.5 11.5-.5 23 12h6l30-13Zm-184 7q10.77-1.27 13.5 5.5l-15.5.5-.5-3.5 2.5-2.5Zm21 6 6.5 2.5-2.5 3.5-4.5-.5 1-4-.5-1.5Zm-25 6 18.5.5-13.5 5.5-5-6Zm38 0 7.5 5.5-1.5.5-6.5-3.5.5-2.5Zm194 0 3.5 1.5 1 4-6.5.5-.5-3.5 2.5-2.5Zm11 0 4.5 2.5-2.5 3.5-4.5-.5 2.5-5.5Zm-165 5 19.5 4.5-.5 2.5q-16.75 3.75-20.5-5.5l1.5-1.5Zm-73 7 14.5 3.5 1 2q-13.08-1.58-19 4l.5 2.5 16.5.5q-7.75 8.25-26.5 5.5l-2.5-2.5 15.5-15.5Zm194 4 1 2 4.5.5-4.5 2.5-1-2-5 7-.5-1.5 5.5-8.5Zm-172 2 4.5 2.5-2.5 3.5-8.5-.5 5-3 1.5-2.5Zm77 0 5.5 3.5-.5 2.5-5.5-3.5.5-2.5Zm170 0h28l11.5 9.5-6.5 2.5-11-6h-22l-2.5-2.5 2.5-3.5Zm-230 6 11.5 2.5-2.5 3.5-9.5-3.5.5-2.5Zm188 0 9.5 2.5-2.5 3.5-9.5-2.5 2.5-3.5Zm-132 6 3.5 2.5-2.5 3.5-3.5-2.5 2.5-3.5Zm96 0 3.5 1.5 1 4-4.5.5-2.5-3.5 2.5-2.5Zm9 2 .5 1.5h-1l.5-1.5Zm-154 6 16.5 6.5-2.5 3.5q-3.6-7.4-16-6l-5.5 3.5 1 2-4.5.5q-5.5-3 1-6l10-4Zm187 4 4.5.5-1 4 .5 1.5-6.5-2.5 2.5-3.5Zm-92 6q15.5-2 17.5 9.5l-.5 5.5-15-14-7.5 4.5 2 1-3 5v111q5.73 6.27 20 4l-8.5 5.5-17.5-9.5-.5-8.5-5.5-.5q8.29-6.71 6-24l-18-21v-5q5.38-9.12 18-11-5.42-33.42 6.5-49.5l6-3Zm-118 18 3.5 2.5-.5 5.5-3.5-.5-2 9 7 2-1.5 5.5-10.5-8.5 7.5-15.5Zm70 0 5.5 3.5-.5 3.5-6.5-1.5 1.5-5.5Zm128 0 3.5 2.5-.5 5.5-2-1-3 2-.5-6.5 2.5-2.5Zm153 1 1 5 3.5-1.5 1.5-3.5.5 4.5-3.5 6.5-8.5-2.5 5.5-8.5Zm-378 5 .5 2.5-16 11-7 20 9 29 20.5 24.5 28.5 14.5-5.5.5q-7.52-7.48-22-8l-19-19-1.5.5q-17.19-16.81-11-57l9.5-12.5 14-6Zm52 6 14.5 6.5-5.5 14.5-11 3v-1l9.5-6.5-7.5-16.5Zm192 0 3.5.5-4 5 .5 1.5-8 4-2-3-3.5-1.5 8-2 1.5-3.5 1 2 3-3Zm61 1v3l-6 2 2-3 4-2Z"/><path fill="#D9D4AF" stroke="#D9D4AF" stroke-width="3" d="m365.5 369 .5 23.5-3-2-3-13 5.5-8.5Zm-78 1-2 3-9 6-.5-4.5 11.5-4.5Zm19 1 2.5 1.5 3 6v48L300.5 446l-.5-2.5 6-11 .5-61.5Zm155 0 6.5 4.5.5 2.5 3.5.5-12.5 5.5 2.5-3.5-1-3 1-4-.5-2.5Zm-53 1-.5 1.5.5 4.5 1.5.5-2 4 1 3 2.5 4.5 2.5.5-.5 13.5-11.5-25.5 2.5-4.5 4-2Zm105 0 8.5 3.5v45l-15 23 .5 1.5-29 21-25 8-21-12h-9L410 448.5l-2-19 12-5-1-12 5 2 2.5 11.5 10.5 8.5-.5 1.5-7 1-7-4-8.5 11.5 2.5 3.5 34 14h11l42-21 10.5-10.5 2-34-5-10 5-3-1.5-9.5-1.5-.5.5-1.5Zm-297 4 7 8-7.5-2.5.5-5.5Z"/><path fill="#D9D4AF" stroke="#D9D4AF" stroke-width="3" d="m420.5 378 5.5.5 5.5 8.5 6 3h49l8.5-5.5 2.5-5.5 1 5 5.5.5-.5 2.5-33 14q-9.39-9.11-32-5l-19-12-9.5-.5 10.5-5.5Z"/><path fill="#D9D4AF" stroke="#D9D4AF" stroke-width="3" d="m452.5 378 6.5.5-3 4 .5 1.5-6.5-2.5 2.5-3.5Zm-324 18 3.5 2.5-.5 3.5-5.5-2.5 2.5-3.5Zm270 6 3.5 2.5-2.5 3.5-3.5-2.5 2.5-3.5Zm-276 12 3.5 2.5-.5 4.5-5.5-2.5 2.5-4.5Zm252 24 3.5 2.5-2.5 3.5-3.5-2.5 2.5-3.5Zm-87 12 8.5.5-22.5 11.5 9-10 5-2Zm-149 2 5.5 10.5-1.5-.5-4.5.5-.5 1.5-6.5-9.5 1.5-.5 5 2 1-4Zm-14 10 4.5.5 9 15q-4.5 7-9-4l-4.5-11.5Zm194 0 3.5.5-13.5 11.5-.5-2.5 4.5-6.5 6-3Zm6 4 3.5 1.5-3 1 7 5-4.5.5-3-5-1.5-.5 1.5-2.5Zm48 8 4.5 1.5-4.5 6.5-1-2-1.5-.5 2.5-5.5Zm-75 6 2.5 1.5-8.5 16.5-3.5-1.5q.61-12.39 9.5-16.5Zm116 0q10.25-2.25 12.5 3.5l12 21-7.5 9.5-11 2-10-6-4 5-9.5-5.5 7.5-17.5 3.5 2.5 1.5 9.5 13 5 2.5-1.5 2-9-9.5-12.5-3.5-.5 1-4-.5-1.5Zm-48 2 2.5 4.5-6.5 4.5 2.5-5.5 1.5-3.5Zm-49 10 7.5 3.5-.5 2.5-3.5 1.5-3.5 22.5-7.5-5.5-2-4 5.5-14.5 5.5-1.5-1.5-4.5Zm14 12 8.5.5-2.5 3.5-1.5-.5-8 14 2 1-13.5 5.5 4-7 8.5-5.5 2.5-11.5Zm-43 1 .5 24.5-3.5 4.5q-6.5-4-2.5-18.5l5.5-10.5Zm85 9 3.5 5.5-3.5 4.5v-10Zm20 2 3.5.5-2.5 5.5-3.5-2.5 2.5-3.5Zm-27 6 .5 2.5-5 3 3 1-3.5 1.5-.5-4.5 5.5-3.5Zm-60 6 5.5.5q-3.62 6.88-15.5 5.5v-1l10-5Zm42 5 2.5 1.5-5.5 11.5-8.5-3.5.5-5.5 5 3 2-4 3.5-1.5.5-1.5Zm-65 13 1.5.5-7.5 5.5-.5-2.5 6.5-3.5Zm32 12 5.5.5-2.5 7.5-5.5-4.5 2.5-3.5Zm20 0 11.5 5.5-4.5.5-7-6Zm64 0 3.5 2.5-2.5 3.5-3.5-.5 2.5-5.5Zm26 1-4 7-1-2-1.5-.5 6.5-4.5Zm-67 5 2.5 6.5-1.5-.5-4 1-.5-3.5 3.5-3.5Zm-25 1 3.5 2.5-.5 3.5-4-1-5 6-4.5-5.5 10.5-5.5Zm81 3 1 2 1.5.5-6.5 4.5 4-7Zm-29 2 5.5.5-2.5 5.5-3.5-2.5.5-3.5Zm-6 2 5.5 13.5-2.5.5-3.5-1.5-1.5-2.5-5.5-.5 1.5-5.5 5.5-.5.5-3.5Zm26 40 3.5 2.5-.5 3.5-5.5-2.5 2.5-3.5Zm-15 3 .5 6.5-5.5 2.5-.5-2.5 3.5-5.5 2-1Zm-71 12q6.23 12.77 28.5 9.5-5.45 7.05-19.5 5.5-8.87-4.37-9-15Zm81 3 8.5 2.5-2.5 3.5-9 2-1-2-1.5-.5 5.5-5.5Zm24 0 2.5 2.5-9.5 9.5-2.5-.5 3-5-.5-1.5 7-5Zm-19 12 3.5.5-2.5 5.5-3.5-2.5 2.5-3.5Z"/><path fill="#E3F3DF" stroke="#E3F3DF" stroke-width="3" d="m134.5 213 1.5 44.5h-1l-2-42 1.5-2.5Zm301 41 6.5 1.5 4 8-14.5.5-10.5-5.5 14.5-4.5Zm-135 5 1.5.5-1.5.5v-1Zm-34 1 31.5.5-31.5.5v-1Zm39 0 1.5.5-1.5.5v-1Zm-51 82 3.5 2.5-2.5 3.5-3.5-2.5 2.5-3.5Zm226 29 5.5 1.5-.5 2.5-6 3 .5-1.5.5-5.5Zm103 49 4.5 1.5-.5 1.5-1-2-3.5.5-.5 1.5-.5-1.5 1.5-1.5Zm-474 3 .5 8.5h-1l.5-8.5Zm473 6 1 2 3.5-.5.5-1.5.5 1.5-4.5 1.5-1-3Zm-472 4 4.5 7.5-1.5.5-3-8Zm5 9 .5 1.5h-1l.5-1.5Z"/><path fill="#070C23" stroke="#070C23" stroke-width="3" d="m186.5 173 2.5 1.5-1.5-.5-1-1Zm361 11 .5 4.5h-1l.5-4.5Zm-27 37 .5 1.5h-1l.5-1.5Zm0 47 .5 1.5h-1l.5-1.5Zm-239 36 3.5.5-3.5.5v-1Zm-147 2 1.5.5-1.5.5v-1Zm-2 2 .5 1.5h-1l.5-1.5Zm5 0 .5 1.5h-1l.5-1.5Zm-3 3 1.5.5-1.5.5v-1Zm294 0 .5 1.5h-1l.5-1.5Zm44 5 4.5.5-4.5.5v-1Zm-44 1 .5 1.5h-1l.5-1.5Zm6 5 7.5.5-7.5.5v-1Zm-138 1 .5 1.5h-1l.5-1.5Zm144 2 2.5.5-2.5.5v-1Zm-141 2 1.5.5-1.5.5v-1Zm275 0 2.5.5-2.5.5v-1Zm-301 2 .5 1.5h-1l.5-1.5Zm161 0 .5 1.5h-1l.5-1.5Zm143 0 .5 16.5h-1l.5-16.5Zm-387 9 1.5.5-3.5 2.5 2-3Zm8 0 2.5 1.5-1.5-.5-1-1Zm43 2 2.5 1.5-1 6 2.5 3.5 2.5.5-2.5.5-4-12Zm224 0 .5 1.5h-1l.5-1.5Zm131 2 1.5.5-1.5.5v-1Zm-299 2 2.5.5-2.5.5v-1Zm-30 1 .5 3.5-1.5 2.5-17 2v-1l16.5-2.5 1.5-4.5Zm-85 3 .5 5.5h-1l.5-5.5Zm45 2 1.5.5-1.5.5v-1Zm6 0 1.5.5-1.5.5v-1Zm44 0 5.5.5-5.5.5v-1Zm187 0-1 2-1.5-.5 2.5-1.5Zm-13 2 1.5.5-1.5.5v-1Zm7 0 2.5.5-2.5.5v-1Zm-263 2 .5 1.5h-1l.5-1.5Zm76 0-1.5 2.5-.5 1.5-4 1-6.5-2.5 3.5-.5 3 2 6-4Zm-72 1 8.5.5-8.5.5v-1Zm39 0 .5 3.5h-1l.5-3.5Zm14 0 5.5.5-5.5.5v-1Zm196 0 14.5.5q-12.62-2.62-16 4l2 1-4.5 2.5-1-4-3 1 1-2 7-3Zm-225 1 .5 1.5h-1l.5-1.5Zm25 0 2.5.5-11.5 4.5v-1l9-4Zm216 0 10.5 4.5-2.5.5-8-5Zm-149 4 .5 5.5h-1l.5-5.5Zm-149 1 .5 2.5h-1l.5-2.5Zm311 0 11.5.5-11.5.5v-1Zm-256 1-1.5 2.5-.5 1.5-.5-1.5 2.5-2.5Zm274 3 1 3 4-3-3 4-2.5-1.5.5-2.5Zm76 0 .5 2.5h-1l.5-2.5Zm-353 3 .5 1.5-1.5.5 1-2Zm350 0 .5 31.5h-1l.5-31.5Zm-334 6 .5 1.5h-1l.5-1.5Zm-104 2 3.5.5-3.5.5v-1Zm9 6 .5 2.5h-1l.5-2.5Zm-11 9 1.5.5-1.5.5v-1Zm404 1 .5 13.5h-1l.5-13.5Zm-410 3 .5 1.5h-1l.5-1.5Zm0 6 .5 2.5-2 1 1.5-3.5Zm455 11 .5 7.5h-1l.5-7.5Zm-12 14 1 2-1.5-.5.5-1.5Zm5 2 3.5 2.5-2.5-1.5-1-1Zm-188 8 .5 9.5h-1l.5-9.5Zm-232 12 1.5 8.5h-1l-.5-8.5Zm226 5 1.5.5-1.5.5v-1Zm180 2 .5 1.5h-1l.5-1.5Zm-408 7 .5 3.5h-1l.5-3.5Zm8 3 1.5.5-1.5.5v-1Zm2 5 1.5.5-1.5.5v-1Zm223 1 .5 5.5h-1l.5-5.5Zm-2 10-.5 1.5-9.5 10.5 8.5-9.5 1.5-2.5Zm18 4 .5 1.5h-1l.5-1.5Zm-61 9 1.5.5-1.5.5v-1Zm3 0 2.5.5-2.5.5v-1Zm27 13 1.5.5-1.5.5v-1Zm-19 23 .5 1.5h-1l.5-1.5Zm-18 1 .5 1.5-1.5 2.5-.5-1.5 1.5-2.5Zm-2 5 .5 2.5h-1l.5-2.5Zm60 1 .5 1.5-1 7 5.5 6.5 2.5 1.5-1.5 2.5-6.5-8.5-1-8 1.5-2.5Zm-79 1 3.5.5-3.5.5v-1Zm73 7 .5 1.5-1.5 2.5-3 1v-1l3.5-2.5.5-1.5Zm-85 5 .5 1.5h-1l.5-1.5Zm46 0 1.5.5-1.5.5v-1Zm20 0 13.5.5-13.5.5v-1Zm-67 3 12 14 1.5-.5 2 4h-3L295.5 553Zm19 0 3.5.5-3.5.5v-1Zm20 0 2.5.5-2.5.5v-1Zm46 0 7.5.5-7.5.5v-1Zm10 1 1.5.5-1.5.5v-1Zm16 1-.5 1.5-.5 1.5-.5-1.5 1.5-1.5Zm-110 24 1.5.5-1.5.5v-1Zm3 1 2.5.5-2.5.5v-1Zm63 19 1.5 2.5-2-1 .5-1.5Zm3 4 1.5.5-1.5.5v-1Zm-32 1 .5 1.5h-1l.5-1.5Zm87 22 8.5 1.5 1 8h-1l-2.5-8.5-6-1Z"/><path fill="#0BF1B1" stroke="#0BF1B1" stroke-width="3" d="m256.5 360 11.5 5.5-4.5.5-7-6Zm197 0 3.5.5-1.5 5.5-10.5-.5 8.5-5.5Z"/><path fill="#16CA2C" stroke="#16CA2C" stroke-width="3" d="m449.5 360 2.5.5-11.5 5.5 1-2 8-4Z"/><path fill="#80F5C7" stroke="#80F5C7" stroke-width="3" d="m224.5 198-1.5 2.5 2 3-3-2 2.5-3.5Zm234 162 3.5 2.5.5 1.5 3.5 1.5-8.5.5-1.5-3.5 2.5-2.5Z"/><path fill="#9E0023" stroke="#9E0023" stroke-width="3" d="m584.5 384 3.5 2.5-.5 15.5-5.5-.5q-3.75-13.75 2.5-17.5Z"/><path fill="#083BD4" stroke="#083BD4" stroke-width="3" d="m115.5 420 4.5 1.5-1.5 10.5-4.5-1.5 1.5-10.5Zm10 13 .5 5.5-3.5 5.5-2 1-.5-1.5 5.5-10.5Zm174 101 2.5.5-8.5 12.5-12.5-1.5 1.5-5.5 17-6Zm56 116 21.5 9.5-33.5.5-1.5-4.5 13.5-5.5Zm23 10 7.5 5.5-2.5.5-5.5-3.5.5-2.5Zm-72 6 11.5.5-1.5 3.5-5 2-5.5-3.5.5-2.5Z"/><path fill="#F1F5AC" stroke="#F1F5AC" stroke-width="3" d="m133.5 427 7.5 5.5 2 4-1.5-.5-6.5-4.5-1.5-4.5Z"/><path fill="#2E00D7" stroke="#2E00D7" stroke-width="3" d="m343.5 474 12.5 5.5-2.5.5-10-6Zm42 48 4.5 1.5-.5 4.5-5.5-1.5 1.5-4.5Zm9 60 7.5.5-3.5 5.5-2.5-1.5-1.5-4.5Zm-5 5 .5 9.5q-3.5 7-17.5 3.5l-.5-11.5 1.5.5 7 5 9-7Zm-58 1 4.5.5 2 5-5.5.5-2.5-4.5 1.5-1.5Zm65 12 5.5 1.5-3.5 4.5-2-6Zm12 6 11.5 2.5-2.5 9.5-9-12Zm-15 42 2.5.5 2 5-12.5.5v-1l8-5Zm-85 6 6.5.5-5 4-4 6v2l-.5 1.5-5.5-3.5 2-4-.5-1.5 7-5Z"/><path fill="#F119DC" stroke="#F119DC" stroke-width="3" d="m509.5 152 .5 1.5h-1l.5-1.5Zm-162 328 6.5 3.5-1.5 2.5-5.5-.5 1-4-.5-1.5Z"/><path fill="#CFB9C9" stroke="#CFB9C9" stroke-width="3" d="m234.5 80-12 13-1-2 13-11Zm353 231 .5 1.5h-1l.5-1.5Zm-174 40-5 6-1-2 6-4Zm150 146 1.5.5-1.5.5v-1Zm-162 15 4 3 2.5-1.5-3.5 2.5-3-4Zm-90 16 10.5.5q-5.13 6.88-18.5 5.5l2-3 6-3Zm-37 22 1.5.5.5 1.5 2.5.5-3.5 11.5-5.5-3.5 1.5-6.5 3.5-1.5-3-1 2.5-1.5Zm94 44 3.5 2.5-2.5 3.5-3.5-2.5 2.5-3.5Z"/><path fill="#7C01D1" stroke="#7C01D1" stroke-width="3" d="m176.5 167 3.5 4.5-2 1 1-2-2.5-3.5Zm2 16 .5 1.5-2 1 1.5-2.5Zm-8 3-1.5 2.5 2 3-3-2 2.5-3.5Zm354 0 2.5 1.5-1.5-.5-3 2 2-3Zm-349 1-.5 1.5 1 2-2-1 1.5-2.5Zm349 5 3.5 2.5-2.5-1.5-3 2 2-3Zm-351 105-4.5 5.5 2 3-3-2 5.5-6.5Zm225 231 3.5 2.5q-3 6.5-6 1l2.5-3.5Zm27 34 .5 2.5-3.5 5.5-4.5-.5 7.5-7.5Zm-117 14 3.5.5-.5 5.5-5.5-2.5 2.5-3.5Zm13 6 2.5.5-.5 5.5-5.5-.5 3.5-5.5Zm65 0 3.5 2.5-1.5 3.5-5.5-.5 3.5-5.5Zm-29 6 8.5.5-1.5 3.5-10 2-.5-2.5 3.5-3.5Zm-52 66 2.5.5-7.5 5.5-.5-2.5 5.5-3.5Z"/><path fill="#F1E6AC" stroke="#F1E6AC" stroke-width="3" d="m321.5 606 2.5.5 1 5-6.5 1.5.5-1.5 2.5-5.5Z"/><path fill="#0600D3" stroke="#0600D3" stroke-width="3" d="m317.5 610 .5 1.5-3.5 6.5-4.5-.5 3-1 4.5-6.5Zm30 38 24.5.5.5 2.5q8.17 6.33 26 3l9.5 6.5-1.5 3.5-20 2-8-6-1 3-4.5-2.5 4-1-21.5-9.5-13.5 5.5 1 4-24.5 8.5-1-2-11.5-1.5 5.5-7.5q6.5-7.5 25-3l11-6Z"/></svg>