<svg viewBox="0 0 1476 510" xmlns="http://www.w3.org/2000/svg"><path fill="#04063E" stroke="#04063E" stroke-width="3" d="M564.5 0 619 1.5 630.5 18l1.5.5-1 2 1.5 20.5 1-17 2.5 2.5 1 30-1 2h2l-.5 1.5 4.5 2.5-1 26 115 2-2.5 5.5-108.5-.5 1-2-3-2-.5 2.5-2-4-2.5-.5-4.5-5.5-17 1-1.5-3.5 1-12q-8.57-8.43-5-29l5.5-2.5 4.5 3.5 2.5 3.5 1.5-.5.5-1.5 1.5-.5 2-8L613.5 8q-16.03 2.03-21-7h-17L567 3.5l6.5.5 16-2 5.5 3.5-32.5.5 1.5-2.5.5-3.5ZM634 46l-1 7h1v-7Zm1 7-1 2h1v-2Zm4 8-1 3h1v-3Zm1 24-1 2h1v-2Z"/><path fill="#04063E" stroke="#04063E" stroke-width="3" d="m654.5 18 13 1 4-1 .5 2.5h-2l2 9-4 2-5.5 15.5-1-2 1.5-.5-5-2-.5-1.5-3.5-1.5 1-3-4.5-8.5-2.5-.5.5-3.5 1.5-.5 1-2-.5-1.5h2l1.5-.5.5-1.5Zm-4.5 7-1 3h1v-3Zm21 2-1 2h1v-2Zm-15 11-1 2h1v-2Zm34.5-20 19 1 4-1 .5 6.5-3.5 5.5-7-1-3-1-6.5-4.5-.5-1.5-3.5-1.5.5-2.5Zm20.5 2-1 3h1v-3Zm-1 4-1 3h1v-3Zm46.5-1q50.49 9.51 75.5 44.5l2 5-6 10 .5 1.5-2-1-.5 1.5.5 1.5-3.5-2.5-.5-1.5q-8.17-6.33-26-3L786 85.5q-6.36 6.64-5 21l6.5 8.5 9 3 5-10 6 1 8-2 8 4 257 1 10 5h51l11.5-4.5 4.5-14.5 1.5 7.5h-1l-.5-5.5-.5 8.5h2l4 8-5.5 3.5h-2l-64-1-5-3-1.5.5-.5-1.5-2 1-2.5-1.5-.5-1.5-259-1v1l1.5.5-2.5.5-7-5-1.5 2.5 3 1 4.5 6.5 3.5 2.5.5 2.5 1-3 3.5 1.5-.5 1.5-6 2h-2l-27.5-2.5-6.5-7.5-3-1 .5 1.5 8 10-8-7-1.5-3.5-7.5-2.5 1-5-125.5-1.5-1 2-5 2-1.5-2.5 6.5-2.5h124l5.5-4.5-3.5-9.5-5.5-3.5 1-3-.5-1.5 10 1 12.5-7.5q7.5-3 6-15l-5.5-6.5-7-3h-42l-4 1-.5-9.5 2.5-1.5 1 3 2-6h4l1.5-.5-1.5-2.5-4 2-2-6-3 6-.5-5.5 4.5-3.5 9 1 4.5-1.5.5-6.5ZM784 36l7 4h1l-8-4Zm-14 1-4 5 2 4 25 1v-3q-7-9-23-7Zm-29 10-1 4h1v-4Zm1 4-1 2h1v-2Zm75 59v1h1l-1-1Zm2 1v1h1l-1-1ZM612.5 67l1.5 11.5-1.5 4.5V67Z"/><path fill="#04063E" stroke="#04063E" stroke-width="3" d="m1091.5 78 3.5.5-3.5 4.5 1.5.5-9 3 .5 1.5 1.5.5-4.5 1.5-1.5-3.5 1.5-3.5 10-5Zm-734 3 10.5 1.5-13.5 3.5-.5-1.5 2-1 1.5-2.5Zm825 1 5.5 3.5 2.5 4.5 3.5 1.5-1 14 1 2-2 1 .5 1.5-1.5.5v2l-6.5 7.5-2.5-.5 3.5-5.5 2 1-.5-1.5 1-20-3.5-5.5-8.5-3.5.5-1.5 5 1 1-2Zm-730 1 1.5.5-1.5.5v-1Zm713 0 4.5.5-1.5 2.5-8 4-.5-3.5 5.5-3.5Z"/><path fill="#04063E" stroke="#04063E" stroke-width="3" d="m359.5 84 91.5.5-91.5.5v-1Zm813 0 1.5.5-1.5.5v-1Zm-406 1 .5 3.5-1.5-.5-2.5-.5.5-1.5 3-1Zm-402 4 71.5.5-71.5.5v-1Zm74 1 11.5 7.5-.5 1.5-13-6h-71l-5 7-2.5-4.5 1.5-.5 1 3 4-7 75 1v-1l-1-1Zm2.5 2v1h1l-1-1Zm2 1v1h1l-1-1Zm193.5 1 3.5 2.5-1.5.5-2.5-1.5.5-1.5Zm-11 2 4.5 3.5-.5 2.5-4-5-1.5.5 1.5-1.5Zm149 0 .5 3.5h-1l.5-3.5Zm-145 7 .5 3.5h-1l.5-3.5Zm-326 5 49.5.5-5 2 5.5.5 3-1 4 6 12.5 6.5-.5 2.5-6-3-2.5 1.5 25.5 9.5 5-1 3 4 2.5 1.5v2l.5 1.5 25 10 5-1 1.5 4.5-5.5 1.5-23-12-7.5-.5-1.5-5.5-34.5-14.5 4-1-11.5-3.5h-42l-5 1 .5-1.5-2.5-10.5Zm7.5 2v1h2l-2-1Zm339.5-2 120.5 1.5-2 1 .5-1.5-60 1-41-1h-2l-8 1-8-2Z"/><path fill="#04063E" stroke="#04063E" stroke-width="3" d="m661.5 110 3.5.5-3.5.5v-1Zm52 0 28.5 1.5-3.5.5-25-2Zm51 1 3.5.5-3.5.5v-1Zm-21 3 19.5.5-1.5 2.5-15.5 9.5q-8.22 5.28-7 20l6.5 4.5h27l18.5-14.5 1-4-2-4h1l.5 1.5h2l22.5 2.5-7.5 9.5-53 23-23.5 23.5 1 3-3.5.5-68-1-1.5.5.5-1.5-10-3-9 5-28-1-1.5.5-.5-1.5h-2l-2.5-1.5 2-1 .5 1.5 2-5 7-4 31 1 2-1 2 4 7 3h35l29-2 20.5-18.5-.5-3.5q-14.71 1.71-22-4l-8 3-3.5-2.5-.5 1.5v-3l2 1 1-2 22.5-19.5q9.22-5.78 8-22l-.5-1.5ZM651 181v1h1l-1-1Zm172.5-67 254.5.5-254.5.5v-1Zm271 6 47.5.5-47.5.5v-1Zm-715 6 4.5 1.5-.5 1.5-4-3Zm102 0 140.5.5-22.5 2.5-117 1-2.5-1.5 1.5-2.5Z"/><path fill="#04063E" stroke="#04063E" stroke-width="3" d="m626.5 127 2.5 1.5-3 17-23.5 40.5-8.5 4.5-.5 1.5-96-1-2 1-5-6-44-18-2.5 1.5-.5-7.5-11.5-.5 1.5-4.5 9-1 3 4 2.5 1.5 1.5 4.5 36 16 1-2 5.5 1.5-1 2 2.5 3.5 2-2h97l4.5-4.5 8-23v-9l-8.5-14.5-113.5-2.5 115.5-.5 22-1 6-3ZM495 187l-1 2h1v-2Zm-91.5-49 4.5 1.5-.5 1.5-4-3Zm11 6 5.5 1.5-.5 1.5-5-3Z"/><path fill="#04063E" stroke="#04063E" stroke-width="3" d="m451.5 162 4.5 1.5-.5 1.5-4-3Zm11 6 5.5 1.5-.5 1.5-5-3Zm12 6 5.5 1.5-.5 1.5-5-3Zm-204 6h29l12.5 9.5-.5 2.5-4.5-.5 1-3-2-1-.5 3.5-11 1-13.5-6.5 8-2-14.5-1.5-.5 1.5.5 1.5-4.5-2.5.5-2.5Zm26.5 3v1h4l-4-1Zm5 1v1h1l-1-1Zm2 1v1h1l-1-1Zm597.5 1 47.5.5-1 3q10.25 4.25 3.5 8.5h-37l-2.5-2.5-2.5-4.5-8-5Zm12.5 8v1h3l-3-1Zm32 0v1h4l-4-1Zm-345.5 4 4.5.5-1 3 2 1 .5-3.5 65-1 .5 5.5-3.5.5-52-1-8.5 2.5 4 1-.5 3.5-11.5-9.5.5-2.5Zm68.5 1-1 4h1v-4Zm-221.5 5 2.5.5-8.5 10.5 4.5-5.5-.5-1.5-9.5 8.5 3 1-3.5 4.5-3.5-2.5 15.5-15.5Zm448 6-1.5 2.5.5 3.5 1.5.5-.5 1.5 2.5 1.5.5 1.5 1.5-.5.5 2.5 5.5-1.5.5-8.5 1.5 8.5-9.5 2.5-7.5-10.5 4.5-3.5Zm-664 6 2.5.5-.5 1.5 112 1 .5-1.5-.5-1.5 3.5.5-1.5 2.5-1.5.5 3 2-120.5.5.5-1.5 2.5-4.5Zm134 0 3.5.5-1.5 2.5-1.5-.5-.5-2.5Zm9 0 3.5.5-5.5 7.5-1-2-6.5-.5 10-3-.5-2.5Zm31 6 .5 2.5-22.5 27.5-4.5-1.5 22.5-26.5 4-2Zm-186 6 2.5.5-.5 1.5 3.5-.5.5-1.5 117.5.5-1 4 .5 1.5-126.5-.5 3.5-5.5Zm140 0 8.5.5-8 7 2-4-2.5-3.5Zm319 0h33l2.5 2.5-6.5 3.5v-2l-10-3-11 2-8-2-1.5 2.5 1.5 2.5-5.5-2.5.5-1.5 5-2Z"/><path fill="#04063E" stroke="#04063E" stroke-width="3" d="m679.5 230 3.5 1.5-.5 1.5-3.5-1.5.5-1.5Zm18 1 3.5.5-.5 1.5-3.5-.5.5-1.5Zm-496 15 2.5.5-.5 1.5 2 1 113-1 3 1 .5-1.5-.5-1.5 3.5.5-1.5 2.5-1.5.5 3 2-126.5.5.5-1.5 2.5-4.5Zm140 0 2.5 1.5.5 2.5 1.5-2.5-.5-1.5 2.5.5-5.5 7.5-1.5-2.5 1-4-.5-1.5Zm277 0 10 1 1.5-.5.5 1.5h2l2.5 1.5-2 1-.5-1.5-3 6-1.5.5-.5 2.5-8-1-1.5.5-.5-1.5-2-1-1.5.5.5-1.5-1.5-.5 1-2-.5-1.5 1.5-.5-.5-1.5h2l1.5-.5.5-1.5Zm8.5 10v1h1l-1-1Zm-224.5 2 61 1 2-1 2 4 2 1 3 1 8.5 4.5 1.5 2.5 2.5.5 4 9-12.5 13.5-12 6-3-4-7-3-2 1-3-4-7-3-2 1-3-4-7-3-2 1-3-4-7-3-2 1-3-4-7-3-2 1-4.5-6.5.5-3.5 1.5-.5.5-1.5Zm62.5 1v1h1l-1-1Zm8 6v1h1l-1-1Zm2 1v1h1l-1-1Zm-70 2v1h1l-1-1Zm60 30v1h1l-1-1Zm-66.5-38 .5 3.5-3-2 2.5-1.5Zm-218 2 6 3h139l4-1 .5 2.5-3.5 3.5h-143l-3-8Zm960 8 58 1 3 1 8.5 5.5 4 5-4.5.5-5-2-70.5-.5-.5-2.5-1 4-4 2-.5-1.5 6.5-9.5 6-3Zm1.5 1v1h1l-1-1Zm-2 1-1 2 2-1-1-1Zm-4 3v1h1l-1-1Zm-1 1-1 2h1v-2Zm-644.5 2 .5 1.5h-1l.5-1.5Zm725 4 2.5.5-.5 5.5-5.5-2.5 3-1 .5-2.5Zm-207 18 3.5.5 2.5 4.5 1.5-.5-2-3 15.5-1.5 2.5 3.5-.5 1.5 3-1 9.5 4.5-4 2-.5 1.5-1.5.5-.5 1.5-1.5.5 2 1-.5 2.5-5.5-2.5 3-1-3.5-1.5-2 1-9.5-4.5 1-2-1.5-.5-2 1-9.5-4.5.5-3.5Zm15.5 1v1h2l-2-1Zm3 1v1h2l-2-1Zm3 1v1h1l-1-1Zm4 2v1h1l-1-1Zm-16 1v1h1l-1-1Zm19 1v1h1l-1-1Zm-15 1v1h1l-1-1Zm2 1v1h1l-1-1Zm2 1v1h1l-1-1Zm4 2v1h1l-1-1Zm20.5 0 5.5 2.5-.5 3.5-2.5-.5-2.5-5.5Zm12 6 5.5 2.5-2.5 3.5-3.5-2.5.5-3.5Zm2 12 39.5.5-.5 1.5-4-1v1l18 11h99l10-5 1 7 2.5-9.5h-2l4.5-3.5 8 1 23-1 11.5 4.5-1.5-.5h-39l-3.5 2.5-1.5 9.5-170-1-6 1-3.5-7.5 2.5 1.5 2 1 10-13Zm32.5 2-7 2-11-1-16 1 12 2-5 2-1 2 7 3q18 4 27-3v-1l-6-3 2-3-2-1Zm130 13-1 2h1v-2Zm-169 1v1h1l-1-1Z"/><path fill="#04063E" stroke="#04063E" stroke-width="3" d="m1136.5 330 9.5 2.5-.5 3.5-5.5-.5 3-1-.5-2.5-3.5 1.5-.5 1.5-4.5-2.5 2.5-2.5Zm18 0 9.5 2.5-.5 3.5-3.5-.5-1.5-3.5-3.5.5 1 3-3.5.5-.5-3.5 2.5-2.5Zm18 0 9.5 2.5-.5 3.5-3.5-.5-1.5-3.5-2-1-1.5 3.5.5 1.5-3.5-.5 2.5-5.5Zm18 0 9.5 2.5-.5 3.5-3.5-.5-1.5-3.5-2-1-1.5 3.5.5 1.5-3.5-.5 2.5-5.5Zm18 0 8.5 2.5-.5 1.5-10 2-.5-3.5 2.5-2.5Zm2.5 1-2 4h3l1-2-2-2Zm77.5-1 12.5.5-8.5 5.5-4-6Zm-11 3 2 5-3.5-1.5 1.5-3.5Zm145 1 11.5 13.5q-2.55 16.05 5.5 21.5l36.5 21.5-.5 24.5-6.5 2.5-1.5 2.5-5.5 4.5-1.5 2.5-6.5 4.5-.5 1.5-1.5-.5-.5 2.5-20.5-3.5-.5-1.5-3.5-2.5.5-1.5 5.5-2.5-.5-1.5-6-3h-114l-2 1-2-4-23-3-6 3-2.5-1.5 6.5-8.5 1.5-.5 1.5-2.5 1.5.5-2 1 11.5 4.5h123l14-7 28 1 6.5-3.5-5.5-7.5-31-15-4 1-.5-2.5 6-5-1-4 1-5-3.5-1.5-2.5 1.5-1-4 1-6-2.5-3.5 2.5-.5-5.5-13.5Zm8.5 40-1 2h1v-2Zm-120 44v1h1l-1-1ZM288.5 336l3.5.5v2l.5 1.5 5 1v-1l-2.5-1.5.5-1.5 166-1 2 6 10.5.5 2 11-2 1-.5 1.5-19-9h-93l-6.5 4.5-.5 9.5-23-19-33-1-10 1v-6Zm159.5 1v1h2l-2-1Zm3 1v1h5l-5-1Zm8 2v4l4 2h7l-8-2-3-4Zm13 7-1 5v1h1v-6Zm320.5-11 4.5.5 2.5 4.5 1.5.5-5.5.5-3-6Zm79 0 4.5.5-3.5 5.5-4-1-8.5 7.5-2 6 1 6-1.5.5-22-19-33-1-3.5-2.5.5-1.5 70.5.5.5 2.5 1.5-2.5-.5-1.5Z"/><path fill="#04063E" stroke="#04063E" stroke-width="3" d="M948.5 336h11l23 12 7.5.5 1.5 5.5 309 1 10-6 1 2-1.5.5 2 1 2.5 19.5 3.5.5-.5 1.5-2.5 1.5 1.5.5 13-2 17.5 16.5 1 2-3 2-1.5 2.5-6 1-2.5-1.5 9-2-12.5-14.5-16-2-5 6-1.5-.5-.5 1.5-2.5-.5 2-13-4.5-5.5-244-1-33.5 2.5-2.5 3.5-3.5-2.5-1.5-2.5-28.5-.5-.5-3.5-27-13-3.5 6.5-3.5 5.5-1.5-.5-1-3 1-5-1.5-2.5 1.5.5-3.5-11.5-1 3-1.5-.5.5-5.5Zm3.5 1v1h3l-3-1Zm5 1v1h1l-1-1Zm3 2 1 2h1l-2-2Zm3 2v1h1l-1-1Zm2 1v1h1l-1-1Zm2 1v1h1l-1-1Zm2 1v1h2l-2-1Zm3 1v1h2l-2-1Zm5 1v1h1l-1-1Zm2 1v1h1l-1-1Zm2 1v1h1l-1-1Zm2 1v1h2l-2-1Zm4 2 3 6h3l-2-1-4-5Zm69 3v1h2l-2-1Zm-3 1v1h2l-2-1Zm-39 1v1h11l-11-1Zm34 0v1h3l-3-1Zm-54 1v1h18l-18-1Zm33 0v1h20l-20-1Zm-35 5v1h5l-5-1Zm23 0v1h3l-3-1Zm14 0v1h3l-3-1Zm22 0v1h5l-5-1Zm-32 1v1h1l-1-1Zm8 0v1h1l-1-1Zm30 0v1h2l-2-1Zm-36 1 4 2 1-2-2 1-3-1Zm292 13-2 3 2-1v-2Zm-2 3-1 2h1v-2Zm34.5-45 4.5.5-3.5 5.5-4.5-.5 3-2 1-2-.5-1.5Z"/><path fill="#04063E" stroke="#04063E" stroke-width="3" d="m1301.5 337 42.5 1.5-3.5 2.5h-25q-8.68 7.32-25 7l-1-2-4-2-1.5.5-1.5-4.5 8 2 11-5Zm-388 11-1.5 2.5-.5 1.5-.5-1.5 2.5-2.5Zm15 0 6 3 3.5-2.5q-5 3 2 6l2 5h-1l-.5-1.5-.5 2.5 2 10-2.5.5q.52-12.52-6-18l-2.5 1.5-1 4 2 4-2.5 4.5-4 1-6-2-2.5 3.5 1.5 3.5 1.5.5.5 1.5 9-4 5.5 4.5 1.5 2.5 7.5 4.5-3.5 4.5-5 3-10-1-1.5.5-.5-1.5-19-5-2 1-5-7-3.5-1.5.5-3.5 4 1 11.5-6.5 1.5-4.5 2.5 1.5 1.5 2.5 2.5-.5.5-1.5 3 1 2-1 1 2 5.5-3.5-.5-2.5-2.5-.5 1-3 .5-2.5 1.5-.5-1.5-5.5Zm10.5 6-1 2h1v-2Zm1 2-1 2h1v-2Zm-43 17-1 4h1v-4Zm30 0-2 3 10 6v-1l-8-8Zm-24 9v1h1l-1-1Zm484.5-34-1.5 2.5 1 7h-1l-.5-4.5-.5 6.5 1.5.5h2l4.5-2.5 5-7-1.5-2.5 5 3 4-3-1.5 2.5.5 3.5 1.5.5-1 3 1.5 2.5-2.5.5 3.5 5.5 2.5-.5.5-1.5 5.5.5-1 3 1 3-2.5.5-3-4-4 1-3.5-2.5-1-4 2-5-2.5-3.5-3.5 2.5-5.5 9.5-2.5 1.5 2.5 6.5 1.5.5.5 1.5 9-4 5.5 4.5 1.5 2.5 7.5 4.5-3.5 4.5-5 3-10-1-1.5.5-.5-1.5-23.5-5.5-2-8 12-8-1-14 4.5-4.5Zm8.5 6-1 2h1v-2Zm-8 6v5h2l1-3-3-2Zm13 13-2 3 10 6v-1l-8-8Zm21.5-23 1.5.5-2.5 1.5 1-2Zm-1063 13 6.5 8.5-2.5.5-7-8 5 4 .5-1.5-2.5-3.5Zm504 0 6.5 8.5-2.5.5-7-8 5 4 .5-1.5-2.5-3.5Z"/><path fill="#04063E" stroke="#04063E" stroke-width="3" d="m942.5 364 .5 1.5h-1l.5-1.5Zm92 8 3.5 2.5-.5 3.5-5.5-3.5 2.5-2.5Zm336 2 .5 2.5-2-1 1.5-1.5Zm-428 4 5.5.5-2.5 3.5-3-4Z"/><path fill="#04063E" stroke="#04063E" stroke-width="3" d="m990.5 378 11.5 6.5 1.5 5.5 39 1 13-4 7 3 18-12 202 1 1.5-.5.5 1.5 2 1 1.5-.5-.5 1.5 1.5.5-12.5 17.5-5 2-3-5-4-2h-189l-11.5 7.5-14.5 24.5-2-1-1 3-2-1-4.5 3.5-.5 1.5-1.5-.5-.5 2.5-20.5-3.5-.5-1.5-3.5-2.5.5-1.5 5.5-2.5-.5-1.5-6-3h-114l-2 1-2-4-8-3-27.5-1.5 1.5-2.5h146l13-6h29l6.5-3.5-.5-1.5q-10.5-7.5-33-3l-11.5 4.5 2 1-1.5.5-2-3-3.5-2.5 1.5-2.5 1.5-.5-2.5-.5q-3.25 5.25-6.5-2.5l1-2-2.5-1.5-5.5-3.5-1.5-4.5Zm18.5 13v1h2l-2-1Zm-112 27v1h1l-1-1Z"/><path fill="#04063E" stroke="#04063E" stroke-width="3" d="m1046.5 378 3.5.5-3.5 5.5-2.5-3.5 2.5-2.5Zm370 0 5.5.5-2.5 3.5-3-4Zm-364 7 1.5.5-1.5.5v-1Zm250 2-2.5 3.5.5 1.5 5-4-8 9-1.5.5-.5 4.5-4.5-3.5 11.5-11.5Zm-1134 3 11.5 3.5-9.5 2.5-2-6Zm508 1 7.5 2.5-9.5 2.5-1-4 3-1Zm635 5 1.5.5-1 4h1l1.5-3.5q16.46-3.96 22.5 2.5l-.5 1.5-28 1-.5-2.5 3.5-3.5Zm-1219 6 3.5.5-2.5 5.5-1.5-.5-.5-1.5-1.5-.5 2.5-3.5Zm40 0 5.5 2.5-.5 1.5-1.5.5.5 1.5 4-1 71.5 3.5.5 1.5.5-2.5-.5-1.5 3.5.5-2.5 5.5-1.5-.5-.5-1.5-67 2v-2l-5-2-4.5-2.5-2.5-5.5Zm368 0 3.5.5-2.5 5.5-1.5-.5-.5-1.5-1.5-.5 2.5-3.5Zm40 0 5.5 2.5-.5 1.5-1.5.5.5 1.5 4-1 4 2 163.5 1.5.5 1.5.5-2.5-.5-1.5 3.5.5-2.5 5.5-1.5-.5-.5-1.5-163 2v-2l-5-2-4.5-2.5-2.5-5.5Zm-540 1 1.5.5-.5 1.5 12 4h70l7-2 .5 1.5-8 4 .5 1.5-58-1-6.5 4.5-1 7 .5 1.5-5.5-1.5-3.5-4.5-2.5-1.5-.5-1.5-6.5-2.5.5-11.5Zm410 0 1.5.5-1.5.5v-1Z"/><path fill="#04063E" stroke="#04063E" stroke-width="3" d="m408.5 405 13 4h70l7-2 .5 1.5-8 4 .5 1.5-58-1-6.5 4.5-1 7 .5 1.5-6.5 2.5 2.5 1.5 2-3-.5 1.5 2.5 3.5h293l6 2-1-3 2.5 3.5 1.5 3.5 3.5 2.5 2.5 3.5 3.5 2.5 2.5 3.5 3-1-.5 1.5 13 19-1 2 1 2-5.5 8.5-7 4-253.5.5 1.5 3.5 1.5.5-1 2 2 1-3.5.5-3.5-4.5 1.5.5 1.5-.5-1.5-3.5-2.5.5-.5 1.5-7.5-6.5q19.46 1.46 27-9l-.5-1.5h2l4.5-1.5-.5-1.5 130 1 1.5-.5-.5 1.5 5 2 1.5-.5-.5 1.5 14 8h45l6.5-4.5 2-16-3.5-13.5-1 2v-3l2-1 1.5.5.5-1.5 4 1 3 1 18.5 15.5 6.5 17.5 1.5-.5 2-14-11-10-4.5-5.5-1.5-.5-9.5-10.5-24-1-267.5 2.5-.5 7.5-2-3-3.5 2.5.5-7.5 2 3 1.5-.5 2-4-11.5-4.5h-43l-2.5 18.5-7.5 10.5-1.5.5-2 4-1.5 3.5-1.5.5 1 3-13.5 9.5 12.5-13.5.5-1.5 1.5-.5 6.5-13.5 1.5.5-1-3 3-2-2.5-15.5-2.5.5-3 7 1 2-10.5 13.5-20 11h-11l-2.5-1.5-.5-1.5-1.5.5.5-1.5-1.5-.5 2-7-2-1 17-15-1.5-3.5-22 24-1.5-1.5 23-25-4-7 62.5-1.5 22 1 5.5-3.5-6.5-7.5-3-1-9 5-7-1-2 1-2-4-8-3-27.5-1.5 1.5-2.5h44l8-4ZM393 418v1h1l-1-1Zm-47 9v1h2l-2-1Zm46 0v1h1l-1-1Zm-43 1 3 2h9l-12-2Zm38 0-15 1v1l19-1-4-1Zm-50 4-1 6 5-2-4-4Zm15 1-2 1-2 4-3 12-9 6 1-2-1-1-3 5h-1l-1 2h2v2l6 1-1-1 4-2 10-12 3-1 3-2 1-9-7-3Zm84 2v1h258l-258-1Zm-3 1v1h2l-2-1Zm264 0v1h2l-2-1Zm-350 1-1 2h1v-2Zm-1 2-1 3h1v-3Zm-1 4-1 2h1v-2Zm10 5-1 2h1v-2Zm-15 2-1 2 2-1-1-1Zm21 21-3 4 3-2v-2Zm151 2-6 3-1 2 7 3h129l6-3v-1l-6-4H512Z"/><path fill="#04063E" stroke="#04063E" stroke-width="3" d="m354.5 408-1.5 2.5 2 3-1.5-.5-4.5-1.5.5-1.5 5-2Zm504 0-1.5 2.5 2 3-1.5-.5-4.5-1.5.5-1.5 5-2Zm416 7 3.5 1.5-6 8 76 3-3.5 5.5-49.5.5-2 18-7.5 10.5-1.5.5-2 4-1.5 3.5-1.5.5 1 3-13.5 9.5 12.5-13.5.5-1.5 1.5-.5 6.5-13.5 1.5.5-1-3 3-2-2.5-15.5-2.5.5-3 7 1 2-10.5 13.5-20 11h-11l-2.5-1.5-.5-1.5-1.5.5.5-1.5-1.5-.5 2-8-1.5-.5-4.5 3.5 2-3-5 4 .5 1.5 3.5-8.5-1.5-2.5-25-1-11.5 3.5 4 1-2.5 2.5h-22v-2l-2.5 1.5-2 5 .5 1.5-2.5-1.5 1-4-8.5-4.5-1.5.5 1-2-2.5-.5-.5 3.5 3 1 9 15-1 2 1 2-5.5 8.5-7 4-147 1 .5-1.5.5-5.5 2.5-.5.5-1.5q15.04 6.46 40 3l6.5-3.5-.5-1.5-18-3-5 1 .5-1.5-1-2 7-3-1.5-4.5-1.5-.5-2-5 1-2 1-3 4-10-1-4 5.5-1.5 1 4 7 4h165l14-7 2 4 4 2 26-21 5 6 4.5-.5-7-4-2-4 5.5-5.5Zm35.5 12v1h1l-1-1Zm-5 1-15 1v1l19-1-4-1Zm-35 5-2 1-2 4-3 12-9 6 1-2-1-1-3 5h-1l-1 2h2v2l6 1-1-1 4-2 10-12 3-1 3-2 1-9-7-3Zm-5 4-1 2h1v-2Zm-1 2-1 3h1v-3Zm-1 4-1 2h1v-2Zm10 5-1 2h1v-2Zm-217 1-2 1-10 12 2 5 5 2 5-1-1 2 5 1h2l-1 2 15 8 48-1 5-10-2-16-6-5h-65Zm-6 1-2 1-3 4v1l5-3v-3Zm187 0-1 5 4-1h1l-4-4Zm21 0-1 2 2-1-1-1Zm-109 1-2 2q11 8 13 26h2l2-14-15-14Zm28 2v1h5l-5-1Zm102 18-3 4 3-2v-2ZM216.5 426l2.5 1.5-1.5-.5-1-1Zm84 0 6.5.5.5 1.5q15.38-1.88 23.5 3.5l-24.5.5-6.5-3.5.5-2.5Zm420 0 2.5 1.5-1.5-.5-1-1Zm84 0 6.5.5.5 1.5q15.38-1.88 23.5 3.5l-24.5.5-6.5-3.5.5-2.5Z"/><path fill="#04063E" stroke="#04063E" stroke-width="3" d="m849.5 426 84.5 1.5-3.5 5.5-49.5.5-2 18-7.5 10.5-1.5.5-2 4-1.5 3.5-1.5.5 1 3-13.5 9.5 12.5-13.5.5-1.5 1.5-.5 6.5-13.5 1.5.5-1-3 3-2-2.5-15.5-2.5.5-3 7 1 2-10.5 13.5-20 11h-11l-2.5-1.5-.5-1.5-1.5.5.5-1.5-1.5-.5 2-7-2-1 17-15-1.5-3.5-22 24-1.5-1.5 23-25-4-7 15.5-1.5Zm.5 1v1h2l-2-1Zm46 0v1h1l-1-1Zm-43 1 3 2h9l-12-2Zm38 0-15 1v1l19-1-4-1Zm-50 4-1 6 5-2-4-4Zm15 1-2 1-2 4-3 12-9 6 1-2-1-1-3 5h-1l-1 2h2v2l6 1-1-1 4-2 10-12 3-1 3-2 1-9-7-3Zm-5 4-1 2h1v-2Zm-1 2-1 3h1v-3Zm-1 4-1 2h1v-2Zm10 5-1 2h1v-2Zm-15 2-1 2 2-1-1-1Zm21 21-3 4 3-2v-2Zm74.5-43q42.36-3.86 73.5 3.5l-77.5.5 2-3 2-1Zm414 0q42.36-3.86 73.5 3.5l-77.5.5 2-3 2-1Zm-1133 3 2.5 3.5 1.5 3.5 3.5 2.5 2.5 3.5 3.5 2.5 2.5 3.5 3-1-.5 1.5 13 19-1 2 1 2-5.5 8.5-7 4-157.5.5 1.5 3.5 1.5.5-1 2 2 1-3.5.5-3.5-4.5 1.5.5 1.5-.5-1.5-3.5-2.5.5-.5 1.5-7.5-6.5q19.46 1.46 27-9l-.5-1.5h2l4.5-1.5-.5-1.5 52.5 2.5-1.5 2.5h-50l-6.5 3.5.5 1.5 6 3h99l6.5-4.5 2-16-3.5-13.5-1 2v-3l2-1 1.5.5.5-1.5 4 1 3 1 18.5 15.5 6.5 17.5 1.5-.5 2-14-11-10-4.5-5.5-1.5-.5-9.5-10.5-24-1L24 439.5l-1 12q3.85 17.15 17.5 24.5l17.5 5.5-1.5 4.5-2.5.5-.5 2.5q-21.92-9.08-33.5-28.5l-2-28 3.5-.5h194l6 2-1-3ZM28 435v1h162l-162-1Zm-3 1v1h2l-2-1Zm168 0v1h2l-2-1Zm1265.5 2 5.5 1.5-1.5 10.5-2.5 1.5-11.5 16.5-2.5-.5 2.5-4.5 2.5-.5 3.5-10.5 1.5-.5 3-9-.5-4.5Zm-1087 1 .5 8.5h-1l.5-8.5Z"/><path fill="#04063E" stroke="#04063E" stroke-width="3" d="m875.5 439 .5 8.5h-1l.5-8.5Zm414 0 .5 8.5h-1l.5-8.5Zm-859 9 1.5 8.5-3 2 6 3 14 15-2 1-.5 2.5-2.5-.5-1.5-5.5-12.5-10.5 2-1-8-1 5-2-3-1 .5-8.5 4-2Zm-186 1 3 2 34-1 .5 3.5-2.5 2.5h-22l-2-3-1.5.5 1 3-2 4 .5 1.5-2.5-1.5 1-4-8.5-5.5-1.5.5 2.5-2.5Zm7.5 3v1h2l-2-1Zm496.5-3 3 2 34-1 .5 3.5-2.5 2.5h-22l-2-3-1.5.5 1 3-2 4 .5 1.5-2.5-1.5 1-4-8.5-5.5-1.5.5 2.5-2.5Zm7.5 3v1h2l-2-1Zm259.5-3 1.5.5-1.5.5v-1Zm414 0 1.5.5-1.5.5v-1Zm-395 2 1.5.5-2 1-2.5 6.5-1.5-.5 1.5-5.5 1.5.5 1.5-2.5Zm414 0 1.5.5-2 1-2.5 6.5-1.5-.5 1.5-5.5 1.5.5 1.5-2.5Zm-1400 5 4 1 1.5-.5.5 1.5 2 1 1.5-.5-.5 1.5 1.5.5-1 2 .5 1.5-1.5.5.5 1.5-1.5-.5-.5 1.5-9.5-5.5-.5-2.5-1 2v-3l2-1 1.5.5.5-1.5Zm408 0 4 1 1.5-.5.5 1.5 2 1 1.5-.5-.5 1.5 1.5.5-1 2 .5 1.5-1.5.5.5 1.5-1.5-.5-.5 1.5-9.5-5.5-.5-2.5-1 2v-3l2-1 1.5.5.5-1.5Zm554 0 1 2-1.5-.5.5-1.5Zm414 0 1 2-1.5-.5.5-1.5Zm-1356 1 1.5.5 1 6-1.5 3.5-1.5-.5-1-6 1.5-3.5Zm12 0 1.5.5 1 6-1.5 3.5-1.5-.5-1-6 1.5-3.5Zm396 0 1.5.5 1 6-1.5 3.5-1.5-.5-1-6 1.5-3.5Zm12 0 1.5.5 1 6-1.5 3.5-1.5-.5-1-6 1.5-3.5Zm-180 3 1.5.5-3.5 1.5v-1l2-1Zm504 0 1.5.5-3.5 1.5v-1l2-1Zm414 0 1.5.5-3.5 1.5v-1l2-1Zm-192 3 2.5 1.5-2.5 3.5-2.5-.5 2.5-4.5Zm-748 2 3.5.5-3.5.5v-1Zm-131 3 5.5 2.5-.5 1.5-5 2 1.5-2.5-1.5-3.5Zm131 1 6.5 1.5-.5 1.5-6 1-3.5-1.5.5-1.5 3-1Zm122 8 1.5 3.5-2 1 1-3-.5-1.5Zm504 0 1.5 3.5-2 1 1-3-.5-1.5Zm414 0 1.5 3.5-2 1 1-3-.5-1.5Zm-866 4 9.5.5-6.5 2.5-3-3Zm-397 1 8.5 3.5-12.5.5 2-3 2-1Zm388 0 10.5 3.5-10.5.5-1.5-2.5 1.5-1.5Zm-105 1-4 5-12 5-.5-1.5 16.5-8.5Zm126 0 7.5 2.5-11.5.5v-1l4-2Zm378 0-4 5-12 5-.5-1.5 16.5-8.5Zm414 0-4 5-12 5-.5-1.5 16.5-8.5Zm-253 5 2 3 232.5.5-232.5.5-2-4Zm-925 3 241.5.5-241.5.5v-1Zm408 0 337.5.5-337.5.5v-1Zm514 1 2.5.5-2.5.5v-1Zm-908 1 9.5.5-5.5 1.5-4-2Zm30 0 9.5.5-5.5 1.5-4-2Zm54 0 9.5.5-5.5 1.5-4-2Zm30 0 9.5.5-5.5 1.5-4-2Zm30 0 9.5.5-5.5 1.5-4-2Zm30 0 9.5.5-5.5 1.5-4-2Zm30 0 9.5.5-5.5 1.5-4-2Zm204 0 9.5.5-5.5 1.5-4-2Zm30 0 9.5.5-5.5 1.5-4-2Zm30 0 9.5.5-5.5 1.5-4-2Zm30 0 9.5.5-5.5 1.5-4-2Zm30 0 9.5.5-5.5 1.5-4-2Zm30 0 9.5.5-5.5 1.5-4-2Zm30 0 9.5.5-5.5 1.5-4-2Zm30 0 9.5.5-5.5 1.5-4-2Zm30 0 9.5.5-5.5 1.5-4-2Zm30 0 9.5.5-5.5 1.5-4-2Zm30 0 9.5.5-5.5 1.5-4-2Zm204 0 9.5.5-5.5 1.5-4-2Zm30 0 9.5.5-5.5 1.5-4-2Zm30 0 9.5.5-5.5 1.5-4-2Zm30 0 9.5.5-5.5 1.5-4-2Zm30 0 9.5.5-5.5 1.5-4-2Zm30 0 9.5.5-5.5 1.5-4-2Zm30 0 9.5.5-5.5 1.5-4-2Zm30 0 9.5.5-5.5 1.5-4-2Z"/><path fill="#0B0B40" stroke="#0B0B40" stroke-width="3" d="M575.5 1h17q4.97 9.03 21 7l5.5 5.5 10 24-2.5 5.5-1.5.5-.5 1.5-3.5-2.5-.5-1.5-7-3-2.5 2.5v20q6.96 5.54 5 20l-1 2 1.5 2.5 16-1-1 4-1.5.5-.5 1.5h-165l-12-7-94 1v-1l9.5-.5-10.5-1.5-2 3-1.5-.5-.5-5.5-3.5-.5L372.5 66h7l173-60h16v1l-190 65-12.5 1.5 1.5 4.5h91l10 6h140l3.5-2.5.5 1.5 1.5-12.5-1.5-3.5-6.5-4.5v-15l-6-11v-13l-7-17 2-1L581.5 2l-14 2V3l8-2Zm78 17 .5 1.5-4 3-.5 1.5-1.5-.5 1.5-2.5 1.5-.5.5-1.5 2-1Zm2 0 12.5.5-12.5.5v-1Zm39 0 15.5.5-17.5 2.5 2-3Zm-25 1 2.5 7.5-1.5 2.5-.5-1.5 1-5-1.5-3.5Zm41 1 .5 2.5h-1l.5-2.5Zm-78 2 .5 18.5h-1l.5-18.5Zm61 0 4 5 4.5 2.5-1.5.5-6.5-4.5-.5-3.5Zm16 2 .5 2.5h-1l.5-2.5Zm-60 1 10 19 3.5.5-2.5 1.5-11-21Zm54 4 4.5.5-4.5.5v-1Zm40 1 8.5.5-8.5.5v-1Zm-1 2-.5 1.5 1.5 5.5 4-2 1.5 2.5-2.5 1.5-3.5-.5-1.5 5.5-1-3-2 1-.5-4.5 4.5-7.5Zm-75 1-.5 1.5-.5 1.5-.5-1.5 1.5-1.5Zm116 3 9.5 4.5-1.5-.5-8-4Z"/><path fill="#0B0B40" stroke="#0B0B40" stroke-width="3" d="M769.5 37q16.71-1.71 23.5 6.5l-.5 3.5-24.5-1.5-2-4 3.5-4.5Zm-104 2 .5 3.5-1.5 2.5-.5-2.5 1.5-3.5Zm-32 7 1.5 8.5h-1l-.5-8.5Zm107 1 2 6 42.5.5-42.5.5-2-7Zm46 7 9.5 6.5 1 3h-1l-4.5-6.5-5-3Zm-151 2 2.5 3.5-2-1-.5-2.5Zm3 5 .5 2.5h-1l.5-2.5Zm158 7 .5 1.5-6.5 8.5-10 6v-1L795 71.5l1.5-3.5Zm299 10h84l2.5 2.5-.5 3.5-5-1-6 1-5-1-5.5 3.5-.5 3.5-1.5.5-.5 2.5-3-3-69.5-.5.5-1.5-1.5-.5.5-1.5 8.5-2.5-2-1 4.5-4.5Z"/><path fill="#0B0B40" stroke="#0B0B40" stroke-width="3" d="M796.5 79q18.5-3.5 26.5 3.5l.5 1.5 2 1 1-2 255.5 1.5-2 4 .5 1.5h-235l-4.5 2.5.5 1.5 28 2 13 6h29l13 6h155l13-6h23l13-6 29-1 .5 2.5-6.5 16.5-10 3h-51l-10-5-257-1-13-4-6 2-3-1-5 10-13.5-7.5-2-13 8.5-15.5 7-3Zm2.5 5-6 3-7 9 1 3 5 3 10-2 4-8 4-3v-1l-11-4Zm-31.5 0h2l9.5.5-11 2 2.5 4.5 5.5 3.5 1 7-5.5 4.5h-124l-6.5 2.5 1 3-5.5 2.5-.5-2.5v-2l-1-11 1.5-2.5 3 1 4-6 2.5 3.5-4 3 1.5 2.5 4 2h125l2.5-5.5-2-1-1.5-3.5-1.5.5-.5-1.5-2.5-1.5.5-5.5Zm-128 1 3.5 4.5-4-3 .5-1.5Zm-279 5h77l9.5 6.5-.5 1.5 3.5 1.5 1 2-91 2 .5 4.5h258l5.5-3.5-1-2 2.5-5.5 5.5 6.5h-2l1 20-.5 1.5 1.5.5-1 14-20 40-10.5 10.5-5 2-.5-1.5 14-10 18-35 3-17-2.5-1.5-6 3-22 1-115.5.5 111.5 1.5 5.5 4.5q6.41 6.09 5 20l-6 19-6.5 8.5-98.5 1.5 3.5 4.5 95.5.5-95.5.5-6.5-8.5 1-2-.5-1.5q16.39 3.39 23.5-2.5L473.5 135l-6-3h-53l-6.5-3.5 1.5-2.5 71.5.5-1 2 2.5 1.5 117-1 20-1 4.5-3.5-1.5-2.5-4-2h-235l-5.5 3.5 2.5 4.5 3 1 .5-1.5-.5-1.5 8.5 5.5-6.5 1.5-31.5-12.5 1.5-.5 10 3h2l5 2 .5-2.5-14-8-2.5-4.5-8 1v-1l4.5-1.5.5-1.5 3 1 9-15h71l9 4-2-3-7-3h-72l-4 7v-8Z"/><path fill="#0B0B40" stroke="#0B0B40" stroke-width="3" d="m466.5 95 1.5.5-1.5.5v-1Zm691 5 .5 8.5h-1l.5-8.5Zm-509 7 122.5.5-122.5.5v-1Zm-338 3 2.5.5-2.5.5v-1Zm506 0 7 3 256.5.5-257.5.5-6-4Zm266 4 2.5 1.5-1.5.5-1-2Zm-306 1 3.5 1.5-1.5.5-2-2Zm310 1 5 3 51.5.5-54.5.5-2-4Zm-326 1 1.5.5-15 9-7.5 15.5-.5-2.5 11.5-17.5 10-5Zm-450 2 42.5.5-42.5.5v-1Z"/><path fill="#0B0B40" stroke="#0B0B40" stroke-width="3" d="m743.5 120 .5 2.5q-7.99 20.01-24.5 31.5l-6.5 3.5-1 2 5.5 2.5 7-3q6.56 5.94 20.5 4.5L728.5 183q-30.11 5.89-68 4l-11-6-30.5-.5 30.5-.5 11 6h35l9.5-6.5 6.5-13.5 1.5-.5-3-4 2-3 .5-2.5 22.5-18.5 8.5-17.5Zm-348 12 8.5 5.5-.5 1.5 4 2 .5-1.5-.5-1.5 8.5 5.5-2 1 5.5 2.5.5-1.5-.5-1.5 8.5 5.5-6.5 1.5-21.5-10.5-1-2-.5-2.5-2.5-1.5-.5-2.5Zm395 4-11 12-5 2v-1l16-13Z"/><path fill="#0B0B40" stroke="#0B0B40" stroke-width="3" d="m741.5 148 2.5 1.5-1.5.5-1-2Zm-310 2 8.5 5.5-7.5 2.5-1.5-2.5 1-4-.5-1.5Zm314 0 27.5.5-27.5.5v-1Zm-302 6 8.5 5.5-.5 1.5 4 2 .5-1.5-.5-1.5 8.5 5.5-2 1 5.5 2.5.5-1.5-.5-1.5 8.5 5.5-2 1 5.5 2.5.5-1.5-.5-1.5 8.5 5.5-2 1-.5 1.5-37.5-17.5-1.5-4.5-2.5-1.5-.5-2.5Zm173 24 1.5.5-8 5 2 6h-1l-.5-1.5-1.5.5v-2l-1-2 8.5-6.5Zm-342 2 14.5 1.5-11.5 2.5h-2l-2.5-1.5 1.5-2.5Zm22 1 11.5 5.5-1.5 3.5-11.5-.5 11-1-1.5-4.5-8-3Zm-14 3 11.5 5.5-1.5.5-10-6Zm370 1 9 4 67.5.5-67.5.5h-2l-7-5Zm-5 1 1.5.5-6.5 3.5 1-2 4-2Zm301 1 4 5-3 1-4.5-.5 6-2-2.5-3.5Zm-335 2 27.5.5-27.5.5v-1Zm299 2 4.5 1.5-3.5.5-1-2Zm-307 5 63.5 1.5-1.5 4.5-51.5-.5 52-1-.5-3.5-61.5.5 2.5 5.5 3.5.5-3.5.5-4.5-6.5 1.5-1.5Zm177 6 4.5.5-1 4 .5 1.5-7.5-.5 3.5-5.5Zm21 0 6.5 1.5-1.5 4.5-5.5-.5 1-4-.5-1.5Zm38 0 4.5 1.5-1.5 4.5-4.5-1.5 1.5-4.5Zm-397 4 1.5.5.5 1.5 1.5-.5-11.5 7.5 8-9Zm446 1 4.5 1.5-4 3 7.5 10.5 9.5-2.5-1-7 6.5 5.5 6 2 2-1 65 1 3.5 2.5-2.5 3.5-93.5-.5-12-17 3.5-.5h2l3-1Zm-656 7 111.5 1.5.5 1.5 1.5.5-1.5.5-4-2-109.5-.5 1.5-1.5Zm135 0 5.5 1.5-1.5 2.5-7.5-.5 3-2 .5-1.5Z"/><path fill="#0B0B40" stroke="#0B0B40" stroke-width="3" d="m900.5 222 1.5.5-1.5.5v-1Zm-678 6 2.5.5-.5 1.5-3.5-.5 1.5-1.5Zm455 0 16 3 7-2 9.5 4.5-1.5.5h-2l-28-1-1.5.5v-2l1-2-.5-1.5Zm2.5 2-1 2 4 1v-1l-3-2Zm18 1-1 2h4v-1l-3-1Zm-337.5-1-1 4-.5-1.5 1.5-2.5Zm-156 16 117.5 1.5.5 1.5 1.5.5-1.5.5-4-2h-114l-1.5-.5 1.5-1.5Zm139 0 2.5 1.5-3.5 4.5 1.5-2.5-.5-3.5Zm274 0 .5 1.5-4.5 2.5v-1l1.5-.5.5-1.5 2-1Zm2 0 9.5.5-9.5.5v-1Zm11 0 1 2 1.5-.5v2l1 2-7.5 5.5v-1l5.5-3.5-1.5-6.5Zm-17 5 .5 1.5h-1l.5-1.5Zm541 1 9.5 2.5-2.5 3.5-9.5-2.5 2.5-3.5Zm18 0 9.5 2.5-2.5 3.5-9.5-2.5 2.5-3.5Zm-559 2 4.5 2.5-.5 1.5-2.5-1.5-.5-1.5-1-1Zm6 3 5.5.5-5.5.5v-1Zm-219 1 1.5.5-.5 1.5-1.5.5 4.5 7.5 10.5 5.5-1.5-.5-14.5-8.5 1.5-6.5Zm3 0h60l13.5 9.5-1.5-.5-12-8-60-1Zm-217 6 139.5.5-139.5.5v-1Zm957 6 55.5.5-55.5.5-8.5 5.5-1 4 71 1-71.5.5-.5-3.5 2.5-3.5 8-5Zm57 0 14.5 11.5-.5 3.5-8.5-2.5 2.5-.5 5 1-3.5-4.5-1.5-2.5-8-6Zm-715 2 4.5 9.5-21.5 18.5 1-2 18.5-15.5 1-5-3.5-5.5Zm-67 3 8.5 4.5-1.5-.5-7-4Zm12 6 8.5 4.5-1.5-.5-7-4Zm12 6 8.5 4.5-1.5-.5-7-4Zm12 6 8.5 4.5-1.5-.5-7-4Zm10 5 1.5.5-1.5.5v-1Zm548 2 9.5.5-8 1 3.5 4.5 9.5 4.5-1.5.5-14.5-9.5 1.5-1.5Zm11 1 18.5 10.5-1.5.5-3-4-14-7Zm5 10 6.5 3.5-2.5.5-4-4Zm8 3 1.5.5-1.5.5v-1Zm176 16 .5 2.5-1 2 .5 1.5-3.5-1.5 1.5-3.5 2-1Zm22 0 2 1 34-1h2l4.5 2.5.5 1.5 7 5 6.5 2.5-2.5.5-6-2 5 6 2.5.5-.5 1.5-4.5-2.5-.5-1.5-7-5-2.5-1.5-2.5-3.5-31-2-8 1-2.5-.5 3.5-2.5Zm42.5 4-1 3 4 1-3-4Zm-177.5-3 16.5 10.5-1.5.5-15-10-3 4-33-2-1.5.5 16.5-1.5 11 1 10-3Zm75 0 4.5 3.5-4.5 1.5-1.5-3.5 1.5-1.5Zm18 0 4.5 3.5-4.5 1.5-1.5-3.5 1.5-1.5Zm-52 1 2.5.5-.5 2.5-3 1-.5-2.5 1.5-1.5Zm15 0 5.5 2.5-4.5 1.5-1-4Z"/><path fill="#0B0B40" stroke="#0B0B40" stroke-width="3" d="m1228.5 334 1.5 2.5-4.5 11.5h-166l-4.5-3.5 2.5 1.5 168 1 1.5-8.5-1.5-.5-7 4v-1l10-7Zm67 0 .5 1.5-1.5.5 1-2Zm-1003 2h154l9.5 2.5-5.5.5-4-2h-151l-.5 1.5 3.5 2.5 30.5.5-30.5.5-6.5-2.5-1-2 1.5-1.5Zm505 0 74.5 1.5-4.5 6.5-6.5 4.5-1.5 3.5-.5-1.5 5.5-6.5 5.5-4.5-.5-2.5-70.5.5 1.5 2.5 32.5 1.5-31.5.5-5.5-4.5 1.5-1.5Zm503 0 45.5 1.5-2.5 3.5-28 1v-1h25l3.5-2.5-42.5-1.5-3 1v-1l2-1Zm-349 1 3.5.5-3.5.5v-1Zm5 1 17.5 8.5-2.5.5-15-9Zm-499 1 4 5 10.5 3.5-.5 5.5-5 1-10.5-5.5 1.5-.5 12 5 1.5-5.5-12-4-1.5-4.5Zm493 0 .5 2.5h-1l.5-2.5Zm344 0-1 2-1.5-.5 2.5-1.5Zm130 2 1.5 2.5h-1l-.5-2.5Zm-1094 1 24 19 1-5 8.5 10.5h-2l-.5 1.5-2 1-29-27Z"/><path fill="#0B0B40" stroke="#0B0B40" stroke-width="3" d="m834.5 342 24 19 1-5 8.5 10.5h-2l-.5 1.5-2 1-29-27Zm241 0 21.5.5-21.5.5v-1Zm42 0 99.5.5-99.5.5v-1Zm194 0 2.5.5q-6.44 7.56-22.5 5.5v-1q14.46 1.96 20-5Zm-950 5 93.5.5-93.5.5v-1Zm549 0 2.5 1.5-2 3 1.5 2.5 2.5.5-2 3 9.5 2.5 4-6 1.5.5 1 3-5 4-.5 2.5-4 1-3-5-4.5.5.5 1.5-2.5 1.5-1.5 4.5-2 1-1.5-3.5 2-13-1-2 4.5-3.5Zm66 0 10.5 5.5 3.5 4.5 21.5 1.5-18.5.5-7.5-4.5-1.5-3.5-8-4Zm408 0 2.5 1.5q-6.25 2.25-4 13l1 5-3.5 2.5-1.5-3.5 2-13-1-2 4.5-3.5Zm-1026 1 1.5.5-2.5 1.5 1-2Zm571 0 7.5.5-4.5 2.5-3-3Zm468 0 7.5.5-5.5 2.5-2-3Zm-432 2 24.5 12.5-1.5.5-23-13Zm343 0-1 2-5 2v-1l6-3Zm2 1 2.5.5 1 15h-1l-1.5-14.5-1-1Zm106 0 5.5 6.5-3 2 2-3-4.5-5.5Z"/><path fill="#0B0B40" stroke="#0B0B40" stroke-width="3" d="m932.5 353 3.5 2.5 3.5 15.5 4.5 1.5-2 6 4 5-9.5 6.5 1-2 6.5-4.5-.5-1.5-8.5-5.5-2.5-3.5-7-2-5 4-1-2-1.5-.5-1-4 4.5-2.5 6 2 3.5-2.5 1-4-2-5 2.5-3.5Z"/><path fill="#0B0B40" stroke="#0B0B40" stroke-width="3" d="m937.5 353 4.5 14.5h-1l-3.5-14.5Zm448 0 .5 6.5h-1l.5-6.5Zm11 0-.5 1.5-1.5 2.5.5-1.5 1.5-2.5Zm4 0 2.5 1.5 1 4-2 4 2.5 4.5 2 1 4-1 3 4 4.5 1.5-2 6 4 5-9.5 6.5 1-2 6.5-4.5-.5-1.5-8.5-5.5-2.5-3.5-7-2-5 4-1-2-1.5-.5-2-6 4-3 6.5-10.5Zm-342 1 242.5.5-242.5.5-6 2v-1l6-2Z"/><path fill="#0B0B40" stroke="#0B0B40" stroke-width="3" d="m1406.5 354 1.5.5 3.5 5.5 6.5.5-2.5 3.5-5.5-.5-.5-2.5-4.5-3.5 1.5-3.5Zm-393 3 11.5.5-11.5.5v-1Zm34 0 3.5.5-24.5 1.5v-1l21-1Zm-56 6 5.5.5-5.5.5v-1Zm23 0 9 3 8-3v1l-10 3-7-4Zm36 0 9 2 241.5.5-241.5.5-9-3Zm365 2 .5 2.5h-1l.5-2.5Zm-113 1 2.5 1.5-1.5-.5-1-1Zm-398 3-1 2-3 1v-1l4-2Zm474 0-1 2-5.5 3.5 1 5-3-2 2.5-5.5 6-3Zm55 0 .5 1.5-3.5 2.5 3-4Zm-536 3 1.5.5-2 1 5.5 8.5 8.5 1.5-6.5.5-7.5-5.5-1-5 1.5-1.5Zm421 0 7 1 2-1 3.5 2.5-2.5.5q-11.91-2.41-15.5 3.5l-8.5 12.5h-2l-2 1-1-2-1.5.5 9.5-12.5.5 2.5-2 4 2.5.5 8-11 1.5-.5.5-1.5Zm112 2 2.5 3.5-3-2 .5-1.5Zm-352 4 1.5.5-15.5 10.5v-1l14-10Zm3 0 201.5.5-201.5.5v-1Zm203 0 2.5 1.5.5 1.5 1.5.5-1.5.5-3.5-2.5.5-1.5Zm150 0 32.5 17.5-3.5-2.5-29-15Zm-61 3 1 2 8.5 1.5-4 6-2.5 4.5-5.5-4.5-2-4 4.5-5.5Zm-85 2 .5 4.5-50.5 51.5-4-1-10 6v-1l46-42 3 1 11.5-10.5 3.5-8.5Zm-376 1 11.5 4.5-.5 1.5-11-6Zm474 0 11.5 4.5-.5 1.5-11-6Zm-335 1 8.5 3.5-1.5.5-8.5-2.5 1.5-1.5Zm304 0 5.5 3.5-2.5 6.5-5.5-4.5-2-3 4.5-2.5Zm-360 1h2l2.5 1.5-1.5 2.5-3-4Zm53 1-1 2-3 1v-1l4-2Zm-123 2 9.5.5-9.5.5v-1Zm136 0 1.5.5-1.5.5v-1Zm338 0 9.5.5-9.5.5v-1Zm-388 1 31.5.5-31.5.5-6.5 3.5 2.5 3.5 1.5.5-.5 1.5q-9.5-4-3-8l6-2Zm-40 1 5.5 3.5-2.5 6.5-4.5-3.5-3-4 4.5-2.5Zm18 0 5.5 3.5-2.5 6.5-4.5-3.5-3-4 4.5-2.5Zm358 0 2.5 4.5-1.5 3.5-1.5.5-.5 1.5-2 1h-2l-30.5-1.5 1.5-4.5 28 2 3.5-2.5 1.5-2.5 1.5-.5-.5-1.5Zm-32.5 6-2 4h24v-1q-6-7-22-3Z"/><path fill="#0B0B40" stroke="#0B0B40" stroke-width="3" d="m1021.5 395 27.5.5-27.5.5v-1Zm54 0 189.5.5-189.5.5v-1Zm-57 1 1.5.5-7.5 4.5-2.5-1.5 8.5-3.5Zm54 0 1.5.5-9 6-13.5 19.5 5.5-6.5 11.5-17.5 4-2Zm-54 6 30.5.5q-27.05-4.05-40.5 5.5v-1l10-5Zm414 0 1.5.5-11.5 5.5v-1l10-5Zm3 0 27.5.5-27.5.5v-1Zm-1433 1 9.5 4.5-1.5.5-9.5-3.5 1.5-1.5Zm1286 0 7.5 4.5-1.5.5-8.5-3.5 2.5-1.5Zm-880 1 11.5 3.5-1.5.5-10-3-6 3v-1l6-3Zm876 0 .5 1.5-5 4-3 5 2 1-3.5.5-2.5-.5 11.5-11.5Zm-1195 1 2.5 1.5-2.5 5.5-5 2h-2l-57.5-.5 57.5-.5 8.5-4.5-.5-1.5-7 2h-70v-1h70l6-3Zm408 0 2.5 1.5-2.5 5.5-5 2h-2l-57.5-.5 57.5-.5 8.5-4.5-.5-1.5-7 2h-70v-1h70l6-3Zm-361 1 76.5 3.5-1.5 4.5-67-1-2 1-3.5-2.5-.5-1.5-2.5-.5v-2l.5-1.5Zm1.5 1 8 6h65l1-2-74-4Zm406.5-1 8 2 164.5 1.5-1.5 4.5-163-1-2 1-3.5-2.5-.5-1.5-2.5-.5v-2l.5-1.5Zm1.5 1 8 6h161l1-2-163-2-7-2Zm-192.5 1h2l45.5.5-46 2 1.5 2.5 26.5.5-27.5.5-2.5-.5v-2l1-2-.5-1.5Zm504 0h2l147.5.5-148 2 1.5 2.5 26.5.5-27.5.5-2.5-.5v-2l1-2-.5-1.5Zm440 0 123.5.5-123.5.5v-1Zm-12 5 15.5.5-15.5.5v-1Zm-1263 1 1.5.5-2.5 1.5 1-2Zm362 0 16.5 5.5-6.5.5-10-6Zm46 0 1.5.5-2.5 1.5 1-2Zm458 0 10 5 114.5.5-114.5.5-10-6Zm393 0 2.5.5-3.5 1.5 1-2Zm21 0 10 5 114.5.5-114.5.5-10-6Zm-895 2 1.5.5-6.5 3.5 1-2 4-2Zm861 4 6 8 3.5.5-4.5.5-5-6-24 20v-1l24-22Zm-961 6q31.74-3.24 53.5 3.5l-9.5.5q-6.9-5.1-21-3l-.5 1.5 2.5 3.5q-8.15-6.85-25.5-4.5l.5-1.5Zm86 0 21.5.5-43.5 3.5v-1l22-3Zm418 0q31.74-3.24 53.5 3.5l-9.5.5q-6.9-5.1-21-3l-.5 1.5 2.5 3.5q-8.15-6.85-25.5-4.5l.5-1.5Z"/><path fill="#0B0B40" stroke="#0B0B40" stroke-width="3" d="m897.5 426 115.5.5 2.5 3.5 1.5.5.5 1.5 20.5 3.5-.5 3.5-12-1-4.5 3.5-1 7 7.5 1.5 10-7 .5 1.5-5.5 9.5-2.5.5-3.5 11.5-1.5-9.5 1-4-10.5-3.5-7.5 4.5.5 2.5 1.5.5.5 1.5 1.5-.5-.5-1.5 2.5.5-6 16 .5 1.5-4.5-.5-6.5-11.5-11.5-6.5-4-5 2.5-.5q4.76 7.24 18 6l9.5-7.5 2-14-1.5-3.5q-31.54-6.46-73-3l-4.5 3.5 2 1-3.5 17.5-2.5-1.5-5.5-10.5-29.5.5-1.5 2.5-1-3-5.5 1.5 1.5 10.5 23.5.5-1 3 4 2q-19.65-2.65-27.5 6.5l-1-6-17.5 14.5 1.5 3.5 23.5.5-1 3 1.5 2.5q-18.31-2.81-25 6l-1-6q-15.79.21-20.5 11.5l-3 7 3.5 5.5q34.03 4.53 47.5-11.5l2.5-5.5 1 2 12.5-7.5-1-3 .5-2.5 2.5-1.5 3-17-.5-1.5 6.5 3.5.5 2.5 3.5-.5 1.5-4.5.5 4.5-6 3-3.5 9.5-2.5 1.5 1.5 4.5h29q4.76-7.24 18-6l-.5 1.5 3 6-1.5-.5-8-1-11 6h-37L894 500.5l1.5 3.5h47q5.09-7.41 19-6l-4.5 5.5-3.5 6.5-479.5-.5-1.5-5.5-8.5-.5 4-2-.5-3.5-3.5-.5 7.5-4.5 7.5 4.5-2 1 4.5 5.5 2.5-1.5 2-4-1-3-5.5-7.5-3.5-1.5 4-1-7.5-2.5-4.5 2.5 4 1-7.5 4.5-6.5-4.5 4-1-10.5-3.5-1.5 2.5.5 1.5h-43L390 500.5l1.5 3.5h47q5.09-7.41 19-6l-4.5 5.5-3.5 6.5-377.5-.5-18-23 3-1 1-4-9-1 33.5-.5v1l-12.5.5 9 8 3.5 4.5 3.5-.5-2-1 245.5-.5 5 1 6.5-4.5-.5-1.5 2 1v-2l5-3 9.5-6.5.5-2.5 3 1 1.5-3.5h-1l-.5 1.5-.5-1.5 3-2 4-6-.5-1.5 1.5-.5-.5-1.5 2.5-.5 5-8 2.5-18.5h43l11 4 4-2h258v1h-258l-4.5 2.5-1.5 3.5-2.5-1.5-.5-1.5-34-1-2 3-1-3-5.5 1.5 1.5 10.5 23.5.5-1 3 4 2q-19.65-2.65-27.5 6.5l-1-6-17.5 14.5 1.5 3.5 23.5.5-1 3 1.5 2.5q-18.31-2.81-25 6l-1-6q-15.79.21-20.5 11.5l-3 7 3.5 5.5q34.03 4.53 47.5-11.5l2.5-5.5 1 2 12.5-7.5-1-3 .5-2.5 2.5-1.5 3-17-.5-1.5 6.5 3.5.5 2.5 4.5.5-5 2-3.5 9.5-2.5 1.5 1.5 4.5 28-1 3 1 1-3 1.5-.5-.5-1.5 2 5 40.5.5-13 1 9 8 3.5 4.5 3.5-.5-2-1 341.5-.5 5 1 6.5-4.5-.5-1.5 2 1v-2l5-3 9.5-6.5.5-2.5 3 1 1.5-3.5h-1l-.5 1.5-.5-1.5 3-2 4-6-.5-1.5 1.5-.5-.5-1.5 2.5-.5 5-8 2.5-18.5 50.5-1.5 2-4-36.5-.5q-6.31 6.19-22 3v-1l22-3ZM358 475v1h1l-1-1Zm504 0v1h1l-1-1Zm-452 3-1 3h1v-3Zm504 0-1 3h1v-3Zm-453 3 3 3 6-2-9-1Zm-397 1-5 4 2 1-1 3 11 8-2 1 3 4 3 1 2-4 1-3-2-4-8-6 4-1-8-4Zm37 11 4 2 5-1-9-1Zm30 0 4 2 5-1-9-1Zm54 0 4 2 5-1-9-1Zm30 0 4 2 5-1-9-1Zm30 0 4 2 5-1-9-1Zm30 0 4 2 5-1-9-1Zm30 0 4 2 5-1-9-1Zm204 0 4 2 5-1-9-1Zm30 0 4 2 5-1-9-1Zm30 0 4 2 5-1-9-1Zm30 0 4 2 5-1-9-1Zm30 0 4 2 5-1-9-1Zm30 0 4 2 5-1-9-1Zm30 0 4 2 5-1-9-1Zm30 0 4 2 5-1-9-1Zm30 0 4 2 5-1-9-1Zm30 0 4 2 5-1-9-1Zm30 0 4 2 5-1-9-1Zm-728 5-3 6h8l16-1 6 1h2l22-1 6 1h2l46-1 6 1h2l22-1 6 1h2l22-1 6 1h2l22-1 6 1h2l22-1 6 1h2l22-1 6 1v-3l-5-3h-2l-22 1-6-1h-2l-22 1-6-1h-2l-22 1-6-1h-2l-22 1-6-1h-2l-22 1-6-1h-2l-46 1-6-1h-2l-22 1-6-1h-2l-16 1-4-1Zm408 0-3 6h8l16-1 6 1h2l22-1 6 1h2l22-1 6 1h2l22-1 6 1h2l22-1 6 1h2l22-1 6 1h2l22-1 6 1h2l22-1 6 1h2l22-1 6 1h2l22-1 6 1h2l22-1 6 1h2l22-1 6 1v-3l-5-3h-2l-22 1-6-1h-2l-22 1-6-1h-2l-22 1-6-1h-2l-22 1-6-1h-2l-22 1-6-1h-2l-22 1-6-1h-2l-22 1-6-1h-2l-22 1-6-1h-2l-22 1-6-1h-2l-22 1-6-1h-2l-22 1-6-1h-2l-16 1-4-1Z"/><path fill="#0B0B40" stroke="#0B0B40" stroke-width="3" d="m1311.5 426 115.5.5 2.5 3.5 1.5.5.5 1.5 20.5 3.5-.5 3.5-12-1-4.5 3.5-1 7 7.5 1.5 10-7 .5 1.5-5.5 9.5-2.5.5-3.5 11.5-1.5-9.5 1-4-10.5-3.5-7.5 4.5.5 2.5 1.5.5.5 1.5 1.5-.5-.5-1.5 2.5.5-6 16 .5 1.5-4.5-.5-6.5-11.5-11.5-6.5-4-5 2.5-.5q4.76 7.24 18 6l9.5-7.5 2-14-1.5-3.5q-31.54-6.46-73-3l-4.5 3.5 2 1-3.5 17.5-2.5-1.5-5.5-10.5-29.5.5-1.5 2.5-1-3-5.5 1.5 1.5 10.5 23.5.5-1 3 4 2q-19.65-2.65-27.5 6.5l-1-6-17.5 14.5 1.5 3.5 23.5.5-1 3 1.5 2.5q-18.31-2.81-25 6l-1-6q-15.79.21-20.5 11.5l-3 7 3.5 5.5q34.03 4.53 47.5-11.5l2.5-5.5 1 2 12.5-7.5-1-3 .5-2.5 2.5-1.5 3-17-.5-1.5 6.5 3.5.5 2.5 3.5-.5 1.5-4.5.5 4.5-6 3-3.5 9.5-2.5 1.5 1.5 4.5h29q4.76-7.24 18-6l-.5 1.5 3 6-1.5-.5-8-1-11 6h-37l-17.5 14.5 1.5 3.5h47q5.09-7.41 19-6l-4.5 5.5-3.5 6.5-389.5-.5-1.5-5.5-6.5-.5 4.5-5.5-1.5-.5 7.5-4.5 3.5 2.5 1.5 2.5q16.54-1.96 22.5-14.5l-1-3 3.5-.5.5 5.5-3 7 2.5.5 237-1 5 1 6.5-4.5-.5-1.5 2 1v-2l5-3 9.5-6.5.5-2.5 3 1 1.5-3.5h-1l-.5 1.5-.5-1.5 3-2 4-6-.5-1.5 1.5-.5-.5-1.5 2.5-.5 5-8 2.5-18.5 50.5-1.5 2-4-36.5-.5q-6.31 6.19-22 3v-1l22-3Zm-35.5 49v1h1l-1-1Zm52 3-1 3h1v-3Zm-315 15 4 2 5-1-9-1Zm30 0 4 2 5-1-9-1Zm30 0 4 2 5-1-9-1Zm30 0 4 2 5-1-9-1Zm30 0 4 2 5-1-9-1Zm30 0 4 2 5-1-9-1Zm30 0 4 2 5-1-9-1Zm30 0 4 2 5-1-9-1Zm-225 5-2 5 17 1h2l6-1 22 1h2l6-1 22 1h2l6-1 22 1h2l6-1 22 1h2l6-1 22 1h2l6-1 22 1h2l6-1 22 1h2l6-1 22 1h7l-2-6-4 1-22-1h-2l-6 1-22-1h-2l-6 1-22-1h-2l-6 1-22-1h-2l-6 1-22-1h-2l-6 1-22-1h-2l-6 1-22-1h-2l-6 1-22-1h-2l-6 1-16-1Zm-776.5-70 16.5 15.5 1 2-17.5-17.5Zm504 0 16.5 15.5 1 2-17.5-17.5Zm-376 6-2.5 3.5-1.5 4.5-.5-2.5 4.5-5.5Zm504 0-2.5 3.5-1.5 4.5-.5-2.5 4.5-5.5Z"/><path fill="#0B0B40" stroke="#0B0B40" stroke-width="3" d="m1267.5 434-2.5 3.5-1.5 4.5-.5-2.5 4.5-5.5Zm-1240 1 162.5.5-162.5.5-4 2 1-2 3-1Zm165 1 23.5 1.5-20.5.5-3-2Zm504 0 23.5 1.5-20.5.5-3-2Zm-324 1 .5 12.5h-1l.5-12.5Zm504 0 .5 12.5h-1l.5-12.5Zm414 0 .5 12.5h-1l.5-12.5Zm-932 3 .5 2.5-1.5 2.5-.5-1.5 1.5-3.5Zm504 0 .5 2.5-1.5 2.5-.5-1.5 1.5-3.5Zm414 0 .5 2.5-1.5 2.5-.5-1.5 1.5-3.5Zm-223 2 2.5 1.5-1.5.5-1-2Zm-709 1 .5 1.5h-1l.5-1.5Zm504 0 .5 1.5h-1l.5-1.5Zm414 0 .5 1.5h-1l.5-1.5Zm-1053 1 .5 1.5-2 6 2 4h-1l-3-6 2-3-.5-1.5 1.5.5.5-1.5Zm2 0 3.5.5-3.5.5v-1Zm5 0 21.5 18.5 2 8h-1q-3.37-16.12-16.5-22.5l-6-4Zm213 0 2.5 7.5h-1l-.5-3.5-6 2 5-6Zm284 0 .5 1.5-2 6 2 4h-1l-3-6 2-3-.5-1.5 1.5.5.5-1.5Zm2 0 3.5.5-3.5.5v-1Zm5 0 21.5 18.5 2 8h-1q-3.37-16.12-16.5-22.5l-6-4Zm337 0 165.5.5-165.5.5v-1Zm-701 2-1.5 2.5-3.5 4.5 2.5-3.5 2.5-3.5Zm504 0-1.5 2.5-3.5 4.5 2.5-3.5 2.5-3.5Zm414 0-1.5 2.5-3.5 4.5 2.5-3.5 2.5-3.5Zm-1251 1 .5 4.5h-1l.5-4.5Zm319 1-3 4-4.5 3.5-1.5 2.5-.5-1.5 2.5-3.5 7-5Zm504 0-3 4-4.5 3.5-1.5 2.5-.5-1.5 2.5-3.5 7-5Zm414 0-3 4-4.5 3.5-1.5 2.5-.5-1.5 2.5-3.5 7-5Zm-205 1 65.5.5-65.5.5v-1Zm152 0 22.5.5-22.5.5v-1Zm-283 1 2.5 1.5-1.5-.5-1-1Zm47 0 7.5.5-1 3 3 4-1.5-.5-8-1q-11.88 11.12-40 6l-.5-1.5 2.5-4.5q26.76 4.76 38-6Zm151 0 2.5 1.5-1.5-.5-1-1Zm82 0 1.5.5-9.5 2.5v-1l8-2Zm134 0 2.5 1.5-1.5-.5-1-1Zm47 0 7.5.5-1 3 3 4-1.5-.5-8-1q-11.88 11.12-40 6l-.5-1.5 2.5-4.5q26.76 4.76 38-6Zm-1134 2 5.5 2.5-.5 1.5-1.5-.5-1.5-2.5-2-1Zm120 0-.5 1.5-.5 1.5-.5-1.5 1.5-1.5Zm384 0 5.5 2.5-.5 1.5-1.5-.5-1.5-2.5-2-1Zm120 0-.5 1.5-.5 1.5-.5-1.5 1.5-1.5Zm414 0-.5 1.5-.5 1.5-.5-1.5 1.5-1.5Zm-113 1 5.5.5-8.5 2.5 1-2 2-1Zm-1152 3 2.5 4.5-2-1-.5-3.5Zm23 0 .5 1.5-2 4 9 5-4.5.5-5.5-4.5 1-4-.5-1.5 1.5.5.5-1.5Zm2 0 3.5.5-3.5.5v-1Zm5 0 2.5 1.5.5 1.5 1.5.5-1.5.5-3.5-2.5.5-1.5Zm378 0 1.5 3.5-1.5-.5-6 1v-1l6-3Zm23 0 .5 1.5-2 4 9 5-4.5.5-5.5-4.5 1-4-.5-1.5 1.5.5.5-1.5Zm2 0 3.5.5-3.5.5v-1Zm5 0 2.5 1.5.5 1.5 1.5.5-1.5.5-3.5-2.5.5-1.5Zm688 1 7.5 13.5h-1l-6.5-13.5Zm-168 1 3.5 1.5-1.5.5-2-2Zm414 0 3.5 1.5-1.5.5-2-2Zm-1186 2 .5 9.5h-1l.5-9.5Zm123 0 5.5 2.5-4.5.5-1-3Zm381 0 .5 9.5h-1l.5-9.5Zm123 0 5.5 2.5-4.5.5-1-3Zm291 0 .5 9.5h-1l.5-9.5Zm123 0 5.5 2.5-4.5.5-1-3Zm-1193 1 .5 1.5h-1l.5-1.5Zm408 0 .5 1.5h-1l.5-1.5Zm-409 3 1.5.5-2 1-.5 1.5-.5-1.5 1.5-1.5Zm408 0 1.5.5-2 1-.5 1.5-.5-1.5 1.5-1.5Zm-365 4 2 1 52-1 2.5.5v2l-1 2 .5 1.5h-2l-51.5-.5 52-2-1.5-2.5h-50l-19 11v-1l11-8 1.5.5 1.5-2.5 2-1Zm408 0 2 1 130-1h2l4.5 2.5.5 1.5 7 5 5.5 2.5-1.5.5-18-11h-129l-19 11v-1l11-8 1.5.5 1.5-2.5 2-1Zm542 0 5 1 2-1 3.5 2.5.5 1.5 7 5 5.5 2.5-1.5.5-22-12Zm389 3-1.5 2.5-.5 1.5-7 5-3-4-3.5-1.5q12.13 2.63 15.5-3.5Z"/><path fill="#0B0B40" stroke="#0B0B40" stroke-width="3" d="m511.5 473 129.5.5-129.5.5v-1Zm531 0 12.5.5-12.5.5v-1Zm-72 1 20 6 6.5-3.5 1.5-2.5 3.5 2.5.5 1.5 3.5 1.5q-13.62 1.38-18.5 11.5l-3.5-2.5-.5-2.5-9.5-6.5-3.5-5.5Zm40 0 13.5.5-2 1 1 2-1.5-.5-1.5.5-.5 1.5-5.5-1.5-.5-1.5-3-2Zm374 0 20 6 6.5-3.5 1.5-2.5 3.5 2.5.5 1.5 3.5 1.5q-13.62 1.38-18.5 11.5l-3.5-2.5-.5-2.5-9.5-6.5-3.5-5.5Zm-1339 4 2.5 1.5-1.5.5-1-2Zm161 0-1 2-1.5-.5 2.5-1.5Zm504 0-1 2-1.5-.5 2.5-1.5Zm414 0-1 2-1.5-.5 2.5-1.5Zm-1021 2 99.5.5-99.5.5v-1Zm408 0 129.5.5-129.5.5v-1Zm150 0 45.5.5-45.5.5v-1Zm363 0 30.5.5-30.5.5v-1Zm51 0 45.5.5-45.5.5v-1Z"/><path fill="#0B0B40" stroke="#0B0B40" stroke-width="3" d="m1421.5 480 5.5 2.5-17.5 18.5-11.5 3.5-.5 5.5-5.5-.5-1.5-5.5-6.5-.5 4.5-5.5-1.5-.5 7.5-4.5 3.5 2.5 1.5 2.5q16.54-1.96 22.5-14.5l-.5-3.5Zm-451 2 3.5 1.5-1.5.5-2-2Zm414 0 3.5 1.5-1.5.5-2-2Zm-1027 10 2.5.5-.5 5.5-5.5-.5 3.5-5.5Zm504 0 2.5.5-.5 5.5-5.5-.5 3.5-5.5Zm414 0 2.5.5-.5 5.5-5.5-.5 3.5-5.5Z"/><path fill="#292858" stroke="#292858" stroke-width="3" d="m569.5 6 11.5.5L517.5 30h-8l-10 6h-8l-10 6h-8l-10 6h-8l-10 6h-8l-10 6h-12v-1l154-53Z"/><path fill="#292858" stroke="#292858" stroke-width="3" d="m605.5 59 6.5 9.5v12l-3.5 3.5h-140L455 77.5l1-4-77-2L408.5 60l-.5 1.5.5 3.5 48 1 18 12h105l11-17 15-2ZM595 66l-4 2-3 8q3 5 16 2l2-10-11-2Zm203.5 18 11.5 3.5-.5 1.5-3.5 2.5-4.5 8.5-10 2-4.5-3.5-1-3 6.5-8.5 6-3Zm-.5 6-4 2-2 3 11 1 1-5-6-1Zm-341.5-5 12.5 5.5-1 4 .5 1.5-12.5-9.5.5-1.5Zm161 5q10.25-2.25 12.5 3.5l-.5 2.5-12.5-.5 1-4-.5-1.5Zm228 0h309l3.5 3.5-1.5 2.5h-28l-13 6q-24.63-3.63-36 6h-155l-13-6h-29l-13-6q-19.79 4.29-28.5-2.5l.5-1.5 4-2Zm-202 6L774 97.5l-1.5 4.5h-125l-5.5-3.5 1.5-2.5Zm-282 6 262.5 1.5-1.5 2.5-4 2h-258l-.5-4.5 1.5-1.5Zm22 18 7.5.5-1 4 19 2-1 2 6.5 3.5h53l47.5 44.5-.5 1.5-26 2L378 124.5l1.5-2.5 4-2Zm216 0q17.69-3.69 24.5 3.5l-1.5 2.5-23.5-.5 1-4-.5-1.5Zm210 84 31.5.5-1 4 .5 1.5-31.5-.5 1-4-.5-1.5Zm36 0 7.5.5-1 4 .5 1.5-7.5-.5 1-4-.5-1.5Zm67 12 5.5 2.5-.5 2.5-5.5-2.5.5-2.5Zm8 133 1.5.5 2 9-6.5 1.5-4.5-2.5 2.5-3.5 2.5-1.5 2.5-3.5Zm492 0 8.5 7.5-2.5 3.5-8.5-1.5 2.5-9.5Zm-421 83 21.5.5 1 12-7.5 9.5-5 2 .5-1.5q2.08-16.08-7.5-20.5l-3-2Zm414 0 21.5.5 1 12-7.5 9.5-5 2 .5-1.5q2.08-16.08-7.5-20.5l-3-2Zm-1013 6 4.5.5-1 10 .5 1.5-7.5-.5 3.5-11.5Zm27 0 6.5 1.5-2.5 10.5-6.5-.5 3-10-.5-1.5Zm477 0 4.5.5-1 10 .5 1.5-7.5-.5 3.5-11.5Zm27 0 4.5 2.5 4 9-2 1-.5 2.5-8.5-3.5 3-10-.5-1.5Zm102 0 1.5.5-1 10 2 1-6.5.5-1.5-6.5 3.5-4.5 2-1Zm285 0 4.5.5-1 10 .5 1.5-7.5-.5 3.5-11.5Zm27 0 4.5 2.5 4 9-2 1-.5 2.5-8.5-3.5 3-10-.5-1.5Zm102 0 1.5.5-1 10 2 1-6.5.5-1.5-6.5 3.5-4.5 2-1Zm-468 18 17.5 5.5-12.5.5-7.5-4.5 2.5-1.5Zm414 0 17.5 5.5-12.5.5-7.5-4.5 2.5-1.5Zm-1002 3 1 3 1.5.5-1.5 3.5-1-3-3 5-1.5.5-1 4 .5 1.5-9.5-.5 14.5-14.5Zm504 0 1 3 1.5.5-1.5 3.5-1-3-3 5-1.5.5-1 4 .5 1.5-9.5-.5 14.5-14.5Zm414 0 1 3 1.5.5-1.5 3.5-1-3-3 5-1.5.5-1 4 .5 1.5-9.5-.5 14.5-14.5Zm-286 2 .5 1.5-3 1-2.5 4.5-2 1-.5-1.5 3.5-5.5 4-1Zm414 0 .5 1.5-3 1-2.5 4.5-2 1-.5-1.5 3.5-5.5 4-1Zm-1016 1 .5 6.5-3.5 5.5-7.5-.5 9-7 1.5-4.5Zm504 0 .5 6.5-3.5 5.5-7.5-.5 9-7 1.5-4.5Zm78 0 4.5 2.5 2 9-5 2-.5 1.5-11 3v-1l7.5-5.5 3-10-.5-1.5Zm336 0 .5 6.5-3.5 5.5-7.5-.5 9-7 1.5-4.5Zm78 0 4.5 2.5 2 9-5 2-.5 1.5-11 3v-1l7.5-5.5 3-10-.5-1.5Zm-384 1 .5 7.5-8.5 3.5 6.5-7.5 1.5-3.5Zm414 0 .5 7.5-8.5 3.5 6.5-7.5 1.5-3.5Zm-1019 1 1.5.5-1.5.5v-1Zm504 0 1.5.5-1.5.5v-1Zm414 0 1.5.5-1.5.5v-1Zm-379 16 24.5 6.5 1.5 3.5 2 1 2.5-1.5-1.5 2.5-4.5.5-.5 2.5-3-2-13 5v-1l10.5-8.5-1.5-2.5q-14.25 2.25-19.5-4.5l2.5-1.5Zm41 0 1.5.5-1.5.5v-1Zm373 0 24.5 6.5 1.5 3.5 2 1 2.5-1.5-1.5 2.5-4.5.5-.5 2.5-3-2-13 5v-1l10.5-8.5-1.5-2.5q-14.25 2.25-19.5-4.5l2.5-1.5Zm41 0 1.5.5-1.5.5v-1Zm-1060 2 1.5.5-10.5 9.5 9-10Zm504 0 1.5.5-10.5 9.5 9-10Zm414 0 1.5.5-10.5 9.5 9-10Zm-907 1 1 3 1.5.5-1.5 3.5-1-3-4 6-4-1-3.5 5.5 5.5.5h2l21.5.5q-11.79 9.71-37.5 5.5l-3.5-7.5 2-1-1 2 7.5.5 12.5-11.5 2.5-3.5Zm504 0 1 3 1.5.5-1.5 3.5-1-3-4 6-4-1-3.5 5.5 5.5.5h2l21.5.5q-11.79 9.71-37.5 5.5l-3.5-7.5 2-1-1 2 7.5.5 12.5-11.5 2.5-3.5Zm414 0 1 3 1.5.5-1.5 3.5-1-3-4 6-4-1-3.5 5.5 5.5.5h2l21.5.5q-11.79 9.71-37.5 5.5l-3.5-7.5 2-1-1 2 7.5.5 12.5-11.5 2.5-3.5Zm-1217 3 2.5 1.5-1.5-.5-1-1Zm390 0 2.5 1.5-1.5-.5-1-1Zm16 0 4.5 1.5-1.5-.5-4 1 1-2Zm-402 2 5.5 4.5 2 4-2-1-4.5-6.5-1-1Zm398 0 1.5.5-5.5 3.5-2-3 3 2 3-3Zm10 0 5.5 4.5 2 4-2-1-4.5-6.5-1-1Zm-8 4 3.5 2.5-2.5-1.5-9 5v-1l8-5Zm-399 5 6.5 1.5-3.5 5.5-2.5-1.5-3-4 2.5-1.5Zm408 0 6.5 1.5-3.5 5.5-1.5-.5-4-5 2.5-1.5Zm-26 7 13.5.5-5 3-.5 2.5-11.5-.5 3.5-5.5Zm504 0 13.5.5-5 3-.5 2.5-11.5-.5 3.5-5.5Zm414 0 13.5.5-5 3-.5 2.5-11.5-.5 3.5-5.5Z"/><path fill="#41496B" stroke="#41496B" stroke-width="3" d="M581.5 6 594 8.5l6 16v13l6 11v10q-16.6-1.1-22 9L579.5 78h-105l-18-12-48.5-1.5 1.5-4.5h18l10-6h8l10-6h8l10-6h8l10-6h8l82-30Zm2.5 2-38 18 2 4 14-6v2l30 22 2-1-2-33-8-6Zm-48 22-2 5 5 1 1-4-4-2Z"/><path fill="#41496B" stroke="#41496B" stroke-width="3" d="m594.5 66 11.5 1.5-2.5 10.5q-12.25 3.25-15.5-2.5l2.5-7.5 4-2Zm-226 6 87.5 1.5-1.5 4.5h-86l-2.5-2.5 2.5-3.5Zm101 18L618 91.5l-1.5 4.5L468 94.5l1.5-4.5Zm328 0 6.5.5-1.5 5.5-10.5-1.5 1.5-2.5 4-2Zm-406 30 208.5 1.5-1.5 4.5-208.5-1.5 1.5-4.5Zm547 312h52l8.5 6.5 3 16-5.5 1.5q-7.35-8.65-26-6-11.88 11.12-40 6l-.5-5.5 5.5-1.5 19 1 11.5-9.5-1.5-2.5q-22.33-3.83-28 9l-.5-12.5 2.5-2.5Zm414 0h52l8.5 6.5 3 16-5.5 1.5q-7.35-8.65-26-6-11.88 11.12-40 6l-.5-5.5 5.5-1.5 19 1 11.5-9.5-1.5-2.5q-22.33-3.83-28 9l-.5-12.5 2.5-2.5Zm-966 6 3.5.5-1.5 11.5-4.5-2.5 2.5-9.5Zm15 0 18.5 1.5q1.75 8.75-3.5 10.5l-15.5-.5 1-10-.5-1.5Zm489 0 3.5.5-1.5 11.5-4.5-2.5 2.5-9.5Zm15 0 18.5 1.5q1.75 8.75-3.5 10.5l-15.5-.5 1-10-.5-1.5Zm126 0 6.5 2.5-2.5 3.5-3 2-1-8Zm273 0 3.5.5-1.5 11.5-4.5-2.5 2.5-9.5Zm15 0 18.5 1.5q1.75 8.75-3.5 10.5l-15.5-.5 1-10-.5-1.5Zm126 0 6.5 2.5-2.5 3.5-3 2-1-8Zm-1064 18 2.5.5-15.5 17.5-2.5-2.5 15.5-15.5Zm504 0 2.5.5-15.5 17.5-2.5-2.5 15.5-15.5Zm137 0 3.5 2.5q-1 11.5-9.5 15.5l-8.5-2.5 1.5-3.5 2.5-1.5 1.5-3.5 2.5-.5.5-1.5 3.5-1.5 2.5-3.5Zm-4.5 6-4 4 1 2 2-1 3-4-2-1Zm281.5-6 2.5.5-15.5 17.5-2.5-2.5 15.5-15.5Zm137 0 3.5 2.5q-1 11.5-9.5 15.5l-8.5-2.5 1.5-3.5 2.5-1.5 1.5-3.5 2.5-.5.5-1.5 3.5-1.5 2.5-3.5Zm-4.5 6-4 4 1 2 2-1 3-4-2-1Z"/><path fill="#41496B" stroke="#41496B" stroke-width="3" d="m968.5 458 8 4 19.5 1.5-7.5 14.5-4 2q-7.35-8.65-26-6-11.24 10.76-38 6l-2.5-3.5 4-3 2.5-8.5 10-3v1l-10.5 8.5.5 2.5q19.21 2.71 23.5-9.5l-1-2q15.04 2.04 21.5-4.5Zm414 0 8 4 19.5 1.5-7.5 14.5-4 2q-7.35-8.65-26-6-11.24 10.76-38 6l-2.5-3.5 4-3 2.5-8.5 10-3v1l-10.5 8.5.5 2.5q19.21 2.71 23.5-9.5l-1-2q15.04 2.04 21.5-4.5Zm-969 3-.5 1.5-6.5 9.5-15 2v-1l22-12Zm504 0-.5 1.5-6.5 9.5-15 2v-1l22-12Zm414 0-.5 1.5-6.5 9.5-15 2v-1l22-12Zm-905 1 3.5.5-10 9 .5 2.5 17.5-.5.5-1.5 5.5 4.5-2.5 3.5h-25l-2.5-2.5 2.5-3.5 1.5-.5 2.5-8.5 6-3Zm-43 1 1.5 3.5-1 2 3 5-7.5.5-1.5-3.5 1.5-2.5 2.5-1.5 1.5-3.5Zm504 0 1.5 3.5-1 2 3 5-7.5.5-1.5-3.5 1.5-2.5 2.5-1.5 1.5-3.5Zm414 0 1.5 3.5-1 2 3 5-7.5.5-1.5-3.5 1.5-2.5 2.5-1.5 1.5-3.5Zm-941 17 5.5.5-5.5 8.5-10 9h-7l-.5-1.5 11.5-13.5 6-3Zm504 0 5.5.5-5.5 8.5-10 9h-7l-.5-1.5 11.5-13.5 6-3Zm138 0 5.5 2.5q-6.12 12.38-21.5 15.5l-2.5-5.5 5-1 .5-1.5 1 2 11.5-9.5.5-2.5Zm276 0 5.5.5-5.5 8.5-10 9h-7l-.5-1.5 11.5-13.5 6-3Zm138 0 5.5 2.5q-6.12 12.38-21.5 15.5l-2.5-5.5 5-1 .5-1.5 1 2 11.5-9.5.5-2.5Z"/><path fill="#41496B" stroke="#41496B" stroke-width="3" d="m956.5 482 21.5 5.5-7.5 8.5-18 2-11 6h-45l-2.5-2.5 12.5-12.5 10-3v1l-10.5 8.5 1.5 2.5 22.5-1.5-3-10q20.56 3.56 29.5-4.5Zm414 0 21.5 5.5-7.5 8.5-18 2-11 6h-45l-2.5-2.5 12.5-12.5 10-3v1l-10.5 8.5 1.5 2.5 22.5-1.5-3-10q20.56 3.56 29.5-4.5Zm-975 3-.5 1.5-5.5 8.5-14 3 2.5-3.5 1.5-8.5 16-1Zm504 0-.5 1.5-5.5 8.5-14 3 2.5-3.5 1.5-8.5 16-1Zm414 0-.5 1.5-5.5 8.5-14 3 2.5-3.5 1.5-8.5 16-1Zm-1251 1 12.5 6.5 2 5-4.5.5-12.5-9.5 2.5-2.5Zm346 0 4.5.5-11 9 1.5 2.5 22.5-1.5-3-10 32.5-.5 10 6 10-5 7.5 5.5 2 5-4.5.5-10-6-9 6q-17.29-2.29-24 6h-45l-2.5-2.5 12.5-12.5 6-3Zm-43 1 1.5 3.5-1 2 3 5-7.5.5-1.5-4.5 4-3 1.5-3.5Zm504 0 1.5 3.5-1 2 3 5-7.5.5-1.5-4.5 4-3 1.5-3.5Zm414 0 1.5 3.5-1 2 3 5-7.5.5-1.5-4.5 4-3 1.5-3.5Zm-1197 11q12.25-3.25 15.5 2.5l-2.5 3.5q-12.25 3.25-15.5-2.5l2.5-3.5Zm24 0h19l2.5 2.5-2.5 3.5h-19l-2.5-2.5 2.5-3.5Zm30 0h43l2.5 2.5-2.5 3.5h-43l-2.5-2.5 2.5-3.5Zm54 0h19l2.5 2.5-2.5 3.5h-19l-2.5-2.5 2.5-3.5Zm30 0h19l2.5 2.5-2.5 3.5h-19l-2.5-2.5 2.5-3.5Zm30 0h19l2.5 2.5-2.5 3.5h-19l-2.5-2.5 2.5-3.5Zm30 0h19l2.5 2.5-2.5 3.5h-19l-2.5-2.5 2.5-3.5Zm30 0h19l2.5 2.5-2.5 3.5h-19l-2.5-2.5 2.5-3.5Zm180 0q12.25-3.25 15.5 2.5l-2.5 3.5q-12.25 3.25-15.5-2.5l2.5-3.5Zm24 0h19l2.5 2.5-2.5 3.5h-19l-2.5-2.5 2.5-3.5Zm30 0h19l2.5 2.5-2.5 3.5h-19l-2.5-2.5 2.5-3.5Zm30 0h19l2.5 2.5-2.5 3.5h-19l-2.5-2.5 2.5-3.5Zm30 0h19l2.5 2.5-2.5 3.5h-19l-2.5-2.5 2.5-3.5Zm30 0h19l2.5 2.5-2.5 3.5h-19l-2.5-2.5 2.5-3.5Zm30 0h19l2.5 2.5-2.5 3.5h-19l-2.5-2.5 2.5-3.5Zm30 0h19l2.5 2.5-2.5 3.5h-19l-2.5-2.5 2.5-3.5Zm30 0h19l2.5 2.5-2.5 3.5h-19l-2.5-2.5 2.5-3.5Zm30 0h19l2.5 2.5-2.5 3.5h-19l-2.5-2.5 2.5-3.5Zm30 0h19l2.5 2.5-2.5 3.5h-19l-2.5-2.5 2.5-3.5Zm30 0h19l2.5 2.5-2.5 3.5h-19l-2.5-2.5 2.5-3.5Zm180 0q12.25-3.25 15.5 2.5l-2.5 3.5q-12.25 3.25-15.5-2.5l2.5-3.5Zm24 0h19l2.5 2.5-2.5 3.5h-19l-2.5-2.5 2.5-3.5Zm30 0h19l2.5 2.5-2.5 3.5h-19l-2.5-2.5 2.5-3.5Zm30 0h19l2.5 2.5-2.5 3.5h-19l-2.5-2.5 2.5-3.5Zm30 0h19l2.5 2.5-2.5 3.5h-19l-2.5-2.5 2.5-3.5Zm30 0h19l2.5 2.5-2.5 3.5h-19l-2.5-2.5 2.5-3.5Zm30 0h19l2.5 2.5-2.5 3.5h-19l-2.5-2.5 2.5-3.5Zm30 0h19l2.5 2.5-2.5 3.5h-19l-2.5-2.5 2.5-3.5Zm30 0h19l2.5 2.5-2.5 3.5h-19l-2.5-2.5 2.5-3.5Zm-765 6 6.5 2.5-.5 3.5-11.5-.5 1.5-3.5 4-2Zm504 0 6.5 2.5-.5 3.5-11.5-.5 1.5-3.5 4-2Zm414 0 6.5 2.5-.5 3.5-11.5-.5 1.5-3.5 4-2Z"/><path fill="#8F9C8A" stroke="#8F9C8A" stroke-width="3" d="m583.5 8 8.5 5.5 2 33-2.5 1.5L562 25.5l-.5-1.5-14 6-1.5-4.5L583.5 8Zm-48 22 4.5 1.5-1.5 4.5-4.5-1.5 1.5-4.5Zm307 276 21.5 20.5-20.5-19.5-6 5 5-6Zm-444 132 3.5 1.5-1.5 10.5-4.5-2.5 2.5-9.5Zm504 0 3.5 1.5-1.5 10.5-4.5-2.5 2.5-9.5Zm45 0 18.5 1.5-7.5 8.5-22 2-.5-2.5 11.5-9.5Zm81 0 3.5 1.5-1.5 8.5-3 1-1.5-8.5 2.5-2.5Zm288 0 3.5 1.5-1.5 10.5-4.5-2.5 2.5-9.5Zm45 0 18.5 1.5-7.5 8.5-22 2-.5-2.5 11.5-9.5Zm81 0 3.5 1.5-1.5 8.5-3 1-1.5-8.5 2.5-2.5Zm-1047 18q14.5-4 18.5 2.5l-1.5 3.5-25 12-3.5-6.5 7.5-9.5 4-2Zm504 0q14.5-4 18.5 2.5l-1.5 3.5-25 12-3.5-6.5 7.5-9.5 4-2Zm414 0q14.5-4 18.5 2.5l-1.5 3.5-25 12-3.5-6.5 7.5-9.5 4-2Zm-378 6 12.5 1.5-7.5 8.5-16 2-.5-2.5 11.5-9.5Zm82 0 2.5.5-3.5 4.5-2 1-.5-2.5 3.5-3.5Zm332 0 12.5 1.5-7.5 8.5-16 2-.5-2.5 11.5-9.5Zm82 0 2.5.5-3.5 4.5-2 1-.5-2.5 3.5-3.5Zm-1004 2 10.5 7.5-.5 2.5-17.5-.5 7.5-9.5Zm-50 16q14.5-4 18.5 2.5l-1.5 3.5-16.5 1.5q1.75 8.75-3.5 10.5l-6.5-1.5-2-5 7.5-9.5 4-2Zm504 0q14.5-4 18.5 2.5l-1.5 3.5-16.5 1.5q1.75 8.75-3.5 10.5l-6.5-1.5-2-5 7.5-9.5 4-2Zm414 0q14.5-4 18.5 2.5l-1.5 3.5-16.5 1.5q1.75 8.75-3.5 10.5l-6.5-1.5-2-5 7.5-9.5 4-2Zm-296 1 2.5.5-7.5 8.5-4 2-.5-2.5 9.5-8.5Zm414 0 2.5.5-7.5 8.5-4 2-.5-2.5 9.5-8.5Zm-1000 5q10.25-2.25 12.5 3.5l-1.5 8.5-22.5-1.5 7.5-8.5 4-2Zm504 0q10.25-2.25 12.5 3.5l-1.5 8.5-22.5-1.5 7.5-8.5 4-2Zm414 0q10.25-2.25 12.5 3.5l-1.5 8.5-22.5-1.5 7.5-8.5 4-2Z"/><path fill="#081363" stroke="#081363" stroke-width="3" d="M726.5 6h27l2.5 2.5-.5 21.5-17 2-2-20q-16.1-2.6-20.5 6.5l-1.5 3.5-1-4-23.5.5.5 3.5 3.5 2.5 2.5 3.5 14 2 3-5 .5 16.5-4 1-2 10 26.5 1.5 3.5-2.5.5 2.5h47l9.5 6.5 2 7L785.5 81 763 86.5l.5 1.5 6.5 3.5.5 1.5 1.5-.5 2 4-1.5-.5-17.5-.5 1-5-3-1 6.5-12.5 4.5-3.5 4-8-3.5-4.5L660 59.5 641.5 18l-5.5 3.5-.5 3.5-2.5-1.5-2-3 11.5-8.5h73l11-6ZM654 18l-2 1-4 5 6 16 9 7 6-16 3-1V19l-18-1Zm26 0-2 2 2 32 5 2 9-2 2-3v-8l-12-21-4-2Zm-43.5 35 3.5 1.5 2 6-1.5-.5-2.5-.5-1.5-6.5Zm-318 25 35.5.5-.5 14.5-3-3h-39l-4.5 3.5-1 11 2.5 3.5-5.5-.5-3-11L312.5 81l6-3Zm315 6 2.5 13.5-1 2 2 11-1 3 2.5.5 3-2 1.5 2.5-6 9 16.5 2.5 4.5-2.5 2-6-2.5-3.5 11.5.5-10.5 15.5q-17.99 2.01-25.5 14.5l-3 11 2.5 4.5 21 2 64.5-20.5 2-15-7.5-10.5-3.5-1.5 33.5-.5 1.5 5.5q-7.42 21.58-24.5 33.5l-10.5 6.5 4 6-2 1-8.5 15.5-7 4h-35l-9-6h-35l-8.5 6.5-1 2 4.5 3.5h32l8-5 7 5h93l11-6h138l11.5 8.5 1 3-2.5.5-7-6h-142L744 204.5l6.5 8.5 18 9h102q4.76 7.24 18 6l4.5-2.5-3-4 4 3 .5 3.5 6.5.5-1 3 10.5 8.5h84l1.5-12.5-3.5-4.5-2-1-1 2-3-2-66-1-2 1-3-6-3.5.5-.5 1.5-6-8-15-1-4 2-4-1-.5 2.5 2.5 3.5-14.5-9.5 1.5-2.5 34.5.5.5 2.5 17 9h61l5.5-3.5-6-5-1.5-3.5h-14q-3.72-7.28-15.5-6.5l1-2-6-8 1.5-.5 21 11h13l9.5 6.5 10.5 29.5q20.68 3.18 29-6h155l81.5 78.5 15.5 21.5 3.5 1.5 2 4 .5 1.5 5 1 2-4 4-2h114l6.5 3.5 6 14-10.5.5-1.5-.5-.5 3.5-3-2-2 4-.5-3.5-.5-2.5-24 1-3 1-2.5 1.5 1 2-2 13 1 3-11 7 4 6-4 6 3.5 4.5 4 3 4.5-6.5 2.5-4.5q8.63 8.37 28 6l8.5-6.5 2-5-3-1 13.5-11.5 1.5 2.5-6 9q26.58 4.42 41 21l-.5 1.5-36 2-11 6h-125l-10-5-13.5 12.5-3.5 4.5-22 21-7 2-3.5-2.5 51-51 1-8-4.5-3.5h-206l-18 11-9-4-8 5h-36l.5-1.5-1.5-4.5-2.5 1.5-1 3 .5 1.5-2-6-11-6 .5 1.5 7.5 10.5 4.5 3.5 5.5 6.5 4 1 8-5h29l5.5 2.5-.5 1.5-36 2-11 6h-150l-4.5 2.5.5 1.5 34 2 9 6h117l5.5 2.5-.5 1.5-5 2h-120l.5-1.5-1.5-4.5h-34l-6.5 3.5 1 2-49 1 .5 2.5 1.5.5-1.5.5-25-22h-56l-3.5 6.5 3.5 6.5 3.5 1.5 17.5 19.5 3.5 1.5 1.5 3.5 5.5 2.5-4.5.5-8.5-5.5-.5-1.5-16-15-12.5-2.5 1-2-6.5-3.5h-269l-6.5 3.5 1 2-5.5.5-1.5-5.5 2.5-4.5 4-2h61l6.5-4.5.5-1.5 3.5-1.5-.5-4.5-5.5 1.5-1.5 2.5-5 2h-71l-10-5-9 5h-48l-4.5 2.5.5 1.5 34 2q4.8 8.2 20 6l8-5 8.5 8.5-2.5 2.5-28.5-.5 1-4-35.5-1.5-6.5 3.5 1 2-49 1 .5 2.5 1.5.5-1.5.5-25-22h-56l-3.5 6.5 3.5 6.5 3.5 1.5 17.5 19.5 3.5 1.5 1.5 3.5 5.5 2.5-4.5.5-8.5-5.5-.5-1.5-16-15-12.5-2.5 1-2-6.5-3.5h-173l-6.5 3.5 1 2-5.5.5-1.5-5.5 2.5-4.5 4-2h61l6.5-4.5.5-1.5 3.5-1.5-.5-4.5-5.5 1.5-1.5 2.5-5 2h-71L0 402.5.5 384l108-54 17.5-1.5 3-10 19-19 5-23 69.5-69.5q5.83-5.17 19-3 7.98-13.02 28.5-13.5-11.12-11.88-6-40 5.42-17.58 18.5-27.5l6-3h65l6.5 3.5 1 2-54.5.5-12.5 8.5-2.5 3.5-15.5 1.5-.5 4.5-2.5.5q-6.37 6.63-3 23l7 12-7 1 1.5 3.5 21 8h19l.5-2.5-8-7 1.5-.5q4.33 9.67 18 10l.5-24.5 7.5-9.5 4-2 .5 2.5q-11.14 7.86-6 32l64.5 1.5 1.5-25.5-6-10 1.5.5 7.5 5.5 3 5 .5 24.5 89.5-.5.5-2.5 3 3h100l14.5-12.5 20-40 1-14-1-21v-2l-2-6 2-1-3-5 3-1 .5-1.5 1.5-.5 1.5-3.5Zm33.5 78-6 3-7 10 2 5 32-2 7-13q-9-7-28-3Zm-409 36-4 2-1 2 5 2h144l6 4-1 17v-3l-5 2-2 1 2-3-1-12-10 2-3 5-3 1-23 25h-2l-30 27h-2l2-5-146-1-3-3q1-10 14-9l3-8 10-10h5l3-8 9-4 3-10-3-2-61 63-2 1-6 8q2 13-3 19l-21 23 1 3 6 3h191l4-2 4-32q25-18 40-45l2-1-1 2h5l21-25h1l-21 23 5 2 33-29 10 5h99l2 4 3 1 3 7h107l1-5 6-1v-3l12-9 18 2 1 4-11 2-1 2 5 2h32v-1l4-2-1-2 30-3v-1l-4-3-35 2-2 3 1 1h-8l1-2-24-16h-48l-4 2-1 2 23 8v3l-6 3-16-8-26-22H481l-4 2-6 11-14 11h-20l1-3 3-2 9-10v-3l-17 14-1 3 1 1-6-2 16-19-5-3H258Zm343 0-1 3 12 9v-5l60-1v-5l-71-1Zm75 0-3 4 24 14 39-2 5-9 3-1v-2l-6-4h-62Zm-444 18-3 5-1 3 1 4h-9l-4 6 3 1-2 3 6 2h131l7-3 10-11 2-1 5-8-146-1Zm230 18-4 2-1 2 5 2h67l4-2v-1l-4-3h-67Zm570 0-29 14-6 7 5 7v2l-24-12-28 2-1 2 30 14h29l1-6 107 54h132l4-2 2-4-3-11-21-19-11 3 16 19-1 6-3 2h-79l-5-3-19-20 4-7h74l5 2 1 3 6 1v-5l-16-13-62 1-3-1 3-5 60-1 4-2 2-3-3-6-21-19h-150Zm-365 6-6 3-6 7 6 2q20 3 29-6v3l-17 15-1-6h-35l-36 18-29-2-2-3 12-4 6-9-2-9-3-3H475l-4 2-3 8 4 2 2 5 115 55h201l21 12h96l5-2 5-6q2-6 11-4l2 6h-2l-3 4 24 2 10 6h-10l-1 6h3l2 4v2l-28-1-1 6-2-4-3 2-1-3h-1l-6-1-5 4 1 2-2 13 1 3-11 3-1 4 9 8q14-2 20 6l19-2 6-9-3-1 15-17-2-1-14 13q15-7 19-24l27 14v3h3l-3 4 9 13 2-1 1-9 18-1v-2l3 1 3-2v3l7 1-1 2 6 3 1-3 5 3 5-2 7-8v-2h246l4 2 2 5q-3 18-17 26l5 3v-4l9-7 9-10v3l18 2 7 10-30 2-1-2-11 3 3 3 8-3 1 3 38-1 3-5-1-3-19-20-15-1q3-17-4-23l-9 5h-248l2-3-1-2 175-1 12-6 29-2 1-2v-2l17 12q18 3 26-6h32l3-3v-3h-49l-9 5-18-11h-39l-17 12h-101l-6-3-7-8-7-1 1-2-18-19-58-30-7-3h-43l-72-36H667Zm-465 6-4 6 3 1-2 3 6 2h131l7-3 5-8-146-1Zm416 0-2 1-3 8q3 5 15 3l7-8q-4-7-17-4Zm-217 12-4 3-1 2 9 7 60 30 9-2 17-18-1-3-24-19h-65Zm-22 6-7 3-30 34 2 27 5 2h58l2-12q28-4 40 8l2 10-163 1 1 6-1 2 1 3H107l-63 30-2 5 216 1 12 10v2h-91l1-2-11-4-1 5 1 1-13-6H42l-3-2-2-2 1-6 69-38h178l2-3-5-3H108l-86 43-4 6 2 15 5 2h66l11-6q25-4 36 6h246l5-2v-1l-4-3-3-5-89-47 1-2h36l34 30h2l-11-16 1-5 5-3h95l16 6 2 4-45 22-3 5 2 15 5 2h66l11-6q25-4 36 6h342l5-2v-1l-4-3-3-5-100-55H517l-35 18-7-2-1-4h2l33-12 1-5 271-1 4-2v-1l-4-3H505l-103-51-1-1-4-4-1-1q-4-7-17-3Zm761 24-6 4 7 4 1 4 9 6h73l5-2-3-5-13-11h-73Zm-6 36-4 2-2 3 7 2-1 2 12 3v-3l-7-3 1-2-6-4Zm13 0-1 5 5 1 1-5-5-1Zm17 0-6 4 1 2-7 3 1 3h11l-1-5 6-1 1-2-6-4Zm18 0-6 4 1 2-7 3 1 3h11l-1-5 6-1 1-2-6-4Zm18 0-6 4 1 2-7 3 1 3h11l-1-5 6-1 1-2-6-4Zm9 6-3 3 1 3 10-2v-1l-8-3Zm-416 6-1 3 4 3h38l34 30h2l-11-16 2-7 12-7 3-5-83-1Zm90 0-5 2-8 11 3 11 10 6 15-2 8-21 39-1 2-3-2-3h-62Zm474 0-5 2-8 11 3 11 10 6 15-2 8-21 42-1v-2l-3-4h-62Zm-465 42-4 6 1 3 5 3 5-2 1-2-3-2-3-4-2-2Zm154 0-2 2 3 4 3-5-4-1Zm310 7-5 3 2 3 6 4 2-6-5-4Zm-384 6-5 3 3 4 5 3 2-6-5-4Zm18 0-5 3 3 4 5 3 2-6-5-4Zm-890 11-4 9 7 3 15-2 2-3-1-3q-5-7-19-4Zm33 0 3 8 7 4h72l1-5-71-1-6-2-1-2-5-2Zm375 0-4 9 7 3 15-2 2-3-1-3q-5-7-19-4Zm33 0 3 8 7 4h168l1-5-167-1-6-2-1-2-5-2Z"/><path fill="#081363" stroke="#081363" stroke-width="3" d="m763.5 114 16 3 1.5-.5 11 18q-9.39 22.11-47.5 15.5l-4.5-2.5-1-5 11.5-19.5 11.5-5.5 1.5-3.5Zm-381 20 1.5.5-1.5.5v-1Zm392 70 7.5.5-3.5 5.5-2.5-1.5-1.5-4.5Zm79 0 4.5 1.5-1.5 4.5-4.5-1.5 1.5-4.5Zm-454 23L381 246.5l-.5 1.5-.5-1.5 19.5-19.5Zm405 25 4.5 3.5 1 2-23.5 27.5-6 3-.5-2.5 22-22 2.5-11.5Zm330 20 1.5.5-4.5 3.5 3-4Zm-142 10 9.5 2.5-.5 3.5-11.5-.5 2.5-5.5Zm-819 6h139l10.5 8.5-1.5 2.5-10-5h-137l-10 5-2.5-4.5 11.5-6.5Zm828 6q16.47-2.97 24.5 2.5l1 3-19 1 1 5-2.5.5-7.5-5.5-2-4 4.5-2.5Zm30 6 6.5 2.5 1 3-2.5.5-4.5-2.5-.5-3.5Zm-18 6 6.5 2.5 1 3-1.5.5-5.5-2.5-.5-3.5Zm30 0 21.5 11.5-3 1 1 5-19.5.5-17.5-8.5-1-3 2.5-.5 4.5 2.5 1.5 3.5 4.5-.5.5-5.5 3.5-.5 2-4-.5-1.5Zm7.5 6 2 6h3v-4l-5-2Zm10.5 18 1.5.5-7.5 11.5-5.5-3.5.5-2.5 11-6Zm13 6q19.09-3.59 28.5 2.5l-.5 1.5-28 2-5.5-2.5.5-1.5 5-2Zm-560 6h116l5.5 3.5-.5 2.5h-121L450 379.5l-.5 10.5-3.5-1.5-1-6 6.5-8.5 63-32Zm464 3 1.5.5-1.5.5v-1Zm-394 21q12.25-3.25 15.5 2.5l-.5 3.5q-14.83-1.83-21 5l-1.5-2.5 7.5-8.5Zm-48 18 57.5.5-1.5 3.5-4 2h-54l-.5-3.5 2.5-2.5Zm142 0h83l12.5 9.5-.5 2.5-90.5-.5 1-2-7.5-2.5-4.5 2.5 1 2-6.5.5-.5-2.5 12.5-9.5Zm396 12h191l5.5 3.5-47.5 44.5h-167l-6.5-3.5v-17l18.5-24.5 6-3Zm210 18q19.4-3.4 26 6h117l5.5 2.5-.5 1.5-5 2h-120l.5-1.5-1.5-4.5-30.5-.5 2.5-3.5 6-2ZM.5 415l11.5 8.5-.5 1.5L0 419.5l.5-4.5Zm1474 0 1.5.5-.5 4.5-11 5-.5-1.5 10.5-8.5Zm-1145 17 4.5 1.5 1 2-23.5 23.5-8 3 2.5-3.5-.5-2.5-24.5-.5 1-5-5-1 20.5-16.5 1.5 2.5-10 12 22.5 2.5 18.5-15.5-.5-2.5Zm504 0 4.5 1.5 1 2-23.5 23.5-8 3 2.5-3.5-.5-2.5-24.5-.5 1-5-5-1 20.5-16.5 1.5 2.5-10 12 22.5 2.5 18.5-15.5-.5-2.5Zm-481 1 5.5 1.5 1 5-4.5 7.5-.5-2.5-1.5-6.5-4 1-.5-2.5 4.5-3.5Zm504 0 5.5 1.5 1 5-4.5 7.5-.5-2.5-1.5-6.5-4 1-.5-2.5 4.5-3.5Zm414 0 5.5 1.5 1 5-4.5 7.5-.5-2.5-1.5-6.5-4 1-.5-2.5 4.5-3.5Zm-1079 5h28l2.5 2.5 2.5 3.5 3.5 2.5 2.5 3.5 3.5 2.5 2.5 3.5 3.5 2.5 2.5 3.5 3.5 2.5-2.5 14.5-1.5-.5q-2.3-24.2-20.5-32.5l-12-2-4.5 3.5q8.04 7.46 5 26l-2.5 4.5-4 2h-101l-5.5-2.5.5-1.5 5-2h54l4.5-2.5-.5-1.5-4-2h-56l-17 12h-35L27 461.5l-3-18 1.5.5 11 6h155l5.5-2.5-5.5-9.5ZM48 456l-5 4 2 3 12 4 2-7-11-4Zm21 1-2 4 1 6h2l1-3-1-6-1-1Zm12 0-2 4 1 6h2l1-3-1-6-1-1Zm614.5-19h28l2.5 2.5 2.5 3.5 3.5 2.5 2.5 3.5 3.5 2.5 2.5 3.5 3.5 2.5 2.5 3.5 3.5 2.5-2.5 14.5-1.5-.5q-2.3-24.2-20.5-32.5l-12-2-4.5 3.5q8.04 7.46 5 26l-2.5 4.5-4 2h-47l-17-12h-135l-17 12h-41l-2-5-13.5-12.5-3-19 1.5.5 11 6h251l5.5-2.5-5.5-9.5ZM456 456l-5 4 2 3 12 4 2-7-11-4Zm21 1-2 4 1 6h2l1-3-1-6-1-1Zm12 0-2 4 1 6h2l1-3-1-6-1-1Zm564.5-7h68l4.5 2.5 2 21-2.5 4.5-4 2h-47l-17-12-11.5-1.5-2-5 9.5-11.5Zm153 0 27.5 1.5 1 2-13.5 8.5 2.5-3.5-.5-2.5-24.5-.5 2.5-3.5 5-2Zm-58 1 9.5 7.5 2.5 3.5 3.5 2.5-2.5 14.5-1.5-.5q-.71-18.79-13-26l1.5-1.5Zm-812 4 2.5 1.5-3 4 2 1-1.5.5-5.5-2.5.5-1.5 5-3Zm504 0 2.5 1.5-3 4 2 1-1.5.5-5.5-2.5.5-1.5 5-3Zm414 0 2.5 1.5-3 4 2 1-1.5.5-5.5-2.5.5-1.5 5-3Zm-999 1 3.5.5-1 4 .5 1.5-5.5-1.5 2.5-4.5Zm504 0 3.5.5-1 4 .5 1.5-5.5-1.5 2.5-4.5Zm414 0 3.5.5-1 4 .5 1.5-5.5-1.5 2.5-4.5Zm-148 15 1 3h29l5.5 2.5-.5 1.5-40 2-.5-2.5 2-1 .5-1.5 1.5-.5-3-1 4.5-2.5Z"/><path fill="#081363" stroke="#081363" stroke-width="3" d="M510.5 474h131l5.5 2.5-.5 1.5-5 2h-131l-5.5-2.5.5-1.5 5-2Z"/><path fill="#4380B6" stroke="#4380B6" stroke-width="3" d="m725.5 12 5.5.5-14 11-2.5 5.5-.5-5.5 7.5-9.5 4-2Zm-45 6 3.5 2.5 2 3-2 1q-1.27 14.28 8.5 17.5l3-1 .5 3.5-3.5 2.5-5.5-4.5-9-22 2.5-2.5Zm45 6 2.5.5L716.5 42l-2.5-1.5.5-5.5 4 1 5-11 2-1Zm-14 18 2.5 1.5-1.5 10.5-4.5-2.5 3.5-9.5Zm-40 18 80.5.5L740.5 83l-8.5 2.5 1 4-1.5.5-11-6-66.5-1.5q1.34-15.66 13.5-20.5l4-2Zm90 4 .5 2.5L748.5 88l-9 2v-1l7.5-4.5L761.5 64Zm-483 74h115l2.5 2.5-1.5 3.5-118.5-1.5 2.5-4.5Zm63 18h43l9.5 7.5 2 26-4.5 2.5-3-12-52.5 1.5-1.5 10.5-4.5-2.5q-4.85-24.35 7.5-31.5l4-2Zm.5 6-4 2-2 3 53 1 1-4-48-2Zm101.5 2 .5 10.5-7.5 17.5-4.5-1.5.5-17.5 3 1 8-10Zm-184 34 166.5 1.5q-.43 11.57-8.5 15.5l-15-11-144.5-1.5 1.5-4.5Zm262 0 29.5.5-23 14 1.5 3.5 16 6h13l10.5 5.5-41.5.5-11-6q-13.53 2.53-18.5-3.5l-.5-2.5-10 6-1.5-2.5 23.5-20.5.5 1.5-12 15 2.5.5 21-18Zm32 0 63.5 29.5-5 1 2 5-20.5.5-10.5-5.5 17-2-1.5-4.5-9-2-36-22Zm222 0 130.5 1.5-1.5 4.5-130.5-1.5 1.5-4.5Zm138 6 5.5.5-1 4 17 7-5.5.5-17.5-7.5 1.5-4.5Zm12 0h56l2.5 2.5-1.5 9.5-11.5-.5 1-4-36.5-1.5-10-6Zm-700 6 2.5 2.5-48 48-.5 6.5-4-2-7.5 14.5 1.5 2.5-1.5.5-1.5 5.5-4.5-1.5 2-15 61.5-61.5Z"/><path fill="#4380B6" stroke="#4380B6" stroke-width="3" d="m395.5 210 6.5 2.5-1.5 3.5-4 2-1-2-7.5-.5 7.5-5.5Zm230 0 28.5 1.5-1.5 4.5q-14.07-1.57-21 4l-7.5-8.5 1.5-1.5Zm156 0h89l7.5 5.5-8 1-.5 1.5-2-2-87.5-1.5 1.5-4.5Zm-136 12 2.5 1.5-4.5 6.5-1.5.5.5 1.5 2.5 1.5 3 4q-4 6.5-18.5 2.5l-10.5-5.5 5-1-2-5q17.25 2.25 23.5-6.5Zm256 7 10 5 84.5 1.5-2.5 4.5h-82l-11.5-9.5 1.5-1.5Zm136 5 41.5 37.5 43 45-2.5.5-115.5-60.5 5.5-8.5 28-14Zm.5 6-6 3-6 8 23 3 25 22v-3l-36-33Zm49.5 0 44.5 25.5 1 2-5.5 13.5-12.5-8.5-1-2 6-2 2-7-23.5-9.5-1 2-3.5-2.5-8-10 1.5-1.5Zm-728 4 1 8 1.5.5-3.5 4.5-33 31-2.5-6.5 1-4-132.5-1.5-7.5-5.5 146.5-.5 29-26Zm164 2 18.5.5-2.5 13.5-17.5-11.5 1.5-2.5Zm27 0q16.83-2.33 24 5l7-4 .5 1.5-16.5 15.5-1.5-2.5 6-8-3.5-1.5-6 7-10 5 1.5-2.5-1.5-15.5Zm145 0h97l9.5 7.5 2 5-25.5 27.5-4 2h-109l-4.5-3.5-1-3 10.5-13.5 25-22Zm.5 6-6 3-6 8 29 1 1-10-18-2Zm26 0-2 11 5 1 1-10-4-2Zm12 0-2 11 5 1 1-10-4-2Zm61 6-14 12H678l-12 9 2 3h107l6-3 17-20-3-1Z"/><path fill="#4380B6" stroke="#4380B6" stroke-width="3" d="M833.5 246h19q4.76 7.24 18 6l172 86 5.5 5.5 2 5-3.5 5.5h-21l-17-12h-37l-10.5-5.5 2-1-32.5-17.5h-13l-17 12h-49l-10.5-5.5 11.5-.5 11 5 .5-2.5-21.5-20.5-8.5 15.5 1.5 2.5-13-6-60.5-1.5q-.25-10.75-7.5-14.5l-4-2h-193L480 262.5l1.5-4.5h23l47 18q17.29-2.29 24 6h19l35-18h35l1.5 2.5-12 16 7.5 9.5 4 2h115l53-48Zm26.5 12-10 23-2 1-2 5 5 1 1-2 13-10h18q4 7 18 6l89 42h7l28 12 1-4-149-74h-17Zm95.5-6q18.49-2.49 22.5 9.5l-1.5 2.5-22.5-7.5 1.5-4.5Zm-578 18h13L510 331.5l-2.5 4.5-22 6-9 6-1.5-2.5 2.5-3.5 2.5-1.5-1.5-4.5-14 6q-5.5-3 1-6l2.5-1.5-1.5-4.5-40-18h-23l-1.5 6.5 6 9-6.5 2.5-9.5-7.5-20-40v-7l3.5-4.5 2-1Zm2.5 6-2 2 1 7 17 9 55 18 46 24 1-3-11-12-85-43-22-2Zm609.5 0q24.3-4.3 30.5 9.5l-1.5 2.5q-7.94-9.56-29-6l-10 6-1.5-2.5 11.5-9.5Zm152 12 10.5 1.5-5 9 5 6-2.5.5-7.5-6.5-2-9 1.5-1.5Zm-780 12q15.66 1.34 20.5 13.5l8 15-28.5 1.5-1.5-28.5 1.5-1.5Z"/><path fill="#4380B6" stroke="#4380B6" stroke-width="3" d="M613.5 306h137l4.5 3.5 1 7-132.5 1.5-11.5-9.5 1.5-2.5Zm48 36h125l88 44 7.5 7.5-1.5 2.5h-95l-29-24h-73l-29 24h-41l-1.5-2.5 5.5-6.5 17-5 20.5-19.5q7-6.5 6.5-20.5Zm108.5 6-2 5 61 19 10 6 1-3-47-27h-23Zm117.5-6 12.5 1.5-3.5 10.5-3.5-.5 1-4-14-2 7.5-5.5Zm474 0 12.5 1.5-3.5 10.5-3.5-.5 1-4-14-2 7.5-5.5Zm-1254 6 157.5.5-1 4 60.5 19.5 10 6 1.5-3.5-47-26 5.5-.5 76 38 7.5 7.5-1.5 2.5h-95l-29-24h-97l-23 12h-88l-2.5-3.5 65.5-32.5Zm-5.5 6-36 21 2 3h23l19-16 9-2 1-4-18-2Zm413.5-6 114.5 1.5-11.5 13.5-6 3h-37l-35 18h-89l-1.5-3.5 65.5-32.5Zm-5.5 6-36 21 2 3h23l19-16 9-2 1-4-18-2Zm481.5-6 22.5 1.5-1.5 4.5h-20l-2.5-2.5 1.5-3.5Z"/><path fill="#4380B6" stroke="#4380B6" stroke-width="3" d="m635.5 354 12.5 1.5q-1.32 14.18-11.5 19.5l-17 5q-5.98 14.02-24 16l-1.5-2.5 35.5-36.5 6-3Zm-40 18 4.5 1.5-1.5 4.5-4.5-1.5 1.5-4.5Zm402 0 4.5 1.5-1.5 4.5-4.5-1.5 1.5-4.5Zm-774 42 40.5 1.5q-3.19 19.69 6 27l-24.5 1.5-21.5-19.5-2-9 1.5-1.5Zm5.5 6-1 4 18 14v-3l-17-15Zm498.5-6 40.5 1.5q-3.19 19.69 6 27l-24.5 1.5-21.5-19.5-2-9 1.5-1.5Zm5.5 6-1 4 18 14v-3l-17-15Z"/><path fill="#BFD8BF" stroke="#BFD8BF" stroke-width="3" d="m731.5 12 6.5 2.5-1.5 14.5-7.5-3.5-.5-1.5-7.5 3.5-3.5 8.5-3.5-2.5q1.8-14.7 13.5-19.5l4-2Zm-47 12 2.5.5 8 16-1.5 1.5-7.5-7.5-1.5-10.5Zm69 36 8.5 2.5L742.5 88l-8 2-2.5-3.5 11-6L753.5 60Zm-412 102h46l2.5 2.5-2.5 3.5h-49l-2.5-2.5 5.5-3.5Zm94 0 7.5 1.5-8.5 10.5-2.5-8.5 3.5-3.5Zm116 36 48.5 26.5-2.5 3.5h-28q-6.71-8.29-24-6l-17.5-8.5 23.5-15.5Zm.5 6-4 2-2 4 36 12v-2q-10-14-30-16Zm368.5 0 16.5 6.5-1 4 .5 1.5-18.5-8.5 2.5-3.5Zm27 6h22l2.5 2.5-2.5 3.5-22.5-.5 1-4-.5-1.5Zm-557 6 5.5.5-33.5 35.5-2.5-.5 3-11 21.5-21.5 6-3Zm480 0q12.61.89 17.5 9.5l-2.5.5-15.5-7.5.5-2.5Zm-258 12q9.5-2 11.5 3.5l-.5 2.5q-9.5 2-11.5-3.5l.5-2.5Zm425 12 36.5 33.5-.5 2.5-30.5-24.5 1-4-5.5-1.5-.5 4.5.5 1.5-12.5-2.5 11.5-9.5Zm-494 6 8.5 3.5q2.75 11.75-3.5 14.5l-8.5-3.5q-2.75-11.75 3.5-14.5Zm555 6 23.5 9.5-3.5 8.5q-14.34-3.66-20.5-15.5l.5-2.5Zm-303 6 2.5.5-19.5 21.5-4 2h-106l-2.5-2.5 7.5-7.5 4-2h103l15-12Zm65 0h16l149.5 74.5-2.5 3.5-27-12h-7l-89-42-27.5-6.5 9-6-1.5-3.5-19-2-9.5 17.5 2 1-4.5 5.5-3.5-2.5 14.5-27.5Zm-684 7 15 11h130l2.5 2.5-2.5 3.5h-150l-3.5-3.5 8.5-13.5Zm204 11h16l88 44 13.5 13.5q-2.75 5.25-5.5-.5l-42-21-55-18-16.5-9.5-1-6 2.5-2.5Zm462 31 21.5 20.5-2.5 1.5q-6.82-7.68-24-5l-3.5-3.5 8.5-13.5Zm-576 41h22l40 20 7.5 7.5q-2.75 5.25-5.5-.5L264 351.5l2.5-3.5Zm504 0h22l40 20 7.5 7.5q-2.75 5.25-5.5-.5L768 351.5l2.5-3.5Zm109 0q11.5-3 14.5 2.5l-2.5 3.5q-12.25 3.25-15.5-2.5l3.5-3.5Zm474 0q11.5-3 14.5 2.5l-2.5 3.5q-12.25 3.25-15.5-2.5l3.5-3.5Zm-1252 6q14.5-4 18.5 2.5l-2.5 3.5-10 3-17 15h-22l-2.5-2.5 7.5-7.5 28-14Zm408 0q14.5-4 18.5 2.5l-2.5 3.5-10 3-17 15h-22l-2.5-2.5 7.5-7.5 28-14Zm-281 66 17.5 15.5-.5 2.5-17.5-15.5.5-2.5Zm504 0 17.5 15.5-.5 2.5-17.5-15.5.5-2.5Z"/><path fill="#0E2F8C" stroke="#0E2F8C" stroke-width="3" d="m639.5 18 2.5.5v6L660.5 60l10.5.5-15 13-2 9 66.5 1.5 10.5 5.5-86.5.5-2.5-2.5q4.38-22.38-2.5-33.5l-3.5-1.5v-31l3.5-3.5Z"/><path fill="#0E2F8C" stroke="#0E2F8C" stroke-width="3" d="m678.5 25 11 20 4 2 2.5-1.5-2.5 6.5-9 2-4.5-2.5-1.5-26.5Zm49 0 10.5 4.5v21l-3.5 3.5-21.5-.5 1-10 .5-2.5 2 1 11-17Zm34 35 5.5 3.5 1 3-7.5 10.5-1.5.5-6.5 12.5-7.5-.5 9-7 8-21-.5-1.5Zm-450 30h39l3.5 3.5q3 11.5-2.5 14.5h-42l-3.5-3.5q-1.97-10.47 3.5-13.5l2-1Zm332 24q13.25-3.25 16.5 3.5l-2.5 6.5-15 2-5.5-2.5 6.5-9.5Z"/><path fill="#0E2F8C" stroke="#0E2F8C" stroke-width="3" d="M669.5 114h39l8.5 6.5 3 17-2.5 4.5-64 20h-17l-4.5-2.5-2-9 12.5-15.5q14.61-1.39 21.5-10.5l5.5-10.5Zm-363 12h60l22.5 11.5-96.5.5 1.5-2.5 1.5-2.5 11-7Zm-30 17 118 1h2l35.5 12.5.5 5.5 1.5.5-2 2v26l.5 1.5-30.5-.5q5.29-25.79-7.5-33.5l-4-2-1 3-5-3h-43l-9 7 3.5-4.5-.5-2.5-8.5 6.5-3 5-.5 24.5-10-2-13-10-24.5-1.5q-9.18-8.32-6-29l3.5-5.5 3-1Zm390 19q19.09-3.59 28.5 2.5l-7.5 13.5-32 2-1.5-5.5 6.5-9.5 6-3Zm-219 6 44.5 20.5-.5 3.5-54.5-.5 10.5-23.5Z"/><path fill="#0E2F8C" stroke="#0E2F8C" stroke-width="3" d="m337.5 180 52.5 1.5 1 10-55.5.5.5-1.5 1.5-10.5Zm424 12h142l7 6h50l7.5 5.5-56 2 1.5 4.5 15.5 5.5-5.5.5-17.5-9.5-1-3 1-4-130.5-1.5-1.5 4.5 1 3 2.5 4.5 3.5.5-1 4 87.5 1.5 2.5 2.5.5 1.5 17 7 .5-2.5-10-8-3.5-4.5-17.5-2.5 1-4-.5-1.5 13.5.5-1 2 23 18-.5 1.5-11 2-11-6h-102L744 206.5l-.5-2.5-2.5.5-5.5 9.5-39 2-23.5-14.5 2.5-3.5h62l6.5 3.5.5 2.5 17-12Zm-504 6 1.5.5-1 4 .5 1.5-5.5-2.5.5-1.5 4-2Zm168 0 17.5 2.5-16 19 3.5 2.5h26l14.5-11.5 5.5-10.5 4-2h40v1L498 216.5l1.5 3.5 17 2 10.5 5.5-94.5.5-10-5-33 29-4.5-2.5 21-22 2.5-20.5 9 8q8.07-3.93 8.5-15.5l-.5-1.5Zm82.5 1-22 21 2 2 10-6 12-16-2-1Zm51.5-1 39 2 33.5 27.5-14.5.5-58-30Zm425 10 5.5 4.5-6.5 3.5.5-1.5.5-6.5Zm-361 2 1.5.5-1 2 6.5 7.5-11.5-6.5.5-1.5 4-2Zm30 0h18l24.5 15.5-1.5 2.5-10.5-1.5-.5-2.5-18-2-11.5 8.5-.5 3.5-5.5.5-.5 2.5-4-5-1.5-.5.5-1.5 1.5-.5 4-6-2.5-1.5-3.5 2.5-.5-2.5-8.5-1.5 21-6-.5-4.5Zm-426 3 .5 3.5-3.5 5.5-8.5 3.5-3.5 8.5h-5l-9.5 9.5-3.5 8.5h-5l-9 9 47-48Z"/><path fill="#0E2F8C" stroke="#0E2F8C" stroke-width="3" d="m401.5 215 .5 6.5-32 42-32 32-4.5 32.5-4 2h-191l-5.5-3.5-1-3 21-23q5.17-5.83 3-19l5.5-7.5 1.5.5-1 12 4.5 1.5 2-6 155.5.5 1.5 5.5 35.5-33.5 1.5-2.5 33.5-32.5 1.5-2.5 4-2ZM174 288l-12 7 3 4 10-5h137l10 5 1-2-10-9H174Z"/><path fill="#0E2F8C" stroke="#0E2F8C" stroke-width="3" d="m229.5 222 142.5.5-2.5 5.5-141.5-1.5 1.5-4.5Zm479 0h30l4.5 2.5-.5 1.5-39 2-1.5-2.5 6.5-3.5Zm282 0 4.5 3.5 1 9-1.5-.5h-83l-10-5-1.5.5 90-3 .5-4.5Zm-458 6h50l11 6q24.8-4.3 35.5 5.5l-88.5.5-4-7-2.5-1.5-1.5-3.5Zm-313 6 140.5.5-1.5 3.5-5 2h-131l-5.5-2.5 2.5-3.5Zm242 0h67l4.5 2.5-.5 1.5-4 2h-67l-4.5-2.5.5-1.5 4-2Zm570 0 5.5.5-33 19 5.5 8.5 112 55 .5-1.5-76.5-77.5-6.5-3.5 142.5-.5 21.5 18.5 3 6-2.5 3.5-4 2-59.5.5-3 5 2 1-8 5-3 13 18.5 20.5 5 3h79l3.5-2.5 1-6-16-19 10.5-2.5 21.5 18.5 3 11-2.5 4.5-4 2h-132l-107-54-1 6h-29L949 255.5l.5-1.5 5-2-.5 1.5 1.5 4.5 21 6 1.5-2.5-11-9 10.5-.5 24 12 .5-2.5-5-7 5.5-6.5 29-14Zm56.5 6-2 2 8 10 3 1 1 3 15 12 2 5 13 8 5-13-1-2-44-26Zm66 12-2 5 11 1 1-4-10-2Zm18 0-2 5 11 1 1-4-10-2Z"/><path fill="#0E2F8C" stroke="#0E2F8C" stroke-width="3" d="M666.5 240h233l67 34 22.5 2.5-11 9 1.5 2.5 12-6-1.5 2.5.5 3.5 11.5-.5-2-5 8.5-.5 10 6 1.5-2.5-11-9 5.5-.5 65 33 18.5 18.5-1.5 2.5h-35l-11.5 6.5 3.5 11.5 2.5 1.5-3.5 4.5-5.5-.5 3-6-7.5-9.5-172-86q-13.24 1.24-18-6h-19l-53 48h-115l-9.5-7.5-2-5 12-16-36.5-1.5-35 18h-19l-71-24h-23l-1.5 4.5 77.5 37.5h193l9.5 7.5 3 10-7.5.5.5-1.5-3.5-9.5-139-1-1.5 2.5 11 9-34.5.5L474 262.5l-2.5-4.5-3.5-2.5 2.5-7.5 4-2h48l-.5 1.5 7.5 8.5 10.5 4.5.5 1.5 12 2 13.5-10.5.5-1.5 3.5 1.5-6 9 2.5 1.5 15.5-16.5-2.5-.5-8 4-6.5-4.5 17.5-.5 3.5 2.5 2 9-6.5 9.5-11.5 3.5 1.5 3.5 29 2 36-18h35l1 6 17.5-15.5-.5-2.5q-8.67 8.83-29 6l-5.5-2.5 5.5-6.5 6-3Zm29.5 6-25 22-11 14 1 3 5 3h109l7-5-2 3 1 2 6-3 23-27-1-2-4-4-1 5-2-3-9-8h-97Zm306 48-5 3 2 4q3 6 14 5l1 4 11 2 1 4q12 12 41 8l1-4-22-14h-6l-2-3-10-3-2-3q-8-6-24-3Zm-800.5-42 140.5.5-1.5 3.5-5 2h-131l-5.5-2.5 2.5-3.5Z"/><path fill="#0E2F8C" stroke="#0E2F8C" stroke-width="3" d="m695.5 252 18.5 1.5-1.5 10.5-28.5-1.5 5.5-7.5 6-3Zm26 0 4.5 1.5-1.5 10.5-4.5-1.5 1.5-10.5Zm12 0 4.5 1.5-1.5 10.5-4.5-1.5 1.5-10.5Zm-355 12q13.75-3.75 17.5 2.5l.5 1.5 4.5 3.5.5 1.5 103 51h276l4.5 2.5-.5 1.5-4 2-271 1-119-61h-13l-4.5 3.5-1 9 25.5 45.5 3.5 1.5-11.5.5.5-1.5q-6.25-16.75-19.5-26.5l-9-2-1.5 28.5.5 1.5-16.5-2.5-2-27 29.5-33.5 7-3Zm761 24 1.5.5-1 6 .5 1.5-6.5-4.5 5.5-3.5Zm12 0h61l13.5 10.5 3 5-5.5 2.5h-73v-1l1.5-.5-5-8 5-7-.5-1.5Z"/><path fill="#0E2F8C" stroke="#0E2F8C" stroke-width="3" d="M403.5 312h23l41.5 19.5-1.5 4.5-4 3-1-3-11.5-1.5-1.5-8.5q-12-12-40-8l-1 9-5.5-13.5 1.5-1.5Zm387 6h32l28.5 11.5-40.5.5-20-12Zm127 0 2.5.5-8.5 9.5-10 2v-1l16-11Zm11 0 34.5 17.5-3.5.5-11-6-23.5-2.5 2.5-3.5 2.5-.5-1.5-5.5Zm205 6 6.5 3.5-1.5 2.5-10.5-1.5 1.5-2.5 4-2Zm13 0 5.5.5-1.5 5.5-4.5-1.5.5-4.5Zm17 0 6.5 3.5-1.5 2.5-10.5-1.5 1.5-2.5 4-2Zm18 0 6.5 3.5-1.5 2.5-10.5-1.5 1.5-2.5 4-2Zm18 0 6.5 3.5-1.5 2.5-10.5-1.5 1.5-2.5 4-2Zm-1092 12h174l5.5 2.5-2.5 3.5h-178L38 379.5l-1 6 1.5 2.5 3 2h114l11 6h103l.5-2.5-12.5-9.5-124.5-.5 22.5-11.5h97l29 24h95l1.5-2.5-7.5-7.5-82.5-39.5 1.5-4.5 3.5.5 2.5 3.5 86.5 44.5 2.5 5.5 4.5 2.5-.5 1.5-5 2h-246q-10.59-10.41-36-6l-11 6h-66l-4.5-2.5-2-15 3.5-5.5 86-43Zm366 0 6.5 1.5-1.5 4.5-2.5 1.5-1 3 .5 1.5-2-6-8.5-.5 8.5-5.5Zm43 0h269L886 390.5l2.5 5.5 4.5 2.5-.5 1.5-5 2h-342q-10.59-10.41-36-6l-11 6h-66l-4.5-2.5-2-15 2.5-4.5 45.5-22.5.5-3.5h7l35-18Zm-1.5 6-63 32-7 9 1 6 4 1 1-7 85 1-2 3 1 3h54l4-2 1-3-53-1 35-18 8 1-7 8 2 2 10-5 6 1-1 4 5 1 1-4v-2l-2-5 21-4 11-12-1-2 7-1v-2l-5-4H515Zm147 0q0 14-7 21l-20 19-17 5-6 7 2 2h41l29-24h73l29 24h95l1-2-7-8-88-44H662Zm-26 12-6 3-36 37 2 2q18-2 24-16l17-5q10-5 11-19l-12-2Zm43 30-6 3-7 9h108v-2l-12-10h-83Zm203.5-48h62l2.5 2.5-2.5 3.5-38.5.5-8.5 21.5-15 2-9.5-6.5-3-11 7.5-10.5 5-2Zm5.5 6-9 6-3 5 21 1 3-10-12-2Zm347.5-6 36.5 1.5-1.5 2.5-29 2-11 5-.5-5.5 3.5-4.5 2-1Zm121 0h62l3.5 3.5-.5 2.5-41.5.5-8.5 21.5-15 2-9.5-6.5-3-11 7.5-10.5 5-2Zm5.5 6-9 6-3 5 21 1 3-10-12-2Zm-876.5 0 2.5.5-10.5 5.5 2-3 6-3Zm488 0h35l16.5 11.5-11.5.5.5-1.5-.5-3.5-22-1h-2l-16-6Zm-16 18 2.5.5-15.5 17.5-1.5-2.5 14.5-15.5Zm474 0 2.5 5.5-15.5 12.5-1.5-2.5 14.5-15.5Zm-438 6h24l2.5 2.5-.5 3.5-18 1-4-1-1.5 4.5 4.5 1.5 1.5-.5-1.5 4.5-2 1-8.5-13.5 3.5-3.5Zm35 0 27.5 1.5-7.5 8.5-5 2-5.5-3.5-1.5-2.5-10.5-.5 2.5-5.5Zm-137 12 2.5 1.5 2.5 4.5 3.5 1.5-1.5 2.5-5 2-4.5-3.5-1-3 3.5-5.5Zm425 0q21.81-.31 27.5 15.5l-4.5 2.5-8-10-17.5-2.5 2.5-5.5Zm-311 6 2.5 1.5-1.5 4.5-3.5-1.5 2.5-4.5Zm294 12 8.5.5-3.5 5.5-6.5-1.5-1-2 2.5-2.5Z"/><path fill="#0E2F8C" stroke="#0E2F8C" stroke-width="3" d="M99.5 402q14.22-2.72 19.5 3.5l1 3-2.5 3.5-15 2-6.5-3.5 3.5-8.5Zm408 0q14.22-2.72 19.5 3.5l1 3-2.5 3.5-15 2-6.5-3.5 3.5-8.5Zm-288 6h56l25 22 29.5 3.5-12.5 13.5q-7.17 5.83-23 3l-5.5-2.5 10-13-2.5-1.5-20 17h-25l-7.5-4.5.5-2.5 24 1 1.5-2.5-6-9-1.5-18.5-40.5 1.5 1 6-1.5.5-3.5-2.5-2-6 3.5-5.5Zm504 0h56l25 22 29.5 3.5-12.5 13.5q-7.17 5.83-23 3l-5.5-2.5 10-13-2.5-1.5-20 17h-25l-7.5-4.5.5-2.5 24 1 1.5-2.5-6-9-1.5-18.5-40.5 1.5 1 6-1.5.5-3.5-2.5-2-6 3.5-5.5Zm-693 12h173l6.5 3.5-1.5 2.5L24 424.5l1.5-2.5 5-2Zm324 0 35.5 1.5-1.5 4.5-40.5-1.5 1.5-2.5 5-2Zm84 0h269l6.5 3.5-1.5 2.5-280.5-1.5 1.5-2.5 5-2Zm420 0 35.5 1.5-1.5 4.5-40.5-1.5 1.5-2.5 5-2Zm417 0 32.5 1.5-1.5 4.5h-32l-2.5-2.5 3.5-3.5Zm-1249 18 165.5 1.5 5 8-5.5 2.5h-155L24 442.5l2.5-4.5Zm323 0 3.5.5 1 6-13.5 15.5-4 1-.5-1.5 2.5-3.5-1.5-.5 8-5 4.5-12.5Zm85 0 261.5 1.5 5 8-5.5 2.5h-251l-12.5-7.5 2.5-4.5Zm419 0 3.5.5 1 6-13.5 15.5-4 1-.5-1.5 2.5-3.5-1.5-.5 8-5 4.5-12.5Zm414 0 3.5.5 1 6-13.5 15.5-4 1-.5-1.5 2.5-3.5-1.5-.5 8-5 4.5-12.5Zm-1008 18 46.5.5-3.5 5.5-44.5-1.5 1.5-4.5Zm504 0 46.5.5-3.5 5.5-44.5-1.5 1.5-4.5Zm414 0 46.5.5-3.5 5.5-44.5-1.5 1.5-4.5Z"/><path fill="#00001B" stroke="#00001B" stroke-width="3" d="m756.5 21 1 2 1.5.5-1.5.5-1-3Zm75 56-2.5 3.5.5 2.5 1.5.5-1.5.5-1.5-3.5 3.5-3.5Zm350 1 7.5 3.5.5 1.5 5.5 4.5.5 1.5 2.5 1.5 2 19-12.5 14.5-4 2h-93l-5.5-3.5-.5-1.5-244-1-31 22 6.5-7.5-.5-2.5q-17.07 4.07-23-3l-1.5.5-10-14 1.5-.5 8.5 7.5.5 1.5 27 2h2l1.5-.5v-2l-2.5-4.5-5.5-4.5-.5-2.5-2.5-.5 1.5-2.5 11 6h254l2-1 6.5 3.5 1.5 2.5 54 1 15-2h2l4.5-2.5-5-10 1-6-1-10 13.5-6.5 2 1 2-1 11.5 6.5 1 21-1 2 .5 1.5-2-1-3.5 5.5 2.5.5 7.5-8.5-.5-1.5 1.5-.5-.5-1.5 1.5-.5-1-3 1-13-6-4-1.5-3.5-4.5-2.5-.5-3.5ZM1171 96l-4 2-1 2 5 2 9-2v-1l-9-3Zm-347 25-1 3v1l4-1v-1l-3-2ZM356.5 84l94 1 5-1 7 10 4 2 158.5.5-1.5 5.5h-171l-2.5-2.5-.5-2.5-14-8h-71l-4.5 1.5-.5 4.5-1.5.5 2 7-3.5 5.5-2.5-.5v-21l2.5-2.5Zm280 3 2 3 3.5 1.5-1.5 4.5-4.5-2.5.5-6.5Zm12 21 10 2 8-1h2l41 1 64-2 .5 4.5-131.5 1.5-.5-2.5 6.5-3.5Zm13.5 2v1h3l-3-1Zm52 0v1h24l-24-1Zm25 1v1h3l-3-1Zm26 0v1h3l-3-1Zm-459.5 6 .5 1.5-2.5 1.5v-1l1.5-.5.5-1.5Zm450 48L733 188.5l.5 2.5 1.5.5-1.5.5-1.5-3.5 23.5-23.5Zm194 21 2.5 1.5-1.5-.5-1-1Zm-161 18q12.25-3.25 15.5 2.5l-2.5 3.5q-12.25 3.25-15.5-2.5l2.5-3.5Zm108 6 9.5 2.5-.5 9.5-5.5-.5-.5-1.5-1.5.5-.5-1.5-1.5.5.5-1.5-1.5-.5.5-1.5-1.5-.5 2.5-5.5Zm-547 6 16.5 1.5-1.5 4.5-16.5-1.5 1.5-4.5Zm-6 12 16.5 1.5-2.5 4.5-15.5-1.5 1.5-4.5Zm-18 18 16.5 1.5-1.5 4.5-16.5-1.5 1.5-4.5Zm589 102 3.5.5-2.5 5.5-3.5-.5 2.5-5.5Zm10 0 5.5 2.5-.5 3.5-5 2v-8Zm14 0 15.5.5-1 3 1 5v2l-9.5 13.5-2.5-.5 1-7-7-14 2.5-2.5Zm450 0 9.5 2.5-7.5 9.5-2.5.5 3 1-1.5 3.5-1.5-.5-2-6 1-5-1-3 2.5-2.5Zm18 0 3.5.5-.5 7.5-5.5-2.5 2.5-5.5Zm10 0q9.5-2 11.5 3.5l-1 6 1 5-11.5 9.5-.5-8.5 6-7-5.5-8.5Zm6.5 2v1h1l-1-1Zm-510.5 10 5.5 2.5-.5 3.5-3.5-1.5-1.5-4.5Zm14 0 3.5.5-3.5 5.5-2.5-.5 2.5-5.5Zm478 0 5.5 2.5-.5 3.5-5.5-3.5.5-2.5Zm-478 13 8.5 7.5-.5 1.5-9.5-6.5 1.5-2.5Zm474 0 8.5 7.5-.5 1.5-9.5-6.5 1.5-2.5Zm-1388 50 2 3h201l28.5 23.5 3.5 5.5 4.5 1.5-1 4 56.5 1.5 27-25 1.5.5.5-5.5 4.5 3.5-5 3-11.5 13.5-5.5 3.5 2 1-2 7 3 2 .5 1.5 13 1 25.5-16.5 5-9v-2l2.5-6.5 3.5 1.5-1 12 1 2-9.5 18.5-1.5.5-2 3 1 2-1.5.5-11 9-19 9-242-1-2 1v-2l-2 1-4.5-2.5.5-2.5 2.5.5.5 2.5 1-3h157l9.5-6.5 3-7-1-2 1-2-13-18 .5-1.5-3 1-5-6-3.5-2.5-2.5-3.5-3.5-2.5 1-2-1.5.5-6-2h-194l-3.5.5-.5 5.5-2.5-5.5.5-1.5-6.5-4.5 3-1 .5-2.5ZM287 465v1h3l-3-1Zm0 4-3 1-1 2 4 1 6-1v-1l-6-2Zm-22 11-4 2-1 2 5 2 9-2v-1l-9-3Zm32 1-2 3 3 1 1-2-2-2Zm1166.5-58 1 3 2.5.5-3.5 12.5-5-1-.5 3.5v2l-2.5 8.5-1.5.5-3.5 10.5-4.5 2.5.5 2.5 9.5-7.5 5.5-10.5 2-1 .5 2.5-3.5 5.5-1.5.5-7.5 14.5-12 3 .5-3.5 4.5-12.5 1.5-.5 2.5-6.5 1.5-.5-1-2 3.5-17.5 1.5.5 1.5-2.5 6.5-4.5 1.5-2.5Zm-1041 3h297l28.5 23.5 3.5 5.5 4.5 1.5-1 4 56.5 1.5 27-25 1.5.5.5-5.5 4.5 3.5-5 3-11.5 13.5-5.5 3.5 2 1-2 7 3 2 .5 1.5 13 1 25.5-16.5 5-9v-2l2.5-6.5 3.5 1.5-1 12 1 2-9.5 18.5-1.5.5-2 3 1 2-1.5.5-11 9-19 9-338-1-2 1v-2l-2 1-4.5-2.5.5-2.5 2.5.5.5 2.5 1-3h253l9.5-6.5 3-7-1-2 1-2-13-18 .5-1.5-3 1-5-6-3.5-2.5-2.5-3.5-3.5-2.5 1-2-1.5.5-6-2h-293l-2.5-2.5-.5-1.5-1 2-2.5-1.5 2.5-2.5ZM769 480l-4 2-1 2 5 2 9-2v-1l-9-3Zm32 1-2 3 3 1 1-2-2-2Zm246.5-55 2.5 1.5-1.5 10.5-4.5.5 1 4-6 12 1 2v2l1.5 4.5 2.5 1.5-.5 3.5-6.5 2.5 1 2-11.5 1.5-.5-6.5 4.5-8.5 1.5-.5 2.5-6.5 1.5-.5-1-2 3.5-17.5 1.5.5 1.5-2.5 6-4Zm-12.5 37-3 5h3l2-3-2-2Zm251.5-29 3.5 1.5-1 12 1 2-9.5 18.5-1.5.5-2 3 1 2-1.5.5-11 9-19 9-233-1-5 1-.5-2.5 3.5-3.5h146l9.5-6.5 3-7-1-2 1-2-9.5-14.5-2.5-.5.5-3.5 2.5.5.5 1.5 8.5 4.5-1 4 56.5 1.5 9-7 1 2 .5-2.5.5-4.5 4.5 3.5-1.5.5-2.5.5 2 1-2 8 3 2 .5 1.5 13 1 25.5-16.5 5-9v-2l2.5-6.5ZM1183 480l-4 2-1 2 5 2 9-2v-1l-9-3Zm32 1-2 3 3 1 1-2-2-2Zm-203 7-1 2h1v-2Zm-601.5-38 15.5.5-2.5 11.5-3.5-.5-1.5-3.5-10.5-5.5 2.5-2.5Zm504 0 15.5 3.5.5 2.5 2.5.5-2.5 4.5-1-4-3 5-2.5-.5-1.5-3.5-10.5-5.5 2.5-2.5Zm66 0 11 12-11.5-5.5.5-6.5Zm31 0q10.75-1.75 14.5 3.5l-.5 2.5-5.5 1.5-.5 1.5-7 3 1.5-2.5-.5-3.5-5.5-.5 3.5-5.5Z"/><path fill="#00001B" stroke="#00001B" stroke-width="3" d="m1049.5 450 .5 2.5-5.5 3.5.5-1.5 2.5-3.5 2-1Zm279 0 15.5 3.5.5 2.5 2.5.5-2.5 4.5-1-4-3 5-2.5-.5-1.5-3.5-10.5-5.5 2.5-2.5Zm66 0 11 12-11.5-5.5.5-6.5Zm31 0q10.75-1.75 14.5 3.5l-.5 2.5-5.5 1.5-.5 1.5-7 3 1.5-2.5-.5-3.5-5.5-.5 3.5-5.5Zm-423 22 11.5 5.5-.5 2.5-11.5-3.5-1-2 1.5-2.5Zm414 0 11.5 5.5 1 2-1.5 2.5-11.5-5.5-1-2 1.5-2.5Zm-1024 2 17.5.5-3 5 1 3-11.5 5.5-2-8-4.5-3.5 2.5-2.5Zm504 0 17.5.5-3 5 1 3-11.5 5.5-2-8-4.5-3.5 2.5-2.5Zm72 0 11 12-11.5-5.5.5-6.5Zm342 0 17.5.5-3 5 1 3-11.5 5.5-2-8-4.5-3.5 2.5-2.5Zm72 0 11 12-11.5-5.5.5-6.5Zm-1301 24 2.5.5-.5 5.5-5.5-.5 3.5-5.5Zm21 0 5.5.5-.5 5.5-5.5-.5.5-5.5Zm30 0 5.5.5-.5 5.5-5.5-.5.5-5.5Zm54 0 5.5.5-.5 5.5-5.5-.5.5-5.5Zm30 0 5.5.5-.5 5.5-5.5-.5.5-5.5Zm30 0 5.5.5-.5 5.5-5.5-.5.5-5.5Zm30 0 5.5.5-.5 5.5-5.5-.5.5-5.5Zm30 0 5.5.5-.5 5.5-5.5-.5.5-5.5Zm30 0 5.5 3.5-.5 2.5-5.5-.5.5-5.5Zm123 0 8.5.5-1.5 3.5-12 2 5-6Zm30 0 2.5.5-.5 5.5-5.5-.5 3.5-5.5Zm21 0 5.5.5-.5 5.5-5.5-.5.5-5.5Zm30 0 5.5.5-.5 5.5-5.5-.5.5-5.5Zm30 0 5.5.5-.5 5.5-5.5-.5.5-5.5Zm30 0 5.5.5-.5 5.5-5.5-.5.5-5.5Zm30 0 5.5.5-.5 5.5-5.5-.5.5-5.5Zm30 0 5.5.5-.5 5.5-5.5-.5.5-5.5Zm30 0 5.5.5-.5 5.5-5.5-.5.5-5.5Zm30 0 5.5.5-.5 5.5-5.5-.5.5-5.5Zm30 0 5.5.5-.5 5.5-5.5-.5.5-5.5Zm30 0 5.5.5-.5 5.5-5.5-.5.5-5.5Zm30 0 5.5.5-.5 5.5-5.5-.5.5-5.5Zm30 0 5.5 3.5-.5 2.5-5.5-.5.5-5.5Zm123 0 10.5.5q-2.5 8-15.5 5.5l5-6Zm51 0 5.5.5-.5 5.5-5.5-.5.5-5.5Zm30 0 5.5.5-.5 5.5-5.5-.5.5-5.5Zm30 0 5.5.5-.5 5.5-5.5-.5.5-5.5Zm30 0 5.5.5-.5 5.5-5.5-.5.5-5.5Zm30 0 5.5.5-.5 5.5-5.5-.5.5-5.5Zm30 0 5.5.5-.5 5.5-5.5-.5.5-5.5Zm30 0 5.5.5-.5 5.5-5.5-.5.5-5.5Zm30 0 5.5.5-.5 5.5-5.5-.5.5-5.5Zm30 0 5.5 3.5-.5 2.5-5.5-.5.5-5.5Zm123 0 10.5.5q-2.5 8-15.5 5.5l5-6Z"/><path fill="#FEFECC" stroke="#FEFECC" stroke-width="3" d="M551.5 204q20.81 2.19 30.5 15.5l-.5 2.5-35.5-12.5 1.5-3.5 4-2Zm386 6 10.5 1.5-1.5 4.5-10.5-1.5 1.5-4.5Zm101 36 5.5 1.5-1.5 4.5-4.5-1.5.5-4.5Zm-177 18q14.92-2.92 20.5 3.5l-.5 2.5-29 12 .5-1.5 8.5-16.5Z"/></svg>