<svg viewBox="0 0 1530 864" xmlns="http://www.w3.org/2000/svg"><path fill="#2767AC" stroke="#2767AC" stroke-width="3" d="m434.5 108 9.5 12.5-1.5-.5-4.5.5-.5 3.5-5.5-13.5 2.5-2.5Zm4 17 4 1 1.5-.5q4 14.5-2.5 18.5l-9.5-.5q7.24-5.26 6.5-18.5Zm-18 19-.5 1.5-7.5 8.5-4 2-.5-2.5 12.5-9.5Zm-27 18 2.5.5 1 5-1.5 2.5-5.5-2.5 3.5-5.5Zm25 0 7.5 2.5-2.5 3.5-4.5-.5 1-3-1.5-2.5Zm-12 4 1.5.5.5 1.5 3.5.5-10.5 5.5.5-1.5 1.5-2.5 3.5-1.5-.5-2.5Zm-46 14 5.5.5-3.5 5.5-8 2-.5-4.5 6.5-3.5Zm102 12 5.5 3.5-.5 2.5-4.5-3.5-.5-2.5Zm-122 1 1 2-5 2-.5-1.5 4.5-2.5Zm61 3 1 2 1.5.5-7.5 5.5-.5-2.5 5.5-5.5Zm58 2 2.5 4.5-9.5 5.5-2.5-1.5.5-2.5 9-6Zm-131 1 1.5.5-1.5 4.5-4.5-.5.5-2.5 4-2Zm16 5 3.5.5-.5 2.5-4 2-1.5-2.5 2.5-2.5Zm46 0 4.5.5-10.5 5.5-.5-2.5 6.5-3.5Zm93 0 2.5 1.5 2 4-7.5.5-.5-2.5 3.5-3.5Zm-167 1 1.5 4.5-5.5.5-.5-2.5 4.5-2.5Zm152 3 5.5 3.5-1.5 4.5-4.5-1.5-2-4 2-1 .5-1.5Zm-73 2 .5 2.5-7.5 3.5 3-4 4-2Zm-97 1 1.5 3.5-5.5 3.5-1-2-1.5-.5 6.5-4.5Zm13 0 1 5 1.5.5-7.5 9.5-3.5 1.5-2.5 5.5-1-2-5 3-.5-2.5 11.5-13.5 3.5-1.5 2.5-5.5Zm64 5 2.5.5-.5 8.5-7 3 1.5-2.5 3.5-9.5Zm-48 6 .5 2.5-7.5 9.5-1.5-.5 8.5-11.5Zm39 0 1.5.5-7.5 5.5-.5-2.5 6.5-3.5Zm138 0 5.5 1.5 1.5 2.5 10.5 5.5-5.5 2.5-10.5-5.5-2-4 .5-2.5Zm24 4 4.5 2.5 3.5 5.5 3.5 1.5 2.5 4.5 3.5 1.5-2.5 4.5-3.5-.5-1.5-5.5-10.5-3.5.5-10.5Zm-272 6 1.5.5.5 1.5 1.5-.5-3.5 4.5-20 8v-1l3.5-1.5.5-3.5 16-8Zm97 0 .5 4.5-9.5 3.5v-1l9-7Zm-50 2 1.5.5-11.5 20.5-5 2-2-3-2.5-1.5 4.5-1.5 3 1 2.5-4.5v-2l9.5-11.5Zm618 6 8.5 1.5-1.5 4.5-10.5-2.5 3.5-3.5Zm-587 1 1.5.5-7.5 8.5-4 2-.5-2.5 10.5-8.5Zm-106 5 1.5.5-7.5 5.5-.5-2.5 6.5-3.5Zm51 0 2.5.5-.5 6.5-4-1-1.5.5 3.5-6.5Zm29 0 2.5 5.5-4.5.5-.5-3.5 2.5-2.5Zm-92 6 4.5.5-5 3-3.5 8.5-2.5-.5.5-8.5 6-3Zm146 6 3.5 2.5-2.5 3.5-3.5-2.5 2.5-3.5Zm163 0 2.5 1.5-7.5 8.5-5 2-4.5-3.5-1-2q11.25.25 15.5-6.5Zm-328 4 1 2 4.5.5-9.5 4.5.5-1.5 3.5-5.5Zm73 2 5.5 2.5-2.5 3.5-13 6-.5-2.5 4.5-6.5 6-3Zm74 0 3.5 2.5-2.5 3.5-3.5-2.5 2.5-3.5Zm157 0 2.5.5.5 3.5 3.5 1.5-9.5 2.5-.5-4.5 3.5-3.5Zm-187 6 9.5 2.5-2.5 3.5-9.5-2.5 2.5-3.5Zm-130 1 1.5.5-19.5 32.5-4 2-.5-5.5q5.42-17.58 18.5-27.5l4-2Zm594 5 9.5.5-2 5 3.5 5.5 9 1 17-8 1 2 8-6h39l.5 5.5-12.5 15.5-23.5 11.5-2.5 7.5-9 2-4.5-2.5-4.5-13.5-6-1-7 4-6-4-6 4q-3.65-6.35-15-5-7.37 7.63-23.5 6.5l-1.5 3.5-10 2-12-6q-15.71 3.21-22.5-2.5l-4.5-8.5-22 11h-23l-10-5q-7.46 8.04-26 5l-15-5q-8.17 7.83-27 5l-11.5-8.5.5-1.5 29-2 14-6 12 6 10-6h115l4-2 1 2 5.5-1.5.5-4.5 17-2 1 2 11.5-.5-1.5-5.5Zm58.5 13-2 4 1 6h2l1-3-1-6-1-1Zm-99 11-4 2-1 2 11 2v-2l-6-4Zm88 0q-7 3-1 6l3-2-2-4Zm-570.5-18 8.5.5-2.5 5.5-9.5-.5 3.5-5.5Zm160 0 5.5.5-1 4 .5 1.5-6.5-1.5 1.5-4.5Zm10 0 6.5 3.5-.5 2.5-6.5-.5 1-4-.5-1.5Zm73 5 4 1 1.5-.5-2.5 5.5-1.5-.5-1.5-5.5Zm-215 1 3.5.5-2.5 5.5-2.5-.5 1.5-5.5Zm112 0 6.5.5-3.5 5.5-3.5-.5 1-4-.5-1.5Zm51 0 9.5 3.5-.5 2.5-11.5-2.5 2.5-3.5Zm-186 6 3.5 2.5-2.5 3.5-3.5-2.5 2.5-3.5Zm226 0 3.5 1.5 2 4-4.5.5-1-6Zm54 6 10.5 2.5-.5 1.5-9 2-1-6Zm-315 7 1.5.5-5.5 7.5-11 3-1-5-17 5-.5-2.5 16.5-7.5 9 4 8-5Zm-72 5 2.5.5 1 5-1.5 2.5-4.5-3.5 2.5-4.5Zm14 0 1.5 6.5-3.5-.5-3 2-1-2-1.5-.5 7.5-5.5Zm76 0 2.5 4.5-12 10-.5 3.5-3.5-1.5 13.5-16.5Z"/><path fill="#2767AC" stroke="#2767AC" stroke-width="3" d="m764.5 312 3.5 6.5-1.5-.5-6.5-.5 4.5-5.5Zm406 0 5.5 2.5 2 3-4.5.5-3-6Zm-613 6 .5 4.5-4.5 1.5-1.5-2.5 5.5-3.5Zm103 0 5.5 3.5-1.5 2.5-4.5-2.5.5-3.5Zm47 0 6.5.5-.5 2.5-6 3 .5-1.5-.5-4.5Zm438 0 1.5.5-12.5 14.5 5.5-6.5 3.5-7.5 2-1Zm-345 1 2.5 1.5-1.5 2.5-2.5-1.5 1.5-2.5Zm-619 4-4 7-3.5-2.5 2.5 1.5 5.5-4.5-.5-1.5Zm74 1 2.5 8.5-1.5-.5-3.5 1.5 1 2-2 1 2 5-4.5.5-4-6-5 1-3.5-1.5 2.5-4.5 1 4 3-5 12-6Zm28 0 4.5 2.5-.5 3.5-5.5-1.5 1.5-4.5Zm294 0 4.5 1.5-1.5 4.5-4.5-.5 1.5-5.5Zm190 4 1 2 1.5.5-4.5 9.5-4 2-3.5-2.5-2-9 11.5-2.5Zm-626 2 2.5.5-.5 5.5-3.5-1.5 1.5-4.5Zm642 0 2.5.5-3.5 5.5-2.5-.5 3.5-5.5Zm17 1 2.5 1.5-1.5 2.5-2.5-1.5 1.5-2.5Zm18 0 2.5 1.5-1.5 2.5-2.5-1.5 1.5-2.5Zm-170 5 5.5 1.5-1.5 2.5-10 2-.5-2.5 6.5-3.5Zm210 0 5.5 1.5-1.5 10.5-4.5-1.5.5-10.5Zm21 0 2.5.5-1.5 11.5-4.5-2.5 3.5-9.5Zm-545 1 1.5.5-6.5 7.5-9 3-2.5-3.5 16.5-7.5Zm224 3 5.5 3.5-1.5 2.5-5 2 .5-1.5-1-4 1.5-2.5Zm54 1 4 1 1.5-.5-3.5 6.5-2.5-1.5-2-4 2.5-1.5Zm-208 1 3.5.5-.5 5.5-2.5-.5-2-4 1.5-1.5Zm11 0 4.5 1.5-4.5 12.5-1.5-.5-.5-1.5-2.5-.5 4.5-11.5Zm48 0 4.5 1.5-.5 4.5-5.5-1.5 1.5-4.5Zm59 0 5.5 1.5-1.5 4.5-4.5-1.5.5-4.5Zm25 0 5.5.5-1 4 .5 1.5-6.5-1.5 1.5-4.5Zm301 0 3.5.5-1.5 5.5-4.5-2.5 2.5-3.5Zm-256 1 1.5.5-1.5 2.5-4 2-.5-2.5 4.5-2.5Zm532 0 2.5 1.5-1.5 2.5-2.5-1.5 1.5-2.5Zm-14 1-.5 1.5q-1.33 12.83 5 18l-7.5 8.5 2.5-3.5-.5-2.5-9.5-2.5-2-10 1.5.5 4.5-2.5-1-3 7.5-4.5Zm-808 4 9.5.5-.5 2.5-9 3-2.5-3.5 2.5-2.5Zm124 0 5.5 2.5-.5 15.5-5.5-1.5.5-16.5Zm147 0 1.5.5 2.5 3.5 9.5 4.5-2.5 3.5-3.5-.5 1-4-5.5-1.5-.5 4.5.5 1.5-4.5-2.5-2-4 3.5-5.5Zm129 0 5.5.5-2.5 4.5-1.5-.5-1.5-4.5Zm-556 1 7.5 4.5 4.5 6.5 3.5 1.5-.5 4.5-10.5 2.5-2.5 15.5-2.5-1.5-2-15 4-2 1-3q-6.5-1.5-5-11l2.5-2.5Zm582 0 2.5 1.5-1.5 2.5-2.5-1.5 1.5-2.5Zm-451 5 4.5.5-.5 2.5-5 2-.5-3.5 1.5-1.5Zm227 0 5.5 1.5-.5 4.5-5.5-1.5.5-4.5Zm234 0 5.5 1.5-.5 4.5-5.5-3.5.5-2.5Zm170 1 9.5 6.5 2 10-13.5 3.5-.5-14.5 2.5-5.5Zm-494 3 1.5.5 3 6-1.5-.5-5.5-3.5 2-1 .5-1.5Zm-216 2 5.5 3.5-.5 2.5-5.5-2.5.5-3.5Zm249 0 2.5 10.5-4.5 1.5-1.5-8.5 3.5-3.5Zm94 0 4.5 1.5-.5 10.5-5.5-2.5 1.5-9.5Zm295 0 3.5 2.5-2.5 3.5-3.5-2.5 2.5-3.5Zm101 0 5.5.5-1.5 4.5-4 1-1.5-4.5 1.5-1.5Zm-517 4 1 2-1.5-.5.5-1.5Zm272 3 2.5 1.5-7.5 14.5-1.5-.5-2-5 8.5-10.5Zm12 0 2.5 1.5-1.5 2.5-2.5-1.5 1.5-2.5Zm224 0-.5 1.5-1.5 3.5-2-3 4-2Zm-718 5 5.5 3.5-.5 2.5-5.5-1.5.5-4.5Zm213 0 8.5.5-3.5 5.5-8.5-2.5 3.5-3.5Zm46 0 4.5.5-3.5 5.5-2.5-4.5 1.5-1.5Zm130 0 5.5 3.5 1 2-6.5 1.5-4-1-1.5.5 1.5-4.5 4-2Zm126 0 6.5 3.5.5 2.5 5.5.5-1.5 5.5-15 12-1.5-4.5 4-2 1-3-11-4 .5-4.5 3.5-1.5 1.5-2.5 1 4 5.5-1.5-.5-4.5Zm36 0 12.5 6.5-1.5 5.5-13 5-9.5-6.5.5-4.5 6-1 4 1 1.5-4.5-.5-1.5Zm-87 1 1.5.5 8 16-2.5.5-7.5-5.5-2-4 2.5-7.5Zm-457 5 10.5 3.5-.5 2.5-10-6Zm227 0 5 3 1.5-.5 1.5 3.5 3-2 1 2 5.5-3.5.5-1.5 3-1 2.5 4.5-12 3 1.5 4.5 4.5.5-.5 2.5-15 3q-6.58-4.08-2-18Zm90 0 11.5 2.5-8.5 3.5-3-6Zm91 0 4.5.5-1.5 3.5-4 2-.5-4.5 1.5-1.5Zm-31 5 4 1h2l1.5.5-4.5 5.5-3.5-1.5.5-5.5Zm-426 1 5.5 2.5-.5 3.5-9 6-2.5-4.5 6-4 .5-3.5Zm765 0 2.5.5-.5 2.5-8 3 2-3 4-3Zm-238 6 .5 2.5-5.5 3.5.5-1.5 2.5-3.5 2-1Zm187 0 5.5 3.5-1.5 2.5-2.5-1.5-1.5-4.5Zm35 3 .5 3.5-3.5 5.5-2.5-.5-2-5 7.5-3.5Zm-664 3 4.5 2.5-.5 3.5-5.5-1.5 1.5-4.5Zm284 0 2.5 2.5-10 10-1.5 3.5-4 2-2.5-.5 15.5-17.5Zm119 0 3.5 2.5-2.5 3.5-3.5-.5 2.5-5.5Zm-383 6h8l18.5 9.5-.5 3.5-5-1-1 2-11-8-1 5-11.5-5.5 3.5-5.5Zm215 0 3.5 1.5-.5 4.5-5.5-.5 2.5-5.5Zm95 0 4.5 2.5-.5 9.5-5.5-1.5 1.5-10.5Zm24 0 10.5 1.5-1.5 4.5-10.5-2.5 1.5-3.5Zm29 0 5.5 2.5-2.5 3.5-9.5-.5.5-2.5 6-3Zm102 0 5.5 2.5-24.5 15.5.5-1.5-.5-4.5-5.5 1.5 1 4-6.5 2.5-1-2-5.5 1.5 1 4-12.5 5.5-.5-10.5 2.5-4.5 22-2 15-11 7 4 2-5Zm-661 6 5.5 2.5-2.5 3.5-7.5-2.5.5-1.5 4-2Zm73 0 5.5.5-2.5 5.5-3.5-2.5.5-3.5Zm259 0 4.5 2.5-.5 5.5-5.5-3.5 1.5-4.5Zm17 0 47.5 1.5-1.5 4.5-52.5-.5.5-2.5 6-3Zm132 0 11.5 2.5-.5 4.5-5-1-1 2-11.5-2.5 3.5-4.5 3-1Zm37 0h7l15.5 7.5.5 2.5 8 1 8-5 2 4 5 2 2-4 5-2-.5 1.5 1.5 4.5 4.5-1.5-1-4 14.5-.5-1.5 2.5.5 1.5 5.5 4.5-.5 3.5-9-5-5 9-4 2-14-5-7 4-6-4q-7.46 8.04-26 5l-4.5-2.5-2-20 1.5-1.5Zm6.5 6-2 5 5 1 1-4-4-2Zm226.5-6-.5 1.5-1.5 2.5-6 2 2-3 6-3Zm-513 6 2.5 1.5-3.5 4.5-2.5-.5 3.5-5.5Zm-252 6 2.5.5-.5 5.5-4.5-2.5 2.5-3.5Zm101 0 3.5 2.5-2.5 9.5-3.5-2.5 2.5-9.5Zm275 0 4.5.5-3.5 5.5-2.5-1.5 1.5-4.5Zm40 0 6.5 1.5-.5 4.5-5.5 2.5-1.5 3.5-4.5-2.5 3.5-8.5 2-1Zm14 0 5.5.5-2.5 5.5-4.5-1.5 1.5-4.5Zm42 0 4.5.5-2.5 9.5-4 2-4.5-2.5 6.5-9.5Zm42 0 10.5.5-3.5 4.5-3 1-5.5-3.5 1.5-2.5Zm526 4 1.5 8.5-1.5 2.5-4.5-6.5 1.5-2.5 2.5-.5.5-1.5Zm-773 8 5.5 1.5-1.5 4.5-4.5-2.5.5-3.5Zm185 0 5.5 2.5-.5 1.5-9 2-1.5-2.5 5.5-3.5Zm156 0 6.5.5-.5 2.5-10 3-1.5-2.5 5.5-3.5Zm127 0-.5 1.5.5 4.5 3.5.5-10.5 5.5.5-1.5-.5-4.5-5.5 1.5 1 4-4.5.5-2.5-3.5 18.5-8.5Zm5 0 6.5.5-2.5 5.5-4.5-.5 1-4-.5-1.5Zm-737 4 10.5 5.5 1 2-9.5.5-2-8Zm662 2 4.5.5-1 4 .5 1.5-6.5-2.5 2.5-3.5Zm120 0 3.5 1.5-1.5 4.5-4.5-2.5 2.5-3.5Zm63 0 5.5 2.5-.5 1.5-5 2 .5-1.5-.5-4.5Zm49 0 5.5 1.5-2.5 4.5-9.5-.5 3.5-4.5 3-1Zm-495 12 8.5 2.5-2.5 3.5-11.5-.5 5.5-5.5Zm34 0 10.5 1.5-1.5 10.5-10.5-1.5 1.5-10.5Zm24 0 4.5 1.5-.5 4.5-5.5-1.5 1.5-4.5Zm18 0 4.5 2.5-2.5 3.5-3.5-.5 1.5-5.5Zm186 0 4.5 1.5-1.5 4.5-4.5-1.5 1.5-4.5Zm-601 6 5.5 3.5-.5 2.5-5.5-3.5.5-2.5Zm193 0 4.5 1.5-1.5 4.5-4.5-1.5 1.5-4.5Zm18 0 4.5 1.5 2 4-6.5.5-1.5-4.5 1.5-1.5Zm12 0 28.5 1.5-1.5 2.5-27 2-1.5-4.5 1.5-1.5Zm38 0 20.5 1.5-1.5 4.5-24.5-.5 5.5-5.5Zm52 0 4.5 1.5-1.5 4.5-4.5-1.5 1.5-4.5Zm47 0 5.5 3.5-1.5 2.5-4.5-2.5.5-3.5Zm176 0 3.5 2.5-2.5 3.5-3.5-2.5 2.5-3.5Zm175 0 2.5 1.5-1.5 4.5-2.5.5-1 3 1.5 2.5 3.5 1.5q2.08 16.08-7.5 20.5l-9.5 4.5-7.5 12.5-42 27q-20.96-1.96-29.5 8.5l-1.5 3.5-16.5 2.5-1.5 3.5-9.5-.5-1.5-3.5-3-1-26.5 8.5-.5 1.5-12-9-10-2-3 12-9.5-.5-3.5-4.5-1.5.5-2.5 16.5-5.5-.5-2.5-17.5-13-5-5.5 4.5.5 1.5-7 4q-5.3-7.7-20.5-5.5l2.5-9.5 12.5-7.5 2-4-7.5-1.5-22 11h-60L486 566.5l-1.5 3.5-4.5-1.5-.5-2.5-23-8-18.5-1.5.5-4.5 13.5-4.5 10.5-22.5 17.5-6.5 1.5-8.5 4.5 1.5 1.5 2.5 21.5 2.5 2.5 3.5 4 2h43l5.5-2.5 1.5-3.5 28.5 1.5.5 2.5 11 2 5.5-3.5 1.5-6.5 16-2 2 4 3 1 2.5-1.5 1.5-3.5h35l5.5-3.5 1.5-2.5 12.5.5-2 24 7.5 9.5 35 2 10.5-8.5-5.5-14.5-16.5-6.5 2-1q-7.16-8.84-26-6l11-8-6-7 2.5-2.5 10 10 11.5 3.5.5 2.5 3 1 2.5-1.5 1.5-3.5h23q6.06-7.94 22-6v1l-22.5 8.5 9.5 15.5 9 5 9.5-7.5 3.5-15.5 10.5 8.5.5 2.5 11.5-3.5v-9l17-21-8.5-7.5-24 12 4-5 2.5-1.5-.5-1.5 15.5-8.5 1.5-2.5q15.2 2.2 20-6ZM480 522l-14 7-4 5 2 5 10 7q13 1 18-6l15-1q5-4 3-15l-30-2Zm57 7-2 3 3 1 1-2-2-2Zm310.5-73 4.5 1.5-2.5 4.5-3.5-1.5 1.5-4.5Zm-294 6 4.5 2.5-.5 3.5-5.5-3.5 1.5-2.5Zm-281 6 3.5 2.5-2.5 3.5-3.5-2.5 2.5-3.5Zm12 0 3.5 2.5-2.5 3.5-3.5-2.5 2.5-3.5Zm102 0 3.5 2.5-2.5 3.5-3.5-2.5 2.5-3.5Z"/><path fill="#2767AC" stroke="#2767AC" stroke-width="3" d="m728.5 474 3.5 2.5-2.5 3.5-3.5-2.5 2.5-3.5Zm30 0 3.5 1.5-.5 4.5-5.5-1.5 2.5-4.5Zm60 0q6.5 3 1 6l-3.5-4.5 2.5-1.5Zm-638 6 5.5 2.5-.5 3.5-5.5-3.5.5-2.5Zm361 0 4.5.5-2.5 5.5-3.5-1.5 1.5-4.5Zm31 0 7.5 5.5 2 4-.5 2.5-11.5-6.5 2.5-5.5Zm37 0 6 11 8.5 2.5-2.5 4.5-15.5-1.5q-3.25-13.25 3.5-16.5Zm366 0 20.5 1.5-1.5 10.5-9.5 2.5.5 1.5 10.5 3.5q3.25 13.25-3.5 16.5-13.9 1.6-18.5 12.5l-5.5 11.5-8.5 3.5-1.5 2.5-16-6-13.5-.5 1.5-3.5 2.5-1.5.5-1.5 36-22 6 4 1.5-6.5-6.5-8.5-17-2-19.5 16.5-.5 1.5-3.5 1.5-.5 2.5q-19.26 6.74-29.5 22.5l1.5 3.5q3.57-7.93 17-6l-.5 1.5-.5 2.5-42 32-4.5-2.5 4-11-1.5-2.5-6-1-13 10-3-5-9.5 2.5-2 10 3.5 4.5 8.5 4.5-1.5 2.5-10.5 2.5-1.5 3.5-10.5-.5-1.5-3.5-17-2-5.5 3.5-1.5 2.5-4.5-1.5 5-8-5-3 3.5-11.5 8.5-3.5 1.5-2.5h18l43.5-17.5-.5-1.5 21-7 31-25 45.5-27.5 1.5-3.5 4-2Zm.5 6-4 6h3l3-5-2-1Zm-184.5-4 1.5 2.5-2.5 7.5-9.5-.5 9-6 1.5-3.5Zm-671 4 5.5 2.5 6 15-2.5.5q-9.17-5.27-9-18Zm632 0 3.5 2.5-2.5 3.5-3.5-2.5 2.5-3.5Zm-619 6 4.5 1.5-1.5 4.5-4.5-1.5 1.5-4.5Zm223 0 3.5 2.5-2.5 3.5-3.5-2.5 2.5-3.5Zm24 0 3.5 2.5-2.5 3.5-3.5-2.5 2.5-3.5Zm108 0 3.5 2.5-2.5 3.5-3.5-2.5 2.5-3.5Zm179 0 4.5 1.5-1.5 4.5-4.5-2.5 1.5-3.5Zm-477 12 7.5 3.5-.5 2.5-7-6Zm114 0 7.5.5-2.5 5.5-3.5-1.5-1.5-4.5Zm191 0 2.5 3.5-3.5 2.5q-5.5-3 1-6Zm-57 6 5.5 1.5-6 10 3 1 3 11-2.5 4.5-9 2-5.5-2.5.5-1.5 9.5-4.5-5-12 2.5-4.5 3.5-1.5.5-3.5Zm413 0 6.5 2.5-1.5 3.5-4.5-1.5-.5-4.5Zm-695 6 5.5 1.5-.5 4.5-5.5-3.5.5-2.5Zm54 0 7.5 5.5-7.5.5v-6Zm27 0q13.91-1.41 19 6h19l24.5 9.5-.5 2.5-4.5 2.5.5 1.5 23.5 2.5-1 4 .5 1.5q-11.14-1.64-14.5 4.5L290.5 570l-2.5-5.5 6-2-1.5-4.5h-34l-10.5-5.5-2.5-4.5-11.5-3.5 5-14-5-11 3.5-3.5Zm181 1 1.5.5-1.5 2.5-4 2-.5-2.5 4.5-2.5Zm-34 5h20l3.5 3.5-.5 2.5q-9 9-30 6l-18 12-11-6-2 4-6 2 1.5-2.5-.5-3.5-1.5-.5 5.5-11.5q27.44 4.94 39-6Zm-186 6 23.5 1.5-5 8 5 3-1.5 5.5-4.5-1.5-1.5-2.5-15.5-2.5-6-9 5.5-2.5Zm122 1 3.5 2.5-.5 2.5-5.5-.5 2.5-4.5Zm12 0 3.5 2.5-2.5 6.5-1.5-.5-2-6 2.5-2.5Zm-169 5 4.5 2.5-2.5 3.5-3.5-1.5 1.5-4.5Zm-20 6 .5 2.5q-3 6.5-6 1l5.5-3.5Zm618 0 1.5.5-1 4 .5 1.5-6.5-1.5 1.5-2.5 4-2Zm-351 1 2.5 1.5-1.5 2.5-2.5-1.5 1.5-2.5Zm-352 12 1.5.5-1.5 4.5-4.5-.5.5-2.5 4-2Zm482 5 5.5.5-2.5 5.5-3.5-2.5.5-3.5Zm-157 6 6.5.5-2.5 5.5-3.5-1.5-.5-4.5Zm207 0 21.5.5-.5 2.5q-7.17 5.83-23 3l-.5-3.5 2.5-2.5Zm65 0 4.5 1.5-.5 4.5-5.5-3.5 1.5-2.5Zm29 6 17.5.5-5.5 7.5-1-2-17.5 7.5 1 4-1.5.5-5.5-3.5-.5-2.5-10.5-2.5.5-1.5 23-8Z"/><path fill="#2767AC" stroke="#2767AC" stroke-width="3" d="m893.5 571 1 5 5-2-2 3-3.5 1.5-2.5 3.5-3.5-1.5 5.5-9.5Zm-873 5 9.5.5-.5 2.5-9 3-2.5-3.5 2.5-2.5Zm221 0q20.25-3.25 27.5 6.5-6.37 4.63-5.5 16.5l-6-9-17.5-5.5 1.5-8.5Zm322 0 6.5 2.5-5 3 4 1-4.5 2.5-1.5-3.5 1-4-.5-1.5Zm25 0q14-3.5 17.5 3.5l-3.5 8.5h-9l-16 6-1.5-10.5 12-3 .5-4.5Zm-577 5 .5 3.5-7.5 3.5 3-4 3.5-1.5.5-1.5Zm284 1 10.5 3.5-.5 2.5-11.5-1.5 1.5-4.5Zm236 0 8.5 1.5-2.5 4.5-9.5-.5 3.5-5.5Zm185 0 3.5 2.5-2.5 3.5-3.5-2.5 2.5-3.5Zm-402 6 3.5 1.5 2 4-7.5.5-.5-3.5 2.5-2.5Zm35 6 16.5 1.5-1.5 2.5-11 2-5.5-3.5 1.5-2.5Zm24 0h31l3.5 3.5-.5 2.5h-29l-6.5-3.5 1.5-2.5Zm44 0q16.25-4.25 20.5 3.5l-.5 2.5-23.5-.5 3.5-5.5Zm78 0 19.5.5 1.5 3.5 11.5 2.5-.5 5.5-5.5 2.5-1.5 3.5q-24.14-5.14-32 6l-2.5-5.5 4-1 5.5-17.5Zm160 0 4.5.5-3.5 5.5-2.5-.5 1.5-5.5Zm-13 4 4.5 2.5 1 8-4.5 2.5-1-13Zm-378 2 5.5 3.5-.5 1.5-5.5-2.5.5-2.5Zm26 0 3.5 2.5-2.5 3.5-3.5-2.5 2.5-3.5Zm308 0 7.5 2.5-2.5 3.5-5 1-.5-2.5 1-3-.5-1.5Zm-39 6 4.5 2.5-2.5 3.5-3.5-1.5 1.5-4.5Zm37 18 3.5 2.5-2.5 3.5-3.5-.5 2.5-5.5Zm-358 1 1.5.5-1.5 4.5-4.5-.5.5-2.5 4-2Zm-218 5h33l6.5 3.5-.5 3.5-5-1-1 2-33-2-2.5-2.5 2.5-3.5Zm146 7-2 5-2.5-.5.5-2.5 4-2Zm-100 5q10.77-1.27 13.5 5.5l-7.5.5-6.5-3.5.5-2.5Zm336 0 5.5.5-2.5 5.5-3.5-2.5.5-3.5Zm42 0 5.5 2.5-.5 2.5-5.5-2.5.5-2.5Zm75 0 2.5 5.5-9.5 5.5-2.5-4.5 5-1 4.5-5.5Zm-395 1v3l-4 2-.5-2.5 4.5-2.5Zm362 3 3 2 2.5.5-2.5 5.5-3.5-2.5.5-5.5Zm12 2 5.5.5-3.5 5.5-2-6Z"/><path fill="#428BD2" stroke="#428BD2" stroke-width="3" d="m410.5 120 3.5 2.5-2.5 3.5-3.5-2.5 2.5-3.5Zm28 0 5.5 1.5-1.5 4.5-4.5-1.5.5-4.5Zm-17 24 4.5 2.5-5.5 2.5-.5-3.5 1.5-1.5Zm-25 24 5.5.5-1.5 5.5-4.5-2.5.5-3.5Zm28 13 1.5 4.5-5.5.5-.5-2.5 4.5-2.5Zm-18 12 1.5 2.5-5.5 2.5-.5-2.5 4.5-2.5Zm136 29 3.5 2.5-2.5 3.5-3.5-.5 2.5-5.5Zm-262 1 1.5 2.5-5.5 2.5-.5-2.5 4.5-2.5Zm-18 6 1 2-5 2-.5-1.5 4.5-2.5Zm90 0-4 7-1-2-1.5-.5 6.5-4.5Zm-75 23 4.5 1.5-2.5 4.5-3.5-.5 1.5-5.5Zm144 30 4.5 1.5-1.5 4.5-4.5-1.5 1.5-4.5Zm327 1 1.5.5-1.5 4.5-4.5-.5.5-2.5 4-2Zm-359 5 6.5 1.5-1.5 4.5-5.5-.5 1-4-.5-1.5Zm-233 30 5.5.5-2.5 5.5-3.5-2.5.5-3.5Zm548 0 3.5 1.5-1.5 4.5-4.5-2.5 2.5-3.5Zm-525 4q6 3.5-2 7l-3.5-2.5.5-2.5 5-2Zm13 26 5.5 2.5-2.5 3.5-3.5-2.5.5-3.5Zm218 6 3.5.5-.5 5.5-5.5-2.5 2.5-3.5Zm166 0 5.5 1.5-1.5 4.5-4.5-1.5.5-4.5Zm327 24 2 3-4 2 2-5Zm14 12 4.5.5-9.5 4.5-.5-1.5 5.5-3.5Zm-418 30 4.5 2.5-2.5 3.5-3.5-.5 1.5-5.5Zm204 0 4.5.5-.5 2.5-5 2-.5-3.5 1.5-1.5Zm96 12 4.5 1.5-1.5 4.5-4.5-.5 1.5-5.5Zm-66 6 10.5 2.5-2.5 3.5-9.5-1.5 1.5-4.5Zm85 31 8.5 7.5q-16.74 8.26-18.5 31.5l-10 2-6-9-5-2-1.5.5 6-2-1-6 4.5-11.5 23-11Zm.5 5-3 2 4 4q5-3-1-6Zm-39.5 18 9.5.5q-4.46 8.04-19.5 5.5v-1l10-5Zm-18 6 3.5.5-3 5 2.5 4.5 18 2 3.5-2.5-7.5 12.5-5 2-15.5-13.5-2-7 5.5-3.5Zm-68 6q21.44-4.44 28.5 5.5l-2.5.5-29 9-.5-11.5 3.5-3.5Zm155 6 3.5 1.5-.5 4.5-5.5-2.5 2.5-3.5Zm-118 5 7.5 2.5 5 14-10.5 8.5h-31l-9.5-7.5-2-11 1.5.5 4.5 2.5 2.5 3.5h31l2.5-2.5-3-9 1.5-1.5Zm106 1 3.5 2.5 2 3-2 1-.5 1.5-5.5-4.5 2.5-3.5Zm-357 6 30.5 1.5q2.41 11.91-3.5 15.5l-16 1q-4.19 7.31-17 6l-9.5-7.5-2-5 3.5-4.5 14-7Zm5.5 7-4 2-6 7h2l3-1 1 3 11-8-7-3Zm-165.5 11 5.5.5-1 4 .5 1.5-6.5-1.5 1.5-4.5Zm444 0 4.5 2.5-2.5 3.5-3.5-1.5 1.5-4.5Zm-341 6 3.5 2.5-2.5 3.5-3.5-2.5 2.5-3.5Zm-36 6 3.5 2.5-2.5 3.5-3.5-2.5 2.5-3.5Zm-126 12 4.5.5-1 4 .5 1.5-6.5-2.5 2.5-3.5Zm357 6 5.5 1.5-1.5 2.5-4 2 .5-1.5-.5-4.5Zm278 0 4.5 1.5-2.5 4.5-3.5-.5 1.5-5.5Zm-200 6 .5 2.5-6 5-.5-1.5-5.5 1.5 1 4-5.5.5-1.5-4.5 17.5-7.5Zm-685 1 1.5 3.5-5.5 1.5-.5-2.5 4.5-2.5Zm583 27 1 2 3.5.5-7.5 5.5-.5-2.5 3.5-5.5Zm-63 38 3.5 2.5-2.5 3.5-3.5-.5 2.5-5.5Z"/><path fill="#1C5285" stroke="#1C5285" stroke-width="3" d="m430.5 142 1.5.5.5 1.5 3.5.5-22 13 1.5 4.5 4.5 2.5-1.5 3.5-6 1 1.5-2.5-1.5-4.5-4.5 1.5-.5 2.5-1.5.5 1 2-4.5 2.5-1-3-1.5-.5 2-5-2.5-.5-3 2-1-2-1.5-.5 13.5-7.5 1 2 11-9 1 3 5.5-2.5-1-3 5.5-2.5Zm-58 32 5.5.5-3.5 4.5-6.5 1.5-6.5 7.5-7 4-.5-3.5 12-6-.5-2.5-3.5-.5 10.5-5.5Zm87 0 8.5 2.5-6 11 2 4-2 1 3.5 4.5 2 1 1-2 14.5 8.5-3 5 5 1-4 2 5 8-1.5.5-11.5-5.5 1-4-6-4-.5-2.5-4-1-1.5 3.5 1.5 2.5 4.5 2.5 1 3-1.5-.5-14.5-6.5 9-6-2.5-4.5-9.5 6.5-.5 1.5-11.5-13.5 18-1q-3.5-14 3.5-17.5Zm-40 10 1 2 5.5-.5.5-1.5 5.5 2.5-3.5 5.5-8 2-24 18-1-2-7.5 5.5-.5 1.5-9 7-1-8-1.5-.5 8-7 .5 1.5 10.5-5.5-3-1 3.5-1.5 1 2 11.5-7.5.5-4.5 11-8Zm469 8 4.5 2.5-1.5 2.5-3.5-2.5.5-2.5Zm-554 4 3.5 2.5-8.5 5.5.5-1.5.5-4.5 4-2Zm151 8 6.5 3.5-.5 2.5-5.5-2.5-.5-3.5Zm-175 4 1.5.5.5 1.5 2.5.5-2.5 4.5-1-4-5 8-1-3-4.5-.5 4.5-2.5 1 2 2.5-4.5-.5-1.5 2-1Zm25 2 .5 2.5-5.5 3.5.5-1.5 2.5-3.5 2-1Zm172 0h8l18.5 9.5 1.5 8.5 4-1 2.5 1.5-2 4 6 2-.5 6.5-5.5-3.5-.5-2.5-5.5-3.5-1.5-3.5-28.5-12.5 3.5-5.5Zm-208 5 .5 3.5-18.5 9.5.5-1.5.5-4.5 5-2 1 2 5.5-2.5 2.5-3.5 3-1Zm71 5 1.5.5-2.5 7.5q-11.16.34-15 8l-.5-7.5 5.5-2.5 1 2 7.5-5.5.5-1.5 2-1Zm-44 2-5.5 6.5-.5 1.5-.5-1.5 6.5-6.5Zm183 0 9.5 5.5-2.5 1.5-6.5-4.5-.5-2.5Zm41 0 11.5 5.5 2 4-.5 2.5-11.5-6.5-1.5-5.5Zm326 0 10.5 8.5-5.5 15.5-5.5-3.5.5-20.5Zm-571 3 1 3 1.5-.5-3.5 9.5.5-1.5-.5-1.5-10.5 9.5-.5 2.5-5 1h-2l-4 2-1-3-1.5-.5 14-13 .5 1.5 5-3 1 2 5-8Zm-5.5 9-6 4 1 2 5-3v-3Zm-25.5-8 1.5.5.5 1.5 3.5.5-63.5 31.5-.5-4.5 5-3-3-1 3.5-1.5 1 2 5-3 1 3 31.5-17.5.5-1.5 3.5-1.5.5-3.5 10-2Zm43 6q6.5 4-3 8l-2.5-.5 5.5-7.5Zm607 2 2.5.5 3 6-1.5-.5-10 3 5.5-6.5.5-2.5Zm-621 4 .5 1.5-2 1 1.5-2.5Zm38 0 1 2 3.5.5-29.5 16.5-6.5-4.5 4.5-.5 9-2 1 2 11.5-9.5.5-2.5 5-2Zm732 6 2 3 9.5 4.5-17.5.5-4.5-2.5.5-1.5 10-4Zm19 0 5.5 4.5-6.5 3.5.5-1.5.5-6.5Zm-163 1 6.5 12.5-11.5.5-5.5-2.5 2.5-3.5 2.5-.5-2-5 7.5-1.5Zm-375 2 2.5 1.5-1.5 2.5-2.5-1.5 1.5-2.5Zm-272 4 5.5 4.5.5 1.5 2-1-1 2-8.5-.5 1.5-6.5Zm240 1 10.5 8.5-7.5 8.5-9.5 2.5-6 17 2.5 3.5 15 2 5.5-2.5-4-7 5.5-2.5q6.38 8.12 23 6l1-6 10 6 28.5.5-8.5 5.5q-19.75-3.75-29.5 2.5l5.5 6.5q7.17 5.83 23 3l15-5q8.17 7.83 27 5l10-5q9.39 9.11 32 5l22-11 5 9 22 2 17 6 6.5-3.5-.5-2.5-10.5-2.5.5-1.5 4-2 6.5 3.5.5 2.5h11l19-6 9 5 6-4 6 4 10-4 2.5 1.5 4.5 13.5 9 2 4.5-2.5 4.5-9.5q20.15-4.35 30.5-18.5l3-11-4-1 8.5-3.5 2 4 8.5 6.5 3 11-2.5 4.5-8.5 5.5-7 15 2.5 3.5 3 2 10-5 8 5 2-4 5-2 4.5 2.5-.5 1.5-10.5 2.5q3.48 17.48-4.5 23.5l-2.5-.5 1-11-2.5-.5-1 2-.5-1.5 2-4-.5-1.5-7 4-8-5-1 7-5-1-.5 10.5.5 1.5-7.5-.5 1-5-2-1 1-2q-4.36-5.64-16.5-3.5l-5.5 3.5-3.5 7.5-10-5-4.5 2.5 4 7-5.5 2.5-14-5-16 14-17.5 3.5 2 5-8 2-.5 4.5-5.5.5 1.5 5.5 8 5 3.5-2.5-1 3 11 3-.5 1.5-17 8-12-6-4.5 3.5 1 2-2 1-1.5 4.5-8-4-14 11q-15.71-3.21-22.5 2.5l-2 14 1.5.5 3-2-1 2q-13.75-1.25-19 6v-1l3.5-1.5-.5-2.5-11.5 3.5 1 2q-21.61-2.61-31.5 6.5-4.76-7.24-18-6l-5.5 3.5.5 2.5 10.5 2.5-.5 1.5-5 2-5.5-3.5-.5-2.5h-11l-16-11-14 5-10-5-12 10q-3.65-6.35-15-5l-17 6-9-6q-19.94 2.44-28.5-6.5l2.5-4.5 4.5-1.5-1.5-5.5-9.5 3.5-1.5 4.5-18-2-12 6-13-6-11 6-3.5-2.5-5.5-10.5-4.5-3.5-.5-1.5-3.5-.5.5-2.5 6-3-.5 1.5 1.5 4.5 6.5 4.5 3.5 4.5 4 2 20.5-8.5-1-2 13.5-.5-.5 1.5 1.5 2.5 7 1 3.5-2.5-1-2 7-2-1-4 12.5-3.5 1 3 5.5-.5-1-5 2.5-.5 8 5 9-5 3.5 2.5 5.5 8.5 17.5-16.5-15 17 2.5.5 4.5-1.5-1 7 6.5.5 4.5-2.5-2.5-3.5-2.5-.5 1.5-3.5 23-8 8.5 5.5-14 4-1 2 3.5 5.5 8 1h2l4-1 7.5 1.5-1 2 6.5 3.5 4.5-3.5 1-2v-2l-1.5-2.5-8.5-4.5-2-4 4.5-5.5 2.5.5-1 10 5.5 1.5 1-9 6 3 12-6-.5 1.5 2.5 4.5 4.5.5-1 4 .5 1.5q-4.19-7.31-17-6l-1.5 17.5 2.5 4.5 21 2 10-5 6 4 11-4 10 5 3.5-2.5 4.5-8.5 9 5 .5-3.5-6-5 2.5-3.5 4.5.5-1 4 4.5 1.5 1.5-4.5-.5-1.5q25.84-3.16 42.5-15.5l-.5-1.5-4.5-3.5 3.5-4.5 1.5-.5-1-4 2.5-.5 3.5 2.5-1.5 3.5-3.5 1.5 1.5 4.5 16.5-13.5-.5-4.5-5.5-.5-.5-2.5-10-3-2.5 1.5 1-7-2.5-.5-3.5 9.5 1.5 2.5-1.5.5 1 5-37 22-.5 2.5-5.5-.5 11-15-5.5-6.5 6 4-.5-1.5-7.5-15.5-1.5.5-2 7 1.5 4.5q-12.96-1.04-18.5-9.5l.5-1.5 13.5-7.5 2-4-4-6 2.5-1.5 11 4 5.5-3.5 3-5-14-9-6.5-17.5-3.5-.5 1-2-5.5-3.5-1 3h-4l-17 14-12-10-2.5 16.5 2.5.5 7-5 6 4 4-3v1l-1.5.5.5 2.5 11.5-3.5-1-2 1.5-.5 4.5 2.5-5.5 6.5q-9.5 7-30 3l-5.5 3.5.5 2.5 16.5 2.5-.5 1.5-9.5 5.5-3.5 6.5-8.5 4.5 3.5 5.5 5 3 5-9 9-2 5.5 3.5 1 3-2.5 3.5-8.5 5.5-3.5 7.5-16-11-4.5 3.5-4.5 7.5-3 1-24-18-4.5 3.5-4.5 7.5-3 1-20.5-17.5 3-1-1-11 5-2 2-7q-7.22-7.28-25-4l1-4-5.5-1.5-.5 4.5.5 1.5q-11.27-11.23-29.5-15.5l-1-3 3.5-4.5 3-1 35 18 10-5 3.5 5.5-1 4 12.5 1.5 5.5-3.5-1.5-2.5-4.5-2.5-.5-1.5-5.5-2.5-14.5-34.5-7 4q-3.65-6.35-15-5l-5.5 3.5.5 2.5 4.5 2.5-4 7 4 6-2.5 1.5-7.5-8.5 5-8q-17.68.68-27.5-6.5l-8 6-.5-2.5 5-4-4-9 11.5-17.5 11-5 2 8 10.5-1.5-2-5 1-2-2.5-3.5-2 1-2.5-1.5 9.5-5.5-1.5 2.5 1 3v2l2.5 3.5 3 1 11.5-9.5-1.5-2.5-12 6 1.5-2.5.5-6.5 6-3ZM499 282l1 11h2l2-9-5-2Zm-12 12 1 6h4l-2-4-3-2Zm54 6 1 6 9-2v-1l-10-3Zm224 12-3 4-6 4 2 4 10-1-3-11Zm-207 6-6 4 2 2 4-1v-5Zm4 0-4 6 2 12 4 2v2l15 8q11 1 14-6h17l2 5 3 1 3-5-1-7-4 1-3-11q-6-12-27-8l-1 5 23 4-7 8-9-5-16 5-8-8 11-4v-4l-14-1Zm142 0-2 2 1 4-22 2-3 4 2 4 5 2h53l5-2-4-6 4-7-5-3h-20l-4 4h-2l2-1v-2l-10-1Zm71 0-2 5-2 1-3 4-12 3 2 9 4 2 4-2 2-7 10-5 1-2-1-6-3-2Zm26 1-2 3 3 1 1-2-2-2Zm-223 5-2 6h5l1-4-4-2Zm206 6-4 6h3l3-5-2-1Zm17 1-2 3 3 1 1-2-2-2Zm18 0-2 3 3 1 1-2-2-2Zm-226 12-5 3 1 2 4-2 1-2-1-1Zm112 0-2 3 1 2-2 1 2 4h2l2-4-1-1v-1l-1-3-1-1Zm-131 5-4 6 2 4 13 2 2-3-9-5-3-3-1-1Zm33 0-19 7 1 5 23-6v-4l-5-2Zm143 0-6 4 2 2 9-2v-1l-5-3Zm-21 1-2 3 3 1 1-2-2-2Zm36 0-2 3 3 1 1-2-2-2Zm12 0-2 3 3 1 1-2-2-2Zm-38 5-1 3 6 3v-4l-5-2Zm-46 13-9 11 2 5h2l7-14-2-2Zm12 0-2 3 3 1 1-2-2-2Zm-105 5-4 2-2 15 4 1 8-12-1-2-5-4Zm-39 1-2 3 3 1 1-2-2-2Zm65 5-2 2 1 4 4-2 1-3-4-1Zm116 0-4 6 1 6h11l-2-10-6-2Zm-46 12-2 1-3 4v1l5-3v-3Zm-220 24-2 6h5l1-5-4-1Zm11 0-1 5 7 2-1 4 3 1 3-1 2 2-2 4 3 1 2-4 1-3-1-4 7-1v-2q-7-7-23-4Zm-47 6-2 5 3 1 3-5-4-1Zm96 0-7 10 5 2 4-2 2-9-4-1Zm-20 12-6 4 2 2 9-2v-1l-5-3Zm442.5-179 1.5.5-1.5 2.5-4 2-.5-2.5 4.5-2.5Zm-655 5 1.5.5-2.5 5.5-2.5-.5 3.5-5.5Zm-95 4 1.5.5.5 1.5 1.5.5-20 9-3.5 8.5-8.5 2.5.5 3.5 3.5 1.5-9.5 20.5-4 2-2 1h-2l-7 5 2.5-3.5-.5-2.5-5 2-1-2-1.5-.5 7.5-9.5 1 4 8.5-6.5 15.5-29.5 5-2 3 1 8.5-4.5.5-1.5 4 1 1-2Z"/><path fill="#1C5285" stroke="#1C5285" stroke-width="3" d="m561.5 264 1.5.5-2.5 5.5-2.5-.5 3.5-5.5Zm644 4 16.5 10.5 7 13-16.5 10.5-1-2-4.5.5-7 15 1.5 2.5-8.5-.5 1-2q-8.02-5.98-7-21l12.5-7.5 4 13 8.5-3.5-9-20 3-1-.5-7.5Zm-105 3 2.5 1.5-5.5 6.5-6 3-4.5-2.5.5-1.5 13-7Zm-806 5 5.5 3.5q-3 5.5-6-1l.5-2.5Zm731 0 5.5 2.5-.5 1.5-14 7-1.5-2.5 10.5-8.5Zm-227 4 8.5 2.5q-3.75 6.25-14.5 5.5l-5.5-3.5.5-2.5 10.5-.5.5-1.5Zm-511 2 .5 6.5-1.5-.5-4 1-.5-1.5 3.5-4.5 2-1Zm103 0 24.5.5-1 4 .5 1.5-6.5.5-1.5 3.5-7 2 2.5-3.5-.5-2.5-19.5-.5 8.5-5.5Zm213 6 11 5 1.5-.5-4.5 1.5-8-6Zm-251 1 1.5.5-1.5 2.5-4 2-.5-2.5 4.5-2.5Zm652 0 1.5.5 2 5-3.5 4.5-9 1-4.5-2.5.5-1.5 13-7Zm60 0 1.5.5 2 5-2.5 4.5-1.5-.5-2-5 2.5-4.5Zm82 5q15.02-2.02 20.5 5.5l-3 1 3.5 4.5 7.5-2.5 1-2-3-1 9.5-5.5-.5 1.5v20l-2.5 2.5-3.5-2.5-.5-1.5-5-2-.5 2.5 2.5 3.5h-27l-4.5 3.5-8.5 12.5-34.5 15.5 2.5 14.5 9.5 2.5-3.5 5.5-8.5 3.5 6 5q4.67 26.17-5 38l4 7-3 1-1 3 4.5 5.5 1-2 5.5 13.5-6.5 2.5-1-3-4-2-1 3-5-3-.5 2.5 2.5 3.5q-3.5-8.5-7-3l-5 2q-9.63-6.88-11-22l-1.5.5-4.5 9.5-14.5-8.5-1-3 5-9-10-6-1-20 12.5-15.5 9.5-5.5 2-4-2.5-4.5-22 11-4.5-3.5-1-8 3.5-5.5q20.52-1.98 30.5-14.5l5.5-9.5 21-1 9.5-7.5 5.5-15.5 20-1 5.5-3.5 4.5-7.5 3-1Zm-34.5 24-2 2 1 4 4-2 1-2-4-2Zm-71.5-23 2.5 1.5-1.5 2.5-2.5-1.5 1.5-2.5Zm-809 5 2.5.5-5.5 7.5-3-1-8 5-10.5-4.5 16.5-1.5 8-6Zm788 0 11.5 2.5-.5 1.5-11 2-4.5-2.5.5-1.5 4-2Zm-691 1 1.5.5-1.5 2.5-4 2-.5-2.5 4.5-2.5Zm-58 5 4.5 2.5-2.5 3.5-2.5-.5.5-5.5Zm731 0 5.5 3.5 1 3-3.5 4.5-3 1-4.5-3.5-1-3 3.5-4.5 2-1Zm-87 1 1.5.5 7 14-2.5 1.5-13.5-7.5 7.5-8.5Zm150 0 1.5.5 2 5-3.5 4.5-3 1-4.5-2.5 7.5-8.5Zm-839 3 .5 1.5-4 3 3.5-4.5Z"/><path fill="#1C5285" stroke="#1C5285" stroke-width="3" d="m1097.5 312 5.5 2.5-.5 1.5-5 2-4.5-2.5.5-1.5 4-2Zm136 0 5 6-8.5-.5 3.5-5.5Zm-1024 1 1 5 6-1 3.5 1.5-31.5 23.5-8.5-6.5-.5-5.5-1.5-.5 4.5-6.5 3.5-1.5.5-3.5 5-2 1 2 1.5.5-2 5 6.5.5 9.5-7.5 1.5-3.5Zm101 0 1.5.5-1.5 2.5-4 2-.5-2.5 4.5-2.5Zm226 0 1.5.5 2 5-3.5 4.5-3 1-4.5-2.5 7.5-8.5Zm-291 4 .5 1.5-6 11 3 1-2.5 4.5-1-4-5.5 12.5 12 5-.5 5.5-14.5-6.5q-5.17-5.83-3-19l2-1 1.5 2.5 2.5-.5 8.5-11.5 3-1Zm-81 1 3 2 1.5-.5-3.5-.5-3 2 2-3Zm201 0 .5 2.5q-4.75 8.25-16.5 9.5v-1l16-11Zm-67 1 1.5.5-1.5 2.5-4 2-.5-2.5 4.5-2.5Zm-22 5 6.5.5-1 4 .5 1.5-6.5-.5.5-5.5Zm71 6 .5 2.5-5.5 2.5-.5-1.5 5.5-3.5Zm-195 1 2.5 1.5-5.5 6.5-11 5-1-2-1.5-.5 3.5-8.5 2 3 11-5Zm102 1 3.5 1.5 1 3-3.5-.5-2.5-1.5 1.5-2.5Zm21 4 1.5.5-1 4 .5 1.5-5.5-2.5.5-1.5 4-2Zm786 0 5.5 2.5-.5 1.5-5 2-4.5-2.5.5-1.5 4-2Zm-645 1 12.5 10.5-3 1 1.5 17.5 4.5-.5.5-1.5 8 2 6.5-5.5-3 9 1.5 2.5 4-1 1.5 8.5-4.5-1.5-3 1-1-2-4.5-2.5-.5-1.5-4-1h-2l-6.5-.5 1-4-5.5-3.5-1 2-4-8-1.5-.5.5-1.5 2.5-1.5 3-11-4.5-1.5-5 12-2 1-2.5-6.5 2-1 .5-2.5 2 3 4-8 1.5-.5.5-2.5Zm48 0 21 11q17-2 24 6h18l13.5 6.5-1.5 7.5-5-2-5.5 2.5 2.5 4.5 7.5 4.5-5 1 3.5 5.5 8-3-5 6-7 3-3.5-2.5-7.5-12.5-4-2-4.5 3.5-3 10 4 7-10.5 2.5-9.5-6.5q-1.3-15.7-11.5-22.5l-2.5 1.5 4 7-4 6 4 6-5 3-.5 11.5-2.5-.5-4.5-11.5-4.5-3.5-1-3 1-3-3.5-2.5-2 1-2.5-.5 1.5-3.5 11.5-5.5-16-7-1-3 6.5-12.5 5 1 .5-4.5-4.5-1.5-1.5.5 2.5-5.5Zm40.5 17-1 5 6 1v-4l-5-2Zm-10 1-3 5 2 4 5 2 10-3-14-8Zm-25 17-2 2 3 4 3-5-4-1Zm438.5-35 1.5.5 8 23-1.5-.5-8-5-2.5 21.5 12.5 1.5 2.5.5-2.5 4.5-1-4-2.5 4.5 2 1-14 11-2 5 1.5.5 7-5 3 6 3.5-1.5 2.5-7.5 10-3v1l-5.5 2.5q-8.65 7.35-5 27l6 17-6.5 9.5-6 3-9.5-6.5-2-6 11-15-5.5-14.5-8.5-5.5-2-4 5-8-6-4 .5-2.5 11.5-2.5-1.5-3.5-4 2-.5-19.5 8.5-23.5Zm-.5 101-2 2 2 4 9-2v-1l-9-3Zm36.5-101 2.5 1.5-1.5 2.5-2.5-1.5 1.5-2.5Zm-614 1 1.5.5-2.5 1.5 1-2Zm534 3 4.5 3.5-.5 1.5-2.5.5-.5 1.5-2.5-.5 1.5-6.5Zm-718 7 4.5 3.5-3.5-2.5-3.5 2.5q-1.36 9.86 5 12l-1.5 2.5-3.5 1.5q-2.14 12.14 3.5 16.5l2-1 .5 1.5-3.5 5.5-2.5-1.5-4-15 4-8-6-11 8.5-6.5Zm41 0 2.5.5 3.5 5.5 4-1 2.5 6.5-2 1-.5 2.5-3-4-6.5-5.5-2-4 1.5-1.5Z"/><path fill="#1C5285" stroke="#1C5285" stroke-width="3" d="m432.5 352 3.5 2.5 1 3-4.5 3.5v-9Zm-278 1 6.5 4.5 10 26-3 1-2.5 5.5-3 1-6-16-5-3-1.5.5 1.5-4.5 10.5-2.5-1.5-5.5-7.5-5.5 1.5-1.5Zm104 1 18.5.5-1 4 .5 1.5q-14.75 3.75-18.5-3.5l.5-2.5Zm-140 1 1.5.5-.5 7.5-23 15-6.5-9.5q4.25-6.75 8.5 3.5l3.5-1.5 2.5-10.5 14-5Zm816 5 2.5.5-1 4 3.5 1.5 2-1 5 1 1.5-4.5-.5-1.5 2.5.5.5 1.5 2.5.5-.5 1.5-14 7-5-4-5 2-.5-2.5 2.5-3.5 4-3Zm-746 1 1.5.5 14 28-2.5.5-15.5-9.5 2.5-19.5Zm597 5 5.5 3.5 1 3-2.5 4.5-9-5-5 12-2.5-.5 1-5-2-1 2.5-3.5 5.5-2.5 1.5-3.5 4-2Zm186 0 5.5 2.5-.5 1.5-5 2 .5-1.5-.5-4.5Zm-51 5 3.5 4.5h-1l-2.5-4.5Zm-704 5 3.5 1.5-3 1 10 5-10.5.5-5.5-3.5-1-3 1.5.5 4.5-.5.5-1.5Zm665 2 4.5 2.5 2 4-1.5-.5-4.5 2.5 2 3-2 1 3.5 5.5 2-1 .5 7.5-1.5-.5-11.5-3.5-1-2 2-1q-2.14-12.14 3.5-16.5l2-1Zm55 0 11.5 3.5-.5 2.5q-11.67-1.67-15 5v-1l3.5-1.5-.5-2.5-5 3-1.5-3.5 2.5-3.5 5-2Zm-480 2-3 4-1.5-.5 4.5-3.5Zm-381 4 14.5.5-6 10v30q16.84 4.16 24.5 17.5l27.5 13.5 5 7 3 6-3.5 4.5-3 1-18.5-6.5 1-4-4.5-1.5-1.5.5-2.5-10.5-27-2-10.5-5.5 4-1-3.5-4.5-9.5-3.5q-6.83-6.17-5-21L75.5 384Zm2.5 24-4 2-1 2 8 2 2-3-5-3Zm-14 12-3 4 5 2v-5l-2-1Zm63 36-1 3 6 3v-2l-5-4Zm898.5-72 5.5 2.5-7.5 8.5-1.5-.5-2-5 3.5-4.5 2-1Zm-851 3 10.5 20.5-1.5.5-11-16-2-1-5.5 4.5 9-6 .5-2.5Zm64 3 14.5 6.5-1 4 .5 1.5-12.5-6.5-1.5-5.5Zm-97 6 2.5.5 1.5 3.5 21.5 4.5-.5 1.5-10 5-1-3-5.5.5-.5 2.5-5-6-1.5.5-4-7 2.5-2.5Zm512 3 1 3 2.5.5-3.5 5.5-5.5-.5.5-5.5 5-3Zm-418 3 2.5 1.5 2 7-3.5 1.5-2.5-1.5 1.5-8.5Zm382 0 5.5 2.5-.5 1.5-5 2 .5-1.5-.5-4.5Zm15 1 1.5.5-4 2 .5 2.5 8.5.5-2 5 10 1-5 3-.5 2.5-5.5-2.5-1.5-3.5-13 5-3.5-1.5-1-3 8-4 5.5-6.5 2-1Zm111 2-6 7-1.5-.5 7.5-6.5Zm133 0 10 3 1.5-.5-2.5 4.5-4 2-4.5-3.5-2-3 1.5-2.5Zm-607 1 1 2 1.5.5-2 6 6 10-1.5.5-8.5-4.5-2-4 5.5-10.5Zm13 2 11.5 8.5-3.5-2.5-11.5-1.5 1.5.5 1.5-.5.5-4.5Zm15 0 17.5 6.5-3 5 2.5.5 3.5-4.5-.5-1.5 6.5 1.5-1.5 2.5-14 7-9.5-5.5 1-8-2.5-3.5Zm-51 6 5.5 3.5-.5 1.5-5.5-2.5.5-2.5Zm611 0 2.5.5.5 1.5 2.5.5-.5 1.5-2.5.5-.5 1.5-2.5-.5 1-4-.5-1.5Zm-513 1 3.5 2.5-.5 2.5-5.5-.5 2.5-4.5Zm489 5 1.5.5-1 4v2l-2.5 4.5-4 1 .5-1.5-1-4 1.5-4.5 5-2Zm-545 6 5.5 3.5-.5 1.5-5.5-2.5.5-2.5Zm533 0 1.5.5-1 4 .5 1.5-5.5-2.5.5-1.5 4-2Zm-670 6 2.5 1.5 2 4-2.5.5-2-6Zm184 0 12.5.5-3.5 5.5-9.5-.5 1-4-.5-1.5Zm433 0 10.5 2.5-.5 1.5-10 2v-6Zm186 0 11.5 4.5-.5 2.5-5-1-5.5 3.5-1 2 5 1-8.5 4.5-2.5-10.5 3.5-5.5 3-1Zm-534 6 5.5.5-2.5 4.5-3.5-2.5.5-2.5Zm323 0 5.5 2.5-.5 1.5-5 2 .5-1.5-.5-4.5Zm108 0 5.5 2.5-2.5 3.5-3.5-.5 1-4-.5-1.5Zm-590 12q21.44-3.44 30.5 5.5l2 4-.5 2.5-11-6-1 3-11 3-12.5-6.5 3.5-5.5Zm201 0 2.5.5q-5.45 11.05-21.5 11.5l.5-1.5-1-4q13.62.62 19.5-6.5Zm24 0 12.5.5-1 10 .5 1.5-7.5-.5 1-2-5.5-3.5-1 3-5.5-3.5 1.5-3.5 5-2Zm23 0 13.5.5-1 4 5.5 1.5.5-4.5-.5-1.5 13.5.5-1 5 2 1-1 2 12 4-1 2 5.5 3.5 1-3 5.5 9.5-3.5 4.5-14 4-1-3-5.5 1.5 1 4-6.5.5-5.5-3.5-6-18 4-6-7.5-2.5-10 6 .5-1.5-.5-10.5Zm28.5 24-4 6h5l1-5-2-1Zm187.5-24 1.5.5-1 4 .5 1.5-5.5-2.5.5-1.5 4-2Zm6 0 5.5 2.5-.5 1.5-5 2 .5-1.5-.5-4.5Zm105 1 4.5 3.5.5 1.5 3.5-.5 3.5-4.5 1.5.5 2 5-1.5-.5-4.5 1.5 1 4-7 2 .5 3.5 16.5 9.5-.5 1.5-34 23-1.5-2.5 3.5-5.5 12.5-7.5 3-16-4-2-1-3 1.5-2.5 3.5-1.5-1.5-4.5-11 6 .5-1.5 4.5-6.5 4-3Zm-533 5 15.5.5-1 4 .5 1.5-18.5-.5 3.5-5.5Zm20 0 13.5.5-1 4 .5 1.5-13.5-.5 1-4-.5-1.5Zm18 0 7.5.5-1 4 .5 1.5-6.5-2.5-.5-3.5Zm36 0 9.5.5-15.5 11.5-5.5-3.5-1-2 13-4-.5-2.5Zm30 0 6.5 1.5-1.5 2.5-5 2 .5-1.5-.5-4.5Zm26 0 5.5.5-1 4 .5 1.5-6.5-3.5 1.5-2.5Zm-212 6 5.5 2.5-.5 1.5-5 2 .5-1.5-.5-4.5Zm348 0 5.5 3.5 1 8-2.5.5-8.5-9.5 4.5-2.5Zm246 0 1.5.5-2.5 3.5-5 3-2.5-1.5 8.5-5.5Zm-225 1 8.5 7.5-1.5 2.5-8.5-7.5 1.5-2.5Zm184 5 16.5 2.5-5.5 6.5-24 9-5.5-4.5.5-2.5 5 1 .5-4.5-.5-1.5 13-6Zm-154 1 2.5 1.5-1.5 2.5-2.5-1.5 1.5-2.5Zm18 0 8.5 7.5-1.5 2.5-8.5-7.5 1.5-2.5Zm-524 3 5.5 2.5.5 9.5 2.5 1.5-3 1-.5 3.5q-7.38-5.63-5-18Zm684 1 2.5 1.5-7 6-1.5 3.5-1.5-2.5 3.5-6.5 4-2Zm179 1 6.5 3.5 1 2-12.5 3.5-2.5-.5 5.5-7.5 2-1Zm33 1 2.5 1.5-11.5 12.5-6 3 .5-1.5-1-10 15.5-5.5Zm-402 5-2.5 3.5 1 14-6.5.5-5.5-2.5 13.5-15.5Zm-96 1 2.5 1.5-1.5 2.5-2.5-1.5 1.5-2.5Zm-326 2 2 3 9.5.5-3.5 5.5-10.5-5.5 2-1 .5-2.5Zm383 0 1 3 11 6 .5-2.5-1.5-4.5 5.5 3.5 2 9-2.5 5.5-20.5-13.5 4.5-6.5Zm43 1 11.5 6.5-.5 2.5-11.5-5.5.5-3.5Zm177 1-2 3-36 10v-1l16.5-6.5 1.5-2.5 20-3Zm-63 1 17.5.5-.5 5.5q-12.42 1.93-17.5-3.5l.5-2.5Zm-82 1 8.5 7.5-.5 1.5-11 2-4.5-2.5 2.5-3.5 2.5-.5 2.5-4.5Zm24 0 6 5q14.36-2.86 20.5 2.5l-.5 1.5-23 2 .5-1.5-1.5-4.5-4 1-.5-1.5 2.5-4.5Zm-542 2 6.5 3.5-1 4v2l-.5 4.5-5-14Zm576 0 5.5 6.5-7 6 6-7-4.5-5.5Zm310 1 1.5.5.5 1.5 1.5.5-4.5 5.5q-7.5-4 1-8Zm-875 2 5.5 2.5-.5 1.5-5 2 .5-1.5-.5-4.5Zm324 0 5.5 2.5-.5 1.5-5 2-4.5-2.5.5-1.5 4-2Zm54 0 5.5 2.5-.5 1.5-5 2-4.5-2.5.5-1.5 4-2Zm30 0 11.5 2.5-.5 1.5-11 2-4.5-2.5.5-1.5 4-2Zm443 0 2.5.5-1 4 .5 1.5-5.5-2.5.5-1.5 3-2Zm-554 1 2.5 1.5-1.5 2.5-2.5-1.5 1.5-2.5Zm-152 5 5.5 3.5-.5 1.5-5.5-2.5.5-2.5Zm443 0 7.5.5-1.5 3.5-3 1-2.5-1.5-.5-3.5Zm270 0 4.5 2.5 2 4-36.5 39.5-6 2 .5-1.5 1.5-2.5 10.5-5.5q1.6-13.9 12.5-18.5l11.5-5.5-.5-14.5Zm-814 2 8.5 3.5 3.5 4.5 4 2 1-2 22 8 16.5.5-3 5 5 15-5 8 15 7-2.5 1.5-15-7-10.5-.5 1-5-5-3 5-8-.5-1.5 6.5-.5-1.5-3.5-16-8-.5 5.5 5 1-5 3 1 2-18 3 6.5 9.5 5.5.5-1.5 3.5-3 1-12.5-7.5-4.5-7.5-15-2-5.5 3.5-1 2v2l1 4q-16.25-2.25-21.5 6.5l2.5-3.5-.5-2.5-5 3-.5-5.5 23-10 1-2-5.5-6.5 5 3 .5-4.5-.5-1.5 16.5-8.5 3.5-7.5Zm-43 4 11.5 3.5-.5 2.5-11.5-3.5.5-2.5Zm162 0 5.5 2.5 1 3-1.5-.5-5.5-2.5.5-2.5Zm377 0 1.5.5-2.5 3.5-5 2 .5-1.5.5-2.5 5-2Zm141 0-3 4-5 2v-1l8-5Zm-350 5 4 1h2l6.5.5-2.5 9.5q-13.54.46-19.5 8.5l-7.5 19.5-13.5 4.5 1 5-2.5.5-4.5-3.5-.5-2.5-6.5-.5 1-4-4.5-1.5-1.5 4.5.5 1.5-6.5.5-3.5 5.5-2.5-.5-.5-2.5-16.5-5.5-3.5-8.5-1.5.5-4.5 9.5-16 7-4.5-3.5-2.5-8.5-4.5.5-2.5 4.5-3.5-2.5-.5-2.5-4.5 1.5-1.5 2.5-11 2-1.5-6.5 1-4-35-4 2.5-3.5 2.5-.5-3-5 47.5-.5-2.5 3.5-2.5 8.5-3.5 1.5 1.5 4.5 10.5-3.5.5-2.5 14 6 15-12q21.58 3.08 30.5-6.5l-3-5 8.5-2.5 1 2 5.5-3.5.5-2.5 13-1-1.5 4.5 5 12-10 5 .5 1.5 10 2 4.5-2.5 2-9-3.5-6.5-2.5-.5 6-10-.5-1.5 13.5.5-1 4 4.5 1.5 1.5-4.5-.5-1.5 7-1ZM321 529l-3 5h6v-2l-3-3Zm12 0-3 3 2 6h2l2-6-3-3Zm78 12-2 3 3 1 1-2-2-2Zm200.5-32 3.5 1.5-3 2-3.5 8.5-9 1-5.5-2.5-1-3 13-1-2-5 7.5-1.5Zm-126 1 6.5 3.5 1 2-1.5.5-5.5-3.5-.5-2.5Zm18 0 9 6 52.5.5-1.5 3.5-48 2-6.5-4.5-.5-1.5-11.5-.5 3.5-4.5 3-1Zm126 0 7.5.5-1.5 3.5-3 1-2.5-1.5-.5-3.5Zm396 0 5.5 2.5-.5 1.5-5 2-4.5-2.5.5-1.5 4-2Zm-173 5 4 1 1.5-.5-3.5 6.5-2.5-1.5-2-4 2.5-1.5Zm-13 1 5.5 3.5 1 3-1.5-.5-4.5-3.5-.5-2.5Zm69 10 1.5.5-16.5 11.5 7-8 8-4Zm-372 3 2.5 1.5-1.5 2.5-2.5-1.5 1.5-2.5Zm61 0 7.5 1.5-4.5 6.5-10.5 5.5-2 9 5 1q-9.09 8.41-29.5 5.5l.5-1.5-1.5-4.5-4.5 1.5 1 4-1.5 6.5-10-5-1.5.5-.5-1.5-5.5.5-.5 2.5q-2.25-5.25-12-3l-34 18-1.5-2.5 6-9-2.5-.5-10 6 .5-1.5 22.5-24.5 7-4h60l22-11Zm177 4 2.5 1.5-9.5 6.5-6-1-5.5 3.5 1 2-13.5.5-18 6 .5-1.5.5-2.5 17.5-3.5.5-2.5q10.15-9.35 30-9Zm116 5 1.5.5-3.5 1.5v-1l2-1Zm-804 2 3.5 1.5-1.5 4.5-4.5-2.5 2.5-3.5Z"/><path fill="#1C5285" stroke="#1C5285" stroke-width="3" d="m209.5 540 6.5 3.5 1 2-1.5.5-5.5-3.5-.5-2.5Zm710 0q23.45-3.95 33.5 5.5l-5 1-2.5 9.5-16 8-9-5-8.5 5.5-3.5 5.5-2.5 1.5-5.5 7.5-1-3-1.5.5 2-11-4.5-1.5-7.5 16.5.5 1.5-12 6-1-3-8-2q-21.37 4.63-35 17l1.5-2.5-.5-2.5-11 5-1-3-18.5-3.5 3.5-4.5 16-1 5.5 3.5.5 2.5 10.5-.5 1.5-3.5 11.5-3.5-1.5-2.5-9.5-5.5-1-9 2.5-3.5 9-2 3 5 17-10 2.5 1.5 1 6-4 7 5.5 2.5 41.5-32.5 1.5-3.5Zm-43 2 1.5.5-6 3-1.5 3.5-7 3 .5-1.5.5-2.5 12-6Zm-720 4 11.5 9.5-.5 1.5-9.5-4.5-2-4 .5-2.5Zm154 0 4.5.5-6.5 10.5-8 4-1.5-2.5 5.5-8.5 6-4Zm-240 1 1.5.5-3 4 .5 1.5-10 5 .5-1.5.5-4.5 10-5Zm136 0 2.5 1.5-1.5 2.5-2.5-1.5 1.5-2.5Zm414 0q10.77-1.27 13.5 5.5l2 6-1.5-.5-4.5-2.5-2.5-3.5-11 1 2-5 2-1Z"/><path fill="#1C5285" stroke="#1C5285" stroke-width="3" d="m710.5 547 3.5 1.5 1.5 3.5 5.5.5q-2.78 14.22-13.5 20.5l-11 6 5.5-6.5-.5-2.5h-17l-23.5 8.5.5 1.5 10.5 2.5 1.5 3.5 3.5 1.5-5 1-.5 1.5-5 1-3.5 2.5-8.5 9.5-1.5.5-5.5 6.5-3 1v-1l3.5-1.5-1.5-8.5-4.5-2.5-2.5-8.5q-6.17 6.83-21 5l-4.5-2.5-5.5-9.5-2.5 1.5-3-7 9.5-1.5 7 1 3.5-2.5 1.5-9.5 11-1 1 7 5.5-.5.5-6.5 5 1 .5-4.5-4.5-1.5-1.5.5 2.5-5.5 4.5 3.5.5 1.5 10.5-1.5.5-5.5 11.5 4.5-.5 2.5-10.5.5-1 6 3.5 5.5q14.76 1.26 21-6h24l4.5-3.5 1-7-2.5-1.5q-7.94 9.56-29 6l-1-2 2 1 3-4q16.42 1.42 24-6ZM656 564l-2 3 6 3v-4l-4-2Zm-34 18-3 4 3 1 2-4-2-1Zm30 6-4 11h3l3-4-2-7Zm4 6-2 6h3l3-5-4-1Z"/><path fill="#1C5285" stroke="#1C5285" stroke-width="3" d="m671.5 548 8.5 7.5-1.5.5-7-8Zm171 5 3.5 1.5.5 2.5 1.5.5-8.5 1.5-2.5-1.5 5.5-4.5Zm-237 1 4 3 3.5-2.5-4.5 3.5-3-4Zm-425 4 5.5 3.5-.5 1.5-5.5-2.5.5-2.5Zm240 0 5.5.5-.5 5.5-5.5-3.5.5-2.5Zm29 0 30.5 8.5 1 3-18.5 6.5-6.5-3.5-6.5-14.5Zm-152 4 .5 1.5-7 6 6.5-7.5Zm-261 2 1.5.5-2 4 3.5 1.5 8-6 .5 2.5-10.5 7.5-7.5-4.5.5-2.5 6-3Zm162 0q15.04-3.04 21.5 2.5l10 15-1.5.5-10.5-5.5-1.5-3.5-18.5-6.5.5-2.5Zm59 0 1.5.5-1 4 12 5 1 2-1 4 5 6-10.5 5.5 3.5-4.5 1-4-10-6 5-1-1.5-3.5-9.5-4.5.5-1.5 4-2Zm18 0 5.5 2.5-4.5 5.5-1.5-.5 1-6-.5-1.5Zm30 0 .5 2.5-7.5 3.5 3-4 4-2Zm19 0 5.5.5-2.5 4.5-3.5-2.5.5-2.5Zm12 0 5.5.5-2.5 4.5-3.5-2.5.5-2.5Zm44 0 3.5 1.5 1 4-5.5.5-1.5-4.5 2.5-1.5Zm16 0 11.5.5-.5 2.5-8 3-3-6Zm36 0 5.5.5-.5 2.5-4 1-1-4Zm12 0 5.5 3.5-.5 1.5-5.5-2.5.5-2.5Zm365 0 1.5.5-2.5 3.5-7.5 2.5-.5 1.5-.5-1.5 9.5-6.5Zm-279 1 2.5 1.5-1.5 2.5-2.5-1.5 1.5-2.5Zm-296 11 6.5.5-1.5 7.5-5-8Zm294 0 11.5 4.5-.5 2.5-8-1-3.5 5.5 8 1v4l3 5-10.5 4.5-1-2-11.5-2.5-1.5-3.5-20.5 1.5-4.5 16.5-3.5.5-.5 2.5q-7.87-14.62-36-9-6.67 7.83-23 6l-5.5-2.5 5-8-.5-1.5 12.5-.5-3-5q19.25 2.25 27.5-6.5h50l5 6 4.5-1.5 1.5-2.5 3.5-1.5-1-3 2.5-9.5ZM492 594l-6 4 2 2 4-1v-5Zm-21 1-2 3 3 1 1-2-2-2Zm80.5-19 1.5.5-1 4 .5 1.5-5.5-2.5 1.5-2.5 3-1Zm27 1 3.5 2.5 1 2-7 2 1.5 10.5 28-9-5.5 6.5 2 8-12 7-1.5 4.5-1-11-12.5-4.5-.5-1.5-11 6-11.5-9.5.5-2.5 16.5-5.5-4-1 4.5-2.5 1 3 8-5Zm219 0 1 5 4.5 2.5-5 8 .5 1.5-10 5-2.5-5.5 11.5-16.5Zm-514 1 11.5 4.5-1 4 .5 1.5-11.5-3.5-1-5 1.5-1.5Zm-279 2 1.5.5.5 1.5 4.5.5L.5 588l-.5-5.5 4.5-2.5Zm243 8 13.5 5.5 2.5 5.5 1-4 3 4 14.5 10.5-.5 1.5-11.5-5.5-1.5-3.5-4-2-1 2-9.5-7.5-1.5-3.5-5-3Zm70 0 12.5 3.5-.5 2.5-11.5-2.5-.5-3.5Zm22 6 9.5.5-1 2 11.5 3.5 6.5-3.5-1-2 7.5-.5-.5 1.5 1.5 2.5 17.5 2.5-2.5 3.5-10 2-10-6-9 6-5.5-3.5-1.5-2.5-16.5-.5 3.5-5.5Zm66 0 11.5.5-3 5 5 1-11.5 5.5-5.5-3.5-1-2 7-1-2.5-5.5Zm356 6 12.5 6.5-3.5 5.5q-11.75 2.75-14.5-3.5l3.5-7.5 2-1Zm-233 4 2.5 1.5 2 4-11.5 2.5.5-1.5 2.5-4.5 3.5-.5.5-1.5Zm23 2 7.5.5-1 4 .5 1.5-11.5-2.5.5-1.5 4-2Zm247 0 5.5.5-.5 2.5-4 1-1-4Zm-496 1 2.5 1.5-1.5 2.5-2.5-1.5 1.5-2.5Zm12 0 2.5 1.5-1.5 2.5-2.5-1.5 1.5-2.5Zm63 5 10.5 7.5 2 4-2.5.5-4-5-2-1-9 6-.5-6.5 3.5-4.5 2-1Zm24 0 5.5 3.5 1 8-2.5.5-8.5-9.5 4.5-2.5Zm-69 1 2.5 1.5-1.5 2.5-2.5-1.5 1.5-2.5Zm-35 5 2.5.5-1.5 3.5-4 2-.5-2.5 3.5-3.5Zm-57 6 5.5 1.5-1.5 2.5-5 2 .5-1.5.5-4.5Zm42 6 5.5.5-2.5 4.5-3.5-2.5.5-2.5Zm18 0 5.5.5-2.5 4.5-3.5-2.5.5-2.5Zm-240 4 39.5 13.5 2 4-1.5 2.5q-14.72 1.72-20.5-5.5l-3.5-4.5-10-2-1 2-6.5-2.5 1.5-7.5Zm107 5-1.5 2.5-.5 1.5-9 4-.5-1.5 2.5-4.5 3-1 1 2 5-3Zm253 3 5.5.5-2.5 4.5-3.5-2.5.5-2.5Zm36 0 11.5 6.5-2.5 4.5-3.5-2.5-.5-1.5-4-1-3 4-8.5-3.5 4-2 .5-1.5 3 2 2.5-1.5.5-3.5Zm51 0 2.5.5 1.5 3.5 2 1 5.5-4.5-4.5 5.5-6 1-2-1-2 1-3.5-1.5 6.5-5.5Zm111 0 5.5.5-2.5 4.5-3.5-2.5.5-2.5Zm-130 1 1.5.5 2 4-2.5.5-3.5-2.5 2-1 .5-1.5Zm78 0 9.5 5.5-.5 2.5-4 1-6.5-7.5 1.5-1.5Zm-441 2 1 3 5.5.5-.5 2.5q-6.83 5.67-22 3l-1.5-4.5 11.5-3.5 1 2 5-3Zm397 0 2 3 3-2 1 2 1.5.5q-3.88 7.62-17.5 5.5l-2-3 3 2 8.5-5.5.5-2.5Zm66 3 5.5.5-2.5 4.5-3.5-2.5.5-2.5Z"/><path fill="#0C3961" stroke="#0C3961" stroke-width="3" d="m399.5 162 2.5.5-2.5 5.5-3.5-2.5 1.5-2.5 2-1Zm-10 4 1 2 5.5 3.5 1 2q-31.14 9.36-48.5 32.5l-1-2-5.5 1.5 1 4-11 8-2.5 5.5-3-1-8 11-4.5 2.5-2 4 2.5.5 12.5-11.5q-12.36 5.14-15 20l2.5 3.5-3.5-1.5-2.5-4.5-2.5 1.5 1 5-1.5 6.5-2-1-3.5 5.5 2 1-7 10 .5 1.5-1.5.5 3 5-8.5 1.5h-2l-3.5 2.5-1 8 2 1q-11.58 6.42-8 28v2l.5 5.5 11.5-.5-1-5 6.5-3.5 1 3 5.5-3.5-1-2 6.5-3.5 1 3 5.5-3.5-1-2 12.5-8.5 1 2 5.5-3.5-1-2q14.09.59 18.5-8.5l1 2 5.5-3.5-1-2 13.5-.5-.5 1.5 1.5 4.5h35l5.5-3.5.5-2.5 23.5-.5.5-1.5 12.5 2.5-1 4 11.5 1.5 1-2q4.87 9.63 20.5 8.5l-3 5 2.5.5 10-6q6.67 7.83 23 6l2-4 11-2 9 5 6-4 15 35 5.5 2.5-.5 3.5-11.5-.5-2.5-4.5-13 5-33-18-4.5 3.5-1 3 3.5 4.5q17.57 1.43 25 13h26l5.5 3.5-3.5 8.5q-15.56 2.06-21-6h-18l-12-6h-12l-21-11-2.5 13.5-6 10 3.5 4.5 13.5 4.5-13 7-.5 2.5-7 4-4-23-13 6-3.5-2.5 1.5-3.5 3.5-2.5-3.5-5.5-1.5-.5-1.5-3.5-14-11-1 3-1.5.5-3.5 7.5-3-6-5 1-.5-1.5 6-16-17-7 2-1-5.5-11.5-9.5 2.5-1.5 9.5q-11.98.52-16 9l5.5-6.5-.5-2.5-16.5 11.5 4 1-4.5 2.5-1-3-5.5 3.5 1 2-12.5 9.5 5.5-6.5-.5-2.5-17.5 7.5 1 4-6.5 3.5-1-3-11.5 1.5 1 4-18.5 2.5-1-2-23.5.5 3 5-9.5.5-10.5-5.5 5-1-.5-5.5-11.5-4.5 3.5-7.5 2.5.5 1.5 5.5 4.5-.5.5-1.5 11.5 5.5 1.5 2.5 4.5-1.5-1.5-4.5-1.5-.5-4.5-17.5-16 6 .5-1.5 5-15-3.5-1.5-14 16-1-10-7 1-3.5-1.5 9-6 1.5-4.5 4.5-2.5 2-4-2-1 19.5-13.5 1 2 11.5-1.5-.5-4.5-11 3 3.5-4.5 2.5-5.5 3 1 14.5-7.5-1.5-4.5-6.5-.5 7.5-10.5 1 5q15.75 2.75 20.5-5.5l11.5-25.5 9.5-7.5-1.5-3.5-4.5-.5 3.5-5.5 2.5-.5-1-5 6.5-3.5 1 3q10.77 1.27 13.5-5.5l-.5-1.5 4.5-2.5-1-2 12.5-8.5 1 8 13.5-10.5.5-1.5 8.5-3.5 1-2-5-1 16.5-7.5ZM336 210l-2 1-3 4v1l5-3v-3Zm-76 84-2 5 5 1 1-4-4-2Zm145 0-3 6h5l1-5-3-1Zm-134 12-1 6h3l2-3-4-3Zm97 0-2 6h5l1-4-4-2Zm143 0-6 9 8 8 2-1-4-6 4-7-4-3Zm26 7-8 9 5 2 3-1 3-4-2-5-1-1Zm-187 5-2 6h5l1-5-4-1Zm-74 18-4 2-1 2 10 2 1-4-6-2Zm161.5-162 21.5.5q-6.65 3.85-3.5 17.5l-17.5.5 12 14-13.5-12.5-7.5-2.5 3-5-6-3-1-3 12.5-6.5Z"/><path fill="#0C3961" stroke="#0C3961" stroke-width="3" d="M866.5 180h16l21.5 13.5q5.06 15.94 18 24l5 16-3 1-6 10 5 3 1 4-5 3 .5 1.5 16 2 .5-2.5-3.5-4.5q2.97 8.53 16 7l5-3 1 3 5.5-3.5-1-2 49.5-.5q6.71-8.29 24-6l12 6 4.5-3.5 2.5-6.5 24-2-1.5 2.5-1.5 2.5-9.5 3.5.5 1.5 29 2 5.5-3.5-6-5-2-3 31.5-2.5 1 2 23-1 7.5 1.5-1 4v2l1.5 5.5 4.5-.5-2-5 4.5-.5q2.71 7.29 14 6l1.5-4.5-17-7 5.5-.5 29 12h25l23-12 24.5-.5 1.5-11.5 9.5 5.5-5 1 7 17-1 3 1.5 2.5-2.5-.5-2.5-4.5-7.5 3.5-1.5 5.5-24 9-11-6q-18.89 3.89-25.5-4.5l-.5-1.5-4.5 1.5.5 3.5 3.5 2.5 2 10-4 2-2.5 9.5-9 7h-9l-14 6q-5.44-8.06-21-6l-4.5 2.5-4.5 7.5-21 2-5.5 3.5q-.03 13.47-8.5 18.5l-26.5 4.5-9.5 13.5-27.5 11.5-1 8 3.5 5.5 3 1 21-11 2.5 5.5-3.5 4.5-17.5 13.5q-5.83 7.17-3 23l2.5 4.5 8.5 4.5-5 10 2.5 3.5 13 7 5-10 1.5.5q1.12 14.88 10.5 21.5l7-4 10 17 8-5 16 21 10.5 4.5-.5 5.5-17-8-3 12-27.5 14.5q1.88 14.87-6 20l12 3-12 16 2.5.5 14-6 1.5 4.5-15.5 6.5-3-5-11.5 2.5-8.5 21.5-9.5 2.5-7.5 13.5-5 2-17.5-7.5q10.07-5.93 12-20l-22.5-8.5-1.5 2.5 5 7-20.5 13.5q-3.65-6.35-15-5l-8 5-9-5h-40l-2.5 1.5-.5-1.5-8.5-.5 3.5-5.5 9-5 9 5 16.5-9.5 1.5-8.5 17-2 33.5-33.5 3-7-4.5-5.5-7.5-1.5 1.5-4.5h6l15.5-14.5-1.5-2.5q-7.46 8.04-26 5l-3-4-5-2-5.5 4.5-7.5 11.5-28 16-1-8-11.5-1.5 1.5-4.5q11.91 2.41 15.5-3.5l1-3-14.5-22.5-7 4-30-17-2.5 1.5.5 3.5 11.5 3.5q-5.96 11.54-24 11l6 9-12 4-3.5 8.5-8.5 2.5.5 3.5 6 1 28-12 1.5 2.5-10 11q-.44 14.56-9.5 20.5l-19 2 2.5-3.5-1.5-8.5-10.5 1.5 1.5 4.5 3.5 1.5 2 4-7 17 2.5 1.5q3.6-7.4 16-6l5.5 3.5.5 2.5 10.5.5-17 8-1.5 3.5-16 5-1-3-3-1-5.5 4.5 2 1q-8.73 8.77-29.5 5.5l-9.5 6.5-14 24 2.5 4.5q7.13-9.37 28-5l5.5 3.5.5 2.5 11-5 .5 2.5-1.5 3.5-28 8-1-3-5.5.5-.5 1.5-2-1q-6.82 7.68-24 5l2.5-3.5-.5-2.5-12-6-4.5 3.5-1 5 2.5 3.5q-25.32 4.82-36-5L711 617.5l2 1-15.5 5.5-4-12-9.5 2.5q2.21 15.71-7.5 19.5l-33 8-1.5-4.5 11-5 1-6-6.5-2.5-9.5 7.5-3.5 10.5-14 6-2-3 3 2 2.5-4.5-5.5-.5-1 2-2-1-25 11-9-6-5 3-1-3-9-5-1.5 2.5 8 7-49.5 1.5v-1l10.5-6.5-1.5-4.5-4.5 1.5-2.5 4.5-2.5-1.5-2.5-4.5-7 5-3.5-2.5-.5-2.5-11.5 6.5 1 5-7.5.5.5-1.5-2.5-9.5-1.5.5-.5 1.5-1.5.5 1 8-31.5.5-2.5-1.5 3-2 1.5-2.5 4.5 1.5 2.5 3.5 3.5-2.5-.5-2.5-11-6-1 4-3 1-4-5-4.5.5 1.5 3.5 3.5 1.5-3.5 1.5-38.5-1.5 1-5-5.5-.5-.5 4.5.5 1.5-12-6h-43l-11-6h-133l-11 6-26 1-.5-1.5 2-4-.5-1.5h25l11-6h28l2-2 1 2 11.5-3.5-1-2 48.5-1.5h2l4.5-2.5-.5-2.5-5 3-2-9-11.5-.5 1-2-17-13-1-5 11-6-5-9 4-1 1.5-3.5 5.5-4.5-2.5-3.5q-17.75-3.75-25.5 2.5l.5 1.5 10.5 5.5-.5 2.5-29.5.5 7.5 9.5 13.5 7.5-2.5.5-23.5-11.5-4-6-6.5-11.5-20-1-1 3-12.5-3.5 1-2-5.5-3.5-1 3-12.5-3.5 1-2-11.5-9.5-.5 2.5 1.5 4.5-15.5-7.5 7.5-5.5 18.5-1.5-1.5-4.5-4.5-.5 2.5-3.5 15-2 5.5 3.5 4.5 7.5 12 6 2.5-1.5 1.5-3.5 4.5 1.5 1.5 2.5 20 2 26 12h34l2.5 2.5-2.5 3.5-3.5.5-.5 1.5-5-2-6.5 11.5 9 2-3 2 3.5 7.5 20 1 1-3 6.5 3.5-1 5 17.5.5 1-3 8.5 3.5-3 5 18 2 1.5 2.5 5 2 9-6 14 6 6.5-3.5 1.5-2.5 10.5 1.5 1.5 2.5 5 2 16-6 1.5 2.5-5 7 16.5 2.5q11.33-10.17 37-6l11.5 9.5 1.5 2.5 10-6h30l5.5-2.5-3.5-5.5-1.5-.5 1.5-2.5 9.5-3.5-5-7 6-4-2.5-8.5-9-2h-2l-31.5-.5 32.5-17.5h9l5 6 4.5-1.5 1.5-3.5 10 5 1-6h23l19-6 9 6q4.47-7.53 18-6l5 6 3.5 1.5-1.5 4.5-11 1-9-1-2.5 1.5-.5-1.5-23.5 1.5 1 5-1 4v2l-2.5 5.5-3.5-1.5-2.5-3.5-9 5-2-6q-15.04-3.04-21.5 2.5l.5 1.5 16.5 2.5-1.5 3.5-10.5 2.5 6.5 8.5 6 3 10-6 2 3 11.5 3.5 1 11-1.5 4.5-2.5 1.5-3 5 13 2-1 5v2l.5 3.5 12 1 4.5-3.5 7-18-2.5-2.5-23.5-.5 14-7-1.5-4.5-3.5-1.5-1-7 8.5-9.5 7 11 14 1 10-5 2.5 18.5-2.5-1.5-3.5.5-2.5 5.5-3.5 2.5.5 3.5 22.5-13.5.5-1.5 9.5-8.5 2.5-3.5 4-3 4 6 4.5-.5-1.5-3.5-3.5-1.5 17-2 9.5-10.5 17.5-12.5 4.5-11.5q15.67 1.67 22-6l24.5-1.5.5-4.5 8.5-5.5-2-1 17.5-8.5 26.5-20.5 2.5-5.5 1 2 34.5-23.5-.5-1.5-16.5-9.5 1.5-4.5 10.5-1.5-2.5-9.5-4.5 3.5-.5 1.5-3.5-.5-3.5-4.5-9.5 7.5-1.5 3.5q-14.66-2.16-19.5 5.5l2 1-16 8-4.5 9.5q-14.45-2.45-20.5 3.5l-1.5 2.5-16 6h-31l-16-12-1.5 3.5 5 6-10.5 8.5q-16.47-2.97-24.5 2.5l-1.5 3.5-58.5-.5-1.5-5.5-10.5 1.5 1.5 4.5 4.5 2.5-.5 3.5h-93l-9-6-5.5 3.5-1.5 2.5-4.5-1.5-1.5-2.5-16.5-2.5-1.5-5.5-4.5 1.5-.5 4.5-30 1-96-1-12-6q-4.76 7.24-18 6l.5-1.5-.5-4.5-11.5.5-.5 2.5-12.5-3.5 1-2-5.5-3.5-1 3-6-3-9 5q-7.35-8.65-27-5l-11-6-33.5-.5 3-5-11-2-2.5-4.5-4.5.5-.5 1.5-11-2h-2l-4.5-3.5-1.5-2.5-4.5 1.5 1.5 4.5 4.5 3.5 1.5 2.5 4-1 1 7 14.5 7.5-3 2-3.5 7.5q-5.87 8.13-20.5 7.5l6 9-1.5 2.5-5 4 .5-1.5q-2.13-12.38-11.5-17.5l-14.5-8.5 2-1 .5-5.5 10.5-2.5-.5-1.5-16.5-5.5-1.5-2.5-4.5-2.5-.5-9.5-5-2-1.5.5-5.5-10.5-5 1-6-10-5.5-2.5 16.5-.5 4.5 2.5 3.5 15.5q16.33-1.83 23 6l4.5-3.5 1-3-9-11 2.5-.5 12.5-1.5 5-15-.5-1.5 1.5-.5-3.5-5.5-2 1q-8.43-8.57-7.5-26.5l5 2 3.5 5.5 4.5-1.5 3.5-4.5 7.5-2.5-.5-1.5-17-2-5.5-3.5-.5-2.5-4.5 2.5 3 4-4-3 6.5-10.5 2 1 5-18 6.5 4.5 5.5 19.5 7-5 3.5 2.5 9.5 14.5 2-1q1 16 12 22l24 15q13.24-1.24 18 6l21.5.5-3 5 17.5 6.5 6.5-3.5.5-2.5 11 6 .5-2.5-1.5-4.5 10.5 1.5-3 5 66 2 1.5 2.5 5 2 8-6h29l4.5-3.5-1-2 19.5-.5-.5 1.5 1.5 2.5 16 2q7.26-8.74 24.5-7.5l-1-4 7-2-1.5-4.5h-77l-11-6-45.5-.5 3-5-17.5-.5-1 2-2-2-34.5-.5 1-2-5.5-3.5-1 3-12.5-3.5 1-2-6-12 2.5-3.5 21.5 9.5 1.5 2.5q10.96-1.46 14 5l14.5-8.5-1-2 73.5-.5 5-3 1 3 3.5.5 3.5 4.5 2.5 1.5 5.5 10.5 3 1 15-6 9 6q7.35-8.65 26-6l3.5 2.5 1.5 3.5q12.81-1.31 17 6h15l14 6 19-6 9 5 12-10 14 5 10-5q5.17 13.33 26 11l2-4 11-2 12 6 11-6h25q4.5-8 19-6l8-6 38-14 6.5-6.5-1.5-3.5-3.5-1.5 2.5-3.5 3-1 12 6 16.5-8.5-.5-1.5-10.5-2.5 1.5-3.5 14.5-4.5 2-9-2.5-.5-4.5 3.5-1.5 2.5-8.5-5.5-1-3 .5-3.5h11l20-16 7-1 10 5 4.5-2.5-4-7 4.5-2.5 10 5 5-9 15-2 5.5 3.5-1.5 2.5-3.5 1.5 1.5 4.5 18.5-.5.5-1.5 2.5-.5-2.5-3.5-2.5-1.5.5-10.5 9 5 6-4 1.5 2.5-5 13 7.5 1.5q7.98-6.02 4.5-23.5l-9.5-5.5-9 5-3.5-2.5-2-3 9.5-17.5 7.5-4.5 1-8-9.5-12.5-2.5-.5-1.5-3.5-1.5-.5 9-3 .5-25.5 5 3 5.5-15.5-10.5-8.5-1 5-5.5-10.5q2.71-22.71-6-34l2.5-2.5Zm22.5 12-1 3 4 2 1-2-4-3Zm212 79-13 7-1 2 5 2 6-3 5-6-2-2Zm-75 5-11 9 2 2 14-7v-1l-5-3Zm-21 13-13 7-1 2 5 2 9-1 3-4-2-5-1-1Zm60 0-3 5 2 5h2l2-4-2-5-1-1Zm-24 6-2 3 3 1 1-2-2-2Zm-21 5-4 2-1 2 5 2 11-2v-1l-11-3Zm-18 6-2 1-4 5 1 3 5 3 3-1 3-4-1-3-5-4Zm-87 1-8 9 14 7 2-1-7-14-1-1Zm150 0-8 9 5 2 3-1 3-4-2-5-1-1Zm33 5-4 2-1 2 5 2 5-2v-1l-5-3Zm-204 6-6 4 1 2 10-2v-1l-5-3Zm168 18-4 2-1 2 5 2 5-2v-1l-5-3Zm-153 1-9 24v23h-5l-1 3 6 4-5 8 2 4 9 5 5 15-11 15 2 6 10 6 6-3 6-9-6-17q-4-20 5-27l17-10h8v-2l-6-4-10 2-3 4h-14l3-5 1 4 1-3v-2l4-2-6-9v-12l-8-17-1-1Zm36 0-2 3 3 1 1-2-2-2Zm-109 23-2 5 5 1 1-4-4-2Zm99 0-4 3-3 4-2 1-2 3 3 1 1-2 6-3 5 4 14-7v-1l-2-1-1-1-15-1Zm-149 6-4 2-2 4 10 5 2-4-1-3-5-4Zm182 0-2 2 2 4 9-2v-1l-9-3Zm-107 6-2 1-1 4 3 1 14-2 1-2-15-2Zm89 0-2 5 11 1 1-4-10-2Zm-68 6-2 1q-6 4-4 17l-6 2 7 13 5 3 4-2 2-3-2-28-4-3Zm-16 6-2 5 5 1 1-4-4-2Zm160 0-2 1-4 5 2 5h2l7-8-5-3Zm-181 18-29 14 2 4 33-12 1-4-7-2Zm9 12-2 5 8 1v-1l3-1v-1l-2-1-1-1-6-1Zm-509 1-3 5h6v-2l-3-3Zm-181 5-2 11 5 1 1-10-4-2Zm642 0-2 5 5 1 1-4-4-2Zm28 0-5 2-1 4-10 2-1 2 5 2 10-1 2-4 5-1 1-4-6-2Zm-46 6-2 5 5 1 1-4-4-2Zm-30 6-2 5 5 1 1-4-4-2Zm11 0v6l10-2v-1l-10-3Zm29 0-18 8 2 4h11l16-6 1-5-12-1Zm62 0-2 3 2 21 5-3 4-5-6-15-3-1Zm31 0-2 1-1 4 11 1 1-5-9-1Zm64 0-3 1-4 6 3 10 14-5 1-7-11-5Zm-779 6-2 5 5 1 1-4-4-2Zm245 0-1 3 4 2 2-4-5-1Zm307 0-2 2 2 4 21-2v-1q-6-6-21-3Zm120 0-2 5 9 1 2-3-9-3Zm-659 6-2 1-1 4 3 1 9-1v-3l-9-2Zm424 0-1 3 6 3 5-2v-1l-10-3Zm-126 6-5 2-2 4h3l5 6q24 5 32-6l7 3-4 6 6 18q4 5 16 3l1-2q3-7 15-5l3-4-6-11-14-3-3-3 4-2 1-4-59-2Zm239 0-4 2-1 2 5 2 11-2v-1l-11-3Zm-64 6-2 5 5 1 1-4-4-2Zm-480 6-2 4 11 8 1-3-10-9Zm36 0-2 2 2 4 9-2v-1l-9-3Zm352 0-5 3 9 9h2l-1-8-5-4Zm21 1-2 3 9 7 1-2-8-8Zm-319 5-2 5 5 1 1-4-4-2Zm12 0-2 5 5 1 1-4-4-2Zm102 0-2 5 5 1 1-4-4-2Zm389 0q-5 7-17 6l-2 8 6 4 24-9 5-6-16-3Zm191 0-17 7-1 4 11 3 1 4h3l9-16-6-2Zm-345 1-2 3 3 1 1-2-2-2Zm18 0-2 3 9 7 1-2-8-8Zm89 5-2 5 5 1 1-4-4-2Zm-156 6-7 10 21 13 2-5-2-9-14-9Zm37 0-14 16q9 5 28 2l1-7-10-6-2-3-3-2Zm-96 1-2 3 3 1 1-2-2-2Zm214 5-1 3q5 5 18 3v-5l-17-1Zm25 0-2 5 5 1 1-4-4-2Zm264 0-2 4h-1q-9 4-1 8l4-5 3-1 1-4-4-2Zm-371 1-3 5h-2l-3 4 5 2 11-2v-1l-8-8Zm24 0-3 5 2 6 27-2v-1q-6-6-20-3l-6-5Zm-313 5-2 5 5 1 1-4-4-2Zm24 0-2 5 5 1 1-4-4-2Zm82 0-4 2-1 2 5 2 5-2v-1l-5-3Zm26 0-2 5 5 1 1-4-4-2Zm28 0-4 2-1 2 5 2 5-2v-1l-5-3Zm30 0-4 2-1 2 5 2 11-2v-1l-11-3Zm-111 1-2 3 3 1 1-2-2-2Zm202 5-1 5 5 1 1-4-5-2Zm199 0-2 5 5 1 1-4-4-2Zm-697 6-1 3 12 3v-2l-11-4Zm356 0-3 5 5 1 1-4-3-2Zm321 6-6 3-6 9 2 6 19-11 3-5-12-2Zm210 0-4 2-1 2 5 2 5-2v-1l-5-3Zm50 0-2 5 5 1 1-4-4-2Zm-240 6-2 5 3 1 5 6 4-1-1-7-9-4Zm-6 18-2 5 5 1 1-4-4-2Zm-12 6-2 5 5 1 1-4-4-2Zm-611 7-2 3 3 1 1-2-2-2Zm787 17-4 4 4 2 2-4-2-2Zm-463 1-2 3 3 1 1-2-2-2Zm185 17-2 5 5 1 1-4-4-2Zm-12 6-2 3 11 9 1-2-10-10Zm40 6-8 5-4 6 16 1 2-9-6-3Zm-454 6-2 5 5 1 1-4-4-2Zm262 6-4 2-1 2 16 2 1-4-12-2Zm74 0-2 5 5 1 1-4-4-2Zm84 0-2 5 4 1 2-4-4-2Zm-407 1-2 3 3 1 1-2-2-2Zm12 0-2 3 3 1 1-2-2-2Zm63 5-2 1-4 5 1 6 9-6 2 1 3 5h-7l-2 5 3 1 9-1v-5l-2-4-10-8Zm24 0-5 3 8 9-8 1-1 4 3 1 9-1v-5l-1-8-5-4Zm170 0-2 5 5 1 1-4-4-2Zm-239 1-2 3 3 1 1-2-2-2Zm215 5-2 2 3 10 15-1v-3l-16-8Zm114 0-2 5 5 1 1-4-4-2Zm-245 6-2 1-1 4 3 1 75-1v-3l-75-2Zm96 0-2 1-1 4 3 1 9-1v-3l-9-2Zm-230 6-1 3 4 2 2-4-5-1Zm18 0-1 3 4 2 2-4-5-1Zm120 12-1 3 4 2 2-4-5-1Zm168 6-1 3 4 2 2-4-5-1ZM463.5 204l4.5 1.5-.5 4.5-4.5-.5-1-4 1.5-1.5Zm29 3 14.5 3.5-3 5 24 10-.5 11.5-6.5-3.5 1-2-5-3 2-1-14.5-5.5-.5 3.5 1.5 2.5-20.5-6.5 1-2-5-7 11-3 .5-2.5Zm-185 2 .5 2.5-1.5 3.5-1-2-4.5 2.5 4 1-4.5 2.5-1.5-8.5 8.5-1.5Zm227 11 6.5 2.5-2.5 5.5-4.5-1.5.5-6.5Z"/><path fill="#0C3961" stroke="#0C3961" stroke-width="3" d="m545.5 222 6.5 2.5.5 3.5 11 6 .5-2.5-1.5-4.5 11.5 8.5 2 11-12.5 18.5-2-1-3.5 5.5 3 1-3 6 7 9-4.5-3.5-2.5.5-.5 5.5q-17 2-24-6l-4.5 2.5 4 7-16.5 2.5-4.5-2.5-2-3 7.5-18.5q12.42.42 15.5-8.5l-8-9 12-6 2-5-.5-1.5 2 6 5.5-1.5-.5-10.5-5.5-1.5 2.5-4.5 3.5-1.5-.5-4.5Zm9.5 25-2 3 3 1 1-2-2-2Zm638.5-19 12.5 1.5-1.5 4.5-15 6-1.5-8.5 5.5-3.5Zm26 0 4.5 1.5-1.5 4.5-4.5-1.5 1.5-4.5Zm88 0 10 5 9-5 12.5 6.5-1 4 5.5 1.5.5-4.5-.5-1.5q17.29-2.29 24 6h19l18.5 6.5-1 4 5 4-.5 1.5-5 2q-8.65-9.35-30-6l-12.5-9.5-1.5-2.5-3.5.5 5 9-21.5 20.5-3-12-8 5-6.5-5.5-4.5-5.5-3.5 1.5 2.5 4.5 6.5 5.5 3 8-1.5.5-11-12-11.5-2.5.5-5.5 11.5-3.5-.5-2.5q-7.33-8.17-24.5-6.5l1-4-.5-1.5q13.24 1.24 18-6Zm-1008 6 .5 2.5-5.5 3.5-.5-2.5 5.5-3.5Zm979 3 3 2 2.5-1.5-3.5 2.5-2-3Zm6 8 5.5 1.5-5.5 7.5-1.5-2.5 1.5-6.5Zm-997 1 .5 5.5-4.5.5-1.5-2.5 5.5-3.5Zm1122 0 17.5 5.5-11.5.5-5.5-3.5-.5-2.5Zm24 6 17.5 5.5-5 1-.5 1.5-4-2-1.5 2.5q8 4.5 6 19-4 6.5-18.5 2.5l-13 6 1.5-2.5-1.5-3.5-6.5 4.5-3.5 6.5-1-5-11 7-.5-1.5 4.5-7.5 25.5-11.5-6-16 2.5-.5 14 6 1.5-10.5-.5-1.5Zm-918 3 .5 6.5-4.5 2.5-1.5-3.5 1.5-3.5 4-2Zm-306 1 .5 5.5-2 1-.5 1.5-3.5-.5-1-5 6.5-2.5Zm108 1 1.5.5-1.5.5v-1Zm1139 1h14l17 12 12.5 2.5-.5 4.5q-15.53 1.03-21.5-7.5l-2.5-3.5-17.5-2.5-1.5-5.5Zm-173 5 11.5 6.5-7.5.5-4-7Zm-778 1 2.5 1.5 1 3-1.5.5-3.5-2.5 1.5-2.5Zm763 0 3.5 1.5-.5 4.5-5.5-.5 2.5-5.5Zm-1071 6 5.5.5-10.5 7.5-.5-4.5 5.5-3.5Zm1261 0 11.5 3.5-.5 7.5-11.5-8.5.5-2.5Zm-1267 9-3.5 4.5-3.5 7.5-2-3-2.5-.5 1.5-4.5 10-4Zm1076 3 4.5 1.5-3.5 4.5-2.5-1.5 1.5-4.5Zm69 0 13.5 2.5-1.5 9.5-11.5-6.5 1-3-1.5-2.5Zm49 0 6.5 1.5-9.5 10.5-2.5-1.5-.5-4.5-1.5-.5 1.5-2.5 6-3Zm-908 5-2.5 3.5 3 4-4-3 3.5-4.5Zm927 8 3 5 2.5 1.5-1.5 4.5-4 1v-12Zm-197 5 4.5.5-7.5 17.5-4.5-2.5 7.5-15.5Zm-1034 9 .5 2.5-.5 8.5-5.5-4.5 1.5-3.5 4-3Zm-15 3 3.5.5-3.5 5.5-2.5-3.5 2.5-2.5Zm49 1 1.5.5-5.5 7.5-11 3-.5-2.5 2.5-3.5 13-5Zm-57 4 5.5 4.5 1.5 2.5 4.5-1.5 2.5-3.5 3 2 1.5-.5 7.5 9.5 3.5.5.5 5.5 8 6 17-12-10.5 11.5-2 5 .5 1.5-1.5.5-.5 2.5-2-3-3.5 1.5 7.5 9.5 1.5.5 4.5 6.5 4.5-.5.5-1.5 7 8-1.5.5 2.5 9.5 15 2 1-2 10.5 7.5 1 3 .5 3.5 10 6h7l1-2 13.5 2.5-8 14 1.5 4.5-14.5-1.5 1-2-5.5-3.5-1 3-8.5-4.5 3-2-3.5-8.5-1.5.5-1.5 8.5-31.5-20.5 2-1-14.5-28.5-1.5.5-2.5 18.5-4-2-2 17-7-11-4.5-3.5q1.41-18.91-9.5-25.5l-12-7-9 7-6-1-11 8-1.5-7.5 12.5-8.5 1 2 5.5-1.5.5-2.5 16.5-10.5-1.5-2.5-9 4-1-5-1.5-.5 8.5-12.5Zm31.5 25-2 5 5 1 1-4-4-2Zm48 48-2 5 5 1 1-4-4-2Zm331.5-72 14.5.5-.5 4.5-10.5 3.5 7.5 8.5 16-5 9 5 7.5-8.5-23-4 .5-4.5q21.47-3.97 27.5 7.5l2 16-19.5.5q-2.71 7.29-14 6l-14.5-8.5-.5-1.5-3.5-2.5-2-12 3.5-5.5Zm156 0q17.13-3.12 25.5 2.5l-4 7 4 6-5.5 2.5h-53l-4.5-2.5-2-4 2.5-3.5 28-2 9-6Zm57 0 3.5 1.5 1 6-1.5 2.5-9 2-.5-3.5 5-4 1.5-4.5Z"/><path fill="#0C3961" stroke="#0C3961" stroke-width="3" d="m657.5 319 4 5 7.5.5 9.5 20.5 10.5 5.5-3.5 5.5-10 3-7-4-1.5 2.5 4 6-3.5 4.5-12.5 6.5 5.5 6.5q15.7 1.3 22.5 11.5l-11 15 5.5.5 3-5 19-13 19-6 1.5 4.5-5 4 3.5 4.5 1.5.5-1.5 2.5-34 14h-47l-.5-2.5 2.5-3.5 2.5-1.5-1.5-4.5q-11.81-.31-15.5 7.5l-.5 1.5-11 3-1.5-4.5 11-4-.5-1.5-18-2-11 6-5.5-3.5-1.5-2.5-8.5 2.5-2 4 4.5 5.5 7.5 3.5-1.5 2.5-16.5-.5-1.5-11.5-11-6-23.5 9.5.5 2.5 3.5 1.5 1 2-10.5 2.5-.5-5.5 12-17-3.5-1.5-17 17-1.5-1.5-5.5-8.5-3-1-9 5-13-5-5 6-3.5-.5 1-3-1.5-2.5 1.5-.5.5-11.5 4.5-2.5-4-7 4-6-4-6 2.5-1.5 6.5 6.5 8.5 19.5 11 3 5.5-2.5-4-12 4.5-6.5 4-2 4.5 3.5 7.5 12.5 3 1 11.5-8.5-1.5-3.5-13.5-5.5-2-4 7.5-2.5 3.5 2.5 1.5 3.5 23 18 3.5-2.5 4.5-7.5 3-2 25 18 3.5-2.5 4.5-7.5 3-2 16 11 6-10 7.5-4.5 1-3-3.5-4.5-8-1-6.5 4.5-2.5 6.5-6.5-4.5-2-4 9-5 5.5-8.5 7.5-3.5-.5-1.5-16.5-2.5 1.5-3.5 28-2 11.5-8.5-.5-1.5-11-2-8 5-7-4-8 5-.5-12.5 2.5-4.5 13 10 18-16Zm-1.5 77-2 3-5 3-1 6h6v-2l5-4 1-4-4-2Zm48.5-53 1.5.5 1 3-2.5 1.5-1.5-2.5 1.5-2.5Z"/><path fill="#0C3961" stroke="#0C3961" stroke-width="3" d="m606.5 348 5.5 1.5-.5 4.5-23 6-.5-5.5 18.5-6.5Zm143 0 5.5 2.5-.5 1.5-9 2-1.5-2.5 5.5-3.5Zm15 1 2.5 1.5-1.5 2.5-2.5-1.5 1.5-2.5Zm12 0 2.5 1.5-1.5 2.5-2.5-1.5 1.5-2.5Zm425 5 7.5.5-2.5 4.5-5 1-1.5-4.5 1.5-1.5Zm-707 1 14.5 7.5-10.5 3.5-4.5-2.5-2-4 2.5-4.5Zm-356 2 5.5 9.5-4.5 8.5-1-18Zm279 9 8.5 1.5-1.5 4.5-4 2-3-8Zm300 0 2.5.5-3.5 11.5-2.5-5.5 3.5-6.5Zm-284 6 4.5 1.5 1.5 2.5 3.5 1.5-12.5.5 1.5-2.5 1.5-3.5Zm127 1 2.5 1.5-1.5 2.5-2.5-1.5 1.5-2.5Zm-465 3 1 2 1.5.5-8 7-.5-1.5-13.5-.5 5.5-4.5 5 4 9-7Zm505 2 4.5.5-2.5 5.5-2.5-.5.5-5.5Zm141 0 6.5 1.5 2 10-11.5.5-.5-6.5 3.5-5.5Zm-283 6 9.5.5 3 5-8.5 3.5-1-3-5.5-2.5 2.5-3.5Zm-39 27 1 3 23.5 1.5-1.5 2.5-20 7-6.5-5.5-2-7 1.5.5 4-2Zm38 3 10.5 1.5-1.5 2.5-7 1-3.5-2.5 1.5-2.5Zm18 0 4.5.5-1.5 5.5-4.5-.5 1.5-5.5Zm11 0q17-3.5 23.5 3.5l-.5 2.5-23.5-1.5.5-4.5Zm67 0q8.75-1.75 10.5 3.5l-.5 2.5-10.5-3.5.5-2.5Zm-53 12 3.5.5-3.5 5.5-2.5-1.5 2.5-4.5Zm711 12 1.5.5-6.5 9.5-6.5-.5.5-4.5 3 1 8-6Zm-113 6 5.5 3.5-2.5 1.5-3.5-2.5.5-2.5Zm149 6 8.5.5-2 16 .5 1.5-5.5.5 2 5-5.5.5-4-5-5 1-.5-8.5 7.5-9.5 4-2Zm-3.5 12-2 5 5 1 1-4-4-2Zm21.5-8 .5 2.5-5.5 7.5-.5-2.5 5.5-7.5Zm-728 20 2.5.5-1.5 5.5-4.5-.5 3.5-5.5Zm611 18q14.83 2.17 20.5 13.5l.5 1.5 29.5 14.5-5.5.5q-28.83-9.78-45-30Zm123 11 2.5 6.5-7.5.5.5-1.5 2.5-4.5 2-1Zm-348 7 5.5.5-42.5 29.5 1.5-2.5 2.5-9.5q11.75 1.75 16.5-3.5l10.5-11.5 6-3Zm-708 12 12.5 3.5-.5 2.5-17.5-1.5 1.5-2.5 4-2Zm891 6 9.5 2.5-2.5 9.5-9.5-2.5 2.5-9.5Zm106 4 11.5 10.5 2 3-2.5.5-9.5-7.5-1.5-6.5Zm-1075 5 1.5 8.5-49.5.5.5-1.5-1-4 43.5-.5 5-3Zm249 4 1.5.5 3.5 8.5 16.5 5.5.5 2.5 5.5-3.5.5-2.5 17.5.5.5 2.5 17.5 4.5 6 13-1.5-.5-5.5-2.5 1-2-5.5-3.5-1 3-4-1-1.5.5-.5-2.5-5.5.5 1.5 3.5 1.5.5-3.5 1.5q-4.76-7.24-18-6l-5 3-1-3-11.5.5 3 5-9.5.5.5-1.5-.5-4.5-11.5 1.5 1 4-55.5.5-12-6-5 3-1-3-13 6 5.5-6.5 1.5-4.5 1 2 9.5-5.5 5.5-9.5 14.5.5.5 5.5 12.5-3.5 1.5-2.5 3.5.5 2.5 4.5 3.5-2.5.5-2.5 5.5 1.5 3.5 9.5 3 1 16.5-8.5 3.5-8.5Zm-.5 11-2 5 5 1 1-4-4-2Zm35 6-1 3 6 3v-5l-5-1Zm-96 6-1 3 4 2 2-4-5-1Zm12 0-1 3 4 2 2-4-5-1ZM71.5 546l6.5 2.5-2.5 3.5-5 1 1.5-4.5-.5-2.5Zm591 0q14.07 1.93 20 12h19l11-6 1.5 6.5-3.5 4.5-26 1q-6.24 7.26-21 6l-3.5-9.5 1.5-2.5 10.5-.5-1.5-3.5-10.5-3.5 2.5-4.5Zm-609 10 1 2 4.5.5-10.5 7.5-1-2-10 6-1.5-3.5 1.5-3.5 16-7Zm590 2 4.5 1.5-.5 4.5-5.5-1.5 1.5-4.5Zm432 0 4.5.5-2.5 5.5-3.5-1.5 1.5-4.5Zm-580 6 2.5.5-6 10 .5 1.5-27.5-.5q7.07-8.43 24.5-6.5l6-5Zm-466 4 1 2 8.5 4.5-8.5 4.5-1-3-11.5 1.5 1 4-6.5 3.5-1.5-8.5q14.09.59 18.5-8.5Zm176 2 13.5 5.5-2.5.5-11-6Zm694 6 1 6 4.5-1.5.5-1.5 8-3-9 10-17 2-17 8-1-2-5.5 1.5 1 4-1.5.5-9-5q-4.88 7.12-19 5v-1q12.8-13.7 37-16l3.5 2.5.5 2.5 17.5-7.5 1.5-2.5 4-2Zm169 0 5.5 2.5-1.5 9.5-4.5-1.5.5-10.5Zm-447 6 2.5.5-2.5 4.5-2.5-1.5 2.5-3.5Zm-96 5 1 2-4.5 2.5-.5 1.5-4 1-4.5-5.5 12.5-1.5Zm126 1 2.5 6.5-3.5 4.5-2.5-.5 3.5-10.5Zm400 0 4.5 1.5-1.5 4.5-4.5-1.5 1.5-4.5Zm-560 6 .5 4.5-4.5 1.5-1.5-2.5 5.5-3.5Zm530 0 4.5 1.5-1.5 10.5-4.5-2.5 1.5-9.5Zm-551 1 2.5 1.5-1.5 2.5-2.5-1.5 1.5-2.5Zm328 14 2.5 1.5-1.5.5-1-2Zm253 3 4.5 1.5-.5 4.5-5.5-1.5 1.5-4.5Zm12 0 4.5 1.5-1.5 4.5-4.5-1.5 1.5-4.5Zm-464 12 6.5 1.5-.5 3.5-6 1 .5-1.5-.5-4.5Zm-442 17-1.5 4.5 1 2q-17.15-3.15-24.5 3.5l-1-3-5.5-.5-1-5 32.5-1.5Zm-57 6 8.5 1.5-1 4 .5 1.5-7.5-.5 1-2-1.5-4.5Zm406 1 3.5 1.5 2 4-9.5.5 1.5-2.5.5-2.5 2-1Z"/><path fill="#619DDE" stroke="#619DDE" stroke-width="3" d="m410.5 162 3.5 2.5-2.5 3.5-3.5-.5 2.5-5.5Zm-119 54 2.5.5-.5 2.5-5 2-.5-1.5 3.5-3.5Zm-89 43 1.5 2.5-5.5 2.5-.5-2.5 4.5-2.5Zm572 17 5.5 3.5-.5 2.5-11.5-.5.5-2.5 6-3Zm15 0 8.5 3.5-.5 2.5-11.5-.5 3.5-5.5Zm-291 6 5.5 2.5-2.5 3.5-3.5-2.5.5-3.5Zm-121 6 7.5.5-2 1-2.5 4.5-3.5-.5 1-4-.5-1.5Zm-193 31 1 2-5 2-.5-1.5 4.5-2.5Zm58 17 3.5.5-.5 5.5-5.5-2.5 2.5-3.5Zm912 0 3.5 5.5-4.5.5-1.5-3.5 2.5-2.5Zm-896 2 2 4 3.5 2.5-2.5 3.5-3.5-2.5-.5-1.5-3.5-1.5-2-3 3.5 2.5 2.5-.5.5-3.5Zm-76 4 3.5 2.5-2.5 3.5-3.5-2.5 2.5-3.5Zm372 0 3.5 2.5-2.5 3.5-3.5-2.5 2.5-3.5Zm168 30 3.5 2.5-2.5 3.5-3.5-.5 2.5-5.5Zm36 0 3.5 2.5-2.5 3.5-3.5-2.5 2.5-3.5Zm-298 7 1.5.5-.5 1.5-5 2-.5-1.5 4.5-2.5Zm-166 35 5.5 2.5-2.5 3.5-3.5-2.5.5-3.5Zm270 0 5.5 2.5-2.5 3.5-3.5-2.5.5-3.5Zm152 0 3.5.5-2.5 5.5-3.5-2.5 2.5-3.5Zm72 24 3.5.5-2.5 5.5-3.5-2.5 2.5-3.5Zm-606 24 9.5 9.5-2.5 2.5-9.5-9.5 2.5-2.5Zm36 0 3.5 2.5-2.5 3.5-3.5-2.5 2.5-3.5Zm571 30 2.5.5-.5 5.5-5.5 1.5q1.75 8.75-3.5 10.5l-18.5-2.5-2-6q4-7.5 19.5-3.5l8-6Zm-319 12 3.5 2.5-2.5 3.5-3.5-2.5 2.5-3.5Zm-12 6 3.5 2.5-2.5 3.5-3.5-2.5 2.5-3.5Zm256 0 15.5 5.5 2 4-.5 3.5-9-1-2.5 4.5.5 1.5-19.5-.5 1-3-5.5-2.5-1 2-5.5-3.5 3.5-4.5q15 1.5 21-6Zm-230 19 7.5 2.5-5.5 4.5-1-2-5.5 1.5-2.5 3.5-2.5-1.5 5.5-6.5 4-2Zm-159 11 4.5 2.5-2.5 3.5-3.5-1.5 1.5-4.5Zm13 0 3.5.5-3.5 5.5-2.5-3.5 2.5-2.5Zm260 61-.5 1.5-1.5 3.5-2.5-.5.5-2.5 4-2Z"/><path fill="#9DC6E1" stroke="#9DC6E1" stroke-width="3" d="M315.5 216q7 4.5-4 9l-4 2 .5-1.5 7.5-9.5Zm30 18 2.5.5-.5 2.5-4 2 .5-1.5 1.5-3.5Zm-107 7 1 2-5 2-.5-1.5 4.5-2.5Zm52 5 2.5 1.5-2.5 4.5-2.5-3.5 2.5-2.5Zm162 0 3.5 2.5-2.5 3.5-3.5-2.5 2.5-3.5Zm954 0 3.5 2.5-.5 3.5-5.5-2.5 2.5-3.5Zm-114 6 3.5 2.5-2.5 3.5-3.5-2.5 2.5-3.5Zm154 7 5.5 2.5-.5 2.5-5.5-3.5.5-1.5Zm-184 5 3.5.5-2.5 5.5-3.5-2.5 2.5-3.5Zm16 0 5.5 3.5-.5 1.5-5.5-2.5.5-2.5Zm-777 6 8.5 2.5-2.5 3.5-9.5-2.5 3.5-3.5Zm984 12 8.5.5-6 17 6 1v11l-11.5 16.5-27.5 25.5.5 1.5-25 23-38 18h-18l-.5-2.5 6-8q-14.25.25-21.5-6.5l-3 5-29-18q-13.53 2.53-18.5-3.5l-2.5-8.5h-16q-6.71-8.29-24-6l-18-12-11 6h-13l-16 6v-1l4.5-2.5-7.5-13.5-3-1-1.5 2.5 5 7-16.5 8.5-.5-2.5 6-8-24.5-1.5-5.5-3.5q-3-11.5 2.5-14.5l3.5 1.5 1.5 10.5 26-12h13l1.5 2.5-6 5 1.5 4.5 10-2 1 2 5.5-.5-1-5 11.5-5.5 3 11 4-1h2l10-5 2 4 23 2 9.5 7.5 4.5 10.5h16l17 12q13.24-1.24 18 6h19l23.5-8.5q-1.79-13.79 5-19l-7.5-20.5-14.5-.5 8-5-2-1q6.11-7.39 21.5-5.5l.5 2.5-2.5 3.5-2.5 1.5.5 10.5 5.5.5 1.5 5.5 4.5 3.5 1.5 2.5 2.5-1.5 2.5-13.5 6 3 11.5-6.5-1.5-3.5-16.5-3.5 7.5-16.5 14 5 32-11h13l9-6Zm-6.5 24-12 6-9 10 1 2 18-9 5-7-3-2Zm-39 6-11 6-1 3 12 9 6-1-6-9 17-4 1-3-18-1Zm-2 24-10 12q1 12-6 17l3 1 15-17-1-12-1-1Zm-43 18-3 3 1 9h2l9-10-9-2ZM368.5 288l9.5 1.5-1.5 4.5-10.5-2.5 2.5-3.5Zm17 0 4.5 2.5-2.5 3.5-6.5-.5 2.5-4.5 2-1Zm373 30 9.5 2.5-2.5 3.5-9.5-2.5 2.5-3.5Z"/><path fill="#9DC6E1" stroke="#9DC6E1" stroke-width="3" d="m1299.5 318 29.5.5-18.5 10.5-3-5-8-6Zm36 0 13.5.5-5 3-.5 1.5-3 1-2.5-1.5-2.5-4.5Zm17 0 6.5.5-8.5 5.5-.5-3.5 2.5-2.5Zm-60 4 .5 1.5h-1l.5-1.5Zm-1040 14 5.5 3.5-.5 2.5-5.5-3.5.5-2.5Zm26 0 3.5 2.5-2.5 3.5-3.5-2.5 2.5-3.5Zm336 0 3.5 2.5-2.5 3.5-3.5-2.5 2.5-3.5Zm561 12 .5 2.5-5.5 3.5.5-1.5 2.5-3.5 2-1Zm55 12 5.5 2.5-5.5 3.5v-6Zm27 6 8.5 2.5-1.5 3.5-10 3-.5-2.5 3.5-6.5Zm29 0 3.5 1.5 3 4-6.5.5-2.5-3.5 2.5-2.5Zm-372 6 3.5 2.5-2.5 3.5-3.5-2.5 2.5-3.5Zm401 0 4.5.5 2 5-2.5 1.5-5.5-3.5 1.5-3.5Zm-719 6 3.5 2.5-2.5 3.5-3.5-2.5 2.5-3.5Zm730 4 4.5 3.5-4.5 6.5-1.5-2.5 1-4v-2l.5-1.5Zm-1096 8 3.5 2.5-2.5 3.5-3.5-2.5 2.5-3.5Zm915 0q14.5-4 18.5 2.5l-14.5 21.5-14.5-8.5 6.5-13.5 4-2Zm194 1 7.5 5.5 2 4-3 2-1.5 3.5-1.5-5.5 1-3-4-3-.5-3.5Zm-167 5 4.5 2.5 5 12-3.5-2.5-2.5.5-.5 5.5-3.5 1.5-2 19 20.5 26.5 3-2 1.5 3.5-1 6 9 11-9 4-.5 2.5-5.5-3.5-13.5-26.5-8 5-25.5-26.5 7.5-14.5q12.25 3.25 15.5-2.5l8.5-21.5Zm-1.5 42-1 5 6 1v-2l-5-4Zm-568.5-24 3.5 2.5-2.5 3.5-3.5-2.5 2.5-3.5Zm48 0 3.5 2.5-2.5 3.5-3.5-2.5 2.5-3.5Zm24 0 3.5 2.5-2.5 3.5-3.5-2.5 2.5-3.5Zm672 0 3.5 2.5-1.5 3.5-4.5-1.5 2.5-4.5Zm-540 6 3.5 2.5-2.5 3.5-3.5-2.5 2.5-3.5Zm-18 6 3.5 2.5-2.5 3.5-3.5-2.5 2.5-3.5Zm401 3 2 3 5.5.5 3 10h-1l-4.5-9.5-1 2-4-6Zm-431 3 3.5 2.5-2.5 3.5-3.5-2.5 2.5-3.5Zm456 6 3.5 2.5-2.5 3.5-3.5-.5 2.5-5.5Z"/><path fill="#9DC6E1" stroke="#9DC6E1" stroke-width="3" d="m1208.5 450 3.5 2.5 1.5 9.5q11.75 1.25 16.5 9.5l-2.5 1.5-14-5-1.5 12.5 5.5 8.5 1.5-.5 5.5 7.5 3.5 1.5 6 8 3.5 16.5h7l15.5 9.5 1.5 2.5 2.5-1.5 3.5-10.5 4.5 1.5q2.75 15.75-5.5 20.5l-4 2q-11.75 2.75-14.5-3.5l-1.5-2.5-8.5-1.5-4.5-10.5-13.5-7.5-4.5-10.5-9.5-1.5-6-17q7.83-6.67 6-23v-2q-3.5-13 2.5-16.5Zm-1092 12 3.5 2.5-2.5 3.5-3.5-2.5 2.5-3.5Z"/><path fill="#9DC6E1" stroke="#9DC6E1" stroke-width="3" d="m1235.5 475 1.5 4.5-3.5 6.5-3.5-.5 5.5-10.5Zm-1073 5 5.5 2.5-2.5 3.5-3.5-2.5.5-3.5Zm1090 6 4.5.5 8 19-2.5 4.5-3.5-.5 1-3-1-2 1-7-7.5-11.5Zm1 11 .5 4.5-5.5 2.5-.5-2.5 5.5-4.5Zm-651 7 9.5 2.5-2.5 3.5-9.5-2.5 2.5-3.5Zm669 6 6.5 2.5-2.5 3.5-3.5-.5-.5-5.5Zm-431 12 5.5 2.5-2.5 3.5-3.5-2.5.5-3.5Zm-280 30 3.5 2.5-2.5 3.5-3.5-2.5 2.5-3.5Zm54 18 3.5 2.5-2.5 3.5-3.5-2.5 2.5-3.5Zm72 12 3.5.5-2.5 5.5-3.5-2.5 2.5-3.5Zm-60 24 3.5 2.5-2.5 3.5-3.5-2.5 2.5-3.5Z"/><path fill="#03122D" stroke="#03122D" stroke-width="3" d="m462.5 185 .5 1.5h-1l.5-1.5Zm743 43 13.5.5-1 4 4.5 1.5 1.5-4.5-.5-1.5 43.5.5-1.5 11.5h-24l-23 12h-25l-29-12-18.5-.5-1-5 40.5-.5 2-2 2 8 16.5-7.5-.5-4.5Zm82 0 19.5.5q-7.95 7.05-23 7l-2.5 3.5-5.5-4.5 2.5-1.5 4 1 5-6Zm22 0 15.5.5-8.5 4.5-7-5Zm18 0q15.39-1.89 21.5 5.5l-13.5.5-8-6Zm-30 12 16.5 6.5-1.5 3.5-7 2-3.5-2.5-.5-3.5-4.5-1.5-1-3 1.5-1.5Zm90 0 10.5 3.5-.5 2.5-10-6Zm-338 4 .5 2.5-3.5 4.5-3 1-10.5-5.5 16.5-2.5Zm103 2 5.5 2.5-.5 3.5-5.5-1.5.5-4.5Zm137 1 1.5 5.5-1 4 4.5 1.5 1.5-4.5-.5-1.5 4.5 1.5 2.5 4.5 1.5.5-1 2 10.5 3.5.5-2.5-2-1 1.5-.5 11 12 2.5.5 5.5 7.5 3.5 1.5 2 5-1.5.5-8.5-4.5-3.5-4.5-3.5-1.5 2-1-8.5-5.5-1 2-18-2-21.5-11.5 4.5-2.5 5 2 6-11Zm-994 26 1.5 2.5-2-1 .5-1.5Zm263 2 .5 1.5h-1l.5-1.5Zm845 13 2 24 1.5.5 3 8-3-2-2.5-3.5-1 2-3-5-2.5-.5-2-11 2-1-.5-5.5-1.5-.5 7.5-5.5Zm-999 6 3.5.5-1.5 5.5-4.5-.5 2.5-5.5Zm990 0-.5 1.5-.5 1.5-.5-1.5 1.5-1.5Zm-1027 12 4.5 1.5-1.5 4.5-4.5-.5 1.5-5.5Zm13 0 9.5 2.5 3 9-2.5 1.5-13.5-1.5 3.5-11.5Zm-31 12 4.5.5-1.5 5.5-4.5-.5 1.5-5.5Zm1052 6 3.5.5-1 4 .5 1.5-6.5-2.5 3.5-3.5Zm-1208 21 1.5 2.5-2-1 .5-1.5Zm1049 15 4.5.5 1 2-10.5 3.5v-1l4.5-2.5.5-2.5Zm48 1 5.5 2.5-2.5.5-3.5-1.5.5-1.5Zm-24 5 10.5 7.5-.5 3.5-4 1-3-6-3 2v-8Zm-406 6 15.5 1.5-1.5 2.5-14 2-2.5-1.5.5-3.5 2-1Zm421 0 7.5 1.5-4.5 8.5-6.5-.5 1.5-2.5 1.5-.5-2-1 4-2-1.5-3.5Zm-100 4 .5 2.5-3.5 4.5-1.5-2.5 2.5-3.5 2-1Zm-1101 2 6.5 4.5-1.5.5-5-4-6.5 5.5 6.5-6.5Zm785 6 4.5 1.5-1.5 4.5-4.5-1.5 1.5-4.5Zm434 0 11.5.5-2.5 4.5-1-2-5.5 4.5-3.5 4.5-3.5-.5 4.5-11.5Zm4 12 7.5.5 4.5 11.5 4.5-2.5 8.5-9.5 3.5.5-3.5 11.5-7.5 3.5-1 2 3 1-24.5 10.5-1.5-2.5 17-9-5.5-16.5-1 2-4-3Zm52 12 6.5 2.5.5 8.5 1.5.5-7.5 2.5-1-14Zm-941 3 2.5 1.5-1.5.5-1-2Zm927 3 2.5.5-.5 7.5-3-2-2.5 1.5 3.5-7.5Zm-482 18 3.5.5 6 15-4.5 5.5-5 3-1.5-21.5 1.5-2.5Zm31 0 9.5.5-1.5 5.5-10.5-1.5.5-3.5 2-1Zm-738 5 2.5 3.5h-1l-1.5-3.5Zm23 1 4.5 1.5-1.5 4.5-4.5-1.5 1.5-4.5Zm1069 1 1.5.5 5 10-13 8-5.5 10.5-12.5-5.5 10-1 .5-2.5 11.5-6.5 2.5-13.5Zm-1056 5 9.5 1.5-.5 3.5-9 1-2.5-1.5.5-3.5 2-1Zm702 6 31 17 6-4 14.5 23.5-3.5 4.5-14.5 2.5 1.5 4.5 10.5.5-.5 8.5q-19.88 2.63-28.5 16.5l-.5 1.5-18.5 5.5-2.5 9.5-15.5-.5-1.5-3.5-11-2-10 6-1.5-2.5 6.5-15.5q21.47 3.97 27.5-7.5 2-18.5 14-27l-2.5-1.5-9 6-22 6-2.5-1.5.5-3.5 10.5-4.5 3.5-8.5 9.5-1.5-6-9q18.04.54 24-11l-12-4 .5-3.5 2-1Zm326 0 7.5 3.5-.5 2.5-5 2-2-8Zm49 0 4.5 1.5 2 5-4.5 5.5-7 3 3.5-4.5 2-9-.5-1.5Zm-6 17 6.5 1.5-6.5 11.5-5 2-2-8-2.5-1.5-1-4 10.5-1.5Zm-294 1 6.5 1.5-9.5 16.5-2.5-.5-1.5-3.5-10.5-3.5.5-3.5 17-7Zm253 6 5.5 1.5-1.5 4.5-4.5-1.5.5-4.5Zm-102 6 7.5 5.5-2 1 .5 4.5 17.5 8.5.5 1.5 22 11 49.5 37.5-.5 2.5-17-6h-19q-4.76-7.24-18-6l-23 12q-17.29-2.29-24 6h-28l-2 2-1-2-5.5 1.5 1 4-5 2-2 8 1.5 2.5-1.5.5 1.5 11.5 4-1q-2.61 21.61 6.5 31.5l-8.5 10.5-32-13-7.5-7.5-.5-2.5-6.5-.5 1-10-4.5-1.5h-2l-35-18-14.5-1.5 14.5-4.5 8 5 20.5-13.5-5-8 2.5-1.5 9 6 12.5 2.5q-1.93 14.07-12 20l18.5 7.5 9.5-7.5 4.5-10.5 9.5-2.5 8.5-21.5 9.5-.5 12-16-12-3 8.5-22.5 27.5-14.5.5-9.5Zm-9.5 48-3 10 10 2 2-9-9-3Zm-15 12-12 7 3 4 14-5 1-4-6-2Zm-40 48-2 5 5 1 1-4-4-2Zm0 24-2 5 6 1v-4l-4-2Zm12 0-2 5 5 1 1-4-4-2Zm82.5-119 8.5 4.5-3.5.5-5.5-3.5.5-1.5Zm-871 5 1.5.5-1.5.5v-1Zm361 0 5.5 1.5-1.5 4.5-4.5-1.5.5-4.5Zm199 0 4.5 1.5-1.5 4.5-4.5-1.5 1.5-4.5Zm-571 3 3 2 2.5-1.5-3.5 2.5-2-3Zm65 3 1.5.5-1.5.5v-1Zm486 6 12.5 1.5-3.5 5.5-19 11-1.5-6.5 5.5-8.5 6-3Z"/><path fill="#03122D" stroke="#03122D" stroke-width="3" d="m1075.5 510 4.5 1.5-1.5 4.5-4.5-1.5 1.5-4.5Zm-246 24 4.5 1.5-1.5 4.5-4.5-1.5 1.5-4.5Zm-12 6 4.5 1.5-1.5 4.5-4.5-1.5 1.5-4.5Zm-506 24 11.5 5.5-21.5.5v-1l10-5Zm682 0 2.5 1.5-2.5 4.5-3.5-2.5 3.5-3.5Zm-321 24 5.5 3.5-.5 2.5-5.5-1.5.5-4.5Zm31 0 10.5 9.5-1.5 2.5-10.5-9.5 1.5-2.5Zm40 6 6.5 2.5-2.5 9.5-15.5-1.5 3.5-5.5 8-5Zm111 1 8.5 4.5-15.5.5v-1l7-4Zm-21 5 5.5.5-15.5 5.5v-1l10-5Zm-197 6 5.5 2.5-.5 3.5-11 6-.5-3.5 5-4 1.5-4.5Zm73 0 4.5 1.5-2.5 4.5-3.5-1.5 1.5-4.5Zm13 1 8.5 4.5q-13.52-1.02-17.5 7.5l-2.5-1.5 11.5-10.5Zm73 0 2.5 1.5 2 3-12.5.5v-1l8-4Zm-224 5 4.5 1.5-1.5 4.5-4.5-1.5 1.5-4.5Zm17 0h27l2.5 2.5-9.5 20.5-12 1-2.5-1.5 1.5-4.5 10.5-1.5-.5-3.5-23.5-2.5 4.5-6.5 1.5-.5.5-3.5Zm98 0 9.5 2.5 1 9-13.5 2.5.5-1.5 2.5-12.5Zm-139 6 16.5 7.5-.5 3.5-15 1-2.5-10.5 1.5-1.5Zm114 0 4.5 1.5-1.5 4.5-4.5-1.5 1.5-4.5Zm-282 6 10.5 1.5-.5 3.5-9 1-2.5-1.5 1.5-4.5Zm19 0 9.5 1.5-.5 3.5-9 1-2.5-1.5.5-3.5 2-1Zm18 0 75.5 1.5-.5 3.5-75 1-2.5-1.5.5-3.5 2-1Zm96 0 9.5 1.5-.5 3.5-9 1-2.5-1.5.5-3.5 2-1Zm135 0 6.5 2.5-3.5 8.5-8.5 2.5 1 4-7.5.5.5-1.5q.25-10.75 7.5-14.5l4-2Zm-32 19 2.5 1.5-1.5-.5-1-1Zm-34 5 1.5.5-1.5.5v-1Z"/><path stroke="#000" stroke-width="3" d="m414.5 158 .5 1.5h-1l.5-1.5Zm857 70 4.5.5 2 4-1.5.5-4.5-2.5-.5-2.5Zm25 15 2 3 3.5.5.5 3.5 2.5 1.5-3 1-.5 4.5-3-5-8.5-.5 1.5-4.5 4.5-1.5.5-2.5Zm-24 9 2.5.5 2 4-1.5-.5-3.5-1.5.5-2.5Zm32 6 9.5 3.5-.5 2.5-10.5-3.5 1.5-2.5Zm10 12 8.5 5.5-5.5.5-3-6Zm81 24 2.5.5-.5 5.5-2.5-.5-1-4 1.5-1.5Zm4 18 2.5 1.5 1.5 3.5 1-2 2 3-5.5-.5-1.5-5.5Zm6 12 4.5 1.5-2.5 4.5-3.5-1.5 1.5-4.5Zm-196 36 11.5.5 4.5 11.5 22-9 1 3 5.5.5 1.5 17.5 8.5-6.5 1.5-3.5 4-2 3 6 4.5-1.5.5-1.5 1 3 2.5.5-2 1-1 2q3 5.14 6 0l1.5 14.5q12.75 3.25 16-3l2 4 4 2 1-2 5.5 16.5-17 9 1.5 2.5 30-11 5 12 4.5-1.5 2.5-4.5 3.5 2.5 1.5 3.5 6-1-1.5 4.5-.5 2.5-6 1-4-1-1.5 4.5v2l-.5 5.5-5.5-.5-.5-2.5-11-3-1 6-23.5.5-.5 5.5-11.5.5-.5 5.5-5.5.5-6.5 11.5-11 9 5.5-6.5-.5-2.5-5.5-.5 3.5-5.5 6.5-2.5 2-4-2.5-4.5-19.5-2.5-4.5-9.5-1.5.5-2 13-3.5 3.5-8.5 3.5-.5 2.5q-9.5 2-11.5-3.5l6-3-1.5-3.5-8.5-3.5 1.5-4.5 2.5-1.5-1.5-4.5q-11.29-1.29-14 6l-14-27-1.5.5-16-33 5-1 .5-2.5 4.5-.5 2.5-6.5 12.5-6.5.5-1.5 9.5-1.5 3.5-4.5Zm102 24 1.5.5-2.5 5.5-5.5-.5 3-2 .5 1.5 3-5Zm40 18 2.5 1.5 1.5 3.5 1-2 2 3-5.5-.5-1.5-5.5Zm-872 44 .5 1.5h-1l.5-1.5Zm109 126 .5 1.5h-1l.5-1.5Zm489 51-6 7-3.5-2.5 2.5 1.5 7-6Z"/><path fill="#3E273E" stroke="#3E273E" stroke-width="3" d="m1278.5 228 5.5.5-1.5 5.5-4.5-1.5.5-4.5Zm7 12 7.5.5-2.5 4.5-5 1-1.5-4.5 1.5-1.5Zm28 32 14.5 9.5-.5 1.5-14-11Zm62 16 4.5.5 1 5-5.5.5-1.5-4.5 1.5-1.5Zm-137 36 3.5.5-2.5 5.5-3.5-2.5 2.5-3.5Zm-15 24 13.5.5-1 2 13 4-1 4 12 4-2.5 3.5-1.5.5-1.5 3.5-1-4-5.5-.5-1.5-5.5-4.5.5-1.5 3.5-5 3 .5-3.5-1.5-3.5-15-6-3 1-4.5 2.5 5 2-10.5 2.5-1.5-2.5 2-1 2.5-4.5 14-6Zm-27 6 4.5.5-1 3 1 2-1.5 2.5-3-2-2.5 1.5 2.5-7.5Zm82 0 3.5 1.5 3 5-2 1-2.5 4.5-2 1-.5-2.5.5-10.5Zm-111 12 22.5.5-1.5 2.5-3.5 2.5.5 1.5-9 5-1-6-5.5.5 2 11-2 1 .5 1.5-4.5-3.5-2-11 3.5-5.5Zm137 0 3.5 1.5-1.5 4.5-4.5-2.5 2.5-3.5Zm9 12 6.5 2.5-2.5 3.5-1.5.5-1.5 3.5-1.5-2.5.5-1.5-4.5-.5 5-3-.5-2.5Zm-171 6 3.5.5-2.5 5.5-3.5-.5 2.5-5.5Zm180 0 3.5 2.5-2.5 3.5-3.5-2.5 2.5-3.5Zm15 3 .5 8.5q-7.34 6.16-6.5 20.5l-5.5-3.5 1.5-4.5 2.5-1.5 2-10-3.5-.5-8.5 7.5 3.5-7.5 12.5-6.5 1.5-2.5Zm-34 3 5.5.5-1 4 .5 1.5-6.5-.5 1.5-5.5Zm52 25 .5 7.5-6.5 3.5v-1l1.5-.5 4.5-9.5Zm-167 2 2 3-3.5-1.5 1.5-1.5Zm47 46 .5 7.5-6 5-2-7 6-2 1.5-3.5Zm-17 16 7.5 1.5-1.5 3.5-5 2-1-7Zm35 0 2.5 6.5-1.5.5-6.5-3.5.5-2.5 5-1Zm-129 6 23.5 7.5-2 1-.5 4.5q-7.94-7.56-23.5-7.5l.5-4.5 2-1Zm60 1 3.5 2.5-2.5 3.5-3.5-2.5 2.5-3.5Zm59 6 4.5 1.5-1.5 4.5-5.5-.5 2.5-5.5Zm-48 30q12.39.61 16.5 9.5l-.5 5.5-16-15Z"/><path fill="#457CA6" stroke="#457CA6" stroke-width="3" d="m1128.5 234-.5 1.5 1 4-6.5.5-.5-2.5 6.5-3.5Zm5 0 6.5 1.5-1.5 4.5-5.5-.5 1-4-.5-1.5Zm-52 6q8.75-1.75 10.5 3.5l-1.5 7.5-9.5-4.5-1-3 1.5-3.5Zm83 6 11.5 2.5-2.5 3.5-9.5-3.5.5-2.5Zm-342 30 1.5.5-7.5 5.5-.5-2.5 6.5-3.5Zm660 0 5.5 2.5 1 3-11.5.5v-1l4.5-2.5.5-2.5Zm-251 6 4.5 1.5-1.5 4.5-4.5-1.5 1.5-4.5Zm229 0 3.5 1.5-1.5 4.5-9.5-.5 7.5-5.5Zm-217 6 3.5.5 1 9-1.5 2.5-3.5-.5-1-9 1.5-2.5Zm34 0 2.5.5-2 1 8 10-2.5.5-10.5-8.5.5-1.5 4-2Zm-441 1 1.5.5 1 6-1.5 3.5-1.5-.5-1-6 1.5-3.5Zm-11 11 2.5 3.5-3.5 2.5q-5.5-3 1-6Zm436 0 4.5 1.5-3.5 4.5-2.5-1.5 1.5-4.5Zm6 7-1.5 2.5-.5 5.5-13 3-10 8-1-2-5 1-1.5-6.5q23.53 1.53 32.5-11.5Zm102 4 3.5 1.5-8.5 5.5-3.5-5.5 8.5-1.5Zm-56 1 8.5 5.5-2.5.5-5.5-3.5-.5-2.5Zm-1144 6 4.5 3.5 1 2-1.5 2.5-4-8Zm978 0 7.5.5-3 5 9 12-3 1-.5 1.5-4-2-2 6-5.5 2.5 6 15-5 3 2 3-9 2 1 4-10 7-12 18-3 11 5 10-5 14 11 15 2.5 19.5 9.5 5.5 1 4-1.5.5-16.5-10.5v-19l-2.5-2.5q-12 1.5-13.5-7.5l-7-20 5-7v-32l11-15q-6.43-4.57-5-17l23.5-12.5 1 3 4.5-3.5 1-2-2-1 9.5-11.5Zm-22.5 25-2 3 3 1 1-2-2-2Zm-7 23-2 5 5 1 1-4-4-2Zm106.5-45 2.5 1.5-1.5.5-1-2Zm-16 3 9.5.5-.5 2.5-9 3-2.5-3.5 2.5-2.5Zm-1073 18 2.5.5-2.5 5.5-3.5-.5 3.5-5.5Zm965 6 3.5 1.5-2.5 4.5-3.5-1.5 2.5-4.5Zm120 6 3.5 9.5h-1l-5-7 2.5-2.5Zm-277 6 4.5 2.5-2.5 3.5-3.5-.5 1.5-5.5Zm-32 12 1.5.5-1 4 .5 1.5-6.5-2.5 5.5-3.5Zm6 0 5.5 2.5-5.5 3.5.5-1.5-.5-4.5Zm0 12 1.5.5-3 5 .5 1.5-4.5 2.5 1 2-6.5 2.5-1-2-1.5-.5 13.5-11.5Zm6 0 6.5.5-3.5 5.5-4 1 1.5-2.5-.5-4.5Zm-51 12 15.5 8.5-2.5 3.5-9-3-1.5.5-5-7 2.5-2.5Zm-45 15 1 3 3.5.5-10.5 5.5.5-1.5 1.5-2.5 3.5-1.5-4-1 4.5-2.5Zm27 3 3.5 2.5-2.5 3.5-3.5-2.5 2.5-3.5Zm-18 6 3.5 2.5-2.5 3.5-3.5-2.5 2.5-3.5Zm72 18 3.5 1.5-1.5 4.5-4.5-2.5 2.5-3.5Zm-804 24 3.5.5-.5 5.5-5.5-2.5 2.5-3.5Zm715 23-6.5 7.5-.5 1.5-.5-1.5 7.5-7.5Zm156 1 2.5.5-3.5 5.5-2.5-.5 3.5-5.5Zm41 0 3.5 2.5-2.5 3.5-3.5-.5 2.5-5.5Zm-63 12 3.5.5-3 5 3.5 5.5 8.5-6.5-1-4 2.5-.5 7.5 6.5 2 7-1.5 3.5-7-4-35.5 22.5-1.5 2.5-1.5.5-1.5 3.5q-20.25-4.75-25 6l2.5-3.5-.5-2.5-5 3 5-6 24-17 1 2 5.5-1.5-.5-4.5-1.5-.5 2.5-3.5 17-14Zm-168 12 .5 1.5-2 1 1.5-2.5Zm-47 13 3.5 5.5-2-1-1.5-4.5Zm-248 17-1 2-1.5-.5 2.5-1.5Zm406 24 3.5 2.5-.5 4.5-4-1-1.5.5 2.5-6.5Zm12 6 6.5.5-2.5 4.5-1-4-3 4-2 1-.5-3.5 2.5-2.5Z"/><path fill="#678BA6" stroke="#678BA6" stroke-width="3" d="m1129.5 234 4.5 1.5-1.5 4.5-4.5-1.5 1.5-4.5Zm10 0 6.5 2.5-2.5 3.5-4.5-.5 1-4-.5-1.5Zm134 0 4.5 3.5-.5 2.5-2.5-.5-1.5-5.5Zm13 0 3.5 2.5-2.5 3.5-3.5-.5 2.5-5.5Zm-209 6 3.5.5-1 3 1.5 2.5-7.5-.5 3.5-5.5Zm-844 4 1 2 3.5.5-9.5 4.5-.5-1.5 5.5-5.5Zm1045 8 5.5.5-.5 5.5-5.5-3.5.5-2.5Zm140 0 3.5 1.5 3 4-6.5.5-2.5-3.5 2.5-2.5Zm7 0 8.5 2.5-2.5 3.5-3.5-1.5-2.5-4.5Zm-157 6 3 2 1-2 5.5 8.5-3.5-2.5-8 1-4.5-1.5 4-2 2.5-3.5Zm-62 6 5.5 3.5-.5 2.5-5.5-3.5.5-2.5Zm263 0 6.5 3.5-.5 2.5-5.5-2.5-.5-3.5Zm-6 18 17.5.5-17.5 5.5.5-1.5-.5-4.5Zm-74 6 2.5.5-3.5 5.5-2.5-.5 3.5-5.5Zm24 0 7.5.5-10.5 8.5-.5-3.5 3.5-5.5Zm10 0 5.5.5-1.5 5.5-3.5-.5-.5-1.5-1.5-.5 1.5-3.5Zm10 0 17.5.5-16.5 5.5-1-6Zm-45 12 3.5 1.5 3 4q-16.2-.7-24.5 6.5v-1l18-11Zm-119 6 4.5 6.5-1.5-.5-6 2-.5-4.5 3.5-3.5Zm210 0q5.5 3-1 6l-2.5-.5 3.5-5.5Zm-82 2 2.5 9.5-4.5.5-3.5-2.5 2.5-3.5 1.5-.5 1.5-3.5Zm-113 4 5.5.5-1.5 5.5-3.5-.5-.5-5.5Zm72 0-.5 1.5-1.5 2.5-9 2v-1l11-5Zm-45 1 2.5.5 1.5 2.5 3.5 1.5-12.5.5 2-3 3-2Zm-156 5 9.5.5-1 14 6 5-2.5-1.5q-11 1.5-12.5-6.5l-3-8 3.5-3.5Zm62 0 8.5 5.5-7.5 1.5-1.5-2.5 1-3-.5-1.5Zm-45 6 3.5.5-2.5 5.5-3.5-2.5 2.5-3.5Zm-35 6 2.5.5-3.5 4.5-2 1-.5-2.5 3.5-3.5Zm15 11 3.5 1.5 1 3-5 3 1.5 5.5 10.5 3.5.5 2.5 14-11 3.5 2.5.5 2.5 10.5.5-16.5 11.5-18.5 1.5 1.5 4.5 2.5 1.5 1 3-16.5 9.5-1-2-2.5-.5 3-4-2.5-1.5-3.5 5.5v2l.5 4.5 3.5.5-21 8 10 30-4 7 13.5 24.5 14.5 5.5 7.5 11.5 17.5 3.5-5 9 4.5 2.5h2l4.5-1.5-1-4 1.5-.5 5.5 3.5q6.87 24.13 25.5 36.5l10.5 5.5 6 14-3.5.5-3.5-1.5-29.5-32.5-23.5-10.5-1.5-9.5h-11l-23.5-15.5-4.5-8.5-7.5-3.5v-15q-9.75-7.75-12-23l5-10-5-14 21.5-30.5 14.5-1.5-1.5-4.5-3.5-2.5 2.5-3.5 2.5-.5-6-15 6.5-3.5Zm70 2 1.5.5-1.5 4.5-8.5-.5 8.5-4.5Zm-17 5 5.5.5-15.5 5.5v-1l10-5Zm16 6 5 6-1.5.5 4 2-1.5 2.5-3.5-2.5-2.5-8.5Zm35 0 9.5 3.5-.5 2.5-11.5-2.5 2.5-3.5Zm18 0 3.5 2.5-2.5 9.5-3.5-1.5 2.5-10.5Zm12 6 3.5 2.5.5 1.5 3.5 1.5-9.5 1.5-.5-4.5 2.5-2.5Zm-318 6 3.5 2.5-2.5 3.5-3.5-2.5 2.5-3.5Zm-18 6 9.5 2.5-2.5 3.5-9.5-2.5 2.5-3.5Zm375 0 9.5 5.5-3.5-.5-9.5-3.5 3.5-1.5Zm-406 12 4.5 1.5-1.5 4.5-6.5-.5 3.5-5.5Zm429 0 7.5 3.5 4 9-1.5-.5-8.5-3.5-1.5-8.5Zm-445 12 2.5.5-.5 2.5-4 2 .5-1.5 1.5-3.5Zm494 0 4.5.5-9.5 7.5-.5-4.5 5.5-3.5Zm-551 6 5.5 2.5-2.5 3.5-16 6 .5-1.5-1-4 13.5-6.5Zm522 0 17.5.5.5 5.5 1.5.5-24.5 10.5-1.5-11.5 1.5.5 4.5-3.5.5-2.5Zm-18 6 5.5 2.5-2.5 3.5-3.5-1.5.5-4.5Zm-532 6 8.5.5-5 3-1.5 2.5-4.5-2.5 2.5-3.5Z"/><path fill="#678BA6" stroke="#678BA6" stroke-width="3" d="m1211.5 442 1 2 1.5.5-1 4 4 6-4.5 2.5-2-7-4 1 .5-1.5 4.5-7.5Zm6 26 11 5 1.5-.5-6.5 1.5-5.5-3.5-.5-2.5Zm23 1 2.5 6.5-2.5-1.5-6.5-.5 6.5-4.5Zm-11 9 1.5 9.5-1 3 .5 1.5-6.5-3.5 5.5-10.5Zm-29 2 4.5 1.5-2.5 4.5-2.5-.5.5-5.5Zm-243 18 5.5.5-3 5 3 1-5.5 4.5-3.5-7.5 3.5-3.5Zm279 11 4 1 1.5-.5-2.5 6.5-3 1v-8Zm27 0-7.5 8.5-2 7 .5 1.5-5.5-12.5 2.5-3.5 12-1Zm5 1 3.5 2.5-10.5 3.5v-1l7-5Zm9 5 .5 9.5-3.5-2.5-2.5-1.5 1.5-4.5 4-1Zm-581 7 5.5 2.5-1.5 3.5-4.5-2.5.5-3.5Zm26 0 9.5 1.5-2.5 4.5-8.5-.5-1-3 2.5-2.5Zm538 1 3 5 1.5.5-2.5 5.5-3-4-3.5-1.5 2.5-1.5 1.5.5.5-4.5Zm17 4 .5 1.5-5.5 8.5-.5-3.5 3.5-5.5 2-1Zm-795 7 3.5.5-1.5 3.5-4 2-.5-4.5 2.5-1.5Zm421 6 2.5.5-3.5 5.5q-5.5-3 1-6Zm362 4 1.5.5-3.5 5.5-6 2 5-6 3-2Zm-24 13 1.5.5-1.5.5v-1Zm-966 12-.5 1.5-2.5 5.5-6.5-5.5 9.5-1.5Zm-221 67 5.5 2.5-2.5 3.5-3.5-2.5.5-3.5Z"/><path fill="#455B70" stroke="#455B70" stroke-width="3" d="m1339.5 234 4.5 1.5-.5 4.5-5.5-1.5 1.5-4.5Zm-61 4 3 2 2.5-1.5 1 2-2.5 11.5-4.5-1.5-2-10 2-1 .5-1.5Zm-125 2 14.5 5.5-4 1-.5 1.5-11.5-3.5 1.5-4.5Z"/><path fill="#455B70" stroke="#455B70" stroke-width="3" d="m1356.5 240 17 12q21.67-3.17 31 6l5.5-3.5-1.5-2.5 1.5-.5.5-2.5 6.5 3.5-1 4v2l6 16-27 13-3 7 3 5-9 2-1.5 2.5-16 8q-17.29-2.29-24 6h-22l-9-6q-6.25 8.75-23.5 6.5l-.5 4.5-15.5-10.5-2-4-1.5-2.5-22 12h-9l-7.5-4.5-2 4 5 1-9.5 3.5q-6.15-6.35-20.5-4.5l10.5-18.5 13.5-7.5-7.5-13.5-12.5-7.5 3-1-1.5-3.5-4-2-1 4-4-5-1.5-.5 1.5-4.5 3.5.5 2.5 3.5 23 2 12 6q4.76-7.24 18-6l-.5 1.5 1.5 4.5 4-1 6 1 .5-4.5-.5-1.5 12 6 1-2 24 2 40 24 1.5-9.5-12.5-2.5-9.5-7.5-10-16 2-1-3-5 5 4 4.5 5.5 3 1 7-5 3 12 20.5-18.5 1-4-4.5-7.5ZM1232 282l-2 5 5 1 1-4-4-2Zm36 0-2 5 4 1v-1l2-1v-2l-4-2Zm118 0-12 8 2 4 10-2v2h3l3-5-2-1 2-4-6-2Zm-142 6-2 3 1 9h4l1-2-1-9-3-1Zm34 0-4 2-1 2q4 8 16 8l1-3-12-9Zm-16 12-2 5 3 1 3-4-4-2Zm23 12-1 5 5 1 1-5-5-1Zm-209.5-66 15.5 5.5-5.5.5-10-6Z"/><path fill="#455B70" stroke="#455B70" stroke-width="3" d="m1269.5 253 2.5.5.5 2.5 4.5 1.5-10.5 1.5-.5-1.5 3.5-4.5Zm164 4 .5 4.5-1.5 2.5-12.5-5.5 13.5-1.5Zm8 1 10 6 .5-3.5-4-2 6.5-.5 4 6 6.5.5-1 4 11.5 1.5 1-3 5 6 13.5 3.5-3.5 5.5-3.5-1.5-.5-2.5-5-2-2 4-20 2-8 6h-35v-1l10-5q14.5 4 18.5-2.5 1.87-14.87-6-20l1.5-1.5Zm17.5 12 1 6 10 5v-7l-11-4Zm-256.5 7 3.5 2.5 6 17-8.5 3.5q-5.6-5.4-3.5-18.5l2.5-4.5Zm211 5 1.5.5 1 2q-7.13 4.37-6.5 16.5l-3.5-2.5-2-5 9.5-11.5Zm-230 12 4.5 1.5q-2.06 15.56 6 21l-13.5 1.5 1.5-2.5 1.5-21.5Zm-19 6 11.5.5-3.5 4.5-7.5-2.5-.5-2.5Zm245 5 .5 11.5h-1l-5-9 5.5-2.5Zm-298 13 4.5 1.5-1.5 2.5-4 2-.5-4.5 1.5-1.5Zm47 18 11.5 2.5-2.5 3.5-9.5-3.5.5-2.5Zm53 12 11.5.5q-6.11 7.39-21.5 5.5v-1l10-5Zm60 0 10.5 5.5-4.5 1.5-4-1-2 9-4.5-2.5 2-1-4.5-5.5 2-1 4 1 1.5-4.5-.5-1.5Zm-78 6 2.5.5-4.5 11.5-14.5-.5 16.5-11.5Zm56 0 5.5.5-1 4 .5 1.5-6.5-1.5 1.5-4.5Zm36 0q12.39.61 16.5 9.5l-6.5 2.5.5-1.5-1.5-2.5-3.5-1.5 2-1-7.5-5.5Zm-85 6 5.5.5-2.5 5.5-3.5-2.5.5-3.5Zm85 0-1.5 2.5 1 9-4.5.5-2.5-4.5 4-3 1.5-3.5 2-1Zm-168 6 4.5 1.5-1.5 4.5-4.5-1.5 1.5-4.5Zm25 0 9.5 1.5-1.5 4.5-10.5-1.5.5-3.5 2-1Zm17 0 7.5.5-3 12 5.5 7.5 1.5.5 5 11-2.5-1.5-3.5 1.5-3.5 4.5-2.5-11.5 6-1-3.5-5.5-11 6h-11l3.5-4.5 1.5-2.5 13.5-5.5-3.5-6.5-1.5-.5 1.5-4.5Zm-56 6 3.5.5-3.5 7.5-5.5-4.5 5.5-3.5Zm226 6 20.5 9.5-.5 4.5-11-8-6 9-8 3 5.5-6.5 2-4-1-3-1.5-4.5Zm-445 6 3.5 1.5-.5 6.5-5.5-4.5 2.5-3.5Zm429 2 .5 14.5h-1l-2.5-4.5-2.5-1.5 1.5-4.5 2.5-.5 1.5-3.5Zm51 4 3.5 2.5-2.5 3.5-3.5-2.5 2.5-3.5Zm-10 6 5.5 1.5 2 9h-1l-6.5-10.5Zm1 17 .5 1.5-5.5 10.5-.5-10.5 5.5-1.5Zm-167 5 5.5 12.5h-1l-4.5-12.5Zm-78 24 11.5 4.5v19l2.5 2.5 8 2 31 22 12.5 1.5 1.5 10.5 21 8 29.5 29.5 2 6-17.5-16.5-41-23-13-13-24.5-6.5-2.5-8.5-13.5-7.5-7.5-13.5-4-2-7 5-7.5-17.5 2.5-.5 11 5 4.5-2.5.5-4.5Zm147 8 8.5 2.5-8.5 15.5-3.5-1.5q-3.25-13.25 3.5-16.5Zm-40 5 2.5 6.5-5.5.5-2.5-4.5 5.5-2.5Zm-17 7 5.5 2.5-2.5 3.5-3.5-2.5.5-3.5Zm43 0 4.5 1.5-1.5 4.5-4.5-2.5 1.5-3.5Zm-1 10 11.5 4.5-1.5 3.5-4.5.5-.5 1.5-5-10Zm-29 2 4.5 1.5 1.5 10.5 5-2-.5 1.5 1.5 4.5 11.5 2.5-1 4 .5 1.5q-12.22 1.22-15.5-6.5l-5.5-11.5-3.5-2.5 1.5-3.5Zm34 18 6.5 2.5-2.5 3.5-4.5-.5 1-4-.5-1.5Zm17 6 7.5 2.5-1.5 3.5-2.5 1.5-1.5 3.5-2-11Zm-28 1 3 5 2-1 .5 5.5-4.5 1.5-1-11Zm21 17 2.5.5-3.5 4.5-1.5-.5 2.5-4.5Zm-13 24 3.5 2.5-2.5 9.5-3.5-2.5 2.5-9.5Zm-329 30 2.5.5-3.5 5.5-14 6-.5-2.5 6-5 .5 1.5 4.5-3.5.5-1.5 1 4 3-5Zm-50 24 4.5.5-.5 2.5-5 2-.5-3.5 1.5-1.5Z"/><path fill="#301218" stroke="#301218" stroke-width="3" d="m1293.5 240 3.5.5-1.5 5.5-5 2-1.5-2.5 2-1 2.5-4.5Zm109 78 7.5 3.5-.5 3.5-6.5-1.5v-2l-.5-3.5Zm-165 30q19.85-3.85 28.5 3.5l-.5 2.5q-21.17 4.67-29.5-3.5l1.5-2.5Zm-20 6 2.5 5.5-2.5.5-5.5-2.5 5.5-3.5Zm64 0 10.5 5.5-2.5 1.5-6.5-2.5-1.5-4.5Zm-85 6 3.5 2.5 1 3-5 1-1.5 2.5-8 4 1-4 1.5-.5 1.5-2.5 3.5-1.5 2.5-4.5Zm74 6 7.5.5 1.5 5.5 3.5 2.5-.5 1.5-4 2-8-12Zm37 0 6.5 2.5-2.5 3.5-4.5-.5 1-4-.5-1.5Zm-137 6 5.5.5.5 5.5 2.5.5-3.5 5.5-4.5-1.5-.5-10.5Zm152 2 7.5 3.5-1 2 2 4-1.5.5-8.5-8.5 1.5-1.5Zm-17 4 8.5 1.5-2.5 3.5-11 1-.5-1.5 1.5-2.5 4-2Zm33 6 20.5 18.5 3 7-6-4-.5 1.5-3-5-2.5-.5-6.5-9.5-5.5-2.5.5-5.5Zm-13 24 1.5.5-1 4 .5 1.5-6.5-.5 3.5-4.5 2-1Zm-102 66 6.5.5-3.5 5.5-3.5-.5 1-4-.5-1.5Zm-94 18 16 6 1-3 52 29 13 13 1-2 5 8 12 6 1.5-.5 5.5 7.5 3.5 1.5-10.5.5-26-13-41-33-22.5-11.5-.5-1.5-10-7Zm109 0 4.5.5-2.5 5.5-4.5-2.5 2.5-3.5Z"/><path fill="#76617C" stroke="#76617C" stroke-width="3" d="m1316.5 252 3.5 5.5-2.5.5q-6.5-3-1-6Zm-54 96 9.5 1.5-1.5 4.5-4.5-1.5-.5-2.5-3-2Zm4 9 2 3-1.5.5 5 3 1 2-7.5 1.5-6.5-1.5 1-4-.5-1.5 6.5-.5.5-2.5Zm36 14 10 1 1.5-.5 1 6-12.5 2.5-1.5-2.5 1-4 .5-2.5Zm-13 1 6.5 2.5-2.5 3.5-5.5-.5 2-4-.5-1.5Zm-126 12 6.5 3.5-.5 2.5-6 1-7.5-1.5 7.5-5.5Zm155 16 1.5.5-3.5 7.5-2.5-6.5 4.5-1.5Zm29 2 2.5.5 2 5-2 1 1 5-2.5.5-4 1-2.5-1.5 5.5-11.5Zm-142 46 .5 5.5-3.5 2.5-2.5-6.5 1.5.5 4-2Zm9 20 3.5 1.5 1.5 2.5 3.5 1.5-5.5 1.5-4-1-1.5.5 2.5-6.5Zm19 30 13.5.5-5 3-1.5 2.5-2.5-1.5-1.5-3.5-1 4-2-5Zm32 8 1 4 1.5.5-7 5 2 1-3.5 11.5-5.5-3.5.5-3.5 4.5-2.5 1-2-2-1 7.5-9.5Zm-28 10 4.5.5-2.5 5.5-3.5-2.5 1.5-3.5Zm40 13 .5 4.5-2.5 4.5-5 2 4.5-5.5 2.5-5.5Z"/><path fill="#82A0BE" stroke="#82A0BE" stroke-width="3" d="m1421.5 252 6.5 3.5 1 2-3.5.5-4-6Zm45 12 3.5 1.5 2 4-5.5.5-2.5-3.5 2.5-2.5Zm30 12 3.5 2.5q2.58 18.08-5.5 25.5l-1-4-5.5-.5 6-17v-2l2.5-4.5Zm-15 6 3.5.5-13.5 5.5v-1l10-5Zm-60 6 1.5.5-1 3 2 1 .5 1.5 3.5-.5 1.5-5.5 4.5 1.5.5 4.5 4.5.5-8.5 4.5-13-5-7 15-.5-11.5 11.5-9.5Zm30 0 11.5.5q-6.11 7.39-21.5 5.5v-1l10-5Zm-172 1 10.5 8.5-2.5 2.5-9.5-9.5 1.5-1.5Zm112 11 3.5.5 3 7h-1l-.5-1.5-4.5-3.5-.5-2.5Zm87 6-2.5 3.5.5 2.5 5-3-5 6-12 3-.5-3.5 14.5-8.5Zm-121 6 4.5 2.5 1 3-11.5.5v-1l4.5-2.5 1.5-2.5Zm16 0 3.5.5-9.5 5.5.5-1.5.5-1.5 5-3Zm19 4 8.5 2.5 2 4-4.5 3.5-1-2-5.5-.5.5-7.5Zm-223 2 27.5.5-22.5 11.5 1.5-2.5-.5-3.5-5 2-1-8Zm42 0 6.5 1.5-1.5 4.5-7.5-.5 3-4-.5-1.5Zm80 0-.5 1.5 1.5 4.5 3.5 2.5-2.5 3.5-3.5-2.5-2-3 2-1 1.5-5.5Zm190 9 .5 6.5-8.5 2.5 8-9Zm-72 2 .5 1.5-3.5 5.5-2.5-1.5-3-4 8.5-1.5Zm-208 1 6.5 4.5 4 10q-7.89 11.61-29.5 9.5l-1-3-3-2-14 11-2-4-10.5-3.5 1.5-5.5 3.5-1.5-1-3 2-1 .5-1.5 10 2 1.5-4.5-1.5-2.5 25.5 2.5-6 10 2.5.5 14.5-8.5-5-8 1.5-1.5Zm-25.5 18-2 1-3 4v1l5-3v-3Zm71.5-12 17.5 11.5-41.5.5.5-1.5-1-4q17.17 1.67 24.5-6.5Zm222 3 .5 2.5-6.5 9.5-8 3 14-15Zm-195 9 14.5 5.5-4.5.5-10-6Zm-52 6 9.5 5.5-2 1 .5 5.5 3.5.5-7.5 5.5-2.5-8.5 1.5.5 2 1 1.5-2.5-4-2 2-1-4.5-5.5Zm70 0q12.25-3.25 15.5 2.5l1.5 7.5q32.16.84 46 20l3-5q7.25 6.75 21.5 6.5l-6 10 18.5.5 37-18-2 3-35.5 18.5-3.5 8.5-2.5-.5-.5-5.5-17.5.5-3.5 5.5-2.5-1.5-7.5-20.5-20.5-7.5-1.5-3.5-7-3-5 2-1-2-5 1-2-7-10 1-.5-2.5-6.5-8.5-3-2Zm71.5 36-2 5 5 1 1-4-4-2Zm-68.5-18 6.5 2.5-2.5 3.5-4.5-.5 1-4-.5-1.5Zm-152 6 2.5 1.5-3.5 4.5-2.5-.5 3.5-5.5Zm195 13 3 5 2.5 1.5-1.5 4.5-6.5-.5 2.5-10.5Zm-198 1-.5 1.5-5 12 14.5 8.5 14-21 2 9 4-2 .5 2.5-8.5 17.5q-12.25-3.25-15.5 2.5l-5 13 26.5 25.5 7-5 17 30 2.5-.5 1.5-3.5 4-2 1 6 2.5-.5.5-1.5.5 1.5-4 7 7.5 17.5 10.5 2.5 7.5 13.5 10.5 4.5 3.5 9.5 3.5.5-1 10 4.5 1.5 2-9q2.89 5.61 13.5 3.5-6.56 9.44-21.5 10.5l-7.5-5.5-3-7 2.5 1.5 3.5-.5-7.5-15.5q-17.17-5.83-25.5-20.5l-10.5-21.5-9-2-2 6-4.5-2.5 5-9q-15.6 1.6-21-7l-5.5-9.5-13.5-4.5-13-25 4-12-10-24 17.5-6.5Zm-310 16 3.5 1.5-1.5 4.5-4.5-.5 2.5-5.5Zm358 14 4.5 9.5-1.5.5-3-10Zm-364 4 3.5 2.5-2.5 3.5-3.5-2.5 2.5-3.5Zm370 2 1.5 3.5-1.5.5v-4Z"/><path fill="#82A0BE" stroke="#82A0BE" stroke-width="3" d="m1170.5 438 5.5 3.5-.5 2.5-5.5-1.5.5-4.5Zm30 17 4 1 1.5-.5-.5 7.5-5.5-3.5-1-3 1.5-1.5Zm-1042 19 3.5 2.5 2 3-2 1-.5 1.5-5.5-4.5 2.5-3.5Zm1075 0 5.5.5-2.5 4.5-1-4-5 10-.5-7.5 3.5-3.5Zm9 2 6 8 3.5 1.5 2 7-1.5-.5-22.5-1.5 1.5-4.5 10.5-.5.5-9.5Zm-30 3 2.5 1.5 4 7-4-1-2.5-7.5Zm16 18 4.5 1.5 3 10h-1l-8-10 1.5-1.5Zm-265 1 2.5 3.5-5.5 2.5-.5-2.5 3.5-3.5Zm285 0 2.5.5-3 5 7 1-1 3 1 2-4 1-2 8 5.5 7.5 3.5 1.5-2.5 1.5-14.5-7.5 1-5-2-1 2.5-14.5 6-3Zm23 15 1.5 3.5-1 4 6 5-1.5 2.5-2.5 1.5-1.5 3.5-2-11-4.5 1.5-1.5 7.5.5-1.5-.5-1.5-2.5-1.5-2-4 3.5-6.5 8-3Zm-339 3 3.5.5-2.5 5.5-3.5-.5 2.5-5.5Z"/><path fill="#A0ACB2" stroke="#A0ACB2" stroke-width="3" d="m1273.5 259 8.5 4.5-4 1-.5 1.5-4-7Zm190 57 1 2 4.5.5-10.5 5.5-.5-2.5 5.5-5.5Zm-266 140 2.5 1.5 2 4-2 1-.5 1.5-5.5-2.5 3.5-5.5Zm58 48 3.5.5 1 4-4.5 1.5-1.5-4.5 1.5-1.5Z"/><path fill="#BEE4FC" stroke="#BEE4FC" stroke-width="3" d="m1410.5 311 17.5 4.5.5 2.5q8.32-9.18 29-6l.5 2.5-18 5 6 9-6.5 1.5-11.5-9.5-.5-2.5-14 6q-6.17-2.68-3-13Zm-139 1 1.5.5-2 1 6.5 4.5 1-2 9.5 7.5 2 4 1.5 2.5 4.5-1.5-1.5-4.5-1.5-.5-2-4 7.5-1.5 9.5 6.5 2.5 4.5 24-11 4 5 3 1 2.5-1.5 1.5-2.5 6-2-1.5 2.5.5 3.5q8.7-10.8 33-6l7.5 21.5-7.5 20.5q-15.26-1.76-21 6h-19q-4.76-7.24-18-6l-17-12q-14.5 4-18.5-2.5l-7.5-13.5-23-2-5.5-3.5-.5-2.5-11 6-.5-2.5 6.5-6.5 23-9Zm-51 12 3.5 1.5-.5 4.5-5.5-.5 2.5-5.5Zm217 12 1.5.5 1 12-15.5 17.5-2.5-1.5q7.31-4.19 6-17l9.5-11.5Zm-43 18 9.5 1.5-9.5 10.5-1.5-.5-1-9 2.5-2.5Zm-105 12 12.5.5-.5 5.5q-9.5 2-11.5-3.5l-.5-2.5Zm-24 5-.5 1.5-8.5 11.5-2.5-8.5 11.5-4.5Zm22 7 11.5.5q-8.48 4.02-9 16l.5 1.5-6.5-2.5 3.5-15.5Zm33 0 5.5 3.5-.5 2.5-5 1-.5-2.5.5-4.5Zm0 11 5.5 1.5-6.5 8.5-4 2-1.5-7.5 6.5-4.5Zm15 13 8.5.5v8l-8.5 15.5-3.5-2.5q-2.62-15.12 3.5-21.5Zm-159 6 5 3 1.5-.5 10.5 24.5 1-2q7.56 6.44 5.5 22.5l-4 2-1.5 3.5-1-2-3 2-20.5-26.5v-15l3.5-5.5 2.5-.5.5-5.5Zm168 11 4 1 1.5-.5-2.5 6.5-3.5-2.5.5-4.5Zm-4 13 3.5 2.5-2.5 3.5-3.5-2.5 2.5-3.5Zm-145 30 4.5 3.5 1.5 2.5 4.5.5-.5 11.5-9.5-7.5-2-9 1.5-1.5Zm44 12 2.5 11.5-7.5.5 1.5-2.5 3.5-9.5Zm15 16q6.77 2.73 5.5 13.5l-7.5.5 1.5-2.5.5-11.5Zm-988 74 4.5.5-1 4 .5 1.5-6.5-2.5 2.5-3.5Zm288 12 9.5 2.5-2.5 3.5-9.5-2.5 2.5-3.5Z"/><path fill="#F3FCFC" stroke="#F3FCFC" stroke-width="3" d="m1271.5 313 6.5 2.5-.5 2.5-6-5Zm28 65 1.5.5-7.5 17.5-3.5-1.5q.61-12.39 9.5-16.5Zm18 6 2.5.5-1.5 6.5-4 2-.5-2.5 3.5-6.5Zm-1046 180 4.5 2.5-2.5 3.5-3.5-1.5 1.5-4.5Z"/></svg>