<svg viewBox="0 0 768 768" xmlns="http://www.w3.org/2000/svg"><path fill="#EFEFE1" stroke="#EFEFE1" stroke-width="3" d="m354.5 48 20.5.5-6 9 4.5 5.5 13.5 3.5 1 6-9 7 1.5 3.5q23.3 2.2 36 15l.5-4.5q-5.35-20.15-18-33l10.5-.5-1.5 2.5-1 4 2.5 5.5 1.5-.5-.5 1.5 4.5 3.5q2.13 20.38 15.5 29.5l30 4 10.5-6.5 2-6-8.5-9.5-13.5-8.5 3-2 1-3-1.5-2.5-10.5-2.5-3.5-9.5-13.5-1.5 3.5-4.5 35.5.5-3 4 5 1-3 1 2.5 3.5 11.5 7.5 1 5-2 5 3.5 4.5 14 4 27.5 15.5 1.5 3.5 26.5 15.5 3.5 5.5q19.99 8.51 32 25l1-2 26.5 34.5-1.5-.5-1.5.5 2.5 4.5 1-3 5.5 10.5-3-1 2.5 5.5 1-3 5.5 10.5h-4l-2 3 9 3 1.5 3.5 1-3 1.5 3.5-2 1q8.57 4.43 6 20l-3.5-2.5-1.5.5 12.5 37.5 1-2 4.5 2.5 11 22v11l-6 11v37l-3.5 6.5-5.5-.5.5-1.5q-13.59-2.09-16.5 6.5l-1 14 14 6 1.5 17.5 4-3 6.5 29.5-3.5-2.5-1.5.5-2 20 11.5 43.5 3.5 2.5 4 14-2 8 8.5 11.5 1-2 11.5 25.5v21q-6.36 2.14-5 12l1.5 2.5 3.5 1.5.5 1.5 4-3 .5 41.5-6 9q2.95 17.45-5.5 23.5l-.5-9.5 4-16-8.5-14.5-1.5-.5 2-17-2-1-3-6-1-3-.5-2.5-1.5-.5-3-6-1-3 .5-2.5 1.5-.5-2-1 5-2-1.5-13.5-2 3-1.5-2.5 5.5-3.5 1 3 5.5-2.5-1-5 3-8-13.5-27.5-1.5.5 1-2h-2l.5-1.5-1.5-.5 2-1-.5-2.5-1.5.5-.5 1.5-3.5-6.5 2 1 1.5 3.5.5-3.5-4.5-6.5-1.5-.5 1-2q-5.75-16.75-4-41l-7-23 2-7-1-2 2.5-3.5 2.5 1.5-3-8 2-1-3.5-5.5-3 1-5-1-1.5 5.5 4 6-2 5 2 6q-10.73 7.27-9 27l3 41-2.5 6.5-2.5.5 1.5 35.5 1.5.5 2 12-7.5 17.5-4.5-1.5-6.5-10.5-6.5-5.5-2-14 18-57v-10l-5.5-2.5-18.5 25.5v21l-12 39-2 35q-7.25 19.75-23.5 30.5-12.65.35-17.5 8.5L522.5 671q-13.77 12.73-35 18l-24-9-20-18-24.5-9.5-.5-1.5-3.5-2.5-10.5-30.5-7.5-3.5.5-1.5q11-13 38-10l36 8q8.1-4.9 4.5-21.5l-6.5-13.5-31-10-11 5-15.5-20.5 2.5-1.5 11.5 3.5.5 1.5 7-1 6 1q16.09-.41 23-10l28 17-1-3 16.5.5-2.5 3.5-2.5.5 5 2 .5 1.5 17 4 4.5-7.5-11.5-20.5-10 1-7.5-3.5-1-3-5.5-8.5-7.5-5.5-4.5-5.5-1.5-.5-.5-1.5-20-7v2l-7-1-6.5 4.5.5 1.5-4-2h-2l-3.5-2.5-2.5-3.5-8.5-1.5 9-1-8.5-4.5-2 5-1.5-.5 1-4-1-2 6.5-2.5 18 10 4.5-3.5 2-11-1-13 3.5-8.5 1.5.5 3.5 6.5 7 3 2-1 2 1v-2l1.5.5 6-14-8.5-15.5-15 4-15.5-31.5-6-60-2-88q-23.84-20.16-30-58l12-33v-11l-7.5-13.5-9.5-7.5-17-32 8-14-5-3 .5-1.5 15.5-4.5-1.5-4.5-1.5-.5.5-1.5-33-2-9.5-3.5-4-13 2-8-2.5-3.5-1.5-.5.5-1.5-11 3v-1l7.5-4.5-.5-1.5 10-5Zm.5 5v1h1l-1-1Zm-2 1v1h1l-1-1Zm139 51-3 3 3 9 9-1 1-2-1-7-9-2Zm23 4-4 3 2 10 6 2 6-2 7 3v-3l-2-1-5-7-2-2 1 3-6-1-2 5 1 3-3-8 4-3 2 1h2l-7-3Zm25 15-2 2 1 7 7 2v-1l2-1 1-3-1-3-8-3Zm-11 4-3 2 6 14 35 35 17 33 24 9 8-2 1-3-4-3-9-19-2-2-45-49-19-9-2-2-7-4Zm31 11 1 5v2l1 2 15 13 3 5 8 3 1-2-10-14-19-14Zm-48 48-4 2-3 22-5 10 3 14 10 5 3 5-2 8 3 3 7-3 13 3 3 5 15 6 7-3 8 2 10-3 14 9 4-2v-7l-9-17-32-15-15-32q-7-15-30-12Zm116 35-1 2h1v-2Zm-99 36v7l3 1 2-1 1-3-6-4Zm8 8-2 4h2v1l-4-1-49 15-5 6 1 7 13 9 3 5-4 11 5 7h10l27-10 8 2 12-1 2 4 5 2 2-1 5 1 6 10 1 3 6 8v2l-22-16-23-4h-22l-17 9-7 17 5 3 3 5 11 8 25 8 32-2 2-4-3-2 1-3 11-5 7 4 13-2 5-7q-1-19-10-29l-40-31-7-8-1-1-6-6 1-2 11-7-1-5-3-3-5 1-3 2 1-2h-1l-1-2Zm84 0-3 4 12 36-2 51 8 2 4-7 8 3h1l-1 4 1 1 4-2q-8-9-5-28l5-10-1-1-3 4-1-2h-1l-7-11 2-8-10-17-3-13-8-6Zm-45 8-4 2-4 5 1 2q8 12 30 11h2l-3-7-22-13Zm69 6-1 2h1v-2Zm1 2-1 2h1v-2Zm1 2-1 2h1v-2Zm1 2-1 2h1v-2Zm1 2-1 2h1v-2Zm1 2-1 2h1v-2Zm1 2-1 2h1v-2Zm1 2-1 2h1v-2Zm1 2-1 2h1v-2Zm1 2-1 2h1v-2Zm1 2-1 2h1v-2Zm-203 4-2 1-11 24q-4 28 6 43v50l4 11 5 2 6-3 14 6 5-6 8 2 12 12 37 21 24-1 28-20q19-16 29-42l-2-16-28-15-11 4-6 22-4 3-18-10-3 1-5 6-7 4-17-3-21-20-10-21 4-10v-3l-10 4-5 7-4 3-8-2-11-11 9-34-2-6-6-3Zm202 7-4 4 1 3 3-2v-5Zm-102 15-2 4q15 3 24 13h1l-6-9-17-8Zm85 71-1 4h4l1-2-4-2Zm-161 46-1 2 2 1-1-3Zm5 29-3 5-10 6-11-5-3 2 4 25 23 9 3 5 15 10 9-17v-9l-8-16-14-15h-5Zm174 26v5l1 2 4-1v-2l-5-4Zm-217 10-1 2 3 1-2-3Zm187 10-6 15 1 24h3l4-5-1-33-1-1Zm-157 33-6 3-4 5 3 6 9 4 19-5 7 18 8 2 3-4-5-11-25-13-1-2-8-3Zm-37 5 1 3 4-1-5-2Zm61 5v1h3l-3-1Zm183 4-2 2 2 2 2-1-1-2-1-1Zm-2 8 3 3v-1l-3-2Zm-233 35-2 2 1 2h2l2 5-3 7 12 20 21 14 3-1 8-14-9-19q-13-13-35-16Zm243 29-1 2h1v-2Z"/><path fill="#EFEFE1" stroke="#EFEFE1" stroke-width="3" d="m470.5 61 1.5.5-1.5.5v-1Zm-35 17 3.5.5-2 3 14 2-15.5.5-2.5-3.5 2.5-2.5Zm-89 8 1.5.5-4.5 3.5-.5-2.5 3.5-1.5Zm8 0 13.5 3.5-8.5.5-5-4Zm18 3 15.5.5-15.5.5v-1Zm3 7 16.5.5-17.5 2.5-.5-1.5 1.5-1.5Zm117 11 5.5.5-6 2 1.5 4.5 4.5.5-5.5.5-1.5-6.5 1.5-1.5Zm48 18 6.5 2.5-.5 3.5-2-5-4.5 1.5-.5 2.5-.5-3.5 1.5-1.5Zm-1 193q14.75-3.75 18.5 3.5l1.5 2.5 4.5-.5.5-1.5 2 3h-7q-1.25-7.25-11-6l-7 1-2-2Zm1 15 16.5 2.5-18.5.5 2-3Zm-32 3 1.5.5-.5 2.5-11.5 4.5-.5 4.5-2.5-.5 4.5-8.5 9-3Zm29 6 16.5.5-2.5 3.5-14-2-1.5.5 1.5-2.5Zm101 2 1.5.5 1 3-1.5-.5-2.5 1.5-.5 2.5-.5-2.5 2.5-4.5Zm-100 2 14.5 1.5 4 9-1 10 1 4-.5 1.5 1.5-.5.5-3.5 2.5 3.5-9.5 3.5-20-10-17.5-2.5 3.5-5.5q12.65-.35 17.5-8.5l.5-1.5 3-1Zm12.5 10-5 3-4 7 11 4 2-3-2-10-2-1Zm3.5-10 2.5 1.5-2.5.5v-2Zm28 2 .5 3.5h-1l.5-3.5Zm4 4 .5 3.5-2.5 3.5-4-5 5 1 1-3Zm-9 9 8.5 4.5-2.5.5-7.5-3.5 1.5-1.5Zm-145 3 1.5 15.5-2-1 .5-14.5Z"/><path fill="#EFEFE1" stroke="#EFEFE1" stroke-width="3" d="m568.5 364 1.5.5-9.5 3.5-1-2 9-2Zm72 21 1.5.5-1.5.5v-1Zm-202 37 .5 3.5h-1l.5-3.5Zm211 22 5.5 2.5 1 3-2.5.5-2-1-.5 1.5.5 1.5-2-8Zm1.5 3-1 2h1v-2Zm-189.5 5 1.5.5-5.5 4.5-.5-1.5 4.5-3.5Zm-11 1 4 7 1.5.5-.5 1.5-3.5-1.5-1.5-7.5Zm186 3 4.5 2.5-2.5 3.5-1.5-.5-.5-5.5Zm-162 4 .5 3.5h-1l.5-3.5Zm161 4 .5 45.5-2.5.5.5-1.5 1-17-2-16 2.5-11.5Zm-182 4 .5 1.5-3 4-.5 2.5-.5-2.5 3.5-5.5Zm4 0 2.5 1.5 2 6-2-1-2.5-6.5Zm198 0 5.5 2.5 1 3-2.5.5-2-1-.5 1.5.5 1.5-2-8Zm1.5 3-1 2h1v-2Zm-8.5 10 1.5 14.5-2-1 .5-13.5Zm13 6 .5 1.5h-1l.5-1.5Zm-211 1 .5 9.5h-1l.5-9.5Zm-27 4 8.5 3.5-1.5.5-6-2-3.5 2.5 2.5-4.5Zm11 6 2.5 1.5-1.5-.5-1-1Zm233 8 .5 1.5h-1l.5-1.5Zm-211 10 3.5 1.5-1.5 3.5-4.5-3.5 2.5-1.5Zm3 24 8.5 3.5 1 2-6.5-3.5-5 1 2-3Zm39 1 13.5 4.5-7.5.5-6.5-3.5.5-1.5Zm-88 5 10.5.5-3.5 1.5-5-1-2.5 1.5-1 3 .5 1.5-1.5-4.5 2.5-2.5Zm224 4 1.5 13.5-1.5 2.5-.5-2.5 1-10-.5-3.5Zm33 3 4.5 2.5-.5 2.5-2.5-.5-1.5-4.5Zm-59 11 2.5 1.5-1.5.5-1-2Zm23 7 .5 1.5-2 1 1.5-2.5Zm-205 1 4.5 1.5q-2.5 5-5 0l.5-1.5Zm33 3 2.5.5-2.5.5v-1Zm159 0 3 4 3 1 3.5-2.5 1.5-2.5-.5 1.5-1.5 3.5-5 1-2.5-1.5-1.5-4.5Zm-19 2 .5 14.5-6 8 2 1-5.5 17.5-2.5-.5 1-13 10.5-27.5Zm56 0 4.5 2.5-1.5 4.5-3-7Zm-6 18 8.5 4.5-4 1-.5 3.5-4-9Zm-230 5 12.5.5-12.5.5v-1Zm217 1 9.5 4.5-4 1-.5 1.5-5-7Zm24 3 4.5 6.5-1.5-.5-5.5-3.5 2-1 .5-1.5Zm-267 8-.5 1.5-2 3 .5 1.5-1.5-.5 3.5-5.5Zm261 4 3.5 1.5-1 2 2 3-4.5 3.5-2.5-7.5 2-1 .5-1.5Zm-67 3 .5 4.5-3.5 6.5-2.5-.5 5.5-10.5Zm-6 12 .5 4.5-3.5 6.5-2.5-.5 5.5-10.5Zm57 17 5 6-1.5.5-.5 1.5-2.5 1.5-.5 2.5-2.5-.5 2.5-11.5Zm-69 4 .5 1.5-3.5 6.5-1.5-.5 4.5-7.5Zm72 5 1 2 2.5 1.5q9 13 8.5 35.5l1.5-.5 4.5 7.5 1.5.5.5 1.5 3-5 7-6 .5 1.5-11.5 22.5-1-10-2 5-6.5-15.5-1-24-3.5-6.5-2.5 11.5 1 19-1 5 5 4 7.5 31.5 6.5 5.5 2.5 5.5 1-3 1.5 3.5-2 1-1 3 2.5 3.5 9.5 8.5-4.5-3.5-1.5.5 1 5-11.5.5-3.5-11.5 2-1-1-5 2-1 .5-1.5 1.5-.5-3.5-7.5-5.5-3.5-8-17 1-9-6-3 3-23h-2l-1-9 1.5-4.5 1.5.5-.5-8.5-1.5-.5.5-5.5Zm21.5 91-1 2h1v-2Zm-36.5-82 1.5 3.5-.5 2.5q-6.5-3-1-6Zm4 8 5.5 3.5 1 6-7.5 13.5-1.5-11.5 2.5-11.5Zm5.5 7-1 3h1v-3Zm-1 3-1 2h1v-2Zm-1 2-1 2h1v-2Zm-87.5-8 5.5 3.5-.5 17.5-4-6-1.5-.5-1.5-2.5-13.5 8.5-13 38-1.5 31.5-24.5-.5q-2.95-36.45 13.5-53.5l25.5-18.5 1.5-2.5 2-1h2l9.5-6.5 1-5-.5-2.5Zm1.5 9-1 5h1v-5Zm78.5-2 3.5 21.5-1 2 .5 1.5-3-2-2.5 1.5v-22l2.5-2.5Zm10 22 1.5.5 2 4-1.5.5-2-5Zm-130 3-2 3-2.5 1.5-1.5 2.5.5-1.5 3.5-4.5 2-1Zm118 2 3 2 2.5-1.5-.5 7.5-5.5-3.5.5-4.5Zm-75 8 2.5 1.5q-1.29 11.29 6 14v16l6 16-12.5.5-6.5-42.5 1.5-2.5 1.5-.5 1.5-2.5Zm-.5 5-1 3h1v-3Zm1 3-1 3h1v-3Zm1 3-1 2h1v-2Zm1 2-1 2 2 1-1-3Zm2 15-1 4h1v-4Zm1 5-1 2h1v-2Zm2 5-1 2h1v-2Zm1 2-1 2h1v-2Zm1 2-1 2h1v-2Zm53.5-42 2.5.5 3 11-2.5.5-3-12Zm30 0 2.5 5.5-3-2 .5-3.5Z"/><path fill="#EFEFE1" stroke="#EFEFE1" stroke-width="3" d="m650.5 735 1.5 2.5h-1l-.5-2.5Zm-6 5 1.5.5 1 2-2.5.5v-3Z"/><path fill="#F9F9E3" stroke="#F9F9E3" stroke-width="3" d="M375.5 48 400 59.5l3 5q10.53 12.97 14 33l-2.5.5-13-10-22.5-6.5 2.5-4.5 6.5-4.5-1.5-6.5-16.5-6.5-1-3 6.5-8.5Zm90 6q75.55 26.45 119.5 84.5l30 42 15 30v10h-1l-2.5-4.5-7-1-1.5.5 4.5-5.5 1.5.5-4.5-9.5-1 3-2.5-5.5h2l-4.5-9.5-1 3-2.5-4.5 2-1-25.5-33.5-1 2q-13.63-17.37-34.5-27.5l-3.5-5.5-24.5-13.5-3.5-5.5L478 83.5l-1-3 2-7-4.5-5.5-9.5-5.5-1-2 3-1-5-1 3.5-4.5Zm5.5 7v1h1l-1-1Z"/><path fill="#F9F9E3" stroke="#F9F9E3" stroke-width="3" d="m408.5 68 2.5 4.5-2-1-.5-3.5Zm-17 20 5.5 1.5-4.5.5-1-2Zm125 32 5.5.5-1.5 3.5-3.5-1.5-.5-2.5Zm12 8 7.5 3.5 1.5 2.5 19.5 8.5 44.5 49.5 2.5 1.5 8.5 19.5 4.5 2.5-1.5 3.5-8 2-23.5-9.5-17-33-35-35-6-14 2.5-1.5Zm11 4 6.5.5-.5 2.5-6-3Zm21 12 15.5 16.5-14-13-1.5-3.5Zm-49 43q23.73-2.73 30.5 11.5l14.5 32.5 32.5 14.5 9 17v7l-4.5 2.5-14-9-10 3-8-2-7 3-14.5-6.5-3.5-4.5-13-3-7 3-2.5-3.5 2-8-3.5-4.5-9.5-5.5-3-14 5-10 2.5-21.5 4-2Zm119 35 2.5.5 3 7-4-3-1.5-4.5Zm1 18 4 3 1.5-.5 11 35-2.5-1.5-2.5-.5-11.5-35.5Zm-95 26 1 2 1.5-.5-1.5 2.5-2.5-.5 1.5-3.5Zm39 8 22.5 12.5 3 7-2.5.5q-21.97 1.47-29.5-11.5l-1-2 3.5-4.5 4-2Zm-124 30 6.5 2.5 2 6-9 34 10.5 11.5 8 2 4.5-3.5 4.5-6.5 10-4 .5 2.5-4 10 10 21 20.5 20.5 17 3 7.5-4.5 4.5-5.5 3-1 18 10 4.5-3.5 5.5-21.5 11-4 28.5 14.5 2 16q-9.55 26.45-29.5 42.5l-28 20-24 1-37-21-12-12-8-2-5 6-14-6-6 3-4.5-2.5-4-11v-50q-9.68-14.82-6-43l10.5-23.5 2-1Zm200 15 1.5.5-4.5 9.5-1-5-2.5-.5 2.5-3.5 1 3 3-4Zm-95 5 5.5 2.5-1.5.5-4-3Zm-5 2 17.5 7.5 6 9-1.5.5q-8.13-10.37-23.5-13.5l1.5-3.5Z"/><path fill="#F9F9E3" stroke="#F9F9E3" stroke-width="3" d="m552.5 332 28 18 .5-2.5-6-8 2-1q6.67 3.33 5 15l-2.5.5-13.5-11.5-2.5-4.5-11-6Zm96 17 4.5 8.5-4.5 2.5-.5-1.5 1-4-1.5.5-1.5-.5 2-1 .5-4.5Zm-98 7 2.5.5 2 10-2.5 3.5-10.5-4.5 3.5-6.5 5-3Zm6 1 1.5.5-.5 14.5-1.5-.5 1-4-.5-10.5Zm20 3 1.5.5-2.5 4.5-5 1-.5-2.5 6.5-3.5Zm66 30 5.5 3.5q2.75 11.75-3.5 14.5l-1.5-.5-.5-17.5Zm0 24 3.5 1.5 2 4-2.5.5-3-6Zm7 18 4.5 3.5-.5 10.5-4-2-.5 4.5 2.5.5 5.5 1.5q5.17 5.83 3 19l-2.5-1.5-2.5.5.5 4.5h2l5.5 1.5 15 42v13l12 23v38l-4.5 3.5-1-2-3.5-1.5-1-8q9.32-5.68 5-25v-2L673.5 530l-1 2-8.5-16.5 2-8-6.5-11.5-3.5-2.5-9-48 2.5-13.5Zm1.5 17-1 2h1v-2Zm6 24-1 2h1v-2Zm5 14-1 2h1v-2Zm6 19-1 2h1v-2Zm-192.5-63 2.5 3.5-3-2 .5-1.5Z"/><path fill="#F9F9E3" stroke="#F9F9E3" stroke-width="3" d="M643.5 446q8.76 10.74 6.5 32.5l-2-1q2.68-20.68-6-30l1.5-1.5Zm-163 26h5l14.5 14.5 8 16v9l-9.5 17.5-14.5-10.5-3.5-4.5-22.5-9.5-4-25 2.5-1.5 11 5 10.5-6.5 2.5-4.5Zm-28 2 .5 3.5-2.5 10.5-.5-11.5 2.5-2.5Z"/><path fill="#F9F9E3" stroke="#F9F9E3" stroke-width="3" d="m472.5 478-1 2-1.5-.5 2.5-1.5Zm176 17 3.5 2.5v2l2 4-2.5.5-3-9Zm-227 5 1.5.5-1 4 1.5.5 2-5 8.5 4.5-9 1 11 4 2.5 3.5 2 1 3-1 2 3q-11 2.5-13.5-3.5l-.5-2.5q-9.5 2-11.5-3.5l1.5-6.5Z"/><path fill="#F9F9E3" stroke="#F9F9E3" stroke-width="3" d="m437.5 508 2 3-2.5-1.5.5-1.5Zm21 0 20.5 7.5-4.5.5-6.5-3.5-1.5-2.5-8-2Zm170 3 1.5.5-.5 35.5-1-36Zm32 5 1.5 3.5-2-1 .5-2.5Zm-180 1 5 6 7.5 5.5 7 10-1.5-.5-1.5-.5-6.5-9.5-10.5-9.5.5-1.5Zm144 1 1.5.5 1 33-4.5 5.5-2.5-.5-1-24 5.5-14.5Zm-156 28q14.6 1.9 21.5 11.5l1.5 3.5 1.5.5-1.5.5-6-3 1 2 15.5 7.5 5 11-3.5 4.5-7.5-2.5-7.5-17.5-19 5-8.5-4.5-3-6 3.5-4.5 12-3 3 5 8 3-1-2-15.5-8.5.5-2.5Zm-42 6 16.5.5-8.5 1.5-5-1-3 1v-2Zm4 4 5.5 1.5-4.5 1.5-1-3Zm242 2 1.5 5.5-6.5 3.5 1-4 3.5-1.5.5-3.5Zm0 15 3.5 1.5-.5 1.5-3-3Zm-12 9 3.5.5-2 1 2 4-1.5.5-2-6Zm-61 10 .5 1.5-3.5 6.5-2.5-.5 5.5-7.5Zm67 3 1.5.5 2 4-1.5.5-2-5Zm-12 5 5.5 3.5-.5 2.5-5.5-3.5.5-2.5Zm-12 6 9.5 5.5 2 4-.5 2.5-11.5-9.5.5-2.5Zm30 1 1.5.5-.5 3.5-1-4Zm-233 1q22.08 3.42 35.5 15.5l9 19-8.5 14.5-3 1-20.5-14.5-12-20 3-7-2.5-4.5-1.5-.5-1-2 1.5-1.5Zm230 10 2.5.5-.5 5.5-4.5-1.5 2.5-4.5Zm-7 12 3.5 2.5-2.5 3.5-3.5-.5 2.5-5.5Zm-20 24 5.5 3.5q9.29 12.71 6 38h-1l-2.5-22.5-.5 13.5q.25 16.75 7.5 26.5l2-5q-3.01 26.51 6.5 40.5h-1l-7.5-10.5-2.5-1.5v-11l-7.5-20.5-3.5-2.5 1-23-1-3 2.5-9.5 1.5.5-4.5-8.5-1.5-.5.5-4.5Zm6.5 14-1 2h1v-2Zm1 2-1 3h1v-3Z"/><path fill="#F9F9E3" stroke="#F9F9E3" stroke-width="3" d="m642.5 663 .5 8.5h-1l.5-8.5Zm-9 16 2.5 4.5-2.5 4.5-.5-1.5 2-5-1.5-2.5Zm-90 5 2.5.5-.5 1.5-10 7 1-4 7-5Zm99 0 .5 13.5-4.5 10.5-.5-2.5q6.12-6.88 4.5-21.5Zm-100 6 3.5 1.5.5 1.5 1.5.5q8.2 7.3 4 27l-1.5-.5-2.5 1.5-.5 1.5-1.5.5-1 15q7.96 9.54 6 29l-33.5.5-.5-25.5q7.31-11.19 7-30l10.5-17.5 8-5Zm84 18 3.5 2.5-2.5 3.5-3.5-2.5 2.5-3.5Zm5 19 8.5 6.5-4.5 10.5-4.5-1.5 4-8-3.5-7.5Zm11 13 5.5 9.5-3.5.5-2-10Zm14 10 2.5 5.5-2.5.5-2.5-3.5 2.5-2.5Zm10 0 14.5 12.5 2 5-4.5.5h-2l-4.5-.5-2-6 1.5.5 1.5-.5-7-6 .5-5.5Z"/><path fill="#EBE6DA" stroke="#EBE6DA" stroke-width="3" d="m354.5 53 1.5.5-4.5 2.5 1-2 2-1Zm-30 1 20.5.5-6.5 4.5-20 1-.5-2.5 6.5-3.5Zm99 0 5.5.5-3 4 15 3 2.5 8.5 10.5 2.5 1 3-1.5 2.5-2.5 1.5 20 15 2 6-2.5 3.5q-5.12 7.88-20 6-21.06.56-28.5-12.5l-11-25 1-2-3-1-2-4h3l4.5 6.5 9.5 4.5-2 6 3.5 5.5 2.5 1.5 1 2-2.5.5-1.5.5 4.5 9.5 3 1 5-1v1l-4.5.5 5.5.5 2.5-1.5 1-5-2-4 13-4-1.5-4.5-1.5-.5.5-1.5-13.5-1.5 2-3-.5-1.5 2.5-1.5-3.5-5.5-14.5-7.5-1-2 .5-1.5-2 1-.5-2.5 3.5-3.5ZM452 74l-1 2h3v-1l-2-1Zm-30 16-1 2h1v-2Zm33 12-2 3 5 1 1-2-4-2ZM349.5 56l-1 3 2.5 1.5 1 7-2 6 5.5 11.5 35.5 3.5-.5 1.5-18-1v2l-5.5-.5.5-1.5-13-3 1 2 3.5 1.5-13.5.5 1-2h2l2.5-.5-4.5-1.5-3.5 1.5-.5 1.5-7.5-4.5 4-3-3-7 10-8 1-2-2.5-3.5-2.5-.5 7.5-4.5Zm-2.5 4v1h1l-1-1Z"/><path fill="#EBE6DA" stroke="#EBE6DA" stroke-width="3" d="m431.5 74 .5 1.5h-1l.5-1.5Zm-6 4 8.5 1.5-1 2 1.5 2.5-9-6Zm-101 7 15.5 4.5-12.5.5-3-5Zm71 5 3.5 2.5-2.5 5.5-13.5 2.5.5 1.5 4.5 2.5-8 17 21.5 33.5 5.5 3.5q8.93 6.57 7 24-10.37 15.63-12 40 8.41 32.09 30 51l2 88 6 60 15.5 31.5 15-4 8.5 16.5-4.5 10.5-1.5-2.5 2-8v-2l-.5-3.5-1.5.5-2.5-8.5-2.5.5-.5 3.5-8.5-.5 1.5-2.5-3.5 2.5-1 4 1.5 2.5 2.5 1.5 3.5 10.5 4.5.5-.5 1.5-3.5.5 5.5.5 3-2v3l-1.5-.5-.5 1.5-3-1-3 1-5.5-3.5-2.5-5.5-3.5 2.5-.5 1.5-2.5-1.5.5-15.5 2.5 11.5-1 2 2-1 .5-7.5 1.5-.5-.5-1.5-1.5-.5-11-23 .5-1.5-2.5-1.5-3-7 1-4h-1l-.5 2.5-4.5-44.5 1-2-1.5-14.5-1.5.5v-54q-6.4-10.1-4-29-17.99-17.51-28-43l-17-17-2-25 6-17-23-63 3.5-4.5 8.5-5.5-2.5-4.5-6.5-1.5.5-2.5 7-1 1 2 17-2 4.5-4.5-.5-2.5ZM469 450v1h2l-2-1Zm-7 2v1h1l-1-1Zm-4 13-1 2h1v-2Zm0 3 4 8h2l-1-1-3-5-2-2Zm-6 3-1 2h1v-2ZM435.5 90l3.5.5-3.5.5v-1Zm-1 4 3.5 1.5-6.5.5v-1l3-1Zm-72 2 1.5.5-3.5 5.5-.5-3.5 2.5-2.5Zm129 9 9.5 1.5 1 7-1.5 2.5-9 1-2.5-9.5 2.5-2.5Zm1.5 2-2 7 7 1 1-2-1-5-5-1Zm21.5 2 10.5 4.5 5 8-2.5.5-5 1-1.5-3.5 1-4-.5-1.5 1.5-.5-5.5-2.5-3.5 2.5 3 9-1.5.5-2.5-1.5-2-10 3.5-2.5Zm9.5 5-1 5v1h1v-6Zm15.5 10 8.5 2.5 1 3-1.5 3.5-2.5-1.5 2-1-2.5-5.5-5.5 1.5 2 5-1.5.5-1.5-6.5 1.5-1.5Zm23 16 16.5 12.5 10 14h-1l-1.5-2.5-1 2-1.5.5 4 2-3.5.5-4.5-3.5-18-20 12.5 11.5 1.5-1.5-2.5-5.5-3.5-2.5.5-1.5-7.5-2.5 1-2-1.5-1.5Zm65 82 1.5 2.5-2-1 .5-1.5Zm-255 31 3.5 4.5-4-3 .5-1.5Z"/><path fill="#EBE6DA" stroke="#EBE6DA" stroke-width="3" d="m379.5 258 17.5 11.5-.5 2.5-10-4 2 4-10.5-5.5.5-2.5 7 4-1-2-4.5-2.5-.5-5.5Zm149 1 3 4 1-4 2.5 4.5-3.5 2.5-2.5-1.5-.5-5.5Zm92 7 8.5 5.5 3 13 10 17-2 8 6 13 1 3 2 23-5 3 1 2-1.5.5-4-2-4 7-7.5-2.5 2-51-12-36 2.5-3.5Zm15.5 49q-8 13-5 37l3 1 2-4v2h1l-1-3 3-1 2 1 1-2v2l4 1 1-2q3-21-6-29l-5-3Zm-3 41-1 2h2v-1l-1-1Zm-90.5-89 6.5 2.5 1 5-11 7-1 2 5.5 6.5 1.5.5 6.5 8.5 40.5 30.5q8.75 10.75 10 29l-5.5 7.5-13 2-7.5-4.5 2.5-.5 7 3 10.5-4.5 2-6q-2.51-21.49-17.5-30.5l-11.5-5.5-5.5-6.5-9-7-22-6-24.5 9.5-4 10 7.5 2.5 4-1 5 1 17-6 2 3 8 1 6-1 4 5-10-3-6 1-8-2-27 10h-10l-4.5-7.5 4-11-3.5-4.5-12.5-9.5-1-7 4.5-5.5 49-15 4 1 6-4Zm.5 3-3 3 1 2 3-1 1-2-2-2Zm-20 7-12 4h-2l-15 8 2 3 29-10 1-3-3-2Zm-128.5-3 4.5 1.5-2.5.5-2-2Zm249 2 .5 1.5h-1l.5-1.5Zm1 4 10.5 21.5h-1l-9.5-21.5Zm-313 28 8.5 3.5 2 4-.5 2.5-4-6-4-1v1l3.5 2.5-.5 1.5-13.5-2.5.5-1.5 9.5-1.5-4-1 2.5-1.5Zm323 2-.5 1.5-3.5 7.5.5-1.5-1-3 4.5-4.5Zm-340 5 15.5 2.5-14.5.5-1-3Z"/><path fill="#EBE6DA" stroke="#EBE6DA" stroke-width="3" d="m567.5 324 4.5 3.5 16 26h-1l-.5-1.5-1 3-3.5-1.5 1-5-6.5-10.5-2.5-1.5-6.5-9.5-6.5-1.5 6.5-1.5Zm-54 6 38.5 2.5-41.5 5.5v-2l-14.5 6.5-1 12 7.5 3.5 5-6 28-8h2l14 2 3-4 3.5.5-1 9 2 4-2 1-4.5-9.5-14-1-3.5 1.5-5.5 6.5-15.5 6.5 1.5 3.5h13l24 11 8.5-3.5-3-6h1l1.5 2.5 5.5-1.5-.5-1.5 2 1v-2l2.5 1.5-4 3-1 3 3 2-2.5 4.5-32 2-25-8-10.5-8.5-3.5-4.5-4.5-3.5 6.5-16.5 17-9Zm2.5 3 13 2h9l-22-2Zm-2 1v1h1l-1-1Zm-2 1v1h1l-1-1Zm43 10-1 3h3l-1-1-1-2Zm2 4-1 2h1v-2Zm-33 18-2 1-1 2 18 7 1-3-16-7Zm34.5-31 2.5 1.5-1.5-.5-1-1Z"/><path fill="#EBE6DA" stroke="#EBE6DA" stroke-width="3" d="m530.5 342 3.5.5-4.5 1.5 1-2Zm5 0 1.5.5-1.5.5v-1Zm103 1 1.5.5-1.5.5v-1Zm-307 2 2.5.5-2.5 8.5-3 1-.5-1.5 3.5-8.5Zm178 3 2.5.5-7.5 4.5-.5-1.5 5.5-3.5Zm-188 6 1.5 5.5-1.5.5-.5-4.5.5-1.5Zm315 10 9.5.5-.5 1.5 4.5.5-1.5 3.5-4 2-2.5 1.5 1.5 4.5 4.5 3.5-.5 3.5-4.5-1.5-4-11 5-4-4.5-.5-6.5 3.5-3 9 6.5 3.5 5-1 1.5 2.5-1 2 1 2-1.5.5-13.5-5.5q-2.38-15.38 6.5-19.5l2-1Zm4.5 21v1h1l-1-1Zm-208.5 0 .5 16.5h-1l.5-16.5Zm204 12 1.5.5-1 2 .5 1.5-1.5-.5.5-3.5Zm0 17 5.5 1.5 3.5 5.5 2.5 1.5-1 2 2 4h-4l-1 3 1 5-2.5 10.5-1-3-.5 2.5 7 15h-1l-4.5-9.5-1.5.5-2.5-4.5-2.5 1.5 2 6-2 1 2 6-1.5 2.5-1.5-.5-2 20 2 21-4.5 10.5-.5-4.5 3-18-3-40 9-20-2-3 2-5-4-9 1.5-2.5Zm3.5 1-3 2 3 3h2l-2-5Zm5 9 1 2h1l-2-2Zm-26.5 52 5.5 2.5v10l-10 25-8 42 7.5 9.5 3.5 2.5 5.5 9.5 4.5-1.5 6-21-3-10 2 1 .5 1.5 1.5.5-.5 1.5 1.5.5-1 3 1 10-1 3 .5 1.5-1.5.5.5 1.5-1.5.5.5 1.5-1.5.5-1 2 .5 1.5-1.5.5.5 1.5-1.5-.5-1.5 2.5-3 1-3.5-2.5-.5-1.5-1.5.5.5-1.5-1.5-.5.5-1.5-1.5-.5.5-1.5-5.5-4.5-1.5-2.5q-8.75-1.75-10.5 3.5l-1 4h2l-13 43 1.5 3.5 1.5.5-1.5 3.5-1-3-5.5 10.5 2 1-1.5 3.5-1-3-5.5 10.5 2 1-1.5 3.5-1-4-3 6-4.5-.5 1-2-2.5 1.5-9 3-23.5 19.5-4.5 6.5q-14.17 13.83-37 19l-34-13-20-14-18-6-8.5-8.5q-10.4-11.1-10.5-32.5l-11.5-2.5 2-1 1-3 1.5-3.5 20.5-9.5-.5-1.5 17 1 3-1 8 1 5-1 1 2-5-1v1l25 5 3.5-2.5 1-12-6.5-15.5h-2l-4.5-.5 2-1-2.5-.5-3 1-14-6-11 4-5-2-10.5-8.5-8-11 2.5-4.5 6-1 17.5 3.5-11.5 1.5-8-3-2.5 1.5 15.5 20.5 18-5 24.5 10.5q8.53 8.97 6 29l-4.5 5.5-28-7-26-1-20.5 10.5 1.5 2.5 8.5 4.5q.49 20.01 10.5 30.5l1.5.5.5 1.5 24 9 26 21 23 6 34.5-22.5 23.5-36.5q21.45-2.55 28.5-19.5l9-22v-27l12-39v-21l18.5-25.5ZM597 573l-1 2h1v-2Zm-1 3-1 5h1v-5Zm-10 41-1 2h1v-2Zm-1 2-1 2h1v-2Zm-1 2-1 2h1v-2Zm-1 2-1 2h1v-2Zm-2 4-1 2h1v-2Zm-1 2-1 2h1v-2Zm-1 2-1 2h1v-2Zm-1 2-1 2h1v-2Zm-2 4-1 2h1v-2Zm-5 5-1 2 2-1-1-1Zm77.5-163 1.5.5 2 17-2-1-1.5-16.5Zm-197 8 1.5 10.5-4.5 7.5-6 1-18-10-5 9-.5-4.5 1.5-3.5 7-3 6.5 3.5.5 1.5 13 3 2-4 1.5-.5.5-10.5Zm197 12 3 9 1-4 1 2 2.5 1.5 4 11-1.5.5.5-1.5-.5-1.5-1.5.5 1-2h-2l1-2-2.5-1.5-1 3-2-4-3.5-.5.5-10.5Zm7 3 1.5.5-.5 2.5-1.5-.5.5-2.5Zm-204 7 8.5 2.5-18.5 5.5v-1l4.5-.5-1-2 6.5-4.5Zm17 4 5.5 2.5-3.5.5-2.5-1.5.5-1.5Zm-8 4 1.5 2.5-2.5 1.5.5-1.5.5-2.5Zm-5 1 2 3-2.5-1.5.5-1.5Z"/><path fill="#EBE6DA" stroke="#EBE6DA" stroke-width="3" d="m480.5 519 8 9-8.5-6.5.5-2.5Zm179 1 2.5 1.5q11.68 11.82 14 33l-2.5 3.5-3 1v-1l1.5-.5-2-4 2-7-2-4 .5-1.5-1.5-.5v-2l-1.5-3.5-1.5-.5.5-1.5-1.5-.5v-2l-3.5-7.5-1.5-.5.5-1.5-1-1Zm-167 11 5 7 1.5.5 1.5 2.5 6 2 10-1q9.39 7.61 11.5 22.5l-4.5 5.5q-12.56 1.56-17.5-4.5l-1.5-2.5-3.5-.5 3.5-1.5 11 4 6.5-4.5-7.5-13.5-18.5-7.5-3.5-8.5Zm-36 9 2.5.5-.5 1.5 9.5 5.5-1.5.5-7-4q-3.14 9.36-16 9l-5.5-1.5 9-3-.5-3.5 8-4v2l2.5-1.5-.5-1.5Zm-3.5 3-2 3 3-2-1-1Zm-4 3-1 2 2-1-1-1Zm-287.5 6 5.5 1.5 1 2-6.5 2.5.5-1.5-.5-4.5Z"/><path fill="#EBE6DA" stroke="#EBE6DA" stroke-width="3" d="m666.5 552 2.5.5-2.5.5v-1Zm-173 9 1.5.5-1.5.5v-1Zm175 1 1.5.5-1.5.5v-1Zm-3 2 2.5.5-2 7 1 8-3.5 1.5v-2l-1.5.5-.5 2.5-1.5.5-.5 2.5-1.5-.5 2.5-6.5 3.5-1.5-2-8h2l2-3-.5-1.5Zm-23 6 5.5.5-.5 5.5-5.5-2.5.5-3.5Zm-213 5 1.5.5-1.5.5v-1Zm5 0 3.5.5-3.5.5v-1Zm225 11 3.5 2.5 3.5 10.5 2.5 1.5 4 16-3.5 1.5-.5-1.5 2-3-1-3-8-18 .5-1.5-1.5-.5.5-1.5-2.5-1.5.5-1.5Zm10 38 7.5 4.5 4.5 10.5 2-3-.5 1.5-5.5 20.5q3.6-25.67-8-34Zm20 9 .5 2.5-5.5 10.5-.5-4.5 5.5-8.5Zm-49 23 1.5.5-1 6 1 3-2 3 2 1-2 12 2 5h-2l2 11-3 2 1 2-3.5 5.5-.5-2.5 4-13-2.5-1.5-7 15-4-20-2.5 1.5.5-17.5 3.5 2.5 1-3-1.5-2.5 9 4 2.5-1.5 1.5-12.5ZM627 672l-1 3h1v-3Zm4 2-3 12 2 11 7-13-1-6-5-4Zm-4 8-1 2h1v-2Zm12 3v1h1l-1-1Zm2 11-1 2h1v-2Zm42.5-39 .5 2.5-3.5 6.5-2.5-.5 5.5-8.5Zm-138 23 1.5.5-1.5 3.5-6 4 .5-1.5 5.5-6.5Zm2 7 .5 4.5h-1l.5-4.5Zm-12 2v3L504 715.5q-15.35 17.15-12.5 52.5l-38.5-.5q5.65-20.85 21.5-31.5l26.5-19.5-.5-1.5 1.5.5 1.5-2.5 2.5-1.5-.5-1.5 1.5.5.5-1.5 1.5.5 1.5-2.5 9-6 3.5-1.5 1.5-2.5 1.5-.5 4.5-5.5 5-2Zm119 1 1.5.5 3.5 8.5 3.5.5-1.5 5.5-1-2-4.5-3.5-1.5-9.5Zm-46 12 3.5 2.5 2 15-2 1-.5 3.5q-7.05-5.45-5.5-19.5l2.5-2.5Zm21 5 .5 1.5h-1l.5-1.5Zm10 0 4.5 2.5v2l.5 1.5 1.5-.5-1 8 12.5 20.5 1.5-.5 5 10-2-1-.5-1.5-2 1-2-1-3.5 5.5q8 2 6 14l-4.5.5-.5-1.5 1-3-7.5-12.5-2.5-.5 2-1-1.5-5.5-1.5-.5 2.5-1.5 5 7 3.5-1.5-2-6 .5-1.5-2.5-1.5-.5-2.5-1.5.5.5-1.5-1.5-.5.5-1.5-1.5-.5.5-1.5-1.5-.5.5-1.5-1.5-.5.5-1.5-1.5-.5-3-7 2-1-2.5-6.5-1.5-.5-2-3 1.5-1.5Z"/><path fill="#EBE6DA" stroke="#EBE6DA" stroke-width="3" d="m489.5 720 3.5.5-6.5 5.5-.5-2.5 3.5-3.5Zm59 5 4.5 10.5-2-1-2.5-9.5Zm96 14 1.5.5-1.5.5v-1Zm-91 9 .5 3.5h-1l.5-3.5Zm1 5 .5 1.5h-1l.5-1.5Zm2 5 2.5 5.5h-1l-1.5-5.5Z"/><path fill="#E1DCD4" stroke="#E1DCD4" stroke-width="3" d="m420.5 54 1.5.5-2 5h2l-1 3 18 10-2.5 5.5-1.5-.5 1-4-3.5-1.5-1.5 3.5 2 3-1.5-.5-4.5-2.5-.5-1.5-14.5-6.5-.5-2.5-3 1-.5-2.5 2.5-4.5 10-5Zm-3.5 7v1h1l-1-1Zm-2 1v1h1l-1-1Zm-2 1v1h1l-1-1Zm-96.5-5 1.5.5.5 1.5 4 1 4-2v1l-1.5.5 19 4-3.5 4.5-6.5 3.5.5 5.5 1.5.5-.5 3.5q-13.5 6-36 3l-2.5-1.5-4-6 2.5-.5 12 1 3.5-2.5 2-6-1-2 .5-1.5-12 5-.5-1.5 2.5-4.5 14-7Zm.5 5v1h1l-1-1Zm-3 2v1h1l-1-1Zm32.5-5 1.5.5-1.5.5v-1Zm64 9 1.5 2.5h-1l-.5-2.5Zm-119 3 1.5.5-2.5 1.5 1-2Zm160 2 2.5.5-.5 1.5-2.5-.5.5-1.5Zm-23 9 5.5.5-2 1 .5 5.5 6 1-2.5-5.5.5-1.5 9.5.5-1 3 1.5 2.5 2.5-3.5-1-2 4 3-1.5 3.5-10.5 2.5 2 6-1.5 3.5-7 1-4.5-3.5-1-5 3-4-4-7 1.5-1.5Zm6.5 11-3 1-1 3 2 5h5l1-3-1-4-3-2Zm-105.5-9 16.5 5.5-4.5 2.5-4-6-8-2Z"/><path fill="#E1DCD4" stroke="#E1DCD4" stroke-width="3" d="m300.5 86 11 1 12-1 2.5 3.5-22.5.5-3-4Zm47 1 3.5.5-3.5 1.5v-2Zm16 3 9 2 18-1 1.5 3.5-23.5 1.5-4.5 3.5 1.5 3.5 6.5 1.5-1.5 3.5-7.5 4.5-2 6 23 63q-9 12-6 36l21 24q9 24 26 40-1.67 19.17 5 30v45l6 69 15 27-2 1-15-26-3-28h1l.5 2.5.5-16.5q-6.92-32.58-6-73l-9-25-9.5-9.5-6-2-5 1v-1l1.5-.5-2.5-.5-1.5.5.5-1.5-3 1-3.5-2.5-3.5-4.5-8.5-4.5-1-3 .5-1.5-1.5-.5-2-4-.5-1.5-2 1-6.5-3.5 2.5-4.5 3.5-2.5 1-3-10.5-16.5-6.5-2.5-4-17 5-19-4-9 3-10-9-5 1-8-5.5-1.5-2 1-9.5-8.5-4-14 1.5-2.5 2.5 1.5 4.5 10.5 5 2 1.5-5.5-2-12 3.5-5.5 17.5-11.5 1-2-3-4 3-2 .5 2.5 3.5-5.5v-2l1-2-1.5-2.5ZM378 254l2 10 17 8 3-1-1-2-21-15Zm43.5-164 .5 1.5h-1l.5-1.5Z"/><path fill="#E1DCD4" stroke="#E1DCD4" stroke-width="3" d="m346.5 96 12.5.5-6.5 2.5-6-3Zm151 12 1.5 4.5-2 1 1-4-.5-1.5Zm26 7 .5 4.5-1.5.5.5-1.5.5-3.5Zm7 6 1.5 2.5h-3l1.5-2.5Zm29 18 4.5 2.5-1 2 1 2-3-2-1.5-4.5Zm27 25 1.5 3.5-2.5.5-1-2 1.5-.5.5-1.5Zm-250 82 3.5 1.5 2 4-2.5.5-3-6Zm30 8 6.5 3.5-1.5.5-5-4Zm163 4 2.5 1.5-.5 3.5-2-5Zm-25 26 5.5.5-.5 1.5-11 3-.5-1.5 6.5-3.5Zm28 18q23.55 2.45 35.5 16.5l-1.5 5.5-4-8-4.5.5-.5 4.5-6-5-6 2 2-3 1.5-.5 1-2-9.5-2.5-1.5 3.5 1.5 4.5-7-4-14 7-13.5-2.5 5.5-9.5q14.02.02 21-7Zm-5.5 7-8 4 2 5 7-1 2-6-3-2Zm-214.5-3 20.5 1.5-2.5.5-18-2Z"/><path fill="#E1DCD4" stroke="#E1DCD4" stroke-width="3" d="M315.5 309q17.1-2.1 24.5 5.5l1.5 3.5 1.5.5-.5 1.5-3.5.5 5.5.5.5-2.5-5-7 1.5.5 3.5.5 3 11-6.5.5-5.5-3.5 2-1-23.5-4.5v2l-7.5-2.5 2.5-3.5 6-2Zm4.5 2-3 2 18 4h4q-4-9-19-6Zm317.5 7 2.5 1.5q7 6 6 20l-1.5 4.5-8-1-3 2-1.5-10.5 5.5-16.5Z"/><path fill="#E1DCD4" stroke="#E1DCD4" stroke-width="3" d="m646.5 324 1.5.5-.5 2.5-1-3Zm-72 1 10.5 5.5q9.98 9.52 11 28l-1.5 2.5-7 4-.5-1.5 1-3-3-1 1.5-2.5 3.5-2.5-14-20-1.5-9.5Zm6.5 9 1 5 3 2-2-5-2-2Zm-258.5-4 17.5.5-4 3 6 25-18.5 3.5-.5-2.5-1.5-5.5-1 2-.5-1.5 2-6-2-7 3.5-6.5 11.5-.5-11-1-1.5-3.5Zm8.5 9-5 15v3l8-2 2-13-5-3Zm184.5-6 22.5 1.5-9.5.5-13-1-5 3 1-2 4-2Zm40 3 6.5 2.5-3.5.5-3-3Z"/><path fill="#E1DCD4" stroke="#E1DCD4" stroke-width="3" d="m339.5 337 2.5 12.5 6 9-4-3-4.5-18.5Zm174 5 12.5.5-15 4 1.5.5 16-4 2 1 4-2 1 2-20 3-16 9-4.5-7.5 1.5-.5 2 4 2 1 3-1 3-1 5.5-2.5-2.5-1.5-3 1v-1l7-5Zm45 6 2.5.5 1 4h-2l-.5 5.5-1.5-6.5 1-2-.5-1.5Zm-132 1 2.5 15.5h-1l-1.5-15.5Zm221 1 .5 3.5-2.5.5-1.5-2.5 3.5-1.5Zm-15 6 1.5.5-.5 1.5-1.5-.5.5-1.5Zm-62 4 2.5 1.5h-2l-.5 1.5-1.5-.5-.5 1.5-2-1v2l-2.5-1.5 6.5-3.5Zm10 2 3.5 1.5-1.5.5-2-2Zm-17 3 1.5.5-1.5.5v-1Zm-233 2 8.5 2.5 2 11q-9.57 13.43-6 40l1 5-6 4-9.5 23.5-13 2-2.5-1.5.5-2.5 2.5-1.5 1-4-6-5-19-32 16.5-20.5 30-21Zm312 1 1.5.5-5 4 4 10-2.5-1.5-6 1-1.5-6.5 2.5-5.5 7-2Zm-378 17 16.5 1.5-1.5 2.5-14.5 3.5-2.5 6.5-2.5-9.5 4.5-4.5Zm374 12 2.5 1.5-1.5 2.5-2.5-1.5 1.5-2.5Zm6 27 2.5 1.5-1.5.5-1-2Zm-3 20 .5 4.5h-1l-1-3 1.5-1.5Zm-3 5 2.5 1.5q9.84 14.16 7 41h-1l-4.5-28.5-5 7-1.5-.5 5-11-4-8 1.5-1.5Zm-170 1 2.5.5-2.5.5v-1Zm0 2 3.5 2.5 1 6-4.5 12.5-.5-18.5 2-1-1.5-1.5Zm3.5 4-1 2h1v-2Zm-13.5 0-.5 1.5-.5 3.5-.5-3.5 1.5-1.5Zm-5 6 .5 5.5h-1l.5-5.5Zm4 3 .5 1.5h-1l.5-1.5Z"/><path fill="#E1DCD4" stroke="#E1DCD4" stroke-width="3" d="m473.5 465 .5 6.5-1 2 1 3-2.5 1.5v-2l-7 1-2.5-1.5 1.5-.5 5 1 5-11Zm-24 5 .5 1.5-1 2 1 3h-1l-.5-1.5-.5 2.5 1 21-6.5 3.5-18.5-10.5 3.5-.5 16 9 2.5-1.5 2-19h-1l-2.5 5.5-.5-4.5 5.5-10.5Zm18 8 2.5.5-3.5 1.5 1-2Zm169 9 1.5 20.5q-8.1 8.9-6 28 7.52 10.98 6 31l-9.5 16.5-6 1-4.5-2.5-5.5-10.5-8-3-7.5 5.5-.5 1.5-.5-1.5 6.5-9.5 11.5 5.5 6.5 10.5 5 1 2.5-1.5q10.26-7.74 8-28-9-10.5-5-34l3.5-7.5 1.5-.5.5-22.5Zm-214 5-.5 1.5-3 11 .5 1.5-1.5-7.5 1-2-.5-1.5 2.5-.5 1.5-2.5Zm233 6 4.5 3.5-.5 2.5-2.5-.5-1.5-5.5Zm-4 7 .5 2.5h-1l.5-2.5Zm1 4 3.5 4.5v2l.5 1.5 1.5.5-1 2h2l11 22 1 10-1.5 2.5-2.5-3.5 2-7-4.5-9.5-1.5-.5 1-2h-2l1-2h-2l1-2h-2l1-2h-2l.5-1.5-1.5-.5 1-2h-2l-4-7 2-1-2.5-4.5Zm-191 3 19.5 10.5 1.5 2.5 10.5 8.5 5.5 9.5 17.5 6.5 4 11-7.5 3.5-8.5-3.5 11-1 1-3-4.5-6.5-17.5-9.5-6.5-9.5-7-2-7 5-24-9-10.5-8.5 1.5-.5 11.5 1.5 2.5 5.5 9.5-1.5-4-8 1.5-1.5Zm-44 28 4.5.5-8.5 3.5v-1l4-3Zm38 0v3q-7.78 8.72-24 9v-1l2.5-.5-14-3 2.5-1.5 5 2v-1l-1.5-.5 19.5-1.5-1 2-3.5 1.5 2.5.5 11.5-7.5.5-1.5Zm-25.5 8v1h2l-2-1Zm6 1v1h3l-3-1Z"/><path fill="#E1DCD4" stroke="#E1DCD4" stroke-width="3" d="m666.5 540 .5 7.5-1.5 8.5-4.5-9.5 5-2 .5-4.5Zm-257 5 4.5.5-6 3-1 5 12.5 15.5 6.5 4.5-.5 1.5-13.5-10.5-.5-1.5-1.5-.5-.5-1.5-1.5-.5-3-11 4.5-4.5Zm-250 7 2.5 3.5-5.5 4.5-.5-4.5 1.5-2.5 2-1Zm187 0 7.5 3.5-.5 4.5-7-8Zm317 12 1.5.5-3 2-1 5 1 4q-2.75 6.25-5.5 1.5l-1.5-.5 3-6-1-2 6.5-4.5Zm11 1 1.5 2.5-2.5.5-.5-1.5 1.5-1.5Zm-32 4 4.5.5-5 1-.5 1.5-.5-1.5 1.5-1.5Zm-203 3 23.5 6.5.5 1.5 4.5 2.5 4 16-3.5 6.5-43-6q-23.51 3.99-37.5 17.5l-1 2 14 5 1 14 16.5 25.5 18 6 30 19 31 9q21.75-8.25 36.5-23.5l5.5-6.5 28.5-20.5 2.5-4.5 4.5-3.5 1.5-2.5-.5 1.5-8 11 1.5-.5 2.5.5-1.5 3.5-4.5 2.5-2 5 2 1q-11.5 5.5-14.5 19.5l-6-3-5 8h-2l-2 1 1.5-2.5-.5-1.5-4.5 1.5 2 3-1.5 3.5-71.5 55.5-11.5 22.5-15.5-.5 10.5-14.5 37.5-25.5-1.5-.5-7 3 1-2 9-4-1 3 9.5-6.5 11.5-13.5 3.5-2.5-.5-2.5-21-1-27-7-23-15-13-3-10.5-9.5-23.5-41.5-8.5-3.5 2.5-4.5 16.5-10.5-2-1 11.5-5.5 3 1 2.5-.5.5-1.5 21-1 7.5 1.5-.5 1.5 17 1 6.5-4.5 1-4-5.5-12.5-17-4v1l13.5 4.5-1.5-.5h-8l-15-7v2l-4.5-2.5 9.5-2.5Zm2.5 4v1h1l-1-1Zm-33 25v1h1l-1-1Zm-2 1v1h1l-1-1Zm-2 1v1h1l-1-1Zm-2 1v1h1l-1-1Zm-2 1v1h1l-1-1Zm167 44-1 2h1v-2Zm-2 3-1 2h1v-2Zm-1 2-2 3 2-1v-2Zm-3 3-13 14 1 1 13-14-1-1Zm-13 15-1 3h1v-3Zm-1 3-1 2h1v-2Zm-26 18-1 2 2-1-1-1Zm73.5-117 .5 4.5h-1l.5-4.5Zm60 3 14.5 35.5-2.5 6.5-2-10-2 1-1-2 2 1 .5-1.5-8-11 1.5.5 1.5-.5 1-3-5.5-16.5Zm7 0 1.5.5-2 1 .5-1.5Z"/><path fill="#E1DCD4" stroke="#E1DCD4" stroke-width="3" d="m661.5 613 3.5 2.5h-3l-.5-2.5Zm-75 3-.5 1.5-4.5 8.5.5-1.5 4.5-8.5Zm82 8q8.5 8 8.5 24.5l-1 12h2l-1 2 1.5 3.5 1.5.5-8 26-5.5 5.5-1.5.5-.5 1.5-1-3-5.5-2.5-3-10 1.5-.5 3 5 7-4 1 4 8.5-24.5-2-1-1-6 2-17-4.5-8.5-5 4 .5-1.5.5-3.5 2.5-1.5-.5-5.5Zm-1.5 71-1 2h1v-2Zm-86.5-68 .5 1.5-3.5 6.5-.5-1.5 3.5-6.5Z"/><path fill="#E1DCD4" stroke="#E1DCD4" stroke-width="3" d="m672.5 640 1.5 9.5-1.5 2.5v-12Zm-35 20 1.5.5-2.5 7.5-7-2-2.5-.5 1.5-2.5 7.5-.5 1.5-2.5Zm-11 1-.5 1.5-1.5 4.5-.5-3.5 2.5-2.5Zm45 3 .5 1.5-1.5.5 1-2Zm-30 2 .5 2.5-1.5.5.5-1.5.5-1.5Zm-15 6 .5 2.5h-1l.5-2.5Zm0 10 .5 1.5h-1l.5-1.5Zm12 3 3.5 2.5-1.5 10.5-.5-1.5 1-8-1.5-2.5-2 1 1-2Zm-2 10 .5 7.5-1 5q7.71 3.29 6 16h-1l-3.5-9.5-4-1-3 5-.5-3.5q-.33-13.33 6.5-19.5Zm7 15 2.5.5-1.5 2.5-1-3Zm0 15 11.5 21.5-3.5.5-4-5-1.5-.5-.5-2.5-1.5.5-.5 1.5-1-2-1.5 5.5 2.5 5.5 7.5 3.5 5 10-1.5 4.5-2.5-.5-4.5-14.5-6.5-4.5-2.5-4.5-2.5-.5.5-2.5 3.5-1.5.5-4.5 1.5.5.5 2.5 4.5-.5-3.5-12.5Zm-25 3 4.5 8.5-1.5-.5-5.5-3.5 2-1 .5-3.5Zm-159 10 1.5.5-7.5 6.5-1-2 7-5Zm198 10 1.5.5-.5 1.5-2.5-.5 1.5-1.5Zm-24 14 2.5.5-.5 5.5-4.5-.5 2.5-5.5Z"/><path fill="#DED8CD" stroke="#DED8CD" stroke-width="3" d="m418.5 60-1 2-5 2v-1l6-3Zm-100 2-1 2-5.5 3.5 1 5-3.5 4.5-13 1-3-1 .5 1.5 3.5 5.5 26.5 1.5-19.5 1.5-9-1-4.5 2.5-1.5 8.5-4.5-2.5-.5-1.5-4.5-3.5-2-7 2.5-3.5-2 1 6-9q5.17-6.33 18-5l-2.5 3.5.5 1.5 6.5-2.5 1.5-2.5 10-4ZM292 72v1h1l-1-1Zm-10 6v1h1l-1-1Z"/><path fill="#DED8CD" stroke="#DED8CD" stroke-width="3" d="m296.5 87 6.5 2.5-9 2 1.5 4.5 40.5-1.5-1-4 1.5-.5h2l1.5.5 1.5 2.5 6-3-1.5 2.5.5 4.5 8 2 6.5-4.5-1-3 1.5-.5 2.5 3.5-7 7 2 2 1 2-4.5 5.5-14.5 8.5-3 14 2 7-3.5 1.5-3.5-2.5-5.5-11.5-1.5.5-1 6 11.5 17.5 3 1 5-1 1.5 5.5-1 4 9 5-3 11 4 15-5 12 5.5 18.5 7.5 3.5 8 15-3.5 4.5-3.5 2.5 2.5 4.5 8.5 4.5 3 8h-1l-1.5-3.5-1.5.5-1.5-3.5-23-7-1.5 4.5.5 1.5-8.5-5.5 2-1-.5-1.5 4 2 8-2 7 3v-1l-17-7-3 2q-8.56-10.44-31.5-6.5l38-2-11-28v-19l5-16-16.5-26.5-14.5-11.5-1-3 16.5-18.5 13.5-8.5 1-3-2-5 2-6-1.5-2.5-.5 2.5 1 2q-2.75 9.25-17.5 6.5l-25-3-4.5-3.5 2.5-7.5 2-1ZM362 253v1h3l-3-1Zm5 1 5 4h1l-6-4Zm8.5-164h18l2.5 2.5q-3 6.5-15.5 3.5v-1l11.5-.5-1.5-3.5-15-1Z"/><path fill="#DED8CD" stroke="#DED8CD" stroke-width="3" d="m347.5 93 1.5 2.5-2-1 .5-1.5Zm85 3-.5 1.5-.5 1.5-.5-1.5 1.5-1.5Zm-144 2 9 4 5-2 11.5 1.5-13.5 6.5-10.5-5.5-1.5-4.5Zm10.5 4v1h1l-1-1Zm3 1v1h5l-5-1Zm136.5-5 .5 1.5h-1l.5-1.5Zm126 46 5.5 2.5 2.5 3.5 3.5 2.5-.5 3.5-11.5-9.5.5-2.5Zm-264 97 12 3 17-1 6.5 3.5-.5 1.5-30-2-5.5-3.5.5-1.5Zm242 29 2.5 1.5-1.5 2.5-3 1-.5-2.5 2.5-2.5Zm-156 1 15 6 4-1 12.5 11.5 9 25 5 86-1 9 3 20 16 29h-1l-4.5-10.5-1 2-7-10-4.5-3.5.5-1.5 3 2-2.5-3.5-3-7-.5-48.5-2.5-1.5-1-13h1l1.5 12.5.5-11.5-9-57-12.5-21.5-19.5-9.5-1.5-3.5ZM437 435l1 2v-1l-1-1Zm4 4-1 2h1v-2Zm2 3-1 2h1v-2Z"/><path fill="#DED8CD" stroke="#DED8CD" stroke-width="3" d="m384.5 274 7 8-7.5-3.5.5-4.5Zm-75 32 20.5 2.5-21 3-2 3 13 4q-13.5-2-17.5 5.5h-13l-.5-1.5 5.5-7.5 8-4-2 3-7.5 4.5.5 1.5 12.5-.5-11-1 10-7 4.5-5.5Zm217 3 3.5 1.5-2.5 6.5-4 1h-2l-2.5-1.5 2.5-6.5 5-1Zm-.5 3-3 4 1 1 3-1 1-3-2-1Zm14.5-2 9.5 2.5-1.5 2.5-2 1-6-4-1 2-.5-2.5 1.5-1.5Zm-198 5 2.5 5.5-5.5.5v-1l3.5-.5-.5-4.5Zm216 1 6.5 2.5-.5 2.5-1-2-5.5-1.5.5-1.5Zm-225 3 4.5.5-2 1 5 3-15.5.5v-1l8-4Zm87 3 2.5 11.5-2-1-.5-10.5Zm-111 8q11.5-3 14.5 2.5l.5 1.5 10.5.5-12 1-3 10 2 5-3 7 8.5 4.5 14.5-3.5-5-23 .5-1.5-1.5-.5 4.5-2.5 1.5 9.5h-1l-1.5-3.5-.5 2.5 8.5 19.5 2.5 1.5 4 18-6 15-2 47-15.5 16.5q-5.56 6.44-19 5L289 450.5l-28-38-14-26 3.5-6.5 51-2 15.5-8.5 1-8-3.5-7.5-15.5-4.5.5-1.5 4 1 5.5-4.5 2-9-1.5-.5-4 10 .5-1.5q-2.5-11 3.5-13.5Zm2.5 4v1h10l-10-1Zm19 33-30 21-17 21 19 32 6 5-1 4-2 1-1 3 3 1 13-2 9-23 6-4-1-5q-4-27 6-40l-2-11-8-3Zm-66 18-5 5 3 9 2-6 15-4 1-2-16-2Zm315.5-51 2.5 1.5 2 5-3-2-1.5-4.5Zm-4 1 9.5 12.5-7-6-2.5-6.5Zm-49 1 8 1 5-1-.5 1.5 1 4-2.5.5-5-1-25 8 1-2 20.5-6.5-.5-2.5-2-2Zm27 0h2l1.5.5-2 1 7 2-.5 1.5 2-1 1 2h-2l-5 1-1-3-3.5-2.5.5-1.5Z"/><path fill="#DED8CD" stroke="#DED8CD" stroke-width="3" d="m296.5 342 3.5 2.5-.5 1.5-1.5.5 1.5 6.5 2.5.5-7.5.5-.5-9.5 2.5-2.5Zm201 6h2l7.5 1.5-1.5-.5-1.5.5-.5 2.5-3 1-2.5-1.5-.5-3.5Zm2.5 1 1 2h3l-4-2Zm58.5 1 2.5 3.5h-1l-1.5-3.5Zm1 8 .5 1.5h-1l.5-1.5Zm23 0 2.5 1.5-1.5 2.5-4.5-1.5 3-1 .5-1.5Zm-10 2 1.5.5-2.5 1.5 1-2Zm-7 2 2.5 1.5-3.5 1.5v-1l1.5-.5-.5-1.5Zm20 2 1.5.5-1.5.5v-1Zm55 3 1.5.5-.5 1.5-3.5-.5 2.5-1.5Zm-9 13 1.5.5-.5 1.5-1-2Zm13 4 3.5 2.5-.5 5.5-5.5-4.5 2.5-3.5Zm-216 19 .5 21.5-3-2 2.5-19.5Zm210 13 3.5 1.5-.5 2.5-4.5-2.5 1.5-1.5Zm4 36q8.59 8.41 5.5 28.5h-1q2.82-19.32-6-27l1.5-1.5Zm-174 1 2.5 1.5-1.5-.5-1-1Zm-8 3 1.5.5-.5 9.5-2-4-2.5-.5 2-1-1-3 2.5-1.5Zm11 0 .5 1.5h-1l.5-1.5Zm1 5 1.5 3.5-5.5 11.5-.5-1.5 1.5-3.5 1.5.5-1-2 2-1 .5-7.5Zm170 2 4.5 28.5-2-1-3.5-19.5-4 3-.5-1.5 5.5-9.5Zm-193 9 .5 1.5h-1l.5-1.5Zm-1 3 1.5 22.5h-1l-.5-22.5Z"/><path fill="#DED8CD" stroke="#DED8CD" stroke-width="3" d="m642.5 478 .5 1.5h-1l.5-1.5Zm-196 3 1.5.5-2.5 17.5-2 1-19-9-3.5 2.5-3 11 .5 1.5-3.5-4.5 4.5-8.5 1.5-.5-1-3 5.5-3.5 14.5 6.5-2.5 3.5 3 2 4.5-1.5 1-4h-1l-1.5 2.5.5-1.5 2.5-12.5Zm.5 6-1 5h1v-5Zm-22 2v1h2l-2-1Zm4 1v1h1l-1-1Zm2 1v1h1l-1-1Zm2 1v1h1l-1-1Zm3 2v1h1l-1-1Zm200.5-8 1.5.5 2 10-1 5h1l1.5-7.5 2 16 4-1 2.5 1.5-6.5 3.5-4-5-.5 2.5 1 3-5 3-1 4h1l1.5-2.5-.5 1.5v15l6 8 1.5 20.5 20-6v1l-3.5 1.5-1 2 4 2-6 4 1 5-3 8 6 15-7.5.5-.5-1.5 5-2-8.5-16.5-3.5-.5 2-1-1.5-6.5-5.5 1.5 1 4-8 4-4.5 7.5-5 1-7-3-.5 1.5 3 2-4.5.5-5-12-10.5-.5.5-2.5 1.5-.5-2-1 7.5-3.5 7.5 5.5 4.5 9.5 7 1 3.5-2.5q10.49-10.01 9-32h-1l-.5 10.5q1.08-16.08-5.5-24.5v-14q8.55-9.95 6-31l-1.5-4.5Zm-2.5 36-1 14h1v-14Zm1 14-1 3h1v-3Zm1 3-1 3 2 1-1-4Zm2 4-1 3h1v-3Zm2 20-1 2h1v-2Zm16 0-6 3v1l9-3-3-1Zm-15 2v2h2l-2-2Zm4 2v1h4l-4-1Zm-41 4v1h5l-5-1Zm6 1v1h1l-1-1Zm5 3-1 2h1v-2Zm1 2-1 3h1v-3Zm1 4-1 3h1v-3Zm-168.5-82-.5 1.5-.5 1.5-1.5-.5 2.5-2.5Zm11 11 8.5 2.5-.5 2.5-8-5Z"/><path fill="#DED8CD" stroke="#DED8CD" stroke-width="3" d="m633.5 510 .5 1.5-2 1 1.5-2.5Zm21 3 2.5 3.5h-1l-1.5-3.5Zm-23 1 .5 2.5-1 25 2 4-3-2 1.5-29.5Zm-195 2q15 13 38 18l10-5 5.5 4.5 8.5 11.5 15.5 7.5 2 5-1.5 2.5-8.5-.5 4-3-2.5-6.5-23-11-29-6-12.5-9.5-.5-2.5-5.5-1.5-.5-3.5Zm35 0 8.5 2.5-.5 2.5-8-5Zm186 2 .5 1.5-2 1 1.5-2.5Zm1 3 .5 1.5-1.5.5 1-2Zm1 3 4.5 8.5-1.5.5v-2l-1.5-.5.5-1.5-1.5-.5v-2l-.5-2.5Zm-171 4 3.5 2.5-.5 1.5-3-4Zm161 0 3.5.5-1.5 3.5-1.5-.5-.5-3.5Zm14 6 1.5.5 4 13-2 3 .5 1.5-1.5-.5 1-11-3.5-6.5Z"/><path fill="#DED8CD" stroke="#DED8CD" stroke-width="3" d="m458.5 536 7.5 2.5-.5 2.5-9-2-7 5 6-7 3-1Zm13 2 5.5 1.5-3.5.5-2-2Zm-60 2 5.5.5-4 3 4.5.5 2.5.5-7.5.5-3-1-4.5 10.5 3.5 6.5 1.5.5.5 1.5 1.5.5 5.5 6.5 12.5 6.5-2.5.5-4-2-3 1-10.5-5.5q3.5-4.5-5-9l-3-11 3-4-.5-1.5 2 1v-2l5-4Zm.5 28 1 2h1l-2-2Zm3 2v1h1l-1-1Zm5 3v1h1l-1-1Zm2 1v1h1l-1-1Zm233.5-33 4.5 2.5 1 2-1.5 2.5-4-7Zm-233 4 5.5 2.5-2.5.5-3-3Zm23 1 1.5.5-5.5 2.5v-1l4-2Zm226 0 .5 5.5h-1l.5-5.5Zm-242 2 2.5.5-2.5.5v-1Zm6 1 3.5.5-3.5.5v-1Zm-93 3 5.5 2.5-.5 1.5 3.5 1.5-2.5 12.5-12 4-4.5-3.5 7.5-13.5 7.5-2.5-3.5-1.5-7 4-.5-1.5 6.5-3.5Zm325 3 1.5 2.5-3.5 5.5-1.5-.5 3-2 .5-5.5Zm-315 4 1.5 7.5-2 1 1-7-.5-1.5Zm83 17 4.5.5-4.5.5v-1Zm6 0 1.5.5-1.5.5v-1Zm4 1 18.5 5.5 4 13-4.5 5.5-14 1-.5-1.5 2.5-.5h2l8.5-4.5-3.5-13.5-1.5.5-.5-2.5-11-3Zm18 0 1.5.5-1.5.5v-1Z"/><path fill="#DED8CD" stroke="#DED8CD" stroke-width="3" d="m437.5 578 11.5 3.5-7.5.5-4-4Zm200 0-1.5 2.5-3.5 7.5-1.5-.5 6.5-9.5Zm-217 16 25.5.5-5 3 7 2-3.5.5-24-2-37.5 19.5-2 4 12 7q9.13 27.37 27.5 45.5l16 5 26 16q16.29-1.29 24 6l21.5 1.5-2.5 4.5-6.5 5.5-6.5 7.5-2.5-.5 7-9-1.5-2.5-13-1-39-13q-9.13-9.87-25.5-12.5l-14-16-15.5-27.5-14.5-10.5 4.5-9.5 6.5-4.5-.5-1.5 2 1 5.5-3.5.5-1.5 1.5.5.5-1.5h2l1.5-.5-.5-1.5 2 1v-2l2 1v-2l2 1v-2l2 1v-2l2 1v-2l2 1 1-2 2 1v-2l2 1v-2l6-3Zm1.5 2v1h18l-18-1Zm-5 1v1h2l-2-1Z"/><path fill="#DED8CD" stroke="#DED8CD" stroke-width="3" d="m425.5 599 1.5.5-1.5.5v-1Zm229 5 5.5 4.5.5 1.5 6.5 3.5 2 16-3.5 1.5.5-1.5-2.5-15.5-2.5-1.5-6.5-8.5Zm1 22 3 1 1.5-.5-6.5 9.5-2.5-.5-2-5 5-2 1.5-2.5Zm14 6 2.5 1.5 3 18-2 9 1.5 3.5 3-2-1.5 2.5-8.5 24.5-1-4-7 4-4.5-10.5 1.5-.5q3.5 6.5 7-1l8.5-5.5q1.75-8.75-3.5-10.5l-4.5-2.5 1.5-4.5 4 1q6.07-2.43 4.5-12.5l-3.5-4.5-10.5-1.5 2.5-.5 2 1 5-5Zm-101 16-.5 1.5-20.5 27.5-.5-1.5 14.5-18.5 1.5-.5 5.5-8.5Z"/><path fill="#DED8CD" stroke="#DED8CD" stroke-width="3" d="m660.5 648 5.5 2.5-.5 1.5-4-1-.5 6.5 2.5 4.5 1.5.5-.5 1.5-2.5-.5-1.5-15.5Zm-33 7 6.5 4.5-8 2 1.5.5 9-2-.5 1.5-.5 1.5-8.5 1.5-.5 1.5-1.5-.5 1-3h-2l3.5-7.5Zm-225 12 4 5-4.5-3.5.5-1.5Zm264 5 1.5.5-7.5 4.5-.5-1.5 6.5-3.5Zm-132 10 3.5.5-2.5 3.5-2.5-1.5 1.5-2.5Zm120 1 1.5 6.5-2-1 .5-5.5Zm-133 10 1.5.5-2 1 .5-1.5Zm145 2 .5 1.5h-1l.5-1.5Zm-204 6 1.5.5-1.5.5v-1Zm168 4 .5 8.5h-1l.5-8.5Zm3 8 5.5 2.5 8 21-2.5 1.5-4.5-5.5 2-1-6.5-14.5-2.5 1.5-2.5 3.5-2.5-1.5 2-1 3.5-6.5Zm-9 5 5.5 11.5h-1l-4.5-11.5Zm-139 5 .5 2.5-42 29-9.5 13.5-9.5-.5 14-12-1.5-.5-4.5 3.5 7.5-9.5 11-6-1 3 10.5-7.5 3.5-7.5 14-5v1l-3.5 1.5 3.5.5 6.5-4.5.5-1.5Zm-13.5 7v1h1l-1-1Zm-2 1v1h1l-1-1Zm-2 1-1 2 2-1-1-1Zm-3 2-3 4 4-3-1-1Zm-17 13-2 3 3-2-1-1Zm-5 4-2 3 3-2-1-1Z"/><path fill="#DED8CD" stroke="#DED8CD" stroke-width="3" d="m632.5 726 3.5 1.5 1 2-2.5-1.5-2-2Zm7 12 .5 1.5-2.5 1.5 2-3Zm2 3 .5 3.5h-1l.5-3.5Zm-6 3 4.5 1.5 5.5 7.5 5.5 4.5 1 10-3.5.5q1.21-17.71-11-22l-1.5.5.5-1.5-1-1Zm-209 18-3.5 4.5-.5 1.5-1.5-.5 1.5-3.5 4-2Z"/><path fill="#DAD1C4" stroke="#DAD1C4" stroke-width="3" d="m282.5 72 2.5.5-5.5 6.5 4-2-1 2-4.5 3.5 5.5 10.5 1.5.5 2.5 3.5 2.5-.5 1.5-8.5 8-2v1l-7.5 3.5 2.5 7.5 26.5 3.5-4 2 1.5 2.5 3.5 1.5.5 1.5 9.5-3.5-.5-1.5-1.5-.5 1.5-.5 2 3 2.5-1.5-.5-2.5-2.5-.5 6-7-2-4 2 1 1 5-2 5 2 4-3.5 4.5-15.5 10.5-12 15 10.5 11.5 11.5 8.5 10 23q-7.64 10.86-5 32l11 28-38 2 22.5.5 6.5 4.5-2.5.5q-6.83-5.67-22-3l-4 1-9-3-1 2 5.5 2.5-14.5.5h-2l-12.5 3.5 6 1-.5 1.5-18.5-1.5 12.5-9.5 14-1 25.5-11.5 3-5 1-20 5-10v-15l-27-30-3-14 1-3-1-2 2.5-4.5 21.5-12.5-1.5-4.5-15.5-.5 6-3-6-1 5.5-.5h2l5.5-1.5-14.5-1.5-1 2 1.5.5-1.5.5-9-4 1 3-8.5-3.5-.5-1.5-2-1-1 2-1.5.5-1.5 6.5-7 3 1.5-2.5-.5-2.5-2-1-1 2-2.5 1.5-3.5 8.5-2.5-.5 1-10-4.5-9.5-2 4-1-2-1.5-.5 23-17-.5-1.5 10-5ZM262 106v1h1l-1-1Zm60 4-1 3h1v-3Zm-53 138v1h1l-1-1ZM432.5 72l3.5 1.5-1.5 4.5-2.5-.5.5-5.5Zm0 12 3.5.5 4 5-7.5.5v-6Zm14 0 2.5 3.5-3 2-1-4 1.5-1.5Zm-200 6 1.5.5-7.5 5.5-.5-2.5 6.5-3.5Zm102 0-.5 1.5-1 3 .5 1.5-1.5-.5 2.5-5.5Zm11 0 5.5 2.5-2 1-1.5-2.5-2-1Zm-3 3 .5 1.5-2 1 1.5-2.5Zm4 0 .5 1.5-2 1 1.5-2.5Z"/><path fill="#DAD1C4" stroke="#DAD1C4" stroke-width="3" d="m326.5 102 2.5.5-2.5.5v-1Zm-5 1 2.5.5-4.5 1.5v-1l2-1Zm22 142 21.5 8.5-3.5.5-5-2-1.5.5.5-1.5-8-1-3 2-4.5-3.5-1-2h3l2.5 4.5 2.5-1.5-.5-1.5-3.5-1.5.5-1.5Zm30 13-.5 1.5.5 1.5 1.5-.5-1 2h2l3.5 5.5 8.5 5.5 1.5 2.5 22.5 12.5 8 17 6 48-2-1-.5-4.5-3.5-1.5.5-15.5 1 2 .5-4.5-1.5-6.5-1 4-2-10-2.5-1.5-1-8 1-2-2-1 .5-1.5-1.5-.5.5-1.5-2.5-1.5-2-5 .5-1.5-1.5-.5-3.5-4.5-4 1-7.5-5.5-8-9-1.5-3.5-2-1-5 1-3.5-10.5 1.5-1.5Zm38.5 39-1 2h1v-2Zm4 10-1 2h1v-2Zm1 4-1 2h1v-2Zm5 23-1 2h1v-2Zm1 7-1 4h1v-4Zm-137.5-77q14.33-2.33 18.5 5.5l.5 1.5 1.5-.5.5 1.5 2-1 4.5 3.5 2.5 3.5 2.5.5-1 5 1 5-4 13 1.5 2.5-1.5-.5 1 2-7 1-6.5 8.5-6.5 3.5 11 1-12.5.5-.5-1.5 9-6v-2l1-3-1.5-2.5-2 1-3.5-2.5-.5-1.5-1.5.5-12-35 3.5-3.5Zm11.5 4v1h1l-1-1Zm7 40-1 2h2v-1l-1-1Zm13.5-4 2.5.5-2.5.5v-1Zm4 1 1.5.5-1.5.5v-1Zm11 1 3.5 1.5-.5 1.5-3-3Z"/><path fill="#DAD1C4" stroke="#DAD1C4" stroke-width="3" d="m293.5 315-2.5 3.5-.5 1.5-.5-1.5 3.5-3.5Zm27 3 12.5 1.5q-8.87 8.13-29.5 4.5l2-3 15-3Zm-3.5 2v1h2l-2-1Zm7 0v1h4l-4-1Zm-12.5 14 10.5.5-11 1-5.5 12.5-4 1-2-1-.5 1.5 18 7 1 11-5.5 6.5-11 4h-44l-9.5 4.5-1 5 14 25 32.5 42.5q8.31 7.69 25 7 19.03-2.97 25.5-18.5l4-11v-39l6-22-6-14-.5-2.5-1.5-.5 2.5-.5 6.5 4.5 2.5 3.5 2.5.5-1 6 1 58q-4.3 21.7-19.5 32.5l-22 14-14 1q-16.57-4.43-24.5-17.5l-1.5-2.5-2.5-.5 1-2-10.5-15.5-2.5-.5 1-2-16.5-21.5-2.5-.5 1-2-13-26 5.5-10.5 29-1 5 1 32-1 3.5-1.5 1-4-1.5-2.5-2.5-.5 1-3-3.5-4.5-1.5-.5-.5-2.5-3.5-1.5.5-5.5 1.5-.5.5-1.5 2 3 1.5-.5-.5-1.5-1.5-.5 3.5-1.5 2.5-.5 1.5-7.5 2-1Zm-3.5 28-1 2h1v-2Zm51 0-1 2h1v-2Zm-81 11v1h1l-1-1Zm5 1v1h18l-18-1Zm53.5-40 2.5 1.5-1.5-.5-1-1Zm197 2 2.5.5-2.5.5v-1Zm19 0 1.5.5 2.5 3.5 1.5.5-5.5 1.5-.5-3.5.5-2.5Zm-24 2 1.5.5-.5 2.5-2 1 .5-1.5.5-2.5Zm15 0 .5 1.5h-1l.5-1.5Zm-36 2 5.5 2.5-4 3 1-3-5-1 2.5-1.5Zm55 0 2.5 1.5.5 1.5 1.5.5 1.5 2.5 3.5 1.5-4 1-3.5-5.5-1.5-.5.5-1.5-1-1Zm-29 1 4.5.5-4.5.5v-1Zm-191 3 .5 1.5h-1l.5-1.5Zm156 3 1 2 4 1 2.5-1.5-.5-1.5 2.5 1.5-7.5 2.5-2-4Z"/><path fill="#DAD1C4" stroke="#DAD1C4" stroke-width="3" d="m342.5 348 2.5 5.5h-1l-1.5-5.5Zm234 7 .5 1.5-2.5 1.5v-1l1.5-.5.5-1.5Zm9 5 2.5.5-1.5 3.5-7.5-2.5 3.5-.5 3-1Zm-157 5 .5 8.5h-1l.5-8.5Zm-2 8 2 3 1.5.5v48l6.5 10.5 1.5.5 6 9-6-3 4 2-6.5-8.5-3-2-1.5.5-.5-1.5-2.5-1.5-2-7 3 1-.5-21.5-2 4v-34Zm2.5 8-1 11h1v-11Z"/><path fill="#DAD1C4" stroke="#DAD1C4" stroke-width="3" d="m431.5 384 .5 11.5h-1l.5-11.5Zm13 62 5.5 13.5-2-1 .5-1.5-1.5-.5-4-8 1.5-2.5Zm14 12 .5 2.5h-1l.5-2.5Zm13 9 .5 1.5h-1l.5-1.5Zm167 2-.5 1.5-1.5 4.5-.5-4.5 2.5-1.5Zm-168 1 .5 1.5-3.5 2.5v-1l2.5-1.5.5-1.5Zm171 1 4.5 20.5-2.5 4.5-1.5-.5-.5-1.5-2 8-.5-4.5 1-7-2-4 4-1-.5-1.5-1.5-.5-1-3 1-3-1-4 2.5-2.5Zm1.5 7-1 2h1v-2Zm-195.5 1 .5 1.5h-1l.5-1.5Zm-1 8 .5 4.5-2.5 5.5-2.5-.5-.5-1.5-2.5.5 1.5 2.5-12.5-7.5 1.5-.5 8 5 6-2 1.5.5 1.5-6.5Zm-22 2 2.5.5-2.5.5v-1Zm-5 1v2l3-2-2 3-1.5.5-4 8 3.5 4.5 1.5.5 2 3-4.5.5q-5.25-1.75-3.5-10.5l2-4 3.5-5.5Zm-79 2q13.52-2.52 17.5 4.5l-1 6-14.5 15.5-5 1-7.5-15.5 5.5-10.5 5-1Zm299 17 4 5 4-1 .5 3.5-2.5 4.5-7-3v2l-2 1-1.5-.5-1 15 4 10h-1q-5.86-7.64-4-23l3.5-6.5 3.5-1.5-.5-5.5Zm11 1 1 2-1.5-.5-.5 1.5-.5-1.5 1.5-1.5Zm1 3 1.5.5-1.5.5v-1Zm-212 5 5 7 11 8 32 7 22.5 12.5-1.5 5.5.5-1.5-3.5-5.5-16 1-7.5-5.5 3-1-5.5-1.5v2l-5.5-1.5 5-1-2.5-4.5-5-1-3.5 2.5-.5 1.5-4-6q-10.19-.69-13 6l-1-2-3.5 2.5 4-8v-2l-.5-1.5-3-1-8.5-5.5 1.5-6.5Zm48.5 29v1h1l-1-1Zm3 1v1h2l-2-1Zm-152.5-28 1.5.5-1.5.5v-1Zm320 4 7.5 16.5-1.5-.5-1.5-.5-4.5-15.5Zm-8 8 1.5.5-1.5.5v-1Z"/><path fill="#DAD1C4" stroke="#DAD1C4" stroke-width="3" d="m456.5 539 7.5.5-7.5.5v-1Zm-34 2 7.5 4.5-5.5.5-2-1-7 1v-1l4.5-.5-.5-1.5 3-2Zm-17 3 1 2-1.5.5-1.5 2.5-1.5.5q.55 13.45 9.5 18.5l5.5 3.5-1.5-.5-4-2h-4l-5.5-2.5-4.5-11.5-1.5-.5 3.5-8.5 2 1 3.5-1.5.5-1.5Zm4 0 2.5.5-2.5.5v-1Zm229 5 .5 12.5h-1l.5-12.5Zm-299 3 2.5.5-2 1 2.5.5 3-1 3.5 2.5-1.5.5-4-1-6.5 4.5-5 11 6.5 3.5 10.5-4.5 2.5-11.5 1.5 7.5-1 2h2v2l-3.5 6.5-4-1-14 7-4-6-4.5-1.5 1.5-10.5 3.5-.5 7.5-9.5 3-2Zm-.5 2v1h1l-1-1Zm-2 1-1 2 2-1-1-1Zm-9 18-1 2h1v-2Zm5 7v1h1l-1-1Zm333.5-27 1 8 1-3 3.5 2.5-8.5 3.5v-1l2.5-.5-4-3h2l.5-1.5 1.5-.5v-2l.5-2.5Zm-312 8 .5 2.5h-1l.5-2.5Zm285 2 2 3 1.5.5-2.5.5-1-4Zm16 0 2.5.5-13.5 4.5v-1l11-4Zm-52 8 7.5 1.5-1.5.5-6-2Zm-185 1 11 5 2-1 9.5 1.5-4 1 4 3-11.5.5-8.5-5.5 2-1-4.5-3.5Zm182 0 1.5.5-1.5.5v-1Zm12 1 3.5 6.5h-1l-2.5-6.5Zm25 2 15.5 5.5 5 13-6.5 2.5-1.5-3.5h1l.5 1.5 2.5-.5-1-3 1-2-1-2 1-2-6-4-.5-1.5-1.5.5-.5-1.5-1.5.5-1.5-2.5-3.5.5 1 2-1.5-.5-1.5.5-.5 2.5-2.5.5-3 6v2l-.5 2.5-3.5.5-.5 1.5-1-3-7.5-2.5 2-1-3-2-1-4h1l1.5 3.5 9 2 4.5-3.5 5.5-8.5Zm14.5 6-1 2h1v-2Zm-188.5-3 4.5 1.5-.5 2.5-4.5-2.5.5-1.5Zm-7 4 3.5 1.5 2 12-8.5 4.5-.5-1.5 4-3-.5-13.5Zm2.5 5-1 4h1v-4Z"/><path fill="#DAD1C4" stroke="#DAD1C4" stroke-width="3" d="m642.5 586 1 2-1.5-.5.5-1.5Zm-7 3 1.5 11.5-7-4 5.5-7.5Zm8 0 5.5 3.5-1 2v2l-.5 1.5-4-9Zm-197 5v4l1.5-.5 1 2-1.5-.5-6.5-1.5 5.5-3.5Zm-31 2 3.5 1.5-2.5.5-1-2Zm6 0 18.5.5-18.5.5v-1Zm-8 1 1 2-3 1-.5-1.5h2l.5-1.5Zm243 0 3.5.5-.5 1.5-3-2Zm-2 8q9.63 5.38 9.5 20.5l-2.5 1.5-.5-1.5h2l-.5-5.5-1 4-1-7-1.5-.5-4.5-11.5Zm6.5 9-1 2h1v-2Zm-265.5-8 2.5.5-2.5 1.5v-2Zm-2 1 .5 1.5h-1l.5-1.5Zm-2 1 .5 1.5-14 9-4 9 15 11 15 27 15.5 17.5q16.47 1.03 24 11l39 13 13.5 1.5 1 3-10.5 11.5 5.5-6.5-.5-2.5-1.5.5-2.5 4.5 1.5-2.5-.5-2.5-4-1-2 1-3-4-5.5-2.5-.5-1.5-1.5.5-.5-1.5-3-1-12-3-7 1-8.5-4.5-.5-1.5-7-4-1.5.5-.5-1.5-2 1-2-3-12 1-1.5-3.5v-2l-6.5-10.5-4.5-3.5 2.5 1.5 1.5-.5-7-5-16.5-22.5-14.5-9.5-1-7 3.5-5.5 1.5-.5 5.5-7.5 13-6ZM374 620v1h1l-1-1Zm45 67v1h1l-1-1Zm5 1v1h1l-1-1Zm39 13v1h1l-1-1Z"/><path fill="#DAD1C4" stroke="#DAD1C4" stroke-width="3" d="m664.5 616 1 2-1.5-.5.5-1.5Zm-5 6 .5 3.5-2.5 4.5v-4l-1.5-.5 3-2 .5-1.5Zm0 9 2 7 10.5 1.5-.5 3.5-3-1-4-1-3.5 4.5 2 1-.5 1.5-2.5.5-.5 5.5-2-7h-2l-1.5-.5 1.5-10.5 2.5-1.5 1.5-3.5Zm-3.5 11-1 2h1v-2Zm1 2-1 2h1v-2Zm-5.5-8 2.5.5-.5 3.5-2-4Z"/><path fill="#DAD1C4" stroke="#DAD1C4" stroke-width="3" d="m663.5 636 1.5.5-1.5.5v-1Zm3 14 2 3 3-2 .5 1.5-5.5 2.5-2.5.5 2.5 5.5 4.5 2.5-1.5 2.5-6.5-1.5 2-1-.5-1.5-2.5-1.5-1-9 3.5-.5 1.5.5.5-1.5Zm-7 5 .5 3.5h-1l.5-3.5Zm-25 4 1.5.5-8.5 2.5-.5-1.5 7.5-1.5Zm26 1 1.5 2.5-2-1 .5-1.5Zm8 7 .5 2.5-2.5 3.5 5-4 .5 2.5-12.5 9.5-2.5-3.5 1.5-2.5 9.5-5.5.5-2.5Zm-3.5 6v1h1l-1-1Zm-2 1v1h1l-1-1Zm-2 1-1 2 2-1-1-1Zm-6.5 2 2.5 6.5-1.5.5-1-7Zm-46 19 3.5 2.5-.5 4.5-4-1-1.5.5 2.5-6.5Zm27 21 5.5 8.5-5.5 1.5-3-1-2.5 1.5-1-3-2-4 2.5 1.5 3.5-2.5.5-1.5 2-1Zm-151 6-1 2-1.5-.5 2.5-1.5Zm146 6 1.5.5-2.5 1.5 1-2Zm-159 1 1.5.5-11.5 7.5-6 4-1.5-.5 6.5-5.5 4-2 7-4Zm171 6 1 2-1.5-.5.5-1.5Zm-191 8 1.5.5-29.5 23.5-.5-1.5 2.5-3.5-2 1 1-2 10-6 3-1 14-11Zm182 0 6.5 4.5-.5 1.5 7.5 6.5 1 11-5.5.5q1.91-13.41-4.5-18.5l.5-1.5-4.5-1.5-.5-2.5Z"/><path fill="#D1C5B2" stroke="#D1C5B2" stroke-width="3" d="m270.5 78 2.5.5-19 13 .5 1.5-5 3-3.5 2.5 2.5 3.5 3.5-2.5 2.5-5.5 4.5 9.5-1.5 5.5-4-1-1.5 4.5 4.5 1.5h2l1.5.5-7.5 5.5-3-6-3.5.5q2 15.5-9.5 17.5l-2.5-.5 5-15-4-6 5-8-3.5-.5-5 7-9 5-.5-8.5L239.5 94l1 2 7.5-5.5.5-1.5 22-11Zm83 12 6.5 1.5-1.5 4.5-3-1-2 1 .5-1.5-.5-4.5Zm3.5 3-1 2h1v-2Zm-77.5 3 2.5 1.5 3 4-8.5 2.5-.5-2.5 1.5-3.5 1.5-.5.5-1.5Zm155 0 3.5 2.5-2.5 3.5-3.5-2.5 2.5-3.5Zm-167 6 2.5 1.5-2.5 5.5-3 1-.5-4.5 3-2 .5-1.5Zm51 0 10 1 7-1 .5 2.5-2.5 1.5-1-2-3 4-7 1-2-3-2.5-.5.5-3.5Zm3.5 1-2 1v1l4-1-2-1Zm9 0v1h1l-1-1Z"/><path fill="#D1C5B2" stroke="#D1C5B2" stroke-width="3" d="m261.5 106 1.5.5-1.5.5v-1Zm233 2 3.5 2.5-2.5 3.5-3.5-2.5 2.5-3.5Zm-173 2 .5 2.5h-1l.5-2.5Zm-91 5 2.5 1.5-.5 1.5-2 1-.5-2.5.5-1.5Zm58 11 8.5.5-3 4h2l-2 8q7.6 24.4 28 36l2 19q-8.14 9.86-6 30l-6.5 8.5-22 8-14 1-8.5 5.5 3 2-1.5.5q-2.75-4.75-5.5 1.5l.5 1.5-3.5-2.5-2-4 2.5-3.5 28-14h6l9.5-7.5 2-22 5-10-29-45v-14l6.5-3.5Zm254 0 3.5 2.5-2.5 3.5-3.5-2.5 2.5-3.5Zm-329 18 2.5 1.5-3.5 4.5-2.5-.5 3.5-5.5Zm76 101 8.5 1.5-14.5 9.5-6.5-3.5 5-1-.5-1.5-5.5-.5 13.5-4.5Zm53 1 4.5 2.5-1.5 2.5-3.5-2.5.5-2.5Zm-33 1 1.5.5-1.5.5v-1Zm44 5 11.5 5.5-11.5.5.5-1.5-.5-4.5Zm-80 12 11.5.5-3 4 7 26 5.5 8.5 1.5-.5 1.5 2.5 3 1v-2l3 4 1.5.5-.5 1.5-1.5-.5-.5-1.5-2 4-10.5 6.5-2 5 4 1-14.5 5.5v-1l4.5-2.5 5-17-17-34v-8l3.5-3.5Zm21.5 42-1 6h5l1-4-5-2Zm2.5-42q21.14 5.36 32.5 20.5 1.59 14.59-6 20l.5 1.5-3-1-6 1-1.5-2.5v-2l4-17-1-4 1-2-5-3-.5-1.5-2.5-.5.5-1.5-2 1v-2l-2 1-1-2-1.5.5-.5-1.5-1.5.5.5-1.5-5-4Zm20.5 40v1h2l-2-1Zm-21.5-36 1.5.5-1.5.5v-1Zm107 19 4 5 2.5 1.5h-2l2.5 5.5 1-2 .5 1.5-.5 1.5 1.5.5-.5 1.5 1.5.5-.5 1.5 1.5.5-1.5 6.5-6-16-7.5-6.5 3.5-1.5Zm-67 13 5.5 2.5 2 9-2.5.5-5.5-3.5-.5-1.5-2.5-.5 3-1 .5-5.5Zm79 7 .5 1.5h-1l.5-1.5Zm1 4 .5 1.5h-1l.5-1.5Zm109 1 2.5.5-1.5 3.5-3 1-.5-1.5 2.5-3.5Zm15 0 5.5 3.5-3.5 2.5-2-6Zm-126 1 2 3 1.5.5 2 18h-1q-7.31-6.81-4.5-21.5Zm-66 1 5.5 15.5-5.5.5-10.5-5.5 10-1-1-6 1.5-3.5Zm210 4 5.5 2.5-.5 3.5-5.5-2.5.5-3.5Zm-242 2 2.5.5-2.5.5v-1Zm7 0 4.5.5-4.5.5v-1Zm98 14 .5 1.5h-1l.5-1.5Zm-124 2 2.5.5 1.5 5.5 4-1 .5 1.5-4 2 2 1-.5 1.5-2.5-1.5-.5-1.5-1.5-.5-.5-1.5-4.5 1.5-.5 5.5-11.5-1.5 3.5-5.5 8.5-1.5 3.5-4.5Zm219 0 11.5 1.5-1.5 4.5-18.5-1.5 8.5-4.5Zm25 0 3 1 2-1-.5 1.5 1 4-5.5.5-1.5-4.5 1.5-1.5Zm2.5 2-1 2h1v-2Zm-201.5-1 7 17 13.5 6.5 3 18 6 12v35l-9 18-29 29-3 9 1.5 2.5 39 2 5.5 2.5q-6.99 23.01-23.5 36.5l-19 8-19.5-17.5q-10.79-30.71-35.5-47.5l-3.5-2.5q-7.45-25.55-26.5-39.5l-3.5-2.5v-7q-18.78-12.22-24-38l6.5-9.5 6-3h36l10.5 5.5-11.5 1.5-25-1-8.5 4.5-2 8 13 25-1 2 4 2 15 20-1 2 4 2 9 14-1 2 4 2 12.5 13.5q6.64 6.36 21 5 23.25-8.25 37.5-25.5l9-22v-57l-7.5-13.5-7.5-2.5-3-7 1-2-.5-7.5Zm17.5 25-1 2h1v-2Zm-19 130-5 1-6 11 8 15 5-1 14-15 1-6q-4-8-17-5Zm-2 28v1h1l-1-1Zm83.5-179 .5 3.5h-1l.5-3.5Zm142 2 4 6 4-1 9.5 11.5-13.5.5 1.5-2.5-1.5-3.5-4 1-3.5-6.5 3-1 .5-4.5Zm12.5 12-1 2h1v-2Zm-2 2v1h1l-1-1Zm-66.5-12-1 2-1.5-.5 2.5-1.5Zm-88 2 3.5 1.5 2 7v2l-.5 3.5-3.5-2.5-1.5-11.5Z"/><path fill="#D1C5B2" stroke="#D1C5B2" stroke-width="3" d="m293.5 353 6 2 3-1v2l3.5 2.5 4 10-3.5 4.5-.5-2.5-.5-3.5-11.5-4.5-.5-2.5-3.5-1.5 1.5-4.5 2-1Zm13.5 9-1 2h1v-2Zm258.5-2 1 2-1.5-.5.5-1.5Zm82 10 .5 9.5-2.5-1.5-3.5-2.5 2.5-3.5 3-2Zm-370 3 1.5.5-1.5.5v-1Zm5 1 18.5.5-18.5.5v-1Zm146 7 .5 10.5h-1l.5-10.5Zm-2 46 2 4 1.5-.5-.5 1.5 1.5.5 3 5-4.5.5q-5.72-2.22-3-11Zm-27 5 8.5 2.5-11.5 9.5-.5-6.5 3.5-5.5Zm39 10 5 7 1.5-.5-1 2h2l-1 2h2l-1 2 1.5 2.5 1.5.5 1 3-.5 2.5-2.5-1.5-8.5-19.5Zm11 25 .5 1.5-5.5 10.5-.5-4.5 3.5-6.5 2-1Zm188 7 2.5 1.5 1 3-1 3 .5 2.5 1.5.5-.5 1.5-5.5-1.5 1.5-10.5Zm-215 12-3 6-2.5.5 1 2-2-1 6.5-7.5Zm21 5 .5 1.5-4.5 1.5v-1l4-2Zm202 1 2.5 1.5-.5 5.5-4-1-1.5.5.5-2.5 1.5-.5 1.5-3.5Zm-233 3 1.5.5.5 1.5 1.5.5-2 9 2.5 3.5q-18.17-2.67-26 5l-.5-1.5 12-10 .5-2.5 10-6Zm27 0 2.5.5-.5 1.5-2-2Zm211 16 1 3 2.5 1.5 5 12-3 2-2 9 1 2-5-2-10.5-16.5-3 1-.5-1.5 3-2-.5-1.5 7 3 3-9 1.5.5.5-1.5Zm-.5 5-2 11v2l2 4h2l1-3v-2l1-10-4-2Zm-211.5 9 10 7 1.5-.5-1 2 1 5v2l-.5 2.5-7 3 .5-1.5q-7.04-6.21-4.5-19.5Zm224 13 .5 1.5h-1l.5-1.5Zm-192 1 1.5.5-1.5.5v-1Zm-68 1 7.5.5-10.5 8.5 1-3-2.5 1.5-2 7 3 2 3 9-7-6-.5-1.5-3.5-2.5 5.5-12.5 6-3Zm71 0 11.5 5.5-3.5 1.5-1.5-.5-.5 1.5-6.5-2.5 6-1-5-1-.5-3.5Zm-135 1q6.99 11.01 21.5 14.5-.13 20.37-14.5 26.5l-11 5-8.5-6.5-2-5 1.5.5 8.5 4.5-2 1 2.5.5 12-7 4 1 3.5-6.5v-2l1-6-1-2v-2l-1.5-3.5-13-2-7.5 6.5-3.5 5.5-4 1-.5-6.5 14.5-17.5Zm148 5 2.5 1.5-1.5.5-1-2Zm4 2 2.5.5-2.5.5v-1Zm15 3 3.5 5.5-3.5 1.5-2.5-.5 1-4-.5-1.5 2-1Zm158 2 1.5 2.5h-1l-.5-2.5Zm-496 4-.5 1.5-2.5 5.5-8.5-.5 3.5-5.5 8-1Zm496 2 .5 2.5-1.5 2.5-2.5-.5 1.5-3.5 2-1Zm-256 10 21.5 12.5-2.5.5-22.5-11.5 3.5-1.5Z"/><path fill="#D1C5B2" stroke="#D1C5B2" stroke-width="3" d="m327.5 573 .5 1.5h-1l.5-1.5Zm312 3 4.5 1.5.5 1.5 1.5-.5.5 1.5 1.5-.5 2.5 3.5 3.5 1.5-1 3 1 2-1 2 1 2-2.5.5-1-2-1 2-3-4-4.5-1.5 2-1-3.5-5.5-2.5 1.5-8 13 3.5 4.5-18.5-7.5-3-10h1l2.5 4.5 10.5 3.5.5 2.5 1-2 3.5-.5 8.5-15.5Zm-181 11 .5 3.5h-1l.5-3.5Zm-3 6 1.5 2.5-4 3-.5 1.5-4.5-1.5-.5-1.5-2.5-.5 10.5-3.5Zm-41 1 4.5.5-37.5 17.5-8.5 7.5-.5 2.5-2.5 1.5-2 9 5.5 6.5 19.5 14.5 13.5 20.5 2.5 1.5 6 10-1 3 .5 1.5-4.5-1.5-7.5-13.5-1 2-11-14-5.5-2.5 2-1-32-26 11.5-18.5 11.5-5.5 1.5-3.5q22.99-.51 35-12Zm234 2 5.5 15.5h-1l-6-13 1.5-2.5Zm7 12 1.5 2.5h-1l-.5-2.5Zm2 4 1.5 2.5h-1l-.5-2.5Zm3 2 1.5 2.5-1 7h1l1.5-5.5 2.5.5-.5 11.5-5 1-2.5-1.5 2-7-2-4 3-2-.5-2.5Zm3.5 6-1 6h1v-6Zm-2 5-1 2h2l-1-2Zm-19.5-6 5.5 2.5 2 8-2 1 5.5 9.5 1-6 .5 2.5-1 10 2.5 1.5 1.5-.5 2 7-1 4 4.5 6.5 8.5 1.5-3.5 5.5-2-1-8.5 4.5-1.5 2.5-2.5-1.5-6-18h1l1.5 2.5 3.5-1.5v-12l-12-23 .5-5.5Zm26.5 48-1 3h1v-3Zm-4.5-26 2.5 1.5-1 4 4.5 1.5 1.5-.5-2.5 5.5-2.5-1.5-.5-1.5-3.5-2.5-.5-1.5-1.5-.5 3.5-4.5Zm-26 1 3.5 2.5-.5 5.5-4-2-1.5.5 2.5-6.5Z"/><path fill="#D1C5B2" stroke="#D1C5B2" stroke-width="3" d="m655.5 642 1.5 3.5h-1l-.5-3.5Zm-32 15 1.5 2.5-2 4 1 9v2l-.5 2.5-4.5-12.5 4.5-7.5Zm-10 21 9 6 1.5-.5-.5 9.5-1.5-.5-3.5-5.5-1.5.5-5-8 1.5-1.5Zm-74 6 .5 2.5-5.5 2.5-.5-1.5 5.5-3.5Zm-121 3 1.5.5-1.5.5v-1Zm5 1 1.5.5-1.5.5v-1Zm3 1 1.5.5.5 1.5 1.5-.5-.5 1.5 2-1 1 2 3 1 5.5 2.5.5 1.5 2-1v2l5.5 2.5-5.5.5-22.5-11.5 5.5-1.5Zm30 12 14 5 1.5-.5.5 1.5 1.5-.5.5 1.5 6.5 3.5.5 1.5 1.5-.5-.5 1.5 3-1 3.5 1.5.5 2.5 1-3 1.5.5-6.5 8.5-6 3 .5-1.5q1.87-13.88-7.5-16.5-15.02 2.02-20.5-5.5l4.5-1.5Zm180 25 5.5 1.5-.5 4.5-5.5-3.5.5-2.5Zm-6 4 1.5.5 2 6-4 6 1.5 2.5 2.5.5.5 1.5 6.5 2.5-2 1q5.25 4.75 3 17l-3.5.5-2.5-.5v-2l-.5-3.5-3 1 3.5-4.5-3.5-9.5-5.5-4.5-2-4 1.5-3.5 3.5-2.5-1-3 1.5-1.5Zm-168 2 2.5.5-21.5 15.5 10-11 9-5Zm-23 17 .5 1.5-4.5 5.5-13.5 8.5-2.5 3.5-5.5-.5 3-5-2-1 24.5-12.5Zm169 1 3.5 11.5-2.5.5-3.5-9.5 2.5-2.5Zm18 7 2.5 1.5-1.5 2.5-2.5-1.5 1.5-2.5Z"/><path fill="#B99C87" stroke="#B99C87" stroke-width="3" d="m296.5 90 10.5.5-1 4 .5 1.5-12.5-2.5 2.5-3.5Zm-64 19 1.5.5-.5 4.5-3.5.5-.5 1.5-5 1-.5-1.5 8.5-6.5Zm29 4-10 11-1.5-.5 11.5-10.5Zm-35 4 2.5 1.5 1 4-1.5.5-2-3-1.5-.5 1.5-2.5Zm-12 3 1.5.5 1 4-3.5.5-1.5-.5-.5 1.5-1.5-.5 1.5-3.5 3-2Zm17 0 2.5.5-1.5 5.5-2.5-1.5 1.5-4.5Zm-12 2 .5 1.5h-1l.5-1.5Zm5 8 2.5.5-2.5.5v-1Zm14 1 1 2-2.5-.5 1.5-1.5Zm-14 1-2.5 3.5 1 8-4.5.5-.5-2.5-1-3 2-1-.5-1.5 6-4Zm7 4 2.5 1.5-1.5.5-1-2Zm6 0 .5 1.5-5 4 4.5-5.5Zm25 6 1.5.5.5 7.5 3.5 1.5q.94 14.56 10.5 20.5l9.5 6.5q8.5 8 6 27l-9.5 15.5-20.5 10.5-4.5 5.5-5.5 4.5-8 16 1 2-3 2-3.5 5.5-2.5-.5q2.33-27.17 21.5-37.5l20.5-14.5 2-23-7.5-9.5-25.5-14.5-6.5-11.5-2.5-.5.5-2.5 22-11Zm-42 4 .5 2.5-1.5 2.5 4-1-11.5 12.5-1.5 3.5-10 8-2.5-.5 9-12-3-1 2.5-.5 6.5-4.5 1.5-2.5 4.5-1.5 1-3 .5-2.5Zm-32 4 .5 2.5-1.5 2.5 1.5.5-2.5.5-.5-3.5 2.5-2.5Zm2 0 1.5.5-1.5 3.5v-4Zm-11 4 .5 2.5-5.5 8.5-.5-2.5 5.5-8.5Zm4 5 1.5.5-1.5.5v-1Zm4 1 4.5 2.5-1 2 1.5.5 1.5-.5-8 6 .5 1.5 3-2 .5 2.5-2.5 3.5-2.5.5-7.5 9.5-1.5.5 2 1-.5 3.5-1-2-5.5 1.5-.5 1.5-1.5-4.5 3-2 2.5-3.5 3.5-2.5 4.5-11.5 3.5-1.5-1-4 3-1-.5-1.5Zm.5 12-2 2 1 1h1v-3Zm10.5-11 1.5.5-2.5 1.5 1-2Zm-21 7 .5 1.5-1.5.5 1-2Zm18 12 2.5.5-3.5 5.5-2.5-.5 3.5-5.5Zm-10 3-2.5 3.5-.5 1.5-.5-1.5 3.5-3.5Zm6 9 .5 2.5-10.5 8.5-.5-1.5 6.5-7.5 4-2Zm-24 1 1 11 1.5.5-.5 2.5-1-2-1 9-3-4-2.5.5-2.5 8.5-.5-2.5.5-1.5-5 1 1.5-2.5-1.5-3.5-2.5-1.5 1.5-4.5 8.5-3.5-1-2 2.5-.5 2.5-1.5 1.5-3.5Zm28 11 2.5.5-.5 5.5-4.5-2.5 2.5-3.5Zm-34 15 .5 2.5-.5 3.5-16 8-.5-1.5 4.5-8.5 1 5 10.5-5.5-2.5-1.5-1.5.5 4.5-2.5Zm30 3 3.5.5 1 4-13.5 18.5-7.5 3.5q6.33 5.17 5 18l-12 15 3.5.5 2.5-1.5-3.5 7.5-8.5-.5q-1.89-15.39 5.5-21.5l3.5-1.5 3-11-2.5-.5-3 1-1-2-1.5-.5 8-7 .5 1.5 5.5-1.5-.5-4.5-1.5-.5 11.5-16.5 2-1Zm122 29 .5 1.5-2.5.5-2.5-.5 4.5-1.5Zm-52 3 2.5.5-2.5.5v-1Z"/><path fill="#B99C87" stroke="#B99C87" stroke-width="3" d="m161.5 256 1 2 1.5.5-8 5 2 1-4-1 7.5-7.5Zm200 2 2 1 6-1 3.5 8.5-2 1-2-3 2-1-.5-1.5h-2l-7-4Zm-31 6 1.5.5-6.5 7.5-1.5-.5-.5-1.5-3.5-.5 10.5-5.5Zm-182 4-1.5 2.5-.5 1.5-.5-1.5 2.5-2.5Zm89 0 .5 1.5-1.5 2.5-.5-1.5 1.5-2.5Zm-92 5-.5 1.5 1 2-2 1-.5-1.5-2 5-3.5-2.5.5-2.5 7-3Zm4 0 1 2-3.5.5 2.5-2.5Zm174 0 1.5.5-1.5.5v-1Zm5 2 7.5 4.5 6 21-1.5-.5-1.5-.5-4-7 1-5-1.5-2.5-1.5.5 1-2h-2l-3.5-8.5Zm-73 1 1.5.5 6.5 7.5 3.5 2.5 5 10h-2l1.5 2.5 1.5-.5 5 10h-2l1.5 2.5 2.5.5 2 4-3.5 2.5-17-30-9.5-.5 3.5-11.5Zm3.5 4-1 2h2l-1-2Zm129.5 1 1 2 6.5 2.5 1 3-1.5 3.5-1.5-3.5.5-1.5-7.5-4.5 1.5-1.5Z"/><path fill="#B99C87" stroke="#B99C87" stroke-width="3" d="m334.5 288 .5 1.5h-1l.5-1.5Zm63 2 1 2 1.5-.5-1 2 .5 1.5-2-5Zm-275 4 3.5 2.5-2.5 3.5-3.5-2.5 2.5-3.5Zm280 3 2.5 1.5 3 12h-1l-6-12 1.5-1.5Zm-262 16 1.5.5 2 10-2.5.5-3.5-6.5 2.5-4.5Zm268 0 1 2 1.5-.5v2l3 13-1 2q-2.01 31.01 10.5 47.5l2.5 1.5-1.5 8.5-1.5-.5-.5-1.5-7.5 33.5 5.5 11.5 1.5.5-1.5 2.5-6 5-4-12-4-1-8.5 5.5-2.5 4.5.5-1.5-1-3 6-10-5.5-2.5-17 14 .5-3.5-.5-1.5-2.5 1.5q14.93-10.07 18-32l-7.5-18.5-12.5-8.5-2.5-12.5-1.5-.5 2-1-.5-3.5-3.5-.5 2.5-1.5 1.5.5.5-4.5 7.5.5-2 11 2.5 5.5 25.5-13.5 2.5-38.5Zm14.5 66-1 2h1v-2Zm-68.5-54 4.5 9.5-1.5-.5-7.5-3.5 4-1 .5-4.5Zm-77 2-1 3 3.5.5-9.5 5.5.5-1.5 4.5-6.5 2-1Zm6 21 5.5.5-2.5 5.5-4.5-2.5 1.5-3.5Zm-61 6q16.06-2.06 22.5 5.5l-12.5 1.5h-2L214 371.5l-4 10 3 1 5 10h-2l1.5 2.5 1.5-.5 5 10h-2l1.5 2.5 18.5 16.5-.5 1.5 4.5 3.5-.5 4.5-26.5-25.5-15-35 12.5-15.5 6-3Zm-69 6 2.5.5-3.5 5.5-2.5-.5 3.5-5.5Zm112 0 15.5 5.5-6.5.5-9-6Z"/><path fill="#B99C87" stroke="#B99C87" stroke-width="3" d="m241.5 361 1.5.5-1.5.5v-1Zm21 1 2.5.5-2.5.5v-1Zm27 2 .5 1.5-2 1 1.5-2.5Zm-149 4 2.5 1.5 1 2-6 2-.5 4.5-4.5-2.5 2-3-.5-1.5 6-3Zm-12 10 4.5 3.5 1.5 2.5 3.5.5-5.5 7.5-1-2-6 1-4-1-4.5 5.5 2 1-4.5 2.5-.5-2.5 5.5-10.5 6.5-2.5 2.5-5.5Zm22 6 5.5 3.5-.5 2.5-5.5-3.5.5-2.5Zm-19 9-1 2-1.5-.5 2.5-1.5Zm-2 39 2.5.5-3.5 5.5-1.5-.5 2.5-5.5Zm294 0 12.5 10.5 1.5 3.5 1.5-.5-1.5 1.5-14-15Zm-48 4 .5 1.5-8 7 7.5-8.5Zm18 0 .5 1.5-1.5 2.5-.5-1.5 1.5-2.5Zm-147 1 3 1 1.5-.5-.5 1.5 5.5 4.5 3 4h-2l1 3-1.5-.5-3.5-1.5-6.5-11.5Zm161 5v2l2.5.5-18.5 11.5-1.5-8.5 1.5.5 5 2 4.5-2.5-.5-1.5 2 1 2.5-1.5-.5-1.5 2 1 1-3Zm-42 5 2.5.5-5.5 7.5-8.5 4.5-5 12 11.5 2.5 22-10 3 4-13.5 1.5-.5 3.5-1.5-.5-.5 1.5-1.5-.5-.5 1.5-6-1-1.5 2.5.5 1.5-13 2-4.5-3.5 7.5-15.5 2.5-1.5.5-2.5 2.5-.5.5-2.5 2.5-.5 1.5-2.5 1.5-.5 1.5-2.5 2-1Z"/><path fill="#B99C87" stroke="#B99C87" stroke-width="3" d="m396.5 447 1.5.5-1.5.5v-1Zm-138 8 3 1 1.5-.5-.5 1.5 9.5 8.5-.5 1.5 4.5 3.5-.5 4.5-15.5-14.5-1.5-5.5Zm119 14 1.5.5-1.5.5v-1Zm10 0 2.5 4.5h-1l-1.5-4.5Zm0 8 .5 1.5h-1l.5-1.5Zm-111 2 3 1 1.5-.5-.5 1.5 10.5 9.5 5 16h-2l1.5 2.5 1.5-.5 5 10h-2l1.5 2.5 2.5.5q19.87 8.63 14 43l-2.5 5.5-3 1-.5-25.5-24-42v-9L276.5 479Zm114 0q5.97 9.03 23 7l6-3v1l-3.5 1.5 2 1q-6.12 7.88-22.5 5.5l-4.5-3.5-2-5 1.5-4.5Zm40 6 1.5.5-2 1 .5-1.5Zm-271 13 7.5 1.5-2.5 4.5-3.5-1.5-1.5-4.5Zm210 24 2.5.5-2.5 5.5-19 7 1-4 2.5-.5.5-1.5 1.5.5.5-1.5 1.5.5.5-1.5 1.5.5.5-1.5 1.5.5.5-1.5 1.5.5.5-1.5 1.5.5.5-1.5 3-1Zm268 6 2.5.5 2 5-3.5.5-2.5-4.5 1.5-1.5Zm-199 7 3.5 9.5-5.5 1.5v-1l1.5-.5.5-9.5Zm-92 5 .5 1.5h-1l.5-1.5Zm296 0 3.5.5.5 1.5 7.5 6.5 4.5 5.5 1.5.5-3.5 2.5-3 1-2.5-.5 2-3-7.5-8.5-3 1v-7Zm-294 1 1.5 2.5h-1l-.5-2.5Zm84 2 .5 1.5h-1l.5-1.5Zm-37 1 .5 1.5-3.5 6.5-8 3 1.5-2.5.5-1.5 9-7Zm-43 5 1.5 2.5h-1l-.5-2.5Zm4 3 9.5 1.5-.5 3.5-4 1-2-4-3-2Zm19 0 7.5.5-5 3-.5 2.5-5.5-.5 3.5-5.5Zm122 0 6.5 2.5-2.5 3.5-4.5-.5 1-4-.5-1.5Zm-342 1 1 11 4.5.5-16.5 7.5-1-2-9.5 7.5-2 4 2 1-26 14-.5 3.5-5.5-3.5 5.5-12.5 15.5-13.5-.5-1.5 13-11 14-2 1 2 3.5-1.5 1.5-3.5Zm-.5 6-1 3h1v-3Zm230.5-1 3.5.5.5 1.5 1.5.5 2 3-.5 2.5-8.5-5.5 1.5-2.5Zm9 8 3.5 1.5-1.5.5-2-2Zm-79 5 .5 2.5h-1l.5-2.5Zm-127 4 1.5.5-1.5.5v-1Zm127 3 .5 1.5h-1l.5-1.5Zm-3 3 3 1 1.5-.5-.5 1.5 9.5 8.5.5 2.5 5-1 7 1 16.5-10.5.5-1.5 4-1q-.73 13.23 8 17l27.5 2.5-17.5 5.5-2-1q-16.92 1.08-23.5 12.5l-4 15 2 6h-2l1.5 2.5 9.5 7.5.5 1.5 1.5-.5-1 3 .5 1.5-15.5-12.5q-7-9.5-3-30l-7.5-9.5-20.5-15.5-1.5-5.5Zm68.5 23v1h1l-1-1Zm68.5-22 6.5 2.5-1.5 2.5-5 1 .5-1.5-.5-4.5Zm-40 11 2.5 1.5-14.5 5.5v-1l12-6Zm227 5 1.5 2.5h-1l-.5-2.5Zm12 4 4.5 8.5-1.5-.5-5.5-3.5 2.5-4.5Zm-30 1 10 3h2q11.5-2 13.5 5.5l-3 1 3 6h-2l-1 2 .5 1.5-1.5-.5-5.5-7.5-14.5-7.5-1.5-3.5Zm-505 3 .5 2.5-5.5 3.5.5-1.5 2.5-3.5 2-1Zm-12 16 .5 6.5-4.5 1.5-1.5-4.5 5.5-3.5Zm537 0 2.5 4.5-2-1-.5-3.5Zm6 12 1.5.5-1.5.5v-1Zm1 2 1.5.5-1.5.5v-1Zm1 2 1.5.5-1.5.5v-1Zm-23 10 1.5.5-1.5.5v-1Zm-6 3 .5 3.5-1 2 .5 1.5-1.5-.5-.5 2.5-3.5 1.5 1 11-2 8 2 3-1.5 13.5-4-1-1.5.5v-25l11.5-20.5Zm-252 3 14.5 3.5-1 2 2.5.5 3 1 3.5 1.5.5 1.5 10.5 8.5 4 6-1.5 3.5-6-8-3.5-1.5-4.5-6.5-22.5-10.5.5-1.5Zm265 0 1.5.5-1.5.5v-1Z"/><path fill="#B99C87" stroke="#B99C87" stroke-width="3" d="m613.5 665 .5 1.5h-1l.5-1.5Zm-210 15 1.5.5-1.5.5v-1Zm214 9 1.5.5-1.5.5v-1Zm-12 14 .5 5.5-5.5 10.5-.5-5.5 5.5-10.5Zm-157 1 1.5.5-1.5.5v-1Zm10 4 12 5 2.5.5 1 2-2-1-.5-1.5-3 1-10-6Zm16 9 .5 1.5h-1l.5-1.5Zm-3 2-5 8-5.5 2.5 10.5-10.5Zm153 7 1 5 4.5 3.5-5.5 2.5-2.5-4.5 3-1-.5-5.5Zm-22 3 .5 1.5h-1l.5-1.5Zm-143 1 .5 1.5h-1l.5-1.5Zm139 1 1.5.5-.5 7.5-4.5-3.5 3.5-4.5Zm-13 1 2.5.5-3.5 5.5-1.5-.5 2.5-5.5Zm-142 3-2.5 3.5-.5 1.5-.5-1.5 3.5-3.5Zm160 5 .5 2.5h-1l.5-2.5Zm-164 1-.5 1.5-.5 1.5-.5-1.5 1.5-1.5Zm2 2 2.5 1.5-.5 2.5-4 2-2-1v2l-27 12v-1l30.5-15.5.5-2.5Zm138 7 5.5.5-3 5v2l-.5 10.5-5.5-.5q-3.5-14 3.5-17.5Zm24 0 .5 1.5h-1l.5-1.5Zm-3 1 5.5 14.5h-1l-4.5-14.5Z"/><path fill="#C1AC98" stroke="#C1AC98" stroke-width="3" d="m307.5 90 5.5.5-1 4 .5 1.5-6.5-1.5 1.5-4.5Zm43 0 3.5 1.5-1.5 4.5-4.5-2.5 2.5-3.5Zm-102 6 3.5.5-2.5 5.5-3.5-2.5 2.5-3.5Zm-12 6 3.5.5-5 9 4 6-5 14 2.5.5q11.22-2.78 10-18l5.5 2.5.5 3.5 1.5.5-14 9-9 14 .5 1.5-18.5 9.5-8.5 9.5-1-2-9.5 6.5-17 29 .5 1.5-9 5-2-12-4.5 1.5-.5 4.5-5 2-.5-1.5 17.5-34.5 3.5-1.5 12-24 32.5-32.5 1 8 9.5-5.5 4.5-6.5Zm-3.5 7-9 7 1 1 5-1 1 3 2-1v-1l-3-2 4-1v-4l-1-1Zm-6 8-2 3h2l2 3h1l-1-4-2-2Zm-12 3-3 2-2 4h2v-1h5l-1-4-1-1Zm17 0-2 5 3 1 1-5-2-1Zm-12 2-1 2h1v-2Zm5 8v1h2l-2-1Zm0 2-8 7 1 2-1 2 10 1 1-10-3-2Zm8 5v1h1l-1-1Zm-19 7-4 6h3l3-4-2-2Zm7 2-1 3h1v-3Zm-32 4-3 3 1 3h2l-1-1 1-2v-3Zm2 0v4l1-3-1-1Zm-7 9v1h1l-1-1Zm21 1v1h2l-2-1Zm-16 1-7 1-2 6 2 1-2 5h-4l-8 12h2l-1 2 2 4v-1l6-2 1 2v-3l-1-1-2 1 3-2 7-9 3-1-2-1 1-2-1-2 7-5-1-1-3-4Zm10 0v1h1l-1-1Zm-21 7-1 2h1v-2Zm11 2-2 2 2 3 1-4-1-1Zm329.5-56 3.5 2.5-2.5 3.5-3.5-2.5 2.5-3.5Zm-237 16 .5 13.5 29 46q-8.21 7.79-5 27l-7.5 9.5-38.5 16.5-2 3 3.5 5.5 17.5 2.5.5 1.5h2l3.5 1.5-2.5 1.5-10-5-20 7-17 16-.5-1.5 4.5-8.5 3.5-1.5 2.5-4.5 1.5-.5-1-4 12.5-18.5 5.5-4.5.5-1.5 23.5-13.5q8.5-8 6-27l-9.5-15.5-12.5-9.5-5.5-15.5-2.5-.5.5-8.5 17-11ZM262 254v1h2l-2-1Zm-99.5-44 4.5 2.5-4.5 7.5-3.5 1.5 2 1-10.5 5.5-.5-5.5 3.5-6.5 6-1-.5 1.5.5 2.5 3-9Zm15 30 2.5.5-1.5 5.5-4.5-.5 3.5-5.5Zm136 6q23.17-3.67 29.5 9.5l.5 1.5h2l1.5.5-4.5.5-14-6-14 10-6.5-3.5-2-4 .5-5.5 3 2 4-5Zm.5 5-5 2h3v4l4 1 2-5-4-2Zm-148.5 1 2.5.5-3.5 5.5-2.5-.5 3.5-5.5Zm185 0 3.5 1.5-1.5 4.5-4.5-2.5 2.5-3.5Zm-80 12 2.5.5-3 11 16 31 1 8-6.5 13.5-4 2 1.5-2.5 4-9-2-1 2-3-2.5-3.5-3.5-1.5 1-2-4.5-9.5-2.5-.5 1-2-4.5-9.5-1.5.5-.5-2.5-4-3-2 1-.5-1.5-1-3-.5-1.5-2.5 1.5-1.5 3.5-.5-4.5 3.5-6.5 15-6Zm33 0 20.5 6.5-1 3 5 2 6 8 2 8v2l3 6-3 1-.5 5.5-11.5-1.5q7.59-5.41 6-20l-15-13-.5-1.5-1.5.5-.5-1.5-1.5.5-.5-1.5h-2l-5-4Zm31.5 24-1 2h1v-2Zm25.5-24 5.5 2.5-2.5 3.5-3.5-2.5.5-3.5Zm-206 1-.5 1.5-3.5 7.5-4 2-1.5-.5 5.5-8.5 4-2Zm218 2 1.5.5-.5 1.5 10.5 3.5-.5 5.5-8.5-2.5-2.5-8.5Zm17 15 1.5.5-1.5.5v-1Zm7 3 11.5 10.5 6 16v11l-2-1-7.5-23.5-2-1-1.5.5-4.5-12.5Zm-245 21 4.5 3.5-.5 2.5-2.5-.5-1.5-5.5Zm143 0 5.5 1.5-1.5 4.5-4.5-.5.5-5.5Zm120 19 5.5 10.5q-3.15 17.15 3.5 24.5l2.5 1.5-.5 18.5-2-1-1 2-.5-1.5v-2q-10.92-17.08-9-47l1.5-5.5Zm-114 5 7.5.5-3.5 11.5-3.5-.5-1.5-5.5-5.5 3.5-.5 1.5-9 1v-1l16-11Zm41 1q8.02 2.98 6.5 15.5h-1l-1-2 .5-1.5-1.5-.5-3.5-11.5Zm-218 11 2.5.5-.5 5.5-5.5-2.5 1.5-2.5 2-1Zm377 0 9.5.5-.5 2.5-9 3-2.5-3.5 2.5-2.5Zm-145 12 16.5.5-.5 3.5-1.5.5 2 1q-1.64 11.14 4.5 14.5l11.5 7.5 6 24-15 22v2L366.5 448h-2l-2.5 1.5-.5 1.5-2.5 1.5-7.5 8.5-1.5.5-7 15 11.5 3.5 6.5-2.5-1-2 6.5-1.5 1.5.5.5-1.5 1.5.5.5-1.5 1.5.5 1.5-4.5 13.5.5 3 14-1 2 4.5 6.5 15 1 9.5-5.5-2-1 4-2 .5-2.5 9.5 4.5.5 1.5 13-3 .5 6.5-6.5 1.5-15-6-8 11-1-2-11.5 6.5-.5 2.5-11.5 9.5 1 2-20.5 12.5 1.5-2.5-.5-3.5-5.5 1.5-.5 1.5-1.5-.5-.5 1.5-1.5-.5-.5 1.5-1.5-.5-.5 1.5-1.5-.5-.5 1.5-1.5-.5-.5 1.5-1.5-.5-6 12 5 10-2.5.5-12-11q-18.58 6.42-14.5 35.5l6.5 8.5 7 2 18.5-15.5 3.5-6.5.5 15.5-5 2-5.5 6.5-17 5-3-1-3 1-6-8-2.5-.5-.5-2.5-5.5-2.5 1.5-10.5 3.5-1.5 1-30-14.5-17.5-3.5-1.5 1-2-4.5-9.5-2.5-.5 1-5-4.5-12.5-1.5.5-4.5-6.5-2.5-.5-.5-2.5-5.5-2.5q2-9.5-3.5-11.5l-2.5-1.5-3.5-5.5-2.5-.5-.5-2.5-5.5-2.5-1-7-1-3-1.5-2.5-2.5-.5-.5-2.5-5.5-2.5q2-9.5-3.5-11.5l-2.5-1.5-3.5-5.5-1.5.5-4.5-6.5-1.5.5-3.5-5.5-3.5-1.5 1-2-4.5-9.5-2.5-.5 1-2-4.5-9.5-2.5-.5 10.5-16.5 11-5 5 1 28-1q5.75 8.25 22 6l2-10 3 4 2.5.5.5 2.5 11.5 4.5-1.5 4.5q-24.06 4.06-34-6h-36l-9.5 6.5-3 11q7.25 21.25 24 33l2.5 9.5 15.5 14.5 14.5 27.5 23.5 22.5q8.8 25.7 28.5 40.5l7 2q16.33-5.17 25.5-17.5l14-27-5.5-2.5h-35l-4.5-2.5-1-6 37-43 4-9v-35q-8-7-6-24l-7.5-10.5-3-2ZM242 361v1h1l-1-1Zm21 1v1h2l-2-1Zm27 2-1 2h1v-2Zm88 105v1h1l-1-1Zm10 8-1 2h1v-2Zm-41 63-1 2h1v-2Zm-31 31-1 3h1v-3Zm0 7-1 2h1v-2ZM123.5 378l4.5.5-2.5 5.5-5 2-.5-4.5 3.5-3.5Zm299 9 1 2 2-1 .5 45.5-2.5-1.5-3.5-.5-5-18 7.5-26.5Zm-296 3 5.5.5-1.5 3.5-4.5-1.5.5-2.5Z"/><path fill="#C1AC98" stroke="#C1AC98" stroke-width="3" d="m406.5 427 5.5 2.5 2 11-18.5 9.5-5.5-3.5 5.5-12.5 1.5 2.5-1 7 2.5.5 9.5-9.5-2.5-2.5-7 1 2-3 6-3Zm-9.5 20v1h1l-1-1Zm33.5-9 7.5 2.5 1 4-1.5 1.5-7-8Zm32 29 4 1 1.5-.5-2.5 6.5-3.5-2.5.5-4.5Zm181 31 4.5 1.5-.5 5.5-4-1-1.5.5 1.5-6.5Zm-6 24 7.5 5.5 8.5 14.5 6.5-2.5-1.5-5.5-4 1-.5-1.5 3.5-5.5 2.5 1.5 2.5 10.5 3.5 2.5-2.5 3.5-8-5-.5 1.5 4.5 6.5 1.5-.5 4 9-18.5 6.5 2-3 8-6 2 1 1-2-5.5-4.5-6.5-7.5-2 1 .5-1.5-.5-1.5-3.5.5-.5 1.5-5.5-9.5 2.5 1.5 3.5-.5-2.5-5.5-3 1-.5-5.5 1.5-1.5Zm-197 17 1.5 2.5-2-1 .5-1.5Zm-16 1 7.5 3.5.5 1.5h2l1.5.5-4.5.5-7-6Zm44 0 5.5 1.5-1.5 4.5-4.5-2.5.5-3.5Zm-26 3 .5 1.5-2 1 1.5-2.5Zm38 3 12.5 6.5-1 4 .5 1.5-12.5-9.5.5-2.5Zm-126 4 3.5 1.5-2.5 1.5-1-3Zm33 2 5.5.5-2 3 4 3 8.5 9.5 3.5 1.5-3.5 1.5-11.5-6.5-1-3-.5-1.5-1.5-.5-.5-1.5-4 1-.5-3.5 3.5-3.5Zm-233 7 .5 2.5h-1l.5-2.5Zm-11 11 .5 2.5-11.5 9.5.5-1.5 6.5-8.5 4-2Zm45 0 3.5 2.5-1.5 2.5-3.5-.5-1-2 2.5-2.5Zm-36 6 3.5 2.5-2.5 3.5-3.5-2.5 2.5-3.5Zm487 6 1.5.5 1 7-1.5.5-4.5-1.5 3.5-6.5Zm-187 4 2 1 1.5-.5-1.5 7.5h-40l-12 6v-1l9.5-4.5-2-1 10.5-5.5 32.5-.5-.5-1.5Zm164 8 19.5 8.5 2 3-7.5.5h-2q-8.75 1.75-10.5-3.5l-1.5-8.5Zm-221 6 5.5.5-15.5 5.5 1-2 9-4Zm253 0 1.5 3.5h-1l-.5-3.5Zm-268 4 1.5.5-1.5.5v-1Zm-5 1 3.5 1.5-1.5 3.5-14.5 8.5-8 15 32 26-2.5 1.5-3-1-2.5-.5 1-2-20-5-2.5-5.5-2.5-.5-3.5-5.5-3.5-1.5 1-6-1-4q1.04-13.46 10.5-18.5l17-6Zm279 2 4.5 9.5-1.5-.5-5.5-3.5 2-1 .5-4.5Zm-18 9 4 6 1.5.5 12 25v12l-3.5.5-4.5-5.5 2-1-1-14 .5-1.5-1.5-.5.5-1.5-1.5-.5.5-1.5-1.5-.5-7.5-17.5Zm12 5 5.5 2.5-2.5 6.5-1.5-.5-1.5-8.5Zm9 9 2.5.5-3.5 5.5q-5.5-3 1-6Zm10 12 4.5 2.5-1.5 3.5-4.5-1.5 1.5-4.5Zm-45 7 7.5 2.5 1 2-.5 1.5 5-2 .5 4.5-2.5 1.5-6-5-3 5-1-2-4.5 11.5 5 14-2.5 1.5-8-6-1.5 2.5 3.5 4.5-3.5-2.5-1-6 2-7-1-8 4-2 2.5-8.5 4-2Zm-8.5 16-1 2h1v-2Zm-225.5-3 1 2 9.5 7.5-11-8 .5-1.5Zm14 13 9 15h9l22.5 11.5-4.5.5-11-6q-15.5 4-19.5-3.5l-4-11 .5-1.5-1.5-.5-.5-4.5Zm216 12 5.5 8.5q-4.33 26.33 6 38l-3.5-2.5-2 1 .5-1.5-7-17v-23l.5-1.5-1.5-.5 1.5-1.5Zm-172 15 8.5 2.5.5 1.5h2l3.5 1.5-4.5.5-10-6Zm17 6 9.5.5q8.87 2.63 7 16-22.97 5.53-35.5 21.5l-1-2-2-1-2 4-1.5-.5 6.5-11.5 14-4 1.5.5.5-1.5 11.5-10.5 2-4-1.5-2.5-5-3-4-2Zm11.5 9-1 2h1v-2Z"/><path fill="#C1AC98" stroke="#C1AC98" stroke-width="3" d="m605.5 709 .5 6.5 12.5 20.5 7 1 3-2-1 2-1.5.5-1 3 6.5 8.5 4.5 3.5v6l-6.5 9.5-23.5-.5-6-17v-31l4-8-.5-1.5 1.5.5.5-1.5Zm-2.5 20-1 2h1v-2Zm1 11-1 3h1v-3Zm0 10-1 2h1v-2Zm5 0-3 3 4 9h2l-3-12Zm18 7-2 3 3 1 1-2-2-2Zm-74.5-35 5.5 11.5-3-2-2.5-9.5Zm-115 26 1.5.5-1.5 2.5-1.5-.5 2-1-.5-1.5Zm148 2q5.5 3-1 6l-2.5-.5 3.5-5.5Zm-154 2 1.5.5-2.5 1.5 1-2Zm-17 9 2.5 1.5-3.5 5.5h-2l-2.5-.5 2.5-5.5 3-1Z"/><path fill="#A67E68" stroke="#A67E68" stroke-width="3" d="M314.5 90h19l2.5 2.5-2.5 3.5h-19l-2.5-2.5 2.5-3.5Zm-32 12 22.5 6.5-16.5 11.5-9 1q-18.53 16.47-46 24l-1.5-2.5 6-5 5.5-11.5 8-2q11.08-15.42 31-22Zm-28 6 3.5 2.5-2.5 3.5-3.5-2.5 2.5-3.5Zm-29 24 2.5 6.5-1.5-.5-4 1-.5-3.5 3.5-3.5Zm15 20 1.5.5-2 1 .5 2.5 3.5 1.5 8.5 13.5 27.5 16.5 2 23-7.5 9.5-27.5 21.5-7 11q1.83 16.33-6 23l2.5.5 15.5-14.5-28.5 26.5-1.5-30.5 18-23v-16l-15.5-7.5q-5.5 7.5-21 5l-11.5-8.5q20.03-31.97 48.5-55.5ZM196 204l-3 4 5 2v-5l-2-1Zm-13.5-42 3.5 1.5-1.5 4.5-4.5-.5 2.5-5.5Zm21 0 .5 2.5-6 9 2.5.5 9-9 1.5 1.5-25.5 35.5-3.5 1.5.5 1.5-7 5-1.5-2.5 5-9 1-3 5.5-11.5 1 2 5-1 3 1 3.5-5.5-2.5-.5-3.5 2.5-.5-2.5-5 3 3-4 2.5-1.5 7.5-13.5 4-2ZM192 192l-4 2-7 8 1 1 10-8v-3Zm-18.5-15 1 3 3-1-2 3-3.5 2.5-.5 1.5-3.5-.5 5.5-8.5Zm-14 21 1.5.5 1 2-7.5 3.5-.5-2.5 5.5-3.5Zm9 7 4.5 8.5-11 10 4.5-9.5 1.5-.5.5-8.5Zm-17 2 1.5 2.5-2-1 .5-1.5Zm36 9 8.5 6.5 2 6-11 33 5 8q-14.13-3.13-18 4l-2.5 8.5-3.5-.5 12-15v-8l-5-10 9-5 12-19-1.5-2.5-7.5 3.5-9.5 14.5-3.5 2.5-8.5 9.5-2.5 1.5-9 10 1.5 2.5-2-1-7.5 5.5-1.5 3.5-6.5 2.5 2.5 4.5 1.5-.5 1.5-4.5 1 2 5-4-.5 3.5-6.5 8.5-4 2-2-6-4.5 1.5-.5 4.5-2.5-.5-3-14 7.5-13.5 27-10 10.5-9.5-.5-1.5 7.5-5.5 1.5-3.5 2.5-.5 5.5-13.5Zm-38 2 1.5 2.5-6.5 13.5-.5-5.5 5.5-10.5Zm151 28 5.5 2.5 2 9-2.5.5-5.5-2.5.5-9.5Z"/><path fill="#A67E68" stroke="#A67E68" stroke-width="3" d="m172.5 252 1.5 6.5-5.5 8.5-1.5-2.5 6-11-.5-1.5Zm142 0 3.5.5-3.5 5.5-2.5-3.5 2.5-2.5Zm15 0 1.5.5-1.5.5v-1Zm-161 2-7 8-5 2v-1l12-9Zm175 4 12.5.5-3.5 5.5-3.5-.5-2.5-3.5-3-2Zm16 0 11.5 5.5-5.5 1.5-1-2-4.5-2.5-.5-2.5Zm-96 6 5.5.5-12.5 5.5.5-1.5.5-1.5 6-3Zm65 0 1.5.5-2.5 1.5 1-2Zm4 0 3.5 1.5-3.5 4.5-2.5 1.5 1 5-2.5-1.5-4.5-2.5 2-1 6.5-7.5Zm44 12 11.5 5.5.5 2.5 6.5 3.5-2.5.5-12.5-5.5-.5-2.5-3.5-2.5.5-1.5Zm-215 1 1.5 11.5-4.5 11.5-8.5 3.5 1 2v2l2.5 4.5 2.5-.5-3-5 2.5 1.5 1.5.5 7.5 9.5 3.5-1.5.5-4.5 11-6 .5 2.5-17.5 14.5-2-5-4.5 1.5q-18.28 12.72-27.5 34.5l-2.5-.5-2-5 2-1-.5-5.5-1.5-.5q2.42-21.08 13.5-33.5l4.5-2.5 1.5-3.5 3.5-1.5 14.5-23.5ZM146 306l-2 11 5 1 1-2-1-3 1-5-4-2Zm-5 7-3 5 4 6h2l-2-10-1-1Zm-7 11-2 2 1 4 5-1v-3l-4-2Zm202.5-45q15.27 7.73 12.5 33.5l-1.5 3.5-5.5-10.5v-11q-7.94-4.14-5.5-15.5Zm-85 2 1 7 11.5 2.5 14.5 27.5 3.5.5-5.5 9.5-4.5 3.5-1.5 3.5-6.5-23.5-7.5-9.5-28.5-3.5 12.5-13.5 11-4Zm145 8q17.59 17.41 11.5 58.5l-3.5 5.5-24 12-2.5-14.5 20-13q8.55-9.45 4-32l-8-15h1l.5 1.5 1-3Zm-208 11q13.88 2.63 19.5 13.5 3.58 25.92 23.5 35.5l14 5 19-6 5.5 3.5.5 1.5 2 1 6.5-5.5 1.5-2.5 1.5.5 1 2-1 3 4.5 2.5 1-2 1 2 1.5.5-.5 2.5-1-2-3 11-15-6h-25q-6.38-8.12-23-6L207 366.5l-3 11 15 30 25.5 25.5 1.5.5q.72 11.78 8.5 16.5l3.5 1.5q1.89 18.11 16.5 23.5l1.5.5q1.07 14.43 12 19v9l15 30 9 12v37l12.5 14.5 15.5 10.5 2 28 13.5 16.5 9.5 2.5 2.5 3.5q17.91 1.59 25.5 13.5l-2.5 1.5-13-7q-21 3-30-6L326 640.5l-4-16-20-26q-3.23-20.77-14-34v-13l-6-11v-19l-6-11-2-17-26-39-30.5-30.5-13.5-6.5-12-21q2.29-17.29-6-24v-70l2.5-2.5Zm165 22 3.5 2.5 8.5 14.5 1.5-.5 5.5 7.5 4.5 1.5-5 1-.5 4.5-12-15-3.5-1.5 3-1-5.5-13.5Zm-59 2 4.5.5-14.5 5.5 1-2 9-4Zm23 0 7.5.5-1 4 .5 1.5-7.5-.5 1-4-.5-1.5Zm-39 7-1 2-4 3 3-4 2-1Z"/><path fill="#A67E68" stroke="#A67E68" stroke-width="3" d="m353.5 332 2.5 1.5-1.5.5-1-2Zm195 4 3.5 2.5-2.5 3.5-3.5-2.5 2.5-3.5Zm-200 4 15.5 13.5-13.5.5q-5.6-3.1-2-14Zm212 2 3.5 2.5-.5 3.5-5.5-2.5 2.5-3.5Zm6 12 3.5 2.5-5.5 3.5-.5-3.5 2.5-2.5Zm-406 1 .5 1.5-11 13v6l3.5 2.5 7-6 1.5 5.5-6 2-.5 7.5-5-3h-2l-10 1-5.5-2.5-.5-1.5-8.5-3.5 1.5-2.5 8-4-.5 3.5.5 1.5 4 2h2l4.5-1.5-1-4v-2l-2-3 8-2-.5-1.5 1.5.5.5 1.5 5.5-3.5-.5-2.5-1.5-.5 6.5-4.5Zm-39 5 4.5.5-.5 5.5-5.5-1.5 1.5-4.5Zm16 27 .5 5.5-6.5 3.5-.5-1.5 6.5-7.5Zm-18 6 .5 13.5-4.5 1.5-1.5-8.5 5-3-2-1 2.5-2.5Zm19 27 9.5 7.5 2 4-2.5.5-4-5-3-1q-9.4 10.6-10 30l-3.5-.5-1-18 1.5.5 2.5-1.5 2-4-2-1 4.5-5.5-1.5-.5 5-2 .5-3.5Zm257 0 5.5 2.5-10.5 20.5-1-11-9.5 7.5-8 20 19 6 6.5 14.5 22.5 1.5-.5 1.5-17 3-12.5-7.5q.53-11.53-7.5-14.5l-28 10-5.5-2.5 8.5-15.5 8.5-4.5 11.5-18.5 8-6 10-7Z"/><path fill="#A67E68" stroke="#A67E68" stroke-width="3" d="m422.5 432 16.5 14.5 7.5 15.5 3.5 2.5-2.5 3.5-1.5.5-1.5 4.5-1-5-5.5-1.5 1.5-4.5 4.5-.5-18.5-21.5-4-1-29 23-2.5-6.5 1.5.5 22.5-14.5 5.5-6.5 2.5-1.5.5-1.5Zm-301 30 3.5.5 3 10 13.5 18.5 18.5 8.5 2.5 4.5 2.5-.5.5-1.5.5 1.5-4 4v42l4 2-9.5 1.5-.5-28.5-2.5-2.5-3.5 2.5-.5 15.5-3.5-1.5-2-11-17-29 1.5-.5 25 18 2.5-9.5q-18.19-5.81-27.5-20.5-4.25 10.25-8.5 3.5l1.5-27.5Zm322 13 .5 7.5q-2 5.5-11.5 3.5l-11.5-5.5 4.5-.5 12 5 6-10Zm201 29 3.5 2.5-2.5 3.5-3.5-2.5 2.5-3.5Zm-232 6 14.5.5-1 4 5.5 1.5 1-2q9.23 7.27 5.5 27.5l-4-3-9.5-14.5-22.5-3.5 1.5-4.5 10.5-.5-1.5-5.5Zm238 6 3.5 2.5-2.5 9.5-3.5-2.5 2.5-9.5Zm-474 1 8.5 7.5-6.5 15.5-8.5-7.5-2-5 8.5-10.5Zm189 11 8.5.5-20 13 1 8-1.5.5-5.5-10.5 3.5-5.5 14-6Zm-248 6 2.5.5 2.5 11.5 7.5-6.5 2.5-5.5 5.5 3.5-2 7-19.5 19.5-2.5-1.5q-1.75-8.75 3.5-10.5l1.5-.5 1-3-1.5-2.5-4.5-3.5 3.5-8.5Zm539 0 3.5 2.5-.5 3.5-5.5-2.5 2.5-3.5Zm-486 12 3.5 2.5-1.5 3.5-3.5-.5-1-3 2.5-2.5Zm222 0-3 4-2 1 1-2 4-3Zm251 0 2.5.5 7 8-2 3 2 1-8.5 5.5q-6-3.5-2.5-16.5l1.5-1.5Zm-258 5 .5 1.5-2 8 17 9-5 1-1.5 5.5-4.5-2.5-1.5-7.5-20-2-2.5 1.5 8 21 7.5 8.5 7.5 4.5-16.5.5-10.5-7.5-2-35 1.5.5 4.5-1.5-1-4 9.5-.5-2.5 3.5.5 2.5 5.5-.5 1.5-3.5 6-3Zm-238 1 2.5.5-2.5 5.5-7.5-.5 7.5-5.5Zm347 0 3.5 1.5-1.5 4.5-4.5-2.5 2.5-3.5Zm-333 12 2.5.5-12.5 5.5v-1l10-5Zm28 0 2.5 6.5-1.5-.5-4 1 .5-1.5 2.5-5.5Zm-69 5 2.5 1.5-14.5 14.5-1.5-1.5 8.5-11.5 5-3Zm28 1 1.5.5-1.5.5v-1Zm457 6 6.5 2.5-.5 8.5-6-11Zm-464 6 2.5 1.5-19.5 20.5q-15.56 2.94-21.5 15.5l-3.5 4.5-3 1-.5-3.5 6-9-4-2 4.5-13.5 5 3 5-8 14-5 2.5 1.5-9 10 2.5 1.5 12.5-11.5 3.5-4.5 3-2ZM114 606l-2 1-3 4v1l5-3v-3Zm300.5-18 4.5.5-27.5 11.5v-1l23-11Zm223 1 4 2 1.5-.5 5 14-1.5.5-8.5-4.5 4-1-1.5-5.5-4 1-.5-4.5 1.5-1.5Zm-25 1 7.5 16.5-1.5-.5-6.5-2.5.5-13.5Zm17 21 6.5 4.5 12 26v12l-2.5.5-4.5-11.5v-2l-5-17-8-11 1.5-1.5Zm13 1 8.5 6.5 2 4-1.5.5-7.5-4.5-1.5-6.5Zm-546 17 4 1 1.5-.5-.5 6.5-2.5-.5-2.5-6.5Zm517 13 4.5 1.5.5 4.5 4.5-1.5.5-1.5 6-3 .5 8.5-1.5-.5-5-2-8.5 5.5-9 18v31q-8.94 8.56-6.5 28.5l-3.5 2.5-1 2 1.5 2.5-2.5.5q-3.18 20.68 6 29l-17.5.5-.5-6.5 1.5.5 4.5-1.5-.5-4.5-1.5-.5 2-4-8.5-1.5-3.5 2.5q7.28-3.72 6.5-15.5l2 1 3.5-5.5-2-1 8-10q-2.29-17.29 6-24v-20l13.5-35.5Zm-38 2 .5 3.5-5.5 8.5-.5-1.5 5.5-10.5Zm-423 10 3.5.5-.5 5.5-5.5-1.5 2.5-4.5Zm-17 6 2.5.5q-2.5 20-15.5 29.5l-1.5-.5 14.5-29.5Zm9 18 5.5.5q2.71 19.21-9.5 23.5l-2.5-1.5 3.5-10.5 2.5-1.5.5-10.5Zm258 1 7.5 16.5-4.5.5-5.5-15.5h1l.5 1.5 1-3Z"/><path fill="#A67E68" stroke="#A67E68" stroke-width="3" d="m612.5 684 2.5.5q7 9.5 3 30l6 17-2.5.5q-14.82-14.64-9-48Zm-191 12 15.5 5.5-5.5.5-10-6Zm-304 6 2.5.5-1.5 5.5-3.5-.5 2.5-5.5Zm322 0 15.5 5.5-5.5.5-10-6Zm28 11 5.5 2.5-12.5 14.5-6 2 1.5-2.5 1.5-7.5 9.5-4.5-2-3 2.5-1.5Zm-328 1 4.5 1.5-1.5 4.5-4.5-1.5 1.5-4.5Zm-28 6 2.5.5q-1.24 13.24 6 18v29l-11.5.5-.5-41.5 3.5-6.5Zm327 12 10.5.5-9 6-3.5 9.5-11 6 .5-1.5q-1.63-13.63 6.5-17.5l6-3Z"/><path fill="#97514B" stroke="#97514B" stroke-width="3" d="m305.5 108 12.5 2.5-2.5 3.5-9 2-13 10-11 2-46.5 28.5q-25.8 21.7-44 51 5.24 11.26 24.5 8.5l9-5 14.5 7.5v16l-18 23v28l1.5 2.5 29-27 21-7 11 4 15-11 3 11 14 5 1.5-.5.5 1.5 4.5-3.5 1-2-2-1 9.5-4.5 17.5 9.5.5 1.5 3.5-.5 3.5-5.5 3.5 1.5 1.5 2.5 3.5 1.5-5.5 1.5-3-1-3 6-11-6-2 4-7 2 2.5-3.5-.5-1.5-7-1-10 6-11-6h-44l-6.5 3.5-1.5 2.5-1.5.5-3.5 11.5q-16.37 2.63-22.5 15.5l.5 1.5 23 1 10.5 7.5 8.5 28.5 16-6v1l-16.5 7.5-1.5 2.5-7.5-3.5-.5-1.5h-5l-14-12-1.5 21.5q3.83 6.17 17 3l-17.5 5.5-25.5-22.5-6-18-10.5-10.5-9-3-2.5 2.5v70q8.29 6.71 6 24l14.5 23.5 11 4 30.5 30.5 28 43q-2.29 17.29 6 24v19l6 11v13q10.5 10.5 12 30 20.2 15.8 26 46l16.5 16.5q11.78 12.22 38 10l19.5 12.5 2 9h-1l-2.5-5.5-8-5h-55L288 658.5l.5-3.5 11.5-3.5v-16q-11.54-12.46-14-34L256.5 566l-8-2-2.5 1.5 6 11q-7.24 4.76-6 18l6 11 6 25 12 22-2.5.5-13.5-12.5-8-22v-13l-18-47v-13L217.5 520l-5-3q-12.18 9.83-15 29l-5.5-3.5-2.5-8.5-9 1-.5-1.5 5-9-8.5-7.5-8.5 11.5 9.5 11.5 2-1 .5 1.5-2.5 4.5-3.5-2.5-1.5-2.5-4.5 1.5-2.5 4.5-3.5-1.5v-37l6-14-4.5-1.5-1.5 4.5.5 1.5h-7L138 487.5 124.5 462l-3.5.5-1.5 18.5-3.5-2.5-2-4v-39l5.5-3.5 2 18 4-1 2 7 3.5-.5q-.13-19.63 9.5-29.5l3.5 1.5 3 4-3 1q2.12 16.62-6 23v19l7.5 15.5 7 2 6.5-5.5q5.17-5.83 3-19l6-11v-17l-20-6 .5-1.5 1.5-.5-9.5-11.5-2.5.5-.5 3.5-4.5 1.5 2 1-7 6 4-4q-3-11.5 2.5-14.5l3.5 2.5.5 1.5 18 8 7.5-4.5 3-5q-7-6.5-6.5-20.5l-11 6-5.5-3.5-1.5-2.5-7.5-.5 4.5-11.5 5.5.5-1 6 3.5 5.5 2.5-.5-2-5 2-1 .5-1.5 5 2 1-7 4 1 1.5-4.5v-2l-1.5-5.5-8 6-2.5-8.5 11.5-15.5 6.5-1.5-5-7 17-33-2.5-.5-8.5 7.5 11-13v-9l12-28-5-9 5-8q-1.89-17.39 6-25l-5.5-8.5-5-3-7 15-.5-2.5-.5-6.5-11 6-.5-2.5 6-9-2.5-.5-10.5 9.5 11-13-2-7 8.5-6.5.5 1.5-5 7 1.5 2.5 7.5-5.5-.5-1.5 11.5-9.5q12.19-28.31 34.5-46.5 30.46-8.04 51-26l9-1 17-12ZM206 438q0 14-7 21l21 23 14 28q-3 18 4 26l13 10 1-2v-58l-10-19q-14-19-36-29Zm-30 6-2 3 1 39h4l1-2-1-39-3-1Zm6 54-2 2 1 10h4l1-10-4-2Zm41.5-360 4.5 1.5-2.5 4.5-3.5-2.5 1.5-3.5Zm-47 36 2.5 1.5-2.5 4.5-2.5-.5 2.5-5.5Z"/><path fill="#97514B" stroke="#97514B" stroke-width="3" d="m189.5 180 2.5.5-1.5 5.5-4.5-.5 3.5-5.5Zm-25 12 2.5 1.5-2.5 4.5-2.5-3.5 2.5-2.5Zm-14 16 5.5 4.5-5.5 7.5-1.5-2.5 1.5-9.5Zm-7 22 1 4 2.5.5-3 2-1.5 3.5-4.5-1.5 2.5-4.5 1.5-.5 1.5-3.5Zm25 9 2.5 1.5-10.5 9.5q-18.21 1.79-28.5 11.5l-5.5 11.5-.5-8.5 3.5-6.5 39-19Zm3 14 1.5.5-16.5 31.5-1-3-22 12-3.5-5.5 2.5-1.5 4 1 3-1 7.5-5.5 8.5-15.5 2.5-1.5.5-1.5 13-10ZM160 264l-4 4 1 2 2-1 3-4-2-1Zm206.5 0 3.5 1.5 4.5 10.5 1.5.5 2.5 3.5 2.5 1.5-2.5.5q-13.54 1.54-16.5-7.5l-2-5 1.5.5 4.5-1.5.5-4.5Zm-189 6 4.5.5-9.5 21.5-11 6 .5-1.5 1.5-8.5 8.5-1.5 2-13 3.5-3.5Zm153 4 23.5 10.5q8.57 10.93 6 33l-6 1 3 5-2.5-1.5-1.5-.5q-8-8.5-5-28L336.5 279l-5.5-2.5-.5-2.5Zm59 13 4.5 2.5q12.17 12.33 8 41L391.5 344l-14 4-.5-1.5 2.5-3.5 6.5-5.5q13.28-10.72 10-38l-9-11 2.5-1.5Zm-240 5-.5 3.5-4.5 7.5.5-3.5 4.5-7.5Zm6 8 2.5.5-2 6 .5 1.5-6.5-3.5 1.5-2.5 4-2Zm-14 5-3 4-1-2 4-2Zm23 1 3.5 1.5.5 2.5 1.5.5-.5 1.5-1.5.5-.5 4.5-2-5-3.5-2.5 2.5-3.5Zm-20 5 5.5 2.5-1.5 4.5-4.5-1.5.5-5.5Zm11 10 1 3 6-1-2 5-22.5 11.5-5.5 13.5-4.5 2.5-1.5 3.5-1-4-3 5-2 1-.5-13.5 1.5.5 3.5 1.5 1.5 4.5 5.5-3.5 3-9 20.5-20.5Zm-22 3 4.5 1.5-.5 3.5-5 1-.5-4.5 1.5-1.5Zm166 0 1.5.5-1 4 .5 1.5-6 2-1-2-4.5-.5 10.5-5.5Zm12 0 6.5 1.5-1.5 4.5-5.5-.5 1-4-.5-1.5Zm14 0 5.5.5-1 4 .5 1.5-6.5-1.5 1.5-4.5Zm10 0 23.5 11.5-3.5 1.5-1.5-.5-.5 2.5-4.5-2.5 4-1q-5.27-6.73-18-6l1-4-.5-1.5Zm25 3 7.5 12.5h-1l-.5-1.5-3.5-1.5-4-7 1.5-2.5Zm-78 14-.5 3.5-.5 1.5-2.5 1.5-3.5 4.5-3 2-2.5-1.5-1.5-2.5-3.5-1.5q13.52 1.02 17.5-7.5Zm8 7 3.5 2.5-2.5 3.5-3.5-.5 2.5-5.5Zm-134 8 1.5.5-8.5 7.5 7-8Zm-15 4 7.5 5.5-10.5 3.5-.5-5.5 3.5-3.5Zm-21 5 3.5 2.5 2.5 4.5 4.5.5-6 3-1.5 2.5-3 2v-15Zm2 25 8.5 5.5-10.5 1.5-.5-4.5 2.5-2.5Zm-8 17 4 1 1.5-.5-2.5 6.5-3.5-2.5.5-4.5Zm273 25 2.5.5v27l2.5 2.5 16-13 2.5 1.5-15 18 3.5 5.5 12-4 6.5 3.5 1.5 3.5 5.5 2.5-5.5 1.5-22.5-1.5-7.5-15.5-17.5-4.5q3.3-18.2 15.5-27.5Zm75 29 4 1 1.5-.5-2.5 6.5-3.5-2.5.5-4.5Zm-29 1 5.5.5-1 4 .5 1.5-6.5-1.5 1.5-4.5Zm10 10 .5 2.5-5.5 8.5-.5-3.5 5.5-7.5Zm-315 14q9.31 14.69 27.5 20.5l-2.5 9.5-26-18-.5 1.5 2 3-2-1-1.5-9.5-2.5-.5 5.5-5.5Zm16.5 18-1 4 6 2v-3l-5-3Zm-27.5 0 10.5 4.5.5 1.5 3-1q12.04 11.46 16 31l2.5-.5q-3.75-13.75 2.5-17.5l3.5 2.5v28l-3.5 5.5-2.5-.5-.5-5.5-1.5-.5 2-8-10.5-3.5-7.5 17.5 2 1-24 19-7.5 15.5-.5-4.5 12.5-25.5 2 1 19.5-19.5 2-7-5.5-3.5-7 10-3 2-3-12-5 3-.5-29.5 3.5-3.5Zm15.5 12q-3 14 8 18h2l-5-14-5-4Zm269.5-6 11.5 2.5-.5 3.5-11.5 1.5 1.5 4.5q20.33-3.33 26.5 7.5l8 14-2.5.5-16.5-4.5 1-3-2-1-3.5-4.5-18.5-9.5 3.5-5.5 2.5-1.5.5-4.5Zm25 0 4.5 2.5-.5 3.5-5.5-1.5 1.5-4.5Zm-61 23-1 4-8 3 2-3 7-4Z"/><path fill="#97514B" stroke="#97514B" stroke-width="3" d="m114.5 543 4.5 3.5 1 3-1.5 2.5-4 3v-12Zm276 3 1.5.5-11.5 5.5v-1l10-5Zm-222 4 1 2 4-1 .5 1.5-5.5 7.5-1.5-.5 1-6-1.5-2.5 1.5.5.5-1.5Zm200 14q15.61-3.11 21.5 3.5l-.5 4.5-5-2-.5 18.5 3.5 4.5 13.5 1.5-11.5 5.5-13.5-10.5-10-24 2.5-1.5Zm-218 6 4.5.5-11 8 1.5 3.5 5-1 4 1 1.5-.5-6 25-15.5 23.5-2.5-1.5 6-15-2.5-1.5-9.5 6.5-9.5 11.5-2.5-1.5 9.5-10.5 2.5-.5-2.5-4.5-19.5 12.5-1.5 3.5-.5-7.5 5.5-6.5 17-11 19.5-19.5-1.5-2.5-7.5 5.5-9.5 10.5-4 2-1.5-2.5 8.5-9.5-1.5-.5 23.5-17.5Zm246 0 28 12 8.5.5-1 4 .5 1.5-13.5-.5 1-2-5-3 2-1q-6-8-22-6l1.5-5.5Zm210 9 5.5 8.5q-4 14.5 2.5 18.5l14.5 5.5 4 6 9 24-6 2-2.5 10.5-3.5-2.5-.5-9.5-6.5 3.5-1.5 2.5-3.5-.5-1.5-5.5-3.5.5-12.5 34.5-.5-35.5 6-11 .5-51.5Zm18.5 33-7 18v11l5 1 7-17v-9l-5-4Zm-181.5-30 6.5 2.5-2.5 3.5-4.5-.5 1-4-.5-1.5Zm194 12 4.5 1.5-.5 4.5-5.5-2.5 1.5-3.5Zm-540 15 2 3 2.5.5-5.5 8.5-.5-10.5 1.5-1.5Zm62 21 2.5.5q-4 25 6 36l-5 9 5 8v31l5 9-5 12 1.5 2.5 3.5-.5 8.5-15.5 4-1 .5 11.5 12 17-1.5-.5-8-4-18.5 12.5-2.5 10.5-5.5-.5q-2.25-16.25 6-22l-2.5-1.5-10 6-21.5-13.5-2-23 6.5-12.5 2 1q12.21-4.29 9.5-23.5v-2l.5-17.5 5 1 .5-5.5-2-1 2-20 3.5-3.5ZM140 714l-2 5 5 1 1-4-4-2Z"/><path fill="#97514B" stroke="#97514B" stroke-width="3" d="m141.5 648 2.5 2.5 1 27-1.5 7.5-4-1-1.5 5.5 3 1-3.5 6.5-4-1-9 16-7 2-3.5-6.5 1.5.5 4.5-1.5-.5-4.5-1.5-.5.5-2.5 1 2 .5-16.5 21.5-36.5Zm-5.5 12-15 30h2q13-9 15-29l-2-1Zm449.5-12 2.5 1.5v47L574.5 718l-9 2-7.5-17.5v-15l9.5-21.5 2.5.5q8.89 9.61 7.5 29.5l3.5-.5 1-42 3.5-5.5Zm-481 6 3.5.5-2.5 5.5-3.5-2.5 2.5-3.5Zm468 0-2 3-1-2 3-1Zm-170 39q3.75 6.75 18 3l10.5 5.5-27.5.5-1-9Zm31 9 15.5 5.5-5.5.5-10-6Zm18 6 15.5 5.5-2 1 2 3-11 6-2.5 8.5-16 1 .5-3.5 3.5-9.5 20.5-1.5-.5-2.5-4.5-3.5-.5-1.5-5-3Zm-333 27 1.5 2.5h-1l-.5-2.5Zm476 3 5.5 2.5q-3 15 3 21l-3 1-.5 4.5q-8.98-8.94-5-29Zm-169 4 .5 2.5-1.5 9.5-9 2v-1l4.5-2.5-.5-2.5-5.5-.5 2.5-5.5 9-2Zm156 0 .5 2.5-5.5 7.5-.5-2.5 3.5-6.5 2-1Zm3 14 3.5.5-1.5 5.5-4.5-1.5 2.5-4.5Zm-179 6 4.5.5-2.5 5.5-5.5-.5 3.5-5.5Z"/><path fill="#6A3138" stroke="#6A3138" stroke-width="3" d="m171.5 216 2.5.5-6 11 2.5.5 9-6 .5 5.5-6.5 9.5-11 6v-1l3.5-1.5 2-4-.5-2.5-23.5 9.5.5 2.5 10.5.5-24.5 11.5-.5-2.5 8.5-16.5 4 1 2-4 2.5-1.5-.5-1.5q16.32-4.68 25-17Zm150 42 2.5.5-3.5 4.5-2 1-.5-2.5 3.5-3.5Zm21 6 11 6 3-6 3.5 1.5q.25 10.75 7.5 14.5l20.5 7.5 6 8 2 23-15.5 24.5-2.5 1.5-1.5 2.5-7.5-5.5-8.5-14.5-1.5.5-5-9 6-1q2.94-24.94-8.5-35.5l-21.5-8.5 2.5-3.5 9.5-3.5.5-2.5Zm32.5 25-2 3 3 1 1-2-2-2Zm-8 41-1 3 6 3v-2l-5-4Zm-181.5-60 5.5.5-11.5 34.5-2-5-3.5-.5.5-3.5 1.5-.5 10-18v-6l-.5-1.5Zm-8 11-.5 1.5-.5 1.5-.5-1.5 1.5-1.5Zm-43 1 3.5 2.5-1.5 3.5-4.5-1.5 2.5-4.5Zm-8 2 2 4 3.5 2.5 1 3-3.5.5q-5.5-2-3-10Zm38 11 1.5.5-2.5 1.5 1-2Zm-21 3-.5 3.5-4.5 6.5-.5-1.5 5.5-8.5Zm24 8 8.5.5-6 5-.5-1.5-1.5-.5-.5-3.5Zm10 6 2.5.5-17 33 5 7-3.5 1.5-2.5-13.5 12-22-2-1 5.5-5.5Zm-19 6 3.5 2.5-.5 2.5-5 1-.5-3.5 2.5-2.5Zm5 5-1.5 4.5-3.5 8.5-2.5 1.5.5 4.5 4.5.5-14.5 11.5-15.5.5-4 11 8.5.5 2.5-1.5-.5 4.5-11 3-3.5-5.5 3-1-.5-5.5-2.5-.5 2.5-4.5 1 4 5-7 3 1 3.5-1.5-.5-3.5-2.5-.5 6.5-11.5 22.5-11.5-.5-1.5Zm78 1 14 12 5.5.5-7 6-4.5 5.5-9.5-2.5 1.5-21.5Zm60 0 10.5 1.5-1.5 4.5-10.5-1.5 1.5-4.5Zm41 6 1.5.5-1.5.5v-1Zm5 2 5.5 3.5-4 1 8 6 3 7-14-13 2-1-.5-3.5Zm-60 4 2.5.5-16.5 11.5 8-9 6-3Zm-17 2 1.5.5-1.5.5v-1Zm-115 16 5.5.5-10.5 7.5-.5-2.5 3.5-4.5 2-1Zm-11 35 4.5 2.5 1 4-2.5.5-3-7Zm-5 7 4.5 1.5 1.5 2.5 7 2 8-6q-.25 14.25 6.5 21.5l-3.5 4.5-8 4-8.5-5.5 3-1-1.5-17.5-10.5-1.5 1.5-4.5Zm-17 25 3.5 2.5.5 2.5 5-2 .5 4.5q-8.51 5.99-7.5 21.5l-3.5-.5-1.5-17.5-5 3 3.5-4.5 4.5-9.5Zm22 11 3.5.5 1.5 2.5 15.5 3.5-17 10q-6.83 7.67-4 25l5.5 9.5 4 2 8-7 .5 2.5-6.5 9.5-6 2-5.5-3.5q-8.85-10.65-6-33 7.97-7.03 6.5-23.5Zm61 6q22.89 9.61 36.5 28.5l10 19v58l-1.5 2.5-12.5-10.5q-7.45-7.55-4-26l-14-28-21-23q7-6.5 6.5-20.5Zm216 2 22.5 19.5-.5 2.5-11.5 1.5 1 4-1.5-.5-19-11-3.5 2.5-7 14 2 1-4.5.5-3.5-8.5 14.5-16.5 11-9Zm-246 4 3.5.5 1 39-1.5 2.5-3.5-.5-1-39 1.5-2.5Z"/><path fill="#6A3138" stroke="#6A3138" stroke-width="3" d="m167.5 446 .5 10.5-5.5 10.5-.5-10.5 5.5-10.5Zm297 10 1.5.5-1.5.5v-1Zm-30 12 9.5.5-7.5 16.5-19.5-10.5 2.5-.5 17 6 1.5-7.5-3.5-4.5Zm-25 1 1.5.5-3.5 2.5 2-3Zm-290 16 2 7 4.5.5 5 17-2.5.5-2-3-9-3-3.5 2.5q-2.92-14.92 3.5-20.5l2-1Zm44 7 4.5 1.5-.5 4.5-5.5-1.5 1.5-4.5Zm17 11 4 1 1.5-.5-1.5 6.5-3.5-.5-.5-6.5Zm-36 1 5.5 2.5-.5 3.5-5.5-2.5.5-3.5Zm250 10 1.5.5.5 1.5 2.5.5-3 5 22 13 .5 1.5 1.5.5-1.5 3.5-5.5-.5 1-4-4.5-1.5h-2l-5.5-1.5-.5-2.5-11.5-2.5.5-11.5 4-2Zm-182 3 5.5 3.5 10 25v13l18 47v13q7.24 4.76 6 18l13.5 15.5 4 1 .5-1.5-12-21-12-43 6-12-6-10 6.5-1.5 9.5 7.5 26 34v7l12 23v16l-12 4 .5 3.5 47 19h55l8.5 5.5 4 18-6.5.5-4.5-2.5-4.5-7.5-9-2-27.5 23.5-26 40 10 14-76.5.5-.5-23.5 6-19-5-9 2.5-1.5 22 15 34 14 4.5-2.5 7-24-30.5-43.5-22.5-17.5-.5-2.5q-24.17 4.67-32.5-6.5-19-30.5-27-72L203.5 552l-5.5-.5-2-5 2-1q2.37-19.13 14.5-28.5Zm-80 2 4.5 2.5-2 1 2.5 4.5 1-4 2.5 4.5-3 1 3 5-6-5-2.5-9.5Zm52 15 7.5 2.5-.5 5.5-7-8Zm176 5-.5 3.5-2.5 3.5-3.5-2.5 2.5-3.5 4-1Zm-221 1 4 1 1.5-.5-7 16 .5 1.5-6.5-.5 7.5-17.5Zm40 1 .5 4.5-17 28 4 2-5 1-6 17-1.5 24.5q-17.35 19.15-44 29l-8.5-7.5-2-3 2-1q-1.32-12.82 7.5-15.5l14-7 3 5 10-6 1.5 2.5-6 14 2.5 1.5 15.5-23.5q-1.24-13.24 6-18v-11l-4.5-1.5-2 6-5.5-1.5 5.5-7.5 16.5-9.5 1.5-3.5 4.5-3.5 2-9v-2l.5-2.5 3 2 2-4ZM124 618l-10 11 3 1 9-11-2-1Z"/><path fill="#6A3138" stroke="#6A3138" stroke-width="3" d="m167.5 543 1.5 3.5-1.5 4.5-5.5-2.5.5-3.5 3 1 2-3Zm4 27 2.5 1.5-2.5 4.5-3.5-1.5 3.5-4.5Zm213 0 5.5 2.5 1.5 3.5q17-3 22 6l1-3 2 3-1.5.5 5 3-1.5 2.5-17 6h-12l-4.5-3.5-.5-20.5Zm49 12 10.5 1.5-1.5 4.5-10.5-1.5 1.5-4.5Zm191 30 5.5 3.5v9l-7.5 17.5-4.5-1.5v-11l6.5-17.5Zm-19 1 .5 17.5-5.5 10.5-.5-16.5 5.5-11.5Zm-440 5 2.5.5 2.5 11.5 3.5 1.5v59l2.5 5.5 3.5 1.5-1.5 4.5-2.5.5-1 3 2.5 3.5 2.5 1.5 1.5 3.5 10-5 .5 5.5-3.5 5.5-12.5 7.5-3.5 10.5-3.5-.5-1-6 5-9-5-8v-31l-5-9 5-9q-10.24-10.76-6.5-35.5l-5 3-.5-2.5 9.5-12.5Zm420 18 2.5.5-.5 12.5-2-1-3 5-1-11-1.5-.5 1.5-3.5 1 4 3-6Zm-10 14 1 4 1.5.5-2 5 3.5 6.5 2-1 .5 28.5-1.5 2.5-3.5-.5q1.96-20.46-7.5-29.5l-3.5 1.5-7.5 19.5-.5-8.5 2-4 4-8-2-1 7.5-9.5 4.5-2.5 1.5-3.5Zm-422 2 .5 1.5h-1l.5-1.5Zm-27 18 .5 1.5-2.5 3.5.5-1.5 1.5-3.5Zm-3 6 .5 1.5-1.5 2.5-.5-1.5 1.5-2.5Zm-4 5 2.5.5-2.5 19.5-5.5-11.5 5.5-8.5Zm20 3 4.5 1.5-2.5 4.5-3.5-.5 1.5-5.5Zm-6 12 4.5 1.5-6.5 23.5-2-1-9.5 6.5 8.5 22.5 1.5-.5 2.5-15.5 7 9 17 8 10-6 1.5 2.5q-8.31 5.69-6.5 21.5l-41.5-.5q4.38-31.38-6.5-47.5l-1.5-.5 2.5-8.5 6 3 9.5-7.5 3.5-10.5Zm454 1 1 23 5-2 .5 1.5-5.5 8.5-1-2-4.5 3.5-1 2 2 1-3.5 10.5-1.5.5-2.5 5.5-1-5-10.5-1.5 5-8-12-20v-11h1l6.5 16.5q10.75-.25 14.5-7.5l7.5-15.5Zm-145 10 14.5 4.5 3.5 4.5 1.5.5-1.5 3.5-20 1 3.5-4.5-3-8 1.5-1.5Zm-256 20 5 8 1.5-.5 13.5 27.5 3.5 1.5-.5 4.5-41.5-.5q-1.32-12.82 7.5-15.5l14-7 8 5 .5-2.5q-11.25-5.85-11.5-20.5Zm239 14 1 2-3.5.5 2.5-2.5Zm-12 6 1 3 5.5.5-1.5 3.5-14 9 3.5-4.5 5.5-11.5Zm-14 9 2.5.5-3.5 5.5-2.5-.5 3.5-5.5Z"/><path fill="#5A2320" stroke="#5A2320" stroke-width="3" d="m165.5 234 2.5.5-3 5 .5 1.5q-6.17 6.83-21 5l-.5-2.5 21.5-9.5Zm-6 30 1.5.5-1.5 3.5-3 1-.5-1.5 3.5-3.5Zm20 14 1 4 3-1-1.5 2.5-6.5 12.5-1.5-.5-.5-1.5-5.5 3.5 3 8-8.5 1.5-1-7-1.5-.5 14-8 5.5-13.5Zm-34 9 .5 1.5-8.5 5.5.5-1.5.5-1.5 7-4Zm229 2 2.5 1.5-1.5 2.5-2.5-1.5 1.5-2.5Zm-231 8 1 2-3.5.5 2.5-2.5Zm28 21 2.5.5-12 22v11l1.5 2.5q-9.75-1.75-12.5 3.5l-1.5 5.5-3 1-2.5-1.5-1-2 1-5-.5-1.5 17.5-11.5-2-1 3-5-3-1 6-11-.5-1.5 7-5Zm117 12 5.5.5-3.5 5.5-14 8-1-2-5.5 3.5 1 2-20.5.5 3.5-4.5 5.5-6.5 1.5.5-3 2 .5 2.5 5.5-.5.5-1.5 4 2 2-3 18-9Zm78 0 5.5 3.5-.5 2.5-5.5-3.5.5-2.5Zm-241 1 .5 4.5-3.5 6.5-2 1-.5-1.5 5.5-10.5Zm10 17 2.5.5-.5 3.5-3 1-1.5-.5 2.5-4.5Zm230 5 1.5.5-1.5.5v-1Zm-234 1 5.5.5-4.5 2.5-1-3Zm9 18 3.5 2.5-2.5 3.5-3.5-2.5 2.5-3.5Zm-16 24 14.5.5-1 4 .5 1.5q-11.68.72-14-6Zm-3 6 3.5.5 1 2-2.5 3.5-3 2-.5-6.5 1.5-1.5Zm28 4 .5 13.5-2.5.5q-5.5-2-3.5-11.5l5.5-2.5Zm-27 14 3.5 2.5-2.5-1.5-3.5 2.5-5.5 10.5-.5-2.5 8.5-11.5Zm43 18 2.5 7.5h-1l-.5-1.5-2.5.5-2.5 3.5-9.5 4.5-1 6 2.5 3.5 2.5.5.5 17.5 5-3-4 5-5 3-4.5-3.5q-6.83-7.67-4-25l5.5-9.5 16-9Z"/><path fill="#5A2320" stroke="#5A2320" stroke-width="3" d="m163.5 453-.5 1.5-.5 1.5-.5-1.5 1.5-1.5Zm300 4 3.5.5 1 2-3.5 2.5-1.5-3.5.5-1.5Zm-44 1 8.5 7.5-1.5.5-7-8Zm-11 2 .5 1.5-2.5 3.5.5-1.5 1.5-3.5Zm13 14 11.5 3.5 1 2-2.5.5-10-6Zm-307 2 2 4 3.5 2.5-1.5 3.5-2.5 1.5-1.5 3.5v-15Zm68 22 3.5 2.5-1.5 3.5-4.5-1.5 2.5-4.5Zm-50 18 5.5 3.5-.5 7.5-2.5-4.5 2-1-5-3 .5-2.5Zm257 4 1 8 11.5 2.5 1 3-12.5.5-5.5-3.5-1-2 5.5-8.5Zm-251 8 2.5.5 2 4-5-2 .5-2.5Zm271 6 4.5 1.5-1.5 4.5-6.5-.5 3.5-5.5Zm-266 6 6.5 3.5-.5 3.5-3-1-3.5.5 1-5-.5-1.5Zm40 0 1.5.5 1 2-12 21-.5 7.5-2-1-3.5 4.5.5 1.5-5.5-2.5 20.5-33.5Zm212 0 4.5.5-11.5 6.5-.5-1.5 7.5-5.5Zm-200 6 3 6 5.5.5q2.25 15.25 12 23l12 42 18.5 33.5q9.59 6.91 29.5 3.5l12.5 14.5 15.5 10.5q7.56 22.44 24 36l1 7-7.5 19.5-9 2-52-29-1.5 2.5q6.35 3.65 5 15-9.81 11.19-6.5 35.5l-12.5-.5-22-45 4-6-5-9q4.29-23.29-5-33l4-11-10-13 4-6-16-36 4-12q-6.85-6.15-5.5-20.5l-6.5-.5q-2.02-18.52 6-27l-1.5-2.5Zm211 30 7.5 3.5-.5 2.5-7-6Zm-245 7 .5 10.5-3.5 6.5-2 1-.5-7.5 5.5-10.5Zm9 24 1.5.5 2 23-1.5-.5-2.5-.5-2.5-11.5-8.5 6.5-.5 1.5-.5-1.5 12.5-17.5Zm-15 10 .5 2.5-14.5 16.5-10 9q-15.26 1.74-23 11l-1-2-5 1-.5-14.5 3.5 2.5 6 4q26.46-10.54 44-30Zm446 4-.5 1.5-.5 1.5-.5-1.5 1.5-1.5Zm-11 9 3.5.5v67l-5.5 9.5-1-71-1.5-.5 4.5-5.5Zm-435 16 .5 1.5-3.5 6.5-2 1-.5-1.5 5.5-7.5Zm426 3 .5 15.5-2.5 1.5-3.5-8.5 5.5-8.5Zm-457 17 3.5.5-7.5 15.5-3.5 1.5-2.5 5.5-.5-5.5 10.5-17.5Zm437 0 2.5.5-6 10v2l-.5 12.5-4-1-1.5.5.5-13.5 2 1 3.5-5.5-2-1 5.5-5.5Zm-387 17 3.5 2.5 2 11-1.5-.5-2.5-.5-1.5-12.5Zm204 7 9.5 2.5 4.5 7.5 39 2 10.5 5.5 2 4-9 20 .5 1.5-7.5 5.5-1.5 3.5-4 2-8.5 1.5-12.5 22.5-66.5-.5-10-15 26-39 19.5-19.5 8-4Zm21.5 66-4 6h3l3-5-2-1Zm-205.5-59 1.5.5 2 5-5.5 10.5-1-4-8 5 3-4 3.5-1.5v-2l4.5-9.5Zm-15 4 .5 8.5-1.5-.5-2.5-1.5-1-3 1.5-2.5 3-1Zm12 14 2.5 20.5h-1l-.5-1.5-2.5-.5-4-13 4-2 1.5-3.5Zm367 0 6.5 11.5-1.5 2.5q-7.45-3.48-5-14Zm-429 5 2.5 1.5q3.44 18.44-2.5 27.5l-1.5-.5-8-22 9.5-6.5Zm458 6 .5 2.5-5.5 3.5.5-1.5 2.5-3.5 2-1Zm-21 4 3.5 5.5-3.5 4.5-.5-1.5 3-4-2.5-4.5Zm1 14 8.5.5-3.5 5.5-2.5-.5-2.5-5.5Zm-363 9 5.5 9.5-1.5-.5-2.5-.5-3-6 1.5-2.5Z"/><path fill="#C1BBC4" stroke="#C1BBC4" stroke-width="3" d="m305.5 246 7.5.5-3.5 4.5-3.5-2.5-.5-2.5Zm4.5 1v1h1l-1-1Zm253.5 108 1.5 6.5-3.5 4.5-3.5-2.5 2.5-3.5 1.5-.5 1.5-4.5Zm3 5 2.5.5-2.5.5v-1Z"/><path fill="#361010" stroke="#361010" stroke-width="3" d="m183.5 270 2.5 6.5-3.5 5.5-2.5-.5q-2-9.5 3.5-11.5Zm-29 13 1.5.5-5.5 8.5-4.5 2.5-1.5 3.5-3.5 1.5-20.5 41.5-.5-41.5 1.5.5 4.5-1.5-1-4 1.5-2.5 12 2 7.5-5.5.5-1.5 8-4Zm19 11 1 6 3.5 1.5 1 3-7.5 1.5-3.5-8.5 5.5-3.5Zm-14 6 2.5.5 1.5 11.5 1.5.5 2 4-8-5-3-8 3.5-3.5Zm-13 6 3.5 2.5-.5 3.5-5.5-2.5 2.5-3.5Zm186 18 3.5 2.5-2.5 3.5-3.5-2.5 2.5-3.5Zm11 7 4.5 2.5-.5 2.5-2.5-.5-1.5-4.5Zm-185 5 3.5.5-3.5 5.5-2.5-.5 2.5-5.5Zm196 1 13.5 10.5-4.5.5-3.5-2.5-.5 1.5-5-10Zm-95 1 4.5 1.5-.5 2.5-5.5-.5 1.5-3.5Zm16 4 .5 2.5-4.5 3.5-1.5-2.5 5.5-3.5Zm-138 12 6.5 1.5-.5 4.5-5 2-1-2-9 6-1.5-2.5 4.5-8.5 1 2 5-3Zm21 24 3.5 2.5-2.5 3.5-3.5-2.5 2.5-3.5Zm-12 6 3.5 2.5-.5 3.5-5.5-2.5 2.5-3.5Zm-24 12 10 6q13.75-3.75 17.5 2.5l-1.5 2.5-4.5 1.5 3 11-2.5.5-6.5-3.5-1.5-2.5-4.5 1.5q1.75 8.75-3.5 10.5l-2.5-.5-2.5-5.5-5.5 4.5-3.5 6.5-.5-17.5 1.5.5 4.5-1.5 2.5-4.5 1.5-.5 2-3-1.5-2.5-4 1-.5-4.5 2.5-2.5Zm42 48 2.5.5q-8.67 9.83-5 32l-3.5 3.5-2.5-.5-.5-17.5-3.5-1.5-1-6 2.5-3.5 10.5-5.5.5-1.5Zm249 12 1.5.5-1 2 5.5 3.5 1-2 16.5 11.5 1 6-3.5 2.5-3-4-22-7-6 4 1.5-4.5 6.5-11.5 2-1Zm-2.5 7-2 4v1h5l-2-4-1-1Zm-10.5 48 1.5 2.5-5.5 2.5-.5-2.5 4.5-2.5Zm-12 6 1.5 2.5-6 9 2.5 3.5 21.5 2.5-2.5 5.5q-13.62-2.12-17.5 5.5l-.5 1.5q-5.17 6.33-18 5l-4-6-5.5 2.5 1 3-1.5-.5-5.5-2.5.5-3.5 4 1 4.5-5.5-.5-1.5 6.5-4.5-.5-1.5 20-16Zm-206 17 11 12-4.5.5-3 11 2.5.5 1.5.5 2 5-4 1-2 10 12 2v11l5 15-4 7 16 36-4 6q9.71 3.79 10 17l-4 7 5 8q-4 23.5 5 34l-4 6 22 44-34.5.5q.79-11.29-6-15l-1 2-11.5-23.5v-18l6-12-2.5-4.5-1.5.5-5 10 .5 1.5-7 5-2.5-2.5v-21l-3.5-6.5-2.5-1.5v-71l-2.5-4.5-1.5.5-14 22-.5 14.5-5-2-.5 5.5 2.5.5 3.5-2.5-6 8v22l-2.5 2.5-3.5-2.5-1.5-27.5-8.5 6.5-5.5 11.5-6.5 2.5-7.5 14.5-7.5-23.5 2.5-4.5 22-10 18.5-17.5 6-8 1.5-19.5 2.5-1.5 2.5-22.5 11.5-1.5v-11l12-21-1.5-2.5-4 3-.5-6.5 2.5-2.5ZM172 582l-3 4 5 2 2-3-4-3Zm6 2-1 2h1v-2Zm-7.5-44 3.5 2.5-.5 3.5-5.5-.5 2.5-5.5Zm-24 6 2.5.5-5.5 8.5-4 2 1.5-4.5 2.5-5.5 3-1Z"/><path fill="#361010" stroke="#361010" stroke-width="3" d="m192.5 550 .5 1.5h-1l.5-1.5Zm3 0 .5 1.5-2 1 1.5-2.5Zm407 26 3.5 2.5-.5 4.5-4-1-1.5.5 2.5-6.5Zm1 18 2.5 1.5q3.19 19.69-6 27v73l-9.5 24.5-2.5-.5q-2.25-16.25 6-22v-67l-3.5-.5-8 11-.5-4.5 18-36-2-1 1.5-3.5 1 3 3-5Zm-24 48 2.5.5-3.5 11.5-2.5-.5 3.5-11.5Zm-24 30 2.5.5-3.5 5.5-1.5-.5 2.5-5.5Zm-2 18 4.5 1.5-.5 11.5-4-1-1.5.5 1.5-12.5Zm-1 17 3.5 2.5q-.03 13.53 7.5 19.5l1-2 4.5 8.5-4 8 5 4-1.5 2.5-3.5-2.5-.5-1.5-1.5-.5 1-11-1.5-2.5-2.5-1.5-1.5-3.5-1 3-1.5-3.5 2-1q-8.37-4.87-5.5-18.5Zm23 40 .5 10.5-2.5-1.5-2.5-.5-1-4 5.5-4.5Z"/><path fill="#1E0708" stroke="#1E0708" stroke-width="3" d="m360.5 345 8.5 3.5 1 3-5.5 1.5-4.5-2.5.5-5.5Zm-223 15 .5 2.5-8.5 3.5 2-3 6-3Zm277 97 5.5 2.5-.5 2.5-5.5-3.5.5-1.5Zm-4 6 1.5.5 2 4-5.5.5.5-1.5 1.5-3.5Zm-221 83 6.5 1.5-1.5 4.5-1.5-.5-.5-1.5-4 7-2.5-.5 3.5-10.5Zm-18 36 4.5 2.5-2.5 3.5-4.5-2.5 2.5-3.5Zm430 0 4.5 1.5-.5 11.5-2-1-3 5-.5-15.5 1.5-1.5Zm-424 2 .5 1.5h-1l.5-1.5Zm420 16 2.5.5-5.5 8.5-.5-2.5 3.5-6.5Zm-447 42 5.5 2.5-5.5 3.5v-6Zm403 60 4.5 1.5-.5 9.5-3-5-2.5-1.5 1.5-4.5Zm5 25 3 5 1.5.5 1 2-1.5 2.5-3.5-.5-.5-9.5Zm5 19 7.5 11.5h-2l-.5 5.5-5-17Zm8 14 4.5 7.5-4.5.5v-8Z"/><path fill="#E1DFDA" stroke="#E1DFDA" stroke-width="3" d="m327.5 59 18.5 3.5 1 2-4.5 5.5-6.5 4.5 3 7q-2.75 5.25-12.5 3.5l1-2 8.5-1.5-.5-3.5-1.5-.5.5-5.5 9.5-6.5-1.5-2.5-17.5-2.5 2.5-1.5Zm95 0 .5 2.5 1.5 2.5 9.5 4.5-2.5.5-10.5-6.5 1.5-3.5Zm-12 6 1.5.5 2.5 4.5 12.5 4.5 2.5 3.5 2.5.5-3.5.5-3-1 2 3 3.5 1.5-4 2 4 8-3 5 1 2h-1l-3-7 1.5-.5 2.5-.5-2.5-3.5-1.5-.5-3-6 2-5-12-7-1.5-4.5Zm27 5 3.5 5.5-3.5 2.5 1.5-2.5-1.5-5.5Zm-4 8 1.5.5-1.5.5v-1Zm16 6 3.5 2.5-1.5 4.5.5-1.5-2.5-5.5Zm-84 6 7 1 2-1v1l-7 1-2-2Zm3 6 6.5.5-9 2 .5 2.5 8.5 3.5-2.5 4.5-8.5 5.5-1 4 23 62q-8.86 12.64-6 37l19 21q10.01 25.49 28 43-2.4 18.9 4 29v46h-1v-45q-6.67-10.83-5-30-17-16-26-40l-19-20-2-25 6-18-23-62 3.5-5.5 7.5-4.5-.5-2.5-7.5-2.5 2.5-4.5 2-1Zm86 6 4.5 1.5-1.5 2.5-4.5-1.5 1.5-2.5Z"/><path fill="#E1DFDA" stroke="#E1DFDA" stroke-width="3" d="m377.5 254 21.5 14.5 1 2-3 2-7.5-10.5-10-4-1 2-1-6Zm145 23 3.5 1.5-1.5 3.5-29 10-1.5-3.5 14.5-7.5h2l12-4Zm-17.5 7-7 4 1 1 11-3v-1l-5-1Zm27.5 16q25.22 2.28 36.5 18.5l.5 1.5q14.91 4.59 22.5 16.5l6 20-3.5 6.5-6 2v-1l6.5-3.5 1-6q-2.4-16.6-12.5-25.5l-9-4-.5 3.5 2 4-2-1-5.5-7.5-1.5-.5 1-5q-11.95-14.05-35.5-16.5-5.73 6.77-19 6l-6.5 5.5-1 5 15 3-4.5.5-4-1-6 1-2.5-6.5 4.5-6.5 24-9Zm-213 11 7.5.5-4 1 .5 1.5 1.5.5-3.5.5-4.5-2.5 2.5-1.5Z"/><path fill="#E1DFDA" stroke="#E1DFDA" stroke-width="3" d="m533.5 314 3.5 1.5-6.5 2.5 3-4Zm-196 1 1 2-4.5-.5 3.5-1.5Zm298 0 5.5 2.5q8.83 8.67 6 29l-1.5 2.5-3.5-1.5-.5-1.5-1.5-.5.5-2.5 4 1 1.5-12.5-6.5-12.5-2-1-5.5 21.5 1.5 5.5 4-2 .5 2.5-4.5 7.5-2.5-1.5q-2.87-23.37 4.5-36.5Zm-84 1 2.5 1.5-4.5.5v-1l2-1Zm-28 4 1.5.5-1.5.5v-1Zm-193 19 5.5 2.5-2.5 13.5-8 2 .5-3.5 4.5-14.5Zm1.5 6-4 9 1 1 3-1 2-8-2-1Zm194.5 1 1.5.5-1.5.5v-1Zm-11 1 9.5.5-10.5 1.5 1-2Zm71 1 3.5 6.5-3.5 2.5.5-1.5 1-3-1.5-4.5Zm-91 2 4 6 5-1-2 3-7.5-3.5.5-4.5Zm61 0 2.5 4.5h-1l-1.5-4.5Zm6 2 .5 3.5-2.5 4.5-.5-5.5 2.5-2.5Zm-4 4 .5 3.5h-1l.5-3.5Zm-127 9 .5 4.5h-1l.5-4.5Zm92 2 16.5 6.5-1.5 3.5-17.5-7.5.5-1.5 2-1Zm112 2-.5 1.5-2.5 9.5-1.5-.5 4.5-10.5Zm-2 12 3 1 4-1 2.5 3.5h-1l-.5-1.5-7 1-1-3Zm-199 22 .5 2.5h-1l.5-2.5Zm1 4q-1.04 20.54 8.5 30.5l-2-1q-9.32-9.61-6.5-29.5Zm202 41 1.5.5-2 5 .5 1.5-1.5-5.5 1.5-1.5Zm-164 13 .5 2.5h-1l.5-2.5Zm1 4 .5 4.5h-1l.5-4.5Zm-19 47 5.5.5-1 2 4 7-9.5 1.5-3-6-5.5-.5 9.5-4.5Zm1.5 4-3 2 3 3 5-1-1-2-4-2Zm52.5 30 10.5 6.5 2 8-10.5 4.5-1-2 5 1 4.5-3.5-5.5-12.5-5-2Zm-102 4 16.5 21.5-3.5-2.5-3.5-2.5-9.5-16.5Zm254 18 2.5 8.5-4.5 2.5 2.5-3.5-.5-7.5Zm-219 2 20.5 7.5-4.5.5-19-6-1.5.5 4.5-2.5Zm26 12 4.5 19.5-2.5 4.5-5 1-12.5-2.5 7.5-.5 8 1 3.5-9.5-3.5-13.5Zm-33 18 1.5.5-1.5.5v-1Zm231 3 3.5 6.5-2-1-1.5-5.5Zm-275 10-1.5 2.5.5 3.5 11.5 2.5q.91 28.59 18.5 40.5l18 6 28 18 30 9 35.5-21.5 5.5-7.5 30-20-3 4-30.5 22.5-4.5 5.5q-14.17 13.83-37 19l-26-9-50.5-27.5-14-23q2.14-12.14-3.5-16.5l-11.5-2.5 4.5-5.5Zm280 15q7.19 3.31 5.5 15.5h-1l-4.5-15.5Zm5 21 1.5 10.5-2 1 .5-11.5Zm-47 17 2.5.5-2.5.5v-1Zm9 0 .5 2.5-2.5 1.5-3.5-2.5 1.5-.5 2 1 2-2Zm-93 11 1.5.5-4.5 5.5-.5-1.5 3.5-4.5Zm92 13 2.5 1.5-2.5 9.5-1-6-5 9-.5-2.5 6.5-11.5Zm19 2 4 5 3.5.5-.5 3.5-1-2-4.5-1.5-1.5-5.5Zm-135 7-1 2-1.5-.5 2.5-1.5Zm-4 2 .5 1.5-9.5 6.5 2-3 7-5Zm122 11 3.5 1.5-.5 5.5-3-7Zm-155 17-2 3-21.5 17.5-8.5 18.5-1.5-.5 13.5-24.5 20-14Zm171 15 .5 3.5-3.5 1.5-3-4 5 2 1-3Zm0 20 .5 1.5h-1l.5-1.5Z"/><path fill="#1E0707" stroke="#1E0707" stroke-width="3" d="m363.5 546 2.5.5 2 5-5.5.5q-5.5-3 1-6Zm-171 6 1.5.5-2.5 7.5-3.5-2.5 3-2 1.5-3.5Zm360 166 4.5 7.5-1.5.5-3-8Zm6 17 1 2 3.5-.5.5-1.5.5 9.5-1 5 5.5 14.5 1-7 1.5.5.5-1.5 4.5 3.5-.5 5.5-4-6-1 9-6.5-.5q1.24-13.24-6-18l.5-14.5Z"/><path fill="#6A405A" stroke="#6A405A" stroke-width="3" d="m413.5 756 5.5.5-12.5 5.5 3-4 4-2Zm187 6 3.5 1.5 2 4-5.5.5v-6Z"/></svg>