<svg viewBox="0 0 840 576" xmlns="http://www.w3.org/2000/svg"><path fill="#334" stroke="#334" stroke-width="3" d="m56.5 138 3.5 2.5-2.5 3.5-3.5-2.5 2.5-3.5Zm380 18 20.5.5-1 3 10 8-4.5.5h-2l-14.5 2.5-1.5 10.5-21-1-2 1-.5-13.5 1.5.5 3.5-1.5.5-1.5 12.5-3.5-1.5-5.5Zm17.5 2-1 5h1v-5Zm2 6v1h1l-1-1Zm-389.5-2 5.5 2.5-2.5 3.5-3.5 2.5-2.5 3.5-3.5-2.5 2.5-3.5 3.5-2.5.5-3.5Zm430 0 50.5.5-1 4 .5 1.5-47-1-2 1 .5-1.5-1.5-4.5Zm90 0 7.5 2.5-4 3-.5-1.5-1 2-1.5-.5 1-3-1.5-2.5Zm-121 12 2.5.5-2.5.5v-1Zm-3 1 1.5.5-7 4 1 3h-1l-1-5 6.5-2.5Zm-4 12 1.5 5.5h-1l-2-4 1.5-1.5Zm-33 3 3.5 1.5-.5 6.5-2 1-1-9Zm-353 2 5.5 2.5-9.5 15.5-2.5-9.5 6-5 .5-3.5Zm358 0 1.5.5-1.5 3.5v-4Zm2 14 5.5 9.5-5.5 1.5v-11Zm5 20q3.8 9.2 18 8l1-7 2.5 1.5 5 17-11.5.5v-1l7.5-1.5-5.5-.5-20 4v-1l4-1 2 1 3.5-5.5-3.5-.5-2.5 1.5-.5-15.5Zm89 0 1.5.5-1.5.5v-1Zm-4 1 1.5.5-5.5 2.5v-1l4-2Zm-462 1 11.5 2.5 2.5 9.5 3.5 2.5-.5 3.5-6.5-.5 1-4-13.5-7.5-10.5 8.5 1 3-4.5.5-2.5-2.5L54.5 231l6-3Zm4.5 5v1h1l-1-1Zm446.5-2 2.5.5-2.5.5v-1Zm68 0 6.5 1.5-1.5.5-5-2Zm-78 1 2.5.5-2.5.5v-1Zm-387 2 5 3 1.5-.5 5 9-2.5.5-9-12Zm477 1 4.5 1.5-2.5.5-2-2Zm8 2 1.5.5-1.5.5v-1Zm43 2 5.5 1.5-1.5.5-3-1-3 2 2-3Zm-5 3 1.5.5-1.5.5v-1Zm-199 6 5.5.5q-3 6.5-6 1l.5-1.5Zm-61 1-.5 1.5-.5 2.5-1.5-.5 2.5-3.5Zm-114 3 6 3 1.5-.5 11 15-9.5.5-13.5-15.5 4.5-2.5Zm113 2 2.5 3.5-2-1-.5-2.5Zm16 1 .5 1.5h-1l.5-1.5Zm1 3 1.5 2.5-2-1 .5-1.5Zm-14 1 .5 3.5h-1l.5-3.5Zm-302 3 1 2 11-2 1 2 6.5.5-1 4 .5 1.5h-61l-4.5-3.5-1-3 1.5.5 4-1 40 1 2-2Zm1.5 3 1 2h6l-7-2Zm8 0v1h1l-1-1Zm232.5 1 1.5.5-1.5.5v-1Zm4 1 3.5.5-3.5.5v-1Zm6 0 4.5.5-4.5.5v-1Zm70 1 1.5 2.5-2-1 .5-1.5Zm120 2 18.5.5-25.5 5.5v-1l7-5Zm43 0 2.5.5-1.5 3.5-1.5.5 3 1-35.5.5 1-2 31.5-.5.5-3.5Zm-182 3 3 5 4.5.5-4.5.5-3-6Zm214 2 6.5 1.5-1 2 11.5 3.5 2-3 5.5 3.5-1 2 11 7 1 3-3.5 5.5-3-4-11.5-4.5-.5-1.5-23.5-4.5-2.5-3.5-4.5-.5 1-4-.5-1.5 13-1Zm-81 2 3.5.5-3 11 2 1 1 4q-13.03-1.03-17 7l-1.5 2.5-1-4-5.5 1.5-1 4 1 8-1.5-.5-11.5-.5.5-2.5 6.5-3.5 18.5-23.5 4.5-1.5 1.5-2.5 3-1ZM485 308v1h2l-2-1Zm-3 1v1h1l-1-1Zm6 0 2 2h1l-3-2Zm-98.5-30 1.5.5-1.5.5v-1Zm139 2 20.5 1.5-.5 1.5-20 6-.5-4.5 3-1-.5-1.5-2 1v-3Zm15.5 2v1h1l-1-1Zm-10 1v1h1l-1-1Zm222.5 14 2.5 1.5-1 2 3 2-1.5 2.5-3 2v-10Zm-576 2q13.1-2.1 18.5 3.5l-.5 2.5-10-1-3 1-5.5 1.5 5 15-4.5 2.5-3.5-6.5 3-1-1.5-5.5-4 1-.5-3.5 4-1-2-1 4-3 .5-4.5Zm9.5 4v1h1l-1-1Zm4 0v1h2l-2-1Zm255.5-4 17 3v-1l-3.5-1.5 6.5-.5-1.5 2.5-.5 1.5-28.5 27.5-1.5 2.5-10 2v-1l5-2h2l4.5-3.5 2-5-2 1-.5 1.5-.5-4.5 1.5.5 8.5-5.5 3-15-1.5-2.5Zm4.5 5-1 8h1v-8Zm-1 8-1 2h1v-2Zm-2 4-2 3 2-1v-2Zm220.5-17 13.5.5-1 10 .5 1.5q-14.57 1.57-17.5-8.5l.5-1.5 4-2Zm8.5 5-1 2h1v-2Zm27.5-5 38.5.5-2 10 .5 1.5-2-1-35 1 .5-1.5-.5-10.5Zm4.5 2-1 2h1v-2Zm1 3-1 2h1v-2Zm27 0-1 2h1v-2Zm-28 3-1 2h1v-2Z"/><path fill="#334" stroke="#334" stroke-width="3" d="m186.5 310 9.5 12.5-3.5 1.5-.5-1.5 2-3-3.5.5-2.5-1.5 1-2-2.5-6.5Zm18 1 4.5 2.5 12 14-5.5 3.5-1.5-3.5 2-1-.5-1.5-8.5-7.5-2-4 .5-1.5-1-1Zm-124 7 11.5.5-2 5 2.5.5 3.5-2.5-1-3 4.5-.5 1 4-10.5 4.5-3.5 8.5-3 1-4.5-3.5-1-12 2.5-2.5Zm448 0q13.75-3.75 17.5 2.5l-10.5 3.5-7-2-1 2 4-1v1l-3.5 1.5 1 4-2-1-.5-4.5-.5 5.5 4.5 2.5 1-2 2-1 .5 1.5-3.5 4.5-3 1-4.5-3.5-1-11 6.5-3.5Zm101 0 6.5 2.5 5 7-7.5 14.5-9.5-2.5-5-8 9-3 1-2-4-6 4.5-2.5Zm-2.5 12-3 3 3 3 3-5-3-1Zm-519.5-6q15.58-1.58 18.5 9.5l-5.5 4.5-.5-2.5 1-4-3.5-1.5-13 1-1.5-.5-2 7 3.5 4.5 3.5 2.5 8.5 9.5 3.5-1.5.5-1.5 6-3-.5 1.5-6 8 14 3-8.5 5.5-5.5-3.5-1.5-2.5-4.5-2.5-2.5-3.5-3.5-2.5-7.5-9.5-2.5-1.5-2-5 6.5-8.5 5-3Zm8.5 4v1h1l-1-1Zm361.5-4 5.5.5-4 2 1 4-1.5-.5-2.5-1.5 1.5-4.5Zm74 0q14.99-1.49 18.5 8.5l-3.5 4.5-2.5-.5 1-5-3.5-1.5-14 2-1.5-.5-2.5 6.5-1.5-5.5 4.5-5.5 5-3Zm8.5 4v1h1l-1-1Zm-489.5-3 1 2-5 2-.5-1.5 4.5-2.5Zm444 0 1.5 5.5-9.5 11.5q-5.75-3.25 1.5-6.5l2.5-8.5 4-2Z"/><path fill="#334" stroke="#334" stroke-width="3" d="m481.5 326-.5 1.5-.5 1.5-.5-1.5 1.5-1.5Zm-45 2 1.5.5-4 3 .5-2.5 2-1Zm-240 2 5.5 2.5-.5 1.5-5-4Zm529 0 1.5.5-1.5.5v-1Zm-62 1 9.5 8.5-8.5-7.5-1-1Zm79 1 7.5.5-7.5.5v-1Zm-539 1 5.5 2.5-5.5.5v-3Zm548 0 1.5 4.5h-1l-.5-4.5Zm-529 2 1 2 16-1 10.5 5.5-34.5.5-4.5-2.5.5-1.5 11-3Zm14.5 3v1h3l-3-1Zm6 1v1h1l-1-1Zm-136.5-3 5.5 2.5-3.5.5-2-3Zm161 0q18.5-3.5 26.5 3.5l1 2-30.5 2.5-.5-4.5 3.5-3.5Zm1.5 2v1h3l-3-1Zm16 0v1h3l-3-1Zm-18 1-2 3 3-2-1-1Zm24 0 1 2h1l-2-2Z"/><path fill="#334" stroke="#334" stroke-width="3" d="M306.5 336h77l4.5 2.5.5 2.5 1.5-.5-.5-1.5 4.5 2.5-16 1 2.5 5.5 10.5.5-1 4 .5 1.5-9.5-.5-1.5-4.5-.5 1.5 1 4-2 1q1.64-11.64-4-16l10-1-22.5-.5v1l8.5.5-4.5 16.5-1.5-4.5 1-2-2 1-.5 3.5-5.5-.5-1.5-4.5-.5 1.5 1 4-2 1q1.64-11.64-4-16l9-1-39.5-.5v1l8.5.5-4 13 .5 1.5-6.5-1.5-2.5-3.5-.5 1.5 3 5-3-2-3.5-7.5-1.5-.5-.5-2.5-1.5.5-3 8h1l.5-1.5 1.5 3.5-6.5.5-7-2-2 2h-29l.5-1.5 1.5-3.5 38.5-1.5 2-5-7-1 1.5-2.5 6-3Zm2.5 2v1h8l-8-1Zm-6 1-1 2 2-1-1-1Zm10 3-1 3 9 3 3-5-11-1Zm42 0 1 6h8l2-5-11-1Zm-32 6-1 5h1v-5Zm66 2-1 2h1v-2Zm28.5-14 8.5 2.5-5 3 2 1-3 5 2.5.5 3-2 1.5 7.5-13.5.5.5-1.5.5-4.5 2.5.5-1 2 2-1 2-7-1.5-5.5-2 5-2.5-.5 3.5-5.5Zm7.5 13-1 3h1v-3Zm-9 2-1 2h1v-2Zm131.5-15 10.5 3.5-.5 1.5 2.5.5-8 1 6 13-14-13 2-1-1.5-2.5 3.5-1.5-.5-1.5Zm2.5 2v1h1l-1-1Zm-145.5-1 3.5 2.5-.5 2.5-5.5-.5 2.5-4.5Zm-291 2 3.5 2.5-3.5.5-2.5-1.5 2.5-1.5Zm638 1 1.5 2.5-2-1 .5-1.5Zm-698 2 3.5.5 3 6L48.5 371l-1-5-5 2-.5-1.5 6.5-13.5 5 1 .5-2.5 1-6-1.5-3.5Zm2.5 7-1 2h1v-2Zm131.5-7q10.75-1.75 12.5 5.5l-2.5.5-10-6Zm310 0 3.5.5 3 6-5.5 10.5-.5-4.5 1-3-1-5v-2l-.5-2.5Zm2.5 4-1 4h1v-4Zm249.5-2-1.5 2.5-.5 1.5-6 1-.5-1.5 8.5-3.5Zm-611 2 3.5 5.5-1.5 2.5-2.5-.5.5-7.5Zm77 2 25.5.5-1 4 .5 1.5-24 2-1-3-3.5.5 2 1-3.5 1.5-.5-2.5 3.5-4.5 2-1Zm23.5 2-1 2h1v-2Zm6.5-2 5.5 2.5-2.5 3.5-3.5-.5 1-4-.5-1.5Zm210 0 6.5 3.5-.5 4.5-5.5-4.5-.5-3.5Zm3.5 2-1 2h1v-2Zm116.5-2 11.5 1.5-11.5 13.5-6 3 .5-1.5.5-4.5 5.5-2.5 1-6-1.5-3.5Zm155 0 .5 1.5h-1l.5-1.5Zm9 0 .5 1.5h-1l.5-1.5Zm-614 5 1.5.5-1.5.5v-1Z"/><path fill="#334" stroke="#334" stroke-width="3" d="m296.5 353 1.5.5-1.5.5v-1Zm-153 13 6.5 3.5-3.5 14.5q-11-2.5-13.5 3.5l-2 8h1l.5-3.5 6 8 3.5 1.5-10.5.5-4.5-3.5-1-21 3.5-5.5 2.5.5 1.5 2.5.5-1.5-2-5h1l7.5 9.5 3.5-1.5-.5-10.5Zm3.5 4-1 6h1v-6Zm-12 5-1 2 10 3 2-3-3 2-8-4Zm-2 21-1 2 4 2-3-4Zm448.5-30 1.5.5-2 4 6.5 1.5 1.5-2.5-2-3 3.5-.5q5.5 2 3.5 11.5l-3.5 6.5-3.5-.5 1-5-4.5-.5-1.5 4.5.5 1.5-6.5.5.5 5.5 6.5.5-1 4 4.5 1.5 1.5-.5-5.5 1.5-2-5-.5 4.5 7.5 1.5 1.5-3.5-2-4 3.5-.5 2.5 7.5-2.5 4.5q-14.78 3.28-19.5-3.5l-1-21 6.5-8.5 5-3Zm.5 6v3l-2 3 1 5v-4l6-3 2 4h1l-1-7-2 1-5-2Zm-95.5 5 4 1 1.5-.5-.5 13.5-4-1-1.5.5.5-13.5Z"/><path fill="#334" stroke="#334" stroke-width="3" d="m142.5 390 4.5.5 2 7-2.5 4.5-3.5-.5 1-9-1.5-2.5Zm592 0 1.5.5-1.5.5v-1Zm-16 9-1 2-1.5-.5 2.5-1.5Zm-676 2 4 1 1.5-.5-3.5 6.5-2-7Zm444 0 4 1 1.5-.5-3.5 6.5-2-7Zm-436 7L67 431.5l-7 1 6.5 9.5 4 1 1.5-.5-2.5 6.5-3.5-2.5-1.5-2.5-10.5-8.5-.5-7.5-2.5-1.5 4-2-1-5 .5-1.5-1.5-.5-1.5-3.5-5.5-.5 4.5-5.5Zm5.5 13-1 3h1v-3Zm67.5-13 1.5 3.5-.5 1.5-2.5 1.5-1 4 1.5 2.5 7 2 2.5-1.5-7-1 6.5-1.5 1 2 1.5-3.5h-2l-1-3 1.5-.5 5.5 3.5-3.5 8.5q-18.43-3.93-26.5 2.5l.5 3.5 17.5 6.5-8.5 11.5-3.5-2.5-.5-1.5-3.5-1.5 2.5-.5 3 1 1.5-5.5-1.5-2.5-1.5.5 1 6h-1l-1.5-5.5-4.5 1.5 1 4-1.5.5-10.5-8.5 26.5-27.5ZM108 436l-2 2 1 4 1-4 6-1-6-1Zm386.5-28 3.5 7.5-2.5-1.5-3-1-2 1 1.5-2.5 2.5-3.5Zm69 4 .5 7.5-2 1 2 1 1 4-12 3 1.5 2.5 13.5 8.5 1 2-5 4 1-7-2.5-.5-4.5.5-.5 1.5v-3l5.5-.5-5.5-1.5-4.5 3.5-1 2 2 3-2.5.5-10.5-8.5 22.5-23.5Zm7 0 11.5 5.5-.5 3.5-4-1-1.5 4.5.5 1.5-6.5-2.5.5-11.5Zm1.5 6 3 7v-4l4-2v-1l-4 1-3-1Zm-73.5 12 6 7 10 6 1.5-.5-2.5 6.5-3.5-2.5-1.5-2.5-10.5-8.5.5-5.5Zm-412 9 15.5 14.5q-3.25 5.75-15.5 2.5l-2.5-6.5 1.5.5 2 1 2.5-1.5 1-4-5.5-1.5-1.5.5 2.5-5.5Zm5.5 9-1 2h1v-2Zm438.5-9 11.5 10.5-4.5.5-2.5-1.5-2.5-4.5-4 1-.5-1.5 2.5-4.5Zm-2 10 7.5 3.5-5.5 3.5-2-7Z"/><path fill="#181729" stroke="#181729" stroke-width="3" d="m59.5 138 4.5 2.5-1.5 3.5-3.5-.5 1-4-.5-1.5Zm3 13 3.5 2.5 2 8-2 1-3.5 5.5-2 1-.5-15.5 2.5-2.5Zm478 5 12.5.5-14.5 1.5v-1l2-1Z"/><path fill="#181729" stroke="#181729" stroke-width="3" d="m554.5 156 4.5.5-1 4q8.21 12.29 33.5 7.5l2.5-1.5 1.5 2.5 4-1v1l-1.5.5 10 4-158 2 2.5 4.5 3.5.5 18.5 59.5 4.5.5-13.5 5.5-3.5-3.5-2.5-14.5-3.5-2.5v-11l-12-29v-11l2.5-4.5 4-2 101.5-1.5-1.5-4.5-17.5-.5 4-2-.5-1.5 4 1 10-1 2 1 2-3Zm-243 5 2.5 1.5-1.5 2.5-6.5 1.5 6.5.5 4.5-2.5-1.5-2.5h68l4.5 2.5-.5 1.5-4 2h-77l-2-1-4.5 3.5.5 1.5-2.5.5.5 1.5 1.5-.5-30 59-1 19 1 3-3.5-2.5-7.5 2.5 11.5 14.5 11 1 1.5-.5 1 7-6.5 1.5-14-9-1.5.5v-4l-3.5-4.5-4.5-2.5.5-1.5-3.5-1.5 3-2-.5-2.5-1.5-.5-2-4 6-1 30-62 14.5-18.5 11-4ZM298 174l-31 60 2 16v-17l29-57v-2Zm-226.5-7 .5 3.5-6.5 3.5.5-1.5 3.5-4.5 2-1Zm340 13 2.5.5-3 11q-25.69 18.81-41.5 47.5l1.5-2.5q14.57-28.93 39-48L378.5 219l-2.5 1.5 1 2-10.5 22.5-1-5-12.5-.5 58.5-59.5Zm-343 1 3.5 2.5 2 8-2 1-3.5 5.5-2 1-.5-15.5 2.5-2.5Zm352 0 5.5 12.5-3-2-2.5-10.5Zm6 18 5.5 12.5-2-1-3.5-11.5Zm6 18 5.5 15.5h-1l-4.5-15.5Zm-364 6 3.5 2.5.5 2.5 5 3 4.5-2.5-4-1 2.5-4.5 8 5h28l3.5 3.5-1 2 1 2-2.5-1.5-3.5.5-.5 1.5-3.5-2.5-.5-1.5-2.5.5v2l-1.5 5.5-8.5-6.5-.5-1.5-4.5 1.5 16.5 9.5 2-3 3.5 5.5-5.5.5-17-12h-9l-1.5.5 5-2-1.5-2.5-6.5 3.5 1 9h-1l-.5-1.5-2.5-1.5-4.5-11.5-5.5-.5 3.5-4.5Zm61 5 13.5 2.5-10.5 3.5-5.5-3.5 2.5-2.5Zm397 0 1.5.5-8.5 4.5 1-2 6-3Zm-24 6 1.5.5-2.5 1.5 1-2Zm80 0 2.5 1.5-1.5-.5-1-1Z"/><path fill="#181729" stroke="#181729" stroke-width="3" d="m310.5 239 .5 1.5-1.5 5.5-.5-4.5 1.5-2.5Zm-230 1 1 4-1.5-.5.5-3.5Zm217 0 3.5 2.5 7.5 14.5 1.5.5-2 4 2 3-4 3-1.5 2.5-7 1-3.5-2.5-.5-1.5-1.5.5-.5-3.5 4.5 3.5-.5 1.5 2-1 3 2 2.5-.5 1.5-2.5 1.5-.5-.5-1.5 1.5-.5-.5-7.5-2.5-1.5-6-13 .5-1.5-1-1Zm3.5 4-1 2h1v-2Zm1 2-1 2h1v-2Zm1 2-1 2h1v-2Zm1 2-1 2h1v-2Zm1 2-1 2h1v-2Zm1 2-1 2h1v-2Zm-25.5-9 .5 4.5h-1l.5-4.5Zm58 1-.5 1.5-5 7 .5 1.5-2.5-1.5.5-1.5 2.5-1.5-1.5-.5-2 1v-1l3.5-1.5 1.5-2.5-.5 1.5.5 1.5 3-4Zm29 0 2 4 2-1 .5 2.5-3 1-.5 2.5-1-9Zm63 0-1 2-1.5-.5 2.5-1.5Zm-120 1 2 3 .5-1.5-.5-1.5 2 3 3.5 1.5-2 1-1.5 2.5-4-8Zm4.5 4v1h1l-1-1Zm74.5-4 1 2 1.5-.5 1.5 4.5-4-6Zm-140 2 1.5.5-1.5.5v-1Zm95 0 .5 2.5h-1l.5-2.5Zm-317 3 3.5.5-1 13 4.5 4.5h91l10.5 5.5-4.5.5-4-1-99 1-7 5-1.5-3.5q7.2-5.8 4-22l3.5-3.5Zm-.5 9-3 12 2 3 98-1-96-2-1-12Zm318.5-6 .5 1.5h-1l.5-1.5Zm-191 3 7.5 3.5 1 3h-3l-.5-1.5-5-5Zm192 0 .5 1.5h-1l.5-1.5Zm2 0 14.5 17.5-6.5-5.5-2.5-1.5-1.5-2.5-4.5-2.5-1-2h2l-.5-3.5Zm1.5 4-1 2h1v-2Zm19.5-4 .5 9.5h-1l.5-9.5Zm-84 2 .5 1.5h-1l.5-1.5Zm57 4 .5 2.5h-1l.5-2.5Zm26 6 .5 1.5h-1l.5-1.5Zm198 0q19.78-4.28 27.5 3.5l-.5 2.5h-27l-2.5-2.5 2.5-3.5Zm-418 1 5.5 1.5 9.5 21.5 4.5-1.5-7-18 1.5-.5 5 8 1-5 2.5 4.5-3 1 6 11-6 2 1.5 10.5 6.5.5-2 10 4 3 4.5 21.5 20 7 1.5-3.5-5-8 10-1-.5-1.5 13.5-6.5-19.5-21.5-9.5-5.5 5-1-2-5 1.5-.5 37.5 30.5-1 4 .5 1.5-12.5 1.5-.5 4.5-10.5 2.5.5 1.5 35 2 5.5 3.5-.5 2.5h-37l-3.5 2.5-4.5 9.5-7 1-13-4-1.5.5-31-63 2-1-2-3h2l-7.5-12.5-8.5-2.5 8.5-4.5Zm174 0 1.5.5-1.5.5v-1Zm-37 1 1.5 2.5-2-1 .5-1.5Zm90 0 .5 2.5h-1l.5-2.5Zm380 3 2.5 1.5-1.5 7.5-1-9Zm-254 1 8.5.5-3.5 5.5-2.5.5-18.5 23.5-8.5 5.5.5 1.5-15.5 6.5-12 21v6l12 11 1.5 2.5 6.5.5-2.5 6.5-12.5-1.5 1-2-5-1 3-1-1.5-2.5-5-1-11.5 1.5-.5 2.5-19-2-10 3-.5-1.5 9-2-31.5-.5-3 2-2.5-1.5 3.5-5.5 62.5-1.5-1.5-16.5-4.5-.5 33.5-35.5 2.5-1.5-1.5-4.5-10.5 1.5-.5 4.5h-13q-17 5.5-26.5 18.5l-2 7 2.5 4.5 11.5.5q-2.73 6.77-13.5 5.5l-1.5-5.5 1-2-3.5-5.5-5.5-.5 6-4-.5-1.5 33-23 34-10 2.5 1.5 1.5 2.5 14-12Zm101 0 9.5 2.5-.5 3.5-11.5-3.5 2.5-2.5Zm157 0 2.5 3.5-2.5 1.5v-5Zm-474 3 .5 1.5-9.5 1.5v-1l9-2Z"/><path fill="#181729" stroke="#181729" stroke-width="3" d="M551.5 282h33l3.5 3.5 1 2-1.5-.5-35 1-3-1v2l-3-1q-22.75 4.25-34.5 19.5L493.5 334l-4.5 2.5-1.5 2.5-2.5 1.5-6 9 9-7-11 9-2.5 4.5-.5-2.5 9.5-29.5 2.5.5 2.5 5.5 3.5-2.5.5-21.5 18-12h11l30-12Zm2.5 4v1h31l-31-1Zm66.5-4q15.26-1.76 21 6h13l11 6h69l1.5-.5.5 1.5 6.5-1.5-1-2 9.5-3.5-1.5 2.5-1 2 1 3-1.5 2.5-4 2h-74l-3.5 2.5 5.5 7.5 4 2 50.5.5-4 2 .5 1.5-4-1-14.5 1.5 14.5.5 2-1v1l-55 1-16.5-8.5-8-17 2 1 10.5 17.5q10.27 7.72 30 6v-1q-23.04.54-33.5-11.5l-7.5-13.5-8-3-2.5 4.5 2 8-9 2 9.5 1.5 1.5-5.5-2-8h1l5 12-10.5 3.5-6.5-3.5 2-1-5.5-2.5-2 1-2.5-1.5 2-1-2.5-.5-1.5.5.5-1.5-2 1-1-3-3-1-8 1-2.5-1.5 1.5-.5 8 1v-1l-10-1-1.5.5.5-1.5-3.5-1.5 12.5-.5 7.5 4.5.5 1.5 10.5 3.5 1.5 2.5 3.5-2.5 1-5-2.5-3.5-9.5-4.5 2.5-2.5Zm-1.5 16v1h1l-1-1ZM42.5 288l11.5.5-3.5 10.5-12.5-7.5.5-1.5 4-2Zm6.5 1-6 3 1 2 3 1 5-1-1-3-2-2Zm710.5-1 2.5.5-1.5 14.5-5.5-8.5 3.5-.5 2 4 .5-2.5-2.5-3.5-2.5-.5 3.5-3.5Z"/><path fill="#181729" stroke="#181729" stroke-width="3" d="m539.5 292 2.5.5-8.5 1.5v-1l6-1Zm-12 4L512 312.5 499.5 331l4.5-5.5q7.77-18.73 23.5-29.5Zm71 5 33.5 12.5-3.5.5-30-11-1.5 4.5 18 11-1.5-.5-17.5-8.5-1-5 1.5-2.5 2-1Z"/><path fill="#181729" stroke="#181729" stroke-width="3" d="m600.5 305 22 10h10l1.5-.5-.5 1.5 2-1 1 3 4 2v-2l12.5 8.5-11.5 12.5-2 1-3.5.5 5-15-6.5-7.5-9.5 2.5 3 7-8.5 2.5.5-1.5 1-5-4.5-7.5-17.5-9.5 1.5-1.5Zm41.5 15 6 7-7 9 1 1 3-2 5-9-8-6Zm117.5-14 1.5.5-5.5 8.5-2.5.5-.5 2.5-2.5-.5 9.5-11.5Zm-579 5 2 3 1.5.5 1.5 3.5 1-4 1.5 4.5h-2l-.5 4.5-5-12Zm-149 1 7 1 14-1v1l-13.5.5 10.5 2.5 4-2 3 4 3.5-2.5.5-1.5 3.5 2.5-2.5 3.5-10 1-4-1-6 4 .5-1.5-6.5-8.5-4-2Z"/><path fill="#181729" stroke="#181729" stroke-width="3" d="m61.5 312 9.5 3.5q-5.53 11.47-25.5 8.5v-1q16.03 2.53 21.5-5.5l-1.5-3.5-4-2Zm42 6 21.5.5-22 1 4.5 1.5 6-1 10 1 2-1 3.5 9.5-3 1-.5 1.5-1.5-.5-4.5-5.5-13-2-8.5 6.5-2 7 2.5 4.5 3.5 2.5 12.5 14.5 5.5 3.5.5 1.5 7 2 5.5-3.5 4.5-7.5.5 2.5.5 3.5 11.5 2.5 1 2-1.5 2.5-16-2-2 6-3.5.5-2 25 2.5 3.5 17.5 1.5-4 6 2 4-12.5 18.5-2.5 1.5-2.5 8.5-1-3-17.5-6.5 1.5-3.5 26.5-3.5 2-7-12-4-1.5-5.5L97 433.5l5.5 8.5 11.5 5.5 1 2-1.5-.5-9.5 2.5-1.5 2.5-1-2-1.5-.5L88.5 439l-2.5.5-3.5 16.5q-11.75 1.75-16.5-3.5l.5-4.5 3.5.5 8-14-12-5L50.5 408l-1.5.5-.5 1.5-1-2-1.5-.5 2-2v-34l12-25-4.5-7.5-1.5-.5 3.5-2.5-1 3 2.5-1.5 1.5-2.5-.5 1.5 2.5 5.5 10-17 5-4 3 14 5 1 3.5-2.5 1.5-6.5 11.5-6.5 1.5-2.5ZM85 346l-7 3-8 9 2-1 1 1-2 1-9 21-1-5v-3l-3 7q-4 18 4 24l4-1h2l-2 3 2 3h-2l3 6 13 9v1l-6-3-1 2 10 5 10-2v-2l-3 1h-3l17-7v-1l6-5 6-14 2 4 1-3-1-27-2 6-9-18-13-8h-2l-3-1 4-1v-1l-10-3Zm-8 106v1h2l-2-1Zm470.5-134 27.5.5-9.5 1.5-18-1v1l4 1 6-1 10.5 2.5 2 8-1.5-.5q-4.2-7.8-18-6l-8.5 6.5-2 9 30.5 26.5 9.5-6.5 4.5-5.5-2.5 3.5 2.5 4.5 9.5 1.5 1 2-1.5 2.5-12-2-9.5 6.5-2 25 2.5 3.5 17.5 1.5-4 6 2 4-3.5 5.5-14.5-6.5-2.5-3.5-26.5 25.5 5.5 8.5 14.5 6.5-2.5.5-6-1-6 5-5.5-4.5-8.5-9.5-2.5.5-3.5 16.5q-11.75 1.75-16.5-3.5l.5-4.5 3.5.5 7-14-21-16-5.5-10.5-1.5.5-.5 1.5-1-2-1.5-.5 3.5-40.5 1.5-.5 9-20-5-7 5-4 2.5 6.5 7.5-6.5 2.5-10.5 5-3 3 13 5 1 3.5-2.5 1.5-9.5 11.5-3.5 1.5-2.5ZM529 346l-7 3-8 9 2-1 1 1-2 1-9 21-1-5v-3l-3 7q-4 18 4 24l4-1h2l-2 3 2 3h-2l3 6 13 9v1l-6-3-1 2 10 5 10-2v-2l-3 1h-3l17-7v-1l6-5 6-14 2 4 1-3-1-27-2 6-6-15-16-11h-2l-3-1 4-1v-1l-10-3Zm-8 106v1h2l-2-1Zm80.5-133 2.5 1.5 1 5-1.5 2.5-5 1-2.5-1.5 1.5-.5h2l3.5-1.5-1.5-6.5Z"/><path fill="#181729" stroke="#181729" stroke-width="3" d="m575.5 321 1 2 21 1 3-2-1 4-12-1-8 1-4.5-2.5.5-2.5Zm43 2 .5 4.5h-1l.5-4.5Zm-475 1 1.5.5-9.5 4.5v-1l8-4Zm435 3 5.5 1.5-3.5.5-2-2Zm141 0 13.5.5-16 2 4 1-4 19 5.5 4.5 3.5-2.5-.5 1.5 7.5-.5-.5-1.5 3 2 2.5-1.5-.5 1.5 5-1 7 1 3-6 .5 7.5-8.5.5-5-1-5 2-7-2-6 2-2.5-1.5-2.5-3.5-12.5 6.5-.5 1.5-24-1v1l22.5.5-23.5.5-4.5-2.5 2-1-4-3 .5-1.5 31 2 8.5-6.5 2.5-18.5 5-2ZM677 357v1h1l-1-1Zm60.5-30 6.5.5-6.5.5v-1Zm8 1 4.5.5-4.5.5v-1Zm-598 2 1 2-2.5-.5 1.5-1.5Z"/><path fill="#181729" stroke="#181729" stroke-width="3" d="M669.5 330q14.67-1.67 18.5 7.5l.5 1.5 5.5 2.5-15.5.5-13.5-10.5 4.5-1.5Zm.5 1 13 6h2l-15-6Zm16 6v1h1l-1-1Zm-95.5-6 2.5 1.5-3.5.5 1-2Zm28 1 6.5 9.5-1.5-.5-11.5 3.5-.5 1.5-9.5-4.5 15-3 1.5-6.5Zm-473 1 8.5 2.5-12 1-.5 1.5-3.5 1.5 5 6-1 2 .5 1.5-8-7-14.5 8.5-2.5 3.5-9.5-11.5q13.52 1.02 17.5-7.5l3 4q12.25.75 17-6Zm443 1 8.5 2.5 1 3-4.5 2.5.5-1.5-1.5-4.5-4.5 1.5 1 4-3.5 6.5h-30l-3.5-3.5.5-2.5 11.5-1.5 4.5-5.5 2.5 1.5 1.5 2.5 7 1 9-6Zm185 0 .5 10.5-6.5 7.5h-2l-1.5-.5-1-5 2.5-4.5 2.5.5-4 5 1.5 3.5 3.5-9.5-1-2h1l.5 1.5 4-7Z"/><path fill="#181729" stroke="#181729" stroke-width="3" d="m129.5 336 7.5.5-7.5.5v-1Zm444 0 9.5.5-9.5.5v-1Zm26 0 16.5.5-11.5 1.5-5-2Zm213 0 9.5 14.5q-1.75 5.25-10.5 3.5v-1l5.5-1.5-.5-1.5-7 2 6.5-7.5-1.5-2.5-6.5-.5 4-2-2-1 2.5-2.5Zm-57 1 .5 1.5h-1l.5-1.5Zm33 0 13.5 5.5-6.5.5-2.5.5 1.5 3.5 6.5 4.5-1.5-.5-7-3-1 3-11 3-.5-2.5 12-4-2.5-5.5-3.5-.5 2.5-4.5Zm-35 4 1.5.5-.5 1.5-1-2Zm-486 1 38.5.5-3.5 5.5-38.5-.5 3.5-5.5Zm45 0 11.5.5-3.5 5.5-8.5-3.5.5-2.5Zm42 0 11.5.5-3.5 5.5-8.5-3.5.5-2.5Zm24 0q13.75-3.75 17.5 2.5l-2.5 3.5q-12.5 3-15.5-3.5l.5-2.5Zm45 0 2.5.5-3.5 5.5-2.5-.5 3.5-5.5Zm177 1 2 3 8.5 1.5-11 1-3.5 5.5-2.5-.5 3.5-5.5 2.5-.5.5-4.5Zm152 0 1.5 2.5h-1l-.5-2.5Z"/><path fill="#181729" stroke="#181729" stroke-width="3" d="m801.5 344 2.5.5-.5 6.5-4.5-3.5 2.5-3.5Zm-651 4 11.5 6.5-.5 2.5-11.5-3.5.5-5.5Zm578 0 1.5.5-1.5.5v-1Zm76 5 1.5.5-1.5.5v-1Zm-585 1 74.5.5-.5 5.5-18 1v-1l1.5-.5-13.5-.5v1l1.5.5-2.5.5-14-1-3 1v-1l1.5-.5-26.5-.5-1 2-3.5-1.5 3.5-5.5Zm81 0q9.5-2 11.5 3.5l-.5 2.5-7-1-1 2-3.5-1.5.5-5.5Zm18 0q16.47-2.98 23.5 3.5l-.5 2.5-4 1-15-2-1 2-3.5-1.5.5-5.5Zm39 0 8.5 3.5-.5 2.5-3 1-3-2-3 2-2.5-1.5 3.5-5.5Zm246 0 1.5 2.5-3.5.5 2-3Zm153 0 4.5 2.5-12.5 3.5 1-2 7.5-2.5-.5-1.5Zm-599 4 5.5 1.5-1.5 4.5-5.5-2.5 1.5-3.5Zm445 0 6.5 1.5-10.5 3.5-.5-1.5 4.5-3.5Zm-450 1-1 2-10.5-.5 11.5-1.5Zm444 0-1 2-10.5-.5 11.5-1.5Zm196 1 9.5 2.5-.5 1.5-6 3 .5-1.5 1-2-5.5-1.5-7.5 19.5 2 6h-1l-4-7 7.5-18.5 4-2Zm32 0q6.25 2.75 3.5 14.5l-5.5 3.5-.5-3.5 1-2-2-1 1-4-.5-1.5 1.5-.5-1-3 2.5-2.5Zm-655 1 2.5 1.5 2 9-4 1-2.5 7.5-.5-3.5 5-11-2.5-4.5Zm64 0 10.5.5-10.5.5v-1Zm150 0 6.5.5-6.5.5v-1Zm248 0 3.5 2.5-6 5 3-6-.5-1.5Zm-407 1 7.5.5-7.5.5v-1Z"/><path fill="#181729" stroke="#181729" stroke-width="3" d="m168.5 363 1.5 4.5-2.5 1.5-1.5-2.5 2-1 .5-2.5Zm-13 1 4.5 1.5-6.5.5v-1l2-1Zm582 0q8.67 8.83 6.5 28.5l-1 3 1 5h-1l-7.5-10.5-9.5 8.5 1.5 3.5 12.5.5-7 3 .5 1.5-13 1-4.5-2.5 2-1-6-2 12-7 2-10-14-2 5-3 7.5-9.5-7 9 8.5-5.5 3.5-6.5 3-2 1 2 1.5.5 7.5 24.5.5-9.5-7-18 1.5-1.5ZM720 404l-2 2 6 1h8l-12-3Zm-91.5-39 1.5.5-9.5 6.5v-1l8-6Zm14 1 19.5 1.5-2 1 2.5.5 1.5-.5-.5 1.5 2-1 1 3 13.5 11.5-1.5.5-17-12h-24l-1.5.5 2.5-4.5 3 1v-1l-1.5-.5 2.5-1.5Zm.5 1v1h17l-17-1Zm-478.5 4-1 2-2.5 1.5-.5 4.5-2-5 6-3Zm629 0 2 5-6 3 2-3 1.5-.5.5-4.5Zm-193 1 9.5 2.5 2 7h-1l-3.5-6.5-2-1-2 4-3.5-.5.5-5.5Zm207 0 10.5.5-9.5 1.5-1-2Zm-2 1 6.5 3.5-3.5.5-2.5-1.5-.5-2.5Zm-169 4 17.5 3.5-6.5 12.5-11 4-.5-1.5 2-5-3-1 1-4-.5-1.5 2.5-.5-1.5-6.5Zm-456 1 2.5.5-1.5 2.5-1.5-.5.5-2.5Zm446 0 3.5 2.5-5.5.5 2-3Zm-442 1 7.5 10.5-5.5 2.5-4.5-9.5 2-1 .5-2.5Zm-21 2 2.5 1.5-3 4 2 3-1.5.5-1-2-2.5-1.5 3.5-5.5Zm443 0 3.5 2.5 1.5 2.5 11-2v1l-8.5 5.5-.5 2.5-1.5-.5-1.5-5.5-5 3 .5-1.5-1-4 1.5-3.5Zm20 1 5.5 1.5-5.5.5v-2Zm-468 1-.5 1.5-1 2 4 3-4.5.5-4.5-2.5.5-1.5 6-3Zm-20 1 7.5.5-2 3 1.5 2.5-13.5-.5 3.5-4.5 3-1Zm438 0 13.5.5-2 3 1.5 2.5-13.5-.5.5-5.5Zm24 0-.5 1.5 1 4-1.5-.5-3.5-1.5.5-1.5 4-2Zm-1.5 2-1 2h1v-2Zm192.5-2 11.5 3.5q-4.81 11.19-18.5 13.5l-3.5-2.5 4.5-6.5.5 1.5-1 4 3.5 1.5 9.5-7.5 1-4-7.5-3.5Zm33 0q7 3.5 3.5 17.5l-3.5 6.5-2.5-4.5 1-2h-2l1-10-.5-1.5 1.5-.5-1-3 2.5-2.5Z"/><path fill="#181729" stroke="#181729" stroke-width="3" d="m789.5 387 6.5 1.5-6.5 7.5-1.5-.5 1.5-8.5Zm22 4 1.5.5-8.5 7.5-.5-2.5 7.5-5.5Zm-191 1 5.5 3.5-9.5.5-.5-1.5 4.5-2.5Zm184 1-2.5 3.5 1 4-1.5-.5-2.5-1.5 5.5-5.5Zm-642 3 4.5 2.5-5.5 7.5-4-1-11 4v-1q11.57-.43 15.5-8.5l.5-3.5Zm102 0h35l4.5 2.5 1 5-5.5 7.5-23 9-15.5-12.5-2-7 1.5-2.5 4-2Zm4.5 1-8 4 5 11 10 6q15 0 23-8l4-9q-11-8-34-4Zm91.5-1h20l3.5 3.5-3.5 7.5-7-5-17.5-2.5.5-1.5 4-2Zm10.5 2-1 2 8 3 1-4-8-1Zm-30.5-1 5.5 1.5-.5 1.5-5 1-2.5-1.5.5-1.5 2-1Z"/><path fill="#181729" stroke="#181729" stroke-width="3" d="m264.5 400 36.5 1.5-4.5 7.5-20 7-13.5-11.5 1.5-4.5Zm372 1 37.5 1.5-6.5 4.5-25-1v1l23.5.5-23.5.5-2.5-1.5 2-1-5.5-4.5Zm-33 1 1.5 2.5-3.5.5 2-3Zm144 0 2.5 2.5-8.5 8.5-2.5-1.5 8.5-9.5Zm-146 4 6.5 1.5-7 2 1 4-1.5.5-3.5-4.5 4.5-3.5Zm-5 1-1 2-5.5-.5 6.5-1.5Zm-439 1 8 2 6-2v1l-10 5-3-4-2.5-.5 1.5-1.5Zm472 0 1.5.5-1 4 .5 1.5-6.5-3.5 5.5-2.5Zm-477 4 5.5 1.5q-11.25-1.25-15.5 4.5l2-3 8-3Zm440 1 5.5.5-8.5 2.5 1-2 2-1Zm-413 1 2.5.5-10.5 4.5v-1l8-4Zm541 0 9.5 2.5-.5 1.5-9 2-4.5-2.5.5-1.5 4-2Zm-133 2 .5 3.5-2.5.5.5-1.5 1.5-2.5Zm-539 8 5.5 8.5-1.5-.5-1.5-.5-2.5-7.5Zm444 0 3.5 2.5 2 9h-1l-4.5-11.5Zm89 1-2.5 5.5-.5 1.5-2.5-.5 3-2-1.5-.5-4.5 2.5-3.5 9.5-1.5-.5-4.5-6.5-10.5-4.5.5-1.5 28-3Zm16 1 2.5.5-.5 2.5-4.5-.5 2.5-2.5Zm-445 1 2.5 3.5-1.5.5-3.5-1.5 2.5-2.5Zm-17 2-.5 1.5-5.5 6.5 1.5-2.5 4.5-5.5Zm460 1 2.5.5-5.5 1.5v-1l3-1Zm-451 2-2.5 3.5-.5 2.5-3.5-.5.5-2.5 6-3Zm4 0 14.5 5.5-.5 3.5-1-3-10-5-6.5 4.5-.5 1.5-1.5-2.5 5.5-4.5Z"/><path fill="#181729" stroke="#181729" stroke-width="3" d="m162.5 432 2.5.5 2 7-1.5 2.5-2 1 1.5-2.5-.5-4.5-2.5-1.5.5-2.5Zm413 1 .5 1.5-4.5 3.5 4-5Zm11 0 .5 3.5-1.5-.5-1.5-.5.5-1.5 2-1Zm-532 4 7.5 6.5-4.5.5-3-7Zm444 0 4.5 2.5 3 4-4.5.5-3-7Zm-346 2 1.5.5-2.5 4.5-2.5-.5 3.5-4.5Zm-27 3-.5 1.5-4.5 5.5-.5-2.5 5.5-4.5Zm443 1-.5 1.5-1 2 .5 1.5-2-1-1.5.5 2.5-3.5 2-1Zm-430 1 2.5.5 2 4-4.5 1.5v-6Zm446 0q6.5 3 1 6l-2 1-1-2-1.5-.5 3.5-4.5Zm-428 6 5.5.5-2.5 4.5-3.5-2.5.5-2.5Zm-50 1 1.5.5-.5 1.5-2 1 .5-1.5.5-1.5Zm444 0 1.5.5-.5 1.5-2 1-.5-1.5 1.5-1.5Zm52 1 2.5.5-1.5 2.5-1.5-.5.5-2.5Z"/><path fill="#04000E" stroke="#04000E" stroke-width="3" d="m65.5 142 .5 9.5-2.5-1.5-3 2-1-2-3.5-.5-2-6 1.5.5 10-2Zm215 8h195l7.5 5.5-52.5.5-8.5 6.5-2 24 6 9v9l6 9v9l6 15-3.5 2.5h-2q-15.3-.8-23 6h-18l-24.5-.5 6.5-9.5 2.5-1.5 1-2 .5-2.5 1.5-.5-.5-1.5 1.5-.5-.5-1.5 1.5-.5-.5-1.5 1.5-.5 27.5-29.5 2.5-1.5 1-2-.5-1.5 1.5.5 1-4-1.5-5.5-2.5-.5 1-3-4.5-2.5h-95l-9.5 6.5-27 59 3 1-3 4 2 9-2 2 11.5 12.5-1.5.5.5 1.5 3-1q7.58 11.92 26 13l8-6 .5 2.5q-6.9 13.6-31.5 9.5h-2l-9.5-1.5 1-2-1.5-.5-1 2-1.5-.5 1.5-3.5 6 1 4.5-2.5.5-1.5 2.5-.5-4.5-6.5-1 2-17.5-22.5v-17l32.5-64.5 4-2h76l2 1 4.5-3.5-.5-1.5-5-3-71 1-2-6-34.5-.5.5-3.5 4-2Zm26.5 19v1h3l-3-1Zm110 12-1 3h1v-3Zm7 18-1 2h1v-2Zm6 18-1 2h1v-2Zm-59 24-1 2h1v-2Zm-99 1-1 7h1v-7Zm102 1v1h1l-1-1Zm11 0v1h1l-1-1Zm-111 8-1 2h1v-2Zm35 32v1h2l-2-1Zm-5 1v1h1l-1-1Zm-7 1v1h1l-1-1Zm241.5-135h27l7.5 5.5-34.5.5-4.5 2.5-2.5 3.5h-36l-7.5-5.5 39.5-.5 11-6Zm40 6h11l31.5 17.5-11.5.5q-3.72-7.28-15.5-6.5l-1.5-5.5q-12.25 1.5-14-6Zm-322 6 1.5.5-17.5 21.5-2-1-28 17-12.5 12.5-.5 3.5-11.5 1.5-12.5 13.5-21.5 11.5-5.5 9.5-119.5-.5 15.5-6.5 35 1 1-2 3 2 1.5-3.5-1.5-2.5-3.5-2.5 11.5-3.5 2.5 1.5.5 1.5h2l5.5 4.5 2.5 3.5 2-1 2 3 7.5-1.5 1-2-6-7 2.5-1.5 14 11 .5-3.5-8-14 9.5-.5v4l1.5.5.5 1.5 2 1 6-1h2l1.5-.5.5-1.5 2.5-1.5-1.5-2.5q21.17 4.17 31-3l13-13 70-50ZM86 235v1h4l-4-1Zm-3 2-1 2h1v-2Zm45 5-1 3h1v-3Zm-31 5v1h4l-4-1Zm19 0v1h2l-2-1Zm-44.5-76 .5 10.5-2.5-1.5-3 2-.5-5.5 1.5-3.5 4-2Zm6 29 1 22 1.5.5-2.5 5.5-5.5-2.5-2-3 2-1-.5-11.5-1.5-.5 7.5-9.5Zm-12 25 .5 1.5-2.5 1.5v-1l1.5-.5.5-1.5Zm620 3 8.5 5.5 2 4 1.5 2.5 4.5-1.5 2.5-4.5 9.5.5-.5 2.5-10.5 5.5-1.5 9.5-2.5-.5-13.5-23.5Z"/><path fill="#04000E" stroke="#04000E" stroke-width="3" d="m294.5 236-.5 1.5-1.5 2.5-1.5-.5 2-1 1.5-2.5Zm59 1 .5 1.5-2.5 1.5v-1l1.5-.5.5-1.5Zm364 3 8.5.5-.5 2.5-9 3q-5.5-3 1-6Zm12 6h6l30.5 18.5 2.5 41.5h13q18.33 6.17 28.5 20.5l.5 3.5 3.5.5 2 7-2.5-1.5-3.5 1.5-1.5 2.5-10 2-2.5-1.5-.5-1.5-1.5.5-.5-1.5-1.5.5.5-1.5-6.5 2.5 1.5 3.5 4.5 2.5.5 2.5 4.5 2.5 1.5 2.5 2-1 19 2 2.5-1.5.5 1.5 3.5.5 2 7-2.5-1.5-3.5 1.5-.5 4.5-17.5 1.5-1 6 2 1 2.5 3.5 6.5-.5.5-1.5 1.5.5 3.5-4.5 2.5.5-1 4 4.5 1.5 2.5-1.5-.5 9.5-4-2-2 6-14-1v2l-8 6-2-1 1.5 2.5 1.5 2.5 21.5 1.5 1 5q-6.89 32.11-31.5 46.5l-4 2h-69q-21-7.5-32.5-24.5l-8.5-23.5-10 6h-32l.5-1.5-1.5-4.5h-25l-3.5-3.5-1-2 1.5-.5h2l5.5-3.5-4-2-.5-2.5-3.5 4.5-.5 2.5-4.5 1.5-1.5 2.5-2 1-4-1v1l2.5.5-7.5 1.5-.5-2.5 6-11-5-8q7.7-5.3 5.5-20.5h14q3.29 7.71 16 6l4-2 2.5-.5 2.5-3.5-1 3 2 1 .5-2.5-1.5-7.5h-2q-18.39 3.89-25.5-3.5l-1.5-2.5q-6.06 7.94-22 6l-.5-2.5q7.28-3.72 6.5-15.5l11.5.5.5 5.5 17.5-1.5.5-4.5 22-2 3.5-1.5 6.5-7.5 2.5-1.5-1.5-6.5-1.5-.5-2.5-3.5-2 1-2-3-5 1-3-5-2 1v-2l-3-1-6 1-2.5-1.5-.5-1.5-1.5.5-.5-1.5-1.5.5-.5-1.5-2 1-2-3-1.5.5-.5-1.5-1.5.5-.5-1.5-1.5.5-.5-1.5-1.5.5-.5-1.5-2 1-6-2-3.5 8.5 6 4-1.5 2.5-1.5.5 6 2-.5 1.5-76-1-20.5 12.5-1.5 3.5-6.5-.5 11.5-13.5 1.5-.5-.5-1.5 1.5-.5-.5-1.5 1.5-.5-.5-1.5 1.5-.5 14.5-16.5 2-1 2 1v-2l7-1 2 1 1-2 1.5.5.5-1.5 1.5.5.5-1.5 1.5.5.5-1.5 2 1v-2l41-1 3 5 2-1v2l3 1 10-1 3 5 2-1 2 3 5-1 2 4 2 1 1.5-.5-.5 1.5 3 1 6-1h2l3.5-2.5 2-4-1-3h1l3 6-.5 1.5 1.5.5-.5 1.5 1.5.5 4.5 6.5 1.5-.5.5 1.5 1.5-.5.5 1.5 1.5-.5.5 1.5 1.5-.5.5 1.5 2-1 2 3 55-1 2 1 1-2 1.5.5.5-1.5 1.5.5 2.5-4.5 23.5.5-2 5 2.5.5 6.5-5.5 4-22-1.5-2.5-1.5-.5-.5-2.5-4 9-5.5-.5 3.5-5.5 2.5-1.5 3.5-4.5 1.5.5 1-5-1.5-2.5-5.5-1.5-17.5-19.5-11.5-4.5 3.5-3.5ZM553 289v1h3l-3-1Zm30 0v1h3l-3-1Zm6 1v1h1l-1-1Zm3 1v1h1l-1-1Zm-57 4v1h2l-2-1Zm69 0v1h4l-4-1Zm-56 2v1h2l-2-1Zm29 0v1h1l-1-1Zm-32 3-4 2-8 10h3q29 4 45-6l1-4-37-2Zm80 10v1h3l-3-1Zm-59 4-3 2 3 1h4l-3-1-1-2Zm-38 1v1h1l-1-1Zm52 0v1h1l-1-1Zm-8 1v1h3l-3-1Zm114 3v1h15l-15-1Zm25 0v1h8l-8-1Zm-200 3v1h1l-1-1Zm3 0v1h1l-1-1Zm177 2-5 2-1 2 6 2 10-2v-1l-10-3Zm24 0-2 3 1 3-18 12-4-2-8-9-2 1-2-3-17 2-3 10 3 1 10 14-1 2 5 2h2l25 1v-1h2v-1h2v-1l6-4v2l-3 1 5 1 6 9 3 2-15 16-2 16 3 1 4 5 2-1 2 3 2-1 13 1 1-2 3 1 3 5 4-1 5-7-3-9q0 10-6 12l-5-1 8-6q4-26-6-37l2-1h1l-1 4 4-3-2-1 3-2v2l5-3 7 1 2-1 2-7-2-2-3-19-11-8h-30Zm-50 4v1h7l-7-1Zm111 2-2 3-5 4-1 3v2l-2-1-4 11 5 2 7-2q9-4 6-20l-4-2Zm-17 3-1 4h1v-4Zm26 3-1 4h1v-4Zm-128 1-1 2h1v-2Zm142 3v1h3l-3-1Zm-174 4v1h1l-1-1Zm9 0v1h1l-1-1Zm-36 1-4 9h3l-1 2 1 1 3-4 2 1-1-1 1-2-1-1-1-1-1-1-1-3Zm-8 2-1 3h1v-3Zm193 0-1 3-3 2 1 2 4 1 12-4-3-1-1-1-7-2-1 2-1-2Zm-180 2v1h8l-8-1Zm165 6v1h4l-4-1Zm37 0v1h1l-1-1Zm5 0v1h5l-5-1Zm-200 1v1h1l-1-1Zm-15 1v1h1l-1-1Zm31 0v1h1l-1-1Zm-37 1v1h4l-4-1Zm203 1-2 1-5 6 1 2-1 6h-1v2h-1v2l-1-1-1 8 2-1-1 2h2l-1 2 1 4v-3h1l-1 5h-2l1 2h-1l-1 4 9 2v-1h2l2-3 9-8v-3l-3-3h-2l-10-2-1-1 5-2h2l3-6-1-1-3-3 3-1h2l1-2 3 2v-2l3-1-1-1-1-1-4-4-2 1-5-1Zm-38 2 2 1-2-1Zm55 2v1h1l-1-1Zm-167 2-2 1q-6 5-4 18l-6-3 3-1-4-2-4 1-1 4 1 1h-13l1-5-1-2 1-2-4-2-1-1-5-3v2l-2 1-1 6h3l3 6-9 1-1-3-1 2v2l-1 4 2 4v-2l1-3 15 1 2 6q16 3 22-6l2 17h2l1 2 27-1q3-8 15-6l1-16-2-2-16-17-2 1-2-3-2 1-18-1Zm104 1-2 2q9 7 6 27l5 1 1-28-10-2Zm-148 3-1 8h1v-8Zm187 0-1 3h1v-3Zm12 0-1 2h1v-2Zm-163 3-1 2h1v-2Zm-18 2v1h1l-1-1Zm144 0-1 14h1v-14Zm-146 5-1 2h1v-2Zm179 1-1 2h1v-2Zm2 2v1h1l-1-1Zm-201 3-1 4h1v-4Zm223 2v1h1l-1-1Zm-13 3v1h2l-2-1Zm-170 9-1 2h1v-2Zm174 5v1h1l-1-1Zm-187 1v1h1l-1-1Zm8 0v1h1l-1-1Zm93 4v1h7l-7-1Zm0 3 3 1v1l-4-1-5 3-1 2 5 3 2-1 4 1 5-3v-1l-9-5Zm78 8-2 5 5 1 1-4-4-2Zm-30 24-2 5 5 1 1-4-4-2ZM20.5 258l3.5 2.5q1.77 13.27-5.5 17.5l-.5-15.5 2.5-4.5Zm19 0 38.5.5-3.5 5.5-38.5-.5 3.5-5.5Zm54 0h30l2.5 2.5-2.5 3.5-33.5-.5 3.5-5.5Zm47 0q18-3 21 9l1.5-.5 5 14h-1l-4.5-7.5-1.5.5-5.5-7.5-17.5-4.5 2.5-3.5Zm193 12 11 1 7-1h2l12.5 6.5 1.5 5.5 1.5-.5-.5-1.5 7 3 14-1 .5 2.5q-5.07 5.43-17.5 3.5l-17-12-30.5-.5 4.5-2.5 1 2 3-5Zm13.5 1v1h5l-5-1Zm-316.5 5 113.5.5 12 17-2.5.5-11-12-4.5 1.5 1.5 4.5 1.5.5 45 89-7 2 3 4-15.5.5 1.5-2.5 3.5-9.5 2.5-.5.5-1.5 1.5-.5-2-1-2.5-7.5-9.5-4.5-1.5-3.5-7-5-2-1-1.5 6.5 5 3-.5 1.5-16 2-.5-2.5 4.5-6.5 1.5-.5-2-8 7.5-.5 12 6 .5-7.5-2.5-3.5-9.5-4.5-1.5-2.5-1.5-.5-.5-1.5-2.5 1.5 2 1q-4.46 8.04-19.5 5.5l-.5-5.5q17.37 1.87 24-7l-1.5-5.5-70.5 1.5-1.5 2.5-14.5 8.5-1.5 3.5-4 2-2.5 1.5 2 4-8 2q2.79 16.29-6 21v42l6 2-3.5 5.5-2 1-6.5-11.5v-33l18-40-25.5-.5-8.5-6.5-2-7 6.5-8.5 23.5-2.5-.5-2.5L30 291.5l-.5-3.5-5.5-.5-.5-5.5-1.5-.5 8.5-5.5Zm.5 1v1h3l-3-1Zm36 0v1h62l-62-1Zm66 1v1h1l-1-1Zm-59 4-14 8 1 8h2v2l9 6 2 6 70-1v-6l-10-18 1-2-2 1-1-3-58-1Zm-32 5-4 3-1 2 14 8 4-5-1-6-1-1h-2l-9-1Zm17 3-1 4h1v-4Zm12 18-1 4h1v-4Zm-9 2v1h1l-1-1Zm5 1-41 1-2 11 36 1 3 3-1-3 8-5 2-4-1-1-1-1-3-2Zm8 3v1h1l-1-1Zm-6 6-2 2h3l-1-2Zm4 1v1h1l-1-1Zm79 1v1h1l-1-1Zm-12 9-5 2v1l6-2-1-1Zm6 16-1 4h1v-4Zm14 3-1 3h1v-3Zm11 7-1 2h1v-2Zm-26 1v1h4l-4-1Zm23.5-76 2.5.5 3 7-4-3-1.5-4.5Z"/><path fill="#04000E" stroke="#04000E" stroke-width="3" d="m636.5 288 5.5 3.5-.5 3.5-1-2-2.5.5 3 7-2-1-2.5-11.5Zm-454 6q12.5-3 15.5 3.5l-.5 2.5q-13.75 3.75-17.5-2.5l2.5-3.5Zm0 12 3.5.5-.5 10.5-3-4-1.5-.5-1-3 2.5-3.5Zm419 7 8.5 4.5.5 1.5 1.5-.5.5 1.5h2l1.5.5 2 15-17.5.5-10-6q-4.8 8.2-20 6l-.5-11.5 2.5-.5 4 5 2-1v2l5.5 1.5-1.5 2.5 4.5-3.5-3-1 8.5-3.5 5.5 3.5-3 1 4.5 3.5-1-3 7.5-4.5-2-9 2-1-4.5-3.5Zm6.5 4v1h1l-1-1Zm9 7-1 5h1v-5Zm-43 3v1h1l-1-1Zm-1 1-1 4h1v-4Zm4 6v1h4l-4-1Zm25 0v1h4l-4-1Zm-414.5-15 4.5 2.5-3 2-1.5-4.5Zm49 5 51.5.5-3.5 5.5h-48l-2.5-2.5 2.5-3.5Zm60 0h97l2.5 2.5-2.5 3.5h-97l-2.5-2.5 2.5-3.5Zm108 0 13.5 1.5 2 4-15.5.5-2.5-3.5 2.5-2.5Zm91 12 4.5 5.5-8 2-6 15v48l6 2-3.5 5.5-2 1-7-19-7.5-.5.5-3.5-8.5-4.5-1-5 10-14-1.5-5.5-1 2-1.5-2.5 26.5-26.5ZM483 376l-1 2h1v-2Zm-332.5-10 15.5 2.5-1.5 2.5-3 1-4.5 2.5.5 3.5 3.5 2.5-.5 1.5-3 1-1.5-.5-.5 1.5-2.5.5-.5 1.5-1.5.5.5 1.5 1.5.5.5 1.5 3 1 5-1q5.41 7.59 20 6l8-6 2.5 19.5q-8.67 27.83-29.5 43.5l-1-3-5.5.5 2 5-2 1-.5 5.5h-73l-7.5-5.5 29.5-1.5 3.5-1.5.5-3.5 16.5-2.5 10.5-15.5 1.5.5-1-3 8.5-12.5 2-1 1.5.5.5-1.5 10-1 5 6 12 1 2-3 8.5-6.5-1.5-3.5-22.5-.5 2.5-4.5 1 2 2-7 1.5-.5-5-2-.5-1.5-2.5 3.5-5.5 7.5-2 1-4-1v1l2.5.5-7.5 1.5-.5-2.5 6-11-5-8q7.7-5.3 5.5-20.5Zm6.5 1v1h3l-3-1Zm-4 10-1 2h1v-2Zm5 2-1 2h1v-2Zm-6 2-1 3h1v-3Zm-2 4-1 4h1v-4Zm2 5-1 4h1v-4Zm7 1v1h1l-1-1Zm17 7v1h3l-3-1Zm0 6v1h2l-2-1Zm-9 1v1h3l-3-1Zm-16 10v1h3l-3-1Zm5 0v1h1l-1-1Zm-5 12-1 2-1-1-1 2-1-1-1 2-1-1-1 2-1-1-1 2-1-1-3 4 2 3 4-1v5l9 1 1-2 2-1 1 3 9-1 2-7-5-4-1 3-2 1-4-1 1-4-6-4Zm-10 14-1 3h-1l-2 3 3 9 4-1-3-14Zm13 4v1h2l-2-1Zm4 1v1h2l-2-1Zm-30 4-2 5 5 1 1-4-4-2Zm8 0-1 3h1v-3Zm-20 2v1h2l-2-1Zm18 0-1 2h1v-2Zm12 0-1 2h1v-2Zm458.5-81 1.5.5-1.5.5v-1Zm-412 13 12 6 73 1 14-1h164l11.5 5.5-83 1-.5 1.5-24-3-4.5 3.5.5 1.5 5 3 11-1 8.5 5.5-2 1q-6.06 31.94-30.5 45.5l-4 2h-69q-21-7.5-32.5-24.5L227.5 399q-7.83-6.17-25-3l-10.5-8.5.5-3.5Zm87.5 9-14 2h15v-1l-1-1Zm10 0v2h8l-8-2Zm73 1v1h15l-15-1Zm-99 1-6 5 2 9 3 1 8 9 2-1 2 3 2-1 7 1v-1h2v-1h2v-1h2v-1h2v-1h2v-1h2v-1h2v-1l3-1 3-4v-2h2v-6l-4-4h-2l-36-1Zm77 1-3 2-1 2 4 2 6-2v-1l-6-3Zm28 7v1h3l-3-1Zm-19 23-2 5 5 1 1-4-4-2Zm-24 12-2 5 5 1 1-4-4-2Zm298.5-26 3.5 2.5 2 7q-6.17 18.33-20.5 28.5l-3.5.5-.5 1.5-2-1-2.5 3.5.5 1.5-1.5.5-.5 5.5h-73l-7.5-5.5 29.5-1.5 3.5-1.5.5-3.5 14-1 3.5-1.5v-2l.5-7.5 3 1 2.5-4.5.5-2.5 3.5-.5 2.5-13.5 4 3 2-4 14-3q4.43 8.57 20 6l2-8Zm-29.5 3v1h3l-3-1Zm2 11-11 6-3 4 16 8 11-1 2-9-14-2 3-4-4-2Zm-12 18-3 1v2l-4 3-2 5 5 1 1-2 5-4v-1l-2-5Zm-28 7v1h2l-2-1Zm6 0v1h1l-1-1ZM42.5 416 54 434.5v6l-4-3-7.5-21.5Zm444 0 11.5 24.5-4-3-7.5-21.5Zm-429 28 8.5 2.5 1 7-9.5-9.5Zm444 0 8.5 2.5 1 7-9.5-9.5Z"/><path fill="#5D7C2F" stroke="#5D7C2F" stroke-width="3" d="m270.5 156 11.5 2.5-.5 5.5-10-2-2 17-6-11-5 3-1-3-1.5-.5 14.5-11.5Zm8 12 3.5 2.5-.5 5.5-4-2-1.5.5 2.5-6.5Zm-27 4 .5 2.5-12 16v8L226.5 228l-3.5-.5 16-40-1.5-.5-9 7-1-2-1.5-.5 16-8 9.5-11.5Zm9 2 3.5 1.5-11.5 13.5.5-3.5 4.5-10.5 3-1Zm9 14 .5 4.5-6 11 3 1-2.5 4.5-1-4-10 13-3.5 2.5-.5 1.5-2.5-.5 10.5-22.5 1 5 3.5-1.5 7.5-14.5Zm-52 9-1.5 4.5-12 26 2.5.5 3.5-2.5 1 2-8.5 10.5-28 2-.5-2.5 11.5-14.5 1 4 3-4 1.5-.5.5-1.5.5 1.5-5.5 7.5-1-2-5.5 3.5.5 2.5 6-1 6 1 8.5-5.5q9.99-8.51 9.5-27.5l7-4Zm444 31q13.39 1.11 18.5 10.5l4 12-4.5 1.5-4.5-5.5 3-1-13.5-15.5-3-2Zm-104 5 2 7q19.42-2.92 27.5 5.5l-5 1 3.5 4.5 15.5 7.5-1 4 5.5 1.5 1-3q3.5 6.5 17 3l.5-2.5-23-15 5.5-.5 10.5 5.5-2 1 12.5 11.5q10.65 8.85 33 6l11.5 8.5 6 8-30.5 1.5-35-18-13.5-.5 1-2-23.5-15.5h-7l-28-12h-2l-5.5.5-.5 2.5-16.5-3.5 10.5-5.5 30-1Zm-68 7 11.5.5-3 5 24 1-3 5 .5 1.5-12.5 10.5-3 11 2 1-7.5.5-1-6-5.5 3.5-3.5 8.5q-13.5-1.5-19 5l-4-5-3.5 2.5-2 3 .5 1.5-25.5 10.5 2 1-22.5 17.5h-17l-1.5-3.5 12-5-4.5-5.5-5-3-26 17h-49l-5.5-2.5-1-5 2.5-4.5 4.5 2.5 1.5 3.5 4.5-1.5 2.5-4.5 3.5 2.5 1.5 3.5 4.5-1.5 2.5-4.5 4.5.5-1 3 1.5 2.5 3.5-.5 1-4-.5-1.5 6.5 2.5 1.5 3.5 3.5-.5 1-4 .5-2.5 4 1 2.5.5-1 4 6.5 1.5 21.5-19.5 5-10-.5-1.5 23.5-15.5.5-1.5 2.5.5 1 2-6 9 2.5.5 8.5-9.5-5-7 6.5-1.5-.5 1.5 5 8-9.5 10.5-16.5 10.5-3 15 5.5 2.5 10.5-7.5 4.5-10.5q25.25-5.75 37.5-24.5l2-4-.5-1.5 12.5 2.5-1.5 2.5-3.5 2.5-13 15 2.5 1.5q4.2-7.8 18-6l13.5-12.5 5.5-6.5 2.5-1.5-.5-3.5-15.5-1.5-4.5-10.5Zm214 6 4.5 2.5 32.5 33.5 3.5 2.5-.5 2.5-39.5-36.5-.5-4.5Zm-671 6 10.5.5-1 4 .5 1.5-12.5-1.5 2.5-4.5Zm91 0h36l2.5 2.5-.5 3.5h-33l-5-6Zm56 0h43l8.5 5.5-2.5.5-6.5.5q2.65 17.15-7.5 21.5l-5 2 .5-1.5-1.5-4.5-22 1-.5-7.5 6-11-12.5-.5-5.5 3.5-.5 13.5-5.5-11.5 7.5-9.5 4-2Zm24.5 6-4 2-8 9 18 1h2l4-1-1-11-4 1-7-1Z"/><path fill="#5D7C2F" stroke="#5D7C2F" stroke-width="3" d="m641.5 254 12.5 5.5-1.5 4.5q-15.39 1.89-21.5-5.5l11-1-.5-3.5Zm-83 1 22.5 8.5-29.5.5.5-1.5-4-5 1.5.5 8.5-.5.5-2.5Zm103 3h35l17.5 14.5-1.5 3.5-10.5 1.5 3.5 5.5 8 5 18.5 1.5-2.5 4.5h-34L678 278.5l12-4-.5-3.5-6-1-9 5-7.5-6.5-7-9 1.5-1.5Zm-209 6 3.5 2.5-11.5 14.5-1-2-4 2-1.5-1.5 12-12 2.5-3.5Zm81 0 5.5.5-15.5 5.5v-1l10-5Zm-198 12q17.15-3.15 24.5 3.5l-1.5 12.5-4.5 2.5-.5 2.5-1-2-2.5-1.5-3-6 1-4-12.5-1.5-5.5 3.5 1.5 2.5 13.5.5-8.5 5.5q-14.25-3.75-18 3l-1-3-11.5-1.5 1.5-4.5q16.79 2.29 21.5-7.5l.5-1.5 6-3Zm-195 6 3.5 2.5 2 3-2 1-.5 3.5-2-4-3.5-2.5 2.5-3.5Zm250 5 2.5 1.5-8.5 10.5-1-5-2.5-.5 9.5-6.5Zm-191 1 11 3 23 21 3-5 7 4 12.5-11.5 2.5-5.5 5.5 1.5-12 15 2.5 1.5 14-11 12 11 4-6 3-1 .5 1.5-8.5 11.5-15.5-1.5 3.5-4.5 2.5-.5-2.5-5.5q-5.5 17.5-34 12l-34-30Zm167 0 11.5 1.5-1.5 4.5-8.5-1.5-1.5-4.5Zm-216 4 37.5 72.5 11.5 11.5 3.5 1.5-5.5.5-8.5-5.5-38.5-80.5Zm231 8 2.5.5-3.5 4.5-2 1-.5-2.5 3.5-3.5Zm-78 6 8.5 3.5 1 2-1.5.5-8-6Zm-212 54 2.5.5 6.5 7.5 1.5.5-1.5 3.5-2.5-.5-6.5-7.5-1.5-.5 1.5-3.5Zm444 0 2.5.5 6.5 7.5 1.5.5-1.5 3.5-2.5-.5-6.5-7.5-1.5-.5 1.5-3.5Zm-461 1 7.5 5.5 2 10h-1l-7.5-9.5-3 2-.5-5.5 2.5-2.5Zm444 0 7.5 5.5 2 10h-1l-7.5-9.5-3 2-.5-5.5 2.5-2.5Zm-53 6 1.5.5-8.5 10.5-2.5-.5 5.5-8.5 4-2Zm-399 14q2.89 5.61 13.5 3.5L68.5 390l-2-9Zm444 0q2.89 5.61 13.5 3.5l-11.5 5.5-2-9Zm-427 15 24.5 1.5q-1.21 14.29-11.5 19.5l-13 3-11.5-9.5.5-2.5 3.5-1.5 3.5-8.5 4-2Zm16.5 6-10 10 2 2 5-3 5-7-2-2Zm-19 6-3 3 2 3 4-1v-3l-3-2Zm446.5-12 24.5 1.5q-1.21 14.29-11.5 19.5l-13 3-11.5-9.5.5-2.5 3.5-1.5 3.5-8.5 4-2Zm16.5 6-10 10 2 2 5-3 5-7-2-2Zm-19 6-3 3 2 3 4-1v-3l-3-2Z"/><path fill="#354425" stroke="#354425" stroke-width="3" d="m280.5 156 9.5.5-4.5 5.5-3.5-2.5-1.5-3.5Zm-16 18 3.5 1.5 2 5-1.5-.5-2.5 1.5-2 4 2 1-6 6-13 29 2.5.5 3-4 5-4 .5 2.5-9.5 17.5-1.5.5 1 2-2 1 2 8-83.5.5-2.5-2.5 8.5-10.5 15-13 .5 2.5-12 17 24.5.5 9.5-7.5 19.5-39.5 4-2 7-4 .5 1.5-10.5 26.5-1-2-5 6-6.5 5.5-1.5 2.5-4.5 3.5.5 3.5 11.5-.5.5-7.5 1 2 6.5.5-2 4 7.5 1.5 10.5-8.5-.5-9.5-11 8-.5-1.5 17.5-34.5 9.5-7.5 3.5-6.5Zm-25 9 .5 2.5-3.5.5v-1l3-2Z"/><path fill="#354425" stroke="#354425" stroke-width="3" d="m209.5 202 .5 8.5-5.5 10.5-1-5-5.5-2.5 11.5-11.5Zm-18 14 6.5 2.5-3.5 4.5-2 1-1-8Zm453 6h33l8.5 5.5-2 1 18.5 27.5 15.5 14.5 14 18-1.5-.5q-18.84 3.34-25.5-5.5l-3-5 12-3-.5-2.5-17-14h-35l-1.5 2.5 11.5 12.5 4 2 12-5 2.5 1.5-.5 3.5-11.5 3.5 17 15-28.5.5-11.5-5.5 23-2-10.5-12.5q-7.55-7.45-26-4-17.19-4.81-26.5-17.5l7.5-.5 3 6 16 6h11l1.5-4.5-17-7 11-1 .5-8.5 2.5.5.5 2.5 3-1 20 1 4.5 4.5.5 1.5 4.5-1.5q-1.21-14.29-11.5-19.5-9.92-7.08-30.5-3.5l2.5-5.5Zm-85 11 1.5.5-1.5.5v-1Zm-67 1 5.5.5 1 2q-4.16 6.34-17.5 3.5v-1l11-5Z"/><path fill="#354425" stroke="#354425" stroke-width="3" d="m645.5 234 5.5.5 3 8-3-2-2.5-5.5-1 2-2-3Zm49 0h2l5.5.5-2.5 5.5-3.5-2.5-1.5-3.5Zm23 0q6.75 4.25-3.5 8.5l1.5 3.5q11.29 1.29 14-6 6.75 4.25-3.5 8.5l1.5 3.5q18.67 3.33 25.5 18.5l3 15-12.5 2.5.5-1.5-2.5-4.5-33.5-32.5-2.5-3.5-3 1 .5-1.5 1.5-3.5 13-8Zm-286 12 3.5 1.5.5 1.5 2.5.5 1 2-12.5 2.5q-17.21 25.29-45.5 39.5l.5 1.5q-4.5 7.5-19 5l-2.5-4.5 18-3-1-4 13-3 2.5-4.5 10.5-8.5 1.5-2.5 2.5-1.5.5-1.5 24-21Zm22 0 6.5.5-17.5 5.5 3-4 8-2Zm-293 6 18.5.5-9 7-2 5 8.5 23.5h22l31 28 11.5 2.5-.5 1.5 5.5-.5-.5-1.5h46l2.5 2.5-1.5 3.5-4 3-.5-1.5.5-1.5-43.5-.5-.5-2.5-11 3-34-30q-18.39 3.89-25.5-3.5l-14-32 2-1-1.5-5.5Zm63 0q15.6 2.4 21.5 14.5l-1.5 2.5-1.5.5-1.5 2.5-7-12-3.5-1.5-.5-2.5-6-4Zm-193 5 7.5 1.5-4.5 5.5-3.5-2.5.5-4.5Z"/><path fill="#354425" stroke="#354425" stroke-width="3" d="m203.5 258 6.5.5-.5 11.5-17.5-1.5 7.5-8.5 4-2Zm45 0 15.5 9.5-6.5 2.5-11.5-9.5 2.5-2.5Zm191 0 12.5.5-2 5 2 1-14 15 3.5 1.5 2.5-1.5.5 1.5 7.5-4.5-.5-1.5 16.5-13.5-1-3 5.5-.5 1.5 2.5-17.5 18.5q-10.5 12-36 9l-.5-2.5 22-16 1-3-5-7 1.5-1.5Zm100 6h31l6.5 3.5-.5 2.5-36-1-3 1-2-1-6 1v-1l10-5Zm38 0q11.64 8.86 35 6l34.5 17.5-4.5.5-12-6h-12q-4.2-7.8-18-6l-23-12Zm1 5 2.5.5-2.5.5v-1Zm-62 1 1.5.5-11.5 5.5v-1l10-5Zm-268 1 23 21 10.5 2.5-1.5 4.5-7 1-22-22-7.5-2.5 3-2 1.5-2.5Zm249 2 1 3 1.5.5-2.5 3.5-2 1-1.5-.5-1.5 3.5-.5-2.5 2.5-4.5 2.5-.5-4-1 4.5-2.5Zm-310 3 22.5 1.5-1.5 4.5h-20l-2.5-2.5 1.5-3.5Zm143 0 4.5.5-6 3-4.5 5.5-11 3v-1l17-11Zm30 4 10.5 7.5-5 1-.5 1.5-1-3-4.5-2.5.5-4.5Zm119 2 5.5.5-14.5 5.5 1-2 8-4Zm-183 6 10.5.5-1 4 .5 1.5-12.5-.5 2.5-5.5Zm165 0 2.5.5-12.5 5.5v-1l10-5Zm-380 6 5.5.5-3 5q17.57-1.07 26.5 6.5l3-4 .5 1.5.5 2.5 11.5-.5.5-4.5 8.5 10.5-45.5.5.5-3.5-1.5-2.5-4.5 1.5-1 2 1.5 2.5-11.5-1.5 8.5-16.5Zm48.5 14-1 2h1v-2Zm-.5-14 10.5 5.5-1.5.5-9-6Zm314 0 5.5.5-11.5 6.5-2.5-1.5 8.5-5.5Zm308 0 3.5.5 1 2-2 1 2 1-.5 2.5-10.5-1.5 6-3 .5-2.5Zm-440 24 79.5.5-1.5 2.5-5 3h-81l2-3 6-3Zm73.5 2 1 1h2l-3-1Zm-75 1v1h1l-1-1Zm84.5-3 21.5.5-.5 1.5-15 4-6-6Zm-311 36q22.68-2.68 27.5 12.5l3 12-1.5-.5-16 1-9.5-6.5-2.5-3.5-2.5-1.5-1.5-2.5-6-4-2.5 1.5 6-3 1.5-3.5 4-2Zm8.5 6-2 4h2l6 8h3l1-3-1-1-7-7-2-1Zm435.5-6q22.68-2.68 27.5 12.5l3 12-1.5-.5-16 1-9.5-6.5-2.5-3.5-2.5-1.5-1.5-2.5-6-4-2.5 1.5 6-3 1.5-3.5 4-2Zm8.5 6-2 4h2l6 8h3l1-3-1-1-7-7-2-1Zm-349.5-2 16 9 1-3 .5 2.5 1.5 5.5 3.5-.5 1.5-6.5 3 1 10.5.5-7 6-4.5 5.5q-19.22.22-24.5-13.5l-1.5-6.5Zm239 2 1.5.5-1.5.5v-1Zm-354 4 .5 2.5-5.5 10.5-.5-5.5 5.5-7.5Zm361 0 34.5 2.5-6 3-6.5 7.5-24 1 1.5-2.5-.5-1.5-1.5-.5 2-5-1.5-2.5 1.5-.5.5-1.5Zm.5 2-1 2h1v-2Zm82.5-2 .5 2.5-5.5 10.5-.5-5.5 5.5-7.5Zm-95 4 1.5.5-2 1 1.5 3.5 6.5 4.5-15.5.5 1.5-2.5.5-4.5 2 1 4-4Zm-325 22 18.5.5q2.46 21.96-12.5 26.5l-10 3v-1l6.5-3.5q9.04-4.96 10-18l-23-2 10.5-5.5Zm444 0 18.5.5q2.46 21.96-12.5 26.5l-10 3v-1l6.5-3.5q9.04-4.96 10-18l-23-2 10.5-5.5Zm-462 10 .5 2.5-3.5 5.5-2.5.5-.5 1.5-1.5-.5-.5-1.5-3.5-2.5 2.5-3.5 9-2Zm444 0 .5 2.5-3.5 5.5-2.5.5-.5 1.5-1.5-.5-.5-1.5-3.5-2.5 2.5-3.5 9-2Z"/><path fill="#354425" stroke="#354425" stroke-width="3" d="m99.5 402 2.5 1.5-5.5 7.5-5 3-1.5-2.5 9.5-9.5Zm444 0 2.5 1.5-5.5 7.5-5 3-1.5-2.5 9.5-9.5Zm-463 6 3.5 1.5-.5 3.5-4 1-1.5-3.5 2.5-2.5Zm444 0 3.5 1.5-.5 3.5-4 1-1.5-3.5 2.5-2.5Z"/><path fill="#B8BCB4" stroke="#B8BCB4" stroke-width="3" d="m291.5 156 8.5 2.5-11.5 13.5h-2l-4 1-.5-5.5 1.5.5 4.5-1.5q-1.75-8.75 3.5-10.5Zm293 53 18.5 18.5-1.5 1.5-17-20Zm13 7 9.5 7.5-1.5 1.5-8-9Z"/><path fill="#414652" stroke="#414652" stroke-width="3" d="m299.5 156 12.5 2.5-2.5 3.5q-14.84 1.16-19.5 12.5l-7.5 15.5-4-10-2.5-.5 1.5-5.5 4.5 3.5 1.5 2.5 2.5-.5 14-22-.5-1.5Zm133 0 5.5 3.5-.5 2.5q-12.4-1.4-16 6l-.5-1.5 5.5-7.5 6-3Z"/><path fill="#414652" stroke="#414652" stroke-width="3" d="m282.5 161 4 1 1.5-.5-2.5 6.5-3.5-2.5.5-4.5Zm265 1 4.5 2.5-2.5 3.5-3.5-1.5 1.5-4.5Zm-77 12 .5 1.5h-1l.5-1.5Zm-47 6 15 1 4-1 13.5 36.5v17l-5.5.5-6.5-3.5-.5-1.5-5-4-1.5.5-3-8 4-2-2-5 2-1 .5-1.5 4 2 1.5-12.5-3.5-4.5-7-1h-2l-5-3-1.5.5-3-8 1.5-1.5Zm23.5 17-1 2h1v-2Zm1 5-1 2h1v-2Zm5 14-1 2h1v-2Zm-15 2-1 2h1v-2Zm15 14v1h1l-1-1Z"/><path fill="#414652" stroke="#414652" stroke-width="3" d="m431.5 196 3.5 7.5-5.5.5-2.5-5.5 4.5-2.5Zm-164 2 2.5.5-3.5 5.5-2.5-.5 3.5-5.5Zm8 4 .5 1.5-16.5 33.5-1.5.5-3.5 8.5-8.5-3.5 15.5-32.5 2.5.5-12 22v6l2.5 1.5 21-38Zm245 20 1.5.5-2.5 1.5 1-2Zm104 0 2.5 1.5-1.5-.5-1-1Zm4 2 6.5 5.5-5.5-4.5-1-1Zm-148 6 1.5.5-5.5 3.5-3.5-1.5 3.5.5 4-3Zm-39 10 2.5.5-3.5 5.5-2.5-1.5 3.5-4.5Zm-415 72 15.5 9.5q-3.25 5.75-15.5 2.5l-2.5-9.5 2.5-2.5Zm169 7 1.5 3.5-2 1 1-3-.5-1.5Zm281 5 .5 1.5h-1l.5-1.5Zm-1 3 1.5 2.5-2-1 .5-1.5Zm187 5q8.13 14.37 35 10l10-8 .5 2.5-12 16 .5 1.5q-16.5 3-24-3l-1.5.5-7-9 2-1-2.5-6.5-3 2 .5-1.5 1.5-3.5Zm16.5 18v1h1l-1-1Zm-564.5-11 2.5 1.5-1.5.5-1-2Zm630 1 1 2-1.5-.5.5-1.5Zm30 1 4 1 1.5-.5-6.5 9.5-4 2 4.5-7.5.5-4.5Zm-549 25 9.5.5-2 1 7 8-2.5 2.5h-23l11-12Zm2.5 3v1h1l-1-1Zm179.5-3 8.5.5-5.5 11.5-4.5-.5 2-5v-2l-.5-4.5Zm339 0 9.5 2.5v25l-2.5 2.5-3.5-2.5q3.64-19.14-6-25l2.5-2.5Zm-108 6q28.81-4.31 37.5 11.5l-16 2q-1.33 13.33 8 16l-29.5.5-2.5-3.5 16-9 2-10-18-4 2.5-3.5Zm18.5 3v1h3l-3-1Zm-2 1-1 2h1v-2Zm-7 22v1h1l-1-1Zm63.5-14q11.5-3 14.5 2.5l-6.5 12.5-9 3-2.5-11.5 3.5-6.5Zm4.5 6-2 5 4 1 2-5-4-1Zm18.5 1 6.5 5.5 2 4-14.5 1.5-2.5-2.5 8.5-8.5Zm-201 57 .5 1.5-1.5.5 1-2Z"/><path fill="#CAC25D" stroke="#CAC25D" stroke-width="3" d="m458.5 156 4.5.5-1 4 23.5 1.5.5-3.5-1.5-2.5 13.5 9.5-2.5 2.5h-27l-12.5-9.5 2.5-2.5Zm116 0 13.5 9.5q-3.75 6.25-17.5 2.5l-8.5-5.5 14-1-1.5-5.5Zm120 144 13.5 2.5-2.5 9.5-11.5-.5 2-9-1.5-2.5Zm58 0 3.5 2.5-3.5 9.5-3.5-.5 3.5-11.5Z"/><path fill="#EFF0E9" stroke="#EFF0E9" stroke-width="3" d="M464.5 156q17-4.5 21.5 3.5l-.5 2.5h-21l-2.5-2.5 2.5-3.5Zm96 0q12.5-3 15.5 3.5l-.5 2.5q-13.75 3.75-17.5-2.5l2.5-3.5Zm-30 30h16q4.76 7.24 18 6l11.5 9.5q-2.75 5.25-5.5-.5l-24-9q-14.5 4-18.5-2.5l2.5-3.5Zm54 18 22.5 20.5 4 8-1.5-.5-7.5-3.5-18-20-1-3 1.5-1.5Zm-522 48q12.25-3.25 15.5 2.5l-2.5 3.5q-12.25 3.25-15.5-2.5l2.5-3.5Zm460 0q13.75-3.75 17.5 2.5l-2.5 3.5-15 6h-12l-.5-2.5 12.5-9.5Zm-21 1 2.5 1.5-11.5 9.5.5-1.5 6.5-8.5 2-1Zm-289 5 3.5 2.5-2.5 3.5-3.5-2.5 2.5-3.5Zm126 24 3.5 2.5-2.5 3.5-3.5-2.5 2.5-3.5Zm44 13-.5 1.5-4.5 6.5-4 2 .5-1.5 4.5-6.5 4-2Zm-98 5 3.5 2.5-2.5 3.5-3.5-.5 2.5-5.5Zm12 0h66l3.5 3.5-.5 2.5h-69l-2.5-2.5 2.5-3.5Zm390 0 9.5 3.5-3.5 8.5-8.5-2.5 2.5-9.5Zm61 0 3.5.5-3.5 11.5-3.5-2.5 3.5-9.5Z"/><path fill="#AFC470" stroke="#AFC470" stroke-width="3" d="m272.5 162 9.5 3.5-.5 3.5-4-1-4 6-3.5-1.5 2.5-10.5Zm-17 6 2.5.5-11.5 27.5-6 5-.5-8.5 15.5-24.5Zm395 60 21.5 14.5-1.5 3.5q-13 3.5-16.5-2.5l-6-13 2.5-2.5Zm-145 12 10.5 1.5-1.5 4.5-10.5-1.5 1.5-4.5Zm22 6q16.25-2.25 18.5 9.5l-.5 2.5-29 12h-11l-.5-1.5 4.5-6.5 1 2h13l16.5-7.5-1.5-4.5-18.5-.5 7.5-5.5Zm19 0 8.5 5.5-2.5.5-6.5-3.5.5-2.5Zm-497 6 11.5.5-1 4 .5 1.5-12.5-1.5 1.5-4.5Zm44 0 14.5 1.5-1.5 4.5-16.5-.5 3.5-5.5Zm339 0 5.5 1.5-1.5 2.5q-16.48 5.52-24.5 19.5l-.5 1.5-9 4-.5-1.5 30.5-27.5Zm53 0 17.5.5-9 6-2 5 3 1-5 4-.5 1.5-3.5-.5-1.5-11.5-4.5-2.5 5.5-3.5Zm-305 6 3.5 1.5 2 14-5.5 2.5-5.5-13.5 1.5-2.5 4-2Zm30 5 4 1 1.5-.5-2.5 6.5-3.5-2.5.5-4.5Zm126 19-.5 1.5 1 4-4.5.5-2-3 6-3Zm-156 81 5.5 8.5-2.5.5-3-9Zm12 15 53.5.5-3.5 5.5h-44l-6.5-3.5.5-2.5Zm60 0h195l2.5 2.5-2.5 3.5h-192l-3.5-3.5.5-2.5Z"/><path fill="#7B522B" stroke="#7B522B" stroke-width="3" d="m261.5 168 2.5.5 2 5-2.5 1.5-3-1-2.5 1.5 3.5-7.5Zm9 11 4 1h2l3.5 1.5 2 11-5.5 10.5-1-5-5 2-1-2-2.5-.5 3-9-1-2 1.5-7.5Zm163 13 9.5 3.5 1 13-2.5 1.5q-8.89-4.11-9.5-16.5l1.5-1.5Zm208 33 1 3 6.5.5-1 3 1.5 2.5-13.5-3.5 1.5-3.5 4-2Zm-88 3 4.5 1.5-1.5 4.5-8.5-.5 4-2 1.5-3.5Zm53 6 16.5 11.5-4.5.5-10.5-5.5-2-4 .5-2.5Zm-72 6 5.5.5 5.5 8.5 12.5 6.5-.5 2.5h-8L534 242.5l.5-2.5Zm43 0 14.5 5.5-4.5.5-10-6Zm-500 12 14.5.5-2 5 2 1q-2.73 6.77-13.5 5.5l-1.5-6.5 1-4-.5-1.5Zm548 0 5.5.5-1 4 .5 1.5-5.5-.5-1-4 1.5-1.5Zm-499 4 12.5 2.5-1 4 4 3 2 7-6.5 3.5-10.5-5.5 11-1-1.5-3.5-11.5-2.5 1-4v-2l.5-1.5Zm475 2 4.5 2.5-.5 3.5-5.5-1.5 1.5-4.5Zm-30 6 15.5 5.5-5.5.5-10-6Zm-333 5 1.5.5.5 6.5 7.5.5-11.5 11.5-2.5-2.5q-2.05-12.55 4.5-16.5Zm257 1 2.5.5-1.5 3.5-3.5 1.5 4 1-3 1-5.5 10.5-5.5-4.5 7-3 5.5-10.5Zm-31 12 3.5 2.5 2 3-9.5.5 1.5-2.5 2.5-3.5Zm-104 3 4.5 2.5.5 2.5 1.5-.5 2 4-8.5 1.5-5.5-1.5 5-3 .5-5.5Zm59 1 1 2 13.5.5-9.5 15.5-8 2-2.5-11.5 5.5-8.5Zm-74 2 2.5.5 3.5 6.5 1.5.5 3 4-8.5.5.5-1.5-1.5-4.5-9.5-.5 8.5-5.5Zm-258 6q19.08-4.08 26.5 3.5l-3.5 8.5q-8.93-7.57-26.5-6.5l3.5-5.5Zm39 0 14.5 6.5 3 9-8.5 2.5q-9.88-4.69-9-18Zm44 0 9.5 9.5-2.5 2.5-4.5-.5 1-4-4.5-1.5-1.5.5 2.5-6.5Zm151 0 3.5.5-1 4 .5 1.5-8.5-.5 5.5-5.5Zm143 0 9.5 2.5-2.5 3.5-9.5-2.5 2.5-3.5Zm-183 4 1.5 2.5-3.5 5.5-3.5-2.5-2-3 7.5-2.5Zm6 2 7.5.5-1 4 24 8 .5 3.5 4.5 1.5-11.5.5-17.5 7.5 1 4-8.5.5 5-6 2.5-1.5-2.5-4.5-11.5-.5 8-16-.5-1.5Zm77 0 9.5.5-3.5 5.5-4.5-1.5-1.5-4.5Zm133 0 .5 2.5-5 2 2.5-3.5 2-1Zm-99 1 6.5 4.5 3 4-12 5 1 3-23.5.5v-1l25-16Zm-313 5 4.5 1.5-1.5 4.5-4.5-1.5 1.5-4.5Zm182 0 2.5 5.5-6 4 1 2-8.5.5 11-12Zm177 0 2.5.5-7 6-1.5 2.5-.5-5.5 6.5-3.5Zm41 6 5.5 1.5-6.5 8.5-6 2 5-6 2.5-1.5-.5-4.5Zm-62 6 3.5.5-1 4v2l1 5-3.5.5-3.5-6.5 3.5-5.5Zm41 0 5.5.5-8 7 2.5-7.5Zm-271 6 5.5 1.5 2 4-6.5.5-2.5-4.5 1.5-1.5Zm238 0 6.5 1.5-1.5 2.5-5 2 .5-1.5-.5-4.5Zm99 0 3.5 2.5-2.5 3.5-3.5-2.5 2.5-3.5Zm-344 4 9.5 8.5 1.5 2.5 1-2 5.5 8.5q-3.75 6.25-7.5-2.5L183 330.5l3-1 .5-1.5Zm213 2 14.5 6.5-.5 4.5-9-4-9 5-5.5-3.5.5-2.5 9-6Zm75 0 4.5 1.5-7 21-7.5 7.5-2.5-11.5 4-2 8.5-16.5Zm-294 1 7 9 3.5 1.5-5.5.5-4.5-3.5-.5-7.5Zm66 4 16 1 1.5-.5-1.5 4.5-11 2-5.5-3.5.5-3.5Zm-101 1 10.5 3.5-.5 2.5-11.5-1.5 1.5-4.5Zm149 0 5.5.5-2.5 5.5-3.5-2.5.5-3.5Zm147 0q5.75 3.25 2.5 15.5-3.25 5.75-15.5 2.5l-2.5-2.5 15.5-15.5Zm149 0 3.5 2.5-2.5 3.5-3.5-2.5 2.5-3.5Zm-348 12 3.5 2.5-2.5 3.5-3.5-2.5 2.5-3.5Zm83 0q20.47-4.47 28.5 3.5l-2.5 8.5-27.5-8.5 1.5-3.5Zm46 0 6.5 3.5-2.5 8.5-9.5-2.5 1.5-7.5 4-2Zm21 0 21.5 1.5-2.5 4.5h-19l-2.5-2.5 2.5-3.5Zm-85 1 4 2 1-2 5.5 8.5-2.5.5-7.5-5.5-.5-3.5Zm-92 5 .5 2.5-7.5 15.5-3.5-.5-1-5 7.5-10.5 4-2Zm81 0 3.5 2.5-2.5 3.5-3.5-2.5 2.5-3.5Zm-42 6 3.5 2.5.5 1.5 3.5 1.5-13.5.5v-1l3.5-1.5 2.5-3.5Zm30 0 3.5 2.5.5 1.5 3.5 1.5-13.5.5v-1l3.5-1.5 2.5-3.5Zm140 1 7.5 2.5-.5 2.5-16 6-1.5-3.5 2.5-3.5 8-4Zm-290 5 9.5 2.5-2.5 9.5-8.5-10.5 1.5-1.5Zm253 0 20.5 1.5-1.5 4.5q-12.75 3.25-16-3l-1 2-2-5Zm225 0 11.5.5-1.5 3.5-4 2-6.5-3.5.5-2.5Zm-157 10 1 2 1.5.5-8.5 5.5.5-1.5-1-4 6.5-2.5Zm-207 2 3.5 2.5 2 3-9.5.5 1.5-2.5 2.5-3.5Zm336 0 3.5.5-2.5 5.5-3.5-2.5 2.5-3.5Zm-415 6 10.5 1.5-1.5 4.5-10.5-1.5 1.5-4.5Zm109 0 13.5.5-4 2-2.5 3.5-3.5-2.5-.5-1.5-3-2Zm324 0 3.5 2.5-2.5 3.5-3.5-2.5 2.5-3.5Zm17 2 10.5 4.5-.5 2.5-4 1-4-3-8 4-.5-1.5 6.5-7.5Zm-485 4 9.5 3.5-1.5 7.5-8.5-6.5-1-3 1.5-1.5Zm450 0 3.5 2.5-2.5 3.5-3.5-2.5 2.5-3.5Zm-411 18 6.5 1.5-1.5 4.5-10.5-.5 1.5-3.5 4-2Zm459 0 3.5 2.5-2.5 3.5-3.5-2.5 2.5-3.5Zm-31 1 4.5 2.5 1.5 2.5 4.5-1.5 1.5-2.5 10.5 7.5-11.5 2.5-10.5-7.5-.5-3.5Zm-474 5 4.5 2.5-2.5 3.5-3.5-1.5 1.5-4.5Zm451 6 3.5 2.5-2.5 3.5-3.5-2.5 2.5-3.5Zm23 12 10.5 2.5-1.5 3.5-10.5-1.5 1.5-4.5Zm-491 6 3.5 2.5-.5 3.5-5.5-2.5 2.5-3.5Zm36 0 3.5.5-2.5 5.5-3.5-2.5 2.5-3.5Zm412 0 5.5 2.5-1.5 3.5-4.5-1.5.5-4.5Z"/><path fill="#8DAC44" stroke="#8DAC44" stroke-width="3" d="m275.5 172 .5 6.5-4.5 1.5-1.5-6.5 1.5.5 4-2Zm-26 6 .5 1.5-7 6 6.5-7.5Zm3 6 .5 1.5-2 1 1.5-2.5Zm15 2 1.5.5-8.5 17.5-2.5-.5q.25-13.25 9.5-17.5Zm-26 3-.5 1.5-.5 1.5-.5-1.5 1.5-1.5Zm-16 3 2.5.5-17.5 34.5-1-2-5 3-.5-2.5 15-27-.5-1.5 7-5Zm20 4 1.5.5-16.5 31.5-3.5-.5 12.5-28.5 1 2 5-5Zm-57 20 3.5 2.5-1.5 4.5-3.5 2.5-.5 1.5-.5-8.5 2.5-2.5Zm-5 12 2.5.5-.5 5.5-5.5-.5 3.5-5.5Zm469 0q18.36.14 23.5 13.5l2 4-6.5.5.5-1.5-1.5-3.5-18-13Zm-167 12 6.5 3.5 3 8-15 4 1.5 2.5-49.5 1.5 5 8-10.5 8.5-.5-2.5 6-7-1.5-2.5-2.5.5-6.5 7.5-9 5-.5-1.5 26-21-1-2q17.17 1.67 24.5-6.5h14l10-6Zm16 0 3.5.5-1 4 .5 1.5-6.5-.5 3.5-5.5Zm14 0q13.78-2.28 19.5 3.5l1 2q-12.04-1.04-16 6l.5 1.5 1.5-4.5-.5-2.5-6.5-.5 1-4-.5-1.5Zm26 0 28 12h7l23.5 15.5-1.5 2.5-45.5-17.5 2-1-8.5-5.5-1 3-5.5-7.5 1.5-1.5Zm41 6h18l23.5 15.5-.5 2.5q-15 3.5-18.5-4.5l-.5-1.5h-7l-14.5-9.5-.5-2.5Zm-539 6 5.5.5-1 4 .5 1.5-6.5-1.5 1.5-4.5Zm64 0q14.75-3.75 18.5 3.5l-.5 2.5-18.5-.5 1-4-.5-1.5Zm396 0 6.5.5-1.5 4.5-6.5 5.5-5.5 6.5-8 7q-14.19-1.69-19 6l-1.5-2.5 15.5-16.5 2-1 1 8 3.5-.5 1.5-2.5 12.5-11.5-.5-3.5Zm128 0 10.5 3.5-.5 2.5-11.5-1.5 1.5-4.5Zm-85 4 1.5.5 4 6-16.5 1.5v-1l10.5-5.5.5-1.5Zm-363 2 8.5.5-5.5 10.5-3-11Z"/><path fill="#8DAC44" stroke="#8DAC44" stroke-width="3" d="M222.5 258q12.82-1.32 15.5 7.5l1 2q-7.12 4.88-5 19l2.5 1.5 12-11 27.5 26.5 1.5 2.5 4-1 2.5 1.5-3.5 5.5-14-11-13 11-1.5-2.5 12-14-5.5-1.5-9 12-7 5-6-4-3 5-29-24-28.5-1.5-2-25 3.5-2.5v1l-1.5.5-1 2 5.5 13.5 5-2 2 8q25.07 5.07 32.5-7.5l2.5-16.5Zm305 6 5.5.5-15.5 5.5v-1l10-5Zm-22 3-.5 1.5.5 1.5 9.5.5-10.5 4.5-.5-6.5 1.5-1.5Zm-99 12-1 2-1.5.5v2q-6.13 17.87-21.5 26.5l-9 2-1.5-4.5 5.5-3.5 1 2 4.5-3.5 1-2-2-1 1.5-3.5 1 3 8.5-10.5-2-1 10.5-7.5 2 1 3-2Zm-65 3 6.5 1.5-1.5 4.5-5.5-.5 1-4-.5-1.5Zm-197 6 5.5 3.5 41.5 83.5 5.5 2.5-5 1-.5 1.5-7-8 1.5-.5-5.5-8.5-1.5.5-35-70 .5-5.5Zm163 18 11.5.5-2.5 5.5-4.5-1.5-1.5-2.5-3-2Zm15 0 9.5.5-3.5 5.5-4.5-1.5-1.5-4.5Zm12 0 9.5.5-3.5 5.5-4.5-1.5-1.5-4.5Zm15 0 4.5 1.5-1.5 4.5-3.5-.5-1-4 1.5-1.5Zm9 0 7.5 1.5-1.5 4.5-4.5-1.5-1.5-4.5Zm-287 61 1 2 3-2 8.5 10.5-3.5 6.5q-11.75 2.75-14.5-3.5l5.5-13.5Zm444 0 1 2 3-2 8.5 10.5-3.5 6.5q-11.75 2.75-14.5-3.5l5.5-13.5Zm-417 11q12.25-3.25 15.5 2.5l-2.5 3.5q-12.25 3.25-15.5-2.5l2.5-3.5Zm444 0q12.25-3.25 15.5 2.5l-2.5 3.5q-12.25 3.25-15.5-2.5l2.5-3.5Z"/><path fill="#929693" stroke="#929693" stroke-width="3" d="m287.5 171-.5 3.5-2.5 5.5-2.5-6.5 5.5-2.5Zm238 19 1.5.5-.5 1.5-1.5-.5.5-1.5Zm9 4 5.5 1.5-4.5.5-1-2Zm9 1 2.5 1.5-1.5.5-1-2Zm39 6 .5 1.5h-1l.5-1.5Zm129 141 1.5.5-5.5 8.5-5 2-.5-1.5 9.5-9.5Zm-464 24h61l3.5 3.5 1 2-61.5.5-5.5-3.5 1.5-2.5Zm74 0h59l3.5 3.5-.5 2.5-66.5-.5 4.5-5.5Z"/><path fill="#3A393B" stroke="#3A393B" stroke-width="3" d="m454.5 157-.5 1.5 1.5 5.5 3.5 2.5-2.5-1.5-3.5-2.5 1.5-5.5Zm135 9 .5 1.5h-1l.5-1.5Zm-137 8 15 1 2-1 .5 1.5-6 5-2.5 15.5-1.5-2.5-1-3-.5-3.5-1.5.5-1-6h1l.5 1.5.5-2.5 1.5-3.5 2.5-.5-4.5-.5-2 4-5.5-3.5 2.5-2.5Zm10.5 1v1h1l-1-1Zm-35.5 5 11.5.5-12.5 1.5 1-2Zm2 12 1 4 1.5-.5-3 2 .5-5.5Zm17 5 .5 1.5h-1l.5-1.5Zm1 5 .5 1.5h-1l.5-1.5Zm-15 2 5 8 1.5-.5-1.5 2.5-5-10Zm162 6q15.01 1.99 22 12l13 3 18 12 1-2 5.5 10.5-2.5.5-1-3-2.5-.5-1.5-3.5-5.5 1.5 1.5.5 3-1v1l-3.5 1.5-.5 3.5-16-1-2 1 .5-1.5-11.5-13.5-1.5.5-7.5-14.5-9.5-4.5.5-2.5Zm43.5 32v1h1l-1-1Zm-73.5-31 5.5 2.5 1.5 8.5q18.75-2.75 26.5 5.5l2.5 4.5 3.5 1.5 1.5 3.5 2.5 1.5-.5 1.5-2-1-11 1q-10.93-10.07-35-7l-1 2-2-7-4 1-26-1-11 6-17 2-1-2-16.5 5.5 3 1-3.5 1.5-1-2-5.5-.5 1-5-1-2 2.5 1.5 10-6q25.41 4.41 36-6h31l10.5-8.5.5-2.5ZM527 226v1h1l-1-1Zm-4 1v1h1l-1-1Zm-2 1v1h1l-1-1Zm-2 1v1h1l-1-1Zm-7 2v1h2l-2-1Zm68 0v1h4l-4-1Zm-78 1v1h2l-2-1Zm83 0v1h1l-1-1Zm7 3v1h1l-1-1Zm2 1v1h2l-2-1Zm6 1v1h1l-1-1Zm-147.5-21 .5 1.5h-1l.5-1.5Zm-15 2 .5 1.5h-1l.5-1.5Zm8 13 4.5 2.5-1.5-.5-3-2Zm7 1 1.5.5-1.5.5v-1Zm-388 1 6.5 5.5-5.5-4.5-1-1Zm183 1 1.5.5-.5 1.5-1-2Zm-1 3 1.5.5-1.5 2.5v-3Zm208 6 5.5.5-8 2 .5 1.5-6 1-1.5-.5-3.5 4.5 2-4-8 1-.5-1.5 19.5-4.5Zm-80 3q14.33-1.83 18.5 6.5l9.5 17.5 1.5.5-1.5 2.5-12 10-12.5-3.5.5-10.5 17 1 .5-2.5q-3.88-6.13-16.5-3.5l-1.5.5 1-7-.5-1.5 11 2 .5-2.5-11.5-3.5-1 3-.5-2.5-.5-2.5-1 2-3.5-2.5 2.5-3.5Zm18.5 9-1 2h1v-2Zm1 3-1 2h1v-2Zm-14 1-1 4h1v-4Zm20 9-1 2h1v-2Zm-19 5-1 2h1v-2Zm1 2-1 2h1v-2Zm2 3v1h4l-4-1Zm6 1v1h1l-1-1Zm-53.5-17 5.5 4.5-2.5 3.5-19.5-2.5.5-1.5-2 1-1-2-1.5-.5 21-1-.5-1.5Zm-12.5 5v1h3l-3-1Zm6 0v1h4l-4-1Zm-252.5-3 8 2 3-2-1 2-8 1-2-3Zm283 4 4 2 1.5-.5-2.5 6.5-3-8Zm178 1h2l21.5.5.5 4.5 1.5.5-1.5.5-32-1-2 3-6-1-1 2-1.5-.5-1.5 2.5-1.5.5-1 3 1 5-2.5.5-.5-6.5 3-5-3.5-.5-2 1v-3l3 1 23.5-5.5.5-1.5Zm56 4 5.5 2.5-2.5.5-3.5-1.5.5-1.5Zm21 7 2.5 1.5-1.5.5-1-2Z"/><path fill="#3A393B" stroke="#3A393B" stroke-width="3" d="m529.5 283 1.5.5-1.5 2.5-2.5-.5 2.5-2.5Zm14 0 1.5.5-1.5.5v-1Zm-10 1 1.5.5-1.5.5v-1Zm221 13 1.5.5-1.5.5v-1Zm-292 1 1 3 3.5 1.5-3.5.5-1.5-3.5.5-1.5Zm31 1 4.5.5-5 4 1 2-1.5.5-1.5-3.5 2.5-3.5Zm217 2 1.5 2.5h-1l-.5-2.5Zm-260 1q5.25 1.75 3.5 10.5l-1.5 2.5-.5-1.5 1-8-2.5-3.5Zm-261 2 1.5.5-2.5 1.5 1-2Zm4 0 2.5.5-2.5.5v-1Zm486 1 .5 1.5h-1l.5-1.5Zm33 0 .5 1.5h-1l.5-1.5Zm27 0 .5 1.5h-1l.5-1.5Zm-564 3 2.5.5-2.5.5v-1Zm309 0 6.5 2.5-1.5.5-5-3Zm227 0 .5 1.5-2 1 1.5-2.5Zm-230 1 1.5.5-1.5.5v-1Zm-30 7-.5 1.5-1.5 2.5-3 2 5-6Zm-258 3 .5 1.5-2 1 1.5-2.5Zm335 3 6.5 1.5-1.5 2.5-2-3-2.5.5-.5 2.5v-2l-1.5.5.5 4.5 3.5 1.5-.5 1.5-4.5-2.5 2.5-7.5Zm-345 1 2.5.5-2.5.5v-1Zm257 1 .5 1.5-5.5 7.5-2 1-.5-1.5 5-4-.5-1.5 1.5-.5 1.5-2.5Zm-225 1 .5 1.5h-1l.5-1.5Zm265 0 1.5.5-3.5 5.5.5-1.5 1.5-4.5Zm-365 3 1.5.5-1.5.5v-1Zm444 0 1.5.5-1.5.5v-1Zm-11 1-1.5 2.5-.5 1.5-.5-1.5 2.5-2.5Zm-445 1 .5 1.5-2.5 6.5-.5-2.5 2.5-5.5Zm624 0 4 1 1.5-.5-1 16 4.5 1.5 1.5-16.5-.5-1.5h2q13-3.5 16.5 2.5l-7.5 20.5-6.5-4.5 6-1-.5-1.5-8.5 2.5-3.5 4.5-4.5-3.5-.5-1.5-8 6q-5.75-3.25 1.5-6.5l3.5-17.5Zm15.5 2v1h7l-7-1Zm10 2-1 4h1v-4Zm-7 2-2 6h4l2-5-4-1Zm6 4-1 2h1v-2Zm-549.5-7 .5 1.5-1.5.5 1-2Zm343 1 2.5 3.5-3.5 1.5-.5-2.5 1.5-2.5Zm-440 2 7.5 3.5-4.5.5-3-4Zm313 1 .5 4.5-1.5.5-.5-3.5 1.5-1.5Zm-182 1 3.5.5-3.5.5v-1Zm32 0 3.5.5-6.5 3.5-.5-1.5 3.5-2.5Zm16 0 3.5.5-3.5.5v-1Zm24 0 8.5.5-8.5.5v-1Zm11 0 39.5.5-9 1-.5 2.5-19 1-2.5-1.5-.5-2.5-8-1Zm42 0 22.5.5-10 1-.5 2.5-3.5-.5-.5-2.5-8-1Zm188 0 1.5.5-1.5.5v-1Zm-307 1 2.5 1.5-1.5-.5-1-1Zm48 0 2.5 1.5-1.5.5-1-2Zm12 0 1.5.5-2.5 1.5 1-2Zm85 0 2 1 1.5-.5-2.5 1.5-1-2Zm170 1 1.5.5-1.5.5v-1Zm-231 3 2.5.5-2.5 1.5v-2Zm172 2 1.5 4.5h-1l-.5-4.5Zm-190 1 3.5.5 1 2-2.5-1.5-3.5 1.5-1.5 3.5-.5-3.5 3.5-2.5Zm108 1 1.5.5-2.5 5.5-.5-1.5 2-3-.5-1.5Zm-94 1 .5 4.5h-1l.5-4.5Zm-267 1 .5 1.5h-1l.5-1.5Zm260 0 3.5 4.5-1.5.5-2-5Zm40 0 1.5 4.5h-1l-.5-4.5Zm9 0 .5 1.5-1.5 3.5-.5-3.5 1.5-1.5Zm15 0 1.5 4.5h-1l-.5-4.5Zm45 0 .5 2.5h-1l.5-2.5Zm-186 1 .5 1.5h-1l.5-1.5Zm150 0 .5 1.5h-1l.5-1.5Zm70 0 1.5 2.5-2-1 .5-1.5Zm220 0 1.5.5-1.5.5v-1Zm-553 1 .5 1.5-2.5 1.5 2-3Zm373 0 .5 2.5-1.5.5.5-1.5.5-1.5Zm78 0 .5 4.5-2.5 3.5-2.5-.5.5-1.5 1.5.5 2-3v-2l.5-1.5Zm-282 1 6.5 1.5-1.5 2.5-2-3-1.5.5-1.5 2.5-1.5-2.5 1.5-1.5Zm-82 1 4.5 1.5-3.5-.5-1-1Zm-89 3 1.5.5.5 2.5 1.5.5-1.5.5-2.5-1.5.5-2.5Zm366 9 3.5.5-3.5.5v-1Zm-265 1-4 7-7.5 4.5 7.5-8.5 4-3Zm3 3 1.5.5-1.5.5v-1Zm354 0 .5 1.5h-1l.5-1.5Zm-435 1 .5 5.5-3.5 4.5-9.5-3.5-2-5h1l4.5 6.5 5 1 1-3 2.5-.5.5-5.5Zm435 2 5 2 2.5-1.5 1 7h-1l-2.5-3.5-5.5 2.5-.5 4.5-.5-5.5 2-3-.5-2.5Zm75 3 3.5.5-3.5.5v-1Zm-2 1 1.5 2.5-2-1 .5-1.5Zm-523 14 2.5.5-2 5 4.5 5.5-4.5-3.5-.5-7.5Zm449 2 2 5 4.5-.5.5-2.5 1.5.5-1.5 3.5-7.5-1.5.5-4.5Zm67 6 1.5.5-1.5.5v-1Zm-524 15 1.5 4.5v2l.5 1.5 6.5-.5-.5-1.5-1.5.5 3.5-2.5.5 2.5-7.5 3.5-4.5-2.5-1-3 1.5.5 1.5-.5-2-3 1.5-1.5Zm369 0 1.5.5-1.5.5v-1Zm79 5 3 1 4-1v1l-1.5.5-.5 2.5v-2l-1.5.5-.5 4.5-3-7Zm-7 1 .5 1.5-2.5.5v-1l2-1Zm-509 2 .5 2.5-2 1 1.5-3.5Zm502 14 7.5 3.5 1 2-1.5-.5-2.5-1.5.5-1.5-6.5 1.5 1.5 2.5-4.5-2.5 4.5-3.5Zm-450 1 8.5 1.5 1 6-3.5 1.5v-1l1.5-.5-1.5-6.5-5.5.5.5 1.5 1.5-.5-3 1-.5 2.5-.5-4.5 1.5-1.5Zm-18 8 1.5 2.5h-1l-.5-2.5Zm445 2 1 3 3.5 1.5-5.5 1.5-2.5-1.5 3-1 .5-3.5Zm-443 2 .5 1.5-2 1 1.5-2.5Z"/><path fill="#717A7C" stroke="#717A7C" stroke-width="3" d="M474.5 174h140l73.5 47.5 2 4-.5 2.5-10-6h-40l-8-6h-13q-7-8-24-6l-1 2-11.5-8.5 3.5-5.5 2.5-.5 2.5-4.5 7 4 6-4 6 4 6-4 6 4 6-4q19.59 7.41 31 23l1.5-2.5q-17.1-23.9-48.5-33.5l-145.5-.5 8.5-5.5Z"/><path fill="#717A7C" stroke="#717A7C" stroke-width="3" d="m462.5 185 36 1q9 9 30 6 35.59 10.41 62.5 29.5l-2.5.5-24-12-1 2q-3.24-9.26-17-8l-.5 2.5 5 7-5.5 2.5h-37l-22 12h-9q-12.04-7.96-15.5-24.5l.5-18.5Zm-189 13 2.5.5-21.5 41.5-2.5-5.5 12-24-3-1 2.5-4.5 1 5 9-12Zm325 18 5.5 2.5 2 5-7.5-7.5Zm178 114 3.5 2.5-2.5 9.5-3.5-2.5 2.5-9.5Zm-64 1 1.5 11.5-1.5-.5-10.5 8.5 1 3-4.5.5-2.5-2.5 10-10 2.5-8.5 4-2Zm-50 5 3.5 2.5-.5 3.5-5.5-2.5 2.5-3.5Zm-426 30 10.5.5-1 2 5.5 3.5h132l.5-3.5-1.5-2.5 5.5 1.5 4 10-140.5 1.5-4-1h-2l-6.5-.5 1-3q-10.25-4.25-3.5-8.5Zm426 18h19l2.5 2.5q3.25 12.25-2.5 15.5-15.5 3-18.5-6.5l-3-9 2.5-2.5Zm54 6 3.5.5-3.5 5.5-2.5-3.5 2.5-2.5Z"/><path fill="#676158" stroke="#676158" stroke-width="3" d="M616.5 174h7l18 9q22.8 12.7 38.5 32.5l-2.5.5-61-42Zm-70 30q12.22-1.22 15.5 6.5l1 3-10.5 8.5h-32q-9.19 10.31-33 6v-1l23-11h36l4.5-2.5-4.5-9.5Zm55 6 18 7 10-1 2.5 1.5.5 1.5h2l8.5 3.5-2.5 3.5-4.5 2.5-.5 1.5q-6.17-9.83-22-10l-12-10Zm-31 4 16.5 7.5-14.5.5-2-8Zm-102 6 5 6 7 3 4-1v1l-8 4-3.5-1.5-4.5-11.5Zm220 1 10.5 7.5 2 4-4.5 1.5-8.5-5.5 2-1-1.5-6.5Zm-90 7 11.5 5.5-4 1-.5 1.5-1-3-6-5Zm-220 24 11.5 3.5-.5 2.5q-9.5 2-11.5-3.5l.5-2.5Zm-64 6q15.13-2.63 21.5 3.5l-.5 2.5h-21l-2.5-2.5 2.5-3.5Zm66 6q11.44-1.94 15.5 3.5l-.5 2.5q-13.75 3.75-17.5-2.5l2.5-3.5Zm62 42 1.5.5-3.5 1.5v-1l2-1Zm-7 6 .5 3.5-1.5.5.5-1.5.5-2.5Zm42 5 .5 3.5-2 1 1.5-4.5Zm-7 4-.5 1.5-2.5 3.5-2 1 1-2 2.5-1.5 1.5-2.5Zm-271 1 3.5 6.5h-3l1-3-3-1 1.5-2.5Zm273 7-.5 1.5-9.5 15.5 1.5-2.5 8.5-14.5Zm-292 1 1.5.5-1.5.5v-1Zm542 0 3.5 2.5q1.94 11.44-3.5 15.5l-2.5-.5q-3.75-13.75 2.5-17.5Zm12 0 3.5 2.5q3.25 12.25-2.5 15.5l-3.5-2.5q-3.25-12.25 2.5-15.5Zm12 6 3.5.5-3.5 5.5-2.5-3.5 2.5-2.5Zm-277 3-.5 1.5-2.5 4.5.5-1.5 2.5-4.5Z"/><path fill="#412D22" stroke="#412D22" stroke-width="3" d="m267.5 180 2.5 1.5-.5 4.5-5.5-.5 3.5-5.5Zm162 24 2.5.5-.5 4.5-2-5Zm4 0 4.5 3.5-.5 2.5-2.5-.5-1.5-5.5Zm-188 21-6 7-4 2 1-2 9-7Zm378 27 .5 1.5h-1l.5-1.5Zm-391 2 13.5 12.5.5 3.5 21.5 18.5-18.5-17.5-2.5 1.5-.5 1.5-6 2-.5-3.5 2.5-3.5 2.5-1.5-11.5-12.5-1-1Zm16 9 5.5 4.5-1.5.5-4-5Zm329 5 1.5.5-2 1 .5-1.5Zm-128 6 1 2 1.5.5-6.5 4.5.5-1.5 3.5-5.5Zm73 2 5.5.5-1 9 1 5-9.5 3.5-2.5-1.5 1-8-1-2 1.5-2.5 1.5-.5-.5-1.5 1.5.5.5-1.5 1.5.5.5-1.5Zm-353 2 .5 1.5h-1l.5-1.5Zm325 2 2.5.5-8 7 5.5-7.5Zm-432 8 3.5.5-1.5 5.5-4.5-1.5 2.5-4.5Zm28 0q28.16-5.16 40.5 5.5l-5 1-.5 7.5-8-2-4 2 .5-1.5-1.5-4.5-31.5-2.5 9.5-5.5Zm84 3 6.5 3.5-1 4v2l-.5 1.5-7-8 1.5-.5.5-2.5Zm24 3 2.5 1.5-1.5-.5-1-1Zm-120 5-.5 1.5-1.5 2.5.5-1.5 1.5-2.5Zm467 1h34l2.5 2.5-2.5 3.5q-14.5 10-43 6l-2.5-2.5 7.5-7.5 4-2Zm-416 8 .5 1.5h-1l.5-1.5Zm-74 4 4.5 1.5-2.5 4.5-3.5-2.5 1.5-3.5Zm436 1 .5 14.5-3.5 2.5-3-6-4.5-.5 8-5 2.5-5.5Zm-398 5q5.5 3-1 6l-2.5-.5 3.5-5.5Zm34 0h20l2.5 2.5-.5 3.5-20 6q-5.25-1.75-3.5-10.5l1.5-1.5Zm114 0 4.5 1.5-5.5.5 1-2Zm150 0 11.5 6.5-1 4 .5 1.5-7.5-.5 1-4-11-2 2-1-3-2 3.5-.5 2 1 2-3Zm36 0 10.5 3.5-.5 3.5-11.5-2.5 1.5-4.5Zm150 0 22.5 1.5-2.5 4.5-21.5-1.5 1.5-4.5Zm-391 1 3 5 2-1 .5 2.5 1.5 4.5 9.5 5.5-2.5.5-1.5-.5-1.5 2.5-11.5-11.5.5-7.5Zm228 1-1 2-1.5-.5 2.5-1.5Zm-175 1 6.5 1.5-10.5 1.5v-1l4-2Zm70 0 1.5.5-1.5.5v-1Zm-238 6 .5 3.5-9.5 11.5-2.5-5.5 5.5-8.5 1 2 5-3Zm438 1 .5 2.5-5.5 7.5-.5-2.5 5.5-7.5Zm117 2 3.5.5-3.5 5.5-2.5-3.5 2.5-2.5Zm-147 1 .5 10.5-9.5 18.5-4.5-.5 8-11 5.5-17.5Zm-42 3 1 2 1.5.5-1.5 2.5-12 11-1-8-4.5-.5 5-3-1-2 12.5-2.5Zm103 0 5.5 7.5-3.5.5-2-8Zm-438 2 10.5 5.5-5 1-.5 1.5-5.5-4.5.5-3.5Zm40 0 2.5.5-1 4 .5 1.5-6.5-2.5 4-2 .5-1.5Zm9 0 9.5 3.5 1 8-2.5.5-8.5-5.5 5-1-1.5-3.5-3-2Zm112 3 1 9 1.5.5-4.5 5.5-11.5-.5 1-3-1.5-2.5 2.5-.5-1.5-3.5-3.5-1.5 16.5-3.5Zm137 1 1.5.5.5 1.5 5.5-.5.5-1.5 11.5 2.5-2.5 4.5-4 2-19.5-1.5 2-3-1.5-2.5 6-2Zm-266 2q5.56 2.44 4 12l1.5.5-3 1-2.5 4.5-9-1-3 1-2.5-3.5 12-4-.5-4.5-4.5-.5 7.5-5.5ZM124 356l-1 3h2v-2l-1-1Zm203.5-14 20 1 3-1 3.5 7.5-2.5.5-26-2-1.5.5 1.5-3.5 3.5-1.5-1.5-1.5Zm42 0 5.5.5 3 7-2.5.5-4-2-5 2-.5-3.5 3.5-4.5Zm245 0 3.5 1.5-2.5 4.5-3.5-1.5 2.5-4.5Zm191 0 10.5 1.5-7.5 8.5-4 1-.5-9.5 1.5-1.5Zm-497 1 1.5.5-.5 2.5-1.5.5 4 2-.5 1.5-4.5-1.5 1-3 .5-2.5Zm248 5 14.5.5-1 4 6 2-2.5 3.5-1.5-.5 1 2-3 1-1.5 4.5-10.5-8.5-1.5-8.5Zm-65 1 1 5 5.5.5-3.5 12.5-2 1-.5-1.5.5-1.5-6 3-.5-8.5 5.5-10.5Zm-305 8 2 3-3.5-1.5 1.5-1.5Zm-24 3 5.5 1.5-.5 4.5-5.5-1.5.5-4.5Zm440 0 27.5 1.5-.5 3.5-6 5 .5-1.5-.5-2.5-11.5.5-.5 1.5-11.5-3.5 2.5-4.5Zm-406 2 3.5 2.5-2.5-1.5-1-1Zm7 1 1 2-1.5-.5-.5 2.5 1-4Zm223 3 5 2 1-2 .5 1.5-3 6 2 1-2.5 3.5-9.5-6.5.5-2.5 6-3Zm380 0 15.5 1.5-1.5 4.5-16.5-1.5 2.5-4.5Zm-695 1 1.5 2.5h-1l-.5-2.5Zm444 0 1.5 2.5h-1l-.5-2.5Zm-165 3 17.5 2.5-3.5 5.5q-11.75 2.75-14.5-3.5l.5-4.5Zm-348 7 4 1 1.5-.5-.5 19.5-4-1-1.5.5.5-19.5Zm122 7 4.5.5-1 4 10.5 1.5 1.5-4.5-.5-1.5 6.5 2.5-1.5 7.5-11 2-10.5-5.5 2-1-2-4 1.5-1.5Zm459 0 12.5 1.5-1.5 4.5-4 2-1-2-4.5-1.5-.5-1.5-4.5-1.5 3.5-1.5Zm192 6 6.5 1.5-1.5 10.5-16.5-1.5 7.5-8.5 4-2Zm-723 1 1.5.5-1.5.5v-1Zm444 0 1.5.5-1.5.5v-1Zm85 0 5.5 3.5-1.5.5-4-4Zm-442 17 6.5 2.5-21.5 9.5-2.5-5.5 6.5-4.5-.5 1.5.5 2.5 11.5-1.5-.5-4.5Zm388 0 4.5 17.5-5.5.5-2.5-1.5 1-5-1-8 3.5-3.5Zm35 0 21.5 1.5-.5 6.5-10-6-6 4-3-4-2-2Zm-477 4 1.5 2.5-1 4 .5 1.5-5.5-3.5 2-1 .5 1.5 2-5Zm373 3 2 5q14.63 2.87 20.5 14.5l-4.5 7.5-1.5-.5-.5 1.5-10.5-7.5-.5-1.5-3.5-2.5-1.5-2.5-2.5-1.5.5-1.5 1.5-.5.5-10.5Zm302 5 3.5 2.5-2.5 3.5-3.5-2.5 2.5-3.5Zm-450 6 3.5 2.5-2.5 3.5-3.5-2.5 2.5-3.5Zm-283 5 10.5 3.5-5.5 7.5-1.5-.5-.5 1.5-10.5-7.5.5-3.5 7-1Zm522 1 11.5.5-1 4 10.5 1.5 1.5-.5-3.5 5.5-9 1-10.5-5.5 2-1-3-4 1.5-1.5Zm-438 1 10.5 5.5-1.5 5.5-4.5-.5-.5-3.5-3-1-2.5 1.5-.5-2.5-5 2 .5-1.5.5-1.5 6-4Zm175 5 3.5 2.5-2.5 3.5-3.5-2.5 2.5-3.5Zm228 0 5 6 4-1 .5 5.5-2.5.5-7.5-4.5-2-4 2.5-2.5Zm216 6 3.5 2.5-2.5 3.5-3.5-2.5 2.5-3.5Zm-642 6 3.5 2.5-2.5 3.5-3.5-2.5 2.5-3.5Zm11 0 4.5 1.5-2.5 4.5-3.5-2.5 1.5-3.5Zm400 0 6.5 2.5-1.5 3.5-12.5-.5 7.5-5.5Zm39 0 3.5.5-2.5 5.5-3.5-2.5 2.5-3.5Z"/><path fill="#979886" stroke="#979886" stroke-width="3" d="M465.5 180h146q31.4 9.6 48.5 33.5l-1.5 2.5q-11.42-16.08-32-23l-6 4-6-4-6 4-6-4-6 4-6-4-3 5-3.5 1.5-.5 1.5-1.5.5 1 3v2l19 21-4.5-1.5-7.5-3.5-1.5-3.5-37-19-14.5-3.5 3-1-5.5-1.5h-2l-5.5-2.5-.5-1.5-1.5.5-.5 1.5q-18.33 2.33-26-6l-35.5-.5 2.5-5.5Zm64.5 6-2 5 18 1 29 12 1-3-6-7-22-8h-18Zm14 9 1 2h1l-2-2Zm68.5 37 11.5 11.5-1.5 1.5-15.5-10.5 5-1 .5-1.5Z"/><path fill="#141613" stroke="#141613" stroke-width="3" d="m227.5 214 .5 1.5-6.5 18.5-11.5-.5 17.5-19.5Zm-29 1 5.5 1.5-6.5 14.5-9 3q-5.75-3.25 1.5-6.5l1.5-3.5 4.5-2.5 2-4 .5-2.5Zm47 1 .5 8.5-15.5 9.5-2.5-1.5 13.5-14.5 4-2Zm283 12 23.5.5-.5 2.5q-7.83 6.17-25 3l-11 6h-19l2-3q5.83-5.17 19-3l11-6Zm-360 5 .5 2.5-1.5 2.5-1.5.5-4 6 86.5 1.5 3.5 3.5v2l-1 4 3 2-8 2 6.5 8.5 10 2 3 1 7.5 4.5 4 5v2l2.5 5.5 11 1 4-1-.5 1.5.5 4.5 23.5.5-3.5 5.5-32.5-.5-.5-5.5-10-2-25.5-22.5-12.5-15.5-5-2-80.5-.5 2.5-4.5 2.5-1.5 2.5-3.5 13-9Zm81.5 16v1h1l-1-1Zm310.5-15h21l35 12h25l1-3 4-2 1.5 10.5-29.5.5-35-12h-23l-2.5-2.5 2.5-3.5Zm-81 6 .5 2.5-7.5 3.5 3-4 4-2Zm223 8 36 38 7.5 2.5-5 3-.5 1.5-3 1-2-1-4 1 .5-1.5-3-11-29-29 2-1 .5-3.5Zm-249 10 14.5 1.5-13.5 14.5-4 2-.5-2.5 6-8-6-2 3.5-5.5Zm303 15 2.5 4.5h-1l-1.5-2.5-1.5-.5 1.5-1.5Zm2 8 .5 1.5-2 1 1.5-2.5Zm-629 1 2.5.5-.5 1.5-2-2Zm-52 1h49l5.5 3.5.5 1.5 2-1 3.5 9.5-1.5-.5q-14-13-46-8l-9.5 5.5-8 17 .5 1.5-2-6-1.5-.5-6.5-7.5-3.5-2.5.5-2.5 4 1 1.5-5.5-3-1 14.5-4.5Zm-19 7 .5 2.5h-1l.5-2.5Zm268 4h19l2.5 2.5-2.5 3.5h-19l-2.5-2.5 2.5-3.5Zm28 0 5.5.5 1 5-3.5.5-3-6Zm193 3 2.5.5-2.5.5v-1Zm29 0 1.5.5-1.5.5v-1Z"/><path fill="#141613" stroke="#141613" stroke-width="3" d="m117.5 300 8.5 2.5-.5 3.5-11.5-.5 1.5-4.5 2-1Zm423 2-6 7-1-2 7-5Zm41 2 1 2-2.5-.5 1.5-1.5Zm-48 6 2.5 1.5h-3l.5-1.5Zm-124 13 5.5.5-5.5.5v-1Zm-276 6 2.5.5-2.5.5v-1Zm23 7 1.5.5-1.5.5v-1Zm-2 8 4.5 3.5-3.5-2.5-1-1Zm-70 4 6.5 1.5.5 1.5 2 1h2l13.5 7.5 8.5 18.5 2-1 .5 19.5-4 3-4.5 12.5-5.5 4.5-.5 1.5-16.5 6.5.5 1.5h-5L69 413.5l-3-6 1.5.5 15 12h14l15.5-12.5 2-17-18.5-.5-21 12-8 1-5.5-2.5-1-23h1l.5 2.5 9-21 2.5-1.5 3.5-4.5 8-5Zm-.5 6-4 2-2 4h-3l-9 12 2 18 10-2q8-4 7-18l11 8 2 6 16-1-2-16q-5-16-28-13Zm444.5-6 6.5 1.5.5 1.5 2 1h2l16.5 10.5 5.5 15.5 2-1 .5 19.5-4 3-4.5 12.5-5.5 4.5-.5 1.5-16.5 6.5.5 1.5h-5L513 413.5l-3-6 1.5.5 15 12h14l15.5-12.5 2-17-18.5-.5-21 12-8 1-5.5-2.5-1-23h1l.5 2.5 9-21 2.5-1.5 3.5-4.5 8-5Zm-.5 6-4 2-2 4h-3l-9 12 2 18 10-2q8-4 7-18l11 8 2 6 16-1-2-16q-5-16-28-13Zm-39.5 0 .5 1.5h-1l.5-1.5Zm-273 4 1 2 3 1 25-1 3 1 5-1-.5 1.5-.5 1.5-6 3h-34l-.5-1.5 4.5-6.5Zm15.5 3-6 1v1l19-1-13-1Zm81.5-3 4 2h2l3 1 15-1h2l3.5-.5.5-1.5 10 2h2l3 1 4-1 2 1 3-2 10 1h2l3 1 31-1v1l-6.5.5.5 1.5 17-3v1l-10 5h-119l-6.5-3.5-1-2 7.5-1.5 4 1h2l3 1 8.5-1.5.5-1.5Zm71.5 3v1h6l-6-1Zm-190.5-1 7 1 5-1 .5 2.5-4.5 2.5-8-5Zm64 0 7 1 10-1 3 1 5-1-.5 1.5-.5 1.5-17 3-6.5-3.5-.5-2.5Zm171 0 7 2 14-2 2 3 4.5.5-1.5 2.5q-21.25 4.07-26-6Zm380 3 1.5.5-1.5.5v-1Z"/><path fill="#141613" stroke="#141613" stroke-width="3" d="m468.5 364 1.5.5 1 6-9 17 1 2-4.5.5-163-1-8 1 .5-1.5.5-1.5 6-3h157l14.5-12.5 2.5-7.5Zm4 4 .5 1.5h-1l.5-1.5Zm143 6 1.5.5-1.5.5v-1Zm-429 2 10 8h79l6.5 3.5 1 2-7.5.5-70-1h-2l-11-5-1 2-8.5-7.5 3-1 .5-1.5Zm411 9 1.5 2.5-2 1 1-2-.5-1.5Zm216 5 1.5.5-1.5.5v-1Zm-354 1 13.5 1.5-2.5 3.5-11-5Zm-293 1 3.5 1.5-1.5.5-2-2Zm447 3 2.5.5-2.5.5v-1Zm-438 3 3.5.5-3.5.5v-1Zm0 6 2.5.5-2.5.5v-1Zm-6 15 2.5.5-2.5.5v-1Zm442 19 .5 1.5h-1l.5-1.5Zm-478 14 .5 1.5h-1l.5-1.5Z"/><path fill="#61616B" stroke="#61616B" stroke-width="3" d="m621.5 178 5.5 3.5-1.5-.5-4-3Zm7 4 3.5 1.5-1.5.5-2-2Zm5 2 4.5 2.5-1.5.5-3-3Zm24 18 4.5 2.5-1.5.5-3-3Zm-53 8 13.5 5.5-1.5.5-12-6Zm-58 5 1.5.5-2.5 1.5 1-2Zm-38 1 2.5 1.5-1.5-.5-18 9v-1l17-9Zm122 0 2.5 1.5-.5 1.5-1-2-2 1 1-2Zm-50 2 1.5.5-1.5.5v-1Zm54 0 3.5 2.5-2.5-1.5-1-1Zm-166 1 7 8-2.5-1.5-4.5-6.5Zm11 9 1.5.5-1.5.5v-1Zm-420 6 12.5 9.5-2.5 2.5h-19l-2.5-2.5 7.5-7.5 4-2Zm39 30 22.5.5-1 4 .5 1.5h-22l-2.5-2.5 2.5-3.5Zm44 0q12.92-1.42 16.5 6.5l9 21-3.5 2.5-11-23-5-1-4 2-2-8Zm388 12h49l2.5 2.5-2.5 3.5h-49l-2.5-2.5 2.5-3.5Zm-82 25 1.5 5.5-1.5-.5-10.5 2.5 1.5 9.5 6.5.5-5.5 4.5q-4.22-6.78-16.5-5.5l24.5-16.5ZM436 312l-1 3v1h1v-4Zm-247.5-6q12.25-3.25 15.5 2.5 1.6 12.9 11 18l-2 3 .5 1.5-8 3-6.5-3.5 2-1-2.5-5.5-2.5-.5 1-3-11-12 2.5-2.5Zm11.5 16-1 2 2 1-1-3Zm2 3-1 3h1v-3Zm-25.5-13 3.5 2.5-.5 3.5-5.5-2.5 2.5-3.5Zm304 0-.5 1.5.5 4.5 1.5.5-7 10 .5 1.5-1.5.5-9.5 17.5-2.5.5-.5 1.5-11.5-4.5 11.5-19.5 9.5-7.5-.5-1.5 10-5Zm-2.5 5-1 4h1v-4Zm-8 5-1 2h1v-2Zm-3 3v1h1l-1-1Zm5 5-1 2h1v-2Zm-2 3-1 2h1v-2Zm-2 3-1 2h1v-2Zm-1 2-1 2h1v-2Zm-1 2-1 2h1v-2Zm-1 2-1 2h1v-2Zm-282.5-18 3.5 2.5-.5 3.5-5.5-.5 2.5-5.5Zm-75 6 12.5 2.5-.5 6.5-4 1-12.5-5.5 2.5-3.5 2-1Zm117 0 22.5.5-1.5 8.5-23.5-5.5 2.5-3.5Zm39 0 134.5.5-8 6-.5 2.5-5-3h-79l-5 3-1-3-5.5.5-.5 2.5q-7.88-7.13-27-3l-2.5 1.5-.5-7.5Zm141 0q12.25-3.25 15.5 2.5l-2.5 3.5-3 2-1-3-9-5Zm147 0 12.5 2.5-2.5 9.5-15.5-8.5 5.5-3.5Zm154 10 .5 1.5-10 9 9.5-10.5Zm-655 2 3.5 2.5-2.5 9.5-3.5-2.5 2.5-9.5Zm444 0 3.5 2.5-3.5 9.5-2.5-.5 2.5-11.5Zm-366 6 3.5.5-2.5 5.5-3.5-2.5 2.5-3.5Zm444 0 3.5 2.5-2.5 3.5-3.5-2.5 2.5-3.5Zm-527 18 2.5.5-2.5 11.5-3.5-2.5 3.5-9.5Zm444 0 2.5.5-2.5 11.5-3.5-2.5 3.5-9.5Zm95 0 3.5 2.5-.5 3.5-5.5-.5 2.5-5.5Zm-96 24 3.5 2.5-2.5 9.5-3.5-2.5 2.5-9.5Zm172 0 1.5 2.5-2-1 .5-1.5Zm2 4 6.5 7.5-7-6 .5-1.5Zm-618 2 3.5 2.5-2.5 3.5-3.5-2.5 2.5-3.5Zm0 18 7.5 1.5 2 10-2.5.5-8.5-10.5 1.5-1.5Zm444 0 9.5 3.5-.5 8.5-8.5-6.5-2-4 1.5-1.5Zm-402 30 3.5 2.5-.5 3.5-5.5-2.5 2.5-3.5Zm444 0 3.5 2.5-2.5 3.5-3.5-2.5 2.5-3.5Z"/><path fill="#0D0E1F" stroke="#0D0E1F" stroke-width="3" d="m62.5 150 3.5 2.5-2.5-1.5-3 2 2-3Zm476 6 1.5.5-5.5 2.5v-1l4-2Zm-155 5 2.5 1.5-1.5.5-1-2Zm1 6 1.5.5-2.5 1.5 1-2Zm-80 1 5.5 1.5-3.5.5-2-1-2 4-1.5-.5-2.5 4.5.5-1.5 3.5-6.5 2-1Zm-1.5 2-1 2 2-1-1-1Zm297.5-2 1.5.5-1.5.5v-1Zm-303 10 .5 1.5-1.5 2.5-.5-1.5 1.5-2.5Zm-229 2 3.5 2.5-2.5-1.5-3 2 2-3Zm348 1 1.5 3.5-2-1 .5-2.5Zm-121 2-.5 1.5-2.5 4.5.5-1.5 2.5-4.5Zm119 2 .5 1.5-4.5 7.5-27.5 26.5-1.5 3.5-1.5-.5 31.5-33.5 1.5-.5v-2l1.5-2.5Zm-123 5 .5 1.5-1.5 2.5-.5-1.5 1.5-2.5Zm-2 5-.5 1.5-2.5 4.5.5-1.5 2.5-4.5Zm134 4 .5 1.5h-1l.5-1.5Zm-138 3 .5 1.5-1.5 2.5-.5-1.5 1.5-2.5Zm-2 5-.5 1.5-2.5 4.5.5-1.5 2.5-4.5Zm-4 7 .5 1.5-1.5 2.5-.5-1.5 1.5-2.5Zm150 3 .5 1.5h-1l.5-1.5Zm-152 2-.5 1.5-2.5 4.5.5-1.5 2.5-4.5Zm-209 3 3.5 2.5-2.5-1.5-3 2 2-3Zm12 0 3.5 2.5-2.5-1.5-3 2 2-3Zm299 3 1.5.5-2 1 .5 1.5-1.5.5.5 1.5-1.5.5-1 3-1.5 2.5-3.5 2.5.5 1.5-3.5.5 7.5-8.5 1.5-.5v-2l2.5-4.5Zm-106 1 .5 1.5-1.5 2.5-.5-1.5 1.5-2.5Zm-2 5-.5 1.5-.5 1.5-.5-1.5 1.5-1.5Zm-142 2 2.5.5-.5 1.5-2-2Zm9 0 2.5.5-2.5 1.5v-2Zm-56 1 1.5.5-3.5 1.5v-1l2-1Zm8 0 2.5 1.5-.5 1.5-1-2-6 1v-1l5-1Zm209 0h31l11.5 9.5-1 2 2.5.5 4.5.5q-2.68 17.68 7 23l-8.5 2.5v-1l5.5-.5-6.5-.5-2.5-.5 1-6-8.5-7.5 6.5 7.5-.5 1.5q-6.79-10.71-28-7l-1.5 4.5q5.12 9.38 21 8l-8.5 1.5-8-3 1 2 8.5 3.5-.5 1.5 2.5.5-3.5 1.5v-2l-10 7v-2h-9l-18-12-1.5 2.5 3 1 2 6-1.5 2.5-5 2 1.5-2.5 1-6-3-5h2l.5-1.5 1.5-.5-16-17 2 1 2.5 3.5.5-2.5-1-9 6.5-3.5-.5 1.5 7.5 22.5 4.5 3.5.5 1.5 2-1 1 3 5.5-.5-.5-1.5 2 1 1.5-2.5-.5-1.5h2l6 2-1-2-3.5-2.5-1-3 3.5-4.5 4.5-2.5-.5-1.5-8 4-1-2-1 2-6.5-12.5h2l-1.5-2.5-1.5.5.5-1.5-5.5-.5 2.5-3.5 4-2Zm11.5 5-1 2h1v-2Zm3 1-2 2 1 8 4 2 17-1 2-9-22-2Zm-4 1-1 5h1v-5Zm-8 3-1 2h1v-2Zm-21 1-1 5h1v-5Zm22 1-1 2h1v-2Zm8 1-1 2h1v-2Zm27 0-1 2h1v-2Zm-34 1-1 2h1v-2Zm41 1-1 3h1v-3Zm-40 1-1 2h1v-2Zm1 2-1 2h1v-2Zm26 1-1 2 3 1h1l-3-3Zm14 2-1 2h1v-2Zm-61 3-1 2h1v-2Zm62 0-1 2h1v-2Zm-61 2-1 2h1v-2Zm63 2-1 2h1v-2Zm-57 5v1h1l-1-1Zm23 1v1h1l-1-1Zm-19 1v1h1l-1-1Zm-8 3-1 2h1v-2Zm-124.5-37 1.5.5-12 9-1.5 2.5-.5-1.5 3.5-4.5 9-6Zm-80 1-.5 1.5-.5 1.5-.5-1.5 1.5-1.5Zm11 0 9.5 7.5-4-1-2.5-3.5-2.5-.5.5-1.5-1-1Zm343 2 .5 7.5-11.5 2.5-24 22-12.5-21.5 1.5.5 1.5-.5-3-2 2.5-1.5 17 1 24-7 2 3 2-4Zm-4.5 5-28 21-10-15-2 1 9 15 3 1 29-22-1-1Zm-62.5-2 .5 1.5h-1l.5-1.5Zm-243 1 .5 2.5h-1l.5-2.5Zm144 0 .5 6.5h-1l.5-6.5Zm-193 1 3.5 1.5-1 2 .5 1.5-1-3-2-2Zm295 0 1.5.5-1.5.5v-1Zm11 0 1.5.5-1.5.5v-1Zm-279 1 6.5 2.5-5.5.5-1-2-1.5.5 1.5-1.5Zm261 1 2 10 3-1 5.5 27.5-2.5.5-6-2 1 3-3.5-2.5 1.5-5.5 1.5-.5 1-17h-1l-2.5 16.5v-29Zm2 1 2.5.5-2.5.5v-1Zm18 0 2.5 1.5-1.5.5-1-2Zm-290 1 4.5.5-4.5.5v-1Zm19 0 2.5.5-2.5.5v-1Zm257 4 2.5 1.5q6.5 8.5 3 27h-1l-4.5-28.5Z"/><path fill="#0D0E1F" stroke="#0D0E1F" stroke-width="3" d="m306.5 257 .5 7.5h-1l.5-7.5Zm-283 13 .5 1.5h-1l.5-1.5Zm736 4 2.5 3.5-2-1-.5-1.5-1.5.5 1.5-1.5Zm-731 2 5.5 1.5-3.5.5-2-1-3 2 1-2 2-1Zm38 1 62.5.5-62.5.5v-1Zm66 1 1.5.5-1.5.5v-1Zm629 2-.5 1.5-.5 1.5-1-2 2-1Zm-688 2h55l3.5 2.5.5 1.5 2.5-1.5-1.5 3.5-1.5-.5-1.5-2.5-4-2h-49l-10 2v-1l6-2Zm204 0 1.5.5-2 1 .5-1.5Zm5 1-1.5 2.5 1.5 2.5 9-1-1 2-12.5-2.5 2-1 .5-1.5 2-1Zm26 0 2.5.5-2.5.5v-1Zm-5 1 1.5.5-1.5.5v-1Zm-7 1 1.5.5-1.5.5v-1Zm463 0 .5 2.5-4 3 3.5-5.5Zm-718 2 1.5.5-2.5 1.5 1-2Zm509 1 5.5 1.5-3.5.5-2-1v2l-2-1-1 2-1.5-.5-.5 1.5-1.5-.5-.5 1.5-1.5-.5-.5 1.5-1.5-.5.5-1.5 10-5Zm32 1 3.5.5-3.5.5v-1Zm-528 1 .5 4.5-2.5 3.5.5-1.5 1.5-6.5Zm534 0 1.5.5-1.5.5v-1Zm174 0 .5 1.5h-1l.5-1.5Zm-171 1 1.5.5-1.5.5v-1Zm3 0 1.5.5-2 1 .5-1.5Zm3 1 2.5 1.5-.5 1.5-3.5-1.5 1.5-1.5Zm-557 1 4.5 2.5-1.5-.5-3-2Zm598 0 2.5.5.5 1.5 1.5-.5 7.5 15.5 6.5 3.5-.5 1.5-1-2-1.5.5-.5-1.5-6.5-4.5.5-1.5-1.5-.5.5-1.5-4-3-2 1-4.5-7.5h1l3.5 6.5.5-2.5-2.5-5.5Zm4.5 3v5l2 1-2-6Zm-110.5-2 4.5 1.5-2.5.5-2-1v2l-2-1-2.5 1.5-.5 2.5-12.5 10.5-1.5 3.5-1.5-.5 16.5-17.5 4-2Zm71 1 4.5.5-4.5.5v-1Zm-557 1 4.5 3.5-3.5-2.5-1-1Zm17 2 6.5 7.5-7-6 .5-1.5Zm552 0 2.5 1.5-.5 1.5-1.5-.5-.5-1.5-1.5.5 1.5-1.5Zm-18 2 1.5.5-3 2-1.5 2.5-.5-1.5 3.5-3.5Zm8 1 1 2 1.5-.5-.5 1.5-3.5-1.5 1.5-1.5Zm4 2 1 2 1.5-.5.5 1.5 1.5-.5.5 1.5 1.5-.5-2.5.5-4.5-2.5.5-1.5Zm14 0 2.5.5.5 1.5h2l1.5.5-.5 1.5-6-4Zm15 1 1.5.5-3.5 2.5-.5-1.5 2.5-1.5Zm-44 3 2 3 6.5 3.5-.5 1.5 3-1 2.5 1.5-4 2 2 5-2-1-.5-1.5-2.5-1.5h2l-1.5-2.5-3.5-.5 1-2-4.5-6.5Zm10.5 8v1h1l-1-1Zm12.5-8 1 2 1.5-.5-.5 1.5-3.5-1.5 1.5-1.5Zm-547 1 .5 3.5-1.5 2.5-3.5-1.5.5-1.5 3 1 1-4Zm551 1 1 2 5-1v1l-5 1-1-3Zm-560 1 1.5.5-1.5.5v-1Zm569 1 3.5 1.5-2.5.5-1.5-.5.5-1.5Zm5 2 1 2-2.5-.5 1.5-1.5Zm-561 1 1.5.5-1.5.5v-1Zm491 0 1 2 3.5.5-4.5.5-2.5-1.5 2.5-1.5Zm93 0 3.5 1.5-2 1-.5-1.5-1.5.5.5-1.5Zm-147 1 1.5.5-2 1 .5 1.5-1.5.5.5 1.5-1.5.5 3 2-1.5.5-1.5-3.5 2.5-4.5Zm16 0 1.5.5-1.5.5v-1Zm197 0 1.5.5-.5 1.5-1.5-.5-.5 1.5-1.5-.5-.5 1.5-1.5-.5.5-1.5 4-2Zm-654 1-.5 1.5-.5 1.5-1.5.5 1.5 2.5-3-1-4.5 2.5 1 3-3-2 .5-1.5 10-7Zm501 0 3.5.5-3.5.5v-1Z"/><path fill="#0D0E1F" stroke="#0D0E1F" stroke-width="3" d="m609.5 316 7.5 4.5 1 3-1.5 5.5-.5-4.5 1-2-5-3-.5-1.5-1.5.5-.5-1.5-2 1v-1l2-1Zm5.5 4 1 2v-1l-1-1Zm48.5-4 2.5 1.5-.5 1.5-1.5-.5-.5-1.5-1.5.5 1.5-1.5Zm-21 1 1.5.5.5 1.5 1.5-.5-2.5.5-1.5-.5.5-1.5Zm5 2 3 4 2.5 1.5-.5 1.5-6.5-5.5 1.5-1.5Zm38 0 15.5.5-15.5.5v-1Zm25 0 8.5.5-8.5.5v-1Zm-636 1-1 2-1.5-.5 2.5-1.5Zm444 0-1 4-1.5-.5 2-1 .5-2.5Zm-11 2 .5 1.5-10 9 9.5-10.5Zm6 0 1.5.5-1.5.5v-1Zm206 2 24 1h2l4.5 1.5-2.5.5-29-1-4 2-1-2 6-2Zm-145 1 3.5 2.5-2 1-.5-1.5-2.5 1.5-.5 3.5-.5-3.5 3-2-.5-1.5Zm31 0 .5 1.5-4.5 3.5 1-2 1.5-.5 1.5-2.5Zm86 0 3.5.5-.5 3.5-3.5-.5.5-3.5Zm-543 1-1.5 2.5-1.5 3.5v-2l-2 1 1-2 4-3Zm537 0 .5 1.5h-1l.5-1.5Zm15 0 .5 1.5h-1l.5-1.5Zm-106 1 1.5.5-1.5.5v-1Zm-15 1 4 1 2-1v1l-1.5.5 3 1-3.5 5.5-1.5-.5 2-1-2-1 1.5-2.5-5.5-1.5 1.5-1.5Zm18 0 2.5 1.5-.5 1.5-1.5.5 1.5 2.5-1.5.5 2 1-1.5.5-3-6 2.5-.5-.5-1.5Zm55 0 .5 1.5-9 8-2.5 3.5h-2l-1.5-.5 14.5-12.5Zm12 0 7.5.5-7.5.5v-1Zm14 1 1.5.5.5 1.5 1.5-.5-2.5.5-1.5-.5.5-1.5Zm-88 1 3.5 2.5-2.5-1.5-3 2 2-3Zm-451 1 1.5.5-6.5 2.5v-1l5-2Zm544 0 5 6 1.5-.5-6.5-3.5-1.5-.5 1.5-1.5Zm75 2 .5 3.5h-1l.5-3.5Zm15 0-5 6-2 1 2-3 5-4Zm-197 1 4.5.5-4.5.5v-1Zm25 0 4.5.5-4.5.5v-1Zm183 2 .5 3.5h-1l.5-3.5Zm-128 1 .5 1.5h-1l.5-1.5Zm134 0 3.5 1.5-.5 1.5-3-3Zm5 2 1 2 5-1v1l-5 1-1-3Zm-30 2-.5 1.5-2.5 4.5-.5-1.5 3.5-4.5Zm-278 2-1 4-7.5 4.5 8.5-8.5Zm137 1 1.5.5-1.5.5v-1Zm9 0 1.5.5-1.5.5v-1Zm122 0 3 7 2.5 1.5-.5 3.5-5.5-3.5.5-8.5Zm-158 1 .5 2.5-2 1 1.5-3.5Zm-451 1-.5 1.5-.5 3.5-.5-3.5 1.5-1.5Zm443 1 .5 2.5h-1l.5-2.5Zm193 0 1 2 1-2 1.5.5-.5 1.5-3 1v-3Zm-629 1 5.5 4.5.5-2.5 1.5 3.5-7.5-5.5Zm642 0 4.5 3.5h-3l-.5-1.5-5 2 1-2 3.5-.5-.5-1.5Zm-193 1 8.5.5-10 2 2 3-8.5 5.5v-1l1.5-.5-2-1 2-1 4.5-6.5 2-1Zm-2.5 4-2 3-1 2 5-3-2-2Zm162.5-4 2 3 3.5 1.5-2.5 1.5-3-6Zm26 3 1.5.5-6.5 2.5v-1l5-2Zm13 0 1 2-2.5-.5 1.5-1.5Zm-197 2 1.5 2.5h-1l-.5-2.5Zm65 0 4.5 2.5.5 1.5 3.5 1.5-.5 1.5-8-7Zm45 0 2.5 1.5 2.5 3.5 5.5 4.5 1 6-11.5 11.5-1.5-1.5 10-8-.5-1.5 2.5-.5-1.5-2.5-1.5-.5-6-7-.5-2.5h-2l-2.5-.5 3-1 .5-1.5Zm53 1 4.5.5-4.5.5v-1Zm37 0 1.5.5-1.5.5v-1Zm5 0 5.5.5-5.5.5v-1Zm-200 1 1.5.5-1.5.5v-1Zm99 0 1 2-1.5-.5-.5 1.5-1.5-.5-.5 1.5-1.5-.5-.5 1.5-1.5-.5.5-1.5 6-3Zm-538 1 .5 1.5-1.5.5 1-2Zm417 0 5.5 1.5-4.5.5-1-2Zm158 0 3.5.5-.5 1.5-1.5.5 2 1-8.5 6.5-1-4-3 2-.5-2.5 9.5-5.5Zm-1.5 4-1 2 2-1-1-1Zm-599.5-3 4.5.5-4.5.5v-1Zm8 0 1.5.5-3.5 1.5v-1l2-1Zm606 0 1.5.5-5 4 1.5 2.5-3-4 2.5-.5.5-1.5 2-1Zm33 1 .5 1.5-4 2-2.5 4.5-.5-1.5 4.5-5.5 2-1Zm6 0 2.5 1.5-1.5.5-1-2Zm-628 1 3.5 2.5 1 3h-1l-1.5-3.5-2-2Zm301 0-1.5 2.5-.5 1.5-.5-1.5 2.5-2.5Zm161 0 2.5.5-.5 1.5-2-2Zm-160 3 .5 7.5-2.5 3.5.5-1.5 1-6v-2l.5-1.5Zm163 1 1 4 4-2 2-1 .5 1.5-4 2-.5 1.5-1-2-3 1-2-1-3 4 .5-1.5 5.5-6.5Zm167 0 3.5.5-3 1-.5 2.5-3-2-1 2h-2l-1.5-.5 5.5-2.5 1.5.5.5-1.5Zm-141 1 1.5.5.5 1.5 1.5-.5-2.5.5-1.5-.5.5-1.5Z"/><path fill="#0D0E1F" stroke="#0D0E1F" stroke-width="3" d="m738.5 366 5.5 11.5h-1l-4.5-11.5Zm-582 1 4.5 1.5-1.5-.5-3-1Zm509 0 3 4 9.5 7.5-12.5-9.5-1.5-.5 1.5-1.5Zm-67 1-.5 1.5-.5 7.5-.5-7.5 1.5-1.5Zm-424 1 1.5.5-1.5.5v-1Zm428 0 5.5 2.5.5 1.5 4.5 1.5-1 2 3 5-2-1-3.5-6.5-3.5-1.5-.5-1.5-3 1v-3Zm182 0 1.5 4.5-2.5 1.5v-1l1.5-.5-.5-4.5Zm12 0 .5 1.5h-1l.5-1.5Zm-635 1 2.5 1.5-5.5 2.5 3-4Zm632 0 3.5 2.5-.5 1.5-3-4Zm-623 2 1 2 1.5-.5h-3l.5-1.5Zm463 0 .5 1.5h-1l.5-1.5Zm170 1 2.5 1.5.5 1.5 2.5 1.5-1.5.5-3-4-1-1Zm-44 1 .5 13.5h-1l.5-13.5Zm-590 1 1 2-1.5-.5 2 3-3-2 1.5-2.5Zm645 0 1.5.5-.5 1.5-1.5-.5-.5 1.5-2.5-.5 3.5-2.5Zm-657 1 3 4-3.5-2.5.5-1.5Zm325 0 .5 1.5h-1l.5-1.5Zm300 0 1.5.5-2.5 3.5-.5-2.5 1.5-1.5Zm12 0 1.5.5-4.5 2.5-2 1 1-2 4-2Zm-642 1 .5 1.5h-1l.5-1.5Zm451 1 .5 1.5h-1l.5-1.5Zm25 0 4.5 1.5-3.5.5-1-2Zm-471 1 .5 1.5h-1l.5-1.5Zm635 1 .5 1.5h-1l.5-1.5Zm-641 1 .5 2.5-2 5 2 5h-1l-2-8 2.5-4.5Zm312 0-.5 1.5 3.5 7.5 1.5.5-11.5.5-161.5-1.5 162.5-.5 5 1 .5-1.5-1-6 1.5-1.5Zm-307 1h2l1.5.5-6.5 2.5 1-2 1.5.5.5-1.5Zm439 0 2.5.5-1.5 3.5-2-1-.5 3.5 1.5-.5 1.5.5.5 3.5-1.5-.5-.5 2.5-2.5-8.5 2.5-3.5Zm186 0 4.5 9.5h-3l1-5-3-2 .5-2.5Zm3.5 6-1 4h1v-4Zm9.5-6 1.5.5-1.5.5v-1Zm-4 1 1.5.5-1.5.5v-1Zm8 0 3.5 2.5-1.5.5-2.5-1.5.5-1.5Zm-208 1-1.5 2.5 2 3-3-2 2.5-3.5Zm-445 1-.5 1.5 2 3-3-2 1.5-2.5Zm671 2 1.5.5-1.5.5v-1Zm-14 1 1 2 3.5 1.5-8.5 6.5-1-2 2 1 6.5-5.5-4.5-1.5-6 8-1.5-.5-2.5 3.5-1.5-.5-.5 1.5-2.5-.5 15.5-13.5Zm-649 1 3.5 1.5-1.5.5-2-2Zm52 0 69.5.5-69.5.5v-1Zm602 0 1.5.5-.5 1.5-1-2Zm-649 2 1.5.5-1.5.5v-1Zm3 1 2.5 3.5h-1l-1.5-3.5Zm118 1 1.5.5-.5 1.5-14.5-.5 13.5-1.5Zm10 0 8.5 1.5-8.5.5v-2Zm493 0 1.5 2.5-3 2 .5-1.5 1.5-.5-.5-2.5Zm-420 1 15.5.5-15.5.5v-1Zm247 0 2 4 2.5.5-2.5.5-2-5Zm-346 1 .5 1.5-4 2-1.5 2.5-.5-1.5 5.5-4.5Zm37 0 5.5 4.5-.5 1.5-2-3-3.5-1.5.5-1.5Zm59 0 1.5.5-2.5 1.5 1-2Zm-194 1 3.5 1.5-2.5.5-1-2Zm581 0 .5 6.5-7.5 7.5-2-2-3-1-1 2-1.5-.5.5-1.5 3-1 5 2q6.86-2.14 6-12Zm-585 1-6 9-5 2v-1l1.5-.5-3-1 3.5-.5h2l1.5-.5.5-2.5 4.5-2.5.5-2.5Zm472 2 .5 1.5h-1l.5-1.5Zm-467 1 .5 1.5-1 3 4 1-3.5.5-2-3-2.5 1.5 4.5-4.5Zm440 0 2.5 1.5-.5 2.5-3-2v2l-1.5-2.5 2.5-1.5Zm176 0 2.5 1.5-1.5.5-1-2Zm18 0 2.5 1.5-1.5-.5-1-1Zm-442 1 2.5 1.5-1.5.5-1-2Zm14 1 2.5 1.5-1.5-.5-5 1v-1l4-1Zm229 0 1.5.5-8.5 5.5v-1l1.5-.5-4-2 1.5.5 4-1 2 1v-2l1.5.5.5-1.5Zm-343 1 12 14 1.5.5-4-1-5.5-6.5-2.5-1.5-1.5-5.5Zm47 0 .5 2.5-5.5 6.5-2.5.5-.5 1.5-1.5-.5-.5 1.5-1.5-.5-.5 1.5-1.5-.5-.5 1.5-1.5-.5-.5 1.5-1.5-.5-.5 1.5-1.5-.5-.5 1.5-1.5-.5-.5 1.5-1.5-.5.5-1.5 20.5-11.5.5-1.5 1.5-.5.5-2.5Zm323 2 1.5.5-1.5.5v-1Zm86 0 1.5.5-2 1 .5-1.5Zm-76 1 3.5 1.5-.5 1.5-1.5-.5-.5-1.5-1-1Zm30 0-1 2-1.5-.5 2.5-1.5Zm49 0 2.5 1.5-.5 1.5-1.5-.5-.5-1.5-1.5.5 1.5-1.5Zm31 0-.5 1.5-3.5 4.5-2 1 6-7Zm-27 3 7.5.5-7.5.5v-1Zm0 3 6.5 2.5-1.5.5-5-2-3 2 1-2 2-1Zm-573 2 5.5 1.5-3.5.5-2-1-1 2h-2l-1.5.5-1.5 3.5 2-5 4-2Zm444 0 5.5 1.5-3.5.5-2-1v2l-2-1-1 3v-2l-1.5-.5 4.5-2.5Zm-437 1 1.5.5-1.5.5v-1Zm118 3 2.5 1.5-.5 1.5-1.5-.5-.5-1.5-1.5.5 1.5-1.5Zm-98 1 .5 1.5h-1l.5-1.5Zm543 0 2.5 1.5-1.5.5-1-2Zm8 0 1.5.5-2.5 1.5 1-2Zm-588 6 1 2-1.5-.5 1 2h-3l2.5-3.5Zm458 1-2 3-1-2 3-1Zm-446 1 1.5.5-12.5 6.5 1-2 1.5.5.5-1.5 1.5.5.5-1.5 1.5.5.5-1.5 1.5.5.5-1.5 1.5.5.5-1.5Zm4 1 4 5-3.5-1.5-.5-3.5Zm-19 2 2.5.5-4.5 5.5-2.5.5-.5 2.5-1.5-.5 1 2-2-1 7.5-9.5Zm444 0 .5 1.5h-1l.5-1.5Zm6 2 1.5.5-2.5 1.5 1-2Zm-419 2 1.5 2.5-2-1 .5-1.5Zm411 0-4 5-.5-1.5 4.5-3.5Zm7 2 2.5 1.5-1.5.5-1-2Zm-444 5 2.5 5.5-2-1-.5-4.5Zm26 0-1 2-2 1 1-2 2-1Zm403 3 1.5 2.5-4 3 2.5-5.5Zm-416 1 2.5.5-2.5.5v-1Zm428 0 1.5.5-1.5.5v-1Zm-424 1 2.5.5-2.5.5v-1Zm-22 4 .5 2.5h-1l.5-2.5Zm421 1 2.5.5-2.5.5v-1Zm6 0 1.5.5-1.5.5v-1Zm42 0 1.5 2.5-3.5 2.5-1-2 2 1 1.5-2.5-.5-1.5Zm-489 1 2.5.5-2.5.5v-1Zm-9 1 1.5.5-5 2 3.5-2.5Zm50 0 3 2 2.5-1.5-3.5 2.5-2-3Zm394 0 1.5.5-5 2 3.5-2.5Z"/><path fill="#202546" stroke="#202546" stroke-width="3" d="m448.5 168 1.5.5-4 2-1.5 3.5-.5-1.5 2.5-3.5 2-1Zm11 60 2.5 4.5-2-1-.5-3.5Zm-387 6 2.5 5.5h-1l-1.5-5.5Zm212 6 13.5 1.5 8 16v7l-3.5 4.5-3 1-7.5-5.5 8-2q1.3-11.8-6.5-14.5l-10-2-1 2-.5-5.5 2.5-2.5Zm58 0 23.5.5-.5 16.5-6-9-10-2h-2l-5.5-.5.5-5.5Zm-30 4 3.5 2.5.5 1.5 6.5 3.5-4.5.5-4.5-2.5-1.5-5.5Zm23 0 .5 2.5-2.5 3.5-8 2v-1l6.5-3.5.5-1.5 3-2Zm13 9 11.5 18.5-9-8-2.5-10.5Zm-199 17 1.5.5-1.5.5v-1Zm455 11 1.5.5-1.5.5v-1Zm-62 5 1.5.5-2.5 1.5 1-2Zm79 0 4.5 2.5-1.5.5-3-3Zm-15 2 2.5 1.5-1.5-.5-1-1Zm4 2 1.5.5-1.5.5v-1Zm-102 4 1.5.5-9.5 6.5 4-5 4-2Zm110 0 2.5 1.5-1.5-.5-1-1Zm4 2 1.5.5-1.5.5v-1Zm137 4 .5 1.5h-1l.5-1.5Zm-563 2 1.5.5-1.5.5v-1Zm472 3 5.5 4.5-1.5.5-4-5Zm-482 7 2.5 5.5h-1l-1.5-5.5Zm-4 4 1.5 3.5h-1l-.5-3.5Zm-86 7 1.5.5-1.5.5v-1Zm10 1-1 2-6.5 4.5-.5 1.5-.5-1.5 8.5-6.5Zm444 0-1 2-6.5 4.5-.5 1.5-.5-1.5 8.5-6.5Zm-458 1 1.5.5-3.5 1.5v-1l2-1Zm26 1 5.5 4.5-4.5-3.5-1-1Zm444 0 4.5 3.5-3.5-2.5-1-1Zm-344 2 1.5.5-1.5.5v-1Zm408 0 1.5.5-3.5 1.5v-1l2-1Zm14 0-1.5 2.5-.5 1.5-.5-1.5 2.5-2.5Zm-107 3-.5 1.5-1.5 2.5.5-1.5 1.5-2.5Zm104 2-.5 1.5-.5 1.5-.5-1.5 1.5-1.5Zm-124 1 .5 1.5-6 5 5.5-6.5Zm-12 8 2.5 4.5-2-1-.5-3.5Zm-444 1 2.5 3.5-2-1-.5-2.5Zm84 5 1.5 2.5h-1l-.5-2.5Zm-19 1 1.5.5-3.5 1.5v-1l2-1Zm90 0-.5 1.5-1.5 2.5.5-1.5 1.5-2.5Zm-155 3 .5 1.5-1.5 2.5-.5-1.5 1.5-2.5Zm444 0 .5 1.5-1.5 2.5-.5-1.5 1.5-2.5Zm-446 5-.5 1.5-2.5 4.5.5-1.5 2.5-4.5Zm524 2-4 5-2 1 1-2 5-4Zm-447 3-1 2-4 2 1-2 4-2Zm-81 2 .5 1.5h-1l.5-1.5Zm525 4 1.5.5-5 4-.5 1.5-.5-1.5 4.5-4.5Zm-440 16 1.5.5-1.5.5v-1Zm13 11 .5 1.5h-1l.5-1.5Zm444 0 .5 1.5h-1l.5-1.5Zm-541 15 .5 1.5h-1l.5-1.5Zm444 0 .5 1.5h-1l.5-1.5Zm80 4 1.5.5-1.5.5v-1Zm-464 12 1.5.5-3.5 1.5v-1l2-1Zm444 0 1.5.5-1.5.5v-1Zm0 5 4.5 2.5-1.5-.5-3-2Zm-438 3 4.5 3.5-3.5-2.5-1-1Zm444 0 4.5 3.5-3.5-2.5-1-1Zm-465 2 6.5 5.5-1.5.5-5-6Zm444 0 6.5 5.5-1.5.5-5-6Zm-429 10 1.5.5-1.5.5v-1Z"/><path fill="#3E4274" stroke="#3E4274" stroke-width="3" d="M314.5 240h19l2.5 2.5-12.5 9.5-11.5-9.5 2.5-2.5Zm-30 6 13.5 7.5 2 8-9.5 2.5-7.5-16.5 1.5-1.5Zm66 0 13.5 7.5 2 14-2.5 2.5-13.5-13.5-2-8 2.5-2.5Z"/><path fill="#B48544" stroke="#B48544" stroke-width="3" d="M122.5 264q11.44-1.94 15.5 3.5l-.5 2.5q-13.75 3.75-17.5-2.5l2.5-3.5Zm47 36 4.5 1.5-1.5 4.5-4.5-2.5 1.5-3.5Zm278 6 2.5 6.5-3.5 5.5-8.5-2.5 5.5-6.5 4-3Zm35 6 3.5 1.5-1.5 4.5-4.5-.5 2.5-5.5Zm-56 12 5.5 1.5-1.5 4.5-4.5-1.5.5-4.5Zm-244 6 11 12-11.5-7.5-1-3 1.5-1.5Zm66 0q12.25-3.25 15.5 2.5l-1.5 3.5-16.5-1.5 2.5-4.5Zm62 36 9.5.5-3.5 5.5-4.5-1.5-1.5-4.5Z"/><path fill="#160F20" stroke="#160F20" stroke-width="3" d="m553.5 156 .5 1.5-2.5 1.5-10-1-7 2v-1l19-3Zm-239 6 1 4-15.5 5.5-31 61v17l2 3-2-1-2-18 35.5-65.5 10.5-3.5 1.5-2.5Zm74 2 .5 1.5h-1l.5-1.5Zm207 4 1.5.5-1.5.5v-1Zm3 1 4.5.5-4.5.5v-1Zm-189 19 .5 1.5q-27.25 20.75-42.5 53.5l-.5-3.5 10-18 .5-2.5 32-31Zm17 15 .5 1.5h-1l.5-1.5Zm1 3 2.5 4.5h-1l-1.5-4.5Zm-355 21 9.5 1.5-4.5 2.5-5-4Zm11 3 2.5 1.5-.5 1.5-7 4-.5-3.5 5.5-3.5Zm13 2 3 4 6 4 2.5-6.5-.5-1.5 2.5.5.5 1.5 1.5.5-3 2 1 5-4.5 1.5-13.5-9.5 4.5-1.5Zm-17 7 .5 4.5h-1l.5-4.5Zm355 3-1 2-28 22-4.5-3.5-9.5-14.5-4.5-1.5 2.5-.5 7.5 5.5 7.5 12.5 20-18 10-4Zm-63 4 1.5.5-2.5 3.5-2.5-1.5.5-1.5 3-1Zm-120 4 2.5 1.5-.5 2.5-1.5-.5-.5-3.5Zm118 2 2.5.5q5.67 6.83 3 22l4 7-1.5.5-3.5-5.5q3.21-15.71-2.5-22.5l-2 1v-3Zm-56 1 .5 1.5-5.5 2.5v-1l5-3Zm20 1 10.5 9.5-1.5 6.5-1.5-.5 2-5-6.5-7.5-3-3Zm-307 7 1 12 96.5 1.5-98.5 1.5-1.5-3.5 2.5-11.5Zm131 1 2.5 1.5-.5 1.5-2-3Zm151 3 4.5 2.5-1.5-.5-3-2Zm-26 2 4.5 11.5-9.5 2.5-5-6-5.5-3.5 1.5.5 14 6 .5-2.5-.5-8.5Zm87 1 .5 3.5-1.5 3.5-3 1v-1l2.5-1.5 1.5-5.5Zm-53 1 15.5 3.5-2.5.5-4 1-9-5Zm-189 6 3.5.5-3.5.5v-1Zm17 2 6.5 3.5 5 10-10-9-.5-1.5-1.5-.5.5-2.5Zm614 1 .5 2.5h-1l.5-2.5Zm-205 8 34.5 1.5-2.5.5-32-2Zm-4 1 2.5.5-24.5 8.5-16.5 16.5-15.5 23.5-2.5.5-4.5 6.5-9.5 7.5-3.5 5.5.5-1.5 10.5-15.5 2.5-1.5 1.5-2.5 6.5-4.5 23.5-31.5 29-12Zm86 1 .5 1.5-1 6 2 7-8.5 1.5q-12.75-11.25-34.5-13.5l2.5-.5 37 12 1.5-2.5-2-8 2.5-3.5Zm-587 1 2.5 1.5 1 3-5.5 1.5-2.5-1.5-1-2 5.5-2.5Zm-11 1 .5 1.5h-1l.5-1.5Zm604 0 5.5 4.5 8.5 14.5q11.17 7.33 29.5 7.5l-14.5.5-21.5-11.5-7.5-15.5Zm100 1 1.5 2.5-6.5 1.5-.5-1.5 2.5-.5 2.5-.5.5-1.5Zm15 1 3.5 1.5 2 13h-1l-2.5-12.5-2.5-.5.5-1.5Zm-157 8 1.5.5-1.5.5v-1Zm-1 3 34 11 17.5 11.5-5.5 9.5-9 7v-1l5.5-4.5 7-10-15.5-11.5h-10l-22-10 1 4 17.5 9.5 2 7-2.5 6.5-.5-3.5 1-5-5.5-6.5-16.5-9.5 1.5-4.5Zm-4 2 .5 1.5h-1l.5-1.5Zm-558 7 16 1 2-1-2 3-7 1-9-4Zm23 0 7.5 3.5-2.5 4.5-21 4 2-3 5-1 9 1 4.5-3.5-1.5-2.5-3-3Zm699 0-3 4-2.5-.5 5.5-3.5Zm-35 2 2.5.5-20.5 2.5v-1l18-2Zm-622 4 23 1 2-1-1 2-11 1-6-1-2 1-5-3Zm444 0 26 2 5-2-.5 1.5-1 4 11.5 2.5 9-1 4 1 .5-4.5-1-3 1.5-.5 2.5 7.5-4.5 2.5-9-2-3 2h-2l-14-4-1 6-2-8-15-2-2 1-5-3Zm-23 2-3 4-5 1v-1l8-4Zm-447 2-2 3-3.5-.5 5.5-2.5Zm340 1 2.5 1.5-1.5-.5-1-1Zm190 0 .5 1.5h-1l.5-1.5Zm85 1 9.5 2.5-.5 1.5-9 2-4.5-2.5.5-1.5 4-2Zm1.5 1-1 4h4v-3l-3-1Zm22.5-1 4.5.5-4.5 1.5v-2Zm26 0 3.5.5-3.5.5v-1Zm-595 1-1 2-8 3 1-2 8-3Zm573 1 32.5 1.5-.5 2.5-33.5-.5 2-1-2.5-.5-2 1v-1l4-2Zm1.5 1v1h13l-13-1Zm18 0v1h6l-6-1Zm8 1v1h4l-4-1Zm-80.5 2q14.51-.01 21.5 7.5l-1.5.5-20-8Zm47 0 1.5.5-1.5.5v-1Zm-568 2 6.5 1.5-1.5-.5-21 6-1.5-2.5 1.5-.5 8 1 8-5Zm-85 1 .5 1.5-2.5 4.5-2 1 2.5-3.5 1.5-3.5Zm444 0 .5 1.5-5.5 4.5 5-6Zm84 0 17 5 13-2-.5 1.5-.5 1.5-14.5 2.5 11 6-1.5.5-10.5-3.5-1.5-2.5-4.5-.5 3-2-2.5-4.5-7-1-14 6-3.5-2.5.5-1.5 11 1 5-4Zm101 5 1.5.5-1.5.5v-1Zm81 0 .5 2.5-4 10 4 3-1.5.5-2.5-1.5-2-5 5.5-9.5Zm-15 1 1.5.5-1 13 2 3-7.5 2.5-4-1-9.5 5.5q7.81 12.69 8 33h-1l-8.5-27.5-1.5-.5-.5-1.5-3.5 2.5-7.5 10.5-6 2v-1l9.5-8.5 1-6-5.5-6.5-3.5-2.5-1.5-2.5-3.5-.5 4.5-2.5 3 4 5 1 6-2 5 2 8-2 9 1 .5-7.5h-1l-1.5 4.5-.5-3.5 3.5-6.5 1.5.5-.5-3.5Zm-.5 5-1 2h1v-2Zm55.5-5 2.5.5-13 7 2.5 3.5 2.5 1.5-.5 2.5-1-2-9.5-6.5 1.5-3.5 7 1 8-4Zm-191 2 5.5.5-6.5 1.5 1-2Zm-31 3 .5 5.5h-1l-1-4 1.5-1.5Zm-444 1 .5 5.5h-1l-1-4 1.5-1.5Z"/><path fill="#160F20" stroke="#160F20" stroke-width="3" d="m719.5 345 1 3 1.5.5-2.5 3.5-2.5-4.5 2.5-2.5Zm-635 1 10.5 2.5-.5 1.5-10-2-14 10-.5-1.5L84.5 346Zm444 0 10.5 2.5-.5 1.5-10-2-14 10-.5-1.5 14.5-10.5Zm234 1 .5 1.5h-1l.5-1.5Zm-34 2 5.5 4.5-1.5-.5-8 1 4-5Zm12 0 6.5 3.5-3.5.5-3-1-4 2 4-5Zm76 1 .5 1.5-10.5 2.5v-1l10-3Zm-145 3 6.5 4.5-1.5.5-5-5Zm39 1-1 2-2 1 1-2 2-1Zm-555 1 13.5 5.5 3 9-5 10 1 2-2.5.5-2-1-3.5 5.5 3 2-.5 2.5-5.5-4.5 5.5-13.5 2.5-1.5 1.5-2.5 3.5-1.5-3.5-7.5-9-2-1.5 3.5 10 5-.5 1.5-10-4-4 2-2-3-11.5-2.5 2.5-.5 11 1 4-6Zm445 2 8.5 1.5-2.5.5-4-1-4.5 3.5.5 1.5 1.5.5 1 2-5.5.5-2-3-10.5-2.5 1.5-.5 11 1 5-4Zm104 0 1.5.5-1.5.5v-1Zm-257 1 6.5 2.5-.5 1.5-16-2-1.5.5.5-1.5 11-1Zm232 0 23.5.5-23.5.5v-1Zm-459 1 26.5.5-26.5.5v-1Zm43 0 13.5.5-13.5.5v-1Zm41 0 2.5.5-2.5.5v-1Zm18 0 12.5.5-12.5.5v-1Zm37 0 1.5.5-1.5.5v-1Zm24 0 31.5.5-31.5.5v-1Zm246 1 1.5.5 1 5-4.5 5.5-3 1 5.5-6.5-.5-5.5Zm-399 1 2.5.5-2.5.5v-1Zm561 1 5.5 1.5-4.5 12.5-3.5 2.5-.5 1.5-1.5.5.5 1.5 1.5.5.5 1.5 9.5 3.5-4.5 7.5-8 4-1.5-4.5 1-9-2-5 7.5-18.5Zm-1.5 25-2 9h2l6-7-6-2Zm12.5-25 .5 1.5h-1l.5-1.5Zm20 2 .5 1.5h-1l.5-1.5Zm-180 3q25.25-3.25 32.5 11.5l-7.5-6.5q-7.67-6.83-25-4l-6 4 3-4 3-1Zm162 4 10 3 3-1-1 2-7 1-5.5-3.5.5-1.5Zm19 0-.5 1.5-.5 1.5-.5-1.5 1.5-1.5Zm-763 1 .5 2.5-1 24 1.5 2.5 1.5.5-.5 1.5-3.5-2.5-1-22 2.5-6.5Zm59 0 1.5 26.5-1.5 3.5-1.5-4.5 2-1-.5-19.5-1.5-.5 1.5-4.5Zm385 0 .5 2.5-1 24 1.5 2.5 1.5.5-.5 1.5-3.5-2.5-1-22 2.5-6.5Zm59 0 1.5 26.5-1.5 3.5-1.5-4.5 2-1-.5-19.5-1.5-.5 1.5-4.5Zm42 2 4.5 3.5 2.5 6.5 5.5.5-6.5 1.5-4-5-2 1-2.5-5.5 2.5-2.5Zm204 3 1.5.5-1.5.5v-1Zm-626 2 .5 2.5-3.5.5v-1l3-2Zm453 0 1.5 4.5-1.5.5v-5Zm-12 2 7.5 1.5-2.5.5-3-1-2 1v-2Zm-473 5 .5 1.5h-1l.5-1.5Zm444 0 .5 1.5h-1l.5-1.5Zm15 1 .5 2.5-3.5.5 1-2 2-1Zm212 1 1.5 2.5-2-1 .5-1.5Zm-186 2 1.5.5-1.5 4.5v-5Zm173 0 3.5.5-9 6 1 5-1.5.5-1.5-5.5 7.5-6.5Zm-468 6 1.5.5-1.5.5v-1Zm-73 1q23.3-4.3 34.5 3.5l-4.5 9.5q-7.48 8.02-23 8l-9.5-6.5-5-11 7.5-3.5Zm-3.5 3-2 5 14 11 20-7 4-7-36-2Zm72.5-2 .5 1.5h-1l.5-1.5Zm9 0 .5 1.5h-1l.5-1.5Zm9 0 .5 1.5h-1l.5-1.5Zm15 0 8.5.5-1.5 4.5-7.5-3.5.5-1.5Zm-112 3 .5 1.5h-1l.5-1.5Zm47 0 .5 1.5h-1l.5-1.5Zm36 0 1.5.5-1.5.5v-1Zm250 0-3.5 4.5.5 2.5 7 1 10-5 1 2-9.5 3.5 3 4-1.5.5-6-1-6.5 4.5-1.5 2.5-.5-1.5 4-8-2-4 5.5-5.5Zm194 0 1.5.5-1.5.5v-1Zm37 0 .5 1.5h-1l.5-1.5Zm-186 1 6 4 24.5.5-24.5.5-5.5-2.5-.5-2.5Zm77 2 5 1 3-1 10.5 2.5-8.5.5-10-3Zm-570 1 1 3 7 1 9-4 2 3 5.5.5-7.5 1.5-3-2-1 2 3.5 1.5 2 5-4.5-3.5-5-1-10.5 5.5-19.5 31.5-3 1v-1l5.5-4.5 5.5-13.5 7.5-6.5 6-14-2-4 1.5-1.5Zm590 0 3.5.5-3.5.5v-1Zm-110 3 5.5.5-4.5 1.5-1-2Zm92 8 .5 1.5h-1l.5-1.5Zm15 0 .5 1.5h-1l.5-1.5Zm-556 2 2.5.5-4.5 1.5v-1l2-1Zm-99 3 14 5 5-2 .5 1.5-10.5 2.5-9.5-5.5.5-1.5Zm444 0 14 5 5-2 .5 1.5-10.5 2.5-9.5-5.5.5-1.5Zm62 5-.5 1.5-.5 1.5-4.5 2.5-5.5 6.5-.5-1.5 3.5-5.5 8-5Zm12 3 6.5.5-12 4 1 5-2-1 .5-5.5 6-3Zm-444 1 6.5 2.5-.5 1.5-7-2-5.5 4.5-.5 1.5-.5-2.5 7.5-5.5Zm434 4 .5 1.5h-1l.5-1.5Zm-422 1 3.5 1.5-2.5 7.5-1.5-.5 2-6-4-1 2.5-1.5Zm6 2 .5 1.5h-1l.5-1.5Zm402 4 .5 2.5-3.5 5.5-3 1 2-3 2.5-1.5 1.5-4.5Zm-427 6 1.5 2.5-5.5 1.5 1-2 3.5-.5-.5-1.5Zm410 1 9.5 1.5-13 3-.5 1.5-1.5.5-.5 1.5-1.5-.5 5.5-6.5 2-1Zm28 0 2.5 1.5 1 2-2 1-.5-2.5-2.5-.5 1.5-1.5Zm-474 1 7.5.5-8 2-3.5 4.5-1.5-.5 5.5-6.5Zm-30 3 3.5 1.5-1.5-.5-2-1Zm444 0 3.5 1.5-1.5-.5-2-1Zm-437 3 1.5.5-1.5.5v-1Zm444 0 1.5.5-1.5.5v-1Z"/></svg>