<svg viewBox="0 0 522 522" xmlns="http://www.w3.org/2000/svg"><path stroke="#000" stroke-width="3" opacity=".016" d="M.5 0 522 .5l-.5 521.5L0 521.5.5 0ZM257 12l-14 7-43 54-4 21-21 10-35 35-2 17-6 11v19l-6 11v39l6 11-6 16 2 37h4v24h3l5 24h4v6h6l2 12h4v20q8 3 6 18l20 34 35 28 46 20 37-14 14-19 10-5q21-13 30-38-1-14 6-18v-13l6-11v-13l6-3-2-3 6-1 5-11 3-1v-29l6-1V191l-2-4-3-1q4-33-9-47l-34-35-21-10-9-16V65l-14-34q-9-13-26-19h-15ZM65 24l-4 2Q35 41 24 71l2 19 8 5-1 2 49 46-1 2 3 5h4l62-64q3-22-8-31l-32-31H65Zm348 0-4 2q-25 15-37 45l2 19 8 5-1 2 49 46-1 2 3 5h4l62-64q3-22-8-31l-32-31h-45Z"/><path fill="#0F0200" stroke="#0F0200" stroke-width="3" d="M256.5 12h15q17 5.5 26.5 18.5l14 34v13l8.5 16.5 21 10 34.5 34.5q13.15 14.85 8.5 47.5l3.5.5 2 6-1.5-.5-4.5 1.5 1.5 4.5 4-1 .5 85.5-1.5-.5-3.5-.5.5-1.5-3.5 2.5-1 9 3.5 4.5 1.5-.5-.5-1.5 4-1 .5 12.5-6.5 1.5-3.5-1.5.5-1.5-4.5 2.5 1 7-6.5 3.5-1.5-26.5-3.5-4.5-11-2-12.5 7.5 1.5.5q4-7 16-6l3.5 1.5q-13.53-1.53-18 6l.5 1.5-16 11h-14l-2.5-5.5 11-1-1.5-11.5-4.5 1.5-.5 1.5-5 2-1-5-5.5 1.5-.5 3.5-5.5-2.5-1.5-2.5-4.5 1.5-.5 1.5-4 1-5.5-4.5-.5-4.5-1 3-2.5-1.5 1-19h-1l-1 22 3 2-3.5 4.5-2.5-2.5v-27l9-12-.5-1.5q8.83-8.17 29-5l11-6h23l2 6 9-2-1 2-7 2-5-3-1 3-2.5.5 8 4 3 5-1.5.5q-3.57-7.93-17-6l-16 8-11 11 .5-1.5 5.5-7.5 22.5-13.5-3.5-.5-25.5 18.5-3 7 6 10-7.5 2.5-1.5-2.5 2-5-3.5-4.5-6.5.5-1.5 2.5-2.5.5 5 1 2.5 3.5 1.5.5 2.5 5.5 10-2 7 2 6-1 3 2 7-4 4.5 2.5 1.5 6.5 2.5-1.5-2-1-3.5-7.5-11 2-5.5-3.5 1-5-1-2 23.5-2.5 11.5-8.5 1-5-6-9 19.5-10.5 3 8 7.5-2.5-2.5-7.5-6.5-.5q6.46-8.04 4-25l-3.5-4.5-4.5-2.5 1-7-5-18-9.5-11.5-3-2-.5 1.5 8 7 7 22-1.5.5-5.5-17.5-9.5-9.5-1.5.5-5.5-7.5-28-14h-15l-29 12h-17l-11-6q-18.45 1.95-27-6l-11 6h-13l-16.5 6.5-5.5 15.5-10.5 8.5-14 28q4 15.5-3.5 19.5l.5-1.5q-.25-24.25 10-38h-1l-9 20-1 16-5 14 2-1 .5-3.5.5 40.5h-1l-1.5-27.5-.5 29.5 5 15-3.5.5-2-1 1 3-3 1-4.5-1.5-2-6 1.5.5 5 1 1.5-6.5-3.5-2.5v2l-4 1-.5-26.5 6-16-6-11v-39l6-11v-19l6-11 2-17 34.5-34.5L196 93.5l4-21L242.5 19l14-7ZM271 28l-9 11 9 11 10-1v2l-13 9-11-4-11 2-3 4v7l11 26h-1l-5-11-3-3-5 1-9 19 2 7v2l-14-11-9 1q-6 9-4 27l6 3 9 16 1 1-2-1-8 1 15 4h5l-9-7-8-12-5-4-3-3 3-21v21l6 1 2 12q7 12 25 14l-1-1 2-6 9 7 19-8 8 4q15 0 23-7l1 4 11 1v-2l-2-8-7 1-1-9-2 10-8 4-1-3 5-1 7-16q-2-14 3-19l3-2-7 25 1 2 8-26-1-7-2-2-23 7-6 13-2-21q-5-23 4-32l-1-8 6-2 1-8-3-3-6 1-3-10-7-2Zm-80 100-5 2-2 9 7 3 8-2 1-8-9-4Zm108 17v1h4l-4-1Zm-4 1-2 1-1 2 5-2-2-1Zm21 0v1h1l-1-1Zm-106 1v1h2l-2-1Zm108 0v1h1l-1-1Zm-110 1v1h1l-1-1Zm112 0v1h1l-1-1Zm-114 1v1h1l-1-1Zm84 0v1h1l-1-1Zm32 0v1h1l-1-1Zm-118 1v1h1l-1-1Zm84 0v1h1l-1-1Zm36 0v1h1l-1-1Zm-133 1v1h9l-9-1Zm90 0v1h3l-3-1Zm45 0v1h1l-1-1Zm-138 1v1h2l-2-1Zm56 0v1h1l-1-1Zm34 0v1h1l-1-1Zm50 0 1 2h1l-2-2Zm-142 1v1h1l-1-1Zm60 0v1h1l-1-1Zm30 0v1h1l-1-1Zm-92 1v1h1l-1-1Zm64 0v1h1l-1-1Zm26 0v1h1l-1-1Zm57 0 2 2h2l-4-2Zm-149 1v1h1l-1-1Zm68 0v1h1l-1-1Zm22 0v1h1l-1-1Zm-92 1v1h1l-1-1Zm72 0v1h1l-1-1Zm18 0v1h1l-1-1Zm66 0v1h1l-1-1Zm-161 1v1h3l-3-1Zm163 0 1 2h1l-2-2Zm-165 1-3 3 1 2 3-4-1-1Zm168 1v1h1l-1-1Zm2 1v1h1l-1-1Zm2 1 4 5v-1l-4-4Zm-175 2-1 4h1v-4Zm-1 5-1 2h1v-2Zm-1 2-1 2h1v-2Zm-1 2-4 3-12 17 1 2 6-12 9-8v-2Zm216 17-3 3q-2 8 4 10h2l-2-2-3-4 2-5v-2Zm-57 55v1h19l-19-1Zm-2 1v1h1l-1-1Zm-2 1v1h1l-1-1Zm-2 1v1h1l-1-1Zm17 0v1h5l-5-1Zm-19 1v1h1l-1-1Zm-3 1v1h2l-2-1Zm-18 1v1h17l-17-1Zm-4 1-2 1-1 2 5-2-2-1Zm-5 3-7 8 1 2 7-9-1-1Zm-1 24-3 3 1 2v-1l4-3-2-1Zm2 4-1 6h6v-5l-5-1Zm43 6-2 5 5 1 1-4-4-2Zm-3 8v3l3-1v2h-5l1 3 5-2 2-3-6-2Z"/><path fill="#0F0200" stroke="#0F0200" stroke-width="3" d="m270.5 31-5 6 1.5-2.5.5-1.5 3-2Zm6 2 1.5 9.5-1.5 2.5V33Zm-11 8 5 6-3.5-2.5-1.5-3.5Zm11 14-9 10q-5.46-7.04-19.5-5.5l6.5-1.5 14 4 8-7Zm4 4 .5 1.5q-7.31 8.19-3 28l3.5 29.5 6-14 .5 3.5-8.5 24.5-3.5-2.5v-63l4.5-7.5Zm-35 3L258 90.5v15l-3.5 2.5-8.5-21.5h1l7.5 16.5 1.5-13.5-11-22 .5-5.5Zm-96 22 .5 1.5L87.5 150 147 89.5l2.5-5.5Zm348 0 .5 1.5-62.5 64.5L495 89.5l2.5-5.5Zm-258 2 .5 3.5-5.5 10.5-.5-1.5 5.5-12.5Zm65 9 4.5.5-18.5 6.5v-1l14-6Zm-92 6q15.66 1.34 20.5 13.5L221.5 104l-9-3Z"/><path fill="#0F0200" stroke="#0F0200" stroke-width="3" d="m234.5 104 7 22 4.5.5q-2.84 17.34 7 22l-6-5-3.5-8.5-3 13q3.17-15.17-3-21l-8.5-1.5 3.5-6.5 3 5 2.5-10.5-3.5-9.5Zm8.5 26-2 2 1 3 2-1-1-4Zm-54.5 1 7.5.5-7.5.5v-1Zm0 7 7.5.5-7.5.5v-1Zm85 0 2.5.5-.5 4.5-4-1-14 7 1-2 15-9Zm19 4-1 2-10 2-3.5-1.5 14.5-2.5Zm-208 6 1 2-1.5-.5.5-1.5Zm348 0 1 2-1.5-.5.5-1.5Zm-69 56 1.5.5 1.5 4.5 1.5.5-5.5.5-.5-2.5 1.5-3.5Zm9 10 .5 12.5h-1l.5-12.5Zm-10 2 3.5.5-.5 5.5-5.5-2.5 2.5-3.5Zm9 14-.5 1.5-.5 1.5-.5-1.5 1.5-1.5Zm-232 5 .5 1.5-2 1 1.5-2.5Zm41 5 16 6h25l16.5 11.5 2 4q4.55 22.55-3.5 32.5l-14 2-1-2-11.5-3.5-1.5-2.5-4.5 1.5-3.5 4.5-14.5.5-.5 4.5-10.5-7.5 4-2 1.5-2.5 3-1 5 3 .5-2.5-6.5-2.5-8 4-21.5-11.5 2.5-3.5 24 5 2-3-1.5-.5 3.5-4.5 12.5 5.5 2.5 4.5 10 2 1.5-7.5-2-3 2 1 2 7-5 6q6.42 7.07 20.5 6.5l8.5-2.5 1-25-1.5-2.5-.5 2.5 1 21-2.5 4.5-3.5-.5 1-7-2.5-3.5-9.5 2.5-.5 7.5-6.5-2.5 2-9-7.5-12.5-27.5-17.5-.5-1.5-2.5 1.5 27 18-1.5.5-20-14h-15l-10.5 8.5-.5 3.5-5.5-2.5q7.28-3.72 6.5-15.5 17.29 2.29 24-6Zm-.5 5v1h1l-1-1Zm6 0v1h1l-1-1Zm2 1v1h1l-1-1Zm2 1v1h1l-1-1Zm2 1v1h1l-1-1Zm2 1v1h2l-2-1Zm-35 1-3 5 1 2v-1l5-4v-1l-3-1Zm38 0v1h23l-23-1Zm26 1v1h1l-1-1Zm6 5 2 3h1l-3-3Zm5 4 1 2v-1l-1-1Zm-51 14v1h7l-7-1Zm8 1 3 6 6 3 1 4v1l5-3-7-4-4-4-4-3Zm-9 13-2 5 5 1 1-5-4-1Zm9 1v1h2l-2-1Z"/><path fill="#0F0200" stroke="#0F0200" stroke-width="3" d="M152.5 270q15.13-2.62 21.5 3.5l-.5 1.5-19-4-3.5 6.5 5 4-3.5.5-2.5-9.5 2.5-2.5Zm162 0 27.5.5-24 3 1 7-5.5 2.5-3.5-2.5-3-5 7.5 6.5 3.5-1.5-6-8 2.5-2.5Zm-92 11 5.5.5 1 5-5.5 2.5-2.5-6.5 1.5-1.5Zm1.5 1-2 5 4 1 2-4-4-2Zm-65.5 0 14.5 7.5-1.5.5-13-8Zm225 4 .5 3.5h-1l.5-3.5Zm-242 3 2.5 2.5v20l-3.5.5-2.5-9.5 3-1 1-11-.5-1.5Zm225 2 1.5 9.5-1 2 1 11-1.5 4.5v-27Zm17 20 .5 7.5-1.5-.5-7.5-.5 4-1 1-3-.5-1.5 4-1Zm-18 9-.5 1.5-.5 1.5-.5-1.5 1.5-1.5Zm6 0 .5 9.5-3.5 6.5-1.5-.5-.5-2.5-2.5 1.5 2.5-10.5 1.5.5-1 8h1l3.5-12.5Zm-227 2 4.5 6.5-3.5-2.5-3.5.5-.5 3.5-3 1-3.5-6.5 9-1 .5-1.5Zm239 1 .5 7.5-1.5-.5-1.5-.5-2-5 4.5-1.5Zm-20 1 .5 1.5-3.5 10.5-.5-5.5 3.5-6.5Zm-219 8 2.5 8.5-2 4 3-2 1.5-6.5 12.5 13.5q4.55 24.95 20 39l2 11 16 31 2.5 17.5 1.5-.5 1.5 2.5q11.75 1.25 16.5 9.5l-6.5-5.5-5-2-.5 1.5q13.21 17.29 41.5 19.5l18-5 10 2q18.75-2.75 28.5-14.5l-.5-1.5-7 6 9.5-10.5 2.5-14.5 1.5 8.5-2 5 2-1 2-10-4.5-7.5-6.5-2.5 1.5-4.5 10.5-6.5q8.6-23.9 26-39 3.33-23.17 17.5-35.5l1.5.5 2.5 7.5 1.5-.5-2-8 1.5-2.5 1.5 2.5-1 5 6 4-2.5 3.5-3.5.5v13l-6 11v13q-7.24 4.76-6 18-9.5 25-30.5 38.5l-9.5 4.5-14.5 19.5-37 14-46-20-34.5-28.5-20-34v-9l3 2 5.5 13.5 5.5-2.5 1-18-15.5-25.5-2.5.5.5 1.5-3 1-4.5-1.5-2-6 1.5.5 3.5.5.5 1.5 1.5-.5 1-8-4.5-2.5-.5 1.5.5 1.5-3 1-6.5-1.5-.5-5.5-3.5-.5-2-6 1.5.5 4.5-1.5.5-8.5Z"/><path fill="#0F0200" stroke="#0F0200" stroke-width="3" d="M153.5 337q12.54 5.96 14.5 22.5h-1q-2.93-15.85-13.5-22.5Zm206 1-.5 1.5-.5 1.5-.5-1.5 1.5-1.5Zm-83 2 4.5 7.5-1.5.5-3-8Zm80 3-3.5 4.5-7.5 13.5.5-1.5 10.5-16.5Zm-125 5 2.5.5q-2.18 17.32-15.5 23.5l-2.5-.5 15.5-23.5Zm54 6 4.5 5.5-8 1-6.5 20.5q-7.17 5.83-23 3L237 371.5l-3-8 7.5-2.5q6.82 7.68 24 5l16.5-6.5 3.5-5.5Zm-8.5 10-12 5v1l12-4v-2Zm-36 1-2 2 1 5 9 7h1l-3-3-7-8 4-1-3-2Zm4 2v1h1l-1-1Zm2 1v1h1l-1-1Zm30 0-5 9 1 1 4-7v-3Zm-28 1v1h2l-2-1Zm3 1v1h12l-12-1Zm19 8v1h1l-1-1Zm-20 1 3 2 15-1v-1l-11 1-7-1Zm92.5-15 .5 1.5-1.5 5.5-.5-4.5 1.5-2.5Zm-181 6 1.5 3.5h-1l-.5-3.5Zm179 4-.5 1.5-.5 1.5-.5-1.5 1.5-1.5Zm-163 6 5.5 6.5-2-1-3.5-5.5Zm159 0-9.5 10.5-1.5 2.5.5-1.5 10.5-11.5Zm-153 8 1.5 6.5h-1l-.5-6.5Zm47 2h23l4.5 4.5-1.5-.5-7-1-17.5 1.5q19.52-2.52 30.5 3.5l11.5-3.5-9.5-.5-1.5.5-.5-2.5-3.5-1.5 15.5-.5 6.5 3.5 1.5 2.5 14-4 5.5 4.5 3 7-2.5-1.5-2.5-.5-2.5-5.5-15 3-5-3 3 4 16-3 1.5 3.5-9.5 5.5q-6.9-5.1-21-3v1q15.73-1.73 24 4l7-5 .5 1.5-2.5 4.5-9.5 6.5 1.5 4.5 3.5 2.5-2.5 3.5-4-7-9.5 4.5 2.5.5 6-2 1.5 2.5-1.5 2.5-12.5 5.5 1.5.5 13-5 2.5 3.5q-13.29-1.29-17.5 6.5h-29l-15.5-9.5 3.5-8.5h46l10.5-7.5-1.5-4.5h-54l-4.5 2.5-.5 3.5-5.5-3.5-.5-2.5-11.5-.5q.68-11.82 8.5-16.5l3.5 2.5 1.5 2.5 4.5-1.5 3.5-4.5Zm-12.5 5-2 1-3 6 1 2h5l-5-1 4-6 10 2 3-4-4 2-9-2Zm58 0v1h1l-1-1Zm-41 8 22 3 9-1v-1l-5 1-26-2Zm-15 1 6 5 8-4v-1l-7 3-7-3Zm12 19-3 3 1 3 8 4h2l-6-4-3-3 44-1-43-2Zm12 10v1h5l-5-1Zm-70.5-42 .5 12.5h-1l.5-12.5Zm149 7-.5 1.5-.5 1.5-.5-1.5 1.5-1.5Zm-2 4 .5 1.5-5.5 9.5-.5-1.5 5.5-9.5Zm-11 16-1 2-7.5 4.5 2.5 5.5 3.5 1.5-1.5.5-4.5-2.5-2-6 10.5-5.5Zm-108 12 1.5 15.5h-1l-.5-15.5Zm21 30q10.35 11.65 36 8l8-5 5.5 3.5-2.5.5-3-1q-7.12 6.87-23 5l-21-11Zm75 0-1 2-17 5v-1l18-6Z"/><path fill="#F5AF19" stroke="#F5AF19" stroke-width="3" d="M66.5 24h41L141 54.5l3 10-1.5.5-9-4q-6.96 16.54-30 17v-1q16.53-4.47 25.5-16.5l3-7L114.5 33l-6-3h-43L54 38.5l-21 27-3 13L41.5 93 54 97.5l-.5 4.5-5.5.5-.5 1.5L27 89.5l-3-17Q35.42 42.92 60.5 27l6-3Zm348 0h41L489 54.5l3 10-1.5.5-9-4q-6.96 16.54-30 17v-1q16.53-4.47 25.5-16.5l3-7L462.5 33l-6-3h-43L402 38.5l-21 27-3 13L389.5 93l12.5 4.5-.5 4.5-5.5.5-.5 1.5L375 89.5l-3-17q11.42-29.58 36.5-45.5l6-3Z"/><path fill="#F5AF19" stroke="#F5AF19" stroke-width="3" d="m101.5 82 1 2 3.5 1.5 6 15q-7.01 14.49-28 15 8.81 6.69 6 25l-4.5 2.5-3.5-4.5 2-1-24-29 2.5-.5q5.4 8.6 22 6l5.5-3.5Q86.55 87.05 101.5 82Zm348 0 1 2 3.5 1.5 6 15q-7.01 14.49-28 15 8.81 6.69 6 25l-4.5 2.5-3.5-4.5 2-1-24-29 2.5-.5q5.4 8.6 22 6l5.5-3.5q-3.45-23.45 11.5-28.5Z"/><path fill="#F5AF19" stroke="#F5AF19" stroke-width="3" d="M68.5 90 79 99.5l2.5 3.5 2.5 1.5-1.5 3.5q-14.66 2.16-19.5-5.5l-3-4 6-5 2.5-3.5Zm348 0 10.5 9.5 2.5 3.5 2.5 1.5-1.5 3.5q-14.66 2.16-19.5-5.5l-3-4 6-5 2.5-3.5Z"/><path fill="#F7F174" stroke="#F7F174" stroke-width="3" d="m65.5 30 3.5.5-3 4 1.5.5 3-1v1l-1.5.5.5 1.5 8 2 3.5-2.5-.5-1.5-1.5-.5 2.5-.5 2 1 .5-1.5-2.5-3.5 11.5.5-3 4 2.5.5 10-1v1l-7.5.5 18.5 5.5 1-2L127 53.5l-1 6 2 1L114.5 72h-48l-6 3-1-3-3 1-6-1-4.5 2.5-.5 15.5-1.5-.5 1-10-1.5-4.5-4.5 2.5-1.5 5.5-1-2-1 5q-6.98-3.02-5.5-14.5L39.5 60l2.5.5.5 5.5 3.5-1.5Q47.57 42.07 61.5 32l4-2Zm348 0 3.5.5-3 4 1.5.5 3-1v1l-1.5.5.5 1.5 8 2 3.5-2.5-.5-1.5-1.5-.5 2.5-.5 2 1 .5-1.5-2.5-3.5 11.5.5-3 4 2.5.5 10-1v1l-7.5.5 18.5 5.5 1-2L475 53.5l-1 6 2 1L462.5 72h-48l-6 3-1-3-3 1-6-1-4.5 2.5-.5 15.5-1.5-.5 1-10-1.5-4.5-4.5 2.5-1.5 5.5-1-2-1 5q-6.98-3.02-5.5-14.5l9.5-11.5 2.5.5.5 5.5 3.5-1.5q1.57-22.43 15.5-32.5l4-2Zm-306 4 1.5.5-1.5.5v-1Zm348 0 1.5.5-1.5.5v-1Zm-324 19 .5 1.5h-1l.5-1.5Zm348 0 .5 1.5h-1l.5-1.5Z"/><path fill="#F7F174" stroke="#F7F174" stroke-width="3" d="m53.5 74 7 10 2-3 3.5.5-1 2 2 1L62.5 96Q51.75 97.75 48 92.5l.5-3.5 5 1 5.5-9.5-5.5-6.5Zm348 0 7 10 2-3 3.5.5-1 2 2 1-4.5 11.5q-10.75 1.75-14.5-3.5l.5-3.5 5 1 5.5-9.5-5.5-6.5Zm-326 6L95 81.5l-1.5.5-14-1-2.5 1.5 6 5 3.5 5.5 1.5-.5-2.5 1.5-7-9-4.5-2.5 1.5-2.5Zm348 0 19.5 1.5-1.5.5-14-1-2.5 1.5 6 5 3.5 5.5 1.5-.5-2.5 1.5-7-9-4.5-2.5 1.5-2.5Zm-351 4 2.5 1.5-1.5-.5-1-1Zm348 0 2.5 1.5-1.5-.5-1-1Z"/><path fill="#F7F174" stroke="#F7F174" stroke-width="3" d="m76.5 86 5.5 4.5 2 5h-1L77.5 87l-1-1Zm348 0 5.5 4.5 2 5h-1l-5.5-8.5-1-1Zm-364 28 11.5 9.5-.5 2.5-11.5-9.5.5-2.5Zm348 0 11.5 9.5-.5 2.5-11.5-9.5.5-2.5Z"/><path fill="#F7F18D" stroke="#F7F18D" stroke-width="3" d="M69.5 30q11.75-2.75 14.5 3.5l-.5 1.5-4-1v1l1.5.5-.5 1.5-8 2-3.5-2.5.5-1.5 1.5-.5-2.5-.5-2 1-.5-1.5 3.5-3.5Zm24 0q27.73-.73 35.5 18.5l2 7-2.5 4.5-2.5-.5 1-6L114.5 39l-1 2L95 35.5l8-1-9.5-.5-3 1-.5-1.5 3.5-3.5Zm14.5 4v1h1l-1-1Zm309.5-4q11.75-2.75 14.5 3.5l-.5 1.5-4-1v1l1.5.5-.5 1.5-8 2-3.5-2.5.5-1.5 1.5-.5-2.5-.5-2 1-.5-1.5 3.5-3.5Zm24 0q27.73-.73 35.5 18.5l2 7-2.5 4.5-2.5-.5 1-6L462.5 39l-1 2-18.5-5.5 8-1-9.5-.5-3 1-.5-1.5 3.5-3.5Zm14.5 4v1h1l-1-1ZM50.5 72l7 2 2.5-1.5 1.5 5.5 40.5.5-10 12-2 14-3.5 3.5-2.5-.5q2.82-16.82-6.5-21.5L65 83.5l1-2-3.5-.5-2 3-7-10-3-2ZM76 80l-2 3 5 2-2-2 3-2 14 1h1l-19-2Zm4 5 3 4v-1l-3-3Zm4 4 2 5h1l-3-5Zm314.5-17 7 2 2.5-1.5 1.5 5.5 40.5.5-10 12-2 14-3.5 3.5-2.5-.5q2.82-16.82-6.5-21.5L413 83.5l1-2-3.5-.5-2 3-7-10-3-2Zm25.5 8-2 3 5 2-2-2 3-2 14 1h1l-19-2Zm4 5 3 4v-1l-3-3Zm4 4 2 5h1l-3-5ZM47.5 73l2 21 3.5 1.5-4.5.5L36 86.5l.5-5.5 1 2 2-6 4-2L45 88.5l-.5 1.5 1.5-.5L47.5 73Zm348 0 2 21 3.5 1.5-4.5.5-12.5-9.5.5-5.5 1 2 2-6 4-2 1.5 13.5-.5 1.5 1.5-.5 1.5-16.5Z"/><path fill="#4D1800" stroke="#4D1800" stroke-width="3" d="M273.5 30q5.75 3.25 2.5 15.5l-2.5 2.5-8.5-8.5 8.5-9.5Zm-2.5 5-3 4 1 3 4 1 1-6-3-2Zm13.5 7 3.5 2.5-2.5 3.5-3.5-2.5 2.5-3.5Zm-5 12q5.75 3.25-1.5 6.5L275.5 87l-2-24-5 3 11-12Zm-31 6q13.27-1.77 17.5 5.5l-1.5.5-13-4-2.5 1.5 11 27v12l-1.5 4.5-.5-18.5-12-26 2.5-2.5Z"/><path fill="#4D1800" stroke="#4D1800" stroke-width="3" d="m251.5 64 18 4 2.5.5q-3.78 16.78 4 22l-1.5-.5-4.5 1.5q-9.86 14.14-6 42l2.5 4.5 8.5-2.5 1.5-4.5 4 1 1.5-.5 1.5 6.5 8-6 4.5 5.5-15.5 3.5-8-3-5.5 2.5.5 1.5-6-1-6 3-3.5-2.5-3.5-13.5-3.5-2.5 1-4-4.5-1.5-1.5.5 4-6-5-14 3.5-6.5 1.5.5 7.5 15.5 5 1 2.5-1.5 3-19L251.5 64Zm-107 15 .5 1.5h-1l.5-1.5Zm348 0 .5 1.5h-1l.5-1.5Z"/><path fill="#4D1800" stroke="#4D1800" stroke-width="3" d="m242.5 84 3.5 2.5 6 20h-1L243.5 90l-2.5 1.5-4 12 5 11-1.5 2.5-5.5-16.5 7.5-16.5Zm64 12 5.5 2.5-6.5 12.5-1.5-2.5 3-9-3.5-.5-13.5 7.5-5 12 2-1 5.5-11.5 11-4 .5 2.5-2 4 3 5q-15.73 1.27-21 13l-1.5 3.5-.5-3.5 1-2-1-4 8.5-18.5 16-6ZM285 119l-1 2h1v-2Zm-1 2-1 3h1v-3Zm-71.5-19q14.63 2.87 20.5 14.5l-3.5 5.5-.5-2.5 1-3-8.5-9.5-8-2-3 12-.5-12.5 2.5-2.5Z"/><path fill="#4D1800" stroke="#4D1800" stroke-width="3" d="m215.5 106 11.5 9.5 1 2-1 5 1 5 1.5 4.5 4.5-1.5-1-4 3 2 1 6-2.5 11.5-12.5-10.5-3.5-7.5-3.5-2.5 1-4-4.5-1.5-1.5.5 5.5-14.5Zm90 9 .5 3.5-5.5 9.5-.5-1.5 5.5-11.5Z"/><path fill="#4D1800" stroke="#4D1800" stroke-width="3" d="m237.5 128 2.5 19.5-5.5 2.5-15.5-12.5-3-8 2 1 10.5 14.5 8 2 1.5-16.5-.5-2.5Zm9 1 6 16 4 1 9-4v1l-11 6q-10.97-4.64-8-20Zm-58 3 9.5 2.5-2.5 3.5-9.5-2.5 2.5-3.5Zm121 6 2.5 5.5-5.5.5-.5-2.5 3.5-3.5Zm-33 2 12 2 5-2v1l-17 3v-4Zm84 56 .5 20.5h-1l.5-20.5Zm-211 12 .5 2.5-2.5 4.5-.5-1.5 2.5-5.5Zm211 14 1.5 4.5-7.5 16.5-.5-1.5 1-7-1-2 3-2-1-2 4.5-6.5Zm-2.5 6-1 2h1v-2Zm-2 4-1 2h1v-2Zm-206.5-7 5 3 .5-1.5-.5-1.5 1.5 2.5-1 13 4 5-2.5-1.5-3.5-2.5-1.5-12.5-4.5-1.5 2.5-2.5Zm-8 9 2.5.5-3.5 5.5-1.5-.5 2.5-5.5Zm14 15 .5 2.5-3.5 6.5-2.5-.5 5.5-8.5Zm174 6-5 6-6 3 1-2 10-7Zm-170 6 5.5 8.5-3.5-2.5-1.5-.5-.5-5.5Zm172 4 10.5 1.5-12.5 1.5 2-3Zm-132 2 5 6 1.5-.5-1.5-2.5 2.5.5 2 4-3-1 1 2-8.5.5-1-2-7.5-3.5 7.5-1.5 2 1 .5-1.5-.5-1.5Zm112 1 2.5 7.5-2 1-.5 1.5-4.5-5.5 4.5-4.5Zm-135 4 1.5.5-1.5.5v-1Zm33 4 .5 1.5h-1l.5-1.5Zm-56 10 8.5 1.5-15.5 7.5-.5-1.5 4.5-6.5 3-1Zm10 2 5.5 2.5-2.5.5-3-3Zm196 2 3.5 2.5 1 2-4.5-4.5Zm-77 2 1.5.5-1.5.5v-1Zm82 7-.5 1.5 2 7-3-2 1.5-6.5Zm-230 1 3.5 2.5-1 11 7.5 1.5 1-6 1.5 2.5-1 6 3 4-2.5-1.5-2 1-1-3-5.5.5-1 3 3 2-5.5.5-2.5-2.5v-19l2.5-2.5Zm177 4 1.5.5-.5 2.5-1-3Zm16 2 1.5.5-2.5 1.5 1-2Zm-3 1 .5 1.5-4 3 3.5-4.5Z"/><path fill="#4D1800" stroke="#4D1800" stroke-width="3" d="m139.5 312 1.5.5-1.5.5v-1Zm223 1 1.5.5-.5 1.5-1-2Zm-1 2 1.5 2.5-2.5 6.5-.5-2.5 1-3-.5-1.5 1.5.5-.5-2.5Zm13 3 3.5 1.5-.5 2.5-4.5 3.5-.5 1.5-.5-6.5 2.5-2.5Zm-15 7 .5 1.5-13.5 25.5.5-1.5 4.5-10.5 1.5-.5v-2l6.5-12.5Zm15 2 1.5.5-1.5.5v-1Zm-234 3 3.5 2.5-1 3 .5 1.5-4-1-1.5.5 2.5-6.5Zm13 0 3.5 1.5-1 2h2l-.5 1.5 1.5.5.5 3.5-6-9Zm13 18 2.5 1.5-1.5.5-1-2Zm2 3 1.5.5-1.5.5v-1Zm1 2 1.5.5-1.5.5v-1Zm176 0-.5 1.5-3.5 5.5 4-7Zm-193 1 3.5 2.5-2.5 3.5-3.5-2.5 2.5-3.5Zm18 1 1.5.5-.5 1.5 1.5.5-2 1-.5-3.5Zm119 0 .5 1.5h-1l.5-1.5Zm-116 4-.5 1.5.5 1.5 1.5-.5-1 2h2l-1 2h2v2l3 5-2-1-6-11 1.5-1.5Zm165 2 2.5.5-16.5 25.5-2.5 1.5-3.5 13.5-.5-4.5 1-7-1-2 4-2 .5-2.5 5.5-2.5 3.5-6.5 1.5-.5-1-2 3-1 1-3-.5-1.5 1.5.5-1-2h2l-1-2h2l-.5-2.5Zm-4.5 11-1 2h1v-2Zm-14 16-1 2h1v-2Zm-139.5-14 6 8 1.5-.5-.5 1.5 8.5 7.5 2 5-1 11 3.5 5.5 6.5 3.5.5 1.5 2-1 1 3 3 1 1.5-.5-.5 1.5 10.5 2.5-6.5.5-19.5-10.5-5-19-13.5-20.5Zm14.5 16-1 2h1v-2Zm2 4-1 2h1v-2Zm118.5 13-.5 1.5-7.5 8.5-2 1 10-11Zm-55 6 1.5.5-1.5.5v-1Zm43 5-1 2-7 2-2.5-1.5 10.5-2.5Zm-83 11 5.5.5-6 2 .5 1.5-2-1-1 3-1.5-.5 1 2h-2l-1 8 2.5 3.5 1.5-.5-1 2h2l-.5 2.5q-7.56-2.94-5.5-15.5l5.5-6.5 2-1Zm71 1 17.5 7.5-2.5-1.5-3 1v-2l-2 1v-2l-2 1-1-2-2 1-2.5-1.5-.5-1.5-2-1Zm-62 1 .5 1.5h-1l.5-1.5Zm4 2 3.5 4.5-4-3 .5-1.5Zm78 9-2 3-1.5-.5 3.5-2.5Zm-10 11-3 4-5 3 4-5 4-2Zm-74 6 3.5 2.5-2.5-1.5-1-1Zm5 2 .5 1.5h-1l.5-1.5Zm2 1 .5 1.5h-1l.5-1.5Zm2 1 5.5 3.5-1.5-.5-4.5-1.5.5-1.5Zm35 0 1.5.5-1.5.5v-1Zm8 0 1.5.5-1.5.5v-1Zm-36 3 2.5 1.5-1.5.5-1-2Z"/><path fill="#F7E938" stroke="#F7E938" stroke-width="3" d="m53.5 40 .5 2.5L44.5 66l-2.5-.5-.5-5.5-5 3 3.5-4.5L53.5 40Zm348 0 .5 2.5-9.5 23.5-2.5-.5-.5-5.5-5 3 3.5-4.5L401.5 40Zm-335 32 46.5.5-10 5-.5 2.5-1-2h-39L60 75.5l6.5-3.5Zm348 0 46.5.5-10 5-.5 2.5-1-2h-39l-2.5-2.5 6.5-3.5Zm-365 1 9.5 7.5-5.5 9.5-5.5-1.5L49.5 73Zm348 0 9.5 7.5-5.5 9.5-5.5-1.5 1.5-15.5Zm-330 11L81 90.5l3 13-1.5-.5-3.5-2.5-6.5-7.5-4-3-2.5 1.5 1.5-7.5Zm348 0 13.5 6.5 3 13-1.5-.5-3.5-2.5-6.5-7.5-4-3-2.5 1.5 1.5-7.5Zm-362 12 8.5.5 1 5 3.5 4.5 16 2h2l5-2 .5 4.5q-4.97 6.03-18.5 3.5l-11-6-.5 2.5 4.5 5.5-4-2-1 2L48 102.5l6-1-.5-5.5Zm348 0 8.5.5 1 5 3.5 4.5 16 2h2l5-2 .5 4.5q-4.97 6.03-18.5 3.5l-11-6-.5 2.5 4.5 5.5-4-2-1 2-11.5-13.5 6-1-.5-5.5Zm-331 25L84 137.5l-2.5.5-11-12 1.5-.5-1.5-4.5Zm348 0 13.5 16.5-2.5.5-11-12 1.5-.5-1.5-4.5Z"/><path fill="#661E07" stroke="#661E07" stroke-width="3" d="m133.5 62 8.5 3.5 2 4 .5 8.5 1.5.5-2 1-3 10L96.5 134l.5-1.5 17-29v-9l-6-10 9-6-.5-1.5 17-15Zm-.5 6-1 3h1v-3Zm8 2-1 2h1v-2Zm-12 2q-6 7-3 23l4 2 8-11-6-13-3-1Zm13 3-1 2h2l-1-2Zm-2 5-1 5h1v-5Zm-26 5-1 4h1v-4Zm10 7-1 2h1v-2Zm-7 2-1 2h1v-2Zm9 2v1h1l-1-1Zm-9 6-1 2h1v-2Zm364.5-40 8.5 3.5 2 4 .5 8.5 1.5.5-2 1-3 10-44.5 44.5.5-1.5 17-29v-9l-6-10 9-6-.5-1.5 17-15Zm-.5 6-1 3h1v-3Zm8 2-1 2h1v-2Zm-12 2q-6 7-3 23l4 2 8-11-6-13-3-1Zm13 3-1 2h2l-1-2Zm-2 5-1 5h1v-5Zm-26 5-1 4h1v-4Zm10 7-1 2h1v-2Zm-7 2-1 2h1v-2Zm9 2v1h1l-1-1Zm-9 6-1 2h1v-2ZM321.5 264l.5 1.5h-1l.5-1.5Zm-5 132 .5 1.5h-1l.5-1.5Zm-117 1 .5 5.5h-1l.5-5.5Z"/><path fill="#B95D0C" stroke="#B95D0C" stroke-width="3" d="m144.5 62 4.5 11.5-2.5 4.5-2.5-.5-2-11 2-1 .5-3.5Zm348 0 4.5 11.5-2.5 4.5-2.5-.5-2-11 2-1 .5-3.5Zm-363 10 2.5.5 5 13-8.5 10.5q-6.25-3.75-2.5-17.5l3.5-6.5Zm348 0 2.5.5 5 13-8.5 10.5q-6.25-3.75-2.5-17.5l3.5-6.5Zm-372 6 9.5.5-4.5 5.5-2.5.5 6 17L90.5 140q2.25-17.25-6.5-23.5l18.5-5.5 8.5-8.5 1-5-7.5-13.5-2.5-.5 3.5-5.5Zm348 0 9.5.5-4.5 5.5-2.5.5 6 17-23.5 38.5q2.25-17.25-6.5-23.5l18.5-5.5 8.5-8.5 1-5-7.5-13.5-2.5-.5 3.5-5.5Zm-418 17L84 141.5l1 2-1.5-.5L34 96.5l1.5-1.5Zm348 0 48.5 46.5 1 2-1.5-.5L382 96.5l1.5-1.5Z"/><path fill="#150505" stroke="#150505" stroke-width="3" d="m270.5 28 7.5 1.5 2.5 10.5 6-1 3.5 2.5-1.5 8.5-5.5 1.5 1 8q-8.55 9.45-4 32l1.5 21.5 6-13 23-7 2.5 1.5 1 7-4 7-5 28 1.5-.5 7.5 1.5 1 6 .5 2.5 33.5 18.5 3.5 4.5 6.5 5.5 9 29-1 2 7 5 1 18-4 9 9 3-2.5 7.5-7.5-2.5-.5-5.5-19.5 10.5 6 12-5.5 6.5-7 4-23.5 2.5 1 6 1.5 3.5 4 1 10-2 4 8q5.29-8.21 19-8l8.5 4.5 2.5 28.5 6.5-3.5-1-7 4.5-2.5-1.5 2.5-1 3 2 4-1.5 3.5-7.5 3.5-7 25 2 4-1.5.5-3-8-2.5 1.5q-12.87 12.13-16 34-18.88 17.12-29.5 42.5l-8.5 4.5.5 3.5 8.5 4.5 2 10-3.5 6.5-.5-2.5 2-9-4.5-5.5-3-1-1.5.5.5-1.5-2 1-1-3-1.5.5 3-6-.5-1.5 2 1 5.5-3.5 4.5-5.5 2.5-1.5 6-13-1-2 2.5-3.5 1.5-.5-.5-1.5 1.5.5-1-2 12.5-13.5 1.5.5-1-2 3-8-.5-1.5 1.5.5-1-2 2-1-.5-1.5 1.5-.5-.5-1.5 1.5.5 4-9-.5-1.5 2.5-.5 2-3 2-4 .5-1.5 1.5.5-1-2 1.5-2.5 1.5-.5 5-15-1-2 2-1 1-14-1-2 1-7-5.5-7.5-10-1-13 8-3-8-4-1-7 4-7-2-5 1-5-2-8 2-2.5-5.5 2-1-2.5-5.5-3.5.5-.5 1.5-8.5 3.5-1.5 6.5-3 1-1.5-12.5 1.5-11.5.5 12.5-1 7 2.5 1.5 4-8 6.5-2.5.5-1.5 8.5 2.5 1 2-2 6 3.5 1.5 5.5-2.5-6-11 9.5-12.5 19-12 9-1 3 1 .5-2.5-19.5-.5q-8.67 8.83-29 6v-1q20.33 2.83 29-6h19l9 4 4.5-2.5.5-2.5 10.5-9.5.5-1.5 1.5.5-1-2q5.57-3.93 3-16l-3.5-4.5-4.5-2.5-1-4 2-3-2-4q.68-18.68-10.5-25.5l-3.5-2.5-6.5-7.5-29-15-10.5-1.5-1.5-3.5q-7.75 7.25-23 7l-8-4-19 8-8.5-7.5-2 6 11 6-1.5.5-13.5-6.5 1.5-2.5 1.5-.5 2-12-2-4h3l-1 3 2.5 5.5 1.5-.5-1 2h2l-1 2 3 1 1.5 3.5 3 1 2-1 2 1 16-7 10 4 5.5-1.5-.5-1.5 2 1v-2l1.5.5.5-1.5h2l7.5-3.5 8-36-2.5-6.5-4.5.5.5 1.5-2-1-12.5 5.5-1.5 2.5-1.5.5-5 13 .5 1.5-2.5-2.5-2-51 3-6h-2l3-4-2.5-1.5-7 5-9 4v-2l-3-1-1.5.5.5-1.5-7-1-4.5 1.5-1.5 2.5-1.5.5.5 5.5 1.5-.5-1 2 10 20v12h-3l-.5-1.5-1.5.5 1-2-5.5-12.5-4-2-3.5 2.5-5 13v2l1 2-1 2h2l-1 2 3 10-2.5 6.5-3.5-5.5 1-2-9.5-11.5-2.5-.5.5-1.5-3-1-1.5.5.5-1.5-5.5.5-1.5 2.5-1.5.5-2 20 2.5 3.5 5.5 3.5.5 2.5 1.5-.5-1 2h2l-1 2 3 1 2 4 .5 1.5 4 3 2.5.5-.5 1.5 3 1 1.5-.5-6.5 1.5-14-4-9 4v-1l16-4 2 1-.5-1.5-9.5-15.5-5.5-3.5q-2.29-17.29 3.5-26.5l9-1 14 11 .5-2.5-2-7 8.5-18.5 5-1 3.5 2.5 4.5 11.5 1.5-.5-11-26v-7l2.5-3.5 11-2 11 4 13.5-9.5-.5-1.5-10 1-8.5-11.5 8.5-10.5Zm3.5 2-3 1-3 2-1 2v2l-2 3 1 3 1 2h2l5 3 4-5-4-13Zm11 12-3 4 4 2 2-3-3-3Zm25 96-4 4 1 2h5l-1-5-1-1Zm65 102-3 4 4 2 2-3-3-3Zm-38 8-14 9v2l-1-1-8 4-6 7 1 2-2 3 1 3 2 4 4 2 5-2-1-7 24-3v-1l3-2 2 1v-1l3-1 3-9-3-5-13-5Zm30 76-3 6 1 5 3-10-1-1ZM149.5 74l.5 9.5L86.5 150l-4.5-5.5 12-7 1.5-3.5L141 90.5l8.5-16.5Zm348 0 .5 9.5-63.5 66.5-4.5-5.5 12-7 1.5-3.5L489 90.5l8.5-16.5Zm-307 54 9.5 3.5-1.5 8.5-8 2-6.5-3.5 1.5-8.5 5-2Zm-1.5 3-3 4 2 4h8l2-3-2-4-7-1Z"/><path fill="#150505" stroke="#150505" stroke-width="3" d="m298.5 145 4.5.5-4.5.5v-1Zm-4 1 2.5.5-9.5 4.5v-1l7-4Zm-104 5 9.5.5-20.5 5.5v-1l11-5Zm90 0 3.5.5-3.5.5v-1Zm-3 1 1.5.5-9.5 4.5v-1l8-4Zm-103 5 3.5.5-7 4-1.5 5.5-.5-3.5 3.5-5.5 2-1Zm-6 11 .5 1.5-5.5 7.5-5.5 4.5-15 33-2 18h2l-4 3-1 2-1 3-1.5 4.5-.5-6.5 17-50 10.5-13.5 4.5-3.5 1.5-3.5Zm214 21 .5 1.5-2 5 2.5 4.5 2.5 1.5-2.5.5q-5.25-1.75-3.5-10.5l2.5-2.5Zm-203 56 1.5.5-2 1 .5 1.5 31.5 21.5 3 9-2 8 6.5 2.5 3-10 8.5 1.5 1 6-1 3 3.5.5q6.07-7.43 2.5-24.5l-4.5-6.5-9.5-7.5 1.5-.5 11.5 9.5 2 27-2.5 3.5-14 1-13.5-6.5 5-9-3.5-5.5-5.5-4.5-5.5-6.5-21.5-12.5 3.5-2.5Zm43.5 36-2 2 3 6 5-2-1-5-5-1Z"/><path fill="#150505" stroke="#150505" stroke-width="3" d="M185.5 245q11.42 8.58 34.5 5.5l-23.5.5-11-6Zm-27 5 3.5.5-.5 1.5-4.5 3.5-.5 1.5-1.5-3.5h2l1.5-3.5Zm134 1 2.5.5-8 5-5.5 7.5-.5-2.5 6.5-7.5 5-3Zm-157 2 1.5 27.5 6 9-3.5 13.5-2.5-1.5-3-4 1.5-.5 4 1 .5-6.5-5-9 .5-29.5Zm19 18 19 4 3 1 3-2 2 1 8-1 5.5 3.5 3.5 4.5 7.5 3.5-5.5 3.5.5-1.5-1.5-3.5-5.5-3.5-4.5-5.5-15 3-19-5-2.5 3.5 23.5 11.5 8-4 4.5 2.5-.5 2.5-6-3-3.5 2.5-1.5 2.5-4.5-.5-1.5-2.5-12-5h-2l-1.5-.5-.5-1.5-4.5-3.5 3.5-6.5Zm230 9 1.5.5-3 9 3 6-1.5.5-3.5-11.5 3.5-4.5Zm-254 6 3.5 2.5-1.5 6.5-1.5-.5 1-4-1.5-4.5Z"/><path fill="#150505" stroke="#150505" stroke-width="3" d="m190.5 289 2.5.5-2.5.5v-1Zm96 0 4.5 3.5-1.5.5-3-4Zm42 7 6.5 1.5-2.5 3.5-5 2-.5-3.5 1.5-3.5Zm1.5 2v3l2-1v-1l-2-1Zm-187.5 28 5 2 1.5-.5-.5 1.5 1.5.5-.5 1.5 1.5.5-.5 1.5 2.5 1.5 4 5 4 6 6.5 14.5 1.5.5 14 23-1 2 3 1-1 3h2l-1 5 19 37-1 14-.5 2.5-2.5-17.5-16-31-2-11q-15.45-14.05-20-39L149.5 336l-4 9-.5-1.5 2-8-2.5-3.5-1.5-.5-.5-5.5ZM203 430l-1 2h1v-2Z"/><path fill="#150505" stroke="#150505" stroke-width="3" d="m153.5 351 4.5 2.5-1.5 8.5-1.5-.5 1-6-2.5-4.5Zm6 13 4.5 2.5 12 20 1 19-3.5 4.5-3.5-.5.5-1.5 3.5-2.5 1-14-13-19 1-2-3.5-6.5Zm4.5 8-1 2h1v-2Zm112.5-8 .5 1.5q-8.26 7.24-25.5 5.5l-11-4-.5 1.5 6.5 7.5 11 4 11-1v1l-15 1-13.5-9.5-1-5 2.5-.5q7.29 5.71 22 4l13-6Zm0 4 .5 2.5-5.5 8.5-1.5-.5 2-1 4.5-9.5Zm-26 25 8 2 3 1 13-2v1l-15 3-4-3-22.5-.5 17.5-1.5Zm-32 2 9 2 4-2-3 4-10-2-3.5 5.5 12.5 4.5q7.67-6.83 25-4l9 2 5-1v1l-9 1-22-2-9 5-13.5-6.5 3.5-6.5 2-1Zm58 0 12 4 10-3 2.5 5.5-12.5 6.5q-6.15-6.35-20.5-4.5l14.5-.5 10 3 6.5-5.5-1.5-3.5-16 3-5-5Zm-110 4 1.5 2.5h-1l-.5-2.5Zm118 20 4.5 2.5 1 4-2 1-.5 1.5-14 5 1-2 11.5-4.5 1-3-4.5-1.5-5 2v-1l7-4Zm-52 4 43.5 1.5-44 1 2.5 3.5 6.5 3.5-2.5.5-4-2-1.5.5-.5-2.5-1.5-.5-1-3 2.5-2.5Zm12 10 5.5.5-5.5.5v-1Zm-34 17 2.5 1.5-.5 1.5 2-1v2l7 6 1.5-.5 1.5 2.5 3 1 1.5-.5-.5 1.5 2-1v2l2-1v2l2-1v2q7.29 5.71 22 4l13-5 3 1h2l4 1 1-2 2 1 17.5-6.5 2.5-3.5 5-3 2-1-.5 1.5-5.5 6.5-30 9-6-2-18 5q-23.72-5.28-38.5-19.5l.5-1.5 1.5-.5-1.5-1.5Z"/><path fill="#A56909" stroke="#A56909" stroke-width="3" d="m115.5 78 .5 1.5-3 2 2.5-3.5Zm348 0 .5 1.5-3 2 2.5-3.5Zm-326 5 .5 1.5h-1l.5-1.5Zm348 0 .5 1.5h-1l.5-1.5Zm-213 7 3.5 2.5v40l-3.5 4.5-5 1-3.5-5.5v-25l8.5-17.5Zm27 24 5.5 1.5-7.5 22.5-5-6-8 6-2.5-6.5 13.5-15.5 4-2Zm-87 6 3.5 2.5-2.5 3.5-3.5-2.5 2.5-3.5Zm30 0 3.5 2.5-2.5 3.5-3.5-2.5 2.5-3.5Zm-12 6 3.5 2.5-2.5 3.5-3.5-2.5 2.5-3.5Zm-15 25 10.5 4.5-3.5.5-7-5Zm133 21 10.5 13.5-10.5 2.5-1.5-14.5 1.5-1.5Zm-23 2 4.5 1.5v35l6 11q-3.75 14.25 3 18l-16.5 1.5-.5-1.5 2.5-12.5 5 1 .5-4.5-4.5-1.5-1.5.5 1.5-48.5Zm-158 4-.5 3.5-5 10 8 5q7.45 7.55 4 26l-9.5 17.5-2 1q1.67-17.17-6.5-24.5v-24l11.5-14.5Zm14 14 4.5 1.5-1.5 4.5-4.5-1.5 1.5-4.5Zm205 0 3.5 2.5-2.5 3.5-3.5-2.5 2.5-3.5Zm-38 7q7.73 6.77 5.5 23.5l-5.5 10.5v-34Zm-114 47 5.5 1.5-.5 4.5-5.5-3.5.5-2.5Zm48 5-4.5 7.5-1.5 3.5-.5-6.5 6.5-4.5Zm-114 1 2.5.5-3 6 3.5 4.5 14 1 .5-2.5-5.5-6.5q4.8 9.7 17.5 11.5l-2.5 3.5q-26.48 4.98-33.5-9.5l.5-5.5 6-3Zm168 0-.5 1.5 1.5 4.5 4.5-.5-1-5 1.5.5 5.5 2.5-1.5 6.5-5 2-7.5-4.5-.5-1.5-3.5-.5.5-2.5 6-3Zm-97 5 6.5 2.5-.5 9.5-7.5-10.5 1.5-1.5Zm6 14 .5 15.5h-1l-2.5-4.5-2.5-1.5 1.5-4.5 2.5-1.5 1.5-3.5Zm30 0 .5 5.5-5.5 10.5-.5-5.5 5.5-10.5Zm57 17 3.5 2.5-2.5 3.5-3.5-2.5 2.5-3.5Zm-87 1 .5 14.5-8.5 2.5-3.5-6.5 1.5.5 2.5-.5.5-1.5 2.5-1.5.5-1.5 1.5-.5 2.5-5.5Z"/><path fill="#A56909" stroke="#A56909" stroke-width="3" d="m270.5 289 6 9 3 2 1-2q3.56-6.44 16-4l-2 3-11.5 6.5-1 15 6 11q-2.84 13.34 3.5 17.5l12.5 8.5 5.5 10.5q14.99 1.99 18.5-7.5l20-34 6-19-3.5-4.5-3-1q-6.7 10.3-22 12v-1l7.5-4.5-.5-1.5 18-11q9.6 4.4 9.5 18.5l-26 52-19.5 19.5-16-28-14.5-9.5-3.5-22.5-4.5 1.5-.5 13.5-5.5-8.5.5-41.5Zm-115 5 5.5.5-9 7-1.5 3.5-.5-5.5 3.5-4.5 2-1Zm53 0 7.5 3.5-1.5 6.5-3.5 1.5 4 1-4.5 2.5-1-3-4.5-1.5-3-4 8-1-1.5-5.5Z"/><path fill="#A56909" stroke="#A56909" stroke-width="3" d="m299.5 294 6.5 3.5 2 14-1.5.5-6.5-3.5-.5-14.5Zm-115 11 12.5 6.5-5.5.5-8.5-5.5 1.5-1.5Zm-34 2q13.47 34.03 37 58l19.5 12.5 4 12-1.5.5-23-15-1 2-17-32-1 2-11-20-1 2q-7.9-6.77-5-22Zm87 23 8.5 2.5-.5 4.5-4-1-3 5-1.5.5 2 1-14 11-2.5 5.5-1.5-4.5 16.5-24.5Zm-97 6 3.5 2.5-2.5 3.5-3.5-2.5 2.5-3.5Zm105 5 .5 3.5-7.5 3.5 5-6 2-1Zm28 14 2.5.5 1.5 2.5 3 1 1.5-.5-22.5 7.5v-1l14-10Zm-60 5 7.5.5-8 5-2.5 5.5-.5-5.5 3.5-5.5Zm82 12 8.5 1.5 3 6-1.5 1.5-7-7-3-2Zm-14 1 .5 5.5-3.5 4.5-6 1v-1l3-1 1.5.5 4.5-9.5Zm-36 10 6.5 2.5-1.5 4.5-5.5-.5 1-3-.5-3.5Zm-28 1 4.5 1.5 1 4-7.5.5.5-1.5 1.5-4.5Zm42 0 5.5.5-1 4 .5 1.5-6.5-1.5 1.5-4.5Zm28 0 23 6 1.5-.5-1.5 6.5-4.5-1.5-1.5-2.5-11-2-9 6-3-4-3.5-1.5 4-1 1.5-3.5 4-2Zm-76 24 5.5.5-1 4 5.5 1.5 1-2 5.5 3.5-1.5 4.5q-10.75-.25-14.5-7.5l-.5-4.5Zm37 0 9.5 3.5 1 2-1.5-.5-9-5Zm51 0h2l3.5.5-2.5 4.5-5 1 .5-1.5 1.5-4.5Zm-65 3 8 9-8.5-3.5.5-5.5Zm47 2 .5 3.5-7.5 3.5 1.5-2.5 2.5-3.5 3-1Zm-56 19 2.5 1.5 1.5 2.5 3.5 1.5-11 2q.25 10.75 7.5 14.5l16 8h7l16-10q3.4 5.6 14 4l9.5-7.5 2-7q-4.85-5.65-17-4l5-3 1.5-2.5 4.5 1.5 1.5 2.5 15.5 5.5 1 5-30.5 15.5-5.5-3.5-1.5-2.5-2.5.5-.5 1.5-13.5 7.5-1.5 2.5-4.5-1.5-1.5-2.5-22.5-11.5-3.5-8.5-1.5-.5 8.5-11.5Z"/><path fill="#E5CB5A" stroke="#E5CB5A" stroke-width="3" d="M302.5 150q14.05-1.55 19.5 5.5l2 4v9l-12 17v37l-3.5 4.5-7.5 4.5-4.5 7.5-13 1-4-5-4.5 3.5-.5 1.5q-8.75 1.75-10.5-3.5l-1.5-2.5-15 12-4-6-3.5-2.5-2.5-3.5-3.5-1.5-3.5-9.5-3-1-5.5 4.5-1.5 7.5-2.5.5-1 3 1.5 2.5 3.5.5-3.5 5.5q-21.44 3.44-30.5-5.5l-1-3 .5-1.5 20.5-4.5 2-39-3.5-5.5-26.5-13.5-2.5-5.5-3 5-.5-8.5 18.5-8.5q15 2 22-4l5.5 3.5q-14.54-1.54-19 7l-2 7 1.5 2.5 27.5 11.5q7.8 8.2 6 26l14.5 17.5 6.5-5.5 3.5-18.5 4 1 1.5-.5 2.5 16.5 5 1 2.5-1.5 4.5-26.5 1.5.5 2 16 8.5 11.5 8.5-7.5-10-13 23-33v-14l-3.5-2.5-8 5-.5-3.5 2.5-2.5ZM199 240l-1 3 4 2 2-4-5-1Z"/><path fill="#E5CB5A" stroke="#E5CB5A" stroke-width="3" d="m260.5 187 3.5 2.5-.5 9.5-4-1-1.5.5 2.5-11.5Zm-96 53 9.5.5-.5 2.5-9 3-2.5-3.5 2.5-2.5Zm153 0 .5 2.5-7.5 3.5 3-4 4-2Zm-68 30 20.5 6.5v36l-6 17 5.5 9.5 1-2 5 8 1.5-.5 4 8-7.5-4.5-3.5.5q2 9.5-3.5 11.5l-9.5-.5q8.66-5.34 7-21l-5-11 1.5-3.5 3.5-1.5q4.47-23.47-6.5-31.5l-8-3-3 5-.5-17.5 3.5-5.5Zm41 12 3.5 2.5-2.5 3.5-3.5-2.5 2.5-3.5Zm-102 12 4.5.5-1 4 .5 1.5-6.5-2.5 2.5-3.5Zm9 0q10.25-2.25 12.5 3.5l-.5 2.5-11.5-2.5-.5-3.5Zm-34 6 3.5.5 2.5 3.5q12.25 11.75 39.5 8.5-7.07 7.43-23 6l6.5 8.5 7 2 14.5-7.5 2-9-5-1 8-5-.5-1.5 9-4 1 5 3.5 1.5 2 4-4 2-8 16-2 17-13.5 13.5-2.5-.5-4.5-7.5-19.5-6.5-2.5-13.5-9.5-3.5-3.5-10.5-2.5-1.5 1.5-16.5Z"/><path fill="#E5CB5A" stroke="#E5CB5A" stroke-width="3" d="m248.5 306 3.5.5v36l-2.5 5.5-3 2-.5-41.5 2.5-2.5Zm41 0h7l22 12 17-6 .5 12.5-20.5 22.5-6.5-5.5-3-12-7.5-9.5-10.5-3.5 1.5-10.5Zm-53 42 8.5.5-8.5 5.5-2.5-3.5 2.5-2.5Zm-11 18 8.5 3.5q-1.69 14.19 6 19l-2.5 1.5-4-5-17.5-1.5q-2-15.5 9.5-17.5Zm60 0 8.5 3.5-.5 2.5-9.5 1.5-1.5 3.5-.5-7.5 3.5-3.5Zm-12 42 2.5 8.5-9.5 3.5q-5.14-3 0-6l-1.5-.5 8.5-5.5Zm-27 1 9.5 4.5-.5 6.5-9.5-3.5.5-7.5Zm21 29 9.5.5-1 3 6 3-3.5 5.5-8.5-2.5-2.5-9.5Zm-23 5 19.5 1.5-2.5 5.5q-11.44-1.94-15.5 3.5l-.5 2.5-15.5-7.5-2-4 16.5-1.5Z"/><path fill="#EADB7C" stroke="#EADB7C" stroke-width="3" d="m300.5 150 1.5.5-2 5 2.5.5 7-5q6 3.5 2.5 16.5l-23 34 10 12-8.5 7.5-8.5-11.5-2.5-16.5-1.5.5-4.5 26.5-5 1-2.5-1.5-2-30-2.5-2.5-3.5 2.5q5.53 28.53-8.5 37.5L237 215.5l-3-18-6.5-14.5-27.5-11.5-1-5 6.5-8.5 7-2 2 3 4.5.5-3 2-3 8 2.5 3.5 30 18h7q1.25-7.25 11-6l9 5 23.5-10.5 3-12-6-8 1-3-4-1 10.5-5.5Z"/><path fill="#EADB7C" stroke="#EADB7C" stroke-width="3" d="M231.5 156q13.37-1.38 18.5 5.5l-10.5 1.5-2.5-1.5-.5-1.5-5-4Zm51 0 2.5.5-12.5 5.5v-1l10-5Zm-58 4 2.5.5-2.5.5v-1Zm18 3 1.5.5-1.5.5v-1Zm10 3 1.5.5-1.5.5v-1Zm16 0 1.5.5-1.5.5v-1Zm-70 74 5.5.5-2.5 4.5-3.5-2.5.5-2.5Zm51 48 11.5 6.5q6.67 8.83 3 28l-4 2-1 8q7.05 2.95 5 15l-5.5 8.5-1-2-5.5 2.5 2.5 3.5-5.5-.5-3-9 3-2-2 3 4 3 1-6-2-1 2.5-26.5 3 1 .5-1.5-1.5-7.5-2.5 1.5-.5-8.5-5 2-.5-14.5 3.5-5.5Zm3.5 62-1 5h3l1-4-3-1Zm-59.5-56 4.5 1.5 2 4-6.5.5-1.5-4.5 1.5-1.5Zm121 0 9.5 2.5-2.5 3.5-9.5-2.5 2.5-3.5Zm-105 18 6.5.5-2.5 9.5-17 7-10.5-8.5.5-2.5q16.62 2.12 23-6Zm40 126q16.25-4.25 20.5 3.5l2 8-9.5.5 1.5-2.5-.5-3.5-9-5-8 5-.5-2.5 3.5-3.5Z"/><path fill="#EAE48D" stroke="#EAE48D" stroke-width="3" d="M213.5 156q17.48-3.48 23.5 4.5l.5 1.5 3 1 36-1q3.9-7.6 17-6l.5 2.5 1 3 4 12-6.5 9.5-24 7-10-5q-1.75 7.75-13 6L214 171.5l-1-2 4.5-9.5 1.5-.5-5-1-.5-2.5Zm11.5 4v1h2l-2-1Zm18 3v1h1l-1-1Zm10 3v1h1l-1-1Zm16 0v1h1l-1-1Zm-13.5 146-.5 1.5 1 8-2.5.5-1.5-6.5 3.5-3.5Zm-6 36 2.5.5-1 6h1l.5-4.5 3.5.5-1 4 1.5.5 1.5-.5-2.5 5.5-8.5-9.5 2.5-2.5Zm3.5 7v1h2l-2-1Zm1.5 84 5.5 4.5-12.5.5v-1l7-4Z"/><path fill="#D2B42E" stroke="#D2B42E" stroke-width="3" d="m321.5 156 23.5 12.5 3 8-3.5-2.5q-12.83 1.33-18-5l-2.5 4.5v63l-3 3 .5 1.5-3 1-1-2-8 6q-20.68-2.68-30 6l2.5-3.5-1.5-8.5-3.5.5-1 27-5.5 6.5-7 2-14-6-3 5-.5-26.5-8.5-8.5-3.5-2.5-2.5-3.5-1.5-.5-1.5-2.5-5-3-1.5.5 3.5-5.5 3-1 3.5 2.5 2.5 8.5 5.5 3.5 2.5 3.5 3.5 2.5 1.5 3.5 13-12-2.5 3.5.5 2.5 5.5-.5.5-2.5 10 3 4-5 4.5 3.5.5 1.5q11.91 2.41 15.5-3.5l4.5-7.5 7.5-4.5 1-39 12-17v-9l-2.5-3.5ZM261 253l-2 4 1 6h2l1-3-1-6-1-1Zm-83.5-85 3 6 27.5 14.5 2 39-3.5 5.5-19.5 3.5 2 3-14.5 2.5-1-2-4.5-.5 3.5-2.5h2l11.5-5.5v-15l6-19-6.5-9.5-2-1-4 11-3.5-2.5-2-22 3.5-5.5Z"/><path fill="#D2B42E" stroke="#D2B42E" stroke-width="3" d="m259.5 198 4.5 1.5-1.5 4.5-4.5-1.5 1.5-4.5Zm-38 35 .5 4.5-3.5 2.5-1.5-3.5 1.5-2.5 3-1Zm7 13 5.5 2.5 5 8-1.5-.5-9.5-7.5.5-2.5Zm12 7 2.5 4.5-2.5.5v-5Zm-76 41 6.5 5.5 4.5 5.5 1.5.5-2.5 1.5-7.5-5.5-.5-1.5-4.5 1.5-.5 11.5-3.5-2.5-1-6 7.5-10.5Zm66 6 3.5 10.5h-1l-2.5-4.5-2.5-.5 2.5-5.5Zm54 6 4.5.5-1 10 16 9q.55 15.45 10.5 21.5l19.5-18.5 4.5-16.5 9.5.5-1.5 4.5-2.5 1.5-26.5 38.5-8 3-6-11-9.5-4.5q.38-18.88-9.5-27.5l-2.5-1.5 2.5-9.5Zm-53 6q6.5 4 2.5 18.5L218.5 354l-8.5 3.5-3.5 8.5q-13.63 1.62-17.5-6.5l-6-11 9.5-.5 10.5 7.5 1.5 4.5 15.5-13.5 2-17 9.5-17.5Z"/><path fill="#D2B42E" stroke="#D2B42E" stroke-width="3" d="m307.5 312 21.5.5-11.5 5.5-10-6Zm-38 1 1.5 23.5-1.5 2.5-5.5-15.5 5.5-10.5Zm-107 4 3.5 2.5 2 5-1.5-.5-2.5-.5-1.5-6.5Zm6 12 9.5 3.5 2 12-4-3-7.5-12.5Zm102 19 8.5 5.5-8.5 2.5v-8Zm-22 11 17.5 1.5-11.5 5.5-6-7Zm-17 1 2.5.5-.5 8.5-7.5-3.5 5.5-5.5Zm52 1 11.5 7.5 1 3-2 1 6 3-.5 2.5-15.5 1.5-1.5 3.5-.5-5.5 3.5-5.5 8.5-.5-3.5-5.5-8 3-.5-6.5 1.5-1.5Zm-49 13 6 8 3.5 1.5-.5 6.5-4.5-.5 1-2-5.5-13.5Zm-5 10 4.5 1.5 3 4-9.5.5.5-1.5 1.5-4.5Zm52 0 .5 5.5-4.5.5-1.5-2.5 5.5-3.5Zm-40 24 5.5.5-1 8 2.5 3.5-4-5-1.5-.5-.5-1.5-2.5-1.5 1.5-3.5Zm29 0 2.5.5-8 5 2 1-3 2 .5-5.5 6-3Zm-43 30 11.5 5.5-5.5.5-5.5-3.5-.5-2.5Zm10 0 10.5.5-2.5 4.5-4 1-4-6Zm44 9 .5 6.5-5.5 2.5-9.5-4.5 14.5-4.5Zm-51 2 14.5 6.5-4.5.5-10-7Zm21 1 7.5.5-2.5 3.5-8 2q-5-2.5 0-5l3-1Z"/><path fill="#C2A01C" stroke="#C2A01C" stroke-width="3" d="m213.5 151 2.5 1.5-1.5-.5-1-1Zm113 18 21.5 8.5v59l-3.5 3.5-8.5-3.5q2.65-18.65-6-26l-1.5-36.5-4 1-.5-1.5 2.5-4.5Zm-153 1q-3.68 19.18 4 27l2 1h2l4.5-1.5-1.5-4.5-4 1-.5-1.5 3.5-4.5 6.5 5.5 2 12-6 12q3.75 13.75-2.5 17.5l-10 4h-2l-6 2 .5-1.5q11.17-10.33 8-35l-8.5-11.5-3.5-.5 11.5-21.5Zm50 58 6.5 4.5.5 1.5 3.5 2.5 2.5 3.5 9.5 8.5-.5 10.5-3.5-2.5-1.5-3.5-1 4-5.5-7.5 3.5 2.5 2.5-.5-1.5-5.5-4.5.5-.5 1.5-5-2-1 2-7.5-2.5 2-5-2-1 3.5-11.5Zm38 6 2.5 5.5-5.5.5-.5-2.5 3.5-3.5Zm16 6 3.5.5 1 8-2.5 3.5 1.5.5-4.5 2.5-.5-12.5 1.5-2.5Zm-106 12 14.5 9.5-.5 2.5q-12.63 2.63-16.5-3.5l-1-5 3.5-3.5Zm166 0 4.5 1.5-.5 4.5-5.5-1.5 1.5-4.5Zm-77 1 1.5.5 1 6-1.5 3.5-1.5-.5-1-6 1.5-3.5Zm15 15 .5 2.5-5.5 10.5-1-5-1.5-.5 4-3 3.5-4.5Zm-114 26 2.5.5-7 13 2.5 4.5 2.5 1.5 2.5 10.5 3.5 1.5v6l13.5 16.5 4.5 3.5 6.5 11.5 14 3 7-12 6.5-1.5 14-22v-16l-1.5-2.5 1.5-.5-3.5-11.5-4.5-.5 6.5-4.5 5 11 8-2 .5 27.5-2.5-1.5-7.5 1.5-17.5 28.5-6.5 1.5-2 15 3.5.5 2-1 1.5 8.5-2.5 5.5-4.5-1.5-4.5-12.5-19.5-12.5q-22.97-24.03-36-58l7.5-9.5 4-2Z"/><path fill="#C2A01C" stroke="#C2A01C" stroke-width="3" d="m166.5 294 17.5 11.5 1.5 3.5 5.5 2.5-4.5.5-10.5-5.5.5-1.5-5.5-4.5-4.5-6.5Zm131 0 2.5 1.5-.5 12.5-15-2-2.5 1.5 3.5-6.5 12-7Zm50 6 5.5 3.5 1 3-14 34-17.5 23.5-13 2-11-16-9.5-5.5q.93-18.43-7-28l1.5.5 1.5.5q8.99 10.51 10.5 28.5l9.5 4.5 4.5 9.5 11.5-6.5 24.5-36.5 2.5-1.5-.5-3.5-11 2-1-2-4.5-.5 16.5-11.5Zm-132 3 1 3 1.5-.5-2.5 3.5-9 3v-1l8.5-4.5-4-1 4.5-2.5Zm159 27 3.5 2.5-2.5 9.5-3.5-2.5 2.5-9.5Zm-104 1 6.5 12.5-1.5.5-5-13Zm-25 14 .5 2.5-4.5.5v-1l4-2Zm-1 4 1.5.5q-1.33 13.33 8 16l-1.5.5-14-6-4 2-1-2-1.5-.5 2.5-6.5 4 1 2-3 4-2Zm30 5 7.5.5-1.5 4.5-4.5-2.5-.5-1.5-1-1Zm10 6 6.5.5 4 7-1.5.5-9-8Zm16 16 6.5 4.5 4 9-5.5.5q-4.76-7.24-18-6l-5 3-1-3-5.5 3.5 1 2-11.5.5-1.5-4.5 17-5 .5-1.5 1 4 3-5 14.5-.5.5-1.5Zm-79 8 7.5.5-2.5 5.5-4.5-1.5-.5-4.5Zm-4 24 4.5 2.5-.5 3.5-5.5-1.5 1.5-4.5Zm19 0 4.5.5-1 3 3 2 .5 1.5 1.5.5 3 4-4.5.5-9.5-9.5 2.5-2.5Zm39 0 6.5 2.5-1.5 3.5-4 2-1-8Zm23 1 .5 1.5-2.5 3.5-2.5-.5.5-2.5 4-2Zm-41 4 5 1 1.5-.5 1 6-7.5.5.5-1.5-2-4 1.5-1.5Zm-34 25 4.5 1.5 1.5 2.5 3.5 1.5-5 1 4.5 7.5 13 4 1-2 5 2 6.5-3.5 1.5-2.5 9.5.5-16.5 11.5h-7L224 448.5l-2-9 1.5-1.5Z"/><path fill="#C2A01C" stroke="#C2A01C" stroke-width="3" d="M229.5 438q8.75-1.75 10.5 3.5l1 2-1.5.5-10-6Zm49 0q11.44-1.94 15.5 3.5l-7.5 12.5-6 2 1.5-2.5-.5-9.5-5.5-3.5 2.5-2.5Zm-5 16 2.5 1.5-1.5.5-1-2Z"/><path fill="#6D2E01" stroke="#6D2E01" stroke-width="3" d="m133.5 67-.5 1.5 3 5-4-3 1.5-3.5Zm348 0-.5 1.5 3 5-4-3 1.5-3.5Zm-341 3 .5 1.5h-1l.5-1.5Zm348 0 .5 1.5h-1l.5-1.5Zm-347 5 1 2-1.5-.5.5-1.5Zm348 0 1 2-1.5-.5.5-1.5Zm-350 5 .5 4.5h-1l.5-4.5Zm348 0 .5 4.5h-1l.5-4.5Zm-370 1-3.5 4.5-.5 3.5-.5-3.5 4.5-4.5Zm348 0-3.5 4.5-.5 3.5-.5-3.5 4.5-4.5Zm-330 8v3l-3.5 1.5-.5 2.5-1.5-.5-.5 1.5-.5-1.5 6.5-6.5Zm348 0v3l-3.5 1.5-.5 2.5-1.5-.5-.5 1.5-.5-1.5 6.5-6.5Zm-360 3 .5 1.5h-1l.5-1.5Zm348 0 .5 1.5h-1l.5-1.5Zm-355 2 .5 1.5h-1l.5-1.5Zm348 0 .5 1.5h-1l.5-1.5Zm-340 1 2.5 1.5-1.5.5-1-2Zm348 0 2.5 1.5-1.5.5-1-2Zm-356 7 .5 1.5h-1l.5-1.5Zm348 0 .5 1.5h-1l.5-1.5Zm-368 29 .5 1.5h-1l.5-1.5Zm348 0 .5 1.5h-1l.5-1.5Zm-229 19 1.5.5-1.5.5v-1Zm135 36 9.5.5v38l-6 8-2.5 13.5-3.5-2.5-.5-3.5-1.5-.5 8-17v-13q-7.76-5.74-6-21l2.5-2.5Zm-195 7 .5 23.5q8.91 9.09 7 29l-3.5.5-3.5-3.5q3.5-15.5-3.5-20.5l-3.5.5 1 2q-3 6.5-6 1l11.5-32.5Zm170 29 4.5 1.5-.5 4.5-5.5-1.5 1.5-4.5Zm-150 30q15.31 2.69 22.5 13.5l-2.5-1.5h-6l-14-12Zm154 4 1 2 3.5.5.5 1.5 6.5 3.5q-12.54-1.04-16.5 6.5h-12l-.5-2.5 17.5-11.5Zm-7.5 8-1 2h1v-2Zm-84.5-6 8.5 12.5-3.5 5.5-2 1q2.25-14.89-3-19Zm-75 3 10.5 8.5-7.5.5-3-9Zm36 15q9.5-2 11.5 3.5l-5.5 2.5-6.5-3.5.5-2.5Zm114 0 5.5 3.5q-3 5.5-6-1l.5-2.5Zm-37 1 2 17 7.5.5-5 4-.5 1.5-4.5-3.5-5-9 5.5-10.5Zm-35 4 3.5 2.5 2 5-3.5 6.5-1.5.5-1.5 2.5-1.5.5-.5 1.5-3.5-1.5-.5-3.5-1.5-.5 6-1 2.5-12.5Zm-16 1 3.5 2.5q-3 6.5-6 1l2.5-3.5Zm-68 6 12.5 3.5 1 3-1.5-.5q-13.34-2.84-17.5 3.5l-1.5 19.5-5.5-17.5 6.5-8.5 6-3Zm26 0 3.5.5-2.5 5.5-3.5-2.5 2.5-3.5Zm24 0 3.5 2.5.5 1.5 11.5 2.5.5 5.5 3.5.5-9.5 4.5-2-9-12.5-2.5 4.5-5.5Zm90 0 3.5 2.5.5 1.5 3.5 1.5-2.5 1.5-10.5-1.5 3-2 2.5-3.5Zm12 0 3.5.5-2.5 5.5-3.5-2.5 2.5-3.5Zm12 0 3.5 2.5-.5 4.5-9.5-1.5 4-2 2.5-3.5Zm34 0 9.5 7.5 1 3-5 2 1.5 4.5 4.5 3.5-20 44-18.5 29.5-8.5 4.5-.5 1.5-1.5.5 1 14-13.5 15.5-14 2-2.5-3.5 5.5-4.5 1 2 10.5-3.5 1-10-5.5-7.5-5-2-10 5 2-3 13-3 5.5 3.5 1.5 2.5 4.5-1.5q-5.16-24.34-19.5-39.5l-1.5-.5 2.5-.5 10.5 7.5 10.5 22.5 19.5-19.5 26-52v-7l-9.5-11.5-3 1 1-4 6-3ZM317 396l-1 2h1v-2Zm-10.5-101 7.5 16.5-5.5.5-3.5-15.5 1.5-1.5Zm-110 5 8.5 3.5.5 1.5 4.5 1.5-1.5 3.5-11 2-10.5-5.5 11-1-1.5-5.5Zm135 5v3l-9 4 3-4 6-3Zm-193 13 5.5.5-.5 5.5-5.5-3.5.5-2.5Zm139 6 4.5 1.5-.5 13.5-4.5-2.5 2-1-3-10 1.5-1.5Zm-121 3 6.5 10.5-2.5.5-5.5-8.5 1.5-2.5Zm221 3 6.5 2.5-2.5 3.5-1.5.5-1.5 3.5-1-10Zm-136 6 4.5 1.5-1.5 4.5-7 6 2.5-3.5-1.5-2.5-1.5-.5 3-2 1.5-3.5Zm131 5 4 1 1.5-.5-3.5 6.5-8.5-2.5.5-3.5 6-1Z"/><path fill="#6D2E01" stroke="#6D2E01" stroke-width="3" d="m236.5 343 1.5.5-2.5 1.5 1-2Zm-68 2 12.5 22.5-2.5.5-11.5-20.5 1.5-2.5Zm53 10 1.5 4.5-4.5 6.5-5.5-.5 8-5-2-1 2.5-4.5Zm13 13 11 13 4.5 2.5-3.5.5-9.5-6.5-2.5-9.5Zm47 0 .5 4.5-5.5 10.5-.5-2.5 5.5-12.5Zm-95 7 23 15 8.5.5q-9.56 2.94-8 17l7.5 10.5 3.5 1.5-5.5.5-15.5-8.5-2-17-13-17 1.5-2.5Zm13.5 22-1 6h1v-6Zm51.5-13 7.5.5-1 4 .5 1.5-7.5-.5 1-4-.5-1.5Zm-31 6 9.5.5-4.5 5.5-3.5-2.5-1.5-3.5Zm14 18-.5 1.5 3 10-9.5.5.5-1.5-1-4 1.5-3.5 6-3Zm47 0 6.5 2.5-2.5 3.5-3 2-1-8Zm-60 24 3.5.5-8 11 3 2 2 6-1.5-.5-1.5-.5-3-13 3.5-4.5 2-1Zm6 0 8.5 5.5-2.5.5-5.5-3.5-.5-2.5Zm55 0-.5 1.5-1.5 2.5-6 2 2-3 6-3Zm5 0 24.5 8.5-2.5 3.5-1.5.5-.5 1.5-1.5-.5-3.5-6.5-14.5-4.5-.5-2.5Zm12 18 2.5.5-3.5 4.5q-4.74 9.26-21 7v-1l22-11Zm-73 6 19.5 9.5 1 2-1.5-.5-18.5-8.5-.5-2.5Zm40 0 3.5 1.5 1.5 2.5 3.5 1.5-23.5 6.5.5-1.5 1.5-2.5 12.5-6.5.5-1.5Z"/><path fill="#3F1600" stroke="#3F1600" stroke-width="3" d="m270.5 35 3.5 1.5-1.5 6.5-3.5-1.5-1-3 2.5-3.5Zm4 23-5 7 4-2 2.5 26.5h-1l-3-4-1.5-18.5-6 1-13-4-.5 4.5q11.38 10.12 11 32l-3.5 9.5-5 1-4.5-3.5-5.5-13.5-1.5.5-3 9 5 11-3.5 5.5-.5-2.5 2-3-5-14 5.5-10.5 2.5 1.5 6.5 15.5 3 1 3-2 1.5.5 1-16-11-27 8.5-1.5 8 4-1-3 3 2 7-7Zm4 2 .5 1.5h-1l.5-1.5Zm-1 3-.5 1.5-.5 1.5-.5-1.5 1.5-1.5Z"/><path fill="#3F1600" stroke="#3F1600" stroke-width="3" d="M247.5 68 258 89.5h-1L247.5 68Zm-107 22-44 45-1-2 45-43Zm99 0 .5 1.5-2 1 1.5-2.5Zm7 0 4.5 9.5h-1l-3.5-9.5Zm242 0-44 45-1-2 45-43Zm-251 4 .5 1.5-1.5 2.5-.5-1.5 1.5-2.5Zm65 3 1.5.5-9.5 4.5v-1l8-4Zm1 2 3.5.5-3 9 2 6h-1l-3-6 2-6-2.5-.5-9.5 4.5-9.5 19.5-.5-1.5 10.5-20.5 11-5Zm-69 2 .5 1.5h-1l.5-1.5Zm75 0-.5 1.5-.5 1.5-.5-1.5 1.5-1.5Zm-96 4q11.5 1 15.5 9.5l1 4-1 3-.5 2.5-1.5-5.5v-2l-7.5-8.5-4-2-5 14-.5-2.5 3.5-12.5Z"/><path fill="#3F1600" stroke="#3F1600" stroke-width="3" d="m307.5 105-.5 1.5-.5 1.5-.5-1.5 1.5-1.5Zm-71 1 3.5 7.5h-1l-2.5-7.5Zm51 2 .5 1.5-2 1 1.5-2.5Zm-2 4 .5 1.5-1.5 2.5-.5-1.5 1.5-2.5Zm20 7 .5 1.5h-1l.5-1.5Zm-71 7 2.5 1.5.5 2.5 1.5-.5-2.5 17.5q-11.5-1-15.5-9.5l-5-10 1.5.5 2.5 1.5 10.5 14.5 4 2 2.5-14.5-2.5-5.5Zm12 1 3.5 2.5 3.5 13.5 3 1 16-6-2 3-13 7 1-2 7.5-3.5-2.5-.5-9 4-3.5-2.5-4.5-16.5Zm30 11 11 3 6-2v1l-14 2-3.5-2.5.5-1.5Zm84 55 5.5 8.5-4.5 5.5-1-14Zm-211 12 .5 2.5-5.5 13.5-.5-6.5 5.5-9.5Zm212 5 10.5 2.5q3.35 24.85-12.5 30.5l-6 3 .5-1.5 8-18-2-5 1.5.5 4.5-.5-.5-5.5-4.5-.5.5-5.5Zm-211 12 2.5.5 3 18h-1q3-11.5-2.5-14.5l-2.5-.5.5-3.5Z"/><path fill="#3F1600" stroke="#3F1600" stroke-width="3" d="m144.5 227 7.5 2.5 3.5 14.5 2.5 1.5-2 1-6 11 2 1-2 3 5.5 2.5 3-6 2.5-.5.5-1.5.5 9.5h-2l.5 1.5 3.5 2.5-14 3 2.5 9.5 25.5 12.5 1.5 2.5 6 3h2q8.75-1.75 10.5 3.5l-.5 2.5h-11L170 294.5l-1-3-.5-1.5-15-4-6.5 4.5-2.5 8.5-6.5-17.5v-42l1.5.5 2.5-1.5 2-4-2-1 2.5-6.5Zm15.5 34-1 4h1v-4Zm198.5-34-.5 1.5-1.5 2.5.5-1.5 1.5-2.5Zm-3 5 .5 1.5-1.5 7.5-.5-6.5 1.5-2.5Zm19 8 3.5 2.5-2.5 3.5-3.5-2.5 2.5-3.5Zm-26 16 5.5 4.5-4.5 5.5q-7.33 6.67-24 4v-1l16.5-2.5-10-1 16-4 .5-5.5Zm-25 2 2.5.5-16.5 11.5 9-10 5-2Zm-125 6 7.5 5.5-2 1 4 3-1-2 2 1 1 3-4-1-.5-1.5-4.5-3.5-.5-1.5-1 2-1.5-.5 1-4-.5-1.5Z"/><path fill="#3F1600" stroke="#3F1600" stroke-width="3" d="m169.5 270 12.5.5-4.5 5.5-4.5-3.5-.5-1.5h-2l-1-1Zm7.5 2v1h1l-1-1Zm12.5-2 8.5 4.5-1 3 1.5 2.5-3-4 1.5.5-.5-1.5-7-5Zm123 0 .5 1.5h-1l.5-1.5Zm-18 6 5.5 2.5-.5 3.5-3.5-.5-.5-1.5-1.5-.5.5-3.5Zm91 6 4.5 1.5-1.5 10.5-3.5-.5-1-9 1.5-2.5Zm-258 6 3.5.5 1 3-1.5 2.5-4.5-1.5 1.5-4.5Zm155 0 3.5.5 4 5-9.5.5.5-1.5 1.5-4.5Zm.5 4v1h1l-1-1Zm72.5-4 10.5 2.5-.5 16.5-1.5-6.5 1-3-3.5-6.5-6-3Zm-49 5 4 1 2.5.5-1 4 1 3 2.5 4.5 11.5.5-3 1-3.5 4.5-8.5-3.5 1-4-2-1-4.5-9.5-1 2-3.5-1.5 4.5-1.5Zm-82 1 7.5.5-9.5 5.5-.5-2.5 2.5-3.5Z"/><path fill="#3F1600" stroke="#3F1600" stroke-width="3" d="m360.5 300 2.5.5-.5 4.5-2-5Zm19 6 4.5 1.5-1.5 4.5-3.5-.5-1-3 1.5-2.5Zm-235 1 .5 7.5-5.5.5-2-1-1.5.5 2.5-4.5 1 3 4.5-1.5.5-4.5Zm221 4 .5 6.5-27 60-12 12q-4.95 18.55-17.5 29.5l-9.5 4.5 3.5 7.5 8.5 3.5-.5 4.5-3-2-2 1-6.5-3.5 2-1-10.5-3.5v1l2.5.5-2.5.5-3.5-2.5.5-3.5 5.5-3.5-1.5-2.5 6 2 16.5-12.5 8.5-22.5 8.5-7.5 6-13h-1l-4.5 8.5.5-1.5 8.5-15.5 1.5.5 18-37-1-3 2.5-4.5 1.5.5-1-2 2.5-1.5Zm-2.5 5-1 2h1v-2Zm-1 2-1 3h1v-3Zm-22 44-1 2h1v-2Zm-1 2-1 2h1v-2Zm-36 70v1h1l-1-1Zm2 1v1h2l-2-1ZM146.5 312l11.5 22.5-1 2 6 2 5 10-.5 1.5 1.5.5-.5 1.5 1.5.5-.5 1.5 1.5.5-1 2h2l-1 2h2l6.5 10.5 1.5-.5 7 14-1 2 8 6 1 2-2-1-4.5-5.5-.5 1.5q7.58 6.42 7 21l6.5 8.5 22 7v-1l-15.5-5.5 1.5.5 20.5 2.5-3 8 14 9-4.5.5-4-5-2 1-2-3-12.5 3.5-1 11 11.5 14.5 2 1 2.5.5.5 1.5 1.5-.5.5 1.5 1.5-.5.5 1.5 5 2 2.5.5-5.5.5-27-18-7.5-1.5v-18l-18-35-1-9q-14.78-13.22-19-37l-21-29 2-1-.5-7.5Zm9.5 20-1 2h1v-2Zm17 28-1 2h1v-2Zm1 2-1 2h1v-2Zm1 2-1 2h1v-2Zm2 3-1 2h1v-2Zm2 3-1 2h1v-2Zm3 5-1 2h1v-2Zm3 4-1 2h1v-2Zm36 50-2 1q-8 3-6 16l2 1-1-2 2-10 10-5-5-1Zm-5 18-1 2 2 1-1-3Zm161.5-129 6.5 1.5-1.5 4.5-4-1-.5 1.5 3 5-9 2-.5 10.5-5.5-1.5 1.5-4.5 2.5-1.5 6.5-12.5 1.5-.5-.5-3.5Zm-2.5 9v1h1l-1-1Zm-231.5 7 .5 1.5h-1l.5-1.5Zm133 0 1 2-1.5-.5.5-1.5Zm0 3 5.5 2.5 6.5 12.5 3.5 1.5 5 7 5 11-4.5.5-12-19-3.5 2.5-2-7 2-1-5.5-10.5Zm13.5 18-1 2h1v-2Zm-51.5-12 1.5.5-3.5 4.5-2 1-2.5-1.5 6.5-4.5Zm-11 9 .5 2.5-5.5 7.5-.5-1.5 5.5-8.5Zm12 8 1.5.5-1.5.5v-1Zm-82 6 3.5.5q2.42 16.08 13 24v15l-4.5 2.5q-1.9-16.6-13.5-23.5v-17l1.5-1.5Zm56 0 4.5.5-2 5 2 1-6.5 4.5-1.5-4.5 3.5-6.5Z"/><path fill="#3F1600" stroke="#3F1600" stroke-width="3" d="m322.5 385-2.5 3.5-1.5 8.5-.5-6.5 2.5-4.5 2-1Zm-104 5 3.5 2.5-2.5-1.5-3 2 2-3Zm39 0 1.5.5.5 1.5h2l2.5 1.5-.5 2.5-6.5-3.5.5-2.5Zm-61 4 1.5 12.5h-1l-.5-12.5Zm104 8 3.5.5.5 2.5 1.5.5-.5 2.5-7 1-.5-1.5 2.5-5.5Zm-46 6 13.5.5-5 3-.5 1.5-3.5-.5-1.5-2.5-3-2Zm42 24 2.5 1.5-1.5.5-1-2Zm15 11 .5 2.5-9.5 11.5-13 5v-1l9.5-4.5 9.5-11.5 3-2Zm-42 19 14 1 3-1v1l-12 4-5.5-2.5.5-2.5Zm2.5 1v1h1l-1-1Zm8 0v1h1l-1-1Z"/></svg>