<svg viewBox="0 0 1134 1134" xmlns="http://www.w3.org/2000/svg"><path fill="#040429" stroke="#040429" stroke-width="3" d="M556.5 24q63.64 2.36 89.5 42.5l8 16 12 43 18 35v13l18.5 33.5 17 5 36 24 46.5 46.5 20 34v7l18 47v25q7.24 4.76 6 18l-3 1-3 10 4.5 1.5 1.5-.5q-2.12 16.62 6 23v63l-6 11v41l6 11v39l-5 8 5 10-6 11v19q-8.36 7.64-6.5 25.5l-3-2-2.5 9.5 4.5 1.5 1.5-.5-2.5 6.5-5.5-4.5-.5-1.5-3.5.5 1 2-2 1 2.5 8.5 4-1 .5 8.5-6.5 16.5-5.5-2.5 6-14-6-4-2.5-3.5-9.5 16.5-.5 10.5-5-3-.5 2.5 6 10-1.5 2.5-7.5 1.5-1 2 1.5 2.5 6 1 5.5-4.5 1-2 1-3 3.5-6.5 3.5.5-2 11-28 31v19l-6 11-1.5 27.5-1-3-1.5.5-2 4 2.5.5 1.5-.5q-8 4-4 20l-26 58-12 18-46.5 46.5-11 5-37 37-29 8-35 18h-21l-11-6-25-6q-22.17-5.83-35-21l-17-5-36-24-46.5-46.5-24-36-20-40q1.24-13.24-6-18v-13l-6-11v-19l-6-11q3.39-16.39-2.5-23.5-13.66-.34-19.5-8.5l-2-17q-14.2-19.3-18-49l1.5.5 4.5-1.5-1.5-4.5-4 1-1-7-3.5-.5-2-23-12-28 5-6-5-7v-45q18-11 12-46l-12-35v-45l6-11v-19l6-11v-25q8.29-6.71 6-24l8-22 10-13v-13l20-34 52.5-52.5 11-2 13-10q13.91-.59 20.5-8.5 5.17-5.83 3-19l14.5-39.5 7.5-3.5 16-27q20.41-12.59 30.5-35.5l12.5-7.5L522.5 44q23.52-3.48 34-20Zm64.5 79-2 3 3 1 1-2-2-2Zm-6 12-2 3 3 1 1-2-2-2Zm-6 12-2 3 3 1 1-2-2-2Zm-6 12-2 3 3 1 1-2-2-2Zm-6 49-2 3h3l1 1-1-3-1-1Zm-1 4-6 11-1 3-11 21-1 3q2 17-5 27l-1 3-1 4 1 20-1 4 3 5 9 6 8-1 2-3 2-1-1-1q-2-18 5-27l1-3 1-4-1-65-3-2Zm61 55-2 2h2l1 1-1-3Zm-4 3-19 8-17 24-2 1v2l-1 2 8 5 11-3 13 1 6-11-3-11 9-16-5-2Zm-188 15-2 3 3 1 1-2-2-2Zm31 0-2 2 1 1 2-1-1-2Zm29 0-2 3 3 1 1-2-2-2Zm-29 3-3 2v2l-1 4 7 8 5-2-1-1 1-4-3-5-5-4Zm297 8v3l5 3v-2l-5-4Zm-322 1-2 3 3 1 1-2-2-2Zm31 7-3 2h3v-2Zm112 0-1 2h1v-2Zm30 7 2 1-2-1Zm-167 4-2 3 3 1 1-2-2-2Zm175 30v1h2l-2-1Zm15 0v1h11l-11-1Zm-199 1v1h2l-2-1Zm-14 4-2 1-1 2-3 3h-23l-33 14-4 5-3 1-23 25h-1l-17 30-5 2-2 7v2l-5 15-1 3-4 11 3 11-1 3-4 3-12 20 6 3 12-3 5-7 3-1 3 6 1 44-1 4 1 3-3 1 4 1 2-1-1 2h3v-5l13-7 16-2 2-4h35l35 12h19q6 8 22 6l11 6q12 6 15 23l6 4-1 19 1 28v2l-2 18-7 2-7-2-2-3-2-1v2l-1-1-4 2 2 1-1 5-11 3-1-1 2-1-10-4h-25l-3-2 1-3-1-5-16 5-14-4-11 3v-1l-10-9-5 2 3 9 5 3 2 3 4-1v5l35 1 1 3-15 5h-2l2-1-2-1-2 3 1 3h-17l-1-1 4-1-4-1h-5l3-1-3-2-1 2v4l-8-4-7-8-5-4-19-8-4-5-10-6q-16-2-21 5l-8 11-1 3-1 4 1 20-1 4 7 15-1 3 2 7h2l9 20-1 3h2v2l11 8 9 18 2-1v3l-3 1 2 4h2l60 91q13 12 12 38l-1 4 3 5 9 6 11-2-1 3h2l-1-4 2-34 12-6 1-4 13-6 3 6-1 4 2 3 5 2v-2l13-7h107q4 7 18 6v2l-4 1h4v3h3l1-2-2-1 2-1 3-4 5-4q15-1 19 9l5 13v2l-1-1-1 2-3-1 2 6h-5l-4-4-3-2q-14 5-15 24h-2l-1 3 13 7 7-1 34-21 4-5 3-2-4-9q-3-22 8-31l18-15-2-9 2-6 5-4 12-17 7-6-1-6 1-7 9-6 5-7 1-3 23-39 1-3 5-15 1-3 5-20-4-14 4-11 1-3 1-4-7-10-6-6-32 11-3 7-9 4-12 17-5-1-14 8-2 3q-3 5-15 2l-4-13 1-4-1-1-1-1-15-7-2-2-2-2-3-4-32-2-5-6-10 2q-4 9-15 10l-4-7v-50l5-8v-2l1-8 4-3 8-14 10-10 27-12h19l35-12h47l9 4v3l3 4 7 1h2l1-4 1-3q-2-31 11-45l1-3 1-4-1-8 1-4-5-9 1-4 2-1-4-10 4-10-4-13 1-4-1-14-3-2-3-4-3-2-5-11q-6-12-20-14l-2-9-58-26h-45l-53 18h-45l-8-6q-17 2-23-6h-29l-8-6q-14-1-19 6h-3l3-4-2-2Zm-15 1v1h6l-6-1Zm47 0v1h21l-21-1Zm60 12v1h12l-12-1Zm25 0v1h4l-4-1Zm214 103-1 2h1v-2Zm-459 6-1 2h1v-2Zm-53 5-2 3 3 1 1-2-2-2Zm63 27-1 2h1v-2Zm-63 3-2 3 3 1 1-2-2-2Zm108 39v1h1l-1-1Zm49 6v1h1l-1-1Zm25 6v1h1l-1-1Zm4 0v1h6l-6-1Zm-121 2-2 5 5 1 1-4-4-2Zm392 6v2h-3l-1 2-3 2-3 4-33 22h-2l2-1-2-1-1 6-9 1 1 5 14-1 2 1 14-1v-1l2-1-1-1 18-9 14 4 7-2 11-12 3-2-1-1 1-2-1-1-4-4q-8-7-25-3l2-5-2-1Zm-361 1-14 7-1 2-2 1-3 7v2l-1 4 3 5q7 11 31 7l2 4 15 3 40-2-2-6-2 1-3-4-20-13-9-10-16-3-6-5h-12Zm16 0v1h1l-1-1Zm376 13-1 2h1v-2Zm-20 20v1h1l-1-1Zm-300 4v2l-1 2h4v-2l-3-2Zm-60 1v1h1l-1-1Zm218 3-1 2h1v-2Zm100 2v1h1l-1-1Zm-286 4-4 2-1 3 16 1 3 8-1 4h2v2l5 3 13-1 2-3 2-1v-6l-2 1 1 2v1l-2-3-2-1-1-3 5-3 1-4-37-2Zm255 0-2 5 17 1 1-4-16-2Zm39 1-2 1-1 2 3 1 5-1v-1l-5-2Zm-20 3-1 4-9 3 3 1-2 1-2 5 8 5 8-1 2-3 2-1-1-1 1-4-1-1-3-5-3 1-2-4Zm-228 2-1 6 2-1 8 4 19 17 1 4 8 5h2l-7-14-7-3-17-18-6 1-2-1Zm-37 4v1h1l-1-1Zm228 2-2 5 5 1 1-4-4-2Zm25 2-2 2 2 1v-3Zm-29 1-2 2 2 2h1l-1-4Zm-7 3-15 17 4 1 14-16-3-2Zm6 13v1h1l-1-1Zm56 0-5 7-10 5-12-1-2-2h-1l-3-2-4 2 3 6-1 2 2-1 4 1 2 6 31-1 1-4-1-1-3-4 3-2-1-1 3-6-1-1-2-2h-1l-2-1Zm76 0v1h1l-1-1Zm-384 1v3l1-2-1-1Zm251 1-4 4 3 4 8-1-1-4-6-3Zm77 3-1 3 6 3v-2l-5-4Zm-304 1v1h1l-1-1Zm34 0v1h1l-1-1Zm188 0v3h1l-1-3Zm-186 1-1 4 3-2-2-2Zm200 0-1 2-1 2h3l-1-4Zm10 0v3l1-2-1-1Zm53 4-2 5 5 1 1-4-4-2Zm-72 1v1h1l-1-1Zm-180 1v1h1l-1-1Zm174 0v1h1l-1-1Zm-154 4 2 2v-1l-2-1Zm185 4-1 2h1v-2Zm168 4-2 4 2-1 1 3h1l-1-5-1-1Zm-422 2v1h7l-7-1Zm258 0v1h1l-1-1Zm13 0v1h10l-10-1Zm150 3-3 5h2l2-4-1-1Zm-4 5-3 3 2 2 3-2-1-1-1-2Zm-536 12-2 2 1 8 5 2 1 9h5l-1-12-4-3-1-4-4-2Zm529 1-3 2-5 9v2l-2 16h2l3-5 2-1-1-1 1-5v-2l1-2 4-2 1-6v-2l-2-1-1-2Zm-527 14-1 4h1v-4Zm533 6-1 2h1v-2Zm-524 6-1 8 5 1 1-8-5-1Zm-11 3-2 12h3l13 23 8-2v-2l-5-1-1-4-2-2-10-22-4-2Zm518 0-3 3 2 2 3-2-1-1-1-2Zm11 8v1h1l-1-1Zm-23 35-2 2 1 1 2-1-1-2Zm-488 5-2 5 5 1 1-4-4-2Zm43 1v3h1l-1-3Zm385 30v3-3Zm-24 42v3-3Zm-212 33v1h1l-1-1Zm29 0v1h11l-11-1Zm75 0v1h1l-1-1Zm-120 6-1 2h3v-1l-2-1Zm205 16-1 2h1v-2Zm-90 1v1h3l-3-1Zm9 2q-17-2-22 7l-21 2-1 3 5 4v2l-21-11q-22 4-31-3l-2-3-11 6-8-1-12 7q-8-8-24-6 5-3 0-6l-4 6 1 16 3 1 3 5 11 7h7l13-10 7-1h2l24 8 1 3 5 3-3 1 2 2 3-5 39 1 13-2 4-5 11 1v-1l3-1 11-13-3-12-3-2-2-3Zm-123 8v1h1l-1-1Zm-32 1-1 2h1v-2Zm172 10-1 3h2v-2l-1-1Zm-76 19v1h2l-2-1Zm15 0v1h1l-1-1Zm27 0-2 3 3 1 1-2-2-2Zm-48 1v1h1l-1-1Zm12 0v1h1l-1-1Zm-81 17-8 5-5 6-2 1-2 3h3l3 10-1 4h2v2l5 3 1 2 2-1 4 18 28 15 3 1q6 10 25 8l4 5 22-11v3l16-8 16 9h9l37-16 6-7 11-8 11-19 1-3 1-4-3-5-7-5 2-1-3-2-1 2-3 1h3v3h-3l-3-3-25-3h-2l-17-1-8 2-4 5h-78l-40-11Zm137 2v1h3l-3-1Zm-82 5v1h1l-1-1Zm58 0v1h1l-1-1Zm3 0v1h1l-1-1Zm-31 68v2l3-1-3-1Z"/><path fill="#040429" stroke="#040429" stroke-width="3" d="m434.5 600 3.5 2.5-.5 3.5-5.5-.5 2.5-5.5Zm166 122 9.5 4.5 4.5 11.5 3.5 2.5-1 12q5.22 16.28 18.5 24.5l10.5 9.5 9 14-.5 1.5 3 2 2-1 6.5 3.5-.5 3.5-2.5-.5-.5-2.5-1 3-22.5-12.5-4.5-11.5-11.5-.5 1-2-12-4v-19l-15-17-3-18 1.5.5 3.5-1.5 1.5-2.5Zm-2.5 6-1 3h1v-3Zm27 53v1h1l-1-1Zm-104.5-42 4 5-14 6 .5-1.5 3.5-6.5 3-2 3-1Zm219 11 2.5.5 2 5-3.5.5-2.5-4.5 1.5-1.5Zm-230 1 .5 4.5-9 24-31 31-5.5 11.5-2.5-.5 4.5-13.5 3.5-2.5 5-7-1-2 11-12v-2l10.5-20.5 12.5-7.5 1.5-3.5Zm88 29 14.5 6.5v21l-4.5 4.5-1.5-.5-11 12v2l-4.5 8.5-2-1-18 7h-11l-4-1-15 1-6.5-3.5-5.5-12.5-10.5-9.5-.5-1.5-7.5-5.5.5-21.5 7-1 18 12 2.5.5.5 1.5 32-1 6.5-3.5 1.5-3.5 19.5-9.5-.5-1.5Zm-132 18 2.5.5-5.5 8.5-.5-2.5 3.5-6.5Zm30 102 2.5.5-3.5 4.5-2 1-.5-2.5 3.5-3.5Zm71 6 3.5 2.5-.5 6.5-3-2-2.5 1.5 2.5-8.5Z"/><path fill="#151B2B" stroke="#151B2B" stroke-width="3" d="m620.5 103 2.5 1.5-1.5 2.5-2.5-1.5 1.5-2.5Zm-6 12 2.5 1.5-1.5 2.5-2.5-1.5 1.5-2.5Zm-6 12 2.5 1.5-1.5 2.5-2.5-1.5 1.5-2.5Zm-6 12 2.5 1.5-1.5 2.5-2.5-1.5 1.5-2.5Zm-6 49 1.5.5 2 4-1 4 1 62-1 4-1 3q-6.58 9.42-5 27l.5 1.5-1.5.5-1 2 .5 1.5h-2l-8 1-8.5-6.5-3-5 1-4-1-20 1-4 1-3q6.58-9.42 5-27l1-3 11-21 1-3 5.5-10.5 2.5-.5-3-1 1.5-2.5Zm60 59 2.5 3.5-10 17 3 11-6.5 11.5-13-1-11 3-8.5-6.5 1.5-2.5 2.5-1.5 16.5-23.5 23.5-8.5-2-1 1.5-1.5ZM615 284l-1 2h1v-2Zm-150.5-19 2.5 1.5-1.5 2.5-2.5-1.5 1.5-2.5Zm31 0 1 2-1.5.5 6 4 3 5-1 4 .5 1.5-2.5 1.5 1 2h-3l2-1-6-4-3-5 1-4-.5-1.5 2.5-1.5-1-2 1.5-1.5Zm29 0 2.5 1.5-1.5 2.5-2.5-1.5 1.5-2.5Zm268 11 5.5 3.5-.5 2.5-4.5-3.5-.5-2.5Zm-322 1 2.5 1.5-1.5 2.5-2.5-1.5 1.5-2.5Zm6 18 2.5 1.5-1.5 2.5-2.5-1.5 1.5-2.5Zm175 30 2.5.5-2.5.5v-1Zm15 0 11.5.5-11.5.5v-1Zm-199 1 2.5.5-2.5.5v-1Zm-14 4 2.5 1.5-3.5 4.5-4.5-.5 3.5-4.5 2-1Zm17 0 11.5 5.5-1.5.5-10-6Zm-32 1 6.5.5-6.5.5v-1Zm47 0 21.5.5-21.5.5v-1Zm45 11 11.5 5.5-1.5.5-10-6Zm15 1 12.5.5-12.5.5v-1Zm25 0 4.5.5-4.5.5v-1Zm-174 4 3.5 1.5-11.5 6.5-.5-1.5 8.5-6.5Zm372 41 5.5 3.5 2 4-6.5.5-1-8Zm-17 2 4.5.5-.5 5.5-5.5-1.5 1.5-4.5Zm28 17 1.5 4.5-1 4 4 13-4 10 3.5 9.5 1-2 .5 1.5-3 2-1 4 5 9-1 4 1 8-1 4-1 3q-13.41 14.59-11 45l-1 3-1.5 4.5h-2l-1.5-.5 1-4-4-3-2-23 6-11v-49q-10.06-9.94-6-34l17.5-2.5Zm-438 5 1.5.5-1 68 6 11 1 42-1.5 6.5-2.5-.5.5-1.5-2 1-3.5-1.5 3-1-1-3 1-4-1-44-3.5-5.5-2.5.5 1.5 2.5-2.5.5 1 2-1.5.5-4 2-12 3-3-2-1.5.5.5-1.5-1.5-.5 8-16-.5-1.5 4-2 4.5-3.5 1-3-3-11 4-11 1-3 5-15v-2l1.5-6.5 3-1Z"/><path fill="#151B2B" stroke="#151B2B" stroke-width="3" d="m325.5 452 .5 1.5h-1l.5-1.5Zm-53 5 2.5 1.5-1.5 2.5-2.5-1.5 1.5-2.5Zm438 29 3.5.5-.5 11.5-5.5-2.5 2.5-9.5Zm-438 1 2.5 1.5-1.5 2.5-2.5-1.5 1.5-2.5Zm105 35 .5 2.5-9.5 3.5v-1l9-5Zm3 4 1.5.5-1.5.5v-1Zm49 6 1.5.5-1.5.5v-1Zm25 6 1.5.5-1.5.5v-1Zm4 0 6.5.5-6.5.5v-1Zm32 2 9.5 5.5-2.5.5-7-6Zm140 0 1.5.5-9.5 5.5 2-3 6-3Zm99 6 2.5.5-3.5 5.5-4.5-.5 2.5-3.5 3.5-.5-.5-1.5Zm-361 1q13.7-2.7 17.5 4.5l-24.5.5v-1l7-4Zm16 0 1.5.5-1.5.5v-1Zm8 5 10.5 2.5 8.5 10.5 3 2 1.5-.5-.5 1.5 2-1v2l2-1v2l3 1 1.5-.5-.5 1.5 4.5 3.5-2.5.5-23.5-8.5-6.5-13.5-3-2Zm222 0-2.5 3.5-5.5 10.5-.5-2.5 8.5-11.5Zm135 0 5.5 2.5 3.5 4.5 2.5 1.5-1.5 2.5-2.5 1.5-11.5 12.5-7 2-14-4-17.5 8.5.5 1.5-1.5.5-.5 1.5-4 1 .5-1.5-1.5-4.5-4.5 1.5 1 4-5.5.5-2-1-6 1 .5-1.5-1-4 1.5-6.5 4 1 28.5-19.5-.5-1.5 2 1 1.5-.5 7.5 11.5 17 2 4.5-3.5 1-13-.5-1.5Zm10.5 8-1 2h1v-2Zm-74 17v1h1l-1-1Zm-332.5-21 2 14q8.75-1.75 10.5 3.5l1 8-5.5.5-10.5-7.5-3-5 1-4v-2l2.5-6.5 2-1Zm167 14 7.5 3.5q2.58 18.08-5.5 25.5l-1.5-7.5 1-19-1.5-2.5Zm76 0 5.5.5-3 10v2l-4.5 7.5-.5-17.5 2.5-2.5Zm-164 10 3 2 1.5-.5 2 5-7.5 1.5.5-1.5.5-6.5Zm308 0 1.5.5-1.5.5v-1Zm-358 2q17.41-2.41 24.5 5.5l-8.5 1.5-14.5-3.5-1.5-3.5Zm293 0 3.5.5-1 4 .5 1.5-3.5-.5.5-5.5Zm-235 2 3.5 1.5-.5 2.5-3.5-.5 1-2-.5-1.5Zm-60 1 1.5.5-1.5.5v-1Zm218 3 .5 1.5h-1l.5-1.5Zm100 2 1.5.5-1.5.5v-1Zm8 5 5.5 1.5-.5 1.5-5 1-2.5-1.5.5-1.5 2-1Zm-20 3 2 4 3-1 1 2 1.5-.5v2l.5 1.5 1.5.5-1 4 .5 1.5-1.5.5-1 2 .5 1.5h-2l-8 1-7.5-5.5 1.5-4.5 2.5-1.5-3-1 9-3 .5-3.5Zm-262 2 9.5.5-2 5 5.5.5.5-3.5-1.5-2.5 9.5.5-2 5 3 1 .5 1.5 1-2 1.5.5-.5 5.5-1.5.5-1 2 .5 1.5h-2l-13 1-3-2-1.5.5v-2l-.5-1.5-1.5-.5 1-4-2.5-7.5Zm24.5 8-1 2h1v-2Zm9.5-8 2 1 2-1-.5 1.5 1 5-2.5-1.5-2 1v-6Zm10 3q6.25 13.75 22.5 17.5l1 5-2.5.5-21-23Zm-47 1 1.5.5-1.5.5v-1Zm172 3 1.5 32.5-1 3 3.5 5.5 21-12-.5 1.5-2.5 4.5-1.5.5-11.5 16.5-7 1-5-18-2.5-.5q-4.12-24.12 5.5-34.5Zm81 1 .5 2.5-2-1 1.5-1.5Z"/><path fill="#151B2B" stroke="#151B2B" stroke-width="3" d="m468.5 609 18.5 16.5-1.5 1.5-17-18Zm177 0 1.5 3.5-1.5.5-1.5-2.5 1.5-1.5Zm-123 4q7.73 6.77 5.5 23.5l-3.5 6.5-9 5-12-6-5 2-.5-2.5 1-2-2-1 6.5-2.5 1 3 1.5-.5-.5 1.5 7 2 7.5-2.5 2-18v-2l.5-6.5Zm-187 12q16.73-2.23 23.5 5.5l3 5-2.5.5-5.5-3.5-.5-1.5-21.5 12.5q-10.17 8.33-8 29l6 11 2 17 32 45 16 33 24 30 5.5 13.5q17.61 1.89 23.5 15.5l6.5 14.5 16.5-1.5 1.5-22.5 4.5 1.5 1.5 22.5 6-1 .5 1.5-1.5 3.5-11.5 5.5-2 34 1 4-2.5.5q-13.7.7-18.5-7.5l-3-5 1-4q.53-25.53-12-38L360.5 755l-1.5-.5-.5-1.5-2 1 1-4 2.5-.5-.5-2.5-1.5.5-3.5-8.5-1.5.5 1-2h-2l1-2h-2l1-2-12.5-10.5-1.5.5v-2l-.5-1.5-1.5-.5 1-3-6.5-13.5-1.5.5 1-2h-2l1-2h-2l1-2-2-1-2-7 1-3-7-15 1-4-1-20 1-4 1-3 7.5-10.5 8-5ZM358 751l-1 2h1v-2Zm36.5-126 18 10 7-2 14 4 18-6 3.5 2.5-3 2-.5-3.5-1.5.5 1 4-1 3 1.5 2.5-43 1-4-1-1.5.5-1.5-2.5-2-1-1.5.5-1-3-3.5-9.5-1 2v-3l2-1Zm250 0 1.5.5-1.5.5v-1Zm56 0 2 1 1.5-.5.5 1.5 1.5-.5-.5 1.5 1.5.5-3 6 .5 1.5-1.5.5.5 1.5-1.5-.5 2.5 4.5 1.5.5-1.5 4.5-3 1 .5-1.5-1.5-4.5-28 1-5-2-1.5.5 1-2-3.5-6.5-1 2v-3l2-1 6 3 1.5-.5 1.5 2.5 12 1 10.5-5.5 3-4-.5-1.5 1.5.5.5-1.5Zm76 0 1.5.5-1.5.5v-1Zm-133 2 6.5 2.5 1.5 4.5 1-2 1.5 3.5-3.5.5-10-3-2 1v-3l1 2 4-6Zm131 0 10.5 5.5 7 10-1 4-1 3-4 11 4 14-5 20-1 3-5 15-1 3-23 39-1 3-5.5 7.5-8.5 5.5-1 7 1 6-7 6-12.5 17.5-4.5 3.5-2 6 2 9-18 15q-10.5 9-8 31l3.5 8.5 1-2 .5 1.5-4 3-4.5 5.5-34 21-7 1-12-7h-2l-1.5-.5.5-2.5 1.5.5.5 2.5 1-3 3-1 18 1 4.5-3.5 7-13-6-5 .5-2.5 3 1 2.5-8.5-5.5-7.5q-3.5-10.5-19-9l-4.5 3.5-3.5 4.5-1.5.5 2 1-1.5 2.5-2.5-.5-.5-2.5-3.5-.5 4-1-.5-1.5-4.5-.5 16.5-11.5h7l28 18 1.5-18.5-13.5-22.5-1.5-.5-10-16 4.5 3.5 4.5-.5.5-2.5 1 3 2.5-.5-2.5-5.5-5-1-3-1-1.5-.5-3-5-14.5-19.5-14.5-13.5-5-11 1.5-7.5q5.5 17.5 19 27l17.5 11.5 24.5 42.5 5 2 39.5-31.5 8-16 6.5-26.5 5 2 .5-2.5-2.5-3.5-3 1-.5-7.5 3.5-5.5 2 3 7 3 4.5-3.5 1-9 24-41v-41l-17.5-7.5h-13L716 672.5l-1.5 2.5-14 3 1.5-2.5 1.5-2.5 14-8 5 1 12-17 9.5-4.5 2.5-6.5 28-11Zm-54 3 5.5 3.5-.5 2.5-5.5-3.5.5-2.5Z"/><path fill="#151B2B" stroke="#151B2B" stroke-width="3" d="m416.5 631 1.5.5-1.5.5v-1Zm227 6 1.5.5-1.5.5v-1Zm-272 1 10 6 5.5 3.5 5 7-2.5-1.5-9.5-4.5-3.5-5.5-5-5Zm92 0 1.5.5-1.5.5v-1Zm174 0 1.5.5-1.5.5v-1Zm-161 3 6 2 3-1 .5 1.5-2 1 4 1-2 1 .5 1.5 4.5.5-6 3-1.5 3.5q-6.82 9.18-21 11l.5-1.5 2.5-4.5 8.5-1.5 2.5-4.5 1.5-.5 1-3-10-8 7.5-1.5Zm184 5 4.5 3.5 1.5 2.5 14 5 1.5-.5v2l.5 1.5 1.5.5-1 4 3 13-2.5.5-22.5-9.5-.5-22.5Zm8 0 .5 1.5h-1l.5-1.5Zm-225 2 6.5 1.5-1.5 4.5-10.5 1.5 7.5 8.5 10.5 2.5-.5 8.5-6 3h-29l-6.5-3.5 1.5-6.5 10.5-3.5-1-4 1-3v-2l.5-1.5 6 1 11.5-4.5-.5-2.5Zm-15.5 7v1h1l-1-1Zm408.5-5 1.5.5 1 5h-1l-1.5-2.5-1.5.5 1.5-3.5Zm-422 2 7.5.5-7.5.5v-1Z"/><path fill="#151B2B" stroke="#151B2B" stroke-width="3" d="m672.5 652 1.5.5-1.5.5v-1Zm13 0 10.5.5-10.5.5v-1Zm-283 2 9.5 3.5-4 1 .5 1.5 4.5.5-7 4-.5 1.5-2.5-1.5-2.5-3.5-5.5-4.5 4.5 3.5 2.5-.5-1-3 1.5-2.5Zm1.5 2v1h2l-2-1Zm431.5-1 1.5.5-1 3 .5 1.5h-2l-1.5-.5 2.5-4.5Zm-4 5 1 2 2-1-3 4-2.5-1.5 2.5-3.5Zm-248 12 4.5.5-.5 5.5-5.5-1.5 1.5-4.5Zm241 1 1 2 2.5.5v2l-.5 1.5-4-1-1.5 5.5 2 1-2 3v2l-1 5 .5 1.5-1.5.5-2 4 .5 1.5h-2l-1.5-.5 2-16v-2l4.5-8.5 3-2Zm-530 4 4 1h2l4.5 2.5 1 4-1.5-.5-4 1-5.5-3.5-.5-4.5Zm542 8 3.5 2.5-.5 3.5-4-1-1.5.5 1-3-.5-1.5 1.5.5.5-1.5Zm-539 2 .5 3.5h-1l.5-3.5Zm3 2 4 1 1.5-.5-.5 3.5-5.5-.5.5-3.5Zm284 1 3.5.5-1.5 53.5-4.5-1.5v-50l2.5-2.5Zm246 3 .5 1.5h-1l.5-1.5Zm-2 3 3.5.5 2 6-1.5-.5-4 1-1.5-3.5 2-1-.5-2.5Zm-522 3 5.5.5-.5 3.5-4-1-1.5.5.5-3.5Zm507 3 1 2 1.5.5-3.5 2.5-1.5-2.5 2.5-2.5Zm-513 4 5.5 12.5h-1l-4.5-12.5Zm305 2 10.5 7.5 2 24-2.5-1.5-1.5-.5-8.5-15.5-6.5 1.5-1.5 2.5-3.5-1.5q.25-10.75 7.5-14.5l4-2Zm214 0 4.5 5.5-7.5 2.5-.5-2.5 3.5-5.5Zm5 2 1.5.5-1.5.5v-1Zm3 7 .5 3.5-6.5 13.5-1-2-2.5-1.5 2.5-6.5 3.5-2.5 3.5-4.5Zm-310 9 10.5 2.5-1.5 15.5-6-5-5 3-2.5 1.5-3 6 2 1-1.5 3.5-1-3-7 9-10.5 5.5-2 7 .5 1.5-1.5-.5-1 3 .5 1.5-1.5-.5 1 2h-2l1 2h-2l-1 2-7 9-3 5-2 4-4.5 6.5-2.5 1.5-2.5 5.5-.5-7.5 6-9-2-1 8.5-9.5 6.5-5.5q8.86-21.64 27-34l9.5-22.5Zm80 2 .5 2.5h-1l.5-2.5Zm-292 3 5 1h2l5.5.5-.5 2.5-8 2-4-6Zm499 1 5.5 3.5 1.5 2.5 6.5.5-5 8v2l-3.5 4.5-7 2v-2l-2 1 .5-1.5-.5-1.5-1.5.5 2-3h-2l2.5-3.5 1 2-1.5.5 5.5.5 2.5-1.5 1-3-5.5-11.5Zm-209 36 4.5 1.5 1.5 10.5 10-1 12.5 4.5-1.5 2.5-10 3-1-3-14-6v2l-16 8 10.5-11.5 3.5-10.5Zm-85 12q15.39-1.89 21.5 5.5l5.5 7.5 7.5 4.5-6.5 1.5-2-3-9-7-12-4-5.5 1.5-.5 9.5-5.5-12.5 6.5-3.5Zm114 1 1.5.5-1.5.5v-1Zm-47 10 .5 1.5-1.5 2.5-1.5.5.5 1.5-2-1v2l-2-1v2l-6.5-1.5 12.5-6.5Zm-67 17 7.5 5.5 9.5 10.5 3.5 2.5 3 9-2.5-1.5-3.5-2.5-2.5-3.5-4.5-3.5-1.5-2.5-4.5-2.5-4.5-11.5Zm101 0 .5 2.5-18.5 26.5q-6.83 5.67-22 3v-1l17-6 2 1 2.5-4.5-.5-1.5 1.5.5-1-2h2l1-2 10-12 .5-1.5 5-3Zm171 27 2.5 1.5-2.5 3.5-2.5-.5 2.5-4.5Zm-227 4 4 1h2l7.5.5-11.5 5.5-10.5-5.5 8.5-1.5Zm-73 1 3.5 1.5 2.5 10.5 3.5 2.5 1 3-1.5 3.5-2.5.5 3 1-.5 1.5-2.5-.5-1-2-1-3-2-3 1-4-3.5-5.5-9 4 5-6 2.5-1.5 1.5-2.5Zm23 16 1.5.5-1.5.5v-1Zm29 0 11.5.5-11.5.5v-1Zm75 0 1.5.5-1.5.5v-1Zm-5 23 3.5.5-3.5.5v-1Zm-6 2 6.5 1.5-12.5 5.5 3-4 1.5-.5-.5-1.5 2 1v-2Zm15 0 2 3 3.5 1.5 3 12-11.5 13.5-2.5.5-.5 1.5-6.5-1.5 12-9 5-9-7.5-9.5-3.5-1.5 6.5-1.5Zm-148 1q5.5 3-1 6l-2 1-.5-1.5 3.5-5.5Zm36 5 5.5 1.5-3 6 7.5 9.5 15.5 7.5-6.5 1.5v-2l-12-5h-2l-7 1-13 10h-7l-10.5-7.5-3.5-4.5-2.5-1.5-1-4 1.5.5 23 6 8-6-2.5 3.5.5 2.5 4.5-3.5 1-2v-2l-1.5-4.5-6.5-.5 11.5-6.5Zm-11 2 1.5.5-1.5.5v-1Zm-32 1 .5 1.5h-1l.5-1.5Zm71 22q13.25-2.25 17.5 4.5l-.5 1.5-6.5.5-2.5 4.5-2.5-3.5-1-3-1.5-2.5-3-2Zm7.5 7v1h2l-2-1Zm44.5-7 14.5.5-3.5 4.5-13 2-16.5-1.5 3.5-4.5 3.5 2.5.5 1.5 11-5Zm-26 1 2.5 1.5 1 3-7.5.5-.5-1.5 4.5-3.5Zm-1 6 2.5.5-2.5.5v-1Zm15 0 1.5.5-1.5.5v-1Zm27 0 2.5 1.5-1.5 2.5-2.5-1.5 1.5-2.5Zm-48 1 1.5.5-1.5.5v-1Zm12 0 1.5.5-1.5.5v-1Zm-81 17 47.5 11.5-11.5 5.5-34-12-7.5 16.5 4 3 2 12-2.5-1.5-2 1-1-2-3-2-1.5.5v-2l-.5-1.5-1.5-.5 1-4-3.5-9.5-2.5-.5 1.5-2.5 2.5-1.5 4.5-5.5 8-5Zm137 2 3.5.5-3.5.5v-1Zm-7 2 7.5 1.5q-5.12 6.88-18.5 5.5l2.5-3.5.5-1.5 8-2Zm18 0 26.5 3.5 2 3-26.5.5-10.5-5.5 8.5-1.5Z"/><path fill="#151B2B" stroke="#151B2B" stroke-width="3" d="m660.5 942 3.5 1.5-2 1 7 5 3 5-1 4-1 3-11.5 19.5-10.5 7.5-3 4 .5 1.5-4 2-37 16h-9l-16-9-16 8 .5-1.5-.5-1.5-6.5 3.5.5 1.5-2-1v2l-2-1v2l-2-1-2.5 1.5.5 1.5-2-1v2l-3 1-4.5-1.5-2-3 8.5-.5 25-16 11-2 18 12 23-12h7l9.5-7.5 5.5-9.5 12.5-8.5 2-21v-2l-.5-2.5-2.5-.5 3-1 .5-1.5Zm-126 2 1.5.5-1.5.5v-1Zm58 0 1.5.5-1.5.5v-1Zm3 0 1.5.5-1.5.5v-1Zm-115 35 7 9 10.5 4.5 1.5 3.5 8.5.5 1.5 2.5 23.5 14.5-6.5 1.5v-2l-2 1v-2l-5-2-1.5.5.5-1.5-2 1v-2l-2 1v-2l-2-1-3-1-27.5-15.5-1.5-10.5Z"/><path fill="#151B2B" stroke="#151B2B" stroke-width="3" d="m564.5 1012 3.5.5-3.5 1.5v-2Z"/><path fill="#EECA46" stroke="#EECA46" stroke-width="3" d="m651.5 330 17.5.5-11.5 4.5-6-5Z"/><path fill="#EECA46" stroke="#EECA46" stroke-width="3" d="M675.5 330h8l24.5 9.5-.5 2.5-5.5.5q-2.33 12.83 3.5 17.5l2.5.5-24 41-6 18v13q10.83 12.67 6 41L671.5 489 655 500.5l-7.5 12.5q-8.83 6.67-28 3l-5-11-9-1q-7.75 9.75-23 12l-12.5-9.5-1.5-2.5-8.5 6.5-8.5 14.5-7 2q-24.33-9.17-37.5-29.5L496.5 482l-15-2-3 30-2.5.5-1 9 1.5 2.5 3.5 1.5-1.5 4.5-4.5.5.5 2.5 11.5 3.5-2.5 5.5-9-6-1 2-12.5-2.5 1-2-11.5-3.5-1 3-23-9-.5 3.5 1.5 2.5-12-6h-34l-3.5-3.5 1.5-8.5q4.19 7.31 17 6 13-11 42-6l9.5-7.5 2-4v-42l12-18v-13L445.5 406q-31.25-9.25-52.5-28.5l-3.5-17.5-5.5-.5.5-2.5 42-21h14l-2.5 3.5-11 22 5.5 7.5 37 26 9-3 13.5 6.5q5.25 19.75 18 32v21l-5 12 11.5 13.5 18 12 11 3 15.5-12.5q6.65-7.35 3.5-24.5l3 1 2.5-5.5-4.5-.5-1.5.5.5-7.5 2 1 2.5-7.5-2.5-3.5-2-1-1 5-4.5-13.5 7.5-21.5 3.5 2.5q-1.59 14.59 6 20v26l-2.5 5.5-3.5 2.5 12.5 24.5 7 2 7.5-5.5q6.83-9.17 3-29-7.59-5.41-6-20l4.5-6.5 10-3 6.5 4.5 3 5v37l6.5 9.5 11 3 9.5-6.5 2-7q-12.8-11.2-16-32l14-15 13.5-31.5 16.5-10.5 3-6v-38l-2.5-3.5Z"/><path fill="#EECA46" stroke="#EECA46" stroke-width="3" d="m466.5 331 11.5 4.5q-15.67-2.67-22 4l-.5 2.5-5.5-.5 2.5-5.5 14-5Zm59 11 12.5 5.5-4.5.5-8-6Zm75 0 1.5.5-11.5 5.5v-1l10-5Zm109 0 22.5 9.5-.5 2.5q-16.45-1.31-22-12Zm-154 6 17.5.5-9.5 5.5-8-6Zm147 168 5.5 3.5-10.5 2.5v-1l4.5-2.5.5-2.5Zm-331 4 .5 4.5q-5.07 5.43-17.5 3.5l-.5-2.5 17.5-5.5Zm307 2 17.5.5-.5 2.5q-7.17 5.83-23 3l.5-1.5 2.5-3.5 3-1Zm-24 6 11.5.5-3.5 5.5-8.5-3.5.5-2.5Zm-13 6 .5 2.5-7.5 3.5 3-4 4-2Zm-137 12 5.5 3.5-.5 2.5-5.5-3.5.5-2.5Zm51 36 10 16 20 2 2.5-1.5-6 13v79q-10.41 10.59-6 36l6 9v39l-3.5 5.5q-10.93 8.57-33 6l-11.5-8.5q2.25-12.25-4.5-15.5l-23 12q-5.75-3.25 1.5-6.5l8.5-20.5 3-1 2.5 1.5 1.5 2.5 7.5-5.5 9-18v-49l-2.5-5.5-3.5-1.5 1.5-76.5 20-12Zm-4.5 43-4 2-7 10v17l12 30v38q-9 8-6 30l-6 10q-4 14 3 18 14 3 21-3l6-9q5-29-6-40-3-19 6-26v-59l-3-6-16-12Zm-134.5-31 4.5.5-1 4 .5 1.5-6.5-2.5 2.5-3.5Zm217 24 2.5.5-9.5 11.5-2.5-2.5 9.5-9.5Zm-13 18 3.5 2.5-.5 3.5-5.5-.5 2.5-5.5Zm-210 6 4.5.5-1 4 .5 1.5-6.5-2.5 2.5-3.5Zm15 0 21.5.5 2 5-23.5.5.5-1.5-.5-4.5Zm249 0 4.5.5-1 4 .5 1.5-6.5-2.5 2.5-3.5Zm-224 2 1.5 3.5-1.5.5v-4Zm42 10 5.5.5 2.5 5.5 3.5 2.5-6.5 16.5-3-1-2.5 3.5 4.5 2.5 1.5-.5v12l-12 18v18l-12 24-1.5 18.5-13-5-17 10-22-17q-14.5 4-18.5-2.5l-2.5-9.5-3.5-1.5q.99-23.99-13.5-32.5l-16.5-4.5-2.5-3.5-3.5-1.5-2.5-10.5-3.5-1.5q2.36-19.86-5-30l5.5-7.5 7-2q6.5 7 22 5l9.5 6.5 5.5 10.5 20 7h20l41-20 13-10Zm-2.5 6-10 12h3l9-11-2-1Zm-46 24-14 11-19 3-2 3 2 7 10 6h11l12-6q16 3 24-3l5-7-2-7q-7-11-27-7Zm180.5-24 23.5 9.5 3.5 7.5 12 7 2.5-3.5-1.5-2.5 23 12 2.5-3.5-1.5-2.5 7.5 3.5.5 1.5 2 1 9-6q14.42 2.93 18.5-4.5l3.5-7.5 2.5.5v29L717.5 724l-28 23-7 2-19.5-17.5-2-7 4-13-6.5-7.5-31.5-20.5-8-20 5.5-3.5Zm191 64 .5 8.5-1.5-.5-4.5-2.5 2.5-3.5 3-2Zm-509 2 5.5 2.5-2.5 3.5-3.5-2.5.5-3.5Zm284 18 3.5 2.5-.5 4.5-3-1-2.5 1.5 2.5-7.5Zm10 6 8.5 6.5 3 8-8.5 3.5q-7.37-3.87-3-18Zm-105 36 5.5.5-3 5 12 16v15l7.5 21.5 19.5 7.5-29.5.5-7-11-8.5-3.5-7.5-9.5-10.5-.5-.5-5.5-5 2-.5-7.5 11.5-14.5 1 2 9.5-7.5 2-4-2-1 5.5-5.5Zm131 1 3.5 2.5q1.93 14.07 12 20l-11.5.5-10-6-2.5 1.5q-1.79-15.29 8.5-18.5Zm-39 56 .5 5.5q-3.25 6.75-16.5 3.5l-1.5-4.5 17.5-4.5Zm-42 3 6.5 1.5-1.5 4.5-5.5-.5 1-4-.5-1.5Zm55 0 11.5 3.5-1.5 2.5q-8.75 1.75-10.5-3.5l.5-2.5Zm-63 42 26.5 9.5-1.5 6.5-4.5 1.5 5 1-4.5 2.5-1-3-9 5-7.5-4.5-1-3-3.5-9.5-2.5 1.5-.5 7.5-4.5-6.5 2.5-3.5 6-5Zm9.5 6 1 11h2l2-7-5-4Zm44.5-6 7.5.5-5 3 .5 8.5 5-3 .5 5.5-6.5 3.5-17.5 1.5-3.5 4.5-2.5-11.5 6-2 .5-5.5 3.5 2.5 4.5 9.5 1.5-.5 2-10-5-1 8.5-5.5Zm-36 60h17l37.5 17.5 1 3-5.5 6.5-17 3-7.5-4.5.5-1.5 3.5-.5 3-9-1.5-2.5-20-11q-5.21 6.79-19 5v-1l8-5Z"/><path fill="#EECA46" stroke="#EECA46" stroke-width="3" d="m533.5 954 9.5.5-3 5 12.5 6.5 23.5 2.5 1 3q-18.79-2.29-24 9l-3.5 8.5-12-4q-5.83 6.67-20 5l-9-12-10.5-1.5 2.5-14.5 7-2 6 5 2.5-1.5 1.5-3.5 16-6Z"/><path fill="#68502B" stroke="#68502B" stroke-width="3" d="m641.5 330 5.5.5-15.5 5.5v-1l10-5Zm-234 12 5.5.5-12.5 6.5-3.5-1.5 10.5-5.5Zm302 30 4.5 1.5v83l12 17v13q7.24 4.76 6 18l-7.5 9.5-14 2q-6.75-4.25-2.5-19.5l2.5 1.5 3.5-.5-.5-11.5-5 2-.5-114.5 1.5-1.5Zm53 4 1.5.5 5.5 19.5 10.5 2.5-1.5 9.5-16.5 1.5q-4.06 24.06 6 34v49q-9.35 8.65-6 30l3.5 5.5 2.5 1.5-1.5 4.5-4.5-2.5-2-3 1-3-11-15v-115l1.5.5 4.5-.5-.5-5.5-5 1-.5-7.5 3.5-4.5 8.5-1.5.5-1.5Zm-402 5 1.5.5 2.5 3.5 1.5.5-.5 2.5-1.5.5-10 20 18 23v55L348.5 527l-.5-35.5-6-11v-67q5.33-16.67 18-26l.5-6.5Zm37 33 4.5 1.5-1.5 16.5-4.5-1.5 1.5-16.5Zm445 6 3.5 2.5-2.5 3.5-3.5-2.5 2.5-3.5Zm-504 120 3.5 2.5-2.5 3.5-3.5-2.5 2.5-3.5Zm166 0 11.5 1.5q.88 12.62 9.5 17.5l3.5 2.5 5 9-5.5 10.5-2-9-10.5-4.5-1-5 4.5 1.5 2.5-.5-5.5-7.5-1.5.5-10.5-16.5Zm104 6 3.5.5.5 5.5 1.5.5-11.5 17.5-8 2-.5-8.5 12.5-15.5 1.5-.5.5-1.5Zm-249 6 3.5.5q-5.75 2.75-3 14l9.5 9.5h27l5.5-3.5.5-4.5 29.5 10.5-1.5 9.5-11.5-.5 1-4-5.5-1.5-.5 4.5.5 1.5q-13.24 1.24-18-6l-30.5-1.5q1.75-8.75-3.5-10.5l-8.5-1.5 1.5-14.5 4-2Zm364 0 9.5.5-1 4 10.5 1.5 1.5-4.5-.5-1.5 6.5 1.5q2.41 11.91-3.5 15.5l-15 1-9.5-7.5-2-7 3.5-3.5Zm-44 30 4.5 1.5-1.5 4.5-4.5-1.5 1.5-4.5Zm18 0 4.5 1.5-1.5 4.5-4.5-1.5 1.5-4.5Zm-170 7 .5 33.5h-1q-7.17-6.83-5-23l5.5-10.5Zm-114 5 1.5.5-1 4 .5 1.5-6.5-2.5 5.5-3.5Zm264 0 6.5 2.5-2.5 3.5-4.5-.5 1-4-.5-1.5Zm-84 7 .5 5.5-5.5 10.5-.5-5.5 5.5-10.5Zm-131 3 5 2 1-2 19.5 20.5-2.5 1.5-22.5-19.5-.5-2.5Zm188 2 3.5 2.5-2.5 3.5-3.5-2.5 2.5-3.5Zm-299 25 2.5.5 1.5 2.5q16.61.89 23.5 11.5l1 3-1.5-.5-24-12-2 4-20.5 15.5-2 23 44 76 47.5 53.5 22 8h15l3.5-2.5 1 9-1.5 6.5-4-1-3 24-16.5-1.5q-1.89-17.61-15.5-23.5l-14.5-6.5-2-9-14-15-28-51-32-45-2-17-6-11v-13l13.5-21.5 14-7Zm176 6 .5 17.5-8.5 11.5-1.5-.5-16-22 2.5-1.5 12 6 8.5-5.5 2.5-5.5Zm60 0 1 5 3.5 1.5 3.5 16.5 9.5-3.5 9.5-14.5 3-2 1 2 5.5-.5.5-1.5 20.5 2.5-3 3-1.5 14.5-2.5-.5-2.5-3.5-9-7-10.5 9.5-3 5q9.81 9.19 5 33l12 35v19l5.5 8.5 24.5 10.5q2.27 17.73 13.5 26.5l17 2 21.5-19.5 28-51 14-15 2-11 18-35v-7l-7.5-9.5-17-2-9.5 7.5-5.5 9.5-16 11-9 2v-1l6.5-3.5 4.5-5.5 25-24 17-2 17.5 7.5v41L752.5 743l-3 1-7.5-4.5-.5-1.5-3.5 5.5v19q-7.24 4.76-6 18L718.5 802l-35 26-9.5-7.5-23.5-41.5-24.5-18.5q-12.17-12.33-8-41l-7.5-9.5-5-2-9.5 7.5-2.5 17.5-4-1-1.5.5-.5-42.5-5 2-.5-14.5 1.5.5 4.5-.5-.5-5.5-5 1-.5-25.5 5.5-10.5Zm-126 5q14.57-1.57 17.5 8.5l-1.5 3.5-3 2-1-2-5.5 1.5 1 4-5 2-2 4 5 1-10.5 7.5-1-8q-13.25-.25-17.5-9.5l1.5-2.5 10.5-1.5-1-4 13-2-.5-4.5Z"/><path fill="#68502B" stroke="#68502B" stroke-width="3" d="m651.5 642 8.5 2.5v22l3.5 4.5 20 7 23.5.5-17.5 5.5q-6.71-8.29-24-6L649 664.5q6.5-5.5 5-19l-2.5-3.5Zm-158 5-1 4-8 4-.5-1.5 1.5-2.5 8-4Zm-104 6 13.5 10.5 1.5 2.5 1.5-.5.5-1.5q5-6 18-4l1.5 4.5-12 5-.5 5.5-26.5-20.5 2.5-1.5Zm-93 19 3.5 2.5-1.5 3.5-4.5-1.5 2.5-4.5Zm527 6 4.5 1.5-2.5 4.5-3.5-.5 1.5-5.5Zm-522 6 4.5 1.5-1.5 4.5-4.5-1.5 1.5-4.5Zm-11 6 3.5 2.5-2.5 3.5-3.5-2.5 2.5-3.5Zm6 12 3.5 2.5 8 21-2 1-.5 4.5-11.5-26.5 2.5-2.5Zm11 0 4.5 1.5-2.5 4.5-3.5-2.5 1.5-3.5Zm522 0 4.5 1.5-2.5 4.5-3.5-2.5 1.5-3.5Zm-8 12 6.5 2.5-6.5 7.5-2.5 1.5-1 5 3 2-2.5 5.5-3.5-.5q-.82-15.32 7-22l-.5-1.5Zm-310 6 16.5 1.5-.5 6.5-10-2-9.5 22.5-19 19-13.5 20.5-8.5 7.5-4.5 7.5-.5-15.5 16-9q9.05-9.95 9.5-28.5l2.5.5.5 1.5 5 3 16-35Zm83 19 7.5 10.5-2 1q-3.97 21.47 7.5 27.5l3 1 1.5-.5-10.5 1.5-3-12-4.5 1.5q-1.34 15.66-13.5 20.5-10.33 11.17-35 8l-11.5-8.5-2-4 1.5.5q9.33 9.17 31 6l20.5-11.5 9-12 .5-29.5Zm-67 4 .5 3.5q-3.75 7.25-7.5-.5l-1.5-.5 8.5-2.5Z"/><path fill="#68502B" stroke="#68502B" stroke-width="3" d="m582.5 743 4 1 1.5-.5-1.5 6.5-4.5-1.5.5-5.5Zm-268 7 3.5 2.5-2.5 3.5-3.5-2.5 2.5-3.5Zm301 36 4.5.5-7.5 16.5-.5-13.5 3.5-3.5Zm39 22 9 15 5.5 4.5q11.83 10.17 9 35l-2.5 1.5-23-16-11-2-18 12-10.5-5.5 11-2-3.5-5.5-1.5-.5 6.5-8.5 17-2q6.94 11.06 24 12l5.5-3.5-17.5-34.5Zm-43 3 .5 11.5-7.5 9.5-10 5-.5-3.5 17.5-22.5Zm-96 9 5.5 3.5 3 4-4.5.5-4-8Zm13 12 11 8 17.5 5.5-11.5.5-17.5-7.5.5-6.5Zm-45 3 2.5.5-.5 5.5-3-1-3 4-16 8-1.5-8.5 3.5 2.5 18-11Zm86 5 5.5.5-15.5 5.5v-1l10-5Zm-79 12 12.5.5-9.5 5.5-3-6Zm164 28 11.5 3.5-9.5 15.5-19 1-1.5-7.5 2-1-1 2 5.5.5 11.5-9.5.5-4.5Zm-135 2 7.5 5.5q-12.15-1.65-17 4l7.5 12.5 15.5 7.5-5.5.5-21.5-13.5-2-7 15.5-9.5Zm86 0 10.5 7.5 2 5-9.5 12.5q-4.88 7.12-19 5v-1l20.5-12.5 2-5-3.5-4.5-13.5-1.5 10.5-5.5Zm-142 6 13.5 1.5-1.5-.5-1.5.5q.25 10.75 7.5 14.5l12-4-3 4-11 2-17.5-7.5 1.5-10.5Zm84 0 15.5 5.5-5.5.5-10-6Zm16 21 .5 7.5-4.5 1.5-3-5-5.5 3.5-.5 1.5-3.5-.5-2.5-3.5-3.5-1.5q16.48 3.48 22.5-3.5Zm7 2 10.5 1.5-10.5 4.5v-6Zm-89 31 15.5 5.5q-14.41-.91-17 10l-.5 7.5-4-6-1.5-.5 7.5-16.5Zm136 0 12 6 30.5 1.5q3.75 20.75-7.5 26.5l-9.5 5.5-8.5 12.5-35 14q-6.94-11.06-24-12l-29 18h-13L508 997.5l-.5-1.5-9.5-1.5 1.5.5 5.5-3.5.5-1.5 2.5.5.5 1.5 25 16h13q12.2-15.8 34-22l20 16 40.5-27.5 1-9-13.5-15.5-21.5-2.5 10.5-5.5Zm-118 6 15.5 5.5-5.5.5-10-6Zm28 0 11.5.5q-6.11 7.39-21.5 5.5v-1l10-5Z"/><path fill="#68502B" stroke="#68502B" stroke-width="3" d="m589.5 948 15.5.5-5 3-1.5 2.5-4.5-1.5-1.5-2.5-3-2Zm-109 19 9 16 8.5 2.5-.5 6.5-15.5-9.5-1.5-15.5Z"/><path fill="#F0D276" stroke="#F0D276" stroke-width="3" d="m648.5 330 14 5 12-5 3.5 3.5v38l-6.5 9.5-14.5 8.5-7 21-18 22-1 9 16 28-5.5 7.5-11 3-9.5-6.5-3-6v-37l-4.5-6.5-10-3-6.5 4.5-3 14q10.06 9.94 6 34l-6.5 9.5-7 2-7.5-5.5-3-13-6-8 4-3 2-31q-7.41-5.09-6-19h2l-1.5-2.5-3-1-3 2-2.5.5.5 1.5 1.5-.5-5 24 5 8v31l-1.5-.5-3.5.5 1 3-1 2 3.5.5 1.5-.5-12.5 15.5-11 3-33.5-24.5-2-7q8.75-8.75 5-30L489.5 396l-15-4-8 3-37.5-29.5-2-7 14.5-22.5 10.5.5-2 5 5.5.5 2-4 4-2h48l24 12q21.63-4.12 29.5 5.5l-4 1 8.5.5v-1l-2.5-.5 9.5-5.5 1.5 2.5-3 2 .5 1.5-16 2-24-2-39-12h-15l-6.5 4.5-9 28 6.5 12.5 13-2 38 28 27 1 10.5-5.5 4.5-7.5 5-1 4.5 3.5 4.5 7.5 11 2q12.25-8.75 36-6l20.5-12.5 8-34-13-21 2-1-.5-2.5-6.5 3.5.5 1.5h-2l-9.5-2.5 1.5-2.5q16.62 2.12 23-6Z"/><path fill="#F0D276" stroke="#F0D276" stroke-width="3" d="m602.5 342-2.5 3.5.5 2.5 16-6 .5 4.5q-3.65 12.85-20.5 12.5l-4.5-3.5-1.5-2.5-2.5-1.5 14.5-9.5Zm-173 180 13.5 5.5-8.5.5-5-6Zm22 6 10.5 3.5-1.5 2.5-9-6Zm23 6 7.5 5.5-1.5.5-6.5-3.5.5-2.5Zm76 91 16.5 11.5 3 6v59q-8.65 7.35-6 26 11.12 11.88 6 40l-6.5 9.5-6 3 .5-1.5-.5-1.5-5.5.5 1 2-10.5.5-2.5-6.5 1.5.5 1.5-.5-1-7 2-4-2.5-.5-1.5.5 6-11v-19q8.36-7.64 6.5-25.5l2 1 1.5-3.5-2-23-1.5-3.5-1 5-11.5-29.5v-17l6.5-9.5 4-2Zm7.5 64-1 8h1v-8Zm-9 73-3 1-3 4 2 7 7 2 7-1 2-6-12-7Zm167.5-126 3.5 2.5-2.5 3.5-3.5-2.5 2.5-3.5Zm-301 6 10.5 1.5-1.5 4.5-10.5-1.5 1.5-4.5Zm264 0h20l2.5 2.5-2.5 3.5-21.5-1.5 1.5-4.5Zm-190 18 2.5.5-9.5 11.5-2.5-.5 9.5-11.5Zm5 18 3.5 1.5-1.5 4.5-4.5-2.5 2.5-3.5Zm-51 6q20.66-3.66 27.5 6.5l2 7-5.5 7.5q-7.5 6-24 3l-12 6h-11l-9.5-6.5-2-7 1.5-2.5 19-3 14-11Zm46 108 2.5.5-7.5 9.5-4 2-.5-2.5 9.5-9.5Zm40 54 16.5 1.5-1.5 4.5q-12.63 1.4-15-6Zm70 42 1.5.5-4.5 11.5-2.5-.5 1.5-9.5 4-2Zm-64 6 2.5 1.5 4 10-5.5.5-2.5-10.5 1.5-1.5Zm11 0 5.5 3.5-2.5 7.5-1.5-.5-1.5-10.5Zm33 0 8.5.5-2.5 10.5-1.5-.5-4.5-10.5Zm-13 55 18.5 10.5-3 1 2.5 5.5 3-1 .5 1.5-3.5 5.5-7.5-.5-1.5-3.5-23-2-12.5-6.5 3.5-5.5 11.5.5-3 4 1.5-.5 4.5-.5-1-3 9.5-5.5Zm15.5 14-1 2h1v-2Z"/><path fill="#F0D490" stroke="#F0D490" stroke-width="3" d="m618.5 336 6.5.5-1 2 9.5 2.5 8-5 .5 2.5-2 1 11 16 2 10-7 27-5.5 6.5-20 9h-21l-18 5-6.5-4.5-4.5-7.5-5-1-4.5 3.5-4.5 7.5q-10.86 6.14-31 3l-40-28-9-1-6 2-6.5-17.5 11.5-25.5 19-2 39 12 36 2 4.5-2.5-.5-1.5 2.5-1.5-1-2 17.5-.5v1l-4.5 2.5 4 3 .5 1.5 11 3 13.5-12.5-.5-4.5-16 6-.5-2.5 18.5-9.5Z"/><path fill="#F0D490" stroke="#F0D490" stroke-width="3" d="m559.5 354 8.5.5-8.5.5v-1Zm4 49 .5 1.5-3 2 2.5-3.5Zm7 0 2.5 3.5-3-2 .5-1.5Zm-11 65 4.5 1.5-1.5 4.5-3.5-.5 1-4-.5-1.5Zm-133 54 7.5 5.5-4.5.5-3-6Zm24 6 7.5 5.5-4.5.5-3-6Zm102 150 1.5 3.5 2 24-1.5 2.5-2.5-1.5.5-28.5Zm5 11 .5 7.5h-1l.5-7.5Zm-16 73 2.5.5-1 3h1l1.5-2.5 3-1 12.5 6.5-2.5 6.5-7 1-6.5-2.5-2.5-7.5-.5 4.5 1 3-1.5.5-1.5-10.5 1.5-1.5Zm11 15 5.5.5-1.5 2.5-4.5-1.5.5-1.5Zm3 177 2.5 1.5-.5 2.5-5 1-.5-1.5 3.5-3.5Zm27 6 5.5 2.5-1.5 3.5-2.5-.5-1.5-5.5Zm-1 3 .5 1.5h-1l.5-1.5Z"/><path fill="#E3AF38" stroke="#E3AF38" stroke-width="3" d="m708.5 340 3.5 1.5-3 1 12.5 9.5 10 2 1-2 11.5 4.5 1.5 9.5 4.5 3.5-2.5 6.5-15 2-22-16-2.5 3.5-.5 153.5-5-3-2 4-3.5 1.5 3 1-3.5 1.5-1-2q-16.31-3.31-22.5 3.5l-1 2 4 1-12.5 5.5 2.5-3.5-.5-2.5-11.5.5 3 5-14.5 2.5-1-2q-3.29 7.71-16 6v-1l4.5-2.5-6-3-6-18 1.5.5q23.47 4.47 31.5-6.5l10.5-15.5 19.5-14.5 3-6v-29q-8.17-7.33-6-25l20-46 10-13-4-2-2-16 6-1 .5-1.5Zm-320 25 1.5.5q-1.22 12.22 6.5 15.5 18.93 15.57 46 23l15.5 14.5q6.36 5.64 4 20l-12 18v42l-7.5 9.5-34 2-19 6-10-6-1.5.5 2.5-4.5 9-2 10 5 5.5-4.5 3-6v-42l6-12v-25l-4.5-7.5-10-3-2.5 1.5-1.5 21.5-20.5-18.5-3-11q8-7 6-24l8.5-12.5 2-1Zm176 67 3.5 2.5 1 5-2.5 4.5-2.5-1.5.5-10.5Zm1 18 4.5.5-2.5 5.5-3.5-1.5 1.5-4.5Zm-80 30q14.57-1.57 17.5 8.5 7.37 20.63 25.5 30.5l19 8 7.5-5.5 11.5-17.5-2.5 3.5 3.5 8.5 2.5-.5.5-8.5q4.79 8.21 17 9l18-12h7l5.5 4.5-.5 2.5-2-1-12.5 11.5-9 18v45l-8.5 15.5q-20.03 3.53-25.5-7.5l-4.5-10.5-21 13-.5-6.5q9.17-9.33 6-31l-9-18-42-48-3.5-11.5Zm81.5 73-3 2-6 9q-4 14 3 18l3-2 6-9q3-14-3-18Zm-87.5-44 .5 13.5-1.5-.5-2.5-.5-1-9 1.5-2.5 3-1Zm-110 7 2.5.5-2.5 5.5-4.5-.5 1.5-3.5 3-2Zm366 1 8.5 2.5-1.5 2.5-10.5-1.5 1.5-2.5 2-1Zm-377 5 1.5.5-4.5 2.5 1-2 2-1Zm-5 4 1 2 3.5.5-7.5 5.5q-6.5-4 3-8Zm126 1 3.5 6.5-3.5.5-5.5-3.5.5-2.5 5-1Zm-39 1 11.5 5.5-1.5.5-10-6Zm58 12 3.5 1.5 1.5 3.5 2.5.5-2 1-.5 1.5-5-8Zm125 0 .5 2.5-5.5 3.5.5-1.5 2.5-3.5 2-1Zm-113 10 4.5 7.5-1.5.5-5-6 1.5-.5.5-1.5Zm-89 44 22.5 1.5-1.5 4.5-22.5-1.5 1.5-4.5Zm166 7 .5 19.5-5.5 8.5-.5-17.5 5.5-10.5Zm-95 29 2.5.5 2 4-1.5-.5-3.5-1.5.5-2.5Zm-136 13 29.5 16.5-2.5.5q-16.67 1.67-25-5l-7.5 5.5-2 7q7.17 6.83 5 23l-1.5.5-10.5-19.5v-11l14.5-17.5Zm144 6 1.5.5 8 17v23l-6 12v18l-8.5 22.5-8.5 4.5-1 12-15.5 21.5-2.5-.5-2.5-5.5q-6.42 5.58-3.5 20.5l-3.5 3.5h-14l-18-6-15.5-12.5-12-18-3-12 1.5.5 2.5.5 4.5 11.5h16l25 17q5.1-9.4 19-10l8 5 1.5-18.5 12-24v-18l12-18q-3.16-22.66 6-33l-6-5-.5-3.5-3.5-.5 6-2 .5-2.5Zm126 6 5.5 4.5-2.5.5-10.5 3.5 11.5 23.5 33.5 22.5 1 8-4 10 17.5 19.5 7 2 32.5-25.5 14-22 .5-25.5 3.5.5.5-2.5 1.5-.5 3.5-7.5 2.5.5 6 17-15 30-26 33q1.7 23.7-13.5 30.5-10.17 7.33-32 3l-3.5-7.5 2.5 1.5 3.5-.5-6.5-9.5-23.5-5.5q3.71-22.71-6-32l6-1-18-39v-23l4-3 4.5-5.5Zm-238 7 5.5 4.5 1 3h-1l-4.5-6.5-1-1Z"/><path fill="#E3AF38" stroke="#E3AF38" stroke-width="3" d="m634.5 662 3.5 1.5-1.5.5-2-2Zm5 2 5.5 3.5-1.5-.5-4-3Zm7 4 17.5 9.5 2 4-4.5.5-13.5-8.5-.5-4.5-1-1Zm-250 2 5.5 4.5 1 3-2.5.5-3.5-2.5-2-4 1.5-1.5Zm138 1 3.5 1.5 2 5v49L528.5 747l-.5-22.5 2.5 1.5 3.5-.5.5-54.5Zm194 1-2.5 3.5-3.5 7.5-13 1v-1l19-11Zm-320 6 2.5 1.5-1.5-.5-1-1Zm33 0 5.5.5-13.5 5.5v-1l8-5Zm228 0q13.37-1.38 18.5 5.5l2 4-4.5.5-16-10Zm-257 2 3.5 1.5-1.5.5-2-2Zm281 4 13.5.5-8.5 5.5-2.5-1.5-2.5-4.5Zm-112 7 .5 43.5-3-2q-7.17-9.83-3-31l5.5-10.5Zm-227 4 3.5 1.5 2 6-1.5.5-2.5-1.5-1.5-6.5Zm6 12 5.5 3.5 2.5 3.5q16.74-2.24 20.5 8.5l7 22-1.5-.5q-18.67-3.33-25.5-18.5l-8.5-18.5Zm230 43 3.5 1.5v13q-10.48 5.02-12.5 18.5l-18 9h-12L531 779.5l-3.5-16.5-1.5-.5 3.5-.5 7 18q6.9 9.6 27 6l16.5-7.5 2.5-23.5 3 1 5-6Zm-68 14-7 8-5 2v-1l12-9Zm89 1 .5 7.5-2.5 1.5-5-6 7-3Zm10 21 8.5 2.5-2.5-1.5-7.5 6.5-1.5 3.5-.5-7.5 3.5-3.5Zm-121 1 1.5.5 8 19-6-5-6-11 2.5-3.5Zm130 3 6.5 4.5 5.5 7.5 3.5 1.5 1.5 3.5 5.5 2.5-2 1 3 11-23.5.5-12.5-6.5 2.5-11.5q5.44 8.06 21 6l.5-2.5q-11-5-11.5-17.5Zm-120 27 5.5 15.5h-1l-4.5-15.5Zm-40 5 3.5.5.5 5.5 7.5.5-1.5 2.5-12 9-6.5-12.5 1.5.5 3.5-.5 3.5-5.5Zm16 9 8 9 8.5 3.5 4 8-10.5.5 1.5-2.5-.5-3.5-9.5-7.5-1.5-7.5Zm30 8 12.5 5.5-.5 1.5-11.5-2.5-.5-4.5Zm69 1 4.5.5q-2.12 6.87-12.5 5.5v-1l8-5Zm15 0 11.5.5 8 11-8.5.5.5-1.5-1.5-2.5-10-2-.5 2.5 2.5 3.5-8.5-3.5 2.5-6.5 4-2Zm-49 6 6.5 1.5-1.5 4.5-5.5-.5 1-4-.5-1.5Zm18 0 1.5.5-1 4 .5 1.5-6.5-1.5 1.5-2.5 4-2Zm82 30 2.5 6.5-1.5-.5-10 6-.5-2.5 9.5-9.5Zm-132 12 17.5.5-6 5-2 4 6.5 8.5 14 5 7-5-1 2q-4.6 6.4-18 4l-15-12-.5 3.5 1.5 2.5-7.5-3.5 3.5-14.5Zm58 0 13.5.5-13.5 5.5-1.5-4.5 1.5-1.5Zm25 0 3.5 6.5-5.5 7.5-.5-11.5 2.5-2.5Zm-39 15 .5 5.5-5.5 2.5-.5-1.5 5-3-5-1 5.5-2.5Zm18 3 11.5.5-11.5 5.5.5-1.5-.5-4.5Zm-38 42 11.5.5q-4.84 7.66-19.5 5.5v-1l8-5Zm30 0h11l15.5 6.5 3 5-2.5 1.5-27-13Zm-75 6 18 6 16-6v1l-15.5 5.5-1.5 3.5-3 1-8-5-4.5 2.5-2.5 10.5-3.5-2.5-1-6 5.5-10.5Zm106 8 3.5 1.5-1.5.5-2-2Zm5 2 4.5 2.5.5 1.5 1.5.5 2 9-12.5 15.5-7 2q-8.13-14.87-35-11l-18 12h-17l-7.5-4.5.5-1.5 21-5 7 4 10-15 21-2 3 4 16 2 11.5-8.5-2-3 .5-2.5Zm-111 13 6.5 1.5-1.5 5.5-3.5-1.5-1.5-5.5Zm12 4 6.5 8.5-1.5.5-3.5-2.5-1.5-6.5Z"/><path fill="#D29031" stroke="#D29031" stroke-width="3" d="m467.5 330 1.5.5-1.5.5v-1Zm-84 28 1 2 5.5.5-.5 4.5-3.5 1.5-8 12v12l-6 17 18.5 21.5 5 3h2l4.5-1.5-1.5-16.5-4 1-.5-1.5 1.5-3.5 8-1 5.5 4.5q7.17 9.83 3 31l-6 12v42l-5.5 8.5-4 2-14-5-4.5 2.5-2 13 1.5 2.5-7 3-1-9-5.5 2.5-1.5 3.5q-12.86-.36-16 9l-.5-3.5 24-41v-55l-18-24 10.5-19.5 1.5-.5-.5-2.5-3.5-2.5 21.5-24.5Zm327 4 22 16h11l4.5-2.5 2-6-2.5-3.5 14.5 9.5-.5 2.5-10.5 3.5-1 129 11 16-1.5-.5-16.5-4.5 1-2-8.5-2.5-3.5 2.5 1 2-25.5.5.5-1.5.5-6.5 12 2 9.5-7.5 2-11q-8.29-6.71-6-24l-12-17-1.5-84.5-4 1-.5-7.5 2.5-3.5Zm-228 118 3.5 1.5 3 10 44 51q10.02 10.48 7 34l-6 12-.5 137.5-5.5-2.5-1.5-3.5-16.5 1.5-14.5 33.5-5.5-3.5-.5-1.5-3 1-.5-1.5 1.5-3.5 8.5-4.5 8-22v-18l6-12v-23l-8.5-17.5-1.5.5-.5 2.5-44 24 6-7 33.5-20.5-.5-1.5 7-4 17 23 1.5-.5 8-11v-73l6-12-7.5-10.5-6.5-5.5-5.5-13.5-10.5.5 9 11-10-7-2.5-4.5-2.5.5-.5 2.5-12.5-3.5 1-5-4-2-2-50 2.5-2.5Zm85 24 2.5 11.5-2.5.5-3.5-8.5 3.5-3.5Zm48 6 2.5 1.5q-1.71 16.21 6.5 22.5l5.5 2.5-5 3 4 1-4.5 2.5-1-3-4.5 3.5-1 2 2 1-7.5 5.5-1-6-3.5.5-.5 1.5-8.5 7.5-4.5 7.5-.5-23.5q5.42-17.58 18.5-27.5l3-2Zm-252 42h27l9.5 7.5 2 13-5.5 3.5h-27q-12.25-2.75-9.5-20.5l3.5-3.5Zm370 0 10.5 1.5-1.5 4.5-10.5-1.5 1.5-4.5Zm-167 1q6.34 4.16 3.5 17.5l-6.5 9.5-3 2q-6.5-4-2.5-18.5l5.5-8.5 3-2Z"/><path fill="#D29031" stroke="#D29031" stroke-width="3" d="m516.5 556 5.5 7.5-2.5.5-4.5-2.5-1-3 2.5-2.5Zm-102 26 5.5 1.5-1.5 4.5-4.5-1.5.5-4.5Zm179 3 .5 15.5-5.5 10.5-.5-17.5 5.5-8.5Zm-150 9 6.5 2.5-2.5 3.5-4.5-.5 1-4-.5-1.5Zm225 0 9.5 1.5-1.5 4.5-10.5-2.5 2.5-3.5Zm-204 6 3.5 2.5-.5 3.5-5.5-2.5 2.5-3.5Zm175 12q6.5 4-3 8l-1-2-1.5-.5 5.5-5.5Zm-52 9 .5 15.5-5.5 10.5-.5-17.5 5.5-8.5Zm-100 4 6.5 4.5-2 1-.5 1.5-4-7Zm-133 11 34.5 17.5-2 1q11.91 16.09 32.5 23.5l21.5.5q-5.45 8.05-21.5 5.5l-17.5-7.5-.5-2.5-5-4-1.5.5-5.5-8.5-4.5-1.5-1.5-3.5-27-14q-14.77 6.72-14.5 28.5l10.5 19.5 1.5.5 2.5 10.5 3.5 1.5q5.75 25.25 24.5 37.5l11.5 4.5 3 16 21.5 27.5 24 9h14l3.5-2.5q4.25 16.25-3.5 20.5h-15l-22-8-23.5-23.5q-7.95-19.05-24-30-10.98-28.02-30-48l-14-28v-19l13.5-15.5 10.5-5.5.5-2.5Zm93 6 14.5 1.5-1.5 4.5-8.5-1.5-1.5-3.5-1 4-2-5Zm198 0 8.5 3.5q1.5 13.5-5 19l12 11-4.5-3.5-25.5-11.5-3.5-5.5-5.5 4.5-.5 1.5-3.5 2.5-.5 7.5-4.5-8.5 4.5-5.5 10-8 10.5 9.5.5 1.5 3.5-1.5q-3.25-13.25 3.5-16.5Zm104 6q17.87-2.87 22.5 7.5l2 11-18 35-2 11-14 15-28 51-17.5 17.5-17 2-9.5-7.5-5-10q32.77 5.27 42-13l4-21 26-33 15-35-6.5-12.5-3.5 1.5-2.5 6.5-1.5.5-1.5 3.5-3-6-23 12h-11v-1l21-7 18.5-13.5 8.5-12.5 4-2Zm-280 6 4.5.5-2.5 5.5-3.5-1.5 1.5-4.5Zm149 33 17.5 38.5-6 1q9.71 9.29 6 32l-2-1-4-7v-19l-6-11v-13q-8.19-6.16-5.5-20.5Zm218 3 3.5 2.5-2.5 3.5-3.5-2.5 2.5-3.5Zm-17 25 2.5.5-5.5 9.5-1-2-5 4 .5-1.5 6.5-9.5 2-1Zm-9 16 5.5 3.5-1.5 3.5-4.5-2.5.5-4.5Zm-221 1 4.5 1.5-.5 11.5-4-1-1.5.5 1.5-12.5Zm-74 16 .5 2.5-11.5 19.5-.5-1.5 11.5-20.5Zm67 1 4 1 1.5-.5-2.5 6.5-3.5-1.5.5-5.5Zm-97 10 .5 3.5-13.5 21.5-10 3-.5-7.5 3.5-5.5 3 6 3.5-1.5 13.5-19.5Z"/><path fill="#D29031" stroke="#D29031" stroke-width="3" d="M643.5 762q17.15-2.65 21.5 7.5l1 4-3.5.5-4-6-15-6Zm-118 1 2.5.5q-2.08 16.08 7.5 20.5l15.5 7.5-5.5.5-23-12h-13l-5.5 3.5 6 17-3-2-6.5-12.5-4.5-.5 8.5-12.5 7 1 14-11Zm68 2 .5 3.5-9.5 12.5-2 1-.5-2.5 11.5-14.5Zm7 1 10 8 1.5-.5-1.5 5.5-8.5-6.5-1.5-6.5Zm28 20 7.5 2.5 1 5-7-4-1.5-3.5Zm-11 7 1 23q10.67 9.83 35 6l.5-6.5-3-5 2-1-8-5 3.5.5 5.5 2.5 18 35-12.5 3.5-17-12h-13l-9.5 7.5-1 3 2 1 3 5-3.5 1.5-9-12-15.5 2.5-2 6 2.5 3.5-10.5-.5 4-11-.5-1.5 20.5-12.5 2-23 5.5-10.5Zm-107 18 9 17 8.5 3.5 1.5 8.5 15.5 5.5-15.5.5-2-3-11.5-4.5v-11l-5.5-16.5Zm-43 7 .5 7.5-1.5 2.5-4.5-1.5 1.5-4.5 2.5-.5 1.5-3.5Zm15 10 3.5 2.5q1 11.5 9.5 15.5l2.5.5-2.5 5.5-7.5-1.5-2.5-15.5-20 11q-6.75-3.25-3.5-16.5h1l5.5 10.5 13.5-10.5.5-1.5Zm93 12 9.5.5-21 9 1 2-7.5.5.5-1.5-1-4 18.5-6.5Zm75 42 3.5 1.5-7.5 8.5-9 2-.5-1.5 4.5-6.5 1 2 8-6Zm-135 6 3.5.5-3.5 13.5-5.5-10.5 5.5-3.5Zm29 0 12.5 5.5-5.5.5-7-6Zm32 0-.5 1.5-.5 6.5-5.5-4.5 6.5-3.5Zm27 0 7.5 3.5 1 3-7.5 9.5-19 8 2-3 15.5-9.5 3-6-2.5-5.5Zm-129 1 23.5 7.5-2.5 3.5-14 4q-9.53-3.38-7-15Zm85 5 12.5 5.5-2 1-.5 6.5-4-1-1.5.5-1.5-10.5-3-2Zm-37 6 14.5 11.5-3.5.5-10.5-5.5-1-3 .5-3.5Zm35 6 1 5 2-1-1 2-9.5-.5 7.5-5.5Zm21 0 2.5.5 1 4-7.5 1.5 1.5-2.5 2.5-3.5Zm-89 42q14.59-1.59 20 6l17.5.5-11.5 5.5-17-6-5.5 13.5 3.5 5.5 1.5.5 3.5 10.5 2.5-.5 1.5-5.5 4.5 2.5 3.5 8.5 7.5 1.5 1.5 2.5q7.17 5.83 23 3l18-12h19l19 11 13.5-11.5 3-11-2.5-4.5-1.5-.5-.5-1.5-12.5-5.5 2-1-4-6 2.5-3.5 23-2 15.5 13.5 2 11-3.5 4.5-39 25-22-16q-17.08 6.42-27 20l-17 2-25.5-16.5-.5-1.5-2.5.5-2.5 3.5-3 1-3-11-9.5-3.5q-8.5-6.5-7-23l9.5-9.5Z"/><path fill="#D29031" stroke="#D29031" stroke-width="3" d="m539.5 948 3.5.5-13.5 5.5v-1l10-5Zm46 0 8.5 3.5 1 2-1.5.5-8-6Z"/></svg>