<svg viewBox="0 0 906 642" xmlns="http://www.w3.org/2000/svg"><path fill="#03083C" stroke="#03083C" stroke-width="3" d="m1 0 462 2 3 3q21-2 32 7h55q10-10 36-6l35 12h37l11 6h67l11-6h37l11-6h13q6-8 24-6l11 6h25l4 3v1l-23 2-11 6h-37q-7 8-24 6l-35 18h-25l-12-6-9 6-3 13 6 8q5 5 19 3l63 38 2 5-7 9-4 2h-49q-7-8-24-6l-36-18-11 6h-55l-9 6-3 13 4 4 32 13h37l11 6q25-4 36 6h55l41 18h7l17 12h13l16-9 1-21-17-33q-20-6-29-22l-2-5 4-5 3-1 11 6h55l4 4 6 12-5 9 4 4 7 4v1q-19 2-29 12l12 21-12 17v19l4 4q10 10 32 8v167l-6 1-1 3-2 1-12-11-6 5-8-5h-4l7-11 7-4 5-14 7-4 1-3-12-24 5-9-34-21-13-3-27-20-6 5-34-28-17-2-23-9-4-8-32-13h-19l-29-12h-25l-11-6q-26 4-36-6h-55l-9-5-27 12-3-1 15-9v-3h-72l-9-5-8 5h-43l-11 9 5 7-9 8-9-6-11 6h-19l-35 12h-19l-17 12h-13l-35 16-16 39-8 8-13 3-11 9-18 9h-7l-10 8-2 11 4 4 7 5 5 13 7 5 1 3-3 4-8 5-1 14h9l16-15-14 16-11 8v8l-2-4-2 1-2 4 3 1-8 19-1-2-5 3 1 1 1 1-20 7H72l-11 6H36q-5-7-18-6l-6 4 5 6-5 2-12-6L1 0Zm557 72-6 3-6 9 1 3 17 9h37l20-7 3-4-1-3-22-10h-43Z"/><path fill="#03083C" stroke="#03083C" stroke-width="3" d="m456 192 11 1-8 4-3-5Zm48 8v2h-1l1-2Zm-94 3v2l-8 6-3-1 11-7Zm37 1 3 3-2-2-3 2 2-3Zm25 0 3 1-1 4 5 1h2q20-2 28 9l-8 9-3-1-1-3-23-11-1-3-3 2-1 3-1-2-3 2-2-4h-3l2-1 1-2 3 1 6-5Zm15 7-1 3q4 8 17 8l1-4-17-7Zm-36-3 3 2 2-1 1 1 1 1-3 1-4 9-1-5h-2l2-3-1-3h1l1-2Zm-13 2v4l-6 3 2-5 4-2Zm-46 5v2l-12 5v-1l12-6Zm65 1 1 1h-1v-1Zm66 1 3 5 2-1 2 2-1 3 1 2h-2l-6-3 1-8Zm-75 5 3 6 4 3-4 7-1-4h-6l1-9 3 2 1-2-1-3Zm72 12 13 9-2 3-8-3-3-9Zm21 5 5 4-6 11-1-3-4-1 6-11Z"/><path fill="#03083C" stroke="#03083C" stroke-width="3" d="m523 249 11 9 1-5 2 4 3-2 1 3 4-2v-2l-4-1 5-1 10 6 2 4v3l-6-4-1-3-4 1h-2l-4 3-1 5-13-7v-2h-5l1-9Zm-66 6 11 4 2 5-2 1v4l-3-5-7 3 1 3-3 1-7 9-5 2-11-6q1 19-8 28l-14 8h-17l-3-3 8-9h-2l8-5 11-17 16-8h7l-1 2 2 4 10-1-1-4 2-7 5-2 1-7Zm-138 2-2 5-18 9 1-4 19-10Zm269 7-1 2-5 16 1 1-7-1 1-8 3 1 4-9 4-2Zm7 3 5 4 3 5-3 1v4l-5-10-1 2-5-2 5-1 1-3Zm-120 1 3 2-4 1 6 3 1 2 5 1 4 10 1 1-4 1 5 3v2l-11-1h2l2-1-1-3h-2l4-1-3-6-7-1-3-9-4-1 5-1 1-2Zm83 1 5 2-4 2-1-2-3 5-3-1-2-4 8-2Zm-35 1 8 6h-2l-7-3 1-3Zm-184 1 2 2-8 14-3 1-5-3-1-3 4-5 11-6Zm171 5 5 2v3l-5 1v-6Zm36 0 1 1-3 5-4-1 2-3 4-2Zm-11 1 5 11h-2l-3-11Zm16 5 2 2h-1l-1-2Zm51 0 4 2-1 4-5-1 2-5Zm-26 1 1 12-1 2-12-6 1-3 9-1 2-4Zm-231 6 1 1 3 10q6-8 24-6l9 8 2 7-11 7-13 18 4 7-10 20q9 5 6 23h-2l-7-6-18 12-19 4q-8-7-26-4l-9 6-10 16q-10-7-29-4l-15 12-4 10-2 1-12-11-6 4h-2l7-8 22-11 4-9 11-5-2-1 34-15 9-13 5-2 5 3 1-2 8 11 6-5 15-30 1 2 28-12 1-9-6-18-4-1-2-5 3-5Zm7 59-4 6h3l3-5-2-1Zm-16 12-17 15 2 2 12-11 7 5 2-4-1-3-5-4Zm-110 48-4 6h3l3-5-2-1Zm276-114 14 10v2l-14-12Zm40 0 2 2 2 3 1-5 2 6h-3l-5-3 1-3Zm18 0 4 2v4h-6l2-6Zm-101 2 3 2v2l-5-2 2-2Zm142 1 4 3 4 1 2 4-1-1-8-3-1-3-2 1 2-2Zm-168 3 4 3-1 2-4-2 1-3Zm210 0 10 6-5 1 1 5 4 1-5 3 2 2 4 3 2 3 10-1 6 2-6 9 5 6-2 1-8-5-1 4-5-6 3-4h2l-1-4-14-7-2-4-6-2 5-1 1-12Zm-166 1 2 2-1 2h-2l-1-2 2-2Zm136 1 1 4h-1v-4Z"/><path fill="#03083C" stroke="#03083C" stroke-width="3" d="m328 306 2 1-6 11 6 1-7 9-10-6 15-16Zm11 1 7 7 2 4h-2l-9-9 2-2Zm-43 1 3 2-4 2-1-2 2-2Zm143 4 3 2 1 2-10 8v-1l6-11Zm144 0 13 12-8 1-2 4-4-2v-3l-4 2-2 5 6 8 11 6-2 3-3 1 9 11h3l1-18 5-2 1 9-1 4 6 4 1 15v2l3 3 2 1v-2l-2-4 18 12 2 5-2 1-27-12q-14 3-19-3v-3h-3l9-8-9-16h-8l-19-12 3-12 9-1h2l3-1v-2l-4-2-2 1 1-2-4-1 1-2 5-1 10 5 1-6Zm-288 6 4 3q-2 5-5 0l1-3Zm228 0 11 1-3 5-3 1v4l-5-11Zm100 0 7 4v1l-7-5Zm58 0 3 3-2 3-4-2 3-4Zm0 1-2 3 3 1 1-2-2-2Zm24-1 6 6h-4l-5 2 1 4v2l3 4 8-7 1 1 1 1-5 11-11-5 2-1-3-5 2-1-4-2 8-10Zm-326 6 4 3-1 2-4-2 1-3Zm132 0 5 1 1 5h-7v-1l1-5Zm219 0 2 1-2 5h-4l4-6Zm-195 5 4 2-2 5-8-5 6-2Zm143 1 5 3 1 4-2 4-9-7 1-2 4-2Zm3 2v3l1-2-1-1Zm-45 3 8 7h-11l-3-4 6-3Zm-430 1q18-3 25 6l-14 6-6-9-5-3Zm194 0 2 1-3 4-2 1-1-2 4-4Zm350 6 6 1v5l-8 6 2-3v-3l-6 4 1 3-1 4 1 2-1 2-7-4-5-13 4-3 4 5 10-3v-3Zm22 0 7 4 5 7 7 5 1 4-2-2-4 1 3 5 3-2 1 2 1 1-12 7-1 2-3-21-2 1-5 10h-5l2-6-6-13 3 1 7-6Zm-283 8 1 1-1 2v-3Zm-333 4 5 1-12 6 1-4 6-3Zm401 0 13 1 7 9 3 2 2 3-3-3-3 1v5l-19-18Zm-79 6 2 4-3 2 2-3-1-3Zm234 0 2 1 4 11 2-1 1 1 1 1-8 5-18-8 1-4 11 6v-5l-5-1 4-3 1-2 1 4 3-5Zm-1 7-2 3 5 2v-2l-3-3Zm90-7 7 12 2 1-5 9 4 2-4 1 8 5 3-5v-2l1-5 4 4 4 7 9-5v7l-2 4h-2l-2-5q-16-2-18 9l3 3 13-5 2 8-1-1-5-2-5 3 2 3-3 2 1 4 4-2v-2l-4 7-9 3v-1l2-4 1 2 4-2-4-1 4-2-2-4-9 2 1 4h-1l-5-3-3-8 2-1-9-11 3-1 6 4 2 2 4-1-1-4 1-12-4-2-1-4h-2l1-4-1-3h1l3-6Zm-329 1 1 3-4 2 4 1-6 4 1-2v-3h-2l6-5Z"/><path fill="#03083C" stroke="#03083C" stroke-width="3" d="m619 366 5 4v5l-5-2 4-1-5-3 1-3Zm-127 3-2 3-1-2 3-1Zm175 3 5 4 1 3h-1l-4-1-2 6-4 2-2 4 3 1-3 8q-5-9-17-9l-1 6-5-1 6-17 11 4 1 2 8-5v-2l3-1 1-4Zm17 0 6 1 1 3 3 2-8 2-5 10h-6l3-5-2-1 4-10 4-2Zm83 0 9 6h-2l-7-6Zm-392 1 2 2-1 2-3-1 2-3Zm126 1 2 2 1 5-3 2-3-5 3-4Zm292 3 1 2 9 5-5 1v1l-4-1 4-1-10-5 5-2Zm67 0v2l-8 6 2 5h-2l-6-3 4-8 10-2Zm-160 1 7 1-5 3 5 6-2 1-9-5 4-6Zm-289 1 2 2-2 3h-3l3-5Zm315 4v9h-2l-4-7 6-2Zm12 1 11 1-4 2 2 3h-4l-5-2v-4Zm168 0v6l-5 1-1-1 4-5 2-1Zm-41 5 5 4 1 3 1 1-5 4-2-12Zm-465 1 2 1-2 4-3-1 3-4Zm20 0 6 3-5 8-1-4-3 5 2 1-3 2-2-9 4-5 2-1Zm3 1-3 5h3l2-3-2-2Zm292 1 5 12-4-3-1-4-1 2-4-2 4-1 1-4Zm35 0 7 6-1 1-6-7Zm-11 3-1 4 1 3h5l1-3 4 2h1v1l-5 1 4 2-4 5-1-2-4-1h2l1-2-4-2-1 3-5-7 6-4Zm-67 1 5 3v1l-4 2 4 1-4 2 1 1-2-4h-2l2-4v-2Zm207 1 2 2-1 2-3-1 2-3Zm-22 2 1 4-5 10-1-4 5-10Zm-176 3 11 6h-1l-10-6Zm-318 1 2 2-1 2-3-1 2-3Zm57 2-2 3-1-2 3-1Zm274 3 2 4-3 2 2-3-1-3Zm-313 1 2 2-1 2-3-1 2-3Zm262 2 10 4-17 5v-1l-1-4 7-1 1-3Zm24 0 4 3-2 1 2 3-6 2-1-2 3-7Zm174 0 11 4-3 5-3 1 17 27-8 2 1-2 2-1-7-15-4 1-4-1 1-3-3-2 2-1-4-6 1-4v-2l1-3Zm-122 1 1 1 1 1 5-2 1 2 1 1-2 4v2l-2 10-12-16 7-3Zm187 2v6h-5l-1-2 6-4Zm-216 1 1 5 1 1-2 11v2l2 8 3 2-11 2v6l-6-4 6-9-2-1-4 3-1-3 7-10-8-2-4 3-1-2 7-9 1 2h5l1-2 3 1 2-4Zm186 4 5 5-4 5-5 2 2-5 2-1v-6Zm-486 1 9 2-3 2 1 2 1 1-10 5 2-3v-3h-11l11-6Zm115 0 5 1v5l-6-3 1-3Zm324 0 5 4 1 3-2 1-2 4-14-7 1-2 2 3 8-2 1-4Zm-406 1 2 2-2 3h-3l3-5Zm30 0 1 3h-1v-3Zm298 2 5 3 1-2 5 9-1-1h-6l1-2-5-3v-4Zm-439 3 11 3v1l-11 2v-6Zm502 0 13 12-11 1 6 8-9-8-3-7 4-6Zm80 0 11 1-4 2 1 1 4 3v11l-6-3v-3h-5l3-2-1-3-11-1 8-6Zm-520 2v2h-1l1-2Zm329 2q8 13 35 8h2l4 1q1 14-8 17h-12l-22-21 1-5Zm32 14-3 6h4l2-4-3-2Zm64-14 5 3 18 19 1 1 7 9-2 1 4 9-6 2 1-2-2-4h-6l1-2 2-1-3-9-3 1 1 7-2-2h-8l3-5v-2l-1-4 1-9-12-7 1-5Zm-30 2 4 3-1 2-4-2 1-3Zm66 1 3 5 2 1 14 17-2 1 4 5h2l1-2 10 8-5 1 3 4 7-5 6 6h-1l-6-5-3 5 3 1-9 8 6 10-3 4-5 1 2-3v-3l-4-1-2-17h-2l1-2-8-16-5-1 1-2-4-3-1 2-8-13 2-1 1-5Zm40 5 10 1-8 5-2-6Zm-530 1 1 1 1 2-11 8-2-5 11-6Z"/><path fill="#03083C" stroke="#03083C" stroke-width="3" d="m795 439 3 2 1-2 3 5 2 1-3 5h-3l-3-11Zm-759 5h7l16 10-5 4v-1l-3-7-3 1v5l-5 1-10-2 3-2v-3l-4 2v1l-2-3 4-5 2-1Zm858 0 5 4-6 2 1-2v-4Zm-195 1 6 6 3 5 1-4 1 4-2 1v5q-7-8-23-6l14-11Zm71 0 6 5h-4l-2-5Zm-332 3 1 3-1 4 1 1-5-2 2-3h1l1-3Zm390 1 4 3 2 6-6-6-4-1 4-2Zm-82 1 9 6-5 1v-2l-6-2 2-3Zm40 0 20 12h-2l-11-5-1 2-6-3h-3l2-3-2-1 3-2Zm81 0 4 4-3-3-3 2 2-3Zm10 0 3 2 2 3 1-4 2 5-3 1v13l-6-4 4-7-3-2 4-1-5-3 1-3Zm-424 6 3 3-2 3-4-2 3-4Zm0 1-2 3 3 1 1-2-2-2Zm288-1 4 6h-4l-3-3 3-3Zm-26 4 11 3 1 5h-9l-3-8Zm-51 2 7 3-2 3 2 1-10 5-1-3 4-6v-3Zm120 0 8 10-4 3 3-4-7-9Zm62 3 2 7 3 2-5 1 4 5 2 1v13l-7-2 1-3-1-3h1l-3-11 2-1-4-2 2-3-2-1 5-3Zm-39 2 9 5 1 2 2 1-2 4-1-4-3 5-5-6h2l-3-7Zm82 3 2 4-3-2 1-2Zm-400 4-2 3 3 3h8l1-2 5 8h-6l-11-5-1-3 3-4Zm233 0 15 1-5 3v2l-10-6Zm165 0 1 9-9 3v-1l7-5 1-4v-2Zm16 0 3 1v5l-4 2-2 4v2l2 10 4 1v5l-10-7-2-15h1l2 2 2-1 4-9Zm-234 7 2 2-1 2-3-1 2-3Zm141 4 1 1h-1v-1Zm-75 1 6 5-11 1 5-6Zm12 0 3 3-2-2-3 2 2-3Zm21 0 11 1q-6 7-21 5v-1l10-5Zm-69 7 5 5-7 3 2 3h-3l-4-2 7-9Zm94 5 5 4v2l-6-3 1-3Zm113 18v6h-2q-5-2 0-5l2-1Zm-177 12 3 3-2 3-4-2 3-4Zm0 1-2 3 3 1 1-2-2-2Z"/><path fill="#00022B" stroke="#00022B" stroke-width="3" d="m463 0 443 1v209q-26 3-35-9l-1-21 12-18-12-20 29-12v-2l-10-5-1-3 5-9-8-14-57-1-12-6-5 4-1 3 20 21 13 8 15 30v19l-3 4q-8 9-27 7l-17-12h-7l-41-18h-55l-11-6q-26 4-36-6h-37l-35-15-1-9 6-9 6-3h55l12-6 35 18q17-2 24 6h49l9-7 2-5-7-10-34-20-13-3-11-9q-17 3-22-5l-3-13 6-9 7-3q10 10 36 6l35-18q17 2 24-6h37l11-6q16 3 23-2v-2l-29-2q-7-8-24-6l-35 12h-37l-11 6h-67l-11-6h-37L589 6h-25l-11 6h-55l-11-6q-18 4-24-3V0Z"/><path fill="#00022B" stroke="#00022B" stroke-width="3" d="M558 72h43l22 10 1 3-3 4-20 7h-37l-17-9-1-3 6-9 6-3Zm-48 105v9l-3 6-3 2 2 4 4 1 1 5-12 3 1 1 16 8v-7l1-3 7 20 17 9q1 11-6 15l4 2v4l-2 1-3-11h-3l2-3-10-9q-13 2-17-5l-5 3-15-7 1-6 11 7 2 2 9-8v-2q-9-10-29-8l-1-6-10 3-1-3-4 1-1 3-1-4-8-5-4 3q10 4 4 8l-4-2-2-4-7 6 2 1-4 2-1-3-6 4 3 8h3l10-12 2 4-6 4 1 16 4 1-5 3v2l-9 6q-6 19-22 28l-20 14-6 12-3 1v4l-7-9-17-2-12 7 6 24-3 4q-19 0-26 10l-1-3 8-10 5-2 10 5 1-7q-4-6-15-4l-3 2v-2h-6l6-11-2-1-15 16 10 8h-11l-5-3-4-15-3 8-5-2-1 3 2 3h-2l-5-3-1-3 6-8 1 2 4-2-1-3 15-1 5 4 1 2 5-3-1-7-16-8h-7l-9 5-2-2 7-7 15-5 1-3-5-9 16-6 7-14-2-1 15-15 49-20 1-2 17-10 1-2 13-9 2 5-1-1-5 3 1 3 5-2 2 8 4-1h2l4-2-3-7 5-2-2 3 3 3 6-5v-2l8-4 5 3 40-16-2 3 1 3 5-2-2-3 8-4Zm-29 21-1 4 6 2v-5l-5-1Zm13 0-2 2 2 4 10-2v-1l-10-3Zm29 30-1 4 6 2v-3l-5-3Zm-157 36-4 2-1 2 5 2 5-2v-1l-5-3Zm-27 7-11 6-4 5 1 3 5 3 3-1 8-14-2-2Zm6 18-3 5 4 6h2l-2-10-1-1Zm-6 18-2 2 9 9h2l-2-4-7-7Z"/><path fill="#00022B" stroke="#00022B" stroke-width="3" d="m459 210 3 2h1l2 3 3-2v6l-3 1-8-4-1 16-3-4h-3l-2-5 3-2 5-10 3-1Zm71 8 8 4 2 4v2l-12-6 2-4Zm-74 20v10l-4-5 3-2 1-3Zm-3 15 1 1 2 8-6 3v5q-22-3-31 6l3-4q19-5 31-19Zm93 5 2 12 4 3 1 3-13 4 1 2-1 5-6-10 6-1q-3-13 4-17l2-1Zm10 0 31 7-5 3-3 8-3-4-5-2h-2l-4 2-1-2h-6l-2-12Zm-87 10 1 3 4 3 4 8 6 2 2 4-4 1-1 4 1 1-2 1v7l-3-1h-3q4-18-3-25l-21 15 3 3 6 1-2 3 5 2 1-2q6 3 5 15l-2 4-8-6-5-11-6 5-6-11-3 13 3 5-3 1-5 10h2l8-7 1 3-3 4-12 6-2-2q8-6 5-21l-3-6-3 2q8-9 7-26l12 6 11-9 1-3 7 1-2 5h4l2-3-1-3h1l1-2Zm-36 32-1 3 4 2 1-2-4-3Zm155-29 1 1h-1v-1Zm-38 11 3 3 1 3h-7l-1-2 4-4Zm75 4 5 3 2 5h-1l-5-2-1-6Zm-137 2 10 4v10l-5-7h-3l2-1-1-4-3-2Zm56 6 2 1v4l-2-5Zm34 0 1 1 3 6-1-1h-2l-1-6Zm21 0 4 1 2 5h-1l-5-2v-4Zm-51 1 4 3-4 1v-4Zm-152 5 3 1-7 7-2-1 4-6 2-1Zm253 6 25 1-2 3 4 2 2-3-1-3q16-3 21 6l-14 1 2 3 12 3-2 5 3 1-2 3 4 2-5 1 1 1-6-2-1 4 6 8-4 2-2 4v2l2 4 4-1-1-4 8-1 11 6v-3l-7-9 7-3 1-5 3 2 2 1 1 11v2l3 4 2 1-8 17-4-12-4 2-1 3-2-11-5 2-3 4q-8-8-26-6l-10-6-3-11h2l8 4 1-2-5-6 6-8-6-1-2-11-16-1 1-6Zm32 12-3 4 4 2 2-3-3-3Zm-3 12-4 2-1 2 9 7 2-4-1-4-5-3Zm-294-21v17h-1l-4-2-1 3 3 3-6-4-5 9-4-2v-3l-5 3 2 3-3-2 16-21 8-4Zm30 0 1 3 4 3v1l-17 9 6 12-8 16-9-7 5-6 1 2 4-3 1-2-2-1 1-2-11-4 2-4 10-2-8-11 17-1 3-3Zm223 3 8 6h-2l-7-3 1-3Zm-66 6 4 3v1l-4 2v-6Zm-48 3 5 8 2 1h-4l-3-9Z"/><path fill="#00022B" stroke="#00022B" stroke-width="3" d="m649 321 11 7v2l-4 2v1h-2v-3h-6l1-9Zm-391 1 1 8 4 3v1l-17 3q0 12-8 16l-10-5-18 12-12-6-5 4-1 3 5 9-8 13-3 1-5-3-1-3 6-9-3-3-9 6-5-3-1-15h-4l17-12 24-6 11 9 1 3q2-7 14-6l7 5 3-17 10 5 7-13Zm322 2 2 1 3 4 3-2 1-3 8 1 5 11 7 1-2 4-3 1-4 1v17l-12-8 1-4 4-2v-2l-14-7 3-1-2-5-3 2-1-3 4-6Zm-307 1 2 2-1 2-3-1 2-3Zm440 1 1 2-8 8 7-10Zm-88 4 5 3-2 3h-4l1-6Zm92 0 1 2-4 1 3-3Zm-79 6q13-3 16 3l-9 3-7-6Zm-359 1 2 2-5 6 11 6-8 9h-3l-5-15 8-8Zm36 0 2 2-1 2-3-1 2-3Zm174 0 3 3v2h-6l3-5Zm-124 2 1 4q-7 4-6 18l5 9-3 7 4 8-2 4-16-5-15 11-7-3-14 4-11-5 6-1 10 4q4-6 16-4l19-12 8 6v-14l-6-10 11-21Zm185 3 2 1 3 11 18 18-12-12-3 1v5l-4-1-5-17h-4l5-6Zm219 0 2 1-6 5-2-3 6-3Zm-283 6 3 1-2 3h4l6 12-5 4v-2l-4 1v2l-7-18 5-3Zm24 0 5 3-7 8h-2l-2-5 4-5 2-1Zm240 0v3l-5 3-1-2 6-4Zm-459 7 1 1 2 7-1-1-7-2 5-5Zm180 0 5 5-2 1 1 5 1 1-8 12 5 9-2 1q-11-3-9-19h2l3 1 6-4-4-1 4-2-1-3-7 6 3-4 3-8Zm-170 5 4 3-1 2-4-2 1-3Zm486 0 5 3-2 3-4-2 1-4Zm-352 1 2 2-1 2-3-1 2-3Zm12 0 2 2-1 2-3-1 2-3Zm288 0 3 2h1l2 3h3l1-5 5 3 1 8-4 6h-3l-1-10-10-4 2-3Zm-591 3 1 2 16 3-5 7q7 3 6 15l-2 4-10-5-9 5-2-2 4-7-19-2-4 3 11-8 1-3 1 2 4-3 1-2-2-1 8-8Zm154 2 6 5 5-4-6 5-5-6Zm402 0 8 1v5l-8-6Zm95 0 3 3v3l-6 3v3l-11-1 3-5 11-6Zm-378 1 2 2-1 2-3-1 2-3Zm102 0 2 2-1 2-3-1 2-3Zm-144 5 3 3-2 3-4-2 3-4Zm0 1-2 3 3 1 1-2-2-2Zm105-1 5 4 1 9-2 4h-2l-4-10 2-1v-4h-3l3-2Zm24 0 5 3-4 5-4-6 3-2Zm109 0 5 4v2l-5-3v-3Zm57 0 13 1-5 3-2 8-6-12Zm53 0 3 7-1-1h-8l6-6Zm148 0 9 5 6-5 12 10 2-1 1-3 5 1-1 6-4 3-1 7 6 2-1 18-5 3 1 2 5 1v5q-16-3-20 6l-4-6h-3v-5l-18-11v-2h-6l3-13-2-5-4-2 1-4 7-5 1-2 10-5Zm0 6-1 6 1 1-2-1-5 2 3 15 7-5 2-6-2-10-3-2Zm14 0-3 3 12 3v-2l-9-4Zm-6 19-2 3 3 1 1-2-2-2Zm-80-24 3 5 2 1v8l-5-2 4-1-10-5 5-1 1-5Zm-388 5 3 3-2 3 1-2-1-3-3 2 2-3Zm27 0 5 3-7 8h-2l-2-5 4-5 2-1Zm155 0 12 1-8 4-4-5Zm57 0 13 1-8 5-2-4-3-2Zm38 0 11 1-3 5 9 5 2-1-5-6 4-2 8 8v8l-4 1-1 3-4 2q-18 2-21-9v-3h-3l7-12Zm8 12-4 2-1 2 5 2 9-1 3-4-12-1Zm-288-8 1 2 1 1-8 7v-2h-2l8-8Zm373 0 14 20 3 3 4 8 13 2-4 2-1-2-3 5-19-11-2-4q-2-13-11-18l-2 1-1-3 8-1 1-2Zm25 2 10 1-3 5-7-6Zm-566 6 3 1-10 5 3-4 4-2Zm48 0 11 1q-5 7-19 5l2-3 6-3Z"/><path fill="#00022B" stroke="#00022B" stroke-width="3" d="m348 390 5 3v1l-11 3 5 15-2 1-9-11 4-6h2l2-4 4-2Zm51 0-2 3 2 2 3-2-2 3-4-2 3-4Zm26 0 6 4 1 3-3 4-8 3-1-2h-3l3-5 1 4 5-8-1-3Zm394 0 10 2 2 3h1l2-4 2 11 4 1 1 6-1 5-6 2 2 4 4 1 3 5h-8l-4-6-3 1-2 5-8-1 10-15v-8l-2-5-13 5-3-3 9-9Zm-366 1 2 2-1 2-3-1 2-3Zm298 3 6 5 1 3h-4l-3-5-1 3-2-3 2-1 1-2Zm-11 1-1 4 1 1 3 2h-4l-1-3 2-4Zm-616 1 2 1q2 12-3 17h-3q-2-13 4-18Zm203 1 2 2-1 2-3-1 2-3Zm388 0 5 9-11 3-1-3 6-4 1-5Zm-487 3v5l-19 9 9-10 10-4Zm85 2 4 3-1 2-4-2 1-3Zm50 0 3 3-2 3-4-2 3-4Zm0 1-2 3 3 1 1-2-2-2Zm367-1 1 3-4 8-3 1h-4l10-12Zm-595 1 2 2-1 2-3-1 2-3Zm348 0 2 2-1 2-3-1 2-3Zm257 0 3 2-1 2-2-4Zm9 2 1 1-3 7q-6-3 1-6l1-2Zm14 1 9 8-3 1-6-4v-5Zm-86 1 15 8-3 1-2 4-10-13Zm-437 1q20-3 29 6h-5l-10-5-4 10-10-5-5 4-4 7-8 3-1-2 12-15 6-3Zm141 0 3 3-2 3-4-2 3-4Zm0 1-2 3 3 1 1-2-2-2Zm-90 0 2 2-1 2-3-1 2-3Zm168 0 2 2-5 12-3-2v5l-8-2 14-15Z"/><path fill="#00022B" stroke="#00022B" stroke-width="3" d="m817 409 4 3-4 2v-5Zm-108 4 8 7 7 11 3-11 2 1 3 5h1l-1 6-5 2 2 4h-15l-12-8 4 2 12 5 2-5-11-19Zm-433 1 5 3-7 8h-2l-2-5 4-5 2-1Zm378 0 6 1-5 9-1-10Zm16 0 8 4-11 19 11 2-3 5-8-3-1-9-11-3-1-3h2l15-8-1-4Zm-169 1 5 5-2 1v1l-5-5 2-2Zm12 0 2 2-4 5-1-2h-2l5-5Zm246 0 8 8-1 2-9-7 2-3Zm93 0 2 11-2 1 4 5h2l1-2 9 3-4 3q8 3 6 16l-2-2-3 2-1-2h-3l2-3-17-26 4-2 2-4Zm-645 5 11 11v1l-16-7 5-5Zm216 0 3 3-2 3 1-2-1-3-3 2 2-3Z"/><path fill="#00022B" stroke="#00022B" stroke-width="3" d="M693 420q11-2 15 4v2l-6 1v1l-5-2-1 4 4 2h-9l-1-9 3-3Zm50 0 5 2 2 3 2 1h-7l-2-6Zm-323 4 1 2 1 1-5 4-2-2 5-5Zm91 0 4 6-2 1-4-5h1l1-2Zm-491 2 15 6h-5l-10-6Zm52 0 5 1-15 5v-1l10-5Zm574 0q5 3-1 6h-3l4-6Zm-211 1 2 2-1 2-3-1 2-3Zm42 0 1 1 2 5-3 4-3 1-5-2 8-9Zm318 0 3 3 2 6 10 6v7l-3-5-3 2v-2l-4-1 3-1v-2l-4-1-1 2-3-2-1 4 5 7 1 1-2 3 2 2-13-5 5-1v-18h-3l6-5Zm-422 1v2h-1l1-2Zm399 4 2 4-3 2-2-3 3 2 1-2-1-3Zm9 0 5 4v2h-6l1-6Zm63 0 2 1v7l-4-2h-2l-4-1 4-2 1 2 3-5Zm-553 1 8 8-1 2-9-7 2-3Zm16 5 5 1-2 4-4-2 1-3Zm446 0 5 1-4 5-4-2 3-4Zm12 0 3 5 1-2 10 6v1l-2 1v1q-5-7-17-6l5-6Zm52 0q13-4 17 3l6 12-3-3-3 1 4 5h2l1-2 8 3-3 2-1 7-4 2 2 1-2 3 4 2-2 1 3 11h-2l-8-6-1 2-1-2 4-6h2l-1-6v-2l-8-16-15-9 1-3Zm71 0 12 1 2 3 4 3v11l-6-3v-3h-5l4-2-11-7v-3Zm-459 1 9 6-2 5 1 1-3 2-7-12 2-2Zm-82 3 1 3-3 4-12 6-3-7 3-2-1 2 5 2 10-8Zm308 0 3 2 2 4 1 1 1 1h-2l-5-3v-5Zm-333 2 2 1v5l-5-2 3-4Zm413 0 3 2-2 4h-4l3-6Zm-228 1 1 1 2 17-2 4-9-7 8-15Zm376 4 10 2-8 4-2-4-1 4-3-4 4-2Zm-824 5 1 3-7 9-5 2v-1l6-9 5-4Zm620 2 5 4v2l-14 6 1-2-2-3 9-3 1-4Zm30 0 5 4 3 8h-3l-8-5 2-1 1-6Zm-364 1 1 1 2 5-2 4h-2l-2-5 3-5Zm514 2 5 3h1v1l3 2v1l-9-7ZM1 462l4 3v1l-4 2v-6Z"/><path fill="#00022B" stroke="#00022B" stroke-width="3" d="m829 462 9 6-4 1v4l-5-11Zm-202 1 2 2-1 2-3-1 2-3Zm178 1 5 10h-2l-5-6h1l1-4Zm78 1 9 4-4 2q7 4 6 18l-1-1-8-2 3-10-2-1-7 3-3-1-1-2 2-3 3 2 3-9Zm-505 3 5 3v1l-11 3 2 3 19 14 6-17 32 15 5 7 25 22-13 14-7-5-6 5q-8-12-26-13l5-7-3-3-9 6-6-3v-3l-27-18-6 5-14-20 23-3 2-4 4-2Zm21 36-3 6h4l2-3-3-3Zm30 6-3 4 4 2 2-3-3-3Zm55-42 2 1 1 5 1 1-2 3 2 2-7-3-1-3 4-6Zm38 0 5 3v1l-5 2-5-2 1-2 4-2Zm-99 1 2 2-1 2-3-1 2-3Zm24 0 8 8-1 2-9-7 2-3Zm373 5 7 1-10 7-1-2h-3l3-5 1 4 3-5Zm50 3 1 9-1 5-6-8 6-6Zm-201 3 3 3-2 3-4-2 3-4Zm0 1-2 3 3 1 1-2-2-2Zm-164 3 4 6-2 1-8-4 5-1 1-2Zm110 3 8 8-1 2-9-7 2-3Zm-321 5 11 3v1l-11 2-5-2 1-2 4-2Zm405 0 6 6-5-5-6 5 5-6Zm93 0 5 4 6 12-5 2-10-7-2-5 4-5 2-1Zm1 6-1 3 6 3v-2l-5-4Zm102-5 7 9 3 2h-5l-5-3v-8Zm-574 12 8 8v1l-5 2-5-3-1-3 3-5Zm318 0 2 2-1 2-3-1 2-3Zm48 0 2 2-1 2-3-1 2-3Zm-348 12 2 2-1 2-3-1 2-3Zm562 3 5 3v5l-5-3v-5Zm-586 3 2 2-1 2-3-1 2-3Zm162 0 2 2-1 2-3-1 2-3Zm144 0 2 2-1 2-3-1 2-3Zm-156 6 2 2-1 2-3-1 2-3Zm30 0 2 2-1 2-3-1 2-3Zm138 0 2 2-1 2-3-1 2-3Zm78 0 2 2-1 2-3-1 2-3Zm-375 11 5 4 6 12-2 1-14-14 5-3Z"/><path fill="#0A124F" stroke="#0A124F" stroke-width="3" d="m417 169 9 5 72 1-1 3-14 8 2 1q-9 8-29 5l-24 10v3l-4-1-2 1-2-12-25 17 2 1-59 26q-17 22-45 33l1 1-8 6-40 58-9-5-2 12v-1l-7-11-4 2 8 10h-4q-9-11-34-6l-51 24 1 1-19 17h-8l-1-12 4-5 7-4 1-3-3-5-8-4-4-14-8-4-1-9 8-10 11-2 25-16 17-5 8-8 19-42 32-13h13l17-12h19l11-6q17 2 24-6h19l12-6 9 6 8-9-5-6 11-9h43l8-5Zm10 23-1 5 5 1 1-4-5-2Zm86-17 9 5h55l11 6h25q10 10 36 6l29 12h19l34 16 5 7 37 9 35 28 6-5 26 20 13 3 34 21-5 10 12 24-3 4-8 5-4 13-8 5-4 8 2 1-22 9-1 5 10 5 2 9h-1l-4-8-17-3-2 1v-7l-9 5-6-10-2-1h-2l-5 2 1 4h-1l-5-2 5-9-4-2-5-11-3 6h-6l-3-11-8-4-4-8-9-1-6 4 2 8-8 1v1l-8-2 8-6-1-6 1-4-26-8 2-5-2-1-4 6v2l-5 15 1 1-4-18h-4v-4l-4-1-4-7-9 6v-1l4-8-4-6-6-3h-37l-11-6-1 11-7-17-5-3v-3l-6-3-1-3-23-9v-3l-6-3v-3l-4 2-2 4 1 1h-2l-2 5 2 1-4 2 7 9h-4l-3-6-2 1 7-18-1-3-11-14-4-1-6-8-3-11h-7l-25-22v-2l-9-3-1-3-10 2-1-2-6-2 9-21Zm-1 11-2 2 1 4 4-2 1-2-4-2Zm252 150-2 6h5l1-4-4-2ZM498 198l5 3v1l-5 2v-6Zm-32 6 2 1-2 4-3-1 3-4Z"/><path fill="#0A124F" stroke="#0A124F" stroke-width="3" d="m447 205 3 3v2h-6l3-5Zm25 5 2 2 2 2 10 6v4l-16-8-2 1 4-7Zm39 0 5 4v2l-6-3 1-3Zm-73 4v8h-2l-3-3 5-5Zm85 1 7 2-3 5-3-1-1-6Zm-78 6 4 4-1 2-4-2 1-4Zm46 7 12 6h-5l-7-6Zm20 3 11 7 4 7 8 2v11l-11-9-1 2-11-20Zm-43 2 2 7 4 4h-2l-14-4 4-2-1-3 7-2Zm39 1 3 3-2 9-4-2 3-10Zm36 0 3 3v5l-6-3 3-5Zm-86 8 8 16h-3l-6-3 1-13Zm84 8 1 3 3 2v1l-4 2v-8Zm-30 2 10 6h2l4 1-5 3v2l-12-9 1-3Zm-49 12 4 2 2 4h-8l-2-3 4-3Zm71 0 7 4-1 8-5 1v1l-7-8 12 5v-1l-6-10Zm31 6 1 12 1 1-2 4v2l2 3 10 5 1-2 2 5-3 1-3 5h-3l-1-12-5 1-4-1-2 1-1-7-3-1-1-4h-2l1-5v-2l4-1 2-4 1 2 5-3Z"/><path fill="#0A124F" stroke="#0A124F" stroke-width="3" d="m571 270 5 4 1 9-2 1-2 4h-5l7-10-1-1-6 5 2-3 1-9Zm24 1 6 12-1 4 1 1-6 1-1-2-1-10 2-6Zm-88 5 3 2-1 4-5-2 3-4Zm9 2v2h-1l1-2Zm30 2 1 2 1 1-2 5v2l1 4-6 1 3 4 7 1h1l6 12-11 6-1-2 6-8-18-10 7-16 5-2Zm-59 1 9 7h-4l-5-3v-4Zm32 1 3 1-2 5-4-2 3-4Zm87 0 12 7-2 5-11-6 1-4v-2Zm-123 7 2 2-1 2-3-1 2-3Zm16 2 4 3-2 1 11 11-7 1-7-1 1-15Zm96 2 3 3 2 3 2 1v1l-13-6 6-2Zm-13 11 2 8-2 1v1q-10-4-3-8l3-2Zm9 2 3 3-2 3-4-2 3-4Zm40 0 7 6-2 1v1l-5-8Zm-114 6 10 6-5 1v6l-4-1h-3l2-12Zm21 0 2 6-4 2-1 3-1-5h-4l8-6Zm32 0 1 1h-1v-1Zm33 0 3 3v3l-6-2 3-4Zm51 0 11 4 1 4-5-5-6-2-1 7-6-3 2-3 4-2Zm-149 1 7 11-2 1-4-1h-8l4-6h2l1-5Zm61 1v2h-1l1-2Zm-7 4 5 4 1 2-7 3v4l-6-4 1-3 5-1 1-5Zm82 0 7 4v4l-7-8Zm40 1 2 2-1 2-3-1 2-3Zm-140 5 5 3-7 4 2-7Zm-13 6 8 6-2 1v1l-7-2 1-4v-2Zm102 0 6 3-1 3-4 1-1-2v-5Zm68 0 2 2 2 4h-2l-2-6Zm-149 1 3 3q-2 5-5 0l2-3Zm132 1 1 1-1 2v-3Zm-123 3v3l-1 2-4 2v1l-3-1 7-5 1-2Zm96 4-4 5-2 10-6-3-1-8 13-4Zm91 3 5 2-1 2-6 2 1-2 1-4Zm-192 2 6 8 3 2h-6l-3-10Zm59 0v12l-2-2-4-1 2-5h2l2-4Zm-260 4 2 1-3 5h-3l4-6Zm226 0 8 2 2 6-5-5-5-3Zm106 6 16 6 2-1 1 1 5-1v2l-3 4-9 2-11-4-1-9Zm93 1 1 1 2 5-1-1-4 2-1-2 3-5Zm-38 3 5 8h-2l-3-8Zm-403 2 5 4 1 3-2 4-7-5-12 11-2-2 17-15Zm139 0 4 3-2 3h-3l1-6Zm180 0 5 4v2l-5-3v-3Zm107 4 1 2 8 1-1 4 1 1-2 1-4-1-3 6-6-3v-3h-2l8-8Zm-181 1 9 2q-4 9-8 3l-1-5Zm-115 1 2 1-2 4-2-2 2-3Zm24 0 2 1-2 4-2-3 2-2Zm149 0 3 3 2 9-2 1-5 15-2-4 1-3-2-3h2l5-2-2-4h-3l3-12Zm72 1 3 3v2l-5-2 2-3Zm-92 2 4 3-4 1 5 2 1-2 2 5h-3l-8-5 2-1 1-3Zm78 1 24 9-1 4v2l2 6-1-1-6 1v1l-6-11-4-1 2-1-13-1 2-1 1-7Zm-220 4 3 2v2l-5-2 2-2Zm196 5 3 5 2 1-3 5h-15l4-6 3-1 5 1 1-5Zm77 5 1 1-1 3 6 10-6-6-4-1-1-3 1-2 4-2Zm19 0 3 2 8 19-5 3-2-12-11-3 1-5 5 2 1-6Zm100 0 4 6 2 2-2 4h-3l-2-5 2-1-1-6Zm-130 4 5 4v1l-8 3v-1l3-7Zm48 0 3 2 6 8 2 4h-2l-9-14Zm-144 2q13 0 17 10v2l-17-12Zm-526 1 1 1-1 4h-3l3-5Zm306 0 2 2-2 3h-3l3-5Zm421 5 1 3-4 8-1-5h-2l6-6Zm-133 1 3 3v2h-6l3-5Zm37 0 1 4h-1l-2-2 2-2Zm-70 2 1 3 1 1-1 2 5 6-3-3-8-3 4-2-4-1 5-3Zm-258 3v3l-4 1 2-3 2-1Zm221 0q6 8 23 6l2-1v9l-2-1-6 5 2-3v-3q-13 2-18-3l-1-9Zm105 0 4 1v2l-4-3Zm76 0 6 4-11 19 14 7 3-5 1 5 3 1-2 1h-2v4q-16-1-20-12l-4 7 12 14 5 3-5 2-19-20 1-10-16-9-1-4h-2l2-1q7 11 24 12l11-8-5-3 2-1-2-3 5-3Zm-83 1 3 5 2 1v4l-10-4 4-1v-2l1-3Zm-49 4 5 4-2 3h-4l-2-5 3-2Zm-464 1 2 1-3 5h-3l4-6Z"/><path fill="#0A124F" stroke="#0A124F" stroke-width="3" d="m810 408 5 3v1l-5 2v-6Zm33 0 5 6-8-3 3-3Zm13 0 4 1-7 10-2-5 2-1 3-5Zm-748 6v3l-4 1-1-1 5-3Zm663 0q12-3 15 3l-6 4v1l-9-8Zm-20 7 5 3v2l-6-3 1-2Zm38 0 2 2-1 2-3-1 2-3Zm-391 1 3 2-4 2-1-2 2-2Zm-19 4 11 1-3 5-13-2 1-2 4-2Zm297 0 3 1-4 5-3 2 1 4h-3l-2-3 4-8 1 2 3-3Zm21 0 5 4v5l-5-2 4-1-5-3 1-3Zm98 0 3 3-2-2-3 2 2-3Zm45 0 4 3-1 3h-4l1-4v-2Zm40 0 2 1 2 5h-11l1-2 6-4Zm26 0v6l-1-1-4-1 1-2 4-2Zm-12 6 4 3-1 2-3 1v-6Zm-41 4 5 11-4 2-4-4 2-1 1-8Zm-162 1 5 5-2 1-4-2 1-4Zm71 0v4l-6 3v-1l4-5 2-1Zm-80 1 2 1-5 7-1-4 4-4Zm204 0 4 6-7 1-3-1 6-6Zm-225 4 5 5-4 2-4-4 3-3Zm84 0 16 14h-5l-10-6h-5l4-8Zm-412 4 2 2h-3l1-2Zm-299 4 2 1-1 3h-3l2-4Zm15 0 5 4-5 10-2-7 2-7Zm792 0 4 3-1 2-4-2 1-3Zm26 1 9 5 1-3 4 3-4 1 3 2-4 7 4 6v1l-7-5-6 5-3-4 5-1-1-2 1-2-4-1-1-2 3 1h3l-1-6-4 1-1-3 3-3Zm-84 1 2 1-2 3 1 1-4 2 1 3 10 9-7 13-16 2-11 6-10-6-7 4-5-4q-5 10-9 4l-2-3 2-1-8-11 3-1 11 6 2-4 23-8q16 3 23-2v-4h-12l1-3 14-7Zm-45 2 1 2 1 1-2 3 2 2-7 2-1-2-5 1-1-2-2-4 14-3Zm115 2 5 4v2l-4-1-1-5Zm-400 1 2 2-1 2-3-1 2-3Zm341 0 17 6-1 4 6 1 1-4 3 4 7 3-2 3h-9l-1-4-9-3-1-4-6-1-1 2-4-7Zm-134 5 4 2 1 2-5 4-1-2 1-4v-2Zm234 6 1 1-1 4 5 1h2l1 1-4 9-3-1-6-12 5-3Zm-404 6 8 4v2l-11-2 3-4Zm314 0 12 7v2l-7 2-7-4 2-1v-6Zm43 0 11 1q-2 12 4 17l2 1-3 5-9-3 1-4 5 1v-4l-4-2-2 1v-7l-4-1-1-5Zm27 0 7 6-10 1-1-3 4-4Zm-174 24 7 3-7 3-3-3 3-3Zm29 31 2 2-1 2-3-1 2-3Z"/><path fill="#00011E" stroke="#00011E" stroke-width="3" d="m501 180 3 3-2 3 1-2-1-3-3 2 2-3Zm-60 18-2 3 2 2 6-5-5 6-4-2 3-4Zm13 1 5 5-4-4-1-1Zm46 7v2h-1l1-2Zm-47 35-1 2v1l-1-1 2-2Zm0 11 1 1-9 8 8-9Zm-87 12 1 1h-1v-1Zm-4 2v2h-1l1-2Zm9 0v2h-1l1-2Zm-5 3 1 1h-1v-1Zm99 1 3 3-2 3 1-2-1-3-3 2 2-3Zm-158 2 2 4-3-2 1-2Zm164 4 1 2-5 2 4-4Zm-159 5v2h-1l1-2Zm144 4-5 6 2 3-3-2 6-7Zm-161 5-6 7 2 2 3-2-2 3-4-2 7-8Zm146 4 1 2-4 1 3-3Zm-12 6 1 2-5 2 4-4Zm24 0 1 2-6 4h-2l7-6Zm24 5 1 1h-1v-1Zm198 1 3 3-2 3-4-2 3-4Zm0 1-2 3 3 1 1-2-2-2Zm-216 4 7 7h-1l-6-7Zm-156 1 1 2-4 1 3-3Zm115 0 2 4h-1l-1-4Zm-145 12 3 3-2 3-4-2 3-4Zm0 1-2 3 3 1 1-2-2-2Zm156-1-2 3 2 2 3-2-2 3-4-2 3-4Zm-81 3-1 2h-2l3-2Zm-86 3 2 4h-1l-1-4Zm105 3 3 3h-1l-2-3Zm34 0v2l-2 1 2-3Zm314 0 3 2h1l-2 1-2-3Zm-436 3 3 3-5 6 1 1 3-6-1-3-9 8 2 3-3-2 9-10Zm36 0 3 3-2 3-4-2 3-4Zm0 1-2 3 3 1 1-2-2-2Zm174-1 3 3-2-2-3 2 2-3Zm-93 3-5 6 8 8 1 1h-1l-9-9 6-6Zm311 2 7 10-9-8 2-2Zm-463 6-6 7-4-2 3 1 7-6Zm-16 1 1 1h-1v-1Zm60 2v2l-9 8 9-10Zm193 0 2 4-3-2 1-2Zm35 0v2l-9 8v-1l8-7 1-2Zm-318 4 1 1h-1v-1Zm93 0 1 1-6 5 1 1 4-7Zm180 0 6 6-5-5-1-1Zm22 3 5 7-6 5 5-6-4-6Zm-300 2v2h-1l1-2Zm111 1 2 4-3 2-2-3 3 2 1-2-1-3Zm131 0 3 3-2 3-4-2 3-4Zm0 1-2 3 3 1 1-2-2-2Zm12-1 3 3-2 3-4-2 3-4Zm0 1-2 3 3 1 1-2-2-2Zm288-1 3 3-2-2-3 2v1l-1-1 3-3Zm-552 6 3 3-3 4 2-3-1-3-4 3 3-4Zm13 0 2 4-3 2 2-3-1-3Zm168 0 2 4-3 2 2-3-1-3Zm53 0 3 3-2 3-4-2 3-4Zm0 1-2 3 3 1 1-2-2-2Zm102-1 3 3-2 3-4-2 3-4Zm0 1-2 3 3 1 1-2-2-2Zm-357 1v2l-5 6 3 3-4-4 6-7Zm348 6v2l-6 5 6-7Zm-41 3v2h-1l1-2Zm124 0 4 6 3-2-2 3-7-5 2-2Zm13 1 1 1h-1v-1Zm-162 2v2l-9 8v-1l8-7 1-2Zm21 3 7 6 1-2-1-3 2 4-3 2-6-7Zm-322 3-4 7 2 2 3-2-2 3-4-2 5-6v-2Zm199 1-8 9-4-2 3 1 9-8Zm19 0 3 3h-1l-2-3Zm122 2 1 1h-1v-1Zm-333 1 1 1h-1v-1Zm150 0 1 1h-1v-1Zm153 0 3 3-2 3-4-2 3-4Zm0 1-2 3 3 1 1-2-2-2Zm-99 1v2h-1l1-2Zm338 0v2h-1l1-2Zm-535 1 3 3h-1l-2-3Zm170 3 3 3-2 3-4-2 3-4Zm0 1-2 3 3 1 1-2-2-2Zm-192 5 3 3-2 3-4-2 3-4Zm0 1-2 3 3 1 1-2-2-2Zm181-1 2 4-3 2-2-3 3 2 1-2-1-3Zm167 0 3 3-2 3-4-2 3-4Zm0 1-2 3 3 1 1-2-2-2Zm-266 1-8 11-2-1 10-10Zm122 3 7 6 1-2-1-3 2 4-3 2-6-7Zm-48 1 3 3-2 3-4-2 3-4Zm0 1-2 3 3 1 1-2-2-2Zm168-1 3 3-5 6 4-5-1-3-15 14v1l-1-1 15-15Zm-205 1 1 1-2 1 1-2Zm-14 5 1 1h-1v-1Zm261 0 7 5 6-5 2 4-5 6 5 6-3 2-5-6 6 5 1-2-5-6 5-6-2-2-6 5-6-5-2 3 5 5-6-6 3-3Zm258 0 9 9-2 3-10-8 3-4Zm0 1-2 3 9 7 1-2-8-8Zm-477 1v2l-9 8v-1l8-7 1-2Zm-35 1 3 3h-1l-2-3Zm173 6-5 6 2 2 6-5-5 6-4-2 6-7Zm-402 3 1 1h-1v-1Zm417 0 3 3-2 3-4-2 3-4Zm0 1-2 3 3 1 1-2-2-2Zm42-1 1 1-9 8v1l-1-1 9-9Zm-153 2v2h-1l1-2Zm396 3v2h-1l1-2Zm-429 1 9 9-2 3-10-8 3-4Zm0 1-2 3 9 7 1-2-8-8Zm438-1-1 2v1l-1-1 2-2Zm-300 6 6 6-5-5-3 2 5 6-6-5 3-4Zm374 2v2h-1l1-2Zm-496 1 3 2 2-1-3 2-2-3Zm14 3-2 3 2 3-3-2 3-4Zm186 0 1 1h-1v-1Zm300 0 1 2-4 1 3-3Zm-27 2v2h-1l1-2Zm21 4-2 3 2 3-2 1-1-3 3-4Zm-465 3-2 3h-2l4-3Zm9 3 1 1h-1v-1Zm156 0-2 3 8 8 1 1h-1l-9-9 3-3Zm347 1 1 1-2 1 1-2Zm-221 5 3 3-2 3-4-2 3-4Zm0 1-2 3 3 1 1-2-2-2ZM6 464v2H5l1-2Zm339 3 1 1h-1v-1Zm78 1 3 3-2 3-4-2 3-4Zm0 1-2 3 3 1 1-2-2-2Zm24-1 9 9-2 3-10-8 3-4Zm0 1-2 3 9 7 1-2-8-8Zm-63 1v2h-1l1-2Zm133 0v2h-1l1-2Zm11 0v2h-1l1-2Zm-129 4 3 3-2-2-1-1Zm-50 2 2 4-3-2 1-2Zm35 6 10 9-1 1-9-10Zm121 1 5 7-3 2-2-3 3 2 1-2-6-4 2-2Zm110 3 9 9-2 3-10-8 3-4Zm0 1-2 3 9 7 1-2-8-8Zm-258 4 7 6 6-5 3 4-4-3-6 5-6-7Zm-68 3v2h-1l1-2Zm17 0v2h-1l1-2Zm138 6 18 20-15 14-6-5-6 5-8-9 9 8 6-5 6 5 13-14-17-19Zm-123 4 9 9v1l-8-9-1-1Zm78 0 3 3-2 3 1-2-1-3-3 2 2-3Zm240 0 3 3-2 3-4-2 3-4Zm0 1-2 3 3 1 1-2-2-2Zm48-1 3 3-2 3-4-2 3-4Zm0 1-2 3 3 1 1-2-2-2Zm115-1 2 4h-1l-1-4Zm-391 6 3 3-5 7-1-1 5-6-2-2-4 3 4-4Zm18 0 3 3-2 3-4-2 3-4Zm0 1-2 3 3 1 1-2-2-2Zm-90 5 3 3-2 3-4-2 3-4Zm0 1-2 3 3 1 1-2-2-2Zm-24 5 3 3-2 3-4-2 3-4Zm0 1-2 3 3 1 1-2-2-2Zm162-1 3 3-2 3-4-2 3-4Zm0 1-2 3 3 1 1-2-2-2Zm144-1 3 3-2 3-4-2 3-4Zm0 1-2 3 3 1 1-2-2-2Zm-156 5 3 3-2 3-4-2 3-4Zm0 1-2 3 3 1 1-2-2-2Zm30-1 3 3-2 3-4-2 3-4Zm0 1-2 3 3 1 1-2-2-2Zm138-1 3 3-2 3-4-2 3-4Zm0 1-2 3 3 1 1-2-2-2Zm78-1 3 3-2 3-4-2 3-4Zm0 1-2 3 3 1 1-2-2-2Zm-380 13 14 15 2-1-2-3 3 2-2 3-16-14 1-2Z"/><path fill="#22295F" stroke="#22295F" stroke-width="3" d="m512 186 4 2-1 2-4 2-1-4 2-2Zm-85 6 5 2-1 4-5-1 1-5Zm68 6 3 2-1 4-5-2 3-4Zm18 0 3 1 1 7-1 3-6-8 3-3Zm-85 6 4 2-2 4-4-2 2-4Zm48 0 4 3-1 3-5-1 2-5Zm11 7 17 7-1 4q-12-1-17-8l1-3Zm-40 5 3 1v5l-6-1 3-5Zm24 0 15 9 3 3 14 6v-1h-2l6-4 7 7 8 21-3 1-8-6-1 3 12 9 2-4 3-1 11 16-1-1-14-4-1 3 12 6 4 9 1 1-5 9 15 8-3 1-1 4h-4l-1-9-11-3 3-5h2l-1-12-5 2v1l-7 3 1-2v-4h-2l2-5-6-4-2-8q-18-13-27-34l-2 1-11-14-3-2Zm36 18-3 10 4 2 2-9-3-3Zm-50-16 11 15-17 7v-1l4-8 1 2 1-15Zm82 3 7 5v10l-16-9-1-3 2-1 9 5v-3l-1-4Zm18 7 7 2q1 11 9 16h-2l-5-2-9-16Zm-3 13 3 1 1 4h-2l-3-1 1-4Zm-8 2v9h-4l-1-2 5-7Zm-83 7 10 4v3l-3 2-1 3-1-4-4-1-1-7Zm85 2q13-2 18 6h-2l-16-6Zm-1 11 2 2 2 5h-2l-2-7Zm45 1 2 1v5h-6l4-6Zm-92 1 12 11-7 2-5-13Zm-21 4 12 3v3l-4 2-7-1-1-4-4-1 4-2Zm-39 1 10 2-1 4-11-1 2-5Zm108 6 4 2v4h-6l2-6Zm40 0 1 1-1 4 5 1h1l-1 6-8-5-2-4 5-3Z"/><path fill="#22295F" stroke="#22295F" stroke-width="3" d="m601 276 23 8 4 9 8 3 6 16h-3l-8-6-1 2-3-1-19 16-4-4 2-1-2-5 14-3-1-4-3-1-1-4-2 5-27-11 4-2 23 12v-1l-2-3 3-1-2-5-3-1-1 5-3-5-9-1 2-5q15-2 20 6l2-5-18-7 1-6Zm19 18-2 11 5 1 1-10-4-2Zm-46-17 1 1-7 10-4-1 3-5 7-5Zm4 5 4 2v5l-4-1-2 1 2-7Zm-84 6 20 9 15 20 1 1h-2l-18-9-1-2 7-1-7-10-15-8Zm58 0 6 2 1 11-1 4 5 1 1-4v-2l1-6 5 2 1 10 5-3 1-3 5 3-2 3-4 3 6 9h-3l-9-6-5 3 1 1 3 2-5 1v2l-5-3-3 1-3 2-1 6 3 3-3 1v2l-3-2-2 3 5 1 1 1 4 1-10 7-1-2-6 1v1l-6-7 4-2 2-4 6-4-5-3h-2l-4 1-1-1 4-6h2l1-2 3 1 2-1 1 2 11-6-7-16-4-1 5-1v-6Zm-22 19 3 1-1 3h-3l1-4Zm-25 4 5 5 1 2 5 1-1 5-8-5-2-8Zm150 2 11 8-1 3-11-1 1-10Z"/><path fill="#22295F" stroke="#22295F" stroke-width="3" d="m622 318 8 6 1-2 16 8h2l5 1 1 3 2 2 9 15 18 5 4 9 8 3v9l-6-2v-3h-7l1-4-24-11v-9l-11 2 7 10-2 1 4 4 2 1 1-2 9 8-4 1-1 3-5 2-1-2-23-26-21-8-2 4-2-9 19-1 2 6 5 1-1 4 5 1h1l2 4 4 2 6-16-18-2-2-6h-13l-3-8 2-3 2-1Zm-99 7 3 5 2 2-1 4-10-5 5-1 1-5Zm-293 5 7 6 2 5-2 1-9-10 2-2Zm498 0h11l17 8-1 4-11 1-5-1-1 3-6-3-9 6-2-2 7-16Zm-168 6 34 27-2 3h-5v-2l-7-10-4 2 7 8 3 2h-4l-12-8-1-4v-2l-5-8-11-2 5-3 2-3Zm204 0 4 2-1 4h-5l2-6Zm-71 12 3 3-2 3-4-2 3-4Zm-80 2 7 16-2 1v5l-6-1 1-21Zm92 4 3 3-1 3h-5l3-6Zm52 4 5 5-8 9-4-2-1-8-4-1 11-1 1-2Zm20 2 3 2 2 16 15 6-3 1-7-1-1 3v2l-8-11-9-5 2-1-1-4 7-8Zm-152 10 7 2 4-2 1 8 3 2 1 2-5 2-9-5-2-9Zm18 0 9 8h-7l-2-8Zm153 2 2 2v4l-6-1 4-5Zm-128 6 4 2v4l-6-1 2-5Zm54 0 4 3-1 3-5-1 2-5Zm90 0 4 2-1 4-5-1 2-5Zm-77 6 3 2-5 14 5 8h-5l-2-6q-6 10-20 12l-3-3 12-4-5-16 6-1 10 6 4-12Zm18 0 9 3v5l-9-8Zm114 0 3 3v3l-6-1 3-5Zm-242 1 11 6 2 5h4l1-4 12 14 3 2h-4q-19-6-30-21l1-2Zm218 5 12 6 1 5-5 13-11-6 5-9 1 1 1 2 5-1-1-5-8-6Zm59 0 4 1v5l-6-2 2-4Zm-145 4q4 8 16 8h1l1 6 6 1-1 4 1 1q-18-1-23-13l-1-7Zm-96 2 11 2-2 4-4 3-2 3h-5l1-3-1-3h1l1-6Zm19 7 9 5-2 1 2 4h-1l-8-6v-4Zm126 5 4 2-1 4-5-1 2-5Zm-19 1 7 9 10 4-1 10-5-2-2-4-7 5-9-10 6-4-1-3h1l1-5Zm2 12-2 3 3 1 1-2-2-2Zm71-12 15 11-5 1 1 5 2 1-3 4 24 3-1 4q-18 3-26-4l2-1-15-8-2-5 8-11Zm0 5-2 12h6v-10l-4-2Zm-227 0 3 2-1 4-5-2 3-4Zm96 0 4 1-1 10-3-5-3-1 3-5Zm108 0 3 2-1 4-5-2 3-4Zm-173 1 1 1-8 10-2-2 7-8 2-1Zm75 3 6 8 3 1-9 7-2-8 2-8Zm-430 8 3 2-1 4-5-2 3-4Zm527 0 4 2-1 4h-5l2-6Zm-86 1 1 5 11 2-1 4-11 2 2 4 16 2v5l-5-1-1 5 1 1-19-14v-4h-5l9-6 2-5Zm-54 5 15 12-3 1 1 7-1 3-8-10-14 10-2-9 11-2 1-2-2-4h2v-6Zm152 0 4 2v10l-6-2 2-10Zm-198 1 8 7 1 3h-1l-8-6v-4Zm238 11 6 2-2 4h-5l1-4v-2Zm-173 3 11 14-6 1v-1l-5-14Zm-275 3 4 3-2 3-4-1 2-5Zm301 0 3 1 2 3 3 2-5 1v2l-6-3 3-6Zm66 0 3 2-1 4-5-2 3-4Zm16 0 11 9 5 8h-1l-13-10-2-7Zm-779 6 4 2-2 10-4-2 2-10Zm602 0 14 8-1 4h-6l1-4-12-2 4-6Zm220 0 4 2v4l-6-2 2-4Zm-138 6 4 1-2 5-4-1 2-5Zm71 0 5 2v4l-6-2 1-4Zm13 0 4 2v4l-6-1 2-5Zm84 6 4 3-1 3-5-1 2-5Zm-179 6 6 6 3 6h-2l-10-9 3-3Zm84 0 3 2v4l-6-2 3-4Zm85 1 1 1-4 7-10 3-3-4 11-2-2-1 7-4Zm-49 5 9 9v2l-10-6-1-3 2-2Zm17 6 4 2v4l-6-1 2-5Zm48 0 4 1v11l-6-1 2-11Z"/><path fill="#3E4A7D" stroke="#3E4A7D" stroke-width="3" d="m487 231 3 4-5-2 2-2Zm67 9 2 1-3 1 1 3 1 1h-1l-2-4 2-2Zm-80 14v2h-1l1-2Zm26 10 13 12-11-11-2-1Zm52 5 1 1h-1v-1Zm-60 3v3l-2 1v-1h1l1-3Zm30 4v2h-1l1-2Zm8 23 1 1h-1v-1Zm0 7 4 2v1l-1-2-4 1 1 3 1 1h-1l-2-4 2-2Zm16 3v2l-3 1v-1h2l1-2Zm-30 2v2h-1l1-2Zm27 5 1 1h-1v-1Zm98 1 7 10-9-8 2-2Zm-37 1 3 5h-1l-2-5Zm16 0 1 1-2 1v1l-1-1 2-2Zm-67 4v2h-1l1-2Zm292 74 1 3h-1v-3Z"/><path fill="#C5C8A8" stroke="#C5C8A8" stroke-width="3" d="m519 198 3 3v3l-6-1 3-5Zm11 7 31 30 6 10 9 5 6 13h-2l-22-19-1-4-11-3 1-4 4 1 1-4-6-4-2-4-14-12-4 6-4-2 1-4 7-5Zm-60 12 13 12 15 30-6 10 9 2 5 17 4-1 3-5 3-1 1-5 4 2-2 4-3 2v4l-6 2 1 4-1-1-18-8-1-15-15-12-2 3 9 9-13-7 2-5 2-1-1-5-14-6-2-4 5-2 13 6 4-3 1-3-9-18h-3l2-5Z"/><path fill="#C5C8A8" stroke="#C5C8A8" stroke-width="3" d="m471 234 3 2v4l-6-2 3-4Zm77 12 4 2 3 4h-6l-3-4 2-2Zm5 18 5 3-2 3-4-2 1-4Zm-25 24 6 2-2 4-10 2 6 9-3 1-9-11 12-7Zm56 7 4 3v2l-4-1v-4Zm6 5 22 8-1 4h-11l-7-10-3-2Zm-55 6 5 3 2 3 4 1v2l-3 1-3-1-1-3-9 5-2-4 6-3 1-4Zm49 0 4 1 2 5 4 1 8 9 10 3 2 3 10 5-2 3-10-3-1-3-5 2-2 4-4-2-2-9-14-19Zm-73 6 5 3-2 3-4-2 1-4Zm115 0 4 2v4l-6-1 2-5Zm11 6 11 10h-2l-8-3-1-7Zm-80 1 1 3-3 2-1-2 1-2 2-1Zm-2 23 12 7 2 4-4 1-10-6-2-4 2-2Zm64 1 9 5 4 4 10 6 6 14h-2l-5-6h-5l-1-4-11-3-5-16Zm37 5 4 3v6l-6-4 2-5Zm96 37 14 11 2 5h-1l-17-14 2-2Zm47 5 5 3-2 3-4-2 1-4Zm38 0 9 4v2l-9 6-3-9 3-3Zm23 30 4 2-2 4-4-2 2-4Zm-179 6 3 3-5 3-1-3 3-3Zm-36 36 3 2-1 4-5-2 3-4Z"/><path fill="#000014" stroke="#000014" stroke-width="3" d="m501 181 2 2-2 3h-3l3-5Zm-77 17q5 3-1 6h-3l4-6Zm18 0 4 1-5 4-2-2 3-3Zm39 0 5 1v5l-6-3 1-3Zm-28 2 9 5v5h-6l-5-8 2-2Zm-20 2 3 6-3 1v-7Zm72 2 8 1 2 5-5 1v1l-10-4 1-2 4-2Zm-61 4 1 2 1 1-8 7 1-5 5-2-2-1 2-2Zm79 20 5 4v2l-6-3 1-3Zm-74 7 1 1 1 4 3 1-3 2 5 13h-1l-1-4-37 24 1 1-8 6-8 14-11 6-1 5 13 16 17-8-2-4h-4l1-3 14-8q5 4 3 17l-6 10 4 2 13-8 1-5q-7-6-6-19l4-1 5 9 6-5 12 17h1l2-13-6-9-11-4 6-7 14-8 3 6q-3 16 3 23h1l3-12 11 3h1l6 9 5 1v11l-6 3 1 3 5 1 1 5q12-2 17 4l1 2 11 3h1l6 9 8 1 6 17h3l1-6 17 12 1-6 5 4 2 2 4 1 1 3 3 2 5 6 11-5 16 6 13 15 3 2 2 4v8l-12 1 1 5q15 2 22-5l4 16 9 2 3 10 7 1 2-4 2 10 4 4 1 2h11l17 12h19l4-6h14l1-6h17l1-10 2 4 9-2v-2l-11-5-2 1-1-4-3 1q1-13-7-17l-5-2-1 4-2-4-10-3v-3h-11l4-9 1 1 1 3 11 5 1-2 3 1 3-15 2 4 9 4 3 7 27 20v17h-7l-17 9 1 3h11l1-3 7-2 4 2h1l6 9 7 6-8 1 1 5 13 6 21-14 1 2 1-6 5 1v5l-4 1-2 7 7 8 16 8h9l3-2 2-10q16-3 23 4l3 13 9 2v11l-6 4 3 7 3 2v113H0l1-174 5-2v-2l-6-2 1-29 13 5 4-2-5-6 7-3 9 5h39l29-12h8l7-6 7-20 1 2q-2-10 4-12 14-3 19 4l-5 6 4 2 10-5 8 5 2-13-5-8 5-6-18-3 1-3 23-9 3 17 5 1 8-5 1 3-5 10 3 3 5 1 3-2 7-13-5-10 2-3 5-1 12 5 18-11 8 5q8-5 9-18l17-2-2-4h-4v-8l37-49 26-14v-2l8-5v2l-7 14-16 5 5 11-1 2q-16 1-22 11l3 3 15-6 18 10-3 8h-3v-4l-19-2-9 7-2 7 3 3 6 1 6-11 6 16 15 1v-1h-2l12-11h8l6 4-1 6-12-4-9 7-22 40-7-5-5-12-7 6 1 1-8 6-4 9-39 16-28 22 1 1-10 8 1 1 20 8 14-8 4-8 5-1 8 5 4-10 16 4v-1h-2l6-5 6-12q14 1 22-5 4 7 18 5l8-4 6 4q5-11 20-12l10 6 2-7-4-8 4-6-6-14 6-14-5-8 5-3 3 6h1l5-10 7 4 2-3 1-27h3l15-21q18-6 27-21l12-18h2l1-3 4-2Zm-176 89-3 4 4 2 2-3-3-3Zm122 0-4 2-1 4 10 3-10 13 10 8 8-16-6-13-7-1Zm-116 12-9 9 6 15h4l8-9-11-6 5-6-3-3Zm36 0-3 4 4 2 2-3-3-3Zm174 0-3 6h6v-3l-3-3Zm-4 12-5 3 9 21 9-8-7-13-6-3Zm24 0-2 1-3 4 2 7h2l8-9-7-3Zm-38 6-9 16q-2 16 9 20l3-2-5-8 11-17-9-9Zm-170 6-1 4 4 2 2-3-5-3Zm134 0-3 4 4 2 2-3-3-3Zm12 0-3 4 4 2 2-3-3-3Zm-30 6-3 4 4 2 2-3-3-3Zm102 0-3 4 4 2 2-3-3-3Zm-144 6-3 4 4 2 2-3-3-3Zm104 0-5 3 8 15h2l2-4-1-11-6-3Zm24 0-2 1-3 4 2 7h2l8-9-7-3Zm-92 6-15 16 4 2 14-15-3-3Zm26 0-2 1-3 4 2 7h2l8-9-7-3Zm-90 12-5 3 1 3 11-2v-1l-7-3Zm72 0-2 1-3 4 3 13 13-7 2-3-1-5-12-3Zm34 0-3 4 4 2 2-3-3-3Zm-330 6-3 18h4l2-17-3-1Zm204 0-3 4 4 2 2-3-3-3Zm12 0-3 5 9 13 3-2-6-15-3-1Zm-204 6-3 4 4 2 2-3-3-3Zm178 0-1 4 4 2 2-3-5-3Zm50 0-3 4 4 2 2-3-3-3Zm120 0-3 4 4 2 2-3-3-3Zm-192 6-3 4 4 2 2-3-3-3Zm90 0-3 4 4 2 2-3-3-3Zm78 0-15 16 9 2 9-15-3-3Zm-184 6-2 1-3 4 2 7h2l8-9-7-3Zm226 0-3 3 15 15 3-2-5-6 5-6-2-4-6 5-7-5Zm258 0-3 4 10 8 2-3-9-9Zm-370 6-16 8-1 2 5 2 19-2 6-7-13-3Zm34 0-9 10 4 2 8-9-3-3Zm-116 6v6l17-2v-1l-17-3Zm128 0-3 4 4 2 2-3-3-3Zm42 0-9 10 5 2 5-1 2-3-2-7-1-1Zm168 0-3 6h4l2-4-3-2Zm-354 6-3 4 10 8 2-3-9-9Zm359 0-2 2 7 14 4 2 7-2v-2l-2-2-4-2-2-3-8-7Zm119 0-1 4 4 2 2-3-5-3Zm12 0-1 6h6v-3l-5-3Zm-474 6-1 4 4 2 2-5-5-1Zm38 0-15 10 3 8 13-7 2-3-2-7-1-1Zm84 0-3 3 7 13 11 2v-5l-5-1-1-5-9-7Zm-394 6-2 1-3 4 1 5 11 2 1 12 11-2 6-8-1-5q-6-11-24-9Zm286 0-3 4 6 2v-5l-3-1Zm186 0-9 16 10 8 2-4-2-19-1-1Zm-162 12-3 5 2 7h2l2-4-2-7-1-1Zm108 0-3 4 4 2 2-3-3-3Zm192 0-3 12h18l1 6 23-12v-3l-5-3-4 6q-18 3-26-3l-1-2-3-1Zm-18 6-3 4 4 2 2-3-3-3Zm154 0-1 3q-8 6-25 3l-11 6-30 1 14 17q14 3 19-5l8 5q20 2 29-7l8-14-11-9Zm-404 6-5 3 1 3 11-2v-1l-7-3Zm46 0-3 4 4 2 2-3-3-3Zm24 0-3 4 10 8 2-3-9-9Zm36 0-3 5 1 5 27 14 2-3-6-5-2-3q-3-9-15-7l-1-5-3-1Zm38 0-4 2-1 2 5 2 7-2v-1l-7-3Zm-168 6-5 3 15 21 6-5 27 17v-2l4-3 1 3-4 2-1 4 5 2 10-5 2 2-5 7q19 1 27 14l6-5 7 5 14-15q-9-17-27-23l-4-7-32-15-6 17-20-14-1-2-19-1Zm316 6-3 4 4 2 2-3-3-3Zm-54 6-3 4 10 8 2-3-9-9Zm-322 6-4 2-1 2 5 2 13-2v-1l-13-3Zm406 0-8 10 4 2 13-2v-1l-9-9Zm92 0-2 1-3 4 2 7 9 6 7-2-7-13-6-3Zm-470 12-3 5 1 5 4 2 7-2v-1l-9-9Zm318 0-3 4 4 2 2-3-3-3Zm48 0-3 4 4 2 2-3-3-3Zm-348 12-3 4 4 2 2-3-3-3Zm-24 6-3 4 4 2 2-3-3-3Zm162 0-3 4 4 2 2-3-3-3Zm144 0-3 4 4 2 2-3-3-3Zm-156 6-3 4 4 2 2-3-3-3Zm30 0-3 4 4 2 2-3-3-3Zm138 0-3 4 4 2 2-3-3-3Zm78 0-3 4 4 2 2-3-3-3Zm18 0-3 4 4 2 2-3-3-3Zm-394 12-5 3 15 15 3-2-7-13-6-3Zm126-305v2l-4 2-1-1 5-3Z"/><path fill="#000014" stroke="#000014" stroke-width="3" d="m469 264 5 4v2l-6-3 1-3Zm-104 1 5 2v1l-5 1-3-1 1-2 2-1Zm203 5 2 9-5 3-1-8 4-4Zm-103 1 2 2-2 3h-3l3-5Zm125 0 4 3v2h-8l2-4 1 1 1-2Zm-7 13 2 4 9 1v5l-12-3 1-7Zm92 23 2 2-1 2-3-1 2-3Zm10 5 14 1 1 4-9 1-7-3 1-3Zm-151 8v10h-2l-4-5 4-1 2-4Zm175 5 4 3-7 7-2-1-1-3 5-1 1-5Zm-18 5 5 3h1l6 7 3 2 8 10v2q-7-8-23-6l3-6h2l-5-12Zm26 1 1 4h-1l-2-2 2-2Zm-138 1 1 1 1 3h-1l-1-4Zm31 5 1 1 1 4-3 6h-3l4-11Zm-377 5 6 1-2 4-4-5Zm500 0 1 1-2 7 6 12-2-2-4 3 1 1 11 6 1 8 5-2 1-4 5 1 3 5h3l3-5 15 9v2l-12 1v5l-6-3v-3l-30 1-1 10-5-2q3-15-2-21h-4l6-17-3-1-2-5 12-7Zm24 12 8 1 3 8-5 3-1-6-6-3 1-3Zm-621 18 1 1-1 3-3 1-1-1 4-4Zm735 6 2 1 3 11h-2l-3-12Zm15 0 8 4v2l-11-3 3-3Zm-87 7 5 3v2l-6-3 1-2Zm-24 3 13 20h-9l1-2-5-18Zm-111 2 20 1 7 9 15 2 2-1 1 1 3 1-4 2v11l11 18-1 2-16-7 1-3h5v-4l-18-2 6-9q-5-9-18-9v-4l-17-3 3-5Zm33 0 10 1-1 3-9 2-5-2 1-2 4-2Z"/><path fill="#000014" stroke="#000014" stroke-width="3" d="m745 391 5 3v2l-4 1-2 4-5-2 2-4 3-1 1-3Zm-75 11 2 1 1 3 3 2 8 10v2h-6v-4l-12-5 4-9Zm63 24 5 1v11h-9l-1-4 4-2 1-6Zm120 0 5 4v2l-6-3 1-3Zm-102 1 4 3v1l-4 1v-5Zm90 5 1 1-1 3-2-1-2 1-1-1 5-3Zm26 2 7 4 2 4 1 2 5 1v5l-6 1v4l-6-2q2-14-5-17l2-2Zm-24 4 4 6 5 4 2 2 10 1v11l-24-21 3-3Zm-43 1 2 2v1h-2v-3Zm7 6 2 5-5 1 1 5 4 1-2 4-7-4-1-3 8-9Zm29 5 4 4v2h-3l-1-6Zm59 0 5 1 1 3 5 3v17h-6v-6q-13 2-18-3l1-9 12-6Zm-78 6 2 1 3 8-3 1-2-10Zm31 2 2 1 6 14-3 1-7-3 2-13Zm25 11 3 3v2h-6l3-5Zm31 11 2 1v5h-5l3-6Zm-475 31 2 2-1 2-3-1 2-3Z"/><path fill="#858E90" stroke="#858E90" stroke-width="3" d="m523 202 8 4-6 4-3 1 2 5-3-2-5-10h6l1-2Zm7 8 12 12h-1l-10-4v-2h-5l4-6Zm-72 7 9 4h1l1 1 3 2 8 17-3 4-4 1v-1h1l-2-4 2-1-1-6-4 2-11-19Zm89 9 5 4-1 4-5-1 1-7Zm-60 6q9 21 27 34l4 10-2 1-16-13-1 3 2 3h-7l-2-2 6-10-13-24 2-2Zm60 5 6 4-1 4 6 1 1-2 23 19v-2l-6-10 9 8 2 4-10 1-11-5-1-4-13-6-1-3-4 1v-10Zm-71 21 12 12h-4l-10-10 2-2Zm73 0 3 3 2 3-2 1 2 5-1-1h-2l-5-8 3-3Zm-57 17v9l-2-2-4-2 3-4 3-1Zm99 1 3 3-2 3-4-2 3-4Zm-86 5 7 2-3 5-5-1 1-6Zm26 1 3 3v4l-6-1-12 7 9 11 3-1-6-9 9-2-1 2-1 4 11 4v4l-5-2h-2l-5 2 1 4-1 2-15-19h-2v-2l-2 1 3-6 5-1 6 1 8-6Zm18 6 3 3v3l-6-2 3-4Zm30 0 3 3 1 1 3 2-3 1 3 5h2l1-3 4 3-4 1 11 9 1 3-1 4 6 5 1 1 21-16 12 11-4 1 2 6-1-1-11-5 4-1-1-6-5 2 1 4-7 2 3 10h-3l-6-3v-3q-14 0-18-9l-1-3 1-4-4-2h-2l-5 1-3-13-4-2 3-4Zm28 6 4 4 1 2h-2l-3-6Z"/><path fill="#858E90" stroke="#858E90" stroke-width="3" d="m621 294 3 3-2 9-4-2 3-10Zm-60 6 3 3-2 3-4-2 3-4Zm-54 6 8 6 1 2-2-2-4 1v1l-6-4 3-4Zm40 0 4 2-4 6-2-2 2-6Zm65 0 6 3-6 3v-6Zm-47 12 5 3-2 3-4-2 1-4Zm-58 6 3 3-2 3-4-2 3-4Zm12 0 3 3v3l-6-2 3-4Zm18 0 3 3-2 3-4-2 3-4Zm168 0 3 3-2 3-4-2 3-4Zm-152 6 5 3-2 3h-4l1-6Zm55 0 4 2 2 2 3 2h-12l1-2 2-4Zm-67 12 5 1-2 5-4-2 1-4Zm75 0 5 2-1-1-2 1 8 16 10 4 1 3-2 3-5 2-10-7-8-17 4-6Zm23 0 3 3-2 3-4-2 3-4Zm100 0 5 3q-3 6-6 1l1-4Zm-110 5 9 7h-2l-8-5 1-2Zm23 1 3 1-1 4 30 16-2 3-14-2-18-17-1-2 3-3Zm-73 6 8 11h-1l-10-8 3-3Zm168 0 9 4v2l-12-2 3-4Zm-104 4 16 19-5 1-8-5 2-1-5-14Zm144 26 13 6-2 1v1l-12-5 1-3Zm-143 7 16 15-2 1-14-12v-4Zm203 3 5 5-2 3h-4l-1-5 2-3Zm-80 1 7 4-2 3h-5l1-3-1-4Zm16 13 3 3v3l-6-2 3-4Zm-48 6 3 3-2 9-4-2 3-10Zm126 0 3 3v4l-4-1-2 1 3-7Zm10 6 5 3-2 3h-4l1-6Zm-123 7 1 1-6 8-3 1-2-1 8-8 2-1Zm-70 3 1 2 1 1-4 5-4-2 3-4 3-2Zm15 2 3 3v3l-6-2 3-4Zm16 12 5 4 6 12h-2l-7-4-2-12Zm176 0 3 3-2 3-4-2 3-4Zm-122 6 5 3-2 3-4-2 1-4Zm-18 6 5 3-2 3-4-2 1-4Zm-97 6 6 3-2 3h-5l1-4v-2Z"/></svg>