<svg viewBox="0 0 654 348" xmlns="http://www.w3.org/2000/svg"><path fill="#86C7E1" stroke="#86C7E1" stroke-width="3" d="m1 0 653 1v77h-42l-11-6h-49l-11-6h-43l-11-6q-24 4-34-5l-6 5-8-6h-37l-9 6-8-6q-18 2-24-6-35 5-52-6l2-3-15-3-3 10-23 2-12-6-9 6-6-5-8 5H60l-12 6-12-6Q25 58 1 54V0Zm336 102 5 3-2 3h-4l1-6Zm5 39 1 2-4 1 3-3Zm41 9 9 6h-2l-7-6Zm-89 9-8 9-7-5 6 4 9-8Zm3 3-2 3 5 6-6-5 3-4Zm87 83v2h-1l1-2Zm-171 1 3 3-2-2-3 2 2-3ZM72 304l1 1-2 1 1-2Zm27 14 1 1h-1v-1Z"/><path fill="#B7DBEB" stroke="#B7DBEB" stroke-width="3" d="m297 36 3 2-1 4-5-1 3-5Zm-33 18 6 4 2 2 4 4 2 2 4 4 1 2 4 1-10 8 3 3 2 1 3 4 3-2 1 2-3 1h-10l-11-9q-19-3-30-12l-1-3 4-5 8-1 3 6 3-2 2 6 17 2 5-3-1-3-5-2-1-4h-13l8-6Zm72 6v3l-4 2-1-1 5-4Zm-41 6 5 4-5 10-1-8h-5l5-3 1-3Zm57 12 2 1-3 5 1 1-3 1-2-2 5-6Zm2 14 1 4h5l1-2 5 8h-2l-7-5-7 4v-1l4-8Zm-108 28 18 1 1 5 3 2 2 4-4 1-8 19-10-2-8 19v11h3l2 1-8 5 1 1-7 5 1 1q-9 12-27 13l-1-2-6 1v1l-4-2-3 1-7 5-13-12-12 12h-9v-1l-1-5-41 13v2l-18-4-2-4-4 3v1q-8-7-23-5l-1 2-12-2-1-4-4-2-1 2-7-8-8 6H1l-1-71 31-1 11-6h193l11-6Zm52 0 4 1-4 5h-4l4-6Zm24 0 4 1-2 11h-6q-2-10 4-12Zm71 1q10 9 34 5l11 6h25l9-5 6 5 9-6 12 6 9-5q7 9 27 5l9 6 8-6h43q10 10 36 6l9 6q2-7 14-6v78l-16 8-1 3-1-5-6 2-1 2-11 2v-1l-1-5q-17-3-23 4v4l-17-7 11-2-1-3-16-2-1 2h-3l2-1-6-1 1-5-24-2-1-3-17-2-9 6-8-6-1 4-12-14-4-1-2-5-12-5v-3l-5 1-8-11-26-13-2 3 6 6-8-11-28-16 2-1-21-9 1-3h5l3-5Zm-105 1v5l-3 5h-2l5-10Zm93 15 11 7h-2l-9-7Zm-96 7 3 5 1-2 6 7-6-4-1 9-5-3-1 2h-4l-17 22-3-1-1-4 7-2-1-4 11-8 1-4 5-7 2-4 3-2Zm39 0 5 2-4 6-1-8Zm37 4 13 20-7 3-3-8 2-1-3-5h-2l2-1-2-5-1 3-2-3 2-1 1-2Zm-54 5 8 4 1 4-14 7-2-2 6-5 1 1 4-2-4-7Zm43 3 4 3-2 3h-6l4-6Z"/><path fill="#B7DBEB" stroke="#B7DBEB" stroke-width="3" d="m253 162 4 1-5 3 1 2 3 1-10 7v-8h-2l9-6Zm74 6 5 1-3 5-5-2 3-4Zm86 7 1 8-1-1-9-2 9-5Zm-41 2v3l-2 6-4-2 1-5 2 1 3-3Zm-83 3 10 1q-5 6-18 5l2-3 6-3Zm162 0 5 3v3h-6l1-6Zm-70 6 5 1-2 5h-3l-2-4 2-2Zm-36 6 3 1-2 5-4-2 3-4Zm124 3 5 8h-2l-7-4 3-1 1-3Zm-187 9 2 1-2 1v1l-10 3v-1l10-5Zm43 5 5 2-2 5-3 1-2-6 2-2Zm-69 1 3 1-1 3 10 8h-7l-8-6 3-6Zm133 0 7 1 2 5 5 1-3 5-11-12Zm-169 1 2 2-1-1-1-1Zm164 2-1 2h-2l3-2Zm92 3 4 2v4l-6-2 2-4Zm41 5 11 4-2 3-9 1v1-9Zm-352 1 9 3v8l-6-9-3-2Zm89 0 4 2-1 2-4 1-1-3 2-2Zm190 0 6 2 4 10 9 1-4 5-8 3-2-15-5 2-3 4h-5l3-7 4 1 1-4v-2Zm-293 3 5 5-6 9 10 2-8 3-12-9 7-3 3 1 1-8Zm90 3 5 2v4l-6-2 1-4Zm296 0 3 2 1 4h-4l-3-3 3-3Zm-60 1 1 1 2 5-2 4h-2l-2-5 3-5Zm154 4 10 5v2l-5 1-6-4 1-4Zm-444 2 10 5-5 1v11h-15l3-2 1 1 3-5 2-1-1-4 2-6Zm248 5 3 1 1 11 4 1-9 4-2-11h-2l5-6Zm54 0 3 1-1 5h-5l3-6Zm21 0 1 1-1 4 1 1-7-1 2-3 4-2Zm-246 1v8l-10 3v-1l9-4-2-1 3-5Zm115 2 2 3-4-1 2-2Zm-103 2 1 1h-1v-1Zm-177 1 11 1-2 4 2 2h-2v1l-9-8Zm540 0 3 1 1 5 4 1-5 2-2 3-5-6h1l3-6Zm-568 1 2 3 3 2H63v-1l8-4Zm561 2 1 3-2-1 1-2ZM6 251v6l-5 1-1-5 6-2Zm414 0 1 1h-1v-1Zm-342 1 6 4v2l-6 1v-7Zm208 0 3 1-4 5h-4l5-6Zm184 0 10 3v4l-10-7Zm17 0 5 2 2 2 11 2 5-3 2-3 4 2 2 2 8 4 2 3 1 1h-7v-1l-1-5-17 2 2 4 7 1-3 5 2 1-8 5v-6l-12 4 1 2h-9v-1l2-4 1 2 11-6v-3h-9l2-3-4-9Zm-468 6 5 1v5l-6-1 1-5Zm236 0 4 1-1 4 1 1-7-2 3-4Zm214 0 5 4 1 8 2 1-8 5-1-3 5-8-1-1-4 3 1-9Zm-389 6 11 1-1 6-4-1-2 1-1-5-3-2Zm341 3 9 3h1l-5 3-2 3-4-2 1-7Zm-349 1 1 1-1 6v2l-4-1-2 1-2-6 3-2 3 1 2-2Zm475 0 3 2 4 4 4 2 1-4 4 9-10 1-6-14Zm-391 2 10 5 4-5 4 2 2 4h-27l3-4 4-2Zm142 0 2 1-1 3-4 2-1-2 4-4Zm238 0 3 1-2 5-3-1 2-5Zm50 0 3 1-1 3 11 8-3 1-13-9 3-4Zm17 0 3 3 1 1 3 2h-10l-3-1 3-1 3-4Zm-142 4 1 1-3 7-8 1v-1l3-6 7-2ZM9 276l3 6h-2q-7-3-1-6Zm198 0 13 1-8 4-2-3-3-2Zm161 0 11 1-2 5-5-1-1-3-3-2Zm16 0 12 3v6l-12-6v-3Zm-287 4 1 2 7 1-13 5v-1l4-2-1-2 2-3Zm552 1 5 2v5l-6-2 1-5Zm-609 1 9 13-1 1-8-8h-3l3-6Zm443 0 3 3v3l-6-2 3-4Zm152 6 6 1-2 5-2 1-2-7Zm-112 5v2h-1l1-2Zm-39 1 8 3v5l-8-8Zm-394 1 1 11 1 1-10 5 2-3v-3h-2l8-11Zm245 5 7 1-1 5-5-1-1-5Zm28 0 3 3v3l-6-2 3-4Zm283 1 2 1 3 4h-11l2-3 4-2Zm-489 1 5 8h-2l-6-3 3-5Zm18 1 6 4-1 4 1 1-7-3 1-6Zm11 3 10 6h-3l-7-3v-3Zm18 0 18 6 1-2 3 1 2-1 1 2 3 1-15 5-14-10 1-2Zm267 0 3 3-2 3-4-2 3-4Zm100 0 8 1-2 4-4 1-2-6Zm-72 5 4 1h1l-2 5h-3v-6Zm-432 6 5 2-1 4h-4v-6Zm377 5 1 3-4 5-2 1v-1l5-8Zm19 0 5 3-3 5-15-3-1-2 13-1 1-2Zm12 2 5 4-7 2 1-2 1-4Zm-102 6 4 2 1 2-3 2-2-6Z"/><path fill="#9ECEE2" stroke="#9ECEE2" stroke-width="3" d="m300 36 11 3-2 3-3 2 1 10 1 1-8 14-5-3-2 4-10 2-4-6-3-1-3-5-3-1-1-3-5-2-12 9-2 3-4-2v-4l-11 4-1 3 4 4q5 8 21 7l17 12h10l2-1q-7 6-6 22l-12 17 5 9-7-4 2-1-3-6h-3v-6q-21-3-29 6H42q-13 11-41 6L0 55q25 3 37-7l12 6 11-6h175l9-5 6 5 9-6q8 9 30 6l5-3 1-4 4 1 1-4v-2Zm15 12 3 3-2-2-6 5 5-6Zm15 0h31q6 8 24 6l9 6 8-6h37l9 6 6-5q9 10 33 5l11 6h43l11 6h49l11 6 42 1v59l-15 6-8-6q-26 4-36-6h-43l-9 6-8-6q-20 3-28-5l-9 5-12-6-9 6-6-5q-10 10-33 5l-11-6q-24 4-34-5l-3 5-6 1v1l-12-10v1l-8-16 2-1-6-12h-2l2-4-6-2h-3l3-5v-7l-4 2-2 4 3 1-4 5-5-2-2-3 2-1 1-7 4 1 1-5-4-1-2 1-1-7-4 2-1-2-5 4 1 1h1l-6 1-3-3 12-4-1-5h-6l1-4v-2Z"/><path fill="#9ECEE2" stroke="#9ECEE2" stroke-width="3" d="m333 72 3 3 2 3-2 1 2 5h-5l-3-9 3-3Zm-26 6 5 3-10 3-1-1 2-3 4-2Zm14 6 3 3-2 3-4-2 3-4Zm-18 6 3 1-3 5h-3l3-6Zm54 0-2 3-1-2 3-1Zm-47 12 2 1q-8 6-6 23l2-1 4-2 1-3 8 1-3 11h6l3-12 3 3q-2 11 4 14l3 1 9-6v3l-3 7-4 2-20-6-1 3 5 3h-18l1-2v-4h-8l7-17-7-1-4 3v-3h-2l18-18Zm-19 18-2 3-1-2 3-1Zm66 0 3 3-2 3-4-2 3-4Zm-69 7v5l-5 10-1-10h2l2-1 2-4Zm105 5 12 6-3 2-9-8Zm-126 12 3 3-3 9-3-9 3-3Zm-16 6 7 3-2 3-5-6Zm38 0 9 6-4 1-8 10-8-5-5 11-9 5-2 8-4-2v-2l-4-1 5-2 2 1 19-24 5 6 3-1 1-11Zm20 0 3 5 2 1h-4q-7-3-1-6Zm18 0-5 6-4-2 3 1 6-5Zm100 3 5 4 7 9 3 2-4 1v1q-10-5-11-17Zm-166 3 7 6h-13v-1l3-1 3-4Zm39 0 6 3-6 8 3 1 13-7 1-2 1 4-3 4-9 5v2h-6l-5-9 5-7v-2Zm33 0 3 3 1-2 3 5 2-1 2-3 5-2-1 2-2 5-16 11v-1l2-4v-2l4-2-5-7 2-2Zm111 12 6 3-6 3v-6Zm-191 2-7 8 1 2 3 2 2 8q-3 5-5-1l-7-3h-3l8-5-1-3 9-8Zm90 10 5 4v2l-6-3 1-3Zm53 0 1 1-1 6 1 1-5-2-2 6 2 1-8 5v-1l-2-4 2-1 3-7 9-5Zm74 0 4 1 3 5-3 1 2 5h-1l-5-2-2-8 2-2Zm-44 8 4 3 2-1-3 2-3-4Zm-101 4 5 3-6 5v-2l-7-1 8-5Zm138 1 5 3v2h-6l1-5Zm-292 5 12 12h-23l11-12Zm93 0 2 1-11 5v-1l9-5Zm79 6 5 3v3l-6-2 1-4Zm-8 1-2 5-2 5-1-5h-5l10-5Zm-209 5 1 1-1 4 1 1-6 2-1-2-6 2 1 4-1-1-6-2 1-3 17-6Zm97 0 10 5 11-5v1l-15 5-8-4 2-2Zm98 0 3 2 1 10h-6l-1-6-11 9 7-8 1-2 3-1 3-4Zm66 0 12 12h-2l-14-6 4-6Zm148 4 13 8h-11l-2-8Zm-325 2 2 1-12 5v-1l10-5Zm198 0q7 8 25 7l-2 3-4 2-19-9v-3Zm151 0 10 1-10 5-2-4 2-2Zm-121 6 6 2-1 4-5-1v-5Zm57 0 3 3-2 3-4-2 3-4Zm80 0 12 6h-5l-7-6Zm65 0 4 1-2 4 1 1-13 2 3 10h-2l-7-3-1-8 7-4 1 3 5-3 1 2 3-5Zm-483 4 13 8h-1l-12-8Zm-74 2 7 3v5l-7-8Zm274 0 3 3-2 3-4-2 3-4Zm89 0 4 2v5l-4-1h-5l5-6Zm113 0 5 3-2 3-4-2 1-4Zm35 2 4 3 2-1-3 2-3-4Zm-393 4 16 7-1 3 2 2-2 1v1l-3-2-3 2v-2l-12-9 3-3Zm145 0 3 4 3 2-2 1-6-1-2 1 4-7Zm118 0 4 3-2 3h-7l5-6Zm-320 2 9 9h-1l-8-9Zm253 2 7 3-7 5v-8Zm-204 2 2 1 3 7-2-2-3 2v-8Zm319 0 4 3-2 3-4-1 2-5Zm47 0 11 3-2 3-10-2 1-4Zm-180 4 4 3-5 8-4 2-4-5 3-2 5 2 1-8Zm224 2 3 3-2 9h-4l3-12Zm28 4 8 8h-5l-3-8Zm-520 2 9 3-2 7-2 1-2-3-4-1-2-3 4 2h2v-4l-3-2Zm165 0 1 1-1 4 9 1 3-2 1 2 1 1q-5 7-20 5v-6l-6 2 1 4h-5l-2-4 18-8Zm118 0 2 1v2l-6 3v-1l4-5Zm50 0 4 1-13 5 1-2 8-4Zm15 0q13-2 18 6l-3 1v2l-5-3-1 4-2-3 2-1-9-6Zm189 0 6 1v5l-7-4 1-2Zm-461 4 1 3 9 5h-10l-9-5 8-1 1-2Zm-108 2-1 2 1 4-5 1-1 3-5 2-2-2 13-10Zm134 0 3 3 2 9h-1l-11-5 4-1 3-6Zm237 4v5l-8 15-4-2 3-9v-2l9-7Zm-216 2 10 8 1 3-4 3-2-2 1-4-4-2h-11l9-6Zm63 0 33 15v3l-6 1 2 5h-1q-10-9-31-6l-14 6-5-2-1-3 26-10v-3l-5 3-1-6 3-3Zm10 6-1 5 6 1v-3l-5-3Zm182-6 9 1-1 3-10 5-1-6 3-3Zm-456 6 3 3 2 3q-13-1-17 6l-3-7 3-1 5 2 4-2 3-4Zm21 0 6 3-2 3h-6l2-4v-2Zm32 0 4 2 3 10 3 2-1 2-5 2v-1l-2-10-8-1 4-2 2-4Zm97 0 3 3 1 1 3 2h-13v-1l3-1 3-4Zm-115 6 5 2 2 4H64v-1l2-4 2-1Zm38 0 2 1 2 3 3 2H98v-1l8-5Zm245 0q15-3 21 4l1 2-1 2-24-4 3-4Zm29 0 4 2 2 2 3 2-5 1 1 1-5-2h-3l3-6Zm197 1 8 6 1 3-3 1-6-10ZM7 279l5 3 1-2 4 7-7 1-3-9Zm44 3 7 1-4 2-2 3-4-2 3-4Zm216 0 3 3v7l-2-4-4-2 3-4Zm198 0 3 3-2 3-4-2 3-4Zm63 2q-2 16 7 22h-7v-1l-5-12 5-9Zm-492 2v8l-6-3 1-3 5-2Zm351 1 2 4h-1l-1-4Zm-347 1 9 8-1 1-8-9Zm509 0 3 3 2 3-7 1-5-1 4-2 3-4Zm69 0 7 1-1 5h-6v-6Zm12 0 6 3 2 15 8 1-7 3-6-4-3-18Zm-300 4v5l-10 3v-1l10-7Zm-59 1 4 1h1l-3 5-3-1 1-5Zm14 1 3 3v4l-6-3 3-4Zm144 0 3 2h1l3 5-1-1-9-2 3-4Zm139 0 1 1-4 9-3 2 2-3v-3h-3l7-6Zm-499 6 5 1-1 3-4 2-3-3 3-3Zm264 0 3 3 2 3 4-1v5l-2 2-10-9 3-3Zm115 0 2 6-3 6-13 5-2-4 6-2-1-4 1-3 4 2 6-6Zm56 0 6 3-5 7-1-10Zm36 0 6 3-2 3h-5l1-4v-2Zm8 0 12 6h-2l-10-6Zm-308 6 8 6h-8v-6Zm15 0 3 1-2 5-4-2 3-4Zm336 0 3 1v5l-6-2 3-4Zm-212 10 5 5-2 3-4-2v-2l-4-1 4-1 1-2Zm82 2q13-2 19 4v5l-5-3-3 6h-7l3-5-6-3-1-4Zm-363 1 3 1 1 4h-5l-1-2 2-3Zm-29 4 1 1h-1v-1Zm375 4v7l-3 2-3-4 1-3 2 1 3-3Z"/><path fill="#E1EBF1" stroke="#E1EBF1" stroke-width="3" d="m309 42 21 9-2 3-13-6-8 6-1-9 3-3Zm-53 18 14 2 3 4 3 2-1 2-17 2-6-3 4-9Zm89 6 3 1-2 5-4-2 3-4Zm-57 6 6 1q2 12-5 15l-3 1-4-2v-3l-5-2 7-8 4-2Zm49 6 5 4 2 2 4 1-1 3-9-3-2-4 1-3Zm21 12 2 1v5h-6l4-6Zm-66 30 2 1 1 5 5-2 1 2 2 1-9 18 4 5h2l-3-5 16-1-1 2 2 2 9 2h1l-2 5-14-5-2 4 5 6-4 2-2-6q-12-1-16-9l-1 2-3-5-3 2 10-26Zm77 6 6 1 9 14 9 4 3 9q-3 5-6-2l-12-5-11-19 2-2Zm35 13 22 15q3 14 14 20l10-3-1-3q-12 0-16-8l2-3 31 19 6 15 20 16h1l8 9 3-1 1-11 9 6 2-1 1 1 1 1-2 19 7 8 3 2-4 1 6 22h-1l-2-5-9-3-1-3-5 2-1 2-11 2-6-3-1-3-5 1 5 9-5 4-3 10-9 2 1 16-1 2-16-7 5-2 4 1 1-4-4-2h-5l3-5 1 4 3-4h1l-4-1 4-3 1-2-2-1 2-4 4-2 1 1-5 11 2-1 10-6-2-16 2-1-3-5-9-4-1-3 1-4-16-3-3-10q7-9 26-7l-1 2 3 4h3l-1-5 2-1 5 4 1 2 6 1-1 4 5 1 1-4-1-3-12-15-29-2-11-6h-19q-5-7-18-6l-12-8 3-4q11-2 15 4l2 2 14 6 14-7-40-46Zm47 41-1 6h6v-3l-5-3Zm1 12-2 5 5 1h2l4-2-2-4-3 1-4-1Zm11 0-1 6 12 5v-2l-11-9Zm2 31-3 5h6v-2l-3-3Zm12 6-3 5 2 5h2l2-4-2-5-1-1Zm12 11-3 6h5l1-5-3-1Zm21 0-4 2-2 3 11 1 1-4-6-2Zm-16 6-2 2 2 4 15-2q-4-6-15-4ZM356 145l4 3v2h-3l-1-5Zm5 6 2 5h-2v-5Zm-78 5 5 4q-3 5-6-1l1-3Zm-8 1v2l-8 9-4-1-2-4 8-1v-2l6-3Zm87 0 3 3 1 2h-2l-2-5Zm-121 11 5 1-3 11h-3l1-12Zm50 0 3 3-2 3-4-2 3-4Zm81 0 4 2-3 8-4 2-3-1 2-9 4-2Zm-117 6 3 2v4l-6-2 3-4Zm45 6 6 3 2 9h-2l-6-3v-3l-6 2-2 4-4-2 2-3v-2l10-5Zm94 12q5 3-1 6l-3 2 1 4-13 4 2 2 5 1-2 3-23-13q4-7 9 3l25-12Zm7 2 1 5-3 4-3 1v-1l5-9Zm-131 2 1 2h24q4 7 18 6l11-6v4q-5 11-24 8l-11-6-1 2-6-2q-9 9-27 7l5-8 10-7Zm-227 8 5 4v1l-6-2 1-3Zm149 0v15l-3-3-3 1v5l-6 4v2l-6-2-2-4-4-2 1-4 11-3-1-2 13-7Zm7 0 5 1v2l-3 1-3-1 1-3Zm54 0 4 1-11 6-4-1 11-6Z"/><path fill="#E1EBF1" stroke="#E1EBF1" stroke-width="3" d="m435 204 3 3-2 3-4-2 3-4Zm99 0 6 4 1 2h-1l-6-3v-3Zm-473 6 11 6v-6l12 5 3-4 3 3 1 2-13 1 9 11h-2l-25-15 1-3Zm84 0 4 1-14 5v-1l10-5Zm8 0 10 1-2 3-5 2-6-3 3-3Zm245 0 4 2-1 4-5-1 2-5Zm157 0 3 2 1 4-6 2-1-5 3-3Zm-336 2 16 4 5-3 2 13 10 2 6-3-1-3-4 1-1-8h1l1 1 10 9 1 4-1 4 5 1 1-4v-2l-1-4-4-1 13-2-2 5 1 2 11 4v2l-12 4 1 2 9 1-11 4-9-5-2 1v-1l-3-6-3 1-6 11 11 1-16 5-11-5 4-1-3-5-8-1-1 2-28-8h-2l-6-2 1-4h36l5-3v-3l-11-6-1 6h-17l8-5v-2l6-3Zm22 16 1 6-2 1 2 4h2v-1l-1-3 3-1v-4l-5-2Zm89-14v6l-3 2-3-4 6-4Zm-17 1 1 2-7 7-1-2 4-5 3-2Zm-217 1 9 2-1-1-2 1v4l-6-2v-4Zm30 0-1 4-5 2v-1l2-3 4-2Zm284 0 13 6h-3l-10-6Zm161 0 3 2 2 3 1-2 2 3-9-3 1-3Zm11 0 6 4-1 2-5-2v-4Zm-36 2 3 3h-1l-2-3ZM1 222l5 3-2 3H0l1-6Zm32 0 20 23-1 1-22-21 3-3Zm105 0 1 1-1 3 5 8h-4l-11-5 4-1 2-4 4-2Zm12 0 7 1-1 4 1 2h-1l-6-4v-3Zm219 0 4 1-1 4 1 1-7-2 3-4Zm15 0 10 6-4 1v1l-7-2 1-4v-2Zm216 0 1 1-1 5h3l5-6 4 2 1 4q-12-1-16 5l-3-7 6-4Zm47 4 1 1 1 7 5 1v5l-12 2-2 4-4 3v3l-4-1 5-11h4l-2-5-9-2 3-5 4 1-1 2 6 3-1-1-2-4 8-3Zm-347 2 2 1-2 8-8 3 2-3 4-8 2-1Zm100 0 8 3v3l-8-6Zm140 0 6 3-2 3-4-1v-5Zm-449 3 5 5-1 4-5-1 1-8Zm23 0v9l-3 6q-11 2-15-3l6-3 2-4 10-5Zm49 0 10 3h1l1 6h-15l2-3 1-6Zm256 2 12 6q2-7 13-5l2 12 4-1 4-5 11 1-2 3 10 8h-8l-8-6-1 3 5 3h-22l-1-12-5 2-1-2-6 1 1 5 1 1-9 4-14-9 1-2h14l-3-5 2-2Zm-233 1 2 1-2 1v4h-9l9-6Zm209 0 7 4v2l-5-3-2 1v-4Zm-21 1 7 6 2 4-6-1-5-7 2-2Zm-175 3 11 9v2l-6 3v-1l-1-5-3-1-1-4-1 4-3-4 4-3ZM9 240q5 10 18 13l-2 4-3 1-4 1 1 5h-6l-1-6H5l4-6h3l-3-6-2 1-1-4 3-3Zm114 0 3 3-2 3-4-2 3-4Zm222 0 14 6 2-3 3-1 4 4-2 1v1l-4-2-2 3-3 1-15-6 3-4Zm-176 6 14 1-2 4-1-2-22 8 5-8 6-3Zm48 0 5 3-2 3-4-2 1-4Zm432 0 5 1v5l-6-2 1-4Zm-603 6 24 2 3 4 5-3-1 4-11 8v3l-4-1 4-9-10-2h-8l-2-6Zm63 0 5 4v2l-6-3 1-3Zm278 0 3 1-2 5-4-2 3-4Zm-360 6 5 1-2 1 2 4h-5l-3-3 3-3Zm148 0 11 6h19q8 9 29 7l2 5 4 1-1 4q-8-8-26-5l-8-6-1 3 5 3h-17l-6-3-1-2 1-3-5-4-1 6v2l-1 2-2 1-4-5-5 2-2 3-10-5-8 6 2-3v-3l-12-3v-3h-4l8-5q5 8 22 5l11-6Zm-9 6-4 5 5 1 1-5-2-1Zm27 6-1 3 4 2 2-4-5-1Zm74-12 3 1-2 5-4-2 3-4Zm48 0 3 3-2 3-4-2 3-4Zm95 0q13-2 18 6l-2 1-1 5-5-3-1-3-11-1 2-5Zm44 0 2 6-3 6h-3q-2-10 4-12Zm-378 6 2 10-4 2-2-6 4-6Zm438 0h12l9 7-1 4 3 1 3-8-2-4 8 4 6 13h-1l-8-4-6 3-7-3-5-7-3 1 2 3 3 2h-4l-7-3-1-3h-5l4-6Zm135 0 2 1-17 17-2-1-5-10q15 1 22-7Zm-558 3 2 3-2 1 5 3-3 2-2-9Zm11 2v2h-1l1-2Zm396 1 1 1-1 4 1 1-7-1 2-3 4-2Zm53 0 7 4v2l-7-6Zm97 3 2 15-2 1 2 11 4 1v5l-6-3v-2l-9 5-3-10 4-3 8-20Zm-624 2 1 1h-1v-1Zm19 4 3 2h3l-1 6 1 3 2 3 3-2 2 9 4-1h2l3-2 7-13v-2q10-2 12 4l2 2 5 1-1 4 8 2-5 11h-3l-1-12-15-6-1 3 4 6-11 5 1 4-1 2-15-8-11-17 2-1 1-3Zm557 2 25 1 10 6q-18-3-26 4l-13-9 4-2Z"/><path fill="#E1EBF1" stroke="#E1EBF1" stroke-width="3" d="m60 282 9 1-4 5-5-1-1-3h-2l3-2Zm46 0h18l2 3-5 8-1-5-6 1-10-1-2 1-5-1 9-6Zm36 0q6 4-3 8l-1-2h-2l6-6Zm248 0 6 4-5 10-1-2h-2l1-4v-2h1v-6Zm123 0 7 5 8-5-1 2-5 11 6 9q-3 5-6-2l-10-4-2-6h2l7 2 3-5-10-1-2 1 3-7Zm-199 1 9 5-5 1v3l-6-7 2-2Zm115 5 3 3v3h-6l3-6Zm-273 2v15h-1l-7-4 2-1 6-10Z"/><path fill="#E1EBF1" stroke="#E1EBF1" stroke-width="3" d="m115 291 8 9-9-2 1-7Zm17 2 2 2-8 5v-1l-3-4 9-2Zm40 1 20 9v6l-13-3 1-2-8-10Zm203 0 3 1-2 5-4-2 3-4Zm107 0 6 6-2 1v1l-6-2 2-6Zm72 1 10 6-2 4-9-4 2-1-1-5Zm-451 5 5 3-2 3-4-2 1-4Zm98 0 21 10v2l-18-6-5 2-1-5 3-3Zm82 0 5 3-2 3-4-2 1-4Zm144 0 8 1 2 5h-4l-7-3 1-3Zm32 0 3 3-2 9-4-2 3-10Zm76 0 5 3-2 3-4-2 1-4Zm-36 5 4 1h1l-1 6-5-1 1-6Zm-417 1 2 1-3 5q-6-3 1-6Zm154 0 4 3-2 3h-9l5-3 2-3Zm344 0 9 1-1 4 1 1h-14l2-1 3-5Zm-400 6 3 1 2 4-5 1v-6Zm187 0 11 4v2l-12-3 1-3Zm26 0 3 3-2 9-4-2 3-10Zm57 6q10-2 12 4v2l-12-3v-3Z"/><path fill="#689FBA" stroke="#689FBA" stroke-width="3" d="m315 49 21 8-2 3-10 2 2 4 2 2 2 5-3 5-3 2 2 2 23 8 9-6q6 4-3 8l-3-1-16 7 2 2 10 5 2 3 2-1 3-8 4-1 3 4-8 3 1 3 3 2 6 10 2-1v5l-6 2v-1l-1-5-4 1-1-7-17 1-1-4 6-4-1-5-5 1v4l-3-5-3-1 3-5 3-1-1-5-9 8-10 16-3 1-1-1 6-12-3-5-6-1-3 2 11-17-12-3-4 3-1 3 3 1-6 11-2 1-4-1-3 2v-7q12-11 16-31l7-3 4-8Zm4 5 1 5 3 1 1-3-5-3Zm-7 12-4 2-1 2 5 2v-1l3 1 3-2 1 2 4-2v-1l-4-3-1 2-2-2-3 2-1-2Zm8 18-2 5 5 1 1-4-4-2Z"/><path fill="#689FBA" stroke="#689FBA" stroke-width="3" d="m295 101 5 4q-16 14-21 39h-3l-2-11 2-1 6-17-2-1 3-1 5-10 1 5 5-3 1-4Zm78 19 25 18-2 1 6 11-4 2-5 10-3-1-1-3-4-1 11-2q1-12-6-15l-9-2-5-12-4-2 1-4Zm12 12-1 4 6 2v-3l-5-3Zm-49-11 1 5 10 4 1 4h-1v-2l-16-1 5-10Zm-65 4v2h-1l1-2Zm96 1v2h-1l1-2Zm-99 7 2 11h-5l-1-5 4-6Zm105 3 5 11-3-3-3 1 6 8-3-3-3 1q7 5 6 19l-9-8-5-11 2-1 1-12h5l1-2Zm-21 2 2 1-3 5h-3l4-6Zm3 8 6 12h-1l-5-2h-12l5-3 1 2 3-5h2l1-4Zm54 2q11 4 13 18l16 12-3 8 1 1-7 4-3-4 6-2-7-9-11-4-6-15 1-9Zm12 20-1 5 6 1v-3l-5-3Zm-85-18 2 1-2 4 1 1h-7l4-5 2-1Zm-89 4 5 2 1-2 5 3v2l-11 3v-8Zm48 2 5 3-5 3v-6Zm62 7 3 3v2h-6l3-5Zm-74 5 5 1-2 12-7 5 1 1-21 9v1l-1-4-3 5 2 1-8 5 1 1-15 5-1-6-6 4v2l-27 6-9-9 3-1 10 4 8-6-3 4 1 2 10-5-3-1 4-2 1 2 17-9-1-2 13-2 1-10 5 3 1 2-1 6h4l2-5v-2l3-5q11-1 15-9l1-3Zm102 0 10 6-5 1v8l-7 3 1-2 1-16Zm-128 1 1 1 1 4h-6l-1-2 5-3Zm43 2 1 3 2 1q-1 7-11 5l8-9Zm35 1 1 1 1 1 5 1 2 5-2 1v7l-6-8-6 3 6 9q-15-2-21 4l-3-1 1-3 9-7 3-11 10-2Zm-22 8 5 3-2 3-4-2 1-4Zm49 0 4 4 1 2h-1l-6-3 2-3Zm-8 11v2h-1l1-2Zm127 1 13 6-2 1v2l-12-6 1-3Zm18 10 5 10-4-3-1-7ZM9 204l11 1-2 5h8l4-3v3l1 6 3 2 2 6-2-2-4 2 2 4-2 1 2 3 4 2 1-2q11 5 14 19l3-2-2-8 3-1 5 4 1 2 9 1q-11 10-37 5l-3-6 4-6 5 6h3l-5-11-1 4-3-5-3 1-1 3-8 2-15-6 6-8 1 2h11v-6l-12 1v1l-5-2H0l2-13 7-5Zm136 0 5 3-2 3h-10l1-3 6-3Zm191 0 6 4 2 2h4l1-2 12 9-1 5 2 1-2 3 2 2-8 2 2 4 5-1 2 2-2 4-1-4-3 5-9-3-1-2v-2l-2-5-8 6-1-2 12-13-9-9-4 1 1-5v-2Zm-293 4 7 3-3 5-3-1-1-7Zm324 0 3 2 4 4 20 8-4 1v1l-13-2 1-2-11-7v-5Z"/><path fill="#689FBA" stroke="#689FBA" stroke-width="3" d="m53 210 29 18 8 10v4l-11-8-3 5-11-5 1-5-4-1-2 5 1 1-13-3 1-3 11-1-7-17Zm76 0 8 1-5 3-1 2-5-2 3-4Zm132 0 3 3v3l-6-3 3-3Zm27 0 6 4-6 2v-6Zm28 6 2 1-2 5h-4l4-6Zm251 2 3 2 10 14 2-1-3-4 7-1 2 7-6 12-4-1-2 1-1-5-10-5-2-9-5-2 3-4 6-4Zm-421 4 4 3-1 8-5-2 2-9Zm-23 6 21 10v4l-1-3q-7-7-21-5l-2 6v2l3 9 9-8-1-2 2-1 7 6-3 2-2 4-8 4-6 11 5 6-3-3-3 1v1l-4-2-3 1-15 10v-1l5-11 4 1 2-6 10-2 1-8-12-4 6-8 4-3 5-11Zm46 0 2 1 2 4-5-2 1-3Zm98 0 3 3-2 3-4-2 3-4Zm261 0 6 1 2 6-1-1-7 1 1 3-7-6 6-4Zm79 0 12 1-1 4 6 4 1 1 11 5-4 6-2 1v5l-6-4 3-5 3-2-5-4-1 5-3-4q-7 7-21 7l-5 9-1-5-6 4 1 9-2 3-4 2v2l-1-2-5 3 2 3-2 1-1-3-1-5-5-2 1-6 3 2 3-5q15 2 17-9l1-15 12-6Zm6 6-1 4 5 2 1-4-5-2Zm-294-1 3 3 2 5-1-1-3-1-1-6Z"/><path fill="#689FBA" stroke="#689FBA" stroke-width="3" d="m303 234 5 1-2 1-1 2-11 6 6 3 1 11 17-6 3-6 3-1 2 7 2-1 6-10 8-4-4 5-2 5 4 4 8 3q-10 6-12 20l2 2-2 1-1 3-2 1-4-9-11-5 6-4 2 7h4l6-8-11-4-1 3-10-3-2 5v2l1 3-2-2-15-2h-2l-12 4 1 2 5 1 2 3 3 1h1l-18 7-6-3 1-4 5 1v-2q-6-6-19-4l1-2-5-4-1 3-6-6 18-11 3-4 15-2 1 2 17-8 3-4Zm-17 12-34 14 2 4h30l9-6 1-4-9-2 3-5-2-1Zm86-12 2 1-2 1 6 15h-1l-11-15h2l4-2Zm161 5 6 5 3 8-2 1 3 5-4-1-2-4 2-1-5-3-1-3 1-4-1-3Zm-365 1q14-4 18 3l-2 3-21 2-1-2-6 4 1 2 1 1-2 4 2 1h-2l-5-3-3-8q14 0 20-7Zm51 0 13 6 4 4 10 6-1 2-3-1-1-4-3-1-4 1 1 5-6 4-1 5-4 2-9-10v-2l-1-4h-2l15-3v-2l-11-5 3-3Zm9 18-6 4 1 1 5-2v-3Zm325-18 5 3v3l-6-3 1-3Zm-472 1 26 23-5 1v3l-2-4H87l3-5-3-6-2-1-1 2-1-3-10-4 5-1 3-5Z"/><path fill="#689FBA" stroke="#689FBA" stroke-width="3" d="m309 241 8 5-5 1v4l-5-8 2-2Zm95 1 6 4-7 2-1-2 2-4ZM6 244v6l-5 2-1-5 6-3Zm13 2 5 1-1 4-5-2 1-3Zm176 1 3 3v8l-9-5 3-1 3-5Zm189 1 1 4h1l-2 5 1 3 3 4 3 1-2 4 1 1-12-6-5 4-1 6 3 1 3-2 2-3 4 2 2 4h-17l-9-6-11 6-1-6h-2q6-8 20-7l-1-6 5 1 12-6 2-4Zm169 1 14 9h-9l-5-3-2-4 2-2Zm-450 1 7 8-1 1-6-4v-5Zm312 0 17 6 1 2-7 1v1l-12-5 1-5Zm-241 2 7 1-1 4 1 1q-15-1-20 6l3-4 10-5v-3Zm281 0 11 6-5 2-4 6h-2l1-6v-2l-1-6Zm154 0 3 1-6 12 4 5 2 1-1 4-5-2-1-3q-12 2-14-5l4-2 2 1 9-7 3-5Zm-399 3v9l-6-1 2-3 3-1-2-1 3-3Zm325 1 10 8h-8l-2-8Zm-60 2 5 3-2 9h-4l1-12Zm37 0 4 2-1 4h-6l3-6Zm112 0 1 1-1 2 7 3 5-3-1-2 7-1-1 2-7 10h-16l4-11 2-1Zm25 0 5 1v5h-9l4-6Zm-236 6 7 3v5l-7-8Zm18 0 6 3v1l-4 2 4 1-4 2-2-3v-6Zm-417 6 4 3v9l-6-3 2-9Zm500 0 3 4 3 2h-13v-1l7-5ZM1 276l5 1v8l-6-3 1-6Zm79 0 8 3 2 4-1-1-5 1v1l-6-3 2-5Zm108 0 13 1-3 2-1 3-5-1-1-3-3-2Zm61 0 3 3 2 3 4 3 1 3h-5l-3-6h-6l4-6Zm12 0 3 2-2 4-4-1 3-5Zm223 0 3 1-1 3 11 8h-8l-4-6h-6l5-6Zm79 0 7 4-1 2h-6v-6Zm-113 1 2 11 14 6h-4l-24-8-1-5 3 1 8-1 2-4Zm-47 2 4 7-5 3-4-2-2-6 3 1h3l1-3Zm190 2 18 12 6-4 1 3-6 4 1 4h-9l-11-19Zm-563 1 6 1-3 5-3 1 1 5h5l1-5 2 5-2 1 8 5h-2l-18-5 4-1-2-6-3-1 2-3 4-2Zm108 0 2 1-8 7v-2h-2l8-6Zm222 0 11 6-23 2 2 4 24-1-2 3 1 4-1 9 2 4-8-9-1-4-4 1-14-1 1-4-6-4 18-10Zm175 0 7 1-11 6-1-2 4-2 1-3Zm21 0 3 1-1 6 4 5 8-3 1-3 11-1 2 1-5 6-3 1 1 5 11-6v3l-6 5 1 4h-9l-4-6h-2l2-5-3-1-7 4-6-3-2-4 4-9Zm-81 3 5 5-1 4-5-2 1-7Zm71 1v5l-4 2v1l-1-2 5-6Zm-489 2 3 3-2 9-4-2 3-10Zm51 0 6 3 2 9 16-2v5l-6 4v2l-19-3 1-4-6-4 3-4h3v-6Zm40 0 6 1-9 7 6 8 3 2 3 4 4 2h-5l-11-6-2 1v-2l-5-2 6-3q-2-10 4-12Zm276 0 3 1-2 5-5-1 4-5Zm-350 1 15 7-10 12-1-2-4 2-4 10-4-2 1-6 4 2 1-5v-2l1 1 2-5v-2l3-1-4-9Zm328 2 1 3 6 1-1 4 5 1h2l3-1 2-4 1 5 5 3 1 1 11 5-2 3-4 1v1l-12-8-6 4-1 2-5-2-3-9-19-1 16-9Zm223 2 1 2 4 3 7 12 3 2h-3l-7-3-7-14 2-2Zm-388 1 3 2 2 8 3 2-12 1-4-1 5-3 3-9Zm27 0 6 4v2l-12 1 2-5 4-2Zm25 1 3 5h2l1-3 4 3-4 1 4 2-8 15h-10l1-2-5-4-1 3-12-3h-3l15-6 3-6 3 3 2 3 4-1 1-10Zm150 2 7 4-5 4-4-5 2-3Zm54 0 5 4v13l-14-2-6-5 2-1 1-3 5 3 1-2 4 2 2-9Zm-330 2 11 5v13l-3-5h-3l-1-4-4-1 2-1-2-7Zm146 1 20 1-22 11-1-9 3-3Zm147 4 1 8h-8l-1-2 8-6Zm-273 2 3 3 1 1 3 2-4 1v4l-2-5-4-2 3-4Zm325 0 7 1-10 7-1-1 4-7Zm-171 4 4 2h1l2 4 3 2h-13l-4-5 6-1 1-2Zm-18 2 5 1-2 4-4-2 1-3Zm71 4 1 8h-7v-1l-1-4 7-3Z"/><path fill="#88ACBF" stroke="#88ACBF" stroke-width="3" d="M312 52v3l-3 4-4 1 7-8Zm28 8 2 2v16l-6-3-1-3-5 2 1 10h-1l-6-3 2-3 2-1 2-5-3-5 13-7Zm-28 6v6l-1-1-4-1 1-2 4-2Zm7 0 4 3v1l-4 2v-6Zm33 6 2 1-1 5h-5l4-6Zm-40 6 5 3q-10 6-11 21l2 1-19 19-2-1 13-16-6-4 2-5 2-1 6-11 8-3v-3Zm-10 12-2 6h4l2-5-4-1Zm52-6 2 1-8 5-1-1 7-5Zm-20 6 2 2-1 4-5 3 2 3 2 2 3 4 1 1-7 22 13 2-8 5-5-3-2-15h-12l1-5-2-1 18-24Zm-46 1v12l-5 10-10 7 9-9q-2-15 6-20Zm25 6 4 3 1 3-6 16v2l-1 3-4 2-1-12 6-11-2-1 3-5Zm41 2v4l-3 5-3-1-2-4 8-4Zm13 10 5 10 2 1-2 1 2 5h-9l1-2 1-15Zm-99 23 2 3-4-1 2-2Zm3 4 4 2h1l1 6 3-1 2-4v6l-9 11 1 1-8 3-3-4-4 1-1-2 6-16 1 6-1 10 3 1 3-10v-2l1-8Zm27 2 8 1-3 5-8-1 3-5Zm21 0 21 6 2-1-3 7-8 4-1 2 5 10-11 4 1 4q-1 13-10 18l-3 1v1l-7-14h-7l8-6 2-4 9-5 1-3-5-9-1 2-3-4 3-1 10 6 7-11-11-4 1-3Zm-6 42-1 4 4 2 2-3-5-3Zm60-36 16 12h-4l-13-9 1-3Z"/><path fill="#88ACBF" stroke="#88ACBF" stroke-width="3" d="m335 156 12 1-5 3-1 2-3-1-1-4-2-1Zm-89 4 1 2 4 1-8 5-2-2 5-6Zm48 0 1 2 1 1-2 3 5 6-12 9-1-1 3-7 4 1 1-4-4-2h-4l8-8Zm127 0 7 8-8-3 1-5Zm-143 2 6 6-2 1-7 9-10 4-1-4 11-7 3-9Zm-20 6 6 3-2 3-4-1v-5Zm181 0 5 2-1 4-5-2 1-4Zm-187 4 1 3-1 4 1 2-1 4-3-5h-3l6-8Zm163 0 17 12-1 2-5 1v1l-12-4v-9l-23 8-1-8 24-1 1-2Zm24 6q9 4 3 8l-5 1-1-2 3-7Zm-63 2 2 1v2l-6 3v-1l4-5Zm-33 4 5 2 1-2 4 10-1 2-4 2v-6l-5 1v-9Zm-103 2 8 6h-15l3-4 4-2Zm152 0 4 3h1l3 7-3 4-1-2h-2l2-4-6-2 2-6Zm83 0q10-1 13 6h-2l-6 1v1l-5-8Zm-211 6 8 1-13 8-1-3h-3l3-5 1 4 3-4 2-1Zm66 0 6 1v5l-10 7-1 4-1-7 6-8v-2Zm123 0 3 3-2 3-4-2 3-4Zm-134 2-2 3h-2l4-3Zm-285 4 4 6-6 1-1 3-4 2-3-1-2-4 12-7Zm330 0 6 5 2-1-3 2-5-6Zm121 0 7 4v4l-7-8ZM1 204l7 1-7 5v-6Zm209 0 2 1-8 5-3-1 9-5Zm22 0 2 1 1 5 4 1-7 4-9-4 5-1 4-6Zm52 1 6 5q-14-1-20 7l1 5h-1l-8-5 2-1-2-5q16 2 22-6Zm-146 2 1 3 3 1-10 5v-1l2-3 3-1-4-1 5-3Zm55 1q2 10 16 9l-14 5q-6-3-2-14Zm143 0v2l-5 10-1-4 6-8Zm35 1 12 7h-5l-8-5 1-2Zm149 1 14 4 2 8q14 2 21-4l2 4 1 1-2 3 2 2-2 1 2 5 4-1 4 6 8 5 2 8 4-1 6-20-1-3 9 6-2 1q4 20-9 23l-9 1-2 4-4-2-1-3-16-9-2 1-11-14-4-1 10-2-1-5-10 1-7-1-6 4 10 8h-3l-10-6-2-4 11-3-1-5-11-2 4-10Zm33 30-1 3 5 2h2l10 1 1-4-11-2-1 2-5-2Zm-437-24 4 1-2 5-4-1 2-5Zm167 0 3 1-11 5 2-3 6-3Zm79 0 4 3-5 3-1-4 2-2Zm43 0 3 2 2 2 3 2h-11v-1l3-5Zm249 0v6l-11 5-1-1 12-10Zm-342 4 1 2 5-2 1 2 11-1v11q-4 6-8-4l-4 2 4 10 2 2-1 4-5 3v3l-5 2-1-7 5-1-1-2v-2l-4-6-9-2-3 2 12-16Z"/><path fill="#88ACBF" stroke="#88ACBF" stroke-width="3" d="m571 220 10 8-2 1 3 4-2 1-9-14Zm-558 2 11 1v5H12l1-6Zm128 0 4 1-1 9-6-7 3-3Zm18 0 11 6-2 1 3 5-4-4-11-4 3-4Zm275 0 4 2v6l-1-2h-10l5-3 2-3Zm199 0 3 1-1 3-4 2-1-3 3-3Zm-550 5 7 10-9-8 2-2Zm-21 1 4 1-1 5-5-1 2-5Zm55 0 5 1-7 13h-2l4-14Zm243 0 5 3-5 3v-6Zm51 0 11 6h-1l-10-6Zm209 0 4 2v6l-6-3 2-5Zm-589 6 3 2 2 3 1-4 2 5-3 1v1h-4l-2 8 2 2-9-1 1-4-5-1-1 2-7-8h7l1-2 6 2 5-3 1-3Zm354 0 5 4v2l-6-3 1-3Zm-25 1 1 5h5l1-4 10 16h-1l-5-2-5-8-6 1-2 3-8-5 4-2 3 1 3-5Zm-215 3 8 7 14-5v1q-6 7-19 5l-3-8Zm197 0 1 8h-5l-1-2 5-6Zm103 1 4 1h1l-2 6-4-2 1-5Zm-319 1 6 2-8 9h-2l-2-5h2l4-1v-5Zm141 0 7 6-9 2-1-5 3-3Zm137 1 1 1-3 2-5 10-1-2-5 2-1-2h-4l10-5-2-1 2-1 1 1 7-5Zm217 0 4 5 1 1-2 4 8 7-13 4-1 8 4 1-10 5-1-1 1-4-4-2-2-5 6-11-3-1-3 2-1-7 16-6Zm-572 3 4 2 1-2v5l-3 2-2-7Zm184 1q6 9 24 8l-11 8 8 9 16 1 2 9 3 2-5 1-4-1-2 5 1 1-7-1-2-5-4-1-2-5-4 3-1 3h-34l-10-4 1-2 8 4 1 1 17-5 12 5 4-5h1l-4-9-7-3-5 3-1-3 4-5 8-1 1-5-9-6 1-2Zm9 8v4l3 1 1-2-4-3Zm19 23-3 5 4 1 2-4-3-2ZM71 246l12 6h-5l-6-3v-2l-1-1Zm68 0 5 4v2h-9l4-6Zm56 0 3 3-2-2-3 2 2-3Zm27 0 5 3v1l-5 2v-6Zm64 0 2 1-3 5h-8l9-6Z"/><path fill="#88ACBF" stroke="#88ACBF" stroke-width="3" d="m363 246 7 6 2 4 1 1 1 1h-4l-5-2-1-4-7-1 3-1 3-4Zm67 0 2 1v8l-10-3 8-6Zm95 0 4 1-1 3 8 14h-5l-8-16 2-2Zm-312 1 3 3 1 2-5 1-1 3-4 2 2 1-5 3 1 2h-7l-11-5 2-1-4-5 4-1 9 6 1-7 7 1 7-5Zm387 3 1 8 1 1-6 5-2-6 6-8Zm-330 2 5 1-12 5 3-4 4-2Zm271 0 5 3v3l-6-3 1-3Zm105 1 7 5-5 1-3 5 1 1-11 5 4-5 3-6v-2l2-3 2-1Zm-561 3 5 3-3 5-9-1 2-5h4l1-2Zm-25 2 6 3-5 8 5 8-3 5-14 1v-1l3-6 8-1-1-5q-23 3-29-9l3-1 17 4 4-2 1 2 5-2v-4Zm81 0 3 3-2-2-3 2 2-3Zm177 0 6 4-1 2-4 2-2-2 1-4v-2Zm85 0-1 2 1 4h-4l-2-3 6-3Zm104 0 4 1-2 5-5-2 3-4Zm9 0 6 3-2 3h-5l1-4v-2Zm-299 4 8 7-5 1-3-8Zm85 2 16 6 1-3 11 7 3 7 3-2 1-3 11-6 1 7-1 4 11 2-17 9 6 4-1 4-3 1-1 3-1-4-11 1-6-1 5-3-1-9-5-3 1-3h5l-1-6-27-12Zm90 0 4 3-2 3-5-1 3-5Zm151 0q12-3 15 3v5l-15-8Zm47 0 11 7-2 3-16-4 5-3 2-3Zm-152 3 1 3 2 1-3 9-2-4h-4l2-4 3-1-4-1 5-3Zm133 0 5 4 2 5-2 1v1l-5-11Zm-121 1 1 2 1 1-2 5 3 1-2 4-1-4-3 5h-4l7-14Zm-437 2-1 2v6l-4-2H2l11-6Zm101 0 2 12h-2l-6-3v-3h-2l8-6Zm7 0 5 4v2l-6-2 1-4Z"/><path fill="#88ACBF" stroke="#88ACBF" stroke-width="3" d="m360 270 8 6h-15l3-4 4-2Zm291 0 3 1v11l-6-2 3-10Zm-621 6 9 1 2 5-3 2-1 3-4 1 3-5-6-1-6 4 2 2 2 2 1 3-1-1-4-1-1-3h-6l-5-8 4 2 3-1 3 1 8-6Zm43 0 6 1-1 4 1 1-5-1-1-5Zm455 0 11 5 5-3 11 5-3 6-4-1-2 1-1-7-11 1-1 3-4 2 1 3-2 1v-10h-2l2-6Zm-125 1 9 5 2 4v2h-11l5-3-5-8Zm72 4 6 2-1 4 6 1 1-2 21 2 2-1 3 12 11 7h-15l1-2-1-4-10 1-7-4-1-3h-12l1-4-6-5 1-4ZM1 282l7 6H1v-6Zm293 0 18 1 7 17-12 2-1-2-6 1v2l-5-2 4-1-5-3 1-3 6-1 4 1 1-4-4-2h-2l-12 3v4l-4-1-2 5v3l-3-2-3 6-15 6 1 1-8 3-7-3 2-1-8-5 34-10 2-11 6 2 11-6Zm-40 24-2 5 5 1 1-5-4-1Zm108-24q10-2 12 6h-2l-10-6Zm18 0 4 3h1l3 7-1 2-3 1 1 4 1 1h-8v-6h-4l4-2-1-3 3-7Zm17 1 3 5 2 2-3 4h-5l3-11Zm-359 5 10 9h1l6 7 3 2h-3l-11-5-1-4-6-2 2-1-1-6Zm588 0 4 2v7l-5-2-1-5 2-2Zm-524 2 1 4 1 1-2 3 2 2-2 1v1l-3-2-3 2 6-12Zm-71 2 1 2h-2l1-2Zm402 0 8 13 6-5-5 6-5-2-4-9h-2l2-3Zm185 0 1 3-3 5-4-1 2-5 4-2Zm-197 1 4 1 2 1-1 4v3l-6-2 1-7Zm108 0 15 7-10 1v1l-5-9Zm-54 5 6 3-1 5h-3l-2-8Zm72 1 1 2 14 5 2-1-2 7-4-2v-2l-13-2 1-4 1-3Zm-415 4v7h-2l-4-1 2-4 4-2Zm7 0 4 3 1 4-3 2-2-9Zm228 1 7 8-8 1v1l-6-8h6l1-2Zm228 7 5 4-2 3-4-1-1-3-4-1 6-2Zm-394 1 3 3-2 3h-4l3-6Zm70 0 5 4v2l-6-3 1-3Zm-35 6 4 2-1 4-5-1 2-5Zm113 0 2 1 2 5h-1l-3-6Zm93 0 3 1-6 10-1-7 4-4Zm171 0 2 1 2 5h-1l-3-6Zm-206 1 1 1v1l-5 2-1-1 5-3Zm-237 5 4 3v3l-6-2 2-4Zm-100 6 2 1-3 5h-2l3-6Zm281 0 3 1-2 5-4-2 3-4Zm-217 6 10 3q-2 5-10 3l-2-4 2-2Zm29 0 5 3-2 3-4-1 1-5Zm195 6 2 1v5h-6l4-6Zm185 0 3 2v4h-6l3-6Z"/><path fill="#4D84A0" stroke="#4D84A0" stroke-width="3" d="m319 54 5 3-1 3-3-1-1-5Zm-4 12 3 3-2 3-4-2 3-4Zm37 25 1 1-5 10-12-3 2-3 14-5Zm-61 5 3 1-1 9-4 2-1-9 3-3Zm18 0 3 1-3 5h-3l3-6Zm48 6 6 1 3 16-2 1-7-12h-3l3-6Zm-77 12 2 1-6 17h-3l-2-7 9-11Zm34 0 4 1-2 5-4-2 2-4Zm24 0 16 1 2 11 10 1 6 11-6 1v11l-10-6-2 6-4 2-1 3-1-2-10 3-2-3 12-21-3-5-9-1 2-12Zm14 24-4 6h3l3-5-2-1Zm33-6 5 3v3l-6-2 1-4Zm12 6 5 3h1l5 7 6 26h-18l-11-6q3 14-3 18l-3 1 5 9-15 7-7-5-2 4 10 13 8 5-1 2-11 2 2 4q19-3 25 7l3 8-2 3 1 1-10 5q0-12-7-16l-6-2-4 2h-2v4h-6l3-5-2-1 5-3-6-5 3-4 3-2-1-4q-15 2-17-8l-1-4-5 1v2l-6-3-10 5-1-1 9-10h2l-6-15 6-3q7 5 8 18l9-3 1-3-8-12-4-2v-4h-6l7-9 11-4 1-5 6 3q7 7 5 24l-3-3-3 2 2 2 11 2 5-3v-3l-5 2-1-1q7-6 6-19l-6-11 3-1 15 10 2 2 2-1 6-11h2l-5-12Zm-40 25-3 5h6v-2l-3-3Zm28 71-1 4 6 2v-3l-5-3Zm-136-84 3 6h-3l-3-3 3-3Zm172 18 5 3v3l-6-1 1-5Zm-162 18 5 1-2 5h-4l1-6Zm-24 6 5 2-1 2-16 8-1-2 13-10Zm23 6v3l-8 3 2-3 6-3Z"/><path fill="#4D84A0" stroke="#4D84A0" stroke-width="3" d="m393 198 3 1-2 5-4-2 3-4Zm100 0 5 4 6 12q-4 7-9-4l-2-12Zm-472 6 3 6h-5l-1-3 3-3Zm13 0 8 4 4 8 2-1 3-5 6 6 3 11-12 2 2 3 20 2 6 5 3-5 11 9 2 3 10 4 4 7 8 5v2l-6 1-1-2-26-22-3 5H60l-1-4q-17-3-23-17l-3-9h-3l4-12Zm180 0 7 1-10 5-1-2 4-4Zm68 6 6 2-1 4-14 6-3-5 12-7Zm57 0 9 9-12 15h3l7-4 2 4-17 10-4 8-3-1q2-13-3-17l-3-1 3-5 8 6q-1-15 7-23l3-1ZM7 222l5 3-6 9 12 4v2l-12 2-2 4H0l1-18 5-1 1-5Zm384 0h23q7 8 23 8l-6 8-9-3-1-4q-8-6-24-3l-7-3 1-3Zm-360 6 5 4v2l-6-3 1-3Zm91 6q15-2 21 6l1 3 3 3 3 3 4 8 4 1 15-6 1 3-14 9h-9l-10-6-15 8 2 4 24 7-3 9-4 2 2 1-3 2v-3h-2l2-4-6-2-12 8 1 4h-4l-1-2 4-8-12-5 2-9 4 3 2 3h4l-5-10 9-13 14-1-2-6q-6-8-22-6l2-6Zm6 37v4l4 1v-2l-4-3Zm401-37q16 1 21 14l6 9 14 4 1 11h-1l-11-8h-2q-22 0-29-14l10 8 3-2 5 2v-4l-6-4-3-9-9-4 1-3Zm84 0 5 2-1 4-5-2 1-4Zm-306 1 9 7v2l-7-3-2 3 5 11-11 3-1-12-6-2 12-7 1-2Zm-270 5 5 3v3l-6-2 1-4Zm252 0 2 1-8 5-1-2 7-4Zm336 0 5 4-5 2v-6Z"/><path fill="#4D84A0" stroke="#4D84A0" stroke-width="3" d="M162 246v3l-5 3-1-2 6-4Zm175 0 12 1-1 2 6 3 1-2 9 4 2 5-1-1-5 2 1 4q-16 1-22 12l-3-6 12-16-11-5v-3Zm68 0 9 4 3 8q-15-3-21 4l2 2q19-3 22 9l-3-3-3 1v1l-17-8h-2l-9-1-2-4q11 0 15-6l3-6 3-1Zm173 0 4 2-2 4-4-2 2-4Zm-493 6 4 4v2l-5-3 1-3Zm97 0 4 3v3l-6-1 2-5Zm53 0 5 3v3l-6-1 1-5Zm216 0 5 3v3l-17 11-2-3-11-5 1-3q17 2 24-6Zm141 0 2 1v11h-6q-2-10 4-12Zm-379 1 1 1 2 4h-5v-1l2-4Zm-156 5 3 3-5 3-1-3 3-3Zm171 0v3l-5 2-1-1 6-4Zm97 0 11 4-6 8-6-1 1-11Zm138 0 2 1 1 4-4 7 2 1-13 5-1-2 6-8 4-3 3-5Zm163 0 10 2-1 2-5 2-6-3 2-3Zm-158 5v2h-1l1-2Zm-215 1 5 4-1 2-5-2 1-4Zm35 0 6 1-1 10-5-2v-3h-6l2-4 4-2Zm25 0 5 1v5l-6-3 1-3Zm65 0 17 6h1l6 12h-3l-4-6-11-2-1-4-5 2-1 2-3 1-2-5 4-5 2-1Zm181 4 7 8h-5l-2-8Zm-322 2 3 3-2 3-4-2 3-4Zm345 0 7 10 3 2 8 17h-1l-7-11-7 6-5 6h-4l1-6 7-5 1-2 2-1-5-8-4-1-1-3 1-2 4-2Zm-311 1 5 3v2l-6-1 1-4Zm160 0 1 1 1 4 3 2 2 6-2-2h-10l-1-6 2-3 4-2Zm-270 5 21 1-20 11-6-3 1-3h5l-1-6Zm24 0 7 4 1 2h-1l-7-6Zm292 0 6 1-4 5-5-2 3-4Zm33 0 3 1-3 5v2l-3 4-12-1 3-2 1-3 11-6Zm12 0 5 2-5 7-3 1-5-3 8-2v-5Zm-322 1q9 9 31 5l3 4v2l-4 2-4 9-10-8v-3l-19-6 3-5Zm214 4 6 5 1 2 2 1-6 11h-3l-1-6h-11l1-6h11l-2-5 2-2Z"/><path fill="#4D84A0" stroke="#4D84A0" stroke-width="3" d="m570 281 6 5 1 2-7 1-1 3-7 2-4-6h2l4-1 2-3 3-1 1-2Zm-326 1 8 2 2 4 13 1 3 8-3-3-11 6 1 1-11 5-6-3-1-8 13-4-1-3h-11l4-6Zm299 0 3 3-5 8-1-5h-5l8-6Zm-523 6 9 6h-9l-2-4 2-2Zm161 0 13 12h-7l-11-5 4-1 1-6Zm12 0q12-3 16 4l5 7 14 7h2l2 1-8 3-18-9-2-4v-3l-12-3 1-3Zm101 0 6 1v5l-6 1v5l-4-1-2-7 6-4Zm56 0h26l2 3q-8 7-28 3l-2-4 2-2Zm93 0q13-1 18 6l-5 1 1 6-6 8-2-9-10-3-1 2-6-7 4 2 8-1-1-5Zm178 6 3 2 4 5-1-1h-10l4-6Zm-464 3 4 3-2 1 3 4 1-4 2 5-3 2-5-11Zm-58 3 3 3-2-2-3 2-1-2 3-1Zm202 0 5 1 1 11 23-12 6 12-6 1 3 5h-12l-9-6q-5 8-20 6l2-3 7-15Zm18 12-1 3 4 2 2-4-5-1Zm27-12 9 1-1 4 4 3 2 3 1-4 6 9-4-4-3 1 2 5h-2l-9-6-3 4 2 2-2 1 3 5-4-4-4-1 4-1-5-3q-2-11 4-15Zm27 0 7 1-2 5h6v-3l-1-3q18-4 24 4l1 4-2-2-10 1 2 5-2 1-4-1h-2l-6 1 2 5h-4l-8-5-2-4 1-9Zm89 0 6 4-1 2-3 2-1 3-1-11Zm106 0 3 2 2 4-8 2-1-1 4-7Zm-86 1 4 3v2l-6-3 2-2Zm-433 2 4 3 1 5-4 1-1-9Zm96 3 10 6h-11v-1l1-5Zm275 0 1 1-2 3-5 2v-1l2-3 4-2Zm-143 6 5 4-1 2-5-3 1-3Zm266 18 3 3-2 3h-4l3-6Z"/><path fill="#FBFDFD" stroke="#FBFDFD" stroke-width="3" d="M304 120v3l-1 3h-3l4-6Zm-9 24 5 4v2l-4-1-1-5Zm19 0 10 3-1 3-11-3 2-3Zm-55 18 3 2 2 3 1 1h-12l-1-2 7-4Zm138 22 11 8q13-1 18 6 21-3 30 6h25l15 14 2 4h-11l-2-4-23-2-9 6h-29q-6-9-23-6l1-4-4-2h-2l-18-1 2-3 17-2 4-3 1-3-5-14Zm38 20-3 4 4 2 2-3-3-3Zm-152-18 7 1-2 3 4 2 4-6 4 1 2 3 18 9q-3 6-14 5-11-10-36-6l7-9 6-3Z"/><path fill="#FBFDFD" stroke="#FBFDFD" stroke-width="3" d="m457 192 4 3-2 3h-3l1-6Zm-133 10v8l-6 2v1l-11 7-4 8-8 4-4 8h-15l2-4 10-2-1-4-11-2 3-5v-2l15-6-6-10h2q6 7 23 5l11-8Zm-66 2 2 1q-11 5-8 23l-12-3 1-12 17-9Zm265 0 11 2 2 2 18 3-2 8-4 1q-9-12-32-10l1-3 6-3Zm-458 6 7 2v4l-7-6Zm85 0 2 1v3l5 2 5-3 2-3 16 2-1 2-11 3 2 5h-32l-6 4v2l-18 2-3 4-9 4v2l-6 3 5 3h-8l-3-6h2l4-1-1-5-5-3-1-3-9-7-2-4 17-1 4 6h3l1-5q5 6 18 5l5-3 1-3q16 2 23-6Zm408 0 6 1-2 5-4-1v-5Zm-371 6 5 4 2 2h28l1-6 11 7-1 3-41 3 3 5 3 1v4l-12-5-10 6-2-13 3 1h3l4-6h2l1-6Zm387 0 8 2 2 4h-4l-4-2v1l-2-5Zm-311 6 7 4v2h-6l-1-6Zm111 0 10 2-1 4-11-1 2-5Zm228 0 5 1-4 5h-3l2-6Zm10 0 6 3-2 3-4-1v-5Zm-147 1 3 3v2h-6l3-5Zm188 0 1 1v10h-6l1-9 4-2Zm-262 5h8l9 6v-3l-1-3 11 6 2 4v2h-18l-1-4-11-5 1-3Zm247 0 2 2 2 4h-2l-4-4 2-2Zm-481 1 5 3-3 8-9-2 7-9Zm84 5 4 3-1 2h-2l-1-5Zm18 0 5 4-3 8h-9l7-12Zm-30 6 10 4 1 2h-5l-7-3 1-3Zm198 0 5 1-3 5h-3l1-6Zm39 0 2 1 2 3 9 6 1 2h-6l-11-8 3-4Zm57 0 11 3-2 3h-10l1-6Zm121 0 10 1v5l-6 1 2 5h-7l-1-6h-2l4-6Zm-445 1 3 5 2 2-1 4-5-2 1-9ZM8 246l4 4v2l-5 2-1-6 2-2Zm359 0 2 1 2 4-1-1-4-1 1-3Zm90 0 7 6h-2l-6-3 1-3Zm37 0q11-2 15 4l-15 2-2-4 2-2Zm-466 6q16-4 20 4l1 2 5 1v2l-11 3-16-6-3 2v-2h-2l3-1 3-5Zm42 0 8 3-5 3-3-6Zm209 0 5 1-4 5-4-2 3-4Zm12 0 3 3-2 3h-4l3-6ZM1 258l11 1 1 5h11l1-2 29 11-5 7-3 1-3-2-2 1-6-10-5 2v1l-7 2-5-2-1-3-16 5v-17Zm404 0 4 1-1 4 1 1-7-2 3-4Zm-328 6 7 4v5l-7 3 1-2-1-10Zm16 0 6 1 2 7-5 10h-3l-3-7 3 1 3-2-5-3 2-1q-6-3 0-6Zm36 0 9 1 2 3 10 3-3 5-21-8 3-4Zm37 0 2 1-1 5-5-1 4-5Zm15 0 5 4v2h-6l1-6Zm246 0 2 1 2 4-5 1v-1l1-5Zm100 0q11-2 13 4v2q-13 2-13-6Zm125 0 2 1v5l-6 2-6 16-17-6h-24l-13-9 3-1q7 6 23 4l13-6 7 12 18-18Zm-459 6 5 1-2 4-4-2 1-3Zm12 0 7 6h-2l-6-3 1-3Zm102 0 5 4v2l-6-2 1-4Zm159 0 2 1-3 4-2 1 4 1-4 3v1l-1-7 4-4Zm34 0 4 1-2 5-4-1 2-5Zm23 0 7 6h-2l-6-3 1-3ZM70 282l2 2-9 15-2 1-2-12-5 2-2 3h-2l-2-4 6-2 1-2 4-1 3 4 4-1 4-5Zm201 0 2 1 3 9-3 2-2-12Zm102 0 5 1v5l-6-3 1-3Zm13 0 4 2v4h-3l-1-6Zm67 0 9 1v5l-12-2 3-4Zm-361 6 9 1-2 5-9-1 2-5Zm23 0 5 1 2 5 4 4-1 2-11-9 1-3Zm21 0 2 1-3 5h-3l4-6Zm167 0 3 3-2 3-4-2 3-4Zm16 0 11 3-10 8-1-11Zm193 0 10 1-3 5-9-3 2-3Zm137 0 5 1v11l-6-1 1-11Zm-494 1v3l-5 8h-3l-1-4 9-7Zm11 5h5l9 10v1l-18-7 2-3 2-1Zm219 0 5 1v2l-4 2-1-5Zm26 0 3 3-2 3-4-2 3-4Zm64 0 6 1-1 4-6-2 1-3Zm74 0 4 2 2 4h-6l-3-3 3-3Zm-358 6 9 1-2 8-3 1-3-1-1-9Zm296 0 5 4q-3 5-6-1l1-3Zm14 0 3 3-1 3-5-1 3-5Zm-434 6 5 1-2 5-3-6Zm168 0-1 2-1 2-4 2-1-2 7-4Zm-60 4 5 4-1 4-4-1v-7Zm272 8 3 2 2 2 3 2h-10l-1-3 3-3Z"/><path fill="#2C6C8F" stroke="#2C6C8F" stroke-width="3" d="m447 234 3 3-2 3-4-2 3-4Zm84 12 3 1 1 3 3 2-1 2 2 4h-1l-10-9 3-3Zm-182 1 5 3v2l-6-3 1-2Zm13 11 4 2-2 4-4-1 2-5Zm105 4v4l-2 4h-3l5-8Zm-70 2 17 9 2 3 10 1 1 5 11 3 2 3 4 3-1 3q-9 2-11-3l-1-3h-11l-1-4-16-8-1 3q-9-3-5-15Zm162 0 12 9 11 13-4 2-5-6h-3l-2-6-10-8 1-4Zm-432 6 5 4v2l-4-1-1-5Zm26 6 9 3v3l-6 1 2 3 5 2 21-12 8 6q17-2 24 7l9 10h1l6-11h2l-3-5 12-1-3 4 1 2 11 2-1 2-17 4v7l-9 3-14-9-4-8-14-1-1 3 12 4 3 5h-12l-14-12-1 6-18 2v9l-3-4 2-1-5-3v-9h-11l5-3 3-9Zm336 0 20 1-11 6-1 3-11-7 3-3Zm25 0 8 2-1 4h-11l4-6Zm47 6 8 1-5 3-1 2-5-1 3-5Zm-456 6 3 3v3h-6l3-6Zm427 0 8 1v5l-11-1 3-5Zm59 0 6 6 3 6h-13l1-2v-4h-3l6-6Zm-447 1v11h-5v-1l5-10Zm313 5q12-2 17 4l8 14h-8v-1l-1-5h-6l1-2-12-4 1-6Zm-101 6 4 1v10l-3-5-3-1 2-5Zm25 0 3 3v3h-6l3-6Zm16 6 11 3 2 3 10-3 1-2 7 5-6 1-1 3-12 4-1-2h-6l-1-4-4-1-1-3 1-4Zm-234 1 5 3-1 2h-5l1-5Zm198 5 5 4v2l-6-2 1-4Zm24 0 5 1-3 5-2-6Z"/><path fill="#485B68" stroke="#485B68" stroke-width="3" d="m619 302-1 2-1 2-5-1 1-2 1 2h3l2-3Zm-13 1v2l-2 1v-1h1l1-2Zm-575 3 1 1-2 1 1-2Zm68 0 3 3-2-2-3 2 2-3Zm521 0 4 2v1l-1-2-4 1v1l-1-1 2-2Zm-589 3 11 14h-1l-10-14Zm420 3 1 1-2 1 1-2Zm0 4 1 2h-2l1-2Zm-243 2 7 5 4-5-3 4-1 2-7-6Zm206 2 2 3h3l1-2v2l-4 1-2-4Zm-49 4 1 1v1l-1-2Zm119 0 2 2-1 2v-3l-1-1Zm-206 12 4 2-1 4-5-1 2-5Zm0 1-1 4h4v-3l-3-1Z"/><path fill="#64757D" stroke="#64757D" stroke-width="3" d="m103 264 5 2-2 4-4-2 1-4Zm312 6 5 4 1 2h-4l-2-6ZM85 282l5 3-2 3-4-2 1-4Zm-84 6 18 1-1 4 30 11 1 8h-6l-12-6-1 4 11 13-1-1-14-10-26-6 1-18Zm127 0 4 1-2 5-4-1 2-5Z"/><path fill="#64757D" stroke="#64757D" stroke-width="3" d="m142 288 2 1-6 11v2l1 10h-30l-10-6-25 13-1 3-2-4 5-12 2 1 2 5 14-6 2-4 3-1 3 3 2 2q19-3 28 5-3-19 10-23Zm399 5 5 2v5l-11-5 6-2Zm60 2 3 5 2 1-1 4-3 1-3-4-4-1 5-1 1-5Zm12 5 9 1-5 3v1h-4v-5Zm-559 6 12 4v4l-13-2 1-4v-2Zm412 0 3 1-1 4 1 1h-8l2-1 3-5Zm50 0 6 4 1 2h-14l3-4 4-2Zm17 0q18-4 25 4l1 2-7 1-5-1-1 2-13-8Zm87 1 3 1 1 4h-5l-1-2 2-3Zm-419 1 17 11-3 4-12-5 1-4-4-2-4 6h-11l2-6h10v-2l4-2Zm-39 3 5 1h2l3 2 2 3 1 1h-24l-1-5 12-2Zm72 1 3 1-8 5 2 1-3 2v-3h-5l11-6Zm30 0 4 1-10 5-3-1 9-5Zm48 0 8 6-13 2-1-2h-3l9-6Zm39 0 15 6 1-2 11 6 1 2q-17-3-23 7l-3 5 1-2v-4h-2l2-6-6-9 3-3Zm46 0 5 4 1 2 4 1-11 5v-1l1-11Zm47 0 6 1v5l-11 2-1-2h-3l1-2 8-4Zm156 0 7 1-1 4 6 4 2 3h-1l-14-6 1-4v-2Zm-329 3 5 3 1-3 10 4-5 3v2l-11-5v-4Zm149 1v5l-1 2h-4l-1-3-3-1 9-3Zm-81 2 11 6h-1l-10-6Zm142 4 4 4-1 2-4 2v-1l1-7Zm-307 2 3 1 2 5h-1l-3-5-1-1Zm273 0 8 6-10 2-1-5 3-3Zm-169 13 3 1v3h-4l1-4Zm-58 5 2 1v5h-5l3-6Z"/><path fill="#4A5703" stroke="#4A5703" stroke-width="3" d="m585 300 8 1-5 3-1 2-5-2 3-4Zm23 0 4 2 1 4-1 5-3-5-2 1-1-2 2-5Zm-77 6 5 12-2 1v1l-3-2-3 2v-2h-2l2-5v-2l3-5Zm94 0 3 2 2 3 1-2 10 3v-2l1 1 1 1 2 1-9 8-1-9-5 1-6-3 1-4Zm-57 1 2 2v4l-3-1q-5 10-9 4l-2-3 8-2 2-3 2-1Zm50 1 1 5-1 4v5l-2-4-4-2-1-3 5-1 2-4Zm-504 4 6 3-5 2-1-5Zm128 0 9 6 1 3 2 3 10 2-1 4-17-6-6-10 2-2Zm214 0 7 1-1 4 1 1-5-1-1-4-1-1Zm22 0 10 1-2 5-6 1v1l-8-2 6-6Zm40 0 4 2 1 4-1 2-3-2-3 2v-2h-2l4-6Zm129 0 3 12 4 1v23h-6l-6-11 6-1-8-11 2-1 5-10v-2Zm-497 4 1 2 2 1-3 5v2l2 4 4-1-1-4 12-7 3 12 4 3v11l-7-2 1-4v-2l-2-6-4 1 2 5-2 1-4-1-2 5v3h-4l-1 3-1-5h-2l1-4-4-2-2 1v-2l-5-2-1-3-5 2-2 4-4 2 2 4 4 3v3h-6l-1-6-4 1-3-1 2-5-2-1-4 12h-12l6-17v-2l-1-4 2-3 3 1 2-4 1 6-1 4 11 1 1-4v-2q19 3 24-8Zm283 1 5 2-6 16 1 3 3 4h2l-2-5 8-2v3l1 4 5 4v2h-42l-6-14 8 6 4 2 1-2 5 2h2l4-1-1-4 1-12-2-1-7 12-3 1v2l-6-6 6-7-2-2-8 6-2-3 3-4 6-4 3 3 2 2 4-1 4-5 9-1Zm138 0 4 1h2l5 3-2 3h-16l4-6 3-1Z"/><path fill="#4A5703" stroke="#4A5703" stroke-width="3" d="m630 317 5 2-5 3 2 2-2 1 2 5 4 4-1 2-15-5-2-3 4 2h2l-3-5 3-1v-4l-4-1 10-2ZM1 318l5 2-1 4H0l1-6Zm10 0 7 1v5l-6-1-1-5Zm20 0 15 6 2-1 1 2-1 4v2l-3 10-14-23Zm45 0 2 2-8 10 2-3-1-3 2-1 3-5Zm96 0 15 1-1 4v3l-10-3-1-4-1 4-2-5Zm32 0 2 1-2 5h11l5-6 7 1-5 3 1 2 5-3-6 7 2 2 8-6 5 6q-10-1-12 6l3 2v10h-6l5-10-1-1-8 7-2 4h-36l1-8 5 2h2l4-1-1-4 1-4-1-3h1v-4l-4-1 16-7Zm-4 12-2 5v2l2 5 4-1-1-5 1-4-4-2Zm66-12 4 4 2 2 10 4 2 2 4-1 1-7 5 13-18 3v4l-12 2v4h-6v-11l-12 6-4-1h-4q6-9 24-6l2-4 4-2h2l-6-10 2-2Zm30 0 4 3 2 3 4-1 1 7 1 1-2 5-6-1-2-4 2-1-6-10 2-2Zm21 0 13 3-5 7-4 2-4 12-3-1-2-9 4-3 2-8-1-3Zm19 0 18 8-3 4-2 1-19-3 6-8v-2Zm267 0 8 6-2 1 5 5-14-9 3-3Zm-14 4 5 4q-1 11-9 16-6-3 1-6l1-4v-2h1l-1-5 2-3Zm-564 2 5 4-1 2-5-1 1-5Zm55 0q6 9 24 7l-9 11-11-1 2-5 4-2-6-4-6 2v-1l2-7Zm288 0 17 1-1 3 2 2-2 1 1 5 3 1-4 2v9h-18l-1-6-4 1-4-1 3-5-2-1-9 11-1-11h2l4-1 2 1 10-8 9 13h1l2-9-10-8Zm21 0 10 1-3 5 6 2-1-1-11 5v-1l-1-4 1-4-1-3Zm-323 4-2 3-4 2 2 3h2l2-4 1 4 2 1-3 4 2 1h-1l-15-11 14-3Z"/><path fill="#4A5703" stroke="#4A5703" stroke-width="3" d="m181 328 5 4-1 4-4 2-4-7 3-1 1-2Zm385 2 4 2 1 4h-5l-2-4 2-2Zm10 0 6 3-2 3h-5l1-4v-2Zm-46 1 8 4 2-3 1 4 1 1-7 5-5-11Zm-53 5 9 2-1 4-11-2 3-4Zm-451 6 10 2v4H24l2-6Zm374 0 2 6h-5l-1-2 4-4Zm64 0 4 3v3h-6l2-6Zm95 0 5 3v3h-6l1-6Z"/><path fill="#818437" stroke="#818437" stroke-width="3" d="m594 300 6 4 1 2-6 1-8-1 3-4 4-2Zm-76 6 12 1-3 5-5-1-1-3-3-2Zm107 4 5 4-1 4-11-1 2-5h4l1-2Zm-54 1q16-2 23 5l1 2h-7l-11-5-2 5-5-1 1-6Zm-333 1 3 1-1 6-4-1-2 5 5 1h1l-2 6-7-6-7 6-2-2 9-10h-2l9-6Zm7 0 12 6-5 1v1l-1-3-6-5Zm302 0 5 2-2 4-4-2 1-4Zm61 0 4 2 2 4-2 1v1l-6-3 2-5Zm38 0 1 3-5 9-6-2 10-10Zm-562 3 2 9 10-2 1 2h5l1-2 5 4-1 4q-20 3-27-6l-9 16-4 1-1-1 6-9-2-1 8-10v-2l6-3Zm114 1 1 2 4 1-15 5-2-4 12-4Zm73 0 1 3 10 5 2-4 5-2-1 2-1 10-5-1-1-3-11-3 1-7Zm-117 2 10 1q-2 7-13 5l-1-2 4-4Zm14 0 4 2 2 3 1-4 2 5-8 1-1-7Zm131 0 7 1-1 5-5-1-1-5Zm215 0 2 1-2 5-4-2 4-4Zm9 0 5 1-2 5-4-2 1-4Zm12 0 5 3-2 3-4-2 1-4Zm-97 1 1 17h-5l-2-6 6-11Zm181 0 5 11h-2l-9-5 5-1v-2l1-3Zm-217 3 1 2h1l-2 5 4 1 7-6 1 3-6 7 6 8-1-1-11-8-1-3h-5l6-8Zm-352 2q13-3 16 3l-2 3-16-1 2-5Zm66 0 10 2-1 4-11-1 2-5Zm251 0 7 6-2 1 2 5 4-1v2l-2 4-8-6-1-11Zm218 0 3 2v4l-6-2 3-4Zm-410 1q7 6 5 23h-5l-3-17 2-1 1-5Zm-41 5 4 2 2 2 3 2-10 1-3-1 4-6Zm251 0 5 2-1 4h-5l1-6Zm186 0 5 2-1 4-5-1 1-5Zm-413 6 4 2 1 4h-5l-2-4 2-2Zm31 0 3 2-1 4-5-1 3-5Zm10 0 5 1-1 5-5-1 1-5Zm29 0-1 2-4 6-1-2h-2l8-6Zm130 0 2 1-6 11h-6l10-12Zm65 0 3 2-1 4-5-1 3-5Zm23 0 4 3v3h-6l2-6Zm-190 1 2 1v10h-12l1-6 9-5Zm-123 4 7 2-2 5h-6l-2-5 3-2Zm-11 1 4 2v4h-6l2-6Zm115 0 3 1v5h-6l3-6Zm309 0 6 3v3h-6v-6Z"/><path fill="#2C4C00" stroke="#2C4C00" stroke-width="3" d="m624 300 3 1 3 10h-1l-2-5-3 1-4-1-3 2 1-3 2-3 4-2ZM1 306l24 6 7 6-2 1 7 12-1 2-7-3 1-2-5-4-1 5 1 1-20-6 1-4-6-2 1-12Zm6 6-1 5 4 1 2 5 6 1v-5l-5-1 4-2v-1l-10-3Zm18 6-1 3 4 2h1l-1-3-3-2Zm8-12 9 6q17-4 24 4l2 8 4 1-5 9-3-3 2-5-17-2 5-3v-3l-6 1-2 5h-5l1-3-12-12 3-3Zm29 12-2 3 4 2h1l-1-3-2-2Zm546-12 2 2 2 3 1 1h-9v-1l2-4 2-1Zm41 0 5 1v11l-5 2-2-7 1-4 1-3Zm-550 1 8 5H92v-1l7-4Zm436 2 11 7 2 2 4-1 4 13 8-7 1 1 6 1-1 4v2l-4-1-2 5 1 1-7 2 2 4-2 1v4l-9-16-2-1h-2l-5 2v-1l4-7h2l-1-4-4-2h-2l-5-2 1-7Zm-111 3 8 4v2l-11 3-1-3 4-6Zm29 0 4 2 2 4h-6l-3-3 3-3Zm61 0 3 1-3 5-3 2-1-4 4-4Zm8 0 6 1-2 5-4-1v-5Zm-254 1 2 2v6l-4-3-2 3 6 9-5 3-1-4-1-5h-6l4-5-2-1 9-5Zm-27 2 6 9 1 1-2 6 3 5-14 7-2-7-4 1-4-1q4-8 15-7l1-14Zm-127 1 3 3-2 4-1-4-3 5-3-5 6-3Zm473 1 7 5v3l-6-3-1-5Zm49 0 2 7 10 9v3l-6 1 4 6-5-5-6-2 1-2-2-4h2l-6-8 5-3 1-2Zm-548 1 2 1 2 5h-5l-2-2 3-4Zm119 0 5 6h-8l3-6Zm21 0v3l-5 3-1-2 6-4Zm63 0 4 1-1 2 4 4-3-1-1 5 6 4 2 3h4l3-6 3-1v-5l-5 2-1-4 10-4 2 7-3 5-3 2 4 10 2-1v7h-11l-8-12-5 2-1 2-10 6-1 2h-12l-1-5 8-2 4 1 1-4v-2l12-1-6-14 3-3Z"/><path fill="#2C4C00" stroke="#2C4C00" stroke-width="3" d="m519 318 3 3 2 3 4-1 3-5 3 3 1 3-10 5-10-5 4-6Zm100 0 1 1h-1v-1Zm-441 6 8 3 2 3 4 3v3l-6 2v4l-6-2 3-4 3-1-1-5-4-2-2 1-1-5Zm208 0 4 3v3l-6-2 2-4Zm38 0 2 1v11l-6 2v4l-6-2 1-4 3-1 6-11Zm186 0 10 6v1l-10-7Zm-246 1 2 2-6 7v-4h-2l6-5Zm-40 2v3l-3 6-2 1-1-1 6-9Zm-240 3 6 4-5 3-1-7Zm21 0-3 4 1 2 3-1-2 3-2 5-7-1 10-12Zm237 0 6 1v17h-6v-18Zm169 0 5 1 2 3 10 6v2q-14 0-18-9l1-3ZM9 331l1 1 2 5-2 4H8l-2-5 3-5Zm439 0 6 11 9 1-1 5h-12l-3-5 3-1-1-6h-5l2-4 2-1Zm-370 1 1 1-7 15h-6l-2-5 3-1 9-6 2-4Zm277 3 1 1h-1v-1Zm191 0 2 7-7 1-4-1 9-7Zm-428 1 2 1-2 5-3 1-1-1 4-6Zm27 0 5 4-6 8h-6l7-12Zm288 0 5 3v3l-4-1-1-5Zm53 0 5 3v1l-5 2v-6Zm-159 1 7 7 2 4h-5l-6-9 2-2Zm-242 4 6 2-1 5h-6l1-7Zm-61 1 1 1-1 5h-6l4-5 2-1Zm12 0 5 4 1 2h-5l-1-6Zm118 0 2 6h-5v-1l3-5Zm242 0 3 1-3 5h-6l4-5 2-1Z"/><path fill="#102A00" stroke="#102A00" stroke-width="3" d="m597 306 9 1-3 5-9-2 3-4Zm16 0 5 1-3 5-3-1 1-5Zm34 1 1 5h-5l-1-2 5-3ZM7 312l10 3v1l-9 2-1-6Zm84 0h21l2 3-2 3-4 1v5l-6-3-1-3-5 2-3 4-3-6-4 2-1 2-1-6 7-4Zm29 0h28l2 3q-8 14-35 9v-1l2-4-2-1 5-3v-3Zm345 0 11 1q-1 7-11 5l-3-3 3-3Z"/><path fill="#102A00" stroke="#102A00" stroke-width="3" d="m490 312 8 4 2 2 13-6-3 4 2 8q11-2 14 5 3-7 14-6l1-5 5 4v2l-4 2-4 8-8-3-1 2 6 9 5 1v5h-72l-1-6-15-1-4-9 34-2 4-2-1-4-5-3 1-3h5l4-6Zm21 18-1 3q4 9 18 9v-2l-10-6-2-3-5-1Zm-35 6-2 2 2 4 15-2v-1l-15-3Zm77-24 5 4 2 2 8-6 2 6-6 3-8 9q-7-5-3-18Zm78 0 5 3-1 3h-5l1-6Zm-53 1 8 5 2 6-6 2 2 4 3 3-5 8 4 1q10-4 8-20l-2-4 9 1-1 3 12 8 25 6 9 8 2 4h-83l-2-6-5-2 2-4 22-1-1-5-11-1 2-5 10-1-1-5h-5l2-5Zm-553 5 3 2 2 4-1-1-5-2 1-3Zm24 0 5 1-1 3-4 2v-6Zm13 0 2 2 2 4-1-1-5-2 2-3Zm191 0 8 1-4 5-5-2 1-4Zm77 0 6 3-6 8 12 3v16l-7-1-7-10-3 2 5 9h-11l-1-10 4-3 8-15v-2Zm321 0 3 1v5l-6-2 3-4Zm-31 1 4 3v2h-3l-1-5ZM1 324h12l23 9 1-2 8 11 4-12 16 12 1 3v3l-25-1-2-4-15-1-5 4-1 2H0l1-24Zm8 7-3 5 2 5h2l2-4-2-5-1-1Zm144-7 3 3-2 3-4-2 3-4Zm34 0 5 4v2l-6-1 1-5Zm62 0 15 7-3 5-13-1-2-8 3-3Zm46 0 3 2 2 4h-4l-1-6Zm14 0 3 1-1 5h-5l3-6Zm322 0 3 2 2 4h-3l-2-6Zm-525 6 2 1-3 5h-3l4-6Zm57 0 3 2 2 4h-2l-3-6Zm38 0 3 3-2 3-4-2 3-4Zm157 0 2 1-1 3-3 1v-1l2-4Zm189 0 4 4 7 14h-5l-2-6-5-2 1-10Zm-483 1 1 1-2 4-1-4 2-1Zm18 0 2 1v16H72l8-16 2-1Zm318 0 2 2 6 15h-5l-2-6-10 4-1 2h-6l2-10 14-7Zm-271 5 3 1v5l-6-2 3-4Zm101 0 4 2v10h-6l2-12Zm66 0 4 2 6 10h-23v-1l3-4 8-4 2-3Zm-204 6 10 2v4H90l2-6Zm24 0 4 1v5h-6l2-6Zm32 0 2 1v5h-6l4-6Zm9 0q13-3 17 4v2h-18l1-6Zm86 0 3 3v3h-6l3-6Zm24 0 3 2v4h-6l3-6Zm96 0 3 3v3h-6l3-6Z"/></svg>