<svg xmlns="http://www.w3.org/2000/svg" viewBox="0 0 1902 474" xmlns:v="https://vecta.io/nano"><style><![CDATA[.B{stroke-width:3}]]></style><g fill="#220d33" stroke="#220d33" class="B"><path d="M1 0l125 1q-2 16 6 23v25l6 11v25l6 11v25l6 11q-3 13 4 17l9 1q4-7 18-6l7 6q-18-3-24 7l-2 4v2l1 5 5-2-2-3 10-1-5 6-9 4v38l-9 6-3 13 9 11 3 1 1 5 3-1 2-4v29l-12 9 9 9 3 1 6 8 1-2 5 17-12 9 9 9 3 1 6 11-6 3 9 9 3 1 6 14-6 9-12 9 12 16-6 9 13 14 3 2 2 5-1-1-5 2v10l-6 3 9 9 3 1 4 10 2 1 1-4 4 10h-52q2-25-10-36h-3q3-18-3-24l-2 1-1-14-12-23v-8h2l10 6 8 14 16-1-1-5h-2l-8-20h-2q-7-7-5-23l-6-11v-25q-9-9-6-29l-5 3-2-92 7-18-2-1 2-4-3-2-3 2v-2l-17 6 3 1-3 1-1-2-18 14 2 4 10-1-1-4 3-1 18-6-5 6-3 6 4 1-21 13-1-2-5 10-5 4-2 4v115l12 26q-5 22 6 29l1 1 5 10v13q7 4 6 18l9 10 3 3 9 21-3 1 4 4 2 1 1-3 5 9H1L0 307l15-12 9-18v-7l12-17 1-9 3 2 8-10-4-3-2-3 8-2-2 3 2 3 10-8-1-4-4 2-1-5 3-2 3 3 2 2 10-8-2-3 2-1 1-2 3 2 2-1 1 1 4-3-1-2 2-1-2-5 8-3v3l1 5 3-1 8-13-5-4-1 5-3-5-8 1h-2l-10 5-1-6 4-5 26-10L3 7 0 6l1-6zm105 192l-4 6h4l2-5-2-1zM229 0l209 1 1 5 1 1-7 9-1-4-21 18-90 126-3 1 2 5-2 1v1l-14-2 2-5-3-1-3 2-1-2 1-2q-5-6-17-4l-1 3 5 3h-4q-7-7-21-6l1-4-29-2-9 5-8-5h-21l-4-3 6-14v-13l6-11V90l6-11V66l6-11V42l6-11V18l7-18zm325 0l4 1 4 9-2 5h-2v-3h-2l2-3-4-9zm275 0l11 1-3 5h-11l3-6zm54 0l59 1-3 5h-59l3-6z"/><path d="M997 0l120 2 3 3 32 13h13q4 7 18 6l29 18 55 12 31 19-2 5h6v-3l-1-3 19 12h7l18 9 39 26 6-5 21 12 4-2-2-3 16-4 85-61 17-5 34-24 5-8 29-12 4-7 203 1-3 4-9 1-25 16-17 5-11 9-25 6-17 12h-7l-35 18h-7l-13 10-83 41-7 7q-27 3-40 20-14-3-18 4l-1 3 9 11 7-5 24 23 6-5 20 20 13 3 17-12 43-12 17-12h13l29-18h13l47-30h13l41-18h7l13-10 29-11 53-33v84l-149 66h-7l-47 24h-7l-48 27 9 9 7-5 14 14q27 4 42 21h13l18 12 155-84v222l-5 4-1 7 6 2v23h-6l-2-5 2-1-5-9-12-3-1 2-18-11-1-9-10-6-1 3-5-2 4-1-10-6-1 3 5 3h-4l-17-11-1-4-6-3-1 2-4-1 3-1-10-6-1 3 5 3h-8l-19-11-1-4-24-9-1 3 14 9h-1l-23-12h-10l2-5-11-1-1 4 2 2-37-18h-18l-1 3 5 3h-4q-8-9-27-6l2-5-11-1-1 4 2 2q-19-4-25 4l2 2-3 1 4 4 2 1 1-3 4 3-4 1 5 3 9 14h3l-7-16-4-1 5-1 10 6 2 4 1 2 17 6 1-2 3 2-3 1 5 3 1 2 4 3-2 3-3 1 2 5h-2q-32-10-53-30l-21-6 2-5-5-1-1 4 2 2-13-6h-19q-7-8-24-6l-20-12 2-5-5-1-1 4 2 2-17-11 3-1-8-12-4 1 2 6-1-1-36-21-4-9-12-5 3-1-11-15 5-6-9-8-3-6 3-1 39 36h1l1 1 4 3 1 2h5l1-3 4 3-4 1 23 11v-3l-2-3h2l11 6-2 1 15 5v-3l-1-3h11l20 12h34q5 9 22 7l-2 5h12v-3l-1-3h17l8 6q17-3 23 6l-2 1q5 7 21 5v-3l-1-3h11l20 12h6v-3l-1-3q15-2 20 6l7-5 1-2 11-5-2 3 1 3 8-5 3-6-2-1 2-6-3-5-8-1-1 4 2 2-18-5-1-4-24-9-1 3 5 3h-4l-11-5-1-4-24-9-1 2-4-1 3-1-10-6-1 4 2 2-12-5 4-1-3-5-14-7-1 4 2 2-12-5 4-1-3-5-8-1-1 3-5-2 4-1-10-6-1 3 5 3h-4l-17-11 4-1-3-5-8-1-1 2-10-7 4-1-3-5-8-1-1 2-4-1 3-1-16-12-1 2-4-1 3-1-10-6-1 3-22-8-2-5-4-1 4-1-5-9-6-3-2 1v-2l-10-5-1 2-4-1 3-1-16-12-2 1v-2l-16-11-1 4 2 3-1-1-9-5 2-1-3-5-2-1-1 2-4-1 3-1-16-12-2 1v-2l-10-5-1 3-17-9-1 2-10-7-2-4-3-8-8-1-2 1v-2l-10-5-2 4-5-1-1-2v-2l-4-8-12-3-1 2-4-1 3-1-10-6-1 3 5 3h-4l-11-5 4-1-3-5-14-7-1 4 2 2-12-5 4-1-8-12-4 1 2 6-1-1-11-5-4-7-4 1 2 3 3 2h-4l-11-5 4-1-3-5-3-1-5 4-1 2v2l1 4v2l11 13 12 3 1-2 9 8-4 1 4 4 2 1 1-3 8 4 3 7-2-2-4 1 6 8 11 7 5 7 14 7 1-2 7 8-2 1 42 44 1-2 2 5h-3l-23-18-1 2-7-8h1l-23-27-16-8-2-4-6-3-1 2q-8-13-24-16l1-6 5 2v-3l-23-15h-6l-1 2-40-25 4-1-3-5-14-7-1 2-4-1 3-1-5-3v-3l-17-6-1 3-5-2 4-1-10-6-1 3 5 3h-8l-15-9v-3l-17-6-1 3 14 9h-2l-22-12h-6l-2 4 55 36 23 12 4 7 1 1-4 1 15 13 2 12-6-6-4-1 4-1-3-6-3 2-1 2-17-7-3-8h-2l4-1-16-12-1 3-5-2 4-1-10-6-1 3-5-2 4-1-16-12h-2l-21-11 4-1-6-18-12 1v2l-5-2 4-1-10-6-1 3-5-2 4-1-16-12-1 3-5-2 4-1-16-12-1 3-36-11 1-4zm120 60l2 7 9 5v-3l-11-9zm18 12l2 7 9 5v-3l-11-9zm18 12l1 5 4 1v-3l-5-3zm12 6l2 7 9 5v-3l-1-3-10-6zm0 12l-1 4 1 3 8 5h3l-3-6-8-6zm282 210l8 12h3l-3-6-8-6zM1423 0l137 1-3 4-33 16q-13 17-35 25l-4 7q-28 6-44 23l-4 7-39 23v2l-6 1v2l-7-7-17-5-7-7-50-25 3-1 1-6 30-15 7-7 11-2q10-12 30-15l28-18 2-3zM531 6l1 1h-1V6zm56 0l6 4 5 8h2l1-4 5 12-2-2-4 1v3L589 9l-2 1V6zm-89 2l1 4 5-2v8l-5 10-5 4-1 3-1-7 6-9-3-1-3 2 6-12zm145 4l11 7-6 23 2 1-1 3-1-3-10 14-2 1 3 7 9 1v-1h-2l2-1 2 5-2 4 1 1-6-2-1 2-19-20h1l-3-5 4-2 3 1 2-5-3-1-3 2 6-12 1 4 4-3 5-8 8-4-1-3h-7l3-6zm-69 6q5 3-2 7v2h-2v-3h-3l7-6z"/><path d="M535 19l3 5h2l1-4 11 22 1-4 1 4-2 1 6 8 3 3 3 3 1-2 5 9-12 5 2 3 4 4 1 2h5l-1-4-4-1q16 2 23-4l1 3h5l1-2 11 5h1l8 15-3 1 2 5-2 1 1 5 3-1 1-2 1 1 2 8 8 6 3 4 13 2 15-8 3-10 4 3h1l5 6h1l4 9-5 2 2 4 9 6-5 1 7 9 11 6v7l-3-5-3 1q-1 12 8 15l4 2v-2l-5-9 2-1 3 6h1v2l2 3h1l2-4 1 5 1 1-2 3 4 2 8-7 1 1 4-2-4-4-1 3-4-2-2 1v-2h-3l2-5-5-3 2-4 2-1 2-4 2 11 10 6 1-2 7 3q-11 21-29 35l1 1-8 6-1 3-7 3q2 9-3 11l-2 1-1-2-1-3-4-2h-2l-4 1h-2l-4 3-1 9-15-7-3 2v-2l-5 4-1 2 2 1-2 12-3-1-3 2v-2l-9 6-32-18-1 4 2 3-2-2-8-4 2-1-5-9-18-9-6 8-3-7 2-1 1-8 24 14q4-8 19-6l-2 3 1 3q12 3 16-3l1-2-3-1v-5l-13-6-2-4v-3l-6 1 2 5h-1l-11-5 4-1 6-11v-2l-1-5h-2l-8-19 5-7 1 3v2l12 13 3 2 4 6-2 1 1 5 1 1-2 4 32 2-2 5h30v-3l-1-3 7-2-2-3 2-1 1-2 3 2 2-10-1-3-2-4-9-1-1-6h-5l-2-11 2-1-5-9-6-3h-2-7l-14-11-8-10-1-3-10-3-2 1-6-16q-11-1-14 6l1 1-14 5v-1l4-2v-3l-9 6q-18-3-24 5l-15-7 6-5 1 1 16-9 1-2-4-1 8-6 2-4-18-11-2-14-2 1-1 3-1-12 3 1h3l4-6h2l-2-6-8-1-1-10zm87 5l2 1-3 5h-2l3-6zm224 0l17 7q-5 6-18 5l1-2v-4l-12 4 1 3-1 4 20 2-2 5h18v-3l-1-3h11l8 6h10q3 8 16 7l-2 5h12v-3l-1-3 12 6-2 1 17 11h-14q-9-9-30-6l-11-6h-73l-35 12h-19l-22 14-1 3q1-11-6-14l-16-8 3-1-3-5-2-1-1 3-5-2 4-1-10-5 5-1-1-5 8-2 6 1 4-2-2-3 4-2 42 1 4 4 5 7 3 1 4-3 4-15h22l8-6q15 2 21-6zm36 0l6 3-2 3h-5l1-4v-2zm68 0l5 2 2 4h-7l-2-4 2-2zm21 0l11 6-4 1 2 5h-7l-2-4-4-1 5-1-1-6zm-305 2v7l-8 3 2-3-1-2 3-1h2l2-4zM490 36l2 1v7l-5-2 3-6zm93 4l4 7-7-4 2-1 1-2zm-144 2l5 4-1 2-3-1-1-5zm86 0l3 3 2 9 4 1v2l-4 1h-3l-1-3 2-1-3-6-3-1 3-5zm510 0q12-3 15 3l-2 9-16-9 3-3zm-373 1l8 5 2 4 1 2h-3l-5-6-4 2-1-5 2-2zm-58 5l2 1-3 5-3 1v5l-10-2-1-3 15-7z"/><path d="M688 48l2 1 2 5-2 1v1l-6-3 4-5zm399 0l3 2 2 7-1-1-4-1 2-1-2-6zM501 60l3 3v4l-4-1-2 1 3-7zm446 0l29 12-4 1 2 3 10 2v-3l-1-3 26 13-1 4 1 1-12-5 2-1-8-6-1 4 2 2h-8l-23-11 2-1-2-5-1 2-13-9zm-267 1l8 5-4 1v1l-4-7zm-217 2l4 4-5 16 5 1 5-6 2-1 1-5 2 1 1 4-4 3v10h-11l-18-6 5-3v-3l-11 6-1-17 7-2 1 2 9 5-2 1 3 2 1-2 2 4h1l2-4v-2l1-8zm705 3l10 6h-2l-8-6zm-477 3l8 4 3 9-2 2-8-7-1-4-1 3-2-3 2-1 1-3zm-187 2v10l-5 3-1-8 6-5zm34 1l2 1-3 5h-3l4-6zm90 12l2 1-3 5h-3l4-6zm386 0l6 3v3h-7l1-4v-2zm-565 6l7 4v4l-7-8zm38 0l8 1-2 4-4 1-2-6zm14 0l21 10 2 14 20 2 2 3 1-2 4 3-5 1-4-1h-2l-6 1 2 11-2 1 9 11 3-1 3-4 3 3v3l-3-1-3 6h4l2-1 13 19-1 4 2 2h-14l-1-4q-16 0-23-8l-5 4-1 2 3 1-1 3 1 2-3 1 4 4 6 3 2 4-6 2-6 24q7 4 6 18l-2-2-4 1-6-1 3-6h3v-4l-10-2h-2l-6 1 6 12-5 7q2-17-6-24l2-1 3 4 1-4 2 4 3-2v-3l-6-3v-3l-6 1 2 3 3 2h-4l-7-13 3 1h3v-6l-4-1-9-17-5 2-2 3-4-2v-3l-5-2 6-10h5l1-3h4l-1-3h2l1-6 3-1 2-14v-4l5 1 1-4-6-5-1-3-5 3 1 3-1 2-6-2v-6h-2l2-1 1 1 20-30zm16 120l-1 3 4 2h1l-1-3-3-2zM703 93l2 3-2 1 5 3v2l-6-3 1-6zM1 96l4 3v1l-4 2v-6zm10 4l1 9-7 9-4 2-1-5 5-4 6-11zm718 2l3 3-2 9-4-2 3-10zm-124 6l2 2h-1l-1-2zm157 0l1 1h-1v-1zm27 0l3 1v2l-6 3 4 1-3 1-1-2h-5l8-6zm-208 6l7 4 1 2h-1l-7-6zm253 0q11-1 15 6h-15v-1-5zm365 0l9 6-2 1 4 4 2 1 1-2 7 8-2 1v5l-16-13-3-11zm-598 6l5 3-2 3-4-2 1-4zm268 0q19 1 30 12l-2 1 5 5-12-6h-22l-4-3 1-5 5 2v-3l-1-3zm217 0l27 18 7 12 5 1v1l-3 1 1 3 2 1-1 3q11 7 12 24l9 6 31 68v13l14 15 17 2 14 12h-3l-11-6-1 2-17-8-1 2-29-8-1 4 2 2h-23l-10-24q-11 2-13-5l2-1-3-5-2-1-1 2-34-19-2-5-22-7-2-5-20-2-8-6h-16l-16-7 3-5 3-1q1-12-6-15l-12-4 1-6 11 8-1-1-13-16 3-2 2 1 3-5-2-1 28-18-2 3 1 3 14-5-2-1 13-6-2 3 1 3h5l-2-5 9-1 4 4 5 13 21 1 4-3 6-12-1-3h8l-6-12zm49 66l2 7 9 5v-3l-11-9zm-54-61v2h-1l1-2zM1 126l4 4 1 8H1v-12zm568 0q11-1 15 6l-2 1 4 4 2 1 1-2 5 2 1-2 13 15-2 1-5-2-2 1v-2l-10-5-11 5-2-2 5-6-4-3-3 6-7-11 3-1-1-6zm768 0l7 4v1l-7-5zm-598 4l4 7h-1l-4-2 1-5zm-54 2l2 1 2 5h-1l-3-6zm152 0l3 3-2 3-4-2 3-4zm77 0l10 3v3l-10-6zm-266 5l4 2-8 4-2-4 6-2zm-43 1l7 3v5l-7-8zm138 0l1 1v1l-1-2zm188 0q14 2 21 12h-6l-16-9 1-3zm298 0l7 4 4 7 22 19-2 1 4 4 2 1 1-2 13 14-8 1v3l-6-8-4-1-1-4-6-3-1 2-7-8h1l-3-11-14-7-1 3-5-2 4-1-5-3 1-3h5l-1-6zm-480 6l7 4 2 2 6 1-2 4 1 1-11-5-3-7zm26 0l19 1-2 5 12 1 1 5 1 1-8 5 4 1-3 1-1-2-6-3-1-3h-20l3-9 1-3zM6 147l1 3 5 1 3 5 3 1 2 3 4 2 1-3 9 8 2-1-3 8-3 1 3 5 3 1 1 5 2 1 1 4 2-1 1 2 5 1 7 11 1 1-8 11 2 1-8 7v-2l-11 8-1-2-15 12-12 24H0l2-55 3-1v-2l-5-2 2-13 3-1v-2l-5-2 1-36 5-3zm25 3l5 1 1 5 2 1-6 5-5-6h2l1-6zm534 4q9 4 3 8l-5-6h1l1-2zm36 0l1 3 6 5h-1l-7-3 1-5zm-409 1v2l-3 4-6 1v-1l9-6zm6 7l4 1-8 5-2-2 6-4zm67 0l17 6h12l1-3 29 15 1-2 3 2-3 1 17 5h1l1 1 16 11 1-2 3 2-3 1 5 3 2 2 4-1v3l2 2 4 2h1l1 1 10 5h2l9-2v-2l-4-1 2-1-10-12 21 18-2 1v1l-4-2-2 11 6 5v2l-11-6-1 2q-22-2-34-14h-27l-9 7-2 25q9 8 7 28l5-3v33l-2 4-5 2 1-2v-4l-9 6-3 6 2 1-13 9-7 11-4 1-2-4-9 6-3 6 2 1q-8 3-8 15l2 2-2 1v1l-18-4-6-12v-15l9-24 15-23 4-14 7-3 7-19 4-3 3-12 2 1q6-6 3-22l-12-2-1-6h-20l3-5-6-3-1-34-5-2 1-4zm61 0l12 6-2 1v1l-4-1 3-1-9-6zm249 1l1 1 1 10h-1l-6-3v-3h-2l7-5zm762 5l7 3v5l-7-8zm-994 4l13 8-2 1v1l-10-2h-3l1-3-1-3h1l1-2zm978 0l7 8-8-2 1-6zm-738 7l7 2-7 5 1 1h-2l-1-6 2-2zm-218 1l9 6h-2l-7-6zm394 0l3 3-2 3h-4l3-6zm596 6l7 3v5l-7-8zm-424 4l13 14-12-7-1-7zm354 0l5 10-4-3-1-7zm-541 2l4 1-11 5 3-4 4-2zm62 1l8 5-4 2-4-7zm125 9q3 9 17 8l1-2 8 9 9 23 1-4 1 4-2 1v1l-7-4-10-19-2 1-5-8-12-4 1-6zm354 0l13 14-11-6-2-8zm66 0l7 8-8-2 1-6zm-56 2l7 4v4l-7-8zm-597 6l4 3v3h-9l5-6zm612 1l9 8-4 5-1-2-4-1-1-4h-3l2-1 2-5zm-547 1v2h-1l1-2zm618 2l25 32-2 1 6 8 1-2 2 5-9 1 2 5h-1l-7-3-3-8 3-1-3-5-2-1-1 4-8-9 2-1-5-9-4-2-3-12 6-1 1-2zm-894 3l12 23 1 1-7 6-1-7-4-1-1-22zm-72 3l7 8-2 1v1l-7-8h1l1-2zm888 0l7 8h-5l-2-8zm-618 7l3 3 4 10h2l6-12 2 1-6 17 2 1-1 3-1-3-3 5-3-1-2-10 2-1-5-13zm204 1l7 6v1l-8-4 1-3zm-462 4l13 14-2 1v7l-11-20-1 4-2-3 2-1 1-2zm96 0l5 7 2 1h-4l-3-8zm306 0l3 2-3 1 5 3 1 2h-3l-8-5 4-1 1-2zm492 0l8 8h-3l-5-3v-5zm-757 3v9l-3 2-3-4 4-3 2-4zm102 1v16h-2l-5-6h2l5-10zm667 7l32 33 3 8-2-2-4 1v1l-7-8h1l-3-5-2-1-1 2-11-17-1 2-5-10h-2l2-4zm-798 4l7 5-2 4-5-9zm-90 3l5 10-4-3-1-7zm-16 2l3 3v3l-6-2 3-4zm66 6l3 3-2 3-3 1-1-4 3-3zm880 0l1 1-7 5-1-2 7-4zm-829 4l4 4 2 4-5 1-1-9zm147 1l1 1h-1v-1zm127 1l3 1-1 4 1 1h-6l3-6zm84 0l2 1-3 5h-3l4-6z"/><path d="M930 267v6l-5 9 5 4 2 8 28 18h2q11 1 14-6l2 9-1-1-3-1-2 5 6 4v2l-6 1 2 3 10 6-1 2-17-9-1-3-4 2-1-2-5 4-1 3 6 12-1-1-3 2-2 4v55l-2-1-4 13 6 10 1-4 2 5-3 1 6 8 6 3 1-3 4 3-4 1 10 5 5-6 2 1 2 5 4 4 8 20 10 4v2H906v-6l-5 2-1-1 12-35v-18l-3-2-3 2v-2l-5 4-1 2 2 1-8 17 2 1q-2 16-15 21l-7 2-4-4h2l3-1-2-1 2-4-1-2 8-11-3-1-3 2v-1l-1-7-9 4-2-4-9 5-7-5-5 6 1 1-11 5 1-2v-4h-12l3-5v-2l6-4v-2l11-5-2 3 1 3 22-15 7-14-3-1 4-9 11-4 6-10-2-1 14-22 1 4 4-3 7-14-2-1 2-10v-2-12h-2q0-17 11-24h3l-2-5-9 8-1-8 10-8 2-4 1 2 2-3h-2l5-3zm6 99l-2 1-4 5 2 1-8 17 1 13-1 4 5 1h2l11-7-1-31-4-1-1-3zm-57 84l-3 3 1 3 5-3-3-3zm514-182l27 20-4 1-1 3-4 2-2-5v-2l-4-8-5-2-1 2 4 7-4 2-4-12-9-2-2-3 8-1 1-2zm-937 2l2 6h-5l-1-4 4-2zm96 6v3l-7 3-1-2 3-1 5-3zm21 0l3 3v4l-4-1-2 1 3-7zm438 0l13 6-4 1v1l-12-4 3-4zm422 0l7 3v5l-7-8zm-532 6l5 1-3 5h-3l1-6zm-342 2l7 16 4-1 1 7 5 4 1 2 3 2 8 18-5-5-6-3h-2l-18 6 1-2v-4l-9 6-3 6 2 1-7 4 5-15-4-2h-2-8l2-4v-2l1-6 3-1 2-4v-2l1-13 5 2 2-4 10-2 1-4zm475 4h10l22 14 2 6h-2l-20-7-2-5-4-1-1-4-5-3zm339 0l8 3 20 21 3 9-1-1-4-1 2-1-3-2v1l-7-9-4-1 2-1-8-6-1 2-7-8h1l-1-6zm-868 4l3 2 3 4 3 2 3 4 3 2-4 1-3 5-3 2v6l-18-19 6-2 6 1 1-8zm-33 8l2 1-3 5h-2l3-6zm753 3l4 3-4 1 7 5h-1l-11-5 4-1 1-3zm-144 1l3 2 2 4v4l-4-1-2-4 1-5zm48 1l5 4h1l5 6h1l4 8-10 2h-2l-4 3-10 14 1 1-8 3-6-4-48-1-2-7 11-4v1l-5 3 1 2h36l11-7-1-5-5-3-1-3-5 2-3 4h-3l-2-5 2-1 1-6h5l1-3 23 9 1-2 4 2 3-1 4-2-1-3-4 2v-9zm-232 7l5 6-2 1v1l-5-6 2-2zm350 0l6 4 1 4-7-8zm-863 4l1 2 4 1-10 5 3 1-3 1-3-1-9 5 2 1-2 5 3 1-21 13-1-2-11 6 3 1-3 1-1-2h-4l22-11-2-1 2-1 1 1 10-5-3-1 3-2 2-7 17-11zm607 0l5 4-1 2-3 1-1-7zm-511 2v3l-5 3v-1l3-4 2-1zm1199 0l9 6h-1l-8-6zm-670 4l34 14h-16l-23-11 4-1 1-2zm256 2l6 4 1 4-7-8zm-688 4l5 10-3-2-2-8zm418 1q6 9 23 8l-3 2 1 1 3 2-2 1 14 9 4 8h3l1-8 3 2 2 4 2 6 12 8h-1l-35-17-10-13-4 1 6 8 5 3h-4l-17-11 4-1-7-13zm-544 7l5 1v2l-11 5-1-2-9 6 2 1-7 5v1l-14 5v-1l6-4 1-2 28-17zm66 0l1 1-2 5 7 1-1 7-5-2-4 6-3 2 2 4-2 1q-4 16 4 22l2 1 1-4 5 12-2-2-4 1 12 35 2 42 4 3v3h-18q4-17-3-23l-2-1h-2l-5 2-5 9-1-11-6 1v2q-3-5-12-3l-24 10v2q-22-4-28 8l-2 4-73-1-2-4-2-1h-2l-5 2v4h-54q2-15-8-17l2-1-3-6h-3l6-12-3-5-2-1h-2-7l2-5-2-1 2-10-12-11 1-3 14-6 5 6 16 12 1-2 3 2-3 1 16 11 2 1-1 3 10 8q8-15 29-18l-1 2-1 3-1-2-2 3 1 1-21 12v2l-2 1 2 8 10-1 1-11 41-2 1 2 4-3 1-2-4-1 21-14-5-10-6 3 5 3h-4l-17-6-2 4 2 2-2 1 2 5h-1l-19-8 9-4-1 2-1 3 5 1 2-4 9-5 1-2 1 2 4-2-3-1 4-2 1 2 16-11-3-1 4-2 1 2 14-5v-2l6-4v-2l14-5v1l-5 3 1 2 10-5-3-1 4-2 1 2 12-3 34-26-3-1 4-2 1 2 3 1-10 8 2 3 4 4 2 2 13-11 3-6-2-1 9-6zm-129 66l-4 5 3 1 3-5-2-1zm16 6l-2 5 5 1 1-4-4-2zm269-72l2 1 3 8-3-2-2-7zm317 0l6 4v1l-6-2v-3zm-486 2v2h-1l1-2zm787 4l8 6h-5l-3-6zm-330 12l2 1 3 8-1-1-4-1 4-1-5-3 1-3zm88 0l16 6 21 18 1-8 11 6 2 2 4-1 4-5 9 12 17 6 1-2 3 2-3 1 17 11v-3l-1-3 11 6-4 1 9 11h3l-2-6h2l24 12v-2l-5-3 17-2-1-4 1-4-5-3-1 4 2 2-10-5 2-1-3-5 3-1 24 12h13l9-5 6 5-4 1 4 4 14 1v-2l-5-3 8-1 8 6h10q3 7 16 6l10 9v1l-10 6 2 2-3 1 2 5h-11q-4-8-17-6l2-5-11-1-1 4 2 2-20-9v-3l-6 1 2 5h-5l-21-9-3-9-3 2-2 4-4 3 13 13 15 8 4 4 17 12 20 9 2 5h-34l-3-5-2 1-2 4h-12q-1-17-13-22l-34-20-13-3-11-9q-14 1-18-6h-21l-4-3-3-8 3-1-7-12-21-11-2-5-4-1-1-4q-15-4-20-15zm-460 4l5 7 1-4 2 5-3 1 4 5 2-1v5l-3 2-8-20zm-343 1l6 2-1 3-4 2 3 1-3 1-1-2-9 6-6 12 1 1-8 6-1 3-1-4h-12l6-11-2-1 14-8 1 2 17-13zm211 1l1 1-9 5 2-3 6-3zm616 0l11 6-3 1-8-7zm-762 1l1 1 1 4 1 1-1 3-1-3-3 5-3-1 1-8 4-2zm1010 2l7 7 16 6 1 3-2 1-1 3-9-5-1 2-10-7-3-7h1l1-3zm-1031 3l10 3v3l-10-6zm397 5l1 1h-1v-1zm990 7l11 6h-1l-10-6zm-994 6l8 1-1 4v2 1l-7-8zm674 0l7 6h-1l-7-3 1-3zm-660 4l5 10-6-5 1-5zm-90 6l5 4-2 4-4-2 1-6zm362 1l1 1h-1v-1zm428 0l26 1 10 6h-31l-5-7zm-1153 7l2 1-1 9-10 4-1-4 10-10zm1423 0l29 18 2 4 1 2 3 2 4 10h-2q-5-7-18-6l-20-12 8-6-7-12zm-226 3l5 9h-2l-3-6-1 4-2-3 2-1 1-3zm-468 2l5 5v3l-6-4 1-4zm-359 1l4 2v4l-6-2 2-4zm97 0l1 1h-1v-1zm-1 6l2 2 2 3 1-3 1 4-2 1-6-1 2-6zm-77 6l11 6h-2l-9-6zm4 7l5 10 1-2 5 3h2l4-1q-2 14 8 19l-2 1 12 17h-17l-1-3 6-4-5-17-1 2-1-2h1l-3-5h-2l4-1-4-3v-2l-1 3-2-3-7-1-2-11zm1074 2l4 3-2 1q10 12 27 17l-1-1-4-8-18-8 5-1 42 28v2h-6l-23-12h-7l-17-11 2-1-2-9zm-973 3l10 6 4 6v1l-15-7 1-4v-2zm76 0l7 1-5 3 2 6 3 2h-8l-3-8 4-4zm306 0l32 18h13l17 12 29 10 1 2h-124l-1-1 3-5 7-3 13-19 4-3 6-11zm339 3l35 27h19l22 10 1 2h-119l-1-3 18-5 1 2 4-3 1-2-2-1 2-10-16-7 5-1 17 6 1-2 10 2 3-1 4-2-1-3-3-1-1-4-1 3-2-3 2-1 1-3zm-803 3v2h-1l1-2zm133 0l10 7-1 4 15 1 3 4-3 8h-5l2-5-17-1 4-2v-2l-13-2 2-5-5-1 8-6zm524 0l7 4v4l-1-3-6-5zm120 0l11 6-3 1-8-7zm-676 1q7 7 22 6l-4 2-1-2-3 5-15-9 1-2zm-510 1v2h-1l1-2zm1092 4q9 10 31 7l-19 17-2-4-4-2h-2l-14-6-1-4 11-8zm-641 6l7 6-3 1 2 5h-1l-9-5 2-1 2-6zm683 4l7 8-8 1-6-4-1-2 7-1 1-2zm-697 7l-1 2-4 9-2-4 2-1 3-5 2-1zm178 1l2 1v2l-12 6v3h-5l5-8 1 2 4-3 1-2 1 2 3-3zm-363 1l5 11h-5v-11zm873 5l4 1-2 5h-5l3-6z"/></g><path d="M127 0l101 1-6 17v13l-6 11v13l-6 11v13l-6 11v13l-6 11v13l-6 14 3 3-9 1v2l-12-3q-5 7-18 6l-5-3q1-18-7-26V96l-6-11V60l-6-11V24q-9-8-5-24zm690 0l11 1-2 6-10 5 4 1-3 1-1-2h-6l7-12zm379 0l4 1-1 3h-3V0zm18 0l208 1-3 4-105 56v5l-71-33-31-18 1-3h5l-4-12zm347 0l41 1-5 8q-19 3-30 13l-4 7-32 22-17 5-85 61-18 3-19-9 1-3h5l2-4 39-23 5-8q17-15 43-22l5-8q20-6 32-22l35-18 2-3zm246 0l95 1-1 48-94 53h-7l-41 18h-13l-47 30h-13l-29 18h-13l-17 12-43 12q-8 11-24 12l-27-23-6 5-24-23-6 5-9-12 4-5 15-1 11-9 29-11 7-7 83-41 13-10h7l35-18h7l17-12 25-6 11-9 13-3 11-9 29-12 2-3zM1 6l4 4 97 161-29 13-1 8h3l3-2 1 8 5 3v3l-11-6-4 6-3 1 2 5h-9l1-2v-4h-6l-6-12h-6l-2-6h-4v-6l-6-2 1-4 3-1 8-14-6-3v-6l-6 1v5l-6 3v3l-6-3v-3l-6-2v-4H6v-4l-6-2 1-6h5l-3-11-3-1 2-7 8-6 2-11-6-10-6-2L1 6zm431 6q-2 21 9 30l-3 1 3 5-3 1 1 5 1 1-2 4 6 5v2l-6 1 1 17 5-3 2 15 17 18 11 4 1 2 5 1 1 5 5 3 3 3 3 3q2 11-3 15l-3 1v5l-6 3v3l-6 1-5 9 5 3 3 4 3-2q-3 19 6 28v30l4 5 2 1q2 12-3 17l-8 3-4 9-20 1-1-2-14-23-16-14-2-4-10-8-2-4-41-34-14-2-15-8-2-4-9-6-13-2 1-4 3-1 5-11 31-37 17-29 51-63 6-3zm239 0l5 3v2l-5-5zm-5 4l4 4 2 10h-1l-1-4-2 1-1 3-1-14zm13 14l5 8 1 1 3 8-3 4-6-15-1 4-2-3 2-1 1-6zm24 18l5 1v7l-16-2 11-6zm1193 84l6 1-1 84-155 83-17-12h-13q-16-16-42-21l-15-14-6 5-9-9 48-27h7l47-24h7l35-18h7l101-48zM73 207l3 2 2-1-3 2-2-3zm-3 3l2 4-6 5 5-6-1-3zm89 0l3 4v24l-3 2q-10-4-9-18l9-12zM30 228l1 7-1 3 2 3h-2v4l-2-4-2 1-7 12-1-2-12 9 1 3 6-2v2l2 1v3l4-2-1 2 1 2 3-1 1-3-4-2 5-3 3-8-2-1 9-5v3l-4 8 3 1-7 7-11 29-8 8-6 3-1-11 6-5-2-6-4-1 1-19 3-1q5-21 20-32l6-3zm138 6v7l-3 5h-3l6-12zm-123 6l-5 6-5-3 4 2 6-5zm120 30q6 3 3 16l-3 2-9-9 9-9zm9 12v15l-6-5 6-10zm3 30l7 12 2-1 2 7-2 1 7 11 1 1-1 2 3 3 2 1v14l-6-9-12-8 3-4h3l-6-12-12-8 9-10zm21 57v11l-6-5 6-6zm-9 9l4 6 1 1-1 2 5 6 4 2 1-2 1 1 1 2h5l4-6 8 1 3 10 11 2-8 6-6 11 4 1-14 6-1 3-1-4-6 1 4 9-1 2h-3l-3-12h-3l-12-15 6-9-12-15 9-9zm20 4l1 1h-1v-1zm-6 2l10 1-6 4-4-5zm-8 60l9 6 2-5 4 3 1 2 2 1-8 7-1-2-12-8 3-4z" fill="#1f0b24" stroke="#1f0b24" class="B"/><path d="M439 0l4 1-2 5h-3l1-6zm30 0l5 1-1 4h-4V0zm30 0l5 1-2 11h-4l1-12zm85 0l10 1 6 17h-2l-7-11-6-1-1-6zm41 0l5 1v4l-6-2 1-3zm216 0l41 1-2 5h-43l4-6zM545 6l13 7v7L545 6zm-15 1l3 1 1 4h-3l-2-3 1-2zm130 2v21l-4 1-5 11h-3l6-23-9-6q11 2 15-4zm-185 3l2 1 3 8-5 2V12zm558 0l16 12h-4l-13-9 1-3zm-538 6l3 1-5 8-1-6 3-3zm40 0l5 4v2l-4-1-1-5zm105 0l8 2-1 2-10 6-4 7-2 1-1-5 10-13zm-77 6l7 1v7l-7-8zm38 0l6 3 4 9h-4l-7-3 1-9zm249 0l32 2-1 4q-25 5-31-6zm104 0q14-4 18 3v3l-16-1-1-4-1-1zm97 0l16 12h-4l-13-9 1-3zm-516 1l3 5 8 3v3l-6 4v2l-6-2 1-15zm305 5l6 1-2 5h-10l2-4 4-2zm139 0l11 3-1 2-8 1-2-6zm-404 6l1 1v1l-1-2zm494 0l10 6h-4l-7-3 1-3zm-491 1l4 3v2h-3l-1-5zm101 0l7 17 5 3 3 8-4 3v3l-6-2 1-3 5-1-6-9-7-2 2-17zm-192 4l5 4-5 13h-7q8-4 7-17zm66 1l5 4v5l-5-9zm74 0l3 1-2 5-4-1 3-5zm228 0q12-3 15 3v3h-18l3-6zm226 0l11 1 6 17h-2l-7-12-3 1 3 5h-5q-6-2-3-12zm36 0l17 7 2 3 3 2h-8l-15-9 1-3zm-469 1v8l-8 3 6-7 2-4zm-29 3l5 8h-2l-3-8zm-175 1v4l-5 3-1-5 6-2zm79 0l3 3 2 4h-2l-3-7zm140 1l3 2 3 4-9 1v6l-3-1-7 6-1-1 2-4v-2l7-5 2-4 3-2zm-101 6l8 4v5l-5-8-1 2-2-3zm147 0l10 6h-7l-3-6zm206 0l9 3v3h-12l3-6zm238 0l10 6h-5l-6-3 1-3zm-432 6l4 4 1 2h-2l-3-6zm213 0h12l14 9 1-2 2 5h-12l-17-12zm183 0l11 9v3l-9-5-2-7zm48 0l17 7 2 3 3 2h-8l-15-9 1-3zm-665 6l4 2-1 4-4 3-1-7 2-2zm91 1l3 3v2h-6l3-5zm-137 5l8 1-2 4h-2l-1-4-1 2-2-3zm108 0l8 4v2h-6l-2-6zm81 0l6 3 6 9-1-1-12-8 1-3zm330 0l11 3v3l-12-3 1-3zm144 0l16 12h-4l-13-9 1-3zm18 0l11 9v3l-9-5-2-7zm54 0l16 10 1 2h-5l-13-9 1-3zm110 0l3 3v3h-6l3-6zm-608 1l8 11h-5q-6-2-3-11zm48 2l5 6 2 21 9 1-2 5-9 2v28l-2 1 5 5 6 6h-14l-1-14h2l3 1v-1l-5-6 1-55zm-292 3l3 1-1 3-4 2-1-3 3-3zm544 0l8 6h-6l-2-6zm257 0l5 4 1 2h-11v-1l3-4 2-1zm-701 6l5 1-3 4-14 7-1-2 13-10zm463 0l4 2-1 4-5-1 2-5zm125 0l10 6h-4l-7-3 1-3zm18 0l5 3v3l-4-1-1-5zm108 0l8 6h-3l-6-3 1-3zm-816 6l12 9 5 11-16-15-1-5zm702 0l16 12h-4l-13-9 1-3zm18 0l10 6 1 3v3l-9-5-2-7zm78 0l11 10 2 2 10 4v2q-16-1-21-11l-2-7zm36 0l8 6 3 6h-2l-8-5-1-7zm-614 1l1 1v13l-4-3-2 1 1-10 4-2zm-92 5l3 1-1 3-7 2 5-6zm40 0l4 3-2 3h-3l1-6zm552 6l8 6 3 6h-3l-8-5-1-3 1-4zm13 0l20 12q4 17 18 24h2l1-6 9 6 2 6-6 1 2 3 3 2h-4l-31-21q0-20-13-25l-3-2zm119 0l16 10 1 2h-5l-11-5-1-7zm-694 6l4 3 1 3h-7l-1-3 3-3zm640 0h6l23 15v3l-6-2-1-4-23-9 1-3zm-482 1l11 5h-16v-1l1-2 4-2zm-142 2l8 9-9-3 1-6zm-75 3h36l7 6h-35l-5-3-1 2-2-5zm42 0l8 1-2 5-4-1-2-5zm189 0l11 1v2l-7 2-5-2 1-3zm44 0l15 2-1 4q-13 4-17-2l3-4zm365 0l2 2 2 4h-5l-3-1 4-5zm89 0l5 4v2l-5-3v-3zm48 0l10 6h-5l-6-3 1-3zm-458 6l7 3v3l-6-2-1-4zm344 0l5 4v2l-5-3v-3zm126 0l14 6 3 6h-5l-2-4-11-5 1-3zm-248 1l7 11h-8l-3-7 2-3 2-1zm-598 5l2 1 2 5h-1l-3-6zm72 0l11 3v3q-10 2-12-3l1-3zm32 0l4 3 6 7 3 2 8 8 1 1 5 11-6-6-4-1-20-22 3-3zm694 0l5 3 2 3 14 6 8 9h1l5 9-1-1-16-8-4-8-15-9 1-4zm-750 6l5 4 2 2 7 1-4 5-8-5-2-7zm48 0l5 4v2l-5-3v-3zm66 0l8 6 3 6h-2l-5-6h-5l1-6zm204 0l6 1-3 5-4-2 1-4zm45 0q18-3 25 6h-20l-5-6zm137 0l3 3v3h-6l3-6zm322 0l10 6h-10l-3-1 3-5zm-346 6l12 1-14 5-1-3 3-3zm358 0l10 4 4 8h-2l-13-9 1-3zm-1182 6h30l9 5q9-10 33-5l5 4-6 4v10h-60l-6 4 1 2h-21l5-6q11 2 14-3l1-7-6-4 1-4zm362 0l3 2-2 4h-4l3-6zm40 0l10 6h-10v-6zm206 0l27 1-3 5-14 6-1-6h-12l3-6zm496 0l8 6h-5l-3-6zm-518 1l1 6-3 5-9-1 3-6 8-4zm-490 5q12-2 17 4l-1 2q-13 2-17-3l1-3zm318 0l6 3 10 15h-1l-8-5-3-5-4-1-1-3 1-4zm630 0l16 10 1 8h-2l-8-5-8-10 1-3zm-671 1l4 3v2h-3l-1-5zm395 0l15 11h-3l-13-9 1-2zm169 0l3 3-4 2-1-3 2-2zm179 2q21 8 32 27l3 6h-2l-8-5-7-9h-2l-5-8-12-5 1-6zm-1000 3l3 1-2 5h-4l3-6zm415 0l8 4v2l-8-6zm264 0l2 1-3 5-3-1 4-5zm411 0l10 6h-4l-7-3 1-3zm-600 3l5 4v2l-4 2-1-8zm-55 1v2l-12 21-8 3 6-7 11-17 3-2zm-612 2l6 1v2l-16 3v-1l10-5zm37 0l5 3-2 3h-4l1-6zm109 0l22 1v5q-17 2-22-6zm47 0l16 6h-10l-7-3 1-3zm209 0l9 6h-14v-1l3-4 2-1zm97 0l4 2v3l-2 1-2-6zm78 0l5 1-2 4h-2l-1-5zm270 0l14 12 3 6h-3l-10-8-4-10zm354 0l9 6 8 8 1 1 6 7 3 2 8 8 1 1 5 12-39-38-2-7zm84 0l10 6h-4l-7-3 1-3zm-738 1l4 3 1 2h-2l-3-5zm43 0l4 3-9 8-3-3 6-4 2-4zm-602 5v3l-6 9h-9l15-12zm22 0l2 1-6 17h-12l9-13 7-5zm166 0q14-2 20 6l2 4v2l-22-12zm35 0l5 4v2l-6-3 1-3zm228 0l5 1 2 3 10 6v2l-12-3-1-3-5-2 1-4zm696 0l5 4v2l-5-3v-3zm162 0l16 12h-4l-13-9 1-3zm-900 6l5 4v1l-5-2v-3zm84 0l4 3-2 3h-3l1-6zm648 0l8 6h-2l-7-3 1-3zm-587 1l4 3v2h-3l-1-5zm-342 5l16 1v5l-16-6zm29 0h9l11 6 24 24h-5l-11-12h-5l-1-6h-7l-16-9 1-3zm236 0l3 1-6 11h-3l-2-4 1-3 7-5zm850 0l4 4 1 2h-2l-3-6zM84 186v3l-5 3-1-2 6-4zm13 0l5 4-9 14h-3l4-12 2-1 1-5zm247 0l14 6 2 4v2l-16-12zm295 0h25l2 3v3h-30l3-6zm106 0l4 2-2 4-38 17-1-1 37-22zm177 0l8 4 8 12 10 6v2q-15 1-19-8l-10-14 3-2zm213 0l11 9v3l-9-5-2-7zm138 0q9-2 11 4l9 14 9 9 3 3 3 2h1l3 4 2 1 10 16 8 2v5l-15-6-5-12-10-8-1-4-17-14-1-4-11-3 1-9zm180 0l16 12h-4l-11-5-1-7zm-960 1l3 5 2 1v5l-6-2 1-9zm221 2v6l-8 3 8-9zm-608 3l2 1-2 5h-4l4-6zm489 0l5 1 3 5h-6l-2-6zm750 0l19 16 13 2 3 4v2l-6 1 3 11h-5l-10-16-4-1-7-9h-2l-4-10zm-804 1l9 5h-3l-7-3 1-2zm-179 5l14 1-4 2-1 3-5-1-1-3-3-2zm191 0l5 4v8h-3l-2-12zm918 0l16 12h-4l-13-9 1-3zm-660 1l5 3v2l-6-3 1-2zm-754 5l3 1-3 5 1 1-9 5v-1l8-11zm22 0l4 2-2 3-2 1v-6zm295 0l4 4v2l-6-3 2-3zm125 0l5 1 3 5-3 1v4l-3-4h-2l4-1-5-3 1-3zm-119 6l10 4v2l-10-6zm137 0l3 2 2 4-1-1-5-2 1-3zm48 0l20 12 3 6h-2l-20-12-2 19-3 5-2 1-1-22 7-9zm38 0l15 1-3 4-14 1-1-3 3-3zm163 0l8 4v2l-11-1 1-4 2-1zm723 0l10 6h-4l-7-3 1-3zM58 216l8 1-2 5-4-1-1-3h-2l1-2zm351 0l5 4v2l-6-3 1-3zm96 0l5 1v10l-5-11zm167 0v36l-3 6-13-5-2-4 1-3 5 1 4 5h2v-30l4-5 2-1zm7 0l5 4-1 2-4 2v-8zm98 0l3 1v3l-2-3-1-1zm5 0h7l13 9 1 3h-10l-11-5 1-2-1-5zm719 0l8 6 3 6h-2l-9-12zm-793 2v16l-5 10-4 2h-3l6-17-2-1-3 5-1-4 4-7h6l2-4zm-18 1v14h-1l-2-5-3-1 2-5 4-3zm-648 3v3l-5 7-4 2h-3l6-9 6-3zm15 0l3 2-8 10-4-1 3-5 3-1 3-5zm594 0l12 6-15 2 1 14 3 2h-3l-7-3q-3-12 3-15l3-2 3-4zm214 0q14-3 17 4v2q-13 2-18-3l1-3zm-60 2l1 4h-1v-4zm-408 4l11 6v-2l-2-4 8 4 2 8 3 3v2l-21-10-2-4 1-3zm24 0l5 4v2l-6-3 1-3zm102 0l5 3 2 3 1 1 3 5 1-4 1 4-2 1v3l-2-4-3-2-2 1-4-11zm72 0l22 12h-10l-11-5-1-7zm220 0q11-2 13 4v2l-13-6zm77 0l12 6v6l-8-5-4-7zm-382 1v8l-14 9 5-6 3-2 6-9zm175 0l5 11h-2l-3-11zm-642 1l3 4 2 2-2 4h-4l1-10zm1338 1l5 9h-2l-3-9zm-551 3l10 3-2 3-4-1-1-3-3-2zm510 2l4 2v2h-6l2-4zm-704 4v3l-8 3 2-3 6-3zm331 0l2 1 2 4h-2l-2-5zm570 0l10 6h-4l-7-3 1-3zm-1098 6l5 4 6 14h-2q-13-3-9-18zm492 0l10 2v3l-4 1-7-3 1-3zm462 0l4 4 1 2h-2l-3-6zm12 0l5 4v5l-5-9zm144 0l16 12h-4l-13-9 1-3zm-853 1v14l-1 2h-4l-1-11h2l2-1 2-4zm637 0l5 10 1-2 2 3h-6l-2-11zm-791 5l4 3h1l5 14h-1l-4-7h-2l-3-10zm569 0l4 4 1 2h-2l-3-6zm-484 6l3 3v6l-5 2-1-8 3-3zm778 0q15-2 20 7l5 11 11 9 6 7 11 5v9l-41-36-1 3 3 3h-6l-4-12-5-2 1-4zm162 0l10 4 1 2h-5l-7-3 1-3zm-191 1l16 9v2h-8l-15-6 7-5zm-552 5h20l2 3-2 3-22-1 2-5zm105 1v3l-4 2 2 1-3 2 1-6 4-2zm422 5l4 4 1 2h-2l-3-6zm234 0l10 4 1 2h-5l-7-3 1-3zm-655 3v12l-3-3h-2l5-9zm-491 3l5 1-3 5h-9l1-3 6-3zm114 0l5 4v8l-12 4v2l-6-2 4-10 8-3 1-3zm846 0l8 6 3 6h-8l1-2-4-10zm24 3l5 7-5 6 11 14h-2l-11-12h-10l5-3 1-3h5l1-9zm-851 3l4 2q-3 15 6 20v13h-1l-2-5h-3l-3-6h-3l2-24zm449 0l9 6h-3l-7-3 1-3zm138 0l14 6h-12l-2-6zm204 0l5 3 3 3 3 3v3l-12-9 1-3zm246 0l10 6h-5l-6-3 1-3zm-1114 2l9 8v8h-6l-1-6h-5l1-9 2-1zm538 4l8 6h-2l-7-3 1-3zm156 0l10 6h-4l-7-3 1-3zm432 0l10 4 1 2h-8l-3-6zm-1196 1l1 1v1l-9 3v-1l8-4zm509 5q18 3 26 16v2q-18-5-26-18zm124 0h7l15 10 3 8h-8l-7-3-7-13-3-2zm149 0l17 10v2l-16-5-2-4 1-3zm432 0l16 10 1 2h-5l-11-5-1-7zm-1226 1l-1 2-7 9 1 1-13 11h-8l-1-2 29-21zm718 5l3 3v6l-6-4 3-5zm250 0l8 6h-5l-3-6zm-888 3l16 19v1l-17-14 1-6zm-166 3l3 1-2 6-9 5v-1l8-11zm190 0l23 1-3 5-3 1v5q-6-8-21-6l4-6zm567 0q11-3 14 4v2l-6 1v5l-6-3-2-9zm142 0l14 6h-7l-7-6zm234 0q8-2 10 4v2h-6l-1-4-3-2zm203 0l10 6h-8l-2-6zm-753 6l2 1v11l-12-3 1-3 5-1 4-5zm83 0l4 1-1 3 12 6v2h-16l4-3-1-3-5-2 3-4zm113 0q11-2 16 4v2l-16-6zm25 0l3 2-1 2-4 2-1-3 3-3zm112 0l11 9 1 1 3 2h-3l-13-9 1-3zm204 0l8 6 3 6h-3l-8-12zm25 0q14-2 20 6l2 6h-3l-19-12zm203 0h6l20 12h-12l-15-9 1-3zm-701 1l4 2h1l6 7 3 2 3 4 3 2 8 12h-5l-2-4-12-2 1-2-12-7 1-3h5l-3-6h-3l2-5zm425 2l2 3-2 1 7 5h-1l-7-3 1-6zm-299 3l4 2 3 4h-11l2-3 2-3zm-574 6l14 1-5 15-4 2h-15l3-6h1l6-12zm29 0l3 1-2 6-9 5v-1l8-11zm22 0l11 9v11l-11-20zm383 0v15l-3-2-3-7 4-5 2-1zm58 0l21 1-1 3 12 6v2l-24-6-8-6zm116 0v6l-5 10-2-1-7 3 6-7 6-10 2-1zm127 0l11 9 1 1 3 2h-6l-9-12zm243 0q11-3 14 3v3q-12 1-14-6zm207 0h6l20 12h-11l-16-9 1-3zm-1335 1l1 1-2 4 1 1-8 4-1-1 2-3-2-1 9-5zm1035 3l7 8-8-3 1-5zm-343 2l39 1-8 5h-36l-1-2 6-4zm-777 6l3 1 2 5-13 6v-1l8-11zm67 0l7 1-10 5-1-2 4-4zm141 0l4 2v3l-10 1-1-2 7-4zm411 0l2 1-9 16-2 1-1-5 10-13zm573 0l8 6 3 6h-2l-8-5-1-7zm270 0l10 4 1 2h-9l-2-6zm-474 1l9 5h-3l-7-3 1-2zm-835 5v3l-8 3 2-3 6-3zm43 0l4 1-34 26-12 3-1-2 14-9 1-2 28-17zm21 0l2 1-5 8-1-2 4-7zm501 0l14 12h-3l-12-8 1-4zm9 0q16-2 20 10v8l-6-2-3-9-11-7zm587 0l9 3v3h-12l3-6zm-314 3l29 19v2l-30-15 1-6zm-943 3v3l-10 3v-1l10-5zm169 0l5 3-2 3-3 1-4-1 4-6zm14 0l3 1-1 4-2 1-3-3 3-3zm1231 0l2 1-8 11h-4l3-7 7-5zm-1434 6l8 1v2l-10 3-1-1 3-5zm162 0l11 1-7 5-4-6zm101 0l3 11h-1l-5-8 3-3zm89 0l4 3h1l5 12-1 2h-4l-5-17zm362 0h6l23 18h-12l-15-9-2-9zm465 0l5 1-2 5-4-2 1-4zm153 0h18l2 3v3q-17 2-20-6zm-699 3l4 3-4 1 5 3 3 14 3-1v16l-1 2h-4l-7-17 1-21zm-762 3l5 4v5l-5 2v-11zm42 0l2 1-14 11-1-2 3-5 10-5zm72 0l5 1-3 5h-3l1-6zm198 0l2 1q6 7 3 23l-1-1-4-2v-21zm555 0h6l14 10v8l-20-18zm636 0q11-3 14 3v3q-12 1-14-6zm-1456 6v3l-9 15h-6l9-15 6-3zm31 0q15-2 20 6h-17l-3-6zm318 0l5 4-1 2-3-1-1-5zm341 0v3l-5 3v-1l3-4 2-1zm697 0l11 1-2 5-10-2 1-4zm-1321 1v9q-3 5-6-1l1-4 2 1 3-5zm126 5l5 1-10 5-1-2 6-4zm448 0l2 1-5 8-1-2 4-7zm210 0l11 1-4 5-5-1-2-5zm19 0l19 16v2l-18-6-3-5 3-1-1-6zm554 0h18l22 12h-20l-21-9 1-3zm-1455 6l2 1-3 5h-2l3-6zm1119 0l9 5 2-4 4-1 3 4 3 2h-15l-7-3 1-3zm252 0l5 1-2 5-4-2 1-4zm24 0l5 4v2l-5-3v-3zm-679 3l3 21 6 1-8 5-2-6h-5q-2-16 6-21zm-521 3l8 1-14 5-1-2 7-4zm193 0l8 6 2 4v3l-7-3-3-10zm80 0l9 9 11 27h-2l-5-2-10-25-2 1-4-8 3-2zm676 0l14 6h-7l-7-6zm258 0l10 4 6 14h-3l-10-16-3-2zm107 0l11 1-2 5-10-2 1-4zm-1025 1l4 2h1l5 12-1 2-5-2-6-12 2-2zm-451 5q20-4 29 4v5l-6-3-12 7 9 11h-5l-5-6-5 2 1 4h-11v-1l4-2v-9l-11 6-1-2 7-13 6-3zm150 0l4 1-16 11-1-2 13-10zm120 0l5 3v12q-8-4-5-15zm619 0l14 6 2 6h-3l-13-12zm245 0l15 6 5 6h-2l-19-9 1-3zm255 0l20 10v2l-18-6-2-6zm117 0h6l20 12h-12l-15-9 1-3zm-654 3l5 9h-5v-9zm-231 3l2 1-9 16-20 13-1-3 3-4 19-17 2-4 4-2zm322 0l2 2 2 4h-2l-2-6zm-910 6l12 6 2 4v2l-14-12zm93 0l10 1-4 2-1-2-3 4-9 5v2l-5-1 2-4v-2l10-5zm243 0l2 1v6l-4-1-2 1 4-7zm336 0l2 2v21l-6-17 4-6zm207 0l9 6 2 6h-3l-8-12zm42 0l5 3v3l-6-2 1-4zm7 0l31 1q-5 8-21 5l-10-6zm450 0q14-2 16 9v3l-9 6-3-5 5-3-2-4h-3l-1-4-3-2zm-843 1v3l-5 4 1 4h-3l-3-1 6-8 4-2zm16 0l2 1-2 4-3 2 1 4h-3l-3-1 8-10zm604 0l5 3v2l-6-3 1-2zm-1042 5l3 1 3 5h-3l-6-3 3-3zm850 0q12-2 17 4v2q-13 3-17-3v-3zm558 0l10 6h-5l-6-3 1-3zm-1091 1l3 1 1 9h-1l-2-5-2 1-1-3 2-3zm263 2l5 5-2 4-3 1v-10zm-677 3l14 6 2 4-1 2-15-12zm77 0l5 4-3 2-2-6zm248 0l9 4v1l-9-5zm285 0v3l-5 3v-1l3-4 2-1zm278 0l10 4v2l-10-6zm98 0h17l12 7 2 7-2 4h-8l4-2-6-8q-14-1-19-8zm531 0l8 6h-2l-7-3 1-3zm-425 1l7 6 2 4-1-1-3-1-2 1-3-9zm59 1l11 21h-1l-8-5-2-16zm-732 4l11 4v8l-12-9 1-3zm981 0l14 10 3 8h-6l-6-12h-3l-2-6zm-1345 1l2 1-2 4h-6l3-2 1 1 2-4zm286 2l8 4 3 11-1-1-4-2-1 2-5-14zm-319 1l2 8 13-6-11 12-10-8 2-4 4-2zm655 1l2 2 2 5h-1l-3-7zm-705 1l2 1-2 6-18 11-3-1 1-4 13-6v-2l7-5zm687 0l5 4 2 2 4 4v2l-9-5-2-7zm282 0l5 1 2 3 3 2h-8l-2-6zm600 0l10 6h-5l-6-3 1-3zm-937 3v3l-3 6h-3l6-9zm-623 3l4 4 1 3-5 8v-15zm105 0l2 1-3 4-2 1-1-2 4-4zm351 0l5 2-1 4-5-2 1-4zm89 0l3 1-3 5 12 1-2 5q-12 2-16-3l2-7 4-2zm26 0l8 5 8-5 2 6h-22l2-3 2-3zm413 0l11 1-2 5-10-2 1-4zm150 0l1 1-8 14-5 2-1-7 13-10zm303 0l23 12 3 6h-3l-23-18zm135 0l8 6h-2l-7-3 1-3zm-1192 1l2 1-2 4h-3l3-5zm91 5l9 1-1 2 11 9h-4l-11-5-4-7zm42 0l13 1-2 5-11-6zm15 0l1 1-1 3v-4zm74 0l3 1-8 12-8 6-1 3-1-3 6-11 4-2 2-4 3-2zm89 0l13 1-4 5-9-6zm329 0q17-3 22 6l1 3-1 2-23-7 1-4zm126 0h9l14 10v2l-24-9 1-3zm-774 1l3 4 1 1h-4v-5zm19 0l8 5-1 2 2 3-1-1-9-6 1-3zm791 0l3 5 2 2-1 2-4 2v-11zm-679 5l6 1-2 5h-13l3-5 1 2 5-3zm-130 1l3 3 1 2h-2l-2-5zm244 2v3l-9 12 1 1-8 6-2 5h-6l1-16 3 4q14-3 20-15zm-616 3l2 2 2 4h-2l-2-6zm215 0l5 1v23h-6l1-24zm18 0l4 4 1 20h-5v-24zm183 0l3 1-1 5h-3l-2-4 3-2zm185 0l3 3-5 3-1-3 3-3zm492 0l9 4v2l-12 2-5 8-5 3-2 5h-12l1-12 5 4 1 2 20-18zm-710 6l5 3h1l7 9 4 1v5l-7-1-10-17zm20 0l3 3-1 3-3 2-1 3-1-8 3-3zm22 0l4 3v2l-2 1-2-6zm63 0l44 1-2 5-45-1 3-5zm1113 0l14 6 3 6h-2l-16-9 1-3zm-1669 1v11l-1-1-4-2 5-8zm-71 5l5 4v2l-5-3v-3zm591 0l8 1 5 11h-4l-3-5-9-2 1-4 2-1zm129 0l2 1-3 2 1-3zm522 0l10 3v2l-10 4-1 3h-6l3-6 3-1 1-5zm57 0l2 1-3 4-2 1-1-2 4-4zm-581 1v2l-4 3-1-2 5-3zm-508 5l4 4 1 2h-5v-6zm554 0l3 1v5h-6l3-6z" fill="#110b2c" stroke="#110b2c" class="B"/><path d="M445 0l23 1v8l-5-3h-2l-5 2v15l-10-6-1-17zm30 0l11 1-6 15q-8-5-5-16zm18 0l5 1-5 10V0zm20 6l3 3q-3 11 3 15l-3 1-4-1h-2-2l5-18zm-50 7l9 11 2-1v3l1 4-1 5 3 1 15-9v3l-3 6-9 4 2 2 2 2-4 19-4-2-1 2 5 14h-1l-5-15 5-2-9-7q-12-13-7-40zm-23 17l2 2 2 4h-2l-2-6zm77 5l4 1h1l-1 6-5-2 1-5zm12 10l5 3-2 6-4-2 1-7zm34 3l18 6h1l3 6-3 1 1 5 5-2-2 3-10 5v-1l-1-5 1-8-13-10zm-71 2v5l-8 11 2-3 6-13zm-46 4l4 2v4l-6-2 2-4zm92 0l2 13-6 11h4l2-1-6 13 2 1-8 10q5 8 19 8l-1 4 1 1h-8l1-4-5-2-1 5 1 1-13-2-1-22q-12 2-16-3l-2-26 2-1 13 10 11 2 5-3v-3l-4-1-2-6h2l8-5zm64 0l-1 2q9 6 11 21h-1l-13-16 2-1 2-6zm6 0l4 2-1 4-5-1 2-5zm54 0l-1 2q7 6 5 22h-2l-4-12h-3l5-12zm6 0l11 1-2 5-5-1-1-3-3-2zm-170 9v4l-5 10-1-5 6-9zm68 3l5 1-1 4 1 1-7-1 2-5zm-14 6l5 2-5 7-8 3 8-9v-3zm114 12l12 9v3l-10-6h-3l1-4v-2zm-77 12l2 1-3 5h6v-4-2l4 2 2 5-5 7-1-2-6 1 1 5h-21l2-3v-3h-5l24-12zm39 0l11 18h-8l-7-3 1-9h5l-2-6zm16 0l4 2-1 4-5-1 2-5zm27 6l7 2 4 10 14 9 3 9-3 1-1 5-4-3-2 1-18-34zm-64 15l11 6q-3 11 3 15l-3 1 3 12 15 16-5 1-2-6-10-9-2 1-6-16-14-6-2-5 11-2-1-4 2-4zm24 13l12 13 10-4 1 8-9 3-8-6-1 2-11-7 5-1 1-8zm72 19l4 1h1v7l-1-2-5-2 1-4zm-113 2l28 21v2l-27-18-1-5zm70 9l1 2 1 1-3 5-5-1 2-5 4-2zm8 8l4 3 2 3 4-1-1 2-2 4-7-4-2-4 2-3zm-5 7l3 2h1l4 6-3 1-7-7 2-2zm-403 1l4 2 2 2 4-1v31h-4l-3-24-16-5 13-5zm-161 4l4 1-1 4 1 1-7-2 3-4zm123 0l23 1q-10 9-33 5v-1l10-5zm-59 3l9 8q8-9 31-5v1l-28 11h-9q-7-3-3-15zm-61 17l1 10 18-6 8 6-27 8-1 10-5-1q-3-19 6-27zm-41 10l-1 2 1 4-7 2-2 10-10 1v6l-4-1-2 1 19-22 6-3zm217 0l10 4v2l-12-1 2-5zm-151 6l5 4-1 26-5-1 1-29zm169 0l10 3-1 9-9-7v-5zm41 0h12q5 8 21 6l7 6 1 2h1l7 8 14 10 4 10 10 3 9 15 3 1 1 5 4 1-40 23 4 1-7 5v1l-39 29v-1l19-21 10-5v-3l-10-7-37-56-1 2q-8-6-6-22l7-10 6-3zm53 90l-2 1-3 4v1l5-3v-3zm-92-66l1 1-4 9-4 2h-3l10-12zm-126 6l2 1 2 11 82 2-1 16h-17l-23 12h-13l-22 12-2-11 6-10q-17-7-18-29l4-4zm-80 12l4 2-1 10-5-1 2-11zm36 0l4 2-1 16-5-1 2-17zm160 0v3l-9 15h-3q-1-13 8-16l4-2zm50 18l4 2v29l-7 9-10 2-1-2 11-6 3-34zm-66 6l4 2-1 4h-5l2-6zm-18 30l4 1-5 16-1-2-5 3-1-2 8-16zm-114 6l4 2-1 4-5-1 2-5zm176 6l2 1-1 11-16 6-1-2 16-16zm24 18l2 1-3 5 1 1-9 4-1-1 10-10zm-47 1l1 1-1 4h-5l1-3 4-2zm-53 11v3l-5 3-1-2 6-4zm7 0l5 2-2 4h-4l1-6zm67 0l4 2-1 4-5-1 2-5zm-12 6l4 1-2 5-4-1 2-5z" fill="#d9773a" stroke="#d9773a" class="B"/><path d="M487 0l5 1v26l-3 3-13 6-2-5 6-2q-4-22 7-29zm30 0l11 1 1 6-1 10-6-11-4-1-1-5zm126 0l5 1 2 5-2 1v1l-4-1 3-1-5-3 1-3zM463 6l5 3h1l5 14-2 1q-10-5-9-18zm54 4l9 13 2 1 1-5 5 12-1-1-5 1 2 5 4-1v12h-2l-4-2-1-3-4 1-1-2V29q-9-5-5-19zm-5 14l4 2v5l-4-1-2 1 2-7zm68 0l2 1v5l-6 2 2 4h-1l-7-3 1-5 3 1 2-4 1 2 3-3zm-27 4l17 14 1-2 3 2-3 1 11 9-1 2q-18-1-26-12l-5-11 2-1 1-2zm-48 13l4 1h2l3 2 14 19 1-2 3 5 2 1-1 3-11 2q-7-10-22-12-11 9-9 29l-8-5-9-26h2l3 2-4 1 5 3 2 2 7-5 7-13h2l4-6 3-1zm113 0l2 2v2l-2 1v7l-3-5-2 1v-1l3-6 2-1zm-23 1l5 1-3 5h-3l1-6zm65 4v2l-3 6h-9l12-8zm-47 6l17 14 1-2 21 20-4 1v12l-4-1-2 5 5 1h1q2 10-3 12l-9-3-8-14 2-1 10-12h2l-8-12-4 1-9 11-3 1v1l-6-12h1l3 4h2l-5-9-1 2-11-15 5-2 2 6 4-1 1-7zm50 2l9 4 1 2h-1l-9-6zm16 1l8 6 2 4-1-1-11-4 2-5zm-96 5l5 3-2 3h-4l1-6zm-11 6l4 1-1 5-5-1 2-5zm86 0l2 1 4 11h2l1-8 21 34 5 16-4-4-9-3-3-11h-8l-3-10 3-2 9 6v-3q-5-8-16-9l-5 12h-3l6-11v-2l-1-5h-2l-2-7 3-5zm-111 6l5 2-9 10 1 1-9 5v-1l6-14 6-3zm136 0l4 1 3 10h-1l-6-11zm-91 24l2 2v4h-6l4-6zm-57 12l5 2-1 4-5-1 1-5zm13 0l22 1-3 5-21-1 2-5zm41 0l5 1-2 5-4-1 1-5zm14 6l3 3v3l-6-2 3-4zm14 6l10 7 3 11h-8l-4-3-1-15zm86 12l5 4-1 14-5-1 1-17zm-66 12l7 6h-1l-7-3 1-3zm-368 6l11 6h-4l-7-6zm-77 2v2h-1l1-2zm511 1l4 3 1 4-3 2-2-9zm-40 3l3 3-2 3h-4l3-6zm-443 6q18-3 25 6l-5 1 1 5 29-1v6l-4 1-3-4-8 4h-33l-11 6h-31l-9 5-9-10 7-10 7-3-2 3 1 3h17l-2-5q22 3 30-7zm81 2v2h-1l1-2zm370 4l7 3-1 3-5-1-1-5zM87 186l3 3-2 3h-4l3-6zm33 4l1 2q9-2 11 4 3 11-2 14l-10-6-17 6-1-2 3-4h-2l8-5v-2l9-7zm-58 20l4 3-2 3-4-1 2-5zm329 0l5 3-2 3-4-2 1-4zm-12 18l7 1-2 1v6l-5-8zm-341 6l4 2-2 4-4-2 2-4zm357 0l11 6h-4l-7-6zm7 64v5q-2 5-10 3v-1l10-7zm-12 8v3l-5 3v-1l3-4 2-1z" fill="#ecbf3b" stroke="#ecbf3b" class="B"/><path d="M505 0l12 2 3 4 2 1 6 17-1-1-4-2-8-15-4 1-3-1-4 3 1-9zm60 0l12 2 11 12 1 1 7 9-2 1 4 10 2 1 1-2 3 2-3 1 5 3-1 2-11 10 1 2h-3l-6-11 2-1-9-11 3-1v-6l-5 3-3-3 2-4-3-2h-5l2-5-3-1h-5l1-3-1-2 2-1 1-6zm30 42l-1 6h3l3-5-5-1zM535 6l9 6 8 8 1 1 7 9-2 1 4 5h2l1-2 5 8-1-1-30-25-4-10zm114 0l5 3-1 2-2 1-2-6zM505 17l4 1h1l-5 10-5 4-2 10 3 1-3 5-4 2-1 3-1-10 13-26zm7 13l4 2v7l-6-4 2-5zm17 0l5 2-1 4-5-1 1-5zm43 12q8-2 10 4v5l-10-9zm-55 3l6 6 5 12-9-8-4-8 2-2zm102 5l11 16-1-1-17-13 4 2 2-1 1-3zm26 4l3 1v2l-4 2-2-2 3-3zm17 1l16 6 2 11-2 1 12 13 1 1q9 10 5 33h-2q-6-2-4-12-21-22-28-53zm-49 14l5 9h-2l-3-9zm18 3l11 9-3-3-3 1h-2l-14 10-2-4 12-10 1-3zm5 8l1 4 2 1-9 11-5-1 11-15zm13 4l11 1-5 10-2-6-5-2 1-3zm11 9v3l-5 10-1-4 6-9zm-482 57l13 2v3q-15-1-20 7l-3-2 10-10zm88 0l9 6 4 6-13-5-2-5 2-2zm-7 2v2h-1l1-2zm45 10l3 1-1 4 1 1-6-1 1-4 2-1zm-127 6q12-3 15 3v3h-18l3-6zm64 0h21l2 3 1 3h-24v-6zm78 0l8 6h-2l-7-3 1-3zm-194 1l-1 6-8 4 5-8 4-2zm230 15l3 2-3 1 8 5h-2l-11-5 4-1 1-2zm-228 2l4 2 1 7-3-3h-9l1-3 6-3zm-18 12l2 1-8 5 2 1-3 2 1-6 6-3zm272 0l1 1h-1v-1zm4 33l2 3-2 1 8 5-3-1-6-2 1-6zm24 15l11 7 12 18-5 8-1-3-9-6-4-11v-2l-4-11zm15 0l10 6-2 1-4-1-2 1-2-7zm-21 3l8 9-9-2-1-5 2-2z" fill="#f4df3a" stroke="#f4df3a" class="B"/><path opacity=".996" d="M529 0l5 1 2 5-2 1-6-1 1-6zm72 0l17 1 2 5 10 6 1-2 3 2v2l1 3-10 3-4-8-3 1 1 11 1 1-2 10 5 1 7-14 1 2 1 1-1 3-5 4-2 4 2 1-7 5-3-5 2-1-5-8h-2l-6-11 5 1h2L601 0zm30 0l5 1-2 5-4-2 1-4zm-90 16l11 14h-2l-9-14zm113 27l1 5 1 1-6 4-1-1 5-9zm-6 9l1 2 3 1-3 1-1-2h-2l2-2z" fill="#f1e57f" stroke="#f1e57f" class="B"/><path d="M536 0l5 2 7 10h-1l-10-6-1-6zm83 0l5 1 1 3 3 2h-7l-2-6zm30 0l5 1v6l-4-2-1-5zM444 2q-2 16 8 20l4 1 2-17 4 2v17l-4-1-2 37 4 5 2 2-2 4-4-2v-2l-4-1 3-1-6-12-4 1-3-18 2-1-12-17 12-17zm25 3l4 1h1l4 7-1-1-3 1v4l-5-12zm170 1l9 4 1 2-7 1-6-3 3-4zm-104 4l5 10-4-3-1-4-1 4-3-4 3-1 1-2zm54 0l5 10-3-2-2-8zm-36 6l11 16-9-8-2-8zm54 4l5 14h-1l-4-14zm-128 2l1 1-2 7-4-1 3-6 2-1zm29 2l2 1v12l-4-1-2 1 4-13zm9 0l3 2 2 5-1-1-5-3 1-3zm156 8l5 15h-1l-4-15zm-102 1l4 3-2 1 4 2 1 3h-2l-8-5 2-1 1-3zm-85 3l2 1-2 10-3-5-3-1 2-3 4-2zm-23 1l11 20v8h-1l-11-22 1-6zm149 3l1 2 2 1-2 4-1-4-5 8-1-3h-2l8-8zm50 2l12 6h-1l-11-6zm-79 4l4 2h1l2 6-2 1 3 4q15 0 18 13h-3q-5-7-18-6l-2 1 2-5-4-3-1-13zm-13 7l6 5v3l-4-2-1-4h-3l2-2zm70 1l3 1-1 4h4l2-1v5l-4 1-6-7 2-3zm39 7l6 9 3 2h-6l-3-11zm-114 5l-1 2 1 4h-4l-2-3 6-3zm-67 1v12l-5 10-1-11 6-11zm-28 5l4 3-2 3h-4l2-6zm9 5l1 1 6 9 5 3-5 1v1l-12-11 3-3 2-1zm184 7l3 2-2 5-3 1-1-5 3-3zm-206 4q15 0 21 10l2 19q-3 6-6 1v-2l-12-4-8-21 2-1 1-2zm6 14l9 12h2l-2-4-9-8zm49-12l10 2v6l-10-8zm81 1l1 1 2 4-8 1 1-4 4-2zm103 3l4 4 2 9h-1l-5-13zm-71 1l5 5v2l-6-3 1-4zm35 3v5l-5 7-1-1 6-11zm9 3l10 15-1 2-9-17zm-137 1l10 6h-2l-8-6zm38 0l5 1-12 5 3-4 4-2zm52 0l2 2v6l-5-3 3-5zm-22 1v6l-3 4-2 1 4 1-4 2-2-3 7-11zm103 9l5 13h-1l-4-13zm-97 2l8 6h-2l-6-3v-3zm-10 6l4 2 1 4-6 1-1-2 2-5zm79 0l3 2v4l-6-2 3-4zm-128 1l20 18 2 5h-1l-22-18 1-5zm-54 5l5 3-2 3-4-2 1-4zm138 3l9 5 2 3 1 1-1 3-13-10 2-2zm120 2l4 1h1l-1 6-4 1-1-2 1-6zm-210 1l5 2-1 4-5-2 1-4zm156 0l3 2 2 18-10-9-1-4h-3l2-1 1-3 4 3 2-6zm-78 6q15 2 23 12h7l5-3 1-5 5 9-6 11v2l2 4 4-1 7 2-1 2q6 3 0 6l-3-2-2 3 8 7-60 1q-7-4 3-8l-8-9h4l10 5h2l4-1 1-5 5-1 5 1 1-2q-17-8-17-28zm-60 6l4 4 1 2h-2l-3-6zm32 6l9 3 1 7-8-8-2-2zm28 3l8 9-10-7 2-2zm-356 3l11 6h-3l-8-6zm308 0l11 3h1l3 8-4 3 1 4-1 2-6-4 6-8-7-2-8 6-3-5 6-2 1-5zm-366 6l4 1-12 5 2-3 6-3zm43 0l12 6h-2l-10-6zm-127 6l4 1-11 8 1 3h-4q-7-4 4-9l6-3zm617 4v3l-8 11h-8l8-6 2-4 6-4zm-415 2l12 6h-4l-8-6zm265 0l6 3-2 3h-5l1-4v-2zm-342 6l18 8 2 22 5-1 6 2-1 4 12 1h2l4-1 10 13 2-1-1 2-5 12-2-1-10 12h3l4-1-12 21-1-2 6-11h-1l-9 7-2 10 2 1-2 6-4-1-2 6h5 1l-17 28-1-4-6 2-6 16h3l3-2 1 2-1 25-5-1h-2l-4 1h-2l-9 6-1 3-8 6-10 6-1 5-3 1-6-4-2-4 11-3-1-11-10-1 11-14-16-18 4-6-18-21h2l22-12h13q13-14 41-13l-1-17-83-1v-11l-5 3-1-2 12-17v-9l-18-25 4 2h9l29-12h31l11-6zM84 190l1 2 5-1v4l-9 3-3-3 6-5zm275 2l12 5v-2l-1-2 6-1 2 4-11 2-8-6zm186 5l7 5 1 4-1 1-9-8 2-2zm436 1l-3 4 1 2 6 1-2 3-8 2-3-4 9-8zm-849 11v10l-3-3-3 1 2 29 4-1v14l-1-1-5 2 2 16 4-1 12 44-1-1-5 2 2 4 4-1v14l18 42v10h-2l-9-8-2 1-11-14-6-2-6 4 2 2 2 2 2 10h-4l-5-11-7-1-2 12-4-1-8-16v-19l-12-29v-49h2l4-1-1-11-4 1-1-19 7-13 4 1 3-12h11q4-7 17-7zm218 7l15 6h-5l-10-6zm216 1l18 11-14 1-5 14-1-24 2-2zm383 3l5 12h-1l-4-12zm-416 8l7 1v7l-7-8zm125 0l8 3-1 3-6-1-1-5zm20 1v13l-2-2-4-1 2-5 2-1 2-4zm-347 20l45 63 2 1-1 3q-18 6-27 22l-2 4 4 1-11 6 1-4v-3l-12 10 1 2-5 1-1 3h-2l-4 2 4 1-4 2-2-3 1-4-4-2-2 5 1 1-6 2-1-2-6 2 1 4h-7l-17-6 11-14 1 2 5-1 1-5 5-2 1 2 17-7v-11h-4l10-8 1 2q12 1 15-7l2-33-4-2-2 1q2-19-7-25l2-3zm604 2l6 1h1v6l-9-5 2-2zm-26 7l3 1 4 5 2 1-2 5 1 1-4 2-2-9-4 1-6-1 8-6zm21 0l5 4 1 3-1-1-5-2v-4zm-30 7l1 5 2 1-2 4-1-4-5 7-1-2 6-11zm-451 3l2 8-6 2-1-2h-4l8-6 1-2zm487 1v2l-3 5-2 1-1-1 4-6 2-1zm-390 4v3l-5 10-1-4h-3l3-5 1 4 2-4-2-1 5-3zm385 8l3 3 2 6-4-3-1-6zm-33 1l1 3h-1v-3zm-718 4v3 9l-2-4-3-1 5-7zm717 2l-2 3 2 3-3-2 3-4zm-333 4l2 2-1-1-1-1zm-154 1l2 2-9 7-1-4 8-5zm85 1l3 3-2 3-4-2 3-4zm466 3l2 3-2 1 5 3 2 2 4-3 1 3 1 1-8 5v-1l-1-5-3-1-1-4-1 4-3-4 3-1 1-3zm118 2l11 7h-3l-11-5 3-2zm56 3l5 10 1 1-4-1-2-10zm-739 4l2 1-9 6-1-1 8-6zm512 0l3 2-2 4h-3l2-6zm71 3l4 3-2 1 3 4 1-4 2 5-3 1v1l-5-11zm-468 6l5 5-1 2-6 2v-1h1l1-8zm497 2l11 7h-4l-11-5 4-2zm-107 5l11 5-1 3-4 2-1-2-12-2 1-4h5l1-2zm191 0l1 3-1 4 1 1-7-1 2-5 4-2zm-549 2l3 3-6 20 3 1 9-11-2-1 13-6v1l-5 3 1 2q16-2 23 6l1-2 5 5 1-2 2 5-3 1v2l-5-3-13 31 8 9 5 2 9-6 8 6v-2l-6-10h2l4-1 2 7-2 1 6 14-3-3-3 1 9 10 3-2v3l2 6h4l1-2 3 2-4 1 10 5-16 1-5 15 23 14h18v-2l-9-11 10 10 5 9-14 6-5-6-5 2-3 4 2 1-9 6-2 5h-12l-1-6-5 2v4h-30v-17q7-6 6-19l-5-9-13-6-1-3-17 12-10-7-6-15 4-3-1-5-3-1-2-22 6-3-6-12 6-4-1-5 7-2h2l4-2-1-3-4 1-3-1 11-24zm421 0l3 4 13 8h-2l-16-6-2 1 4-7zm104 0l2 1-9 6 1-4 6-3zm36 0l6 3-2 3h-5l1-4v-2zm-630 4v5l-9 3v-1l9-7zm539 1l11 7h-10v-1l-1-6zm38 4l2 2h-1l-1-2zm-15 3l13 6h-5l-8-6zm-75 1l5 16h-1l-4-16zm58 0l1 1h-1v-1zm-568 5l4 1-20 11v-1l16-11zm26 0l7 1-9 7-1-5 3-3zm552 0h7l11 12h-2l-16-12zm73 0l11 5h1l-4 1-8-6zm28 0l4 3v3l-6-1 2-5zm-626 3l1 2-7 4 6-6zm-12 1l1 2 2 1-3 4 2 1h-5q-7-4 3-8zm464 8l4 2v5l-4-1-2 1 2-7zm63 0l11 6-4 1v2l-2-3h1l-6-6zm34 0l12 6h-2l-10-6zm88 0l5 4v2l-6-1 1-5zm-174 1q6 5 5 19l-3-2-2-17zm-73 2l-1 4-4 7-1-2 6-9zm183 3l24 12h-3l-21-12zm-195 15v3l-2 6-5 1-2-1 9-9zm73 6l4 3-2 1 3 2 1-2 5 8-3-3-8 3v-12zm-720 3l1 1-7 10-1-7 7-4zm942 0l10 6-2 1 5 5-2 1v2l-11-15zm-86 5l7 4v8l-7-12zm-958 1l3 2 8 21-4 1-7-24zm1010 0l12 6-3-1-9-5zm-288 6l3 1 1 5 1 1-8 7v-2h-6l9-12zm310 0q21 3 32 18h-3l-28-11-1-7zm-398 4l1 1 1 1 2 1-20 11-1-3 3-4 14-7zm49 2l9 1-2 4-1-2-5 6-1-9zm163 3l21 14 13-5 1 7-6 12 6 9-6 8 10 5 12-11 9 6 22-8 13-10 1 6 1 1-17 11-10 16-7 2q-4-7-16-6l-5 3-1-3-6 2 1 4h-7l-6-3-2-8 8-4v-3l-11-6-1 8-5-7h-3l2-1-1-6-4 1-1-2-1-5-3-1-1-26zm-574 3l3 3-2 3-4-2 3-4zm557 0l4 1-2 11-4-1 2-11zm-247 3l8 9-1 1-5-1-2-9zm90 2l5 5 2 2 4-1 4-5 2 2q-1 11-8 16l-9 3-1-3-12 2 1 4-18 3-1-3-6 1 1 5-1-1-13-5 1-4-5-2-1 5 1 1-11-5 4-1 4-11 33-1q7-8 24-7zm29 0v2l-3 5h-3l-3-5 9-2zm-489 1l15 6v-2l-2-4q6 7 21 6l5-3 1-3 10 2-11 13q-8 6-24 3l-11 5-1-7 5-9-6-1-13 6 11-12zm956 0l11 7-1-1-10-6zm-191 5l-1 2-1 3-9 5-4 8-3 1-6-3-1-2 25-14zm-200 1l1 1-4 10-1-2-5 8h2l3-2v21l-6 18h-23l5-8 1 2 8-5 3-15 6-9 1 2 4-2-5-2q-2-15 10-17zm-195 4l7 8-2 1 2 5h4l-3-5 5 3 11 3-1 2 6 9-4 2-2 4 2 1-14 7 1 4-1 6h-47l5-10 1 4 5-3-3-8h-2l4-1-4-3-2-3 7-11 1 5 4-2 1-2 1 3 5-11-3-5 10-2 5 1 1-2zm-21 20l-4 6v2l2 9 15 1 1-10-15-2 3-5-2-1zm618-13l-4 5 1 2h-4l-3-3 10-4zm104 1l11 6-5 1-4-1h-2-2l2-4v-2zm-547 4l1 1 1 1 2 1-2 4-1-4-18 23h3l9-9 1 2-4 7-13 7-2 5h-96l1-6 23-1-1-4 44-1 17-9 1-4 10 1 1-5-5-1 5-3 2-3 4 3 1 1 3 1 2-1-1 2-5 1 2 5 10-9-1-2 6-3zm-541 2l2 1 2 5 4 4-2 2-8-7 2-5zm782 0v3l-11 9-1-2 12-10zm217 0l16 6-16 6-2-5 2-7zm71 4v7l-4 1-2-5 6-3zm-584 2l8 4v2l-8-6zm538 0l13 6h-3l-10-6zm-592 6l8 3-2 3-3 2-3-8zm304 6l10 10-1 2-11-9 2-3zm307 0l3 3v5l-1-2h-7l5-6zm-698 5l4 1h1l-2 6-4-2-2-3 3-2zm-111 1l2 1v11h-12l3-5v-2l7-5zm307 1l1 11h-17l-1-2 17-9zm-364 4l4 1h1v6h-6l1-7zm-253 1l1 1-1 5h-6l4-5 2-1zm93 0l3 3v3h-6l3-6zm683 0l4 2v4h-6l2-6z" fill="#b8344c" stroke="#b8344c" class="B"/><path d="M541 0l5 1 2 6-1-1-5-1-1-5zm96 0l5 1 2 3 3 2-3 1-9-1 2-6zm-82 5l3 5-3 2-3-4 4 3 1-2-2-4zm46 2l5 15h-1l-4-15zm34 4l7 4-6 5-3-7 2-2zm-67 1l2 1-3 5 2 1-5 3 3 1-5 1-4-7 2-1 1 2 3-5 1 2 3-3zm95 6l3 3-2 3-4-2 3-4zm7 12l2 8-2-2-4 2 2 4-7 1-4-1-3 2 1-5 15-9zm-15 41v2h-1l1-2zm42 26l11 29v9l-3-3-3 1v4l-8-16 2-1 1-23zm-522 53l1 1-8 10 1 1-6-1 6-8 6-3zm5 6l5 1-12 5 3-4 4-2zm108 0l6 3-2 3h-5l1-4v-2zm-152 6q7 5-4 9l-7 4-1-1 2-4v-2l10-6zm74 0l9 1q-5 7-19 5v-1l10-5zm28 0q14-2 19 6h-11l-8-6zm74 0l10 6-4 1v1l-7-2 1-4v-2zm14 6q11 1 16 10l-6 2v-1l-5-8-5-3zm-222 12l4 3-2 3-4-1 2-5zm241 0l4 1-1 3 2 3-1-1-7-2 3-4zm40 22l7 8-2 1v1l-12-4 1-5 5 1 1-2zm19 15l19 18 9 14-3-3h-10l1-3-1-3h1l-1-6-4 1-1-5-12-4 2-9zm-33 5l11 6-4 1v1l-1-3-6-5zm16 6l11 6-3-1-8-5z" fill="#baa03d" stroke="#baa03d" class="B"/><path d="M547 0l5 1 5 9-2 1-7-4-2-4 1-3zm13 0l4 1v5h-3l-1-6zm17 0l5 1 6 13-10-9-1-5zm-69 6l2 1-1 11-5-1q-2-9 4-11zm37 6l7 4v4l-7-8zm17 0l1 1-2 4-1-2 2-3zm7 7l1 1v1l-4 1 1-2 2-1zm5 5l1 1-2 4-1-2 2-3zm21 1l5 11-1-1-4-2v-8zm-91 3v14h-5l-1-6 6-8zm109 0l5 8h-2l-3-8zm-54 2l5 4v2l-6-3 1-3zm20 0l9 12h-2l-8-5 1-7zm-68 5l5 5 2 2 4 1v7l-7-4-1-4h-4l1-7zm91 1l9 2-11 13-5 2-1-1 12-11-1-3-3-2zm67 0l4 3 4 8h-2l-7-4 1-7zm-11 6l2 1-3 5h-3l4-6zm-43 6l2 6h-1q-7-3-1-6zm64 24l8 7 3 7-10-9-1-5zm-42 6l5 4v2h-6l1-6zm12 9l5 4 1 5 2 1-3 14-7 3 1-2 1-25zm-387 63l3 1-1 3 2 2-7-1 1-4 2-1zm13 6l13 3-2 3q-11 1-11-6zm33 6l4 3-2 3-4-1 2-5zm-45 6l6 2 1 2-4 2-3-6zm60 0l13 10h-2l-8-3-3-7zm27 13l4 3v2l-6-3 2-2zm6 5l13 7 2 4-1-1-8-3-1-4-5-3zm24 13l3 1 1 4h-3l-2-3 1-2zm6 30l8 5 3 4 29 12 2 8 15 12 1-3-12-14 3-1 13 16-4 5-17 9-1-2 6-10-12-18-11-6-1 4 6 8h-2l-11-8-5-8-4-1-1-4-6-2 2-1-1-5zm31 5l3 3v3l-5-1-1-2 3-3z" fill="#f8f23a" stroke="#f8f23a" class="B"/><path d="M596 0l4 1v9l-4-10zm172 138l9 6-8 2-2-2 1-4v-2zm30 0l11 1q-5 7-19 5l2-3 6-3zm-51 12l3 2 2 2 3 2-11 2v-1l3-7zm59 11l-1 4-11 3v-1l12-6zm-19 7l5 4v2l-6-1 1-5zm-49 8v7l-5 3-1-2 6-8zm14 4l5 1-2 5-5-1 2-5zm53 9q5 3-1 6l-2-3h4l-1-3zm130 3l10 6 3 8-13-14zm-202 6l1 1-14 12-4-1 17-12zm102 6l11 2-1 4h-11l1-6zm108 10l6 10h-1l-5-10zm-76 2l14 6h-4l-10-6zm-13 6l14 6h-4l-10-6zm31 0l11 6v1l-11-7zm-234 6l6 1 3 7-2-2-7-6zm30 0l3 3v4l-4-1-2 1 3-7zm274 2l6 14-4-3-4-7 2-4zm12 1l3 4-5-2 2-2zm118 8l11 7h-3l-11-5 3-2zm-170 1l3 3-2-2-6 5 5-6zm9 3l-1 2h-2l3-2zm-222 5v5l-5 10-1-4 6-11zm-156 2l4 4 2 8h-1l-5-12zm43 1l26 2q-7 8-25 5l-1-7zm64 0l11 7-3 1-9-6 1-2zm-154 1l5 1v5l-4-1-1-5zm125 7v6l-3 5-2 1-1-1 6-11zm-54 10v6l-4 1-2-5 6-2zm224 1l15 6h-5l-10-6zm28 0l12 3v6l-3-3h-20l11-6zm-203 5l10 1h1l-3 5-7 1-1-7zm-54 2l3 5 2-1v5l-4 2-3-7 2-4zm12 9l5 12h-1l-4-12zm387 2l11 6h-2l-9-6zm58 0l14 6h-4l-10-6zm117 0l10 1-4 5-5-1-1-5zm29 0l13 6h-5l-8-6zm-649 4v2h-1l1-2zm552 2l11 6v1l-11-7zm-603 3l1 2-5 2 4-4zm516 2l6 5 1 2 10 1-13 5-7-11 3-2zm-10 1l4 2v4h-6l2-6zm87 6l11 6h-4l-7-6zm-53 2q2 6 13 5l-1 4 18 3-1 4h-14l-15-9v-7zm133 1l3 4-5-2 2-2zm-107 3q17-2 22 9l1 3 4 1-9 5-5-11-13-7zm201 0l7 4v1l-7-5zm6 6l1 1v1l-1-2zm-855 5l1 2-9 9 8-11zm760 0v2l-3 5-7 2-2 10 1 1-6-1 8-18 9-1zm-46 1l4 3-2 3-4-1 2-5zm151 0l11 6h-1l-10-6zm-795 3l1 2-9 7 1 1-2-1 9-9zm507 3l9 4v20l-4-1-8-20 3-3zm-147 1v6l-11 16-1-5 12-17zm170 5l4 3v3l-6-1 2-5zm-397 4l5 12h-1l-4-12zm408 3l23 15-8 14-7-5-8-24zm-324 1l5 9 1-4 2 5-3 1v3l-7-11 2-3zm125 16l3 1-9 8 2-7 4-2zm229 0l15 6 2 6h-3l-15-9 1-3zm-348 2l7 10 4-1v6l-2 1q-10-4-9-16zm-277 2v3l-3 4-7 1v-1l10-7zm768 7l6 3v7l-8-9 2-1zm-924 2v6l-12 17 2 1-6 4-2-4 12-17 4-3 2-4zm138 3v3l-3 4-31 13v-1l34-19zm-79 1l10 1h1l-5 6-5-1-1-6zm391 1l1 1-3 5h-5l3-4 4-2zm278 0l4 2-1 10-5-1 2-11zm363 5l10 2-3 2-2 3-4-2-1-5zm-557 1l3 1-14 13-1-2 6-9 6-3zm414 5l11 7h-4l-11-5 4-2zm-107 1l8 7 2 5h-9l-1-12zm-757 6l17 1q-8 8-27 5v-1l10-5zm367 0l5 4 2 8-1-1h-2l-4-11zm-409 5l8 7v1l-12-6 4-2zm69 1l3 1-2 6-4 2v3l-6-1 9-11zm354 0l3 2 2 2 3 2-10 1-1-2 3-5zm660 0l3 2 3 4-3 1v2l-6-3 3-6zm-740 3l5 4v5l-6-2v-2l-4-1 5-4zm798 0l12 11-1 1-11-12zm-732 1l7 8h-5l-2-8zm25 2l27 1-17 5-10-6zm-470 6q14-4 18 3l-8 9h-4l-3-6-4 1-1-1 2-4v-2zm1058 0l15 6h-5l-10-6zm-344 5v3l1 4h-3l-4-5 6-2zm-327 1l9 2v8l-6-8-3-2zm695 0l13 6h-2l-11-6zm-1014 6l4 1v2l-4 2-2-3 2-2zm-68 6v3l-5 3v-1l3-4 2-1zm1118 0l15 6h-5l-10-6zm-680 1l1 4-4 7h-4l1-2 1 1 5-10zm-418 5l4 2-1 4-5-1 2-5zm1116 0l12 1-6 5-3-4-3-2zm26 0l2 1 1 5-5 1-1 3h-2l5-10zm23 0l13 6-2 1-11-7zm12 0l6 1 3 6-1-1-3-1-1-4-3 1-1-2zm-1220 7q7 6 5 22h-1q-7-7-4-22zm1158 5l5 3 1 3h-4l-2-6zM211 461v2h-1l1-2z" fill="#e7ada2" stroke="#e7ada2" class="B"/><path fill="#130b24" stroke="#130b24" d="M655 0l161 1-6 11 6 1v2q-10 7-30 4l-3 5q-22-4-27 9v3q-17-3-24 3v3l-12 2v4q-20-3-27 5l-3-5h-2l1-2-14-33-14-7-4 6h-3l1-12z" class="B"/><path d="M943 0l11 1-1 5h-13l3-6zm18 0l29 1 2 5h11l22 8 91 61 2 9 21 8q18 18 44 29l-1 2 18 15v-2l-1-5 9 7-2 1 2 5h4l1-2 10 8 7 9-11-9v2l7 8 4 2 1-2 13 8-2 1 4 10 14 7v-2l-1-5 11 9 3 8-4-4-3 1 81 83 7 11 11 7 7 11 14 7 1-2 7 8-2 1 22 23 2-1-13-15-4-1 4-2 7 3q-2 8 4 10l7 2 25 26-1 2q-8-10-29-6l-16-13-5-11-36-41-13-8-5-11-62-63-13-4-3-10-9-2-3-10-26-22-31-16-3-10-13-8-5-10q-8-9-27-7l-17-12h-19l-23-12q-26 4-36-6h-43l-53-24q-18 2-24-6h-19l-29-12h-46l-3-2 3-4h28q7-8 23-7l-1-4 3-5 35-2 18 7-1 4v2l2 5h16l-3-5 4-1 12 7-1 4 18 2 2 3 17 8 12-6 17 6v-2l-2-4 13 6 1-10-16-2-2 4 2 2-11-5 3-1-1-6-4 1-1-7q-23-4-35-18-17 3-22-5l-2-7zM834 6l3 1-13 5v-1l10-5zm14 12l4 2 3 4h-13v-1l4-2 2-3zm-80 6l13 6q6-9 24-6l-1 2 2 4 4-1-1-4 30-1v1l-28 11h-47l-2-8 6-4zm206 0l16 2v5l-16-7zM738 36l18 2-1 4h-20l-3-2 6-4zm-15 6l3 2-1 4-5-2 3-4zm378 0l21 12h13q4 7 18 6l17 12h13l59 39 24 12 2 9 9 2q16 22 41 36l4 10 9 2 17 18 4 10q10 0 14 8l32 43 12 6 11 20h-1l-43-27v-2l-11 5-16-6q2-15-5-20l-4-1v-2l-12 5-14-14 5-6-9-7v-2q-15-3-20-15l-1 2-53-56-54-38 2-1-8-9-23-11-56-37 3-3zm-390 6l3 3v3l-6-2 3-4zm-14 18l19 16 9 2 1-9-1-3 9 6-2 1v24l-4-1-2 11 5 1h2l5-3v34l-7 15-17-6v-16l-6-9-3-14 3-1-6-13 3 1h3l-1-12-5-2q2-16-5-22zm131 18h61q8 9 30 6l11 9q5 5 19 3l11 9q27 4 42 21l18 2-1 4-17 3-24 18v3l-6 1v1l-4-1 3-1-16-12-1 2-4-1 3-1q-7-10-22-12l-1 3-5-2 4-1-5-3-1-3h-17l-29-12q-22 3-30-6h-60l5-3v-3h-23l7-10 16-8q25 4 36-6zm420 0l11 6-5 1 8 9 10 2v-2l-11-9 6-1 16 12 1 3 4 8 8 1v-2l-1-5 12 7-5 1 2 5 22 6v-2l-2-4 21 13-1 4 6 1 1-3 17 6 4 8 1 1-4 1 19 15 10 2v-2l-1-5 12 7 9 10 4 2v-2l-11-9 9-1 6 11 1 1-4 1 11 5v-2l-5-3 6-1 7 6-2 1 8 9 4 2v-2l-2-4 7 6-4 1 17 11v-2l-11-9 9-1 6 11 1 1-4 1 11 5v-2l-5-3 6-1 17 9 4 9 10 6h-2l-6 1-5 9 77 68h31l29 12h31l29 12h12v-2l-5-3 4-2 12 7 3 4 10 2v-2l-2-4q11 8 31 8l-6 8q-15 13-47 8l-11-6h-31l-29-12h-37l-11-6h-37l-23-12h-19l-23-12-31-8-1-10q-11 0-15-7l-3-11-11-2-5-13-6-2 2-1-50-57-1 2-7-17q-11 0-15-7l-3-11-9-2-18-17-3-11-23-8-5-13-31-17-3-9h-2l4-1-5-3v-3zm109 55l-1 2 12 9v-2l-11-9zm132 77l1 5 10 7v-2l-11-10zM746 90l8 8 1 4h-8l-3-10 2-2zm630 60l12 6h-2l-10-6zm-662 12v4l-5 2-1-2 6-4zm-185 7l18 11q5-8 21-6l4 12 8-6q6 4-4 9l2 3 23 6 11 10-1 2h-41l-30-21-11-20zm-46 5l3 3 6 15v13l6 8 1-2q8 7 5 26l-5 3-19-47v-16l3-3zm33 42l6 4v2h-7l1-4v-2zm789 11l7 3 3 6-1 1-9-10zm218 12l13 11v1l-15-10 2-2zm-949 1l2 1-2 5-3 1v-1l3-6zm766 0l4 2-1 4-5-1 2-5zm-15 5l7 4 1 5-1 1-9-8 2-2zm213 1l9 2 24 16h-5l-28-18zm-634 12l4 1-7 5v2l-1-4 4-4zm472 7l10 9v2l-10-7v-4zm-823 1l5 12-4-3-1-4h-2l2-5zm853 22l4 3-1 3-5-1 2-5zm12 6l4 3v3l-6-1 2-5zm219 5l12 7h-5l-9-5 2-2zm-21 73h41l10 6-5 1 2 5h10l-3-5 4-1 10 6-5 1 2 5 11 1-1 4 6 1v-4-2l18 12h13l18 13-1 4 6 1v-4-2q7 8 25 6l18 13-1 4 6 1v-4-2l31 19-1 4 6 1 1-3 29 15 18 2v4l-103-1-4-8-66-42-13-3-23-15-13-3-11-9-29-11-8-7 2-3zm123 18l24 12h-5l-19-12zm63 24l15 6h-5l-10-6zm-1105 4l5 7 1-2 4 3h-7l-3-8zm507 2l26 12q17-2 24 6h19l29 12h21l3-2 1 2 1 1-1 2 5 6 12 6v9l-73-1-4-8-17-5-13-13q-23-7-36-23l3-4zm646 18l10 3v5l-10-8z" fill="#9a0e3a" stroke="#9a0e3a" class="B"/><path d="M955 0l6 2 5 7q5 5 19 3 13 14 35 19l2 11 16 10v2l-18-6-12 6-18-9v-3l-18-1 2-5 16-1-1-11h-53l-11-5 5-1-3-5-26-1-1 3 3 3q-11-2-15 4v2h-32l-4-3-1-3-5 2-1 2-19 2 6-7 2-4-5-1q5-8 20-6l-3 4 1 2h29l-3-5 81-2 1-5zm0 18l-1 3 4 2 2-4-5-1zm-1 12l6 4v2h-7l1-4v-2zM695 60l25 15v3l-6 1v1l-18-14-1-6zm550 24l3 2 2 2 3 2h-8l-3-3 3-3zm-512 5l4 1h1v13l-4-2-1-12zm522 1q13 0 17 10v2q-13 1-16-7l-1-5zm28 12l11 6 2 4v2l-11-3-2-9zm-550 5l4 1h1l-3 6h-3l1-7zm570 7l23 10v2l-24-7 1-5zm-120 7l15 11 2 4v2l-18-15 1-2zm-432 5l5 3-1 3-5-1 1-5zm595 6l4 3v3l-6-1 2-5zm-139 6l5 4v2l-6-1 1-5zm150 1l11 9v2l-12-9 1-2zm-615 11l3 1-6 15-1-12 4-4zm477 0l11 10v2l-10-7-1-5zm151 0l26 12 2 4v2l-10-2-18-16zm-127 18l15 12 2 4v2l-17-9v-9zm166 0l13 10v2l-13-12zm15 12l10 4v2l-10-6zm17 6l11 10v2l-10-7-1-5zm-174 6l17 9 7 13 11 5q1 14 12 18h1l6 7 3 2 8 9h1l49 51-2 1v2l-11-6-6-12-12-6-4-9-80-84zm187 6q12 1 16 10v2l-16-12zm18 12l10 4v2l-10-6zm-959 6l3 2-1 4-5-2 3-4zm976 0l11 10v2l-10-7-1-5zm18 18l15 6 8 9 12 3 1-2 10 8 3 4 4 2 1-3 4 3-4 1 11 5v-2l-5-3 5-1 16 12-4 1 4 4 8 1 1-2 9 8 4 4 4 2 1-2 21 8 2 3 5 3 3 4 10 2 1-2 3 2-3 1 17 11-1-1-8-10 3-1 16 12-4 1 3 5h-3l-11-6h-31l-29-12h-31l-77-68 6-10zm-918 12l5 3-2 3-4-2 1-4zm-51 30l5 1-2 4-1-4-3 5h-3l4-6zm861 46l3 2-3 1 17 15-1 2-19-17 2-1 1-2zm297 2l12 6-3 1-9-7zm-8 6l13 6h-3l-10-6zm33 6q11-2 13 4v2q-12 1-13-6zm-58 42q9-2 11 4v2l-12-1 1-5zm18 6l5 2-1 4-5-1 1-5zm21 0l12 6-4 1 9 11h-3l-17-11 5-1-2-6zm-930 12l2 1-3 5h-3l4-6zm1002 6l10 6h-2l-8-6zM708 413v5l-3 2-5-5 8-2zm1046 1l13 6h-3l-10-6zm60 6l12 6h-2l-10-6zm9 24l7 1-2 5-5-6zm76 0l3 1v5l-6-2 3-4zm-63 6l9 6h-2l-7-3v-3zm20 12q14-2 19 6h-9l-10-6zm28 6l5 4 1 2h-5l-1-6z" fill="#d8104c" stroke="#d8104c" class="B"/><path d="M991 0l5 1 2 5h-6l-1-6zm126 0l78 2 3 3 44 28 65 29 7 7 101 54v1l-5 2-21-12-6 5-38-26-18-9h-7l-11-9-13-3-29-18-55-12-29-18q-14 1-18-6h-13l-35-15V0zM630 5l7 2-1 4 1 1-11-5 4-2zm198 1l5 1-12 6-4-1 11-6zm176 0l12 6h-2l-10-6zm18 6l9 2q20 20 49 32l4 8 10 6v1l-72-49zm-393 7l-3 6-4 11-4-2 1-5 2 1 3-5-2-1 7-5zm157 3l1 2 2 1-9 5-11-5 17-3zm20 2l4 2-1 4-5-1 2-5zm34 0l5 1-15 5v-1l10-5zm104 0l5 1-1 4 1 1-7-1 2-5zm-446 4l1 1-6 11-1-4h-2l2-4 1 3 5-7zm67 0l5 8h-2l-3-8zm197 0l2 8 30 1-5 16-3 1-5-3-4-8-22-1 1-4v-2l6-8zm-104 2l2 2-3 4 1 1-3 1v-3l3-5zm164 0l2 1-12 5v-1l10-5zm42 0l11 1q-6 7-21 5v-1l10-5zm98 0l10 4v2l-10-6zm-349 2l5 8-5 2-2-6 2-4zm409 4l4 2v4l-6-2 2-4zm-398 4v8h-2l-2-3 4-5zm102 2l5 3v1l-5 2v-1-5zm155 0l12 6h-5l-7-6zm229 2l17 10h-5l-12-10zm-551 2l9 8h-6l-3-8zm340 2l12 6h-5l-7-6zm138 0l9 6h-2l-7-6zm-500 1l1 1 2 5-1-1-4 2-2-2 2-1 2-4zm-93 3v10l-2-2-4-2 6-6zm19 2l3 2 8 15 1-3 1 4-2 1-8-1-2 1 3-6-5-4 1-9zm466 0l12 6h-5l-7-6zm207 0l12 6h-2l-10-6zm-650 3l1 2-4 1 3-3zm227 3l25 16v6l-2-4-23-18zm109 0h73l11 6q21-3 30 6h25l23 12h13q6 8 23 6v-3l-1-3h32q10 10 36 6l23 12h19l17 12q21-2 29 10l9 12 9 6 3 8 11 3 18 12 28 25 3 8 9 4 3 8 11 3 62 63 11 16 9 6 51 60 23 2 10 6 1-2-29-27 2-1-10-12-5-3-3-9-20-21-13-6-3-9-33-36h-3l1-2 11-4v1l-3 2 1 4-1 4 5 1 1-4v-2l1-3q7 7 7 21l14 5 2-1 1 2 7 1-1 2 7 7 4 2 1-2 9 4 3 10 6 1-1 4 5 1h2l6 1-1 4 6 1 1-2q7 11 21 16l6 9 37 21 13 13q20 2 30 15 17-2 24 6h19l11 6 25 6 11 9 42 21h7l17 12 25 6 17 12h7l23 12h6v-2l-5-7 20 15 3 6h-245l-4-5-20-7h-19q-24-12-40-31l-7-16-1 4-3-4 3-1-5-9-6-3-1 2-4-1 3-1-10-6h-25l-17-6-1 2-23-8-1 2-4-1 3-1-5-3-1-3h-5l-1-4-15-4-13-13-24-15-2 1v-2l-10-5-1 3-5-2 4-1-5-3-3-8-8-1-1 2-4-1 3-1-5-3-3-8-8-1-1 2-4-1 3-1q-21-8-34-24l-17-2-12-11-2-17-12-23v-7l-21-41-9-4q2-20-11-24l4-7h-2v-2l-7-1-7-14-25-15-5 4-1 3 5 9-8 13-21 1-5-3-4-14-15-1-12 6v-1l-1-5h-17q-16-16-42-21l-11-9q-14 2-19-3l-11-9q-22 3-30-6h-61q-11 10-36 6l-22 14-1 4 19 1-14 6v1l-4-1 3-1-11-6-5 3-1-3h-3l3-5-9-13-2 1-1-1 8-10 16-8h19l35-12zm128 0l15 6h-5l-10-6zm204 0l9 2 12 10h-5l-16-12zm-709 4l11 6 1 2h-1l-11-5v-3zm250 1l1 1 3 6h-3l-6-3 5-4zm-106 1l1 1-11 5v-1l10-5zm528 10l46 30 1 5-7-7-41-21 1-7zm-464 2l7 3-2 3-4-2-1-4zm-40 2l6 9 5-1 1 2 1 1-2 8-13-15 2-4zM1 90l9 8 1 2-8 13-2 1-1-11 5-3v-2l-5-2 1-6zm495 0l4 1-7 10-2-5 2-1 3-5zm207 0l5 2v7l-5-2 2-1-2-6zm544 0l6 4 1 4-7-8zm25 2l14 10v1l-14-11zm-95 1l8 9-8-3v-6zm-570 12l6 4-1 5-4-1-1-4h-2l2-4zm670 8l10 7h-3l-8-5 1-2zm-435 1l22 10v4l-16-7-1-4-5-3zm-62 5l1 1h-1v-1zm-238 1l4 2-1 4-5-1 2-5zm6 0l11 1-1 4v2 1l-10-8zm247 0l4 1-1 4 1 1-7-2 3-4zm-116 1l5 7 1 1 1 3-2 1 3 5-6-5 2-1-7-5 2-1 1-5zm214 5l12 6h-5l-7-6zm-184 3q6 4 5 16l-3 5-2 1v-22zm-146 3l7 4 4 8 3-6 4 3-5 7 3 1v1l-12-5 3-1-7-12zm306 0l12 1-6 4-6-5zm-124 2l5 7h1l1 3h-4q-6-2-3-10zm533 0q7 14 24 20v5l-24-25zm-728 4l10 12-2 3-6-2-2-13zm757 0l7 2v6l-7-8zm-70 3l50 51-42-42-8-3v-6zm132 1l10 8h-5l-5-3v-5zM1 144l4 3-2 3H0l1-6zm737 1l1 5 1 1-5 11-6-1 3-2 6-14zm-47 5l3 2 8 16-1-1-9-6-1-11zm532 0l15 12h-5l-10-12zm-615 1l10 9v7l-10-16zm101 3l4 3-2 5 2 1-4 2-2-3 2-8zm-450 1l10 7-5 1 2 5h-4l-9-5 5-1 1-7zm324 0v2h-1l1-2zm-289 1l6 1 1 6-1 4 1 1-7-3-1-3 1-4v-2zm-267 1l7 5 6-5 1 3-8 7-8-8 2-2zm456 0l2 2-4 1 2-3zm93 5l6 3-6 5v-8zm145 0l4 4-4 2v-6zm679 0l15 6h-5l-10-6zm-1232 6l4 1-8 6-1 3-1-6 6-4zm358 0q19-4 26 4l1 2 4 1-11 5-17-11-1 2 14 19q15 5 23 18l-10-10-3 1v2l-5-2 4-1-10-6-1 2-7-7v-2l-2-5h-3l-5-9 3-3zm897 4l10 8h-5l-5-3v-5zm-852 5l8 4-7 5-1-9zm-84 1l5 13h-1l-4-13zm95 5l3 9h-2l-7-1 6-8zM1 186l4 3v1l-4 2v-6zm89 0l4 2 1 3-4 6-1-2v-9zm-51 1l2 2-1 2-1-4zm1412 5l12 6h-5l-7-6zm-160 3q5 12 20 16v1l-3 1v3l-6-3-3-9-9-3-1-3 2-3zm-763 1v3l-5 10-1-5 6-8zm-150 1v3 6l-6-2 2-4 3-1 1-2zm434 1l10 4v7l-8-4 2-1-1-4-3-2zm175 0l5 1-2 4 1 1h-12l8-6zm-494 1l6 12-1 2-5-14zm113 1l11 8-5 2v-1l-6-9zm763 1l20 21q-5-12-19-13l-1-8zm-1098 1l5 3-3 5-2-8zm1200 0l10 8h-5l-5-3v-5zM1 204l4 3v1l-4 2v-6zm95 4l1 1-6 12-1-5 6-8zm600 0l1 1-1 3-3 4 2 1-4 2-1-8 6-3zm11 0l1 1 1 1 1 1-5 11h-5l2-4v-2l-2-5 7-3zm-311 2l5 3v1l-5 2v-1-5zm109 0l5 1-2 4h-2l-1-5zm67 0l18 1-8 5-10-6zm-85 1l11 28h-1l-11-22 1-6zm828 2l5 7-5 6 13 13-14-14 5-6-4-6zm-540 1l3 2-3 1 4 3v1l-9-4 4-1 1-2zm6 3l2 5h-3l1-5zm720 3l7 9-1-1-5-1-1-7zm-990 1l7 2-2 5 4 1-9 7v-15zm137 1v3l-5 3v-1l3-4 2-1zm34 0l2 1v6l-6-1 4-6zm690 6l8 4v5l10 10-18-19zm-1066 1v6l-3 5-3-1 6-10zm1089 4l24 25-7-1-2-7-15-17zm-863 1l8 4v5l-5-8-1 4-2-5zm117 5l5 5 1 2-1 3 2 4-3-5-4-1 4-1-5-3 1-4zm-122 1l5 2 2 3 1-4 2 5-3 2-7-8zm87 0l12 6h-2l-10-6zm313 0l7 6-4 1v1l-6-2 3-6zm599 0l15 6-5 1v2l-10-9zm-1226 2v5l-5 7h-2l7-12zm402 1l1 2-5 2 4-4zm690 7l4 4 2 7-3-2-3-9zm-55 8l5 2 2 6-7-8zm-1006 1l5 14-5 3v-17zm475 5l4 2 1 4h-5l-2-4 2-2zm40 0l6 3-2 3h-5l1-4v-2zm-558 1v6l-3 4-4 1 4-5 3-6zm528 3l1 2h-3l2-2zm108 0v3l-9 11-8 2-2-2 2-6q14 2 17-8zm-788 8l2 1v10l-6-7 4-4zm762 0l2 1 1 5-1 6 2 1-2 4 7 1 15-11 2 5-9 6-3 14-1-2h-11q1-12-5-15l4-7-5-2 4-6zm516 0l8 4v7l-8-11zm197 12l11 6h-2l-9-6zm-1436 4l1 2 2 2 3 6-1 3-5-13zm317 1v3l1 4-1 7-6-1-6 4 1 2 4 2-4 6-1-2-5 4-1 2 2 1-19 14-1-3h-2l14-34 2 4 4-3-6 7 1 2 9-7 6-11 8-1zm446 1l12 6h-2l-10-6zm217 0l3 3-2 3-4-2 3-4zm-264 6l3 3v3l-6-2 3-4zm206 6l11 6h-4l-7-6zm288 0l11 8 2 6-2-2-10-8-1-4zm84 0l12 6h-5l-7-6zm15 6l27 12h-5l-22-12zm-486 1l8 5-3 1-7-4 2-2zm-608 5l2 1-9 6-4-1 11-6zm-77 5l1 2-7 7-1-2 4-5 3-2zm759 1q10-1 13 6h-21v-1l8-5zm457 0l24 12h-5l-19-12zM91 325l5 16h-1l-4-16zm949 0l6 5h-2l-6-3 2-2zm-853 5l5 4v2l-4-1-1-5zm1525 0l12 6h-2l-10-6zm-661 4l3 1 2-1 3 8h-3l-11-5 5-1 1-2zm532 2q13-1 18 6h-11l-7-6zm-910 1l5 11h-2l-3-11zm343 1l8 4h-4l-5-2 1-2zm-482 1l1 2-4 1 3-3zm424 3l2 2v4l-4 2-1 3-1-5 4-6zm673 0q13-1 18 6h-11l-7-6zM97 343l5 13-4-3-1-10zm341 5l2 1-9 6-1-1 8-6zm1217 0l12 6h-5l-7-6zm-1402 4l7 14h-12v-1l4-2-1-3 2-8zm269 1v6l-4 1-2-3 6-4zm-101 1l1 1-7 5-1-2 7-4zm1270 0q13-1 18 6h-11l-7-6zm-1096 2l5 12-4-3-1-9zm-361 2l1 2 4 1-10 5v2l-1-2 6-8zm1508 1v2l-8 5-8-5 16-2zm-1540 1l7 11-9 1v-1l4-2-2-9zm899 0l3 2v4l-6-2 3-4zm-945 4l4 4 2 9h-1l-5-13zm150 1l2 13h-1l-11-5 4-1-2-5 8-2zm-173 2l7 5h-2l-6-3 1-2zm806 0l3 6-1-1h-7l5-5zm28 0l5 9-4 1-1-10zm142 5l7 4v2l-7-6zm505 0l1 1-1 2 11 9h-5l-11-8 5-4zm-1511 1l6 13h-1q-8-3-5-13zm42 3l5 10-4-3-1-7zm1561 8l12 6h-2l-10-6zm-836 4v3l-5 7h-2l7-10zm770 2q12 1 17 10l-4-4-13-6zm54 0l4 2v4l-6-1 2-5zm-1009 3l2 3-4-1 2-2zm-445 1v3l-3 5h-8l11-8zm923 7l24 13h-5l-20-11 1-2zm-775 1l2 1-3 5-3-1 4-5zm237 0l2 1 2 4-1-1-4-1 1-3zm474 0l3 2 2 6-3-2-2-6zm-283 4v7l-3 1-3-3 6-5zm18 0v6l-3 2-3-3 6-5zm953 2l9 6h-1l-8-6zm-1264 1l5 16h-1l-4-16zm-377 5l2 2 2 9h-1l-5-9 2-2zm250 0l5 3v1l-7 2v-1l2-5zm713 0h20q4 7 18 6l11 9 29 11 29 24 2 10h-5l-4-5-27-7-17-12h-13l-32-18-9 14h-2l7-18-2-2-14 6-1-2 10-7 1-4-1-5zm99 0l2 2 2 7-1-1-7-2 4-6zm540 0l4 2v4l-6-1 2-5zm-793 2l5 12-4-3-1-9zm-258 1l2 3-4-1 2-2zm-386 2l7 4-5 3-2-7zm245 1l2 13 8 9 9 3-4 10-9 7-15 10-1 2h-12l-2-5 2-1-1-12-4 1-1-7h2l4-1 2-11q10 0 14-7l6-11zm647 0l-2 3 12 13-13-12 3-4zm497 0q14 2 21 12h-5l-16-12zm-386 5v2h-1l1-2zm-966 1l2 1-14 7 1 4h-2l-4 3-1-3h-2l20-12zm872 0l12 6h-2l-10-6zm-1085 6l14 6h2l3 2q11 10 8 34h-11l-21-35 2-1 3-6zm559 0l2 1-3 10-2 1-1-5 4-7zm119 0l-3 4 2 8h-10v-1l2-4 1 4 2-4-2-1 8-6zm152 0l11 6h-4l-7-6zm279 0l12 6h-2l-10-6zm58 0l1 1-1 4 1 1-6-2 5-4zm112 0q5 3-2 7l-2 8-10 3v-1l7-4 7-13zm382 0l4 2v4l-6-1 2-5zm43 0l14 6h-4l-10-6zm-754 1l1 5h-5l-1-2 5-3zm-299 5l2 1-12 5v-1l10-5zm66 0l10 1-6 4-4-2v-3zm243 0l3 1-3 5h-3l3-6zm179 0l12 6h-2l-10-6zm-45 5l20 17-10-10-11-5 1-2zm-356 1l-2 3-1-2 3-1zm419 0q18-3 27 5h1l-18 1-10-6zm48 0l15 6h-5l-10-6zm-683 5l10 9-1 1-9-10zm-177 1q10-2 12 4v20h-54l4-5 14-2-1-4 3-5 22-8zm221 0l7 3v5l-7-8zm67 0l7 1-1 4 1 1h-8l1-4v-2zm24 0l5 3v1l-5 2v-1-5zm537 0l-1 2v1l-1-1 2-2zm503 0l4 3v3l-6-1 2-5zm-958 1l1 1-2 4 2 1-3 1h-2v5l-5 2-1-3h-3l3-5 1 4 7-9 2-1zm-370 3v16l-4-3-2-5 6-8zm238 2q5 3-2 7v2h-2v-3h-5l9-6zm356 3l1 3-4 5-5 1 8-9zm-660 3l5 1-9 7-2 4h-6l8-10 4-2zm213 0l3 3 1 3 1 1-2 5h-36l4-6 13-4 8 4 8-6zm408 0l9 4v8h-6l-1-6-5 2v4h-12l2-4 13-8zm200 0l10 6h-3l-7-6zm103 4l1 1-1 7h-6l6-8zm-350 2l8 1v5h-6l-2-6zm21 0l4 4 1 2h-5v-6zm380 0l5 1-2 5h-6l3-6zm-180 1l1 1 2 4h-5v-1l2-4z" fill="#480e37" stroke="#480e37" class="B"/><path d="M1201 0l11 1 6 11-6 1v1l-13-9 2-5zM487 258l1 1-8 7 3-6 4-2zm-30 14l2 4-3-2 1-2zM223 395l5 5v1l-4-1-1-5z" fill="#2b0b26" stroke="#2b0b26" class="B"/><path d="M498 2v5l-5 7-1-1 6-11zm139 8l1 2h-3l2-2zm-108 1l3 3 2 3 1-4 5 7h1l-4-2-3 1v4l-5-12zm-96 8l8 11-3 1v4l-5-16zm228 4l4 1h1l-3 6-2-7zm-203 1l4 2v17l13 25-1 3-9-17-3 1v12l-4-2-2-39 2-2zm59 3l5 5-2 4-4-2 1-7zm30 1l5 13h-1l-4-13zm124 2l2 2h-1l-1-2zm-165 6l4 2-2 4-4-2 2-4zm68 0l2 2 1-2v2l-3-2zm-89 9l1 4-5 7-1-1 5-10zm134 0l1 1h-1v-1zm53 2l5 1h1l-2 6-4-2-2-3 2-2zm-103 6l1 3h1l3 4 2 2-2 4h-5l1-8-1-5zm86 1l1 1-7 5 2 1-2 4-1-7 7-4zm-17 3l6 7 3 2h-5l-5-3-1-4 2-2zm-152 1v5q-3 6-6 1l1-5 3 1 2-2zm-41 1l10 7h-8l-2-7zm213 1l2 2-2 1-4 11 2 4h-4l-4-6 10-12zm-117 4l10 8-10 2-1-2h-2l3-8zm52 2l16 7 4 7-1 3-5-10-1 2-13-9zm-127 6l3 1-1 5 2 1-4 5-4-2 4-10zm32 7l1 5 5-2 3 7 15 10-3-3q-10-8-28-6l2-1 5-10zm137 0l-1 2-3 5-1-2h-2l7-5zm-160 2l13 15 4 1-2 10-9 12-4 1q7-4 3-18l-7-10-4-1 5-1 1-9zm216 1l10 2h1l2 6-2 1v10l-5-7h-2l-4-12zm-97 8l6 3 6 15-6 2 1 5-1 4v2l-4-1-2 5v2 1l-4-2-2 4 6 8-1-1q-10-14-35-12l2-5 34-1 2-3 3-1-4-1 4-3 1-10-2-5-4-2v-4zm19 0l14 12-3 1-2-1-3 4q0-12-6-16zm54 8l6 11-5-2-1-9zm-115 4l17 1q-6 9-24 5l3-4 4-2zm108 1v6l-3 4q-6 8-21 7l-8-5q18 3 26-3l6-9zm43 0l5 11h-3l-2-11zm-89 5l4 3 2 7 18 14h-4l-5-2-5-8-17-7 5-1 2-6zm135 0l7 1-2 5-4-2-1-4zm57 6l11 1-1 4 1 1-11-6zm-127 2l6 12h-1l-5-7h-2l1-3 1-2zm-189 4l4 6-2 1 2 5-1-1h-2l-5-7 4-4zm45 0l5 1 2 5 4-1 21 19 3 3 9 3 1-2 7-3-2 5-3 7v2l-11-3-1 2-10-7-1 2 7 9-2 1v1l-11-12 2-1 3 2 2-3-1-3 5 3-1-1-2-4-2-1-1 2-13-8 1-4-5-2-1 2q-8-3-5-14zm265 0l4 3-2 3-4-1 2-5zm49 6l3 3 1 1 3 2-4 1 1 5h-4l-3-9 3-3zm-170 6l11 8h1l11 13v8h-1l-2-5h-3q2-10-3-12l-13-7-1-5zm182 0l3 3-2 3h-5l4-6zm21 0q11-1 14 6h-20l-1-1 7-5zm43 3l4 3-4 1 19 11h-1l-23-11 4-1 1-3zm-99 4l1 1-4 6-1-2h-5l9-5zm-10 11l2 1-15 12-4-1 17-12zm-156 1l1 6-4 5h-3l6-11zm-41 3l7 8-2 1 1 5-2 6-5-1-2-4 2-1 1-14zm-433 2l2 1-12 5v-1l10-5zm597 0l9 3v5l-9-8zm-117 5l6 2 2 5h-13l-1-2 6-5zm72 2v9l-7 4 7-13zm-151 2l4 9h-7l-2-4 4-3 1-2zm17 3l8 10-6 5 5-6-7-9zm118 17l3 2-10 7-1-4 8-5zm-14 13l2 1-9 5 3-4 4-2zm274 0l4 1-7 5-1-2 4-4zm-454 1v22h-1l-5-11 6-11zm295 3l5 5-2 3h-4l1-8zm-103 2l2 1-12 5v-1l10-5zm270 0q11-1 14 6h-8l-6-3v-3zm-705 6l9 3-1 3-5-1v-3l-3-2zm732 0l11 6h-1l-10-6zm-921 4v18l-5 7-1-17 6-8zm260 2l12 6h-2l-10-6zm340 0l2 1-7 9-1-6 6-4zm95 0l24 12-2 1 17 11h-1l-24-11 2-1-2-5-1 4-3-4-10-7zm64 0q14-2 19 6l-10 1v1l-12-4 3-4zm185 0l12 6h-2l-10-6zm-91 3l2 3-4-1 2-2zm-276 2l4 1h1l1 7-2 1-2 4-2 1v-14zm208 1l11 6-4 1 2 3 12 8h-1l-23-11 4-1-1-6zm-352 1l11 14-3-3-9-2 1-9zm432 1l5 15h-1l-4-15zm-134 4l11 6h-4l-7-6zm238 0l11 6v1l-11-7zm-404 5l4 1h1l-5 11-2 1 1-2 1-11zm30 0l4 1h1l-3 6-2-7zm-98 1l12 6h-5l-7-6zm247 0l6 3-2 3h-5l1-4v-2zm65 0l7 3-2 3h-5l1-3-1-3zm-478 1l5 13-4-3-1-10zm258 0l5 15h-1l-4-15zm275 3l8 8h-1l-7-3v-5zm-287 1l5 4-6 18-4 2-2-3-4-1 8-2 3-18zm-138 1l5 3h1l5 11-5-5-6-2 2-1-2-6zm73 0l23 6 9-6 16 12h-1q-6-7-19-6l-6 4v9l-4-1-2 1-1-11-15-8zm-283 2l11 27h-1l-10-27zm251 2v6l-3 2-3-4 6-4zm126 0v2l-5 10-1-4 6-8zm-161 9l5 16h-1l-6-12 2-4zm-108 3l11 12-2 2-11-12h1l1-2zm65 7v5l-3 2-3-3 6-4zm-326 1l14 16-3 2 2-3-13-15zm401 0l3 3v10l-4-1-2 1 3-13zm222 0l10 1-1 4 1 1-13-2 3-4zm15 0l9 1-2 4-3 1-4-1v-5zm120 0l6 2-1 4-3 2-1 3-1-11zm191 0l7 3v5l-7-8zm-491 3v7l-3 2-3-3 2-4 4-2zm276 1l1 8-2 6-5-1v-5l-5 3 3-4 2-4 1 4 5-7zm-357 2l4 2 2 4-8 3-2-2 4-7zm-416 10l5 13h-1l-4-13zm299 0l1 2 4 1-10 5 3 1-3 1-1-2-11 6 3 1-3 1-5-2 22-11-2-1 2-2zm593 1l11 7-4 1v1l-4-1 3-1-7-5 1-2zm-12 1l12 6h-4l-8-6zm-82 1l7 9 3 2h-8l-2-11zm-19 3v5l-7 3 7-8zm-431 2l5 4 1 2-5 2-11 16h-3l6-11-2-1-3 5-2-3 8-11 6-3zm697 0l15 6h-7l-8-6zm-601 2l5 12-4-3-1-9zm-12 3l4 1h1l-2 6-4-2 1-5zm502 1l11 6-2 1-9-7zm64 0l3 3v4l-4-1-2 1 3-7zm65 0l12 6h-2l-10-6zm-1057 1l5 16h-1l-4-16zm376 5l12 6h-5l-7-6zm380 5l4 1h2l6 1-1 5 2 1-4 5-8-6-2 1-3-6 4-2zm-711 1l14 16-3 2 2-3-13-15zm302 0l1 1-2 8-1-3h-4l2-4 4-2zm496 6l9 1-1 10 7 2 2 5h-3l-8-5 2-1-5-11-1 4-2-5zm95 0q11 1 15 10l-6 4 1 4h-1l-8-5 7-1-5-10-3-2zm-548 4l5 5-6 3v-1l1-7zm-438 3l5 16h-1l-4-16zm167 1v5l-5 10-1-4 6-11zm312 4l6 3v5l-17-2 11-6zm-192 1v8l-7 4-4-1 10-5-2-1 3-5zm-12 3v3l-3 4-4 1 7-8zm546 1v2l-11 16-1-5 9-12 3-1zm-716 1l14 16-9 8 8-9-13-15zm473 0l3 3 2 3-2 1v4l-6-8 3-3zm-524 1l5 16h-1l-4-16zm317 5l5 1-15 5v-1l10-5zm30 0l5 1-12 6-4-1 11-6zm548 0l15 6h-5l-10-6zm231 0l19 8v6l-19-14zM97 337l5 16h-1l-4-16zm437 3v3l-2 5-4 2 1 4-6 1-1-7h2l4-1-1-4 7-3zm427 3l5 16h-1l-2-5-3 1-4-1-2 1 4-7h2l1-5zm-457 3v5l-9 3 1-2 8-6zm85 2l2 1 4 7-1 3-3-5-2 1v-7zm-347 6l4 2-2 4h-8l4-2 2-4zm271 0l3 1 2 5 4-1 3 2-3 6 6 9-6 3v10q-8-7-6-23l-6-9 3-3zm170 0l4 1 3 7-4-3-1-4-2-1zm-4 1l5 13-3-2-2-11zm-355 2l1 3 3 1-8 6-5 11h-4l9-16 3-1-4-1 5-3zm89 1l1 1 1 1 4 1-10 5-1-2 3-5 2-1zm-136 1l16 7h-13l-3-7zm-74 1l7 2-1 10v-1l-6-11zm247 0l5 1-12 9-9 2v-1l16-11zm654 0l24 15v5q-6-11-25-8l-2-5 3-1v-6zm-515 1l7 17-1-1h-2l-4-16zm-361 2v6l-15 9-2 5-1-5 4-5 14-10zm1087 1l7 9-1-1-7-2 1-6zm-229 1l11 7h-5l-11-5 5-2zm-954 1l2 1-2 1v9l-3-5-3-1 2-3 4-2zm135 0l11 6h-1l-10-6zm-164 1l9 17h2l2-12 9 4 3 8h4l1-5 11 28h-1l-8-17-3 1 8 23 4-1 6 13v11l-6 1-9-6-3 6-10-7-8-22v-13l-12-23 1-6zm831 5l3 1-6 16-1-11 4-6zm130 0l12 6h-2l-10-6zm-644 6l2 1-12 5v-1l10-5zm-257 1l5 9q-3 5-15 2l-3-8 8 6 4 1 1-10zm798 0l5 13-4-3-1-4-1 2-2-3h2l1-5zm-268 5l4 1-1 8 6 6-11-8-1-3 3-4zm440 0l12 6-3 1-9-7zm-905 4v10l-2-2-3-1 5-7zm162 2l5 1-12 9-9 2v-1l16-11zm796 0l25 12h-5l-15-6-5-6zm-909 4l9 8h-7l-2-8zm408 0l5 12h-1l-4-12zm-66 2l7 6-2 1v1l-8-2 3-6zm-96 1l3 5 2 2-1 4-3 2v1l-1-14zm287 5l5 1-10 7-1-2 4-5 2-1zm16 0l4 1-7 9-1-4h-3l3-2 1 1 3-5zm101 0l3 3-2 3-4-2 3-4zm48 0l3 3v5l-6-4 3-4zm266 0l12 6h-5l-7-6zm-986 6l3 3 2 3h-5l-3-3 3-3zm38 0l9 6h-2l-7-6zm82 0l14 6-5 1-1 3-5 2v-1l-6-8 3-3zm803 0l15 6h-5l-10-6zm21 0l7 3-2 3h-5l1-3-1-3zm66 0l11 6h-4l-7-6zm110 0l5 3-2 3-4-2 1-4zm66 1l5 15h-1l-4-15zm-625 4l3 2-4 5-5-1-3-4 9-2zm-578 1l6 1-9 7-1-4 4-4zm672 0q6 4 2 19l-5 10-1-11h-3l3-2 1 1 4-10-1-1-10 9 10-15zm-279 4l3 2-3 1 5 3v7l-5-8-6-2 4-2 1 1 1-2zm72 1l4 1 2 1-1 5-5-3-1 2-3-4 4-2zm275 0l4 13 2 2-1 4h-7l1-3-1-2 2-1-6-9 6-4zm-423 1l-3 4-7 12-11 4-1 10-5-1 1-28 7 9 5 2 14-12zm4 3l14 9 3 14h-1v-2q-11 0-15-7l-1-14zm834 0l5 4-3 5-2-9zm-666 1l10 8-5 1 1 5h-1l-8-5 2-1 1-8zm-375 1l-4 5 1 7q10-8 30-6l-2 5-39 2-2-4 16-9zm476 1l2 1-12 5v-1l10-5zm286 0l2 2q-5 20-17 33l-1-2-12 15h-18q2-10-3-12h-6l-15 10v2l-7-1-2-4-2-1h-2l-5 2v4h-6l-1-6 3-4 11-2 12 6 9-7 8-14 18-11 1 2h5l1-3 6 3 4-3 2-5 1 2 14-6zm-19 12l-3 6h3l3-5-3-1zm15 0l-12 10 1 2 11-9v-3zm-46 18l-2 3 11 9 1-2-10-10zm-806-24l2 1-9 5 3-4 4-2zm552 0l2 1-12 5v-1l10-5zm90 1l1 5 4 1-4 2-1-2-5 8-1-3 6-11zm-24 4v2l-5 7-1-2h-3l3-5 1 4 3-5 2-1zm-542 1l2 2v7l-6-4 4-5zm307 0l6 4 2 4h-1l-7-8zm30 0l7 4 2 8 5 2 3 3 1 1-5 1-4-1-2 1-3-6 2-1-2-5 2-1-6-6zm109 0l5 1-11 5v-1l2-3 4-2zm66 0l1 1-2 3-11 4-1 8-18 8 1-2-2-9 2-1 1-3 5 3v-2l-2-4q18 3 26-6zm-191 1l11 19-10-9-1-10zm-329 2l7 9h-6l-3-7 2-2zm995 1l5 4-3 4h-4l2-8zm124 1l7 5 1 2h-1l-11-5 4-2zm-696 1l12 6h-5l-7-6zm52 0l4 1-1 4 1 1-7-2 3-4zm187 0l3 2 8 10 3 3 2 7 10 6v2h-6l-1-4-11-4-8-22zm358 0l15 6h-5l-10-6zm-1125 3v2l-5 4 5-6zm430 2l4 3 5 14-5 2-3-6-10 6-10-4-10 4 2-3 5-2-2-1 3-2 1 2h5l1-3 6 3 11-6-3-7zm742 0l4 1h2l3 1-4 2-2 3-4-2 1-5zm-617 1l16 2-1 4-17-1 2-5zm657 0l7 3v5l-1-2-3-1-1-4-2-1zm-742 1l5 8 5 3h-7l-3-11zm203 0v6l-5 8-1-3h-2l8-11zm-324 3v20h-5l-1-12h-2l8-8zm-40 2l4 2v10l-6-2 2-10zm845 4l5 5-2 3h-7l4-8zm-931 2l12 2-1 4q-12-2-16 4l-1 2h-6l8-10 4-2zm991 0l1 1-11 5v-1l10-5zm-1181 6l4 3v3h-6l2-6zm298 0l3 1-3 5h-6l4-5 2-1zm50 0l4 2v4h-6l2-6zm129 0l6 4 1 2h-5l-2-6zm327 0l4 2v4h-6l2-6zm350 0l4 1-2 5h-6l4-6z" fill="#7d2049" stroke="#7d2049" class="B"/><path d="M601 4l11 14h-2l-5-2-4-12zm22 2l7 4v2l-7-6zm-4 6l5 4-3 8h-3l1-12zm-24 12l2 1 3 7-4-3-1-5zm35 4v2l-3 6h-3l6-8z" fill="#f9fb95" stroke="#f9fb95" class="B"/><path d="M471 5l1 1h-1V5zm190 1l10 6 4 5h1l1-2 4 15-3 1 1 6-1-1h-3l-8-20h-2l-1-3-3 1V6zm28 39v2l-2 1 2-3zm-59 119v2h-1l1-2zM75 205l2 2-1 2-3-1 2-3zm-8 5l4 3-4 5v-8zm-31 22l1 8 7 1-5 4-7-4-2-5 6-4zm-1 17l1 1-3 8h-3l5-9zm-17 3v3l-5 7-6 2-1-3 12-9zm6 12l-1 2-2 4h-3l2-4 4-2zm169 111l8 9 7 5 2-1 1 2 2 1-3 5h-6l-8-12h-4l-3-5 3-1 1-3zm44 27l-3 4 1 2 1 1-5 11h-9l7-12 8-6zm-32 24l5 1v7l-6-4 1-4zm2 30l3 1-3 5-2 1-1-4 3-3zm520 8v2h-1l1-2z" fill="#1c0b24" stroke="#1c0b24" class="B"/><path d="M850 6h23l3 4v2h-30l4-6zm-27 6l11 1-9 11h-39l3-6q24 4 34-6zm78 0h24l4 4 1 2h-26l-3-6zm54 6l5 1-2 4-4-2 1-3zm-12 12l11 2-1 4-11-2 1-4zM692 54l16 3 16 15 2 4-2 8-10-3 1-3h5l-5-9-22-9-1-6zm41 24l2 1 3 10-4 1-1-12zm0 19l3 5 2 2-1 4-5-1 1-10zm804 150l5 3v2h-6l1-5zm16 11l7 4v2l-7-6zm9 6l10 4v2l-10-6zm23 12l11 4v2l-11-3v-3zm22 12l7 4v2l-7-6zm-226 18l5 4v1l-6-2 1-3zm262 0l13 4v2q-12 1-13-6zm15 6q12-2 14 8l2 4h-2l-14-12zm-264 6l4 4v2h-3l-1-6zm287 6h14l15 10v2h-8l-22-9 1-3zm5 60q14-4 18 4v2h-19l1-4v-2zm25 6h26q9 15 36 12l20 12h7l27 12 66 43 2 5h-4l-4-5q-15 1-20-7h-12l-11-5-1-4-15-3 2-5-8-1-20-12h-10l-14-12q-15 2-19-6h-15l-10-10-14-2-8-7-1-5z" fill="#ef1459" stroke="#ef1459" class="B"/><path d="M663 14l1 1 1 3h-4l-1-2 3-2zM67 204l5 1v5l-6-3 1-3zm-36 37l5 3v4l-6-2 1-5z" fill="#2b0c24" stroke="#2b0c24" class="B"/><g fill="#d75f80" stroke="#d75f80" class="B"><path d="M529 13l5 16h-1l-4-16zm125 25v5l-5 10-1-4 6-11zm-42 5v12l-1-1-4 1-3-1 8-11zM451 58l4 7h-1l-6-4 2-1 1-2zm-4 26l9 4v2l-12-2 3-4zm16 18l9 8 2 4h-2l-9-12zm284 6l5 6 6 1-2 12-4-2-3-11-4 1-1-4 3-3zm53 6l12 6h-2l-10-6zm-54 12l4 2v10h-3l-3-10 2-2zm110 0l19 12h-11v-1l-1-5h-6l-1-6zm-216 6l8 3-2 3-5-1-1-5zm194 0l1 1-1 4 1 1-6 3-1-3q-8 9-28 6v-1q6-7 23-5l11-6zm-69 6l3 2-1 4-5-2 3-4zm-15 12l10 6h-4l-6-3v-3zm14 6l15 1-8 5-7-6zm-181 18l5 2-1 4-5-2 1-4zm179 6l6 3-2 3-17 6-1-2 2-4 6-1 5 1 1-4v-2zm-30 4l1 2 9 1-23 11 13-14zm-201 2l3 3q4 20 21 27l3 1v13l-16-2h-2l-10-1-2-12 3 1h3l-1-18-4 1-1-10 3-3zm270 0l3 3 2 3-2 1v1l-6-4 3-4zm177 12l2 1-7 6-1-1 4-5 2-1zm-230 6l8 3-2 3-10-2 4-4zm238 0l9 6h-15v-1l4-2 2-3zm-270 5l3 2-8 5-2 5-1-7 8-5zm43 1l4 1-1 4 1 1-7-2 3-4zm-84 6l3 3-2 3-4-2 3-4zm119 0l26 12h-4l-22-12zm241 0l25 12h-4l-21-12zm-464 12h8q9 13 27 18v-2l-5-3 6-1 10 6-2 1 5 5h-27l1-4-5-2-1 2-8-2q-7 5-4 19l-4-1-2 1-3-12-9-3 1-5 4 1 8-18zm3 12l-4 11 5 1 1-11-2-1zm226-12l15 6h-5l-10-6zm167 4l5 13h-1l-4-13zm-259 4v5l-5 10-2-3 7-12zm-48 3v5l-3 2-5-5 8-2zm255 2l8 4h1l1 1 9 6 2 3 6 3 1-2q15 13 23 35l17 9-2 1 6 11h-3l-6-3-1-2 1-5-4-2-5 6-3-1-3-11-3 1v5l-6 1v1l-10-7-1-4-6-2 2-1q-7-7-3-24l-3-5-3-1-5 4-1 2 4 1-9 5-1-6-6-3v-3l-11 3 3-4 11-16zm-237 6v6l-5 7-1-2 6-11zm-189 11l-23 24-4-2 3 1 24-23zm411 4v3l-6 17 4 2-4 8 6 9-1-1-11 2 2 4 2 2 8 16-6 1 6 12-6 11h3l3-5v5l-5 10-4 2-8 16-1-4-5 4-4 8 1 1-8 6-5 11h-3v-6l-12 9 1 3 5 1-6 8-31 15 4-5 3-11-6-2 4-6 2 1 2 5 4 4 1 2 3-1 2-15-24-2-5 4-1 8q-17-2-23 6h-31l-5 4-1 8q-16-1-22-11l-8-10-1-2 8-1q4 7 18 6l13-7v2l-2 5h4l17-11 3-6-2-1q14-11 20-29l1 2 23-32 6-25 12-23v-16l-1-3 19-1 2 5 37 2 9-14zm-209 1l4 1h1l-2 6-4-2 1-5zm98 1l4 1-1 4 1 1-7-2 3-4zm119 0l4 2-1 10-5-2 2-10zm-284 1l1 11h-5l-2-4 4-3 2-4zm-79 2l1 6-7 3 4-5 2-4zm255 3l21 1-11 5-10-6zm-241 1l6 17-1 4q-8-6-5-21zm-25 9l1 2 5 1-3 5-3 2 2 4 4 4-1 2-11 2 1 4h-1l-20-11 11-1 1-2 14-12zm-96 2l2 1-9 6-4-1 11-6zm54 3v7l-3 2-8-5 8-1 1-2 2-1zm555 3l14 6h-4l-10-6zm125 0l12 6h-2l-10-6zm-135 5l9 7h-2l-11-5 4-2zm112 1l4 1-1 4 5 1h1l-1 5-9-6-1-3 2-2zm42 0l25 12h-4l-21-12zm-777 2l1 1-4 9h-5l8-10zm54 2v2l-5 10-1-4 6-8zm491 8l7 2-1 4-5-2-1-4zm43 0l6 4 2 6 12 8h-2l-29-12 11-6zm99 0l14 6h-4l-10-6zm-608 4l18 14 5-3-1-3-5-3 7-3-1 2 2 4 4-1-1-4h2l5 3v3l-4-1-2 6 2 1-5 11-8 2-1-2-6 1-1-2-5-2-1-3-42 28-16 6-2 6-18 8 1-2v-4l-15 12 1 1-22 8-25 16-1-1 2-5-3-1-9 11 6 1h2l4 4v2l-15-6q-5 12-20 14l-1-2-5 1-2-7-15-5-2-3 4 2h2l3-12h28l46-21 3-7 15-5 3-7 6-2-2 3 1 3 17-8 1 2 50-29 3-6-2-1 7-9h1l1-4 5 1 1-2zm648 0l5 13h-1l-4-11h-2l2-2zm-119 2q20-2 27 10l3 8 15-6v1l-8 5 1 1-8 3-15-10 1-4-18-3 2-5zm-439 1l5 15h-1l-4-15zm660 3l9 8h-4l-6-3 1-5zm-258 2l3 2 1 3-1-1-4-1 1-3zm-600 6l1 1-8 7 1-5 6-3zm284 0l3 3v4l-4-1-2 1 3-7zm332 0l11 6h-4l-7-6zm93 0l5 1-1 4 1 1-7-1 2-5zm-638 4v5l-7 3 7-8zm108 2q9-2 12 3h1l5 9-1-1q-8-7-23-5l2-4 4-2zm409 3l12 4-1 4 6 1 1-2 6 3-1 3 15 26 6-5 3-9-2-4 7 6-2 1 21 11v-3l-2-3 3 1q5 6 18 5l27 18 5 6-6-6-3 1 2 11 10-1 11 19-11 3q-8 11-23 15l-1-6-13 10-23 8-9-6-12 11-8-5-4 6-9-3 1-9 11 6 6-9-6-9 6-16-6-2-9 5-21-14-1-3-5 2v5l-4-1h-2l-6 2 1 10-1 4q-9-9-6-30l9-4 5 6 4-1 1-6 4 1 1-10-4-2-2 1v-13l-6-16h1l3 4h2l1-21zm-12 1l5 13h-1l-4-13zm-294 1l3 3 3 6-1 2-5-11zm-117 1l2 1-9 11-3-1 1-5 9-6zm481 0l13 6h57l12 6 15-8 1 3-1 4 6 1v-3l-1-3 2 2 7 10-2 1 2 5h4l-3-5 5 3 21 14-2 1q9 12 26 17l-3 1-13-7v2l11 13h1l6 7 3 2v6q-11-15-33-18l-1 4 2 2-12-5-1-4-25-12-1-9-27-12-2 5 4 3 1 3-4-2-18-9h-15q-5-8-18-6l-17-18zm-532 6l1 1-7 5-1-2 7-4zm26 0l3 3-2 3-4-2 3-4zm154 1l7 11h-4l-3-5-1 4-4-5h2 2l1-5zm-143 5l4 2-1 2-4 2-1-4 2-2zm47 0l5 4v15l12 23-1-1-8-5-9 6-10-7-2-5 13-30zm-58 6l3 2v4h-6l3-6z"/><path d="M956 360l4 2v22l-6-3 2-21zm-710 10v3l-5 7h-2l7-10zm693 2l3 3v25l-2 2h-7l-3-12 9-18zm-257 6l3 4 4 2-10 1v-1l3-6zm16 0l4 3v5l-8-2 4-6zm650 6l12 6h-4l-9-4 1-2zm-737 6l9 6-2 1-5 9-3 1-10-8 1-3 5 4 2 2 4-1-1-11zm759 0l26 12h-4l-22-12zm-678 1l6 5-2 1v1l-4-7zm510 5l15 6h-5l-10-6zm-499 4l5 2-1 6-5-2 1-6zm541 2l15 6h-5l-10-6zm180 0l13 7 3 7-11-11-5-3zm-120 12l16 6h13l23 12h13l23 10 1 2-1 8-5-2-1 8-10-8h-10l-9-6h-13l-17-6-1 6-18-7 6-12-5-8-5-3zm-1064 3l-23 24 2 3-3-2 24-25zm30 1v2l-6 9-14 9 2-3v-3l-5 4-1 2v2l2 4h6l20-12 2 7-1-1-5 2 2 4 4-1v9q10 6 12 22h-29l-2-6-10 4-1 2h-12q3-21-6-30l20-22 7-2 4 6 11-8zm702 1v9l-2-2-4-1 2-5 4-1zm-359 1q17-3 21 8l14 22h-18l-23-14 6-16zm98 0l3 3v3l-6-1 3-5zm-14 1l5 12-5 10-1-11h-3l4-11zm750 7l6 8 3 2h-6l-3-10zm-798 1l7 4-4 5-4-2-1-5 2-2zm-448 3l3 3-2 3-4-2 3-4zm520 0l5 4v2l-6-1 1-5zm30 0l5 2-1 4-5-1 1-5zm43 0l10 1-1 3-9 2-2-4 2-2zm80 0l2 4-5 2-1-2 4-4zm30 0l2 1-1 3-4 2v-1l3-5zm514 0q15-2 21 6l-3 1-18-7zm-755 6l4 1-1 3 10 8v2l2 9-4 1q-3-15-14-21l3-3zm106 0l5 1-2 5-4-1 1-5zm217 0l4 2v4l-6-2 2-4zm432 0l4 2 2 4h-6l-2-4 2-2zm-679 1l9 5 2 3 10 5 4 10 10 2-1 4-23 1v5h-6l-4-9 4-7-6-2 4-6h2l-5-11zm124 0l1 1-9 10-3-1 1-5h4l2-3 4-2zm-184 2l7 4-3 5-5-2 1-7zm15 3l2 1-3 5h-3l4-6zm113 0l9 4v2l-12-2 3-4zm30 0l9 1-1 5-11-1 3-5zm31 0l1 1-4 9-10 8h-3l16-18zm-647 5l1 1-3 5-6 1v-1l8-6zm286 1l3 3-1 15-5-1q-3-13 3-17zm928 1l4 7-2 4h-6l2-3h1l1-8zm-803 5l4 2v4h-6l2-6zm53 0l4 4 1 5-5 3v-12zm331 6l4 1-2 5-4-1 2-5zm350 0l7 1-5 11h-6l4-12zm25 0l7 3-2 3h-5l1-3-1-3zm-504 1l1 1-1 2-4 2-1-2 5-3zm-664 5l5 3v3h-6l1-6zm504 0l5 4v2h-6l1-6zm677 0l2 1-2 5h-6l4-5 2-1z"/></g><path d="M631 18l5 1-3 5h-3l1-6zm129 96l14 6 14 1v3l18 9q-2 8-15 5v-4l-32-2-3 2q-4-16 4-20zm55 6l31 2-3 4-3 1 2 5h-12v-1l4-2v-3q-16 3-19-6zm-5 12l17 1q-4 7-17 5v-1-5zm105 7l38 17-2 1 15 9 4 8h2l-2-5 5-1 5 12 4 4v2l-6-1-1-3q-19-7-28-23l-19-3-1-6-5 1v1l-12-8 3-5zm-167 17l2 2-1 2-4 2-1-2 4-4zm243 36l4 3v2l-5 1v-1l1-5zm-229 10l1 2 1 1-8 7q-2 11 4 15l14 1v-3l-11-8 5-1 10 6 2 3 12 7q-2 19 6 29-5 5-17 3l-12-21-19-10q-5-18 4-23l2-1 1-5 5-2zm-32 2l2 1-3 4-2 1-1-2 4-4zm81 12l11 1 2 3 10 4v4q-16 2-22-5l-2-4 1-3zm211 0h10l18 10v2l-12-1-1-3-15-8zm-181 12l5 4v2l-6-3 1-3zm211 0q14-2 20 6l2 3 33 15 21 22v2l-12-2-3-9-9-2-1-3-11-3-2-5-4-1-1-3q-21-7-33-20zm-562 30l2 1-5 10-1-7 4-4zm-39 18l5 4v4l-6-2-5 4-2 8h-11l-17 8-1-4 37-22zm340 0l7 4v2h-6l-1-6zm396 18l19 10v2q-16-1-19-12zm-778 12l1 1-13 11-1-2 13-10zm799 0h10l22 12 2 4v2l-34-18zm36 18q19 2 28 16v2l-28-18zm-862 6l2 1-3 4-2 1-1-2 4-4zm-9 6l4 1-10 5-1-2 7-4zm-12 6l4 1-16 11-1-2 13-10zm306 0l2 1 9 22h-1l-7-11-4-1 1-11zm607 0l32 18 8 10v2l-40-30zm-679 4l5 10-4-3-1-7zm-252 8l4 1-10 5-1-2 7-4zm-12 6l4 1-14 11-2 5-1-4 7-10 6-3zm-39 12l12 6 2 4v2l-6-1-1-3-11-2 4-6zm312 0l2 1 3 5 3 2v4l-12-6 4-6zm64 0l4 2-1 4-5-1 2-5zm11 0l11 7-1 4-5-2-1-3-3 1-1 3-4 2h-3l3-5-2-1 5-3 1-3zm648 6l9 6 2 4v2l-10-7-1-5zm28 12h10l20 12-2 1 9 7v4h-6l-5-9-19-3-7-12zm-676 6l5 3h1l5 17-4-3-7-17zm24 12l5 1-1 4-5-2 1-3zm726 0l5 4v2l-6-2 1-4zm-804 1l5 3v2l-6-3 1-2zm762 11l2 1 3 7-4-3-1-5zm54 0l2 1 3 16h-1l-4-17zm6 19l5 3v1l-6-2 1-2zm-33 5l8 4v2h-11l3-6zm15 6l5 4v4l-5-8z" fill="#f7fcd9" stroke="#f7fcd9" class="B"/><path d="M669 26l1 1 1 3-4 2-1-1 3-5zm11 4l1 1 3 7-3-2-1-6zM75 204l3 3-2-2-3 2 2-3zm88 24l2 4h1l2-4v6l-5 8-1-2h-2l3-12zM27 241l1 1h-1v-1zm-11 23l6 1-7 3 1-4zm153 13l3 4 2 1-5 8-1-2h-2l3-11zM1 283l3 2 2 5-2 1-1-3H0l1-5zm194 59l-1 2v1l-1-1 2-2zm0 42l-1 2v1l-1-1 2-2zm4 58l8 4-3 1v3l-8-5 2-1 1-2zm15 8l2 1v2l-6 3 2 1-1 3-1-4h-2l6-6z" fill="#210b24" stroke="#210b24" class="B"/><path d="M439 32l5 12-3-2-2-10zM163 200l14 17 3 11-11 16-1-22-2-5-3 2-3-8 2-1 1-10zM29 244l1 2 2 1-6 4-1-1 4-6zm-5 9v8l-10 3-1-1 3-5 6-1 2-4zm145 15l5 12-2-1v-2l-2 1-4-7 2-1 1-2zm12 42q12 1 16 11l-4 7 16 18-10 11-1-9h-3l2-3-1-3h2l-11-15 2-4 3-1v-2l-5-2-1 4-2-3-2 1-4-7 2-1 1-2z" fill="#250b25" stroke="#250b25" class="B"/><path d="M746 114l4 2 3 10-3 1-4-1-2 1 2-13zm5 23l4 1h1v8l-5-8-1 2-1-2 2-1zm-25 49l3 1-11 12-20 11-1-1 3-5 9-3 17-15zm-191 4l9 8 8 9h1l4 9h-2q-17-8-20-26zm-5 8l4 2v16l-6-2 2-16zm50 30l12 6 2 3 12 7v2q-18-5-26-18zm36 18l8 4v3l-8-7zm20 0l4 1-9 7-1-4 6-4zm292 13l2 1 2 4h-7v-1l3-4zm-10 9l1 2 1 1-8 5v-1l2-3 3-1 1-3zm18 3l3 17-2 1 8 5h-3l-6-3-3-9-3-1 2-5 2-1 2-4zm-396 12v14l-3-3-3-1 2-5 2-1 2-4zm371 0l1 2-9 9q-7-4 4-9l4-2zm-341 4v5l-3 2-3-5 6-2zm391 7l3 2 2 7-1-1-3-1-1 2 2 3h-5l-4-5 3-1 3 5 2-5h1l-2-6zm-421 5v5l-10 2-2-4 12-3zm354 1l6 2-2 4-4-2v-4zm-405 6l3 3v3l-6-1 3-5zm29 6l4 2-1 4-5-1 2-5zm6 6l4 2-2 4h-4l2-6zm-46 6l2 1-5 8-1-5 4-4zm521 0l15 8-1 4-15-5v-2l-1-3 2-2zm-504 6l3 2 2 2 3 2q-17-1-25 6l2-3 15-9zm403 0l8 1-9 17h-3l6-14-2-4zm-393 6l5 1-5 9-8 6-4 1-1-1 3-4h-2l11-7 1-5zm516 0q12-2 14 6h-8l-7-3 1-3zm-547 9v6l-22 9v-1l22-14zm-41 9l4 1-10 5-1-2 7-4zm11 6l5 1-10 7-1-2 4-5 2-1zm-27 12l3 1-2 5 1 1-13 5 11-12zm465 0v3l-6 5 4-7 2-1z" fill="#f23c73" stroke="#f23c73" class="B"/><path d="M767 114l11 6h-4l-7-6zm26 0l2 1-12 5v-1l10-5zm5 0l10 6 3 6 23 1-1 3-4 2 3 1-3 1-1-2q-25 4-35-5l11-2-1-5h-8l3-4v-2zm55 10l3 2-1 2 2 3-1-1-4-1-1-2 2-3zm-89 8l16 2 2 2 15 3q-5 7-19 5l-14-6-2 1 2-7zm76 0l6 3 2 3h44l2 3v3h-24q-9 9-30 6l-6-3v-3h-8l2-4 2 1 10-4v-5zm-77 11l5 2v2l-6 3v-1l1-6zm163 1l14 6h-4l-10-6zm-1 6l5 3-2 3-4-1 1-5zm30 4l19 14h-2l-18-9 1-5zm-174 2l-1 2 15 15 5-4v-2l7-4v-2l3-1 7 26q16-2 23 6h19l9 5 8-5h31l11 6 1-8 7 8-2 1q0 13 10 17h2l-3-5 3-1 6 4 6 11-3-3-3 1 12 13h1l6 8 3 2 4 6 10-9-1-3-3-1-1-4-1 3-2-3 2-1-13-22-4-2-1 2-11-17-6-2q22 3 28-9l-11-15 3-1 14 12 3 4 10 6 1 2 5 3-2 3-15 3-1 8 22 1 2 3 1 3h6l23 12 12 2 4 9 9 1 23 12 12 2 2 2 10 4 2 2 10 4 8 10 10 3 8 13 4 2h2l4-1 4-5 5 1-2 4-3 1-3 1 1 5-2 1 4 4 2 1 1-2 11 3 2 3 11 5 32 33 7 11 7 5 5 7 21 1 23 12h25l34 22 1 3-3 5-3 1 3 4 10-5 26 18h-8l-11-5-1-4q-6-5-19-3l-11-6h-10l-8-6h-12l-1 3 3 3h-8l-29-12h-17l3-5-11-1-1 3 3 3h-8l-43-21-1-9-13-5 2-1-3-5-2-1-1 2-21-14-3-8 11-7 1-2-3-1 3-5 1 4 5-9-4-3-1-4-1 3-2-3 2-1-13-18-4 1h-2l-4 3-1 8-12 1v1l-12-5v-3l-17-6-1 3 3 3-15-9 1-3h5l-7-10-22-14-25-6-5 4-7 14v2l2 4 8 6 4 4 4 2 1-3 4 3-4 1 13 9 10 2 1-2 3 2-3 1 5 3 1 2h5l-3-5 5 3 3 2-4 1 21 11h-27l-6-9-6-3h-33q-6-9-22-6l-1-4-15-7-1-4-6-2v-3l-2 1-4-10-1 3-2-3 2-1-5-8h-2l-11-13 6-4-7-9-10-2-1 2-4-2-3 4-8-4-3 2-1-2 1-4-16-7-3-4 5 3h2l-7-10-10-2-1 3 5 3h-5q-8-9-28-6l-2 5 1 2-2-2-5-2v-3l-9-5 9-2-1-5h-8l3-5-17-1-1 2-4-1 3-1-5-3v-9l-12 1-4-1-2 5 1 3 3 3 2 1 1-4 12 14 8 3-9 5-11-6-1 8-23-8-1 3 3 3-20-6 5-3v-3h-6l6-17v-2l-1-4v-2l-2-4-3-1-12 8 1 4h-11v-1l4-2v-3l-8 6 2-3q-3-16 6-20l1 2q7-7 24-4l4 1 2-3 6-3zm6 12l-1 5 6 1v-2l-5-4zm-35 23l-1 4-10 3v-1l11-6zm-8 13l2 1-2 4 8 2-3 11-4 3 3 3 2 2-1 8-21 16-14 22v19q-8 6-6 24l10 22 3 1 4-3 19-24q7-6 25-3l9 5 12-12 6-16 7-4 1-5-16-5-2-5h2l16 6h27l3 4v8l-12 23v7l-11 20-1-2-5 4-1 2h3l3-2-9 20-13 8-2 4 2 1-1 3-1-3-5 10-3 1 1 1-8 5-2 5-3 1-9 4-1 2 4 1-14 5v-1l4-2v-3l-30 1 2 3 3 2h-5l-6-3-1-2 1-6-7-3-6-16-10 3-2-3 2-1 5-11-5-11-1 3-2-3 2-1-11-14h-2l-6-16-4 1h-2l-4 3-1 3 6 10 1-3 1 4-2 1q3 16-5 21l5 3-1 5-3 2-2 5q9 8 6 30l16 23 2 1-2 5-4 1v1l-16-2h-2-2l2-4-1-3-2-4-9-3-1-4h-10l-19-9 1-7 7 8 4 2 1-2 5 2v-5l-5-4-2 1-7-9 2-1-12-17q3-14-3-18l-9-4v-15l-11-23-1 3-2-3 2-1v-12l-12-20 4 2h2l1-36 5 3 2 3q19 3 26-6l3 6 5-3v4q-8 6-6 22l7 1 4-3 2-18q6 4 5 16l-6 11v31l4 4 3 1 4-3q-1-18 7-26v-25l-3-5-8-4-1-9h-2l8-6 8 10 4 2v-2l-2-4 7 6-4 1 11 5 3-1 3-1 1 2 4-3 1-2-2-1 2-4 1 3 3-5h2l-3-12-3-1 2-5 4 2 6 23-1-1-5 2 2 4 4 3 2 3 4-1h2l3-2q12-33 34-57h3l2-4 4-2zm-22 5l3 2-12 5 2-3 7-4zm290 1l12 6h-4l-8-6zm-178 6l9 6 3 6h-3l-15-7 2-3 4-2zm-135 1l2 1-7 16-4-2 1-5 2 1 3-5-2-1 5-5zm80 5l29 12h-10l-19-12zm80 3l11 7 1 2 23 6 1-2 3 2-3 1 5 3 1 8 5-3-1 4-4 7-1-2-18 13 3 4 9-8-1 4-2 5h-32l-7-3-1-8 12-4 1-3-3-5-14-4-1-3 7-18h5l1-3zm6 45l-1 3 4 2 2-4-5-1zm-321-42l8 3 1 9 5-3 2 15 8 3 2 14-3 1-3-6-9-5-2-6-1 4-5-7h-2l-5-12 4 2h2l-2-12zm3 18l3 6h2l-1-2-4-4zm103-17l6 5-7 1-1-3 2-3zm423 4l11 7-2 1-10-6 1-2zm-261 1l22 8-1 2-11 2-5-3-2-7-3-2zm-296 6l25 21 3 7-3 4-1-2-16 14-2 4 2 1-6 4-2-5-12 1v1l-7-7 7-1q8-7 6-24l-2-5-2 1-1 3-1-5h-3l15-12zm-20 6l5 1-3 4 1 3 2 4-2 1 5 3-1 2-4 3-2-8v-2l-1-4-2 1-1 3-1-7 2-3 2-1zm598 0l12 6h-2l-10-6zm-541 13l6 12-1 3-5-15zm-67 3v21l3 4-14 3-1-2-10 8-2 4 2 1-1 3-1-3-6 11h3l3-5v9l-17 17-30 21 3 1-3 1-1-2-10 2-14 11-1 3-4 2 3 1-3 1-1-2-17 12 4 1-4 2-1-3-8 6 1 1-10 5h-19q-8 8-24 8v10l-10-5-3-5-13-7 8-1 4-11 15-2 4 1 7-10q-2 11 4 15l3 1 4-3 5-14 25-9q13-20 36-31l7-12 40-22 6-11 8-3-2-8 2-1 10 6 8-7 1 1 4-3 1-2-2-1 8-8zM295 402l3 6h2l-1-2-4-4zm721-132l16 12 1-6 11 4-6 3 3 5h-2l-23-11-2-5 2-2zm-451 5l4 1h1l-1 6-3-1-1-4-1 3-2-3 3-2zm485 7l5 4 1 4h-2l-10-3 2-3 4-2zm112 6l26 10-1 6-5 2-18-6-2-12zm-34 21v6l-1 2-9-4 10-4zm-875 57l2 1-3 5q18-2 24 9v3l-6 1 3 5h-11l2-3v-3h-20l-3 3 3-4 3-14 6-3zm420 0l3 2 2 3 1-4 8 11-6-6-3 1-1 3-4 2v-12zm-72 12l5 3 5 3 3 7-11-7-2-6zm745 7l1 1-2 1 1-2zm-667 1l6 12h-1l-5-12zm-439 2l1 2 3 1-9 5v-1l5-7zm1139 7l12 7h31l8 6-2 1 2 5 7 6 3 12-6 1v1l-25-2q-6 9-23 6l-11-5-7-9 3-4h3l-5-10 5 2 2 2 4-1-1-5-5-3-1-2 2-1 11 10 1 3v2l1 3-2 1 8 11 4-2 3-4 3-1-13-21-16-7 4-2zm29 31l-4 6h3l3-5-2-1zm-439-18l3 3v4l-4-1-2 1 3-7zm-278 2l5 15h-1l-4-15zm-444 4l2 1-3 5h3l3-2-2 3-9 7-1-8h-2l9-6zm714 7l8 11h-5l-3-1v-10zm-267 5l1 1-4 9-2-3 5-7zm-460 6l2 1q-11 4-8 24l6 14-3-3-3 1-5-1-1 6h-6l-2-5 2-1-3-6h-2l3-6 7-2 1-5-5-8 5-4 1 1 11-6zm-9 25l-3 5h6v-2l-3-3zm1228-18l3 5 2 2-1 3-2 1-3-4-4-1 3-2 1 1-1-3 2-2zm-769 2l1 2h-2-2l3-2zm734 3l12 6-2 1-1 9-23 2-5-2 1-2 22-8-1-4-3-2zm-31 10l5 7 1-2 2 3-9-3 1-5zm0 14l4 1-5 3v2h-5l2-4 4-2z" fill="#f3d4ad" stroke="#f3d4ad" class="B"/><path d="M796 114l2 2-3 4-3 2 1 4h-1l-6-3 2-4 8-5zm13 6l12 6h-10l-2-6zm37 0l6 4v2l-6 2v6l-6-4 1-4 5-3v-3zm-87 12l4 1-2 17-4-1-1-14 3-3zm21 0l12 4-6 2-6-3v-3zm27 0l3 2-1 4h-8l6-6zm21 0v3l-8 3 2-3 6-3zm65 6q24-4 35 6h-4l-9-5-3 5 12 9 2 3 4-2 1 2 18 3 17 18-9-9-3 1 11 15q-7 13-31 8-3-7-14-6l-2 12-11-6h-31l-9 5-8-5h-19q-7-8-23-6l-1 9 5 3h-4l-11-5-2-4 1-3h11l-6-26 16-16h8l2 4 23 2q10-10 35-6l-1-6zm53 12l8 4v5l-2-3h1l-7-6zm-196 6q13-2 18 4v2q-17-3-23 3l-1-2-5 7-1-1 6-11 1 4 5-3v-3zm31 1l11 9 2 2 6 1-5 4-14-16zm186 8l4 3 1 3v3l-4-1-1-8zm-205 9l5 4 1 2h-13l3-4 4-2zm-20 6l2 1-1 3-6 2 5-6zm229 0l7 4 2 2h4l-3-5 3-1 9 7 3 9h-1l-2-4-3 1v1l-6-2-1-4-12-8zm-208 6l5 1q1 14-8 17l-4 1-12-1-6 4v2l-9 6-30 53-2 1-1-5 12-23q-3-18 4-26l13-5-3-1 4-2 1 2 4-3 1-2-2-1 6-6q13 2 17-5v-2l10-5zm36 6l5 4v2l-5-3v-3zm24 6l17 1-3 5-3 1 1 5 11 7 2 3 10 6v2l-6 1-6 18 4 4 13 5 1 3-3 4-67 1v-1l4-2q-8-10-6-29h2l17 2 5 4 4 7 9 1 5-3-1-2 13-2-1-4 1-3-2-4h2l-5-9-7-3-6 4 1 2h-1l-6-3v-3h-5l11-7-1-5-5-3 1-3zm102 0l2 1 5 11 4 4v2l-10-7-1-11zm-160 6l3 1-1 3-7 2 5-6zm16 6q10-1 13 6h-10l-3-6zm24 0l10 6-5 1 3 5h-2l-7-3 1-9zm150 0l9 8 8 16h-2l-5-2-10-22zm40 0h16l27 16 2 2h10l1-2 3 2-3 1 35 21 2 2 4 3 1 3h-1l-6-3-1-3h-11l-35-15-2-9h-11l-30-12-1-6zm-238 5l17 10v3q-13 3-17-3v-10zm126 1q12-1 15 8l2 4h-2l-16-9 1-3zm-133 5v8l-1-1-4-2 3-4 2-1zm-56 1l2 1-3 5h-2l3-6zm140 0l8 6-2 1 3 5h-2l-11-5 4-1v-6zm109 0l5 3h1l5 11-10-9-1-5zm-400 6q5 2 3 12h-2l-4-9 3-3zm8 0l7 4-3 8h-3l-1-12zm315 0h10l18 10v2l-24-6-1-4-3-2zm-345 1l3 11 16 20-17-17-7-3-16 12-2-2 3-5 20-16zm230 4l20 13 10 18 6 1-1 6 7 11h5l-3-5 4-1 5 4-3 7-8 5q-1 19-15 25-9-8-28-5l-21 18-6 11-3 1-5-3-7-20v-13q9-9 6-30l26-34 10-5 1-4zm-101 1q8-2 10 4l-8 2-3-1-1-3 2-2zm323 1l3 5 2 2-9 10-3-1-2-4 8-1 1-11zm-294 4l3 3 2 10-4 2-1 3v-18zm217 1l16 1-5 9-4 2h-3l-1-10-3-2zm35 0q13 0 17 10l-1 2-4 2-2-8-11-3 1-3zm-384 6l4 4 1 2h-2l-3-6zm33 0l8 4v4l-5-2-1 36-6-3v-32l4-7zm62 1l10 5 2 4v2l-12-11zm-25 5l7 3-5 3-2-6zm17 0l2 1 4 10 7 5 1 27-6 11q3 13-3 17l-3 1-5-3-1-33q7-5 6-18l-6-14 4-4zm-139 1l1 1 2 4-6 2 2 10 4-1 4-5 2-1-1-3-4-1 6-2 2-4 1 1 2 17-6 11-15 4-3-16 6-11-2-1 2-4 1 3 2-4zm58 0l8 11 3 1 2 5-2 1v5h-3l-9-17 1-6zm103 5l10 4v2l-10-6zm20 0l2 1-3 4-2 1-1-2 4-4zm10 0l4 2v6l-6-3 2-5zm214 0v3l-5 7-9 7-4-2 1-3 17-12zm120 0l29 8 25 20v2l-6 1 2 3 3 2h-10l-7-3-3-8-3-1-6 4 1 2h-3l-4-5 6-3-11-4-1 6-16-12-2 4 2 2h-8l10-17 2-1zm78 0l6 4 1 2h-1l-6-3v-3zm12 6l5 4 1 4-6-5v-3zm-155 4l5 8h-2l-3-8zm-477 2l2 1-3 4-2 1-1-2 4-4zm62 0v3l-17 15v-1l13-15 4-2zm325 0l5 1-2 4-4-2 1-3zm264 4l11 20-1-1-9-6-4-10 2-1 1-2zm-168 3l5 10 2 1h-4l-3-11zm-511 5l6 3-10 5-9 14-38 20-6 11-9 4-25 25-28 12-4 13-3 1-5-3-1-9 12-15 5-2-3-1 4-2 1 2 10-5-3-1 4-2 1 2 16-11-3-1 4-2 1 2 10-5-3-1 4-2 1 2 4-3 1-2-2-1 5-7 9-7 1 2 17-14 3-4 27-7 4-10 2-1zm24 6v3l-5 7-4 2h-3l8-10 4-2zm31 0l11 1 2 5h-7l-7-3 1-3zm514 0l7 4v2l-7-6zm137 0l8 4 1 8 18 6 5-3-3-8 11 9 10 2 1-2 3 2-3 1 35 17 1-2 3 2-3 1 29 17 1-2 3 2-3 1 41 29h2l12 6-2 1 8 9 4 2h2l4-1 2-3 8 4 9 12 6 1-1 5 2 1-1 2 5 9-6 3 8 9h-10l-28-18-9 5-3-4 4-2 2-5-3-5-32-19h-25l-23-12q-18 4-24-3l-4-8-8-4-4-9-32-33-13-6v-3h-6l-1-12h-7l3-1 3-5zm-128 6l22 10v2q-17-1-22-12zm53 0l17 7 2 3 3 2h-10l-11-5-2-4 1-3zm47 0v15l-11 3-7-3 1-3h11l4-11 2-1zm-545 1q7 6 5 23h-2q-7-7-3-23zm552 3l11 14h-2l-5-2-4-12zm12 2l5 4v2l-5-3v-3zm-685 1v6l-3 5h-3l6-11zm590 5q8-2 10 4v2h-6l-1-4-3-2zm12 6q15-2 19 7l2 4h-2l-19-11zm83 1l3 5 2 2-5 9v-16zm-685 3v2l-5 10-10 8 1 1-32 17v-1l29-20 17-17zm127 3l11 23v11h-1l-4-7h-2q-9-7-4-27zm77 5v17h-1l-5-11 4-5 2-1zm472 6l8 1-3 4-8 4-1-2 4-7zm-328 6v3l-5 3v-1l3-4 2-1zm-131 4l11 14h-2l-9-14zm-84 9l7 9 9 6q-1 23 13 32h-2l-8-5-3-7h1l-1-6-5-2v-4l-5 3-6-26zm72 4l8 7 3 11h-1l-2-5-3 1v6l-4-1-2 5 5 1h2l2 1-3 5h3l3-2q-2 13 6 17l-3-3-3 1 12 19h1l5 11-1-1-3 2-7 14h-2l-5-1 1-3 5-2v-4l-4-1-14-22q3-22-6-31l4-6 2-1v-5l-5-2 6-11zm-259 1l6 1v2l-28 15v-1l4-2 1-3 17-12zm283 1l5 12-5 10v-22zm468 5l4 4 1 2h-2l-3-6zm147 0l8 4v5l-8-9zm-514 4v2l-3 6h-3l6-8zm-536 2q13-1 19 6l16 1-3 5 12 4 1 2-12 4-1 8q-13 2-16-5l-2-4 1-3h5l-5-9-19-3 4-6zm128 6v3q-5 8-16 9v-1l16-11zm402 1v5l-3 6h-5l3-1 5-10zm-542 11l20 1-3 5h-21l4-6zm122 0v3l-7 3 3-4 4-2zm1000 6l12 6h-4l-8-6zm-657 4l5 3v5l-5 1v-9zm59 0v5l-11 3v-1l3-4 8-3zm457 2l11 1-3 5-9-3 1-3zm-528 4l5 8h1l-1 2q-8-2-5-10zm-402 2l4 4 1 2h-2l-3-6zm426 0l29 1-1 3-23 2-6-3 1-3zm663 0l12 8 8 15-5 3-9-13 2-1-1-6-7-6zm-764 1l8 5-4 2-4-7zm665 5q15-3 19 6h-16l-3-6zm150 4l6 5 1 3-2 1v4l-8-10 2-1 1-2zm-1185 2q5 3-1 6h-3l4-6zm718 0l4 2-2 4h-4l2-6zm-730 6l2 1q2 9-3 11l-14 6-1-2 16-16zm411 4l10 6 1 2h-5l-7-3 1-5zm316 2l7 3h1l4 8-1-1-8-3-3-7zm443 0l2 1-3 5h-3l4-6zm33 1l5 10 1-3 1 4-4 2-10-5 1-3h5l1-5zm-783 11l2 1q10 7 12 23h-2l-14-21 2-3zm751 10l6 3-16 8 1 1 23 2 5-3 1-8 4 7-2 4 1 1-10 5q-17-4-23 3l-1 3h-12l2-4 10-3-1-5-4-3-1 2-3-4 9-2 1-2 10-5zm-1184 9l3 3v2h-6l3-5zm-13 5l2 2 2 4h-2l-2-6zm17 6l5 4v2h-6l1-6z" fill="#f7ecbe" stroke="#f7ecbe" class="B"/><path d="M73 198l7 6-2 1v1l-3-2-3 2v-2h-2l3-6zm96 62l16 20-4 6-5 3-1 2-1-15q-8-4-5-16zm12 42l7 10h-5l-2-10zm6 16l4 3v1l-4 2 2 1-3 2 1-9zm6 15l5 9h-5l-3-5 2-1 1-3zm6 41l6 8 3 2h-6q-6-2-3-10z" fill="#290b24" stroke="#290b24" class="B"/><path d="M165 217l1 1 2 10-2 4h-2l-2-12 3-3zM27 242l1 1-3 9 1 2-1 2-1-3-3 5h-5l11-16zm144 35l1 1 1 2-4-1 2-2zM1 288l3 2v2l-3 1v-5zm182 31l1 1 2 3-4-1 1-3zm12 24l2 2-1 2-1-4zm0 42l7 7v2l-7-4v-5z" fill="#230b25" stroke="#230b25" class="B"/><path d="M451 262q9 4 3 8v1l-3 1-3-7 2-1 1-2zm-259 58v2h-1l1-2z" fill="#250b24" stroke="#250b24" class="B"/><path d="M1307 137l7 9h1l-1 1-9-8 2-2zm-76 16l8 9-1 1-7-10zM40 156l2 4-6 5 5-6-1-3zm1300 79l1 1-2 1 1-2zm-881 35l9 7-2 4-8-4-1-3 2-4zM199 438l8 1-4 2-1 3-3-6zm16 0l1 1 4 10-4 3v-2h-6v-4l-3-1 3-1 1-4 4-2z" fill="#2e0c27" stroke="#2e0c27" class="B"/><path d="M460 270l16 1-8 7v-2l-8-6zM234 416v7l-18 17v-2l-6 3v3h-8l2-4 4-2 6-12 18-6 2-4z" fill="#2e0d27" stroke="#2e0d27" class="B"/><path fill="#2c0b25" stroke="#2c0b25" d="M1901 439l1 1v4h-5l2-4 2-1z" class="B"/></svg>