<svg xmlns="http://www.w3.org/2000/svg" viewBox="0 0 1536 1536" xmlns:v="https://vecta.io/nano"><style><![CDATA[.B{stroke-width:3}.C{opacity:.004}.D{opacity:.502}]]></style><g stroke="#000" class="B"><path d="M1 0l1535 1v1535H0l1-702 11 4v10l8 16 19 24 7-6h26l10 6 10-17 4 3 1 2 10-5 1 14q-2 5-12 4l1 47 14 1q5 5 3 19l5 8-5 10 5 9-95 2 1 23 98 1 9 20q-2 5-12 4l1 23q14-3 17 4l12 27v13l16 33-12 7-8-6h-10q-4-8-15-6l-1 20q11 7 6 31l-1 2-12-5-10 6-12-6-1 4 6 14-6 12h4l11-6 14 8 3 16q12 6 16 21-4 7-18 4l1 167h11v-143l12-17 4-2h17l11 6 8-6 14-2 16-16 3-9 7-2 15 7 2 16q9-2 11 4l1 8 8 1 3 8-3 3h-44q-7-8-24-6l-1 30 24 1 1 23h41l4 3 3 21h53l71 36 13 3 6 7 1 2h17l30 16 1 8h5l3-5 8 5h31l11 6h13q7 8 24 7v2q-8 6-24 4l1 5h239v-6q-17 3-24-3l1-3h19l35-12h65q-2-16 7-21 5-5 19-3 24-7 38-24h5l3 7 1 41h11v-48l-12-3q-1-13 9-14l7 5 9-6 43-12 17-12h13q6-8 22-6l1-9q20-2 30-15h14l3 6-9 18-15 1 1 47h19l20-18 47-65 34-34 17-3 11 6h61l10 6 24-18 2-13-6-9-7-2-11 6h-53l-25-9 9-20 25-37 10-23 3 1 2 16h23v-8l10-16 8 4 6 15v13l6 11v19l6 11v37l6 11v13l12 35v20l-6 8v43q19-2 24 10l1 14h23q4-27-11-33l5-10-6-11v-107l6-11v-64l6-8v-34l4-4h40q8-9 28-6v-24h-68l-4-3V917l-6-11v-86l10-8q36 16 59 47l9 15 1 14h8l14 12h9l8-6 2-7-21-23-5-17q-17-8-22-27 10-7 6-27l-26-1-43-42-14-21 17-15 30 21 36 37 1 20h23v-8l6-11-15-17-3-11 12-1v-24q-16 3-22-2l-2-22q-22 5-27-6l-8-17 11-1v-24l-23-1-1-19 2-3q6 8 24 5 5-9 22-6v-24h-35l-10-6-3-18q-19-3-27 4l-56-31-12-11 1-3 30-12 16 9 1 20h23l1-11 16 11 27 6 10-8q-9-5-6-22-17 3-24-3v-21h-35l-10-6-3-18-23-1 5-12-6-9-35-2-11-6h-19l-42-21-7-7-30-11q-4-18 3-25l21-2q-3-17 6-21l-6-6v-21l-24 1q2 15-6 20l-7 2-8-5-9 6h-38l-4-5 12-16-15-15q-6 12-23 12l-3-1 21-29h2q-2-16 10-18 22 3 34-5l4 3v20l-18 36h4l14-6 10 6q2-8 14-6v-20l6-8q-4-16 4-20h41l10-6 16-2 3-9 22-1v-6q-20 3-28-6h-61l-7-3-2-20-16-17q-9-10-29-8l-10-6-10 5-8-5-18 24h-3v-36l-4 1-2 4v58l-6 3h-29l-7-3v-8l18-29 2-43 76-1v-6l-96 1v47l-3 6-12-6-6 5q-6-8-23-5l-7-6-9 6q-18-2-24 6h-19l-13 6q-6-2-4-12l-48 1q2 15-6 20l-40 14-2-35-23-1-1-18-6-8-2-14-6-7-14 13-5 11-15 1v41l-3 6-21 1q-4 21 6 29l-6 9-6 3h-55l-11 6-48 1-1 10-12-5-10 5-1-11-48 1v20l-22 7q-7-8-25-4l-2 17-8-5-13 11-2-13 12-13-9-9-63 36-41 2-65 65-3 10-15 8-23 35-9 1v8l-12 12-12 4q4 17-6 20l-18 4v26l-24 42q-8 6-24 4v53l-3 6-20-12-2 11-4 1-18-12-2 11-4 1-18-12-2 11-4 1-18-12-2 11-4 1-18-12-2 11-4 1-18-12-1 24 119 2 1 19-1 2-71 2 1 17h65l6 4v14l-6 11q3 17-3 25l-9-3-6-21-24 1v47l-15 24q-27-5-37 5l-2-4 12-30-3-1q-4 8-17 6l-7-6-15 17-1 30-11-5L1 0zm384 168l-1 6h24v-5l-23-1zm840 0l-1 72h24v-71l-23-1zm264 0q-5 21 5 31v61l5 7-11 21h24V169l-23-1zM385 180l-1 12h12v-11l-11-1zm702 0l-1 12h6v-11l-5-1zm-894 12l-1 144h24V193l-23-1zm990 18l-1 6h6v-5l-5-1zm90 78l-1 24h24v-23l-23-1zm-984 48l-1 72h18v-41q9-9 6-30l-23-1zm1008 0v18q28 4 41-8l6-9-47-1zM169 432l-1 24h24v-23l-23-1zm48 24l-1 6h6v-5l-5-1zM49 690l-1 6h6v-5l-5-1zm30 66l-1 12h12v-3l-11-9zM25 936l-1 24h24v-23l-23-1zm1476 72l-1 24h12v-23l-11-1zm-84 120l1 18q5 9 22 6v-23l-23-1zm24 24l1 18q5 9 22 6v-23l-23-1zm64 24l-16 6-1 18h24v-23l-7-1zm-304 96l-1 26q8 6 6 22h18v-47l-23-1zm96 0v24l11-2 12-21-23-1zm-24 24l-3 46q-6 5-21 2l-1 24h4l42-48 2-23-23-1zm-24 120l-1 24h24v-23l-23-1zm-792 18l-1 6h48v-5l-47-1zm456 0l-1 6h24v-5l-23-1zM796 240l7 2v3l-7 1-3-1 1-4 2-1z" class="C"/><path d="M1006 240l19 2 1 19-1 2-12-5-10 6-12-6-1 4 6 14-6 12h4l11-6 21 10v10l19 32 8 3 3 8-5 3-43-15v-21l-24 1v10l-10-5h-13q-6-8-21-6l-4-3q-4-23 7-30l35-17 28-22zm144 0h5l14 15v2l-31 1-3-1 15-17zm-98 43q10 10 34 6l-7 16q-18-6-28-19l1-3zm-373 29l40 2-21 23-3 22-71 2v20q-8 6-24 4 3 19-6 27l6 11-1 2-16 1-16-12-6 5-13-11q-18 2-24-6h-40l-27-13 1-4 29-13h7l17-12 16-4 6 4h43v-20l4-4 12-5 6 5 23-12q5 2 4 12h23q-3-14 4-18 19 3 27-6zm-225 24l19 2v3l-24 7-19 12-3-1 6-8 21-15zm-47 31l1 1-8 9h-3l6-8 4-2zm371 5l11 7q6 7 3 23l-6 9-14 3q-12-2-10-17l14-24 2-1zm-403 19l2 1-11 13-4 2-1-2 14-14zm797 0l3 1 1 4h-2l-3-1 1-4zm-744 12l28 21 1 8h8l12 13q7 9 3 29l-3 6h-14l-22-18-21 18h-20l-7-6-18 24-3 1-3 11-3 1v8q-10 7-31 3l-9 5-2-4 12-17v-22l49-49 20-9q6 10 27 6v-19l-4-10zm-67 77v12l17-6v-5l-17-1zm314-77l2 1-25 27h-3l-1-4 7-10 20-14zm-324 6l2 1-13 15h-3l14-16zm-24 24l2 1-13 15h-3l14-16zm-24 24l2 1-13 15h-3l14-16zm181 23l13 9v2l-16-6 1-4 2-1zm-210 6l7 2-6 15h-4l-1-13 2-3 2-1zm1024 13l3 1v3h-4l1-4zm-871 17l4 2v3h-4v-5zm-173 1l3 1 1 4h-2l-3-1 1-4zm-5 12l2 1-37 63h-3q14-37 38-64zm235 23q13-2 17 7l2 7-5 8 5 6q-11 5-11 20l-12 1v35l-18 29v27l12 17v8q-4 7-18 4 3 15-2 21l-22 3 1 23 11 1-9 23-3 1v17l-12 23v13l-18 39-18 4 1 23 10 1-14 23-21 1q3 15-2 21l-22 3 1 71 20 1q6 7 4 23 12-2 14 7l16 27 22 14h31l9 7 4 17q16 3 21-6l6-12q26 5 37-5l1 26-1 2-12-5-8 5q-4-7-16-5l-4 3-1 17 7 10q11 1 15-5l20 9v16q7 5 6 19l-8 3q-6-2-4-12-10 2-12-3v-9l-48 1q2 9-3 11l-44-1-7-15-18-11v-33l-18 1-1 10h-4l-1-11q-20-3-27-18l-1-4q8-7 4-25l-27-1q-6-18-20-27l5-6-11-12q9-7 5-26-16 1-21-7l-9-18q2-16-5-22l11-2v-24q-15 3-18-3v-16l-12-17q4-24-5-34l11-2 2-17 88-1v-6q-12-1-17-8l1-3 64-1 2-11 3 1 2 22h23v-24l-17-1-1-23-30 1v20l-3 3q-17 4-21-3v-69l-24 1 6 20-1 2-29 2q-5 29 6 44l-3 3h-65l-3-1 1-4 46-1v-18q-11 10-35 6l-10-6-2-5 17-15v-4q-10 2-12-3-5-26 6-36l-5-6 5-7v-25q8-7 6-24l15-36 9-11v-25l13-16 11-3 2-17 3 1 1 12 18 32 1 20h11v-6l-5-2 9-10h34l20-18 12-18 14 4 1 2q21 4 29-6v6l-18 36h4l7-5 2 17 9-6 2-4 4-2q15-2 21-15l11-3v-20l4-4h14l-2-11-15-2 1-4 2-1zm-93 96q-8 4-7 18h6v-8l6-4v-5l-5-1zm-54 6l-1 12h6v-11l-5-1zM237 780l-9 12h12v-11l-3-1zm124 60l-1 24h24v-23l-23-1zm-48 24v24q15 2 22-5l1 23h4l20-28v-13l-47-1zm-24 24l1 18q5 9 22 6v-23l-23-1zm31-335l3 1 3 4h-4l-3-1 1-4zm8 11l2 1-1 4h-4l1-4 2-1zm20 4v5l-1 2h-4l-1-4 6-3zm-141 39l2 1 1 4-12 33-8 3-3-1 11-21v-7l9-12zm1187 6l15 7v3l-10 1-5-2-2-6 2-3zM176 691l9 8-11 32v22l-6 6-3 1-6-4-2-7 11-27v-13l8-18zm56 137l7 2-7 9h-3l-1-7 4-4zm-86 37l3 1v3h-4l1-4zm5 17l10 2q-2 18 6 28h-19l-4-3v-23l7-4zm667 2l7 5 2 7-11 21v19l16 3 2 17 6 8v71l-15 21-33 1 1 23 10 2-35 43-6 3h-62l-4-3-2-20-30-31q-11 11-36 6l-7-6-18 24-3 1-9 23-17 6q-8-4-4-18l-6 1q4 14-3 17l-8-1-1-4 7-16 24-15 11-2 6-6v-4l-41-1 1-4q20-4 32-18l6 5 24-30h26v-24h-11l5-9-5-6 7-14 35-19 17-2 13-13 39-20 6 5q9-13 27-18h11v-8l16-16h8l2-4zm-163 172l-1 6h18v-5l-17-1zm24 24l-1 6h6v-5l-5-1zm66 0v24h23q-8-7-6-23l-17-1zM154 936q11-3 14 4-2 13 4 19-8 6-4 25l17 2-5 8 6 11q-2 5-11 3l-10-6q-5-6-3-19l-11-24 5-8-6-11 4-4zm34 97l7 6 15 24v13q10 30 29 51l-7 1-7-6-10 5-8-5-26-65 11-1-6-20 2-3zm458 77q10-1 11 7l2 4-19 1-3-1 9-11zm-480 30l5 1 14 22-13 1-9-19 3-5zm382 13l3 1 1 4h-2l-3-1 1-4zm114 0l3 1 1 22-18 36h4l14-6 10 6q2-8 14-6l1-24 5 4 1 2 23-6v-6h-20l-4-3 4-9h29l3 4-3 8-45 45-12 4q2 15-6 20l-18 4q-4 16 3 22l8 3v3l-7 1q-6-9-23-6-4 8-16 6l-37-15v-15h-19q-4 8-16 6l-17-12-25-6-19-9 2-14 9 5h13q5 8 20 6l26-12 2-4 4-2h34l22-18 2-11 3 1 2 22h5l1-21 8-3 3 4 1 20 10-2 3-21 10-4 2-20zm-61 71v24h47v-24q-14-1-18 6-21 3-29-6zm145-71l3 1v3h-4l1-4zm-594 48l8 5 2 4 1 2 11 1 1 5 4 3v2l-23-8v-9l-5-2 1-3zm155 23l35 15 42 37-1 19-13 1-42-54-8 7-2 7 17 27h-2l-30-29-8-19 6-8 6-3zm99 96l25 2 4 21 45 1 1-17 22 14v2l-15 8-2 7 7 8 23 2q7 8 23 8v3l-14 5-18-10-6 5-7-5h-13l-18-9-7-7-35-17-18-17 1-3 2-1zm150 60h8l17 12 70 1 3 8-1 2-34 1-10-6-6 5-7-5h-25q-10-9-30-7l1-4 14-7zm225 6l10 2v3l-17 7h-26l-3-1 1-4q24 3 35-7zm30 0l4 2v3l-4 1v-6z" class="C"/></g><path opacity=".008" d="M388 168l19 2v3l-19 1-3-1 1-4 2-1zm672 0l91 2v3l-77 2v41l-17 28-3 1h-3l5-9 6-4v-4l-11-2 5-8 2-49 2-1zm168 0l19 2v3l-19 1-3-1 1-4 2-1zm264 0l19 2 1 115-1 2-19 1-3-1 11-20-6-9v-84h-6l2-5 2-1zM388 180l7 2 1 7-1 2-7 1-3-1-1-7 2-3 2-1zm700 1l3 1 1 7-1 2h-4l-1-7 2-3zm-892 11l19 2 1 139-1 2-19 1-3-1-1-139 2-3 2-1zm576 0l8 4v8l-7 17h-4l-1-25 2-3 2-1zm39 0l2 1q6 7 4 23l22 2 1 13-1 2q-5-7-18-5l-16 12-7-3q9-10 6-32l7-13zm351 18l12 6 2 4v2l-17-7 1-4 2-1zm22 1l3 1v3h-4l1-4zm-292 5l43 2 1 10h-25q-7 8-22 6l-1-14 2-3 2-1zm126 0l14 4-1 31h-4l-1-11-17-1 11-14-5-7 3-2zm90 12l2 1-1 4h-4l1-4 2-1zm-360 12q11-3 14 4 2 16-9 20h-6q-5-7-3-20l2-3 2-1zm390 0l8 1-3 5h-9l2-5 2-1zm-38 1l3 1 1 7-1 2h-4l-1-7 2-3zm59 0l16 14v2l-4 1-12-17zm37 0l3 1 1 7-1 2h-4l-1-7 2-3zm-360 6l3 1 1 4h-2l-3-1 1-4zm156 12l8 5 2 4v2l-5-3-2 1-3-9zm8 17l2 1-3 5 1 1-8 4-1-2 5-7 4-2zm-65 7l1 1v28l-15-6-2-7 12-14 4-2zm-379 5l43 2 1 7-21 8-6-5-12 11q-11-4-9-19l2-3 2-1zm495 0l5 4v2l-5-1v-5zm-425 1l3 1v3h-4l1-4zm546 0l3 1v3h-4l1-4zm-144 6l3 1 1 4h-2l-3-1 1-4zm168 0l3 1 1 10-3 6h-3l2-17zm-78 6l3 1v3l-4 1-1-2 2-3zm-406 5l13 2v3l-13 1-3-1 1-4 2-1zm461 1l2 1-7 9h-3l5-9 3-1zm-665 5q14-2 20 4v2q-16-2-22 5l-2-7 2-3 2-1zm480 0l19 2 1 13-1 2-8-5-6 5-9-13 2-3 2-1zm46 1l4 3v2h-3l-1-5zm-387 6l1 1-1 15-19 1-3-1-1-10q16 1 23-6zm455 5l2 1-6 11 5 3-17 18-7 2-14-11-7 5q0-14-7-21l11-2q5 8 20 6l20-12zm-625 1l2 1 1 10h-20l-3-1 3-5q13 3 17-5zm713 0l3 1 1 7-1 2h-4l-1-7 2-3zm-28 5l2 1-3 5 1 1-8 4-1-2 5-7 4-2zm-870 6l19 2 1 16-6 11-1 42-13 1-3-1-1-67 2-3 2-1zm96 0l25 2-5 7-22 14-1-2 5-10-5-9 3-2zm312 0l2 1q9 9 6 32l-1 2-8-5-9 6h-31l-8 5-10-5-13 6q-7-3-4-14l2-3 70-1q-3-17 4-24zm504 0l19 2 1 13-3 3h-20l-1-14 2-3 2-1zm-629 1l1 1-1 21-40 1-7-3 1-3 25-6 21-11zm551 11l2 1v11l-5-1-1-7 2-3 2-1zm-701 7l1 1v4l-17 11-1-1 17-15zm794 17l5 4-1 7-22 4-1 18-3 3-18-12-3-8q6-6 20-4l23-12zm-615 12l7 2-7 9h-3l-1-7 2-3 2-1zm190 7l21 13v3l-18 6-5-2 2-20zm-436 11l2 1v5l-5-1 1-4 2-1zm130 1l3 1v3h-4l1-4zm-64 5l5 1q5 6 3 20l-1 2-16 1-7-3v-5l16-16zm336 0l8 4v2l-16 5-1-2 9-9zm-207 12l5 4v2l-6-3 1-3zm-222 6l5 4v2l-6-3 1-3zm-24 24l5 4v2l-6-3 1-3zm-89 7l3 1v3h-4l1-4zm48 0l3 1v3h-4l1-4zm216 0l13 6 3 7-2-2-4 1 5 10-17 2v5l-5-1 5-9 2-19zm-238 23l7 1-7 10h-3l-1-7 2-3 2-1zm186 0l2 1-1 4-4 1-1-2 4-4zm912 0l25 2 1 15h-1l-28-12 1-4 2-1zm-980 1l3 1v3h-4l1-4zm42 0l3 1v3h-4l1-4zm-71 6l2 1 1 16-10 13-2 11-5-1-1-10 12-16-5-6 8-8zm173 6l3 1v3h-4l1-4zm-130 5l2 1-1 4h-4l1-4 2-1zm918 0l2 1v5l-5-1 1-4 2-1zm-1074 6l13 1-12 22h-4l-1-19 2-3 2-1zm1170 0l25 2 1 13-1 2-8-5-6 5-14-15 3-2zm-1131 6l4 2 1 4h-2l-3-6zm111 0l2 1-1 4h-4l1-4 2-1zm58 1l9 8v2l-4 1-1-6-5-2 1-3zm-175 11l4 2v3h-4v-5zm1179 6l7 2 1 7-1 2-10-7 1-3 2-1zm-1034 1l3 1v3h-4l1-4zm974 5q13-2 17 7l3 8-1 2-19 1-3-1-1-13 4-4zM319 558l4 2v3h-4v-5zm-23 7l3 1 1 4h-2l-3-1 1-4zm92 5l2 1-3 5h-2l3-6zm-110 1l3 1v3l-4 1-1-2 2-3zm-106 5l19 1-17 34-1 12h-4l-1-43 2-3 2-1zm1227 0l16 2 1 15h-1l-23-11 1-3 6-3zm-958 1l2 1-7 9h-3l5-9 3-1zm-139 6l4 3v2h-3l-1-5zm68 11l2 1-6 8-8 3-3-1 1-4 14-7zm114 6l8 4q4 16-3 20l-9-3 2-20 2-1zm954 0l25 2 1 19-1 2-7 1-10-16-11-3 1-4 2-1zm-1106 1l3 1v3h-4l1-4zm97 0l2 1 1 4-10 5-1-2 5-7 3-1zm-113 5l2 1-1 4h-4l1-4 2-1zm-56 1l3 1 1 10-3 6h-3l2-17zm1130 5l2 1 3 10 21 2 1 23 22 2 1 19-1 2-4 1-22-18-27-38 2-3 2-1zm-1077 4l3 2v1l1 1v3h-4v-7zm-287 9q6 10 22 11l2-11q6 10 22 11l2-11q6 10 22 11l2-11q6 10 22 11l2-11q6 10 22 11l2-11 14 11 2 4v8l-12 29-1 18-9-5-67-1-1-13 2-3 70-1v-24l-119-1-1-19 2-3zm170 23l2 1-1 4h-4l1-4 2-1zm190 13l3 1v3h-4l1-4zm-204 6l3 1v3h-4l1-4zm1134 0l9 5q13-2 19 3l13 13 35 24-3 8h-3l-12-16-29-5-30-29 1-3zm134 29l13 2 4 21 20 3 1 19-1 2-4 1-16-12-20-34 3-2zM100 720l19 2-11 18 5 8-13 19h-3l-1-43 2-3 2-1zm360 0l13 1q-10 26-29 44l-8 3-3-1-1-19 2-3 21-3 3-21 2-1zm-339 24l11 4-1 7-11-8 1-3zm51 12l2 1-1 4-4 1-1-2 4-4zm-92 1l9 8v2l-10-7 1-3zm77 5l5 4v2l-5-1v-5zm-106 1l2 1-4 8-4 2-8-2 1-3 13-6zm175 5l13 2-13 15h-3l-1-10 4-7zm-210 6l2 1-1 22h-4l-1-16 4-7zm78 0l2 1-1 4h-4l3-5zm1372 1l21 13v3l-23 2q3 16-3 23h-6l-14-22 23-2 2-17zM48 778v2l-5 10-3 1h-3l5-9 6-4zm189 3l2 1-5 7-4 2v-1l7-9zm-149 5l2 1-1 4-4 1-1-2 4-4zm348 6l2 1-1 4h-4l1-4 2-1zm955 19l1 1-3 4h-3l1-3 4-2zM14 841l3 1 1 4h-2l-3-1 1-4zm370 15v5l-1 2-6 1 7-8zm-149 2l4 2v3h-4v-5zm-215 1l4 3v2h-3l-1-5zm85 6l2 1 1 4-10 5-2-4 9-6zm43 11l2 1-3 5h-3l2-5 2-1zm-98 1l3 1v3h-4l1-4zm1416 0l3 1 1 7-1 2h-4l-1-7 2-3zM100 888l8 1q-5 23 5 33l-8 14-8-1-1-43 2-3 2-1zm288 0l14 1-9 23-8-1-1-19 2-3 2-1zm400 19l3 1v3h-4l1-4zm-643 5h20l3 4v20h-18l-5-24zm618 0l4 2v3l-10 1-1-2 7-4zm57 0q12-1 13 9l-5 7 12 17-1 2h-4l-3-10-15-2-1-16 4-7zm-71 1l1 1-3 4h-3l1-3 4-2zm639 12l3 1 1 7-1 2h-4l-1-7 2-3zM28 936l19 2 1 19-1 2-19 1-3-1-1-19 2-3 2-1zm220 0l15 2 1 19-1 2-13 1-3-1 5-12-4-11zm116 0l13 2-27 41-9 22h-4l-1-37 2-3 21-3 3-21 2-1zm342 0l2 1-3 5h-3l4-6zm-18 18l8 1v2l-8 3-3-1 1-4 2-1zm-516 6l2 1 5 9-5 6 5 7-7 1-3-1-1-16 4-7zm486 0l2 1-3 5h-3l4-6zm184 7l3 1 1 13-1 2h-4l-1-13 2-3zM28 984l95 1 3 11-6 9-6 3H28l-3-1-1-19 2-3 2-1zm141 24l17 1q-5 29 6 44l-1 2-7 1-16-36 1-12zm102 0l16 2 1 16-3 6h-6l-8-24zm372 0l4 2 1 19-1 2-19 1-4-5 13-16 6-3zm861 0l7 2 1 19-1 2-7 1-3-1-1-19 2-3 2-1zm-1166 1l7 6 8 16-13 1-3-1-1-19 2-3zm38 5l2 1-1 4h-4l1-4 2-1zm-15 12l5 4v2l-6-3 1-3zm481 1l3 1v3h-4l1-4zm-718 5l8 1 6 23h-14l-3-1-1-19 2-3 2-1zm714 12l2 1v2l-5 2-1-1 4-4zm-476 1l3 1 1 7-1 2h-4l-1-7 2-3zm434 11l17 1 3 8-9 15-14-1-1-19 2-3 2-1zm-140 1l3 1v3h-4l1-4zm-276 6l4 3v2h-3l-1-5zm169 12l8 5 42 2-5 7-17 5-24 16-1-2 6-7-17-18 8-8zm-362 5l4 2v3h-4v-5zm129 0l19 2 1 16-3 6h-3l-17-22 3-2zm364 1l3 1v3h-4l1-4zm-271 17l22 2v3l-16 1-7-3 1-3zm195 0l2 1-1 4h-4l1-4 2-1zm-147 12l23 1-6 14-14 3-3-1v-17zm141 0l2 1-3 11h-3l4-12zm36 0l8 1-3 5-8-1 1-4 2-1zm-110 1l3 1 1 7-1 2h-4l-1-7 2-3zm42 0l3 1 1 16h-5l-1-14 2-3zm89 0l10 8v2l-4 1-6-11zm37 0l3 1 1 16h-2l-4-14 2-3zm619 6l2 1 1 10h-10l-1-1 8-10zm-1073 11l2 1-1 4h-4l1-4 2-1zm111 0l10 2v3l-7 1-3-1v-5zm1039 1l3 1 1 16-3 6h-3l2-23zm-1222 5l2 1-5 9-4 2h-3l3-5v-2l7-5zm1108 13l3 1v3h-4l1-4zm18 0l3 1v3h-4l1-4zm-1129 5l2 1 3 11-16 11-1-2 5-6-5-7 11-2 1-6zm324 0l4 2v3h-4v-5zm-107 1l3 1v3h-4l1-4zm167 5l4 2v3h-4v-5zm-419 1l3 1 1 7-1 2h-4l-1-7 2-3zm540 0l3 1v3h-4l1-4zm26 5l2 1v17l-6-3 4-15zm-170 1l3 1v3h-4l1-4zm212 11l2 1-3 5h-3l4-6zm771 0l4 2 1 19-1 2-19 1-3-1-1-13 2-3 17-7zm-1415 1l8 5 2 4v2l-5-3-2 1-3-9zm577 0l2 1-7 9h-3l5-9 3-1zm47 0l3 1v3l-6 1 2-3 1-2zm-616 17l2 1-3 5 1 1-8 4-1-2 5-7 4-2zm586 1l3 1 1 7-1 2h-4l-1-7 2-3zm-136 5l2 1-3 5h-3l4-6zm36 0l8 1v2l-8 3-3-1 1-4 2-1zm72 0l2 1-3 5 1 1-8 4-1-2 5-7 4-2zm-98 1l3 1v3h-4l1-4zm-409 5l4 2v3h-4v-5zm301 1l3 1v3h-4l1-4zm14 5l14 1q2 9-3 11l-12-6-2-4 3-2zm177 12l4 2 2 22h19l22-20v2l-16 19q-1 16-11 23l-13-2-2-22-47-1-1-19 2-3q8 9 30 5l11-6zm-510 7l5 3v2l-6-3 1-2zm69 11l2 1-6 8-8 3-3-1 1-4 14-7zm40 1l3 1v3h-4l1-4zm-88 5l7 2v3l-7 1-3-1 1-4 2-1zm405 0l16 2 1 7q-2 5-11 3l-13-6 1-3 6-3zm-305 7l3 1v3h-4l1-4zm-60 12l3 1 1 4h-2l-3-1 1-4zm32 5h41l28 28q14 5 22 17v2l-69-35-25-7 1-4 2-1zm405 0q12-2 17 4v2h-24l1-3 6-3zm-243 6q21 6 33 22l11 2 48 28-1 13-40 1-5-2-2-22h-32q-8-15-27-19l1-4 10-1q-3-15 4-18zm-194 1l15 14v2l-13 1-3-1-1-13 2-3zm902 11l7 2 1 4h-8l-3-1 1-4 2-1zm-878 7l20 17 6-5 20 8 22 21 6-5 13 7v3l-37 1-3-1-3-22-45-2-1-19 2-3zm834 18l3 1v3h-4l1-4zm32 5l13 1q-8 9-5 31l9 10 3 1v2q-7 5-20 3l-3-1-1-43 2-3 2-1zm264 0l5 1 2 7-5 8 6 9q-2 16 5 23h-13l-3-1-1-40 4-7zm-843 18l10 2v3l-10 1v-6zm427 25l15 7 1 43-1 2-7 1-3-1-1-42-4-10zm452 5l5 1q5 6 3 20l-1 2-19 1-3-1-1-4 16-19zm-500 1l3 1v3h-4l1-4zm-22 5l7 2v3l-7 1-3-1 1-4 2-1zm-327 6l17 1v2q-8 6-23 3l-1-2 7-4zm42 0l10 6 24 2v3l-28 1-7-3 1-9zm247 1l3 1v3h-4l1-4zm12 0l3 1v3h-4l1-4zm-427 5l4 2v3h-4v-5zm219 0l19 2v3l-19 1-3-1 1-4 2-1zm138 0l2 1-1 4h-4l1-4 2-1zm27 0l16 2v3l-16 1v-6zm-51 6l2 1v5l-5-1 1-4 2-1zm-13 1l2 1 1 7-1 2-19 1-3-1 1-4q13 1 19-6zm134 6l1 1-1 15-43 1-3-1 1-4 18-1 27-11zm-403 11l2 1-1 4h-4l1-4 2-1zm9 0l10 2v3l-4 1-7-3 1-3zm789 6l13 2 1 19-1 2-19 1-3-1-1-4 6-1q-4-14 4-18zm-702 12l12 6 6-5 7 5 42 2v3l-91 1-3-1 1-4q19 3 26-7zm183 0l10 6 18 2v3l-91 1-3-1 1-4 42-1 8-5 6 5 9-6zm-279 6l43 2v3l-43 1-3-1 1-4 2-1zm456 0l19 2v3l-19 1-3-1 1-4 2-1z" fill="#f1ecf1" stroke="#f1ecf1" class="B"/><g fill="#388ef3" stroke="#388ef3" class="B"><path d="M801 169l6 6 5 17-2 1-6 10v19l-6 16 4 2-10 1 1 5h11l1-6q7-10 23-12l12 7v11l-6 1 1 5h8l10-6 25-6 8-6 2-4 1 4q17 2 24-6h23l1-2 7 2 11-6h19l32-11 8 6 5 9-11 14-70 43-1 3-1-4-16 13-2 7 7 8 11 2 1-2 22 8h13l12 6 1-4 8 10 7-5 8 6 1 3 45 14 2-1 1 7 9-5 16 11 22-20-2-3q19 1 24-12l13 15-10 12-1-4-6 1 1 11h5l1-2 2 2h41l8-5 10 5 8-6 2-4 1 4 23-2 5 12-5 10-7-2-23 12-18 3v3l-6 1 1 5h5l1-4 12 14 9 2 2-1 1 5 16 8h7l53 30q21-3 30 6h31l9 7 2 7-5 10-6 1 1 5 29 12 1-4 6 8 11 3 15 17 7-5 8 6 1 3 11 3 9 11 3 1 5 9q-5 7-16 8-5-7-18-6l-18-12-1 4-6-8-15-2-3 2v-6l-19-8-4 2-1-2-22-12h-7l-1 4 5 10-5 10 6 1 13 15 83 44 1-4 6 8 11 3 1 5 14 7 5 11-14 6h-11q-6-7-19-6v-6l-23-6-1 8 43 50 3 2-4 1 15 23 3 1 20 35 11 10 3 2-4 1 2 11q12 5 15 20l-5 10q-16-2-24-12l-36-40q-16-5-24-18l-9-2-3 2v-6l-11-5-37-31-17-2-12-6-1 4 31 30 23 2 18 16 1 2 1 1-8 9 14 20 43 42 3 1 15 23 5 1-2 7 21 23 5 17 19 19 2 7-5 7-11 3-19-12v-12h-6l-8-17-28-29-33-20-3 2v-2l-6 3 1 3 1 1-2 2v89l6 16-6 1 1 11 5 1v141l2 2-8 1 1 5h50l7 8-4 7-6 3-48 1 1 5 7 1-2 17-6 1 1 23 1 1-2 2v63l-6 11v111l5 12-5 8 8 8h-5l-13 13-1 3q1-12-7-14l-4-1 4-1q-8-8-6-25l-5-8 5-10-2-5h-6l2-25-6-11v-13l-12-35v-37q-9-9-6-30-8-7-6-24l-8-16 2-1v-24l-6 1 1 11 1 1-8 11 2 1-8 17-6 1v5h-12v-6h-6v-12l-6 1-9 23-25 37-8 21 2 2-8 1 1 11 5-2 1-4q12 1 17 10l1 2h5l4-6h14q5 8 20 6l13-6 8 10-13 8q-5-9-21-6l-1 6q-20 3-28-6h-28l-4-3v-3l-11 3-1 9 4 1-38 36-5 11-19 19-23 35-14 14-1-2-9-6q-6-8-3-23l6-12-2-1 8-21-1-3h1v-6l-12 1v5h-7q-10 12-29 15v3l-6 1v5q-14-1-18 6h-13l-17 12h-7l-44 17-6-5q-10 2-9 14l-5-2-1 4 2 2h-5q-15 17-39 24-17-3-22 7l-1 3-1-4-30 12-18 1v5h-19l-35 12-18 1v1l-7-2-8 5-6-5-9 6-42 1v5h-48v-6h-41l-10-6-6 5-12-5-3 2v-2q-16 2-22-6h-13l-11-6h-26v-6l-12 1v1l-3-2-3 2v-2h-6v-4l-28-14h-14v-6l-6 1v1l-6-6-11-2-71-36h-14v-6l-15-6-6 5-21-21-21-8-6 5-18-17h-9l-14-18h-4l1-6h5l1-6 23 7 1 5 23 6 72 36v-3l-50-45h-6l2-7-2-5h-4v-6h-6l-2-6h-4v-6h-6v-12l-19-6-5 3v3l-18 15-12 4v5l-13 5-11-5v-6l-12 1v5l-5 2-1-8h-8l3-8 5 2v-3l-11-9-1 2q-14-5-12-26l-20-6 2-5-3-1-3 2 1-10 5 2v-3l-1-3 15-5 10 5 1-12h5v-12h-6l-5-11 11-9 1-6 25 9-2 14-3 3-3 1 5 9-5 8h4l12-11 3 5 5 1-3 5-3 1 1 5h23v-6l-5-2 3-4h2v-6h-6l-14-24h-6l2-7-18-35v-13l-14-28 2-1-6-24h-2l2-7-8-17h-8l8-6 2-13-2-5h-4l-5-13 5-8-6-9-2-18h-6l8-15q-11-9-6-33h-2l2-23-3-1-9 7v1l-5-2-9 17q-8-9-28-5v-6l-6 1v5l-9 5-9-12 3 1h3l-14-18h-4l-5-11 5-1v-6h-6v-4l-12-2 1-29 11 5 1-12h5v-24h-2l12-11 8 6 5 13-5 10h4l2-1 1 7 5-2 1 2h5l1-6h27l2-2 1 2h5v-6h-2l3-6h5v-6h-2l3-6 9-6 8-15-5-10 11-13 7 18 9 2q5-7 2-23l6-11 1-16 5 2v-17l12-29v-11l-1-3h5l3-12h5v-11l18-36-4-1 8-6 21-42h5q2-16 12-23l-4-1 10-8 1-4 9-6 2-5-4-1 16-14 1-4h5l1-6 9-6 21-33 11-3 3-11 64-64 5-2 5 13-5 10h4l26-20 1-4h7l16-8 7-7 39-20 7 9-11 14-10 4-5-4-9 12-29 20-1-2-17 14-1-2-12 9 1 3 11-8 1 2 15-12h10l17-12 23-6 1-6h8l13-11 8 5 1-6q7-8 23-6l1-2h4l19-6 1-8 8 10 13-11 6 5 20-8 1 2 13-5 10 5 1-6h5l1-6h43l11-6h55l8-6 2-9-1-3q10 1 11-6l2-15-1-3h5l3-18h5l6-16v-11l-1-3h5q5-15 17-23zm180 65l-9 6q-22-3-30 6h-31l-11 6h-13l-29 12-12 1 17 21-47 41-11 3q-4 20-19 28l49 48 23 2 11 6h13l24 9 15 16 3 13 9 10h3q2-16-5-22l2-7 21-21v-4h-13l-25 17-26-23h-37l-6-3-24-24 30-30q20-5 32-20 7 9 27 5l11 6h31v-5q-20 3-29-4l-24-25 2-7 28-28 47-23 6-9-3-1zm-198 18q-15 10-21 29l2 7 9 6 19-8 29-21 13 5v-3l-16-15-18 11-17-11zm38 30l-45 29-17-11-9 11q3 17-3 25l-15 17 8 19 8 6 36-36 5-11q9-15 27-21l18-19-13-9zm22 0l-3 4 4 2 2-3-3-3zm-134 24l-1 6h-31l-11 6-17 2-1-2q-7 8-23 6l-1 2-2-2-24 11-6-5-15 8-1-2-24 12-43 12-17 12h-7l-28 12-1 6 30 12v6h6l1-6h29q6 8 24 6l15 12 6-5 14 11h19q1-11-5-14 6-4 5-15l4-1 8-11 12-3v-5l3 1 14-5 10 5 10-6h31l7-5 6 5h3q5-26-6-35l-2-1 20-23 6-1v-5l-17-1zm-156 18l-1 6h6v-5l-5-1zm176 0q-11 3-9 18h4q10-3 8-17l-3-1zm-194 6l-1 6h6v-5l-5-1zm-24 6l-1 6h12v-5l-11-1zm-16 6l-9 12h12v-11l-3-1zm390 0q-12 15-32 20l-13 14 11 8h37l27 24 28-18h65q8 9 30 6l29 12 13-2 6-7-22-15q-14 1-18-6h-13l-29-12h-13l-23-18q-15-2-20 6h-23q-9-9-30-6l-10-6zm100 0l-1 6h6v-5l-5-1zm12 0l-1 6h6v-5l-5-1zm-522 12l-1 6h6v-5l-5-1zm-12 6l-1 6h6v-5l-5-1zm640 0l-4 2-13 15 2 7 15 16-29 26-34-12h-19l-11-6h-43l-1 4 37 36 11 5 28 27q13-24 35-41l14 11h45l13-11 93 50 29 32-5 12 2 7 64 45 34 33 20-23-53-28-36-35 5-9-11-4-18-18 22-20 34 17h3l-11-14 5-9q-20 2-28-7h-19q-32-10-53-30h-7l-30-15-36-29 11-15-35-1-26-18zm-732 6l-41 39 1 3 24-21 11-5 12-15-7-1zm78 0l-11 9-13 3-34 20-25 25-11 5-53 53-11 23-25 31-29 53-15 15 5 8-11 37-24 35 11 16-11 32q4 21-3 31-7 15-27 19 0 15 11 20l-11 14q3 16 17 22l-17 20 18 32q-2 17 6 24l1 17 8-5 8 5 16-11 6 5h3l-2-11-10-13v-25l-5-7 5-8q-9-11-6-33l-6-11 6-16-6-14q-2-16 6-22v-25l6-9-5-6 5-8v-25q8-7 6-24l18-41v-13q7-5 6-18l21-36 20-18 17 11 8-10-12-20q1-15 12-20l-5-7 78-78q28-9 44-32l12 11h3l-5-8 17-21-7-1zm274 6l-17 17-6-5-15 6-1 4 11 8q16-3 22-17l24 23h3l-2-17-19-19zm52 0q-3 15-13 23l2 13q-12-1-14 9l1 3 17-6v-1l3 1 15-2 6-8v8l5 2 19-6v-5l-23-13-3-11q-3-9-15-7zm-400 18l-14 14-1-2-6 1 1 5 11-2 12-15-3-1zm266 0q-19 6-29 21l5 8-5 13h18l3-11 22-22 11-3v-6q-11-1-14 5l-11-5zm-214 12l1 6h-5l-15 15v5l-2-2-21 8-49 52-12 9 5 6-11 14 1 13q13 1 18-6l1 1-2 5h12v-5l18-3v-3l6-1v-5l-2-1 2-5 6-1v-5l-2-1 17-23 9 5v6h6v-5q26 0 33-18l20 17 15 1-2 5q16-2 24 6v-3l-10-8 10-1-2-17-15-7-3-11-15-13-1-5-5-1-1-3-29-21zm248 0l-20 14q-9 3-7 16h4l26-29-3-1zm42 0l-3 5 2 7h2l2-4-2-7-1-1zm-366 6l-15 18h4l14-17-3-1zm112 0l-1 4 25 24 7 3-2 5h2l-2 3 1 3 5-2v2l2 1-2 4 2 13q22 16 32 45l-6 8-26-11h-7l-23-12-8 1 2 11 17 16 34 20 13-6v6h3l2 5-11 18 2 7h-1l-1 12-12 29v7l2 1-2 5h3l1 5-27 15-7 9v31h6l6 19v11l-9 18-8 6-1 6h6v-2l16-9 3 5 14-10 7 6-82 130h4q12-8 17-23l8-5 7 11-3 11-43 43-5 11q-5 12-20 14l-1 4 4 2-10 14 8 14-7 2-19 19 11 14-4 11-6 4-1-1-8-1-4-6-6 1 2 11 22 25 2 17 21 18h19l35 12h49l6 3v3h6v-2l2-4 16-14v6l17 17-5 9h4l2-1-6 12 1 7 11-2v2h6l1-2 5 2v4l12 2q11-6 12-23l-2-1 2-5 6-1v-5l-2-1 17-23 9 5v6h6v-5q20 3 28-6l31 35-5 1 2 17 9 6h19l-2-5 14-1v4l4 1-1 2 2 4-2 7-9 6-23 2-13 15 2 13h-1l-1 12h-5l-1 12-8 5q-5-7-18-5l2-5-3-1-3 2 6-13 12-9v-4l-5 2-1-13 6-1v-5l-5-1-1-5-5-1-3 5-8-5q-28-5-38 7l6 9v8h-5l-1 6h-5l-1 6h2l-13 14-1-1-11-1-1 6h-17l-1-5-5-1-1 6-5 2-1-8-7 4-8-3v-1l-3-5-5-1-7-23 6-1v-5l-5-1-1-3-20-9-9 5-1-4-5-3 5-6-6-10 1-6 14 6 8-5 13 5v-11l6-1v-11l-5-1-1-6-12 6h-27l-2 2-1-1-23-1-1 4-2-3q-5-10-21-7l-1-5-23-1-1 2-17-11-15-26-9-7-1-11-5-1-3-11-3-1-9-17-9-7-1-5 6-1 9-23 27-42 4-1 14-23-2-1 8-16v-7l-4-1 4-2 18-38v-13l12-23v-13l6-1v-5l-2-1 8-16v-7l-4-1 4-2 10-10 20-35-1-1 1-2v-11l-12-17v-23l18-29v-7l4-1 14-16-2-7-8-6 4-1q1-15 12-20l-5-6 5-8-2-7q-5-10-21-7l-1 6h-5l-1 18q-7 4-6 18l4 1-27 19-1-5-8-3-4-5-3-1-3 2 6-13 12-9v-4l-5 2-1-7-1-1 1-2v-10l-11 2-1-7-35-1q2 17-7 24l2 1-2 5-18 15-11 3-1 6h-17l-1-5-5-1-1 6h-3l-9 11-5-2-1-2 6-1v-5l-5-1-7-12 1-2 5 2v-3l-11-9-6-11 5-1v-5l-5-1-1-6-9 1-3 11h-5l-1 6 4 1-3 1q-16 4-13 28h-5l-1 18 2 1-8 10v7l-12 23q2 17-6 24v25l-6 9 5 6-5 8v29l2 2h-5l-3 5 2 19 8 6h-3l-1 6h-3l-3 5 2 13h4v6h2l-2 3q-4 21 8 27h-1l-1 6-6 1q10 11 6 37l12 17 2 17-2 1 5 10-5 13h6q8 7 6 26l8 16 8 6-4 1v7l8 16h6l-2 3 11 12-5 6q14 9 20 27h4l18 22 2 8 20 18h-3l-1 6h12v6l8 1-2 5h3l4 6 5-2v8h6v4l18 11 6 15 14 1-2 5 18 3 7 5 1 4h4v6h12l2 6 9 6 7-2v6l17 8 25 6 17 12 13-2v2l11 6 13-2v6l35 14 13-2v2h24l1-2 11 2v-5l12-7v6h3q5 2 4 12h37l11-6h31q11-11 40-6v-5l-11-7-1-2 2-4 36-12 23-12h7l23-12h7l23-12h7l46-26 16-16 20-40v-7l12-23 6-25 6-11v-8l-65 38-31 25-36 21h-6l3-11 37-37q5-16 18-24l30-48 20-40V691l-3-1-32 44-1-7-5-1-1 12 2 1-8 10v7l-9 18-9 6h-2l2-5-8-1 2-17 12-17 6-25 12-23 18-61 6-11q-4-26 6-36l-2-13-9-7-1 12-17 34-1-1-5 7-6 4-1-7 6-1v-5l-6-1q-2-16 6-22v-13q-14 1-17-9l5-8v-57l-14-34-10-13v-11q-16 1-22-7h-13l-11-6h-69q-11 10-36 6l1-2v-4l-18 12q-14-1-18 6-18-2-24 6h-25l-11 6-16-6h-43l-34-17v-1l-3-5-11-7-1 4 2 2h-25l-11-6h-19l-11-6q-18 2-25-6zm230 0l-21 21 1 3 29-2 6-7-15-15zm-362 18l-1 4 6 2v-3l-5-3zm628 0l-4 2-7 9 6 14v43l9 10 7-5 14 24 11 34q-7 8-5 25l-6 11v13l-30 83 2 13 8 6q16-13 23-35l13-12 8 12v73l18 23q5 28-6 40v57l6 11-6 16v43q-7 4-6 18l-33 66-27 35 1 11 4 2 7-2 35-33 7 2 6 9h6v-2l34-33 8 12q2 15-6 22v31q-7 4-6 18-16 34-42 59l1 5 4 2 13-2q8-13 24-18l47-45q13 2 18 14-12 8-14 27-27 22-63 36l-25 6-11 6h-13q-17 20-46 26l-7 8 11 8h33l32-11 7 9-41 26-115 36-11 6q-18-2-24 6h-19l-23 15-24 9h-37l-11 6-29 2-7 8 11 8h99l11-6h91l7-5 8 5q18 3 26-6h19l29-12h13l23-12 17-2 6-8-5-11 77-41 21-15 6 5 7-5 7 10-11 24 2 7 8 6q23-21 35-53l13-13q9-28 26-46-2-18 6-24v-33l-5-9 5-12v-81l-6-11q-5-29 6-41l-2-1q-15-9-10-37-8-22-24-35-2-16 6-20l-59-151 9-8 35 42 108 162 53 95 8 6 8-10v-15q-8-7-6-24l-18-47v-13l-17-45q3-17 17-22l-39-40-35-71-21-21 8-9 50 35 11-1 2-3-2-7-64-65-11-5-31-31-11-5-31-31q-21-7-30-24l-29-17-30-31 14-25 10 9 29 11 11 12-5 7 11 8h7l78 39 7 7 100 56 7-2 6-7-18-19-35-23-13-13-29-17-12-11 11-14-2-7q-45-37-102-61l-16 12h-41l-16-12q-15 12-18 36l-11 11-82-75-7-2zm-632 6l-15 18h4l14-17-3-1zm316 0l-1 6h6v-3l-5-3zm-336 18l-1 4 6 2v-3l-5-3zm-4 6l-15 18h4l14-17-3-1zm126 24l-3 6h6v-5l-3-1zm-158 6l-1 18h6l6-17-11-1zm174 0l-1 6h6v-5l-5-1zm60 6l-1 6h6v-5l-5-1zm-106 6l-33 41 2 7 8 6 8-10-5-10 21-22 2-11-3-1zm10 0l-1 6h6v-5l-5-1zm882 0l-1 6h12v-5l-11-1zm-198 6l-1 4 33 26h3q-10-8-12-23-16 1-23-7zm-834 6l-1 4 6 2v-5l-5-1zm168 0l1 6h-1l-1 4-2-3-9-1-1 6q4 7 18 6v-2l6-4v-3l-11-9zm522 0l-1 54h4l20-22-8-19-15-13zm-696 6l-1 12h6v-11l-5-1zm150 6l-1 4 6 2v-5l-5-1zm48 0l4 9-11 14 2 7 9 6 7-2 12-14-2-7q-5-13-21-13zm-202 6q-25 27-39 66h4l24-36 14-29-3-1zm148 0l-1 6h6v-5l-5-1zm36 0l-1 6h6v-5l-5-1zm714 18l-1 4q29 16 49 42l11 5 31 31 11 5 83 86-2 7-21 18-14-6-4 1 26 53 39 39-17 20 18 50v13l12 29 1 11h5q2-16-5-22l5-12-6-14v-95l21-24 48 35h3l-8-17-55-55-14-20 5-9q-16 2-23-4l-48-47 20-21 8 5q13-2 19 3l37 31 23 11q8 13 24 18l27 27h3l-68-101-20-19-7 2-23 21-103-56-7-7-76-38h-7zm-828 6l-1 12h6v6h15l3 6h6l6-14 6-4v-5l-41-1zm42 24l-1 6h6v-5l-5-1zm-154 30l-9 11v7l-12 24h6v6h6v-5l-4-1 4-2 12-39-3-1zm-26 60l-1 6h6v-5l-5-1zm-6 24l-7 17v13l-12 29 2 7 7 5 2-1 1 1-2 1h8v-5l-2-1 2-23q8-7 6-24l6-10-11-9zm-54 54l-1 4 12 8v-9l-11-3zm36 18l-1 6h6v-3l-5-3zm306 0l-1 12-12 29v7l-12 24h4l44-64v-8l-8 5q-4-6-15-5zm-348 6l-10 24q-7 15-27 19l15 17 16-15 13-3 10-8-5-6 17-20v-8q-11-1-14 5-4-6-15-5zm1068 6l23 55q-1 13 6 18v11h4l14-16-38-61-9-7zM145 792l-1 6h3l2 4-4 2-1 6h6v-2l6-4v-5l-2-1-4-5-5-1zM43 804l-1 6h12v-5l-11-1zm1346 0l-3 6h4l2-5-3-1zM27 810q-11 3-9 18h4q10-3 8-17l-3-1zm10 18l5 18h30v-8l6-4v-5l-41-1zm72 0l-1 18h30l6 3 1 3 11-6v-5l6-1v-5l-5-1-1-5-47-1zm-20 18l-17 15 1 3 11-2 12-15-7-1zm1144 12l-9 11q-2 14 6 20v25l6 11q3 20-6 29h3l15 19 2 35h4v12h6v6h3l5 18 8 6 8-10v-39q-9-9-6-30l-18-47v-7l-12-23q2-21-8-29l-7-7zm-1088 6l-1 6h6v-5l-5-1zm-18 6l-1 6h6v-5l-5-1zm18 6l-1 6h4l2-5-5-1zm284 0q-11 3-9 18h4q10-3 8-17l-3-1zm-280 6l-5 3 2 27-2 1 6 23h2l-2 3 5 12-5 8 12 26 2 17 8 6-4 1v13l14 34-2 1 11 23h-4l-1 6h6l14 36 9 6 10-5 9 5 1 6h5l-2-11-7-7-21-42v-13l-14-22-9-7-1-23-1-1 1-2-5-12 5-9-5-1-6-8 5-6q-12-12-14-33l2-1-2-23 2-1q-9-9-6-29l-13-1zm1124 24l-1 6h6v-5l-5-1zm6 12l-1 8 18 47v19l6 11v35l-26 29-27-23-1 42-6 11q9 12 7 37l20-17 13 11 8-10 3-13 19-18 20 24v25l12 35v19l6 11v37q9 8 6 28h6v-35l6-11v-85l6-11q2-13-5-16l11-12-11-12 5-8v-68l-21 17-24-23-29-53-7-7-9-23-5-1zm-1152 6l-1 12h6v-11l-5-1zm92 12l-9 11q-2 14 6 20v31l6 11q3 20-6 28l32 67 43 55 5 11 34 21 25 25 42 30 77 41 14 21 27 12h37l11 6 25-2 6-7-10-9-55-18-90-51-31-25-29-17-31-31-11-5q-28-21-46-51l-45-96-6-25-6-11v-19l-8-16-7-7zm-24 6l-3 4 4 2 2-3-3-3zm-62 6l-1 6h6v-5l-5-1zm246 12l-1 6h6v-5l-5-1zm-246 6q-3 14 8 18h3l-6-17-5-1zm60 6l-1 6h6v-5l-5-1zm-54 30l5 18h6v-17l-11-1zm12 24l-1 14 6 11v13l7 16h11q-15-21-18-53l-5-1zm210 0l-1 4 6 2v-3l-5-3zm672 18l-1 6h6v-5l-5-1zm-654 12l-1 4 4 2-4 1 3 5h3l-2-11-3-1zm654 6q-4 32-19 54h4l14-22q-1-14 6-18v-13l-5-1zm-90 12l-1 6h6v-5l-5-1zm-774 12l-1 14 26 52 15 15-5 6 5 6-11 12 9 9q8-17 33-18l-17-20 11-12-8-10-8 5-7-2q-26-16-33-50l-9-7zm132 6q11 33 38 54h3l-32-47-9-7zm360 0l-1 4 18 14v-3l-17-15zm-126 6l-1 6h6v-5l-5-1zm96 12l-1 6 8 1-2 5 12 3 1 3q12 1 17-6v-3l-11-9-1 2-2-2-9 2-1-1-11-1zm-14 12l-23 21 9 9q7-15 27-18v-3l-13-9zm466 0l-9 12h4l8-11-3-1zm-422 6l-1 6h6v-5l-5-1zm-406 6l-9 10 27 20h3l-15-18-3-11-3-1zm284 0l-4 2q-9 3-7 16h4l14-17-7-1zm142 0l-9 10 11 8h7l-2-11-7-7zm-326 18l-1 4 30 26v-3l-29-27zm192 0l-1 12q13-1 18 6l1-2 4 2 19-6v-12q-24-5-33 5l-3-4-5-1zm-306 6l-1 6h6v-5l-5-1zm356 12l-9 12h4l8-11-3-1zm-332 6l-1 6h6v-5l-5-1zm276 0l-1 6h6v-5l-5-1zm-400 6l-15 15 1 3 11-2q8-3 6-15l-3-1zm146 0l-11 9 11 13-17 17-18 4 8 17q17 9 24 30l22 15 29 30-11 15 29 12 13-2 18-21-11-4-27-27-13 11-48-47-8-16q10-25 29-41-5-12-19-15zm266 0l-1 6h6v-5l-5-1zm24 0l-1 6h6v-5l-5-1zm-426 18l1 6h-1l-1 6h6v4l24 8 3-10-1-2 4-2 6-9-29-1-1 5-11-5zm72 0l-1 18h6v-2l2-4q12-11 40-6v-5l-47-1zm102 6l-1 4 12 8v-3l-11-9zm-126 6l-7 18h4q10-3 8-17l-5-1zm108 0l-1 12-5 2-7 9 8 19 31 30h3l-17-28 2-7 7-6q11 21 29 36l5 11 10 6v6l12 3 18 15v4l19 18 58 32q16-3 22 6l6-5 20 11h13v6q20-3 29 6h25l9 6 6-5 8 5h37l-2-11-3-1-1-5-23-1-1 6h-11l-1-5q-24 3-35-7l-1 8-10-8-13 2-1-1-11-1-1-5-47-10-6-7 2-7q7-10 27-7v-5l-11-1-1 2-23-14-1 2-46-26-13-3q-11-15-29-21l-7 2-1-5-42-37-29-14-1-11-5-1zm126 0l-1 4 12 8v-3l-11-9zm488 6l-99 42-12 1 5 8-5 6 1 3h19q6-8 24-6l88-30v-3l-21-21zm-752 18l-1 6h6v-5l-5-1zm192 0l-1 6h6v-5l-5-1zm24 18l-1 6h6v-5l-5-1zm120 0l-1 4 23 14h7v-3l-10-9-19-6zm616 0q-8 10-23 13l24 30-12 35h4q12-23 32-38l-23-26 5-13-7-1zm-706 18l-1 4 12 8v-3l-11-9zm126 0l-1 6 48 15 23 25-29 26q-20 3-28-6l-19 2-13 16q16-2 23 6h19l9 6 6-5q7 9 27 5l11 6 14-6 17 3 23 26q-3 16-17 22l1 3q17 2 24-6h23l-11-15 18-18 20-8 6 5q6-8 23-6l7-5 6 5 10-6h37l7-5 6 5 6-5 8 5 13-8v-4h-61l-11 6h-95l-6-3-24-24 30-27q25 4 36-6h37q6-8 22-6v-6q-22-3-30 6h-31l-11 6q-35 6-46-12l-14 6h-41l-59-24h-13zm546 0l-1 6h6v-5l-5-1zm-10 6l-15 7 1 5 11-2 6-9-3-1zm-620 18l-1 6h6v-5l-5-1zm-74 48l-4 2-7 8 35 20 25 6 11 6 13-2 6-7-6-7-52-26h-21zm512 6q-3 14 8 18l15-6v-5q-16 1-23-7zm-24 6l-1 6h6v-5l-5-1zm12 12l-1 6h6v-5l-5-1zm-24 6l-1 6h12v-5l-11-1zm-36 6l-1 6h6v-5l-5-1zm12 0l-1 6h6v-5l-5-1zm-366 6l-1 6h6v-5l-5-1zm294 0l-1 6-24 1 1 5h37l11-6h29v-6h-37l-10 5-1-4-5-1zm-282 6l-1 6h18v-5l-17-1zm24 0l-1 4q3 10 18 8v-5l-17-7zm224 0q-5 8-20 6l-1 6h24v-11l-3-1zm-194 12l-1 6h6v-5l-5-1z" class="D"/><path d="M1125 205l11 5 8-5 14 6 1 5 17 6v-3l-1-3 22 19 2 5-5 1 1 11 5 1 1 3 29 3 11 15q-9 13-35 9v5l-6 3v3l-6 1 1 17 1 1-2 11-6 1v11l-9 5q-5-7-17-5l2-5-3-1-3 2 7-14 11-8v-4l-5 2-1-13 6-1v-6h-6v-4l-7-2-12 5-5-2v-3l-24 1 1 5 5 1-6 11-6 1 1 5 1 1-2 5q-15 18-41 24-7-8-24-6l-1 4 2 2-11-6-3-7 3 1h3l-8-12h-4l-5-11 5-1v-6h-6v-4l-26-8 2-5-3-1-3 2 1-10 5 2v-3l-1-3 15-5 10 5 1-12h5l1-32 3 2 6-5 10 6-2 3 5 10q-7 3-5 16l6 1 1 3 37 2 4-2 1-4h5l1-18h5v-6h-2l17-23zm52 29l-1 6h6v-5l-5-1zm-42 6l-1 6 8 1q-10 2-8 17h12v-5l6-1v6h6v-5l18-1v-3l-17-15-1 2-2-2-9 2-1-1-11-1zm-22 18l-15 16 10 8 14-15-9-9zm-70 6l-4 2q-9 3-7 16h4l14-17-7-1zm144 0l-4 2-7 8 11 8 7-2 6-7-13-9zm-136 18l1 6h-1l-1 6h6l1-2 23 14 3-11 9-7v-6q-14-1-18 6-17 2-23-6zm56 6l-9 12h4l8-11-3-1zm-14 18l-1 6h6v-5l-5-1zm145-23l3 1 1 4h-7l2-3 1-2zM367 480l4 2-1 2-3 1v-5zm356 61l28 27 19 2q11-11 40-6l1 6q13 1 18-6h50l4 6 8-5v-2q5-6 18-5l4 6 5 1-3 5 1 1q-6 6-18 5l-4-6-9 6 1 1-10 5h-50l-11-6-8 6h-16q-9 9-29 7v25q9 8 6 28l-5 10-3 1-4-2v-3l-6 1 1 5 3 1-8 6-8 22v13l-11 28-4 2h-9q-5-29 6-40v-85l-7-1-11 6q-19-2-26 6l-11-6-8 6 1 1-93 37-49 43-7 2-8-5-2-7 18-20 23-11 65-50 8 10 47-20 16-15 7 9-5 8h4l9-6h13l16-6q3-21-5-31l8-10zm18 35l-15 15 12 16v35h4l8-10q2-15-6-20-3-20 6-27l-9-9zm-78 18l-3 6h6v-5l-3-1zm438 49l30 30 14 21-8 7-6-5q-11 3-9 20l12 29v17l-6 11v31l-8 11-13-11-12 11-8-8 5-7v-51l-6-11v-19q-8-7-6-22l18-23v-15l-5-8 8-8zm12 35l-15 17v19h6q3-20 18-27l-9-9zm-8 42l-1 20q9 8 7 28h5v-25q-8-7-6-22l-5-1zm-715-68l1 2 1 1-2 5h-5l5-8zm305 27l1 1 1 4 4 1-23 58v13l-6 9-7 2-15-11h-15q-32 11-51 34l-6-7 23-36 36-24 35-15q3-20 19-27l4-2zm-32 47l-14 6-1 4 10 8q10-3 8-17l-3-1zm-172-30l6 2v3h-4l-2-5zm421 86l1 4 5-2v8l-6 9-11 3-1-5 12-17zm-93 71l12 12 9 20-6 4 1 11 5 3h1l4 11-5 10 3 1 2 5-5 1 1 5 5 1 5 19-2 4-3 1v5h-6l-6-17 6-1q0-16-11-21l5-6q-2-10-14-9l8-19-6-9-3-2-3 2v-2l-6 1v5l-18 15v3l-6 1v5l-17 5-1-5h-10l7-5v-2l54-52zm-86 59l15 1-4 2 1 3 11-6 1 6 9 1-13 10-6-5-38 20-12 12-1-2-12 1v5h-7l-23 15-12 4-6 15 5 6-5 8 4 1-14 12-2 9 2 2h-5l-13 13-10 16-7-5q-11 15-33 19v4l-14-5 21-21q6-5 21-3v1l-4 2 1 3 11-6 6-17-2-1 18-24q11-11 8-35l13-16 7-2 8 5 9-9 30-15 11-2q11-15 31-22zm-28 24l-3 6h4l2-5-3-1zm-48 24l-3 6h4l2-5-3-1zm193 18l2 1q11 12 6 41l-5 10-7 5 1 3 3 2-25 40-13 13-23 35-19 19-2 11-28 25-14 20q-24 9-35 29l-1-8h-10l50-48 2-9-1-3h7l1-6h11l1-12 15-12 2-5-4-1 20-18 21-30h3l15-24 9-6 9-18h5v-6h-6l1-42h5l4-6zm-13 66l-3 3 1 3 5-2v-3l-3-1zm-102 132l-3 6h4l2-5-3-1zm-57 70v11l-1 2h-4l-1-4 6-9z" class="D"/></g><path opacity=".02" d="M1225 174l23 1v19l-21-2-3 2 1-20zm93 336l8 4v2l-11-2 1-3 2-1zm18 13l1 1-1 2-2 1v-1l2-3zM283 564l5 1-1 10-4 1v-12zm-43 220v5l-1 2-7 1 1-2 7-6zm1150 20l2 1-3 5h-2l3-6zM370 816l8 1-3 5-8-3 1-2 2-1zm-129 12l47 1 1 5 7 1-3 4-9-5h-44l1-6zm64 6l11 6h-3l-8-6zm-75 12l10 1v11l-9-6-1-6zm431 210l10 2v3l-10 1v-6zm795 24l7 2 1 19-1 2-4 1-3-18h-4l4-6zm-66 24l4 1-1 3-4 2h-3l2-5 2-1zm-80 7l3 1 1 4h-5l-1-2 2-3zm-940 17l13 2 1 22h-5l-9-12h-4l2-11 2-1zm327 46l17 3-3 5-13 5-4-4 2-1 1-8zm-186 14l4 2 3 10h-4q-6-2-3-12zm19 7l3 1 3 4h-11v-1l4-2 1-2zm-73 5l23 1-1 10q-10-9-31-5l9-6zm-150 18l5 1-1 4h-4v-5zm1009 2l4 2v2h-6l2-4zm-19 34l5 1-2 4-4-2 1-3z" fill="#01c4fd" stroke="#01c4fd" class="B"/><g fill="#00fefe" stroke="#00fefe" class="B"><path d="M1490 175l3 1 1 20h-1q-6-6-5-18l2-3zm-262 17q16-4 20 4l-1 43-19 1-3-1-1-43 4-4zm-18 90l26 1-3 5-26-1 1-4 2-1zm33 0l5 1v2l-4 2-1-5zm33 6l19 2 1 19-1 2-19 1-3-1-1-19 2-3 2-1zm24 48l43 2-5 7q-12 12-38 9l-3-1-1-13 2-3 2-1zM172 432l19 2 1 19-1 2-19 1-3-1-1-19 2-3 2-1zm306 138l2 1-1 22-10 1-1-5 10-19zm-45 34l11 6-8 13h-3v-19zm-41 45l3 1v3l-4 1-1-2 2-3zM50 691l3 1v3h-4l1-4zm266 53l19 2 1 70h-41l-7-18v-26l2-3 28-1-6-20 2-3 2-1zm48 48l25 2 2 22 16 2 1 19-1 2-23 2q4 20-9 23l-15 1-3 17-17 23h-3l-1-23q-8 8-24 7l-1 22-10 1-10-6-3-14 2-3 22-1 2-23 46-1 2-23 22-1v-24h-24l2-23 2-1zm-97 1l2 1 1 13-1 2h-4l-1-13 3-3zm25 35l20 1v5l-23-1 1-4 2-1zm456 252l13 2q-1 14 6 21l-19 1-3-1-1-19 2-3 2-1zm-624 48l8 4q1 12-8 13h-3l-1-13 2-3 2-1zm1296 0l19 2 2 22 22 2 1 19-1 2-10 1-10-6-3-18q-16 2-21-6l-3-14 2-3 2-1zm-935 1l6 15-5 6 2 2-2 1v1q-8-5-6-19l3-5 2-1zm-25 47l43 2 1 10h-47l-1-8 2-3 2-1zm177 0l4 2 1 19-1 2h-4v-23zm-153 24h50l16 6 2-1-6 10-29 9-37-12 2-11 2-1zm-360 48l20 1q-2 15-12 22l-1 144-7 1-3-1-1-163 2-3 2-1zm1080 24l19 2 1 43-1 2-13 1-3-1q1-16-7-23v-20l2-3 2-1zm96 0l19 2-11 19-12 4q3 15-3 23l-41 47h-3l-1-19 2-3 21-3 3-45 22-1 2-23 2-1zm-48 144l4 1-3 16h-4l-1-13 2-3 2-1z" class="C"/></g><path opacity=".027" d="M1102 193l1 1 1 46h-5l-1-41 4-6zm40 90l3 1 2 2 3 2h-13v-1l4-2 1-2zM486 652v2l-5 10-1-3 6-9zm-148 3l3 1 1 7-1 2h-4l-1-7 2-3zm156 78l3 1 1 6-2-2-3 2-1-4 2-3zm401 77l7 1-6 4-1-5zm-745 26v13l-4 2-4-10 6-1 2-4zm607 70l3 1-9 7-1-2h-4l11-6zm103 241l3 1v3l-4 3-1-2h-4l5-3 1-2zm-307 9l3 2 2-1 1 1 2 1 3 5 1-2 15 3-8 4-2-3-5-2-1 2-12-2 1-8zm102 0l3 2 2-1v7h-6l1-8zm-389 21l3 1v3h-4l1-4zm514 81v8h-2l-3-1 5-7z" fill="#3e4747" stroke="#3e4747" class="B"/><path opacity=".694" d="M1055 228l7 1-5 7-2-8zm1 16v5l-1 2h-4l-1-4 6-3zm57 69l2 1-10 12-1-2h-2l11-11zm-74 3l5 8h-2l-5-2-1-3 2-1 1-2zm-574 9l5 5h-9l4-5zm289 101l2 1-3 5h-3l4-6zm-296 1l3 1v3h-4l1-4zm185 5l5 4v2l-5-1v-5zm-150 36l5 4v4l-5-8zM381 583l2 1-10 12-1-2h-2l11-11zm-74 3l5 8h-2l-5-2-1-3 2-1 1-2zm186 18l4 10-4 6v-16zm-12 18l7 3-6 4-1-7zM48 772v5l-6 5-2-7 8-3zm874 2l2 1-6 8-5 2-1-1 6-8 4-2zM25 862l11 14h-2l-5-2-7-9 2-1 1-2zm789 20l2 1-1 4h-4l1-4 2-1zm-227 169l1 1-3 4h-3l1-3 4-2zm228 5l6 2-4 6-2-8zm-183 25l3 1v3h-4l1-4zm-46 47l2 1-1 4h-4l1-4 2-1zm-424 16l2 8-2 1v1l-5-6 5-4zm446 39l3 1v3l-4 1-1-2 2-3zm68 41l13 2-17 19-9 3v-1l7-5 4-17 2-1zm-463 7l2 1-10 12-1-2h-2l11-11zm-74 3l4 7h-2l-4-1-1-3 2-1 1-2z" fill="#eeedee" stroke="#eeedee" class="B"/><g fill="#e0d8ef" stroke="#e0d8ef" class="B"><path d="M385 170v2h-1l1-2zm23 0v2h-1l1-2zm744 0v2h-1l1-2zm73 0v2h-1l1-2zm23 0v2h-1l1-2zm-159 10l1 1h-1v-1zm0 11l1 1h-1v-1zm96 19l1 1h-1v-1zm-26 2v2h-1l1-2zm24 0v2h-1l1-2zm5 0v2h-1l1-2zm-3 3l1 1h-1v-1zm-414 6l1 1h-1v-1zm334 9v2h-1l1-2zm-43 1l-5 6-1-2 6-4zm45 2l1 1h-1v-1zm-125 1q6 4-4 9l-47 23-29 29-2 7 25 26 27 2 2 3-2 3h-27q-9-9-30-6l-10-6q-12 15-32 20l-31 31 25 25 41 2 28 24q11-16 36-18l2 3-22 22-2 7q8 5 6 20-4 7-9-4-3-25-21-34l-22-8h-13l-11-6q-18 3-25-3l-48-47q15-9 20-28l9-2 48-42-18-19 43-15h13l11-6h31q8-9 30-6l8-6zm197 0l3 3-2 3-4-2 3-4zm-78 6l1 1h-1v-1zm96 0l1 1h-1v-1zm-141 3l-2 3h-4l6-3zm-219 3l1 1h-1v-1zm-2 2v2h-1l1-2zm194 3l1 1h-1v-1zm24 0l1 1h-1v-1zm48 0l1 1h-1v-1zm96 0l1 1h-1v-1zm-414 2l17 11 18-11 16 15q-3 5-6-2l-7-2-29 21-19 8-8-5-2-7q6-18 20-28zm330 6l8 8-13 14-9-7 14-15zm-68 5l5 3-15 15-3-2 7-13 6-3zm142 1l12 8-5 6-7 2-10-7 6-7 4-2zm-560 23l1 1h-1v-1zm481 0l2 3-9 9-3-2 10-10zm65 0l1 1h-1v-1zm-548 2v2h-1l1-2zm5 0v2h-1l1-2zm541 0v2h-1l1-2zm5 0v2h-1l1-2zm-549 3l1 1h-1v-1zm546 0l1 1h-1v-1zm-144 1l1 1h-1v-1zm168 0l1 1h-1v-1zm-170 2v2h-1l1-2zm-108 3v2h-1l1-2zm200 1l1 1h-1v-1zm3 2v2h-1l1-2zm-27 4l3 3-2 3-4-2 3-4zm-386 2v2h-1l1-2zm17 0v2h-1l1-2zm-171 16l3 3-2 3-4-2 3-4zm175 0l2 6-9 12-3-5 10-13zm461 0l1 1h-1v-1zm-654 6l3 3-2 3-4-2 3-4zm654 5l1 1h-1v-1zm-678 1l9 3-2 3-10-2 3-4zm-17 6l2 10-9 2-3-2 10-10zm491 0l3 3-2 3-4-2 3-4zm12 0l3 3-2 3-4-2 3-4zm-522 12l3 3-2 3-4-2 3-4zm603 5l1 1h-1v-1zm-615 1l3 3-2 3-4-2 3-4zm638 1l24 17h35l2 3-12 13 37 30 28 14h7l53 30h19l11 6q15-4 19 3l-6 7 12 12-2 2-35-18-23 21 19 19 11 5-6 7 37 36 53 29-21 20-33-33-63-44-2-7 5-12-30-33-93-50-15 12h-41l-16-12q-22 16-35 41l-28-27-11-5-37-36 3-3h39l11 6h19l29 12h9l28-26-15-16-2-7 12-14 4-2zm-730 5l5 3-45 39-3-2 37-37 6-3zm78 0l5 3-18 19q10 4 4 8l-13-12q-16 23-44 32l-79 79 5 7q-12 4-11 22l11 18-7 9-17-11-21 19-20 34q1 13-6 18v13l-18 41q2 17-6 24v25l-6 10 5 6-5 7v25q-9 7-6 26l5 12q-7 4-5 18l6 11q-3 20 5 31l-5 8q11 9 6 34l12 20q-4 6-8-4l-17 11-8-5q-5 10-9 4v-17q-8-7-6-24-12-12-17-30l17-20q-14-6-17-22l11-14q-10-6-12-18 19-6 28-21l2-29q8-7 6-24l6-10-11-16 23-33 12-39-5-8 15-15 29-53 25-31 11-23 52-52 11-5 25-25 36-21 11-2 13-10zm272 7l18 18 3 15-2 2-24-24-16 15-7 2-11-8 16-8 6 5 17-17zm-62 17l5 3-2 3-9 2-23 23-4 11q-13 3-16-2l6-11-5-8q10-15 31-20l8 5 9-6zm-172 12l1 1h-1v-1zm-134 2v2h-1l1-2zm132 0v2h-1l1-2zm5 0v2h-1l1-2zm324 0v2h-1l1-2zm-327 3l1 1h-1v-1zm204 2l14 14-5 6q-9 7-27 3l-3-2 21-21zm105 4l1 1h-1v-1zm-339 13l1 1h-1v-1zm-2 2v2h-1l1-2zm5 0v2h-1l1-2zm-3 3l1 1h-1v-1zm-240 25l1 1h-1v-1zm48 0l1 1h-1v-1zm-50 2v2h-1l1-2zm5 0v2h-1l1-2zm43 0v2h-1l1-2zm5 0v2h-1l1-2zm-51 3l1 1h-1v-1zm48 0l1 1h-1v-1zm226 10l5 7h-1l-4-7zm-130 9l1 1h-1v-1zm42 0l1 1h-1v-1zm-44 2v2h-1l1-2zm5 0v2h-1l1-2zm37 0v2h-1l1-2zm5 0v2h-1l1-2zm931 0v2h-1l1-2zm-976 3l1 1h-1v-1zm42 0l1 1h-1v-1zm102 7l1 1h-1v-1zm-2 2v2h-1l1-2zm5 0v2h-1l1-2zm-3 3l1 1h-1v-1zm-107 1l2 6-24 28 5 10-7 9-7-5-2-7 33-41zm11 0l3 3-2 3-4-2 3-4zm-38 2v2h-1l1-2zm918 0v2h-1l1-2zm-916 3l1 1h-1v-1zm720 1l8 6 13 3q1 14 12 19l-2 2-10-10q-16-5-24-17l3-3zm-144 6q15 10 20 32l-20 22-3-2v-49l3-3zm-584 2v2h-1l1-2zm2 3l1 1h-1v-1zm84 7q13 2 18 13l2 7-11 13-7 2-8-5-2-7 11-14q-10-5-3-9zm-195 2v2h-1l1-2zm-39 3l1 1h-1v-1zm36 0l1 1h-1v-1zm144 1l1 1h-1v-1zm-2 2v2h-1l1-2zm5 0v2h-1l1-2zm-3 3l1 1h-1v-1zm750 13l72 34 16 12 103 56 23-21 7-2 19 18q5 15 18 24l11 23 40 52-2 2-28-28q-16-5-24-18l-23-11-37-31-17-2-10-6-21 22 49 48 23 5-6 7 14 20 55 55 9 15-2 2-10-10-39-26-21 23v99l5 12-5 12q8 5 6 20l-3 2-15-42v-13l-17-48 17-20-39-39-27-51q3-6 7 1l13 2 20-18 2-7-84-87-11-5-31-31-11-5q-20-26-49-42l3-3zm-825 14v2h-1l1-2zm-3 3l1 1h-1v-1zm-24 1l1 1h-1v-1zm-2 2v2h-1l1-2zm-16 4l1 1h-1v-1zm3 2v2h-1l1-2zm81 4l3 3-2 3-4-2 3-4zm378 1l8 8q-9 7-5 29l6 16-9 12-3-2v-35l-11-14 14-14zm306 5l20 15-7 13-13 2-3-2v-25l3-3zm-714 18l1 1h-1v-1zm-2 2v2h-1l1-2zm5 0v2h-1l1-2zm19 0v2h-1l1-2zm1080 0v2h-1l1-2zm-1102 3l1 1h-1v-1zm-72 1l1 1h-1v-1zm52 2v2h-1l1-2zm2 3l1 1h-1v-1zm183 0v2h-1l1-2zm-180 9v2h-1l1-2zm163 1l5 3h-1l-4-3zm-310 2l1 1h-1v-1zm144 0l1 1h-1v-1zm-122 27v2h-1l1-2zm2 3l1 1h-1v-1zm192 7l1 1h-1v-1zm-2 2v2h-1l1-2zm5 0v2h-1l1-2zm-3 3l1 1h-1v-1zm-204 1l1 1h-1v-1z"/><path d="M181 668v2h-1l1-2zm5 0v2h-1l1-2zm-3 3l1 1h-1v-1zm930 8l8 8q-15 8-19 27l-4-2v-15l15-18zm-6 41l3 3q-2 15 6 22v21l-3 2q-7-4-3-19l-6-11v-15l3-3zm-443 6l2 6-8 11-10-8 16-9zm-199 36l13 6q4-10 8-3l-3 9-42 60q-6-3 1-6l8-16 15-50zm-348 6l13 6 12-6 2 6-18 22 5 6q-7 9-22 10l-16 15-15-14 3-3 9-2 16-16 11-24zm1068 6l44 68-14 16-9-31-24-50 3-3zM48 777l-5 6-1-2 6-4zm45 2l1 1h-1v-1zm1395 9v2h-1l1-2zm-1055 6v2h-1l1-2zm-418 3l1 1h-1v-1zm420 0l1 1h-1v-1zM28 810l2 6-9 12-3-5 10-13zm-13 30l1 1h-1v-1zm-2 2v2h-1l1-2zm78 4l5 3q-6 12-21 15l-3-2 13-13 6-3zm149 14v2h-1l1-2zm-3 3l1 1h-1v-1zm-108 7l3 3-2 3-4-2 3-4zm-78 6l1 1h-1v-1zm379 0l2 6-9 12-3-5 10-13zm1037 0l1 1h-1v-1zM49 878v2h-1l1-2zm5 0v2h-1l1-2zm-3 3l1 1h-1v-1zm760 3v2h-1l1-2zm2 3l1 1h-1v-1zm654 0l1 1h-1v-1zm-366 7l3 3 7 13 14 9 33 48v41l-8 24-10-2-2-9-24-36-13-13-4-12-11-2-6-16v-21l12-4 9-23zm-312 12l1 1h-1v-1zm486 0l3 3-2 3-4-2 3-4zm-488 2v2h-1l1-2zm5 0v2h-1l1-2zm-3 3l1 1h-1v-1zm-21 3v2h-1l1-2zm513 4l3 3 8 21 7 7 29 53 25 24 19-18 2 3v63l-6 10 11 12-11 12 6 14-6 11v85l-6 11v35l-2 2-4-2q3-20-6-28v-37l-6-11v-19l-12-35v-25l-20-23-20 19q-1 15-10 22l-13-11-18 18-3-2q3-24-5-35l5-9v-41l3-3 25 24 26-28v-39q-9-9-6-30l-18-50 3-3zm-1152 6l3 3-2 9-4-2 3-10zm1260 0l1 1h-1v-1zm0 11l1 1h-1v-1zm-552 12l1 1h-1v-1zm-702 1l3 3-2 3-4-2 3-4zm550 8v2h-1l1-2zm-304 4l3 3-2 3-4-2 3-4zm-246 6l3 3 6 13q-5 6-9-4l-3-9 3-3zm708 0l1 1h-1v-1zm-648 6l3 3-2 3-4-2 3-4zm648 11l1 1h-1v-1zm-504 18l1 1h-1v-1zm-198 1l9 3q3 12-2 15l-4-2-6-13 3-3zm232 14v2h-1l1-2zm2 3l1 1h-1v-1zm-222 7l3 3v11q7 4 6 18l12 20-9 2-9-18v-13q-8-6-6-20l3-3zm690 0l1 1h-1v-1zm-2 2v2h-1l1-2zm5 0v2h-1l1-2zm-3 3l1 1h-1v-1zm-480 13l1 1h-1v-1zm672 0l3 3-2 3-4-2 3-4zm-672 11l1 1h-1v-1zm294 1l1 1h-1v-1zm157 0l2 6h-1l-1-6zm-159 2v2h-1l1-2zm5 0v2h-1l1-2zm-3 3l1 1h-1v-1zm378 1l3 3-6 27-15 24q-6-3 1-6l8-16 9-32zm-90 12l3 3-2 3-4-2 3-4zm-312 6l1 1h-1v-1zm48 0l1 1h-1v-1zm-489 2v2h-1l1-2zm439 0v2h-1l1-2zm5 0v2h-1l1-2zm43 0v2h-1l1-2zm5 0v2h-1l1-2zm-495 3l1 1h-1v-1zm444 0l1 1h-1v-1zm48 0l1 1h-1v-1zm-510 1l9 13v7l8 16 23 22 7 2 8-5 7 9-11 12 18 18-2 2-15 2-16 15-8-8 11-12-5-6 5-6-15-15-27-54v-9l3-3zm132 6l39 52-2 2-19-18-21-33 3-3zm360 0l15 16-2 2-16-15 3-3zm-126 6l3 3-2 3-4-2 3-4zm-105 2v2h-1l1-2zm169 0v2h-1l1-2zm2 3l1 1h-1v-1zm-78 7l1 1h-1v-1zm42 0l1 1h-1v-1zm126 0l1 1h-1v-1zm-62 2v2h-1l1-2zm-106 9l1 1h-1v-1zm559 1l2 3-9 9-3-2 10-10zm-467 1l13 9q-19 4-27 19l-8-8 22-20zm772 5l1 1h-1v-1zm-1154 2v2h-1l1-2zm125 0v2h-1l1-2zm223 0v2h-1l1-2zm-346 3l1 1h-1v-1zm348 0l1 1h-1v-1zm-329 1q4 19 20 28-3 5-6-2-15-5-23-16l9-10zm285 0l5 3-15 15-3-2 7-13 6-3zm140 1l6 6 3 9-5 2-12-8 8-9zm-519 8l-3 4h-3l6-4zm1113 3l1 1h-1v-1zm18 0l1 1h-1v-1zm-20 2v2h-1l1-2zm5 0v2h-1l1-2zm13 0v2h-1l1-2zm5 0v2h-1l1-2zm-21 3l1 1h-1v-1zm18 0l1 1h-1v-1zm-936 1l27 28-2 2-28-27 3-3zm24 0l1 1h-1v-1zm-2 2v2h-1l1-2zm5 0v2h-1l1-2zm108 0v2h-1l1-2zm-111 3l1 1h-1v-1zm108 0l1 1h-1v-1zm-360 1l1 1h-1v-1zm540 0l1 1h-1v-1zm-117 2v2h-1l1-2zm115 0v2h-1l1-2zm5 0v2h-1l1-2zm-123 3l1 1h-1v-1zm120 0l1 1h-1v-1zm-144 1l1 1h-1v-1zm-351 2v2h-1l1-2zm349 0v2h-1l1-2zm5 0v2h-1l1-2zm-399 3l1 1h-1v-1zm42 0l1 1h-1v-1zm354 0l1 1h-1v-1zm73 1l2 3-9 9-3-2 10-10zm-55 6l3 3-2 3-4-2 3-4zm174 0l1 1h-1v-1zm3 2v2h-1l1-2zm-578 4l2 6-6 9-9 3-3-2 16-16zm413 0l3 3-2 3-4-2 3-4zm24 0l3 3-2 3-4-2 3-4zm30 0l1 1h-1v-1zm-322 1q13 2 18 14-19 16-29 41l8 16 49 48 13-11 27 27 11 5-18 18-11 3-31-14 12-13-30-31-21-14-5-11q-18-14-28-34l18-5 18-18-11-13 10-8zm325 1v2h-1l1-2zm75 10l1 1h-1v-1zm-126 6l1 1h-1v-1zm-2 2v2h-1l1-2zm5 0v2h-1l1-2zm19 0v2h-1l1-2zm-22 3l1 1h-1v-1zm126 0l1 1h-1v-1zm-360 1l9 10-2 2-10-9 3-3zm126 0l1 1h-1v-1zm-297 2v2h-1l1-2zm295 0v2h-1l1-2zm5 0v2h-1l1-2zm-303 3l1 1h-1v-1zm300 0l1 1h-1v-1zm-252 1l3 3-9 15q-6-3 1-6l5-12zm234 0l9 10-2 2-10-9 3-3zm486 7l21 21-90 32q-18-2-24 6h-15q-7-4 3-8l-6-7 14-3 97-41zm-231 7v2l-23 20v-1l22-19 1-2zm-519 10l3 3-2 3-4-2 3-4zm192 0l3 3-2 3-4-2 3-4zm-120 6l1 1h-1v-1zm-2 2v2h-1l1-2zm5 0v2h-1l1-2zm-3 3l1 1h-1v-1zm-92 3v2h-1l1-2zm11 0v2h-1l1-2zm25 0v2h-1l1-2zm68 4l1 1h-1v-1zm132 0l3 3-2 3-4-2 3-4zm120 0l8 6 13 3 6 7-5 2-25-15 3-3zm616 0l5 3-6 11 23 26q-20 15-32 38-6-3 1-6l8-22v-9l-24-26 25-15zm-870 2v2h-1l1-2zm5 0v2h-1l1-2zm-3 3l1 1h-1v-1zm-60 7l1 1h-1v-1zm-2 2v2h-1l1-2zm224 4l9 10-2 2-10-9 3-3zm126 0l27 6 41 18h45l12-5 15 11h33l11-6h31q7-9 26-6l2 4-24 8h-37q-11 10-36 6l-29 27 25 25 4 2h99l11-6h57q6 4-4 9l-7 2-8-5-6 5-6-5-9 6h-37l-8 5-6-5-9 6q-16-2-21 5l-6-5-20 8-19 19 12 13-2 2h-23q-6 8-20 6l-3-2 16-16 2-7-24-27-19-2-12 5q-9-8-28-5l-10-6-6 5-7-5h-19l-25-8q7-16 30-16 9 10 32 6l28-26-24-26-48-16 3-4zm546 0l3 3-2 3-4-2 3-4zm-866 2v2h-1l1-2zm855 4q7 5-4 9l-9 3-3-3 16-9zm15 14v2h-1l1-2zm-634 4l3 3-2 3-4-2 3-4zm-86 2v2h-1l1-2zm680 16l1 1h-1v-1zm-2 2v2h-1l1-2zm5 0v2h-1l1-2zm-3 3l1 1h-1v-1zm303 6v2h-1l1-2zm-1050 15v2h-1l1-2zm210 0v2h-1l1-2zm381 10l8 6 13 3-2 3-13 5-9-14 3-3zm-24 6l3 3-2 3-4-2 3-4zm12 12l1 1h-1v-1zm-2 2v2h-1l1-2zm5 0v2h-1l1-2zm-3 3l1 1h-1v-1zm-26 3v2h-1l1-2zm11 0v2h-1l1-2zm-45 4l1 1h-1v-1zm12 0l1 1h-1v-1zm-14 2v2h-1l1-2zm5 0v2h-1l1-2zm7 0v2h-1l1-2zm5 0v2h-1l1-2zm-15 3l1 1h-1v-1zm12 0l1 1h-1v-1zm-366 1l3 3-2 3-4-2 3-4zm-57 2v2h-1l1-2zm198 0v2h-1l1-2zm13 0v2h-1l1-2zm23 0v2h-1l1-2zm115 0v2h-1l1-2zm47 0v2h-1l1-2zm-399 3l1 1h-1v-1zm354 0l1 1h-1v-1zm-282 1q12-3 15 3l-2 3q-13 3-16-2l3-4zm24 0l15 9-2 3-16-9 3-3zm232 2v2h-1l1-2zm-30 6v2h-1l1-2zm-172 4l3 3-2 3-4-2 3-4zm-80 8v2h-1l1-2zm23 0v2h-1l1-2zm337 0v2h-1l1-2zm-358 3l1 1h-1v-1zm-2 21v2h-1l1-2zm47 0v2h-1l1-2zm25 0v2h-1l1-2zm95 0v2h-1l1-2zm49 0v2h-1l1-2zm95 0v2h-1l1-2zm145 0v2h-1l1-2zm23 0v2h-1l1-2z"/></g><path fill="#9fbcb3" stroke="#9fbcb3" opacity=".659" d="M1135 258l10 2v3l-7 1-3-1v-5z" class="B"/><path opacity=".988" d="M1491 174l1 1h-1v-1zm-337 84l4 2v4h-6l2-6zm78 0l7 1-3 5-6-3 2-3zm14 0l8 6h-1l-7-6zm36 6l2 1v5h-3l2-1v-4l-1-1zm6 0l2 1v5h-3l2-1v-4l-1-1zm8 2v2h-1l1-2zm-37 4l4 1-3 11h-3l2-1-5-8 5-3zm-51 12l1 1-2 1 1 3 1 1h-1l-2-4 2-2zm35 3v2h-1l1-2zm73 225l1 1-2 1 3 5-4-3 2-4zm11 6l5 3h-1l-4-3zm8 6l3 1v3l-4 2 2 1q-6 7-21 5l-1-2 6-9 1 5 11-3 1 1 2-4zm1 1l-2 3h2l1-2-1-1zm-909 2l1 2h3l1-2v2l-4 1-1-3zm7 3l1 1-2 1 1 3h3l1-2v2l-4 1-2-4 2-2zm2 30l2 2v1l-1-2-1-1zm39 0l5 3v3l-5 3v-9zm6 0l15 7 2 4-8 1v-1h1l-2-4 1-2-9-5zm-197 3v2h3l1-2v3h-5l-1-1 2-2zm151 3l3 1v2l-1-2-3 2-1 3-1-1 3-5zm-42 84l1 1h-1v-1zm3 2v2h-1l1-2zM51 690l1 1h-1v-1zm-2 2v2h-1l1-2zm5 0v2h-1l1-2zm-3 3l1 1h-1v-1zm3 98v4l-2 1v-1h1l1-4zm183 5l6 1-5 11h-13l2-1v-4l-2 1 1-2h2l1-3 1 2h3l4-5zm10 6l5 1-2 5-4-2 1-4zm18 3l1 2 2 1h-3v-3zm-18 9l5 1v5h-6l1-6zm24 0l5 1v5h-6l1-6zm22 0l1 1-11 5v-1l10-5zm4 0l-3 4-4 2-4 6 4-6h-2l9-6zm40 0l5 3h-1l-4-3zm30 0l2 1-2 1 2 2 3 2h-1l-5-2 1-4zm-127 12v3l-2 1 2-4zm49 0l2 1-2 1 1 3 1 1h-2v-6zm-131 6l1 1-2 1 1 3 1 1h-1l-2-4 2-2zm125 0l10 5 4-5-3 4v2l-11-6zm21 0l19 11v-2l-1-3 2 6h-3l-17-12zm6 0l8 6h-1l-7-6zm-81 6l5 1-2 5-3 1v-7zm72 0l5 3v3h-3l2-1-1-3-3-2zm6 0l8 6-3-3-5-3zm23 2v2h-1l1-2zm342 216v2h-1l1-2zm715 22l5 2 1-2 2 6h-7l-1-6zm20 0l9 1v5h-18l9-6zm22 0l20 1-2 1 1 3h3l4-5-3 4 1 2 3 1 2 5h-1l-2-5-3 11 6 1v5l-17 2-1-2h-5l8-5 2-5v-2h1l-1-6-5 1v1l-12-2 1-6zm25 19l-1 4h4v-3l-3-1zm-144 5l4 2v7l-1-2-4 1v1l-1-7 2-2zm78 0l1 1-2 1v1l-1-1 2-2zm7 0v2l-2 4-1-2-3 2 4-2 2-4zm22 0l2 1-2 1 1 3 1 1h-2v-6zm-720 22l20 2 3 4v2q-20 4-26-5l2-1 1-2zm-35 2l1 1-2 1 1 3h3l1-2v2l-4 1-2-4 2-2zm72 0l13 1-3 8 3 3-15-9 2-3zm31 0l-9 10-5 2v-1l14-11zm-279 1v2h-1l1-2zm-354 8l-8 9-4-1 1-2 1 2 10-8zm357 2l3 5-5 6 2 2-3-3 5-6-2-4zm252 1l3 1-2 5-1-1 2-3-2-1-4 1 4-2zm3 9l1 4-1 5h-6l6-9zm-36 3l12 3-2 9-21 2-1-2h-2l14-12zm25 6l5 3v3l-6-2 1-4zm-93 18l2 2v1l-1-2-1-1zm63 8l-3 4h-2l5-4zm-270 4l2 1-2 1 2 4-2 1-1-3 1-4zm26 0h25l2 3v7l-4 2 1 1-2 1v1l-1-3q-24-5-32 6l-4-11 15-7zm12 7l-2 3 3 1 1-2-2-2zm31-7l4 5h3v-4h-2l3-1v6h-5l-3-6zm-5 6l7 3v3h-3l2-1-1-3-5-1-4 3 1 1 1 1h-2l-1-3 5-3zm33 0l4 2 3 4-4-3v-2l-4 1v1l-1-1 2-2zm112 3v2l-3 1v-1h2l1-2zm-96 6v3h-2l2-3zm-77 3l10 5 1-2 1 3 3 2-1-1-14-7zm-161 6l4 2v4h-6l2-6zm0 1l-1 4h4v-3l-3-1zm1008 6l-2 3 1 2 2 1-2 1 5 10h-3l-4-6h-11l1-4 13-7zm-1009 2l1 2h3l1-2v2l-4 1-1-3zm912 3l5 1-3 5-3-1 1-5zm13 0q25-5 34 6l-17 2-1-2-6 1v1l-10-8zm36 6l27 1-17 5-10-6zm-62 10l1 2h5l1-2 2 2h28l10 6h-52v-1l5-7zm102 0l1 2 5-1v5l-18 9v1l-21-2-8-5-1 5h-6v-3l-6-2 19-2 17 1 1-2 6 2 11-8zm-57 193l1 1h-1v-1z" fill="#0fc4fc" stroke="#0fc4fc" class="B"/><path opacity=".741" d="M1240 258l13 6 30 2v3l-11 2-2 9-5 2 1-2v-10l-12 3 5 8-10 3-1-2h-16l10-8-8-9 2-1 4-6zm51 6l4 2v3l-4 1v-6zM425 522l9 1-3 4h-4l-2-5zm11 6l2 1-1 4h-4l1-4 2-1zm43 30l11 6 1 3v2l-10 3-1-2-5 2-1-4 6-4-1-6zm-43 7l1 1-4 6-1-1 4-6zM53 793v4l-4 1-1-2 5-3zm210 3l1 1v13h-14l2-5-5-1-1 4 2 2h-10l6-12 19-2zm-37 9l1 1v3l-3 1-1-1 3-4zm-2 11l22 1v5l-6 1 2 5h-13l-1-6h-3l-1-6zm29 0l17 1v5h-18l1-6zm24 0l15 1-15 5v-6zm21 0l16 1q-4 15-27 11l4-7 7-5zm-58 15l1 3 1 1-2 5h60l5 4v1l-72 1-1-1 2-4-2-1 8-9zm-80 3l2 1v5l-5-1 1-4 2-1zm149 6l11 6h-4l-7-6zm14 0l6 2v3l-4 1-2-6zm1094 240l11 1v5h-12l1-6zm-680 54l9 6-8 3 1 3 5 1-6 13-5-2-1 4 2 2h-16l2-9-1-3q13 2 17-6l2-7-1-5zm-281 52l1 2 1 1-14 6v7l-10-7-1-3 1-3 22-3zm29 2q15-4 19 4l1 2 5 1 2 5h-7l-1-4-7-2-5 3v3h-10l4-2-1-10z" fill="#13c4fa" stroke="#13c4fa" class="B"/><path opacity=".569" d="M1247 258q20-3 29 6h-21l-8-6zm38 6l4 2v3l-4 1v-6zm-21 6l2 1q2 9-3 11h-3l4-12zm63 244l3 2-4 1 6 3 1 2 1 1-1 3-2-1-10 3-3-11 8-1 1-2zm-844 44l13 3 2 7h-1l-1-4-13-6zM229 798l7 1-3 4h-4v-5zm65 16l1 2 1 1-7 4-1-1 6-3-2-1 2-2zm22 2q19-3 26 6v-3l-4-2 12-1-2 3 1 3 7 6h-51l11-12zm-72 18h38l8 6h-49l-1-2 4-4zm75 4l3 2 1 3v2l-9-4 4-1 1-2zm-16 2l11 6h-7l-1-4-3-2zm1088 240l1 1v1l-1-2zm3 0l12 1-10 5-2-6zm56 0l4 1-3 4h-4l1-4 2-1zm5 7l3 11h-5l-1-8 3-3zm-59 17l20 1v5h-23l3-6zm-4 4v2h-1l1-2zm-728 20l2 1-1 4h-4l1-4 2-1zm77 13l2 1-2 4h-3l3-5zm-236 45l4 4v3h-4l-3-4 2-1 1-2zm-81 2l8 1 2 5h-13l-1-2 4-4zm73 7l6 3v1l-7 1-3-1 2-3 2-1zm722 23q19-3 27 6h-27v-6zm96 0l1 1-14 8v5l-2-2h-33l-9-5 46-1 11-6zm6 4l5 14-6 9-17 11-1-2h-2l14-8 1-12 5 2v-3l-5-7 5-2 1-2zm-100 26h33l6 4v2h-29l-10-6zm46 1l7 5h-7v-5z" fill="#02c1fc" stroke="#02c1fc" class="B"/><g fill="#388ef3" stroke="#388ef3" class="B"><path d="M1231 261l11 13-6 5 5-6-10-12zm-433 2l1 1h-1v-1zm24 1l1 1h-1v-1zm-1 18l13 9-18 19q-18 6-27 21l-5 11-36 36-8-6-8-19 15-17q6-8 3-25l9-11 17 11 45-29zm22 0l3 3-2 3-4-2 3-4zm395 0l4 2v1l-1-2-4 1v1l-1-1 2-2zm-337 17v2h-1l1-2zm-16 43l10 6q21-3 30 6h23q5-8 20-6l23 18h13l29 12h13q4 7 18 6l22 15-6 7-13 2-29-12q-22 3-30-6h-65l-28 18-27-24h-37l-11-8 13-14q20-5 32-20zm23 30l-2 4 11 8 1-10-10-2zm-381-18l1 1h-1v-1zm190 48l1 1 2 7-2 4h-2l-2-7 3-5zm-99 17v2h-1l1-2zm341 7l7 2 82 75 11-11q3-24 18-36l16 12h41l16-12q57 24 102 61l2 7-11 14 12 11 29 17 13 13 35 23 18 19-6 7-7 2-100-56-7-7-78-39h-7l-11-8 5-7-11-12-29-11-10-9-14 25 30 31 29 17q9 17 30 24l31 31 11 5 31 31 11 5 64 65 2 7-2 3-11 1-50-35-8 9 21 21 35 71 39 40q-14 5-17 22l17 45v13l18 47q-2 17 6 24v15l-8 10-8-6-53-95-108-162-35-42-9 8 59 151q-8 4-6 20 16 13 24 35-5 28 10 37h2q9-9 6-29l-6-11v-25q-8-6-6-20l9-11 7 7q10 8 8 29l12 23v7l18 47q-3 21 6 30v39l-8 10-8-6-5-18h-3l-1-6 1-4-4-2-2 1v-7h-4l-2-35-15-19-3 1q-11 12-6 41l6 11v81l-5 12 5 9v33q-8 6-6 24-17 18-26 46l-13 13q-12 32-35 53l-8-6-2-7 11-24-7-10-7 5-6-5-21 15-77 41 5 11-6 8-17 2-23 12h-13l-29 12h-19q-8 9-26 6l-8-5-7 5h-91l-11 6h-99l-11-8 7-8 29-2 11-6h37l24-9 23-15h19q6-8 24-6l11-6 115-36 41-26-7-9-32 11h-33l-11-8 7-8q29-6 46-26h13l11-6 25-6q36-14 63-36 2-19 14-27-5-12-18-14l-47 45q-16 5-24 18l-13 2-4-2-1-5q26-25 42-59-1-14 6-18v-31q8-7 6-22l-8-12-34 33v2h-6l-6-9-7-2-35 33-7 2-4-2-1-11 27-35 33-66q-1-14 6-18v-43l6-16-6-11v-57q11-12 6-40l-18-23v-73l-8-12-13 12q-7 22-23 35l-8-6-2-13 30-83v-13l6-11q-2-17 5-25l-11-34-14-24-7 5-9-10v-43l-6-14 7-9 4-2zm21 42l-2 2v11l22 25 20 52q-8 7-6 25l-6 11v13l-12 26 36 39v73l18 23v31l-6 11v55l6 11q1 13-6 18v43q-7 4-6 18l-30 56 9 9 37-35 32 35q2 17-6 24v31l-6 8 2 3 22-18 41 39q-12 7-13 26-36 45-100 63 3 18 17 26-25 32-64 50l-97 30-11 6-13 2 2 4h29l8-5 9 5q17 2 24-6h19l29-12h13l18-9 31-31 71-35 20-14 6 5 6-5 19 17 11-11 17-35 7-7q5-6 3-19l6-11v-31l-6-11 6-12v-79l-6-11v-31l6-8q-18-9-12-40-8-22-24-35-3-17 6-21l-6-9-13-43-11 3-26 26-12-11-12 11-33-31 5-9v-49q-9-9-6-30l-6-11 2-17 16-19q2-16-5-22l33-32 54 55 35 53 19 19 95 142 3-1-12-34 18-21-40-41-35-71-20-20 23-25-77-72q-21-7-30-24l-29-17-46-46-12 11-33-32-11-5-24-22zm169 12l-9 10 18 17 54 27 13-3 5-7-81-44zm-48 163l-8 8 5 8v15l-18 23q-2 15 6 22v19l6 11v51l-5 7 8 8 12-11 13 11 8-11v-31l6-11v-17l-12-29q-2-17 9-20l6 5 8-7-14-21-30-30zm209 251l-2 5 5 1 1-4-4-2zM931 437v2h-1l1-2zm-436 1l2 1-2 5h-3l3-6zm7 6l2 6-3 1-3-1 4-6zm3 12l6 3 10 20-1-1-7-4-8-18zm791 24l1 1h-1v-1zm-24 41v2h-1l1-2zm48 0v2h-1l1-2zm-973 1l1 1v1l-1-2zm1 4v2h-1l1-2zm-60 14l1 1h-1v-1zm310 0l2 4-8 9-24 17v1l-44 37-11 16h-3v-7l12-29 1-12 2 1 5 11q14-1 18-11l1-2 49-35zm-169 18l6 1-8 10-1-8 3-3z"/><path d="M1047 565q23 12 39 33l-1 2-10 4-2 8-11 3-24 21-18-7q-2-16 6-22v-13q6-19 21-29zm-1 17l-2 2 2 28 13-1 9-14-22-15zm345-1l1 1h-1v-1zM228 611v2h-1l1-2zm291 31l3 3-26 27-4-2 10-15 17-13zm819 5l1 1h-1v-1zm-722 43l2 1-5 15-5 4-13 20-5 4-13 20-5 4-7 14-5 4-7 14-5 4-7 14-5 4q-8 29-29 46h-3l24-46 4-3 20-39 4-3 3-11 3-1 2-7 24-26 10-9q3-17 18-23zm-120 6l2 2v2l-1-3-1-1zm-1 5l1 1h-1v-1zm67 7l2 1-11 33-7 4q7 2 6 13l-5 7-5 4-7 14-5 4-13 26-5 4-11 22h-3v-9l12-20v-10l12-20v-10l24-43 4-3 12-17zm770 11v2h-1l1-2zM167 761l1 1h-1v-1zm915 97l21 8 35 30 5 17 25 31 8 22v125l-10 1-17-36-43-43q-7-21-24-30l-3-11q-16-1-21-13l-2-11 6-11v-13l6-11v-13l6-11v-13l8-18zm18 36l-8 22-12 4v23l6 16 10 1 5 13 13 13 24 36 2 9 11 1q-1-16 7-23v-43l-33-48-13-8q-8-4-8-14l-4-2zm-658 30l2 1v8l-18 33v10l-12 26-1 24-5-1v-23l-12-20v-6l6-8-2-1 8-1q-2-13 6-16l14-13 1-2 13-11zm927 5v2h-1l1-2zm-1150 7l7 7 8 16v19l6 11 6 25 45 96q18 30 46 51l11 5 31 31 29 17 31 25 90 51 55 18 10 9-6 7-25 2-11-6h-37l-27-12-14-21-77-41-42-30-25-25-34-21-5-11-43-55-32-67q9-8 6-28l-6-11v-31q-8-6-6-20l9-11zm-24 6l3 3-2 3-4-2 3-4zm-21 16v2h-1l1-2zm424 74l2 1-6 17-5 3-1-3h-2-2l4-2 10-16zm840 54l7 9h-1l-6-9zm-1107 18v2h-1l1-2zm246 24l6 1-1 4 1 1-7-2 1-4zm-409 4v2h-1l1-2zm570 7v2h-1l1-2zm-369 1l9 10-2 2h-4l-3-6h-3l3-6zm-153 5l1 1h-1v-1zm-59 2l5 9-8 2 2-3 1-8zm29 16l6 2v5l-5 3 2 3h-17l2-3-1-3 1-4v-2l12-1zm522 19l2 1-9 5 3-4 4-2zm595 51l5 7-6 5 5-6-4-6zm-1026 2v2h-1l1-2zm928 1l2 1-6 10-1-6 3-4 2-1zm-532 21l1 2h3l1-2v2l-4 1-1-3zm450 8v2h-1l1-2zm-906 31l3 2-1-1-2-1zm166 48h21l52 26 6 7-6 7-13 2-11-6-25-6-35-20 7-8 4-2zm144 41l1 1h-1v-1zm145 12v2h-1l1-2z"/></g><path opacity=".02" d="M1087 282l4 2v3l-4 3-1-2h-10l11-6zM499 460l5 10-3-2-2-8zm432 170l7 1-3 4h-4v-5zm-366 535l5 3v1l-6-2 1-2z" fill="#383f83" stroke="#383f83" class="B"/><path d="M1125 282l19 1-3 1-1 2-11 4-1-2h-6l3-6zM551 426l12 6h-5l-7-6zm199 4l1 2 4 1-14 5v-1l9-7zm-303 56l3 3-2 3-4-2 3-4zm-30 30l3 3 2 3h-5l-3-3 3-3zm-14 6l5 3v3l-6-3 1-3zm-12 35l32 2q-6 3-3 16l1 1h-8l1-10-21-2-3-2 1-5zm-67 1l6 2-1 4-4 1-1-7zm28 0l4 1-7 13-1-10 4-4zm-20 6l4 2 2 4h-8v-1l2-5zm604 55l1 5 2 1-4 5-5-1 2-5 2-1 2-4zm-448 59l4 2v6l-4-2-2 1 2-7zm434 102l4 1-7 10-1-7 4-4zm-22 19l1 5 7 1-12 5-2-3 6-8zm-750 29l6 3-1 3-3 2-1 3-1-11zm-78 9v7l-2 2H52v-1l2-4 1 2 17-6zm37 1l2 2h31l2 3v5l-33-2-3-2 1-6zm43 2l4 2-2 4-3 2-1-6 2-2zm694 74v14h-1l-1-4h-4l6-10zm-333 178l11 1-4 5-4-2v-2l-3-2zm81 28l1 2 1 1-8 7v-2h-11l17-8zm51 2l9 2-1 4-5-2v-2l-3-2zm237 7l1 5 4 1-8 5-3-4 4-3 2-4zm-719 16v2h-1l1-2zm689 7l6 1-7 9-9 2-1-2 7-8 4-2zm-234 4l2 6 23 2 11 5 2-5 4 2v5l-39-1-3-2-6-7 6-5zm-351 20l1 1h-1v-1zm-2 2v2h-1l1-2zm5 0v2h-1l1-2zm-3 3l1 1h-1v-1zm-104 23l5 4-1 4h-5l-2-5 2-1 1-2zm60 1l15 2-10 5-6-3 1-4zm-47 7l6 1-2 7-6-4 2-4zm524 12l4 1-8 7 4-8zm86 30l2 1-7 5v2l-1-4 6-4z" fill="#4d635f" stroke="#4d635f" class="B"/><path d="M908 372l10 2-1 10-11-9 2-3zm72 96l68 60 12-11 44 44 29 17q9 17 30 24l78 73-23 25 22 22 35 71 38 39-17 21 12 34-2 1-97-144-19-19-35-53-53-54-34 33q9 5 6 22l-15 17q-5 5-3 19l6 11q-3 21 6 30v49l-6 9 34 32 12-11 12 11 28-28 9-2 18 52q-7 5-5 21 16 13 24 35-5 30 11 40l-5 8v31l6 11v79l-6 12 6 11v31l-6 11-2 17-7 7-17 35-12 12-19-17-6 5-6-5-22 16-71 35-31 31-16 8h-13l-29 12h-19q-7 8-24 6l-9-6-8 6h-29l-2-4 13-2 11-6 97-30q40-18 65-50l-16-17-2-9q63-17 99-61 2-20 15-28l-35-36-7-3-22 18-2-2 6-9v-31q8-7 6-24l-32-36-37 35-8-8 35-74v-43q7-5 6-18l-6-11v-55l6-11v-31l-18-23v-73l-35-39 11-26v-13l6-11q-2-18 6-25l-21-54-21-23v-11l2-2zm67 96q-15 11-21 30v13q-8 6-6 22l18 7 26-22 9-2 2-8 10-4 1-3-39-33zm35 294l-8 18v13l-6 11v13l-6 11v13l-6 11 3 13q5 10 20 11l4 13q17 9 24 30l43 43 16 34 10-1V966l-9-24-25-31-5-17-32-27-23-9zm67-377l81 43-7 8-11 2-52-26-19-18 8-9zm-426 59l9 9-8-8-6 5 5-6zm-48 36l9 9-5 6 4-5-7-9-15 14 14-15zm635 318l4 2-1 4-5-1 2-5zm-914 75l-17 18 8 9-9-8 18-19zm921 249v2h-1l1-2zm-8 32l-9 10-5-3 4 2 10-9z" fill="#1065c9" stroke="#1065c9" class="B"/><path d="M793 242v2h-1l1-2zm11 0v2h-1l1-2zm-330 96v2h-1l1-2zm-17 48v2h-1l1-2zm716 4l1 1h-1v-1zm-2 2v2h-1l1-2zm-706 16l15 9v9l-18-15 3-3zm328 18h65l11 6h13l24 9-2 9q-20 3-27-6h-19l-11-6h-91l3-6q24 4 34-6zm-166 24q15-3 21 4v2h-24l3-6zm-73 18h11l35 18q21-3 30 6h31l11-6h25l11-6h13q6-8 24-6l9-6 8 6h85q8 9 30 6l14 12 3 6v29l-54 1q-7-8-24-6-11 10-36 6l-9 6-24-23-6 5-18-11-42 41-6-5q-18 24-55 29l-2-3 18-21-38-41-26 17-14-30 5-9-11-13 2-2zm-73 14v2h-1l1-2zm-16 16l61 24 8-6 1 6 14 12 3 17-3 1-16-24-11 1v14l-7 2-34-20-16-15-3-9 3-3zm834 0l1 1h-1v-1zm-2 2v2h-1l1-2zm5 0v2h-1l1-2zm-1029 3l1 1h-1v-1zm1026 0l1 1h-1v-1zM255 516l1 1h-1v-1zm-2 2v2h-1l1-2zm179 0v2h-1l1-2zm-3 3l1 1h-1v-1zm304 25l11 6 3-6 21 19-2 5-15-3-19-18 1-3zm-412 6l3 2 3 4-4-3v-2l-2-1zm18 0h19l2 3-2 3q-12-2-16 4v2l-4-1-2-8 3-3zm54 0h31l2 3-2 3h-31l-3-2 3-4zm-74 2v2h-1l1-2zm162 0v2h-1l1-2zm-190 4l1 1h-1v-1zm34 8v2h-1l1-2zm2 3l1 1h-1v-1zm18 6l1 1h-1v-1zm184 1l11 1-3 5-9-2 1-4zm236 12l21 1q24 21 38 52l18 17 10 4v11l-12 18 8 9 17 5 32 33 21 30-21 36-3 2 2 10 7-5-2-1 8-5v-2l7-5 11-17v-2l7-5 8-16 6-2 6 18v19l30 77v19l-6 11v31l-6 11q3 21-6 30v31q-8 6-6 23l-39 60-38 40-5 4-2 9 5 1 3-4 22-10 31-25 17-9-1 2-8 23-13 13-43 67-41 23-28 22-23 6-20 12-5 12-16 6h-31l-11 6h-33l-3-2v-19l11-5 23-23 5-11 31-31q6-17 20-26l6-3h55l10 6 2-6q16-2 23-13l-1-5-5 2-1 2-14 8h-45q-9-9-29-6l9-12q19 0 24-13l29-41 33-35V942q-9-9-6-30l-18-20q-2-28-20-40l-52 51-23 9h-14q-19 6-29 21-33 6-51 26l-10-5-15 13-2 23-5 10-5 4-7 14-23 22-4 10-15 2-43 40h-59l-11-6q-14 2-20-3l1-9 3-1 8-22v-13l9-18q18-15 30-36l3 2-24 51 3 1q13-23 44-30l1 4-6 8q4 21-6 29l3 1 19-13 5-11 37-43 8-16q-2-18 6-24v-19l-6-16 19-2 23 12h13l23-18h13l23-12 30-7-1-5-17-6-40 24-2-6 18-22-30-2-9-5q-4 6-15 5l-9-5-31 17-2-3 36-21h7l16-8 13-10 25-6 9 5 6-5 13 6 1-6-6-9 28-22 12-18q2-22 14-34-1-14 6-18v-13l6-11v-19q7-5 6-18l-3-6h-3l4-12 8 1q5 21 18 35v13l8 17 9-8-11-21v-7l-12-29v-25l-24-33 3-3zm-85 258l-2 5 5 1 1-4-4-2zm60 0l-2 5 5 1 1-4-4-2zm-12 6l-2 5 5 1 1-4-4-2zm-12 12l-2 5 17 1 1-4-16-2zm-124 144l-14 6-3 9-23 19 2 2 9-2 22-17 9-15-2-2zm-104 42l-2 5 5 1 1-4-4-2zm58 0l-4 2q-8 4-8 15l3 1 15-16-6-2zm-22 18l-2 5 5 1 1-4-4-2zm364-456l12 2-6 17 21 23q5 5 3 19l-13 35-20-17-3-7q7-5 6-18l-42-46 31-2 11-6zm-334 6l10 2v13l-11 3-1-16 2-2zm856 2v2h-1l1-2zm-893 10l11 2-1 4-13 6v1l-15 5-1-2 18-11 1-5zm29 12v3l-23 14-1-2 24-15zm114 6l24 2-23 25-7 3-15-11-3-11q16 0 24-8zm-169 1l1 1v14l-6 8q4 14-2 18l-4-2q-3-25 7-37l4-2zm23 11l2 1-15 17h-3l3-7 13-11zm31 7l1 1-6 11 6 10-24 11 2 2 10 2-5 7q-20 5-31 19v2l-6 2v7l-11 3-1-2 12-20v-15l-5-9 5 2 2 2 10-1-1-5-3-1-2-4 3-1 11 6 33-29zm39 11l4 2-1 4-5-1 2-5zm-23 60l3 1-2 5h-4l3-6zm138 36l3 2-20 22-4-1 21-23zm-63 18l18 2-1 4-63 30-2-3q17-23 48-33zm-413 20v2h-1l1-2zm158 4l1 1h-1v-1zm192 6l9 9-41 43 11 15-18 24 6 10-3 1-14-12q-24 4-31-8l2-4 9-2 53-53q5-15 17-23zm-534 6h37l2 3-2 3q-20-4-28 4v2l-7-2-5-7 3-3zm72 0h37l2 3-1 3-41-1 3-5zm343 18l2 1-1 5h-4l3-6zm-6 12l2 1-9 11-3-2 10-10zm-301 6l1 1h-1v-1zm-2 2v2h-1l1-2zm5 0v2h-1l1-2zm-3 3l1 1h-1v-1zm333 1l6 2-23 25q-23 6-35 23l-11 22h-9l3-11 31-37q23-7 38-24zm8 72l10 2-1 4-11-1 2-5zm18 6l22 2-3 11-15 17-7 24-5-1q-2-16 6-22l2-31zm-115 42l11 9-1 33-11-1q8-6 6-21l-4-2-3 12h-5l6-16 1-14zm-6 48l11 9-6 9-6-2 1-16zm174 38v2h-1l1-2zm710 58l1 1h-1v-1zm-906 5l1 1h-1v-1zm186 13l1 1h-1v-1zm16 0h21l2 3-2 9q-16 3-21-3l-1 2-3-5h-3l1-3 6-3zm60 0q20-4 29 4l-1 13-10-5q-18 4-25-3l1-6 6-3zm38 0l1 1h-1v-1zm84 0l1 1h-1v-1zm-200 2v2h-1l1-2zm198 0v2h-1l1-2zm5 0v2h-1l1-2zm-3 3l1 1h-1v-1zm7 13l2 1-3 4-2 1-1-2 4-4zm-572 6l10 3-2 3-10-1 2-5zm433 0l1 1h-1v-1zm-445 24h20l2 3q-5 8-22 3l-2-4 2-2zm55 0h43l2 3-2 3h-43l-3-2 3-4zm563 66l4 2-1 4-5-1 2-5zm-128 8v2h-1l1-2zm-120 102v2h-1l1-2zm1 12v2h-1l1-2zm251 0v2h-1l1-2zm24 0v2h-1l1-2zm-71 6v2h-1l1-2z" fill="#000002" stroke="#000002" class="B"/><g fill="#0e1d5c" stroke="#0e1d5c" class="B"><path d="M801 168l7 7-6-6-13 12 12-13zm301 24l2 2v1l-1-2-2 1 1-2zm23 12l3 3-2-2-7 6 6-7zm18 0l3 3-2-2-3 2 2-3zm-9 5l1 1h-1v-1zm-129 1l6 6-5-5-3 2 2-3zm36 6l6 6-5-5-7 5-2-3 3 2 5-5zm123 66l1 1h-1v-1zm-681 18l9 9-11 12 10-11-7-9-3 2 2-3zm46 15l2 2h-1l-1-2zm-34 9l6 6-5-5-9 8 8-9zm630 0l15 15-8 9 7-8-13-15-9 8 8-9zm-534 6l7 5 2-1-3 2-6-5-4 3 4-4zm594 6l-5 6-4-2 3 1 6-5zm-6 18l3 3-2-2-3 2 2-3zm-653 1l2 2-1-1-1-1zm699 2l5 7-6 5 5-6-4-6zm-37 2l1 1h-1v-1zm-591 49l-2 3 2 3-3-2 3-4zm-45 2l10 9 6-5 8 9-9-8-6 5-9-10zm-73 4q13-1 19 6h19l11 6h22l50 24 26 1-2 5h24l1-3 12 3 11-6h25l11-6h13l11-6q18 2 26-6l-2 3 1 3h90l11 6h19q7 9 27 6l2-1 18 31q-1 13 6 18v55l-3 5q-27-5-38 6h-49q-7-8-24-6l-11 6q-26-4-38 6l1-2v-4l-21-18-3 6-11-6-1 2-9-8-9 13q9 7 6 27l-17 8h-13l-9 6q-7-4 3-8l-8-10-17 16-44 20-4-12-11 3-35 29-2-14-11 2 1 16 4 1-10 7-1-2-24 15 1 3-23 20-2 5 7 9-4-4-3 1 4 5 2 2-1 4h-6l1-6-7-18-4 1-1-7 6-8 2 8 6-1v2l-2 5h3l15-17-2-1 8-16-6-2-2 1 4-5 10-3-1-5-11 1v4l-6 5 4-7-4-5 56-56 33-23 1-7-3-2-59 42 2-3v-3l-12 1 3 5 5 1q-4 9-8 3l-6-16q16-10 13-38l14 20 3-1q0-22-14-29h-4v-6h-2l1-2-14-28q-15-10-21-28l3-2 15 21 5 2v-1l-18-34-8 6q-6-3 0-5l3-7-8-12-4 2 5 9h-1l-12-10 2-1-1-12zm75 54l-2 2 11 13-5 9 14 30 26-17 38 41-18 21 2 3q37-5 55-29l6 5 42-41 18 11 6-5 24 23 9-6q25 4 36-6 17-2 24 6l54-1v-29l-3-6-14-12q-22 3-30-6h-85l-8-6-9 6q-18-2-24 6h-13l-11 6h-25l-11 6h-31q-9-9-30-6l-35-18h-11zm-31 9l-1 2-3 2 3 4 5 1 1-4-5-5zm7 87l-2 5 5 1 1-4-4-2zm-89-102l15 15-14-14-15 14 14-15zm-48 12l6 6-5-5-7 6 6-7zm-21 6l6 2-1 4-15 6-2-6h2l10-3v-3zm159 36l-5 6-4-2 3 1 6-5zm819 6l1 1h-1v-1zm-827 6l6 1-6 13v-14zm918 15l5 7-7 6 6-7-4-6zm-925 2l1 1h-1v-1zm-192 7l14 1-2 6 4 5h2l2-4 7-2-3 4-3 8-3 1v1l-6-4-1-4-4 1-1-2-1-5-5-3v-3zm180 11v2h-1l1-2zm465 1q9 4 9 19-10 10-6 36l-6 11-18 61-12 23-6 25-12 17v8q-15-9-21-26l-32-33-13-3-10-7-2-5 12-17v-11q-20-5-28-21-14-32-38-53h-5l11-6h85l11-6q21 3 30-6h22l2 13-6 11v25l-3 5-3 2 3 10 3-2 30-57 3-13zm-81 48l-11 6-31 2 42 46q1 13-6 18l3 7 20 17 13-35q2-14-3-19l-21-23 6-17-12-2zm-387-42l-2 3 5 7-10 9 9-10-5-6 3-3zm891 9l-1 2h-2l3-2zm-629 13l23 32v25l6 11 6 25 11 21-9 8-8-17v-13q-14-14-18-36h-9q7-7 3-24-10-10-5-32z"/><path d="M714 600l6 3v82l-6 11v41l4 1 14-23q-1-14 6-18v-13q7-5 6-18l8-10 2-1 4 5 4-1 4 3 2 11-6 11v19q-8 6-6 24l-18 41v7l-25 33-17 11 6 14-6 1-9-6-6 5q-4-6-15-5-5 7-18 6l-13 10-16 8h-7l-36 21 2 3 32-17q3 6 15 5l9-5 8 5 30 2q-15 7-18 27l4 1 39-24 17 8-1 4q-32 3-52 18h-13l-19 16-17 2-23-12h-17l-2 7q9 8 6 30-8 6-6 24l-8 16-47 59-15 8-2-2 6-9q-4-22 6-29l-6-2q-26 10-40 30l-2-6 15-23 9-23-3-2q-12 21-30 36l-9 18v13l-9 23-3 1v8q-7-7-24-3l-22-19-2-6 3 1h3l6-9-11-9-1 5-22-24-2-8 4-3 6 11 12 1 2-1 1 1 5-1 2-11 4 2q2 15-6 21l11 1 2-29 5 11 2 30 4-1v-29q8-7 6-24l18-41v-7q10-7 12-22l-3-2-31 26-5 10-14-1 10-14 1 1 1 2q9 2 11-3 5-21 20-31 30-10 46-34l-1-4-11 3q-11 16-31 21l28-29q6-8 3-23l-6-2-9 6-8 14-1-2-11 9 9-10 3-6 4 1 1-5-3-1 68-105h1l-1-9q-15 1-20 12l-4-11-4 1v1l-1-1 6-2 8-10 28-16-1-4-11-1 2-3 22-9-6-11 6-10v-2l20-16 16-8 25-6 35-18q13 1 18-6h19l35-12zm-54 48q-8 8-24 8l3 11 15 11 7-3 23-25-24-2zm39 24l-6 6 2 1-5 2q-15 7-18 25l-36 17-36 24-22 36h-1l-1 8 9 1v-1q19-24 51-35h13l17 12 7-3 5-8v-13l12-29v-7l12-23v-11l-3-2zm-115 6l-2 5 5 1 1-4-4-2zm36 6l-29 30-5 11-27 25-7-3 18-43-3-2-30 36-15 30v7l-12 23v7q-12 12-14 34l-2 1-2 5 4 1 11-11 17-35 24-36 8-7 2 1-56 99-2 1-2 5 5 1 16-17 59-95 31-37 11-23 3-2 1-4-4-2zm-59 54l-3 6h4l2-5-3-1zm138 36l-21 23 4 1 20-22-3-2zm-63 18q-31 10-48 33l2 3 63-30 1-4-18-2zm-63 30q-12 8-17 23l-53 53-9 2-2 4q7 12 31 8l14 12 3-1-6-10 18-24-11-15 41-43-9-9zm-85 120l-2 5 11 1 1-4-10-2zm18 6l-2 31q-8 6-6 22l5 1 7-24 15-17 3-11-22-2zm-59-336l-2 3-1-2 3-1z"/><path d="M498 645l1 3 4 1-8 5-2 5-2-10 7-4zm-160 9l4 2v1l-1-2-4 1v1l-1-1 2-2zm-1 9l1 2h3l1-2v2l-4 1-1-3zm-159 27l8 10-4 3 3-4-7-9zm810 0l2 3v280l-29 52-1-11 6-11v-31l6-11q-3-22 6-30v-31q9-9 6-30l-30-77v-19l-6-18-6 2v-1l2-11 19-19 25-37zm-756 29l-3 4 5 7-3 2 2-3-5-6 4-4zm1157 1l-8 9 9 10-10-9 9-10zm-909 22l1 2 4 1-8 5-3-3 6-5zm-323 7v2h-1l1-2zm-78 11l7 8-8-1 1-7zm-52 2l6 6-5-5-12 11 11-12zm18 42l9 3-2 3-10-2 3-4zm858 6l-5 6-4-1 1-2 1 2 7-5zm491 1l1 1-2 1 1-2zM109 833l40 1h1l-2 6h-37l-3-2 1-5zm-55 1l1 1-4 11-9-2-1-5 2-1 5 2 2-4 4-2zm626 12l4 2-1 4-5-1 2-5zm60 0l4 2-1 4-5-1 2-5zm-12 6l4 2-1 4-5-1 2-5zm91 0l13 13-12-12-51 50 50-51zm-103 12l16 2-1 4-17-1 2-5zM33 881l7 6 5-4-6 5-6-7zm55 0l-6 7-4-2 3 1 7-6zm730 2l1 1-2 1 1-2zm23 9l17 20q-3 21 6 30v109l-33 35-5 11-35 41-12 2 10-11 62-88h1q-2-15 6-20v-31l-6-11v-25l-6-11v-31q-8-6-5-20zm-13 1v2h-1l1-2zm-66 28l-8 9-7-5-4 3 5-4 6 5 8-8zm-608 27l2 4-3 2 2-3-1-3zm507 2l-9 10-5-3 4 2 10-9zm-488 7v2l-2 1 2-3zm-56 2l3 5-4 3 3-4-2-4zm34 0v2h-1l1-2zm249 8l1 1-11 14 12 16-8-8-4 1v10l-11-14 21-20zm-214 20l-5 6 2 3-3-2 6-7zm454 2l-3 4 5 7-3 2 2-3-5-6 4-4zm-22 11l1 1-6 9-1-2 6-8zm-26 8l2 2-9 15-22 17-9 2-2-2 23-19 3-9 14-6zm14 10l1 1-20 29-6 2 1-2 2-8 22-22zm-321 14l-2 3 11 13-5 6 15 15-16-16 5-6-11-12 3-3zm203 18l4 2-1 4-5-1 2-5zm58 0l6 2-15 16-3-1q0-11 8-15l4-2zm472 0l2 7-6 11-6 25-12 23v7l-20 40-17 17-46 26h-7l-85 36 9-10 61-37 41-65 13-13 9-24-2-1 66-42zm-414 5l-6 7-7-5-10 9 11-10 6 5 6-6zm-80 13l4 2-1 4-5-1 2-5zm97 6l6 6-5-5-7 6 6-7zm42 0l31 31-30-30-3 2 2-3zm-330 30l-1 2v1l-1-1 2-2zm-108 18l6 6-5-5-3 2 2-3zm657 4l1 1-4 7-2 1-1-1 6-8zm-666 1l1 1h-1v-1zm282 3l4 3 3-2-4 3-3-4zm-331 1v2l-2 1 2-3zm693 15l4 2-1 4-10 9 9-10h1v-4l-4 1-1 2v-1l2-3zm-91 5q19-2 29 7h45l3-2-7 14-10-6h-55l-21 18-5 11-59 65-10 4-1-8 27-30 6-5 5-11 19-13 15-21 1 2 4-3 1-2-2-1 13-12 2 6 5-1-1-5-3-1-1-6zm-268 1l4 4-3-3-4 3 3-4zm63 11l7 5v1l-1-2-6-4zm-393 13l10 1-1 4 1 1-13-2 3-4zm-6 24l4 1-1 4 20 2-13 6-8-1 1-4-6-4 3-4zm390 6l-2 3-1-2 3-1zm126 0l-5 6-4-2 3 1 6-5zm-459 18l1 1h-1v-1zm73 11v2h-1l1-2zm32 7l7 7-6-6-7 6 6-7zm-180 12l-2 3-1-2 3-1zm629 9v2l11 2-1 4 1 1h-15l4-9zm16 3l6 3-2 3h-5l1-4v-2zm153 84l7 5 2-1-3 2-6-5-9 8 9-9zm439 5l-3 4 8 9-9-8 4-5zm-877 19l3 3-2-2-7 5-3-4 4 3 5-5zm21 9l-1 2h-2l3-2zm81 15l3 3-2-2-7 5-3-4 4 3 5-5zm-144 12l3 3-2-2-3 2 2-3z"/></g><path d="M1014 258l1 1h-1v-1zm71 24l1 1-11 5v-1l10-5zm67 5l1 1h-1v-1zm-540 7l1 1h-1v-1zM489 426l9 13-1-1h-7l1-3-5-6 3-3zm16 22l6 10h-1l-5-2-1 2-4-2-2 1 4-7h2l1-2zm-6 14l5 9-4-3-1-6zm851 5v2h-1l1-2zm-201 13l3 3-2-2-9 8 17 18-18-17 9-10zm-134 15l33 32 12-11 44 45-45-44-12 11-32-33zm-589 26l1 1h-1v-1zm-78 3v2h-1l1-2zm252 20v2l-2 4-5 3-1-1 8-8zm115 7v2h-1l1-2zm213 6l-3 4 8 9h-9v-1l-1-5-4 1-7-1-3-5 19-2zm-111 1q15-2 21 6l-27 6-1-6h-4l11-6zm73 5l-4 7h-4l-3-5 11-2zm-359 1l3 3-2 3-4-2 3-4zm45 0l2 1-9 6-1-1 8-6zm471 0l9 9-8-8-12 11 11-12zm-156 6l3 1 3 5-10 1 4-7zm-343 5v2l-15 11 8-9 7-4zm268 1l9 6h-17l2-3 6-3zm-276 18l2 1-20 19 14-18 4-2zm67 6l5 3v6l-9-7 4-2zm59 6l9 6-16 1 1-4 6-3zm282 3l1 2-4 1 3-3zm153 9l54 54-53-53-33 32 2 3-3-2 33-34zm-102 12l-2 3 32 33-33-32 3-4zm208 9l35 37-23 24 20 20-21-21 23-24-34-36zm-690 3l1 1-19 15-6 10-1-7 7-10 18-9zm5 4v2l-18 21-7 3 25-26zm235 5l3 2h3l-3 1-3-3zm-258 32v2h-1l1-2zm122 1l3 3-2 3-2 1-1 3-1-4h-2l5-6zm-111 11l1 1h-1v-1zm58 7l2 6-11 22-1-4 6-17-2-1 6-6zm32 4v3l-11 13h-2l13-16zm12 0l1 1-6 9-1-2 6-8zm-60 12v3l-5 7h-2l7-10zm174 5l1 2-4 1 3-3zm-132 7l1 1-6 9-1-2 6-8zm-80 3l7 7v1l-6-7-1-1zm26 3v3l-17 31-1-1 18-33zm12 6l1 1-1 5 8 2 4-2v3l-3 5-8 2-7-12 6-4zm24 12l1 1-6 9-1-2 6-8zm-18 6v3l-5 7h-2l7-10zm-12 6l1 1-6 9-1-2 6-8zm120 1l1 1h-1v-1zm-102 5l1 1-6 9-1-2 6-8zm930 1v2h-1l1-2zm-972 3v5l-11 19-1-1 12-23zm56 7l6 7 1 1h-1l-6-8zm-44 1l1 1-6 9-1-2 6-8zm6 6v3l-11 19h-2l13-22zm12 0l1 1-6 9-1-2 6-8zm724 2l38 40-15 14 14-15-37-39zm-1128 6l2 4-3 2 2-3-1-3zm917 6l-2 3 32 32 13-11 12 11 26-25-27 26-12-11-12 11-33-33 3-3zm-555 2v5l-11 19-1-1 12-23zm30 2l1 1-12 21-1-2 12-20zm-24 6l1 1-12 21-1-2 12-20zM57 834l3 2-1 4-4 2-1-5 3-3zm441 2l1 4 1 1q-4 9-8 3l3-4h1l2-4zm-32 5l6 6-5-5-1-1zm44 3v3l-6 11 2 1-4 5-4-2 3-4h1l8-14zm664 14l2 4-3 2 2-3-1-3zm332 29v2h-1l1-2zm-660 24v2h-1l1-2zm-398 7l2 6-5 8-1-8h-2l6-6zm-20 17v2l-14 13 1-2 6-9 7-4zm-22 1l1 3h-1v-3zm32 10v2l-11 22-1-4 12-20zm760 2l8 10-3 2 2-3-7-9zm-556 6l1 1h-1v-1zm-239 5l4 1h1v6l-9-5 4-2zm-288 12v2h-1l1-2zm281 5l12 26v10h-1l-7-21-9-10 5-5zm30 0v2l-5 10-1-4 6-8zm627 8l30 30-29-29-37 35-9-9 3-2-2 3 9 7 35-35zm-633 10v8l-5 10-1-10 6-8zm-30 7v2h-1l1-2zm-6 10l1 2-7 4 6-6zm25 14l4 1h1q4 14-2 18l-4-2 1-17zm443 4l1 2-7 4 6-6zm-2 9l1 3h-1v-3zm255 33l35 37-9 8 8-9-34-36zm-595 57l1 1h-1v-1zm259 26l2 4 3 3-2 3h-4l-1-5 2-5zm-204 13l1 1h-1v-1zm3 1l2 2h-1l-1-2zm-454 8l1 1h-1v-1zm916 30l14 16-30 29 29-30-13-15zm101 0l7 5 6-5 18 17 11-10-12 11-18-17-6 5-6-5-3 2 3-3zm-812 47v2h-1l1-2zm-145 6l1 1h-1v-1zm723 49l3 3-2-2-3 2 2-3zm489 41v2h-1l1-2zm-899 6v2h-1l1-2z" fill="#3d74c2" stroke="#3d74c2" class="B"/><path d="M1144 258l2 2-1 4h-2l2-1v-4l-1-1zm-9 3l1 2 1 1h-1l-1-3zm363 3l2 4-3 2 2-3-1-3zM559 424l5 3 2 5h-2l-11-5 5-1 1-2zm-219 98l5 1-2 1-3 4h-4l4-6zm580 42l4 2-1 4h-7l4-6zm-256 30l2 1-1 5h-5l4-6zm274 12l4 1-1 5-5-1 2-5zm2 12l2 1-3 5h-3l4-6zm-188 30l4 2v4h-6l2-6zm-54 30l4 2-1 4h-5l2-6zm-209 6l4 3 5 10-1-1h-11l3-12zm227 42l6 1-6 5-2-4 2-2zm238 3v6l-5 3-1-2 5-3-2-1 3-3zm-38 45l4 1-3 1-4 6-1-1 4-7zm-770 18l4 2v4l-6-1 2-5zm0 12l4 1-1 5-5-1 2-5zm689 89l3 3 2 6-2-2h-4l1-7zm-72 13l1 1-7 5 4 1-4 2-1-3h-2l9-6zm78 24l5 2-1 4-5-1 1-5zm-444 24l5 4v2l-4-1-1-5zm450 13l3 5 2 2-1 4-4 2v-13zm-468 89l3 2 2 7-1-1-4-1 4-1-5-3 1-3zm165 18l4 1-8 7 4-8zm-302 84l4 2-1 4-5-1 2-5zm384 12l4 1v5h-8l4-6zm-403 39l7 4-2 5-6-1 1-8zm563 48l1 3 7 6h-11q-6-3 0-6h-2l5-3zm-113 2l4 1h1v14l-6-2v-6h-3l4-7z" fill="#8d9cae" stroke="#8d9cae" class="B"/><path opacity=".996" d="M1092 284v2h-1l1-2zM523 478l5 5-2 3-4-2-2-3 2-1 1-2zm8 50l3 3v19l-2-4h-4v-6h-3l6-12zm-105 29v9l-3 5-2 1 1 3 1 1h-1l-2-14 6-5zm-14 7l2 2v1l-1-2-1-1zm2 9v2l-3 1v-1h2l1-2zm534 37v3l-9 17h-4l7-11-2-1 2-1 1 1 5-8zm-624 10v2h-1l1-2zm609 15l1 1h-1v-1zm-176 17l3 2 2-1-2 7-4-2-1-2 2-4zm-57 20l2 7-1-1-4 1-3-1 6-6zm26 52v3l-9 11-3-6h2l10-8zm-210 8l6 3v5l-6-8zm-21 6l3 3-2-2-3 2 2-3zm82 46l7 8-8-2 1-6zm-421 16v2h-1l1-2zm-96 34l14 1q-2 7-14 5v-1-5zm408 6l6 3v7l-6-10zm372 46v13h-1l-2-5-3-1 3-5 3-2zm-431 44l1 1-2 7-6-4 7-4zm-9 24l10 1-3 5-5-1-2-5zm452 2v17l-1-1-3-1-2-10 4-1 2-4zm-456 19l-5 6 9 10-10-9 6-7zm-29 37l5 3 1 5h-1l-5-3v-5zm17 0v5l-6 3v-1l6-7zm468 18v10l-2-2h-4l6-8zm-299 125l3 2 2-1-3 2-2-3zm102 0l3 2 2-1-3 2-2-3zm-24 15l8 6-3-3-5-3zm27 0l1 1h-1v-1zm-39 4l1 2-2 1v-1l1-2zm2 25l1 1h-1v-1zm93 11v3l-9 11h-5l14-14zm-18 18v5l-17 20-1-7 12-14 6-4z" fill="#55679b" stroke="#55679b" class="B"/><path fill="#4b55b5" stroke="#4b55b5" opacity=".016" d="M421 516l2 1 2 5h-1l-3-6z" class="B"/><path opacity=".02" d="M1329 516l15 7v2l-9 3v-1l3-1v-4h-6v-4l-3-2zM287 559l1 1-1 3h-4l2-3 2-1zm143 5l2 1v8l-4 2-2-4 4-7zm33 642l13 6h-13v-6z" fill="#38c9ff" stroke="#38c9ff" class="B"/><path fill="#56adbe" stroke="#56adbe" d="M344 523l3 1v3l-6 1 2-3 1-2z" class="B D"/><path opacity=".776" d="M419 522l7 4v1l-7-5zm-28 40l14 2 3 4v2l-17 2-1-2h-2l3-8zm228 606l6 3-3 5-4-2 1-6z" fill="#73a589" stroke="#73a589" class="B"/><path opacity=".392" d="M435 559l2 1 1 4-4 1-1 3-1-4h-2l5-5zM287 820l1 1 1 1 1 1-5 5h-41l-4-5 44-1 3-2zm461 308l16 1-16 11-4-8 4-4zm-277 67l2 2-1 2-3-1 2-3z" fill="#1bc8fd" stroke="#1bc8fd" class="B"/><path opacity=".059" d="M407 564l6 2 1 7-1 2h-4l-1-3-4-1 4-1-1-6zm19 2v10h-2l-3-1 1-4 2-1 2-4zm-107 50l4 4v3l-4 1v-8zM151 796l4 4v3l-4 3-1-2h-2l2-3-1-3h1l1-2zm3 38l2 1v5h-5l3-6zm501 288l7 1-7 4v-5zm-98 42l7 4v1l-7-5zm76 6l26 2-1 2-10 3q3 15-2 21l-3 1-1-23-3-1-3 2v1l-6-2 1-5 2-1zm0 1v1h1l-1-1zm2 1v1h1l-1-1zm-16 4l9 1-4 2-1 20h-4v-23z" fill="#4d9e9e" stroke="#4d9e9e" class="B"/><path d="M1015 219l5 7-12 11 11-12-4-6zm39 2l-3 4 2 3-3-2 4-5zm-271 31l10 10-9-9-12 11 11-12zm33 0l1 1h-1v-1zm297 6l9 9-14 15-10-8 15-16zm0 1l-14 15 9 7 13-14-8-8zm75 5l1 1h-1v-1zm-341 3l17 19-19 18 18-19-16-18zm150 0l2 3-4-1 2-2zm185 0l-5 6 5 6-6-5 6-7zm13 0l5 7-6 5 5-6-4-6zm-196 9l-2 3-1-2 3-1zm-236 5v2h-1l1-2zm425 0l1 1h-1v-1zm-414 12l1 1h-1v-1zm-201 7l7 5 2-1-3 2-6-5-12 11-5-6 6 5 11-11zm600 6l-2 3-1-2 3-1zm-708 18l5 5-4-4-9 8 8-9zm420 0l3 3-2-2-9 8 8-9zm103 0l6 5 6-5 5 6-6-5-6 5-5-6zm173 6l-2 3-1-2 3-1zm-59 6l2 4-18 17 17-18-1-3zm-300 5l-15 16 47 48-48-47 16-17zm51 3l-30 31 24 25-25-24 31-32zm212 4l9 9-8-8-6 5 5-6zm39 12l1 1h-1v-1zm-405 6l6 6-5-5-3 2 2-3zm-243 3l-17 18 5 6-6-5 18-19zm267 3l18 18-17-17-19 17-6-5-4 3 5-4 6 5 17-17zm-74 3l3 2 2-1-3 2-2-3zm438 2v2h-1l1-2zm77 4l-11 12 18 19-19-18 12-13zm-735 3l12 12-11-11-21 20 20-21zm288 0l24 24-23-23-15 14 14-15zm373 0l14 16-25 24 24-25-13-15zm-448 6l1 1h-1v-1zm7 3l3 2 2-1-3 2-2-3zm-25 6l-11 12 3 4-4-3 12-13zm72 2l1 1h-1v-1zm199 4l21 20 8-7-9 8-20-21zm-202 3l15 15-5 6 4-5-13-15-21 20 20-21zm-308 8l-78 79 5 7-10 9 9-10-5-6 79-79zm692 22l9 9-8-8-25 24 24-25zm72 0l3 3-2-2-9 8 8-9zm-135 14l28 27 5-4-6 5-27-28zm312 25l-5 6 11 12-12-11 6-7zm-35 5l-18 19 18 19-19-18 19-20zm-958 4l-8 9 5 7-9 8 8-9-5-6 9-9zm1054 21l15 14 6-5 5 6-6-5-6 5-14-15zm-988 3l-20 21 2 3-3-2 21-22zm52 15l5 7-9 8 8-9-4-6zm851 0l-5 6 36 37-37-36 6-7zm-35 8v2h-1l1-2zm-955 6v2h-1l1-2zm55 0v2h-1l1-2zm17 0v2h-1l1-2zm90 0v2h-1l1-2zm498 0v2h-1l1-2zm-678 3l10 9 5-4-6 5-9-10zm151 3v2h-1l1-2zm-75 1l6 5 5-4-6 5-5-6zm86 11l1 1h-1v-1zm-15 19l-2 3-1-2 3-1zm300 0l9 9-3 4 2-3-7-9-15 14 9 10-10-9 15-16zm591 8l34 33 20-19-21 20-33-34zm-1094 3l-15 16 3 4-4-3 16-17zm825 4l5 7-4 3 3-4-4-6zm-634 9l-2 3-1-2 3-1zm939 24l1 1h-1v-1zm-51 24l3 3-2-2-21 20 48 49-49-48 21-22zm-204 30l9 9-15 16 14-15-7-9-12 11 11-12zm-920 5v2h-1l1-2zm3 7l8 10-3 2 2-3-7-9zm17 30l-2 3 5 7-4 3 3-4-5-6 3-3zm1155 3l-5 6 8 9-9-8 6-7zm-417 3l3 1-3 5 2 1-4 2-1-6 3-3zm-302 9l9 8 5-4-6 5-8-9zm-537 9l2 4-3 2 2-3-1-3zm371 18l-5 6-4-2 3 1 6-5zm-356 9l3 2 2-1-3 2-2-3zm14 9l-14 15 5 7-6 5 5-6-5-6 15-15zm1248 6l9 9-8-8-19 18 18-19zM42 789l1 2-4 1 3-3zm124 3l8 10-9 8 8-9-7-9zm1152 0l38 40-15 14 14-15-37-39zm-1108 5v2h-1l1-2zm-101 15l-15 16-16-14 15 13 16-15zm54 3v2h-1l1-2zm3 7l14 16-15 14 14-15-13-15zm1064 17v2h-1l1-2zm109 12v2h-1l1-2zm-1176 6v2h-1l1-2zm53 0v2h-1l1-2zm-3 7l-2 3 2 3-3-2 3-4zm613 48l8 10-5 6 8 8-9-9 5-6-7-9zm548 5v2h-1l1-2zm-1262 1l2 4-3 2 2-3-1-3zm107 0l6 6-5-5-9 8 8-9zm-24 6l3 3-2-2-6 5 5-6zm9 5l1 1h-1v-1zm-29 34l5 7-5 6 5 5-6-6 5-6-4-6zm1154 38l25 24 17-16-18 17-24-25zm-72 13l3 3-2 3-4-2 3-4zm43 29l-24 25-25-23 24 22 25-24zm-751 31l3 3-2-2-9 8 17 19-6 5 5-6-17-18 9-9zm822 6l-2 3 11 13-11 12 2 2-3-3 11-12-11-12 3-3zm-60 6l19 19-18-18-19 18 18-19zm-68 11v2h-1l1-2zm26 19l13 11 5-4-6 5-12-11-18 17 18-18zm-651 6l1 1h-1v-1zm-6 3l-17 18 8 8 16-15-15 16-10-8 18-19zm-357 9l-8 9 11 12-12-11 9-10zm426 0l6 6-5-5-9 8 5 6-6-5 9-10zm-456 6l9 9-11 13 17 17-18-18 11-12-8-8-4 3 4-4zm-29 12l14 16-5 6 5 6-11 12 9 7 15-14-16 15-9-9 11-12-5-6 5-6-13-15zm-45 9l5 7-6 5 5-6-4-6zm14 3l3 3-2-2-12 11 11-12zm504 12l-2 3-1-2 3-1zm-381 6l1 1h-1v-1zm-191 3l2 3-4-1 2-2zm185 0l-5 6 11 13-19 18 18-19-11-12 6-6zm13 0l11 13-16 15 15-16-10-12zm-196 9l-2 3-1-2 3-1zm558 6l-2 3-1-2 3-1zm264 18l21 21-20-20-4 3 3-4zm-636 35l49 48 12-11 27 28-28-27-12 11-48-49zm526 10l5 7-6 5 5-6-4-6zm314 8l21 23-22 21 21-22-20-22zm-819 15l30 32-12 11 11-12-29-31zm360 4l1 1h-1v-1zm-78 2l24 26-25 24 24-25-23-25zm-365 7l15 14 6-5 2 3-3-2-6 5-14-15zm462 11l-24 25 24 25-25-24 25-26zm-420 7l21 20 6-5 2 3-3-2-6 5-20-21zm1088 15l-2 3 2 3-3-2 3-4zm-774 30l3 3-2-2-7 5-3-4 4 3 5-5zm246 0l7 5 6-5 2 3-3-2-6 5-6-5-3 2 3-3zm73 0l6 5 3-2-4 3-5-6zm-52 5l1 1h-1v-1zm-81 1l7 5 3-2-4 3-6-5-3 2 3-3zm-147 5l1 1h-1v-1zm111 1l7 5 3-2-4 3-6-5-3 2 3-3zm-20 8l-18 19 11 12-12-11 19-20zm-136 46l3 3-2-2-7 5-2-3 3 2 5-5zm150 0l7 5 2-1-3 2-6-5-3 2 3-3z" fill="#b0c4f4" stroke="#b0c4f4" class="B"/><path opacity=".2" d="M337 814l1 2-2 1 6 3v2l-8-5 2-1 1-2zm23 0l1 2 5 1 1 3 9 2 2-1-1 6-19 1-10-6 4-6 8-2zm-47 18l5 7h-1l-7-4 2-1 1-2zm-15 2l12 6h-15l-1-2 4-4zm1156 265l3 1v3h-4l1-4zm-34 5l20 1v2q-7 5-20 3l-3-1 1-4 2-1zm-654 24l1 1-14 17-3 1v5h-6v-6h-2l3-6q16 0 21-12zm-458 85l3 1v3h-4l1-4z" fill="#02c0fd" stroke="#02c0fd" class="B"/><path d="M390 347v2h-1l1-2zm252 25l1 1h-1v-1zM109 737v2h-1l1-2zm143 210v2h-1l1-2zm1189 139l5 2v4l-6-3 1-3zm-985 120l6 2-1 4h-6l1-4v-2zm787 24l5 1-1 5-5-1 1-5zm60 0l11 2-1 10h-5l-5-12z" fill="#59dcfc" stroke="#59dcfc" class="B"/><path fill="#e5d7da" stroke="#e5d7da" opacity=".439" d="M169 1160l3 5 1 1v3h-4l-3-4 2-1 1-4z" class="B"/><path d="M1209 1236l3 3v3h-6l3-6zm66 6l15 4v2q-14 4-18-2l3-4z" fill="#7fe1fe" stroke="#7fe1fe" class="B"/></svg>