<svg xmlns="http://www.w3.org/2000/svg" viewBox="0 0 1536 1536" stroke-width="3" xmlns:v="https://vecta.io/nano"><path stroke="#000" opacity="0" d="M1 0l1535 1v1535H0L1 0zm562 24l-28 14-53 53-2 4v55l-6 9 5 6-5 8v243l35 38q-16 20-41 32l-14-6-51 32-41 41q-5 15-18 24l-38 64-9 37-15 15 6 10q2 15-6 20l5 6-11 26q-3 17 5 24l-5 12q-3 16 5 22l-5 6 6 10v101l-6 11v81l11 25-5 6 9 10q8 32 27 54l2 11 10 13 2 11 16 25q-1 13 6 18l2 29q13 10 18 30l28 31q-1 13 6 18v13l8 16 77 76 89 47 43 37 17 2 11 6h25l11 6h25l23 12q12 2 16-5l14 11h69l23-12h13l29-18h25q6-8 24-6l37-23 6 5 8-5 10 5 28-27 11-5 28-28 32-50-5-6 5-8q-4-22 3-31 45-34 69-89-2-18 6-24v-19l12-35v-51l-18-47v-43l-6-11v-17l6-11 2-25 9 5 25-2 42-44V785l-6-11q-3-20 6-26l-5-6 5-8v-9l-12-23 6-14-21-22-33-78v-17l12-29v-49l6-9-5-6 5-8q5-27-6-38v-31l-18-35-2-11-7-7-17-35q-17-10-24-30l-46-47-41-23-15-26-13-13-23-41-25-31-17-29-50-49H563z"/><g fill="#fff" stroke="#fff"><path d="M565 24h347l51 49 94 141 41 23 45 46q7 20 24 30l17 35 7 7q5 29 21 48v31q10 9 6 34l-6 10 5 6-5 7v49l-12 29v21l32 76 21 22q-7 3-5 16l12 28-6 10 5 6q-9 7-5 28l6 11v113l-42 45q-8 6-23 3l-12-6q3 24-7 35v21l6 11v43l18 47v47l-12 35v19q-8 6-6 24-24 56-70 91l-2 29-6 10 5 6-32 50-27 27-11 5-28 27-10-5-8 5-6-5-39 24q-18-2-24 6h-25l-29 18h-13l-23 12h-65l-16-12-14 6-23-12h-25l-11-6h-25l-11-6q-14 2-19-3l-43-37-89-47-76-75-9-18v-13q-7-5-6-18l-27-29q-5-20-18-30-7-10-3-31-7-5-6-18l-15-23-3-13-9-11-3-13-24-41-2-11-9-10 5-6-12-27v-77l6-11V827l-5-8 5-6q-8-5-6-20l6-14q-8-7-6-22l12-28-5-6q8-6 5-22l-5-8 17-19q3-38 21-61l13-13 11-23q13-9 18-24l40-40 51-32q3 7 16 5 24-12 40-32l-36-40V175l6-10-5-6 5-7V97l55-58 30-15zm-2 30l-28 14-25 27v58l-5 3-1 6 4 2-4 9v243l2 4 14 11-1 2 36 17 2 5-2 7-42 19-3 8-27 16-3 8-6 3-17-3-1-3-17 8-3 5-33 19-3 5-3 1-23 29-17 35-6 1-15 28q1 13-6 18v13l-9 18h-8l-1 6 11 2-11 28 4 2-10 27q-3 17 6 23l-6 13q-2 16 4 24l-3 1-1 6 6 4v107l-6 8v81l12 29v3l-2-3-3-1-1 4 7 4 19 46 10 13 2 11 10 13 2 11 5 2 11 20q-2 15 6 21l2 29 5 2q11 34 38 53l9 24v13l8 16 38 35-1 2q9 11 25 16l-1 2 21 8 11 9 17 5-1 2 27 14 47 39q17-2 24 6h25l11 6h25l23 12q11 2 15-4l8 3-1 2 8 5h69l4-2v-3l-5-3 1-3 9 5q8-8 27-6l29-18h25q6-8 24-6l37-22 3 1 1 3 10-5 7 2v3h6l3-11 9-3 2-4 20-13 18-23 14-29-2-1-2-2q8-11 4-33l9-18 15-9 2-4 4-2q16-11 23-31h2l17-31q-2-18 6-24v-19l12-35v-51l-6-8v-10l-12-29v-43l-6-8v-23l6-8q-4-26 6-37l-2-1-2-2 5-20 3-2 31 12 25-2 12-14V785q-10-9-6-31l6-4v-5l-4-2 1-4 3-1v-13l-12-23 6-17-11-4-19-33v-7l-24-53v-17l12-29v-49l6-12-2-1-2-2 4-8q5-27-6-38v-35l-11-2 5-7q-12-12-14-33l-4-3-20-39-4-3-20-27-12-7-4-11-53-28q-22-20-33-50l-4-3q-20-22-32-51l-4-3-8-15-4-3-26-39-19-19H563zm230 54l5 1-1 4h-4v-5zm115 55l3 1 1 4h-2l-3-1 1-4zm-199 77l4 2v3l-4 1v-6zm15 36l2 1-6 8-7 3 11-12zm267 6l4 2 1 4h-2l-3-6zm-289 10v5l-41 39-1-2 42-42zm29 63l1 1-3 4h-2l2-4 2-1zm-11 15v2l-9 12h-2l11-14zm-18 24v2l-9 18h-3q1-15 12-20zm179 20l1 1v1l-1-2zm3 0l9 2v3l-7 1-2-6zm-194 2v10l-3 6h-3l6-16zm362 4l1 1 3 9h-1l-3-10zm6 12l1 1 2 4h-1l-2-5zm-379 12l5 4-3 8h-3l1-12zm248 7l2 1q2 14 13 19h1l20 22 29 47 13 13q5 5 3 19l6 7h1l4 8-11 2-6 14-7 2-8-5-8-21-2 1-17-34-2-17q-15 2-19-7l-3-13-6-8v-16l-10-15 4-2v-6h-3l-1-3 7-8zm-329 23l4 1-2 5-5-1 1-4 2-1zm80 22v10l-3-3h-2l1-4 4-3zm-164 32l1 1-4 7-1-1 4-7zm165 0l2 1q6 7 3 25l-3-2q-6-8-2-24zm6 36l2 1 3 15h-1l-4-16zm-30 14l4 10h-1l-3-10zm37 4l7 7 3 7-9-8-1-6zm18 24l16 16v1l-15-11-1-6zm400 4v2l-3 6h-2l5-8zm39 3l2 1-5 10-5 2-1-1 9-12zm4 57l4 8h-1l-3-8zm-536 3l1 5h-5l-1-2 5-3zm542 7l5 16h-2q-6-5-3-16zm-293 5l3 1 1 4h-2l-3-1 1-4zm81 0v4l-4 1-1-2 5-3zm218 13q7 6 5 22h-2q-7-7-3-22zm-692 5v4l-4 1-1-2 5-3z"/><path d="M1178 703l4 2h1l4 8-7 1-3-1-1-7 2-3zm-331 17l4 2v3h-4v-5zm324 2l5 10h-2q-6-2-3-10zm12 4l2 1 3 7-6-5 1-3zm-189 42l2 1-1 4h-4l1-4 2-1zm-267 6l1 1-7 4-1-1 7-4zm-165 54l4 1-8 7 4-8zm-18 24l1 1-4 9-1-3 4-7zm-6 12l2 1v5l-5-1 3-5zm247 265v4l-4 1-1-2 5-3zm-243 30l3 1 1 4h-5l-1-2 2-3z"/></g><path d="M565 54l1 1-23 11v-1l22-11zm226 0l27 1q-5 8-20 5l-7-6zm48 0l27 1q-5 8-20 5l-7-6zm48 0l27 1-2 5q-21 4-25-6zm-83 54l5 1-11 5v-1l2-3 4-2zm-254 13l3 3-2-2-1-1zm417 1l5 10 1 1-4-1-4-7 2-3zm-490 34l-2 3 5 7-3 2 2-3-5-6 3-3zm526 22l5 10-3-2-2-8zm46 61l11 7h-4l-11-5 4-2zm-107 1l1 1h-1v-1zm-192 15l-11 12-1-2 12-10zm-20 3l5 5h-1l-4-5zm373 18l10 7 3 7-13-14zm-262 1l5 15h-1l-4-15zm306 55l6 12-1 2-7-11 2-3zm-592 3l3 5-4 3 3-4-2-4zm262 39l-8 11-2-1 10-10zm-109 14v2l-5 8-1-2 6-8zm90 5l1 2-5 2 4-4zm214 20l-3 4 5 6-6-5 4-5zm-534 7l32 34-18 17 17-18-31-33zm212 8v4l-5 8-1-2 6-10zm-147 16l11 6h-1l-10-6zm54 6l-2 3 5 6-6-5 3-4zm328 0l1 1-6 8-2-2 3-5 4-2zm290 24l-2 3 5 7-3 2 2-3-5-6 3-3zm-762 6l3 3-2-2-3 2 2-3zm64 0l1 1-8 7 3-6 4-2zm414 25l5 13-3-2-2-11zm-252 3q7 4 5 19h-1q-7-6-4-19zm-37 9v16h-1l-2-5-3-1 2-5 2-1 2-4zm456 56l1 2-5 2 4-4zm-18 24l1 2-11 8 10-10zm67 15l1 1-7 9-1-3 3-5 4-2zm-90 8l-14 17-2-1 16-16zm126 0l11 24-4-3-7-21zm-847 30v4l-5 8-1-1 6-11zm835 14l5 12h-1l-4-12zm63 2l20 22-3 2 2-3-19-21zm-81 8l5 12-3-2-2-10zm-856 4l-14 15 2 3-3-2 15-16zm673 0l2 1 2 6-1-1h-11l8-6zm-655 12l4 1-1 4 1 1-7-2 3-4zm9 7v5l-5 8-1-1 6-12zm-39 23l-2 3 5 7-3 2 2-3-5-6 3-3zm886 13l5 16h-1l-4-16zm86 5l-2 3 5 7-3 2 2-3-5-6 3-3zm-518 30l4 1-12 5 2-3 6-3zm456 22l5 13h-1l-4-13zm35 6v22l-3-2-3-12 6-8zm-950 14l2 4-5 6 2 2-3-3 5-6-1-3zm950 28v28l-3-2-3-17 6-9zm-917 12q6 3 5 15l-1-1-3-1-1-13zm359 12l1 2 1 1-7 7-2-1 2-1 5-8zm-18 24v3l-5 10-1-4 6-9zm576 12v2l-11 14-1-1 6-11 6-4zm-582 3v6l-5 10-1-5 6-11zm510 15v2l-5 10 2 2 3 3-5 7-1-16 6-8zm-11 105l5 13-4-3-1-10zm-861 23l2 4-5 6 8 8-9-9 5-6-1-3zm879 55l5 13-3-2-2-11zm5 21v15l-5 10-1-16 6-9zm-6 33v13l-2-2-4-2 6-9zm-623 5l-1 2-1 2-8 2v-1l10-5zm-156 46l5 13h-1l-4-13zm743 58l1 3-6 9-1-1 6-11zm-683 60l11 18-9-8-4-7 2-3zm662 28l-2 3 5 7-3 2 2-3-5-6 3-3zm-33 14l1 3-12 21-1-1 12-23zm-525 40l11 6h-1l-10-6zm38 24l15 12h-1l-14-12zm428 0l1 1-4 11-4-2v-2l-4-1 4-1 1-3 6-3zm-30 6l4 1-12 6-3-1 11-6zm53 9l-26 27-4-2 3 1 27-26zm-51 21l7 5 2-1-3 2-6-5-3 2 3-3zm-301 6l12 6h-2l-10-6zm31 6l13 6h-3l-10-6zm118 10l5 5-6 3v-1l1-7zm-91 1l1 1h-1v-1zm102 0l1 1h-1v-1zm-66 1q11-1 14 6h-20v-1l2-3 4-2zm42 0l1 1-2 3-6 2 3-4 4-2zm-69 24l9 9-8-8-3 2 2-3z" fill="#8b5d76" stroke="#8b5d76"/><g fill="#2f2336" stroke="#2f2336"><path d="M568 54l13 6h15q5-10 25-6 5 9 23 6 5-10 25-6l8 6h39l8-6 8 6h180l2-4 16 14 6 11h1l11 18h1l11 18h1l11 18h1l11 18h1l11 18h1l11 18h1l23 36h1l7 15 22 9 36 24h1l17 18h1l14 16 27 50h1l11 24h1l4 7-5 7 6 5q-2 14 6 18v101l-6 8q4 22-6 31h3l3-2q-10 12-6 40l12 23v12l24 44h1l5 7v15q7 4 6 18l6 8v89q10 5 6 25-9 5-6 23 10 5 6 25l-6 8-6 22q-8 6-23 3l-23-12h-12l-8 12v27l-6 8v29l-2 2-4 2 2 4 4 3v41l6 8v16l12 26v22l6 13-6 8q5 23-6 31v39q-9 4-6 21l-17 34-5 3-7 15-22 20 1 1-15 9q-9 8-7 29l-6 8v25l-11 22-5 4-7 14-10 8 1 1-34 20v3q-33-5-44 12v1l-25 11-27 2-3 4h-15l-51 22-7-4-2 9-5-3h-66l-10-6h-20l-25-8-1-4-5 2 1 4h-3l-8-6h-29l-8-6q-18 3-24-6l-1 4 2 2-8-3-6-13-16-7-8-11-16-7-2-5-16-7-2-5-46-19-2-5-22-13-3-5-4-1v-3h-2l-11-14-4-1-1-3-2 1-4-7h-2l-17-25v-10l-8-22-22-22-18-36v-10l-6-8v-16q-8-4-6-18l-17-31h-2l-17-31-28-67 4-2q-8-8-6-25l-6-8v-53l6-8q-5-23 6-30v-63l-6-8V739l6-10v-17l6-8v-19q8-6 6-21l6-8v-10l22-34 17-35 15-17 15-13v-2q17-20 51-23l-3-5 27-3 39-33v-2l17-5 20-12 2-7-6-9-17-5-28-21-3-6V181l6-11v-52q11-8 6-30l19-19 10-3v1l-5 3 1 2 7-5 1-2 19-11zm-2 24l-2 3-21 10-9 16 2 55 17-6h158l15 9 9 10 3 13 6 8 2 26 21 12h27q16-5 26-18l8-1q2-17-6-23v-55l-12-15-35-2-1-2 7-4h47l17 12h37l6 3q13 10 18 28v10l3 1 9 35 18 4 6 14 39 7 8 6 7-1-8-22-4-3-8-15-4-3-8-15-4-3-8-15-4-3-8-15-4-3-8-15-4-3-8-15-4-3-6-14-332-2-4-4-4-2zm306 54l-2 3-3 3-14 2-7 9v39l8 16q6 10 26 6l2 9-3 3h-22l-8 6q-18-2-24 7l-3 4 2 7 5 2 17 47q3 17-6 22l2 13h30l11-6 29-2 12-14-2-13-3-1-1-25-6-8v-22l-6-8q2-16-6-21v-25l-6-11-2-23-3-1-1-4-9-7v-1l-3-4-4-2zm-321 42l-4 2-13 15q2 13-3 19h-1l-2 5 3 1 1 3-1 3h-1l-2 5 3 1 3 7v160l41 19q14-2 18 6h11l2 5 5 1 1-3 16-4 25-62 2-1 8-19 43-43 8-2 2-4q6-12 22-14 11-5 12-20l-11-2-13-36v-19l-8-16-8-7H551zm390 66l-2 1-3 4q-3 18 6 26v22l30 7 42 27 57 58 15 30 6 25 6 11v59q-8 6-6 24l-39 72-33 33-11 5-16 22q-7 7-20 8l-13 10h-67l-8 6-13-6h-28l-8-6-25-6-64-29v-1l-9-8-30-31-2-8-4-3-12-19q3-19-6-24v-40l-4-7 4-8v-52l6-8v-10l11-25h2l16-24h2l5-11 28-28 8-2 31-25 11-3v4l4 2 8-11-6-1 12-16-2-7-4-3-2-3-8-7h-9l-52 26-3 5-3 1-3 5-15 7-29 29-7 15-1-1-11 19-1-1-18 38q3 18-6 24v16l-6 8v34l-6 8v39l6 8v10q7 4 6 18l14 28 5 2 7 16 5 2 19 34 56 35-1 2 50 23q14-2 18 6 17-3 25 3l2 3h60l8-6h58l14-7 2-10 6-1v-2l9-4 5 6 22-8 2-4 16-8 2-4 4-2 29-31h2l4-6h2l15-21 20-40v-10l12-21v-21l6-8v-75l-6-8v-16q-8-7-6-24l-14-34-4-3-8-15-4-3-2-3-4-3q-12-6-14-21l-31-24v-1l-67-36h-10l-8-6q-19 2-27-6zm0 84l-29 18-12 2 2 10 10 6v4l7 4 7 16 5 2q11 6 13 22 5 10 19 12l5 18 11 8 7 16 11 8 7 16 5 2 7 16 5 2 7 16 5 2q11 12 13 34l8-1 7-26h2l5-7v-75l-26-58q-13-9-18-24l-16-17-67-26zm-120 18l-34 20-35 35-8 16 2 7h150l4-2v-3l4-1 2-4-8-19-40-41-23-2-14-6zM605 444l-4 2-7 8 11 8 11-1 2-15-13-2zm132 0l-4 2-7 9 2 7h84l9-6 1-10-85-2zm132 6l-4 2-13 21q2 17-6 24v93l21 35 4 1 1 4 27 18h50l17-7v-18l-18-42-27-35-15-30q2-17-6-23v-13l-8-17-23-13zm54 0l-2 1-3 4v15l12 17 2 29 5 2 7 16 17 14 25 52 9 6 7-2 5-7h2l11-10-2-10-4-3-6-17-12-14-2-8-4-3-8-15-4-3-25-36-7-4-16-22-7-2zm-322 18l-1 3-6 5 2 10 20-1 2-9q-4-9-17-8zm121 6l-2 2 2 10 98-1 2-9-100-2zm-126 24l-2 2 2 10 20-1 2-9-22-2zm132 0l-2 2 2 10 92-1 2-9-94-2zm-189 6l-16 8-12 20-1-1-6 9v20l9 11 8 22h-2l-9-7-8-15-10-11-20-6-1-2-7-6h-14l-35 20-29 41-20 40-6 25-6 11v19q-8 7-6 25l-6 11v74l6 11q-4 26 6 40l12 4 2 3 41-21 1-3 4-2 40-40 18-30 4 12 26 12 2 4q-4 6-18 2l-36 21-16 16-2 10 48 1 21 10v3l14 5 11-20 3-1 21-27 6-14 2-1-18-33v-36l6-10-2-2-4-2-2-3-8-7-25-6-11-6h-21l-40 20-16 16-3-2 8-10 4-2 4-6 3-1 33-45 6-14 3-1 5-12 4-3 2 3 2 33q16 21 46 30 17 3 25-3l19-21 17-15 15-4 2-3q2-15-6-20v-13l-6-11-2-41-15-10-5-5 10-14-17-11q-11-8-7-31l-25-2zm189 18l-2 2q0 12 9 16l10-6h76l1-10-94-2zm21 36l-4 2-7 9 2 12 5 3 1 4 25 22v3l44 23 31 9v2l4 1 8-10-2-2-4-2q-26-24-36-62l-16-8h-14l-11-6h-26zm-120 12l-4 2-7 9q2 17-6 25l6 26 8 16 9 6 49-1-2-10-19-31-3-2-14-27q-5-11-17-13zm516 42l-2 1-9 16 6 27 18 32q-2 14 6 18v16q8 6 6 24l6 8v14h-3l-15-42q2-18-6-24v-13l-18-35-1-12-29 26v6l15 23 32 70-5 2 6 8q-2 15 6 22v31q9 7 6 27l11 1 1-15 9-3 3 4 2 32 10-1v-84l-6-8v-52l-6-8-2-31-4-4-12-25v-9l-18-33v-7l-7-2zm-513 54l-2 3-29 11-17 17-26 46q-4 27 6 42l11 3 1 3 5 1 1-2 30-10v3l-2 4-28 20-2 4-3 1-9 11-3 1-6 8-1-1-17 25h-1l-24 55v41l-3 2-3-2v-22l-6-11v-13l-9-18-3-2-2-3-6-5-1-2-8-6h-86l-16 8q-26 18-37 51v86l6 11 6 26 21 47 4 1 19 40 19 19 5 17 33 30 19-2q19-11 27-33l28-22 41-16-3-17-3-2-2-3-6-5-1-2-47-34-1-2-21-16-35-14h-28l-3-2 18-12 6-8v-31l3-1 4 2 13 28 31 28v3l63 38 17 15 7-2 9-15q17-22 45-33l6-8v-8l-12-29v-85q8-7 6-23l15-30 31-37 8-16v-15l-14-28-28-31 3-6 44 24h45l28-14 10-12 2-1-2-8-52-41-17-8h-61l-4-2-2-2-4-2zm459 48l-4 2-13 21v32l12 30v31l4 7-4 9 6 12q3 21-6 30v67l-6 11v31l-6 11v25q-9 8-6 30l-6 11v67l-6 11v53l12 4-12 14v8l14 35 9 6h9l17-9 15-29 3-1 11-26q-5-29 6-41v-69l-12-34v-13l-6-11v-66l6-11v-31q10-9 6-31l6-11V785l-21-47-3-2-6-14-19-8zm-279 12l-2 3-29 11-13 13-57 28-15 28 2 13 13 10v3l9 5h73l6-3 4-1-2 4-27 12h-85l-16 8-5 7h-2l-11 19-1-1-12 20v52l-4 3-2 5 3 1 3 4v27q6 19 21 30l3 10q17 4 25 17l28 14h13l24 9-2 3q-24 4-33-6h-24l-29-12h-15l-34 20-11 11-20 34 3 1 3 11 71 37h15l23-15 4-1-1 3-18 20-10 5h-23l-13-10-46-20h-57l-28 14q-13 8-17 25h-2l-18 39v37l6 11-2 6-16-24v-18l-14-29-32-25-8 2v12l21 41 10 7 20 29 12 30 4 1 1 4 13 10v3l30 21v3l32 17q17-2 25 6h60q4 7 18 6l24 15-2 9-39-18-43 2 3 11 30 21v3l21 11q21-3 30 6 32 5 48-8l12-26-2-31q-9-13-26-19h-13l-30-12h-12l-18-9-11-12 1-3 26 12q22-4 31 6h25l11 6q29 4 42-8l10-10 17-35q14-19 39-27l6-8q2-23-8-31l-9-7q-14-2-19 3l-33 51-36 34h-3l16-16 36-54 8-22q2-14-5-18l3-8 7 2h2l11 21 5 1 1-2 12-6q20-15 28-42l3-1 17-37-1-20h-24q-9 9-30 6l-26 12-14 2-3 5-15 7-11 11-42 80h-2l-8 10-16 14-23 9q-14-1-19 6h-25l-11 6-18 3-2 4-3 1q-16 10-22 28l-9-2q-2-15 3-21l10-4 1-3 29-18h36q6-8 24-6l29-14 16-16 41-83q10-15 28-22l1-3 59-24h12l11-6 18-2 24-26q6-34-8-49l-16-17-23-8h-44l-11 6-23-9-13-12 3-3 27 12h14l11-6h13q4-7 18-6l22-14 12-20q-1-14 6-18-5-27 6-37v-32l-6-11q4-21-3-30l-3-2-2-3-6-5-1-2-11-6-4-8 12-6q13-9 18-26v-12l-29-2q-8-9-27-6l-4-4-4-2zm124 18q-9 10-31 6l-14 7q-6 5-3 20l-4 3-2 5 3 1 11 24q14 19 40 27l12 16 6 25 24 53q4 19-3 29l-15 12-6-2 6-9v-20l-26-76-6-5-1-2q-8-11-31-6-1 15-8 23v37l-6 11v57l9 17 4 1 1 4 21 12h32l7-4 10 4q27 4 41-6l7-17q-8-8-6-26l-6-11v-13l-6-11v-18l12-22v-15q-16-14-24-35v-67l-8-16q-8-19-40-13zm72 0l-6 3-2 4-3 1-7 9v57l6 11 2 17q6 10 27 6l4-23q5-12 9-4v39l-30 53v20l30 82 11 1 7-16q-2-18 6-24v-13l6-11v-19l6-11v-99l-24-41q2-21-8-29l-20-13h-14zm-43 282q-7 8-24 6l-16 8q-13 10-19 27v13q-7 4-6 18l-42 83q1 13-6 19v12l-6 11q-4 21 3 32l4 1 5 13-53 23-13 21 3 1 5 12q10 13 28 18 16 2 24-5v8l-17 9h-19l-22-8-2-2-4-2-2 3-4 1-3-4-13 7-16 29v55l-6 11 3 7 4 1 1 4 9 6q17-2 25 6h25q8-10 31-6l47-21 3-5 2-1v-7l-16-8h-26q-9-9-30-6l-38-16-1-2-3-8 3-2 26 10h44l18-9q2-6 5 0l-12 13 12 8 30 9 8 15 34-2 6-8v-8l-9-18-3-2-2-3-21-16-13-21q5-35-6-52l-21-2-3-2q10-15 29-21l1 19 12 28 2 36 7 4v3l9 5h8l44-24 2 10-24 11-6 9 2 24 10 6h32l28-14 18-26q-3-18 6-24l-2-2-4-5v-37l-6-11v-14l-6-15-16-8-7 2-25 22-6-2 5-4 1-4-2-2q-7-5-4-18l-9-18-3-2-8-15q-9-13-26-19-14 2-19-3l-13-15v-11l6-16 4-3 4 18 15 12h9l16-8 16-18 6-4 1 1-11 22v33l20 28 15 12 14-3 5-7q-2-18 6-25v-97l6-11q5-34-8-48-9-13-26-19-14 1-18-6h-21zm212-246l5 4v32l-6-2 1-34z"/><path d="M987 1134l3 3-2 3h-4l3-6z"/></g><g fill="#5b4a76" stroke="#5b4a76"><path d="M575 54l27 1q-5 7-19 5l-8-6zm48 0l27 1q-5 7-19 5l-8-6zm48 0l51 1-8 5h-35l-8-6zm72 0l27 1q-5 7-19 5l-8-6zm188 16l6 10h-1l-5-10zm-364 8l3 3 2 3h-9l1-2 3-4zm-51 10v20l-5 8-1-19 6-9zm427 0l6 10h-1l-5-10zm-396 2l1 1-8 7 3-6 4-2zm408 16l5 10-3-2-2-8zm-306 2l16 6 113 1-4 2 1 3 30 1-1 4 6 1 1-2 11 15v55q8 5 6 20l-11 4-1-15q-7-8-7-23l-10-3-17-14-2-5-28-14h-7l-29-12h-15l-16 6-11-6h-25l-25-8 3-4 12-5v-2l10-5zm161 0l16 6h-26v-1l10-5zm-261 14l8 4h31l21 19 5 11h-63l-14 6-3-2v-35l3 1 12-4zm324 10l3 3 2 3h-9l1-2 3-4zm106 8l6 12h-1l-5-12zm-127 2v2l-5 10-1-3 6-9z"/><path d="M888 149l3 2q6 7 3 25l6 11v25l6 12-2-2h-24l2-10-17-2-10-6q-12-11-9-37l3 1 9-2 19-16 11-1zm-175 7l11 6h-3l-8-6zm278 4l6 10h-1l-5-10zm-438 14l144 1-1 4 5 1 1-4v-2q12-1 15 7l9 18v19q8 6 6 24l7 10 7 1-12 9-8-10v-31q-5-17-18-27l-4-2h-75l-11 6h-43l-21 19-2 4v111l5 8q-7 4-5 19l29 9-17 39 1 1-31-14 1-101 4 1 1-100-4-2-2 1 13-16 6-3zm186 8l5 12-3-2-2-10zm174 0l5 12-3-2-2-10zm-379 24v26h-1l-1-4-4-2 3-4h1l1-3-1-3-4-2 3-4h1l2-4zm211 6l12 14 15 8h-3l-22-12-2-10zm282 2l6 10h-1l-5-10zm-216 8l1 1-23 11v-1l22-11zm48 0l3 1-11 5 2-3 6-3zm124 6l9 6h-1l-8-6zm-76 4q7 4 5 18h-1q-7-6-4-18zm132 0l9 8h-7l-2-8zm-210 2l1 1-2 13-5-9 2-3 4-2zm134 12l11 6h-1l-10-6zm96 0l19 12h-3l-16-12zm-78 6l13 6h-3l-10-6zm-231 4v2l-12 15-7 3 5-6 2-4 12-10zm85 4l5 12-3-2-2-10zm78 2l5 12h-1l-4-12zm-192 2l5 3q-3 6-6 1l1-4zm78 0l3 1-25 11v-1l22-11zm290 0l9 3 1 5h-1l-9-8zm-146 4l39 14 3 4 39 20 3 4 23 11 33 34 9 14h1l23 58v95l-6 11q1 13-6 18v13l-5 10-5 3-13 21-11 9-5 11-8 2-16 16 1 1-38 30-2 13q7 4 6 18l-2-2-10 3v3l-6 1v3l-12-20-4-1-2-7h-2l24-12 15-21 7-3-2 3 2 3 20-18 2-5-2-1 18-18 38-70q-2-18 6-24v-63l-6-11-6-25-14-28-58-59-40-26-32-8 1-5 4 1 1-4-4-2-2 1 1-15zm-126 6l4 10-11 16 6 1-8 10-4-2v-3l-11 2-38 28 14-15q17-6 27-21h12q9-8 9-26zm-54 8l3 1-23 11 2-3 18-9zm280 0l9 6h-1l-8-6zm-125 4l1 8 2 1 3 11-5 8-2-8-11 9 2 3 6 1-8 5q-26-4-36 6h-25l5-6 18-36h48l2-2zm-202 1v2l-9 5 2-3 7-4zm351 13l16 13 3 7-19-20zm-340 6l1 1-38 37 31-35 6-3zm119 4v2l-5 10-1-3 6-9zm95 15l58 21 24 21q5 15 18 24l15 33h-1l-6-10-5 2q-2 17 6 26l-2 2-10-10-29-16 5-11-12-21q-16-5-24-18l-28-14h-21l-9 7-2 7-6-8-9-6-3-9 14-3 27-17zm164 15l5 10-3-2-2-8zm-284 3l12 5q17-3 25 3l39 40 8 19-2 4-3 1q-15 0-22-7h-13l-25-15 1-6 10-5 1-8-31-2-14 12 1 1-8 6-1 3-5 3-8 21 2 2h-39l1-5-4-1-2 1 9-18 34-34 34-20zm332 1l5 12-3-2-4-7 2-3zm-435 4l2 1-9 11-3-2 10-10zm-34 4v2l-5 8-1-1 6-9zm42 12v2l-5 8h-2l7-10zm397 4l5 14h-1l-4-14zm42 0l6 12h-1l-5-12zm-240 8l5 10-3-2-2-8zm-283 4v4l-5 8-1-1 6-11zm-6 18v4l-5 10-1-3 6-11zm307 2l5 10-3-2-2-8zm234 0q6 4 5 16l-3-2-2-14zm-610 8l13 6h-3l-10-6zm129 2v4l-5 8-1-1 6-11zm-109 4l11 6h-3l-8-6zm366 0l9 6h-1l-8-6zm-299 10v2l-5 10-1-3 6-9zm313 4l11 18-9-8-2-10zm216 6q9 10 5 34l-5 10 2 2 3 3-5 7v-56zm-42 2q7 4 5 18h-1q-7-6-4-18zm-78 6l5 12h-1l-4-12zm-456 2l3 1-11 5 2-3 6-3zm132 0h81l2 3v4l-4-1-2 6 2 1-8 5h-81l-3-5 7-10 6-3zm-91 4v8l-5 10-1-9 6-9zm337 6l11 16-9-8-2-8zm-301 4v34l-5 10 5 13h-1l-5-7v-39l6-11zm-143 10l1 1-11 5v-1l10-5zm60 0l13 6h-15l1-2 1-4zm122 6l94 1-1 5h5 1l-2 4-4 2h-93l-3-9 3-3z"/><path d="M1003 476l5 12-3-2-2-10zm-385 3l-1 2-1 3-7 2v-1l9-6zm24 11v27l-3 5-2 1-1-24 6-9zm373 4l5 12-3-2-2-10zm131 0v14h-1l-1-4-3-1 5-9zm-535 4l7 3-2 7-5 2 1-2-1-10zm118 0l88 1-1 5h5 1l-2 4-4 2h-87l-3-9 3-3zm298 14l5 12-3-2-2-10zm-49 2l3 3 3 7-3-2-3-8zm167 0v4l-4 6-1-1 5-9zm-694 2l1 1-33 17 2-3 30-15zm617 2v4l-5 8-1-1 6-11zm114 2v2l-5 10-1-3 6-9zm-453 2h91l2 3v4l-5-1-1 5 1 1h-74l-8 5-9-14 3-3zm214 4l18 22h-1q-14-7-17-22zm-306 1l3 3 2 12-3-2-2-13zm353 5l3 3 3 7-3-2-3-8zm150 4v4l-5 8-1-1 6-11zm-737 10l1 1-14 13 1-2 6-9 6-3zm282 4q7 4 5 18h-1q-7-6-4-18zm360 0l9 2 2-1-2 5-7 2-2-8zm89 4v4l-5 8-1-1 6-11zm-6 18v4l-5 8-1-1 6-11zm-437 2l5 10-3-2-2-8zm324 0l5 10-3-2-2-8zm-4 14l5 1-8 7v-1l3-7zm160 2l5 12-3-2-2-10zm-510 2l5 10-3-2-2-8zm41 0l3 3 3 7-3-2-3-8zm-29 18l5 10-3-2-2-8zm467 10v4l-5 10 5 12h-1l-5-15 6-11zm13 2l5 12h-1l-4-12zm-55 6v2l-5 8-1-1 6-9zm-756 4v4l-5 8-1-1 6-11zm790 10l2 14 18 35v13q8 6 6 24l6 11 8 29h4l1-4 5 18-2-2-4 1 2 35h4l1-4q8 9 5 30l-2-2-10 2q4 13-2 16l-10-2q3-20-6-28v-31l-6-11v-19l-32-70-10-13h2l4-1-2-17h-6l24-24zm-435 4l13 14-11-6-2-8zm444 4l11 26h-1l-10-26zm54 0l12 24h-1l-11-24zm-424 4l25 12h-3l-22-12zm334 16l5 12h-1l-4-12zm-292 2l29 12h-7l-22-12zm238 6l1 1-9 5 2-3 6-3zm162 4l3 2-1 2 3 12-3-2-2-14zm-343 2l8 6h-1l-7-3v-3zm25 0l51 1-10 5h-49l2-3 6-3zm-571 2v11l-1-1-5-1 2-5h2l2-4zm431 4l23 12h-3l-20-12zm278 0l1 1-21 11 2-3 18-9zm126 2l5 12-3-2-2-10zm60 12l5 14h-1l-4-14zm-422 4l11 6h-3l-8-6zm24 6l11 6h-4l-7-6zm158 0l3 1-13 5v-1l10-5zm-661 2v12l-2-2-4-2 6-8zm847 0l5 14h-1l-4-14zm-252 4l1 1-11 5v-1l10-5zm276 4l5 12h-1l-4-12zm-18 15l5 13-3-2-2-11zm54 37l5 12-3-2-2-10zm-510 4l1 1-8 7 3-6 4-2zm480 4l5 13h-1l-4-13zm35 6v6l-5 7-1-4 6-9zm-672 42l1 1-6 9-1-1 6-9zm133 20l-1 2-3 4h-7l11-6zm-25 16l1 2-2 1-4 7-1-1 6-9zm-348 1v43l-5 8-1-43 4-7 2-1zm912 17v12l-7 4 7-16zm-582 10v5l-5 10-1-4 6-11zm-336 42v4l-5 8-1-1 6-11zm840 8v14l-5 10-1-15 6-9zm-845 60q7 4 5 18h-1q-7-6-4-18zm840 21l5 13-3-2-2-11zm-834 1l5 10-4 1-1-11zm840 24l5 12-3-2-2-10zm6 18l5 12-3-2-2-10zm-828 12l11 24-3-2-8-22zm18 38l5 10-3-2-2-8zm432 8l3 1-11 5 2-3 6-3zm-402 52l5 12h-1l-4-12zm779 18v2l-5 10-1-3 6-9zm-767 24l17 34-3-2-14-32zm743 30v2l-5 10-2-2 7-10zm-12 18v3l-12 14-7 3 19-20zm-683 42l6 10-1 2-5-12zm641 24v8l-5 10 2 2 3 3-5 7-2-2 1-20 6-8zm-619 8l16 13 3 7-19-20zm40 36l11 6h-1l-10-6zm489 54l10 1-7 5-3-4h-3l3-2zm-379 12l10 7 3 7-13-14zm356 0l1 1-11 5v-1l10-5zm-18 6l3 1-11 5 2-3 6-3zm-34 6l3 3 2 3h-9l1-2 3-4zm-26 12l1 1-11 5v-1l10-5zm-24 6l9 1-29 10v-1l20-10zm-130 6l17 1-9 4-8-5zm30 6l14 1-5 3-1 2-5-2v-2l-3-2zm23 0l12 6h-5l-7-6z"/></g><path d="M725 54q18-3 24 6h-17l-7-6zm47 0q18-4 24 6h-32v-1l8-5zm48 0q18-4 24 6h-31v-1l7-5zm48 0q18-4 24 6h-31v-1l7-5zM548 65v2l-7 5-1-2 8-5zm495 175l11 6h-4l-7-6zM660 344v5l-5 7-1-1 6-11zm-55 76l9 1-3 5-5-1-1-5zm342 54l6 4 1 4-7-8zm-494 43l3 3v2h-11l8-5zm687 24v6l-5 10-1-7 6-9zm36 6v8l-5 3-1-2 6-9zm-437 28l2 2 4 7h-1l-5-9zm-228 10l9 9h-1l-8-9zm9 3l2 4h-1l-1-4zm141 21l2 3-4-1 2-2zm522 17l11 20v7h-1l-10-27zm-330 7l2 3-4-1 2-2zm312 10l5 15h-1l-4-15zm-587 40l1 2-20 20 19-22zm605 5l5 12h-1l-4-12zm30 3q6 4 5 16h-1l-4-16zm6 18l5 13-4-3-1-10zm-784 5l-2 3-1-2 3-1zm106 9l2 3-4-1 2-2zm-119 2l1 2-8 8 7-10zm695 10l2 3-4-1 2-2zm34 32l1 1v8l-6-7 5-2zm-869 12v2h-1l1-2zm943 2l4 9-4 7v-16zm-694 65l-2 3-1-2 3-1zm9 10v2l-5 10-1-4 6-8zm618 54v5l-5 7-1-4 6-8zm-12 72v10l-2-2-4-1 2-5 4-2zm-821 81l5 15h-1l-4-15zm234 50l2 3-4-1 2-2zm-198 25l5 12h-1l-4-12zm620 8l-2 3-1-2 3-1zm183 4v2l-3 6-2 1-1-1 6-8zm-5 13l5 5-5 12v-17zm-454 1l-16 19-2-1 18-18zm-213 33l1 2-4 1 3-3zm481 30l2 3-4-1 2-2zm152 3l-2 3-1-2 3-1zm-423 3l1 2-9 7 1 1-2-1 9-9zm-272 15l9 8-1 1-8-9zm662 48l2 1-13 21-1-4 10-17 2-1zm-601 35l7 10-9-8 2-2zm-35 5l4 4 2 3 2 1v1l-8-4v-5zm24 24l2 2v1l6 5h-1l-7-3v-5zm582 24l1 1-6 9-1-2 6-8zm-186 5l-11 12 5 6-6-5 12-13zm67 6l2 3-4-1 2-2zm30 44l3 2-11 6-1-1 9-7zm-55 19l16 1-12 5-4-6zm-267 6l11 6h-1l-10-6zm243 0l4 1-26 11v-1l22-11zm108 0l1 1h-1v-1zm-298 6l4 2 2 4h-6l-2-4 2-2zm90 18l26 1q-4 7-18 5l-8-6zm34 0l6 4h-2l-4-1v-3z" fill="#3a3045" stroke="#3a3045"/><path d="M559 84h336l11 9h1l11 18h1l11 18h1l11 18h1l11 18h1l11 18h1l11 18h1l11 18h1l5 13q-3 5-6-2l-23-8h-22l-3-2-6-14-18-4v-11l-8-22 2-1-1-6-4 1q2-16-6-22l-2 1-11-14-18-8q-7 8-23 6l-29-18h-14l-5 3-1-3-6 1v2l-6-3-11 6h-67l-11-6h-50l-22 12h-13q-5 7-18 6l-6-3-1-3-5 2-1 2q-10-7-29-4l-14 6q-8-4-4-17l19-22 6-3zm402 27l2 3-4-1 2-2zm12 18l2 3-4-1 2-2zm-307 9h61l52 23 23 19 6 8 2 17 6 14-30 15h-6l-23-9-10-9q-7-10-3-30l-11-21-17-9h-92l-12-9 1-3 12 6 11-6q21 3 30-6zm122 42l-2 2 2 10 10-1-1-7-9-4zm71-42q16-3 23 4l-3 8-8 2-18 15-1-25 7-4zm-349 16v10l-2-2-4-2 3-4 3-2zm498 30l4 4 2 6-3-2-3-8zm-372 20h55l15 14 8 16v7l-1-1-5 1 1 5 5-1q-2 18 8 25l4-2 1-4 10 1-10 13-1-2q-13-1-16 8l-2 4 4 1-9 7-1-8-40 38-2 10 2 1-26 52-4 16-9 13-22 2-29-11v-2l-1-4 11-2-3-11h-3l6-26 12-19-12-14q2-16-5-22l5-9-6-12 6-12-6-12q8-7 6-24l14-22 16-8q17 2 24-6zm229 18h38l3 4v20h-36l-9 6q-6 7-3 25l6 12-11 27-10 8h-2q9-12 5-36l-18-47 4-7 33-12zm75 24h20l69 28q40 21 66 57l9 14h1l12 17 17 40q-2 17 6 24v49l6 17-6 13 4 9-10 26v12l-6 11-6 25-11 22-4 2-3 6 2 1-13 15-4 2q-11 25-33 39l-45 27-9-29 4-7 11-5v-2q12-17 34-26l26-26 15-23 3-1 21-54q-2-18 6-24v-19l-6-11v-55q-11-35-29-63l-2 1-35-38-16-7-1-4-17-8-1-4-23-8-3-5-28-14-11-2-12-11-2-7 4-4zm51 36l-1 3 6 3v-4l-5-2zm-84-30l5 4q-2 17 5 26h-4q-11-9-6-30zm-104 13l7 3 6 14-5 10-8 6-4 1-1-1 12-16-8-12-31 18-4 12q-31 3-44 24l-3 13q-10 6-12 22l7 1 49-46 10-2v3l-2 4-39 37-1-2-5 4-1 2 2 1-7 9-10 8-3 6 2 1-7 10-1-2q-11 5-12 21l2 1-1 3-1-3-6 17 3 1-3 13-5-2-1 12h4l2-1-6 12v28l-3 3-3 2 2 4 4 4q-3 14 3 20l-3 1v18l8 17-2 1 6 16 1-3 1 4-2 1 12 14h1l7 9-2 1 12 14 6 3 1-2q10 6 13 20l14 6 2 3 77 33 32 1-1 4 6 1 1-2 4 2h63l4-2 1 2 5-1 1-5q20-4 29 4l6 11h1l3 8-9 7q-18-2-24 6h-49l-11 6h-43v-1l-1-5-5 1v1l-53-14-45-22-33-23-28-27q-11-28-29-47l2-1-18-41v-67l6-11v-30q8-8 6-25l17-40q24-43 62-71l14-8v-2l56-28zm332 44l2 3-4-1 2-2zm23 43l4 4 2 8h-1l-5-12zm-236 8l2 1 10 16 36 21 2 5-6 11q-13 0-17-9l-2 1q-18-17-28-41l3-5zm-76 12l6 3-17 13-1 7 24 13q16-2 23 6l-2 1 3 2 1-2 2 5h-57l-11-8 5-10-8-12-15 12-1-5 7-10 17-9q17 2 24-6zm329 24l7 3v7l-7-10zm-385 12l2 1-1 5h-4l3-6zm257 6l3 3 2 3-2 1q-1 10 6 13h1l3 4 2 1q-1 13 6 18v54l-9 17h-3l-5-9-12-3-1 4 18 29-8 3-15-33-2 1-10-19-2 1-10-19-2 1-10-19-2 1-26-34-3-11 7-1 29 14-1 16-11 1 12 14 29 9 3-18 21 6 1-12-3-6h-3v-12l-6-15 3-3zm-526 17l9 7h-2l-8-5 1-2zm518 7l5 4v2l-6-1 1-5zm-108 16l12 16h-1l-11-16zm-373 1v2h-1l1-2zm47 1l9 1-3 5-5-1-1-5zm316 12l-1 2v1l-1-1 2-2zm-317 6l3 1-1 5h5 1v3l-15 3-3-6h2 4l4-6zm-7 24q12-3 15 4l-3 8q-12 3-15-2l3-10zm334 4l5 13h-1l-4-13zm-445 2l2 1-8 7 4-7 2-1zm49 6q14-1 17 9l-14 27-4 3-2 3-19 6-3-2v-18l6-9-2-1 21-18zm-127 30l2 1-9 6-1-1 8-6zm61 18q14-1 17 9l-5 7 5 9-23 26-17 3-2-24 25-30zm540 8l6 12h-1l-5-12zm-31 14l4 4 2 8h-1l-5-12zm18 25l1 1h-1v-1zm-642 7l2 1-13 21-2-3 11-18 2-1zm798 4l1 10-1 3-3-5-3-1 6-7zm-8 8l2 2-2 4 1 1-5 3v6l-4-7 4-7 4-2zm4 6l4 2v4l-6-1 2-5zm5 18l3 2 16 40 8 2 2 7-3-3-3 1 2 17 10-1v18h-1l-2-5-3 1-1 17-4-2-2 1-5-12 3 1h3l-5-11-1 3-2-3 2-1q2-17-5-23l-1 3-2-3 2-1-5-17-1 4-3-4 3-1-5-9-2 1-5-14h1l3 4h2l1-12zm12 12l3 2 3 6-1 3-5-11zm-546 15q6 4 5 16l-17 20-13 3-12-6 6-11 14-12v-2l10-7 1 2h5l1-3zm-144 27l8 6 3 7-23 26-5 1-5-3-3-7q7-7 7-21l11-5 1 2 5-1 1-5zm750 13l5 18-1-1-3-1-1-16zm-36 18l5 14-3-2-2-12zm36 9l5 5-2 3-3 2v-10zm-219 9l2 2q2 13-5 18l-7 3v-1-5l-5 1-1-1 6-11 6-4 4-2zm-105 5l3 2 2 5-5 8-10 3-3-5 7-10 6-3zm293 3v17l-2-2-8-1-5-10q11 2 15-4zm-887 4l5 13-4-3-1-10zm423 11l8 1 6 12q-7 20-23 32l-7 3-9-5-3-18 18-21 1 2 9-6zm-418 10v3l-5 10-1-5 6-8zm871 5l5 14h-1l-4-14zm-872 26l1 1v8l-6-4 3-4 2-1zm878 2l6 17 5-3v12l-3-3-3 1-5 14v-38zm-613 5l6 1q-7 28-25 45l-16 8-4-5 3-1v-6h-2l2-4 1 3 5-10-2-1 14-16 9-7-2-1 11-6zm108 36q16-3 21 6 6 7 3 25-6 17-19 27l-22 14h-13l-12-8 6-22 18-28 9-7-2-1 11-6zm222 0q14-4 18 4v6l-20 20-7-5-3-13 6-9 6-3zm283 3l8 15h-6q-6-3-2-15zm-766 9q15-3 18 6l3 7-11 14-17 3-8-15 15-15zm746 36l11 6h-4l-7-6zm-857 28v2l-5 10-1-4 6-8zm840 28v5l-5 7-1-1 6-11zm-5 38q9 6 5 25h-1q-8-8-4-25zm-840 16l5 15h-1l-4-15zm6 34l3 2 2 6-6-5 1-3zm852 40q7 4 5 19h-1q-7-6-4-19zm-378 38l11 1q-5 16-17 26l-18 9h-7l-6-3 2-7 17-17 11-5 1 2 5-1 1-5zm383 7v12l-5 10-1-11 6-11zm-809 7l6 12h-1l-5-12zm185 16l9 6 3 7-13 15-17 2-10 5-2-11 13-15 11-6 1 3h5v-6zm-173 4l5 10-4-3-1-7zm12 45l6 19h-1q-9-5-5-19zm767 13v5l-17 31h-2l19-36zm-46 69v2l-9 5 2-3 7-4zm-621 78l7 10-9-8 2-2zm72 42l11 7h-4l-8-5 1-2zm471 12v2l-11 5v-1l11-6zm-26 13l1 1h-1v-1zm-47 18l4 1-14 5v-1l10-5zm-78 24l4 1-14 5v-1l10-5zm-52 12l3 3 1 1 3 2h-14v-1l7-5z" fill="#ded4c6" stroke="#ded4c6"/><path d="M896 84l10 3 1 5-1 1-7-7-3-2zm17 16l6 10-4-1-4-7 2-2zm-257 8h41l10 6h-41l-10-6zm130 0l6 4 1 2h-17v-1l10-5zm175 4l6 10-1 2-5-12zm-324 1l-2 5-11 4 2 4q15-2 22 6h25l10 6q-20-3-28 6h-19l-12 6-11-6-1 3 11 9h-7q-7-17-21-27l-6-3h-31l-7-4 1-2q19-3 29 4l3-4 4 2 2 2 11 2q6-8 24-6l12-7zm288 5l6 10-4-1-4-7 2-2zm-118 2l3 3v3l-6-2 3-4zm63 0l11 6h-21v-1l10-5zm103 10l5 12h-1l-4-10h-2l2-2zm-271 2q16-2 23 6h-33v-1l10-5zm235 4l6 10-4-1-4-7 2-2zm-209 2l15 6h-5l-10-6zm173 3l5 13h-1l-6-11 2-2zm-18 1l5 5-2 3h-7l4-8zm-137 2l36 18-3-1-33-17zm106 1l1 23h-3q-6-2-4-12l6-11zm97 9l6 10-4-1-4-7 2-2zm-223 7l9 7 9 23h-1q-4-18-17-27l-4-1 4-2zm-216 3v4l-5 10-1-4 6-10zm451 8l6 10-4-1-4-7 2-2zm-262 2l3 3-2 3-4-2 3-4zm104 5l7 4v8l-9-10 2-2zm-15 1l9 4 1 7-10 1-2-10 2-2zm185 10l6 10-4-1-4-7 2-2zm-436 2l3 3v97l-2 2-4-2v-97l3-3zm93 0h73l15 14q13 14 8 47l8 10 14-11 2 3-11 11-12-2h-2l-5 1v2q-11-9-6-33-6-18-19-28l-4-2h-55q-7 8-24 6l-22 14-8 16q2 17-6 25l6 12-6 12 6 12-5 9q8 5 5 21l12 15-12 18q2 14-5 19l-1-5 5-11-29-9q-2-15 6-19l-6-8V222l20-22 4-2h43l11-6zm181 1q7 5 5 20l-3-2-2-18zm174 15l6 10-4-1-4-7 2-2zm-22 14l14 6h-4l-10-6zm-199 6l15 6h-5l-10-6zm77 0l4 1-14 5v-1l10-5zm66 13l5 14-3-3-3 1q-3 21 7 29h4l-5-16h1q7 5 5 19l-3 3-49 2-7 15-1-5 6-14q-10-8-6-28l6-9 6-3h36l1-5zm34 0l11 5q-12-3-15 3l-1-2 3-5 2-1zm-4 12l13 15 3 2h-5l-5-3-2 1-4-15zm55 5l14 6h-4l-10-6zm85 0l14 6h-4l-10-6zm-273 6l1 1h-1v-1zm7 4l5 13h-1l-4-13zm-10 2l6 6 3 7-12 16h3l9-8v3l-3 6h-12l-22 19 1-4v-3l-10 2-43 43-8 3 7-8v-4l-11 8-1-2q12-11 15-30l15-15q10-10 30-10l6-14 27-15zm155 0l15 6h-5l-10-6zm-181 6l4 1-11 6-4-1 11-6zm209 5l8 7v1l-10-6 2-2zm-39 1l3 3-2 3-4-2 3-4zm-199 11l-1 4-7 4 1-4 7-4zm258 1l13 6h-2l-11-6zm22 11l9 7h-2l-9-5 2-2zm-110 1l2 9-9 3-3-2 10-10zm219 4l12 22-1 2-11-24zm-283 5v3l-9 12-3-6h2l10-9zm247 19l6 10-4-1-4-7 2-2zm-169 20h19l28 14 29 24 8 17-6 9 32 20-2 1 2 5h4l1-2 4 2h2l3 2 2 15-6 1-16-6-3 18-29-9-12-11 1-4 11-1-1-17-34-12-1 4-5-7-13-6-1-4 2-2 7 7 10 2 6-12-7-10-34-17-7-15h-2l8-6zm157 3l6 10-5-2-3-6 2-2zm30 1l5 13h-1l-6-11 2-2zm-198 7v2h-1l1-2zm-247 5l-1 4-10 21-1-4 12-21zm150 2l23 1q-7 7-23 5l-12 7-2-1 10-10 4-2zm30 3v4l-3 4-9 5 2 6 21 14h-5l-24-13 4-10 14-10zm322 9l2 4-6 5 5-6-1-3zm-598 1l1 5 3 2 2 9-11 2 2 5h-2l-7-2 12-21zm553 1l5 15h-1l-4-15zm-316 4l6 6 3 7-5 9 10 8h-37l-4-6h2l4-1v-5h-2l8-14v3l1 5 14-12zm292 1l5 16h-1l-4-16zm-445 7v5l-5 10-1-4 6-11zm212 10l15 6h-5l-10-6zm-242 1v5l-2 4-8 2v-1l8-6 2-4zm481 0l5 16h-1l-4-16zm24 1l5 15h-1l-4-15zm-388 4l3 1-2 5-4-2 3-4zm147 0l6 3-6 3v-1-5zm151 7l5 16h-1l-4-16zm-433 23l6 3v4l-16-1-2 5 6 4 1 3-1-1-11-7 3-4 14-6zm529 1q10 12 5 40h-1q-10-13-4-40zm-322 5l3 3-2 3h-4l3-6zm-201 5l-1 2-1 3-4 2v-1l3-5 3-1zm30 2v12l-5 10-1-11 6-11zm271 0l5 9-4 3-1-12zm78 8l6 10-1 3-7-11 2-2zm-385 9l6 3-2 3-3 2-1-8zm207 0l3 3-2 3h-4l3-6zm298 1q8 9 5 30l-5 10v-40zm-108 8l6 10-1 3-7-11 2-2zm-190 15l3 3-2 3h-4l3-6zm202 3l6 10-1 3-7-11 2-2zm120 1l1 2 2 2 2 9h-1l-4-13zm-687 8l7 6q-16-1-24 6l3-4 14-8zm614 1v6l-12 28-18-28 7-1 11 9 1 3 3-1 8-16zm-389 6l5 16h-1l-4-16zm354 2l11 25h-1l-12-23 2-2zm83 4v6l-5 10-1-5 6-11zm66 0v18l-5 10-1-17 6-11zm-365 5l5 3-2 3-4-2 1-4zm323 1v6l-5 10-1-5 6-11zm-30 12v6l-5 10-1-5 6-11zm-467 6l5 15h-1l-4-15zm6 18l5 15h-1l-4-15zm449 9l-1 4-4 7-1-2 6-9zm-18 24l-1 4-28 31-7 4-2-1 16-16 10-5 12-17zm-44 26l2 1-21 23q-6-3 0-7l19-17zm56 9l-1 4-4 7v-3l5-8zm-353 1l7 8-1 1-7-2-1-5 2-2zm402 9l5 16h-1l-4-16zm-386 4l24 13h-5l-21-11 2-2zm261 12l-1 4-8 3 3-4 6-3zm-222 7l14 6h-4l-10-6zm313 0l7 2 2 14-3 2-9-15 3-3zm109 18l8 3-5 8-3-11zm-237 4l6 10-4-1-2-9zm204 4q7 6 5 21h-1q-7-7-4-21zm-194 13l1 3-2 4-8 2v-1l8-6 1-2zm-23 9l11 1q-6 7-21 5v-1l10-5zm-60 6l5 1-15 5v-1l10-5zm283 7l5 16h-1l-4-16zm36 0l3 5 2 2-5 8v-15zm-913 18v28h-1l-5-17 6-11zm865 12l5 16h-1l-4-16zm-865 30v28h-1l-5-17 6-11zm871 6q8 8 5 28h-1q-8-9-4-28zm12 0l5 16h-1l-4-16zm-882 66l3 5 2 2-5 9v-16zm362 5l-8 9-1-2 9-7zm472 151l5 16h-1l-4-16zm-828 37l5 15h-1l-4-15zm6 18l5 15h-1l-4-15zm160 298l17 12h-4l-13-12zm24 18l11 6h-4l-7-6zm541 16v3l-3 4-4 1 7-8zm-481 13l9 7h-2l-11-5 4-2zm75 49l14 6h-4l-10-6zm36 6l15 6h-5l-10-6zm48 12l15 6h-5l-10-6zm33 6l7 4 1 2h-1l-7-6z" fill="#af95a6" stroke="#af95a6"/><path d="M720 276l2 1-13 11v-1l7-9 4-2zm-20 12l2 1-41 43-1-2 40-42zm351 133l5 10 1-3 1 4-2 1v1q-8-3-5-13zm-448 29q12-3 15 3l-2 3q-13 3-16-2l3-4zm5 24l4 3-1 3h-5l2-6zm539 149l3 3 2 4h-5l-2-5 2-2zm30 73l5 4v4l-4-2-2 1 1-7zm6 34q8 3 5 19l-4 1-1-20zm0 26l5 3-1 3-5-2 1-4zm6 36l5 4v7l-5-11z" fill="#eaffd5" stroke="#eaffd5"/><g fill="#d6275a" stroke="#d6275a"><path d="M869 451l22 12 3 10h-1l-7-11q-4-7-16-6l-6 3-11 18-1-2 13-22 4-2zm26 24l5 14-3-2-2-12zm-19 5l11 4 1 2q-15-2-20 6v1l-9 5v-1l11-14 6-3zm-24 8v5l-5 8-1-2 6-11zm49 11l5 14-3-2-2-12zm-361 5h2l12 1q-2 7-12 5l-2-6zm-10 5l2 2-15 13-1-1 7-10 7-4zm322 4v82l6 13-3-2-9-18v-72h2l4-3zm55 5l5 15h-1l-4-15zm-447 28l10 6-3-1-7-5zm465 4l12 16-1 1-9-9-3-1 1-7zm-486 2l3 1-11 5 2-3 6-3zm144 0l1 1q-7 1-6 11l8 6h-6l-10-6 7-9 6-3zm-78 5l2 2 3 7-3-2-2-7zm246 1l-1 2-1 2-6 2 2-3 6-3zm5 0l17 6h-11l-6-3v-3zm-335 6l1 1-8 7 1-5 6-3zm376 0l11 6h-3l-8-6zm-298 4l5 12h-1l-4-12zm444 6l5 13h-1l-4-13zm-198 4l5 12-3-2-2-10zm-102 2l12 22-1 2-11-24zm-241 6v2l-5 10-1-3 6-9zm547 3l17 38-3-2-15-30 1-6zm-331 12v16h-1l-2-5-3-1 2-5 2-1 2-4zm211 1l6 12-1 2-5-14zm-439 2v2l-5 10-1-3 6-9zm475 11l3 4-5-2 2-2zm-264 5l5 13-3-2-2-11zm270 1l13 16-2-2-9-5-4-7 2-2zm-30 1l11 16-12-11 1-5zm-34 8l12 6h-2l-10-6zm-317 6l2 1-5 13-2-7 5-7zm335 0l12 6h-2l-10-6zm27 5v4q-3 6-6 1v-2l-4-1 10-2zm-245 3l5 12-4-3-1-4-1 4-3-4 3-1 1-4zm5 14v2l-2 4-6 2 5-6 3-2zm-144 4v4l-5 8-1-1 6-11zm120 10l2 1-15 11 1-2 6-7 6-3zm-228 2v5l-5 8-1-2 6-11zm351 4l11 6h-1l-10-6zm-255 2v4l-5 8-1-1 6-11zm57 16l14 6h-4l-10-6zm222 0l11 6h-1l-10-6zm-245 6l12 6h-4l-8-6zm-136 2v5l-5 8-1-2 6-11zm155 4l11 6h-3l-8-6zm-77 4v2l-6 9-7 3 13-14zm659 3l11 5q-15-2-20 7l-1 3-2-2 8-11 4-2zm-322 3l5 10-2 1-3-11zm-330 2l1 1-9 5 2-3 6-3zm394 12l11 6h-3l-8-6zm-485 1v87h-1l-5-10v-66l6-11zm311 5l9 6v1l-9-7zm104 0l1 1-9 6-1-1 9-6zm24 0l3 1-11 5 2-3 6-3zm69 0l13 6h-5l-8-6zm86 6q19-4 26 6h-36v-1l10-5zm68 0q12-2 15 6h-14l-3-4 2-2zm113 2l11 24-3-2-8-22zm-583 1v22l-1-1-4 3-1-15 6-9zm145 0l2 3-2 1 8 5h-2l-11-5 4-1 1-3zm191 0v3l-5 10-1-4 6-9zm155 2l10 8 9 19-3-2-15-22-4-1 3-2zm-376 5l18 22h-1q-14-7-17-22zm420 0q7 5 5 19h-1q-7-6-4-19zm-311 1l2 2-25 11v-1l23-12zm132 0l2 2-8 6-1 3-1-3 3-5 5-3zm83 9q6 5 5 19l-3-2-2-17zm-510 10l1 1-7 9-1-3 3-5 4-2zm144 0l-1 2-1 2-18 8 2-3 18-9zm-72 2l6 12-1 2-5-14zm594 0l5 13-3-2-2-11zm-570 2l9 8h-7l-2-8zm426 1l4 1h1v46l-6-10 1-37zm-144 1l3 1-4 2 2 9h-1l-7-3 3-7 4-2zm234 4l5 12h-1l-4-12zm-468 2l1 1-9 5 2-3 6-3zm66 2q7 6 5 22l-5 10-1-4h-3q7-5 3-20l-2-4h2l1-4zm210 0l5 14h-1l-4-14zm162 0l11 24-3-2-8-22zm-595 6l1 3-6 9-1-1 6-11zm97 2l5 10-2 1-3-11zm-78 14l3 1-11 5 2-3 6-3zm77 3l-1 4-4 7-1-2 6-9zm145 0l5 11-3-2-2-9zm390 0q8 7 5 26h-1q-8-9-4-26zm-18 7l5 11-3-2-2-9zm-158 2l11 6-2 1-9-7zm-102 4l1 11-15 9v-1l7-5 3-12 4-2zm-93 8q14-2 19 6h-9l-10-6zm76 0l5 1-13 5 2-3 6-3zm-443 3l12 25 12 2 24-13 3 2-31 17-3-4-12-4-6-16 1-9zm648 1l13 14-11-6-2-8zm-561 2l4 1-3 1-4 7-1-2 4-7zm441 2q9 10 5 35l-5 10v-45zm108 0l5 12-3-2-2-10zm-457 2v2l-5 8-1-1 6-9zm132 0l1 1-6 9-1-1 6-9zm-220 2q23-5 31 6h-31l-2-4 2-2zm347 0l1 1-11 5v-1l10-5zm-304 6l31 12 3-2-1 2-2 6-4-1-1-3-26-14zm213 0l13 1-1 4 1 1-13-3v-3zm235 10l5 12h-1l-4-12zm-37 4v11l-1-1-4 1v-1l5-10zm144 0v5l-11 19-1-1 12-23zm-647 4l1 1-21 11 2-3 18-9zm564 4l5 12h-1l-4-12zm53 12v2l-5 10-1-3 6-9zm84 9v6l-5 8-1-3 6-11zm-149 1l5 13-3-2-2-11zm-313 1v4l-5 10-1-5 6-9zm-108 5v4l-5 8-1-1 6-11zm445 2l5 12h-1l-4-12zm47 4v5l-5 8-1-2 6-11zm60 1v15l-5 10-1-16 6-9zm60 0v9l-5 10-1-10 6-9zm-246 5v5l-5 8-1-2 6-11zm61 0l5 12-3-2-2-10zm-73 1v3l-5 10-1-4 6-9zm-534 5v5l-5 8-1-2 6-11zm667 7l5 14h-1l-4-14zm-12 5l5 13-3-2-2-11zm-127 1v3l-12 21-7 3 11-12 8-15zm-363 3l3 2v7l-6-4 3-5zm117 9v48l-3-2-3-6v-31l6-9zm444 0v9l-5 10-1-10 6-9zm60 0v15l-5 10-1-16 6-9zm-113 6l5 13h-1l-4-13zm-12 5l5 12-3-2-2-10zm83 5v6l-5 8-1-3 6-11zm-246 5l2 1-10 5 2-3 6-3zm181 3l5 13h-1l-4-13zm-199 3l4 1-12 5 2-3 6-3zm240 3v3l-5 10-1-4 6-9zm-311 1q9 14 27 20h-3q-17-3-25-15l1-5zm132 0l5 12h-1l-4-12zm-107 2l26 1-16 5-10-6zm-343 5l3 3 2 7-3-2-2-8zm210 4l5 14h-1l-4-14zm384 0l11 25h-1l-10-25zm-228 3h36l10 6h-56v-1l10-5zm209 8v8l-7 3-3-1 8-6 2-4zm48 1v3l-8 18-4-1-2-4 6-1 8-15zm-157 3l22 12h-2l-20-12zm-250 1l5 13-3-2-2-11zm431 0v12l-5 8-1-9 6-11zm-623 2l5 11-3-2-4-7 2-2zm168 4l5 16h-1l-4-16zm258 13l5 13-3-2-2-11zm84 4l2 1-12 5v-1l10-5zm-624 4l5 12h-1l-4-12zm600 2l1 1-11 5v-1l10-5zm143 0q22-3 27 12l15 42q-3 21 6 30l1 30 5-3v21l-5 10-1-4-5 4-1 20h3l3-2q2 14-5 19l-1-5-5 4-31 56h3l12-11-11 12-15 5-9-5 8-1-12-29v-25h-2l2-4-12-4v-40l6-11 1 5 4-3 1-32-2-1-4 3v-45l6-11 1 5 4-3 7-14q-4-18 4-24l2-1zm-12 7v12l-5 8-1-9 6-11zm-444 2l1 3 1 1-9 6-1-1 7-5-4-1 5-3z"/><path d="M1123 1045l5 14-3-2-2-12zm-96 3q15 12 11 45l-5 10-1-5-5 4-1 20h3l3-2v57l-5 10-1-5-5 4-1 39-3 4-9 1-9-5-21-36v-13l6-17-2-1-9 15-1-2 16-31 2-1-1-4 1-3-2-4h2l1-3 3 2 4-11 2-1 4-11 2-1 4-17 2-1 4-11 2-1 4-17 10 6v-2l-5-12zm-523 1l1 2 7 5v1l-12-6 4-2zm-32 1l10 6h-2l-8-6zm141 6l1 1-9 6-1-1 9-6zm299 2v5l-5 8-1-2 6-11zm-391 4l9 6v1l-9-7zm134 0l1 1-11 5v-1l10-5zm56 0l12 6h-2l-10-6zm-28 6l11 6h-3l-8-6zm52 0l12 6h-2l-10-6zm394 1l5 14-3-2-2-12zm-590 5l10 6-3-1-7-5zm217 0l6 3-5 6-6 2-1-2 6-4v-5zm-241 5l9 7h-1l-9-5 1-2zm110 1l1 1-20 19 13-17 6-3zm281 2v4l-5 8-1-1 6-11zm-324 2l1 1-6 9-1-1 6-9zm-25 2l11 6 4 4 1 1-2 1-14-12zm301 0l8 1q-4 7-16 5l2-3 6-3zm277 2q6 5 5 19l-3-2-2-17zm-301 4l5 1-13 5 2-3 6-3zm-18 6l4 1-12 5 2-3 6-3zm-271 6l10 7 4 7h-1l-13-14zm254 0l3 1-24 11 2-3 19-9zm-199 4v2q-8 5-6 20l8 10h-5l-5-12-4-2 12-18zm217 8l1 1-11 5v-1l10-5zm-426 14l5 12-3-2-2-10zm161 1l1 3 3 1-12 5 2-3 5-2-2-1 3-3zm-18 6l1 3 3 1-29 18-4-1 11-8 3-4 14-5-2-1 3-3zm444 7v2l-5 8-1-4 6-6zm-246 4l1 3-24 47-1-4 24-46zm180 0v4l-5 10-1-3 6-11zm-162 2v2l-5 10-2-2 7-10zm-129 2l13 6-2 1-11-7zm-92 12l3 1-22 15-1 2-10 9v-3l12-15 18-9zm432 0l1 1-20 11v-1l2-3 17-8zm-546 3l5 11-3-2-2-9zm208 3l21 12h-1l-20-12zm34 0l12 6h-2l-10-6zm27 0l2 1-10 5 2-3 6-3zm245 0l10 6h-2l-8-6zm-65 2v4l-5 8-1-1 6-11zm-372 2v2l-5 8-1-1 6-9zm199 8l1 1-11 5v-1l10-5zm14 0l3 1-1 3-4 2-1-3 3-3zm-198 6l3 2v4h-6l3-6zm466 9l5 11-3-2-2-9zm-530 3l10 6h-2l-8-6zm504 0l16 13 21 41 2 24 10-2 19-19 7-2 16 8 6 24-3-3-3 1q-3 12 4 16l2 1 1-5q10 11 5 38l-3-3-3 1v24l-17 32-18 9-25 6-17-9-1-9 12-17-2-1-13 12 12-13 15-6-1-11-10 2-7 7-30 15-21-12-3-6v-36l-12-26 4 2h2l3-12 19-23 18-14 11-17 9 6v-2l-25-34zm80 60l1 5 10 7v-2l-11-10zm-246-58l5 16-5 10v-26zm-372 1l18 34-1 3-17-37zm28 8l10 8 9 22h-1q-6-19-20-28l2-2zm250 1l3 1-5 8-6 3-1-2 6-8 3-2zm116 0l11 1-4 2-2 3-4-2-1-4zm325 1v6l-17 33-2-3 19-36zm-642 1v5l-5 10-1-4 6-11zm366 0v5l-5 8-1-2 6-11zm210 2v19h-1l-5-10 6-9zm-366 5l-1 4-4 7-1-2 6-9zm295 0q5 14 24 15l5-3 1 2 5-8v3l-3 6-14 6-16-12-4-7 2-2zm-181 3l12 7v1l-23-2 11-6zm-102 4v2l-5 8-1-1 6-9zm116 2l1 1 9 18v7l-3-2-7-24zm-344 1v46h-1q-9-11-5-35l6-11zm300 3v2l-5 8-1-1 6-9zm283 3l5 15h-1l-4-15zm-385 5l2 1-24 11v-1l22-11zm19 0l1 1-9 5 2-3 6-3zm-240 1q7 5 5 20l-3-2-2-18zm-18 8q20 21 33 51h2l-12-33h1l14 21 3-1 1-10 3 5h2l1-6 23 18 25 6 11-9v3l2 18h8l2-4v21l-4 3-2 5 4 4 9 1 15-13 4-11 10-3 2-3 4 2 2 2 16 4 1 4 11-5 3 5h-2l-6 1 1 5-2 1q-1 12 8 15l22 8v-2l-15-9h4l28 11-5 1 4 4 8 1v-2l-5-3 11-1 10 6-4 1 8 9 17 2 17 12 1-8q10 8 5 32l-12 27-10 3v-1l4-2v-3l-11 4-1 2 5 1q-9 8-29 5l-11-5 5-1-3-5-14-1-1 3 3 3h-9l-32-17 3-1 23 12-1-1-6-9-14-7-3-7 4-5 9-1 35 12v-2l-8-10 13 6 2-9 5 3v-2l-19-20-10-2-1 3 21 15h-2l-13-10-22-7 4-1-3-5-8-1-1 3 3 3h-51l-11-5 5-1-3-5-14-1-1 3 3 3h-8l-23-11 4-2 12 7-1-1-12-15-23-11-35-33-1 3 21 21-1 1-17-13q-15-39-40-67l2-2zm329 1v2l-5 8-1-1 6-9zm85 0l11 15-1-1-4-3-2 1-4-12zm-235 8l11 1q-5 7-19 5l2-3 6-3zm156 4v2l-5 8-1-1 6-9zm-192 2l4 1-11 6 1-4 6-3zm67 0l2 1-12 5v-1l10-5zm107 4v2l-5 8-1-1 6-9zm-143 2l8 1q-5 7-18 5v-1l10-5zm-49 6l2 1-9 6 1-4 6-3zm271 0l2 1-12 5v-1l10-5zm65 0l12 4-1 2-4 3-1-8q-20 5-29 19l-1-1 7-10 17-9z"/><path d="M744 1288v2l-5 8-1-1 6-9zm68 1l2 2-14 12-1 3-1-3 7-10 7-4zm-68 11v2l-6 12h25l4 4 1 3-11 14-12 7-1 2 5 1q-7 7-23 5l-11-5 5-1-3-5-14-1-1 3 3 3q-19 3-26-5 18 1 23-10l2-3 12-5 1-2 3-1 1-4q17-1 23-14zm148 2l8 3 6 16v37l13 20 19 14-2 1 4 10 2 1 1-5 6 13-4-2-3 1 6 9-6 8 8 1q-4 7-16 5l2-3v-3q-17 2-23-6l-1 3 9 9-9-2-6-14q-21-2-32-13l2-1v-6l-5 3 2 3-3-2 6-14-6-2q-18 18-59 12-12-9-30-10l-6 5-1-1 4-5 14-1q-7-5-6-18l4-5 32-1-3-5 20-1v1l-5 3 1 2 7-5v-2l16-12-1-5-11-6 6-9q7-6 25-3l15-12 8 6v-2l-8-10zm-112 9l-1 4q-5 17-17 26l-10 3v-1l20-18 8-14zm19 5l5 12-3-2-2-10zm-154 16l12 6h-2l-10-6zm-147 2l9 10-1 1-8-11zm326 4l21 1-11 5-10-6zm-309 12l10 6-3-1-7-5zm279 0l15 6h-5l-10-6zm-32 8l1 4-6 11-1-4 6-11zm-56 4l22 12h-2l-20-12zm344 3v3l-5 8-1-2 6-9zm-294 10v12l-5 8-1-9 6-11zm282 8l-1 4-5 8-32 15 2-3q23-7 36-24zm-441 9h34l10 6-41 1v1q-10-4-3-8zm168 0l3 1 14 15 22 8v-2l-27-15 3-1 36 18q21-3 30 6h30l10 6 2 3-3-3-3 1 1 11 3-1 3-7 3 6-1 2-12 6 1 1-40 17h-8l2-3v-3l-66 1 3 5h-8l-9-5 8-1q-10-11-6-36l-5 3-1-17 4 2h2q-1-15 9-18zm196 3l5 8 1-2 14 9h-3l-15-6-2-9zm-317 3l14 6h-4l-10-6zm-43 3l8 9-1 1-7-10zm353 20v2h-1l1-2z"/></g><g fill="#e8389a" stroke="#e8389a"><path d="M868 457l2 1-1 2-4 2-1-2 4-3zm15 5l5 4v2l-5-3v-3zm-1 24l16 14 8 29 6 8h1l11 21q-2 17 6 24v19l-13 15-5 2-11-6-17-2-24-23-5-11-3-1 1-16 7 9 5 2 15-13 14-34v-19l-7-10-11-2-16 14-7 21-1-11 14-22 16-8zm-327 18l9 3v6l-9-8-6 5 6-6zm10 26l6 8 3 2 3 4 3 2h-4l-9-5-2-11zm-55 8v9l-1-1-4 1v-1l5-8zm28 8l2 1-3 4-2 1-1-2 4-4zm44 0l6 3-18 12 1 3 7 6-2 1 2 5 16 6v-2l-2-4 2-1 3 2 3 6v42l-1-1-5 2 2 10 4-1 6 5v8l-12 3q-23 21-53 33-14-1-18 6h-21l-5-6h7l-15-18-2 1-1-15 6-15-3-1-3 6-6 1 1-2 3-4 15-7 9 5q27-9 42-30l14-28 8-25 10-3v-3zm-76 6l4 2v9l-6-9 2-2zm-22 6l14 10v5l-14-15zm-61 6l-8 9-1-2 9-7zm355 0h17l18 13 9 14h1q5 23 19 39l-2 1 9 11h-3l-11-6-25-6-34-17-1-4q-18-4-25-18l1-6 23 21 10-13 2-11-8-18zm-34 1v3 13l-6-9 4-3 2-4zm-256 5l4 2v4l-6-1 2-5zm141 1l7 3 6 11 1-2 13 29-2 1 2 5h4l-3-5 3 1 1 1 17 36-3 3h-38l-7-3-1-3 2-3 5 3v-2l-7-16-5 1v4l-6-8v-41l7-13 4-2zm-112 2l5 13h-1l-4-13zm-12 5l6 14-4-3-2-11zm-109 18v5l-5 8-1-5 6-8zm-12 18v5l-11 22-1-4 12-23zm493 10l9 8 2 4h-2l-9-12zm-403 27l-1 4-4 9-1-4 6-9zm133 3l4 3-2 3h-3l1-6zm-145 15v6l-5 7-1-4 6-9zm25 0l5 11-3-2-2-9zm151 3l13 1-4 5-5-1-1-3-3-2zm16 0h39l3 4 1 3-1 4 11 1 1-4v-2l11 6 5 6 12 6h-4l-17-12v2l13 14 18 12 10 2 1-2 11 15-9 11 2 1-10 5v-1l11-17-3-5-15-1-35 12h-19q-11-10-36-6l-12 8-3 4-3 1v12l23 39q-9 7-5 27-6 18-21 29l-27 54-12 49q-8 21-25 33l-34 14h-49l-40-13-11-28-23-1-16 16-18 44v55l9 24 15 23v17h-1l-5-8 4-7-13-19-15-36v-43l15-42 27-27q7-6 25-3l11-6 25-6 21-19 3-15q7 6 5 23l-1-1-5 2 2 10 4-1v3l8 16 4-1h2l3-2 1-25-4-2-2 1q-2-14 6-18l1 5 9-7 10-27 12-7v-2l7-4 3-6 10-8 11-29 27-29-2-1-16 13-4-1 18-11v-2l8-5 2-10-6-2-21 12h-7v-1l16-8 3-9 26-27-5-9 23-33-5-9 12-16v-2zm-78 6v3l-2 4-15 11v-1l13-15 4-2zm31 0l1 1-9 5 2-3 6-3zm-247 7v37l-4-3-2-25 6-9zm90 2v6l-6 5 6-11zm79 9l10 4 3 8h-1l-11-5-2-4 1-3zm-45 6l7 6-4 1 5 2 1-2 7 9 21 2 1-4v-2l8 6-2 1 10 11 2-1v10l-6 4-4-1-2 23 5 1h1l1 6 3 2 8 19-3-3-3 1 2 5 3 3-2 3-3 1-7 9-18 12-22 8h-37l-5 4-2 8h-11l3-5v-2l15-13 1 2h6l21-13 2-4-2-1-22 13-4-1 35-18 11-1-2-10 2-1-1-6q-16 2-22-6l-1 3 3 3-2 1-4-1-4-12-10 4-6 13-1-5-6 2-5 13-1-3h-18l-18-6-6-17v-25l12-21 2 9h7l12-12-15 16 1 2 21-19 2-4-2-1-4 3 3-4 12-5-3 4-6 15 8 9 11 2 21-19 2-19-2-4zm258 0l12 6-2 1-10-7zm-242 6q11-1 15 6h-5l-10-6zm-68 3l1 2-16 13 15-15zm-71 16l13 34 23 23-4-4q-14-2-19-13l-14-28 1-12zm300 5l9 8 2 4h-2l-9-5 2-1-2-6zm138 0l2 1-12 5v-1l10-5zm27 0l13 6h-5l-8-6zm285 1l5 8h1l17 31q-3 18 6 24v83l-6 9q3 18-6 24l-1 24-3-1-5-16-9-1-5 4-16 49-2 1-1-20 6-9V816l-6-9q3-18-6-24v-21l-6-14 3 2 7 12 7-2 17-17 3-10zm-265 5l6 4 1 3-1 4 11 1 1-4v-2l6 4v9l-9 17-20 10-1 5 27 16q12 10 9 36l-1-1-5 2 2 10 4-1v46l-6 9v19q-7 4-6 18l-15 17 1 1-7 5-27 6-9 6h-33q-7-8-22-6l-2 9q10 16 37 16l-1 4 65 1 1-4v-2q16 3 24 16 8 8 6 27l6 9v11q-7 17-21 27h-21l-11 6-25 6-23 12h-7l-21 12 1 1-25 17-8 17-1-2-7 9-14 12-28 46-22 14-52 17-8-5h-49l-17-9-18-30 5-9-6-12 6-8 1 1-1 12 7 1 24-9 8-8 3-15-2-4h29l9 6 27 6 20 12-2 1 21 9 2 2 4-1 4-5q20 3 26-8l1 2 3-1 2-4-2-1 8-10 6-4 1-4 3-1 4-9 30-30 22-14 47-15 1-3-3-5-9-1-54 21-33 33-12 18-3 1v5l-7 1 1-4v-3q-14 14-42 14l1 4h-1l-35-17q34-5 51-26l14-28q-2-17 6-23v-2l12 6h33q3 7 16 6l4-3 2-9 10-3 1-9-3-5-14-7h-25q-7-8-24-6l-12-6-1-6 3-12q15-1 20-13l2-17 5-9-5-8q3-22-6-31 10-10 6-34l-6-2-17 10-2 8h-11l2-5v-2l13-10 3-6 4-2 8-16v-7l-6-11h2l8 4 14-6-1-4 5-7 39 1-1 4 11 1 1-5-5-1 12-6-1 2 2 4q17-2 22-15l-1-3-10 9 5-6q2-11-3-14l-3-1-5 4-2 6-4 2h-78l-13-9 1-8 3 5 20 1 2 3 15 2 1-12-3-6h-3l6-15q7-6 25-3l9-7 14-20q5-5 19-3l35-19v-5zm-5 54l1 5 28 19v-2q-11-15-29-22zm17 126q-19 20-47 30-14-1-18 6-18-3-25 3l-6 7 12 8h25q6-8 24-6l18-9q16-12 23-32l-1-3-5-4zm-113 60l-1 3 18 15v-2l-17-16zm131 78l-20 13-4 5 1 3 5 3 24-20-6-4zM679 744l5 4v2l-6-3 1-3zm104 0l-14 15-11 3v-1q17-4 25-17zm226 5q26-3 33 15l8 14v15l12 20h1l11 25v47l-6 9-1 42-3-1-2-17-3-5-33-1-5 4-1 15 6 11v13q8 6 6 24l10 23 7-6 1 13-3 5h-6l-9-17v-7l-18-47v-31l12-22 3-1 3-6 1 2 11-26v-25l-7-12-10 4-1 24-2 2h-12l-16-15 2-61 9-5 5-9 2-1-1-5-3-1-1-4h-2l2-2zm-301 1l12 4-1 2-17-1 2-3 4-2zm200 0h61l6 7 3 6v60l6 9q-3 17 6 23h1q13 10 17 30l-12 20v38l12 27v27l-7 9-14 8h-11q-6-9-23-6l-13 6-5-6-5 2-3 4-3-1-1-5q3-16 13-23l1-102 5 9v15l12 21 6 26-6 17 8 1 14-12 2-36-24-51v-10q-5-17-18-27l-4-1-1-4q-21-4-31-18l-1-3 2-3 18 15 15-13 7-14-8-8-9-18v-7l-8-11-4 3-1 2-5-1 2-5zm88 4v3l-5 10-1-4 6-9z"/><path d="M649 756l5 3 1-2 17 23-1-1-23-20 1-3zm24 30l3 2 2 4h-2l-3-6zm-223 15v6q-2 5-11 3l-1-5 6-3 1 2 5-3zm134 8l1 2-8 8 7-10zm92 7l2 1-3 5h-3l4-6zm-105 5l4 2-12 5 2-3 5-2 1-2zm-37 13v3l-5 7-4 2-2 5-1-2-5 3-1-2 18-16zm126 6v3l-5 8-1-2-5 3-1-2 12-10zm33 12l8 6h-12l1-2 3-4zm204 0l6 1-9 8 3-9zm-536 6l11 1-3 5-9-3 1-3zm144 0l11 1-3 5-9-3 1-3zm-111 12l5 1-13 5v-1l8-5zm66 0h8l21 13 4 7-1 1-13-13q-14-1-19-8zm74 7v6l-5 10-1-7 6-9zm356 11l4 2-1 4-4 3-1-7 2-2zm-542 20v5l-5 10-1-4 6-11zm295 19l5 9-5 3v-12zm-301 4v12l-5 8-1-11 6-9zm546 6v46h-1l-5-8v-29l6-9zm174 11v17l-2 1-4-12 4-5 2-1zm60 0v11l-2 1-4-6 4-5 2-1zm-479 27q14 11 19 32l11 11-10-10-3 1 12 20q15 5 24 18l31 9 16 10 1 2h-14l-32-14-24-15-7-10-2 1-17-33-5-22zm-211 3v12l-1-1-4-2-1-3 4-5 2-1zm624 0v11l-2 1-4-6 4-5 2-1zm-161 15l8 9-10-7 2-2zm-558 6l5 14h-1l-4-14zm340 20l16 13h-3l-14-11 1-2zm-208 1l4 4 1 2h-2l-3-6zm-126 1l5 16h-1q-7-5-4-16zm603 11h56l10 6 6 8 2 21-4 3q-9 9-9 28l-3 2-14 28-4 2-7 14-21 20 20-21v-3l-23 21-19 5 1 4h-9l-10-12-2-17-2 1-7 15-1-5q7-5 6-18l-7-10-5-2-16 14-19 39-1-4 24-47 3-1 9-18v-9l6-9v-9q7-4 6-16l10-18 24-12zm-18 12l-10 10 1 2 4-2 7-9-2-1zm-293-7v3l-2 4h-3l5-7zm-211 1l14 6h13l16 9v1l-5 2-11-6h-25l-5-3-1-5 4-4zm81 6l9 8 2 4h-2l-9-5 2-1-2-6zm119 0v3l-5 3v-1l3-4 2-1zm-14 6l2 1-3 5 2 1-10 5v-1l9-11zm-87 6l9 8 2 4h-2l-9-5 2-1-2-6zm-168 1l35 75h-1l-34-75zm132 5l9 6 2 4v2l-10-7-1-5zm171 0h8l23 12h-5q-11-10-35-6l9-6zm-147 18l10 6-2 1 3 5h-2l-9-12zm48 0l12 6 11-6v3l-5 8-1-2-6 3-11-5 2-1-2-6zm-24 18l9 6 14 16v2l-22-19-1-5zm65 13v6l-5 8-1-3 6-11zm220 5l5 1-13 5v-1l8-5zm32 0q14-4 18 4v8l-23 46-4 2q-5 22-21 33l-12 3v-1-5l-6 1 1 5h-3l-11-24-9 7-2 38-11 19-4 2-8 16-4 2-8 16-4 2-2 5-1-2-12 21-6 1-1 3q-21 5-32 20h-17q-6-9-22-6l-17-12-13-1-1-3-29-2-5 4-14 18-5 2-6-3v-21q4-16 16-24l24-12h27l9-6h15l26-11v-2l18-10-2-1 14-11 9-17 3-1 9-18 1 2 3-3 11 11q24-10 37-30l4-11h29l23-13 18-39v-2zm-270 180l-6 3-12 15q-3 13 4 18l20-29-1-3-5-4zm217-174l4 1-12 5 2-3 6-3z"/><path d="M563 1127l1 5-11 2-1-2 11-5zm-25 7l2 2-1 4h-5l4-6zm-141 3l5 3 1-2 5 3v11l-12-9 1-6zm366 3l1 1-13 16-1-7 13-10zm-247 6v3l-5 3v-1l3-4 2-1zm95 0l12 6h-4l-8-6zm-107 12v3l-11 13-4 2-2 5-1-2-5 3-1-2 24-22zm187 5l3 2q-3 6-14 5v-1l11-6zm47 9l1 3-6 12-1-4 6-11zm126 5v6l-5 10-1-7 6-9zm43 1l9 15q20-2 30 7l14 16v2l-18-12-5 4-9 19-41 41-23 5-13 13-32 19-6-5-9 13 6 11h-2l-4-2v1l-6-17 14-16 16-8 25-6 9-6 2-6-11-15-2 1q-6-6-5-18l6-9q-3-21 6-29l1 4 29-12h18l1-10zm-474 10l4 4 1 2h-2l-3-6zm41 6v3l-5 3v-1l3-4 2-1zm330 36q12-2 18 3l1-2 11 29-3 6-24 12 1 1-19 11-10 16-29 2-6 4-1 2h-5l6-11 1 2 23-31 3-1 3-6 1 2 11-19 3-1 9-18 1 2 5-3zm82 48l2 1-3 5 2 1-8 5-2 5-1-2-5 3-1-2 16-16z"/></g><g fill="#e42974" stroke="#e42974"><path d="M870 456q11-1 14 6l-2 1 4 4 2 1 1-2 11 24v13h-1l-12-15-4-1 5-1-3-5-9-1-15 12-3 6h3l4-3-12 20-1-2-4 3-2-14q9-6 6-24l12-18 1 2 5-3v-3zm6 30l5 1-12 6-1-1 8-6zm-335 18l-1 2 1 4-8 1-3-1 11-6zm360 1q6 4 5 16h-1l-4-16zm6 18l6 13-4-1-2-12zm12 19l7 16 10 9h1l29 61v12l-24 8h-41l-17-11-8-9 10 8h2l-7-10-4-2-1 2-7-4-4-7-2 1-11-21v-19h2l2 2 4 9 24 23 17 2 12 6 15-13 2-23q-8-7-6-24l-7-12 2-4zm-414 3l5 3v5l-4-1-2 1 1-6v-2zm-48 1l21 12h-3q-9-9-29-6l11-6zm295 12l4 2 2 2 3 2-16 2h-2l-2 4-2 1v-1l3-6 8-3 2-3zm-167 12l11 6h-1l-10-6zm45 0l1 1h-1v-1zm-6 4v3l-5 8-1-2 6-9zm13 0l6 9-1 2-5-11zm180 4l6 12-4-1-4-7 2-4zm-162 24l6 12h-1l-6-4-1-5 2-3zm112 4l10 6-3-1-7-5zm68 8l8 16-6-5-4-8 2-3zm-49 3l23 13h-4l-23-11 4-2zm-119 3l17 32-8 2 2-3-13-27 2-4zm-66 5l5 14-3-3h-3l1-11zm18 2l11 23-3-2-8-21zm193 3l15 6h-7l-8-6zm18 6l15 6h-7l-8-6zm-458 2v4l-5 8-1-1 6-11zm228 10l4 2 2 3 1-4 5 9-3 2 2-3-4-3-1 6 2 1-31 19-1-2-16 14-2 4 2 1q-5 9-17 11l-6-11-8-1-1 3 2 4-28-12 21-1q4-7 18-6 33-14 59-36zm-234 8v4l-5 8-1-1 6-11zm328 16l12 6h-9l-3-6zm-334 7v6l-5 8-1-5 6-9zm360 4l8 7h-4l-4-7zm-132 11v2l-5 8-1-1 6-9zm-103 8l12 6-5 1v2l-5-2 4-1-6-6zm270 5l13 11 4 12-7 8-3 1-3-1 9-12-12-16-4-1 3-2zm-401 2l6 14v16q7 25 26 39l22 9 1 5 17 6 18 1-2 5-4 1 1 5 7 1q-27 38-76 53l2-3v-3l-12 1v1l-12-23V718l6-9zm172 5l11 7 3 7-8-8-6-6zm218 6q13-3 17 4l1 3-12 17h3l3-2-2 3-22 11h-12v-1l-1-3-11-2-6 4 1 2h-9l-9-5 2-1-8-6-1 3 5 3h-4l-11-5-2-3 4 2h2l-9-12-3 1 3 5-2 1-16-7q9-11 34-6 8 9 30 6l35-12zm-311 5l1 2-11 11h-5l15-13zm647 3l1 3-6 9-1-1 6-11zm31 0l6 12-4-1-2-11zm-547 6v4l-5 8-1-1 6-11zm78 1q2 15 13 22l-1 2-5-3-1 3 24 21v-2l-14-16 15 15 5 14h-1l-2-5-3 1q9 6 6 26l-6 9h3l3-5v5l-17 22-3 2 2-3v-3l-12 10 1 2 5-3 1 3-11 13-20 41v39l-6 9v31q10 7 6 30l12 24h-1v-2l-4 6-1-2-5 3 4 1-7 5v1l-10 6-3-1 3-5-2-1-10 12h3l3-2-2 3-20 18-1 3-3 2 2-3v-3l-12 6-11-6-1 3 3 3-2 1-11-6-1-4-17-8-2-3 4 2h2l-9-12-3 1 3 5-2 1-11-6-2-3 4 2h2l-9-12-3 1 3 5-2 1-1-2q-21-6-32-22l2-1-3-5-2-1-1 2-11-17-2 1-12-28-10 1h-2l-4 3-1 3 4 4 2 1 1-5q9 8 5 29l-6 9-18 12 2 3 7 1-3 6 4 4 27 1 12 6 4-2v-2l-16-7 5-1 34 18 3 4-4-4-3 1 10 11h2l-3-5h4l15 11 2 3-3-3-3 1 10 11h2l-3-5 3-2 16 13 3 4-4-4-3 1 20 21 4 2v-2l-15-15 2-2 13 15 1 1 5 9h-2l-13 6 2 1-11 5v-1l-1-5-8 6 2 1-16 7-1-2-5 4-1 2 2 1-7 5 3 1-3 1-1-2-24 22 1 2 5-3 1 3-12 14-1-2-5 4-1 2 2 1q-4 7-16 5l-18-11 2-1-3-5-2-1-1 2-12-11-8-20-6-6 2-1v-12l-6-2v-22l-15-23-9-24v-55l18-44 16-16q19-5 25 4 1 17 11 26h9l29 12h49l34-14 17-17 14-34v-13q7-5 6-18l27-54q15-11 21-29-3-20 5-28l-23-38v-12l6-4zm-18 309l-2 1-3 4v1l5-3v-3zm226-306l13 6h-10l-3-6zm-310 3v6l-5 8-1-10 6-4zm241 2l1 2-11 11-4 1-3-1 17-13zm85 1l10 3-5 8-2-9-3-2zm153 0l11 6-2 1-9-7zm-112 6l-1 2 1 4-8 1-3-1 11-6zm-37 7v5l-5 8-1-2 6-11zm-332 11l2 2v9l-3-5h-3l4-6zm453 5l10 2-5 3-1 2-5-1 1-6zm-133 1l2 1-12 5v-1l10-5zm121 1l5 9v47l-3-2-3-6 1-48zm-517 6v5l-5 10-2-2 7-13zm673 0l5 14-3-2-2-12zm-656 5l11 6h-3l-8-6zm68 2l9 20-3 6-4 2-14 22-4 3 3-4v-3l-18 16 1 2 5-3 1 3-6 10-3 2 2-3v-3l-12 1 1 3-2-2-16-8h-15q-6-9-23-6l5-11 39-1 22-8 25-19 1-3 3-1 1-2-1-3h2l-1-7 2-3zm60 3l-4 7h-5l9-7zm-112 1l9 3v4l-9-7zm400 8l5 12-3-2-2-10zm-193 2v19h-1l-5-10 6-9zm385 5l5 14h-1l-4-14zm-504 3l1 1-14 11v1l-2-1 9-9 6-3zm221 12l5 4-5 3v5h-11l5-3 4-8 2-1zm228 0l2 1-7 9-1-4 4-5 2-1zm37 1l5 14-3-2-2-12zm-30 2q10 9 5 34l-5 10v-44zm-116 2l10 7-3-1-10-4 3-2zm-195 7l63 1-8 5h-47l-8-6zm-288 5l-2 5 1 3-1 4 1 1-7-2 6-9h2v-2zm88 4l1 2-4 1 3-3zm182 9l25 1-3 5-24-1 2-5zm-31 6l3 1-9 4-1-1 7-4zm244 0l7 4 1 3-4-1-2-5-2-1zm80 10l5 11-3-2-2-9zm35 3v6l-5 8-2-2 7-12zm-504 3v3l-5 8-1-2 6-9zm356 2l4 2v11l-4-1-2 1 2-13zm47 2l5 13-3-2-2-11zm203 1v3l-5 10-1-4 6-9zm-179 4l5 15h-1l-4-15zm113 2v24l-5 8-1-23 6-9zm-45 3l-2 3-1-2 3-1zm-501 2v4l-5 10-1-3 6-11zm348 7v18l-5 8-1-17 6-9zm144 1v3l-5 10-1-4 6-9zm-77 3q6 4 5 16h-1l-4-16zm149 0v42l-5 8-1-41 6-9zm42 2v6l-5 8-1-5 6-9zm-108 9h31l4 4q-2 14 5 20l2-1v10l-5 8-1-5-5 4-1 9 4 5 2-1v10l-5 8-1-5-5 4-1 3 4 5 2-1v10l-5 8-2-11-7 6-10-23v-13l-12-35v-13l4-5 2-1zm-53 1l5 15h-1l-4-15zm41 0v22h-1l-5-13 6-9zm-156 5l5 4 1 3q-7 20-23 32l-18 9q-18-2-24 6h-25l-12-8 6-7q7-6 25-3 4-7 18-6 28-10 47-30zm252 0l11 4 5 14 2-1v10l-5 8-1-5-5 4-1 3 4 5 2-1v92l6 9v15l6 9q-3 18 6 24v35l-5 3-1-30q-9-9-6-30l-6-11-6-25-11-15q-6-5-19-3l-5 4q2 26-10 37l-2 1-1-14 6-9v-27l6-9v-39l6-9 1 5 4-3 17-50 2-1zm-222 1v18l-5 8-1-17 6-9zm-546 6v6l-5 8-1-5 6-9zm528 0v8l-5 8-1-5 6-11zm85 7l5 13-3-2-2-11zm42 5l5 14-3-2-2-12zm-492 4l5 5v5l-5-10zm510 2l5 16h-1q-7-5-4-16zm-153 4l-11 14-2-1 13-13zm159 14l5 16h-1q-7-5-4-16zm-187 5l5 1q-4 6-15 5v-1l10-5zm-75 6l14 6h-4l-10-6zm57 0l5 1-13 5 2-3 6-3zm211 7l5 16h-1q-7-5-4-16zm-384 2l5 14h-1l-4-14zm252 13l7 8-1 1-4-1-2-8zm-39 2l10 6h-2l-8-6zm-207 1l11 25-6-5-5-20zm-312 8l5 13h-1l-4-13zm661 2l2 2-12 5 2-3 8-4zm-337 1l15 12 10 10 10 3 1 5 35 12h25l16 10 1 9-3 4-9 2v1l-14-2-9-5 5-1-3-5-45-16-27-20-8-19zm253 0l10 1 1 5h-3l-8-6zm18 0l4 2 3 4h-11l2-3 2-3zm31 0l12 6h-2l-10-6zm-86 4l5 13h-1l-4-13zm93 14q17-2 24 6h-32v-1l8-5zm-87 1q7 5 5 20l-3-2-2-18zm-216 2l8 9-1 1-7-9-2 1 2-2zm346 8l13 11 6 14-1-1-9-5-2 1q2-16-9-18l2-2zm-583 1q13-1 18 6h-10l-8-6zm501 0l4 1-12 5 2-3 6-3zm-248 6l30 18h-4q-18-5-26-18zm-334 4l5 12h-1l-4-12zm569 0v3l-5 10-1-4 6-9zm-42 8l6 4-24 20-5-3-1-3 4-5 20-13zm12 3v3l-5 8-1-2 6-9zm-172 3l13 6h-5l-8-6zm196 1v6l-5 8-1-5 6-9zm108 4v2l-3 5-3 2-3 10-2 1-1-1 10-18 2-1zm-377 1l3 1-11 5 2-3 6-3zm57 6l12 6h-4l-8-6zm62 4v3l-3 4-9 1-9-5 11-1-2 3 1 2 11-7zm48 2l11 4 1 3-3 4-49 15q-29 16-48 42l-5 10-3 1-5 8-1-2-1-6 2-7 9-7 5-11 33-33 54-21zm36 6l11 1q-5 8-21 5v-1l10-5zm-270 3l1 3-1 3-4 1-4-4h2l6-3zm252 3l5 1q-4 6-15 5v-1l10-5zm180 5v2l-3 5-3 2-3 10-3 2-2 9-4-2 16-27 2-1zm-198 1l5 1q-4 6-15 5v-1l10-5zm222 0v21l-5 3-1-18 4-5 2-1zm-132 2v5l-11 20v-3l11-22zm-120 10l5 1-24 12 1-4 18-9zm67 0h21l2 3v6l-3-3h-31l11-6zm219 12l2 1v30l-3 4-2 1-1-32 4-4zm-315 5l3 2-20 18-1 3-2-2 13-17 7-4zm236 2l3 3v2l-6 1 1-2 2-4zm-72 12l1 1 2 5-1-1-5 2v-1l3-6zm57 9v5l-12 10-2-1 14-14zm-246 5l1 3-30 64-4 2q-2 13-12 18l-39 18q-25-5-33 6h-27l-9 6 1 1-19 11 1 1-8 6-1 3-8 6-11 2-22-8-19-16-1 6-4-1-2-4v-49l18-40 10-8 2-1 8-9 6-2-6 7-1 3-5 4-2 5 6 12-5 9 21 31 14 7h49l9 5 8-5h13l23-12h7l27-19-4 5 1 2 11-8v-4l-6 2v-1l21-37 12-12 3-1 6-8zm-21 27l-3 3 1 3 4-2 1-3-3-1zm-198 6l-3 6h6v-4l-3-2zm128-31l24 13h-4l-23-11 3-2zm-49 1h8l22 12h-4l-26-12zm396 0l2 1-6 17v13l24 38 13 3 4-3 1-39 4-5 2-1v45l-5 8-1-2-12 3-17-15-2 1-17-25v-23l10-16zm-238 2l1 3-6 11-2-2 7-12zm-82 10l21 1-13 5-8-6zm270 0l15 1-5 3-1 2-9-6zm202 0v21l-5 3-1-18 4-5 2-1zm-642 3l1 2-4 1 3-3zm354 0l-1 4-10 19-1-2 12-21zm-204 8l10 7h-4l-9-5 3-2zm90 3v4l-6 12 3 1-3 2v-2l-11 20v-3l17-34zm181 2l9 8h-4l-5-3v-5zm-255 2l11 1-4 5-5-1-2-5zm135 3l5 13h-1l-4-13zm-382 3l9 3 16 15 12 14 8 16v13l6 9v9l12 23v6h-2q-13-30-33-51l-2 1-29-49v-6l3-3zm536 5l13 16-15-14 2-2zm-5 7l18 12 1-2 11 20-1-1-8-5-22 28-10 6-16 20-3 12-6-3 4-9 2-1-1-3-11-2-12 7-3-1 3-5-2-1-16 18h3l3-2 1 2-1 5q19-2 24 11v2l-9-6-14 12q-24-4-31 9l1 3 7 6h-37l-13-9-1-3 2-3 5 3v-2l-6-10 9-12 7 5 31-19 13-13 23-5 41-41 12-22 2-1zm186 0v7l-21 41-12 12h-3l34-59 2-1zm-62 6l2 1v24l12 29h-8q-6-5-4-18l-6-11v-21l4-4zm-214 7v6l-5 8-1-5 6-9zm-56 11l7 1-4 2-1-2-11 20v-3l9-18zm-105 17l2 2-10 5 5-6 3-1zm77 4l1 2-4 1 3-3zm85 0l8 9-10-7 2-2zm-73 7v3l-5 8-2-2 7-9zm-106 1l-1 4-10 3v-1l11-6zm353 1l11 10v2l-10-7-1-5zm-375 6l7 1-15 5v-1l8-5zm176 0l2 1-21 12 1-4 18-9zm-72 3l1 2-4 1 3-3zm106 2l-3 4-10 3v-1l13-6zm-240 1l11 1q-5 7-19 5v-1l8-5zm149 0l-2 3-1-2 3-1zm-176 6l2 1-22 11 2-3 18-9zm243 0l7 1-15 5v-1l8-5zm-40 6l2 1q-14 9-19 27l-4 2q-6 19-22 28l-10 2v-1l3-4 17-12 3-7-3-5-22-1 3-4 29-2 9-7 8-14 6-3zm25 0l4 1-12 6-3-1 11-6zm216 0l5 4v14l-5-3v-15zm-295 3l1 2-4 1 3-3zm12 1v3l-11 14-2-2 13-15zm-18 5l1 3-6 8-1-2 6-9zm-156 3l5 4 1 3-20 29q-7-5-4-18l12-15 6-3z"/><path d="M564 1300v3l-5 10-1-4 6-9zm-89 8l35 33q22 6 34 23l2 4h-2l-20-11-1-4-17-8-8-11-4-1-20-22 1-3zm113 6l7 1-2 3-11 4q-1 15-13 20l-11 2-5-3-1-3 4-6 2-1 2 5 5 2 15-13 6-10 2-1zm12 0q13-3 18 4l2 2h11l16 12h-4l-11-5-2-4v-2l-11 5-2-6q-13 2-17-3v-3zm116 5v2l-14 7-7 8-7 2 8-9 20-10zm-91 13l15 12 2 3 12 7v2h-6l-22-13-1-11zm25 0q14-2 19 6h-11l-8-6zm395 0l5 4v29l-11 19-14 12-26 14h-17l-15-9-1 2q-8-4-6-16l16-19 2 1q-11 7-12 24l4 4q5 8 21 7l38-17 15-30 1-25zm-342 6q12-3 16 4l1 2h-14l-3-6zm72 12h18l11 6q14-4 18 4v2h-30l-5 4-1 9 6 11q-13-3-17 4l-1 7 30 17v2q-25-4-36-21v-3l-9 6-3 12-6-3q-2-16 6-20v-13l13-21 6-3zm-108 6l11 4v2l-11-3v-3zm173 0l2 1-7 5-1-2 6-4zm-149 6h14l27 16v8l-17-12q-18 3-23-7l-1-5zm-132 6q12-3 16 4l1 2h-14l-3-6zm72 6l10 4 1 2h-8l-3-6zm24 6l10 2 19 20v2l-6-3-1-3-23-15 1-3zm282 12l2 1 3 11-1-1-4-2v-9zm-336 6h42q5 8 20 6l9 10v2l-42-12-5 4-1 3 6 8 16 11 2 4h-2q-23-8-38-23l-8-10 1-3zm273 0l2 1v5l-5-2 3-4zm69 12l5 3h1l4 11-2 4h-9l6-9-5-9zm-189 12l2 1q-4 24 6 35h-8q-9-10-4-32l4-4zm159 0q7 8 23 7l-3 5q-18 3-21-9l1-3zm-30 6l5 4-3 8h-3l1-12zm-222 6q12-3 16 4l1 2h-14l-3-6zm53 0l6 1-1 3-10 2v-1l3-4 2-1zm55 24l65 1-3 5h-59l-4-3 1-3z"/></g><path d="M870 450l1 1h-1v-1zm25 19l5 16h-1l-4-16zm6 24l5 16h-1l-4-16zm12 36l5 16h-1l-4-16zm-403 3v5l-5 8-1-5 6-8zm65 8l9 6h-2l-7-6zm-125 6l5 1-15 5v-1l10-5zm314 12q15-2 21 6h-11l-10-6zm-350 10v3l-5 7-1-2 6-8zm395 1l7 3v9l-5-8-6-2 4-2zm-292 8l5 13-4-3-1-10zm432 6l5 16h-1l-4-16zm-438 3l7 8-8-3 1-5zm107 9v6l-3 5-2 1-1-1 6-11zm43 15l5 13h-1l-4-13zm-48 1l3 3 2 9h-1l-4-12zm160 1l12 6h-5l-7-6zm92 4l6 9-5-2-1-7zm-12 18l5 4-5 6-2-8 2-2zm-371 8l-2 3-5 11-1-2 6-11 2-1zm472 0l5 1-15 5v-1l10-5zm-322 24l4 2 2 2 3 2h-12l1-2 2-4zm66 6l15 6h-5l-10-6zm-121 11l1 2-21 21-9 2v-1l29-24zm-53 19l15 6h-5l-10-6zm-86 4v3l-5 7v-3l5-7zm654 8l1 1h-1v-1zm11 5l7 3v9l-5-8-6-2 4-2zm-562 5l5 4-5 9v-13zm-120 1l1 2-7 7-1-4 7-5zm391 1l4 2 2 4h-9l1-2 2-4zm-464 1v6l-5 10-1-5 6-11zm769 9l6 10-1 3-5-13zm-257 2l16 2v5l-16-7zm76 6l5 1-15 5v-1l10-5zm72 0l1 1-1 5h-8l8-6zm67 19l5 16h-1l-4-16zm-461 11l4 3-3 9-3 1v-3-4h-5l5-3 2-3zm274 4v13h-1l-2-5-3-1 2-5 4-2zm-316 8l15 1-5 3-1 2-5-1-1-3-3-2zm275 3l13 9h-2l-11-5v-4zm-359 3l12 6h-2l-10-6zm-2 12l5 1-15 5v-1l10-5zm102 0l5 1-12 5 3-4 4-2zm283 4l5 13h-1l-4-13zm-415 14l5 1-24 17 15-16 4-2zm257 12l12 6h-5l-7-6zm85 0l2 1-12 5v-1l10-5zm293 3l1 20h-1l-5-11 5-9zm-557 1v3l-5 7v-3l5-7zm-126 8l2 1-9 6-4-1 11-6zm506 6l12 6h-2l-10-6zm35 1l5 16h-1l-4-16zm-445 10l6 5 1 2h-1l-8-5 2-2zm-34 7l12 6h-2l-10-6zm467 1l5 16h-1l-4-16zm-55 6v6l-5 10-1-5 6-11zm210 0v18l-5 10-1-17 6-11zm48 6v6l-5 10-1-5 6-11zm-647 3l11 25h-1l-10-25zm509 9l1 4-6 12-1-5 6-11zm-372 6v6l-5 10-1-5 6-11zm-125 18l5 18-1-1h-5l1-17zm504 12l5 16h-1l-4-16zm-49 24v6l-5 7-1-2 6-11zm126 0v6l-5 10-1-5 6-11zm-444 3v10l-2-2-4-1 2-5 4-2zm-207 20l9 3v5l-5-2-1 5-3-5-3-1 3-5zm335 0l15 6h-5l-10-6zm239 1l5 12-5 10v-22zm-120 6l5 13-4-3-3-6 2-4zm-53 5l15 6h-5l-10-6zm-193 1l5 16h-1l-4-16zm437 6v6l-5 10-1-5 6-11zm-455 6l5 16h-1l-4-16zm329 5l17 6h-5l-10-4-12 4v-1l10-5zm-617 1l5 16h-1l-4-16zm702 0l6 11h-5l-3-7 2-4zm-408 12l5 16h-1l-4-16zm36 9l7 8-8-1 1-7zm407 3v6l-5 10-1-5 6-11zm-634 5l15 6h-5l-10-6zm683 1l5 16h-1l-4-16zm-632 5l12 6-3 1-9-7zm0 18l9 6h-2l-7-6zm577 1v6l-5 10-1-5 6-11zm61 0l5 16h-1l-4-16zm-425 11q19-3 27 6h-17l-10-6zm-343 1l11 25-4-3-7-22zm479 17l5 1-15 5v-1l10-5zm198 1v6l-5 10-1-5 6-11zm-499 5l9 6-3-1-6-5zm20 16l5 13h-1l-6-11 2-2zm203 8l2 1-12 5v-1l10-5zm224 12l-2 3 1 3 2 1-3 7-1-2-4 2v-3l5-10 2-1zm76 7v12l-5 10-1-11 6-11zm-204 12v6l-5 7-1-2 6-11zm-156 5l2 1-12 5v-1l10-5zm5 0l1 7-15 17-3 1-2-1 17-17 2-5v-2zm325 19v30l-5 10-1-29 6-11zm-242 11l2 9-1-1-7-2 6-6zm68 1v6l-5 10-1-5 6-11zm-366 9v3l-5 10-1-5 6-8zm642 3v6l-5 10-1-5 6-11zm-6 18v6l-5 7v-3l5-10zm-324 5l5 1-12 5 3-4 4-2zm8 0l12 6h-2l-10-6zm-332 1v6l-5 10-1-5 6-11zm577 0l5 16h-1l-4-16zm-84 3l11 25h-1l-12-23 2-2zm-271 6v3l-3 5-3 1-2-1 8-8zm318 2l2 1-12 5v-1l10-5zm-593 1l12 18-1 1-10-9-3-6 2-4zm30 0l5 16h-1l-4-16zm390 6l6 12-5-2-1-10zm263 6l1 4-8 11-6 3-1-1 14-17zm-456 5l5 1-15 5v-1l10-5zm366 0l1 1h-1v-1zm-390 6l5 1-15 5v-1l10-5zm36 0l5 1-15 5v-1l10-5zm319 1l3 5 2 2-1 4-4 2v-13zm-126 2l4 4-2 5-19 6v-1l16-8-1-4 2-2zm-384 4l5 16h-1l-4-16zm113 11l5 1-12 5 3-4 4-2zm-29 5l-2 5-6 2 3-4 5-3zm486 8l5 16h-1l-4-16zm-576 12l6 12-5-2-1-10zm329 0v16h-1l-2-5-3-1 6-10zm115 6l5 16h-1l-4-16zm-421 22l14 13h-2l-14-11 2-2zm182 7l15 6h-5l-10-6zm144 0l15 6h-5l-10-6zm28 0l12 2-1 4q-7 10-21 12v-1l16-8v-8l-16 5v-1l10-5zm205 1l3 5 2 2-5 9v-16zm-341 5l15 6h-5l-10-6zm40 0l5 1-15 5v-1l10-5zm28 0l2 2 2 2 4-1 2-3 4 2 2 2 3 2q-23-5-32 6l-2 5-2-3 5-7 12-7zm-116 6l15 6h-5l-10-6zm138 0l15 6h-5l-10-6zm-278 5l11 7-3 1-10-6 2-2zm408 12l11 7h-5l-8-5 2-2zm44 0v2l-13 16-1-5 8-10 6-3zm-218 2v6l-5 10-1-5 6-11zm-190 5l15 6h-5l-10-6zm304 12l2 1-24 11v-1l22-11zm-89 2l-1 2 3 8-2 1-7-3 2-4 5-4zm95 2v3l-6 9 11 8h-5l-11-8 11-12zm-244 2l15 6h-5l-10-6zm-37 3l13 15h-2l-10-7-1-8zm348 1l11 25h-1l-10-25zm22 8l12 6h-5l-7-6zm-159 6l15 6h-5l-10-6zm30 6l15 6h-5l-10-6zm-206 11l23 13h-5l-20-11 2-2zm257 0l7 3-1 7-6-10zm-137 8v19l-4-3-2-5 6-11zm-82 5l15 6h-5l-10-6zm46 0l5 1-15 5v-1l10-5zm174 0l2 1-9 6 1-4 6-3zm-24 12l5 1-15 5v-1l10-5zm-88 12l45 1q-11 9-35 5l-10-6z" fill="#8d2648" stroke="#8d2648"/><path d="M876 492q13-2 16 8l2 23-14 34-11 11-5 2-10-7-2-35 8-22 12-12 4-2zm-321 13l9 9q-4 21 6 29l12 5-1 2-11 4q-6 29-20 51l-17 17-26 13-9-5-17 10-6 12-4 2-8 17-1-2-11 20-1-2-17 25-22 20q-13 12-9 43l5 11h-5l-28-25-14-34v-57l30-63 1 2q7-22 23-37l9-7v-2l21-11h19l10 6-5 1-24 29v23l13 1 26-23 3-7-5-9 5-6-11-8 8-1 15 15 1-2 12 21 10 2 1-12-5-9-2 1q-7-4-5-17l3 1 21-8 1 2 4-3 1-2-2-1 14-27-11-8q11 1 14-6zm-67 65l-2 5 6 1v-4l-4-2zm262-6h27l3 4 6 21-12 17-23-21-1 2q-8-5-6-19l6-4zm-173 6l16 6-2 1 3 5h-2l-16-7 1-5zm78 42l5 4v2l-6-1 1-5zm-59 12l4 2-1 10-5-1 2-11zm29 6l5 2 6 16h-2l-4-2v1l-5-17zm216 0l11 10-2 2-8-7-1-5zm-353 36l16 16v2q-10 2-12-3l-6-13 2-2zm131 6q17-4 23 4l2 2 4-1 4-5 2 2-12 17 5 9-23 33 5 9-26 26-4 10-16 8h-7l-11-9-2 1q-8-10-5-30l10-24 14-20 3-2-3 4 1 2q4 7 18 6l20-17 3-13-5-12zm79 6l10 2-1 4-11-1 2-5zm-100 6l4 1-14 13 10-14zm117 0l28 18-2 1 15 9v2l-10-2-30-23-1-5zm-236 18l7 4v7l-7-11zm14 6l29 8-1 4q-21 4-27-7l-1-5zm-37 4v9l-6 12 6 8 5 1 22-21 3-6v6l-19 21-11 2-10-7-2-5 12-20zm-14 8l2 1-21 23h-3l15-17-2-1 9-6zm87 0l11 10-1 2-9-7-1-5zm563 0q12-1 15 7l3 12-19 21-7 2-10-20 14-20 4-2zm-290 12h23q6 8 21 8l-1 4-11 3-23 15h-13l-15 12-10 16-23 2-9 6-3 12 4 2 2 15-12 1-6-3v-3h-11l20-17 9-19-6-12h-5l36-15 14-14-2-1 21-12zm-272 12l4 2-1 22-5-1 2-23zm324 0l10 2-1 4-11-1 2-5zm149 6l6 2 3 4 2 2-1 4-3 2-5 9-7 1v-1l7-4 3-16-2-2-9 7-1-4 7-4zm-88 1l7 7q3 25 19 38l-18 24-5 2-17-15-1 2-12-22v-14l3 1 12-5 3-7-3-5 9-2 3-4zm-434 29q7 8 23 8v4q-17 2-23-5l2-1-2-6zm-29 6l4 1-5 16-1-2-5 3-1-2 8-16zm89 6l5 4v2l-6-1 1-5zm69 0l2 1-29 34-1-5h-11l14-11v-2l25-17zm231 0q18 7 29 22v2l-28-19-1-5zm-357 18l2 1-7 9-22 8-1-2 28-16zm219 1l5 8 5 3h-7l-3-11zm-121 18v6q-5 16-17 25l-1-2 18-29zm232 5l2 2-13 14-9 2-2-4q15-3 22-14zm58 6l4 2-1 10-5-1 2-11zm-96 12l10 1-1 5-11-1 2-5zm128 0q13-1 18 6l2 2h1l5 7 1-2 5 11v109l-13 23q-16 2-22-5l2-1-10-8-5-10v-86l6-5 1-16 8 11 21-20-3-10q-18-3-24 6l-2 5-1-7 10-10zm-206 6l34 2-1 4-14 5-8-5-1 4q8 2 6 15l-11 19-1-2q9-9 6-30l-5-9-5-3zm-163 11l5 5 1 2 13-6-3 4-11 6v9l-13 21-4 2-1-6 12-23 1-14zm-135 1l22 1-14 15 8 14q20 2 25-11l3-7-8-11 23-1 20 8 13 13h1q7 6 5 22l-19 21-40 14h-19l-33 30-15 42v43q7 4 6 18l22 40-4 5q7 2 6 14l-1-1-4-2-1 2-48-92v-15q-8-7-6-24l-6-9v-47l6-9v-19l6-17 22-25 30-12zm314 36l6 2q4 24-6 35l6 11q-3 19 5 28l-5 8-2 17-11 11-11 4-1 10-33-25q-5-21-20-32v-35l6-4-6-13 6 4q5 5 19 3l19-12-2 3 1 3 11-1 4-10 14-7zm-214 18l4 2-1 10-5-1 2-11zm18 0l4 2v23l-3 4-2 1-1-28 2-2zm227 54l17 16v2l-18-15 1-3zm43 18l64 2-1 4-65-1 2-5zm140 48l2 1-7 9-4 2-1-2 10-10zm-280 24h25q7 8 23 8-8 6-6 23l-14 28-11 11-28 14h-13l-22-11-6-8-2-7 12-26 21-19v-2l21-11zm178 48l26 2-19 40q-16 2-22 12l-31 2-2 9-23 23-14 7-15-11 24-47 2 9 11 2q16-5 26-17l9-18-5-1q7-8 24-6l9-6zm74 6l10 8 2 11-6 11v36h-18l-29 12-1-6 26-58 12-12 4-2zm78 18v3l-20 21 1 1q-6 7-21 5l-2-4 19-5 23-21zm-278 12l2 1-3 5 1 1-21 11h-17l-2-4q27 0 40-14zm-149 6l7 4v7l-7-11zm149 18l2 1-3 5h-3l4-6zm-172 12l5 1-15 5-1-2 2 1 9-5zm277 18l5 1-1 5-5-1 1-5z" fill="#e97bbc" stroke="#e97bbc"/><path d="M508 162l1 3h-1v-3zm439 366q9-2 12 4l1 12h-1l-12-16zm206 98l11 27h-1l-10-22h-2l2-5zm-7 2l1 3-1 4 6 5 2 8-2 1v11l-4-1-8-17v-8l5-3 1-3zm25 40l11 27h-1l-10-27zm18 71q7 5 5 20l-6 3v-1l-2-5-4 1 2 5h-4q-6-6-4-19l3 1 3-1 2 7 4-1 1-10zm37 2l1 3-2-1 1-2zm-43 28l11 26-3-3-3 1v4q-10-8-5-28zm12 42l3 5 2-1q4 15-3 19h-3l-3-11 3-1 1-11zm-884 2v2l-2 1 2-3zm884 27l5 4v30l-2 2-10-20 7-16z" fill="#f1eae8" stroke="#f1eae8"/><g fill="#fefefe" stroke="#fefefe"><path d="M909 162l1 1h-1v-1zm-195 80v2h-1l1-2zm-41 258v2h-1l1-2zm480 132l14 28-3 1 14 29h-5l-23-53 2-1 1-4zm-288 54v2h-1l1-2zm83 0v2h-1l1-2zm-474 18v2h-1l1-2zm378 18v2h-1l1-2zm335 52l7 4v16q-8-7-7-20z"/><path d="M1189 794q8 8 5 28h-2q-8-9-3-28zm-403 336v2h-1l1-2z"/></g><path d="M823 239v2h-1l1-2zm-6 34l2 3-4-1 2-2zm5 8v2h-1l1-2zm-6 22l-8 9-4-2 3 1 9-8zm126 21l1 1h-1v-1zm163 15l2 3-4-1 2-2zm-283 3l1 1h-1v-1zm-138 9l1 2-4 1 3-3zm222 56v2h-1l1-2zm64 31l9 8-1 1-8-9zm18 24l9 8-1 1-8-9zm77 66l-2 3-1-2 3-1zm-335 6l6 5 3-2-4 3-5-6zm-326 11l1 2-14 14 13-16zm611 28l2 3-4-1 2-2zm144 58l5 15h-1l-4-15zm-64 5l-2 3-1-2 3-1zm-280 78l12 6h-5l-7-6zm413 72l2 4-3 2 2-3-1-3zm-915 58l5 12h-1l-4-12zm341 41l1 2-4 1 3-3zm480 366l1 2-4 1 3-3zm-12 18l-19 22-2-1 21-21zm-42 61v6l-5 7-1-5 6-8zm-555 62l26 12h-10l-16-12zm106 66l7 6h-4l-3-6z" fill="#51455a" stroke="#51455a"/><path d="M795 113l1 1h-1v-1zm99 303v2h-1l1-2zm271 234l5 14h-1l-6-10 2-4zm30 150l5 14-4 1-3-11 2-4z" fill="#f6f3f4" stroke="#f6f3f4"/></svg>