<svg xmlns="http://www.w3.org/2000/svg" viewBox="0 0 948 948" xmlns:v="https://vecta.io/nano"><style><![CDATA[.B{stroke-width:3}]]></style><g stroke="#000" class="B"><path opacity="0" d="M1 0l947 1v947H0L1 0zm594 12l-1 6h-23l-1 6h-11l-1 6h-11l-1 6h-11l-1 6h-5l-1 6h-5l-1 6h-11l-1 6h-5l-1 6h-5l-1 6h-5l-1 6h-5l-1 6h-5l-1 6h-5l-1 12h-5l-1 12h-5l-1 6h-5l-1 18h-5l-1 36-3 6h-2l-1 30-3 6h-2l-3 22h-1q-6-6-3-21l-5-1-1-23-5-1-1-23-5-1-1-11-5-1-1-5-5-1-1-17-2-1-4-5-2-1-4-5-17-4-1-2-11-4-1-2-2-1-4-5-17-1-1 3q-7 6-23 3l-1 6h-35l-1 3-6 3h-47l-1 3-11 3-1 3q-5 5-17 3l-1 3-11 3-1 3-5 3-1 3-5 3-1 3-5 3-1 3-5 3-1 3-5 3-1 3-5 3-1 3-5 3-4 12h-2l-4 18h-2l-1 48h3q5 5 3 18h3q7 9 3 30h3l3 6h3q6 7 3 24h3l3 12h3q6 7 3 24h3q6 7 3 24h3l3 6h3l3 12h6v6l10 2 1 3-1 5-4 2h-41l-1 3q-9 7-29 3l-1 3-5 3-1 3-5 3-1 3-5 3-1 3-11 3-1 6h-5l-4 12h-2l-1 3-5 3-4 18h-2l-4 12h-2l-1 78h3l3 12h3l2 5-2 7h-2l-1 18h6v6l18 3v3h3l3 6h36l6 3v3l12 3v3l11 4-4 2-1 6h3l3 6 5 3q-8 7-28 3l-1 6h-5l-1 6h-5l-1 6h6v6h48l6 3v3l10 2q5 6 2 22h3l3 6h-17l-1 3-5 3-1 3-5 3-1 12h6v6h12v-2l12-4v-5l6-1 1-6 11 3v3l10 2 1 3-2 7h-2l-1 6h3l3 6h3l3 6q16-3 24 3v3l5 3q-6 6-22 3l-1 3-6 3-11-3-1-2-11-1-1 6h-5l-4 18h-2l-1 3-5 3-4 12h-2l-1 3-11 3-1 3-5 3-1 3-5 3-1 3-5 3-1 3-5 3-1 3-5 3-1 6h-5l-1 6h6v6h18v-2l6-4v-2l12-4v-2q7-7 24-4v-2l6-4v-2l5-3 7 2v3h3l3 6 12 3v3h24v6h12v6h18v-5l6-1v-5l-5-1-1-5-11-1-1-5-5-1-1-5-11-4-1-2-2-1-4-5-5-3q4-6 17-4v-2q5-6 18-4v-2l5-3 6 3-4 2-1 3-5 3-1 12h6v6h18v-2l7-4 11 3v3l10 2 2 10h6v6q20-4 30 3v3l18 3v3h30l6 3v3h90v-5l6-1v-5l-5-1-1-5-11-1-1-5-59-1-6-3-1-2-11-4-1-2-17-4-1-2-2-1-3-4 1-5 10-3v-2l7-4 11 3v3h3l3 6h12v-2l5-3 7 2v3h12v6h6v-5l6-1v-23l4-6 2 5h3l3 6h3l3 6h3l3 6 11 4-4 2-1 6h3l3 6h3l3 6h54v-2l5-3 7 2v3h3l3 6h3l2 4-4 2-1 12h3l3 6h3l3 6h3l3 6h-5l-1 6h6v6h30v6h6v-5l6-1 2-9 10-3v-5l6-1v-5l6-1v-5l6-1v-5l-5-1-1-5-5-1-1 6h-5l-1 6-9-2-3-9-2-1-4-5-2-1-4-11-2-1-4-6 2-9 5-3 11 3v3l12 3v3h12v-2l6-4v-2l7-4 11 3v3l18 3v3h3l3 6 18 3v3h3l3 6 12 3v3h3l3 6h3l3 6h3l3 6h12v-5l6-1v-23l-2-1-4-11-2-1-4-5-2-1-4-11-2-1-4-5-2-1-3-4 1-5 10-3v6h6v-5l6-1v-11l-5-1-1-5-5-1-1-5-11-4-1-2-2-1-4-5-11-4-1-2-2-1-4-5-11-4-1-2-17-4-1-2-9-3-1-1 5-3q19-4 29 3v3h24v-5l6-1v-5l-5-1-1-5-2-1-4-5-2-1-4-5-5-3q4-6 17-4v-2q7-7 24-4v-5l6-1v-11l-2-1-4-5-2-1-4-5-9-3-2-2 1-5 10-3v-2l4-3 2 5h18v-5l6-1v-11l-2-1-3-4 1-5 10-3v-2l6-4v-2l12-4v-2l12-4v-2q5-6 18-4v-2l6-4v-2l12-4v-5l6-1v-11l-5-1-1-5-11-1-1 6h-41l-1 3-6 3-11-3-1-2-17-1-1-5 6-1v-5l6-1v-5l-5-1-1-5-11-1-1 6h-5l-1 12 6 1-2 9-15 2-1 3-5 3-1 3-11 3-1 3-5 3-1 3-6 3-9-2-3-4 3-11 3-1 3-11 3-1v-2l6-4v-2q5-6 18-4v-5l6-1v-5l-5-1-1-5-2-1-4-6 3-11 3-1 3-11 3-1 2-9 10-3v-5l6-1 3-11 3-1v-2l6-4 3-11 3-1v-2l6-4v-2l6-4 3-11 3-1v-2l6-4 3-17 3-1v-2l6-4v-5l-2-1-4-5-2-1-4-5-17-1-1 3-11 3-1 3q-7 6-23 3l-1 6h-5l-1 6h-5l-1 12h6v6h6v-5l3-1 2 5-2 7h-2l-1 3-5 3-4 12h-2l-3 10-9 2-1 3-6 3q-16 3-23-3l-1-2-2-1-4-5-11-1-1 6h-5l-4 12h-2l-1 3-5 3-1 3-4 2-5-1-2-2 2-7 3-1v-2l6-4v-2l6-4v-2l6-4v-11l-2-1-4-5-2-1-3-4 2-7 3-1v-2l6-4 3-11 3-1 3-11 3-1v-2l6-4v-11l-2-1-4-5-2-1-3-3 5-3v-2l6-4 3-11 3-1v-2l6-4 3-11 3-1 3-11 3-1v-2l6-4q-3-16 3-23l3-1 3-17 3-1 3-11 3-1 3-17 3-1q-3-16 3-23l3-1 3-11 3-1 3-17 3-1v-2l6-4q-3-16 3-23l3-1v-77l-2-1q-6-5-4-17l-2-1-4-5-2-1-4-5-2-1-4-5-2-1-4-11-2-1-4-5-2-1-4-5-2-1-4-5-2-1-4-5-2-1-4-5-2-1-4-5-17-4-1-2-2-1-4-5-11-4-1-2-17-4-1-2-101-1zm150 432l-1 6h-5l-1 6h-5l-1 6h6v6h12v-5l6-1v-5l6-1v-5l-5-1-1-5-11-1zm102 132l-1 6h-5l-1 6h-5l-1 6h-5l-1 6h6v6h12v-5l12-1v-5l6-1v-11l-5-1-1-5-11-1zm-12 282l-1 6h-5l-1 12h6v6h6v6h6v-5l6-1v-17l-5-1-1-5-11-1zm-642 42l-1 6h-5l-1 6h-5l-1 12h6v6h6v-5l12-1v-5l6-1v-11l-5-1-1-5-11-1zm390 6l-1 6h-17l-1 6h-5l-1 6h6v6h24v-5l18-1v-5l6-1v-5l-5-1-1-5-23-1zM571 42l11 1-3 5-3 1-3 5-3 1-3 5-3 1-3 5-3 1-3 5-3 1-3 5-3 1-3 5-3 1-3 5-3 1-3 11-3 1-3 5-3 1-3 5-3 1-3 5-3 1-3 5-3 1-3 5-3 1-3 5-3 1-3 5-3 1-3 5-3 1-2 9-5 1-3-1-2-27 6-1 1-12h5l1-12h5l1-12h5l1-6h5l1-6h5l1-6h5l1-6h5l1-6h11l1-6h5l1-6h23l1-6h11l1-6zm-252 78l5 1 1 5 5 1 1 5 11 4 1 2q12-2 17 4l1 2 5 4 1 2q12-2 17 4l1 2 5 1 1 5 11 1 1 17 5 1 1 17 5 1v47h-18v-6l-12 1-2 4-4-2v-3h-3l-3-12-6-3v-3h-3l-3-12h-3l-3-12h-3l-3-12h-3l-3-12h-3l-3-12-6-3v-3h-3l-3-12h-6v-6l-12-3v-3l-12-3 1-3h23l1-6z"/><path opacity="0" d="M409 294q16-3 23 4l1 2 5 4 1 2 2 1 4 11 2 1 4 17 5 4 1 2 2 1 4 11 5 4 1 2 5 4 1 2 5 4 1 2 2 1 4 11 5 1 1 5 11 4 1 2 5 4 1 2 2 1 3 11-3 6-3 1q3 15-2 21l-16 3v5l-6 1-2 15-9 2-1-6-6 1v5l-6 1 1 5 5 1 1 5h5l1-6 5 1-3 11-3 1-3 10-3-5-6-3v-3h-3l-3-6v-29l6-1v-18h-6v-18h-6v-6l-6 1v5l-6 1v41l-3 6-3 1-3 5-3 1 1 11 2 1 3 11-2 4-5 1-4-2 5-3v-6l-6-3v-3l-6-3v-3l-6-3v-3l-6-3v-3l-6-3v-3l-5-2 3-4h2l4-6h2v-24l-6-3v-3l-6-3v-3l-6-3v-3l-6 1-2 4-4-10 4-7h2l4-6h2l4-6h2l4-12h2l4-6h2q-2-13 4-18h2l4-6h2l1-12h5v-12h-6v-6l-6 1v5h-3l-3-11 6-1 1-6zm48 84l-1 6h-5l-1 6h6v6h6v-5l6-1v-5l-5-1-1-5-5-1zm222 54q12-2 16 4l-5 3-3 11-3 1-3 11-3 1-3 5-3 1-3 5-3 1-3 5-3 1-3 5-3 1-2 9h-2l-2-9 4-7h2q-2-13 4-18h2q-3-16 3-22l9-2 1-3 6-3zm-432 12q12-2 17 4l1 2 2 1 4 11 4 3-6 2-5-2v-3l-6-3v-3l-16-2-1-5 2-3 4-2z"/><path d="M595 12l101 1 1 2 17 4 1 2 11 4 4 5 2 1 1 2 17 4 4 5 2 1 4 5 2 1 4 5 2 1 4 5 2 1 4 5 2 1 4 5 2 1 4 11 2 1 4 5 2 1 4 5 2 1 4 5 2 1q-2 12 4 17l2 1v77l-3 1q-6 7-3 23l-6 4v2l-3 1-3 17-3 1-3 11-3 1q-6 7-3 23l-3 1-3 17-3 1-3 11-3 1-3 17-3 1q-6 7-3 23l-6 4v2l-3 1-3 11-3 1-3 11-6 4v2l-3 1-3 11-6 4v2l-5 3 3 3 2 1 4 5 2 1v11l-6 4v2l-3 1-3 11-3 1-3 11-6 4v2l-3 1-2 7 3 4 2 1 4 5 2 1v11l-6 4v2l-6 4v2l-6 4v2l-3 1-2 7 2 2 5 1 4-2 1-3 5-3 1-3h2l4-12h5l1-6 11 1 4 5 2 1 1 2q7 6 23 3l6-3 1-3 9-2 3-10h2l4-12 5-3 1-3h2l2-7-2-5-3 1v5h-6v-6h-6l1-12h5l1-6h5l1-6q16 3 23-3l1-3 11-3 1-3 17 1 4 5 2 1 4 5 2 1v5l-6 4v2l-3 1-3 17-6 4v2l-3 1-3 11-6 4v2l-6 4v2l-3 1-3 11-6 4v2l-3 1-3 11-6 1v5l-10 3-2 9-3 1-3 11-3 1-3 11 4 6 2 1 1 5 5 1v5l-6 1v5q-13-2-18 4v2l-6 4v2l-3 1-3 11-3 1-3 11 3 4 9 2 6-3 1-3 5-3 1-3 11-3 1-3 5-3 1-3 15-2 2-9-6-1 1-12h5l1-6 11 1 1 5 5 1v5l-6 1v5l-6 1 1 5 17 1 1 2 11 3 6-3v-3h-12v-6h-6l1-6h5l1-6h5l1-6h5l1-6 11 1 1 5 5 1v11l-6 1v5l-12 1 1 5h41l1-6 11 1 1 5 5 1v11l-6 1v5l-12 4v2l-6 4v2q-13-2-18 4v2l-12 4v2l-12 4v2l-6 4v2l-10 3-1 5 3 4 2 1v11l-6 1v5h-18l-2-5-4 3v2l-10 3-1 5 2 2 9 3 4 5 2 1 4 5 2 1v11l-6 1v5q-17-3-24 4v2q-13-2-17 4l5 3 4 5 2 1 4 5 2 1 1 5 5 1v5l-6 1v5h-24v-3q-10-7-29-3l-5 3 1 1 9 3 1 2 17 4 1 2 11 4 4 5 2 1 1 2 11 4 4 5 2 1 1 2 11 4 1 5 5 1 1 5 5 1v11l-6 1v5h-6v-6l-10 3-1 5 3 4 2 1 4 5 2 1 4 11 2 1 4 5 2 1 4 11 2 1v23l-6 1v5h-12l-3-6h-3l-3-6h-3l-3-6h-3v-3l-12-3-3-6h-3v-3l-18-3-3-6h-3v-3l-18-3v-3l-11-3-7 4v2l-6 4v2h-12v-3l-12-3v-3l-11-3-5 3-2 9 4 6 2 1 4 11 2 1 4 5 2 1 3 9 9 2 1-6h5l1-6 5 1 1 5 5 1v5l-6 1v5l-6 1v5l-6 1v5l-10 3-2 9-6 1v5h-6v-6h-30v-6h-6l1-6h5l-3-6h-3l-3-6h-3l-3-6h-3l1-12 4-2-2-4h-3l-3-6h-3v-3l-7-2-5 3v2h-54l-3-6h-3l-3-6h-3l1-6 4-2-11-4-3-6h-3l-3-6h-3l-3-6h-3l-2-5-4 6v23l-6 1v5h-6v-6h-12v-3l-7-2-5 3v2h-12l-3-6h-3v-3l-11-3-7 4v2l-10 3-1 5 3 4 2 1 1 2 17 4 1 2 11 4 1 2 6 3 59 1 1 5 11 1 1 5 5 1v5l-6 1v5h-90v-3l-6-3h-30v-3l-18-3v-3q-10-7-30-3v-6h-6l-2-10-10-2v-3l-11-3-7 4v2h-18v-6h-6l1-12 5-3 1-3 4-2-6-3-5 3v2q-13-2-18 4v2q-13-2-17 4l5 3 4 5 2 1 1 2 11 4 1 5 5 1 1 5 11 1 1 5 5 1v5l-6 1v5h-18v-6h-12v-6h-24v-3l-12-3-3-6h-3v-3l-7-2-5 3v2l-6 4v2q-17-3-24 4v2l-12 4v2l-6 4v2h-18v-6h-6l1-6h5l1-6 5-3 1-3 5-3 1-3 5-3 1-3 5-3 1-3 5-3 1-3 11-3 1-3h2l4-12 5-3 1-3h2l4-18h5l1-6 11 1 1 2 11 3 6-3 1-3q16 3 22-3l-5-3v-3q-8-6-24-3l-3-6h-3l-3-6h-3l1-6h2l2-7-1-3-10-2v-3l-11-3-1 6-6 1v5l-12 4v2h-12v-6h-6l1-12 5-3 1-3 5-3 1-3h17l-3-6h-3q3-16-2-22l-10-2v-3l-6-3h-48v-6h-6l1-6h5l1-6h5l1-6q20 4 28-3l-5-3-3-6h-3l1-6 4-2-11-4v-3l-12-3v-3l-6-3H96l-3-6h-3v-3l-18-3v-6h-6l1-18h2l2-7-2-5h-3l-3-12h-3l1-78h2l4-12h2l4-18 5-3 1-3h2l4-12h5l1-6 11-3 1-3 5-3 1-3 5-3 1-3 5-3 1-3q20 4 29-3l1-3h41l4-2 1-5-1-3-10-2v-6h-6l-3-12h-3l-3-6h-3q3-17-3-24h-3q3-17-3-24h-3l-3-12h-3q3-17-3-24h-3l-3-6h-3q4-21-3-30h-3q2-13-3-18h-3l1-48h2l4-18h2l4-12 5-3 1-3 5-3 1-3 5-3 1-3 5-3 1-3 5-3 1-3 5-3 1-3 5-3 1-3 11-3 1-3q12 2 17-3l1-3 11-3 1-3h47l6-3 1-3h35l1-6q16 3 23-3l1-3 17 1 4 5 2 1 1 2 11 4 1 2 17 4 4 5 2 1 4 5 2 1 1 17 5 1 1 5 5 1 1 11 5 1 1 23 5 1 1 23 5 1q-3 15 3 21h1l3-22h2l3-6 1-30h2l3-6 1-36h5l1-18h5l1-6h5l1-12h5l1-12h5l1-6h5l1-6h5l1-6h5l1-6h5l1-6h5l1-6h11l1-6h5l1-6h5l1-6h11l1-6h11l1-6h11l1-6h23l1-6zm34 12l-28 14-107 113-2 11-17 12h-9l2-4-2-2-10 17v25q-9 7-6 27l-10 12-7 3-1-5-2-1q-9 8-4 30l3 1-2 4 6 3 20 23 9 18v7l14 22 31 28 1 3 9 7 11 17-9 35-17 13-22 47-10 5-2-4-3-1-3-1-3-5-13-12-4 11-15 13-21-17 7-1 1-4-7-2 1-3-2-1-27-28 5-9 1 2q8-7 5-25l-5-2-2-6-7 5-2-1-14-15v-12l5-1 19-29 5-1 1-17 4-1 8-10v-9l-12-16q2-18-6-24l1-2 2 1 7-14 2-1-2-8-9-7-1 6h-5l-1-5-5-1-23-31-22-46-6-6 2-1-11-15-1 2-3-5-23-16-1-2-3-4-4-2-2 3-5 3h-44l-46 20-29 29-14 34v39l12 29 2 23 7 4v3q5 5 3 19l12 22v14l6 8q-2 14 3 21l8 5-2 1 7 5 9 7 5 14-10 9-2 6h-42l-11 6-23 2-2 4h-4l-2 7-5-1-1 3-6 5 1 4h-5l-12 13q-2 21-14 34v69l12 28h-3l-3 11 9 1 14 12h34q25 11 43 30h-8l-2 4 9 6 3 8h-4l-2 3-4 3-2 5 18 1v5l12 4 12 16 2 17 7 4 1 3 20 11 6 15-4 3-2 5 21 1 19 21-1 2 1 2-16 11h-13q-6 7-19 6l-4-4-4-2-2 6 4 1-3 1-16 22-43 36-2 5 5 1 13-14 1 2q6-9 25-6l16-14v2l7 1-1 4 6 1v5l17 7h12l1-4-14-14h-8l4-2 2-4 17-12 34-11 10 3 8 11-11 14 11 1 2-6 18 1-1 4q15 0 21 11v3q8 9 29 6l-2 4 18 1v5l30 1 17 6 1-4-29-11-15-15h-6l5-11 13-13h7l1-5 6-1 1-3 23 15 6-3-1-2 13-1v5l11 1q0-22 16-29l2 1 19 21 12 1 12 18-6 2 2 4h47l8-6 8 2 8 6 17 22h-2l-4 11 15 11v3q7 8 26 5l1-2 5-4 1-4-2-2-4-4-5-2-1-10-2-2-16-24 2-10 11-14q20-2 28 8l3 4q15-2 22-12l29 8 7 9 18 1v4q3 10 18 8v5l3 1 10 8 8 10 3-1v-11l-9-18-21-29 12-18-2-6-22-17-44-18-1-2-9-11 6-1-3-5 8-1 5-6h26l17 6 1-4-2-2-16-17 6-1v-2l13-10q13 1 18-6h10l1-4-11-5-12-13 2-7 24-18 8 5 7-1-5-9 2-7q26-28 69-38l-1-5q-29-5-41 6l-14-4-1-2h-16q-5 7-18 6l-35 24-20-10-4-5q3-25 18-38l4-1 14-16-6-2v-11l15-30 5-7 4-2 2-4 4-2q12-8 16-24l3-1 3-5 3-1 15-21 6-20 3-1 5-4-1-5h-12l-20 12-13 2-2 4h7l4 11-20 37q-10 13-27 18h-28l-2-10-3-2-11 13-20 16-7-2-7-5-5-8 6-15 4 1 1-5 5-1q8-3 7-16l-9-2 3-5-2-1-3 6h-1v-11q13-14 18-35l-2-2-20 33h-2q-14 9-20 26l-15 13-1-5-3-1-3-4-4-2-2 1v-12l12-29q-2-14 3-19l21-15 3-4q14-2 21 3l2 3 4-1 1 7 5-3v8l4 1q7-5 8-16l-5-2-1-4-4-3 40-63v-13q8-6 6-21l18-38-2-13 2-1q12-13 15-35l9-11q-2-18 6-24v-69l-8-22q-17-10-24-30l-22-23-20-6-1-2-20-12h-9l-4-4-67-2zm-58 18l-1 6h-11l-1 6h-23l-1 6h-5l-1 6h-11l-1 6h-5l-1 6h-5l-1 6h-5l-1 6h-5l-1 6h-5l-1 12h-5l-1 12h-5l-1 12-6 1 2 27 3 1 5-1 2-9 3-1 3-5 3-1 3-5 3-1 3-5 3-1 3-5 3-1 3-5 3-1 3-5 3-1 3-5 3-1 3-5 3-1 3-11 3-1 3-5 3-1 3-5 3-1 3-5 3-1 3-5 3-1 3-5 3-1 3-5 3-1 3-5 3-1 3-5-11-1zm-233 72l-2 5q10 9 27 11v3q4 7 18 5l3 5 3 1 3-10q-26-5-41-20h-11zm-19 6l-1 6h-23l-1 3 12 3v3l12 3v6h6l3 12h3v3l6 3 3 12h3l3 12h3l3 12h3l3 12h3l3 12h3v3l6 3 3 12h3v3l4 2 2-4 12-1v6h18v-47l-5-1-1-17-5-1-1-17-11-1-1-5-5-1-1-2q-5-6-17-4l-1-2-5-4-1-2q-5-6-17-4l-1-2-11-4-1-5-5-1-1-5-5-1zm90 174l-1 6-6 1 3 11h3v-5l6-1v6h6v12h-5l-1 12h-2l-4 6h-2q-6 5-4 18h-2l-4 6h-2l-4 12h-2l-4 6h-2l-4 6h-2l-4 7 4 10 2-4 6-1v3l6 3v3l6 3v3l6 3v24h-2l-4 6h-2l-3 4 5 2v3l6 3v3l6 3v3l6 3v3l6 3v3l6 3v6l-5 3 4 2 5-1 2-4-3-11-2-1-1-11 3-1 3-5 3-1 3-6v-41l6-1v-5l6-1v6h6v18h6v18l-6 1v29l3 6h3v3l6 3 3 5 3-10 3-1 3-11-5-1-1 6h-5l-1-5-5-1-1-5 6-1v-5l6-1 1 6 9-2 2-15 6-1v-5l16-3q5-6 2-21l3-1 3-6-3-11-2-1-1-2-5-4-1-2-11-4-1-5-5-1-4-11-2-1-1-2-5-4-1-2-5-4-1-2-5-4-4-11-2-1-1-2-5-4-4-17-2-1-4-11-2-1-1-2-5-4-1-2q-7-7-23-4zm270 138l-6 3-1 3-9 2q-6 6-3 22h-2q-6 5-4 18h-2l-4 7 2 9h2l2-9 3-1 3-5 3-1 3-5 3-1 3-5 3-1 3-5 3-1 3-11 3-1 3-11 5-3q-4-6-16-4zm-239 36l-2 11 5 1 1-10-4-2zm296 48l-3 4 1 1 3-1 1-3-2-1zM188 762l-2 5 5 1 1-4-4-2zm269-384l5 1 1 5 5 1v5l-6 1v5h-6v-6h-6l1-6h5l1-6zm-198 49l5 8 1-2 22 33-4 7-1-2-6 5 1 4h-6l-17-12h-15l1-4-10-7-2-12 9-6 3-6 1 2q3-7 17-3l1-5zm-12 17l-4 2-2 3 1 5 16 2v3l6 3v3l5 2 6-2-4-3-4-11-2-1-1-2q-5-6-17-4zm498 0l11 1 1 5 5 1v5l-6 1v5l-6 1v5h-12v-6h-6l1-6h5l1-6h5l1-6zm90 414l11 1 1 5 5 1v17l-6 1v5h-6v-6h-6v-6h-6l1-12h5l1-6zm-642 42l11 1 1 5 5 1v11l-6 1v5l-12 1v5h-6v-6h-6l1-12h5l1-6h5l1-6zm390 6l23 1 1 5 5 1v5l-6 1v5l-18 1v5h-24v-6h-6l1-6h5l1-6h17l1-6z"/></g><path d="M631 24l3 2 4 10 4 4-12 4 2 4 10 4 2 8 14-4 24 16 8 9h1l15 25-10 17-4 1q-8-11-26-10l-1-6-9-5-3-5-4-1-2-5-17-4 6-8-3-2-13 6-2-3 6-7-12-3-1-11-11 10v2l-6-2 16-28 20-1-6-13 7-4zm7 42l-2 5 5 1 1-4-4-2zm32 6l-21 15 9 9h2l-6-10 11-4 7-8-2-2zm-30-48l8 3-1 9-5-2-2-10zm17 0q13 2 18 13l5 11 4-1 2 2-1 3 6 6 3 2-4 1 6 8 24 15h11l10-18 2 1-5 10 12 5 2 2 4-1 2-4 16 5 1-4 11 14v21q-8 21-25 33l-13 2-5-2-3-8 4-3-1-5h-8l-8-21-2 1-13-27-7-1-3-10-12-5-6-13-24-11-1-9-5-2 3-10zm36 0l3 3 2 3-7 3-1-6 3-3zm40 30l5 1-2 5h-4l1-6zM607 78l8 6h-3l-6-3 1-3zm8 30l3 1-2 5h-4l3-6zm33 0l10 6 2 4v14l-15 24-3-11 6-11-5-4 11-14-6-2v-6zm69 12l3 3 12 25q-2 14 5 20h-1l-16-9-5-12-2 1-4-11 8-17zm-36 8l6 5 2 4-14 1-1-2 5-7 2-1zm-452 4l17 2-2 4-4 3-8 9-2 1-5 11-13 7q-1 13-8 20l-11 7q1 13-6 18l-5 3-2 11-6-3v-3h-3l9-8 11-24-4-7 5-9-8-12h-4v-6h-2l51-24zm50 1l11 11-2 1 2 17 4 1-3 5q-18-3-24 6l1 1-25 11 1 1-44 36-1 3-10 8-8 16-6 1 6-17 3-1 5-16v-2l7-5 3-12 11-1 12-21 15-13v-2l20-14 2-6 20-8zm17 17l4 2v4l-4 2-1 3-1-9 2-2zm407 5l5 3-2 4-4-2 1-5zm-40 7l3 3v3l-6-2 3-4zm-368 12l5 4v8l-18 3-2 3-4 2 2 4 2 2 2 8-12 4 2 4 2 2 8 15-15 7-9-18v-7l-12-19 25-16q17 2 24-6zm14 0l3 3v3l-6-2 3-4zm-78 32l7 6 7 21-5-2-1-3-9 7-2 20-3 3q-20-2-26 10l-3 14-5-2q-7-7-5-22l6-11 1 2q9-5 11-17l21-21v-2l6-3zm-59 28l2 1-3 5h-3l4-6zm209 24l8 11-1-1-7-4-2-4 2-2zm79 18l2 6-3 6-8-1 9-11zm-104 30l4 2-2 4-4-2 2-4zm-89 6l9 3-2 3-10-2 3-4zm270 6l3 3-2 3-4-2 3-4zm138 6l3 3-2 3h-4l3-6zm42 12l3 3-2 3h-4l3-6zm-17 18l2 1-3 5h-3l4-6zm-12 12l1 1-8 17h-8l15-18zm-475 6l3 3-1 3-5-1 3-5zm125 6l4 2-2 4-4-2 2-4zm-113 6l9 3-2 3-10-2 3-4zm18 6l45 40-9 2-5-11-26-18-8-10 3-3zm421 0l7 1-14 23h-3l10-24zm-320 6l4 2-2 4-4-2 2-4zm13 12l3 3v8l-3-5-3-1 3-5zm4 12l2 1 8 16-8-5-2-12zm26 0l3 3-2 9-4-2 3-10zm266 1l1 5-6 9-4 2-2-4 6-11 2 1 3-2zm-445 11l8 3-2 3h-10l4-6zm83 6l3 3-1 3-5-1 3-5zm546 0l3 3-8 21-4-2 9-22zm-198 6l3 3q3 12-2 15l-4-2q-3-13 3-16zm-503 7l2 2-6 5 1 4h-7v-1h1l7-9 2-1zm566 2v3l-11 16-1-4h-2l8-10 6-5zm-557 3l17 8 18-2v3l-6 3-10-5-1 2 5 6 12 5-2 4h-34l-6-3v-3l-4 2-2 15 3 1q6-9 24-6l3 7-8 10-10-5-12 6-16-6-2 27-10-3-2 7 4 5 8-1v32l-1-1-4-3-2 1-5-10q3-22-6-32l6-9-3-1-3 2 6-18 1 4 11-1 1-11 5 3 2 3 4-1 7-23h5l-1-6 2-3 6-3zm1 6l-2 5 4 1 2 5 5 1 1-4-3-2-3-4-4-2zm155 6l2 1q6 6 3 22l-4 1-1-24zm519 0l8 1-9 11h-3l4-12zm-706 4v3l-3 4-4 1-1-2 2-1 1 2 5-7zm-20 8l3 1q-10 6-7 24l-3-1-9 12h7l5-3v41l9 16h-3l-11-5 5-1-3-5q-12 2-15-4v-32l15-36 7-7zm92 0l4 1-8 6-1 3-1-4 4-5 2-1zm225 6l3 3-2 3-4-2 3-4zm289 0l2 6-3 6-8-1 9-11zm-526 12l2 1-1 3-4 2h-3l4-5 2-1zm628 0l2 1-5 10-1-4 4-7zm-681 12l14 6 3 10-17 3v-19zm676 1l1 1-6 7-4 2v-1l5-7 4-2zm-583 5l2 1-2 5-4-2 4-4zm176 5v8l-1-1-5-2 3-4 3-1zm-243 1l15 1v11q-13 3-17-3l-1-6 3-3zm599 0l4 3-2 3-4-1 2-5zm-67 2q7 5 5 20l-3 2-3-2 1-20zm-558 9l12 2-1 4q4 8 18 8 2 12-3 17-15 2-20-5l2-1-9-15 1-10zm132 4q8 11 30 9l11 9v7l-8 14q-12 2-16-3l-1-9-5 1v3l-11-31zm436 3l12 1-2 5-7-1-1-4-2-1zm-260 12l9 16-3 2-9-15 3-3zm-54 6l6 1q6 6 3 21l-3 2-8-22 2-2zm107 18l4 2v26l-2 2-4-2 2-28zm138 6l4 2v50l-2 2-4-2 2-52zm140 0l2 1-9 11-1-2 8-10zm-496 6l25 1-3 5h-22v-6zm141 0l3 3-2 3-4-2 3-4zm260 1l1 1-2 4-2 1-8 14-5 2-1-1 13-19 4-2zm-357 5l10 3v3l-12-1 2-5zm143 1l8 6 2 4-8 1-2-11zm-126 5l8 6h-6l-2-6zm266 6l3 3-2 3-4-2 3-4zm-450 6l4 1-2 5-5-2 3-4zm42 12l3 3v3l-6-2 3-4zm21 0l6 4-2 8q-13 3-16-2l12-10zm21 6l3 3v3l-6-2 3-4zm420 0l3 3-12 24-15 9q-7-4 4-9l10-5 10-22zm-402 6l32 20 17 18 6 9 12 9 6 9 13 7 1 3v2l-16-7-36-35-5-10-33-22 3-3zm154 0l23 16v2l-24-15 1-3zm104 12l9 12h-2l-9-10 2-2zm-68 18l9 6 10 10 10 6v2l-10-2-18-17-1-5zm-262 6l15 9-2 3-16-9 3-3zm504 0l3 3-2 3-4-2 3-4zm-203 6l8 3-2 3-5-1-1-5zm137 0l3 3-2 3-4-2 3-4zm85 0l2 1-3 5h-3l4-6zm10 0l10 4v2l-12-2 2-4zm23 0l11 2-1 4-9-1-1-5zm-178 6l3 3v3l-6-2 3-4zm5 6l10 3-2 3-4-1-1-3-3-2zm-340 12l8 3v3l-8-6zm261 0l5 4v2l-6-3 1-3zm104 0l3 3-2 3-4-2 3-4zm-350 6l5 4v2l-6-2 1-4zm110 6l3 3-2 3-4-2 3-4zm-128 7l3 5 8-1v7l-6 2 2 4q12-2 16 4l2 2 4-1 2-3 7-2 6 12h-32l-10-6q-6-8-2-23zm152 17l9 3-8 9-4-2 3-10zm18 0l9 2-1 4-11-2 3-4zm47 0l4 1-2 5-4-1 2-5zm-145 12q9-2 11 4v2l-12-3 1-3zm443 0l8 6h-14v-1l2-3 4-2zm27 6l9 4 1 2-1-1-9-5zm-360 6l3 2v4l-6-2 3-4zm93 0l8 6h-15l3-4 4-2zm164 0l4 1 2 5 4 4v1l-10-4-2-5 2-2zm-342 6l4 2-1 4-5-1 2-5zm95 0l5 4v2l-4-1-1-5zm38 0l7 2 2 7-23 9-11-5 1-7q3 7 16 6l4-3 4-9zm106 0l11 3 2 9h-4l-9-12zm-205 6v3q-3 6-6 1l6-4zm-63 6l9 2-1 4-11-2 3-4zm345 0l2 1-2 3 2 2-8-2 6-4zm-45 6l11 12q-11 3-14-3l3-9zm36 6l14 10 2 8-1-1-10-4-8-10 3-3zm-300 12l3 3-2 3-4-2 3-4zm72 24l3 3-2 3-4-2 3-4zm72 0l3 3v3l-6-2 3-4zm61 6l8 4-2 8-4-2-2-10zm-157 12l3 3-2 9-4-2 3-10zm119 0l4 3-2 3-4-1 2-5zm61 0q6 11 21 15l-2 3q-16-3-22-15l3-3zm24 0l3 2-1 4-5-2 3-4zm-240 6l4 1-2 5-5-2 3-4zm-12 6l3 3-2 3-4-2 3-4zm430 0l5 3-2 3-4-2 1-4zm-357 6q7 5-4 9l-9 3-3-3 16-9zm376 1l10 9h-2l-10-7 2-2zm-554 4v4l-9 3q-6-3 1-6l8-1zm573 7l3 3v3l-6-2 3-4zm-152 12l5 3-2 3-4-2 1-4zm163 1l10 9q-5 6-9-4l-1-5zm-139 5l5 3-2 3-4-2 1-4zm-28 6l3 2 1 4h-4l-3-3 3-3zm36 12l3 3-2 9-4-2 3-10z" fill="#d5d7d0" stroke="#d5d7d0" class="B"/><g fill="#da9dc0" stroke="#da9dc0" class="B"><path d="M634 24l8 4v3l-4-1-2 1-2-7zm13 0l9 1-2 9 2 2h-9l1-9-1-3zm-49 30l2 1q1 10-5 13l-1-10 4-4zm12 6l2 2 2 10 10 2-6 9 1 1-12-6-1 3 5 3h-7l-7-11 3-1 10-12zm60 12l2 2-7 8-5 2v-1l-1-4 11-7zm-16 10l1 3-1 3 6 8h-2l-9-9 5-5zm-62 8q14-2 19 6l-2 1 2 3-4 6-6 2q-2-13-9-18zm57 4l1 3 6 5h-1l-7-3 1-5zm-30 3l5 3-6 17-11 3-1-2 10-16 2-1 1-4zm-4 11l-3 6h4l2-5-3-1zm19 0l14 2-1 4-17 2-3 4-3-2 10-10z"/><path d="M637 120l5 1-1 3-11 4 1 4h-4q-8-5 4-9l6-3zm-91 10v5l-8 3 2-3 5-2 1-3zm-300 2l6 3-2 3h-6l2-4v-2zm391 0l5 2-2 4-4-2 1-4zm-397 10v5l-7 3 7-8zm426 6l1 2 2 1-3 2v-2l-5 7-1-1 6-9zm-377 7l4 1h1l-1 6-5-1 1-6zm462 34l5 9h-2l-3-9zm-469 1l3 14 3 3-2 3h-6l2-6-3-6-3-1 2-5 4-2zm-35 6l6 9-1 3-5-12zm510 3l3 5 2 2-1 4-5-1 1-10zm-585 23l2 1v5l-4 2-5 10h-6l13-18zm109 6l7 3-2 3h-5l1-3-1-3zm-134 6l9 4 1 2h-3l-7-6zm129 0l4 1-11 5 3-4 4-2zm-60 24l4 1-16 8-7 15 1-2q-2-12 4-15l14-7zm-23 21l2 3-4-1 2-2zm163 21l4 2v5l-4-1-2 1 2-7zm-17 72l3 3v4l-4-1-2 1 3-7zm32 1l1 1-3 4h-3l1-3 4-2zm-160 4l4 1h1l-3 6-2-7zm134 13l3 3v4l-4-1-2 1 3-7zm-104 4l7 9-1-1-7-2 1-6zm114 19l3 3 2 3 1-3 1 4-2 1v3l-5-11zm-66 30l4 1h1l-2 6-4-2 1-5zm-129 8l2 1 1 4 1 1-2 4v2 1l-14-7 8-2 2-3 2-1zm44 11l3 1-2 4-1-2-5 7-2-4 3-4 4-2zm93 0l3 3 2 3-2 1v9l-6-13 3-3zm4 29l4 1h1l-2 6-4-2 1-5zm-118 13l3 1-5 8-1-3h-2l2-4 3-2zm84 24h6l18 19 3 7-5-5q-6-5-19-3l-21-11q13 1 18-7zm-99 13v26q-7 3-6 16 10 6 6 27l-5 7-1-17q-8-7-6-24l4-6 2-1-1-4 3-17 3-1-2-1 3-5zm292 17l2 1-3 11h-4l5-12zm-166 4v3l-5 10-1-5 6-8zm471 14l3 3-6 5v-2h-2l5-6zm-98 12l5 3-2 3h-6l3-6zm-497 42l5 3 1 3-2 1v1l-6-3 2-5zm3 42l9 6h-2l-7-6zm115 108l6 3-2 3h-5l1-4v-2zm80 48l4 3-2 3-4-1 2-5zm149 6l5 4v4l-5-8zm-40 12l4 1-1 4 1 1-7-2 3-4zm93 0l6 3-2 3h-5l1-4v-2zm-345 12l3 3-2 3h-4l3-6zm-17 6l2 5-7 1 5-6zm-22 12v3l-5 2-1-1 6-4zm433 0l5 3v3l-6-3 1-3zm11 24l6 3-2 3-4-1v-5z"/></g><path d="M663 24q12-3 15 3v3l-6 1v1l-9-8zm-20 11l9 3 2 3 1 1-12 2-2-2 1-3-1-3 2-1zm36 4l2 3-4-1 2-2zm-89 39l12 6h-2l-10-6zm44 0q6 4-4 9l1 3h-1l-11-5 15-7zm-64 12q17-4 21 6l4 18 8 1-14 5-2-12-5 1v7l-1-2-5-3-1-3-5 2-1 2-4 2 3 1-3 1-1-2-17 9-1-15 4-6 2 1 1 11 11-3v-3h-6l10-17 2-1zm-4 6l-2 6h5l1-4-4-2zm47 0l5 2-5 9-1-5h-2l3-6zm12 3l16 9q-14-2-17 9l2 3 4-2 1 2 5-2-1 2v1l-11 8 2 3 10 4 2 2 4-1 1-5 5 3q-8 4-6 17l-12-3 3-5h3l-7-10-11-3v-11l-6 4-1 8-11-1q1-12 9-17l-3 4 1 2q12 1 15-7l3-14zm25 15l4 3-5 3-1-4 2-2zm-295 6l10 6 3 4 4 2 1-3 17 6-2 3h-10l-23-11-1-3 1-4zm179 0v6h-5l-1-2 6-4zm-282 12l6 2-2 4-15 14-1-2h-2l6-12 8-1v-5zm37 12l5 4-2 8-4-2 1-10zm408 7l6 11h-1l-5-3v-8zm-390 2l5 5-2 4-4-2 1-7zm378 19l5 8h-2l-3-8zm-386 2l7 1 1 5-1 7-4-2-3-11zm502 0l3 3-1 3-5-1 3-5zm-509 12l8 4v5l-2-3h1l-7-6zm-9 9l5 10-1-1-3-1-1-8zm-30 11l5 13-3-2-4-7 2-4zm35 3v2l-4 10 4 8-1-1-4-2-2 1-2-4 3-1 3-12 3-1zm-47 10l5 14h-1l-4-14zm-102 12l11 7v2l-5 1-7-3 1-7zm90 12l5 5-1 4-3 2-1 3v-14zm-7 15l5 1-15 5v-1l10-5zm163 33l2 3-2 1 5 3-1 8-5-1 1-14zm6 21l9 8 2 11-9 11-3-2 1-28zm-17 48l4 2-2 4h-4l2-6zm-7 14l-1 2 1 2 5-2v5l-8 3-4-6h2l5-4zm-144 51l4 1h1l-1 6-5-1 1-6zm-11 1l4 2v5l-8-1 4-6zm12 30l10 4v2l-6 1-6-2 2-5zm-109 5l5 4-6 3v-1l1-6zm113 6l11 2-33 13-7 7-1-3-11 8-1-2-4 2-2 4h3l3-2-5 7-1-4-5 8-1-2 12-21 1 2 5-3 1 3 10-5-2-1 3-5 1 5 22-11 1-2zm-26 1l5 1-8 7-1-2 4-6zm-76 4l1 2 5-1-1 2-4 9-1-4-5 1-1-1 6-8zm66 29l1 3 2 1-8 5 2 1-2 4-2-4 7-10zm102 7l1 8 4 1-10 5-1-6 6-8zm-177 2l3 3v36l-2-3h1l-5-3v-30l3-3zm126 6l4 1-1 2 6 7-6 7v2 4q-8-6-6-20l3-3zm-78 6l3 3v4l-4-1-2 1 3-7zm303 12v13l-1-1-4 1-1-9 6-4zm-308 12l2 1-5 14-1-9 4-6zm-44 6l4 2h1q6 3 5 15h-1l-2-5-3 1v4l-6-15 2-2zm257 7l5 14-3-2-2-12zm-114 1l5 15h-1l-4-15zm192 9l8 1h1l-5 6-5-1 1-6zm-348 2l5 13-4-3-1-10zm24 4l4 1h1v7l-4-1-2 1 1-8zm-12 5l5 8h-2l-3-8zm264 1l4 1h1l-3 6-3-1 1-6zm213 20l7 5v1l-9-1-2 1 2-5 2-1zm-428 23l4 2-1 4-4 3-1-7 2-2zm5 12l9 8 1 4h-2l-8-12zm479 18l1 1-1 4v2l-2-1-4 3 2-7 4-2zm-475 5l5 3 2 3 1-2 2 3-3 1v4l-5-8-6-2 4-2zm14 1l5 3v6l-5-2-1-3 1-4zm463 186l4 3-5 3-1-4 2-2zm-66 6l4 2v4l-6-1 2-5zm101 0l5 2-1 4-5-2 1-4zm102 27l8 9-1 1h-2v1l-7-8h1l1-3z" fill="#bb4878" stroke="#bb4878" class="B"/><g fill="#c60d42" stroke="#c60d42" class="B"><path d="M677 24l14 1-4 17-8-3-2 1-5-9 6-1-1-6zm-38 6l3 3v3l-6-2 3-4zm63 0h6l20 12-14 2-8 10 1 1-10 5-10-6-1-4 16-18v-2zm-10 18l-2 5 5 1 1-5-4-1zm-40-12l8 3-2 3-5-1-1-5zm71 18l3 3-2 3-4-2 3-4zm-113 48l2 1-12 28 11 1 5-12 2 1 2 11q12 1 16 10v2l-6 3 1 3h-13l-27-16v-2l-13 5-2-11 7-18 5 2 1 10 14-5 7-13zm22 0l10 3 1-2 2 5h-3l-10-6zm-287 12l11 6-2 1 2 5h-2l-12-9 3-3zm219 0l-1 2-4 6-1-2h-2l8-6zm69 0l3 3-2 3h-4l3-6zm-354 12l3 3 2 3h-11v-1l3-1 3-4zm-21 6l11 1-10 5 3 1-3 1-1-2h-2l2-4v-2zm479 0l7 3-2 3h-4l-1-6zm-64 5l11 5q0 19-13 24l-2 1-4-5h-5l4-6 7-3 1-8-2-1 3-7zm20 1l3 3 1 9-1 7 4 4q14-1 18 9l2 10-3 6q-14-2-19 5l-1-1 3-4 2-1-1-5-3-1-2-17h-6v-21l3-3zm-386 10l5 9-1-1-5-3 1-5zm-75 2l8 1-9 11h-3l4-12zm287 12l9 3-2 3-10-2 3-4zm-12 6l3 3-2 3h-4l3-6zm-189 6l15 13 15 32h1l22 31-5 9 10 16 8 5 6 17-1-1-4-1 2-1-13-7-13-20-6-2 2-1-44-18h-13l-11 6-43 12-27 18 2 1-12 9-20 8-3 11 4 1 17-12q5 2 3 13l-7 9-5 2-6-3-1-3-5 2q2 15-6 22v24l-6-3-6-29 12-5-1-17-9 6-2-8 12-5-1-5-3-1-3-11h-5q10-8 13-24l2 1 11 23 4-1 7-20 17-6 2 9 7-5 3-6 1 2 5-4-1-5-5 2-1 2-6 2 1-2 1 1 3-5 2-1-1-5-5-3 10-15 4 12 2-1 2-11-6-9-2-14 2-1 3-6 4 3 18 39-1 5 17 1 1-5-10-1 16-7-4-15 4-14-6-14 9-4 8 6-2 1 5 5 2-1 3-17 5 4 2 2 4-1v-11zm-4 60l-2 5 11 1 1-4-10-2zm-112 72l-4 5 5 1 1-4-2-2zm515-108l3 3-2 9-4-2 3-10zm18 12l3 3-2 9-4-2 3-10zm-6 18l3 3-2 3-4-2 3-4zm-590 10l5 3-2 5-4-2 1-6zm32 14l3 3 1 3-2 6-5-2 3-10zm598 12l5 4v4l-5-8zm-16 12l3 3v3l-6-2 3-4zm-407 12q11-3 14 4 8 8 6 27l-6 11q3 21-6 30v25l8 23 11 10 4 1q3-9 7-2l-6 10 6 17-6 10 18 18v9l12 26q6 5 20 3l14-12 5-12q12 8 17 24 11 2 14-6l2 7-11 28-1-5-5 3-1-3-15 12-3 7 4 5 2 1-2 5q-10-5-11-18h-16l5-3-1-3-8 6q-6 8-3 27l-3 3-8 4-4 8h-3l-2-6-4 7 4 4 8 1h2l4-1-1-4 6-1 1 4-7 14q-12 2-16-3l-2-9-5 2q0 10 8 14l10 4 4 9 3 1q7-10 23-12l-1-4-17-10 2-4 14 2 8 17-12 18 12 17-6 1 8 11h-2q-14-18-36-27l-3-8-15-4-1-9h-11l-35-17 5-1-7-18-11-1-1-11-10-3-6-11 11-16-11-15-13-3-1-12-3-1-8-28 6-10-30-43-17-7 2-1-38-23 2-1-7-7-7-21 8 4 9-6 18-1-1-5-15-1-2-7q7-8 25-4l4-3 5-14 17-1 10 6 4-3 5-9q18 2 23-11l15 7 8 22 4-1 16-47zm10 6l-2 17 5 1 1-16-4-2zm-12 42l-2 11 3 1 9-10-10-2zm-102 24l-2 5 23 1 1-4-22-2zm-30 12l-2 11 4 1 2-10-4-2zm126 0l-2 17 5 1 1-16-4-2zm-114 12l-2 5 11 1 1-4-10-2zm18 6l-2 11 12 4 22 17 2 9 11 1 1-3-46-39zm60 0l-2 2v23l18 35v6h3l3 5-2 1-4-6-6 3 18 21v13l8 17 16-1-48-117-4-2zm42 0l-2 11 5 1 1-10-4-2zm12 18l-2 2q2 18 14 28h-1l-1 5 3 1 3-5-12-29-4-2zm-66 30l-2 11 5 1 1-10-4-2zm6 24l-2 2 6 17 2 17 4-1q5-25-6-33l-4-2zm91 54l-9 11 4 1 2 5 5 1 1-16-3-2zm-67 30l-2 11 5 1 1-10-4-2zm40 0l-4 2-14 15q21 0 29 13l2-11 5 9v3l-4-1-2 29 6 1 1-19 2 1 3-5 1 2 5-8q3-19-7-25l-10 2-1-4-12-4zm25-241l4 1h1l2 6-2 1v4l-5-12zm5 20v13l-2-2-4-2 6-9zm-8 17l8 4v3l-4-1-2 5v2 1l-6-10 4-4zm-10 12l11 9-10 14-1-5-10 6-2-6 8-16 4-2zm2 6l-2 6h4l2-4-4-2zm-191 24l3 3 5 14-1-1-7-4-3-9 3-3zm51 30l6 4q3 19-8 25l-9-4 2-1-3-6h2l4-1 5 1 1-4-4-2-2 1-1-6 3-5 4-2zm-23 6l5 1v6l-4-1-2 1 1-7zm507 0l2 6-9 12-3-6 10-12zm-12 18l2 7-1-1-4 1v-1l3-6zm-547 6l8 6h-12l1-2 3-4zm-32 6l1 1-4 11-4-2-1-3 2-4 6-3zm108 10l5 5-2 3h-10l1-6h5l1-2zm-19 2l6 4 1 2 4 1-22 11-1-6h-2q3-8 14-7v-5zm225 6l3 3-2 9-4-2 3-10zm243 4v3l-11 16-5 3-14 28v47l7 1q6-8 24-6l15-13 20-28 12-9-11 18-4 2-6 24-8 4-4 8-14 6-25 2q2 8-3 10h-3v-6l-10-7-7-20 5-8q-3-23 6-33l36-42zm-562 8l4 1-2 5-4-2 2-4zm71 0l1 1-7 5-1-2 7-4zm29 0l2 1-9 5 3-4 4-2zm468 1v6l-5 10-1-5 6-11zm-441 5l3 3v4l-4-1-2 1 3-7zm24 0l3 3 6 20h-1l-11-20 3-3zm-63 4v3l-3 4-6 1v-1l9-7zm-26 2l2 1-3 5h-3l4-6zm14 9v4l-3 5h-8l8-5-2-1 5-3zm-20 3l1 1-6 9-3 1 1-4 3-6 1 2 3-3zm38 6l7 2 3-2 2 4-8 2v-1l1-3-1-1-10 8 1 3h-5l-2-2 3-4h-2l11-6zm-30 1v6l-5 10-1-5 6-11zm51 5l5 1-2 7-6-4 3-4zm-73 12l4 2-2 4-4-2 2-4zm28 0h31l10 6-2 1 27 38 6 3 1-2 1 3 10 5 1-3 10 3 7-11 2 11 10 2-1 4h-29l-27-17-17-30-16 7-1 10q-14-2-20-11l-15 23v8q-8-6-7-20l-4 1-1-6 10-19 14-6zm89 6l17 8 2 11-5 7q-1-20-14-26zm-34 7l5 16h-1l-4-16zm221 12v18l-9 17-9-3 1-10 4 1 13-23zm-244 17l10 9v3l-9 6q-6-3 0-5l2-6-5-3 2-4zm-145 6l8 6h-2l-7-3 1-3zm49 6l4 2v5l-6-3 2-4zm53 1l8 11 6 6 3 9-10 3-2-3 6-7-2-2-10 9v-3l-4-1-2-5 4-6h2l1-11zm144 3l1 3 6 5h-2l-11-5 5-1 1-2zm-156 31l5 5 2 2 4-1 2 7 4 3v5l-5-2-1 5-11-24zm420 0l4 1h1l-2 6-4-2 1-5zm-432 20l5 13-4-3-1-10zm34 5l19 12h19l30 15 20 21 9 18v9l-13 3 4-5 3-11-4-2-5 11-15 2 2 5h-2l-23-11-2-5-32-2-3-2 3-4 9-1-1-5-10-3-1-2 6-2-1-5-18-6 2-8 1 3 4 2 1-2 7 9 17 2 4-3 1-7-15-7 3-1-1-4-18-14zm39 18l-2 11 5 1 5-6 2 6-16 8-2 4 13 1-1 4q15 2 23 13l1-2-16-15v-1l16 6 6-1-3-11-20-15-11-3zm36 30l-2 5 11 1 1-4-10-2zm-75-36l9 6h-2l-7-6zm455 6l2 2 6 13 5 3-15 2-25 25-23 5-3 8-6 2 4-5 5-17 10-3-1-4q16 2 22-6l2-4h1l12-20 1 2 3-3zm-201 4l16 14h-5l-10-5-1-9zm289 8q12-2 16 4v5l-16-9zm-409 6l5 4v2l-4-1-1-5zm-148 12l8 6-2 1 3 4-6 1v-1l-1-5h-7l5-6zm166 0l11 10-2 1-7-4-2-7zm129 0l13 6-2 1 8 5h-5l-11-5-3-7zm238 0l27 1-17 5-10-6zm-216 12q20-4 28 6h24l3-5 17 17h-14q-11-10-36-6l-22-12zm179 10q13 12 42 8l28 18h-5l-29-12h-13l-24-8 1-6zm-444 14l11 9v2l-12-7 1-4zm40 24l22 12h-9l-13-12zm403 0q24-4 35 6h-35l-5 4-1 5 5 3h-5l-5-3-1-3 6-9 6-3zm38 6l12 1-4 5-4-1-1-3-3-2zm-35 6l26 12 3-4 3-1 1 5-6 2 1 4h-1q-6-8-20-6l-4 6 6 3v3l-18 6-11-5q15 1 20-6l3-7-5-10 2-2z"/><path d="M331 768l5 1-6 12 3 5-3 1 2 5 10 1 2 3 8 4 4 10 10-1-17-20 2-3h-2l23-12h13l10 6h-5l-8-5-22 9 2 8q24 4 35-6l17 12v-2l-17-15 4-1-13-11 3-1 29 18h19l28-12v1l-34 17h-7l-11-6v2l5 7q7 6 25 3l4-3 3-7 32-13q5 7 19 6-9 8-29 5l-12 10 2 2 17 6q9-10 34-6l3 12q20-2 25 12l3 13 8 9 11 3-1 4 7 2-1 4 1 1-7 1-22-13-2 4q5 13 23 14h1l-1 4-5 2-11-9-2 1-12-16 1-4q-4-9-17-8l-1 2-15-12v-2h-9l-2-6-4 2v29l-10-1h-2q-18 4-24-3l-1-9h-60l1-4-4-2-2 5v2l-1 3-19 2-9-15-6-2 2-1-8-6h-25l-6-3 1-4 4 1 1-4-4-2-2 1-1-5-4-1 11-1 6-10-6-2-6 4v2l-6 1v2l-5-2 4-1-5-3-1-3-4 1-1-2-1-4 2-4q5 5 18 3l7-5 1-2 10-5zm72 12l-1 3 6 3v-2l-5-4zm-42 48l-1 4 11 2 1-4-11-2zm97 0l-2 5 3 1 3 5 5 1 1-4-2-2-4-4-4-2zm-104-60l2 1-11 16-3 1v-1l8-15 4-2zm161 0h8l28 12-5 1 4 4 14 7v-3l-7-9 5 2 8 13q8 6 26 4-3 6-14 5l-11-6v2l5 7q9 7 31 3l10 6h-5l-10-4-14 4-42-19-3-10q-22 2-32-6l23-1-1-4q-14 0-18-8zm127 0l17 12-11 1 2 5-8 2 8 8 14 7q3-6 15-5l23 12h31q9 9 29 8l-6 9 11 1 2-12 16 7-11 19 21 29 9 18v7l-6-6-4-1-8-10-1-3-4 1-7-1-6-10-19-2 1-4-5-2-1 2-10-8-27-6-17 12v-1l-1-5-5 1v1l-16-7-2-4 2-3q11-1 16-8l-1-4q-24-5-32 6l-8 17-1-5-36-20 2-4 15 6 1-8-2-4h2l-2-5 14-2q2-21-11-26l17-15zm-3 6l-9 11 6 1 6-11-3-1zm-2 18l-1 4 6 2v-2l-5-4zm2 18l-3 6h5l1-5-3-1zm-372-30l4 1-1 4 1 1-7-2 3-4zm287 42l4 2-1 4-5-1 2-5zm18 6l19 18 5 12 13 6 4 7-7-5-31-8 1-5v-2l-1-5-5-2 2-16zm12 24l-2 5 6 1v-4l-4-2zm-245 6q15-3 21 4v13l-7-9-4-2-1 2-12-4 3-4zm-93 6l14 12-14 1v1l-12-4 12-10zm297 0l3 3-2 3-4-2 3-4zm30 0l3 3-2 3-4-2 3-4zm-171 6l14 12-2 1-1 3-10 3-19-3 18-16zm229 23l4 1h1v7l-10-1-2 1 4-7 3-1zm24 6l4 1h1l-1 6-5-1 1-6zm-19 6v9l-8-7 8-2zm31 5l5 5-2 3-3 2v-10zm-24 2l14 12h-3l-11-5-1-3 1-4z"/></g><path d="M623 28l1 1 6 12-6 1v-1l-1-5h-11l1-3 10-5zm-25 14l11 1-8 14-1-3h-6q-2-10 4-12zm53 0l3 2 3 4h-6l-3-3 3-3zm10 3l1 1h-1v-1zm3 1l5 4-1-1-4-3zm7 4l3 2h-1l-2-2zm5 2l5 4-1-1-4-3zm7 4l4 4 6 12-3 1v2l-5-2 4-1-5-3V57l-1-1zm104 38q9 5 11 18l-10 10q-3 25-19 37l-17 9-13-27h1l4 7 4 2 13-2 17-17q11-12 9-37zm-66 8l5 10 3 2 3 10h-1l-4-10h-2l-4-12zm-62 11l6 1h2l2 1-8 15q2-12-4-15l2-2zm25 6l3 3-1-1-2-2zm5 3l4 3h-1l-3-3zm-413 10l12 3 18 13v14l-11 1-1-2h1l3-5h2l-1-6-4 1-3-7-13-11-13 5v-1l10-5zm451 4l5 11-3-2-2-9zm-18 1v2h-1l1-2zm-451 5v3l-3 4-6 1v-1l9-7zm457 5l5 11-3-2-4-7 2-2zm-10 3l3 3v4l-6-2 3-5zm21 11l3 3-1-1-2-2zm-31 2v2l-2 3-3 2 2 4 2 2 2 5-1-1-5-2-4-7 5-6 4-2zm36 1l6 4h1l-1 6-5-1v-8l-1-1zm-455 4l4 1-11 6 1-4 6-3zm-24 12l4 1-11 6 1-4 6-3zm499 0l5 1v13q-9-3-5-14zm-450 2l2 4 3 3-2 3-4-2v-2l-4-1 4-1 1-4zm-102 9l2 2-3 13-1-2-4 2-1-8 4-5 3-2zm24 12l-1 2-8 5 3-4 6-3zm-37 10l-3 4v1l-1-1 4-4zm3 3v2h-1l1-2zm-7 3l-1 2v1l-1-1 2-2zm6 0l-1 2v1l-1-1 2-2zm-13 6l5 3h2l4-1v2l-3 5-8 3-1-3-4 2-2 4 3 1-6 17h-3v-12l-12-8 4 2 12-1 6-11h2l1-3zm23 0l-1 4-10 13-1-2 12-15zm6 7v3l-5 8-1-2 6-9zm-14 14l5 1-3 2v-2l-5 10-1-7 4-4zm562 13l8 5 2 4-1 2-6-2-3-9zm-65 53l3 3-2 3-4-2 3-4zm19 36l1 1-4 7-1-2h-4l8-6zm-493 66l3 3-2 3-4-2 3-4zm435 7l2 1 2-1v1l-3 1-1-2zm-540 53v2l-2 1 2-3zm-2 4v2h-1l1-2zm703 15l-1 2-9 17-3-4 2-1 1 2 5-10-2-1 7-5zm-68 29l4 1-1 4 1 1-7-2 3-4zm-644 1l5 15h-1l-4-15zm24 20l8 15-3 1v1q-8-5-5-17zm-30 9l5 10 1-2 5 15h-1l-10-23zm12 0l5 10 4 2 2 2-2 4-4-2-5-16zm-30 3l16 7 1 2-17 1v-10zm410 9l3 3v10l-4-1-2 1 3-13zm138 0l3 3v16l-4-1-2 1q-4-15 3-19zm-180 12l3 3-1 3-5-1 3-5zm-332 8l4 10h-5l-11-5 11-1 1-4zm26 10l3 2 1 4-6 1-1-4 3-3zm11 18l4 3v4l-7-1 3-6zm-65 12l3 3-2 3-4-2 3-4zm430 34l5 7h-1l-7-4 2-1 1-2zm-42 17l5 8 1 1h-3l-3-9zm84 13l3 2-3 1 5 3 1 2-1-1-8-4 2-1 1-2zm-310 92l3 1-2 5-4-2 3-4zm180 60l3 3-2 3-4-2 3-4zm-91 12l4 3-2 3h-5l3-6z" fill="#90b5ce" stroke="#90b5ce" class="B"/><path d="M697 30l5 3-17 15-1-2 7-13 6-3zm20 12l3 3 1 3h5l-3-5 3-1 6 4 2 6 3 2-5 1 1 5 4 1-5 3-3 7-26 1-10-6-2-5 22-10 4-9zm5 12l-2 5 5 1 1-4-4-2zm19 0q21 3 30 19l3 11h-5l-24-9-4-15h-3l3-6zM178 156l2 1 1 5 8 7 2 7-5 8 4 7-13 25-8 4-9 14q-16-2-22-14l15-39 25-25zm17 294l3 3-3 9-9 2 2 4 10 1-5 8-12 6-4 15-8 3-1 3 3 1-3 11-24 8 3 9 15 4v3l-4 2-1 3-7 4-5-12-25-5 3-4 15-1q2-12-3-16l-15-3-1-9h2l17 6 2 5 2-1 3-10 9 5 8-10 4-3 2-9v-2l12-1v-17h-3l18-12zm-78 6l3 3v3l-6-2 3-4zm15 6l6 1v5l-4-1-1-4-1-1zm15 0l3 3v3l-6-2 3-4zm17 1l11 6-1 4 1 1-10-6-1-5zm-46 5l2 1-5 10-1-7 4-4zm124 0h8l13 12h-14l-9-10 2-2zm446 0l2 1v11l-9 18-3 2 2 4 4 3q-9 11-6 34l-4-1-2 5 11 1 2-9 4 3-2 1q6 2 3 14l-3 3h-21l-9 6-3-2v-19q10-7 6-27l28-48zm-552 6l2 1 1 3 23 5v3h-24l-1-6-4 1v-1l3-6zm90 0l8 1-2 5h-15l5-3 1 2 3-5zm-115 6l4 2 2 4-3 1-2-1-4 5 4 3 1 3-10 1-1-9 6-8 3-1zm-23 24l2 9-11 3-1-2 10-10zm12 6l2 1-5 7-1-4 4-4zm288 6l2 4-5 3-1-3 4-4zm-219 6l5 1-1 5-5-1 1-5zm550 1l-1 2-7 9h-3l7-9 4-2zm-616 4l11 3-2 4h-7l-2-7zm282 0l5 4-2 3-4-2 1-5zm-150 25l3 2 1 3h-1l-4-2 1-3zm3 6l2 1v2l-2-3zm-111 1q6 7 21 5l2-4v34h-6l-5-3-1 2-6-14 6-4-1-5h-8l-2-11zm-52 5h9l15 7 3 11h-6l-24-14 3-4zm160 6l11 3 3 3 3 3v8l-11-7-2 1-4-11zm-31 6l5 4 9 12q19 2 28 14h43q10 10 36 6l24 15 13 13 35 20 4-2-30-32-22-13-2-5-28-14h-12l11-6 28 12 4 4 27 10 37 25 22 21 2 4v4l-11-8-1 3 7 6 18 19 11 2 1-3 5 9-6 2 2 4 10 3 3 3h3l1-6h9l20 12h28l8 6q13-3 18 4l2 2 13-6h11l8-6h9q20-7 32-23l3-6 3-1h35l4-2 3-4 3 1 1 5 5-2 3-4 3 1 1 5h-7l-22 14-2 21q23 14 55 19l17 10-2 8q-12 1-14-6h-41l-9-6-41 24-13 2 1 4 5-3v6l-12 6 2 3q8-2 10 4l6 11v7l-3 2-5-11-14-7-2 6h-20l-14-12-2 10 2 2-11-6-10-24-11 1 8 11h-1l-24-12h-33l-11-6-26 12 1 1-13 5v-1l3-1 6-9-16-1-4 10-9 2-11-6-2 4 2 2-14-3 1-3h5l-2-6-14-6-2 5 1 1-19-6-12 6v-1l-1-5-5 2-2 5-4 2-5 8-1-5-6 3 2 3 4 1-1 4-9-6 4-9 3-1 3-11-4-2-5 12-37-1-2-4 6-1-5-11h-3l2-1-1-6-11 4 1 2-1 3-5-2-3-7 8-3-1-3q-13-2-17 4v2l-19-6 1-3-9-14-12-1 4-6h5l-2-5 2-1 6 4 4 7 24 1 9 6 7-5 1-2 6-4 3-7-21-35-9-4-3-8-14-6-8-11-16-7 5-1-1-6-5 2v4l-12-8 1-4 35-1-1-5-23-6-24-14-2-4-4-2 6-13 6-3zm104 42l-2 2 28 30 5 11 30 29 6-5 12 11 3-1-3-11-12-6-6-18-20-21-41-21zm-36 12l-2 5 5 1 1-4-4-2zm-30 6l-2 4 34 22 4 10 35 34 22 8 1-4-21-10-5-9-13-9-5-9-16-17-34-20zm42 0l-2 3 18 17 2-2-18-18zm113 0l6 15 5 3 1-3 11 3v-3l-23-15zm-95 19l4 16 11 3q7 4 7 15l9 1q5 2 3 11l35 13 1-10-17-2-1-10-20-8-32-29zm108 5l-2 3 11 9 1-2-10-10zm-72 54l-2 5 5 1 1-4-4-2zm316 6l-6 3-24 30 2 3 11-3q5-13 22-15l1-16-6-2zm-234 12l-4 2-2 3 17 7 1-3 5-3 1-4-18-2zm196 0l-20 8-13 10q-22-3-30 6h-31q-8-9-28-6l-2 5q16-1 24 7h55l20-12 14-2 13-14-2-2zm-272 6l-2 5 11 1 1-4-10-2zm18 0l-2 2 2 10 7-1 3-9-10-2zm18 0l-2 5 17 1 1-4-16-2zm24 0l-2 5 11 1 1-4-10-2zm46 0l-4 2-2 3q16-1 24 7h11l1-4-30-8zm-136 6l-2 5 17 1 1-4-16-2zM135 600l3 2v4l-6-2 3-4zm28 42l3 2 8 12h1l2 4h-2l-10-6-2-12zm488 12l3 3-2 3-4-2 3-4zm59 18q16-3 21 6l-5 1v4l-3-5-15-1 2-5zm17 12l11 1-1 3-8 2-2-6zm-538 18h19l14 10q3 11-2 14l-9-5-2-5-23-10 3-4zm34 25l5 8 16 4-4 2-2 3-4-2v-2l-18-4 3-4h3l1-5zm525 23l20 9-2 3-4-2v-2l-14-8zM255 876l9 3-2 3-10-2 3-4zm150 12q31-4 45 9l-2 3-14-6h-29l-3-2 3-4z" fill="#f3de3c" stroke="#f3de3c" class="B"/><path d="M612 34l1 2 11 3-2 3h-24l14-8zm34 8l3 1-1 4v2l1 5h-3l-10-7 3 1h3l4-6zm39 27l4 3-4 1 5 3v4l-8-7 2-2 1-2zM564 84l3 1-8 5 2 1-3 2v-3h-5l11-6zm44 0l10 2-1 4-5-1-1-3-3-2zm95 10l5 10-3-2-2-8zm-83 2l12 6h-2l-10-6zm41 10l5 5-2 3-4-1-1-3-4-1 5-1 1-2zm-322 8l4 1-1 5-6-2 3-4zm460 2l5 11v36l-1-1-5 2 1 4 5-1v8l-1-1-5 2-1 14-10 2-1-3 6-4-1-5-5-2v-10h-3l20-33q-7-6-4-19zm-66 35l5 16h-1l-4-16zm-420 3l7 8-2 1-7-1 2-8zm432 3l7 21 3 2-5 1v4q-9-9-5-28zm-142 5l3 3-2 3-4-2 3-4zm-295 6l4 2v5l-4-1h-2-2l4-6zm-86 3v4l-5 7-1-2h-3l3-5 1 2 4-2-4-1 5-3zm-12 11l1 4 1 1-4 11-9-1 2-4v-2l7-5 2-4zm12 25l1 3 1 1-14 13v-2l-11 8-1-1 16-19 8-3zm-44 28l2 2-5 13-1-4-5 2-1-2 8-10 2-1zm20 3v5l-11 6 1-4 10-7zm-51 2l15 15 1 3 1 1-2 8-12-5-1-16h-5l3-6zm294 12l3 3-1 9-5-1 3-11zm-270 36l3 3-3 15 1 1-8 5-2-5 6-2q-3-13 3-17zm36 114l9 13-1-1-4 1-6-11 2-2zm-1 36l9 1-9 5-2-4 2-2zm64 42l10 2 2 13-1-1-4-1 2-1-4-6h-6l1-4v-2zm-168 5v2l-5 10-1-5 4-6 2-1zm-11 24l4 1h1v19l-4-1-2 1 1-20zm197 4v7l-1 3-7 5 2-3-1-7-4-1 11-4zM91 541l5 16h-1l-4-16zm30 40l4 1h1v11l-8-10 3-2zm-48 4q12 15 35 21h11v-2l-8-9 4-2 4 1h1q-4 18 8 22l3 2-5 1v4l-17-11h-7l-16-8-7-7-2 1-4-13zm521 15l6 3v4l-1-2-5-2v-3zm-461 13l5 11-1-1-5-2 1-8zm16 5l2 2q7 6 5 21h-1l-6-23zm331 60l6 3-2 3h-5l1-4v-2zm15 0l3 3-2 3-4-2 3-4z" fill="#5f5ba1" stroke="#5f5ba1" class="B"/><path d="M660 41l1 5 23 12v13l-7-15-23-11-1-2 7-2zm-27 1l4 1-1 4 1 1-7-2 3-4zm88 62l5 10 1 1-5-2-1-9zm77 8q-2 16 5 24l-20 32q-20-2-24 12l-2 5-2-6-5-2v-9l-12-28 3-2-2 3 13 27 25-17 11-29 10-10zm-34 50l-2 5 5 1 1-5-4-1zm-94-48l3 1-6 7-1-2 4-6zm13 5l9 7h-2l-8-5 1-2zm42 42l7 5 2 8 4-1v7h-2l-7-11 2-1-7-5 1-2zm-29 3v15h-1l-2-5-3-1 2-5 2-1 2-3zm-11 14l5 2 1-2 5 4-1 4-9-1-1-7zm-462 26l1 1-9 5 2-3 6-3zm-37 10l1 2 1 1-2 6-4-1-2 1 6-9zm-35 24l11 9v7l-13-14h1l1-2zm35 16v14h-1l-1-4-4-2 3-4h1l2-4zm570 14l5 2h1l-1 6-5-1v-7zm-593 2l5 3-2 3-4-2 1-4zm368 6l3 2-1 4-5-2 3-4zm-80 10l1 2 6 1-4 5-4-2 1-6zm14 8l3 3-2 3-4-2 3-4zm-200 23l10 2-5 3-1 2-5-2 1-5zm302 25l3 3-2 3-4-2 3-4zm72 12l3 3-2 3-4-2 3-4zm57 4l1 2 1 1-8 7v-2h-2l8-8zm-24 24l1 2 2 1-2 4-1-4-3 5h-5l8-8zm-18 27l1 6-1 6-5 1v-3l5-10zm-20 59l2 13-3 5h-3q-2-13 4-18zm-526 4v2l-3 6-4-5 7-3zm708 3l1 5 1 1-3 5-5-1 6-10zm-413 11l6 1-1 4 1 1-5-1-1-5zm-106 42q12-3 15 3l-2 3q-13 3-16-2l3-4zM91 547l6 13-1 2-5-15zm12 7l5 15h-1l-4-15zm-30 25q2 6 15 3l30 20 1 4h-11q-23-6-36-21l1-6zm366 2l4 1h1l8 12-2 1v4l-11-18zm75 79l14 9-2 3-12-5 2-3-2-4zm-50 7l15 11h-7l-4-2v1l-4-10zm94 28l5 1h1l-2 6-4-2-2-3 2-2zm19 12l4 1h1l-2 6-4-2 1-5zm-323 73l4 3-2 3h-7l3-5 2-1z" fill="#588acf" stroke="#588acf" class="B"/><path d="M639 42l3 1v5l-6-2 3-4zm10 6l5 3-2 3-4-2 1-4zm-85 28l1 2h21l2 3v3q-26-4-37 6l13-14zm34 8l6 2 2 3 1-2 4 3h-8l-5-6zm-22 43l1 10 1 1h-6l-2-2 6-9zm149 5l5 2 2 4h-2l-5-6zm-126 5l18 13h-5l-17-11 4-2zm-62 1l-3 4v11l-6-3-10 8-2 9 1 1-7 1-6-1-6 4 2 2 4-1 3 2-3 4 2 1-8 1-4-1-2 5 1 1-7 1-4-1-2 6 2 1-8 6-4-1-3 12-5-1q3-22 18-32l33-20 3-6-2-1-4 3 2-4 25-11zm196 9l9 14 1 1 1 5-5 4-6-24zm-232 3l3 3 1 3-12 5-1-5h2l4-1 3-5zm183 1v6l-3 5h-5l8-11zm-369 11l3 3 2 3h-6l-2-3 3-3zm429 9l6 18-7-4-5-9 6-5zm-419 1l5 10-5-5-6-2 5-1 1-2zm143 2l3 1-9 8v-3h-2l8-6zm-254 6l2 1-3 5h-2l3-6zm26 10l1 2 2 1-3 5v2 4l-6-2v-4h-2l8-8zm445 2l5 3 3 3 9 9 3 3 3 3-1 3-14-11-7 5-1-18zm-489 12v3l-4 6-4 2v-1l8-10zm555 1l11 22 2 1-2 1v6l-4-1-2 1-3-6 3-1-5-23zm-13 5l6 2-1 10h-6l1-10v-2zm-231 1l1 1 8 36h-1l-8-7-3 2v-3l-6 2 1 4-6 3-1-3-17 15 2 3-9 1v2l-9-3 3-5-2-1 23-17 7-12 7-4 10-14zm-324 11l3 3-2 3-4-2 3-4zm27 0v3l-11 13-7 4v-2h-2l8-10 8-6 4-2zm69 18l3 1-2 5h-7l3-5 3-1zm-93 4l1 2 1 1-8 7 6-10zm-40 2l4 3-1 9-5-1 2-11zm229 6l-3 4v13l-6-11h2l2-1 2-4 3-1zm377 0l5 2 2 4-3 1v1l-4-1-2-5 2-2zm-584 2v17l-1-1-3-1-2-7 6-8zm560 4l10 2-1 4-11-1 2-5zm-496 1l1 1-8 10-3-2 8-8 2-1zm-69 16l4 1h1l-6 19 4 5 2-1v5l-4 2-8-18h2l4-1-3-10 4-2zm577 1l4 1v5l-6-1 2-5zm-71 12l3 3-2-2-7 5-2-3 3 2 5-5zm87 1l1 5 2 1-4 5-5-1 2-5 2-1 2-4zm-45 11l6 6-5-5-9 8 8-9zm-33 3l-8 9-4-2 3 1 9-8zm78 3l1 6 1 1-8 23v13l-23 37-1-8h-2l8-23 1-26 4 1 2-7 10 1 1-4-10-2-2 1 2-7 16-6zm-588 4v9l-1-1-4 1-4-6 3-2 4 1 2-2zm517 7l4 1h1l-3 6-5-6 3-1zm39 1l2 4-3 2 2-3-1-3zm-544 3v7l-8 2 8-9zm204 9v6l-4 2-1 3-1-2-9 15 2 1-4 2-1-9 7-12 11-6zm151 9l11 13-3 2 2-3-10-12zm-357 27l8 12-5 1-3-6 2-1-2-6zm533 30l-14 15-8 3 3-4q14-2 19-14zm-505 6l-1 2 5 9-2 1-4-10 2-2zm503 9l2 3 3 3-1 3-14 6-8-5q12 1 17-4l1-6zm-493 1l7 3-4 5 2 1-4 2-2-3 1-6v-2zm25 12l5 4-1 4-4 2v-10zm-42 19l10 1h2l5 1 3 5 3 1-3 5h-9l-1-4-16-7 6-2zm-35 1l22 2-1 4q-18 3-21-6zm-26 10l1 2 3 1-4 2-2 3-4-2 3-4 3-2zm-29 8l5 3-2 3-3 2-1-2h-2l3-6zm114 0l5 3-2 3h-4l1-6zm-92 7l1 3-5 2-1-2 5-3zm71 5l2 1-3 5 2 1-10 5-1-2 10-10zm195 1l5 7h1l2 4-3 1v4l-5-16zm-301 9l1 2 2 1-5 11-4-2 6-12zm151 13l4 1h2q23-1 29 16l1 2h-1q-11-10-36-6-5 7-18 6v-1l-1-5-4 1-1-2-2-5h-4l2-4 29-3zm168 5l7 8q-13 2-16-5l8-1 1-2zm-115 14l8 6h-18v-1l10-5zM93 528l3 3v4l-4-1-2 1 3-7zm28 36l3 2 2 14-3 2q-7-4-2-18zm-18 3l6 5 2 4h-5l-3-9zm24 20l5 4-1 3-5-1 1-6zm-49 11q12 13 35 16l13 10h12l1-2 11 11 1-2 11 20h1l5 11-5-5-6-2-8-11-4-2-1 3 2 4-3-5-12-2 1-4-15-2-19-12-2 4q10 4 4 8l-15-12h-2l-4 1-1-1 4-6h2l-6-20zm55 32l-1 4 6 2v-5l-5-1zm456-28l-1 2v13l-3-5-3-1 7-9zm-443 16l4 3v5l-6-3 2-5zm347 15l5 7-3 2 2-3-4-6zm-21 27l21 19-1 4 1 1h-8l1-4v-2l-14-18zm329 12l3 3-2-2-3 2 2-3zm-117 3v6l-8 3 8-9zm-24 2l9 7h-2l-11-5 4-2zm-32 1l1 3h-1v-3zm78 12l13 6h-5l-8-6zm-22 4l1 2 4 1-12 5 7-8zm56 38l13 6-3 1v1l-4-1 3-1-9-6zm-393 89l7 10-9-8 2-2z" fill="#331373" stroke="#331373" class="B"/><path d="M679 40l7 3-4 5-4-2 1-6zm-36 12l13 3-11 5-2-8zm-49 11l2 9 4 4 3 8-4-4-11-4 6-13zm45 3l3 3-2 3-4-2 3-4zm19 13l2 1-1 4h-5l2-4 2-1zm-69 11l9 8 3 10 6-2-2 3-2 5h-9q2-18-5-24zm49 0l10 4v4l-10-8zm-72 6l4 2-1 4h-5l2-6zm58 7v6l-5 7-1-2 6-11zm24 10v3l1 4 1 1-7 10 1 1-2 1-5-1-1 3-5-2-1-5 12-5v-3l-6 1-1-1 1-4v-2l12-1zm-96 7l3 1-8 10-1-7 6-4zm-187 6l7 4v2l-7-6zm172 6l3 1-3 5h-3l3-6zm135 15v3l-2 4-6 2v-1l2-4 1 2 5-6zm25 3l6 1-1 7-5-8zm-469 10l1 2 2 1-9 8-1-8 7-3zm7 44l5 4v7l-7-9 2-2zm38 6l6 1-3 6 6 10 2 1h-4l-10-15 3-3zm-32 22l4 2h1l-3 6-2-8zm-61 18v6l-3 2-4-5 3-1 4-2zm177 44l3 3v4l-4-1-2 1 3-7zm28 60l5 2-2 4-4-2 1-4zm-48 29l4 1h1l-2 6-4-2 1-5zm-112 37l3 3-1 3-5-1 3-5zm-74 30l-1 2 1 4h-10v-1l10-5zm59 30l5 1-17 14-5 8-1-2-11 19-1-6 6-9-3-1-3 2v-2h-3l3-5 1 4 5-7 1 2 9-7 2-4 1 2 11-9zm67 10l1 2h-2l1-2zm-28 2l3 3-2 3-4-2 3-4zm29 1l6 5-2 1v3l-4-9zm-57 18l-1 2-3 5-1-2h-2l7-5zm26 6l26 11-14 6h-11l-2-2 6-7-5-8zm-112 17l3 2v6l-6-4 3-4zm329 12l4 2-5 14-1-4h-2l4-12zm-302 7v11h-5l-1-2 6-9zm294 9v7l-4 1-2-3 6-5zm-162 3v5l-5 8-1-2 6-11zm-126 45q-1 15 7 22l-2-2-5 2 1 4v2l8 10 3-1v7l-1-1-4-2-1 2-9-17-3-1 4-5 2-1-1-5-4 1-1-7 6-8zm459 170l-2 3 2 3-3-2 3-4zm-266 48l6 1-1 4 1 1-7-3 1-3zm102 4l5 5-2 3-4-2-2-3 2-1 1-2zm66 6l5 5-2 3h-5l2-8zm133 68l4 3v4l-4-1-2 1 2-7z" fill="#d4739c" stroke="#d4739c" class="B"/><path d="M719 42l7 4v2h-6l-1-6zm32 10l7 8-8-3 1-5zM139 220l16 14h-7l-10-9 1-5zm566 224l2 2-4 8-1-4h-2l5-6zm-543 6l6 3-2 3h-4v-6zm24 0l8 1-17 11h-7v-1l16-11zm-57 12l4 2 2 4-12 6-2 5-1-5 3-5-2-1 8-6zm84 0l3 3-2 3h-6l5-6zm27 6l1 1-1 3 8 8h-16l2-5-5-1 11-6zm11 0l17 12-4 1v1l-4-1 3-1-12-12zm-53 1v8q-2 5-10 3v-1l7-4 3-6zm-99 5l3 3 1 3h-2-7l5-6zm123 0l3 1-2 4-1-2-5 3 3 1-3 1-1-2h-5l11-6zm-61 6l7 2-1 4-5-1-1-5zm-40 5l4 1h1l-2 6-4-2 1-5zm75 2l1 1-6 8-4 2-1-2 10-9zm476 6v6l-11 16-1-4 6-11 3-1 3-6zm12 0v13l-2-2-4-1 2-5 2-1 2-4zm-486 3q5 3 0 5l-4 2-1-1 5-6zm-81 2l3 2 2 10-2 1-4-1-2 1 3-13zm166 3l5 5-2 4-4-2 1-7zm-109 1v2l-5 8-1-2 6-8zm4 8l2 1-5 10-3 1-4 1-4-1h-2-3l3-2 1 1 3-5 12-6zm2 7v6l-5 10-1-2-9 15 2 1-4 2-1-3-4 2-7 15-1-5 10-18h2l-2-5 3-2 4 1 2-7 4 1 7-11zm480 12v6l-5 7-1-2 6-11zm48 3l1 2 1 1-7 9-2-2 1-2h-4l10-8zm-461 2l5 4 1 10-1 2-5-16zm427 6l4 2 1 4h-5l-2-4 2-2zm17 1l3 5 4 1-8 7 1-13zm-25 17l20 1q-7 9-27 5l3-4 4-2zm-425 1l5 13-2-2-10-3 1-6 5 3 1-5zm-83 5l4 2-1 4-3 2-1 3-1-9 2-2zm40 0l12 2q1 11 9 16l3-1 1-5 4 2-5 9 6 2 2 3 26 2 2-1 1 1 5-1v3l6 7 5 3h-29l-34-19-5-10-3-1-9 6-3 10 2 2-8-3q-2-20 10-26l2-1zm-125 4l10 8-5 1v1q-8-2-5-10zm59 2l6 2-1 4-4 2-1-8zm19 1l11 29v21l-8 3-5-12h-6l1-4-6-5-1-2 7-2-1-4 5-1 4 12 4-1-6-16 1-18zm-36 5l3 2 2 4h-2l-3-6zm136 0l7 4-3 7-13 1-2-7 6 4 6 2v-8l-1-3zm-148 1l5 11h-6l-11-5 11-1 1-5zm96 21l22 14h-5l-16-7-1-7zm148 1l23 13h-4l-20-11 1-2zm-57 7q19-3 27 6h-17l-10-6zm45 0l12 6h-5l-7-6zm254 5l4 1h1l-2 6-4-2 1-5zm-365 1l22 8-1 4h-12l1-3-10-9zm102 0l9 2 13 10h6l1-8 10 8-5 1 9 11h3l1-8 28 30-5 2-34-20-36-28zm-132 6q23-4 33 6l-17 1v1l-6-2-11 8-1-12 2-2zm78 12l4 2-1 4-5-1 2-5zm-115 4l7 8-2 1v3l-5-12zm66 1l1 2q15 5 24 17h-2l-29-17 6-2zm-48 1l2 1 2 5h-1l-3-6zm109 0l18 18-2 2-18-17 2-3zm119 9l4 3 1 3v3l-5-3v-6zm-221 3l4 3h1l5 9-1-1-11-8 2-3zm-9 6l7 4v2l-4-1-1-4-2-1zm84 6l6 4 1 4-7-8zm83 0l30 29 6-5 11 12-12-11-6 5-29-30zm70 0l10 10-1 2-11-9 2-3zm-103 4l7 8-8-1 1-7zm-38 8l6 4 1 4-7-8zm422 0l14 1-8 5v2l-1-2-5 2-1-2-5 2-1-4 7-4zm34 0l12 6h-5l-7-6zm-274 4l3 2-3 1 17 9v4l-18-11 1-5zm198 2l10 6-16 2-1-4 7-4zm-324 2l7 10h-6l-1-10zm390 1l13 9h-8l-11-5 5-1 1-3zm-380 3l19 8v6l-11-8-1 2-7-8zm349 6l4 1-11 5 3-4 4-2zm-215 3l15 9-4 1v2l-5-2 4-1-10-5v-4zm-132 1l16 8h2l6 1-1 4 6 1v-4-2l6 2-1 10-35-13 1-7zm154 8l23 12h-4l-19-12zm-288 12l7 4v6l-7-10zm336 0l11 6h-4l-7-6zm31 6l8 1-8 5v-1-5zm122 6l15 6h-5l-10-6zm-272 6l1 1-1 4 1 1-7-1 2-3 4-2zm12 0l6 2-1 4-4 2-2-2 1-4v-2zm184 0l2 2-13 14-16 4-1-2h-5l13-10 20-8zm94 0l15 6h-5l-10-6zm-440 6l1 1-1 4 1 1-7-1 2-3 4-2zm6 0l6 2-3 4-3-1v-5zm68 0l10 2-1 4-11-1 2-5zm106 0l1 1-1 4 1 1-7-1 2-3 4-2zm278 0l24 12h-2l-22-12zm-440 6l1 1-1 4 1 1-7-1 2-3 4-2zm26 0l16 2-1 4-17-1 2-5zm153 0l13 2-1 4h-12l1-3-1-3zm-194 6l14 6h-4l-10-6zm221 0l11 1-1 4 6 1v-4-2q13 11 43 6 7-8 25-6l-2 3 1 3 4 1-10 5h-55q-8-8-24-7l2-5zm210 0l10 4 1 2h-1l-10-6zm-409 1l5 11h-2l-5-6h1l1-5zm365 3v3l-3 5-2 1-4-1 9-8zm-288 8q11-1 14 6h-21l3-4 4-2zm-77 1l7 9 15 3-11 5-12-9 1-8zm102 2l4 3-4 1 5 2 1-2 2 5-3 1v1l-10-7 4-1 1-3zm-58 3l-2 3-1-2 3-1zm295 0l6 1-9 7-1-2 4-6zm25 0l7 4v2l-4-1-1-4-2-1zm-311 4v2l-5 8-1-2h-2l3-1 5-7zm-16 5l4 6-5-4 1-2zm299 13l5 10-4-3-1-7zm-18 6l7 8-1 1-12-6 5-1 1-2z" fill="#ecaa47" stroke="#ecaa47" class="B"/><path d="M594 46l1 8 2 1-9 21 2 2-14-1 6-10-3-1-8 6-1-2 24-24zm-36 44v3l-5 3-1-2 6-4zm-20 30l2 2-1 4-5-1 4-5zm8 4v6l-1 3-4 2-1-3h-2l8-8zm-24 14l6 1v2l-11 3v-1l3-4 2-1zm-14 6l2 1-1 5-5-2 4-4zm-272 17v2l-14 13 10-14 4-1zm-22 13l2 1-5 9-2-2 5-8zm543 19l5 12-1-1-3-1-1-4-1 4-6-7 4 2h2l1-5zm0 16l4 1h1l-2 6-4-2 1-5zm-564 71l4 2h1l-2 6-4-2-1-4 2-2zm-63 170l8 2-1-1-8 5-2 5-1-7 4-4zm68 8l1 4 4 1-5 3-1 2-5-2 3-4h1l2-4zm10 4l3 1-4 5h-6l3-2 1 1 3-5zm-96 6l4 1-7 10-1-7 4-4zm62 64v8l-5 10-1-10 6-8zm-6 35v24l-3-2-3-13 6-9zm-95 7l9 8h-6l-3-8zm16 8l12 6h-5l-7-6zm49 12l6 3-2 3-4-1v-5z" fill="#a77faf" stroke="#a77faf" class="B"/><path d="M654 48h7l17 10v5q-5-9-17-9l-1 2h-3v-2h-4l1-4v-2zm53 36l5 3 14 29h1l11 22 2 1-2 1v7l-7-4-2-4 3-1-13-24h-5v-12l-7-18zm-70 10l7 8-8-3 1-5zm14 14l9 4 1 2-1-1-9-5zm22 7l9 5 4 4 6 2 4-2v3l-3 5-3 1-1 11-5-1-2-4 7-1-5-10-3-1-7 6-1 3-1-4 6-10-8-2-5 2 7-5 1-2zm35 17l2 1-2 7 13 20 3 2 4 4 3 2h-5l-19-6 1-10-7-2q-2-13 5-17l2-1zm-48 2v5l-5 8v-3l5-10zm-26 16l8 4 1 2-1 6-6-1-2-11zm26 10l1 3-1 4 6 1 1-2 5 3-3 5-15-8 2-4 4-2zm30 0l1 2 4 1-8 5-1 3h-2l6-11zm-383 1l6 2-1 6-4-1-3-1-5-2-1-2 8-2zm277 1l10 2-1 4-11-1 2-5zm-290 4l1 3-1 4 1 1-19 6v-1-5l-6 2 1 4-24 14-1-5 2-4 37-17-3 4 1 2 10-5 1-3zm320 2l4 2-1 4-5-1 2-5zm160 0l12 1 2 11-2 1 1 5 1 1-2 5 5 1-17 7 2 4 10 2-1 4q-11 0-15 8l-2 12-6-10 12-13-11-9-1 5-6-17 12-15 6-3zm-142 6l4 2v4l-6-1 2-5zm107 4l5 13-4 1-6-12h2 2l1-2zm-95 2l10 2-1 4-11-1 2-5zm78 0l4 2-1 4h-7l4-6zm-26 5l1 6 5-1v7l-2 1-13-11 9-2zm-248 55l2 1-3 5h-3l4-6zm298 0l4 2 1 16v2l7 16 4-1v2l-2 4-4-2-1-3h-5v-12q-8-7-6-22l2-2zm-264 18l4 2-1 4-5-1 2-5zm-43 5l4 1h1l-1 6-5-1 1-6zm-54 5l4 1h1l-3 7-3-1 1-7zm149 8l6 2-1 4h-6l1-4v-2zm-258 41v2l-3 5h-4l3-4 3-1 1-2zm402 7l6 2-1 2-11 6v2l-11 5-1-2 6-4 1-5 5-2 1 2 5-1v-5zm36 13l1 5 1 1-4 11h-7l3-5-2-1 3-6 3-1 2-4zm-64 11l4 2-1 4-5-1 2-5zm47 5l-1 4-8 9-3 2-1-2 8-10 5-3zm2 7l-8 9-1-2 9-7zm-91 12l4 2-1 4-5-1 2-5zm64 9l1 2-11 8 10-10zm10 2l-3 4-7 5v-2h-3l3-5 1 4 3-5 6-1zm-22 27v9l-4 1-2-4 4-2 2-4zm-12 8l1 1-6 11-1-4 6-8zm-10 20l4 2v5l-4-1-2 1 2-7zm202 0l6 3-2 3-3 2-1-8zm-203 23l4 1h1l-1 6-5-1 1-6zm192 0l4 1h1l-5 8-1-2-9 1 6-7 4-1zm-322 1l3 1-1 5h-5l3-6zm123 19l1 5 3-1 2-4v15l-7 14-5-1q-3-20 6-28zm181 4l4 1h1l-5 8-1-2h-3l4-7zm-311 7l4 2-5 13-6 2-1-2 8-15zm-409 5l4 1h1l-1 6-5-1 1-6zm701 13l4 1-8 6-2 5 2 1-6 4-1-1 9-15 2-1zm-504 10l1 2 4 1-12 5 3-4 3-1 1-3zm208 2l1 1q-8 10-6 29l-5-1q-4-23 10-29zm-399 7q7 5 5 20l-3-3-3 1v4l-6-11h2 4l1-11zm677 9v2l-3 6h-3l6-8zm-292 20l4 2v5l-4-1-2 1 2-7zm140 0l2 2v5l-4-1-2 1 4-7zm-141 47l4 1h1l-1 6-5-2 1-5zm167 4l1 3 5-2v3l-6 11h-6l6-15zm-212 15l2 1v11l-4-1-2-7 4-4zm212 6l6 2-1 4-4 3-1-9zm-133 30l10 6h-3l-7-6zm97 18l6 2-1 2-5 2v-1-5zm-16 6l4 2-1 4h-7l4-6zm-346 96l3 1-2 1-2 4h-4l5-6zm82 66l4 2v5l-8-1 4-6zm78 0l4 1-3 5h-3l2-6z" fill="#264fce" stroke="#264fce" class="B"/><path d="M714 46v3l-3 4-4 1 7-8zm-22 2l4 1-1 5-5-1 2-5zm-136 72l2 1-11 13-1-2 10-12zm114 24l2 1-3 5h-3l4-6zm-531 81l8 9-9-3 1-6zm63 81l2 2-1 4-5-1 4-5zm470 184v3l-5 8-1-2 6-9zm58 20l2 3-11 11-3-2 12-12zm-70 1v18l-5 10-1-17 6-11zm-276 9v10l-2-2-4-1 6-7zm301 12l10 8h-5l-6-3 1-5zm-547 2l10 8 1 3-4 1-7-3v-9zm94 7l20 32 23 15-17 2-2 4q-20 4-28-3v-3h-2l8-6-8-12-4 2 2 4-2 1-1 5-8-5-4-13q-12-2-16 4-8 7-7 22-9-5-6-20l15-23q6 9 20 11l3-12 14-5zm3 11q-5 14 2 18l-3 1 8 17 13-1 3-7-8-4-12-22-3-2zm467-10l1 3-14 17-9 2v-1l10-7 9-10h1l2-4zm-587 1l4 3-2 1 3 7-2-2-3 1v-10zm138 5l5 15h-1l-6-12 2-3zm-97 5l1 12-1 14q-7-4-6-15l6-11zm499 10l16 2-15 5-1-7zM80 576l15 6h-7l-8-6zm192 0l10 4 1 2h-1l-10-6zm-139 7l5 10 1-2 4 3-10 1v-12zm158 5l23 1q-3 6-13 5l-10-6zm-100 6l7 4 4 8 21 6 11 9-1 3-16-6h-23l-2 17 25 1 40 24 7 9 3 3 9 8h1l17 29-5 7q-6-33-30-47l-30-15h-19l-24-15-2-8 2-1-1-6-4 1-1-15 11-10 1 3-6 8 7 1 5-3-7-15zm75 0h22l29 12h17l20 10v8q-16-2-23-12-18 2-24-6h-31l-12-8 2-4zm-127 9l5 5-1 4-4 1-2-6 2-4zm455 3l5 2-6 10 1-2v-10zm-220 6l10 2v6l-10-8zm-65 6l38 20 23 24 4 16q10 0 14 8l2 8-2 2-12-12-7 5-63-68 3-3zm-147 3l2 15 2 2 8 15 1-2 5 3 1-3 11 9v-2l-3-5 9 7h9l15 8-3 9-15 1-10-7-4-11-4 1v6l-5-4-1 2-3-4 3-1-1-4-9-3-17-28 9-4zm199 3l11 4v8l-9-5-2-7zm31 0l9 4 1 4-5-5-5-3zm-217 15l4 3q2-5 5 2l3 6-4-2-2 1-6-10zm127 16l24 23-2 1v2 2l-5-8-6-2-6-9-2 1-3-10zm135 5l7 4 2 8h-1l-7-3-1-9zm293 12l20 10-1 6-15 2v-1l10-6-1-5-13-6zm-275 5l9 7h-2l-11-5 4-2zm195 1l14 6h-4l-10-6zm-319 4l11 10 2-1-1 2 5 6 5 2h1l-6 1-12-8-2-4-8-6h2 2l1-2zm311 0v3l-19 21-28 10-1-2 4-6q14 3 21-3l23-23zm54 2q16-2 23 6l-30 1-4-1 11-6zm-227 4l7 8-1 1-7-4 1-5zm-298 8l9 2-1 4-11-2 3-4zm505 0l4 1-7 9-1-4 4-6zm-451 6l11 6h-1l-10-6zm137 0l4 2v4l-6-1 2-5zm-117 12l12 6h-4l-8-6zm-16 6l10 4 7 12-12 2-10-7-2-7 7-4zm0 6l-1 4 12 7v-2l-11-9zm331-6l10 2-1 4-9-6zm94 0l6 3q3 12-2 15l-10 3q-6 13-21 15-6-3 0-5 6-20 23-29l4-2zm26 0l15 6h-5l-10-6zm18 6h11l35 12 20 18h-2l-11-5-2-5-51-20zm-276 6l10 2-1 4-11-1 2-5zm-150 6l4 2 1 4h-5l-2-4 2-2zm180 0l15 6 1 3v2l-18-6 2-5zm-162 6l4 3v3l-6-1 2-5zm216 6l4 2v4l-6-1 2-5zm73 0l9 1-1 3-10 2-1-3 3-3zm87 0l5 1-8 5-3 7 4 4 6 3 2 5-3 4-9 1-17-11 5-1 12 6 1-5-7-3 2-4 2-1 4-9 4-2zm-4 19v4l4 1v-2l-4-3zm36-19l15 6h-5l-10-6zm-414 6q11-2 13 6l-3 1v4l-5-8-5-3zm55 0l3 3-5 11-1-2h-2l5-12zm129 12l5 1-12 5 3-4 4-2zm56 0l15 6h-5l-10-6zm-229 3l10 9h-5l-6-3 1-6zm23 3l2 1-12 5v-1l10-5zm13 4l10 7h1l-8 1-3-8zm79 2l14 6h-4l-10-6zm35 0l4 1-14 5v-1l10-5zm157 18l26 12h-10l-16-12zm-377 24l3 3v3h-6l3-6zm124 42l9 8 1 3h-1l-10-8 1-3zm-102 12l6 1-1 4 1 1-7-3 1-3zm168 6l10 6h-15v-1l4-2 1-3z" fill="#e8743a" stroke="#e8743a" class="B"/><path d="M733 46l17 6v4l-9-2-3 2-1-3-5-2 1-5zm5 12l1 2 3 2 6 15 10 2-3 5-5-1-1-3-11-3 5-10-2-1-10 18h-11l-17-11 24-1 4-3 3-7 3-1 1-3zM192 173v2h-1l1-2zm-3 7l-2 3 2 3-3-2 3-4zm2 9v2l-3 2 3-4zm-5 10v6l-5 7-1-2 6-11zm-12 17l2 1-17 23-3-1-1-3-4-1q11 1 14-6l7-12 2-1zm526 234l2 1-5 7-1-1 4-7zm-579 11l7 2-7 5 2 1q-6 5-3 19l-6-8-5 2h-2l-4 6-1-7 11-4 1-2 1 4 5-10-5-1 5-3-1-2 2-2zm67 1l5 1-1 4 1 1-7-1 2-5zm-8 3v10l-1-1-4-1-2 1 3-7 4-2zm-29 1l5 4-1 4-5-1-2-4 2-1 1-2zm-18 13l5 3 1 4 4 1-9 5-2-10 1-3zm83 1v3l-17 14-1-1 18-16zm49 0l5 3-2 3-4-2 1-4zm-102 5l4 1h1l-5 8h-2l1-2-3-5 4-2zm-51 1l2 2-1 10v-1l-2-5-3-1 4-5zm48 11l-6 7-4-2 3 1 7-6zm-16 1l3 2-1-1-2 1-3 10-3-1v-5h-5l11-6zm139 0l3 2 2 5-1-1-5-3 1-3zm-155 12l9 4 1 7h-1l-4-8-5-3zm52 4v3l-5 7-1-2h-2l3-1 5-7zm-18 2l3 1-2 4-1-2-10 3v-1l10-5zm-58 6q8-2 10 4v3l-10-1-2 1v-2l2-5zm149 19l5 16h-1l-4-16zm-97 3v3l-5 10-1-7 6-6zm79 11l4 3-2 1 3 5h-2l-3-9zm30 9l5 2 2 8 3 2h-7q-6-2-3-12zm23 10v6l-3 2-8-5 11-3zm-27 14l3 2-1 4h-5l3-6zm-110 1l5 16-4 1-4-11 2-1 1-5zm138 0l18 6-1 4 12 1v-3l-1-3 33 18h-2l-23-12-1 4 2 2h-8l-32-12 3-5zm-78 39l10 8h-12l1-2 1-6zm196 20l9 6h-2l-7-6zm20 12l7 6-2 1 1 1-7-5 1-3zm-246 6l5 3-2 3-4-2 1-4zm262 6l7 4v4l-7-8zm263 0l3 1-1 4 16 3 2 3 1-4 2 5-3 1v2l-22-9h-2-5l9-6zm32 6l6 3-2 3-3 2-2-2 1-4v-2zm-269 16l1 3 9 5-5 1v1l-12-3 2-5h4l1-2zm-260 8l13 6v-3l-1-3 12 6 1 3-5-3-1 4 2 2-2 1-3 5 2 1-4 2-2-13-12-8zm121 5l6 3-1 4h-6l1-3v-4zm-89 5l3 2 2 3 5 3h-5l-5-3v-5zm-30 6l1 3 6 5h-4l-3-8zm58 2l15 1-8 5-7-6zm-19 18l14 6h2q10-2 12 6h-22l-6-12zm140 0l6 2-1 4h-6l1-4v-2zm14 0l10 2-1 4-11-1 2-5zm15 0l8 1-1 4 1 1-8-6zm-47 4v3l-3 4-4 1 7-8zm306 2l8 6h-18v-1l10-5zm67 3l4 3-2 1 8 5h-12l1-2 1-7zm-35 3l15 1-5 3-1 2-5-1-1-3-3-2zm-56 6l2 1-8 7 2 4h-12v-1l16-11zm-298 6l4 2-1 4h-7l4-6zm40 0l8 6-2 1v2l-5-2 4-1-5-3v-3zm-97 6l8 1-1 4 1 1-8-6zm13 0l16 1-16 5v-1-5zm136 0l8 1-5 7-3-8zm178 0l7 1-2 4-1-2-5 3-1-4 2-2z" fill="#f3da79" stroke="#f3da79" class="B"/><g fill="#1009aa" stroke="#1009aa" class="B"><path d="M661 54q12 0 17 9l1-2 4 10-1-1-22-13 1-3zm30 18l11 4v5l-5-3-1 3 13 11q7 5 5 20l-11 5-1-2 5-10h1l-5-12-2 1-11-16 1-6zm-96 12l7 6h-4l-3-6zm9 0l8 4v2l-5-3-1 2-2-5zm17 6q11-2 15 4l2 6 4 3v1l-24-10 3-4zm23 12q11-2 16 4v2h-15l-1-6zm-70 12l7 2-4 8-3-10zm-10 2v5l-6 17h12 2l18-6 1 2-3 2 1 2h5l1-2 3 2-3 1 7 5-8 1 2 3 10 2v-2l-2-4 14 10 1 2h5l-3-5 12-1 5 12h4l1-3 11 4 6 8 9 4-2 3 6 2 4-3 7-12v16l6 13-2-2-4 1 2 17 8-5 13 11 1-3-1-3h1l4-11 3-1-1 2 1 10v2l3 4 2 1 7 12-1 4 5 1 1-4-1-3-5-9 6-5 2 9 10-1-1-11-5-2-3-10-3 1-1 3-10 5-2-8 13-1-3-12h-3l-1-6-4 1q0-15-9-18l3-1 15 8 2 7-3-3-3 1 2 3 10 6 2 8 4-1 1-7 5 6v33q9 8 6 29l-5 1-2-13-5 2v11q8 7 7 24l-1 4 6 5-3 8-3 2 2 4 4-1 3-4-2-1 11-8v9l-1-1-5 2 1 4 2 1-3 6-4-1-3 1-17 7-1 16-5-1v-35q-18-49-53-81l-21-14 2-1-3-5-2-1-1 2-23-14h-13l-25-12 1-4-10-2-2 5 1 1h-49l4-6 2-1q-8-5-6-19l17-7 13-19zm38 46l-2 5 5 1 1-4-4-2zm12 6l-2 5 5 1 1-4-4-2zm18 6l-2 5 6 1v-4l-4-2zm12 6l-2 5 11 1 1-4-10-2zm23 18l-1 3 6 3v-2l-5-4zm77 24l-4 2-8 14 1 2 17-6-2-10-4-2zm-16 36l-2 5 11 1 1-4-10-2zm12 18l-2 5 6 1v-5l-4-1zm-26-159v9l-3 6-8 4-2 14-5-2-1-10-4 1-1-6 4-2 6-11q11 3 14-3zm7 1l8 14h-5l-3-14zm-51 2l5 1-14 22-1-10 6-11 4-2zm63 22l5 5 1-2 5 18h-1v-2l-4-2-6-17zm-75 2l2 1-3 4-2 1-1-2 4-4zm-153 6l7 1-3 5-5-1 1-5zm171 12l5 1-9 8v-3h-3l7-6zm-375 3l5 4-3 5-9-1 2-5h4l1-3zm12 2l11 5v2l-12-2 1-5zm431 0v4l-5 4-1-3 6-5zm-458 1l7 1-10 5-1-2 4-4zm225 0l11 2-1 4-16 5-1-1 6-5 1-5zm-239 6l4 1-1 5-5-1 2-5zm200 0l8 1q-13 12-18 34l5 1 3-12 4 2-2 9-7 7-15 30v17l15 1 3 4 2 8 10-1-5-14q9-14 29-16l3-4 8 8-17 34-2-1-26 26-2 11 26 27 16 8h7l11-9 1-3h5l1-2 10 12-17 37 4 1 17-17 9-29-12-3-3-11h-3l3-6 3 1 2 3 9 6 5 8 2 1v11l-4 2-11 29-13 13-7 19-1-2v-7l-13-24-9-2-30-29-14-22v-7l-9-18-21-24 7-13 4 1 1-16-6-2 6-8 1 2 3-1 2-4-2-1 2-18 6-11v-22l6-8 1 2 9-9zm18 78l-4 6-6 2 2 4 7-1 3-10-2-1zm-40 24l-4 2-2 4 6 1v10l-2-3-3-2-1 3q4 9 18 9h2l4-1-1-5-4 1-4-1q6-4 3-16l-12-2zm24 12l-4 2-1 2 5 2 5-2v-1l-5-3zm20-108l4 2-1 4-5-1 2-5zm293 0l5 2-1 4h-5l1-6zm-540 6l1 1-7 5-1-2 7-4zm235 0l4 2-3 4h-3l2-6zm310 6l6 1 1 5 2 1-2 4-1-4-3 5-3 2 2 4 4 4-6 8 2 1-20 41-4-1-2-41 8-10 10-3-1-5-5-2 2-3v-2l10-5zm-560 6l2 1 2 5-13 5-1-1 3-5 7-5zm463 0l7 1v7l-7-8zm-505 42l2 1-1 3-4 2-1-2 4-4zm-18 6l2 1v5l-5 1-1-3 4-4zm204 6l2 1 7 23h-1l-10-7-2-13 4-4zm9 0l7 6-2 1 5 8-4 8q-1-12-9-16l2-1 1-6z"/><path d="M524 252h11l23 14 8 22 15 6 1-6q-9-8-6-28l31-2 35 20 2 10q15-2 20 6l6-5q6 7 20 7l-1 4q-14 2-20 11-4-6-15-5l-18 8-12 27h3l3-2 1 3h6l24-13 5 5-1 2-4 2-1-2-6 4 2 2 16-6 2-4 10-5-1-3-5-3 1-3 8 6 4-12q14-1 21-11l13 21-5 14h-6v-6q-14 0-18 10l1 2 5 1-2 5h-4v-6l-22 20-5 9-8 5q2 26-10 38l-8 4-1 20-6 2-6 9 5 1h1v17l-3-5-8 4-1 15-12 23v25l-12 35v30l-6 1 3 5-15 9 2 3 2 2 4 10 4-1h2l21-11 3 24 4 1 1 5 8-5 3-11-12-5v-99l12-26 2 122 4-1 2-9 10-13v5q-10 7-12 24l3 1-9 11h3l3-2-8 18-16 11 2 3 12-5 1-2 7-5 2-4 10-9 2-4v-2l-1-5-3-1-1-4h-2l17-31q17 3 23-5 8-21 25-31l8-20 14-14 5-2-1 2 2 4 10-1-1-4 14-1q16-5 26-17l21-37-5-9q10-15 30-21l-1 2-6 22-10 7-5 11-3 2-3 10 1 1-8 6-5 11-8 4-6 14-1-2-33 37-8 5-1 3 4 4 3 1 17-15v3l-2 12-28 14 4 10 2 1 1 5 2 1-9 17v10l2 2-8 2-1 2-7 2-4-6q9-8 6-28l-12-2q-22 8-34 26-1 15-10 22l-4 1 2 11q3-8 17-6l5 4 1 2 11 3-2 3-24 12-16-9-1-21q-11-1-14 6l-6 12-9 4 2 2 2 2-4 7-8 3 7-8v-2l-17-2v-6q-19-3-23 9l3 3 2 1-2 5h-4l-1-4-17-2-18-6-1-4-11-2-5 3 5 11-14-14-4 1 2 11q10 0 14 8l2 5-3 5h-29l-22-15 24-6-1-3h-13l-21-18-1 4 17 14h-5l-16-11-1 2 5 14h-1l-4-8-13-6-1-27-13-5 2-1q-2-14 6-18l-7-13 2-2 8 9 5 17 31 30h1l2-16-6-3 3-4h3v-6l-17-9-4-9h-3l3-6 3 1 8 17 10-1-1-11 2-60 5-1q-3-17 6-22v-21l7-16 3-1 2-17 10-23 7-4 4-8 1 1 2 17q-10 10-6 36l3 4 7-5 6 5 6-5 23 12 3 7-6 12 15 22h1q10-9 8-29l12-17v-19q8-7 6-24l12-23v-13q7-5 6-18l-12-14q10-10 29-12l6-6v-2l-16-2-2 4-29 2-9 6q-18-8-21-30h-6l1-6 10 4 9 12 23 2 9-7 2-5-3-5q-23 1-32-10l-4-8-8-4-22-32-15-7-1-6-5-3-12-19 2-2zm126 96l-2 5 5 1 1-4-4-2zm-12 6l-2 5 5 1 1-4-4-2zm-96 174l-2 31-6 11 2 36 16-7v-35q-10-10-6-34l-4-2zm-48 72l-2 23 11 1 1-22-10-2zm163 18l-3 5 5 1 1-4-3-2zm-163 12l-2 2 5 7-5 14q15 0 21 11v3l14 5 1-4-30-20 2-4 4-2v-3l-10-9zm-34 30l-4 5 3 1 3-5-2-1zm39 0q-3 14 8 18l3-1-3-11-8-6zm37 0l-2 5 18 7h31l11-9-1-3-16 6h-25l-16-6zm138 12l-2 5 5 1 1-4-4-2zm83-414l5 4v1l-6-2 1-3zm-600 17l5 5-1 8-5-1 1-12zm103 19l14 14 2 4-12 2 2 10 6 1-2 4-9-5q-7-9-3-28l2-2zm406 24l6 1-1 3-7 2 2-3v-3zm48 34v3l-39 53-4 16-20 14q-5 5-3 19l-11 28-1-16 6-2 1-28 2 4h1l8-15 4-3 32-57 16-14 8-2zm-107 26l5 1-2 4h-2l-1-5zm117 0l2 1v8l-16 24-2 1-1 6-21 2-2-4q19-5 27-19l13-19z"/><path d="M561 384l3 13-3 4-9 1-5-3-1-3 4-5 11-7zm-51 70v6l-6 5-5 6-1-3 12-14zm-405 14l3 1-3 5-3-3 3-3zm292 4l7 8-2 2-5-10zm425 6v3l-5 7-1-2 6-8zm-723 2l3 3-1 3h-5l3-6zm399 1v18l-6 11-4 2-1 3-1-11 12-23zm-95 14l5 8 1-2 4 3h-7l-3-9zm287 3l8 1-4 5-4-1v-5zm-599 5l4 1h1l-1 6-5-1 1-6zm594 0l5 3-2 4-4-2 1-5zm-199 20v12l-5 8-1-9 6-11zm-173 3l4 7-5 1v-1l1-7zm-36 2l11 1 2 3 3 2h-13l-3-6zm-185 6l4 2v4l-6-1 2-5zm5 12l5 4q-1 15 6 22l-7-4q-7-7-4-22zm327 0l8 4v2l-6 2 6 13-12-11 4-10zm56 19v43l-4-3-2-29 6-11zm-39 5l3 2v4h-6l3-6zm-20 7l12 18-1 3q-11-6-11-21zm25 5l15 12-2 1 3 5h-2l-8-5-6-8v-5zm218 0l6 2 2 4-17 6-1-2 10-10zm-549 6l5 3-1 3-5-1 1-5zm330 6l3 2 2 7-3-2-2-7zm156 9l5 5-11 13-1-2 7-16zm-428 63l4 1 2 4h-1l-5-5zm428 18l8 6h-9v-1l1-5zm99 6l14 6h25l11-6v10l-2 2h-58l-12 10 1 2h-3l-4-5 4-7 24-12zm-154 2q4 10 19 10l11-6v4l-6 8-6 1v1q-5-9-18-8v-10zm43 5l5 11-9 12q-14 3-17-5 14 2 19-4l2-14zm192 9l17 11-2 3-15 3-1-3q-19 3-24-8l2-4h22l1-2zm-48 20h12l13 7-2 5-24-9 1-3zm-544 36l3 3-2 3-4-2 3-4zm53 0l28 8-6 15 25 7 16 10 3 8 9 6q20-3 29 6l8 9 1-2 5 15-6 7 6 4 2 3 4 1-2 4q-8-8-27-5l5-3 1-3 4-2-6-8-5-2-18 7v1l-7-8h8l17-7-1-5h-17l-29-18h-10l1-4v-2h2l-1-6-5 1v1l-19-14 1-4-9-2 3-6-3-5-2-1-1 5-6-9 2-2zm17 12l-1 3 4 2 2-4-5-1zm166 60l7 4v2l-7-6zm-29 6l24 1 1 5-6 2-1-2-6 2 1 4 1 1-11 17 1 1-13 11h-5l14-15 1-3 5-3v-3h-30l-2-5-2 1-1 3-1-10q21 2 30-7zm-84 16l1 8h-4q-7-4 3-8zm-66 2l2 1-14 9-1 2-5-2 3-4 15-6zm115 11l4 1h1v8l-5-9z"/></g><path d="M579 66l3 1-6 10 1 1h-13l6-8 1 2 8-6zm-11 18q18-3 25 6l-5 1v1l-18-2-5 4-7 14 6 1-1 3-10 2-1-12-4 2-2 20-8 8-7 6 2 1-4 2-1-3-11 4-1 2 4 1-10 5v-1-5l-5 3-1-5 40-40 6-12 7 1-5 3 1 2 8-5-2-1 9-6zm-34 36l-4 2-2 4h6 2l4-1-1-5-4 3-1-3zm84-36l11 6h-11v-1-5zm-13 6l12 6-5 1v1l-1-2h1l-7-6zm-109 60l2 1-2 5-3-1 3-5zm-177 12l2 1 2 5h-1l-3-6zm445 0l4 1-1 5-5-1 2-5zm36 0l4 2-1 4h-5l2-6zm-579 1l1 1-11 13-1-2 7-10 4-2zm92 16l4 1h1l-2 6-4-2-2-3 3-2zm486 0l4 1h1l-5 8v-9zm-498 12l4 1h1l-3 6-2-7zm450 5l5 13h-1l-4-13zm-471 14l4 1-2 11-4-1-2-5 4-6zm483 18l5 4-1 20-5-1 1-23zm0 34l5 9-1-1-4 1-3-6 2-1 1-2zm-608 2l7 3h1l1 3-2 1-4-1-3 12-5-1 1-11 5-2-1-4zm32 8l5 12-4-3-1-9zm17 164l1 3-1 4 1 1-7-2 3-4 3-2zm-52 14l8 1-4 2-2 3-4-1 2-5zm16 0l16 1-19 11q-6-3 1-6l2-1v-5zm-66 37v5l-5 10-1-4 6-11zm146 29h29l5 4-3 8-3 1v1l-28-14zm-68 8v5l-5 10-1-4 6-11zm-65 35q7 6 5 21h-1l-1-4-4 1v3l-6-10h2l4-1 1-10zm12 7l2 4 3 3-1 3-5-1 1-9zm-6 20l6 14 5-2 1 8-1 14-1-3-11-8-1-20 2-3zm578 176l3 3-2 3-4-2 3-4zM168 886l1 2 1 1-4 5-4-2 3-4 3-2z" fill="#9a51af" stroke="#9a51af" class="B"/><path opacity=".992" d="M587 78l12 6-5 1 2 5h-2l-11-5 5-1-1-6zm26 11l6 2-1 4v2l-1-2-10-4 6-2zm19 1q14 1 20 12h-6l-14-12zm-60 18l4 2 2 4-9 1-4-1 5-3 2-3zm-302 24l4 1-14 5v-1l10-5zm264 3l1 3 1 1-12 5v-1l9-4-2-1 3-3zm-30 7l1 8-1 2-3-2-3 2v-2h-2l8-8zm-258 6l4 3-9 7-1-4 6-6zm283 14l7 1-8 5v-1l1-5zm-307 3v6l-5 3 4 1-4 2-1-3h-3l9-9zm475 10l5 9-5 7v-16zm107 8v6l-6 5v-2h-5l11-9zm-53 16l7 17 4-1 3 13-4-1-11-22 1-6zm47 0v13l-2-2-4-1 2-5 2-1 2-4zm-594 26l-5 6-1-2 6-4zm-6 12l1 2-7 4 6-6zm302 3l4 1-1 5-5-1 2-5zm-361 5l4 1 2 1-1 10 5 1h1l3 6 3 3-2 3-4 1v9l-12-28 1-7zm353 1v3l-7 3 3-4 4-2zm259 10l1 3h-1v-3zm-282 8l9 2 2 9-10 1-1-12zm295 6l4 2 1 10 1 1-13 11-3-11 2-1 1-2 3 1 4-11zm-613 11l4 1h1l7 24-1 5 1 1-10-6q-6-8-2-25zm24 14l5 9-7 3-1-2 3-10zm-11 23l4 2v18q-8-5-6-18l2-2zm11 45l4 3-2 1 3 5h-2l-3-9zm23 87l12 4 1 2 12 1-1 4v2 2q-8-6-24-3v-12zm85 31l11 26-5 8-1-2-4 3-2-6h2l4-1q1-12-6-14l1-14zm-37 29l5 1q-4 6-15 5v-1l10-5zm18 0l17 6h-17v-1-5zm-137 83l4 1h1l-2 6h-4l1-7zm0 25l10 6h-11v-1l1-5zm-20 12l9 6h-2l-7-6zm19 6l6 2-1 4h-6l1-4v-2zm19 6l13 12h-1l-11-5-2-4 1-3z" fill="#69309a" stroke="#69309a" class="B"/><g fill="#0e18de" stroke="#0e18de" class="B"><path d="M697 78l5 3h1l2 3 3 3v5l-11-14zm17 34l1 3-4 5h-11l2-4 4-2 8-2zm-143 2l3 2 2 11-6 11h-12l7-21 6-3zm105 6l2 2q-8 4-6 19-11 6-14 21l-3 1-13-4 1-3 9-6 2-4 1 4 4-3 1-2-3-1 3-5 1 4 15-23zm-86 14l4 2v2h-6l2-4zm95 9l4 1h1q3 17-5 23l-1-2-9 14-3 1-5-2 5-7 9-8 4-20zm-90 1q9-2 11 4v2l-12-3 1-3zm19 6q8-2 10 4v2h-6l-1-4-3-2zm113 24l5 3h1l1 3h-2l-6-3 1-3zm-1 11l4 3 3 10 3 2 4 10-8 2-3 4-3 2 6 10h-5l-7-12-4-1-2-4 6-2 4-5 8-3v-3q-17-4-23 4l-1 8-6-3-1-9 2-9 23-4zm-35 4l8 9-9-3 1-6zm-36 3l4 4 1 2h-2l-3-6zm12 6l5 4v2l-6-3 1-3zm96 0l11 9-11 12v-21zm13 0l6 1-2 3 2 2-8-1 2-5zm-32 24l4 2 2 10-17 6-1-2 8-14 4-2zm-254 30l2 1-3 10-3 1v-1l-1-4 5-7zm-99 6l2 1 3 7-4-3-1-5zm59 18l8 1-7 9-1-4h-6l2-4 4-2zm79 5l10 1h2l16 10 23 31 7 5 5 7 14 7q13-3 17 4l1 3-7 9-23 2-10-7-5-10-8-1h-2l-4 1-5-2-5-10-9-4v-3l-5 2-2-8h-5q1-14-6-18l1-19zm-33 1l2 2v18q6 17 19 26l17 12v2l-6 1-7 9-11 2q-26-10-40-31l-2-11 28-30zm-34 2v7l-6 3v-1l6-9zm-17 4l3 2 2 3 1 1-1 2-5-8zm29 0l5 3v1l-5 2-5-2 1-2 4-2zm191 31l1 1-3 4-3 2v4l-23 12h-6l-1-2 35-21zm43 11l6 1 1 6-2 1-2 4-3 1-2 5-20 14-13 20-11 9-1 3-1-16 4-5 7-4 23-27h2l8-10 4-2zm-11 12l-1 6h4l2-5-5-1z"/><path d="M565 347l4 1h2l5 1 3 12 18 17 10-6-1 2 1 4v2l2 3h1l2-4v-2l-1-4q18 3 25-4l1-3 16 3-6 7q-19 2-29 12 12 4 12 21-8 6-6 24l-12 23q2 17-6 24v19l-12 17q2 21-8 29h-2l-14-23 6-12-5-9-22-9-6 5-6-5-6 5-3-4v-25q8-7 6-24l-2-5-2 1-5 9-8 5-10 38-3 1-4-1-2 1q-5-22 6-27l1 2 5-1v-5h-2l2-8 12-14q-2-17 6-24l3-1 5-17 13-13 13-31h2l1-7zm-4 37l-11 7-4 5 1 3 5 3 9-1 3-4-3-13zm117 3v4l-23 37-1-8h2l4-1v-10l12-17 6-5zm-30 27l2 1-1 3-5 4-1 3-1-5 4-5 2-1zm-1 22l1 1-2 6h-2l-1-4h-2l4-2 2-1zm-11 6v7l-4 1-2-2 6-6zm-6 20l4 2 2 3 1 1h-2l-3 1-8 23v17l5 1h1l-6 12v37l-2-1-4 6v49l-3-1-20 12-1-2 12-14-6-5-1-3-5-3 1-3h5v-30l12-35v-25l12-23q-3-14 4-18l2-1zm-226 19l4 3-4 1v-4zm290 5l4 1-6 5-1-1 3-5zm-291 2l11 16-1-1-4-2-1 2q-8-4-5-15zm284 10l3 2 1 4h-2l-5-1 3-5zm-189 9v22l-5 7-1-2 5-11-1-1-9 11-1-17 4-6 8-3zm-204 15q14-4 18 4v3l-16-1-2 5 1 1-7-3v-3h-5l11-6zm486 4l1 2 1 1-7 9-5 4-2 4 2 1-7 15-14 12-5 2-5-3-1-3 4-5 7-4 31-35zm-294 9l1 17-1 7-4-1-2 1q-3-18 6-24zm-65 21l13 14 6 1-2 5v2q-1 13 8 16l-2 1 8 11 12 1-2 5 4 2 6 9 14 8v5l-6 3 3 3 3 1-2 16-32-30q-1-19-13-26l-2 1-17-27 1-21zm225 68l3 2 2 4-9 2-3 4h-3l10-12zm-186 36l2 1-3 5-3-1 4-5zm74 12l12 4 1 2 35 10 1 2 5-2v-4l-5-2 7-8 16-2 1 7-1 4 7 1 5-3-1-2 2-1 4 3-8 9-14-6h-2l-5 2-2 4-2 1-2 18-3 4-3 1v-1l-1-11-5 2 1 10h-9l-4-5 6-1 6-11-3-1-9 6v-1l-1-11-11-3-1-3-5 2 2 4 8 6 2 4 1 2h-1l-24-15-5-12 5-3zm-287 96l4 4 1 3-5 8-1-3h-2l3-12zm12 6l5 1-2 4-4-2 1-3zm77 66l11 9-2 3-3 1-1 3-5 2v-1l-1-11-5 2-2 4-4 2 1 4-7 1-4-1-2 1 7-13 17-6zm24 4v10l-2-2-4-1 6-7zm9 9l3 3 1 2 29 1-3 5-3 1-15 17-15-3v-15h-3l3-5v-2h1l2-4zm18 11l-15 8 2 4 10-2 6-8-3-2z"/></g><g fill="#11083e" stroke="#11083e" class="B"><path d="M717 114l3 3v4l-4-1-2 1 3-7zm-165 16v3l-3 4-6 1v-1l9-7zm-38 20l2 1-5 8q-20 5-30 18l-1-3h-5l26-18 9-1 4-5zm20 16l1 2h62l21 12h13l16 8 53 48 32 58v61l-8 23-7 6q-5 16-18 24l-15 8 1 4-12 2-1-8 26-40 13-13 7-19 2-1-1-4 7-16-14-21q-7 11-22 13l-4-1-2 6-6 1 2 5-8 2-3 4-3 1v1l-6-3 3-5 9-3v-3h-6q-17 15-41 23l-1-5 14-24 23-6 9 6q6-11 20-13l-1-5q-16 2-20-6l-6 5q-7-7-21-6l-1-11-9-2-25-16h-29l-2 19 6 16-2 1-16-7-7-23-9-2-13-10h-11l-2 4q11 6 14 20l-8 2v23l7 18-1 4 5 1h1l1 6 3 2 4 10 10 2-8 27-19 19-3-1 18-38-40-34q-11-11-8-35l18-34v-8l-6-11-2-18-8 7-5 9-8 5-6 11-21 15-9 1-1-13q6-23 21-35l4-13 11-8 1-4 11-1 1-5 23-7-1-4 13-3zm-68 2l2 2-2 4 1-2v-3l-2 1 1-2zm285 45l5 15h-2q-6-4-3-15zm7 21l4 2v25l-5-2 2-1-2-5h-2l3-19zm-328 12l2 1 1 5 6-2-1 4q4 20-5 27l-1-5h-3l2-3q-9-5-5-21l4-6zm-244 3v3l-3 6-2 1-1-4 6-6zm186 1l1 2 1 1-3 1-2 4h-2l5-8z"/><path d="M294 252h31l28 11 16 14 6 11 9 9-1 27-10 4-1 7v2l-9 23h-3v-27q11-9 6-33l-12-15-1-9-10 4-4 8-15-1-1-11q-11 0-15 8l-15 26-5 2-6-3-1-15-11 1 12 20-8 13-3 1-1-1q7-3 6-14l-1-3-13-17-4 2v11l-12-1-18 8-3 9-9 3-9 34h-3l-1-6-10 4-1 15 8 17 28 16-2 8-11-2-8-16-3 1 1 6-1 6 3 5-3 1v1l-7-8h1v-6l-7-2-6-21v-2l-2-4 3-1q-10-7-6-27 8-6 8-19 14 0 20-8l2-21 14-14v-2l18-10v-2l23-11q20 3 29-6z"/><path d="M177 264l3 3-15 21-2 1-1-1 7-19 2 1 3-5 3-1zm196 1l5 8 10 3 2-4 1 4-4 6-3-1v-3l-10-4-1-9zm-210 28l5 4-1 3-3-1-1-6zm288 1l11 1v5l-12-3 1-3zm209 42v6h-4l-2-2 6-4zm-282 3v15h-8l2-3 6-12zm-21 27l3 1 1 23-1 4q-9-7-6-25l3-3zm21 4v3l-5 7-1-1 6-9zm131 13l7 3 1 6h-1l-7-9zm201 28l1 3-2-1 1-2zm-469 4l9 5-4 1 3 5 3 3-2 3h-5l1-4-6-4 1-9zm-19 2v20h-1l-5-13 5-3-2-1 3-3zm492 2l2 2-7 9-4 2h-3l7-10 5-3zm-497 19l1 1-4 5h-4l1-3 6-3zm3 0l10 6-2 1 2 11h-10l2-3v-3l-6-2 3-4h3l-2-6zm-34 6q11-1 15 6h-15v-1-5zm618 6l3 1-2 5-1-2-5 2-1-2 6-4zm-300 6l2 1-9 17h-4l9-17 2-1zm306 11v2h-1l1-2zm-413 4l8 9-1 1-7-10zm101 6v4l-17 35-2-11 13-24 6-4zm-272 3h30q3 7 15 7l-1 4 3 2 9 20-13-13-17-2-1-12-5 2v10q-22-5-30 4l1 2 5 3-1 3-17 6h-11l-1-3 4-3 6-12 7-2 5-10 12-6zm594 5l-3 4-1-2 4-2zm-130 3l1 3v1l1 1-2 4 1 1-6 1v-1l5-10zm-52 10l4 2 2 4-2 1q3 20-5 29l-1-34 2-2zm-175 4l5 3 2 5h-5l-2-8zm23 8v13q-8 7-6 25l-3-1-8 14-1-15h2l4-1q-4-21 6-28l3-1 3-6zm-258 6l1 1-1 2 7 12 5 3h-5l-11-5-2-9 6-4zm508 0l2 1-1 3-4 2 4 1-16 14 11-12v-3h-2l2-4 1 3 3-5zm-194 12l4 2q-4 24 6 34v35l-16 7-2-36 6-11 2-31zm-257 6q12-3 15 3v3l-15-6zm135 13v30l-1-1h-5q-3-21 6-29zm13 2l5 9h-2l-5-6h1l1-3zm-52 3l3 3v3l-6-2 3-4zm99 3v10q-10 10-6 36l8 11 4 1-1 11-11-1-6-17h-7v-2l-1-3 2-1-3-5 2-1-7-5 6-1 2-4 4-3 2-4 3-1 9-21zm-17 40l-1 2 6 3v-2l-5-3zm-9-37l2 1-3 5-3 2v18l-6-2-1-5 1-5-7-2 2-1 3-5 8-1 4-5zm-69 1l3 5 2 2-1 4-5-1 1-10zm-88 5l13 2 2 11-3 5-9-2v-4l-5 3v1l-1-13 3-3zm375 12l4 2 4 10 10-8v3l-7 9-11 2v-1l-1-4v-2l-2-5h-6l9-6zm-354 6l6 4v2h-14l8-6zm319 3l12 9 5-3 1 3 1 1-1 3-1-3-13 23-5-1 1-32zm-204 10l11 24-5 7-1-2-5 2-1-4 6-11-5-16zm61 5l10 2-1 22-11-1 2-23zm-361 9l1 2h3l1-2 2 9 5 1-1 4 6 4v6q-15-8-17-24zm525 9l2 2-1 4-5-1 4-5zm-33 4l11 4q-1 12-9 16h-3l-1-6 2-14zm-492 8l5 1v5l-6-2 1-4zm361 0l10 10v2l-4 2-2 4 1 3 1 3h-6l-2-6 6-9-6-7 2-2zm-61 2l5 7 12 5v24l-12-13 6-1-12-15 1-7zm-252 4l5 4v2l-6-3 1-3zm6 7l5 10 1-2 4 3h-7l-3-11zm12 11l8 6h-5l-3-6zm443 4v2l-5 8-1-2 6-8zm-410 2l14 10v2l-6-3-1-3h-8l2-1v-4l-1-1zm237 0l17 16v2l-18-15 1-3zm30 0l9 8 2 9-2 1q-10-5-9-18zm150 5l4 1h1v8l-5-9zm-401 7l10 4v2l-10-6zm269 0l29 22-2 8 1 1-11 5-11-5 9-2 2-5-5-9-13-4 1-11zm113 0l2 1-2 7-6-3 2-3 4-2zm-132 6l6 2-1 2-5 2v-1-5zm-319 6l13 1 3 5 3 3-1 3q-14 2-19-5l2-1-1-6zm290 0l11 5 6 4 14 9h-2l-30-15 1-3zm123 6l7 1-5 3v10l-6-8 4-6zm99 0l2 1-8 5-1-2 7-4zm50 0l8 1-15 5v-1l7-5zm-192 12l8 2 15 16h-4l-19-18zm-328 48q16-4 20 4l1 1h3l4-5q15-3 20 6l2 3 5 2 3-1 12 3 3 16h-1l-2-5h-23l2-4-28-8h-2l-19-12zm32 6l-1 3 12 3v-2l-11-4zm422 0q28-4 39 10v2l-6 1-6-1-1-6h-29l3-6zm-317 12q23-5 31 6h-34l-1-2 4-4zm113 6l3 1-2 5h-7l6-6zm-196 12l31 12-4 1q-6-8-20-7l-7-6zm284 0l5 4v1l-6-2 1-3zm-252 13l5 3v2l-5 2v2l-2-5 2-4zm89 35h27l8 6-5 1-4-1h-2-24l-16 6v-1l16-11zm35 0l31 14-1 2-5 2-25-18zm-70 2l2 4 8 6-5 1-4-1-2 1 1-11zm-50 3l7 10-9-8 2-2zm50 23l5 3-1 5-5-1 1-7zm-119 1l2 2-9 7-2-2 3-4 6-3zm347 1l7 1-8 5v-1l1-5z"/></g><path d="M343 118l9 8h-4l-8-5 2-1 1-2zm22 13l11 7h-4l-8-5 1-2zm25 6v2l-3 5-5-5 8-2zm-134 1l2 1-6 8-5 2-1-1 10-10zm272 12l6 3 1-2 5 9-12 3-10-1-2 1 8-11 4-2zm-288 4v5l-7 3 7-8zm264 14l1 1-2 5-5-1 2-3 4-2zm-184 66l4 3-2 3-4-1 2-5zm-44 6l2 1-3 1-2 4h-4l3-4 4-2zm7 12l10 1q-6 7-20 5v-1l10-5zm169 6l10 1-3 5-9-2 2-4zm-283 5l7 2-3 1-2 4-3-1 1-6zm78 1l1 1-7 5v2l-1-4 7-4zm-67 4v2l-12 18v2 6l-6-3 2-5 2-1 14-19zm138 8l6 2 2 10 14-1 6-10 7-1 4 12-4-4-7-2-13 24h-3q1-13-7-16l-13-2-16 22v-1l20-31 4-2zm-95 5l1 2-14 14v5l-7-2-14 12-3-3 12-12 24-14 1-2zm154 7l7 4v4l-7-8zm-103 6l8 2 1 14-2-2-5-1 3-1-2-5-1 4-6-7 4 2h2l-2-6zm-28 12l9 1-26 21-1 3 6 10-12 1-6-3v-3h-2l4-12 9-3 3-9 16-6zm139 2l5 16-3 6-2 1h-2l-9 5-2-6 4-5 8-2 1-15zm-207 4l2 9-12 11 10-20zm11 6l3 3 1 1 3 2-9 3-1-6 3-3zm551 0l10 2-1 4-11-1 2-5zm-374 2v5l-5 7-1-1 6-11zm-96 9l1 1h-1v-1zm-84 3v5l-5 7-1-1 6-11zm199 3l5 5 1 2-1 2-9-2-3 2 4-8 3-1zm-174 15l2 4 3 2-1 4h-8l4-10zm168 0l6 10-1 2-10-7 4-1 1-4zm-181 4l6 2-1 4-10 1-1-1 4-5 2-1zm162 1l1 5 3-1 2-4v5l-5 10-1-4-5 2-1-2 6-11zm-179 9l5 8h-2l-5-6h1l1-2zm12 3l5 16h-1l-4-16zm-11 11l4 2v5l-4-1-2 1 2-7zm179 4l7 3-4 5-4-1 1-7zm-169 18l6 3v5l-8-5 2-1v-2zm41 7l9 7-4 2-6-2 1-7zm-23 6l1 7-1 2-6-7 6-2zm7 17l5 7 1-3 1 4h-2-7l2-8zm-61 14l1 1-4 5-14 5-1-4 18-7zm6 0l8 6h-1l-7-3v-3zm120 28v13h-1l-5-8 6-5zm-25 8l7 4 1 2h-1l-7-6zm386 24l5 1 1 5 1 1-3 1-4 9v-17zm-453 6l4 1-2 5 11 1-16 5-1-5 4-7zm290 2v5l-5 7-1-1 6-11zm-250 4l5 1-1 4 6 5 6 20h-1v-2l-2 1 1-2-3-7-1 3-3-4 3-1-5-8-2 1-5-9 2-2zm449 5v2h-1l1-2zm-205 9v15l-4 1-2-5 6-11zm-175 4l12 1-5 3-1 2-5-1-1-5zm163 3v15l-5 8-1-2-5 3 3-4 8-20zm234 2l1 1h-1v-1zm-395 4l5 4q-3 14 4 18l-1-1-14 2-1-4q8-5 7-19zm117 3l4 1-3 1-4 9-1-4 4-7zm10 0l10 3q0 11 8 15l-6 2-1 3-3-10 2-1-5-9-5-3zm-43 10l5 9-1-1-3-1-1-4-1 3-2-3 2-1 1-2zm-214 2l3 3-5 12-1-12 3-3zm82 0l2 1 3 10h-1l-4-11zm456 0l1 1-8 7 3-6 4-2zm-324 11l4 1h1l-5 11v-12zm-72 2l8 11h-2l-9 6 2-3v-3h-3l4-11zm155 1v5l-5 7h-2l7-12zm169 1l12 21h-1l-12-9 1-12zm-530 3l5 2 4 10-2 1v3l-7-16zm268 0l3 3v27l-6-2v-25l3-3zm41 0l4 2 8 16h-5l-6-12-3-1 2-5zm247 0l8 1-10 7-1-5 3-3zm13 0l8 2-1 4-6-1-1-5zm-507 3q9 7 5 28l6 8-3-3-3 1-4-1-2 1 1-34zm521 0l1 2-10 7 9-9zm-285 3l8 4 1 2-12 2v4l-6-1 3-5 3-2 3-4zm27 40v16l-3-2-2-7 5-7zm-255 1l1 1h-1v-1zm10 17q8 12 23 18v2l-11-6-1 2-4-1 3-1-4-3-1 2-5-10-1 3-2-3 2-1 1-2zm-50 2l9 6h-2l-7-6zm517 17v6l-5 2-1-2 1-5 5-1zm-425 3l1 3 1 1h-1l-1-4zm582 3v2h-1l1-2zm-570 4l5 3 1-2 3 2-3 1 11 5 1-2 5 11-7-7-16-11zm-60 2l6 2-1 2 11 7 1 1 1 1-1 5-2-4-3 2 2 3-3-2v-4h-7l1-4-10-7 5-2zm282 5l5 7 2 1-2 1v1l-10-7 5-3zm-266 14l7 4-6 4 1 4h-7v-1l-1-4 7-2-1-5zm73 0l6 3-2 3-4-1v-5zm330 0l6 3-2 3-9 2-1-4 6-4zm139 0l1 1-11 5v-1l10-5zm-253 5l11 7h-4l-9-5 2-2zm60 5l1 2 1 1-2 5h-8l7-5 1-3zm-267 2l3 3-9 15-9-1 2-5 9-2 4-10zm239 0l15 6h-5l-10-6zm219 30l12 6h-4l-8-6zm-474 18l9 6h-2l-7-6zm410 6l1 1-2 5v2 3l-6-2 3-7 4-2zm29 11l5 2-5 2-1 2-5-2 1-3 5-1zm-319 1l7 4v2l-7-6zm94 0l9 3v3l-13 6 1-2v-4l-9 6 1 1-16 8-5 6-18 3-10-6-2-5 2-1q3 8 17 6l43-24zm24 0l3 3v3h-6l3-6zm208 4l7 9-1-1-7-2-1-3 2-3zm-441 2l7 1-10 6-1-1 4-6zm89 0l13 1-20 10-1-1 5-9 3-1zm191 6q10-2 12 6l-2 1v1l-10-4v-4zm-258 6l4 1 1 5h-5l-2-4 2-2zm44 0l13 1-4 3v1l-5 1-4-6zm21 12l5 4v2l-4-1-1-5zm217 0l8 6v2l1 3-1-1-7-4-1-6zm26 0l8 4v2h-12l4-6zm-15 9l2 3h-3l1-3zm-228 19l6 10-1 3-5-13zm79 8q12 1 17 10l-4-4-13-6zm223 0l3 1 3 11-9 1-6-1 9-12zm-292 6l12 6h-5l-7-6zm205 18q13-2 17 6l1 3-1 3h-12l1-4-4-2-2 5 1 1h-11l4-2 3-4 3-1v-5zm-23 4l9 8h-10v-1l-1-4 2-3zm-186 9l6 9 3 2h-4l-8-5 1-2 1 1 1-5zm423 11l9 8-1 1-8-9z" fill="#460a39" stroke="#460a39" class="B"/><path d="M297 162l3 3v3h-6l3-6zm16 10l5 4-1 4-5-1 1-7zm147 8l2 1-5 7-1-1 4-7zm344 9v3l-3 6h-3l6-9zm-6 25v2l-3 6h-3l6-8zm-35 37l4 1h1l3 12-3 1 6 11-3 6h-3v-12q-9-5-5-19zM252 510l12 2-1 4h-20l9-6zM85 624l16 12 1-3q-10-5-3-9 6 14 27 14l-1 4h-22l-20-12 2-6zm84 34l3 2-3 1 8 5h-5l-3-8zm584 26l3 1-5 8-1-3h-4l4-2 3-4zm-37 36l12 6h-2l-10-6z" fill="#980eaa" stroke="#980eaa" class="B"/><path opacity=".745" d="M466 169l1 1-2 4 1 1-3 1-1-1 4-6zm-39 99l4 6-4 2v-8zM205 396l2 1 3 7-2-2h-4l1-6zm24 10l3 2 1 3v2l-6 1 1-2 1-6zm-7 114l2 8h-9l7-8zm420 4v4l-5 10-1-3 6-11zm-407 2l4 7-1-1-4-1 1-5zm6 10l4 9-1-1h-2l-1-8zm2 10l3 1v1l-3-2zm16 24l2 1 2 4-1-1-4-1 1-3zm-126 36l4 2v3h-4v-5zm42 6l5 4-1 7h-4v-11zm55 49l3 1v3h-4l1-4zm225 11l7 4v1l-7-5zm-216 78l9 1-3 4h-4l-2-5z" fill="#280f29" stroke="#280f29" class="B"/><path opacity=".478" d="M245 190l1 1v9l-5-2 2-5v-2l2-1zm449 500l4 1-11 5v-1l7-5zm-415 96l9 1v4l-9-5zm18 6l11 6-2 1v3l-2-3h-2l4-1-9-6zm13 12l2 1v7l-5-3 1-4 2-1zm37 18l7 4v4l-7-8z" fill="#1d0b4f" stroke="#1d0b4f" class="B"/><path d="M343 206l6 12-4-1-2-11zm-29 28l5 1-1 4 1 1-7-1 2-5zm49 5l9 11-3 2 2-3-8-10zm-98 1l10 1-5 3-1 2-5-1 1-5zm35 6q16-2 23 6h-33v-1l10-5zm-64 6l4 2-1 4-4 3-1-3-11 8-1-4 12-7 2-3zm91 0l14 6h-4l-10-6zm-147 5l1 7h-2-6l2-6 5-1zm165 1l12 6h-2l-10-6zm-105 9v6l-18 9v1l-3-1 21-15zm106 15l10 6-12 2-15 46-5-1-7-23-14-5q-6 11-22 11l1-2-1-4h-2l-2-4 2-1 11 5 13-11 7-13q14-2 18 8l3 10 3-1 12-23zm15 10l5 13h-1l-4-13zm-163 2l5 1-16 13-1-2 6-9 6-3zm73 0l5 4v2l-6-3 1-3zm6 7l2 5h-2v-5zm-21 5l4 18q-14-3-19 4l-4 13-3 1v-1l-6-11 4-5q16-5 24-19zm-79 6l-3 4-5 10-1-8h2l7-6zm37 24l2 1 2 3 3 2-10 3-1-2 4-7zm146 13v6l-5 10-1-5 6-11zm-144 5l12 2-1 4h-12l1-4v-2zm162 2l6 8-9 8 8-9-5-7zm-174 3l5 2-8 5-5-6 8-1zm-10 1l-1 2 5 15h-1l-5-15 2-2zm48 0l22 2-1 4-23-1 2-5zm-43 19l8 11h-6l-2-11zm103 11l4 2 48 117-16 1-8-17v-13l-18-21 6-3v-6l-18-35v-23l2-2zm17 66l-1 3 5 3 1-2-5-4zm-94-42l8 1-5 3v2l-5 1-1-4 3-3zm159 3l1 4-1 10 5 1h1l-5 14-1-2-6-18 6-9zm-126 5l7 11-4-1-3-10zm-21 16l-5 6-4-2 3 1 6-5zm144 12l-2 3 17 18-18-17 3-4zm-95 12l2 4-3 2 2-3-1-3zm378 35l-16 17-5 13-1-5 6-11 16-14zm-436 17l-2 3-13 11q-24-3-35 6v-1l8-16 1 5 20-6-3 4 2 2 10-1 4-5 8-2zm414 15v18l-5 9 7 19 8 7 2 1 1 5 1 1-7 4-13-20v-33l6-11zm78 2v3l-5 16-1-10 6-9zm-402 2v2l-11 15 9 13 8 3 2 10 10 2 6 16h-9l-8-5-1-3v-2l-4-1-6-8-8-14-1-16-4-2-1 2-3-4 4-2 4 1 3-4 10-3zm-86 1l6 2 6 9 1 1-4 1 5 2 1-2 5 10 1-4 2 5-3 1 6 10 1-4 2 5-3 1v2l-26-39zm230 0v3l-11 23-1-2-4-1-2-5 12-15 6-3zm-39 6l3 2-1 2-7 2 5-6zm-48 12l4 1-1 4 1 1-6 1-1-4 3-3zm-201 13l6 14v15l-4 2-1 3-1-11-6-14 6-9zm522 5l2 1-7 9-10 8-3-2 1-5 4 1 1-4v-2l12-6zm-306 1v6l-5 8-1-3 6-11zm24 2l1 4-1 4 4 3 4 10h-7l-2-5v-2l-2-4-6-1-3 2 4-7 8-4zm-148 3l10 4v2l-10-6zm40 6l6 1-3 5h-4l1-4v-2zm88 0l3 6 1 1-2 4 1 1-6-3-1-3 4-6zm-219 19l3 5 2 1v7q-8-3-5-13zm-5 11l4 2v7l-6-4 2-5zm257 17v2h-1l1-2zm12 17l5 8-6 1 12 14-18-17 1-4h5l1-2zm-210 19l8 2-4 5-5-1 1-6zm12 5l23 18-1 2-16-6h-25l2-4 16-8 1-2zm-53 2l16 8-1 4-6-1-2-4-9-4 2-3zm7 13l1 1 2 3 1-4 3 4 8 3-1 4h-7l1-4-10-4 2-3zm71 5l4 2 1 4h-5l-2-4 2-2zm-82 6l8 2-1 4-4 1-1-2-2-5zm330 6l13 6h-5l-8-6zm-255 12l6 1-1 4 1 1-7-2 1-4zm440 42q11-2 15 4l1 2h-6l-10-6zm-25 6l-1 2 5 11-5 8q-7 6-22 3l-3-5q17 3 23-4l1-3-3-5 3-2 2-5zm2 0l21 1-1 4v2l2 3 3 1h1l-6 1-20-12zm-319 6l-3 4 1 2 1 1-3 1-4 10 2 1-2 3 17 19-10 1-5-12-9-3-1-3 2-1 3-4h1l-4-1 4-3 10-15zm-2 30l1 5 4 1v-2l-5-4zm33-30l8 12-1-1-10-4 5-1-2-6zm86 0l2 1-8 6-5-1 11-6zm11 0l15 1-2 5h6v-3l-1-3h11l20 10v2h-42l-9-5-3 2 6-3-1-6zm-209 6l15 1 2 5-16 1-9-1 8-6zm363 0l3 1-6 11-6-1 9-11zm65 0l4 2 2 4h-6l-2-4 2-2zm-301 6l5 4v2l-6-3 1-3zm-72 6l5 4 1 2h-5l-1-6zm119 4v3l-3 4-7 1v-1l10-7zm187 2l5 4v2l-6-2 1-4zm-40 6l-3 4 1 2h11l1-2 17 11v3l-17-6h-21l-3-3-1 3-3-5 3-1q11 1 15-6zm42 12l3 1-1 5h-5l3-6zm-300 6l12 6h-2l-10-6zm149 0l4 3 1 3 8 1-13 12-1 3-1-20 2-2zm298 5v2h-1l1-2zm-126 7l24 2-5 7-13 5 3 4h-2l-7-3v-9l-9 6-3 6v2l1 4 1 1-7 9-1-10 12-21 6-3zm-275 6l9 1-16 11-11-5q12 1 17-4l1-3zm55 0l10 2v6l-10-8zm125 24l5 2-1 4-4 2v-8zm16 0l12 6-5 1v1l-1-3-6-5zm-34 3l6 7-8-5 2-2zm94 57l12 6h-4l-8-6z" fill="#750b30" stroke="#750b30" class="B"/><path d="M158 270l4 2v4l-6-1 2-5zm606 24l3 1-2 5h-3l2-6zm-6 12l3 1-2 5h-3l2-6zm4 268l1 3-22 29h-3v-6l-4-1-2-9 30-16zm-54 32l12 2q3 20-6 29l4 5 8-3 2-3 4 2-1 4-15 5q-5-8-20-5l-24 14 1 4-11 6-2-11 9-6q3-26 23-35l16-8zm103 12l13 1q-22 18-57 23l2-3 18-12 24-9zm-159 18l2 1-11 13-1-1 6-11 4-2zm-116 24l16 6h25l16-6 1 3-11 9h-31l-18-7 2-5zm95 0l1 1-9 5 2-3 6-3zm49 0l13 6h-8l-2-4-3-2zm95 38l5 10-24 2 6 7 18 4v2l-26 9q-6-8-21-6l-1 2-11-7 29-2-1-5h-11l-17-11 29-3 1 2h23l1-4zm-85 4l5 1-11 9v2l-6-1 8-9 4-2zm-413 96l5 2v4l-6-3 1-3zm6 12q21 4 34 18h-5l-26-17-11 5 2-3 6-3zm41 18l12 2-1 4-22 6-11-5 22-2v-5zm-84 30l5 1-13 5 2-3 6-3z" fill="#7509d8" stroke="#7509d8" class="B"/><path opacity=".055" d="M430 276l2 1v7l-5-3 3-5zM247 420l11 4v8h-8l2-3-5-4v-5zm462 0l3 1-9 7-1-4 7-4zm-491 19l4 3v2l-5 2-1-2h-2l4-5zm590 11l4 1-7 6 3-7zm-4 4v2h-1l1-2zm-311 20l5 1-5 7v-8zm201 6l2 1-5 9-1-3 4-7zm-208 26v4l-5 8-1-1 6-11zm244 16l2 1-11 13-1-1 10-13zm-252 25l1 1 1 7-11 23-1-16 10-15zm-180 29l2 1 1 3 3 2h-6l-3-1 3-5zm165 19l5 3v2l-6-3 1-2zm8 89l9 1v4l-9-5zm-218 72l11 4v2l-12-3 1-3zm16 0l7 4v1l-7-5z" fill="#110c25" stroke="#110c25" class="B"/><g fill="#e70992" stroke="#e70992" class="B"><path d="M344 336l10 2-9 10-3-1 2-11zm42 12l4 2v5l-6-2 2-5zm-156 78l4 2-1 4h-5l2-6zm137 12l5 1-3 5-3-1 1-5zm-47 108l4 2-1 10-5-1 2-11zm40 0l12 4-1 26q-8-13-29-13l14-15 4-2zm54 46l1 3-1 3 18 12v2h-6l-18 12-5-3-2-9q-11 0-15-7l-2-9 5-2 5 11 13 1 7-14zm439 26l14 1-14 11 3 1-3 1-1-2-8 6v1l-9 7-1-2h-6l-53 24h-43l-30-13 2-5h12q6-8 22-6l1-2q3 10 19 8l8-6q35-5 60-22 4 6 16 4l11-6zm-102 57l5 5-1 4-4 2v-11zm-515 9q17 2 22 16l-1 2q-8-11-23-13l2-5zm446 90q14-2 19 6h-5l-11-5-1 6 4 5h21q6 8 23 6l1-2 3 2-3 1 17 5 1-2 32 21 2 5h-1l-15-6-2 12-11-1 6-9q-20 1-29-8h-31l-23-12h-7l-9 5-21-14 2-3q16-2 23 6l17-6-2-6h-4l4-6zm-300 1l14 5 1-3 4 3-4 1 17 15v2l-18-12q-10 10-34 6l-2-8 22-9zm-110 5l4 1 1 5h-5l-2-4 2-2z"/><path d="M504 780q13-1 18 6h19l4 4 3 8 9 2 13 10 25 6 10-4 19 8-1 8-15-6-2 4 36 21q-5 35 14 47l-2 1 2 11 4-1v3l1 16h-3l-15-12-1 4 2 2-8-3-1-27-5 1v1l-7-8h1l-1-6-5 1v1l-11-17-13-4-3-11-17-18-4 2 2 16h-14l-10-7q-1-19-13-26l-19-4-1-11q-25-4-35 6l-18-7 8-9 23-2 11-6zm50 42l-2 5 5 1 1-4-4-2zm-258-36l4 2 2 2 3 2h-8l-3-4 2-2zm22 0l6 2-6 10q-10 2-12-3l1-3h5l2-4 4-2zm254 66l4 1-1 5-5-1 2-5z"/></g><path d="M868 618q11-3 14 3l-2 3h-11l-15 6v-1l14-11zm-16 12v3l-7 3 3-4 4-2zm-120 6l6 4v2h-7l1-4v-2zm-36 6q15-3 20 6l-14 2 2 4 28 12h43l53-24h6v3l-22 16-2 7 6 8-5 2-10-6-25 19-2 11h-24q-2-14 6-17v-2l-1-5-10-6h-50l1-4q-7-10-24-9l2-5q15-2 22-12zm0 60h25q8 13 29 14l-1 4h-59l-11-5 5-1 8-10 4-2zm-11 73q9 8 29 5l18 10v2q-17 2-23-6l-23-1-1-10zm49 17q11-2 16 4v2l-16-6zm-448 19q11 17 38 19l-1 4h-24l-11 6-25 6-11 9-24 9v-1l-1-5-5 2-11 12-2-8-11 9 1 3-12 2-1-2-17 12-1-2 40-34 15-21 5-2 1-3 13 2q6-8 24-6l20-11z" fill="#cf09e5" stroke="#cf09e5" class="B"/></svg>