<svg xmlns="http://www.w3.org/2000/svg" viewBox="0 0 318 318" xmlns:v="https://vecta.io/nano"><style><![CDATA[.B{stroke-width:3}]]></style><path opacity="0" d="M1 0l317 1v197h-18v-6l-6 1v5h-6l3-10 9-2 1-3 11-3v-6h-10l4-2 1-4h5v-6h-24l1-6h5v-6l-10-2-2-10h-6v-12l-8-1 2-16-11-1-1 6-12-3v-3l-10-2-4-9-10-1v-6h-6v-6l-12-3v-3l-6-3v-3h-6v-6q-13 2-18-3v-3l-18 1v2l-6 3-36 1-3 5-3 1-3 5h-3l1-6h5V54h-6v-6l-18 1-3 5-3 1-3 5-3 1 1 11 11 4 1 2 11 1 1 5 5 1-2 15-10 3 1 5 5 1v2l-11 3-1-6h-6v-6l-30 1v17l-12 1v5l-6 1v5l-6 1-3 11-3 1 1 5 4 3-2 3-3 1v11l-12 9 1 1 17 3v7l-17-2-1 6 6 1-3 11-3 1 1 11 1 1-2 35h6l1-6 11 4 1 2 5 1v5l-6 1v5l-6 1 1 5 5 1-3 5-3 1 1 5 5 1v5l-6 1 1 11 5 1 1 5 5 1 1 5h5l1-6 17 1 1 5 65 1v5H0L1 0zm120 30l-1 6h6v-5l-5-1zm12 0l-1 6h-5l-1 6h12v18h6V43l6-1v-5l-11-1-1-5-5-1zm-12 12l-1 18h12V49l-5-1-1-5-5-1zm116 42l-3 4 4 2 2-3-3-3zm46 30l-1 6h6v-5l-5-1zm-220-4l1 1 2 7h-1l-1-4h-3l2-4zm196 10l7 1-2 8-7 3-1-1 3-11zm54 90l5 1v5h-6l1-6zm4 25l1 1v82h-42l1-6h17l4-12h2l4-6h2v-24h-3l-3-11 4-7h2l4-6h2l3-10 2-1zm-274 9l3 7-3 1v-8zm84 68l11 1v5h-12l1-6zm132 0l11 1v5h-12l1-6z" stroke="#000" class="B"/><path opacity=".118" d="M121 30l5 1 1 5h5l1-6 5 1 1 5 11 1v5l-6 1v17h-6V42l-12 1 1 5 5 1v11h-12l1-18h5v-6h-6l1-6zM85 48l17 1 1 5 5 1 1 17 5-2 1-4h37l4-2 1-4 17 1 1 3 17 3 1 5 5 1 3 5 3 1 1 3 11 3 1 5 5 1 1 5 9 3 5 8 9 2 1 3 11 2 1-6 11 1v13l-11-2-1 8-27-14-5-11-22-7-6-10-33-20-26 12-14-6-15 13-2 17-4 1q-6 17-20 26l-35 9-3-6-4 3v3l-7 4v1l-5 4 4 4 1 1 1 4-4 1-5 17-15 1v4l-5-2 11-9 1-12 5-2-2-4h-4l1-6h3l3-12h5l1-6h11l1-6h5l1-18 29 1 1 5 5 1 1 5 11-2v-4h-6l1-6 10-2 1-15-6-1v-6H84v-4l-12-2 1-12 5-2 1-4 5-2 1-4zm4 12l-4 2-1 2 5 2 7-2v-1l-7-3zm14 12l-1 6h4l2-5-5-1zm-40 36l-3 6 2 1-2 4 2 7h2l2-4-2-13-1-1zm220 6l5 1v5h-6l1-6zm-18 10l11 3 1 11 5 1 3 10 9 2v5l-6 1 1 5 23 1v5l-6 1v1l-13-2-5 3 1 1 23 3v5l-12 3v3l-11 3-1 9h6l1-6 5 1 1 5 17 1v11l-6 1 1 5 5 1v17l-5 3-1 9-6 3v3l-4 1-2 13 3 4 3 1v23l-6 3v3l-4 1-2 11-18 1v5h-6v-6l-12 1v5H138v-6l-12 1v5h-6v-6H54v-6l-18 1v5h-6v-6h-6v-6h-6l1-12h5v-6h-6l1-6 5-2v-4h-6l1-6h5l1-6h5v-6h-6v-4l-11-2-1 6H6l1-28 8 15 27 2 3 17 2 1-2 5 1 1-10 8v3l-4 1-2 13 3 3 38 13h15q8-9 28-6l1 4 41 3 1 3 13 2 4-2 1-4 29 1 1 3 31 2 11-6h31l22-20-12-27q14-14 18-36l-5-3 5-7-3-3-8 5-1-5h-23l3-6h2v-11q7-5 6-18l-6-4v-21q-16 2-21-6l-3-11 12-3 1-6zM7 186q13-3 17 4 2 16-9 20l-3 1-3 5H6l1-12h3l2-11-6-1 1-6z" fill="#030103" stroke="#030103" class="B"/><path d="M89 60l7 3v1l-7 2-5-2 1-2 4-2zm66 3l1 1-5 2v-1l4-2zm20 0l5 3h-1l-4-3zm-10 3l39 27-6-6-25-15 4 6-5-7-7-4-7 5-2 4-5 2v-1l7-4-1-1-12 6v-1l20-11zm-86 6l5 3h-1l-4-3zm46 0l19 9-6 7-4 2 2 1-12 5 3-4 3-1-3-1 8-6-3 4 1 1 10-7-18-9-7 5 3-4 4-2zm-11 9l-3 4-2 6-1-2 6-8zm91 0l5 3h-1l-4-3zm-56 3l3 1-10 5 3-4 4-2zm38 0l9 7 3 6-2-1-5-9-3-1-2 1 1-2-1-1zm50 0l3 3-2 3-4-2 3-4zM102 96v2l-2 3-3 1v-1l3-1 2-4zm106 0l8 6h-1l-7-6zm21 0l4 3 4 7 3 2h-1l-4-2-3-8-3-2zm-109 3v3l-3 6h-9l6-3 1 1 5-7zm-15 3v2l-21 26-5 2v-1l20-17 6-12zm118 0l4 3 8 12 5 3-2 1 3 11 3 1-3 2 2 2 1 1-4 1-2 5-7-5-8 11h2l9-6 3 6q-15-2-19 7l-10 16-4-2-6-21 6-9 11-6 7-14 3-1 3 1 3 9h1l3-10h3l-8-6-4-10-3-2zm-160 6l1 1 2 5h-1l-1-4-2 1-1 3-1-1 3-5zm42 0v2l-2 4-1-1 3-5zm-10 3l1 1-5 2v-1l4-2zm13 0v3l-11 28-1-12-3 2-3-3 6-3v1l-5 3h3l2-1 1 1 11-19zm139 0l5 3h-1l-4-3zm-184 3l1 1 2 7-2 4h-2l-2-7 3-5zm172 0l14 12-9-9-5-3zm32 6l3 3-1 2 1 1h-1l-5-2 3-4zm0 2l-1 2h2v-1l-1-1zm-20 4l5 9-4-3-1-6zm8 0l3 3-2 3-4-2 3-4zm8 3l1 1-5 2v-1l4-2zm-218 3l3 3-2 3-4-2 3-4zm0 1l-2 3 3 1 1-2-2-2zm20-1l2 1-12 5v-1l10-5zm24 0l1 1-2 1 5 8 3 2-4 1 4 2v6l-5-3-1 3 9 9-17-11 2-1-9-11 7 5h8l-1-8-10 2v-1l10-5zm156 2l1 4h-1v-4zm-173 3v2l-8 5 3-4 5-3zm-48 1v2l-2 4-1-1 3-5zm15 0l3 3v1l-5 3-3-1-3 4 5 2 1-2 1 2-2 1v2l-1-2-5-3 4-5h1l4-5zm214 0l6 9 5 3h-1l-9-6-1-6zm-6 3l17 22h-1l-16-22zm36 3l2 4 3 2h-1l-4-2v-4zm-261 6l2 4-3 2 2-3-1-3zm249 0l1 1-2 1 1-2zm4 0l1 1v1l-1-2zm-222 1l1 1 1 4-1 3-3-2-14 21-2-3 1-2-3 2-2 5-1-1 6-8 1 1 7-20-1 2 1 2 9-5zm218 3l1 2h-2l1-2zm5 0v2h-1l1-2zm-243 2v2l-2 4-1-1 3-5zm243 6v2l-5 7 2-3 3-6zm-261 6l-6 10 4 2h-2l-5-2 9-10zm15 0v2l-2 4-1-1 3-5zm263 0l2 1-5 2 1 1 4 2h-2l-5-2 1-2 4-2zm7 0l6 3v1l-6 2v-1l4-1v-2l-4-2zm-277 6l1 1v1l-1-2zm58 0l3 1 8 11 16-7 1-5 5 4-6 8v24h-6l-23 12H55l-2-6h-8l2-1v-4h-2l4-1q4 7 18 6l5-3-1-3h-5v-6l-12-18 4-5q16 2 23-7zm-6 13l-3 10 17 1 1-4q-11 0-15-7zm18 18l-2 3 3 1 1-2-2-2zm188-31l1 1v1l-1-2zm-6 3l1 1 1 2 2 1-4 5 1 1-5 3 5 8h-1l-4-8-2 6-5-6 1-4 3-1 2-4 2 1 2-1-4-1 5-3zm-251 1v2h-1l1-2zm258 0v4l-5 10-1-1 5-10 1-3zm23 2l1 1-5 2v-1l4-2zm-273 2l-1 2v2l-1-2 2-2zm261 4l1 1-4 2-1 3-1-1 3-4 2-1zM37 197l5 2-2 5-4-2 1-5zm-25 1v2l-2 4-1-1 3-5zm12 0v2l-8 10 5-6 3-6zm6 0v2l-5 9 2 1h-2l-1-3 6-9zm235 5l-1 2-5 8 11 6-6 9-4 2 1 4-12 6-3-6q-6 8-20 6l-4-5 6-1-1-4-11-5v-3l-16 12-2-8 12-7-1-3-4 3-1-3 8-12 4 2 1 16 3-1 6-10 9-1 5 4-1 2-10 4-1 3 4 4 13 1 4-6 3 3 1 3 3-1 2-5-6-9 6-5 1 4 6-9zm-2 13l1 8 5-4-6-4zm-13 18l-3 4 3 1 2-4-2-1zM31 204l3 1 3 5-1 3-5-2 3-1-4-2 1-4zm242 0v2l-2 5-1-2 3-5zm8 6l1 1v1l-1-2zm5 0l6 5 2-1-3 2-5-6zm17 0l3 3-5 7 2 2-3-1v1h-4l-2-6 9-6zm-7 6l-1 2h1v-2zm-187-5l3 4 1 1 1 3-5 3v-11zm-97 2l-3 4-2 7 5 8 2 2-1 2 2 2 3 1 2 1h-3l-4-2-7-17 6-8zm271 0l5 9h-1l-4-9zm-148 9l3 1v5l-6-3 3-3zm137 2l-1 2 1 2 4 3v3l-6-2 2-8zm-224 4q8 9 27 6l3 4-3 8-9 4 2 2 2 2 2 22-3 6-8 3-1-3-6 2 1 8-4-4-5 1 11 11-23-23-2 2-1 3-1-1 3-5 9 8v-1l-6-10 10-8-1-2 3-5v2l-2 4h2l3-6v2l-3 5-8 5h2l15-12 3-11-12-9v-4l-11 6v-1l7-4-7-1 11-6zm9 43l-3 5h6v-2l-3-3zm43-43l2 1-5 10-1-4 4-7zm206 0v2l-17 28-1-1 12-18-9 8-2 5-1-1 12-14 1 1 5-10zm-162 3v7l-3 2-3-4 6-5zm150 1l1 4 2-1-4 2-10 17 17 32-23 20v-1l22-19-12-24-3 7 1 1-3-1 12 17-3 2-3-1-2 7h-2l-5-12h-3l-1-4-11-2-1-6-20-10v-2h-9l-1-6h-17l2-6h41l34-12 1-2zm-39 15l-3 5h6v-2l-3-3zm28 7v13l3-5-3-8zm-30 4l-1 3 6 3v-2l-5-4zm30 16l4 12 4 1 2-1-10-12zm-174-40l22 12 7 9 4 8-4 3 9 9h1l3-17 14 1-3 5h13l5-3 2-3 4 1-5 9 17 6 1 2 11 2-2 9-4-2-1-3-5 2v9l-3-5-14 3 3 3 8 4-2 2-18 1 2 3 2-1 4 3h-1l-4-2-1 2-3-5-8 5v-1l7-4-7-1 9-6 7 4v-1l-1-3h2v-6h-25l-5 3-2 3-9 3 1 1 3 2-9 1 10 5h-1l-17-6-2-5-3 2 2-3q11 2 15-3v-3l-5 3-3-14-9 5-3-5-2 1-2 7 3 3h-15l-7-10-11-5 9-15h3l6-11-6-1 3-6 13 5 1-2-4-9zm12 12l-1 4-6 3 1 5 8-6 9 6v-2l-11-10zm-17 6l-2 5 5 1 1-4-4-2zm1 19l-2 3 3 1 1-2-2-2zm30 0l-2 3 3 1 1-2-2-2zm182-37l1 1-4 2-1 3-1-1 3-4 2-1zm-272 6l9 6h-1l-7-5-2 4 4 11-3 2-3-5 4-2-4-7 3-4zm-26 6l5 3h-1l-4-3zm181 0l10 2v4l-12-3 2-3zm103 6v2l-2 4-1-1 3-5zm-96 6l3 3-2 3-4-2 3-4zm15 3v3l-3 6h-6l3-2 1 1 5-8zm79 3l2 6h-1l-1-6zM90 282l2 6 9 6H84v-1l2-9 4-2zm127 0l11 2 12 19-3-3-3 1v5q-17 2-24-5 13 2 17-4l1-3-3-5-8-4v-3zm-186 6l2 4 3-1v3l-5-2v-4zm9 0l5 7 9 5h-1l-11-5 2-1-4-6zm23 0l3 3 1 3h-8l-3-1 7-5zm97 6l2 1-2 5h-5l5-6zm105 0l12 6h-2l-4-2-1 2-17 6v-1l9-4-3-1 5-3 1-3zm-204 6l11 6h-1l-10-6zm34 0l1 1-11 5v-1l10-5zm22 0v4l3 2h-1l-5-2 3-4zm180 0v2l-2 4-1-1 3-5zm-138 6v4l3 2h-1l-5-2 3-4zm48 0v4l3 2h-1l-5-2 3-4zm38 0l1 1-11 5v-1l10-5zm-72 3l1 1-5 2v-1l4-2z" fill="#100704" stroke="#100704" class="B"/><path opacity=".49" d="M165 67l3 3 2 8h-9l1-2 3-9zm-8 5l1 1-7 4-1-1 7-4zm16 0l13 10v6l-6-8-4-1-3-7zm-48 1l11 5h-17l2-3 4-2zm14 6l4 3-10 7-1-1 6-4 1-5zm-25 3v5l-4 3-1-1 5-7zm75 2l15 10 1 2 21 9 9 13 11 6 13 24 11 3 1 5 5 1-5 13-1-2-5 2-3-13-16-21-1 2-1-1 1-2-1-3h-4l-2-12-4 1-2 9h-2l-2-10-5 2q1-14-7-18l-15-2-2-6-1 2-1-2h1l-6-10-3-2zm-62 6l3 1-14 12-1 3-2-1-5 3 2 1-2 1v-2l-4 1-1 3-1-3 4-7h2l1-6q13 1 18-6zm-27 24l4 1q-10 8-8 28l-4-1-2-6-1 2h-3l3-2-1-3-10 5v2l-6-2 1-6 11-2 16-16zm-5 12l-5 3 3 3 3-2v-3l-1-1zm-6 6v1h1l-1-1zm178-10l1 1v1h-2l1-2zM45 133l2 2-1 2-3-1 2-3zm20 0l1 1 1 4 3 1-11 5 1-2 1-7 4-2zm-31 11l2 1 1 5h3l2-4 1 4 1 1-7 21-5 3-2 5 2 1-2 17-6 12h-8l8-10 1-26h3l6-18h2v-6l-5-2 3-4zm59 0l3 1v1l-3-2zm200 25l1 1v3l-4-1 1-2 2-1zm-13 11l1 1-2 5h-5l6-6zm-9 10l5 14-4 1-2 11 6 1-6 15 2 2h-11l-1-4 4-2 6-9-5-3-1 4-2-3 2-1-5-3 5-8-2-1 2-1 1 1 6-14zm16 20l7 1-2 4-5-5zm-275 4v18h-1l-4-11 5-7zm271 0l5 10-3-2-2-8zm12 4l2 4h3l1-2 5 3-3 11-8 2-3-7 2-1 1-10zM14 234l4 4v1l-4-1v-4zm20 0l10 1q-4 7-16 5l1-2 5-4zm266 4v2l-9 12h-2l11-14zm-254 3l8 5 1-2 5 3-5 13-1-2-4 1-1 3-1-4h-2l2-7-4-8 2-2zm237 13l3 8-3 5v-13zM49 264l1 1-9 5 2-3 6-3zm234 4l8 3 8 15-23 20h-21v-1l15-5 1-2 11 2 1-10 2 4h1l3-8 3 2 2-3-12-12 1-5zm-249 9l22 23-12-5-4-7-4 1-1 3h-3l-2-9 4-6zm89 18l3 3 1 2 15 6h-21l-6-3 5-3 3-5zm-56 5l23 1v2l-17 3-7-3 1-3zm168 0l5 4v5q-10 7-29 3l-6-3 11-3 1-2 17 2 1-6zm-64 1l3 5 1-2 3 2-4 1v2l-11 3-6-3 14-8z" fill="#070606" stroke="#070606" class="B"/><path opacity=".616" d="M161 70l1 1-3 7 1 1-19 11h-6v-1l9-7v-2l-4-1 10-3 1 2 8-5v-2l2-1zm8 0l3 2 4 6-8-3 1-5zm18 12l3 2h-3v-2zm1 3l7 6 2 5h-1l-8-11zm-82 23l2 1-3 5h-2l3-6zm-4 2v4h-1l-1-1 2-3zm131 4l9 6h-1l-8-6zm14 10l7 3-2 3 2 2-2 1v1l-5-10zm-152 3l1 1v1l-4 1 1-2 2-1zm-52 9l3 2 2-1 1 1 11-2v5l-17 9-1-6h-4l4-2-2-3 2-1 1-2zm30 2l11 10v2h-6v-6H64l9-6zm168 0l5 1 17 23h-1l-8-5-2-5-14-2-4-3v-3l-10 6-1-1 8-10 7 5 3-6zM91 150l5 4v4l-5-8zm185 14l2 10-2 1v2l-5 2-1-7 6-8zm25 5l3 2v1l-3 1v-4zm-265 3v2l-3 6h-2l5-8zm235 8l3 1-3 1v-2zm-240 6l5 4 2 14-2 1v3l-2-4-4 1 1 3 3 2h-6l-3-1q7-7 6-23zm246 0l1 1-2 9-5-6 6-4zm-18 18l4 1-4 7v-8zm-222 6l10 2v3l-4 1-7-3 1-3zm246 0l9 6 2-1v13l-6-3-5-15zm13 6v2h-1l1-2zm-31 1l4 3-5 4 1-7zM46 234l2 1 6 10h-1l-8-5-2 3-1-3h-4l8-6zm204 0l2 1-2 4-3-1 3-4zm48 0l4 1-1 3-11 9-2 5 2 1-3 11 3 6h-4l-2-3 3-6-4-10 11-15 4-2zm-43 13l3 3v2h-6l3-5zM52 258l2 1-3 5h-2l3-6zm201 0l5 4v2l-6-3 1-3zm-205 2v4h-1l-1-1 2-3zm9 11l3 3v2h-6l3-5zm-20 3l5 10-8-7 2-1 1-2zm246 0l10 12-2 1-4-1-4-12zM37 288l7 6h-7l-1-2 1-4zm10 0l12 6 63 1-2 5-5 2-1-2-23 2-1-2-24 1v1q-16-2-19-14zm222 6l7 4v1l-7-5zm-107 4l1 2 7 1-13 7-1-2q-16 2-22-5l28-3zm30 0l1 2q16-3 23 4v2l-11 2-1-2q-20 4-29-3l-2 1-1-3 20-3zm47 2l23 1-21 7-2-8z" fill="#060404" stroke="#060404" class="B"/><path opacity=".333" d="M118 78l19 2v3l-16 3-1-2-5 2-1-4 4-4zm-80 43l3 1v3h-4l1-4zm-24 54l3 1v3h-4l1-4zm265 43l1 1 1 3h-6l2-3 2-1z" fill="#332a2d" stroke="#332a2d" class="B"/><path d="M163 78q12-2 14 6l-4 2-2 4-8-1-4 7-9 4 1 8 4 1-9 7-1 3-1-5h-3l3-5v-2l-1-4 3-5 3-1-2-1 3-2 1 2 10-5-4-1 5-3v-3h-8l9-6zm3 6l-3 4 1 1 3-1 1-3-2-1zm3 12l5 2-5 7-2-3 2-6zm-7 18l6 1-3 4-3 1v-1-5zm-42 9l2 9h-6l-2-4 6-5zm25 51l5 2-2 4-2 1-1 3-5 2-2-5 6-2 1-5zm-16 54l3 3-2 3-4-2 3-4z" fill="#fcdf17" stroke="#fcdf17" class="B"/><path d="M173 78l10 7 2 5h-1l-11-12zm1 7l5 15-7 19-11 11-6 3-1-1 2-4v-2l1-7 6 1 4-3 1-2v-2-5h-5l11-8-1-4-5 1-4-1-2 1 2-7 8-1 2-4zm-63 5l3 1-2 5-4-2 3-4zm13 6l7 1-9 6-1 3-2-2 5-8zm16 6l4 2-1 4-5-1 2-5zm53 0l5 4 2 2 4-1 6 4-2 3-9-3-2 1-4-10zm-37 6l5 1-8 5-9 24h3l4-3-7 12-10 3v-1l4-2-1-9-5 2-2 10-15-5 5-1 1-3 5 3v-2l-10-4h-2-7l1-4v-2-6l-5 1v-1l5-10 1 4 11 3-6 5 2 4 14 6 22-28 4-2zm16 18l2 1-1 3-4 2 4 1-4 2-1-5 4-4zm-72 12l3 1-1 4 2 2-7-2 3-5zm139 12l12 6-5 2-1-3-6-5zm-8 2l3 2 1 2 3 2 2 4-12 4v2l-11 2-1-2 6-11 1 2 2-4 6-3zm-104 4l5 4v2l-4-1-1-5zm44 0l3 3-2 3-4-2 3-4zm75 7l1 5 5-1-1 2-2 5h-9l6-11zm-80 5l11 1 3 17-5 1-1-2-1-4v-2l-7-11zm-4 3l1 3 5 3 2 3h-21l1-2-1-3 13-4zm-117 3l3 3-2 3-4-2 3-4zm91 0l2 1 1 5-1 8-5-9 3-5zm87 0l14 6 3-5v8l-7 2-9-4-2-4 1-3zm-24 6l5 4v2h-6l1-6zm-39 6l14 6h2l4 1-3 5h-9l-1-6-5 2-3 4-3-6 4-6zm-9 10l11 12-1 1-10-4 2-1-4-6h1l1-2zm24 14l9 2 2 4h-6l-6-3 1-3zm-23 30l4 2-2 4h-4l2-6zm94 30l6 3-2 3h-5l1-4v-2zm-45 12l3 3v4l-6-3 3-4z" fill="#fcb51e" stroke="#fcb51e" class="B"/><path opacity=".98" d="M120 84v3l-6 5v-2h-2l8-6zm-8 24l7 1-10 7-1-4 4-4zm87 12l5 1-2 5-4-2 1-4zM87 138l3 1v5l-6-2 3-4zm10 5l5 5v2l-4-1-1-6zm145 7l12 6h-2l-10-6zm14 18l5 1-2 4-1-4-3 5h-3l4-6zm-100 16v7l-3 1-3-3 6-5zm-17 3l5 11-1-1-10-4 5-1 1-5zm31 29l12 6-2 1v1l-1-3-9-5zm108 6l4 3v3l-6-1 2-5zm-173 30l3 3-2 3-4-2 3-4z" fill="#7c5539" stroke="#7c5539" class="B"/><path d="M123 84l11 1-20 11v-1l9-11zm99 31v6l-9 16-12 7-3 13 9 16 7-6-6 7-10-8q-3-19-14-28h-4l1-3 12-3-1 2 2 4 4-1 3-5 13-1 8-16zm21 18l1 1v3l-3-1 2-3zm-164 5l6 1-1 4 1 1-7-3 1-3zm-41 6l4 1-3 5-3-4 2-2zm59 2l11 19 2 9 10 2-2 4-4 2-5 15-1-11 6-8-5-4-1 5-2 1v-3-2l-2 1-2 4 2 1-8 5v-1q-3-13 3-17l3-1-1-5-5-3 1-13zm-43 4l6 2-1 4-5-1v-5zm219 0l3 3-2 3-4-2 3-4zm-222 7l3 2 1-2 4 8-5 8 25 1 10-5 1 13-6-5v-3l-11 6q-14-3-18 4l-1 3 12 19-5-5-7-3-5 4-1 7 17 1h2l5 2-1 2-11 2q-7-7-21-6l3-5-2-1 2-5v-2l-1-5-4 1-3-6 3-2 10 1 5-18 2-1-1-5h-7l5-5zm217 11l2 1q2 12-3 17l-3 1 5 8-4 8-3 1-4 1-6 9 6 9-3 5h-3l-2-6-3 2-2-8-4 3-2-3 1-2-12-4-5 4-4 8-3 1 2 3 10 6v2l-6 1 4 5q14 2 20-6l3 6q7-10 27-6l-2-5 3-1 5 4 1 2 4 1-28 11h-31v-1l-7-9-5-2-5 4-1 7 7 2-1 5 7 1-6 16-1-2-6 5 2 4 9 6-5 1 4 4 7 5 1 3-3 4-3 1v-1l-1-5-5-3-1-3-11-2 3 1h1l2-9-12-2-1-4-16-4 5-9-4-1-3 4-16 2-1-2 3-4h-2l5-3 1-3h4l5-6 2 1-6 11h7l5-3 4-8 6-2 2-4 1 6-1 2 12 3v-4l-7-2 1-4-7-3-2-4 4-2 3 1 14-12-1-17q13 0 17-8l4-9 10-2 2 4 3 2-5 1 4 5h2l8-16 9-2-2-6h-3l4-6zm-8 24l-2 9 4 2 2-9-4-2zm-23 7l-2 3 3 1 1-2-2-2zm-30 59l-3 4 4 2 2-3-3-3zm-12 1l-2 3 3 1 1-2-2-2zm103-91l2 2-1 4h-2l2-1v-4l-1-1zm-281 6l7 3-2 3h-6l2-3-1-3zm260 0l5 3-2 3h-4l1-6zM75 187l5 5-7 1-1-1 3-5zm133 17l3 1-6 10-1-5 4-6zm-115 1l2 2-1 2-3-1 2-3zm16 2l11 7 2 2 4-1v2l-5 10-1-2-5 3v-1l4-8-4-3-2 1v-2l-4-2v-2h-2l2-4zm-7 3l3 1q-11 14-33 19l1 4H60l-12-6-17 8-1-2 6-9 18-4 7 2-1 4 5 1 1-4v-2h13l23-12zm173 0l7 3 1 5-1 3-2-3-6 4 2-3v-3h-2l2-3-1-3zm-130 1l5 3v2h-6l1-5zm63 5l2 2-1 2-10 5 3-4 2-4 1 2 3-3zm26 0l1 1-1 10 1 1-6-3-1-3 4-5 2-1zm-70 1l4 3v2h-3l-1-5zm-50 2l-6 7 2 6 15 8-3 1-13-7v2l4 8-2 1-12-5-3 6 6 1-6 11-9 6-2 5-1-11 7-12 3-1 8-16-4-1 10-5v-2l3 1 3-3zm36 3l6 3-2 3-15 7-3-1-4 3 1-12 5 3 1-3 4 3 3-4 4-2zm31 0l5 4v5l-5-2 4-1-5-3 1-3zm-153 1l1 1-1 3h-2l-1-2 3-2zm-15 2l8 9 5 5v1l-8-2-2-4-4-2 1-7zm153 3l8 2-2 4 1 1-5 3 1 2h-1l-5-3-1-5 4-4zm-34 17l12 5 2 2 4 1 2 3 3 2-5 1v4l-7-9-4-2-1 2-8-7 2-2zm-60 1l2 1-2 10-3-5-3-1 2-3 4-2zm49 0l11 10v2l-9-6-8 6-1-5 6-3 1-4zm113 11v3 4l-6-2 1-4 5-1zm-91 4l3 9 4-1v2l-2 4-10-8 2-3 2-1 1-2zm-38 10l2 2-1 2-3-1 2-3zm30 0l2 2-1 2-3-1 2-3zm-50 2l17 13 1 3-1 4 1 1-9-5 2-1-1-6-4 1h-2l-4 2v-12zm179 0l1 3 11 4 1 2 3 2 2 5-1-1-11 4 1 2-7 1-1 3-2-3-2-6 10-4 1-7-3-1-8 5v-1l5-8zm-147 4l3 3 1 2 9-5 2 6-1-1-5 2-3 4-9-3 3-8zm-53 5l3 1-1 7-3-2-7 4-2-4h2l4-1 4-5zm164 0l6 3 1-2 12 15 3 2h-12l-10-18zm-92 6l2 1-1 3-7 2v-1l2-4 1 2 3-3zm26 0l13 1-1 4 5 4v1l-8-4-8 6-2-6 1-4v-2zm22 0l3 1-1 4 6 1v-4-2l4 2 3 9 11-5 1 4 3 2h-21l-2-4-10-4 3-4zm-34 4l1 8h-7l-5-2 1-2 10-4z" fill="#31140c" stroke="#31140c" class="B"/><path d="M154 84l8 1-1 3-14 8 2 1-5 3v2l-11 3-1-3h-8l22-11 1-2 7-5zm8 7l2 11 4 1v2l-17 3-1-8 10-5 2-4zm-23 17l5 1-2 4-4-2 1-3zm14 18l3 3-5 3-1-3 3-3zm-21 3v6l-3 2-7-4 1-2 4 1 5-3zm-21 9l3 1 1 5-1 2-6-4 3-4zm48 0l3 1-2 5-4-2 3-4zm88 21l4 3 1 4-5 2v-9zm-78 15l2 1 2 5h-1l-3-6zm-25 10l2 8 4 4v2l-5-3-2 1-5-10h2l4-2zm23 2l7 1v4l-7-5z" fill="#fcef2e" stroke="#fcef2e" class="B"/><path d="M166 84l2 1-1 3-4 2v1l-1-1 4-6zm-24 6l4 1-11 5v-1l7-5zm14 0l5 1-10 5-1-2 6-4zm-20 12l3 1-1 4v2 2q-11-4-2-9zm14 22l1 2 1 1-2 5h3l3-2-2 3-9 5-1-6 6-8zm-12 2l2 1-8 7 2-6 4-2zm-12 8l4 3 2-1-3 2-3-4zm-6 4l6 4v2l-6-3v-3zm13 5l4 1h1l-1 4-6 2 1-2 1-5zm114 14l5 3v3l-1-2-5-2 1-2zm-82 11l5 6-2 1v1l-6-2 3-6z" fill="#fdd82c" stroke="#fdd82c" class="B"/><path d="M175 84l7 6-2 1 4 5q11-3 14 4v4l-5-2-1 3-3-1-8 7 6 9 5 1-5 7-1-2-11 8-1-4 6-5-1-5-14 12 2 1-10 5v1h-2l-9 6-1 3h-2l8-13 21-15 2-4 4-2h2q4-18-3-24h-3l1-6zm-11 24l4 1-2 5-4-1 2-5zm35 4l7 3-4 5-4-1-1-5 2-2zm-36 30l-1 2-1 12-5-2 1-11 4 1 2-2zm18 2l2 1 8 17h-2l-5-6h2l-3-5 2-1-5-3 1-3zm-66 4l5 4-1 4-5-2-2-3 2-1 1-2zm9 2l10 1-2 7 6 10 1-2 3 2-4 1-12-3 1-8 2 4h3l-2-6-3-2-2 1-1-5zm-55 6l3 3v3l-6-2 3-4zm184 0l3 6 2 2-1 4-5 2v-1l1-13zm-200 7l1 3-5 2-1-2 5-3zm140 5l5 4 3 8-3 1-12-2 3-5h3l1-6zm27 0l8 4v2l-6 1-4-1-2 1 4-7zm-80 6l4 2-2 4-4-2 2-4zm8 6q16-4 20 4l1 2-11 1-1 3-1-9-10 6-1 3-1-3 4-7zm-19 12l3 1h1l-1 2 6 3 1-3 4 3-4 1 23 10v-2l-1-3h1l2-4 3-1 1-2 2 2-2 5h4l2-1 1 1 10-6 1 7-1-1-5 2 1 4-7 1v1l-5-2h-2l-11 1v2l-12-6-1-3-5 1-3-1 3-4-12-4 3-4zm132 0l3 3-2 3-4-2 3-4zm-127 14l2 4 3-1 2 2 2 4-1-1-8-3-2-3 2-2zm62 5l1 1-6 15-7-4 2-1-2-5 3-2 4 1 3-4 2-1zm45 64l10 2-5 3v2h-3l-2-7zm-166 1l3 2-5 7-1-6 3-3zm124 11l5 4-2 3-4-2 1-5z" fill="#f56f0b" stroke="#f56f0b" class="B"/><path d="M139 90l1 1-11 5v-1l10-5zm36 0l3 2 2 22-5 3-1-2q-1-12 5-15l-4-10zm-11 6l4 2-2 4-4-2 2-4zm-2 12l1 1-1 4 1 1-7 2v10h-6l6-15 6-3zm37 3l2 3-4-1 2-2zm-22 9l3 2-1 4-4 3-1-3-6 4v5l-6 3 2 1-1 3-1-4h-5l10-5-2-1 12-12zm9 6v3l-8 3 2-3 6-3zm-83 5l5 3-1 4h-7l3-7zm12 13l10 6-5 1-6-3 1-4zm66 3l4 3-2 1 3 5h-2l-3-9zm54 3l10 6 1 3-6 15 2 1-1 3-1-3-3 5-14-5 5-1-3-5 3-1 2-4 5-2-1 2 2 10 4-1-1-10v-2l-2-5h-3l-1-4h-2l4-2zm-11 5l-1 4-1-2-5 10-1-4 4-7 4-1zm24 1l4 1v2l-4-3zm6 1l4 3v3l-4-2v-4zm-91 11l-1 2-1 2-8 2v-1l10-5zm-24 1l9 5-4 1-4-1h-2-2l3-5zm-6 10v2h-1l1-2zm33 1l8 2-1 4-5-1-2-5zm15 4l16 2h2l1 1-19 7-1-2-6-1 2-5h4l1-2zm53 1l1 1h-1v-1zm-102 7l6 4v2l-6-3v-3zm13 4l8 8-2 1-12-6 5-1 1-2zm26 2l5 1-4 5h-4l3-6zm11 6l4 2v9l-3-5-3-1 2-5zm-61 1l3 2 1 2-1-1-4-1 1-2zm16 0l1 1v4l-5-2 4-3zm32 5l17 9v3l-18-9 1-3zm-64 6l3 3-2 3h-4l3-6zm24 0l3 3-2 3h-4l3-6zm24 18l3 3v4l-4-1-2 1 3-7zm78 36l3 3v3l-6-2 3-4zm-14 24l5 3-2 3-4-2 1-4z" fill="#fb8b0a" stroke="#fb8b0a" class="B"/><path d="M181 90l10 6h-7l-3-6zm9 13l9 17-1 2-2-1-6 5 2-3v-3h-6l-5-9 9-8zm-2 5l-2 5 6 1v-4l-4-2zm23-5l5 14-5 3-2-6 1-4v-2l1-5zm-43 32l1 3h1l-2 15-3 3h-4l4-17-2-1 5-3zm-12 3v7l-1-1h-7l8-6zm-82 6l4 3-2 3h-4l2-6zm69 4l2 1-4 7-3-1 3-6 2-1zm-22 2l3 2 2 3 2 1-2 1v4l-3-5h-4l2-6zm60 1l8 11 3-1 1 7-1 6-5 2-1-2-5 1-3-6 8-1-5-17zm-108 9l5 3-2 5-4-2-2-3 2-1 1-2zm186 0l5 5-2 3h-5l2-8zm-211 6l1 2 1 1-2 6-4-1-2 1 6-9zm79 0l10 2h1v2l-6 12 2 4h-2l-6-3 1-17zm16 1l7 5 1 1 1 1h-2l-11-5 4-2zm97 0v5l-3 2-3-4 6-3zm15 1l-3 4 1 2 5 1-3 5-14 2-1-2 4-6h6l2-4 3-2zm-56 4l11 20-16 6-3-4-4-1-1 6-3-1-8 6-1-2 8-8 22-8-5-14zm19 2l4 2 2 4h-2l-6-1 2-5zm-175 5l4 1h1l-2 6-4-1 1-6zm138 0l5 1h2l5 1-1 4 1 1q-11 2-13-3l1-4zm-25 12l2 7 4-2 1 2 4 1-5 3v2l-14-11 8-2zm-38 1l2 1 2 9 9 2v-2l-2-3 8-1 1 3-2 3 1 1-5 3 2 3-1-1-6-3-1 3-3-5-2-1-1 3-11-4 9-11zm107 0l3 3-4 2-2-2 3-3zm-31 12l4 2-1 4 1 1-5 2-1-7 2-2zm-44 5l6 4 1-2 5 11-1-1-4-2-1 2-6-9-4-1 4-2zm-56 19l2 1-1 5-5-1 4-5zm30 0l3 1-1 4 5 1h1l-1 5-9-6-1-2 3-3zm26 13l1 5 1 1-4 5-4-2 1-4 3-1 2-4zm8 11l4 2-2 4-4-2 2-4zm84 12l4 2 2 2 3 2-10 1-1-5 2-2zm-14 6l1 1-1 4 1 1-7-1 2-3 4-2zm24 5v12l-4 1-4-5 2-1 2-4 3-1 1-2zm-174 1l5 2-4 9-1-2-5 2-1-1 6-8v-2zm51 6l3 3-2 3h-4l3-6zm-18 6l3 3-2 3-4-2 3-4zm78 0l3 3v3l-6-2 3-4zm-37 6l4 1-2 5-4-2 2-4z" fill="#e54d09" stroke="#e54d09" class="B"/><path d="M187 86l7 10h-1l-9-5 2-1 1-4zm30 23l3 5 1 1-8 17h-4l4-11v-2l3-1 1-9zM55 144l6 1-1 4 5 1h1l-5 11-2-5 1-4-6-5 1-3zm23 5l16 13h-4l-18-8 3-4 3-1zm94 1l2 2 2 4h-7v-1l3-5zm-69 4l5 10-4-3-3-5 2-2zm47 2l6 3-2 3 1 1-5 3v2l-6-2v-4h-3l3-5 1 2 5-3zm-104 6l7 1-9 6-1 3-2-2 5-8zm36 0q5 3-1 6l-2 6-1-3q-3 5-12 3v-1l1-8 5 3h2l4-1 4-5zm134 2v7l-7 3 5-6 2-4zm48 5l1 5 3 2 1 4-15 6-2-2 12-15zm-159 6l1 1 1 2-4 2v-1l2-4zm100 0l5 11h-2l-3-11zm-85 3l1 2 2 1-3 6-4-1-2 1 2-7 4-2zm-29 1l4 1h1l-1 6-5-2 1-5zm143 11v3l-7 9-21 4-1 3-1-5 4-5 8-1 1-2 7 2 4-2 1-4 5-2zm-156 2l6 4-1 2-3-1-1-4-1-1zm-24 6l2 1-2 1 2 4-2 1 1 5h-5l-2-6 4-5 2-1zm183 1l2 2-1 2-3-1 2-3zm-128 4l17 10-1 3-5-1-1-3-11-5 1-4zm-3 7l2 2v5l-4-1-5 6-19 6v-1q16-5 26-17zm24 0l13 6 2 1-1 5 5 1-5 3-1 2-5-3v-3h-5l4-2-4-7-1 2-2-5zm74 1v6l-5 7v-3l5-10zm-89 5l4 3-5 9h3l3-2-5 6 2 2-9-3 7-15zm129 0l2 2-2 10-10-1 1-6 2 1 7-6zm-63 9l4 3-4 1 5 3 2 2 2-1 2-4h3l-3 5 4 2 3 4 2 1-2 4-1-4-3 5-8 4-2 6-10 2-1-2 6-9-2-1-6 5 4-6 10-7-1-4h-10l5-3-1-2 2-4zm-7 7v13h-1l-2-5-3-1 2-3 3-1 1-3zm-97 2l7 2-1 4-4 2-2-8zm59 0l2 1 1 5-7 2 1 4-1-1-10-4 10-2 4-5zm-40 5v2l-3 5-3 1-6-1 4-6 8-1zm58 7l2 1 1 11h-1l-6-3-1-3 5-6zm-15 6l7 6-2 1v4l-5-11zm89 0l6 3-1 3-5-1v-5zm-155 1l5 10-4 3-1 3v-16zm163 5l6 1-3 5-5-1 2-5zm-41 1l2 2-1 2-3-1 2-3zm62 10l7 4-6 9h3l4-3-7 9 5 9-5 3v-1l-1-5-4 1-1-7 6-15-1-4zm-45 1l7 1-2 5 10 6h-5l-12-7 2-5zm12 6l10 4v5l-5-2 2-1-7-6zm-140 2v5l-5 7-1-1 6-11zm-17 8l7 8-8-2 1-6zm65 1v2l-3 5-3-1 2-5 4-1zm144 1l1 1-1 7-6-3 2-3 4-2z" fill="#591d0b" stroke="#591d0b" class="B"/><path d="M124 102l4 1-7 5 2 1-9 8v-2l-3 5h-3l4-6 8-3 4-9zm35 12l3 3-2 3-4-2 3-4zm-38 5q3 9 16 8l-13 5-5-11 2-2zm122 151l3 3-2 3-4-2 3-4z" fill="#fef66a" stroke="#fef66a" class="B"/><path d="M129 102l3 1 6 11-12 2v7l-6-4 9-17zm-9 2v7l-7 3 3-4 3-1-1-3 2-2zm24 11v6l-3 5h-5l3-1 5-10zm30 14v6l-5 2-1-1 5-3-4-1 5-3zm-58 9l4 2v4l-6-1 2-5zm-13 4l11 6v1l-11-7z" fill="#f8d467" stroke="#f8d467" class="B"/><path d="M199 98l2 4 4 1-3 5-4-2 1-8zm11 19l1 3 2 1-4 11h-8l9-15zm-20 9l2 1-2 5-5 1-3-1 8-6zm-8 12l6 6h-2l-6-3 2-3zm-120 6l7 1-4 5-5-1 2-5zm-9 1l1 1 3 4-8 2-1-2h-2l7-5zm134 0l5 10 1-4 2 5h-5l-3-11zm-37 2l1 4-1 2 3 3-8 3-1-3 6-9zm24 3l4 2 2 7-6-5v-4zm-71 3l2 3-4-1 2-2zm65 1l1 3-1 5h-6l2-4 3-1 1-3zm-59 5l10 7 1 2-10 2-1 2v-13zm89 2v3 6l-6-4 2-4 4-1zm-139 4l1 1 1 8h-4q-6-3 0-5l2-4zm25 0l1 3 11-1v12l-4 1-2-11-10 4-1-1 5-7zm180 2v2l-5 8-1-3h-2l2-4 1 4 3-6 2-1zm-186 4v3h-2l2-3zm174 9l3 1-3 4 3 1 3-2-3 8-9-3v-3h-5l11-6zm-41 3l5 3 23 1-11 6-4-1-2 5 2 1h-5l-3-6-4-1-1-4h-3l2-1 1-3zm-63 3l2 1 1 5h-4l-1-2 2-4zm-73 6l4 2 2 4h-6l-3-3 3-3zm7 0l8 3-2 3h-5l1-2-2-4zm30 0l4 1-7 10-1-5 4-6zm93 0l4 1-10 5-1-2 7-4zm-150 7l11 9-6 2v-1l-1-5-5-2 1-3zm149 6v6l-11 19-1-2 12-23zm-71 8l4 7-4 2v1-10zm18 1l5 9-1-1h-6l1-4v-2l1-2zm-25 3l1 5 4 1-12 5 1-2 1 1 5-10zm49 8l4 3 1 3-5 3 4 1-4 2v-12zm-25 3l3 1-8 7-1-4 6-4zm-66 6l6 2h1l2 4-7 2-2 4 3 1-3 5 3 1-3 8-6-15h-2l5-6 3-1v-5zm32 0h7l8 6h-5l-10-6zm48 12l4 2 2 2 3 2-5 1-1 3-5 2v-1l2-11zm61 6l3 2 1 4-1 5 6 1h2l4-1v2l-3 5-3-1-1-3-7-2-5 2 4-14zm-80 6l3 2 2 8-3 2-2-12zm97 1l1 1-2 1 1-2zm5 3l9 8 2 7-5 10-1-5 5-9-11-6 1-5zm-169 1l2 7 4-1v9h-1v-2l-10 1-1-7 4-6 2-1zm157 10l6 6 5 9-6 1v1l-7-12-4-1 5-1 1-3zm-15 3l11 6h-3l-8-6zm-148 2q-3 12 3 16l-9-8 3-4h1l2-4zm198 1v4l-3 4-8 1v-1l5-7 1 2 5-3zm-177 3l3 3v3l-6-2 3-4zm-9 1v9l-6 2v-1l6-10zm42 3l1 3-1 4 1 1h-14l1-4v-2l12-2zm79 0l6 3-2 1-6 8-3 1-2-5h2l4-1 1-7zm-100 2l4 1-1 4 1 1-7-2 3-4zm52 0l5 3-2 3-3 2-2-2 2-6zm20 0l3 1v5l-6-2 3-4zm77 6l4 2-1 4h-6l3-6z" fill="#761804" stroke="#761804" class="B"/><path d="M207 102l3 3v3h-6l3-6zm-80 15l6 3 5-3v6l-8 3-3-9z" fill="#fdf8d8" stroke="#fdf8d8" class="B"/><path d="M210 102l6 4v7l-5-10-1-1zm-26 42l6 2 2 9h-1l-4-10-1 4-2-5zm-138 6l2 1-3 5-1-2 2-4zm110 5l11 2-12 5 1-2-2-3 2-2zm-40 13l4 2 2 4h-6l-2-4 2-2zm-74 2l1 3-1 8-4-1-2 1 6-11zm115 40l6 1-1 4v2 1l-5-8zm-67 15v9H75l-3-3 18-6zm28 3l4 1-1 2 2 3h-5l-3-3 3-3zm62 6l2 1-2 5 2 1-7 5v2l-2-2 3-10 4-2z" fill="#7b3912" stroke="#7b3912" class="B"/><path d="M126 105v4l-6 11h-9l3-5 1 2 8-9h-2l5-3zm13 7l5 3-5 10-4 1 3-10v-2l1-2zm-34 14l3 1v5l-6-2 3-4zm0 12l4 1-1 4 1 1-7-2 3-4zm30 0l3 3-2 3-4-2 3-4z" fill="#fef882" stroke="#fef882" class="B"/><path d="M188 108l4 2v4l-6-1 2-5zm20 6l2 1-9 17h-11l2-5-2-1 7-5 3 5 4-1-1-5 5-6zm-26 17l2 2-4 2 1 4-1 2 5 3-5 1v10l-3-5-7 2-1 3-4 1 6-19 11-6zM70 144l3 1-1 5v2l2 4 22 9-1 3H84l-1-6-4 2-1-2-6-2-1-4-5 2 1 4-3 12-4-1v-11l10-18zm31 0l11 6 2 4 2 2 8 2 4 26 10 6v2l-12 2 2 4 2 2 1 4h-5l-6-3-1-9 6-17-5-3-1-3v-2l-2-4-8-4-1 2-5-8-2 1-1-3 2-1-1-6zm47 0l3 1-10 17-3 1v4l-6-11 4-6 3 1-1 4 3 1 7-12zm4 6l1 1 2 5h-1l-4-4 2-2zm77 0l4 1-12 5 2-3 6-3zm-55 6l6 3 1-2 5 11q-24-4-35 5l-2-3-4-1 5-1 2-4 10-5 1 3 6-1 4 1 1-4v-2zm16 0l5 1 3 6-1-1-4 1-3-7zm47 6l3 3-1 3-4 1-1-4 3-3zm-125 6l3 1-1 4 1 1-6-1 3-5zm104 3l2 9 14 6h-16l-5-3-1 2-5-10-1 4-3-4 15-4zm-34 3l4 1v5l-6-1 2-5zm-144 6l4 2 1 4h-4l-3-4 2-2zm156 0l4 3-2 3-4-1 2-5zm49 0l8 1-14 5v-1l3-1 3-4zm-89 1l2 2-5 4-3-1 6-5zm54 5l3 2 3 4 2 1v5l-11 4-16 32-3-8h2l4 1 6-21-4-2-4 12-4-2 1-21 5 3 2 2 4-3 1 3 11-6-2-6zm-169 6l3 3-2 3-4-2 3-4zm16 12l5 2-1 4-5-2 1-4zm58 0l13 6 1-3 5 10-1-1-4 1-2-7q-11 0-12-6zm28 0l8 6-3 1h-2v4l-6-8 3-3zm23 6l9 6h-9l-2-4 2-2zm-17 6l3 2-1 4h-5l3-6zm13 0l3 3 2 3 2 2-8 10-3 1-4-1h-2-2l8-7-1-5 2-3 5 3v-2l-2-4zm-58 4l1 2 5-2-2 3-10 5 2 1-1 3-1-4-5 3-1-5 12-6zm30 1v8l-1-1-9 2v-3l9-4 1-2zm43 1l5 4v2l-6-3 1-3zm-84 11l4 1h1l-2 6-3-5h-3l3-2zm92 1l3 3-5 3-1-3 3-3zm-33 2v5l-3 5-3 1v1l-12-4 3-4h13l2-4zm7 2l17 9-2 4-4-2-1-3-5 2v5l-4-1-2 1-1-7 2-8zm-81 8l2 1 6 22-4 1-3-12-3-1-2-4 4-7zm12 0q5 3-1 6h-3l4-6zm154 14l4 2v3l-4-1-2 13 1 1-7-5-1-3-11 4 1 2h-4l-2-2 5-8 4-2 8 4 2 2 2-1 4-9zm10 9l5 4-4 8-1-12zm17 8l-2 5h-3l1-3 4-2zm-191 8v8l-2 1-4-6 6-3zm169 2l4 1h1v11l-12-8 1-3 6-1zm-35 1l4 3 2 3-2 1 1 5-1-1-6-2v-3h-3l3-5 2-1zm67 0l3 3-2 9-4-2 3-10zm-124 1l1 1-1 4-4 1-1-3 5-3z" fill="#a12a06" stroke="#a12a06" class="B"/><path opacity=".812" d="M217 106l4 8h-1l-3-8zM68 133l3 1v3l-4 1-1-2 2-3zm228 36l3 1v3h-4l1-4zm-260 7v10h-2l-3-1 5-9zm1 28l5 1-2 4h-3v-5zm-8 6l18 7-2 5h-5l2-3-13-9zm243 1l3 1v3h-4l1-4zm11 7l10 15-4 1-1-6h-3l-2-10zm-270 2l11 16-3-3h-2q-9-3-6-13z" fill="#2f2925" stroke="#2f2925" class="B"/><path fill="#fdfdf8" stroke="#fdfdf8" d="M129 114l9 3-8 3q-7-3-1-6z" class="B"/><path d="M138 80v2h-1l1-2zm-99 40l1 1h-1v-1zm-2 2v2h-1l1-2zm5 0v2h-1l1-2zm-3 3l1 1h-1v-1zm30 7l1 1h-1v-1zm125 0l6 1-3 5-5-1 2-5zm-122 2v2h-1l1-2zm81 10l3 3v8l-3-5h-3l3-6zm-86 18l5 4v2l-6-3 1-3zm29 0l6 2-1 4-4 2-1-8zm43 0l5 1 2 5h-1l-7-3 1-3zm60 4l7 8-8-3 1-5zm96 4v2h-1l1-2zm-280 4l1 1h-1v-1zm105 0l5 2-2 4h-3v-6zm-107 2v2h-1l1-2zm5 0v2h-1l1-2zm-3 3l1 1h-1v-1zm101 7l4 2-2 4h-7l3-5 2-1zm49 6l3 3-2 3h-4l3-6zm82 0l7 1-2 5-4-1-1-5zm12 5l4 1h1l-2 5-4-2 1-4zM28 210l14 9-2 3 1 1-1-5-5-2 1 3v3h-4l-2-5 4-1-6-6zm245 0l1 1h-1v-1zm-2 2v2h-1l1-2zm5 0v2h-1l1-2zm-3 3l1 1h-1v-1zm-252 1l3 1 1 5 5 1-5 2 2 2 1 1-3 1 2 3 3-1v3l-1 4-2 1-15-19 6 4 3-8zm2 12l1 4v-3l-1-1zm25-12l4 1-3 1v1h-2l-1 3-1-1 3-5zm116 0l15 6-5 1v6l-9-1 3-8-4-4zm72 0l4 1-3 5-3-1 2-5zm-182 2v3l-2 1v-1h1l1-3zm228 3l4 7 2 1v5h-3l2-1v-4l-3-1-1-4-3-1 2-2zm-220 1l4 2-1 4-5-1 2-5zm212 0l3 1-1 4 2 2-7-2 3-5zm-76 1v11h-5l-1-2 6-9zm-36 9l4 7 6 3 1 4h-1l-16-9 1-3 5-2zm-14 2l2 1-3 5h-4l5-6zm68 0l6 4-2 8-10-1 4-10 2-1zm-14 6l2 2-1 4h-5l4-6zm26 3v2l-2 1v-1h1l1-2zM57 282l3 1-1 5-5-1 3-5z" fill="#42342c" stroke="#42342c" class="B"/><path opacity=".886" d="M56 156l4 1v7l-4-8zm-40 54h11l14 10-1 3-8 6-1 3-2-1-2 1-2-3 3-1 2-3v-3h-6v-6l-6 3v5l-6-10 2-3 2-1zm15 6l1 6h4v-3l-5-3zm19 1l3 1v3l-6 1-1-1 2-3 1 1 1-2zm233 7l3 5 1 1v3l-4 1-1-4-4-1 4-1 1-4zm-260 4l1 1v3l-1-4zm200 10l4 7-6 1-1-1 3-7z" fill="#3a3532" stroke="#3a3532" class="B"/></svg>