<svg xmlns="http://www.w3.org/2000/svg" viewBox="0 0 948 948" stroke-width="3" xmlns:v="https://vecta.io/nano"><path stroke="#000" opacity="0" d="M1 0l947 1v947H0L1 0zm616 36l-11 6h-37l-11 6h-19l-35 12h-13l-23 12h-13l-23 12h-7l-29 18-9 1-3 11q-19-2-27 7l-5 9-11 2-34 20q-15 8-21 26l-9 4q-15 8-21 26l-7 3-39 64v7l-18 35-6 25-6 11v37l-12 17v97l-6 11-2 17q-31 6-46 29l7 13q22 9 34 29l-5 6 6 10q2 15-6 22-3 17 5 24l-5 10 6 10q-4 25 6 36v43l6 11v13q7 4 6 18l8 16 8 6 12-41 8 12 7 27 9 4 4 10 41 34 17 2 11 6h13l11 6h249l11-6h31l11-6h89l11 6h55l11 6h19q6 8 24 6v4l22 14 2-4v-9l-13-20-8-5-5-9-13-9-5-9-34-29q-29-11-48-30-9-10-29-8l-35-18h-91l-6-3q9-7 5-26l12-17q-2-18 6-24v-13l12-17v-31l18-53v-25l12-17v-31l6-11v-49l12-35v-63l-6-11q-5-29 6-40v-15l-11-21 11-18v-7l9-18 37-55 2-11 20-34 8-4q5-25 20-39l2-11 8-4 2-3-1-11-16-3-11-6q-27-5-38 6-25 4-34-6h-45z"/><path d="M617 36h45q9 10 34 6 11-11 38-6l11 6 16 3 1 11-2 3-8 4-2 11q-15 14-20 39l-8 4-20 34-2 11-37 55-9 18v7l-11 18 11 21v15q-11 11-6 40l6 11v63l-12 35v49l-6 11v31l-12 17v25l-18 53v31l-12 17v13q-8 6-6 24l-12 17q4 19-5 26l6 3h91l35 18q20-2 29 8 19 19 48 30l34 29 5 9 13 9 5 9 8 5 13 20v9l-2 4-22-14v-4q-18 2-24-6h-19l-11-6h-55l-11-6h-89l-11 6h-31l-11 6H323l-11-6h-13l-11-6-17-2-41-34-4-10-9-4-7-27-8-12-12 41-8-6-8-16q1-14-6-18v-13l-6-11v-43q-10-11-6-36l-6-10 5-10q-8-7-5-24 8-7 6-22l-6-10 5-6q-12-20-34-29l-7-13q15-23 46-29l2-17 6-11v-97l12-17v-37l6-11 6-25 18-35v-7l39-64 7-3q6-18 21-26l9-4q6-18 21-26l34-20 11-2 5-9q8-9 27-7l3-11 9-1 29-18h7l23-12h13l23-12h13l35-12h19l11-6h37l11-6zm-29 18l-4 2q-17 9-23 29l-13 5-20 41-8 2-35 59-5-1 9-23 27-41v-11l11-2 1-12 24-39-1-3h-17l-23 12h-11l-5 13-43 67-5 17-15 23v13l-8 11-4-1v-11l18-35v-7l30-71-1-7-23 6-23 12h-11l-20 54v13l-6 11v37q-8 7-7 23l-5-1v-53q10-11 6-36l6-11-1-19-39 18-2 11-18 3v29l6 11v25q10 9 6 34l-4 1-8-17v-13l-12-23-1-31-9 2-25 25 11 27v13q7 4 6 18l12 22-10 1-2-12-18-29-2-11-15-13-4 12-14 20q7 5 5 20l11 1 3 17 34 40-1 3-18-16-9-2-4-10q-17-10-24-30l-8-8q-5 21-19 33l14 21 3 12h11l3 11 34 37h3l12-30q13-9 18-24l33-21 48-21h19l35-12q17-2 24 6h13l11 6h19l59 36 5-2 11-11 41-83 7-7 2-11 24-47v-11l11-2 1-16 11-2q0-20 10-30l21-29-1-7h-47l-4 2-48 48-23 35-31 31-15 28-11-1L642 56l-54-2zM420 282l-11 6h-19q-7 8-24 6-10 13-30 15l-6 13q-3 6-16 2-3 15-14 22l12 8 32-28 34-20 25-6 11-6h28l2 5-24 7-25 16-9 2-2 11-12 4-15 15-15 36 2 12 17-3 7-19 12-18 24-18q7-10 27-8l1 4-30 17q-17 14-24 39l2 6h53l23-12h19l72-39 23-24-11-12q-20-5-30-18l-24-9q-22 3-30-6h-55zm207 6l-13 6-4 11-19 19-3 10-73 48-28 14q-14-1-18 6h-13l-23 12H314q0 16-8 24v25l-12 29v67l-8 17-8-2q-18-6-14-32l-17-8q-18-2-24 6h-13l-70 24-2 4 18 14h31l11 6q23 5 33-5l6 5 9-6 12 6 29 2 34 59 37 43 17 29 14 5 4 13 45 32 13 3 8 6 3-1-6-16q11-14 6-43l6-11v-49l12-29v-31l6-10-12-2-11-9-13-3-22-14q-18-12-26-33v-13l-12-29 2-31h17l40 20 37 25 35 17 13 14-1 2-15-6q1 20-8 30v25l-6 11v17l5 1 3-18 4 2q3 20-6 28v19l-6 11v13q8 7 8 23l11-3 5-8 12-43 12-23 12-43 12-23v-16l34-20 2 1-6 23-12 23-2 17q-5 12-20 13l-2 49q-9 8-6 30l-6 11v19l-18 47v29l4 1q14-11 20-29l6-25 6-11v-13l18-41v-13l12-29v-19l6-11v-19l12-23v-25l12-35V312q-8-7-6-22l-3-2zm-421 24l-8 18v13l-12 29 2 5 12 11 46 29-1 3q-10-11-35-6l-23-12-7 2v59l2 4 10 7h31l16-6 1 11-42 1q-8 8-24 8l2 40 28-12h19q6-8 22-6-1-16 7-23v-13l6-11v-25q9-9 6-30l12-23v-12l-10-1-4-10-16-11q-16-7-18-26l-10-1-2-10-10-2zm94 48l-6 3-18 45v13l-12 23v37l-6 11q-4 30 9 43l8 5 1-36 12-35v-37q10-11 6-36l12-17v-17l-6-2zm-90 252q-7 10-22 12l-20 35 3 1 10-14q10-10 28-12l10-10 3 2-36 52q2 17-6 24v71l5 1 1-12 12-23v-7l21-36 3 2-6 10v79l9 11 3 13 15 23 3 11 42 19 6-1q-15-8-18-27l-10-2-2-12-18-35q3-22-6-30v-97l6-9-1-3-21 14-34 58-4-1v-11l15-36 45-58-36-2zm350 12l-2 13-12 29v13l-12 23q3 21-6 30v19l-12 28 11 1q-1-16 7-23v-19l12-29v-13l6-11v-13l6-11v-13q8-7 6-22l-4-2zM278 762l-2 2v23l12 29v13l8 16 34 31h229l11-6h49l11-6h103q10 10 36 6l11 6h25l28 12 1-2-19-20-22-8q-22 3-30-6h-43l-11-6q-22-3-30 6h-41l-2-4 13-2 23-12q17 2 24-6h47l1-4-24-2-11-6q-10 9-31 6l-11 6h-25q-9 9-30 6l-28 12-2-3 60-33 24-7-1-5h-17l-29 12h-19l-76 30-2-3 42-30 29-11 13-10q17 2 24-6h29l1-4-18-2-8-5-9 5h-19l-35 12h-13l-17 12h-13l-29 12h-95l-2 5 11 1 1 11q20-2 30 7h25l11 6q16 2 23-6l1 11-18 1-29 12h-19l-11-6h-13l-24-9q-11-13-30-18l-45-45-3 2 27 34 3 11 13 4 5 14 42 22-1 3q-7-8-23-6l-36-21-45-44-15-35-4-2zm402 30l-2 5 11 1 1-4-10-2zM476 198l4 2-1 4-5-1 2-5zm54 6l4 2-1 4-5-1 2-5zm-76 120l2 2-7 8-9 2-2-4 16-8zm70 222l4 2v17q-8 7-7 23l-5-1v-17q8-8 8-24z" fill="#010c27" stroke="#010c27"/><path d="M588 54l54 2-108 141 11 1 15-28 31-31 23-35 48-48 4-2h47l1 7-21 29q-10 10-10 30l-11 2-1 16-11 2v11l-24 47-2 11-7 7-41 83-11 11-5 2-59-36h-19l-11-6h-13q-7-8-24-6l-35 12h-19l-48 21-33 21q-5 15-18 24l-12 30-3 1v12l-12 23q3 21-6 30v25l-6 11v13q-8 7-7 23-16-2-22 6h-19l-28 12-2-40q16 0 24-8l42-1-1-11-16 6h-31l-10-7-2-4v-59l7-2 23 12q25-5 35 6l1-3-46-29-12-11-2-5 12-29v-13l8-18 10 2 2 10h10l-3-12-14-21q14-12 19-33l8 8q7 20 24 30l4 10 9 2 18 16 1-3-34-40-3-17-11-1q2-15-5-20l14-20 4-12 15 13 2 11 18 29 2 12 10-1-12-22q1-14-6-18v-13l-11-27 25-25 9-2 1 31 12 23v13l8 17 4-1q4-25-6-34v-25l-6-11v-29l18-3 2-11 39-18 1 19-6 11q4 25-6 36v53l5 1q-1-16 7-23v-37l6-11v-13l20-54h11l23-12 23-6 1 7-30 71v7l-18 35v11l4 1 8-11v-13l15-23 5-17 43-67 5-13h11l23-12h17l1 3-24 39-1 12-11 2v11l-27 41-9 23 5 1 35-59 8-2 20-41 13-5q6-20 23-29l4-2zM476 198l-2 5 5 1 1-4-4-2zm54 6l-2 5 5 1 1-4-4-2zM229 324l2 13q9 13 26 19l9 16h10l-34-37-2-9-11-2zm-19 288l36 2-45 58-15 36v11l4 1 34-58 21-14 1 3-6 9v97q9 8 6 30l18 35 2 12 10 2q3 19 18 27l-6 1-42-19-3-11-15-23-3-13-9-11v-79l6-10-3-2-21 36v7l-12 23-1 12-5-1v-71q8-7 6-24l36-52-3-2-10 10q-18 2-28 12l-10 14-3-1 20-35q15-2 22-12zm68 150l4 2 15 35 45 44 36 21q16-2 23 6l1-3-42-22-5-14-13-4-3-11-27-34 3-2 45 45q19 5 30 18l24 9h13l11 6h19l29-12 18-1-1-11q-7 8-23 6l-11-6h-25q-10-9-30-7l-1-11-11-1 2-5h95l29-12h13l17-12h13l35-12h19l9-5 8 5 18 2-1 4h-29q-7 8-24 6l-13 10-29 11-42 30 2 3 76-30h19l29-12h17l1 5-24 7-60 33 2 3 28-12q21 3 30-6h25l11-6q21 3 31-6l11 6 24 2-1 4h-47q-7 8-24 6l-23 12-13 2 2 4h41q8-9 30-6l11 6h43q8 9 30 6l22 8 19 20-1 2-28-12h-25l-11-6q-26 4-36-6H630l-11 6h-49l-11 6H330l-34-31-8-16v-13l-12-29v-23l2-2zm402 30l10 2-1 4-11-1 2-5z" fill="#aa0c36" stroke="#aa0c36"/><path d="M421 282h53q8 9 30 6l24 9q10 13 30 18l11 12-14 15h-3v-6l-47-30h-13l-29-12h-12l-2 4-4 2-2-6h-30l-11 6-25 6-34 20-25 25-7 2-10-7 14-22 15-1 7-14q20-2 30-15 17 2 24-6h19l11-6zm194 12q11-2 15 4l6 15v164l-6 9q4 14-3 18l-51 26v13l-12 26-12 43-12 23-12 43-6 9-5 2-1-23 12-23v-13q8-7 6-24l12-23v-13l12-23 1-22 5 3 12-17-6-1 3-6 3 1 1 5q25-10 39-31l8-16v-13q8-7 6-24l-6-11v-19l-6-11v-19l-6-11q3-14-3-19l-3 1v6l-3-1q-8 16-27 20l-1 10q-38 15-66 40l-17 2-35 18q-22-3-30 6h-37l-11 6h-31l-9 6-3 6v43l-12 35v31l9 24 24 36 15 14 12 5 6 13 11 5 48 40 1-24 12-29q-3-22 6-30l1-31q13-4 17 3l-6 8v31l-12 29v49l-6 11q4 15-3 19l-80-36h-6l-1 6-9-6-5-11-37-43-33-58-29-2-14-6-8 5-6-5q-9 11-32 6l-11-5-2-4 1-3h24l11-6h13q7-8 23-6l3-5 3 2h1l12 13 10 2 7-16v-67l12-29v-25l9-25h119l23-12h13q4-7 18-6l28-14q19-19 48-30l13-13 11-4 3-10q18-10 24-31zm-182 42l11 2q-11 7-13 22l-11 2-15 40h-24l-3-2q6-28 25-43l29-16 1-5zm-132 24l5 3v15l-12 17q4 25-6 36v37l-12 35v35l-2 2-16-24v-23l6-11v-37l12-23v-13l6-11 6-25 7-10 6-3zm269 30l12 2-12 22v31q-9 8-6 30-6 18-20 28l-8-6-2-41q7-5 6-18l26-46 4-2zm12 73v6l-5 8-1-3 6-11zm-238 65l4 2 36 87-6 1q-18-6-28-19l-8-16v-53l2-2zm260 42l2 2q2 15-6 22v19l-6 11q1 13-6 18v13l-18 41v13l-9 22-11 1-4-5 12-29v-19q9-9 6-30l12-24v-25l16-24 12-6z" fill="#efb543" stroke="#efb543"/><g fill="#c96d32" stroke="#c96d32"><path d="M628 288l2 9-1-1-10-2 9-6zm-177 6h12l29 12h13l47 31 1 5 1 1q-35 28-79 47h-19l-23 12h-27l2-3v-9l14-30 10-1q2-15 12-21v-2l12-8-1-4-17 8 1 4-7 1-12-1-39 24-22 40-14 2-3-12q12-13 14-34l18-18 10-3 3-11 33-18 24-7h2l4-2 1-3zm19 18l-2 4 45 32 3-1-3-11q-15-19-43-24zm89 3l11 13-15 14 14-15-10-12zm-249 20l-9 10 5 6-6-5 10-11z"/><path d="M603 342l3 2-6 16v25q-9 8-6 30l-6 11v25l-30 71v25l-12 23v13l-12 23v13q-8 6-6 24l-12 23v23h2 1l-6 1-9-23v-13l6-11v-19q9-8 6-28l-4-2-4 18-4-2q-3-20 6-27v-25l6-11q-4-15 3-19l14 6 1-3-11-12-35-17-37-25-42-21h-17l-2 31 12 29v13q7 20 24 32l47 27-5 1v30q-9 8-6 30l-12 29-1 24-62-47-4-13q-19-3-26-17l-27-42q1-14-6-18v-31l12-35v-43l6-9 6-3h31l11-6h37q8-9 30-6l35-18 17-2q29-25 67-41l2-11 9-2 16-16zm-33 48l-4 2-26 46q1 13-6 18l2 41 8 6q14-10 20-28-3-22 6-30v-31l12-22-12-2zM344 528l-2 2v53l8 16q10 13 28 19l6-1-36-87-4-2zm180 18q0 16-8 24v17l5 1q-1-16 7-23v-17l-4-2zM312 353l1 1h-1v-1zm324 124v4l-5 10-1-5 6-9zm-6 24v4q-10 10-6 36l-12 23v19l-6 11v19l-12 29v13l-18 41v13l-6 11-6 25q-6 19-21 29l-3-2v-28l7-15q2 5 12 3l4-3 7-20v-13l12-23q-1-14 6-18v-13l12-29v-19q8-7 6-22l-2-2-15 9 3-4 2-17 12-23 6-23-2-1 20-10zm-396 33h13l17 9 1 17-3-1-4 3v2q-17-2-23 6h-13l-11 6-25 1 3 5h-2-31l-18-15 18-9h7l47-18h13l11-6zm342 9v4l-5 10-1-5 6-9zm12 37v3l-12 17q5 24-5 33l-1-42 18-11zm-357 2l7 5 3-2-4 3-6-5-3 2 3-3zm330 42l3 3q2 15-6 21v13l-6 11v13l-6 11v13l-12 29v19l-8 23-10-2 12-27v-19q9-9 6-30l12-23v-13l15-42zm-197 78l8 6 1-6h6l80 36 3-2q3 19-6 27l6 15q-3 5-5-1l-17-5-48-35-3-11q-11 0-15-7l-10-17z"/></g><path d="M471 312q27 6 42 25l3 9q-3 5-6-2l-42-29 3-3zm136 24l3 2 2 17 6 11v19l6 11v19l6 11v13q-8 6-6 24l-8 16-23 23-17 9-12 17-6-3 30-73v-25l6-11v-19l6-11v-25q8-8 7-25zm-34 168l-3 6h6v-5l-3-1z" fill="#f5c260" stroke="#f5c260"/></svg>