<svg xmlns="http://www.w3.org/2000/svg" viewBox="0 0 768 684" xmlns:v="https://vecta.io/nano"><style><![CDATA[.B{stroke-width:3}]]></style><path opacity="0" d="M1 0l365 1v5h-13l-11 6h-13l-23 9v3l-6 1v2l-18 7v8l-18 10 2 2-2 1v5l-12 3v3l-10 7-5 11-8 3-1 9-4 1q-10 9-8 29l-6 1v23l-6 1q2 15-6 21 10 3 6 20l-6 1 1 5 5 1 1 47 7 1-2 2v39l6 1q-11 9-6 35l-11 22-4 2-9 1-3 5-3 1 1 5h9l2-4v4l-18 21-11 5-31 31-12 4-1 10q-17 3-23 16l1 3 16 2v3l-10 3-35 35-30 48-3 16-11 2v11L6 599l-1 12-4 1V0zm403 0l364 1v665l-11-1-9-22-16-25v-19l-15-17q-2-21-15-30 1-14-6-18v-19l-24-27-30-17 3-8v-2l28-11h25l16-6v-6l-10-6h-19l-23-12h-7l-46-30-3-12-11-1-1-11-16-6h-37l-23-11-2-4q-2-14 6-18v-30l-1-3h1v-6h-8l2-2 1-34h5l1-6h5l1-30 9-6 2-4v-63l-24-45-4-1 1-2-3-11h-6v-6h-3l-15-36h-6l-2-6h-4v-6h-17l-19-6-2-6h-4v-6l-10-6-18-2V0zM216 338v7l-1 2h-4l5-9zm-11 6l5 7h1l1 3h-1l-7-3 1-7z" stroke="#000" class="B"/><path d="M367 0l22 1-1 3-18 2-3-6zm110 37l2 2v1h-3l1-3zM259 60l-1 2 1 4-1 3-5 2-2-4 2-4 6-3zm152 2l5 4-2 1v4l-3-9zm-165 8l1 2 7 1h-2l-5 2-1-2-5 9-1-3 6-9zm90 14l4 3v1l-5 3 1-4v-3zm-16 11v2l-2 5 2 1-2 5-5 2-1-2h-2l1-2-2-3 3-1 1-3 7-4zm-94 2l2 4 1-4 2 5-3 1h-2l-3 1-1-1 4-6zm129 5l3 1-11 5 2-3 6-3zm48 0l5 4v4l-5-8zm-175 5v7l-8 11-4-2 1-4 4 1 5-12 2-1zm78 3l1 3v1l1 1-2 5-5 2-1-2h-2l3-6h3l2-4zm-95 27l4 1h1l-2 5-4-2 1-4zm90 31l1 1-9 5 2-3 6-3zm192 0l5 1 2 5h-4l-3-6zm-286 1l3 8-1-1-4-1 2-1-2-3 2-2zm277 11v3l-1 3h-3l4-6zm-277 1l1 1-1 3-2-2 2-2zm178 5l3 1-10 5v1l-4-1 11-6zm9 0q14-2 19 6l-11 1-11-1h-3l6-6zm29 1l8 5h-15v-1l7-4zm-179 5l3 1-1 4 1 1-6-2 3-4zm14 0l4 3v1l-4 2v-1-5zm59 0l11 6 4 4 3 2h-4l-11-5-3-7zm139 0l6 4 1 2h-7v-1-5zm19 0l1 1-2 6-4-1h-3l2-3 6-3zm-12 7l7 11-2 1v4l-5-10h-2l2-6zm41 1v4l-5 8-1-1 6-11zm-270 4l4 3v1l-4 2v-1-5zm126 3l1 2-4 1 3-3zm96 1v7l-2 1-4-6h2l4-2zm-107 6l5 7 1-4 3 6-1-1-3 1 6 11 1-4 1 4-2 1v3l-11-24zm84 2l1 1-2 11 2 1-2 11-12-7-2-5h-5l2-3 18-9zm-162 2l5 13q-10 7-6 28l-2-1-3 5-1-16 6-16q-10-5-3-9h3l1-4zm65 0v4l-5 10-1-3 6-11zm-129 5l3 3v3l-4-1-2 1 3-6zm274 1l2 4 3 1-5 9v-14zm-168 2l5 7 2 1-2 1 2 5h-4l-3-14zm135 2l2 1v6l-4-1-2 1 4-7zm20 1l1 5 1 1-2 29-5-2 4-9-2-1-3 2 4-12-3-5 5-8zm58 0l2 6-1-1-4 1v-1l3-5zm-310 6v5l-3 6h-4l2-1 5-10zm151 12l5 8h1l7 9h-1l-10-6-4-7 2-4zm-43 2l-4 5-1 3-1-2-2 4-8 4 1-6 9-7 1 2 5-3zm120 1l1 1-6 9-1-2-6 4 1 2h-5l-2-4 11-4 2-5 3 1 2-2zm48 0l1 2-2 1-5 8-7 2-3-1-2-4h2q13 1 16-8zm-261 3l1 1v2h-2l1-3zm282 1l3 2v3l-4-1-2 1 3-5zm-296 18l5 10-4 1-1 3v-14zm141 4l2 1-3 5-1-2 2-4zm155 1l1 1-3 6-1-2h-2l5-5zm-51 1v4l-5 8-1-1 6-11zm-225 6l1 1v2h-2l1-3zm-17 4l2 1v6l-3-1-8 7v-1l9-12zm41 7l3 3v2h-6l3-5zm253 5l1 1-2 5-3-1 2-1 2-4zm-297 2l11 14-4 3-1 3-6-20zm147 4l37 2-2 4-16 5q-8-7-24-5l5-6zm-133 1l3 3v2l-5-2 2-3zm108 5l3 3-2 3-19 6-3-3 12-5 1 2 5-2 3-4zm-124 3v5l-4 6-1-2h1l4-9zm300 2l1 1-5 8-1-2 5-7zm-295 12l-3 4-1-2 4-2zm-10 11l1 9-4-1-1-3 4-5zm85 0l13 14-11-6-2-8zm213 2l2 1v2l-7 3-1-2 2-1 1 2 3-5zm-310 4v5l-5 2-2-4 7-3zm274 8l2 1v2l-4 2-1-1 3-4zm-4 4l1 3-1-1h-2l2-2zm-151 2l17 12 3 4 3 2h-3l-20-18zm-101 7l1 5 1 1-2 1v-2l-5 8-1-5 6-8zm217 5l11 2 1 10-19 8v1l-6 3v-1l2-3 16-10v-4l-30 16 1 2-13 6v-1-5l-6 3 1 3h-19v-1l-2-5-4 1 1 5-1-1-15-5-2 4-1-4-6 4 2 2 2 2 1 3-1-1-8-3-1-4-6-2 5-1-6-11 3-1q3 8 17 6l3-2 1-7-1-3 25 1-6 9 10 8 3-6h13l35-18zm-117 6l4 6-2 1 6 9-5 2-12-5 5-1 4-12zm-70 3l-5 6-8 4-1-1 14-9zm-28 5l2 1v2l-3-1 1-2zm246 5l3 3-2 1-1-4zm-157 3l7 8-2 1 1 3-3-3-2 1-2 5 9 17-3 1v8l-12-3-5 4v1l-1-4-3 5-7-2-2-10-6 1-4-1-2 1 2-5 10-3 6 2 7 11 11-6-4-15 2-3 2-1 1-13zm192 6l5 13h-1l-4-13zm-150 4l1 4h-1v-4zm-30 2l3 2-4 1 6 3 2 2 4-1-1 2-2 4-7-4-4-6 1-2 1 1 1-2zm41 7l5 4-2 3-3 2 1 4h5l1-4 3 4q11-3 14 4l2 6 10 6 2 2 6 6-7 2-2-2 1-2-7-10-23-1-2-10-4 3 3 8h-18l-1-2 2-4 7-3 1-3-6-10 4-2 7 6 1-4v-3zm129 2l3 3v3l-8-1 5-5zm-169 6l4 3-2 9-3 1-3-7 2-1 2-5zm190 0v6l-5 10-1-5 6-11zm-18 7v5l-6 18-5-3 11-20zm-158 10l2 1-3 5h-4l5-6zm111 4l4 7-1-1-4-1-1-2 2-3zm60 1l5 5v4l-5-9zm-151 7l13 1-1 4 1 1h-21l8-6zm91 6l5 1-1 5-5-1 1-5zm60 5l3 3 2 9v1l3 1 3 7-4-3-1-4-3 1-3-2-1 5-3-5h-9l1-6 5-1-1-4 8-2zm0 7l-1 3 4 2h1l-1-3-3-2zm-311 1l4 3v2l-5-2 1-3zm12 5l4 3-2 3h-4l2-6zm365 0l3 1-4 2 1 3 1 1-3 11-3-1-2-13 7-4zm-67 9q-3 15 4 21l2-1 1 2-1 4 4 3 3 6h-1l-5-2-1 25 6 11-4 2-2 11 12 23v6l-6 3 10 20 5 2 5 11-2 1v1l-5-2q-12 10-7 37l12 17h-29l-7-9 6-9-12-23q4-21-6-28l5-6-5-6 5-6-11-6 6-9-8-11-4 3v2h-6l1-18 9-6 6 5 2-4v-43l10-23 8-4zm-50 9l2 1v5h-6l4-6zm-19 18l3 3-2 3-4-2 3-4zm-159 2v4l-5 10-1-6 6-8zm93 4l3 2 3 4h-6l-3-3 3-3zm17 0l4 1v5l-6-1 2-5zm11 0l5 2v4l-6-2 1-4zm74 0l3 3-2 3-4-2 3-4zm-189 8v4l-11 16-1-4-5 2-1-1 6-11 1 4 9-6 2-4zm136 4l14 14-1 10-11-1-6-17 4-6zm-103 6l3 1-1 11-10 9 5-6v-3l-6 2 1-2 5-10 3-2zm162 6l3 3-2 3-4-2 3-4zm-207 9v4l-5 10-1-5-3 1 1-2 2-4 1 4 2-4-2-1 5-3zm-6 17v4l-3 6h-2l5-10zm-7 8l1 1-1 2-3-1 3-2zm272 16l5 12-4-3-1-9zm-298 34l3 1-2 5-4-2 3-4zm427 12l2 1-3 5h-2l3-6zm3 18l5 1-1 5-5-1 1-5zm-6 18l5 1v11h-6l1-12z" fill="#17152b" stroke="#17152b" class="B"/><g fill="#010106" stroke="#010106" class="B"><path d="M391 0l12 1 2 3 17 2 10 7 1 5 5 3 1 3q13-1 18 6l17 1 1 5 1 1-1 2 4 2h1l1 1 5 1 16 35 2 1 1 6-1 18 10 17 2 2 4 10 2 2 4 10 2 2 6 13v42q-7 2-6 14v2 13h-4l-2 15v2 5l-6 1v1l-2-1-4 12 3 4 3-2v19l-5 2-1-2 5-8-2-2-9 8 1 10 9-1 2-4 1 5 5 3-2-2-3 2-1-2-5 9-1-4-6 2q9 5 6 23l-6 17 3 1-2 4-1-4-3 5-15 3 2 3 4 3-1 3h-22l5-3v-3l-12-1v-30l-2-5h-4v-26q10-8 7-30l5 2 2-16 4-2q-3 13 4 17l3 1 8-5 9-17v-28l6-9v-29l-6-5v-3l-6 1 2 5q-14-2-18 7l-1 3-5 3-1 3-6 1 5-10-4-2-2-17-3-5-5-1-46-45-2-8 2-1 1-12h3l8-16v-8l-3-5-3-1-6 5-1 19-3 2-2 7 3 3-12 6h-39l-9 6 1 1-15 9-6 12-5 3-1 3-5 4-11 28-13 7-8 16 18 3-1 4-29 2v22l-6 2 6 11-6 11v38l6 8v10l14 28 16 21 16 9 14 15q6 6 21 3l3 4-3 7-9 1-11-6-1 4 6 8h-3l-4-2-12-16-3 2-2 10-11 3q7 2 5 13l-6 7q4 15-3 19h-3l-6-12h-6q-2-13 6-16v-42l-3-2-5 7q-4 7-17 5l-32 18 1 1-12 5 2-3-4-9-8 4v2h-9l3-5 1 4 3-5 2-1 6-10 1 2 5-4v-5h-6l7-12h5v-12q8-7 6-22l-3-2-8 11-1-5 4-6 2-1-10-14 2-3 2-1v-11l-5 2-2-2 2-1 3-5h2l-6-11-2-18-3 2-1-6q7-3 6-15l-8-12-3 2-2-26 1-4v-2l1-8 3 1 2-11-3-6-3 9-6-6 7-16 6 1 5-3 1-3 9 5 1-2-11-9-1-17 2-3 3 2q10-6 9-24l3-1 8-15 10-8 2-4 3-1-2-1 5-3 1-3 5-1-1-4 2-4 5 3v-2q-10-5-3-9l15-7 3-11v4l2-1-1-3 14-4 1-3h5l1-4 2 3 2-1-1-3 19-7h13l11-6h13l1-2 18 2 4-3 2-3zm44 19l1 4 1-2-2-2zm-81 23l-11 6-23 2-1 2 5 2h19l11-6 29-2v-1l-4-3h-25zm-36 24l-4 2-1 2 5 2h49l4-2v-1l-4-3h-49zm141 7l-2 2 19 32 13 13 24 35 2-1-49-74-7-7zm-150 6l-11 6-4 5 2 11h2l13-20-2-2zm21 5l-2 1-4 8-10 5-2 4h-2l-6 11-3 1-1 3-4 3-2 5 5 1 1-2 6-4v-2l12-10v-2l23-18v-1l-11-3zm105 7l-2 3 45 43 1-2-44-44zm-163 5l-26 53v6l5 1 25-52v-6l-4-2zm-11 67l-8 9 3 1 7-8-2-2zm-31 29l-2 6h6v-2l4 2 25-2v-1l-4-3h-29zm0 12l-2 2 2 4 9-2v-1l-9-3zm1 43l-3 5 2 5h2l2-3-2-6-1-1zm258 30l-26 20 2 2 20-13 6-7-2-2zm-252 6l-5 10-4 2 1 5 8-1 3-4-2-11-1-1zm24 11l-9 12 2 5h2l4-9 4-2v-3l-3-3zm-30 12l-3 4 6 2v-3l-3-3zm264 1l-14 15 3 1 13-14-2-2zm-11 35l-4 6h3l3-5-2-1zm-94-156l2 1-4 6-9 4-1-2 2-4 10-5z"/><path d="M480 188v47l-3 5h-3v-6h-6l1-24 3-1 2-13 6-8zm-77 4h45l2 3 2 3 9 4 1 2-12 4v2l-39 18-9-8 1-28zm-84 6q10 10 36 6l10-5-1 2-3 7-4 2-3 2v4l-6-3-1-3-11 2-6 16v12l-5 10-4 2h-2q7-7 5-23-10 1-12-4l12-19-6-5 1-3zm119 21v3l-3 6h-3l6-9zm-83 3l2 1 3 10h-1l-4-11zm6 12l2 1 3 11h-2l-3-12zm86 0l3 3-1 3-5-1 3-5zm-74 18l9 6 2 5-2 1-9-12zm-40 24l9 3-2 3-9-1-1-2 3-3zm-122 32l3 9-3 6v-15zm126 4l-1 2-1 2-4 2-1-2 7-4zm-117 18l2 1-3 5h-3l4-6zm-6 11l-3 4v1l-1-1 4-4zm-1 6l1 1h-1v-1zm252 13l3 1v7l-6-4 3-4zm-2 12l2 1-3 10 10 7v4l-3 1-2-3-4-1v-3l-1 2-3 1 9 20-3-3-3 2 2 2 6 2 15-9 1-6-4-2 5-1 5 4v14l-9 6 1 1-4 2v3q-33 5-54 22l1 2h-21l2-3v-3q-13 2-17-5l-9-13-10-6-4 2h-2v4h-6l3-6 3-2-2-4-4-1-1-3-9-3-2-5 4-6q14 11 45 6l9-6h15l21-12h9l10 5v-1l-5-9 3-5 4-2zm-33 24l-9 10 5 2 3-1 3-10-2-1zm-241-6l7 1-4 2-2 3-4-2 3-4zm124 12l5 4v1l-6-2 1-3zm7 6l10 3-2 3-8-6zm25 6l3 1v5l-6-2 3-4zm154 0l3 2 2 29 6 9-6 4v4h-18l5-9-5-6 6-8 7-25zm-222 12l5 1 4 10 8 2-3 5-8-3-2 1-4-16zm92 24l3 2 3 4h-6l-3-3 3-3zm17 0l10 1-3 5-9-1 2-5zm119 24l5 4v2l-6-1 1-5zm69 1l1 1 1 4h-5l-1-2 4-3zm-58 8v19l-5 2-1-17 6-4zm-234 16v24l-7 9-4 2-1-6 12-29zm-20 59l2 1-5 16-1-2-4 2v-1l8-16zm261 0l5 3v20q-9-7-5-23zm0 24l3 2 2 9h-1l-4-11zm6 18l5 4v19q-9-7-5-23zm6 30l5 4-2 8h-4l1-12zm6 42l5 3-2 3h-4l1-6z"/></g><path d="M310 19l1 3-2 1-2-2 3-2zm125 0l2 2-1 2-1-4zM286 31l1 3-2 1 1-4zm191 5l3 3-1 2h-2l2-1-1-3-2 1v1l-1-1 2-2zm-123 6h25l4 3v1l-29 2-11 6h-19l-5-2 1-2 23-2 11-6zm-89 12l5 4v2l-6-3 1-3zm149 6l5 4 1 3-1-1-8-4 3-2zm-4 3l4 9-5 10-1-17 2-2zm-92 3h49l4 3v1l-4 2h-49l-5-2 1-2 4-2zm-63 6l-2 3-1-2 3-1zm204 1l7 7 49 74-2 1-24-35-13-13-19-32 2-2zm-150 6l2 2-13 20h-2l-2-11 4-5 11-6zm99 4l1 7-1 7-6-4 4-9 2-1zm-78 1l1 1-6 7-1-2 4-5 2-1zm11 2v2h-1l1-2zm94 5l44 44-1 2-45-43 2-3zm70 1l5 7h1l8 21 3 3v10l-4-2-3-11-3-1q-10-9-7-27zm-271 2l-1 4-1 3h-2l-1-4-1 4-2-4-2 1 5-3 3 1 2-2zm75 9l1 1 1 3-3 2-1 3-2-2 4-7zm27 11l4 1-7 5 1 1-3 1-1-2 4-5 2-1zm-111 6l-5 6-4-2 3 1 6-5zm93 16v8l-5 10-2-3 7-15zm205 1l11 10 2 9 4-1v8l-1-1-4 1-8-19-3-1-1-6zm-312 4l3 2 2-1 1 2 10 9-1 2-9-5-2 4-5 2v-1l-1-4 2-10zm244 15l6 4 1 6h-1l-6-10zm-194 7l2 2-7 8-3-1 8-9zm-54 5l1 2-3 1 2 3-2 1 5 3-1 5-1-2-3 2 2 2h1l-4-1q-3-13 3-16zm256 7l3 5 2 1-5 9v-15zm-84 16l-1 4 1 3h-10v-1l9-4 1-2zm-145 1l9 1-2 3 2 2-9-3v-3zm66 0q17-4 21 6l-3 1v1l-19-2 1-4v-2zm149 0l7 2-1 4-5-1-1-5zm-186 2v2h-1l1-2zm98 4l4 1-14 5v-1l10-5zm97 0l10 1 2 5 4-1v2l-3 5-8-11-1 4-3-4-1-1zm-2 6l1 1-3 5-4-1 2-3 4-2zm-217 2v2h-1l1-2zm210 4l1 1h-1v-1zm-131 4v3l-5 7-1-1 6-9zm121 1l1 4-5 3-2 5-1-8 7-4zm-36 5l7 8-8-2 1-6zm-196 2l3 3-2-2-3 2 2-3zm106 3l11 4v6l-5-3-2 1-4-8zm-102 1l5 9-5 10v-19zm315 2l2 3-4-1 2-2zm-55 6l3 1 1 5 3-1 2-4v5l-5 10-1-4-5 3-1-12 3-3zm-26 5l4 1h1l-5 10-5 2-2-5 6-1 1-7zm-78 3l7 10-2 1v2l-5-8-1 3-2-3 2-1 1-4zm-136 5l1 1 2 6-2 1v-2l-2 1v1l-2-3 3-5zm-18 6l1 1 2 5-1-1-4 1-1-3 3-3zm301 0l2 2-1-1-1-1zm-283 3l1 1h-1v-1zm37 2l1 1-4 9-1-4 4-6zm115 0l7 3-2 3h-5l1-3-1-3zm55 0v3l-5 2-1-1 6-4zm42 5l1 1h-1v-1zm31 0l4 1h1l-2 5h-2l-1-6zm2 13l2 2v1l-1-2-6 5 5-6zm-24 1l2 2-6 7-20 13-2-2 26-20zm-252 6l1 1h-1v-1zm-1 2l1 2h1l1-2 1 10-3 4-8 1-1-5 4-2 4-8zm274 1l1 2 6 1-2 1-2 4h-9l1-7 3 1 2-2zm-249 8l3 3-2-2-3 2 2-3zm255 1l1 2 3-2 2 6-1-1h-8l3-5zm-258 3l1 2 2 1-5 10h-2l-2-5 6-8zm-27 8l3 3-2-2-3 2 2 3-3-2 3-4zm264 1l2 2-13 14-3-1 14-15zm16 3l4 7-4 6v-13zm5 9v5l-5 10-5 3-1 3-1-4 6-11 4-2 2-4zm-288 3v2l-5 8-1-2h-2l2-4 1 3 5-7zm6 4v5l-5 10-1-4 6-11zm-18 6l1 4 1 1-1 3-1-3-5 7-1-4 6-8zm268 10l2 1-3 5h-3l4-6zm-286 3l1 2-4 1 3-3zm21 3l5 6-2 1-7-1 4-6zm244 5l8 2-2 5-1-2-5 4v-9zm28 1l6 2-1 2-4 2v-1l-1-5zm-25 18l2 6-4 1-1 4-1-5 4-6zm-9 7l4 10h-1l-9-4 5-1 1-5zm-252 5l2 1-2 4v-5zm11 0l3 2-2 1 2 2h1l1-2 1 6-5 3-7-3-1-2 3-5 4-2zm-13 1v2l-2 3h-3l1-3 4-2zm260 3v3l2 4 2-1v-2l3 7-2 8-9-16 3-1 1-2zm-157 2l1 1-1 7-5-5 5-3zm24 4l2 2v1l7 5h-6l-3-8zm100 2l2 1-3 10-3 1-5-2 9-10zm58 0l10 4 6 19h-1l-2-5-3 1-5 16-3-16-6 5 1 1 4-7h3l-1-16-3-2zm-4 6l1 1-2 4-3 2-4-1 8-6zm-130 6l6 4 1 2-1-1-6-2v-3zm110 0l4 4 1 1 1 1h-2l-6-3 2-3zm-162 3l4 15-8 6 2-3 2-18zm62 3l2 4-3 2 2-3-1-3zm8 6l8 6h-10l-4-4h2l4-2zm-59 6l5 3v6l-4 2-1-11zm72 4l6 9-2-2-5-2 1-5zm71 2l4 1-16 8v3l-12 3v3l-6-1 2-3 28-14zm36 1v6l-5 7-1-2 6-11zm-165 5l6 1-4 5-5-2 3-4zm73 6l8 1-3 5-5-6zm87 4l4 6-5 8v2 4h-3l-3-11 6-2 1-7zm-166 2l32 1q-6 9-25 5l-7-6zm51 0l13 1-1 4 1 1q-11 2-13-3v-3zm-258 2v2h-1l1-2zm396 2v13h-1l-2-5-3-1 2-5 4-2zm1 21l5 8-6 4q4 13-2 17-8-7-4-24h2 4l-1-3 2-2zm-231 23l2 1-5 10-1-4 4-7zm236 4v13h-1l-2-5-3-1 2-5 4-2zm-5 14l6 3 5 7v22l6 12-2-2-4 1v12l6 16h-1l-2-5-3 1 12 20-3-3-3 1q-2 12 3 17h-3l-5-3q0-13-7-18l6-3v-6l-12-23v-7l4-6h2q-11-11-5-36zm-244 24l3 1-1 9-4 2 2 1-2 4-1-14 3-3zm42 6l3 1-6 8-5 2-1-1 6-8 3-2zm-57 26l1 3 3 2-4 2v9l-6-3 6-13zm277 58l5 3 1 9 5-2q-3 23 6 34l-2-2-4 1 1 5 5-2v8h-11q-18-10-13-42l7-12z" fill="#0b0e1f" stroke="#0b0e1f" class="B"/><path d="M261 60l3 3-2 3-4-2 3-4zm-30 30l3 1-3 5-3-3 3-3zm-4 13l1 3-5 2-1-2 5-3zm-8 11l3 3-2 3-4-2 3-4zm-6 12l3 3-2 3-4-2 3-4zm109 6l5 1-8 15-1-9 4-7zm215 30l3 3v4l-4-1-2 1 3-7zm-1 12l4 2-2 4-4-2 2-4zm-62 10l1 2 3 1-8 4v-1l4-6zm-194 14q22-5 32 4v2l-18 15 2 3 10 2 6 20-4 2-2-11-9 5-12-6-3 2-6-13v-8l3 1 9-1-1-5q-13 4-17-2l10-10zm93 0l13 1-3 11-13-6-4 11 24 3-6 21 12 3-1 4-17 1 8 9 3 2h-4l-16-12-9-23v-12l6-11 2 1 5-3zm75 19l2 2v3l-5 1-3-1 6-5zm-27 23l5 4q3 11-3 14l-3 2 1 4h-19v-1l-1-4q13 2 18-4l1-2v-2l1-11zm-205 41v5l-3 2-3-4 6-3zm-3 19l3 1v7l-6-3 3-5zm306 0l3 3-1 3h-5l3-6zm-305 24l2 1-3 5h-3l4-6zm306 0l1 1-4 9-4 2h-2l5-10 4-2zm-26 24l14 1-7 5-7-6zm-298 6l6 1-9 7-1-4 4-4zm14 0l7 1-8 9-3 1v-1l4-10zm0 14v14l-7 2 1-2 6-14zm61 4l7 1-6 4-2-3h-2l3-2zm17 8v5l-5 10-1-5 6-10zm-83 10l-1 2-1 2-8 2v-1l10-5zm30 0l4 1-14 5v-1l10-5zm294 4l4 3-4 7v-10zm-34 2l9 4v6l-6-8-3-2zm-219 10l1 2 5 1v6l-5-1-1 2-6-1 6-9zm61 2l4 1-2 5-3 2v10q-10 2-12-3l1-3h3l2-4 4-2 2-1 1-5zm179 10l1 1-6 12-1-5 6-8zm-258 1l2 2-4 5-4-2 1-4 5-1zm231 1l3 3-2 3h-4l3-6zm-219 1l2 11 2 2 2 9h-1l-10-16 3-2 2-4zm204 9l1 2h5l1-2 5 3-3 5h-14l5-8zm-146 2l2 1-3 5h-3l4-6zm381 4l5 5-2 3h-5l2-8zm-384 8l29 1-3 5h-23l-4-3 1-3zm371 0l10 1q-6 7-20 5v-1l10-5zm-419 4q7 3 6 14l-1 5q-8-6-5-19zm-125 2l4 2-1 4-5-1 2-5zm514 0l4 1-14 5v-1l10-5zm-478 6l10 3v3l-12-1 2-5zm454 0l10 1-16 7 1 4h-5l-2-2 12-10zm-432 6l2 1-8 7 4-7 2-1zm24 0l11 6h-17l-3-1 9-5zm375 0l4 1-1 4 1 1-7-2 3-4zm9 0l6 2-1 4h-6l1-4v-2zm-107 2l5 14h-1l-4-14zm-295 4l18 12 17 1-17 5-18-15v-3zm362 0l4 2v4l-6-1 2-5zm12 0l4 3-2 3-4-1 2-5zm-331 4l4 4-2 4h-4l2-8zm-78 2l5 3-2 3-4-1 1-5zm371 0l11 1q-5 6-18 5l3-4 4-2zm-359 1l5 10 1-2 10 3h1l-1 6-5-1-1-3-11-5 1-8zm414 3l7 14 9-5 1 5-6 2 1 9 18-5 7 6-20 6-23-15-1 2-11-14-6-2 8-1 12 6 1-2 2-1-1-3h1l1-2zm-71 7v2l-8 6 6 13-4-3-8-14 14-4zm-254 2v5l-5 10-1-4 6-11zm15 5q9 15 27 22v2l-12 2q3 18-5 26l-4 2-6 12h-3q-3-21 6-30l-6-11 6-3q-9-4-6-19l3-3zm245 0q12-2 16 4l-1 14-5-1-1-11-11-1 2-5zm-221 6l3 1-2 5-4-2 3-4zm62 0l21 1q-3 6-14 5l-7-6zm-122 6l3 1-2 5-4-2 3-4zm406 4l5 8-1-1-7-4 2-1 1-2zm-14 2l25 15-1 3h-17q-7-8-24-6l-16 10-3-4-14 12-2 5-1-5 14-22 22-2 3-5 3 2 1-2 5 8 12 3v-3l-7-9zm-113 4l2 2v1l6 5h-1l-7-3v-5zm43 0q9 6 5 25h-1l-2-5-3-1 2-5h3l-4-14zm-245 2l4 2v4l-6-1 2-5zm221 0l16 6h1l-2 6-4-1-2-5-4 1-1 5-10-5 5-1 1-6zm-289 7v5l-5 10-1-4 6-11zm410 11l4 3-1 9-5-1 2-11zm-314 18q11-1 14 6h-21l3-4 4-2zm332 19l4 2 1-2 11 29v19l-6 16 16 9 13 40h-10l-6-15 5-3-1-4-5-2-5 4-1 20h-36l18-34v-6l-2-2-19 30-3-12q8-7 6-22l-2-1-9 7-1-2-5 1-1-1 4-6 2-1 1-12 4 1 9-22 5-2 5 4 2 26 4-1 6-16v-13q-9-8-6-27l2-2zm-16 35q-8 8-4 29l3 1q8-8 3-29l-2-1zm-153-29l5 16h-1l-4-16zm134 11q9 4 9 19l-5 10-2-23-4 1-1-4 3-3zm-3 13v6l-5 10-1-5 6-11zm-432 30v6l-5 7-1-2 6-11zm420 18v6l-6 11 4 2 8 16h-11l-1-12-5 2-1-2 12-23zm9 5l3 3-2 9-4-2 3-10zm-116 1l5 15h-1l-4-15zm-301 5l18 2 5 14-5 8h-42q7-6 7-20l6 2 11-6z" fill="#4e73b2" stroke="#4e73b2" class="B"/><path d="M250 66l2 3-5 2-1-1 4-4zm72 30l2 1-3 5h-3l4-6zm8 26v5l-3 5h-2l5-10zm-6 8v2h-1l1-2zm211 14l5 2-1 4-5-1 1-5zm1 24l4 2v5l-4-1-2 1 2-7zm-68 22l1 2 3 1-4 2-2 3-4-2 1-4 5-2zm-267 2l3 3-2 3-4-2 3-4zm336 0l3 3-1 3-5-1 3-5zm-5 18l2 1-3 5-1-2 2-4zm-136 3v28l-1-1-11-1 6-21v-2l6-3zm46 3l8 2-1-1-10 7-1-1 4-7zm-135 9q7 2 5 14h-1l-4-14zm-101 9l4 2-1 4-5-1 2-5zm218 6l8 3q3 12-2 15h-7q6-3 3-14l-2-4zm100 0l4 2-2 4-4-2 2-4zm-128 18l6 2-1 4h-6l1-4v-2zm-184 18l4 2-1 4-4 1-1-5 2-2zm-1 29l5 4v3h-3l-2-7zm311 0v5l-4 2-2-4 6-3zm-300 13l-1 2-14 22h-3l6-16 1 4 3-1 2-4-2-1 2-4h2l4-2zm297 0l3 3v4l-2-1-5 2 4-8zm-291 15v4l-6 11h-6l12-15zm288 0v3l2 12h-11v-1l3-1v-4h-3l9-9zm-327 15l3 3-2 3h-4l3-6zm304 0l-1 2 2 4h-5l-2-3 6-3zm-210 18l1 1-9 5 2-3 6-3zm-16 7l1 1h-1v-1zm21 12v6l-6 11h3l3-2-5 10-1-2h-6l12-23zm36 11l6 4 2 2 13 7 2 4-7 1v-1l1-4-4-1-1 3-18-11 6-4zm204 3v6l-2 4-8 6-1 3-5 4-1 3-1-8 18-18zm-215 15l13 6-2 1v1h-3v-2l-9-2 1-4zm20 0l-2 3-1-2 3-1zm10 6l5 3-1 3-9 6-3-4-4-1 6-2 4 1 2-6zm126 16l1 2 9 1-5 3-1 2-5-1 1-7zm-156 2l5 1 2 3 3 2 4 6-9 1v1l-11-7 5-1 1-6zm30 0l17 2 4 4 2 1-2 5h-13l3-5-17-1 5-3 1-3zm-130 24l18 7-3 8q-5-8-16-9l-2 7-7-1 10-12zm424 4l1 3h-1v-3zm-444 6l12 9-1 4 1 1-6-3-1 2-5-13zm106 1l18 13h-5l-15-11 2-2zm-46 1l5 3-1 3h-10l5-3 1-3zm311 0l4 1-14 5v-1l10-5zm-20 6l5 1-3 8 4 1 2-1 2-3 4 2v7q-5-5-16-3l-2 1v-7l-6 4q-2 10 4 14h2l1-7 11 3 2 10 4-1 6 10-3-3-3 1v5q-13 2-17-5v-3h-2l-11-21 8-6 1-2 7-5zm-94 6l2 1-12 5v-1l10-5zm-152 6l8 6 1-6 11 4-5 6 17 12 1 2 6 1-1 4 6 1v-4-2q6 8 22 6l11 12q6 6 3 21l3 3-4-4-11-2-8 6h-28l-5 3-1-15q7-5 6-18l-3-5-11-1-4 3 2-9h10l-1-4q-18-6-25-20zm53 49l-2 3 3 1 1-2-2-2zm16 5l-1 3 4 2 2-4-5-1zm-42-54l5 3v3l-5 3-1-3h-3l4-6zm107 0l3 1-13 5v-1l10-5zm169 3l26 15 3-2 1 2 5-3-1-2 5-1 3 7-1 2-3-2-3 5q-22-4-28 8l-10 28-4-2v-2l-4-1 4-1 1-6 3-1 14-29-3-5-8-4-2-3 2-3zm-237 3q19-4 25 6h-17l-8-6zm41 0l6 1-13 5v-1l7-5zm-111 1q-1 11 6 15l-6 3 6 12q-9 8-6 29l2 1-2 10 6 2 1 23 5-3v3 21l-5-3-3 6-6-23-9 8-18 7-1 33 3 4 6-5q6 5 3 19l6 9-5 6 5 8h-23v-1l4-8-6-15h-17l-15 6-3-8 4 2h2v-12l-5 3-1-6 6-8 1 5 4-3 5-8 7-4 5-9 6 5 2-5q-7-5-6-18l30-48-3-6h-3l10-24h8l-6-12 6-11zm289 8l5 14h-1q-7-4-4-14zm70 2l7 10v3l-6-2-3-9 2-2zm-296 2l1 1 1 3-2 1-2-2 2-3zm160 1l5 12-3-2-2-10zm59 1v8l-4 1h-3l3-6 4-3zm-53 29l5 12-3-2-2-10zm-217 1l1 2-4 1 3-3zm7 23l-6 7 2 3-3-2 7-8zm-1 15v2h-1l1-2zm350 13l4 2v5l-4-1-2 1 2-7zm-422 8v5l-5 7h-2l7-12zm420 5v6l-5 8-1-3 6-11zm-354 14v12l-3-3-8-2 1-2 10-5zm373 8l4 1h1l-3 6-3-1 1-6zm-25 9l1 4 2 1-3 2v-2l-5 10-1-4 6-11zm40 4l2 2-1 7v-1-2l-4 3-1-2 4-7zm-22 15v3 9l-6-3 6-9zm-312 3l1 1h-1v-1zm360 0l1 1-1 5 3 1-2 3 2 2-8 3-1-9 4-5 2-1zm-344 6l17 1-8 9 5 8h-17v-1l5-13-2-4zm24 0l35 1q-9 4-9 17h-24q2-15-2-18zm284 3v3l-6 12h-6l12-15zm42 8v3 4h-6l4-6 2-1z" fill="#45548a" stroke="#45548a" class="B"/><path d="M415 66l5 3-9 21-3-6 7-18zm-163 3v3h-4v-1l4-2zm-6 4l1 2 4-2-1 2-3 5-1-2-3 1 1-2 2-4zm-6 9l1 1v1l1 1-2 1v-2l-5 10-1-4-5 1v-1l2-4 9-4zm93 2l3 2-3 4 1 1-9 7-1-2h-4l10-8 3-4zm172 5l4 1h1l2 6q-3 5-6-1l-1-6zm-232 7l3 3-26 57-4-2 27-58zm244 9l5 4 2 5-2 1v6l-4-2-3-12 2-2zm6 20l3 3 4 10 7 6-3 1-12-9 1-11zm-231 49l4 1-5 11h-5l6-12zm187 10l1 1 1 1 1 1-1 3-1-3-3 5-3 1-4-1 9-5-3-1 3-2zm56 1l4 1h1v7l-4-1-2 1 1-8zm-163 7l5 1-10 5 3 1-3 1-1-2h-5l11-6zm19 0l6 1-2 3-14 2v-1l10-5zm-82 6l11 6h-1l-10-6zm20 0l12 6h-5l-7-6zm205 4v3l-5 9-1-3 6-9zm-179 13l3 3 2 8h-1l-4-9-1 4-3-4 4-2zm78 26l5 13h-1l-4-13zm-220 17l3 3v10l-4-1-2 1 3-13zm210 0l4 1-1 4 1 1-7-2 3-4zm84 24l3 1-3 5-3-3 3-3zm12 6l3 3v3h-6l3-6zm-63 20l1 10 2 1 3 13-8-8-2 1-2-6 6-11zm55 1l10 3h1v7l-4-1-2 1-5-10zm-295 8v2h-1l1-2zm168 0l1 1h-1v-1zm-152 1l2 7-1-1-4 3-1-2 4-7zm278 15l1 2-4 1 3-3zm-48 7v13h-1l-2-5-3-1 2-5 4-2zm-246 7v3l-2 4-3-5 5-2zm237 2l9 9 2 8 4 4v3l-7-1-4 3-1 9-12-1 1-7 3 2 4-6 2-1 2-5-3-5-9-2 9-10zm-267 3l1 2 6-1v3l-1-2-3 6-9-2 3-4 3-2zm30 12l1 2 2 1-2 4-1-4-5 7-1-1 6-9zm49 8l3 1-11 5 2-3 6-3zm204 7l5 13-2-1v-3l-6-3 2-1 1-5zm-91 2l-5 6 8 8 3-2-2 3-10-8 6-7zm-132 1v2l-3 6h-8l11-8zm-49 6l1 1 1 1 3 1-10 5v-1l1-2 5-2-4-1 3-2zm151 8l1 12 10 6 1 5-2 1-8-6h-3l-2-5 2-1-2-6-3-1 2-3 4-2zm133 1l5 3v2l-5 2v-7zm-172 6l7 5 5 6-2 1-4-7-3 1 3 5-3 1 2 5 7 2-3 1v3l-6-3-6-15 3-5zm160 2l5 3h2l2 1-8 4-1-8zm-130 9l4 1-1 4v2l-6-2 3-5zm-67 1l4 3 1 2-6 3-1-6 2-2zm238 2v4l-5 10-1-11h2l4-3zm-161 1l5 9-3 4-5 1 2-3-1-8 2-3zm-24 6l5 5-7 4-1-1 3-8zm39 3l3 11h-3l-4-8 4-3zm146 0v9l-5 3-1-1 6-11zm-210 5l3 1-4 9-6 2 1-2v-4h-3l3-5 1 4 3-4 2-1zm6 0l6 4 1 1 1 1-2 1v2l-2-3h1l-5-3v-3zm-29 2l5 10 1-2 3 2-4 1v2l-5-13zm107 4l6 2 6 9-14 1 2-3v-9zm99 6l-2 3 2 3-3-2 3-4zm-164 6l7 6h-4l-3-6zm168 15l4 3-4 1 5 3 1 2 9 2 2 7-11 7-7 20v43l-2 4-7-5-9 7v2l-23-9h-14l1-10-14-14-4 7 7 17h-7l-5-3-4-8-12-6-4-11-13-2-4-3-1-2q18 1 26-7l5 4 2 2 15-2v-2l-11-5 2-3 7-6q22 5 29-5v-2l24-10 1-2 15-7-1-3 2-4zm3 15l-14 8-1 2 9 7 8-15-2-2zm-36 12l-4 6h6v-5l-2-1zm-1 7l-2 2 1 2h2l1-2-2-2zm-18 11l-3 4 4 2 2-3-3-3zm-49 6l-2 5 6 1v-5l-4-1zm11 0l-1 4 6 2v-4l-5-2zm74 0l-3 4 4 2 2-3-3-3zm-36 13l-3 10 3 1 3-5-2-5-1-1zm42 11l-3 4 4 2 2-3-3-3zm-192-72l3 3v3l-6-2 3-4zm220 0l3 2 2 3 1-3 1 4h-2l-6-3 1-3zm-306 5l6 2-1 5-8-5 3-2zm365 4l4 15 2-1v19h-3q-13-4-9-24l3-5-2-1 5-3zm-279 3l3 1v5l-4 2-1 3-1-8 3-3zm0 12l3 1-5 8-1-3h-2l2-4 3-2zm42 12l3 1v5l-6-2 3-4zm-43 6l2 2 2 5-5 10-1-15 2-2zm59 0l3 2 2 4h-3l-2-6zm246 0l4 4 5 8 2 1-3 11-3-6-5 3v-21zm-234 6l5 1-1 5-5-1 1-5zm-40 12l8 4 1 3-9 22-18 13-3-6 6-10 3-2-3 4 1 2 17-13v-11l-6 2v-1l3-7zm274 9l5 9h-2l-3-9zm-325 11v5l-11 21-1-3 12-23zm6 5v6l-5 10-1-5 6-11zm198 18l1 5h5l3-5 7 7 2 5-6 8 11 6-5 7 5 6-5 6q10 6 6 27l12 24-6 9 6 8h-23q0-12-8-16l-11-2 4-12 12 5 2-11-8-11-2 1-2 10-6-2 4-16 7-3 1-9-12-20v-19l6-8zm3 6l-3 3 2 19h2l2-19-3-3zm-213-1l3 1-9 8 2-7 4-2zm-14 18l2 1-5 16-1-10 4-7zm-6 18l2 1-3 4-2 1-1-2 4-4zm426 6l2 2v13l-6-3 4-12zm-357 36l5 3v3l-6-3 1-3zm354 5l4 1h1l1 6 2 1-3 17h-6v-12h-3l4-13z" fill="#1f244c" stroke="#1f244c" class="B"/><path d="M244 78l2 1-3 5h-3l4-6zm263 6l3 3-1 3-5-1 3-5zm5 13l7 6 2 5h-1l-5-2-3-9zm-290 7l1 4 2 1-3 6-4-1-2 1 6-11zm88 4l2 1-3 5h-2l3-6zm213 6l2 1 15 30-1-1-11-7-3-11-3-1 1-11zm-226 6l3 1-2 5-4-2 3-4zm-86 11l4 1h1l-2 6-4-2 1-5zm324 18l4 1h1l-2 6-4-2 1-5zm-328 1l3 3-2 3-4-2 3-4zm328 29l4 1h1l-1 6-5-1 1-6zm-249 7l4 1-2 4 1 1-7-2 4-4zm183 5l1 1h-1v-1zm-238 1l3 3v3h-6l3-6zm18 0l9 3-2 3-10-2 3-4zm149 0l4 3v6l-11-3 5-3 2-3zm137 5l4 1h1l-5 14-1-2h-3l4-13zm-203 1l26 1-16 5-10-6zm28 10v13h-1l-2-5-3-1 3-5 3-2zm42 0v23l-5 6-1-21 6-8zm-131 1l3 3 2 15h-1q-7-6-4-18zm178 2l1 6-1-1h-9l9-5zm-2 11l3 2-1 4-4 2-1-5 3-3zm-240 6l3 3v4l-4-1-2 1 3-7zm318 6l3 3v4l-4-1-2 1 3-7zm-92 2l6 8 4 2-5 1v4l-5-10h-3l2-1 1-4zm-228 3l4 1h1l-2 6-4-2 1-5zm228 8l4 8-6 3 1-2 1-9zm-43 11l6 2-1 4h-6l1-4v-2zm123 0l3 3-2 3-4-2 3-4zm-301 12l4 2v5l-4-1-2 1 2-7zm8 24l2 4-4 3v1l-4-2 6-6zm287 6l3 1 2 5 2-1 2-4 2-1-2 3 1 4-1 4 1 1-13-9 3-3zm-290 10l5 8v2l-5 12v-3l4-9-1-1-3 2-1-2-2-6 2-1 1-2zm-3 13l-3 4-1-2 4-2zm18 1l1 1-4 9-10 8-2 5-1-4 12-17 4-2zm278 10l1 2 1 1-6 5-1-1 5-7zm-282 3v17h-2l-5-6h1l6-11zm-24 1l1 14 3 2h-14v-1l4-2 6-13zm6 1l-4 5-1-1 5-4zm76 21l2 7-1-1-5 1 4-7zm-66 6l2 1-2 5h-4l4-6zm99 18l8 7 3 8-1-1-5-2-6 4 18 12-5 4-2-8q-18-2-23-15l3-2 14 5 1-3-5-9zm-136 6l4 1-1 4 1 1-7-2 3-4zm105 1v8l-5 3-1-2 6-9zm239 0l1 8-22 21-2-6h2l4-1 13-20 4-2zm-278 5l3 3-2 3-4-2 3-4zm86 6l12 6h-5l-7-6zm-80 6l8 11-4 1-2-6h-2l-2-4 2-2zm58 0l7 6h-2l-6-3 1-3zm24 11l5 3-1 4-5-1 1-6zm150 1l-1 2 1 4 5-1v2l-5 10-1-5-6-3-1-2 2-4 6-3zm-139 5v4l-7 13-6 2 1-2v-4h-8l2-5-3-1-3 6v2l1 4-1 2-1-3-5-2v-3h-4l16-9-1-3 7 4 2 2 10-7zm-75 1l3 3v7l-2-4-4-2 3-4zm202 0l1 1-7 9-1-6 7-4zm-171 6l2 2 2 2 3 2-2 1 3 5h-16v-1l4-2 4-9zm159 0l4 1-5 3v14l-16 6-2-8h2l4 1 1-5 5-1v-5h-4l11-6zm47 4v10l-2-2-4-2 2-4 4-2zm-150 2l24 2q2 8-3 10h-17l2-5-6-4v-3zm120 0l5 1-11 8 8 9-2 1v1l-6-4-1-4h-5l1-7 4 1 3-4 4-2zm-203 1l5 8 3 3-3 1v1q-8-2-5-13zm162 5l-1 2-1 16-5-1-3-10 3-1 1-3 6-3zm24 7l2 4h1l2-4v8q-3 6-6 1l1-9zm-37 5v7l-1-1-5 2 2 4 4 4v3l-4-1-2 1-1-7-4-1 5-8 6-3zm189 6l3 3-2 3-4-2 3-4zm24 0l5 1-2 7-4-1-2-4 3-3zm-407 6q18-3 26 4v4l-5-2-2 4-16 2-7-3 4-9zm55 0l11 6 8 9 18 3 29 12h10l9 6h31l13-6-5 6-3 2 2 2 9 5v1l-15 2-3-4-5-2q-10 9-30 8l2 4q16-3 22 4l6 11 11 7 5 7 33 1 23 10q2 12-5 16l-2-14-15-6h-64l-4-3v-15l-14-18h-5l1-5-2-1 1-2-1-3-2 1-1 3 1 1-2 1 1 5h-1q-8-8-24-6l-1-4-16-10 5-6-11-4-1 6-10-6-8 19 6 11h-8v-1l2-5-3-6-2 1-1-9 6-9-3-1-3 2v-1l4-7h2v-6l-5 2-1-9 3 1h3l-1-6zm38 24l-1 3-4 3-2 5 5 1 1-2 6-4v-3l-5-3zm2 12l-3 4 6 2v-5l-3-1zm16 6l2 6h3l-2-4-3-2zm260-36l3 3v3l-6-2 3-4zm-26 4l20 15 7 10 7 5 1 3-15 29-3 1v4l-6-13 6-4 3 6 3-11-4-2-5-10-2-1-1 5-6-8-1-21-5 2v25l-3 3-3 2 1 4-1-1-10-6-2-12 9 7h3q-5-22 4-30h2l1-2zm-367 1v5l-4 2-2-4 6-3zm349 0l2 2-3 6-4-1-3 4-2 1-3-7 13-5zm-90 1l1 1-11 5v-1l10-5zm21 0l2 2-8 15-9-7 1-2 14-8zm48 6l2 1v17l-4-1-2-13 4-4zm-93 5l-2 5-15 2v-1l17-6zm8 8l2 2-1 2h-2l-1-2 2-2zm188 5l11 6 2 4 2 8h-1l-10-6-4-12zm22 0l3 3v3l-6-2 3-4zm-28 1l1 1-1 2-4 2-1-2 5-3zm-359 1v5l-5 7-1-1 6-11zm40 16q10-2 13 4l1 9q-9 7-6 26l-18 12 5 11-4 8-4 2h-3v-24h-2l19-15 7-21-3-5-6-1-3 2 4-8zm-34 7v6l-6 11 4 2 2 5q-6 18-21 29l-9 18v7l6 12-2 4-6-5-7 11-8 5-4 7-2 1-1-12h2l4-1v-5l-5 1v-1l5-10 4-3 2-4 1 4 5-16-2-1 3-8 5 2 9-11 9-18v-13l12-17zm-44 83l-4 4 1 2 2-1 3-4-2-1zm197-83l1 1 2 5-3 5-3-1 3-10zm-84 12l2 2-1 2-3-1 2-3zm-45 3v2l-5 8h-2l7-10zm61 2l5 1-2 4-4-2 1-3zm104 31l3 3-2 19h-2l-2-19 3-3zm58 7l5 12-4-3-1-9zm-238 11l1 1 2 17 4 5 3-6 5 4-3 8-8 3 1 1 10 6 6 22 7 8 31 2 12-5 16 9-6 14-91-1-4-8 5-6-6-8q3-14-3-19l-6 5-3-4v-31l4-5q16-1 23-12zm16 59l-1 3 6 3v-3l-5-3zm156-56l11 20v7l-3 4-4 1-1-2 2-11q-8-6-5-19zm199 2l4 2v17l-2-1-4 12 6 4-4 3-2 10 5 1 8-9 4-2 1 11-5 10-4 2-2 5-1-11-6 1-4-1-2 11 5 1h1l-3 6-3 1v9l-8-16h-4l12-23 1 2 5-8-2-1-3 5-1-19q8-7 8-22zm20 6l2 1-1 23-5-1q-3-16 4-23zm-147 14l5 12-4-3-1-9zm-64 17l7 7 2 11-2 4-12-5-4 12q12-1 16 8l2 10h-53l-1-6 10-12 26-7 1-13 5 2 3-11zm-245 11l2 1v11l-6-3 4-9zm468 0l1 1-10 21-10 8-3 6h-6l3-17 3 3 2 2 8-6 8-16 4-2zm27 13l5 3v2h-6l1-5zm-327 5l8 4v14l-13-1-4-8 9-9zm246 6l2 1v11h-6q-2-10 4-12zm80 0l3 1 3 6-1-1-3 2-2 4h-6l2-10 4-2z" fill="#313a72" stroke="#313a72" class="B"/><path d="M403 96l5 3v3l-6 1v1l-8-2 9-6zm-61 16v5l-7 4-1-1 7-5 1-3zm-30 40l1 3-6 9-1-1 6-11zm149 13l1 14h-1l-2-5-3-1 2-5 2-1 1-2zm-57 21l28 1 2 3 3 2h-5l-10-5-8 5-10-6zm-41 6l8 1-15 5v-1l7-5zm118 7l5 11-4 2-1 3v-16zm-18 6q7 7 5 24l-5 8 3 8-3 6v-46zm-12 9l4 2h1l-1 6-3-1-1-7zm-48 13q13-3 17 5l2 2 9 6h-5q-8-9-27-6l4-7zm-127 5v3l-5 10-1-5 6-8zm43 2l5 3-1 3 1 1-6-4 1-3zm161 7v9l-5 3-1-1 6-11zm-156 9l1 1-4 7h-5l3-1 5-7zm142 2l1 3-4 5-1-4 4-4zm-103 18l3 7-3 5h-5l2-5-3-1 6-6zm-98 8l5 12-3-2-2-10zm91 28l6 1-4 5-4-1 2-5zm7 18l6 1-3 2v-2l-3 5h-6l3-5 3-1zm88 0h2l9 9-2 9-4 2 2 4 2 2 2 7-8-8-10 9 2 2 9 4 1 3-3 5-3 2-2 4-4-2-1-3 6-1-6-12h-11l7-18q12 1 15-7l1-4-3-2-1-5zm-25 30v3l-14 15q-20-2-27 10l-1 5 3 3-3 1-2 4-9-7 5-9-11-1 23-12h19l17-12zm10 24l2 1-7 9-13 8h-7l-1-4 26-14zm-69 18l5 4-3 2-2-6zm27 0l2 1-2 5-4-2 4-4zm73 34l1 1 1 20-2 1-1 3h-2l-1-4-1 4-3-4 3-1 2-16 3-1-3-1 3-2zm19 6v3l-6 9 6 5-2 3-10-8 6-7 5-2 1-3zm-36 2l1 1-1 4v2 4l-5-8 5-3zm-49 12l8 1-1 5-6-2v-3l-1-1zm44 11l4 1h1l-1 12-5-1 1-12zm-23 1l4 2v7l-6-4 2-5zm67 0l4 1-1 4v2 2l-5-2 4-1-5-3 3-3zm-67 12l4 2-2 10q-6-2-4-10l2-2z" fill="#3b2845" stroke="#3b2845" class="B"/><path d="M361 102l2 1-9 6-4-1 11-6zm21 0l11 1-4 5-5-1-2-5zm21 12l11 6 1-2 7 8-2 1 2 5h4l1-2 17 20-12 2-11 25-8 3 1-2-1-10-8 6q-14-14-9-46l4-3 3-11zm-16 30l3 3-2 9-4-2 3-10zm-69 2v5l-9 16-4 1 5-6 8-16zm72 34l4 1-14 5v-1l10-5zm-36 12l4 1-11 5 3-4 4-2zm141 24l3 3-1 3-4 3-1-6 3-3zm-151 1l4 2h1l5 14h-1l-7-11-3 5-1-2-5 8-1-5 8-11zm150 11l4 2q2 8-3 10h-3l2-12zm-139 7l11 29-14 6v1l-8 5h-3l3-7 16-8-5-26zm-71 5l22 9 1 3 11-6v3l-18 13 2 2q16 3 20-6l8-16 1 4-6 15-41 23-2 5 6 12-3 4-5 1-3-5-1 3-2-3 2-1q4-14-3-17l21-10-1-9-5-2q2-15-6-20l2-2zm200 0l2 1-5 8-1-2 4-7zm5 6l3 1-3 5h-3l3-6zm-93 18h25l5 4v2l-6 1-6 24q7 4 6 18l-3 5h-15q8-7 6-22-17-4-24-16l6-13 6-3zm0 12l-4 2-1 2 5 2 11-2v-1l-11-3zm-66-2l1 8h-3l-3-3 5-5zm14 8l4 4 2 2q14-2 16 9l-2 3 1 1-4 2-2-9-16-5-1-3 2-4zm42 12l4 1-2 5h-4l2-6zm-13 6l5 1-1 5-5-1 1-5zm-36 18l1 1-7 5v1l-5-1 11-6zm17 0l6 2-1 4h-6l1-4v-2zm-23 9l4 3 3 4 29 2q7 8 23 8l-1 14-13 8 1 1q-10 9-32 5l-3-5q25 2 35-10l1-3-5-9-6-3h-37l-18 7 8 9 3 2h-4l-15-11 2-1-6-11 30-1 1-9zm-37 123l2 1-2 6 9 11h3l1-14 17 8 43 1-1 4 25 1 9-6 2 3 2 27 4-1 2-3 16-3v-26l3-3 3 3 2 21 4-1q-3-13 3-17l3 3 2 15 4-1q-2-12 4-17l2 1 2 11 15-10 5 8-1 2 1 1-58 23h-65l-14-6 1-5-5-1-1 5 1 1-24-9-25-18 2-13 4-2zm26 24l-2 2 9 10h3l-3-6-7-6zm36 0l-2 17 5 1 1-16-4-2zm36 6l-2 5 5 1 1-4-4-2zm19-30l9 3-2 3-10-2 3-4z" fill="#d4a7b2" stroke="#d4a7b2" class="B"/><path d="M364 102q16-4 20 4l2 2 4-1 4-5 10 6-2 1 6 8-3-3-3 1-3 11-2 1-9-12-7 5q-7-10-27-6l2-5v-2l8-5zm-28 134v5l-5 10-1-4 6-11zm19 5q7 5 5 20l-3-3h-3l1-17zm-25 12v12l-5 8q-8 6-25 3l-6 4q-2 10 4 14l2 2 4 10 2 2 1 10q5-8 21-6v1l-16 8 2 3 16 1v11l-30 1 6 11h-2l-16-15-12-31h1l3 4 7-3 1-3-6-12 8-10 37-19 3-6zm5 17l7 4 1 2-1-1-6-2v-2l-1-1zm61 6l11 3v1l-11 2-5-2 1-2 4-2zm-125 6l5 4v14h-3l-2-18zm58 0l14 1-1 3 2 2q-13 2-15-6zm31 15v6l-7 3 3-4 3-1-2-1 3-3zm-30 45l12 3-11 7-1 3 4 4 13 7-5 1 2 5h-7l-9-5 2-1-3-5-2-1-1 2-4-1 3-1-11-9 1-3 17-6z" fill="#e1bca4" stroke="#e1bca4" class="B"/><path d="M349 108l3 1-9 7-1-4 7-4zm102 46l9 13-4 3 2 4 2 2 3 16-1 3q-7-7-24-3l-6-3-1-3 5-12 14-1-6-16 6-1 1-2zm39 20l8 3-12 22 7 11 3-1 8-22v12l-6 18-4-1-13 28-1-4 6-11-4-2-2-5h2 4v-6l-5 1-1-1 4-6h2q-7-5-6-18l6-11 1 5 4-3 1-5-2-4zm-93 6l10 6h-20v-1l10-5zm-36 12l1 1-11 5v-1l10-5zm-22 18l9 3v5h-3v-2l-8 2-1-5 3-3zm112 7l3 5 2-1 2 7 4-1v14l-1-1-5 1 1 5 5-1v22l-3-3-13 6-2-12-6 4 4-5q10-8 8-28v-2l-1-4 2-6zm-174 6l5 12-11 23 5 2-1 4h-7l9-41zm123 11q18-3 25 6l-5 1v2q-3-5-12-3l-11 6-1-8 4-4zm-87 1l3 5 8-1-1 2-4 9-6 5 5-6v-3h-7l2-11zm48 7l6 12-1 2-5-14zm54 4l5 2-2 4-4-2 1-4zm77 3l1 2-7 4 6-6zm-12 1l1 8h-4l-3-4 6-4zm-162 8l2 1-12 5v-1l10-5zm-40 6q13-3 16 3l-2 3-16-1 2-5zm77 6l7 1-9 17-5-2 1-13 6-3zm9 0l7 6 2-6 5 3-1 7-13 2v-1l2-7-2-4zm98 1v6l-5 10-1-5 6-11zm-191 25l5 14h-1l-4-14zm125 4l6 3v5l-1-2h-16l11-6zm60 1v6q-7 4-6 18l4 5 1 1-6 9-11 3v7l-1-2-22 21 11-12v-3l-17 12h-19l-28 12v-1l18-10v-2l10-5 17-2 41-41 8-16zm-56 10l1 2-11 8-8 15q-5-8-19-6l3-5 1 2 11-3-3-5 3-1 1-3 6 3 15-7zm-81 7l-1 2 1 4h-4l-2-3 6-3zm22 12l7 2-1 4-5-2-1-4zm95 23l-4 5 1 2 11 2 5 10h-17l-35 18h-9l-4-6 4-5 26-9 1 2 21-19zm-101 19l12 6h-5l-7-6zm117 66l4 1-1 5-5-1 2-5zm-169 6l16 1-13 5-3-6zm157 0l4 3 1 9h-2l-4 1-1-11 2-2zm-20 6q10-2 12 4v3l-4-1-3 1-8 5-2 5 1 1-2 1 1 5 5-1v8l-1-1-5 2-1 2-5 2-6-3 4-9 2-1-1-5-3-1-2-12 3 1 4-1 10 1 1-4v-2zm36 0l4 2 2 7-3-3-3 1-2 5-2 1-1 3-1-10h-2l8-6zm14 0l4 2 2 4-10 6 2-3 2-9zm-37 11l4 1h1l-1 6-5-1 1-6zm-150 1l7 6-7 1v-7zm192 0l3 2 2 3 1-3 1 4h-4l-3-6zm19 0l4 3-2 3-4-1 2-5zm-36 6l4 1-3 5-3-4 2-2zm-13 5l4 1h1l-2 6-4-2 1-5z" fill="#66405d" stroke="#66405d" class="B"/><path d="M355 108l1 1-2 5q20-4 28 6l6-5 8 9q-5 33 8 50l8-6 2 9-3 3h-21l-24 12h-12q-4 8-17 6l-11-5 10-1 2-4 17-2 4-3 1-3-8-11-7 5-12-11q-12 5-9 23l-9-5q-6 8-22 5l-1-2 12-16 7-3 7-14 3-1 8-3 1-8-2-1 3-15 24-15zm-10 25l-8 9 3 1 7-8-2-2zm41 11l-2 11 5 1 1-10-4-2zm17-36l11 10v2l-12-9 1-3zm18 18l5 4v2l-6-2 1-4zm-75 96l2 3-4-1 2-2zm-4 4l-1 4-4 9-1-5 6-8zm7 0l5 8 1 24 4 3v1l-17 9v2l-7-3-10 8-1-2-6 2v4l-23 1-1-3q7-8 25-4l8-5q5-6 3-19l6-11q-4 16 4 22l3 1 4-3 2-35zm-54 61l3 3 2 5-1-1-3-1-1-6zm45 1l20 9-2 3 1 1-7 5 2-3v-3q-6 8-19 7l-2-1 7-7 2-7-2-4zm-39 11l5 4 2 3 16 1-2 5-15 6-2-12-3-1-1-6zm39 19l4 1-12 5v-1l8-5zm11 0l3 3-2 3-4-2 3-4zm-10 24h26l9 8 2 5-3 4q-8 9-27 7l-17-9-1-3 4-5 8-4-1-3zm10 7l-14 5-1 5 12 1 5-9-2-2zm-26 11l4 4 1 2h-2l-3-6zm-30 96l3 2 2 6-4-3-1-5zm22 0l12 6h-5l-7-6zm35 0l11 1-4 5-5-1-2-5zm20 0l12 2-1 4h-12l1-4v-2zm18 2v2h-1l1-2zm-69 16l9 12h-2l-10-9 3-3zm34 5l4 1h1l-2 12-4-2 1-11zm-18 7l5 1-2 5-4-2 1-4z" fill="#e6d5c0" stroke="#e6d5c0" class="B"/><path d="M330 127v6l-5 7-1-2 6-11zm115 21l5 8q-13 0-18 9l1 3 4 3-7 15-10-6-11 6-11-5q18 2 25-6l11-25h10l1-2zm-124 44l14 6h-4l-10-6zm169 0l8 1q2 12-3 17h-3l-5-13 3-5zm-150 24l5 2-6 4-8 23-1-10 10-19zm143 0l3 1v5l-6-2 3-4zm15 5v8l-1-1-5 2 1 10 5-3-4 5-1 3-1-4-9 11-2 1-1-3 6-9-2-1 8-16 4-2 2-1zm-215 23l5 8 2 12h-13l-1-5 11-1-4-14zm22 2l12 1-10 5-2-6zm81 0l4 4 2 2 4-1 2-3 13-2 5 6 4 1-3 4-27 1-6-3 2-9zm-19 13l5 10 2 1-2 1v1l-1-3-7-4 2-1 1-5zm-7 5l2 1-9 6-1-1 8-6zm30 0l5 1-8 5-3 10q7 12 24 16 2 15-6 22h15l3-12q-7-5-6-18l7-18h5l-1-4-4-1 8-1 3 7-12 17v11l4 1 6-5 8 10-15 7-6 11-9 3 6 17-7 9-29 14v1l2-5 10-5-1-15q-16 2-22-5l17-2 4-5 13 6 1-3-6-9h-6l4-6 6-1 2-15-12-2-12 6v-1-5l-6 1v2l-8-3 2-3-7-9 22-11 5-11 4-2zm-4 30l-2 6h4l2-5-4-1zm-100-24l5 1-8 7-1-4 4-4zm-21 3l5 8 1-2 4 3-5 1v3l-5-13zm6 0l8 8h-1l-7-8zm12 46l5 13-3-2-2-11zm52 11l7 4 1 2h-1l-7-6zm15 42l15 1-5 3-1 2-5-1-1-3-3-2zm-62 82v10l-2-2-4-2 2-4 4-2z" fill="#b48192" stroke="#b48192" class="B"/><path d="M345 133l2 2-7 8-3-1 8-9zm-17 5l2 1-3 10-8 3-1-1 6-11 4-2zm5 25l13 11 6-5 8 12-3 4q-15-2-21 5v2l-47-1 3-5q17 3 24-5l8 5q-3-18 9-23zm13 60l2 3v33l-3 4-3 1-5-3-1-21 10-17zm-26 53l4 1 7 9 11 6-9 14 1 1-11 5 1-2v-4l-18-1-2-5-4-1-3-11-3-1 2-5h22l2-6zm34 24v3l-7 3 3-4 4-2zm-3 49l2 2-5 9-12-1 1-5 14-5zm-53 101l8 4v14l-6-3-3-9h-3l4-6zm25 6h28l3 4 1 2h-25l-7-6zm41 0l8 2-1 4h-12l5-6zm20 0l5 2v3l-5 1v-1-5zm-27 18l3 3-1 3-5-1 3-5z" fill="#efe1cf" stroke="#efe1cf" class="B"/><path d="M442 157l2 1 6 15-15 2 2-3-2-4h-3l6-9 4-2zm45 17l5 4-3 7-2 1-2-5 2-7zm10 0l7 3q2 14-5 20l-1-5h-8l8-15-1-3zm-77 6l9 6h-17l2-3 6-3zm-41 6l3 1-13 5v-1l10-5zm108 11v2h-1l1-2zm-28 7l3 3-1 21-5-1v-20l3-3zm-104 26l5 14h-1l-4-14zm-73 5q-2 15 5 23l-11 1-5-1 11-23zm216 3v2l-5 10-1-4h-3l3-5 1 4 5-7zm-90 2q10-2 12 4v3l-5-1-1 3q-3-5-12-3l-6 4-1 2-5-1-3-4 9-2h2l10-5zm49 0l5 2-1 4h-5l1-6zm29 9l1 3 1 1-7 4-1-3 6-5zm-119 5l6 8 16 3-5 3-6 12v-1l-2-9-3-2-1 5-1 3q-4-8-16-6l9-6 7 5v-1l-6-11 2-3zm-60 4l1 1-2 4 1 1-7-2 7-4zm135 0l2 1 2 11 13-6 3 7q-9 8-6 30l-8 16-41 41-15 2v-1l20-12 2-5-6-16 11-5 7-12 12-4-8-10-8 5-2-12 12-20-2-4 12-6zm-166 5v3l2 4 7 1-3 8-4 1-8-10-5 1v-1l3-6 8-1zm59 8l2 3 3 2-9 1-1-3 5-3zm13 3v10l-2-2h-5l1-4v-2l6-2zm7 8l16 1-17 5v-1l1-5zm35 18l5 1-15 5v-1l10-5zm-113 8l5 14h-1l-4-14zm125 0v5l-3 5h-5l7-5-1-3 2-2zm-71 4l3 1-13 5v-1l10-5zm35 6q10-2 12 4v2h-13l1-4v-2zm24 4l1 2 5 1 6 10-3 1-11-6-4 3 6-11zm-42 8h25l7 6h-32v-1-5zm88 18l1 1-18 21-4 2-1-2 22-22zm-57 17l-2 5-17 8v-1l2-3 16-7 1-2zm-41 7q12-2 16 4l1 2h-7l-10-6zm-38 72q14-1 18 9l2 3h-10q-4-8-17-6l-5 3-2 3-3 1-1-6 18-7zm101 7l5 17 2 2-1 4-3 2-1 3-2-17q-10 10-32 6l-3-3 3-3 21-1-1-4 12-6zm39 5l4 2v5l-4-1-2 1 2-7zm17 0l5 4 2 2 13-6q5 2 3 11h-1l-2-5-3 1v1q-10-1-11 6l-1-2-5 1-1-7h-2l3-6zm-24 11l4 1h1l-2 12-4-2 1-11zm-18 1l5 3-1 3h-5l1-6zm64 0l7 3-7 3-1-2 1-2v-2zm-86 12l3 3-2 3-4-2 3-4zm23 0l4 2 2 4-14 3-2 3-4-2 1-7 6 3 5-3 2-3z" fill="#a36085" stroke="#a36085" class="B"/><path opacity=".996" d="M485 175l1 5h-5l-1-2 5-3zm-43 47l2 1-1 22-8-5-2-7 5-9 4-2zm33 157l7 9 3 2-3 1-5-1-2-11zm54 8l4 3-4 1 7 5h-4l-5-5 2-4zm61 3l4 2-2 4-4-2 2-4zm-337 20l2 4 3 3-2 3-4-1 1-9zm17 1l1 2-4 1 3-3zm-8 9l2 1v7l12 17v8l-13-10-6-17 5-6zm394 24l4 2-1 4h-5l2-6zm34 0l4 1-12 5 2-3 6-3zm-409 22l1 20-15 30h-3l-1-6 1-5-3-1 13-7 2-23 5-8zm302 6l10 2h1v8l-18-5 1-3h5l1-2zm-37 2l4 1-9 7-1-4 6-4zm65 6l7 3-1 3-4 3-2-9zm10 12l3 2v7l-4 2-2-8 3-3zm9 0l11 6h-12l1-2v-4zm15 12l14 6-3 1-11-7zm-68 3l4 3 1 3-1 13-5 2v-1l1-20zm90 7l5 2 1-2 5 9-1-1-13-5 2-1 1-2zm-30 8l7 6h-7l-2-4h-2l4-2zm50 6l3 1v5l-6-2 3-4zm1 18l2 2q-2 11 4 15l8 4 1 4-3 1-4-2-17-11 5-1q-2-10 4-12zm-430 9v3l-5 10-1-4 6-9zm422 15l4 2-1 10-5-1 2-11zm-20 6l3 1-3 2 1 3 3 2 2 4-6 2-6 16v21l-5 8-1-23 6-11q-4-18 4-24l2-1zm49 7l5 15h-1l-4-15zm-36 6l2 5-2 1 5 3 1 2 5-3 2-3 4 2v6l-7-2-5 3-8 21-4-2q9-11 7-33zm24 1q7 6 5 22l-8 18-4-2 1-11 4 1 2-28zm-467 10l4 1 1 5 1 1-1 3-1-3-3 5h-3l2-12zm502 4v11l-3-3-3-1 3-5 3-2zm-17 3l5 12-6 11 12 3v13l-6-8-12-4q8-9 7-27zm-61 27v2l-5 10-1-4 6-8zm9 8l3 1-2 5-4-2 3-4zm64 7l5 15h-1l-4-15zm-106 17l-3 4 1 8h-5l-2-3 9-9zm-399 3v3l-5 10-1-4 6-9z" fill="#92c6d4" stroke="#92c6d4" class="B"/><path d="M480 178l1 2 1 1-6 4v-1l4-6zm-194 56l8 4v5l-10-3-2 1 4-7zm-70 124l1 2 1 1-7 9-2-2 1-2h-4l10-8zm-10 32l4 3 1 1 3 2h-14v-1l4-2 2-3zm328 6l5 3-6 7-5 3 3-6 3-7zm-279 6l3 3v5l-4-2-1 2-1-5 3-3zm250 5l7 2-4 5-4-2 1-5zm-235 5v9l-3 5-2 1v1l-2-8v-2l-1-3 8-3zm7 2l5 2-2 4-4-2 1-4zm201 12l2 6h-5l-1-2 4-4zm-337 24l10 1-1 4 1 1-13-2 3-4zm15 0l6 3-2 3h-5l1-4v-2zm27 6l4 1-1 4 1 1-7-2 3-4zm24 0l3 3-2 3 1 1-4 3-3 8-4-2v-2l-5-1 9-2 5-11zm429 0l5 1-11 8 1 3h-7v-1l-1-4 7-2 2-3 4-2zm-66 12l7 1-1 4 1 1h-18l11-6zm12 0l7 1-1 4 1 1-7-2v-4zm-365 4l16 14h-5l-10-7-1-7zm-46 2l7 2 2 3 1 1h-10l-3-3 3-3zm81 6l8 1q-4 7-18 5v-1l10-5zm-55 6l7 4 2 2 4-1v2l-2 3-11-10zm427 1l3 5 3 2-2 4 1 1-4 2-2-8 1-4v-2zm8 5l10 3 3 9-4-4-4-1 4-1-9-6zm-356 7v5l-5 10-1-4 6-11zm253 0l11 19-9-8-2-11zm54 18l4 11-4 1-6-1 5-3 1-8zm-18 5l5 4 1 2h-7v-1l1-5zm73 0h11l18 7-1 5h6v-4-2l6-1 1 8-1 10 5 1h2l2 1-3 11-10-2-31-27-2-5-3-2zm-8 4v3l-3 4q-14-2-18 7l-5 12h-5q3-18 17-24l2 2 2 2 10-6zm-47 7l3 3 3 6-1 3-5-12zm79 44l8 7 2 15h-1l-7-10 2-1-3-6h-3l2-5zm-23 17l3 3-2 3-4-2 3-4zm21 1v6l-5 10-1-5 6-11zm-21 11l3 3-2 3-4-2 3-4zm15 21v7l-5 7-1-5 6-9zm-306 9l1 1h-1v-1zm300 7l1 4-6 12-1-5 6-11zm-26 23l2 10-4 2-2-8 4-4z" fill="#92b2c4" stroke="#92b2c4" class="B"/><path d="M273 198l6 1-9 8 3-9zm114 0q11-2 15 4l-5 13-1-2-3 3h-25l-2-6 4-6 13 6 4-12zm-74 3l10 5-11 15v9l-7-8-11-1 15-17h3l1-3zm-39 9l14 2-1 4-10-2-2 1-1-5zm87 13l5 15h-1l-4-15zm108 142l2 2 3 16h-1q-7-6-4-18zm-3 13l2 2v4l-5-1 3-5zm10 12l14 6h-4l-10-6zm0 6l4 2-3 4h-3l2-6z" fill="#2a55a9" stroke="#2a55a9" class="B"/><path d="M471 198l3 3-2 3-4-2 3-4zm-240 6l3 3-2 3-4-2 3-4zm111 102l8 1q-4 7-18 5v-1l10-5zm20 6l15 6h-15l-2-4 2-2zm-23 12l7 2 2 3 2 1h-11l-3-3 3-3z" fill="#bd2f5a" stroke="#bd2f5a" class="B"/><g fill="#85a79c" stroke="#85a79c" class="B"><path d="M433 233v2h-1l1-2zm-129 2l2 1 1 10h-7l-6-3 1-5 3 2 6-5zm75 11l6 1-1 7-5-8zm-49 312h115l17 9v40q7 4 6 18l-6 11v22l-2 2q-16-2-21 6h-67l-12-6q-11 10-36 6l-10-7-2-6 7 5 19 2q8-9 28-6l11 6h51l28-13-1-5-11-2 6-14v-45l-12-15-4-2H323l-5 3v29l6 11 2 35q16 2 24-5 5 7 21 5l1-27 3-3q12-3 15 4 2 17-6 25l40 1 2 3-2 3-111 1-7-12v-43l6-12-5-9 23-15zm9 12h37l2 3-2 3-22 2v24q7 5 6 19-3 6-15 3-7-4-3-19l-6-11v-21l3-3z"/><path d="M393 570l3 3 3 8 9 5v42l-2 2-4-2v-35l-12-20 3-3zm30 6l15 4q4 16-3 20-12 3-15-2v-19l3-3zm-54 6l21 10v11l-11 3-10-6-3-15 3-3zm54 30q12-3 15 4v11l-15 3q-6-3-3-15l3-3z"/></g><path d="M294 269v4l-7 3 5-6 2-1zm-27 1l3 1 8 11h-2l-5-3-1 2-6-8 3-3zm99 30l6 4 1 2h-17v-1l10-5zm-30 6l5 1-15 5v-1l10-5zm10 12l3 1-1 4 1 1-13 2 1 4h-1l-6-3 2-3 14-6zm14 0l6 3-2 3h-5l1-4v-2z" fill="#e177a0" stroke="#e177a0" class="B"/><path d="M351 306l4 1-1 4 7 2-1 4 1 1h-20l1-4v-2l9-6zm17 6l10 4v2l-10-6zm-22 12l16 1-3 1-2 4-8-2-2 1-1-5z" fill="#862345" stroke="#862345" class="B"/><path d="M494 349l4 3 2 2 4-2v5l-9 3v-1l3-1-1-4-5-3 2-2zm-275 5l2 2-2 4h-3l3-6zm252 6l4 1-1 9-2-4-4-2 3-4zm-267 13l1 4-4 7 1 1-13 5v-1l7-5 2-4 4-3 2-4zm271 3l9 4 2 4-6 1v1l-5-10zm-222 2l1 1-8 11 4 2 2 5-1-1-4 1-17-1 14-6 3-9 6-3zm266 6l2 1-2 5h-3l3-6zm10 0l5 3 3 9-4-4-4-1 4-1-5-3 1-3zm-247 1v9l-5 2-1-3 6-8zm310 0l2 1v5l-4-1-2 1 2-5 2-1zm-414 5l3 1-1 4 1 1-7-2 4-4zm90 0l2 1-4 8-2 1 3 7 11-5-6 7-1 3q-5 5-10-3l-2-6h-2l2-7 9-6zm273 0l21 14 6 9 17 1 3 4 8 12 23 2 5-3 2-3 4 1 2 3 2 1 9-5 5 4-1 8-8-5-5 5q-16-2-22 6l-11-6h-13l-22-7-6-11q-14 1-19-6h-21l17-11 2-5v-2h1l1-6zm-36 10l5 5-2 3-4-2 1-6zm120 0l9 8h-7l-2-8zm-378 1l4 1 2 1-1 16v2l1 5h-4l-3-2 1-23zm360 1l8 7 2 4-8 1-2-12zm36 10l9 8h-6l-3-8zm-127 10v5l-5 8-1-2 6-11zm139 10l10 1-2 5h-12l4-6zm47 3l1 4 5 3q-3 5-15 2v-1l8-4-4-1 5-3zm-167 3l5 3-1 3-3-1-1-5zm141 0l8 4 1 2 4 1q-5 8-21 5v-1l4-2 4-9zm-411 4q13 7 15 25l-3 6-1-5-4-1-7-25zm-150 2q12-2 17 4l1 2 6 1-1 4 1 1-13-2-2-4-4 1-1 3-5 2v-1l-1-4 2-7zm539 0l1 1-1 5h5l1-4v-2l6 1-3 5 1 1-17 5 1-2 2-8 4-2zm-492 6l24 1-2 5-4 2 1 4h-5l-3-4h-2v-2h-10l1-4v-2zm466 1l2 2 1 3 4 1-7 5-3-5-1 2-5-2 5-1 2-4 2-1zm-430 5l7 1-4 11-9 2v8l-2-4-4-2 12-10v-6zm12 0h25l26 12 3 8h-1v-2l-30-12-8 4-16-4 1-4v-2zm387 0l9 1 1 6-1 4 1 1-7-3v-3l-4-1-1-3 2-2zm-446 6l5 1q8 6 6 23h-2l-9-24zm-18 6l11 1-1 3-16 2-1-2 7-4zm39 0l10 6-2 1v4l-3-5-8 1-1-1 4-6zm386 0l11 1q-6 7-21 5v-1l10-5zm-341 7l5 8 5 3h-10v-11zm324 1l-1 2v5l-13 3 3-4 11-6zm-355 3l1 2 22 17-5 1q3 16-3 23h-3q2-22-9-29l-15-4 2-3h4l-3-5 9-2zm415 0l4 4-3 1-1-5zm17 6l5 2-8 5q-6-3 1-6l2-1zm-39 1l1 1h-1v-1zm-461 1l2 1-2 4 1 1-15 5-1-2 15-9zm158 0v6l-3 5-15 8 1 4h-7l-6-3 2-7 4 2 1 2 21-13 2-4zm247 4l2 2 3 13-2-2-9 1-1-8 3 1h3l1-7zm-429 7l2 1-3 5h-2l3-6zm483 5l4 1h1v8l-1-3-5-2 1-4zm73 1l11 1-1 4v2 1l-4-1 3-1-9-6zm-545 6l3 3-6 15v13l6 9-5 6 4 6-5 2-9-5q-6-8-3-25l15-24zm159 1l1 5 3-1 2-4v11l-6 11q2 16-5 23l-4 2-9 18 2 1-2 12-2-1-4 6 2 1-5 11h-3v-6l-6 2 1 10 3-1 2-4v5l-12 29v28l-6 15h-6l6-17v-25q9-9 6-30l6-11v-19l18-29v-13l13-24 3-1 2-4zm432 8v20h-1l-5-11-5 2v-1l1-2 4-2 1 2 5-8zm-17 1l5 5-1 3-3 2-1 3v-13zm-150 2l3 2 2 5-3 5h-3l1-12zm21 0l8 4 2 2 22 1 6 16 1-3 1 4-3-1-20-9v-2q-14-2-17-12zm83 2l3 2 1 2 10 2q19 25 49 41v14l-8-9-4 12 10 2 2 7-3-3-3 1-4-1-5 6h-3l-1-4-4-1 2-1-8-15-4-1v-2l-8 4q2 21-7 32v31l-12 28v13h-72l6-17v-19l-18-21 10-15 20 12h7l16-8-7-15-10 5-5-3-4-8-9-4 5-6-11-15 4-5 7-3-12-14-10-5 6-3 17 12q17-2 25 6l4-3 1-2v-2q1-13 10-17 10 2 13-3l2-6 2-1zm-42 35l-2 3 3 1 1-2-2-2zm61 11l-4 6h3l3-5-2-1zm28 0l-2 11 5 1 1-10-4-2zm-42 24l-2 5 5 1 1-4-4-2zm0 12l-2 5 5 1 1-4-4-2zm-56 24l-2 1-4 5 2 5h2l7-8-5-3zm18 18l-2 1-4 5 2 11h2l8-10-1-3-5-4zm21 18l-9 11 11 1 1-10-3-2zm48-138l3 3v3h-6l3-6zm-558 7l2 2-1 2h-2l-1-2 2-2zm574 0l5 12-1-1h-5l1-11zm-556 5l3 3-2 3-4-2 3-4zm21 0l12 4-7 12-13 2-4-6 6-9 6-3zm541 15l8 9-8-3v-6zm-574 3l3 3-2 3-4-2 3-4zm207 6l2 1-2 5 6 1v69l2 2h-5l-3-2v-34l-6-11v-27l6-4zm65 0l15 1-2 15 12 5v49l-2 2-8-2-2-4h2l4-1-1-45-10-5-2-9-4 1-2-7zm312 0l2 2 5 14h-1l-6-16zm-323 6l6 3-2 3h-5l1-4v-2zm151 4l5 12h-1l-4-12zm-462 2l11 2-1 2-13 2-1-4 4-2zm41 0l12 9v34l-2 4-10-22v-13l-6-8 6-4zm249 0l5 1-2 19q10 9 6 32l-3 2-3-6h-2l2-12q-10-10-6-33l3-3zm82 4q7 4 5 18l-7 2 1-2 1-18zm-304 2l9 8q-3 16 4 22l2 2v29l6 8v33h-17l-7-12q7-5 6-18l-6-9 6-9-6-12q9-9 6-30l-6-9 3-3zm254 6l5 3 1 5-4 6-2-14zm-377 4v2l-5 8-1-1 6-9zm679 13l4 1h1l-1 12-5-1 1-12zm36 6l5 5 6 17-3-3-9-3 1-16zm-338 1l7 3q-4 19 7 25l3 2h-19q-6-3 0-5 6-7 3-22l-1-3zm48 0l7 3-5 11-2-14zm98 4l5 12h-1l-4-12zm185 3l3 11h-8l-1-2 6-9zm-370 17q13-2 18 6h-8l-10-6zm-233 1l1 1 2 23-2 4h-2l-2-23 3-5zm-72 11l6 6 2 4-13 8-4-6 9-12zm270 0l4 1-1 4 29 2q-7 7-23 5l-12-9 3-3zm124 0l13 1-25 11h-49l-11-5 61-1 11-6zm102 4l5 12h-1l-4-12zm216 13l11 2v17l-7-1q-7-6-4-18z" fill="#c5d7d7" stroke="#c5d7d7" class="B"/><path d="M511 348l15 6-20 2-1 3-1-7 7-4zm-306 6l4 2-2 4h-3l1-6zm378 10l10 4 1 7-3-3-9-2 1-6zm-381 2l2 2-1 2-3 1-1-1 3-4zm273 1l7 11h-4q-6-2-3-11zm-277 3l1 2 1 1-7 13-1-2 6-11-2-1 2-2zm295 6q4 10 21 8l2-1-3 7-9 1 3 5 13-6 2-5-5-1 5-3-1-2 7-1 2 4 3 2-5 1v5l-18 10v2l-24-9 1-3h5l1-14zm96 2l11 4v2h-12l1-6zm-416 4l1 1-2 7h-4l3-5v-2l2-1zm2 13l28 2-5 3-5 13-5 3-2 5 4 4 15 1 9-6 6 5 2-14 8-13 12-2-2 3q7 4 6 17h-4l-2 5 4 4 8 5v2l-6 1q-3 15 5 20l-3 1-8-4-6 4-1 2h-7l2-3-4-3h-33l-4 2-1-2h-2l1-4-4-1 5-1 5-9-2-2-9 5-6-3-8-15-4 3-5 6-16 3-5-6h-6q1-14 12-18l4 1-2 5h4l12-6v1l-4 2 1 1 12 2 11-8-5-3-1-3 1-5zm8 13l-8 10 1 2-2 1 2 4h2l2-4-2-1 8-9-3-3zm-33 12l-2 1-2 3h4l-1 2-5 1 2 4 10-7-3-3-2 1-1-2zm421-18l5 4v2l-6-3 1-3zm42 0l17 10v2l-11 2-2-2v-2l-4-10zm23 8l5 4-2 1 3 5-1-1-4-2-1-7zm-35 4l5 3 1-2 2 5h-3l-6-3 1-3zm23 6l5 1-9 5-2-2 6-4zm44 6l22 9-2 3-4-1-1-3-4-2-1 3-5-2 4-1-9-6zm-548 5l1 4-1 3 6 4-1 2-11 1v1l-12-2 4-6 8-3 1 3 3-1 2-6zm18 1l4 6 7 3-2 3h-9l-1-9 1-3zm403 0q18-3 22 9v1l-16 2-3-6-4-1 1-5zm154 7l1 1v1l-7 3 2-3 4-2zm-125 5l6 4v2l-12 3 1 1 3 2-4 1v2l-3-2-3 1v4h-6l14-16 4-2zm37 0l5 2v9l-5-11zm41 1v8q-3 6-14 3l2-3 10-4 2-4zm-137 3q6 3 5 14h-2q-7-3-3-14zm89 2l5 1-4 2 1 1 3 2-11 1v10l-3-5h-9q-4 7-16 6v-1l3-1v-2l-4-1 5-1 1-3 3 2q1-6 11-5l-2 3 2 2 15-11zm-476 6l2 2-1 2-4 2v-1l3-5zm4 0l42 1-2 3 16 8 2-3-1-3 9 1-8 10 3 2 3 7h-2l-4-2-1-6q-5-7-17-6l-2-4 2-1-9-1-3 2v-2l-6 1v1l-1-2-11 1-1 5-17 6-11-5q16 2 23-4l-1-7-3-2zm486 0l4 2 1 2 3 2h-11l1-2 2-4zm-75 7v2l-2 3 2 1-9 6-5 11-3 2v7l-6-4 7-17 16-11zm-437 5l2 1-7 15-7 4v-2l-5 3 1 1 2 1 2-1 1 2 3 2 1 2-5 8-6 1-18 35v7l5 9-10 5 1 1 10 6-2 8-10 3v3q-13 2-15-6l-21 31 4 4 3 1 8-5 6-12 1 1 2 17-3 4-8 5-4 8-3 1 3 5 3 1q2 15-5 21l-9 7-10-5-6 4q11 4 12 20H1l-1-71 6-1v-8l18-32 3-1 3 3 1 2q14 1 17-8l-6-10-10 6-2-3 6-3 3-6h3q12-11 16-30l7-3 9-25 16-19 6-4 6-3zm-56 78l-3 4 5 2 6-3-8-3zm-30 54l-4 10-3 2-3 6h4q9-3 8-17l-2-1zm8 24l-2 1-4 5 4 6 8-6v-2l-6-4zm-9 18l-3 4 4 2 2-3-3-3zm153-173l1 12-3-1-4-2 2-4 2-1 2-4zm-21 6l3 8-9 9q-15-2-20 6l-1-2 7-10q12 3 16-3l4-8zm69 9l1 2 1 1-5 11h-3q-1-11 6-14zm-110 14l8 1-1 3-5 2-1-1-1-5zm129 0l4 3-1 2-4-2 1-3zm284 6l9 3h1l5 8h-1l-17-8 3-3zm-294 2l1 1-11 13-28 20-1-2 3-5 13-11 4-12 4 1 3 5 12-10zm-5 22l2 1-3 4-2 1-1-2 4-4zm-97 1l1 4-9 7-1-5 5-1 4-5zm55 11l2 1-3 4-2-2 3-3zm27 0l5 4v15l-13 15-11 2-10-5-2 1v-2l-12 4 1 2 1 1-5 11-15-1 1-5 11-2-5-7 18-6 15-15 21-12zm370 0l7 4v2l-7-6zm9 6l4 1v2l-4-3zm6 1l4 3 1 2 7 1-2 4-10-4v-2-4zm-61 3q6 3 5 14h-2q-7-3-3-14zm-390 8l7 1-2 4 1 1-7-3 1-3zm77 6l5 4 1 3-7 9-14 7-3-5 14-16 4-2zm112 0l59 1q2 20 15 30v37l3 3 8 1 1-52-12-5q-3-12 4-15 32-6 41 13l3 6v41l-6 17 11 3v3q-20-2-29 7H321l-3-3 3-3 105-1-1-5q-20 3-26-6l-4-24-23 2-1 27q-7-8-24-5l-13 6-4-3v-69h-6l4-6zm10 6l-2 2v24q9 7 6 27l18 1 2 6 4-1v-24q-8-8-6-25 5-9 23-4l1-4-46-2zm84 6l-2 2 2 22 22-1-2-16q-4-10-20-7zm-54 6l-2 2 2 16 9 6 13-2 6-8-1-5-27-9zm54 30l-2 2 2 16 16-2q7-3 6-14l-22-2zM60 588l5 3-7 3-2-3 4-3zm63 0l3 6h-3l-3-3 3-3zm31 6l7 3-5 7q5 7 17 8v-2l1 1 1 1 5-2 1 2 11-3-5-6 5-3 3 6 13-11 1 3-11 12 6 3-3 5-8 4-9 31-24 25-4-1 1-14 5 3v-11l-2-1-4 3q2-11-3-15l-3-1 1-7 5 2v-5l-3-1-3 2v-31l4-7zm9 18l1 5 4 1v-2l-5-4zm-9 6l-3 4 5 2v-5l-2-1zm14 6l-4 2 1 4 7-2-1-3-3-1zm3 6l-3 6h3l3-5-3-1zm364-32q8 4 5 20h-2q-8-4-3-20zm-358 8l3 3-2-2-3 2 2-3zM75 643l1 4-4 3v-2h-2l5-5zm469 5l2 1v5l-5-2 3-4zm-486 6l2 4-2 3-9 5-1-2 6-4 5-2-1-4zm489 13l3 5 2 2-1 4-4 2v-13z" fill="#f1f3f0" stroke="#f1f3f0" class="B"/><path d="M203 355l1 1 1 4 1 1-2 4 5 2-2 5-6 1-3-1v-2l-5 2v-1l5-10-2-1 7-5zm-1 11l-3 4 1 1 3-1 1-2-2-2zm301-8l1 1-3 6-2 1-1-2 3-5 2-1zm-24 2l18 1-11 5-7-6zm2 12l11 4v14l-8-5 2-1-2-6-4-2 1-4zm-214 2l3 2 1 2-6 3-1-3h-4l7-4zm328 3l10 3 8 14 11 6 2 8 10 4v7l-3-4h-2l4-1-29-18-1 2 4 4q-4-9-8-2l-1 3 7 11-1 3q-6-13-27-9l-9-8 1-4 11 6 1-6h1v-2l11 2 4-3 1-5-2-4h2l-1-4-4-3zm-75 2l2 2-5 3v1l-1-3 4-3zm67 0l1 3-3 2-2-3 3 2 1-2v-2zm-334 14l4 3-4 1 5 3v2h-6l-1-7 2-2zm-10 3l-2 3 2 3-3-2 3-4zm-95 6l4 1-9 5 5-6zm26 0l6 4-13 8 1-2v-4h-5l11-6zm9 6l3 3-8 9-3-1h2l8-7-1-3-7 6 6-7zm-26 2v2h-1l1-2zm87 4l3 13-2-2-4-2-1-3 4-6zm282 0q17-2 24 6l4 4 2 1 5-3 1 1-3 7 17 2 11 6h10l8 6-2 1 6 5q-13-2-17 6h-19l-7-4 10-2-1-4-5-2-16 14-2 4h6l1-5 2 4 3-2 2 4 3 2v1l-12 2 1-2-1-3-26 12 3-4 7-3-3-6 14-9v-3h-12l-1-12-4-2 2-3 3 3 2 2 4 3 1 3 16-2-6-8-13-2-22-12 4-6zm18 48l-3 4 1 1 3-1 1-3-2-1zm43-48h11q2 8 15 6l12-6 4 3v1l-11 6 1 2-15 6-13-6-4-12zm-456 4l1 1-2 7-4-2 3-5 2-1zm506 2l10 6h-10v-6zm7 0l15 6-5 1v2l-5-2-2-5-3-2zm-492 1l4 3-10 7-2-4 5-1 3-5zm509 5l3 2 2 3 12 5 1 2-5 1-2 8-7 3 1-2v-4h-3l3-5 1 2 4-6-11-6 1-3zm-408 1l5 7 1 1 11 23-10-9-10-16 2-1 1-5zm-138 5l4 1-12 5 2-3 6-3zm15 0l7 1-4 2 1 1 3 2-2 1 1 3-1 2h-10l1-2-5-3 6-2 3-5zm390 0l2 1v39l2 2-2 1-5 14q4-22-7-29l4 2h2l-6-19 3 1h3l4-12zm105 6l2 1-3 11 5 1-5 2v3l-4-1-2-11h-4l11-6zm14 1l3 3 3 8h-11v-1l2-6-2 1-4-2 3 1 6-4zm-537 3l1 2 4 1-9 4-1-2 5-5zm62 2q16-3 22 4l-12 2-10-6zm-43 6l5 4 1 2-5 2-1 3-1-5h-4l4-2 1-4zm119 0l9 5-15 1v-1l2-3 4-2zm-12 2v2l-3 2 3-4zm337 0v2h-1l1-2zm45 4l2 1-2 5h-4l4-6zm-440 1l-1 2v1l-1-1 2-2zm-31 5l10 1 1 2-3-1-9 4v-1l1-5zm443 0l10 2 2 5-1-1h-20l9-6zm-416 1l3 5 1 1-1 3-1-3-3 5-2 1-1-9 4-3zm-61 5l17 7v3l11 2 14-6 1 2-4 2-3 7-15 2v1l-18-2 6-9-9-8-3 2 3-3zm-15 4v3l-5 8-1-3h-2l8-8zm121 1l3 3 2 8-5 7v-18zm-60 5l9 12v1l-7-5-12 11-8-4q14 0 17-10l-1-3 2-2zm501 2l12 6h-4l-8-6zm-556 3v3 11l-3 2 1-4-1-3h-3l6-9zm529 0l2 3h-3l1-3zm-349 1v2l-3 6h-9l-21 12h-9l-12-6-5 4-1 8h3l3-2-9 8-3-6-5 1-1-8h4l2-4 1 2 5-6 12-3-1-4-4-1 22-1v1l-5 3v2l-4 2-1 2 9 2q10-12 32-14zm-41 14l-1 3 4 2 1-2-4-3zm391-11l7 5h-5l-2-5zm-500 2l-6 7 1 2 1 1-14 9v2h-6l1-9 6 3 5-3v-3h-4l16-9zm-41 15l5 4q2 10-3 13l-8 5q0 12-7 18l6 9-6 14-11-5 1-2 9-4-5-16 19-36zm142 3l1 4-19 21-14 8-3 6h3l3-2-29 23-18 6 5 7h-1l-2-4-9 3 2 3-2 1 1 5-2-1q-7-8-5-25h2l5 2h1l-2 4 7 2 16-9 1-8-2-1 2-4v-2h6l3-6-2 3 2 2 3-4-2-1 10-7-2 5 1 2 39-31 1-2zm-47 45l-2 1-3 4v1l5-3v-3zm511-44l5 11-3-3-3 1v2l-6-8 6-1 1-2zm-444 8l5 1-6 11v15q-7 3-6 16l-24 36 4 5 2 1-1 3-14 8-15 28 5 6-29 28v-5l16-16 12-34 8-4v-3l-6-2 11-13-2-2-12 11-3-6-5 3 5 6-11 3-3-5 2-1 2-4 16-10-5-7-19-9-6 4 6 3-1 3-11 6 5 6-10 5 3 3 13 6h-5l-12-8 5-7-7-3 11-18 12-5 16 5 15-13 2-19-2-4h2l6-8 1 2 4-3 1-2-2-1 18-11 6 5 3-6zm-31 48l-4 2-14 16 3 5 14-7 7-9-1-3-5-4zm-93-36l1 2-5 3v1l-5 1v1l-3-2-3 2v4l-5-2 8-9 7 4 5-5zm430 0l5 4v2h-6l1-6zm-25 1l1 5 1 1-2 5-5-2 5-9zm-403 2l1 4-3 4-7 1v-1l8-6 1-2zm442 5l7 4 4 4 4 2 1-2 3 2-3 1 5 2 1-2 2 5h-2q-14 2-19-3l-5-11 2-2zm130 4l2 1 3 8-3-2-2-7zm-651 6l8 3-6 3-5-2 3-4zm119 0l-2 3-1-2 3-1zm364 0l4 4 11 19 14 5v2l-18 1v6l12 18-11 13q1-13-7-16v-17l-6-8v-11l4 2h2l-5-18zm74 6l2 1-1 3-3 1-1-2 3-3zm-564 6l3 1 6 9q-3 9-17 8l-4-5 3-1 1-6 8-6zm6 18l12 7-3 5h4l2-3-1-3h1l1-2 1 3 9 8v1l-14 8-3 13-17 28-1-5-6-2v-4l-8 6-4-6 4-5 3-1 5 4 1 2 3-1 6-10 7-4 1-15-2-5-2 1-7 13-7 3-5-3-1-3 21-30zm15 12l-4 3 2 3 7-3-5-3zm86 1l3 3-2 1-1-4zm581 3l5 11-3-2-2-9zm-628 9l1 1 2 5-2 4h-2l-2-5 3-5zm25 17l2 1-1 3-4 2-1-2 4-4zm47 12l3 1-3 5h-3l3-6zm-20 11l3 3 2 5-1-1h-2l-2-7zm-136 1l3 3-2 3-4-2 3-4zm60 0l1 2-10 8 1 2 9-7 1-2 1 4-7 9-12 3-1-1 2-3-1-3 16-12zm469 0l2 1-5 8-1-5 4-4zm-88 2v2h-1l1-2zM30 657v3l-6 10 5 6-5 8h-6q-1-16-12-20l7-4 9 5 8-8zm94 3l2 1-3 11h-3l4-12zm423 1l3 5 7 4 1 14h-11l-1-3 6-4-1-5-3-1-1-10zm-484 6l1 1 2 5-6 11h-6q0-13 9-17zm94 10l7 2-2 5h-6l1-7zm14 2l1 1 2 4h-5v-1l2-4z" fill="#e8ece9" stroke="#e8ece9" class="B"/><path d="M508 354q22-4 31 6h34l8 6-2 1 3 5h-18l-11 6-24 2-1-2-19 6 1-2v-4q-17 3-22-5l-1-3 1-2 10-5 1 3 4-2 5-10zm-32 7l4 3v2l-5-2 1-3zm-284 9l1 2 4 1-5 3-3 8 2 1-16 5-1-8 18-12zm64 8l7 1-10 5-1-2 4-4zm-87 6l1 1-2 5 5 1-5 3-7 12-16 8-1-2 3-5 7-5 2-4 3-1 4-10 6-3zm336 6l5 4q-3 5-6-1l1-3zm-300 6l18 1-1 4 5 1h1l-3 6h-9l-23 12-1-5 7-16 6-3zm403 19l4 3-3 2-1-5zm-443 6l6 6 1 4h-1l-9-5 3-5zm-41 5q11-3 14 4v2h-18l4-6zm578 6l6 4v4l-6-2v-6zm-551 6q15-4 21 3l-1 3h-23l3-6zm456 12l2 1 2 4-4 3-1-3-4-1 1-2 4-2zm-493 6l6 1-1 3-10 2-1-2 6-4zm18 3v6l-14 3v-1l2-4 1 2 11-6zm495 10l21 15v2l-26-12 5-5zM82 480l2 1-17 27-4 2q-8 24-26 38l-1-1 33-54 13-13zm66 78l2 3-5 2-1-1 4-4zm-121 6l3 6-5 2-1-5 3-3zm150 43l2 2-2 3h-3l3-5zm-167 5l2 1-3 5H6l4-6zm159 12l1 1-1 4-1-2-3 2v-3l4-2zm-15 6l2 1v5l-5-2 3-4z" fill="#fafbfb" stroke="#fafbfb" class="B"/><path d="M196 360l1 1-4 9-14 8 11-12 2-4 4-2zm303 0l1 1-13 8 2 3h-2l-7 1v1l-6-11h1l1 1 4 2 1-2 7 2 11-6zm75 0l8 4v5l-2-3h1l-7-6zm-289 7l2 1 1 5-1-1h-5l3-5zm-87 5l-1 2-5 13-10 3v-1l9-4-2-1 5-10 4-2zm366 0l5 1-16 11h-19l-6-3 3-3h22l11-6zm-300 6l-1 2-8 10h-9l6-8 1 2 11-6zm233 0l13 1-2 5-11-6zm19 7l1 5 1 1-9 5-1-6 6-1 2-4zm-354 3v3l-5 8-1-5 6-6zm12 0l1 2 1 1-2 9 2 2-18 6v-1l8-6 4-9 3-1 1-3zm50 8l9 1-5 3-1 2 1 1-6-2 2-5zm-8 12l8 1-4 16-7-5q-5 9-21 6l-5-3-1-3 6-8v3l1 5 23-12zm417 0l9 4v7l-3-4 2-1-8-6zm-26 6l11 1v2l-7 3v-4l-4-2zm-483 6l4 1-2 4 1 1-5 2-1 3-1-7 2-3 2-1zm26 0v3l-4 1 2-3 2-1zm15 0l6 6-5-5-3 2 2-3zm10 0l5 1-2 4h-2l-1-5zm455 0v3l-7 3 3-4 4-2zm-468 4l1 2 9 5 1-2 3 7 5 2 9-5 1 3-5 8h-15l1-3q-6-7-21-3l-3 6 1-2v-2l-9-3-1-4-2 1v-1h1l1-3 12 2 11-8zm505 2l10 6h-8l-2-6zm-546 6l3 1-3 1v-2zm558 0l5 4 1 2h-4l-2-6zm-560 1v2l-2 3h-3l1-3 4-2zm532 5l14 1-2 5-4-1-1-4-2 1-1 3-1-4-3 4-2 1-1-3 3-3zm-20 12l10 1-10 5v-6zm-29 2v2h-1l1-2zm-493 4l4 1-5 3 1 2 11-3 1 3 5-3-1-2 2-1 4 3v1l-10 5-1-2-3 5q-21-3-26 8l-1-4 19-16zm456 0l5 4v2h-6l1-6zm21 0l4 1-5 4-2-2 3-3zm-410 6l10 3-2 3-8-6zm448 6l7 4-3-3-9 5-1-2 6-4zm6 8l15 10-3 1v5l-6-3-6-13zm-461 5l5 3q-3 5-6-1l1-2zm-79 5v3l-3 1h-2l1-2 4-2zm427 5l5 5v2l-6-3 1-4zm-414 7l5 4h-2l-4-1 1-3zm-37 9v3l-3 11-6 2 3-4 6-12zm-12 22v6l-12 17-5 2-1-5 18-20zm112 17q7 5-4 9l-5 2-1-1 6-8 4-2zM28 558l4 1-2 4v2 4l-3-5-3 2 2-7 2-1zm140 12l6 1v2l-11 3-1-2 6-4zm541 4l5 8h-2l-3-8zM16 600l2 1q1 10-5 13l-1-2h-2l6-12zm147 12l5 4v2l-4-1-1-5zm-9 6l2 1v5l-5-2 3-4zm17 6l1 4-7 2-1-4 1 3 3-2 1 2 2-5zm-18 6l-2 3 2 3-3-2 3-4zm-83 18l2 1v2l-5 2-1-1 4-4zm-15 6l4 3-2 3h-3l1-6zm105 0l2 1v11l-6-3 4-9zm8 16v5l-7 3 7-8z" fill="#f5f8f7" stroke="#f5f8f7" class="B"/><path d="M202 372l4 1-1 3-1-3-5 7-1-2 4-6zm86 4v2l-3 6h-5l3-1 5-7zm193 8l8 6-3 1v1l-4-1 4-1-6-3 1-3zm-325 10v2l-3 6h-5l8-8zm88 2l2 1v10l-5-8 3-3zm307 0l10 6h-3l-7-6zm-286 3l4 2h1l-2 6h-2l-1-8zm-6 4l7 11h-4q-6-2-3-11zm-97 5l6 1-2 5-9-2 1-2 4-2zm21 1l2 2-7 8-3-1 8-9zm337 5l5 1-3 5 21 12-3 1v2l-3-2-2 3 2 2-3 1 4 5 2-1 1 7 11 1-1 3-13 8 1 1-14 11-3-2v-40l-4 2-2 10-6-2 10-28zm130 6q14-2 20 6l-4 1v4l-3-5-3 1v2l-5-2 4-1-9-6zm-87 3l4 9h-3l-5-2 4-7zm30 3l10 6h-3l-7-6zm51 0l13 6-3 1v2l-3-2-3 2-1-7-3-2zm-517 6l2 1-3 5h-6l1-3 6-3zm120 0l8 6 19 30 2 1q4 13-2 17h-10l-24 12-5-2 3-4h2l2-4q14 0 20-8l2-6-5-9-24-8q13 2 17-4-9-5-5-21zm419 0l5 3-4 6-1-3h-3l3-6zm24 0l12 3-5 3 4 1-4 2-1-3-11 6-2-4-4-1 11-2v-5zm-51 1l3 3v5l-3-2-3 2 3-8zm-505 1l4 2 1 8q24-4 34 6h-40l-2-4-4-1 9-2 1-2-1-3h1l-4-2 1-2zm464 4l13 6-5 1v2l-2-3h1l-7-6zm-490 6l6 4v2H98l10-6zm84 6h31l4 3-2 3h-41l8-6zm-21 6l1 2 2 2 1 2h-1l-5-2 2-4zm340 4l5 12h-1l-4-12zm-351 2l7 1-5 3v7l-5-8 3-3zm-12 1l6 7 2 13 4 3h2l1-7 10 7 1-3-4-2 7-1 3 6-6 2 2 2 15 6q9 8 8 26l1 1-26 20v3l-11 2-2-6-11-2-9 6-3 7 3 5-3 1q-3 21 7 29l14 1q-12 5-9 24l-4-2-3-23-8-6-3 4q10 6 6 27l-6 12 6 12-6 9q8 3 6 15l-6 12 6 11H61v-1l5-11-2-5-8 7-2 10H24l5-9-5-6 36-72 11-5-6-8-4-1v-4q2 5 12 3l5-3-1-3h-6q-2-18 7-24l-6-9 10-20 7-4 1-11-2-4h2l1-2 1 2 2-1 2-4-2-1 2-1q-2-20 9-28l9 8-6 9q14-4 18 3l-6 4v-3-3l-17 9-1 14 2 1-14 23v19l6 8 7 3 5-3-5-6 5-6q-9-5-6-21l6-15-1-3h1l2-4 23-14 9 5 12-11 6 5 1-2-12-10-2-5-21 6-6-3 6-5 1 2q12 2 17-3v-3h-5l9-5zm-25 65l-5 5-7-4-8 9 5 2v-4l4-2 3 6 8-1 3-4-3-7zm-12 7l-2 2 1 2h2l1-2-2-2zm18 5l-3 4 4 2 2-3-3-3zm-12 18l-3 4 4 2 2-3-3-3zm-9 18l-6 4 6 8v13l10 22 2-4v-25h2 4l-2-6-3 1-1-4-12-9zm38 13l1 4 2-1-3-3zm-47 12l-3 5 2 5h2l2-4-2-5-1-1zm25 17l-4 4 1 2 4-2 1-3-2-1zm-7 19l-3 5 2 23h2l2-4-2-23-1-1zm-42 5q-5 11-20 12l-1 5-2 1 1-2-2-4-6-6-9 12 4 6 10-6-2 3 1 3 22-8 7-9-3-7zm49 18l-4 12h3l3-11-2-1zm432-197l2 2-2 3 1 1-31 17 2-3 4-9 24-11zm-342 5l2 11h-1l-2-5-3-1 2-4 2-1zm6 18l8 4v2l-11 3-1-3 4-6zm44 6l8 1-19 11-2-4h-3l16-8zm-54 2l1 4 2 1-3 2v-2l-3 5-3-5 5-1-1-2 2-2zm12 4q6 7 21 6l4-3-1 6q5 5 18 4l-3 5-3 1-11 22-1-11 6-11-5-1-3 6-7-5-21 14-6 9-17 6v-1l5-8q19-6 28-22l2-5-2-5-9 5-1-6 4-5 2-1zm295 10l17 8 1-2 19 14-2 1 1 5h5l-3-5 5 3 7 3-2 3 5 10-5-5-6-2-3-6-2 1-2 5 4 4 19 16v1l-10 6-1 3 11 15-3 6 9 6 5 7 3 1 9-5 7 15-16 8h-7l-20-12-10 16 18 20v19l-6 17h-6q3-13-3-17l-7-2-8-13 4 2h2v-6h-3l3-5-2-1-4 3q5-22-6-29l4 2h2l12-18q-10-8-12-23l18-1-1-4-16-5-10-20-2-1-1 4-6-10q3-23-5-32zm12 14l-6 16 5 2 6-11-2-5-3-2zm-283 21v10l-18 29v19l-6 11q3 21-6 30v25l-6 17-37-1-1-4-2 1-2 4h-6l3-6 3-2 29-31-5-9 18-27 12-6v-3l-4-1-2-5 22-31 8-20zm-87 9l-3 4 1 2 11-6v7l-3 4-18 7-3-3 3-4 3-1-1-3 10-7zm21 0v3l-5 3v-1l3-4 2-1zm420 5l1 1h-1v-1zm-9 2l2 2-1 2-3-1 2-3zm-444 17l8 3v1l-8 2-3-3 3-3zm27 0l24 15-5 6-13 7v2l-10 4-13-6 3-4 7-2-5-6 12-7v-3l-6-2 6-4zm-116 6l2 4-5 2v-1l3-5zm524 48l5 3-7 8h-2l-2-5 4-5 2-1zm18 18l5 4 1 3-8 10h-2l-2-11 4-5 2-1z" fill="#e1e5df" stroke="#e1e5df" class="B"/><path d="M282 370l1 2 5 2-5 9-1-2-12 4-9 11-3 1v2l-5-2 4-1-4-3-2 1-1-3 11-6 3-6 1 2 17-11zm301 0l11 6v2l-6 1v1l-2-1-4 3 4 2 2-1 1 1 3 1-7 5-2 5 1 1-2 1v5l-11-6-1 4 2 2-2 1v1l-11-8h-9l-9-6-1 3-5-2 4-1-5-3-1-2 20-1 17-12h12l1-2zm-315 26l2 1-2 4-2-2 2-3zm248 0l2 1-5 11h-4l1-4v-2l2-4 4-2zm90 0l8 6-2 1v1l-6-8zm-29 10l18 2 7 6-2 1v1l-18-2-8-5 2-1 1-2zm54 5l4 3-4 1 4 3 1 1 1-4 3 4 2 1 1-2 1 3 6 5h-2l-11-6-1 3-4-1-2 1v-3h-5l4-2v-2l-4-1 5-1 1-3zm-4 28l7 5 2-1-3 7-3 1-6-1 3-11zm16 0l3 5 2-1 1 1 4-3 1-2 1 4 2-4 1 1 2 3 1 1-12 2h-2l-1 3h-2l-1-10zm-31 5l6 1 3 11-3 1-4-1h-3l1-10v-2zm-41 10l7 3-5 3-8-3 5-1 1-2zm-10 3l2 2-1 2h-2l-1-2 2-2zm-17 5l2 1-1 3-7 2v-1l2-4 1 4 3-5zm51 4l28 3-5 3 1 2q12-1 15 8l4 10h-4l-9-5 2-1-21-9v-3l-6 1 2 11h-1l-7-3 1-17zm34 2h7l16 12 2 3q25 5 36 25v2l-6 1 6 14-5 2-2-5-4-3-2 1-11-16q-18 3-22-7l-1-4h-2l2-7h5l-5-9-14-9zm-50 30l3 3-2 3-4-2 3-4zm107 37l4 3v2h-3l-1-5zm11 17l5 3h1l26 45-3 1v25l-6-2-9-41 3-1-5-9-2 1-10-22zm-9 25l2 5-5 3-1-2 4-6zm39 57q4 10 20 9l3 18 6 11v12h-5l-4-6-3 1v5h-6l-6-12v-18q-8-6-5-20z" fill="#e5f1f3" stroke="#e5f1f3" class="B"/><path fill="#172b77" stroke="#172b77" d="M469 373l7 17v1l9 5-5 1-4-1-2 6h4l2-1v4l-6 3-6-3 3-8v-2l3-1-5-15h-2l2-6z" class="B"/><path opacity=".996" d="M586 379l1 3-2 1-2-2 3-2zm-315 5l13 1-1 3-1-3-6 11h4l2-1-3 7-8 2-1-8h-2l2-5-2-1 3-6zm323 0l6 4-3 7-3 1v-1-11zm-59 3l4 3-4 1 5 3v2l-6-3 1-6zm53 1l1 8h-3l-2-3 4-5zm-34 8l9 2 18 16h-11l-5-3-6-12-5-3zm50 1l4 5-2 1v7l-6-8 4-5zm-53 23l9 1-5 3-4-4zm81 2l4 2 1 2 4 1-7 4-4-2v-3l-6 2-1 2-15 2v-1l24-9zm-384 4l10 1 1 7h-1l-5-7-1 2-4-3zm407 0l10 6h-7l-3-6zm-4 7l2 2-2 3-3 2-2 3h-2l-2-6 3 1 3-1 3-4zm-15 3v5l-3 2-6-3 1-2 8-2zm-70 16l4 2v2l-5-2 1-2zm53 4l5 3 1-2 2 5h-3l-6-3 1-3zm-24 1l3 5 2 1 2 3 3 2h-7q-6-2-3-11zm23 23l6 4 1 3h-1l-6-1v-6zm-40 7l3 1 1 11-1-1-4 1-1-9 2-3zm65 6l5 8 5 3h-7q-6-2-3-11zm18 17l5 4v2l-6-3 1-3zm30 6l4 3-4 8v-11zm-12 3l2 3-4-1 2-2zm5 8v3l2 4h4l1-5 5 10 1-3 1 4-2 1 6 13-2-2-4 1 6 12-1-1-11-9-3-14 3-1-1-4-11-2 4-6 2-1zm-129 8l5 5-6 2-2-2 3-5zm-303 30v5l-3 6h-3l6-11zm400 5l2 1-3 5h-3l4-6zm57 7l5 15h-1l-4-15zm-18 3q7 2 5 13h-1l-2-5h-9l2-4 4-2 1-2zm-447 8l1 1-2 5h-3l4-6zm152 5v2h-1l1-2zm295 1l5 4-1 8-5-1 1-11zm36 6l4 3-2 3-2 1v-7zm-5 24l16 9h1l7 9h-8l-12-9-1-3-3-1v-5zm5 19l5 15h-1l-4-15zm24 7q7 6 5 21h-1q-7-7-4-21zm6 23l5 11h-5v-11zm-12 5l3 2 2 4h-5v-6z" fill="#cfe6ea" stroke="#cfe6ea" class="B"/></svg>