<svg xmlns="http://www.w3.org/2000/svg" viewBox="0 0 1536 1536" stroke-width="3" xmlns:v="https://vecta.io/nano"><path stroke="#000" opacity="0" d="M1 0l1535 1v1535H0L1 0zm640 72l-11 6h-13q-5 7-18 6l-58 32q-29 21-47 53l-32 64q2 17-6 24v13l-6 11v75l6 11q-2 15 5 22-2 12-12 17l-57-22q-18 2-24-6h-13l-11-6h-63q-9 9-30 6l-46 20-36 24-23 29-14 28v13l-12 17q2 17-6 24v75l12 23v25l17 25-47 74q1 13-6 18v13l-6 11v19l-6 11q-3 18 6 26v31l38 82 12 18q21 28 53 46 27 9 46 26 13-1 18 6h13l11 6h69q6-8 24-6l21-11 7 2v3h6v-2l5-3v3l-4 2-1 6h3l3 7-12 34v13l-6 11v19l-6 11v33l6 11v37l18 47v7l26 52q24 31 59 52l28 14q17-2 24 6h69l29-12h7l33-17 7 2 19 19 36 24 40 20 25 6 11 6h63q8-9 30-6l70-38 40-40 32-64v-19l12-29v-37l6-12-2-1-2-3v-2l7 5 5-4 23 20 29 17 13 13 60 42 118 62h7l35 18 37-2q13-9 18-26v-31q7-5 6-18l36-63-4-5 4-9-2-25-20-19h-13l-29-12h-13l-83-30h-7q-20-7-31-22l-10-3-1-3 24-14q38-7 65-26 9-17 30-24l22-22q12-27 32-46v-7l18-35q-2-18 6-24v-25l6-11v-15l-6-11q2-15-4-20l4-8-26-55q-15-11-21-29 5-19 17-30v-7l12-23v-13l6-11v-93l-18-47v-7q-17-19-26-46-22-28-56-43-14 1-18-6h-13l-11-6h-19l-9-6-6 5-21-8-1-3-18 12h-31l-11 6q-15-2-22 4l-14-16v-11l12-29v-93l-12-29v-7l-32-58q-16-21-40-35l-40-20q-18 2-24-6h-13l-11-6h-51q-11 10-36 6l-29 12h-7l-23 12q-27-8-42-28l-52-26q-14 1-18-6h-13l-11-6q-26 4-36-6h-27z"/><path d="M643 72l2 1-8 5-1-2 7-4zm99 18l8 4v2l-8-6zm48 24l8 4v2l-8-6zm-144 18h35q6 9 24 6l73 36 24 26 16 28-2 1 6 10 1-4 2 5-3 1 12 23v13l-7 9-16 4-1-2-18 1v1l-12-2-28-18-2 4 2 2-2 1 6 10 1-4 2 5-3 1 8 17-2 1 8 17-2 1 8 17-2 1 6 8 2 15-2 1 6 8 2 21-2 1 6 8v28l3 5-3 1q-1 11 6 14v46l3 5-3 1 4 11 2-1v30l-3 1-8-6-1 3-5-2 4-1-28-24-1 2-29-26-1 2-35-32-1 2-43-44h1l-26-35 2-1-5-11-1 4-3-4 3-1-14-29 2-1-6-8-2-15 2-1-6-8v-61l6-8-2-1 8-17-3-1 3-5 1 4 14-17 9-8 1 2 17-8 1 2h30l5-3-1-3h-6l1-4-23-14-1 2-41-14h-19l3-5-2-1 21-12q18 3 24-6zm438 24l8 4v2l-8-6zm-160 18h61l11 6h12l15 6 19 12 2 3q17 7 27 22l27 59v85l-12 35-15 30-8 3-1-3 6-11v-61l-8-23 2-1-19-42-11 2v23l-12 23 3 1-2 4-1-4-6 11 2 1-26 29 2 1-26 29 2 1-26 29 2 1-26 29 2 1-32 35 2 1-24 23-2-42-3-5 3-1q4-17-3-24l-2 1-1-52-2-2 2-1-6-8-2-27 2-1q1-12-6-14v-67l6-8-2-1 2-15 6-8-2-1 4-10 27-29-4-3-1 5-5-8q-10-7-31-3l2-4 40-20h7l29-12zm229 96l2 1 3 8-3-2-2-7zM460 396l2 1q-1 11 6 14l-6 3-6-3v-3h-3l7-12zm687 21l1 2 10 5v2q-12-1-14 6l-4-6 4-6h2l1-3zm-972 3l2 1-15 14 7-12 6-3zm1191 24l8 4v2l-8-6zM273 462h49l8 6 1-3q6 7 24 3l23 12 1-3 4 3-4 1 11 5 1-3 4 3-4 1 11 5 1-3 4 3-4 1 11 5 1-2 17 14 1-2 59 61 1-4 2 5-3 1 42 46 1-4 2 5-3 1 36 38 17 9-2 1 2 5h-5l-35-18-1 3-17-9h-7l-29-12h-10l-8-6-1 3-23-9h-13l-11-6-1 3q-6-5-18-3l-11-6h-79l-5 3-1-3-8 6h-37l-8-6-1 2-10-7-2 1v-2l-6 1v1l-28-21-11-22 3-1q-11-9-6-33l6-8-3-1q11-30 35-46l28-11 1 3 8-6zm0 139l-2 3 3 1 1-2-2-2zm937-133h77q4 8 18 6 36 15 57 45h1l17 37v69l-6 11-6 25-11 22-1-2-11 9-1-6 6-11v-53l-4-2-8 12 3 1-2 4-1-4-6 11 2 1-22 23-15 14-1-2-17 14-1-2-29 15-1-3-41 15-1-3-23 9-1-3-8 6h-22l-11 6h-31l-5 3-1-3-8 6h-91l-8-6-1 3-10-4-2-5h-2l5-6h-2l11-8 1 2 109-106 11-5 29-29 1 2 23-20 1 2 7-5v-2l46-23q13 1 18-6l18-1h2l4-2-1-3-5-2-1-4-16-5-2-5-4-2-1 3-35-15-19-1 2-9 17-2 9-6zM127 651l5 9h-2l-3-9zm302 69l15 2-8 10-22 15-47 45 4 1-4 2-1-3-8 6 1 1-28 14-1-3-11 6h-37l-10-7-2-29 26-28 46-17 1 3 8-6q14 3 21-3l1 3 8-6h34l5-3 1 3 8-6zm897 42l17 2 19 19h1l11 18h1l17 45v61q-8 6-6 23l-11 22-4 2h-3q-3-18 6-23v-61l-23-41-1 4-3-4 3-1-23-27-1 2-11-22-1 4-3-4 3-1v-6h-2l5-6h-2l11-6zM88 792l2 1-5 8-1-2 4-7zm1226 15l1 9 2 1-9 17 3 1q-9 25-28 39l-34 14h-40l-8-6-1 3-17-9-1 3-17-8-2-5-4-2-1 3-5-2 4-1-11-9 2-3q19 4 28-3l1 3 8-6h28l23-9 1 3 35-15 1 3 41-21zM82 822l2 1v23h-3l-3-17 4-7zm1365 0l2 1 2 7-2 4h-3l1-12zm6 42l2 1 3 17-3 6h-3l1-24zM87 876l3 1v11h-3l-3-9 3-3zm655 1l2 4 2 1-2 1 24 52 1-4 2 5-3 1 6 7h1l5 9 1-4 2 5-3 1 6 7h1l17 27 1-4 2 5-3 1 6 7h1l11 21 1-4 2 5-3 1 9 23-3 1 1 11 2 1q-5 5-3 18l-9 11 2 1-10 5h-43q-30-9-46-31l-12-18-8-22v-61l12-29-3-1q12-30 31-53zm-108 60l2 1-6 16 3 1-9 23 3 1-9 17 3 1-26 52-15 13 1 1q-9 8-29 5l-8-5 2-1q-9-6-6-24 13-38 44-58l3-1-4-1 5-3 1 3 20-17-2-1 27-23zm-226 107l12 4-6 3v11l-6-2-1-10h-8l9-6zm-9 11l1 1h-1v-1zm4 3v2h-1l1-2zm941 16v3l-8 3 2-3 6-3zm-96 36l18 1v2l-17 7 1 1 4 1 3 1 15 9v2h-6l-30-15 12-9zm-119 12l5 4v2l-6-3 1-3zm18 12l113 54h9l39 18h12l48 18h9l9 6q13-2 18 4l-5 12-4 2-12 24-21-6-23-12h-7l-59-29 2-1-32-17 2-1-20-11 2-1-20-11 2-1-20-11 2-1-32-17 2-1-8-5 2-1-8-12zm-81 66l2 2 1 4 8 6-7-3-1 3 3 2-1-1-2 1-1-7-3 5h-3l4-12zm393 42l4 3-2 3h-3l1-6zm-1 7v5l-3 6h-3l6-11zm-6 12v5l-3 6h-3l6-11zm-12 26v3l-3 6h-3l6-9zm-414 84v3l-3 6h-3l6-9z" fill="#c9e785" stroke="#c9e785"/><path opacity=".996" d="M646 72q22-4 31 6h25q6 8 24 6l24 12 1-2 39 20 2 3 6 3 1-2 30 24 13 2 23-12h7l29-12q25 4 36-6h47l11 6h13q6 8 24 6l52 30 2 3 6 3 1-2 20 21q5 19 18 30l15 30 8 29-2 1 6 9v86l-12 29v25l-4 2-2 5 4 5 14-6 1-2 3 1q6-7 22-5l11-6h31q6-10 28-6l10 6 6-5 7 5h19l11 6h13q4 7 18 6l28 18 2 3 6 3 1-2 20 21 17 35 7 7 21 60v89l-6 11v13l-12 23v7l-18 32q6 18 21 29l23 47-2 1 1 11 1 1-1 3 5 9 2 17-2 1 1 23 1 1-2 29q-8 6-6 24l-18 35v7q-20 20-33 48l-21 21q-20 7-29 23l-1-2-9 6 1 1q-24 17-59 23l-10 8-1-2q-23-4-30 9l30 15h6l1-2 22 14h7l83 30h13l29 12h13l21 19q6 7 3 23l-5 11 1 1-2 1 1 5 1 1-1 3-1-3-6 11 2 1-1 3-1-3-6 11 2 1-14 23 2 1-6 6-8 22v31q-5 17-18 27l-6 3h-29l-35-18-16-4-111-59-60-42-13-13-29-17-22-19v-2l-15-6-1-6-3 2-2 10h3l3-5v59l-12 29v19l-29 58-4 2-3 6 2 1-38 38-72 39q-22-3-30 6h-59l-11-6-25-6-42-21-36-24-19-19-7-2-35 18h-7l-29 12h-65q-7-8-24-6l-30-15q-35-20-58-51l-27-54v-7l-18-47v-37q-11-12-6-40l6-11v-19q8-7 6-24l12-29 1-16 5 2 1-12 5-2-12-4-9 6h-10l-23 12q-18-2-24 6h-65l-11-6h-13q-5-7-18-6l-48-27q-31-18-52-45l-39-72v-7l-8-16 2-1v-12l-5 2-3-31 2-1v-24h-2l2-20 6-9-2-1 2-17 9-24 45-70-14-20 2-1q-10-9-6-31l-12-23v-71q8-7 6-24l12-17q-2-15 4-22 9-23 26-38l15-13v-2q31-27 76-41 21 3 30-6h59l11 6h13q6 8 24 6l41 18 25 7 2 3 5 2 5-3-6-15h-2l2-7-12-35v-71l6-11v-13q8-7 6-24l28-57q19-37 51-61l60-33 35-8 1 2 9-6zm-10 30q-6 9-24 6l-30 15-2 4-19 11 2 1-5 2-2 4-3 1-23 25h-2l-9 9-33 66q3 18-6 24v33l-6 9q-1 12 6 16v39l21 54 4 1 23 43 1-2q4 17 17 26l1-2 2 6 4 1 17 25 1-2 2 6 10 7 17 20 3 9 39 38 1-2 2 6 16 13 17 20 3 9 21 20 1-2 2 6 4 1 35 43 1-2 2 6 4 1 17 25 1-2 2 6 4 1 7 16 17-3 1-3 20-18 9-3 32-32-2-1 6-3 25-27 38-36 9-3 44-44 3-9 9-5 25-31 3-1 23-26 1 2q11-8 15-23l3-1 5-8 1 2q12-9 17-26l1 2 35-68q-2-14 6-18v-15l6-9v-55q-9-9-6-30l-21-48-3-2-11-19-1 2-3-5-14-11 2-1-8-9-72-33h-79l-9 6h-15l-36 15-2 4-25 11h-5l-12-10-1-2-8-5 2-1q-9-13-26-17l2-1-56-30q-14 2-18-6-18 3-24-6h-49zM270 402l-9 6h-9l-27 12 2 1-17 8-2 4-16 8-22 30h-2l-24 45v27l-6 9v43q9 6 6 24l30 65-2 11q-14 9-20 28h-2l-10 18h-2l-24 51v26l-2-2-4 1v30q10 7 6 30l12 27v9l21 42 9 8 1-2 2 6 4 1 1 4 19 16v3l8 5-2 1q14 16 38 23l-2 1 27 11h9l9 6h15l9 6h31q6-9 24-6l84-39 7-9 19-11-2-1q17-5 26-17l-2-1 6-3 1-3 25-17-2-1 6-3 1-3 25-17-2-1q17-5 26-17l-2-1 6-3 1-3 25-17-2-1 20-11-2-1 20-11-2-1 20-11-2-1 20-11-2-1 47-24h7l48-21 5-7-2-2-4-2-11-19-1 2-3-5-3-2q-10-24-29-37l-1 2-3-5-3-2-18-19-3-9-26-27-1 2-3-5-21-20-18-19-3-9-20-21-1 2-3-5-15-14-15-22-32-33-21-13-1-2-8-5 2-1q-8-12-23-16l-1-2-17-10-1-2-68-36q-14 1-18-6h-15l-9-6h-85zm942 36l-9 6h-21q-5 7-18 6l-42 21-2 4-19 11 2 1-5 2-2 4q-24 9-37 29l2 1-5 2-11 14-1-2-39 39-3 9-93 93-9 3-21 21 2 1-5 2-8 10-49 41 2 1-5 2-18 20 12 22 1-2 2 6 4 1q11 28 35 43l1-2 2 6 14 11-2 1 21 20 21 13v3l14 11-2 1q10 15 30 21v3l8 5-2 1q8 11 24 15v3l14 11-2 1q9 12 26 17l-2 1q9 12 26 17l-2 1q9 12 26 17l-2 1 20 11-2 1 69 35 25 6 11 6h67l56-23-2-1 18-9 1-3 19-11-2-1 6-3 23-26 1 2q12-9 17-26l1 2 23-44 6-27 6-9v-55l-6-9v-9l-9-24-3-2q-7-23-23-37l-1 2-18-20 4-11 3-1 9-17 3-1 11-20 6-27 6-9v-15l6-9v-43q-10-8-6-30l-6-9v-15q-7-5-6-18l-11-21-1 2-11-20-1 2-3-5-14-11 2-1-8-9-42-21q-18 3-24-6h-73zM774 786l-81 36 2 1-29 14-2 4-19 11 2 1-20 11 2 1q-17 4-26 17l2 1-5 2-2 4-25 17 2 1-5 2-20 22-3 1-23 25h-2l-29 32-1-2q-12 8-16 24h-2q-13 9-17 26l-1-2-24 45v7l-12 23v15l-6 9v85l12 27v15l24 50 1-2 11 20 1-2 2 6 4 1 1 4 25 22v3l18 9v3l27 11h9l9 6h37l9-6h15q4-7 18-6l20-11-2-1 18-9 1-3 8-6h5l15 15 21 13v3l8 5-2 1 18 9v3l18 9v3l33 17q13-2 18 6h15l9 6h31q6-9 24-6l48-21 1-3 19-11-2-1 6-3 1-3 4-2 16-18 3-1 11-14 1 2 23-44 6-27 6-9v-67q-8-7-6-24l-17-39-1 2-17-32-1 2-11-20-1 2-3-5-3-2-17-25-1 2-3-5-3-2q-8-20-23-31l-1 2-3-5-9-8-15-22-14-15-1 2-3-5-3-2-9-16-15-14-17-25-1 2-11-20-1 2-24-46-6-25-6-9v-27l-6-16-12-2zm44 48l-2 2v11l24 44 1-2 8 18 4 1 8 17 4 1 11 19 1-2 2 6 4 1 17 25 1-2 2 6 10 7 23 31 1-2 2 6 4 1 17 25 1-2 2 6 4 1 14 23 21 20 1-2 2 6 10 7 1 4 73 70v3l8 5-2 1q10 15 30 21v3q9 12 26 17l-2 1 18 9v3l18 9v3l8 5-2 1q14 16 38 23l-2 1 42 21v3l69 35h9l21 12h9l3 5 4 1 8-11q-2-14 6-18v-27l18-39 1 2 17-32-2-18-27-13h-15l-27-12h-15l-27-12h-9l-96-40-1-2-77-40-1-2-17-10-1-2-20-11 2-1q-9-13-26-17l2-1q-9-13-26-17l2-1q-8-12-23-16l-1-2-8-5 2-1-29-22-1-2-8-5 2-1q-8-12-23-16l-1-2-8-5 2-1q-10-16-29-22l-1-2-14-11 2-1-14-15-21-13-1-2-45-44-2-3-14-13zM658 168l2 2 1-2 7 6h-2l-8-6zm2 18l30 2-1 2-34 2-1-2-3 2 9-6zm-18 6l2 1-7 5-1-2-9 8 15-12zm-18 12l2 1-13 16-1-5 8-10 4-2zm259 12l4 3-22 23-1-2 17-19h1l1-5zm-273 6l2 1-5 7-1-2 4-6zm204 0q7 5 8 17h-1l-5-10 2-1-4-6zm-208 15l-1 3 1 1-5 7-1-2 6-9zm217 3l3 2 2 6-4-3-1-5zm35 15l-1 3 1 1-5 7-1-2 6-9zm-107 18l5 14h-1l-5-10 2-1-1-3zm101 6l-1 3 1 1-5 7-1-2 6-9zm-95 9l3 2 2 6-4-3-1-5zm33 0l2 2 1-2 17 1 1 1 2-1q-4 6-15 5l-8-6zm-27 15l5 11-4-3-2-4 2-1-1-3zm-162 7l5 8-2 1 2 2-5-11zm168 11l5 11-4-3-2-4 2-1-1-3zm288 7l5 8-2 1 2 2-5-11zm-450 6l5 8-2 1 2 2-5-11zm419 0v3l-3 5h-3l6-8zm-251 5l5 11-4-3-2-4 2-1-1-3zm245 4v6l-17 20 13-15h-2l6-11zm-173 15q6 3 5 14l-2 1 2 2q-8-5-5-17zm-66 5l5 11-4-3-2-4 2-1-1-3zm-162 1l5 8h-2l-3-8zm383 6v3l-23 26 13-15h-2l12-14zm-377 3l5 11-2 1 5 5q-11-4-8-17zm162 20l5 11-4-3-2-4 2-1-1-3zm66 7l5 8-2 1 2 2-5-11zm125 0v3l-29 32 19-21h-2l12-14zm-329 12l5 8-2 1 44 43 1-2 13 12h-2l-57-53-2-9zm417 20l4 1-1 3-4 2h-3l4-6zm-118 4v3l-23 26 19-21h-2l6-8zm-155 2l3 2 2 12-4-3-1-11zm-523 24l2 1-7 5-1-2 6-4zm53 0l7 4v2l-7-6zm537 0l2 2 2 22h-2q-7-6-4-22l2-2zm64 4v3l-29 32 25-27h-2l6-8zm-553 8l7 4v2l-7-6zm341 0l20 20 1-2 7 6h-2l-26-24zm-332 6l10 4v2l-10-6zm12 6l10 4v2l-10-6zm12 6q14 1 19 12l-9-7v1l-10-6zm338 6l20 20 1-2 7 6h-2l-26-24zm495 0l7 6h-2l-6-3 1-3zm-343 4v3l-26 29 22-24h-2l6-8zm-469 2l8 3 56 57-57-55v1l-7-6zm374 0l3 2 2 9-2 1-3-12zm462 10l5 4-1 2-4 2v-8zm-1059 8l2 1-5 7-1-2 4-6zm591 18l7 6h-2l-6-3 1-3zm383 12l2 1-7 5-1-2-15 14 21-18zm-977 4l5 8h-2l-3-8zm294 14l9 8 2 6-10-9-1-5zm659 0l2 1-7 5-1-2-30 29 36-33zm-879 31l2 2-1 2-3-1 2-3zm-38 2l5 5 1-2 5 1 1 1h1l-6 2-7-7zm18 6l5 5 1-2 7 6h-2l-11-9zm59 3v3l-7 3 3-4 4-2zm115 6l10 6h-5l-6-3 1-3zm108 0l3 2 2 6-4-3-1-5zm809 4v3l-3 5h-3l6-8zm-869 8l7 6h-2l-6-3 1-3zm863 1v6l-17 20 13-15h-2l6-11zm-791 23l10 6h-5l-6-3 1-3zm773 4v5l-7 3 7-8zm-9 8l-14 15-8 3 3-4 4-2 1 2 14-14zm-24 18l-8 9-8 3 3-4 4-2 1 2 8-8zm-279 18l2 1-13 11-1-2 12-10zm240 0v3l-10 3v-1l10-5zm-42 12v3l-10 3v-1l10-5zm-780 6l2 1-7 5-1-2 6-4zm561 0l-4 6 2 2 2 4h-6q-6-3 0-5l6-7zm195 0v3l-7 3 3-4 4-2zm-738 4v5l-7 3 7-8zm-66 2l2 1-7 5-1-2 6-4zm-30 6l2 1-7 5-1-2 6-4zm649 0l7 6h-2l-6-3 1-3zm107 0v3l-7 3 3-4 4-2zm213 36l-4 6 1 1v5l-4-1-1-2 8-9zm-951 24v3l-7 3 3-4 4-2zm952 12l2 7-3 5h-3q-2-10 4-12zm-988 6v3l-10 3v-1l10-5zm1015 10l5 8h-2l-3-8zm-67 2l2 1-7 5-1-2 6-4zm36 1v6l-3 5h-3l6-11zm-72 11l5 1-10 5-1-2 6-4zm-60 12l2 1-7 5-1-2 6-4zm-23 18l7 6h-2l-6-3 1-3zm24 12l7 6h-2l-6-3 1-3zm-438 3l5 14h-1l-5-10 2-1-1-3zm456 3l7 6h-2l-6-3 1-3zm-489 48l2 1-5 10-1-5 4-6zm57 6l3 2 2 6-4-3-1-5zm-133 7v6l-3 5h-3l6-11zm145 11l3 2 2 6-4-3-1-5zm-151 13v6l-3 5h-3l6-11zm-36 5l2 1-7 5-1-2 6-4zm30 13v6l-3 5h-3l6-11zm181 5l3 2 2 6-4-3-1-5zm18 30l3 2 2 9h-1l-4-11zm6 24l5 4-3 8h-3l1-12zm-235 4v3l-7 9-6 2 13-14zm-53 6l5 8h-2l-3-8z" fill="#d6d161" stroke="#d6d161"/><g fill="#93db43" stroke="#93db43"><path opacity=".996" d="M636 102l11 1q-5 7-19 5l2-3 6-3zm38 0q14-2 19 6h-11l-8-6zm-62 6l5 1-36 18 1-4 30-15zm92 0l13 6h-3l-10-6zm19 6l14 6h-4l-10-6zm38 17l22 13-2 1-1-2-22-10 3-2zm-191 1l2 1-8 5v1l-3-1 9-6zm348 12l5 1-13 5 2-3 6-3zm68 0q15-2 21 6h-11l-10-6zm-385 5l-1 4 1 3h18q6 8 24 6l41 20-1 4h-23q-5 8-18 6l-28 20-14 34v67q9 6 6 24l21 48 21 27 3 9 45 44 95 75-4 1-48-40-35-23-60-59-5-10q-18 2-24-7l-12 11-9-5-6 4 5 6-2 1-20-11h-7l-9 5-20-8-19-38q3-22-6-30v-43l6-11v-19q7-5 6-18l14-28q19-33 49-55v-2l15-10 1-2zm-4 19l-9 9 6 3 3-1 3-4-3-7zm-54 114l-3 4 4 2 2-3-3-3zm248-133l16 13-2 1-17-12 3-2zm103 1l5 1q-4 6-15 5v-1l10-5zm116 0l15 6h-5l-10-6zm-134 6l5 1-24 12 1-4 18-9zm-348 15l-1 4-16 27-2-2q5-19 19-29zm251 2l23 26-25-24 2-2zm282 0l16 13-2 1-1-2-16-10 3-2zm-221 1l4 1-12 5 2-3 6-3zm253 27l5 11-3-2-2-6h-2l2-3zm-289 1l18 14h13l11-8 1 2q25-5 33 8l1 3-15 15-14 28q3 18-6 24v79l6 9v27l6 9v45l-1-1-3 2-2 16-6-3q-2-15 6-20v-37l-3-5q-12 2-15-4l-6-27-11-15-7-3-9 6-3 13 12 35v25l-2 4-9-5-1 4 6 8v59h-1l-5-10v-55l-6-11v-31q-10-8-6-30l-6-9v-15l-6-9v-9l-6-9-6-27-12-22 3-2 27 18h9q3 7 16 6l26-11q5-6 3-19l-15-36-15-26zm-3 207l-3 5 2 17h2l2-4-2-17-1-1zm304-190l17 38h-1l-18-36 2-2zm-613 16v8l-5 8-1-5 6-11zm631 24l5 16h-1q-7-5-4-16zm-637 2v6l-5 8-1-5 6-9zm643 28l5 11v55l-5 8v-74zm-95 5l10 2 24 64v61l-6 17 2 1-7 5-1-6q8-7 6-24l-3-5-20-3 1-2 13-7 3-7-3-5-15-1-29 24q-22-4-31 3l-21 21-5 11-83 95-5 2-5-3-1-55h1l5 10 2 42 25-23 3-9 27-27 3-9 21-21 3-9 28-29 2-7 39-45 15-36 2-25zm-554 9v24l-3-2-3-13 6-9zm1 52q8 5 5 22h-1q-7-7-4-22zm647 18v6l-5 8-1-5 6-9zm-641 6l5 16h-1l-4-16zm635 13v5l-5 10-1-4 6-11zm-629 5l12 25-4-1-8-24zm-223 5l11 1q-5 7-19 5l2-3 6-3zm74 0q14-2 19 6h-11l-8-6zm-92 6l4 1-14 5v-1l10-5zm122 0l15 6h-7l-8-6zm-140 6l5 1-11 6-3-1 9-6zm158 0l27 12h-4l-23-12z"/><path opacity=".996" d="M841 414l3 2 2 16h-2q-8-4-3-18zm-623 11l2 2-11 6 1-4 8-4zm349 2l2 2-1 2-3-1 2-3zm12 0l2 2-1 2-3-1 2-3zm-148 4l12 7h-4l-11-5 3-2zm-151 1h51l5 4v2h-60l4-6zm788 3l1 2-4 1 3-3zm-870 3l2 1-20 19 12-17 6-3zm66 0l6 1-1 3-10 2-1-2 6-4zm97 0l10 3v1l-5 2-6-3 1-3zm192 0l17 16v2l-18-15 1-3zm659 0l17 1q-7 8-25 5l2-3 6-3zm56 0q18-3 25 6h-17l-8-6zm-813 5l10 7-3-1-10-4 3-2zm-205 1l2 1-3 5h-3l4-6zm135 0l5 4-1 2-3-1-1-5zm797 0l5 1q-4 6-15 5v-1l10-5zm122 0l15 6h-7l-8-6zm-1066 6l2 1-3 5h-3l4-6zm159 0l5 4v2l-6-3 1-3zm417 0l2 2v24l-6-2q-3-18 4-24zm350 0l5 1-48 24 1-4 42-21zm-641 2l6 11-1 2-7-10 2-3zm569 0l1 3-6 10-2-2 7-11zm-816 4q24-4 35 6-71-5-98 36l-14 29-1-11 8-16 30-30 16-8q17 2 24-6zm1067 5l16 13-2 1-17-12 3-2zm-1017 1h23l41 18h7l34 20 24 20 4 9 34 36-1 4-59-62-60-33q-14 1-18-6h-19l-10-6zm165 6l16 12-2 1-1-2-13-11zm44 2l12 17-1 2-13-16 2-3zm545 0l1 3-12 16-2-2 2-1 11-16zm-912 1l-1 4-4 9-2-2 7-11zm40 3l2 1-3 5h-3l4-6zm975 2l-1 2 2 8h17l59 26-1 10h-17q-5 7-18 6l-54 27q-7 14-24 18l-31 31-11 5-97 94-1-1 94-94 11-5 31-31 54-36 57-22v-2l-46-20h-13q-5-7-18-6l-11 6-1-2 3-5 16-9zm-372 4l5 4v14l-4-1-1-17zm213 0l2 1-9 11h-3l10-12zm86 0l2 1-8 5v1l-3-1 9-6zm222 8l31 30-1 1-30-31zm43 1l6 11-1 2-7-10 2-3zm-310 3l-2 3-1-2 3-1zm-909 1v5l-11 29-1-11 12-23zm371 5l8 3 32 33 3 8-43-44zm487 0v3l-5 3v-1l3-4 2-1zm72 0l2 1-26 24-3-1 27-24zm-527 2l12 17-1 2-13-15 2-4zm497 2v3l-11 14-2-2 13-15zm331 5l11 26h-1l-12-23 2-3zm-813 15l9 8-1 1-8-9zm467 0l-20 21-1-2 21-19zm-236 1q7 7 5 24l-3 4-3 1-8-5 1-2 6 1 2-23zm594 12l5 16h-1q-7-5-4-16zm-355 2l1 3-42 44-1-2 42-45zm-900 6v60l-3-2-3-6v-43l6-9zm457 7l41 44 1 1-1 2-39-38-2-9zm-18 5l14 15-16-13 2-2zm-384 4q6 24 23 38l23 13 4-3 14 11h-5l-8-6h-10l-16-8-12-11-14-22 1-12zm1206 2q7 5 5 19h-1q-7-6-4-19zm-409 7v3l-3 4-4 1 7-8zm-395 5l20 21 3 8-21-20-2-6h-2l2-3zm780 4q9 9 5 32l-5 8v-40zm-877 3l28 28 3 5-1 4-30-32v-5zm480 0v3l-47 50-8 3 55-56zm427 11l5 9v43l-5 8v-60zm-765 9l15 14-1 1-14-15zm-328 12h79l10 6h-99v-1l10-5zm-173 1q6 4 5 16h-1l-4-16zm265 5q15-2 21 6h-11l-10-6zm936 0l4 2v11l-3-1-26 32-1-4q19-14 26-40zm-703 3l20 21-22-19 2-2zm-103 1l38 38v1l-38-34v-5zm-106 2h17l29 12h13l11 6 25 6 22 12h-5l-47-18h-13l-29-12h-13l-10-6zm946 1v12l-11 22-1-5 12-29zm-1229 6l11 28h-1l-11-22 1-6zm528 3l24 27-1 2-21-20-2-9zm-12 11l26 27 3 8-30-29-1-3 2-3zm683 10v18l-5 10-1-17 6-11zm-796 5l33 12v-2l-2-3 3-2 5 4-8 9-3-1-1-3-27-14zm814 1v6l-5 7h-2l7-13zm42 1v5l-5 8-1-2 6-11zm-98 4l4 1-33 27-39 14v-1l35-14 33-27zm-1143 2l10 24-22 24-1-2 16-19 2-11-7-13 2-3zm721 3l1 2-26 26 25-28zm16 7l2 1-26 24-3-1 27-24zm498 2v5l-5 10-1-4 6-11zm-48 2l-1 4-13 15h-2l-2-5 6-11 1 5 11-8zm-629 6l17 20 1 1-1 2q-15-7-17-23zm671 9v6l-11 20v-3l11-23zm-683 2l2 3-4-1 2-2zm144 2l2 2-32 32-8 3 35-36 3-1zm-138 4l20 21 3 8-21-20-2-6h-2l2-3zm155 0l-7 10-2-1 9-9zm354 3l11 1-28 11h-11v-1l28-11zm-245 11l-4 7-2 3-1-3 4-5 3-2zm-583 1l23 1q-10 9-33 5v-1l10-5zm42 0l6 4-1 2-4 2-1-8zm744 0l11 1q-6 7-21 5v-1l10-5zm-1038 3l-1 4-4 7-1-2 6-9zm607 1l11 14 1 1-1 2q-10-5-11-17zm-391 2l11 1q-6 7-21 5v-1l10-5zm786 0l17 1q-8 8-27 5v-1l10-5zm-816 6l11 1-53 20-21 21q-7 9-3 31l6 8 6 3 41 1q-11 9-35 5l-18-9q-8-9-6-27 8-22 26-34l46-20zm100 0l4 1-20 14-39 39 1 1-10 5v1l-5-1 49-46 20-14zm547 0q13-1 18 6h-11l-7-6zm127 0l23 1-5 3v2h-29l11-6zm-270 6l2 1-20 18-3-1 21-18zm537 0l-2 3-1-2 3-1zm-1239 3l-1 4-4 9-2-2 7-11zm613 0l2 3-4-1 2-2zm6 6l6 10-1 3-7-10 2-3zm24 7l6 8h-5l-1-8zm552 2l7 6v1l-13-1 5-3 1-3zm-1207 7v5l-5 10-1-4 6-11zm1218 1l19 18-1 1-18-19zm-575 1l5 5-5 7-23 9v-1l20-11 1-3h1l-1-4 2-2zm546 2l-4 7-1 2-2-2 4-5 3-2zm72 4l12 17-1 2-11-16h-2l2-3zm-72 10l6 13h-1l-7-8 2-5zm-1195 2v6l-5 8-1-5 6-9zm619 3l4 1-27 11v-1l23-11zm35 0l5 1q-4 6-15 5v-1l10-5zm31 4l6 9-1 2-5-11zm-49 2l5 1-39 17v-1l34-17zm31 1q8 8 5 28h-1q-8-9-4-28zm-425 4v2l-36 17v-1l36-18zm965 5l18 22-1 2-19-22 2-2zm-630 2l4 1-12 6-3-1 11-6zm617 0l3 1-32 17h-7l-23 12h-11v-1l40-17h7l23-12zm97 3l5 14h-1l-6-12 2-2zm-91 4v6l-5 10-1-5 6-11zm-497 3l30 33-1 2-27-26-2-9zm-714 2l5 3v36l-6-8 1-31zm593 0l5 1-11 6-3-1 9-6zm-35 5l2 2-10 6-3-1 10-5 1-2zm750 2l5 15h-1l-4-15zm35 4v2h-1l1-2zm-138 2v6q-7 24-24 38l-29 15h-11v-1l35-14 14-14 15-30zm37 0q16 18 23 46h-1l-16-32-2 1-4-10h-2l2-5zm-558 2l5 14h-1l-4-14zm-144 2l2 2-10 6-3-1 11-7zm25 0l2 2-11 6 1-4 8-4zm562 1l5 1-15 5v-1l10-5zm-30 6l17 1q-8 8-27 5v-1l10-5zm-389 2l5 15h-1l-4-15zm606 1q7 5 5 20h-1q-8-6-4-20zm-792 2l2 2-10 6-3-1 10-5 1-2zm23 1l2 1-8 5v1l-3-1 9-6zm490 0l37 1-10 5-25 2 6 7 5 3-4 1-11-8-2-7 4-4zm-345 1l5 16h-1q-7-5-4-16zm36 2l44 45-1 1-43-45-2 1 2-2zm-222 8l2 2-10 6-3-1 10-5 1-2zm25 0l2 2-10 6-3-1 11-7zm232 6l26 25h-2l-27-23 3-2zm-65 2l18 37-1 2-17-39zm24 1l11 22 1 1-1 2-13-22 2-3zm-234 3l2 2-16 11 8-9 5-2 1-2zm25 0l2 2-16 12-3-1 17-13zm543 0l42 19h-10l-33-17 1-2zm-1048 2q6 4 5 16h-1l-4-16zm626 1l7 6 2 9h-1l-4-8-1 2-2-4q-22 24-33 58l-1-5 24-46 3-1 4-10 2-1zm10 17l18 42-1 4-18-34 1-12zm677 0v18l-5 8-1-15 6-11zm-863 4l2 2-16 12-3-1 17-13zm23 1l2 1-14 11v1l-3-1 15-12zm259 2l6 12-4-1-4-8 2-3zm64 3l7 10-9-8 2-2zm-18 7q15 4 22 18l-2 1-20-19zm499 1v6l-5 10-1-5 6-11zm-1265 1l29 52 1 1-1 2-9-8-20-47zm443 1l-19 22-2-1 21-21zm259 0l6 11-1 2-5-10h-2l2-3zm-288 2l2 2-16 11 11-12 3-1zm383 0l1 2 19 17h-2l-21-17 3-2zm-65 5l6 10-4-1-2-9zm563 4v5l-5 10-1-4 6-11zm-48 5v6l-5 7-1-2 6-11zm-533 2l5 11-3-2-2-6h-2l2-3zm78 0l8 9-1 1-7-10zm-48 7l5 8 1 1-1 2-5-11zm-360 1l2 2-16 11 8-9 5-2 1-2zm125 1l6 4-1 2-3 2-1 3-1-11zm72 1v12l-5 10-1-11 6-11zm708 1v5l-23 44-2-2 2-1 23-46zm-642 2l4 4 3 5-1 4-6-13zm186 1l1 2 13 11h-2l-15-11 3-2zm-25 1q15 4 22 18l-2 1-1-2-19-17zm-299 7v12l-5 10-1-11 6-11zm223 2q13 7 17 23l-15-14-4-7 2-2zm515 1l1 1-4 7h-3l6-8zm-852 5l1 2-28 25 27-27zm264 1l4 4 15 23-1 4-18-31zm103 0l12 15-1 2q-10-5-11-17zm-408 1l2 2-16 12-3-1 16-11 1-2zm126 0l1 2-11 11-4 1-1-1 5-7 9-4 1-2zm376 0l7 10-9-8 2-2zm-281 2v58h-1l-5-10v-37l6-11zm294 10l16 13-2 1-17-12 3-2zm-25 1l16 12-2 1-14-13zm-341 1v6l-5 10-1-5 6-11zm-173 4l2 2-10 5 5-6 3-1zm126 0l4 2-32 29-14 29-1-5q6-23 21-35v-2l21-16 1-2zm321 1l9 8-1 1-8-9zm-21 3l2 3-4-1 2-2zm-391 6l1 3-12 14-1-2 12-15zm397 0q13 7 17 23l-15-14-2-6h-2l2-3zm-449 2l1 2-8 8-20 10-3-1 30-19zm580 0l1 2 15 11-2 1-17-12 3-2zm-396 2v6l-29 55h-2l31-61zm187 1l12 23-1 4-13-24 2-3zm575 0l1 3-12 16-2-2 2-1 11-16zm-1194 3l1 2 15 11-2 1-17-12 3-2zm733 5l11 14 1 1-1 2q-10-5-11-17zm82 2l16 12-2 1-14-13zm37 5l1 2 15 11-2 1-17-12 3-2zm-570 4l-1 4-10 15-2-2 13-17zm-246 8l11 7h-5l-9-5 3-2zm475 2l5 16h-1l-4-16zm216 2l8 9-10-7 2-2zm149 2l1 2 9 5-2 1-11-6 3-2zm-826 1l14 6h-4l-10-6zm131 0l4 1-14 5v-1l10-5zm664 0l16 12-2 1-1-2-13-11zm-208 1q7 5 5 20l-3-2-2-18zm120 3l11 14 1 1-1 2q-10-5-11-17zm-687 2l12 6h-4l-8-6zm90 0l7 1-15 5v-1l8-5zm104 3l1 3-2 1-22 45-1-4 24-45zm475 0q13 7 17 23l-15-14-2-6h-2l2-3zm155 2l1 2 21 11-2 1-23-12 3-2zm259 0l2 2-10 5 2-3 5-2 1-2zm-1059 1l47 1-8 5h-31l-8-6zm423 1l12 19h-1l-7-4-4-15zm352 4l16 13-2 1-1-2-16-10 3-2zm-227 10v16l-9 17-3 1 3-6q5-6 3-19l6-9zm-250 8v2l-19 11h-6l-11-5 3-2 20 1 13-7zm501 0l16 13-2 1-1-2-16-10 3-2zm224 0l2 2-13 5v-1l11-6zm-179 1l27 12h-5l-22-12zm-175 3l2 3-4-1 2-2zm24 1l24 27-1 2-21-20-2-9zm-18 5l11 17-12-11-1-3 2-3zm199 3l15 6h-5l-10-6zm118 0l5 1-15 5v-1l10-5zm-535 5l24 13h-5l-20-11 1-2zm366 0l10 7-3-1-10-4 3-2zm69 1q16-3 21 6h-11l-10-6zm74 0l13 1q-6 7-21 5v-1l8-5zm-482 12l39 1q-9 8-29 5l-10-6zm357 0l10 6-3-1-7-5zm-148 3l2 3-4-1 2-2zm27 3l9 8-1 1-8-9zm-580 1v6l-5 10-1-5 6-11zm559 2l6 11-1 2-7-10 2-3zm172 8l58 31-3-1-58-28 3-2zm-160 10l6 11-1 2-5-10h-2l2-3zm-577 6v18l-5 8-1-17 6-9zm715 1l15 8 2 3-3-3-3 1 8 11-2 1v-2l-16-10-4-6 1-2 1 1 1-2zm91 20l27 12h-4l-23-12zm-211 3l5 14h-1l-6-11 2-3zm166 14l9 7-2 1v-2l-10-4 3-2zm87 1l15 6h-7l-8-6zm-69 11l9 7-2 1v-2l-10-4 3-2zm100 1l12 6h-2l-10-6zm-272 1q7 6 5 21h-1q-7-7-4-21zm290 5l12 6h-2l-10-6zm-219 5l1 2 19 17h-2l-21-17 3-2zm119 0l9 7-2 1v-2l-10-4 3-2zm118 1l12 6h-2l-10-6zm23 6l13 6h-3l-10-6zm-943 2q8 9 5 31l-3-2q-7-10-2-29zm820 3l9 7-2 1v-2l-10-4 3-2zm142 1l12 6h-2l-10-6zm-344 1q7 6 5 21h-1q-7-7-4-21zm367 5l13 6h-3l-10-6zm-273 5l17 13-2 1-17-12 2-2zm292 1l13 7-1-1-12-6zm-154 5l9 7h-1l-11-5 3-2zm-113 12l1 2 7 5h-2l-9-5 3-2zm-731 3l5 13-3-2-2-11zm1013 0v5l-17 32-2-2 19-35zm-265 9l9 7h-2l-9-5 2-2zm229 4l1 2-4 1 3-3zm-63 9l14 6h-4l-10-6zm-908 1l11 26-3-2-8-24zm767 4l1 2 9 5 2 3 16 9-2 1q-19-5-29-18l3-2zm170 7l12 6h-2l-10-6zm-326 2v11l-5 8-1-8 6-11zm372 6l1 3-6 12-1-4 6-11zm-180 9l22 13-2 1-23-12 3-2zm-791 3l12 23-1 2-11-25zm965 5v6l-5 8-1-3 6-11zm-372 1v5l-5 10-1-4 6-11zm239 15l71 37h-4l-69-35 2-2zm-245 3v5l-5 10-1-4 6-11zm372 5v18l-5 8-1-17 6-9zm-941 1l6 11-1 2-7-10 2-3zm551 30l1 3-6 10-2-2 7-11zm-320 4h5l17 18h-2l-20-18zm670 0l14 6h-4l-10-6zm-684 5l-1 4-8 4-3-1 12-7zm704 1l11 1-7 5-4-6zm-881 5l9 7h-2l-9-5 2-2zm502 1l-8 9-1-2 9-7zm-344 5l2 2-25 11v-1l22-10 1-2zm-140 6l11 7h-4l-9-5 2-2zm17 7l12 6h-4l-8-6zm90 0l7 1-15 5v-1l8-5zm110 5l1 2 7 5h-2l-9-5 3-2zm-182 1l53 1-8 5h-37l-8-6zm199 11l11 7-3 1-10-6 2-2zm212 0l2 2-9 6-4-1 11-7zm-194 12l35 19h-4l-33-17 2-2zm177 0l-1 4-8 4-3-1 12-7zm-25 13l4 1-14 5v-1l10-5zm-111 6l13 6h-5l-8-6zm92 0l3 1-13 5v-1l10-5zm-68 6l47 1-8 5h-31l-8-6z"/></g><path d="M648 102q24-5 33 6h-41l2-3 6-3zm-30 6l5 1-13 5 2-3 6-3zm80 0l15 6h-5l-10-6zm36 12l26 12-2 1-24-13zm-92 12l2 1-12 5v-1l10-5zm41 0q13-1 18 6h-10l-8-6zm-118 5l4 2-12 5 2-3 5-2 1-2zm53 1l2 1-20 11v1l-5-1 23-12zm89 0l12 6h-4l-8-6zm73 5l1 2 9 5-2 1-13-6 5-2zm-57 1l50 24h-4l-46-24zm201 0l11 1q-6 7-21 5v-1l10-5zm56 0l15 6h-5l-10-6zm-80 6l5 1-13 5 2-3 6-3zm104 0l15 6h-5l-10-6zm-122 6l5 1-13 5 2-3 6-3zm140 0l38 18-2 1-36-19zm-438 5l1 2-37 37-25 45-1-5 18-35 1 2 11-20 1 2 5-8 1 2 8-9h-2l8-5-2-1 13-7zm219 1l9 6h-2l-7-6zm-206 6l3 7-3 4-3 1-6-3 9-9zm182 6l24 18-2 1 20 17-2 1 4 5h-1l-19-14-24-28zm139 0l4 1-14 5v-1l10-5zm69 0l14 6h-4l-10-6zm-160 6l9 1-6 4-3-5zm73 0l2 1-12 5v-1l10-5zm174 5l1 2 14 12 3 5 1 1-1 4-17-20-6-2 5-2zm-192 1l4 1-40 20-5 6-13 3v-1l2-3 52-26zm143 0l12 6h-4l-8-6zm18 12l12 6h-4l-8-6zm-533 2l1 3-18 36-1-4 18-35zm565 23l17 39h-1l-16-39zm-583 20v4l-5 10-1-5 6-9zm30 4v6l-5 10-1-5 6-11zm595 0l5 16h-1l-4-16zm-601 18v18l-5 10-1-17 6-11zm577 0l5 15h-1l-4-15zm-607 2v10l-5 10-1-11 6-9zm637 0l5 14h-1l-4-14zm-580 15l3 3-2 3-4-2 3-4zm556 25q10 8 5 32l-5 8v-40zm-588 30q8 8 5 28h-1q-8-9-4-28zm-30 12l5 14-3-2-2-12zm329 11l15 12 3 11h-1l-10-14-7-3-5 4-1 19-6-17 6-9 6-3zm-293 7l21 40 18 6q3-6 15-5l21 11 1-2-3-7 5-2 9 5 12-11 8 6q13-3 17 4l3 7 60 59 35 23 43 37 14 8 4 4 5 2 4-3 1-15-6-11v-73l-6-11h2l8 4 2-4 1-24q9 11 5 36l-1-1-3 2-2 22 6 3v6l-5-3-1 13 4 5h2l1-11q10 8 5 32l-6 9v49l-6 11v33l-6 9v13l-20 58-14-12-5-11-31-31-5-11-122-123-1 2-15-23-14-15-1 2-9-17-25-31-20-38-5-26zm50 60l-2 3 3 1 1-2-2-2zm12 0l-2 3 3 1 1-2-2-2zm-26 11l-1 3 18 15v-2l-17-16zm575-71v6l-5 8-1-3 6-11zm-30 1v5l-5 10-1-4 6-11zm-611 5l5 16h-1l-4-16zm551 11q13-3 17 4l1 3-5 8-12 6 1 1 17 2 4 4 1 15-6 17h3l9-8v3l-5 10-1-2-5 8-1-2q-17 11-23 32l-1-2-18 17v-2l-5 4-1 2 2 1q-14 10-19 28l-1-2-8 9 1 1-8 5-2 5-1-2-11 7-8 12-11 4q0 10-7 14l-11 4-1 8-10 6-3 7-35 35-11 5-41 39-1-2 6-9v-13l12-35v-31l6-11 1-118 5 3q-2-13 4-18l2 2v77l4 4 3 1 27-25 5-11 25-25 5-11 51-57q9-7 31-3l29-24zm-14 96l-10 12h3l9-11-2-1zm-140 66l-2 5 5 1 1-4-4-2zm-55-161l5 16h-1l-4-16zm263 3v3l-5 10-1-4 6-9zm-599 3l5 16h-1l-4-16zm312 0q7 6 5 22h-1q-7-7-4-22zm-523 11l5 1-15 5v-1l10-5zm50 0q14-2 19 6h-9l-10-6zm784 1v5l-23 46-2-2 25-49zm-281 2l16 7 1 39-5 10-7-16v-15l4 2h2q2-13-3-18l-3 1v10q-9-5-5-20zm-467 3l13 6h-3l-10-6zm433 1l1 1 2 17-2 4h-2l-2-17 3-5zm-561 5l5 1-24 12-3-1 22-12zm146 0l15 6h-5l-10-6zm-86 12h33l9 6h21l9 6 25 6 11 9 29 11 48 34-2 1 69 68 1-2 14 24 39 38 1-2 17 21 3 9 61 61 8 16h-2l-33-18h-7l-29-12h-13l-11-6h-15l-9-6h-13l-11-6h-33l-9-6h-67l-9 6h-33l-11 6-25 6-15 12-3 11 43 1 11-6h37l11-6h49l12 6 9-5 8 5h19l11 6h19q6 8 24 6l11 6 43 12 41 19-1 3-47 23-11 9-2-4q-10-9-29-9l-1-11-5 2-1 16-71-1-1-11-23 2-1 10-113-1 9-10 8 5 3-16 22-25-3-1-46 43-2-1 39-39 24-17 3-4 3-1-1-3-4-2h-43l-11 6h-25l-11 6h-19q-5 7-18 6-30 9-46 32-9 8-8 27l-5-8q10-27 29-43l-3-2-22 22-23 4-1 10-23 1-3 5-3-1 4-5h2l-2-6-27 18h-13l-10-6-3 18-5-1v-17q7-5 6-18l26-40 13-13 9-18v-13l-36-77q3-17-6-22v-41q9-6 6-24l14-26 26-32q12-2 17-11l-2-1 39-18h11l-3 4 1 2h59l-1-4-46-2 11-6zm-36 12l-6 4 1 2 10-2 1-3-6-1zm97 0l-1 3 6 3 5-2v-1l-10-3zm-111 6l-4 6h3l3-5-2-1zm135 0l1 5 3 1 1-2-5-4zm-147 6l-4 6h3l3-5-2-1zm159 0l-1 3 6 3v-2l-5-4zm-121 6q-7 8-24 6l-16 8-30 30-8 16v55l14 22 12 11 16 8h10l8 6h151l35 12h13l29 12h13l47 18h7l28 14 1 3 3 1 8-9-13-7-2-2-38-38-8-14-28-28q-18-31-45-51l-4-9-42-32-46-20q-14 1-18-6h-37q-11-10-36-6zm-68 18l-4 6h3l3-5-2-1zm40 144l-2 5 5 1 1-4-4-2zm0 90l-2 11 5 1 1-10-4-2zm168-282l14 6-2 1-12-7zm24 12l14 6-2 1-12-7zm790 0h37l8 6h-53l2-3 6-3zm-713 4l6 10-1 2-5-12zm671 2l11 1q-5 7-19 5l2-3 6-3zm110 0l13 6h-3l-10-6zm-128 6l5 1-13 5 2-3 6-3zm146 0l26 12-2 1-24-13zm-843 6l9 6h-2l-7-6zm56 4l6 10-1 2-5-12zm557 0v2l-5 10-2-2 7-10zm120 8l2 1-12 5v-1l10-5zm83 0l12 6h-4l-8-6zm-107 6l4 1-10 6-5-1 11-6zm125 0q35 10 53 38l2 6-30-30-25-14zm48 0l16 13 3 7-6-4v1l-13-17zm-851 5l1 2 7 5h-2l-11-5 5-2zm564 2l1 5-2 1-4 7-1-2 6-11zm-906 1l1 3-6 12-1-4 6-11zm385 2l5 10-3-2-2-8zm558 1l4 2-12 5 2-3 5-2 1-2zm61 0l-2 5 1 2q4-7 18-6 6 8 24 6l46 21v1l-57 22-54 36-31 31-11 5-94 94v1l-27 21-1 7 12 7 116 1-2 5h23l1-4v-2l2-4 29-2 11-6h19l11-6h13l11-6 43-12q32-14 53-38l27-34 3 2v23l-6 11q3 21-6 31l3 4 13-12 8-15 4-3q2-22 14-34v12l-6 11-6 25-15 23-21 47v2l-1 3-22 12-1 3 12 19 1 1q5 19 21 28l-13-13-3 1-23 49v-3q14-20 17-51l-6-2-53 24-41 12v-1q19-13 47-17l44-23 2-6q-19 2-26-7l-13 6-2-4 13-5 22-18 7-19-12-2-35 18q-14-1-18 6h-13l-11 6h-19l-11 6h-91l-16 6-2-2 6-8-3-2-9 7-1 3-11 2-6-3v-3H942l-11-6h-57q-6-8-22-6l8-10 11-5 37-37 11-5 86-86 7-13 9-3 26-26 9-18 1 2 38-39h-2l49-34 24-9zM968 672l-2 5 5 1 1-4-4-2zm12 0l-2 4 11 8 1-3-10-9zm324 30l-2 5 5 1 1-4-4-2zm-236 72l-4 2-2 4h18v-2l-12-4zm313-274l5 12-4-3-3-6 2-3zm-810 14l11 16-9-8-2-8zm473 0v2l-23 26-1-2 18-23 1 2 5-5zm-894 5v4l-5 10-1-5 6-9zm913 3l1 1-7 10-1-2-12 11 13-17 6-3zm306 1l5 13-3-2-2-11zm24 2l5 14h-1l-4-14zm-18 16l5 13-3-2-2-11zm24 2l5 14h-1l-4-14zm-816 13l17 20 1 1-1 4-17-25zm798 3q8 8 5 28h-1q-8-9-4-28zm-738 30l17 25-15-14-2-6h-2l2-5zm-498 18l5 14-3-2-2-12zm1241 2v18l-5 8-1-17 6-9zm-743 13l23 28-22-21-1-7zm-492 3l5 14-3-2-2-12zm12 30l6 13-1 2-5-15zm540 3l5 10-3-2-2-8zm185 14l2 1-33 29 4-6h-2l29-24zm-708 17v2h-1l1-2zm1218 2v6l-5 10-1-5 6-11zm-683 9l5 8 1 1-1 4-5-13zm168 2l1 1-15 11 8-9 6-3zm-138 1l5 13-3-2-2-6h-2l2-5zm635 27v2l-5 8-1-2 6-8zm-611 3l5 13-3-2-2-6h-2l2-5zm-18 9l5 10-4-3-1-7zm617 6v6l18 20 1 1-1 4-23-27 5-4zm-1236 4l1 3-6 12-1-4 6-11zm666 4l2 1-12 5v-1l10-5zm25 0l1 1-21 17 14-15 6-3zm513 0l8 3 1-2 17 25-18-18-4-1-4-7zm-586 24l5 1-15 5v-1l10-5zm30 6l6 3v8l-3-5h-12l9-6zm589 1l5 13-3-2-2-11zm30 1l5 15h-1l-6-12 2-3zm-1279 1v4l-5 10-1-5 6-9zm253 2l1 2-9 9-40 20h-11v-1l17-5 31-17 1-2 9-4 1-2zm347 1l5 1-27 11v-1l22-11zm42 0l5 1-15 5v-1l10-5zm49 4l5 10-3-2-2-8zm433 2l4 1-1 5-5-1 2-5zm-979 1l5 13-4-3-1-10zm355 5l4 1-3 5h-3l2-6zm239 0l5 2v4l-6-3 1-3zm28 0q11 8 31 8l-1 4-29 1-1 11-11-9 2-3h10l-1-12zm337 0l12 1-1 5h-17l2-4 4-2zm-538 5l2 2-22 11v1l-5-1 25-13zm-532 1l2 1 2 23 4-1 2-17 4 2-1 22q-11 0-15-7l-2-17 4-6zm274 0l4 2-1 4-5-1 2-5zm24 0l4 2-1 4-5-1 2-5zm24 0l4 2-1 4-5-1 2-5zm24 0l4 2-1 4-5-1 2-5zm24 0l4 2-1 4-5-1 2-5zm24 0l4 2-1 4-5-1 2-5zm173 0l4 1-48 24-3-1 47-24zm473 0l18 2-1 4h-23l2-4 4-2zm-407 1l5 16h-1l-4-16zm594 0l5 13-3-2-2-11zm30 0l5 16h-1l-4-16zm-1136 5l12 6h-5l-7-6zm327 0l4 1-3 5h-3l2-6zm743 8l5 10 1 1-5-2-3-6 2-3zm-689 3l2 2-11 5 3-4 6-3zm104 1l2 2-1 10h-11l10-12zm627 1l5 15h-1l-4-15zm-594 6l5 16h-1l-4-16zm-155 4l2 2-10 5v1l-5-1 13-7zm544 1l23 1q-10 9-33 5v-1l10-5zm175 3l17 33v17h-1q-7-7-5-23l-13-25 2-2zm-504 1l19 20-17-12-2-8zm287 2l3 1-3 6 8 9 14 8 4 4 15 8h-5l-40-25-2-5 4-5 2-1zm-305 4l43 44-6-2-36-35-1-7zm-215 1l2 2-10 5v1l-5-1 13-7zm29 0l4 2-12 6-3-1 10-5 1-2zm174 2l6 13-1 2-5-15zm570 0q10 11 5 38l-5 8v-46zm-594 2l5 14h-1l-4-14zm624 0q10 9 5 34l-5 10v-44zm-729 3l2 1-9 11-3-1 10-11zm-92 5l2 2-10 5v1l-5-1 13-7zm29 1l1 1-9 6-3-1 11-6zm-516 1l5 14-3-2-2-12zm629 5l6 2 6 16v11h-1l-5-17-7-10h-2l3-2zm-6 4v3l-5 8-1-2 6-9zm547 1l-2 5-21 8v-1l23-12zm-678 7l1 1-9 5 2-3 6-3zm234 1l6 13-1 2-5-10h-2l2-5zm-271 5l2 1-9 5 3-4 4-2zm632 0l51 1-10 5h-31l-10-6zm-1081 1l5 13-3-2-2-11zm605 3l-1 4-22 51-1-11 24-44zm185 8l18 12-4 1-1-2-13-11zm-154 1l14 30 40 61-1 2-23-36h-2l-10-18h-2l-17-33 1-6zm617 0v24l-5 10-1-23 6-11zm-551 1l5 10 1 1-5-2-3-6 2-3zm-275 3l2 2-11 5 3-4 6-3zm29 0l4 2-30 23 20-21 5-2 1-2zm815 8v6l-5 10-1-5 6-11zm-557 7l5 10 1 1-1 4-7-12 2-3zm76 4l15 12h-2l-13-12zm-395 6l2 1-8 5v1l-5-1 11-6zm120 0l6 2v7l-6-3-30 24v1l-2-1 28-28 4-2zm317 6l12 6-4 1-1-2-7-5zm-76 1l5 13-3-2-2-6h-2l2-5zm-235 4v2l-5 10-1-5 4-6 2-1zm726 2l1 11 2 1-3 5 2 1-7 5-1-12 6-11zm-666 6v12l-5 10-1-11 6-11zm-216 5l2 1-8 5v1l-5-1 11-6zm-329 1l5 13-3-2-2-6h-2l2-5zm365 3v3l-23 28-1-2-6 5 30-34zm432 1l1 2 7 5h-2l-11-5 5-2zm29 1l15 12h-1l-14-12zm-347 1v6l-5 10-1-5 6-11zm-40 4l-4 7v1l-10 5v1l-2-1 10-10 6-3zm305 5l5 5 1-2 5 13-9-8-2-8zm-437 1l2 2-11 5 3-4 6-3zm166 8v6l-5 10-1-5 6-11zm762 0l1 5-2 1-4 9-2-2 7-13zm-509 3l5 8 1 1-1 4-5-13zm130 1l12 7-4 1-1-2-10-4 3-2zm-30 1l9 6h-2l-7-6zm-798 6l12 6-4 1-1-2-7-5zm375 5l1 2-7 7-13 27-1-5 16-29 4-2zm64 2v6l-26 52-11 11-21 8v-1l18-10 1-2 7-5 2-4 4-3 26-52zm193 3l17 37h-1l-18-35 2-2zm220 1l12 7-4 1-1-2-10-4 3-2zm337 2l1 5-2 1-23 26-6 3v1l-5-1 32-29 3-6zm-1165 4l36 19h-5l-34-17 3-2zm201 0l2 2-38 17v-1l36-18zm287 2l5 16h-1l-4-16zm240 0l5 13-3-2-2-6h-2l2-5zm82 5l9 6h-2l-7-6zm42 5l12 7-4 1-1-2-10-4 3-2zm-142 5l11 14 1 1-1 4-5-8-6-2 2-1-2-8zm-216 3l5 16h-1l-4-16zm-241 1l1 3-6 12-2-4 2-1 5-10zm617 3l12 7-4 1-1-2-10-4 3-2zm-731 1l3 1-13 5v-1l10-5zm192 1v25l7 8 3 2-2 1-8-2-6-23 6-11zm510 4l1 2 9 5-2 1-13-6 5-2zm-89 2l5 13-3-2-2-6h-2l2-5zm148 10l24 13h-4l-23-11 3-2zm217 1l2 1-48 23v-1l46-23zm-611 3l6 6 18 19 3 2 4 4 15 8h-5q-26-10-40-31l-3-6 2-2zm359 2l1 2 9 5-2 1-13-6 5-2zm-41 1l16 12-2 1 3 5h-2l-15-18zm-78 10l5 10-4-3-1-7zm193 2l15 6h-5l-10-6zm-314 1v6l-5 7-1-2 6-11zm264 4l1 2 9 5-2 1-13-6 5-2zm-41 1l10 6-2 1 9 11h-2l-15-18zm109 0l15 6h-5l-10-6zm106 0l5 1-15 5v-1l10-5zm-80 6q14-2 19 6h-11l-8-6zm56 0l3 1-13 5v-1l10-5zm-425 6l1 1q-4 14-24 11v-1l23-11zm-391 2v5l-5 10-1-4 6-11zm571 2l11 16-9-8-2-8zm-239 2l15 6h-5l-10-6zm317 0l40 24-2 1 8 5-2 1 7 5 5 6h-2l-53-37-1-5zm-102 4l5 10-4-3-1-7zm163 8l14 6-2 1-12-7zm-716 1v6l-5 10-1-5 6-11zm565 7l5 10 1 1-1 4-7-12 2-3zm12 18l23 51h-1l-24-48 2-3zm148 3l60 31h-4l-57-29 1-2zm-731 10v4l-5 10-1-5 6-9zm732 2l1 2 7 5-3-1-7-4 2-2zm68 1l15 6h-5l-10-6zm-51 11l11 7-2 1-10-6 1-2zm81 1l25 12h-3l-22-12zm-62 11l1 2 9 5-2 1-10-6 2-2zm92 1l14 6h-4l-10-6zm-39 6l24 12h-4l-20-12zm-35 5l1 2 9 5-2 1-10-6 2-2zm-115 1l12 6-4 1-1-2-7-5zm180 6l12 6h-4l-8-6zm-47 5l1 2 9 5-2 1-10-6 2-2zm63 1l26 12h-4l-22-12zm65 0l15 6h-5l-10-6zm-110 11l1 2 21 11-2 1-22-12 2-2zm152 1l15 6h-5l-10-6zm-51 6l12 6h-4l-8-6zm16 6l14 6h-4l-10-6zm-214 5l12 7-4 1-1-2-10-4 3-2zm234 1q13-1 18 6h-10l-8-6zm-96 5l47 25h-4l-44-23 1-2zm115 17v3l-11 19-1-1 12-21zm-971 3l5 16h-1l-4-16zm760 5l12 6-4 1-1-2-7-5zm159 6l27 12h-5l-22-12zm70 4v2l-5 10-2-2 7-10zm-211 1l12 7-4 1-10-6 2-2zm18 12l9 7h-1l-11-5 3-2zm181 8v6l-5 10-1-5 6-11zm-151 10l9 7h-1l-11-5 3-2zm-802 11l6 10-1 2-5-12zm947 3v6l-5 8-1-3 6-11zm-378 12v5l-11 22-2-2 13-25zm-557 3l5 10-3-2-2-8zm886 20l12 6h-4l-8-6zm-663 1l6 5h-9l1-2 2-3zm706 0v5l-3 6h-8l8-5 3-6zm-390 9v2l-11 14-1-2 6-11 1 2 5-5zm-340 7l2 2-10 5v1l-5-1 13-7zm-26 13l5 1-15 5v-1l10-5zm-18 6l3 1-13 5v-1l10-5zm107 0l12 6-4 1-1-2-7-5zm241 12l2 1-9 5 3-4 4-2zm-34 23l2 2-14 5v-1l12-6zm-118 13l13 6h-5l-8-6zm80 0l5 1-15 5v-1l10-5z" fill="#65e23b" stroke="#65e23b"/><g fill="#14833c" stroke="#14833c"><path d="M624 108l8 1-7 5-25 6-30 19-5-1 13-10 46-20zm65 0q13-1 18 6h-11l-7-6zm21 6h11l58 30-4 1-65-31zm-50 12l8 6h-15l3-4 4-2zm-36 6l17 1q-7 7-23 5l-25 13-1-1 32-18zm68 0h11l22 12h-5l-28-12zm-132 11v2q-25 15-33 47l-9 2-14 28v13l-12 17q2 16-5 23l-1-17 32-70q14-25 36-42l6-3zm168 1h11l25 18v1l-36-19zm208 0h43l10 6h-63v-1l10-5zm-151 5l9 7h-2l-8-5 1-2zm121 1l11 1-23 8-11 9h-19l-25 16-11 2-20-17 1-2 19 17 1 1 41-23h7l29-12zm86 0q15-2 21 6h-11l-10-6zm24 6l27 12h-5l-22-12zm-445 11l-2 5-6 2 3-4 5-3zm203 0l8 7v1l-13-6 5-2zm156 1h49l10 6h-69v-1l10-5zm125 5l18 13-4 1-15-12 1-2zm-149 1l11 1q-6 7-21 5v-1l10-5zm86 0h11l25 12v1l-26-7-10-6zm-434 4v3l-5 7v-3l5-7zm330 2l5 1-63 29v-1l7-4 5-13h23l23-12zm-84 11l12 3 8 16h-2l-20-17 2-2zm234 0l8 7v1l-13-6 5-2zm-498 11l1 1-6 12-2-4 7-9zm516 1l16 15 3 5-1 4-17-20-6-2 5-2zm37 2q16 18 23 46h-1q-12-10-14-29l-10-12 2-5zm-565 15l1 1-6 12-1-5 6-8zm552 12l4 4 8 21h-1l-11-25zm-558 3v6l-11 22-1-5 12-23zm595 18l11 29v11h-1l-11-28 1-12zm-607 18v18l-5 10-1-17 6-11zm-24 6v78q9 8 6 28h-1q-7-7-5-23l-6-11v-61l6-11zm613 0q7 6 5 22h-1q-7-7-4-22zm-594 60q7 6 5 22h-1q-7-7-4-22zm599 18v6l-5 10-1-5 6-11zm24 3v9q-8 6-6 24l-17 34-1-5 12-23v-13l12-26zm-618 6l31 70h-1l-27-56-3 1v5l-6-1q-2-15 6-19zm300 2l6 4 12 31h-1l-14-29-8 1 5 16h-1l-5-17 4-5 2-1zm288 7v12l-20 46-9 9h-2l31-67zm-605 12l5 16h-1l-4-16zm318 12l5 16h-1l-4-16zm-523 5h43l10 6h-63v-1l10-5zm211 1l14 30 46 66-1 4-9-17-13-13-24-36-14-28 1-6zm330 0q7 6 5 22h-1q-7-7-4-22zm-571 5l17 1-10 5h-13l-16 6v-1l22-11zm101 0h8l28 12h-11q-5-7-18-6l-7-6zm910 0l3 3-2-2-7 5-2-3 3 2 5-5zm-963 12q16-2 23 6h-33v-1l10-5zm92 0q62 20 105 60l-4 1-18-16-60-33-11-2-12-10zm419 1q7 6 5 22h-1q-7-7-4-22zm-593 4v2l-14 8-39 39-15 30v19q-7 4-6 18l6 10-11 3-1-20q8-7 6-24l20-40 36-36 18-9zm46 1l11 1-59 26-33 33-20 47-1-11q15-45 50-70l52-26zm74 0q19-3 27 6h-17l-10-6zm491 1q7 6 5 22h-1q-7-7-4-22zm-609 5l2 1-3 11h-3l4-12zm148 0l15 6h-5l-10-6zm724 4l1 1-30 48-2-4 31-45zm-706 2l48 24v1l-48-25zm155 4l6 10h-1l-7-8 2-2zm653 2l14 1-19 11h-25q-5 7-18 6l-42 25-5-1 53-30q13 1 18-6h13l11-6zm83 0h14l28 12h-11q-7-8-24-6l-7-6zm-221 4l-1 4-4 6h-2l7-10zm-503 12l18 22h-1l-19-20 2-2zm778 1l9 7h-2l-8-5 1-2zm-113 1h49l7 6h-63l3-4 4-2zm-774 5l8 7v1l-10-6 2-2zm744 1l11 1q-6 7-21 5v-1l10-5zm98 0h11l31 18v1l-42-19zm-469 1l5 11v55l-5 10v-76zm18 0l5 11v91l-5 10V469zm203 3l-1 4-10 12h-2l13-16zm132 2l5 1-15 5v-1l10-5zm-708 5l12 3 8 17-1-1-21-17 2-2zm690 1l5 1-24 12-1-1 20-12zm-649 5l71 69 3 6h-1l-73-75zm553 5l1 1-24 27v-3l23-25zm307 0l23 32 12 44-4-3q-10-9-8-29l-15-30-9-1-1-11 2-2zm-269 1v2l-21 17 15-16 6-3zm-511 5l18 22h-1l-19-20 2-2zm540 1l-2 5-6 3-1-1 9-7zm-115 11l-1 4-22 24-1-2 24-26zm97 1l1 2-15 15-6 3-1-1 21-19zm251 5l4 4 3 5-1 4-6-13zm-780 12l58 58 3 5-1 4-58-60-2-7zm474 6l-1 4-144 146-6 2 151-152zm318 0l4 4 8 22v11h-1l-11-37zm-1206 3v58h-1l-5-10v-37l6-11zm852 3l1 1-60 63-1-2 60-62zm-36 2l2 1-14 13 8-12 4-2zm90 4l1 1-4 7-4 1-1-1 8-8zm-110 14l4 1-8 7v-1l4-7zm-412 4l22 22 3 5-1 1-22-21-2-7zm504 0l1 1-134 137-6 3-1-1 140-140zm-234 9v18l-5 10-1-17 6-11zm583 0q8 9 5 31l-4-3-1-28zm-437 5l4 2-3 4-3-1 2-5zm-367 1l42 49h-1l-43-44 2-5zm786 6l5 11v43l-5 10v-64zm-1242 9l5 8v13l6 11 6 25 18 40h-1l-23-46v-7l-12-29 1-15zm695 3v12l-5 10-1-11 6-11zm-155 3l7 8-8-1-1-5 2-2zm241 1v2l-8 7v-1l2-5 6-3zm-757 2l5 16h-1l-4-16zm785 5l2 1-69 66-1-1 68-66zm-138 1v12l-5 10-1-11 6-11zm-156 3l34 34 2 6-34-33-2-7zm37 0l36 40h-1l-34-33-1-7zm-522 9l5 16h-1l-4-16zm659 0v18l-6 11q2 16-5 23l-1-17 6-11q-2-17 6-24zm-228 3l40 40 2 6-40-39-2-7zm-425 15l6 13h-1q-8-3-5-13zm629 0v6l-5 10-1-5 6-11zm600 9v15l-17 40-1-5 12-29v-13l6-8zm-532 1v2l-14 13v-1l8-11 6-3zm508 2v12l-11 22-1-5 12-29zm-582 6v12l-5 10-1-11 6-11zm-131 3l42 46h-1l-18-9-3-11-19-19-1-7zm-480 3l11 25-2-2-10-1 1-22zm515 3l34 34 3 5-1 4-36-43zm37 0l18 22h-1l-19-20 2-2zm109 7v2l-42 41-2-12 6-11 1 11 37-31zm-201 1l11 8 3 5-1 1-13-14zm169 1v6l-5 10-1-5 6-11zm-680 5l2 4-3 2 2-3-1-3zm656 1v12q-8 7-7 23-11 0-15-7l-3-5 2-2 7 7 7-4 9-24zm-372 5l29 1q-12 10-39 5v-1l10-5zm80 0q23-4 33 6h-23l-10-6zm-312 6l4 2-1 4-5-1 2-5zm202 0l17 1-10 5h-13l-16 6v-1l22-11zm152 0q15-2 21 6h-11l-10-6zm311 5l1 2-19 19-1-2 14-16 5-3zm-281 1q15-2 21 6h-11l-10-6zm-392 6l6 1-9 11-3-1 4-10 2-1zm180 0l5 1-11 8 1 3h-5l-2-2 12-10zm48 0l35 1-10 5h-35v-1l10-5zm80 0h35l10 6h-35l-10-6zm108 0l15 6h-5l-10-6zm790 1v6l-27 41-2 1v1l-1-2 30-47zm-1224 3v13l-15 7-27 48v13l-11 28 5 7v53h-1l-5-10v-61q8-7 6-24l20-40 28-34zm30 0l1 1-24 33v-3l23-31zm1164 0l-1 4-17 34v12 2l-6-8 24-44zm-978 2l17 1q-8 8-27 5v-1l10-5zm164 0q15-2 21 6h-11l-10-6zm72 0h11l52 24h-5l-58-24zm101 1l30 37h-1l-31-32 2-5zm29 3l18 10 1 11-1 4-18-25zm122 1v2l-27 27-6 2 27-28 6-3zm-294 1h11l28 12h-11l-28-12zm317 5l1 2-27 27-6 3-1-1 33-31zm-61 1l2 1-39 36-1-1 38-36zm-214 6l15 6h-5l-10-6zm102 0l9 9-1 2-10-8 2-3zm-84 6l70 26-3 9-3 2-3-1 3-8-35-16h-7l-22-12zm48 0l33 12v-2l-2-3 3-2 6 3-9 10-3-1-1-3-27-14zm88 10l10 10 2 6-10-9-2-7zm-606 6l1 1-6 9v-3l5-7zm1134 2l6 2-5 6-1-2-34 12v-1l34-17zm-449 5l-4 7-3 10 2 2-8-1q0-11 8-15l5-3zm-90 2l5 13-2 1-2-4-3-5 2-5zm528 10l-2 5-45 20v-1l47-24zm-31 1l5 1-15 5v-1l10-5zm-1104 1v6l-5 10-1-5 6-11zm536 4v2l-20 12 2-5 18-9zm114 0v2l-2 6 30 43-16-15-20-29 4-6 4-1zm-44 1l2 1-12 5v-1l10-5zm104 0q15-2 21 6h-11l-10-6zm370 0l11 1q-6 7-21 5v-1l10-5zm151 1l12 19h-1l-13-14 2-5zm-25 3l4 4 3 5-1 4-6-13zm-618 2l5 1-27 11v-1l22-11zm158 0q27-5 39 6h-29l-10-6zm298 0l17 1q-8 8-27 5v-1l10-5zm-232 6h59l10 6h-59l-10-6zm166 0l47 1-5 3-1 2-5-1-1-3-10 4h-35v-1l10-5zm-984 1v18l-5 10-1-17 6-11zm512 4v2l-9 9-23 11-42 28 2-5 72-45zm52 1l5 1-48 24-1-1 44-24zm54 0l16 2 2 21h-1q-7-7-5-22-7 7-22 5v-1l10-5zm74 0q15-2 21 6l-17 1v1l-6-3 2-5zm394 0l5 1-15 5v-1l10-5zm138 4l4 4 14 22v17h-1l-17-43zm-624 2l5 1-89 44-12 10-5-1 13-10 88-44zm116 0q19-3 27 6h-17l-10-6zm340 0l17 1q-8 8-27 5v-1l10-5zm199 1l5 16h-1l-6-11 2-5zm-497 5q23-4 33 6h-23l-10-6zm268 0l17 1q-8 8-27 5v-1l10-5zm-530 6l2 2-1 4-5-1 4-5zm116 0l6 2v6l-6-2-5 3-2-2 5-6 2-1zm230 0l147 1-10 5h-127l-10-6zm-205 7q7 6 5 22h-1q-7-7-4-22zm624 0l11 23v8l-4-3-7-28zm-750 4l4 2-30 18-1-1 27-19zm89 5l1 1-28 43-32 65-1-5q23-59 60-104zm19 3q7 6 5 22h-1q-7-7-4-22zm108 3l7 8-1 1-7-2-1-5 2-2zm-58 2l16 20h-1l-11-8-1 4 19 33-1 4-24-50 3-3zm-111 6l6 2-11 24h-2l7-17-6-3-2 1 4-5 4-2zm85 1l5 18 30 55h1l6 12h-1l-9-14-8-3-1-9-24-47 1-12zm600 0q7 6 5 22h-1q-7-7-4-22zm-768 4l4 2-12 6-1-1 9-7zm268 0l27 25-3-1-25-22 1-2zm-748 2q9 10 5 34h-1q-9-11-4-34zm427 4v2l-14 12-2-1 10-10 6-3zm119 0l-2 5-66 45-1-1 52-40 17-9zm84 2l5 16h-1l-4-16zm-168 4l4 2-12 6-1-1 9-7zm180 7l5 2-3 10-3-1 1-11zm-239 5v2l-14 12-2-1 10-10 6-3zm41 0l4 2-48 36-1-1 45-37zm37 0v2l-9 5 3-4 6-3zm155 2l36 66-5-2-32-58 1-6zm-85 3l-1 4-22 45-1-5 24-44zm191 2l25 14 2 11-1-1-26-24zm-766 7l26 60 10 12-1 4-30-52-5-24zm30 0l20 48q18 30 45 50l59 27h-11l-23-12h-7l-22-14-30-29-20-28-11-42zm373 4v2l-20 18-2-1 16-16 6-3zm78 0v2l-20 18-5-1 25-19zm339 0l25 22 11 5 21 22-3-1-55-46 1-2zm-95 5l4 4 27 41-1 4-30-49zm29 1l27 25h-2l-26-23 1-2zm547 2v24l-5 10-1-23 6-11zm-24 6v6l-5 10-1-5 6-11zm-785 4l1 2-21 21-6 3-1-1 27-25zm-119 6v2l-14 12-2-1 10-10 6-3zm436 0l26 25v1l-31-24 5-2zm-116 1l2 2-3 4-3-1 4-5zm-286 6l2 1-15 12-1-1 14-12zm864 1v12l-32 52-35 35-36 24-27 8v-1q61-23 97-70l33-60zm-720 6v6l-11 28-1-11 12-23zm241 3l40 32-4 1-24-22-13-4 1-7zm-443 1v2l-8 6 2-5 6-3zm84 0v2l-32 31v-1l26-29 6-3zm287 2l42 55h-1l-22-21-21-29 2-5zm575 0v6l-23 46-2-4 25-48zm-911 4l4 2-24 18-1-1 21-19zm72 0l1 2-49 49v-3l43-45 5-3zm113 2v6l-17 46-1-11 18-41zm276 4q8 11 24 15l3 10-4-4-28-19 5-2zm41 0l15 13-3-1-13-10 1-2zm-185 5l4 4 3 5-5-2-2-7zm60 0l22 22 3 5-1 1-22-21-2-7zm-436 1v2l-2 5h4l8-6v11l-24 1q-16 18-42 25l2-5 23-11 31-22zm29 12l4 2-54 39-69 32v-1l65-32 54-40zm185 2v6l-5 10-1-5 6-11zm-498 3l26 26v1l-24-20-2-7zm797 1l51 43h-2l-28-20-22-21 1-2zm78 0l15 13-3-1-13-10 1-2zm-105 1l18 18v1l-7-1-1 2q-11-4-12-18l2-2zm63 0l21 18v1l-21-19zm-155 4l10 10 3 5-1 1-10-9-2-7zm-186 9v12l-5 10-1-11 6-11zm258 3l22 22 3 5-1 4-24-31zm149 1q21 9 36 25h-5l-32-23 1-2zm-563 5l-1 4-22 24h-2l25-28zm888 0l1 1-12 18-2-4 13-15zm-1006 1v2l-37 17h-11v-1l48-18zm646 0l14 13v1l-19-12 5-2zm-137 2l32 41-2 1-7-2-3-11-22-24 2-5zm-367 3l1 1-30 39v-3q10-23 29-37zm427 0l30 34h-1l-31-32 2-2zm-751 1q16 17 42 25h7l23 12h19l7 6h-20l-70-32-13-9 5-2zm768 0l26 25v1l-28-24 2-2zm-294 2v12l-5 10-1-11 6-11zm192 3l16 16 3 5-1 1-16-15-2-7zm186 7l14 13v1l-19-12 5-2zm-802 1l4 2-1 4-5-1 2-5zm36 0l33 1q-7 7-23 5l-10-6zm364 1v18l-5 10-1-17 6-11zm461 4l55 31q13-1 18 6h13l10 6h-17l-70-32-10-9 1-2zm-849 1l4 2-1 4-5-1 2-5zm682 4l16 16 3 5-1 4-18-25zm83 1l24 19-4 1-21-18 1-2zm-557 5v3l-5 7h-2l7-10zm534 1l20 19v1l-22-18 2-2zm72 0l8 7v1l-13-6 5-2zm-744 7l17 1q-7 7-24 5l3-4 4-2zm336 1v76h-1l-5-10v-37l-5-9 11-20zm426 4l20 13v1l-25-12 5-2zm247 0l4 2-18 12-1-1 15-13zm-883 2l1 5-3 11q-16 13-21 36l-1-5 24-47zm475 0l24 31h-1l-25-26 2-5zm-445 3l1 1-31 61q1 13-6 18v19l-5 10-1-23 30-65v-7l12-14zm414 0l16 16 3 5-1 1-16-15-2-7zm155 1l18 13-4 1-15-12 1-2zm-89 5l18 10v12l-18-22zm31 0l7 8-8-1-1-5 2-2zm35 1l20 19v1l-22-18 2-2zm127 1l5 2-3 4-3-1 1-5zm77 0l23 1q-10 9-33 5v-1l10-5zm-112 6l27 12h-5l-22-12zm-115 4l48 52h-1l-46-45-1-7zm70 1l18 13-4 1-15-12 1-2zm75 7l15 6h-5l-10-6zm130 0l5 1-15 5v-1l10-5zm-222 5l8 7v1l-10-6 2-2zm-52 1l4 2-1 4-5-1 2-5zm162 0l12 6h-2l-10-6zm94 0l5 1-12 5 3-4 4-2zm-336 4l16 16 3 5-1 1-16-15-2-7zm173 1l42 25-4 1-11-3-28-21 1-2zm99 1l45 1q-11 9-35 5l-10-6zm-235 4l24 34h-1q-16-13-23-34zm113 1l30 22 12 3 4-6 2 2q1 14 12 19l26 15v1l-60-33-28-21 2-2zm-648 8v6l-5 10-1-5 6-11zm211 6q10 12 5 40h-1q-10-13-4-40zm371 3l80 80v1l-78-74-2-7zm-60 6l10 10 44 82v11h-1q-20-60-53-103zm197 1l72 37-4 1-47-21-22-15 1-2zm-725 2v18l-5 7-1-14 6-11zm241 12q7 6 5 22h-1q-7-7-4-22zm330 0l29 59 6 23h-1l-11-22v-7l-25-48 2-5zm82 10l45 43-3-1-43-40 1-2zm-430 8q7 6 5 22h-1q-7-7-4-22zm529 5l111 48h-5l-41-18h-7l-58-30zm-758 1v58h-1l-5-10v-37l6-11zm812 5l57 24h-11l-46-24zm-559 1l11 34h-1l-11-22 1-12zm-18 12l5 16h-1l-4-16zm637 11l69 24h-11l-11-6-25-6-22-12zm-159 5l15 13-3-1-13-10 1-2z"/><path d="M661 1183q7 23 26 35h2q-8-9-5-28h1q9 10 5 33l-2 1q-23-13-27-41zm443 4l44 37v1q-28-15-49-36l5-2zm188 7l34 12h13l22 12h-5l-11-6h-13q-5-7-18-6l-22-12zm-847 1q8 8 5 28h-1q-8-9-4-28zm712 4l33 25-3-1-31-22 1-2zm207 1h11l28 12h-11l-28-12zm-943 10l5 8v19q8 6 6 22h-1l-11-28 1-21zm985 2q18-2 26 8l2 11-35 64-1-5 30-53v-15l-22-10zm-373 1l5 11v43l-5 10v-64zm331 5q15-2 21 6h-11l-10-6zm-355 1l5 11v37q-8 6-6 24l-26 52-40 43h4l13-12 1 13-3 4-15 1-6-3v-3l-53 24h-23v-1q8-8 29-5l36-15q33-20 56-50l15-30v-7l12-29 1-54zm379 5q18-2 22 10l-1 2-3 2-4 15-19 25-7 17 4 3-15 22-3-1-1-3-40-19 6-1 38 18 9-17 6-21q18-15 24-42l-16-10zm-937 1l5 11v13q7 4 6 18l9 18q13 10 18 30l23 23-3-1-21-18-32-58q1-14-6-18l1-18zm707 4l32 25v1l-37-24 5-2zm41 0l9 7-3-1-7-4 1-2zm261 11l4 6-3 2 2-3-3-5zm-243 1l102 55h-5l-64-32-34-21 1-2zm-17 18l8 7v1l-13-6 5-2zm-767 2l14 36 15 20 18 5v17l18 20 24 15 25 6 7 6h-8l-34-14q-25-14-42-35l-32-52-5-24zm785 10l42 25 12 2 2 8 64 32 43 12 4-3q0-12 7-17v15l-7 9-11 2-106-50-55-33 5-2zm-186 11v9l-5 10-1-11 6-8zm366 15v12l-5 10-1-11 6-11zm-372 6v6l-20 40-9 9v-3l29-52zm-334 17l12 6-3-1-9-5zm-18 5v2q-24 22-62 31l2 4 10 2-1 4q-16 2-22-6h-18q9-9 30-6l23-12h7l31-19zm45 12l21 19-3-1-19-16 1-2zm-57 1l33 8 33 34v1l-43-36-8 9-18 9-1-1 14-9-3-8-9-2 2-5zm-141 5l25 13q20-3 29 6h-23q-10-9-30-7l-1-12zm228 18l19 16 54 27q20-3 29 6h-17l-16 6-2-5 6-3-1-4-39-14-34-27 1-2zm241 5l1 1-20 23-6 3-1-1 26-26zm-341 1l4 2-15 5v-1l11-6zm-25 7l11 1-28 11h-20l3-4 23-2 11-6zm114 11l14 13v1l-19-12 5-2zm24 18q16 2 24 13h7l29 12h13l7 6h-14q-7-8-24-6l-47-23 5-2zm187 0l4 2-46 23h-11v-1l53-24zm-39 1l2 1-7 9-15 2-2-4q15 0 22-8zm-63 12l5 2-1 4-5-1 1-5zm23 12l23 1q-9 8-30 5l3-4 4-2z"/></g><g fill="#0c4d3b" stroke="#0c4d3b"><path d="M633 108h55l8 6h13q4 7 18 6l13 10 11 2 33 18 4 4 20 14 16 16 11 2 29-18h19l11-9 24-9h73q6 8 24 6l39 18 10 10 25 21 27 47v13l12 29v64l-6 8q1 13-6 18v13l-17 39-5 4-31 50-23 22-19 26-59 58-5 10-7 2-64 64v1l-44 37-5 10-7 2-34 34v1l-8 4q-3-13-13-19h-2l-6-22-18-8-7-14-33-34h-2l-13-20-33-34h-2q-32-48-76-84h-2l-44-57-39-66q1-14-6-18v-19l-6-11v-79q8-7 6-24l12-17v-13l16-30 8-1 9-23 24-25 39-23 25-6 8-6zm27 18l-8 6h-28l-28 14-4 5-31 23-19 27-2 1-10 17-2 1-18 38q2 17-6 24v67l6 11-6 12v11l6 1v-5l3-1 23 53 5 3 7 15 5 3 7 15 17 15 13 21 17 15 74 77 3 10 9 1 5 11 35 33 13 21 17 15 13 21q4 7 15 7-1-16 7-23v-13l6-11v-13l6-11v-13l6-11q-3-22 6-30v-43l6-11v-55l-6-11v-37l-6-11v-13l-6-11q2-17-5-24l8-1 15 30q-2 17 6 24v13l6 11v145l-6 11q2 17-6 24v13l-6 11v19l-12 29v11l3 1 41-42 4-2 4-6 3-2 13-14 4-2 34-36 3-2 7-8 4-2 28-30 12-10 2-3 16-15 42-50 3-2 21-28 3-2 9-16 3-2q16-14 23-37-1-14 6-18v-13l6-11v-73l-20-52-4-4-8-14q-8-13-24-18l-2-2-16-10-2-2-7-6q-14 1-18-6h-13l-11-6h-49l-11 6h-13q-5 7-18 6l-23 12h-23l-5 13-12 5q-8-5-9-16-23-3-32-18l-2-2-16-10-2-2-25-18h-13l-23-12h-34l-9-6zm308 450l-2 5 3 1 3-4-4-2zm-38 30l-4 2-2 4h11l1-4-6-2zM462 389v2h-1l1-2zm-6 10l-7 8h-2l9-8zm-180 9h82l26 12h13l13 10 11 2 30 15 57 39 74 74 1 1q24 37 59 65l1 1 50 57 5 12 17 9q11 27 35 41l1 1 16 23-2 4-21 6-23 12h-7l-44 24v1q-23 6-36 23v1l-18 11v1l-18 11v1l-38 25-16 16v1l-30 23v1q-20 7-30 23v1l-32 19-31 25-66 33h-25q-9 11-33 6l-8-6h-19l-23-12h-7l-52-29-25-27h-2l-14-21-27-60v-61l-5-8 11-27v-13l30-51 12-4v-13q12-5 12-22l-18-35v-7l-12-29v-13l-6-8v-37l12-4q-7-5-6-17 9-9 6-30l15-30 39-39 14-8 1-2 27-11h13l11-6zm30 12q-11 10-36 6l-52 26-30 30-20 40q2 17-6 24v37l6 11v13l14 40 5 3q9 10 5 33l12 4-4 18-2 1-10 10-18 31-2 1-12 19-12 31v73l18 47v7l20 28q19 25 48 41 21 2 34 14 21-3 30 6 17 2 24-6h25q12-12 34-14l3-4 33-14 19-16 24-1v-11l-8 6h-4l2-6 21-14 3-4 15-8 9-10 15-8 15-16 15-8 9-10 15-8 9-10 58-39 23-11 9-10 27-14 3-4 13-7 3-9-119-44q-22 3-30-6h-19l-11-6H414l-11 6h-19q-7 8-22 6l-2-3 12-9q13 1 18-6 17 2 24-6h31l11-6h49l11 6h31q8 9 30 6l11 6h13l29 12h7l76 32 1 3 3 1 9-10-11-5-46-45-5-10-12-8-6-10-40-40-27-28-5-10-22-22-2-3-60-59q-9-6-10-18l-20-6-2-2-16-10-2-2-43-24-25-6-11-6h-31q-7-8-24-6zm-80 12l-4 12h3l3-11-2-1zm10 0l-2 6h4l2-5-4-1zm-42 258l-2 5 5 1 1-4-4-2zm-8 12l-2 1-4 10 3 1 9-11-6-1zm536 24l-2 3 10 8 1-2-9-9zm-76 84l-4 5 5 1 1-4-2-2zm-398 198l-2 5 5 1 1-4-4-2zm12 6l-2 5 5 1 1-4-4-2zm955-570h67l8 6h13l33 12 4 4 7 2 18 19 5 17 8 2 14 28v13l12 20v28l6 8v43l-6 8v13l-6 11-6 25-30 49 36 42 1 1 11 21 6 25 6 8v46q-10 10-6 36l-29 57-11 10-5 10-27 27-20 15v1l-66 29h-73l-8-6-25-6-40-17-3-5-27-13-3-5-15-7-9-11-15-7-9-11-15-7-15-17-11-5-1-9-11-3-22-14-21-23-21-13-3-13-25-12-52-51-2-7-25-31-3-10 3-4 65-58 1-2 31-29 7-2 143-143q7-19 24-29 16-3 22-17l1-2 51-29q13 1 18-6h25l20-12zm9 18q-8 11-30 6l-52 20-4 5-14 7-4 5-14 7-16 17-3 1-11 13-2 1-8 9-3 1-5 7-2 1-140 141-26 19-28 29-14 7q-8 4-8 15l25 1 11 6h25l11 6h55l11 6h181l10-4 1 3 5 1 1-2 6-4h25l11-6h19l65-24v3q-25 21-59 33-14-1-18 6h-19l-11 6h-19l-11 6H942l-11-6h-37l-11-6h-19q-7-8-22-6l-2 5 4 1 29 31 3 10 15 5 1 3q20 23 47 39l1 3 52 45 13 6 1 3 29 21 1 3q8 11 23 15l1 3 28 21 19 6 1 3 10 9 70 32h61l40-14 36-24q28-22 47-53l20-34q-2-18 6-24v-55q-9-9-6-30l-14-22-4-4-8-14-4-4-18-22v-12l42-83q-2-18 6-24v-43l-6-11v-25l-8-22-4-4-8-14-4-4-2-3-24-23-2-2-31-18q-23 5-30-6h-49zm-65 588l-1 5 3 1 3-4-5-2zm246-307v2h-1l1-2z"/><path d="M778 793l2 1q-2 15 6 22v13l6 11v13l28 58 8 5 6 10 1 1 25 38 22 21 1 1q8 21 26 33l5 12 13 7q8 20 27 31l1 1 35 47 1 1 41 87v76q-9 4-6 21l-35 63-27 26v1l-17 12-52 23h-25q-7 10-27 6l-8-6h-13l-11-6-25-6-13-10-21-7-9-11-15-7-33-35-33-8-2 5 11 5 1 5-14 9v1l-21 11q-18-2-24 6-21-4-27 6h-31l-8-6-31-9-33-26-4-25q-15 2-20-5l-12-18-15-36q2-18-6-24v-19l-6-8v-73l6-8v-19q7-5 6-18l15-30 7-7 8-21 4-3 8-15 22-21 26-33 32-31 1-2 47-40 1-2 23-16 1-2 39-26 90-45q15 2 22-5zm-16 17l-2 1-8 14-2 1q-37 45-60 104v7l-18 41q3 21-6 30v25l-11 20 5 9v37l6 11v25q9 8 6 30l12 23q-3 20 5 30h-2q-19-13-27-35 1-14-6-18v-13l-6-11v-31l-6-11v-61l6-11v-25q8-7 6-24l18-47v-7l28-56 3-2 11-19-1-7-9 2-4 5-26 13-13 13-29 17-10 11-14 7-22 23-14 7-42 42-6 13-2 1-16 16-18 31-2 1-12 14v7l-30 65v85q9 8 6 30l20 46q13 10 18 30 10 16 31 23 5 3 3 13 20-2 30 7h49q6 8 22 6l1-4-10-2-2-4 13-2 46-26 3-4 11-6q20 4 32 16l1 3q10 15 29 21l1 3 34 27 39 14 1 4-6 3 2 5 16-6h49l53-24v3l6 3 15-1 3-4-1-13-13 12h-4l40-43 26-52q-2-18 6-24v-37q-9-9-6-30l-44-82-10-10-8-14-16-16-14-20-16-16-20-26-16-16-14-20-10-10-14-20-4-4-42-75q1-14-6-18v-13l-6-11v-17l-6-2zm25 54l-1 11 3 1 3-10-5-2zm27 48l-4 5 3 1 3-4-2-2zm96 492q-7 8-22 8l2 4 15-2 7-9-2-1zm-63 12l-1 5 5 1 1-4-5-2zm-24-570l12 9 36 37 3 2 22 22 16 12 2 8 11 3q11 18 33 27l22 22 44 32 16 16 14 8 10 10 14 8 10 10 14 8 4 4q15 5 24 18l20 8 4 4 18 12 106 50h13l23 12h7l29 12h13l29 12h13l23 10v15l-30 53q1 13-6 18v22l-9 19-9 1-11-6-25-6-66-33-1-9h-11l-52-29-3-5-15-7-9-11-33-19-9-11-45-31-79-81h-2l-29-31-1-15-18-8q-7-20-22-30h-2q-9-24-28-36h-2q-9-24-28-36h-2l-34-54h-2l-22-46zm109 120l-2 2 2 9 18 24 29 27 14 17 3 10 9 1 5 11 47 45 1 4 19 16 1 3 40 39 13 6 1 3q8 11 23 15l1 3 10 9 31 18 1 3 17 9 1 3 34 21 111 52 1 3 3 1 15-22-4-3 7-17 19-25 4-15 3-2 1-2-11-10q-18 2-24-6h-13l-23-12h-13l-29-12h-7l-122-52-2-2-26-15q-11-5-12-19l-2-2-4 6-12-3-38-25-2-2-16-10-2-2q-10-16-28-22l-2-2q-10-16-28-22l-2-2q-16-21-40-34l-2-2-18-18zm78 108l-2 5 5 1 1-4-4-2zm-620-24l1 1h-1v-1zm692 163l1 1-6 4-2-3 3 2 4-4zm-398 173l1 1h-1v-1z"/></g><g fill="#1cdd3b" stroke="#1cdd3b"><path d="M594 150l5 1-18 11 9-10 4-2zm-32 24l5 1-9 8 4-9zm332 6l5 1-15 5v-1l10-5zm-348 16v3l-5 8-1-3 6-8zm274 14l13 1-5 3-1 2-5-1-2-5zm-286 1v6l-11 22-1-5 12-23zm-12 30v6l-11 28-1-11 12-23zm571 18l5 14-3-2-2-12zm-583 30v58h-1l-5-10v-37l6-11zm589 0q8 7 5 26l-3-2q-6-8-2-24zm5 50v16l-5 10-1-17 6-9zm-593 16l11 34h-1l-11-22 1-12zm306 14l11 15q-1 13 6 18v11h-1l-16-44zm-12 10q7 6 5 22h-1q-7-7-4-22zm-282 14l19 38 31 43-16-13-10-19-2 1-22-50zm288 10q7 6 5 22h-1q-7-7-4-22zm24 14q7 5 5 20h-1q-7-7-4-20zm-553 9l17 1q-8 8-27 5v-1l10-5zm52 0q14-2 19 6h-11l-8-6zm-70 6l3 1-13 5v-1l10-5zm100 0l27 6 58 30 3 4 15 8 13 15-43-31-16-8h-7l-17-12-25-6-8-6zm453 1l5 11v51l-3-2-3-6 1-54zm24 12q9 10 5 34h-1q-9-11-4-34zm-613 5l3 1-33 27-23 41-1-3q15-41 48-63l6-3zm828 3v4l-11 16-10 7q6-18 21-27zm-479 24l26 33-16-13-10-20zm587 3l11 1q-12 11-33 13l-43 31 13-16 18-10v-2l34-17zm-132 3v4l-17 22-22 19 18-24 3-2 18-19zm-548 15l7 2 59 60 2 7-68-69zm123 15l122 123 5 11 31 31q5 15 18 23h1l20-58v-13l6-9v16l-12 29v13q-7 4-6 18l-5 8-5 2-9-6q-10-23-28-37l-2 1q-19-36-49-59l-9-8-2 1-75-78-1-8zm215 6v52l-6 11q4 24-5 35l-1-29 6-11v-49l6-9zm-648 4v12l-5 8-1-9 6-11zm918 5l3 1-39 38 8-13 10-5q2-14 14-19l4-2zm-102 3v6l-8 3 8-9zm-106 15l4 2-1 4-5-1 2-5zm88 3v6l-10 5-4 9-29 29-11 6-2 7-35 35-15 10-9 14-9 4-31 28-1-12 12-29q-2-18 6-24v-19l6-11v24l-6 11v13l-12 35h3l85-79 6-10 8-4 2-9q10 0 14-7l4-11q10 0 14-7l6-10 8-4zm-416 21l21 20 27 30 2 7-39-38-11-19zm497 0l-3 4-3 9-26 26-13 7-3 9-86 86-11 5q-23 30-56 50l1 2q15-2 20 6h-24l-3-6 8-11v-2l15-7 27-27v-2l27-19 130-130zm-207 1v18l-5 10-1-17 6-11zm-677 14l5 9v13q7 4 6 18l30 59v13l-9 18-13 13-24 36-8 22v17l5 1 3-18q6 8 23 6l27-18 3 6 23-1 2-11 21-2 24-22 1 4q-20 15-29 42l7 19 7 7 9 6h43l40-20 9-9v-2l15-7 43-40-1 2-21 24-3 16-8-5-9 10 113 1 3-12 22 2 2 10 70-1 2-17 4 2 2 10h11l17 10 1 2 11-9 48-24v-3h-6l-35-18h-7l-47-18q-18 2-24-6h-19l-11-6h-19l-9-5-9 5-11-6h-49l-11 6h-37l-11 6h-41l-2-6 12-15 42-15h23v1q-9 8-29 5-13 12-34 14l-8 8 2 2h35l11-6h37l11-6h43l11 6h43q8 9 30 6l29 12h13q4 7 18 6l65 28-3 8 2 1-31 17 1 1-27 13-58 40 1 1-31 23 1 1q-16 5-25 17l1 1q-21 6-31 23l1 1q-16 5-25 17l1 1-19 11 1 1-73 47 1 1-58 23h-55l-60-27-33-32-12-18-21-48q4-26-6-36v-31q9-9 6-30l12-29 4-2 8-16 10-8 20-34v-13l-24-47v-7l-12-29 1-16zm45 195l-4 5 3 1 3-5-2-1zm406 24l-2 6h3l3-5-4-1zm-466 6l-4 6 2 17q4 7 15 7l1-22-4-2-2 17-4 1-2-23-2-1zm274 0l-2 5 5 1 1-4-4-2zm24 0l-2 5 5 1 1-4-4-2zm24 0l-2 5 5 1 1-4-4-2zm24 0l-2 5 5 1 1-4-4-2zm24 0l-2 5 5 1 1-4-4-2zm24 0l-2 5 5 1 1-4-4-2zm54 6l-2 6h3l3-5-4-1zM248 618l4 2-1 4-5-1 2-5zm1138 9v22l-6 11-6 25-11 22-5 3-20 41 6 8-3-3-9-1 21-47 15-23v-7l12-29v-13l6-9zm-776 3l41 42 15 14h1l47 49 5 3-2 1 2 5h-5l-83-36h-13l-29-11 12-1 11 6h13l11 6 25 6 35 18-1-1-7-15-61-61q-4-18-17-25zm358 42l4 2-1 4-5-1 2-5zm12 0l10 9-1 3-11-8 2-4zm-536 6h67l8 6h-83l2-3 6-3zm86 6h23q6 8 24 6l8 6h-15q-9-9-30-6l-10-6zm774 18l4 2-1 4-5-1 2-5zm-1056 6l4 2-1 10-5-1 2-11zm859 30l21 2-1 4h-23l3-6zm195 6l12 2-9 21-20 16-13 5 2 4 14-6q6 10 25 7l-4 8-42 21-25 6-23 12h-37l-11 6h-31l-5 4-1 3 8 9 34 20h7l29 12h31q6-8 24-6l19-11v-2l13-10 3-6 4-2 21-47 15 14 8 12h1l17 34v13q7 4 6 18l-6 11v31q-8 6-6 23h3l6-5q-20 33-50 56l-60 33h-25q-9 9-30 6l-11-6h-13q-5-7-18-6l-42-21q-11-13-30-18l-13-13-28-13-8-11-22-13-8-11-16-7-20-23-11-5-19-19-28-19-20-23-16-7-6-9-2 1-29-34 19-1 23 9 1 9 29-1-1-5q-20 3-28-5l18-1 11 6h73l11 6h127l11-6h43q8-9 30-6l11-6 25-6 43-23v-2l10-7 6-8-6-2-53 24q-18-2-24 6h-25l-11 6h-55l-11 6h-85l-11-6h-85l-11-6h-43l-11-5 54-1 11 6h120l2-4 11-2 5 4 1 2 10-6 1 4-6 7 7 1 11-6h91q8-9 30-6l11-6h13q4-7 18-6l35-18zm-239 36l-1 3 6 3 11-2 1-3-17-1zm181 18l-2 5 5 1 1-5-4-1zm-385 6l-1 3 6 3v-4l-5-2zm365 0l-4 2-2 4h17l1-5-12-1zm-30 6l-4 2-2 4h23l1-4-18-2zm-316 6l-2 3 11 9 1-11-10-1z"/><path d="M762 816l6 3v22l6 11 6 25q14 34 36 61h1l11 18h1l23 30h1q10 22 29 36h1l35 42h1q10 22 29 36h1l26 40 27 54q-1 13 6 18v61l-6 11-6 25-15 30-38 38-36 21-55 12q-9-9-30-6l-54-27q-10-15-29-20l-14-17-22-13-2-5-17-2q-23 6-35 21l-36 15h-19q-5 7-18 6-9-9-30-6l-35-17-22-24q-5-20-18-30l-15-36q2-18-6-24v-19l-6-11v-43l6-11v-19q7-5 6-18l36-71 10-8 26-40 50-48v-2q24-8 36-28v-2l51-31 27-21v-2l14-5 2 7-11 22-5 3-32 70v13l-12 29q3 21-6 30v109l6 11v13l6 11 6 25q9 23 28 35l2-1v-23l-18-47q3-22-6-30v-103l6-11v-19l6-11 12-43 33-66q21-22 33-53l1 2 5-3zm-2 12l-10 12h11l1-10-2-2zm-66 30l-10 11 3 1 9-11-2-1zm50 12l-4 2-13 21-1-1-24 44q2 17-6 24v55l20 46 24 23 34 14h37l15-12 8-11v-43l-14-28-4-3-14-27-31-43-15-30v-13l-6-16-6-2zm-108 60l-4 2-27 29-15 7-9 11-25 18-22 47 6 23 18 7q20 2 29-8l11-11 26-52 6-25 6-11v-13q8-7 6-22l-6-2zm762-39v10l-5 10-1-11 6-9zm-455 93l10 2 12 10 21 22 15 8 15 16 15 8 13 15-11-9v2l15 16h2l-3-5 4-1 10 6 1 3-5-3v2l15 16h2l-9-11 4-1 10 6 7 9-5-3v2l7 8 63 44 3 4 14 8 4 4 15 8 3 4 15 8 3 4 15 8 3 4 15 8 3 4 38 20 4 4 82 38 15 1-18 41-38-18h-7l-113-59-2-5-16-7-8-11-34-19-8-11-16-7-38-41q-18-6-27-21l-4-9-48-50-9-8-2 1-19-27-27-28-2 1-4-11zm177 132l11 6-3 1v2l-2-3h1l-7-6z"/></g><path opacity=".643" d="M456 400v5l-5 3 5-8zm783 3l2 1 2 2 3 2h-11l4-5zm-846 647l11 1-3 4h-4l-1-3-3-2zm679 157l10 6-5 4-8-5 3-5zm-3 7l3 5 1 1-4 8v-14z" fill="#bdc699" stroke="#bdc699"/><path opacity=".235" d="M1147 410l7 10h-4l-3-1v-9zm-739 644v12h-1l-2-5h-2l1-4 4-3zm845 63l1 1v4l-5-1 2-3 2-1zm4 5l11 6h-1l-10-6z" fill="#b0bda3" stroke="#b0bda3"/><path d="M236 432l4 1-2 5h-4l2-6zm694 174l6 2-1 4h-11l2-4 4-2zm325 512v2h-1l1-2z" fill="#0c143b" stroke="#0c143b"/></svg>