<svg viewBox="0 0 564 564" xmlns="http://www.w3.org/2000/svg"><path fill="#ABA1C9" stroke="#ABA1C9" stroke-width="3" opacity=".992" d="m221 109 1 3-5 2-1-2 5-3Zm135 11 10 4v2l-10-6Zm-167 6 3 3-1 3-4 2-1-2h-2l5-6Zm-18 12 3 3v3l-6-2 3-4Zm251 7 8 5 2 3 5 3-11 1v1l-6-11 2-2Zm-295 11-1 2 1 4-6 1-5-1 11-6Zm194 6 3 3v8l-3-5-3-1 3-5Zm-81 4 1 2 5-1v4l-9 3-3-3 6-5Zm205 2 5 3 1 4-1 4 3 2 2 4-1 1-12-11 2-1 1-6Zm-346 6 4 1-1 4 1 1-7-2 3-4Zm226 0 5 4v2l-6-3 1-3Zm148 5 7 4v5l-7-9Zm-386 1 3 3-2 3-4-2 3-4Zm156 0 3 3-2 3-4-2 3-4Zm226 4 7 8-8-3 1-5Zm-304 14 4 1-1 4 1 1-7-2 3-4Zm157 12 2 1-3 5h-3l4-6Zm-118 6 6 4v2l-6-2v-4Zm176 84 4 2-1 4-3 2-1 3-1-5h-2l4-6Zm-186 19 13 12 3 10h-1l-6-11-4 1-5-12Zm164 11 4 1-7 8-1-2 4-7Zm-147 13 5 16h-1l-4-16Zm137 3-1 4-2 4h-3l6-8Zm6 16v4l-5 10-1-3 6-11Zm-131 6 11 23v9l-4 2q1-21-9-30l2-4Zm119 0 2 16-1-1h-2l-5-8 4-3 2-4Zm-125 13 5 14h-1l-4-14Z"/><path fill="#AC6332" stroke="#AC6332" stroke-width="3" opacity=".996" d="m223 108 5 3v15q-13-3-17 4l-1 3 3 5-15 2 1 4h-4l-2-2 7-14 3-1 1-2h2l7-4-2-1 11-7 1-5Zm120 6v2h-1l1-2Zm-3 6 2 2-1 4h-5l4-6Zm15 3 11 3 1-2 3 2-3 1 5 3 2 8 4-1 3 7-3 1v1l-7-8-19 6-4-6h2l4-1 1-14Zm-144 16 3 5 2-1v3l-3 4h-3l-1-4-4-1 5-1 1-5Zm35 3 1 3-1 4v6l-6-8 6-5Zm-101 20 11 1q3 18-9 23l1 1-7 5-1 3-2 1 2 8 22 6 1-7q12 0 15 9l14 19 18 9v-3l-13-15q14-2 19 6l1-2q6 3 5 14l-6 2 2 4q15-2 22 6h13l17 8v19l-8-3-4 3v-3h-2l2-12-3-5-25-1-2 5 6 3h1l5 7 5 3h-5l-17-15-15-3-7 12-9-1-3-11q-13-11-18-30l-11-12-3 1-4-1 3-4-11-2-1 7 10 11 2-1 11 30h-1l-8-6-12-18-7-20-17-10-2-5 8-10 16-10-1-4h-5l1-9 6-3Zm30 66-1 4 11 7-1 2q9 6 10 22l7 1q6-6 3-22l-29-14Zm234-66h6q7 10 23 12l1-4 13 22 4-1v14l-3 5-19 6v-1l8-6 2-17-9-12-3 2q-2 15 6 20l-17 8h-7l-17 12h-7l-6-3v-3l-8 6 1 1-8 5-2 6h18l16-6 2 12 5-3v4l-7 9-9 2-3-12q-21 4-27-7l-1-2 19-19 11-2 10 5 22-16 2-4h1l-5-11 5-8-16-9-1-5Z"/><path fill="#AC6332" stroke="#AC6332" stroke-width="3" opacity=".996" d="m420 213 1 3 4 1-14 6 3-4 5-2-2-1 3-3Zm-304 3 4 3v3l-6-1 2-5Zm214 12 8 6-2 1v5l-10 8-20 28v31l12 13h1l5 7 6 2 1-10 3 5 2 2-1 2-11 2-18-7-3-10-9-2v-29l15-17 5-17 14-19 2-1Zm-44 12 2 2-2 4-4 2 1 4h-5l-1-2 9-10Z"/><path fill="#AC6332" stroke="#AC6332" stroke-width="3" opacity=".996" d="M348 259v6l-7 9-11 6 2 8-8 1 7 13h-1l-11-8-1 4-6-9 6-1-3-6h-3l2-4 17-2 11-8 6-9Zm-142 11 27 10 4 8-6-6-3 1 8 11 4-1v4l-3 2q-10-19-33-24l2-5Zm-18 7 12 11-2 1 3 5-3 1v1l-10-19Zm70 6v6l-8 17-4 1 3-6 9-18Z"/><path fill="#AC6332" stroke="#AC6332" stroke-width="3" opacity=".996" d="m271 283 5 18-6 11 4 2 2 13-3-3-3 1q-20 2-27-7-3 7-15 6l-12-9 2-3 15-6 3 4 2 1 2-1-1 2-5 1 2 5 10-6 22-1 3-28Zm83 12q-2 11 5 15l-11 8-8-5 3-1 3-1 8-16Zm-149 9 5 4-1 4-5-1-2-4 2-1 1-2Zm120 5 2 3-4-1 2-2Zm-55 19 2 20 4-1v6l-4 1-5-12h-8l11-14Z"/><path fill="#22100E" stroke="#22100E" stroke-width="3" d="m282 108 8 1-1 2-12 4-1-1 4-5 2-1Zm54 4v3l-5 10-1-5 6-8Zm-65 6 5 2h2l5 1-1 3 6 2v-3l-1-3 18 6h2l6 1-1 16-3-5-3 1 2 5-13 2-1-2-17-9-4-8-4-1 2-8Zm6 8-1 5 5 1 1-4-5-2Zm-42-5 5 12-1-1-5-3-1-4 2-4Zm-15 5 6 2 2 5-3 5-3 1-1-2-5-2 4-9Zm124 0 4 3v11l-6-12 2-2Zm-104 10 1 2 9 1q-6 7-20 7l-1 3-1-8 12-5Zm-59 1 8 2-11 5-5-5 8-2Zm71 1 1 1h-1v-1Zm151 3q3 6 16 4l-5 3 2 2 2 2 2 4-1-1-10-8-1 2-5-8Zm-240 2 5 5 1 1 1 1-12 2-1 3-2-10 8-2Zm165 1 3 1-3 4h-2l-1-2 3-3Zm32 0q14-4 18 4l3 8h-9l-16-6-2 6-6-3 1-3 11-6Zm-101 3 2 3-4-1 2-2Zm-31 3 2 1-7 13-1-10 6-4Zm4 0 8 10-4 3 3-4-7-9Zm31 0 12 6-5 1v1l-7-8Zm-68 1 3 3 1 2h-7v-1l3-4Zm118 0q8 5 5 22h-1l-6-11 2-11Zm-174 4 11 3-1 4-30 12 1-2 3-10 1 2 2 2 1 2 11-7-1-4 2-2Zm255 2 14 16-3 1-8-6-1 2-6-2-1-6 3-4 2-1Zm-117 3 16 3-11 5-11-5 5-1 1-2Zm-106 2-3 4-5 13-1-5 9-12Zm75 0 11 1-4 2-1-2-5 10-1-11Zm52 0 7 3-5 15h4l6-5 8 9-4 4-1 3-1-2-5 3-3-6-4 1-1 3-5 2-5-3-1-3 10-24Zm10 18-2 5 5 1 1-4-4-2Zm-92-14v2l-5 10-1-4 6-8Zm241 0 5 3-3 5h-3l1-8ZM97 179l10 1h1l-3 5-9 3-3 4-3 2 1 4-6 1-7-12 3-1 5 6 4-1-1-10 8-2Zm312 4 10 12-2 3h-11l2-9-1-3h1l1-3Zm-177 10 3 5 5-1 2 5 3 2-10 1-7-1 4-11Zm90 0 1 1-4 9-1-2-3 2-3-5h2l8-5Zm33 3 5 9-1-1h-2l-2-8Zm35 2 5 1-8 5 2 1-12 6-1-1 14-12Zm-47 1 6 9 3 2h-4l-5-3v-8Zm-258 4 5 2-3 5h-3l1-7Zm249 0-3 4-1-2 4-2Zm144 0-3 4-1-2 4-2Zm-160 2v5l-5 8-1-2 6-11Zm-133 5 7 1-2 4-5-5Zm169 4v3q-8 7-6 23l-7-2-6-15 13-4 1-3 5-2Zm-50 2 2 1 2 3 4 2h2l8-1 1 2-11 6-7 9-7 2-4-6 3-5 3 3 1 2 5-2v-4l-4-1-2-5 4-6Zm-25 1 8 8-1 2-9-7 2-3Zm-52 11 6 3-2 3h-3l-1-6Zm-118 5 7 7h-2l-5-3v-4Zm157 1 10 4-1 2-9-6Zm178 4v3l-3 5-3-1 1-5 5-2Zm-156 26v9q-11 9-6 34 8 4 6 20l-8 3-4-3v-53l12-10Zm-95 48 16 12-2 1 21 20 1-2 5 16-9 1-8-14h-2q-5-17-17-26l-4-1-2-4 1-3Zm0 8 4 10h-1l-5-6 2-4Zm-66 19 5 4-1 5-3-1-1-8Zm84 33 2 1 3 8-3-2-2-7Zm44 36 3 3v4l-4-1-2 1 3-7Zm29 0 4 3-3 9h-4l3-12Zm70 97v6l-5 7-1-2 6-11Z"/><path fill="#383740" stroke="#383740" stroke-width="3" opacity=".996" d="m291 109 5 5h-12v-1l7-4Zm-32 5 6 1-1 4 6 5-1 2h-7l2-4-6-5 1-3Zm42 4 5 7h-2l-6-4 2-1 1-2Zm-115 8 1 1-6 7-1-2 4-5 2-1Zm91 0 5 2-1 4-5-1 1-5Zm-19 4 1 1-1 7-6-3 1-4 3 1 2-2Zm-90 8 1 1-1 4 1 1-7-1 2-3 4-2Zm252 6 2 1-2 1v9l-3-5-3-1 2-3 4-2Zm21 12 11 6h-1l-10-6Zm-203 6 3 1-4 5-2 1-1-1 4-6Zm159 6 10 6h1l-3 6-2 1-6-13Zm-162 5 5 4-2 3-3 1v-8Zm73 7 4 2-1 4-5-1 2-5Zm10 4 1 2 1 1-7 10-1-5 6-8Zm-233 1 4 1h1l-1 6-5-1 1-6Zm150 7 5 3-1 3h-5l1-6Zm8 12 9 3 6 16-1-1h-2l-9-16-3-2Zm81 10v3l-3 5h-4l7-8Zm-143 84 13 14-2 1 3 5-3 2q5-3-1-6l-5-1 2-1-7-9-6-2 5-1 1-2Zm195 25-3 4-1-2 4-2Zm-160 23 4 4 2 9h-1l-5-13Z"/><path fill="#553113" stroke="#553113" stroke-width="3" d="m342 108 1 1-6 8-1-2 2-5 4-2Zm-52 12q12-2 15 6h-5l-10-6Zm-61 1 5 13-2 1 1-2-4 3-1 2 2 1-5 10-4 2 1-4-1-3 2-6 3-1 2-5-3-5 3-1 1-5Zm107 2 1 3 4 1-10 5v-1l5-8Zm-146 15 2 1 1 5-8 10-20 14-2 5-1-5h-5l5-11-2-1-10 6v-1l-1-4 7-2h2l16-8 1 3 10-3 1-2-5-1 9-6Zm178 0 4 3 2 3h-12v-1l4-2 2-3Zm12 0 2 2 2 3 1-4 2 5h-5l-2-6Zm12 0 5 1-1 4 6 1 1-2 6 14-1 3 3 3-3 1 6 11-4 2-1 3q1-15-6-22l-1 2-5-2 5-1-1-10-11-5 2-3Zm-79 5 4 1h2l4 1-5 3v4l-4-2-2 1-1-5-4-1 6-2Zm-72 6 2 2 2 5h-1l-3-7Zm14 1 3 2-3 4h-4l4-6Zm166 2 6 8 11 5v9l-12-3-7-13-4-1 5-1 1-4Zm-211 3 1 1h-1v-1Zm109 21 4 10h-4v-10Zm-199 1v10l-3 4-8 4 1 1 8 4 10 14 13 8 5 17 14 18 8 5 1 2 5-3 2 9 7 1-3 4 3 1 10-6 5 4v2l-12 2v4l-4 2-2 4v2l2 4h4l1-3 19 25 27 18 16 19h1l3-11 3 2 2 17 9 10 2-1 1 7-17 7h-13l-5-3-13-22 3 1 9-1q-3-22-17-32l-11-5-25-24-2 1q-7-8-6-23-16 2-22-5l5-1-1-6-10 1-1-7h-7l1-4-10-2-2 1q1-13-6-17l-4-1-2-4-1-3-4 1-2-5-13-7 8-2-1-5-10 1-2-7 1-4v-2l6-1 2-11 8 5 6-11 8-3Zm-21 22-2 3 11 8v-2l-9-9Zm15 17-4 2-1 2 20 13 2-1-11-14-6-2Zm296-36 15 14-2 4h-6l2-4-11-12 2-2Zm47 0 3 2 4 10 16-1v8l-5 7-3-8-4 1-3 11 1 1-27 15-1 13v8l-6-1-5 4-4 8-3 1-10-1-2 11 1 1-6 3-2-3 1-4-14-7q14 1 18-8l6-11 7-2-5-12q8-12 31-10l9-6 3-30Zm-313 10 2 6 8 2 2-1 1 1 2 1-3 5-17-7 5-7Zm192 4v5l-5 7-1-1 6-11Zm72 7v6q-2 5-12 3l-6-3-1-2 3-1q11 2 16-3Zm-46 20 1 2-7 7-1 3-1-5 4-5 4-2Zm-32 1 6 2v6l-4-1-2-7Zm-6 4v3l-17 26-11 5-4 10h-3l7-16 28-28Zm-66 1 2 5 3 2-2 1q5 7 18 6-6 2-3 14l3 3-3 1v4l-7-9-10-5-7-18 6-4Z"/><path fill="#553113" stroke="#553113" stroke-width="3" d="m163 234 8 6 12 18 3 11-2 1 1-2-4-7-14-5-3-8 4-3-1-5-5-2 1-4Zm7 12-2 5 6 1v-4l-4-2Zm64-12 3 1-13 5-1-2 2 1 9-5Zm121 1 5 12-3 5-3-1-1-3-8-2-4-7 2-1 5 7 3 1h3l1-11Zm14 23 3 3-2 3-4-2 3-4Zm16 11 6 2-1 4v2l-6-1 1-7Zm-16 7 3 3-2 3-4-2 3-4Zm15 1v6l-24 44-11 3-1-3 16-16 20-34Zm-173 5 5 3v3l-6-2 1-4Zm-6 6 4 4 7 13-8 1q-8-4-3-18Zm36 0 11 1-2 5-9 3v-9Zm78 7 5 3v2l-6-2 1-3Zm-30 6 5 18 8 9q15 1 22 11l-12 3-15-11-3 6 4 4 7 5 1 17-11 7q-8 9-8 26l-11-1v-38l3-3 15-1-6-10 1-42Zm36 5 17 15v3h-9l-8-18Zm95 18 2 1-12 5v-1l10-5Zm-280 18 4 2 1 4h-5l-2-4 2-2Zm12 0 4 2-1 4h-6l3-6Zm29 6 5 2-1 4-5-1 1-5Zm99 60 3 1-2 11-5-2 4-10Zm-59 66 11 6h-4l-7-6Z"/><path fill="#C98858" stroke="#C98858" stroke-width="3" d="m345 108 3 3 2 3-2 1v2l-6-3 3-6Zm10 10 3 2-3 1 10 5h-7l-7-5 3-1 1-2Zm-155 20 5 1-1 4 1 1-7-1 2-5Zm10 0 3 1 3 6-1-1-3-1-1-4-1-1Zm38 6 4 3-1 3-5-1 2-5Zm186 36 8 8 2 7-3-3-3 1v7q-8-4-6-18l2-2Zm22 5v6l-4 1-4-5 8-2Zm-311 25 11 2-3 4-3 1 2 5 4-1v6l-2 1q-10-5-9-18Zm269 0 9 1-2 4-1-2-2 3 1 1-9 6-2 14-3 3h-3l-1-12-19 6 2-3-3-9h-5l8-6 2 4 11 2 17-12Zm24 0 2 1-12 5v-1l10-5Zm-227 10 5 8-1-1-7-4 2-1 1-2Zm-23 14 12 6h-2l-10-6Zm149 0 2 1 9 24-5 7-1-2 4-10-9-8-2 4-9 4-7 13-8 3 10-11 13-19h2l1-6Zm-152 6 18 6h1q3 13-3 18l-7-1q-1-16-9-23Zm103 4v6l-4 2-2-4 6-4Zm-58 14 7 1-3 7-6-3 2-5Zm106 12 2 1-12 5v-1l10-5Zm-74 6 8 4v3l-2-1-10 9q-3-12 4-15Zm50 3 1 3 5 4v2l-6 1 4 6-7-7-2 1-1-7h2l4-3Zm-83 3 7 6-2 1v1l-5-8Zm-30 6 2 1 3 8-1-1-4-1 2-1-2-6Zm126 0h27l2 3-9 21-11-5 8-1-7-10-4-2-1 5-5-11Zm-18 13 11 19-10-9-1-10Zm-37 2v4l-3 5q-23-4-31 6l-2-5 5-1 2-3 11-5 1 7 17-8Zm55 7 5 13h-1l-4-13Zm-54 14 5 4v9l-4-1-2 1 1-13Zm0 17 4 1h1l-1 6-5-1 1-6Z"/><path fill="#6C647C" stroke="#6C647C" stroke-width="3" d="m348 108 6 3v7l-6-10Zm-132 4 1 2 1 1-6 4v-1l4-6Zm63 2 6 1-2 4-4 1-3-3 3-3Zm11 0 5 2 2 4h-7l-2-4 2-2Zm25 36 3 6h-2l-3-4 2-2Zm116 0 11 6h-3l-8-6Zm-112 19 8 11 3 3-3 9-3-1-1-4 1-2-5-16Zm-74 3 1 1v8l-4-1-2 5 5 1h1l-3 5-7-9 4-3-1-4 6-3Zm218 3 5 13-4-3-1-10Zm-127 14v3l-5 10-10 3 1-2 2-4 1 2 11-12Zm-20 3 2 1-3 5-1-2 2-4Zm-229 6 3 3-2 3-4-2 3-4Zm237 15 1 2-4 1 3-3Zm-73 2 1 1h-1v-1Zm-10 7-1 2 1 4h-4l-2-3 6-3Zm9 0 2 2-1 4h-6l5-6Zm137 54 3 3v4l-4-1-2 1 3-7Zm-9 38 1 3-6 9-1-1 6-11Zm-167 24 5 14h-1l-4-14Zm-94 10 3 3v3l-6-2 3-4Zm294 6 9 3-1 3-11-2 3-4Z"/><path fill="#000502" stroke="#000502" stroke-width="3" d="m229 111 6 10-1 3-5-13Zm55 9 4 3v3l-6-2 2-4Zm-22 6q10-2 13 4l5 7 14 8-7 9-11 2-17-9-2 1-5-11 3 1h3l4-12Zm45 12 3 2 2 4h-3l-2-6Zm25 6 1 1-2 1-3 4h-2l4-3 2-3Zm24 6 1 1-2 1v1l-1-1 2-2Zm-180 11-2 5-4 2-1 3-1-2 4-7 4-1Zm-52 1 11 1-8 5-2-4h-2l1-2Zm134 0q17-2 25 6l14-6-3 4q1 14-6 21l4 4 3 1 5-3 1-3 5 3 1 3 5-3 3 14 3-2v4l-6 17-6-3v-3l-4 2-2 5 4 5 2 1-2 5h-4l-2-5-2 1-2 7 3 3h-22l1-2-18-7v-10l-7-17-11-3-1-8 2-3 3 2 2-18 6-11 1 2 5-3Zm21 55-2 3 9 7 1-2-8-8Z"/><path fill="#000502" stroke="#000502" stroke-width="3" d="m304 162 9 2q7 5 5 19l-8-8-9 5-1-6 5-9-1-3Zm25 12 6 3 1 7h-1l-6-10Zm-96 18 1 1v2l-1-3Zm91 26 1 4 3 1-12 5 2-3 5-2-1-3 2-2Zm131 76 1 1v1l-1-2Zm-298 10 1 2h-2l1-2Zm299 0v2h-1l1-2Zm-67 8 5 1-9 7-1-3 3-4 2-1Zm-204 5 4 2 4 7-4-1 1-2-7-4 2-2Zm-88 1 1 1-2 1 1-2Zm15 12 14 9-3-3-11-6Zm33 12 5 1-2 5-4-2 1-4Zm260 0-2 3 1 2 1 1h-1l-2-3 3-3Zm34 0 11 9v1l-6 2v-1l-1-5-5-2 1-4Zm-312 1 3 5 2-1v5q-3 5-6-2l-4-1 4-1 1-5Zm-16 6q-5 4 5 9l3 2h-6l-4-2-1-6 3-3Zm40 27 1 2h-2l1-2Zm242 8 6 1-2 4 2 1h-6l-3-3 3-3Zm26 6 1 1v1l-1-2Zm1 4v2h-1l1-2Zm-16 7 1 3-1 2 16 5-5 6-5 1-14-12 2-4 6-1Zm-101 1 3 3v3l-6-2 3-4Zm152 0 1 1v1l-1-2Zm-343 6 10 6h-3l-7-6Zm124 6 4 2-1 10-5-1 2-11Zm69 7 1 1-2 10h-9l6-9 4-2Zm37 5v12h-3l-3-6 4-5 2-1Zm114 11 9 7h-2l-11-5 4-2Zm-263 5 11 6 4 7 8 5-3 8-8-3-10-15-3 1v5l-11 4-6 14-1-12 7-15 3 2 3-5h5l1-2Zm-14 2 1 1v1l-1-2Zm62 0 5 3v3l-6-2 1-4Zm81 0 8 3-9 15q-6-3-3-14l4-4Zm145 0 1 1v1l-1-2Zm2 3 2 4 6 5h-2l-7-3 1-6Zm-306 3 1 1-2 1 1-2Zm128 6 3 2v4l-6-1 3-5Zm90 0 9 3v9l-6-2-1-4h-5l3-6Zm-216 5 3 6-3 1-3-4 5 3v-2l-2-4Zm-20 1 1 1-2 1 1-2Zm207 0q11-3 14 3l-3 9h-12l-2-7 3-5Zm58 0 1 1-2 1 5 10h-3l-3-10 2-2Zm75 0 6 3 2 4-1 3-7-10Zm-340 4 1 2h-2l1-2Zm12 2 5 2-1 4-8 1 3-4 1-3Zm138 0 5 3v3l-6-2 1-4Zm146 0 3 1-2 5h-4l3-6Zm-161 6 8 3-2 3-4-1-2-5Zm217 0 1 1v1l-1-2Zm-4 4 1 2h-2l1-2Zm5 0v2h-1l1-2Zm-285 2 3 2-5 15-1-14 3-3Zm10 0 5 3 1 3h-4l-2-6Zm32 0 3 3v3l-6-1 3-5Zm51 0 6 2-1 4-11 4v2l-4-1-2-5h2l10-6Zm37 0 3 2 2 8-8 2-4-8 7-4Zm70 0 1 1v1l-1-2Zm-262 4 1 2h-2l1-2Zm5 0 1 3-1-1h-2l2-2Zm258 0v2h-1l1-2Zm-155 8q9-2 11 4v2l-12-3 1-3Zm54 0 5 2-1 4-5-2 1-4Zm-156 4 1 2h-2l1-2Zm5 0v2h-1l1-2Zm163 2 4 2-4 8-2-4 2-6Zm78 5 4 1h1l-2 6h-2l-1-7Zm-85 10v3l1 6h-2l-5-2 6-7Zm-71 1 1 2h-2l1-2Zm5 0v2h-1l1-2Zm-16 1-2 5-9 2v-1l11-6Z"/><path fill="#605473" stroke="#605473" stroke-width="3" opacity=".937" d="m286 114 2 1v5h-6l4-6Zm9 0 5 4v2l-4-1-1-5Zm-29 1 3 1 1 6-3-3h-2l1-4Zm-7 3 4 4-4 8-3 2 2-3-1-8 2-3Zm139 21 3 1 1 4h-2l-3-1 1-4Zm-145 1 4 10h-4v-10Zm132 6 5 13-1 2-8-5-3-7 3 1h3l1-4Zm-66 6 5 11-1-1-4 1-3-6 2-1 1-4Zm-199 12v7l-9 3v-1l7-5 2-4Zm336 9 7 2-1 6 8 11h-4l-3-1-3-11-4 1v3l-2-4-4-2 3-4 3-1Zm-48 3v10h-2l-3-1 1-4 2-1 2-4Zm-85 10 1 4v2l-5 2-1-2h-2l7-6Zm1 9 1 3 2 1-3 2v-2l-5 9-1-3 6-10Zm-85 15 11 6-4 1v3l-2-4h-4l-1-6Zm145 74v4l-5 10-1-3 6-11Zm-185 54 5 14h-1l-4-14Zm18 12 13 22h-4l-9-22Z"/><path fill="#604352" stroke="#604352" stroke-width="3" opacity=".988" d="m266 114 2 1-3 1 1 3 4 4-3-3-3-1 2-5Zm-7 3 5 5-2 4 1-2v-3l-4-4Zm139 21 2 1-3 1 1 3 1 1h-1l-2-4 2-2Zm-145 12 1 1-2 1 1-2Zm153 29-1 2-2 1v2l-1-2 4-3Zm-169 1-1 2v1l-1-1 2-2Zm84 6 1 1-6 5 5-6Zm142 3 1 2 1 1h-1l-1-3Zm-138 2-1 2-1 3v-1l-1-2 3-2Z"/><path fill="#7B4019" stroke="#7B4019" stroke-width="3" d="m342 112 6 15-1-1h-6l1-4-2-2-3 5-1-2-5 8-1-4 6-11 6-4Zm-113 4 5 15h-1l-4-15Zm-20 2 1 1 1 1 2 1-8 5-1-5 5-3Zm-12 6 1 1 1 1 4 1-5 3-5 13 1 1-2-6h-3l3-10v-2l5-2Zm19 2 2 1-2 16 6 2-3 5 1 1-11 4-13-10 9-1 5 4 1 2 5-3-6-15 4-5 2-1Zm163 4 5 13h-1l-2-5-2 1v-9Zm-147 3 1 1-2 4h-3l4-5Zm134 5 1 1-2 3-9 2v-1l10-5Zm25 3 11 7v8l-11 2-6-13h-3l8-1 1-3Zm-216 1 11 3-3 4-8 1-2-5 2-3Zm-15 14 2 1-5 11 5 1-6 14-7 4-2-1 7-7 2-16-5-1 9-6Zm249 0q12-1 15 8l2 7-7-7-11-5 1-3Zm2 11 15 9-5 8 5 11h-1l-13-15-3 1-1-1 4-6h2l-3-7Zm-273 5 1 2 5 2-5 7-17 11-2 5 8 9 13 8 3 11h-1l-4-8-17-10-5-11-8-2 1-2 9-5 2-12 17-5Z"/><path fill="#7B4019" stroke="#7B4019" stroke-width="3" d="m139 195 1 1 1 2 15 6 4-6 3 1-1 11-24-7 1-8Zm276 3 8 1-23 16-16-5-23 21 7 7 22 4 2 10q10 0 14-7l2-17 4-6 19-6v1l-17 9 5 12-9 4-9 14-17 4 1 17-2 1-19 33-16 19 8 1-17 17-44 26-1-2 4-5 8-4q3-15-3-20l-8-4-1-3 3-5q6 10 22 11l5-3-28-16-8-22v-18l6-12-2-1 6-12 11-5 16-28 5-2 2 6-1-1-6 4-13 20-3 13-15 17v29l11 5 3 8 23 6 5-3-1-2 7-1-11-15-6-3-1 4-6-11 3 1h3l1-3 6 6 5 6 5 3 3 4 5 2 10-8-5-6-1-16h-20l-3-2 2-8 14-9 2-17-3-5 4-1 5 4 2 2 2-1 2-5-6-12 9-11v-2l6-4v-2l22-11-1 2 2 2 13 2 4-9 6-3Zm-46 60-3 4 4 2 2-3-3-3Zm0 18-3 4 4 2 2-3-3-3ZM99 199l9 9v2l-11-8 2-3Zm76 3 18 15-1 4 18 16v3q-17-5-27-17l-12-18 3-1 1-2Zm275 8 2 1-12 5v-1l10-5Zm-336 6 1 1-1 4 6 1 1-2 10 12-2 1-20-13 1-2 4-2Zm44 0 13 12 23 42 8-1 6-11 15 3 17 15 18 1v6l-14 23 1 1-7 4-4-2-1-3-17 8 8 8 11 2 9-6 8 6 18 2-11 16 9 2 4 10 4-1 2 2-2 16-8-11-4 2 5 8-2 1-9-10q3-14-3-19l-3 1-2 10-14-12-5-10-25-15-12-11-9-17h-5l4-6h2l2-6h10l-1-4-8-2-7 6-2-2 6-5-3-11-14-21-6-3-1 4 6 4-1 4-3 2v1l-8-20v-11l2-2Zm48 54-2 5q23 5 33 24l15-7v-4l-12 1-2-1-5-8-27-10Zm-18 7 12 29h2l4 6 4-1-1-4 7-2-7-13-4-4-1 5-2-3-14-13Zm23 5-1 4 6 2v-3l-5-3Zm4-60 7 4v7l-7-11Zm229 0 4 1-7 5-2 5-1-5 4-5 2-1Z"/><path fill="#7B4019" stroke="#7B4019" stroke-width="3" d="m239 228 15 1-2 6 10 16 12 9 2 33h-1l-5-10-1-25-53-13 2-5 5-1 6 1 11-6-1-6Zm-94 1 19 27 3 1 2-1 5 3-3 5h-3l-1-4-10-5-13-20 1-6Zm135 11 5 1-8 11h11l-2 4-6 2q-7-3-4-14l4-4Zm8 0 6 3-2 3-2 1-1 3-1-10Zm144 6 1 1-1 4 1 1h-6l3-5 2-1Zm-40 24 5 1-1 4 1 1-7-1 2-5Zm-14 25v5l-11 22-1-4 12-23Zm-102 6v16h-1l-2-5h-3l6-11Z"/><path fill="#EBB778" stroke="#EBB778" stroke-width="3" d="m344 114 10 10q3 11-2 14l-4-2q2-16-4-22Zm-138 24 4 2v4l-6-1 2-5Zm46 11v5l-3 2-3-5 6-2Zm187 43 5 4q2 10-3 14l-20 6v-1l2-4-2-1 17-7 1-11Zm-288 24 5 1-1 5-5-1 1-5Zm44 0 4 1-1 4 1 1-7-2 3-4Zm183 6 4 2 2 7q-3 6-15 3l-2-2 7-8 4-2Zm-203 6 29 15-1 3q-20-3-29-15l1-3Zm162 18 9 8-3 9-9 7 1 1-27 11-2-6 4-6 11-5 7-13 8-3 1-3Zm-9 12-4 12h3l9-11-8-1Zm-90 0q14-3 19 4l1 11q-2 5-12 3l-10-7-2-5 4-6Zm30 24 2 2q5 17-3 22l-14 5-1-11 6-11 1 2 9-9Zm-33 6 5 3-2 3-4-2 1-4Zm73 0 6 6-2 1q1 14 12 19h1l5 14-2 1-8-6-14-22v-11l2-2Zm-109 6 5 4v8h-3l-2-12Zm132 0 11 10v2h-9l-2-12Zm-59 42 4 2-1 4-5-1 2-5Z"/><path fill="#C1CBEE" stroke="#C1CBEE" stroke-width="3" d="m349 114 2 1 2 5h-1l-3-6Zm78 42 8 6h-2l-7-3 1-3Zm-289 2v2h-1l1-2Zm105 4 3 3-1 3h-5l3-6Zm206 6 7 3-2 3h-4l-1-6Zm-341 2 2 4 2 1-4 2-2 3-4-1 2-5h2l2-4Zm364 10 8 10h-1l-7-10Zm-3 3 9 9h-1l-10-7 2-2Zm-268 33 3 2 2 4h-5l-3-3 3-3Zm175 90 2 1-6 11 2 1-1 3-5 3-1 3-2-2 11-20Zm-16 28v5l-17 31-1-3 6-12-3-1 9-16 6-4Zm6 6v2l-5 8-1-1 6-9Zm-155 9 17 35 1 18h-3l-18-47 2-1 1-5Z"/><path fill="#927B97" stroke="#927B97" stroke-width="3" opacity=".996" d="m203 121 1 4-5 1-1-2 5-3Zm50 4 4 1h1l-3 6-2-7Zm62 1 3 3v4l-4-1-2 1 3-7Zm53 0 10 4-1 8-5-1-1-9-3-2Zm-176 5-1 2-2 5h-4l4-6 3-1Zm121 6 4 1h1l-2 6-4-2 1-5Zm66 7 5 4v2l-6-3 1-3Zm-235 4 2 8h-5q-7-4 3-8Zm175 19 3 3 2 3 1-3 1 4-2 1v1l-5-9Zm123 7 11 12-7-1-4-11Zm-111 4 5 11-11 9-1-5 4-2 2-8-1-3h1l1-2Zm-1 24v2l-5 10-1-4-4 2-2 4 2 1-4 5-4-2 10-16 8-2Zm-93 2 12 7 2 4h-1l-16-7 3-4Zm14 12 1 1 3 5 3 3-2 3h-5l1-4v-2l-1-6Zm135 66 4 2v5l-4-1-2 6 2 1-2 6-4-1-3 2 9-20Zm-2 23-1 2-4 9-2-2 5-8 2-1Zm-18 15v4l-3 6-8 3 1-2 1-2 7-5 2-4Zm-12 14v3l-5 10-5 3-1 3-1-7 12-12Zm-149 16 5 14h-1l-4-14Zm12 5 6 13-1 3-5-16Z"/><path fill="#F8F8FD" stroke="#F8F8FD" stroke-width="3" d="m255 120 3 3-2 3-4-2 3-4Zm-4 19 1 5h-5l-1-2 5-3Zm-100 5 5 3-2 3-4 2 1 4h-3l-4-8 7-4Zm-22 12 3 2-1 4-5-2 3-4Zm-18 6 8 1-5 8-5 2-1-8 3-3Zm136 54 2 1 2 5h-4v-6Zm125 106v2l-3 6h-3l6-8Zm-171 8 3 3v9h-3l-3-9 3-3Zm162 6 3 2-18 33-2 13-4-2v-10l21-36Zm-158 7 5 11h-2l-3-11Z"/><path fill="#4A0C01" stroke="#4A0C01" stroke-width="3" d="m330 121 1 12-1 4 18 7v-2l-2-4 3 3 2 3 8 1-11 6v6l-4-1-2 1-3-12-11-1h-6l3-18 3-1 2-4Z"/><path fill="#4A0C01" stroke="#4A0C01" stroke-width="3" d="m342 126 1 1-1 5v3l-9-3 9-6Zm-107 3 5 5-2 4h-7l4-9Zm-18 6 4 3 1 5-3 1-2-9Zm168 0 6 4-1 5-4-1-1-8Zm-219 9 8 3-5 2-3-5Zm27 0 16 12h-9l-4-5-4 3-1 2-19 6 2-3 18-12 1-3Zm39 0 9 1-1 6 7 11h-8l1-2-8-10-10 4v3l-4-1h-7l16-9 1-2 1 4 3-5Zm65 0q11-2 15 4v9l-5-1-1 5 1 1h-14l1-5-10-1-2 5 1 1-10-5q16 1 21-9l3-4Zm112 3 10 9h-9l-1-9Zm-150 1 14 14h-21v-1l6-9v-2l1-2Zm-99 2 7 1-10 5v-1l3-5Zm236 6 6 3 1-2 5 14-14-13 2-2Zm-258 9v6l-28 11-4 9-7-4 8-4 2-6 29-12Zm211 4 5 16h-1l-4-16Zm-187 6v6l-8 17-10-3 1-6 14-8 3-6Zm49 9 9 2 2-1-3 6-6 1-2-8Zm-115 5v8l-4 1-2-4 6-5Zm247 4 6 15-4-3-2-12Zm53 5 17 1q-7 8-25 5l2-3 6-3Zm-43 11 3 1 4-1 1 7 7 1-13 9-1 20-5-2-2 1-2-4 3-1q-2-18 6-26l-5-3 4-2Zm-130 17 5 5 1 3 5-3 1-4 5 5v2l-16 5-1-13Zm90 2 8 1q-23 13-32 41l5 1-6 11v33q-11-9-6-33 8-4 6-17h-1l-10 8-1-14 11-4 5-9 2-1-1-4q14-1 19-10l1-3Zm-51 6 11 6h-3l-8-6Zm-92 12 4 2v4l-6-1 2-5Zm217 12 15 8-1 4-17-1 3-11Zm-212 1 8 5 2 5-9 1-1-11Zm7 29 4 3v3l-6-1 2-5Zm-7 3 5 9h-2l-3-9Zm33 33q12 2 17 12l3 9-20-21Zm69 3 8 3 3-2q-3 18 6 25l-17 1v-27Z"/><path fill="#DCD6FC" stroke="#DCD6FC" stroke-width="3" opacity=".996" d="m184 132 2 1-2 5-3-1 3-5Zm131 0 3 3-2 3-4-2 3-4Zm-159 16v5l-1 2-3 1-2-4 6-4Zm-24 8 5 2v3l-5 1v-6Zm296 0h10l15 7 3 7-2-2-10 1v5h-3l-4-12-9-6Zm36 19 8 5 7 9v2l-10-8-2 1-3-9Zm-293 23 2 2 1 4h-3l-3-3 3-3Zm74 22 1 2 2 1-4 5-4-2 3-4h1l1-2Zm142 68 2 2-2 4h-3l3-6Zm-9 22v2l-3 6h-3l6-8Zm-12 16 1 3v1l1 1-2 6-3-1-3 2 6-12Zm-161 8q7 5 5 19h-1l-4-10-1 3-2-3 2-1 1-8Z"/><path fill="#7B0000" stroke="#7B0000" stroke-width="3" d="m332 132 10 3 1-2 5 11-1-1-17-6 2-5Zm-8 12v17h-1l-5-13 6-4Zm-79 12 9 1-3 5-5-1-1-5Zm26 0 5 4v2l-6-3 1-3Zm13 0 10 1-1 5-11-1 2-5Zm23 0 5 2-2 4-4-1 1-5Zm42 19 5 16h-1l-4-16Zm-6 6q7 6 5 22h-1q-7-7-4-22Zm12 18 5 10-4 1h-3l2-11Z"/><path fill="#D80000" stroke="#D80000" stroke-width="3" opacity=".996" d="m219 156 3 3v24l-3 3-9-3 9-27Zm126 0 3 3v22q9 8 6 28h-1l-5-2q3-19-6-26v-22l3-3Z"/><path fill="#5A662D" stroke="#5A662D" stroke-width="3" d="m100 210 2 2-1 4h-2l2-1v-4l-1-1Zm10 18 4 2 3 4-2 1-2-4v-2l-4 1v2l-1-2 2-2Zm329 9v2h-1l1-2Zm-311 15 1 1-2 1v2l-1-2 2-2Zm18 12 1 1-2 1v2l-1-2 2-2Zm8 0 2 2v1l-1-2-1-1Zm255 3 1 2 2 1h-2l-1-3Zm-11 3 1 1-2 1 1 3 2 1h-2l-2-4 2-2Zm-132 90 7 6-5-5-3 1 3 5-4-3 2-4Z"/><path fill="#538238" stroke="#538238" stroke-width="3" d="m469 198 5 4-5 10-1-4 1-10ZM95 210l6 2v3l-3 1-3-6Zm361 15-1 4-1 3-5 3-2-1 9-9Zm-12 1v3l-4 8h-2l6-11Zm-334 3 3 1 3 4q-3 5-5-1h-2l1-4Zm20 23 4 1-2 3 2 2-7-1 1-4 2-1Zm279 10 7 3-3 4h-4v-7Zm-261 2 7 2 1 4h-8l-3-1 1-4 2-1Zm252 6 2 1-1 4h-4l1-4 2-1Zm-58 76 1 8 2 1-6 17-3 2 1 4-7 2 1 4-31 2 5 8-11 14-17 2-1-2q-14 3-18-3l-1-3-4 1-5-1-2 6q-17 2-23-5l11-2v-11l-9-17 6-1 6 11 17 1 16-6-5-16 3-1q13 9 9 35h11q-2-22 13-27l41-23Zm-82 50-2 5 5 1 1-4-4-2Zm160-37v4l-5 3-3-5 8-2Zm-248 7 2 1 1 3 3 2-4 1v1l-5-3 3-5Zm176 17v5l-3 2-5-5 8-2Zm-96 49 6 2-1 4h-6l1-4v-2Zm-33 18 5 1-2 3 2 2-8-2 3-4Zm-35 12 5 1 3 11h-5l-3-6-3 1v-1l3-6Zm144 0 5 1q-5 2-3 12l3 5h-2l-5-2-2-9 4-7Zm-88 7v9l-3 2-3-4 4-3 2-4Zm104 5 4 2 2 2 4 2h-16v-1l4-2 2-3Zm-7 22 11 6 1 2 5-2v2l-8 18-4-2v-10l-6-3 1-11Z"/><path fill="#76B062" stroke="#76B062" stroke-width="3" opacity=".996" d="m93 210 3 3 1 3h-4l-3-3 3-3Zm374 1 1 1-11 14-10 8 1 1-7 5-2-2 7-14 21-13Zm-352 24 8 6 2 4-1 1-10-9 1-2Zm320 11 3 3-2 3-4-2 3-4Zm-300 6 3 3-2 3-4-2 3-4Zm276 6 9 3-9 3-3-3 3-3Zm-65 96 2 1-5 10-1-7 4-4Zm-187 6 3 3-2 3-4-2 3-4Zm247 6q7 5-4 9l-4 2-1-1 2-3v-2l7-5Zm-157 60 9 4v2l-12-2 3-4Zm66 0 9 3-2 3-10-2 3-4Zm-90 12 3 2v4l-6-2 3-4Zm18 0 10 1-1 4 1 1-13-2 3-4Zm79 0h18l2 3-2 3h-22l4-6Zm-97 12 3 1-1 5-5-2 3-4Zm126 6 3 3-2 3h-4l3-6Zm-131 6q16-4 20 4l-3 8-3 2v3l-18-8 4-9Zm114 0 8 1 6 8h1l4 8h-1l-4-2-1-3-5 2-1 2-7 2q-6-4-4-14l4-4Z"/><path fill="#F3C7AD" stroke="#F3C7AD" stroke-width="3" d="m328 258 8 1-9 11h-3l4-12Zm14 4v5l-7 3 7-8Zm-29 32 2 1 9 19-10-9-1-11Z"/><path fill="#01290C" stroke="#01290C" stroke-width="3" d="M420 262v3l-3 4-3 1v-1l6-7Zm-268 26 15 6h-5l-10-6Zm286 6 5 1-27 11v-1l22-11Zm12 0 6 3-2 9h-10l-18 10v3l-12-1 2-6 23-6 11-8v-4Zm-293 4 10 6 7-4 1-2 1 3 7 5-3 1 6 8 1-2 2 5h-3l-14-12q-13 3-16-2l1-6Zm-58 20 10 1-1 4q20-2 30 7h13l9 6 14-7-1-4 2-1 17 10 1 2 3-1 2-4v12l14 29-2 1q8 3 6 17h-2l-7-18-3 1-1 17q-15 2-17-9l-6-14 7-1 10 6 1-2-6-7 6-3-1-6h-12l1-4-5-2-1 3-3-3h-22l1-4-4-2h-2l-6 1-4-1-2 5 1 1-6 3-1-9q-10-12-28-14l-8-7 3-3Z"/><path fill="#01290C" stroke="#01290C" stroke-width="3" d="m152 318 15 6h-5l-10-6Zm226 2 1 4 5-2 1 2 17 2-1 4-11 2-6 15 24 8v5q-15-1-18 9l-2 3h-4l6-10-3-2q-13 6-15 23l6 2-2 4-8-6-3-17-5 2q2 16-7 20l-4 2-1-11 24-53 4-2 2-4Z"/><path fill="#01290C" stroke="#01290C" stroke-width="3" d="m404 330 7 1-3 8-6-4 2-5Zm-2 12 2 1-2 4 1 1-7-1 2-3 4-2Zm-288 6 1 1-1 4 11 7h-5l-11-8 5-4Zm43 7 11 8-5 3-2-6h-5l1-5Zm263 11 2 1-8 6 2-5 4-2Zm-274 6 10 2-1 4 1 1-10-7Zm22 12-1 2-10 13-4-8 15-7Zm151 6 5 2v4l-6-3 1-3Zm89 0 12 3-2 3-22 8 12 13 5 1 7-6v6l-12 2-18-8v-4l-6 3-2 3h-4l8-10q15-1 22-10v-4Zm-72 6 6 2-12 16v11l3 1 14-6 1 5-4 3-1 3-1-5-5 4-1 6 2 2h-22l8-7q2-15-6-19l18-16Zm114 6 6 3-6 3v-6Zm-143 4 5 9-5 10-3-5 2-9-1-3h1l1-2Zm-71 2 9 6 1 3-1 3-3 2-3 16-5-1 1-12 4 1 1-10-4-2-2 1 2-7Zm202 0 5 1-12 5 3-4 4-2Zm-184 6 4 2v4h-6l2-6Zm-100 7 8 8-1 3-8-5q-6 10-19 11l-2-2 22-15Zm-28 3v3l-5 7-1-2 6-8Zm147 2 3 2-1 10-5-1 3-11Zm23 3-1 2 1 1 10-2v3l-3 4-7 1-2-7 2-2Zm149 1 10 8-3 1-8-2 1-7Zm-233 2 4 2h1l3 4 2 1v5q-10 2-12-3l2-9Zm72 0 4 2-1 4-5-1 2-5Zm-170 6 2 1-2 4 4 1 7-6 1 3q-5 9-17 10l-1-7 4-5 2-1Zm348 5 6 4v5l-8-7 2-2Zm-284 1 2 7q-8 6-6 23h3l3-2-6 9 7 10 13-6v2q-6 9-26 5l-9 6-3-6h2l10-1-1-5h-7l2-5-2-1 2-5v-2l-1-5q-13 4-17-2l3-4q14-2 20 6l1-3-6-12 16-9Zm-9 36-1 3 6 3v-3l-5-3Zm76-36 5 2 2 5-3 5-7-1-2-6 3 1h3l-1-6Zm25 0 6 2q-4 24 7 34h-1q-8-8-24-7l2-11 9 6 1-2-12-10 8-10 4-2Zm158 0h11l29 14-6 9 1 1-7-3-1-3 1-4-16-2-2 6 5 1-11 5-6-3-6-14h2l9 5 1-2-4-10Zm-76 1 2 1v10h-6l4-11Z"/><path fill="#01290C" stroke="#01290C" stroke-width="3" d="m205 448 10 8 23 2 2 4-22 1-2 9 18 11-1 3-5-1-2-5-4 1 2 5-8 2v21l-6-11 6-16-7-2 1-2-14-16-9-5-6 10-1-5 4-5 8-1 1-6 9 8 6 9 5 1 3-8-11-7v-5Zm125 0v3l-5 7-1-2 6-8Zm32 2 4 2-1 4-5-1 2-5Zm-68 6q13-2 16 8l2 17-1-1-15 6q-1-16-8-24h6v-6Zm1 12 2 6 4-1 4 1 1-4-5-2-1 2-5-2Zm39-12 8 3-2 3h-12l3-1 3-5Zm44 0 2 1-2 5v2l-1 2-9 4-5 9-6 1-4-2-1-3 12-2 2-8-1-3 7-1 2-3 4-2Zm11 0q21-3 30 6l-11 2q-2 15 6 20l-11 4-1-2 4-6h2l-2-6-10 2 2 16 4-1 4 3 2 5-1-1-5 1v1l-9-2-3 2q4-23-6-33l3 1h3l-1-12Zm87 6 4 2 2 10h-2l-6-3v-3h-5l5-3 2-3Zm-228 6 4 2-1 4h-5l2-6Zm245 1 5 9-3 2-8-5 5-1v-2l1-3Zm-339 5 4 1-2 5 2 1-4 5-4-2 4-10Zm165 6 5 4v2l-6-1 1-5Zm27 0 8 4-2 8h-6l2-6-2-6Zm-87 4 7 8-8 1v1l-6-8h6l1-2Zm53 1 4 6 11 7-3 1-7-1 1-4-5-2-1 3-4-3-10 18-4-1 6-11-3-5 3-1 2-4 10-3Zm56 7 12 6-3-1-9-5Zm-103 12 4 1-20 11-5-6h2q13 1 19-6Zm59 1 1 4-4 7-2 1-1-1 6-11Zm5 17 12 6h-5l-7-6Z"/><path fill="#335379" stroke="#335379" stroke-width="3" d="m147 288 9 4v2l-12-2 3-4Zm40 22 1 2h-2l1-2Zm1 3 6 5-2 1v3l-4-9Z"/><path fill="#055B37" stroke="#055B37" stroke-width="3" d="m157 291 17 7v2l-10 4-9-10h1l1-3Zm287 3 6 2-7 8-29 10-8 10h-22l8-10q8-10 29-8l23-12Zm-263 12 5 3v5l-5-8Zm-71 12h41q7 8 23 8l-1 4-14 5-32-11-19-1 2-5Z"/><path fill="#055B37" stroke="#055B37" stroke-width="3" d="m416 318 10 2-2 4h-9l4-2v-2l-3-2Zm-2 6v3l-8 3 2-3 6-3Zm-294 24 6 4v2l-6-2v-4Zm309 0 9 2-1 4-11 2-3 10-12 6 2 1-19 11 4-5 1-2 9-7-1-4-15 8-1 3 1 1-2-8q5-10 19-11l5 5 1 2 5-2-1-9 10-7Zm-273 6v4l-5 2-1-2 6-4Zm-29 6 10 6h-5l-6-3 1-3Zm261 0 2 2-8 10 1 1-5 3v3l-4-1-2 1 16-19Zm-249 6 10 6h-5l-6-3 1-3Z"/><path fill="#055B37" stroke="#055B37" stroke-width="3" d="m362 366 4 2q-2 17 9 22l3-2 7-10 5 3 2 9 16 2-7 8q-16 1-23 11l-2 3h-7q7-11 21-13l-1-5-23 8 1 10v2l3 3 27 1 41 18q16-2 23 6l-2 1 31 25 2 4h-8l-5-12-5 2-1 2-9 2-2-2 6-8-29-14h-13l-1-4-36-2 1-10-4-2-2 11 1 1h-8l1-4-4-2-4 6-21 10-2 8-5-2-1-4-9 2-2 4 3 1-2 4-1-2q-7 4-6 16l4 4 13 2-5 3 2 8-2 1v18l7 17h-1l-19-6 1-5-3-1 9-16v-8l-8-12-4 1 2 5 4 3v3l-11-3q3-22-6-30l-17-3-2 7q9 7 6 26l-3-3h-3l-1-6 1-4-12-10-1-22-14 6-3 6 3 1-9 10 6 4 2 3q15-2 21 6l-17 1v7l-7-8-5 2v7l-12-6-2-20 2-1-3-5 3-1-9-17-7-1h-2l-4-1-5-10-18-6 3-1-1-6-5 1v2q-8-15-36-9l-5 3 1 1 27 5v1l-23 2-24 15 2 3 10 1-1 3-11 2-21 12-3-4 18-10-1-4-9 6-2-2q11-6 12-22l-5-9-19-5 3-4q15-2 22 6l11-6h43l23 12h7l4-2v-2l-34-14h-19l5-10-1-1q-5 8-19 5l-3-3 10-4 2-4 1 5 8-5 3 3 1 4 3-2 8 6v-8l-2-4h2l-3-5 6-1 5 12-2 1 2 5h4l1-2 10 2 2-18 3 2q0 12 8 18h1l5 10-6 1 2 5 7 6 9 15 2 9 5 1-1 4v2l4 11 6-1 2-5-3-5 9-2 6-10 6-3 2 8 4-1-1-10 1-7-3-6-3-1 2-5 4 1 2 11 7 1-3 4 3 1 9-14-2-4h2l1-3 11 7-3 8 2 1-8 5-3 9-10-3-2 5 19 1 4-3 5-9 3 1-1 4 8 2q-10 4-8 22l5 1h1l2 6 7-5 3-11v-2l12-1-1-4 5-13 7-2-6-14-4-1 17-2v-5q-17-2-23 6l-1-2 6-8-6-2-18 15v4l-4-1-2 1-7-13h-7l8-9q-10-5-3-9h36l3 4 2 2 4-1h2l7-4 5-19Zm-43 24-1 4 6 2v-4l-5-2Zm-5 6-2 5 5 1 1-4-4-2Zm-182 12-6 4 2 7 9 1 1-10-6-2Zm231 13-2 3 3 1 1-2-2-2Zm-107 29-4 6h3l3-5-2-1Zm-8 18-2 6h5l1-4-4-2Z"/><path fill="#055B37" stroke="#055B37" stroke-width="3" d="m255 402 3 3 7 15 4 2-2 4-3 1-2 5-4-2v-2l-4-1-2-4 6-3-1-12-4 1-1-4 3-3Zm156 0 39 2-1 4q-15-2-20 6l-2 5-2-3 1-4-5-4h-2l-11-2 3-4Zm-23 6 2 1v5h-6l4-6Zm-141 5 4 1h1l-1 4-4 2v-7Zm-84 13 5 4 1 2 2 1-3 4 1 1-19-1 2-5 10-1 1-5Zm25 12 13 6h-3l-10-6Zm14 0 8 3 3 3 3 3-1 3-13-12Zm21 5 5 3-1 4h-6l1-4 1-3Zm149 4 1 9 4 1-5 3-1 2-5-1-1-5 2-6 5-3Zm39 3 9 3 5 9h-5l-15-6 6-6Zm-56 1 8 11h-9v-1l-1-4 2-6Zm85 5 16 2-1 4h-17l2-6Zm-250 6 8 4v2l-4-1-1-4-1 4-2-5Zm111 6 5 2-1 4-5-1 1-5Zm-141 6 2 1-3 5h-3l4-6Zm238 0q8-2 10 4v2l-4 2-3 10-5-1 2-17Zm-164 11v2l-8 11-4-1-1-10 13-2Zm-75 1 9 2-1 4-11-1 3-5Zm112 9 8 4-3 5h-15l1-3-1-2 9-1 1-3Zm39 3 14 2-2 4-15 6-1-6 4-6Zm93 0 5 2-2 4-4-2 1-4Zm-186 7 6 17h-4q-7-4-2-17Z"/><path fill="#064C03" stroke="#064C03" stroke-width="3" d="m414 316 2 3 3 2v1l-4 2 4 1-4 2-1-3-12 8 2 4 4 4-12 6 2 2 30 1q-4 8-19 6l-25-8 8-17 10-1-1-4 13-9Zm-257 17 3 2 2-1-3 2-2-3Zm-21 15h41l3 4 2 2 16 2v4l-6 3 6 8-2 1-15-6-1 4 2 2-8-3v-3l-6 3 2 3 10 10v8l-9-6-3 2v-2h-2l1-4-3-1-2 1v-2l-5 2-2-2 1-4-17-8-1 3-5-2 4-1-10-6-1 3-5-2 4-1-7-5 2-1 1-2 5 2 1-2 4 2 5-6Zm20 6-6 4 1 2 5-2 1 3-1 4 5 1h2l5-3-12-9Zm282-6 6 3-2 3h-5l1-4v-2Zm-54 22 1 2 5-2 2 8 6 1-7 6-3-7-4 1-5 7-2-2 3-10 3-1 1-3Zm-14 14 6 5 2-1-3 2-5-6Zm-208 10 1 2h18l34 15v1l-11 2q-16-17-53-12l11-8Zm-57 2 32 7-13 5q-5-8-19-6l-3 2 3-8Zm193 6 3 1-1 4 1 1-6-2 3-4Zm38 4 1 2 5-2 2 3 4 3 5 12-5 2v-1l-1-5-15 6-2-12 6-8Z"/><path fill="#064C03" stroke="#064C03" stroke-width="3" d="M156 408q28-6 36 10l2 2 21 10 1 4-2-2-4 2v6l-8-2-15-12h-7l-11 6-2-4-4-2-1 2-7-7 24-3v-2l-28-4 1-2 4-2Zm65 0 14 1-1 19-13-20Zm18 0 7 4v4l-1-3-6-5Zm80 4q6 3 5 15l-1-1-15 2-1 3-1-5 6-11 1 5 5-1 1-7Zm59 0 1 2 5-2 1 2h5l1-2 17 8h10l2-1 1 1h3l2-4 2 8 16 6 1 8h-7l-41-18h-25l-5-3-1-2 12-3Zm-115 2 6 4 1 4-2-2h-4l-1-6Zm-11 3 1 3 1 1-2 3 2 2-13 1-1-1 4-6 2-1h2l4-2Zm111 4 2 2-1 2-3-1 2-3Zm-210 6 5 5-8 2 1 4-6 3-1-3h-5l14-11Zm88 4 11 4-2 3h-11l2-7Zm47 1 6 4 1 2h-7v-6Zm84 4 1 2h48l5 4 6 13-2 1-9-6-1 2-9-2-3 2-1-8-35 2-3 4-3 1-4-1-2 5v3l-7-13 19-9Zm-157 8 7 2-1 4h-6l1-3-1-3Zm-28 13 7 5h-9l1-2 1-3Zm74 0 9 9-1 2-9-6-2 8-6-3 9-10Zm119 5 4 3 1 4-1 2-6-3-6 4-6 17 5 3-16 2-1-2h-2l2-8-5-3 5-1v-2l7 2 4-3 5-9 8-3 2-3Zm-187 1 3 5h2l1-2 11 13-7 2-1-1 2-4-12-5 1-8Zm84 3 7 8-6-1-1-7Zm-97 6v16l-4-3-2-5 6-8Zm145 12q7 3 5 16h-1v-2l-10-5 5-1-2-5 2-1 1-2Zm-30 3 5 12-6 10 4 1 10-18 4 4 1 2-5 2-2 10 2 1-7 5-22 6-8-15-4-1 9-2 4-6 14-6 1-5Zm-60 21 5 5-7 4-1-2 3-7Z"/><path fill="#0BAA5A" stroke="#0BAA5A" stroke-width="3" opacity=".992" d="m175 372 3 2 2 4h-2l-3-6Zm219 0 5 1-2 4-4 1-2-2 3-4Zm-61 6 6 1 2 5h-8l-3-3 3-3Zm41 0 4 2-2 4-4-2 2-4Zm-187 6 5 4v2l-6-1 1-5Zm127 12 4 2-1 4-5-1 2-5Zm70 0 6 2-1 4q-15 2-21 12l-2-10 18-8Zm-135 6 3 1-1 5-5-1 3-5Zm-117 6 6 2-1 10-9-1-2-7 6-4Zm289 0 5 4-3 8h-3l1-12Zm-167 30 4 1-1 5-5-1 2-5Zm62 0 5 1-8 7-1-2 4-6Zm-86 12 4 2-1 4h-6l3-6Zm108 0 4 2v4l-6-1 2-5Z"/><path fill="#2D761D" stroke="#2D761D" stroke-width="3" d="m301 387 5 7-12 11 11-12-4-6Zm-41 9 4 2-1 4-5-1 2-5Zm0 1-1 4h4v-3l-3-1Zm-78 71 4 3-2-2-3 1v1l-1-1 2-2Zm160 52 2 2-1-1-1-1Z"/><path fill="#20886A" stroke="#20886A" stroke-width="3" d="m217 385 5 13-4-3-1-4h-3l2-1 1-5Zm72 23 5 4-9 14-3-1 7-17Zm-30 22 5 3-5 7-2-2 1-4v-2l1-2Zm-31 8 5 4 7 14h-6v-1l-1-5-4 1-1-2-1-4 1-5v-2Zm90 3 1 3 1 1-3 11-5-1q-2-12 6-14Zm-62 9 2 1-3 5h-3l4-6Zm78 0 3 1-1 4 1 1h-7l4-6Z"/><path fill="#0A7D0C" stroke="#0A7D0C" stroke-width="3" d="m159 378 3 1v2l-5 2-1-2 3-3Zm101 19 3 1v3h-4l1-4Zm-37 3 1 2-2 1 10 5h-13l-3-5 6-1 1-2Zm126 2 11 1-2 5h-16l1-3 6-3Zm-90 4 12 3-1 4 3 2 3 11-6 2-5 6-1-2h-2l3-6h3l2-6-3-5-6-1-2-8Zm-12 1 4 1h1l-2 6-7-5 4-2Zm-54 7 5 3v3l-6-1 1-5Zm122 0 3 3-1 3h-5l3-6Zm-135 12q15 1 21 12l12 12 4 1-1 4 1 1-17-11-2-5-27-2-3-2 6-7 6-3Zm62 0 5 1-1 4 1 1-7-1 2-5Zm145 0 3 3-2 9-4-2 3-10Zm-12 6 3 3-2 3h-4l3-6Zm-1 12 34 2q2 8-3 10h-33l2-12Zm-31 10 4 2 2 1-1 5 2 1-2 7-7-8 1-4v-2l1-2Zm18 2 5 1 1 5h-3l-3-6Zm17 12 6 3 1-2q9 10 5 33-3 5-6-2l-4-1-1-4-13-6 8-19 4-2Zm-196 1 4 3 1 2h5l1-3 11 5-2 5-20 10-2-19 2-3Zm53 10 4 1h1l1 4 11 5 1-2 6 9 3 2-1 2 1 3v1l1 1-16 5-11-6-5 12 1 1-8 4-8-17v-15l4-3 4 12 8-6 2-10 1-3Zm30 1 23 1 1 5 5 4v2q-6 8-20 6-13-3-9-18Zm72 12 17 1q2 9-3 11h-3v-4l-12-5 1-3Zm0 16 5 3v9l-5-12Zm-16 8 3 1-2 5-4-2 3-4Zm22 5 4 1h1l-2 6-4-2 1-5Z"/></svg>