<svg viewBox="0 0 504 642" xmlns="http://www.w3.org/2000/svg"><path fill="#11002E" stroke="#11002E" stroke-width="3" opacity=".996" d="m407 9 1 1-5 2v-1l4-2Zm-114 3 1 1-4 2v1h-2l1-2 4-2Zm8 0 2 2-1-1-1-1Zm4 2 1 1h-1v-1Zm-13 2 2 2h-1l-1-2Zm8 2v2l-2 1 2-3Zm-13 3 1 1-35 17v-1l34-17Zm11 1v2h-1l1-2Zm46 1 1 2-8 8 7-10Zm17 1 2 2-1-1-1-1Zm63 0 9 8-1 1-8-9Zm-59 2 1 1h-1v-1Zm77 4 2 4-3 2 2-3-1-3Zm-81 3 1 1h-1v-1Zm3 1 2 2h-1l-1-2ZM263 48l1 1-11 5v-1l10-5Zm-16 6 2 6h-1l-1-6Zm98 0-3 4-4 2-1 3 1-3h-2l9-6Zm102 0v2h-1l1-2Zm-1 3-1 2v1l-1-1 2-2Zm-215 3-2 3-1-2 3-1Zm194 0 1 1-9 6v1l-1-1 9-7Zm-9 9-1 2v1l-1-1 2-2Zm-39 3 1 1-4 2-1 3-1-1 3-4 2-1Zm-76 8v2h-1l1-2Zm120 4 2 2-1-1-1-1Zm4 2 1 1h-1v-1ZM265 96l2 2-1-1-1-1Zm165 0 2 4 3 2-3-1v1l-2-6Zm21 0 11 14h1l-1 1-10-9-1-6Zm-182 2 1 1h-1v-1Zm80 3-1 2-9 6v1l-1-1 11-8Zm-117 1 4 4h-1l-3-4Zm146 0v2l-2 1 2-3Zm-140 4 2 2h-1l-1-2Zm138 0v2l-1 2-1-1 2-3Zm63 2 8 18h-1l-7-18Zm-101 3-1 2v1l-1-1 2-2Zm36 0-1 2-2 4v-1l3-5Zm-109 3 2 2-1-1-1-1Zm4 2 3 2h-1l-2-2Zm5 2 3 3-1-1-2-2Zm96 0v2l-4 3 4-5Zm-166 2v2l-2 1 2-3Zm43 0 2 2-1-1-1-1Zm82 0 1 1-8 5 3-4 4-2Zm25 0v2l-2 3-3 1v-1l3-1 2-4Zm-103 2 1 1h-1v-1Zm54 1 1 1-5 2v-1l4-2Zm-103 1v2l-1 2-1-1 2-3Zm15 0 2 4-1-1h-2l1-3Zm-3 2 2 6h-1l-1-6Zm242 0v2l-2 3-3 1v-1l3-1 2-4Zm11 0 1 1-4 2v1h-2l1-2 4-2Zm-246 2 1 1h-1v-1Zm-21 1-1 2v1l-1-1 2-2Zm266 1 5 4-1-1-4-3Zm7 4 1 1h-1v-1Zm5 2v2h-1l1-2Zm-10 2v2l-2 1 2-3Zm-90 2v2h-1l1-2Zm88 2v2l-1 2-1-1 2-3Zm-223 2-3 4-5 2v-1l8-5Zm116 0 1 1-4 2-1 3-1-1 3-4 2-1Zm76 0-3 4-5 2v-1l8-5Zm29 3-1 2-2 4v-1l3-5Zm-100 3 1 4-4 2v-1l3-1v-4Zm6 0 7 10h-1l-6-10Zm90 4v2l-4 3 4-5Zm-239 2 1 1-9 6v1l-1-1 9-7Zm247 3-3 4v1l-1-1 4-4Zm-239 3 2 2-1-1-1-1Zm20 0-3 4-7 2-1-2 4 1 7-5Zm176 0h2l2 2-1-1-2 1-1-2Zm-192 2 3 2h-1l-2-2Zm198 0 1 1h-1v-1Zm-219 1-1 2v1l-1-1 2-2Zm213 0 1 1-5 2v-1l4-2Zm39 0-1 2 2 5 5 1 2-1 2-4v2l-2 3-5 1-4-2-1-5 2-2Zm-272 6-3 4v1l-1-1 4-4Zm12 3v2l-2 1 2-3Zm107 0 1 1-14 11 1 1-2-1 10-10 4-2Zm74 0 4 3 1 3h-1l-1-4-3-2Zm42 0 2 4 3-1-1 2-4-1v-4Zm-239 3-1 2v1l-1-1 2-2Zm12 1 2 1v1l-2-2Zm10 5-3 4v1l-1-1 4-4Zm-4 6-1 2v1l-1-1 2-2Zm203 0 3 2 2-1-3 2-2-3Zm48 0 5 11-2 1 1-4-4-8Zm-277 3v2l-2 1 2-3Zm323 0 1 1-4 2v1h-2l1-2 4-2Zm-325 4v2h-1l1-2Zm324 0 2 2h-1l-1-2Zm-382 2v2l-2 1 2-3Zm-2 4v2h-1l1-2Zm342 0v2l-1 2-1-1 2-3Zm-19 1 1 1h-1v-1Zm17 4-1 2-2 4v-1l3-5Zm-121 5v2h-1l1-2Zm117 2v2l-9 6v-1l8-5 1-2Zm-210 1-3 4h-3l2-3 1 2 3-3Zm95 0 1 1h-1v-1Zm164 1 1 1-4 2v1h-2l1-2 4-2Zm-265 4v2l-1 2-1-1 2-3Zm264 0 2 2h-1l-1-2Zm-259 2 1 1 2 5h-1l-1-4h-2l1-2Zm142 2v2h-1l1-2Zm-149 1-1 2v1l-1-1 2-2Zm6 0 1 3-2-1 1-2Zm145 2 1 1h-1v-1Zm-207 1v2l-2 1 2-3Zm-2 4v2l-1 2-1-1 2-3Zm95 2 1 1 2 5h-1l-2-5-3 2 3-3Zm-97 3-1 2-3 6-5 1-1-2 4 1 2-1 4-7Zm65 0 11 21h-1l-10-21Zm-78 6 1 1h-1v-1Zm51 3 2 6h-1l-1-2v-4Zm157 0 1 1-5 2v-1l4-2Zm132 0 1 1-4 2v1h-2l1-2 4-2Zm-292 3 1 1h-1v-1Zm239 0-3 4v1l-1-1 4-4Zm52 1 2 2h-1l-1-2Zm-99 2 2 6h-1l-1-6Zm43 3-1 2v1l-1-1 2-2Zm-25 2-1 2-1 2v-1l2-3Zm-214 1v2h-1l1-2Zm55 0 4 4h-1l-3-4Zm-147 3 3 2 2-1-3 2-2-3Zm91 0-1 2v1l-1-1 2-2Zm62 1 5 4-1-1-4-3Zm150 0v2l-1 2-1-1 2-3Zm-143 4 3 2h-1l-2-2Zm141 1-1 2v1l-1-1 2-2Zm-136 1 2 2h-1l-1-2Zm-163 2 3 3-2-2-3 2 2-3Zm316 0 4 3 1 3h-1l-1-4-3-2Zm-162 6 2 2-1-1-1-1Zm156 0 5 9-4-3-1-6Zm60 0 2 4 3 2h-1l-4-2v-4Zm-212 2 4 4-3-3-1-1Zm-262 1 11 19-3 4-1-1 3-4-10-18Zm197 0 1 2-4 1 3-3Zm-7 3 1 1-5 2v-1l4-2Zm50 8v2h-1l1-2Zm84 4 2 4 1 1v1h-2l-1-6Zm5 0v2l-2 1 2-3Zm-59 3 5 9h-1l-4-9Zm-164 3 6 3 1 3h-1l-1-4-5-1-4 2v-1l4-2Zm-99 3-1 2v1l-1-1 2-2Zm344 3 2 6h-1l-1-6Zm-220 9-3 4v1l-1-1 4-4Zm-4 6-1 2v1l-1-1 2-2Zm59 0 11 21h-1l-10-21Zm146 3v2h-1l1-2Zm122 0 6 3 7 15h-1l-7-16-5-1-3 2-1 5 11 22h-1l-11-25 3-4 2-1Zm-123 3-1 2v1l-1-1 2-2Zm153 3 1 1-4 2v1h-2l1-2 4-2Zm-1 4 2 2h-1l-1-2Zm-37 2 1 1 2 5h-1l-1-4h-2l1-2Zm-99 2v2h-1l1-2Zm98 1-1 2v1l-1-1 2-2Zm-325 9 5 12h-1l-4-12Zm233 5 3 7h-1l-2-7Zm97 1 5 9-4-3-1-6Zm17 0v2l-2 1 2-3Zm-2 4v2l-4 3 4-5Zm-166 2v2l-2 1 2-3Zm91 3 9 8v1l-9-9Zm-93 1v2l-4 3 4-5Zm-171 2 2 4 3 2h-1l-4-2v-4Zm275 0v2l-2 1 2-3Zm-121 6 1 1-8 5 3-4 4-2Zm210 6 1 1-4 2v1h-2l1-2 4-2Zm-1 4 2 2h-1l-1-2Zm-227 5 1 1-5 2v-1l4-2Zm4 3-3 4-14 8 3-4 14-8Zm-22 6 1 1-5 2v-1l4-2Zm88 6 1 1h-1v-1Zm54 0 1 1h-1v-1Zm54 0v2h-1l1-2Zm-56 2v2h-1l1-2Zm55 1-1 2v1l-1-1 2-2Zm44 9 4 4h-1l-3-4Zm6 4 2 2h-1l-1-2Zm-123 41 1 1h-1v-1Zm3 1 2 2h-1l-1-2Zm-177 2 2 6h-1l-1-6Zm174 0 2 2-1-1-1-1Zm4 2 1 1h-1v-1Zm-170 21 1 1h-1v-1Zm-58 1 1 1-11 5v-1l10-5Zm-28 3 1 1h-1v-1Zm3 1 2 2h-1l-1-2Zm12 32 4 4h-1l-3-4Zm23 0-3 4-5 2v-1l8-5Zm-17 4 2 2h-1l-1-2Zm-33 2v2h-1l1-2Zm12 6 2 2-1-1-1-1Zm296 0 1 1h-1v-1Zm-292 2 1 1-2 3 1-4Zm139 0v2h-1l1-2Zm151 0v2h-1l1-2Zm5 0v2h-1l1-2Zm-301 3 1 1h-1v-1Zm142 0 1 1h-1v-1Zm156 0 1 1h-1v-1Zm-92 3v2h-1l1-2Zm24 18v2h-1l1-2Zm2 3 1 1h-1v-1Zm-69 3v2h-1l1-2Zm-3 3 1 1h-1v-1Zm10 3v2h-1l1-2Zm-113 5 1 1-2 1 1-2Zm3 1 3 2h-1l-2-2Zm5 2 5 4-1-1-4-3Zm7 4 1 1h-1v-1Zm280 28-3 4-5 2v-1l8-5Zm-99 8v2h-1l1-2Z"/><path fill="#150773" stroke="#150773" stroke-width="3" opacity=".996" d="m366 6 3 1-4 5-5-2 6-4Zm-15 6-3 4 1 2 1 1-12 7-5 10h-5l3-9 3 2 2-4-2-1 17-12Zm53 0 5 1-1 4 1 1-7-2 2-4Zm-93 6 7 4 1 2 1 1-7 5-6-3 5-7-1-2Zm112 0 3 6h-2q-7-3-1-6Zm-122 5 3 2-7 5-6-4 10-3Zm-33 2 2 1-1 4h-5l2-4 2-1Zm170 3 1 2 1 1-2 3 6 3 5 10-1 1-14-13-2-4 6-3Zm-124 7v3l-1 4-1-5-3 5-1-2 2-4 4-1Zm35 0-2 5-6 2 5-6 3-1ZM249 48l3 3-1 3-5-1 3-5Zm79 6 2 1-2 5-4-2 4-4Zm-76 7 1 5 4 1-5 3 2 8-2 1v3l-2-3 1-2-5-2v-3l-6 4 4-5 2-4 1 4 5-10Zm63 5 3 3 1 1 4 2-10 3-1-6 3-3Zm13 6 2 1-2 5-3 1-1-1 4-6Zm56 0 6 1-5 10-1-5h-5l5-3v-3Zm49 1 5 13-4-3-1-10Zm-55 3 1 14h-2l-5 2-2 10-6-11-2 1h5l2 3 3-4v-7h-2l8-8Zm49 3 5 10-4 1h-3l2-11Zm-126 3 11 3 8 11h-1l-18-14Zm-31 2 5 1-2 5-3-1v-5Zm56 1 4 3v4l-1-2-3-1v-4Zm-47 5 3 3-2-2-3 2 2-3Zm-63 1 2 6 4 3v3l-8-1-4 3 6-14Zm144 3v3l-3 5-4 1-4-1 11-8Zm-110 8 20 6h2l1 1-2 3 6 6q-5-8-20-4l1-2-8-10Zm53 0 4 1-1 3 2 3-1-1-6 3-1-6 3-3Zm160 1 5 13-4-3-1-10Zm-236 5 9 6h-1l-8-6Zm61 0 6 1-3 5h-4l1-4v-2Zm90 1 1 6h-2l-4 9-2-2 7-13Zm-65 3q7 4 2 7l-5 1 2-3 1-5Zm-9 2 2 2-3 4 2 1-5 3v-1l4-9Zm-23 5 12 7h-5l-11-5 4-2Zm-64 1-1 2v4l-5 1-1-2 1-2 6-3Zm41 6 6 3-1 3 1 1-2-1-4 3v-9Zm99 0 3 3-2 3-4-2 3-4Zm-78 6 9 3v6l-9-9Zm-8 3 11 7-1 2-11 2 2 4h-2l-5-2 6-13Zm197 0-5 6-1-2 6-4Zm-221 12 4 3-2 1 3 4 2-5 14 6-4 1-1-2-9-4-1 2 2 3-3 1 3 5h-9v-1l-1-5-4 1-6-1 11-6 1-3Zm191 3 5 1-8 5h-7v-1l10-5Zm-233 5 4 1h1l-1 5-5-2 1-4Zm276 2 3 5 2 2-1 4-3 2-1 3v-16Zm-67 3 1 2h2l1 1-9 4-1-1 6-6Zm60 1v6l-4 1-2-4 6-3Zm-93 1 3 3 2 3h-9l1-2 3-4Zm42 0-2 3-1-2 3-1Zm-207 4 1 1-6 12-1-5 6-8Zm-32 2 2 1-3 5-1-2 2-4Zm-20 6 4 2-1 22-5-1 2-23Zm272 0 2 1v5h-6l4-6Zm-237 3 1 1h-1v-1Zm282 0 10 3h1l-3 5-6 1-2-9Zm-289 1 1 1-6 11-2-2 7-10Zm49 8 7 6-2 1-1 5v-1l-4-11Zm59 0 4 1-14 12-1 3-1-4 8-10 4-2Zm150 0 6 3-5 11h-2l1-12v-2Zm-6 4v9l-1-1-4 1-1-3 6-6Zm-129 2 3 2 1 4h-6l-1-3 3-3Zm-135 7 1 5 1 1-2 1v-2l-5 10-1-4 6-11Zm12 1v5l-5 7-1-2h-2l2-1 1 1 5-10Zm54 5v6l-3 5h-6l9-11Zm-78 3v9l-1-1-4 1-1-3 6-6Zm222 0v2l-3 6h-8l11-8Zm-29 8 5 2-1 4-5-2 1-4Zm32 0 8 6-10 2-1-2h-2l5-6ZM64 228l2 7-1-1-4 1-1-3 4-4Zm177 0 15 6 12-6q5 3-1 6l-3 1 6 13-6-5-3-8-3 1-3 4 3 1-10 5-7-18Zm6 6-1 5 5 1 1-4-5-2Zm134 7 3 3v2h-6l3-5Zm45 1 1 3-6 12-2-3 1-2h-2l2-4 1 4 5-10Zm-23 7 5 6-7-4 2-2Zm-192 3 5 4 1 2-1 7-4-2-1-11Zm64 0 7 3v5l-7-8Zm175 1v5l-5 10-1-4 6-11Zm-36 13v8l-3 2-3-3 4-3 2-4Zm-210 2 1 8h-2l-4 1-1-7h2l4-2Zm25 0 5 7h-1l-9-4 5-3Zm15 2 1 1-2 5h-3l4-6Zm185 0 3 2 3 4 3 2v5l-5-4-1 2-3-5-3-1 3-5Zm-164 4 11 19 2 1h-4l-9-20Zm-51 2 2 7-1-1-4 1-1-1 4-6Zm43 1-4 7-1-2h-4l9-5Zm188 1 5 12-4-3-1-9Zm-183 4 2 4-7 2 5-6Zm15 0 5 3-2 3-3-6Zm66 4 3 2-3 1 4 3 1 1 1-5 2 6-3 1-4-1h-3l1-4v-2l1-2Zm-125 2 4 3-2 3h-5l3-6Zm212 0 2 7-1-1-8 6-2 5-2-3 11-14Zm-262 3v4l-5 10-1-5h-3l3-2 1 1 5-8Zm-10 2-2 5-5 12-2-2 5-13 4-2Zm99 1 9 6h-2l-7-6Zm102 6 6 4 1 2-5 1-2-7Zm-88 3 11 12-1 1-10-13Zm90 7 5 4-1 4-5-1 1-7Zm-109 1 11 7-2 1 3 4 12-7 3 3-3 12-6-3v-4l-6 2-14-13 2-2Zm150 1 6 3-2 9h-7l3-5-2-1-4 3 4-8 2-1Zm-34 6 4 3 1 7-4-4-3-1 2-5Zm-175 5 5 4 1-2 3 5 2 2 1 5-1 3-2-4-4-2-1-4-4 1v-8Zm-43 15v5l-5 10-1-4 6-11Zm213 4 9 4v13l-5-8-1 2-5-9 2-2Zm42 6 3 5 2 1-2 1 3 5-3 1v2l-5-2 4-1-5-3 3-9Zm-260 7 5 12-1-1-4 1-2-6 2-6Zm209 4v8l-1-1-3 2-2 16-6-2q-2-15 6-21l1 2 5-4Zm115 0 4 1h1l-3 6-2-7Zm-102 6 4 1h1l-3 6-2-7Zm18 5 7 8-2 2-7-8h1l1-2Zm-114 2 10 6-3 1h-2v4l-5-11Zm23 3 1 2-7 4 6-6Zm-12 5 3 3h-1l-2-3Zm49 2 3 2-4 1 6 3v2l-11-5 5-1 1-2Zm-53 2 4 2 1 4h-7l2-6Zm124 5 5 1h2l1 1-3 4-7-4 2-2Zm-53 5 5 4-2 4-4-2 1-6Zm113 2 6 3-2 3-10-2 6-4Zm-251 7 2 5 3 3-2 3-2 1-1 3v-15Zm138 3 7 8-2 1v1l-4-1 3-1-5-3 1-5Zm-130 8 3 3-1 3-5-1 3-5Zm202 0-1 2-3 4h-3l1-3 6-3Zm30 16 3 2 2 5-2 1-8-5 4-1 1-2Zm-78 4 5 10 1-2 1 2-2 1-4-1-2 1-2-6 2-1 1-4Zm-18 16 5 4-1 2h-2l-2-6Zm-150 2 5 12-4-3-1-9Zm168 3v2h-1l1-2Zm12 5 4 8h-1l-3-8Zm-175 7v5l-3 2-4-5 7-2Zm3 7 3 3-2 3-3 1-1-4 3-3Zm189 16v15l-1-1-4 1-1-9 6-6Zm-197 6 7 8-2 1v1l-10-7 4-1 1-2Zm24 6 5 8h-2l-8-5 5-3Zm-24 6 5 10-4-3-1-7Zm68 8 3 3v4l-4-1-2 1 3-7Zm4 18 2 1 3 6-1-1-4 1v-7Zm67 0 4 3-2 3h-9l5-3 2-3Zm86 6 3 1-2 1-2 4h-3l4-6Zm-93 5 7 7-2 1v1l-7-8 2-1Zm-60 6 4 1h1l-3 6h-3l1-7Zm23 19 6 4 1 2-1 2-7-2 1-4v-2Zm111 6 3 3-2 3h-6l5-6Zm10 10v2h-1l1-2Zm26 8 4 1-1 2 5 3-3 1-8-3 3-4Zm-80 10 3 2 2 4-3 2-3-4-4-1 3-2 1 1 1-2Zm96 0 5 5-2 3-4-2v-2l-4-1 4-1 1-2Zm-141 20 3 6h-10v-1l7-5Z"/><path fill="#2012A4" stroke="#2012A4" stroke-width="3" opacity=".996" d="m370 6 8 1 2 5-2 1 1 5-1-1-13-5 5-6Zm-73 6 3 3-2 3-4-2 3-4Zm55 0q5 3-1 6h-3l4-6Zm-73 6 2 2-2 3-2 1-1-3 3-3Zm84 0 4 1-1 4 1 1-7-2 3-4Zm-41 5-4 5 1 2 1 1-9 5v-1l-2-4 3-2h2l8-6Zm9 0 5 2-2 4-4-2-1-2 2-2Zm111 1 2 6h-5l-1-2 4-4Zm-93 6 5 3-7 3 1-2 1-4Zm-31 16v2l-5 8-1-4 6-6Zm-48 2 1 1q1 10-6 13l-2-2 1-4v-2l2-4 4-2Zm-18 10v3l-5 10-2-5 1-4v-2l6-2Zm84 0v5l-7 3 7-8Zm-15 2 3 3-2 3-4-2 3-4Zm0 1-2 3 3 1 1-2-2-2Zm108-1 3 3v4l-4-1-2 1 3-7Zm-171 3 1 3 1 1-6 9-2-6 5-3-4-1 5-3Zm-14 9 2 1 2 3 3 2h-16l9-6Zm138 1 2 1-1 2-4 2 4 1-4 2-1-5 4-3Zm32 1 1 4 1 1-2 1v-2h-2l2-4Zm-84 2 1 3-1 4v4l-6-2v-2l2-5 4-2Zm66 2 8 6h-1l-7-3v-3Z"/><path fill="#2012A4" stroke="#2012A4" stroke-width="3" opacity=".996" d="m413 79-1 2-1 3-2-3 4-2Zm-193 5 3 1-1 6 3 5-3 1v2l-6-3q-2-10 4-12Zm56 0 4 2 2 3 1-3 1 4-2 1v1l-3-2-7 5-2-4 4-2 2-5Zm141 0 14 6h2l1 1-2 5-4-1-1-4-1 4-3-4-10-1 4-6Zm36 0 3 3 2 3-7 1-1-4 3-3Zm-224 4 1 2-2 1v4l-3-4 3-1 1-2Zm1 3 4 3v2l-4-1v-4Zm134 0 2 7h-5l-1-1 4-6Zm-150 11 3 1-12 22-1-4 10-19Zm25 0q16-3 19 10v1l-19-11Zm43 0 1 1-1 4v4l-5-2-1 7-5-5 2-3h-2l11-6Zm22 6 8 4-3 8h-3l-1-6-3 2-3 8-5 2-11-5 11-2 6-10 1 2 3-3Zm-84 6 2 7-1-1-5 1 4-7Zm152 8 1 3v2l-2 1-2 4-2 1v-1l5-10Zm-39 4 3 1-3 5-3-3 3-3Zm-69 5-1 2-1 3-5 2 5-6 2-1Zm9 1 5 1-2 1 2 2 4 2 1-2q9 4 3 8h-5l1-2-12-7 3-3Zm189 0 6 3-6 5v-8Zm-245 4 7 3-2 5-6-2 1-6Zm-19 4 1 4 1 1-6 4v-1l4-8Zm48 4 10 6h-4l-6-3v-3Zm23 6 7 4-7 2v-1h1l-1-5Zm88 0 3 3-2 3-4-2 3-4Zm124 1 5 12-1-1-3-1-1-10Zm-199 3 1 2 1 1q-4 9-8 3l6-6Zm-57 2 4 1-1 4 1 1-7-2 3-4Zm28 0 11 2-2 4-10-3 1-3Zm174 0 1 1-2 4 1 1-6 2-1-2h-4l11-6Zm44 0 3 3-1 3h-5l3-6Zm-251 6 2 7-1-1-4 1-1-1 4-6Zm272 4v5l-6 4 1 5h-3l-4-6 4-6 2-1 4 1 2-2Zm-269 4 6 12-1 3-7-9-3-1 4-1 1-4Zm93 4 4 6-7 1-1-1 4-6Zm64 0 4 3 2 3h-6l-2-4 2-2Zm-156 12 4 2-2 4h-4l2-6Zm-14 1 1 5 1 1-7 22-1-17 6-11Zm-24 1 1 3-6 11-1-4 6-10Zm234 1-5 6 5 15h-2l-6-11 2-1 6-9Zm-96 2 2 1-4 6-4-1-1-4 7-2Zm-78 6 2 2-13 22-1-5h-2l8-12-3-5 9-2Zm-82 19 4 2 1 4 2 1-3 13q-8-5-6-18l2-2Zm202 0 6 2-1 4h-6l1-4v-2Zm-77 1 5 13-3-2-2-11Zm-55 6 2 11-2 1v1l-6-4 6-9Zm198 9v2l-5 10-2-2 7-10Zm-173 3 4 3 1 4h-2l-4-1 1-6Zm122 5 8 6-2 1 3 4 3-1 7 4 2 5h-1v-2l-10-5-1 3 3 3h-10l1-4-16-2 9-5-4-1 8-6Zm0 1-3 5h6v-2l-3-3Zm18-1 6 6 3 8-7-4-1-4h-5l4-6Zm-182 4q7 6 6 21l-1 2 5 2h1l-4 2-8-1 1-12h4l-4-14Zm44 2 3 3v3l-6-1 3-5Zm-62 6 1 1-7 9-1-3 3-5 4-2Zm175 7 8 5v2l1 3-1-1-10-7 2-2Zm-138 5 4 1-2 5-2-6Zm51 0 9 6-2 1 3 5h-2l-11-5-2-3 4 2h2l-1-6Zm98 1 2 5h-2v-5Zm-150 9 5 1 1 1 1 1-5 4q-8-3-2-7Zm-35 2 4 2-2 4h-7l3-5 2-1Zm48 5v3l-1 3-3 1-4-2 3-4 5-1Zm185 1 5 2-2 4-4-2 1-4Zm-222 5 4 1 2 1-2 5-5-2 1-5Zm-45 1q5 3-1 6l-2 5-1-2-2 3 1 1-4 2-2-2 4-6v-2l7-5Zm61 0 9 6-2 1v1l-7-8Zm48 6 4 1 3 7-7-8Zm-16 3 22 18-4 2-2-5-3 1-3 5 1-2v-4l-6 2 1 4h-1l-20-11 2-1 1-3 4 3-4 1 11 5 1-2 4 2 1-6-5-9Zm161 5 4 16 2 1-1 5-4-2-2 1-2-5h-3l6-16Zm-77 3 5 4-2 3-4-2 1-5Zm-193 3 1 3-12 24-1-5 12-22Zm45 10 3 3v3l-6-1 3-5Zm205 0 2 1-3 5q-6-3 1-6Zm-244 2v4l-5 10-1-3 6-11Zm110 4 4 1 2 5-2 1v1l-4-8Zm101 0 19 12h-1l-14-6-8 6-3-6h2l2-1 3-5Zm60 1 5 9-3 2-5-5 2-1 1-5Zm-233 5 4 2 2 4-7 1-1-5 2-2Zm155 3 4 3-4 1 5 3 1 2-1 8-7-8h1l-1-5 2-4Zm140 3 3 3-2 3-4-2 3-4Zm-284 1 4 7-1 2-4 2v-1l-1-6 2-4Zm-67 1 1 4 1 1-2 4h3l3-2 1 3-1 12h-6l-6-15 4-3 2-4Zm235 12 7 16-2 1-4-1-2 1 1-17Zm90 1 5 6-7-4 2-2Zm-54 3 2 1 3 6-1-1-5-3 1-3Zm-263 12 4 2-2 4-4-2 2-4Zm206 0 2 2-5 13 5 11-2-2-4 1v4l-6-12 3 1h3q-2-13 4-18Zm-58 10 2 3-8 8-5 2-2-5h-5l1-6 8 5 9-7Zm80 2 4 2-2 4-3 1-1-5 2-2Zm32 0 20 9v6l-11-9-1 2-4-1 3-1-4-3-1 2-2-5Zm-92 6 5 1-1 4 1 1-7-2 2-4Zm17 3 5 3 1-2 5 7 1-4 2 5-8 2-1-2-5 1-1-2-1-4 2-4Zm48 2 5 2-1 5-5-2-2-3 3-2Zm-115 1 4 1-13 5v-1l9-5Zm-48 4 1 2-2 1-3 9-2-3 6-9Zm109 6 10 8h-8l-2-8Zm98 2 15 6 1-2 19 20-12-5-2-5-5-2-1 2-15-14Zm-20 5 6 2-1 4v4l-5-2 4-1-7-5 3-2Zm52 25 7 3-6 3v-1l-1-5Zm-106 13 9 5-4 1v1l-1-3-5-2 1-2Zm29 4 2 7-2 1v4l-4-1-1-5 3-5 2-1Zm-3 13 3 1v1l-3-2Zm16 12 7 6-2 1v3l-5-10Zm-115 53 2 7-2 1-6-4 6-4Zm67 7-1 2-1 2-4 2v1l-3-1 9-6Zm-67 4v5l-5 3-1-2 6-6Zm88 2 8 4v2h-12l4-6Zm8 24 6 1v2l-6 3v-6Zm-136 7 10 9 2 2 4 1v5l-11-9-2 1-3-9Zm79 5 3 3 1 3h-4l-3-3 3-3Zm103 6 4 1-1 3-1-3-3 5h-3l4-6Zm24 6 2 1v2l-6 3v-1l4-5Zm-87 11v2l9 5-2 1h-2v1l-11-7 6-2Zm-4 19 3 1-1 3-4 2v1l-4-1 6-6Z"/><path fill="#7ECEE5" stroke="#7ECEE5" stroke-width="3" d="m387 6 3 3-2 3-4-2 3-4Zm-35 36 2 1-3 5q-6-3 1-6ZM238 66l2 1-3 5h-3l4-6Zm-97 18 9 3v23l17 21-8 1-5-11-8-2-2-24-6-8 3-3Zm252 0 15 9 2 3h13l13 14 8 17v15l-17 4-19 19-8 9-16-9-1-3-5 2-3 4-3-5 6-1-2-12-3-1 3-5 2-1-1-5-5-2 3-4 3-1 12-34q-2 16 8 21l23 2 17 6v-2l-24-19v-3l-20-12-3 5-1-8 3-3Zm-256 31v2l-11 12-9 3-3-3 23-14Zm28 23 3 3q3 12-2 15l-4-2q-3-13 3-16Zm278 13 1 8-9 3-2-2 6-7 4-2Zm-326 5 3 3v37l-2 2-4-2v-37l3-3Zm312 12 3 3-2 3-4-2 3-4Zm-23 18 13 29-5 1v-1l-3-11-3 1 3 11h-20v-1l8-22 7-7Zm-72 12 2 1-1 11-5-1 4-11Z"/><path fill="#7ECEE5" stroke="#7ECEE5" stroke-width="3" d="m312 204 6 3 1-2 5 8q5 5 19 3l10 6 31 1 2 5h18q2-7 13-6l15 9-5 8-9 7 1 1-9 4-3-11q-32-4-47 8l2 10 10 1 6 8 5 3 3 4 16 6q-2 12-12 17l-17 3-23-11-3-5-8-2-4-12q-15-2-20-12l-15-29v-13l8-10 4-2Zm-2 6-4 6v13l19 32 41 33h6l-42-44 6-9-1-9-13-5-10-16-2-1Zm155 18 3 3v19l-2 2-4-2v-19l3-3Zm-402 6 3 3-2 9-4-2 3-10Zm6 18 3 3-3 15q-6-3-3-15l3-3Zm384 0 3 3v25l-2 2-4-1v-26l3-3Z"/><path fill="#7ECEE5" stroke="#7ECEE5" stroke-width="3" d="m386 258 4 2-1 4-5-1 2-5ZM9 264h25l2 3-2 3-22 2v26l-2 2-4-2v-31l3-3Zm36 0q14-2 18 7 8 10 3 33l-3 2-3-2v-23l-6-9-12-4 3-4Zm66 0 3 3-2 3-4-2 3-4Zm12 0 3 3-2 3-4-2 3-4Zm342 6 3 3v19l-2 2-4-1v-20l3-3Zm0 36 3 3v3l-6-2 3-4Zm-450 6h37l2 3-2 3H15l-3-2 3-4Zm78 0h19l2 3-2 3H93l-3-2 3-4Zm42 0 3 3-2 3-4-2 3-4Zm215 6 4 2h1l7 16 4 1-1 3-4 2-2-6-9-7-2-9 2-2ZM21 330l3 3 2 21 27 2-5 9 6 5q-4 6-19 2l-8 6-9-24v-21l3-3Zm352 6 11 4 2 2 7 1-3 6 4 5 2-1v18l-4 1-3-12-9-1-8-16 1-7ZM81 354l50 2-7 16q-17 5-22-3l-1-9H81l-3-2 3-4Zm-48 30 3 3-2 3-4-2 3-4Zm267 6 22 2 4 16 37 19 9 20-6 3q-7-8-22-6l-2 7 12 17v16l-2 2h-34l-5 4-1 7 54 3-2 4-28 2 2 10q37 8 64 27l-2 9-27-12h-13q-7-8-24-6l-5 4-1 7q11 18 36 23l2 2q23-5 28 10l-6 2-11-6h-25l-11-6h-31q-10-9-30-7l2-5 4 2 3 3 7-6 2-5-15-24-3 1v9q-8-7-7-22l-10 4-3 8-9-8-2 1-27-33 4-8-6-11v-40l15-21q38 6 53-11v-2l10-5Zm-59 24-13 18 1 9 5 3 3-1 4-13 8-5 3-10-11-1Zm38 1q-19 12-27 35l1 3 23 9 27-1 3-4-1-27-17-7-9-8Zm63 47-2 1-4 5 1 3 5 3 3-1 3-4-1-3-5-4ZM39 396l3 3-2 3-4-2 3-4Zm344 11 19 10 1-2 5 8 49 15 5-3-1-3-14-6-2-4 2-1 57 30v5l-6 1-1 3-15 10-2 5 4 4 20 2v5h-24l-11-6h-19q-9-9-30-6l-23-14 5-7-22-16-2-4 6-2-2-4 2-1q4-14-3-17l2-2Zm-260 1h49l2 3-2 3h-49l-3-2 3-4Zm-78 12 8 6h149l2 3-2 3-52 2q2 8-3 10-17 4-21-3l-1-9-35 2q2 8-3 10-23-5-30 6l-3-13-11-15 2-2Zm18 36 3 3-2 3-4-2 3-4Z"/><path fill="#7ECEE5" stroke="#7ECEE5" stroke-width="3" d="m362 457 8 5 2 5h-2l-8-6v-4Zm18 12 14 13 2 8-3 2-13-23ZM87 480h31l2 3-2 3H87l-3-2 3-4Zm54 0 3 3-2 3-4-2 3-4Zm30 0h19l2 3-2 3h-19l-3-2 3-4Zm-84 12 8 6h103l24 22-2 2-16-16-4-2H97l-10-6-2-4 2-2Z"/><path fill="#7ECEE5" stroke="#7ECEE5" stroke-width="3" d="M117 516h85l2 3-2 3h-85l-3-2 3-4Zm0 12 9 10-1 1-8-5-2-4 2-2Zm95 0 4 2h1l7 16q16 2 22 15l29 11 29 24 1 3-5 1-23-15-58-27-9-28 2-2Zm-47 30h25l2 3-2 3-22 2 6 8h-2l-7-4-3-9 3-3Zm168 24 3 3-2 3-4-2 3-4Zm77 0 4 1-2 5-4-1 2-5Zm-65 6 3 3-2 3h-4l3-6Zm83 0 4 1v5l-6-1 2-5Zm-198 6 10 9 6 7h-2l-16-6 2-10Zm96 0 4 3 2 3 21 10 1 5q-6 6-20 3-12-4-10-22l2-2Z"/><path fill="#7ECEE5" stroke="#7ECEE5" stroke-width="3" d="M357 594q39 5 62 27l-6 7-4 2h-58l-3-3 3-3 27-1-1-17-23-8 3-4Zm34 12 1 17 8 6 7-8-16-15Z"/><path fill="#3438E1" stroke="#3438E1" stroke-width="3" d="m390 6 12 3-2 3h-11l1-4V6Zm-11 6 5 3-2 3-4-2 1-4Zm35 0 6 3-2 3h-5l1-4v-2Zm-41 10 5 5-2 3-3 2-1-2h-2l2-4v-2l1-2Zm-51 2 2 1-3 5h-3l4-6Zm-17 1 1 1 1 2 3 2-1 2 1 3-4 8 4 5 2-1 2 2-14 23 3 1-3 5v2l1 4-1 2-9-2 3-5-7-1 1-4-4-2-5 6-3 1 2 5h-13l-7-9 6-8-4-1 10-8 1-5 4 1 1-5-4-1 22-12 1-6 10-5Zm-19 5 2 1-5 7-1-1 4-7Zm50 15 1 3 11 3-2 3q-12 0-15 8l-2-2 1-5-3-1 9-9Zm-78 13 1 2 3 1-8 4-1-1 5-6Zm189 2 3 3-2 3-4-2 3-4Zm-20 11 1 2 4 3v7l-3-4 2-1-5-3 1-4Zm-181 7 3 1 5 11-2 1 9 11h-23l-3-5-1 2-5-3-1 2-6-8h2l1 1 3 5 1-4 2 4h3v-4l-4-1 5-2 4 1 1-4v-2l2-4 4-2Zm137 1 1 1-1 4-5-1 1-2 4-2Zm-13 5 2 1-2 5-4-2 4-4Zm63 0 3 2-1 4h-3l1-6Zm-43 2v5l-5 10-1-4 6-11Zm-83 2 11 10-2-2-4 1 1 5h-8l1-2-2-9 2-1 1-2Zm102 0 6 3-2 5-5-2 1-6Zm-126 2 5 4 1 2-1-1-6-2 1-3Zm173 0 6 4v2l-6-3v-3Zm-159 6 3 2-3 9-2 1 4 1-4 3v1l-1-5h-3l3-5-4-1 4-2 3-4Zm-78 6 3 3 1 1 3 2-4 1 4 11h2l1-8 15 8-4 1 2 5h4l1-2 6 3-1 5h6l-6 11v3l-13-2-13 6-5-6h1l4-6 2-1-1-5-4 1-2-19-8 6 1 1-4 2v4l-4-1-2 1 15-25Zm212 0 7 3v7l-7-10Zm-71 3v3l-26 29-8-4-2 1v-2h-5l10-5 1-3 1 2 5-3v-3h-4l16-12 1 6 8-5 3-4Zm-28 21-2 5 4 1 2-5-4-1Zm137-17 5 10 1-3 1 4-2 1v3l-5-15Zm-330 5 5 3h1l1 3h-9l-1-2 3-4Zm144 0 11 1-2 5-10-3 1-3Zm80 0 3 3-1 3-4 1-1-4 3-3Zm18 0 2 1-2 5h-5l2-4 3-2Zm94 11 4 1h1v6h-3l-2-7Zm-100 1 3 2-2 4h-6l2-4 3-2Z"/><path fill="#3438E1" stroke="#3438E1" stroke-width="3" d="m211 128 5 12-2-2-14 5-1-1 5-9 1 2 5-3 1-4Zm248 4 3 3-8 27-4-2v-9l9-19Zm-154 10 1 1 1 1 3 1-13 11-3-8 11-6Zm176 1 3 3 2 3 1-4 2 5-3 1 2 5 4-1v10l-5 3-6-25Zm-250 13 4 1-1 4 1 1-7-2 3-4Zm12 0 3 3-2 3h-5l4-6Zm187 0 4 1-1 5-7-2 4-4Zm13 4 1 1-3 7-3-4-4-1 9-3Zm-122 8 11 7-7 15-1-4-9-5 9-2-6-8 3-3Zm-123 2 1 4 1 1v2l-2 1v3l-4-1-2 1 6-11Zm294 2v6l-3 2-3-5 6-3Zm-144 2h21q4 8 18 7l3 18-1-1-9 8-2 4 2 1q-4 9-20 6v2l-11-3-1 2-7-2 1-5-4-1-2 1q9-9 6-29v-2l2-4 4-2Zm-132 1 1 2 3-1 2 2 1 14 5-1 1-5 2 1 3 6-1-1-5 2 2 4h4l1-4 4 12-11 16h3l3-5v5l-3 6-3 2 2 4 4 3 1-2 5 7 1 1 7 15-2 1 8 9 4 2 1-2 11 23-1-1-5-2-1-5v-2l-2-5-3 1h-2l-16 7 2 4 4-1 3 2-1 3 6 6 4 2 1-2 5 12q-3 5-5-1l-6-3-1 2-4-1 4-1-5-3-1 2-7-9-4-1 2-1-12-6-6-17 3-1 10 6 5 6 7-6 2-5-3-1 3-4-2-2-4 3v-3l-15-6-3 2-2-13 2-1-9-12h-3l-6-12h6l-1-6-4 1v-1l8-23-3-2q-1-12 6-16Zm4 6-2 1-7 8 1 1 3-1 6-8-1-1Zm-28 1 1 4 5-1-1 2-4 9-1-4-5 3v-3l5-10Zm119 2 1 1 1 1 10 6-11 2 1 5-3 6-8 6-2 19 12 24-9-8-15-30h2l4-1v-17h-2l8-7 1 1 5-1 1-5 4-2Zm116 2 6 1-1 4 5 1h1l1 12-7 17 1 1-13-3-2-8 2-1 1-21 6-3Z"/><path fill="#3438E1" stroke="#3438E1" stroke-width="3" d="m328 192 2 1 1 5 1 1-2 14 3 3-12-6-4-11 7-2 4-5Zm-144 12 4 1-1 3-4 2h-5l2-4 4-2Zm-10 14v5l-5 8-1-2 6-11Zm289 10-1 2v12l-5-9 2-3 4-2Zm-80 12 7 4 1 2-1 4-2-3 2-1-7-6Zm-125 2 1 5-1 5h-3l-2-4 3-2 2-4Zm162 4 2 1-1 3-1-3-11 14-1-9 12-6Zm34 0 2 7-1-1-4 1-1-3 4-4Zm-189 3 8 9-2 1-12-6 5-1 1-3Zm111 3 8 3-2 3-4-1-2-5Zm8 11v5h-1l-1-3 2-2Zm2 1 12 1-2 4 1 1h-10l-1-6Zm18 6 5 1-1 8-6-4 2-5Zm4 11-1 2-5 8-7 3 5-6 2-4 6-3Zm48 0 1 8-1 4 6 4 1-2 5 8h1l7 15-2 1v1l-7-8h1l-1-6-4 1-15-24 8-2Zm-111 13 3 3-1 3-4 3-1-6 3-3Zm5 6 10 7v21l-7-16-4 1-1-2-1-4 3-7Zm78 0 4 2 6 23-1-1-5-3-1-3-3 2-1 3-1-5h-3l-3-7h1l1 1h4v-6l-3 1-1-2 4-2 2-3Zm-267 1 1 1-5 14-1-4-4 2-13 27h2l7-6 2-4v5l-5 10-2-1-3 2 1-5-3-1 18-39 2 1 3-2Zm-38 5 3 3q-3 6-6 1l3-4Zm144 6 3 1-2 5-4-2 3-4Zm222 0 9 3-2 3-9-1-1-2 3-3Zm-8 10 17 5-2 3-14 5-4-10 2-1 1-2Zm-60 2 5 1v5l-6-3 1-3Zm-72 2 7 10-2 1v1l-4-1 4-1-6-3 1-7Zm-78 4 5 3-2 3-4-2 1-4Zm101 0 1 1h-1v-1Zm11 5 7 3-1 4-5-2v-2l-4-1 3-2Zm-188 1 6 1 3 6-1-1-5 1v1l-6-4 3-4Zm151 0 2 6h-3l-1-2 2-4Zm22 0 4 2v6l-10-2 4-2 2-4Zm32 12 2 1v16l-6-11 4-6Zm-90 6q5 3-2 7l-1 3-6 5-1-2 10-13Zm191 0 3 1v5l-6-2 3-4Zm-115 6 4 3v6l-6-4 2-5Zm23 0 5 3-2 3-4-2 1-4Zm-67 3 1 3-1 20 6 13-1-1-4-1 2-1-2-6-1 4-2-3 2-1-3-6-3 1v1l-4-1 4-1-6-3q-1-12 8-13l3-1-4-1 5-3Zm13 0 10 9-2 1 4 11 5-2 2 8 4 4 2 2h10l-2-6-3 2-2-2 1-4-4-2h-3l1-9-1-3h1l1-4 13 16-2 1 2 5h4l1-2 10 8 5-6q5 3-1 6l-3 2 2 2 14 8-10 1-7-1 1-4-5-2h-2l-5 2 1 4-1 5-28-11-2 8 18 20-3 2-20-18-1 2-7-8h1l-1-6 2-39Zm134 3 15 1v5q-14 4-18-2l3-4Z"/><path fill="#3438E1" stroke="#3438E1" stroke-width="3" d="m402 367 2 11 1 1 3 5 1-2 3 2-4 1-5-1-1 4-6-8-4-1 4-1 6-11Zm-78 10 3 7h-13v-1l4-2 1 2 3-5 2-1Zm-60 4 1 3 5-1-1 2-2 5-8 2-1-2-9-5 15-4Zm43 3 5 1 1 5q-18-2-26 6l2-3 18-9Zm108 1 5 3v2l-6-3 1-2Zm-196 11-2 3-1-2 3-1Zm114 0 3 1-2 5-4-2 3-4Zm-109 1 8 5-4 1-1-2-4-2 1-2Zm209 3 5 7h-1l-9-4 4-1 1-2Zm-174 2 10 1q-5 6-18 5l2-3 6-3Zm-25 6v3l-9 15h-5l2-10v-2l12-6Zm219 0 51 1v5h-51l-3-2 3-4Zm-50 4 3 2-3 1 5 3 2 2 4-3 1 3 6 1-2 3-4 2-10-6-2-8Zm-58 2 11 6h-1l-10-6Zm91 6 3 4 3 2-4 1-1 3-4 2-7-3 1-5 5 2 4-6Zm-63 9 6 6 6 7 16 11-5 7 23 14h19l11 6h19l11 6q15-4 19 3l2 9 4 1v59l-6 2-5 14q7 6 7 20l4 1v11q-14-1-18 6h-14l2-3-1-3-5 1-8-6 2-1-1-6-5 1v1l-9-2 3-4-2-2-5 4 1-3-3-1-3 2-1-2 1-4-4-2-3 4-8 2v-1l3-1v-4h-7l1-4-5-2h-8l1-4-11-2-1 3 3 3-4-2-1-4-4 1v1l-6-4-1-4-4 1-13-3-1-4-4 1-9-1 2-1-6-8 6-7v-2l1-2 7 3-2 5h12v-3l-1-3 30 12 1-10-66-28 3-10 17 1-2 5h6l4-6 2-1-1-11q-29-5-42 6l1-2v-4h-9l9-6 30-1v-18l-12-18 3 1 9 3h1l2 3 4 1 6 9 11 5h1l13 21 4-1 2 25 4-1 2 2-2 7 2 4-2 1 2 5h4l1-2 9 2 2-1 1 2-1 4v2l2 5 4-3 1 3 6 1-1 2 12 9 1-2 4 2 1-3-1-3h1l-7-10-4-2-1 2-9-2 2-3-17-12-1-3-3-1-3-5 1-28-4-2-2 1v-5l-4-1-2-4-5-12-2 1-7-9 2-1-5-15-2 1-4-13Zm72 1 1 2h-2l1-2Zm0 3 7 5h-1l-7-3 1-2Zm-227 5 4 2-1 10-5-1 2-11Zm281 0 5 1v5l-6 1v1l-7-3 8-5Zm-294 10 2 2 3 10h-1l-4-12Zm12 14 5 3 5 17-3 10 28 32-2-2-4 1 2 5-2 1 2 5h4l1-2 6 2 4-3 1-2v-2h1l5-8 1 10-1 3 2 2-2 1-3-1-3 5v2l2 5 4-3 1 3 5-2 1 15-1 4 6 4 2 3 4-1 2 5 4 2h2l5 1-1 2 18 16v8l-6-3-10 8-2 5 8 9 5 2 5-3 1 3-1 3q-8 6-23 3l-49-18-6-11 6-1-7-18 2-2 8 8h3l-1-6 1-4-5-2-1 2-11-8-1 3-5-3-1 4-6-11 3-1 42 18 32 20h6v-3l-11-13-22-14h-7l-18-9q-8-13-25-17l-7-22-4 1-1-8 9 7 3-1-2-4 2-1-2-5 8-1 1-2 5 2v-3l-7-5q-7-4-5-16l-5 3 4 3-5 1 7 9 3 2h-4l-15-11-3-7 6-9 2 9 4-1 5 1 1-4-4-2-2 1-1-6 2-13Zm-16 6 3 3 1 3-6 3-1-6 3-3Z"/><path fill="#3438E1" stroke="#3438E1" stroke-width="3" d="m381 468 7 2 2 3 2 1-2 1v1l-9-8Zm-42 72 12 1-3 2v-2l-3 5-3 1v1l-6-4 3-4Zm-42 24 9 4v4l-10-2-2 1 3-7Zm21 6h24l11 6h25l17 6h2l5-2 1 3-1 4 11 1h5l2-4 2 9 25 24 8-7-2-3 3-2 1 2 5 3 1 2-1 5 1 1-52 12v-1l9-7-6-8q-23-16-58-20h-9l1-4-4-2h-2l-4 2-1 3-2-5 1-4-4-2h-9l1-4-5-2h-2l-4 1-1-2 2-3 4-2Z"/><path fill="#3438E1" stroke="#3438E1" stroke-width="3" d="m342 591-8 9-4-2 1-6 8 2 3-3Zm1 8 23 13h2q8-2 10 4v3l-16-1-2 5 1 1h-11l4-2v-4h-4l4-2-2-9-10-4 1-4Zm-12 23 5 4-1 4h-6l2-8Z"/><path fill="#140043" stroke="#140043" stroke-width="3" opacity=".996" d="m402 6 6 3-6 3 1 1-1-2V6Zm-107 6-1 2 1 4-1-1-4-1 1-2 4-2Zm5 0 6 4 1 2 3 1-11 5-1-2 2-3v-7Zm24 4v2l-3 6h-3l-1-4-4-1 11-3Zm-42 2 6 3-18 9v-5l-6 3 1 2 3 1-16 8v3h-6l13-15 17-5 1 2 4-2 1-4Zm142 0 8 3 2 9-2 1v1l-7-8h1l-2-6Zm-63 5v2l5 3 1 3-1 4 1 1-7-3-1-3 1-4 1-3Zm-21 1 4 1-8 7 4-8Zm105 4 4 8-4 2-1-2h-2l2-3-1-3h1l1-2Zm-4 2-2 3 2 3-3-2 3-4Zm-124 4 1 1 1 1 1 1-6 4-1-1 2-3v-2l2-1Zm33 1-2 5 2 3-2 4v2l-12-1 4-6 10-5v-2Zm-22 1 4 1-14 13v-1l10-13Zm-16 1v5h-2v-1l2-4Zm-47 11 3 1-4 2v3q-11-1-14 5l-4-5h2l4-1 2 1 11-6Zm78 6 1 1-7 4-1-1 7-4Zm105 0 2 7-1-1-4 1v-1l3-6Zm-216 6 2 1-9 11h-2l5-10 4-2Zm105 0 1 1-2 1 1-2Zm90 0-1 2v12l-5-2-6 2-1-2h1l6-9 6-3Zm-164 1 1 1v1l-5 2-1-1 5-3Zm58 0 2 2-1 2-3-1 2-3Zm-15 3 1 2 1 1-6 5-1-1 5-7Zm-21 8 3 3-2 3h-4l3-6Zm94 0 4 1-5 2-8 9 2-3 3-7 4-2Zm-126 6 9 6-4 1v7l-5-14Zm63 0 2 1-5 7-1-2h-2l6-6Zm-49 6 3 2 1 4-1 2-6-4 3-4Zm152 0 7 4 1 2-1-1-7-5Zm-123 1 10 9-11 3-1-2-1-4 3-6Zm-80 1v5l-5 10-1-4 6-11Zm151 3 5 2-3 4-2-4h-3l3-2Zm-7 4 1 2-7 4 6-6Zm91 2 11 5v10l-11-15Zm-188 1 7 4 1 2 9 1-16 5-9-5 9-2-1-5Zm164 0 2 1 2 5h-1l-3-6Zm-49 2 1 4 1 1-1 3-1-4-5 10-1-3 6-11Zm55 2 1 2h-2l1-2Zm-200 1 11 7h-3l-9-5 1-2Zm116 1 3 1-15 13-1-1 7-10 6-3Zm-42 3 11 4v7l-6-4v-2l-4-1-1-4Zm-24 3 5 2-1 4-5-2 1-4Zm156 2 8 16 4-1 4 1h1l-2 4-9 4-6-24Zm36 0 5 11-1-1h-2l-4-7 2-3Zm-108 3 4 1h2l2 1-2 4-1-5-5 8-2-7 2-2Zm-100 1q10-1 13 6h-3l-10-6Zm39 3 1 4-1 2-9 3v-1l8-4-2-1 3-3Zm48 1v2l-2 4-5 2 7-8Zm-108 1 1 2 5 3v2l-8-5 2-2Zm85 0-4 7-4 1-1-1 8-5 1-2Zm-113 1 4 3v5l-4-1-2-5 2-2Zm-14 2v4l-5 10-1-3 6-11Zm7 3 2 2 3 9h-1l-4-11Zm258 1 5 3h1l3 7-1 2h-3v-4l-5-2-2 1 1-2-4-1 1-2 4-2Zm-354 5 6 1h1l-2 25-4-1-2 1 1-26Zm209 3h2l6 4-2 1v5h-16l8-6 2-4Zm144 2v2l-11 20-1-7 6-11 6-4Zm-261 4 5 4-2 1v6l-4-1-2 9 5 2h1l-6 2-4-1-7 16-5 4-1 3-1-4 6-12-3-1-3 2v-2h-2l5-12h3l1-8 3 1 5-4v-2l6-3Zm34 4 1 1-11 5v-1l10-5Zm120 0-1 2 2 4 1 1 1 3-4 2v-1l-1-5-4 1v-1l2-4 4-2Zm72 0 1 1-9 5 2-3 6-3Zm-139 4 1 8-1 6h-14l8-10-2-1 8-3Zm-44 2 13 6h-7l-3-5-1 4-2-5Zm121 0 4 1 3 10h-1l-6-11Zm73 0 6 4v4l-4-2-2 1v-7Zm-281 5 4 1h1v19l-4-1-2 1 1-20Zm60 1-1 2 2 4 10 10v2l-12-9-1-3-3 1-1 3-5 4-1 3-1-4 7-10 6-3Zm245 4 1 3-1 4 5 1h1l-2 4-5 1-3-1-1-5 5-7Zm-237 2 17 1-9 4-8-5Zm193 0 2 3-7 3-1-2 6-4Zm5 0 9 4 1 2-6 9-4 1-3-4h2l4-1-1-4 1-4-3-3Zm-98 6 7 6h-7l-1-2 1-4Zm-127 2v4l-3 5-1-2 4-7Zm206 3v2l-2 5h-6l4-6 4-1Zm-97 1 1 1-2 8-13 3 8-9 6-3Zm71 0 4 3 2 7h-1l-5-10Zm-174 10v2l-5 10-1-3 6-9Zm205 2 9 1-10 8v3h-3l-3-7 3 1 3-2 1-4Zm-174 3 4 8-7 1-5-7 2-1 5 2 1-3Zm216 1 4 10-11 19-15 3v-1l7-5 8-16 4-3 3-7Zm-280 2 2 1-2 5h-3l3-6Zm4 0 1 1-1 3v-4Zm322 1 1 1v3l-4-1 1-2 2-1Zm-388 4 4 1h1l-3 6-2-7Zm48 0 4 1h1q3 13-5 15v-16Zm227 10 1 2-7 4 6-6Zm-201 3-2 3-1-2 3-1Zm-20 5 4 1h1l-3 6h-3l1-7Zm69 1 1 1-4 9-1-3 4-7Zm3 0 1 1-2 1 1-2Zm262 1 1 1v3l-4-1 1-2 2-1Zm-323 7v4l-5 10-1-3 6-11Zm63 0 1 1 2 6-3-2v-5Zm30 11 5 17h-4l-10-14 4 2h2l3-5Zm-15 2v3h-2l2-3Zm-18 1 3 3 3 5h1l-1 2 6 12-3-2-9-20Zm-71 1 4 1h1l-2 4-5 1-5-2 1-3 6-1Zm87 2 1 1-2 4-2 1v1l-1-2h-3l7-5Zm-45 5 2 1 2 4-1-1-4-1 1-3Zm152 0 7 1-4 2-2 3-4-2 3-4Zm140 1 1 1v3l-4-1 1-2 2-1Z"/><path fill="#140043" stroke="#140043" stroke-width="3" opacity=".996" d="m217 248 1 4-2 1v2l-2-3h2l1-4Zm186 2q9 4 3 8l-3-6-1 4-2-3 3-3Zm47 0v3l-5 10-1-4 6-9Zm-30 4v4l-5 10-1-3 6-11Zm-210 3 3 7-3 1-4-1-2 1 4-7 2-1Zm53 0 21 13-2 1v-2l-20-10 1-2Zm-148 1 5 1-2 4-4-2 1-3Zm110 6 2 5-1-1-4-1 3-3Zm207 6 4 3 2 4-1-1-5-2v-4Zm58 0 14 1v11l-16-2-2-6 4-4Zm-373 1 3 3v2h-6l3-5Zm148 2 13 9-2 1 3 5-3 1 4 6-5-2-10-19-2 1 2-2Zm162 2 3 3 2 3 1-2 2 3-3 1v1l-5-9Zm-414 5 10 18-8 14-2 1-2-13 2-20Zm54 0 5 5-2 3-3 2v-10Zm143 0v10l-2-2h-10l1-3 5-2v-2l4 1 2-2Zm40 2 2 1v2l-4 2v-1l2-4Zm87 11 4 2-1 3h-2l-1-5Zm-55 5 3 3 3 7-6-5v-5Zm-163 3 5 2 2 4-1-1-4 1-7-3 5-3Zm-58 4 4 1h1l-3 6-2-7Zm-10 1 3 3v4l-6-3 3-4Zm54 0 3 3 2 3h-9l1-2 3-4Zm257 0 1 1 3 6-1-1-5-2 2-4Zm-236 4v8h-5l-1-6h2l4-2Zm125 1 13 15h1l-1 1-15-14 2-2Zm25 4-5 6-7 2-3-4 10-2 2 1 3-3Zm-132 1 1 1-6 11-1-3 6-9Zm217 1 4 1 2 1-1 4 1 1-2 1-2 5-2-13Zm-162 5 5 9-1-1-3-1-1-4-1 2-2-3h2l1-2Zm-94 2 3 3-2 3-4-2 3-4Zm241 0 2 12-4 1-1 3-1-9 4-7Zm83 0 4 6h-4l-2-4 2-2Zm38 1 5 2q10 7 8 27l-5 8-2-7 1-2-11-24 2-3 2-1Zm31 4 6 2v5l-10-2 1-2 3-1v-2Zm-293 3 5 12h-1v-2h-2l-2-10Zm254 6 1 1 2 4-1-1-4 1v-1l2-4Zm-116 3 7 7h-7v-7Zm-274 1 3 3-2 3-4-2 3-4Zm81 1v22h-1l-5-11 6-11Zm-17 3 5 12h-1l-4-12Zm-28 2 3 3 2 3h-5l-3-3 3-3Zm262 3 5 10-1-1h-2l-2-6-1 4-2-3 2-1 1-3Zm96 1 5 10-3-2-2-6h-2l2-2Zm-394 2 10 1-1 4 1 1-13-2 3-4Zm278 0 7 4-1 2-4 3-1-8-1-1Zm143 0 2 1v5h-6l4-6Zm-87 3 4 3-4 1 5 3 2 2 4-1-1 2-2 4q-11-2-8-14Zm-91 1v2l-5 8h-2l7-10Zm-170 2 2 2 1 10-1-1-4-1-2-6 4-4Zm-89 6h46l5 6H54v-1l-1-5Zm327 0 4 4v2h-3l-1-6Zm-61 4 4 7-18 8-1-1 14-12 1-2Zm-24 2 1 1-1 3-7 5-4 1-6-3q12 0 17-7Zm110 0 3 3 2 4-1-1-7-2 3-4Zm-134 3 6 10-1 2-6 3v1l-2-3 2-8v-2l1-3Zm120 4 8 6 2 5h-1l-9-11Zm112 0 1 1v3l-4-1 1-2 2-1Zm-182 5 3 3 2 3h-5l-3-3 3-3Zm54 0 3 1v5l-6-2 3-4Zm-93 5 2 1-2 6 4 1q-7 7-23 5l2-3 17-10Zm67 1 5 4v3l-6-3 1-4Zm71 5 1 8-3 1-1-2-3-5 3-1 3-1Zm-303 1 3 3q-3 6-6 1l3-4Zm128 0 11 1-4 2-2 3-4-2-1-4Zm244 0 3 3-2 3-4-2 3-4Zm-158 5 4 1h2l1 1-2 4-8-4 3-2Zm123 1 4 6-7 1v-1l3-6Zm-233 1 1 3-3 2-2-3 4-2Zm206 3 7 8-2 1v3l-6-8-4-1 5-3Zm-16 2 3 3-2 3-4-2 3-4Zm86 6 7 1v4l-7-5Zm-76 1 10 5h2l1 1-2 5-6-3-1-3h-8l4-5Zm-204 4 4 1h1l-3 6-2-7Zm228 3 5 10h-2l-5-6h1l1-4Zm-235 14v2l-4 9h-2v-3h-56l6-6h54l2-2Zm-116 2h29l5 6H89l5-6Zm262 12 10 4 1 2-1 2-7-2 1-2-4-4Zm23 6 5 4v1l-6-2 1-3Zm-174 1 5 10-2 1-3-11Zm-135 5 128 1-3 5H66l4-6Zm311 0 3 1v1l-3-2Zm-261 18 19 1-1 4 5 1 1-4v-2l25 1-1 4 1 1h-14q-7 8-22 6l-7-3v-3h-7l1-4v-2Zm277 1 5 3q2 10-5 11v-14Zm-82 11 9 1-3 5-9-2 3-4Zm-104 12 9 6 2 4v2l-12-9 1-3Zm187 0 4 2-2 10-4-2 2-10Zm-283 17 5 5v4l-6-2 1-7Zm28 1 21 1-13 5-8-6Zm-18 12 6 4-4 2-2-6Zm153 6 4 2v5l-4-1-2 1 2-7Zm-86 23v4q-3 6-6 1l3-4 3-1Zm199 7 2 1 2 5h-1l-3-6Zm-209 8 16 8-5 2-12-8 1-2Zm131 3 17 2 2 5 4 1-1 4-5-2-1-3-5 2 1 18h-1l-6-5-2-14-6-6 3-2Zm122 7 3 1-2 5-4-2 3-4Zm-90 6 9 1v5l-12-2 3-4Zm106 1 7 5-2 1v1l-4-1 3-1-5-3 1-2Zm24 17 1 1-11 5v-1l10-5Zm-112 6 9 3-2 3-10-2 3-4Z"/><path fill="#0F001D" stroke="#0F001D" stroke-width="3" opacity=".996" d="m367 0 23 1 3 5-9 2 2 4 16 1 2 5 16-1-1-5h-15l4-2-1-3 3-1 19 12-9 2 12 13h1l14 15 3-1v8l-1-1-3 1-2 10 5 1h1l1 12 15 13 9 18-1 3q-6-18-19-28l-5 2q-3 21 12 25h1l5 6h1l5 11-2-2-10 3 1 1 3 2-10 2-6 18-13-2-22 11-1-1q10-14 30-17-2-9 4-11l7-2 1-8-4-2-2 6h-3l-10-24-4-3-2 1-1-3 2-1 6-13q-7-8-7-23-12-1-15 7l-5 11 1 1-4 2 2 3h2l2-4 6-4 1-4 5 4v10l-10-2-3 4-9-3-2-5-10-2-11 24h-3l1-12 5-1 6-16-13-1-4 3-7 15-4 1-1 3-7 5-16 10-2 8-15 9 1 1-7 5 1 1-40 26 2 3h16l1-6 18-12h17l1-6 22-14 11-21 1 1 1 10-6 2 2 10 4-1 6-9v4l-6 17 11 3v3l-22 4-1 8 8 1 3-2-1-3 5-1 8 11-1-1-4-1-1-3-5 2 2 4 4 4 2 2h13q4 8 17 7l-2 5h6l3-5v-2l15-7-1-3h2l5 3v2l-6 2 3 9 3-1 1 2h5v-6h-2l3-6h3l5-12 5 6 4-1 13-28 5 3 1 2h3l1-3 1 1 2 50 9-2 1-35-12-20-1-10 5 2q2 21 14 34l1 20-1 4 6 2v11l-6 3 1 1 5 3v17l-6 3 1 1 5 3v23l-6 3 1 1 5 3v5l-12 2 1 4-7 1 1 5 1 1-2 7 3 3 15 2v47h-6l-1-5 1-6v-2l-1-5-10 1-9-1-1 2h-2l-7-14-1-29 7-1v-6l-6-2-1-34-10 3-1 5 2 4-2 1v6l-3-1-9 11v27l6 7h1l11 13 2 8 13 13 5 11 14-6v1l-4 2 1 1 11 3v17l-6 2 1 4h-4l-3-6-6 3 1 3 8 6-9 2 2 4 16 1v5l-6 3 1 1 5 3v17h-13l1-4-4-2-2 5 1 1h-20l1-4-7-2-5 3 1 3h-2l-3 1-2 10 45 1 9 7v5l-36 1 1 2 27 10-7 3-31-15-32-34-1-9-15-5-2-4-1-3-4 1-1-8 9 7h1l2-13-5-8-2 1-1-4-3 1-7-11-24-11-1-9h-5l-2-11 2-1-2-5-14-6 1-2-2-3h2l20 10h15l20-12 3-13 4 1 19-40v-6l-15-8-2-4 5-2 1 4 25 2 8-6 8-19-7-11-11 2-5 6-2-8-23 1-2 4-4-2-1-3-9 7-7 15-7 5-5 2-1-1q17-7 12-35l-2-4-48-1-9-6-2 4-9-4-2 4 5 7h-2l-4-5q-15 1-20 12l1 1-8 6-2 31 6 7h1q5 15 17 24h1l12 13 3 2 8 9h1l5 9-6 2 3 10h1l2-4 2 16 4 1v12l-3-1q-6 7-3 24 10-2 12 4v4l-7-2-9 7-1 3-7 5-3 1-7-4-2 6-15 12 1 1-21 11-1-2 3-5 12-10v-2l7-5 2-4 4-2 2-10-3-2-12 18-14 6-12-6-1 6q-13-2-15 6h-28l-5 3 7 7 14 2 3 4 2 2 4-1 1-2 23-11 1 2 1 1-31 17-23-11-4-7-2 1-1 3-5 3-2 38-3 3h-6l3-5v-2l-1-5H55l-11-6-1 2-1-3 3-4 76-2 52 1 1-4-21-2 3-5-38-1 2-4-4-2-2 5 1 1H41l1-4-4-2-2 1-1-7 1-4-4-2-2 1v-7h-2l9-6 89-1 6-15-20-2-4-3-1-3-5 2 1 4-36 1-1-7h2l4-1-1-5-4 1-1-14 3-4 34-1-1 2 2 4 4-1-1-4 4-1 3-10-6-5-1-3-5 2-3 4-8 1-27-1 2-20 4-4 2-1-1-5-5-3-2-8 3-2 3 1 2-16-4-2-2 1-1-7 1-16-3-2-5 6h-4q-4-17 3-23l39-1 4-2 5-9 7-1 4 6h2l2-4v-64l3-3v-2l13-11h14l4 3 4 9h9l1-2v9l-1-1-5 2v90l6 10-6 1 1 3 7 2 3-2 13-32 4-2 9-32 3 2 3-18h5l1-18q6 9 25 6l8-6 2 6q-7 8-25 6l-9 7-2 20-6 8v33l12 20v6h-1l-1-4-4 1 1 3 3 2-4 1-2 5-2 1-5 11-3-5 6-11-7-2-4 3-1 15-6 17 5 1 5-6 6 1-4 2 1 3q9-2 11 4l2 2 10-1-1-5h-5l-1-12-3 1-1 3-4 2h-3l1-6 5-1 1-11 5 3q3 20 18 30h1l6 7 3 2 3 4 3 2 14 15h1l7 9 4-1 3-16v-2l3-1-12-14-4-1-2-5-11-3 1-4 10-2 21 25 3-1q1-11-5-14l-2 1-5-9 6-2-1-5-16-9-2 1q-12-10-16-27l5-1 7 10 3 2 3 4 28 14h6l1-3-18-12-1-9-5-3-2-15-4 3v3l-6-3 1-3 5-2-1-4-16 6-7-3-2-9-2 1-1 4 1 1-2 1 6 15h-1l-4-7-2 1-5-9 6-11 4-2 8-22-11-8-1 6-5-3-2 1-11-23 9 7h3l-8-11 2-1 14 6q6-9 22-7l1-5 11-1v-3l-4-1 1-7 15-1-1-11-17 2v4l-14 6-3-1 3-5 7-2 1-8-12-2v-4l-16-7-2-5-12-5 1-9 9 6 3 4 29 8 23 12h15l4-2 3-4 9-3v-9q-10 2-12-3l14-3 8-6 3-12 5-1-1-5h-5v-6l-4 1-2 11-6 2 2 4 3 3v2l-10-7 5-9-3-1q-2 7-11 6l-3-1 1-4 22-7-2-1 17-10v-2l9-6 1-5 11-7-1-5-5 2v1l-5 2-1-1 3-5 3-1-1-4-10 2-36 34-1-2 6-8 4-2 2-4 27-25v-2l9-7-1-4-20 12-4-11 37-10 1-3Zm-2 6-4 2-1 3 23 7 1-4-2-2-4-5-13-1Zm-3 12-2 6h-3l-3 5 6 1v4l11 2 1-2 5-4 1-4-2-2-4-4-10-2Zm-6 108-2 5 5 1 1-4-4-2Zm114 30-8 11 1 5 4 2 5-1 2-15-4-2ZM115 258l1 6h-3l-5 2 2 4 4-1 2 1-2 3 1 3h5l-2-5 2-1h2l4-1-1-5-4 1-3-1 2-5-5-1Zm313 12-2 2q-1 13 8 16l4-1-1-14-9-3Zm-263 18-12 7-7 20h-2l-6 8q2 13-3 19l-3 2 5 16h3l-2 3 1 7 10 2 1-35 18-47-3-2Zm264 0-15 23q0 18 12 24l5 1 1-5 6-2q2-17-6-23v-16l-3-2Zm-310 12-4 2-1 3 6 1v12h4l2 6h9l3-10-4-2-2 5 1 1-6-2-2-13-6-3Zm282 12-2 1-3 10 11 1 1-10-7-2Zm-207 6-2 23 3 1 5 6 8-1 2-3-12-24-4-2Zm273 6-2 1-3 4 11 25h-1q-11-4-12-17l-1-1-3 11 3 1 9 17 4 1 8-10q2-21-7-29l-6-3Zm21 12-2 5 5 1 1-4-4-2Z"/><path fill="#0F001D" stroke="#0F001D" stroke-width="3" opacity=".996" d="m283 12 9 1-4 2 1 1 10 3-2 5-13 7-5 11 1 1-27 10-2-5-5 2 2 10-8 2-9 10-3 2 5 16h-1l-5-6-10 2-1-2 9-12 9-8v-4l-5 2-1-2 31-34-13 14 1 2h5l1-3 35-17-1-4-5-2 1-4Zm20 0 22 1-4 5h-15v-4l-3-2Z"/><path fill="#0F001D" stroke="#0F001D" stroke-width="3" opacity=".996" d="m275 18 2 1-4 5-3-3 5-3Zm156 0 1 1v1l-1-2Zm-103 6 2 6-11 6-1-2 10-10Zm35 0 8 2-2 4h-3v-4l-3-2Zm72 0 5 1-5 4q-5-2 0-5Zm6 7 2 2-1 2-3-1 2-3Zm7 5 2 10h-1l-4-7 3-3ZM244 66l1 1-5 8-4 2-1-2 9-9Zm15 18 6 1-1 4 6 5 2 2 8-5 14 6v2q-8 6-23 3l-1-4-12-5 1-9Zm25 0 11 1-1 5h-9l-1-6Zm-145 4q9 7 5 28l-2-2h-2l-1-26Zm71 8v12l-11 22-1-5 12-29Zm168 8v4l-3 6h-2l5-10Zm-161 21v2l5 3-1 7-5-2-2-8 3-2Zm-19 7v6l-5 10-1-5 6-11Zm-11 18 5 3v3l-5 1v-7Zm3 18 2 1-9 23h-6l3-3 2-19-1 2 1 2 8-6Zm145 13 1 1-6 7-4 2v-1l4-8 2 1 3-2Zm-160 11 1 1-2 1 1-2Zm5 2v4l-5 10-1-5 3-5h1l2-4Zm261 4 3 3-1 2h-4l-1-2 3-3Zm-101 12 2 1-1 4h-4l1-4 2-1Zm-171 3 1 2h3l1-2v2l-4 1-1-3Zm227 3 6 4v1l-6-2v-3Zm-47 1 7 5h-1l-7-3 1-2Zm39 5 2 1-1 4h-4l1-4 2-1Zm3 24 8 1 2 5h-4l-7-3 1-3Zm-20 1 1 1v1l-6 3v-1l1-2 4-2Zm-154 5 2 1 2 4-2 1-2-6Zm186 2 2 4 3-1-1 2-5 8-4 2-1-2 5-4 1-9ZM36 269l6 1h2l12 6-2 1v30l-4-1-2 5 1 1H16l8-15-12-23 2-3 22-2Zm309 19 3 1v3l-2-3-1-1ZM61 310l1 2h-2l1-2Zm213 2q5 3-1 6h-2l3-6ZM23 324l31 1v30l-29-2-2-23-4 1-1-2 3-4 2-1Zm332 12 4 2v3l-2 1-2-6Zm6 8 4 10h-1l-3-10Zm6 12 2 4 3 3-2 3-4-2 1-8Zm-300 2 1 2h-2l1-2Zm257 26 6 4v2l-6-3v-3Zm85 1 11 9-5 2-2-6h-5l1-5Zm-81 11 2 1v5l-5-2 1-3 2-1Zm13 1-1 2-1 3h-3l1-3 4-2Zm3 6 3 1 2 8 3 2h-3l-7-3 2-8Zm54 0 3 1 1 4h-2l-3-1 1-4Zm23 0 5 3v1l-6-2 1-2Zm-66 11 14 13 3 11h-2l-10-16-4-1-2-4 1-3Zm78 0 8 7 2 4-1-1-4-1-1-3h-5l1-6ZM67 444l137 1 2 23-8 2q-3 20 6 28H97l-11-6-1 2-1-8h2l40 1 1 3 19 2 11-6 35-1-1-4 4-13 3-2v-4H69l-2 2-2-2 1-4-4-2-2 1v-7h-2l9-6Zm308 0 3 3-2 3-2 1-1 3-1-7 3-3Zm124 0 5 1v4l-6-2 1-3Zm-132 12 5 1 3 4 1 1h-3l-7-3 1-3Zm12 4 3 2h-3v-2Zm0 3 7 5h-1l-7-3 1-2Zm-163 16v4l-1 2h-4l-1-2 6-4Zm2 13 7 7 2 4-1-1-7-4-1-6Zm-13 20 5 8v16q7 4 6 18l12 23 2 29 63 24h45l10-5 2 5h72l11-6h13q6-8 24-6l8-6h10l16-6v6l-52 18q-22-3-30 6H287l-63-30-4-16-23-2 1-3-16-8-2 1v-2h-8l2-1-5-9 18-2-1 2 2 4 4-2 3-4h21l-8-22-4-2h-74l2-3-12-6-2-8 23-1q3 8 17 6l8-6 38-1-1-4 2-5Z"/><path fill="#0F001D" stroke="#0F001D" stroke-width="3" opacity=".996" d="m247 522 10 9v2l-11-8 1-3Zm26 0 3 3-2 3h-4l3-6Zm131 1 9 8v2l-8-5-1-5Zm-136 12 1 1v3h-4l3-4Zm154 0 3 1v3h-4l1-4Zm-88 5 2 1v5l-5-1 1-4 2-1Zm100 1 15 14v2l-19-11 2-4 2-1Zm-155 5 3 3-2 3-4-2 3-4Zm64 6 2 1 2 5h-1l-3-6Zm15 6 2 1-1 4h-4l1-4 2-1Zm-75 6 4 2v3h-4v-5Zm84 0 5 3-2 3-3-1v-5Zm-69 6 2 4-3 1h-2l1-4 2-1Zm9 6 5 1v5l-6-3 1-3Zm102 0-1 2-3 4h-3l1-3 6-3Zm15 6 2 1v2l-4 2v-1l2-4Zm-67 18 9 4v1l-9-5Zm100 0 5 4v1l-6-2 1-3Zm-138 4 6 5 11 15h-2q-13-7-15-20Zm53 14 5 2v3l-5 1v-6Z"/><path fill="#302BC9" stroke="#302BC9" stroke-width="3" d="m327 12 3 3v9l-5 2-1-2h-2l5-12Zm-16 7-4 7-5-2 9-5Zm-20 7 3 2 1 2-1 6-12 7-2-3 6-5 2-4-2-1 5-4Zm20 7v2l-3 2 3-4Zm-4 7 1 2 6-1v2l-3 5-3-1-1-7Zm-35 7v2l-2 1 2-3Zm-13 7-1 2-5 10-1-8 7-4Zm5 4-1 2v1l-1-1 2-2Zm164 8 4 2v7l-5-2-1-5 2-2Zm-9 7-2 5h-3l1-3 4-2Zm-137 2 1 4-1 4v6l-6-10 6-4Zm145 0 4 3-2 1 3 4 1-4 2 5-3 1-4-2-1-8Zm-198 2 5 1h2l9 1-5 3v2l-6 1v3l-5-11Zm150 6 4 1h1l-2 6-4-2 1-5Zm-56 1 2 2 4 6-5 7-6 3v-1l-2-5h2l6-1-2-4 2-1-1-6Zm-94 6 1 1-2 1 1-2Zm57 0 8 3-2 3-3-1-2 1 1-2-2-4Zm134 0 5 4 1 1 1-4 2 5-3 1v1l-6-8Zm32 0 4 2 2 2 4 2 1-2 7 14-2 1v4l-6-15-12-4 2-4Zm-146 5v5l-6 4-5 12-1-2h-3l3-5 1 4 3-4h1l-4-1 4-3 1-7v-2l6-1Zm78 3v4l-5 10-1-3 6-11Zm-29 4 1 1-2 5 3 1-8 5-1-6h-2l9-6Zm-78 7 5 3 1 2-1 3 5 3h-4l-7-3 1-8Zm96 16v3h-2l2-1v-2Zm-48 1 4 1-11 6 1-4 6-3Zm-121 2 1 4 2 1-3 2v-2l-5 11-1-5 6-11Zm277 2 5 9-1-1-4 1-3-6 2-1 1-2Zm-204 3 5 3v2l-6-3 1-2Zm-67 5 6 3 3 3 6 6h-2l-17-10 4-2Zm277 2 5 11-1-1-3-1-1-4-1 4-3-4 3-1 1-4Zm-220 4-2 3 5 6-6-5 3-4Zm20 7-2 5h-3l1-3 4-2Zm-69 17-2 3 1 3 2 2-2 1-1-2-5 8-1-3 6-11 2-1Zm115 6 14 1-5 3v2l-5 1-2-1-4 2-1-2 3-6Zm37 0 9 1-1 4 1 1-9-6Zm131 0 3 1v5l-6-2 3-4Zm-278 4 5 7 1-3 1 4-2 1-4-1-2 1 1-9Zm113 6v11l-5 3-1-6-5 3 1-2 1-2 9-7Zm-12 6 1 1h-1v-1Zm96 0v13h-1l-4-8 5-5Zm-173 2 5 3-5 3v-6Zm-7 11v2h-1l1-2Zm138 10 1 3 3 1-10 5v-1l-1-4 7-4Zm-27 3 9 4 1 2h-3l-7-6Zm52 4 5 3v2l-4 2-2-3-4-1 4-1 1-2Zm54 13v2h-1l1-2Zm-210 1 5 3-2 3-4-2 1-4Zm132 6 1 1-7 5 4 1-4 2-1-3h-4l11-6Zm22 0 7 3v8l-7-11Zm-143 1 1 1h-1v-1Zm1 10 1 2 18 11v1l-22-12 3-2Zm102 0 9 2-4 2-2 3-4-2 1-5Zm102 0 4 1h1v12h-6l1-13Zm-72 1 10 6 1 2-2-2-10-3 1-3Zm-166 6 12 6-5 2-3-2-1 3 7 7-8-6-1-4h-4l3-6Zm270 0 9 1v5l-12-2 3-4Zm-111 10v2h-1l1-2Zm-166 2 2 2 2 8h-1l-3-10Zm77 0 5 4q-3 5-6-1l1-3Zm34 0 7 3v5l-7-8Zm-137 2 1 4 5-2v3l-5 7-1-2-5 1v-1l5-10Zm41 3 4 6 7-6-6 7-7-5 2-2Zm235 18 1 9-4-1-2-6-1 2-2-3 8-1Zm-38 1 2 7-1-1-5 2-1 2-4 2 1 3-2 1q1-12 10-16Zm-14 24 2 2 2 3 2 1-2 1v1l-4-8Zm14 0 2 2 3 4-3 1v1l-4-2h-3l2-1 3-5Zm29 24 3 3 2 3-2 1v3l-2-4-4-2 3-4Zm10 10 5 5-2 3-4-2-2-3 2-1 1-2Zm-121 6v3l-5 10-1-4 6-9Zm-12 6 5 3-10 8-1-4h-3l9-7Zm38 2-2 3 1 3 5 3v4l-4-1-4 6h-4l-3-11 4-2 2 1 3-5 2-1Zm3 0 2 2h-1l-1-2Zm-77 2 1 4 1 1-6 4v-1l4-8Zm85 1 8 9-1 1-7-10Zm-31 4v16h-1l-4-8 5-8Zm-89 5-1 2-1 2-6 2 2-3 6-3Zm54 0 2 1-2 4-1-2-5 3v1l-5-1 11-6Zm83 10 2 2-1-1-1-1Zm19 0 7 8-7 1-3-6 2-1 1-2Zm-34 2 3 3v3h-7l4-6Zm-167 1 3 6 3 4 1 1 1 4-6 2v-1l-1-4 1-6-3-1-4 1 2-1 3-5Zm194 2 2 9-3-1-5-2 2-3 4-3Zm-72 13 1 6 3 2h-3l-11-5 5-2 3 1 2-2Zm3 38 4 1-1 2 5 3 1 2h1l-4-2-9-2 3-4Zm46 21 8 15-2 1-2-5-4-1v-3l-2 1-2-4 3-1 1-3Zm-169 21v8l-2-1 1-2-4-2 5-3Zm135 18 6 1-3 5h-6l3-6Zm48 12 4 2 2 4-3 1v1l-4-2-1 2-1-5 3-3Zm10 9 5 4-2 5h-6l2-1-2-4 2-1 1-3Zm-158 3 7 1-3 4-4 1v-1h1l-1-5Zm91 6 6 4v2h-7l1-4v-2Zm0 22 7 3-1 4 1 1-9-5 2-1v-2Zm-113 14 1 1h-1v-1Zm161 4 10 3-4 2-2 3h-4l-2-5 2-1v-2Zm-155 5 8 9-10-7 2-2Zm99 9 2 1-3 5h-5l3-1 3-5Zm109 12 11 6-3 1-1-2-7-5Zm-78 5 7 4v6l-7-3 1-4-1-3Zm-49 13 2 7-1-1-4 2-1-1 4-7Zm27 0 1 1-4 6-10 5v-1l-1-4 14-7Z"/><path fill="#427EEB" stroke="#427EEB" stroke-width="3" d="m411 12 3 2-1 4-5-2 3-4Zm-42 6 3 3v3l-6-2 3-4Zm-11 6 2 4-3 2q-6-3 1-6Zm11 6 3 1-2 5-4-2 3-4Zm-40 1-1 2-13 15h-3l3-5v-2l14-10Zm18 0 1 2-24 24 2 3 4 1-6 8-3 1-3-1-1-3-5 2v7l-11 3-1-2 47-45Zm-26 29-3 4 4 2 2-3-3-3Zm36-24 3 3-2 3-3 2-1-2-5 3 1-2 1-2 3-1 3-4Zm-84 12 3 1-1 5-5-1 3-5Zm-12 6 3 3-2 3h-4l3-6Zm-18 6 3 3-2 3-3 2-1-2h-2l5-6Zm19 6 2 1-6 9 6 7h-1l-8-5-1-3 8-9Zm-28 4 1 2 1 1-2 5-6-2 3-4 3-2Zm51 8 9 1-3 5-9-2 3-4Zm48 0 3 3-2 3-4-2 3-4Zm60 0 3 3 1 1 11 6v4l-15-8-3 2 3-8Zm-168 6 3 3v3l-6-1 3-5Zm10 0 5 2-1 4-5-1 1-5Zm86 0 3 3v3l-6-2 3-4Zm-20 1 5 3v2l-6-3 1-2Zm-48 5 11 10-2 2-8-7-1-5Zm122 0 3 3-8 21-4-2-1-10-3 1-1 3-4 2h-3l7-9 3-1 7 4 4-12Zm41 0 4 3 2 3h-8v-1l2-5Zm-26 1v6l-7 20v-3h-5l12-23Zm-161 5 5 3 1-2 2 5h-2l-7-3 1-3Zm84 0 5 3-2 3-4-1 1-5Zm-28 6 9 1-3 5-9-2 3-4Zm-62 6 5 4v8l-4-1-1-11Zm246 0 2 1 3 10h-1l-4-11Zm-103 11v5l-3 2-3-4 6-3Zm-125 1 5 4v2l-6-1 1-5Zm93 0 2 1-1 3-4 2-1-2 4-4Zm42 0 5 1-3 6-5-1 3-6Zm77 0 3 3-2 3-4-2 3-4Zm22 0 5 3-1 3-5-1 1-5Zm-269 6 4 2v4h-6l2-6Zm48 0 4 3-1 3h-5l2-6Zm-30 6 4 2-1 4h-5l2-6Zm95 0 4 1-5 8-11 3-1-2 13-10Zm50 0 5 1-2 3 2 2-8-2 3-4Zm114 6 3 3v3l-6-1 3-5Zm-214 1-1 2-4 7 5 7-17-8 1-3 16-5Zm94 5 12 1-2 4 1 1-14-2 3-4Zm-156 6 3 3-2 3-4-2 3-4Zm280 0 5 3-1 3-5-1 1-5Zm-251 6 4 1-1 5-5-1 2-5Zm133 0 3 3 1 1 5 2-6 1v1l-6-4 3-4Zm-168 6 3 3-3 9h-3l3-12Zm218 1-1 2-4 6-13 3 7-8 1 2 10-5Zm-200 5 3 3v3h-6l3-6Zm-25 12 4 2-1 4h-5l2-6Zm121 0 9 7-1 4-11-5 3-6Zm24 0 3 2v17l-6 16 1 1-7-3 1-4 4 1 1-11-2-1 5-18Zm-119 1 1 1-6 8-4 2v-1l7-9 2-1Zm214 5 4 3-1 3-5-1 2-5Zm13 0 3 3v9l-12 21-5 2-1-1 7-16 5-1q-3-13 3-17Zm-142 1 1 1-1 4h-5l1-3 4-2Zm-113 5v6l-3 6h-8l5-10h2l4-2Zm38 0 4 2v4l-6-1 2-5Zm62 6 2 1-1 17-5-1q-2-12 4-17Zm22 0 4 2 1 5-1 2-6-3-2 1 4-7Zm74 0 1 1-8 11h-3l10-12Zm8 2v5l-6 11v2l-3 4-2 1-12-1 15-6 8-16Zm-218 10 7 1-13 29-4-2 10-28Zm28 6 4 2v4l-6-1 2-5Zm26 0 2 1-3 5h-3l4-6Zm167 0 16 1 1 5-7 2-1-2-9-6Zm-2 6 5 4 1 1 1 1h-14v-1l1-2 6-3Zm-185 12 8 8 2 4h-2l-8-12Zm23 0 2 1 3 7-4-3-1-5Zm191 4v2l-3 6h-5l8-8Zm-40 2 11 1-3 5-4-1-1-3-3-2Zm-126 1 25 24 2 5h-1l-8-5-1-4-6-2 2-1-10-12h-5l2-5Zm-58 11q5 3-2 7l-3 15-4 2-1-11 10-13Zm170 0 6 4 2 2 5 1-1 4 1 1-20-6 3-4 4-2Zm46 0 1 1-8 17-9 2 2 4 4 4-1 2-5 2v-1l-1-5q-13 0-19-7 18 2 24-7l2-4 10-8Zm-171 6 11 10v2l-10-7-1-5Z"/><path fill="#427EEB" stroke="#427EEB" stroke-width="3" d="m390 258 12 3-2 3h-11l1-4v-2Zm60 2 1 22h-3l-4-11 6-11Zm-243 4 3 3-2 9-4-2 3-10Zm22 0 5 3h1l2 3 3-1 4-5 2 2-6 7-3 1-9-7 1-3Zm30 12 3 2 2 4-12 8 2 4 4 4v2l-10-7-1-2 2-4 9-7 1-4Zm-70 6 3 1-2 5-4-2 3-4Zm24 0 3 3-2 3-4-2 3-4Zm128 0 9 6v1l-9-7Zm121 2 1 10h-5l-2-4 4-2 2-4Zm-123 4 3 3-2 3-4-2 3-4Zm-73 1 4 2h1l17 19-2 2-19-18-1-5Zm-30 6 8 7 1 3-1-1-7-4-1-5Zm113 0 8 6 2 5h-1l-8-6-2 6-6-2 6-5 1-4Zm-96 11 5 4v1l-6-2 1-3Zm171 0 2 1v5h-5l3-6Zm-270 6 2 1q-3 17-13 27l-4 2v-1l15-29Zm196 0 4 2 1 5-3-1-3 1-1-5 2-2Zm125 6 5 4v2l-6-3 1-3Zm-42 6 5 2-2 4-4-2 1-4Zm-62 7 11 5-2 1-7-1h-2l-4 1-3-1 7-5Zm19 5 9 7 2 5-3 2-1 3-2-11h-6l1-4v-2Zm-30 5q-1 14 6 20v11l-1-1-11-8 1-21 5-1Zm-161 1 5 2-2 4-4-2 1-4Zm174 1 9 17 3 1-1 4 6 5 2 2 4-1 1-16 5 12-6 11-15-12-8-23Zm90 5 5 4v2l-6-3 1-3Zm-116 7-2 5-2 5-1-2-4 2v-1l5-7 4-2Zm-41 9v2l-3 6h-3l6-8Zm15 2 9 7v11l-4-1-8-14 3-3Zm54 0 3 3v3h-6l3-6Zm-108 12 3 3-1 3h-5l3-6Zm-38 6q22-4 29 7v2q-8 6-23 3l-12-8 6-4Zm108 0 3 2 2 4h-2l-3-6Zm43 0 4 2-1 4-5-2 2-4Zm11 0 5 4v2l-6-1 1-5Zm12 0 5 2-2 4-4-2 1-4Zm-81 6 8 3-2 3-3 1-3-7Zm-33 5-2 5q-8 10-27 8v-1l28-10 1-2Zm-69 1 2 2-1 5-5 2 2 3 10-1 1-5 15 6-9 2-1-2-18 8 2 10 6 1-2 12-4-1-2 11 5 1h1v14l-5-2-1 12-6 2-6 11 12 14 12 7v2q-20-3-27-18l-3-14 12-5q3-18-4-26l4-7q-3-18 4-26l2-1-1-5h-2l-1-3 4-7 4-2Zm123 0 5 4 2 2 4 1v5l-6-3-1-3-5 2-3 4q-6-3 1-6l3-6Zm80 0 9 4v2l-12-2 3-4Zm-20 6 5 2-1 4-5-2 1-4Zm-6 6 5 4v5l-7-3 2-6Zm18 0 14 7 2 4-1-1-11-4-9 6-2-5 6-2 1-5Zm-54 6 19 18-2 1 1 1-6-5-2 1-10-16Zm78 1 7 5-2 4-5-9Zm-17 5 4 3v6l-11-3 5-3 2-3Zm17 6 5 4v5l-11-3 5-3 1-3Zm-88 18 16 6 5-3v7l-3 2-3-4-15-8Zm28 0 3 2 2 10h-2l-3-12Zm18 3 5 7-5 6 6 6-7-7 5-6-4-6Zm-26 14 11 7-4 3-7-3 1-3-1-4Z"/><path fill="#427EEB" stroke="#427EEB" stroke-width="3" d="M228 479v2h-1l1-2Zm-10 1 4 2-1 4h-5l2-6Zm100 6 5 1-10 6-1-1 4-5 2-1Zm86 0 4 2-1 28h-5l2-30Zm93 0 7 1v11l-6-1-1-11Zm-161 6 30 2v5l-41-1 11-6Zm-66 24 1 1-6 10-2 1 1-2 4-9 2-1Zm-17 4 7 8-8-3-1-3 2-2Zm-41 2 4 2 1 5-3-1-3 1-1-5 2-2Zm197 0 5 2v4l-6-3 1-3Zm-162 6 5 4v2l-6-1 1-5Zm156 0 5 4v2l-6-1 1-5Zm18 1 10 8-8 9-3-1 1-5 5-1-1-5h-5l1-5Zm-150 5 5 3-10 9-2-5 6-2 1-5Zm65 0 4 1-9 6-1-1 4-5 2-1Zm16 6 2 2-6 8 6 7h-2l-3-2-2 1-5-9 4-2 2-4 1 2 3-3Zm87 0 9 8 2 4h-2l-9-12Zm-6 7 11 9v2l-12-9 1-2Zm-151 7 1 10-1 2-6-3 2-5h2l2-4Zm80 4 4 2 2 4-2 1v2l-7-3 3-6Zm138 0 4 1v35l-6-1q2-15-5-20l7-15Zm-270 6 15 6h-5l-10-6Zm58 0 8 1-2 11-6-3v-9Zm92 0 4 2 2 4h-11v-1l3-1 2-4Zm-73 3 10 4-5 3-1 2-5-2 1-7Zm-78 3 5 3h1l11 21v6l-6 1v1l-10-8-2 1 1-25Zm168 0 11 2-1 4q-9 2-11-3l1-3Zm-150 6 5 2-1 4-5-2 1-4Zm72 0 5 2-1 4-5-2 1-4Zm96 0 5 2-1 4-4 2-2-2 2-6Zm-114 1 14 12 2 5h-1l-15-17Zm103 5 5 1-1 4 1 1-7-1 2-5Zm30 0 4 2-1 4-4 1-5-1-2 5 6 1h2l15-6 1 3-6 5 2 4 9 6-2 1 2 3-8 7-26-28 11-4 2-3Zm-107 6 3 3v5l-4-2-2 1 3-7Zm15 4 1 3-1 8-8-3 8-8Zm115 2 5 2v4l-6-3 1-3Zm-145 6 6 4q1 13 12 18v7l-3 1-4-12-3 2-1 3-1-2-6 3-10-7-2-5 8-10 4-2Zm157 6 5 2-3 4 1 1-9 4-1-4 6-2 1-5Zm-108 1 5 3v2l-6-3 1-2Zm53 7 6 8-7 6 6-7-5-7Zm-79 4 12 1-9 4-3-5Z"/><path fill="#ADD9EA" stroke="#ADD9EA" stroke-width="3" d="m394 90 20 13 2 3 22 18v2l-17-6h-19l-10-7-2-17 4-6Zm15 114 3 2 2 9-2 1-3-12Zm-99 6 2 1 10 16 13 5 1 9-6 9 42 44h-6l-41-33-19-32v-13l4-6Zm84 132 2 11-2 1-4-6 4-6Zm-25 60 13 6 2 4v14l-15-12-3-9 3-3Zm-128 12 11 1-3 10-8 5-4 13-3 1-5-3-1-9 13-18Zm38 1 9 8 17 7 1 27-3 4-27 1-23-9-1-3q8-23 27-35Zm220 41 5 1v23q-17 4-23-3l-1-3 8-10 10-5 1-3Zm-157 6 5 4 1 3-3 4-3 1-5-3-1-3 4-5 2-1Zm-59 66 9 8 8 17-8 10-4-2-1-3-4 1v-31Zm108 78 16 15-7 8-8-6-1-17Z"/></svg>