<svg xmlns="http://www.w3.org/2000/svg" viewBox="0 0 1536 1536" stroke-width="3" xmlns:v="https://vecta.io/nano"><path stroke="#000" opacity="0" d="M1 0l1535 1v1535H0L1 0zm664 72l-11 6h-25q-5 7-18 6l-58 32-47 47-29 46q-12-8-17-22l-26-25-7 2-19 21 18 57 12 23 11 34-1 5-2 1-264-131-7 2-19 21 2 7 31 31 5 11 31 31 5 11 37 37 5 11 37 37 5 11 43 43 8 14-5 3-16-6h-31l-11-6h-37l-11-6-7 2-19 21 2 7 17 16 87 46v2l-17 2-11 6h-31q-11 10-36 6l-9 5-10-5-28 12q-26-4-36 6h-31l-16 8-19 21 2 7 21 18q17-2 24 6h19l21 12 6-5 32 11h19l11 6h19l35 12h19l11 6 17 2v2l-16 11-18 9h-7l-11 9L91 788l-19 21 2 7 21 18h75l11-6q23-5 32 6l10-6h49l11-6h29l9 6 6-5 2 4-14 31-25 37-11 23-13 13-11 29-43 67-17 35-123 203 2 7 21 18 7-2 25-25 11-5 61-61 11-5 25-25 11-5q15-9 21-27l21-15 57-57 3 6q5 28-6 40v97l-6 11 6 14v35l-6 11v85l-6 11v31l-6 9 5 8-5 12 2 37 21 18 7-2 28-28 84-137 8 12q-2 17 6 24v13l6 11v13l8 16 21 18 7-2 16-16 41-83 7-7 41-77 2 2-5 6 15 16 5 17 9 9-5 6 74 153 21 18 7-2 18-20v-45l-6-11v-61l-6-11v-109l-6-11 2-9 2-1 4 10 25 25 5 11 43 43 5 11 25 25 5 11 25 25 5 11 31 31 5 11 37 37 5 11 35 34 16 8 7-2 18-20q3-19-6-26v-25q-9-9-6-30l-6-11v-25l-6-11v-25l-6-11q3-22-6-30v-25l-5-9 3-7 10 17 73 73 5 11 103 103 5 11 50 48 20-22v-9l-102-203v-7l-50-100-10-13v-7l-14-28-9-9 4-3q14 3 20 15l119 59 7 7 83 41 7 7 11 2 53 30 13 3 53 33 13-2 18-20-2-7-43-43-5-11-43-43-5-11-43-43-5-11-43-43q-8-22-26-32l6-4h37l11-6h31q8-9 30-6l11-6q15-2 20 6l22-12 41-2 24-25-24-25-17-2-21-12-6 5-10-9-20-8-6 5-25-13-2-1 14-14 6 5 28-27 11-5 30-32-2-7-20-19-14 6h-35l-9-6-10 6q-18-2-24 6h-53l-11-6-10 5-3-1 203-206-2-7-20-19-104 36h-13l-137 48h-13l-7 5-3-3 2-7 117-119-2-7-20-19q-11 9-33 6l-11 6h-19l-11 6h-19l-11 6h-19l-11 6h-19l-11 6h-19l-11 6h-19l-11 6h-25l-8 5-2-2 150-150 11-5 132-134-2-7-20-19-79 38-13 10-11 2-7 7-236 122-3-1 21-22 59-113 9-11-2-7-20-19-7 2-59 65-10 16-10-23v-25l-12-29v-17l12-27-5-8q9-13 5-37l6-11v-25l6-11-2-37-20-19-7 2-17 17-28 51-2 1-7-2q-20-26-49-43l-21-7-31-19q-14 1-18-6h-19l-11-6-12 5-10-5-6 5-11-5z"/><g fill="#130224" stroke="#130224"><path d="M665 72l11 5 6-5 10 5 12-5 11 6h19q4 7 18 6l31 19 21 7q29 17 49 43l7 2 2-1 28-51 17-17 7-2 20 19 2 37-6 11v25l-6 11q4 24-5 37l5 8-12 27v17l12 29v25l10 23 10-16 59-65 7-2 20 19 2 7-9 11-59 113-21 22 3 1 236-122 7-7 11-2 13-10 79-38 20 19 2 7-132 134-11 5-150 150 2 2 8-5h25l11-6h19l11-6h19l11-6h19l11-6h19l11-6h19l11-6h19l11-6q22 3 33-6l20 19 2 7-117 119-2 7 3 3 7-5h13l137-48h13l104-36 20 19 2 7-203 206 3 1 10-5 11 6h53q6-8 24-6l10-6 9 6h35l14-6 20 19 2 7-30 32-11 5-28 27-6-5-14 14 2 1 25 13 6-5 20 8 10 9 6-5 21 12 17 2 24 25-24 25-41 2-22 12q-5-8-20-6l-11 6q-22-3-30 6h-31l-11 6h-37l-6 4q18 10 26 32l43 43 5 11 43 43 5 11 43 43 5 11 43 43 2 7-18 20-13 2-53-33-13-3-53-30-11-2-7-7-83-41-7-7-119-59q-6-12-20-15l-4 3 9 9 14 28v7l10 13 50 100v7l102 203v9l-20 22-50-48-5-11-103-103-5-11-73-73-10-17-3 7 5 9v25q9 8 6 30l6 11v25l6 11v25l6 11q-3 21 6 30v25q9 7 6 26l-18 20-7 2-16-8-35-34-5-11-37-37-5-11-31-31-5-11-25-25-5-11-25-25-5-11-43-43-5-11-25-25-4-10-2 1-2 9 6 11v109l6 11v61l6 11v45l-18 20-7 2-21-18-74-153 5-6-9-9-5-17-15-16 5-6-2-2-41 77-7 7-41 83-16 16-7 2-21-18-8-16v-13l-6-11v-13q-8-7-6-24l-8-12-84 137-28 28-7 2-21-18-2-37 5-12-5-8 6-9v-31l6-11v-85l6-11v-35l-6-14 6-11v-97q11-12 6-40l-3-6-57 57-21 15q-6 18-21 27l-11 5-25 25-11 5-61 61-11 5-25 25-7 2-21-18-2-7 123-203 17-35 43-67 11-29 13-13 11-23 25-37 14-31-2-4-6 5-9-6h-29l-11 6h-49l-10 6q-9-11-32-6l-11 6H95l-21-18-2-7 19-21 203-101 11-9h7l18-9 16-11v-2l-17-2-11-6h-19l-35-12h-19l-11-6h-19l-32-11-6 5-21-12h-19q-7-8-24-6l-21-18-2-7 19-21 16-8h31q10-10 36-6l28-12 10 5 9-5q25 4 36-6h31l11-6 17-2v-2l-87-46-17-16-2-7 19-21 7-2 11 6h37l11 6h31l16 6 5-3-8-14-43-43-5-11-37-37-5-11-37-37-5-11-31-31-5-11-31-31-2-7 19-21 7-2 264 131 2-1 1-5-11-34-12-23-18-57 19-21 7-2 26 25q5 14 17 22l29-46 47-47 58-32q13 1 18-6h25l11-6zm0 24l-11 6h-25q-5 7-18 6l-58 32-23 23-24 36-11 29-13 11-7-2-33-39-4 2 12 42 12 23 12 43 6 11q-2 16-14 22l-34-21-32-12-16-12-32-12-168-86-4 2 69 77 5 11 37 37 5 11 37 37 5 11 43 43 20 28q-2 13-13 18l-12-11-10 6q-16 2-22-6h-31q-9-9-29-6l-2 11 90 46 11 13-17 14q-18-2-24 6-26-4-36 6h-31l-11 6q-24-4-34 5l-10-5-28 12h-25q-10 10-33 6l-2 11 24 1 21 12 6-5 32 11q21-3 30 6h19l35 12h19l35 12q17-3 25 3l11 14-2 7-9 9-13 3q-23 6-35 21l-18 9h-7l-11 9-180 89 2 10h54l11-6q23-5 32 6l10-6h49l11-6h29l9 6 10-6q15-3 23 3l10 12-61 105-13 13-11 29-139 229-17 35-27 39 2 3 29-27 11-5 61-61 11-5 67-67 11-5 65-63 7 2 12 16v47l-6 11v97l-3 6-3 2 4 10 2-3 1-3 9-6 2-8 12-6v-2l-2-2-2-2 2-6 3-1 4-3 1-4-2-2-10-17 4-15 2-1q-1-14 6-20l-1-6 2-4 29 9 7 15 5 3h5l-2-1 4-2 5-6 16-14 1 1-3 7h-2l-4 6h-2l-5 8-1-1-6 11-40 42h-2l-4 6h-2l-4 6h-2l-10 18h-2l-12 21q4 24-6 35v88l-6 8v31l-6 11 6 5q-11 13-6 43l5 1 2-9 5 3q2-16 12-23l3-13 13-13 20-37 2-4 4-2 34-52 11-23 13-12 14 18 6 25 6 11q-2 17 6 24v13l6 11v16l11 1q16-47 43-82l-1-16-7-4-4-8 4 2h2l-6-8q2-13-4-18l7-14-1-2q5-7 19-6l9 17 11 1 13-26-1-4-22 6-1-4-2-2-2-2q5-26 20-42l3-1 26-22 3-7 18-6 6-8q-2-14 3-19 13 1 18-7h31l17 10q16 11 23 31l5 3 1 4 15 12 1-104q10-9 6-31l12-20q4-26-6-36l2-11 31-43 11-23 13-9 4-7 5-4 27 1 3 5-1 15-7 4-4 5v37q-9 10-7 32l-11 6q-9 7-7 24l-7 4-4 5 1 6 12-3 7-13 10-8 3 1 3 5v13l-12 35v37l12 35q3 24-8 35l-12 8-4 5 1 9 5 3 3-1 33-58-12-24 1-3 8-5q6-4 3-17l6-11v-31l6-8-5-6 17-27 1-15 12-7 5-8-5-9 8-9q7 7 24 6l4 8q4 6 18 3 8 12 28 14l1 4 6 1-6 10 11 1 1-8 4 2h2l-3-5 3-1v-2l4 2 8-2 16-16h5l3 6-8 1-4 5 1 9 5 3 71-38 25-19 59-23 7-9-2-6-15 5-1-2 19-10 11 6v3l6 3 11-2q9-4 7-18l7-4 11 6 3-1 3-7 7-4h15q2 7 14 6v-2l-5-4-1-2 3-2 3 1v2l5 1 1-2 7-4 11 3 1 6 5 3 29-2 1-2-5-2-1-5 4-1 4 6q11 1 14-6 13-1 19 6l7-2 2-4 34-26-1-4-11 6h-35l-9-6-10 6q-18-2-24 6h-53l-11-6-12 5q-20-4-30-18l208-211-1-4-101 36h-13l-137 48h-13l-7 5-6-5-10 9-22 8q-14-2-19-13l149-150-1-4q-9 9-30 6l-11 6h-19l-11 6h-19l-11 6h-19l-11 6h-19l-11 6h-19l-11 6h-19l-11 6h-25l-11 6q-16-2-22 5-13-2-18-12l1-4 190-190 11-5 108-108-1-4-345 179-7-2-1-1-5-2-1-2-6-6-6-10q-3-18 4-26l3-1 5-3 1-6 9 6q33-45 56-100l-3-2q-21 12-30 36l-37 35-7-2-13-15q4-26-6-36v-25l-12-29v-17l12-27-5-8q9-13 5-37l6-11v-25l6-11-1-14-10 2-22 40-17 16-40-38-11-5-7-7-20-6-32-20q-14 1-18-6h-19l-11-6-12 5-7-2-1-1-4-2-2 3-2 1-3-1-1-1-7-2zm685 828l-35 12h-13l-11 6h-13l-106 38-7 8 11 8 3-1 3-7 6-4q11-2 15 6l9-6q7 8 25 6l8 6 9-6 11 2 13 10h43l11-6h31q8-9 30-6l11-6h31q8-8 26-7l3-4-1-3q-4-7-17-4l-11-9-13-3-8-6-6 5-51-29h-7zm-351 78l-9 11 3 1 5 6 10-8-1-4-4 2-1-6-3-2zm-201 30l-2 1-4 5v31l-6 8 7 12 5 3 3-1 4-7 8-5q6-4 3-17l12-23v-6l-30-1zm165 1l-14 15 5 2 6-2 6-8-2-6-1-1zm-183 71l-2 1-4 5 1 18 14-1 3-4-1-15-11-4zm-115 42l-4 2-7 9 2 61 11-6q15 2 22-4l1 3 5 1 1-2 2-4 13-6-3 4 1 2 9-6 2-4q3-22-8-31-9-13-26-19h-21zm64 60l-9 11-6 25-9 18q-11 18-32 26l-1 3 4 3-4 8 11 8 7-2 34-34 5-1 3-4v-59l-3-2zm-85 12l-2 2 2 10 10-1-1-8-9-3zm32-1110h17l37 18 5 7 15 32q-6 5-20 3l-9-15-2 1-11-14-4-1-2-5-22-8h-14l10-18z"/><path d="M649 132l22 1-2 5-3 2 2 4 4 4v22l3 3 18 1 11 6q6-8 22-6v18l-15 24-11 6v1l-22 7-8 16q-44-2-64-27l-12-30 15-8v-2l7-5 5-17 22-22 6-3zm5 42l-8 6-25 1-3 4v9l8 16 33 18q14 3 19-3v-3l-5 3-2-48q-5-6-17-3zm-50-30l2 1-3 5h-2l3-6zm212 210l16 6 14 28-9 19-27 1-10-7-8-16v-7l9-18 15-6zm-239 18l23 16 6 18-11 17q-11 8-33 3-12-8-10-29l6-11 3-1-2-1 8-5v-2l10-5zm-2 6l-2 1-3 10 11 1 1-10-7-2zm133 84l12 3v3h-12l-29 18-1-2 9-11 21-11zm85 114l5 4 1 2 24-6 4 4 1 3-3 4-21 1-53 18h-37l-12 6-12-6-11 6h-31l-6 5 4 6 87 1 5-3 1-3h30l53-18v12l-12 2v1l-66 27h-36q-9 11-32 6l-9-6q-18 3-24-6h-22l3-4-7-4-11-16v-8l6-4h115l8-6h22q6-8 24-6l11-8 1-4zm101 64v2l-3 6h-6l3-5 1 4 5-7zm-51 134l3 1-6 14-21 9 1 1-19 11 1 1-39 23v-1l7-10v-2l30-16v-2l6-4 1-2 18-10v-2l18-11zm-416 12l5 3 1-2 5 12-1-1h-8l-2-12zm67 19l26 23 3 4 3 2 3 4 3 2 2 6h-3l-11-12-4 1 16 23 2 1v4l-10-4-1-3-2 1-10-20-2 1-17-31 2-2zm302 23l2 1-5 7-1-4 4-4zm-168 12l2 1v11h-3l-2-7 3-5zm-87 6l9 6 2 2h1l2 4h-8l-6-12zm248 6l3 1-3 10-8 5-1 3q10 10 6 36l12 24-2 4h-2l-9-15-5-2-8 6-7-11-8-4q2-15-4-20l-3-1-27 24-5 12h-4q-1-15 9-18l35-34q16-1 22-11l1-3 8-6zm-254 13l2 5-2 1 5 3 1 2-1-1-6-2 1-8zm693 23l8 3v3h-12l4-6zm-757 12l3 3v3l-6-2 3-4zm710 7l1 5-23 12h-6l-1-11 3-1 5 6 4-1 1-2 16-8zm-605 11v3l-4 3-2-2 6-4zm559 0l8 1 2 5-5 2-12 16-17 5-1-7 6-8 4-2 2-4 2 1 10-4 1-5zm-579 12l2 1-3 5h-2l3-6zm156 12v3l-1 3h-3l4-6zm393 0l1 1-7 8-18 9-1-2 25-16zm-565 3v9h-8l8-9zm540 1v6q-3 5-6-1l1-3 5-2zm-12 6v5l-8 3 2-3 5-2 1-3zm-436 8l5 1-1 2 18 6-6 15h-3l-10-18-5-2 2-4zm441 1v3l-4 2-1-2 5-3zm-376 5l5 3q1 13 12 17l1 1 18 19 3 2v6l-17-14-17-20-4-1-1-13zm335 9v3l-3 6h-3l6-9zm-518 3l1 1-2 5h-2l3-6zm233 6l3 1v5l-6-2 3-4zm-404 15l2 3-2 1 5 3-3 8 1 1-7 3-7-3-2-4-1-3-4 1-1-3 18-4 1-3zm-28 9l3 1v5l-6-2 3-4zm136 33l4 3 1 3 9 15h-5l-9-21zm220 22l1 1v1l-5 2-1-1 5-3zm-202 2l2 3-2 1 5 3v1l-6-2 1-6zm-17 34l4 3v2h-6l2-5zm-70 35l5 1-3 5h-5l3-6zm-6 18l5 1-7 5-1-1 3-5zm192 36l2 5-5 2v-1l3-6zm-157 138l3 3-2 3-4-2 3-4z"/></g><path d="M667 96l3 1-4 3 1 2 5 3-2 3-3 2-1-2h-8l3-9 6-3zm-25 6l6 2-3 4 2 1-22 11 3 1-3 1-1-2h-3l6-12q11 2 15-3v-3zm-49 16l1 1 1 1 5 1-3 4-20 11-4 7-20 11-4 13-14 4-1-2 21-24v-2l9-4-4-1 4-2 1 2 8-5v-2l9-7 1 2 10-5-3-1 3-2zm13 18l1 1-6 11-5 3-1 3-1-7 12-11zm146 8l4 3v3h-3l-1-6zm-228 66l7 6-3 1 3 5h-7l-2-10 2-2zm196 28v5l-11 6 4 7-4 2-2-4-2-1-2 4-1-5h-6l3-7 11-5-2 3 1 3 10-5 1-3zm332 608h83l10 4 2-4 10 6h-98l-7-6zm108 6q18-3 25 6h-15l-10-6zm60 6l29 1-1 2q-7 5-20 3l-8-6zm-475 279l11 15h-2l-5-2-4-13zm18 9l2 1 3 7-4-3-1-5z" fill="#84a9a6" stroke="#84a9a6"/><path d="M669 97l2 1 1 6-2-2h-4l3-5zm-33 5l6 2-1 2-5 2v-1-5zm-13 4l1 1 1 1 1 1-5 11 2 1-8 5 1 1-8 6-1 3-9 8 8-9v-3l-10 8-2 4 2 1q-15 27-38 47 2 17-6 24v19l4 4 7 5 5 7 11 7 3 13 8 9q20 5 31 20h-11q-6-9-22-6l-10-7-13-26-29-16-2-17-6-11 4-2 2-11-6-12 10-24q10 2 13-3l5-14 19-10 5-8 19-10 1-2-5-1 10-5-3-1 4-2 1 2 16-8zm-29 51v6l-3 5h-4l2-1 5-10zm84 87l1 2 2 1q-4 6-15 5l-9-5 21-3zm15 2l5 1-2 5 6 1-2 16-23 23-17 11 1 3h-7l-11-5q21 0 27-14l12-22 7-4 1-8-3-1 6-6zm-12 84l13 3 2 8h-1l-2-5q-12-3-14 3l-1-6 3-3zm16 13l5 11v47h-1l-5-10 1-48zm-18 26l5 14h-1l-4-14zm24 40l5 14-3-2-2-12zm-140 23l19 8-3 9-3 1-12-9-1-9zm149 18l8 4v2l-4-1-1-4-1 2-2-3zm-34 5l1 19 3 1-15 11-1-6 6-9-6-4 2-5 2-1 2-4 1 2 5-4zm19 7l3 1-11 6-1-1 9-6zm180 328l5 3v5l-6-1 1-7zm176 44l-3 4 1 2h17l-3-5 5 3 4 2h67l11 6h25l5 4 2 2h35l10 6h-43l-9-6q-22 3-30-6l-2 4-10-4h-99l-4-3 1-3h5l1-3 6 3 8-6zm308 16l1 1 1 1 6 1-1 2 5 3 4 6h-30l-3-2-3-9 20-3zm-55 2l11 1-4 5-5-1-2-5zm-50 6l15 6h-5l-10-6zm134 0q9 8 28 7-8 9-28 5l-9-5 11-1-2-6zm-645 276l5 3v5l-5-8z" fill="#9bb7ad" stroke="#9bb7ad"/><path d="M680 97l3 1 1 4h-5l-1-2 2-3zm-49 5l5 3-2 3h-10l1-3 6-3zm-72 36l3 1-10 5 2 1-2 1v-2h-2l9-6zm-39 42l2 1-5 10-1-4 4-7zm151 468l12 6h-4l-8-6zm114 181l-1 2-1 3h-3l1-3 4-2zm-10 11l7 6h-1l-7-3 1-3zm-355 334v2l-11 14-1-4 12-12z" fill="#ccbfa8" stroke="#ccbfa8"/><path d="M701 97l7 3v2h-12l1-3 4-2zm27 5l9 6h-10l-1-4 2-2zm18 6l9 6h-5l-6-3 2-3zm12 6l10 4v2l-10-6zm-208 30l2 1-17 21-4 2-2 5-1-4 22-25zm-48 72l2 1-1 23-3 2-2 22-5 1-1-25h-10l14-12 6-12zm-31 240l3 5 2 1-2 1 3 5h-5l-4-9 3-3zm423 293l6 2-6 12 5 10-5 2 2 5 2 2 2 11-1-1-3-1-5-17-9-2 10-22 2-1zm7 48l3 3 10 21 13 13 9 6 1-3q6 7 24 3l5-3 1 3 16-5-4-1 5-3 1 3 13 1-37 17h-25l-18-9v-3h-6l-1-12h-5l-3-12-3-1 1-18zm113 31q16-2 23 6h-29l-3-1 9-5zm362 24q14-2 20 6h-10l-10-6zm-655 96l5 4-2 8-3 1-1-7-6 3-5 6-1-2 7-10 6-3zm-124 12l-2 3-1-2 3-1zm-9 8l1 4-2 1-4 7-1-1 6-11zm-42 56v2l-5 8-1-1 6-9zm48 9v5l-9 18-2 1-1-1 12-23zm-60 7v4l-5 8-1-1 6-11zm84 3v5q-9 13-30 14v-1l1-2 13-3 8-6 2-4 6-3zm-96 15v4l-5 8-1-1 6-11zm-36 44v2l-5 8-1-1 6-9zm18 39v5l-3 6-2 1-1-1 6-11zm13 11l4 1-11 5v-1l1-2 6-3zm77 0l2 1-10 12-8 6-1 3-1-4 14-16 4-2zm-36 45v4l-3 5h-3l6-9zm-168 11v4l-5 8h-2l7-12z" fill="#d7c383" stroke="#d7c383"/><path d="M659 100l1 1-2 7h-13l3-4v-2l11-2zm60 135l1 1-2 4 1 1-10 5-1-3 3-4 8-4z" fill="#63a0a4" stroke="#63a0a4"/><path d="M673 100l3 1 2-1 1 2h5l1-2 6 2h1l-2 5 1 1h-20l2-8zm61 14q12-1 16 6l1-3 29 17 16 22 7 4 5 7 8 3q3 20-6 29l8 23h-2l-10-7-8-17 6-12-12-17-1-19-23 2q3 16-3 22h-3l-2-6-3 1-8-20 2-4 3 5h2l-1-6-10-6-1 3 4 4-5-3-5-12 4 2h2l-12-16 2-2zm-8 5l9 7h-2l-11-5 4-2zm-126 29l1 2 1 1-7 9-1-4 6-8zm159 39l3 2 1-2 5 11v41l-12 3q2 16-7 20l-17 5-25 19-11 4-6 14 5 6-5 9 10 13 8 22v49q8 6 6 24l12 17-6 1 6 14-6 3-6-3-1-2 7-1-2-6-7-5-3-6v-31l-6-11v-49l-9-17-13-1-7 11q2-19-6-26l-18-8q19 1 28-9l29-29 8-14-4-6 14-10 2-4 3-1 18-17 12-30zm-15 19v5l-23 26-1-3h-4l7-5v-2l19-17 2-4zm-226 10l4 2v17l6 11q-3 13 4 17 22-2 29 13l13 23 25 2-10 5h-31l-24 9-9 9-8 23q2-16-4-23l-3-1 2-5 3-2-2-4-3-1v-41l6-11 2-43zm115 24l13 6h-3l-10-6zm-19 60q23-4 33 6h-23l-10-6zm59 43q9 10 5 34h-1q-9-11-4-34zm-156 6l11 17 2 12h17l23-12v3l-2 3 1 1-8 5 1 1-8 6-5 17-2 1-5-1-2 1q3-14-3-18l-8-4-13-26 1-6zm61 11l22 2 6 22h-2l-9-5 2-1-21-9 2-9zm101 19l5 18-3 5-2 1v-24zm-55 5l36 2q-2 15 6 22v13l9 11 3-1v8q-15 20-18 53h3l4-1-10 19h-3l-6-12 12-28-3-2-12 12-9 18-6 25-7 9-22 8h-19l-27-18-6 5-6-5-3 2-5-11q12-10 17-27l-3-5-9-1 2-24q16-3 22 4l8 12 29 20 9-7 8-29-7-10-17-5v-3h-18l-22-13-8-17h2l2 2q3 14 15 20l40 2q11-14 8-42l11-6zm55 23l3 3 2 5-5 10v-18zm-143 1l10 9v3l-12-8 2-4zm173 48l-1 2-1 2-8 2v-1l10-5zm-83 132l40 2-1 4-41-1 2-5zm164 12l2 1-3 5h-3l4-6zm-24 6l8 1-3 5h-9l4-6zm14 24l4 1-9 5 2 1-3 2v-3h-5l11-6zm-127 12l12 6-5 1v2l-5-2 4-1-6-6zm91 0l5 1-5 3 1 2 10 1q-5 6-18 5l1-2v-4h-5l11-6zm125 132l7 2v29l18 32 5 3-2 1 4 5 1 1-1 2 11 12q7 6 23 4l-22 11-2-4-17-3v-17l-24-53-1-25zm-73 48l6 1-12 5v-1l2-4 1 2 3-3zm304 30h35l8 6h-33l-10-6zm90 6q15-2 21 6h-11l-10-6zm61 0l3 2 2 2 3 2h-15v-1l7-5zm149 12l12 1-6 4-6-5zM745 994l5 13-4 1-1-14zm-30 8l15 12 2 4v2l-16-13-1-5zm27 24l2 2v4l-11 6-1-2 10-10zm-24 24l3 2 2 4-3 1v2l-11-3 9-6zm15 22l18 20 4 1-5 3q-8 8-6 27l6 11-6 1v9l-7-22q-13 1-16-6l-1 2-6-3 6-10 1 2 10-6 7-15-5-14zm29 8v15l-3-2-3-7 4-5 2-1z" fill="#8b887e" stroke="#8b887e"/><path d="M695 100l1 1 1 1 4 1-5 3 1 2h-4l-3-3 3-4 2-1zm14 0l12 3-1 4 5 1h2l16 6-11 2v4l-28-11 4-1-3-5 3-1 1-2zm-60 8l4 1-26 11v-1l22-11zm-115 58v15l-5 10-5 3q-10 11-9 34l-3 2-2 5 4 5 2 2v17q-8 7-7 23l-3 2-1 3-1-17q7-5 6-18-10-7-6-28l4-3 4-17 2-1 14-28-2-1 2-4 1 4 5-8zm-29 146l5 2q-2 12 4 16l2 2-1 4-3 2-1 3-1-5h-6l1-24zm5 31q-2 12 4 17l2 2v13l-12-25 4-3 2-4zm7 53l11 8 4 9 14 7 1-5 3 4 1 1-4 1 5 2 1-2 5 8 5 3-2 1 3 8-9-9-3 1 2 10 10 13h-4l-4-5-4 3-1 2q-16 3-20-5l-6 5-3-2v-46l-5-12zm26 6l3 1v11l-6-3 3-9zm141 25v6l-5 10-1-5 6-11zm-6 18v10l-5 1v-1l5-10zm131 174l1 1-3 4 1 1-23 11 1-2 1 1 2-4v-2l20-10zm-35 17v4l-2 3q-9 8-27 5l-1-2q5-7 19-4l11-6zm-137 6q14-3 17 4v2q-13 2-18-3l1-3zm24 6q12-2 16 6h-13l-3-6zm53 0l9 1-2 4-1-4-3 5h-4l1-4v-2zm15 0l9 1-3 5h-12l6-6zm153 120l2 6 4 3q-2 11 4 15l2 2q-3 16 4 22l2 2 3 9 3-2 1 3 2 1-4 6-5 3v2l-10-7-8-16q2-13-3-18l3-1v-6h-3l3-6-7-11 3-5 4-2zm-104 60l8 2-1 10h-4l4-10-1-1-11 5 5-6zm238 6q16-3 22 4v2l-6 1-2 11h-45l11-9 18-6 2-3zm38 0q11-3 14 4v2h-18l4-6zm-142 5l3 2-3 6 4 4q13 12 45 7 6-8 22-6v1l-5 3-1 2q-13-2-17 4l-1 2h-41l-16-13-1-2 5-3 2-4 3-1 1-2zm392 25l4 2 3 4h-11l2-3 2-3zm66 0q14-2 18 6h-11l-7-6zm-649 252l7 6h-2l-6-3 1-3zm-313 70v2l-5 8-1-1 6-9z" fill="#aaaa8b" stroke="#aaaa8b"/><path d="M681 96l1 1h-1v-1zm21 6l6 4v2l-12-1 2-3 4-2zm-108 61v8l-5 8-1-5 6-11zm13 57l7 8h-5l-2-8zm179 413l1 2-4 1 3-3zm94 129l2 1-1 3-4 2-1-2 4-4zm190 72l15 6h-5l-10-6zm28 0l17 6h-27v-1l10-5zm50 6l15 6h-5l-10-6zm24 0q13-3 16 3v3q-13 2-18-3l2-3zm89 4l15 8h-10l-9-5 3-1 1-2zm111 8l13 6h-5l-8-6zm22 6l10 4 1 2h-1l-10-6z" fill="#bec2a5" stroke="#bec2a5"/><path d="M722 102l5 1-2 5-5-1 2-5zm17 4l6 3-1 2 12 3 1-2 3 2-3 1 10 5h-10l-24-11 5-1 1-2zm-205 59l1 2-4 1 3-3zm60 6l1 9 1 1-2 15-6-16 6-9zm-65 2l-2 3-14 28-3 2q2 12-3 16l-2 1-1-7h-2l2-4 1 3 11-22-2-1 2-4 1 3 5-10-2-1 9-7zm66 27l5 14h-1l-4-14zm119 32l1 2 3 1-26 11v-1l22-10-2-1 2-2zm-210 7l6 13v7l-5 10-1-5-4-1-2-17 4-6 2-1zm0 42v2l-3 5-2 1-1-1 4-6 2-1zm0 50l1 5 5 1-3 11-3 2 12 26q-3 14 3 20l-3 1q8 7 6 25l-2-2h-7l-3-6v-31q-7-8-7-23l-4 1-1-26h4l2-4zm10 101l2 1q4 19-2 28h-2l-2-25 4-4zm374 320v11l-5 8-1-3-6 4v2l-5-2 5-6 1 2 5-3v-3l-5 3 1-4 8-5 2-4zm-1 22l5 2 6 16 2 2 2 22 2 2 2 7-3 2-4-11-3-1-3-23-3-1-3-17zm-96 49l-1 2-3 7-1-4h-4l9-5zm-11 8l1 3 2 1-2 5h4 1v3l-4 2-7-5-1 4-4-7 2-3 8-3zm219 3l16 1-2 3q-20 2-28 14-18-2-24 6h-31l-17-9-1-5 6-4 2 4q12 12 41 8l38-18zm309 30l13 1-1 2-8 3-4-6zm18 0l8 6h-1l-7-3v-3zm-605 78l2 1 3 8-1-1-4-2h-2-3l4-2 1-4zm-157 58v2l-5 8-1-1 6-9zm-48 140l6 4v1l-6-2v-3z" fill="#c0b183" stroke="#c0b183"/><path d="M732 102l6 4v1l-6-2v-3zm81 42l9 3 20 21-2 1v1l-7-3-7-11-4-2-6-8-3-2zm46 49l5 15h-1q-7-4-4-15zm12 30l5 11-5 1v-12zm3 17q11 5 8 24h-2l-4-3q3-17-2-21zm-388 1v6l-5 8-1-3 6-11zm397 30l5 10 1-3 1 4-2 1v4l-5-16zm-391 6v90l-1-1-3-1-2-4v-73l6-11zm0 96v23l-4 2-1 3-1-5h-3l3-5-3-1 9-17zm-18 44v16l-3 5-2 1 7 17 4 3v4l-5-4-2 1-1-4-3 1-1-31 6-9zm7 58l5 15h-1l-4-15zm12 0l3 5 2 2-1 4-3-1-1-10zm6 28l4 1h1v17q-9-4-5-18zm12 74l5 14-3-2-2-12zm6 24l5 16h-1l-4-16zm6 19l5 15h-1l-4-15zm24 42l5 15h-1l-4-10h-3l2-1 1-4zm30 50l1 3 6 5h-5l-2-8zm317 26l6 2 5 7-5 12 6 9 2 30 4 2 2 10 4 2 4 4 2 2v5l-9-1-4-12h-2l-5-12-4-2q3-24-5-35l3-5 2-1v-5h-6v-12zm-401 74l11 24-3-2-8-22zm16 4l9 6h-4l-5-6zm416 11l11 5 2 2 29 1-1 2q-8 6-23 3l-7-3-1-3q-9 2-11-3l1-4zm53 1l7 1-1 2-12 3v-1l2-3 4-2zm271 4l7 8-13-5 5-1 1-2zM618 937v6l-6 17 6 1 2 5-2 1v1h-4l-2 28-6 1-6 12 12 14 1-2 5 11h-2q-5-8-19-6l-3 2q3-18-6-23l18-26v-19l12-23zm58 138l8 11 2 18h-7q3-17-4-24h-8l9-5zm-80 11l9 1-16 8 5-6 2-3zm28 0l3 1-13 5v-1l10-5zm-126 4v3l-11 13-1-4 12-12zm108 2l5 1-15 5v-1l10-5zm-66 6l1 1-2 3-29 17 1 3 20-6-2 3-19 9-5-3-1-3 12-15 24-9zm96 24l4 1-11 6 1-4 6-3zm-96 42l5 4 4 7q5-7 21-5v4l-12 11 6-8-6-1-12 6-5-3-4-9h-8l11-6zm-30 6l5 1-13 5 2-3 6-3zm54 15l1 2-4 1 3-3zm-84 12v4l-21 28-40 29-17 2-5-3-4-8-9-1-11 8-1-5 25-15 15 11q43-16 68-50z" fill="#f3d77e" stroke="#f3d77e"/><path d="M613 108l1 1-7 5-1-2 7-4zm-12 6l4 1-10 5-1-2 7-4zm-12 6l3 1-9 4-1-1 7-4zm-18 12l1 1-7 4-1-1 7-4zm27 6l2 1-3 5h-3l4-6zm-18 30l11 1-3 12-2-1-10 24v25l12 14 30 21h43l5-3 2-3 8-1 2-4-5-1q4-7 16-6v1l-10 5 2 1-3 5 2-1 10-5v7l-3 4-8 5q-6 19-20 30l-37 2-38-25-7-20-12-6-4-8-8-4-1-21 6-11 2-17 20-20zm31 60l11 6-3 1-1-2-7-5zm42 18l12 6h-5l-7-6zm29 90l12 2 2 4v49q8 6 6 24l6 9 2 26 4 3 1-2 2 5-10 1-1-1 2-3-12-10q8-6 6-21l-4-3-5-16-3-1-5 3-1-27-6-9v-29l4-4zm2 97l1 35 3 1-9 5-1-30 6-11zm-7 215h35l2 3-2 3h-28l-7-6zm357 186l18 1-8 5-10-6zm33 0l12 6h-5l-7-6zm75 6l15 6h-5l-10-6zm12 0l17 1-1 2 5 3h-11l-10-6zm35 3l5 3h37q8 9 29 6l1-3q5 6 19 3l4-2 1 2h11l1-2 11 6 2 2 4-1 4-5h23l3 4 2 8h-74l-11-6h-31l-11-6-37-1-1-3-4-1 11-1 1-3zm181 9l9 6h-5l-6-3 2-3z" fill="#afc9b7" stroke="#afc9b7"/><path d="M654 108l5 1-15 5v-1l10-5zm-24 12l5 1-12 5 3-4 4-2zm-30 34v3l-5 10-1-5 6-8zm300 472v4l-5 8-1-1 6-11zM421 787l5 13-3-2-2-11zm18 7l2 4 3 3-2 3h-5l2-10zm50 4l3 1-2 5-3 1-1-4 3-3zm26 24l9 6h-1l-8-6zm22 18l13 6-2 1-11-7zm21 16l6 5-2 3-2 1-1 3-1-12zm-86 38l4 6-7 1-1-3 4-4zm-51 11v2h-1l1-2zm23 6l-1 2-2 5h-4l5-6 2-1zm134 0l2 2-14 5v-1l12-6zm-28 19l1 1-10 13-1-2h-2l12-12zm3 0l1 1-1 3v-4zm-37 31l1 4-6 9h-2l7-13zm-12 19l1 4-10 12-3-1-1-3-4-1 15-7 2-4zm-150 30v5l-3 4-6 1v-1l7-5 2-4zm114 2v13h-1l-2-5-3-1 1-4v-2l3 1 2-2zm-4 14l4 2-2 4h-6l4-6zm-16 6l1 1-2 5-2 1v-1l3-6zm3 0l3 1-3 1v-2zm-6 11l2 2 3 9h-1l-4-11zm-19 63v7l-7 2-7-3 9-3 3 1 2-4zm132 105l2 2-2 7-6-7 6-2zm97 0l9 2-8 4-1-6zm-7 7l4 3 2 6-1 2-5 1v-1-11zm72 8v4l-5 8-1-1 6-11z" fill="#c9aa32" stroke="#c9aa32"/><path d="M660 108l6 1v6l-2-1-3 5-5 3-2 4 4 1-33 20-12 25-1-4-17 12-1-12q5-18 18-28l4-2 6-12 38-18zm247 18l5 3q2 14-6 20v25l-6 11v25l-6 14 5 8-5 9-3-1-21-54-8-1 18-17 21-39 6-3zm-221 6l24 12-2 1 4 4 2 1 1-2 11 20-20 6 2-3v-3q-17-3-23 3l-1-3h-3l2-3q-8-7-5-25l12-2-1-4-3-2zm-13 27l5 5-1 4-5-1 1-8zm56 15l10 6 5-3-1-2 5-1v3q-7 7-4 25l-18 23-15 9 1 1-33 11v-1l3-5h2v-6l-5 3-1-6 26-9-3 4-11 6 1 2h6l21-13 5-11 3-2 3-4 8-3 1-8-2-1-4 3v-3h-3l3-5-2-1-4 3q-3-12 3-15zm-104 6l26 1-3 5h13l5-3 1 3 2 1q-5 4-3 17h3l3-2v17l-5-3-3 12-26-11 4-1-11-15-6-3-1 4-6-10h2 4v-6l-5 1v-1l2-4 4-2zm101 14l1 4 2 1-2 4-1-4-5 10-1-4 6-11zm-543 4l176 90 16 4 32 20 16 4 43 26 2-1-1 61-3-1-2-35-3-5-9-1-5 4q-1 20-12 30l11 18-9 13-13 9-2 17-11 26-12 7q-1 20-12 30l5 8-6 1v1l-12-12-90-46 3-10q18-3 26 6h31q7 9 26 6l8-5 12 11q11-5 14-19l-20-28-43-43-5-11-37-37-5-11-37-37-5-11-31-31-5-11-34-34 3-3zm258 0l34 40 9 3-4 2q3 18-6 26v29l-36-97 3-3zm430 67l5 10 1-4 2 5h-5l-3-11zm12 18l11 24v10h-1l-10-34zm405 5l2 3-108 108-11 5-138 138q-4-24-19-35l5-6-8-8q-3-23-16-35l-11-2v-6h-4l202-104 7-7 17-5 7-7 75-39zm-294 24q5 3-2 7-14 39-37 69l-1-4q-14-3-17 3l-1-3h-5l5-3v-3h-2l60-66zm-93 24l2 1 3 8-3-2-2-7zm6 37l5 16h-1l-4-16zm22 9l1 1v11l-2-4-4-1 2-3 3-1-3-1 3-2zm2 15l5 13-3-2-2-11zm-18 56l9 5-4 7-4 2-1-14zm-444 22l5 16-4 1-1-17zm12 6l5 12-1-1h-2l-2-11zm455 1v11l-5 10-1-10 6-11zm-461 24l5 15h-1l-4-15zm455 5v6l-5 10-1-5 6-11zm-449 13l5 15h-1l-4-15zm443 5v6q-8 6-6 24l-5 8-1-18 12-20zm-431 3l5 13h-1l-4-13zm-138 8l8 1-3 6 6 9-5 6 5 6q-8 2-6 15 7 4 6 18l-3 4-13 9-2 5 4 4 7 5 4 8h-8l-11-6q-18 2-24-6h-19l-35-12h-19q-9-9-30-6-7-8-24-6l-10-6-6 5-19-11h-23l-3-2 3-10q24 4 34-6h25l26-11 10 5 11-6q25 4 36-6h31l11-6q25 4 36-6zm132 1l11 23h-3l-8-23zm789 11l2 3-150 150 13 13 7 2 22-8 10-9 6 5 9-6h13l137-48h13l11-6 79-24 8-6 2 3-149 149-1-2-11 4-1 8 2 1-14 13v-2l-11-3q0-14-8-19l-16-5-4-8q-15 2-20-4l-9-14-7 5-8-6q-24 4-34-5l-9 5-5-3-1-15-6 4-1 2-22-9q2-15-4-20l-3-1-9 6-18-17-6-18-12-6-3-7 6-12-7-10-10-5q2-20-10-26 15 1 22-7h19l11-6h19l11-6h19l11-6h19l11-6h19l11-6h19l11-6h19l8-6zm-759 31l5 10-3 1-2-11zm371 79v5l-5 7-1-1 6-11zm-529 14l1 1q3 14-3 18l-8 5-6 18q9 7 5 27l6 9-5 6 11 26v20l-6-6-25-2-8 5-7-5h-33l-11 6h-49l-8 5-7-5h-27l-11 6h-51l-3-9 180-89 13-10h7l16-8 29-18zm517 12v3l-11 28-1-11 12-20zm-264 74l3 1-9 7 1 4 3 2 2 5-6 12 4 4 5 1 3-2v29l-3 3h-3v-6l-10 6-2-48 10-17 2-1zm190 0l5 1-3 2v-2l-3 5h-3l4-6zm36 0l2 1-3 4-2 1-1-2 4-4zm-21 6l5 4-2 8h-4l1-12zm-452 47l1 1-6 12 4 2 4 15 14 18 7 5 1 3-6 12 6 9-5 6 17 24-5 6 5 6q-9 4-6 21l6 12-6 11v37l6 12-3 4-14 5-1 15q7 4 6 18l12 18-6 12 4 4 8 2-2 5-10-3v-2l-10 6-14 35 2 1-4 11-4-2v-45l6-11v-51l-12-15-7-2-254 234-3-2 10-10 35-65 139-229 11-29 13-13 53-95 8-8zm-21 175l-2 2 3 4-26 2-7 15 3 1 5 6 31-1 5-9 3-2 1-2-16-16zm269-150l5 1v37q9 5 6 23l-5 10-1-6h-2l1-2-7-9h2v-36l-6-1 1-8 5 3 1-12zm831 0q7 5-4 9l-21 15h-9v-1l-1-5-16-6-1 3-5-3h-24l8-6q14 2 19-5l7 5h39l8-6zm-933 2l5 12-4-3-1-9zm47 24v5l-7 9-4 1-1-2 3-4 7-5 2-4zm-128 23l2 1 2 4-11 6-2 5-3 1-4-1 12-14 4-2zm170 5l1 1-4 5 1 1-38 17v-1l30-16v-2l10-5zm7 7l5 15h-1l-4-15zm-121 8v7l-6 2-2-1 8-8zm-55 8l10 2-7 5-5-5 2-2zm109 19l2 1-4 6-22 15-11 25-1-5q6-19 21-30l3-2 6-7 6-3zm-63 54l-3 4-5 12-4 2-2 5-1-5 15-18zm-26 62l5 12-4-3-1-9zm6 40l9 1-7 5-2-6zm197 28v20l-3 6-17 6 2-3v-3q-27 11-42 34l1 2 5-3v3l-5 8-1-2-12 10 1 2 5-3v3l-11 22-7 6v2l-4 2-2 4 4 1-12 5 2-3v-3l-6-2 5-13h1l4-9 2-1 1-11h3l3-12h5l3-5v-2l7-5 20-28 3-1 3-6 1 2 11-4 3-5h3l2-4 22-10zm13 26q15-2 21 6l-4 1 4 4 8 1v-2l-5-3 5-1 15 13 9 26q-8 12-26 15l2-3v-3q-16-3-20 6l1 1q-4 6-15 5v-1l4-2v-3l-5 3-1-3h-3l4-6 4-2q-7-7-5-22l-5 3-1-18 6-8-2-1 9-6zm-43 12l2 1-10 5 2-3 6-3zm-255 18l15 10q0 17-12 23l-5 2-1-32 3-3zm357 34l1 8 5-3v36l-3-3-3 1-3 11-13 7-2 5h2l10-8v5l-16 11-7 15-3 1-9 3-1-2-3 5-3 1v1l-5-5 4-6h1l1-4 3 1 24-19 8-16 3-1h3l6-17v-12l-2-1-3 5-1-10 6-9zm-39 80l-3 6h4l2-5-3-1zm-42-72l3 3-2 3-3 1-1-4 3-3zm-41 12q5 3-2 7l-10 23-10-2 1-11 2 1 12-13 7-5zm110 14v5l-5 7-1-1 6-11zm18 13v3l-5 8-1-2 6-9zm-42 45l2 1-9 4 1-2 6-3z" fill="#f1c724" stroke="#f1c724"/><path d="M670 108l4 1-7 13-1-10 4-4zm76 60l4 1v5l-6-1 2-5zm143 162l3 2 2 4h-2l-3-6zm12 66l5 3 2 69 4 4v23l-6-8q3-22-6-30v-49h-3l4-12zm24 0l3 2 3 6-2-2-4 1v-7zm0 95l4 1h1l-2 6-4-2 1-5zm-13 10v40l-3 5-3 2 2 4 4 3-5 14-1-5h-3l3-6-3-6-3-1 2-5 2-1 2-35 6-9zm-431 2l3 3 2 9h-1l-4-10-1 4-3-4 4-2zm6 14l5 14-1-1-4-1 2-1-2-5-1 4-3-4 3-1 1-5zm0 14l4 3-4 1 5 3v2h-3l-2-9zm419 65v5l-3 5-2 1v-1l5-10zm-64 46l4 2 10 21 23 1 3-5v6l-5 10-3 1q-33-6-42 12l1 1-33 25-8 29 4 4 13 3-14 16-13 8-1 4h9l17 12 7 1-15 5-2-4-17-3 4-5h2l-1-4-17-4 30-18v-4l-10-7-2-11q12-32 36-52l10-9q10-12 10-35zm-271 38l2 4 9 9 2 3h-5l-4-1-4-15zm42 49l6 6 15 17q2 19 14 28h-3l-4-6-4 1h-2l-5 3v43l-6-10v-33l11-7 1-3q-5-17-17-26l-2 1-6-12 2-2zm257 27l6 1-9 11h-6l3-5-5-1 11-6zm-208 24l46 2-8 10h-22l-18-7 2-5zm-30 66l4 2v17l-4-1-2 1-2-12 2-1 2-6zm4 23v24h-1l-5-17 4-6 2-1zm693 1q11-2 15 4l1 2h-6l-10-6zm-728 36l3 2 2 7-6-5 1-4zm-7 6l6 3q2 11-3 14l-3 1-5-3-1-9-10 5v-1l4-6 1 2 11-6zm-17 12l2 1-3 2 1-3zm-95 150l10 3v4l-1-2-9-5zm4 18l2 1-11 5 1-2 8-4z" fill="#af3727" stroke="#af3727"/><path d="M695 108l12 6h-4l-8-6zm52 89l1 1h-1v-1zm-108 43l11 6h-1l-10-6zm111 54l2 1-21 11 3-4 16-8zm-35 35v2h-1l1-2zm95 23l1 1v1l3 1-11 5 1-2 1-4 5-2zm-12 12v2l-5 10-1-9h-2l8-3zm-219 8l13 6-3 1-1-2-9-5zm-13 5v2l-7 4-1-1 8-5zm-7 7l1 1-2 1 1-2zm42 4l5 10-3-2-2-8zm251 1v2h-1l1-2zm-55 13l7 4v4l-7-8zm-61 48l12 8 2 7-14-15zm-50 23l1 2-8 8 7-10zm31 121l5 1-4 5-4-2 3-4zm-109 5l2 2-4 2v12l-4-3h-3l3-12 6-1zm202 1l4 1-14 5v-1l10-5zm-74 6l10 1-8 5-5-2 3-4zm-87 6q19-3 22 9l-2 3q-21 4-25-7l1-3 4-2zm33 0l2 1-2 4-3-1 3-4zm24 0l2 1-2 4-3-1 3-4zm-13 1l1 1 2 7-8 3-3-3 8-8zm21 5l5 3-2 3-8-2 1-2 4-2zm73 6l3 1-13 5v-1l10-5zm-149 12l12 6h-4l-8-6zm25 6l11 6h-1l-10-6zm46 0l7 5h1l-16 1 2-3 6-3zm-33 24l6 5 6-5 2 3-3-2-6 5-5-6zm-10 2l4 3 2-1-3 2-3-4zm187 100l1 1-2 8-7 3 1-2v-4h-4l11-6zm-24 24l3 1-11 6-1-1 9-6zm20 0l-3 4 1 2 2 1-3 4v2l6 9-3 2 2-3-8-8-2 4-1-5-5 4-1 8h3l3-2q-10 5-6 25l9 1 3-2 1 3-1 22 5 1h2l29 1q1 15 12 20l12 3 1-3 7 4-2 6 4 4 26 13h13l11-6h85l16 15q-8 7-5 27l11 1-20 11 1 1-10 5 4 1-3 1-1-2-11 6 3 1-3 1-1-2-29 18-1-4q-20-2-28-14l-18-2-4-9q-18 2-25-7l-9 10 5 10-5 7-11 6-1 15-18 28 5 6-5 7v31l-6 11-2 17-9 5-1 5 11 24-31 56-5 1-3-1-2-9 3-5 13-8q12-11 8-37l-12-35v-35l12-35v-15l-2-4-5-1-9 7-8 14-12 4-12 28-2 17-9 5-3 7-5 1-3-1-7-13 5-7v-31l3-5 33-2 3-10 8-4q-2-18 8-25l10-5q-2-22 7-32v-37l3-5 8-4 1-17-2-4-29-1-4 3-3 7-14 9-11 23-30 42h-3l13-36h3l2-7-12-23q4-25-5-37l2-3 8-4 1-9-10-1 4-2 1 1 11-22-4-1 18-11v-2l7-4v-2l30-17zm-38 11l3 2-11 6-1-1 8-5 1-2zm-14 2l1 1v1l-9 3v-1l8-4zm-16 16l3 2-14 12v2l-2 1v4l-6-4 18-15 1-2zm-264 13l5 4v2l-6-3 1-3zm392 0l1 1h-1v-1zm3 2v2h-1l1-2zm-402 2l3 3 3 9h-1l-5-12zm264 26v3l-7 3 3-4 4-2zm-18 6v3l-35 33v-1l31-33 4-2zm-7 19l5 2 5 20 7 4 5 9 3 1-3 5-3 1-9 16-23 1-11-24-7 6 2-3 3-14 22-22 4-2zm-38 30l1 1 3 4 4 1-10 5-1-6 3-5zm76 5l2 1 3 10h-1l-4-11zm564 0l11 3 7 7 39 20 6-5 20 8 11 9 17 3 1 5-1 2-17 2-11 6h-31l-11 6q-22-3-30 6h-31l-11 6h-41l-17-12h-9l-8 5-7-5q-19 2-27-6l-8 5q-6-7-20-5l16-9 2-6 7-3-2 3 1 3 10-3 2-6 25-9-2 3 1 3q21 2 28-9l2-6 8-3q3 7 16 6l22-9 2-6 7-3-2 3 1 3q12 3 16-3l2-6 6-3zm-48 12l1 1-7 5-1-2 7-4zm-223 6l4 1-7 5-1-4 4-2zm46 5l-4 5v5l-22 9v-1l21-10-2-1 7-7zm135 1l1 1-7 5-1-2 7-4zm-559 10l1 1-1 6 1 1-5-2 4-6zm-63 2l11 1-7 5-7-3 3-3zm-14 2v2h-1l1-2zm461 7v6l-10 3v-1l4-2 1-5 1 2 4-3zm-449 1l5 12h-1l-4-12zm15 2l8 1-1 9-4 2v1l-5-2-2-4 4-7zm414 0l2 1-6 11h4l8-6v3q-9 11-25 14l-3-1-2-6 4-3 3 5 3-1 2-8-1-3h1l1-2 3 2 6-6zm123 0l1 1-7 5-1-2 7-4zm-13 12l6 1-2 9-5 1-5-2 2-7 4-2zm-395 2q6 5 5 19l-3 2-3-11-8 6 8-9 1-7zm-454 22l3 3 2 3h-8v-1l3-5zm679 0l2 3-9 9-5-5 8-2 4-5zm-403 18l1 1h-1v-1zm1 12l2 10-1 3-8 5-3-6 10-12zm-147 6l4 4 1 2h-2l-3-6zm317 13v5l-5 8-1-4 6-9zm7 47l9 3 2 15-2 4-15 2-1-17 3-5 4-2zm-366 10l3 2-3 1 10 5h-4l-7-3 1-5zm-19 7l-1 2-4 9h-2l5-10 2-1zm34 1l20 7-6 8-4 1-2-4-5-3-2 1-4-7 3-3zm338 1v22h-1l-5-11 6-11zm-306 2l1 2-4 1 3-3zm-6 7v5l-6 5 6-10zm-71 6l1 3 2 2-3 7h-2l1-8v-2l1-2zm123 8l8 3-2 3h-9l3-6zm14 2v2h-1l1-2zm-142 11l4 2h1l5 10-1-1-5-3-1-3-4 1-1-4 2-2zm11 13l2 4 3 3-2 3-4 2v-1l1-11zm5 25l1 2-4 1 3-3zm-6 7v2l-5 10-2-3 2-1 5-8zm-29 13l4 1h1l-2 5-3-6zm17 5l1 1-12 23-1-3 12-21zm-11 120l5 2h2l22 2q-2 18 10 22l4 1-23 41h-3q2-15-5-20l-2 1-2-4 3-1-6-18-5 2v-28z" fill="#3e0b2d" stroke="#3e0b2d"/><path d="M699 108l13 6h-3l-10-6zm81 156l11 4 1 3-3 5-3 1 3 5-28 7-2-1 13-13 6-10 2-1zm54 12q11-1 14 6h-17l-1-4 4-2zm-102 6l5 4 2 8 4 1-8 5 1 1-14 12q-10 8-8 28l-12-16v-7l28-35 2-1zm-144 24q21-3 30 6h37l8 6 9 15v26l-3 1-18-11-8 5h-31l-21-17q-4 6-15 5l-9-5-18 11-14-12-1 3q-8-2-6-12l24-15q25 4 36-6zm266 18l4 2-1 4-5-1 2-5zm11 11l3 3 2 12-4-3-1-12zm-151 20v40h-1q-8-9-5-29l6-11zm127 5l9 8 2 5-1-1-4-2-2 1-4-11zm30 11l3 3 2 29 6 11v40l-6 4v21l-5-2-1-15-9-23-3-1-5 4-4 13-18 6-19-12q-9-28-26-46v-13l4-6 2 2q-3 22 13 26l3 2 2 3-3-3-3 1 10 11 2-1-3-4q17 2 24-6v-2l9-5 1 6 12 6 4-3 7-12q-8-4-6-15l7-19zm-277 6l1 2 11 8 6 22-5 8-1-2q5-29-12-35l-4-1 4-2zm-17 1l-1 2-2 4-3 1v-1l2-4 4-2zm138 19l11 24v13l6 15h-1l-11-22v-13l-5-17zm-30 76l1 2-13 13-1-2 7-9 5-2 1-2zm-25 33l2 16 4 4 2 2q20 5 32 18l2 4 2 8 8 8q1 14 9 22h-13l-5-3-2-27-3-1-15-21-23-11-1-3-3-1-2-5 6-10zm-102 52h13l11 6q14-4 18 3l9 27-20 9 2 3h-2l-6-3-16-26-30-1 7-11 14-7zm216 18l1 1-3 5 1 1-13 5v-1l2-4h2v-2l10-5zm6 0l6 2-1 4h-6l1-4v-2zm-36 6l9 1-3 5 4 1-12 5 2-3v-3h-11l11-6zm-126 12l9 6h-2l-10-4 3-2zm24 0l35 1-10 5h-35v-1l10-5zm156 4l1 2 4 1-12 5 1-2 1 1 5-7zm-36 11l1 3 3 1-12 5 2-3 5-2-2-1 3-3zm-14 3l5 1-3 4 1 1-7-2 4-4zm65 0l3 3v4l-4-1h-2-4l4-2 3-4zm-38 18l3 1-13 5v-1l10-5zm-18 6l4 1-14 5v-1l10-5zm0 12l9 1q-5 7-19 5v-1l10-5zm108 127q6 5 5 19l-6-5v-3h-7l2-8 5 2 1-5zm-29 22l2 2-11 6 1-4 8-4zm-19 12l-1 4-6 3v1l2-5 5-3zm-12 1l3 1-25 11v-1l22-11zm66 1l5 16h-1l-4-16zm-33 5l2 1v20l-3 3q-7-4-3-17l4-7zm-46 13v11l-5 10-1-10 6-11zm85 4l3 3 2 5-1-1-3-1-1-6zm5 12l1 8-4 5-3-6 4-6 2-1zm7 1l2 1 3 6-5 10-2-5 1-4v-2l1-6zm247 12q23-4 33 6h-23l-10-6zm-134 6l1 1-2 3-11 4-1 2-5 2v-1l2-3 16-8zm206 0q23-4 33 6h-23l-10-6zm-319 1l13 15 7 2 14-6v1l-14 9-18-10-2-11zm506 5l9 4 1 2-1-1-9-5zm-468 6l9 4 1 2h-7l-6-3 3-3zm27 0l19 1-2 3-17 8-11-5 5-1 2-4 4-2zm-236 54l6 2 2 6-2-2-9 1-1-3 4-4zm403 13l1 1-5 6-1-2-13 6 2-3 5-2-5-1 5-3 1 3 10-5zm-376 33l4 8-4 1v-9zm-50 2l7 4 8 14-2 1q-3 12 4 16l7 5 5 14 2 1-11 14-15 9 1 1-16 5-1-3 2-4 7-4 3-7-11-15-6-2-3-7h2l4-11 11-6q6-7 3-22l-1-3zm56 7l3 5q10-2 13 4l1 6-3 2-18-11 3-1 1-5zm-90 15l11 17-6-5-1-4-5-1 1-7zm76 8l7 2-1 2-5 2v-1l-1-5zm28 0l3 2h1l5 13-1-1-7-2-4 3v-3l-5 4-1 3 4 5 2-1v6l-4 1-3-6-5-1v-8l15-15zm-18 36l3 2 4 4 2 2-2 4h-10l3-12zm-153 1l1 11h-6v-1l5-10zm180 0v5l-5 10-1-4 6-11zm-167 5l1 1-9 5 2-3 6-3zm161 31v41l-5 10-1-40 6-11zm-54 24v13l-2-2-4-2 6-9zm15 23l9 3v5l-9-8zm34 8l5 14h-1l-4-14zm-250 4l3 3 1 1 3 2h-13v-1l3-1 3-4zm-129 180q13-1 18 7l10 11 2 1 1 5h-7l-10-6-2 6q-10 2-12-3l-3-8-8-4-1-4 3 1 9-6zm-23 5l5 2v12l-4-1-2 1 1-14zm65 16l1 2-4 1 3-3zm-65 20l4 1h1l-3 6h-3l1-7z" fill="#684355" stroke="#684355"/><path d="M749 108l7 4v2l-7-6zm52 24l2 2 1 4h-3l-3-3 3-3zm40 36l21 18-4 1v4l-8-11-4-2-2-4-4-2 1-4zm26 18l3 1 6 22h-1l-8-17h-3l3-6zm4 31l5 16h-1l-4-16zm-381 23l2 1v36l-5 10-1-23-4 2-1 3-1-13 10-16zm399 42l2 1 3 7-4-3-1-5zM483 390l3 1-3 5h-3l3-6zm-9 43v13l-4-3-1-4 3-2 2-4zm19 59l5 3v8l-3-5h-3l1-6zm20 102l3 11h-1l-5-8 3-3zm4 13l5 16h-1l-4-16zm18 37l11 22h-2l-11-18 2-4zm463 184l15 1-9 3-6-4zm30 0h41l10 6h-41l-10-6zm58 0q16-2 23 6h-23v-1-5zm50 6q14-2 19 6h-9l-10-6zm40 0l17 6h-25l2-3 6-3zm20 6l13 6h-3l-10-6zM606 944v5l-5 8v-3l5-10zm112 10l2 1 2 11 2 2 4 10 4 3v3l-6-2-1-4-10-6-1 10-6-17 3 1h3q-2-10 4-12zm-112 7v18l-18 27q10 6 6 27l-5 10-1-5-5 4-1 8 3 1-3 10 1 1-7-3v-3l-12-2v-10l10-13 2-11 16-25 14-34zm-54 55v5l-5 8-1-2 6-11zm67 22l11 6h28l14 7-3 5 1 1-38 17v-1l28-14v-3h-30q-10 10-34 6v-1l21-8 2-15zm5 36l5 1-27 11v-1l22-11zm30 6l22 2 3 22 11 1-3 5q-14-2-18 6h-15l-27 12 1 1-19 11 1 1-7 5 1 1-25 17-8 16-5 3-1 3-4 2h-3l12-17-12-1-9 5-6-10-3-1q-9 9-30 6l-9 6 2 1-20 17-2 5-1-2q-25 35-69 50l-15-11-23 14-1-2 12-28 4-3-4 5 1 2 27-25 6-10 36-25q4 9 21 6l17-9 1-3 6-1 1 2 4 3 2 2 4-1 2-4v-2l16-8 1 3h18q6-8 24-6l27-12 3 6 35-21q2-11-3-14-10-10-32-7l27-12q18 3 26-6zm-72 6l13 1-7 10 7 2-2 3-17 2-44 24q-12-2-16 4l3 8h-2l-12 2-1-2-3-11-21-1 18-21 24-9h17v1l-23 8-9 9-3 7 4 4 3 1 20-11-2-1 20-11 5-11 17-2 11-6zm-86 11l-9 10-1-2 10-8zm-12 12l-3 4-1-2 4-2zm-40 41v3l-17 20-1-5 18-18zm-48 52v5l-5 8v-3l5-10z" fill="#f5e4a4" stroke="#f5e4a4"/><path d="M642 114l5 1-15 5v-1l10-5zm102 88v2l-5 8-1-2 6-8zm-48 38l5 1-15 5v-1l10-5zM469 466l11 6v4l-5-2-1 11q-8-6-5-19zm425 178v5l-5 10-1-4 6-11zM444 802v7l-6 1-8-5 14-3zm48 0l1 3-1 10-3-5-3-1 2-5 4-2zm47 74l9 1-2 4 1 1-8-6zm-100 22l5 9-1-1-5-3 1-5zm125 20l4 1-17 11 9-10 4-2zm-44 36l1 1-4 9-1-6 4-4zm3 0l1 1-1 3v-4zm-45 36q10-2 14 4l1 2-1-1-9-4-8 7-1-4 4-4zm-15 29l3 3 2 5-1-1-5 2v-1l1-8zm-6 41l7 8-8-3 1-5zm185 62l5 1-17 9v2l-5 2-1-2h-4l22-12z" fill="#d5bc3d" stroke="#d5bc3d"/><path d="M664 114l2 6-3 6h-5l6-12zm11 18l3 2-1 4-4 2-1-5 3-3zm8 0l7 4v2l-7-6zm-3 36l4 1-1 5-5-1 2-5zm-14 12l6 4v3l-6-1v-6zm-45 6l3 1v5l-6-2 3-4zm109 6l2 1-3 5h-3l4-6zm-105 7l14 12 2 5h-1l-15-17zm99 5l2 1-3 5h-2l3-6zm-12 12l2 1-7 9-4 2-1-2 3-5 7-5zm224 168v18h-2l-4-14 6-4zm-467 1q8 8 5 28l-7 1 1-2 1-27zm-6 59l3 2 1 4h-1l-3-6zm474 24l7 1-2 2v28l6 8q21 2 29 18l-5 7 6 8v31q8 5 6 20l-6 10 6 11v37l4 4 12 9 8 16v37l4 4 27 1 27 26 6 9 12 9 12 18 12 27q7 9 27 7l9-5 14 11q15-3 20 6h-60l-3-4-71-3-1-3-4-2h-55l-17 12h-19l-24-13-2-5-4-1-3-11-3-1q-3-25 10-34l7-4 1-3-9-17-21-2-1-3-31-2-4-3 6-26 24-48v-7l12-29q-2-18 6-24v-19l6-11v-18l12-24q-3-21 6-29l1-26zm-471 6l2 2 1 22 5-2v16l20 52 9 6h1q-3 16 6 21v22l10 23 2 2 6 12h1l35 48h1l13 22 6 6-2 1 18 23v85l6 11v25l4 5 2 2v16h-13l-32 18 1 1-16 8-23 19-4 8-12 6-8 22-13 11 1 3h-14l1-2v-4l-15 12q-6 8-3 27l-3 3-13 7-2 13 12 19 5 3-2 1 9 8 18 6q-3 12-22 9v-1l4-2v-3h-6l-3-12-19-19q-10-9-8-29l6-9-5-6 11-21-6-12 18-35v-13l-11-27-1 2-12-16 7-1 15 12 8-6 1 6 5-2q-1 12 6 17l11 3 1-10-4-3-10-17h-4q-4-21 6-27l-9-20-8-4-6-18q-6-5-19-3l-16-13-2-10 3-1 9 15 17 3 1-12-5-9-2 1q-7-4-5-15l6-3q-7-4-6-16l6-9q-8-3-6-15l6-9-6-8v-79l6-9q-8-4-6-15l12-17q-3-14 4-18l7-4 1-15-6-12q8-7 6-24l6-9-5-6 5-8q-4-18 4-25zm22 324l-2 11 3 1 12 25 4 1 7 16 5 2 1 4 20 17-1 2 9 5 6-2 4-6 3-1 5-8-3-13-17-10-1-2-17-10-1-2-5-4-1-2-11-6-11-14-9-4zm719 30l7 6h-2l-6-3 1-3zm-551 378l4 1-1 5-5-2 2-4zm-8 17v5l-3 1h-2l-1-2 6-4zm64 31l1 1-4 9-22 20 1 1-7 5-1-2 1-3v-2l25-23 2-4 4-2zm8 18v3l-22 21-1-1 5-9 14-12 4-2z" fill="#f7f03d" stroke="#f7f03d"/><path d="M710 114l14 6h-4l-10-6zm-8 65l1 1h-1v-1zm193 42v2h-1l1-2zm-415 18l1 1h-1v-1zm300 43l2 1-12 5v-1l10-5zm44 0l17 1-1 2 3 3q-15 2-19-6zm-80 12l5 1-12 6 1-4 6-3zm109 13l3 5 5 1-2 4 1 1-2 1v6l-4-1-2 5 5 1h1l14 24-2 1 1 5 2 1-9 36 6 9-9 13-3 1-12-6v-6h-2l8-18-12-26 3 2 7 12h2q1-13-7-16l-4-2h-2l-16-6h-13l8-10 28-9v-11l7-17zm-138 24q7 7 5 24l-5 10v-34zm75 36l2 1v17l-2-1q-7 5-4 19l32 51 14 7 19-8 5-14 3-1 4 4 7 20v13l4 4 6 3 2 5-6 17 2 1-14 11q-7-8-24-6l-16-13-3-17q-11 0-15-7l-14-28v-13l-12-23v-31l8-10 2-1zm-75 12q8 8 5 28h-1q-8-9-4-28zm-157 3v3l-5 10-1-4 6-9zm366 1l1 1h-1v-1zm-318 26v6l-5 10-4 1 9-17zm203 4l26 1 2 1q-5 8-21 5l-8-5 1-2zm-215 13l2 1-12 5v-1l10-5zm139 19l17 22-6 1-14-6 3-17zm-331 10v2h-1l1-2zm276 28l-5 6-1-2 6-4zm-12 11l1 4-6 11-1-4 6-11zm-5 20l25 20-3-1-17-6-3-5-3-1 1-7zm40 31l7 3 3 11 15 20 17 4q-6 7-21 5-9-7-10-22l-7-8-3-1-3-10 2-2zm-473 18l1 1h-1v-1zm315 13h22l4 4 17 25 13 7-11 1-1 3-11 2-28-12-2 21-12-5 1-41 4 1 4-6zm225 0l5 1-15 5v-1l10-5zm18 0l6 2-3 4h-4l1-4v-2zm-12 6l5 1-15 5v-1l10-5zm-171 12l14 1-16 6-4-1 6-6zm75 0l17 1q-8 8-27 5v-1l10-5zm120 0l5 1-9 7-1 3h2l14-5v1l-15 5-2-6h-5l11-6zm-24 6l5 1-15 5v-1l10-5zm12 4l1 2 4 1-15 5v-1l9-4 1-3zm-30 2l5 1-12 5 3-4 4-2zm240 5l1 1h-1v-1zm-394 1l4 3 1-2 13 23 5 1 2 5h-3l-16-13-8-15 2-2zm36 36l15 6h-5l-10-6zm-248 5v2h-1l1-2zm272 1l15 6h-5l-10-6zm-36 6h17l27 12 3-6 9 6 6-5 26 11h19l12-6 9 8 2 5-19 21-65 4q0 10-7 14l-15 2-7-15-18-9h-7l-10-7-8-21 24-3 2-11zm520 59l1 1h-1v-1zm-299 60l3 2-8 6-1 3-1-4 4-6 3-1zm11 7l6 1 6 8-3-3-3 1v11l-18-1 6-10-3-1-10 7-3-1 22-12zm-427 12l7 3-2 3-4-2-1-4zm412 7l8 8q-8 6-5 24l-3 3h-6l3-3v-20l-2-1 5-11zm-350 3l5 12h-1l-4-12zm318 7l-2 5-5 3 1-4 5-2 1-2zm60 2l9 23 2 2-1 4-3 2-1 3q1-13-7-16l1-18zm-344 17l11 6-3 1-8-7zm321 6l4 2-1 22-5-1 2-23zm430 11l1 1h-1v-1zm-394 1l4 2-1 4h-8l5-6zm151 6l26 1q-10 8-29 7l-1 10-17 6q-5-7-18-6l-17 12q-18-2-24 6h-19q-9-8-27-7l15-11 2 4 17 2 12 6 17-9 2-3q11 2 16-3l1 3 10-5-4-1 5-3 1 3 10-5-4-1 5-3 1 3q15 3 20-6zm65 0h35l10 6h-35l-10-6zm96 6q15-2 21 6h-11l-10-6zm166 0l1 1h-1v-1zm-114 6l24 2-1 4h-17l-16 6v-1l10-7v-4zm-24 12l5 1-15 5v-1l10-5zm-18 6l5 1-15 5v-1l10-5zm-30 12l5 1-12 5 3-4 4-2zm-22 6l5 1-1 7-6-3 2-5zm-26 12l1 1-1 4 1 1-6 3-3-3 8-6zm-404 6l2 2 6 21h-1l-8-17h-5l6-6zm-10 10v10h-1v-2h-5l6-8zm408 8l5 1-8 11 2 1-27 11v-1l19-10 3-6 6-4v-3zm-414 7v6l-3 5-2 1-1-1 6-11zm-59 3l5 7-8 1v-1l3-7zm-55 5l1 2-4 1 3-3zm80 3l16 2 2 16 4 3q3 18-5 24l-12 7-1 8-6-1q-1-15-12-19l4 2h2l-12-16 18-3 2-23zm68 0q19-3 24 8l4 16 10 2v7l-10 14 9 17-4 7-1-11-6-11q3-14-3-18l-13-2-10-22 2-1-2-6zm344 4l1 2 4 1-9 5-1-2 5-6zm-561 14l7 5 2-1-3 2-6-5-21 20 21-21zm178 4l17 22-8-8-7-5-2-9zm-365 14l4 2v4h-11l5-3 2-3zm142 3l-1 3 1 1 1 1 2-1q-3 5-6-1l3-3zm-158 3l7 1-5 3-1 8-5-2v-4h-2l2-4 4-2zm236 3l1 2-5 2 4-4zm204 15v11l-2 1-4-6 4-5 2-1zm-408 12l1 1h-1v-1zm100 1l3 3-2-2-1-1zm153 1l4 12-2 4-3 1v-3l1-14zm-79 13l1 2-5 2 4-4zm-18 24l1 2-4 1 3-3zm202 28l2 1-5 13-1-9-6 4-1 8h-9l7-5 3-6h2v-2l8-4zm-319 11l3 1h1l-1 5-6-1 3-5zm-3 13v8l-8 3v-1l2-4 1 2 5-8zm72 3v5l-6 5 6-10zm270 4l7 6-1 1-6-7zm-348 15v4l-7 3-1-2 6-4 2-1zm234 22l-17 18-1-2 18-16zm-216 24l1 2-4 1 3-3zm-6 7v2l-5 10-2-3 7-9zm280 92l1 3h-1v-3zm-310 30l6 4 4 7 7 5 4 8h-13l-3-12-4 1-2-7 1-4v-2zm32 18q7 9 26 6l2-1-13 23-7 2q-12-5-11-23l3-7zm-32 27l2 9-2 1v2l-9-3-3 2 6-10 1 2 5-3zm13 25l4 8h-7v-1l3-7zm-29 62l4 2v5l-4-1-2 1 2-7z" fill="#62283b" stroke="#62283b"/><path d="M742 114l8 4v2l-8-6zm18 6l13 6h-5l-8-6zm24 18l13 6 5 6 2 2 4 4 2 2 8 10 7 6-3 1 6 10 1-4 2 5-3 1 12 23v29l-16 1-3-18-5-2q2-16-6-22 9-8 6-28l-11-5-4-8-7-2-10-17zm-39 59l5 2-5 10v-12zm102 31l4 4 1 2h-4l-1-6zM516 337v18l16 28 7 5 1 23-3-3-2 1-4-7-3-1v-11l-9-24-3-1-3-11-3-1 2-11 2-1 2-4zm24 140l1 3 10 4 1 3-17 27q7 1 5 11l-4 3-2-18q-8-6-6-20l4 2h2l1-12 5-3zm115 168l4 3-4 1 7 5h-2l-11-5 5-1 1-3zm19 9l27 1-17 5-10-6zm191 119l5 4v8l-5-12zm-26 17l5 3-15 5-1-2 11-6zm-412 4l6 10h-3q-6-2-3-10zm388 11v2l-2 3 2 1-4 2-2-3h-3l9-5zm-15 10l-1 4-6 3 2 1-3 2v-3l-13 6 2-3 19-10zm-301 3l11 26h-1l-10-26zm22 10l11 6h-3l-8-6zm385 7l1 5 4 1-5 3v2l-7-1-2-4 3-1 1-3 3 2 2-4zm-136 2l1 4 2 5h-1l-4-7 2-2zm5 7l8 2 3-2v5l-5 2-2-3-5-2 1-2zm211 8l21 1-40 17h-41v-1l10-5h31l17-9 2-3zm-269 84l4 1-1 2 5 3-5 1-6-2 3-5zm22 30l2 1 3 8-1-1-4-1 2-1-2-6zm-199 64v2l-5 10-1-3 6-9zm54 10l1 3-7 13 4 1-4 2-2 3-4-2 3-4h1l8-16zm85 16l4 1-10 7-1-2h-2-2l11-6zm29 0l5 1-27 11v-1l22-11zm-192 8v4l-5 8-1-2h1l5-10zm211 2l11 21-5 8-6-29zm-13 26l12 9-1 3-4 3-7-15zm1 23l10 7h-4l-7-3 1-4zm-209 37l8 1-4 2-2 3-4-1 2-5zm-122 62v4l-11 22-1-3 12-23z" fill="#9f7d63" stroke="#9f7d63"/><path d="M624 120v3l-6 5v-2h-2l8-6zm102 112l1 2 1 1-3 1-4 6-1-4 6-6zm-15 15l-1 2v1l-1-1 2-2zm0 4l3 5-3 2 2-3-2-4zM573 384l4 1-1 4 1 1-7-2 3-4zm563 468q23-4 33 6h-25l-8-6zm66 6q18-3 25 6h-15l-10-6zm78 6l16 2-1 4-15-6zm-523 223l5 9v46l2 4-2 1q10 6 6 27l-2 2-10-9-7-16 5 1h2q-7-5-7-17v-2q-7-7-5-23l8-16 4-2 1-5z" fill="#83959a" stroke="#83959a"/><g fill="#f5da32" stroke="#f5da32"><path d="M660 118v3l-2 5h-4l6-8zm18 14l9 6-9 2q-3 18 5 26l-5 4 1 4-1-1-4-1-2-4h2l4-1-1-5-5-3v-18l3-3 3-1v-5zm31 12l5 4v2l-5-3v-3zm-97 24v9l-13 3 9-10 4-2zm78 0l18 1-3 5h-22l3-4 4-2zm41 6l13 2-1 2-5 2-7-6zm-79 6l14 2-1 2-16 2-1-2 4-4zm18 6l2 2q3 13-3 16h-3q-2-13 4-18zm60 0l2 1-5 10-1-7 4-4zm6 6l2 1-3 10-8 3-1-2h-3l3-5 1 4 5-8 4-3zm-16 14l2 5-9 15-22 8-1-2 15-10-3 4 1 2 9-7 2-4-2-1 8-10zm145 5l5 16h-1l-4-16zm-198 5l5 4-2 8h-6l3-12zm15 18l2 1v5l-4 2-1 3-1-7 4-4zm191 0l3 6h-3l-3-3 3-3zm4 28l5 8 6 23h-1l-10-22-1 4-3-4 3-1 1-8zm18 45q6 3 5 15l-3 2q-7-4-2-17zm-445 53l11 4 1 33 4 5 2-1v11q-10 6-6 27l3 5-3 1 4 5 2-1v26l-1-1-3 2-2 23-5 9 5 6-6 8q2 17-6 25 8 6 6 24l-3 4-8 5-1 15-10 13-2 11 6 9-6 8v79l6 9q-8 2-6 15l6 9q-8 2-6 15l6 9-6 3v7l-10-2-2 13 12 14 5 3h-5l-9-5-6-13-3 1q1 16 14 21l17 2 8 6 7 17 7 5q0 12 7 18-10 6-6 26l9 6 7 12 2 2-8 9 1 1-8-5-3-7h2l4 4 2 2 4-1q1-14-7-17l-5 3-2 3h-4v-6l-9 6q-5-11-20-12l-19 15 2 3 4-2 7 12 3 2 2 4 2 2 7-5 4-16 11 27v13l-18 36 6 12-11 21 5 6q-9 4-6 21 8 22 27 35l4 12 5 1-1 3-11 3 2 5-38 2v10h-14l2-5-11-4-1-3 6-12-12-17q1-14-6-18v-13l4-5 13-4 1-3-6-11v-37l6-12q-8-7-6-24l6-9-5-6 5-6-17-24 5-6-6-9 6-12-3-5-8-4-11-16-5-17h-3l6-12-6-9v-21l-11-27 5-6-6-8q3-20-5-28l9-20 7-4 2-18q19-2 27-15l2-7-12-15-14-2-4-3-3-8-8-4-1-3 8-10 9-5 1-9q-7-5-6-18l6-9-5-6 5-6-6-11q16-6 24-18l1-4h5l-5-9 15-32 11-6 9-24v-13l8-10 9-5 7-12-11-18 15-32 2-1zm457 12l7 6-2 1v4l-5-11zm27 6l2 1-1 3-4 2 4 1-4 2-1-5 4-4zm6 6l14 1q-3 18-14 28l-4-2-3-8 3-1q-3-14 4-18zm-453 31l11 29v17h-1q-7-7-5-23l-6-11 1-12zm492 35l5 1 1 5q12-1 15 8l8 16v7l11 15-5 6q16 10 18 35l-48 47q1-14-6-19v-31l-6-9 5-6-12-13-20-7-3-6v-28l3-4 34-17zm-480 13l5 9v30l-3 2-3-2 1-39z"/><path d="M469 491l4 1h1l-2 6h-4l1-7zm461 26v6l-5 10-1-5 6-11zm-425 27l5 13h-1l-4-13zm-6 12l5 13-3 1-5-6h2l-2-5 2-1 1-2zm419 3v6l-5 10-1-7 6-9zm-6 31v5l-5 10-1-4 6-11zm68 6l-1 2 12 12 7 2 35-12h14l9 12q-3 13 4 17l12 9 2 5-6 12 6 8 11 7q3 24 22 32l10-6 4 4q-2 14 5 19l19 7 5-6 2 1q-3 12 4 16l3 1 9-5q9 10 33 5l9 6 6-5 12 16q14-2 19 5l5 7q13 0 18 9l6 15 8 2-36 41h-33l-8-6-1 3q-8-7-27-3l-8-6h-13l-15-11q-6 8-21 5l-17-9-9-25-17-24-10-5-26-31-29-2-5-3-1-39-13-22-10-5-1-39-6-14 2-2zm-74 18v5l-5 10-1-4 6-11zM580 720h5l23 24h-5l-17-18-6-6zm285 9l3 3 25 1-4 2 1 1 3 2h-26l-2-9zm-252 19l5 12-11 6-6 13-1-25 4 2 8-3 1-5zm689 20l6 1-9 11h-3l4-11 2-1zm-863 21l5 10-1-1-3-1-1-8zm167 37v19h-1l-5-17h2l4-2zm-54 19l9 7 3 7-1-1-4-3-2 1-5-8-4-1 4-2zm817 1l1 1-7 5-1-2 7-4zm24 6l10 6h-5l-6-3 1-3zm-786 5l5 2v18l-4-2-1-18zm-43 6v2l-5 8-1-2 4-7 2-1zm42 31l11 9-1 2-3-2-1 2-6-11zm-17 5l-2 5-18 9 1-4 19-10zm-30 18l4 2-34 25-1-2 4-5 27-20zm-37 31l2 1-13 16-1-5 6-9 6-3zm-18 27v3l-7 10-3 2-2-3 12-12zm-27 9l3 1-2 5-13 12-2 5-1-5 15-18zm-133 6l16 16-1 2-3 2-1 3-7-15-4-1-2-4 2-3zm118 33v4l-3 5-12 1 3-4 12-6zm-2 45l12 6 3 4 3 2h-4l-14-12zm26 15v6l-8 3 8-9zm148 63l2 1-3 5 1 1-19 11 1 1-14 12-1 3-4 2h-3l26-28 14-8zm24 6l2 1-5 7-1-1 4-7zm27 0l11 4v2l-11-3v-3zm-27 24l2 1q-2 15 5 21l-5 3-3 5-2 1-1-27 4-4zm-64 12v3l-5 7-4 2h-3l8-10 4-2zm90 12l12 1-3 5h-17l8-6zm-20 6l2 1-1 3-5 2v-1l4-5zm66 0l2 9-5 3-1-8 4-4zm-154 16v11q-2 5-11 3v-1l3-5h2l6-8zm148 2l2 1v12l-6 17-5 2-3-2-4 3 16-33zm-171 10l5 3-3 5h-3l1-8zm33 2l10 1-12 11-2-8 4-4zm141 12l5 4q-2 15-11 22l-1-2-17 15-1-2 8-11 10-5 1-9 3-1 3-11zm-19 15v3l-13 16-6 3-2-1 21-21zm-12 31q6 4-3 8l-12 4-3-1 1-3 3-1 2-4 1 2 11-5z"/></g><path d="M733 118l11 14h-2l-5-6-10-5 5-1 1-2zm12 20l7 6-2 1v3l-5-10zm-217 52l6 21-2 4-8-5-2 7-4-1-2 1v-7l12-20zm-5 31l9 3 2 17 8 9 25 14 17 28 17 2 8 6h-33l-5-3q-5-20-18-30-6-5-19-3l-5-3q1-18-7-26l1-14zm-7 6v14l-1-1-3-1-2-5 4-6 2-1zm189 26l3 3 1 2 2 1-5 10-29 29-15 8-2-3q24-13 40-34l5-16zm-67 47l15 6h-5l-10-6zm40 34v19h-1l-5-11 6-8zm19 3l5 16h-1l-4-16zm-18 36l5 16h-1l-4-16zm5 24v16h-1l-2-5-3-1 2-5 2-1 2-4zm19 0q7 6 5 22h-1q-7-7-4-22zm-156 12l5 14-1-1-4-1 4-1-4-3v-2h-3l2-1 1-5zm137 6v12l-5 10-1-11 6-11zm-131 17l24 18 4-3 1-7v-2l12 1 2 3q14 0 20 10l2 11q-7 4-6 18l-7 9-5 2-34-25-3-9-12-2 4-5 3 3 2 2h4l-12-17 1-7zm125 7v6l-6 11 3 1-3 2v-2l-3 5-2 1-1-1 12-23zm31 0l7 11h-5l-2-11zm-42 28l5 4-6 15 2 1-1 3-4 2h-3q-2-18 7-25zm102 169l4 1-14 5v-1l10-5zm-45 12l4 1-10 5v-1l2-4 1 4 3-5zm153 130l5 9-3 5q-6-3-2-14zm0 19l3 3 2 15h-1q-7-6-4-18zm156 46q3 7 18 3l7 6h-27l1-2 1-7zm257 3l1 1h-1v-1zm-36 12l11 6h-5l-6-3v-3zm42 6l7 1-4 5h-4l1-4v-2z" fill="#98a594" stroke="#98a594"/><path d="M769 118l5 7h-1l-9-4 4-1 1-2zm18 12l6 3-1 4 17 7 4 6 3 8-2-2-4-1-1-5-5-1-1-3-15-7-3-7h1l1-2zm42 39l5 16h-1l-4-10-1 4-3-4 3-1 1-5zM504 283l2 29-2 1v6l-4-1-2 1 2-31 2-1 2-4zm-5 40l4 1h1l-3 12-2-13zm18 62l5 13-4-3-1-10zm-2 35l7 3v31l2 2-2 1v17l-5 1-1-13h-3q8-9 3-29v-2l-1-11zm2 56l5 15-2 1q-6-5-3-16zm360 285l-1 4-5 7 2 2-9-2 13-11zm33 67l2 7-1-1h-7l6-6zm418 36l11 1-1 4 1 1-11-6zm16 0l16 1-10 5-6-3v-3zm-744 86v4l-5 8-1-1 6-11zm66 112l4 1-16 8 1 3 4 1-15 5v-1l4-2v-3h-5l23-12zm37 0l4 1-14 5v-1l10-5zm9 0l7 4 1 26q-17 0-22 13l-1 3-1-4 10-13 2-14 6-9-2-6zm-39 6l6 1-1 4 1 1h-17l11-6zm-193 40l1 2-2 1-4 7-1-2h1l5-8zm204 2l11 1q-6 7-21 5v-1l10-5zm-173 30l-1 2v1l-5 2-1-1 7-4zm-6 6l1 1-1 3-2-2 2-2zm-116 150l30 1q-8 8-27 5l-3-6z" fill="#be9c6f" stroke="#be9c6f"/><path d="M617 127l-1 2-3 7-7 4 7-11 4-2zm141 41l4 3 1 3 2 1q-6 3-3 14l-3-2q-7 32-29 47h-4q16-14 24-35v-2h1q8-10 7-29zm510 696q15-2 21 6h-11l-10-6zm-502 162l2 1v51l-5 7-1-5-5 4-1 8h-6l-3-5 3-1q-9-8-6-27l12-4-3-10-7-1-4 6-4-2v-4l-14 12-4-6h-3l15-14 1 2 11-6 1-3 11 11 3 3h1l6-17z" fill="#727f8d" stroke="#727f8d"/><path d="M661 126l4 1-14 5v-1l10-5zm15 0l12 6-15 1-3-1 3-1 3-5zm-66 12l1 1-4 7-1-2h-2l6-6zm3 0l1 1-2 1 1-2zm18 6l1 1-8 7 3-6 4-2zm-13 20v4l-5 8-1-1 6-11zm-20 16l7 1-10 6-1-3 4-4zm123 48l1 1-7 5-1-2 7-4zm138 21q7 2 5 14h-1l-4-14zM475 477l4 3 1 3 2 9-2 1-3 5-2 1v-22zm11 20v12h-1l-5-9 6-3zm-5 21l5 14h-1l-4-14zm425 83v12l-1-1-5-1 6-10zm-24 66v11l-3 6h-8l5-3 6-14zM624 793v18l-1-1-4 1-1-7 6-11zm1 55l5 8v37h-1l-4-10h-3l2-1v-12h-2l2-5v-2l-1-4 2-11zm-25 52h2l4 2 6 21h-1l-8-17-3-1v-5zm-6 4l1 2 4 1q-3 6-13 5l2-3 5-2 1-3zm520 27l1 1-5 7-11 5-1-2-11 6 3 1-3 1-1-2h-2l30-17zm-34 22l2 2-7 4-1-4 6-2zm-13 5l1 1 1 1 3 1q-3 6-14 5l-2-3 11-5zm-18 9l1 1-5 6-5-2 9-5zm-17 13l1 4 1 1-6 4 2-5 2-4zm-21 16l3 3-2 3-4-2 3-4zm-681 18l1 1h-1v-1zm145 58l1 3 9 5h-4l-9-5 2-1 1-2zm-6 20l5 2-1-1-12 5 2-3 6-3zm-46 6l3 2 1 4 2 1-2 4-1-4-3 5-3-9 3-3zm-3 17l1 1h-1v-1zm229 31l1 1-9 5 2-3 6-3zm-73 33l1 3 1 1-2 5-6-2 2-4 4-3zm108 27l5 1-15 5v-1l10-5zm-318 2l1 4 3 1-4 2-2 3-4-2 3-4h1l2-4zm235 22l1 1-11 5v-1l10-5zm-25 3l-1 4-14 5v-1l15-8zm-27 3l3 3-1 3-4 2-1-5 3-3zm-2 25l5 15-5 3v-18zm172 0l-5 8-4 2v-1l5-7 4-2zm-31 29l2 1-3 5h-2l3-6z" fill="#be7f23" stroke="#be7f23"/><path d="M666 122l1 4 7 1-1 3-4 2h-13l10-5-2-1 2-4zm6 12v12l-2-2-4-2 3-4h1l2-4zm49 20l5 10-3-2-2-8zm-114 26l1 1-9 5 2-3 6-3zm252 85l5 11-1-1-7-4 2-1 1-5zm42 192l5 11v19l6 14-6 9v31l-3 5-2 1v-90zm0 94l3 3 2 7-3 2-2-12zm-57 73q6 4 2 19l13 23h-1l-5-3-8-21-4 1-1-13 4-6zm44 25l1 4-6 11-1-4 6-11zm-336 3l4 4 3 5-1 3-6-12zm12 18l4 4 3 6-1 2-6-12zm270 0v3l-11 13h-2l13-16zm-259 14l7 4v4l-7-8zm223 25l1 5-6 11-1-5 6-11zm-192 9l12 10 1 6h-1l-7-4-5-12zm253 44l5 1-3 5-2 1-11-1 11-6zm-221 12l4 2 2 4h-9l1-2 2-4zm70 6l6 2-9 10h-5l8-10v-2zm-77 37q8 9 5 30l-1-1-4 1-1-7h-2l3-23zm724 51l1 1 1 1 5 3-2 3h-11l3-4 3-1-3-1 3-2zm-47 2l10 1-4 2-2 3-4-2v-2h-3l3-2zm-60 12v3l-5 2-1-1 6-4zm-48 12l5 1-8 5 1 1-10 5v-1l3-4-2-1 11-6zm-24 12v3l-10 3v-1l10-5zm-575 4l11 22-2-2-4 1-3 5 1 1-8 6-1 3-4 2h-3v-6l-10-7-2-7 3-4h-3l12-6 4 11 3 1 4-3 1-12-1-3h1l1-2zm-37 18l1 2 1 1-8 6v-1l6-8zm442 68l3 1-1 4 1 1-7-2 4-4zm-6 6l2 10-9 2-3-2 10-10zm-36 36v3l-4 6-4 2-2-1 10-10zm-489 30l5 1 2 3 3 2h-7l-3-6zm-7 30l2 1-8 7-1-2 3-4 4-2zm109 127l2 5 3 3-5 3v2l-1-4 1-9zm-25 21v8l-4 8-2-8 6-8zm-189 146l5 1-7 21-4 2-3-1 9-23z" fill="#923328" stroke="#923328"/><path d="M732 125l6 4 1 4-1 3-8-9 2-2zm38 25l22 2v17l12 18-6 12 14 21 10 4 1 16h-19l-5 4-7 15 12 14 12 7-1 2q-14 3-17-3l-1-3-5 2-2 3-4-2 1-3 3-1 2-5-3-5-9-1-5 4-16 20 1 1q-7 7-21 5l-4-11-3-1-5 4-22 26-3 13 12 17v13l-5 10-7-29-12-18 5-9-5-6 8-15 9-2 25-19 13-3 9-7 4-17 10-1v-41q-8-6-6-20l6-9 2-19zm-14 31v6l-5 10-1-5h-3l3-5 1 2 5-8zm-135 53l13 6h-3l-10-6zm-21 66q17-2 24 6h25l20 12 3 14-4-3-7-14-6-3h-37q-9-9-29-6l11-6zm-42 6l29 1q-11 9-35 5-17 5-27 18l-2 5 5 3q-8 4-6 19l6 3q-2-17 7-24l15 12 18-11q3 6 15 5l9-5q9 24 51 17l9-5 19 11h1q-1 13 6 18v53l-3 1-9-11v-13q-8-8-7-24h-35l-12 7v10l-8-16 2-1-7-24-23 2 3 10h-11l2-3v-3l-23 12h-17l-2-12-12-18 9-24 9-9 24-9zm27 66l12 6-2 1-1-2-9-5zm-7 6l4 3v4l-8-1 4-6zm131 7l11 29v13l12 23v9l-8 3 2-3-6-14 6-1-12-17q2-18-6-24l1-18zm-97 24v6l-7 17h-7l8-16 3-1 3-6zm98 47l4 2 2 2 3 2h-15v-1l4-2 2-3zm-53 12l3 2-12 29 7 11 3-1-2 3-2 5 4 5 2 2 2 2q21 6 32 22l6 10 2 2v23l4 4 14 5-1 2h-54l1-4-40-2-2 5 1 1-17-1-11-40-15-1-17-12q-18 4-24-3l-1-9h-3l7-6 6 5 6-5q9 13 26 18h19q4-7 18-6l9-7 8-29q6-19 21-30zm34 0l3 1-10 5v1l1-4 6-3zm-19 16v2l-5 10-2-3 7-9zm-78 116l6 1-1 10-9-4-1-3 1-2 4-2zm211 18l4 1-26 11v-1l22-11zm7 0l3 1-1 3-5 2 1-2 2-4zm-50 18l5 1-15 5v-1l10-5zm-30 6l11 1q-6 7-21 5v-1l10-5zm95 154l1 1 1 1 4 1-8 5 1 1-8 4-1-1 2-3-2-1 10-5-3-1 3-2zm-11 9v5h-2v-1l2-4zm61 6l5 16h-1l-4-16zm-84 16v3h-2l-4 9-1-4 4-7 3-1zm90 2l5 16h-1l-4-16zm173 23h43l10 6h-53v-1-5zm-162 1l2 17q12-2 16 4l1 2 5-3-1 4-11 5-16-13-2-5 6-11zm272 5q23-4 33 6h-23l-10-6zm66 6h35l10 6h-35l-10-6zm-297 6q14-3 19 4l1 2h-13l-7-6zM745 993l17 7q3 11-3 14l-8 4-1 13 6 3 2 4 4-1v2l-2 4-4-2-1-3-11-9-1-3-26 24-2 3-12 6-1-5 24-18v-4l-4-1-5-16-8-4-1-14 3-1 5 6-2 1 16 17h2l-3-5 3-1 12-3-1-2 7-2-5-14zm21 27l8 4q4 22-5 31l-1-29-4 2-1 3-1-7 4-4zm-30 24l2 1 3 5 3-2 1 8 1 1-2 18 6 11h-3l-27-29 16-13zm14 0l5 4 1 3-1-1-5-3v-3zm18 34v3l-5 10-1-5 6-8zm-68 26l1 1-4 7-1-2 4-6zm3 0l1 1-2 1 1-2zm20 18l15 2v6l-15-8zm28 31l5 13-3-2-2-11zm-349 39v2l-5 10-1-3 6-9zm-40 152l4 2-1 16-5-1 2-17zm-11 114l3 3-2 3-4-2 3-4z" fill="#736269" stroke="#736269"/><path d="M702 96l1 1h-1v-1zm73 28l3 2-3 1 10 5 3 7-8-4-1-3-10-5 6-3zm23 19l6 5 2 2 4 2 2 4 4 3 2 3h-4l-5-6-5-3-1-3-7-5 2-2zm25 31l3 2 2 3 1-4 2 5h-5l-3-6zm6 12l3 2 2 3 1-4 2 5h-5l-3-6zm-319 95l2 31 3 3-2 3-2 1-2-7-5-2q-4-20 4-28l2-1zm1 42l3 3 2 5-1-1-3-1-1-6zm5 12v2l-3 5-2 1-1-1 4-6 2-1zm-5 18l3 3 2 5-1-1-3-1-1-6zm6 12l3 3 10 34 4 4 2 8h-2l-5-3-2-9-5-3q-9-12-5-34zm14 86l10 6-1 20-3 3-3 1v11l-6-3-8-14 2-1 1-18 8-5zm249 182l1 3 3 1-11 6-1-1 5-6h-2l5-3zm73 147l5 3-2 3-14 5v-1l5-7 6-3zm-44 31l1 1-3 4 1 1q-4 6-14 5v-1l7-4v-2l8-4zm-18 11l1 1h-1v-1zm115 12l1 1-2 1-1 3-3-1 1-2 4-2zm78 18l1 1-2 3-16 8h-7v-1l2-3 16-3 2-3 4-2zm381 12l11 6h-1l-10-6zm-649 83l2 2-8 6-1 3-1-6 8-5zm5 41q5 13 22 14h1l1 6h-6l-19-15 1-5zm-121 42v2l-5 10-2-2 7-10zm7 0l5 12h-1l-4-12zm107 26l6 3h1l11 27v13l-3 4-3 1v-1l-5-8-6-2 5-1v-24l-3-5-14-1 11-6zm-210 92l1 5-1 4 1 1-7-2 3-4h1l2-4z" fill="#ad916f" stroke="#ad916f"/><path d="M776 126l10 4v2l-10-6zm41 29l11 10v7l-6-8-4-1-2-4 1-4zm18 20l5 13-4-3-1-10zm18 24l11 28h-1l-12-24 2-4zm12 48l5 10 1-3 1 4-2 1v7q-9-5-5-19zm54 145l2 4 3 3-2 3-2 1-1 3v-14zm0 15l2 2 2 7-4 8v-17zm-414 24l7 2-2 22q-9-7-5-24zm414 15l5 12-4-3-1-9zm-408 16l5 1q-4 20 3 29l-3 1v4q-10-11-5-35zm6 49l5 11v41h-1l-5-10 1-42zm48 171l6 10-1 2-5-10h-2l2-2zm323 56l6 3v4l-4-1h-2-2l2-4v-2zM625 910l5 8v28l-5 7v-43zm3 62l5 1 3 13-2-2-4 1v4l-6-10 6-1-2-6zm-3 34l11 10 2 2 10 5 2 9 15 6h-5l-24-9-9-8-2-15zm50 27l13 13-4 7-7 4-4-1 11-8-5-3-1-3-1-4h-10l8-5zm33 29l4 2 2 5q-8 3-6 16l-6-17h-5l11-6zm-28 6l9 1-5 3-1 2-5-1 2-5zm-20 6l5 1-15 5v-1l10-5zm-23 2l-1 2 1 2 4 1q-5 7-19 5v-1l2-4 1 2 12-7zm-79 125v10l-3 1-2-2 5-9zm-9 29l3 2v5l-4-1-4 6h-4l9-12zm-177 20v5l-5 7-1-1 6-11zm156 10l12 1 1 11 5 3 2 9 4 4v8l-6-2-3-9-3-1-21 11-6-5-23 12q-6-16-18-24l-7 6q-19-2-27 6l-6-3v-3l-17 12h-27l-15-9-2 1-1-3 2-1 2-4 5-2 17 12h19q23-7 38-23l7 4q3-6 15-5l4 4 5 13 3 1 41-24z" fill="#d19f60" stroke="#d19f60"/><path d="M606 132v3l-6 5v-2h-2l8-6zm-12 16v9l-5 10-8 1 4-5 9-15zm96 98l2 1-13 11-1-2 3-4h-2l11-6zm683 612q15-4 19 4v2q-18 4-19-6z" fill="#97c4c8" stroke="#97c4c8"/><path d="M618 128v4l-3 6h-2l5-10zm54 1l1 2-4 1 3-3zm21 3l11 6h-1l-10-6zm-81 4v2h-1l1-2zm115 28l6 10-6 1-17-1 16-6 1-4zm17 4l1 1-1 4 1 1h-8l3-4 4-2zm6 8v10l-3 6-2 1-1-6 6-11zm-125 26l13 14-11-6-2-8zm273 26l2 4-3 2 2-3-1-3zM463 339l3 2 2-1-3 2-2-3zm457 51l6 6-2 1-3-1-1-6zm4 11v11h-1l-1-4-3-1 3-5 2-1zm10 7l6 5 5-4-6 5-5-6zm-11 51l1 1-11 24q2-12-4-15l13-7 1-3zm-548 3l13 11 11-10-12 11-12-11-3 2 3-3zm556 13l4 7-4 8v-15zm-450 17l5 3-1 3-4 1-3-1 3-6zm-6 11l3 3 2 3 1-4 2 5-3 1v3l-5-11zm-102 10l11 13-12 11 11-12-10-12zm905 42l-149 150 11 12-12-11 150-151zm-1059 3l3 3-2-2-3 2 2-3zm688 25l4 7-4 8v-15zm-724 11l3 3-2-2-7 5-2-3 3 2 5-5zm718 17l4 2-4 9v-11zm278 91l7 5 2-1-3 2-6-5-9 8 9-9zm-860 99l3 2 2-1-3 2-2-3zm-108 6l3 2 2-1-3 2-2-3zm405 21l2 1-2 11-4-2 4-10zm773 12l3 3-2-2-3 2 2-3zm-757 24l4 2-1 4-3 2-1 3-1-9 2-2zm-10 6l2 1v11h-3l-3-8 4-4zm670 0l15 1-15 5-2-4 2-2zm48 0l15 1-5 3-1 2-5-1-1-3-3-2zm-77 6l9 1v2l-9 3-3-3 3-3zm-43 12l4 1-2 5-4-1 2-5zm-14 6v3l-8 3 2-3 6-3zm-21 6l3 1-1 5-5-2 3-4zm-586 1l1 1 1 4h-2-5l1-3 4-2zm560 10l4 1h1l-2 6-4-2 1-5zm-10 1l3 3-2 9-4-2 3-10zm-92 53l7 2-3 4-5-2 1-4zm-732 31l2 1-8 5v2l-1-4 7-4zm-6 17l10 2-8 5-5-5 3-2zm156 58l16 9h-5l-11-5v-4zm-3 22l2 2 1 2 1 1h-12v-1l8-4zm-84 17l3 1-1 6-5-2 3-5zm-6 18l1 1-5 11v2l-2 4h-3l9-18zm3 0l1 1-2 1 1-2zm236 6l3 1-2 5-4-2 3-4zm60 12l13 6h-3l-10-6zm-76 1l-1 2-21 29-1-1 6-12-2-1 19-17zm-238 10l4 1h2l2 1-3 5v2l1 4v2l7 10h-1l-11-6-2 1 1-20zm252 7l3 1-21 19-1-1 13-16 6-3zm-58 42l3 3-2 3h-4l3-6zm21 8v4l-4 9-2-2 6-11zm0 19l1 3 1 1-2 15-6-13 2-4 4-2zm-30 8l2 2-7 10-1-7 6-5zm-4 21v2h-1l1-2zm131 22l1 1-2 7-6-4 7-4zm-4 12l-2 3 5 6-6-5 3-4z" fill="#944b23" stroke="#944b23"/><path d="M795 132l4 1-1 4 1 1-7-2 3-4zm10 4l5 7h-1l-9-4 4-1 1-2zm12 12l7 8 4 4 2 2 2 2 6 10 2 2 2 4h-4l-5-12-5-3-1-3-11-8 1-6zm-303 44l2 1-5 10-1-2-6 5 10-14zm339 0l5 9-4-3-1-6zm12 46l5 13h-1l-4-13zm-371 26l2 2 2 41-5 10-1-51 2-2zm-1 83l3 3 2 25-3-2q-6-9-2-26zm-1 55l6 4v13l-3-5-3-1v-11zm7 31l5 16h-1l-4-16zm6 27l5 9-3 5-3-1 1-13zm-30 2l5 3v5l-5-8zm36 31l5 12-1-1-3 2-1 3v-16zm-24 12l5 15h-1l-4-15zm42 125l6 13-2-1-4-12zm29 47l6 9h1l-5-2-2-7zm359 145l7 3v5l-7-8zm70 6l9 2-1 2-10 2-1-3 3-3zm-58 6l7 3v3l-7-6zm40 0l14 1-16 5-1-3 3-3zm432 24l9 3-2 3-4-2v-2l-3-2zm-788 61l5 12-5 10v-22zm6 51l7 8-2 1 6 12-1-1-9-5 4-1-5-14zm120 6l4 8h-1l-3-8zm-126 16l11 18-2-2-10 4 18 23 17 4-5 3-1 2-11-1-3-5-3-1-18-29 4-6h2l-3-5 3-1 1-4zm-15 34l2 1-5 9-1-6 4-4zm9 0l5 4 4 8 2 2-1 4-4 2q0-14-6-20zm43 12l33 10-11 8v1-3-4l-18-7-1-3-3-2zm-1 30l3 1-13 5v-1l10-5zm-14 6l1 1-11 5v-1l10-5zm32 0l4 1-14 5v-1l10-5zm21 0l2 1q9 8 6 29l-3 6h-5l2-5-3-1 3-6q-8-6-6-20l4-4zm-69 6l4 1-5 3 1 2 4 1-15 5v-1l4-2v-3l-11 6-1-2 19-10zm28 0l1 1-11 5v-1l10-5zm-110 24l3 1-1 5h-5l3-6zm-12 6l3 1-2 5h-4l3-6zm154 0l3 1-11 5 2-3 6-3zm-60 24l-1 2 1 4-6 2q-5-2 0-5l6-3zm-109 42q13-3 17 4l5 13 12 6 8-5 1 6 2 1-3 5 2 1-2 10-2-4-2 1-5 9-8 5-4 7q-24-1-32 13h-13l-5-3-1-15 12-17v-12l-3-1-29 53-17 17q-22 2-34 14h-7l-24-18-5 4-6 13-1-19 6-8 1 4 12-6 4 4 5 13 9 1 11-6 25-6 15-13 24-36 8-19 10-10 14-6zm43 42l4 3-4 8v-11zm-175 14v4l-5 10-1-3 6-11zm168 11v8l-5 3-1-2 6-9zm-182 41l1 1-2 5-1-2 2-4z" fill="#e4bb74" stroke="#e4bb74"/><g fill="#3e092a" stroke="#3e092a"><path d="M739 134l11 27h-1l-10-27zm-85 40l11 1q-5 7-18 5l3-4 4-2zm-59 16l5 13h-1l-4-13zm152 2l3 1-1 4h-4l-1-2 3-3zm-146 13l5 13-3-2-2-11zm107 11l2 1-9 5 3-4 4-2zm-32 6l2 1-1 3-5 2v-1l4-5zm2 10v11l-7 3 1-2 6-12zm106 50h38q8 8 24 8l6 22-8 24-23 6-9 7-1 3-7 3-2 5-4 3-2 3-14 7-2 37 12 23v13l19 32 11 5v11l13 14 17 2 14 6 14-11q10 3 8 18-7 4-6 18l6 12q-8 6-6 24l8 17 10-3 1-3 5 2q-9 6-6 25l-12 27h3l3-2-5 7-1-4-3 5q-14 2-18-5l-10-37-10 4-18 31-5 3-8 22v15l-3 3-9 2q3 13-3 16l-8 4-4 8-13 8q-11 10-8 35l5 10-28 13h-67q-7-8-24-6l-9-5-3-6 6-2-2-9-20-21-3-11-11-1q-1-15-11-20-15-5-23-16l-32-52v-22l6-3 23 12h9l4-2 1-4 11 1q5 17 19 27l28 14q17-2 24 6h44l9-6h34l43-23v-2l15-8-1-8 7-1v-12l-7 1 1-2-1-5h-18q-6 8-21 6v-1l28-11q17 4 23-3l1-3-3-5-9-1-17 6-2-4-4-2h-2-24q-10 10-34 6l-10-6-16-30-21-11-2-5q-16-5-24-17l12-25 6-3 1 1 29-18h12l-2-5 17-1q2 7 14 6l1-6-7-10-8-2-9-18v-13l-6-11v-19q-8-7-6-22 9-8 6-26l-5-12 15-23 22-11 1-2q6-7 23-5l8-6zM626 660l-2 10-2 2-22 2 8 22 9 6h7l18 9 8 15 16-2 6-13 3-3h59l4-2 18-20-2-7-8-7-14 6h-17l-27-12-6 5-9-5-3 5-26-11h-18zm227-372l5 2-1 4-5-1 1-5zm-20 71l7 4 11 29-11 19q-10 7-29 3l-7-3-3-9h-6l-3-16h1l13 20 29 2 4-3 7-21-13-25zm-272 25l-2 3-1-2 3-1zm45 22v2l-9 18-15 6h-11l-9-5 27-1 8-5 9-15zm-53 3l5 13-3-2-2-11zm372 45l6 9-1 18-1-2-5-2 1-23zm-222 8l4 1-14 5v-1l10-5zm-226 36l3 1v5l-6-2 3-4zm304 84l7 1q-4 7-17 5v-1l10-5zm-24 6l10 1q-6 7-20 5v-1l10-5zm-60 6l19 1-2 3 2 2h-30l11-6zm26 0l11 1q-3 7-15 5l1-2 3-4zm-108 2l7 4-11 1-3-1 7-4zm147 4l10 1-17 5-11 9 1 3-7 1-1 3-19 2 1-2v-2l-5-2-5 3 2 3h-17l2-3-2-8-9 8 2 3h-17l1-2-8-9q19 1 28-7l12 6q9-10 32-6l-2 3 1 1 5 2 23-12zm-80 12l-3 4 3 1 2-4-2-1zm24 0l-3 4 3 1 2-4-2-1zm87-6l4 1-14 5v-1l10-5zm-24 6l10 1q-6 7-20 5v-1l10-5zm-125 3l7 9h-3l-5-3-1-4 2-2zm-26 13l6 4-3 4-3-8zm15 8l12 6h-2l-10-6zm77 6l14 1-8 4-6-5zm72 114l4 3 1 3 5 1-1 3-10 2-1-10 2-2zm59 18l1 1-11 5v-1l10-5zm18 0l5 4v2l-6-3 1-3zm-436 6l12 7 3 7-4-3-1-4-1 2-5-3-1 4-6-7 3-3zm213 0h7l29 12h61q7-9 27-6 5 3-1 6l-3 7q8 7 8 23l6 1-8 11h3l9-8-12 12 3 2 4 3 6 7 13 3-8 6-5 7-1-2-16 8-34 34 32-33v-3l-34 32-2 4 2 1-8 16-2-4-2 1-2 10h3l8-5 1-3v5l-12 15 3 1-3 5 2 1-2 1v-2l-5 10-5 4 2 3 5 2 9 19-10-9-4-11-4 1 2 11h-5l-4-18-17 2v20l-2 2h-15l5-3v-9h-8l2-3-11-3 11-7-5-8-1 2-6-10v-73q8-7 6-24l-12-29 6-2-12-19v-12l6-4zm62 18l-2 2 2 9 19 12q5-7 20-5l1-16-40-2zm152-6l1 1-2 5h-3l4-6z"/><path d="M865 792l5 4v40q9 6 8 22l10 1q-3 16 7 21l11 6v2q-16-1-21-11l-3-13h-30l-1-24h-5q-3-20 6-27l-6-8 18-1 1-12zm-59 5v2l-7 5v2q-6-3 1-6l6-3zm-30 1l10 2-1 4-11-1 2-5zm64 6v9l-5 3-1-6 4-5 2-1zm-52 5l3 2-15 5v-1l12-6zm120 26l3 1v3l-4 1-1-2 2-3zm-391 2l5 3 1-2 11 8v-3l-2-3 3 1 9 5 3 4-4-4-3 1 7 11 4 1-8 5-3 9-5-2 2-1-2-5-1 4-3-4 4-2 4 1 1-4-4-2h-2l-10-7-7-14zm0 10l5 10 2 1v1l-5-1-2-11zm34 4l4 2 3 6-1-1-3-1-1-4h-3l1-2zm70 7l3 3-2 3-4-2 3-4zm442 0h35l11 6h85l11 6h41l2 3-12 9h-13l-40 18h-8l-8 6-15 2 1 4h-2l-11 2 1 4-7 1-7-1-8 6 1 1-46 21 2 2-2 1-12-1q-3-20 5-27l-16-15h-85q-7 8-24 6l-29-15-1-6 12-3q9 10 32 6 6-8 24-6 6-10 22-12l14 6 16-7 3-11q20 3 28-6zm-505 5l-1 2-5 8-6 3v-1l10-11 2-1zm803 2l7 3v4l-5-2h-2-5l1-3 4-2zm-580 4v2h-1l1-2zm521 4l1 3 5 4v2q-11 1-14-5l8-4zm31 0q8 7 28 3h2l5 2-1 2-29 2-5-3v-6zm-61 6v4l-3 4-3 1-11-5 17-4zm-24 6v10l-7 9-11 2-6-3v-3l-11-5 11-2 12 1v-3l-1-3 13-3zm-498 3l1 1h-1v-1zm459 13l1 1 2 5-7 9-11 2-35 18h-7l-29 20-1-4 6-8v-2l12-14 1 2 5-1-1-5 2-1 4 1h2 6l23-12-1-5 13-4 1 3 14-5zm-779 5l13 2 1 2q-3 5-15 2l-2-3 1-2 2-1zm151 7l1 1-5 9-4 1 3-5h-1l-5 3 1 2-12 8-1-2h-2l25-17zm199 5l8 6-2 1 6 10 1-4 2 4 1 1-4 1-12 35h3l6-5q-9 4-9 18l1 1-13-4q2-16-6-20l-18-2-10-7-2-9h1l3 4q19 5 25-3l8-15 3-1 2-4-2-1 8-6zm564 9v4l-3 4-14 1-1-3 18-6zm-24 6v4l-3 4-27 7-9-5 15-4 1 3 8-6 15-3zm-714 3v3l-11 19-4 2-2 5-3 1h-4l20-28 4-2zm-67 7l1 1-9 10 1 1-8 4v-1l11-13 4-2zm733 2v4l-3 4q-8 9-26 7l-1-3 12-6 1 3 17-9zm-168 1l1 2 3 1-26 18-3 9-4 2 4 1-10 8 5-6v-3l-11 6-1-3 6-8-2-1-7 6-4-1-2-5h-5l7-4 7 3 6-7 1 2 5-3 1-3 5-2 1 2 23-14zm309 2l4 4-3-3-7 5-2-3 3 2 5-5zm-345 3l-1 4-13 5 2-3 12-6zm-141 3l3 3-2-2-9 8 2 3-3-2 9-10zm-299 6l3 1-1 3 2 2-7-1 1-4 2-1zm102 0l2 1 2 5 1 1 2 4-1-1-7-4-2-4 3-2zm488 3v4l-3 4-8 1-1-3 12-6zm-174 3v3l-10 3v-1l10-5zm49 0l10 1-16 8-1-5 7-4zm107 3v4l-3 4-14 7 4 1-4 2-1-3-12 4v4l-5-5 17-12 1 3 17-9zm-276 2v2h-1l1-2zm540 0v2h-1l1-2zm-912 1l6 2 2 10 9-3 5-9 8 1-3 11-8 4-12 18-5 3-13 21-5 3-7 15-5 3-1 3-5 4-7 14-5 3-1 3-4 2h-3l6-16-18-2-12 7v2l-5-2 2-1-4-6-5-3-6-11 4 2h2l-3-5-2-1-1 2-1-3-5-2 1-6 4-1q3 6 14 4l4-3 1-3-6-11 6-11 4-2 2-4 4-2h2l-1-6-3 2-1 3-1-2-2 4-7 5 1 1-3 1-1-1 13-16 3-1 6 4 2 4 2 2 11-3 21-20 6 5 20-12zm480 0v3l-6 9 2 1-2 4 2 1h-4l-4-6-6 3 2 3 4 4v2l-6-3-1-3-4 2-1-2h-3q10-13 27-18zm18 6l6 3-3 9h-3l-2-5-3 2-1-3 4-5 2-1zm-401 1l3 5 2 1v5l-8-5 2-1 1-5zm551 7l4 3 3-2-4 3-3-4zm-581 4l2 1 2 4-1-1-4-1 1-3zm623 2l4 3 3-2-4 3-3-4zm-192 3l1 1h-1v-1zm126 0l1 1h-1v-1zm-834 1l9 7 1 3-3 6-2-8-4-1 2-1-3-6zm436 0l2 1 3 10 3-2v16l-11 19-1-7 5-10-9-18 8-9zm-58 4l14 14h-1l-13-9v-5zm177 20l-8 9 5 7-4 3 3-4-5-6 9-9zm-295 7l3 1 1 12q-5-5-10 6l-1 3-1-4 8-18zm361 6l1 1 2 6h-1v-2l-11 9 1 2 1 1h-2l-5-2 14-15zm-189 19v5l-5 8-1-2 6-11zm16 21l-3 4 3 4-4-3 4-5zm8 18l1 1h-1v-1zm-347 7l1 1-2 5h6 2l4 1 1 11 17-12v3l-5 7-5 3-1 3-1-4-17 14-1-2-20-6-3 4 3 3-5-8-10-4 11-3 25-16zm255 6l2 1 2 11 8 6-3 1-14-7 5-12zm-310 6l6 4 1 2h-1l-6-3v-3zm15 2l3 2v4l-7-2 2-3 2-1zm-20 3l5 3-1 4 1 1-2-1-3 5v-12zm276 1l7 1q-3 7-15 5l2-3 6-3zm58 11l13 10h1l11 23-4-3q-7-20-21-30zm-292 4l5 4 2 3 3 2h-5l-5-3-2-4 2-2zm23 0l1 2-4 1 3-3zm-67 1l2 1-1 10-5-2 2-8 2-1zm493 1v2h-1l1-2zm-432 5v3l-5 7-1-2 6-8zm65 8l6 2v3l-6 1 1-2-1-4zm-132 4l2 1-1 8v2l-4-2-2 1v-2h-2l5-7 2-1zm247 6v3l-3 4-3 2-4-1 10-8zm-250 8l4 2 3 4h-7l-2-4 2-2zm207 1v2l-5 12-5 2-1-4 7-10 4-2zm-208 11l5 4v2l-6-3 1-3zm191 17l-1 2-2 4h-2l-1-3 6-3zm276 0l1 1h-1v-1zm-134 7l4 1-7 5-1-2 4-4zm-322 3l1 2-4 1 3-3zm298 4l2 2-1-1-1-1zm-315 5l1 1-7 5v2l-1-4 7-4zm-7 9l-2 3-1-2 3-1zm208 21l3 2 5 12-4-3-4-11zm158 20v5l-3 4-4 1 5-6 2-4zm-179 20l5 8h-2l-3-8zm4 14l6 4 1 6h-1l-6-10zm-188 36l3 3v9l-6-2 3-10zm0 36l3 1 6 17h-2l-10-15 3-3zm-1 30l16 1 1 11 1 1-11 11-3 13q-10 7-12 23l-6-3-1-3-4 1-1-13h2l10-1v-23l8-18z"/></g><path d="M745 142l5 12h-1l-4-12zm6 15q7 7 5 24l-5 8-2-2 1-11v-2-6h-4l4-2 1-9zm53 83h22l2 3 10 20 8 2q-3 13 3 17l-4-4-11-2-6 4 2 2h-15l1-2-21-15-3-7 10-17 2-1zm49 18l3 2 2 6-2-2-3 1v-7zm-59 18l4 2 3 4h-11l2-3 2-3zm70 16l1 2 11 3v3l-6 1v24l12 29v31l6 11 3 17 3-2v10l-6 11-1 24h-7l2-2v-40l-6-11v-25l-3-6-3-1 6-14-6-6q2-11-3-15l-3-1q2-15-5-19l5-10-5-9 5-5zm-336 35q-1 10 6 13-9 4-6 20l-6-3q-2-15 6-19l-5-3 5-8zm-27 33l3 3q-2 15 6 22v31l6 14-9 2-3-2v-41q-9-8-6-26l3-3zm346 10l5 4v4l-4-1-1-7zm-277 2l4 1-11 5 3-4 4-2zm-18 25v16h-1l-5-8 6-8zm253 17l10 6-2 1 3 4-2 1-9-12zm-205 10v6l-10 2v-1l10-7zm-81 50l9 12v13q9 9 8 29l4 1 4 10 21 1 17 12q13-3 17 4l1 10-2-2h-16q-7-8-24-6l-17 10-4 8-3 2v9l-6-15h1l2 3h1l2-35-3-6-3-1v-23l-6-11q3-17-5-23l2-2zm257 102l4 2-1 4h-7l4-6zm-22 6l10 1-3 1-2 4h-9l4-6zm-38 6l28 1-3 5h-22l1-2-4-4zm-96 6l21 1-13 5-8-6zm184 0l12 3-2 3h-16l2-4 4-2zm-24 6l8 1-4 5 1 1-12 5 1-2v-4h-5l11-6zm-18 6l2 1-4 5 1 1-9 5-2-2 3-4h-2l11-6zm37 24l1 1-35 17v-1l34-17zm-258 4l5 11-3-2-2-9zm86 2l13 6-4 1 1 3 3 2h-3l-11-5v-2l-1-3 2-2zm29 6l14 6h-4l-10-6zm71 0l4 1-13 5 1-2 8-4zm-59 12l15 6h-5l-10-6zm34 0l17 1q-8 8-27 5v-1l10-5zm158 114l6 1-2 7-6-4 2-4zm-8 18l5 1-12 6-4-1 11-6zm-29 12l4 1-10 5 2 1-2 4-2-5h-3l11-6zm48 1l17 46 1-4 2 5-3 1v5h-6q2-13-3-18l-3-1q2-16-6-22l1-12zm-98 47l7 4 1 2-1-1-7-5zm238 6l45 2-1 4h-35l-36 16-1 2h-24l3-4 19-8-3 4 1 2 32-18zm149 6l15 6h-5l-10-6zm-608 6v3l-5 3v-1l3-4 2-1zm771 0l3 3 1 1 3 2h-13v-1l3-1 3-4zm-399 6h10q4 8 19 7l-5 3v2l-12-1-1-3-8-2-3 2v-2h-8l8-6zm348 0l19 1-1 4 1 1-18 2-2-2 1-4v-2zm-58 18l5 1-1 4 1 1-7-1 2-5zm-781 12l-1 2 1 4-6 1v-1l2-4 4-2zm728 6l3 2-1 4-5-1 3-5zm-524 1l5 18-5 10v-28zm494 11l3 3-2 3-4-2 3-4zm-10 7l-1 2-3 5-1-2-34 19-1 3-1-6 41-21zm-509 10l-1 2-2 5h-5l3-1 3-5 2-1zm112 1l3 2 5 15h-1l-7-17zm-87 1l5 14-3-2-2-12zm78 4l5 3v1l-7 3-1-2 3-5zm401 7l-1 2-6 8-22 8-1-2 30-16zm-59 12l-1 2v6l-3-1-2 1-1-2h-4l11-6zm-330 1l6 9 5 2v-2l1-3 2 5-2 1 5 3v6l-6-8-12-4 1-9zm312 11l3 1-8 6-1 3-1-6 7-4zm-294 17l10 7h-7l-3-7zm-99 1l14 10 2 8 4 2 8 10 6 6h-2l-6-1-7-11-5-2-1-4-8-5-5-13zm-27 4l3 2-3 1 5 3v2l-6-3 1-5zm-128 2l9 1q-4 9-8 3l-1-4zm272 4l3 2 2-1v9l-3-2-3 2 1-10zm-410 6v4l-2 4h-2l4-8zm121 0l1 2 1 1-2 1v-2h-2l2-2zm-1 3l-1 2-3 7-1-6 5-3zm-125 3v3l-2-1 2-2zm408 2l2 1-8 7 4-7 2-1zm-60 29v2h-1l1-2zm6 11v5l-10 3v-1l9-4 1-3zm-17 1l-1 4 1 3 4 1q-6 7-20 5v-1l16-12zm-175 17l1 2-2 1-4 7-1-1 6-9zm203 26l5 2 2 5-5 7-1-13-1-1zm-283 6l6 1-9 7-1-1 4-7zm38 14v4l-5 8-1-1 6-11zm277 24l5 14h-1l-4-14zm-364 4l-2 3-1-2 3-1zm4 28l5 8-5 10 2 2 3 3-7 3-1-2 2-13-1-3h1l-2-5 2-1 1-2zm-13 64v5l-5 10-1-4 6-11zm-6 30v5l-5 10-1-4 6-11zm105 10l12 12-11-11-6 5 5-6zm-103 36l4 2 3 9 4-3-3 4-9-5-1-3 2-4zm34 0l5 4 2 9-1 4 5 1h1l-2 6-10-12-11-5 5-1 2-4 4-2zm-40 24l4 2v5l-4-1-2 1 2-7zm55 0l11 1-1 3-4 2-9-1 3-5zm-55 36l4 3 1-2 5 14-8 3 2-3-6-13 2-2zm149 9q2 6 13 4l-4 11-10-2 1-13z" fill="#85524a" stroke="#85524a"/><path d="M811 142l3 2-4 1 6 3 2 8-1-1h-2l-7-10 3-3zm18 23l5 5 1 5-1 4-5-14zm16 27l5 2 2 3 1-3 1 4-2 1v3l-7-10zm-335 9v4l-5 10-1-8 6-6zm355 22l3 5 2 2-1 4-4 1v-12zm-366 36l3 5 2 1-1 17-3 2-1 3q2-16-4-22l3-1 1-5zm-1 48v46h-1l-2-5-3-1q-5-28 6-40zm1 73l5 11v52h-1l-5-10v-27l-3-3 3-1 1-22zm6 65l8 17-3 1v4q-9-6-5-22zm6 42l5 16h-1l-4-16zm18 139l11 26h-1l-10-26zm30 48l5 10 1 1-4-1-2-10zm331 70l4 2-5 9-1-9 2-2zM630 946v2l-5 10-1-4h-2l3-1 5-7zm-6 40l5 4h1v2l-2 4-4-2v-8zm-6 22l6 3q2 13 12 18l24 9 18 2 2 4h-2q-17 2-23-6h-19l-9-5-15-21 6-4zm55 47l3 2-13 5v-1l9-4 1-2zm17 13l12 1 6 18-11 16q2-20-7-29l-5 3-2-3 3-4 4-2zm-53 6l3 1-15 8-1-2-3 5h-3l2-4 17-8zm5 6l4 1-14 5v-1l10-5zm-33 6l3 1-1 3-7 2 5-6zm2 55l-1 2-3 5-1-2h-2l7-5zm-41 39l1 8h-2l-3 1-1 3-1-3 6-9zm-81 20l3 1v12l-12 17v13l4 4 15 1 17-12q13 3 17-3l5-8 7-4 4-8 1 1 2 3 1-3 1 4-2 1v12l-3-1-9 12h4l2-1-6 13h3l3-2v22l-6-2v-12h-12l-42 24-5-3-4-14-9-1-9 5-7-4q-14 17-37 23h-19l-18-12-6 4v2l-5 2-3-4 2-1 1 2 9-16 3-1 19 16 11 2q12-12 34-14l17-17 29-53z" fill="#dbb06e" stroke="#dbb06e"/><path d="M815 162l11 8 2 4h-2l-10-7-1-5zm11 18l6 2 2 4h-2l-3-5-1 4-2-5zm7 12q11-2 13 4l6 10h1l5 10v37l6 16h-1l-14-34 3-1-3-5-2-1-1 2-4-2-2 1v-19l-7-18zm62 156l3 2 2 15h-1l-4-17zM523 499l5 11v71h-1l-5-10 1-72zm6 120l11 27h-1l-10-27zm24 37l11 19h1l11 23-3-2-8-15-2 1-10-26zm276 124l3 1-13 5v-1l10-5zm-204 37q7 5 5 20l-5 7v-27zm-27 90l2 2v3h-8l6-5zm33 0l5 11v33l-2 4-9 6v-1l5-10 1-43zm96 42l3 5 2 2-2 4h-4l1-11zm-205 6l1 5 1 1-7 10-1-5 6-11zm115 24q7 7 5 24l14 23q18-4 24 6h-2q-23 4-30-8l-1-4-11-7-3-5-3-1-7-9-4-1 6-2 5 2 2 5 2-1 3-22zm-22 5l9 4v6l-2-4-4 1v7l-6-11 3-3zm31 90l2 1-1 3-3 1-1-1 3-4zm-4 1v5h-2v-1l2-4zm70 18l5 5-4-4-1-1zm-16 13v7l-10 3v-1l9-4-1-3 2-2zm-222 8v2l-5 8-1-1 6-9zm187 2l3 1-8 6-1 3-1-6 7-4zm-289 127v6l-5 10-1-5 6-11zm180 33v10l-2-2-4-2 2-4 4-2zm-93 8l5 1-23 35h-15l-17-12h-19l-16 6-3-12-5 3v3l-6-3 1-10 2 1 6-11 1 1 4 16q33 5 50-6l9 6 9-6 3 6 9-7 5-11zm85 6l4 6 4 3 7 15 4-2-5-11 3 2 3 11-3 6q-11-2-14 4l-14 18-11 2-9-6-11 6-4-3-6-29 4 2q34 6 42-13l6-11zm-186 102l2 1-1 11-5-1q-2-9 4-11z" fill="#b27551" stroke="#b27551"/><path d="M731 168l12 1-8 5-4-6zm-65 6l4 3 2 5-2-2h-12l8-6zm29 0l17 1-11 4-6-5zm-100 19l5 15h-1l-4-15zm259 71l4 3v3h-3l-1-6zm-12 18q11-2 16 4v3l-5-1-1 5 5 1h1l6 13-3 5-7-1-9-23-5-3 2-3zm17 36l3 2 2 18-6-5 1-15zm12 36l5 3-2 3h-4l1-6zm27 54l2 1v150l4 5 2 1-1 5-5-3-1-3-3-1-2-17-6-11v-19l-8-12h-4l6-18-3-6h-3v-21l3-3 9-1v-23l10-24zM536 576l6 1-3 5-5-1 2-5zm-1 46l11 6 9 21 27 38-3-3-7-1-7-13h-2l-10-18h-2l-10-18h-2l-4-12zm185 32l2 1-12 5v-1l10-5zm139 4l7 8-8-1 1-7zm-25 11l-10 11-7 12-1-2 10-18 8-3zm-251 19l27 22 4 10 4 4 6 16-4-3-3-11-12-8-17-20-4-1-2-4 1-5zm225 8l4 1-13 16-1-7 10-10zm15 90l1 1-9 6-3-1 11-6zm-192 19l7 11-2 1 6 11v89h-1l-5-10v-79q-8-7-5-23zm-86 41l9 6h-1l-8-6zm-24 12l11 6v2l2 6-13-14zm16 0l3 3-2 3-4-2 3-4zm15 0l6 3-2 3-3 2-1-2-5 4-1 2 2 1-4 5-4-2 8-14 4-2zm468 0l14 1q-4 8-19 5l-1-2 6-4zm-15 6l8 1-10 5-1-3 3-3zm-12 6l8 1-10 5-1-3 3-3zm261 6l7 1-1 4 1 1-12 2-1-2-6 4 1 2-18 2-1-2h-5q7-8 24-6l11-6zm-42 12l1 1-1 4 1 1-6 2-1-2h-5l11-6zm-18 6l5 1-10 5 2 1-3 2v-3l-6 2 1 4-6 2-1-2-11 6 3 1-3 1-2-7 8-1 23-12zm-760 6l4 3 2 3h-6l-2-4 2-2zm709 12l4 1-1 9 2 2-4-6-4-2 3-4zm-567 10q-1 16 10 20l2 1 1 5 5-3v3l-27 35-6 1-4-12-26 11-6-5-22 22-7 2 5-6 13-12 2-5-2-1 26-24 13-15 5-2-2-1 2-1 1 1 11-7-1-4 7-3zm567 2l3 3-2 3h-4l3-6zm-501 1q-3 20 6 30l-3 5h-17l14-7-6-17 6-11zm-35 5l5 3-1 3-3 2-1 3-1-5h-3l4-6zm126 19l5 8 5 3-2 1 3 5h-2l-5-6-4 1-1-2 1-10zm339 0l2 2 2 3-7 2-1-4 4-3zm-478 9v2l-5 10-1-4 6-8zm35 8l7 3v7l-7-10zm14 14l5 7 6 3 1-2 11 14h-2l-22-14 1-8zm-67 4l2 1-8 7 4-7 2-1zm442 0l2 1v5l-6-2 4-4zm-6 6l2 7-1-1h-7l6-6zm-675 6l-1 2-1 2-8 2v-1l10-5zm147 0l2 6-5 2-1-2h-2l3-1 3-5zm-15 28l5 9-3 4-4 1 1-2 1-12zm-18 22l5 14h-1l-4-14zm10 16l7 3v5l-7-8zm25 0q14-4 18 3l-5 14-1-2-3 2-4-5-11-3v-3h-2l8-6zm-15 36l3 2q2 14-9 16h-3q-2-16 9-18zm246 24l14 6h-4l-10-6zm-339 38l1 10h-4l-3-3 4-3 2-4zm3 10l9 3v6l-6-7-3-2zm310 36l7 1-4 5-4-2-1-2 2-2zm-116 31l1 1 1 5-3-1h-8l9-5zm-214 81l5 4-1 4-5-2 1-6zm6 56l3 2 8 17-3 5-8 1-1-4 2-4 4-2-5-15zm-7 39v3l-1 6-5-1-2-4 3-2 2 1 3-3zm-8 15l2 1-3 5h-2l3-6z" fill="#7d242b" stroke="#7d242b"/><path d="M835 167l5 4 2 3 4 4 2 2 8 8 2 12-3-2-4-12-5-3-1-3-5-2-1-4-3-1-1-6zm33 73l8 4v16l-8-20zM493 367q10 9 5 35l-11 1-1-1 4-6h2l1-29zm-18 92l2 3-4-1 2-2zm35 10v53l-5 10-1-58h2l2-1 2-4zm1 103l5 15h-1l-4-15zm6 24l5 15h-1l-4-15zm12 36l5 14h-1l-4-14zm12 18l6 12-1 3-5-15zm12 18l11 19h1l13 21 7 7 2 5h-2l-8-5v-3l-2 1-24-41 2-4zm342 93v2h-1l1-2zm4 12l1 1v11l-3-5-3-1 1-5 4-1zm97 55l11 6h-15v-1l4-2v-3zM618 943l2 11 4 1v13l-6-4v-4h-6l6-17zm96 15v8h-2l-3-3 5-5zm12 0l2 14 10 4 4 8 2 1q4 13-2 17l-4-2q3-16-2-22l-10-2-6-14 6-4zm-110 8l8 18-11 1-1-13 4-6zm-9 30l5 4v2l-4 2-2 5 6 14-9-8-3-7 7-12zm6 33l5 3 1-2 7 8 4 4 1 2h-1l-6-3-1-3-5 1-4-2-1-8zm35 9l6 4 1 2h-13v-1l2-3 4-2zm12 6l8 6h-2l-6-3v-3zm-42 4v3l-3 4-4 1 7-8zm42 14l4 1-14 5v-1l10-5zm-30 12l4 1-14 5v-1l10-5zm42 0l12 1v10l-8-10-14 5v-1l10-5zm-23 6l4 1-14 5v-1l10-5zm36 7l5 14q-3 6-6 1l1-15zm-85 2l1 3 4 1-14 5q-6-3 1-6l8-3zm-58 9l9 2-6 8-28 14h-6l-1-3 30-18 2-3zm-5 6l-3 6h5l1-5-3-1zm-12 6l-3 6h4l2-5-3-1zm129 6l4 1q-3 6-14 5v-1l10-5zm-138 54l22 2 6 9 3 1 17-6v3l-6 9h4l2-1-5 11-4 2h-3v-6l-9 5-14-8-4-14-15-1-13 6 3-4 16-8zm54 9l1 2-4 1 3-3zm-84 13v3l-32 52-11 11-47 14-5-3-4-14-3-1-11 6-1-3q4-10 19-9l4 4 5 7 15 1 46-33 25-35z" fill="#ecc77e" stroke="#ecc77e"/><path d="M586 180l4 12-2 1 3 5-3 1v6l12 19 1 1 14 15 21 12h6l1-3q4 9 18 9l5-3-1-2 13-1-1 2-2 4-9 2-1 2-4 2h-43l-40-31-2-29 10-24zm43 60l11 6-4 1v2l-5-2 4-1-6-6zm15 6q11-1 15 6h-5l-10-6zm46 156l5 4q0 12 7 17v10l-6 10 11 10-2 3 1 1-11 6-3-1 8-6 1-3-3-2-4-6-2 1-7 14-1-54 6-4z" fill="#c2e0c8" stroke="#c2e0c8"/><path d="M838 180l8 3 3 3 3 3v8l-3-5-9-3-2-9zm15 18l7 6-2 1 12 24-1-1-3-1-13-29zm17 35l1 7h-4l-3-4 6-3zm-5 8l5 16h-1l-4-16zM493 413l3 3 2 21h-1q-8-8-4-24zm6 26l5 16h-1l-4-16zm15 65l2 2v35l-4-2-2-11h-3l7-24zm8 89v12h-1l-5-10 6-2zm1 20l5 16h-1l-4-16zm24 45l5 13h-1l-4-13zm24 34l15 18 2 9h-1l-7-11-4-2-5-14zm53 239v12l-1-1-4 1-1-4 6-8zm-5 35l5 4 2 2 4 4v2l-12-8 1-4z" fill="#ecb252" stroke="#ecb252"/><path d="M835 181l7 11h-4l-3-5-1 4-3-4 3-1 1-5zm12 15l6 9-5-2-1-7zm12 21q7 7 5 24l-1-1-4 1v-24zM500 318l4 2-1 4-5-1 2-5zm22 173v30h-1q-8-9-5-28l6-2zm43 190l2 3-4-1 2-2zm315 75l4 1-9 5 5-6zm460 108l4 2 2 2 3 2h-9l-2-4 2-2zM625 965l7 7h-5l-2-7zm6 19l5 3q2 11-3 15l-3-1-1-5 2-12zm-6 16l7 8 4 4 2 2 6 6h-2l-6-3-1-3-11-8-2-3 2-1 1-2zm24 24l11 8q20-4 27 7l3 7-2 1-11-13-2-1-9 5-18-7 1-7zm-7 50l3 1-2 5-1-5-3 5h-3l2-4 4-2zm-66 98v7l-5 4v-1l5-10zm-12 18l1 10h-2l-4 1v-1l5-10zm-195 94l1 1-4 3-3 8-3-1 1-6 3 1 2-4 3-2zm60 0l3 1 2 3 5 2q5-7 19-6l-2 3q-1 11-9 15h-3l-2-6-10 6q-4-8-17-6l14-12zm111 0l5 4 1 4h-4l-15 20-31 2-5-2-5-12 4 2 24-12 6 5 20-11zm-167 3l17 12 1 3h-17l-3-13 2-2zm180 5l10 20-4 2-9-17 2-1 1-4z" fill="#c28b5e" stroke="#c28b5e"/><path d="M859 186l7 1-3 5-3-1-1-5zm7 6l2 2 2 10h-2l-4-10 2-2zm5 18l5 4v2l-6-3 1-3zm6 12l3 2 4 10 4-1v12l-4 1-8-15 1-9zm17 22v2l-3 6h-6l3-5 1 4 5-7zm-410 20l2 1-1 23-3 2-2 22h-3q-6-8-3-24h2l2-1 2-17 4-6zm-6 66l2 1-3 4-2 1-1-2 4-4zm-3 36l4 4 1 13-4 1-1-18zm18 138l5 4v14l-4-1-1-17zm582 324l11 2-1 4-11-3 1-3zm78 6l17 1-3 5q-12 3-15-3l1-3zm31 0h17l16 7-8 4-25-11zm42 6h31l3 4v2q-26 4-34-6zM610 942l2 1-1 3-4 2 2 1-2 4-1-7 4-4zm-6 12l2 1-1 5-3 2-10 21-37 43-9 19 15 17 3-2 1-4 11 1 2 3 41 2q12-11 41-6v3l-59 27q-22-3-30 6h-61l-27 24-9 19 4 4 20 2v17l-6 1-1 3q-9 10-29 8l-9-6-38 28-26 30-4 2-1-2 6-8 3-1 9-17 4-2 2-4 10-8 2-4 3-1 3-6 1 2 41-49 4-2 2-4 4-2 2-4 4-2 2-4 10-8 2-4 3-1 9-17 4-2 2-4 4-2 8-16 4-2 8-16 4-2 2-4 3-1 9-17 4-2 2-4 3-1 15-23 4-2 8-16 4-2 2-4 4-2zm111 18l5 4 4 7 8 1 1-3 4 3-2 1q7 3 4 17l-1-1-17-14-2 1-4-16zm-119 126q28-4 39 10l1 11-35 21-3-6-27 12q-18-2-24 6h-18l-2-6-9-5-2-4 1-6 6 3 53-30q13 3 18-3l2-3zm-96 60l12 1-3 5-5-1-1-3-3-2z" fill="#f7f9bb" stroke="#f7f9bb"/><path d="M589 192l2 1 3 10h-1l-4-11zm12 20l5 12-4-3-1-9zm511 622l21 1-11 5-10-6zm78 6l15 6h-5l-10-6zm28 0l17 6h-5l-10-4-10 4-1-1 9-5zm-795 336l-2 3-1-2 3-1z" fill="#dde5ba" stroke="#dde5ba"/><path d="M859 187l3 5 2-1v3l4 10h2l1-5 11 28h-1l-2-5-3 1v4l-18-34 1-6zm12 23l-1 3 6 3v-2l-5-4zm23 33l-4 5-1 3-1-4-5 8-1-9h2l4-1 3 1 3-3zm-414 22v18l-3 5-3-1q-2-16 6-22zm6 22v92l-3 5-3 2 1 4 1 1-2 5 3 1q-5 5-3 18l6 11v37l6 11q-2 12 3 18l-3 1 1 5 3 2 2 7-3-3-3 1v4l-6-8v-27l-12-26v-64h2l4-1q2-12-3-16l-2-1-1 5q-10-9-6-31l6-5 1 1 4-3 1-2-2-1 2-13-2-4 2-1q-4-17 4-24l2-1zm427 91l5 4 2 8-2 1v20l-6-5 1-28zM493 517l3 5h2l1-5q10 9 5 35l-5 1-1-19-5-17zm18 81l5 13h-1l-2-5-3-1 1-7zm6 15l5 16h-1l-2-5-3-1 1-10zm6 17l3 2 14 30-9-8-6-12-3-1 1-11zm479 192h67l10 6-5 1v2l-5-3h-70l-3-2 6-4zm98 6h71l10 6-10 3-1-3-18 1v2l-5-3h-37l-10-6zm102 6q23-4 33 6h-23l-10-6zM612 945v4l-20 46-16 25-2 11-10 13v10l2 2-2 1-2 5-13-11-3-7 9-18 37-43 12-23 2-1v-5h-3l3-5 1 4 2-4-2-1 5-3zm109 31l5 4 2 4h-2l-5-3v-5zm10 2l4 1 3 8-3-2 2-1-6-6zm-143 60v6l-3 6h-3l4-11 2-1zm-84 46v3l-5 8-1-5 6-6zm6 8l47 1-5 3v2h-30q-5 7-18 6l-24 21 1 3q16-4 22 4l1 8-5 10-1-10q-17 4-23-3l-1-3q9-25 30-39l6-3zm12 36l9 1-9 5-5-2 5-4z" fill="#f7f49a" stroke="#f7f49a"/><path d="M589 198l3 2 11 22-3 1 1 1-5-3-8-16 1-7zm28 35l11 7 4 4 3 2-4 1 5 3 1 2h-1l-20-11 2-1-3-5 2-2zm8 7l-1 5 6 1v-2l-5-4zm13 6l28 8-1 2-11 2-16-12zm55 199l5 5v1l-2-1-5 3-2-2 4-6zm-1 16l2 2-9 5-1-3 8-4z" fill="#cff2d4" stroke="#cff2d4"/><path d="M859 204l3 2 2 9h-1l-4-11zm12 54l5 4v8l-4-1-1-11zm3 18l6 2 8 27h-1l-13-29zm15 31l7 17 4-1v6l-4 1-7-23zm12 30q6 4 5 16l-4 1-1-17zm6 42q10 12 5 40l-4 1-1-41zm12 3l10 3-5 3 1 2h-3l-3-8zm-430 20l3 3v20q-8-6-6-20l3-3zm4 25l5 16h-1l-4-16zm420 4l4 1h1q-4 17 3 24h-5l-4-3 1-22zm-414 14q7 7 5 25l-4-3-1-22zm425 78v6l-11 19-1-2 12-23zm-416 5l2 1 4 11 2 2v39l-6-10v-19q-8-5-6-18l4-6zm-15 22l4 2h1v6l-4-1-1-7zm377 143v4q-11 11-6 40l23 2-34 15-10 14 1 1-19 11 1 1-15 5-1-6 6-8 1 8 5-2 1-6 3 2 8-7 1 1 4-3 1-2-2-1-4 3 6-13-6-2-18 15 2 3-2 1-15-1 3-5 1 2q10-9 5-33l20-28 16-8q17 4 24-3zm-281 22l23 26 1-2 5 8h1l10 19-11 13 5 4-8 15-8-3-1-3 6-12-3-6h-3l2-6 10-7-3-11-29-29 2-1 1-5zm21 107l2 1 1 5 1 1-2 10v2 11l-6-3v-23l4-4zm-3 76l5 13h-1l-4-13zm17 3v30l-5 7-1-26 6-11zm-4 41l4 2q2 8-3 10l-3-10 2-2z" fill="#f7b32b" stroke="#f7b32b"/><path d="M877 205l11 24-1-1-3-1-7-22zm-12 1l5 15h-1l-6-12 2-3zm12 29l5 16h-1l-7-10 2-1v-2l1-3zm-391 5l3 1-2 4-1-4-5 10-1-7 6-4zm402 13v28h-1l-11-19 4 2 3-1 5-10zm-408 6v5l-5 10-1-4 6-11zm409 24l11 24v7l-4-3q-11-9-7-28zm-402 78l3 5 2 2-5 15v-22zm-3 35l2 1v22l-6-16 4-7zm-10 17v4q-11 8-6 32-9-9-6-29l4-6 8-1zm444 4v13l-3 2-3-8 5-3-4-1 5-3zm-431 10q7 7 5 24l6 11v19l-1-1-3-1-3-29-3-1-1-22zm-6 42l5 16h-1l-4-16zm12 12l3 5 2-1v8l-1-1h-2l-2-11zm-6 21l5 13h-1l-4-13zm12 12l5 10-3-2-2-8zm-6 10l5 15h-1q-7-5-4-15zm12 23l5 14-3-2-2-6-1 2-2-3h2l1-5zm6 36l6 11-1 5-3-5-2 1v-12zm389 49v5l-5 10-1-7 6-8zm-6 17v6l-5 10-1-5 6-11zm-341 24l5 14-3-2-2-12zm12 21l7 14 2 2 2 7-3-2-8-21zm329 38l6 4 2 2 4 3v6l-7-9-10-2 1-2 4-2zm-293 10l11 6-1 6-7 2q-7-3-3-14zm306 45l7 11 2 2 4 10 4 3 2 3 22 12h19q3-8 17-6v4l-12 6-1 2-35-1-1-3-11-3-1-11-5-3-1-3-5-1-1-11-5-1 1-10zm-414 12l4 3 1 4h-2l-4-2 1-5zm703 29l15 6h-5l-10-6zm-665 6l12 6h-2l-10-6zm82 69l5 4v22q-9-8-5-26zm5 28v6l-5 10-1-5h-2l2-4 1 3 5-10z" fill="#f6df63" stroke="#f6df63"/><path d="M601 222l5 3h1l6 7 3 2 2 4v2l-16-13-1-5zm24 18l5 4v2l-6-1 1-5zm12 6l5 4v2l-6-1 1-5zm-58 138l3 3-1 2-2 1-3-3 3-3zm117 66l4 3-5 7-10 4-1-2 6-11 1 2 5-3z" fill="#f9fcde" stroke="#f9fcde"/><path d="M842 228l4 3 2 3 2 2 2 11 36 71 3 12-3 1 9 17-3 1 6 17v25l3 5-3 1q2 12-5 16l-1-2-3 2-3-17-6-11v-31l-12-29v-24l6-1-2-6h-10l-5-9-13-6v-15l-11-3-9-20 14-2 2-11zm11 30l2 13 8 4 1 1-8-16-3-2zM529 533l3 3 2 35-2 4h-2l-1-42zm0 44l5 11v37l12 20 1-2 6 13-1 3-24-40 1-42zm116 71l14 6h-4l-10-6zm-86 13l6 13-4-1-4-7 2-5zm21 35l7 2 17 18 2 7-26-27zm267 72l3 1-13 5v-1l10-5zm10 7l1 6-1-1h-9l9-5zm-432 5l9 6h-1l-8-6zm200 31l5 16h-1l-4-16zm383 41l2 1-31 17-1-2 3-4h-2l29-12zm-58 18l15 1-5 3-1 2-9-6zm-319 13q9 10 5 34h-1q-9-11-4-34zm-157 17l3 1 3 9-3 2-5-5 2-1v-6zm-43 12l9 1-4 5-4-2-1-4zm155 0l7 1-10 5-1-2 4-4zm21 1l5 13-4-3-1-10zm-38 12l1 3-5 2-1-2 5-3zm-17 7l1 4 4 1-16 13-1-4 12-14zm170 4l4 4 6 15-1-1-3-1-4-10 1-2-5-2 2-3zm-118 6l1 1-4 9-1-3 4-7zm3 0l1 1-2 1 1-2zm30 1l5 9-7 3 1-4 1-8zm-102 11l1 1-20 19 9-15 10-5zm173 2v14h-1l-1-4-4-2 3-4h1l2-4zm27 4l3 3 2 3-2 1v3l-2-4-4-2 3-4zm-98 14l7 16 4 4 9 14 3 2 3 4 3 2 8 10q14 2 19 13l2 7-5 7-9 3v-1l7-5 1-3h1l-5-12-6-2-2-5-23-3-2-9-10-13v-13l-5-16zm78 6l5 12-3-2-2-10zm-205 2l1 2 1 1-15 11 13-14zm-182 14l7 1-15 5v-1l8-5zm151 7l-1 2-1 3h-3l1-3 4-2zm79 3v2l-5 10-1-3 6-9zm-204 1v2h-1l1-2zm-5 7l1 1-8 5-1-2 8-4zm119 17v4l-5 3-8-4 13-3zm-18 3v14h-1l-1-4-4-2 3-4h1l2-4zm78 14v2l-5 10-1-3 6-9zm162 14l5 1-15 5v-1l10-5zm-24 4l1 2 3 1-15 5-1-2 12-6zm45 28l5 4-15 6 8-9 2-1zm-257 4l13 1-8 5-3-4h-3l1-2zm-55 12l13 1-4 2-2 3-4-2v-2l-3-2zm-9 11l-1 2-2 5h-5l2-4 1 3 3-5 2-1zm-10 19l4 3-2 3-3 2-1-2h-2l4-6zm-4 18l2 1-3 5h-3l4-6zm-3 12l11 4v2l-6 1v1l-5-8zm5 34v2l-3 6h-7l10-8zm-12 69v5l-5 10-1-4 6-11zm3 29l3 2 2 10 16-6h19l17 12 14 1-11 17-14 2-1-2h-2l2-10-6-2-3-11-3-1-6 4v2q-16-2-21 5l-4-11-5 2 2 4h-4q-7-3-4-14l4 2h2l3-6zm183 18l8 1-6 6-29 59q-12 3-15-3l-12-41 4 2 12-6q2 8 15 6l15-13 6-10 2-1zm-194 54l3 1-1 3 6 11-5 4-3-1-4 3q-4-17 4-21zm-3 29l4 1h1l-6 12-6-2 7-11z" fill="#a15947" stroke="#a15947"/><path d="M883 223l3 5 2 2-2 4-4-2 1-9zm-6 9l5 13h-1l-4-10-1 3-2-3 2-1 1-2zm12 4l2 4 3 3-5 3v-10zm-3 16l4 1-1 3-1-3-5 10-1-7 4-4zM469 361q9 10 5 34h-1q-9-11-4-34zm17 18v8l-5 3-1-4 4-3 2-4zm427 27l5 11-5 3 4 1-4 2v-17zm-432 3l5 16h-1l-4-16zm6 36l3 5 2 2v21q-9-9-5-28zm-12 3l5 10-2-2-4-1 1-7zm6 15l5 16h-1l-4-16zm19 89l4 3 1-2 5 9v28l-4-3-2-24-6-9 2-2zm11 53l3 3 4 16 2 2 2 3 1-4 2 5-3 1v6l-4-2-7-30zm12 36l3 3 3 5-5-2-1-6zm24 26l11 20 1-2 5 13-10-9-7-22zm36 59l17 16v7l-17-23zm322 12q14-3 18 4l7 15-3 4-8 5q-9 8-7 28l-6-7q3-22-6-31l5-9h1l-1-9zm79 78h55l5 4 1 2h-43l-6 4 2 2h-16l2-5-8-1 8-6zm86 6h41l5 4 1 2h-37l-10-6zm102 6q23-4 33 6h-23l-10-6zm54 6q19-3 27 6h-17l-10-6z" fill="#f8f172" stroke="#f8f172"/><path d="M860 240l4 2v12q-8-2-6-12l2-2zm5 19q6 4 5 16h-1l-4-16zm6 18l6 13-1 3-5-16zm12 24l11 28h-1l-11-22 1-6zm18 58l4 1h1l2 12-2 1v10q-9-7-5-24zm22 31l5 2 2 8h-1l-6-10zm-16 31q10 12 5 40h-1q-10-13-4-40zm17 45v17l-6 5 2 4 4 4 2 2 4-1v2l-3 5-8 1-7-19h2l2-1 2-4-2-1 8-14zm8 2l4 2v11l-3-1-3-10 2-2zm-445 43l5 15h-1l-4-15zm431 0v24l-5 10-1-23 6-11zm-395 60l5 11v35h-1l-5-10 1-36zm389 0v18l-1-1h-2l-3-6 6-11zm-371 72l9 13 2 9h-1l-4-8-2 1-4-15zm347 13v5l-5 10-1-4 6-11zm-42 28l29 1-10 5-29 2-30 30-2 25 3 3-13-7q3-30 25-40v-2l27-17zm-257 27l21 22-23-20 2-2zm24 23l5 10 1 1-5-2-3-6 2-3zm275 10v7l-3 5h-5l3-1 5-11zm-10 5v2l-23 11 1 1-11 5 4-5 3-6 3-1 23-7zm-44 1l6 3-14 15-4-1 8-15 4-2zm-209 3l3 4-5-2 2-2zm6 5l4 12-1 2-6 2 2-3-1-10 2-3zm162 10l2 1-8 5-1-2 7-4zm5 11l3 7-3-1-6-2 1-3 5-1zm-178 31l4 2v46l-5 1-2-19 1-11-2-1 4-18zm5 73q9 10 5 34h-1q-10-10-4-34zm473 59v3l-10 3v-1l10-5zm-14 6l2 1-3 5h-2l3-6zm-11 7l1 1 1 4h-6l-1-2 5-3zm-30 18l1 1-5 6-1-2h-2l7-5zm-483 227l4 2v5l-4-1-2 1 2-7z" fill="#d17b27" stroke="#d17b27"/><g fill="#c95c27" stroke="#c95c27"><path d="M865 265l5 16h-1l-4-16zm12 25l5 15h-1l-4-15zm12 29l11 24v10h-1l-7-16 2-1-5-17zm12 54q7 7 5 25l-4-3-1-22zm6 78l6 16 1 1h-6l-1-17zm26 11l3 3 1 1 3 2-4 1-4-1-2 1 3-7zm-9 21v12l-3-3-3-1 2-5 4-3z"/><path d="M913 487q7 7 5 24l-5 10v-34zm-1 54v13l-2-2-4-1 2-5 2-1 2-4zm0 18v12l-5 10-1-11 6-11zm-12 61v5l-5 10-1-4 6-11zm-24 56v5l-5 3h-25l-12 7-2-1 10-10 34-4zm-299 18l29 29 1-2 6 13-1 2-23-25-2 1-11-13 1-5zm241 7l1 2-19 19-1 3-1-5 14-16 6-3zm-20 26v6l-4 10 9 7h-5l-5-3-1-9 6-11zm-179 15l12 16-1 2-5-7-2 1-4-10h-2l2-2zm268 3v2l-4 8-3 1-3 2-1-2h-5l7-5 1-2 8-4zm-23 11l5 1-12 6 1-4 6-3zm-228 11v2h-1l1-2zm150 5l1 2 11 3-1 3-5 1v1l-11-2 5-8zm-294 313v2l-3 5h-7l4-2 1 1 3-5 2-1z"/></g><path d="M871 271l17 40h-1l-17-34 1-6zm24 58l4 1h1l2 6-2 1v4l-5-12zm6 24l4 1h1l-1 6-5-1 1-6zm6 66l4 1h1v11l-5-12zm9 61l2 1-3 5h-2l3-6zm14 19v9l-11 25-1-27 10-3 2-4zm-443 37l2 4h3l1-2 5 13-3 1-4-1-4-15zm30 17q9 11 5 36l-1-1-3-1-1-34zm6 54l5 16h-1l-4-16zm24 50l2 3-4-1 2-2zm6 4l5 16h-1l-4-16zm323 23l2 1-7 10-1-2q-7 7-24 3l-22 14-14 22v25l-3 5h-5l7-11-5-4 2-25 30-30 29-2 11-6zm-287 28l21 22 2 7-21-20-2-9zm297 27l2 1-2 4 1 1-34 13-1-2 4-5q20-1 30-12zm-58 14v4l-6 10 4 1 14-13-14 19-4-2-2-4-4-2 12-13zm-203 1q7 4 5 17l-6 6q3 18-5 26l-1-11 5-9-5-4 11-13-6-10 2-2zm173 12l1 2 17 2-6 16h6 2l2 1-12 5-8-5-2-4-1-9h-7l8-8zm37 7l3 2-11 6 1-4 7-4zm-216 90l5 2-5 7v-9zm417 115l2 1-3 5h-2l3-6zm-321 194l5 12-4-3-1-9zm5 20v2l-3 6h-5l8-8z" fill="#ea922d" stroke="#ea922d"/><path d="M926 402l5 3 1 3-2 1v1l-6-3 2-5zm4 81v8l-4 1-2-3 2-4 4-2zm-449 27l3 2 2 10h-2l-3-12zm6 13l2 5-2 1 5 3v5l-5-2 4-1-5-3 1-8zm353 103v35l-5 10-1-37 6-8zm7 9l3 3 2 13-3-2-2-14zm27 25l2 1-3 5h-5l6-6zm-87 85l8 11h-5l-3-11zm-151 9l8 8-2 1q-2 10 4 12l-7-6-3-15zm0 20v4l-2 3-3 1-1-4 6-4zm24 6l1 1-1 4 1 1-7-1 2-3 4-2zm54 0l6 3-9 9h-5l8-9v-3zm66 0l6 4v2l-6 4 2 2 5 1-1 5h-18l12-16v-2zm-76 18l4 4v2l-6-3 2-3zm25 7l2 2-2 3h-3l3-5zm45 5l6 1v2l-11 3-1-2 6-4zm-270 268v5l-18 17v-2h-5l9-7 2-4 1 2 11-11z" fill="#981424" stroke="#981424"/><path d="M925 407l5 4v3l-5 2v-9zm-36 128l9 29 2 2 4 4 2-1v18h-1l-5-11-9-5-3-6 1-30zm-34 71l3 3q-9 5-6 22l16 23h2l1-6 14 1-3 5 3 1-6 11h-6l3-5-2-1-7 6-10-7-8-23-3-1-1-10q1-13 10-19zm45 10v2l-5 10-1-3 6-9zm-6 16v7l-4 3-1-1 5-9zm-60 2v35l-8 3 2-3q-5-26 6-35zm-12 41v4l-9 17h-6l6-12 3-2 6-7zm-24 30v4l-12 28v12l-6-11 18-33zm-179 18l6 6q14 12 20 33l-8-8h-2q-14-11-16-31zm162 27l3 2 2 3 1-4 2 5h-8v-6zm-1 15l1 3 3 1-16 8 2 3 10 2-12 16 5 1-5 3v2h-9l-2-7 5-9-6-4 3-4h3l2-4 15-7-2-1 3-3zm-133 9q20-3 29 6-16-3-22 4l1 2-1-1-10-4 4-1-1-6zm73 9v7l-8 2 8-9zm-57 3l13 6h-3l-10-6zm125 6l10 4 1 2 3 1-7 5 1 1-15 7-1-2-12 4 1 2 4 1-8 5-3-9 12-6 1-3 16-2v-2l-4-1-1-3 2-4zm-89 6l4 1-1 2 6 3v-2l-2-4h24l8 9-2 3-22 6-18-14 3-4zm30 7l-3 5h3l2-3-2-2zm-98-6l5 14-3-2-2-12zm738 69l13 3-11 5-2-8zm-260 72l1 1v4l-5 2-1-1 3-5 2-1zm-635 158l11 1-7 5v1l-3 1-1-8zm82 144l6 1-9 4-1-1 4-4zm-3 6l1 1-1 3v-4z" fill="#850d23" stroke="#850d23"/><path d="M625 201l14 15-1 1-13-15-2 1 2-2zM475 474l5 4v4l-1-3-5-2 1-3zm455 34v2l-5 10-1-4 6-8zM421 784l5 13h-1l-4-13zm9 110l8 4v3l-7-1-4 3-1 8 6 5 1 2-1-1-9-5-2-7 9-11zm173 0l3 3v4l-4-1h-2-2l5-6zm-9 9l-1 4-10 7-1-2h-4l16-9zm-78 64v8l-5 7-7 4 6-12 4-3 2-4zm-198 33v2l-3 6-2 1v-1l5-8zm150 6l1 1-3 7-3 1v-1l5-8zm-139 9l11 5h-16v-1l1-2 4-2zm157 65l6 3-5 8-1-11zm-12 12l10 1-8 4-2-5zm-48 6l22 1q-6 7-21 5l-1-6zm-31 7l2 3 3 2h-11l2-3 4-2zm-10 9l1 2 4 3-2 3-2 1-1 3v-12zm-9 32l1 1-6 11 1-2 4-10zm303 60l4 1-12 5 2-3 6-3zm5 101l1 1h-1v-1z" fill="#c89a2b" stroke="#c89a2b"/><path d="M925 477l4 3 1 3-5 3v1-10zm-37 46v28h-1l-5-17 6-11zm0 30q-2 18 9 23l3 1 6 12-1-1-5 1-1 3-9 2-8-17v-13l6-11zm18 39v2l-5 10-1-4 6-8zm-54 14l2 1q-9 4-8 17l-4 1-1 3-1-4 10-17 2-1zm6 4l6 27 6 8 5 3-5 1v5l-10-7q-10-9-8-29l6-8zm-30 30v3 26l-5 6-6 5-1-14 12-26zm58 8l1 1-2 5h-3l4-6zm3 0l1 1-1 3v-4zm-83 36l6 1-7 14-1-13 2-2zm-8 18l3 1-6 5-15 31 6 16h-1l-2-5-3 1 1 6-4 11 2 1-17 9v2l-6 3 2 3q-18-2-25 6h-14l1-2-1-9 26-1 28-13q-8-9-5-29l14-22 8-3 6-10 2-1zm-182 18l8 2 1 6h-1l-8-8zm21 22q10 4 11 19l-2 1-9-20zm148 14l13 1-5 7-1-2h-6l-1-6zm-142 7l5 8 5 3h-7q-6-2-3-11zm213 5l2 1 1 5-3 1-3 1-1-4 4-4zm-225 28l11 19-3 1-8-20zm156 0l1 3 3 2v1l-5 2v-1l-1-4 2-3zm-30 1v2h-1l1-2zm-26 1l7 2v6l-7-8zm43 0l1 1-1 4v2l-1 3-10 4-4-7 9-1 2-4 4-2zm-77 4q6 13 24 14l17-8v7q-14-1-21 6l-19-12-1-7zm77 14l5 1-12 5 3-4 4-2zm-131 19q7 7 5 24l-5 10v-34zm-61 128l1 3 5-2v2l-5 10-1-4h-9l9-9zm-60 91v2l-5 10-1-4 6-8zm-29 23l3 2 2-1 1 2 1 1-8 7 1-11zm-7 21v3l-5 7-1-4-2 1 4-5 4-2zm-131 323l4 1h1l-1 18-11-1 1-6 2 1 3-5-3-1 4-7z" fill="#750924" stroke="#750924"/><path d="M700 444l8 10-3 2 2-3-7-9zm87 186l1 1-1 3-4 2h-3l1-3 6-3zm289 204l21 1-11 5-10-6zm111 6l12 6h-5l-7-6zm45 6h25l3 4v2q-22 3-28-6zm57 1l7 3v2h-12l1-3 4-2z" fill="#c6d4b8" stroke="#c6d4b8"/><path d="M1106 834l15 6h-5l-10-6zm28 0l11 6h-21v-1l10-5zm86 8l9 4h-15v-1l6-3zM570 994v3l-5 7-1-4 6-6zm-9 14l-2 3-1-2 3-1zm-38 136l5 5-6 3v-1l1-7zm-97 24v3l-5 7-1-2 6-8zm-21 26l-2 3-1-2 3-1z" fill="#dbd4ab" stroke="#dbd4ab"/></svg>