<svg viewBox="0 0 564 564" xmlns="http://www.w3.org/2000/svg"><path fill="#15185A" stroke="#15185A" stroke-width="3" d="m346 24 2 7-1-1-4 1-1-1 4-6Zm-36 6 2 7-1-1-4 1-1-1 4-6Zm-52 12 6 3v7l-6-10Zm19 1 5 13-3-2-2-11Zm96 4 4 1h1v6l-4-1-1-4h-2l2-2Zm-168 6 4 1h1v15q-8-4-5-16Zm60 0 4 1h1l-2 6-4-2 1-5Zm66 0 4 1h1l-2 6-4-2 1-5Zm57 1 2 7-1-1-5 2-7 16 1-2 10-22Zm-93 5 4 1h1l-2 6-4-2 1-5Zm-132 5 10 8h-4l-5-2-1-6Zm-6 25 4 1h1l-2 6-4-2 1-5Zm290 7 5 1-8 7 3-8Zm-326 4 13 20h-5l-8-20Zm25 2 4 4v2h-3l-1-6Zm193 6 3 3v3l-6-2 3-4Zm112 0 1 1-8 7 3-6 4-2Zm-172 6 4 1-1 4 6 1v-6l4 2 2 7-8 3-10-9 3-3Zm46 6 2 1-7 9 1 2h-6q-8-5 4-9l6-3Zm32 0 3 3-2 3-3 1-3-1 5-6Zm108 0-2 3-1-2 3-1Zm-370 6 6 4 1 4-7-8Zm280 0 3 3v3l-6-2 3-4Zm-254 4 5 3-2 5-4-2 1-6Zm162 2-1 2-1 2-4 2-1-2 7-4Zm-192 2 7 10h-2l-5-3v-7Zm371 1 1 2-4 1 3-3Zm-194 3 7 1-4 2-1-2-3 5h-5l6-6Zm62 0 4 1-12 5 2-3 6-3Zm156 0 4 1-11 5 3-4 4-2Zm-119 1 9 5 2 7-1-1-5 1-1-1 1-4-4-2h-4l3-5Zm-185 5 4 2 3 4-3 1v2l-4-3-2 1 2-7Zm326 0q6 4-4 9v3l-6-3 1-3 9-6Zm-165 3 2 3-2 1 8 5h-2l-7-3 1-6Zm-138 3 5 1-1 5-5-1 1-5Zm164 0-2 3-1-2 3-1Zm-266 2 2 4 3 3-2 3-4-2v-2l-4-1 4-1 1-4Zm77 0v5l-3 4-6 1v-1l7-5 2-4Zm-14 4 2 1-2 5h-6l6-6Zm38 5 1 1h-1v-1Zm-18 1 2 1-7 10h3l8-7 1 2 5-1-1 2-2 5-8 2-1-2-6-1 4-10 2-1Zm129 0 11 6-2 1v1l-12-4 3-4Zm82 3 5 5-1 4h-6l2-9Zm-348 2 4 1h2l5 1-1 3-8 2-2-7Zm330 0 4 1h1v8l-4-1-1-8Zm-210 1 5 1 3 5-3 1-2 5 1 1v-3l-2-4h-3l1-6Zm53 10 1 2h-3l2-2Zm-8 2 2 1-9 11h-3l10-12Zm141 0 5 4v2l-6-3 1-3Zm-282 3 5 6-7-4 2-2Zm-6 5 6 12h-1l-7-8 2-4Zm-14 4 9 6h-1l-8-6Zm342 0 9 1-4 5-4-2-1-4Zm-233 3v4l-3 4-4 1 4-6h-2l5-3Zm354 1v3l-5 7h-2l7-10Zm-231 1 2 4h-1l-1-4Zm-252 1 3 1-3 5h-3l3-6Zm158 7-1 2-7 9h-3l6-10 2 1 3-2Zm91 2v3l1 6h-8l-1-2 8-7Zm-211 3 10 6h-2l-8-6Zm83 0 2 2 3 4-9 1 1-2 3-5Zm137 0 3 3 1 1 3 2h-13v-1l3-1 3-4Zm229 0 2 8h-1v-2l-6 1-1-1 6-6Zm-93 2q8 8 5 27h-1l-2-5-3-1 2-5 3-2-4-14Zm-384 2 6 10h-1l-5-10Zm132 7 5 4-2 3-4-2 1-5Zm-22 1 3 3v4l-2-1-4 3 3-9Zm124 5 4 1h1l2 4 3 2h-13l2-3 1-4Zm-138 4q6 4 5 16l-5 8v-24Zm196 2 9 7h-2l-9-5 2-2Zm74 1 5 2v6l-4-1-1-7Zm-237 6 2 7-1-1-4 1v-1l3-6Zm81 0 5 2v4l-6-2 1-4Zm168 0 5 2 1 10 3-1 2-4v5q-8 6-6 21l-8-3-3 5-1-25 4 2h2l1-12Zm-368 6 9 6v1l-9-7Zm115 2v5l-5 8-1-2 6-11Zm181 0 5 13-3-2-2-11Zm-24 1 5 4 3 5-3 1v2l-6-3-3-5 3-1 1-3Zm173 1 1 2 4 1-10 5 1 3-2 1v-4h-2l8-8Zm-93 2 3 3v21h-3q-5-7-3-21l3-3Zm107 5 1 2-8 8-1-2 8-6v-2Zm16 5v3l-5 7h-2l7-10Zm-41 1 4 1h1l-3 6-2-7Zm-271 3 1 11-1 10v6l-3-4 2-1-5-3q-1-14 6-19Zm-77 1 11 14-3 1-4-2-4-13Zm24 6 4 3 1 3 2 9h-8v-1l1-14Zm219 3 2 4-5 4-1-2-6 4 1 2h-2l-5-2 3-4 13-6Zm32 1v6l-5 9 5 4-1 4-4 3-1-2q-2-17 6-24Zm-59 5 5 3-2 3-2 1-1 3-2-4 2-6Zm-313 6 2 1-2 1 1 6h-1l-6-2 2-4 4-2Zm182 0 4 1-1 5-5-1 2-5Zm176 0 2 1-1 3-4 2 2 1-4 1 5-8Zm20 0 2 1-3 5-5-1 2-3 4-2Zm90 6 2 1-8 7 4-7 2-1Zm-108 16v3l-3 4-6 1v-1l9-7Zm-166 2 10 9-1 3-11-8 2-4Zm-73 3 5 4 3 5h-2l-7-2-1-5 2-2Zm-110 3 7 3-2 3-4-2-1-4Zm217 3v6l-5 4-1-1 6-9Zm-105 9 10 9 6 7 3 2 8 12-12 2-3 10-3 1v1l-12-4 6-4-6-12h-6l6-10 4-2 2-1-1-5h-5l3-6Zm74 0 10 6h-2l-8-6Zm167 0 2 1 2 11 10 1v6l-11 17h6l11-6v7l-6 12q7 4 6 18l-17 23h3l20-17v2l-12 20 2 1h-12l-2-30q-7-5-6-18l5-9-21-15h-2l-3 1 17-20 8-5Zm4 54-2 5 11 1 1-4-10-2Zm-229-51 8 9-10-7 2-2Zm124 1 1 1-2 7 1 1-13 5-9-5q14 1 19-6l1-2 2-1Zm75 1-1 4 1 1 1 1h-1l-2-2 2-4Zm-128 5 1 2 10 1-14 5-3-3 6-5Zm17 9 1 1-3 4h-3l1-3 4-2Zm74 3 7 2 4-2 1 2 3 1-11 4-7-4 2-1 1-2Zm-102 5 2 3-4-1 2-2Zm125 1v3l-5 9-1-3 6-9Z"/><path fill="#15185A" stroke="#15185A" stroke-width="3" d="M142 360h18l2 3-2 3-21 2-1-1 4-7Zm233 6 3 2v6l-4-1q-4 9-8 3l-2-3 11-7Zm-292 5 7 2 1 9-10-9 2-2Zm44 1 1 1-7 5-1-2 7-4Zm23 0 9 1 10 29-7 1-14 23-19-11 3-1 12-8q-8-7-7-22l-8 6-3-2 10-10 2 1 2 3 3 2-2 1 8 5 1-3-6-9 4-5 2-1Zm63 0 6 1-3 8-2-3-4-2 3-4Zm137 0 10 10-5 3-4-7h-3l2-6Zm-86 4v3l-5 8-1-3 6-8Zm67 1v2h-1l1-2Zm-101 7 4 2-2 4-2 1-7 15-1-4 8-18Zm83 2q6 5 5 19l-3-2-2-17Zm24 1 5 14h-1l-6-12 2-2Zm32 3 3 1v12l-4-1-4 6-4-1 1-6 4 1 4-12Zm-110 3 5 5-1 4-4 3v-12Zm-78 2 5 5 1 2h-1l-5-3v-4Zm14 1 3 3v12l-7-9 4-6Z"/><path fill="#15185A" stroke="#15185A" stroke-width="3" d="m127 402 11 3-2 3-8-1-1-5Zm49 0 4 2-2 4h-4l2-6Zm10 6 4 1-16 8 1 3h-5l-2-4 18-8Zm157 3 5 10-1-1-5-3 1-6Zm91 2 1 2-9 9 8-11Zm-228 1 4 2-1 4-4 3-1-7 2-2Zm57 30 7 2v6l-7-8Zm109 16v8h-2l-4-6h2l4-2Zm-95 5 5 14h-1l-4-14Zm-61 6v3l-4 7h-2l6-10Zm96 0v18l-3-2-3-7 6-9Zm-29 10 5 16h-1l-4-16Zm50 17-2 3-1-2 3-1Z"/><path fill="#99CCEF" stroke="#99CCEF" stroke-width="3" d="m207 30 3 3v4l-4-1-2 1 3-7Zm118 16 5 10-3-2-2-8Zm35 12v3l-3 5-2 1-1-1 6-8Zm-47 1 4 1h1l-3 6-2-7ZM205 70l4 2h1l-3 6-2-8Zm150 1 4 1h1l-3 6-2-7Zm-42 35 12 3-1 4 6 1h1l1 1 15 5h2l6 1-6 9-1-4-4-1-1-4-1 2-4-2-1 2 5 10-1-1-5-3-3-9-14 2-1-2h-3l3-5-14-6 8-1 1-2Zm-232 2 3 3-2 3-4-2 3-4Zm114 0 3 3 2 3-2 1 1 5-6 2-1-2-11 6 3 1-4 1v-2l-6 2 1 4 3-1-12 13v1l-12 5v-1l2-4-2-1 14-9 4-8 20-9 3-10Zm-31 30-2 6h3l3-5-4-1Zm118-30 13 1-1 4 1 1h-14l1-4v-2Zm201 6-2 3-1-2 3-1Zm-273 8v7l-8 3-5-5 11-1 2-4Zm147 4 4 1-1 4 7 2-2 3-4 2 1 3-2 1-1-4 1-4-6-5 3-3Zm111 4v2l-5 8-1-1 6-9Zm-390 8 8 6-2 1 6 21h-1l-13-21 2-1v-6Zm308 18-1 2h-2l3-2Zm-319 2 5 14h-1l-6-11 2-3Zm125 2 1 2 1 1-8 7v-2h-2l8-8Zm7 0 10 3-9 7-8 22v2l1 4h-2l-3 2-14 21v6l-3-5h-12l7-18 2 1 2 5 2-1q2-19 12-29l12-6 2-10v-2l1-2Zm-21 44-4 4 1 2 4-2 1-3-2-1Zm212-44-1 2v1l-1-1 2-2Zm-11 4v2h-1l1-2Zm2 3 1 1h-1v-1Zm-8 5 3 2 4 4 4 2 1-2 12 20h-2l-5 1-1 3-4 2 4 1-4 2-2-8v-2l-10-25Zm-278 2 7 3-6 3v-1l-1-5Zm193 1v16h-1l-2-5-3-1 6-10Zm111 5 3 3-2 3-4-2 3-4Zm-261 7v5l-5 10-2-2 7-13Zm293 5 7 2v8l-7-10Zm-29 10v6l-10 2-2-4 6-3 4 1 2-2Zm-363 2 3 3 2 3-2 1v1l-6-4 3-4Zm114 12 4 6h-7l3-6Zm-45 3v16l-5 10-1-17 6-9Zm-81 3 3 3 2 3-2 1v1l-6-4 3-4Zm75 27v22l-6 11v37q-9 8-6 30l3 5h-3l-6-3v-39l6-11v-31l12-21Zm72 5v11l-1-1-5-1 3-5h1l2-4Zm210 27-1 2-1 3-7 2v-1l9-6Zm-186 1 7 1-1 3 2 2h-9l1-4v-2Zm21 5 1 1h-1v-1Zm58 4 12 3 5-3v13q-4 5-16 2l-5-6-2 1-1-7h6l1-3Zm-102 13 5 9-1-1-3-1-1-7Zm318 2 2 1 1 4-3 1v-6Zm-337 13v5l-3 6h-5l8-11Zm229 0 6 9 4 2-5 1-6-1-1-5 2-6Zm-310 5 3 1-2 5-4-1 3-5Zm75 7v6l-5 7-1-5 6-8Zm121 3 9 3-9 5v-8Zm101 0v3l-3 4-4 1 7-8Zm-24 19 1 1h-1v-1Zm150 4 1 2-4 1 3-3Zm-419 1 7 8-2 1v2l-5-2 4-1-5-3 1-5Zm138 2 5 4v2h-6l1-6Zm164 5 1 1h-1v-1Zm-27 1 2 6h-9l3-4 4-2Zm-191 6 5 4v2l-4-1-1-5Zm162 5 3 3 2 7-3-2-2-8Zm-91 14v10l-5 1-1-2 6-9Zm85 9 5 5-2 3-3 2v-10Zm50 8 3 3v10l-4-1-2 1 3-13Zm-38 31 5 12-5 10v-22Zm-103 2v4l-9 11 1 1-3 1-1-4 6-9h2v-2l4-2Zm102 42v12l-5 3-1-6 6-9Z"/><path fill="#3F41CD" stroke="#3F41CD" stroke-width="3" d="m292 30 2 7-1-1-4 1v-1l3-6Zm65 0 3 3v4l-4-1-2 1 3-7Zm-14 5 4 1h1l1 18 1 1-1 3-4 2-2 1-1-19h-2l3-7Zm-88 7 3 3 2 3-7 1-1-4 3-3Zm-50 3 5 5-2 4-4-2 1-7Zm42 8 4 1h1l-2 6-4-2 1-5Zm-105 7 2 7-1-1-4 1v-1l3-6Zm7 18 5 3 2 7h-1l-6-10Zm-40 22 7 8-6-2-1-6Zm164 2 3 2-1 4-5-2 3-4Zm11 0 4 2-1 4-5-1 2-5Zm-133 4 5 5-2 3-4-2-2-3 2-1 1-2Zm84 2 1 1-11 11h-6v-1l16-11Zm98 0 4 1-1 4 1 1-7-2 3-4Zm-40 6 7 2-5 7-2-9Zm38 9 7 9h-5l-2-9Zm-137 9 4 2 1 5-1 8-6-13 2-2Zm94 0 6 3v3h-7l1-4v-2Zm174 4v2l-5 8-1-2-2 1 3-8 3 1 2-2Zm-161 2 5 3 2 3h-5l-2-6Zm53 2 1 3-1 9-6-4 3-4h1l2-4Zm7 9 4 2-4 7v-9Zm-148 7 3 3v4l-10-1 4-2 3-4Zm196 8 7 10h-1l-5-2-1-8Zm-145 2-1 2v1l-1-1 2-2Zm22 2 2 6-3 6-2 1-1-7h-2l6-6Zm-140 6 6 1-4 5-4-1 2-5Zm34 10v2l-5 10-2-2 1-2h-3l3-5 1 4 5-7Zm103 3 5 13-3-2-2-11Zm-198 1 2 4 3 3-2 3-4-2v-2l-4-1 4-1v-2l1-2Zm290 4 3 3 2 3-2 1v3l-2-4-4-2 3-4Zm117 10v2l-6 11 1 1-7-2 12-12Zm-347 1 4 1h1l-3 6-2-7Zm35 11 1 2 1 1-2 6-5-2 5-7Zm-113 6 5 10-3-2-2-8Zm168 14 1 1-9 5 2-3 6-3Zm43 0 4 3-2 3-4-1 2-5Zm-217 4 5 10-3-2-2-8Zm18 0 5 5-2 3-4-2-2-3 2-1 1-2Zm230 2 3 3-2 3-4-2 3-4Zm12 6 3 3v3l-6-2 3-4Zm84 0 3 1v6l-4-1-2 1 3-7Zm-66 24 3 3-2 3-4-2 3-4Zm-212 6 8 1 5 17 4-1v9l11 18-4 6-1-2-5 4-1 2 2 1-5 17-13 7-4 11h-5l1-2-6-9 4-2 2-4v-7h-3l9-11v-37l5-9-4-9Zm233 6 7 1-1 4 1 1h-8l1-4v-2Zm-151 6 4 1 3 9h-1l-6-10Zm187 4v2l-5 8-1-1 6-9Zm126 6v2l-2 4-5 2 7-8Zm-131 7 8 2-8 5 2 1-3 2 1-10Zm-121 23v9l-1-1-5-2 3-4 3-2Zm62 1 2 2-11 5 2-3 7-4Zm67 1 5 1-9 5-1-2 5-4Zm-218 4 7 8-8-3 1-5Zm197 0 1 2 1 1-2 3 2 2-7 1-2-1-12 6 2-3 10-5 1-2 1 4 5-8Zm-108 5-5 6-10 3v-1l15-8Zm49 2v2l5 3 1 2 2 1-4 5q-7-9-25-6 6-8 21-7Zm-268 1 4 1-1 3 2 2-8-2 3-4Zm227 0 12 6h-12l-2-4 2-2Zm-68 6 6 3-6 3v-6Zm169 0 1 1-9 5 2-3 6-3Zm-114 2-1 2 1 2 1 1-2 15 2 2-2 1-5 9-1-22 7-10Zm-105 4 2 1 6 11-5 2-2-2 1-4-9-2 3-5 1 2 3-3Zm222 0 2 1v6l-4-1-2 1 4-7Zm63 5 4 1h1l-1 4-3 1-1-6Zm-295 7 7 1-1 4 1 1-12 3-1 8-6-2v-3l-12 9 2 3 10 4 5 12-12 7-7-4 2-1 1-4 2 4 9-1-1-5-16-6-1 3 3 3-12-17 3-1-3-5 6 4 20-10-3-1 4-2 1 2 11-6Zm247 0-1 2 1 4-6 2-1-2h-2l9-6Zm-230 6 7 4v18l-9-15 3-1-1-6Zm186 0 4 1 3 7-7-8Zm-22 8 11 23 2 17-2 1 2 5 4-1 1 14-1 30 6 10 1 1-1 3-6 3 2 1-2 1v-2l-5 4-1 2 2 1-13 7-1-37q11-11 6-37l-6-8 1-38Zm-222 13 8 9-1 1-8-3 1-7Zm101 4v5l-5 8-1-2 6-11Zm159 5 3 3v4l-4-1-2 1 3-7Zm-110 38 14 17 9 24-1-1-5 2v17q8 7 8 23l4-1v17l-8 2-18-11 2-1-18-23 4-2 8-22 1-41Zm108 15 4 1h1l-3 6-2-7Zm-143 1 4 2-1 34-5-1 2-35Z"/><path fill="#3F41CD" stroke="#3F41CD" stroke-width="3" d="M283 488q6 5 5 19l-3-2-2-17Z"/><path fill="#448DDF" stroke="#448DDF" stroke-width="3" d="m345 30 3 3-1 3-5-1 3-5Zm-36 6 3 3v4l-4-1-2 1 3-7Zm-104 5 4 1h1l6 13-1-1-4 1-2-7-5-3 1-4Zm135 1 2 1v6l-4-1-2 1 4-7Zm34 0 4 2-2 4-4-2 2-4Zm-97 8 6 10h-4l-2-10Zm-42 9 4 1h1l-2 6-4-2 1-5Zm125 2 1 5 1 1-4 5-4-2 6-9Zm-143 4 4 1h1l-3 6-2-7Zm126 0 4 1h1l-2 6-4-2 1-5Zm-186 3 5 14h-1l-4-14Zm20 4 3 3v4l-4-1-2 1 3-7Zm196 5 4 1h1l-2 6-4-2 1-5Zm86 7 3 3-2 3-4-2 3-4ZM93 102l3 3v3l-6-2 3-4Zm321 6 6 3-2 3h-5l1-4v-2Zm70 0 2 7-1-1-4 2-1-1 4-7Zm-152 6 10 4 1 2h-1l-10-6Zm161 17 4 1h1l-5 8-1-2h-2l3-7Zm-122 1 2 2h-1l-1-2Zm-179 3v8h-1l-5-2 2-3 4-3Zm103 0 4 3-4 1 7 5h-2l-11-5 5-1 1-3Zm-115 7v6l-7 2 7-8Zm-69 2 4 1-1 7q-10-4-3-8Zm276 0 3 3 2 3-2 1v2l-6-4 3-5ZM75 162l7 3 2 5-6-6-3-2Zm189 0 6 3-2 3h-5l1-4v-2Zm234 2v4l-5 8-1-1 6-11Zm-425 6 4 10h-1l-3-10Zm120 4 1 1-9 5 2-3 6-3Zm-114 4 1 2h-2l1-2Zm94 3v2l-4 5-2-3 6-4Zm110 4 3 3 2 9h-1l-4-12Zm-136 13 3 1-1 5-5-1 3-5Zm-92 4 5 10-3-2-2-8Zm462 14 1 1-9 5 2-3 6-3Zm-367 2 1 5-3 5-3 1v-1l5-10Zm129 4 3 3-2 3-4-2 3-4Zm207 16 1 2 1 1-7 4 5-7Zm-78 2 6 4v30l-2 2-4-2-1-28 1-4v-2Zm-365 4 5 10-3-2-2-8Zm206 2 3 3-2 3-4-2 3-4ZM37 256l6 3-1 9-8-9 2-1 1-2Zm366 16 2 4 3 3-1 3-5-1 1-9Zm-220 4 4 1-1 7q-10-4-3-8Zm36 0 3 3v4l-4-1-2 1 3-7Zm-50 1 5 15h-1l-4-15Zm131 11 6 3v8l-6-11Zm104 6 4 2q-1 11-9 16h-3l8-18ZM61 316l5 5-2 3h-5l2-8Zm354 2 4 1-10 5-1-2 7-4Zm-227 7 7 6 2 5h-1l-8-11Zm268 13v5l-5 7-1-2h-2l8-10Zm-186 2 1 2 5-2 1 3-1 4 1 1-6 2-1-2-9 6-3 6v121l-9 23-3 1v5l-26-17 3-2 4 1 1-41-3-1 3-5v-37l3-6 3-1-1-11 2-7 4 1 1-5-3-1 3-5-2-1 3-7 4 1 1-4v-2l-2-5 2-1 1-7 12 1 11-8Zm39 8 11 6h-1l-10-6Zm28 5 9 7h-7l-2-7Zm-108 5 5 5-2 3-4-2v-2l-4-1 4-1 1-2Zm269 0v5l-7 4-4-1 11-8Zm-42 2 4 1-13 5 1-2 8-4Zm7 6 1 1-11 5v-1l10-5Zm-354 4 10 8h-5l-6-3 1-5Zm95 4v4l-6 9-9 3v-1l13-11 2-4Zm-113 1 8 9-9-3 1-6Zm375 3 5 5h-1l-4-5Zm-153 1 5 15h-1l-4-15Zm66 3 4 3-2 5-2-8Zm-272 2 5 2 2 7-3-2-2-6-1 3-1-4Zm224 34 5 13h-1l-4-13Zm12 2 5 3-1 3-5-1 1-5Zm-121 20v5l-5 7-1-1 6-11Zm133 12 5 14h-1l-4-14Zm-77 28 4 2v19q-10-4-6-19l2-2Zm6 30 4 2-1 4-5-1 2-5Z"/><path fill="#3434A7" stroke="#3434A7" stroke-width="3" opacity=".996" d="m188 37 3 1-1 3h-3l1-4Zm86 0 1 1 1 5-1-1-4 1v-1l3-5Zm50 5 5 2 1 8h-1l-5-10Zm-18 2v4l-5 10-1-3 6-11Zm62 5 3 1 1 1h1l1 3-2 1-4-1-2 1 2-6Zm-129 3 1 1-2 7-4-2-2-3 7-3Zm109 5v7l-3 2-3-4 6-5Zm92 16 3 1v3h-4l1-4ZM131 84l6 2 1 8h-1l-6-10Zm-4 8 11 18-9-8-2-10Zm-30 14 9 5 2 4-1-1-4 1-7-1-2-5 2-1 1-2Zm240 6 5 2 1-2 5 5-2 3-4-2v-2l-5-4Zm131 0v2l-5 8-1-1 6-9Zm-389 1 4 1h1l-1 5h-4v-6Zm197 22 1 3 4 1-12 5-1-1 2-3 2 1 4-2-5-1 5-3Zm-17 1 7 3-4 6-3 1v-10Zm105 2 3 1-4 5h-2l3-6Zm-177 12 7 1-7 5v-6Zm72 8 2 4 3 3-2 4-3 1v-12Zm133 5 3 1 1 5-1-1-4 1-1-3 2-3Zm-175 9 4 4v3l-2 1 2 1-4 2-1-3h-2l3-8Zm187 3 3 1 1 5-1-1-5-2 2-3Zm-331 9 9 8h-3l-7-3 1-5Zm130 6 1 1 1 1 1 1-6 4-1-1 2-3v-2l2-1Zm-46 2 4 2-1 2-4 2 2 1-2 1v-2l-4 2-1 3-1-5h-2l9-6Zm372 36 5 4v2l-6-3 1-3Zm-248 6 12 2v3l-12 1 1-2-1-4Zm224 18 1 1-11 5v-1l10-5Zm6 6 1 1-8 7 3-6 4-2Zm-102 17 4 1h1l-5 10-2-9 2-2Zm-220 1 3 3 1 1 3 2-4 1v2l-5-2-1-3 3-4Zm-155 1 1 1 1 5-1-1-4 1v-1l3-5Zm176 1 1 8 3 2h-6q-7-3-1-6h1l2-4Zm306 2v2l-2 4-5 2 7-8Zm-167 1 5 4-1 2-4 1v-7Zm179 25 5 2v3l-5 1v-6ZM43 316l5 10-3-2-2-8Zm378 2 6 1-4 5-3 2v4l-11 7-1-7-5 3 1-4 7-4v-2l3-1 1 2 5-3 1-3Zm-271 6v3l-5 3v-1l3-4 2-1Zm115 10 5 4-3 4-3 1-2-2 3-7Zm156 2 4 4 1 3-5 7-2-8 2-6Zm9 12 2 1 1 5 5-2v10l-2-2-4 1v5l-5 2-1-8-13 6 17-18Zm-275 4 1 1 1 1 2 1-3 2v-2l-3 5h-11l13-8Zm-13 14 7 1-10 5-1-2 4-4Zm-12 6 7 1-14 5v-1l7-5Zm302 0 5 4 1 9-3 4-8 3-3-7 2-1 4-11 2-1Zm-323 6 5 4v2l-4-1-1-5Zm36 2 4 9h-2q-8-3-3-6l1-3Zm239 3v2h-1l1-2Zm28 1 7 2v3l-7 1-3-1 1-4 2-1Zm-277 1 2 1 1 7-1-1-7-2 5-5Zm-14 11 10 6-5 1v4l-5-11Zm20 5 3 5-6 5 5-6-2-4Zm291 1 5 3v1l-6 2 1-2v-4Zm0 7 1 5 1 1-12 10-1-2 11-14Zm-18 3 1 2 1 1-6 4v-1l4-6Zm-282 1 1 1h-1v-1Zm138 120 9 7h-2l-9-5 2-2Z"/><path fill="#F7F9FC" stroke="#F7F9FC" stroke-width="3" d="m207 36 3 3-2 3-4-2 3-4Zm149 1 3 1 1 13-5 3-1-14 2-3Z"/><path fill="#F7F9FC" stroke="#F7F9FC" stroke-width="3" d="m243 42 3 3 2 15 4-1 4-5 2-1-1-4 4-1 6 17h1l4-17 4 2 2 10h10l2-18 4 2 2 22 4-1 9-23 3 3 2 21h2l4-23 3 1 9 16 4-1 3-11 3 3 2 21 4-1 4-11 2 1 2 17 7-5 5-18 3 1 3 28 4-1 8-22 3 1 3 16 8-6 4-11 3 1 1 10q-8 6-6 24h6q2-15 12-22l6 1q-8 8-6 27h6l4-12 8 4-12 19v7h12q2-17 15-23l2 1 1 4-3 6-8 3-7 27h6l3-10 15-10v2l-9 24q-16 3-19-7l-2-11-12-9-1-9q-23 4-33-5l-1-4-36-15q-22 3-30-6h-43l-11 6h-25q-7 8-24 6-5 7-18 6l-24 15 6 7-7 2 1-2-2-4-14 13-2 14-3 3-9 2 4 9 8 2q2 12-3 17h-35l1-4-5-2-5 4-2 14-11 7v6l-12 23v18l-9-6-20-33-2 1-10-14 3-1 12 11 8 9h1l6 7 10 2v-2l-11-20 6-2 6 4 2 2 4-1-1-5h-2l-8-15-2 1-5-14h1l3 4 8 3h1l6 7 7 2 4-2-1-4h-8l-9-29 3-1 6 11 9 5 2 2 4-1-1-5h-2l-20-34h2l15 14 1 2h5l-6-20 2-3 3 1 4 9 9 5 2 8 4-1-6-24-11-15 3-1 9 8 7 15h10v-13l-12-19 2-3 7 6 18 34h1l2-15-9-8q-5-7-3-20l2-3 7 6 5 11 4-1q3-22-6-31l2-3 3 1 4 9 9 1 2-12 2 2 9 16h5l2-24 4 2 8 22h2l5-24 3 3 2 15h2l4-29 3 1q-1 16 9 22l4-1V45l3-3Zm-67 30-2 17 5 1 1-16-4-2Zm211 6-3 11 5 1 1-10-3-2Zm-246 42-3 6h6v-5l-3-1Zm0 13-3 11h3l3-5-2-5-1-1Zm-31 11-2 4 11 8 1-10-10-2Zm16 12-2 1-4 5 4 5 2-1 1 2 14-1 3-9-18-2Zm-52 37v4l4 1v-2l-4-3Z"/><path fill="#F7F9FC" stroke="#F7F9FC" stroke-width="3" d="M274 96h33l11 6h18l11 6q15-4 19 3l3 8 21 11 3 7q7 9 26 7l1-7-5-7 8-4q5 5 4 18l5 4 2 2 2 2 2 3 1-4 2 5-21 2v11q7 3 6 16h-1l-4-8-2 1-10-19-2 1-7-15-22-16-1-3h-11l-1-6h-13l2-5q-11-12-37-7l1-2-5-4h-48l9-6Zm-33 6 15 2 2 3 1-4 2 5h-30v-1l10-5Zm230 1 2 1-2 4h-3l3-5Zm-281 5 2 1-5 7-1-2 4-6Zm30 0 4 1-2 8-11 3-1-2 10-10Zm-21 12 5 1 1 5-13 2-21 22 1 1-9 5-1-8 16-10 3-9 18-9Zm279 0 2 1-11 22-1-2q-7 3-6 14l12 1 4-12 13-5-1 2-3 7-5 3-14 28h3l26-22 1 5-18 30h12l12-14v2l-5 10-4 2q-3 15-15 23l9 1 32-29v3l-9 9-19 33-4 2h-9l1-6 5-2-12-7v-9h-2l3-6 5-2-10-5-4-10 2-1-6-12q-16 2-21-6l-2-4 5 1 11 3 5-6h2l-6-14 6-8 4-2q1-14 12-18Zm-207 6 35 1 2 5 10 3-2 3q-16-11-46-6l1-6Zm223 1 3 1 1 2-3 2-2-3 1-2ZM76 138l2 6h-2l-3-1 1-4 2-1Z"/><path fill="#F7F9FC" stroke="#F7F9FC" stroke-width="3" d="m340 139 1 1-2 4-3 2 2 4 4 4v2l-12-6 8-10 2-1Zm-75 5h44l33 25 2 11q14-2 16 10l2 2 4 1 14 17 4 1 8 23 10 10v17l-12 5 2 10 4-1 4-5q5 3 2 15l-12 14v10q-7 3-6 15l-6 2-5 8-10 8 1 1-19 9-3-1-1-3-5 2 2 10q8-2 10 4l-3 8q-15-3-20 3l-1 11 6 8v83q-9 4-6 21h4l2-1-14 18h-3l-1-52 6-11q-4-16 4-20l2-1-1-5-5-3q-3-12 4-15l2-1-1-5-5-3q3-19-6-25l-4-2h-40l-4-3q-2-14 7-18l6-3h29q6 8 23 6l1-10-4-3 1-4v-2l14-7 17-40h22l3-2 1-8-6-2q-5 8-20 6l-4-3v-22l-6-12 3 1h3l1-6 3-1 2-17-9-24-11-12-4 7q11 12 6 41h-5q-17-16-43-21l-1-3-5 2v1l-4 2-1-2 5-8v-35l-6-2-5 4-1 38-3 6h-10q-5 7-18 6l-14 12 1 1-8 6-1 3-4 2-9 18q2 13-3 18l-15-3-1-3-11 2 7 8 20 2 3 4 14 32 20 12v2l2 16h-2l-8-6-2 11-3-5-14 3 1 1 3 2-5 1-5-1 5-10-6-5-1-3-5 2q2 8-3 10l-8-1 5-13-5-3 5-1-6-10-4-1-2-4v-3l-6 3 2 3 4 3h1l5 9h-2l-14-16 4-3q1-12-6-14v-72l-2-2 8-2 12-21 4-2h2l3-5v-2l13-11 27-12h13l16-7-1-5h-8l-3-14 7-4Zm46 18-4 2-1 3 12 7 18-2v-1q-5-12-25-9Zm-68 18-21 15-12 21 1 21 5 3 7-3 5-8-2-1-4-5q5-28 24-40l-3-3Zm-54 36-3 6h4l2-5-3-1ZM68 156l4 4v2h-3l-1-6Zm-18 7 3 1v3h-4l1-4Zm462 0 3 1 1 7-1 2h-4l-1-7 2-3ZM62 175l7 6 3 11h-2l-8-17Zm79 5 3 3-5 14-1-14 3-3Zm288 12q12 6 9 29l-4 1-8-18v-9l3-3Zm30 0 3 3 2 3h-5l-3-3 3-3Zm-323 6 2 1v20q-9 5-6 22l6 9v22q7 5 6 19l-1 2h-4l-1-12-12-20v-47l10-16Zm-87 18 29 28 2 2 4 1 2 11-3 2-4 6-4-13-6-1q-5-16-18-24l-2-12Zm462 6 5 1-21 29h-9l3-11v-2l6-4v-2l16-11Zm25 1 3 1v3h-4l1-4Zm-98 3v7l-4 1-2-4 6-4Zm-407 2 27 24 2 3 9 4 9 23v11l-2 1-4-6-6 1 6 14-6 8 6 5-4 11-2 1 7 20 1 1-2 11-17-14 1-3 9 5 1-3-6-15-11-9-2 1-10-14 3-1 16 17 10-1-1-5-4-3-2 1q-12-10-16-26h2l7 4 8 10 1 2h5l-2-11-22-34 4-2 1 1 4 9 20 13 1-3q-11-6-12-21l-12-3-5-12-2 1-10-16Zm496 7-1 2-10 18-11 6-10 15-8 3-1-8 4-1 6-12 8-2 23-21Z"/><path fill="#F7F9FC" stroke="#F7F9FC" stroke-width="3" d="m26 247 7 6 2 4-1-1-9-6 1-3Zm410 5q6 4 2 18l-3 6-9-3 1-4 2 1 7-18Zm96 0 2 1-15 23-18 18h-3q-4-14 4-18l14-6 3-10 13-8Zm-55 30 15 8-3 4-8-3-2 1-5-7 3-3Zm-445 1 3 1v3h-4l1-4Zm499 0 2 1-2 4h-3l3-5Zm-234 5 3 3q-2 14 6 19v23q-9 7-29 3l-7-3 4-9 2 1 1 5q12 3 16-3l1-36 3-3Zm162 0 3 3v3l-5-1-1-2 3-3Zm64 0 4 1-5 3v5l-16 16-2 10h3l15-10v5l-6 9-12 5-6 15 4 1 19-11v3l-32 20 1 1-15 13-2-8h-16l5-3 1 2 3-5q14 2 18-6l2-4 4-2h2q1-16 12-20l-5-3 2-1-9-24h2l2-1 2-4 2 11 23-18Zm-101 6 4 2-1 4-5-1 2-5Zm-275 6 3 6h-2l-3-4 2-2Zm268 6 5 1 2 5 7 1-2 4-1-4-3 5h-15l3-10 4-2Zm33 0 8 3-2 3-10 2 2 4 4 3h1q7 3 5 15l-12 17v13h-3l-3-11 5-9 1 2q-2-10 4-12l2-1-1-5-5-3-4-13 8-8Zm-291 6 2 1 5 11 13 7 3 11h-2l-6-11-8-1-5 6-3 1 1 5 5-2v2l-6 9-17 7-10 14-12 4-3-1-1-7-4-1 17-2 4-11 19-9 7-19 1-14Z"/><path fill="#F7F9FC" stroke="#F7F9FC" stroke-width="3" d="m495 324 3 2-3 4-3-1 3-5Zm-107 12 2 1-6 8-6 3v-1l-1-4 11-7Zm-206 6 9 2v3l-3 1-3-4-3-2Zm188 6 2 1-9 11h-9l1-3 15-9Zm-285 6 23 10v2q-19 2-24-9l1-3Zm150 6 2 1 2 7-2 4q-12 3-15-3l-1-2 2-6 5 3 2 2 4-1 1-5Zm125 4 2 8 4 4 2 2 8-4 5 5 2 4-5-2-1-3-9 7-1 3-2-1-3 2q0-15-8-21l6-4Zm-144 1v3l-3 4-3 2q2 15-6 21l-1 67-5-1-1-65-11-1 2-5q11 1 14-6l8-16 4-2 2-1Zm-131 1 5 3-2 3-4-2 1-4Zm371 0v3l-5 2-1-1 6-4Zm-291 18 4 3 5 10-1-1-4-3-2 1-4-8 2-2Zm60 24 3 3-1 21-5-1v-20l3-3Z"/><path fill="#F7F9FC" stroke="#F7F9FC" stroke-width="3" d="M191 409v3l-8 8-3-2 3-5 8-4Zm178 11 3 3-1 21-5-1v-20l3-3Zm-19 24 4 2v9l-6-2 2-9Zm-128 10v2h-1l1-2Zm131 2 1 1v3l-1-4Zm-132 1 1 1v33l-6-2 1-30 4-2Zm134 5 2 1 3 14-4 2-1-17Z"/><path fill="#687CE4" stroke="#687CE4" stroke-width="3" d="m243 36 3 3v4l-4-1-2 1 3-7Zm132 0 3 3v4l-4-1-2 1 3-7Zm16 34 7 3q-4 9-8 3l1-6Zm17 4v4l-5 10-1-3 6-11Zm-20 4 2 7-1-1-4 1v-1l3-6ZM139 95l4 1h1l2 6-2 1v3l-5-11Zm137 7 7 1-1 4 1 1h-8l1-4v-2Zm12 0q17-4 24 4v2h-25l1-4v-2Zm123 6 3 2-1 4-5-2 3-4Zm-152 5 12 2-1 3 11 8h-5l-16-6-2 1 1-8Zm41 1 5 2-6 8-6 2 7-8v-4Zm30 6 4 2 2 6-6-5v-3Zm30 0 6 3-2 3h-5l1-4v-2Zm-161 9 8 3 3-2v9l-5-1-1 2-6-2-1-5 2-4Zm-7 1 1 3-4 5-2 1-3-1 8-8Zm84 2 4 1-14 5v-1l10-5Zm17 0 17 6-4 1v1l-5-2-1 3-5-2 4-1-6-6Zm75 0 5 3 1 3-2 1v1l-8-2h-3l5-3 2-3Zm-175 7 5 9-5 2-3-5 2-1 1-5Zm261 4v2l-4 2 1 3 1 1-4 5-4-2 4-10 6-1Zm-307 1 9 1-3 5-9-2 3-4Zm319 0 4 1-7 9-1-3 4-7Zm-286 4v2l-6 9-5 2-1-5h-2l14-8Zm306 0v2l-5 8-1-1 6-9Zm-371 1 4 1h1l-1 5-5-2 1-4Zm270 0 5 4h1l6 9h-7v-1l-1-5-4 1v-8Zm-244 7 3 3-2 3-4-2 3-4Zm180 6 14 9-5 3v-1l-1-5-8-6Zm-189 12 13 1-1 4v2l-4-1-14 30v55l8 11-8 1 5 9-5 8v37l-9 11-3 2 2 4 4 1-3 5-3 1 6 10-6 1-23-11 2-1q-7-7-3-24l6-11v-37l6-11q-4-26 6-36v-31l20-28 4-2Zm219 0 8 6 1 3-5-3-1 2-6-4 3-4Zm-290 1 5 15h-1l-4-15Zm17 4v3l-2-1 2-2Zm2 1 1 1 4 7-1 2-4-10Zm80 0 3 4 4 2-5 1v1l-6-4 4-4Zm34 12 7 1-2 5-1-2-4 2-2-4 2-2Zm-20 2 1 3-4 13-3-1v-5h-2l8-10Zm-115 4 4 1 3 7-7-8Zm131 0 2 2-2 5-3 1v-3l3-5Zm201 0 5 2-1 4h-5l1-6Zm-13 4 5 2h1l-2 6-4-2v-6Zm49 4 5 14h-1l-4-14Zm-265 9v2l-3 5-3-1-3-4 9-2Zm85 7 3 1-16 12-2-1 9-9 6-3Zm-97 4v6l-3 2-3-4 6-4Zm342 6q5 3 0 5l-4 2-1-1 5-6Zm-320 2 2 7-1-1-3 1-7 15-1-10 10-12Zm231 4 5 4-1 4-4 2-3-7 2-1 1-2Zm30 1 4 1h1v7l-4-1-2 1 1-8ZM73 262l5 2-2 6-4-2 1-6Zm96 1 5 3-4 9 4 12h-1q-8-8-4-24Zm224 1 3 3-2 9-4-2 3-10Zm-350 2 11 18-9-8-2-10Zm240 10 6 1-1 5h6l1 7-2 3-11 2-6-3-1-3-4 1v-1l6-9 6-3Zm-96 5 1 2 4 3 1 2-1-1-6-2 1-4Zm216 0 4 1h1v13l-4-1-2 1v-7h-2l3-7Zm24 0 4 1h1l-5 8-1-2h-2l3-7Zm-126 11 5 13h-1l-4-13Zm-155 2 4 3v5l-4-2-1 2-1-6 2-2Zm379 12 3 3-2 3-2 1-1 3-1-4h-2l5-6Zm-350 1 3 5 2 2-2 4-2 1-1-12Zm221 2 1 3 1 1-10 5v-1l2-4 1 2 2-3h-2l5-3Zm-173 5 7 10h-5l-4-7 2-3Zm-67 3v2h-1l1-2Zm252 4 1 3 1 1-14 7-1-2 7-8 1 2 5-3Zm-66 1v2l-2 4-5 3-3-1 10-8Zm42 7 2 2-6 4v-1l2-4 2-1Zm-217 1 5 3 2 5-7-8Zm340 0 5 1-7 9-1-7 3-3Zm-342 6 3 3-2 3-3 2-1-5 3-3Zm42 6 3 3 2 3-7 1-1-4 3-3Zm123 5v5l-6 2v-1l4-5 2-1Zm-192 1 4 1-11 5 3-4 4-2Zm-57 6 10 10 17 6 2 6 9 2v-1h-2l3-1 1 2 1 1-5 4-8-5v2l2 4-5 1-3-1-1 2-13-14 1-4-12-10 3-4Zm126 0 5 1-7 21-1-3 4-12-4-3 3-4Zm16 4 1 3h-1v-3Zm-65 8 4 1 1 5v2l6 11-3-1h-4l-2-12-4-1 2-5Zm240 0 4 3-2 3-4-1 2-5Zm-67 6 1 1-2 10-3-5h-2l2-4 4-2Zm56 0 3 1-2 5-4-2 3-4Zm-74 4 5 13h-1l-4-13Zm-204 9 5 8 1-2 11 17h-2l-8-5-9-13h1v-2l1-3Zm101 6v6l-5 10-1-5 6-11Zm18 7 1 4 1 1-2 5-5 1v-1l5-10Zm-47 16 1 1-2 4 1 1-7-2 7-4Zm-16 6 3 3-2 9-4-2 3-10Zm166 4q9 6 5 25h-1q-8-8-4-25Zm-106 26 3 1v6l-4-1-2 1 3-7Zm124 7q7 6 5 22h-1q-7-7-4-22Zm-1 29v3l-5 3v-1l3-4 2-1Zm-71 10 5 5 1-2 5 12-1-1-4 1-6-15Zm-30 12 17 20h-2l-17-18h1l1-2Zm36 7 4 1h1l-1 6-5-1 1-6Z"/><path fill="#E4E8F6" stroke="#E4E8F6" stroke-width="3" d="m291 36 3 3v4l-4-1-2 1 3-7Zm66 0 1 1h-1v-1Zm-132 6 1 1h-1v-1Zm48 0 3 3v4l-4-1-2 1 3-7Zm48 0 1 1h-1v-1Zm-66 6 3 2-1 4-4 3-1-6 3-3Zm-61 1 3 1 1 5-1-1-4 1-1-3 2-3Zm35 1 5 13-3-2-2-11Zm77 0v5l-5 8-1-2 6-11Zm48 0 1 4 5-3v6l-5 7-1-4-4 2-1 3-1-4 6-11Zm15 4 1 1h-1v-1Zm-193 1 3 1 7 19-3-2-6-13-2 1-1-3 2-3Zm89 4 4 1h1l-2 5h-2l-1-6Zm-106 1 1 1h-1v-1Zm228 0 1 1h-1v-1Zm18 0 1 1h-1v-1Zm-39 2v5l-5 8-1-5 6-8Zm-225 4 3 3-1 2h-4l-1-2 3-3Zm294 19 2 1 1 7-1-1-7-2 5-5ZM111 96l9 4v5l-9-9Zm148 3 10 4-5 3v2l-4-1-1-4-1 4-3-4 3-1 1-3Zm-114 5 7 10 4-1v8l-2 4h-2l-7-21Zm35 1-5 6 5 6-6-5 6-7Zm288 1 1 2 1 1-7 9-6 5-1-2 12-15Zm-263 2 14 1-14 11 5 1-5 2-1-3h-2l3-12Zm-100 6 1 1h-1v-1Zm66 0 3 3-2 3-13 7 12-13Zm235 0 11 1-4 5-6-1-1-5Zm78 0v3l-3 5-1-2h-2l2-4 4-2Zm-343 6 3 1v5h-6l3-6Zm121 0 12 6-4 1 1 5 3 1-11 4-5-2 1-4 2 1 3-6-2-6Zm233 6 1 1h-1v-1Zm-427 1 3 1v3h-4l1-4Zm73 6 1 1 2 5-3 5h-3l3-11Zm333 2v3l-3 6h-6l3-2 1 1 5-8Zm-137 3 4 1-11 9 1 2 11 6 1-2 14 3-3 6 12 17h-5l-7-3-1-3-10 1-1-7-33-23q19 2 28-7Zm-264 2v2h-1l1-2Zm88 8 1 1 1 7 1 1-7 9-1-10h-5l8-5v-2l2-1Zm295 0 6 14-5 3-2-9h-5l6-8Zm-394 3 6 5-2 4-4-9Zm64 5 2 1-3 10-4-2-1-3 4-5 2-1Zm283 3 5 11-3-2-2-9Zm-336 1 3 2-4 1v3l-2-3 2-1 1-2Zm71 1v2l-3 4-9 1v-1l1-5 11-1Zm-93 1 1 1h-1v-1Zm163 0 2 12-12 15-7 3 10-11 7-19Zm299 0 1 1h-1v-1Z"/><path fill="#E4E8F6" stroke="#E4E8F6" stroke-width="3" d="m74 163 6 5h-4l-2-5Zm-25 1v2h-1l1-2Zm5 0v2h-1l1-2Zm367 0 5 13-3-2-2-11Zm-370 3 1 1h-1v-1Zm63 1 6 4-9 8-3 12 6 1-3 5-8 4-16 56-4-12 1-4v-2q-2-13 5-15l-2-2-3 2 13-33 11-7q-2-12 4-16l2-1Zm168 0 2 1-7 9-1-4 4-5 2-1Zm231 5 1 1h-1v-1Zm-12 2 2 1 1 2-12 11 9-14Zm-80 2 5 9h-2l-3-9Zm77 12v3l-5 8-1-2 6-9Zm-425 1 3 2-3 1 5 3v2l-4-1-1-4-1 3-2-3 2-1 1-2Zm399 8 8 4-3 2-4-1-1-5Zm-184 3v4l-5 9-1-3 6-10Zm-245 9 7 6-2 1v3l-5-10Zm146 6 3 1-2 5h-4l3-6Zm114 0 12 6h-2l-10-6Zm217 0v3l-3 5-1-2h-4l8-6Zm-382 3v18l-3-2-3-7 6-9Zm399 3 1 1h-1v-1Zm-2 2v2h-1l1-2Zm5 0v2h-1l1-2Zm-3 3 1 1h-1v-1Zm-368 1 5 3v4l-3-1-8 6v-1l6-11Zm53 15v3l-11 23-1-5 12-21Zm315 4 2 1-4 6-1-2h-2l5-5Zm-479 5 10 6h-2l-8-6Zm13 0 6 4 1 6h-1l-6-10Zm361 2 1 4-6 9-1-2 6-11Zm-348 5v24l-11 28-1-5h-3l3-8-2-4h2l1-3 4 3 1-12-6-12h2l4-1 6-10Zm43 2 5 11-3-2-2-9Zm384 9 2 1-10 5 2-3 6-3Zm-133 6 2 1-10 5 2-3 6-3Zm-345 6 1 1h-1v-1Zm-2 2v2h-1l1-2Zm5 0v2h-1l1-2Zm462 1v4l-5 8-1-3h-3l3-4 1-3 5-2Zm29 1 1 1 1 1 1 1-8 7 2-6 3-1-3-1 3-2Zm-494 1 1 1h-1v-1Zm240 1 3 3v3l-6-2 3-4Zm151 0 2 1v6l-4-1-2 1 4-7Zm-381 2 5 12-3-2-2-10Zm168 2 5 11-3-2-2-9Zm-70 1 1 1h-1v-1Zm-89 1 6 3 2 6-8-9Zm99 8 7 10-2 1v3l-8-9 2-1 1-4Zm121 4 2 2 6 9 13 1h1l-3 11-14 1-1-6-5 3-1-19 2-2Zm-89 12 3 1 3 5-3 1v2l-6-4 3-5Zm-111 1v16h-1l-2-4 2-1-4-2 5-9Zm-23 2 8 9-9-3 1-6Zm450 0 2 3-2 1 5 3-11 13-1-11h2l4-3-1-2 2-4Zm-273 3 10 6h-2l-8-6Zm219 3 5 5-1 4-4 3v-12Zm-365 3 4 2-1 4h-5l2-6Zm311 0 4 1-4 7-1-2h-2l3-6Zm-147 6 8 3-5 4-3-7Zm78 0 5 1-1 4 1 1-9-2 4-4Zm-278 1 3 1v3h-4l1-4Zm106 1v5l-3 4-4 1-1-2 6-4 2-4Zm31 2 3 2-3 1 5 3 1 2-1-1-8-4 2-1 1-2Zm11 4v2h-1l1-2Zm-117 4 25 12h-4l-11-6-1 2-4-2-2 12-8-5 2-1 3-12Zm279 0 2 1-9 4 1-2 6-3Zm-210 6 4 1-8 6-2 8-8 3 6-7 6-10 2-1Zm78 0 1 1-1 4v3l-4-1 3-1-4-2 1-2 4-2Zm6 0 4 2 2 3 1-3 1 4-2 1-6-4v-3Zm270 0 2 1-1 3-4 2h-6l9-6Zm-145 4 1 1 1 1 4 1-7 5v1l-3 1-4-7 8-3Zm-244 6 3 2-3 1 5 3v4l-10-7 4-1 1-2Zm336 1 10 2-5 3 1 2-1-1-8-4 3-2Zm-227 1 4 2 3 4h-11l2-3 2-3Zm-35 24 4 1-1 4 1 1-7-2 3-4Zm-14 3 5 5-2 4-4-2 1-7Zm23 17v8l-8 2 7-8 1-2Zm31 21 4 1h1l-1 6-5-1 1-6Zm128 7 3 3v4l-4-1-2 1 3-7Zm16 5 4 1h1l-2 12-4-2 1-11Zm-168 18 4 1h1l-1 6-5-1 1-6Zm162 3 3 8-3 4v-12Z"/><path fill="#0F0E1A" stroke="#0F0E1A" stroke-width="3" d="m347 24 1 1v1l-1-2Zm-36 6 1 1v1l-1-2Zm-48 12 1 1v1l-1-2Zm2 9 1 2h3l1-2v2l-4 1-1-3Zm66 0 1 2h3l1-2v2l-4 1-1-3Zm-82 2 1 1h-1v-1Zm140 1 1 1v1l-1-2Zm-94 3 1 2h3l1-2v2l-4 1-1-3Zm-10 2 1 1h-1v-1Zm30 0 1 1h-1v-1Zm-110 2 5 9q-4 6-8-3l2-1 1-5Zm14 4 1 1h-1v-1Zm-30 12 1 1h-1v-1Zm186 0 1 1h-1v-1Zm-198 1 3 3-2 9-4-2 3-10Zm210 6 3 3-2 3-4-2 3-4Zm-230 3 1 2h3l1-2v2l-4 1-1-3Zm-16 8 1 1h-1v-1Zm264 0 1 1h-1v-1Zm40 1 1 1-2 1 1-2Zm-22 5 1 1h-1v-1Zm-185 7q14-2 20 4v59q-8 6-25 3l-11 6v-1l-1-5-5-3-1-15-5 2v1l-7 2-5-2-1-3-5 2-3 4-8 4-1 7 6 2-9 11h-2l3-6 2-1-1-5-5-3v-3l-6 1 1 5 4 3-2 3 1 1-7 3-3-1-1-3-5 3 2 3 4 4 2 2 9 1-13 23-5-6-3 2-8 21 5 1 5-6 2 2 2 58 13 1q7 9 3 31l22 26-4 7 12 2 2 5 1 1 1 3-16 23-12 5 4 9 8 2 6 9 2 62 4-1v-49l4-4 2-1-1-5-4 1-1-3 6-8q-2-16 5-23h1l4-9 11 1 3 12-1-1-5 2-6 16v36q-10 9-6 33l-6 10 7 9 3 2 3 4 11 5 34 33 3 4 16 2 1-48-19-48h-8l-3-6v-32l6-5-1-5-5-3 7-21h41l6 4q-4 22 6 30v44l-12 31 6 9 2 26 14-12 2-4 4-2q13-1 17-11v-2l3-1 1-4 9-6 1-4q-12-11-12-32h-5v-18l-6-9q3-18-5-24l-2 1-4-11 3-5 15 1-1 5 6 4 8 26 4-2v57l4 5h2v-78l-5 2-1-1 10-13 4 12h2l2-7-7-17q-3 7-14 6l-2-2 9-16 11-5v-2l17-11-18 19-2 10 5 1 3-12 21 15-5 16 6 11 2 30q21 3 25-11v-2l31-29h5q9-14 27-20v10l-42 44-11 5-25 25-11 5-103 97q-9 11-31 8l-16-8-7-13-11-5-31-31-11-5-55-55-11-5-65-58-2-19 13 11 3 2 9 10q13 1 17 12l2 8 20 12 2 3 16 9 15-24 11-1 1-29 3-1 4-11h10l-8-11 8-2-1-5-10-9-2 1-5-8-4-1-2-4v-3l-5-3-2 1-12-22h-5l1-14 4 2 1-3-12-12v-11q7-4 6-16-11-10-6-35 8-8 7-25l5-1 10-17 8-2 1 2 10-3 3-9 4 4 1 2 11-7 3-11 5 6 4-1 1-20 23-4q-2-9 4-11Zm-33 42-1 5 5 1 1-5-5-1Zm-50 42-11 8 2 10 13-7 3-9-7-2Zm240 174-9 6-2 5 5 1 1-2 11-4 1-4-7-2Zm-219 36-2 6h4l2-4-4-2Zm10 6-16 6-2 5 23 1 1-10-6-2Zm-22 12-2 11 5 1 1-10-4-2Zm-34-306 6 6h-1l-5-6Zm154 0 4 2v4l-6-1 2-5Zm-200 5 4 3-1-1-2 1-1-3Zm244 1 4 12 10 3-2 3q-15-2-19 6h-11l-4-5 18-2-1-5-3-1-1-2 9-9Zm-133 6 3 3v3h-6l3-6Zm157 0 2 1q2 12-3 17l-3 2 2 4 4 4q-3 5-5-1l-6-2 2-1-3-5 5-10h1l4-9Zm-231 3 4 3h-2l-2-3Zm-16 8 1 1h-1v-1Zm336 0 1 1h-1v-1Z"/><path fill="#0F0E1A" stroke="#0F0E1A" stroke-width="3" d="m184 138 2 1 1 3 3 2v6l-5-6-4 1-1-3 4-4Zm201 0 15 9 11 26 6 2 9 18q-4 23 5 33l-5 4 2 4 2 2 2 11-3 5h-3l-1-12-5 1v11l-6-3-1-15-5 1 2 5h-1l-16-12-8-16 17-3 6-15-15-2-3-7 3 1 15-1-1-11-5 2v4q-14 4-18-3l1-12 6-3-1 2 2 10 10-1-1-5-5-3-1-2 7-2-1-5-11-9-1-3-5 2q2 11-3 16l-3 2 2 10h-1l-7-3q8-8 6-24l-1-3 7-1 1-5Zm-268 6 3 3-2 3-4-2 3-4Zm246 0 3 1-2 5-4-2 3-4Zm146 0 1 1v1l-1-2Zm-54 1 1 1-3 4h-3l1-3 4-2Zm-85 5 1 1-8 11q-6-3 1-6l2-4 4-2Zm127 6 1 1h-1v-1Zm-301 6 2 5-5 1-1-2 4-4Zm129 6 5 3-2 3-4-2 1-4Zm149 2 1 4 1 1-6 4v-1l4-8Zm-425 2 1 2h-2l1-2Zm13 2 2 2-1-1-1-1Zm218 0 2 1q-3 18 4 27l-3 6-7 4v-31l4-7Zm-201 8 4 9-1-1-6-3 2-1 1-4Zm-48 16 1 1-2 1 1-2Z"/><path fill="#0F0E1A" stroke="#0F0E1A" stroke-width="3" d="m379 198 5 3-2 3-4-2 1-4ZM79 208l4 7-4-2-6-2 5-1 1-2Zm442 2 1 1v1l-1-2Zm-256 6h35l24 9 10 9 2 3 9 4 9 21v15l-1-1-5 2 1 10 5 1v11l-11 22-7 5-18 12v3h-14l2-2v-50l-12-2-1-12q-17-3-21 7l-2 38-9 21h-9l-1-6-21-11-5-7-9-15v-14l6-2-1-11h-5q-3-26 10-36l8-2q11-15 31-22Zm13 6-2 9-4 3-2 5 23 1 1-4-10-4-2-8-4-2Zm-25 18-1 4 6 2v-4l-5-2Zm55 0-2 5 5 1 1-4-4-2Zm-60 6-2 5 5 1 1-4-4-2Zm72 0-2 5 3 1 3 6h3l3 5 5 1 1-4-2-2-4-5-2-1-4-4-4-2Zm-90 24-2 5 5 1 1-4-4-2Zm108 0-2 5 5 1 1-4-4-2Zm-114 18-2 5 5 1 1-5-4-1Zm12 24-2 4 11 8 1-3-10-9ZM67 224l5 7h1l5 9h-2l-11-12h1l1-4Zm460 10 1 1-1 3v-4Zm-357 12 4 2-3 10-3 2v18l-1-3-5-2v-11l8-16Zm-97 10 4 7-1-1-3-1-2 1-1-3 2-1 1-2Zm417 2 2 1-1 5h-4l3-6Zm-429 8 11 14-2 2-10-10-4-1 4-1 1-4Zm357 4 8 4-3 14-9 4 2 2 4-1v7l-3 6-8 3-14 19-8-4-1-3 2-3q10 2 13-3l7-13 4-2 2-1-1-5-4-2 9-22Zm80 4 1 2 1 1-7 4 5-7Zm-305 8 5 3-2 3-4-2 1-4Zm185 0v3l-6 3v-1l2-3 4-2Z"/><path fill="#0F0E1A" stroke="#0F0E1A" stroke-width="3" d="M402 291v9l-3 6-9-2 6-8 3-1-2-1 5-3ZM63 305l1 1h-1v-1Zm-4 13 1 1v1l-1-2Zm317 12 2 1-5 9-1-3 4-7Zm12 0q7 5-4 9l-4 1-1-1 2-4 7-5Zm-105 6 19 1q-6 9-25 5l-1-2 7-4Zm-222 2 5 8q-3 5-6-2l-4-1 4-1 1-4Zm443 0 1 4 3 1-7 5q-6-3 1-6l2-4Zm-387 4 3 1-2 5-4-2 3-4Zm204 0 9 3-2 3h-4v-4l-3-2Zm50 1 1 1-6 7-11 3-1-2 17-9Zm-134 5 5 6-2 1v3l-6-7 3-3Zm102 0 3 3v3l-6-2 3-4Zm-114 6 3 3v3l-6-2 3-4Zm216 42 3 3-2 3-4-2 3-4Z"/><path fill="#BEE2F1" stroke="#BEE2F1" stroke-width="3" d="m195 48 1 1h-1v-1Zm-18 6 1 1h-1v-1Zm-36 17 1 1h-1v-1Zm-72 55 1 1h-1v-1Zm-2 2v2h-1l1-2Zm5 0v2h-1l1-2Zm-3 3 1 1h-1v-1Zm428 178v2l-2 1 2-3ZM45 336l1 1h-1v-1Zm-2 2v2h-1l1-2Zm5 0v2h-1l1-2Zm-3 3 1 1h-1v-1Z"/><path fill="#CBF1FC" stroke="#CBF1FC" stroke-width="3" d="M276 78h43q8 9 30 6l37 18v1l-20-1-23-12q-22 3-30-6h-31l-29 12h-25q-8 8-24 8l1 4-1 7-6-4-1-3-4 1-3-1-5 10-5 2v-1l-5-8 7-7 34-14q17 2 24-6h25l11-6Zm-94 30-2 5 5 1 1-5-4-1Z"/><path fill="#CBF1FC" stroke="#CBF1FC" stroke-width="3" d="m260 96 12 1-10 5-4-4 2-2Zm48 0 15 6h-5l-10-6Zm-8 12 6 4v2l-6-3v-3Zm120 5 9 13 3 1q-1 14 9 17l5 1-2 10 5 1 2 1-1 10 1 1-9-5 2-1-5-11-1 4-3-4 3-1-1-6-5 1v1l-6-2q2-13-3-18l-3 1-3-1 2-5-6-1 5-6 2-1Zm-17 1 3 2 2 3 1 1-1 6-6-3 1-9Zm-142 6 3 7-3 5-3-1 3-11Zm51 0v3l-6 5v-2h-5l11-6Zm62 0q10-2 12 6h-2l-10-6Zm-229 29 5 5 1 2h-1l-5-3v-4Zm166 19 11 6h-4l-7-6Zm139 5 12 2 2 5-2 1 2 5 4 4 6 13 2 1-2 1-3 5-3-1-1-11-5-3-1-3-4 1q0-13-7-17l-4-1 4-2Zm25 47 10 5-2 3-3 1v1l-5-10Zm5 12 1 2 7 1-1 3-4 2-9-3 1-3 5-2Zm6 12 1 8 7 1q-3 7-13 6l-1-12 6-3Zm-5 19 3 3 2 3 1 1-1 5-5-12Zm-307 6v11h-1l-3-7 2-3 2-1Zm318 7 2 1-2 11h-8l2-1 2-9 4-2Zm6 13 1 5 1 1-1 3-1-3-3 5-2 1-1-2 6-10Zm-17 2 2 3-4-1 2-2Zm-34 15-7 8v1l-1-1 8-8Zm50 5 1 1v12l-5 1-1-7 5-7Zm-67 1 4 1-2 4 1 1h-10l3-5 1 4 3-5Zm62 25v11l-6 2v-1l1-7 3-1 2-4Zm-281 40 3 3-3 8v-11Zm5 99v12l-3-2-1-4 4-6Z"/><path fill="#94E8FC" stroke="#94E8FC" stroke-width="3" opacity=".996" d="M282 84h31q8 9 30 6l23 12h19q7 8 24 7l-1 4 1 1-7 1q-2 9 4 11h2l1-6 10 1-2 5 2 1-5 3 6 10-11-11-24-9-1 3 3 3-6-6q-11 2-14-3l-2-9h-12l1-4-5-2-1 5 1 1q-8-8-25-6l-11-6h-53l-2 6q-21-3-29 6l3 1-3 1-1-2-24-1 2-5q15 2 22-6h25l29-12Zm-100 24 4 1-1 5-5-1 2-5Z"/><path fill="#94E8FC" stroke="#94E8FC" stroke-width="3" opacity=".996" d="m255 108 9 2-1 4-5-2v-2l-3-2Zm88 19 3 9-3 6-2-4 2-11Zm48 3 7 8-7-3v-5Zm-33 8 2 1-1 3-3 1v-1l2-4Zm75 6 5 2v4l-6-2 1-4Zm-78 5 5 4-1 3h-6l2-7Zm81 7 6 2 2 4-5 1 5 8 5 3-3 1-8-3-2-16Zm16 0 4 3-2 9-4-1 2-11Zm-91 6 11 1v10l-3-5-9-1 1-5Zm21 0 2 1-1 4h-4l1-4 2-1Zm68 14 6 15h-1l-5-15Zm-82 16 4 1 2 5 1 1 3 7-12-11 2-3Zm89 5 11 3 2 10 4 1q-2 15 6 21l-6 3 4 5 4 1-2 16-23-60Zm-264 1 7 1-2 5-5 2-2-2 2-6Zm289 60 6 1-2 10-3-5-3-1 2-5Zm-1 7q6 5 5 19l-4-3-1-16Zm-262 17 3 3-1 2h-4l-1-2 3-3Zm262 10 11 3 3 11-3 1 1 5 2 1q-7 6-3 24l-3 5-3 1v4l-6-7q11-9 6-34l-5-14Zm-36 14 1 1-7 8 2 3h-7l-2-3 3-4 10-5Zm2 6 4 1-1 7-6-4 3-4Zm24 12 3 3-2 3-4-2 3-4Zm-90 36 3 3-1 2h-4l-1-2 3-3Zm105 4v5l-11 9-1-2 12-12Z"/><path fill="#C2CEF4" stroke="#C2CEF4" stroke-width="3" d="m423 66 3 3v4l-3-1-3 2v-1l3-7Zm-153 36 1 1-1 4 12 3-1 4h-18l1-4v-2l2-4 4-2Zm26 6 4 3 1 1 3 2h-8l-2-4 2-2Zm11 3 11 4-3 5 1 1-3 1-1-2-15 6v-1l7-5 3-9Zm-135 9 13 1-16 9-2 6-10 5-1-8 4-7 12-6Zm165 0 5 3 1-2 2 5-3 1v4l-5-11Zm-157 8v4l-6 9-7 3 11-12 2-4Zm84 9 1 1h-1v-1Zm-115 13 9 1-6 4-3-5Zm226 0 3 3-2 3-2 1-1 3-1-7 3-3Zm-15 5 1 7-1 5 9 2 15 29h-2l-5-6-4 1-5-1h-3l1-4-8-7 3-1h5l-12-18 4-6 2-1Zm-230 1 9 1-1 4 1 1-7 1-2 5h-4q-2-10 4-12Zm257 0 3 3-2 4-3 1-1-2h-2l2-4 3-2Zm-177 6 2 1q-2 21-17 29h-3v-6l14-22 4-2Zm-26 6 2 1v2l-4 2v-1l2-4Zm-66 6 12 1-8 6-7 13-1-2h-6q0-14 10-18Zm259 0 7 4v2l-7-6Zm-214 12 5 1-2 5-4-2 1-4Zm-55 12 2 1-2 20-6 9v21l-12 21v31q-9 9-6 30l-4-1-2 6h6v15l-12-3 1-19 3 1 2-5-3-1-3 2v-14l12-29 1-25 3-1 2-17 16-41 2-1Zm24 2v4l-5 8-1-1 6-11Zm258 1 1 4-1 4 1 1h-8l3-4 3-1-4-1 5-3Zm-212 3 2 1-1 3-4 2-1-2 4-4Zm-21 18 15 2 2 3 1 1-7 1-6 11 2 1-2 4v41l-2 2-4-2 1-64Zm278 24 3 3v4l-3-1-2 4-1-7 3-3Zm-219 16v2l-5 10-1-4 6-8Zm185 0 1 1v8l-3-1-3 2-1-7 6-3Zm26 12 7 3-4 5-4-2 1-6Zm71 6v5l-4 2-2-5h2l4-2Zm-197 16 5 12-3-2-2-10Zm-29 4 4 4 2 2 16-2v12l-12 2-5-3-4-9-2 1-1-5 2-2Zm-124 30 4 1-1 3-1-3-5 7-1-1 4-7Zm14 4 1 3-4 5h-3l1-6 5-2Zm213 8 3 3-2 4-3 1-1-2h-2l5-6Zm-50 37 5 13-3-2-2-11Zm35 4 1 6 6-1-1 2-2 12-4-2-4-14 4-3Zm-257 1 2 1 2 5h-1l-3-6Zm107 2v4l-5 10-1-3 6-11Zm109 38 5 5-2 3-3 2v-10Zm-96 13 4 1h1l-1 4-4 2v2-9Zm126 17 3 2-1 2 3 4 1-4 1 4-2 1v3l-5-12Zm-150 13 4 1h1l-2 6-4-2 1-5Zm131 11v5l-5 8-1-4 6-9Z"/><path fill="#FBE6FC" stroke="#FBE6FC" stroke-width="3" d="m309 102 9 4-1 2-8-6Zm-84 6 3 1-5 7-1-5 3-3Zm117 0 12 7-2 5h-4l-1-6-5-3v-3Zm-150 3v6l-10 3v-1l10-8Zm18 6 1 3 3 1-3 1-1-2h-5l5-3Z"/><path fill="#FBE6FC" stroke="#FBE6FC" stroke-width="3" d="m208 121 1 1-2 4-3-1 2-3 2-1Zm35 59 3 3q-19 12-24 40l4 5 2 1-5 8-7 3-5-3-1-21 12-21 21-15Zm97 6 14 18q-1 13 6 18v13l-3 5-3 1v5l-7-2-5-8-4-1 4-1q5-29-6-42l4-6Zm-196 3v3l-5 10-1-4h-2l2-4 1 3 5-8Zm289 32 4 1h1l-2 6-3 1v-8Zm-346 2 2 2-4 5-1-4 3-3Zm46 6q7 5 5 20l-3-2-2-18Zm300 4 4 1h1l-2 6-4-2 1-5Zm-1 26v6l-3 5-3-1 6-10ZM67 288l5 1v5l-6-2 1-4Zm354 11 4 1h1l-3 6-2 1-3-1 3-7Zm-352 7 3 1v8l-6-4 3-5Zm339 8 1 4 3 1-9 4-1-1 6-8ZM67 327l4 3-2 1 3 8-3-2-2-10Zm126 7 1 3 4 3v5l-8-8 2-1 1-2Zm18 25 5 3-1 4-4 3v-10Zm149 1 2 1-1 3-6 3-3-1 8-6Zm103 0 2 1-2 4-1-2-5 3 3 1-3 1-1-2h-4l11-6Z"/><path fill="#44BAF6" stroke="#44BAF6" stroke-width="3" d="m349 102 5 3-2 3-4-2 1-4Zm36 18q24 4 35 22l-11 2-11-5-14-16 1-3Zm38 36 13 2 4 16 10 4 12 39 12 23q-1 13 6 18v19l6 9h-2l-8-4-2 4q17 11 12 45l-6 10 4 3 2 4-6 9-12 3v-1l-6-10v-31l-3-6h-4l1-4v-2l4-1 2-8-1-3h1l-1-6-4 1-1-25-12-17-1-19-4 1-2-37-10 1-3-6 2-1v-12l-6-15 3-3Zm47 168-2 5 5 1 1-4-4-2Zm23 36 1 1-7 5 3 1-3 1-1-4 7-4Zm-19 11 1 7 1 1-6 3-7-8 11-3Z"/><path fill="#5EE9E3" stroke="#5EE9E3" stroke-width="3" d="M356 143v2l-2 1 2-3Z"/><path fill="#55D5EA" stroke="#55D5EA" stroke-width="3" d="m326 108 5 1-1 5-6-1 2-5Zm-127 6 5 3-4 3-1-6Zm-7 6v3l-10 3v-1l10-5Zm126 0v3l-6 8 1 1-7-2 12-10Zm48 5 7 2-1 5-12-1 2-5 4-1Zm-190 1 4 1-3 5h-3l2-6Zm168 0 4 1v7l-4-8Zm-26 6 6 3-2 3h-5l1-4v-2Zm-154 6 4 1-3 5h-3l2-6Zm41 0 5 2-2 4-4-2 1-4Zm78 0 16 6h-26v-1l10-5Zm90 0 11 3-2 3-10-3 1-3Zm-14 4 1 1v8l-6-3 3-5 2-1Zm-164 14 3 3v3h-6l3-6Zm202 0 5 3-2 3-4-1 1-5Zm-84 6-1 2 1 4h-4l-2-3 6-3Zm2 6 9 4 1 2-1-1-9-5Zm78 0 3 3-2 3-4-2 3-4Zm-170 12 3 1-11 5 2-3 6-3Zm240 0 2 1 2 5h-2l-2-6Zm-57 12q5 3-2 7l-1 3-6 2-1-5 6-2 4-5Zm-116 84 4 3-1 3h-5l2-6Zm100 34v3l-4 8-2-2 6-9Zm61 6 5 10-3-2-2-8ZM79 363l4 3-4 1 5 3 1 2-1-1-8-4 2-1 1-3Zm158 15 3 1-2 5-4-2 3-4Zm-5 12 2 1-5 8-1-2 4-7Zm-47 6 8 1-3 5-4-2-1-4Z"/><path fill="#1528C4" stroke="#1528C4" stroke-width="3" d="m369 144 1 1h-1v-1Zm3 2v2h-1l1-2Zm-192 30v2h-1l1-2Zm91 60v2h-1l1-2Zm65 24v2h-1l1-2Zm-3 3 1 1h-1v-1Zm18 13 1 1h-1v-1Zm78 72-17 18h-2l19-18Z"/><path fill="#1F27D0" stroke="#1F27D0" stroke-width="3" d="M234 111v6l-1 2-7 1 8-9Zm39 3 3 1 8 11h-1l-13-9 3-3Zm82 16 5 5-2 3-2 1-1 3v-12Zm24 0 7 8-2 1-8-6 2-1 1-2Zm-93 2 2 2-1 4h-9l5-3 1-2 2-1Zm82 13 3 1v3l-4 3-1-4 2-3Zm4 7v5l-3 5h-5l8-10Zm-197 22 4 2v3l-3 2-2 5 3 1-2 4-1-4-3 5h-4l7-11-2-1 3-6Zm228 5 5 4-1 2-5 1v-1l-1-4 2-2Zm-14 1 8 1-1 4 1 1-6-3-2 1v-4Zm-235 18 2 1-5 7-1-1 4-7Zm120 36 3 1-1 4 1 1-6-1 1-4 2-1Zm57 24 4 2v3h-4v-5Zm19 19 3 1 3 4-2 1-6-3 2-3Zm-199 21 5 10-3-2-2-8Zm272 8 3 1-1 5-5-2 3-4Zm6 12 6 6 4 18 3 2-3 8-4 2h-3v-6l-22 17v-1l10-14 4-2 2-7-2-4-3-1h-9l9-7 4 1 1-5-2-1 5-6Zm-10 1 1 2-5 2-1-1 5-3Zm-212 29 3 2-1 4-4 1-3-1 5-6Zm240 6 3 1-1 5-5-1 3-5Zm-206 4 5 5-2 3-4-2 1-6Zm192 2 5 3h1q8 6 7 21l10 1-1 3-11 3v5l-6 1v7l-7-2-16 12-1-2 16-22 7-2 1-11-2-4-5-1-4 3-1 9h-3l-2-7 5-9 4-2h2l1-6Zm-3 48 1 1-4 7-1-1 4-7Zm3 0 2 1-2 4v-5Z"/><path fill="#1F479E" stroke="#1F479E" stroke-width="3" d="m189 36 1 1h-1v-1Zm-2 2v2h-1l1-2Zm182 10 1 1h-1v-1Zm72 24 1 1h-1v-1Zm-2 2v2h-1l1-2Zm5 0v2h-1l1-2Zm-3 3 1 1h-1v-1ZM81 119l1 1h-1v-1Zm312 43 1 1h-1v-1Zm12 12 1 1h-1v-1Zm-183 2v2h-1l1-2Zm72 60v2h-1l1-2Zm240 72v2h-1l1-2Zm-368 22 9 8-1 1-8-9Zm-1 12-2 3-1-2 3-1Zm183 17 1 1h-1v-1Zm61 27v2h-1l1-2Zm11 0v2h-1l1-2Z"/><path fill="#1AA0D2" stroke="#1AA0D2" stroke-width="3" d="m373 131 7 7h-4l-3-5h-2l2-2Zm-31 9v12l-2-2-4-2 3-4h1l2-4Zm49 10 7 6-2 1v1l-5-8Zm-13 5-1 2-4 9-1-4h-3l3-5 1 5 3-6 2-1Zm-143 19 3 1-13 5v-1l10-5Zm110 0 4 1-1 4 1 1-7-2 3-4Zm16 10 5 5-2 3-4-2-2-3 2-1 1-2Zm30 40 11 16h-2q-9-5-9-16Zm-10 100 3 3-5 8-1-5h-2l5-6Zm67 24 2 1-3 5-2 1v-1l3-6Z"/><path fill="#111CA3" stroke="#111CA3" stroke-width="3" d="M421 377v2h-1l1-2Z"/><path fill="#2450E5" stroke="#2450E5" stroke-width="3" d="m441 228 3 3v16l12 17 2 30 4 4-3 8h-16l-17 6v-6h-2l2-14 12-20v-41l3-3Zm-210 42 3 3-2 3-4-2 3-4Zm-14 34 5 12h-1l-4-12Zm236 8 7 2 2 35 6 9-17 5-1-9h-3l3-5 4-2 2-23-6-9 3-3Zm-22 6 10 1q7 8 3 27l-2-1-1-3h-3q2-19-7-24Zm-8 6 3 1-1 5-5-1 3-5Zm-12 12 9 2-2 4-10-2 3-4Zm-176 16 7 14-3-2-4-12Zm230 14 9 3-2 3-9 1 7 11h-5l-31 29-1-1 2-3-2-1 5-3 1-3 5-1 1-11 11-3v-3l-12-1 1-13 12 2 8-6Zm-232 6 7 1-3 5-2 1-2-7Z"/></svg>