<svg xmlns="http://www.w3.org/2000/svg" width="600" height="360" viewBox="0 0 169.333 101.6" xml:space="preserve" style="fill-rule:evenodd"><path style="fill:#fff" d="M0 0h169.333v101.6H0z"/><path style="fill:#00247d" d="M0 0h169.333v33.867H0zM169.333 42.077v10.924c-.616-.245-1.21-.5-1.806-.755-5.173-2.217-9.712-2.217-14.886 0-7.818 3.35-15 3.352-22.823 0-5.173-2.217-9.712-2.217-14.885 0-7.699 3.299-15.124 3.3-22.823 0-5.173-2.217-9.713-2.217-14.886 0-7.699 3.299-15.124 3.3-22.823 0-5.273-2.26-9.616-2.258-14.885 0-7.823 3.352-15.006 3.35-22.824 0-5.173-2.217-9.712-2.217-14.885 0-.595.255-1.19.51-1.807.755V42.077c6.934-2.427 13.685-2.147 20.661.843 5.274 2.26 9.616 2.257 14.886 0 7.822-3.352 15.005-3.35 22.823 0 5.173 2.216 9.712 2.216 14.885 0 7.699-3.3 15.125-3.3 22.823 0 5.174 2.216 9.712 2.216 14.886 0 7.698-3.3 15.125-3.3 22.823 0 5.27 2.257 9.612 2.26 14.886 0 6.975-2.99 13.727-3.27 20.66-.843zm0 20.616v10.924c-.616-.245-1.21-.5-1.806-.755-5.173-2.217-9.712-2.217-14.886 0-7.818 3.35-15 3.352-22.823 0-5.173-2.217-9.712-2.217-14.885 0-7.699 3.299-15.124 3.3-22.823 0-5.173-2.217-9.713-2.217-14.886 0-7.699 3.299-15.124 3.3-22.823 0-5.273-2.26-9.616-2.258-14.885 0-7.823 3.352-15.006 3.35-22.824 0-5.173-2.217-9.712-2.217-14.885 0-.595.255-1.19.51-1.807.755V62.693c6.934-2.427 13.685-2.147 20.661.843 5.274 2.26 9.616 2.257 14.886 0 7.822-3.352 15.005-3.35 22.823 0 5.173 2.216 9.712 2.216 14.885 0 7.699-3.3 15.125-3.3 22.823 0 5.174 2.216 9.712 2.216 14.886 0 7.698-3.3 15.125-3.3 22.823 0 5.27 2.257 9.612 2.26 14.886 0 6.975-2.99 13.727-3.27 20.66-.843zm0 20.655v10.924c-.616-.245-1.21-.5-1.806-.755-5.173-2.217-9.712-2.217-14.886 0-7.818 3.35-15 3.352-22.823 0-5.173-2.217-9.712-2.217-14.885 0-7.699 3.299-15.124 3.299-22.823 0-5.173-2.217-9.713-2.217-14.886 0-7.699 3.299-15.124 3.299-22.823 0-5.273-2.26-9.616-2.258-14.885 0-7.823 3.352-15.006 3.35-22.824 0-5.173-2.217-9.712-2.217-14.885 0-.595.255-1.19.51-1.807.754V83.348c6.934-2.427 13.685-2.147 20.661.842 5.274 2.26 9.616 2.258 14.886 0 7.822-3.352 15.005-3.35 22.823 0 5.173 2.217 9.712 2.217 14.885 0 7.699-3.298 15.125-3.298 22.823 0 5.174 2.217 9.712 2.217 14.886 0 7.698-3.298 15.125-3.298 22.823 0 5.27 2.258 9.612 2.26 14.886 0 6.975-2.989 13.727-3.27 20.66-.842z"/><path transform="matrix(1.12889 0 0 1.12889 -85.08 -65.099)" style="fill:#fff;fill-rule:nonzero" d="M75.367 87.666v-4.078l129.609-25.922h20.391v4.079L95.757 87.666z"/><path transform="matrix(1.12889 0 0 1.12889 -85.08 -65.099)" style="fill:#fff" d="M143.867 87.666h13v-30h-13z"/><path transform="matrix(1.12889 0 0 1.12889 -85.08 -65.099)" style="fill:#fff;fill-rule:nonzero" d="M204.976 87.666h20.391v-4.078L95.757 57.666h-20.39v4.079z"/><path d="M87.018 13.26 153.323 0h16.01L87.018 16.463V13.26zm82.315 17.405v3.201L84.668 16.933h16.008l68.657 13.732zM16.01 33.867H0l87.019-17.404v3.202l-71.01 14.202zM0 3.202V0l84.666 16.933h-16.01L0 3.202z" style="fill:#cf142b;fill-rule:nonzero"/><path transform="matrix(1.12889 0 0 1.12889 -85.08 -65.099)" style="fill:#fff" d="M75.367 67.666v10h150v-10z"/><path transform="matrix(1.12889 0 0 1.12889 -85.08 -65.099)" style="fill:#cf142b" d="M146.367 87.666h8v-30h-8z"/><path transform="matrix(1.12889 0 0 1.12889 -85.08 -65.099)" style="fill:#cf142b" d="M225.367 75.916v-6.5h-150v6.5z"/><g transform="translate(-.687)" style="stroke-width:.14111112;stroke-miterlimit:4;stroke-dasharray:none"><path d="m90.546 13.768 2.425-1.617-1.664 6.27H79.401l-1.663-6.27 2.424 1.617.504-4.58 2.811 3.544 1.877-4.87 1.877 4.87 2.81-3.544z" style="fill:#fc0;stroke:#000;stroke-width:.14111112;stroke-miterlimit:4;stroke-dasharray:none"/><path d="M85.353 16.694c2.29 0 4.376.654 5.954 1.726-1.578 1.073-3.664 1.727-5.954 1.727-2.288 0-4.376-.653-5.953-1.727 1.578-1.072 3.664-1.726 5.953-1.726z" style="fill:#fc0;stroke:#000;stroke-width:.14111112;stroke-linejoin:round;stroke-miterlimit:4;stroke-dasharray:none"/><path d="M79.258 17.886c1.826-1.095 3.908-1.715 6.119-1.715 2.194 0 4.261.611 6.078 1.691m-12.302-.373a12.363 12.363 0 0 1 6.196-1.671c2.239 0 4.348.605 6.204 1.675m-12.934-2.02c1.973-1.35 4.287-2.127 6.761-2.127 2.456 0 4.753.766 6.717 2.097m-13.588-.38c2.004-1.315 4.344-2.07 6.844-2.07s4.84.755 6.845 2.07" style="fill:none;stroke:#000;stroke-width:.14111112;stroke-linejoin:round;stroke-miterlimit:4;stroke-dasharray:none"/><rect width="2.142" height="1.088" rx=".475" ry=".475" x="84.283" y="14.107" style="fill:none;stroke:#000;stroke-width:.14111112;stroke-miterlimit:4;stroke-dasharray:none"/><ellipse rx=".949" ry=".517" transform="matrix(1.03532 -.32805 .34099 1.07616 81.872 15.147)" style="fill:none;stroke:#000;stroke-width:.12744129;stroke-miterlimit:4;stroke-dasharray:none"/><rect width="1.449" height="1.088" rx=".368" ry=".544" x="64.237" y="47.501" transform="rotate(-24.803)" style="fill:#fc0;stroke:#000;stroke-width:.14111112;stroke-miterlimit:4;stroke-dasharray:none"/><rect width="1.449" height="1.088" rx=".368" ry=".544" x="-90.725" y="-24.111" transform="matrix(-.90776 -.4195 -.4195 .90776 0 0)" style="fill:#fc0;stroke:#000;stroke-width:.14111112;stroke-miterlimit:4;stroke-dasharray:none"/><ellipse rx=".949" ry=".517" transform="matrix(-1.03532 -.32805 -.34099 1.07616 88.836 15.147)" style="fill:none;stroke:#000;stroke-width:.12744129;stroke-miterlimit:4;stroke-dasharray:none"/></g><g style="fill:#fc0;stroke:#000;stroke-width:.14111112;stroke-miterlimit:4;stroke-opacity:1;stroke-dasharray:none"><path d="m93.661 92.834 5.934.833 3.054-43.259zM104.07 94.62l5.76 1.65 9.045-42.413zM114.128 97.835l5.474 2.438 14.86-40.743zM123.641 102.42l5.081 3.175 20.387-38.277zM132.424 108.284l4.59 3.852 25.514-35.068zM89.098 92.515h-5.992l2.996-43.264zM78.542 92.834l-5.933.833-3.055-43.259zM68.134 94.62l-5.76 1.65-9.044-42.413zM58.075 97.835l-5.474 2.438-14.86-40.743zM48.562 102.42l-5.08 3.175-20.387-38.277zM39.78 108.284l-4.59 3.852L9.674 77.068zM31.899 115.314l-4.01 4.453L-2.257 88.59zM25.073 123.372l-3.35 4.967-34.192-26.676zM140.305 115.314l4.009 4.453L174.46 88.59zM147.13 123.371l3.35 4.968 34.192-26.677z" style="fill:#fc0;stroke:#000;stroke-width:.14111112;stroke-miterlimit:4;stroke-opacity:1;stroke-dasharray:none" transform="translate(-1.435 -13.053)"/></g><g style="fill:#fc0;stroke:#000;stroke-width:.14111112;stroke-miterlimit:4;stroke-opacity:1;stroke-dasharray:none"><path d="m73.739 93.522-5.834 1.191c-.794-2.466-1.108-3.37-1.532-7.694-.424-4.324.068-8.563-.901-13.498-.97-4.934-3.5-10.022-4.218-13.76-.717-3.737-.549-5.376.238-7.865-.27 2.695-.294 3.947.981 7.51 1.276 3.565 4.476 8.895 5.912 13.551 1.436 4.656 2.016 8.953 2.862 12.744.846 3.792 1.231 5.122 2.492 7.82zM63.473 95.97l-5.611 1.991c-1.13-2.332-1.567-3.183-2.589-7.406-1.021-4.223-1.124-8.49-2.77-13.241-1.647-4.752-4.862-9.438-6.092-13.04-1.23-3.6-1.292-5.246-.86-7.82.108 2.705.259 3.948 2.018 7.3 1.76 3.352 5.67 8.185 7.74 12.596 2.07 4.41 3.242 8.585 4.607 12.222 1.366 3.636 1.933 4.9 3.557 7.397zM53.648 99.821l-5.279 2.753c-1.443-2.152-1.995-2.934-3.594-6.973-1.6-4.04-2.295-8.251-4.587-12.727-2.291-4.476-6.127-8.67-7.847-12.065-1.72-3.394-2.01-5.016-1.939-7.625.483 2.664.805 3.874 3.014 6.949 2.208 3.074 6.753 7.316 9.417 11.396 2.664 4.08 4.406 8.05 6.264 11.461 1.858 3.412 2.595 4.584 4.55 6.831zM44.454 105.003l-4.844 3.46c-1.729-1.93-2.384-2.627-4.53-6.405-2.146-3.778-3.42-7.85-6.313-11.964-2.892-4.114-7.274-7.733-9.45-10.855-2.175-3.123-2.688-4.688-2.981-7.282.848 2.572 1.336 3.725 3.951 6.462 2.615 2.737 7.706 6.305 10.912 9.975 3.206 3.669 5.483 7.359 7.798 10.478 2.315 3.12 3.208 4.178 5.457 6.13zM36.071 111.414l-4.315 4.101c-1.981-1.67-2.727-2.27-5.377-5.713-2.651-3.442-4.48-7.298-7.917-10.97-3.437-3.67-8.28-6.644-10.869-9.433-2.589-2.79-3.314-4.268-3.966-6.796 1.199 2.428 1.842 3.503 4.812 5.85 2.97 2.346 8.509 5.17 12.194 8.358 3.686 3.187 6.454 6.524 9.18 9.291 2.727 2.767 3.759 3.69 6.258 5.312zM84.245 92.528l-5.942.369c-.443-2.554-.629-3.492-.447-7.833.182-4.34 1.26-8.47.986-13.492-.273-5.021-2.071-10.412-2.261-14.213-.19-3.801.204-5.4 1.33-7.756-.643 2.631-.84 3.868-.074 7.575.767 3.706 3.194 9.43 3.969 14.24.774 4.812.75 9.147 1.06 13.02.31 3.871.506 5.242 1.38 8.09zM141.058 116.17l-4.25-4.17c1.6-2.038 2.174-2.804 5.522-5.573 3.347-2.77 7.137-4.732 10.686-8.295 3.549-3.563 6.352-8.507 9.05-11.191 2.696-2.685 4.149-3.462 6.653-4.201-2.386 1.282-3.437 1.963-5.678 5.013-2.242 3.05-4.871 8.684-7.928 12.479-3.057 3.794-6.296 6.677-8.966 9.498-2.67 2.822-3.557 3.885-5.09 6.44zM133.289 109.027l-4.79-3.537c1.303-2.241 1.764-3.08 4.693-6.288 2.93-3.208 6.41-5.68 9.428-9.701 3.019-4.022 5.106-9.308 7.404-12.342 2.297-3.034 3.627-4.005 6.004-5.086-2.184 1.602-3.13 2.422-4.925 5.755-1.795 3.333-3.615 9.277-6.114 13.46-2.5 4.183-5.305 7.489-7.556 10.654-2.252 3.166-2.982 4.342-4.144 7.085zM124.6 103.035l-5.234-2.837c.977-2.4 1.317-3.294 3.772-6.879 2.455-3.585 5.557-6.516 7.986-10.92 2.43-4.402 3.76-9.927 5.614-13.251 1.853-3.324 3.035-4.471 5.238-5.872-1.94 1.89-2.763 2.834-4.076 6.384-1.314 3.55-2.29 9.69-4.182 14.18-1.893 4.49-4.21 8.154-6 11.602-1.788 3.448-2.348 4.715-3.117 7.593zM115.164 98.31l-5.578-2.08c.633-2.513.846-3.446 2.778-7.337 1.931-3.892 4.596-7.227 6.388-11.925 1.793-4.698 2.343-10.354 3.715-13.904 1.372-3.55 2.383-4.85 4.37-6.544-1.658 2.142-2.341 3.191-3.148 6.89-.807 3.698-.918 9.914-2.167 14.624-1.25 4.71-3.035 8.66-4.327 12.324-1.292 3.663-1.67 4.996-2.03 7.953zM105.161 94.945l-5.813-1.284c.277-2.576.358-3.53 1.73-7.652 1.37-4.123 3.545-7.796 4.666-12.697 1.122-4.902.879-10.58 1.744-14.287.864-3.706 1.685-5.134 3.416-7.088-1.343 2.352-1.874 3.486-2.158 7.26-.285 3.775.47 9.946-.111 14.784-.582 4.838-1.8 8.999-2.57 12.806-.769 3.808-.958 5.18-.904 8.158zM94.788 93.006l-5.936-.462c-.084-2.59-.137-3.546.648-7.82.784-4.272 2.426-8.212 2.854-13.222.429-5.01-.602-10.6-.262-14.39.341-3.79.955-5.319 2.397-7.495-1.003 2.516-1.37 3.713-1.127 7.49.244 3.778 1.85 9.784 1.948 14.655.097 4.872-.53 9.162-.762 13.04-.232 3.877-.228 5.262.24 8.204zM28.662 118.929l-3.703 4.662c-2.194-1.379-3.015-1.87-6.12-4.909-3.104-3.04-5.452-6.604-9.366-9.76-3.914-3.158-9.124-5.429-12.076-7.83-2.952-2.402-3.876-3.766-4.873-6.178 1.525 2.238 2.312 3.212 5.58 5.122 3.267 1.91 9.145 3.937 13.238 6.58 4.093 2.644 7.3 5.563 10.384 7.924 3.085 2.36 4.236 3.132 6.936 4.389zM147.757 124.324l-3.628-4.72c1.869-1.796 2.543-2.475 6.243-4.751 3.7-2.277 7.727-3.693 11.737-6.727 4.01-3.034 7.474-7.54 10.519-9.823 3.045-2.283 4.59-2.85 7.173-3.234-2.54.938-3.676 1.466-6.32 4.174-2.644 2.71-6.032 7.922-9.588 11.254-3.555 3.332-7.163 5.737-10.2 8.159-3.036 2.422-4.063 3.352-5.936 5.668z" style="fill:#fc0;fill-rule:nonzero;stroke:#000;stroke-width:.14111112;stroke-miterlimit:4;stroke-opacity:1;stroke-dasharray:none" transform="translate(-1.435 -13.053)"/></g><path d="M163.689 155.096H5.645c0-43.635 35.387-79.022 79.022-79.022 43.635 0 79.022 35.387 79.022 79.022z" style="fill:#fc0;stroke:#000;stroke-width:.14111112;stroke-miterlimit:4;stroke-dasharray:none"/></svg>