<svg xmlns="http://www.w3.org/2000/svg" width="1000" height="500" xml:space="preserve"><path style="fill:#c00" d="M0 0h1000v500H0z"/><path style="fill:none" d="M0 0h1000v500H0z"/><path style="fill:#006" d="M0 0h500v250H0z"/><path d="M0 0v3.354L53.292 30H60v-3.354L6.708 0H0zm60 0v3.354L6.708 30H0v-3.354L53.292 0H60z" style="fill:#fff" transform="matrix(8.33334 0 0 8.33334 0 0)"/><path d="M25 0v30h10V0H25zM0 10v10h60V10H0z" style="fill:#fff" transform="matrix(8.33334 0 0 8.33334 0 0)"/><path d="M0 12v6h60v-6H0zM27 0v30h6V0h-6zM0 30l20-10h4.472l-20 10H0zM0 0l20 10h-4.472L0 2.236V0zm35.528 10 20-10H60L40 10h-4.472zM60 30 40 20h4.472L60 27.764V30z" style="fill:#c00" transform="matrix(8.33334 0 0 8.33334 0 0)"/><g style="display:inline"><path d="M305.132 584.222v-64.02H148.866c.042 23.69.747 42.86.755 63.307z" style="color:#000;fill:#fff;stroke:none;stroke-width:1.61131108;marker:none;visibility:visible;display:inline;overflow:visible;enable-background:accumulate" transform="matrix(1.14115 0 0 1.14115 490.48 -451.285)"/><path d="M236.03 584.074v-22.656h68.946V544.23h-68.947V520.2h-17.156v24.03h-69.954c-.003 5.876-.025 11.563-.03 17.188h69.984v22.656z" style="color:#000;fill:#bd0000;fill-opacity:1;fill-rule:nonzero;stroke:#000;stroke-width:1;stroke-linecap:butt;stroke-linejoin:miter;stroke-miterlimit:4;stroke-opacity:1;stroke-dasharray:none;stroke-dashoffset:0;marker:none;visibility:visible;display:inline;overflow:visible;enable-background:accumulate" transform="matrix(1.14115 0 0 1.14115 490.48 -451.285)"/><path style="color:#000;fill:#165016;fill-opacity:1;stroke:none;stroke-width:1.6113110799999999;marker:none;visibility:visible;display:inline;overflow:visible;enable-background:accumulate" d="M-146.094 214v3.688c.137 4.591.231 11.8.25 20.218v.781c.203 27.777-.162 64.268-.375 76.438-.026 1.48-.066 2.419-.093 3.188.03 1.24.15 2.175.656 3.375.67 1.587 3.312 3.968 3.312 3.968L-104 342.187s30.476 13.83 46.813 14.844c.09.006.19-.005.28 0 .092-.005.19.006.282 0 16.337-1.014 46.813-14.844 46.813-14.844l38.343-16.53h.032c.05-.046 2.617-2.397 3.28-3.97.47-1.111.612-1.99.657-3.093-.021-.804-.065-1.806-.094-3.469-.233-13.353-.701-56.04-.343-84.281.004-.728.025-1.555.03-2.25.037-4.317.075-8.151.157-10.906v-2.875L-146.094 214z" transform="translate(806.354 .64)"/><path style="color:#000;fill:#b48f42;fill-opacity:1;fill-rule:nonzero;stroke:none;stroke-width:.33753532;marker:none;visibility:visible;display:inline;overflow:visible;enable-background:accumulate" d="M-98.781 309.656c-1.959 0-5.849 2.158-6.719 2.375-.87.218-5.25 2.406-5.25 2.406l-.219 2.625s-3.259-.661-5-1.75c-1.74-1.088-1.724.44-2.812.875-1.088.436-1.971 1.505-2.406 2.375-.436.871-1.313 2.844-1.313 2.844s-1.948 0-3.906-.219c-1.959-.217-1.75.875-1.75.875s-2.162.874-3.25.657a1.383 1.383 0 0 0-1.531.656s-2.165 1.501-3.688 1.719c-1.066.152-1.589 1.468-1.813 2.25L-104 342.188s30.476 13.83 46.813 14.843c.09.006.19-.005.28 0 .092-.005.19.006.282 0 16.337-1.014 46.813-14.844 46.813-14.844l38.343-16.53h.032c.036-.033 1.377-1.284 2.375-2.563-4.762.184-10.416.665-16.032 1.187-11.575 1.077-23.752 3.05-25.531.594-4.57-6.31-3.506-1.72-4.594-1.938-1.088-.217-5.437-.437-5.437-.437s-3.257-1.313-4.563-1.313c-1.305 0-5.875.875-5.875.875l-4.781-1.093-5.219-1.531s-4.133.873-5.656.656c-1.523-.218-6.531-1.094-6.531-1.094s-4.572-.22-6.313-.438c-1.74-.217-2.601-.844-4.125-1.062-1.523-.218-1.979.406-3.937.406-1.959 0-3.688-.406-3.688-.406s-1.1.19-2.187.844c-1.088.653-5.01.026-6.969-.844-1.959-.87-8.25-2.844-8.25-2.844l-7.406-5h-2.625z" transform="translate(806.354 .64)"/><path d="M192.014 666.88s1.211 2.767 2.25 4.497c1.037 1.73 1.902 2.768 3.46 2.768 1.556 0 1.21-.173 3.46.346 2.248.52 4.151 1.73 6.746 1.73 2.595 0 4.152 0 6.055.52 1.903.518 5.017-.347 5.017-.347l-5.882-2.94s-1.903-.174-3.806-.174-7.093-1.038-8.13-1.557c-1.039-.519-4.153-1.73-4.153-1.73z" style="color:#000;fill:#88552c;fill-opacity:1;fill-rule:nonzero;stroke:none;stroke-width:.36905777;marker:none;visibility:visible;display:inline;overflow:visible;enable-background:accumulate" transform="matrix(1.14115 0 0 1.14115 490.48 -451.285)"/><g style="display:inline"><path style="color:#000;fill:#704624;fill-opacity:1;fill-rule:nonzero;stroke:none;stroke-width:.29578549;marker:none;visibility:visible;display:inline;overflow:visible;enable-background:accumulate" d="M379.635 641.15c-3.595-.629-4.67 3.096-5.417 7.388 0 0 9.752-.59 10.047-1.97.296-1.38 1.675-6.501.985-6.403-.69.099-5.615.985-5.615.985z" transform="translate(250.514 -491.557) scale(1.24772)"/><path style="color:#000;fill:#ab883f;fill-opacity:1;fill-rule:nonzero;stroke:#644d1b;stroke-width:.27003127;stroke-linecap:butt;stroke-linejoin:miter;stroke-miterlimit:4;stroke-opacity:1;stroke-dasharray:none;stroke-dashoffset:0;marker:none;visibility:visible;display:inline;overflow:visible;enable-background:accumulate" d="M376.42 614.184c-.274.02-.514.07-.725.175-.845.422-2.75 3.6-2.75 3.6 2.322 1.9 3.814 3.58 4.025 4.425.21.845.625 2.325.625 2.325l2.325 1.05.85 1.275.825 5.075-.625 2.525-.625 2.25-.35.9-.075.125c-.553.95-.77 2.174-1.3 3.15-.33.605-1.025 1.8-1.025 1.8s2.835.483 4.175.1c2.034-.581 4.209-1.677 5.325-3.475.589-.949 1.182-2.487.575-3.375.5-.694.963-1.145 1.1-2.1.21-1.477.65-4.875.65-4.875v-3.575c0-2.322-.014-2.747-.225-6.125s-.425-4.65-.425-4.65-4.209.436-5.475.225c-1.267-.211-3.17-.65-4.225-.65-.792 0-1.829-.234-2.65-.175z" transform="translate(250.514 -491.557) scale(1.24772)"/><path style="color:#000;fill:#704624;fill-opacity:1;fill-rule:nonzero;stroke:none;stroke-width:.29578549;marker:none;visibility:visible;display:inline;overflow:visible;enable-background:accumulate" d="M384.068 644.4s-.985-.492-1.871.198c-.887.69-.605 1.116-1.576 1.28-1.485.252-2.934 6.18-2.562 6.403 0 0 6.462-.133 9.359-1.379 1.116-.48 2.275-1.19 2.865-2.251.854-1.535 1.173-5.137.582-5.235-.59-.099-6.797.985-6.797.985z" transform="translate(250.514 -491.557) scale(1.24772)"/><path style="color:#000;fill:#ab883f;fill-opacity:1;fill-rule:nonzero;stroke:#644d1b;stroke-width:.27003127;stroke-linecap:butt;stroke-linejoin:miter;stroke-miterlimit:4;stroke-opacity:1;stroke-dasharray:none;stroke-dashoffset:0;marker:none;visibility:visible;display:inline;overflow:visible;enable-background:accumulate" d="M386.996 633.472c-.69 1.38-2.337 5.018-2.928 6.299-.59 1.28-1.576 3.35-1.576 3.35l-1.379 3.743s4.015-.063 5.812-.838c1.31-.564 2.653-1.415 3.35-2.66 1.296-2.316 1.652-7.117.963-7.905-.69-.789-4.242-1.989-4.242-1.989z" transform="translate(250.514 -491.557) scale(1.24772)"/><path style="color:#000;fill:#ab883f;fill-opacity:1;fill-rule:nonzero;stroke:#644d1b;stroke-width:.29578552;marker:none;visibility:visible;display:inline;overflow:visible;enable-background:accumulate" d="M372.522 579.69c-11.5.675 4.81 33.82-6.71 33.904-2.737-.387 3.282 4.125 3.282 4.125s.307-.813 2.187-.813 6.188.563 6.188.563 5.351 2.684 7.5 5.906c2.148 3.222 1.35.802 2.156 3.219s-.281 7.25-.281 7.25l-1.562 3.121s3.246-1.27 5.126.609c1.88 1.88 3.114.914 3.114.914s.056-.658.056-1.732c0-1.074-.534 3.524-.266 2.182-1.468-5.534-3.272-7.416 4.97-12.532 1.25-.22 2.49-.595 3.655-1 2.004-.695 3.624-2.245 5.438-3.343 2.005-1.215 3.95-2.517 6.031-3.594 1.344-.696 4.865-3.568 4.031-2.281-1.037 1.601 4.507-1.84 5.094-.157 1.19 3.412 5.839 2.468 8.844 2.094 2.316-.288 4.235-1.989 6.219-3.219 2.934-1.819 6.269-3.365 8.343-6.125 1.93-2.567 3.616-5.865 3.313-9.062-.332-3.5-2.28-7.485-5.438-9.031-2.778-1.361-5.145-2.033-7.937-2.875-1.928-.582-3.15-1.448-4.75-2.094-2.07-.836-4.092-1.879-6.281-2.313-4.15-.588-16.425-1.392-17.447-4.153-16.985-4.985-26.008-3.475-34.875.438z" transform="translate(250.514 -491.557) scale(1.24772)"/><path style="color:#000;fill:#704624;fill-opacity:1;fill-rule:nonzero;stroke:none;stroke-width:.29578549;marker:none;visibility:visible;display:inline;overflow:visible;enable-background:accumulate" d="M443.948 652.245c-.49 0-1.88.327-1.88.327-1.836.515-3.314 2.101-4.496 4.578l8.91.163c1.512 0 1.313-4.25.41-4.414-.36-.066-2.944-.654-2.944-.654z" transform="translate(250.514 -491.557) scale(1.24772)"/><path style="color:#000;fill:#ab883f;fill-opacity:1;fill-rule:nonzero;stroke:#644d1b;stroke-width:.29578552;stroke-linecap:butt;stroke-linejoin:miter;stroke-miterlimit:4;stroke-opacity:1;stroke-dasharray:none;stroke-dashoffset:0;marker:none;visibility:visible;display:inline;overflow:visible;enable-background:accumulate" d="M446.087 592.338c-.042-.255 6.994.557 9.729 10.546.957 3.497.238 7.248.327 10.873.106 4.333-.821 8.799.245 13 .204.803.948 1.401 1.145 2.207.174.714.146 1.486 0 2.207-.306 1.508-1.799 4.251-1.799 4.251-.788 4.349-1.977 8.662-.409 13.653l-3.76.572-3.352 4.333-1.145.246-4.742-1.554c3.358-2.902 5.468-5.545 6.868-8.012.157-4.764.41-9.374.572-13.49 0 0-.245-1.88-.245-2.206 0-.327-5.843-5.543-7.603-9.075-1.834-3.68-2.78-12.018-2.78-12.018" transform="translate(250.514 -491.557) scale(1.24772)"/><path style="color:#000;fill:none;stroke:none;stroke-width:.25;marker:none;visibility:visible;display:inline;overflow:visible;enable-background:accumulate" d="M357.472 609.601c0 .57.475 2.941.854 3.226.38.284.854.095 1.518.854s.854.759 1.233 1.423c.38.664.76 1.707.664 2.087-.094.38.095.285-.19.759-.284.474.18 1.984-.484 2.173-.664.19-1.926.148-2.306.432-.38.285-1.384.241-1.953-.518-.569-.759-1.003-1.11-1.382-1.868-.38-.759-1.931-1.997-2.121-2.282-.19-.284.956-.12 1.336-.974.38-.854.934-1.612.934-1.612s-.095-.569 0-1.233c.095-.664.38-1.518.854-1.708.474-.19 1.043-.759 1.043-.759z" transform="translate(250.514 -491.557) scale(1.24772)"/><path d="m444.609 622.452 2.08 1.046 2.956 2.398s-.87-10.085-.088-9.356c.782.729-1.073-.618 1.971 2.073 3.045 2.691 1.616 2.622 1.616 2.622s1.788 1.374 1.204-.194c-.585-1.567-.498-3.385-.498-3.385s.388-.561.622-3.804c.817-11.3-1.875-14.198-2.21-15.094-21.742-5.93-21.258 10.852-7.653 23.694z" style="color:#000;fill:#7d4e28;fill-opacity:1;fill-rule:nonzero;stroke:none;stroke-width:.29578552;marker:none;visibility:visible;display:inline;overflow:visible;enable-background:accumulate" transform="translate(250.514 -491.557) scale(1.24772)"/><path d="M444.21 590.604c2.754 1.264 5.123 2.913 6.256 5.798 4.061 10.838 3.061 13.29 7.935 17.396.765.644 2.085 1.342 2.9.763 1.58-1.122.907-3.912.458-5.798-.433-1.817-1.981-3.168-2.913-4.787-.74-1.286-2.123-3.911-2.123-3.911l2.9-.763s1.556 3.687 1.983 5.035c.441 1.396 1.986 2.259 2.44 3.65.76 2.327 1.309 5.104.307 7.337-.592 1.32-1.932 2.502-3.357 2.747-1.332.229-2.74-.555-3.815-1.373-3.573-2.717-7.783-10.987-7.783-10.987l-3.204-4.883" style="color:#000;fill:#ab883f;fill-opacity:1;fill-rule:nonzero;stroke:#644d1b;stroke-width:.29578552;stroke-linecap:butt;stroke-linejoin:miter;stroke-miterlimit:4;stroke-opacity:1;stroke-dasharray:none;stroke-dashoffset:0;marker:none;visibility:visible;display:inline;overflow:visible;enable-background:accumulate" transform="translate(250.514 -491.557) scale(1.24772)"/><path d="M458.469 591.469s.031 1.192.031 1.906-.155.807-.25 1.188c-.095.38-.063 1-.063 1l-.875-2.125s.157 1.14.157 1.78c0 .642-.157 1.595-.157 1.595s-.488-1.277-.968-2.72c-.481-1.441-.165-.316.156 1.126.32 1.442 0 .312 0 1.593 0 1.282-.156 1.59-.156 3.032s.18 1.288.5 2.25c.32.961 1.324 1.648 2.125 1.968.115.043.106.043.156.063.103.026.324.179.375.281.051.103.094.313.094.313s.093-.054.093-.157c0-.102-.042-.278-.093-.406-.052-.128-.157-.25-.157-.25s.287.273.313.375c.026.103.125.407.125.407s.088-.19.062-.344c-.025-.154-.156-.563-.156-.563s.048.023.125.125c.077.103.25.344.25.344l.063.156-.063-.5-.187-.281.03-.031c.071.046.21.15.25.25.052.128.22.469.22.469s.03-.19.03-.344c0-.13-.065-.427-.093-.531.016.026.023.046.063.093.128.154.312.304.312.407 0 .102.031.409.031.28 0-.127.032-.138.032-.343 0-.205-.006-.372-.032-.5l.282.75-.032-.469-.03-.375c.005-.1.003-.104 0-.125l.124-.062c0-.143-.079-.198-.031-.532.048-.333-.097-.634.094-1.062.19-.428.296-.893.343-1.75.048-.857.076-.137.22-1.375.142-1.238-.032-1.234-.032-2.281 0-1.047-.188-.532-.188-.532s-.122 1.05-.312 1.907-.701 1.403-.844 1.593c-.143.19.247-.347.438-1.156.19-.809.077-.61.125-1.562.047-.952-.125-1.875-.125-1.875s.003.482-.188 1.625c-.19 1.142-.153.683-.344.968-.19.286-.28.594-.28.594s-.188-1.566-.188-2.375c0-.809.028-.316.218-1.125.19-.809-.264-2.153-.312-2.343-.048-.19-.06.859-.25 1.906s-.092 1.181-.188 1.562c-.095.381-.375.907-.375.907s-.062-1.432-.062-1.813c0-.38.016-.93-.031-1.406-.048-.476-.375-1.5-.375-1.5z" style="color:#000;fill:#584e19;fill-opacity:1;fill-rule:nonzero;stroke:#3c3311;stroke-width:.1;stroke-linecap:round;stroke-linejoin:round;stroke-miterlimit:4;stroke-opacity:1;stroke-dasharray:none;stroke-dashoffset:0;marker:none;visibility:visible;display:inline;overflow:visible;enable-background:accumulate" transform="translate(250.514 -491.557) scale(1.24772)"/><path style="color:#000;fill:#ab883f;fill-opacity:1;fill-rule:nonzero;stroke:#644d1b;stroke-width:.29578552;stroke-linecap:butt;stroke-linejoin:miter;stroke-miterlimit:4;stroke-opacity:1;stroke-dasharray:none;stroke-dashoffset:0;marker:none;visibility:visible;display:inline;overflow:visible;enable-background:accumulate" d="M418.395 612.094c.188 3.17.146.129.931 2.407 1.661 4.804 12.408 16.95 12.29 15.771l-.537 3.757c-1.374 5.43-4.842 7.415-7.916 10.062 0 0-2.274.001-3.085.671-.788.65-1.208 2.818-1.208 2.818l5.054 4.376 2.325-2.632 5.367-2.281-1.208-1.878c3.766-5.953 8.046-9.812 9.526-11.807 0 0 1.773.701 2.281.134 1.423-1.588-.998-4.175-1.073-6.306-.097-2.74.805-8.184.805-8.184s4.478-5.723 5.5-9.123c.479-1.59 1.009-3.655 1.347-5.675.537-3.206.591-6.3-.81-7.205-1.973-1.276-3.085-3.086-4.427-4.428" transform="translate(250.514 -491.557) scale(1.24772)"/><path style="color:#000;fill:#704624;fill-opacity:1;fill-rule:nonzero;stroke:none;stroke-width:.29578549;marker:none;visibility:visible;display:inline;overflow:visible;enable-background:accumulate" d="M418.992 647.677c-2.15.17-3.9 2.478-5.396 6.132h9.484c1.548-.748 1.384-1.741 1.471-2.698z" transform="translate(250.514 -491.557) scale(1.24772)"/><path style="color:#000;fill:#b48f42;fill-opacity:1;fill-rule:nonzero;stroke:none;stroke-width:.29578552;marker:none;visibility:visible;display:inline;overflow:visible;enable-background:accumulate" d="M418.758 648.734c-2.196.765-3.165 2.512-3.894 4.45l2.893-.222 2.228-3.252zM442.323 653.184l1.664.579-1.592 2.82h-3.4c.768-1.094.942-2.124 3.328-3.4zM382.777 647.464s-1.734-.102-2.04-.102c-.307 0-.89 1.441-1.123 2.245-.19.656-.204 2.04-.204 2.04l3.163-.51zM376.962 642.976s-.856 1.381-1.122 2.142c-.297.85-.51 2.652-.51 2.652l2.55-.204 1.326-4.182z" transform="translate(250.514 -491.557) scale(1.24772)"/><path style="color:#000;fill:#866925;fill-opacity:1;fill-rule:nonzero;stroke:none;stroke-width:.24999999;marker:none;visibility:visible;display:inline;overflow:visible;enable-background:accumulate" d="M387.014 621.466c.994.342 1.398.156 2.236.404.839.249 2.547-.217 3.168-.31.621-.094 1.77-.715 1.273-.249-.497.466-.9.932-1.149 1.242-.248.31-.652.528-1.615.466-.962-.062-.931.093-1.925-.155-.994-.249-1.957-1.242-1.957-1.242l-.248-.125z" transform="translate(250.514 -491.557) scale(1.24772)"/><path style="color:#000;fill:#9e7e3a;fill-opacity:1;fill-rule:nonzero;stroke:none;stroke-width:.29578552;marker:none;visibility:visible;display:inline;overflow:visible;enable-background:accumulate" d="M385.849 597.605s4.675 2.727 7.013 2.727c2.337 0 8.181 1.169 10.908 1.169 2.728 0 10.91-2.727 13.636-3.117 2.727-.39 7.013-4.285 4.286-.779-2.727 3.506-2.727 6.623-3.507 9.35-.779 2.728-.779 7.013-.779 7.013s-2.727 1.169-7.402 2.727c-4.675 1.559-16.363 3.507-16.363 3.507s-1.559-6.234-3.507-8.961c-1.947-2.727-4.675-6.234-5.843-7.792-1.17-1.558 1.558-5.844 1.558-5.844z" transform="translate(250.514 -491.557) scale(1.24772)"/><path style="color:#000;fill:#9e7e3a;fill-opacity:1;fill-rule:nonzero;stroke:none;stroke-width:.28528723;marker:none;visibility:visible;display:inline;overflow:visible;enable-background:accumulate" d="M-279.469 197.469s-1.364.33-2.219.844c-.854.512-1.35.862-2.718 1.375-1.368.512-2.156 2.812-2.156 2.812l-.438.25c-.427.256-.677.619-1.531.875-.855.256-.76.66-1.188 1.344-.427.683-1.375 1.125-1.375 1.125s-1.01.095-1.437.437c-.428.342-1.469 1.281-1.469 1.281s-1.198-.091-1.625.25c-.427.342-1.268.682-1.781.938-.513.256-1.623.5-2.563.5-.94 0-.941-.004-1.625-.688-.683-.683-1.47.455-1.812.625-.342.171-1.01-.008-1.438-.093-.427-.086-.69-.952-1.031-.781-.342.17-.414 1.103-.5 1.53-.086.428-.938 1.563-.938 1.563s-1.308.33-1.906.5c-.598.171-1.018.088-1.531.344-.513.256.015.256-.156 1.281l-.188 1.125c-.085.513-1.187.5-1.187.5l-.188 2.907v2.218l3.094-.343 3.406-.344s.508.178 1.875 1.375c1.368 1.196 2.067-.695 2.75-2.063.684-1.367 2.906-3.562 2.906-3.562l1.875-1.719s2.069-1.017 3.094-1.187c1.026-.171 3.754-.357 4.438.156.342.256.71 1.409 1.031 2.562-.002.011.002.02 0 .031-.583 2.96-.938 6.894-.938 7.875 0 1.57 7.063 16.657 7.063 16.657s4.402 1.716 5.344 2.187c.942.471 2.841 2.146 3.312 3.088.471.942.938 3.506.938 3.506.424-2.776.462-1.686.693-2.529l.4 2.685v1.875c-.621-.023-1.113.734-1.562 1.75l3.438-.625 1.562 4.531s2.906 4.022 3.534 4.179c.403.1 4.28 2.853 7.079 3.139 1.567.16 2.662-1.98 2.944-2.093.785-.314 5.54-2.794 5.54-2.794l-1.62.007-3.32.25 3.593-2.687-3.75-.782s1.248-.934 1.719-1.562c.47-.628 1.875-2.344 1.875-2.344l-2.969.156s-1.593-2.997-1.75-3.468c-.157-.472-1.404-2.372-1.875-3.157-.471-.785-.782-.777-.625-1.562.157-.785.782-2.184.625-2.969-.157-.785-1.404-3.465-1.875-4.25-.471-.785-1.719-2.656-1.719-2.656s-1.122-3.935-1.594-4.563c-.47-.628-.307-1.402-1.406-2.187-1.099-.785-2.187-1.903-2.187-2.531 0-.279-.362-.934-.781-1.625-.008-.013-.024-.019-.032-.032a30.93 30.93 0 0 0-1.406-2.093c-.436-.582-1.945-2.268-2.187-2.532.221-.029 3.839-.48 5-.812 1.196-.342 1.547-1.38 1.718-2.406.171-1.026.327-3.26.157-4.97-.171-1.708-.346-1.694-.688-3.062-.342-1.367.348-2.051 1.031-2.906.684-.855 1.04-1.375 2.407-1.375s3.08 1.719 3.593 1.719c.513 0 .664-.175 2.032-.688 1.367-.512 3.242.017 4.78.188 1.54.17 5.131.844 6.157.844 1.026 0 8.719 3.75 8.719 3.75s-4.085-3.41-5.281-4.094c-1.197-.684-3.942-1.877-4.625-2.219-.684-.342-4.282-.844-4.282-.844l-3.75-1.03-6-.532-3.75-.344s-1.52-2.217-2.375-1.875c-.854.342-1.882.171-3.25 0-1.367-.17-2.739.017-3.593.188-.855.17-3.754 1.016-4.438 1.187-.684.171-1.879.513-2.562 0-.684-.513-.532-1.531-.532-1.531z" transform="matrix(1.29364 0 0 1.29364 1070.712 -33.965)"/><path style="color:#000;fill:#9e7e3a;fill-opacity:1;fill-rule:nonzero;stroke:none;stroke-width:.2852872;marker:none;visibility:visible;display:inline;overflow:visible;enable-background:accumulate" d="M-312.74 218.935c.216.542.433 2.929.108 3.688-.326.76-.977 2.495-.977 2.495s.76-.217 1.41-.109c.651.109 1.628 1.085 1.628 1.736 0 .65-.76 2.603-.543 3.471.217.868 1.302 2.17 1.302 2.17l1.193.65 1.41.543s1.188 1.437 1.84 2.413c.65.976 1.523 3.011 1.849 3.445.325.434.76 1.736 1.085 2.278.325.542 1.025.898 1.638 1.172.639.285 2.05.455 2.05.455h1.193l1.736.868 2.06.217 1.303-.217s2.278-.434 3.037-1.193c.76-.76 3.797-2.712 3.797-2.712s2.712-1.085 2.712-2.495c0-1.41-.76-3.146-.217-6.292.542-3.146.542 1.953.65-3.471.109-5.424 2.062-1.519-.542-8.678-2.603-7.16.434-4.882-3.037-7.377-3.472-2.495-5.316-2.603-6.617-2.386-1.302.217-6.726-.326-7.702.542-.977.868-4.231 2.929-5.75 3.688-1.518.76-2.278.651-3.146 1.953-.867 1.302-3.47 3.146-3.47 3.146z" transform="matrix(1.29364 0 0 1.29364 1070.712 -33.965)"/><path style="color:#000;fill:#704624;fill-opacity:1;fill-rule:nonzero;stroke:none;stroke-width:.36905774;marker:none;visibility:visible;display:inline;overflow:visible;enable-background:accumulate" d="M-115.66 274.13s-.65.534-.736 1.016c-.192 1.075.038 1.728-.298 2.767-.247.766-1.325 1.221-1.931 1.868-1.031-.594-3.29-1.602-3.531-1.844-.313-.312-.844-1.187-.844-1.187s-.406 1.25-.875 1.25c-.47 0-1.828.53-1.75 1.156.114.064.227.13.344.188.174.087.361.174.531.25.827.369 2.625.594 2.625.594h1.563l1.624.812.626.313 2.53.28c.432-.572.902-1.223 1.094-1.75.42-1.144.7-2.48.376-3.656-.353-1.274-1.347-2.056-1.347-2.056z" transform="translate(806.354 .64)"/><path style="color:#000;fill:#704624;fill-opacity:1;fill-rule:nonzero;stroke:none;stroke-width:.2852872;marker:none;visibility:visible;display:inline;overflow:visible;enable-background:accumulate" d="M-307.875 230.781c-.362 1.212-.853 1.654-1.375 1.906l.625.344.594.25c.72-.61.364-1.58.156-2.5z" transform="matrix(1.29364 0 0 1.29364 1070.712 -33.965)"/><path style="color:#000;fill:none;stroke:#262626;stroke-width:.2852872;marker:none;visibility:visible;display:inline;overflow:visible;enable-background:accumulate" d="M-283.936 228.152c-.016.101-.04.176-.08.16" transform="matrix(1.29364 0 0 1.29364 1070.712 -33.965)"/><path style="color:#000;fill:#794c27;fill-opacity:1;fill-rule:nonzero;stroke:none;stroke-width:.2852872;marker:none;visibility:visible;display:inline;overflow:visible;enable-background:accumulate" d="M-296.301 236.517c.513-.342 2.137-1.111 2.735-1.368.598-.256 1.71-.683 2.222-.683.513 0 1.624-.513 2.307-.428.684.086 1.795.77 1.795.77l.684-2.137s1.282-1.88 1.538-2.222c.257-.342 1.368-.598.598-.598-.769 0-2.99 0-3.93-.086-.941-.085-1.71.94-2.052 1.624-.342.684-.77 1.026-1.795 1.197-1.025.17-1.794.256-2.82.427-1.026.17-.855-.086-1.538.513-.684.598-2.992.769-2.992.769s.94 1.282 1.453 1.367c.513.086 1.795.855 1.795.855z" transform="matrix(1.29364 0 0 1.29364 1070.712 -33.965)"/><path style="color:#000;fill:#794c27;fill-opacity:1;fill-rule:nonzero;stroke:#b46531;stroke-width:.28528720000000002;marker:none;visibility:visible;display:inline;overflow:visible;enable-background:accumulate" d="M-281.687 234.893c.171.684-.054 4.556-.054 4.556s2.466.04 2.637.895c.17.855.855.373.855.373l.644.29c.425 1.025 2 1.117 2.537 1.525.78.592.557 1.292 1.346 1.838l-1.601 3.422-.794-3.14-1.98-.7c-.048 1.898.714 3.301-.253 4.878.284-.959-.53-2.603-1.519-4.357l-1.095-.663-1.407-1.396s-.683 1.025-.683 1.709c0 .684 1.025 2.393 1.025 2.393l1.197.684s.683 0-.342.512c-1.026.513-2.393.171-2.393.171l-1.88-1.538.683 3.077.684 1.367-1.88-1.025-1.538-2.564-.342 2.222s-.342 1.709-1.026 2.05c-.684.343-2.222-.17-2.222-.17s.513-.855.684-1.538c.17-.684-.342 0-.342 0l-2.393.512v-1.538s1.196-1.026 1.026-1.71c-.171-.683-1.71-2.905-1.71-2.905s1.364-1.987 1.404-3.378c.017-.631.775 1.123 1.857 1.229 1.028.1.291-4.77.924-4.863.545-.08 1.715 1.45 2.273 1.692.99.43 1.234-.32 1.234-.32l.684-1.368.512-2.051c.876-1.07 1.21 2.413 3.248-.171z" transform="matrix(1.29364 0 0 1.29364 1070.712 -33.965)"/><path transform="translate(818.88 -24.696) scale(1.09339)" d="M-111.86 236.8s-5.925 2.309-6.742 2.635c-.817.327-1.797.817-2.94.98-1.144.164-2.288-.326-3.268 0-.98.327-1.852.52-2.996.684-1.143.164-4.325.432-5.468 2.066-1.144 1.634-1.991 4.602-1.991 4.602s1.47-.49 2.777-.49c1.307 0 2.204 1.113 4.165.95 1.96-.164 3.023-2.42 4.003-3.237.98-.817 1.878-.305 3.348-.632 1.47-.326 3.863-2.88 4.68-3.37.816-.49 4.433-4.189 4.433-4.189z" style="color:#000;fill:#8c7033;fill-opacity:1;fill-rule:nonzero;stroke:none;stroke-width:.33753532;marker:none;visibility:visible;display:inline;overflow:visible;enable-background:accumulate"/><path style="color:#000;fill:#85522b;fill-opacity:1;fill-rule:nonzero;stroke:none;stroke-width:.2852872;marker:none;visibility:visible;display:inline;overflow:visible;enable-background:accumulate" d="M-308.608 213.784c1.026 1.623.77 1.965 1.71 2.393.94.427 1.538 1.11 2.05 1.11.513 0 2.052.086 2.308.428.257.342 2.308 1.026 1.368 1.282-.94.256-.94 2.478-1.71 2.307-.769-.17-2.05-.854-2.393-1.196-.341-.342-2.564-2.393-2.905-2.478-.342-.086-.855-.257-1.197-.257-.342 0-1.453-1.025-.94-1.71a15.009 15.009 0 0 1 1.197-1.367z" transform="matrix(1.29364 0 0 1.29364 1070.712 -33.965)"/><path style="color:#000;fill:#704624;fill-opacity:1;fill-rule:nonzero;stroke:none;stroke-width:.2852872;marker:none;visibility:visible;display:inline;overflow:visible;enable-background:accumulate" d="M-284.56 206.777s-3.426 2.742-4.112 3.084c-.685.343-.514-1.884-1.713-.514-1.2 1.371-3.256 2.056-4.284 3.084s-2.056 1.028-2.056 2.056c0 .597-2.19-1.473-3.416-.865-.08.04-1.521.56-3.07.055-1.341-.436-2.806-1.919-3.012-1.756-.294.233-1.659 1.353-1.185 1.898.232.266.826 1.17 1.876 1.54 1.285.451 3.041.358 3.017.472-.217 1.028 1.338 1.483.822 1.57-2.056.342-1.028 1.541-1.885 2.57-.857 1.027-2.57-2.914-3.598-2.914s-3.427-.514-4.112-.17c-.686.342-1.542 1.541-1.2 3.255.343 1.713 1.542 3.426 2.056 4.968.514 1.542 1.028 3.598 1.028 3.598l.514-3.598 1.542 1.885s-.685 2.056 0 3.598c.686 1.542 2.228 3.084 2.228 3.084l1.715.863s2.694 3.33 3.036 2.302c-.512-1.028-.246-1.665-.246-1.665l2.348.556 2.056.172 1.028.342.341-1.886s1.03-1.026 2.23-1.026c1.199 0 2.227.17 2.912-.514.686-.686 1.37-2.228 1.37-2.228h.172s2.913-.343 4.112-.343h4.798c1.2 0 3.255-.17 3.255-.17s3.084.684 3.256 1.713c.171 1.028 2.227 4.626 2.227 4.626l-1.713-6.169-2.228-1.884-.856-1.885-.172-2.57s.343-1.542-.342-1.885c-.686-.342-1.885-.685-1.885-.685l.857-1.713-2.057.342-.514-1.028s1.371-1.2.686-1.37c-.686-.172-1.714-.172-1.714-.172s-.342-1.542-.856-2.399c-.514-.856-1.371-2.227-1.371-2.227v-3.77z" transform="matrix(1.29364 0 0 1.29364 1070.712 -33.965)"/><path style="color:#000;fill:#9e7e3a;fill-opacity:1;fill-rule:nonzero;stroke:none;stroke-width:.28528723;marker:none;visibility:visible;display:inline;overflow:visible;enable-background:accumulate" d="M-302.496 222.862c-.514 1.113-.857 3.084-1.2 4.454-.342 1.371-.342 1.714-.342 2.313 0 .6.342 1.371.6 1.714.256.343 1.456 1.628 2.141 1.2.685-.43 1.542-1.714 1.542-1.714s.514 1.799 1.028 2.056c.514.257 1.8-.343 1.97-.685.172-.343.6-1.114.943-.172.343.943.6 1.97 1.114.857.514-1.114.514-2.056 1.285-3.084.77-1.028.942-1.457 1.199-1.97.257-.515 1.028-.343-.086-1.714-1.113-1.37-1.97-2.056-1.97-2.313 0-.257.428-.771 1.2-.257.77.514 2.484 1.37 2.484 1.37l-1.628-1.627c-.685-.685-1.628-1.542-2.484-1.628-.857-.085-1.885-.6-2.228-.342-.343.257-.6 1.884-.6 1.884s-.685-.085-.77-.514c-.086-.428.256-1.456-.258-.77-.514.685-1.113 2.141-1.627 2.312-.514.172-.771.771-1.114 0-.343-.77-1.2-1.37-1.2-1.37z" transform="matrix(1.29364 0 0 1.29364 1070.712 -33.965)"/><path style="color:#000;fill:#8c7033;fill-opacity:1;fill-rule:nonzero;stroke:none;stroke-width:.28528723;marker:none;visibility:visible;display:inline;overflow:visible;enable-background:accumulate" d="M-297.313 230.529c-.05-.493.99-.132 1.456-.3.487-.175 1.035-.334 1.37-.728.431-.505.342-1.293.643-1.885.135-.264.62-.45.514-.728-.286-.755-1.552-.487-2.356-.557-.726-.063-1.501-.127-2.184.129-.524.196-1.2.128-1.328 1.028-.129.9-.257 1.713-.043 2.099.214.385.962 1.157 1.628 1.156.123 0 .337-.097.3-.214z" transform="matrix(1.29364 0 0 1.29364 1070.712 -33.965)"/><path transform="scale(1.29364) rotate(-38.859 72.662 -958.434)" d="M-297.475 232.892c0 .475-.616.86-1.376.86-.76 0-1.377-.385-1.377-.86s.617-.86 1.377-.86 1.376.385 1.376.86z" style="color:#000;fill:#634324;fill-opacity:1;fill-rule:nonzero;stroke:none;stroke-width:.2852872;marker:none;visibility:visible;display:inline;overflow:visible;enable-background:accumulate"/><path d="M-298.205 229.963c.6-1.988 1.595-2.995 3.978-2.924 0 0-3.032-.461-3.912.516-.538.597-.066 2.408-.066 2.408z" style="color:#000;fill:#614c32;fill-opacity:1;fill-rule:nonzero;stroke:none;stroke-width:.2852872;marker:none;visibility:visible;display:inline;overflow:visible;enable-background:accumulate" transform="matrix(1.29364 0 0 1.29364 1070.712 -33.965)"/><path style="color:#000;fill:#6e4523;fill-opacity:1;fill-rule:nonzero;stroke:none;stroke-width:.2852872;marker:none;visibility:visible;display:inline;overflow:visible;enable-background:accumulate" d="M-302.517 230.928s.496-1.41.798-1.486c.302-.076.916-.142 1.143-.67.226-.53.777-.719.928-1.172.15-.453.15-.975.453-1.126.302-.151.755-.227 1.132-.302.378-.076 1.057-.227 1.963-.227.906 0 1.812.68 1.812.68s-1.283 0-1.66-.076c-.378-.075-1.888.227-2.19.378-.302.15-.68.981-.68 1.283 0 .302-.15.982-.528 1.208-.378.227-.906.227-1.36.68-.452.453-1.056.906-1.056.906z" transform="matrix(1.29364 0 0 1.29364 1070.712 -33.965)"/><path style="color:#000;fill:#ac9076;fill-opacity:1;fill-rule:nonzero;stroke:#865c00;stroke-width:.2852872;marker:none;visibility:visible;display:inline;overflow:visible;enable-background:accumulate" d="M-295.728 222.09c.716-.882 1.24-2.338 2.827-2.57.113-1.95-.56-3.477.77-5.225 1.185-.81 2.035-.963 2.999-1.114-.172 2.185.1 4.276 1.114 5.569-1.3 2.154-2.784 3.755-4.54 4.54" transform="matrix(1.29364 0 0 1.29364 1070.712 -33.965)"/><path style="color:#000;fill:#704624;fill-opacity:1;fill-rule:nonzero;stroke:none;stroke-width:.2852872;marker:none;visibility:visible;display:inline;overflow:visible;enable-background:accumulate" d="M-298.089 238.15s-.895.945-.987 1.551c-.08.53.423 1.551.423 1.551s.883-.846.987-1.41c.106-.572-.423-1.692-.423-1.692z" transform="matrix(1.29364 0 0 1.29364 1070.712 -33.965)"/><path style="color:#000;fill:#9e7e3a;fill-opacity:1;fill-rule:nonzero;stroke:none;stroke-width:.28528723;marker:none;visibility:visible;display:inline;overflow:visible;enable-background:accumulate" d="M-289.75 226.275s3.875-3.882 6.363-4.831c.92-.351 2.063-.673 2.945-.236.586.29.919 1.012 1.061 1.65.13.58-.058 1.2-.236 1.767-.218.696-.508 1.407-1.001 1.945-.973 1.06-3.653 2.297-3.653 2.297l-2.77.59" transform="matrix(1.29364 0 0 1.29364 1070.712 -33.965)"/><path style="color:#000;fill:#7f512a;fill-opacity:1;fill-rule:nonzero;stroke:none;stroke-width:.2852872;marker:none;visibility:visible;display:inline;overflow:visible;enable-background:accumulate" d="M-288.042 226.864c1.454-.177 2.907-.844 4.36-2.12-.567 1.406-1.183 2.779-2.828 3.416z" transform="matrix(1.29364 0 0 1.29364 1070.712 -33.965)"/><path style="color:#000;fill:#704624;fill-opacity:1;fill-rule:nonzero;stroke:none;stroke-width:.2852872;marker:none;visibility:visible;display:inline;overflow:visible;enable-background:accumulate" d="M-266.235 198.688c-.79-.158-3.318-.316-4.266-.316s-3.16.948-3.95.948-2.686.316-3.477.316c-.79 0-2.844-1.106-.948 0 1.897 1.106 4.425 1.106 5.373.948.948-.158 4.582-.632 3.318 0-1.264.632-2.054.79-2.37 1.58-.316.79-.948 1.896.316 1.896s2.212-.316 3.792-.632c1.58-.316 4.898-2.686 4.424-1.58-.474 1.106-1.896 2.528-2.528 3.16-.632.632-1.738 3.476-.79 2.528s1.422-1.896 3.002-3.002c1.58-1.106 4.424-2.686 5.056-2.212.632.474 1.422.948 2.37 1.106.948.158 4.74-.158 5.846 0 1.106.158 6.162.316 7.9 1.264 1.738.948 4.582 1.58 3.792 1.422-.79-.158-3.792-2.37-5.214-2.844-1.422-.474-6.478-1.422-7.9-2.054-1.422-.632-7.268-.79-8.058-1.264s-3.002.158-3.95-.474c-.948-.632-1.738-.79-1.738-.79z" transform="matrix(1.29364 0 0 1.29364 1070.712 -33.965)"/><path style="color:#000;fill:#7d4e28;fill-opacity:1;fill-rule:nonzero;stroke:none;stroke-width:.2852872;marker:none;visibility:visible;display:inline;overflow:visible;enable-background:accumulate" d="M-224.833 226.478c-.948-.632-.79-1.106-1.896-1.58-1.106-.474-.79-2.37-2.054-1.422-1.264.948-2.844 1.58-1.738 2.37 1.106.79 2.37.79 3.16 1.106.79.316 3.634 1.896 3.634 1.896l.632-1.106zM-231.076 227.68l-.632 3.318-.158.632-1.738.158s.79.474 2.054 1.264c1.264.79 4.424 2.686 4.424 2.686s-2.054-2.37-2.212-3.318c-.158-.948 0-2.212 0-2.212z" transform="matrix(1.29364 0 0 1.29364 1070.712 -33.965)"/><path style="color:#000;fill:#7d4e28;fill-opacity:1;fill-rule:nonzero;stroke:none;stroke-width:.2852872;marker:none;visibility:visible;display:inline;overflow:visible;enable-background:accumulate" d="M-40.938 269.906c-.077-.043-.245.422-.5.969-.46-.217-.873-.375-1.156-.375h-3.562l.187 2.438c.613-.103 1.55-.014 2.407.218-.643.248-1.336.326-2.032.5-1.257.315-4.406 2.188-4.406 2.188l6-.313 3.031-.594c1.311 1.14 3.407 2.688 3.407 2.688s.748-.38.187-1.875c-.56-1.496-.94-2.44-1.875-3.375-.435-.435-1.036-.847-1.625-1.188v-.687c0-.393-.018-.57-.063-.594z" transform="translate(818.88 -24.696) scale(1.09339)"/><path style="color:#000;fill:#704624;fill-opacity:1;fill-rule:nonzero;stroke:none;stroke-width:.2852872;marker:none;visibility:visible;display:inline;overflow:visible;enable-background:accumulate" d="M-270.501 217.49s2.212.79 2.686 1.58c.474.79 1.896 2.686 1.896 2.686s0 1.739.79 2.213 1.738 1.106 2.37 1.58c.632.474 2.054 1.896 2.054 1.896s.632 2.054.79 2.686c.158.632.158 2.212.948 2.844.79.632 1.264 1.264 1.896 1.58.632.316 1.264.948 1.264 1.58 0 .632 0 2.37.316 3.476.316 1.106.79 1.738 1.58 2.212.79.474 1.58 1.106 2.212 1.264.632.158 2.054.316 2.054.316l-2.37.79s-2.686-.948-1.58-.474c1.106.474 1.738.948 2.686 1.58.948.632.79.79 1.896.948 1.106.158 2.686.474 2.686.474l-.158.79s-2.686.474-3.318 0c-.632-.474-2.844-1.738-2.844-1.738s2.686 2.212 3.318 2.37c.632.158 2.054.632.79.632-1.264 0-2.054 1.264-3.002.948-.948-.316-1.896-.316-.948.158s4.424-.306 4.424-.306 2.337-1.385 1.547.037c-.79 1.422-1.776 1.526-2.882 1.526s-1.351 1.113-2.299 1.271c-.948.158-3.16.316-3.16.316s-.79-.948-.948-2.686c-.158-1.738-1.58-4.108-2.054-4.582-.474-.474-.79-3.476-.79-3.476s-.474-2.844-.79-3.476c-.316-.632-2.37-4.108-2.37-4.108s-.158-1.264-.948-3.634c-.79-2.37-2.528-4.108-2.528-4.108s-2.37-2.687-3.476-3.635c-1.106-.948-1.422-3.95-1.422-3.95z" transform="matrix(1.29364 0 0 1.29364 1070.712 -33.965)"/><path style="color:#000;fill:#794c27;fill-opacity:1;fill-rule:nonzero;stroke:none;stroke-width:.2852872;marker:none;visibility:visible;display:inline;overflow:visible;enable-background:accumulate" d="M-281.974 230.233s-1.209.605-.725 2.055c.483 1.45 1.571 2.175 1.934 2.78.362.604 1.933 2.659 1.933 3.626 0 .967.967 2.175.967 2.175s.484-1.33.605-1.813c.12-.483.362-2.538.604-1.692.242.846.604 2.9.846 3.505s.484 1.33.484-.242c0-1.57 1.208-3.021 1.329-3.505.12-.483 0-.725 0-1.813 0-1.087-1.45-2.175-1.45-2.175l-.967 1.209-.846-1.45-1.692-1.33s.967 1.692.362 1.692c-.604 0-.362.604-1.208 0a7.218 7.218 0 0 1-1.33-1.209l-.483-.967zM-273.876 238.573l1.088 3.867 3.746.846 4.956 1.813-1.088-2.9-2.659-1.088s-.242-1.692-.846-2.296c-.604-.605-1.088-.484-1.209-.967-.12-.484-1.933-1.33-2.175-2.176-.242-.846-.484-2.538-.484-1.209 0 1.33.363 3.264.363 3.264l-.967-1.571zM-268.196 244.737c.847.967 1.771 2.547 2.297 3.988.392 1.077.604 3.384.604 3.384s1.17-3.444.484-4.955c-.574-1.262-3.385-2.417-3.385-2.417zM-271.26 227.543s.51 2.746 1.196 3.932c.626 1.081 1.958 1.642 2.564 2.734.859 1.547 1.138 3.374 1.368 5.128.044.34 0 1.026 0 1.026s-.092-3.078-.171-4.615c-.045-.856.204-1.794-.171-2.564-.637-1.306-2.338-1.773-3.248-2.906-.655-.815-1.538-2.735-1.538-2.735z" transform="matrix(1.29364 0 0 1.29364 1070.712 -33.965)"/><path style="color:#000;fill:#704624;fill-opacity:1;fill-rule:nonzero;stroke:none;stroke-width:.2852872;marker:none;visibility:visible;display:inline;overflow:visible;enable-background:accumulate" d="M-292.113 241.303c.256.854.683 1.11 1.282 2.478.598 1.368.342 2.479.085 2.82-.256.342-.769 1.453-.769 1.453l.085 1.453s1.197-1.624 1.539-2.05c.342-.428.854-.94.94-1.368.085-.428-.086-1.966-.086-2.564 0-.598-.17-1.624.171-.855.342.77.855 1.368 1.026 2.137.17.769.085 1.196.77 2.307a42.524 42.524 0 0 0 1.623 2.393s-.427-1.623-.598-2.564c-.171-.94-.086-1.623-.342-2.82-.257-1.196-1.026-2.82-1.026-2.82s.342.598.94.94c.599.342 1.282.085 1.624.94.342.855.427 2.051 1.026 2.478.598.428 1.794 1.111 1.794 1.111s-1.452-2.392-1.538-3.247c-.085-.855-.684-2.393-.94-2.906-.256-.513-.855-1.196.085-.427.94.769 1.453 1.11 2.137 1.71.684.597 1.88 1.537 2.393 1.366.513-.17 1.367-.341 1.367-.341s1.282.427 1.966.854c.684.428 1.453 2.137 1.453 2.137l.085-1.197-1.196-1.453s-1.026-.854-1.453-.854c-.427 0-1.538-.513-2.051-.855-.513-.342-2.325-1.957-2.325-1.957l.017-2.316s-.512-1.282-.854-1.025c-.342.256-1.282 1.538-1.282 1.538s-1.71 1.624-2.137 1.71c-.427.085-.598.426-1.282 0-.683-.428-1.453-2.821-1.538-1.625-.085 1.197 0 1.71-.085 2.735-.086 1.026-.94 1.624-.94 1.624z" transform="matrix(1.29364 0 0 1.29364 1070.712 -33.965)"/><path style="color:#000;fill:#7d4e28;fill-opacity:1;fill-rule:nonzero;stroke:none;stroke-width:.2852872;marker:none;visibility:visible;display:inline;overflow:visible;enable-background:accumulate" d="m-285.96 203.614-2.051 2.222.513 1.88 2.222-2.393 1.367 1.88s2.051.342 2.735.342c.684 0 3.248-1.71 3.248-1.71s-1.368-.512-2.052-.341c-.683.17-2.905.17-2.905.17l2.05-1.88 2.394-1.88s1.538-1.196.342-.854c-1.197.342-2.222 1.367-2.222.512 0-.854.512-2.222.512-2.222l-2.05.342s-.855 0-1.368 1.026c-.513 1.025-1.368 1.88-1.368 1.88zM-277.414 207.374l2.735-.513 2.393-.342s-.854.855-1.538 1.026c-.684.17-2.393.342-2.393.342zM-272.628 209.254l2.051-.684s.855.342 1.71.342c.854 0 1.196-.17 2.222-.342 1.025-.17-1.197 1.368-1.197 1.368l-2.393-.684z" transform="matrix(1.29364 0 0 1.29364 1070.712 -33.965)"/><path style="color:#000;fill:#7b542f;fill-opacity:1;fill-rule:nonzero;stroke:none;stroke-width:.2852872;marker:none;visibility:visible;display:inline;overflow:visible;enable-background:accumulate" d="M-292.247 235.25s.725.18 1.027.483c.302.302.423.423.604.846.182.423.242 1.027.242 1.027s.423.483.363.12c-.06-.362 0-.845-.06-1.268-.061-.423-.726-1.028-.726-1.028zM-288.561 235.128c.12.363.302.725.483 1.33.182.604.182.906.484 1.45.302.544.906 1.088.665.725-.242-.362-.423-.362-.484-.846-.06-.483.06-.846-.181-1.269-.242-.423-.181-.483-.423-.846s-.544-.544-.544-.544zM-292.006 237.848c0 .362-.12.664.242 1.087.363.423.665.544.725 1.028.06.483.06 1.39.06 1.39s.242-.605.242-1.088c0-.484-.725-1.45-.725-1.45z" transform="matrix(1.29364 0 0 1.29364 1070.712 -33.965)"/><path style="color:#000;fill:#794c27;fill-opacity:1;fill-rule:nonzero;stroke:none;stroke-width:.2852872;marker:none;visibility:visible;display:inline;overflow:visible;enable-background:accumulate" d="M-278.469 230.112c.363.303.967.726 1.27.907.301.181 1.147.423 1.57.906.423.484.484.967.484.967s.423-.906-.242-1.39c-.665-.483-1.692-.846-1.692-.846zM-262.948 241.92s1.447 2.369 1.806 3.69c.275 1.013.05 2.108.235 3.14.218 1.207 1.021 3.534 1.021 3.534s-.413-2.198-.314-3.298c.078-.866.869-1.657.707-2.512-.355-1.872-3.455-4.554-3.455-4.554z" transform="matrix(1.29364 0 0 1.29364 1070.712 -33.965)"/><path style="color:#000;fill:#704624;fill-opacity:1;fill-rule:nonzero;stroke:none;stroke-width:.2852872;marker:none;visibility:visible;display:inline;overflow:visible;enable-background:accumulate" d="M-273.031 244.313s1.514 1.351 1.906 1.875c.392.523.594.925.594 1.906 0 .98.045 1.514-.281 1.906a1.65 1.65 0 0 1-.375.313v.468c-.622-.023-1.114.734-1.563 1.75l3.438-.625 1.562 4.531s2.903 4.031 3.531 4.188c.403.1 4.296 2.84 7.094 3.125 1.286.131 2.226-1.268 2.688-1.844-.795-.503-1.47-1.03-1.907-1.469-.784-.784-1.036-1.363-1.625-2.343-.588-.98-1.781-1.969-1.781-1.969s-.576-1.346-.969-2c-.392-.654-1.696-1.517-1.5-1.125.196.392.364 1.05.625 2.75.262 1.7 1.071 3.386 1.594 3.844.523.457 1.426 1.386.969 1.125-.458-.262-2.867-1.633-3.063-2.156-.196-.524-.647-2.165-.844-2.688-.196-.523-.55-1.954-.812-3s-.497-4.382-.563-2.094c-.065 2.288.438 4.452.438 4.844 0 .392.517 2.486.125 2.094-.392-.393-1.688-3.594-1.688-3.594l-.968-2.813s.367.055-.156-1.187c-.524-1.242-1.151-2.738-1.282-3-.13-.262-1.193-1.779-1.062-1.125.13.654.463 2.096.594 2.75.13.654.593 3.281.593 3.281s-.397.055-.594-.469c-.196-.523-.53-.908-.53-1.562s-.126-2.5-.126-2.5-.457-.83-.719-1.156c-.261-.327-.323-.13-.78-.719-.458-.588-2.563-1.313-2.563-1.313z" transform="matrix(1.29364 0 0 1.29364 1070.712 -33.965)"/><path style="color:#000;fill:#85522b;fill-opacity:1;fill-rule:nonzero;stroke:none;stroke-width:.2852872;marker:none;visibility:visible;display:inline;overflow:visible;enable-background:accumulate" d="M-263.214 248.358s.85.523.98 1.307c.131.785.131 2.877.131 2.877s.523.13.589-.196c.065-.327-.262-1.896-.327-2.485-.066-.588-1.373-1.503-1.373-1.503zM-259.945 251.43c.065.393.588.981 1.111 2.289.523 1.307.392 1.896 1.111 2.157.72.262 1.243.458 1.243.458s-1.046-.262-1.046-.98c0-.72-.131-1.178-.131-1.7 0-.524-.523-1.962-.523-1.962zM-258.05 246.789c.197.719.458 1.307.458 1.83 0 .523-.13 1.439-.13 1.439s-.197 1.242.065 1.765l.458.915s-.131-1.177-.131-1.504c0-.327.327-.98.457-1.307.131-.327.197-.523.197-.785 0-.261-.262-1.046-.458-1.373-.196-.327-.915-.98-.915-.98zM-257.125 253.906c-.193-.033-.242.04-.063.219.72.72 1.946 2.025 2.47 2.156.522.131 1.505.244 2.093.375.588.131 1.438.281 1.438.281l.312.157.875-.656-3.75-.782s1.248-.934 1.719-1.562c.038-.051.107-.124.156-.188-.235.126-.47.237-.625.281l-2.281.657s-1.765-.837-2.344-.938zm2.031 4.375c-.457 0 .125.875.125.875l.969.5s.721.279 1.375.344c.525.052.969.038 1.563.125 1.249-.64 2.406-1.25 2.406-1.25h-1.625l-3.313.25.938-.688c-.562-.013-2.008-.156-2.438-.156z" transform="matrix(1.29364 0 0 1.29364 1070.712 -33.965)"/><path style="color:#000;fill:#794c27;fill-opacity:1;fill-rule:nonzero;stroke:none;stroke-width:.2852872;marker:none;visibility:visible;display:inline;overflow:visible;enable-background:accumulate" d="M-266.549 230.379c.327 1.176 1.046 2.55 1.112 2.942.065.392.784 1.961 1.177 2.353.392.393 1.307 1.177 1.307 1.177s.523.392.654.85c.13.458.523 2.027.523 2.027s-.13 1.177.196 1.569c.327.392.785.654 1.112 1.242.326.588.784 1.765.784 1.765s.13-1.373.13-1.83c0-.458-.522-2.027-.653-2.42-.13-.392-1.177-2.745-1.438-3.203-.262-.458-2.223-1.83-2.223-1.83z" transform="matrix(1.29364 0 0 1.29364 1070.712 -33.965)"/><path style="color:#000;fill:#8c7033;fill-opacity:1;fill-rule:nonzero;stroke:none;stroke-width:.33753532;marker:none;visibility:visible;display:inline;overflow:visible;enable-background:accumulate" d="M-103.178 240.625c.635-.952 1.27-2.222 3.174-1.905 1.905.318 2.699.794 5.239 1.112 2.54.317 4.603.317 6.508.317 1.905 0 4.603-1.111 5.238.159.635 1.27.794 4.603.794 4.603s-.635 4.921-2.381 4.445c-1.746-.476-5.715-1.111-6.35-.953-.635.16.159 2.699.159 2.699s1.429 6.667.317 6.984c-1.11.318-2.698-2.698-3.65-4.127-.953-1.429-2.699-4.127-3.81-5.08-1.111-.952-2.699-2.857-2.699-2.857z" transform="translate(818.88 -24.696) scale(1.09339)"/><path style="color:#000;fill:#794c27;fill-opacity:1;fill-rule:nonzero;stroke:none;stroke-width:.2852872;marker:none;visibility:visible;display:inline;overflow:visible;enable-background:accumulate" d="M-270.798 220.833s-.131 1.504-.066 1.896c.066.393.654 1.308.785 1.7.13.392.327.85.458 1.438.13.589.326 1.962.326 1.962s-.13.588.197.784c.326.197 1.176.393 1.438.589.261.196 1.046 1.438.915 1.177-.13-.262-1.503-2.289-1.503-2.289l-.262-.915s.72-.261.98.196c.262.458 1.635 1.373 1.635 1.373l-1.307-2.419-.262-1.307s-.458-.066-.784-.327c-.327-.262-.262-.523-.85-1.243-.589-.719-1.7-2.615-1.7-2.615z" transform="matrix(1.29364 0 0 1.29364 1070.712 -33.965)"/><path style="color:#000;fill:#7d4e28;fill-opacity:1;fill-rule:nonzero;stroke:none;stroke-width:.2852872;marker:none;visibility:visible;display:inline;overflow:visible;enable-background:accumulate" d="M-280.605 210.961c.327-.392 1.242-.784 1.634-.85.393-.065 1.243-.261 1.243-.261l-.393.719h1.112s.719-.523 1.438-.392c.72.13 1.373.784 1.765.784.393 0 1.83-.065 2.289.13.457.197 1.896.785 1.896.785s-1.766-.196-2.158-.261c-.392-.065-1.504-.13-2.027-.196-.523-.066-1.307-.523-1.634-.589-.327-.065-.458-.196-1.242 0-.785.197-1.504.327-1.766.327-.261 0-.719-.196-1.176-.065-.458.13-.981-.13-.981-.13zM-273.61 214.165s.589-.523 1.112-.589c.523-.065 1.111-.392 1.373-.457.261-.066-.196.457-.392.719-.197.261-.327.392-.327.392h.719c.261 0 .915.13 1.111-.13.196-.262.85-.72.85-.72l.196 1.112h.916c.523 0 .98 0 1.242-.262.261-.261.327-.327.784-.72.458-.391.393-.391.85-.588.458-.196 1.112-.261 1.112-.261s-1.046.196-1.242.523c-.197.327-.327.85-.589 1.111-.261.262-.523.916-1.046.981-.523.066-1.177.066-1.634.066-.458 0-.981.13-1.635-.131-.654-.262-.915-.523-1.504-.589-.588-.065-1.046 0-1.307-.065-.262-.065-.589-.392-.589-.392z" transform="matrix(1.29364 0 0 1.29364 1070.712 -33.965)"/><path style="color:#000;fill:#7d4e28;fill-opacity:1;fill-rule:nonzero;stroke:none;stroke-width:.2852872;marker:none;visibility:visible;display:inline;overflow:visible;enable-background:accumulate" d="M-281.586 211.615c.589-.065 1.242-.13 1.7.13.458.262 1.373.654 1.7.85.327.197.588.589 1.177.654.588.066 1.111.131 1.438.458.327.327.98 1.046 1.438 1.242.458.196 1.504.785 1.504.785s1.112.457 1.439.588c.326.13.523.196.915 0s.588-.457.588-.13c0 .326-.13.522.262.522s.784-.065 1.307-.065c.523 0 1.373-.13 1.373-.13s1.439-.328 1.7-.262c.262.065.72.327.72.327s.195.261-.066.327c-.262.065-.85-.262-.85-.262s-1.373.262-1.765.262c-.393 0-1.57.065-1.962.065-.392 0-1.961.196-2.484.065-.523-.13-1.83-1.046-1.83-1.046s-1.308-.719-1.57-.915c-.261-.196-1.111-.85-1.111-.85s-1.046-.784-1.373-.784c-.327 0-.13.196-.85-.066-.72-.261-1.896-1.046-1.896-1.046l-1.046-.588z" transform="matrix(1.29364 0 0 1.29364 1070.712 -33.965)"/><path style="color:#000;fill:#85522b;fill-opacity:1;fill-rule:nonzero;stroke:none;stroke-width:.2852872;marker:none;visibility:visible;display:inline;overflow:visible;enable-background:accumulate" d="M-280.736 213.772c.327.066.85.523 1.242.589.393.065 1.504.261 1.896.327.393.065 1.57.196 1.046.065-.523-.13-1.111-.13-1.372-.458-.262-.326-.197-.392-.654-.457-.458-.066-.196.065-.785-.066-.588-.13-1.373 0-1.373 0z" transform="matrix(1.29364 0 0 1.29364 1070.712 -33.965)"/><path style="color:#000;fill:#794c27;fill-opacity:1;fill-rule:nonzero;stroke:none;stroke-width:.2852872;marker:none;visibility:visible;display:inline;overflow:visible;enable-background:accumulate" d="M-275.436 216.982c.554 1.387.554 2.127 1.017 2.496.462.37 1.11 1.11 1.48 1.572.369.463 1.386 3.883 1.294 3.051-.093-.832-1.11-3.975-1.11-3.975l-1.664-1.202z" transform="matrix(1.29364 0 0 1.29364 1070.712 -33.965)"/><path style="color:#000;fill:#7b542f;fill-opacity:1;fill-rule:nonzero;stroke:none;stroke-width:.2852872;marker:none;visibility:visible;display:inline;overflow:visible;enable-background:accumulate" d="M-283.281 199.219c-.313.15-.66.294-1.125.469-1.368.512-2.156 2.812-2.156 2.812l-.438.25c-.427.256-.677.619-1.531.875-.855.256-.76.66-1.188 1.344-.427.683-1.375 1.125-1.375 1.125s-1.01.095-1.437.437c-.428.342-1.469 1.281-1.469 1.281s-1.198-.091-1.625.25c-.427.342-1.268.682-1.781.938-.513.256-1.623.5-2.563.5-.94 0-.941-.004-1.625-.688-.683-.683-1.47.455-1.812.625-.342.171-1.01-.008-1.438-.093-.427-.086-.69-.952-1.031-.781-.342.17-.414 1.103-.5 1.53-.086.428-.938 1.563-.938 1.563s-1.308.33-1.906.5c-.598.171-1.018.088-1.531.344-.513.256.015.256-.156 1.281-.081.485-.079.44-.094.532.314.492.698.854.969.718.37-.185 1.224-1.192 1.594-1.562.37-.37.548-1.38 1.75-1.656 1.202-.278 2.317-.754 2.687-1.032.37-.277.538-.562 1-.562h1.5c.462 0 1.57-.719 2.125-.719.555 0 2.288.186 2.75.094.462-.093 1.76-1.031 2.406-1.031.648 0 1.663-.472 2.125-.657.463-.185 1.136-.445 1.875-1 .74-.555 2.125-1.219 2.125-1.219l1.188-2.03 2.594-3.407s.303-.201 1.03-1.031z" transform="matrix(1.29364 0 0 1.29364 1070.712 -33.965)"/><path style="color:#000;fill:#7d4e28;fill-opacity:1;fill-rule:nonzero;stroke:none;stroke-width:.33753529;marker:none;visibility:visible;display:inline;overflow:visible;enable-background:accumulate" d="M-115.06 238.443c-1.257 1.415-1.572 1.572-2.515 1.572-.943 0-2.672.314-2.672.314l-1.1 1.572s1.729-.629 2.357-.629c.63 0 2.987-.628 2.987-.628z" transform="translate(818.88 -24.696) scale(1.09339)"/><path style="color:#000;fill:#937536;fill-opacity:1;fill-rule:nonzero;stroke:none;stroke-width:.28528723;marker:none;visibility:visible;display:inline;overflow:visible;enable-background:accumulate" d="M-272.68 201.05c-.574.229-2.294.229-3.097.344-.803.114-2.065 1.032-2.523 1.49-.459.46-2.18 2.065-2.18 2.065s2.18-.459 2.868-.574c.688-.114 1.835-.114 1.835.574s-2.523 1.95-2.523 1.95l-2.523 1.49s2.981-1.835 3.555-2.293c.573-.459 4.014-1.147 4.014-1.147l1.49 1.032-.802 2.18s1.032.114 1.49-.116c.46-.229 1.95-.344 1.95-.344s.23-.23.345-.688c.114-.459-.115-.917.458-1.49.574-.574 1.491-1.606 1.491-1.606s-.803-.23-1.261.23c-.459.458-1.835 1.146-1.835 1.146l-2.18.23-1.49-1.95z" transform="matrix(1.29364 0 0 1.29364 1070.712 -33.965)"/><path style="color:#000;fill:#7d4e28;fill-opacity:1;fill-rule:nonzero;stroke:none;stroke-width:.33753529;marker:none;visibility:visible;display:inline;overflow:visible;enable-background:accumulate" d="M-216.18 252.354c0 1.594.265 4.783-.532 6.111-.797 1.329-3.454 6.909-3.454 6.909s3.72-3.72 4.251-5.049c.532-1.328 2.392-3.72 2.392-3.72l-.798-.531z" transform="matrix(1.29364 0 0 1.29364 1070.712 -33.965)"/><path style="color:#000;fill:#b48f42;fill-opacity:1;fill-rule:nonzero;stroke:none;stroke-width:.33753532;marker:none;visibility:visible;display:inline;overflow:visible;enable-background:accumulate" d="M-43.174 242.772c-2.273 0-10.453-.455-13.634-.91-3.182-.454-13.634-2.726-13.634-2.726s-7.726 4.09-7.726 7.271c0 3.182 2.272 6.363 6.362 6.363s11.816-3.181 14.998-3.181c3.18 0 9.998.454 13.18.454 3.18 0 7.725-.454 9.088 1.818 1.364 2.272 2.273 4.999 2.727 6.817.455 1.818-4.09 4.999-4.544 7.726-.455 2.727 1.817 8.635 5.908 9.09 4.09.454 10.452-1.819 11.361-5 .91-3.181 4.09-16.815 4.09-16.815s-5.453-2.727-9.543-4.09l-13.634-4.545z" transform="translate(818.88 -24.696) scale(1.09339)"/><path style="color:#000;fill:#7d4e28;fill-opacity:1;fill-rule:nonzero;stroke:none;stroke-width:.33753532;marker:none;visibility:visible;display:inline;overflow:visible;enable-background:accumulate" d="m-31.5 309.125-4.156.625-2.25 2.906 3.5 2.5 1-1.156 6.125-2.625-1.157-1.813-3.062-.437z" transform="translate(818.88 -24.696) scale(1.09339)"/><path style="color:#000;fill:#9e7e3a;fill-opacity:1;fill-rule:nonzero;stroke:none;stroke-width:.33753532;marker:none;visibility:visible;display:inline;overflow:visible;enable-background:accumulate" d="M-32.62 272.63c0 1.93.58 5.404.966 6.176.386.772 7.141 7.527 7.141 7.527s.193-.772.772-1.737c.58-.965 4.054-6.176 5.212-7.141 1.158-.965 4.439-5.019 4.439-5.019s1.737-3.667 2.51-7.527c.771-3.86.964-8.107.964-8.107l-2.895-2.316s-1.351 4.825-1.544 6.756c-.193 1.93-3.667 8.492-3.667 8.492s-3.282 3.474-4.44 3.474c-1.158 0-9.457-.579-9.457-.579z" transform="translate(818.88 -24.696) scale(1.09339)"/></g><path d="M148.283 584.02h156.72" style="color:#000;fill:none;stroke:#0a0a0a;stroke-width:1.61131108;stroke-linecap:butt;stroke-linejoin:miter;stroke-miterlimit:4;stroke-opacity:1;stroke-dasharray:none;stroke-dashoffset:0;marker:none;visibility:visible;display:inline;overflow:visible;enable-background:accumulate" transform="matrix(1.14115 0 0 1.14115 490.48 -451.285)"/><path style="color:#000;fill:#6a4222;fill-opacity:1;fill-rule:nonzero;stroke:none;stroke-width:.33753529;marker:none;visibility:visible;display:inline;overflow:visible;enable-background:accumulate" d="M-123.076 240.958h-1.887l-2.829 1.257-2.2.315 2.357.314 2.83-1.572zM-124.648 243.159l1.572-.944 3.143.315-2.83.314z" transform="translate(806.354 .64)"/><path style="color:#000;fill:none;stroke:#0a0a0a;stroke-width:1.83874583;stroke-linecap:butt;stroke-linejoin:miter;stroke-miterlimit:4;stroke-opacity:1;stroke-dasharray:none;stroke-dashoffset:0;marker:none;visibility:visible;display:inline;overflow:visible;enable-background:accumulate" d="M-146 141.688c.03 17.12.244 32.971-.094 48.25v27.75c.137 4.591.231 11.8.25 20.218v.781c.203 27.777-.162 64.268-.375 76.438-.026 1.48-.066 2.419-.093 3.188.03 1.24.15 2.175.656 3.375.67 1.587 3.312 3.968 3.312 3.968L-104 342.187s30.476 13.83 46.813 14.844c.09.006.19-.005.28 0 .092-.005.19.006.282 0 16.337-1.014 46.813-14.844 46.813-14.844l38.343-16.53h.032c.05-.046 2.617-2.397 3.28-3.97.47-1.111.612-1.99.657-3.093-.021-.804-.065-1.806-.094-3.469-.233-13.353-.701-56.04-.343-84.281.004-.728.025-1.555.03-2.25.037-4.317.075-8.151.157-10.906v-27.75c-.337-15.279-.123-31.13-.094-48.25H-146z" transform="translate(806.354 .64)"/><path style="color:#000;fill:#a5833d;fill-opacity:1;fill-rule:nonzero;stroke:none;stroke-width:.33753532;marker:none;visibility:visible;display:inline;overflow:visible;enable-background:accumulate" d="M-178.144 319.903c3.125 0 29.69 3.125 29.69 3.125s8.595 2.344 16.018 4.688 22.793 16.34 26.309 15.169c3.516-1.172 13.148-7.356 15.492-8.137 2.344-.781 3.126-8.595 3.126-8.595s-8.595-2.344-11.33-3.125c-2.734-.781-15.626-1.172-18.752-1.563-3.125-.39-21.486-5.078-21.486-5.078l-8.986-5.08s-2.344.392.39 2.736c2.736 2.344 9.768 6.64 9.768 6.64s8.204 3.517 4.688 2.736c-3.516-.782-22.66-7.032-25.003-7.032-2.344 0-19.924 3.516-19.924 3.516z" transform="translate(856.308 5.72)"/><path d="M164.84 679.142c-1.215 1.459-1.945 3.404 0 3.647 1.945.243 3.404-1.215 5.593-.972 2.188.243 4.863 1.459 8.996 1.459 4.134 0 13.13 1.702 13.13 1.702s4.377 2.188 6.079 3.16c1.702.973 4.863 1.46 5.836.244.972-1.216 2.188-4.377 1.215-5.106-.972-.73-1.702-1.702-3.89-1.216s-5.836 1.702-5.836 1.702-6.808-.973-7.78-1.216c-.973-.243-2.675-1.702-5.35-1.459-2.674.243-6.565.243-7.78 0-1.216-.243-3.405-.486-5.35-.486-1.945 0-4.863-1.459-4.863-1.459zM244.35 681.817s-2.918 2.188-3.89 2.188c-.973 0-2.675-.73-3.89-.243-1.216.486-3.162 2.918-3.162 2.918s-1.215 1.459-.243 1.459c.973 0 3.161-1.702 4.62-1.46 1.459.244 1.945 3.405.973 3.891-.973.486-3.161.486-4.377.486h-2.675s-4.376-.486-3.89.487c.486.972 2.675 1.702 2.675 3.404s-2.189 4.133-3.405 4.133c-1.215 0-3.404.243-4.863-.486-1.458-.73-5.106-3.647-1.945-.973 3.161 2.675 5.593 3.89 7.052 3.89 1.458 0 2.674 0 5.349-.242 2.675-.244 6.322-1.46 7.78-1.46 1.46 0 6.08-1.215 7.295-1.944 1.216-.73 2.432-1.46 2.918-3.405.486-1.945-.973-5.106-.973-5.106s-1.459-3.89-2.188-4.376c-.73-.487-3.161-3.161-3.161-3.161z" style="color:#000;fill:#88552c;fill-opacity:1;fill-rule:nonzero;stroke:none;stroke-width:.36905777;marker:none;visibility:visible;display:inline;overflow:visible;enable-background:accumulate" transform="matrix(1.14115 0 0 1.14115 490.48 -451.285)"/><path style="color:#000;fill:#88552c;fill-opacity:1;fill-rule:nonzero;stroke:none;stroke-width:.36905777;marker:none;visibility:visible;display:inline;overflow:visible;enable-background:accumulate" d="M202.246 689.786s6.175 1.88 7.249 2.417c1.074.537 11.545 5.37 11.545 5.37l-8.592-7.25-7.249-3.49 2.417 3.49zM207.616 684.148l9.128 6.444 11.008.268-10.471-2.416zM189.359 688.712l13.155 9.666 10.471-2.148c-9.704-1.287-16.576-4.461-23.626-7.518z" transform="matrix(1.14115 0 0 1.14115 490.48 -451.285)"/><path style="color:#000;fill:#a06434;fill-opacity:1;fill-rule:nonzero;stroke:none;stroke-width:.42114985;marker:none;visibility:visible;display:inline;overflow:visible;enable-background:accumulate" d="M-154.972 306.906c-.277 2.486.276 6.354.276 6.354s12.43-.83 11.05-3.315c-1.382-2.487-2.763-5.525-2.763-5.525-3.6.082-6.436.93-8.563 2.486z" transform="translate(856.308 5.72)"/><path style="color:#000;fill:#88552c;fill-opacity:1;fill-rule:nonzero;stroke:none;stroke-width:.36905777;marker:none;visibility:visible;display:inline;overflow:visible;enable-background:accumulate" d="M174.82 671.861v3.631s4.6-.242 5.81.242 6.778 1.695 6.778 1.695l-7.02-3.39-.485-.968z" transform="matrix(1.14115 0 0 1.14115 490.48 -451.285)"/><path style="color:#000;fill:#88552c;fill-opacity:1;fill-rule:nonzero;stroke:none;stroke-width:.36905777;marker:none;visibility:visible;display:inline;overflow:visible;enable-background:accumulate" d="M174.224 672.303s.172 2.91.343 3.595c.17.685.684 1.712 1.54 1.883.856.171 2.568.171 3.766.171s2.91-.342 2.91-.342-4.964.855-6.162.855c-1.198 0-3.081-.17-4.45-.342-1.37-.171-2.568.514-2.568-.171s.513-2.225 1.198-3.081c.685-.856 3.423-2.568 3.423-2.568z" transform="matrix(1.14115 0 0 1.14115 490.48 -451.285)"/><path style="color:#000;fill:#88552c;fill-opacity:1;fill-rule:nonzero;stroke:none;stroke-width:.42114985;marker:none;visibility:visible;display:inline;overflow:visible;enable-background:accumulate" d="m253.821 693.257 1.732-2.165 7.36-.866 5.629 4.33-6.495 3.03z" transform="matrix(1.14115 0 0 1.14115 490.48 -451.285)"/><path style="color:#000;fill:#88552c;fill-opacity:1;fill-rule:nonzero;stroke:none;stroke-width:.42114985;marker:none;visibility:visible;display:inline;overflow:visible;enable-background:accumulate" d="m-141.421 313.652 4.297 3.125 14.455 1.563-16.408-.781zM-124.623 323.028s7.032 2.735 8.986 3.907c1.953 1.172 12.5 2.344 12.5 2.344s-9.375-3.516-10.938-3.516c-1.562 0-10.548-2.735-10.548-2.735zM-121.888 321.075c1.563 0 14.845 2.734 14.845 2.734l4.688.782zM-146.5 318.34c1.563.39 13.283 3.907 13.283 3.907l-8.204-3.126zM-77.743 318.34c1.563-.39 3.907-.781 3.907-.781s1.563 1.172 3.516 1.172 6.25 1.172 6.25 1.172l-7.422.78-3.516-1.171zM-90.244 316.777l-3.907-1.172s-3.516.782-5.078.782h-2.344s3.906.78 5.469.78c1.563 0 5.86-.39 5.86-.39zM-40.239 323.81l6.251-2.345s6.641-.39 4.688-.781c-1.953-.39-7.032-2.735-8.595-1.172-1.562 1.563-2.344 4.297-2.344 4.297z" transform="translate(856.308 5.72)"/><path style="color:#000;fill:#88552c;fill-opacity:1;fill-rule:nonzero;stroke:none;stroke-width:.42114985;marker:none;visibility:visible;display:inline;overflow:visible;enable-background:accumulate" d="M-113.684 321.856c2.735 0 9.767 1.563 11.33 1.953 1.562.39 5.078.782 3.125 1.172-1.954.39-7.423-.39-8.986-.781-1.562-.39-5.47-2.344-5.47-2.344z" transform="translate(856.308 5.72)"/><path style="color:#000;fill:#a5833d;fill-opacity:1;fill-rule:nonzero;stroke:none;stroke-width:.33753532;marker:none;visibility:visible;display:inline;overflow:visible;enable-background:accumulate" d="M-81.259 319.121c2.344 0 5.86 3.516 8.204 3.907 2.344.39 8.204 1.563 10.158 2.344 1.953.781 7.813 1.172 7.813 1.172s-8.204 1.563-9.767 1.172c-1.562-.39-3.516-1.563-7.422-2.344-3.907-.781-8.986-6.25-8.986-6.25z" transform="translate(856.308 5.72)"/></g></svg>