<svg xmlns="http://www.w3.org/2000/svg" xmlns:xlink="http://www.w3.org/1999/xlink" version="1.0" width="1200" height="600"><path style="fill:#fff;fill-rule:evenodd" d="M0 0h1200v600H0z"/><path d="M1200 600v-64L142 0H0v65l1056 535h144z" id="a" style="fill:#0047b6"/><use transform="matrix(-1 0 0 1 1200 0)" width="1200" height="600" xlink:href="#a"/><path d="m500.082 181.735 201.18-.547s.412 60.801-1.063 127.243c-1.924 86.645-77.123 136.438-99.527 135.157-26.123-1.473-98.05-53.334-101.105-134.186-2.25-59.596.515-127.667.515-127.667z" style="fill:#fdd44f;fill-opacity:1;fill-rule:evenodd;stroke:#000;stroke-width:2.88000011;stroke-linecap:butt;stroke-linejoin:miter;stroke-miterlimit:4;stroke-dasharray:none;stroke-opacity:1"/><path d="M653.02 223.186c-1.81 6.334-2.238 5.198-11.288 7.687-9.276 2.489-12.94 11.085-12.487 20.588.452 7.918 2.766 13.342 11.137 21.487 9.05 8.597 13.763 13.144 13.763 23.325-2.263-5.656-6.544-5.918-9.938-7.275-3.167-1.131-3.387-5.156-1.125-8.55-6.335 1.357-5.902 6.998-3.187 9.713-2.037.452-2.248.888-2.7 2.925-2.941.904-4.974.242-7.463-2.925-1.131 4.524 1.328 6.112 5.4 6.112-6.108 3.394-5.203 11.729 0 13.313-3.62-3.847-.425-7.9 1.838-10.388-.68 5.656 5.203 6.093 6.787 2.925-4.072.226-3.631-7.012 2.025-7.012 5.204 0 8.401 5.448 8.175 10.2-.226 4.75-4.339 12.45-13.162 12.225-7.693-.227-11.758-5.228-14.925-9.3-.68-2.942-1.345-5.653-2.25-7.463-2.715-5.882-10.19-13.574-12-20.587-1.245-4.667-15.18-2.695-23.85-1.013 1.993-2.194 3.336-4.361 3.262-5.775-7.692-2.715-12.663-7.92-14.925-13.35-2.036-5.43-6.768-13.565-10.387-15.375-3.847-2.036-6.795-4.296-5.438-7.237 1.131-2.715 1.356-4.53.225-5.888a7.416 7.416 0 0 0-1.125-1.087c.026-2.126-3.08-4.088-5.212-4.088 1.583 1.584 2.026 2.465 1.8 4.275-.905 1.584-.448 1.343-.9 2.7-.73-1.824-2.491-3.343-3.975-3.037-.007-.006-.031.005-.038 0-1.498-1.285-4.344-2.566-6.637.562 3.25.61 3.258.7 4.2 1.688-.128.42-.077 1.002.112 1.95-1.877-.751-3.42-.551-3.9.825-1.394-.446-3.659.642-4.725 2.775 2.061-.318 3.703-.404 4.875.112.464 1.444 1.395 2.61 2.813 2.138 2.262-.68 3.187-1.8 3.187-1.8.453 1.357-1.142 4.268 2.025 5.4-2.715 0-5.661.028-5.887 1.612-.116.695-.39 1.686-.375 2.7-1.868-.142-4.89.172-5.738-1.312 1.358 4.072 3.883 4.955 7.05 4.05 2.262 1.357 2.473-.216 2.925-2.025 1.358.226 3.406-1.394 4.538-.263 1.13 1.131 2.96 5.465 3.412 7.275.453 1.584 1.35-1.606 1.35-2.737 0 3.393.225 6.787.225 6.787.453-1.131 1.125-3.187 1.125-3.187 0 2.714-.229 6.137.45 8.4.99-1.782 1.799-2.676 1.988-3.938-.287 4.327-1.287 6.38-.638 10.275 1.131-1.131 2.058-2.914 2.963-4.95-1.81 4.525-1.358 6.998 0 9.713.218-.984.66-1.645 1.05-2.25-.269 2.07.102 4.282 1.612 5.625 0-1.794.74-1.94 1.05-2.475-.234 2.029.08 2.563 1.463 4.537 1.187 1.782 2.745 2.523 3.112 4.5-.358.32-.737.62-1.087.938-2.263 2.036-14.687 9.243-17.175 12.637-2.263.453-4.978.664-6.788 2.7-2.489 0-7.275-.675-7.275-.675-.938-2.25-3.065-2.783-4.162-1.612-2.68-1.243-5.288 1.223-5.288 4.35 1.541-.964 3.05-1.277 4.313-.788.285.951 1.377 1.484 4.05.975l2.7.488c-2.49 1.81-3.142 1.793-4.725 2.925-2.715 0-6.155.207-5.25 3.375-1.584 2.036-2.223 5.008-.413 7.95.874-1.967 1.934-4.766 3.638-5.363.275-.03.515-.043.862-.075 2.489-.226 3.186-.925 3.413-3.187 2.036-.68 2.913-.18 4.95-1.763-.227 2.941-1.088 4.95-1.088 4.95-1.865.933-2.936 2.327-2.25 3.675-.694 1.813-.707 5.272 1.763 6.713.179-1.792.256-3.533 1.162-4.65.848.138 1.65-.134 2.25-.975 1.357-1.81 1.354-2.502.675-4.538.679-1.81 1.83-4.27 3.188-5.175 1.13-.679 2.027-.909 1.575.675-.905 4.299 1.58 4.295.45 7.463 2.94-3.168 4.73-5.193 3.825-8.813 1.13 3.394 1.837 4.05 1.837 4.05 1.358-2.036.903-3.854.45-5.437 1.357 2.488 1.8 3.412 1.8 3.412.905-1.357 1.576-1.376 1.35-3.412 1.358 1.81 2.506 2.022 3.638 2.475-1.132-1.584.226-2.24 0-4.05.678 2.94 3.36 4.055 5.85 3.15-2.263-1.358-1.572-2.732-2.25-3.863 1.357 1.584 2.952 3.19 4.762 2.738-1.357-1.132-.032-2.73-.937-4.313 1.357 2.262 2.306 3.19 5.7 2.738-1.697-.943-.903-2.043-1.5-3.038 1.51 1.434 3.456 2.161 6.675 2.363-.68-1.358.45-2.247.45-2.925.678 2.262.9 2.018.675 3.15 2.262-2.037 3.858-2.694 4.537-3.825 1.81 3.393 4.075 5.43 6.338 6.787 3.393 2.262 9.736 1.33 12.225 4.95.726.97 1.086 2.136 1.2 3.413-3.085-.015-5.319-.48-7.988.187-2.941-2.715-7.483-2.899-10.65-.862-3.167 2.036-6.12 6.542-11.55 3.375-2.941-1.81-.869-5.433.263-6.338-4.073.453-6.81 4.063-2.738 8.588-2.715-1.584-5.229.93-9.075-4.5.226 4.977 3.184 9.274 10.65 7.012-6.335 1.584-2.735 7.247-9.975 5.438 2.941 3.62 7.26 1.784 9.975-2.288-.905 3.167-1.131 2.95 0 5.213 2.263-2.715 3.174.233 5.663-1.35-1.358 2.488-.007 5.165 1.125 6.975 1.13 1.583 1.808 1.826.225 3.862-5.656-.452-13.786-1.354-16.5-.675-2.49-2.036-3.14-2.919-5.175-4.05.452-3.394-.478-4.992-2.288-4.087-.438.194-.783.345-1.087.487-.01-.161-.015-.324-.038-.487-1.584-.905-5.882-2.27-6.787 1.125 1.583 0 4.043.93 5.175 2.062-1.921-1.067-2.853-.939-3.9.6-1.538-.495-5.174.22-3.788 4.575 1.357-.905 2.505-.45 3.863-.45-.352.352-.64.812-.825 1.313-2.325-.535-6.16.126-5.513 5.512 2.138-2.138 4.085-1.879 5.438-1.65.12.402.254.742.45.938.905.905 2.282 1.136 3.187-.9 2.489 0 5.839.678 7.875 0-.452 1.13-2.021 1.608-2.7 2.287-2.746.634-3.89 2.054-3.112 3.713-1.1 1.837-1.49 5.317 1.762 7.35 0-2.037.478-3.404 2.288-4.988 1.583-.453 2.477-1.113 2.025-3.375 1.357-1.357 2.466-4.319 4.05-3.187 2.262 2.036-.439 3.627 4.312 5.437-.452-1.357 3.153-1.342 2.7-2.7 1.131 2.941 2.276 3.365 4.313 5.175.905-1.357 2.928-2.467 2.25-3.825 1.583 3.394 4.086 3.814 4.312 5.85 2.262-2.489 2.964-3.36 2.738-6.075 1.583 4.072 2.913 5.411 4.95 3.375 1.81-2.036 2.25-2.7 2.25-2.7 2.488 1.584 5.202.471 7.012-3.375-3.394 1.584-5.65 1.774-7.912-.262-.905-2.715-2.03-3.394-1.35-6.788.452-3.394 3.405-9.49 11.55-9.037.089.004.175 0 .262 0a14.399 14.399 0 0 0 1.5 4.537c2.489 4.072 4.81 7.899 3 10.388-1.584 2.488-7.252 3.602-4.537 9.937.452-3.394.662-3.819 2.925-4.95 0 3.167-.428 5.428 2.287 7.238-.679-2.942.183-4.306 1.088-5.663 1.81 2.941 2.946 4.097 5.887 2.288-1.584-.905-5.864-3.39-3.375-7.688 2.489 2.941 4.98 3.829 6.338 3.15 1.583-.679 3.17-.459 6.112-5.662-.679 3.846-.237 6.323 2.025 8.812-2.489 1.81-3.859 6.326-4.537 8.363-.453 2.036-1.34 2.06-3.15 2.512-1.584.453-1.377-2.025-3.413-2.025-1.283 0-2.28 1.142-2.737 2.513-.13-.041-.26-.023-.413-.038-2.262 0-5.414 3.166-2.925 7.013 1.357-2.263 2.243-1.835 3.6-2.288.042-.05.072-.094.113-.15.236.649.509 1.06 1.012 1.313-1.23.683-1.613 1.594-1.387 2.625-.14.016-.26.04-.413.075-1.584 1.81-1.824 4.527 2.475 6.337-.204-1.633-.38-2.366.413-3.487.56.008 1.007-.462 1.837-.6-2.489 2.488-2.692 6.143 2.738 7.275-.216-2.374-.643-3.317.3-4.575 1.06.41 2.065.256 2.625-.863.905-2.036-.227-4.303 0-6.112.226-1.584 3.407-2.017 4.312-3.6 1.131 2.262 1.388 4.05 1.388 4.05-.677 2.255-.701 5.188 2.662 3.412.163.878-.107 2.05-.637 3.375 3.899-1.026 4.622-3.19 4.05-6.112.373-.668.418-1.44.225-2.7-.453-2.942-2.47-2.065-3.6-1.613.226-1.584.642-2.949-.263-5.437 3.394 1.357 5.236 1.144 7.725-2.475-2.715-.227-3.173-1.8-5.887-2.025 4.75 0 7.72-.916 8.625-4.988-2.037 1.131-3.18-.674-4.538-.9 2.262-.679 5.205-.471 6.563-3.412-1.81 1.13-3.215-2.025-5.025-2.025 3.167-1.132 4.568-1.564 5.7-3.6-1.81.226-3.438-2.937-5.7-.9 2.036-2.49 7.046-.922 7.725-3.863-2.037.226-3.857-.215-4.988-2.025-.905-1.81-1.154-3.862-2.737-3.862 2.036.226 3.187 0 3.187 0-2.715-1.584-4.315-3.84-3.862-7.913-2.942 3.62-7.898 6.79-10.613 6.338-2.715-.453-5.889-2.267-5.662-6.113.226-3.394.937-4.071.937-7.012 2.941 2.488 7.462 4.318 14.475 3.187 11.538-1.584 18.528-10.657 18.075-23.1-.452-12.217-3.618-18.547-14.025-28.275-9.728-9.05-11.547-13.115-12-21.712-.452-9.276 3.835-15.143 8.813-16.5 3.393-1.132 5.222 2.686 3.412 5.175-1.584 2.262-2.034 6.358-.45 9.3 1.81-.453 2.051-1.38 4.088-2.963-3.62 3.394-4.772 8.151-3.188 12.45 1.81 4.525 6.551 4.088 8.588 4.088-3.168-5.883 1.612-7.924 1.612-12.675.679 5.656 3.386 7.666 8.138 4.725-3.62-.227-4.28-4.526-3.375-6.788.678-2.036 2.036-2.498 0-5.212 4.072 1.357 5.4-2.008 5.4-5.175-1.584 2.714-4.527 3.378-6.563 2.7-1.81-.905-2.921-1.564-3.6-3.6-.679-1.584-1.594-4.764-4.987-4.538 2.94-2.036 4.066-4.97 1.125-8.137z" style="fill:#d21034;fill-opacity:1;stroke:#000;stroke-width:.99874115"/><path d="M515.82 198.505v-1.983H521.274c-4.463-6.695 2.728-8.926 4.215-4.96.992-1.487 1.984-5.95-2.479-7.19-3.72-.991-7.438 4.216-5.703 8.679-2.48-3.968-8.43-6.943-11.901-6.943 0 3.471 2.975 9.67 6.942 11.901-4.71-1.735-9.67 1.984-8.678 5.703 1.24 4.463 5.703 3.471 7.19 2.727-3.966-1.735-1.735-8.925 4.96-4.463v-3.47zM526.985 210.14c2.232 2.975 4.711 2.975 6.695 3.223-.496-1.983-.496-4.463-3.223-6.446 1.983.495 3.47.495 5.454-.496h-8.926v8.926c.496-1.736.744-3.224 0-5.207z" style="fill:#d21034;fill-opacity:1;stroke:#000;stroke-width:.99874133"/><path d="M608.92 233.573c-1.81 2.262-4.303 4.086-6.113 4.313-2.036.226-4.984-.234-5.662 1.35-.905 1.357-1.6 1.575-4.088 1.575-2.489 0-3.82.45-4.725.225-1.131-.227-1.359 1.605.225 2.962-.452 2.036.453 3.631 0 4.763-.452 1.13-.461 2.248 1.575 2.475.434.043.833.1 1.238.15-.241.993-.013 2.312 1.012 3.45-.076.004-.148-.006-.225 0-3.394.226-9.496-3.837-7.912-8.588-2.49 1.357-3.614 4.518-1.125 8.138 2.488 3.62 5.415 3.413 9.487 3.187 4.18-.22 7.31-.65 9.975 1.2.01.665-.438 1.189-1.837 1.5-1.184.263-3.734.436-5.888.413-1.01-1.04-2.054-1.744-2.25-3.113-.36.54-.565 1.92-.525 2.925a2.042 2.042 0 0 1-.6-.225c-1.357-.679-2.026-1.135-1.8.675.226 2.036.233 4.081-1.125 5.213 2.036.452 1.566-.218 3.15-1.575 3.394.678 8.611.908 11.1-.675-1.131 2.714-1.366 4.987-5.212 4.987-3.847 0-4.982.436-6.113 2.925-3.167.453-4.073 1.119-6.787 2.25-2.715 1.131-6.1.677-8.588.225.905 2.262 3.173 4.313 5.888 4.313-2.263.678-3.187 3.405-3.413 4.762-.226 1.584-2.273 2.92-4.987 3.825 4.524.226 6.803-.913 10.65-5.437 4.072-4.752 3.396-2.472 6.337-3.15-2.036 1.357-3.632 1.6-4.537 3.862-1.132 2.262-1.34 3.149-3.375 3.375 2.94 2.036 4.98 1.589 6.112-.9.905-2.489 3.4-4.311 5.663-4.537-3.168 1.81-3.188 2.048-3.188 4.537s-.892 5.181-2.25 4.05c1.357 2.715 3.141 2.971 4.725 1.388 1.358-1.81 1.604-3.406 3.188-4.763-1.358 2.262-2.735 5.208-3.188 6.113-.679 1.13-.67 2.245-1.575 3.15 2.036.226 5.208-.218 6.113-1.575.99-1.386 3.357-6.069 4.087-9.338-.67 4.11-.9 5.46-.9 6.863 0 1.357-.712 3.375-.712 3.375 2.714 0 4.76-1.11 4.987-4.05.226-2.942-.004-4.073.675-6.788 0 3.62.45 4.073.45 6.788 0 2.714 1.374 3.82 3.863 4.5-1.132-2.49.682-3.172-.675-6.113-1.132-2.941-1.13-3.365-.45-5.175 1.13 3.167 1.8 2.911 1.575 5.4-.227 2.489 2.717 4.992 6.337 4.088-2.036-2.037-2.705-6.567-1.8-12.675.226 7.466 4.068 9.958 7.688 6.112-2.715-.679-3.642-2.04-2.963-6.112 2.036 2.036 4.31 1.364 4.763-1.35-3.168-.68-4.053-3.406-3.6-4.763.678-1.584.644-2.468-.713-3.825 2.715.679 5.66 1.105 6.113-2.062-2.263 0-4.05-.663-4.275-2.925-.227-2.263-.478-4.08-2.288-5.438 2.941.679 3.854.467 5.438-2.7-2.715.452-4.987-.698-5.213-3.412-.226-2.715 1.366-5.654-1.575-7.238 1.357-1.131 1.574-2.239 1.8-4.275-1.131 1.131-2.238 2.704-4.5 2.025-.905-3.62-3.39-6.789-7.462-6.562.905-1.81 1.13-1.826 0-4.088zm-8.175 16.763c0 1.073-.28 2.983.225 4.875-2.616-.484-5.144-.554-7.913-.413.547-1.308.737-2.536 1.2-3.3.6-.063 1.18-.196 1.763-.487 2.036-1.132 2.915.003 4.725-.675z" style="fill:#d21034;fill-opacity:1;stroke:#000;stroke-width:.99874115"/><path d="M600.762 247.613c-.226 1.81 1.81 4.299 3.167 5.204M620.445 259.83c-2.715-1.583-3.394-2.94-4.525-5.43M620.898 270.237c-.905-1.13-2.263-1.81-2.715-3.62M620.445 280.192c.679-3.846-.679-6.335-2.715-7.692M615.694 280.192c-.226-2.036-.226-4.977-.452-5.656M599.63 271.595c-2.714.679-4.524.679-6.56 1.357-2.036.453-1.358.905-4.073 2.489-2.714 1.81-4.072 2.489-7.013 3.167M603.703 304.852c3.62 3.168 6.561 7.014 7.014 10.86M591.034 301.685c2.715.905 3.393.905 4.977.679M548.727 234.491c2.262.905 5.656 3.394 6.787 5.656M555.061 233.36c.679 1.81 1.358 3.167 2.036 4.525M649.856 245.35c1.132-1.809 2.263-2.488 2.263-4.298M650.309 253.27c-.453 3.62 0 6.334 4.751 7.692" style="fill:none;stroke:#000;stroke-width:.99874115"/><path d="M597.595 243.089c.452-.905 1.13-1.81 1.13-1.81 1.132 1.13 3.62 1.81 2.716 3.393-2.715.453-4.525-.679-5.43-1.583h1.584z" style="fill:#000;stroke:#000;stroke-width:.99874115"/><path d="M611.848 243.541c2.262.226 5.882 1.81 7.24 2.941M632.888 337.431c2.037-.226 2.715.453 4.299-.679 0 1.81-.453 3.168-.226 4.525M614.337 335.169c.226 2.262 3.167 4.977 5.656 4.072M560.039 336.526c1.583.679 2.262 2.036 2.94 2.941.453 1.132 1.584 2.037 3.168 2.941M556.192 341.277c2.037-1.13 3.62-1.13 4.525.453.905 1.357 1.584 1.357 3.168 1.81M619.314 372.951c2.262-.679 3.394-1.357 4.298-3.394M622.255 377.928c-.226-2.036.226-2.488 1.357-3.167 1.358-.905 2.263-2.036 2.715-2.941" style="fill:none;stroke:#000;stroke-width:.99874115"/><path d="M523.925 284.17c8.516 1.807 4.645 8.776.516 6.969.516 1.807 3.097 5.936 7.226 3.613 3.613-2.064 2.581-8.517-2.064-10.84 4.645 1.291 11.097-1.032 13.678-3.612-2.58-2.581-9.033-4.646-13.678-3.614 4.645-2.064 5.677-8.775 2.064-10.581-4.13-2.323-6.71 1.806-7.226 3.355 4.13-1.549 8 5.162-.516 6.968v7.743zM515.438 286.788c-2.58-.258-4.387.774-6.71 2.323.774-2.84 2.065-4.388 4.388-5.42-3.872.516-5.678-1.29-7.227-2.58 1.549-1.033 3.355-2.84 7.227-2.582-2.323-1.032-3.614-2.322-4.388-5.161 2.323 1.548 4.13 2.323 6.71 2.064v11.356z" style="fill:#d21034;fill-opacity:1;stroke:#000;stroke-width:.99874115"/><path d="M661.17 376.752c2.5 1.818 6.589-1.135 2.954-4.997 1.363-2.272 2.272-4.544 3.18-6.815 5.907.908 5.68-4.998 2.272-5.453v-.454c1.363-1.136 4.998-2.726 7.042.682 1.818 2.953-1.59 7.496-6.133 7.496 4.089.909 4.998 3.635 5.906 6.588-2.953.909-5.906 1.59-8.86-1.136 2.5 3.635.682 9.087-2.725 9.314-3.18 0-4.09-2.271-4.317-4.089.228-.454.455-.908.682-1.136zM647.41 366.057c2.026-1.582 3.687-2.065 5.942-1.788-3.018-1.515-3.417-3.853-3.9-5.514 1.804.221 3.916-.206 6.4 1.93-1.131-1.97-1.163-3.576-.407-6 .878 2.167 1.416 3.377 4.153 5.316-1.713 2.765-3.228 5.783-5.391 8.493-2.71-2.164-4.288-2.358-6.796-2.437z" style="fill:#d21034;fill-opacity:1;stroke:#000;stroke-width:.99874169"/><path d="M604.231 422.536c-1.172.39-2.345.977-3.322 1.368l-.587.195-.586-.195c-.977-.39-2.15-.977-3.322-1.368h-.391c.195 2.15-.391 3.322-1.564 5.081 1.955-.586 3.127-1.368 3.909-3.127-.195 2.737 1.173 4.105 1.954 5.473.782-1.368 2.15-2.736 1.955-5.473.782 1.76 1.954 2.541 4.104 3.127-1.173-1.759-1.954-2.931-1.759-5.081h-.39z" style="fill:#d21034;fill-opacity:1;stroke:#000;stroke-width:.99874163"/><path d="m517.568 198.04 166.89-.47s.34 52.178-.882 109.196c-1.596 74.357-71.124 116.537-82.563 115.988-21.683-1.041-81.338-45.77-83.871-115.154-1.868-51.144.426-109.56.426-109.56z" style="fill:none;fill-opacity:1;fill-rule:evenodd;stroke:#d21034;stroke-width:3.5999999;stroke-linecap:butt;stroke-linejoin:miter;stroke-miterlimit:4;stroke-dasharray:none;stroke-opacity:1"/><path d="M608.53 411.5c1.174-.391 4.496-2.346 2.737-5.668-1.563-2.541-6.45-1.76-8.208 1.759.977-3.518-.782-8.404-2.737-10.554-1.954 2.15-3.518 7.036-2.736 10.554-1.759-3.518-6.645-4.3-8.013-1.76-1.954 3.323 1.368 5.278 2.54 5.669-1.172-3.127 3.519-5.668 5.082 2.931l3.127 1.173c.782-.196 1.955-.782 3.127-1.173 1.564-8.6 6.255-6.058 5.082-2.931z" style="fill:#d21034;fill-opacity:1;stroke:#000;stroke-width:.99874163"/><path d="m525.304 204.495 150.7-.442s.308 49.156-.797 102.872c-1.44 70.05-64.223 109.788-74.553 109.27-19.58-.981-73.448-43.119-75.735-108.485-1.687-48.182.385-103.215.385-103.215z" style="fill:none;fill-rule:evenodd;stroke:#d21034;stroke-width:3.5999999;stroke-linecap:butt;stroke-linejoin:miter;stroke-miterlimit:4;stroke-dasharray:none;stroke-opacity:1"/><path d="M539.103 376.752c-2.499 1.818-6.587-1.135-2.953-4.997-1.363-2.272-2.272-4.544-3.18-6.815-5.907.908-5.68-4.998-2.272-5.453v-.454c-1.363-1.136-4.998-2.726-7.042.682-1.818 2.953 1.59 7.496 6.133 7.496-4.089.909-4.997 3.635-5.906 6.588 2.953.909 5.906 1.59 8.86-1.136-2.5 3.635-.682 9.087 2.726 9.314 3.18 0 4.089-2.271 4.316-4.089-.227-.454-.454-.908-.682-1.136zM552.38 366.552c-1.94-1.687-3.574-2.255-5.84-2.097 3.093-1.355 3.614-3.669 4.183-5.303-1.813.127-3.9-.41-6.492 1.593 1.233-1.908 1.348-3.51.72-5.971-.99 2.119-1.59 3.3-4.426 5.092 1.566 2.85 2.921 5.944 4.94 8.763 2.82-2.019 4.406-2.13 6.914-2.077z" style="fill:#d21034;fill-opacity:1;stroke:#000;stroke-width:.99874169"/><path d="m515.638 196.11 169.977-.083s1.113 54.493-.11 111.511c-1.596 74.357-73.053 117.31-84.492 116.76-21.683-1.042-82.882-46.927-85.415-116.312-1.867-51.144.04-111.876.04-111.876z" style="fill:none;fill-opacity:1;fill-rule:evenodd;stroke:#000;stroke-width:1.20000005;stroke-linecap:butt;stroke-linejoin:miter;stroke-miterlimit:4;stroke-dasharray:none;stroke-opacity:1"/><path d="M685.83 197.964v-1.984H680.377c4.463-6.694-2.728-8.926-4.215-4.959-.992-1.487-1.984-5.95 2.48-7.19 3.718-.992 7.437 4.215 5.702 8.678 2.48-3.967 8.43-6.942 11.901-6.942 0 3.47-2.975 9.67-6.942 11.9 4.71-1.735 9.67 1.984 8.678 5.704-1.24 4.463-5.703 3.47-7.19 2.727 3.966-1.736 1.735-8.926-4.96-4.463v-3.471zM673.61 210.447c-2.232 2.975-4.712 2.975-6.695 3.223.496-1.983.496-4.463 3.223-6.446-1.983.496-3.471.496-5.455-.496h8.926v8.926c-.495-1.736-.743-3.224 0-5.207z" style="fill:#d21034;fill-opacity:1;stroke:#000;stroke-width:.99874133"/><path d="M674.058 284.17c-8.517 1.807-4.645 8.776-.516 6.969-.516 1.807-3.097 5.936-7.226 3.613-3.614-2.064-2.581-8.517 2.064-10.84-4.645 1.291-11.097-1.032-13.678-3.612 2.58-2.581 9.033-4.646 13.678-3.614-4.645-2.064-5.678-8.775-2.064-10.581 4.129-2.323 6.71 1.806 7.226 3.355-4.13-1.549-8 5.162.516 6.968v7.743zM685.784 286.788c2.58-.258 4.388.774 6.71 2.323-.774-2.84-2.064-4.388-4.387-5.42 3.871.516 5.678-1.29 7.226-2.58-1.548-1.033-3.355-2.84-7.226-2.582 2.323-1.032 3.613-2.322 4.387-5.161-2.322 1.548-4.13 2.323-6.71 2.064v11.356z" style="fill:#d21034;fill-opacity:1;stroke:#000;stroke-width:.99874115"/><path d="M592.21 208.391c-1.173.391-4.495 2.346-2.736 5.668 1.563 2.541 6.45 1.76 8.208-1.759-.977 3.518.782 8.404 2.737 10.554 1.954-2.15 3.517-7.036 2.736-10.554 1.759 3.518 6.645 4.3 8.013 1.76 1.954-3.323-1.368-5.278-2.541-5.669 1.173 3.128-3.518 5.668-5.081-2.931l-3.127-1.173c-.782.196-1.955.782-3.128 1.173-1.563 8.6-6.254 6.059-5.081 2.931zM596.51 196.51c1.172-.39 2.345-.977 3.322-1.368l.587-.195.586.195c.977.391 2.15.977 3.322 1.368h.391c-.195-2.15.391-3.322 1.564-5.081-1.955.586-3.127 1.368-3.91 3.127.196-2.736-1.172-4.104-1.953-5.473-.782 1.369-2.15 2.737-1.955 5.473-.782-1.76-1.954-2.54-4.104-3.127 1.173 1.759 1.954 2.931 1.759 5.081h.39z" style="fill:#d21034;fill-opacity:1;stroke:#000;stroke-width:.99874163"/><path d="m519.463 199.578 163.07-.08s1.067 52.835-.106 108.119c-1.53 72.094-70.084 113.74-81.059 113.208-20.801-1.01-79.514-45.5-81.944-112.774-1.792-49.588.039-108.473.039-108.473z" style="fill:none;fill-opacity:1;fill-rule:evenodd;stroke:#000;stroke-width:1.20000029;stroke-linecap:butt;stroke-linejoin:miter;stroke-miterlimit:4;stroke-dasharray:none;stroke-opacity:1"/><path d="m524.044 202.924 153.306-.078s1.004 51.46-.1 105.307c-1.439 70.219-65.887 110.781-76.205 110.262-19.556-.983-74.753-44.316-77.038-109.84-1.684-48.298.037-105.65.037-105.65z" style="fill:none;fill-opacity:1;fill-rule:evenodd;stroke:#000;stroke-width:1.19999981;stroke-linecap:butt;stroke-linejoin:miter;stroke-miterlimit:4;stroke-dasharray:none;stroke-opacity:1"/><path d="m527.099 206.54 146.876-.075s.962 49.676-.095 101.653c-1.38 67.784-63.125 106.94-73.01 106.438-18.735-.949-71.617-42.778-73.806-106.03-1.614-46.622.035-101.985.035-101.985z" style="fill:none;fill-opacity:1;fill-rule:evenodd;stroke:#000;stroke-width:1.20000005;stroke-linecap:butt;stroke-linejoin:miter;stroke-miterlimit:4;stroke-dasharray:none;stroke-opacity:1"/></svg>