<svg height="496.063" version="1.0" width="992.126" xmlns="http://www.w3.org/2000/svg" xmlns:xlink="http://www.w3.org/1999/xlink"><path style="fill:#076a21;fill-opacity:1;fill-rule:evenodd;stroke:none;stroke-width:1pt;stroke-linecap:butt;stroke-linejoin:miter;stroke-opacity:1" d="M0 0h992.126v248.031H0z"/><path style="fill:#fdd401;fill-opacity:1;fill-rule:evenodd;stroke:none;stroke-width:1pt;stroke-linecap:butt;stroke-linejoin:miter;stroke-opacity:1" d="M0 248.031h992.126v248.031H0z"/><path d="m129.352 78.242-3.414-26.932" style="fill:none;fill-opacity:.75;fill-rule:evenodd;stroke:#000;stroke-width:1pt;stroke-linecap:butt;stroke-linejoin:miter;stroke-opacity:1" transform="translate(598.311 78.364) scale(1.42347)"/><path d="M159.58 207.32s-9.514-6.919-10.811-14.27c-1.298-7.353-2.163-17.3-2.163-17.3l6.92 3.893s.865 9.947 1.297 14.271c.433 4.325 4.757 13.407 4.757 13.407zM173.93 123.877c7.322-.577 7.706 11.222 7.706 11.222s-12.974-6.92-18.596-6.92 10.89-4.302 10.89-4.302z" style="fill:#016b29;fill-opacity:1;fill-rule:evenodd;stroke:#003d00;stroke-width:.875;stroke-linecap:butt;stroke-linejoin:miter;stroke-miterlimit:4;stroke-opacity:1" transform="translate(598.311 78.364) scale(1.42347)"/><path d="M181.411 134.571c-.284-.284-9.883-9.712-14.597-9.598-4.714.113-4.828.227-4.828.227" style="fill:none;fill-opacity:.75;fill-rule:evenodd;stroke:#003d00;stroke-width:.875;stroke-linecap:butt;stroke-linejoin:miter;stroke-miterlimit:4;stroke-opacity:1" transform="translate(598.311 78.364) scale(1.42347)"/><path d="M100.332 129.044H89.088c-3.892 0-11.244-.865-11.244-.865s10.38 6.92 16.001 6.487c5.623-.432 19.029.433 19.029.433l-7.784-5.622-4.758-.433z" style="fill:#016b29;fill-opacity:1;fill-rule:evenodd;stroke:#003d00;stroke-width:.875;stroke-linecap:butt;stroke-linejoin:miter;stroke-miterlimit:4;stroke-opacity:1" transform="translate(598.311 78.364) scale(1.42347)"/><path d="M78.949 128.55s10.337 2.954 14.426 3.125c4.09.17 15.563-.568 15.563-.568" style="fill:none;fill-opacity:.75;fill-rule:evenodd;stroke:#003d00;stroke-width:.875;stroke-linecap:butt;stroke-linejoin:miter;stroke-miterlimit:4;stroke-opacity:1" transform="translate(598.311 78.364) scale(1.42347)"/><path d="M158.283 206.456c-1.297-2.162-6.92-8.65-7.784-14.271-.865-5.623 1.297-13.407 1.297-13.407M81.736 194.347s21.624-27.678 25.516-31.138c3.892-3.46 21.623-12.541 23.786-14.704 2.162-2.162 22.488-21.623 26.813-23.353 4.324-1.73 16.866-1.297 16.866-1.297s-4.325.865-6.92 3.027c-2.594 2.162-8.217 8.217-12.109 10.812-3.892 2.594-33.732 21.623-37.624 25.948-3.893 4.324-9.515 11.676-12.542 14.271-3.027 2.595-23.786 16.434-23.786 16.434z" style="fill:#016b29;fill-opacity:1;fill-rule:evenodd;stroke:#003d00;stroke-width:.875;stroke-linecap:butt;stroke-linejoin:miter;stroke-miterlimit:4;stroke-opacity:1" transform="translate(598.311 78.364) scale(1.42347)"/><path d="M99.9 129.044s12.542 8.217 14.704 10.812c2.162 2.595 12.541 12.974 13.406 14.704.865 1.73 14.704 21.623 18.596 25.083 3.893 3.46 7.785 9.082 8.217 11.677l.433 2.594s-.865-17.73-1.73-19.46c-.865-1.73-4.757-3.028-8.217-6.92-3.46-3.892-10.38-7.352-17.299-18.164-2.162-5.19-14.704-19.893-17.73-20.758-3.028-.865-10.38.432-10.38.432z" style="fill:#016b29;fill-opacity:1;fill-rule:evenodd;stroke:#003d00;stroke-width:.875;stroke-linecap:butt;stroke-linejoin:miter;stroke-miterlimit:4;stroke-opacity:1" transform="translate(598.311 78.364) scale(1.42347)"/><path d="M183.799 181.805s-2.595-11.676-12.11-18.596c-9.514-6.92-25.947-13.406-43.679-13.839-17.73-.432-27.245 1.298-28.542 1.73-1.298.433-4.325 7.352-4.325 7.352s17.731-3.892 28.543-3.892c10.811 0 32.435 8.217 36.76 10.812 4.324 2.594 23.353 16.433 23.353 16.433z" style="fill:#016b29;fill-opacity:1;fill-rule:evenodd;stroke:#003d00;stroke-width:.875;stroke-linecap:butt;stroke-linejoin:miter;stroke-miterlimit:4;stroke-opacity:1" transform="translate(598.311 78.364) scale(1.42347)"/><path d="M83.034 193.05s17.73-15.57 20.326-18.164c2.595-2.595 7.784-11.244 11.676-13.84 3.893-2.594 32.003-23.352 34.165-25.082 2.163-1.73 13.84-11.677 13.84-11.677" style="fill:none;fill-opacity:1;fill-rule:evenodd;stroke:#003d00;stroke-width:.875;stroke-linecap:butt;stroke-linejoin:miter;stroke-miterlimit:4;stroke-opacity:1" transform="translate(598.311 78.364) scale(1.42347)"/><path d="M99.035 154.992s19.029-3.892 27.678-3.46c8.65.433 39.354 12.542 42.382 14.704 3.027 2.163 12.974 13.84 12.974 13.84" style="fill:none;fill-opacity:1;fill-rule:evenodd;stroke:#003d00;stroke-width:.875;stroke-linecap:butt;stroke-linejoin:miter;stroke-miterlimit:4;stroke-opacity:1" transform="translate(598.311 78.364) scale(1.42347)"/><path d="M154.823 184.833s-26.38-34.165-31.137-39.355c-4.757-5.19-19.461-16.866-19.461-16.866" style="fill:none;fill-opacity:1;fill-rule:evenodd;stroke:#003d00;stroke-width:.875;stroke-linecap:butt;stroke-linejoin:miter;stroke-miterlimit:4;stroke-opacity:1" transform="translate(598.311 78.364) scale(1.42347)"/><path d="M76.98 168.399s9.081-6.92 12.973-9.947c3.892-3.027 9.515-7.352 9.515-7.352l5.576-.794s-6.009 8.579-9.469 11.173c-3.46 2.595-18.596 6.92-18.596 6.92z" style="fill:#016b29;fill-opacity:1;fill-rule:evenodd;stroke:#003d00;stroke-width:.875;stroke-linecap:butt;stroke-linejoin:miter;stroke-miterlimit:4;stroke-opacity:1" transform="translate(598.311 78.364) scale(1.42347)"/><path d="M101.751 150.835s-5.904 6.042-8.147 7.69c-2.243 1.647-14.968 8.88-14.968 8.88" style="fill:none;fill-opacity:.75;fill-rule:evenodd;stroke:#003d00;stroke-width:.875;stroke-linecap:butt;stroke-linejoin:miter;stroke-miterlimit:4;stroke-opacity:1" transform="translate(598.311 78.364) scale(1.42347)"/><path d="m131.903 243.216-.865-128.01s3.027-2.163 4.324-8.218c1.298-6.054-.865-28.11-.865-28.11s-15.136-3.027-14.704-1.297c.433 1.73 1.73 20.758 2.595 24.218.865 3.46 4.757 13.406 4.757 13.406s-2.594 112.01-2.594 116.334c0 4.325 7.352 11.677 7.352 11.677z" style="fill:#016b29;fill-opacity:1;fill-rule:evenodd;stroke:#003d00;stroke-width:.875;stroke-linecap:butt;stroke-linejoin:miter;stroke-miterlimit:4;stroke-opacity:1" transform="translate(598.311 78.364) scale(1.42347)"/><path d="m124.341 84.621-.964 12.53M125.305 98.437c0-1.285.964-13.173.964-13.173M128.197 101.007l-.322-17.671M130.446 104.863l.321-19.278M131.088 108.718s2.25-5.14 2.25-9.96V87.192M124.317 231.21s2.485-1.827 5.275 2.445c1.928 2.891 2.249 7.428 2.335 8.895" style="fill:none;fill-opacity:.75;fill-rule:evenodd;stroke:#003d00;stroke-width:.875;stroke-linecap:butt;stroke-linejoin:miter;stroke-miterlimit:4;stroke-opacity:1" transform="translate(598.311 78.364) scale(1.42347)"/><path d="M84.331 43.848s1.298 16.434 6.055 20.759c4.757 4.324 16.866 4.757 16.866 4.757S93.845 76.716 92.98 84.068c-.864 7.352 7.352 17.73 7.352 17.73s2.595-3.891 4.325-4.756c1.73-.865 5.622-.433 7.785-1.73 2.162-1.298 7.351-7.352 9.514-7.352 2.162 0 8.65 6.054 11.244 7.352 2.595 1.297 6.487 2.595 8.217 3.892 1.73 1.297 4.325 2.595 4.325 2.595s3.027-3.027 4.324-5.19c1.298-2.162 0-3.46 1.298-5.622 1.297-2.162 7.352-8.65 6.054-12.109-1.297-3.46-3.027-4.325-6.054-4.757-3.028-.433-6.055 0-6.055 0l6.055-3.46s3.46 1.298 6.487 1.298 13.839-3.46 16-3.893c2.163-.432 7.353.865 7.353.865s-1.73-18.596-16.434-19.46c-14.704-.866-12.974 8.216-16.866 10.81-3.892 2.596-6.92 6.055-6.92 6.055s1.298-4.324 3.46-6.919c2.162-2.595 7.352-7.784 9.082-10.38 1.73-2.594 3.892-9.081 3.892-12.108 0-3.028-2.162-8.217-2.162-10.812 0-2.595.432-5.19.432-5.19s-8.65 2.595-13.839 6.92c-5.19 4.325-10.811 14.271-10.811 14.271s-3.893-7.352-6.487-9.514c-2.595-2.162-9.515-5.622-11.245-7.352-1.73-1.73-3.892-5.19-3.892-5.19s-5.622 11.677-5.622 15.57c0 3.892 3.027 9.946 3.027 9.946-4.324-1.73-9.514.433-13.406.433-3.892 0-9.082-2.163-9.082-2.163z" style="fill:#dd1810;fill-opacity:1;fill-rule:evenodd;stroke:#000;stroke-width:.875;stroke-linecap:butt;stroke-linejoin:miter;stroke-miterlimit:4;stroke-opacity:1" transform="translate(598.311 78.364) scale(1.42347)"/><path d="M100.902 88.105s3.034-6.449 6.828-7.587c3.793-1.138 16.31 1.518 16.31 1.518l-1.896 4.172s-4.931 0-5.31-1.517c-.38-1.517 1.138-2.276 1.138-2.276s-5.69-.38-9.104 0c-3.414.38-7.966 5.69-7.966 5.69z" style="fill:#fee500;fill-opacity:1;fill-rule:evenodd;stroke:none;stroke-width:1pt;stroke-linecap:butt;stroke-linejoin:miter;stroke-opacity:1" transform="translate(598.311 78.364) scale(1.42347)"/><path d="M133.145 81.656s2.655.38 4.172 2.276c1.518 1.897 3.794 6.07 3.794 6.07s1.517-3.035-.38-5.31c-1.896-2.277-3.413-3.415-3.413-3.415l1.517-2.276s2.276.38 3.414 2.276c1.138 1.897 2.276 2.655 2.276 2.655s.758-2.655-.759-4.172c-1.517-1.518-2.655-1.897-2.655-1.897s1.517-1.138 3.793-.38c2.276.76 6.07 3.035 6.07 3.035s-2.277-3.793-4.173-4.172c-1.897-.38-4.552-.38-4.552-.38s9.862-10.241 13.656-12.517c3.793-2.276 11-3.414 11-3.414s0-1.518-2.655-1.897c-2.655-.38-14.035 5.69-14.035 5.69l2.655-4.552s-16.69 9.863-18.587 12.518c-1.897 2.655 3.035-7.207 4.931-9.483 1.897-2.276 5.69-5.69 6.828-9.104 1.138-3.414 2.276-6.07 2.276-6.07s-7.207 6.828-8.725 9.104c-1.517 2.276-2.655 6.828-4.93 5.69-2.277-1.138-2.656-4.172-2.656-4.172s-.759 5.31-2.276 4.93c-1.517-.378-2.276-2.275-2.276-2.275s0 3.414-1.897 3.035c-1.896-.38-.38-3.035-1.896-5.69-1.518-2.656-3.794-3.035-3.794-3.035s1.897 4.173 1.518 6.07c-.38 1.896-.759 6.448-3.414 4.93-2.656-1.517-3.035-3.793-4.932-3.413-1.896.379.759 1.896-.379 3.034s-3.414 1.897-3.414 1.897 2.655.38 4.173 2.655c1.517 2.276 4.931 2.276 6.448 5.31 1.518 3.035 2.276 7.587 2.276 7.587l11-1.138z" style="fill:#fee500;fill-opacity:1;fill-rule:evenodd;stroke:none;stroke-width:1pt;stroke-linecap:butt;stroke-linejoin:miter;stroke-opacity:1" transform="translate(598.311 78.364) scale(1.42347)"/><path d="m117.972 64.966 9.104 15.173s3.034-4.173 4.93-4.173c1.898 0 4.174 1.518 4.174 1.518s1.137-7.207.758-9.483c-.38-2.276-1.517-4.552-4.172-4.552-2.656 0-3.414-.38-4.173 1.517-.759 1.897-.759 7.966-.759 7.966s-1.138-6.828-3.793-8.725c-2.655-1.896-2.655-2.655-4.552-1.517-1.897 1.138-1.517 2.276-1.517 2.276z" style="fill:#016b29;fill-opacity:1;fill-rule:evenodd;stroke:none;stroke-width:1pt;stroke-linecap:butt;stroke-linejoin:miter;stroke-opacity:1" transform="translate(598.311 78.364) scale(1.42347)"/><path d="M108.488 75.966s2.276 2.276 4.932 2.276c2.655 0 10.242 1.138 10.242 1.138l-.38-1.517s-12.897-3.035-14.794-1.897zM106.971 86.208s-2.655.76-3.793 3.035c-1.138 2.276.38 3.793.38 3.793s0-2.655 1.896-3.793c1.896-1.138 1.517-3.035 1.517-3.035zM92.936 61.552s1.897 2.276 3.793 2.276c1.897 0 5.69.759 5.69.759s-4.552 2.276-6.448 1.517c-1.897-.759-3.035-4.552-3.035-4.552zM99.764 49.793s1.896 1.517 4.552 3.034c2.655 1.518 4.552 1.518 4.552 1.518s-.759-1.518-3.035-2.656c-2.276-1.138-6.07-1.896-6.07-1.896zM109.626 35.378s-1.138 3.414 0 6.449c1.138 3.034 3.794 5.69 3.794 5.69s1.138-4.552-.38-6.449c-1.517-1.897-3.414-5.69-3.414-5.69zM113.42 34.24s1.517 2.276 2.276 4.173c.758 1.896 3.034 3.793 3.034 3.793s0-3.414-1.517-4.931c-1.517-1.518-3.793-3.035-3.793-3.035zM150.594 35.378s-1.517 0-2.655 2.276-.38 4.552-.38 4.552.38-1.517 1.897-3.414c1.517-1.897 1.138-3.414 1.138-3.414z" style="fill:#fee500;fill-opacity:1;fill-rule:evenodd;stroke:none;stroke-width:1pt;stroke-linecap:butt;stroke-linejoin:miter;stroke-opacity:1" transform="translate(598.311 78.364) scale(1.42347)"/><path d="M139.973 49.224a1.707 1.707 0 1 0-3.414 0 1.707 1.707 0 1 0 3.414 0z" style="fill:#000;fill-opacity:1;fill-rule:evenodd;stroke:none;stroke-width:1pt;stroke-linecap:butt;stroke-linejoin:miter;stroke-opacity:1" transform="matrix(1.89796 0 0 1.58163 529.196 71.928)"/><path d="M139.973 49.224a1.707 1.707 0 1 0-3.414 0 1.707 1.707 0 1 0 3.414 0z" style="fill:#000;fill-opacity:1;fill-rule:evenodd;stroke:none;stroke-width:1pt;stroke-linecap:butt;stroke-linejoin:miter;stroke-opacity:1" transform="matrix(1.89796 0 0 1.58163 524.336 77.328)"/><path d="M139.973 49.224a1.707 1.707 0 1 0-3.414 0 1.707 1.707 0 1 0 3.414 0z" style="fill:#000;fill-opacity:1;fill-rule:evenodd;stroke:none;stroke-width:1pt;stroke-linecap:butt;stroke-linejoin:miter;stroke-opacity:1" transform="matrix(1.89796 0 0 1.58163 534.595 73.008)"/><path d="M139.973 49.224a1.707 1.707 0 1 0-3.414 0 1.707 1.707 0 1 0 3.414 0z" style="fill:#000;fill-opacity:1;fill-rule:evenodd;stroke:none;stroke-width:1pt;stroke-linecap:butt;stroke-linejoin:miter;stroke-opacity:1" transform="matrix(1.89796 0 0 1.58163 537.835 77.328)"/><path d="M139.973 49.224a1.707 1.707 0 1 0-3.414 0 1.707 1.707 0 1 0 3.414 0z" style="fill:#000;fill-opacity:1;fill-rule:evenodd;stroke:none;stroke-width:1pt;stroke-linecap:butt;stroke-linejoin:miter;stroke-opacity:1" transform="matrix(1.89796 0 0 1.58163 510.297 70.848)"/><path d="M139.973 49.224a1.707 1.707 0 1 0-3.414 0 1.707 1.707 0 1 0 3.414 0z" style="fill:#000;fill-opacity:1;fill-rule:evenodd;stroke:none;stroke-width:1pt;stroke-linecap:butt;stroke-linejoin:miter;stroke-opacity:1" transform="matrix(1.89796 0 0 1.58163 516.237 69.768)"/><path d="M139.973 49.224a1.707 1.707 0 1 0-3.414 0 1.707 1.707 0 1 0 3.414 0z" style="fill:#000;fill-opacity:1;fill-rule:evenodd;stroke:none;stroke-width:1pt;stroke-linecap:butt;stroke-linejoin:miter;stroke-opacity:1" transform="matrix(1.89796 0 0 1.58163 521.636 71.388)"/><path d="M139.973 49.224a1.707 1.707 0 1 0-3.414 0 1.707 1.707 0 1 0 3.414 0z" style="fill:#000;fill-opacity:1;fill-rule:evenodd;stroke:none;stroke-width:1pt;stroke-linecap:butt;stroke-linejoin:miter;stroke-opacity:1" transform="matrix(1.89796 0 0 1.58163 504.357 76.248)"/><path d="M139.973 49.224a1.707 1.707 0 1 0-3.414 0 1.707 1.707 0 1 0 3.414 0z" style="fill:#000;fill-opacity:1;fill-rule:evenodd;stroke:none;stroke-width:1pt;stroke-linecap:butt;stroke-linejoin:miter;stroke-opacity:1" transform="matrix(1.89796 0 0 1.58163 492.478 79.488)"/><path d="M139.973 49.224a1.707 1.707 0 1 0-3.414 0 1.707 1.707 0 1 0 3.414 0z" style="fill:#000;fill-opacity:1;fill-rule:evenodd;stroke:none;stroke-width:1pt;stroke-linecap:butt;stroke-linejoin:miter;stroke-opacity:1" transform="matrix(1.89796 0 0 1.58163 544.855 94.607)"/><path d="M139.973 49.224a1.707 1.707 0 1 0-3.414 0 1.707 1.707 0 1 0 3.414 0z" style="fill:#000;fill-opacity:1;fill-rule:evenodd;stroke:none;stroke-width:1pt;stroke-linecap:butt;stroke-linejoin:miter;stroke-opacity:1" transform="matrix(1.89796 0 0 1.58163 552.414 97.307)"/><path d="M139.973 49.224a1.707 1.707 0 1 0-3.414 0 1.707 1.707 0 1 0 3.414 0z" style="fill:#000;fill-opacity:1;fill-rule:evenodd;stroke:none;stroke-width:1pt;stroke-linecap:butt;stroke-linejoin:miter;stroke-opacity:1" transform="matrix(1.89796 0 0 1.58163 555.114 91.907)"/><path d="M139.973 49.224a1.707 1.707 0 1 0-3.414 0 1.707 1.707 0 1 0 3.414 0z" style="fill:#000;fill-opacity:.75;fill-rule:evenodd;stroke:none;stroke-width:1pt;stroke-linecap:butt;stroke-linejoin:miter;stroke-opacity:1" transform="matrix(1.89796 0 0 1.58163 569.153 92.987)"/><path d="M139.973 49.224a1.707 1.707 0 1 0-3.414 0 1.707 1.707 0 1 0 3.414 0z" style="fill:#000;fill-opacity:1;fill-rule:evenodd;stroke:none;stroke-width:1pt;stroke-linecap:butt;stroke-linejoin:miter;stroke-opacity:1" transform="matrix(1.89796 0 0 1.58163 501.118 111.346)"/><path d="M139.973 49.224a1.707 1.707 0 1 0-3.414 0 1.707 1.707 0 1 0 3.414 0z" style="fill:#000;fill-opacity:1;fill-rule:evenodd;stroke:none;stroke-width:1pt;stroke-linecap:butt;stroke-linejoin:miter;stroke-opacity:1" transform="matrix(1.89796 0 0 1.58163 507.597 114.585)"/><path d="M139.973 49.224a1.707 1.707 0 1 0-3.414 0 1.707 1.707 0 1 0 3.414 0z" style="fill:#000;fill-opacity:1;fill-rule:evenodd;stroke:none;stroke-width:1pt;stroke-linecap:butt;stroke-linejoin:miter;stroke-opacity:1" transform="matrix(1.89796 0 0 1.58163 529.196 121.605)"/><path d="M139.973 49.224a1.707 1.707 0 1 0-3.414 0 1.707 1.707 0 1 0 3.414 0z" style="fill:#000;fill-opacity:1;fill-rule:evenodd;stroke:none;stroke-width:1pt;stroke-linecap:butt;stroke-linejoin:miter;stroke-opacity:1" transform="matrix(1.89796 0 0 1.58163 524.876 119.985)"/><path d="M139.973 49.224a1.707 1.707 0 1 0-3.414 0 1.707 1.707 0 1 0 3.414 0z" style="fill:#000;fill-opacity:1;fill-rule:evenodd;stroke:none;stroke-width:1pt;stroke-linecap:butt;stroke-linejoin:miter;stroke-opacity:1" transform="matrix(1.89796 0 0 1.58163 485.459 86.507)"/><path d="M139.973 49.224a1.707 1.707 0 1 0-3.414 0 1.707 1.707 0 1 0 3.414 0z" style="fill:#000;fill-opacity:1;fill-rule:evenodd;stroke:none;stroke-width:1pt;stroke-linecap:butt;stroke-linejoin:miter;stroke-opacity:1" transform="matrix(1.89796 0 0 1.58163 491.938 89.747)"/><path d="M139.973 49.224a1.707 1.707 0 1 0-3.414 0 1.707 1.707 0 1 0 3.414 0z" style="fill:#000;fill-opacity:1;fill-rule:evenodd;stroke:none;stroke-width:1pt;stroke-linecap:butt;stroke-linejoin:miter;stroke-opacity:1" transform="matrix(1.89796 0 0 1.58163 501.118 95.687)"/><path d="M139.973 49.224a1.707 1.707 0 1 0-3.414 0 1.707 1.707 0 1 0 3.414 0z" style="fill:#000;fill-opacity:1;fill-rule:evenodd;stroke:none;stroke-width:1pt;stroke-linecap:butt;stroke-linejoin:miter;stroke-opacity:1" transform="matrix(1.89796 0 0 1.58163 494.098 96.767)"/><path d="M139.973 49.224a1.707 1.707 0 1 0-3.414 0 1.707 1.707 0 1 0 3.414 0z" style="fill:#000;fill-opacity:1;fill-rule:evenodd;stroke:none;stroke-width:1pt;stroke-linecap:butt;stroke-linejoin:miter;stroke-opacity:1" transform="matrix(1.89796 0 0 1.58163 497.338 102.706)"/><path d="M139.973 49.224a1.707 1.707 0 1 0-3.414 0 1.707 1.707 0 1 0 3.414 0z" style="fill:#000;fill-opacity:1;fill-rule:evenodd;stroke:none;stroke-width:1pt;stroke-linecap:butt;stroke-linejoin:miter;stroke-opacity:1" transform="matrix(1.89796 0 0 1.58163 504.357 102.166)"/><path d="M139.973 49.224a1.707 1.707 0 1 0-3.414 0 1.707 1.707 0 1 0 3.414 0z" style="fill:#000;fill-opacity:1;fill-rule:evenodd;stroke:none;stroke-width:1pt;stroke-linecap:butt;stroke-linejoin:miter;stroke-opacity:1" transform="matrix(1.89796 0 0 1.58163 498.958 85.967)"/><path d="M139.973 49.224a1.707 1.707 0 1 0-3.414 0 1.707 1.707 0 1 0 3.414 0z" style="fill:#000;fill-opacity:1;fill-rule:evenodd;stroke:none;stroke-width:1pt;stroke-linecap:butt;stroke-linejoin:miter;stroke-opacity:1" transform="matrix(1.89796 0 0 1.58163 505.437 83.267)"/><path d="M139.973 49.224a1.707 1.707 0 1 0-3.414 0 1.707 1.707 0 1 0 3.414 0z" style="fill:#000;fill-opacity:1;fill-rule:evenodd;stroke:none;stroke-width:1pt;stroke-linecap:butt;stroke-linejoin:miter;stroke-opacity:1" transform="matrix(1.89796 0 0 1.58163 511.917 77.342)"/><path d="M139.973 49.224a1.707 1.707 0 1 0-3.414 0 1.707 1.707 0 1 0 3.414 0z" style="fill:#000;fill-opacity:1;fill-rule:evenodd;stroke:none;stroke-width:1pt;stroke-linecap:butt;stroke-linejoin:miter;stroke-opacity:1" transform="matrix(1.89796 0 0 1.58163 515.157 76.248)"/><path d="M139.973 49.224a1.707 1.707 0 1 0-3.414 0 1.707 1.707 0 1 0 3.414 0z" style="fill:#000;fill-opacity:1;fill-rule:evenodd;stroke:none;stroke-width:1pt;stroke-linecap:butt;stroke-linejoin:miter;stroke-opacity:1" transform="matrix(1.89796 0 0 1.58163 518.936 84.887)"/><path d="M139.973 49.224a1.707 1.707 0 1 0-3.414 0 1.707 1.707 0 1 0 3.414 0z" style="fill:#000;fill-opacity:1;fill-rule:evenodd;stroke:none;stroke-width:1pt;stroke-linecap:butt;stroke-linejoin:miter;stroke-opacity:1" transform="matrix(1.89796 0 0 1.58163 531.356 91.907)"/><path d="M139.973 49.224a1.707 1.707 0 1 0-3.414 0 1.707 1.707 0 1 0 3.414 0z" style="fill:#000;fill-opacity:1;fill-rule:evenodd;stroke:none;stroke-width:1pt;stroke-linecap:butt;stroke-linejoin:miter;stroke-opacity:1" transform="matrix(1.89796 0 0 1.58163 537.835 85.967)"/><path d="M139.973 49.224a1.707 1.707 0 1 0-3.414 0 1.707 1.707 0 1 0 3.414 0z" style="fill:#000;fill-opacity:1;fill-rule:evenodd;stroke:none;stroke-width:1pt;stroke-linecap:butt;stroke-linejoin:miter;stroke-opacity:1" transform="matrix(1.89796 0 0 1.58163 544.855 71.928)"/><path d="M139.973 49.224a1.707 1.707 0 1 0-3.414 0 1.707 1.707 0 1 0 3.414 0z" style="fill:#000;fill-opacity:1;fill-rule:evenodd;stroke:none;stroke-width:1pt;stroke-linecap:butt;stroke-linejoin:miter;stroke-opacity:1" transform="matrix(1.89796 0 0 1.58163 534.055 113.505)"/><path d="M133.426 75.996c.665-5.7 2.172-10.932 2.837-16.631" style="fill:none;fill-opacity:.75;fill-rule:evenodd;stroke:#000;stroke-width:1pt;stroke-linecap:butt;stroke-linejoin:miter;stroke-opacity:1" transform="translate(598.311 78.364) scale(1.42347)"/><path d="M139.973 49.224a1.707 1.707 0 1 0-3.414 0 1.707 1.707 0 1 0 3.414 0z" style="fill:#000;fill-opacity:1;fill-rule:evenodd;stroke:none;stroke-width:1pt;stroke-linecap:butt;stroke-linejoin:miter;stroke-opacity:1" transform="matrix(1.89796 0 0 1.58163 534.055 107.566)"/><path d="M139.973 49.224a1.707 1.707 0 1 0-3.414 0 1.707 1.707 0 1 0 3.414 0z" style="fill:#000;fill-opacity:1;fill-rule:evenodd;stroke:none;stroke-width:1pt;stroke-linecap:butt;stroke-linejoin:miter;stroke-opacity:1" transform="matrix(1.89796 0 0 1.58163 534.055 102.166)"/><path d="M139.973 49.224a1.707 1.707 0 1 0-3.414 0 1.707 1.707 0 1 0 3.414 0z" style="fill:#000;fill-opacity:1;fill-rule:evenodd;stroke:none;stroke-width:1pt;stroke-linecap:butt;stroke-linejoin:miter;stroke-opacity:1" transform="matrix(1.89796 0 0 1.58163 502.737 121.605)"/><path d="M139.973 49.224a1.707 1.707 0 1 0-3.414 0 1.707 1.707 0 1 0 3.414 0z" style="fill:#000;fill-opacity:1;fill-rule:evenodd;stroke:none;stroke-width:1pt;stroke-linecap:butt;stroke-linejoin:miter;stroke-opacity:1" transform="matrix(1.89796 0 0 1.58163 508.137 120.525)"/><path d="M139.973 49.224a1.707 1.707 0 1 0-3.414 0 1.707 1.707 0 1 0 3.414 0z" style="fill:#000;fill-opacity:1;fill-rule:evenodd;stroke:none;stroke-width:1pt;stroke-linecap:butt;stroke-linejoin:miter;stroke-opacity:1" transform="matrix(1.89796 0 0 1.58163 515.157 121.605)"/><path d="M139.973 49.224a1.707 1.707 0 1 0-3.414 0 1.707 1.707 0 1 0 3.414 0z" style="fill:#000;fill-opacity:1;fill-rule:evenodd;stroke:none;stroke-width:1pt;stroke-linecap:butt;stroke-linejoin:miter;stroke-opacity:1" transform="matrix(1.89796 0 0 1.58163 504.357 90.287)"/><path d="M139.973 49.224a1.707 1.707 0 1 0-3.414 0 1.707 1.707 0 1 0 3.414 0z" style="fill:#000;fill-opacity:.75;fill-rule:evenodd;stroke:none;stroke-width:1pt;stroke-linecap:butt;stroke-linejoin:miter;stroke-opacity:1" transform="matrix(1.89796 0 0 1.58163 511.917 95.687)"/><path d="M135.416 76.636c2.576-7.913 3.842-16.95 3.798-25.705" style="fill:none;fill-opacity:.75;fill-rule:evenodd;stroke:#000;stroke-width:1pt;stroke-linecap:butt;stroke-linejoin:miter;stroke-opacity:1" transform="translate(598.311 78.364) scale(1.42347)"/><path d="M139.973 49.224a1.707 1.707 0 1 0-3.414 0 1.707 1.707 0 1 0 3.414 0z" style="fill:#000;fill-opacity:1;fill-rule:evenodd;stroke:none;stroke-width:1pt;stroke-linecap:butt;stroke-linejoin:miter;stroke-opacity:1" transform="matrix(1.89796 0 0 1.58163 530.276 84.887)"/><path d="M139.973 49.224a1.707 1.707 0 1 0-3.414 0 1.707 1.707 0 1 0 3.414 0z" style="fill:#000;fill-opacity:1;fill-rule:evenodd;stroke:none;stroke-width:1pt;stroke-linecap:butt;stroke-linejoin:miter;stroke-opacity:1" transform="matrix(1.89796 0 0 1.58163 542.695 103.246)"/><path d="M129.076 77.321c2.221-7.475 3.133-15.511 3.295-23.267M127.164 78.996c-1.916-8.85-1.399-17.605-3.502-26.548M125.834 77.01c-3.023-6.417-4.174-13.115-7.104-19.251" style="fill:none;fill-opacity:.75;fill-rule:evenodd;stroke:#000;stroke-width:1pt;stroke-linecap:butt;stroke-linejoin:miter;stroke-opacity:1" transform="translate(598.311 78.364) scale(1.42347)"/><g transform="matrix(.90164 0 0 .90164 -104.847 9.875)"><g id="a"><path d="M265.307 205.581s5.314-51.24 4.175-51.619c-1.139-.38-2.847.76-3.985.19-1.139-.57-.033-3.522-.033-3.522 1.577-.491 3.149-.52 4.73-1.474 1.58-.953 3.171-2.831 4.757-4.247l-4.813-27.565c5.81 6.512 9.26 22.153 10.256 23.317.907-1.6 4.127-16.094 10.382-23.844l-4.671 27.618c1.53 1.698 2.531 3.534 3.884 4.386 1.353.852 3.342 1.712 4.517 1.717 1.604-.802 1.165 2.096.027 3.045-1.14.948-3.986.38-3.986.38l4.745 51.618s-8.16-2.277-14.423-2.657c-6.263-.38-15.562 2.657-15.562 2.657z" style="fill:#fed501;fill-opacity:1;fill-rule:evenodd;stroke:#917b01;stroke-width:.5;stroke-linecap:butt;stroke-linejoin:miter;stroke-miterlimit:4;stroke-opacity:1"/><path d="M270.048 170.85c.869-2.744 1.49-21.454 2.11-22.924M272.53 169.674c.248-2.743.744-21.552.744-21.552M267.979 204.412c1.01-4.04 1.732-31.603 2.453-33.768M274.515 148.318l-.124 21.356M270.865 202.68c.289-4.04.866-31.747.866-31.747M276.128 169.478c.249-.49.125-21.062.125-21.062M273.174 171.221l-.144 31.46M277.742 169.38c0-1.47.248-19.69.124-20.964M275.05 202.392c.289-.722.144-31.027.144-31.027M276.926 202.247c0-2.164.289-29.006.144-30.882M278.946 171.943l.145 30.016M281.255 171.51l-.144 30.16M283.131 171.365l-.144 30.305M285.151 172.953l-.144 29.294M286.739 172.664l.721 30.016M279.479 148.808l.124 20.376M288.182 172.664l1.732 30.016M281.464 148.514l-.124 20.474M290.202 172.664l2.165 31.026M283.077 148.416l-.124 20.572M284.815 149.494l-.124 19.886M286.18 149.298l.62 20.376M287.42 149.298l1.49 20.376M289.158 149.298l1.861 21.062" style="fill:none;fill-opacity:.75;fill-rule:evenodd;stroke:#917b01;stroke-width:.5;stroke-linecap:butt;stroke-linejoin:miter;stroke-miterlimit:4;stroke-opacity:1"/><path d="M278.816 139.772s-15.027-.423-17.305-1.182c-2.277-.759-3.605-.759-3.605-.759s1.897-3.795 3.605-4.175c1.708-.38 6.263 1.898 6.263 1.898l11.758 4.046s14.052-6.134 18.227-5.754c4.175.38 4.365 3.416 4.365 3.416s-2.278.949-3.227 1.518c-.949.57-20.081.992-20.081.992z" style="fill:#fed501;fill-opacity:1;fill-rule:evenodd;stroke:#917b01;stroke-width:.5;stroke-linecap:butt;stroke-linejoin:miter;stroke-miterlimit:4;stroke-opacity:1"/><path d="M261.752 146.322s-3.325-3.754-.897-6.371c2.428-2.618 36.974-1.78 38.682-.261 1.708 1.518.663 5.24.663 5.24s-1.898-.758-4.175-.948c-2.278-.19-6.453 3.795-6.453 3.795s-14.423 1.708-15.182 1.329c-.759-.38-2.467-5.124-5.503-5.124-3.037 0-7.135 2.34-7.135 2.34z" style="fill:#fed501;fill-opacity:1;fill-rule:evenodd;stroke:#917b01;stroke-width:.5;stroke-linecap:butt;stroke-linejoin:miter;stroke-miterlimit:4;stroke-opacity:1"/><path d="M260.95 150.59c1.045 1.043 7.914-.839 9.214-.725l19.659 1.716c4.528.396 7.445-2.062 8.963-2.251 1.518-.19.221-5.69-3.64-5.762-3.862-.07-25.377-.005-29.636.137-4.261.141-5.603 5.84-4.56 6.884z" style="fill:#fed501;fill-opacity:1;fill-rule:evenodd;stroke:#917b01;stroke-width:.5;stroke-linecap:butt;stroke-linejoin:miter;stroke-miterlimit:4;stroke-opacity:1"/><path d="M260.632 144.228s1.206-2.483 2.766-2.624c1.56-.142 33.049-.497 34.184-.071 1.134.425 2.624 2.907 2.624 2.907" style="fill:none;fill-opacity:.75;fill-rule:evenodd;stroke:#917b01;stroke-width:.5;stroke-linecap:butt;stroke-linejoin:miter;stroke-miterlimit:4;stroke-opacity:1"/><path d="M266.825 127.204s-.38-.57-1.328-2.467c-.95-1.898-1.329-5.314-1.329-5.314s4.175-.949 5.883.19c1.708 1.138 10.248 10.817 10.248 10.817s7.212-8.73 9.3-10.438c2.087-1.708 6.072-.19 6.072-.19s-.949 5.883-2.657 7.591c-1.708 1.708-13.853 14.234-13.853 14.234l-12.336-14.423z" style="fill:#fed501;fill-opacity:1;fill-rule:evenodd;stroke:#917b01;stroke-width:.5;stroke-linecap:butt;stroke-linejoin:miter;stroke-miterlimit:4;stroke-opacity:1"/><path d="M278.212 128.153s0-11.577-.19-13.854c-.19-2.277 2.277-3.416 2.277-3.416s1.898 1.708 1.708 3.795c-.19 2.088 0 14.993 0 14.993l-3.795-1.518z" style="fill:#fed501;fill-opacity:1;fill-rule:evenodd;stroke:#917b01;stroke-width:.5;stroke-linecap:butt;stroke-linejoin:miter;stroke-miterlimit:4;stroke-opacity:1"/><path d="M258.15 137.42c.355-.072 3.546-1.845 5.46-1.56 1.916.283 32.553-.072 33.9.07 1.348.142 4.398 1.277 4.398 1.277M260.987 150.54c1.276-1.56 2.127-3.12 4.184-3.688 2.057-.568 29.574-.922 30.496-.639.922.284 3.333 2.624 3.333 2.624" style="fill:none;fill-opacity:.75;fill-rule:evenodd;stroke:#917b01;stroke-width:.5;stroke-linecap:butt;stroke-linejoin:miter;stroke-miterlimit:4;stroke-opacity:1"/><path d="M264.902 134.803c-2.088-1.518-6.806-4.753-6.806-4.753s3.226-1.518 5.883-.949c2.656.57 15.94 10.084 15.94 10.084s12.526-9.324 15.373-10.084c2.846-.759 6.072 1.519 6.072 1.519s-5.175 2.976-6.883 5.063c-1.708 2.088-14.613 13.017-14.613 13.017s-12.879-12.378-14.966-13.897z" style="fill:#fed501;fill-opacity:1;fill-rule:evenodd;stroke:#917b01;stroke-width:.5;stroke-linecap:butt;stroke-linejoin:miter;stroke-miterlimit:4;stroke-opacity:1"/><path d="M276.694 137.262s-3.606-17.27-3.796-19.737c-.19-2.467.57-5.503.57-5.503s3.226 1.708 3.985 3.795c.759 2.088 3.226 14.992 3.226 14.992s1.139-13.474 2.087-15.182c.95-1.708 4.175-3.416 4.175-3.416s.95 3.606.38 5.694c-.57 2.087-5.314 19.926-5.314 19.926l-5.313-.57z" style="fill:#fed501;fill-opacity:1;fill-rule:evenodd;stroke:#917b01;stroke-width:.5;stroke-linecap:butt;stroke-linejoin:miter;stroke-miterlimit:4;stroke-opacity:1"/><path d="M260.136 129.476s2.837 1.135 4.326 2.482c1.49 1.348 15.106 13.263 15.106 13.263s13.404-12.766 14.822-13.333c1.419-.568 6.596-1.277 6.596-1.277" style="fill:none;fill-opacity:.75;fill-rule:evenodd;stroke:#917b01;stroke-width:.5;stroke-linecap:butt;stroke-linejoin:miter;stroke-miterlimit:4;stroke-opacity:1"/><path d="m263.789 127.773 15.751 15.941s12.905-12.525 14.803-14.802c1.897-2.278 3.985-4.745 3.985-4.745s-6.452.76-8.54 2.657c-2.087 1.898-9.678 10.817-9.678 10.817s-9.3-9.488-11.197-11.766c-1.898-2.277-7.591-1.518-7.591-1.518s1.518 2.088 2.467 3.416z" style="fill:#fed501;fill-opacity:1;fill-rule:evenodd;stroke:#917b01;stroke-width:.5;stroke-linecap:butt;stroke-linejoin:miter;stroke-miterlimit:4;stroke-opacity:1"/><path d="m262.087 124.194 17.643 16.484 16.486-16.035" style="fill:none;fill-opacity:1;fill-rule:evenodd;stroke:#917b01;stroke-width:.5;stroke-linecap:butt;stroke-linejoin:miter;stroke-miterlimit:4;stroke-opacity:1"/><path d="M280.679 133.466s-10.248-11.766-11.576-14.233c-1.329-2.467-.95-4.175-.95-4.175s2.657-.57 4.176 1.139c1.518 1.708 8.16 11.386 8.16 11.386s5.693-9.489 7.022-10.817c1.328-1.328 4.365-1.708 4.365-1.708s-.19 2.467-1.708 5.124c-1.519 2.657-9.49 13.284-9.49 13.284z" style="fill:#fed501;fill-opacity:1;fill-rule:evenodd;stroke:#917b01;stroke-width:.5;stroke-linecap:butt;stroke-linejoin:miter;stroke-miterlimit:4;stroke-opacity:1"/><path d="M268.533 115.438 280.3 130.05l11.197-14.802" style="fill:none;fill-opacity:1;fill-rule:evenodd;stroke:#917b01;stroke-width:.5;stroke-linecap:butt;stroke-linejoin:miter;stroke-miterlimit:4;stroke-opacity:1"/><path d="m280.206 111.108.213 18.581M273.681 112.384l6.88 18.794 6.17-18.368" style="fill:none;fill-opacity:.75;fill-rule:evenodd;stroke:#917b01;stroke-width:.5;stroke-linecap:butt;stroke-linejoin:miter;stroke-miterlimit:4;stroke-opacity:1"/><path d="m264.887 119.76 15.035 17.234 15.106-17.092" style="fill:none;fill-opacity:.75;fill-rule:evenodd;stroke:#917b01;stroke-width:.5;stroke-linecap:butt;stroke-linejoin:miter;stroke-miterlimit:4;stroke-opacity:1"/><path d="M268.343 172.56h23.722l-.759-9.678h-22.014l-.949 9.678z" style="fill:#fed501;fill-opacity:1;fill-rule:evenodd;stroke:#917b01;stroke-width:.5;stroke-linecap:butt;stroke-linejoin:miter;stroke-miterlimit:4;stroke-opacity:1"/><path d="m279.523 172.809 12.122-5.34M268.845 168.19l9.957-5.194" style="fill:none;fill-opacity:.75;fill-rule:evenodd;stroke:#917b01;stroke-width:.5;stroke-linecap:butt;stroke-linejoin:miter;stroke-miterlimit:4;stroke-opacity:1"/></g><use height="1052.362" id="b" transform="translate(46.178)" width="744.094" x="0" xlink:href="#a" y="0"/><use height="1052.362" transform="translate(45.601 -.289)" width="744.094" xlink:href="#b"/><path style="fill:#fdd401;fill-opacity:1;fill-rule:evenodd;stroke:none;stroke-width:1pt;stroke-linecap:butt;stroke-linejoin:miter;stroke-opacity:1" d="M240.945 31.89H407.48v70.866H240.945z"/><path d="M290.013 63.09a1.88 2.6 0 1 0-3.762 0 1.88 2.6 0 1 0 3.762 0z" style="fill:#0139ab;fill-opacity:1;fill-rule:evenodd;stroke:none;stroke-width:1pt;stroke-linecap:butt;stroke-linejoin:miter;stroke-opacity:1" transform="matrix(.19045 .6274 -.95688 .29047 380.525 -106.716)"/><path d="M290.013 63.09a1.88 2.6 0 1 0-3.762 0 1.88 2.6 0 1 0 3.762 0z" style="fill:#0139ab;fill-opacity:1;fill-rule:evenodd;stroke:none;stroke-width:1pt;stroke-linecap:butt;stroke-linejoin:miter;stroke-opacity:1" transform="matrix(.63475 .1643 -.25057 .9681 214.363 -12.824)"/><path d="M290.013 63.09a1.88 2.6 0 1 0-3.762 0 1.88 2.6 0 1 0 3.762 0z" style="fill:#0139ab;fill-opacity:1;fill-rule:evenodd;stroke:none;stroke-width:1pt;stroke-linecap:butt;stroke-linejoin:miter;stroke-opacity:1" transform="matrix(-.28628 .58987 -.89965 -.43662 530.53 -48.32)"/><path d="M290.013 63.09a1.88 2.6 0 1 0-3.762 0 1.88 2.6 0 1 0 3.762 0z" style="fill:#0139ab;fill-opacity:1;fill-rule:evenodd;stroke:none;stroke-width:1pt;stroke-linecap:butt;stroke-linejoin:miter;stroke-opacity:1" transform="matrix(.04352 .65422 -.9978 .06637 425.123 -106.295)"/><path d="M290.013 63.09a1.88 2.6 0 1 0-3.762 0 1.88 2.6 0 1 0 3.762 0z" style="fill:#0139ab;fill-opacity:1;fill-rule:evenodd;stroke:none;stroke-width:1pt;stroke-linecap:butt;stroke-linejoin:miter;stroke-opacity:1" transform="matrix(-.12951 .64275 -.9803 -.19753 421.046 -90.832)"/><path d="M290.013 63.09a1.88 2.6 0 1 0-3.762 0 1.88 2.6 0 1 0 3.762 0z" style="fill:#0139ab;fill-opacity:1;fill-rule:evenodd;stroke:none;stroke-width:1pt;stroke-linecap:butt;stroke-linejoin:miter;stroke-opacity:1" transform="matrix(.15444 .63722 -.97186 .23555 335.276 -111.642)"/><path d="M290.013 63.09a1.88 2.6 0 1 0-3.762 0 1.88 2.6 0 1 0 3.762 0z" style="fill:#0139ab;fill-opacity:1;fill-rule:evenodd;stroke:none;stroke-width:1pt;stroke-linecap:butt;stroke-linejoin:miter;stroke-opacity:1" transform="matrix(.65547 .00457 -.0481 .99997 143.648 32.148)"/><path d="M290.013 63.09a1.88 2.6 0 1 0-3.762 0 1.88 2.6 0 1 0 3.762 0z" style="fill:#0139ab;fill-opacity:1;fill-rule:evenodd;stroke:none;stroke-width:1pt;stroke-linecap:butt;stroke-linejoin:miter;stroke-opacity:1" transform="matrix(.47723 .44962 -.68574 .72785 226.785 -82.765)"/><path d="M290.013 63.09a1.88 2.6 0 1 0-3.762 0 1.88 2.6 0 1 0 3.762 0z" style="fill:#0139ab;fill-opacity:1;fill-rule:evenodd;stroke:none;stroke-width:1pt;stroke-linecap:butt;stroke-linejoin:miter;stroke-opacity:1" transform="matrix(.6225 .20589 -.31401 .94942 106.401 -77.955)"/><path d="M290.013 63.09a1.88 2.6 0 1 0-3.762 0 1.88 2.6 0 1 0 3.762 0z" style="fill:#0139ab;fill-opacity:1;fill-rule:evenodd;stroke:none;stroke-width:1pt;stroke-linecap:butt;stroke-linejoin:miter;stroke-opacity:1" transform="matrix(.59785 -.26922 .4106 .91182 60.838 58.423)"/><path d="M290.013 63.09a1.88 2.6 0 1 0-3.762 0 1.88 2.6 0 1 0 3.762 0z" style="fill:#0139ab;fill-opacity:1;fill-rule:evenodd;stroke:none;stroke-width:1pt;stroke-linecap:butt;stroke-linejoin:miter;stroke-opacity:1" transform="matrix(-.00651 -.65564 .99995 -.00993 189.023 241.712)"/><path d="M290.013 63.09a1.88 2.6 0 1 0-3.762 0 1.88 2.6 0 1 0 3.762 0z" style="fill:#0139ab;fill-opacity:1;fill-rule:evenodd;stroke:none;stroke-width:1pt;stroke-linecap:butt;stroke-linejoin:miter;stroke-opacity:1" transform="matrix(.23333 -.61275 .93454 .35587 125.112 194.62)"/><path d="M290.013 63.09a1.88 2.6 0 1 0-3.762 0 1.88 2.6 0 1 0 3.762 0z" style="fill:#0139ab;fill-opacity:1;fill-rule:evenodd;stroke:none;stroke-width:1pt;stroke-linecap:butt;stroke-linejoin:miter;stroke-opacity:1" transform="matrix(-.01934 -.65538 .99957 -.0295 195.844 272.923)"/><path d="M290.013 63.09a1.88 2.6 0 1 0-3.762 0 1.88 2.6 0 1 0 3.762 0z" style="fill:#0139ab;fill-opacity:1;fill-rule:evenodd;stroke:none;stroke-width:1pt;stroke-linecap:butt;stroke-linejoin:miter;stroke-opacity:1" transform="matrix(-.37045 -.541 .8251 -.565 305.985 281.233)"/><path d="M290.013 63.09a1.88 2.6 0 1 0-3.762 0 1.88 2.6 0 1 0 3.762 0z" style="fill:#0139ab;fill-opacity:1;fill-rule:evenodd;stroke:none;stroke-width:1pt;stroke-linecap:butt;stroke-linejoin:miter;stroke-opacity:1" transform="matrix(.61634 .22368 -.34114 .94001 100.052 -28.805)"/><path d="M290.013 63.09a1.88 2.6 0 1 0-3.762 0 1.88 2.6 0 1 0 3.762 0z" style="fill:#0139ab;fill-opacity:1;fill-rule:evenodd;stroke:none;stroke-width:1pt;stroke-linecap:butt;stroke-linejoin:miter;stroke-opacity:1" transform="matrix(.65567 0 0 1 74.254 34.105)"/><path d="M345.472 37.304s-13.565-.866-15.585 0c-2.02.866-2.31 3.752-4.33 3.752s-8.947-.577-10.678-.289c-1.732.289-5.484 2.31-5.484 5.195 0 2.886.721 7.808 11.256 8.082 11.112.288 30.016-6.927 30.016-6.927l.289 2.886s4.329-4.907 6.638-5.195c2.309-.289 4.618 1.154 3.752 2.309-.866 1.154-1.732 2.02-1.732 2.02s5.195-1.443 5.195-3.175c0-1.731-1.154-2.02-1.154-2.02s3.174.289 4.329 0c1.154-.289 2.309 1.443 1.732 2.598-.578 1.154-1.732 2.886-1.732 2.886s5.195-1.443 4.618-2.886c-.577-1.444-.577-2.31-.577-2.31s4.617-.865 5.483.578c.866 1.443-2.02 8.658-2.02 8.658s1.732-4.618 5.484-5.483c3.752-.866 5.772-1.732 8.08-.289 2.31 1.443 10.102 4.618 9.814 8.658 0 2.02-3.464 3.752-8.947 4.041-5.484.289-23.378-4.04-36.077-4.04-12.7 0-18.472 2.308-26.553 2.886-8.081.577-51.085 0-51.085 0s-10.678-3.752-12.699-7.504c-2.02-3.752 2.598-7.793 2.598-7.793l-1.732-1.443-2.02 1.443s1.732-4.33-1.732-4.33c-3.463 0-3.175 4.33-3.175 4.33s-2.309-4.33-3.752-4.618c-1.443-.288-2.309 4.618-2.309 4.618s4.041 1.443 3.752 3.463c-.288 2.02-5.195 2.02-5.195 2.02s-.288 3.753.866 4.619c1.155.865 3.464-2.31 4.618-2.02 1.155.288.866 9.524.866 9.524l1.732-2.02.288 8.08 1.732-4.04.289 8.947 6.35-4.33-2.887 9.525 4.04-4.04v5.772l21.935-4.618-2.309 4.04s-5.772 4.907-11.833 5.484c-6.06.577-10.679 1.155-13.565.866-2.886-.289-5.772-5.484-6.927-5.195-1.154.288.866 3.175-.288 4.618-1.155 1.443-5.772 2.597-4.33 3.463 1.444.866 6.35.577 6.35 2.02s-3.175 3.464-.866 4.618c2.31 1.155 5.195-3.463 5.773-2.309.577 1.155-.578 3.752 1.731 3.752 2.31 0 2.31-3.174 2.31-3.174l11.255 3.463-2.597-4.33s3.752 2.31 5.483 2.887c1.732.577 4.33.577 4.33.577l-3.464-4.618 7.504 4.04-1.731-4.617 6.349 3.752-1.154-4.04s2.597 2.308 4.617 2.308 3.175-1.731 3.175-1.731l-2.02-2.598s2.309 1.443 5.195 1.732c2.886.288 7.504-1.732 7.504-1.732l-5.484-1.732 5.195-1.731-2.597-1.732 3.752-6.35s1.443.29 6.638 0c5.195-.288 21.646-11.255 28.573-10.967 6.927.289 19.626 13.565 25.398 13.276 5.772-.288 16.45-1.154 16.45-1.154s-1.73 3.463-2.597 5.195c-.865 1.732-.865 4.04-.865 4.04l-5.484-.865s.288-1.155-2.02-1.155c-2.31 0-1.155 4.33-1.155 4.33s-1.732 2.886-.289 3.174c1.444.289 3.464-2.02 4.618-.866 1.155 1.155-.577 3.464 1.155 3.752 1.731.29.866-4.329 3.175-4.04 2.308.288 3.463 3.175 4.906 2.886 1.443-.289 2.02-2.886 2.02-2.886s-2.02-.866-2.02-2.31c0-1.442 2.309-5.194 3.752-5.194 1.443 0 1.154 2.886 1.154 2.886l1.444-3.175 1.731.577-2.309-4.329 4.907.577-2.886-3.174 3.174-.289s-2.309-1.154-2.309-2.886c0-1.732.866-4.33.866-4.33s-6.35 2.31-12.987.578c-6.639-1.732-15.008-9.813-15.008-9.813s15.296 2.598 19.625 2.309c4.33-.289 9.813-.577 10.68-4.04.865-3.464-5.196-12.988-5.196-12.988v3.752s-5.772-6.061-25.11-7.504c-19.337-1.443-33.767 11.544-50.507 10.101-15.008-1.731-8.37-10.679-.866-9.813 4.618.578 11.833 3.175 15.297 3.175 3.463 0 9.235-3.752 10.39-8.081z" style="fill:#d4170f;fill-opacity:1;fill-rule:evenodd;stroke:none;stroke-width:.625;stroke-linecap:butt;stroke-linejoin:miter;stroke-miterlimit:4;stroke-opacity:1"/><path d="M357.305 65.877c-2.02.288-24.244.866-25.11 9.235-.865 8.37 8.948 7.216 8.948 7.216l-.289 2.886s-6.35 1.154-10.101 1.154c-3.752 0-3.464-4.329-5.484-4.906s-2.598 3.175-2.598 3.175l-3.174.288.288 3.175 2.02 1.155.29 2.308 1.73 2.598 2.598-1.443.866 3.752s.866-.866 2.02-1.155c1.155-.288 2.02 1.444 2.02 1.444s-.288-3.752 3.176-4.041c3.463-.289 5.772 3.752 5.772 3.752v-4.04l3.175 3.174.577-4.33 3.752 3.753.866-3.752 2.02 1.732v-3.752l6.35 3.174.865-3.752 5.195 1.443-1.731-1.731h5.483s-2.02-4.618-3.752-6.35c-1.731-1.732-10.967-4.618-11.256-7.215-.288-2.598 5.484-8.947 5.484-8.947z" style="fill:#d4170f;fill-opacity:1;fill-rule:evenodd;stroke:none;stroke-width:.625;stroke-linecap:butt;stroke-linejoin:miter;stroke-miterlimit:4;stroke-opacity:1"/><path d="M281.688 52.023c-1.154 0-12.41 10.679-13.853 12.7-1.444 2.02-.578 5.194-.578 5.194l4.907-4.906s-1.443 2.886-1.443 5.195.866 4.906.866 4.906l2.597-6.35V80.02l3.752-5.484-2.309 10.968 4.907-8.082s-2.598 3.752-1.443 6.35c1.154 2.597 2.02 3.175 2.02 3.175l2.309-9.525s-.289 5.773.866 7.793c1.154 2.02 3.174 3.175 3.174 3.175s.289-3.752.578-6.638c.288-2.887-.578-5.196-.578-5.196s2.598 3.464 2.31 5.484c-.29 2.02-1.155 4.618-1.155 4.618s3.175-3.175 3.752-5.772c.577-2.598-.577-4.907-.577-4.907s.577 5.484 1.731 6.927c1.155 1.443 3.175 3.175 3.175 3.175v-9.813s.289 5.484 1.732 6.927c1.443 1.443 4.329 1.443 4.329 1.443s-2.309-4.04-2.598-7.504c-.288-3.464.578-4.907.578-4.907s.865 4.618 1.154 6.35c.289 1.731.866 3.752.866 3.752s.577-4.907.866-6.927c.288-2.02-.289-3.463-.289-3.463s2.598 4.04 2.02 5.195c-.577 1.154 0 2.309 0 2.309s1.444-5.195 1.444-7.504c0-2.31-1.444-4.33-1.444-4.33l3.752 5.195s1.155-4.906-.577-9.524c-1.731-4.618-10.679-9.813-10.679-9.813l-16.162-1.443z" style="fill:#d4170f;fill-opacity:1;fill-rule:evenodd;stroke:#fed501;stroke-width:.875;stroke-linecap:butt;stroke-linejoin:miter;stroke-miterlimit:4;stroke-opacity:1"/><path d="M277.647 45.674s-3.174 2.597-3.174 5.772c0 3.175 2.02 4.04 2.02 4.04l-1.154 5.773 2.02-1.155.288 5.773 2.02-2.886.867 5.483 2.02-2.02v5.484l2.02-2.598 1.155 2.886 1.731-3.174 1.732 2.886 1.443-2.886 3.464.865-.578-1.731 2.31.288-.867-4.618 2.31 3.175.288-3.752 2.597 1.732s1.732-7.504 1.732-12.122-1.443-7.215-1.443-7.215l2.886-4.33-4.906 1.444-1.443-4.041-2.887 2.309-.865-1.732-1.155 1.443-1.443-3.463-2.02 3.463-3.175-2.309-.577 3.175-2.598-1.154-.288 2.886s-4.33-3.175-5.773-3.175c-1.443 0 1.443 5.484 1.443 5.484z" style="fill:#d4170f;fill-opacity:1;fill-rule:evenodd;stroke:#fed501;stroke-width:.875;stroke-linecap:butt;stroke-linejoin:miter;stroke-miterlimit:4;stroke-opacity:1"/><path d="M279.668 54.332c2.02-.577.866 5.195 3.175 5.772 2.308.578 5.483-2.02 5.483-2.02s.866 2.886 3.464 2.598c2.597-.289 4.04-6.061 4.04-6.061" style="fill:none;fill-opacity:.75;fill-rule:evenodd;stroke:#fed501;stroke-width:.75;stroke-linecap:butt;stroke-linejoin:miter;stroke-miterlimit:4;stroke-opacity:1"/><path d="M284.286 64.722s2.931-3.72 3.05-6.183c.116-2.398-1.544-2.652-1.53-3.668.015-1.015.673-1.374 2.086-1.424 1.48-.052 2.498.605 2.57 1.616.068.944-2.136 1-2.136 3.598s3.175 6.061 3.175 6.061-1.818-.288-2.395 0c-.578.289-1.068 2.31-1.068 2.31s.134-1.8-1.309-2.089c-1.443-.288-2.443-.22-2.443-.22z" style="fill:#fed501;fill-opacity:1;fill-rule:evenodd;stroke:none;stroke-width:1pt;stroke-linecap:butt;stroke-linejoin:miter;stroke-opacity:1"/><path d="M290.013 63.09a1.88 2.6 0 1 0-3.762 0 1.88 2.6 0 1 0 3.762 0z" style="fill:#0139ab;fill-opacity:1;fill-rule:evenodd;stroke:none;stroke-width:1pt;stroke-linecap:butt;stroke-linejoin:miter;stroke-opacity:1" transform="matrix(.65567 0 0 1 98.935 -.37)"/><path d="M287.423 46.87c-1.437 1.21-2.577.828-4.58-.042-.114.983.865 4.33 2.597 4.04 1.732-.288 1.983-3.998 1.983-3.998zm-1.291 2.045a.964.964 0 1 1-1.929 0 .964.964 0 0 1 1.929 0zM290.624 47.096c1.437 1.21 2.5.147 4.505-.722.113.983-.829 4.82-2.56 4.532-1.732-.289-1.945-3.356-1.945-3.81zm1.253 1.856a.964.964 0 1 0 1.929 0 .964.964 0 0 0-1.93 0z" style="fill:#fed501;fill-opacity:1;fill-rule:evenodd;stroke:none;stroke-width:.75;stroke-linecap:butt;stroke-linejoin:miter;stroke-miterlimit:4;stroke-opacity:1"/><path d="M306.162 80.514c.214-.428 2.46-5.561 2.46-5.561s.107 3.101.535 2.566c.427-.534 1.497-3.85 1.497-3.85s1.497 2.14 1.925 1.39c.427-.748 1.069-1.71 1.069-1.71s.962 2.78 1.176 2.032c.214-.749 1.07-2.46 1.07-2.46s1.39 2.78 1.39 2.139c0-.642.428-2.674.428-2.674l1.069 1.497 1.818-2.46s-.214 2.888.214 2.14c.427-.749 1.176-2.353 1.176-2.353s1.176 1.818 1.711 1.07c.535-.75.856-1.39.856-1.39h1.39l.962-1.605 1.176 1.283.856-1.176M347.44 78.803c4.492-.107 4.705-1.711 4.705-1.711M351.183 80.407s2.032-.321 2.78-1.39M353.963 81.583c2.78-.107 2.674-1.497 2.674-1.497M357.065 82.438c2.673.642 2.245-1.497 2.245-1.497M358.99 84.684c1.39-.107 1.603-1.818 1.603-1.818M372.57 66.612c3.53-.642 2.78-.107 2.78-.107M374.495 68.43c1.711.107 2.78-1.284 2.78-1.284M376.527 69.713c1.818-.214 2.032-1.283 2.032-1.283M378.987 70.782c1.71-.214 1.925-1.176 1.925-1.176M381.019 71.745c1.818-.749 1.497-1.284 1.497-1.284" style="fill:none;fill-opacity:1;fill-rule:evenodd;stroke:#fed501;stroke-width:.75;stroke-linecap:butt;stroke-linejoin:miter;stroke-miterlimit:4;stroke-opacity:1"/><path d="M344.157 38.05c-6.347-.806-7.337 2.972-7.337 2.972s3.779-1.504 4.109-1.137c.33.367-.734 2.495-.294 2.275.44-.22 3.009-2.018 3.522-4.11z" style="fill:#fed501;fill-opacity:1;fill-rule:evenodd;stroke:none;stroke-width:1pt;stroke-linecap:butt;stroke-linejoin:miter;stroke-opacity:1"/><path d="M237.402 28.346h173.622v177.166c0 17.716-21.26 17.716-85.04 38.976-63.78-21.26-88.242-22.352-88.582-38.976V28.346zm7.086 7.087h159.449v170.079c0 7.086-14.173 10.63-77.953 31.89-63.78-21.26-81.496-24.804-81.496-31.89V35.433z" style="fill:#feffff;fill-opacity:1;fill-rule:evenodd;stroke:none;stroke-width:1pt;stroke-linecap:butt;stroke-linejoin:miter;stroke-opacity:1"/></g></svg>