<svg xmlns="http://www.w3.org/2000/svg" viewBox="0 0 1000 1000"><path fill="#0071bc" d="M8 195.25c170.83-85.22 341.03-54.42 513.26-27.97 155.21 23.84 312.16 44.57 470.74-34.53v672c-170.83 85.22-341.03 54.42-513.26 27.97C323.53 808.88 166.58 788.15 8 867.25v-672"/><path fill="#fff" d="M556.89 704.25c.3-.38 17.02-21.94 34.03-15.52 5.47-25.67 23.52-25.47 23.86-25.47-.03-.58-1.75-28.56 22.35-33.05 1.02-19.84 15.17-34.54 15.35-34.73-.05-.58-2.82-30.24 12.35-36.75-8.99-25.3 2.92-41.78 3-42.37-.39-1.01-15.46-39.11-1.84-49.59-14.63-18.66-10.07-37.05-10-37.31-.32-.14-15.74-7.04-10.35-33.09-13.26-5.2-15.97-33.75-16.01-34.24-.46.07-19.92 3.3-23.02-21.38-13.53.54-15.01-16.64-15.19-17.21-.64.1-26.21 6.02-32.19-22.26-10.62 5.12-14.67-7.37-14.85-7.88-.38.19-14.34 7.55-23.69-12.94-18.01 11.78-27.29-4.54-27.52-4.94-.47.35-22.54 16.97-30.87.06-14.07 16.52-25.56 7.12-25.86 6.89-.22.49-10.04 22.89-27.02 14.94-4.36 22.6-22.63 20.81-23.02 20.78.04.51 1.92 20.02-21.02 23.6-3.35 23.83-14.77 26.69-15.02 26.75.02.48.98 22.94-9.67 30.12 3.45 13.8-6 28.6-6.18 28.88.19.34 10.34 18.69-3.83 38.43 13.73 6.86 4.01 37.81 3.83 38.35.37.26 18.85 13.18 7.18 34.33 13.66 7.76 9.63 21.8 9.67 30.96 9.04 6.24 16.46 4.46 12.85 28.4 26.98 7.55 14.54 25.89 14.35 26.18.47.09 12.05 2.02 7.67 15.26 23.2 2.72 26.47 26.69 26.53 27.08.59-.13 20.73-4.61 24.35 7.04 2.56 11.97-9.31 86.68-9.34 86.85-.26-.04-17.82-2.65-31.7-24.06-31.53-5.71-24.83-31.93-25.19-32.59-.77.07-10.14 3.96-15.68-20.09-21.21 3.14-20.55-19.67-20.69-20.54-.48-.45-9.02-6.45-6-18.47-21.83.36-20.22-27.08-20.19-27.75-4.79-3.23-6.43-8.83-5.84-15.12-3.19-1.51-21.74-2.69-12.17-37.2-18.14-16.33-7.27-32.64-7.01-33.04-.42-.31-25-18.09-5.84-38.88-14.31-30.14.93-44.18 1.17-44.4-.26-.37-19.97-28.15.33-48.3-3.01-43.09 15.14-52.5 15.35-52.61-.08-.29-9.68-34.93 16.85-48.61 2.09-35.29 20.04-34.84 20.35-34.84.01-.31.46-27.69 29.86-22.58 6.24-24.37 25.27-17.33 25.7-17.17.08-.41 5.95-29.12 33.36-11.41 14.33-34.68 34.06-13.37 34.37-13.05.4-.3 12.54-9.17 19.51-5.02 8.7-17.7 25.58 2.82 37.23 8.75 4.4-1.85 18.42-14.11 30.17 6.39 15.42-10.49 27.59 14.25 27.86 14.78.35-.18 20.2-11.23 30.36 22.57 43.78.74 37.66 37.33 37.54 38.09.44-.09 33.91-7.37 27.02 38.74 31.25 6.07 28.27 32.48 28.2 33.14.34.38 19.32 21.07 11.17 39.51 17.51 2.6 11.35 24.16 11.18 24.78.26.15 13.16 7.24 2.34 35.84 25.42 29.27 5.31 55.96 4.83 56.17.02.02 13.52 22.74 1.17 49.24 3.56 42.16-11.5 52.21-11.67 52.32.06.43 3.84 26.74-13.35 34.32-.82 32.03-22 34.39-22.35 34.43.08.23 5.68 14.03-16.02 27.19-1.49 21.35-23.22 20.81-23.69 20.8-.03.43-2.02 38.49-31.2 25.11-7.72 30.49-40.52 16.75-41.7 16.01-.41-.84-6.48-68.19-6.51-68.62"/><path d="M556.2 703.26c3-3.82 6.59-7.29 10.94-10.55 8.63-6.24 15.93-7.98 23.1-5.57 2.39-10.6 6.89-17.61 14.04-21.99 3.43-1.94 6.43-2.94 9.49-3.18-.07-4.76.65-9.47 2.24-14.46 3.66-10.64 10.09-16.46 20.22-18.47.55-8.24 3.17-16.2 8.08-24.45 2.44-3.99 4.81-7.2 7.16-9.74-.39-5.12-.23-10.37.49-15.92 1.68-11.32 5.34-17.93 11.54-21.02-5.06-14.95-4.03-28.4 3.14-41.53l.09-.16c-2.8-7.41-4.86-14.66-6.23-21.83-2.55-14.18-1.27-23.02 3.91-27.91-5.76-7.68-8.98-15.86-9.93-25.17-.36-4.32-.24-7.94.32-11.07-2.52-1.47-4.69-3.59-6.86-6.77-4.45-7.03-5.58-15.43-3.49-26.23-5.46-2.61-9.5-8.69-12.7-19.29-1.42-4.97-2.39-9.74-2.93-14.39-3.32.29-6.46-.2-9.97-1.58-7.45-3.3-11.55-9.54-13.04-19.86-8.12.07-12.81-5.26-15.08-17.12-5.13.77-9.78.47-14.49-.92-9.37-3.12-14.95-9.8-17.61-21.05-4.46 1.85-7.73 1.11-11.25-2.54a19.909 19.909 0 0 1-3.42-5.46c-2.5 1.01-5.01 1.32-8.1.98-6.61-1.08-11.44-5.37-15.46-13.83-7.54 4.78-13.89 5.28-20.39 1.62-2.97-1.85-5.18-3.94-7-6.61-3.8 2.68-7.75 4.68-12.08 6.13-9.12 2.76-14.88.98-18.75-5.77-5.83 6.61-11.46 9.45-17.89 9.09-3-.3-5.32-1.08-7.45-2.46-1.81 3.69-4.1 6.97-7.03 10.06-6.44 6.39-12.55 7.89-19.7 4.85-1.99 9.32-6.19 15.12-13.27 18.45-3.35 1.43-6.34 2.06-9.41 2.02.02 3.35-.64 6.57-2.08 10.08-3.45 7.61-9.49 11.79-19.15 13.36-1.44 9.88-4.31 17-8.83 22.13-2.17 2.31-4.07 3.69-6.02 4.47.09 3.76-.19 7.69-.83 11.9-1.51 8.98-4.28 14.61-8.66 17.87 1.26 5.86.64 12.09-1.96 19.44-1.29 3.42-2.66 6.34-4.17 8.86 1.58 3.28 2.65 7.07 3.25 11.7 1.03 9.6-1.09 17.99-6.59 26.13 5.31 3.54 7.34 10.49 6.41 22.18-.54 5.61-1.55 10.93-3.06 16.09 3.01 2.38 5.47 5.31 7.67 9.16 4.44 8.33 4.37 16.31-.2 25.21 4.59 2.95 7.31 6.64 8.76 11.89.76 3.25.97 7.9.58 14.23-.14 1.97-.21 3.5-.23 4.59 1.07.71 2.49 1.55 4.28 2.54 4.28 2.44 6.74 4.74 8.06 7.38 1.61 3.92 1.87 9.76.69 18.23 11.33 3.32 16.68 8.64 17.18 16.83.04 3.49-.64 6.47-2.17 9.5 1.59.56 2.98 1.35 4.36 2.49 3.54 3.28 4.43 6.99 2.98 12.5 9.36 1.42 16.09 6.12 21.21 14.74 2.3 4.11 3.78 8.01 4.56 11.97 3.38-.64 6.77-.88 10.34-.74 8.31.57 12.61 3.33 14.2 8.99 1.15 5.2.04 21.24-3.57 48.49l-5.74 39.03v.02l-.16 1-.77-.1c-3.15-.52-6.74-1.82-11.05-4.06-8.38-4.58-15.25-11.1-21.07-20.07-12.24-2.21-19.78-7.31-23.77-16.23-1.89-4.67-2.57-9.84-2.07-16.1-2.26.13-4.1-.42-6.14-1.85-3.98-3.16-6.91-8.95-9.13-18.3-8.4 1.11-13.85-1.36-17.68-8.09-1.85-3.61-2.91-7.84-3.25-13.15-5.83-5.13-7.83-10.63-6.47-17.86-8.91-.25-14.46-4.64-17.79-14.25-1.47-4.69-2.13-9.27-2.02-14.07-4.53-3.3-6.34-7.85-5.9-14.96l-.65-.21c-5.33-1.8-8.79-4.25-11.19-7.93-3.89-6.72-4.07-16.18-.46-29.49-7.61-6.99-10.85-14.28-10.22-23.12.42-3.93 1.36-7.14 2.92-10.06-3.91-3.17-7.02-6.85-9.59-11.4-5.36-10.16-4.13-19.09 3.94-28.14-5.86-12.58-7.31-23.43-4.53-33.58 1.4-4.65 3.19-8.07 5.55-10.72-3.09-4.74-5.41-10.02-7.06-16.14-3.33-13.38-.83-23.88 7.82-32.6-1.23-17.96.97-31.94 6.66-42.59 2.78-4.97 5.5-8.18 8.49-10.12-1.4-5.81-1.85-11.96-1.33-18.76 1.35-14.42 7.29-24.18 18.47-30.06.91-14.8 4.54-24.77 11.17-30.82 3.25-2.76 6.07-4.07 9.19-4.36.35-4.59 1.65-8.72 4.07-12.93 5.41-8.68 13.64-11.85 26.02-9.79 2.73-10.21 7.59-15.78 15.42-17.66 3.72-.72 6.94-.6 10.28.37 1.25-4.77 3.34-8.61 6.53-12.06 6.99-6.94 15.49-6.81 27.05.51 6.09-14.47 13.35-20.59 22.84-19.27 4.62.86 8.37 2.85 11.98 6.36 2.1-1.47 4.39-2.77 6.93-3.95 5.39-2.32 9.05-2.63 12.17-1.15 3.14-5.83 6.98-7.73 12.77-6.34 3.36 1.01 8.44 3.96 15.51 9.14 4.28 3.14 7.36 5.18 9.28 6.2.42-.2 1.09-.56 2.03-1.08 5.19-2.86 9.28-4.18 12.81-4.21 6.24.31 11.09 3.82 15.61 11.38 6.62-4.22 12.75-3.03 19.87 3.85a47.91 47.91 0 0 1 8.08 11.02c3.57-1.62 7.05-1.98 11.32-1.16 8.82 2.13 15 9.73 19.37 24.02 18.46.37 29.83 6.56 35.42 19.65 2.43 6.13 3.29 12 2.69 18.19 5.53-.75 10.4.01 15.41 2.43 10.58 5.6 14.31 17.29 11.58 36.77 12.93 2.67 21.08 8.65 25.52 18.99 2.05 5.17 2.85 9.89 2.53 14.72 3.2 3.63 6.03 7.84 8.6 12.8 4.99 10.02 5.98 18.36 3.15 26.15 7.05 1.49 10.59 5.72 11.58 13.98.32 3.85.06 7.48-.79 11.21 2.09 1.61 3.64 3.86 5.01 7.37 2.63 7.56 1.8 16.87-2.67 28.83 10.65 12.43 14.5 25.14 11.9 39.59-.93 4.59-2.41 8.85-4.54 13.02-.71 1.34-1.41 2.54-2.12 3.6l-.33.46c2.28 4.44 3.97 9.42 5.12 15.19 2.22 12.11.84 23.26-4.24 34.19 1.5 17.66-.02 31.57-4.57 42.29-2.26 5.08-4.52 8.37-7.03 10.43.51 4.47.42 9.1-.3 14.09-1.74 10.61-5.91 17.1-13.17 20.48-.42 13.42-4.21 22.91-11.72 29.37-3.52 2.84-6.74 4.47-10.2 5.2.5 2.43.42 4.98-.28 8.12-1.92 7.23-7.08 13.32-16.2 18.86-.74 9.16-4.74 15.09-12.73 18.76-3.77 1.58-7.3 2.36-10.99 2.44-.55 6.34-2.12 11.97-4.8 17.28-5.93 10.98-14.34 13.6-26.65 8.16-3.46 12.67-11.02 18.89-23.76 19.41-4.1.05-8.3-.49-12.86-1.7-3.46-.97-5.41-1.72-6.14-2.24-.49-.65-1.9-12.2-4.02-35.5l-3.01-34.36v-.51l.26-.34m1.67 1.62 2.97 33.54 2.2 23.49.83 7.79.28 2.18.01.1c.78.36 2.47.93 5.14 1.67 4.42 1.17 8.49 1.7 12.45 1.65 12.29-.51 19.41-6.56 22.44-18.93l.27-1.16.89.43c11.88 5.56 19.88 3.34 25.45-6.92 2.65-5.26 4.13-10.85 4.55-17.17l.06-1.13.84.02c3.77.04 7.36-.69 11.23-2.31 7.45-3.44 11.05-8.87 11.56-17.34l.03-.75.5-.3c8.94-5.31 13.94-11.01 15.72-17.68.71-3.21.66-5.56-.11-7.71l-.71-1.74 1.41-.14c3.61-.48 6.95-2.05 10.66-5.02 7.12-6.14 10.62-15.21 10.87-28.19l.01-.92.64-.26c6.95-2.96 10.91-8.91 12.55-18.84.71-5.01.76-9.59.16-14l-.14-.98.65-.42c2.42-1.73 4.61-4.82 6.88-9.89 4.37-10.3 5.79-23.82 4.28-41.12l-.05-.47.2-.4c4.92-10.4 6.28-20.98 4.18-32.5-1.16-5.83-2.9-10.79-5.27-15.17-.02-.03-.04-.06-.04-.07-.02-.04-.04-.07-.06-.11a1.35 1.35 0 0 1-.08-.24c-.07-.31-.07-.58 0-.89.14-.46.3-.7.55-.83.15-.2.34-.45.54-.76.66-.98 1.32-2.09 1.98-3.34 1.99-3.91 3.38-7.89 4.24-12.16 2.45-13.64-1.38-25.69-11.85-37.61l-.61-.69.37-.94c4.47-11.6 5.41-20.43 3.01-27.38-1.32-3.38-2.8-5.36-4.85-6.62l-.89-.5.34-1.2c.99-3.7 1.31-7.28.99-11.1-.92-7.4-4.34-10.95-11.32-11.9l-1.65-.17.89-1.86c3.3-7.26 2.58-15.19-2.31-25.05-2.58-4.97-5.42-9.14-8.64-12.71l-.45-.49.09-.77c.41-4.48-.29-8.87-2.23-13.78-4.23-9.82-12.22-15.41-25.09-17.82l-1.1-.19.23-1.46c2.91-18.76-.33-29.89-10.04-35.06-5.12-2.47-10.12-3.11-15.84-2.03l-1.46.3.32-1.97c.93-6.21.22-12.05-2.21-18.22-5.25-12.27-16.25-17.99-34.31-18.19h-.71l-.26-.93c-4.06-13.81-9.78-21.11-17.98-23.11-4.23-.81-7.61-.38-11.07 1.39l-.72.4-.48-.96c-2.14-4.2-4.76-7.85-8.03-11.21-6.7-6.45-12.37-7.38-18.54-3.06l-.72.53-.54-.99c-4.19-7.43-8.67-10.85-14.49-11.15-3.28.04-7.13 1.29-12.1 4.02-1.24.7-2.07 1.12-2.5 1.29l-.28.11-.29-.14c-1.99-1.01-5.27-3.15-9.87-6.54-6.89-5.04-11.78-7.89-14.93-8.85-5.26-1.24-8.64.6-11.37 6.19l-.42.92-.77-.55c-2.68-1.67-6.07-1.45-11.45.86-2.67 1.24-5.03 2.61-7.18 4.18l-.53.39-.53-.56c-3.42-3.51-6.98-5.47-11.47-6.31-8.91-1.22-15.73 4.82-21.51 19.07l-.4 1-.8-.54c-11.22-7.37-19.35-7.73-25.91-1.24-3.15 3.4-5.11 7.19-6.19 11.93l-.23 1.12-.86-.32c-3.32-1.13-6.54-1.32-10.32-.59-7.37 1.78-11.86 7.12-14.29 16.99l-.22.96-.75-.15c-12.1-2.21-20.03.64-25.13 8.79-2.37 4.14-3.55 8.15-3.72 12.61l-.02 1.22-.89-.03c-3.05.05-5.78 1.23-9.04 3.98-6.25 5.71-9.63 15.3-10.4 29.7l-.04.82-.56.27c-10.83 5.47-16.56 14.62-17.84 28.25-.51 6.85-.01 12.96 1.53 18.7l.34 1.21-.87.44c-2.98 1.65-5.68 4.69-8.52 9.74-5.47 10.26-7.54 23.88-6.24 41.53l.06.76-.46.43c-8.23 8.03-10.64 17.66-7.57 30.04 1.68 6.25 4.1 11.57 7.37 16.29l.8 1.13-.94.85c-2.48 2.4-4.31 5.68-5.75 10.42-2.61 9.56-1.07 19.95 4.83 32.19l.5 1.03-.71.73c-7.7 8.21-9.03 16.18-4.28 25.25 2.62 4.63 5.84 8.32 9.98 11.44l1.09.8-.82 1.23c-1.76 2.78-2.78 5.9-3.21 9.89-.55 7.98 2.6 14.62 10 21.16l.69.59-.3 1.01c-3.64 12.86-3.64 21.77-.15 27.85 2.11 3.21 5.21 5.38 10.11 7.03.85.27 1.39.48 1.65.61l.75.4-.13 1.07c-.65 6.7.95 10.81 5.26 13.67l.65.4-.06.94c-.2 4.68.38 9.12 1.82 13.71 3.13 8.98 8.5 12.83 17.33 12.59l1.54-.08-.57 1.93c-1.82 6.78-.17 11.85 5.39 16.65.2.16.33.3.41.41.17.27.27.69.31 1.33.29 4.9 1.23 8.72 2.87 11.96 3.47 6.05 8.57 8.11 16.64 6.82l.85-.16.25 1.17c3.2 14.33 7.64 20.24 14.29 19.12.23-.05.38-.06.48-.05.61.11.88.47.97 1.33.01.13.01.27 0 .44l-.07.79c-.57 6-.01 10.85 1.73 15.16 3.66 8.16 10.81 12.83 22.59 14.87l.4.07.27.43c5.63 8.81 12.3 15.2 20.49 19.67 3.76 1.97 6.94 3.18 9.73 3.76l5.58-37.94c3.54-26.82 4.69-42.43 3.64-47.2-1.29-4.34-4.92-6.43-12.28-6.95-3.79-.15-7.37.15-10.93.91l-.99.23-.19-1.4c-.6-3.96-2-7.87-4.36-12.09-4.99-8.39-11.71-12.78-21.21-13.8l-1.58-.14.71-1.84c1.73-4.96 1.27-8.06-1.56-10.77-1.64-1.34-3.29-2.12-5.3-2.51l-1.96-.33 1.27-1.89c1.96-3.07 2.82-6.01 2.8-9.55-.47-6.93-5.58-11.47-16.52-14.43l-1.05-.27.22-1.38c1.3-8.51 1.18-14.15-.23-17.64-1.07-2.09-3.19-4.01-7.04-6.2-2.19-1.21-3.86-2.22-5.04-3.05l-.54-.38-.02-.82c-.01-1.17.07-3.07.24-5.71.37-5.95.19-10.24-.47-13.12-1.38-4.86-4.06-8.2-8.79-10.86l-1.27-.68.81-1.38c4.73-8.38 5.04-15.74.99-23.39-2.21-3.84-4.7-6.69-7.79-8.93l-.85-.59.36-1.14c1.63-5.29 2.72-10.76 3.27-16.54.88-11.22-1.15-17.43-6.47-20l-1.58-.69 1.13-1.51c5.82-7.96 8.09-16.07 7.11-25.37-.61-4.62-1.69-8.27-3.33-11.35l-.49-.88.51-.77c1.59-2.52 3.04-5.51 4.39-9.11 2.54-7.17 3.03-13.06 1.62-18.47l-.32-1.13.78-.47c4.27-2.79 6.92-7.99 8.4-16.67.66-4.38.91-8.42.75-12.25l-.05-1.09.77-.19c1.9-.56 3.76-1.84 5.99-4.21 4.31-4.91 7.02-11.85 8.32-21.58l.11-.89.66-.09c9.44-1.38 15.25-5.22 18.48-12.32 1.45-3.54 1.99-6.67 1.76-9.92l-.14-1.46 1.07.1c3.16.22 6.22-.35 9.72-1.84 6.8-3.21 10.71-8.87 12.39-18.05l.22-1.31.97.5c6.85 3.31 12.68 2.06 18.89-4.1 3.02-3.19 5.31-6.56 7.05-10.38l.44-1.01.81.66c2 1.52 4.24 2.35 7.33 2.67 6.24.33 11.71-2.61 17.42-9.47l.84-1.02.64 1.45c3.2 6.66 8.43 8.41 17.2 5.78 4.45-1.49 8.48-3.58 12.34-6.41l.7-.53.55.96c1.64 2.69 3.73 4.77 6.7 6.62 6.17 3.45 12.25 2.8 19.6-2.13l.81-.57.5 1.19c3.69 8.3 8.15 12.48 14.34 13.51 3.17.34 5.65-.05 8.12-1.24l.87-.46.41 1.26c.74 2.08 1.77 3.86 3.24 5.56 3.16 3.23 6.11 3.67 10.31 1.54l1.05-.59.31 1.61c2.23 10.98 7.38 17.45 16.33 20.45 4.72 1.39 9.39 1.63 14.58.73.17-.03.29-.04.36-.03.54.13.83.58 1.03 1.64 2 11.24 6.31 16.05 14.01 15.57l.95-.09.14 1.33c1.14 9.85 4.81 15.73 11.71 18.8 3.61 1.41 6.79 1.82 10.18 1.35l1.01-.17.12 1.4c.47 4.85 1.44 9.84 2.94 15.08 3.13 10.35 7.01 15.97 12.3 17.96l1.05.35-.31 1.38c-2.25 10.46-1.35 18.43 2.76 24.96 2.21 3.21 4.35 5.18 6.91 6.43l1 .43-.33 1.3c-.71 3.03-.9 6.66-.52 11.2.94 9.13 4.25 17.14 10.24 24.66l1.04 1.29-1.18.83c-5.27 3.97-6.6 12.12-4.13 25.95 1.37 7.15 3.45 14.38 6.28 21.79l.06.16c.16.57.02 1.21-.5 2.2-6.92 12.7-7.74 25.69-2.51 40.15l.52 1.4-1.06.4c-6.1 2.52-9.66 8.64-11.29 19.59-.73 5.54-.86 10.76-.41 15.82l.07.72-.42.42c-2.37 2.5-4.77 5.72-7.27 9.79-4.86 8.19-7.37 16-7.72 24.04l-.04 1.02-.73.11c-9.89 1.75-16.07 7.16-19.56 17.24-1.61 5.07-2.26 9.78-2.03 14.52l.08 1.31-.95-.01c-3.1.06-6.14.99-9.69 3.01-6.91 4.24-11.17 11.11-13.32 21.61l-.23 1.17-.89-.37c-6.89-2.7-14.01-1.12-22.56 5.06-4.08 3.06-7.46 6.3-10.3 9.84m165.08-190.54c-.29.29-.52.42-.77.43.35.05.56-.07.77-.43m-.89-2.23a1.02 1.02 0 0 1 .83.44c-.3-.4-.53-.52-.83-.44"/><path d="M598.27 743.53c-.27.8-.27 1.74.05 3.09.94 3.07 3.11 5.75 7.2 8.75l-.74 2.3c-4.6-3.36-7.13-6.59-8.25-10.4-.49-2.11-.47-3.69.05-5.16l1.69 1.42M617.8 728.11c7.99-1.6 14.25-.89 19.75 2.22l-.64 2.38c-5.14-2.9-11.04-3.54-18.67-2.02l-.44-2.58M653.24 693.6c-.01.09-.02.21-.03.35-.48 4.56 1.73 9.58 7.19 16.03l-1.18 1.95c-6.06-7.16-8.51-13.06-7.88-18.64-.01.02-.01.06-.01.13l1.91.18M659.38 675.52c1.09 1.14 2.57 2.31 4.56 3.57 4.12 2.44 8.23 3.73 12.88 4.03l.04 2.6c-4.91-.31-9.26-1.67-13.61-4.27-2.15-1.36-3.77-2.65-5-3.94l1.13-1.99M591.84 688.77c.05 3.08-.17 6.45-.66 10.16-1.1 7.59-3.04 12.75-5.98 16.19l-1.29-2.1c2.62-3.08 4.37-7.78 5.4-14.81.46-3.53.67-6.72.63-9.62l1.9.18M613.7 662.71c1.81.8 3.92 1.4 6.48 1.84 5.19.72 9.25.1 13.06-1.96l.85 2.42c-4.09 2.22-8.46 2.91-13.97 2.13-2.69-.46-4.94-1.11-6.89-1.96l.47-2.47M685.34 643.66c.32.57 1.01 1.15 2.26 1.86 2.84 1.45 6.49 2.16 11.57 2.13l.09 2.61c-8.73.04-13.43-1.62-15.48-5.2l1.56-1.4M637.06 628.64c1.39 1 4.01 2.11 8.2 3.34 6.16 1.66 10.6 1.5 14.34-.4l.81 2.43c-4.09 2.09-8.87 2.28-15.41.52-4.4-1.3-7.21-2.51-8.79-3.65l.85-2.24M663.99 557.95c.31-.49.61-.59 1.09-.37.23.13.41.33.59.66.21.42.48 1.16.81 2.27.91 3.23 2.3 9.27 4.14 18.14l-1.83.57c-1.82-8.78-3.19-14.73-4.08-17.88-.26-.89-.45-1.43-.56-1.65.08.13.18.23.34.31.44.21.72.11 1.02-.36l-1.52-1.69M676.59 501.1c-.13 1.98-.51 4.1-1.17 6.45-1.5 4.79-3.5 7.87-6.45 9.99l-.91-2.35c2.54-1.85 4.26-4.5 5.58-8.72.6-2.1.94-3.97 1.05-5.7l1.9.33M718.03 458.61a55.138 55.138 0 0 0-4.43 5.56c-2.59 3.85-3.43 6.01-3.06 7.44l-1.66 1.21c-1.28-3.77 1.14-8.76 7.95-16.26l1.2 2.05M670.92 446.9c.87 2.19 1.39 4.55 1.59 7.34.21 5.77-1.34 9.86-5.02 13.33l-1.1-2.21c3.09-2.94 4.37-6.27 4.23-11.05-.18-2.38-.61-4.38-1.33-6.2l1.63-1.21M646.1 395.44c1.56.1 3.17.57 5.06 1.52 3.77 2.12 6.27 5.13 8.11 9.86l-1.7 1.04c-1.6-4.07-3.72-6.62-6.98-8.48-1.67-.83-3.07-1.25-4.4-1.34l-.09-2.6M664.92 324.85c-.01-.23-.03-.38-.07-.49 1 2.76.5 5.12-1.8 8.29l-1.34-1.96c1.61-2.17 2.02-3.63 1.52-5.1-.14-.34-.21-.63-.22-.9l1.91.16M603.96 318.82c3.12 7.24 4.39 14.69 3.91 22.94l-1.89-.47c.43-7.66-.74-14.56-3.62-21.28l1.6-1.19M629.41 288.22c1.26-.13 3.96-1.13 8.42-3.32l.77 2.45c-4.64 2.29-7.54 3.35-9 3.48l-.19-2.61M600.19 248.66c.43.03.66-.12.82-.56-.02.05-.04.14-.07.26-.07.35-.15.78-.23 1.3-.22 1.45-.34 2.9-.38 4.38-.01 4.43.68 7.14 2.2 9.07l-1.12 1.96c-2.07-2.55-3-6-2.99-11.35.17-5.45.67-7.52 1.77-7.66v2.6M590.25 301.52c.08 3.56.85 6.67 2.43 9.9 1.05 2.11 1.59 3.77 1.73 5.21.06 2.19-.52 4.71-1.91 8l-1.65-1.5c1.19-2.83 1.7-4.89 1.66-6.52-.09-.93-.51-2.15-1.35-3.81-1.84-3.73-2.73-7.4-2.81-11.54l1.9.26M570.89 289.34l-5.41 5.42c-3.73 3.78-5.37 5.77-5.52 6.32l-1.91-.28c.17-1.4 2.01-3.93 6.21-8.21 4.04-4.03 6.11-5.74 6.63-5.85v2.6M541.06 276c.88 1.38 1.7 3.09 2.49 5.22 1.51 4.38 1.99 8.36 1.53 12.49l-1.87-.74c.38-3.55-.04-6.97-1.34-10.8-.7-1.88-1.42-3.37-2.16-4.54l1.35-1.63M500.44 263.16l-.07.17c-3 7.95-5.34 12.22-7.24 13.58l-.95-2.4c1.56-1.15 3.66-5.08 6.48-12.57l.08-.21 1.7 1.43M463.55 255.88c1.13.43 1.83 2.61 2.38 7.89.42 5.48-.42 9.48-2.65 12.88l-1.44-1.91c1.85-2.88 2.55-6.23 2.2-10.93-.15-1.51-.4-2.97-.76-4.41-.12-.5-.25-.91-.36-1.26-.04-.12-.08-.2-.1-.26.17.36.38.53.73.6v-2.6M400.24 292.56c-.11-.28-.22-.45-.35-.55.05.03.13.07.24.13.26.13.63.3 1.12.51l3.43 1.34 4.96 1.79-.3 2.53c-7.06-2.5-10.31-4.03-10.81-4.81l1.71-.94M373.96 320.43c.33-.25 4.35-1.65 12.48-4.02l.54 2.56-11.68 3.45-1.34-1.99M355.42 338.39c.09.02.41.1.95.25 5.17 1.47 7.86 1.84 8.92 1.44l.85 2.41c-1.43.62-4.46.28-10.04-1.3l-.68-.2v-2.6M350.32 348.06c2.04 2 2.38 8.71.89 21.45l-1.88-.6c.86-7.35 1.05-12.72.62-16.3-.14-1-.32-1.72-.52-2.23l-.01-.12.9-2.2M312.05 297.91l4.75 10.04-1.58 1.34-4.75-10.03 1.58-1.35M294.06 347.78c.02-.47.13-.77.4-1.05.31-.27.57-.3.92-.1.12.07.22.16.32.29.03.05.08.12.12.2l.24.42c3.58 6.34 6.81 9.8 10.25 11.17l-.41 2.52c-3.89-1.53-7.48-5.32-11.35-12.16l-.2-.36.02.02c.08.11.17.2.28.27.36.19.61.16.92-.11.26-.27.38-.58.39-1.04l-1.9-.07M332.44 399.64c.19-.01 1.46-.28 3.87-.87 2.63-.66 4.06-1.15 4.52-1.46l1.05 2.25c-.65.47-2.27 1.06-5.13 1.78-2.55.62-3.96.9-4.31.9v-2.6M329.08 436.17c-.53-.01-.77.22-.9.85l.03-.26c.65-5.21 2.59-8.67 6.35-11.36l.92 2.35c-3.21 2.31-4.82 5.16-5.38 9.5-.14 1.09-.42 1.5-1.02 1.52v-2.6M321.91 453.72c.04.09 1.03 1.6 3.09 4.57 2.52 3.54 4.38 5.43 5.9 6.19l-.47 2.48c-1.86-.91-4-3.03-6.78-6.92-2.45-3.57-3.53-5.59-3.64-6.45l1.9.13"/><path d="m317.29 470.85.04-.06.46-.4c5.16-4.42 9.39-6.13 13.72-5.63l-.1 2.59c-3.9-.43-7.74 1.14-12.53 5.25-.51.44-.83.68-.98.75l-.61-2.5M316.56 497.14c.09.96.63 1.83 1.9 2.96 3.12 2.44 7.94 3.47 15.48 3.26l.17 2.6c-7.93.23-13.14-.93-16.6-3.67-1.88-1.7-2.71-3.22-2.85-5.19l1.9.04"/><path d="M316.45 526.66c.12-1.6 1.4-4.71 4.22-9.76 3.8-6.54 7.85-10.77 12.6-13.23l.74 2.46c-4.44 2.3-8.22 6.26-11.81 12.43-2.58 4.58-3.74 7.21-3.85 8.22l-1.9-.12M331.14 548.42c.35-1.35 1.02-2.77 2.13-4.44 2.27-3.16 5.14-5.49 9.13-7.36l.69 2.48c-3.7 1.74-6.33 3.86-8.4 6.72-.92 1.39-1.47 2.52-1.73 3.51l-1.82-.91M341.54 576.51c4.52-4.61 7.51-7.05 9.22-7.78l.6 2.53c-1.48.64-4.28 2.95-8.61 7.37l-1.21-2.12M350.96 599.12c.56.75 1.32 1.19 2.6 1.47 2.89.36 5.9-.94 10.02-4.43l1.11 2.22c-4.49 3.82-7.91 5.25-11.26 4.79-1.79-.4-2.92-1.11-3.85-2.39l1.38-1.66M302.38 599.78l.33-.07c11.02-2.23 17.63.15 21.22 7.35l-1.59 1.31c-3.14-6.18-9.07-8.14-19.27-6.09l-.37.08-.32-2.58M308.16 616.31c10.62-1.23 16.19-.82 17.95.89l-1.19 1.94c-1.34-1.2-6.43-1.42-16.51-.24l-.25-2.59M363.6 626.99c.03-.1.04-.19.01-.28.01 0 .2.06.58.15 2.44.42 7.24-.72 15.06-3.71l.65 2.51c-8.09 3.09-13.16 4.26-15.88 3.77-1.21-.34-1.83-.9-2.18-1.98-.16-.64-.15-1.18.04-1.76l1.72 1.3M386.93 640c-.91 2.22-1.34 5.09-1.29 9.06.02 4.57-.76 7.01-2.61 8.52l-.97-2.36c1.19-1 1.7-2.8 1.68-6.29-.07-4.48.45-7.8 1.55-10.44l1.64 1.51M328.35 643.27c.08-.06.21-.15.41-.27 3.98-2.64 5.56-6.89 5.12-14.04l1.89-.13c.53 8.37-1.38 13.45-6.16 16.56l-.2.12-1.06-2.24M334.4 662.21c.04-.01.33-.13.86-.36 7.74-3.27 11.73-3.58 13.54-1.25l-1.41 1.63c-1.21-1.39-4.53-.84-11.46 2.1-.6.26-.95.41-1.07.44l-.46-2.56M354.28 683.18c1.07-9.09 2.64-13.51 5-14.61l.6 2.53c-1.6.84-2.77 4.6-3.71 12.65l-1.89-.57M371.04 703.02c5.77.37 9.39-.4 11.94-2.45l1.13 2.23c-2.86 2.34-6.87 3.22-13.02 2.83l-.05-2.61M388.57 662.42c.66.8 2.37 1.65 5.69 2.7 5.4 1.55 11.33 1.66 18.36.3l.45 2.59c-7.26 1.4-13.42 1.28-19.06-.35-3.76-1.2-5.8-2.31-6.79-3.56l1.35-1.68M395.16 715.56c1.59 11.34 2.29 18.27 2.2 20.91l-1.9-.42c.08-2.41-.6-9.12-2.16-20.22l1.86-.27M630.09 360.78l6.54.69v2.6l-6.54-.69v-2.6M526.83 269.77c-1.89 6.99-3.91 10.94-6.36 12.71l-.97-2.39c2.04-1.51 3.79-5.03 5.53-11.44l1.8 1.12M455.9 199.12c.47.9.6 2.82.27 6.31-.47 4.06-1.49 7.38-3.14 10.36l-1.54-1.76c1.46-2.66 2.36-5.6 2.8-9.24.26-2.59.31-3.88.26-4.03l1.35-1.64M420.54 213.33v-.09c.2 2.27-.05 4.17-.78 6.08-1.65 3.5-4.26 5.31-8.89 6.15l-.39-2.6c6.19-1.12 8.58-3.89 8.18-9.49-.02-.13-.02-.23-.02-.31l1.9.26"/><path fill="#f7df73" d="M560.73 742.63c.42-.1 98.26-24.32 128.8-189.99-17.95 171.27-125.29 210.52-125.59 210.62l-3.21-20.64v.01"/><path d="M560.52 740.99c4.05-1.04 9.23-3.06 15.63-6.2 12.92-6.44 25.2-15.13 37.05-26.24 37.73-35.75 62.69-88.28 75.17-156.37.11-.53.27-.85.5-1.06.27-.18.54-.19.94-.05.71.34.96.85.9 1.86-7.37 70.98-30.51 128.51-69.7 170.78-12.3 13.15-25.35 23.9-39.32 32.38-7.02 4.22-12.78 7.1-17.34 8.76-.79.22-1.2-.1-1.53-1.19-.02-.07-.03-.15-.04-.22l-3.21-20.64c-.08-.56-.05-.95.1-1.27.17-.3.4-.46.81-.54h.04m1.61 2.97 2.68 17.24c4.25-1.68 9.47-4.36 15.75-8.12 13.82-8.39 26.72-19.01 38.89-32 32.57-35.11 53.91-80.83 64.27-136.28-14.06 53.71-36.98 96.06-69.06 126.49-11.99 11.26-24.43 20.06-37.5 26.59-6.03 2.95-11.01 4.95-15.03 6.08"/><path fill="#f7df73" d="M431.07 719.46v-.01l-3.18 20.1c-.32-.21-107.07-68.76-124.43-240.95 29.68 168.74 127.43 220.76 127.61 220.86"/><path d="m431.29 717.88.03.01c.8.41 1.05.97.92 2.07l-3.18 20.09c-.01.08-.03.15-.05.23-.15.5-.33.77-.59.92-.28.11-.55.06-.95-.18-4.51-2.99-10.23-7.55-17.19-13.75-13.83-12.41-26.79-26.65-38.96-42.8-38.81-51.86-61.75-112.63-69.05-185.71-.06-1.03.19-1.51.91-1.77.41-.09.68-.05.94.16.24.24.39.58.5 1.12 12.36 70.7 37.11 127.35 74.49 172.64 11.72 14.1 23.92 26.15 36.7 36.25 6.34 4.96 11.48 8.51 15.48 10.72m-1.61 2.51c-3.98-2.29-8.93-5.75-14.9-10.42-12.95-10.23-25.3-22.42-37.16-36.68-31.7-38.38-54.4-84.76-68.33-140.9 10.29 57.54 31.42 106.76 63.63 149.82 12.04 16 24.85 30.08 38.53 42.36 6.19 5.52 11.37 9.72 15.56 12.64l2.67-16.82"/><path fill="#8c1800" d="M570.88 754.41c3.03-.08 10.64-9.53 14.96-10.68 4.35-1.23 4.8-6.09-.16-7.49-5.18-.31-9.09 6.03-9.33 6.41-.19.19-4.22 4.06-8.85 4.47-4.42.74-1.68 7.43 3.38 7.29M591.95 736.2c-.19-.15-2.84-1.69 4.83-5.09 7.75-3.42 7.54-7.84 9.98-9.72 2.92-1.97 7.55-5.91 9.17-3.07.56 3.53-5.42 8.18-7.4 9-1.5.72-9.62 9.07-11.75 9.95-2.36.5-3.74-.05-4.83-1.07M421.02 728.58c-2.87-.9-10.64-12.7-14.83-14.98-4.22-2.36-4.84-7.48.16-7.58 5.03 1.05 9.05 8.66 9.25 9.06.15.19 4.29 5.34 8.77 7.03 4.22 1.93 1.83 8.08-3.35 6.47M400.13 704.32c.19-.09 2.81-1-4.78-6.42-7.65-5.44-7.48-9.89-9.89-12.4-2.89-2.71-7.46-7.86-9.08-5.31-.59 3.35 5.42 9.66 7.33 10.92 1.45 1.07 9.57 11.64 11.64 13.05 2.36 1.13 3.7.92 4.78.16M627.84 703.64c-.54.36-9.51 6.59-8.85 9.1 2.07 1.48 10.11-6.02 10.78-6.69.26-.39 3.91-5.59-1.93-2.41"/><path fill="#8c1800" d="M627.52 701.98h.03c1.41-.81 2.35-1.14 3.05-1.12.73.11 1.15.47 1.49 1.27.2.59.23 1.17.09 1.88a8.435 8.435 0 0 1-1.57 3.28c-.73.85-2.39 2.32-5.1 4.43-4.07 2.99-6.05 3.54-7.36 2.07-.84-1.45-.63-2.73.77-4.62.75-.9 1.82-1.96 3.27-3.19 1.63-1.35 3.31-2.62 5.06-3.82l.04-.02.23-.16m.88 3.15a68.553 68.553 0 0 0-4.85 3.67c-1.06.9-1.89 1.68-2.51 2.35.73-.48 1.79-1.24 3.18-2.31 2.54-1.96 4.07-3.3 4.69-4.01l-.5.29-.01.01M364.57 662.57c.5.45 9.4 8.91 8.77 11.24-2 1.01-10.03-8.4-10.68-9.21-.22-.39-3.93-6.57 1.91-2.03"/><path fill="#8c1800" d="M370.19 666.23c1.44 1.58 2.51 2.91 3.24 3.99 1.38 2.22 1.58 3.56.77 4.82-1.31 1.21-3.29.2-7.34-3.77-2.69-2.74-4.34-4.6-5.06-5.62-.77-1.2-1.26-2.37-1.55-3.65-.13-.74-.1-1.31.09-1.85.34-.75.76-1.02 1.5-.98.74.14 1.77.75 3.3 2.02l2.5 2.12-.2.06c.93.93 1.85 1.89 2.75 2.86m-6.7-2.71.03.03c.59.84 2.11 2.55 4.66 5.14 1.4 1.42 2.46 2.45 3.18 3.1-.62-.85-1.47-1.86-2.56-3.06a91.092 91.092 0 0 0-4.82-4.81l-.49-.4M644.29 686.11l-5.94 8.36c-.37.5-.63.85-.79 1.05-.08.1-.16.18-.22.24-.12.12-.25.2-.38.27-.39.15-.71.13-1.11-.09-.69-.46-.99-1.06-1.02-2.1.03-1.04.25-1.56.78-1.85l.48-.64 5.89-8.29c.76-.97 1.34-.96 2.18.05.39.53.57 1 .61 1.51 0 .52-.14.97-.48 1.49m-8.06 5.77c.05.01.1.01.14.01.05.01.09.01.14.02-.1-.02-.18-.03-.28-.03M654.37 669.96l-6.43 10.18c-.67.94-1.21.96-2.01.08-.73-.97-.79-1.74-.21-2.76l6.44-10.16c.67-.95 1.21-.98 2.01-.1.73.97.78 1.74.2 2.76M664.52 648.56l-7.24 15.22c-.52.97-1 1.08-1.8.41-.74-.78-.86-1.47-.42-2.51l7.24-15.19c.53-.98 1.01-1.1 1.81-.42.73.76.85 1.45.41 2.49M673.01 626.58l-5.96 15.82c-.41.95-.83 1.11-1.59.59-.71-.6-.86-1.22-.53-2.22l5.95-15.8c.41-.95.83-1.12 1.6-.61.71.61.86 1.22.53 2.22M676.88 614.95l-1.93 5.58c-.39.97-.81 1.16-1.58.68-.72-.58-.88-1.18-.58-2.2l1.93-5.58c.39-.97.81-1.15 1.58-.68.72.57.89 1.18.58 2.2M680.83 599.23l-1.61 6.71c-.18.62-.42.78-.9.57-.46-.27-.58-.62-.46-1.26l1.61-6.71c.18-.62.42-.77.9-.56.46.27.59.61.46 1.25M350.6 638.74l5.84 9.62.46.74c.52.4.75.98.78 2.02-.04 1.03-.33 1.56-1.02 1.89-.4.14-.73.1-1.13-.15-.14-.09-.27-.21-.39-.35-.06-.08-.14-.17-.22-.3l-.78-1.22-5.88-9.68c-.66-1.21-.62-2.04.15-2.98.85-.83 1.44-.72 2.19.41m5.67 10.12c-.09-.02-.19-.03-.29-.03.05 0 .1.01.15.01.05.01.1.01.14.02M340.5 620.78l6.38 11.53c.58 1.15.51 1.9-.23 2.73-.81.72-1.35.58-2.01-.5l-6.38-11.52c-.57-1.14-.51-1.9.23-2.73.82-.73 1.35-.6 2.01.49M330.46 597.87l7.17 16.68c.43 1.13.31 1.8-.44 2.43-.8.53-1.28.33-1.8-.75l-7.18-16.67c-.43-1.12-.3-1.79.44-2.43.81-.54 1.29-.34 1.81.74M321.96 574.64l5.9 16.98c.32 1.07.17 1.65-.55 2.14-.77.39-1.2.16-1.6-.87l-5.9-16.97c-.32-1.06-.17-1.65.55-2.14.77-.39 1.19-.16 1.6.86M318.14 562.35l1.92 5.94c.3 1.07.13 1.66-.6 2.12-.78.36-1.2.11-1.58-.92l-1.92-5.94c-.29-1.07-.13-1.66.6-2.12.78-.37 1.2-.12 1.58.92M313.44 546.54l1.59 7.04c.13.66 0 .99-.47 1.19-.48.14-.72-.04-.9-.69l-1.59-7.03c-.12-.67.01-1 .47-1.2.48-.15.72.04.9.69"/><path fill="#217900" d="M346.06 299.01c.24.25 7.02 9.1 6 22.16-1.44 12.87-6.7 30.37-5.74 43.94.59 5.48.42 15.07.42 15.09-.06-.12-6.37-13.3-6.68-27.06.1-13.69 6.95-26.05 7.14-36.12-.04-5.32-.36-10.08-.68-13.39-.15-1.54-1.15-3.24-.46-4.62"/><path d="M346.45 297.85c.96.7 2.22 2.77 3.97 6.83 2.28 5.61 3.11 11 2.58 16.76-.34 3.11-1.18 8.19-2.56 15.28-2.55 13.24-3.57 22.61-3.18 28.3.43 3.73.58 8.81.43 15.32-.02.44-.1.72-.27.93-.18.2-.39.26-.72.23-.32-.07-.54-.24-.74-.62-1.11-2.32-2.24-5.17-3.39-8.61-2.24-6.97-3.37-13.28-3.46-19.2.03-5.14 1.33-12.19 4.04-21.38 2.05-6.96 3.03-11.81 3.1-14.76-.02-4.9-.35-10.34-1.01-16.38l-.12-1.14c-.01-.17-.02-.3-.02-.4 0-.18.01-.34.05-.5.14-.46.33-.69.69-.79.24-.04.42 0 .61.13m.95 5.13c.49 5.13.73 9.83.75 14.12-.06 3.29-1.09 8.45-3.23 15.71-2.62 8.87-3.88 15.6-3.91 20.4.09 5.55 1.16 11.5 3.28 18.12a105.2 105.2 0 0 0 1.56 4.38c0-4.3-.16-7.77-.47-10.46 0-.03-.01-.05-.01-.08-.43-6 .61-15.7 3.23-29.28 1.36-7 2.18-11.99 2.52-14.99.46-5.16-.28-9.98-2.33-15.04-.43-1.01-.89-1.96-1.39-2.88m-1.85-2.92a1.462 1.462 0 0 1 .01.01c-.01 0-.01 0-.01-.01"/><path fill="#217900" d="M342.46 302.56c-.12.15-9.24 11.54-10.77 23.64-.84 6.19-1.26 35.17-1.37 48.06l-1.67 25.12c.04 5.66 6.77-9.15 7.44-21.63-.22-13.02-.11-40.21.74-44.29.79-5.22.76-11.03 1.99-16.23 1.78-7.21 3.63-14.54 3.64-14.67"/><path d="M343.12 303.56c-.19 1.18-.56 2.9-1.13 5.16l-2.26 9.01c-.47 1.96-.9 5.03-1.25 9.29-.25 3.06-.49 5.32-.72 6.8-.01.03-.02.07-.03.11-.84 3.82-1.12 18.38-.69 43.87v.09c-.25 5.9-1.59 11.84-4.08 18.16-1.02 2.46-1.9 4.11-2.66 5.09-.69.78-1.18.95-1.78.63-.6-.46-.84-1.18-.82-2.54l1.07-16.26.6-8.83c.24-27.4.72-43.45 1.38-48.23.62-5.25 2.57-10.76 6.03-16.88 1.74-2.99 3.41-5.46 5.02-7.47.5-.53.85-.49 1.33.14.13.24.14.8-.01 1.86m-2.89 3.99c-.63.98-1.28 2.04-1.93 3.17-3.27 5.79-5.1 10.91-5.67 15.74l-.01.07c-.63 4.57-1.11 20.49-1.35 47.82v.08l-.61 8.93-.98 14.78c.47-.84 1-1.98 1.6-3.45 2.35-5.97 3.61-11.53 3.86-17.03-.44-25.63-.14-40.44.77-44.62.21-1.38.44-3.53.68-6.46.36-4.45.82-7.7 1.33-9.84l2.26-9.02.05-.17"/><path fill="#6b18b5" d="M280.76 381.14c4.38 8.46 6.91 15.05 7.79 19.96l.21 1.28c2.18 13.21 4.13 21.45 5.78 25l.54 1.11c12.37 25.28 18.72 42.23 19.36 50.83v.07c.01 5.34-1.5 10.27-4.74 15.52-3.86 5.82-7.83 8.38-12.94 8.45h-.05c-4.96-.5-9.45-2.41-14.17-6.08-6.36-5.28-9.53-11.82-9.97-20.78-.21-7.82.84-14.7 3.22-21.05 1.42-3.79 2.19-7.06 2.42-10.05.54-9.59.82-30.76.82-63.54.04-.9.3-1.25.96-1.28.34.03.56.19.77.56m.18 4.88c-.03 30.51-.32 50.38-.83 59.62-.25 3.35-1.1 6.94-2.63 11.05-2.22 5.93-3.21 12.36-3.01 19.71.41 8 3.25 13.85 9.01 18.65 4.43 3.44 8.62 5.23 13.26 5.71 4.53-.1 8.01-2.37 11.5-7.61 2.93-4.75 4.28-9.1 4.3-13.76-.63-8.16-6.87-24.67-19.03-49.5l-.54-1.11c-1.79-3.82-3.84-12.37-6.07-25.89l-.21-1.28c-.7-3.9-2.57-9.04-5.75-15.59M391.41 224.66l-.08.13c-10.22 15.51-17.26 30.4-21.26 44.78-.01.03-.02.05-.02.07-.97 2.68-1.58 6.05-1.83 10.4-.4 7.03-2.09 13.35-5.19 19.45-3.74 6.82-8.66 9.46-15.96 8.67-5.26-.8-9.72-2.82-14.01-6.41-.01 0-.02-.01-.02-.01-4.08-4.02-6.44-9.41-7.39-17.09-.69-6.85-.07-12.05 1.88-16.29l.02-.03c2.25-3.78 7.86-8.33 17.43-13.78 8.65-4.91 14.73-9.02 18.44-12.49 2.91-5.02 7.47-9.75 14.04-14.44l1.55-1.11c.01 0 .01-.01.02-.01 3.59-2.13 7.32-3.12 11.89-3.12.02-.02.05-.03.08-.03.12-.02.23.03.38.16.17.18.24.37.23.65-.02.25-.08.4-.2.5m-11.9 3.07-1.55 1.1c-6.48 4.63-10.95 9.27-13.78 14.17-.03.05-.06.1-.1.13-3.76 3.54-9.92 7.71-18.68 12.67-9.4 5.35-14.89 9.77-17.05 13.37-1.81 3.96-2.38 8.84-1.73 15.35.91 7.27 3.11 12.33 6.93 16.11 4.16 3.46 8.45 5.41 13.55 6.19 6.94.75 11.57-1.74 15.11-8.16 3-5.91 4.64-12.03 5.03-18.81.26-4.51.89-8.05 1.91-10.87 3.97-14.24 10.87-28.96 20.84-44.25-4 .16-7.29 1.11-10.48 3M553.9 224.34c.06.1.11.2.14.33.08.46-.01.67-.33.79-.01 0-.02 0-.03.01-.06 0-.18-.02-.38-.06-4.31-1.02-8.81-1.49-13.71-1.42-9.53.3-17.95 2.72-25.85 7.46-.03.01-.07.03-.1.04-2.03.58-4.25 1.56-6.79 3.01-4.35 2.47-9.19 3.92-14.99 4.49-6.39.37-11.34-2.46-16.06-9.23-3.27-5.01-5.43-10.42-6.62-16.65l-.01-.03c-.9-6.73.23-12.51 3.55-18.2 3.16-5.01 6.21-7.45 9.95-8.05h.03c3.58.03 9.9 3.2 19.65 10.07 9.18 6.49 16.03 10.47 20.71 12.16 0 .01.01.01.02.01 2.18.61 5.33 1.33 9.46 2.14 5.26 1.04 8.71 2.01 10.55 2.86l.03.01c3.81 2.3 7.3 5.6 10.78 10.26m-1.76-.55c-3.03-3.77-6.04-6.49-9.3-8.46-1.78-.82-5.15-1.75-10.33-2.78-4.17-.82-7.34-1.55-9.55-2.16-.01 0-.01-.01-.02-.01-4.76-1.71-11.69-5.74-20.96-12.29-9.57-6.75-15.72-9.85-19.13-9.91-3.49.58-6.34 2.87-9.34 7.63-3.15 5.38-4.22 10.81-3.38 17.13 1.16 5.98 3.22 11.16 6.36 15.97 4.47 6.4 9.14 9.07 15.2 8.73 5.69-.56 10.44-1.98 14.69-4.39 2.58-1.47 4.84-2.47 6.92-3.08 8-4.78 16.52-7.23 26.17-7.53 4.49-.07 8.66.31 12.67 1.15M715.14 455.11c-.14.39-.31.49-.6.35-2.53-1.15-6.35-6.14-11.85-15.88-7.17-12.76-13.36-21.68-18.65-26.95a.218.218 0 0 1-.04-.05c-1.79-2.1-4.02-3.8-7.04-5.35-4.86-2.5-8.99-6.51-12.86-12.53-4.17-6.9-5.27-14.53-3.44-23.9 1.47-6.75 3.78-12.18 7.07-16.75l.01-.02c3.71-4.32 7.8-5.77 13.52-4.85 5.05 1.08 8.49 3.25 11.23 7.12 0 .01.01.02.01.03 2.2 3.9 4.22 12.68 6.02 26.83 1.68 13.38 3.49 23.02 5.37 29.02 3.39 5.76 6.29 13.66 8.74 24.04l.1.45c.01.01.01.03.01.04l1.16 5.61c1.42 6.74 1.75 10.8 1.24 12.79m-.77-1.14c.21-1.91-.2-5.58-1.41-11.3l-1.16-5.62-.01-.03-.1-.43c-2.42-10.24-5.28-18.02-8.6-23.64a1.22 1.22 0 0 1-.07-.17c-1.93-6.1-3.76-15.88-5.47-29.44-1.77-13.89-3.72-22.46-5.79-26.17-2.57-3.6-5.79-5.63-10.58-6.66-5.42-.86-9.26.49-12.75 4.53v.01c-3.18 4.42-5.4 9.67-6.82 16.19-1.74 8.9-.71 16.11 3.22 22.62 3.75 5.83 7.73 9.69 12.42 12.11 3.14 1.61 5.47 3.39 7.37 5.61 5.36 5.35 11.62 14.36 18.85 27.21 5.03 8.91 8.59 13.74 10.9 15.18M709.59 621.23c-.11.18-.22.26-.4.26a.443.443 0 0 1-.29-.14c-1.79-2.05-3.03-5.02-3.9-9.6-.45-2.72-.92-7.45-1.35-14.24-.98-15.07-2.83-26.25-5.52-33.8-.01-.03-.02-.05-.02-.08-.8-2.86-2.08-6-3.92-9.56-3.04-5.9-5.18-12.56-6.5-20.24-1.3-8.62.26-15.58 4.89-21.96 3.43-4.43 7.19-7.33 11.8-9.17l.02-.01c4.85-1.33 8.99.02 13.65 4.52 3.92 4.08 6.21 8.31 7.23 13.37l.01.04c.63 4.77.54 9.91-.3 15.67-.54 3.43-1.67 8.61-3.43 15.56-2.64 10.47-4.14 18.56-4.57 24.36v.02c-.08 1.86-.37 5.63-.91 11.32-.8 8.39-1.1 13.51-1 15.45.22 4.83-1.51 10.7-5.49 18.23m-.5-1.39c3.63-6.99 5.2-12.37 5.01-16.74-.11-2.04.2-7.27 1-15.75.54-5.68.83-9.43.91-11.24v-.03c.43-5.92 1.95-14.11 4.62-24.69 1.74-6.89 2.86-12.02 3.4-15.4.81-5.57.9-10.53.3-15.11-.98-4.75-3.13-8.71-6.85-12.59-4.42-4.25-8.27-5.53-12.82-4.29h-.01c-4.45 1.79-8.06 4.58-11.37 8.85-4.38 6.05-5.85 12.61-4.63 20.74 1.29 7.49 3.38 13.98 6.34 19.72 1.88 3.65 3.2 6.89 4.03 9.87 2.74 7.71 4.62 19.04 5.61 34.25.43 6.72.88 11.39 1.32 14.04.74 3.9 1.75 6.52 3.14 8.37"/><path fill="#6b18b5" d="M491.93 198.99c-.25-3.13-2.25-5.4-5.38-6.14-3.18-.23-5.13 1.39-5.39 4.47.26 3.13 2.25 5.4 5.39 6.13 3.17.24 5.13-1.38 5.38-4.46M494.23 211.67c-.26-2.99-2.31-5.2-5.54-5.94-3.27-.26-5.28 1.27-5.54 4.23.26 2.99 2.31 5.2 5.54 5.94 3.27.26 5.28-1.28 5.54-4.23M501.12 198.14c-.43.39-5.71 5.04-3.72 8.51 3.15 2.41 9.39-3.7 9.82-4.11l-6.1-4.4M687.27 369.58c-.07-1.92-.64-3.47-1.66-4.57-1.15-.97-2.19-1.04-3.33-.21-1.03.97-1.6 2.43-1.66 4.36.06 1.93.64 3.48 1.66 4.59 1.14.97 2.18 1.04 3.33.21 1.02-.98 1.59-2.45 1.66-4.38M684.85 357.06c-.16-3.27-1.45-5.4-3.47-5.79-2.03.13-3.31 2.07-3.47 5.33.16 3.27 1.45 5.41 3.47 5.81 2.03-.13 3.31-2.09 3.47-5.35M686.52 382.33c-.07-1.69-.58-2.78-1.36-2.97-.79.09-1.3 1.11-1.36 2.81.06 1.69.57 2.79 1.36 2.97.79-.09 1.29-1.11 1.36-2.81M692.11 360.17c-.07-1.94-.58-3.18-1.36-3.37-.79.11-1.3 1.28-1.36 3.22.06 1.94.58 3.18 1.36 3.38.79-.11 1.29-1.29 1.36-3.23M676.84 361.49c-.06-1.58-.57-2.6-1.35-2.78-.8.07-1.3 1.01-1.36 2.58.06 1.58.57 2.6 1.36 2.78.79-.07 1.29-1.01 1.35-2.58M679.27 379.39c-.14-2.54-1.21-4.21-2.87-4.53-1.69.09-2.74 1.59-2.87 4.13.13 2.55 1.2 4.22 2.87 4.54 1.68-.09 2.73-1.6 2.87-4.14M671.71 371.01c-.12-2.19-1.01-3.62-2.42-3.9-1.42.06-2.3 1.35-2.42 3.52.12 2.18 1.02 3.62 2.42 3.91 1.42-.07 2.3-1.36 2.42-3.53M670.51 360.4c-.04-1.15-.4-2.09-1.06-2.76-.72-.6-1.39-.65-2.11-.17-.66.58-1.02 1.45-1.06 2.6.04 1.16.4 2.1 1.06 2.77.72.6 1.39.65 2.11.17.66-.58 1.02-1.45 1.06-2.61M704.94 415.93c-3.43-5.86-7.8-8.15-11.16-5.82-2.96 2.89-2.93 8.98.14 15.09 3.44 5.9 7.8 8.18 11.16 5.81 2.97-2.92 2.93-9.01-.14-15.08M713.8 520c.44-7.18-1.78-12.65-5.5-13.76-3.82-.4-6.87 3.98-7.69 11.09-.44 7.17 1.78 12.69 5.5 13.81 3.82.41 6.87-4.02 7.69-11.14M715.67 580.45c.89-7.07-.98-12.79-4.62-14.31-3.81-.82-7.1 3.15-8.39 10.14-.89 7.06.99 12.81 4.63 14.36 3.81.83 7.1-3.18 8.38-10.19M724.19 524.13c-.14-2.91-1.26-4.74-3.02-5.01-1.76.19-2.87 1.97-3.02 4.87.15 2.91 1.26 4.76 3.02 5.03 1.77-.2 2.88-1.99 3.02-4.89M716.79 535.3l-6.19 9.4c-.45.01-5.21.02-5.51 2.57.65 2.56 7.58 10.68 7.93 13.7.49 2.86 4.76-.31 5.13-.57 1.4-5.74 2.89-11.46 4.16-17.23-.02-.77-.35-11.08-2.49-11.81-2.25.5-2.86 3.48-3.03 3.94M309.48 483.88c-.14-2.37-1.23-3.91-2.95-4.19-1.73.1-2.81 1.51-2.95 3.87.14 2.37 1.23 3.9 2.95 4.18 1.73-.1 2.81-1.5 2.95-3.86M312.26 471.74c-.14-2.49-1.23-4.12-2.94-4.42-1.73.11-2.81 1.6-2.95 4.09.14 2.49 1.23 4.11 2.95 4.41 1.72-.1 2.8-1.59 2.94-4.08M288.06 412.11c-1.33-3.57-3.2-5.15-5.15-4.37-1.7 1.33-2.15 4.33-1.13 8.01 1.33 3.56 3.19 5.14 5.14 4.36 1.7-1.32 2.15-4.31 1.14-8M295.37 448.83c-1.8-4.62-4.42-6.75-7.07-5.72-2.36 1.64-2.98 5.63-1.56 10.37 1.8 4.6 4.42 6.72 7.06 5.71 2.37-1.63 2.99-5.61 1.57-10.36M303.19 475.91c.35-5.74-1.14-10.2-3.71-11.42-2.73-.51-4.79 2.66-5.5 8.36-.34 5.74 1.14 10.19 3.72 11.4 2.72.5 4.79-2.64 5.49-8.34M290.63 479.28c1.49-5.33.94-10.16-1.31-12.25-2.59-1.46-5.16.77-7.01 6-1.48 5.35-.93 10.16 1.32 12.23 2.58 1.45 5.15-.77 7-5.98"/><path fill="#6b18b5" d="M284.92 467.6c-.16-2.76-1.37-4.52-3.28-4.79-1.91.17-3.12 1.86-3.27 4.62.15 2.76 1.36 4.5 3.27 4.77 1.92-.17 3.12-1.85 3.28-4.6M282.3 455.9c-.14-2.5-1.23-4.08-2.95-4.32-1.72.16-2.8 1.69-2.94 4.18.14 2.5 1.22 4.08 2.94 4.32 1.73-.17 2.81-1.69 2.95-4.18M285.07 433.61c-.13-4.2-1.21-6.86-2.86-7.23-1.66.29-2.73 2.88-2.87 7.08.14 4.2 1.22 6.85 2.87 7.23 1.66-.29 2.73-2.88 2.86-7.08M293.89 432.2c.27-4.16-.56-7.01-2.15-7.69-1.69-.03-2.99 2.32-3.53 6.45-.27 4.16.56 7.01 2.15 7.68 1.69.03 2.99-2.31 3.53-6.44M356.72 265.49c1.05-5.72-.05-10.78-2.69-12.72-2.91-1.3-5.5 1.34-6.92 6.98-1.05 5.73.05 10.77 2.69 12.71 2.91 1.29 5.5-1.34 6.92-6.97M344.79 289.06c3.53-4.06 4.83-8.94 3.34-12.26-2.01-2.95-5.51-2.44-9.33 1.34-3.52 4.09-4.83 8.98-3.34 12.29 2.01 2.92 5.51 2.39 9.33-1.37M337.83 274.74c3.5-3.5 4.77-7.6 3.3-10.5-2.01-2.52-5.43-2.12-9.23 1.1-3.5 3.53-4.77 7.65-3.3 10.53 2 2.5 5.43 2.07 9.23-1.13M364.66 253.18c2.37-2.46 3.18-5.19 2.23-7.29-1.39-1.78-3.64-1.54-6.23.65-2.36 2.47-3.18 5.21-2.22 7.3 1.38 1.77 3.63 1.52 6.22-.66"/><path fill="#6b18b5" d="M350.68 275.14c1.55-3.5 1.62-6.53.24-8.09-1.71-1.06-3.71.24-5.54 3.58-1.56 3.5-1.62 6.53-.24 8.09 1.7 1.05 3.71-.25 5.54-3.58M370.86 262.77c2.53-2.92 3.33-6.03 2.18-8.31-1.61-1.89-4.11-1.47-6.9 1.17-2.53 2.93-3.33 6.04-2.18 8.31 1.61 1.88 4.11 1.45 6.9-1.17M334.38 292.94c2.49-.12 3.93-1.3 3.96-3.24-.37-1.92-2.05-3.17-4.54-3.35-2.49.12-3.93 1.31-3.96 3.25.37 1.92 2.05 3.16 4.54 3.34M378.54 245.74c1.56-3.46 1.62-6.5.24-8.08-1.7-1.1-3.7.16-5.54 3.46-1.55 3.46-1.61 6.5-.24 8.08 1.71 1.09 3.71-.17 5.54-3.46"/><path fill="#ffd200" d="M552.39 290.76c.25-.13 11.97-5.95 15.91-20.01 2.95-14.2-10.17-15.99-12.59-11.86-1.54 4.45 1.32 16.25.71 19.24-1.16 3.14-5.51 9.23-4.03 12.63"/><path fill="#ef8a10" d="m552.79 292-.49-1.14-.61.67c-1.11-2.23-.46-5.42 2.32-10.83.86-1.63 1.35-2.68 1.52-3.18.13-.63 0-2.72-.52-6.51-.9-6.75-.88-10.82-.13-12.88.73-1.46 1.84-2.17 3.91-2.49 1.92-.17 3.61.16 5.5 1.09 2.17 1.23 3.57 2.76 4.62 5.09 1.04 2.84 1.14 5.72.29 9.47-1.65 6.15-4.72 11.23-9.6 15.84-2.46 2.21-4.68 3.78-6.81 4.87m.14-2.97c1.73-1 3.53-2.35 5.5-4.13 4.58-4.31 7.44-9.02 8.97-14.69.68-2.99.63-5.21-.13-7.28-.76-1.69-1.81-2.83-3.49-3.77-1.59-.78-3.01-1.06-4.63-.91-1.46.21-2.2.61-2.61 1.39-.52 1.52-.48 5.04.34 11.15.58 4.32.67 6.86.42 7.96-.22.66-.78 1.86-1.71 3.63-1.68 3.2-2.49 5.33-2.66 6.65"/><path fill="#ffd200" d="M442.73 279.38c.11-.19 7.75-13.7 5.95-29.2-2.66-15.28-14.07-7.86-14.58-2.53.35 5.26 6.85 14.06 7.44 17.33.17 3.67-1.19 12.29 1.19 14.4"/><path fill="#ef8a10" d="m443.69 280.47-1.01-.89-.32 1.28c-1.81-1.37-2.49-4.89-2.12-11.95.12-2.06.16-3.35.12-3.9-.12-.61-.94-2.39-2.69-5.49-3.17-5.69-4.64-9.53-4.76-12.04.09-1.91.8-3.45 2.41-5.17 1.57-1.5 3.1-2.34 5.01-2.75 2.33-.34 4.01.15 5.79 1.69 1.92 1.98 3.08 4.64 3.73 8.8.84 6.8.11 13.72-2.27 21.27-1.23 3.71-2.52 6.72-3.89 9.15m-1.07-3.76c.95-1.96 1.87-4.27 2.77-6.98 2.2-6.97 2.88-13.28 2.12-19.42-.49-3.14-1.29-5.08-2.58-6.42-1.19-1.02-2.36-1.34-4.04-1.09-1.53.33-2.77 1.01-4.04 2.21-1.05 1.11-1.5 1.95-1.56 2.82.13 1.7 1.4 4.83 4.2 9.86 2.04 3.65 3.04 5.99 3.23 7.26.06.78.03 2.29-.11 4.58-.2 3.48-.18 5.83.01 7.18"/><path fill="#ffd200" d="M421.01 285.23c.11-.19 7.75-13.76 5.95-29.24-2.65-15.27-14.07-7.75-14.57-2.41.35 5.25 6.84 13.99 7.43 17.26.17 3.67-1.19 12.3 1.19 14.39"/><path fill="#ef8a10" d="M419.82 290.05v-4.1c-1.16-1.87-1.61-5.3-1.3-11.17.13-2.06.16-3.35.12-3.9-.11-.61-.94-2.38-2.68-5.47-3.18-5.66-4.64-9.48-4.76-11.99.08-1.91.79-3.46 2.41-5.2 1.56-1.51 3.1-2.36 5.01-2.79 2.33-.35 4 .12 5.78 1.64 1.93 1.97 3.08 4.62 3.73 8.78.85 6.79.12 13.72-2.26 21.29-1.24 3.71-2.53 6.73-3.89 9.18l-2.16 3.73m1.08-7.49c.95-1.97 1.88-4.28 2.77-6.99 2.2-7 2.88-13.31 2.12-19.44-.48-3.14-1.28-5.07-2.58-6.41-1.19-1.01-2.35-1.31-4.04-1.06-1.53.35-2.77 1.04-4.03 2.25-1.05 1.12-1.51 1.96-1.56 2.83.12 1.71 1.39 4.83 4.19 9.82 2.05 3.64 3.04 5.97 3.24 7.24.05.78.02 2.3-.12 4.58-.2 3.48-.18 5.84.01 7.18"/><path fill="#ffd200" d="M396.92 292.2c.1-.18 7.74-13.84 5.95-29.3-2.66-15.25-14.08-7.57-14.58-2.24.35 5.25 6.84 13.91 7.44 17.17.16 3.67-1.2 12.31 1.19 14.37"/><path fill="#ef8a10" d="m397.88 293.28-1.02-.87-.32 1.29c-1.81-1.34-2.48-4.84-2.12-11.91.13-2.06.16-3.36.13-3.9-.12-.62-.95-2.38-2.69-5.44-3.18-5.62-4.64-9.42-4.76-11.93.08-1.91.79-3.47 2.41-5.23 1.56-1.53 3.1-2.4 5.01-2.86 2.33-.38 4 .08 5.79 1.58 1.92 1.95 3.07 4.58 3.73 8.74.84 6.78.11 13.72-2.27 21.31-1.23 3.73-2.52 6.76-3.89 9.22m-1.08-3.74c.96-1.98 1.88-4.3 2.78-7.03 2.19-7.02 2.87-13.33 2.12-19.46-.49-3.14-1.29-5.05-2.59-6.38-1.19-.99-2.35-1.29-4.03-1.01-1.54.37-2.78 1.07-4.04 2.3-1.05 1.13-1.51 1.98-1.56 2.85.12 1.71 1.39 4.81 4.2 9.77 2.04 3.61 3.03 5.93 3.23 7.2.05.78.02 2.29-.11 4.58-.21 3.48-.19 5.84 0 7.18"/><path fill="#ffd200" d="M379.96 313.31c.11-.19 7.75-13.93 5.95-29.37-2.66-15.23-14.07-7.42-14.58-2.08.35 5.25 6.85 13.83 7.44 17.09.17 3.66-1.19 12.32 1.19 14.36"/><path fill="#ef8a10" d="M378.77 318.16v-4.1c-1.16-1.84-1.61-5.26-1.3-11.14.13-2.07.16-3.36.12-3.9-.12-.62-.94-2.37-2.69-5.41-3.17-5.59-4.64-9.37-4.76-11.88.09-1.91.8-3.48 2.41-5.26 1.56-1.54 3.11-2.43 5.01-2.91 2.34-.4 4.01.04 5.79 1.52 1.93 1.93 3.08 4.55 3.73 8.7.84 6.77.11 13.72-2.27 21.34-1.23 3.74-2.52 6.78-3.89 9.26l-2.15 3.78m1.08-7.52c.95-1.98 1.88-4.32 2.77-7.05 2.2-7.04 2.88-13.37 2.12-19.49-.48-3.13-1.29-5.03-2.58-6.34-1.19-.99-2.36-1.27-4.04-.97-1.53.38-2.77 1.1-4.03 2.34-1.06 1.14-1.51 2-1.57 2.86.13 1.71 1.4 4.79 4.2 9.73 2.04 3.59 3.04 5.89 3.23 7.17.06.77.03 2.29-.11 4.58-.2 3.48-.18 5.84.01 7.17"/><path fill="#ffd200" d="M362.11 333.7c.11-.19 7.75-14.02 5.95-29.44-2.66-15.21-14.07-7.24-14.58-1.9.35 5.25 6.85 13.74 7.44 17 .17 3.66-1.2 12.33 1.19 14.34"/><path fill="#ef8a10" d="M360.92 338.56v-4.1c-1.16-1.82-1.61-5.23-1.3-11.12.13-2.06.16-3.36.12-3.9-.12-.61-.94-2.35-2.69-5.37-3.17-5.55-4.64-9.31-4.76-11.82.09-1.91.8-3.5 2.41-5.29 1.56-1.56 3.11-2.48 5.01-2.97 2.34-.44 4.01-.02 5.79 1.44 1.93 1.91 3.08 4.51 3.73 8.66.85 6.76.12 13.71-2.27 21.36-1.23 3.75-2.52 6.82-3.89 9.31l-2.15 3.8m1.08-7.52c.95-2 1.88-4.35 2.77-7.09 2.2-7.07 2.88-13.4 2.12-19.51-.48-3.13-1.28-5.02-2.58-6.32-1.19-.97-2.35-1.24-4.04-.92-1.53.4-2.77 1.14-4.03 2.4-1.06 1.15-1.51 2.01-1.56 2.88.12 1.71 1.38 4.77 4.19 9.67 2.04 3.57 3.04 5.86 3.23 7.13.06.77.03 2.29-.11 4.58-.2 3.49-.18 5.84.01 7.18"/><path fill="#ffd200" d="M403.14 208.31c-.17.17-10.35 10.06-11.65 25.31-.37 15.17 12.4 12.38 13.96 7.51.69-4.99-4.02-15.67-3.96-18.89.56-3.5 3.62-11.08 1.65-13.93"/><path fill="#ef8a10" d="m402.95 206.84.62.35.11.12c1.41 1.83 1.36 5.23-.35 11.56-.53 1.91-.82 3.13-.9 3.68-.01.67.47 2.7 1.61 6.29 2 6.4 2.69 10.46 2.33 12.76-.44 1.69-1.39 2.8-3.28 3.8-1.8.83-3.45 1.07-5.4.79-2.29-.49-3.84-1.52-5.24-3.5-1.47-2.45-2.07-5.28-1.9-9.3.5-6.63 2.56-12.79 6.38-19.01 1.95-3.03 3.8-5.37 5.63-7.16l.39-.38m-.03 3.38c-1.45 1.57-2.94 3.54-4.5 5.97-3.58 5.83-5.51 11.54-5.98 17.66-.14 3.2.3 5.39 1.37 7.19 1.02 1.43 2.18 2.18 3.95 2.56 1.64.23 3.02.03 4.55-.66 1.33-.71 1.98-1.37 2.23-2.27.23-1.71-.42-5.18-2.24-10.97-1.28-4.09-1.8-6.59-1.75-7.78.1-.72.42-2.11 1-4.19 1.03-3.74 1.44-6.16 1.37-7.51"/><path fill="#ffd200" d="M438.84 198.19c-.17.17-10.35 9.89-11.65 25.12-.37 15.16 12.4 12.59 13.96 7.74.68-4.98-4.02-15.74-3.96-18.96.56-3.48 3.62-11.02 1.65-13.9"/><path fill="#ef8a10" d="m438.65 196.71.62.36.11.12c1.41 1.86 1.36 5.26-.35 11.56-.53 1.9-.82 3.12-.9 3.67-.01.67.47 2.71 1.61 6.31 2 6.43 2.69 10.51 2.33 12.8-.44 1.68-1.39 2.77-3.28 3.75-1.8.8-3.45 1.01-5.4.7-2.29-.53-3.84-1.58-5.24-3.59-1.47-2.47-2.07-5.31-1.9-9.33.5-6.63 2.56-12.75 6.38-18.9 1.95-3 3.8-5.31 5.63-7.07l.39-.38m-.03 3.39c-1.45 1.55-2.94 3.49-4.5 5.89-3.58 5.78-5.51 11.45-5.98 17.56-.14 3.2.3 5.4 1.37 7.22 1.02 1.44 2.18 2.22 3.95 2.62 1.64.26 3.02.08 4.55-.59 1.33-.68 1.98-1.33 2.23-2.23.22-1.7-.42-5.19-2.24-11-1.28-4.12-1.8-6.62-1.75-7.81.1-.72.42-2.11 1-4.17 1.03-3.73 1.44-6.14 1.37-7.49"/><path fill="#ffd200" d="M305.82 315.62c.03.28 2.42 18.06 11.59 27.51 9.77 8.59 12.8-8.94 10.39-13.23-3.14-3.56-11.48-3.24-13.7-5.03-2.1-2.63-5.53-10.16-8.28-9.25"/><path fill="#ef8a10" d="m304.96 316.45-1.25-.92 1.67-1.09c1.82-.82 3.85.94 7.29 6.41 1.01 1.65 1.68 2.65 2 3.02.47.4 1.89.83 4.68 1.31 4.98.91 7.67 2.11 9.12 3.84.88 1.38 1.24 3.21 1.14 6.04-.19 2.61-.72 4.87-1.65 7.05-1.24 2.59-2.53 3.93-4.35 4.61-2.24.53-4.15-.18-6.73-2.54-4.04-4.06-7.17-9.78-9.64-17.74-1.09-3.67-1.84-6.98-2.28-9.99m1.99.43c.44 2.62 1.11 5.48 2.04 8.65 2.33 7.48 5.23 12.8 8.94 16.55 2.06 1.9 3.53 2.48 5.17 2.09 1.31-.49 2.27-1.51 3.22-3.51.78-1.83 1.23-3.74 1.39-5.94.08-1.99-.11-3.19-.57-3.94-1.08-1.26-3.43-2.21-7.93-3.02-3.18-.56-4.9-1.16-5.69-1.89-.42-.49-1.19-1.61-2.29-3.41-2.01-3.24-3.39-4.97-4.28-5.58"/><path fill="#ffd200" d="M287.99 377.18c0 .25.31 18.25 8.34 29.3 8.73 10.33 13.79-6.27 11.88-10.96-2.68-4.12-11.08-5.43-13.06-7.63-1.77-2.95-4.35-11.12-7.16-10.71"/><path fill="#ef8a10" d="m287.03 376.64.43-.61.23-.1c1.9-.45 3.72 1.68 6.5 7.73.82 1.83 1.37 2.93 1.65 3.36.41.48 1.79 1.19 4.5 2.2 4.83 1.86 7.42 3.6 8.64 5.57.71 1.53.86 3.4.43 6.15-.48 2.53-1.27 4.64-2.46 6.6-1.54 2.29-2.96 3.35-4.86 3.67-2.27.08-4.12-.98-6.4-3.8-3.55-4.77-6.01-11.01-7.54-19.32-.7-4.1-1.06-7.72-1.11-10.93l-.01-.52m1.94 1.99c.13 2.66.46 5.61 1.03 8.91 1.44 7.79 3.71 13.61 6.98 18.01 1.82 2.26 3.23 3.12 4.9 3.06 1.37-.23 2.43-1.04 3.61-2.82 1-1.65 1.66-3.42 2.07-5.55.31-1.94.26-3.16-.11-3.99-.93-1.43-3.17-2.84-7.55-4.51-3.09-1.17-4.74-2.11-5.44-2.98-.36-.56-1-1.82-1.89-3.8-1.61-3.58-2.79-5.56-3.6-6.33"/><path fill="#ffd200" d="M329.12 449.07c-.08-.28-4.95-17.35-15.23-24.23-10.73-5.81-11.12 12.51-8.18 16.02 3.53 2.59 11.61-.02 14.03 1.16 2.42 2.06 6.81 8.65 9.38 7.05"/><path fill="#ef8a10" d="m330.21 449.41-.43.65-.07.07c-1.68 1.25-3.85.04-8.01-4.5-1.22-1.38-2.02-2.18-2.38-2.46-.51-.27-1.95-.32-4.73-.04-4.99.48-7.74.09-9.4-1.21-1.05-1.11-1.67-2.79-1.98-5.63-.19-2.62 0-5.02.58-7.45.83-2.9 1.91-4.63 3.56-5.81 2.1-1.17 4.05-1 6.9.63 4.52 2.94 8.36 7.75 11.93 15.04 1.7 3.62 2.96 6.91 3.83 9.97l.2.74m-2.38-1.3c-.8-2.49-1.86-5.17-3.23-8.06-3.35-6.84-6.91-11.31-11.07-14.03-2.27-1.31-3.77-1.47-5.32-.62-1.19.85-1.99 2.16-2.62 4.39-.5 2.04-.65 4.07-.49 6.27.21 2.01.57 3.13 1.12 3.74 1.24.93 3.63 1.18 8.13.74 3.18-.32 4.92-.17 5.8.34.48.38 1.39 1.28 2.72 2.78 2.43 2.7 4 4.06 4.96 4.45"/><path fill="#ffd200" d="M320.58 418.36c.11-.19 7.94-14.07 6.37-29.45-2.45-15.19-13.98-7.1-14.56-1.77.27 5.25 6.65 13.65 7.2 16.91.12 3.66-1.38 12.32.99 14.31"/><path fill="#ef8a10" d="m321.34 419.2-.61-.67-.47 1.04c-1.68-1.23-2.25-4.56-1.79-11.48.15-2.09.2-3.4.17-3.97-.11-.68-.93-2.46-2.66-5.52-3.07-5.44-4.46-9.11-4.54-11.54.1-1.8.81-3.32 2.39-5.07 1.56-1.54 3.09-2.45 4.96-2.96 2.28-.44 3.9-.05 5.6 1.35 1.84 1.83 2.92 4.34 3.5 8.38.74 6.69-.08 13.57-2.55 21.17-1.28 3.74-2.61 6.79-4 9.27m-.9-2.8c1.08-2.12 2.13-4.65 3.16-7.65 2.32-7.14 3.09-13.54 2.42-19.69-.46-3.23-1.27-5.18-2.61-6.52-1.24-1.01-2.45-1.28-4.21-.94-1.57.42-2.86 1.19-4.17 2.49-1.13 1.22-1.62 2.17-1.69 3.14.1 1.79 1.34 4.89 4.12 9.83 1.96 3.49 2.91 5.71 3.08 6.91.04.75-.01 2.25-.18 4.52-.29 4.08-.23 6.63.08 7.91"/><path fill="#ffd200" d="M577.68 309.41c.24-.12 11.97-6.06 15.91-20.16 2.95-14.23-10.18-15.88-12.59-11.74-1.54 4.47 1.32 16.24.7 19.24-1.15 3.15-5.5 9.28-4.02 12.66"/><path fill="#ef8a10" d="m578.08 310.65-.49-1.14-.62.68c-1.1-2.22-.46-5.41 2.33-10.85.86-1.64 1.35-2.7 1.52-3.2.12-.62 0-2.71-.52-6.49-.9-6.75-.88-10.82-.13-12.88.73-1.47 1.84-2.19 3.9-2.53 1.93-.19 3.62.12 5.51 1.03 2.17 1.21 3.56 2.72 4.61 5.04 1.05 2.83 1.15 5.71.3 9.46-1.65 6.17-4.72 11.29-9.6 15.94-2.46 2.24-4.68 3.84-6.81 4.94m.14-2.97c1.72-1.02 3.53-2.38 5.5-4.18 4.57-4.36 7.44-9.1 8.96-14.78.69-3 .64-5.22-.12-7.29-.76-1.67-1.81-2.8-3.49-3.72-1.59-.77-3.01-1.03-4.63-.87-1.46.23-2.2.64-2.61 1.42-.53 1.53-.48 5.05.34 11.14.58 4.32.67 6.86.42 7.96-.23.66-.78 1.87-1.71 3.65-1.68 3.21-2.49 5.35-2.66 6.67"/><path fill="#ffd200" d="M615.1 339.75c.09-.19 7-14.7 4.46-30.02-3.38-15.03-14.32-6.19-14.56-.83.62 5.26 7.45 13.32 8.22 16.54.34 3.67-.59 12.47 1.88 14.31"/><path fill="#ef8a10" d="m616.08 340.17.12 1.45-1.34-.64c-1.74-1.12-2.52-4.43-2.5-11.41.02-2.1-.02-3.43-.08-3.99-.16-.67-1.08-2.41-2.99-5.37-3.39-5.29-5-8.91-5.24-11.34-.01-1.82.6-3.38 2.06-5.22 1.44-1.64 2.91-2.64 4.73-3.26 2.24-.59 3.86-.31 5.64.97 1.94 1.7 3.17 4.14 4 8.15 1.16 6.64.78 13.63-1.19 21.44-.99 3.66-2.05 6.7-3.21 9.22m-1.25-2.38c.95-2.2 1.83-4.82 2.66-7.9 1.85-7.33 2.21-13.82 1.15-19.94-.66-3.2-1.58-5.1-3-6.36-1.29-.92-2.51-1.11-4.23-.65-1.53.52-2.76 1.37-3.98 2.75-1.04 1.29-1.47 2.26-1.48 3.24.21 1.79 1.64 4.85 4.7 9.63 2.18 3.39 3.25 5.55 3.5 6.75.09.75.13 2.25.11 4.54-.03 4.12.19 6.68.57 7.94"/><path fill="#ffd200" d="M717.21 492.49c-.09-.3-4.97-17.02-15.26-23.7-10.72-5.62-11.13 12.55-8.16 16.1 3.56 2.6 11.61-.17 14.03.94 2.43 1.99 6.81 8.4 9.39 6.66"/><path fill="#ef8a10" d="M718.16 492.28v.86l-.36.38c-1.68 1.34-3.85.24-8.01-4.15-1.23-1.33-2.02-2.11-2.38-2.39-.52-.25-1.95-.25-4.73.09-5 .57-7.74.18-9.41-1.12-1.05-1.11-1.67-2.8-1.98-5.63-.2-2.62-.01-5.02.58-7.45.82-2.9 1.89-4.62 3.54-5.81 2.1-1.18 4.05-1.04 6.9.54 4.53 2.85 8.37 7.53 11.95 14.67 1.7 3.53 2.96 6.76 3.84 9.78l.06.23m-2.24-.69c-.8-2.45-1.87-5.07-3.24-7.91-3.36-6.71-6.92-11.06-11.08-13.7-2.28-1.27-3.78-1.42-5.32-.56-1.19.86-1.99 2.17-2.62 4.4-.49 2.05-.65 4.07-.48 6.28.21 2 .57 3.12 1.12 3.73 1.25.93 3.63 1.18 8.13.65 3.18-.38 4.92-.29 5.8.19.49.36 1.39 1.24 2.73 2.69 2.43 2.61 4 3.89 4.96 4.23"/><path fill="#ffd200" d="M667.28 500.58c.01-.28.48-18.2 8.61-28.2 8.83-9.18 13.72 8.09 11.78 12.52-2.74 3.77-11.13 3.95-13.13 5.9-1.8 2.73-4.42 10.56-7.26 9.78"/><path fill="#ef8a10" d="M666.33 500.47c.08-3.21.47-6.77 1.21-10.78 1.61-8.12 4.12-14.02 7.71-18.32 2.32-2.52 4.15-3.35 6.44-2.95 1.88.56 3.32 1.81 4.83 4.3 1.16 2.12 1.93 4.34 2.4 6.92.4 2.81.23 4.65-.5 6.09-1.24 1.82-3.82 3.2-8.68 4.42-2.73.66-4.1 1.18-4.52 1.61-.28.39-.84 1.43-1.68 3.15-2.17 4.38-3.79 6.41-5.33 7.01v.03l-.08-.01c-.42.08-.77.04-1.16-.16l.15-1.22-.79-.09m1.95-1.22c.82-.67 2-2.48 3.66-5.86.9-1.86 1.55-3.03 1.92-3.55.71-.78 2.35-1.49 5.47-2.26 4.4-1.09 6.63-2.19 7.58-3.52.38-.78.44-1.98.15-3.96-.39-2.18-1.04-4.05-2.02-5.83-1.16-1.92-2.23-2.88-3.59-3.29-1.68-.28-3.08.39-4.92 2.41-3.31 3.98-5.63 9.47-7.15 17.09-.59 3.22-.95 6.12-1.1 8.77"/><path fill="#ffd200" d="M659.24 302.59c-.33-.2-12.37-7.32-22.8-2.07-9.75 6.32-.42 20.06 3.56 19.67 3.53-1.47 7.47-11.74 9.51-13.15 2.68-.96 8.96-.73 9.73-4.45"/><path fill="#ef8a10" d="m659.58 301.4-.24.84.76-.14 1.03 3.03-1.37-.84c-1.1 1.64-3.14 2.65-7.04 3.35-1.52.25-2.45.47-2.84.63-.44.3-1.41 1.74-3 4.72-2.87 5.31-4.92 7.83-6.63 8.48-1.32.25-2.56-.34-4.34-2.11-1.55-1.7-2.74-3.6-3.7-5.97-1.04-2.86-1.31-5.24-.91-7.7.69-2.9 2.07-4.76 4.72-6.38 4.54-2.4 9.45-2.76 15.72-1.14 3.05.87 5.6 1.93 7.84 3.23m-1.67 1.81c-1.87-.97-3.98-1.79-6.42-2.49-5.9-1.52-10.44-1.2-14.64 1.01-2.11 1.29-3.19 2.7-3.71 4.82-.28 1.78-.06 3.56.74 5.77.81 1.98 1.81 3.58 3.12 5.01 1.24 1.26 2.03 1.7 2.75 1.58 1.25-.53 2.96-2.74 5.56-7.54 1.83-3.39 3.05-5.08 3.84-5.57.52-.22 1.57-.47 3.23-.75 3-.51 4.69-1.11 5.53-1.84"/><path fill="#ffd200" d="M630.09 266.41c-.33-.2-12.36-7.59-22.8-2.55-9.75 6.14-.41 20.06 3.56 19.75 3.54-1.41 7.47-11.59 9.52-12.96 2.68-.9 8.95-.52 9.72-4.24"/><path fill="#ef8a10" d="m629.21 264.52.13-3.28L632 269l-1.39-.87c-1.1 1.61-3.13 2.57-7.03 3.19-1.53.22-2.46.41-2.85.57-.44.29-1.4 1.71-3 4.66-2.87 5.24-4.91 7.73-6.62 8.34-1.32.22-2.56-.39-4.34-2.2-1.55-1.72-2.74-3.65-3.7-6.03-1.04-2.88-1.31-5.27-.92-7.72.7-2.89 2.07-4.73 4.72-6.3 4.55-2.31 9.45-2.57 15.72-.82 2.5.77 4.68 1.66 6.62 2.7m-.44 2.49c-1.87-1.02-3.98-1.89-6.43-2.64-5.89-1.64-10.44-1.41-14.63.71-2.12 1.25-3.2 2.64-3.71 4.75-.29 1.77-.07 3.56.73 5.78.81 2 1.81 3.63 3.12 5.08 1.25 1.28 2.04 1.73 2.75 1.63 1.26-.51 2.96-2.67 5.56-7.43 1.83-3.36 3.05-5.01 3.84-5.49.52-.21 1.57-.44 3.23-.67 3.01-.45 4.69-1.01 5.54-1.72"/><path fill="#ffd200" d="M586.61 229.31c-.18.17-10.46 9.78-11.89 24.95-.51 15.15 12.29 12.73 13.91 7.88.72-4.97-3.89-15.74-3.8-18.96.59-3.48 3.72-10.99 1.78-13.87"/><path fill="#ef8a10" d="m586.03 228.2.5.96.42-1.02 1.59 1.04-.62.58c.48 2.13.15 5.29-1.21 10.1-.56 1.89-.86 3.1-.94 3.65-.02.67.44 2.71 1.55 6.32 1.95 6.43 2.6 10.5 2.22 12.79-.46 1.68-1.41 2.77-3.31 3.73-1.82.79-3.47.98-5.42.65-2.28-.55-3.83-1.63-5.22-3.65-1.45-2.5-2.02-5.35-1.82-9.35.57-6.62 2.68-12.69 6.57-18.79 1.98-2.97 3.85-5.26 5.69-7.01m.34 3.01c-1.47 1.54-2.98 3.46-4.56 5.85-3.64 5.73-5.62 11.36-6.14 17.46-.17 3.19.25 5.39 1.3 7.22 1.01 1.46 2.17 2.25 3.93 2.68 1.64.28 3.03.11 4.56-.55 1.35-.67 1.99-1.32 2.25-2.22.25-1.7-.36-5.18-2.13-11-1.25-4.12-1.75-6.62-1.69-7.81.1-.72.44-2.1 1.04-4.16 1.07-3.71 1.5-6.12 1.44-7.47"/><path fill="#ffd200" d="M558.32 216.03c-.06.2-4.67 16.42-.07 31.14 5.4 14.32 14.68 2.68 14.16-2.71-1.37-5.13-9.04-11.47-10.26-14.55-.85-3.6-1.18-12.62-3.83-13.88"/><path fill="#ef8a10" d="m557 217.04-.99-.23 1.67-1.83.66.71.04-.94c1.84.7 3.05 3.81 4.02 10.82.28 2.11.49 3.43.64 3.98.25.65 1.38 2.15 3.64 4.65 4.01 4.48 6.06 7.66 6.65 10.06.26 1.8-.11 3.54-1.25 5.73-1.16 2-2.44 3.38-4.11 4.44-2.08 1.14-3.67 1.25-5.57.39-2.12-1.24-3.64-3.37-5.01-7.21-2.05-6.38-2.67-13.47-1.87-21.76.37-3.36.87-6.27 1.48-8.81m1.85.89c-.6 2.44-1.08 5.27-1.44 8.55-.75 7.78-.19 14.38 1.69 20.25 1.1 3.06 2.24 4.73 3.79 5.66 1.38.61 2.57.51 4.17-.37 1.4-.9 2.48-2.06 3.46-3.74.81-1.54 1.09-2.64.97-3.61-.48-1.76-2.26-4.44-5.9-8.49-2.57-2.86-3.91-4.76-4.32-5.91-.19-.72-.45-2.22-.74-4.52-.55-4.14-1.13-6.65-1.68-7.82"/><path fill="#ffd200" d="M478.02 270.66c.12-.18 8.5-12.69 7.53-28.24-1.86-15.37-13.73-9.32-14.52-4.08.07 5.22 6.14 14.67 6.55 17.95-.02 3.64-1.85 12.03.44 14.37"/><path fill="#ef8a10" d="m478.87 271.43-.25 1.07-.97-.69c-1.62-1.48-2.07-4.9-1.35-11.68.24-2.05.34-3.35.33-3.91-.09-.69-.84-2.6-2.45-5.91-2.86-5.9-4.11-9.79-4.1-12.2.18-1.79.94-3.16 2.6-4.64 1.62-1.28 3.17-1.93 5.08-2.13 2.29-.08 3.9.57 5.55 2.22 1.77 2.09 2.76 4.78 3.18 8.86.49 6.75-.61 13.46-3.38 20.62-1.39 3.41-2.79 6.17-4.24 8.39m2.54-9.84c2.6-6.71 3.63-12.94 3.19-19.17-.33-3.25-1.07-5.33-2.36-6.87-1.19-1.19-2.41-1.66-4.17-1.6-1.6.17-2.91.72-4.28 1.8-1.17 1.03-1.7 1.87-1.81 2.83.03 1.78 1.15 5.09 3.74 10.44 1.83 3.77 2.69 6.14 2.82 7.35.01.76-.1 2.23-.36 4.46-.45 4-.49 6.54-.23 7.87 1.17-1.94 2.32-4.29 3.46-7.11"/><path fill="#de2010" d="M698.39 500.97c-.61-5.61-2.42-10.13-5.03-12.8-2.9-2.38-5.26-2.12-7.67.87-2.07 3.18-3.03 8.06-2.62 13.68.62 5.62 2.43 10.18 5.04 12.86 2.9 2.4 5.26 2.12 7.66-.89 2.08-3.2 3.04-8.11 2.62-13.72"/><path d="m699.74 502.88-.05-.01c.14 5.54-.84 9.58-3.06 12.95-2.98 3.89-5.54 4.19-9.16 1.06-3.12-3.13-4.88-7.52-5.56-14.03-.51-6.53.43-11.2 2.92-14.95 2.99-3.85 5.55-4.14 9.17-1.04 3.12 3.12 4.88 7.46 5.56 13.97l.18 2.05m-2.52-1.93c-.61-5.43-2.02-8.95-4.5-11.47-2.47-2.08-4.12-1.89-6.17.7-1.99 3.04-2.73 6.89-2.31 12.42.59 5.53 2 9.11 4.51 11.67 2.47 2.09 4.12 1.9 6.16-.71 2-3.06 2.74-6.92 2.32-12.44v-.01l-.01-.16"/><path fill="#de2010" d="M696.75 473.41c-.61-5.61-2.43-10.14-5.03-12.81-2.9-2.39-5.26-2.13-7.67.85-2.07 3.18-3.03 8.06-2.62 13.68.61 5.62 2.43 10.18 5.04 12.86 2.89 2.41 5.25 2.14 7.66-.87 2.07-3.2 3.03-8.1 2.62-13.71"/><path d="M698.08 475.07h-.04c.17 5.65-.8 9.77-3.05 13.18-2.98 3.88-5.54 4.18-9.16 1.05-3.12-3.14-4.88-7.53-5.56-14.04-.51-6.54.43-11.21 2.92-14.95 2.98-3.85 5.55-4.13 9.16-1.02 3.12 3.12 4.88 7.47 5.56 13.97v.01l.17 1.8m-2.51-1.68c-.6-5.44-2.01-8.96-4.49-11.48-2.47-2.09-4.13-1.91-6.17.69-2 3.04-2.74 6.88-2.32 12.41.59 5.53 2.01 9.12 4.51 11.68 2.47 2.09 4.13 1.9 6.17-.7 2-3.06 2.74-6.92 2.32-12.44v-.01l-.02-.15"/><path fill="#de2010" d="M692.67 443.84c-.98-5.54-3.06-9.85-5.83-12.22-3.03-2.06-5.35-1.53-7.55 1.74-1.85 3.41-2.49 8.42-1.72 13.99.98 5.56 3.06 9.89 5.83 12.28 3.03 2.06 5.35 1.51 7.55-1.78 1.85-3.44 2.49-8.45 1.72-14.01"/><path d="M693.81 443.57c.92 6.45.3 11.26-1.93 15.32-2.72 4.22-5.24 4.82-9.03 2.12-3.3-2.79-5.32-6.95-6.42-13.4-.92-6.48-.29-11.27 1.94-15.3 2.71-4.19 5.23-4.77 9.02-2.08 3.08 2.59 5.02 6.31 6.2 12.06h.02l.2 1.27v.01m-2.29.54c-.94-5.45-2.57-8.85-5.22-11.11-2.59-1.8-4.22-1.43-6.08 1.4-1.78 3.27-2.27 7.21-1.5 12.69.94 5.47 2.57 8.88 5.23 11.16 2.58 1.8 4.21 1.42 6.07-1.43 1.77-3.27 2.26-7.15 1.52-12.56l-.02-.14v-.01"/><path fill="#de2010" d="M685.22 412.74c-1.99-5.13-4.74-8.58-7.85-9.99-3.27-.98-5.4.33-6.89 4.28-1.13 3.98-.8 9.13.97 14.31 1.99 5.16 4.74 8.63 7.85 10.03 3.27.98 5.41-.37 6.89-4.33 1.13-4.01.8-9.15-.97-14.3"/><path d="M686.26 412.07v.01c2.08 5.98 2.39 10.91 1.01 15.65-1.8 5.06-4.11 6.53-8.23 5.19-3.7-1.62-6.35-4.94-8.63-10.93-2.08-6.02-2.38-10.95-1.01-15.67 1.81-5.03 4.12-6.46 8.24-5.11 3.69 1.62 6.34 4.91 8.62 10.86m-2.09 1.33c-1.94-5.06-4.09-7.77-7.07-9.11-2.8-.88-4.29.04-5.54 3.45-1.09 3.81-.82 7.86.94 12.96 1.94 5.07 4.09 7.8 7.07 9.13 2.8.88 4.29-.06 5.54-3.48 1.09-3.84.82-7.88-.94-12.95"/><path fill="#de2010" d="M677.26 387.6c-1.99-5.14-4.74-8.61-7.85-10.04-3.27-1.01-5.4.29-6.89 4.22-1.13 3.98-.8 9.13.97 14.33 1.99 5.17 4.74 8.65 7.85 10.09 3.27 1 5.41-.33 6.89-4.29 1.13-3.99.8-9.13-.97-14.31"/><path d="M678.3 386.95c2.08 6 2.38 10.93 1.01 15.66-1.8 5.05-4.11 6.5-8.23 5.13-3.7-1.65-6.35-4.99-8.63-10.99-2.08-6.04-2.38-10.98-1.01-15.68 1.8-5.02 4.11-6.43 8.24-5.05 3.69 1.64 6.34 4.96 8.62 10.93m-2.09 1.3c-1.94-5.06-4.09-7.79-7.07-9.15-2.8-.91-4.29 0-5.54 3.4-1.09 3.81-.82 7.86.94 12.97 1.94 5.08 4.09 7.83 7.07 9.19 2.8.89 4.29-.04 5.54-3.45 1.09-3.82.82-7.87-.94-12.95v-.01"/><path fill="#de2010" d="M665.94 362.01c-2.29-4.95-5.23-8.12-8.41-9.23-3.3-.67-5.34.86-6.56 4.96-.87 4.11-.23 9.24 1.85 14.25 2.3 4.98 5.23 8.17 8.41 9.27 3.3.65 5.34-.91 6.56-5.02.88-4.13.23-9.24-1.85-14.23"/><path d="M668.91 376.82c-1.48 5.25-3.68 6.94-7.85 6.01-3.78-1.25-6.6-4.3-9.24-10.09-2.43-5.82-3.04-10.74-1.97-15.6 1.48-5.22 3.68-6.88 7.85-5.93 3.78 1.26 6.6 4.29 9.24 10.04 2.43 5.78 3.04 10.69 1.97 15.57m-3.96-14.05c-2.25-4.87-4.54-7.37-7.58-8.42-2.84-.61-4.26.46-5.29 3.99-.84 3.94-.32 7.97 1.73 12.9 2.25 4.9 4.54 7.41 7.58 8.45 2.84.6 4.26-.5 5.29-4.04.85-3.95.32-7.97-1.73-12.88"/><path fill="#de2010" d="M653.36 337.09c-2.63-4.69-5.74-7.5-8.98-8.23-3.3-.26-5.22 1.53-6.14 5.78-.57 4.23.44 9.29 2.84 14.06 2.63 4.71 5.74 7.53 8.97 8.25 3.31.24 5.22-1.57 6.15-5.84.57-4.24-.44-9.28-2.84-14.02"/><path d="M657.34 351.56c-1.09 5.43-3.16 7.4-7.34 6.98-3.83-.79-6.83-3.48-9.85-8.96-2.82-5.53-3.77-10.39-3.05-15.41 1.09-5.41 3.15-7.34 7.34-6.9 3.83.8 6.83 3.48 9.85 8.93 2.82 5.5 3.77 10.33 3.05 15.36m-4.92-13.59c-2.58-4.62-4.99-6.81-8.09-7.52-2.84-.26-4.18.99-4.94 4.66-.55 4.06.25 8.02 2.62 12.71 2.59 4.65 4.99 6.84 8.1 7.54 2.84.25 4.18-1.03 4.94-4.7.55-4.07-.25-8.01-2.63-12.69"/><path fill="#de2010" d="M638.34 313.39c-3.1-4.21-6.39-6.41-9.66-6.55-3.24.33-4.97 2.54-5.4 6.95-.1 4.36 1.42 9.21 4.27 13.54 3.1 4.24 6.39 6.43 9.66 6.55 3.24-.35 4.97-2.58 5.4-6.99.1-4.37-1.41-9.19-4.27-13.5"/><path d="m641.21 315.29-.24-.03c2.06 4 2.95 7.74 2.81 11.86-.47 5.61-2.33 8.02-6.45 8.37-3.87-.08-7.04-2.18-10.6-7.11-3.34-5-4.78-9.68-4.62-14.85.48-5.6 2.33-7.97 6.46-8.29 3.86.1 7.03 2.19 10.59 7.09l2.05 2.96m-3.77-.95c-3-4.08-5.54-5.77-8.64-5.89-2.81.26-3.99 1.78-4.35 5.59-.11 4.18 1.1 7.98 3.92 12.23 3.04 4.18 5.59 5.91 8.73 6.01 2.8-.29 3.98-1.82 4.34-5.63.11-4.18-1.09-7.97-3.92-12.2l-.08-.11"/><path fill="#de2010" d="M621.44 291.09c-3.36-3.88-6.74-5.7-10-5.46-3.17.7-4.74 3.13-4.86 7.6.19 4.4 2.01 9.08 5.13 13.09 3.35 3.91 6.73 5.72 9.99 5.47 3.17-.73 4.74-3.18 4.87-7.65-.2-4.4-2.02-9.06-5.13-13.05"/><path d="M627.74 304.24c-.09 5.68-1.77 8.32-5.82 9.14-3.83.37-7.09-1.36-10.95-5.9-3.64-4.64-5.38-9.16-5.56-14.37.09-5.68 1.76-8.28 5.81-9.08 3.84-.34 7.1 1.39 10.95 5.9 3.65 4.61 5.39 9.1 5.57 14.31m-7.04-11.99c-3.29-3.83-5.92-5.26-9.03-5.02-2.75.59-3.82 2.25-3.92 6.11.17 4.22 1.62 7.89 4.7 11.83 3.28 3.84 5.91 5.28 9.03 5.02 2.74-.61 3.82-2.29 3.91-6.15-.17-4.22-1.62-7.87-4.69-11.79"/><path fill="#de2010" d="M603.53 272.61c-3.74-3.17-7.22-4.25-10.38-3.3-2.98 1.4-4.22 4.19-3.8 8.68.73 4.39 3.06 8.66 6.58 12 3.74 3.18 7.21 4.26 10.37 3.28 2.98-1.42 4.22-4.23 3.8-8.72-.72-4.37-3.06-8.62-6.57-11.94"/><path d="M611.26 284.4c.6 5.69-.73 8.71-4.55 10.42-3.7 1.22-7.06.2-11.36-3.51-4.1-3.85-6.33-7.97-7.15-13.18-.6-5.7.72-8.69 4.54-10.37 3.7-1.19 7.06-.16 11.36 3.52v.01c4.11 3.83 6.33 7.91 7.16 13.11m-8.31-10.47c-3.67-3.13-6.37-3.99-9.39-3.06-2.58 1.18-3.43 3.1-3.06 6.98.69 4.21 2.53 7.55 6 10.82 3.67 3.14 6.38 4 9.39 3.05 2.58-1.21 3.43-3.14 3.06-7.01-.68-4.2-2.53-7.52-6-10.78"/><path fill="#de2010" d="M583.48 255.49c-3.91-2.76-7.4-3.44-10.46-2.11-2.84 1.74-3.89 4.71-3.17 9.17 1.02 4.34 3.59 8.33 7.29 11.29 3.91 2.76 7.4 3.44 10.46 2.09 2.84-1.76 3.88-4.74 3.17-9.2-1.02-4.33-3.59-8.29-7.29-11.24"/><path d="M591.9 266.45c.97 5.64-.14 8.83-3.79 10.99-3.59 1.65-6.96 1.02-11.45-2.21-4.32-3.39-6.78-7.26-7.94-12.41-.97-5.65.14-8.82 3.79-10.96 3.58-1.62 6.96-.98 11.45 2.23h.01c4.31 3.38 6.77 7.22 7.93 12.36m-8.9-9.57c-3.83-2.72-6.55-3.27-9.47-1.99-2.47 1.49-3.18 3.53-2.56 7.38.97 4.16 3 7.28 6.65 10.18 3.83 2.72 6.55 3.27 9.47 1.97 2.46-1.51 3.18-3.56 2.55-7.4-.96-4.16-2.99-7.25-6.64-10.14"/><path fill="#de2010" d="M563.82 241.92c-4.01-2.43-7.5-2.83-10.47-1.23-2.73 2-3.62 5.08-2.69 9.49 1.23 4.29 3.96 8.06 7.77 10.72 4.02 2.44 7.51 2.83 10.47 1.21 2.73-2.01 3.62-5.1 2.7-9.5-1.23-4.28-3.96-8.04-7.78-10.69"/><path d="M564.23 240.48c4.45 3.05 7.06 6.67 8.47 11.74 1.25 5.57.29 8.91-3.22 11.37-3.47 1.96-6.84 1.61-11.45-1.25-4.45-3.05-7.06-6.7-8.48-11.78-1.25-5.58-.29-8.91 3.22-11.34 3.48-1.95 6.84-1.59 11.46 1.26m-.82 2.88c-3.93-2.41-6.65-2.73-9.48-1.19-2.37 1.71-2.98 3.83-2.17 7.64 1.17 4.1 3.32 7.05 7.08 9.65 3.94 2.42 6.65 2.74 9.49 1.18 2.36-1.72 2.98-3.85 2.17-7.65-1.17-4.1-3.32-7.03-7.09-9.63"/><path fill="#de2010" d="M543.85 230.43c-4.11-2.05-7.58-2.1-10.43-.19-2.58 2.28-3.29 5.48-2.13 9.82 1.46 4.19 4.36 7.7 8.29 9.99 4.1 2.05 7.57 2.09 10.42.17 2.59-2.29 3.3-5.49 2.14-9.82-1.46-4.19-4.36-7.68-8.29-9.97"/><path d="M553.21 239.9c1.54 5.47.78 8.93-2.55 11.75-3.33 2.32-6.68 2.3-11.4-.11-4.58-2.63-7.36-6.01-9.04-10.99-1.55-5.48-.78-8.94 2.55-11.74 3.33-2.3 6.67-2.28 11.4.13 4.57 2.62 7.35 5.99 9.04 10.96m-9.69-7.98c-4.02-2.03-6.72-2.09-9.44-.25-2.24 1.95-2.73 4.16-1.72 7.9 1.39 4.02 3.67 6.75 7.54 8.99 4.03 2.03 6.73 2.09 9.45.24 2.24-1.97 2.73-4.17 1.72-7.91-1.39-4.01-3.68-6.74-7.55-8.97"/><path fill="#de2010" d="M521.85 221.97c-4.21-1.2-7.58-.53-10.14 2-2.25 2.8-2.58 6.23-.96 10.32 1.91 3.93 5.08 6.8 9.17 8.3 4.22 1.2 7.59.53 10.15-2.01 2.24-2.8 2.58-6.24.96-10.32-1.91-3.93-5.08-6.79-9.18-8.29"/><path d="M532.02 229.54c2.11 5.17 1.76 8.82-1.16 12.34-2.97 3.03-6.23 3.71-11.08 2.28-4.75-1.69-7.81-4.48-10.02-9.16-2.11-5.16-1.76-8.82 1.16-12.33 2.97-3.02 6.22-3.7 11.08-2.27 4.75 1.69 7.81 4.48 10.02 9.14m-10.31-6.01c-4.14-1.19-6.77-.69-9.2 1.74-1.95 2.43-2.18 4.76-.78 8.3 1.82 3.77 4.3 5.99 8.34 7.46 4.13 1.2 6.76.69 9.2-1.74 1.95-2.44 2.18-4.77.78-8.31-1.83-3.77-4.31-5.99-8.34-7.45"/><path fill="#de2010" d="M500.15 216.94c-4.23-.71-7.52.36-9.88 3.2-2.05 3.09-2.16 6.59-.31 10.5 2.14 3.74 5.42 6.24 9.57 7.28 4.23.71 7.52-.36 9.88-3.2 2.04-3.08 2.16-6.59.31-10.5-2.14-3.74-5.42-6.24-9.57-7.28"/><path d="M500.19 215.35h.01c4.81 1.16 7.96 3.58 10.45 8.04 2.4 4.94 2.28 8.67-.37 12.54-2.75 3.39-5.92 4.45-10.8 3.58-4.81-1.16-7.96-3.58-10.45-8.03-2.4-4.95-2.29-8.68.37-12.55 2.74-3.39 5.91-4.45 10.79-3.58m-.09 3.18c-4.15-.72-6.72.1-8.97 2.83-1.77 2.67-1.85 5.05-.25 8.44 2.04 3.59 4.61 5.52 8.69 6.53 4.16.72 6.72-.1 8.97-2.83 1.78-2.67 1.85-5.05.25-8.44-2.04-3.59-4.61-5.52-8.69-6.52v-.01"/><path fill="#de2010" d="M480.26 214.83c-4.23-.71-7.52.37-9.88 3.22-2.04 3.08-2.16 6.59-.31 10.49 2.14 3.74 5.42 6.23 9.57 7.27 4.23.71 7.52-.37 9.88-3.21 2.05-3.08 2.16-6.58.31-10.5-2.14-3.74-5.42-6.24-9.57-7.27"/><path d="M480.31 213.24c4.81 1.15 7.96 3.57 10.45 8.03 2.4 4.94 2.29 8.67-.37 12.54-2.74 3.4-5.92 4.45-10.79 3.59-4.82-1.15-7.97-3.57-10.46-8.02-2.4-4.94-2.28-8.66.37-12.54 2.75-3.4 5.92-4.47 10.8-3.6m-.1 3.18c-4.15-.71-6.71.11-8.96 2.84-1.78 2.67-1.85 5.06-.25 8.44 2.04 3.59 4.61 5.52 8.69 6.51 4.15.72 6.72-.09 8.97-2.82 1.77-2.67 1.85-5.06.25-8.45-2.04-3.59-4.61-5.52-8.7-6.52"/><path fill="#de2010" d="M456.95 215.06c-4.05.82-6.99 3.14-8.63 6.81-1.32 3.82-.75 7.35 1.72 10.54 2.74 2.96 6.23 4.21 10.35 3.72 4.05-.81 6.99-3.12 8.63-6.79 1.32-3.81.75-7.35-1.72-10.55-2.74-2.96-6.23-4.23-10.35-3.73"/><path d="M468.01 217.62c3.19 4.03 3.8 7.79 2.05 12.61-1.89 4.36-4.71 6.6-9.41 7.5-4.75.62-8.11-.61-11.32-4.14-3.18-4.02-3.8-7.77-2.05-12.6 1.89-4.37 4.71-6.62 9.41-7.53 4.76-.62 8.12.62 11.32 4.16m-10.8-.96c-3.99.78-6.29 2.58-7.85 6.1-1.14 3.31-.75 5.71 1.39 8.48 2.61 2.84 5.33 3.8 9.38 3.29 3.98-.78 6.29-2.56 7.85-6.08 1.15-3.3.75-5.71-1.39-8.49-2.61-2.84-5.33-3.81-9.38-3.3"/><path fill="#de2010" d="M435.74 219.2c-3.94 1.31-6.71 4.01-8.11 7.89-1.06 4.02-.29 7.45 2.34 10.39 2.89 2.64 6.4 3.48 10.44 2.5 3.95-1.3 6.72-3.99 8.12-7.86 1.06-4.01.29-7.45-2.34-10.4-2.89-2.66-6.4-3.51-10.45-2.52"/><path d="M435.39 217.62c4.67-1.19 8.05-.35 11.43 2.84 3.39 3.67 4.22 7.38 2.79 12.43-1.61 4.6-4.27 7.2-8.84 8.66-4.67 1.19-8.05.36-11.43-2.81-3.39-3.65-4.22-7.34-2.79-12.41 1.61-4.61 4.27-7.23 8.84-8.71m.71 3.16c-3.88 1.26-6.06 3.36-7.38 7.08-.94 3.46-.4 5.83 1.88 8.35 2.76 2.55 5.49 3.18 9.46 2.19 3.88-1.26 6.06-3.34 7.38-7.05.94-3.46.4-5.83-1.88-8.37-2.76-2.56-5.49-3.2-9.46-2.2"/><path fill="#de2010" d="M416.4 227.81c-3.74 1.98-6.24 5.2-7.27 9.32-.69 4.23.37 7.54 3.2 10.03 3.07 2.17 6.57 2.41 10.46.72 3.73-1.97 6.24-5.16 7.27-9.28.69-4.22-.37-7.54-3.2-10.05-3.08-2.19-6.57-2.44-10.46-.74"/><path d="m415.91 226.29.01-.01c4.48-2 7.85-1.73 11.44.89 3.65 3.13 4.78 6.68 3.82 12.02-1.15 4.88-3.57 7.99-7.91 10.22-4.48 1.99-7.85 1.73-11.44-.87-3.65-3.1-4.78-6.63-3.83-11.99 1.16-4.88 3.58-8.02 7.91-10.26m.97 3.04c-3.67 1.93-5.65 4.43-6.62 8.38-.61 3.66.12 5.93 2.57 8.08 2.94 2.08 5.66 2.25 9.47.57 3.68-1.92 5.65-4.4 6.63-8.35.61-3.64-.12-5.93-2.58-8.09-2.93-2.1-5.65-2.28-9.46-.59h-.01"/><path fill="#de2010" d="M397.1 238.79c-3.55 2.44-5.85 6.04-6.59 10.28-.43 4.35.83 7.52 3.78 9.67 3.17 1.78 6.63 1.59 10.38-.6 3.55-2.43 5.85-6 6.6-10.24.42-4.34-.83-7.53-3.79-9.7-3.17-1.81-6.63-1.62-10.38.59"/><path d="M407.89 236.76c3.8 2.68 5.14 6.09 4.53 11.59-.84 5.03-3.04 8.48-7.18 11.26-4.3 2.57-7.65 2.73-11.36.58-3.8-2.66-5.13-6.04-4.53-11.55.84-5.04 3.04-8.52 7.18-11.32 4.31-2.59 7.65-2.75 11.36-.56m-10.21 3.49c-3.51 2.4-5.31 5.18-6.02 9.26-.38 3.75.48 5.94 3.04 7.78 3.03 1.72 5.72 1.55 9.39-.62 3.51-2.39 5.31-5.15 6.02-9.22.38-3.75-.48-5.94-3.04-7.81-3.03-1.73-5.72-1.57-9.39.61"/><path fill="#de2010" d="M378.85 253.49c-3.29 3.01-5.28 7.02-5.67 11.38-.08 4.44 1.4 7.4 4.49 9.09 3.26 1.28 6.65.54 10.16-2.26 3.29-2.99 5.29-6.96 5.68-11.32.07-4.44-1.41-7.43-4.5-9.14-3.26-1.3-6.64-.57-10.16 2.25"/><path d="M378.17 252.11c4.04-3.29 7.31-3.98 11.13-2.38 3.96 2.09 5.54 5.29 5.38 10.92-.43 5.17-2.33 9-6.16 12.44-4.04 3.27-7.32 3.96-11.14 2.39-3.95-2.06-5.53-5.23-5.37-10.86.42-5.17 2.32-9.04 6.16-12.51m1.36 2.76c-3.24 2.95-4.82 6.08-5.18 10.26-.08 3.83.94 5.87 3.61 7.31 3.12 1.24 5.75.65 9.19-2.12 3.25-2.93 4.83-6.04 5.19-10.21.07-3.83-.95-5.89-3.62-7.35-3.11-1.26-5.74-.67-9.19 2.11"/><path fill="#de2010" d="M361.95 269.13c-3.06 3.43-4.79 7.73-4.9 12.14.2 4.47 1.84 7.23 5.01 8.54 3.29.87 6.61-.31 9.91-3.56 3.06-3.41 4.79-7.67 4.91-12.08-.21-4.47-1.85-7.27-5.01-8.6-3.31-.89-6.61.28-9.92 3.56"/><path d="M361.19 267.83c3.8-3.82 6.99-4.93 10.87-3.81 4.04 1.59 5.8 4.59 5.99 10.27-.09 5.22-1.75 9.34-5.32 13.26-3.79 3.79-6.99 4.9-10.87 3.81-4.04-1.56-5.8-4.52-5.99-10.2.09-5.22 1.75-9.37 5.32-13.33m1.52 2.6c-3.02 3.36-4.39 6.72-4.49 10.94.16 3.86 1.29 5.77 4.03 6.88 3.15.84 5.73-.09 8.96-3.3 3.02-3.35 4.39-6.68 4.49-10.91-.16-3.86-1.29-5.78-4.03-6.91-3.15-.86-5.72.07-8.95 3.3h-.01"/><path fill="#de2010" d="M347.05 288.95c-2.86 3.76-4.36 8.3-4.24 12.71.44 4.46 2.21 7.05 5.42 8.01 3.31.51 6.55-1.03 9.65-4.65 2.85-3.73 4.36-8.23 4.23-12.65-.44-4.47-2.2-7.08-5.42-8.07-3.31-.53-6.54 1.01-9.64 4.65"/><path d="M356.8 282.72c4.1 1.16 5.99 3.96 6.48 9.65.18 5.23-1.24 9.56-4.58 13.88-3.56 4.21-6.68 5.67-10.58 5-4.1-1.13-5.99-3.89-6.47-9.57-.19-5.23 1.24-9.59 4.57-13.94h.01c3.56-4.25 6.67-5.71 10.57-5.02m-8.93 7.45c-2.82 3.7-4.01 7.23-3.89 11.47.37 3.85 1.58 5.63 4.36 6.44 3.17.5 5.68-.71 8.71-4.28 2.82-3.68 4.01-7.19 3.89-11.42-.36-3.87-1.58-5.66-4.36-6.5-3.17-.52-5.67.7-8.71 4.29"/><path fill="#de2010" d="M334.21 311.5c-2.6 4.12-3.81 8.87-3.42 13.26.73 4.44 2.59 6.75 5.86 7.34 3.3.1 6.42-1.85 9.27-5.86 2.59-4.09 3.81-8.8 3.42-13.2-.74-4.46-2.6-6.8-5.86-7.41-3.31-.11-6.42 1.83-9.27 5.87"/><path d="M343.49 304.03c4.15.67 6.15 3.2 7 8.86.51 5.21-.64 9.74-3.68 14.48-3.25 4.65-6.29 6.52-10.17 6.33-4.15-.64-6.16-3.13-7.01-8.78-.5-5.2.65-9.76 3.69-14.53 3.25-4.69 6.29-6.57 10.17-6.36m-8.4 8.59c-2.56 4.05-3.52 7.75-3.14 11.97.6 3.82 1.9 5.44 4.71 5.91 3.16.11 5.58-1.43 8.37-5.38 2.56-4.03 3.53-7.71 3.15-11.93-.6-3.83-1.91-5.47-4.72-5.96-3.16-.12-5.58 1.41-8.36 5.39h-.01"/><path fill="#de2010" d="M322.47 334.84c-2.24 4.53-3.07 9.47-2.34 13.78 1.07 4.34 3.07 6.35 6.36 6.43 3.24-.39 6.22-2.86 8.7-7.29 2.24-4.5 3.07-9.42 2.34-13.75-1.08-4.36-3.08-6.4-6.37-6.5-3.24.39-6.22 2.86-8.69 7.33"/><path d="M321.5 333.87c2.84-5.2 5.71-7.56 9.55-7.96 4.16.02 6.33 2.23 7.61 7.77.9 5.13.12 9.85-2.51 15.06-2.84 5.16-5.71 7.51-9.55 7.91-4.16.01-6.32-2.16-7.6-7.68-.91-5.11-.13-9.86 2.5-15.1m1.93 1.95c-2.22 4.44-2.88 8.32-2.17 12.45.89 3.74 2.29 5.15 5.12 5.18 3.1-.36 5.42-2.31 7.84-6.68 2.22-4.42 2.89-8.29 2.18-12.43-.9-3.75-2.3-5.18-5.12-5.22-3.11.35-5.43 2.3-7.85 6.7"/><path fill="#de2010" d="M312.69 361.67c-1.62 5.04-1.81 10.16-.56 14.25 1.6 4.06 3.79 5.55 7.02 4.84 3.1-1.17 5.72-4.37 7.57-9.36 1.62-5.02 1.8-10.13.55-14.25-1.6-4.08-3.78-5.6-7.02-4.89-3.09 1.17-5.71 4.38-7.56 9.41"/><path d="M311.62 360.94v-.01c2.1-5.82 4.65-8.93 8.32-10.24 4.07-1 6.44.65 8.39 5.86 1.52 4.87 1.36 9.78-.54 15.59-2.11 5.79-4.66 8.87-8.32 10.18-4.08 1.01-6.45-.6-8.4-5.78-1.52-4.84-1.36-9.75.55-15.6m2.13 1.46c-1.61 4.95-1.77 8.98-.56 12.9 1.35 3.5 2.88 4.55 5.65 3.89 2.97-1.1 5.01-3.62 6.81-8.54 1.61-4.93 1.77-8.96.56-12.89-1.34-3.52-2.88-4.59-5.65-3.94-2.96 1.11-5 3.64-6.81 8.58"/><path fill="#de2010" d="M304.94 389.93c-1.27 5.25-1.11 10.39.4 14.31 1.86 3.85 4.12 5.06 7.28 3.92 2.98-1.55 5.4-5.13 6.88-10.35 1.27-5.23 1.11-10.38-.4-14.32-1.85-3.88-4.11-5.11-7.28-3.97-2.97 1.56-5.39 5.17-6.88 10.41"/><path d="M303.84 389.34c1.69-6.09 4.03-9.55 7.57-11.34 3.98-1.55 6.42-.21 8.7 4.75 1.83 4.66 2 9.6.5 15.67-1.7 6.06-4.03 9.48-7.57 11.27-3.98 1.54-6.43.23-8.71-4.69-1.83-4.63-2-9.56-.49-15.66m2.21 1.18c-1.27 5.16-1.16 9.21.3 12.96 1.57 3.33 3.15 4.18 5.86 3.16 2.86-1.49 4.73-4.29 6.19-9.43 1.26-5.15 1.15-9.2-.31-12.97-1.57-3.35-3.15-4.21-5.86-3.19-2.85 1.49-4.72 4.3-6.18 9.47"/><path fill="#de2010" d="M298.22 443.93c-.26 4.53.78 8.38 2.94 11.14 2.46 2.53 4.87 2.9 7.7 1.18 2.58-2.03 4.23-5.44 4.73-9.95.27-4.52-.77-8.4-2.94-11.18-2.46-2.55-4.86-2.92-7.69-1.19-2.58 2.05-4.23 5.48-4.74 10"/><path d="M297.18 443.72c.56-5.33 2.17-8.68 5.27-11.07 3.42-2.18 5.88-1.79 8.87 1.4 2.64 3.29 3.67 7.12 3.32 12.48-.57 5.32-2.18 8.63-5.28 11-3.41 2.15-5.88 1.77-8.86-1.38-2.64-3.26-3.67-7.07-3.32-12.43m2.08.42c-.26 4.33.52 7.27 2.56 9.85 2.2 2.3 3.98 2.57 6.52.98 2.47-1.93 3.73-4.55 4.21-8.89.26-4.33-.52-7.29-2.56-9.88-2.2-2.33-3.97-2.6-6.52-.99-2.46 1.93-3.73 4.58-4.21 8.93"/><path fill="#de2010" d="M300.01 418.65c-.82 5.45-.22 10.55 1.6 14.21 2.16 3.55 4.49 4.39 7.53 2.74 2.8-2.02 4.9-6.01 5.93-11.44.81-5.44.22-10.55-1.6-14.24-2.17-3.57-4.49-4.43-7.53-2.77-2.8 2.03-4.9 6.05-5.93 11.5"/><path d="M298.87 418.24c1.16-6.33 3.19-10.19 6.53-12.54 3.81-2.2 6.33-1.27 9 3.31 2.2 4.36 2.78 9.26 1.81 15.57-1.17 6.32-3.2 10.13-6.53 12.47-3.81 2.19-6.34 1.28-9.01-3.27-2.19-4.32-2.77-9.21-1.8-15.54m2.28.82c-.81 5.36-.36 9.37 1.39 12.88 1.84 3.07 3.47 3.66 6.07 2.21 2.68-1.92 4.32-5.07 5.31-10.42.82-5.35.37-9.37-1.39-12.9-1.83-3.09-3.46-3.69-6.06-2.23-2.68 1.93-4.32 5.1-5.31 10.46h-.01"/><path fill="#ffe300" d="M682.36 452.16c2.66-3.46 4.53-4.16 7.61-2.82-1.17-9.67-3.07-12.57-5.87-11.85-2.68 1.26-3.77 5.5-1.74 14.67M686.1 480.88c2.86-3.18 4.76-3.7 7.76-2.05-.63-9.73-2.37-12.8-5.21-12.36-2.76.99-4.08 5.09-2.55 14.41M677.26 425.84c1.89-4.3 3.56-5.63 6.74-5.36-2.93-9.09-5.24-11.27-7.81-9.61-2.32 2.13-2.58 6.69 1.07 14.97M667.98 399.24c1.89-4.28 3.56-5.6 6.74-5.3-2.93-9.11-5.24-11.32-7.81-9.68-2.32 2.11-2.57 6.67 1.07 14.98M645.73 349.81c1.33-4.64 2.84-6.33 5.97-6.65-3.93-8.51-6.46-10.25-8.78-8.1-2.01 2.58-1.73 7.19 2.81 14.75M631.19 327.63c1.19-4.7 2.66-6.46 5.76-6.91-4.15-8.37-6.71-10.01-8.97-7.76-1.93 2.66-1.52 7.28 3.21 14.67M600.62 288.78c.05-5.07 1.04-7.42 3.79-9.1-5.76-6.53-8.46-7.09-10.06-3.98-1.19 3.41.23 7.74 6.27 13.08M616.53 307.03c.69-4.92 1.96-6.96 4.94-7.97-4.92-7.63-7.59-8.82-9.57-6.16-1.63 3.02-.75 7.58 4.63 14.13M582.47 272.7c-.34-5.09.46-7.6 3.04-9.65-6.17-5.79-8.87-6-10.21-2.66-.91 3.6.81 7.75 7.17 12.31M563.92 259.04c-.86-5.02-.34-7.75 1.96-10.27-6.63-4.65-9.29-4.34-10.24-.73-.51 3.79 1.6 7.63 8.28 11M543.94 247.65c-1.17-4.95-.82-7.76 1.29-10.55-6.83-3.94-9.44-3.33-10.16.41-.25 3.89 2.05 7.47 8.87 10.14M524.3 239.48c-1.41-4.85-1.21-7.73.73-10.73-6.97-3.31-9.52-2.43-10.03 1.39-.05 3.95 2.41 7.32 9.3 9.34M503.51 234.1c-1.75-4.68-1.78-7.61-.1-10.9-7.1-2.34-9.54-1.09-9.75 2.82.25 4 2.92 7.02 9.85 8.08M462.81 232.03c-2.47-4.06-3.02-6.98-2.01-10.83-7.1.05-9.21 2.17-8.71 6.11.98 3.93 3.96 5.99 10.72 4.72M482.85 231.49c-2.09-4.44-2.35-7.39-.96-10.95-7.16-1.3-9.45.34-9.36 4.3.57 3.99 3.42 6.62 10.32 6.65M443.15 234.91c-2.83-3.6-3.66-6.38-3.1-10.48-6.9 1.49-8.73 4.07-7.83 7.92 1.36 3.75 4.47 5.21 10.93 2.56M405.52 253.31c-3.23-2.81-4.42-5.34-4.45-9.61-6.41 3.41-7.82 6.52-6.43 10.1 1.82 3.38 5.04 3.98 10.88-.49M423.66 243.1c-2.99-3.32-3.96-6.03-3.61-10.21-6.75 2.22-8.43 5.01-7.35 8.77 1.54 3.64 4.69 4.78 10.96 1.44M371.76 281.33c-3.54-1.81-5.05-3.93-5.73-8.19-5.62 5.35-6.51 8.93-4.62 12.02 2.26 2.81 5.44 2.4 10.35-3.83M387.86 265.19c-3.43-2.21-4.83-4.5-5.27-8.79-5.94 4.63-7.04 8.06-5.33 11.36 2.11 3.04 5.32 3.02 10.6-2.57M357.45 299.09c-3.63-1.36-5.23-3.24-6.21-7.44-5.2 6.13-5.84 9.84-3.77 12.68 2.43 2.5 5.54 1.67 9.98-5.24M344.62 320.6c-3.69-.88-5.39-2.52-6.64-6.61-4.74 6.84-5.12 10.64-2.89 13.21 2.57 2.18 5.6.92 9.53-6.6M333.89 342.94c-3.72-.07-5.54-1.32-7.23-5.13-3.88 7.84-3.83 11.74-1.35 13.79 2.74 1.62 5.6-.31 8.58-8.66M324.46 367.05c-3.68.63-5.57-.28-7.6-3.77-3.08 8.55-2.66 12.42-.02 14.01 2.85 1.11 5.48-1.36 7.62-10.24M316.93 392.01c-3.55 1.45-5.49.98-7.89-2.04-2.02 9.19-1.17 12.94 1.61 13.93 2.9.48 5.22-2.59 6.28-11.89M311.88 420.1c-3.46 1.8-5.41 1.51-7.95-1.28-1.56 9.39-.53 13.05 2.28 13.77 2.91.21 5.08-3.09 5.67-12.49M309.82 443.6c-3.25 2.01-5.24 2.12-7.94.39-.78 7.7.46 10.3 3.33 10.43 2.88-.38 4.74-3.3 4.61-10.82M659.7 375.47c1.4-4.63 2.91-6.27 6.05-6.59-3.84-8.53-6.35-10.29-8.69-8.17-2.05 2.55-1.81 7.17 2.64 14.76M688.39 509.86c2.85-3.18 4.75-3.71 7.76-2.07-.63-9.73-2.38-12.8-5.22-12.35-2.75 1-4.07 5.1-2.54 14.42"/><path fill="#ffd200" d="M644.55 384.8c.09-.19 7-14.86 4.46-30.11-3.38-14.96-14.32-5.9-14.56-.54.63 5.25 7.45 13.17 8.22 16.38.34 3.66-.59 12.48 1.88 14.27"/><path fill="#ef8a10" d="m645.05 385.02.03.72-.66-.3c-1.5-.96-2.18-4.06-2.16-10.7.03-2.15-.01-3.52-.08-4.13-.18-.8-1.14-2.61-3.12-5.64-3.3-5.1-4.87-8.55-5.11-10.83 0-1.61.57-3.05 1.93-4.78 1.38-1.6 2.8-2.6 4.55-3.23 2.11-.6 3.64-.37 5.3.79 1.82 1.56 2.97 3.84 3.76 7.64 1.14 6.49.76 13.37-1.18 21.1-1 3.74-2.08 6.82-3.26 9.36m-.69-1.11c1.08-2.4 2.08-5.3 3.01-8.78 1.88-7.48 2.25-14.09 1.16-20.32-.7-3.38-1.69-5.39-3.23-6.72-1.41-.98-2.73-1.17-4.57-.64-1.61.58-2.9 1.49-4.17 2.96-1.14 1.44-1.61 2.57-1.62 3.75.23 1.94 1.7 5.1 4.84 9.94 2.11 3.24 3.15 5.28 3.37 6.35.09.7.13 2.16.1 4.41-.02 5.23.38 7.96 1.11 9.05"/><path fill="#217900" d="M661.05 353.06c-.23.23-7.57 9.78-6.53 23.08 1.45 13.13 7.21 29.61 6.28 42.97-1.15 13.36-2.89 22.12-2.89 22.13.11-.16 8.87-13.36 9.25-27.17-.06-13.66-6.14-32.16-6.28-42.25l.18-14.78c.05-2.62-.01-3.98-.01-3.98"/><path d="M660.55 351.91c.22-.17.42-.2.7-.11.28.12.47.31.63.66.06.16.11.32.13.51.02.11.03.25.03.42l.01 1.1-.06 3.91-.16 13.5c.05 2.98.93 8.79 2.74 17.54 2.38 11.44 3.53 19.64 3.54 24.72-.11 5.99-1.66 12.31-4.79 19.37-1.59 3.45-3.15 6.3-4.69 8.63-.3.39-.56.47-.97.31-.31-.15-.5-.34-.63-.62-.1-.29-.11-.61-.04-1.03 1.16-5.79 2.11-13.09 2.86-21.93.38-5.39-.69-14.13-3.33-26.45-1.61-7.44-2.57-12.83-2.95-16.2-.52-5.87.39-11.42 2.85-17.27 1.85-4.18 3.17-6.33 4.13-7.06m-.43 4.49c-.75 1.26-1.43 2.59-2.05 4-2.24 5.36-3.07 10.37-2.61 15.64.36 3.24 1.3 8.5 2.88 15.8 2.72 12.67 3.81 21.75 3.4 27.5-.52 6.23-1.15 11.71-1.87 16.46.6-1.15 1.21-2.4 1.82-3.74 2.95-6.66 4.41-12.55 4.52-18.07-.02-4.83-1.14-12.78-3.46-23.98-1.87-8.99-2.77-15.05-2.82-18.27l.15-13.57.04-1.77m1.5-2.25c.04-.03.07-.07.11-.12-.04.05-.07.08-.11.12"/><path fill="#217900" d="M675.57 397.78c-.16.15-5.83 5.58-5.52 19.88.82 14.27 11.25 40.83 11.29 40.91.04.13 7.54 22.31 7.55 28.06-.19 5.66 1.33-5.35.68-17.93-.99-12.59-12.52-40.8-12.56-40.91-.04-.08-2.38-5.79-2.29-15.23.29-9.38.86-14.65.85-14.78"/><path d="M675 396.69c.16-.14.31-.2.51-.21.66.04.93.38 1.01 1.29h-.06c.02.42.01.97-.04 1.65-.37 4.47-.62 8.88-.75 13.25-.11 6.06.61 10.74 2.16 14.52 7.93 19.17 12.09 32.85 12.69 41.46.31 5.45.26 10.78-.15 16.05-.16 1.9-.33 3.14-.47 3.76-.18.61-.41.88-.8.99-.54.06-.84-.17-1.08-.87-.04-.14-.07-.29-.09-.46-.02-.32-.02-.86.01-1.62.06-3.6-2.33-12.6-7.45-27.38-1.78-4.48-3.59-9.54-5.44-15.19-3.7-11.47-5.64-20.17-5.95-26.27-.2-6.26.68-11.41 2.67-15.99 1.07-2.29 2.12-3.88 3.23-4.98m-.66 4.58c-.31.55-.62 1.17-.94 1.86-1.79 4.14-2.58 8.81-2.4 14.53.3 5.77 2.19 14.15 5.78 25.31 1.83 5.6 3.63 10.6 5.39 15.02.01.02.01.05.02.07 3.17 9.14 5.35 16.23 6.57 21.3.11-3.49.06-7.02-.14-10.6-.58-8.22-4.65-21.54-12.43-40.37-1.74-4.21-2.55-9.37-2.42-15.95.1-3.69.3-7.42.57-11.17"/><path fill="#217900" d="M505.56 235.14c.48.11 25.57 5.38 26.4 28.64-.08 3.58-.03 7.88-.94 18.05 5.2-3.39 8.5-12.9 7.98-20.12-.34-23.69-22.93-42.95-33.44-26.57"/><path d="M505.51 236.76c-.25-.06-.45-.19-.67-.43-.31-.39-.48-.74-.53-1.14-.03-.4.06-.76.3-1.17 2.79-4.38 5.87-6.38 10.25-6.69 3.96 0 7.58 1.42 11.72 4.66 3.94 3.3 7.04 7.33 9.61 12.52 2.64 5.66 3.93 11.25 4 17.28.29 3.97-.32 7.91-1.91 12.32-1.84 4.63-3.93 7.48-6.69 9.24-.24.13-.45.15-.71.08-.41-.15-.66-.35-.85-.69-.17-.34-.23-.74-.19-1.28.51-5.63.8-10.98.89-16.07l.04-1.81c-.25-9.07-4.18-15.79-12.48-21.35-4.34-2.74-8.49-4.51-12.78-5.47m2.54-2.63c3.7 1.12 7.31 2.8 11.05 5.17 9.34 6.23 13.8 14.05 14.05 24.64v.07l-.04 1.81c-.07 4.12-.27 8.39-.61 12.84 1.39-1.55 2.56-3.56 3.64-6.3 1.4-3.89 1.93-7.27 1.68-10.61-.01-.07-.01-.15-.01-.23-.06-5.37-1.2-10.34-3.56-15.43-2.34-4.7-5.14-8.33-8.7-11.33-3.72-2.89-6.88-4.14-10.37-4.16-2.91.22-5.02 1.26-7.13 3.53"/><path fill="#217900" d="M488.93 231.53c.48-.06 20.49-2.71 21.3 20.45-.07 23.26-6.53 25.79-6.7 25.86.34-.06 15.74-2.21 16.29-25.77-.32-23.67-20.42-36.99-30.89-20.54"/><path d="M489.17 233.16c-.08 0-.16 0-.24-.01-.27-.05-.49-.18-.72-.43-.62-.82-.69-1.46-.23-2.32 2.74-4.34 5.71-6.65 9.71-7.61 3.77-.64 7.07.1 10.89 2.49 3.66 2.53 6.46 5.85 8.83 10.51 2.38 5.08 3.55 10.4 3.6 16.47-.14 10.49-2.92 17.79-8.65 22.93-2.97 2.45-5.64 3.77-8.58 4.27-.69.05-1.07-.28-1.36-1.2-.26-1.11-.08-1.65.67-2 .92-.44 1.78-1.52 2.84-3.65 2.09-4.6 3.13-11.36 3.11-20.8-.22-8.96-3.24-14.27-9.75-17.2-3.48-1.37-6.66-1.82-10.12-1.45m2.85-3.42c2.61.14 5.09.7 7.72 1.75 7.78 3.46 11.45 9.92 11.68 20.66.03 9.96-1.11 17.23-3.39 22.32.96-.58 1.92-1.28 2.9-2.11 5.11-4.59 7.56-11.08 7.71-20.48-.06-5.37-1.08-10.03-3.16-14.48-2.09-4.08-4.52-6.97-7.73-9.2-3.35-2.07-6.16-2.71-9.45-2.18-2.44.59-4.36 1.72-6.28 3.72"/><path fill="#217900" d="M694.22 522.37c.66 10.46 7.72 20.72 5.03 38.76-3.81 20.57-16.58 68.42-14.59 77.32-3.77-7.65-3.27-14.3-3.56-24.57-.14-10.19 10.72-47.34 11.83-60.15.02-11.52.83-27.17 1.29-31.36"/><path d="M694.01 520.76c.82-.1 1.19.27 1.38 1.38.01.07.02.15.02.22.16 2.33.9 5.95 2.32 10.97 1.46 5.16 2.4 9.24 2.86 12.32.7 5.3.64 10.51-.18 15.88 0 .02-.01.03-.01.05-.82 4.41-2.71 13.14-5.71 26.19-6.88 29.96-9.73 46.49-8.91 50.2.13.54.13.93.02 1.29-.14.35-.35.57-.74.75-.6.21-.97.03-1.36-.66-2.25-4.58-3.48-11.28-3.69-20.63l-.1-4.85c-.06-3.86 1.92-14.55 6.1-32.27 3.5-14.79 5.38-24.12 5.73-28.02.01-13.44.45-23.89 1.29-31.38.05-.87.32-1.26.98-1.44m.66 10.56c-.36 6.19-.55 13.68-.55 22.47 0 .06-.01.12-.01.17-.35 4.07-2.26 13.65-5.83 28.76-4.1 17.37-6.04 27.69-5.99 31.17l.1 4.91c.12 5.11.53 9.34 1.24 12.8.95-8.5 3.86-23.45 8.79-44.92 2.98-12.96 4.86-21.62 5.67-25.97v-.02c1.12-7.47.29-16.05-2.57-26.27l-.85-3.1"/><path fill="#217900" d="M694.22 522.6c.11.19 11.84 21.47 11.51 38.16-.78 16.64-7.23 35.67-5.19 44.48-3.86-7.55-4.82-12.14-5.18-22.38-.14-10.21 5.77-21.16 4.7-32.31-1.39-11.13-5.84-27.95-5.84-27.95"/><path d="M695.22 521.76c2.03 3.68 4.04 7.99 6.04 12.99 4.02 10.31 5.86 18.86 5.65 26.14-.22 5.03-1.28 12.61-3.21 22.81-2.1 11.19-2.71 18.04-2.04 21.04.24 1.09.04 1.65-.72 2.05-.6.22-.97.05-1.36-.64-3.28-6.49-5.05-14.09-5.41-23.29-.05-3.34.72-8.27 2.42-15 1.94-7.7 2.66-13.3 2.29-17.11-.67-5.49-2.36-13.79-5.14-24.94l-.5-2.03-.14-.61c-.02-.12-.04-.22-.05-.3-.02-.13-.02-.26-.02-.38.07-1.09.39-1.5 1.19-1.52.47.06.76.28 1 .79m2.85 11.74c1.61 7.12 2.66 12.72 3.16 16.85.43 4.35-.32 10.47-2.39 18.69-1.6 6.34-2.33 10.88-2.29 13.8.23 5.94 1.08 11.13 2.57 15.81.29-4.01 1.04-9.28 2.28-15.86 1.89-9.99 2.92-17.36 3.14-22.17.17-6.66-1.56-14.63-5.37-24.4l-1.1-2.72"/><path fill="#217900" d="M296.13 479.86c-.61 10.39-5.97 19.42-3.24 37.71 3.84 20.72 16.83 47.46 14.91 77.27 3.82-7.19 4.99-15.12 5.35-25.36.07-10.2-14.55-45.3-15.72-58.14-.02-11.52-.84-27.25-1.3-31.48"/><path d="M297.32 479.77c.84 7.58 1.28 18.08 1.3 31.53.39 4.06 2.97 13.49 7.91 28.47 5.32 16.19 7.84 26.07 7.81 29.85-.43 11.46-2.27 20.02-5.58 26.23-.3.5-.6.66-1.07.6-.82-.21-1.11-.71-1.07-1.83.57-8.75-.14-18.19-2.15-28.52-1.24-6.12-3.54-14.83-6.92-26.13-3.05-10.18-4.97-17.52-5.81-22.05l-.01-.05c-1.27-8.38-.78-17.59 1.52-28.01.99-4.46 1.54-7.78 1.69-10.01-.02-.45.04-.77.17-1.05.19-.31.43-.47.84-.56.06-.01.12-.01.18-.01.79.09 1.12.51 1.19 1.54m-1.8 11.14c-2.17 9.86-2.64 18.52-1.47 26.34.82 4.38 2.7 11.55 5.7 21.57 3.42 11.43 5.74 20.28 7.01 26.54 1.58 8.08 2.39 15.65 2.45 22.82 1.55-5.05 2.47-11.26 2.75-18.85.01-3.26-2.43-12.62-7.6-28.31-5.07-15.41-7.72-25.2-8.11-29.57-.01-.05-.01-.11-.01-.16-.01-8.28-.17-15.41-.49-21.41l-.23 1.03"/><path fill="#217900" d="M296.13 480.08c-.09.17-11.52 19.78-11.18 36.56.37 11.11 14.73 57.76 12.81 66.42 3.95-7.1 4.95-6.2 4.86-17.25-4.47-28.59-11.99-46.97-10.86-58.02 1.34-11.05 4.38-27.66 4.38-27.71h-.01"/><path d="M295.2 479.04c.03-.06.07-.1.1-.15.25-.31.5-.43.84-.43.79.09 1.12.53 1.19 1.63 0 .1 0 .2-.01.32-.01.09-.02.22-.04.37l-.17 1.03-.61 3.53c-1.8 10.35-2.98 17.93-3.56 22.76-.37 3.84.9 11.97 4 24.73 3.24 13.22 5.51 24.12 6.84 32.7.02.1.02.2.03.3.04 4.36-.18 7.42-.58 9.35-.39 1.44-1.2 3.23-2.54 5.49-.81 1.34-1.47 2.47-1.97 3.39-.4.65-.77.79-1.37.52-.75-.47-.95-1.05-.71-2.11.64-2.96-1.53-15.08-6.88-36.82-3.93-15.97-5.88-25.57-5.99-28.98-.2-7.29 1.58-15.62 5.49-25.38 1.97-4.79 3.95-8.85 5.94-12.25m-3.86 13.89c-3.7 9.23-5.38 16.98-5.2 23.66v.05c.11 3.05 2.01 12.35 5.87 28.04 3.96 16.12 6.24 27.36 6.9 33.74 1.12-1.89 1.77-3.31 2.05-4.35.32-1.56.5-4.22.47-8.14-1.32-8.43-3.56-19.14-6.74-32.15-3.23-13.27-4.53-21.91-4.1-26.29.52-4.39 1.53-11 3.05-19.81-.77 1.64-1.53 3.39-2.3 5.25"/><path fill="#8c8a8c" d="M525.96 308.53c.47.12 20.46 4.97 22.15 21.7.8 16.8-4.94 25.73-5.02 25.87.03.48 2.52 35.47-18.02 43.45-22.17.09-56.81-7.94-56.84-7.95-.24.04-9.87 1.83-14.32-27.57-4.11-29.46-5.32-49.99-5.32-49.99.06-.44 2.01-15.26 16.98-14.6 15.06 1.33 60.06 9.18 60.39 9.09"/><path d="M526.02 307.24c3.63.93 7.19 2.45 10.93 4.71 7.67 4.9 11.46 10.64 12.1 18.31.4 7.22-.33 13.7-2.19 19.79-.91 2.81-1.83 4.97-2.79 6.59.35 6.04-.08 12.28-1.32 18.89-2.79 13.83-8.35 21.92-17.35 25.29l-.1.04h-.11c-14.83.11-33.72-2.57-56.88-7.94-2.05.17-3.85-.7-6.22-3.05-4.27-4.69-7.26-12.98-9.12-25.73-2.75-19.69-4.52-36.39-5.33-50.14l-.01-.17.02-.16c.45-2.89 1.42-5.53 3.09-8.31 3.57-5.41 8.11-7.63 14.78-7.23 6.29.55 21.48 2.8 45.59 6.8l10.62 1.74 1.73.27-.28-.37 2.84.67m-.12 2.58.02-.37c-1.93-.01-6.84-.61-14.83-1.92-24.07-3.99-39.22-6.24-45.47-6.79-6.1-.35-10.17 1.61-13.38 6.44-1.44 2.4-2.29 4.65-2.69 7.06.8 13.62 2.56 30.17 5.29 49.68 1.75 12.02 4.47 19.71 8.3 23.93 1.93 1.93 3.33 2.62 4.86 2.45l.14-.02.14.03c23.06 5.35 41.84 8.03 56.57 7.93 8.31-3.18 13.44-10.71 16.06-23.63 1.22-6.52 1.62-12.63 1.23-18.52l-.04-.54.25-.38c.93-1.48 1.84-3.55 2.75-6.37 1.75-5.72 2.42-11.81 2.06-18.6-.59-6.54-3.93-11.46-10.82-15.88-3.59-2.16-6.98-3.61-10.44-4.5"/><path d="M543.67 356.8c-1.86 2.92-3.68 6.15-5.47 9.72-3.46 7.06-4.85 11.82-4.52 14.92.05.45.02.76-.09 1.01-.14.24-.33.36-.65.41-.66.04-.96-.28-1.13-1.18-.43-3.81 1.06-9.18 4.78-16.79 1.83-3.65 3.69-6.95 5.6-9.94.44-.61.8-.61 1.34 0 .24.32.37.6.41.92.01.32-.07.6-.27.93"/><path fill="#8c8a8c" d="M527.73 398.94c2.84 3.74 5.34 7.64 6.05 19.68l.92 18.6.26 5.38 14.77 183.72 12.99 133.18.89 20.5c-.11.48-3.04 13.82-11.81 14.41-6.99 17.18-40.26 17.18-44.15 16.48-3.1-.89-14.05-8.3-20.67-8.84-6.72-.04-18.07 3.78-23.33 2.28-5.42-1.99-16.44-8.87-18.9-20.77-14.38-8.8-16.78-23.47-16.83-23.79l15.65-149.62 15.21-189.73c.03-.53 1.89-24.63 9.3-28.04 7.86.3 48.23 8.23 59.65 6.57v-.01"/><path d="M528.34 398.04c3.8 5.14 5.87 11.76 6.39 20.64l1.18 23.92.01.05 14.75 183.63.01.03 12.99 133.2.9 20.77-.05.21c-.58 2.55-1.48 5.02-2.76 7.57-2.71 5-5.52 7.27-9.34 7.65-3.23 7.37-10.73 12.19-23.56 14.99-9.6 1.96-16.53 2.41-21.25 1.49-.82-.23-2.76-1.14-5.92-2.87-7.1-3.89-11.83-5.76-14.63-5.96-1.84-.02-5.14.39-10.03 1.32-6.99 1.31-11.3 1.55-13.52.91-3.75-1.37-7.28-3.57-10.94-6.83-4.66-4.4-7.37-8.92-8.6-14.29-6.03-3.73-10.47-8.63-13.83-15.29-1.66-3.48-2.67-6.49-3.15-9.27l-.04-.23 15.67-149.82 15.21-189.72c.32-4.3.94-8.68 1.86-13.21 2.04-9.47 4.58-14.35 8.06-15.82l.11-.04h.13c1.84.08 7.62.83 17.39 2.35 22.6 3.51 36.42 4.89 41.7 4.29l.35-.86.91 1.19m-.87 2.28c-5.45.61-19.4-.77-42.1-4.3-9.48-1.48-15.16-2.22-17.07-2.32-2.81 1.32-4.94 5.67-6.78 14.19-.89 4.39-1.48 8.64-1.8 12.81l-15.21 189.75-15.63 149.4c.45 2.36 1.34 4.98 2.8 8.03 3.22 6.34 7.49 10.97 13.36 14.48l.51.3.12.73c.99 4.93 3.44 9.08 7.83 13.24 3.46 3.07 6.77 5.13 10.28 6.43 1.97.56 6.04.3 12.78-.97 4.99-.95 8.39-1.37 10.33-1.35 3.05.22 8 2.15 15.33 6.16 3.01 1.66 4.81 2.51 5.47 2.7 4.52.88 11.28.44 20.68-1.49 12.62-2.75 19.78-7.37 22.57-14.39l.23-.62h.53c3.46-.15 5.97-2.11 8.47-6.7 1.14-2.26 1.95-4.45 2.48-6.68l-.88-20.23-12.99-133.15-14.76-183.77-1.19-24.01c-.29-5.22-.99-9.28-2.08-12.42-.73-1.87-1.79-3.76-3.28-5.82"/><path d="m448.95 649.71-3.1 133.85-1.91-.36 3.1-133.86 1.91.37M544.47 681.86l8.71 112.01-1.89-.01-8.71-112.01 1.89.01"/><path fill="#fff" d="m498.22 317.55 29.44 128.31c31.44 4.8 62.88 9.39 95.27 13.1l-77.07 66.15 29.44 128.04-77.08-88.04-77.08 65 29.44-119.55-77.07-86.72c31.43 3.51 62.87 8.02 95.27 12.95l29.44-119.24"/><path d="m499.16 317.27 29.22 127.34c31.21 4.76 62.41 9.32 94.55 12.99.35.05.56.18.75.42.16.26.24.59.25 1.05-.02.48-.14.78-.41 1.05l-76.49 65.68 29.21 127.06c.18.93 0 1.37-.64 1.62-.34.08-.59-.01-.88-.32l-76.5-87.38-76.5 64.5c-.58.44-.94.31-1.38-.49-.19-.42-.23-.79-.14-1.23l29.21-118.66-76.49-86.03c-.53-.64-.59-1.18-.22-1.92.22-.35.45-.48.81-.47 31.2 3.49 62.4 7.96 94.55 12.84l29.22-118.34c.24-.84.58-1.02 1.24-.68.33.22.52.51.64.97m-.94 4.66-28.5 115.42c-.18.62-.44.83-.94.79-30.44-4.63-60.87-9.03-92.22-12.6l74.6 84.01c.39.48.49.93.36 1.56l-28.49 115.71 74.61-62.9c.42-.31.74-.27 1.16.18l74.61 85.24-28.49-123.95c-.13-.68-.03-1.09.36-1.46l74.6-63.97c-30.43-3.54-60.86-7.96-92.22-12.75-.5-.11-.76-.41-.94-1.08l-28.5-124.2"/><path fill="#1A1A1A" opacity=".2" d="M8 195.25c170.83-85.22 341.03-54.42 513.26-27.97 155.21 23.84 312.16 44.57 470.74-34.53v672c-170.83 85.22-341.03 54.42-513.26 27.97C323.53 808.88 166.58 788.15 8 867.25v-672m31.25 19.39v604.5c306.56-128.26 611.18 96.04 921.5-33.78v-604.5c-306.56 128.26-611.18-96.04-921.5 33.78"/></svg>