<svg xmlns="http://www.w3.org/2000/svg" viewBox="0 0 128 128" style="enable-background:new 0 0 128 128" xml:space="preserve"><path style="fill:none;stroke:#26a69a;stroke-width:5;stroke-miterlimit:10" d="M31.74 41.78 6.38 9.53"/><path style="fill:#00796b" d="m15.92 17.62-3.9 3.1-3.15-4v-.83l5.74.02z"/><path style="fill:#26a69a" d="M4 9.53h5v32.83H4z"/><path style="fill:none;stroke:#26a69a;stroke-width:5;stroke-miterlimit:10" d="M38.56 41.78 63.92 9.53m25.35 32.25L63.92 9.53"/><path style="fill:#00796b" d="m73.47 17.66-3.9 3.1-3.16-4.02h-4.99l-2.98 3.8-4.32-2.59 3.77-4.81h12.09z"/><path style="fill:none;stroke:#26a69a;stroke-width:5;stroke-miterlimit:10" d="M63.92 9.53v32.83m32.18-.58 25.35-32.25"/><path style="fill:#00796b" d="m119 16.69-2.91 3.69-4.3-2.6 1.49-1.89 6.01.02z"/><path style="fill:#26a69a" d="M119 9.53h5v32.83h-5z"/><path style="fill:#80cbc4" d="M4 39.21h120v9.24H4z"/><path style="fill:#26a69a" d="M4 3.92h120v12.11H4z"/><path style="fill:#00796b" d="M4 6.55h120v2.03H4z"/><path style="fill:#26a69a" d="M4 41.12h120v12.11H4z"/><path style="fill:#00796b" d="M4 43.75h120v2.03H4z"/><path style="fill:#00796b" d="M34.6 43.83V40h-5.2v13.23h6.41v-9.4zm71.4.93V40h-5.2v13.23h6.4v-8.47z"/><circle style="fill:#455a64" cx="18.57" cy="33.09" r="8.61"/><circle style="fill:#455a64" cx="38.01" cy="33.09" r="8.61"/><circle style="fill:#607d8b" cx="18.57" cy="33.09" r="6.09"/><circle style="fill:#607d8b" cx="38.01" cy="33.09" r="6.09"/><path style="fill:#82aec0" d="M32 28.25h-7.07c-3.68 0-8.01 1.83-8.01 4.84 0 .99.73 1.79 1.63 1.79.9 0 1.63-.8 1.63-1.79 0-.11-.01-.22-.03-.33 3.05-.34 3.61 1.86 3.61 3.73v26.34h9.14V36.49c0-1.87.82-4.48 3.86-3.73-.02.11-.03.21-.03.33 0 .99.73 1.79 1.63 1.79s1.63-.8 1.63-1.79c.02-3.01-4.3-4.84-7.99-4.84z"/><path style="fill:#c9e3e6" d="M20.17 32.76s2.07-1.1 3.68-.48c1.6.63 1.88 1.79 1.88 3.95v22.49h-2s.02-20.5.02-22.92c0-2.96-3.58-3.04-3.58-3.04z"/><path style="fill:#455a64" d="M36.79 32.76s-2.07-1.1-3.68-.48-1.88 1.79-1.88 3.95v22.49h2s-.02-20.5-.02-22.92c0-2.96 3.58-3.04 3.58-3.04z"/><path style="fill:#82aec0" d="m115 64.97-102 .45 1.35-2.15a9.647 9.647 0 0 1 8.18-4.54h83.05c3.1 0 6.01 1.5 7.83 4.03l1.59 2.21z"/><circle style="fill:#455a64" cx="89.47" cy="33.09" r="8.61"/><circle style="fill:#455a64" cx="108.92" cy="33.09" r="8.61"/><circle style="fill:#607d8b" cx="89.47" cy="33.09" r="6.09"/><circle style="fill:#607d8b" cx="108.92" cy="33.09" r="6.09"/><path style="fill:#82aec0" d="M102.91 28.25h-7.07c-3.68 0-8.01 1.83-8.01 4.84 0 .99.73 1.79 1.63 1.79s1.63-.8 1.63-1.79c0-.11-.01-.22-.03-.33 3.05-.34 3.61 1.86 3.61 3.73v26.34h9.14V36.49c0-1.87.82-4.48 3.86-3.73-.02.11-.03.21-.03.33 0 .99.73 1.79 1.63 1.79s1.63-.8 1.63-1.79c.02-3.01-4.31-4.84-7.99-4.84z"/><path style="fill:#c9e3e6" d="M91.07 32.76s2.07-1.1 3.68-.48c1.6.63 1.88 1.79 1.88 3.95v22.49h-2s.02-20.5.02-22.92c0-2.96-3.58-3.04-3.58-3.04z"/><path style="fill:#455a64" d="M107.69 32.76s-2.07-1.1-3.68-.48c-1.6.63-1.88 1.79-1.88 3.95v22.49h2s-.02-20.5-.02-22.92c0-2.96 3.58-3.04 3.58-3.04z"/><path style="fill:#ffca28" d="M124 118.8H4V71.95c0-2.73 2.21-4.94 4.94-4.94h110.11c2.73 0 4.94 2.21 4.94 4.94v46.85z"/><path style="fill:#78909c" d="M118.38 67.33H11a1.91 1.91 0 1 1 0-3.82h107.38a1.91 1.91 0 1 1 0 3.82z"/><path style="fill:#fff59d" d="M4.04 109.36h119.85v3.3H4.04z"/><path style="fill:#9e740b" d="M113.21 122.2H11.76c-6.8 0-7.77-3.41-7.77-3.41h119.96c.01 0-.06 3.41-10.74 3.41z"/><path style="fill:#e2a610" d="M119.94 65.97H7.57C5.6 65.97 4 67.57 4 69.54v17.15h120V70.03c0-2.24-1.82-4.06-4.06-4.06z"/><path style="fill:#ffca28;stroke:#9e740b;stroke-width:2;stroke-miterlimit:10" d="M94.64 119.85H79.9c-2.09 0-3.79-1.69-3.79-3.79V76.91c0-2.36 1.91-4.27 4.27-4.27h14.26c1.9 0 3.45 1.54 3.45 3.45v40.31a3.45 3.45 0 0 1-3.45 3.45z"/><path style="fill:#37474f" d="M92.54 75.9H81.66c-1.47 0-2.66 1.19-2.66 2.66v21.93c0 1.47 1.19 2.66 2.66 2.66h10.88c1.47 0 2.66-1.19 2.66-2.66V78.56a2.672 2.672 0 0 0-2.66-2.66z"/><path style="fill:#bae2fd" d="M91.67 78.44h-8.86c-1.1 0-2 .9-2 2v18.1c0 1.1.9 2 2 2h8.86c1.1 0 2-.9 2-2v-18.1a2 2 0 0 0-2-2z"/><path style="fill:#37474f" d="M117.72 75.9h-12.88c-1.47 0-2.66 1.19-2.66 2.66v14.93c0 1.47 1.19 2.66 2.66 2.66h12.88c1.47 0 2.66-1.19 2.66-2.66V78.56c0-1.47-1.19-2.66-2.66-2.66z"/><path style="fill:#bae2fd" d="M116.86 78.44H106c-1.1 0-2 .9-2 2v11.1c0 1.1.9 2 2 2h10.86c1.1 0 2-.9 2-2v-11.1c0-1.1-.9-2-2-2z"/><path style="fill:#37474f" d="M70.04 75.9H57.17c-1.47 0-2.66 1.19-2.66 2.66v14.93c0 1.47 1.19 2.66 2.66 2.66h12.88c1.47 0 2.66-1.19 2.66-2.66V78.56a2.674 2.674 0 0 0-2.67-2.66z"/><path style="fill:#bae2fd" d="M69.18 78.44H58.32c-1.1 0-2 .9-2 2v11.1c0 1.1.9 2 2 2h10.86c1.1 0 2-.9 2-2v-11.1a2 2 0 0 0-2-2z"/><path style="fill:#37474f" d="M46.21 75.9H33.33c-1.47 0-2.66 1.19-2.66 2.66v14.93c0 1.47 1.19 2.66 2.66 2.66h12.88c1.47 0 2.66-1.19 2.66-2.66V78.56a2.672 2.672 0 0 0-2.66-2.66z"/><path style="fill:#bae2fd" d="M45.34 78.44H34.48c-1.1 0-2 .9-2 2v11.1c0 1.1.9 2 2 2h10.86c1.1 0 2-.9 2-2v-11.1a2 2 0 0 0-2-2z"/><path style="fill:#37474f" d="M22.37 75.9H9.49c-1.47 0-2.66 1.19-2.66 2.66v14.93c0 1.47 1.19 2.66 2.66 2.66h12.88c1.47 0 2.66-1.19 2.66-2.66V78.56a2.672 2.672 0 0 0-2.66-2.66z"/><path style="fill:#bae2fd" d="M21.5 78.44H10.65c-1.1 0-2 .9-2 2v11.1c0 1.1.9 2 2 2H21.5c1.1 0 2-.9 2-2v-11.1a2 2 0 0 0-2-2z"/></svg>