<svg xmlns="http://www.w3.org/2000/svg" viewBox="0 0 128 128" style="enable-background:new 0 0 128 128" xml:space="preserve"><path style="fill:none;stroke:#b0bec5;stroke-width:4;stroke-linecap:round;stroke-linejoin:round;stroke-miterlimit:10" d="m75.37 28.02 9.65-13.34M52.04 28.02l-9.06-11.61m20.85 7.7.04-18.22"/><path style="fill:#a56c43" d="M123.97 80.77c1.68-12.07-.01-30.26-.16-32.72-.2-3.16-1.91-3.76-3.4-3.79-1.46-.03-2.58.86-2.8 3.99-.26 3.72-.86 16.88-.86 16.88-.17 1.16-.95 1.4-1.21 1.39-.51-.02-1.6-.28-1.55-1.59 0 0-.03-20.3-.31-23.79-.26-3.32-1.88-4.61-3.95-4.61-2.44 0-3.15 1.71-3.37 4.87l-1.44 22.88c-.01.25-.2 1.48-1.19 1.45-1.34-.04-1.36-.83-1.35-1.35 0 0 .25-24.29.07-27.78-.22-4.02-1.63-5.97-4.2-5.99-1.13-.01-3.69.52-3.88 6.21 0 0-1.25 26.53-1.32 27.05-.08.51-.25 1.39-1.06 1.32-1.02-.09-1.08-1.34-1.08-1.34s-.6-17.91-.74-20.8-1.07-4.93-2.99-5.23c-2.9-.46-4.48 1.54-4.73 5.36-.21 3.22-.74 24.42-.87 27.98-.13 3.55-1.31 5.13-1.87 4.14-1.73-3.03-3.36-7.21-8.54-9.01-4.56-1.58-6.96-.05-7.27 2.04-.41 2.75 2.72 4.04 4.73 6.65 4.48 5.83 7.71 15.46 10.21 18.51 4.61 5.62 7.05 6.69 7.96 7.67s1.39 2.86 1.39 4.35v18.42h25.8v-18.78c0-2.85 1.02-4.18 2.39-5.76 4.93-5.66 6.69-12.2 7.59-18.62z"/><path style="fill:#a56c43" d="M64.07 68.33c-.31-2.09-2.71-3.64-7.27-2.04-4.52 1.58-6.74 6.72-8.46 9.52-.59.96-1.82-1.1-1.95-4.65-.13-3.55-.66-24.75-.87-27.98-.25-3.82-1.83-5.81-4.73-5.36-1.92.3-2.86 2.33-2.99 5.23-.13 2.9-.74 20.8-.74 20.8s-.06 1.25-1.08 1.34c-.81.07-.98-.81-1.06-1.32-.08-.51-1.32-27.05-1.32-27.05-.19-5.69-2.75-6.22-3.88-6.21-2.56.02-3.98 1.97-4.2 5.99-.19 3.49.07 27.78.07 27.78.01.52-.01 1.31-1.35 1.35-.99.03-1.18-1.2-1.19-1.45L21.62 41.4c-.22-3.16-.93-4.87-3.37-4.87-2.07 0-3.69 1.29-3.95 4.61-.27 3.49-.3 23.79-.3 23.79.05 1.31-1.03 1.58-1.55 1.59-.26.01-1.04-.23-1.21-1.39 0 0-.6-13.16-.86-16.88-.22-3.13-1.34-4.02-2.8-3.99-1.48.03-3.2.63-3.4 3.79-.15 2.46-1.84 20.65-.16 32.72.89 6.41 2.87 12.45 7.57 18.62.58.7 2.39 2.92 2.39 5.76v18.78h25.8v-18.42c0-1.49.7-3.11 1.39-4.35 4.83-2.55 6.79-6.01 7.96-7.67 2.27-3.23 5.74-12.68 10.21-18.51 2.01-2.61 5.14-3.89 4.73-6.65z"/><path style="fill:#875334" d="M93.05 79.47c2.62 1.66 4.83 3.91 6.43 6.57 1.23 2.05 2.11 4.32 2.6 6.66.12.59.22 1.18.29 1.78.14 1.21-.78 1.48-1.16.33-.66-1.97-1.33-3.92-2.34-5.75-1.39-2.5-3.3-4.67-5.64-6.33-1.49-1.06-3.13-1.92-4.83-2.6-1-.4-7.31-1.53-8.67-4.84 0 0 .44.14.82-.2.47-.43.68-1.23.68-1.23 2.71 2.95 8.16 3.29 11.82 5.61zm21.96-15.53c-.06-1.94-.56-18.84-.93-23.49-.37-4.65-4.49-3.91-4.49-3.91s2.66.48 2.79 3.31c.17 3.53.8 22.03.97 24.35.16 2.33 1.6 2.43 2.2 2.32-.01.01-.49-.64-.54-2.58zm9.32-15.68c-.37-4.65-3.92-4-3.92-4s2.09.57 2.22 3.4c.17 3.53 1.2 23.64 1.76 23.64s.31-18.38-.06-23.04zM91.05 62.23c-.12-2.34-1.03-20.6-1.03-20.6-.23-4.8-4.43-3.72-4.43-3.72s2.53-.38 2.75 3.38c0 0 .45 18.15.75 21.3.31 3.28 2.9 2.6 2.9 2.6s-.82-.63-.94-2.96zm11.59 1.09c-.15-1.87.37-19.19.15-27.52-.16-5.91-4.53-5.19-4.53-5.19s2.5.71 2.69 3.93c.13 2.26.25 28.7.25 28.7s-.11 2.76 2.4 2.49c0 0-.81-.55-.96-2.41zm21.05 19.64s-3.33 8.38-7.66 13.49c-4.57 5.39-7.67 6.35-7.67 6.35s1.28.8 3.44.11c.82.88.9 2.04.9 3.19 0 .81 0 1.62.01 2.42v12.7c0 .92.05 1.85-.01 2.77l1.8.01.27-19.55c.28-2.44 1.64-4.53 2.64-5.85l.52-.64c.06-.07.11-.15.16-.22.05-.06.11-.14.15-.19.02-.02.01-.02-.01-.01 4.64-6.29 5.46-14.58 5.46-14.58zm-29.5 20.49s-2.07-1.71-4.8-2.93c-8.43-3.77-11.56-11.92-12.63-13.99-1.95-3.79-4.02-9.03-7.09-12.52-2.49-2.84-5.67-4.35-5.67-4.35.3 1.89 4.02 4.07 5.97 7.3 3.8 6.29 6.53 13.31 8.8 16.54 1.11 1.57 2.91 4.99 7.44 7.46.67.76 1.16 1.71 1.46 2.68.48 1.55.56 3.18.64 4.8.5-2.02.79-4.1.85-6.19 1.46.52 3.12.94 5.03 1.2zM11.65 66.51c-.91-.2-1.33-.84-1.39-2.06L9.45 48.1c-.12-2.35-.53-3.28-1.87-3.84 0 0 3.26-.22 3.44 3.47 0 0 .99 15.81 1.03 16.43.04.62.1 1.99 1.12 2.2 0 0-.58.35-1.52.15zm10.28-2.73-1.26-22.56c-.06-3.51-1.69-4.27-2.27-4.68 0 0 3.89-.47 4.25 4.68 0 0 1.02 21.31 1.1 22.27.17 1.95 1.04 2.17 1.04 2.17-.77.3-2.62.63-2.86-1.88zm25.85 10.11c0-1.42-1.34-31.34-1.34-31.34-.17-4.77-4.05-4.65-4.05-4.65s1.84.99 1.97 4.18l1.42 32.16c-.01.41.1 1 .22 1.56-16.09 1.89-19.79 13.47-20.38 18.69-.14 1.21.78 1.48 1.16.33 1.55-4.69 3.55-13.89 18.85-16.47 1.1-.19 2.57-.79 3.34-3.66-.57.24-1.19.39-1.19-.8z"/><path style="fill:#875334" d="M34.27 63.45c-.41-2.73-1.38-19.95-1.77-28.27-.14-3.01-.93-3.99-2.78-4.57 0 0 4.11-.79 4.5 4.03.86 10.84 1.46 27.33 1.52 28.2.08 1.2.34 2.2.6 2.26.01 0-1.7.76-2.07-1.65zm-24.13 34.5c-5.12-6.16-5.78-14.99-5.78-14.99s2.39 7.81 6.72 12.91c4.57 5.39 8.88 7.58 8.88 7.58s-4.55.84-9.82-5.5zm48.08-23.94c-3.07 3.5-5.15 8.73-7.09 12.52-1.07 2.08-4.2 10.23-12.63 13.99-2.72 1.22-4.8 2.93-4.8 2.93 2.37-.33 4.36-.9 6.05-1.6-.26.88-.57 2.29-.86 4.59-.8 6.41-.15 17.11-.12 17.56l2-.12c-.01-.11-.67-10.96.11-17.19.41-3.29 1.22-5.34 1.63-6.22 3.92-2.41 5.58-5.49 6.61-6.97 2.27-3.23 5.01-10.25 8.8-16.54 1.95-3.23 5.76-5.41 6.06-7.3.01 0-3.27 1.51-5.76 4.35z"/></svg>