<svg xmlns="http://www.w3.org/2000/svg" viewBox="0 0 128 128" style="enable-background:new 0 0 128 128" xml:space="preserve"><path style="fill:#b1b1b1" d="m39.64 89.66-12.58.56s1.88 20.65 2.16 22.71 1.03 6.1 6.66 6.01 5.44-5.73 5.35-7.04c-.09-1.31-.56-9.95-.56-9.95l8.82 2.16s.09 12.58.19 14.36 1.31 5.54 6.57 5.35 5.73-4.32 5.73-5.35c0-1.03.66-14.45.66-14.45l10.89-.94s-.15 3.94 0 6.66c.09 1.69 2.72 4.5 7.41 4.22 4.69-.28 6.38-2.53 6.29-3.85-.09-1.31.38-11.92.38-11.92l5.07.56s-.38 11.64-.28 12.58c.09.94 2.16 4.32 7.32 4.22 5.16-.09 6.46-2.45 6.57-3.57.19-1.97.94-13.23 1.22-16.05.28-2.82.38-13.7.38-13.7l-68.25 7.43zm67.01-47.21s1.27-.28 3.1.42 5.63 6.9 7.46 7.88c1.83.99 4.65 1.69 5.35 2.25 1.74 1.39 1.41 8.87-2.25 11.26-3.66 2.39-8.17 3.1-8.17 3.1l-9.43-17.03 3.94-7.88z"/><path style="fill:#868686" d="M47.52 4.58C31.12 1.27 25 15.85 25 15.85s-11.83-4.5-15.77 9.01c-3.2 10.98 9.01 17.18 9.01 17.18S4.58 43.25 5.01 57.75c.27 9.15 6.48 11.45 6.48 11.45s-5.72 7.44-.84 17.6c5.07 10.56 16.61 10 16.61 10s1.42 9.49 14.5 13.23c11.83 3.38 17.74-1.55 17.74-1.55s4.93 4.36 13.51 1.97c7.08-1.97 8.17-8.02 8.17-8.02s8.16 3.93 17.03-.28c8.31-3.94 9.29-12.39 9.29-12.39s11.54-3.66 11.83-18.72c.26-13.79-8.31-19.01-8.31-19.01s4.36-10.7-5.49-18.72c-8.08-6.58-15.2-3.52-15.2-3.52s-.99-5.49-7.18-6.9-9.43 1.97-9.43 1.97-.59-3.68-4.08-6.05c-3.94-2.67-7.6-1.13-7.6-1.13s.12-10.14-14.52-13.1z"/><path style="fill:#fff" d="M48.37 7.68c-15.86-2.96-21.12 11.28-22.24 11.4-1.27.14-9.24-6.08-13.94 5.91-4.09 10.43 10.56 16.2 10.13 17.89-.37 1.47-14.79 1.05-14.41 14.31.24 8.37 6.86 10.45 7.04 11.73.14.99-6.3 7.02-1.69 16.24 4.41 8.82 14.99 8.02 16.61 9.1 1.63 1.09-.19 7.41 10.32 11.83 12.83 5.38 17.62-1.26 19.05-1.5 1.84-.31 2.63 5.07 12.2 3.38 7.86-1.39 7.1-8.04 8.54-8.73 1.44-.69 6.1 5 16.14.94 7.88-3.19 7.98-10.23 8.82-11.4 1.1-1.52 10.62-4.39 11.12-18.16.52-14.27-7.83-17.25-8.02-18.4-.19-1.13 3.38-9.57-4.5-16.14-7.32-6.1-12.95-1.88-14.08-2.63-.5-.33-.19-6.1-7.04-7.6-5.68-1.24-9.39 3-10 2.67-1.36-.73-1.06-4.09-4.26-6.26-3.61-2.45-6.87-.5-7.85-1.06-.84-.5 1.73-10.97-11.94-13.52z"/><path style="fill:#b1b1b1" d="M28.47 33.82s-4.94 3.24-10.14 4.04c-5.54.84-13.89-1.6-14.45.38s2.82 7.13 8.26 8.92c5.04 1.65 7.13.09 7.13.09s1.08 1.92.42 4.74-2.72 7.17-2.3 11.5c.47 4.79 4.34 11.72 13.42 13.61 11.26 2.35 19.37-3.51 21.68-8.73 2.86-6.48.99-11.03 4.46-14.12 3.47-3.1 7.93-3.43 11.78-3.24 3.85.19 7.6-1.92 8.73-2.96 1.13-1.03 1.69-3.05 1.41-3.43-.28-.38-2.91-.19-5.63-1.5-2.72-1.31-7.32-3.94-7.32-3.94s-3.24 3.33-8.02 2.67c-4.79-.66-6.34-5.77-6.34-5.77s-4.97 7.6-13.7 5.63c-7.44-1.69-9.39-7.89-9.39-7.89z"/><path style="fill:#2b2b2b" d="M53.28 48.73c-.63 2.6-3.22 3.5-5.31 2.49-1.89-.91-2.81-3.18-1.94-5.36s3.16-3.31 5.1-2.53c1.94.78 2.7 3.12 2.15 5.4zm-23.62-4.26c-.62 2.48-2.9 3.91-4.79 2.99-1.69-.82-2.49-2.96-1.65-5.04.84-2.08 2.83-2.94 4.58-2.24s2.41 2.12 1.86 4.29zm2.19 16.9s6.34-3.1 7.04-1.22c.7 1.88-1.88 3.33-2.91 3.99-1.03.66-3.38 1.22-3.38 1.22s.19 3.66 2.06 3.75c1.88.09 3.24-2.49 4.46-1.17 1.22 1.31-.47 4.04-3.38 4.04s-4.5-2.06-4.5-2.06-1.91 1.13-3.57.7c-2.58-.66-3-3.57-2.16-4.22s1.45 1.41 2.91 1.31c1.45-.09 1.88-2.67 1.88-2.67s-1.69-.8-3.1-2.49c-.81-.97-2.61-3.36-1.69-4.32 1.51-1.56 6.34 3.14 6.34 3.14z"/></svg>