<svg xmlns="http://www.w3.org/2000/svg" viewBox="0 0 1000 1000"><path fill="#36f" d="M8 195.25c170.83-85.22 341.03-54.42 513.26-27.97 155.21 23.84 312.16 44.57 470.74-34.53v672c-170.83 85.22-341.03 54.42-513.26 27.97C323.53 808.88 166.58 788.15 8 867.25v-672"/><path fill="red" d="M500 500C337.73 585.69 174.81 670.08 8 867.25c170.83-85.22 341.03-54.42 513.26-27.97 155.21 23.84 312.16 44.57 470.74-34.53C829.5 774.88 667.53 640.34 500 500"/><path fill="#ff0" d="M8 506.05v50.4c170.66-93.88 340.69-71.93 512.73-54.31 155.4 15.92 312.52 28.73 471.27-58.59v50.4c-170.65 76.39-340.68 37.04-512.73 1.79C323.89 463.9 166.75 434.99 8 506.05"/><path fill="#ff0" d="M500 500C338.25 378.31 174.87 253.69 8 237.25v-42c13.54-6.75 27.06-12.8 41-18.33C197.9 229.09 346.49 361.86 500 500m0 0c148.8-87.82 298-174.56 451-348.92a525.292 525.292 0 0 0 41-18.33v42C829.43 353.03 667.34 425.91 500 500M500 500l-24.6-339.8 49.2 7.6L500 500"/><path fill="#1A1A1A" opacity=".2" d="M8 195.25c170.83-85.22 341.03-54.42 513.26-27.97 155.21 23.84 312.16 44.57 470.74-34.53v672c-170.83 85.22-341.03 54.42-513.26 27.97C323.53 808.88 166.58 788.15 8 867.25v-672m31.25 19.39v604.5c306.56-128.26 611.18 96.04 921.5-33.78v-604.5c-306.56 128.26-611.18-96.04-921.5 33.78"/></svg>