<svg xmlns="http://www.w3.org/2000/svg" viewBox="0 0 128 128" style="enable-background:new 0 0 128 128" xml:space="preserve"><path style="fill:#6c6e70" d="M26.18 20.3C3.13 42.61-.16 79.97 22.07 104.07s61.93 20.62 80.82 2.91c15.6-14.63 18.31-25.12 18.94-40.28.57-13.86-2.44-28.29-14.23-40.94C94.52 11.74 78.07 6.21 63.22 6.32c-15.09.11-27.82 5.06-37.04 13.98z"/><path style="fill:#6c6e70" d="M41.81 13.49s-3.74-6.86-5.4-8.31C34.75 3.73 23.78.66 14.18 9.75c-7.69 7.27-6.76 18.29-5.3 19.75s7.8 6.22 7.8 6.22l4.36-7.06-4.99-4.36s.62-6.23 4.99-9.76 10.18-2.91 10.18-2.91l3.53 4.57 7.06-2.71zM87.6 114.98s4.16 5.86 5.51 7.08c1.03.93 11.85 5.82 21.58-3.26 11.6-10.83 6.92-20.62 5.46-22.08-1.46-1.46-6.07-5.55-6.07-5.55l-4.56 6.28s3.99 3.61 4.56 4.95-.94 7.41-4.65 10.33-8.63 4.09-10.2 2.97c-1.57-1.12-4.54-5-4.54-5s-7.88 3.72-7.09 4.28z"/><path style="fill:#302f2f" d="M65.46 10.52c-12.35-1.16-31.03 4.17-42.85 19.6-7.13 9.31-12.41 22.08-11.3 38.17 2.71 39.11 35.14 49.72 54.82 49.19 23.54-.63 53.22-20.3 51.65-54.64-1.58-34.61-28.33-50.06-52.32-52.32z"/><path style="fill:#d28333" d="M24.15 35.16C8.49 57.8 12.97 85.78 32.27 102.12s49.27 16.34 69.25-4.83c15.65-16.58 18.96-45.04-3.22-68.4-14.19-14.95-52.14-25.56-74.15 6.27z"/><path style="fill:#f2ab47" d="M41.03 27.44C31.9 33.45 16.46 50.37 21.32 71.3c4.65 20.05 17.83 36.55 44.63 36.99 26.8.44 40.98-23.59 41.87-40.2s-8.09-36-26.14-43.31-32.56-2.65-40.65 2.66z"/><path style="fill:#a05c3c" d="m56.43 45.47-3.05 1.26s-2.26 6.21-.35 7.02c1.92.8 4.2-.62 5.5-1.54s7.29-6.24 8.71-7.66 4.08-2.84 4.02-3.89c-.06-1.05-.43-1.73-1.98-2.41-1.54-.69-12.85 7.22-12.85 7.22z"/><path style="fill:#c67c5d" d="M60.2 34.96c-1.95.61-4.02 5.13-4.94 7.23-.93 2.1-3.21 6.18-1.11 6.98s5.01-1.48 7.35-3.77c2.35-2.29 4.94-5.38 6.12-6.12 1.17-.74 1.67-1.05 1.67-1.05s-3.58-2.29-5.5-3.03c-1.92-.73-2.6-.55-3.59-.24z"/><path style="fill:#a05c3c" d="M36.37 35.45s.04-.43 1.52-.12 1.24 1.67 1.42 3.15c.19 1.48.62 7.17-.12 8.59s-1.33 1.7-1.91 1.96c-.74.33-2.54.27-2.85.08s-1.11-1.42-1.11-1.98-.8-6.12-.8-6.12l3.85-5.56z"/><path style="fill:#c67c5d" d="M32.46 37.93c-.69.86-.62 3.15-.06 5.62s.93 3.58.93 3.58 2.66-.62 3.46-2.35c.8-1.73.06-9.58.06-9.58s-1.73.43-2.4 1.3c-.43.55-1.25.5-1.99 1.43z"/><path style="fill:#a05c3c" d="M49.7 72.28s-1.19 2.68.22 3.65c1.41.98 3.9 2.06 7.66 2.64 3.76.58 8.17.67 9.62.07 1.66-.69 2.35-2.17 2.31-3.87-.04-1.7-1.45-3.18-2.39-3.83-.94-.65-5.28-3.11-5.28-3.11L49.7 72.28z"/><path style="fill:#c67c5d" d="M54.25 66.03c-2.39.52-3.6 3.16-3.9 4.12-.29.9-.69 2.17-.69 2.17s2.28 2.39 5.35 3.15c3.07.76 4.37.9 4.95.87.58-.04 4.48-1.23 4.66-2.46s-1.66-5.21-2.6-5.93-2.55-1.36-4.05-1.63c-1.4-.26-2.23-.62-3.72-.29z"/><path style="fill:#a05c3c" d="M86.04 47.98s-1.19-.11-1.82.8c-.36.51-.22 2.23.72 2.87.94.63 2.26.8 3.28.61 1.28-.24 3.93-1.85 5.41-2.76 1.71-1.05 3.37-1.99 3.64-3.06.28-1.08.19-1.77.03-2.07-.46-.83-11.26 3.61-11.26 3.61z"/><path style="fill:#c67c5d" d="M90.89 43.42c-1.49 1.09-2.4 1.68-3.75 2.79-.81.66-2.7 2.29-2.7 2.29s1.1 1.71 3.61 1.66c2.51-.06 5.41-2.43 6.34-3.28s2.95-2.48 2.95-2.48-.4-1.46-2.73-1.93c-1.62-.34-2.78.27-3.72.95z"/><path style="fill:#a05c3c" d="M88.4 70.22s3.38.69 5.33 2.45c1 .9 3.21 5.12 2.91 6.69-.3 1.57-.92 2.95-3.1 3.29-2.94.45-4.71-1.17-4.71-1.17l-.43-11.26z"/><path style="fill:#c67c5d" d="M87.27 70.51c-1.55.76-1.72 3.21-.71 7.17s3.18 4.26 3.85 4.45c.67.19 3.74-1.05 3.77-2.69.04-1.64-2.95-6.65-3.89-7.73-.93-1.09-1.42-1.99-3.02-1.2z"/><path style="fill:#a05c3c" d="m37.3 87.4-.87 4.05s.9 3.08 2.93 3.08 3.69-1.88 4.05-3.4c.36-1.52-2.63-9.62-3.86-10.96-.79-.88-2.25 7.23-2.25 7.23z"/><path style="fill:#c67c5d" d="M37.99 79.22c-.69.04-2.53 1.05-3.84 3.04-1.3 1.99-.94 4.16-.36 5.14.58.98 1.59 1.88 1.59 1.88l1.05 2.17s2.61.98 3.76.07 1.23-6.4.14-9.55c-1.07-3.15-1.69-2.78-2.34-2.75z"/><path style="fill:#97a63b" d="M39.22 97.32c-.82.89-.33 1.9 1.08 4.18 1.66 2.7 3.23 3.06 4.58 2.7 1.35-.36 1.8-3.46-.49-6.6-1.67-2.3-4.63-.87-5.17-.28zm58.23-15.41c-1.62.72-3.77 4.27-3.32 5.71.45 1.44 2.61 1.93 2.92 1.93.31 0 4.31-1.53 5.08-3.73.76-2.2-.22-3.41-1.26-3.95-1.13-.59-2.84-.23-3.42.04zm-3.37-18.43c-1.48.17-2.43 2.11-1.84 4.36s2.11 4 3.59 3.95c1.48-.04 2.52-.72 1.84-3.41-.67-2.69-1.21-5.16-3.59-4.9zM64.92 19.81c-.76.42-2.34 3.23-1.71 5.62s1.62 2.43 2.97 2.25c1.35-.18 2.29-2.38 2.25-4.22s-1.58-4.73-3.51-3.65zm-14.35.12c-.56 1.29-.36 2.83 1.53 4.22 1.89 1.39 3.71 1.12 4.18.99.81-.22 3.46-2.02 2.29-4.13s-3.1-1.35-4.09-1.53c-.99-.18-3.06-1.52-3.91.45zm-1.38 8.42c-1.3.36-1.57 2.25-1.3 2.88.27.63 1.26 2.02 2.97 2.97 1.71.94 4.18 1.17 4.76-.45.58-1.62.57-2.83-.49-3.95-1.49-1.59-3.83-2.03-5.94-1.45zm-7.23 8.85c-.17.87.83 3.93 2.34 5.12 1.75 1.39 3.59.76 3.77-1.84s-1.35-5.12-2.74-5.44c-1.4-.31-3.15.99-3.37 2.16z"/><path style="fill:#684d42" d="M77.25 101.16c-.91 2.07.04 4.48 3.07 4.96 3.03.48 4.76-3.55 2.83-5.69-1.61-1.77-5.01-1.29-5.9.73zm24.46-56.63c-2.02.83-2.08 3.35-1.53 4.52.61 1.29 2.1 2.22 4 1.53 1.45-.53 2.38-2.7 1.49-4.44s-2.59-2.17-3.96-1.61zM67.97 32.2c-1.29 1.68-.93 3.67.77 4.52 1.7.85 3.75-.12 4.32-1.57.57-1.45.36-2.83-1.05-3.67-1.54-.93-3.23-.33-4.04.72zm-29.16-2.26c-1.56 1.39-1.57 3.79-.48 4.88 1.29 1.29 3.83 1.09 5.09-.08s1.33-2.83.04-4.4c-1.24-1.49-3.16-1.73-4.65-.4zm14.41 27.13c-.83 1.3-.89 3.43 1.17 4.56 1.49.82 3.51.4 4.4-1.09.89-1.49.48-3.47-.93-4.32-1.41-.85-3.51-.93-4.64.85zM40.1 67.48c-1.27 1.27-1.45 4.44 1.01 5.49s4.2.44 5.09-1.45c.98-2.09-.16-4-1.7-4.64-1.95-.83-3.51-.29-4.4.6z"/><path style="fill:#ea4333" d="M72.15 90.93c-.47.86-.04 3.67-.08 4.2-.04.52.85 1.33 1.29 1.29.44-.04 4.2.4 4.88-1.13.69-1.53 1.34-4.58-.89-5.89-1.77-1.05-4.76.72-5.2 1.53zm5.89-26.84c-.24 1.49 2.5 4.96 4.92 3.92s2.14-5.93.81-6.74c-1.33-.81-3.35.2-4.12.57-.76.35-1.44 1.19-1.61 2.25zM88.65 54c-1.45 1.58-.69 4.24.28 5.09.97.85 3.71.73 4.64.52.93-.2 1.98-1.61 1.82-2.79s-.32-3.75-2.02-4.4c-1.41-.53-3.38.13-4.72 1.58zm-17.43-8.88c-.44.87-.89 4.76.81 5.65 1.7.89 5.65-1.09 5.85-2.02.2-.93-.16-2.62-.52-3.47-.36-.85-.89-2.34-1.9-2.54-1.01-.2-3.6 1.09-4.24 2.38zm-42.19-8.15c-.98-.33-4.12 1.29-4.44 1.98s-.36 5.01.4 5.61c.77.61 2.91.3 3.63-.04.77-.36 2.22-1.13 2.26-2.46.05-1.34-.15-4.53-1.85-5.09zm3.68 33.21c-1.73.18-3.11 2.83-3.11 3.55s.81 2.58 1.61 3.23c.81.65 1.57 1.01 2.62.73s3.07-2.14 2.87-3.59c-.19-1.45-2.41-4.08-3.99-3.92z"/><path style="fill:#d28333" d="M62.29 84.82c.17 1.26 1.7 2.14 4.96.76 2.43-1.03 3.66-1.88 3.26-2.86-.4-.98-1.88-1.52-4.78-.91-2.72.58-3.58 1.96-3.44 3.01zm9.64-8.84c.13 1.49.36 3.41 1.85 3.3 1.49-.11 1.6-2.32 1.56-3.51-.07-2.03-.83-3.48-2.1-3.33-1.27.13-1.45 1.87-1.31 3.54zm-8.48 20.07c.38 1.06 1.67 1.49 3.44.91 1.78-.58 2.79-1.09 2.46-2.21-.33-1.12-3.19-1.3-3.99-1.05-.78.25-2.27 1.33-1.91 2.35zm19.93-5.73c-1.37.15-1.92 1.67-1.59 4.09.33 2.43.69 4.24 2.03 4.24 1.34 0 2.17-2.86 1.81-4.85-.37-2.03-.95-3.62-2.25-3.48zM29.66 85.1c-1.19.44-.99 2.22.31 4.2 1.3 1.97 2.53 2.59 3.36 2.13.83-.46.37-2.68-.49-4.14-.87-1.45-1.61-2.78-3.18-2.19zm.27-28.3c-1.39.03-2.04 2.22-1.94 4.1.09 1.88.52 3.67 2.01 3.64 1.48-.03 1.73-2.01 1.7-4.14-.04-2.12-.38-3.63-1.77-3.6zm5.93.99c-1.33.03-1.97 2.19-1.94 4.38s.52 2.9 1.67 2.99 1.7-1.85 1.85-3.58c.15-1.73-.04-3.83-1.58-3.79zm-7.71-10.43c-.61.5-1.14 2.93-.25 4.47.89 1.54 2.56 3.52 3.98 2.78 1.42-.74-.25-4.01-.89-5.25-.65-1.23-1.55-3.05-2.84-2zm18.29-3.03c-1.29.2-1.66 1.43-1.23 3.55.4 2.01 1.08 3.05 2.22 3.02 1.14-.03 1.45-2.56 1.33-3.92-.11-1.21-.53-2.93-2.32-2.65zm5.93-7.06c-1.53-.5-2.59.37-3.02 3.15-.44 2.81.12 3.92.96 4.23.83.31 2.19-.74 3.09-3.58.62-2.01.57-3.28-1.03-3.8zm5.46-5.56c.93.83 2.25-.37 3.3-1.57 1.05-1.2 1.51-2.13.65-2.81s-2.25-.15-3.27 1.11-1.64 2.41-.68 3.27zm34.01 3.61c-1.18.08-1.88 1.08-1.82 3.24.06 2.16.56 2.78 1.57 2.81 1.02.03 1.67-1.17 1.76-2.96.09-1.79-.22-3.18-1.51-3.09zM82.7 52.39c-1.27.09-1.42 1.57-1.27 3.24.15 1.67.83 2.75 1.6 2.65.92-.11 1.82-.96 1.73-3.27-.06-1.63-.94-2.71-2.06-2.62zm-15.3-1.12c-.9 1.07-.71 1.67 1.17 3.55s3.15 2.38 4.38 1.14c1.23-1.23-.31-2.62-1.6-3.67-1.3-1.05-3-2.16-3.95-1.02zm9.93 1.33c-.76.18-2.07 1.48-1.91 3.12.15 1.64 1.67 4.69 2.65 4.44.99-.25 1.57-.93 1.11-4.23-.32-2.3-.92-3.54-1.85-3.33z"/><path style="fill:#768040" d="M44.35 85.8c.03 1.12 2.23 2.02 5.9 1.37 5.51-.98 10.04-4.26 9.64-5.9-.39-1.59-5.17.56-8.06 1.36-2.89.8-7.52 1.44-7.48 3.17zm3.38 5.91c-.36.78-.64 2.17.2 2.57.84.4 4.18.48 6.59.4 2.41-.08 3.78-.28 5.5-.64 1.72-.36 8.6-3.33 8.68-4.1.08-.76-.64-2.57-2.17-2.77-.64-.08-3.11 1.6-8.84 2.69-5.7 1.08-9.48.8-9.96 1.85zm4.58 9.77c-.21 1.12.44 2.17 2.61 2.37 2.17.2 7.31.64 11.97.28 4.47-.35 8.47-2.33 9.4-3.17.92-.84 1-2.01-.28-2.53-1.29-.52-4.72.73-10.74 1.33-3.21.32-6.17.52-10.15.64-1 .03-2.53-.4-2.81 1.08zM74.8 83.79c.6 1.2 4.41-.36 6.82 1.13 2.14 1.32 6.75 4.19 9.13 7.75.77 1.16 2.41 1.61 3.25.88 1.04-.89.56-3.17-.92-5.02-1.49-1.85-4.9-4.5-8.15-6.1-3.25-1.61-5.7-2.05-6.91-1.93-.88.09-2.41 1.29-2.85 1.69-.45.4-.8.75-.37 1.6zm22.57-32.85c-1.3.41-.52 2.25-.32 3.25s1.33 4.62 1.81 7.79.84 8.55.64 9.88c-.2 1.33.04 2.09.88 2.33.84.24 1.89-.44 2.21-1.93s.56-8.6 0-13.05c-.55-4.37-2.81-9.03-5.22-8.27zm-35.02 6.27c-.28 1.38 1.16 1.45 2.61 2.93 1.45 1.49 3.49 2.77 5.34 4.78 1.85 2.01 3.25 3.49 3.7 3.94.44.44 2.09 1.89 2.09 1.89s1.16 1.73 2.05 3.17 1.45 2.41 2.33 2.13c.88-.28.64-2.61.24-3.98s-1.89-5.06-6.06-9.48-7.19-7.03-9-6.99c-1.82.04-3.06.44-3.3 1.61zM41.1 47.53c-1.12-.19-1.89.56-2.29.96s-1.04 2.45-.88 3.21c.16.76 1.92 3 5.34 6.47 2.93 2.97 5.66 4.46 6.51 4.9.84.44 2.49.76 2.93-.44.29-.78-.92-1.57-1.41-2.17-.48-.6-2.65-3.17-4.5-5.7-1.84-2.54-4.49-7.03-5.7-7.23zm-16.71-3.22c-1.21-.26-2.36 1.48-2.69 3.74-.44 2.97-.16 8.23.48 12.81.53 3.74 1.73 7.35 2.97 9.36.83 1.33 1.81 2.37 2.45 2.01.64-.36 1.04-1.12.52-2.97s-2.01-6.83-2.49-11.81-.32-8.55-.28-9.56c.05-1.01.93-3.18-.96-3.58zm-5.02 23.54c-.52.22-2.13 2.05-1.93 2.69.2.64 2.05 3.82 4.78 6.83 2.73 3.01 5.82 5.78 6.79 5.66s2.05-.6 2.09-1.45c.04-.84.04-1.73-.48-2.21s-3.94-2.09-6.27-4.78-3.85-7.22-4.98-6.74zm53.5-42.21c-.77.5-1.57 1.85-.56 3.25 1 1.41 2.25 3.25 4.26 6.35 2.01 3.09 3.49 7.27 3.86 7.91.36.64 1.37 1.12 1.93.4s1-2.13.6-3.98c-.34-1.58-2.41-6.23-3.53-8.11s-3.53-5.26-4.34-5.7-1.66-.49-2.22-.12zm8.32 1.32c-.79.65-.24 1.69.44 2.65s1.97 2.77 2.85 5.14 1.46 4.52 1.61 5.06c.24.88.8 1.49 1.45 1.33.64-.16 1.03-.44.96-1.69-.04-.8-.58-3.69-1.29-5.7-1.04-2.97-3.65-5.74-4.14-6.27-.48-.52-1.2-1.08-1.88-.52z"/></svg>