<svg xmlns="http://www.w3.org/2000/svg" viewBox="0 0 128 128" style="enable-background:new 0 0 128 128" xml:space="preserve"><path style="fill:#865b52" d="M32.11 27.88c.81-1.96-1.62-8.94-4.01-9.22-2.68-.32-6.26 5.07-5.91 11.12.23 4.09 9.07.14 9.92-1.9zm.91 46.67s-1.55 2.82-4.22 4.36c-2.67 1.55-9.43 4.79-9.43 4.79l3.1 4.65 19.01-2.25c-.01 0-3.81-16.19-8.46-11.55zm11.69-29.56 6.34-10.56s1.83 8.73 2.96 11.12 3.52 7.04 5.77 7.74c2.25.7 7.18-1.27 15.2 2.82s17.03 15.49 17.6 26.61-1.97 13.37-.7 15.06c1.27 1.69 8.31 0 9.85-6.19s-.42-14.92-3.38-21.26c-2.96-6.34-6.9-12.67-3.52-22.24s15.2-12.81 20.98-11.83c5.77.99 8.11 3.65 8.17 7.04.14 8.45-10.84 5.49-10.7 14.78.14 9.29 8.63 19.01 7.32 31.96-1.41 13.94-11.12 20.98-24.5 21.82-12.64.8-24.5-2.82-24.5-2.82l-8.87-39.7-17.46-12.67-.56-11.68z"/><path style="fill:#fee5c1" d="M59.25 55.88c0 3.38 12.79 7.56 18.49 13.51 10.51 10.98 9.67 23.74 11.54 22.24.43-.34 2.87-13.2-7.6-25.43-7.78-9.1-22.43-10.87-22.43-10.32z"/><path style="fill:#c49166" d="M12.05 83.66s-4.05 4.45-.94 8.63c3.58 4.83 10.61.94 10.61.94l-9.67-9.57z"/><path style="fill:#ad3421" d="M12.43 81.17s-2.71 3.54.36 7.7c3.19 4.32 6.15 6.66 9.95 6.15 3.8-.52 4.93-2.82 4.97-5.54.06-2.73-15.28-8.31-15.28-8.31z"/><path style="fill:#d97755" d="M17.21 78.02c-2.07 0-4.46.99-5.3 3.75-1.13 3.7 2.06 6.38 2.82 7.23s2.16 2.02 4.69 2.02 6.66-4.74 6.66-4.74-.43-3.6-3.3-5.99c-2.41-2.01-4.31-2.27-5.57-2.27z"/><path style="fill:#865b52" d="M11.15 88.54c-.23 1.17-.09 2.06.61 2.21s.56-.94.7-1.64c.14-.7.28-1.7-.23-1.83-.78-.21-.97.7-1.08 1.26zm2.26 2.72c-.09 1.08-.19 1.83.52 1.88s.59-1.04.62-1.62c.04-.73.11-1.55-.15-1.71-.73-.47-.92.61-.99 1.45z"/><path style="fill:#c49166" d="M34.48 92.34s-.38 3.94 1.97 7.41 5.54 5.82 5.35 6.19-4.04.84-9.01 1.22-7.04.19-8.54 1.69c-1.5 1.5-3.85 4.79-2.06 5.91s8.07.75 10.14.56 7.6-.84 7.6-.84-2.91 3-1.31 4.32c1.6 1.31 5.54 1.03 8.45.94 2.91-.09 15.67-.84 20.93-1.03s9.48.28 10.79-1.88c1.31-2.16-.47-3.47-.47-3.47s6.85-3 6.76-15.39c-.09-12.39-4.88-22.01-14.83-29.85-7.45-5.87-15.2-7.7-19.33-14.17s-3.38-9.2-3.38-9.2 3.94-5.26 4.22-11.26c.28-6.01-.49-12.74-4.22-13.51-2.6-.54-6.66 2.82-8.73 6.29-2.06 3.47-7.13 10.89-7.13 10.89l-.94 29.09 6.85 14.08s-.56 1.69-1.41 2.06c-.84.38-9.48 0-11.17.09-1.69.09-5.95 1.47-6.16 4.32-.19 2.55-.13 2.63 2.03 3.1 2.15.47 13.6 2.44 13.6 2.44z"/><path style="fill:#865b52" d="M19.2 85.8c0 .48 1.41.38 2.63.05s2.86-.56 2.82-1.31c-.05-.75-1.83-.59-2.86-.19-1.32.51-2.59.75-2.59 1.45zm4.3 1.47c0 .86-1.37.68-2.3.89-.84.19-2.35.61-2.35-.05s1.27-.89 2.16-1.08c.89-.18 2.49-.65 2.49.24z"/><path style="fill:#fdc397" d="m38.51 92.71 8.94-3.1 7.6-11.26 5.28 4.08s-3.66 3.73-4.08 7.25c-.56 4.64.63 9.43 2.67 12.32 2.04 2.89 5.35 7.67 5.35 7.67s-3.59.92-7.6.28c-3.57-.56-10.17-3.91-13.55-8.06-2.18-2.67-3.69-4.74-4.61-9.18z"/><path style="fill:#865b52" d="m53.48 77.18 2.21 1.64s-2.49 8.4-9.1 12.15c-4.59 2.6-9.18 2.67-17.93 1.36-7.23-1.08-8.95-2.44-9.47-2.86-.6-.49.88.38 3.18.61 2.3.23 9.29 1.22 12.06 1.45s6.73-.25 9.76-1.92c2.63-1.45 4.88-3.99 7.04-7.56 1-1.64 2.25-4.87 2.25-4.87zm-28.76 32.57c-.51-.21-1.45 1.24-2.18 2.57-.54 1-1.04 2.11-.48 2.45.56.34 1.48-1.23 1.93-2.08.45-.86 1.72-2.54.73-2.94zm.65 2.49c-.68 1.02-1.76 2.84-1.16 3.22s1.65-1.26 2.25-2.15c.6-.88 1.83-2.53 1.16-2.87-.67-.34-1.58.79-2.25 1.8zm17.14 1.8c-.9-.27-2.18 1.16-2.71 2.18-.53 1.02-.74 2.86-.18 3.2.81.49.99-1.72 1.79-2.82.61-.8 2.26-2.21 1.1-2.56zm.02 2.76c-.55 1.41-.67 3.05.04 3.16.8.12.78-1.45 1.46-2.72s2.08-2.62 1.46-2.9c-.72-.34-2.13.35-2.96 2.46z"/><path style="fill:#fdc397" d="M39.92 58.96c3.52 2.02 4.72 4.54 4.72 4.54s-1.27 2.18-2.67 4.36c-1.41 2.18-2.69 8.31-3.1 10.07-.92 3.91-2.7 4.6-2.7 4.6s-1.98-3.33-2.97-5.02c-.88-1.5-2.36-5.14-2.99-5.35-.63-.21-6.46 2.15-10.37 2.49-4.27.37-7.32-2.06-7.32-2.06l-3.14-4.15 2.25-4.65 5.56-3.73 13.94-4.15c-.01-.01 4.32.48 8.79 3.05z"/><path style="fill:#9f7157" d="m34.85 46.89 1.06-1.69s-1.71-5.22-.53-10.24c1.23-5.21 3.06-7.95 3.06-7.95s-8.24-3.27-19.64 4.82S8.24 50.97 7.96 54c-.28 3.03-.41 4.73-1.48 5.63-2.01 1.69-2.5 3.24-2.22 4.5.28 1.27 4.82.35 4.82.35l2.53-.7 12.67-7.53 10.57-9.36z"/><path style="fill:#ffd2b2" d="M45.6 27.3c-.65-.11-3.85 2.83-4.74 6.34-1.08 4.27-.44 7.15 1.69 7.6 2.21.47 3.98-3.09 4.5-5.68.52-2.54-.04-8.03-1.45-8.26z"/><path style="fill:#f69c9c" d="M7.31 62.82c-1.74.21-3.33.56-3.05 1.88.28 1.31 1.88 2.63 2.35 3.1.47.47 2.77.63 2.77.63s2.87-3.88 2.85-4.75c-.04-1.31-1.87-1.24-4.92-.86z"/><path style="fill:#ffeac6" d="M35.91 45.2c-.13-.79-11.16-1.41-15.32 3.54-3.71 4.41-2.73 7.67-3.86 9.44-1.99 3.12-3.79 4.68-3.65 4.87.16.22 2.21-.54 4.46-1.17 1.87-.53 4.33-.17 6.69-.14 2.71.04 7.37-.51 9.96-5.06 2.98-5.28 1.98-9.86 1.72-11.48z"/><path style="fill:#100d0f" d="M23.73 52.17c-1.21 1.08-1.59 3.01-1.13 4.46.39 1.22 1.94 2.83 4.41 2.49 3.43-.47 4.41-4.18 2.82-6.57-.84-1.27-3.47-2.73-6.1-.38z"/><path style="fill:#494949" d="M8.35 67.58s2.48-5 3.88-3.68c.9.84-1.56 4.53-1.56 4.53s1.67 2.73 3.74 2.91c2.08.18 4.35-1.61 4.99-2.06.63-.46 1.62-1.37 2.46-1.06s1.15 1.25-.06 2.44c-1.13 1.1-4.96 3.73-8.39 2.77-2.85-.8-4.86-3.41-5.77-4.12-.92-.7-4.27-3.1-3.24-4.19.69-.72 3.95 2.46 3.95 2.46z"/></svg>