<svg xmlns="http://www.w3.org/2000/svg" viewBox="0 0 128 128" style="enable-background:new 0 0 128 128" xml:space="preserve"><path style="fill:#aeb0b0" d="M49.65 13.04c-.37-1.01-1.99-2.13-3.74-.98-1.36.9-1.28 2.51-.95 3.57s34.82 99.92 35.06 100.4c.24.48 1.62 1.5 3.06.96s2.22-1.98 2.04-2.7c-.17-.72-34.99-99.94-35.47-101.25z"/><path style="fill:#c8c8c8" d="M81.66 115.48c-.41 0-.8-.26-.94-.67L45.67 14.44a.996.996 0 1 1 1.88-.66L82.6 114.15a.996.996 0 0 1-.61 1.27.96.96 0 0 1-.33.06z"/><path style="fill:#aeb0b0" d="M81.55 15.23c.4-.98.5-2.69-1.57-3.49-2.07-.8-3.19.26-3.46 1-.27.73-34.75 99.52-35.12 100.58-.37 1.06.1 3.07 1.71 3.53 1.61.46 3.14-.24 3.38-.84.54-1.37 34.78-100.1 35.06-100.78z"/><path style="fill:#c8c8c8" d="M43.66 114.44a.96.96 0 0 1-.33-.06.988.988 0 0 1-.61-1.27l34.81-99.57c.18-.52.75-.8 1.27-.61s.8.75.61 1.27L44.6 113.77c-.14.42-.52.67-.94.67z"/><path style="fill:#9a9a9a" d="M68.54 52.52s6.77-.32 14.14 5.74c6.25 5.14 12.13 10.38 16.84 12.09 4.71 1.7 8.3 1.82 9.05 1.27s1-2.72.85-3.02-26.79-22.05-26.79-22.05l-12.99 2.91-1.1 3.06zm-10.53.52s-7.63-.48-14.14 2.18c-7.83 3.19-11.08 8.12-17.05 11.68-5.22 3.12-10.05 3.64-10.98 3.41-.6-.15-1.14-1.04-1.25-1.61-.31-1.52 24.52-19.3 24.52-19.3l17.57-.19 1.33 3.83z"/><path style="fill:#dadada" d="m69.49 49.81 12.23-35.1s7.82-1.7 17.45 4.81c6.86 4.64 8.72 8.12 13.64 10.78 5.4 2.92 10.98 2.96 11.68 3.96.55.78-3.06 6.72-6.87 15.59-3.71 8.65-8.37 20.51-8.37 20.51s-4.85-.07-9.33-2.26c-9.53-4.66-14.24-11.83-21.06-15.44-5.99-3.16-9.37-2.85-9.37-2.85zm-12.39.59-12.19-35s-5.5-2.14-13.48.72-11.28 7.47-17 10.08S3.4 29.55 3.3 30.45c-.1.9 1.02 3.86 2.47 8.07s3.9 14.98 5.05 19.56c1.51 6.01 3.76 10.63 3.76 10.63s5.52-.2 10.13-3.11 11.07-9.87 17.2-12.34c7.97-3.2 15.19-2.86 15.19-2.86z"/><path style="fill:#fefefe" d="M7.47 32.17c-.16.33 3.8 11.84 4.78 16.64 1.99 9.72 4.59 16.57 4.59 16.57s4.84-.89 8.39-3.59c4.27-3.24 10.39-8.74 16.05-11.25 6.91-3.05 12.79-3.1 12.79-3.1L43.62 17.53s-5.96-1.69-12.29 1.62-9.64 6.62-14.43 8.98c-5.32 2.61-9.28 3.75-9.43 4.04zm75.45-14.35c-.15.29-10.45 29.3-10.38 29.66.07.37 6.48.81 12.22 5.59 5.68 4.73 10.67 9.94 14.72 11.85 4.05 1.91 7.21 2.13 7.21 2.13s4.61-9.75 6.77-15.31c2.58-6.62 6.92-15.24 6.99-15.6.07-.37-6.84-1.45-11.04-4.56-4.56-3.39-6.04-6.85-14.13-11.11-8.44-4.45-12.36-2.65-12.36-2.65z"/><path style="fill:#db0d27" d="M101.91 31.22c-5.46-3.51-13.25-2.06-15.6 4.27s.15 12.29 5.89 15.53c5.74 3.24 14.47.65 15.46-7.14.66-5.23-.82-9.5-5.75-12.66zm-76.03-2.21c-8.17 3.68-7.02 12.19-5.37 15.68 1.91 4.05 6.74 7.77 15.02 4.56 8.54-3.31 8.07-11.25 6.11-15.16-2.37-4.71-7.66-8.73-15.76-5.08z"/></svg>