<svg xmlns="http://www.w3.org/2000/svg" viewBox="0 0 128 128" style="enable-background:new 0 0 128 128" xml:space="preserve"><path style="fill:none;stroke:#607d8b;stroke-width:3;stroke-miterlimit:10" d="M4 5.5h120"/><path style="fill:#607d8b" d="M57.73 30.32h13.81v3.99H57.73z"/><path style="fill:#82aec0" d="M76.63 31.48h-24c-1 0-1.81-.81-1.81-1.81v-.17c0-1 .81-1.81 1.81-1.81h24c1 0 1.81.81 1.81 1.81v.17c0 1-.81 1.81-1.81 1.81z"/><path style="fill:none;stroke:#82aec0;stroke-width:3;stroke-miterlimit:10" d="m65.87 29.37 11.06-10.61c.42-.41.43-1.09.02-1.51L63.62 5.65"/><path style="fill:#607d8b" d="m62.65 6.79 4.73 4.15 2.2-2.05-4.98-4.34z"/><path style="fill:#82aec0" d="M74.06 15.62v4.57l2.22-2.29z"/><path style="fill:none;stroke:#82aec0;stroke-width:3;stroke-miterlimit:10" d="M63.39 29.37 52.33 18.76c-.42-.41-.43-1.09-.02-1.51l13.33-11.6"/><path style="fill:#607d8b" d="m66.62 6.79-4.73 4.15-2.2-2.05 4.97-4.34z"/><path style="fill:#82aec0" d="M55.2 15.62v4.57l-2.21-2.29zm11.92-6.91h-4.97c-.61 0-1.1-.49-1.1-1.1V3.69c0-.61.49-1.1 1.1-1.1h4.97c.61 0 1.1.49 1.1 1.1v3.92c-.01.6-.5 1.1-1.1 1.1z"/><path style="fill:#e0e0e0" d="M37.91 33.86c-6.97-.01-16.45 2.8-22.14 12.61C3.31 67.95 4.4 98.79 4.4 98.79s-.02 2.65 2.35 4.58l6.56 5.93-8.14 8.47c-1.72 1.63-1.29 2.33-1.29 2.33a3.91 3.91 0 0 0 3.91 3.91H124V33.98c-13.46.01-59.48-.08-86.09-.12z"/><path style="fill:#bae2fd" d="M60.24 51.67s-5.74 2.94-11.16 10.47-9.26 16.26-9.26 16.26H124V51.3l-63.76.37z"/><path style="fill:#37474f" d="M98.25 76.57c-.61 0-1.11-.5-1.11-1.11V54.99c0-.61.5-1.11 1.11-1.11H124v-4.12H62.89c-3.18 0-5.91.24-9.63 4.12-5.48 5.72-11.67 15.56-14.76 21.17-1.11 2.01-1.05 5.65 3.56 5.65H124v-4.12H98.25zm-36.93-1.11c0 .61-.5 1.11-1.11 1.11H44.77c-.83 0-1.38-.87-1-1.61 0 0 8.05-15.54 15.07-20.36 1.15-.79 2.47-.81 2.47.42v20.44zm33.06 0c0 .61-.5 1.11-1.11 1.11H65.18c-.61 0-1.11-.5-1.11-1.11V54.99c0-.61.5-1.11 1.11-1.11h28.09c.61 0 1.11.5 1.11 1.11v20.47z"/><path style="fill:#bae2fd" d="M22.27 79.26 40.1 43.79l-22.36-.43c-.73.92-1.42 1.92-2.05 3.02C6.75 61.81 4.95 81.8 4.63 91.31c5.04-.36 13.46-2.65 17.64-12.05z"/><path style="fill:#37474f" d="M26.08 77.68c7.95-16.31 13.84-25.83 15.19-27.92s3.13-5.2 2.39-7.1c-.48-1.24-.75-2.32-4.79-2.32H20.56c-1.79 1.62-3.44 3.61-4.85 6.04-.37.64-.73 1.29-1.08 1.95h18.26c.9 0 1.42 1.01.89 1.74 0 0-5.67 10.87-12.52 23.17-2.88 5.18-12.37 6.25-15.67 6.23-1.26 9.99-.99 15.97-.99 15.97s7.21.22 11.83-3.03c5.34-3.78 7.3-9.93 9.65-14.73z"/><path style="fill:#ffca28" d="M13.19 82.11c-1.56-.49-3.42.97-4.15 3.28-.73 2.3-.05 4.57 1.51 5.07 1.56.49 3.42-.97 4.15-3.28.73-2.31.06-4.58-1.51-5.07zm2.76-36.14h13.12c.92 0 1.66-.74 1.66-1.66 0-.92-.74-1.66-1.66-1.66H18.32c-.84 1-1.64 2.11-2.37 3.32z"/><path style="fill:#9e9e9e" d="M9.34 120.8c-2.38 0-3.75-.78-4.52-1.55-.35-.35-.95-.13-.95.37v.47A3.91 3.91 0 0 0 7.78 124H124v-3.2H9.34z"/><path style="fill:#bdbdbd" d="M5.23 101.59c2.36 5.01 7.96 7.71 7.96 7.71H124v-7.71H5.23z"/></svg>