<svg xmlns="http://www.w3.org/2000/svg" viewBox="0 0 128 128" style="enable-background:new 0 0 128 128" xml:space="preserve"><path style="fill:#3c2c23" d="M50.58 4.12C9.57 4.12 9.9 42.04 9.9 42.65c0 24.56 1.88 59.25 11.71 72.9 3.9 5.41 11.43 5.71 11.43 5.71l16.97-.03 16.97.03s7.54-.3 11.43-5.71c9.83-13.65 11.71-48.34 11.71-72.9-.01-.61 1.47-38.53-39.54-38.53z"/><radialGradient id="a" cx="50.011" cy="57.851" r="47.531" gradientTransform="matrix(1 0 0 1.1901 0 -9.16)" gradientUnits="userSpaceOnUse"><stop offset=".794" style="stop-color:#554138;stop-opacity:0"/><stop offset="1" style="stop-color:#554138"/></radialGradient><path style="fill:url(#a)" d="M50.58 4.12C9.57 4.12 9.9 42.04 9.9 42.65c0 24.56 1.88 59.25 11.71 72.9 3.9 5.41 11.43 5.71 11.43 5.71l16.97-.03 16.97.03s7.54-.3 11.43-5.71c9.83-13.65 11.71-48.34 11.71-72.9-.01-.61 1.47-38.53-39.54-38.53z"/><linearGradient id="b" gradientUnits="userSpaceOnUse" x1="53.05" y1="94.07" x2="53.05" y2="122.07" gradientTransform="translate(0 2)"><stop offset=".003" style="stop-color:#616161"/><stop offset=".277" style="stop-color:#545454"/><stop offset=".783" style="stop-color:#323232"/><stop offset="1" style="stop-color:#212121"/></linearGradient><path style="fill:url(#b)" d="M102.05 121.06v3.01h-98v-15.93c6.76-6.19 18.5-9.77 31.44-11.26 1.81-.21 3.65-.37 5.5-.49H41c3-.22 6.02-.32 9.05-.32h.14c2.95 0 5.9.11 8.81.32 1.84.13 3.67.31 5.48.53 20.31 2.49 37.57 10.43 37.57 24.14z"/><path style="opacity:.19;fill:#fff;enable-background:new" d="M84.07 110.33c-.32.11-5.23 3.04-12.05 5.56-3.21 1.19-13.11 3.08-21.95 2.88-15.88-.38-27.44-5.31-34.09-8.77-2.51-1.3-5.48-3.91-7.05-5.38L7 105.87c1.24 1.21 3.67 3.34 7.45 5.61-4.11 4.5-5.3 10.6-5.59 12.59h2.03c.35-2.1 1.59-7.68 5.34-11.57 2.61 1.44 5.76 2.88 9.48 4.16-2.09 3.27-2.39 6.5-2.43 7.41h2c.05-.86.38-3.86 2.4-6.77 6.03 1.86 13.43 3.24 22.35 3.45.69.02 1.37.02 2.04.02 8.08 0 14.81-1.17 20.34-2.86 1.65 2.7 1.95 5.35 2 6.15h2c-.04-.85-.31-3.74-2.06-6.79 3.75-1.3 6.89-2.83 9.47-4.38 3.46 3.86 4.64 9.14 4.97 11.16h2.03c-.28-1.93-1.42-7.78-5.28-12.25 3.6-2.37 5.9-4.64 7.07-5.93l-1.77-1.06c-1.19 1.29-3.4 3.35-6.77 5.52z"/><path style="fill:#7a4c32" d="M50 90.08h-9.08v9.98c0 4.51 3.7 8.17 8.26 8.17h1.65c4.56 0 8.26-3.66 8.26-8.17v-9.98H50z"/><path style="fill:#d8d8d8" d="M60.48 108.05a30.13 30.13 0 0 1-3.57 4.63c-3.52 3.78-6.91 5.57-6.91 5.57s-3.44-1.82-6.98-5.52a29.195 29.195 0 0 1-3.53-4.44l10.5-2.29H50v-.01c-.03-.04.01-.07.1-.07.91-.1 6.97 1.31 10.38 2.13z"/><path style="fill:#fff" d="m49.99 106-6.97 6.73a29.195 29.195 0 0 1-3.53-4.44c-1.99-3.08-3.59-6.88-4-11.41 1.81-.21 3.65-.37 5.5-.49H41c.62 1.34 2.78 5.03 8.99 9.61zm14.49-9.08c-.57 4.43-2.12 8.13-4 11.13a30.13 30.13 0 0 1-3.57 4.63L50 106v-.01l.1-.07c6.13-4.55 8.27-8.19 8.9-9.53 1.84.13 3.67.31 5.48.53z"/><path style="fill:#a56c43" d="M50.01 16.04c-17.2 0-33.13 12.79-33.13 39.91 0 21.78 13.49 34.67 25.23 38.83 2.8.99 5.5 1.49 7.9 1.49 2.38 0 5.07-.49 7.85-1.47 11.76-4.14 25.28-17.03 25.28-38.84 0-27.13-15.93-39.92-33.13-39.92z"/><ellipse style="fill:#42312c" cx="33.76" cy="58.87" rx="4.87" ry="5.04"/><ellipse style="fill:#42312c" cx="66.26" cy="58.87" rx="4.87" ry="5.04"/><path style="fill:#42312c" d="M40.99 49.82c-.93-1.23-3.07-3.01-7.23-3.01s-6.31 1.79-7.23 3.01c-.41.54-.31 1.17-.02 1.55.26.35 1.04.68 1.9.39s2.54-1.16 5.35-1.18c2.81.02 4.49.89 5.35 1.18.86.29 1.64-.03 1.9-.39.29-.38.39-1.01-.02-1.55zm32.5 0c-.93-1.23-3.07-3.01-7.23-3.01s-6.31 1.79-7.23 3.01c-.41.54-.31 1.17-.02 1.55.26.35 1.04.68 1.9.39s2.54-1.16 5.35-1.18c2.81.02 4.49.89 5.35 1.18.86.29 1.64-.03 1.9-.39.29-.38.39-1.01-.02-1.55z"/><path style="fill:#473530" d="M57.78 77.88H42.23c-3.31 0-2.72 1.94-1.12 2.62 2.51 1.07 6.06 1.36 8.87 1.37h.04c2.81-.01 6.36-.3 8.87-1.37 1.61-.68 2.2-2.62-1.11-2.62z"/><path style="fill:#875334" d="M53.82 68.06c-.1-.04-.21-.07-.32-.08h-6.99c-.11.01-.21.04-.32.08-.63.26-.98.91-.68 1.61.3.7 1.69 2.66 4.49 2.66s4.19-1.96 4.49-2.66c.32-.7-.03-1.36-.67-1.61z"/><path style="fill:#3c2c23" d="M50.58 4.12C9.57 4.12 9.9 42.04 9.9 42.65c0 7.76.19 16.53.75 25.32l6.72-.02c-.06-2.92 1.99-20.97 8.08-22.34 22.36-5.03 35.01-16.89 35.01-16.89 3.29 7.18 13.58 14.19 17.27 16.86 3.03 2.19 3.96 18.55 3.9 22.38h7.71c0-.05.02-.1.02-.16.56-8.75.74-17.46.74-25.17.01-.59 1.49-38.51-39.52-38.51z"/><radialGradient id="c" cx="50.344" cy="61.891" r="49.788" gradientTransform="matrix(1 0 0 1.2135 0 -11.387)" gradientUnits="userSpaceOnUse"><stop offset=".794" style="stop-color:#554138;stop-opacity:0"/><stop offset="1" style="stop-color:#554138"/></radialGradient><path style="fill:url(#c)" d="M50.58 4.12C9.57 4.12 9.9 42.04 9.9 42.65c0 7.76.19 16.53.75 25.32l6.72-.02c-.06-2.92 1.99-20.97 8.08-22.34 22.36-5.03 35.01-16.89 35.01-16.89 3.29 7.18 13.58 14.19 17.27 16.86 3.03 2.19 3.96 18.55 3.9 22.38h7.71c0-.05.02-.1.02-.16.56-8.75.74-17.46.74-25.17.01-.59 1.49-38.51-39.52-38.51z"/><path style="fill:#d8d8d8" d="M50.05 118.32s6.12-3.24 10.47-10.19c-3.79-.91-10.83-2.55-10.48-2.06l-10.51 2.29c4.34 6.69 10.52 9.96 10.52 9.96z"/><linearGradient id="d" gradientUnits="userSpaceOnUse" x1="42.793" y1="103.645" x2="42.793" y2="94.124" gradientTransform="translate(0 2)"><stop offset="0" style="stop-color:#fff"/><stop offset="1" style="stop-color:#bdbdbd"/></linearGradient><path style="fill:url(#d)" d="M41.01 96.38c-1.84.13-3.66.3-5.47.5.64 7.08 4.13 12.37 7.53 15.92l6.98-6.74c-6.35-4.67-8.46-8.4-9.04-9.68z"/><linearGradient id="e" gradientUnits="userSpaceOnUse" x1="57.292" y1="103.645" x2="57.292" y2="94.124" gradientTransform="translate(0 2)"><stop offset="0" style="stop-color:#fff"/><stop offset="1" style="stop-color:#bdbdbd"/></linearGradient><path style="fill:url(#e)" d="M59.08 96.4c-.59 1.29-2.72 5-9.03 9.67l6.92 6.68c3.27-3.5 6.66-8.72 7.58-15.81-1.81-.22-3.63-.4-5.47-.54z"/><path style="fill:#dd8a3e" d="m99.26 119.64 4.57-24.84c.04-.29.06-.57.03-.86l-.67-8.86c-.18-2.33 1.63-2.63 3.95-2.39 2.32.24 4.03.9 3.39 3.14l-2.46 8.54c-.08.28-.13.56-.14.85l-.6 25.16-8.07-.74z"/><path style="fill:#dd8a3e" d="m106.46 76.05 2.34.24c1.71.18 2.97 1.72 2.8 3.44l-.06.56a3.154 3.154 0 0 1-3.44 2.8l-2.34-.24a3.154 3.154 0 0 1-2.8-3.44l.06-.56a3.134 3.134 0 0 1 3.44-2.8z"/><path transform="rotate(-84.14 109.326 69.13)" style="fill:#995f33" d="M103.11 57.31h12.45v23.63h-12.45z"/><path style="fill:#dd8a3e" d="m112.47 77.05-9.62-.99a2.496 2.496 0 0 1-2.23-2.74l1.04-10.16a2.496 2.496 0 0 1 2.74-2.23l9.62.99c1.37.14 2.37 1.37 2.23 2.73l-1.04 10.16a2.502 2.502 0 0 1-2.74 2.24zM99.4 68.06c.59-5.76.62-7.94-1.62-8.17-2.24-.23-4.42 3.13-4.87 7.51s1 8.11 3.24 8.34 2.66-1.92 3.25-7.68zm18.07 1.86c.59-5.76 1.01-7.9 3.25-7.67 2.24.23 3.69 3.96 3.24 8.34-.45 4.38-2.63 7.74-4.87 7.51s-2.21-2.42-1.62-8.18z"/><radialGradient id="f" cx="35.31" cy="-8.937" r="19.311" gradientTransform="matrix(-.0347 -.9994 1.0566 -.0367 102.196 150.671)" gradientUnits="userSpaceOnUse"><stop offset=".307" style="stop-color:#a56c43"/><stop offset="1" style="stop-color:#8d5738"/></radialGradient><path style="fill:url(#f)" d="M101.19 103.72c-1.05.17-2.08.44-3.05.88-1.39.63-8.03-1.32-8.44 5.08-.04 1.77-.21 7.34 1.29 10.07 3.13 5.71 14.89 4.3 15.78 4.44 5.61.87 3.1-17.15-.07-19.46-.4-.26-1.04-.58-1.6-.89-1.09-.58-2.81-.29-3.91-.12z"/><radialGradient id="g" cx="117.293" cy="112.582" r="14.15" gradientTransform="rotate(-20.61 111.272 120.003)" gradientUnits="userSpaceOnUse"><stop offset="0" style="stop-color:#8d5738"/><stop offset="1" style="stop-color:#a56c43"/></radialGradient><path style="fill:url(#g)" d="m109.06 120.35-6.33-.14a1.55 1.55 0 0 0-1.62 1.26c-.16.82.44 1.6 1.31 1.76l6.26.93c1 .18 1.96-.49 2.06-1.46l.05-.5c.1-.98-.69-1.83-1.73-1.85z"/><radialGradient id="h" cx="112.042" cy="100.036" r="14.135" gradientTransform="matrix(1.0148 .1678 -.1671 .9861 13.547 -13.818)" gradientUnits="userSpaceOnUse"><stop offset="0" style="stop-color:#8d5738"/><stop offset="1" style="stop-color:#a56c43"/></radialGradient><path style="fill:url(#h)" d="M89.75 114.01s1.28.89 3.23 1.66c5.94 2.35 6.66-4.92 6.8-6.04.72-5.78 5.83-4.49 10.16-4.78.9-.06 3.98-.53 4.81-2.56.87-3.38-2.59-3.33-9.9-3.77-1.99-.12-3.97-.09-5.95.19-9.39 1.31-9.47 10.97-9.15 15.3z"/><radialGradient id="i" cx="118.303" cy="110.973" r="16.083" gradientTransform="rotate(-3.773 133.202 117.518)" gradientUnits="userSpaceOnUse"><stop offset="0" style="stop-color:#8d5738"/><stop offset="1" style="stop-color:#a56c43"/></radialGradient><path style="fill:url(#i)" d="m111.03 110.07-9.06.77c-1.22.09-1.24 1.01-1.3 2.17-.09 1.25.06 2.33 1.39 2.41l9.1.43c1.54.08 2.84-1.09 2.82-2.56l-.01-.75c-.04-1.5-1.38-2.64-2.94-2.47z"/><radialGradient id="j" cx="118.837" cy="110.12" r="15.37" gradientTransform="rotate(4.365 87.952 92.003)" gradientUnits="userSpaceOnUse"><stop offset="0" style="stop-color:#8d5738"/><stop offset="1" style="stop-color:#a56c43"/></radialGradient><path style="fill:url(#j)" d="m110.91 104.73-7.77 1.09c-1.16.15-1.99 1.09-1.99 2.19-.02 1.2 1.03 2.17 2.3 2.18l7.87.06c1.47 0 2.67-1.18 2.57-2.59l-.05-.72c-.11-1.43-1.45-2.45-2.93-2.21z"/><radialGradient id="k" cx="117.406" cy="111.199" r="15.375" gradientTransform="rotate(-12.95 116.063 116.1)" gradientUnits="userSpaceOnUse"><stop offset="0" style="stop-color:#8d5738"/><stop offset="1" style="stop-color:#a56c43"/></radialGradient><path style="fill:url(#k)" d="m110.2 115.57-7.18.4c-1.07.04-1.9.83-1.99 1.84-.12 1.09.76 2.06 1.92 2.18l7.17.66c1.34.12 2.53-.86 2.56-2.15l.02-.66c.01-1.33-1.13-2.37-2.5-2.27z"/><path style="fill:#875334" d="M111.35 115.85c.11-1.01-8.03.03-9.03-.81-1.14-.95-1.02-2.81.39-3.44 1.57-.71 9.26-.99 9.26-1.43-.01-.8-10.03 1.56-10.1-2.04-.04-2.23 2.32-2.22 3.9-2.51.94-.17 5.08-.49 5.08-.78s-1.02-.2-1.13-.21c-.75-.07-5.58.3-6.88.61-2.15.51-2.67 1.71-2.71 2.65-.06 1.09-.34 2.54-.69 3.58-.75 2.21-3.43 4.25-3.51 4.54-.09.32 1.71-.58 2.82-1.77.66-.7 1.57-.37 1.79.57.13.57.24 1.1.23 1.34-.01.5-.04 3.5-.21 4.53-.07.4-.1.71.03 1.15.09.32.24.63.44.89.92 1.2 2.56 1.31 3.9 1.37.81.04 4.03.39 4.78-.04-1.79-.02-8.08.14-7.82-2.31.17-1.37 1.43-.99 2.35-.9 1.05.09 3.01.12 4.06.01.29-.03 1.83 0 1.83-.22 0-.33-3.23-.37-3.59-.38-1.31-.04-4.04.17-4.65-1.38-.22-.57-.14-1.27.24-1.76.91-1.16 9.16-.74 9.22-1.26z"/></svg>