<svg xmlns="http://www.w3.org/2000/svg" version="1.0" viewBox="0 0 1000 1000"><path fill="#009e49" d="M8 195.25c170.83-85.22 341.03-54.42 513.26-27.97 155.21 23.84 312.16 44.57 470.74-34.53v672c-170.83 85.22-341.03 54.42-513.26 27.97C323.53 808.88 166.58 788.15 8 867.25v-672"/><path fill="#fff" d="M8 195.25c170.96-26.92 341.39 62.22 513.8 147.56C676.79 419.53 833.6 493.69 992 468.75 664.36 744.1 338.88 589.19 8 867.25v-672"/><path fill="#fcd116" d="M8 224.48c300.61-47.23 591.48 261.98 897.41 278.19C608.77 689.77 309.21 584.78 8 838.02V224.48"/><path d="M8 195.25C170.5 225.12 332.47 359.66 500 500 337.73 585.69 174.81 670.08 8 867.25v-672"/><path fill="#ce1126" d="M8 234.45c143.51 26.37 286.71 134.26 434.63 256.84C299.26 568.29 155.45 653.78 8 828.05v-593.6"/><path fill="#1A1A1A" opacity=".2" d="M8 195.25c170.83-85.22 341.03-54.42 513.26-27.97 155.21 23.84 312.16 44.57 470.74-34.53v672c-170.83 85.22-341.03 54.42-513.26 27.97C323.53 808.88 166.58 788.15 8 867.25v-672m31.25 19.39v604.5c306.56-128.26 611.18 96.04 921.5-33.78v-604.5c-306.56 128.26-611.18-96.04-921.5 33.78"/></svg>