<svg xmlns="http://www.w3.org/2000/svg" viewBox="0 0 1000 1000"><path fill="#fff" d="M8 195.25c170.83-85.22 341.03-54.42 513.26-27.97 155.21 23.84 312.16 44.57 470.74-34.53v672c-170.83 85.22-341.03 54.42-513.26 27.97C323.53 808.88 166.58 788.15 8 867.25v-672"/><path fill="red" d="M434.4 154.1v268.8C294.05 402.83 152.56 391.94 8 464.05v134.4c140.89-70.29 281.27-61.9 426.4-41.15v268.8l131.2 19.8V577.1c140.35 20.07 281.84 30.96 426.4-41.15v-134.4c-140.89 70.29-281.27 61.9-426.4 41.15V173.9l-131.2-19.8"/><path fill="red" d="M241.73 206.86c-3.87 21.26-5.9 43.11-5.93 65.42.03 22.32 2.06 44.01 5.93 65.07-7.33-.72-14.76-.89-22.33-.47-7.58.46-15 1.5-22.34 3.09 3.87-21.52 5.91-43.46 5.94-65.77-.03-22.31-2.07-43.92-5.94-64.71 7.32.22 14.77.13 22.34-.29 7.56-.46 15.01-1.24 22.33-2.34"/><path fill="red" d="M283.08 295.06c-20.67-4.53-41.88-6.44-63.68-5.22-21.8 1.32-43.01 5.72-63.69 13.1.88-7.66 1.35-15.35 1.37-23.11-.02-7.75-.49-15.29-1.37-22.65 20.63.55 41.92.31 63.69-.94 21.77-1.29 43.04-3.54 63.68-6.95-.88 7.49-1.34 15.09-1.36 22.85.02 7.75.48 15.38 1.36 22.92M802.94 660.03c-3.87 21.52-5.91 43.46-5.94 65.77.03 22.31 2.07 43.92 5.94 64.71-7.32-.22-14.77-.13-22.34.29-7.56.46-15.01 1.24-22.33 2.34 3.87-21.26 5.9-43.11 5.93-65.42-.03-22.32-2.06-44.01-5.93-65.07 7.33.72 14.76.89 22.33.47 7.58-.46 15-1.5 22.34-3.09"/><path fill="red" d="M844.29 742.82c-20.63-.55-41.92-.31-63.69.94-21.77 1.29-43.04 3.54-63.68 6.95.88-7.49 1.34-15.09 1.36-22.85-.02-7.75-.48-15.38-1.36-22.92 20.67 4.53 41.88 6.44 63.68 5.22 21.8-1.32 43.01-5.72 63.69-13.1-.88 7.66-1.35 15.35-1.37 23.11.02 7.75.49 15.29 1.37 22.65M802.94 253.14c-3.87 21.51-5.91 43.45-5.94 65.76.03 22.31 2.07 43.93 5.94 64.72-7.32-.23-14.77-.14-22.34.29-7.56.45-15.01 1.23-22.33 2.33 3.87-21.26 5.9-43.11 5.93-65.42-.03-22.31-2.06-44.01-5.93-65.06 7.33.71 14.76.88 22.33.47 7.58-.47 15-1.51 22.34-3.09"/><path fill="red" d="M844.29 335.93c-20.63-.56-41.92-.32-63.69.94-21.77 1.28-43.04 3.53-63.68 6.94.88-7.48 1.34-15.09 1.36-22.84-.02-7.76-.48-15.39-1.36-22.92 20.67 4.52 41.88 6.44 63.68 5.22 21.8-1.32 43.01-5.72 63.69-13.11-.88 7.66-1.35 15.36-1.37 23.11.02 7.75.49 15.3 1.37 22.66M241.73 613.76c-3.87 21.26-5.9 43.11-5.93 65.42.03 22.31 2.06 44.01 5.93 65.06-7.33-.71-14.76-.88-22.33-.47-7.58.47-15 1.51-22.34 3.09 3.87-21.51 5.91-43.45 5.94-65.76-.03-22.31-2.07-43.93-5.94-64.72 7.32.23 14.77.14 22.34-.29 7.56-.45 15.01-1.23 22.33-2.33"/><path fill="red" d="M283.08 701.95c-20.67-4.52-41.88-6.44-63.68-5.22-21.8 1.32-43.01 5.72-63.69 13.11.88-7.66 1.35-15.36 1.37-23.11-.02-7.75-.49-15.3-1.37-22.66 20.63.56 41.92.32 63.69-.94 21.77-1.28 43.04-3.53 63.68-6.94-.88 7.48-1.34 15.09-1.36 22.84.02 7.76.48 15.39 1.36 22.92"/><path fill="#1A1A1A" opacity=".2" d="M8 195.25c170.83-85.22 341.03-54.42 513.26-27.97 155.21 23.84 312.16 44.57 470.74-34.53v672c-170.83 85.22-341.03 54.42-513.26 27.97C323.53 808.88 166.58 788.15 8 867.25v-672m31.25 19.39v604.5c306.56-128.26 611.18 96.04 921.5-33.78v-604.5c-306.56 128.26-611.18-96.04-921.5 33.78"/></svg>