<svg xmlns="http://www.w3.org/2000/svg" version="1.0" viewBox="0 0 1000 1000"><path fill="#377e3f" d="M8 195.25c170.83-85.22 341.03-54.42 513.26-27.97 155.21 23.84 312.16 44.57 470.74-34.53v672c-170.83 85.22-341.03 54.42-513.26 27.97C323.53 808.88 166.58 788.15 8 867.25v-672"/><path fill="#fff" d="M8 329.65c170.83-85.22 341.03-54.42 513.26-27.97 155.21 23.84 312.16 44.57 470.74-34.53v403.2c-170.83 85.22-341.03 54.42-513.26 27.97C323.53 674.48 166.58 653.75 8 732.85v-403.2"/><path fill="#b40a2d" d="M8 396.85c170.83-85.22 341.03-54.42 513.26-27.97 155.21 23.84 312.16 44.57 470.74-34.53v268.8c-170.83 85.22-341.03 54.42-513.26 27.97C323.53 607.28 166.58 586.55 8 665.65v-268.8"/><path fill="#ecc81d" d="m500 378.43 77.12 254.66c-66.61-58.82-133.25-120.5-201.9-179.35 82.35 9.3 164.71 25.54 249.56 35.13-66.64 42.07-133.26 79.62-201.9 121.17L500 378.43"/><path fill="#1A1A1A" opacity=".2" d="M8 195.25c170.83-85.22 341.03-54.42 513.26-27.97 155.21 23.84 312.16 44.57 470.74-34.53v672c-170.83 85.22-341.03 54.42-513.26 27.97C323.53 808.88 166.58 788.15 8 867.25v-672m31.25 19.39v604.5c306.56-128.26 611.18 96.04 921.5-33.78v-604.5c-306.56 128.26-611.18-96.04-921.5 33.78"/></svg>