<svg xmlns="http://www.w3.org/2000/svg" viewBox="0 0 128 128" style="enable-background:new 0 0 128 128" xml:space="preserve"><path style="fill:#70534a" d="M4.02 110.52c-.01.12-.02.24-.02.37 7.22-9.07 10.55-12.14 13.75-13.1 4.11-1.23 7.36 1.69 18-.78 7.69-1.78 14.85-.14 19.54 5.46 2.22 2.65 4.5 3.64 5.75 3.56 1.52-.1 2.04-.79 2.47-1.52.76-1.29.53-3.31.53-6.22 0-5.72-4.94-10.63-8.31-12.7-7-4.63-14.7-5.98-21.56-10.9-2.24-1.57-4.23-3.65-5.18-6.27-2.36-8.25 1.68-20.52 11.07-22.07 4.17-.89 9.09-.7 12.3 2.47 1.73 2.32 1.51 4.06 3.56 6.25 1.63 1.74 3.92 2.55 5.73 2.53 1.4-.02 2.43-.81 2.44-2.02l-.07-21.38s1.21-5.18-4.39-8.33c-3.55-1.99-9.68-5.23-13.07-7.05-3.4-1.82-6.39-2.82-12.75.37-9.98 5-29.76 23-29.76 23s.21 46.68-.03 68.33z"/><path style="fill:#70534a" d="M123.95 42.19s-19.78-18-29.76-23C87.83 16 84.84 17 81.44 18.82c-3.4 1.81-9.53 5.05-13.07 7.05-5.6 3.15-4.39 8.33-4.39 8.33l-.11 21.35c.01 1.21 1.08 2.03 2.48 2.05 1.82.02 4.11-.79 5.73-2.53 2.05-2.19 1.83-3.92 3.56-6.25 3.21-3.17 8.13-3.35 12.3-2.47 9.39 1.55 13.42 13.82 11.07 22.07-.96 2.62-2.94 4.7-5.18 6.27-6.86 4.91-14.56 6.27-21.56 10.9-3.38 2.07-8.31 6.98-8.31 12.7 0 2.97-.08 4.99.75 6.27.44.69.78 1.25 2.26 1.47 1.24.19 3.53-.91 5.75-3.56 4.69-5.61 11.85-7.25 19.54-5.46 10.64 2.47 13.89-.45 18 .78 3.2.95 6.53 4.02 13.75 13.1-.01-.12-.01-.24-.02-.37-.25-21.65-.04-68.33-.04-68.33z"/><path style="fill:#4a2f27" d="M47.39 98.42c-3.13-.7-6.11-1.37-12.52-.07-5.89 1.19-12.34 1.72-17.81.13-6.76-1.97-8.21-6.81-8.21-6.81.04.03 8.19 7.82 25.44 3.74 6.78-1.6 11.02-.47 14.42.83 5.64 2.16 8.28 7.86 8.39 8.05 0 0-3.91-4.58-9.71-5.87zM27.23 63.33c-1.32-10.81 5.64-17.21 13.27-18.98 5.43-1.26 11.22 1.76 11.91 3.65.96 2.64 3.03 6.52 3.03 6.52-1.84-1.69-3.64-5.11-4.84-5.64-.84-.37-5.44-2.23-10.13-.69-6.11 2-10.34 7.68-9.71 14.62.26 2.89.85 6.84 3.87 10.19 4.75 5.28 12.77 8.29 12.77 8.29.15.07.07.3-.09.26-2.39-.57-9.33-2.33-14.38-7.14-3.76-3.62-5.2-7.01-5.7-11.08zm53.38 35.09c3.13-.7 6.11-1.37 12.52-.07 5.89 1.19 12.34 1.72 17.81.13 6.76-1.97 8.21-6.81 8.21-6.81-.04.03-8.19 7.82-25.44 3.74-6.78-1.6-11.02-.47-14.42.83-5.64 2.16-8.22 7.84-8.33 8.03 0 0 1.17-1.27 3.26-2.88 1.6-1.24 3.83-2.4 6.39-2.97zm20.16-35.09c1.32-10.81-5.64-17.21-13.27-18.98-5.44-1.25-11.23 1.76-11.92 3.65-.96 2.64-3.03 6.52-3.03 6.52 1.84-1.69 3.64-5.11 4.84-5.64.84-.37 5.44-2.23 10.13-.69 6.11 2 10.34 7.68 9.71 14.62-.26 2.89-.85 6.84-3.87 10.19-4.75 5.28-12.77 8.29-12.77 8.29-.15.07-.07.3.09.26 2.39-.57 9.33-2.33 14.38-7.14 3.77-3.62 5.21-7.01 5.71-11.08z"/><path style="fill:#4a2f27" d="M107.74 36.91c-2.34-1.79-14.88-8.69-14.88-8.69-4.62-2.65-8.11-2.65-12.05-.96-2.87 1.23-13.14 6.63-14.7 8-1.55 1.35-1.9 3.34-1.97 4.7-.08-1.37-.43-3.35-1.97-4.7-1.56-1.36-11.84-6.77-14.7-8-3.95-1.69-7.44-1.69-12.05.96 0 0-12.54 6.89-14.88 8.69s-3.81 4.29-3.81 4.29 16.64-8.57 20.33-10.21c3.69-1.64 6.28-1.49 10-.31 2.9.92 8.63 4.1 10.23 5.03.43.25 2.97 1.29 4.04 3.8 1.06 2.48 1.34 6.5 1.44 8.55.16 3.24 1.35 7.3 1.35 7.3s1.16-4.43 1.33-7.67c.08-1.59.46-5.69 1.52-8.17 1.07-2.51 3.62-3.56 4.04-3.8 1.6-.93 7.33-4.11 10.23-5.03 3.72-1.18 6.31-1.33 10 .31 3.69 1.64 20.33 10.21 20.33 10.21s-1.49-2.51-3.83-4.3z"/><path style="fill:#4a2f27" d="M79.64 19.85s-9.87 4.81-12.16 6.05c-1.88 1.02-2.99 2.75-3.34 5.07-.34-2.32-1.46-4.04-3.34-5.07-2.29-1.25-12.16-6.05-12.16-6.05-.18-.07-.28.17-.13.28 0 0 10.76 7.5 11.45 8.06s2.53 2.04 2.81 3.89c.19 1.27 1.1 6.41 1.34 7.74v.33s.01-.06.03-.15c.02.09.03.15.03.15v-.33c.24-1.34 1.15-6.48 1.34-7.74.27-1.85 2.12-3.32 2.81-3.89.69-.56 11.45-8.06 11.45-8.06.15-.11.04-.35-.13-.28z"/></svg>