<svg xmlns="http://www.w3.org/2000/svg" viewBox="0 0 128 128" style="enable-background:new 0 0 128 128" xml:space="preserve"><path style="fill:#fff" d="m106.15 14.34-6.49-7.9-6.49 7.9-6.49-7.9-6.49 7.9-6.49-7.9-6.49 7.9-6.49-7.9-6.49 7.9-6.49-7.9-6.49 7.9-6.49-7.9-6.49 7.9-6.79-8.26h-.67l.11 116.04 79.08.12c16.68 0 13.34-34.81 13.34-34.81l.02-81.36h-.38l-6.83 8.27z"/><circle style="fill:#94d1e0" cx="65.6" cy="31.23" r="8"/><path style="fill:none;stroke:#82aec0;stroke-width:4;stroke-linecap:round;stroke-miterlimit:10" d="M32.41 47.62h38.48m17.55 0h11.69M88.44 60.76h11.69m-40.81 0h10.57m-37.48 0h17.62m32.09 37.18h18.01M88.44 73.9h11.69m-67.72 0h31.16M32.81 87.04h.4"/><path style="fill:none;stroke:#82aec0;stroke-width:4;stroke-linecap:round;stroke-miterlimit:10;stroke-dasharray:.751,7.5103" d="M40.72 87.04h54.07"/><path style="fill:none;stroke:#82aec0;stroke-width:4;stroke-linecap:round;stroke-miterlimit:10" d="M98.55 87.04h.4"/><path style="fill:#6fbff0" d="M115.12 3.04h-.25c-.08 0-1.49.03-3.7 2.4l-5.01 6.1-6.5-7.9-6.49 7.9-6.5-7.9-6.49 7.9-6.5-7.9-6.49 7.9-6.49-7.9-6.49 7.9-6.49-7.9-6.49 7.9-6.49-7.9-6.49 7.89-3.38-4.34c-3.44-4.13-5.59-3.74-5.68-3.73l-.2.04.1 103.08-5.39 5.87-5.76-6.91s-3.48 5.03 1.01 11.83c3.59 5.45 15.05 4.89 19.73 4.89l67.97.06c11.55-.07 14.7-2.51 16.94-12.86 1.54-7.13 1.53-17.64 1.53-21.6V3.04zM70.69 105.55l-6.33 6.91-6.33-6.91-6.33 6.91-6.33-6.91-6.33 6.91-6.33-6.91-6.33 6.91-3.69-4.03-.09-98.17 5.66 6.88 6.49-7.9 6.49 7.9 6.49-7.9 6.49 7.9 6.49-7.9 6.49 7.9 6.49-7.9 6.5 7.9 6.49-7.9 6.5 7.9 6.49-7.9 6.5 7.9 5.37-6.54-.02 76.76v.9c.01 4.18.05 13.98-1.45 20.44-1.54 6.69-3.97 9.39-8.95 9.97-1.48.17-9.25.36-16.45-13.1-.12-.23-.31-.18-.35-.17-.01 0-.02.01-.03.01-.07-.3-.11-.48-.11-.48l-7.15 7.52-6.34-6.9z"/></svg>