<svg xmlns="http://www.w3.org/2000/svg" viewBox="0 0 128 128" style="enable-background:new 0 0 128 128" xml:space="preserve"><linearGradient id="a" gradientUnits="userSpaceOnUse" x1="4.115" y1="18.252" x2="108.115" y2="18.252" gradientTransform="matrix(1 0 0 -1 0 128)"><stop offset=".001" style="stop-color:#e3e3e3"/><stop offset="1" style="stop-color:#c9c9c9"/></linearGradient><path style="fill:url(#a)" d="M56.25 95.63h-.13c-25.49.03-52 7.28-52 25.06v3.18h104v-3.18c-.01-16.76-26.27-25.06-51.87-25.06z"/><path style="fill:#c48e6a" d="M65.19 90.08H47.03v9.98c0 4.51 3.7 8.17 8.26 8.17h1.65c4.56 0 8.26-3.66 8.26-8.17v-9.98h-.01z"/><linearGradient id="b" gradientUnits="userSpaceOnUse" x1="67.607" y1="36.424" x2="64.082" y2="21.74" gradientTransform="matrix(1 0 0 -1 0 128)"><stop offset="0" style="stop-color:#0053ab"/><stop offset=".362" style="stop-color:#0068bf"/><stop offset="1" style="stop-color:#008ee3"/></linearGradient><path style="fill:url(#b)" d="M71.54 95.11c1.45 2.18 1.64 7.04-2.61 11.15-2.49 2.4-6.74 2.73-10.03 2.64-.67-.02-1.44-.16-1.76-.81-.36-.73.11-1.68.76-2.1.65-.42 1.42-.51 2.14-.75 1.51-.51 3.9-3.31 4.46-7.46.36-2.67.13-3.89.19-4.74.04-.67 5.75.42 6.85 2.07z"/><linearGradient id="c" gradientUnits="userSpaceOnUse" x1="38.431" y1="31.745" x2="59.107" y2="17.782" gradientTransform="matrix(1 0 0 -1 0 128)"><stop offset=".001" style="stop-color:#008ee3"/><stop offset="1" style="stop-color:#0053ab"/></linearGradient><path style="fill:url(#c)" d="M41.35 106.57c5.15 3.8 11.58 5.17 17.75 3.6.85-.22 1.86-.68 1.91-1.56.06-1.18-1.55-2.4-2.7-2.57-2.95-.44-6.33-1.94-8.23-4.25-1.68-2.05-2.43-3.61-2.37-7.37.02-1.47-6.69-.18-8.4.71-2.58 1.33-3.94 7.02 2.04 11.44z"/><linearGradient id="d" gradientUnits="userSpaceOnUse" x1="-317.799" y1="47.389" x2="-317.799" y2="32.59" gradientTransform="matrix(.812 -.0076 .0076 -.8119 317.572 146.42)"><stop offset="0" style="stop-color:#0053ab"/><stop offset="1" style="stop-color:#008ee3"/></linearGradient><path style="fill:url(#d)" d="M56.89 113.45c.19 4.44 2.5 5.89 1.14 9.45 2.23-1.42 3.77-3.82 4.41-6.39s.41-5.3-.38-7.8c-.22-.71-.51-1.44-1.07-1.93-2.74-2.4-4.17 5-4.1 6.67z"/><linearGradient id="e" gradientUnits="userSpaceOnUse" x1="62.84" y1="20.572" x2="72.114" y2="14.255" gradientTransform="matrix(1 0 0 -1 0 128)"><stop offset="0" style="stop-color:#0053ab"/><stop offset="1" style="stop-color:#008ee3"/></linearGradient><path style="fill:url(#e)" d="M65.92 113.99c4.41 1.9 6.73.39 9.61 4.98.22-3.24-1.03-6.5-3.11-8.97s-4.96-4.2-8.02-5.19c-.88-.28-1.81-.51-2.71-.3-4.4 1.03.26 7.77 4.23 9.48z"/><ellipse transform="rotate(-11.847 59.397 107.355)" style="fill:#1565c0" cx="59.41" cy="107.35" rx="5.3" ry="3.35"/><path style="fill:#c48e6a" d="M83.44 50.43H28.79c-5.89 0-10.71 5.14-10.71 11.41 0 6.28 4.82 11.41 10.71 11.41h54.65c5.89 0 10.71-5.14 10.71-11.41s-4.82-11.41-10.71-11.41z"/><path style="fill:#e0bb95" d="M56.11 11.07c-17.4 0-33.52 18.61-33.52 45.39 0 26.64 16.61 39.81 33.52 39.81S89.63 83.1 89.63 56.46c0-26.78-16.11-45.39-33.52-45.39z"/><ellipse style="fill:#5d4037" cx="39.68" cy="58.81" rx="4.93" ry="5.1"/><ellipse style="fill:#5d4037" cx="72.55" cy="58.81" rx="4.93" ry="5.1"/><path style="fill:#c48e6a" d="M59.97 68.06c-.11-.04-.21-.07-.32-.08h-7.07c-.11.01-.22.04-.32.08-.64.26-.99.92-.69 1.63s1.71 2.69 4.55 2.69 4.25-1.99 4.55-2.69c.3-.71-.06-1.37-.7-1.63z"/><path style="fill:#6d4c41" d="M64.64 76.14c-3.19 1.89-13.63 1.89-16.81 0-1.83-1.09-3.7.58-2.94 2.24.75 1.63 6.45 5.42 11.37 5.42s10.55-3.79 11.3-5.42c.76-1.66-1.09-3.33-2.92-2.24z"/><path style="fill:#a7a9ac" d="m109.33 66.75-3.58 12.62 1.03.23c1.1.25 2.09.69 3.05 1.11.35.15.69.3 1.02.44l1.01.41 3.96-12.9-6.49-1.91z"/><path style="fill:#603913" d="M111.61 79.3c-.32-.13-.64-.27-.97-.42-1-.44-2.13-.94-3.42-1.23l-.93-.21-13.13 46.33h5.73l13.56-44.13-.84-.34z"/><linearGradient id="f" gradientUnits="userSpaceOnUse" x1="100.34" y1="39.059" x2="99.782" y2="-6.429" gradientTransform="matrix(1 0 0 -1 0 128)"><stop offset=".002" style="stop-color:#ffdbb5"/><stop offset="1" style="stop-color:#a97c50"/></linearGradient><path style="fill:url(#f)" d="M105.54 89.04c-3.07 0-6.43.67-10.01 2.14-7.87 3.25-13.02 10.14-16.36 17.53-1.7 3.78-2.55 7.49-2.93 11.46-.12 1.22-.14 2.42-.03 3.7h43.04c10.37-16.72 2.28-34.83-13.71-34.83z"/><path style="fill:#00aeef" d="M98.95 98.97c-.34-1.75-1.85-3.31-3.67-3.43-2.08-.14-3.15 1.66-3.67 3.41-.52 1.75-.55 3.76.65 5.25 1.32 1.64 3.72 1.57 5.01-.04.47-.58.82-1.32 1.04-2.1.63-.86.86-1.99.64-3.09z"/><path style="fill:#00c853" d="M110.32 93.88c-1.73-1.12-4.33-.09-5.85.97-1.71 1.18-2.96 3.48-2.02 5.54.93 2.02 3.41 2.62 5.36 1.83 1.71-.7 3.65-2.57 3.6-4.53.49-1.39.35-2.89-1.09-3.81z"/><path style="fill:#fff200" d="M115.48 103.17c-1.68-.09-3.47.7-4.76 1.74-1.41 1.13-2.4 2.84-1.49 4.61.84 1.61 2.79 2.18 4.48 1.99 1.59-.17 3.12-1.09 4-2.43.32-.48.54-1.05.59-1.62.12-.31.22-.64.26-1 .24-1.9-1.3-3.19-3.08-3.29z"/><path style="fill:#ef4136" d="M111.88 116.49c-.81-1.25-2.38-1.71-3.78-1.98-1.61-.31-3.49-.16-4.75 1.03-1.48 1.39-1.19 3.58.46 4.67.34.22.74.41 1.17.57 1.48 1.12 3.4.79 5.02.19 1.25-.47 2.28-1.57 2.34-2.85 0-.02.01-.03.01-.05.08-.68-.12-1.21-.47-1.58z"/><path style="fill:#00aeef" d="M119.5 68.16c-.15.55-.39 1.08-.73 1.68-.16.28-.34.55-.53.8-1.39 1.84-3.51 2.91-5.66 2.91-.68 0-1.35-.1-2.01-.32-2.32-.77-3.9-2.5-4.39-4.75a6.13 6.13 0 0 1-.16-1.15c-.07-1.15.19-2.38.78-3.77.52-1.22 1.24-2.29 1.93-3.33.52-.79 1.01-1.54 1.43-2.33.32-.64 1.48-3.35 1.94-4.86a1.5 1.5 0 0 1 1.16-1.04 1.5 1.5 0 0 1 1.47.53l.04.04c2.55 3.15 6.82 8.4 4.73 15.59z"/><path style="fill:#d1d3d4" d="M118.24 70.64c-1.39 1.84-3.51 2.91-5.66 2.91-.68 0-1.35-.1-2.01-.32-2.32-.77-3.9-2.5-4.39-4.75 4.21 2.72 4.77-5.36 9.23-5.3 3.87.05.03 6.57 2.83 7.46z"/><path style="fill:#ab872f" d="M56.24 4.03h-.04c-45.43.24-36.12 52.14-36.12 52.14s2.04 5.35 2.97 7.71c.13.34.63.3.71-.05.97-4.34 4.46-19.73 6.22-24.41a6.08 6.08 0 0 1 6.8-3.83c4.45.81 11.55 1.81 19.37 1.81h.16c7.82 0 14.92-1 19.37-1.81 2.9-.53 5.76 1.08 6.79 3.83 1.75 4.66 5.22 19.96 6.2 24.36.08.36.58.39.71.05l2.98-7.67c.01.01 9.32-51.89-36.12-52.13z"/><radialGradient id="g" cx="56.227" cy="80.901" r="38.093" gradientTransform="matrix(1 0 0 -1.1282 0 138.37)" gradientUnits="userSpaceOnUse"><stop offset=".794" style="stop-color:#bfa055;stop-opacity:0"/><stop offset="1" style="stop-color:#bfa055"/></radialGradient><path style="fill:url(#g)" d="M92.37 56.17s9.31-51.9-36.13-52.14h-.04c-.71 0-1.4.02-2.08.05-1.35.06-2.66.16-3.92.31h-.04c-.07.02-.16.03-.25.04-38.24 4.81-29.83 51.74-29.83 51.74l2.98 7.68c.13.34.62.31.7-.05.98-4.39 4.46-19.71 6.22-24.37a6.08 6.08 0 0 1 6.8-3.83c4.45.81 11.55 1.81 19.37 1.81h.16c7.82 0 14.92-1 19.37-1.81 2.9-.53 5.76 1.08 6.79 3.83 1.76 4.68 5.25 20.1 6.21 24.42.08.36.57.39.7.05.94-2.36 2.99-7.73 2.99-7.73z"/><path style="fill:#ab872f" d="M32.12 50.74c2.99-4.23 9.78-4.63 13.67-1.48.62.5 1.44 1.2 1.68 1.98.4 1.27-.82 2.26-2.01 1.96-.76-.2-1.46-.6-2.22-.84-1.37-.43-2.36-.55-3.59-.55-1.82-.01-2.99.22-4.72.92-.71.29-1.29.75-2.1.41-.93-.38-1.27-1.56-.71-2.4zm46.06 2.4c-.29-.13-.57-.29-.86-.41-1.78-.74-2.79-.93-4.72-.92-1.7.01-2.71.24-4.04.69-.81.28-1.84.98-2.74.71-1.32-.4-1.28-1.84-.56-2.76.86-1.08 2.04-1.9 3.29-2.44 2.9-1.26 6.44-1.08 9.17.55.89.53 1.86 1.26 2.4 2.18.78 1.3-.4 3.03-1.94 2.4z"/></svg>