<svg xmlns="http://www.w3.org/2000/svg" viewBox="0 0 128 128" style="enable-background:new 0 0 128 128" xml:space="preserve"><path style="fill:#e0e0e0" d="M4.22 23.15h28.37v71.72H4.22z"/><path style="fill:#e92a02" d="M4.22 91.82h28.37v31.88H4.22zm1.7-52.4c.14.29 24.05.09 24.41.12.63.05.7-.75.7-1.22s.04-4.6 0-4.93c-.05-.47-.31-.63-1.15-.63s-22.7.05-23.17.05c-.47 0-.79.1-.84.68-.05.59-.05 5.72.05 5.93zm-.1 6.45c0-.32.26-.63.73-.63s23.33.1 23.75.1c.42 0 .52.26.52.68v4.93c0 .42 0 1.15-.47 1.21s-8.34 0-8.34 0-.05 14.21-.1 14.94c-.02.26 0 .63-.68.63-.53 0-5.56 0-5.77-.05-.21-.05-.47-.37-.47-1.26V52s-7.86-.05-8.44-.05-.63-.42-.68-1.21c-.05-.78-.05-4.4-.05-4.87z"/><path style="fill:#b0b0b0" d="M37.19 53.66h5.14v64.86h-5.14zm67.17.42h18.99v64.25h-18.99z"/><path style="fill:#dfdfdf" d="M41.21 54.46h78.74v67.94H41.21z"/><path style="fill:#ff511b" d="M125.75 84.58c.52-.01.8.1.8.58v7.48c0 .29-.14.51-.49.51s-91.12-.53-91.39-.51-.19-.63-.19-1.41v-6.75c0-.48.11-.58.65-.58s90.22.69 90.62.68z"/><path style="fill:#6ba5af" d="M47.9 64.43c-.6 0-1.16.3-1.16 1.46v15.59c0 .56.13 1.21.9 1.21h16.24c.56 0 .99-.47.99-1.16V65.42c0-.65-.43-.9-1.25-.9-.82-.01-15.72-.09-15.72-.09zm25.28.39c-.56-.05-.99.3-.99 1.08v16.07c0 .56.3 1.08.9 1.08h16.28c.56 0 .86-.52.86-1.38V65.69c0-.6-.39-.9-1.29-.9-.89-.02-15.24.07-15.76.03zm25.12-.05c-.6 0-.99.47-.99 1.29V82c0 .52.26 1.12.73 1.12h16.33c.6 0 .95-.6.95-1.25V65.63c0-.6-.43-.86-1.08-.86H98.3z"/><path style="fill:#a8cfd6" d="M105.03 64.76h2.8v18.36h-2.8zm-25.21.04h2.93v18.24h-2.93zm-25.37-.33h2.93V82.7h-2.93z"/><path style="fill:#395660" d="M37.18 47.95h86.17v6.94H37.18z"/><path style="fill:#6e8690" d="M37.2 117.77h86.15v5.47H37.2z"/><path style="fill:#3b5361" d="M43.79 112.34c0 .81.7 1.41 1.41 1.41h52.15s-.18 9.27 0 9.44c.17.17 19.35.23 19.52.05.17-.17.25-29.97-.08-30.15-.02-.01-73.05-.4-73.05-.4s.05 18.77.05 19.65z"/><path style="fill:#6ba5af" d="M46.59 94.76h14.96v16.43H46.59zm17.44.06h15.29v16.48H64.03zm17.81-.03H97v16.48H81.84zm18.03-.02h14.57v26.27H99.87z"/><path style="fill:#3b5361" d="M86.47 116.34s-.01 6.55.16 6.98c.11.27 6.49.22 6.6 0 .1-.2.11-6.76.11-6.76l-6.87-.22z"/><path style="fill:#e92c02" d="M82.52 103.09c-1.14.08-1.45.55-1.45 1.68s.04 12.01.08 12.44c.08.99.56 1.41 1.26 1.41h14.91c.66 0 .98-.47 1.03-1.07.05-.6-.04-12.46-.04-13.06s-.38-1.35-1.19-1.35-13.79-.11-14.6-.05z"/><path style="fill:#e0e0e0" d="M84.46 105.07c-.84 0-1.41.11-1.46 1.24-.03.81-.11 4.06-.11 4.6s-.08 1.45 1.45 1.45c1.19 0 10.37.1 11.18.04.76-.05 1-.49 1.06-1.74.03-.76 0-3.46 0-4.11s-.48-1.36-1.44-1.4c-.91-.04-9.76-.08-10.68-.08z"/></svg>