<svg xmlns="http://www.w3.org/2000/svg" viewBox="0 0 128 128" style="enable-background:new 0 0 128 128" xml:space="preserve"><path style="fill:#afafaf" d="M29.39 61.37s.26-4.98-4.23-4.57c-4.52.41-2.88 6.55-2.88 6.55l7.11-1.98z"/><path style="fill:#171717" d="m48.56 93.79-5.99.7s.3 12.08-.5 13.38c-.8 1.3-5.99 4.59-5.99 4.59s-.5 1.8 2.3 2.8c2.8 1 8.29.6 8.29.6l7.89-19.28-6-2.79zm43.35.9c-.6.1-8.39 2.8-8.39 2.8s2.8 10.29 1.1 11.98-4.79 3.1-2.9 4.39c1.9 1.3 9.29 1.1 11.29-1s2.2-3.8 2.3-5.89c.1-2.1-.2-12.68-.2-12.68l-3.2.4z"/><path style="fill:#575a5b" d="M46.84 100.06s.82 9.89-.22 11.24c-1.05 1.35-5.47 4.19-5.62 4.72-.15.52-.07 3.9 5.77 3.82s9.74-.79 12.28-3.86c2.55-3.07 2.25-12.32 2.25-12.32s10.71-.3 14.08-.67 7.57-.67 7.57-.67 1.12 4.64.52 6.37c-.6 1.72-2.77 3.22-2.17 3.82.6.6 3.52-.22 4.34-2.47.82-2.25.15-8.16.15-8.16s4.72-.67 7.64-1.27 4.42-.82 4.42-.82 1.2 6.89.75 9.06c-.45 2.17-5.84 7.19-3.9 7.64 1.95.45 5.58 1.16 9.14.3 2.81-.68 5.33-3.36 5.58-5.02.11-.75.2-2.24.22-3.63.04-2.1-.41-17.19-.41-17.19l-53.71-23-7.72-1.27s-2.4-1.05-4.19-1.87c-1.8-.82-3.97-1.42-3.97-1.42s0-5.02-2.4-5.24c-2.4-.22-3.97 2.85-3.97 2.85l-6.44 1.27-10.78 5.13-4.49 8.16-4.34.52s-5.84.94-6.52 3.67c-.61 2.49.97 3.3.97 3.3s.11 1.61.79 2.66 1.84 1.24 1.84 1.24 1.07 1.74 2.4 2.32c2.92 1.27 5.18.67 8.24.45 3.15-.22 6.97-.52 6.97-.52s6.89 3 11.09 4.72 8.69 3.82 8.69 3.82.07 7.72-.52 9.89c-.6 2.17-5.84 3.67-5.69 4.79.15 1.12 2.85-.07 4.49-.97s2.77-2.25 3.15-3.52c.37-1.27.45-9.66.45-9.66l3.27 1.79z"/><path style="fill:#dfdfdf" d="m113.28 88.55-2 5.37s1.37 2.8 3.65 4.94c2 1.89 3.29 2.73 5.39 2.7 3.1-.05 8.24-3.82 6.97-5.32-1.04-1.22-4.94-4.54-4.94-4.54l-9.07-3.15z"/><path style="fill:#afafaf" d="M81.15 56.77c15.43.75 24.42 7.72 27.57 14.31 3.15 6.59 4.27 9.89 5.32 11.54s9.44 10.04 9.44 10.04-1.91 1.89-5.92 2.55c-3.22.52-5.62-.15-5.62-.15s-.62-.84-1.12-1.6c-.35-.52-.9-1.25-1.87-.6-1.26.84-4.19 5.34-9.21 5.64-6.03.36-11.76-1.8-11.76-1.8s.22 2.77-.37 2.92c-.6.15-4.83-1.39-6.59-2.36-1.45-.8-4.87-3.18-4.87-3.18s1.65 5.24 1.2 5.77c-.45.52-3.71-.45-5.92-2.25-1.49-1.21-7.42-6.37-7.42-6.37s1.8 5.47 1.35 6.07c-.45.6-4.51-1.2-7.34-4.72-3.07-3.82-4.79-7.79-5.99-13.63-1.12-5.48-1.57-7.42-2.25-9.36s-1.95-2.92-1.95-2.92 3.45.15 4.72-.52c1.25-.69 14.81-10.06 28.6-9.38z"/><path style="fill:#dfdfdf" d="M49.31 84.78c-.07.6-12.16.52-15.46.67-3.3.15-10.76 2.02-13.83 2.4-3.07.37-8.16 1.35-10.56.97-2.4-.37-2.62-.97-2.55-1.35.07-.37 2.92.04 3.52-.82.6-.86-.04-1.8-.9-1.31s-2.72.79-3.92.64-1.92-1.2-1.92-1.84 1.8-.84 2.52-1.56c.96-.96 1.52-2.2 1.37-4.32-.1-1.4-.55-2.05-.27-2.2.4-.22 1.45-.3 2.37-2.67.75-1.92 2.27-5.48 5.12-7.62 3.21-2.41 5.94-3.94 11.14-4.72 5.09-.76 5.51-.36 5.51-.36s1.65-4.72 6.22-3.9 3.11 6.88 3.11 6.88l-2.05-.32s.59-3.07-1.59-3.45c-2.17-.37-3.11 2.51-3.11 2.51s-8.01.79-11.27 2.73c-3.6 2.15-11.24 8.54-9.14 13.15s11.87.07 13.56-1.05c1.69-1.12 6.69-4.7 9.7-3.96 3 .74 3.98 3.07 6.77 5.52 1.65 1.47 5.77 5.01 5.66 5.98z"/><path style="fill:#191919" d="M24.07 74.78c-.64 1.69-2.1 2.43-3.9 1.98-1.55-.39-2.4-3.07-1.35-5.02.94-1.75 2.77-1.84 4.12-1.35 1.5.55 1.82 2.57 1.13 4.39z"/><path style="fill:#e1e1e1" d="M21.43 73.24c-.43.79-1.43 1.34-2.12.72-.49-.44-.28-1.52.34-2.47.62-.95 1.69-1.17 2.06-.7.48.62.13 1.71-.28 2.45z"/><path style="fill:#dfdfdf" d="M33.73 113.02c.09.9 3.33 1.31 3.18-.45-.15-1.76-3.29-.64-3.18.45z"/><path style="fill:#dfdfdf" d="M35.64 115.83c.44.86 4.04.04 3.18-1.72-.86-1.76-3.78.56-3.18 1.72zm3.45 2.21c.36.87 4.42-.49 3.67-1.8s-4.35.19-3.67 1.8z"/><path style="fill:#dfdfdf" d="M40.81 120.17c.61 1.03 4.79-.71 3.56-2.1s-4.2 1.02-3.56 2.1z"/><path style="fill:#e0e0e0" d="M79.46 113.66c.29.79 3.33.04 3-1.05s-3.3.22-3 1.05zm2.58 1.87c.59.44 3.41-1.35 2.1-2.06s-2.99 1.39-2.1 2.06zm3 .52c1.22.37 3.41-1.91 1.87-2.36-1.53-.45-2.73 2.1-1.87 2.36zm10.86-1.08c-.87-.73-3.6.86-2.77 1.95.82 1.08 3.93-.98 2.77-1.95zm-.05 3.68c1.29.7 3.79-2.54 2.35-2.97-1.44-.42-3.38 2.41-2.35 2.97zm5.26-2.63c-1.6-.23-3.52 2.73-1.8 2.85s3.33-2.63 1.8-2.85z"/><path style="fill:#999" d="M65.79 84.95c-.31 0-.63-.14-.84-.41l-2.25-2.85c-.36-.46-.29-1.13.18-1.49.46-.36 1.13-.28 1.49.18l2.25 2.85a1.064 1.064 0 0 1-.83 1.72zm11.98 1.27c-.24 0-.48-.08-.67-.24l-3.75-3.07c-.46-.37-.52-1.04-.15-1.5.37-.45 1.04-.52 1.5-.15l3.75 3.07a1.064 1.064 0 0 1-.68 1.89zm4.35-9.44c-.21 0-.42-.06-.61-.19l-3.75-2.62c-.48-.34-.6-1-.26-1.48.34-.48 1-.6 1.48-.26l3.75 2.62c.48.34.6 1 .26 1.48-.21.29-.54.45-.87.45zm11.38-3.17c-.22 0-.44-.07-.62-.2l-3.82-2.77a1.07 1.07 0 0 1-.24-1.49c.34-.48 1.01-.58 1.49-.24l3.82 2.77c.48.35.58 1.01.24 1.49-.21.29-.54.44-.87.44zm2.1 9.61c-.17 0-.34-.04-.5-.12l-3.37-1.8a1.07 1.07 0 0 1-.44-1.44c.28-.52.92-.71 1.44-.44l3.37 1.8c.52.28.71.92.44 1.44-.19.36-.56.56-.94.56zm9.42-6.56a.992.992 0 0 1-.48-.19l-3.11-2.21a1.06 1.06 0 1 1 1.23-1.73l3.11 2.21c.48.34.59 1.01.25 1.48-.23.33-.62.49-1 .44z"/></svg>