<svg xmlns="http://www.w3.org/2000/svg" viewBox="0 0 128 128" style="enable-background:new 0 0 128 128" xml:space="preserve"><path style="fill:#8e24aa" d="M116.46 3.96h-104c-4.42 0-8 3.58-8 8v104c0 4.42 3.58 8 8 8h104c4.42 0 8-3.58 8-8v-104c0-4.42-3.58-8-8-8z"/><path style="fill:#ab47bc" d="M110.16 3.96h-98.2a7.555 7.555 0 0 0-7.5 7.5v97.9c-.01 4.14 3.34 7.49 7.48 7.5h98.12c4.14.01 7.49-3.34 7.5-7.48V11.46c.09-4.05-3.13-7.41-7.18-7.5h-.22z"/><path style="opacity:.3;fill:#fafafa;enable-background:new" d="M40.16 12.86c0-2.3-1.6-3-10.8-2.7-7.7.3-11.5 1.2-13.8 4s-2.9 8.5-3 15.3c0 4.8 0 9.3 2.5 9.3 3.4 0 3.4-7.9 6.2-12.3 5.4-8.7 18.9-10.6 18.9-13.6z"/><g style="opacity:.2"><path style="fill:#424242" d="M64.46 15.96c2.76 0 5 2.24 5 5v6h14c2.76 0 5 2.24 5 5s-2.24 5-5 5h-14v9h30c2.76 0 5 2.24 5 5s-2.24 5-5 5h-30v25.1l12.5 6.9c2.37 1.41 3.16 4.48 1.75 6.85-.89 1.5-2.5 2.43-4.25 2.45-.88 0-1.75-.24-2.5-.7l-7.5-4v14.4c0 2.76-2.24 5-5 5s-5-2.24-5-5v-20.1l-12.5-6.9c-2.37-1.41-3.16-4.48-1.75-6.85.89-1.5 2.5-2.43 4.25-2.45.88 0 1.75.24 2.5.7l7.5 4v-19.4h-30c-2.76 0-5-2.24-5-5s2.24-5 5-5h30v-9h-14c-2.76 0-5-2.24-5-5s2.24-5 5-5h14v-6c0-2.76 2.24-5 5-5"/></g><path style="fill:#fafafa" d="M99.46 55.96c2.76 0 5-2.24 5-5s-2.24-5-5-5h-30v-9h14c2.76 0 5-2.24 5-5s-2.24-5-5-5h-14v-6c0-2.76-2.24-5-5-5s-5 2.24-5 5v6h-14c-2.76 0-5 2.24-5 5s2.24 5 5 5h14v9h-30c-2.76 0-5 2.24-5 5s2.24 5 5 5h30v19.3l-7.5-4a4.916 4.916 0 0 0-6.74 1.69c-.02.04-.04.07-.06.11a4.997 4.997 0 0 0 1.8 6.8l12.5 7v20.1c0 2.76 2.24 5 5 5s5-2.24 5-5v-14.3l7.5 4c.75.46 1.62.7 2.5.7a5.002 5.002 0 0 0 4.95-5.05 5.007 5.007 0 0 0-2.45-4.25l-12.5-7v-25.1h30z"/></svg>