<svg xmlns="http://www.w3.org/2000/svg" viewBox="0 0 128 128" style="enable-background:new 0 0 128 128" xml:space="preserve"><linearGradient id="a" gradientUnits="userSpaceOnUse" x1="64" y1="32.821" x2="64" y2="-.181" gradientTransform="matrix(1 0 0 -1 0 128)"><stop offset="0" style="stop-color:#00bfa5"/><stop offset=".47" style="stop-color:#00b29a"/><stop offset="1" style="stop-color:#009e89"/></linearGradient><path style="fill:url(#a)" d="M64.13 96H64c-25.49.03-52 7.28-52 25.06V124h104v-2.94C116 104.3 89.74 96 64.13 96z"/><path style="fill:#c48e6a" d="M54.92 90.08v9.98c0 4.51 3.7 8.17 8.26 8.17h1.65c4.56 0 8.26-3.66 8.26-8.17v-9.98H54.92zm36.41-39.65H36.67c-5.89 0-10.71 5.14-10.71 11.41s4.82 11.41 10.71 11.41h54.65c5.89 0 10.71-5.14 10.71-11.41s-4.81-11.41-10.7-11.41z"/><path style="fill:#e0bb95" d="M64.02 11.07c-17.4-.01-33.53 18.6-33.54 45.38-.01 26.64 16.59 39.82 33.5 39.83s33.53-13.15 33.54-39.79c.01-26.8-16.1-45.42-33.5-45.42z"/><path style="fill:#c48e6a" d="M67.81 68.06c-.11-.04-.21-.07-.32-.08H60.5c-.11.01-.21.04-.32.08-.63.26-.98.91-.68 1.61.3.7 1.69 2.66 4.49 2.66 2.8 0 4.2-1.96 4.49-2.66.31-.7-.03-1.36-.67-1.61z"/><path style="fill:#5d4037" d="M47.69 60.3c-2.06 0-3.9-.5-5.18-1.29-.55-.34-.87-.14-.77.5.37 2.48 2.9 4.4 5.95 4.4 3.06 0 5.58-1.92 5.95-4.4.1-.64-.22-.84-.77-.5-1.28.79-3.12 1.29-5.18 1.29zm32.62 0c-2.06 0-3.9-.5-5.18-1.29-.55-.34-.87-.14-.77.5.38 2.48 2.9 4.4 5.95 4.4s5.58-1.92 5.95-4.4c.1-.64-.22-.84-.77-.5-1.28.79-3.13 1.29-5.18 1.29z"/><path style="fill:#ab872f" d="M39.99 50.73c3.19-4.56 10.76-4.64 14.48-.74.68.71 1.35 1.67.65 2.63-.76 1.05-1.87.54-2.81.15-2.37-.97-5.02-1.24-7.52-.65-.53.12-1.05.29-1.56.47s-1 .52-1.53.63c-1.39.3-2.5-1.31-1.71-2.49zm46.06 2.4c-2.23-.97-4.49-1.53-6.95-1.25-1.12.13-2.22.42-3.26.83-.83.33-1.72.86-2.58.28-2.45-1.69 1.89-4.44 3.17-4.99 2.76-1.19 6.05-1.08 8.72.31 1.06.55 2.21 1.35 2.84 2.4.79 1.31-.39 3.05-1.94 2.42z"/><path style="fill:#6d4c41" d="M73.95 81.76c0 1.01-4.46 1.22-9.95 1.22s-9.95-.23-9.95-1.22c0-1.04 4.46-1.68 9.95-1.68s9.95.62 9.95 1.68z"/><path style="fill:#ab872f" d="M64.02 4.61h-.04c-45.44.24-36.13 52.14-36.13 52.14s2.04 5.35 2.97 7.71c.13.34.63.3.71-.05.97-4.34 4.46-19.73 6.22-24.4a6.075 6.075 0 0 1 6.79-3.83c4.45.81 11.55 1.81 19.37 1.81h.16c7.82 0 14.92-1 19.37-1.81 2.9-.53 5.76 1.08 6.79 3.83 1.75 4.66 5.22 19.96 6.2 24.36.08.36.58.39.71.05l2.98-7.67c.03 0 9.33-51.9-36.1-52.14z"/><radialGradient id="b" cx="63.999" cy="80.321" r="38.092" gradientTransform="matrix(1 0 0 -1.1282 0 138.296)" gradientUnits="userSpaceOnUse"><stop offset=".794" style="stop-color:#bfa055;stop-opacity:0"/><stop offset="1" style="stop-color:#bfa055"/></radialGradient><path style="fill:url(#b)" d="M100.15 56.75s9.31-51.9-36.13-52.14h-.04c-.71 0-1.4.02-2.08.05-1.35.06-2.66.16-3.92.31h-.04c-.08.02-.16.03-.25.04-38.25 4.81-29.84 51.74-29.84 51.74l2.98 7.68c.13.34.62.31.7-.05.98-4.39 4.46-19.71 6.22-24.37a6.075 6.075 0 0 1 6.79-3.83c4.45.81 11.55 1.81 19.37 1.81h.16c7.82 0 14.92-1 19.37-1.81 2.9-.53 5.76 1.08 6.79 3.83 1.76 4.68 5.25 20.1 6.22 24.42.08.36.57.39.7.05.94-2.36 3-7.73 3-7.73z"/><linearGradient id="c" gradientUnits="userSpaceOnUse" x1="70.56" y1="42.712" x2="58.043" y2="36.818" gradientTransform="matrix(1 0 0 -1 0 128)"><stop offset=".509" style="stop-color:#000"/><stop offset="1" style="stop-color:#000;stop-opacity:0"/></linearGradient><path style="opacity:.2;fill:url(#c);enable-background:new" d="M82.42 74.24c1.75-4.43 1.44-6.57.16-10.63-.33-1.05-.53-3.34-.6-4.12-.26-2.98.76-6.75 1.41-7.5 1.19-1.37 1.53-2.85 1.38-4.38-.22-2.22-3.89-5.01-7.91-.84-1.62 1.69-2.31 4.38-2.31 4.38-1.81-4.31-4.98-11.93-5.39-12.9l-.06-.15c-.65-1.63-1.88-2.88-3.35-3.4-1.33-.48-2.76-.35-4.04.35-.88.48-1.57 1.22-2 2.1-1.38-1.3-3.16-1.76-4.93-1.16-1.39.47-2.45 1.46-2.98 2.78-.35.88-.45 1.85-.3 2.83-1.09-.2-2.22 0-3.24.6-.94.56-3.81 2.71-1.49 7.17.05.1.12.23.21.38-.88.04-1.59.33-2.05.59-1.3.72-2.19 1.87-2.49 3.25-.33 1.48.06 3.1 1.04 4.43l6.18 9.06s3.87 5.86 5.46 8.3c1.27 1.94 2.69 3.53 4.25 4.73-.34.99-.28 2.05.14 2.92L74.45 124h34.47s-26.49-49.75-26.5-49.76z"/><linearGradient id="d" gradientUnits="userSpaceOnUse" x1="58.335" y1="91.626" x2="75.08" y2="53.3" gradientTransform="matrix(1 0 0 -1 0 128)"><stop offset=".5" style="stop-color:#e0bb95"/><stop offset="1" style="stop-color:#cca47a"/></linearGradient><path style="fill:url(#d)" d="M81.77 45.85c-1.08-.41-2.83-.01-4.37 1.86s-1.01 4.46-1.65 6.08c-.21.52-.94.52-1.15 0-1.4-3.44-6.7-16.01-6.7-16.01-.68-1.71-2.29-2.66-3.87-1.79-1.26.69-1.49 2.26-.91 3.69l4.29 11.51c.06.15 0 .32-.13.38-.14.07-.32.01-.4-.15L60 38.92c-.71-1.36-1.94-2.27-3.3-1.81-1.69.57-2.06 2.41-1.21 4.05l6.22 12.72c.16.31.06.67-.21.84 0 0-.01 0-.01.01-.28.17-.66.06-.84-.25 0 0-5.46-8.63-6.22-9.89s-2.22-2.41-3.78-1.49-1.31 2.42-.55 3.87c.65 1.24 4.61 7.94 5.76 9.87a.62.62 0 0 1-1.01.71l-4.17-5.05c-1.03-1.25-2.17-1.91-3.42-1.22-1.56.86-1.69 2.59-.6 4.08l6.2 9.09s3.88 5.87 5.47 8.31c4.19 6.42 8.62 6.24 9.52 6.26 2.34.05 7.24-2.01 8.82-2.77 8.83-4.24 4.41-11.94 4.01-16.53-.25-2.83.83-8.11 2.23-9.95 1.35-1.84-.23-3.58-1.14-3.92z"/><linearGradient id="e" gradientUnits="userSpaceOnUse" x1="98.166" y1="31.535" x2="77.515" y2="21.768" gradientTransform="matrix(1 0 0 -1 0 128)"><stop offset="0" style="stop-color:#00bfa5"/><stop offset=".47" style="stop-color:#00b29a"/><stop offset="1" style="stop-color:#009e89"/></linearGradient><path style="fill:url(#e)" d="M78.69 124 62.95 80.9c-.02-.04-.03-.09-.06-.13-.18-.37-.2-.79-.05-1.17s.43-.69.8-.85l16.58-7.29c.19-.08.4-.13.6-.13.56 0 1.07.31 1.33.8L111.94 124H78.69z"/></svg>