<svg xmlns="http://www.w3.org/2000/svg" viewBox="0 0 128 128" style="enable-background:new 0 0 128 128" xml:space="preserve"><path style="fill:#f77e00" d="M116 4H12c-4.42 0-8 3.58-8 8v104c0 4.42 3.58 8 8 8h104c4.42 0 8-3.58 8-8V12c0-4.42-3.58-8-8-8z"/><path style="fill:#ff9800" d="M109.7 4H11.5A7.555 7.555 0 0 0 4 11.5v97.9c-.01 4.14 3.34 7.49 7.48 7.5h98.12c4.14.01 7.49-3.34 7.5-7.48V11.5c.09-4.05-3.13-7.41-7.18-7.5h-.22z"/><path style="fill:#fafafa" d="m110.6 32.9-16-16A4.051 4.051 0 0 0 88 20v6.6c.02.97-.65 1.81-1.6 2a45.452 45.452 0 0 0-28.9 18.7A115.75 115.75 0 0 0 51 58.1c-7.3 13-15.5 27.7-31.5 29.7a3.994 3.994 0 0 0-3.5 4v8.1a4.059 4.059 0 0 0 4.08 4.02c.11 0 .21-.01.32-.02C45 101.5 57 80.3 65 66c1.71-3.19 3.58-6.3 5.6-9.3a28.89 28.89 0 0 1 14.8-11.3 2 2 0 0 1 2.6 1.9v4.8a4.046 4.046 0 0 0 4.1 4c.91-.01 1.8-.33 2.5-.9l16-16a4.192 4.192 0 0 0 0-6.3z"/><path style="fill:#fafafa" d="M94.6 72.9A4.051 4.051 0 0 0 88 76v4.8c0 1.1-.9 2-2.01 1.99-.2 0-.4-.03-.59-.09a30.635 30.635 0 0 1-14.9-11.3c-.4-.6-.8-1.2-1.3-1.9a1.003 1.003 0 0 0-1.7 0c-2.2 4-4.8 8.4-7.8 12.8-.2.37-.2.83 0 1.2a45.525 45.525 0 0 0 26.6 15.8c.96.2 1.66 1.02 1.7 2v6.7a4.046 4.046 0 0 0 4.1 4c.91-.01 1.8-.33 2.5-.9l16-16a4.084 4.084 0 0 0 0-6.2l-16-16z"/><path style="opacity:.65;fill:#ffbd52;enable-background:new" d="M39.7 12.9c0-2.3-1.6-3-10.8-2.7-7.7.3-11.5 1.2-13.8 4s-2.9 8.5-3 15.3c0 4.8 0 9.3 2.5 9.3 3.4 0 3.4-7.9 6.2-12.3 5.4-8.7 18.9-10.6 18.9-13.6z"/><path style="fill:#fafafa" d="M19.6 40.2c11.4 1.4 18.9 9.3 24.8 18.5a1.003 1.003 0 0 0 1.7 0c1.9-3.3 6.5-11 7.8-13.1.22-.35.18-.8-.1-1.1-7.6-9.9-18-18.8-33.5-20.2a3.888 3.888 0 0 0-4.28 3.46c-.01.14-.02.29-.02.44v8.1c0 2.04 1.57 3.74 3.6 3.9z"/><path style="opacity:.3;fill:#ffbd52;enable-background:new" d="M39.7 12.9c0-2.3-1.6-3-10.8-2.7-7.7.3-11.5 1.2-13.8 4s-2.9 8.5-3 15.3c0 4.8 0 9.3 2.5 9.3 3.4 0 3.4-7.9 6.2-12.3 5.4-8.7 18.9-10.6 18.9-13.6z"/></svg>