<svg xmlns="http://www.w3.org/2000/svg" viewBox="0 0 128 128" style="enable-background:new 0 0 128 128" xml:space="preserve"><path style="fill:#427687" d="M116 4H12c-4.4 0-8 3.6-8 8v104c0 4.4 3.6 8 8 8h104c4.4 0 8-3.6 8-8V12c0-4.4-3.6-8-8-8z"/><path style="fill:#8cafbf" d="M121.7 6.3C120.2 4.9 118.2 4 116 4H12c-4.4 0-8 3.6-8 8v104c0 2.2.9 4.2 2.3 5.7l16.8-16.8h76c3.3 0 5.9-2.7 5.9-5.9V23l16.7-16.7z"/><path style="opacity:.5;fill:#b4e1ed;enable-background:new" d="M39.7 12.9c0-2.3-1.6-3-10.8-2.7-7.7.3-11.5 1.2-13.8 4s-2.9 8.5-3 15.3c0 4.8 0 9.3 2.5 9.3 3.4 0 3.4-7.9 6.2-12.3 5.4-8.7 18.9-10.6 18.9-13.6z"/></svg>