<svg xmlns="http://www.w3.org/2000/svg" viewBox="0 0 128 128" style="enable-background:new 0 0 128 128" xml:space="preserve"><path style="opacity:.7;fill:#e0e0e0" d="M32.09 3.96S19.77 7.32 13.85 25.08c-6.18 18.53 2.39 28.36 2.39 28.36l70.09 32.58 4.23-1.41 8.74-5.52 9.82-16.58 5.36-22.96-4.9-14.46L32.09 3.96z"/><path style="fill:#cfcfcf" d="M39.57 11.47c-6.23-2.05-15.83 6.93-18.35 18.26s-.28 20.6 5.34 22.66c5.62 2.06 14.14-6.74 17.14-17.14 2.99-10.39 2.43-21.63-4.13-23.78z"/><path style="fill:#fff" d="M24.34 17.5c-2.24-.93-5.48.94-8.31 11.46-1.9 7.07-1.38 13.77 2.26 13.9 3.5.12 1.31-4.1 3.62-12.94 2.33-8.93 5.87-11 2.43-12.42zm35.55 12.82c.6 2.57 4.11 3.98 11.94 6.68s16.18 5.39 16.18 5.39l7.51-10.79s-18.62-5.97-22.98-7.13c-4.37-1.16-7.32-1.01-9.89.45-1.93 1.09-3.21 3.47-2.76 5.4z"/><path style="fill:#c8c8c8" d="m109.54 25.06-2.65 2.63s4.33.14 5.22 7.62c.81 6.75-.31 14.58-2.88 22.06-2.86 8.34-7.83 16.8-13.49 21.92-4.34 3.93-7.65 2.86-7.65 2.86l-1.76 3.88s5.17 2.25 11.97-3.95c6.73-6.13 11.55-15.13 14.3-23.53 3.3-10.12 3.79-17.92 2.86-24.05-.91-6.01-3-8.41-5.92-9.44z"/><path style="fill:#865c50" d="M23.99 51.59c-.33.65.75.94 6.55 3.73 4.83 2.33 19.64 9.16 32.94 15 10.98 4.82 22.49 10.18 23.29 10.76 2.16 1.57 2.92 3.33 2.92 9.5 0 7.6-.53 24.56-.53 27.28 0 3.4-.45 8.39 3.74 8.62 4.2.23 3.97-4.99 3.97-7.71s0-23.28-2.27-34.98c-.54-2.76-1.46-6.47-6.68-9.61-2.24-1.34-5.4-2.5-9.4-4.07-16.28-6.42-37.57-15.55-46.08-18.61-3.37-1.2-7.38-2.05-8.45.09z"/><path style="fill:#fff" d="M92.35 111.1c-.83-.04-1.17.92-1.22 5.55-.05 4.62-.1 6.13 1.22 6.08 1.31-.05 1.22-1.9 1.17-6.13-.04-3.11-.05-5.45-1.17-5.5z"/><path style="fill:#c8c8c8" d="M83.36 49.85c-4.09 10.12-5.13 21.63-3.25 28.66 1.82 6.8 6.21 7.52 6.21 7.52l1.76-3.88s-2.43.29-3.89-3.79c-1.46-4.09-1.46-18.4 2.72-28.02 5.79-13.3 12.82-19.11 16.05-20.79 3.46-1.8 5.94-.81 5.94-.81l.67-3.65s-4.78-2.22-11.44 2.83c-6.32 4.81-11.14 12.94-14.77 21.93z"/><path style="fill:#fff" d="M109.65 29.33c-.38.76-1.87.01-5.2 1.38-4.59 1.88-8.3 6.22-12.11 12.51-3.28 5.41-7.01 13.75-7.46 23.74s2.07 14.11 2.78 15.02c.72.91 1.14.95.86 1.67-.4 1.02-1.91.56-2.68-.05-1.41-1.12-4.56-5.34-3.9-15.75.54-8.65 4.01-19.7 9.33-28.31 4.94-8 9.3-11.02 14.31-11.93 3.35-.62 4.64.58 4.07 1.72z"/></svg>