<svg xmlns="http://www.w3.org/2000/svg" viewBox="0 0 128 128" style="enable-background:new 0 0 128 128" xml:space="preserve"><path style="fill:#f77e00" d="M116.46 4.14h-104c-4.42 0-8 3.58-8 8v104c0 4.42 3.58 8 8 8h104c4.42 0 8-3.58 8-8v-104c0-4.42-3.58-8-8-8z"/><path style="fill:#ff9800" d="M110.16 4.14h-98.2a7.555 7.555 0 0 0-7.5 7.5v97.9c-.01 4.14 3.34 7.49 7.48 7.5h98.12c4.14.01 7.49-3.34 7.5-7.48V11.64c.09-4.05-3.13-7.41-7.18-7.5h-.22z"/><path style="opacity:.75;fill:#ffbd52;enable-background:new" d="M40.16 13.04c0-2.3-1.6-3-10.8-2.7-7.7.3-11.5 1.2-13.8 4s-2.9 8.5-3 15.3c0 4.8 0 9.3 2.5 9.3 3.4 0 3.4-7.9 6.2-12.3 5.4-8.7 18.9-10.6 18.9-13.6z"/><path style="fill:#fafafa" d="m107.46 62.14-39.9-25.7c-.98-.58-2.24-.26-2.82.72-.23.39-.33.84-.28 1.28v22.3l-37-24.3c-1.4-.9-3 .2-3 2v51.4c0 1.8 1.7 2.9 3 2l37-24.4v22.3c-.13 1.13.69 2.15 1.82 2.28.45.05.9-.05 1.28-.28l39.9-25.6c1.1-.76 1.38-2.28.62-3.38-.17-.25-.38-.46-.62-.62z"/><path style="opacity:.2;fill:#fff;enable-background:new" d="m107.36 66.14-39.8 25.7c-.35.24-.78.34-1.2.3a.632.632 0 0 1-.4-.1c-.1 0-.2-.1-.4-.2-.24-.11-.45-.28-.6-.5-.12-.1-.2-.24-.2-.4-.2-.33-.31-.71-.3-1.1v-22.4l-3 2-34 22.4c-.35.24-.78.34-1.2.3a.632.632 0 0 1-.4-.1c-.1 0-.2-.1-.4-.2-.7-.46-1.12-1.26-1.1-2.1v-51.3c-.08-1 .54-1.91 1.5-2.2.1 0 .2-.1.4-.1.42-.04.85.06 1.2.3l34 22.4 3 2v-22.4c0-.42.11-.83.3-1.2.1-.1.1-.2.2-.4.17-.2.38-.36.6-.5.1-.1.2-.1.4-.2s.3-.1.4-.1c.42-.04.85.06 1.2.3l39.8 25.8c1.1.76 1.38 2.28.62 3.38-.17.24-.38.45-.62.62z"/></svg>