<svg xmlns="http://www.w3.org/2000/svg" viewBox="0 0 1000 1000"><path fill="#d20000" d="M8 195.25c170.83-85.22 341.03-54.42 513.26-27.97 155.21 23.84 312.16 44.57 470.74-34.53v672c-170.83 85.22-341.03 54.42-513.26 27.97C323.53 808.88 166.58 788.15 8 867.25v-672"/><path fill="#ffe600" d="M8 195.25c48.74-24.32 97.4-39.34 147.6-47.72C269.23 235.63 382.85 359.65 500 488c113.69-89.35 227.42-178.12 344.4-307.53 48.72-8.13 97.4-22.68 147.6-47.72-174.38 206.12-348.39 290.94-524.18 384.27C316.01 597.62 162.93 684.12 8 867.25c48.74-24.32 97.4-39.34 147.6-47.72C269.31 693.73 382.92 604.02 500 512c113.53 124.38 227.28 249.67 344.4 340.47 48.72-8.13 97.4-22.68 147.6-47.72-171.58-31.54-342.84-180.04-515.93-324.79C321.78 350.95 165.73 224.25 8 195.25m984 206.3v134.4c-170.91 61.92-341.2 7.79-513.53-42.21-155.1-45.01-311.99-87.1-470.47-29.69v134.4c170.92-108.61 341.23-100.99 513.53-98.07 155.16 2.64 311.98 1.88 470.47-98.83M450.8 156.49 500 452l49.2-280.49-98.4-15.02m0 672L500 548l49.2 295.51-98.4-15.02"/><path fill="#ffe600" d="M579.07 511.8c-.24 59.99-35.19 102.66-79.07 96.2-43.83-7.11-78.83-60.01-79.07-119.8.24-59.99 35.19-102.66 79.07-96.2 43.83 7.11 78.83 60.01 79.07 119.8"/><path fill="#d20000" d="M587.86 512.99c-.1 33.25-8.59 60.15-25.73 81.28-17.38 20.98-37.69 29.36-62.13 25.73-24.38-3.93-44.79-18.58-62.13-44.54-17.13-26.06-25.63-55.2-25.73-88.45.1-33.25 8.59-60.15 25.73-81.28 17.38-20.98 37.69-29.36 62.13-25.73 24.38 3.93 44.79 18.58 62.13 44.54 17.13 26.06 25.63 55.2 25.73 88.45m-17.57-2.42c-.18-64.15-23.32-99.06-70.29-106.57-47-7.04-70.11 21.23-70.29 85.43.18 64.15 23.32 99.06 70.29 106.57 47 7.04 70.11-21.23 70.29-85.43"/><path fill="#1A1A1A" opacity=".2" d="M8 195.25c170.83-85.22 341.03-54.42 513.26-27.97 155.21 23.84 312.16 44.57 470.74-34.53v672c-170.83 85.22-341.03 54.42-513.26 27.97C323.53 808.88 166.58 788.15 8 867.25v-672m31.25 19.39v604.5c306.56-128.26 611.18 96.04 921.5-33.78v-604.5c-306.56 128.26-611.18-96.04-921.5 33.78"/></svg>