<svg xmlns="http://www.w3.org/2000/svg" version="1.0" viewBox="0 0 1000 1000"><path fill="#74acdf" d="M8 195.25c170.83-85.22 341.03-54.42 513.26-27.97 155.21 23.84 312.16 44.57 470.74-34.53v672c-170.83 85.22-341.03 54.42-513.26 27.97C323.53 808.88 166.58 788.15 8 867.25v-672"/><path fill="#fff" d="M8 419.25c170.83-85.22 341.03-54.42 513.26-27.96 155.21 23.84 312.16 44.57 470.74-34.54v224.01c-170.83 85.22-341.03 54.42-513.26 27.97C323.53 584.89 166.58 564.16 8 643.26V419.25"/><path fill="#f6b40e" d="m496.11 501.16 35 88.71c.05.12.56 1.51 1.58 1.39.9-.46.41-1.84.36-1.97l-29.17-90.45-7.77 2.32m6.94 29.97c-.2 12.62 6.46 20.67 5.77 31.85-.67 11.21 4.6 18.41 6.08 23.05 1.02 4.77-1.12 6.61-.25 7.62 1.42.5 3.53-2.02 2.94-8.65-1.02-6.39-5-8.91-4.17-22.58.81-13.68-4.96-17.82-3.67-30.21l-6.7-1.08"/><path fill="#85340a" d="m496.73 500.94 12.32 31.23.02-.16 1.36.4c-.11.9-.16 1.84-.18 2.81l21.49 54.44v.02c.25.66.44.89.69.85.1-.04.13-.16.12-.42-.02-.22-.06-.43-.13-.63v-.02L503.24 499l1.29-.32 29.16 90.41v.03c.12.36.2.71.23 1.09.02 1.02-.25 1.51-.97 1.78-1.14.24-1.8-.27-2.46-1.91l-.01-.02-19.95-50.57c.3 2.27.81 4.68 1.54 7.29 1.66 5.97 2.31 11.13 2.03 15.81-.38 5.96.4 11.27 2.38 16.44.98 2.48 1.55 4.44 1.78 5.96.35 3.12.1 5.42-.76 7.45-.41.83-.83 1.37-1.35 1.76-.68.43-1.18.45-1.79.08-.69-.56-.79-1.33-.36-2.78.6-2 .67-3.64.25-5.33-.24-.78-.81-2.18-1.75-4.2-3.35-7.29-4.73-13.48-4.36-19.16.23-3.68-.61-8.58-2.67-15.09-2.19-6.92-3.18-12.38-3.11-16.72l1.37.27c-.07 4.13.9 9.41 3.02 16.13 2.13 6.73 2.99 11.85 2.75 15.75-.34 5.39.98 11.28 4.19 18.29.98 2.11 1.59 3.59 1.86 4.46.51 2.04.44 3.97-.26 6.28-.13.4-.21.69-.24.85.06-.02.15-.07.26-.14.35-.27.65-.66.95-1.28.75-1.77.97-3.81.65-6.61-.21-1.38-.75-3.19-1.67-5.53-2.08-5.42-2.9-10.99-2.51-17.21.27-4.48-.35-9.44-1.96-15.22-1.21-4.36-1.82-8.2-1.88-11.7l-13.4-33.97 1.24-.43"/><path fill="#f6b40e" d="m495.79 499.35 3.16 92.1c0 .13.02 1.55 1.05 1.89 1.05-.02 1.05-1.43 1.05-1.57l3.15-91.12-8.41-1.3m-3.71 29.03c-4.61 10.88-.92 20.73-5.51 30.16-4.59 9.47-1.94 17.97-2.13 22.64-.67 4.61-3.42 5.24-2.91 6.53 1.21 1.03 4.16-.26 5.9-6.28 1.24-5.99-1.76-9.89 3.83-21.42 5.58-11.55 1.4-17.61 7-27.84l-6.18-3.79"/><path fill="#85340a" d="m496.48 499.43 1.11 32.41.07-.13 1.19.93c-.42.74-.8 1.52-1.16 2.36l1.94 56.54v.02c.01.67.12.95.37 1.03.11 0 .19-.08.27-.31.06-.2.09-.4.1-.61v-.01l3.15-91.14 1.37.27-3.16 91.09v.03c-.01.36-.06.7-.16 1.04-.33.9-.76 1.21-1.57 1.13-1.19-.27-1.67-1.01-1.74-2.71v-.03l-1.8-52.51c-.49 2.11-.84 4.42-1.04 7-.47 5.92-1.63 10.66-3.55 14.62-2.46 5.03-3.56 9.95-3.43 15.31.09 2.58-.04 4.52-.35 5.95-.75 2.88-1.78 4.74-3.35 6.15-.69.55-1.29.84-1.94.96-.81.08-1.31-.12-1.78-.7-.47-.78-.31-1.49.62-2.57 1.3-1.49 1.94-2.87 2.12-4.53.04-.78-.04-2.24-.25-4.39-.71-7.8.09-13.74 2.46-18.53 1.51-3.11 2.4-7.71 2.67-14.26.28-6.97 1.22-12.13 2.82-15.87l1.24.81c-1.52 3.58-2.42 8.56-2.69 15.32-.28 6.78-1.23 11.58-2.83 14.88-2.23 4.54-2.99 10.2-2.31 17.69.22 2.25.29 3.8.25 4.67-.21 2.01-.95 3.63-2.45 5.36-.27.29-.44.5-.53.63.07.01.17.01.3-.01.44-.08.87-.3 1.38-.71 1.36-1.23 2.27-2.88 2.95-5.47.27-1.29.39-3.09.31-5.53-.15-5.62 1-10.78 3.57-16.03 1.84-3.79 2.96-8.35 3.41-14.07.35-4.33 1.09-7.9 2.26-10.99l-1.21-35.25 1.37.16"/><path fill="#f6b40e" d="m496.11 497.64-29.17 81.47c-.04.11-.52 1.36.37 2.09 1.04.43 1.52-.8 1.57-.91l35-77.93-7.77-4.72m-13.8 23.66c-8.33 7.52-8.14 17.64-15.95 23.91-7.82 6.32-8.18 14.81-10.01 18.82-2.28 3.75-5.18 3.11-5.13 4.47.81 1.39 4.16 1.52 7.97-2.99 3.31-4.69 1.73-9.35 11.24-17.03 9.52-7.7 7.52-14.72 16.6-21.24l-4.72-5.94"/><path fill="#85340a" d="m496.75 498-10.26 28.66.12-.08.83 1.31c-.67.47-1.31.99-1.96 1.57l-17.9 50.02-.01.01c-.22.6-.22.89 0 1.06.11.05.22.01.37-.15.14-.16.24-.31.31-.49l.01-.02 35-77.94 1.24.82-34.98 77.9-.01.02c-.14.32-.31.59-.53.84-.64.64-1.17.73-1.93.32-1.07-.74-1.28-1.59-.75-3.09l.01-.03 16.63-46.46c-1.22 1.62-2.37 3.48-3.47 5.64-2.53 4.96-5.32 8.57-8.59 11.21-4.19 3.36-6.96 7.14-8.72 11.88-.82 2.29-1.62 3.92-2.42 5.04-1.75 2.19-3.4 3.37-5.44 3.94-.86.19-1.55.19-2.22.02-.82-.27-1.25-.66-1.5-1.35-.2-.89.21-1.43 1.51-1.99 1.8-.75 2.89-1.67 3.65-3.06.31-.66.75-1.95 1.3-3.93 2.04-7.11 4.88-11.9 8.89-15.1 2.58-2.08 5.04-5.68 7.61-11.28 2.71-5.95 5.42-10.02 8.31-12.61l.93 1.24c-2.75 2.48-5.36 6.4-8 12.18-2.65 5.8-5.23 9.55-7.98 11.75-3.79 3.03-6.49 7.6-8.45 14.43-.57 2.06-1.04 3.44-1.39 4.18-.91 1.66-2.19 2.76-4.27 3.64-.37.14-.61.25-.75.32.07.04.17.08.31.12.45.12.95.11 1.6-.03 1.77-.5 3.22-1.56 4.79-3.53.72-1.01 1.46-2.52 2.24-4.68 1.84-4.98 4.74-8.95 9.11-12.45 3.13-2.54 5.81-6 8.26-10.8 1.86-3.62 3.83-6.4 6.06-8.6l11.16-31.17 1.28.72"/><path fill="#f6b40e" d="m497.02 496.29-57.05 58.58c-.08.08-.99.95-.37 1.97.86.81 1.77-.05 1.86-.13l61.51-53-5.95-7.42m-21.78 14.7c-10.81 3.01-14.1 11.87-23.96 14.06-9.88 2.21-13.17 9.45-16.37 12.2-3.53 2.31-6.15.55-6.57 1.75.34 1.56 3.49 3.05 8.82.73 4.89-2.72 4.94-7.43 16.95-10.11 12.02-2.7 12.47-9.63 23.66-11.46l-2.53-7.17"/><path fill="#85340a" d="m497.53 496.88-20.09 20.55.16-.02.35 1.5c-.82.12-1.63.3-2.46.53l-35.03 36.02-.01.01c-.42.42-.52.67-.37.92.09.09.21.1.42.02.18-.08.33-.18.47-.3l.01-.01 61.53-53.01.93 1.24-61.5 52.98-.02.01c-.24.22-.5.38-.81.51-.84.29-1.4.15-2-.53-.78-1.1-.68-1.92.36-3.01l.02-.02 32.53-33.47c-1.77.9-3.54 2.03-5.37 3.44-4.23 3.24-8.19 5.2-12.33 6.12-5.28 1.16-9.29 3.29-12.68 6.69-1.6 1.65-2.95 2.73-4.13 3.38-2.46 1.17-4.49 1.52-6.69 1.16-.9-.19-1.58-.49-2.17-.91-.71-.58-.99-1.11-.99-1.82.12-.86.7-1.15 2.16-1.1 2.03.1 3.42-.25 4.64-1.14.54-.45 1.42-1.39 2.65-2.89 4.48-5.36 8.92-8.33 13.97-9.43 3.26-.73 6.91-2.81 11.38-6.6 4.75-4.03 8.8-6.41 12.54-7.45l.48 1.48c-3.57.99-7.47 3.29-12.09 7.2-4.63 3.92-8.44 6.09-11.91 6.86-4.78 1.05-8.99 3.88-13.3 9.03-1.29 1.56-2.23 2.56-2.83 3.06-1.47 1.07-3.09 1.49-5.44 1.39-.41-.03-.69-.04-.84-.03.05.06.13.14.25.23.4.29.9.49 1.57.64 1.91.31 3.71-.01 5.92-1.07 1.07-.58 2.31-1.59 3.83-3.15 3.54-3.57 7.75-5.8 13.26-7.01 3.96-.89 7.78-2.77 11.86-5.91 3.09-2.36 5.97-3.93 8.93-4.91l21.83-22.36 1.01 1.18"/><path fill="#85340a" d="M505.3 533.63c.76 12.26 6.64 18.6 5.63 29.51 2.45-8.42-3.62-16.1-3.47-29.05l-2.16-.46m-7.24-32.93 23.97 60.93-20.09-62.09-3.88 1.16"/><path fill="#85340a" d="M493.41 531.51c-3.56 10.98-.03 19.01-4.83 28.07 5.34-6.3 2.1-15.54 6.78-26.75l-1.95-1.32m4.44-31.73 2.11 63.22 2.1-62.57-4.21-.65"/><path fill="#85340a" d="M482.52 524.59c-7.33 8.07-6.67 16.51-14.56 22.38 7.46-3.23 7.48-12.62 16.01-20.39l-1.45-1.99m15.46-25.69-20.09 55.88 23.97-53.53-3.88-2.35"/><path fill="#85340a" d="M474.29 513.94c-10.02 3.92-12.28 11.52-22.07 13.32 8.46.32 11.71-7.82 22.79-10.98l-.72-2.34m24.12-15.76-39.21 40.08 42.18-36.38-2.97-3.7"/><path fill="#f6b40e" d="m498.39 495.5-76.25 26.87c-.11.03-1.31.41-1.06 1.57.55 1.06 1.75.69 1.86.66l78.67-20.11-3.22-8.99m-26.45 3.51c-11.65-1.98-17.92 4.33-28.33 2.06-10.44-2.24-16.14 2.68-20.24 3.75-4.22.54-6.18-2.09-7.01-1.23-.21 1.5 2.35 4.14 8.34 4.35 5.74-.33 7.4-4.41 20.07-1.68 12.71 2.73 15.54-3.1 27.13.06l.04-7.31"/><path fill="#85340a" d="m498.67 496.23-26.83 9.32.15.05-.18 1.45c-.84-.24-1.7-.44-2.59-.58l-46.81 16.62h-.01c-.57.2-.75.37-.69.65.06.12.17.18.4.2.21.01.39-.01.57-.07h.01l78.68-20.11.48 1.47-78.65 20.1h-.02c-.31.09-.62.13-.97.11-.92-.1-1.41-.46-1.76-1.3-.38-1.3 0-1.97 1.4-2.49l.03-.01 43.47-15.47c-2.04.03-4.17.27-6.45.72-5.25 1.03-9.82 1.05-14.18.11-5.57-1.23-10.24-1.06-14.71.48-2.14.77-3.83 1.15-5.21 1.22-2.8-.01-4.92-.57-6.93-1.8-.8-.54-1.37-1.09-1.79-1.71-.49-.81-.58-1.39-.33-2.01.42-.7 1.09-.72 2.49-.05 1.94.93 3.43 1.21 4.92.95.68-.17 1.87-.62 3.59-1.41 6.25-2.79 11.6-3.51 16.92-2.33 3.45.74 7.74.47 13.43-.93 6.04-1.49 10.84-1.84 14.86-1.15l-.04 1.49c-3.85-.66-8.47-.32-14.34 1.13-5.88 1.45-10.38 1.72-14.03.93-5.04-1.12-10.14-.42-16.14 2.26-1.8.82-3.06 1.3-3.82 1.49-1.8.31-3.55 0-5.79-1.08-.38-.19-.65-.32-.81-.37.03.07.08.17.17.31.29.41.7.8 1.3 1.22 1.75 1.06 3.63 1.55 6.14 1.55 1.25-.06 2.81-.42 4.83-1.14 4.7-1.62 9.59-1.8 15.4-.53 4.18.91 8.57.88 13.64-.11 3.84-.75 7.22-.9 10.45-.48l29.18-10.15.57 1.45"/><path fill="#f6b40e" d="m500 495.4-83.84-9c-.12-.01-1.41-.19-1.58.93.16 1.16 1.46 1.35 1.58 1.37L500 504.59v-9.19m-27.09-8.23c-10.69-6.69-19.03-3.87-28.38-10.28-9.39-6.4-16.67-4.53-21.03-5.33-4.27-1.32-5.31-4.45-6.38-4.06-.76 1.19.85 4.66 6.58 7.35 5.71 2.15 8.74-.72 20.14 7.06 11.43 7.79 16.25 3.92 26.47 11.61l2.6-6.35"/><path fill="#85340a" d="m500.02 496.15-29.5-3.33.13.11-.68 1.19c-.74-.57-1.51-1.11-2.33-1.62l-51.47-5.35h-.01c-.62-.07-.86 0-.89.28.01.12.1.22.32.34.19.09.38.15.57.18h.01l83.85 15.9-.05 1.49-83.81-15.9h-.03c-.33-.05-.65-.15-.98-.31-.85-.48-1.21-1.01-1.25-1.89.08-1.3.68-1.72 2.23-1.59h.03l47.8 4.95c-2-.85-4.17-1.55-6.55-2.12-5.47-1.34-9.97-3.27-13.88-5.95-4.98-3.42-9.63-5.27-14.5-5.82-2.35-.24-4.13-.63-5.5-1.16-2.7-1.18-4.59-2.59-6.1-4.5-.59-.82-.95-1.55-1.14-2.27-.2-.92-.08-1.45.38-1.9.65-.43 1.31-.16 2.44 1.02 1.55 1.63 2.92 2.51 4.45 2.92.72.14 2.04.25 3.98.29 7.04.22 12.54 1.88 17.3 5.17 3.1 2.11 7.41 3.71 13.43 4.91 6.41 1.27 11.25 3.03 14.92 5.34l-.56 1.27c-3.52-2.2-8.18-3.88-14.41-5.12-6.23-1.24-10.74-2.93-14.01-5.17-4.51-3.11-9.76-4.68-16.51-4.89-2.04-.05-3.44-.16-4.25-.32-1.84-.49-3.45-1.52-5.24-3.4-.31-.34-.53-.56-.66-.68 0 .08.02.19.05.35.14.48.4 1 .85 1.62 1.31 1.66 2.99 2.9 5.42 3.96 1.23.48 2.89.83 5.1 1.06 5.12.57 9.98 2.51 15.18 6.09 3.75 2.55 8.07 4.41 13.36 5.7 4 .98 7.37 2.3 10.37 4.03l32.09 3.62.05 1.5"/><path fill="#f6b40e" d="m501.61 496-78.67-43.64c-.11-.06-1.3-.77-1.86.14-.24 1.08.95 1.8 1.06 1.87l76.25 49.62 3.22-7.99M478 477.28c-8.08-10.37-17.26-11.51-24.11-21.08-6.9-9.58-14.67-11.12-18.61-13.67-3.68-2.98-3.63-6.17-4.78-6.29-1.17.72-.82 4.44 3.82 9.25 4.78 4.32 8.76 3.14 17.14 14.79 8.4 11.66 14.51 10.38 21.78 21.42l4.76-4.42"/><path fill="#85340a" d="m501.37 496.66-27.69-15.48.1.15-1.08.74c-.52-.81-1.09-1.61-1.72-2.4l-48.29-26.65h-.01c-.58-.33-.84-.37-.96-.14-.04.11.02.24.19.43.16.17.32.3.49.41h.01l76.27 49.64-.58 1.27-76.22-49.6-.03-.02c-.3-.19-.57-.41-.84-.69-.67-.78-.82-1.4-.56-2.19.54-1.1 1.27-1.22 2.73-.44l.03.02 44.85 24.73c-1.66-1.58-3.53-3.12-5.66-4.64-4.87-3.5-8.59-7.12-11.46-11.11-3.65-5.1-7.55-8.73-12.09-11.29-2.19-1.22-3.8-2.33-4.94-3.37-2.21-2.19-3.56-4.25-4.35-6.56-.29-.97-.39-1.76-.32-2.47.14-.89.43-1.3 1.03-1.49.78-.1 1.34.42 2.02 1.93.93 2.08 1.96 3.46 3.3 4.47.66.43 1.9 1.09 3.78 1.96 6.75 3.2 11.57 7.05 15.04 11.93 2.26 3.14 5.93 6.41 11.39 10.02 5.8 3.84 9.93 7.46 12.7 11.03l-1 .86c-2.65-3.4-6.64-6.88-12.27-10.61-5.64-3.74-9.47-7.16-11.87-10.5-3.29-4.62-7.89-8.28-14.37-11.35-1.96-.91-3.28-1.61-4.02-2.1-1.61-1.21-2.83-2.82-3.91-5.22-.18-.43-.31-.72-.4-.87-.02.06-.05.17-.07.32-.04.48.04 1.05.25 1.78.69 2 1.9 3.82 3.89 5.79 1.02.94 2.52 1.97 4.59 3.11 4.77 2.68 8.86 6.49 12.66 11.81 2.75 3.83 6.34 7.31 11.04 10.69 3.55 2.56 6.4 5.16 8.72 7.94l30.11 16.84-.48 1.32"/><path fill="#f6b40e" d="m502.97 497.21-61.51-71.68c-.09-.11-1-1.24-1.86-.68-.62.83.29 1.98.37 2.08l57.06 75.86 5.94-5.58m-16.52-26.36c-4.26-12.44-12.86-17.42-16.18-28.67-3.36-11.26-10.44-16-13.36-19.91-2.55-4.19-1.37-6.94-2.45-7.54-1.41.12-2.36 3.51.48 9.71 3.13 5.81 7.45 6.53 11.53 20.26 4.1 13.73 10.54 15.27 13.77 27.96l6.21-1.81"/><path fill="#85340a" d="m502.51 497.68-21.65-25.28.04.17-1.32.18c-.23-.92-.5-1.86-.83-2.82l-37.76-43.94-.01-.01c-.45-.53-.69-.68-.9-.53-.07.08-.06.21.04.46.09.21.2.39.34.56l.01.02 57.06 75.87-1 .86-57.04-75.83-.02-.02c-.23-.3-.41-.61-.57-.97-.38-.98-.32-1.58.22-2.15.9-.73 1.66-.52 2.81.8l.01.02 35.08 40.81c-1.07-2.09-2.36-4.23-3.9-6.47-3.53-5.12-5.91-9.89-7.3-14.58-1.77-5.99-4.3-10.85-7.83-15.03-1.72-2.01-2.9-3.67-3.64-5.06-1.39-2.88-1.98-5.25-1.94-7.6.06-.98.24-1.7.55-2.29.45-.72.87-.96 1.53-.86.79.25 1.16.95 1.29 2.56.18 2.21.7 3.86 1.65 5.32.48.66 1.47 1.77 2.99 3.34 5.46 5.68 8.83 11.13 10.5 16.85 1.1 3.7 3.55 8.13 7.61 13.61 4.32 5.82 7.1 10.74 8.56 15.02l-1.28.32c-1.4-4.08-4.08-8.82-8.28-14.48-4.21-5.66-6.75-10.3-7.91-14.22-1.59-5.42-4.81-10.6-10.05-16.06-1.59-1.64-2.64-2.83-3.18-3.57-1.15-1.75-1.77-3.68-1.97-6.24-.03-.45-.06-.76-.09-.93-.05.05-.11.13-.18.25-.21.4-.33.93-.38 1.66-.03 2.04.5 4.14 1.75 6.72.67 1.26 1.77 2.81 3.39 4.7 3.71 4.39 6.37 9.47 8.21 15.73 1.34 4.49 3.62 9.07 7.04 14.03 2.57 3.74 4.45 7.23 5.74 10.64l23.54 27.49-.93.95"/><path fill="#85340a" d="M469.98 501.17c-11.18-.86-16.02 4.82-26.22 2.23 8.15 3.86 14.15-1.84 26.1.12l.12-2.35m29.1-3.44-52.37 18.22 53.98-13.72-1.61-4.5"/><path fill="#85340a" d="M470.23 488.21c-10.62-5.51-17.33-2.63-26.37-9.22 6.57 6.82 14.46 4.43 25.44 11.21l.93-1.99m29.67 9.43-57.56-6.44 57.56 11.03v-4.59"/><path fill="#85340a" d="M475.02 477.04c-8.44-9.31-16.03-9.71-22.52-19.3 4 8.73 12.58 10.06 20.91 20.64l1.61-1.34m25.7 20.86-53.98-30.16 52.38 34.16 1.6-4"/><path fill="#85340a" d="M483.61 469.37c-4.97-11.68-12.28-15.33-15.23-26.44.83 9.29 8.77 14.18 13.19 26.92l2.04-.48m17.83 29.11-42.18-49.31 39.21 52.1 2.97-2.79"/><path fill="#f6b40e" d="m503.89 498.84-35-88.71c-.05-.12-.56-1.51-1.58-1.39-.9.46-.41 1.84-.36 1.97l29.17 90.45 7.77-2.32m-6.94-29.97c.2-12.62-6.46-20.67-5.77-31.85.67-11.21-4.6-18.41-6.08-23.05-1.02-4.77 1.12-6.61.25-7.62-1.42-.5-3.53 2.03-2.94 8.65 1.02 6.39 5 8.91 4.17 22.58-.81 13.68 4.96 17.82 3.67 30.21l6.7 1.08"/><path fill="#85340a" d="m503.27 499.06-12.32-31.23-.02.16-1.36-.4c.11-.9.16-1.84.18-2.81l-21.49-54.44v-.02c-.25-.66-.44-.89-.69-.85-.1.04-.13.16-.12.42.02.22.06.43.13.63v.02L496.76 501l-1.29.32-29.16-90.41v-.03c-.12-.36-.2-.71-.23-1.09-.02-1.02.25-1.51.97-1.78 1.14-.24 1.8.27 2.46 1.91l.01.02 19.95 50.57c-.3-2.27-.81-4.68-1.54-7.29-1.66-5.97-2.31-11.13-2.03-15.81.38-5.96-.4-11.27-2.38-16.44-.98-2.48-1.55-4.44-1.78-5.96-.35-3.12-.1-5.42.76-7.45.41-.83.83-1.37 1.35-1.76.68-.43 1.18-.45 1.79-.08.69.56.79 1.33.36 2.78-.6 2-.67 3.64-.25 5.33.24.78.81 2.18 1.75 4.2 3.35 7.29 4.73 13.48 4.36 19.16-.23 3.68.61 8.58 2.67 15.09 2.19 6.92 3.18 12.38 3.11 16.72l-1.37-.27c.07-4.13-.9-9.41-3.02-16.13-2.13-6.73-2.99-11.85-2.75-15.75.34-5.39-.98-11.28-4.19-18.29-.98-2.11-1.59-3.59-1.86-4.46-.51-2.04-.44-3.97.26-6.28.13-.4.21-.69.24-.85-.06.02-.15.07-.26.14-.35.27-.65.66-.95 1.28-.75 1.77-.97 3.81-.65 6.61.21 1.38.75 3.19 1.67 5.53 2.08 5.42 2.9 10.99 2.51 17.21-.27 4.48.35 9.44 1.96 15.22 1.21 4.36 1.82 8.2 1.88 11.7l13.4 33.97-1.24.43"/><path fill="#f6b40e" d="m504.21 500.65-3.16-92.1c0-.13-.02-1.55-1.05-1.89-1.05.02-1.05 1.43-1.05 1.57l-3.15 91.12 8.41 1.3m3.71-29.03c4.61-10.88.92-20.73 5.51-30.16 4.59-9.47 1.94-17.97 2.13-22.64.67-4.61 3.42-5.24 2.91-6.53-1.21-1.03-4.16.26-5.9 6.28-1.24 5.99 1.76 9.89-3.83 21.42-5.58 11.55-1.4 17.61-7 27.84l6.18 3.79"/><path fill="#85340a" d="m503.52 500.57-1.11-32.41-.07.13-1.19-.93c.42-.74.8-1.52 1.16-2.36l-1.94-56.54v-.02c-.01-.67-.12-.95-.37-1.03-.11 0-.19.08-.27.31-.06.2-.09.4-.1.61v.01l-3.15 91.14-1.37-.27 3.16-91.09v-.03c.01-.36.06-.7.16-1.04.33-.9.76-1.21 1.57-1.13 1.19.27 1.67 1.01 1.74 2.71v.03l1.8 52.51c.49-2.11.84-4.42 1.04-7 .47-5.92 1.63-10.66 3.55-14.62 2.46-5.03 3.56-9.95 3.43-15.31-.09-2.58.04-4.52.35-5.95.75-2.88 1.78-4.74 3.35-6.15.69-.55 1.29-.84 1.94-.96.81-.08 1.31.12 1.78.7.47.78.31 1.49-.62 2.57-1.3 1.49-1.94 2.87-2.12 4.53-.04.78.04 2.24.25 4.39.71 7.8-.09 13.74-2.46 18.53-1.51 3.11-2.4 7.71-2.67 14.26-.28 6.97-1.22 12.13-2.82 15.87l-1.24-.81c1.52-3.58 2.42-8.56 2.69-15.32.28-6.78 1.23-11.58 2.83-14.88 2.23-4.54 2.99-10.2 2.31-17.69-.22-2.25-.29-3.8-.25-4.67.21-2.01.95-3.63 2.45-5.36.27-.29.44-.5.53-.63-.07-.01-.17-.01-.3.01-.44.08-.87.3-1.38.71-1.36 1.23-2.27 2.88-2.95 5.47-.27 1.29-.39 3.09-.31 5.53.15 5.62-1 10.78-3.57 16.03-1.84 3.79-2.96 8.35-3.41 14.07-.35 4.33-1.09 7.9-2.26 10.99l1.21 35.25-1.37-.16"/><path fill="#f6b40e" d="m503.89 502.36 29.17-81.47c.04-.11.52-1.36-.37-2.09-1.04-.43-1.52.8-1.57.91l-35 77.93 7.77 4.72m13.8-23.66c8.33-7.52 8.14-17.64 15.95-23.91 7.82-6.32 8.18-14.81 10.01-18.82 2.28-3.75 5.18-3.11 5.13-4.47-.81-1.39-4.16-1.52-7.97 2.99-3.31 4.69-1.73 9.35-11.24 17.03-9.52 7.7-7.52 14.72-16.6 21.24l4.72 5.94"/><path fill="#85340a" d="m503.25 502 10.26-28.66-.12.08-.83-1.31c.67-.47 1.31-.99 1.96-1.57l17.9-50.02.01-.01c.22-.6.22-.89 0-1.06-.11-.05-.22-.01-.37.15-.14.16-.24.31-.31.49l-.01.02-35 77.94-1.24-.82 34.98-77.9.01-.02c.14-.32.31-.59.53-.84.64-.64 1.17-.73 1.93-.32 1.07.74 1.28 1.59.75 3.09l-.01.03-16.63 46.46c1.22-1.62 2.37-3.48 3.47-5.64 2.53-4.96 5.32-8.57 8.59-11.21 4.19-3.36 6.96-7.14 8.72-11.88.82-2.29 1.62-3.92 2.42-5.04 1.75-2.19 3.4-3.37 5.44-3.94.86-.19 1.55-.19 2.22-.02.82.27 1.25.66 1.5 1.35.2.89-.21 1.43-1.51 1.99-1.8.75-2.89 1.67-3.65 3.06-.31.66-.75 1.95-1.3 3.93-2.04 7.11-4.88 11.9-8.89 15.1-2.58 2.08-5.04 5.68-7.61 11.28-2.71 5.95-5.42 10.02-8.31 12.61l-.93-1.24c2.75-2.48 5.36-6.4 8-12.18 2.65-5.8 5.23-9.55 7.98-11.75 3.79-3.03 6.49-7.6 8.45-14.43.57-2.06 1.04-3.44 1.39-4.18.91-1.66 2.19-2.76 4.27-3.64.37-.14.61-.25.75-.32a1.43 1.43 0 0 0-.31-.12c-.45-.12-.95-.11-1.6.03-1.77.5-3.22 1.56-4.79 3.53-.72 1.01-1.46 2.52-2.24 4.68-1.84 4.98-4.74 8.95-9.11 12.45-3.13 2.54-5.81 6-8.26 10.8-1.86 3.62-3.83 6.4-6.06 8.6l-11.16 31.17-1.28-.72"/><path fill="#f6b40e" d="m502.98 503.71 57.05-58.58c.08-.08.99-.95.37-1.97-.86-.81-1.77.05-1.86.13l-61.51 53 5.95 7.42m21.78-14.7c10.81-3.01 14.1-11.87 23.96-14.06 9.88-2.21 13.17-9.45 16.37-12.2 3.53-2.31 6.15-.55 6.57-1.75-.34-1.56-3.49-3.05-8.82-.73-4.89 2.72-4.94 7.43-16.95 10.11-12.02 2.7-12.47 9.63-23.66 11.46l2.53 7.17"/><path fill="#85340a" d="m502.47 503.12 20.09-20.55-.16.02-.35-1.5c.82-.12 1.63-.3 2.46-.53l35.03-36.02.01-.01c.42-.42.52-.67.37-.92-.09-.09-.21-.1-.42-.02-.18.08-.33.18-.47.3l-.01.01-61.53 53.01-.93-1.24 61.5-52.98.02-.01c.24-.22.5-.38.81-.51.84-.29 1.4-.15 2 .53.78 1.1.68 1.92-.36 3.01l-.02.02-32.53 33.47c1.77-.9 3.54-2.03 5.37-3.44 4.23-3.24 8.19-5.2 12.33-6.12 5.28-1.16 9.29-3.29 12.68-6.69 1.6-1.65 2.95-2.73 4.13-3.38 2.46-1.17 4.49-1.52 6.69-1.16.9.19 1.58.49 2.17.91.71.58.99 1.11.99 1.82-.12.86-.7 1.15-2.16 1.1-2.03-.1-3.42.25-4.64 1.14-.54.45-1.42 1.39-2.65 2.89-4.48 5.36-8.92 8.33-13.97 9.43-3.26.73-6.91 2.81-11.38 6.6-4.75 4.03-8.8 6.41-12.54 7.45l-.48-1.48c3.57-.99 7.47-3.29 12.09-7.2 4.63-3.92 8.44-6.09 11.91-6.86 4.78-1.05 8.99-3.88 13.3-9.03 1.29-1.56 2.23-2.56 2.83-3.06 1.47-1.07 3.09-1.49 5.44-1.39.41.03.69.04.84.03-.05-.06-.13-.14-.25-.23-.4-.29-.9-.49-1.57-.64-1.91-.31-3.71.01-5.92 1.07-1.07.58-2.31 1.59-3.83 3.15-3.54 3.57-7.75 5.8-13.26 7.01-3.96.89-7.78 2.77-11.86 5.91-3.09 2.36-5.97 3.93-8.93 4.91l-21.83 22.36-1.01-1.18"/><path fill="#85340a" d="M494.7 466.37c-.76-12.26-6.64-18.6-5.63-29.51-2.45 8.42 3.62 16.1 3.47 29.05l2.16.46m7.24 32.93-23.97-60.93 20.09 62.09 3.88-1.16"/><path fill="#85340a" d="M506.59 468.49c3.56-10.98.03-19.01 4.83-28.07-5.34 6.3-2.1 15.54-6.78 26.75l1.95 1.32m-4.44 31.73L500.04 437l-2.1 62.57 4.21.65"/><path fill="#85340a" d="M517.48 475.41c7.33-8.07 6.67-16.51 14.56-22.38-7.46 3.23-7.48 12.62-16.01 20.39l1.45 1.99m-15.46 25.69 20.09-55.88-23.97 53.53 3.88 2.35"/><path fill="#85340a" d="M525.71 486.06c10.02-3.92 12.28-11.52 22.07-13.32-8.46-.32-11.71 7.82-22.79 10.98l.72 2.34m-24.12 15.76 39.21-40.08-42.18 36.38 2.97 3.7"/><path fill="#f6b40e" d="m501.61 504.5 76.25-26.87c.11-.03 1.31-.41 1.06-1.57-.55-1.06-1.75-.69-1.86-.66l-78.67 20.11 3.22 8.99m26.45-3.51c11.65 1.98 17.92-4.33 28.33-2.06 10.44 2.24 16.14-2.68 20.24-3.75 4.22-.54 6.18 2.09 7.01 1.23.21-1.5-2.35-4.14-8.34-4.35-5.74.33-7.4 4.41-20.07 1.68-12.71-2.73-15.54 3.1-27.13-.06l-.04 7.31"/><path fill="#85340a" d="m501.33 503.77 26.83-9.32-.15-.05.18-1.45c.84.24 1.7.44 2.59.58l46.81-16.62h.01c.57-.2.75-.37.69-.65-.06-.12-.17-.18-.4-.2-.21-.01-.39.01-.57.07h-.01l-78.68 20.11-.48-1.47 78.65-20.1h.02c.31-.09.62-.13.97-.11.92.1 1.41.46 1.76 1.3.38 1.3 0 1.97-1.4 2.49l-.03.01-43.47 15.47c2.04-.03 4.17-.27 6.45-.72 5.25-1.03 9.82-1.05 14.18-.11 5.57 1.23 10.24 1.06 14.71-.48 2.14-.77 3.83-1.15 5.21-1.22 2.8.01 4.92.57 6.93 1.8.8.54 1.37 1.09 1.79 1.71.49.81.58 1.39.33 2.01-.42.7-1.09.72-2.49.05-1.94-.93-3.43-1.21-4.92-.95-.68.17-1.87.62-3.59 1.41-6.25 2.79-11.6 3.51-16.92 2.33-3.45-.74-7.74-.47-13.43.93-6.04 1.49-10.84 1.84-14.86 1.15l.04-1.49c3.85.66 8.47.32 14.34-1.13 5.88-1.45 10.38-1.72 14.03-.93 5.04 1.12 10.14.42 16.14-2.26 1.8-.82 3.06-1.3 3.82-1.49 1.8-.31 3.55 0 5.79 1.08.38.19.65.32.81.37-.03-.07-.08-.17-.17-.31-.29-.41-.7-.8-1.3-1.22-1.75-1.06-3.63-1.55-6.14-1.55-1.25.06-2.81.42-4.83 1.14-4.7 1.62-9.59 1.8-15.4.53-4.18-.91-8.57-.88-13.64.11-3.84.75-7.22.9-10.45.48l-29.18 10.15-.57-1.45"/><path fill="#f6b40e" d="m500 504.6 83.84 9c.12.01 1.41.19 1.58-.93-.16-1.16-1.46-1.35-1.58-1.37L500 495.41v9.19m27.09 8.23c10.69 6.69 19.03 3.87 28.38 10.28 9.39 6.4 16.67 4.53 21.03 5.33 4.27 1.32 5.31 4.45 6.38 4.06.76-1.19-.85-4.66-6.58-7.35-5.71-2.15-8.74.72-20.14-7.06-11.43-7.79-16.25-3.92-26.47-11.61l-2.6 6.35"/><path fill="#85340a" d="m499.98 503.85 29.5 3.33-.13-.11.68-1.19c.74.57 1.51 1.11 2.33 1.62l51.47 5.35h.01c.62.07.86 0 .89-.28-.01-.12-.1-.22-.32-.34-.19-.09-.38-.15-.57-.18h-.01l-83.85-15.9.05-1.49 83.81 15.9h.03c.33.05.65.15.98.31.85.48 1.21 1.01 1.25 1.89-.08 1.3-.68 1.72-2.23 1.59h-.03l-47.8-4.95c2 .84 4.17 1.55 6.55 2.12 5.47 1.34 9.97 3.27 13.88 5.95 4.98 3.42 9.63 5.27 14.5 5.82 2.35.24 4.13.63 5.5 1.16 2.7 1.18 4.59 2.59 6.1 4.5.59.82.95 1.55 1.14 2.27.2.92.08 1.45-.38 1.9-.65.43-1.31.16-2.44-1.02-1.55-1.63-2.92-2.51-4.45-2.92-.72-.14-2.04-.25-3.98-.29-7.04-.22-12.54-1.88-17.3-5.17-3.1-2.11-7.41-3.71-13.43-4.91-6.41-1.27-11.25-3.03-14.92-5.34l.56-1.27c3.52 2.2 8.18 3.88 14.41 5.12 6.23 1.24 10.74 2.93 14.01 5.17 4.51 3.11 9.76 4.68 16.51 4.89 2.04.05 3.44.16 4.25.32 1.84.49 3.45 1.52 5.24 3.4.31.34.53.56.66.68 0-.08-.02-.19-.05-.35-.14-.48-.4-1-.85-1.62-1.31-1.66-2.99-2.9-5.42-3.96-1.23-.48-2.89-.83-5.1-1.06-5.12-.57-9.98-2.51-15.18-6.09-3.75-2.55-8.07-4.41-13.36-5.7-4-.98-7.37-2.3-10.37-4.03l-32.09-3.62-.05-1.5"/><path fill="#f6b40e" d="m498.39 504 78.67 43.64c.11.06 1.3.77 1.86-.14.24-1.08-.95-1.8-1.06-1.87l-76.25-49.62-3.22 7.99M522 522.72c8.08 10.37 17.26 11.51 24.11 21.08 6.9 9.58 14.67 11.12 18.61 13.67 3.68 2.98 3.63 6.17 4.78 6.29 1.17-.72.82-4.44-3.82-9.25-4.78-4.32-8.76-3.14-17.14-14.79-8.4-11.66-14.51-10.38-21.78-21.42l-4.76 4.42"/><path fill="#85340a" d="m498.63 503.34 27.69 15.48-.1-.15 1.08-.74c.52.81 1.09 1.61 1.72 2.4l48.29 26.65h.01c.58.33.84.37.96.14.04-.11-.02-.24-.19-.43-.16-.17-.32-.3-.49-.41h-.01l-76.27-49.64.58-1.27 76.22 49.6.03.02c.3.19.57.41.84.69.67.78.82 1.4.56 2.19-.54 1.1-1.27 1.22-2.73.44l-.03-.02-44.85-24.73c1.66 1.58 3.53 3.12 5.66 4.64 4.87 3.5 8.59 7.12 11.46 11.11 3.65 5.1 7.55 8.73 12.09 11.29 2.19 1.22 3.8 2.33 4.94 3.37 2.21 2.19 3.56 4.25 4.35 6.56.29.97.39 1.76.32 2.47-.14.89-.43 1.3-1.03 1.49-.78.1-1.34-.42-2.02-1.93-.93-2.08-1.96-3.46-3.3-4.47-.66-.43-1.9-1.09-3.78-1.96-6.75-3.2-11.57-7.05-15.04-11.93-2.26-3.14-5.93-6.41-11.39-10.02-5.8-3.84-9.93-7.46-12.7-11.03l1-.86c2.65 3.4 6.64 6.88 12.27 10.61 5.64 3.74 9.47 7.16 11.87 10.5 3.29 4.62 7.89 8.28 14.37 11.35 1.96.91 3.28 1.61 4.02 2.1 1.61 1.21 2.83 2.82 3.91 5.22.18.43.31.72.4.87.02-.06.05-.17.06-.32.05-.48-.03-1.05-.24-1.78-.69-2-1.9-3.82-3.89-5.79-1.02-.94-2.52-1.97-4.59-3.11-4.77-2.68-8.86-6.49-12.66-11.81-2.75-3.83-6.34-7.31-11.04-10.69-3.55-2.56-6.4-5.16-8.72-7.94l-30.11-16.84.48-1.32"/><path fill="#f6b40e" d="m497.03 502.79 61.51 71.68c.09.11 1 1.24 1.86.68.62-.83-.29-1.98-.37-2.08l-57.06-75.86-5.94 5.58m16.52 26.36c4.26 12.44 12.86 17.42 16.18 28.67 3.36 11.26 10.44 16 13.36 19.91 2.55 4.19 1.37 6.94 2.45 7.54 1.41-.12 2.36-3.51-.48-9.71-3.13-5.81-7.45-6.53-11.53-20.26-4.1-13.73-10.54-15.27-13.77-27.96l-6.21 1.81"/><path fill="#85340a" d="m497.49 502.32 21.65 25.28-.04-.17 1.32-.18c.23.92.5 1.86.83 2.82l37.76 43.94.01.01c.45.53.69.68.9.53.07-.08.06-.21-.04-.46-.09-.21-.2-.39-.34-.56l-.01-.02-57.06-75.87 1-.86 57.04 75.83.02.02c.23.3.41.61.57.97.38.98.32 1.58-.22 2.15-.9.73-1.66.52-2.81-.8l-.01-.02-35.08-40.81c1.07 2.09 2.36 4.23 3.9 6.47 3.53 5.12 5.91 9.89 7.3 14.58 1.77 5.99 4.3 10.85 7.83 15.03 1.72 2.01 2.9 3.67 3.64 5.06 1.39 2.88 1.98 5.25 1.94 7.6-.06.98-.24 1.7-.55 2.29-.45.72-.87.96-1.53.86-.79-.25-1.16-.95-1.29-2.56-.18-2.21-.7-3.86-1.65-5.32-.48-.66-1.47-1.77-2.99-3.34-5.46-5.68-8.83-11.13-10.5-16.85-1.1-3.7-3.55-8.13-7.61-13.61-4.32-5.82-7.1-10.74-8.56-15.02l1.28-.32c1.4 4.08 4.08 8.82 8.28 14.48 4.21 5.66 6.75 10.3 7.91 14.22 1.59 5.42 4.81 10.6 10.05 16.06 1.59 1.64 2.64 2.83 3.18 3.57 1.15 1.75 1.77 3.68 1.97 6.24.03.45.06.76.09.93.05-.05.11-.13.18-.25.21-.4.33-.93.38-1.66.03-2.04-.5-4.14-1.75-6.73-.67-1.25-1.77-2.8-3.39-4.69-3.71-4.39-6.37-9.47-8.21-15.73-1.34-4.49-3.62-9.07-7.04-14.03-2.57-3.74-4.45-7.23-5.74-10.64l-23.54-27.49.93-.95"/><path fill="#85340a" d="M530.02 498.83c11.18.86 16.02-4.82 26.22-2.23-8.15-3.86-14.15 1.84-26.1-.12l-.12 2.35m-29.1 3.44 52.37-18.22-53.98 13.72 1.61 4.5"/><path fill="#85340a" d="M529.77 511.79c10.62 5.51 17.33 2.63 26.37 9.22-6.57-6.82-14.46-4.43-25.44-11.21l-.93 1.99m-29.67-9.43 57.56 6.44-57.56-11.03v4.59"/><path fill="#85340a" d="M524.98 522.96c8.44 9.31 16.03 9.71 22.52 19.3-4-8.73-12.58-10.06-20.91-20.64l-1.61 1.34m-25.7-20.86 53.98 30.16-52.38-34.16-1.6 4"/><path fill="#85340a" d="M516.39 530.63c4.97 11.68 12.28 15.33 15.23 26.44-.83-9.29-8.77-14.18-13.19-26.92l-2.04.48m-17.83-29.11 42.18 49.31-39.21-52.1-2.97 2.79"/><path fill="#f6b40e" d="M534.17 505.25c-.27 20.83-15.08 34.74-34.17 32.08-19.05-3.24-33.9-21.73-34.17-42.58.27-20.83 15.08-34.74 34.17-32.08 19.05 3.24 33.9 21.73 34.17 42.58"/><path fill="#85340a" d="M535.09 505.39c-.12 10.73-3.42 18.93-10.28 25.55-7.05 6.44-14.96 8.8-24.81 7.4-9.8-1.65-17.78-6.49-24.81-15.06-6.85-8.7-10.16-17.96-10.28-28.67.12-10.73 3.42-18.92 10.28-25.55 7.05-6.44 14.96-8.8 24.81-7.4 9.8 1.65 17.78 6.49 24.81 15.06 6.85 8.7 10.16 17.96 10.28 28.67m-1.85-.28c-.11-10.15-3.25-18.91-9.73-27.17-6.67-8.12-14.22-12.69-23.51-14.27-9.35-1.31-16.81.92-23.51 7.02-6.5 6.28-9.62 14.03-9.73 24.2.11 10.15 3.25 18.92 9.73 27.17 6.67 8.12 14.22 12.69 23.51 14.27 9.35 1.31 16.81-.92 23.51-7.02 6.5-6.28 9.62-14.03 9.73-24.2"/><path fill="#843511" d="M511.65 493.82c-2.49-.27-4.37.38-5.88 2.49 2.98 3 8.09 4.03 12.37 1.62-1.86-2.3-4.06-3.62-6.49-4.11m-.04.58c2.4.45 4.2 1.71 4.69 2.95-2.99 2.62-6.49 1.85-9.46-.87 1.32-1.83 2.88-2.25 4.77-2.08"/><path fill="#85340a" d="M512.09 492.11c-3.46-.44-4.15.17-5.78 1.41-1.62 1.12-2.32.84-2.63 1.03-.22.32-.04 1.05.53.94.53-.21 1.55-.64 3.15-1.81 1.68-1.13 3.07-.96 4.73-.71 4.62 1.13 7.46 5.09 7.88 5.24.16-.63-2.39-4.78-7.88-6.1"/><path fill="#85340a" d="M521.55 495.29c-6.38-6.71-13.32-8.56-17.87-5.05-1.02 1.4-1.64 2.82-1.96 4.49-.42 3.32.42 6.71 2.75 10.85-.29-.02-.76.16-1.06.41-2.04-4.81-2.73-9.16-2.14-13.43.19-1.09.47-2.13.83-3.15 6.08-4.2 13.34-3.61 19.45 5.88"/><path fill="#85340a" d="M513.93 496.98c-.11 1.51-.97 2.31-2.37 2.22-1.37-.33-2.25-1.43-2.36-2.95.11-1.51.97-2.31 2.36-2.22 1.38.33 2.26 1.43 2.37 2.95"/><path fill="#85340a" d="M518.4 499.4c-4.75 2.92-8.66 2.08-11.56-.06-2.62-2.18-2.64-2.64-2.11-2.62.52.13 1.05.7 3.16 2.21 2.29 1.44 5.08 1.88 10.51.47M494.77 504.35c-1.18.15-1.83.94-1.92 2.27.11 1.52 1.01 2.59 2.38 2.93.82.08 1.42-.16 1.93-.8.97.86 2.12 1.15 2.84 1.28.1.02.24.04.31.05.73.09 1.86.16 2.84-.4.5.78 1.12 1.22 1.92 1.39 1.4.09 2.27-.69 2.39-2.19-.09-1.33-.76-2.35-1.92-2.86.64.4.99 1.02 1.03 1.8-.07 1-.64 1.54-1.57 1.47-.88-.21-1.46-.9-1.58-1.88-.34.62-1.21 1.87-3.27 1.81-2.02-.57-2.93-2.12-3.26-2.82-.12.95-.69 1.46-1.58 1.4-.92-.23-1.5-.96-1.57-1.97.04-.77.38-1.27 1.03-1.48M497.34 512.4c-2.65-.15-3.64 1.84-6.03 3.39 1.29-.43 2.36-1.3 4.19-2.21 1.92-.66 3.34.64 4.46.94l.04.01c1.12.04 2.51-.84 4.45.44 1.83 1.46 2.95 2.69 4.23 3.51-2.36-2.26-3.48-4.61-6.07-5.27-.55-.05-1.53.08-2.61.48l-.04-.01c-1.08-.73-2.08-1.17-2.62-1.28"/><path fill="#85340a" d="M496.46 515.66c-1.06-.1-2.4-.08-4.38.25 4.73-.22 5.77 1.31 7.88 1.8l.03.01c2.15.16 3.1-1.07 7.88.63-5.31-2.41-6.26-1.66-7.88-1.81h-.03c-.98-.19-1.78-.65-3.5-.88"/><path fill="#85340a" d="M492.31 515.91c-.3-.05-.64-.09-1-.12 5.42 1.8 2.97 4.12 8.65 5.37l.04.01c5.79.52 3.16-2.57 8.69-2.69-5.83-1.09-3.91 2.15-8.69 1.81l-.04-.01c-4.36-1.01-3.14-3.4-7.65-4.37M504.74 527.16c-.23-3.05-1.99-5.24-4.74-5.91-2.78-.18-4.5 1.43-4.73 4.44.72-2.4 2.33-3.54 4.73-3.35 2.38.54 4.03 2.22 4.74 4.82M478.76 488.68c6.37-4.75 13.32-4.46 17.87.46 1.02 1.72 1.65 3.36 1.96 5.11.42 3.49-.42 6.57-2.75 9.99.28.07.76.4 1.05.74 2.05-4.18 2.74-8.28 2.14-12.77-.19-1.14-.46-2.27-.82-3.4-6.09-6.09-13.33-7.75-19.45-.13"/><path fill="#85340a" d="M488.22 488.42c3.43.62 4.16 1.47 5.78 3.19 1.63 1.63 2.32 1.56 2.63 1.84.22.39.04 1.08-.53.78-.53-.37-1.55-1.12-3.15-2.78-1.68-1.64-3.08-1.91-4.73-2.17-4.75-.31-7.35 2.79-7.89 2.81-.16-.73 2.35-4.05 7.89-3.67"/><path fill="#843511" d="M488.06 490.17c-2.49-.27-4.38.38-5.89 2.49 2.99 3 8.09 4.03 12.38 1.62-1.87-2.3-4.06-3.62-6.49-4.11m-.04.58c2.4.45 4.2 1.71 4.69 2.95-2.99 2.62-6.49 1.85-9.46-.87 1.31-1.83 2.87-2.25 4.77-2.08"/><path fill="#85340a" d="M490.73 493.39c-.11 1.51-.97 2.31-2.37 2.22-1.37-.33-2.25-1.43-2.36-2.95.11-1.51.97-2.31 2.36-2.22 1.38.33 2.26 1.43 2.37 2.95M481.91 493.76c4.75 4.39 8.67 4.74 11.56 3.51 2.63-1.37 2.62-1.82 2.1-1.97-.53-.02-1.03.38-3.15 1.23-2.28.73-5.07.32-10.51-2.77"/><path fill="#1A1A1A" opacity=".2" d="M8 195.25c170.83-85.22 341.03-54.42 513.26-27.97 155.21 23.84 312.16 44.57 470.74-34.53v672c-170.83 85.22-341.03 54.42-513.26 27.97C323.53 808.88 166.58 788.15 8 867.25v-672m31.25 19.39v604.5c306.56-128.26 611.18 96.04 921.5-33.78v-604.5c-306.56 128.26-611.18-96.04-921.5 33.78"/></svg>