<svg xmlns="http://www.w3.org/2000/svg" viewBox="0 0 1000 1000"><path fill="#00afca" d="M8 195.25c170.83-85.22 341.03-54.42 513.26-27.97 155.21 23.84 312.16 44.57 470.74-34.53v672c-170.83 85.22-341.03 54.42-513.26 27.97C323.53 808.88 166.58 788.15 8 867.25v-672"/><path fill="#fec50c" d="M605.79 461.55c-.24 50.23-29.43 86.39-66.2 81.18-36.72-5.86-65.96-50.46-66.2-100.59.24-50.23 29.44-85.45 66.2-80.24 36.72 5.85 65.96 49.52 66.2 99.65M539.59 349.56c4.06.22 5.27-2.38 5.41-6.64-.14-5.4-5.4-31.75-5.41-31.79-.01.04-5.26 24.75-5.41 30.16.15 4.28 1.4 7.34 5.41 8.27M614.82 462.65c.28 5.54 2.35 7.47 5.46 8.03 4.07.21 22.52-4.89 22.68-4.94-.06-.03-18.73-9.12-22.68-9.84-3.14-.16-5.22 1.24-5.46 6.75M539.59 555.06c-4.05-.22-5.26 2.38-5.41 6.64.15 5.41 5.4 31.76 5.41 31.8.01-.04 5.26-24.76 5.41-30.17-.14-4.28-1.4-7.34-5.41-8.27M464.37 440.76c-.29-5.54-2.36-7.54-5.47-8.21-4.06-.34-22.54 4.02-22.68 4.05.08.04 18.73 9.88 22.68 10.73 3.15.27 5.22-1.06 5.47-6.57M568.38 361.61c3.9 2.29 5.73.65 7.09-3.06 1.36-4.84 3.68-30.89 3.68-30.94-.04.05-12 19.14-13.68 23.87-1.06 3.81-.69 7.26 2.91 10.13M609.09 501.28c-1.28 5.03.18 7.93 2.98 10.05 3.86 2.35 22.9 7.6 23.02 7.63-.03-.03-15.32-18.11-18.88-20.8-2.99-1.8-5.31-1.67-7.12 3.12M510.8 542.84c-3.89-2.34-5.72-.73-7.09 2.97-1.36 4.81-3.67 30.83-3.68 30.88.04-.06 12-18.96 13.68-23.68 1.06-3.8.69-7.25-2.91-10.17M470.09 402.31c1.29-4.98-.18-7.93-2.97-10.13-3.84-2.46-22.93-8.44-23.03-8.47.04.05 15.33 18.7 18.89 21.5 2.99 1.9 5.3 1.84 7.11-2.9M592.79 387.23c3.1 4.05 5.33 3.55 7.68.95 2.66-3.6 12.18-25.55 12.22-25.62-.08.05-16.9 10.86-19.87 14.17-2.09 2.83-2.71 6.07-.03 10.5M592.79 532.54c-2.64 3.76-2.06 7.12.03 10.51 2.99 4.12 19.82 19.14 19.87 19.18-.02-.04-9.55-24.37-12.22-28.65-2.35-3.2-4.6-4.32-7.68-1.04M486.4 516.79c-3.11-4.12-5.33-3.67-7.69-1.14-2.66 3.53-12.18 25.2-12.21 25.27.08-.05 16.87-10.36 19.86-13.63 2.09-2.79 2.71-6.01.04-10.5M486.4 371.48c2.63-3.7 2.05-7.07-.04-10.5-2.97-4.17-19.81-19.68-19.86-19.73.02.05 9.55 24.65 12.21 29 2.36 3.26 4.61 4.44 7.69 1.23M609.09 422.64c1.85 5.19 4.14 5.92 7.12 4.83 3.6-1.87 18.79-16.47 18.88-16.57-.09.01-19.26 1.03-23.02 2.42-2.82 1.44-4.31 3.96-2.98 9.32M568.38 551.47c-3.6 1.91-3.97 5.16-2.91 9.3 1.67 5.18 13.66 27.68 13.68 27.72 0-.05-2.31-26.72-3.68-31.96-1.36-4.09-3.23-6.3-7.09-5.06M470.09 480.95c-1.84-5.24-4.14-6.04-7.11-5.05-3.61 1.75-18.8 15.79-18.89 15.87.12 0 19.24-.3 23.03-1.58 2.81-1.37 4.31-3.84 2.97-9.24M510.8 352.98c3.61-1.87 3.98-5.11 2.91-9.27-1.66-5.18-13.65-27.86-13.68-27.9.01.04 2.31 26.75 3.68 32.01 1.36 4.11 3.24 6.35 7.09 5.16M554.27 353.72c4.04 1.29 5.61-.88 6.37-4.94.62-5.21-.88-31.91-.88-31.95-.02.05-8.8 22.35-9.73 27.51-.47 4.13.36 7.43 4.24 9.38M613.37 482.52c-.5 5.4 1.29 7.84 4.3 9.22 4.07 1.3 23.15 1.34 23.31 1.34-.05-.03-17.37-13.87-21.19-15.59-3.12-1.01-5.39-.22-6.42 5.03M524.92 550.86c-4.05-1.32-5.62.84-6.38 4.89-.62 5.21.88 31.92.89 31.97.01-.05 8.8-22.29 9.73-27.46.46-4.13-.37-7.42-4.24-9.4M465.81 420.94c.51-5.38-1.29-7.88-4.3-9.36-4.04-1.43-23.17-2.23-23.3-2.24.06.05 17.37 14.57 21.19 16.42 3.11 1.11 5.38.4 6.41-4.82M581.39 372.92c3.57 3.23 5.63 2.14 7.53-1.08 2.05-4.28 8.09-28.74 8.1-28.8-.06.06-14.73 15.27-17.1 19.37-1.6 3.38-1.73 6.8 1.47 10.51M602.14 518.18c-2 4.47-.95 7.68 1.53 10.48 3.5 3.32 21.79 13.63 21.87 13.67-.02-.04-12.68-21.67-15.85-25.22-2.73-2.55-5.05-3.05-7.55 1.07M497.8 531.33c-3.57-3.3-5.64-2.25-7.54.93-2.05 4.25-8.08 28.56-8.1 28.62.06-.06 14.72-14.93 17.1-19.01 1.61-3.36 1.74-6.77-1.46-10.54M477.04 385.61c2-4.42.96-7.65-1.53-10.52-3.47-3.39-21.8-14.34-21.87-14.38.03.05 12.69 22.11 15.86 25.75 2.72 2.63 5.05 3.21 7.54-.85M602.14 404.01c2.52 4.71 4.83 4.82 7.55 2.94 3.18-2.78 15.79-21.41 15.85-21.5-.09.03-18.43 6.06-21.87 8.46-2.49 2.18-3.57 5.12-1.53 10.1M581.39 543.79c-3.18 2.89-3.08 6.27-1.47 10.1 2.37 4.75 17.07 23.9 17.1 23.94-.01-.04-6.04-26.07-8.1-30.93-1.89-3.72-3.99-5.42-7.53-3.11M477.04 499.78c-2.52-4.77-4.82-4.95-7.54-3.16-3.19 2.69-15.8 20.89-15.86 20.97.11-.03 18.4-5.43 21.87-7.75 2.49-2.12 3.58-5.02 1.53-10.06M497.8 360.47c3.17-2.84 3.07-6.22 1.46-10.09-2.35-4.77-17.06-24.25-17.1-24.29.01.04 6.05 26.22 8.1 31.12 1.9 3.75 4 5.5 7.54 3.26M613.37 442.43c1.07 5.47 3.32 6.83 6.42 6.55 3.9-.86 21.05-10.9 21.19-10.99-.08-.01-19.37-4.09-23.31-3.75-3.03.67-4.85 2.65-4.3 8.19M554.27 555.27c-3.9.89-4.71 3.83-4.24 8.13.92 5.4 9.71 30.34 9.73 30.37 0-.04 1.51-26.26.88-31.69-.75-4.27-2.37-6.97-6.37-6.81M465.81 461.03c-1.07-5.5-3.32-6.93-6.41-6.77-3.91.73-21.07 10.1-21.19 10.17.1.03 19.35 4.86 23.3 4.65 3.04-.57 4.85-2.48 4.3-8.05M524.92 349.31c3.9-.86 4.7-3.81 4.24-8.11-.92-5.39-9.72-30.39-9.73-30.43-.01.04-1.51 26.25-.89 31.69.76 4.27 2.38 6.99 6.38 6.85M527.78 646.39c-1.8-.12-3.46-.05-5.18.39-2.31.14-4.53.77-6.82.99l-.92.06-1.54-.04c.09.6.15 1.19.16 1.78 0 .61-.06 1.17-.16 1.65-.12.46-.41.98-.66 1.31-.34.45-.67.8-1.08 1.02-.41.2-.82.25-1.28.23-.46-.05-.88-.15-1.33-.43-.44-.29-.84-.71-1.23-1.22-.46.08-.93.12-1.38.12-.46-.01-.88-.07-1.29-.2-.46-.25-.93-.53-1.38-.84-.44-.32-.86-.69-1.28-1.12-1.74 1.12-3.41 2.1-4.56 4.27-.54 1.03-.68 2.18-.82 3.46-.04 1.58.23 3.22.71 4.79.22.28.33-1.31.88-1.68a7.16 7.16 0 0 1 3.28-1.73c1.02-.48.87.14.46 1.19-.12.62-.69 2.48.1 1.63 3.43-1.4 6.94-1.33 10.61-1.16 5.22.1 10.44.72 15.68 1.42l14.76 2.66c2.36.5 4.69 1.39 7.02 1.31.6-.1 1.37-.07 1.75-.43-1.1-.94-2.24-1.19-3.44-1.56l-9.38-1.41c-2.66-.73-5.25-1.29-7.79-2.92-.7-.54-1.19-1.31-1.89-.58-.95.29-1.92.44-2.92.4-1.76-.15-3.37-.84-5.03-1.95 1.18-1.98 2.51-3.7 3.79-5.52-1.02-.38-2-.82-3.02-1.31 1.77-1.43 3.45-3.05 5.18-4.58"/><path fill="#fec50c" d="M604.4 680.46c-3.77 1.98-6.14-2.67-9.26-5-1.89 1.58-2.51 6.34-4.32 8.79-2.8 2.97-4.99-1.43-5.07-5.36-2.88 3.32-4.21 9.58-8.89 8.49-2.23-3.09-3.54-7.7-5.46-2.48-1.67 2.86-4.54 5.89-6.85 1.61-.67-4-1.72-8.36-3.47-2.72-1.34 4.28-4.05 6.48-7.57 4.41-1.38-2.8 1.05-8.32-.83-8.83-3.38 2.92-5.23 9.23-9.96 8.44-1.44-3.22.73-7.15-.89-10.71-2.45 4.02-4.88 9.02-9.01 9.22-1.54-2.72-.35-8.14-1.17-9.5-4.33 3.02-8.37 7.82-13.8 5.47 2.36-10.39 10.32-12.68 17.74-12.53 12.42-.05 25.23 5.29 37.21 1.11 2.29-1.44 6.07-2.79 4.91-6.87-.96-3.08 3.25-1.35 4.33-4.6-.03-4.3 2.2-3.47 5.09-3.41 11.99 1.01 23.85 5.76 35.8 7.79.55 8.28-5.23 12.63-10.76 9.83-2.68-.6-5.84-7.95-5.48-2.4-.44 3.32-.34 7.1-2.29 9.25m-102.04-31.07c3.01 3.53 4.58.42 7.32-1.03 8.71-2.86 16.25-8.69 23.79-14.72 4.59-4.6 8.45-10.23 14.56-11.26 11.92-3 24.48-.86 36.45-3.64 9.28-15.66 24.38-19.85 37.44-28.11 2.91-1.19 3.93-3.84 4.95-7.53 5.03-10.14 11.64-18.67 19.6-24.46 3.97-2.45 8.05-3.51 12.51-2-.45 7-3.2 12.66-6.73 17.26 2.88-.05 5.34-1.84 8.25-1.7.66 7.27-4.4 10.37-7.62 14.58 2.08.74 7.57 1.64 4.57 3.88-4.49 3.76-9.41 6.3-13.58 10.69 3.79 1.42 4.18 2.3.37 3.93-2.37 1.67-5.68 2.05-6.46 5.68 2.46 2.95-1.01 4.47-2.92 5.25-3.28.79-6.02 1.9-2.22 5.75-1.85 2.99-4.6 3.27-7.55 2.72.9 3.99 1.87 7.48-1.42 9.07-7.86 7.1-16.59 11.6-26.38 11.83 12.27 2.75 24.29 1.19 34.82-6.62 1.98-2.11 7.88-3.41 4.51-5.94-2.11-1.32-5.55-2.9-6.18-4.87 5.75-3.85 12.5-1.9 18.64-3.93-.34-2.57-4.21-2.42-6.34-3.14-4.19-1.05-3.96-2.18.1-2.47 5.26-1.28 10.73-1.32 15.25-5.36-3.67-2.26-7.79-1.23-11.68-3.15 6.46-3.07 13.69-3.07 19.54-8.15 2.07-3.81-2.92-3.05-5.05-3.03-3.6.27-5.03-1.63-1.14-3.56 6.94-6.26 15.27-10.17 20.25-19.75 1.16-2.54 2.79-8.2-.94-6.6-4.89 2.2-8.79 8.38-14.38 6.14 10.7-10.51 20.77-22.67 28.17-37.95-.16-4.58-4.3-5.14-6.16-1.81-6.88 8.7-13.14 18.7-21.89 23.82 8.4-10.47 15.36-23.08 21.47-36.35 1.47-4.11 4.51-8.48 2.9-13.25-3.41-3.4-6.59-.88-8.49 3.32-5.3 9.22-9.48 19.88-16.26 27.18 6.03-15.23 12.12-31.38 12.39-49.49-.08-4.12-.53-8.71-4.27-8.81-2.75 1.03-2.34 6.15-3.44 9.48-2.63 12.19-4.02 25.35-9.37 35.78 1.26-9.97 3.26-20.17 1.72-30.49-1.33-4.48-5.56-3.19-5.43 1.43-6.56 43.86-28.1 80.18-56.58 99.14-13.14 8.37-27.48 12.79-42.36 13.65-4.02.47-8.23-.54-12.09.56-9.17 8.48-14.87 23.28-26.47 26.85-5.41 2.65-11.79 2.56-15.79 8.47-.3.82-.38 1.75-.38 2.71"/><path fill="#fec50c" d="M537.29 609.85c-1.67 4.05-2.83 8.7-4.95 12.25-6.91-9.2-16.14-10.49-24.77-12.36-7.13-1.64-14.32-3.69-19.95-11.27-5.63-7.28-10.4-16.1-16.66-22.31-5.85-3.09-11.49-6.63-16.28-12.72-9.84-12.64-15.74-29.75-25.37-42.62-1.9-2.73-4.02-5-6.11-7.4-1.87.98-1.08 5.81-3.5 3.03-1.6-1.47-4.25-1.97-4.89-.29 2.99 5.83 5.81 12.22 6.36 19.17-2.18-.12-5.44-1.11-6.64-.46 2.75 5.89 6.16 11.17 10.06 15.67-2.05.07-5.35-.39-6.3.35 3.98 4.96 8.05 9.67 13.16 11.71.73 2.23-1.19 5.04.63 7.2 1.56.99 5.04 2.39 2.54 4.18-1.84 1.92-1.28 5.36 1.27 6.07 1.8 1.31 4.8 2.18 5.4 4.06-1.76 1.85-5.36 3.19-2.05 5.78 3.59 3.14 7.35 5.28 11.37 6.18-2.05 1.91-4.37 2.99-6.47 4.77 9.18 8.6 19.22 14.96 29.24 21.13 4 2.42 8.01 4.69 12.13 6.44-12.03-2.91-23.49-9.4-34.49-17.67-5.67-4.22-11.37-8.32-17.16-12.08 2.6-1.33 5.43-1.56 8.12-2.65-5.56-2.27-11.31-3.74-16.27-8.42.98-1.58 3.36-1.46 5.08-2.08 2.96-.61 4.66-1.31.61-2.37-4.26-2.02-8.69-2.26-12.52-6 .62-1.84 3.75-.92 5.6-1.44 2.06-.18 3.99-.33 5.7-1.84-6.62-4.37-14.48-3.3-19.77-11.48-.69-2.92 3.24-.39 4.94-.4 3.54.61 6.98 2.2 10.38 1.03-9.37-6.92-19.15-13.49-26.39-24.68-.98-2.15-2.91-6.1-1.25-6.92 5.51 2.1 9.55 9.97 15.45 9.98.31-1.49-3.11-4.16-4.49-6.49-8.63-11.28-16.92-23.27-23.04-37.22.12-4.55 4.19-4.43 6.01-.94 6.59 9.54 12.63 20.26 20.77 27.4 2.85 2.13-1.44-2.46-2.29-4.12-7.58-13.07-14.76-26.68-20.12-41.51-1.06-3.05-2.32-7 .32-8.5 3.11-1.26 5.4 1.19 7.1 4.92 5.54 10.37 9.78 22.2 16.64 31.23-5.94-16.55-12.13-33.8-12.4-51.92.16-3.86.28-8.26 3.78-8.17 2.84.31 2.53 4.43 3.42 7.39 2.84 13.69 4.23 28.11 9.9 40.68-1.3-10.05-3.06-20.38-1.91-30.25.57-3.3 2.73-3.78 4.76-1.64 1.36 5 1.79 10.9 3.03 16.21 7.53 35.73 24.05 68.34 45.73 92.23 18.01 19.47 38.96 32.62 60.67 37.79 1.96.52 3.92.92 5.88 1.37h-.01M511 650.14c-.05.93-.47 1.44-1.16 1.41-.67-.18-1.11-.84-1.16-1.77.05-.93.47-1.44 1.16-1.41.67.18 1.11.83 1.16 1.77"/><path fill="#fec50c" d="M510.22 649.76c-.03.38-.2.59-.48.58-.27-.08-.45-.34-.47-.73.02-.37.19-.58.47-.57.28.07.45.34.48.72"/><path fill="#00afca" d="M510.31 649.78c-.02.53-.17.72-.57.68-.39-.08-.55-.32-.57-.86.02-.54.18-.72.57-.69.39.09.55.33.57.87m-.19-.03c0-.15-.04-.27-.11-.39-.08-.11-.16-.17-.27-.19-.26-.02-.37.1-.38.46.01.36.12.52.38.58.27.02.37-.1.38-.46"/><path fill="#fec50c" d="M67.04 219.18c-.38-.29-4.22-3.38-6.33-.43-2.16 5.5 7.65 23.16 7.94 31.03-.25 12.72-6.02 17.99-13.77 22.85-5.23 3-13.33 4.81-13.41 4.83 1.64-3.57 2.56-4.69 5.22-6.07-3.05-1.1-5.73-4.04-5.92-11.22.11-10.84 3.15-16.66 3.27-28.88-.24-6.88-4.01-13.62-4.08-13.74 7.38-1.66 10.58 5.47 8.74 13.81 1.19-.3 2.11-.97 3.08-2.5.4 1.93-.29 4.36-1.42 6.93.94.23 1.51-.3 2.98-1.3-.21 2.21-1.06 4.57-3.27 7.64 6.72-4.58 10.22-.3 10.45 6.34-.24 5.13-2.41 8.92-4.94 10.2-.86.28-1.88.28-2.61-.11-.4 1.59-.2 3.14.26 4.38-1.89-.07-2.81-.86-2.12-4.3-1.46.33-2.38.15-3.21-.75.83-1.67 1.86-2.74 3.21-3.28-.86-2.58.05-4.3 1.74-6.36-.07.45-1.02 5.46 1.61 5.06 1.25-.54 2.15-1.33 2.26-3.78-.14-2.26-1.18-4.22-4.41-3.09-3.17 1.63-5.37 4.91-5.57 11.81.25 6.29 3.44 7.66 8.47 6.16 4.48-1.76 7.39-5.65 7.63-11.99-.23-8.17-8.39-23.55-8.61-30.78.28-5.67 3.43-9.56 7.09-11.15 4.81-1.19 8.14 2.87 8.4 3.17l-2.68 5.51v.01"/><path fill="#fec50c" d="M68.03 366.14c-.31 13.82-8.77 23.49-15.99 26.53-9.66 3.45-14.32-1.66-14.52-11.98.05-5.77.79-9.64 2.71-15.99l21.72-70.07c.72-2.46.98-4.92 1.01-8.52-.28-5.7-3.69-8.39-8.04-7.19-3.87 1.69-7.55 7.54-7.83 13.41.21 6.92 2.4 8.6 5.22 7.75 3.32-1.47 4.41-3.4 4.55-6.68-.08-2.24-.69-2.75-1.87-2.41-2.64 1.53-2.06 5.55-2.01 5.9-1.48-.04-2.4-1.23-1.87-4.04-1.07.05-1.9-.26-2.71-1.13.78-1.31 1.6-2.33 2.71-3.08-.55-2.83.18-4.32 2.11-5.81-.36 1.3-.38 2.3-.27 3.26 3.27-2.24 7.16-2.21 7.53 4.86-.21 7.27-3.43 13.71-10.18 15.23 1.61.59 2.3 2.09 2.55 4.51-1.24-.12-2.51.25-2.55.26.84 1.59 1.75 2.73 1.81 6.44-1.31-.37-2.27-1.14-3.95.27 2.3 6.04-.53 15.57-8.3 21.35 2.8-5.82 4.13-11.09 4.22-16.04-.11-15.79-3.11-17.12-3.21-28.1.11-4.72 1.75-10.1 5.15-15.03v.18c-2.36-.01-3.58-.79-4.55-2.56 5.44-4.19 12.47-6.85 16.73-6.38 4.83-.69 7.67 2.54 8.84 4.86.95 2.33 2.65 10.21 0 19.43l-22.09 72.34c-.93 3.23-1.48 6.36-1.54 9.61.35 8.12 5.15 8.63 8.5 7.51 3.83-1.78 7.14-6.4 7.43-11.43-.13-3.15-1.09-4.26-2.94-3.76-4.09 2.05-3.89 5.96-3.08 9.06-2.69-.82-3.93-2.66-3.69-5.99-1.56.25-2.75-.09-4.15-1.55 1.09-2.23 2.24-3.84 4.15-4.77-.57-4.5 1.33-6.98 3.69-9.14-.72 3.99-1.22 7.36 3.08 6.16 3.29-1.16 5.3-1.27 6.96.91l.29-15.7.04-2.57c-.31-5.44-4.98-3.42-8.83-.39 1.48-6.94 3.95-10.95 10.3-12.6-1.63-.46-2.97-1.59-3.14-5.46.21-5.28 3.01-11.62 5.02-14.23l.99 52.77"/><path fill="#fec50c" d="M68.03 407c-.31-13.76-8.68-17.3-15.99-14.72-9.56 4.03-14.32 13.4-14.52 23.77.05 5.78.79 8.97 2.71 13.71l3.61 8.75 18.11 44.35c.71 1.92.98 4.18 1.01 7.79-.27 5.77-3.8 11.11-8.04 13.16-3.99 1.32-7.55-1.54-7.83-7.3.21-6.99 2.48-10.55 5.22-11.86 3.39-1.11 4.41-.02 4.55 3.21-.08 2.26-.73 3.29-1.87 3.83-2.8.52-2.06-3.96-2.01-4.36-1.43 1.15-2.38 3.15-1.87 5.49-1.02.75-1.92 1.79-2.71 3.27.8.7 1.56 1.06 2.71.94-.56 3.31.14 4.18 2.11 4.18-.36-1.02-.39-1.99-.27-3.06 3.23-.28 7.17-3.32 7.53-10.53-.21-7.15-3.32-11.31-10.18-7.5 1.56-1.79 2.31-3.97 2.55-6.49-1.24 1.08-2.53 1.72-2.55 1.72.82-2.2 1.75-4.18 1.81-7.85-1.29 1.37-2.32 2.9-3.95 2.83 2.31-7.89-.43-15.28-8.3-14.57 2.82 3.5 4.13 7.57 4.22 12.55-.11 15.79-3.11 19.76-3.21 30.74.12 4.77 1.7 8.59 5.15 10.82v-.18c-2.27 1.85-3.62 3.81-4.55 6.27 5.33-.3 12.48-3.13 16.73-6.78 4.65-2.8 7.72-8.28 8.84-11.28.96-3.01 2.62-12.15 0-19.43l-22.09-55.6c-.93-2.47-1.48-5.1-1.54-8.36.34-8.29 5.22-12.83 8.5-14.3 3.94-1.21 7.13.86 7.43 5.8-.13 3.19-1.15 5.09-2.94 5.96-4.24 1.08-3.9-2.97-3.08-6.71-2.63 2.83-3.92 5.84-3.69 8.86-1.48.94-2.78 2.33-4.15 4.86 1.13 1.39 2.15 2.07 4.15 1.46-.58 5.08 1.27 5.92 3.69 6.27-.72-3.43-1.09-6.51 3.08-8.51 3.2-1.29 5.34-2.76 6.96-6.05l.33 18.02c-.3 5.49-4.97 7.05-8.83 6.95 1.49 5.88 3.86 7.93 10.3 4.99-1.57 1.57-2.98 3.85-3.14 7.73.22 5.3 2.94 9.39 5.02 10.63l.99-53.47M67.04 219.18c.38-.55 4.23-6.36 6.33-4.89 2.09 3.84-7.66 28.63-7.94 36.62.26 12.65 5.97 13.76 13.77 13.15 5.14-.69 13.33-4.61 13.41-4.65-1.66-2.44-2.5-2.89-5.22-2.38 2.98-3.18 5.73-8.23 5.92-15.41-.11-10.84-3.15-14.35-3.27-26.57.23-6.86 4.03-16.51 4.08-16.62-7.28 3.52-10.57 13-8.74 19.99-1.23.56-2.09.54-3.08-.32-.41 2.29.29 4.14 1.42 5.93-.95.9-1.52.76-2.98.8.22 2.15 1.02 3.79 3.27 5.33-6.63.16-10.22 6.95-10.45 13.71.24 5.07 2.3 7.25 4.94 6.72.82-.31 1.89-1.07 2.61-1.95.39 1.28.21 2.98-.26 4.56 1.86-1.38 2.79-2.89 2.12-5.8 1.41-.67 2.4-1.56 3.21-3.02-.85-1.1-1.8-1.43-3.21-1.01.88-3.25-.04-4.25-1.74-5.13.07.4.86 4.83-1.61 6.2-1.27.35-2.15.23-2.26-2.18.14-2.31 1.27-5.09 4.41-6.21 3.24-.62 5.37 1.03 5.57 7.87-.25 6.38-3.51 10.13-8.47 12.15-4.56 1.42-7.38-.36-7.63-6.61.22-8.17 8.39-29.62 8.61-36.85-.29-5.58-3.35-7.17-7.09-6.15-4.54 2.08-8.24 8.78-8.4 9.09l2.68 3.63"/><path fill="#fec50c" d="M66.05 366.84c.31 13.71 8.7 17.33 15.99 15.25 9.57-3.34 14.32-11.86 14.52-22.26-.05-5.77-.79-9.08-2.71-14.06l-21.72-54.73c-.71-1.94-.98-4.2-1.01-7.81.27-5.78 3.79-11.04 8.04-12.86 3.99-1.08 7.55 2.11 7.83 7.89-.21 6.98-2.47 10.32-5.22 11.44-3.38.88-4.41-.24-4.55-3.48.08-2.26.72-3.25 1.87-3.73 2.78-.35 2.06 4.09 2.01 4.49 1.44-1.06 2.39-2.98 1.87-5.36 1.03-.68 1.92-1.64 2.71-3.05-.8-.78-1.56-1.2-2.71-1.17.56-3.26-.15-4.19-2.11-4.32.36 1.04.39 2.02.27 3.07-3.24.07-7.17 2.95-7.53 10.18.21 7.17 3.33 11.33 10.18 8.05-1.56 1.67-2.31 3.79-2.55 6.3 1.25-1 2.53-1.53 2.55-1.54-.82 2.15-1.75 4.05-1.81 7.72 1.3-1.28 2.31-2.73 3.95-2.52-2.32 7.74.46 15.2 8.3 15.48-2.81-3.85-4.13-8.08-4.22-13.06.11-15.79 3.11-19.4 3.21-30.37-.12-4.76-1.71-8.82-5.15-11.38v.18c2.28-1.63 3.62-3.41 4.55-5.78-5.39-.33-12.43 1.92-16.73 5.44-4.66 2.62-7.72 8.09-8.84 11.09-.96 3.02-2.62 12.16 0 19.43l22.09 56.75c.93 2.56 1.48 5.26 1.54 8.52-.34 8.25-5.2 12.29-8.5 13.52-3.93.95-7.13-1.25-7.43-6.19.13-3.19 1.15-5.05 2.94-5.83 4.23-.86 3.89 3.2 3.08 6.88 2.63-2.65 3.92-5.53 3.69-8.59 1.49-.82 2.77-2.08 4.15-4.48-1.12-1.5-2.16-2.28-4.15-1.84.58-5.02-1.28-6.03-3.69-6.54.73 3.5 1.09 6.56-3.08 8.34-3.21 1.13-5.33 2.54-6.96 5.82l-.29-15.5-.04-2.54c.3-5.5 4.96-6.94 8.83-6.62-1.49-5.94-3.87-8.2-10.3-5.33 1.57-1.56 2.98-3.8 3.14-7.68-.22-5.3-2.94-9.45-5.02-10.69l-.99 53.47"/><path fill="#fec50c" d="M66.05 407.7c.31-13.88 8.77-23.45 15.99-26 9.65-2.75 14.32 3.19 14.52 13.49-.05 5.78-.79 9.53-2.71 15.63l-3.61 11.31-18.11 57.14c-.72 2.45-.98 4.9-1.01 8.5.28 5.69 3.7 8.46 8.04 7.5 3.89-1.47 7.55-6.97 7.83-12.83-.21-6.93-2.4-8.82-5.22-8.17-3.33 1.25-4.41 3.14-4.55 6.42.08 2.23.69 2.78 1.87 2.5 2.65-1.37 2.06-5.41 2.01-5.78 1.47.14 2.4 1.41 1.87 4.17 1.07.04 1.9.41 2.71 1.35-.78 1.25-1.6 2.2-2.71 2.87.55 2.87-.18 4.3-2.11 5.66.36-1.28.38-2.28.27-3.24-3.27 2.02-7.16 1.83-7.53-5.23.21-7.25 3.41-13.66 10.18-14.68-1.61-.7-2.3-2.26-2.55-4.69 1.24.21 2.52-.06 2.55-.07-.83-1.66-1.75-2.87-1.81-6.58 1.31.46 2.27 1.3 3.95.05-2.29-6.22.51-15.64 8.3-20.46-2.8 5.47-4.13 10.59-4.22 15.55.11 15.78 3.11 17.48 3.21 28.46-.11 4.74-1.75 9.87-5.15 14.47v-.19c2.35.26 3.59 1.19 4.55 3.06-5.39 3.52-12.51 5.69-16.73 5.04-4.82.5-7.67-2.73-8.84-5.05-.95-2.32-2.65-10.2 0-19.43l22.09-71.19c.93-3.14 1.48-6.2 1.54-9.45-.35-8.17-5.14-9.16-8.5-8.29-3.84 1.53-7.14 6-7.43 11.04.13 3.15 1.09 4.29 2.94 3.88 4.09-1.83 3.9-5.71 3.08-8.88 2.69 1 3.93 2.96 3.69 6.26 1.55-.12 2.75.33 4.15 1.93-1.1 2.13-2.23 3.61-4.15 4.4.57 4.56-1.32 6.85-3.69 8.86.72-3.93 1.21-7.31-3.08-6.33-3.29.99-5.3 1.06-6.96-1.15l-.33 18.26c.31 5.43 4.98 3.54 8.83.72-1.48 6.88-3.94 10.68-10.3 12.26 1.63.48 2.97 1.64 3.14 5.51-.21 5.27-3.01 11.56-5.02 14.17l-.99-52.77M67.04 793.17c-.37.54-4.24 6.38-6.33 4.98-2.1-3.8 7.66-28.79 7.94-36.7-.26-12.66-5.97-13.85-13.77-12.82-5.15 1-13.28 5.76-13.41 5.84 1.67 2.25 2.5 2.59 5.22 1.82-2.97 3.46-5.73 8.87-5.92 16.05.11 10.84 3.15 13.97 3.27 26.2-.23 6.84-4.03 16.99-4.08 17.09 7.25-4.41 10.57-14.06 8.74-20.91 1.23-.67 2.09-.71 3.08.07.42-2.33-.29-4.12-1.42-5.82.95-.97 1.52-.88 2.98-1.02-.22-2.13-1.02-3.72-3.27-5.08 6.62-.68 10.22-7.52 10.45-14.29-.24-5.07-2.29-7.18-4.94-6.52-.82.35-1.89 1.18-2.61 2.11-.39-1.24-.21-2.97.26-4.57-1.85 1.5-2.79 3.09-2.12 5.94-1.4.78-2.4 1.76-3.21 3.28.85 1.03 1.8 1.28 3.21.75-.88 3.32.04 4.24 1.74 5.01-.07-.39-.86-4.79 1.61-6.3 1.27-.43 2.15-.35 2.26 2.06-.14 2.31-1.28 5.14-4.41 6.46-3.25.86-5.37-.58-5.57-7.41.25-6.39 3.52-10.49 8.47-12.79 4.56-1.66 7.38.08 7.63 6.33-.22 8.12-8.39 29.92-8.61 37.2.29 5.56 3.35 6.96 7.09 5.83 4.53-2.18 8.24-8.85 8.4-9.14l-2.68-3.65"/><path fill="#fec50c" d="M68.03 645.51c-.31-13.77-8.68-17.3-15.99-14.73-9.56 4.03-14.32 13.41-14.52 23.78.05 5.78.79 8.96 2.71 13.7l3.61 8.75 18.11 44.36c.71 1.92.98 4.17 1.01 7.79-.27 5.77-3.8 11.11-8.04 13.16-3.99 1.31-7.55-1.54-7.83-7.3.21-6.99 2.48-10.56 5.22-11.86 3.39-1.11 4.41-.02 4.55 3.21-.08 2.26-.73 3.29-1.87 3.82-2.8.53-2.06-3.95-2.01-4.36-1.43 1.15-2.38 3.16-1.87 5.5-1.02.75-1.92 1.79-2.71 3.26.8.71 1.56 1.07 2.71.95-.56 3.31.14 4.18 2.11 4.18-.36-1.02-.39-2-.27-3.06 3.23-.28 7.17-3.32 7.53-10.54-.21-7.14-3.32-11.3-10.18-7.49 1.56-1.79 2.31-3.98 2.55-6.49-1.24 1.08-2.53 1.71-2.55 1.72.82-2.21 1.75-4.18 1.81-7.85-1.29 1.36-2.32 2.9-3.95 2.83 2.31-7.89-.43-15.29-8.3-14.58 2.82 3.5 4.13 7.58 4.22 12.56-.11 15.78-3.11 19.76-3.21 30.74.12 4.77 1.7 8.59 5.15 10.81v-.18c-2.27 1.85-3.62 3.81-4.55 6.28 5.33-.3 12.48-3.13 16.73-6.79 4.65-2.79 7.72-8.27 8.84-11.27.96-3.02 2.62-12.15 0-19.43l-22.09-55.61c-.93-2.47-1.48-5.09-1.54-8.35.34-8.29 5.22-12.84 8.5-14.3 3.94-1.22 7.13.86 7.43 5.8-.13 3.18-1.15 5.09-2.94 5.96-4.24 1.08-3.9-2.97-3.08-6.71-2.63 2.82-3.92 5.84-3.69 8.86-1.48.93-2.78 2.33-4.15 4.86 1.13 1.39 2.15 2.06 4.15 1.46-.58 5.08 1.27 5.91 3.69 6.26-.72-3.42-1.09-6.51 3.08-8.5 3.2-1.29 5.34-2.76 6.96-6.06l.33 18.03c-.3 5.49-4.97 7.05-8.83 6.94 1.49 5.89 3.86 7.94 10.3 5-1.57 1.57-2.98 3.84-3.14 7.73.22 5.29 2.94 9.39 5.02 10.63l.99-53.47"/><path fill="#fec50c" d="M68.03 604.65c-.31 13.82-8.77 23.48-15.99 26.52-9.66 3.46-14.32-1.65-14.52-11.98.05-5.77.79-9.64 2.71-15.98l21.72-70.08c.72-2.46.98-4.91 1.01-8.52-.28-5.69-3.69-8.39-8.04-7.19-3.87 1.69-7.55 7.55-7.83 13.42.21 6.91 2.4 8.6 5.22 7.75 3.32-1.48 4.41-3.4 4.55-6.69-.08-2.23-.69-2.75-1.87-2.4-2.64 1.52-2.06 5.55-2.01 5.9-1.48-.04-2.4-1.24-1.87-4.04-1.07.05-1.9-.26-2.71-1.13.78-1.31 1.6-2.34 2.71-3.09-.55-2.82.18-4.32 2.11-5.81-.36 1.31-.38 2.31-.27 3.27 3.27-2.24 7.16-2.21 7.53 4.86-.21 7.26-3.43 13.7-10.18 15.23 1.61.59 2.3 2.09 2.55 4.51-1.24-.12-2.51.25-2.55.25.84 1.6 1.75 2.74 1.81 6.45-1.31-.37-2.27-1.14-3.95.27 2.3 6.04-.53 15.57-8.3 21.35 2.8-5.82 4.13-11.09 4.22-16.04-.11-15.8-3.11-17.13-3.21-28.1.11-4.72 1.75-10.1 5.15-15.03v.18c-2.36-.02-3.58-.79-4.55-2.56 5.44-4.19 12.47-6.86 16.73-6.38 4.83-.69 7.67 2.53 8.84 4.86.95 2.32 2.65 10.21 0 19.43l-22.09 72.33c-.93 3.24-1.48 6.37-1.54 9.61.35 8.12 5.15 8.64 8.5 7.52 3.83-1.78 7.14-6.4 7.43-11.44-.13-3.14-1.09-4.25-2.94-3.75-4.09 2.05-3.89 5.96-3.08 9.06-2.69-.82-3.93-2.66-3.69-5.99-1.56.24-2.75-.09-4.15-1.56 1.09-2.23 2.24-3.83 4.15-4.77-.57-4.5 1.33-6.97 3.69-9.13-.72 3.99-1.22 7.36 3.08 6.16 3.29-1.16 5.3-1.27 6.96.91l.29-15.71.04-2.56c-.31-5.45-4.98-3.43-8.83-.39 1.48-6.94 3.95-10.95 10.3-12.6-1.63-.47-2.97-1.6-3.14-5.47.21-5.27 3.01-11.62 5.02-14.22l.99 52.77M67.04 793.17c.37.28 4.23 3.4 6.33.52 2.17-5.46-7.66-23.32-7.94-31.11.25-12.74 6.02-18.08 13.77-22.52 5.3-2.72 13.27-3.63 13.41-3.64-1.65 3.38-2.55 4.38-5.22 5.51 3.04 1.39 5.73 4.68 5.92 11.86-.11 10.84-3.15 16.28-3.27 28.51.24 6.86 4.01 14.09 4.08 14.21-7.35.74-10.59-6.51-8.74-14.73-1.2.19-2.11.79-3.08 2.25-.4-1.96.29-4.33 1.42-6.82-.94-.3-1.51.18-2.98 1.09.22-2.21 1.06-4.51 3.27-7.41-6.71 4.06-10.22-.25-10.45-6.91.24-5.13 2.4-8.84 4.94-10 .86-.23 1.88-.16 2.61.27.4-1.56.2-3.13-.26-4.39 1.88.19 2.8 1.06 2.12 4.44 1.45-.22 2.38.04 3.21 1.02-.83 1.59-1.85 2.57-3.21 3.02.86 2.65-.05 4.28-1.74 6.23.07-.45 1.01-5.4-1.61-5.16-1.25.47-2.15 1.2-2.26 3.65.14 2.28 1.19 4.27 4.41 3.36 3.18-1.41 5.37-4.46 5.57-11.36-.25-6.3-3.45-8.01-8.47-6.79-4.49 1.52-7.39 5.36-7.63 11.7.23 8.12 8.39 23.84 8.61 31.12-.28 5.66-3.43 9.36-7.09 10.84-4.8 1.07-8.15-2.93-8.4-3.23l2.68-5.53"/><path fill="#fec50c" d="M66.05 646.21c.31-13.88 8.77-23.46 15.99-26 9.65-2.75 14.32 3.19 14.52 13.49-.05 5.77-.79 9.53-2.71 15.63l-3.61 11.31-18.11 57.14c-.72 2.44-.98 4.9-1.01 8.5.28 5.69 3.7 8.46 8.04 7.49 3.89-1.46 7.55-6.97 7.83-12.82-.21-6.93-2.4-8.82-5.22-8.18-3.33 1.26-4.41 3.14-4.55 6.42.08 2.24.69 2.79 1.87 2.51 2.65-1.38 2.06-5.42 2.01-5.78 1.47.14 2.4 1.41 1.87 4.17 1.07.03 1.9.41 2.71 1.35-.78 1.24-1.6 2.2-2.71 2.86.55 2.88-.18 4.31-2.11 5.67.36-1.28.38-2.28.27-3.25-3.27 2.03-7.16 1.84-7.53-5.22.21-7.25 3.41-13.66 10.18-14.68-1.61-.71-2.3-2.26-2.55-4.69 1.24.2 2.52-.07 2.55-.07-.83-1.66-1.75-2.88-1.81-6.58 1.31.46 2.27 1.3 3.95.04-2.29-6.21.51-15.63 8.3-20.45-2.8 5.47-4.13 10.59-4.22 15.54.11 15.79 3.11 17.49 3.21 28.47-.11 4.73-1.75 9.86-5.15 14.46v-.18c2.35.25 3.59 1.18 4.55 3.06-5.39 3.51-12.51 5.68-16.73 5.03-4.82.5-7.67-2.72-8.84-5.04-.95-2.33-2.65-10.21 0-19.43l22.09-71.2c.93-3.13 1.48-6.19 1.54-9.44-.35-8.17-5.14-9.17-8.5-8.29-3.84 1.53-7.14 6-7.43 11.04.13 3.15 1.09 4.29 2.94 3.88 4.09-1.84 3.9-5.71 3.08-8.88 2.69.99 3.93 2.95 3.69 6.26 1.55-.12 2.75.33 4.15 1.93-1.1 2.13-2.23 3.61-4.15 4.39.57 4.56-1.32 6.85-3.69 8.87.72-3.94 1.21-7.31-3.08-6.34-3.29 1-5.3 1.06-6.96-1.14l-.33 18.26c.31 5.43 4.98 3.53 8.83.71-1.48 6.88-3.94 10.68-10.3 12.26 1.63.49 2.97 1.65 3.14 5.52-.21 5.27-3.01 11.56-5.02 14.17l-.99-52.77"/><path fill="#fec50c" d="M66.05 605.35c.31 13.71 8.7 17.32 15.99 15.25 9.57-3.34 14.32-11.86 14.52-22.26-.05-5.78-.79-9.08-2.71-14.06l-21.72-54.73c-.71-1.94-.98-4.2-1.01-7.82.27-5.78 3.79-11.03 8.04-12.85 3.99-1.08 7.55 2.1 7.83 7.89-.21 6.98-2.47 10.32-5.22 11.43-3.38.88-4.41-.23-4.55-3.47.08-2.26.72-3.26 1.87-3.73 2.78-.36 2.06 4.08 2.01 4.49 1.44-1.06 2.39-2.99 1.87-5.37 1.03-.68 1.92-1.63 2.71-3.04-.8-.78-1.56-1.21-2.71-1.17.56-3.26-.15-4.19-2.11-4.33.36 1.05.39 2.03.27 3.08-3.24.07-7.17 2.95-7.53 10.17.21 7.18 3.33 11.34 10.18 8.05-1.56 1.68-2.31 3.8-2.55 6.31 1.25-1 2.53-1.53 2.55-1.54-.82 2.15-1.75 4.04-1.81 7.72 1.3-1.28 2.31-2.73 3.95-2.52-2.32 7.74.46 15.2 8.3 15.47-2.81-3.85-4.13-8.07-4.22-13.05.11-15.79 3.11-19.4 3.21-30.37-.12-4.76-1.71-8.82-5.15-11.39v.19c2.28-1.63 3.62-3.42 4.55-5.78-5.39-.34-12.43 1.92-16.73 5.44-4.66 2.61-7.72 8.08-8.84 11.08-.96 3.02-2.62 12.16 0 19.43l22.09 56.75c.93 2.57 1.48 5.27 1.54 8.52-.34 8.25-5.2 12.3-8.5 13.53-3.93.94-7.13-1.25-7.43-6.19.13-3.19 1.15-5.05 2.94-5.84 4.23-.85 3.89 3.21 3.08 6.89 2.63-2.66 3.92-5.54 3.69-8.59 1.49-.82 2.77-2.09 4.15-4.49-1.12-1.49-2.16-2.27-4.15-1.84.58-5.02-1.28-6.02-3.69-6.53.73 3.49 1.09 6.56-3.08 8.33-3.21 1.14-5.33 2.55-6.96 5.82l-.29-15.5-.04-2.53c.3-5.51 4.96-6.94 8.83-6.62-1.49-5.95-3.87-8.2-10.3-5.33 1.57-1.56 2.98-3.8 3.14-7.69-.22-5.3-2.94-9.45-5.02-10.68l-.99 53.47"/><path fill="#1A1A1A" opacity=".2" d="M8 195.25c170.83-85.22 341.03-54.42 513.26-27.97 155.21 23.84 312.16 44.57 470.74-34.53v672c-170.83 85.22-341.03 54.42-513.26 27.97C323.53 808.88 166.58 788.15 8 867.25v-672m31.25 19.39v604.5c306.56-128.26 611.18 96.04 921.5-33.78v-604.5c-306.56 128.26-611.18-96.04-921.5 33.78"/></svg>