<svg xmlns="http://www.w3.org/2000/svg" viewBox="0 0 128 128" style="enable-background:new 0 0 128 128" xml:space="preserve"><path style="fill:#bdbdbd" d="M116 4H12c-4.42 0-8 3.58-8 8v104c0 4.42 3.58 8 8 8h104c4.42 0 8-3.58 8-8V12c0-4.42-3.58-8-8-8z"/><path style="fill:#e0e0e0" d="M109.7 4H11.5A7.555 7.555 0 0 0 4 11.5v97.9c-.01 4.14 3.34 7.49 7.48 7.5h98.12c4.14.01 7.49-3.34 7.5-7.48V11.5c.09-4.05-3.13-7.41-7.18-7.5h-.22z"/><path style="fill:#575757" d="M28.1 24.7h73c1.6 0 2.9 1.3 2.9 2.9v73c0 1.6-1.3 2.9-2.9 2.9h-73c-1.6 0-2.9-1.3-2.9-2.9V27.7a2.863 2.863 0 0 1 2.72-3h.18z"/><path style="fill:#424242" d="M28.1 24.7h67.4c1.6 0 2.9 1.3 2.9 2.9V95c0 1.6-1.3 2.9-2.9 2.9H28.1c-1.6 0-2.9-1.3-2.9-2.9V27.7a2.863 2.863 0 0 1 2.72-3h.18z"/><path style="fill:#787878" d="M49 33.5c0-1.5-1-1.9-6.9-1.7-4.9.2-7.3.8-8.8 2.6s-1.9 5.4-1.9 9.8c0 3.1 0 5.9 1.6 5.9 2.2 0 2.2-5 4-7.9 3.3-5.5 12-6.7 12-8.7z"/></svg>