<svg xmlns="http://www.w3.org/2000/svg" viewBox="0 0 128 128" style="enable-background:new 0 0 128 128" xml:space="preserve"><path style="fill:#194fa5" d="M116 4H12c-4.42 0-8 3.58-8 8v104c0 4.42 3.58 8 8 8h104c4.42 0 8-3.58 8-8V12c0-4.42-3.58-8-8-8z"/><path style="fill:#2262dd" d="M109.7 4H11.5A7.555 7.555 0 0 0 4 11.5v97.9c-.01 4.14 3.34 7.49 7.48 7.5h98.12c4.14.01 7.49-3.34 7.5-7.48V11.5c.09-4.05-3.13-7.41-7.18-7.5h-.22z"/><path style="fill:#68abe6" d="M39.7 12.9c0-2.3-1.6-3-10.8-2.7-7.7.3-11.5 1.2-13.8 4-1.9 2.3-2.3 5.6-2.6 8.4-.2 2.2-2.2 14.9 3.5 11.2.68-.45 1.23-1.07 1.6-1.8 1.2-2.1 1.9-3.5 3.3-5.6 5.3-8.6 18.8-10.5 18.8-13.5z"/><circle style="fill:#fff" cx="61.99" cy="28" r="15"/><path style="fill:#fff" d="M103.3 48.15c-1.87-2.08-5.1-2.23-7.34-.56l-6.6 4.9c-.77.57-1.78.69-2.65.31-4.31-1.88-10.86-4.72-14.4-6.19-.21-.08-.54-.19-.75-.27-2.51-.74-5.79-1.11-8.45-1.29-.37-.04-.74-.05-1.11-.05s-.74.01-1.11.04c-2.66.18-5.95.55-8.45 1.29-.21.08-.54.19-.75.27-3.53 1.47-10.08 4.31-14.39 6.19-.88.38-1.89.27-2.66-.31-1.64-1.22-4.57-3.39-6.6-4.9-2.25-1.67-5.46-1.51-7.34.57a5.359 5.359 0 0 0 .77 7.9L31.9 63.8c.94.7 2.04 1.05 3.13 1.05 2.54 0 9.72-2.72 9.72-2.72a.89.89 0 0 1 1.17.85v5.16c0 .55.45 1 1 1h30.15c.55 0 1-.45 1-1v-5.16a.89.89 0 0 1 1.17-.85s7.18 2.72 9.72 2.72c1.09 0 2.19-.35 3.13-1.05l10.43-7.74a5.356 5.356 0 0 0 .78-7.91zM78.78 77.99l.56-.77c.32-.44.49-.96.49-1.5v-1.66c0-.88-.6-1.61-1.4-1.79H45.57c-.8.18-1.4.91-1.4 1.79v1.66c0 .39.09.76.26 1.11l9.37 12.96c.67.93 1.73 1.47 2.85 1.47h10.7c1.12 0 2.18-.55 2.85-1.47l8.6-11.78-.02-.02zm-42.79 7c-3.32 3.34-3.32 8.73.01 12.06l10.07 10.07c2.55 2.55 6.7 2.5 9.19-.14 2.4-2.55 2.15-6.62-.33-9.1l-6.74-6.8.77-1c.35-.35.4-.9.11-1.3l-6.39-8.74a.998.998 0 0 0-1.52-.12l-5.17 5.07zm52.02 0c3.32 3.34 3.32 8.73-.01 12.06l-10.07 10.07a6.398 6.398 0 0 1-9.19-.14c-2.4-2.55-2.15-6.62.33-9.1l6.74-6.8-.77-1c-.35-.35-.4-.9-.11-1.3l6.39-8.74a.998.998 0 0 1 1.52-.12l5.17 5.07z"/></svg>