<svg xmlns="http://www.w3.org/2000/svg" viewBox="0 0 128 128" style="enable-background:new 0 0 128 128" xml:space="preserve"><path style="fill:#d68b52" d="M22.13 18.65h23.19v15.08H22.13z"/><ellipse style="fill:#f2bd72" cx="114.59" cy="108.83" rx="9.41" ry="12.65"/><path style="fill:#ffd8a1" d="M114.59 96.18h-5.18s.04-63.41.04-74.11-7.61-15.55-10.42-15.55h-76.9s10.1 1.21 10.23 15.55c.09 10.21 0 62.8 0 79.61s6.37 19.79 6.37 19.79h75.38c.07 0 .14-.01.21-.02.09 0 .18.02.27.02 5.2 0 9.41-5.66 9.41-12.65 0-6.97-4.21-12.64-9.41-12.64z"/><path style="fill:#ffd8a1" d="M114.59 96.18h-5.18s.04-63.41.04-74.11-7.61-15.55-10.42-15.55h-76.9s10.1 1.21 10.23 15.55c.09 10.21 0 62.8 0 79.61s6.37 19.79 6.37 19.79h75.38c.07 0 .14-.01.21-.02.09 0 .18.02.27.02 5.2 0 9.41-5.66 9.41-12.65 0-6.97-4.21-12.64-9.41-12.64z"/><path style="fill:#f2bd72" d="m32.26 100.75.09-9.1s59.53 6.46 77.04-14.12v22.99l-77.13.23z"/><g style="opacity:.6"><path style="opacity:.77;fill:none;stroke:#9e673c;stroke-width:3.0045;stroke-linecap:round;stroke-miterlimit:10" d="M45.52 30.1c1.17 0 2.35-.02 3.52 0 .89.02 1.72.14 2.63.05.98-.1 1.96-.29 2.96-.26 1.22.04 2.39.41 3.62.41.6 0 1.14-.17 1.73-.2.68-.03 1.36 0 2.04 0h4.3m12.69 0c.73 0 1.49.06 2.21-.05 1.12-.17 2.19-.63 3.36-.53 1.25.11 2.31.84 3.54 1.03 1.99.29 3.86-.9 5.87-1.09.64-.06 1.28-.02 1.92.03 1.45.12 2.88.3 4.31.53m-54.7 23.49c1 0 2.04.1 3.03 0 1.39-.14 2.73-.63 4.16-.56 1.44.07 2.76.7 4.17.95 1.94.33 3.89-.08 5.81-.33 2.05-.27 4-.05 6.06-.05h7.7m10.32-.01c.74 0 1.48-.01 2.22 0 1.25.02 2.18-.38 3.37-.61 1.69-.33 3.38.19 5.05.36 1.23.12 2.52.26 3.75.25m-32.6 23.45c1.34 0 2.74-.09 4.05.09 2.27.32 4.18-.39 6.41-.62 2.09-.22 4.18.2 6.28.37 2.18.18 4.37.1 6.56.02 2.27-.08 4.54.13 6.83.13m-54.11.01c1.96 0 3.89.37 5.85.23.66-.05 1.32-.14 1.99-.17 1.33-.07 2.67.23 3.98.08.87-.1 1.7-.14 2.58-.14m9.58-58.48c1.34 0 2.74-.09 4.05.09 2.27.32 4.18-.39 6.41-.62 2.09-.22 4.18.2 6.28.37 2.18.18 4.37.1 6.56.02 2.27-.08 4.54.13 6.83.13m-54.11.01c1.96 0 3.89.37 5.85.23.66-.05 1.32-.14 1.99-.17 1.33-.07 2.67.23 3.98.08.87-.1 1.7-.14 2.58-.14M45.52 41.87c.96 0 1.89.04 2.83.11 1.68.12 3.24-.64 4.87-.81 2.05-.21 4.07.45 6.1.75 2.01.3 4.05.12 6.07 0 .92-.06 1.88-.14 2.8-.12.99.02 1.93.33 2.92.32 1.27-.01 2.44-.57 3.69-.76 2.78-.43 5.55.97 8.36.78.92-.06 1.81-.29 2.72-.38 1.12-.11 2.25-.01 3.37.09l4.98.45M45.52 65.26c.96 0 1.89.04 2.83.11 1.68.12 3.24-.64 4.87-.81 2.05-.21 4.07.45 6.1.75 2.01.3 4.05.12 6.07 0 .92-.06 1.88-.14 2.8-.12.99.02 1.93.33 2.92.32 1.27-.01 2.44-.57 3.69-.76 2.78-.43 5.55.97 8.36.78.92-.06 1.81-.29 2.72-.38 1.12-.11 2.25-.01 3.37.09l4.98.45M58.39 88.62c.52.01.99-.11 1.5-.13.74-.04 1.47.17 2.2.28 1.75.26 3.58.39 5.32.01.98-.22 1.91-.59 2.91-.73 2.51-.36 4.99.76 7.54.75 2.2-.02 4.56-1.02 6.73-.44 1.42.37 2.88.28 4.38.28"/></g><path style="fill:#fcebcd" d="M38.25 96.18v6.17h84.41c-1.64-3.69-4.64-6.17-8.07-6.17H38.25z"/><ellipse style="fill:#f2bd72" cx="38.73" cy="108.83" rx="9.41" ry="12.65"/><path style="fill:#784d30" d="M45.71 108.17c0 5.33-3.34 8.35-6.92 9.33-4.61 1.26-6.53.16-6.53.16V98.68s3.25-.82 6.72.16c3.54.99 6.73 4 6.73 9.33z"/><ellipse style="fill:#784d30" cx="33.48" cy="108.17" rx="6.72" ry="9.65"/><ellipse style="fill:#784d30" cx="33.48" cy="108.18" rx="6.72" ry="9.65"/><ellipse style="fill:#ba793e" cx="24.86" cy="108.18" rx="4.46" ry="4.5"/><path style="fill:#ba793e" d="M33.02 105.44c1.27.39 2.82 3.08.18 5.66-.67.65.02 2.09.48 3.3.58 1.54 1 2.37 2.34 1.45 1.8-1.22 3.51-4.71 3.51-7.67 0-4.79-2.71-8.68-6.05-8.68-1.72 0-3.06.55-4.19 2.88-.5 1.04-.55 2.37 1.04 2.53 0 .01 1.78.26 2.69.53z"/><ellipse style="fill:#f2bd72" cx="22.34" cy="20.09" rx="10.09" ry="13.57"/><path style="fill:#784d30" d="M29.32 19.43c0 5.33-3.34 8.35-6.92 9.33-4.61 1.26-6.53.16-6.53.16V9.94s3.25-.82 6.72.16c3.53.98 6.73 4 6.73 9.33z"/><ellipse style="fill:#784d30" cx="17.09" cy="19.43" rx="6.72" ry="9.65"/><ellipse style="fill:#784d30" cx="17.09" cy="19.44" rx="6.72" ry="9.65"/><ellipse style="fill:#ba793e" cx="8.46" cy="19.44" rx="4.46" ry="4.5"/><path style="fill:#ba793e" d="M16.62 16.7c1.27.39 2.82 3.08.18 5.66-.67.65.02 2.09.48 3.3.58 1.54 1 2.37 2.34 1.45 1.8-1.22 3.51-4.71 3.51-7.67 0-4.79-2.71-8.68-6.05-8.68-1.72 0-3.06.55-4.19 2.88-.5 1.04-.55 2.37 1.04 2.53 0 .01 1.79.25 2.69.53z"/></svg>