<svg xmlns="http://www.w3.org/2000/svg" viewBox="0 0 128 128" style="enable-background:new 0 0 128 128" xml:space="preserve"><path style="fill:#ff8f04" d="M26.01 33.58s.84-2.32 2.59-5.18c1.63-2.66 3.4-3.03 4.81-2 1.41 1.04-.15 5.03-.15 5.03l-4.14 4.44-3.11-2.29zm16.2 8.07L17.66 65.68s2.44 2.66 3.99 3.85 3.92 3.77 3.92 3.77l22.04-12.5.3-8.21s-2.14-2.37-3.55-4.51c-1-1.52-1.93-6.58-2.15-6.43zM31.04 82.84c-.07.37-2.29 5.55-4.66 9.02-2.37 3.48-6.02 8.53-7.1 11.69-.96 2.81-1.67 8.75 3.77 9.84 6.66 1.33 7.99-3.7 8.36-6.29.19-1.3 2.66-4.14 3.7-5.55 1.04-1.41 5.33-5.62 5.33-5.62l-9.4-13.09zM73.8 87.8c.22.07 2.51 4.96 2.81 6.14.3 1.18.07 8.36-.22 10.06-.3 1.7-4.51 4.51-3.99 7.91.25 1.62 1.85 2.59 5.47 2.59 3.62 0 8.58-.44 8.58-.44l4.22-15.68-13.55-11.54-3.32.96zm22.78-20.04-1.63-5.18s4.88 2.37 8.83 11.29c1.61 3.64 3.82 12.97 8.41 13.12 4.59.15 6.21-5.81 6.21-5.81s6.32 4.81 5.58 7.1c-.74 2.29-5.36 8.47-12.54 7.95-7.17-.52-9.59-6.59-12.76-10.91-3.18-4.34-2.1-17.56-2.1-17.56z"/><path style="fill:#fd6a21" d="M24.76 107.99c-1.26.78-2.96 2.81-1.33 4.81.99 1.22 3.55 1.18 5.25-.3.99-.86 2.39-3.47.67-4.73-1.12-.81-3.04-.74-4.59.22zm-2.81 3.11c.16-1.02-.89-1.55-1.7-1.26-.7.25-1.18 1.33-.37 2.07.81.74 1.92.15 2.07-.81z"/><path style="fill:#33312e" d="M116.32 84.99s1.41 1.92 3.11 3.25c1.47 1.15 3.62 1.92 3.62 1.92s3.7-3.85 3.77-8.21c.05-2.89-1.92-4.44-4.81-4.22s-3.33 2.29-3.85 3.92c-.47 1.52-1.84 3.34-1.84 3.34zm.3 10.4s-1.03-.54-1.38-1.53c-.32-.91-.02-2.28 1.13-2.88 1.13-.59 2.49-.05 3.01 1.06.52 1.11.3 1.63.3 1.63s-.69.59-1.36.96c-.71.39-1.7.76-1.7.76zm-8.01-10.7s-1.6.96-1.08 2.86c.37 1.36 2.47 1.9 3.45 1.31 1.15-.69 1.21-1.87 1.21-1.87s-1.21-.2-2-.79c-.82-.61-1.58-1.51-1.58-1.51zm-3.38-6.97s-1.26.37-1.65 1.73c-.28.98.34 2.85 2.02 2.81.94-.02 1.43-.25 1.43-.25s-.5-1.24-.91-2.14c-.4-.87-.89-2.15-.89-2.15zm-.81 15.4s.3-.96 1.87-1.13c1.33-.15 2.57.55 3.08 1.87.35.89.15 2.05.15 2.05s-1.45-.3-2.86-1.06c-1.19-.65-2.24-1.73-2.24-1.73zM28.9 34.99s3.01-3.7 4.29-4.88 5.18-3.9 8.19-1.82c3.01 2.07 3.06 6.91 2.81 9.32-.27 2.59-1.32 7.13-1.45 8.36-.1.89-.42 2.84-1.31 2.24s-11-10.4-11-10.4l-1.53-2.82z"/><path style="fill:#ffba06" d="M21.5 33.58c-3.32.89-5.35 2.49-7.32 4.22-1.97 1.73-2.88 3.65-3.92 3.99-1.04.35-5.94 1.13-7.17 2.07s-1.11 1.92-1.11 1.92l8.48 16.07 7.64 4.88s2.07-1.55 3.25-2.24c1.18-.69 3.18-1.55 3.18-1.55s3.73.1 7.72-.79c5.08-1.13 9.99-3.72 10.13-12.06.09-4.96-3.85-7.89-4.24-8.33s.32-1.27.99-2.12c1.28-1.63 4.39-6.36 1.18-8.88s-7.34 2.66-7.89 3.21c-.57.57-1.04 1.68-1.33 1.48-.29-.19-4.26-3.3-9.59-1.87z"/><path style="fill:#ffeacf" d="M33.26 36.25c-.12.24.99.75 1.68 1.43.99.99 1.07 1.51 1.58 1.43.99-.15 4.09-5.57 2.56-6.71-2.1-1.56-5.47 3.16-5.82 3.85zM9.03 45.34c-.4.04-6.8 1.97-6.8 1.97l1.53 8.53s-1.82 5.82 2.07 8.88c3.9 3.06 8.95 2.39 11.17 2.19s1.55-1.21 1.45-1.9c-.1-.69-1.63-6.46-3.16-8.28s-2.81-3.21-3.01-3.85c-.2-.63-1.92-7.68-3.25-7.54z"/><path style="fill:#33312e" d="M10.01 44.95c.64.64-1.28 1.73-2.81 2.91-1.53 1.18-3.06 2.51-3.06 2.51s-.2 4.14 1.68 4.93 5.18-.05 5.57.69c.39.74-.84 3.25-3.45 3.3s-4.49-2.22-4.78-2.96c-.3-.74-1.28-2.76-1.78-5.97-.32-2.07-.35-4.73.1-5.18s3.16-.54 4.49-.59 2.81.1 2.81.1.99.01 1.23.26zm12.04-1.78s.25-1.82-1.97-1.43c-1.84.33-2.9 2.12-3.11 2.91-.32 1.21.35 1.87.35 1.87s-1.78 1.83-.96 2.69c1.08 1.13 2.59-1.21 2.59-1.21s.42.71 1.18.49c.89-.25 1.65-1.36 2.69-2.59s2.69-1.77 2.34-3.03c-.45-1.62-3.11.3-3.11.3z"/><ellipse style="fill:#33312e" cx="27.44" cy="52.8" rx="1.68" ry="1.69"/><ellipse style="fill:#33312e" cx="34.3" cy="49.26" rx="1.81" ry="1.78"/><ellipse style="fill:#33312e" cx="33.32" cy="55.53" rx="1.81" ry="1.78"/><ellipse style="fill:#33312e" cx="23.43" cy="58.88" rx="1.75" ry="1.73"/><ellipse style="fill:#33312e" cx="26.85" cy="36.25" rx="1.75" ry="1.73"/><path style="fill:#33312e" d="M22.02 34.74c.33.82-.24 1.62-1.13 1.97-.9.36-1.89.28-2.22-.54-.33-.82.28-1.61 1.18-1.97.9-.36 1.84-.28 2.17.54z"/><path style="fill:#ffba06" d="M47.17 51.7s-.67 6.73-6.07 11.02-16.86 9.25-16.86 9.25 3.18 3.33 3.92 4.96c.74 1.63 2.22 10.8 5.03 14.13s8.65 7.77 9.17 8.73c.52.96 1.85 7.25.74 9.47-1.11 2.22-1.48 2.14-1.48 2.14s-5.78 2.09-4.96 5.99c1.04 4.88 9.91 2.81 11.09 2.74 1.18-.07 3.77-3.18 3.77-3.18l3.62-4.36 1.48-6.29 1.78-8.43 2.81-4.36 6.21-2.07 7.62-2.37 5.1 4.88 4.44 5.25.74 4.44-.22 3.99-2.74 5.77-.52 4.59s1.04 2.14 2.29 2.59c1.26.44 6.95.81 9.17-.74 2.22-1.55 3.48-5.47 3.7-8.95.22-3.48.22-8.58.44-11.17.16-1.85-.44-4.73-.44-4.73s4.29-5.4 4.51-15.83c.22-10.43-4.36-15.38-8.06-17.83-3.7-2.44-10.8-4.81-19.16-5.4-8.36-.59-12.5.07-17.97-.81s-9.15-3.42-9.15-3.42z"/><path style="fill:#ff8f04" d="M37.6 117.61c-.02.94.25 2.42 1.48 2.66 1.23.25.84-1.43.89-2.47.04-.94 1.07-2.06.2-2.56-.94-.54-2.52.39-2.57 2.37zm5.72-1.83c-.94-.1-2.02.35-2.12 2.07-.08 1.48.25 2.91 1.63 2.91s.81-1.87.84-2.56c.05-1.33.88-2.29-.35-2.42zm42.75.64c-1.18-.11-1.63.64-1.63 2.07 0 1.53.2 2.32 1.38 2.42s.89-1.38.89-2.12.4-2.27-.64-2.37zm4 .2c-.88-.09-1.38.69-1.38 2.22 0 1.48.39 2.27 1.28 2.17.88-.1.99-1.18.99-2.12-.01-1.04.09-2.17-.89-2.27z"/><path style="fill:#fd6a21" d="M46.63 119.48c-.1.83 1.23.78 2.32.35 1.23-.49 3.43-1.7 4.36-2.74 1.33-1.48 2.22-2.96 2.93-5.05.44-1.3 1.37-5.68 2.22-9.37.89-3.85 1.58-5.23 1.78-5.87.35-1.13 1.58-2.56 1.58-2.56s4.14-1.43 6.26-2.07c2.12-.64 6.31-2.37 6.8-2.17.49.2 2.66 2.32 5.03 4.88 1.71 1.85 4.24 5.08 4.24 5.08s.3 2.51.35 3.8c.05 1.28.05 3.4.05 3.65s-2.61 4.09-3.11 5.82c-.49 1.73-1.22 3.62.25 5.92.79 1.23 2.51 1.73 2.76 1.23.15-.3-.59-.79-1.04-1.33-.44-.54-.84-1.58-.84-2.47 0-1.82.64-3.27 1.04-4.14.54-1.18 2.27-3.9 2.47-4.59.2-.69.2-3.01.1-4.83-.07-1.29-.25-3.21-.54-3.85-.3-.64-1.38-2.02-3.8-4.64-3.65-3.95-5.82-6.11-6.61-6.36s-6.8 2.12-7.79 2.42-6.36 1.92-6.85 2.27c-.49.35-2.02 2.27-2.56 4.19-.26.91-1.23 4.44-1.53 5.67-.3 1.23-1.87 7.88-2.22 8.73-.69 1.68-1.43 3.11-2.61 4.24-.88.85-2.32 1.73-3.16 2.22-.55.31-1.79.73-1.88 1.57z"/><path style="fill:#33312e" d="M90.61 69.48s2.18-1.06 2.12-2.42c-.05-1.05-.49-2.31-2.32-2.37-1.53-.05-3 .74-3.16 2.27-.15 1.48 1.48 2.47 1.48 2.47s-3.9-1.01-3.75 2.64c.05 1.29.45 2.25.96 2.91 1.73 2.22 6.11 2.07 8.01.17 1.16-1.16 1.38-2.56 1.13-3.8-.57-2.95-4.47-1.87-4.47-1.87zm-10.16-7.1s2.39-.22 2.27-2.27c-.07-1.23-1.13-2-3.16-1.95-2.02.05-3.07 1.11-3.16 2.14-.15 1.78 1.73 2.12 1.73 2.12l-.35.99s-1.43-1.63-2.71-.74c-1.28.89-1.13 4.38 1.6 5.89 2.22 1.23 5.42.49 7.03-.99.94-.86 1.36-1.82 1.33-2.84-.03-1.36-.54-1.82-1.38-2.19-.88-.39-2.76.62-2.76.62l-.44-.78zm16.08 16.57s-.55-.76-.54-1.49c0-.57.39-1.26 1.58-1.41 1.19-.15 1.84.98 1.8 1.7-.05.92-1.06 1.65-1.06 1.65l-.02.89s1.22.43 1.5 1.58c.39 1.63-1.95 3.6-4.61 2.56-1.22-.47-1.95-1.73-1.97-2.71-.03-1.16.81-2.04 1.26-2.27.92-.5 2.06-.5 2.06-.5zM67.78 62.58s1.43-.59 1.13-2.07c-.3-1.48-2.32-1.94-3.99-1.78-1.48.15-2.81 1.92-2.17 3.21.64 1.28 1.58 1.33 1.58 1.33s-2.6-.27-2.76 1.92c-.15 1.97 1.08 4.44 5.28 4.59 4.19.15 5.42-5.62 4.09-6.9-1.2-1.15-3.16-.3-3.16-.3zm-11.69 10.2s3.45-.59 2.05-3.03c-.98-1.7-5.53-.58-5.18 1.87.08.58 1.04 1.17 1.5 1.28.32.07-.39.62-.39.62s-2.34-.64-3.03 1.01c-.89 2.12.59 4.41 3.16 5.13 3.38.94 6.83-.94 6.76-3.57-.08-2.82-3.08-2.42-3.08-2.42l-1.79-.89zm-16.61-.98s-1.26-.62-1.11-2.1c.08-.78.83-1.53 2-1.5 2.66.05 3.55 1.43 2.96 3.16-.32.94-2.37 1.48-2.37 1.48l.79 1.08s1.64-.8 2.37.2c.52.72.7 2.25-.32 3.48-.62.74-2.44 1.65-5.1 1.06-1.92-.43-3.25-1.61-3.72-2.96-.5-1.42-.05-2.77.71-3.25 1.58-.99 3.55.35 3.55.35l.24-1zm10.4-10.9s-2.37-.59-3.01.54c-.64 1.13-.89 3.45 1.68 4.78 2.56 1.33 6.85-.6 7.05-3.25.15-1.97-1.13-3.85-2.81-3.8-2.27.07-1.63.54-1.63.54l-.15-.89s1.53-1.33.15-2.47c-1.38-1.13-3.85.74-3.75 1.97s1.48 1.48 1.48 1.48l.99 1.1z"/><path style="fill:#d2735b" d="M42.88 73.01c0 1.46-.92 2.49-2.42 2.49s-3.01-1.03-3.01-2.49c0-1.46 1.31-2.29 2.81-2.29s2.62.83 2.62 2.29zm15.53-.23c.68 1.18.29 2.67-1.1 3.25-1.57.65-3 .25-3.69-.93-.68-1.18-.08-2.6 1.22-3.35 1.3-.74 2.89-.15 3.57 1.03zm9.97-10.46c.78 1.35.38 3.46-1.04 4.18-1.84.94-3.53.1-4.31-1.25-.78-1.35-.18-2.93 1.2-3.72 1.38-.8 3.37-.57 4.15.79zm-15.29-2.8c.68 1.18.25 3.06-1.08 3.75-1.73.89-3.26.19-3.94-.99-.68-1.18-.08-2.6 1.22-3.35 1.28-.74 3.11-.59 3.8.59zm29.37 1.92c1.35 1.74.39 3.57-1.16 4.37-2 1.04-3.97.61-4.7-.66s.02-3.34 1.53-4.21c1.51-.87 3.43-.66 4.33.5zm9.09 6.01c1.9.97 1.93 2.83 1.01 4.06-1.19 1.59-3.01 1.95-4.19 1.15-1.18-.79-1.49-2.79-.63-4.06.86-1.28 2.54-1.8 3.81-1.15zm7.34 11.06c1.14 1.26.7 2.62-.26 3.24-1.25.8-2.66.52-3.32-.41-.66-.92-.39-2.46.54-3.13.93-.66 2.28-.54 3.04.3z"/><ellipse transform="rotate(-77.96 49.014 102.096)" style="fill:#33312e" cx="49.01" cy="102.09" rx="2" ry="1.91"/><ellipse transform="rotate(-45.001 61.354 83.66)" style="fill:#33312e" cx="61.35" cy="83.66" rx="2.02" ry="2.01"/><ellipse transform="rotate(-38.626 58.988 89.488)" style="fill:#33312e" cx="58.99" cy="89.48" rx="1.53" ry="1.32"/><ellipse transform="rotate(-38.626 82.544 81.901)" style="fill:#33312e" cx="82.54" cy="81.9" rx="2.18" ry="1.7"/><ellipse transform="rotate(-85.044 55.699 86.928)" style="fill:#33312e" cx="55.7" cy="86.93" rx="2.66" ry="2.05"/><ellipse transform="rotate(-77.96 35.33 86.194)" style="fill:#33312e" cx="35.33" cy="86.19" rx="2" ry="1.91"/><ellipse transform="rotate(-30 48.208 94.39)" style="fill:#33312e" cx="48.21" cy="94.39" rx="2.3" ry="2.12"/><ellipse transform="rotate(-30 45.04 86.542)" style="fill:#33312e" cx="45.04" cy="86.54" rx="2.39" ry="2.14"/><path style="fill:#d2735b" d="M62.09 84.13c1.33 1.4.6 3.1-.73 3.97-1.72 1.12-3.51.95-4.26-.1s-.21-2.94 1.08-3.87 3.03-.93 3.91 0z"/><ellipse transform="rotate(-77.96 76.711 78.83)" style="fill:#33312e" cx="76.71" cy="78.83" rx="1.87" ry="1.82"/><ellipse transform="rotate(-38.626 71.17 74.931)" style="fill:#33312e" cx="71.17" cy="74.93" rx="2.42" ry="1.9"/><ellipse transform="rotate(-45.001 88.451 83.3)" style="fill:#33312e" cx="88.45" cy="83.3" rx="1.61" ry="1.82"/><path style="fill:#33312e" d="M72.76 78.31c-.53-.18-3.35-1.38-5.03.64-1.68 2.02-1.33 6.36 2.91 6.56 4.26.19 5.97-5.87 2.12-7.2zM84.3 86c-1.42-.34-4.27.5-4.04 2.96.2 2.14 2.08 3.19 4.39 2.86 2.75-.4 4.18-4.74-.35-5.82z"/><path style="fill:#d2735b" d="M75.71 79.88c-.79 1.88-2.59 2.03-3.85 1.22-1.64-1.04-2.12-2.77-1.45-3.95.68-1.18 2.59-1.6 3.89-.86 1.3.75 1.93 2.33 1.41 3.59zm11.55 3.13c1.57 1.66.76 3.64-.76 4.62-1.96 1.27-4.03 1.03-4.92-.21s-.31-3.45 1.16-4.5c1.47-1.04 3.47-1.02 4.52.09z"/></svg>