<svg xmlns="http://www.w3.org/2000/svg" viewBox="0 0 128 128" style="enable-background:new 0 0 128 128" xml:space="preserve"><path style="fill:#a56c43" d="M25.73 34.74c27.05 0 31.37 19.51 31.37 47.59 0 23.97-10.35 39.27-28.5 41.22-9.35 1-17.91-.79-24.6-5.64V40.6c5.31-3.77 12.38-5.86 21.73-5.86z"/><path style="fill:#42312c" d="M21.35 77.36c-.97-1.29-3.22-3.16-7.58-3.16s-6.61 1.87-7.58 3.16c-.43.57-.32 1.23-.02 1.62.28.37 1.09.71 1.99.41.9-.31 2.66-1.22 5.61-1.24 2.95.02 4.71.93 5.61 1.24.9.31 1.72-.04 1.99-.41.3-.39.41-1.05-.02-1.62zm32.98 0c-.97-1.29-3.22-3.16-7.58-3.16s-6.61 1.87-7.58 3.16c-.43.57-.32 1.23-.02 1.62.28.37 1.09.71 1.99.41.9-.31 2.66-1.22 5.61-1.24 2.95.02 4.71.93 5.61 1.24.9.31 1.72-.04 1.99-.41.3-.39.41-1.05-.02-1.62zm-34.98 8.28c.67-.79 1.07-.16 1.2.36.45 1.76-.25 4.54-3.47 5.43-4.36 1.2-8.76-1.42-9.25-4.98-.06-.44.43-.77.82-.55 1.31.72 2.93 2.23 6.3 1.88 3.28-.33 3.68-1.29 4.4-2.14zm32.85 0c.67-.79 1.07-.16 1.2.36.45 1.76-.25 4.54-3.47 5.43-4.36 1.2-8.76-1.42-9.25-4.98-.06-.44.43-.77.82-.55 1.31.72 2.93 2.23 6.3 1.88 3.28-.33 3.68-1.29 4.4-2.14z"/><path style="fill:#473530" d="M36.35 114.85c3.02.38 8.02-2.23 6.91-5.19-.42-1.12-2.1-1.45-2.1-1.45s2.76-3.12 1.34-4.76c-1.91-2.21-5.07-.59-7.43-1.27-.48-.14-.99-.36-1.46-.2.2.94.76 1.62 1.95 2.04 1.34.47 2.8.2 3.54.83.76.66.11 1.59-.87 2.17-1.39.82-3.47 1.24-3.37 1.9.11.72 2.49.8 3.02.95.48.14 1.18.32 1.39.83.38.89-.93 1.85-1.6 2.25-.74.44-2.61.93-2.68.99-.14.12-.11.37.02.51.13.15 1.05.36 1.34.4z"/><path style="fill:#875334" d="M38.35 93.53c-.11-.04-.22-.07-.33-.09h-7.33c-.11.01-.22.04-.33.09-.66.27-1.03.96-.72 1.69.31.73 1.77 2.79 4.71 2.79s4.4-2.06 4.71-2.79c.31-.73-.05-1.42-.71-1.69z"/><path style="fill:#3c2c23" d="M62.52 55.44c-1.44-5.5-3.51-16.65-11.47-22.57-11.22-8.35-18.1-2.25-20.55-3.78-2.51-1.56-2.46-5.44-.84-7.92 0 0-10.1-.63-10.27 9.57-5.55-2.67-12.02-.77-15.39 1.84v38.48c17.28-.69 27.89-13.08 36.67-14.16 3.4-.42 7.01 6.28 8.35 6.27 1.11-.01 5.86-3.42 6.89 1 .97 4.17 1.19 15.34 1.19 15.34 5.08-5.99 8.18-13.5 5.42-24.07z"/><radialGradient id="a" cx="33.723" cy="27.052" r="11.78" gradientTransform="matrix(.9378 .3473 -.3751 1.0129 12.247 -12.062)" gradientUnits="userSpaceOnUse"><stop offset=".206" style="stop-color:#554138"/><stop offset=".646" style="stop-color:#554138;stop-opacity:0"/></radialGradient><path style="fill:url(#a)" d="M37.38 28.49s-1.37.18-2.58.42c-1.83.36-3.86.74-4.71-.04-2.02-1.86-2.05-5.22-.43-7.7-.02.02-2.83 1.04-4.23 5.09-.71 2.07-1.24 8.83 3.53 11.02 6.27 2.88 13.74 1.1 15.53-1.02 2.29-2.69-4.61-8.34-7.11-7.77z"/><radialGradient id="b" cx="28.408" cy="31.345" r="9.034" gradientTransform="matrix(.9051 .4252 -.6155 1.3102 21.987 -21.802)" gradientUnits="userSpaceOnUse"><stop offset=".598" style="stop-color:#554138;stop-opacity:0"/><stop offset="1" style="stop-color:#554138"/></radialGradient><path style="fill:url(#b)" d="M30.5 29.09c-2.51-1.56-2.46-5.44-.84-7.92-.08.12-1.8.08-1.99.11-1.48.2-2.94.66-4.22 1.44-1.67 1.03-2.88 2.6-3.5 4.46-.45 1.33-.61 2.57-.52 3.78 0 0 2.19 1.39 2.53 4.7.05.64 9.79-5.8 8.54-6.57z"/><radialGradient id="c" cx="30.911" cy="54.034" r="36.311" gradientTransform="matrix(.9554 -.2952 .2576 .8338 -12.543 18.105)" gradientUnits="userSpaceOnUse"><stop offset=".602" style="stop-color:#554138;stop-opacity:0"/><stop offset="1" style="stop-color:#554138"/></radialGradient><path style="fill:url(#c)" d="M18.26 49.03c1.55-2.59 3.29-8.22 3.64-11.22.14-1.22.08-2.29-.15-3.21-.47-1.88-1.48-3.18-2.8-4.03-8.47-3.18-14.67 1.8-14.95 2.01V64c.27.05 7.84-4.23 14.26-14.97z"/><radialGradient id="d" cx="49.402" cy="51.243" r="18.552" gradientTransform="matrix(1 0 0 1.5527 0 -28.322)" gradientUnits="userSpaceOnUse"><stop offset=".475" style="stop-color:#554138;stop-opacity:0"/><stop offset=".845" style="stop-color:#554138"/></radialGradient><path style="fill:url(#d)" d="M62.52 55.44c-1.44-5.5-3.51-16.65-11.47-22.57-1.52-1.13-2.95-1.99-4.31-2.64l2.28 32.94c1.11-.01 5.86-3.42 6.89 1 .97 4.17 1.19 15.34 1.19 15.34 5.08-5.99 8.18-13.5 5.42-24.07z"/><path style="fill:#f9ddbd" d="M102.27 34.74c-27.05 0-31.37 19.51-31.37 47.59 0 23.97 10.35 39.27 28.5 41.22 9.35 1 17.91-.79 24.6-5.64V40.6c-5.31-3.77-12.38-5.86-21.73-5.86z"/><path style="fill:#454140" d="M106.65 77.36c.97-1.29 3.22-3.16 7.58-3.16 4.36 0 6.61 1.87 7.58 3.16.43.57.32 1.23.02 1.62-.28.37-1.09.71-1.99.41-.9-.31-2.66-1.22-5.61-1.24-2.95.02-4.71.93-5.61 1.24-.9.31-1.72-.04-1.99-.41-.3-.39-.41-1.05.02-1.62zm-32.98 0c.97-1.29 3.22-3.16 7.58-3.16 4.36 0 6.61 1.87 7.58 3.16.43.57.32 1.23.02 1.62-.28.37-1.09.71-1.99.41-.9-.31-2.66-1.22-5.61-1.24-2.95.02-4.71.93-5.61 1.24-.9.31-1.72-.04-1.99-.41-.3-.39-.41-1.05.02-1.62z"/><path style="fill:#312d2d" d="M108.65 85.64c-.67-.79-1.07-.16-1.2.36-.45 1.76.25 4.54 3.47 5.43 4.36 1.2 8.76-1.42 9.25-4.98.06-.44-.43-.77-.82-.55-1.31.72-2.93 2.23-6.3 1.88-3.29-.33-3.68-1.29-4.4-2.14zm-32.85 0c-.67-.79-1.07-.16-1.2.36-.45 1.76.25 4.54 3.47 5.43 4.36 1.2 8.76-1.42 9.25-4.98.06-.44-.43-.77-.82-.55-1.31.72-2.93 2.23-6.3 1.88-3.28-.33-3.68-1.29-4.4-2.14z"/><path style="fill:#444" d="M91.65 114.85c-3.02.38-8.02-2.23-6.91-5.19.42-1.12 2.1-1.45 2.1-1.45s-2.76-3.12-1.34-4.76c1.91-2.21 5.07-.59 7.43-1.27.48-.14.99-.36 1.46-.2-.2.94-.76 1.62-1.95 2.04-1.34.47-2.8.2-3.54.83-.76.66-.11 1.59.87 2.17 1.39.82 3.47 1.24 3.37 1.9-.11.72-2.49.8-3.02.95-.48.14-1.18.32-1.39.83-.38.89.93 1.85 1.6 2.25.74.44 2.61.93 2.68.99.14.12.11.37-.02.51-.13.15-1.05.36-1.34.4z"/><path style="fill:#dba689" d="M89.65 93.53c.11-.04.22-.07.33-.09h7.33c.11.01.22.04.33.09.66.27 1.03.96.72 1.69-.31.73-1.77 2.79-4.71 2.79s-4.4-2.06-4.71-2.79c-.32-.73.05-1.42.71-1.69z"/><path style="fill:#312d2d" d="M124 27.87s-2.95-2.12-9.37-.63c-2.82.65-5.76 3.38-8.22 1.85-2.51-1.56-2.46-5.44-.84-7.92 0 0-10.1-.63-10.27 9.57-5.58-2.7-12.1-.75-15.45 1.89-6.14 4.84-5.36 12.19-5.36 12.19s-15.59 4.76-7.71 24.74c0 0-1.73 2.4-1.16 8.61.39 4.26 2.47 8.19 5.46 9.39 0 0 .5-20.15 1.61-19.88 5.06 1.23 9.25.04 11.15-.61 10.89-3.71 15.57-10.67 23.03-10.13 2.7.19 4.62 6.26 5.96 6.25 1.11-.01 6.25-4.18 8.6-.29.95 1.58 1.73 2.92 2.58 4.1V27.87z"/><radialGradient id="e" cx="106.827" cy="26.951" r="11.564" gradientTransform="matrix(.9378 .3473 -.3621 .9777 16.407 -36.498)" gradientUnits="userSpaceOnUse"><stop offset=".177" style="stop-color:#454140"/><stop offset=".663" style="stop-color:#454140;stop-opacity:0"/></radialGradient><path style="fill:url(#e)" d="M124 27.87s-2.95-2.12-9.37-.63c-2.82.65-5.76 3.38-8.22 1.85-2.51-1.56-2.46-5.44-.84-7.92-.02.02-3.72 1.14-5.12 4.44-2.82 6.61-1.29 18.29 23.57 21.54-.11 0-.02-17.1-.02-19.28z"/><radialGradient id="f" cx="97.696" cy="57.312" r="33.753" gradientTransform="matrix(.81 .5864 -.7067 .9762 59.058 -55.924)" gradientUnits="userSpaceOnUse"><stop offset=".602" style="stop-color:#454140;stop-opacity:0"/><stop offset="1" style="stop-color:#454140"/></radialGradient><path style="fill:url(#f)" d="M124 27.87s-2.95-2.12-9.37-.63c-2.82.65-5.76 3.38-8.22 1.85-2.51-1.56-7.26 25.42 17.6 28.66-.1 0-.01-27.7-.01-29.88z"/><radialGradient id="g" cx="84.222" cy="50.581" r="20.851" gradientTransform="matrix(1 0 0 1.3502 0 -3.38)" gradientUnits="userSpaceOnUse"><stop offset=".602" style="stop-color:#454140;stop-opacity:0"/><stop offset="1" style="stop-color:#454140"/></radialGradient><path style="fill:url(#g)" d="M83.56 48.67c-6.8.91-9.09-3.84-9.09-3.84-9.46 3.93-9.79 10.72-9.83 15.18-.03 3.3.83 6.51 2.12 9.56 0 0-1.82 2.9-1.26 8.66.28 2.86 2 7.81 5.55 9.34 0 0 .19-7.83.32-10.25.03-.6.65-9.77 1.29-9.63 5.08 1.13 17.81-13.33 10.9-19.02z"/><radialGradient id="h" cx="92.501" cy="47.092" r="19.552" gradientTransform="matrix(.9554 -.2952 .2576 .8338 -8.01 35.134)" gradientUnits="userSpaceOnUse"><stop offset=".602" style="stop-color:#454140;stop-opacity:0"/><stop offset="1" style="stop-color:#454140"/></radialGradient><path style="fill:url(#h)" d="M97.66 34.59c-1.73-6.9-12.84-5.88-17.82-1.96-2.79 2.2-5.36 5.86-5.36 12.19 0 0 .92 1.33 1.7 2.03 1.26 1.13 2.86 1.8 4.54 2.03 4.42.6 9.07-.69 12.55-3.5 2.35-1.9 4.21-4.57 4.55-7.58.14-1.22.08-2.28-.16-3.21z"/><radialGradient id="i" cx="104.323" cy="31.345" r="9.034" gradientTransform="matrix(.9051 .4252 -.6155 1.3102 29.19 -54.078)" gradientUnits="userSpaceOnUse"><stop offset=".598" style="stop-color:#454140;stop-opacity:0"/><stop offset="1" style="stop-color:#454140"/></radialGradient><path style="fill:url(#i)" d="M106.41 29.09c-2.51-1.56-2.46-5.44-.84-7.92-.08.12-1.8.08-1.99.11-1.48.2-2.94.66-4.22 1.44-1.67 1.03-2.88 2.6-3.5 4.46-.45 1.33-.61 2.57-.52 3.78 0 0 2.19 1.39 2.53 4.7.06.64 9.79-5.8 8.54-6.57z"/><path style="fill:#ef5592" d="M78.41 3.74C67.87 3.74 64 14.5 64 14.5S60.18 3.74 49.57 3.74c-7.97 0-17.07 6.32-13.71 20.68 3.36 14.36 28.16 32.26 28.16 32.26s24.72-17.9 28.08-32.26c3.36-14.36-5.08-20.68-13.69-20.68z"/><path style="fill:#da2e75" d="M47.94 4.81c8.27 0 12.38 8.89 13.71 12.5.19.51.91.53 1.12.03l1.21-2.83c-1.71-5.45-6.4-10.77-14.41-10.77-3.32 0-6.82 1.1-9.55 3.41 2.4-1.59 5.23-2.34 7.92-2.34zm30.47-1.07c-2.55 0-4.7.74-6.51 1.85 1.27-.49 2.68-.78 4.23-.78 7.8 0 14.77 5.91 11.62 19.58-2.7 11.73-18.5 25.96-23.32 31.39-.31.35-.41.91-.41.91s24.72-17.9 28.08-32.26c3.36-14.37-5.72-20.69-13.69-20.69z"/><path style="fill:#f386ab" d="M41.4 11.36c1.8-2.25 5.03-4.11 7.76-1.97 1.48 1.16.83 3.54-.49 4.54-1.93 1.46-3.6 2.34-4.77 4.63-.7 1.38-1.13 2.88-1.34 4.42-.08.61-.88.75-1.18.22-2.04-3.6-2.61-8.55.02-11.84zm28.91 4.73c-.85 0-1.44-.82-1.13-1.61a19.31 19.31 0 0 1 2.2-4.11c1.32-1.85 3.82-2.92 5.41-1.81 1.63 1.15 1.42 3.43.27 4.54-2.45 2.39-5.53 2.99-6.75 2.99z"/></svg>