<svg xmlns="http://www.w3.org/2000/svg" viewBox="0 0 128 128" style="enable-background:new 0 0 128 128" xml:space="preserve"><path style="fill:#312d2d" d="M75.11 94.27c.65.27.71 1.03.62 2.1-.14 1.7.65 4.73 3.39 6.26 0 .02.5.25.5.27l.4-.29c.14-.08 4.33-3.42 8.52-6.77 4.19-3.35 8.37-6.71 8.47-6.82 0 0 .23-.87.22-.87-.89-3.01-3.68-4.45-5.37-4.69-1.06-.15-1.79-.37-1.92-1.06-.12-.68.59-1.36.59-1.36s-.56-.34-1.19-.26c-.58.08-1.11.41-1.46.67 0 0-2.75-.76-6.17 1.97l-1.9 1.52-1.9 1.52c-3.42 2.73-3.28 5.59-3.28 5.59-.33.28-.77.72-.97 1.27-.22.6-.01 1.22-.01 1.22s.83-.53 1.46-.27z"/><radialGradient id="a" cx="-6792.976" cy="-2314.951" r="6.374" gradientTransform="matrix(-.7809 .6246 -.3068 -.3836 -5936.033 3445.388)" gradientUnits="userSpaceOnUse"><stop offset=".728" style="stop-color:#454140;stop-opacity:0"/><stop offset="1" style="stop-color:#454140"/></radialGradient><path style="fill:url(#a)" d="m79.82 84.94 1.61 2.01-5.69 5.34-1.1-.24s-.14-2.86 3.28-5.59l1.9-1.52z"/><radialGradient id="b" cx="-6798.659" cy="-2323.338" r="1.884" gradientTransform="matrix(.4426 -.8967 .6652 .3283 4629.336 -5238.671)" gradientUnits="userSpaceOnUse"><stop offset=".663" style="stop-color:#454140"/><stop offset="1" style="stop-color:#454140;stop-opacity:0"/></radialGradient><path style="fill:url(#b)" d="M75.36 92.92c2.02.65.41 2.78.41 2.78 0-.72-.14-1.22-.65-1.43-.63-.26-1.45.28-1.45.28s.29-1.76 1.69-1.63z"/><radialGradient id="c" cx="-6797.511" cy="-2314.276" r="8.274" gradientTransform="matrix(.6812 .7321 -.6102 .5677 3299.881 6386.638)" gradientUnits="userSpaceOnUse"><stop offset=".725" style="stop-color:#454140;stop-opacity:0"/><stop offset="1" style="stop-color:#454140"/></radialGradient><path style="fill:url(#c)" d="M79.12 102.64c-2.66-1.48-3.53-4.5-3.4-6.17.02-.23.13-1.15-.08-1.65 0 0 4.29 1.21 6.23 2.38.39.24.78.49 1.08.84.22.26.44.61.47.96.03.43-4 3.79-4 3.79-.01 0-.3-.15-.3-.15z"/><radialGradient id="d" cx="6963.401" cy="-2315.024" r="8.274" gradientTransform="matrix(.5646 .8254 .6879 -.4706 -2248.867 -6747.276)" gradientUnits="userSpaceOnUse"><stop offset=".725" style="stop-color:#454140;stop-opacity:0"/><stop offset="1" style="stop-color:#454140"/></radialGradient><path style="fill:url(#d)" d="M97.23 88.15c-.86-2.92-3.62-4.43-5.27-4.67-.23-.03-1.15-.13-1.6-.44 0 0 .23 4.45.96 6.6.15.43.31.87.58 1.24.2.28.5.56.83.67.41.13.57-.12.89-.38.61-.49 3.42-2.48 3.62-2.64.01-.02-.01-.38-.01-.38z"/><radialGradient id="e" cx="6967.265" cy="-2314.951" r="6.374" gradientTransform="matrix(.7809 -.6246 -.3068 -.3836 -6065.944 3549.297)" gradientUnits="userSpaceOnUse"><stop offset=".728" style="stop-color:#454140;stop-opacity:0"/><stop offset="1" style="stop-color:#454140"/></radialGradient><path style="fill:url(#e)" d="m79.81 84.95 1.61 2.01 6.46-4.38.01-1.12s-2.75-.76-6.17 1.97l-1.91 1.52z"/><radialGradient id="f" cx="6962.774" cy="-2322.98" r="1.884" gradientTransform="matrix(-.972 .2348 .1742 .7211 7263.472 122.59)" gradientUnits="userSpaceOnUse"><stop offset=".663" style="stop-color:#454140"/><stop offset="1" style="stop-color:#454140;stop-opacity:0"/></radialGradient><path style="fill:url(#f)" d="M88.57 82.35c.19 2.11 2.63 1.01 2.63 1.01-.7-.15-1.16-.41-1.26-.95-.12-.68.59-1.36.59-1.36s-1.78-.09-1.96 1.3z"/><linearGradient id="g" gradientUnits="userSpaceOnUse" x1="65.602" y1="34.365" x2="65.602" y2="7.573" gradientTransform="matrix(1 0 0 -1 0 130)"><stop offset="0" style="stop-color:#ffd29c"/><stop offset=".5" style="stop-color:#f9ddbd"/></linearGradient><path style="fill:url(#g)" d="M74.61 91.68h-7.43l.83 27.79-9.03.96c-1.44.34-2.39.86-2.39 1.72s1.16 1.53 2.39 1.53H70.9c1.57 0 2.83-1.35 2.83-2.93v-.07l.88-29z"/><linearGradient id="h" gradientUnits="userSpaceOnUse" x1="92.106" y1="49.641" x2="120.85" y2="39.874" gradientTransform="matrix(1 0 0 -1 0 130)"><stop offset="0" style="stop-color:#ffd29c"/><stop offset=".5" style="stop-color:#f9ddbd"/></linearGradient><path style="fill:url(#h)" d="M122.35 87.78c-.39-.19-2.64-1.1-3.29-1.35-.24-.09-.18-.46.12-.38l1.99.45c.49.11.9.05 1.08-.37.23-.53-.07-.99-.62-1.15l-3.25-1.07s-2.07-.72-2.93-1.01a2.68 2.68 0 0 0-2.06.16l-9.88-5.1c-.28-.15-.57-.28-.89-.35l-16.77-4.03c-2.01-.43-4.06.87-4.48 2.9s.82 4.03 2.78 4.45l16.75 3.11 9.93 3.89c.1 1.5 1.15 2.17 1.54 2.7.54.71 1.38 2.29 1.29 2.96-.06.43.65.76.94.67.35-.11.62-.57.6-1.24-.01-.38-.09-1.31-.43-1.74-.14-.18.01-.41.18-.36h.02c1 .59 4.57 2.9 4.57 2.9.49.3 1.07.22 1.3-.32.18-.42-.06-.87-.47-1.11 0 0-2.19-1.62-2.86-2.15-.14-.11-.07-.39.18-.28s3.81 1.81 3.81 1.81c.43.2.86.19 1.11-.2.31-.48.03-1.02-.49-1.26l-3.96-1.98c-.19-.11-.13-.47.14-.36 0 0 2.98 1.1 3.41 1.26.43.17 1.01.17 1.22-.38.23-.53-.11-.85-.58-1.07z"/><linearGradient id="i" gradientUnits="userSpaceOnUse" x1="90.493" y1="42.976" x2="77.919" y2="61.03" gradientTransform="matrix(1 0 0 -1 -10.55 127.849)"><stop offset="0" style="stop-color:#f78c1f"/><stop offset=".482" style="stop-color:#f47f12"/><stop offset="1" style="stop-color:#ef6c00"/></linearGradient><path style="fill:url(#i)" d="M85.63 72.74c-.5-.14-1.07-.47-1.57-1.19l-7.44-10.9-18.5 12.4 7.67 11.24c.58.8.54 2.01.56 2.93l.21 8.38h8.55l.12-8.22s1.47-.96 3.69-2.77 4.33-3.29 4.33-3.29l8.67 1.83 1.76-8.47-8.05-1.94z"/><linearGradient id="j" gradientUnits="userSpaceOnUse" x1="83.65" y1="85.296" x2="83.65" y2="129.58" gradientTransform="matrix(1 0 0 -1 -10.55 127.849)"><stop offset="0" style="stop-color:#ffd29c"/><stop offset=".5" style="stop-color:#f9ddbd"/></linearGradient><path style="fill:url(#j)" d="M85.51 6.34c.02-.97-.7-1.05-1.95-1.16l-9.64-.85c-1.62-.14-3.06 1.08-3.2 2.74l-.39 3.7h-.03l-2.86 22.22-6.74 22.7 11.69 3.07 5.04-23.38 1.5-22.35.95-.32c.51.05 2.05.49 2.42-.24.29-.58-.12-.88-.28-.93.17.05.83.17 1.05-.36.28-.69-.44-.97-.44-.97s.94.23 1.22-.43c.31-.72-.61-1.02-.61-1.02s1.15.26 1.34-.44c.16-.57-.17-.84-.48-.96.7.08 1.39-.19 1.41-1.02z"/><linearGradient id="k" gradientUnits="userSpaceOnUse" x1="45.365" y1="73.438" x2="8.249" y2="84.042" gradientTransform="matrix(1 0 0 -1 -10.55 127.849)"><stop offset="0" style="stop-color:#ffd29c"/><stop offset=".5" style="stop-color:#f9ddbd"/></linearGradient><path style="fill:url(#k)" d="M36.66 50.48s-19.27-7.12-21.14-8.22c-1.87-1.1-2.98-1.74-2.98-1.74-1.5-.67-2.78.02-3.45 1.53L5.4 51.04c-.51 1.17-.67 1.85.18 2.3.72.39 1.29.22 1.56-.46-.05.34.11.44.68.58.69.17 1.04-.85 1.04-.85s-.19.83.58.9c.71.06.98-.97.98-.97s-.16.84.58.92c.56.06.79-.81.83-1-.03.17-.12.84.52.85.81.02.98-1.67 1.19-2.15l.36-.83 20.29 9.93.02-.05c.16.07.3.15.47.2v.01l22.31 7.88 3.47-11.69c-.02 0-23.77-6.12-23.8-6.13z"/><path style="fill:#edc391" d="M76.54 81.63a2.922 2.922 0 0 1 4.16.34l1.76 2.1-4.49 3.89-1.76-2.1c-1.06-1.26-.91-3.16.33-4.23zm4.82 17.84 1.63-1.27 8.84-6.86 1.63-1.27c1.31-1.01 1.51-3 .45-4.41s-2.99-1.74-4.3-.72l-1.63 1.27-8.84 6.86-1.63 1.27c-1.31 1.01-1.51 3-.45 4.41s2.99 1.74 4.3.72z"/><path style="fill:#7c7c7c" d="M77.34 61.66 74 56.74l2.44-10.66-13.26-3.48-3.55 12.57-11.47-3.24-4.01 13.26L55.38 69l3.42 5.06z"/><path style="fill:#f9ddbd" d="M79.75 84.9c-3.82 2.97-5.16 8.57-.47 14.6 3.76 4.84 8.99 5.38 12.32 4.28.79-.26 1.48-.62 2.01-1.03.53-.41 1.04-.99 1.49-1.68 1.9-2.95 2.68-8.15-1.09-13-4.69-6.05-10.44-6.14-14.26-3.17z"/><path style="fill:#444" d="M81.37 90.81c.38-.96 2.67-2.74 3.69-2.87.59-.07.71-.76.26-.99-.44-.23-2.34-.09-3.42.75s-1.67 2.63-1.56 3.12c.13.5.82.54 1.03-.01z"/><path style="fill:#dba689" d="M83.77 91.83c.03-.01.06-.02.08-.04l1.55-1.21a.334.334 0 0 0-.07-.55 1.4 1.4 0 0 0-1.46.18c-.62.48-.59 1.16-.54 1.37.06.22.26.31.44.25z"/><ellipse transform="rotate(-37.843 89.819 90.406)" style="fill:#312d2d" cx="89.82" cy="90.41" rx="1.37" ry="1.42"/><ellipse transform="rotate(-37.843 82.594 96.019)" style="fill:#312d2d" cx="82.59" cy="96.02" rx="1.37" ry="1.42"/><path style="fill:#454140" d="M89.77 93.67c.42.11 1.2.14 2.13-.58.93-.72 1.09-1.49 1.09-1.92 0-.19-.13-.31-.26-.35-.12-.03-.35.03-.49.24s-.36.7-.99 1.19c-.63.48-1.15.58-1.39.66-.24.08-.36.29-.36.41 0 .15.09.3.27.35zm-7.22 5.62c.42.11 1.2.14 2.13-.58s1.09-1.49 1.09-1.92c0-.19-.13-.31-.26-.35-.12-.03-.35.03-.49.24s-.36.7-.99 1.19c-.63.48-1.15.58-1.39.66-.24.08-.36.29-.36.41 0 .14.08.3.27.35z"/><path style="fill:#312d2d" d="M83.99 107.25c1.23.4 3.34.54 4.43-.25 1.09.92 2.92.93 4.25.41 3.57-1.4 4.45-3.98 4.91-5.36.1-.29.71-1.16 2.1-1.37.87-.13 1.68 1.82 1.68 1.82s1.14-4.24-1.24-5.75c.58-.54 1.14-1.5.76-2.79-.46-1.53-1.44-2.3-1.97-2.61.11-.93-.13-2.51-1.74-3.45-1.21-.71-2.97-.01-2.97-.01-1.47-1.88-2.75-2.72-3.31-3.03-.1-.05-.19.04-.14.14.57 1.07 2.58 4.77 3.12 5.25 0 0-1.92 2.51-2.61 6.22-.14.75-.37 1.49-.7 2.16-1.77 3.62-4.17 2.05-4.17 2.05s-1.61 2.07-4.76-.36c-1.18-.91-2.87-2.55-4.08-3.67-.08-.08-.21 0-.17.1.23.66.68 1.96 1.45 3.04.27.38-.2 1.58.74 3.39 1.24 2.39 3.53 3.78 4.42 4.07z"/><radialGradient id="l" cx="6961.426" cy="-2293.424" r="9.727" gradientTransform="matrix(-.918 -.5838 -.3743 .6453 5617.373 5643.012)" gradientUnits="userSpaceOnUse"><stop offset=".699" style="stop-color:#454140;stop-opacity:0"/><stop offset="1" style="stop-color:#454140"/></radialGradient><path style="fill:url(#l)" d="M78.83 99.74c.27.38-.2 1.58.74 3.39.1.19.21.38.32.57 1.28 2.08 3.29 3.28 4.11 3.54 1.14.37 3.03.52 4.16-.09l.27-.18s-.49-.42-.64-.96c-.2-.7.17-1.22.17-1.22-4.86-.57-6.65-2.97-9.13-5.05z"/><radialGradient id="m" cx="6951.112" cy="-2282.391" r="3.165" gradientTransform="matrix(-1.0113 .1821 .3234 1.2231 7868.77 1628.74)" gradientUnits="userSpaceOnUse"><stop offset=".58" style="stop-color:#454140"/><stop offset="1" style="stop-color:#454140;stop-opacity:0"/></radialGradient><path style="fill:url(#m)" d="M97.27 102.89c.12-.31.22-.6.31-.85.1-.29.71-1.16 2.1-1.37.85-.13 1.65 1.78 1.68 1.81-.05-.57-1.47-5.75-3.89-3.99-1.04.76-.84 2.19-.52 3.27.12.39.28.98.32 1.13z"/><radialGradient id="n" cx="-557.746" cy="7202.017" r="7.84" gradientTransform="matrix(.9983 -.2831 -.2133 -.5763 2184.907 4094.367)" gradientUnits="userSpaceOnUse"><stop offset=".699" style="stop-color:#454140;stop-opacity:0"/><stop offset="1" style="stop-color:#454140"/></radialGradient><path style="fill:url(#n)" d="M93.03 107.25c-1.91.85-3.39.64-4.61-.26-.36-.27-3.12-3.25 5.33-4.37 3.14-.42 3.3.86 3.14 1.15-.61 1.14-1.72 2.53-3.86 3.48z"/><radialGradient id="o" cx="6949.435" cy="-2285.865" r="3.21" gradientTransform="matrix(-.7624 .648 .8787 1.0067 7405.325 -2101.55)" gradientUnits="userSpaceOnUse"><stop offset=".702" style="stop-color:#454140;stop-opacity:0"/><stop offset="1" style="stop-color:#454140"/></radialGradient><path style="fill:url(#o)" d="M101.36 102.48s0-.01.01-.02c.12-.25.97-4.31-1.26-5.73l-1.87 1.1c2.81.35 3.12 4.66 3.12 4.65 0 .01 0 0 0 0z"/><radialGradient id="p" cx="6947.227" cy="-2285.842" r="4.39" gradientTransform="matrix(.9228 -.4119 -.4638 -.9013 -7374.817 897.03)" gradientUnits="userSpaceOnUse"><stop offset=".66" style="stop-color:#454140;stop-opacity:0"/><stop offset="1" style="stop-color:#454140"/></radialGradient><path style="fill:url(#p)" d="m98.96 97.41 1.15-.68c.04-.03.16-.16.22-.23.49-.56.88-1.44.54-2.55-.37-1.19-1.03-1.93-1.57-2.34-.18-.14-.4-.28-.4-.28s-.05.93-1.2 1.96l1.26 4.12z"/><radialGradient id="q" cx="6947.583" cy="-2294.492" r="4.609" gradientTransform="matrix(-.8531 .5298 .854 1.2698 7980.81 -675.495)" gradientUnits="userSpaceOnUse"><stop offset=".598" style="stop-color:#454140;stop-opacity:0"/><stop offset="1" style="stop-color:#454140"/></radialGradient><path style="fill:url(#q)" d="M98.91 91.25c.08-.89-.18-2.51-1.81-3.4-1.23-.67-2.92.02-2.92.02s-.34.14-.48.25l3.99 5.18c.63-.54 1.06-1.25 1.19-1.88 0-.01.04-.17.03-.17z"/></svg>