<svg xmlns="http://www.w3.org/2000/svg" viewBox="0 0 128 128" style="enable-background:new 0 0 128 128" xml:space="preserve"><circle style="fill:#689f38" cx="64" cy="64" r="60"/><circle style="fill:#9ccc65" cx="60.1" cy="63.1" r="56.1"/><path style="opacity:.3;fill:#bfe094;enable-background:new" d="M24 29.7c4.5-7.1 14.1-13 24.1-14.8 2.5-.4 5-.6 7.1.2 1.6.6 2.9 2.1 2 3.8-.7 1.4-2.6 2-4.1 2.5-9.3 3-17.9 6.4-23.1 14.3-2 3-4.9 14.4-8.6 12.3-3.9-2.3-3.1-9.5 2.6-18.3z"/><path style="fill:#fafafa" d="M91.4 96.7c-3.5-1-7-3.9-8.5-8.1-.1-.4-.1-.8.2-1.1 11.4-11.1 20-25.4 19.8-35.8-.1-6.2-3.2-10.8-8.7-12.8-4.8-1.8-9-1.2-12.4.3-.6.3-1.2-.1-1.4-.7-1.6-7.2-8-12.5-15.6-12.5-4.4 0-8.4 1.8-11.3 4.7-.4.4-1 .4-1.4 0-3-3-7.2-4.9-11.8-4.7-8.5.3-15.5 7.9-15.5 16.4v43.4c0 2.1 1.5 3.9 3.6 4.2 2.4.2 4.4-1.6 4.4-4V42.3c0-4.3 3.2-8 7.5-8.3 4.7-.3 8.5 3.4 8.5 8v43.8c0 2.1 1.5 3.9 3.6 4.2 2.4.2 4.4-1.6 4.4-4V42.3c0-4.3 3.2-8 7.5-8.3 4.7-.3 8.6 3.4 8.6 8 0 0-.1 38.8.7 42.8.1.4-.1.7-.3 1-4.3 3.6-9 6.5-13.7 8.4-1.9.8-3.1 2.9-2.5 4.9.5 1.8 2.1 2.8 3.8 2.8.5 0 1-.1 1.5-.3 4.4-1.8 8.8-4.4 13.1-7.6.5-.4 1.2-.2 1.5.3 1.9 4.2 6 9 12.5 10.4.3.1.5.1.8.1 2.2 0 4.7-2.3 4.5-4.8-.2-1.6-1.7-2.9-3.4-3.3zm4.5-43.5c-1.6 9-8.9 19.3-14.9 24.9-.5-5.5-1.5-24.4.2-28.4 4.6-9.8 16.1-4.2 14.7 3.5z"/><path style="opacity:.65;fill:#bfe094;enable-background:new" d="M24 29.7c4.5-7.1 14.1-13 24.1-14.8 2.5-.4 5-.6 7.1.2 1.6.6 2.9 2.1 2 3.8-.7 1.4-2.6 2-4.1 2.5-9.3 3-17.9 6.4-23.1 14.3-2 3-4.9 14.4-8.6 12.3-3.9-2.3-3.1-9.5 2.6-18.3z"/></svg>