<svg xmlns="http://www.w3.org/2000/svg" viewBox="0 0 128 128" style="enable-background:new 0 0 128 128" xml:space="preserve"><path style="opacity:.5;fill:#fff" d="M72.9 72.09c.37.37 21.81-17.86 21.81-17.86l2.22-30.53-18.51 7.97-31.24-1.23-15.68-7.11 2.45 29.96c-.01 0 38.59 18.44 38.95 18.8z"/><path style="opacity:.7;fill:#e0e0e0" d="M62.69 5.93 46.82 7.46l-11.97 4.32-6.68 6.96 7.24 84.08-.14 10.58s8.49 11 28.54 11 29.79-10.02 29.79-10.02l-.14-10.86L100 19.57l-4.73-6.82-17.96-5.71-14.62-1.11z"/><path style="fill:silver" d="M33.88 53.25c0 2.73 3.48 50.39 5.01 52.9 1.53 2.51 9.54 10.35 25.13 10.07s25.12-7.15 25.95-9.52c.84-2.37 4.73-52.48 4.73-52.48s-.42-5.43-11.69-9.19-25.34-2.97-32.43-1.53c-8.91 1.82-16.7 6.69-16.7 9.75z"/><path style="fill:#fcf9e9" d="m38.95 62.63-3.04-5.98s-.06-1.77.18-2.83 2.05-6.04 13.87-8.4c9.38-1.88 21.29-1.71 29.94.65 5.86 1.6 11.6 4.71 12.39 7.8.9 3.51-.65 5.01-.65 5.01l-5.87 9.38-42.91-.57-3.91-5.06z"/><path style="fill:#f0e7ba" d="M40.75 104.8c.38 1.29 6.44 8.81 22.92 8.81s23.82-6.12 23.98-7.51 4.81-49.03 4.81-49.03-6.77 8.81-28.31 8.4-28.23-8.86-28.23-8.86 4.42 46.81 4.83 48.19z"/><path style="fill:#fff" d="M42.13 38.15c-2.36.15-3.59 1.96-3.1 5.71.33 2.52.98 5.22 4.32 4.89 3.38-.33 3.48-3.86 3.1-5.87-.56-3.01-1.7-4.89-4.32-4.73zm1.15 12.08c-2.28.18-3.02 1.55-2.69 5.63.43 5.39 3.18 39.24 3.43 42.18.24 2.94 1.55 4 3.34 4 1.79 0 3.26-1.79 3.18-3.83-.08-2.04-3.18-40.55-3.43-42.75-.24-2.21-.65-5.48-3.83-5.23zM38.46 109c-.68 1.77 1.68 5.39 6.37 7.8 5.23 2.69 11.08 2.28 11.18.08.1-2.32-3.51-1.7-8.97-4.32-4.52-2.17-7.52-6.34-8.58-3.56z"/><path style="fill:#d5d5d5" d="M66.18 119.49c-.21 1.74 8.75 1.14 15.61-1.22 7.8-2.69 10.09-6.5 9.19-7.81-.9-1.31-2.71 2.08-10.42 4.59-10.68 3.45-14.07 1.8-14.38 4.44z"/><path style="fill:#c8c8c8" d="M65.13 34.26h-.71c-22.48-.14-30.9-6.03-33.92-9.68-1.96-2.38-2.6-4.97-2.13-7.49v-.08c2.26-6.75 15-12.75 35.7-12.83 23.33-.09 35.29 8.14 35.87 13.75.18 1.8-.15 4.95-2.83 7.77-4.88 5.11-16.43 8.56-31.98 8.56zm-32-16.35c-.31 1.65-.39 3 1.02 4.7 2.16 2.61 8.2 7.98 30.25 8.12h.74c19.76 0 26.07-4.35 28.71-7.26 1.48-1.63 2.06-3.07 1.89-4.79-.39-3.69-10.14-10.75-31.42-10.63-22.66.12-30.35 5.86-31.08 9.74l-.11.12z"/><path style="fill:#fff" d="M35.86 13.87c-.45-.48-2.07-.17-3.39 1.36-1.17 1.36-2.73 4.16-.43 7.33 2.32 3.19 9.55 9.12 33.21 9.43 21.38.28 31.61-7.02 31.91-11.95s-2.77-4.81-2.77-4.13.64 2.05.43 3.7c-.25 1.9-4.99 10.03-29.82 10.09-23.78.06-31.56-7.64-31.48-10.1.12-3.82 3.33-4.68 2.34-5.73z"/></svg>