<svg xmlns="http://www.w3.org/2000/svg" viewBox="0 0 128 128" style="enable-background:new 0 0 128 128" xml:space="preserve"><path style="fill:#a8d0d6" d="M51.64 79.73V19.55c0-4.61-.21-15.41 12.79-15.41S77 15.52 77 19.61s-.3 60.2-.3 60.2 11.64 6.43 11.22 21.63c-.37 13.55-10.59 22.65-24.85 22.44s-23.49-11.74-23.49-23.38c0-15.11 12.06-20.77 12.06-20.77z"/><path style="fill:#fff" d="M68.76 47.36 58.02 43.2s0-20.44.12-23.32c.12-2.89.92-6.89 6.58-6.81 5.66.08 6.23 4.27 6.35 7.27.08 1.96-.19 23.04-.19 23.04l-2.12 3.98z"/><path style="fill:#dd0b2b" d="M68.41 86.96s-20.53 7.62-20.48 12.05c.09 7.33 3.69 16.76 15.71 16.89 10.16.11 15.83-6.3 15.69-16.26C79.17 87.51 70 84.88 70 84.88l-1.59 2.08z"/><path style="fill:#e7523c" d="m58.68 42.63 12.21.05-.09 42.57s7.77 7.74 3.93 18.23c-3.26 8.92-14.58 11.05-21.57 5.54-7.98-6.29-5.17-15.11-2.13-19.44s7.47-4.89 7.47-4.89l.18-42.06z"/><path style="fill:#fed0be" d="M62.71 42.64s-.22 46.7-.24 49.43c-.03 3.36.17 7.94-5.57 7.91-5.63-.03-6.35-6.44-3.8-8.86 1.9-1.79 4.57-1.39 4.57-1.39l.31-47.1 4.73.01z"/><path style="fill:#4b4a51" d="M58.49 17.6c-3.23 0-5.22-.26-5.31 2.4-.1 2.62 2.11 2.46 5.31 2.46 3.1 0 5.18.22 5.18-2.4 0-2.85-2.11-2.46-5.18-2.46zm-.19 13.57c-3.41 0-5.04-.16-5.13 2.34-.1 2.78 2.05 2.53 5.16 2.46 3.11-.06 5.31.42 5.34-2.18.03-2.74-1.72-2.62-5.37-2.62zm.17 13.34c-3.23 0-5.22-.26-5.31 2.4-.1 2.62 2.11 2.46 5.31 2.46 3.1 0 5.18.22 5.18-2.4.01-2.84-2.11-2.46-5.18-2.46zm-.09 13.73c-3.4 0-5.06-.16-5.11 2.34-.06 2.76 1.95 2.52 5.04 2.54 3.1.02 5.48 0 5.42-2.25-.06-2.76-1.71-2.63-5.35-2.63zm.22 14.01c-3.23 0-5.22-.26-5.31 2.4-.1 2.62 2.11 2.46 5.31 2.46 3.1 0 5.18.22 5.18-2.4.01-2.84-2.1-2.46-5.18-2.46z"/></svg>