<svg xmlns="http://www.w3.org/2000/svg" viewBox="0 0 128 128" style="enable-background:new 0 0 128 128" xml:space="preserve"><path style="fill:#875d51" d="M49.75 54.67s-2.69-.24-6.39 2.42c-2.84 2.04-5.13 4.85-8.75 7.06-3.62 2.22-8.27 3.46-13.18 4.43C9.85 70.89 4.3 79.57 3.91 86.74c-.27 4.92 1.21 8.59 4.52 10.17 3.26 1.55 6.31.63 6.31.63s1.53 5.02 7.02 5.52c5.79.53 8.12-3.66 8.42-3.91.3-.25 2.74-.62 3.37.22.85 1.15 1.39 8.9 2 12.26.6 3.26 1.3 4.06 3.52 4.88s8.26 1.54 10.13-1.26 4.43-14.7 4.43-14.7l3.38 2.33s14.11 16.72 14.92 16.72c.82 0 29.76-.15 34.43-.15s15.63-.12 16.68-.47c1.05-.35 1.17-2.1.47-3.85s-2.87-5.93-5.45-9.76c-1.53-2.28-3.33-4.9-3.33-4.9s1.46.16 3.19-.56c1.4-.58 1.55-2.05.44-2.61-.71-.35-2.91-1.43-4.62-2.56s-2.95-2.33-2.95-2.33 2.69-.56 3.7-1.26c1.03-.71.76-1.78.21-2.34s-3.03-1.23-4-1.68c-3.48-1.63-6.25-3.92-10.22-7.11-3.69-2.96-10.2-8.66-12.49-11.26S82 62.85 82 62.85s-9.99-5.29-15.61-6.54c-9.23-2.06-16.64-1.64-16.64-1.64z"/><path style="fill:#533731" d="M13.74 80.39c-1.38.17-1.89 1.27-1.99 2.26-.17 1.85.24 3.95-.31 5.32s-2.11 2.81-2.3 3.64c-.2.91.58 1.89 1.99 1.58.7-.15 2.17-.85 3.33-2.06 1.16-1.22 2.02-2.96 2.13-3.77.27-2.13.15-3.76-.07-4.74-.2-.93-.99-2.45-2.78-2.23zm-3.38 17.14c.5-.12 2.27-.51 4.51-1.6 2.61-1.27 4.84-3.09 6.54-4.71 1.78-1.7 3.42-4.08 4.71-4.91 1.16-.74 2.15-.51 2.86.08.52.43.87 1.38.39 2.84-.65 1.99-3.24 4.74-6.39 6.42s-6.07 2.13-7.75 2.26c-1.69.14-4.87-.21-4.87-.38z"/><path style="fill:#6c4b41" d="M72.7 54.89s.92-2.44 1.35-4.67c.48-2.54.96-10.66-.35-13.06-1.31-2.4-10.49 2.58-16.13 8.59-4.64 4.94-8.37 13.16-8.37 13.16s-.6-.65-.8.61c-.28 1.75 1.4 5.77 5.82 6.46 3.58.56 5.39-.67 6.24-1.36 1.89-1.54 2.96-3.66 6.9-3.49 1.97.08 4.15.75 7.88 3.04 3.73 2.29 6.01 3.96 7.82 4.28 1.81.32 4.18-.53 4.18-.53s-4.94-6.2-8.62-9.09c-3.78-2.96-5.92-3.94-5.92-3.94z"/><path style="fill:#533731" d="M37.83 97.06c-.02.99 3.68 1.6 7.65 1.84 3.4.21 5.59-.13 5.93.1.26.17-.15 5.52-.33 7.26-.21 2.08-.56 6.82-3.36 8.83-1.93 1.39-4.75 1.72-7.32 1.2-1.81-.37-3.26-1.12-3.81-1.45 0 .11 1.64 3.52 7.33 3.55 8.25.05 8.63-4.07 9.49-8.94.6-3.36.89-6.67 1.46-6.71.74-.06 1.32 2.92 1.58 3.82.27.9 2.81 8.85 3.18 9.91.37 1.06.77 2.44 1.45 2.84.46.27 2.45.28 3.47.29 1.07.01 7.51-.01 7.51-.01s-2.86-3.33-4.56-5.67c-1.7-2.34-5.51-8.57-7.13-11.32-1.53-2.59-2.83-5.11-2.78-5.38.05-.27 2.52-2.85 4.16-7.15 1.29-3.37 1.47-8.95 1.33-9.9-.14-.96-1.43-.88-2.01.63-.36.94-2.32 5.13-3.26 6.66-1.1 1.8-3.44 4.36-4.98 5.26-2.08 1.22-6.16 2.03-8.48 2.51-2.56.55-6.5.89-6.52 1.83z"/><path style="fill:#060708" d="M46.69 63.82c-1.93-.08-3.15 1.82-3.17 4.96-.02 2.71 1.81 3.93 3.26 3.88 1.65-.06 2.92-1.68 2.99-4.2.07-2.48-.57-4.53-3.08-4.64z"/><path style="fill:#fffdff" d="M46.29 66.94c-.21 1.19-.71 2.45-1.65 2.31-.94-.14-1.17-1.53-.83-2.89.34-1.36 1.15-2.01 1.82-1.83.85.22.87 1.23.66 2.41z"/><path style="fill:#ec9168" d="M48.39 59.28c.03.6.42 3.58 5.36 3.58 3.99 0 5.16-2.26 5.29-3.19.14-.97.08-3.66.86-5.41.95-2.13 2.16-4.16 8.19-5.45 6.02-1.29 10.19-1.03 18.74-3.38 9.45-2.59 15.99-7 20.99-11.09 6.19-5.06 9.77-10.01 11.54-13.17 1.29-2.31 1.14-4.98-.34-5.91-2.58-1.63-4.61.96-5.57 2.26-1.63 2.21-3.22 4.17-5.34 6.13-2.44 2.25-5.29.81-3.95-1.41 1.13-1.87 2.36-3.15 3.38-5.12.63-1.23.9-3.55-.79-4.84s-4-.68-5.46 1.01c-1.41 1.63-3.32 5.21-5.93 7.73-1.69 1.63-4.44 1.65-3.66-1.5.4-1.61 1.38-3.74 1.88-5.39.62-2.03-.02-4.35-1.88-4.85-1.86-.51-3.75-.34-5.61 3.33-1.97 3.88-4.27 8.59-6.36 11.76-.76 1.15-3.88 2.74-5.85.2-1.49-1.92-2.22-11.4-3.09-13.69-.86-2.25-2.4-3.4-4.31-3.19-2.13.24-3.91 2.04-3.91 5.24s.96 14.69 1.01 16.88c.06 2.19-.74 7.01-5.97 7.6-4.91.55-8.39-1.86-11.54-7.99-3.15-6.13-6.21-12.27-7.99-15.36-1.58-2.76-3.49-3.6-5.52-2.65-1.98.94-2.35 3.31-1.74 5.85.9 3.77 2.53 7.09 3.26 9.85s-1.16 5.5-4.32 3.56c-3.74-2.29-9.25-7.53-11.44-10.16-2.47-2.97-4.89-4.29-7.38-2.53-1.74 1.24-1.38 4.29.79 7.77 2.36 3.78 6.3 9.4 11.93 13.34s8.5 5.35 12.04 6.7c3.55 1.35 9.68 3.1 11.48 6.02 1.77 2.88 1.12 6.07 1.21 7.47z"/></svg>