<svg xmlns="http://www.w3.org/2000/svg" xmlns:xlink="http://www.w3.org/1999/xlink" viewBox="0 0 128 128" style="enable-background:new 0 0 128 128" xml:space="preserve"><linearGradient id="a" gradientUnits="userSpaceOnUse" x1="53" y1="34.74" x2="53" y2="-4.33" gradientTransform="matrix(1 0 0 -1 0 130)"><stop offset=".161" style="stop-color:#606060"/><stop offset=".288" style="stop-color:#606060"/><stop offset=".449" style="stop-color:#595959"/><stop offset=".684" style="stop-color:#464646"/><stop offset=".962" style="stop-color:#262626"/><stop offset="1" style="stop-color:#212121"/></linearGradient><path style="fill:url(#a)" d="M50.1 95.4H50c-18.1 0-36.8 3.7-46 12.2v16.3h98v-3.4c0-16.8-26.3-25.1-51.9-25.1z"/><path style="fill:#543930" d="M87.8 40.38c.29 2.92.57 6.04.83 9.31.03.42.06.83.1 1.25l.12 1.64c.05.73.11 1.45.15 2.19.18 2.63.33 5.34.46 8.09.08 1.76.14 3.52.21 5.3 0 .09.01.17 0 .26.02.94.05 1.89.07 2.84 0 .26.01.53.02.81.03 1.67.04 3.34.05 5.02 0 1.65-.01 3.3-.03 4.94-.01.66-.02 1.33-.04 2 0 .64-.03 1.25-.05 1.88-.02.49-.04.99-.05 1.47-.02.49-.04.98-.07 1.47-.04.77-.11 2.17-.19 3.77-.08 1.19-.17 2.36-.26 3.52-.05.61-.11 1.22-.16 1.82-.05.53-.03 1.89-.05 2.72 0 .03.01.06 0 .09 0 .1-.02.18-.02.25 0 .06 0 .11-.01.14L11.24 99.9a115.547 115.547 0 0 1-.36-3.76c-.19-2.38-.35-4.83-.45-7.29-.03-.49-.05-.98-.06-1.47-.02-.49-.03-.99-.05-1.47-.02-.63-.04-1.24-.05-1.88-.02-.67-.03-1.33-.04-2-.02-1.64-.03-3.29-.03-4.94.01-1.67.02-3.35.05-5.02.01-.28.01-.54.02-.81.02-.95.05-1.9.07-2.84 0-.09.01-.17.01-.26.06-1.79.12-3.55.21-5.3.13-2.75.28-5.46.46-8.09.04-.73.1-1.46.15-2.19.05-.55.08-1.1.12-1.64.03-.42.06-.84.1-1.25.26-3.27.54-6.39.83-9.31.01-.12.18-2 .87-4.81L43.54 7.6c1.93-.25 4.01-.39 6.22-.42l36.93 26.75c.93 3.69 1.1 6.3 1.11 6.45z"/><radialGradient id="b" cx="50.386" cy="64.339" r="42.376" gradientTransform="matrix(1 0 0 -1.1901 0 142.069)" gradientUnits="userSpaceOnUse"><stop offset=".794" style="stop-color:#6d4c41;stop-opacity:0"/><stop offset="1" style="stop-color:#6d4c41"/></radialGradient><path style="fill:url(#b)" d="M87.8 40.38c.29 2.92.57 6.04.83 9.31.03.42.06.83.1 1.25l.12 1.64c.05.73.11 1.45.15 2.19.18 2.63.33 5.34.46 8.09.08 1.76.14 3.52.21 5.3 0 .09.01.17 0 .26.02.94.05 1.89.07 2.84 0 .26.01.53.02.81.03 1.67.04 3.34.05 5.02.01 1.64 0 3.3-.03 4.94-.01.66-.02 1.33-.04 2 0 .64-.03 1.25-.05 1.88-.02.49-.04.99-.05 1.47-.02.49-.04.98-.07 1.47-.04.77-.11 2.17-.19 3.77-.17 3.01-.38 6.71-.48 8.07 0 .03.01.06 0 .09 0 .1-.02.18-.02.25 0 .06 0 .11-.01.14L11.24 99.9a115.547 115.547 0 0 1-.36-3.76c-.19-2.38-.35-4.83-.45-7.29-.03-.49-.05-.98-.06-1.47-.02-.49-.03-.99-.05-1.47-.02-.63-.04-1.24-.05-1.88-.02-.67-.03-1.33-.04-2-.02-1.64-.03-3.29-.03-4.94.01-1.67.02-3.35.05-5.02.01-.28.01-.54.02-.81.02-.95.05-1.9.07-2.84 0-.09.01-.17.01-.26.06-1.79.12-3.55.21-5.3.13-2.75.28-5.46.46-8.09.04-.73.1-1.46.15-2.19.05-.55.08-1.1.12-1.64.03-.42.06-.84.1-1.25.26-3.27.54-6.39.83-9.31.01-.12.18-2 .87-4.81L43.54 7.6c1.93-.25 4.01-.39 6.22-.42l36.93 26.75c.93 3.69 1.1 6.3 1.11 6.45z"/><path style="fill:#404042" d="M33.48 96.33c4.06.85 7.46 22.1 12.28 27.57h5.95c8.4-5.57 16.9-27.57 21.53-29.56 3.59-1.51 5.76-3.4 5.76-5.38 0-5-12.94-8.97-28.9-8.97s-28.99 4.06-28.99 8.97c0 3.12 4.91 5.76 12.37 7.37z"/><path style="fill:#99674f" d="M49.07 110.53c-4.47 0-8.12-3.6-8.12-8.02V92.46h18.08v10.05c0 4.43-3.65 8.02-8.12 8.02h-1.84z"/><path style="fill:#ba8d68" d="M50.03 95.68c-2.36 0-5.06-.51-7.77-1.47-11.65-4.12-25.25-16.79-25.25-38.93 0-29.52 17.79-39.99 33.02-39.99s33.02 10.47 33.02 39.99c0 22.18-13.63 34.84-25.29 38.95-2.71.95-5.39 1.45-7.73 1.45z"/><ellipse style="fill:#49362e" cx="34.2" cy="58.7" rx="4.9" ry="5.1"/><ellipse style="fill:#49362e" cx="65.8" cy="60" rx="6" ry="6.2"/><path style="fill:#99674f" d="M53.9 67.9c-.1 0-.2-.1-.3-.1h-7.1c-.1 0-.2 0-.3.1-.6.3-1 .9-.7 1.6s1.7 2.7 4.5 2.7 4.2-2 4.5-2.7c.4-.7 0-1.3-.6-1.6z"/><path style="fill:#5d4037" d="M58.5 76c-3.2 1.9-13.6 1.9-16.8 0-1.8-1.1-3.7.6-2.9 2.2s6.5 5.4 11.4 5.4 10.5-3.8 11.3-5.4c.7-1.6-1.1-3.3-3-2.2z"/><path style="fill:#613e31" d="M41.43 50.83c-.93-1.23-3.07-3.01-7.23-3.01s-6.31 1.79-7.23 3.01c-.41.54-.31 1.17-.02 1.55.26.35 1.04.68 1.9.39s2.54-1.16 5.35-1.18c2.81.02 4.49.89 5.35 1.18s1.64-.03 1.9-.39c.29-.38.39-1-.02-1.55zm34.05-.24c-1.11-1.47-3.68-3.61-8.67-3.61s-7.56 2.14-8.67 3.61c-.49.65-.37 1.4-.03 1.86.32.42 1.25.81 2.28.46s3.05-1.39 6.42-1.42c3.37.02 5.39 1.07 6.42 1.42s1.96-.04 2.28-.46c.33-.46.46-1.21-.03-1.86z"/><path style="fill:#543930" d="M87.8 40.38c.74 7.43 1.42 16.18 1.78 25.36 0 .05-.01.12-.01.17h-7.7c-.27-4.09-2.49-20.63-5.54-22.74-3.65-2.53-13.58-9.05-16.8-15.5 0 0-11.58 10.77-32.84 15.53-5.89 1.32-9.31 19.57-9.51 22.69l-6.76.01c.34-9.24 1.03-18.05 1.77-25.53.01-.13.19-2.1.92-5.03l33.9-28.07c1.11-.07 2.27-.1 3.47-.1 1.2 0 2.37.03 3.48.1l32.68 26.56c.98 3.75 1.15 6.4 1.16 6.55z"/><radialGradient id="c" cx="50.331" cy="67.824" r="41.282" gradientTransform="matrix(1 0 0 -1.2135 0 144.308)" gradientUnits="userSpaceOnUse"><stop offset=".794" style="stop-color:#6d4c41;stop-opacity:0"/><stop offset="1" style="stop-color:#6d4c41"/></radialGradient><path style="fill:url(#c)" d="M87.8 40.38c.74 7.43 1.42 16.18 1.78 25.36 0 .05-.01.12-.01.17h-7.7c-.27-4.09-2.49-20.63-5.54-22.74-3.65-2.53-13.58-9.05-16.8-15.5 0 0-11.58 10.77-32.84 15.53-5.89 1.32-9.31 19.57-9.51 22.69l-6.76.01c.34-9.24 1.03-18.05 1.77-25.53.01-.13.19-2.1.92-5.03l33.9-28.07c1.11-.07 2.27-.1 3.47-.1 1.2 0 2.37.03 3.48.1l32.68 26.56c.98 3.75 1.15 6.4 1.16 6.55z"/><path style="fill:#bdbdbd" d="m58.4 124 2.2-19H39.4l2.5 19z"/><defs><path id="d" d="M4 4h120v120H4z"/></defs><clipPath id="e"><use xlink:href="#d" style="overflow:visible"/></clipPath><g style="clip-path:url(#e)"><path style="fill:#616161" d="m116.9 124-2.1-11.6-9.9-2.5c-3.3-.8-6.5 1.3-7 4.7 0 0-.8 2.9-2.3 9.4h21.3z"/></g><defs><path id="f" d="M4 4h120v120H4z"/></defs><clipPath id="g"><use xlink:href="#f" style="overflow:visible"/></clipPath><ellipse style="clip-path:url(#g);fill:#404042" cx="106.5" cy="114.4" rx="8.7" ry="8"/><defs><path id="h" d="M4 4h120v120H4z"/></defs><clipPath id="i"><use xlink:href="#h" style="overflow:visible"/></clipPath><g style="clip-path:url(#i)"><path style="fill:gray" d="m24.55 97.46-.3-.15c-.59-.29-12.34-1.25-18.81 6.56-.87 1.04-.96 2.32-.2 3.38l3.1 3.7c.71.85 1.69 1.51 2.61 1.51.36 0 .72-.1 1.04-.33 8.17-5.79 12.84-6.06 15.32-5.26l2.25.72-5.01-10.13z"/><circle style="fill:#757575;stroke:#9e9e9e;stroke-miterlimit:10" cx="11.3" cy="105.5" r="2.7"/><circle style="fill:#424242" cx="12.2" cy="105.6" r=".6"/><circle style="fill:#424242" cx="10.4" cy="105.3" r=".6"/></g><defs><path id="j" d="M4 4h120v120H4z"/></defs><clipPath id="k"><use xlink:href="#j" style="overflow:visible"/></clipPath><g style="clip-path:url(#k)"><path style="fill:gray" d="M92.67 103.86c-6.57-7.8-18.24-6.85-18.82-6.55l-.3.15-4.99 10.12 2.25-.72c2.48-.8 7.15-.53 15.25 5.22.32.27.68.38 1.05.38 1 0 2.07-.81 2.65-1.5l3.15-3.76c.72-1.02.63-2.3-.24-3.34z"/><circle style="fill:#757575;stroke:#9e9e9e;stroke-miterlimit:10" cx="86.7" cy="105.5" r="2.7"/><circle style="fill:#424242" cx="85.8" cy="105.6" r=".6"/><circle style="fill:#424242" cx="87.7" cy="105.3" r=".6"/></g><defs><path id="l" d="M4 4h120v120H4z"/></defs><clipPath id="m"><use xlink:href="#l" style="overflow:visible"/></clipPath><g style="clip-path:url(#m)"><linearGradient id="n" gradientUnits="userSpaceOnUse" x1="33.95" y1="-1252.816" x2="33.95" y2="-1294.17" gradientTransform="matrix(1 0 0 -1 0 -1158)"><stop offset=".125" style="stop-color:#757575"/><stop offset=".3" style="stop-color:#707070"/><stop offset=".502" style="stop-color:#626262"/><stop offset=".718" style="stop-color:#4b4b4b"/><stop offset=".942" style="stop-color:#2b2b2b"/><stop offset="1" style="stop-color:#212121"/></linearGradient><path style="fill:url(#n)" d="m46.6 124-3.2-27.5c-.2-.8-.8-1.4-1.5-1.4-.8.1-1.6.1-2.3.1-7.8 0-14.8-3.2-18.3-5.2l11.4 34h13.9z"/><linearGradient id="o" gradientUnits="userSpaceOnUse" x1="66.05" y1="-1252.789" x2="66.05" y2="-1294.17" gradientTransform="matrix(1 0 0 -1 0 -1158)"><stop offset=".125" style="stop-color:#757575"/><stop offset=".3" style="stop-color:#707070"/><stop offset=".502" style="stop-color:#626262"/><stop offset=".718" style="stop-color:#4b4b4b"/><stop offset=".942" style="stop-color:#2b2b2b"/><stop offset="1" style="stop-color:#212121"/></linearGradient><path style="fill:url(#o)" d="m67.4 124 11.4-34c-3.5 2-10.6 5.2-18 5.2-.9 0-1.8 0-2.6-.2h-.1c-.6 0-1.2.6-1.4 1.4L53.3 124h14.1z"/></g><radialGradient id="p" cx="117.204" cy="-1548.272" r="61.738" gradientTransform="matrix(.9182 0 0 -.7823 -57.667 -1176.21)" gradientUnits="userSpaceOnUse"><stop offset=".003" style="stop-color:#757575"/><stop offset=".333" style="stop-color:#686868"/><stop offset=".941" style="stop-color:#464646"/><stop offset="1" style="stop-color:#424242"/></radialGradient><path style="fill:url(#p)" d="M83.5 26.76c-4.5-1.14-10.9-2.08-17-2.7-5.1-.52-10.7.52-16.5.52s-11.4-1.04-16.5-.52c-6.1.52-13.7 2.7-18.2 3.84C7.5 29.88 4 31.95 4 34.86s4.1 4.26 12 6.23c4.5 1.14 8 3.74 15.9 4.67 5.1.62 13.6-1.25 19.3-1.25 5.8 0 13.4 1.87 18.5 1.35 6.1-.52 9.7-3.01 14.2-4.15 7.9-1.97 12-4.05 12-6.96s-4.5-6.02-12.4-7.99z"/><radialGradient id="q" cx="140.254" cy="998.92" r="33.431" gradientTransform="matrix(0 .9331 1.4131 0 -1362.23 -123.91)" gradientUnits="userSpaceOnUse"><stop offset=".003" style="stop-color:#757575"/><stop offset=".333" style="stop-color:#686868"/><stop offset=".941" style="stop-color:#464646"/><stop offset="1" style="stop-color:#424242"/></radialGradient><path style="fill:url(#q)" d="M64.6 4.44c-2.8-.73-7.4-.41-10.2 0-7.1 1.25-6.1.52-12.8-.1-2.7-.31-6.3-.52-8.9.31-10 3.12-11.2 11.94-17.5 25.44.1 12.36 70 12.25 69.9 0C79 17.21 75 7.24 64.6 4.44z"/><path style="opacity:.2;fill:#eee;enable-background:new" d="M38.8 10.35c3.2 2.28 7.1 3.43 11 2.91 3.5-.41 6.9-1.77 10.1-3.32.5-.31 1.1.31.9.94-.5 1.35-5.5 6.44-11.4 6.44-5.5 0-9.2-2.39-11.1-5.82-.4-.52-.2-1.66.5-1.15z"/><path style="fill:#404042" d="M82.1 23.44c-11.6 6.85-52.3 6.85-63.8-.1-1 2.18-2 4.47-3 6.75.1 12.36 70 12.25 69.9 0-1.1-2.19-2.1-4.47-3.1-6.65z"/><g style="opacity:.6"><radialGradient id="r" cx="191.292" cy="-1029.168" r="41.908" gradientTransform="scale(1 -1) rotate(-6.367 9004.653 634.435)" gradientUnits="userSpaceOnUse"><stop offset="0" style="stop-color:#fafafa"/><stop offset="1" style="stop-color:#eee"/></radialGradient><path style="fill:url(#r)" d="M90.17 43.4c7.3 9.2 5.8 22.7-3.3 30.1s-22.6 5.8-30-3.4-5.8-22.7 3.4-30.1 22.5-5.8 29.9 3.4z"/></g><path style="fill:#c7c7c7" d="m101.16 85.78-5.68 4.52-12.64-15.78L88.52 70z"/><radialGradient id="s" cx="42.487" cy="-1219.828" r="48.964" gradientTransform="scale(1 -1) rotate(1.341 -50682.587 637.532)" gradientUnits="userSpaceOnUse"><stop offset="0" style="stop-color:#e0e0e0"/><stop offset=".227" style="stop-color:#dbdbdb"/><stop offset=".494" style="stop-color:#cdcdcd"/><stop offset=".779" style="stop-color:#b5b5b5"/><stop offset="1" style="stop-color:#9e9e9e"/></radialGradient><path style="fill:url(#s)" d="M92.5 41.3C84.1 30.7 68.8 29 58.3 37.5s-12.2 23.9-3.8 34.4 23.7 12.3 34.2 3.8 12.2-23.9 3.8-34.4zm-7.36 29.87c-8.04 6.43-19.78 5.2-26.21-2.93s-5.11-19.87 2.93-26.4 19.78-5.2 26.21 2.93c6.44 8.13 5.11 19.96-2.93 26.4z"/><radialGradient id="t" cx="93.198" cy="48.415" r="13.61" gradientTransform="matrix(1 0 0 -1 0 130)" gradientUnits="userSpaceOnUse"><stop offset="0" style="stop-color:#ffa726"/><stop offset=".04" style="stop-color:#ffa623"/><stop offset=".517" style="stop-color:#ff9800"/><stop offset="1" style="stop-color:#fb8c00"/></radialGradient><path style="fill:url(#t)" d="m113.1 100.6-.4-.5c-.4-3.4-2.4-7.9-5.8-12.2-3-3.8-6.4-6.6-9.4-7.9-.8-.4-1.5-1-2.1-1.7l-.8-1-6.2 5 .8 1c.6.7 1 1.5 1.2 2.4C91 89 93 93 96 96.7c3.4 4.3 7.3 7.3 10.5 8.4l.4.5c.4.5 1 .8 1.7.8.5 0 .9-.2 1.3-.5l.9-.7c.2-.1.4-.2.6-.4.2-.1.3-.3.5-.5l.9-.7c.9-.7 1.1-2.1.3-3z"/><path style="fill:#ababab" d="M96.6 80.4 90.8 85c-.7.5-1.6.4-2.1-.2l-.4-.6c-.5-.7-.4-1.6.2-2.1l5.8-4.7c.7-.5 1.6-.4 2.1.2l.4.6c.6.7.5 1.6-.2 2.2z"/><radialGradient id="u" cx="-14.402" cy="165.915" r="21.685" gradientTransform="matrix(-.635 -.7725 -.8167 .6714 227.452 -7.606)" gradientUnits="userSpaceOnUse"><stop offset=".307" style="stop-color:#ba8d68"/><stop offset="1" style="stop-color:#a47b62"/></radialGradient><path style="fill:url(#u)" d="M101.53 97.62c-.82.87-1.56 1.81-2.12 2.86-.81 1.5-8.06 4.3-4.06 10.29 1.17 1.61 4.82 6.69 8.02 8.1 6.69 2.95 16.21-6.33 17.1-6.82 5.6-3.05-8.94-17.41-13.34-17.3-.53.04-1.32.19-2.03.3-1.37.24-2.71 1.67-3.57 2.57z"/><radialGradient id="v" cx="75.215" cy="-22.348" r="15.889" gradientTransform="scale(1 -1) rotate(58.041 162.265 -20.048)" gradientUnits="userSpaceOnUse"><stop offset="0" style="stop-color:#a47b62"/><stop offset="1" style="stop-color:#ba8d68"/></radialGradient><path style="fill:url(#v)" d="m119.9 107.09-5.74 4.2c-.75.52-.98 1.47-.58 2.23.42.84 1.49 1.12 2.37.68l6.22-3.44c1.01-.53 1.41-1.77.84-2.71l-.29-.48c-.6-.96-1.89-1.18-2.82-.48z"/><radialGradient id="w" cx="94.589" cy="-24.964" r="15.873" gradientTransform="matrix(.9078 -.4835 -.4667 -.8846 12.279 114.826)" gradientUnits="userSpaceOnUse"><stop offset="0" style="stop-color:#a47b62"/><stop offset="1" style="stop-color:#ba8d68"/></radialGradient><path style="fill:url(#w)" d="M98.35 114.61s1.74-.08 4.02-.72c6.9-1.96 2.59-8.93 1.94-10.03-3.31-5.64 2.14-7.99 5.8-11.2.76-.67 3.18-3.19 2.54-5.57-1.53-3.61-4.58-1.2-11.4 3.39-1.86 1.25-3.6 2.63-5.17 4.23-7.5 7.59-.97 16.25 2.27 19.9z"/><radialGradient id="x" cx="89.402" cy="-31.464" r="18.06" gradientTransform="scale(1 -1) rotate(41.201 188.36 -19.083)" gradientUnits="userSpaceOnUse"><stop offset="0" style="stop-color:#a47b62"/><stop offset="1" style="stop-color:#ba8d68"/></radialGradient><path style="fill:url(#x)" d="m114.64 96.58-7.56 6.87c-1.02.91-.41 1.75.32 2.82.78 1.18 1.64 2.04 2.88 1.21l8.41-5.83c1.42-.98 1.79-2.91.77-4.21l-.52-.66c-1.06-1.32-3.02-1.42-4.3-.2z"/><radialGradient id="y" cx="97.041" cy="-34.279" r="17.259" gradientTransform="scale(1 -1) rotate(33.051 210.691 -22.439)" gradientUnits="userSpaceOnUse"><stop offset="0" style="stop-color:#a47b62"/><stop offset="1" style="stop-color:#ba8d68"/></radialGradient><path style="fill:url(#y)" d="m110.88 91.9-6.19 6.28c-.93.92-1.03 2.33-.28 3.32.8 1.09 2.4 1.23 3.54.38l7.06-5.32c1.31-1 1.57-2.87.53-4.07l-.53-.61c-1.08-1.21-2.97-1.21-4.13.02z"/><radialGradient id="z" cx="80.973" cy="-26.303" r="17.265" gradientTransform="scale(1 -1) rotate(50.38 172.27 -18.625)" gradientUnits="userSpaceOnUse"><stop offset="0" style="stop-color:#a47b62"/><stop offset="1" style="stop-color:#ba8d68"/></radialGradient><path style="fill:url(#z)" d="m117.65 102.04-6.13 5.25c-.93.76-1.13 2.04-.52 3 .64 1.06 2.08 1.32 3.19.63l6.85-4.31c1.28-.81 1.67-2.49.81-3.67l-.43-.6c-.89-1.17-2.61-1.32-3.77-.3z"/><path style="fill:#91674d" d="M118.86 101.51c-.6-.97-7.14 5.5-8.6 5.44-1.67-.07-2.82-1.81-2.01-3.33.92-1.71 7.58-7.21 7.28-7.59-.56-.71-7.88 8.24-10.39 5.07-1.56-1.96.55-3.56 1.77-4.9.72-.79 4.2-3.9 4-4.16-.2-.25-1.04.52-1.15.59-.72.45-4.77 4.08-5.72 5.24-1.57 1.92-1.21 3.35-.61 4.21.7 1.01 1.43 2.5 1.83 3.66.84 2.47-.16 6.13-.03 6.45.14.34 1.12-1.69 1.31-3.51.11-1.07 1.15-1.4 1.99-.72.51.42.96.82 1.12 1.04.34.46 2.36 3.15 2.91 4.18.21.4.4.7.81 1.01.3.23.64.4 1.01.5 1.64.45 3.17-.58 4.41-1.44.74-.52 3.86-2.4 4.23-3.3-1.61 1.2-7.11 5.64-8.55 3.28-.78-1.34.6-1.85 1.48-2.41 1-.63 2.77-1.95 3.63-2.76.24-.23 1.63-1.25 1.48-1.45-.23-.29-3.13 1.87-3.46 2.11-1.19.85-3.49 2.91-5.08 1.94-.58-.36-.99-1.04-.99-1.73 0-1.66 7.64-6.92 7.33-7.42z"/></svg>