<svg xmlns="http://www.w3.org/2000/svg" viewBox="0 0 128 128" style="enable-background:new 0 0 128 128" xml:space="preserve"><path style="fill:#94d1e0" d="M6.15 99.42c0-9.65 25.9-14.93 57.85-14.93s57.85 5.28 57.85 14.93C121.85 113 95.95 124 64 124S6.15 113 6.15 99.42z"/><path style="fill:#e63f33" d="M11.15 50.68v45.55h.03c.67 11.85 23.92 21.37 52.52 21.37s51.85-9.52 52.52-21.37h.03V50.68H11.15z"/><path style="fill:#bdbdbd" d="M23.43 75.64c10.89 4.54 25.19 7.04 40.27 7.04s29.42-2.41 40.27-7.04c9.75-4.16 10.74-6.92 12.28-8.51v-6.05c-2.85 3.78-7.66 7.17-14.23 9.9-10.29 4.29-23.9 6.65-38.33 6.65s-28.04-2.36-38.33-6.65c-6.56-2.74-11.37-6.12-14.23-9.9v7.37l5.05 3.56c2.18 1.31 4.59 2.52 7.25 3.63z"/><path style="fill:none;stroke:#94d1e0;stroke-width:4.0928;stroke-linecap:round;stroke-miterlimit:10" d="M43.15 76.8v40.49m41.1-40.49v40.49"/><path style="fill:#94d1e0" d="M42.01 106.05a4.33 4.33 0 0 1-2.24-1.91c-.85-1.53-.78-3.49-.81-5.45-.06-4.27 1.12-5.33 2.51-5.33h3.35c2.51 1.03 2.51 3.1 2.51 4.49v2.38c0 2.1.11 4.2-1.9 5.53-.19.13-1.75.9-3.42.29zm43.35 0c.9-.41 1.69-1.1 2.24-1.91 1.19-1.75.78-3.49.81-5.45.06-4.04-1.12-5.33-2.51-5.33h-3.35c-2.51 1.03-2.51 3.1-2.51 4.49v2.38c0 2.1.04 3.99 1.9 5.53.86.71 2.51.71 3.42.29zm34.97-22.96c-.1-4.71-.96-5.52-3.2-5.33V61.33l-3.3 2.04.24 39.24s3.05.94 3.05-2.35v-9.6c3.26-1.14 3.43-4.61 3.21-7.57zM13.49 62.86l-3.3-2.04v16.94c-2.24-.19-3.1.62-3.2 5.33 0 1.96-.33 3.7.7 5.45.59.98 1.44 1.81 2.5 2.12v9.21c0 3.29 3.05 2.35 3.05 2.35l.25-39.36z"/><path style="fill:#94d1e0" d="M119.16 52.5C117.53 33.25 82.8 27.82 63.7 27.88c-18.93-.16-55.29 5.69-55.44 25.46C-2.17 71.96 30.89 84.42 64 84.5c33.22.08 67.53-13.16 55.16-32z"/><ellipse style="fill:#ffcc80" cx="63.7" cy="52.69" rx="52.55" ry="21.9"/><ellipse style="fill:#fef6e0" cx="63.7" cy="54.72" rx="48.51" ry="20.21"/><path style="fill:#ffcc80" d="M53.91 67.08 18.96 43.86l5.52-2.67 31.06 23.6zm20.44 0 34.94-23.22-5.51-2.67-31.07 23.6z"/><path style="fill:#ba793e" d="M57.64 62.65c-1.41-1.91-3.7-2.34-3.99-2.87l-1.14-2.04c-.39-.7-.68-1.14-1-1.56L11.87 5.14a2.938 2.938 0 0 0-3.96-.64 2.93 2.93 0 0 0-.62 4.29L47.31 59.2c.53.66 1.13 1.26 1.8 1.77l1.68 1.29c.45.34.37 2.51 1.96 3.97 1.32 1.21 3.38 1.65 4.69.27 1.01-1.05 1.03-2.73.2-3.85zm13.19 0c1.41-1.91 3.7-2.34 3.99-2.87l1.14-2.04c.39-.7.68-1.14 1-1.56L116.6 5.14c.95-1.22 2.68-1.5 3.96-.64a2.93 2.93 0 0 1 .62 4.29L81.16 59.21c-.53.66-1.13 1.26-1.8 1.77l-1.68 1.29c-.45.34-.37 2.51-1.96 3.97-1.32 1.21-3.38 1.65-4.69.27-1.01-1.06-1.03-2.74-.2-3.86z"/><path style="fill:#fff" d="M19.05 72.24c-5.81-3.61-8.48-7.26-8.01-8.47.3-.77 1.41-.77 1.94-.14 5.25 6.18 16.01 10.53 23.78 11.97.81.15 1.43 1.66-.75 1.87-1.89.17-9.29-.46-16.96-5.23zm64.55 31.78c-.66.27-1.4-.53-1.71-1.58-.31-1.05-.49-4.71-.31-5.78.17-1.06.39-1.71 1.22-1.71s1.5.67 1.5 1.5c0 0-.1 4-.05 4.97.05.99.01 2.33-.65 2.6zm-41.15 0c-.66.27-1.4-.53-1.71-1.58s-.49-4.71-.31-5.78.39-1.71 1.22-1.71 1.5.67 1.5 1.5c0 0-.1 4-.05 4.97.05.99.01 2.33-.65 2.6z"/></svg>