<svg xmlns="http://www.w3.org/2000/svg" viewBox="0 0 128 128" style="enable-background:new 0 0 128 128" xml:space="preserve"><path style="fill:#464c4f" d="M89 105.16s-.01 3.76-.01 4.22 2.05 1.44 5.76 1.48 5.84-.9 5.84-1.23-.03-4.41-.03-4.41-2.69-2.61-5.12-2.67-6.44 2.61-6.44 2.61z"/><path style="fill:#606265" d="M25.87 3.13c-1.04.01-1.57.11-1.57 2.47s.22 74.85.22 75.64c0 .79.79 1.12 2.14 1.12h5.51c.9 0 1.24-.56 1.12-2.02s-.13-74.62-.13-75.52-.41-1.6-1.84-1.65c-1.17-.04-4.22-.05-5.45-.04z"/><path style="fill:#464c4f" d="M16.41 29.6s-.16-4.12 2.74-6.78c2.68-2.45 5.17-2.27 5.17-2.27l.02 4.08s1.52-.53 4.1-.42 4.7 1 4.7 1v-4.28s1.43-.06 3.58 2.47c1.08 1.27 1.97 3.91 2.26 5.29.38 1.77 1.03 2.6 2.74 2.72 1.71.12 3.02.11 4.07.07 1.51-.05-3.21-8.25-3.21-8.25s-5.27-7.96-6.99-8.01c-1.72-.05-12.37.22-13.39.75-1.02.54-7.69 5.22-7.69 5.22l-.91 7.26s2.53 2.96 2.53 2.74c.02-.19.28-1.59.28-1.59zm-5.11 0-5.02-3.95s-1.07 8.14 2.99 13.04c2.97 3.59 6.45 5.06 9.52 6.4 2.86 1.26 5.63 2.12 5.63 2.12l.01 4.81 8.78 4.67-.01-6.31s3.33 1.81 5 3.59c1.67 1.77 1.83 3.98 1.88 5.38.05 1.4-.65 3.6-.65 3.6l-.97 4.3 11.19-11.29-26.4-17.53L11.3 29.6z"/><path style="fill:#464c4f" d="M6.88 54.85S5.54 56 5.93 59.12c.36 2.9 1.99 7.42 6.88 11.4s11.7 4.74 11.7 4.74v3.32l8.74-.02-.01-3.3s5.22-.22 9.63-3.02c4.61-2.93 7.99-8.9 7.79-14.5-.07-1.97-1.32-1.66-1.32-1.66S33.3 69.99 32.23 70.1c-1.08.11-11.51-1.72-11.51-1.72l-9.73-10.59-4.11-2.94z"/><path style="fill:#606265" d="M10.98 53.69c-3.27.32-4.41.97-4.46 1.94-.05.97 2.8 17.87 22.69 17.59 19.09-.27 21.35-11.88 21.51-16.4.19-5.43-3.01-9.95-10.22-14.2-5.37-3.16-18.34-7.91-20.49-9.25-1.98-1.24-4.73-3.98-4.36-8.07.38-4.09 4.84-8.12 13.07-8.07 8.23.05 11.47 5.78 12.1 7.48 1.01 2.73.82 6.28 2.31 6.75.7.22 2.74.13 3.92-.03 1.18-.16 2.86-1.07 2.96-3.44.11-2.74-2.74-18.07-21.78-17.91-18.18.15-22.65 11.3-21.95 17.7.66 6.07 5.6 11.77 13.56 15s22.05 7.15 21.89 14.41c-.14 6.51-7.7 8.82-13.93 8.5-6.29-.32-9.73-3.98-11.02-8.28-1.23-4.13-3.59-3.93-5.8-3.72z"/><path style="fill:#9a9a9b" d="M14 55.75c-.67-1.25-5.15-1.06-5.73 1.06s1.47 5.41 2.85 5.12c1.88-.39.29-2.66 1.02-3.52.74-.87 2.69-1.11 1.86-2.66zm14.4-51.5c-1.31-.03-2.78-.05-2.85 1.72-.07 1.7.04 3.01.71 3.08.75.08 1.81-1.54 2.27-2.24.57-.89 1.28-2.52-.13-2.56zM18.35 14.62c-.5-.73-3.31-1.31-7.19 3.48s-2.45 7.33-1.56 7.44c1.21.15 1.88-.84 2.62-2.47 1.06-2.32 2.32-3.73 4.29-5.22 1.68-1.27 2.7-1.97 1.84-3.23z"/><path style="fill:#464c4f" d="M74.01 84.47v1.79c0 .6.51 1.09 1.73 1.14 1.22.05 38.59.1 38.81.08.38-.04.39-.49.39-.77.03-1.1.02-2.23.02-2.23L79.9 82.64l-5.89 1.83zm.01 10.24v2.86c.01.53.42.63 1.17.64h38.36c.54 0 .97-.31.99-.91.03-.82.01-2.59.01-2.59l-20.21-2.13-20.32 2.13z"/><path style="fill:#606265" d="M74 79.85h40.96v4.66H74zm.01 10.54h40.55v4.35H74.01z"/><path style="fill:#606265" d="m89 105.16.52-25.33S66.29 45.01 66.55 44.48c.27-.53 13.7-.28 14.37.12.67.4 13.91 21.31 14.49 21.3.6-.01 13.22-20.56 13.75-20.96.53-.4 14.29-.52 14.29.02s-22.98 34.93-22.98 34.93l.09 25.41s-3.52.23-5.78.23-5.78-.37-5.78-.37z"/><path style="fill:#9a9a9b" d="M79.13 46.83c.03.71-4.02 4.62-4.82 4.62-.8 0-2.83-2.73-3.27-4.32-.3-1.08 3.16-1.27 4.48-1.27 1.33.01 3.57.05 3.61.97zm31.42.25c-.43.26-4.17 4.49-2.52 5.81 1.17.94 3.52-1.35 5.32-2.15 1.8-.8 4.77-1.46 4.74-2.94-.04-1.82-5.97-1.68-7.54-.72z"/><path style="fill:#02ab47" d="M54.67 16.64c1.03 1.41 5.05-.66 8.44-1.16 3.39-.5 8.94-1.41 17.13 2.48s12.99 9.52 12.91 9.93c-.08.41-7.61 2.37-9.76 3.45-1.8.9-2.55 2.16-2.24 3.67.29 1.43 1.42 2.2 3.07 2.61 2.88.72 22.73 2.65 25.71-.17 3.74-3.53 2.79-22.18 2.56-24.38-.34-3.37-1.28-4.51-2.98-4.79-1.49-.25-2.98.41-3.89 2.67-1.03 2.54-2.8 8.99-3.3 8.99s-5.86-8.1-15.38-11.41-17.95-1.82-23 .08c-5.4 2.04-10.59 6.21-9.27 8.03zm-12.33 86.45c-.33.44 4.19 8.2 14.03 11.11s21.33-2.27 22.59.18c1.64 3.19-12.35 13.85-29.6 8.11-14.48-4.82-16.85-14.12-17.3-14.03s-3.98 4.67-4.92 5.74c-2.2 2.5-7.38 1-6.01-3.73 1.85-6.42 6.75-20.99 9.38-21.95 3.52-1.29 20.95 7.37 22.22 8.11 2.37 1.37 2.91 5.65-1.37 5.92-2.64.16-8.74.18-9.02.54z"/></svg>