<svg xmlns="http://www.w3.org/2000/svg" viewBox="0 0 128 128" style="enable-background:new 0 0 128 128" xml:space="preserve"><path style="fill:#bdbdbd" d="M100.87 15.07 87.94 27.95l10.11 10.11 13.03-13.04c3.64-3.64 7.98-6.12 12.92-7.22V4.67c-8.78.47-16.88 4.16-23.13 10.4z"/><path style="fill:#bdbdbd" d="M96.59 30.45c-14.37-14.37-37.92-14.13-52.07-.18l52.25 52.25c13.95-14.15 14.19-37.7-.18-52.07z"/><path style="fill:#78909c" d="M107.74 28.62c-.21-.79-1.84-3.67-4.07-5.83s-4.75-3.72-6.94-4.17c-4.35-.9-6.82 2.28-9.57 5.03 3.41 1.7 6.6 3.96 9.43 6.8 2.45 2.45 4.47 5.18 6.08 8.08-.13-.23 4.03-4.03 4.03-4.03 1.48-1.5 1.6-3.8 1.04-5.88z"/><path style="fill:#bdbdbd" d="M96.59 30.45c-14.37-14.37-37.92-14.13-52.07-.18l52.25 52.25c13.95-14.15 14.19-37.7-.18-52.07z"/><path style="fill:#9e9e9e" d="M83.74 41.83C67.75 27.39 53.9 23.61 53.9 23.61c-1.07.44-1.97.86-2.78 1.31 0 0 11.13 4.66 28.22 20.36s24 28.51 24 28.51c.53-1.08.99-2.28 1.45-3.7-.01 0-2.1-11.14-21.05-28.26z"/><path style="fill:#bdbdbd" d="M81.17 44.73c17.59 16.13 28.11 32.83 24.01 37.75-2.9 3.48-6.52 3.2-6.52 3.2-7.77-1.84-20.51-12.25-33.16-23.85-12.87-11.8-26.09-27.08-26.71-29.7 0 0-.79-2.69-.09-4.63.88-2.43 2.79-3.42 2.79-3.42 6.74-3.68 22.09 4.52 39.68 20.65z"/><ellipse transform="rotate(-47.48 69.275 57.34)" style="fill:#757575" cx="69.27" cy="57.34" rx="7.05" ry="41.25"/><path style="fill:#dfecf5" d="M68.13 22.25c-.97.39-1.85 1.25-1.9 2.29-.06 1.29 1.98 2.63 4.39 2.21 3.91-.69 7.16-.55 8.21-.37.56.1 2.62.1 2.62-1.19 0-1.32-2.05-2.19-2.58-2.4-3-1.19-7.52-1.82-10.74-.54zm-19.19 4.31c-.34 1.54 2.71 2.53 3.39 2.73 1.41.43 5.26 1.84 5.9 1.32.45-.37.53-1.44-3.52-3.7-3.21-1.8-5.44-1.81-5.77-.35z"/><radialGradient id="a" cx="79.276" cy="48.098" r="123.225" gradientTransform="matrix(-.7157 .6984 -.1115 -.1142 141.374 -1.776)" gradientUnits="userSpaceOnUse"><stop offset="0" style="stop-color:#4fc3f7"/><stop offset=".83" style="stop-color:#4fc3f7;stop-opacity:0"/></radialGradient><path style="fill:url(#a)" d="M6.71 120.14c-2.09-2.09-1.68-7.4.66-9.49l58.66-52.79a2.71 2.71 0 0 1 3.79 0 2.701 2.701 0 0 1 .04 3.82l-54.26 57.4c-2.47 2.6-6.8 3.16-8.89 1.06z"/><linearGradient id="b" gradientUnits="userSpaceOnUse" x1="69.927" y1="58.047" x2="22.517" y2="111.451"><stop offset="0" style="stop-color:#4fc3f7"/><stop offset=".83" style="stop-color:#4fc3f7;stop-opacity:0"/></linearGradient><path style="fill:url(#b)" d="M70.27 58.5c-31.63 27.37-54.62 58.91-55.28 61.14 0 0 .56-.52.59-.56l54.26-57.4c.86-.87.99-2.16.43-3.18z"/><radialGradient id="c" cx="61.263" cy="35.447" r="94.412" gradientTransform="matrix(-.7902 .6129 -.0978 -.1261 118.085 7.166)" gradientUnits="userSpaceOnUse"><stop offset="0" style="stop-color:#4fc3f7"/><stop offset=".83" style="stop-color:#4fc3f7;stop-opacity:0"/></radialGradient><path style="fill:url(#c)" d="m9.41 77.98 44.76-31.47c1.17-.9 2.84-.7 3.76.45.93 1.16.74 2.86-.42 3.8L13 87.76c-2.9 2.41-6.26 3.28-8.4-.51-2.19-3.85 2.21-7.44 4.81-9.27z"/><linearGradient id="d" gradientUnits="userSpaceOnUse" x1="53.324" y1="44.822" x2="14.231" y2="87.377" gradientTransform="rotate(6.88 23.825 79.01)"><stop offset="0" style="stop-color:#4fc3f7"/><stop offset=".83" style="stop-color:#4fc3f7;stop-opacity:0"/></linearGradient><path style="fill:url(#d)" d="M58.31 47.65c-.19-.04-34.81 23.68-46.16 40.8L57.5 50.76c.96-.76 1.24-2.03.81-3.11z"/><radialGradient id="e" cx="43.953" cy="24.996" r="70.073" gradientTransform="matrix(-.8551 .5185 -.0827 -.1365 93.478 13.157)" gradientUnits="userSpaceOnUse"><stop offset="0" style="stop-color:#4fc3f7"/><stop offset=".83" style="stop-color:#4fc3f7;stop-opacity:0"/></radialGradient><path style="fill:url(#e)" d="M5.09 62.38C3.09 58 7.7 55.9 7.7 55.9l35.55-19.75c1.25-.77 2.9-.4 3.69.85a2.7 2.7 0 0 1-.82 3.73L12.1 63.39s-4.84 3.75-7.01-1.01z"/><linearGradient id="f" gradientUnits="userSpaceOnUse" x1="38.337" y1="32.629" x2="9.822" y2="63.669" gradientTransform="rotate(12.933 15.624 72.315)"><stop offset="0" style="stop-color:#4fc3f7"/><stop offset=".83" style="stop-color:#4fc3f7;stop-opacity:0"/></linearGradient><path style="fill:url(#f)" d="M47.25 37.72c-.19-.06-18.51 9.7-36.37 26.41l35.23-23.4a2.71 2.71 0 0 0 1.14-3.01z"/><radialGradient id="g" cx="100.706" cy="64.392" r="97.119" gradientTransform="matrix(-.6174 .7867 .1255 .0985 141.612 -26.248)" gradientUnits="userSpaceOnUse"><stop offset="0" style="stop-color:#4fc3f7"/><stop offset=".83" style="stop-color:#4fc3f7;stop-opacity:0"/></radialGradient><path style="fill:url(#g)" d="m48.38 117.92 32.7-46.36c.9-1.17.69-2.9-.45-3.76-1.19-.9-2.86-.74-3.8.42L38.6 114.34c-2.41 2.9-3.28 6.26.51 8.4 3.85 2.18 7.44-2.22 9.27-4.82z"/><linearGradient id="h" gradientUnits="userSpaceOnUse" x1="95.906" y1="76.972" x2="56.6" y2="119.758" gradientTransform="rotate(-3.078 -13.274 321.193)"><stop offset="0" style="stop-color:#4fc3f7"/><stop offset=".83" style="stop-color:#4fc3f7;stop-opacity:0"/></linearGradient><path style="fill:url(#h)" d="M81.11 68.3c-.5.51-26.25 33.02-34.47 51.84l34.38-48.5c.8-.98.84-2.51.09-3.34z"/><radialGradient id="i" cx="87.278" cy="48.666" r="73.408" gradientTransform="matrix(-.5065 .8622 .1376 .0808 133.433 -8.723)" gradientUnits="userSpaceOnUse"><stop offset="0" style="stop-color:#4fc3f7"/><stop offset=".83" style="stop-color:#4fc3f7;stop-opacity:0"/></radialGradient><path style="fill:url(#i)" d="M64.89 122.83c4.37 2 6.48-2.61 6.48-2.61L92.3 81.38c.77-1.25-.09-3-.85-3.69-.82-.75-2.93-.44-3.73.82l-23.85 37.31c.01 0-3.74 4.84 1.02 7.01z"/><linearGradient id="j" gradientUnits="userSpaceOnUse" x1="84.048" y1="59.372" x2="53.924" y2="92.163" gradientTransform="rotate(-16.266 156.843 42.953)"><stop offset="0" style="stop-color:#4fc3f7"/><stop offset=".83" style="stop-color:#4fc3f7;stop-opacity:0"/></linearGradient><path style="fill:url(#j)" d="M91.71 77.92c-.19.04-13.16 19.47-20.59 42.77l20.83-38.64c1.13-1.51.57-3.31-.24-4.13z"/></svg>