<svg xmlns="http://www.w3.org/2000/svg" viewBox="0 0 128 128" style="enable-background:new 0 0 128 128" xml:space="preserve"><path style="fill:#e59600" d="M64 90.05h-9.08v9.98c0 4.51 3.7 8.17 8.26 8.17h1.65c4.56 0 8.26-3.66 8.26-8.17v-9.98H64z"/><linearGradient id="a" gradientUnits="userSpaceOnUse" x1="64" y1="34.226" x2="64" y2="-.193" gradientTransform="matrix(1 0 0 -1 0 130)"><stop offset="0" style="stop-color:#f44336"/><stop offset=".359" style="stop-color:#e73b32"/><stop offset="1" style="stop-color:#c62828"/></linearGradient><path style="fill:url(#a)" d="M64.14 95.97H64c-25.65.03-52 7.1-52 24.99v2.77h104v-2.77c0-16.86-26.1-24.99-51.86-24.99z"/><radialGradient id="b" cx="64.289" cy="115.214" r="6.373" gradientUnits="userSpaceOnUse"><stop offset=".539" style="stop-color:#f5f5f5"/><stop offset="1" style="stop-color:#bdbdbd"/></radialGradient><circle style="fill:url(#b)" cx="64" cy="116.21" r="5"/><radialGradient id="c" cx="64.094" cy="18.866" r="31.904" gradientTransform="matrix(1 0 0 -.8801 0 127.738)" gradientUnits="userSpaceOnUse"><stop offset=".769" style="stop-color:#f5f5f5"/><stop offset="1" style="stop-color:#e0e0e0"/></radialGradient><path style="fill:url(#c)" d="M81.58 89.12c-6.24 3.57-9.42 4.54-17.56 4.69h-.06c-8.13-.15-11.31-1.12-17.56-4.69-2.97-1.7-10.9 10.26-10.9 10.26s3.46 7.53 9 12.12c7.75 6.42 19.5-7.92 19.5-7.92s11.75 14.33 19.5 7.92c5.55-4.59 9-12.12 9-12.12s-7.93-11.96-10.92-10.26z"/><path style="fill:#edc391" d="M90.76 49.55H37.19c-5.78 0-10.5 5.17-10.5 11.5s4.73 11.5 10.5 11.5h53.56c5.78 0 10.5-5.18 10.5-11.5s-4.71-11.5-10.49-11.5z"/><path style="fill:#f9ddbd" d="M64.24 94.17c-17.2 0-33.13-11.35-33.13-35.4 0-19.33 13.49-30.75 25.23-34.44 2.8-.88 5.5-1.32 7.9-1.32 2.38 0 5.07.43 7.85 1.3 11.76 3.67 25.28 15.11 25.28 34.45 0 24.06-15.93 35.41-33.13 35.41z"/><path style="fill:#edbd82" d="M48.3 44.56c-.4 0-.77-.24-.93-.63-.2-.51.05-1.1.56-1.3.27-.11 6.76-2.63 15.8-2.63 9.02 0 15.98 2.52 16.27 2.62.52.19.78.76.59 1.28-.19.52-.76.78-1.28.6-.07-.03-6.93-2.5-15.58-2.5-8.66 0-15 2.47-15.06 2.49-.13.04-.25.07-.37.07zm26.84-6.05c-.1 0-.2-.01-.3-.05-.05-.02-5.13-1.6-10.86-1.6-5.73 0-10.81 1.58-10.86 1.6a.988.988 0 0 1-1.25-.65.999.999 0 0 1 .65-1.26c.22-.07 5.42-1.69 11.47-1.69 6.05 0 11.25 1.62 11.47 1.69.53.17.82.73.65 1.26-.15.43-.55.7-.97.7zm-28.59 41.3c-.26 0-.51-.1-.71-.29a.996.996 0 0 1 0-1.41L52.95 71a.996.996 0 1 1 1.41 1.41l-7.11 7.11a.96.96 0 0 1-.7.29zm34.85 0c-.26 0-.51-.1-.71-.29l-7.11-7.11A.996.996 0 1 1 74.99 71l7.11 7.11c.39.39.39 1.02 0 1.41-.19.2-.44.29-.7.29z"/><path style="fill:#9e9e9e" d="M54.98 50.09c-.92-1.22-3.05-2.99-7.18-2.99s-6.26 1.77-7.18 2.99c-.41.54-.3 1.16-.02 1.53.26.35 1.03.67 1.89.38s2.52-1.15 5.31-1.17c2.79.02 4.46.88 5.31 1.17s1.62-.03 1.89-.38c.28-.37.38-.99-.02-1.53zm32.55 0c-.92-1.22-3.05-2.99-7.18-2.99s-6.26 1.77-7.18 2.99c-.41.54-.3 1.16-.02 1.53.26.35 1.03.67 1.89.38.85-.29 2.52-1.15 5.31-1.17 2.79.02 4.46.88 5.31 1.17s1.62-.03 1.89-.38c.29-.37.39-.99-.02-1.53z"/><ellipse style="fill:#312d2d" cx="47.8" cy="59.07" rx="4.83" ry="5"/><ellipse style="fill:#312d2d" cx="80.36" cy="59.07" rx="4.83" ry="5"/><path style="fill:#dba689" d="M67.76 68.18c-.1-.04-.21-.07-.32-.08H60.5c-.11.01-.21.04-.31.08-.63.25-.97.91-.68 1.6s1.68 2.64 4.46 2.64 4.16-1.95 4.46-2.64c.3-.69-.04-1.34-.67-1.6z"/><path style="fill:#444" d="M72.21 75.95c-3.12 1.86-13.36 1.86-16.48 0-1.79-1.07-3.63.56-2.88 2.19.73 1.6 6.32 5.32 11.15 5.32s10.34-3.72 11.07-5.32c.74-1.63-1.07-3.26-2.86-2.19z"/><path style="fill:none;stroke:#eee;stroke-width:3;stroke-linecap:round;stroke-linejoin:round;stroke-miterlimit:10" d="m54.18 65.9.37-.14c.03-5.2 18.55-5.06 18.52.14h0"/><path style="fill:#bbdefb" d="M54.94 70.87H40.65c-1.41 0-2.55-1.14-2.55-2.55v-5.34c0-1.41 1.14-2.55 2.55-2.55h14.29c1.41 0 2.55 1.14 2.55 2.55v5.34c0 1.41-1.14 2.55-2.55 2.55zm32.56 0H73.21c-1.41 0-2.55-1.14-2.55-2.55v-5.34c0-1.41 1.14-2.55 2.55-2.55H87.5c1.41 0 2.55 1.14 2.55 2.55v5.34c0 1.41-1.14 2.55-2.55 2.55z"/><linearGradient id="d" gradientUnits="userSpaceOnUse" x1="64" y1="10.268" x2="64" y2="45.349"><stop offset="0" style="stop-color:#e0e0e0"/><stop offset="1" style="stop-color:#9e9e9e"/></linearGradient><path style="fill:url(#d)" d="M91.22 22.67C84.65 15.47 67.9 11.13 64 14.84c-3.9-3.71-20.65.63-27.22 7.83-7.31 8.01-11.17 24.69-8.34 36.42.26 1.08 2.76 1.08 2.95-.02 1.51-8.6 8.29-20.52 16.86-22.94 4.09-1.16 13-1.48 15.76-6.62 2.75 5.15 11.66 5.47 15.76 6.62 8.57 2.43 15.35 14.34 16.86 22.94.19 1.09 2.69 1.1 2.95.02 2.81-11.73-1.05-28.41-8.36-36.42z"/><radialGradient id="e" cx="63.459" cy="87.579" r="40.684" gradientTransform="matrix(1 0 0 -.8711 0 118.712)" gradientUnits="userSpaceOnUse"><stop offset=".363" style="stop-color:#c62828"/><stop offset="1" style="stop-color:#f24235"/></radialGradient><path style="fill:url(#e)" d="M64.64 4.16c-47.36 0-38.53 50.18-38.53 50.18s5.05-26.47 37.39-26.47 38.05 27.34 38.05 27.34S112 4.16 64.64 4.16z"/><radialGradient id="f" cx="64.118" cy="35.108" r="46.928" gradientTransform="matrix(1 0 0 1.0213 0 -.746)" gradientUnits="userSpaceOnUse"><stop offset=".777" style="stop-color:#f5f5f5"/><stop offset="1" style="stop-color:#e0e0e0"/></radialGradient><path style="fill:url(#f)" d="M95.68 38.71c-.2 0-.39.01-.58.02-1.03.06-1.8-.96-1.47-1.95.4-1.18.59-2.46.53-3.78-.23-5.14-4.3-9.43-9.43-9.9-2.64-.24-5.09.5-7.04 1.9-.94.67-2.25.14-2.38-1.01-.43-3.9-2.58-9.77-11.7-9.77s-11.27 5.87-11.7 9.77c-.13 1.15-1.45 1.68-2.38 1a10.363 10.363 0 0 0-7.43-1.86c-4.65.6-8.4 4.38-8.97 9.04-.2 1.61-.02 3.15.45 4.56.32.96-.35 1.96-1.36 1.97-1.25.01-2.57.28-3.94.94-3.43 1.65-5.73 5.12-5.67 8.92.13 8.23 8.49 15.04 8.49 15.04s.1-12.59 4.8-20.66c4.39-7.55 13.75-13.95 27.62-13.95 13.43 0 22.73 6.14 27.38 13.47 4.08 6.42 6.23 21.03 6.23 21.03s8.89-7.78 8.21-15.11c-.48-5.32-4.32-9.67-9.66-9.67z"/></svg>