<svg xmlns="http://www.w3.org/2000/svg" viewBox="0 0 128 128" style="enable-background:new 0 0 128 128" xml:space="preserve"><path style="fill:#ab872f" d="M84.89 62.87c-.6-1.16-.1-2.33 1.82-4.31 2.27-2.35 5.06-8.71 3.04-14.83-.25-.8-.6-1.59-1.03-2.37l-.1-.18-.14-.25-.49-.07c-.46-.07-3.17-.05-9.08.01-1.82.01-3.43.03-4.25.03H53.12c-.82 0-2.43-.02-4.25-.03-5.01-.05-7.72-.07-8.71-.03-.18 0-.3.01-.37.02l-.49.07-.24.43c-.16.3-.32.59-.45.89-3.05 6.55 0 13.77 2.46 16.31 1.92 1.98 2.42 3.15 1.82 4.3-.35.69-.87 1.1-1.53 1.23l-1.45.28.8 1.24c.27.43.63.77 1.02 1 1.12.67 2.51.85 3.48.87.04 0 .15.05.42.35 3.7 4.11 6.43 4.83 18.27 4.83s14.57-.72 18.27-4.83c.21-.23.35-.35.43-.35.95-.02 2.33-.2 3.47-.87.41-.25.76-.6 1.02-1l.79-1.23-1.43-.29c-.71-.14-1.21-.53-1.56-1.22z"/><radialGradient id="a" cx="101.782" cy="62.129" r="13.686" gradientTransform="matrix(-1.0016 -.1091 -.0186 .6473 154.498 33.288)" gradientUnits="userSpaceOnUse"><stop offset=".728" style="stop-color:#bfa055;stop-opacity:0"/><stop offset="1" style="stop-color:#bfa055"/></radialGradient><path style="fill:url(#a)" d="m58.62 72.57 5.42-7.11-17.22-.44-1.15 2.87s1.27 1.31 1.95 1.87c1.13.93 3.16 2.34 8.14 2.67l2.86.14z"/><radialGradient id="b" cx="91.996" cy="62.66" r="3.969" gradientTransform="matrix(.9057 .5612 .3144 -.8897 -60.917 66.213)" gradientUnits="userSpaceOnUse"><stop offset=".303" style="stop-color:#bfa055"/><stop offset="1" style="stop-color:#bfa055;stop-opacity:0"/></radialGradient><path style="fill:url(#b)" d="M46.23 65.05c3.72-6.64-5.81-7.18-5.87-7.34.28.31.46.59.72.85 1.43 1.45 2.1 2.61 2.07 3.21-.11 1.79-1.26 2.29-2.28 2.41-.54.07-.94.18-.94.18s3.67 4.07 6.3.69z"/><radialGradient id="c" cx="98.003" cy="70.27" r="13.762" gradientTransform="matrix(.0746 -1.3204 -.8311 -.0824 99.203 187.215)" gradientUnits="userSpaceOnUse"><stop offset=".725" style="stop-color:#bfa055;stop-opacity:0"/><stop offset="1" style="stop-color:#bfa055"/></radialGradient><path style="fill:url(#c)" d="M40.19 57.4c.35.48 10.49-4.6 12.2-10.81.35-1.25.66-2.54.7-3.88.03-1-.09-2.19-.52-3.04-.53-1.04-11.85-.67-11.85-.67-5.18 5.94-3.62 14.17-.53 18.4z"/><radialGradient id="d" cx="104.002" cy="61.996" r="13.686" gradientTransform="matrix(1.0016 -.1091 .0186 .6473 -28.946 33.616)" gradientUnits="userSpaceOnUse"><stop offset=".728" style="stop-color:#bfa055;stop-opacity:0"/><stop offset="1" style="stop-color:#bfa055"/></radialGradient><path style="fill:url(#d)" d="m69.16 72.57-5.42-7.11 17.22-.44 1.15 2.87s-1.27 1.31-1.95 1.87c-1.13.93-3.16 2.34-8.14 2.67l-2.86.14z"/><radialGradient id="e" cx="94.206" cy="62.653" r="3.969" gradientTransform="matrix(-.9057 .5612 -.3144 -.8897 190.706 64.976)" gradientUnits="userSpaceOnUse"><stop offset=".303" style="stop-color:#bfa055"/><stop offset="1" style="stop-color:#bfa055;stop-opacity:0"/></radialGradient><path style="fill:url(#e)" d="M81.56 65.06c-3.72-6.64 5.82-7.18 5.87-7.34-.28.31-.46.59-.71.85-1.43 1.45-2.11 2.61-2.07 3.21.11 1.79 1.26 2.29 2.29 2.41.54.07.94.18.94.18s-3.69 4.07-6.32.69z"/><radialGradient id="f" cx="100.213" cy="70.27" r="13.762" gradientTransform="matrix(-.0746 -1.3204 .8311 -.0824 28.753 190.133)" gradientUnits="userSpaceOnUse"><stop offset=".725" style="stop-color:#bfa055;stop-opacity:0"/><stop offset="1" style="stop-color:#bfa055"/></radialGradient><path style="fill:url(#f)" d="M87.6 57.4c-.35.48-10.5-4.6-12.2-10.81-.35-1.25-.66-2.54-.7-3.88-.03-1 .09-2.19.52-3.04.53-1.04 11.85-.67 11.85-.67 5.18 5.94 3.62 14.17.53 18.4z"/><linearGradient id="g" gradientUnits="userSpaceOnUse" x1="65.907" y1="54.435" x2="65.907" y2="15.703" gradientTransform="matrix(1 0 0 -1 0 128)"><stop offset=".001" style="stop-color:#ff7507"/><stop offset=".388" style="stop-color:#fd6806"/><stop offset="1" style="stop-color:#f94b04"/></linearGradient><path style="fill:url(#g)" d="M114.41 89.14c-.06.14-.13.3-.21.47-1.84 4.26-6.73 16.14-8.98 19.6-1.69 2.59-4.5 3.59-7.24 3.59s-5.39-1.01-6.75-2.43c-2.88-3.01-4.73-5.32-4.73-5.32v18.45H40.93l.06-11.82.06-10.38s-4.03 1.09-8.69 2.21a7.9 7.9 0 0 1-1.87.22c-4.42 0-8.92-3.53-10.13-8.59-2.04-8.54-3.02-18.39-3.02-18.39 0-.12 0-.23.01-.34 0-.31.03-.56.06-.78.05-.32.13-.55.23-.73.33-.59.91-.53 1.6-.74l4.83-1.12c.46-.14.93-.37 1.39-.37.45 0 .9.22 1.32.96.12.21.24.46.35.76.02.04.03.08.05.12l.22.68 3.92 12.35L37.64 82c2.16-1.62 4.22-3.77 8.24-5.48.02-.01.05-.02.08-.03.09-.03.18-.07.27-.11.37-.15.77-.3 1.18-.44.19-.06.38-.13.58-.19 1.14-.37 2.41-.7 3.85-.98 1.82-.36 3.91-.63 6.32-.8l.49-.03c.16-.01.32-.02.49-.02 1.38-.08 2.85-.12 4.44-.12h.26c1.43 0 2.78.04 4.06.1l.5.03c.18.01.35.02.52.04 2.43.17 4.58.46 6.5.87.03.01.05.01.08.02l1.13.26c.39.09.77.19 1.14.3 1.25.36 2.39.78 3.42 1.24.07.03.14.06.2.09.03.01.05.03.08.04 4.99 2.31 7.7 5.8 10.04 9.81 3.22 5.51 5.03 9.01 5.03 9.01l5.74-8.66.35-.53c.05-.05.12-.1.21-.15.18-.1.42-.19.71-.28.97-.28 2.41-.47 3.31-.47.26 0 .48.02.62.05l5.38 1.5c.43.11.95.48 1.28.92.16.22.27.45.31.67.04.17.03.33-.04.48z"/><path style="fill:#c48e6a" d="M58.36 69.88v5.91c0 .07 0 .14.01.21.02.61.16 1.2.4 1.73.12.27.27.53.44.78.32.47.73.89 1.2 1.21a4.174 4.174 0 0 0 .86.49c.38.18.8.3 1.23.36.24.04.5.06.75.06h.98c.28 0 .56-.02.83-.07.44-.07.85-.2 1.24-.39l.01-.01h.01c.27-.12.52-.27.76-.45.46-.32.87-.73 1.19-1.19.17-.25.31-.5.44-.78.23-.54.38-1.13.4-1.75.01-.06.01-.13.01-.2v-5.91H58.36z"/><path style="fill:#212121" d="M65.04 77.76c1.21-.83 2.35-1.43 3.5-2.17.93-.59 2.5-1.69 3.97-1.13 1.25.48.8 2.18.8 4.41 0 2.62.44 4.14-.55 4.58-1.33.59-3.09-.45-4.55-1.09-.83-.36-3.21-1.45-3.61-2.08-.41-.63-.39-2.11.44-2.52z"/><ellipse transform="rotate(-11.678 68.2 78.149)" style="fill:#616161" cx="68.2" cy="78.15" rx="3.07" ry=".34"/><ellipse transform="rotate(-81.807 68.2 80.205)" style="fill:#616161" cx="68.2" cy="80.21" rx=".34" ry="3.06"/><path style="fill:#212121" d="M62.12 77.76c-1.21-.83-2.35-1.43-3.5-2.17-.93-.59-2.5-1.69-3.97-1.13-1.25.48-.8 2.18-.8 4.41 0 2.62-.44 4.14.55 4.58 1.33.59 3.09-.45 4.55-1.09.83-.36 3.22-1.45 3.62-2.08s.38-2.11-.45-2.52z"/><ellipse transform="rotate(-78.323 58.962 78.158)" style="fill:#616161" cx="58.96" cy="78.16" rx=".34" ry="3.07"/><ellipse transform="rotate(-8.19 58.965 80.208)" style="fill:#616161" cx="58.96" cy="80.21" rx="3.06" ry=".34"/><path style="fill:#212121" d="M66.24 79.34c0 1.52-1.19 2.39-2.66 2.39s-2.66-.87-2.66-2.39.67-2.74 2.66-2.74c1.92 0 2.66 1.23 2.66 2.74z"/><path style="fill:#dbdbdb" d="M21.52 76.4c-3.09 0-6.14-1.3-8.36-3.57-1.84-1.88-2.88-4.44-3.08-7.61-.06-1-.13-4.37 1.6-5.47.36-.23.74-.34 1.13-.34.49 0 .91.18 1.24.41.46-.97 1.27-1.92 2.53-1.92.09 0 .19 0 .29.02.63.07 1.1.29 1.42.51.34-.25.82-.48 1.41-.48h.13c1.01.06 1.53.53 1.79.92.26.38.35.82.36 1.22.26-.14.59-.25.98-.25.33 0 .66.08.99.24 1.54.75 1.28 2.13 1.1 3.04-.04.23-.09.47-.11.7-.15 1.64.61 2.95.78 3.21.17.17.34.33.5.49 1.41 1.36 2.62 2.53 1.79 5.36-.61 2.1-3.23 3.52-6.49 3.52z"/><path style="fill:#999898" d="M21.75 60.43c-.01 1.31-.27 2.47-.3 3.66-.03 1.17.16 2.34.74 3.29v.01c.13.21.06.49-.15.62-.2.12-.46.07-.59-.11-.86-1.12-1.05-2.56-.97-3.85.03-.65.15-1.3.36-1.91.19-.62.47-1.21.91-1.71zm-3.49-1.6c-.21.81-.39 1.56-.52 2.32-.11.76-.17 1.52-.16 2.29.04 1.53.42 3.04 1.04 4.45.1.23 0 .5-.23.6-.22.1-.47.01-.58-.2-.8-1.47-1.21-3.16-1.21-4.84-.01-.84.1-1.69.37-2.49.26-.8.68-1.56 1.29-2.13zm-3.67.65c-.24 1.6-.48 3.05-.43 4.56.06 1.49.42 2.97 1.19 4.21v.01c.13.21.06.49-.15.62-.2.12-.46.07-.6-.12-1.01-1.37-1.4-3.07-1.42-4.7-.01-.82.08-1.64.31-2.42.21-.79.56-1.55 1.1-2.16z"/><path style="fill:#dbdbdb" d="M109.37 89.87c-3.27 0-5.88-1.42-6.51-3.54-.83-2.83.38-4 1.79-5.36.16-.16.33-.32.5-.49.16-.25.92-1.57.78-3.2-.02-.23-.07-.47-.11-.7-.18-.92-.44-2.3 1.1-3.04.33-.16.66-.24.99-.24.39 0 .72.11.98.25.01-.4.1-.83.36-1.22.26-.38.77-.85 1.79-.92h.13c.59 0 1.07.23 1.41.48.33-.23.79-.44 1.42-.51.1-.01.2-.02.29-.02 1.26 0 2.07.95 2.53 1.92.34-.23.76-.41 1.24-.41.39 0 .77.12 1.13.34 1.73 1.1 1.67 4.46 1.6 5.47-.2 3.17-1.23 5.73-3.08 7.61-2.2 2.28-5.25 3.58-8.34 3.58z"/><path style="fill:#999898" d="M109.14 73.9c.44.5.72 1.09.92 1.7.21.61.32 1.26.36 1.91.08 1.29-.12 2.72-.97 3.85a.45.45 0 0 1-.64.08.452.452 0 0 1-.11-.59l.01-.01c.57-.95.77-2.11.74-3.29-.04-1.18-.3-2.34-.31-3.65zm3.49-1.61c.61.57 1.03 1.33 1.29 2.13.27.8.38 1.65.37 2.49 0 1.68-.41 3.37-1.21 4.84-.12.22-.39.3-.61.18a.456.456 0 0 1-.2-.58c.62-1.41 1-2.92 1.04-4.45.01-.76-.04-1.53-.16-2.29-.13-.76-.31-1.51-.52-2.32zm3.67.66c.54.61.89 1.37 1.11 2.15.23.78.32 1.61.31 2.43-.02 1.63-.41 3.33-1.42 4.7a.454.454 0 0 1-.75-.51v-.01c.76-1.24 1.13-2.71 1.19-4.21.05-1.5-.2-2.96-.44-4.55z"/><path style="fill:#c48e6a" d="M46.92 57.55c-3.41 0-6.19-2.98-6.19-6.63s2.78-6.63 6.19-6.63h34.17c3.41 0 6.19 2.98 6.19 6.63s-2.78 6.63-6.19 6.63H46.92z"/><path style="fill:#e0bb95" d="M84.73 46.47c0-.23-.01-.46-.02-.69-.01-.22-.02-.44-.04-.66-.06-1.08-.17-2.13-.32-3.15 0-.05-.01-.09-.02-.14-.1-.71-.23-1.41-.37-2.09 0-.01-.01-.03-.01-.04-.18-.85-.38-1.68-.62-2.48-.53-1.87-1.22-3.62-2.02-5.24A24.05 24.05 0 0 0 79.6 29c.01-.01 0-.02-.02-.03-3.9-5.96-9.62-9.48-15.58-9.48-5.97 0-11.7 3.54-15.62 9.53-.01.01-.01.01-.01.02-.63.96-1.21 1.97-1.73 3.05-.78 1.58-1.44 3.29-1.96 5.11-.24.79-.44 1.61-.61 2.44-.01.01-.01.03-.01.04-.15.7-.28 1.42-.39 2.15-.01.04-.01.07-.01.11-.16 1.04-.27 2.1-.33 3.19-.02.21-.03.43-.04.65-.01.23-.02.46-.02.7-.01.37-.02.74-.02 1.11 0 3.19.38 6.07 1.09 8.63.05.23.11.44.18.66.06.22.13.43.2.64 2.42 7.44 7.57 12.04 13.44 13.85.16.05.32.09.49.13.11.04.23.07.34.1.01 0 .01.01.02 0 .05.02.09.03.13.04 1.59.4 3.22.6 4.86.6 1.31 0 2.62-.13 3.9-.38.17-.04.33-.07.5-.11s.35-.08.52-.13c.04 0 .08-.01.12-.03 6.2-1.61 11.71-6.29 14.24-14.07.07-.21.14-.42.2-.64.07-.21.13-.43.18-.65.7-2.56 1.09-5.45 1.09-8.64 0-.38-.01-.75-.02-1.12z"/><path style="fill:#ab872f" d="M57.86 44.42c-.57-.75-1.88-1.85-4.43-1.85s-3.86 1.1-4.43 1.85c-.25.33-.19.72-.01.95.16.22.64.42 1.16.24.53-.18 1.56-.71 3.28-.73 1.72.01 2.75.55 3.28.73s1-.02 1.16-.24c.18-.23.24-.62-.01-.95zm20.69 0c-.57-.75-1.88-1.85-4.43-1.85s-3.86 1.1-4.43 1.85c-.25.33-.19.72-.01.95.16.22.64.42 1.16.24.53-.18 1.56-.71 3.28-.73 1.72.01 2.75.55 3.28.73s1-.02 1.16-.24c.18-.23.24-.62-.01-.95z"/><ellipse style="fill:#5d4037" cx="53.82" cy="49.04" rx="3.05" ry="3.16"/><ellipse style="fill:#5d4037" cx="74.18" cy="49.04" rx="3.05" ry="3.16"/><path style="fill:#c48e6a" d="M66.39 54.77a.734.734 0 0 0-.2-.05h-4.38c-.07.01-.13.02-.2.05-.4.16-.62.57-.43 1.01s1.06 1.67 2.82 1.67c1.76 0 2.63-1.23 2.82-1.67s-.03-.85-.43-1.01z"/><path style="fill:#6d4c41" d="M69.21 59.77c-1.97 1.17-8.44 1.17-10.41 0-1.13-.67-2.29.36-1.82 1.39.46 1.01 3.99 3.36 7.04 3.36s6.53-2.35 6.99-3.36c.48-1.03-.66-2.06-1.8-1.39z"/><path style="fill:#ab872f" d="M89.75 34.61c-2.11-4.83-51.21 2.51-51.4 3.24-.33 1.19-.36 2.59.16 4.15.03.08.08.17.09.25.42 3.63 4.07 3.3 4.07 3.3-.38 6.57 1.69 9.75 1.69 9.75s2.57-11.28 2.33-13c0 0 1.96-.39 4.79-1.48 1.57-.61 28.23-3.2 28.94-2.21.71 1 1.33 2.36 1.73 4.21.72 3.29 1.02 8.79 1.41 12.13-.03-.29 2.23-4.12 2.61-7.79.07-.71 2.34-.45 3.24-2.7.12-.25.23-.5.33-.73.52-1.16.86-2.08 1.06-2.87.7-2.73-1.05-6.25-1.05-6.25z"/><radialGradient id="h" cx="23.095" cy="41.392" r="8.118" gradientTransform="translate(0 2)" gradientUnits="userSpaceOnUse"><stop offset=".008" style="stop-color:#ff3d00"/><stop offset=".999" style="stop-color:#dd2c00"/></radialGradient><circle style="fill:url(#h)" cx="24.61" cy="45.74" r="8.12"/><circle style="fill:#fff" cx="22.19" cy="43.16" r="2.43"/><radialGradient id="i" cx="103.84" cy="50.966" r="8.118" gradientTransform="translate(0 2)" gradientUnits="userSpaceOnUse"><stop offset=".009" style="stop-color:#00b0ff"/><stop offset=".999" style="stop-color:#0091ea"/></radialGradient><circle style="fill:url(#i)" cx="105.77" cy="55.59" r="8.12"/><circle style="fill:#fff" cx="103.35" cy="53.01" r="2.43"/><path style="fill:#212121" d="M36.17 33.3c0-3.08 12.48-3.79 27.85-3.79s27.83.71 27.83 3.79-12.46 6.26-27.84 6.26-27.84-3.17-27.84-6.26z"/><radialGradient id="j" cx="64.047" cy="114.112" r="32.614" gradientTransform="matrix(-1 0 0 .6829 128.094 -64.04)" gradientUnits="userSpaceOnUse"><stop offset="0" style="stop-color:#787676"/><stop offset=".861" style="stop-color:#3f3f3f"/></radialGradient><path style="fill:url(#j)" d="M84.07 28.49c-.45-7.39-2.98-11.94-11-15.41-2.91-1.26-6.23-1.82-9.27-1.87h-.06c-3.04.05-6.36.61-9.27 1.87-8.02 3.47-10.55 8.02-11 15.41l-.7 11.65h41.99l-.69-11.65z"/><path style="fill:#595858" d="M90.84 31.21c-1.49-.7-5.51-1.01-6.82-.92 0 0 6.19 1.5 5.89 2.57-.45 1.6-6.31 4.15-26.14 4.21-19.83-.07-25.69-2.62-26.14-4.21-.3-1.07 5.89-2.57 5.89-2.57-1.31-.1-5.32.22-6.82.92-1.27.59-2.12.99-2.12 2.6 0 4.26 5.59 5.68 7.36 6.26 6.03 1.97 21.8 2.49 21.8 2.49.01 0 15.81-.52 21.85-2.49 1.77-.58 7.36-2 7.36-6.26.01-1.62-.84-2.01-2.11-2.6z"/><path style="fill:#7c7c7c" d="M86.55 111.68v11.82H40.93v-11.82h4.95V76.52c.02-.01.05-.02.08-.03.09-.03.18-.07.27-.11.37-.15.77-.3 1.18-.44.19-.06.38-.13.58-.19 1.14-.37 2.41-.7 3.85-.98v36.91h23.58V74.84c.03.01.05.01.08.02l1.13.26c.39.09.77.19 1.14.3 1.25.36 2.39.78 3.42 1.24.07.03.14.06.2.09v34.93h5.16z"/><radialGradient id="k" cx="76.911" cy="7.362" r="8.118" gradientTransform="translate(0 2)" gradientUnits="userSpaceOnUse"><stop offset=".014" style="stop-color:#00e676"/><stop offset="1" style="stop-color:#00c853"/></radialGradient><circle style="fill:url(#k)" cx="78.7" cy="12.12" r="8.12"/><circle style="fill:#fff" cx="76.28" cy="9.55" r="2.43"/></svg>