<svg xmlns="http://www.w3.org/2000/svg" viewBox="0 0 128 128" style="enable-background:new 0 0 128 128" xml:space="preserve"><path style="fill:#d69640" d="M97.76 43.74c-1.17.19-92.58 16.76-92.78 20.85-.19 4.09.02 13.16 1.17 15.98 2.53 6.24 7.21 12.47 11.69 18.52s9.55 13.45 14.81 16.57c5.26 3.12 16.57 10.72 38.59 7.8 22.02-2.92 40.54-21.83 43.85-27.68 3.31-5.85 5.07-12.67 5.46-14.62.39-1.95 2.92-15.01 3.51-17.93.58-2.92 1.17-11.69.19-15.4-.96-3.7-26.49-4.09-26.49-4.09z"/><radialGradient id="a" cx="65.45" cy="60.653" r="61.553" gradientUnits="userSpaceOnUse"><stop offset="0" style="stop-color:#ffeacd"/><stop offset=".441" style="stop-color:#ffe9cb"/><stop offset=".6" style="stop-color:#ffe6c4"/><stop offset=".714" style="stop-color:#ffe1b9"/><stop offset=".805" style="stop-color:#ffdaa8"/><stop offset=".883" style="stop-color:#ffd092"/><stop offset=".951" style="stop-color:#ffc577"/><stop offset=".961" style="stop-color:#ffc373"/></radialGradient><path style="fill:url(#a)" d="M31.81 12.76c-7.48 6.31-13.23 14.76-16.48 19.03S4.02 46.15 4.4 58.19c.38 12.04 2.3 17.67 4.79 22.33 2.49 4.66 7.67 12.62 12.08 18.06s7.58 8.96 17.06 13.78c6.51 3.32 15.32 4.87 24.71 4.7 8.84-.16 16.98-1.63 22.35-4.15s16.33-8.77 20.96-13.84c4.15-4.55 6.53-7.12 10.09-13.25 1.85-3.18 3.33-14.47 4.75-18.39 4.35-12.06 3.76-22.94.79-29.07-1.52-3.15-7.22-11.51-10.28-13.84s-6.84-6.18-10.48-8.9-9.61-10.14-19-11.89-16.48.49-18.4.87c-1.92.39-16.29.97-20.89 2.53s-8.82 3.69-11.12 5.63z"/><radialGradient id="b" cx="26.582" cy="16.466" r="30.758" gradientTransform="matrix(.9581 0 0 .9317 1.079 3.737)" gradientUnits="userSpaceOnUse"><stop offset="0" style="stop-color:#82614e"/><stop offset=".203" style="stop-color:#93725c"/><stop offset=".728" style="stop-color:#bc987b"/><stop offset="1" style="stop-color:#cba787"/></radialGradient><path style="fill:url(#b)" d="M25.78 54.66c-.25-.15 4.72-6.89 8.16-11s16.03-16.35 19.97-19.51 8.16-6.03 8.56-5.55c.39.48-3.84 5.93-10.23 12.43S41.23 42.42 34.83 48.06c-4.39 3.88-8.55 6.89-9.05 6.6z"/><radialGradient id="c" cx="63.39" cy="54.236" r="24.638" gradientUnits="userSpaceOnUse"><stop offset="0" style="stop-color:#82614e"/><stop offset=".357" style="stop-color:#9c7a63"/><stop offset=".891" style="stop-color:#cba787"/></radialGradient><path style="fill:url(#c)" d="M52.27 46.14c-8.91 9.03-21.75 24.7-21.18 25.16 1.2.96 12.11-7.65 26.16-22.28s21.02-23.31 19.76-24.1-16.28 12.65-24.74 21.22z"/><radialGradient id="d" cx="66.152" cy="58.977" r="39.601" gradientUnits="userSpaceOnUse"><stop offset="0" style="stop-color:#82614e"/><stop offset=".21" style="stop-color:#876652"/><stop offset=".47" style="stop-color:#96755e"/><stop offset=".754" style="stop-color:#af8d71"/><stop offset="1" style="stop-color:#cba787"/></radialGradient><path style="fill:url(#d)" d="M63.22 57.23c-6.26 6.49-10.52 10.52-14.79 15.21-7.17 7.89-11.17 13.02-10.48 14.28.29.54 5.31-2.88 14.46-11.29 4.19-3.85 9.57-9.46 15.35-15.1 5.72-5.58 9.99-10.15 13.25-13.94 6.61-7.67 8.76-11.77 8.23-12-.5-.21-5.36 3.12-11.66 9.04-4.69 4.42-10.81 10.12-14.36 13.8z"/><radialGradient id="e" cx="82.53" cy="77.483" r="33.472" gradientUnits="userSpaceOnUse"><stop offset="0" style="stop-color:#82614e"/><stop offset=".138" style="stop-color:#906f59"/><stop offset=".495" style="stop-color:#b08d72"/><stop offset=".795" style="stop-color:#c4a081"/><stop offset="1" style="stop-color:#cba787"/></radialGradient><path style="fill:url(#e)" d="M72.6 68.46c-6.71 7.66-21.75 24.2-20.03 25.57 1.71 1.37 20.79-18.62 26.16-24.45s19.65-22.16 18.85-22.96c-.8-.8-16.06 11.68-24.98 21.84z"/><radialGradient id="f" cx="100.566" cy="93.295" r="24.434" gradientUnits="userSpaceOnUse"><stop offset="0" style="stop-color:#82614e"/><stop offset=".203" style="stop-color:#93725c"/><stop offset=".728" style="stop-color:#bc987b"/><stop offset="1" style="stop-color:#cba787"/></radialGradient><path style="fill:url(#f)" d="M84.33 78.38c7.26-8.05 18.28-17.48 19.31-16.45 1.03 1.03-8.83 12.54-14.74 19.08-6.4 7.08-17.94 17.48-18.62 16.68-1.05-1.23 7.77-12.34 14.05-19.31z"/></svg>