<svg xmlns="http://www.w3.org/2000/svg" viewBox="0 0 128 128" style="enable-background:new 0 0 128 128" xml:space="preserve"><path style="fill:#1565c0" d="M119.65 102.09H8.35c-2.4 0-4.35-1.95-4.35-4.35V30.28c0-2.41 1.95-4.37 4.37-4.37h111.27c2.41 0 4.37 1.95 4.37 4.37v67.46a4.368 4.368 0 0 1-4.36 4.35z"/><path style="fill:#29b6f6" d="M119.78 89.91H8.22A4.22 4.22 0 0 1 4 85.69V30.28c0-2.41 1.95-4.37 4.37-4.37h111.27c2.41 0 4.37 1.95 4.37 4.37v55.41a4.236 4.236 0 0 1-4.23 4.22z"/><circle style="opacity:.5;fill:#1565c0" cx="84.78" cy="57.91" r="18.5"/><path style="fill:#1565c0" d="M106.45 33.1c.86 5.4 5.14 9.68 10.54 10.54v28.54c-5.4.86-9.68 5.14-10.54 10.54H21.42c-1.1-5.11-5.26-9.05-10.42-9.87V44.31c5.63-.89 10.03-5.49 10.63-11.21h84.82m1.84-2h-88.6c.01.22.02.44.02.67 0 5.91-4.79 10.7-10.7 10.7V74.7c5.68 0 10.33 4.43 10.68 10.03h88.61c0-5.91 4.79-10.7 10.7-10.7V41.8c-5.92 0-10.71-4.79-10.71-10.7z"/><path style="fill:#ffecb3" d="M53 25.91h22.01v76.18H53z"/><path style="fill:#ffc06c" d="M53 89.91h22.01v12.18H53z"/><path style="fill:#fff" d="M42 62.42h-7.99c-.27 0-.5.24-.49.51.13 2.81.87 5 2.2 6.56 1.42 1.65 3.42 2.47 6.02 2.47 1.45 0 2.83-.17 4.14-.51.54-.14 1.07.25 1.14.8l.23 1.85c.06.48-.25.94-.73 1.04-1.61.35-3.22.52-4.83.52-3.9 0-6.98-1.15-9.22-3.46-2.16-2.22-3.32-5.33-3.49-9.32a.476.476 0 0 0-.48-.46h-3.17a.58.58 0 0 1-.58-.58v-1.78c0-.32.26-.58.58-.58h3.15c.27 0 .48-.22.48-.48v-2.27a.48.48 0 0 0-.48-.48h-3.15a.58.58 0 0 1-.58-.58v-1.8c0-.32.26-.58.58-.58h3.17c.25 0 .46-.2.47-.46.23-3.9 1.42-6.94 3.58-9.12 2.24-2.26 5.28-3.39 9.1-3.39 1.44 0 3.06.18 4.84.54.48.1.8.56.74 1.04L47 43.73c-.07.57-.62.97-1.17.82a16.79 16.79 0 0 0-4.14-.53c-2.58 0-4.57.8-5.96 2.4-1.31 1.51-2.05 3.62-2.21 6.34-.02.28.21.52.49.52H42c.32 0 .58.26.58.58v1.8c0 .32-.26.58-.58.58h-8.01a.48.48 0 0 0-.48.48v2.27c0 .27.22.48.48.48H42c.32 0 .58.26.58.58v1.78c0 .33-.26.59-.58.59z"/></svg>