<svg xmlns="http://www.w3.org/2000/svg" viewBox="0 0 1000 1000"><path fill="#cf142b" d="M8 195.25c170.83-85.22 341.03-54.42 513.26-27.97 155.21 23.84 312.16 44.57 470.74-34.53v672c-170.83 85.22-341.03 54.42-513.26 27.97C323.53 808.88 166.58 788.15 8 867.25v-672"/><path fill="#fff" d="M8 195.25C170.66 114.1 332.46 138.06 500 164v672c-161.81-25.05-325.35-51.88-492 31.25v-672"/><path fill="#e60d2e" d="M32.3 276.64v50.91c16.41-7.15 32.8-13.32 49.69-18.71.33 8.65 8.02 14.09 16.57 12.01v50.91c16.41-4.6 32.8-8.35 49.69-11.41v-50.91c8.49-1.85 16.25-10.95 16.57-19.69 16.4-2.43 32.8-4.16 49.7-5.28v-50.91c-16.4 1.09-32.8 2.77-49.7 5.28-.32-8.71-8.02-15.44-16.57-14.25v-50.9c-16.4 2.96-32.79 6.67-49.69 11.4V236c-8.47 2.72-16.24 13.15-16.57 21.93a514.67 514.67 0 0 0-49.69 18.71"/><path fill="#96877d" d="M35.61 278.6v44.12a513.89 513.89 0 0 1 49.7-18.31c.32 8.65 8.01 14.14 16.56 12.12v50.91c14.22-3.88 28.43-7.13 43.07-9.88v-50.9c8.49-1.91 16.24-11.06 16.57-19.8 16.4-2.53 32.79-4.35 49.69-5.56v-44.13c-16.4 1.18-32.79 2.96-49.69 5.57-.33-8.71-8.02-15.4-16.57-14.15v-50.9c-14.21 2.66-28.42 5.87-43.07 9.87v50.91c-8.47 2.66-16.24 13.03-16.56 21.81a516.103 516.103 0 0 0-49.7 18.32"/><path fill="#ccc" d="M37.27 279.59v40.72c16.41-6.94 32.8-12.91 49.69-18.11.33 8.65 8.02 14.18 16.57 12.19v50.91c13.12-3.54 26.24-6.55 39.75-9.12v-50.91c8.49-1.93 16.25-11.11 16.57-19.85 16.4-2.58 32.8-4.45 49.7-5.7v-40.73c-16.41 1.22-32.8 3.04-49.7 5.7-.32-8.7-8.02-15.37-16.57-14.09v-50.9a537.497 537.497 0 0 0-39.75 9.11v50.91c-8.47 2.63-16.25 12.97-16.57 21.75a515.084 515.084 0 0 0-49.69 18.12"/><path fill="#96877d" d="M100.43 239.96c2.8 2.58 2.11 7.68-1.76 13.09-4.22 5.16-9.05 7.28-12.3 5.43-2.79-2.48-2.13-7.62 1.76-13.14 4.23-5.26 9.03-7.34 12.3-5.38"/><path fill="#d0d0d0" d="m85.78 253.25 1.17-1.56 4.69.99-2.34-4.1 1.17-1.55 4.68 8.22-9.37-2M92.81 243.94l1.17-1.55 7.03 5.21-1.17 1.52-7.03-5.18"/><path fill="#96877d" d="M160.44 241.42c-3.26 3.39-8.07 3.49-12.3.28-3.87-3.63-4.56-8.41-1.75-12.28 3.27-3.48 8.06-3.61 12.3-.32 3.88 3.72 4.55 8.54 1.75 12.32"/><path fill="#d0d0d0" d="m151.66 227.88 1.17.99-2.34 5.21 4.69-3.2 1.17 1-9.37 6.43 4.68-10.43M158.69 233.9l1.17 1.02-7.03 8.36-1.17-1 7.03-8.38"/><path fill="#96877d" d="M146.39 305.3c-2.8-2.82-2.13-7.88 1.75-12.92 4.24-4.74 9.03-6.23 12.3-3.87 2.8 2.91 2.12 7.93-1.75 12.88-4.23 4.65-9.04 6.18-12.3 3.91"/><path fill="#d0d0d0" d="m161.03 293.82-1.17 1.38-4.69-1.64 2.35 4.42-1.17 1.39-4.69-8.81 9.37 3.26M154 302.16l-1.17 1.4-7.03-5.95 1.17-1.41 7.03 5.96"/><path fill="#96877d" d="M86.37 305.56c3.28-3.89 8.07-4.61 12.3-1.82 3.88 3.24 4.56 7.98 1.76 12.1-3.27 3.78-8.09 4.46-12.3 1.78-3.88-3.15-4.57-7.84-1.76-12.06"/><path fill="#d0d0d0" d="m95.15 317.94-1.17-.86 2.34-5.48-4.68 3.77-1.18-.85 9.38-7.51-4.69 10.93M88.12 312.82l-1.17-.84 7.03-9.3 1.17.86-7.03 9.28"/><path fill="#96877d" d="M158.48 265.28c-.12 10.06-3.43 18.74-10.27 27.15-7.02 8.28-15.02 13.24-24.8 15.59-9.86 2.14-17.76.86-24.8-4.2-6.88-5.28-10.16-12.33-10.28-22.4.12-10.04 3.43-19.3 10.28-28.41 7.02-8.99 15.01-14.47 24.8-16.84 9.86-2.12 17.75-.31 24.8 5.45 6.86 5.98 10.15 13.6 10.27 23.66m-.56.09c-.13-9.9-3.35-17.39-10.11-23.27-6.94-5.67-14.7-7.44-24.4-5.36-9.63 2.34-17.5 7.73-24.41 16.56-6.73 8.97-9.98 18.07-10.1 27.95.12 9.91 3.34 16.84 10.1 22.05 6.93 4.98 14.71 6.25 24.41 4.15 9.62-2.32 17.5-7.2 24.4-15.35 6.73-8.29 9.99-16.83 10.11-26.73"/><path fill="#96877d" d="M150.2 266.67c-.13 7.71-2.62 14.32-7.85 20.85-5.39 6.39-11.45 10.18-18.94 12.02-7.56 1.61-13.53.59-18.95-3.33-5.25-4.15-7.72-9.51-7.84-17.23.12-7.7 2.62-14.65 7.84-21.58 5.4-6.8 11.45-10.9 18.95-12.75 7.56-1.6 13.51-.28 18.94 4.06 5.25 4.55 7.72 10.25 7.85 17.96m-.57.1c-.12-7.55-2.54-13.12-7.68-17.57-5.32-4.25-11.13-5.53-18.54-3.97-7.34 1.81-13.25 5.81-18.55 12.47-5.11 6.78-7.56 13.58-7.68 21.12.12 7.56 2.54 12.81 7.68 16.87 5.32 3.85 11.14 4.85 18.55 3.27 7.33-1.8 13.25-5.51 18.54-11.77 5.12-6.39 7.56-12.87 7.68-20.42"/><path d="M111.81 303.73c-.08 1-.7 1.79-1.66 2.12-.97.17-1.57-.29-1.65-1.27.08-1 .7-1.8 1.65-2.12.98-.17 1.58.29 1.66 1.27M138.31 297.75c-.07 1-.69 1.75-1.65 2.03-.98.11-1.58-.38-1.66-1.36.08-1 .7-1.76 1.66-2.04.98-.11 1.58.38 1.65 1.37M122.31 301.19v1.77l-2.21.51c-2.17.7-2.25 2.12 0 1.77l2.21-.51v1.77c.21 1.83 1.73 1.6 2.07-.32l.14-1.95 2.21-.49c2.16-.66 2.24-2.08 0-1.77l-2.21.49v-1.77c-.24-1.76-1.99-1.26-2.21.51v-.01M91.04 289.39l2.28-1.23-.25-1.01c-.07-.24-.15-.36-.29-.42-.14-.04-.35-.01-.69.12l-.03-.15 1.96-1.05.04.15c-.23.13-.38.24-.48.35-.09.11-.15.22-.18.35-.03.12-.02.27.02.46l.26 1.01 1.82-.98c.29-.16.47-.27.56-.36.07-.07.11-.15.15-.27.03-.16.03-.29 0-.43l-.05-.2.16-.08.6 2.38-.16.08-.05-.2c-.07-.23-.16-.34-.33-.38-.12-.01-.33.06-.69.25l-3.74 2c-.3.17-.48.29-.57.37-.06.07-.11.15-.14.27-.04.16-.04.29-.01.43l.05.19-.16.09-1.03-4.11 1.26-.75.04.15c-.26.22-.43.41-.54.57-.1.16-.16.32-.19.49-.01.18.01.39.08.69l.3 1.22m-1.46-10.1c.07-.83.37-1.53.99-2.3.66-.73 1.34-1.16 2.24-1.41.95-.19 1.59-.08 2.2.37.57.5.8 1.07.78 1.95-.07.88-.37 1.59-.99 2.35-.65.71-1.36 1.14-2.3 1.39-1 .2-1.64.07-2.26-.45-.49-.5-.68-1.05-.66-1.9m.31.01c-.01.58.14.92.52 1.19.51.29 1.14.32 2.13.11.99-.25 1.69-.62 2.27-1.17.42-.45.62-.89.67-1.45.01-.61-.16-.98-.58-1.29-.45-.26-1.05-.3-2.03-.09-1.04.27-1.75.64-2.31 1.17-.41.46-.61.92-.67 1.53m8.63-13.65-.56 1.68-3.33 1.87-.12.38c-.01.04-.03.09-.04.13l-.06.15 1.62.16c.36.03.57.01.7-.06.16-.12.27-.27.36-.51l.08-.25.15.02-.91 2.7-.15-.02.08-.23c.09-.28.07-.45-.04-.6-.07-.07-.24-.12-.57-.16l-3.59-.35c-.37-.03-.58-.01-.7.07-.16.12-.27.28-.36.52l-.08.24-.15-.01.77-2.31c.23-.68.44-1.16.62-1.48.21-.31.44-.55.75-.76.32-.2.61-.28.94-.26.36.05.58.19.77.47.15.3.2.67.13 1.23l2.04-1.14c.47-.26.79-.49.99-.69.19-.2.36-.47.51-.81l.15.02m-4.37 4.18c.02-.06.04-.11.06-.15l.04-.11c.19-.62.22-1.04.11-1.4-.15-.33-.36-.49-.73-.54-.36-.02-.65.06-.97.29-.3.24-.5.53-.65.95-.06.18-.12.42-.17.74l2.31.22m12.68-23.73 1.15 1.23-.12.12c-.4-.21-.74-.3-1.09-.29-.5.05-.93.26-1.42.69-.64.64-.93 1.23-.97 2 .02.64.19 1.15.57 1.68.33.41.68.67 1.12.86.46.15.85.17 1.29.06.42-.13.77-.32 1.1-.61.18-.18.34-.36.49-.56.14-.2.26-.41.36-.63l-.94-1.24c-.16-.22-.28-.33-.37-.37a.483.483 0 0 0-.29.01c-.11.05-.26.15-.47.34l-.09-.12 1.94-1.79.09.12-.09.09c-.2.19-.27.34-.27.53.02.12.1.29.27.53l.99 1.31c-.18.39-.39.74-.62 1.06-.23.31-.51.62-.84.93-1.03.9-1.86 1.26-2.81 1.25-.7-.07-1.17-.32-1.6-.84-.29-.4-.44-.82-.51-1.37-.04-.66.06-1.26.32-1.91.25-.53.59-1 1.09-1.48.18-.17.36-.31.52-.42.17-.12.43-.26.76-.42.18-.09.28-.15.33-.2.05-.04.07-.09.08-.16a.53.53 0 0 0-.1-.27l.13-.13m9.7-1.77-2.23 1.16-.14 1.07c-.04.27-.04.45-.01.56.02.08.08.13.18.15.11.01.29-.03.58-.16l.04.16-1.81.94-.05-.15c.24-.17.37-.3.43-.4.1-.22.19-.55.26-1.05l.76-5.59.15-.08 3.28 3.56c.27.29.47.44.64.5.17.03.35.01.6-.1l.04.15-2.27 1.17-.04-.15c.23-.14.36-.25.43-.35.06-.11.08-.2.06-.29-.04-.12-.14-.28-.33-.48l-.57-.62m-.2-.24-1.59-1.73-.39 2.76 1.98-1.03m10.52-2.48.14.01-.57 1.76-4.61.86.01-.16.22-.05c.26-.06.42-.16.55-.35.06-.12.1-.34.12-.69l.15-3.97c.01-.4-.02-.61-.1-.7-.12-.11-.26-.14-.5-.1l-.22.04v-.17l2.7-.51-.01.17c-.32.06-.53.13-.67.21-.13.1-.21.19-.27.29-.04.12-.08.34-.09.71l-.15 3.87c0 .25.01.41.05.5.04.06.09.09.16.11.08.01.3-.01.68-.08l.44-.08c.46-.09.77-.19.96-.28.19-.11.36-.26.52-.47.16-.21.32-.51.49-.92m7.94.48.12.05-.99 1.61-4.38-.55.05-.17.21.03c.26.02.43-.04.6-.2.08-.1.18-.31.29-.66l1.2-4c.12-.4.15-.62.11-.74-.08-.15-.2-.23-.43-.26l-.21-.03.05-.17 2.56.33-.05.17c-.3-.04-.51-.03-.66.01-.14.05-.24.12-.32.21-.07.1-.16.32-.28.69l-1.17 3.89c-.08.26-.1.42-.09.53.02.07.05.11.11.16.07.03.27.08.64.13l.41.05c.44.05.74.05.94.01.2-.05.39-.15.6-.31.19-.16.42-.42.69-.78m6.39 2.19-1.88-1-.88.72c-.21.18-.35.32-.42.43-.05.09-.06.18-.03.29.04.1.15.21.38.36l-.09.16-1.54-.8.1-.16c.23.06.38.07.49.04.21-.08.5-.27.9-.6l4.55-3.75.12.07-1.17 5.6c-.09.45-.11.75-.08.93.06.18.16.31.35.44l-.09.15-1.92-1.02.09-.15c.21.09.35.12.47.09.11-.03.18-.08.24-.18.07-.12.14-.33.21-.65l.2-.97m.09-.36.56-2.72-2.23 1.83 1.67.89m7.06.01.97 1.16-1.42 5.98 2.76-2.59c.29-.28.44-.47.47-.6.03-.18-.02-.33-.15-.51l-.13-.15.13-.12 1.24 1.49-.13.13-.13-.16c-.16-.18-.31-.24-.5-.21-.12.03-.3.16-.57.41l-4.04 3.79-.09-.12 1.51-6.43-2.94 2.78c-.3.28-.45.47-.48.6-.03.18.01.33.15.51l.13.15-.13.12-1.24-1.47.13-.13.13.15c.16.18.31.24.5.21.12-.04.3-.16.57-.42l3.33-3.14c.06-.27.09-.47.09-.58 0-.11-.03-.25-.09-.42a.96.96 0 0 0-.2-.3l.13-.13m7.52 12.89-1.3.76-.06-.16c.23-.15.37-.28.46-.38.13-.17.2-.34.23-.52.02-.18 0-.37-.08-.6l-.28-.76-4.3 2.29c-.35.19-.53.34-.6.45-.08.18-.08.34 0 .56l.06.19-.15.08-.84-2.29.15-.08.07.19c.1.24.21.34.4.37.11 0 .31-.07.63-.24l4.3-2.29-.24-.65c-.1-.26-.18-.42-.26-.51a.723.723 0 0 0-.43-.2c-.19-.01-.4.04-.67.15l-.06-.15 1.34-.64 1.63 4.43m-4.72 11.63-.08-1.62 2.67-2.67c-.01-.15-.02-.27-.02-.37l-.01-.12v-.14l-1.73.39c-.38.09-.59.18-.69.28-.12.15-.17.32-.17.55l.02.24-.17.03-.13-2.58.16-.04.02.23c.02.26.1.4.27.49.1.03.3.02.65-.05l3.84-.86c.38-.09.59-.18.69-.28.13-.15.18-.32.17-.56l-.01-.22.16-.04.11 2.2c.03.65.01 1.12-.06 1.45-.09.33-.24.61-.47.89-.25.27-.52.42-.87.51-.38.07-.67.03-.97-.15-.28-.21-.47-.51-.63-1l-1.64 1.63c-.38.38-.62.68-.74.91-.12.24-.18.52-.21.86l-.16.04m2.84-4.98v.14l.01.11c.04.59.17.95.43 1.22.29.24.56.3.96.23.39-.1.65-.26.89-.55.22-.31.31-.61.3-1.02-.01-.17-.05-.39-.12-.68l-2.47.55m1.63 12.28-.53 2.14-.15-.01.03-.12c.01-.08.01-.19-.02-.35-.03-.16-.09-.3-.18-.44s-.25-.31-.48-.52l-1.82-1.71-1.45-.13c-.36-.03-.57-.01-.69.06-.15.12-.25.28-.31.53l-.05.2-.16-.01.64-2.62.16.01-.05.22c-.06.27-.04.44.08.58.09.07.27.12.6.15l1.36.13 2.83-1.45c.33-.17.54-.28.63-.35.09-.06.21-.2.36-.41.05-.06.08-.15.11-.26l.16.02-.65 2.63-.16-.02.04-.14a.9.9 0 0 0 0-.4c-.04-.13-.11-.19-.24-.21-.1 0-.3.07-.62.22l-2.17 1.11 1.48 1.38c.23.21.39.31.53.33.08.01.15-.01.23-.04.07-.04.13-.1.19-.18.05-.08.1-.19.14-.36l.16.02"/><path fill="#96877d" d="M142.32 273.31c.6-.24 1.52-.32 1.54-.32 0 .03.06.36-.17.58.31.07 1.26-.12 1.29-.13 0 0-.4.38-.59.54.38.01.79.35.81.37-.03.01-.81.25-1.2.16.21.44.19.81.19.83-.08-.01-1.25-.12-1.85-.91l-.02-1.12"/><path d="M142.29 273.21c.41-.18.92-.29 1.58-.33l.08-.01.02.08c.04.22.02.38-.07.54.22 0 .57-.05 1.07-.16l.36-.08-.29.27-.39.37c.21.05.4.17.63.36l.15.13-.21.07c-.43.15-.76.22-1.02.22.08.22.11.43.1.66l-.01.13-.12-.01c-.98-.09-1.53-.37-1.92-.95l.19-.15c.34.5.81.76 1.64.86-.01-.21-.07-.41-.18-.63l-.16-.29.31.11c.2.06.48.04.91-.09-.22-.16-.4-.22-.58-.21l-.33.03.28-.24c.08-.06.18-.15.3-.26-.51.09-.82.1-1 .05l-.17-.07.18-.13c.1-.09.14-.19.12-.37-.59.05-1.05.15-1.42.31l-.05-.21"/><path fill="#96877d" d="M140.04 272.97c-.56.76-2.56-.1-2.74-.18.07.1 1.01 1.36 2.66 1.4l.08-1.22"/><path d="M140.14 272.99c-.11.27-.3.4-.68.44-.26.02-.57-.01-.96-.1-.28-.07-.55-.15-.83-.25.7.74 1.36 1.02 2.3.99l-.03.24c-1.15.02-1.93-.38-2.74-1.43l.16-.19c.4.17.8.31 1.23.41.37.09.66.12.9.1.25-.03.38-.1.45-.25l.2.04"/><path fill="#96877d" d="M109.88 295.66c9.34-2.4 18.67-4.52 28.29-6.45l2.18-2.21-3.64-1.29-5.6-.78-2.24-.78-4.15 1.15-3.47 2.69-4.76 1.71-1.12 1.59-3.53 1.17-5.55 1.32 9.25-.86-7.62 1.52 1.96 1.22"/><path d="m109.93 295.76-.04.05-2.29-1.42 5.83-1.18-7.15.68.01-.23 5.54-1.32 3.48-1.14 1.12-1.6 4.79-1.71 3.47-2.7 4.21-1.16 2.26.78 5.6.79 3.8 1.34-2.35 2.37c-9.33 1.87-18.66 3.99-28.28 6.45m-.01-.23c9.31-2.38 18.62-4.5 28.21-6.43l2.02-2.04-3.48-1.23-5.6-.79-2.23-.77-4.09 1.13-3.47 2.69-4.74 1.7-1.12 1.6-3.58 1.18-3.92.93 7.63-.7-.02.23-7.29 1.46 1.68 1.04"/><path fill="#96877d" d="M125.12 283.66c-3.61-.62-4.55 3.5-6.11 5.43 2.06-.35 3.58-2.34 5.38-3.83 1.6 3.2 3.29.69 3.44.49.18.23 1.98 2.76 5.13.85.87.36 1.62-.24 1.68-.29.07 0 .97-.04 1.29-.55.59 0 1.14-.71 1.18-.76.07-.01 1.11-.24 1.45-.92 1.86-.46 4.06-4.34 4.21-4.61l.72-1.57 1.07-.43c0-.05.07-.65-.51-.59-.05-.44-.34-.57-.89-.41.06-.29-.25-.39-.28-.4-.95.67-1.06 2.91-1.07 3.07 0 0-1.78 1.7-2.41 2.19-.25-1.52-2.18-2.98-1.96-4.09.68-.84 1.94.84 3.48.35 1.39-.88 2-2.57 2.13-4.14-.42-.89-1.35-2.32-1.35-2.32l-.89.11-.79-1.8c-.08.08-1.5 1.39-1.62 2.39.19.97 1.61 1.4 1.73 1.44-.05.04-.94.74-1.9.72.04.96 1.03.6 1.57.49.28.66.86.9.89.92.03.07.39.89-.67 1.1-1.18-.11-2.26-1.96-3.92-.71-1.4 1.79.55 3.27.73 3.42-.05.03-1.35 1.06-2.3 3.22-3.64-2.09-5.41-.58-9.41 1.23"/><path d="m125.13 283.54 1.93-.9c3.21-1.42 5.34-1.51 7.43-.39.58-1.34 1.26-2.29 2.15-3.03-.35-.31-.64-.64-.89-1.05-.52-.99-.45-1.66.28-2.45.78-.66 1.55-.63 2.78.13.59.39.96.54 1.22.54.4-.06.57-.19.63-.48.01-.14-.01-.27-.06-.42-.44-.19-.7-.45-.88-.88l-.15.03c-.43.09-.73.12-.93.1-.4-.09-.54-.29-.52-.74l.01-.14.13.01c.55.04 1.04-.12 1.64-.55-1.09-.38-1.54-.79-1.62-1.46.04-.72.52-1.46 1.68-2.5l.11-.1.81 1.86.89-.12.03.05c.63.96 1.07 1.73 1.35 2.34l.01.02v.03c-.07 1.16-.3 2.04-.7 2.8.12-.12.25-.21.39-.28l.04-.02.04.02c.24.09.34.19.36.36.23-.06.4-.05.56.02.18.09.26.2.3.41.25-.02.38.07.48.32.04.13.05.25.04.39l-.01.09-1.09.44-.71 1.52c-1.69 3.12-2.93 4.44-4.23 4.68-.24.46-.66.73-1.47.92-.43.54-.77.76-1.18.77-.23.35-.61.51-1.32.54-.64.49-1.12.57-1.71.32-2.11 1.4-3.5 1.19-5.13-.8-.36.44-.73.74-1.18.96-1.03.36-1.66-.03-2.31-1.47-.34.29-.82.72-1.44 1.32-1.68 1.59-2.87 2.32-3.9 2.46l-.25.01.2-.21c.28-.3.7-.93 1.26-1.95 1.72-2.96 3.08-3.92 4.93-3.52m-.06.23c-1.74-.39-3.03.53-4.68 3.37-.46.84-.83 1.43-1.12 1.8.93-.23 2.01-.94 3.49-2.34.7-.68 1.22-1.15 1.58-1.43l.11-.09.04.12c.61 1.4 1.17 1.8 2.1 1.48.45-.21.81-.52 1.16-.99l.1-.13.08.11c1.59 2.01 2.93 2.23 4.98.84l.06-.05.06.04c.53.25.97.18 1.55-.28l.04-.03h.04c.68-.03 1.01-.16 1.17-.46l.04-.1.1.01c.35.03.65-.17 1.05-.7l.04-.04.05-.01c.79-.17 1.17-.41 1.35-.83l.03-.09.09-.01c1.22-.17 2.41-1.44 4.09-4.52l.75-1.63 1.03-.41a.78.78 0 0 0-.03-.22c-.07-.18-.17-.23-.36-.19l-.11.03-.01-.12c-.01-.18-.07-.28-.2-.35-.16-.06-.32-.05-.56.03l-.2.07.07-.2c.04-.11-.02-.19-.19-.26-.59.39-.87 1.22-.94 2.93v.06l-.04.04c-1.19 1.15-1.99 1.87-2.42 2.2l-.16.12-.01-.19c-.04-.47-.36-1.1-1.09-2.05-.78-1.03-1.01-1.63-.85-2.09.16-.3.35-.41.68-.38.16.03.44.14.85.33.94.44 1.52.53 2 .33 1.3-.77 1.89-1.91 2.05-4-.26-.58-.69-1.32-1.29-2.24l-.91.12-.76-1.74c-1.01.92-1.43 1.57-1.46 2.18.07.62.53.99 1.67 1.34l.18.06-.17.14c-.67.53-1.23.76-1.85.76.03.24.13.35.37.4.18.02.45-.01.86-.1.11-.02.19-.04.23-.04l.08-.02.02.08c.17.42.41.67.85.86l.03.01.02.03c.07.19.09.37.08.57-.09.44-.32.64-.87.72-.31.01-.72-.16-1.35-.56-1.13-.71-1.82-.75-2.5-.19-.62.68-.68 1.27-.21 2.15.26.43.57.78.95 1.09l.12.08-.14.11c-.94.74-1.65 1.72-2.25 3.15l-.06.15-.11-.07c-2.05-1.16-4.15-1.1-7.35.32l-1.9.88-.01.08-.13-.04m17.07-7.05c-.34.41-.72.72-1.19.97-.55.24-1.19.15-2.19-.31-.39-.19-.65-.29-.8-.32-.21-.02-.32.04-.42.22-.11.36.11.89.84 1.85.67.87 1.01 1.5 1.12 2 .44-.36 1.17-1.03 2.2-2.03.04-1.06.19-1.82.44-2.38"/><path fill="#96877d" d="M120.02 279.73c1.27 1.24.63 3.47 1.01 3.95.67.23 1.4-.51 1.46-.57 1.57-.08 4.19-1.38 4.26-1.42 1.19.34.74-.39 1.45-.61.86 1.45 2.64.83 2.8.77-.04-.03-1.97-1.54-3.19-1.95-1.05.74-3.6 1.44-4.15 1.51-.49-.06-.23-.65-.44-1.05.88-1.42.24-3.36-.34-4.34-2.44-.65-4.63 1.87-2.86 3.71"/><path d="M119.95 279.83c-.51-.41-.73-.82-.76-1.42.02-.54.2-1.01.59-1.53 1.03-1.19 1.9-1.45 3.16-.97l.02.01.01.02c1.17 1.86 1.27 3.09.38 4.41.05.12.08.28.09.5.02.31.09.43.24.44 1.68-.12 2.91-.57 4.07-1.47l.05-.04.06.01c.83.25 1.86.86 3.22 1.96l.16.13-.22.08c-1.55.49-2.33.29-2.89-.75-.13.05-.22.14-.32.3-.24.38-.53.46-1.08.3-1.83.96-3.16 1.39-4.22 1.42-.64.62-1.07.77-1.55.55-.17-.13-.24-.47-.22-1.23.01-1.45-.22-2.23-.79-2.72m.15-.2c.62.53.88 1.36.86 2.88-.02.67.03.97.14 1.06.39.17.76.03 1.32-.53l.04-.05.06.01c1.03-.01 2.34-.44 4.19-1.41l.05-.03.04.02c.44.13.66.09.82-.15.17-.28.34-.41.59-.47l.07-.01.03.07c.46.94 1.13 1.15 2.46.8-1.24-.99-2.18-1.55-2.95-1.79-1.2.91-2.47 1.37-4.17 1.49-.29-.01-.4-.17-.43-.61-.01-.24-.04-.38-.1-.46l-.05-.07.07-.08c.86-1.23.78-2.39-.34-4.18-1.15-.43-1.94-.19-2.87.88-.34.47-.5.88-.52 1.36.03.53.23.9.69 1.27"/><path fill="#96877d" d="M110.33 277.91c-1.99.7-4.8-.81-6.49.41-1.38 1.76-.82 3.89.2 5.22.71 1.2-1.21 2.15-2.06 3.2-.52.98.13 1.51.19 1.57l.68.26-.12 1.05.36 1.12c.02.01.29.19.43-.2.27.32.06 1.11.79 1.12-.19-.58.18-2.18.2-2.24.07-.02 1.23-.28 1.67-.93.25-.75-.28-1.72-.32-1.78l.39-.11c-.43-.27-.58-1.05-.59-1.1.11-.07 1.66-1.04 1.82-2.51-.32-1.48-2.69-2.07-1.9-3.19 1.39-.88 3.12.99 5.11-.56 1.8-1.77.64-.21.64-.2.04-.12.82-1.92-1-1.13"/><path d="M110.46 277.72v.01c.38-.18.64-.22.85-.16.19.08.28.22.31.51v.21c.04-.02.08-.03.11-.02.08.03.09.09.05.21-.05.13-.17.33-.37.61l-.19-.07c.04-.09.06-.16.09-.24-.15.13-.33.31-.55.53-.79.7-1.7.85-3.2.5-1-.25-1.55-.22-1.92.07-.2.21-.23.38-.1.62.11.16.37.41.79.76.85.7 1.21 1.2 1.26 1.7-.05 1.03-.56 1.77-1.8 2.58.11.54.27.81.53.95l.29.13-.57.15c.38.74.44 1.25.23 1.75-.28.49-.77.78-1.68 1-.28 1.1-.32 1.72-.18 2.07l.09.17-.2.02c-.39.02-.58-.18-.7-.72-.03-.12-.05-.22-.08-.29-.08.09-.16.13-.29.14a.568.568 0 0 1-.22-.07l-.02-.01-.37-1.17.11-1-.63-.25h-.01c-.57-.53-.63-.99-.2-1.72.16-.22.49-.56 1.02-1.02.56-.48.9-.83 1.07-1.06.23-.39.22-.66-.03-.98-.58-.69-.91-1.46-1.05-2.5-.1-1.24.16-2.08.87-2.88.66-.57 1.66-.7 3.51-.41 1.52.25 2.44.23 3.03-.03l.15-.09m-.25.36c-.65.22-1.59.23-3.02-.01-1.76-.28-2.71-.17-3.29.32-.64.73-.87 1.5-.78 2.65.14 1 .45 1.74 1.01 2.41.31.4.32.75.02 1.25-.19.26-.55.64-1.13 1.14-.51.44-.82.75-.96.95-.34.59-.29.97.19 1.41l.72.28-.13 1.1.34 1.07c.04.01.07.02.11.02.06 0 .1-.04.13-.14l.05-.19.13.1c.09.08.16.23.21.52.07.32.16.48.33.56-.07-.43 0-1.1.26-2.11l.03-.09.09-.02c.87-.18 1.32-.43 1.56-.84.18-.45.1-.93-.32-1.68l-.08-.14.29-.08c-.2-.21-.33-.52-.42-1.01l-.01-.1.09-.05c1.2-.76 1.69-1.44 1.74-2.38-.04-.43-.39-.9-1.2-1.56-.44-.36-.7-.62-.82-.8-.19-.35-.15-.61.17-.94.45-.36 1.06-.41 2.14-.14 1.41.33 2.25.21 2.97-.42.33-.33.58-.57.75-.71.02-.11.02-.21.02-.3-.02-.2-.08-.3-.2-.36-.19-.04-.44.02-.84.22l-.15.08v-.01"/><path fill="#96877d" d="M119.79 255.48c-2.47-.31-7.43.51-10.25 0-1.24.5-1.72 1.47-1.82 1.94-1.33.49-2.05 2.39-1.96 2.93-2.45.07-3.26 3.37-2.66 4.3-1.92.87-1.78 2.99-1.93 3.94-.56 1.81.07 2.04 1.4 1.17.15.67-.06 1.05-.65 1.38 3.66 2.45 5.3-3.33 8.43-4.7 3.76-2.23 5.23-4.3 5.27-4.36l1.48-.16 2.69-6.44"/><path d="m120.02 255.4-.14.13-2.71 6.5-1.5.16c-1.1 1.52-2.75 2.89-5.29 4.35l-.01.01h-.02c-.77.26-1.73 1.07-3.1 2.7-1.09 1.31-1.89 2.09-2.47 2.46-1.07.53-1.89.4-2.94-.47l-.12-.11.18-.09c.26-.15.43-.29.53-.49.09-.19.1-.37.06-.61-.67.44-1.07.53-1.41.34-.33-.28-.34-.75-.02-1.69.02-.1.05-.31.08-.62.22-1.87.72-2.82 1.74-3.35-.32-.5-.25-1.21.29-2.49.68-1.38 1.36-1.92 2.44-1.92 0-.31.15-.75.48-1.39.49-.85.95-1.29 1.53-1.49.22-.98.76-1.54 1.91-1.96l.03-.01.03.01c1.04.21 2.92.24 5.79.03 2.24-.16 3.7-.16 4.46-.04l.18.04m-4.68.23c-2.87.21-4.76.19-5.82-.02-1.06.39-1.53.9-1.69 1.8l-.01.1-.11.03c-.54.15-.97.54-1.43 1.35-.39.75-.5 1.15-.42 1.38l.12.23-.26-.04c-1.05-.08-1.7.4-2.35 1.72-.56 1.32-.6 1.97-.19 2.37l.18.13-.26.08c-1.02.42-1.52 1.3-1.74 3.17-.03.34-.06.55-.09.66v.02c-.29.84-.29 1.24-.04 1.47.29.14.65.04 1.29-.41l.12-.09.03.12c.1.35.08.63-.05.91-.11.21-.26.38-.5.53.94.73 1.67.83 2.6.37.54-.35 1.32-1.1 2.38-2.38 1.4-1.68 2.41-2.52 3.24-2.8 2.51-1.45 4.14-2.81 5.19-4.3l.04-.06 1.47-.16 2.6-6.24c-.77-.09-2.18-.09-4.3.06"/><path fill="#96877d" d="M126.57 251.03c-.17 2.18-1.52 3.86-3.61 4.51-2.14.32-3.44-.71-3.61-2.85.16-2.19 1.51-3.89 3.61-4.55 2.13-.31 3.44.74 3.61 2.89"/><path d="M126.68 251c-.03 1.09-.36 1.98-1.09 2.94-.78.92-1.58 1.44-2.63 1.72-2.6.46-3.59-.32-3.73-2.95.14-2.65 1.17-3.95 3.73-4.68 2.59-.46 3.59.34 3.72 2.97m-.22.05c-.04-1.03-.34-1.7-1.03-2.31-.74-.54-1.46-.68-2.47-.48-2.41.68-3.38 1.9-3.5 4.4.13 2.47 1.06 3.2 3.5 2.77.99-.26 1.74-.75 2.47-1.61.69-.91 1-1.74 1.03-2.77"/><path fill="#96877d" d="M116.6 282.49c-2.52-.03-5.58-1.24-6.33-4.33 2.65-8.81 12.29-7.31 13.78-13.65-.16-4.22.55-8.27 2.75-12.39 1.13-1.58 2.36-2.23 2.41-2.25.01.04.2.79-.12 1.51 1.81-.47 4.2-.15 5.89-.32.47.94.44 1.28.33 1.94-.18.63-.73.62-.78.62-.47.54-.94.99-2.13 1.07-.96.84-2.7 1.44-2.75 1.45.25.22 3.48 3.17 3.25 4.82.82.33 1.98 1.76 2.02 1.82.05-.04 2.55-2.01 3.53-3.47 1.56-.16 4.05.75 5.32.8l3.08 2.01c-.14.12-1.64 1.42-2.63.09-1.03.06-2.97-1.46-5.94-.4-.35 2.71-2.77 4.94-2.91 5.06.11-.03 2.52-.77 4.09-.3 1.5.99 3.69 2.33 3.7 2.33l1.96 3.07c-.14.04-1.61.59-2.47-1.6-.71 1.8-.72-.76-3.36-1.99-.84.27-1.19.38-1.9-.02-1.95.97-4.19 2.39-6.9 2.81-1.86 1.11-3.35 2.91-5.26 4.31-2 1.31-2.48 1.05-2.52 1.04l-1.57.42c-.21 1.1-.16 2.34-.95 2.92.41.71-.36 3.02-1.35 3.93.58 1.53 1.68 1.73 3.14 2.25.08-.06 1.12-.75 2.02-.29.76.66 1.6 2.45 1.62 2.5-.03.01-1.63.43-2.18.38-.53-.16-.57-.6-1.18-.36-3.96-2.36-5.62-.93-6.16-1.41-.2-.75.72-3.09.5-4.37"/><path d="M116.51 282.61c-1.33.03-2.52-.28-3.84-1-1.53-.95-2.25-1.93-2.51-3.4v-.05c.97-3.31 3.32-5.77 8-8.15 3.66-1.84 5.3-3.42 5.78-5.48-.18-4.68.7-8.6 2.76-12.45l.01-.01c.76-1.1 1.53-1.82 2.47-2.31l.1-.05.03.1c.14.53.13.95-.03 1.4.75-.17 1.85-.26 3.39-.22 1.1.03 1.86.01 2.31-.05l.07-.01.03.06c.34.68.44 1.29.34 2.01-.07.33-.22.51-.52.65-.12.05-.23.08-.34.08-.65.69-1.28 1.01-2.13 1.08-.6.54-1.4.98-2.54 1.37 2.48 2.24 3.35 3.59 3.16 4.69.53.23 1.13.76 1.91 1.75 1.71-1.32 2.79-2.4 3.4-3.36l.03-.05.06-.02c.63-.09 1.66.03 3.24.42 1.06.27 1.74.39 2.1.39h.03l.02.01 3.08 2.01.12.08-.13.11c-.32.27-.66.47-1.05.62-.83.27-1.29.13-1.71-.49-.27.01-.69-.08-1.35-.31-1.79-.6-3.11-.64-4.41-.15-.17 1.71-.92 3.12-2.57 4.73 1.62-.46 2.73-.5 3.7-.15l.01.01c1 .66 2.23 1.43 3.69 2.32l.02.01 2.05 3.22-.15.06c-1.26.37-1.93 0-2.5-1.38-.16.34-.29.47-.46.47-.12-.03-.29-.21-.56-.6-.75-1.09-1.48-1.71-2.35-2.07-.84.25-1.4.24-1.91-.01-.3.15-.76.38-1.37.71-2.31 1.23-4.07 1.88-5.48 2.08-.7.4-1.63 1.13-2.84 2.26-1.02.95-1.81 1.62-2.4 2.04-1.36.91-2.11 1.2-2.6 1.06l-1.44.39c-.04.18-.07.44-.11.78-.15 1.09-.38 1.7-.76 2.06.18.35.14.91-.18 1.9-.36 1.01-.74 1.64-1.21 2.05.35.83 1.06 1.38 2.45 1.89l.57.2c.88-.57 1.47-.64 2.08-.26.54.43 1.07 1.21 1.65 2.53l.06.14-.15.04c-1.15.33-1.85.44-2.24.38-.15-.03-.31-.12-.49-.26-.22-.17-.39-.2-.61-.11l-.06.03-.04-.03c-1.78-1.13-3.33-1.51-5.2-1.28-.59.08-.86.03-.99-.15-.11-.28-.06-.86.21-1.92.3-1.19.38-1.95.3-2.41m.11-.13.09-.04c.12.48.04 1.29-.29 2.59-.25 1-.31 1.53-.22 1.76.08.11.31.14.8.06 1.91-.22 3.49.16 5.29 1.29.28-.1.5-.06.77.14.16.13.29.2.42.24.33.04.96-.05 1.98-.34-.55-1.22-1.04-1.94-1.54-2.33-.55-.33-1.08-.26-1.9.28l-.05.04-.05-.02-.61-.21c-1.5-.55-2.24-1.16-2.58-2.09l-.02-.09.09-.06c.44-.35.81-.95 1.17-1.97.33-1.01.36-1.52.13-1.78l-.12-.1.17-.09c.37-.26.6-.81.75-1.92.04-.42.09-.72.13-.9l.02-.09 1.69-.46.03.02c.41.14 1.1-.14 2.41-1.02.57-.41 1.36-1.07 2.36-2.01 1.24-1.16 2.2-1.91 2.92-2.31l.02-.02h.03c1.38-.19 3.12-.83 5.41-2.05.65-.35 1.13-.6 1.44-.75l.05-.02.05.03c.46.24.99.26 1.79.02l.03-.01.03-.01.03.01c.93.37 1.68 1.01 2.47 2.15.24.34.37.5.44.52.07-.01.16-.17.3-.59l.11-.35.1.32c.48 1.41 1.07 1.84 2.18 1.59l-1.87-2.92c-1.46-.89-2.68-1.66-3.68-2.32-1.01-.35-2.21-.27-4.01.31l-.07-.19c1.88-1.7 2.71-3.17 2.86-4.96v-.09l.09-.04c1.38-.55 2.76-.52 4.65.11.69.25 1.09.33 1.3.29l.08-.02.03.06c.36.58.76.71 1.5.47.3-.12.58-.27.84-.47l-2.93-1.91c-.39-.01-1.08-.13-2.12-.39-1.51-.38-2.5-.5-3.1-.43-.65 1-1.77 2.11-3.54 3.46l-.09.06-.05-.07c-.83-1.07-1.44-1.6-1.97-1.79l-.11-.03.05-.11c.28-1.03-.6-2.36-3.23-4.69l-.15-.14.22-.07c1.24-.4 2.08-.85 2.69-1.41l.04-.04h.05c.82-.06 1.42-.36 2.03-1.03l.05-.05h.05c.1 0 .2-.02.31-.06.2-.09.29-.22.34-.44.09-.64 0-1.19-.3-1.82-.47.05-1.22.07-2.28.04-1.67-.04-2.8.07-3.51.27l-.23.08.12-.23c.2-.41.24-.81.13-1.32-.85.47-1.55 1.14-2.24 2.14-2.04 3.81-2.9 7.69-2.73 12.32v.02c-.49 2.18-2.18 3.82-5.95 5.72-4.58 2.33-6.88 4.71-7.83 7.92.26 1.4.96 2.35 2.43 3.26 1.25.68 2.38.98 3.63.99l-.02-.07.23.06-.03.1"/><path fill="#96877d" d="M107.48 269.39c.3-.25 1.51-.14 1.59-.13l2.53.98 5.15 2.13 1.82 2.28-3.28-.3-4.56-2.88-2.45-.99c-.07-.05-.89-.73-.8-1.09"/><path d="M107.5 269.24c.27-.15.75-.19 1.61-.09h.01l2.54.98 5.17 2.14 2.02 2.52-3.62-.33-4.57-2.88-2.46-.99v-.01c-.73-.59-.94-.93-.8-1.24l.07-.12.03.02m.07.2c-.06.17.15.43.78.94l2.45.98 4.54 2.88 2.96.26-1.63-2.03-5.13-2.12-2.52-.97c-.9-.11-1.31-.08-1.45.06"/><path fill="#96877d" d="M137.94 271.01c-1.86.46-5.94 5.94-6.16 6.26l3.31 2.98c0-.26.3-5.91 2.85-9.24"/><path d="m137.97 270.89.21.02-.17.17c-1.78 2.13-2.65 4.87-2.81 9.15l-.01.29-3.56-3.21.06-.09c3.1-4.41 4.95-6.18 6.28-6.33m-.28.25c-1.21.36-2.97 2.13-5.76 6.1l3.05 2.75c.19-4.06 1.03-6.73 2.71-8.85"/><path fill="#96877d" d="M116.27 260.6c-.95 1.73-1.01 3.85.2 4.83.24 1.72 1.36 4.08 2.43 4.41 1.18.04 5.46-.04 7.28-.59-.09 3.07 1.73 4.62 3.92 5.85-.01.28 0 .56.22.85.32.23 1.21.09 1.35-.09.68.53 2.59.38 2.95.06-.12-.31-3.23-2.07-4.18-2.73-.68-1.19-1.85-3.69-2.24-5.94-1.98-1.61-4.56-1.06-4.75-1.02l.1-4.19.17-4.75-1.63-.48c.01-.01.32-.24.51-.47.43-.01 1.07-.83 1.23-1.15.4.05.68-.02.78-.24.04-.2.14-1.01.26-1.46 1.07-1.59-.06-3.2-2.06-3.02-1.85.62-2.22 2.62-2.23 2.96.16.7.13 1.03 0 1.26-.16.2-.78.76-.79.76-.05-.01-.97-.21-2.29.55-1.34.86-2.55 1.8-2.75 2.68-.61.3-1.43 1.18-1.68 1.91-.54.08-1.11.59-2.24 2.69-1.81 1.68-2.03 5.4-2.04 5.63-.01.02-.49.9-.55 1.33 0 .45.16.71.43.61.07.27.35.4.54.29.09.26.4.3.67.21.1.16.7-.04.82-.24.04-.21-.03-1.08.02-1.19.1-.04.67.18.87.06.14-.2-.02-.5-.13-.67-.12-.11-.57-.16-.74-.78-.07-.68.32-1.66.33-1.7.07-.07 1.94-2.2 2.34-3.73 1.6-.39 2.38-1.76 2.88-2.5"/><path d="M115.66 261.64c-.75.91-1.41 1.37-2.18 1.56-.25 1.04-.97 2.19-2.34 3.69-.28.68-.37 1.17-.31 1.59.07.29.23.47.54.63.1.05.16.09.19.12.25.39.27.61.09.83-.12.1-.31.1-.67.01l-.19-.08.03.49c.02.35.01.56-.01.64-.06.15-.21.26-.53.36-.25.07-.38.07-.47.01-.37.12-.56.07-.68-.2-.1.03-.19.01-.3-.04-.13-.07-.2-.14-.24-.26-.14.03-.23-.02-.33-.15-.1-.16-.14-.33-.13-.58.03-.3.2-.73.55-1.36.15-2.95.77-4.6 2.07-5.69.94-1.74 1.62-2.53 2.24-2.73.29-.91.78-1.46 1.66-1.88.21-.71 1.03-1.53 2.81-2.7.89-.54 1.58-.7 2.33-.58.39-.33.61-.56.7-.68.12-.22.12-.57-.02-1.16-.04-.31.08-.77.42-1.48.51-.95 1.07-1.42 1.93-1.65 1.03-.16 1.67.08 2.28.88.53.87.49 1.5-.14 2.3-.04.18-.1.5-.17.95-.04.26-.06.42-.08.48-.06.16-.16.26-.37.32-.13.04-.28.05-.45.04-.38.86-.73 1.17-1.27 1.15-.08.1-.17.19-.29.28l1.5.45-.17 4.82-.09 4.07c2.08-.4 3.43-.09 4.71 1.07l.02.02.01.03c.3 1.87 1 3.75 2.22 5.89.21.15.77.5 1.7 1.03 1.82 1.06 2.5 1.59 2.49 1.83-.16.24-.58.36-1.48.39-.81.01-1.28-.1-1.58-.33-.13.08-.32.13-.61.16-.43.04-.67 0-.82-.14-.17-.22-.24-.47-.24-.86-2.89-1.67-3.99-3.28-3.93-5.77-1.58.5-3.88.69-7.19.54-.54-.08-1.01-.56-1.62-1.69-.51-1.03-.79-1.91-.89-2.75-.61-.43-.89-1.05-.94-2.17 0-.62.08-1.16.24-1.7m.69-.99c-.48.8-.7 1.61-.71 2.63.05 1.07.31 1.65.9 2.04l.04.02v.05c.09.83.36 1.7.87 2.72.58 1.08 1.01 1.53 1.48 1.61 3.39.15 5.69-.05 7.23-.58l.15-.06-.02.16c-.12 2.48.96 4.09 3.88 5.76l.05.02-.01.06c-.01.36.05.6.2.78.1.1.3.13.67.09.32-.03.46-.07.49-.1l.06-.24.13.16c.24.25.68.35 1.52.35.79-.03 1.14-.1 1.25-.23-.03-.08-.74-.57-2.44-1.55-.95-.55-1.52-.9-1.73-1.05l-.01-.01-.01-.01c-1.23-2.16-1.94-4.06-2.25-5.95-1.26-1.11-2.58-1.4-4.64-.98l-.11.03.1-4.31.16-4.67-1.76-.53.21-.15c.2-.14.35-.28.46-.42l.06-.07.07.01c.45.05.75-.24 1.09-1.06l.04-.1.09.01c.19.02.34.01.47-.02.1-.03.15-.07.17-.12.01-.05.04-.19.07-.44.07-.5.14-.83.19-1.02l.01-.04.02-.02c.56-.7.59-1.26.12-2.03-.56-.73-1.15-.96-2.1-.81-.76.2-1.27.63-1.73 1.49-.31.65-.42 1.05-.39 1.31.15.66.14 1.06-.02 1.36-.11.15-.38.41-.82.79l-.05.05-.05-.02c-.7-.13-1.36.02-2.21.53-1.78 1.17-2.54 1.94-2.68 2.57v.09l-.09.03c-.87.39-1.33.91-1.59 1.81l-.03.11h-.1c-.55.12-1.18.85-2.12 2.61l-.02.04-.03.02c-1.25 1.02-1.84 2.62-1.98 5.51v.04l-.02.03c-.34.6-.5 1-.53 1.27-.01.19.02.33.1.45.07.09.12.11.19.07l.13-.06.01.13c.02.1.07.16.18.22.09.05.15.05.19.02l.13-.1.03.14c.08.24.22.28.55.16l.12-.05.01.11c.01.02.09.01.28-.05.21-.07.31-.12.33-.16.01-.05.01-.23 0-.55-.03-.41-.01-.62.05-.7.07-.06.19-.07.43-.01.27.08.4.09.44.07.07-.09.03-.24-.15-.51a.41.41 0 0 0-.13-.07c-.36-.18-.54-.4-.63-.75-.07-.48.03-1.02.35-1.77l.01-.03.02-.02c1.39-1.51 2.08-2.64 2.29-3.65l.02-.11.1-.01c.92-.2 1.68-.82 2.58-2.14l.2-.3.05-.08.22.04-.1.14"/><path fill="#96877d" d="M112.61 255.44c.63-1.31 2.1-1.62 2.21-1.65.05-.13.57-1.63 2.96-1.39 1.04-.81 3.06-.48 3.19-.46.05-.07.85-1.25 2-1.51 2.15-.03 2.41 1.52 2.33 2.04-1.2.42-3.1-.1-4.67.47-.91.72-2.25 1.63-2.85 2.47-1.44.35-2.87-.48-5.17.03"/><path d="M112.51 255.42c.4-.94 1.03-1.44 2.24-1.73.13-.3.32-.56.61-.84.68-.55 1.37-.72 2.4-.57.7-.58 1.61-.72 3.17-.47.65-.93 1.25-1.36 2.06-1.49.99-.07 1.57.16 2.08.83.35.55.44.94.33 1.34l-.02.06-.05.03c-.41.17-1.07.23-2.11.19-1.2-.05-2 .05-2.55.27-.16.13-.43.34-.81.62-1.09.81-1.72 1.4-1.99 1.8l-.03.05-.05.01c-.47.14-1.13.15-2.12 0-1.26-.2-2.23-.18-3.06.03l-.17.05.07-.18m.27-.14c.83-.18 1.78-.18 2.98 0 .91.15 1.53.15 1.96.04.31-.43.96-1.03 2.04-1.84.38-.29.66-.49.82-.62l.01-.02h.02c.58-.25 1.42-.35 2.67-.3.94.04 1.56-.01 1.93-.15.06-.31-.04-.63-.33-1.08-.46-.61-1.01-.83-1.92-.76-.74.12-1.3.54-1.9 1.44l-.05.09-.08-.02c-1.57-.27-2.45-.14-3.08.41l-.06.06-.06-.01c-.98-.15-1.63 0-2.25.5-.27.26-.45.51-.55.79l-.03.08-.08.02c-1.06.23-1.65.63-2.04 1.37"/><path fill="#96877d" d="M116.99 256.35c.62-.51 1.72-1.24 2.69-.84.96.76 2.31 1.39 2.33 1.4l1.59.32.73.3-.47 7.59c-1.55-1.15-2.77-1.23-3.93-2.73-.45-.73-.26-2.54-1.12-3.64-1.06-1.04-1.92-1.56-1.82-2.4"/><path d="M116.94 256.27c1.22-1.01 2.01-1.24 2.81-.87h.01v.01c.62.52 1.37.97 2.3 1.39l1.59.32.8.32-.5 7.92-.17-.14c-.41-.32-.97-.66-1.72-1.03-1.06-.54-1.75-1.08-2.22-1.72-.16-.22-.29-.66-.38-1.43-.15-1.12-.38-1.79-.73-2.19-.17-.18-.42-.41-.75-.71-.87-.8-1.17-1.31-1.09-1.8l.01-.04.04-.03m.15.13c-.02.38.28.84 1.05 1.55.34.3.59.54.76.71.38.44.63 1.14.78 2.3.09.74.2 1.15.34 1.34l.01.01c.45.61 1.12 1.14 2.16 1.66.66.33 1.18.63 1.57.92l.46-7.28-.67-.26-1.6-.33c-.95-.42-1.71-.89-2.34-1.41-.71-.32-1.41-.11-2.52.79"/><path fill="#96877d" d="M120.83 257.6c.04-.02.79-.31 1.07-.21.31.03.55.06.66.29.33.04.51.14.53.39.3.06.41.49.42.53l-.28.49a.988.988 0 0 1-.36-.55c-.23-.05-.6-.07-.75-.33-.36.03-.55-.08-.63-.38-.35.11-.63-.21-.66-.23"/><path d="M120.81 257.49c.6-.24.93-.3 1.15-.21h.02c.37.05.55.14.66.29.35.05.5.16.55.39.21.07.33.23.42.59l.01.05-.37.66-.1-.07a.986.986 0 0 1-.38-.54l-.1-.02c-.33-.07-.52-.16-.62-.3-.36.02-.53-.08-.65-.36-.24.05-.42-.03-.66-.28l-.1-.13.17-.07m.23.14c.16.13.28.15.42.1l.11-.06.02.11c.08.26.22.34.54.32l.07-.01.02.06c.06.11.21.19.53.25.08.01.14.02.17.03l.05.02.01.06c.03.15.1.28.23.41l.18-.31c-.08-.29-.17-.4-.33-.42l-.08-.01v-.09c-.02-.18-.14-.26-.46-.29h-.05l-.02-.06c-.06-.12-.21-.19-.54-.23l-.04-.01h-.02l-.02-.01c-.13-.06-.36-.02-.79.14"/><path fill="#96877d" d="M127.92 251.1c-.55-.37-1.26.11-1.32.15l-2.24 4.46-.98 1.06-.09 3.12.82 2.71-.28 2.3c.02-.03 1.05-1.34 1.26-1.98.05-.64-.41-2.33-.42-2.37-.04-.06-.59-.96.14-3.39.9-2.33 2.57-4.62 3.11-6.06"/><path d="m128.05 251.05-.03.07c-.16.47-.57 1.28-1.28 2.47-.93 1.56-1.52 2.75-1.83 3.59-.52 1.6-.54 2.56-.15 3.29l.01.01v.01c.37 1.22.49 1.98.43 2.43-.13.46-.52 1.11-1.3 2.05l-.22.26.31-2.6-.81-2.7.09-3.19 1-1.08 2.25-4.48.03-.02c.65-.43 1.05-.47 1.45-.15l.05.04m-1.37.27-2.23 4.45-.96 1.03-.08 3.05.81 2.71-.24 2c.59-.75.9-1.27 1-1.64.05-.4-.06-1.13-.42-2.3-.42-.79-.39-1.8.14-3.48.32-.86.92-2.06 1.86-3.64.66-1.12 1.06-1.89 1.23-2.34-.3-.2-.61-.16-1.11.16"/><path fill="#96877d" d="M133.45 253.44c-.09.15-3.54 5.54-9.23 8.96-1.59.32-1.05-3.24-1.01-3.56l-.39.21c-.06.33-.83 3.84 1.23 3.85 5.74-2.85 9.95-9.36 10.08-9.56l-.69.11.01-.01"/><path d="m133.36 253.4.07.03-.01-.09.28-.11-.05.07.69-.11-.12.19c-3.04 4.82-6.22 7.8-10.15 9.62l-.01.01h-.01c-.99.13-1.4-.36-1.52-1.84-.02-.69.04-1.39.18-2.12l.02-.07.62-.32-.03.17c-.09.72-.11 1.39-.08 2.04.03.57.12.95.26 1.22.18.28.37.34.69.21 3.83-2.2 6.72-4.99 9.17-8.9m-9.11 9.1v.01c-.45.18-.71.11-.95-.28-.15-.29-.25-.7-.29-1.3-.02-.61 0-1.24.07-1.9l-.17.09c-.12.68-.17 1.34-.15 1.99.1 1.32.44 1.77 1.28 1.68 3.81-1.77 6.9-4.66 9.88-9.31l-.42.07c-2.47 3.93-5.39 6.74-9.25 8.95"/><path fill="#96877d" d="M135.82 282.4c-.04.04-.49.45-1.23.25-.46-.75-1.27-.64-1.35-.63-.05-.14-.55-1.56-1.62-.98-.27-.87-1.15-.25-1.23-.2-.01-.1-.01-1.25-1.29-.92.2-1.67-1.58-1.15-1.74-1.12-.01-.13-.04-1.6-3.25-.7 7.2-4.21 11.99 1.95 12.27 2.29l-.56 2.01"/><path d="M135.89 282.48c-.43.38-.81.46-1.36.29l-.03-.02-.01-.03c-.27-.49-.61-.66-1.25-.59l-.08.01-.02-.06a2.66 2.66 0 0 0-.43-.75c-.37-.4-.65-.46-1.04-.2l-.13.1-.03-.15c-.07-.33-.22-.43-.56-.37-.18.04-.35.12-.52.23l-.15.1v-.17c-.01-.22-.06-.4-.16-.59-.23-.34-.5-.42-1-.25l-.17.06.04-.18c.13-.66-.04-.95-.64-1.07a2.77 2.77 0 0 0-.98.08l-.11.03-.01-.12c-.02-.27-.14-.47-.4-.68-.59-.37-1.38-.37-2.72.06l-.06-.2c3.11-1.95 5.61-2.13 8.81-.63 1.5.82 2.64 1.76 3.59 2.93l-.18.17c-.94-1.16-2.06-2.08-3.54-2.89-2.88-1.36-5.15-1.3-7.95.19 1.04-.23 1.68-.17 2.21.17.26.21.4.43.45.72.34-.08.65-.09.97-.06.68.13.9.44.81 1.15.52-.12.82-.02 1.07.37.09.17.15.34.18.53.15-.08.3-.14.45-.18.43-.08.63.03.76.38.46-.23.78-.15 1.19.3.18.22.32.46.43.73.68-.05 1.06.14 1.36.67.43.12.74.06 1.08-.24l.13.16"/><path fill="#96877d" d="M139.07 282.43c.08.08 1.52 1.36 2.41 1.37.8-.32.89-1.82.89-1.95.03.05.24.65.68.44.01.56.46.59.5.6-.12.28-1.26 3.29-5.49 1.24l1.01-1.7"/><path d="M139.15 282.34c1.09 1 1.77 1.38 2.33 1.34.49-.14.71-.64.78-1.82l.22-.07c.04.11.1.21.17.3.13.15.22.18.35.11l.17-.12-.01.2c-.01.32.1.45.42.49l.12.01-.05.13c-.27.65-.67 1.14-1.27 1.6-1.31.8-2.55.73-4.39-.28l.14-.21c1.76.97 2.93 1.05 4.15.3.52-.38.86-.8 1.12-1.33-.3-.08-.43-.22-.47-.53-.17.04-.3-.02-.46-.2l-.01-.02c-.14 1.06-.41 1.52-.98 1.67-.63.05-1.36-.34-2.49-1.39l.16-.18"/><path fill="#96877d" d="m126.68 285.73-.56 2.48c-.05.06-.63.74-.5.91.25.03 1.3-.5 1.34-.53.05-.01 1.68-.64 2.3-1.25.44.75 1.12.67 1.17.67.01-.02.04-.36-.05-.56.4-.04.72-.21.73-.22.01-.05.2-.63-.28-.86.07-.53.28-.93-.56-.74-.75.89-2.09 1.83-2.58 1.77-.17-.29 1.33-1.4 1.01-2.52l-2.02.85"/><path d="m126.79 285.73-.57 2.51-.02.03c-.12.14-.23.27-.33.41-.08.12-.13.21-.16.28l-.03.05c.13.03.5-.11 1.25-.52h.01l.01-.01c1.17-.41 1.86-.8 2.23-1.2l.12-.14.06.13c.24.45.51.63.98.63.01-.17-.01-.29-.06-.38l-.11-.18.23-.01c.23-.01.42-.07.62-.17.09-.39.03-.57-.24-.68l-.07-.02.01-.08c0-.05.02-.13.03-.24.04-.23.04-.35.01-.4-.06-.07-.18-.07-.44-.01-1.23 1.53-1.97 2.01-2.69 1.78-.07-.04-.1-.09-.1-.17a.4.4 0 0 1 .07-.21c.05-.08.15-.22.32-.43.66-.83.84-1.33.68-1.75l.2-.14c.2.52.01 1.09-.72 2.02-.16.19-.26.32-.3.39-.02.04-.03.06-.03.07.62.19 1.29-.27 2.44-1.72l.03-.04.04-.01c.38-.1.58-.08.7.06.05.1.06.27.01.55l-.02.16c.34.16.41.42.26.96l-.02.05-.04.03c-.2.11-.39.18-.61.22.03.12.03.27 0 .45l-.01.11-.11.01c-.56.05-.9-.12-1.2-.59-.43.4-1.14.78-2.23 1.17-.82.44-1.24.58-1.43.53-.11-.06-.12-.14-.05-.32.04-.09.1-.2.2-.34.09-.14.2-.27.31-.4l.55-2.45.22.01"/><path fill="#1A1A1A" opacity=".2" d="M8 195.25c170.83-85.22 341.03-54.42 513.26-27.97 155.21 23.84 312.16 44.57 470.74-34.53v672c-170.83 85.22-341.03 54.42-513.26 27.97C323.53 808.88 166.58 788.15 8 867.25v-672m31.25 19.39v604.5c306.56-128.26 611.18 96.04 921.5-33.78v-604.5c-306.56 128.26-611.18-96.04-921.5 33.78"/></svg>