<svg xmlns="http://www.w3.org/2000/svg" viewBox="0 0 128 128" style="enable-background:new 0 0 128 128" xml:space="preserve"><path style="opacity:.6;fill:#81d4fa" d="M80.37 12.67c-19.85 0-34.8 14.95-34.8 34.8s16.15 36.01 36.01 36.01 34.8-14.95 34.8-34.8-16.16-36.01-36.01-36.01"/><path style="fill:#616161" d="M80.37 12.67c19.85 0 36.01 16.15 36.01 36.01s-14.95 34.8-34.8 34.8-36.02-16.15-36.02-36.01 14.95-34.8 34.81-34.8m-27.62 7.18c-12.98 14.29-19.6 37.66-1.17 56.09 19.9 19.9 46.51 11.64 60.73-2.88 7.69-7.85 17.35-36.61-2.33-56.28s-48.61-6.42-57.23 3.07z"/><path style="fill:#bdbdbd" d="m28.22 90.86 8.33 8.38 19.62-19.8s1.66-3.19-1.62-6.47c-3.28-3.28-6.71-1.91-6.71-1.91l-19.62 19.8z"/><path style="fill:#616161" d="M39.5 76.96c1.13-.9 5.05-3 9.36 1.28 4.3 4.28 2.55 7.66 1.7 8.91 0 0-30.53 33.87-31.92 35.27-2.05 2.05-6.26.3-10.16-3.6-3.9-3.9-5.78-7.67-3.58-9.87 1.79-1.79 33.47-31.09 34.6-31.99z"/><path style="fill:#bdbdbd" d="M84.08 8.64c19.85 0 36 16.15 36 36s-16.15 36-36 36-36-16.15-36-36 16.16-36 36-36m0-3.96c-22.06 0-39.95 17.89-39.95 39.95s17.89 39.95 39.95 39.95 39.95-17.89 39.95-39.95S106.15 4.68 84.08 4.68z"/><ellipse transform="rotate(-45.001 10.994 116.31)" style="fill:#424242" cx="10.99" cy="116.31" rx="3.56" ry="9.25"/><linearGradient id="a" gradientUnits="userSpaceOnUse" x1="20.75" y1="15.232" x2="37.146" y2="41.824" gradientTransform="rotate(21.936 59.706 136.603)"><stop offset=".285" style="stop-color:#fff"/><stop offset="1" style="stop-color:#fff;stop-opacity:0"/></linearGradient><path style="fill:url(#a)" d="M72.52 16.93c-8.6 3.9-13.79 9.96-16.99 17.72-1.18 2.86-2 6.05-1.13 9.02.87 2.96 3.95 5.44 6.94 4.7 1.98-.49 3.41-2.17 4.86-3.61a27.98 27.98 0 0 1 7.66-5.36c3.54-1.68 7.42-2.59 10.9-4.41 3.47-1.82 6.66-4.88 7.12-8.77.45-3.81-1.96-7.61-5.34-9.44-3.38-1.83-9.06-2.1-14.02.15z"/><g style="opacity:.59"><path style="fill:#fff" d="M52.24 25.22c.46-.01.88-.23 1.13-.61 1.35-1.98 4.49-7.3 13.03-12.01 4.98-2.75 9.16-3.84 10.65-4.15 4.22-.88 2.76-3.07.02-2.7-3.11.42-16.78 3.43-26.02 17.24-.64.97.03 2.26 1.19 2.23z"/></g><g style="opacity:.59"><path style="fill:#fff" d="M117.06 61.69c-1.29.16-2.48 2.4-2.72 2.79-1.25 2.04-3.7 7.1-12.22 11.85-3.97 2.21-8.06 3.83-10.1 4.39-3.33.92-2.61 3.2.1 2.7 3.09-.57 16.61-4.2 25.2-18.42.6-1 1.46-3.52-.26-3.31z"/></g><linearGradient id="b" gradientUnits="userSpaceOnUse" x1="58.224" y1="96.402" x2="62.358" y2="53.685" gradientTransform="rotate(12.17 64.008 220.104)"><stop offset=".285" style="stop-color:#fff"/><stop offset="1" style="stop-color:#fff;stop-opacity:0"/></linearGradient><path style="fill:url(#b)" d="M86.02 76.23c-4.53-.14-5.41-2.24-4.48-3.93.74-1.34 2.47-1.61 4-1.73 8.15-.64 16-5.59 22.06-10.87-1.07 5.49-3.19 8.35-6.52 11.02-3.26 2.6-8.12 5.73-15.06 5.51z"/></svg>