<svg xmlns="http://www.w3.org/2000/svg" viewBox="0 0 128 128" style="enable-background:new 0 0 128 128" xml:space="preserve"><path style="fill:#5bcefa" d="M124 38.2c-1.8 1.1-3.7 2.1-5.4 2.8-1.8.8-3.5 1.5-5.2 2s-3.4 1-5.1 1.3-3.3.5-4.9.7-3.2.2-4.8.2-3.1-.1-4.6-.2-3-.3-4.5-.5-2.9-.5-4.4-.7-2.9-.6-4.3-.9-2.8-.7-4.2-1l-4.2-1.2-4.2-1.2-4.2-1.2-4.2-1.2-4.2-1.2-4.2-1.2c-1.4-.4-2.8-.7-4.2-1s-2.9-.6-4.3-.9c-1.5-.3-2.9-.5-4.4-.7s-3-.4-4.5-.5-3.1-.2-4.6-.2-3.1.1-4.8.2-3.2.4-4.9.7c-1.7.3-3.3.7-5.1 1.3s-3.5 1.2-5.2 2c-1.8.8-3.6 1.7-5.4 2.8V21c1.8-1.1 3.7-2.1 5.4-2.9s3.5-1.5 5.2-2 3.4-.9 5.1-1.3c1.7-.3 3.3-.5 4.9-.7 1.6-.1 3.2-.2 4.8-.2s3.1.1 4.6.2c1.5.1 3 .3 4.5.5s3 .4 4.4.7 2.9.6 4.3.9c1.4.3 2.8.7 4.2 1 1.4.4 2.8.8 4.2 1.1s2.8.8 4.2 1.2l4.2 1.2 4.2 1.2 4.2 1.2c1.4.4 2.8.8 4.2 1.1s2.8.7 4.2 1c1.4.3 2.9.6 4.3.9s2.9.5 4.4.7 3 .4 4.5.5 3.1.2 4.6.2 3.1-.1 4.8-.2 3.2-.4 4.9-.7c1.7-.3 3.3-.7 5.1-1.3s3.5-1.2 5.2-2 3.6-1.7 5.4-2.9v17.8z"/><path style="fill:#f5a9b8" d="M124 55.6c-6.76 4.13-14.71 6.63-22.63 6.96-8 .34-15.89-1.13-23.62-3C61.77 55.71 46.09 48.79 29.4 48.8c-8.87 0-17.7 2.34-25.4 6.8V38.21s1.92-1.13 2.58-1.47c2.18-1.15 4.5-2.15 6.83-2.95 4.91-1.69 10.07-2.48 15.25-2.58 10.64-.19 21.01 2.8 31.14 5.69 10.3 2.94 20.53 6.26 31.2 7.6 11.47 1.44 23.05-.42 33-6.5v17.6z"/><path style="fill:#fff" d="M124 73c-6.76 4.13-14.71 6.63-22.63 6.96-7.89.33-16.04-.91-23.62-3.04-8.28-2.32-16.55-4.73-24.82-7.09-3.88-1.11-7.87-2.02-11.86-2.67-3.82-.62-7.79-1.16-11.66-1.17-9.07-.03-17.58 2.47-25.4 7v-17.4s1.69-.99 2.25-1.29c2.23-1.2 4.6-2.23 6.98-3.07 4.95-1.73 10.19-2.54 15.42-2.63 10.51-.18 20.75 2.73 30.76 5.58C69.85 57.17 80.2 60.54 91 61.9c11.47 1.44 23.05-.42 33-6.5V73z"/><path style="fill:none" d="M124 73c-1.8 1.1-3.7 2.1-5.4 2.8-1.8.8-3.5 1.4-5.2 2s-3.4.9-5.1 1.3c-1.7.3-3.3.5-4.9.7s-3.2.2-4.8.2-3.1-.1-4.6-.2-3-.3-4.5-.5-2.9-.4-4.4-.7-2.9-.6-4.3-.9-2.8-.7-4.2-1.1l-4.2-1.2-4.2-1.2L64 73l-4.2-1.2-4.2-1.2-4.2-1.2c-1.4-.4-2.8-.7-4.2-1s-2.9-.6-4.3-.9c-1.5-.3-2.9-.5-4.4-.7s-3-.4-4.5-.5-3.1-.3-4.6-.3-3.1.1-4.8.2-3.2.4-4.9.7c-1.7.3-3.3.7-5.1 1.3s-3.5 1.2-5.2 2c-1.7.7-3.5 1.7-5.4 2.8V55.6c1.8-1.1 3.7-2.1 5.4-2.8s3.5-1.5 5.2-2 3.4-1 5.1-1.3c1.7-.3 3.3-.5 4.9-.7 1.6-.1 3.2-.2 4.8-.2s3.1.1 4.6.2c1.5.1 3 .3 4.5.5s3 .5 4.4.7 2.9.6 4.3.9 2.8.7 4.2 1l4.2 1.2 4.2 1.2 4.2 1.2 4.2 1.2 4.2 1.2 4.2 1.2c1.4.4 2.8.7 4.2 1 1.4.3 2.9.6 4.3.9 1.4.3 2.9.5 4.4.7s3 .4 4.5.5 3.1.2 4.6.2 3.1-.1 4.8-.2 3.2-.4 4.9-.7c1.7-.3 3.3-.7 5.1-1.3s3.5-1.2 5.2-2 3.6-1.7 5.4-2.8V73z"/><path style="fill:#f5a9b8" d="M124 90.4c-6.7 4.09-14.43 6.47-22.26 6.9-7.89.43-16.01-.77-23.61-2.87-8.29-2.29-16.55-4.72-24.82-7.09-7.67-2.19-15.55-3.87-23.56-3.94-9.05-.08-18.01 2.27-25.75 7V73s2.99-1.69 3.7-2.03c5.01-2.43 10.28-3.92 15.79-4.63 10.97-1.41 22 1.4 32.49 4.27 5.62 1.53 11.2 3.2 16.8 4.8 5.39 1.54 10.78 2.99 16.34 3.74 5.98.8 12.05 1.11 18.03.06 5.93-1.05 11.7-3.16 16.85-6.31v17.5z"/><path style="fill:#5bcefa" d="M124 107.8c-1.8 1.1-3.7 2.1-5.4 2.8-1.8.8-3.5 1.4-5.2 2s-3.4.9-5.1 1.3-3.3.5-4.9.7c-1.6.1-3.2.2-4.8.2s-3.1-.1-4.6-.2-3-.3-4.5-.5-2.9-.4-4.4-.7-2.9-.6-4.3-.9-2.8-.7-4.2-1.1l-4.2-1.2-4.2-1.2-4.2-1.2-4.2-1.2-4.2-1.2-4.2-1.2c-1.4-.4-2.8-.7-4.2-1.1s-2.9-.6-4.3-.9c-1.5-.3-2.9-.5-4.4-.7s-3-.4-4.5-.5-3.1-.2-4.6-.2-3.1.1-4.8.2-3.2.4-4.9.7-3.3.7-5.1 1.3-3.5 1.2-5.2 2-3.6 1.7-5.4 2.8V90.4c1.8-1.1 3.7-2.1 5.4-2.8 1.8-.8 3.5-1.4 5.2-2s3.4-.9 5.1-1.3c1.7-.3 3.3-.5 4.9-.7 1.6-.1 3.2-.2 4.8-.2s3.1.1 4.6.2 3 .3 4.5.5 3 .4 4.4.7 2.9.6 4.3.9 2.8.7 4.2 1.1l4.2 1.2 4.2 1.2 4.2 1.2 4.2 1.2 4.2 1.2 4.2 1.2c1.4.4 2.8.7 4.2 1.1 1.4.3 2.9.6 4.3.9s2.9.5 4.4.7 3 .4 4.5.5 3.1.2 4.6.2 3.1-.1 4.8-.2 3.2-.4 4.9-.7c1.7-.3 3.3-.7 5.1-1.3s3.5-1.2 5.2-2 3.6-1.7 5.4-2.8v17.4z"/><g style="opacity:.2"><path style="fill:#424242" d="M120 26.6v79.41s-10.58 4.91-20.25 4.78c-10.64-.13-20.83-2.55-30.96-5.5-7.53-2.19-14.97-4.64-22.6-6.48-10.2-2.46-20.94-2.84-31.1-.06-2.51.69-4.75 1.83-7.1 2.94V22.43s6.67-3.86 16.68-4.83c10.08-.98 20.09 1.28 29.73 3.94 18.93 5.22 39.05 13.97 58.85 7.75 2.31-.71 4.58-1.66 6.75-2.69m4-6.2c-8.9 5.44-18.94 7.61-29.31 6.95-10.36-.67-20.39-3.7-30.31-6.54-10.05-2.87-20.23-6.03-30.73-6.73-5.09-.34-13.74-.18-22.21 3.15-1.1.43-7.44 3.66-7.44 3.66v86.91c8.76-5.35 18.95-7.51 29.13-6.86 10.61.68 20.71 3.95 30.87 6.86 10.09 2.88 20.16 6.18 30.7 6.85 10.08.64 19.47-1.06 29.3-6.85V20.4z"/></g></svg>