<svg xmlns="http://www.w3.org/2000/svg" viewBox="0 0 1000 1000"><path fill="#ed1c24" d="M8 195.25c170.83-85.22 341.03-54.42 513.26-27.97 155.21 23.84 312.16 44.57 470.74-34.53v672c-170.83 85.22-341.03 54.42-513.26 27.97C323.53 808.88 166.58 788.15 8 867.25v-672"/><path fill="#005da4" d="M8 195.25c170.83-85.22 341.03-54.42 513.26-27.97 155.21 23.84 312.16 44.57 470.74-34.53v448c-170.83 85.22-341.03 54.42-513.26 27.97C323.53 584.88 166.58 564.15 8 643.25v-448"/><path fill="#fff" d="M8 195.25c170.83-85.22 341.03-54.42 513.26-27.97 155.21 23.84 312.16 44.57 470.74-34.53v224c-170.83 85.22-341.03 54.42-513.26 27.97C323.53 360.88 166.58 340.15 8 419.25v-224"/><path fill="#005da4" d="M312.47 376.56c-2.49 46.98-25.51 84.67-58.47 98.78-32.97-13.52-55.98-50.55-58.47-97.37l-5.16-103.53c40.7-30.38 86.56-30.38 127.26-1.6l-5.16 103.72"/><path fill="#fff" d="m206.28 391.14 23.86-44.89 9.51 17.14L254 323.92l14.35 39.2 9.51-17.32 23.86 44.29c-5.67 33.97-23.54 60.27-47.72 72.04-24.19-11.34-42.05-37.22-47.72-70.99"/><path fill="#005da4" d="M208.41 401.84c4.67 10.13 13.79 12.91 21.73 6.68 5.2-3.97 10.7-4.14 15.91-.49 5.19 3.76 10.71 3.72 15.9-.14 5.21-3.75 10.71-3.68 15.91.18 7.94 6.06 17.06 3.05 21.73-7.21v6.27c-4.67 10.27-13.79 13.27-21.73 7.21-5.2-3.86-10.7-3.92-15.91-.18-5.19 3.86-10.71 3.91-15.9.14-5.21-3.65-10.71-3.48-15.91.49-7.94 6.23-17.06 3.45-21.73-6.68v-6.27"/><path fill="#005da4" d="M208.41 414.39c4.67 10.12 13.79 12.9 21.73 6.79 5.2-4.09 10.7-4.26 15.91-.49 5.19 3.65 10.71 3.6 15.9-.15 5.21-3.85 10.71-3.79 15.91.19 7.94 5.94 17.06 2.94 21.73-7.33v6.38c-4.67 10.16-13.79 13.17-21.73 7.22-5.2-3.98-10.7-4.04-15.91-.18-5.19 3.74-10.71 3.79-15.9.14-5.21-3.76-10.71-3.6-15.91.49-7.94 6.11-17.06 3.34-21.73-6.68v-6.38"/><path fill="#fd0" d="m254 294.01 1.23 5.37 3.94-1.25-2.79 4.04 2.79 4.14-3.94-1.33-1.23 5.39-1.23-5.37-3.94 1.4 2.79-4.19-2.79-3.99 3.94 1.18 1.23-5.39M236.12 261.8l1.15 5.34 4.02-1.35-2.79 4.11 2.79 4.06-4.02-1.22-1.15 5.41-1.23-5.33-3.93 1.49 2.79-4.25-2.79-3.92 3.93 1.08 1.23-5.42M271.88 261.47l1.23 5.39 3.93-1.16-2.79 3.98 2.79 4.2-3.93-1.42-1.23 5.36-1.15-5.39-4.02 1.3 2.79-4.11-2.79-4.06 4.02 1.27 1.15-5.36"/><path fill="#ed1c24" d="m194.8 271.19 5.33 106.02c2.31 43.49 23.36 78.2 53.87 91.52 30.5-13.86 51.56-49.14 53.87-92.77l5.33-106.2c1.47.99 2.96 2.08 4.43 3.08l-5.16 103.72c-2.49 46.98-25.51 84.67-58.47 98.78-32.97-13.52-55.98-50.55-58.47-97.37l-5.16-103.53c1.47-1.06 2.96-2.2 4.43-3.25"/><path fill="#1A1A1A" opacity=".2" d="M8 195.25c170.83-85.22 341.03-54.42 513.26-27.97 155.21 23.84 312.16 44.57 470.74-34.53v672c-170.83 85.22-341.03 54.42-513.26 27.97C323.53 808.88 166.58 788.15 8 867.25v-672m31.25 19.39v604.5c306.56-128.26 611.18 96.04 921.5-33.78v-604.5c-306.56 128.26-611.18-96.04-921.5 33.78"/></svg>