<svg xmlns="http://www.w3.org/2000/svg" xmlns:xlink="http://www.w3.org/1999/xlink" viewBox="0 0 128 128" style="enable-background:new 0 0 128 128" xml:space="preserve"><radialGradient id="a" cx="63.6" cy="1104.9" r="56.96" gradientTransform="translate(0 -1042)" gradientUnits="userSpaceOnUse"><stop offset=".5" style="stop-color:#fde030"/><stop offset=".92" style="stop-color:#f7c02b"/><stop offset="1" style="stop-color:#f4a223"/></radialGradient><path style="fill:url(#a)" d="M63.6 118.8c-27.9 0-58-17.5-58-55.9S35.7 7 63.6 7c15.5 0 29.8 5.1 40.4 14.4 11.5 10.2 17.6 24.6 17.6 41.5s-6.1 31.2-17.6 41.4c-10.6 9.3-25 14.5-40.4 14.5z"/><path style="fill:#fff" d="M49.52 41c-.34-.19-.67-.38-1-.54-8.35-4.15-18.48-.75-22.63 7.6s-.75 18.48 7.6 22.63c8.35 4.15 18.48.75 22.63-7.6 3.95-7.95 1.07-17.61-6.6-22.09z"/><defs><path id="b" d="M49.52 41c-.34-.19-.67-.38-1-.54-8.35-4.15-18.48-.75-22.63 7.6s-.75 18.48 7.6 22.63c8.35 4.15 18.48.75 22.63-7.6 3.95-7.95 1.07-17.61-6.6-22.09z"/></defs><clipPath id="c"><use xlink:href="#b" style="overflow:visible"/></clipPath><g style="clip-path:url(#c)"><circle style="fill:#422b0d" cx="41.75" cy="43.52" r="7.31"/></g><path style="fill:#fff" d="M94.16 41c-.34-.19-.68-.38-1-.54-8.32-4.14-18.41-.74-22.55 7.57-4.14 8.32-.74 18.41 7.57 22.55 8.32 4.14 18.41.74 22.55-7.57 3.94-7.92 1.07-17.54-6.57-22.01z"/><defs><path id="d" d="M94.16 41c-.34-.19-.68-.38-1-.54-8.32-4.14-18.41-.74-22.55 7.57-4.14 8.32-.74 18.41 7.57 22.55 8.32 4.14 18.41.74 22.55-7.57 3.94-7.92 1.07-17.54-6.57-22.01z"/></defs><clipPath id="e"><use xlink:href="#d" style="overflow:visible"/></clipPath><g style="clip-path:url(#e)"><circle style="fill:#422b0d" cx="86.38" cy="43.52" r="7.31"/></g><path style="fill:#f4a223" d="M69.71 55.84a17.99 17.99 0 0 0 5.74 10.72c1.47 1.29 3.17 2.31 5 3 1.82.69 3.75 1.03 5.69 1 3.95 0 7.77-1.45 10.72-4.07 3.1-2.8 5.13-6.59 5.74-10.72h.2c0 9.2-7.46 16.66-16.66 16.66s-16.66-7.46-16.66-16.66v-.01l.23.08zm-44.58 0a17.99 17.99 0 0 0 5.74 10.72c1.47 1.29 3.17 2.31 5 3 1.82.69 3.75 1.03 5.69 1 3.95 0 7.76-1.45 10.72-4.07 3.1-2.8 5.13-6.59 5.74-10.72h.2c0 9.2-7.46 16.66-16.66 16.66S24.9 64.98 24.9 55.78v-.01l.23.07z"/><path style="fill:#eb8f00" d="M111.49 29.67c5.33 8.6 8.11 18.84 8.11 30.23 0 16.9-6.1 31.2-17.6 41.4-10.6 9.3-25 14.5-40.4 14.5-18.06 0-37-7.35-48.18-22.94 10.76 17.66 31 25.94 50.18 25.94 15.4 0 29.8-5.2 40.4-14.5 11.5-10.2 17.6-24.5 17.6-41.4 0-12.74-3.47-24.06-10.11-33.23z"/><path style="fill:#422b0d" d="M75 98H53c-2.21 0-4-1.79-4-4s1.79-4 4-4h22c2.21 0 4 1.79 4 4s-1.79 4-4 4z"/></svg>