<svg xmlns="http://www.w3.org/2000/svg" viewBox="0 0 128 128" style="enable-background:new 0 0 128 128" xml:space="preserve"><path style="fill:#b0b0b0" d="M9.93 67.23s3.52-5.7 9.01-11.76c2.01-2.21 5.07-5.49 5.21-6.76.14-1.27-2.11-8.09-3.24-13.73-.94-4.71-1.41-10.7.28-12.53s11.23.04 16.89 2.82c5.8 2.84 8.77 5.34 9.57 5.35 1 .01 6.9-4.65 16.05-4.5s15.63 4.36 16.89 4.36 5.34-3.04 10.98-5.98c6.62-3.45 14.36-3.73 15.91-2.6 1.55 1.13.56 9.29-.56 13.51-1.44 5.39-3.87 11.47-3.73 12.6.14 1.13 2.6 2.32 7.53 7.81 3.89 4.34 8.66 12.81 8.66 12.81L66.67 79.48 9.93 67.23z"/><path style="fill:#dedede" d="M5.71 75.12c0 .84 8.73 5.63 8.73 5.63s-10.42 3.8-10.42 4.5c0 1.13 15.91 16.75 31.53 22.1 13.02 4.46 40.22 9.99 61.94-1.2 18.86-9.71 25.06-17.25 25.06-18.37s-8.45-5.63-8.45-5.63 8.87-6.05 8.87-6.9c0-.84-3.52-7.04-4.65-8.87s-4.5-7.18-5.91-7.74c-1.41-.56-27.73-11.54-36.46-5.49-4.56 3.16-5.21 6.76-5.21 10.28 0 6.2.56 11.54.56 11.54s-2.11-2.32-5.77-2.39c-3.45-.07-5.42 1.9-5.42 1.9s1.06-8.66.92-11.9-.84-7.32-6.48-10.42c-8.07-4.44-28.19 3.62-34.35 7.11-4.22 2.39-8.87 5.56-10.42 7.95s-4.07 6.91-4.07 7.9z"/><path style="fill:#5d6268" d="M30.63 44.33c.32 0 2.8-2.54 5.44-4.69 2.78-2.27 5.91-4.55 5.91-4.79 0-.47-11.64-9.01-14.92-6.48s2.82 15.96 3.57 15.96zm56.03-9.67c-.03.33 3.2 2.21 5.73 4.5 2.53 2.3 5.02 4.65 5.35 4.6.66-.09 6.29-12.86 3.66-15.11s-14.65 5.08-14.74 6.01z"/><path style="fill:#464c4f" d="M43.02 102.52c1.82-.71 1.5-7.6 4.6-14.27 3.1-6.66 6.66-9.95 8.73-11.36 2.06-1.41 3.66-1.88 4.79-3.38s1.01-8.48-.09-10.93c-1.5-3.33-5.63-7.93-13.8-7.37-8.17.56-14.92 9.1-18.68 12.67-3.75 3.57-9.48 7.41-9.39 14.73.09 7.32 6.19 12.39 9.95 15.11 3.75 2.74 11.26 5.83 13.89 4.8zm28.15-27.5c-1.69-1.13-1.03-6.19-.94-8.54.09-2.35 1.03-8.35 7.41-10.04s9.76.84 13.61 3.47c3.85 2.63 7.79 6.15 10.51 8.07 6.1 4.32 11.26 9.76 9.95 15.58-1.31 5.82-5.11 9.45-10.98 13.61-6.1 4.32-11.73 7.88-13.7 6.66s-1.31-11.26-5.73-18.21c-4.4-6.94-8.15-9.28-10.13-10.6z"/><path style="fill:#2f2f2f" d="M64.84 82.15c-5.68.15-8.29 3.83-8.35 7.04-.09 4.55 1.97 5.44 2.91 6.01 1.17.7 2.87 1.24 2.06 2.77-.84 1.6-1.64 2.25-5.11 1.97-2.15-.17-3.01-2.28-5.16-1.64-2.86.84-.28 5.57 6.1 5.82 5.96.23 7.88-2.82 7.88-2.82s2.21 3.05 7.6 2.72c5.53-.34 8.4-5.21 5.21-6.15-2.29-.67-1.92 2.16-5.11 2.3-2.3.1-3.51-.58-4.36-1.69-.47-.61-.42-2.06.23-2.53.66-.47 3.83-1.69 3.94-6.1.09-3.71-2.68-7.84-7.84-7.7z"/><path style="fill:#000101" d="M54.47 67.49c0 3.41-1.5 6.36-4.58 6.17-2.52-.15-4.67-2.49-4.58-6.17.09-3.41 2.02-5.7 4.55-5.7s4.61 2.29 4.61 5.7zm31.3.59c-.13 3.41-.75 6.76-4.32 6.43-2.52-.23-4.31-2.53-4.08-6.21.21-3.4 1.97-5.85 4.5-5.75 2.53.08 4.02 2.12 3.9 5.53z"/><path style="fill:#b0b0b0" d="M47.15 64.51c-.46.93-.41 2.15.28 2.53.84.47 2.12-.29 2.58-1.22s.1-1.99-.61-2.35c-.71-.35-1.79.11-2.25 1.04zm31.86 1.03c-.46.93-.46 1.96.23 2.35.84.47 1.93-.06 2.39-.99.46-.93.28-1.95-.42-2.3s-1.74.02-2.2.94z"/></svg>