<svg xmlns="http://www.w3.org/2000/svg" viewBox="0 0 1000 1000"><path fill="#cc092f" d="M8 195.25c170.83-85.22 341.03-54.42 513.26-27.97 155.21 23.84 312.16 44.57 470.74-34.53v672c-170.83 85.22-341.03 54.42-513.26 27.97C323.53 808.88 166.58 788.15 8 867.25v-672"/><path fill="#ffd200" d="M8 195.25c217.32-108.42 432.27-28.29 656-9.84v672c-215.4-17.76-434.28-100.76-656 9.84v-672"/><path fill="#0046ae" d="M8 195.25c108.32-54.04 216.41-61.77 328-52.66v672c-108.09-8.82-216.66-2.88-328 52.66v-672"/><path d="M471.4 296.41c-1.84-.21-3.19.13-4.19.93 1.46.95 2.35 2.62 2.46 4.93v5.54l-4.06-.62c-1.66-.4-2.78-1.74-3.33-3.83-.67 1.2-1.1 3.1-1.15 5.56.05 2.46.48 4.51 1.15 5.91.55-1.97 1.63-2.97 3.33-2.86l4.06.61v26.65c-.1 2.2-.91 3.53-2.3 4.12 1.96.97 3.48 4.25 4.06 6.47.6-2.09 2.05-4.84 4.06-5.23-1.38-.99-2.22-2.61-2.32-4.83v-26.64l4.05.62c1.67.4 2.79 1.74 3.34 3.84.66-1.2 1.1-3.1 1.14-5.56-.04-2.46-.48-4.51-1.14-5.91-.55 1.97-1.63 2.96-3.34 2.85l-4.05-.62v-5.54c.1-2.29.96-3.66 2.43-4.18-.99-1.1-2.38-1.87-4.2-2.21"/><path fill="#f5d402" d="M471.4 297.56c-.93-.12-1.7-.02-2.4.17.9 1.3 1.45 2.82 1.51 4.67v5.54c0 .08-.02.15-.03.22v.88l-.64-.1c-.06.01-.11.02-.17.02l-4.06-.62c-1.34-.29-2.34-1.14-3.22-2.51-.22.91-.4 1.94-.42 3.22.02 1.26.18 2.38.39 3.35.89-1.15 1.87-1.7 3.25-1.57l4.9.74c-.01.12-.03.22-.03.34v.57c.01.08.03.16.03.24v26.64c-.07 1.78-.64 2.92-1.51 3.93.61.63 1.13 1.34 1.59 2.16.39.73.57 1.39.84 2.11.27-.64.45-1.24.84-1.85.46-.67.97-1.2 1.57-1.64-.87-1.27-1.45-2.65-1.51-4.43v-27.76l.67.11c.05-.01.11-.02.17-.01l4.05.62c1.35.29 2.35 1.14 3.22 2.52.22-.92.4-1.94.42-3.23a16.3 16.3 0 0 0-.39-3.34c-.88 1.15-1.86 1.69-3.25 1.56l-4.05-.62c-.06-.01-.12-.04-.17-.06l-.65-.1v-.88c-.01-.08-.02-.16-.02-.24v-5.54c.06-1.83.59-3.13 1.48-4.17-.71-.41-1.47-.77-2.41-.94"/><path d="M522.2 401.87c-2.47-2.85-4.44-5.8-5.96-9.21-3.43-8.26-4.9-17.7-4.95-27.29.24-4.01 3.06-8.07 3.3-11.31-.04-4.92-.34-7.91-.34-7.92 1.16.6 3.15 3.45 3.22 3.55-.01-.34-.34-7.71-1.96-9.89.05-.06.72-.86 3.53-.64-1.03-2.81-4.53-6.58-4.62-6.68.21-.44.54-.77 1.01-1.07 1-.55 2.29-.83 3.35-.97-1.1-.49-2.37-1.16-3.77-2-3.19-1.94-6.93-4.59-10.47-7.42-6.57-5.13-11.2-6.19-13.99-6.64-2.1-.31-4.66-.56-6.52.6-1.44 1.27-1.5 2.91-1.96 3.56-1.44 1.21-3.33.94-4.51.76-6.83-.32-7.03 8.32-7.05 8.86.13-.23 1.63-2.99 4.81-2.86 5.31 1.13 8.67 4.95 8.99 6.62-.06.58-.49.6-.56.6-3.3-.71-8.42-3.75-11.06-4.45v1.79c6.1 3.88 11.83 8.62 12.04 26.43-.03 11.24-1.06 22.28-5.07 30.72-1.54 2.96-3.5 5.27-5.99 7.37l24.27 9.72 24.26-2.23"/><path d="m497.93 390.66-24.26 3.72c-1.13-.64-6.21-3.67-9.93-6.93-6.44-5.98-9.75-10.98-17.35-12.8v-7.91c.08-4.23 1.03-7.88 1.12-11.92-3.07-1.91-12.21-17.67-20.35-25.6-12.17 9.27-21.25 25.17-21.46 33.44l.06 38.94-.06 195.15c-.15 3.52-1.53 8.15-1.54 8.21 4.45-2.36 12.31-15.8 14.21-21.54v2.76c6.66-3.54 11.46-13.29 13.74-18.8l.14 2.88c5.77-6.68 13.5-47.09 13.55-47.35l12.64 18.85c-.03.09-4.7 11.81-6.35 14 0 0 1.19.36 2.54.57-.83 1.51-7.14 13.07-9.18 17.48-2.02 3.95-3.06 2.18-6.04 1.57-2.65.03-7.4 3.86-8.65 6.02-.91 2.13-1.55 4.6-1.62 6.84.17 2.47 1.83 5.92 1.87 6 .24-1.13.55-1.47.56-1.49l5.66 10.29c.79.98 2.85 1.74 3.97.88 2.27-2.43 4.28-4.09 6.35-7.74.94-1.95 1.19-4.2 2.27-6.28l13.49-22.71.33 2.61c2.3-5.26 11.63-14.33 11.73-14.42l10.16 7.94c-.14.4-19 56-35.8 63.26.01 0 7.3 5.36 16.32 13.08l4.03 3.55c1.13-1.69 2.32-3.58 3.5-5.54 5.34-9.03 10.63-19.58 10.63-19.58.23 3.11-2.46 11.59-7.27 22.23-.95 2.07-1.94 4.23-3.03 6.42l3.64 3.46c8.95 8.78 17.12 18.39 20.37 26.62l2.19-7.14-2.19-7.81v-261.3l1.1-3.57-1.09-6.34"/><path fill="#b07f55" d="M497.92 661.87c-3.23-5.13-9.69-11.79-17.09-18.24 8.87-20.75 13.2-54.19 11.27-61.63-.01.04-3.77 17.29-8.14 26.91-4.17 8.84-9.28 18.67-14.19 25.84-4.08-2.97-8-5.54-11.36-7.45 14.66-13.69 29.85-62.22 29.91-62.44l-15.64-12.3c-.03.05-5.93 8.26-7.75 9.86 0 0-.85-4.74-1.29-6.46-.1.09-2.17 1.78-3.46 1.85l-.65-5.3c-1.71 1.05-3.97.53-4.11.49 2.14-1.59 4.83-9.36 4.92-9.65l-14.93-29.36c-.05.27-5.45 33.25-11.22 39.88V405.6l4.72 6.68 7.17-8.09v-6.96l-6.35 7.18v-20.99a79 79 0 0 0 2.07-4.32c1.05 2.64 4.42 10.49 8.25 15.78 1.01-3.52 4.67-6.1 4.87-6.24.06.21 1.64 5.5 3.84 7.57 1.07-1.79 5.57-5.37 5.68-5.45-.2.02-3.9.36-5.85 2.14-1.22-1.21-1.8-8.13-1.82-8.53-.22.12-5.73 3.2-7.19 5.92-1.05-.95-2.92-6.92-3.7-9.83 1.08 0 2.57.05 4.56.33 1.79.38 3.91 1.7 6.33 3.58 2.55 2.06 5.28 4.52 7.67 6.39 3.24 2.27 7.63 3.43 9.09 3.76a34.715 34.715 0 0 1-5.12 3.34c.19.03 7.1.81 12.48-1.68 1.85-1.33 3.71-2.67 5.38-4.29-.75 2.61-1.86 5.49-3.53 8.01 7.69-.05 11.16-4.81 12.4-6.83.51 1.86 1.44 4.79 2.79 7.5l2.74.42v253.87l-2.75 7.01M442.19 354.81l.14 4.76v13.95c-2.69-1.96-6.11-8.21-7.87-11.84v-1.91c.08-1.85.76-2.94 1.35-3.63l-1.65-1.04c-.64.95-1.25 2.21-1.32 4.13v1.11l-4.92 6.53-4.84-10.69v-2.45c.09-1.7.9-3.29 1.7-4.5l-1.62-1.03c-.83 1.4-1.6 3.12-1.68 5v1.99l-5.57 7.07-2.83-8.67c3.48-5.98 8.89-12.32 14.08-16.83.08.11 11.33 15.41 15.03 18.05M413.7 364.33v11.51l-3.92 4.44V363.2c.05-1.67.51-3.5 1.34-5.6l2.58 6.73"/><path fill="#b07f55" d="M425.9 370.44v7.11l-4.51 5.15v-22.25l4.51 9.99M419.8 382.44l-4.51-6.35v-8.33l4.51-5.85v20.53M440.37 376.71c-1.13 1.97-3.83 6.2-6.75 8.17v-19.54c.74 1.78 3.89 8.7 6.75 11.37M432.03 366.11v18.04l-4.51-6.37v-6.38l4.51-5.29M413.7 382.79v18.01l-3.92-5.53v-7.99l3.92-4.49M419.79 389.4v6.46l-4.5 5.11v-17.92l4.5 6.35M425.89 384.51v17.93l-4.5-6.4v-6.38l4.5-5.15M432.02 391.15v6.38l-4.5 5.13v-17.92l4.5 6.41M438.12 404.21l-4.5-6.42v-6c1.53-1.16 3.06-3.19 4.5-5.54v17.96M426.71 410.54l4.75-5.37v148.31l.56 12.24-10.07 12.5V403.8l4.76 6.74M419.23 572.3c-.28 4.99-6.28 14.69-9.46 17.15V402.23l4.7 6.63 4.76-5.4V572.3"/><path fill="#d10429" d="m458.75 561.91 3.47-2.72.53 3.78-14.25 24.33c-.94 1.87-1.92 6.49-1.93 6.55-.08-.07-1.39-1.17-1.54-3.01.02-1.77.17-3.84.17-3.84-.08.11-1.08 1.46-3.13 1.34.28-2.13 2.78-4.11 3.19-7.14-2.49 1.82-4.27.69-7.08 1.26-2.95.95-3.77 2.23-4.68 2.2-.55-.24-.95-1.34-.81-2.18.66-1.43 3.81-4.17 6.55-4.75.93.13 4.99 1.89 6.38.31l11.08-21.71c.42-.07.78-.16 1.09-.37 0 .11.11 4.14.96 5.95"/><path fill="#d10429" d="M436.43 584.81c.19.36.17.74-.03.99l-1.56 1.64c-.24.2-.5.12-.73-.21-.18-.37-.17-.74.03-.99l1.57-1.65c.11-.11.22-.14.36-.1.13.05.26.15.36.32M438.81 587.41c.45.88.42 1.76-.05 2.36l-3.81 4c-.57.48-1.22.29-1.76-.52-.45-.89-.42-1.8.05-2.4l3.81-3.97c.2-.19.42-.28.67-.28.41.04.77.29 1.09.81M440.99 591.24c.45.89.42 1.76-.05 2.36l-3.84 3.99c-.57.49-1.19.3-1.73-.51-.45-.89-.42-1.8.06-2.4l3.8-3.96c.2-.2.4-.29.64-.29.42.04.8.29 1.12.81M442.31 594.22c.41.04.76.26 1.09.77.45.89.42 1.8-.06 2.4l-3.8 3.96c-.57.48-1.19.3-1.74-.52-.45-.89-.45-1.76.03-2.37l3.83-3.99c.2-.19.4-.25.65-.25"/><path d="m497.91 390.65 24.27 11.22c1.15-.31 6.2-1.78 9.93-3.91 6.46-4.04 9.69-8.03 17.35-7.6v-7.91c-.08-4.23-1.04-8.21-1.12-12.25 3.13-1.02 12.17-14.06 20.35-19.71 12.14 12.68 21.25 31.05 21.46 39.31l-.07 38.92.07 195.17c.14 3.52 1.53 8.56 1.54 8.61-4.39-3.47-12.33-19.17-14.22-25.36v2.76c-6.61-5.34-11.47-16.56-13.74-22.66l-.14 2.84c-5.74-8.31-13.5-51.08-13.54-51.28l-12.64 15.07c.02.07 4.7 13.23 6.35 15.9 0 .01-1.19.01-2.55-.19.84 1.77 7.15 15.22 9.18 20.22 2.03 4.53 3.06 3.08 6.05 3.33 2.54.78 7.44 6.08 8.65 8.52.91 2.39 1.55 5.06 1.62 7.3-.18 2.48-1.82 5.38-1.88 5.47-.23-1.19-.55-1.64-.56-1.65l-5.65 8.66c-.79.75-2.85.91-3.97-.27-2.27-3.08-4.29-5.37-6.36-9.62-.94-2.24-1.18-4.53-2.26-6.95l-13.49-26.76-.34 2.51c-2.25-5.86-11.66-17.92-11.72-18l-10.16 4.82c.1.33 19.09 61.95 35.79 74.14 0 0-7.3 3.19-16.31 8.17l-4.03 2.32c-1.13-2.03-2.32-4.28-3.5-6.61-5.35-10.67-10.63-22.85-10.63-22.85-.23 2.99 2.47 12.36 7.27 24.48l3.02 7.34-3.63 2.35c-8.99 6.05-17.1 13.04-20.38 20.32l-2.18-7.81 2.18-7.14v-261.3l-1.09-3.9 1.08-6.02"/><path fill="#b07f55" d="M497.92 661.87c3.26-4.15 9.68-8.77 17.1-12.95-8.88-23.51-13.19-58.32-11.28-65.12.01.03 3.77 18.44 8.15 29.43 4.16 10.12 9.28 21.52 14.19 30.2 4.08-1.73 7.99-3.1 11.36-4.01-14.63-18.07-29.87-71.43-29.92-71.59l15.64-7.49c.03.04 5.95 10.09 7.76 12.23 0 0 .85-4.49 1.28-6.07.08.09 2.23 2.46 3.47 2.9l.65-5.1c1.71 1.56 3.99 1.72 4.11 1.73-2.09-2.19-4.86-10.91-4.93-11.14l14.94-24.9c.03.21 5.46 34.88 11.22 43.15V424.87l-4.73 5.31-7.16-10.19v-6.96l6.35 9.04v-20.98c-.95-2.12-1.59-3.69-2.07-4.93-1.07 2.36-4.42 9.18-8.25 13.34-.99-3.71-4.73-7.54-4.87-7.69-.08.27-1.59 4.98-3.84 6.42-1.03-2.05-5.61-7.1-5.68-7.17.14.06 3.92 1.57 5.85 3.91 1.27-.87 1.79-7.5 1.82-7.98.15.12 5.78 5.01 7.19 8.07 1.1-.68 2.9-5.99 3.7-8.74-1.08-.31-2.58-.71-4.57-1.02-1.82-.16-3.89.52-6.32 1.69-2.56 1.29-5.28 2.92-7.67 4.07-3.24 1.28-7.6 1.11-9.09.98 1.57 1.73 3.27 3.35 5.12 4.92-.16-.03-7.09-1.36-12.48-5.51-1.85-1.9-3.72-3.82-5.38-5.96.74 2.82 1.86 6.08 3.53 9.11-7.61-2.4-11.19-8.32-12.4-10.67-.52 1.72-1.44 4.35-2.8 6.64l-2.73-.43v253.87l2.74 7.86M553.66 371.75l-.14 4.72v13.95c2.75-1.2 6.07-6.37 7.86-9.55v-1.91a7.492 7.492 0 0 0-1.34-4.02l1.65-.56c.64 1.12 1.25 2.58 1.32 4.5v1.11l4.92 7.93 4.84-9.33v-2.44c-.09-1.69-.91-3.56-1.7-4.98l1.62-.58c.82 1.63 1.59 3.6 1.68 5.47v1.99l5.57 8.61 2.82-7.91c-3.46-6.88-8.9-14.77-14.07-20.72-.14.15-11.25 12.13-15.03 13.72M582.15 389.33v11.51l3.92 5.5v-17.09c-.05-1.66-.51-3.63-1.34-5.95l-2.58 6.03"/><path fill="#b07f55" d="M569.95 392.07v7.11l4.5 6.41v-22.25l-4.5 8.73M576.05 405.77l4.51-5.11v-8.33l-4.51-7.09v20.53M555.48 394.19c1.1 2.25 3.86 7.34 6.75 10.12v-19.54c-.78 1.62-3.84 7.55-6.75 9.42M563.82 386v18.04l4.51-5.09v-6.38l-4.51-6.57M582.15 407.8v18l3.92-4.48v-7.99l-3.92-5.53M576.05 412.73v6.46l4.51 6.35v-17.92l-4.51 5.11M569.95 406.14v17.93l4.51-5.14v-6.39l-4.51-6.4M563.83 411.03v6.39l4.5 6.41v-17.92l-4.5 5.12M557.72 422.34l4.51-5.11v-6c-1.52-1.6-3.08-4.11-4.5-6.85l-.01 17.96M569.14 431.94l-4.76-6.72v148.31l-.56 12.07 8.53 12.99 1.55 2.36V426.53l-4.76 5.41M576.62 595.78c.27 4.99 6.31 16.46 9.45 19.72V428.28l-4.7 5.37-4.75-6.7v168.83"/><path fill="#d10429" d="m537.1 573.93-3.47-3.77-.53 3.63 14.24 28.59c.95 2.17 1.93 7.08 1.94 7.13.1-.06 1.38-.73 1.53-2.56-.01-1.77-.16-3.89-.16-3.89.06.11 1.12 1.79 3.13 2.26-.27-2.13-2.79-5.01-3.19-8.08 2.49 2.56 4.25 1.94 7.08 3.34 2.92 1.78 3.81 3.32 4.67 3.54.57-.08.96-1.05.82-1.94-.63-1.54-3.9-5.31-6.55-6.65-.91-.14-5 .42-6.38-1.55l-11.08-25.01c-.42-.2-.78-.4-1.1-.7 0 .14-.11 4.12-.95 5.66"/><path fill="#d10429" d="M559.41 603.43c-.18.31-.17.69.03.99l1.57 2.1c.24.27.5.27.73-.01.18-.31.17-.69-.03-.99l-1.57-2.1a.493.493 0 0 0-.36-.21c-.14.01-.26.08-.37.22M557.04 605.34c-.45.75-.43 1.63.05 2.37l3.81 5.11c.57.65 1.21.64 1.76-.02.45-.75.42-1.67-.06-2.41l-3.8-5.06c-.2-.25-.43-.41-.67-.49-.42-.07-.77.07-1.09.5M554.85 608.53c-.44.75-.42 1.64.06 2.38l3.83 5.11c.57.65 1.19.65 1.74-.02.45-.75.42-1.67-.06-2.41l-3.8-5.07c-.2-.25-.41-.4-.65-.47-.42-.08-.78.06-1.12.48M553.54 611.13c-.42-.08-.76.03-1.09.45-.45.75-.42 1.67.05 2.42l3.81 5.07c.57.65 1.19.64 1.74-.02.45-.75.44-1.63-.03-2.37l-3.84-5.11c-.19-.25-.4-.37-.64-.44"/><path fill="#b07f55" d="M492.31 317.1c6.28 1.18 10.62 5.45 16.6 10.06 1.56 1.17 2.98 2.15 4.25 2.95-.81.87-1.37 1.7-1.6 2.51.14.06 2.44 1.08 3.87 4.3-.19.01-2.28.04-2.94 1.95 1.47.62 2.67 2.84 2.82 5.37l-3.58-2.08c0 .01.8 5.62.87 11.6-.23 3.04-2.98 6.16-3.22 11.31.11 16.27 2.97 22.89 5.12 28.28.83 2.12 1.57 4.4 2.91 6.37-6.22-5.6-10.46-11.54-10.69-16.86v-19.61l-1.59-.25v19.61c.06 3.78.66 5.58.67 5.61 1 4.32 2.95 10.98 4.11 13.78-5.67-5.27-8.32-10.53-8.5-12.63v-26.94l-1.6-.25v27.33l.31 1.92c-.71 1.32-1.59 2.76-2.18 3.29-.58-.7-1.46-2.44-2.16-3.96l.31-1.83V361.6l-1.6-.24v26.94c-.19 2.11-2.79 6.46-8.5 10 1.15-2.44 3.11-8.48 4.11-12.51.01-.03.6-1.62.67-5.4v-19.61l-1.6-.25v19.61c-.23 5.31-4.41 9.87-10.66 13.57 1.33-1.56 2.06-3.61 2.88-5.48 2.35-5.18 5.12-11.62 5.21-31.5-.05-7.49-.85-12.57-2.21-16.39-.45-1.48-.99-4.11 2.27-3.93 1.71.61 5.43 4.79 5.56 4.95 0-.14-.26-3.1-2.12-5.45-.34-.42-.82-1.38-.87-2.32.08-.76.82-2.08 1.51-2.52-.06-.11-5.99-3.12-6.66-7.41.05-.96.38-1.4 1.9-1.23 1.87.55 5.17 3.68 7.9 4.39 2.08.25 2.88-.18 5 .09 2.46.84 8.15 7.47 9.86 7.98-2.11-2.38-5.44-8.86-10.47-10.11-1.76-.22-3.34-.03-4.98-.23-2.04-.56-4.23-3.05-6.44-3.63-1.62-.24-3.08-.43-3.47-.96-.39-1.04-.07-1.46.36-2.2.97-1.3 2.79-1.41 5.07-1.2.64.07 1.28.15 1.88.25.59.1 1.14.21 1.62.29"/><path fill="#cc092f" d="M471.97 324.46c.11-.23 1.24-2.88 4.67-2.7l6.01.79c.75 2.29 3.17 6.35 3.41 10.14-.14-.34-2.79-6.93-10.78-8.66-2.04-.22-3.25.4-3.31.43"/><path fill="#d10429" d="M484.88 333.84c-.02.03-1.6 2.18-2.06 3.42-1.61-1.3-4.54-5.61-4.59-5.68.13.11 2.38 2.11 6.65 2.26"/><path d="M482.2 326.99c-.11-.07-1.77-1.13-1.95-2.05.1-1.14.86-.99 1.51-.02.35.72.44 2.03.44 2.07M493.39 328.78c-.13 1.76-1.15 2.7-2.79 2.59-1.63-.39-2.67-1.67-2.8-3.45.13-1.76 1.15-2.7 2.8-2.59 1.62.39 2.66 1.67 2.79 3.45"/><path fill="#f5d402" d="M492.54 328.65c-.09 1.55-.8 2.41-1.94 2.36-1.13-.3-1.86-1.4-1.95-2.96.09-1.55.8-2.41 1.95-2.36 1.12.3 1.85 1.4 1.94 2.96"/><path d="M491.42 328.48c-.04.66-.34 1.02-.82 1-.48-.13-.79-.59-.83-1.26.04-.66.34-1.02.83-1 .48.13.78.59.82 1.26M446.09 597.79l8.85 7.91-2.15 13.14-8.85-7.91 2.15-13.14"/><path d="m404.83 462.69-3.19 1.58 36.04 112.77 3.83.56-36.68-114.91m42.51 133.11-2.61 3.29 1.63 5.13 3.16-1.52-2.18-6.9"/><path d="M416.03 549.21c.08.24 3.17 8.56 5.34 10.47-1.37-.4-4.9.74-5.07.8.18.24 6.79 8.8 12.63 10.64 5.07.83 7.13-1.65 7.3-1.85l-.98-7.25c-.08-.14-3.07-5.12-7.82-8.36-5-2.88-11.33-4.43-11.4-4.45M438.92 537.08c-.12.12-3.92 4.26-5.34 9.81-.94 5.65.71 12.11.74 12.24l3.53 9.48c.15-.1 4.58-2.85 6.96-7.84 1.87-5.19 1.32-12.13 1.31-12.28-.11.04-3.67 1.48-4.36 2.2.51-5.93-2.76-13.43-2.85-13.61h.01M425.44 532.87c-.14.04-4.63 1.32-9.4.52-4.45-1.42-7.9-6.25-8.08-6.5.22-.16 3.46-2.56 5.46-2.2-1.85-1.63-4.78-8.23-4.86-8.43.22-.06 3.83-.94 7.72 1.21 3.55 2.64 6.71 8.09 6.79 8.23l2.37 7.17M427.08 501.29c.06.18 2.08 6.92 1.82 9.34.88-1.42 3.48-3.44 3.54-3.48.02.11 1.49 11.03.07 17.67-1.99 6.53-6.3 8.28-6.54 8.39l-5.44-15.2c-.02-.16-.59-5.27.89-9.46 1.93-3.99 5.56-7.18 5.66-7.26M396.06 479.3c.17 0 4.91.07 9.86 3.19 3.87 3.03 5.1 6.81 5.15 6.98l1.95 7.37c-.3.1-5.28 1.82-10.05-.65-4.35-3.13-7.6-10.24-7.68-10.45.16-.06 2.91-1.03 4.27-.46-1.63-1.49-3.45-5.85-3.5-5.98M412.27 468.21c.05.1 2.05 4.2 2.32 8.84.82-2.36 3.33-4.55 3.43-4.64.03.1 2.7 9.91 2.27 16.73-.94 6.8-4.66 10.05-4.82 10.18l-5.21-14.2c-.03-.11-1.49-5.67-1.2-9.99.75-4.29 3.1-6.81 3.21-6.92M394.42 440.06c-.02.15-.72 7.08.65 11.68 1.48 3.96 2.31 4.88 2.33 4.91-2.94-2.68-6.66-3.47-6.81-3.5.04.18 1.63 7.9 4.94 12.27 3.88 3.91 8.56 3.93 8.86 3.93.08-.15 3.27-5.86 3.28-12.91-.47-7.02-4.21-14.79-4.27-14.89-.01.05-1.45 4.26-1.72 7.62-1.39-3.6-7.11-8.97-7.26-9.1v-.01M436.51 569l.14 2.66c3.26.47 3.64.18 4.52 1.64.66 1.07 1.74 1.88 3.16 1.37 1.33-.82 1.82-2.52 1.3-4.57-.72-1.91-1.72-2.38-2.99-2.3-.71.15-1.2.77-1.81 1.15-1.3.52-4.2.07-4.32.05"/><path d="m436.23 566.95 1.56 1.79c-1.72 3.51-2.13 3.73-1.77 5.49.24 1.3.06 2.92-1.12 3.99-1.35.82-2.68.26-3.64-1.53-.73-1.87-.39-3.2.43-4.4.54-.62 1.21-.71 1.83-1.08 1.07-.92 2.67-4.18 2.71-4.26M425.35 534.04l.15 2.66c3.25.46 3.63.17 4.51 1.63.67 1.06 1.74 1.87 3.16 1.35 1.33-.82 1.82-2.53 1.3-4.57-.71-1.91-1.72-2.37-2.99-2.29-.71.15-1.2.77-1.8 1.15-1.3.52-4.21.09-4.33.07"/><path d="m426 535.07 1.37 2.07c-2.13 3.06-2.57 3.17-2.41 4.97.1 1.31-.26 2.84-1.57 3.64-1.45.51-2.73-.32-3.49-2.26-.52-1.98-.03-3.19.93-4.18.62-.49 1.3-.44 1.97-.67 1.19-.68 3.14-3.48 3.2-3.57M414.54 501.31l.14 2.66c3.26.44 3.64.15 4.52 1.6.66 1.06 1.74 1.87 3.16 1.34 1.33-.82 1.82-2.54 1.3-4.58-.72-1.9-1.72-2.36-2.99-2.27-.71.15-1.2.77-1.81 1.16-1.3.53-4.2.11-4.32.09"/><path d="m415.43 500.88 1.37 2.06c-2.13 3.07-2.57 3.19-2.41 4.98.09 1.32-.27 2.84-1.58 3.65-1.45.52-2.73-.3-3.48-2.24-.52-1.98-.03-3.2.93-4.19.62-.49 1.3-.44 1.96-.68 1.2-.68 3.15-3.49 3.21-3.58M403.02 466.8l.15 2.66c3.25.42 3.63.12 4.51 1.57.67 1.06 1.74 1.86 3.16 1.33 1.33-.84 1.82-2.55 1.3-4.59-.72-1.9-1.72-2.35-2.99-2.26-.71.16-1.2.78-1.81 1.17-1.3.54-4.2.14-4.32.12"/><path d="m403.91 466.36 1.37 2.06c-2.13 3.08-2.57 3.2-2.41 4.99.1 1.32-.27 2.84-1.57 3.66-1.46.53-2.73-.29-3.49-2.22-.52-1.97-.03-3.2.93-4.19.62-.5 1.3-.46 1.97-.69 1.19-.7 3.14-3.52 3.2-3.61"/><path fill="#f5d402" d="m447.36 601.79 5.49 4.9-1.33 8.16-5.49-4.91 1.33-8.15M423.31 525.93c-1.19-.11-2.76-6.15-4.11-10.51-1.44-4.34-3.53-9.94-3.16-10.67.89-.05 1.8 2.61 3.21 6.98 1.49 4.52 4.75 13.25 4.06 14.2M411.49 488.27c-1.23 0-2.32-3.79-3.67-8.07-1.38-4.22-2.35-6.64-1.79-7.27.89-.02 1.92 2.86 3.07 6.42 1.2 3.55 3.12 8.01 2.39 8.92M438.84 573.83c-.91-.28-4.73-11.32-8.03-21.64-3.27-10.26-5.35-17.71-4.82-18.4.86.08 3.3 8.64 6.58 18.98 3.3 10.31 6.68 20.53 6.27 21.06"/><path fill="#097754" d="M396 444.74c0 .09.02 5.23 1.16 8.57 1.53 3.2 4.1 4.73 4.22 4.8 0-.1-.02-5.23-1.17-8.57-1.52-3.21-4.09-4.74-4.21-4.8M393.28 456.56c.13.03 3.21.78 5.39 3.02 1.86 2.51 2.72 6.6 2.74 6.72-.12 0-2.09-.05-4.24-2.29-1.87-2.46-3.86-7.38-3.89-7.45M404.01 447.07c-.02.05-1.02 3.37-1.01 7.27.27 3.88 1.76 8.34 1.78 8.39.02-.07 1.33-4.36 1.35-8.27-.28-3.87-1.65-6.23-2.12-7.39M398.25 480.94c.04.07 1.74 3.27 4.27 5.49 2.75 1.98 6.32 2.64 6.43 2.66-.03-.07-1.98-3.52-4.5-5.75-2.76-1.97-6.07-2.39-6.2-2.4M399.09 488.48c.04.12 1.29 3.27 3.49 5.17 2.44 1.57 6.74 2.18 6.87 2.2-.04-.07-1.82-3.18-4.03-5.03-2.42-1.61-6.23-2.32-6.34-2.34h.01M412.08 472.58c-.03.07-1.22 2.84-1.23 6.3.27 3.45 1.74 7.28 1.76 7.34.02-.05 1.03-4.06 1.02-7.51-.27-3.45-1.52-6.07-1.55-6.13M417.1 477.61c-.05.09-2.13 3.91-2.67 8.31-.14 4.43 1.3 9.01 1.33 9.1.1-.13 2.57-3.42 3.16-7.84.1-4.45-1.77-9.45-1.82-9.57M410.67 517.36c0 .02.32 1.58 1.25 3.43 1.03 1.79 2.64 3.8 2.65 3.81.07-.02 1.53-.41 3.61.38 1.99 1 4.63 3.62 4.67 3.67-.04-.1-2.97-6.03-5.84-8.92-3.21-2.55-6.16-2.38-6.34-2.37M410.37 527.37c.17-.07 3.55-1.45 6.78-.7 3.06 1.25 5.71 4.54 5.81 4.66-.15.05-3.98 1.18-7.19.41-3.06-1.23-5.3-4.24-5.4-4.37M426.07 505.93c-.11.15-3 4.22-3.56 8.38.03 4.22 2.55 8.17 2.66 8.34 0-.04-.07-2.62.36-4.33.56-1.67 1.58-3.37 1.59-3.38 0-.03.39-2.04.28-3.79-.33-2.42-1.32-5.19-1.33-5.22M430.78 512.1c-.08.1-2.86 3.81-3.91 8.31-.61 4.58.61 9.43.64 9.55.1-.1 2.58-2.59 3.63-7.1.64-4.55-.34-10.67-.36-10.76M438.53 540.82c.01.03 1.32 4.2 1.76 7.6.31 3.42.03 4.48.03 4.5-.01.01-1.43 1.75-2.1 2.79-.76 1.45-.96 3.96-.96 4.03-.07-.17-2.62-6.2-2.46-10.59.73-4.32 3.63-8.19 3.73-8.33M444.67 550.97c-.1.07-3.51 2.84-5.21 6.05-1.32 3.39-.74 6.74-.71 6.88.18 0 2.41.01 4.13-3.17 1.32-3.36 1.78-9.67 1.79-9.76M420.18 561.68c.07.01 5.25.68 8.65 2.11 3.27 1.76 4.42 4.04 4.48 4.14-.21.1-3.47 1.59-6.98.28-3.24-1.88-6.06-6.36-6.15-6.53M419.27 552.85c.06.15 2.51 5.19 5.55 7.77 4.61 2.96 9.09 2.65 9.32 2.63-.06-.11-2.78-4.69-6.45-7.46-3.93-2.4-8.29-2.92-8.42-2.94"/><path d="m603.18 479.1.7 2.11c-.06.03-1.04.4-1.65 1.71-.4 1.41.3 3.27.33 3.37-.22-.06-5.65-1.18-6.83-.76-.56.87.23 6.19-.19 11.02-.97 6.44-2.46 5.71-2.74 6.94 0 1.26.71 3.23.72 3.27-.06.01-1.02.34-1.34.93-.27 1 .15 2.89-.2 4.1l-8.87 22.59c-.42.85-1.22 1.15-1.76 2.32-.36 1.17-.1 2.8-.09 2.85-.11 0-1.5-.05-2.23 1.38-.53 1.63-.27 3.76-.26 3.82-.07.01-.95.06-1.56 1.35-.44 1.44.27 2.28.14 2.93l-9.77 24.81c-1.14 2.13-3.75 2.42-5.82 6.88-1.45 4.7.61 8.06.75 8.29-.18 0-2.36.01-3.3 1.7-.61 2.01-.13 4.5 1.74 6.33 2.08 1.49 3.73.87 4.64-.97.5-1.91-.64-4.89-.7-5.03.28.08 3.18 1.06 5.29-3.26 1.59-4.67.49-8.44 1.18-10.77l9.76-24.82c.36-.56 1.14.02 1.8-1.33.44-1.37.02-2.57 0-2.63.07-.04 1.42-.72 2.15-2.27.45-1.57-.27-3.43-.31-3.52.07-.03 1.12-.44 1.65-1.54.4-1.22.2-2.46.48-3.37l8.87-22.61c.57-1.11 1.84-1.46 2.32-2.37.17-.65-.12-2.11-.14-2.16.08 0 1.53-.06 2.33-.74.52-.87-.54-2.58 2.71-6.99 2.72-3.05 6.1-4.63 6.41-5.93-.32-1.54-3.88-7.99-3.95-8.09.12-.01 1.49-.02 2.16-1.3.44-1.38.18-2.91.17-2.97l1.62-.18v-10.51l-6.21 5.42m-53.65 138.98c-.23.66-.27 1.46 0 2.33-.11-.06-1.85-.99-2.63-.77-.32.68-.01 12.76 0 13.03.26-.18 7.29-5.57 7.7-6.54-.26-1.05-1.72-2.92-1.77-2.98.66-.09 1.09-.49 1.37-1.13.24-.8.25-2.45-1.48-4.12-.7-.56-1.23-.76-1.74-.79-.82.05-1.25.53-1.45.97"/><path fill="#f5d402" d="m604.6 479.7 3.69 3.02-.05-6.08-3.64 3.06M603.17 483.19c-.4 1.34-.02 2.76 1.04 3.76 1.16.82 2.14.58 2.74-.65.41-1.33.02-2.75-1.03-3.76-.42-.32-.8-.46-1.21-.49-.7.02-1.19.36-1.54 1.14M596.82 487.01c-.19.44.08 4.79.03 8.75-.19 3.64-.91 4.54-1.43 5.74-.53 1.1-1.94 2.23-1.99 2.27l1.29 1.92s.82-1.67 2.16-5.03c1.37-4.05 1.74-11.41 1.96-11.87.45-.23 3.6-.98 3.63-.98 0-.01-2.97-.58-4.61-.78-.57-.07-.93-.08-1.04-.02"/><path fill="#f5d402" d="M597.16 508.04c0-.01.44-1.57 1.93-5.41 2.01-4.54 5.46-7.74 5.76-8.52-.03-.93-1.32-5.28-1.34-5.33-.11.01-3.25.56-3.89 1.03-.26.64-.44 6.82-2.07 11.51-1.52 3.83-2.24 5.21-2.24 5.22l1.85 1.5"/><path fill="#f5d402" d="M605.86 494.58c-.22.65-4.26 4.63-6.02 8.53-1.3 3.37-1.87 5.26-1.87 5.26l1.79.61c0-.04-.05-2.47.31-3.63.45-1.25.65-2.62 2.69-4.7 2.36-2.14 4.98-3.87 5.2-4.48-.17-.57-3.33-6.6-3.36-6.64.01.01 1.17 4.4 1.26 5.05M592.71 520.15c2.76-6.86 3.47-7.29 3.86-8.14.34-1.03.26-2.14-.92-3.25-.47-.37-.82-.49-1.18-.5-.59.06-.94.42-1.2 1.03-.29.88-.22 2.09-2.86 8.99l-6.12 15.57c-.05.11-.56 1.39.55 2.52 1.28.85 1.7-.48 1.74-.6l6.13-15.62M581.88 537.5c-.26.95.22 2.13 1.29 3.12 1.15.86 2.06.87 2.52.03.25-.95-.25-2.13-1.32-3.12-.55-.43-1.04-.63-1.51-.66-.48.01-.78.19-.98.63M579.61 541.85c-.34 1.23.22 2.72 1.51 3.92 1.4 1.04 2.51 1.01 3.08-.08.34-1.23-.22-2.71-1.51-3.91-.49-.4-.94-.62-1.4-.73-.8-.12-1.34.1-1.68.8M578.18 546.85c-.25.95.22 2.14 1.29 3.12 1.15.87 2.07.88 2.52.04.26-.95-.22-2.13-1.29-3.11-.55-.44-1.06-.65-1.54-.68-.47.02-.77.2-.98.63M577.26 551.7l-9.21 23.43c-.99 1.83-3.76 2.89-5.26 5.98-1.14 3.47-.38 6.27 1.29 7.94 1.89 1.32 3.85.93 5.37-2.33 1.03-3.28.36-7.64.9-9.66l9.21-23.44c.04-.11.58-1.38-.54-2.52-.31-.25-.55-.3-.78-.3-.67.11-.96.84-.98.9M560.05 591.72c-.43 1.43.06 3.04 1.31 4.24 1.38 1.01 2.53.84 3.19-.46.43-1.43-.09-3.04-1.34-4.24-.49-.4-.93-.6-1.4-.66-.82-.04-1.38.29-1.76 1.12M550.98 618.33c-.41-.02-.68.08-.84.41-.19.75.26 1.75 1.2 2.63 1.02.77 1.8.84 2.16.2.19-.75-.26-1.75-1.2-2.62-.49-.39-.92-.56-1.32-.62M547.79 621.3v9.02l5.37-4.48c-.02-.05-.76-1.77-2.32-3.21-1.68-1.3-2.98-1.33-3.05-1.33M551.19 420.89c.39-5.07 4.55-8.94 4.76-9.12l-116.03-17.61c.17.19 4.38 5.43 4.76 10.51v117.97c.07 3.15.71 5.16 1.82 7.37 1.19 2.31 3.5 5.52 5.96 8.15 7.68 7.84 20.34 16.96 30 24.43 8.07 6.25 11.22 8.76 15.48 16.45 4.27-6.39 7.41-7.89 15.5-11.66 9.67-4.5 22.31-9.75 30-15.31 2.48-1.91 4.75-4.39 5.96-6.37 1.11-1.89 1.72-3.68 1.79-6.85V420.89"/><path fill="#d10429" d="M447.42 471.82v-66.74c-.14-3.83-1.36-6.22-1.4-6.29l103.83 15.82c-.05.08-1.26 2.04-1.4 5.87l.03 66.75-50.53 13.19-50.53-28.6"/><path fill="#0b45bb" d="m548.48 487.23-31.29-5.55-38.48-5.94-31.29-3.92v51.22c.1 2.73 1.97 8.67 13.24 18.25 18.74 15.51 32.8 23.74 37.28 31.56 4.5-6.48 18.5-10.26 37.27-20.11 11.3-6.19 13.14-11.56 13.24-14.29l.03-51.22"/><path d="M516.43 479.69c.34-.06 17.6-3.39 18.05-29.8-.42-20.55-17.72-33.58-18.61-38.55-1.48 8.27 5.83 21.13 6.05 35.06-.43 17.97-9.39 17.36-9.71 17.35-2.28-.13-3.2 1.52-4.09 1.59-1.81-.84-2.92-3.74-4.7-4.32-1.77.08-3.14 2.89-5.48 2.89-2.24-.69-3.79-3.99-5.46-4.59-1.87.04-2.82 2.58-4.7 2.87-.84-.32-1.88-2.29-4.09-2.85-.31-.08-9.28-2.29-9.71-20.33.22-13.93 7.54-24.4 6.04-33.21-.9 4.79-18.17 12.3-18.6 32.86.45 26.45 17.74 35.17 18.05 35.32L474.32 486c.24.06 7.08 1.77 11.41 6.87 4.62 6.54 4.33 17.83 4.31 26.59-.03 6.94-.72 13.53-3.16 16.33-3.58 3.39-5.48 3.38-5.71 7.98.23 3.91 2.03 4.91 5.71 8.07 4.46 4.2 4.4 8.02 11.06 9.35 6.71.74 6.59-3.09 11.08-5.92 3.7-2.04 5.47-2.43 5.71-6.31-.23-4.63-2.15-5.27-5.71-9.75-2.43-3.54-3.13-10.4-3.16-17.31-.02-8.79-.31-20.13 4.31-25.25 4.36-3.79 11.1-3.38 11.41-3.36l-5.15-13.6"/><path d="m497.93 410.39-3.13 11.67-8.54-6.86 4.06 12.29-8.9 2.94 8.9 5.7-4.06 10.99 8.54-4.22 3.13 12.64 3.17-11.67 8.53 6.86-4.06-12.24 8.9-2.95-8.9-5.69 4.06-11.03-8.53 4.22-3.17-12.65M478.71 475.74c-.22-.11-10.76-5.47-15.31-13.57-7.52 7.74-15.82 9.61-15.98 9.65.03.02 8.97 6.99 15.98 15.12 3.57-5.69 15.09-11.1 15.31-11.2M517.19 481.68c.14.11 11.79 9.21 15.31 15.88 7.01-6.01 15.93-10.31 15.97-10.33-.11-.06-8.48-4.45-15.97-14.44-4.6 6.79-15.01 8.84-15.31 8.89M483.27 492.64l-4.34 5.26 4.34 6.59 4.34-5.25-4.34-6.6M512.63 497.18l-4.34 5.26 4.34 6.59 4.34-5.25-4.34-6.6M482.18 527.07c-.04 7.49-.53 11.34-.53 11.35.3-.09 5.68-1.5 7.33-9.81.56-4.24 1-17.97-1.73-21.36l-7.98-3.37c.85 3.09 2.82 12.34 2.91 23.19M508.65 510.56c-2.74 2.56-2.3 16.36-1.73 20.83 1.63 8.73 7.08 11.92 7.33 12.07 0-.01-.49-4.02-.53-11.52.09-10.85 2.06-19.46 2.91-22.29l-7.98.91M463.38 504.02c-2.84.85-4.24 3.84-3.73 7.96.12.59.29 1.14.48 1.68-.41-.24-.82-.42-1.26-.54-.18-.04-.36-.06-.53-.08-2.77 0-4.55 2.01-4.95 5.8.03 4.1 1.83 7.13 4.78 8.17.43.1.83.14 1.23.11-.24.42-.44.87-.61 1.4-.9 3.72.2 7.42 2.85 9.6 2.92 1.67 5.33.6 6.69-2.92.16-.53.25-1.05.31-1.6.25.49.53.95.87 1.39 2.49 2.79 5.1 2.87 7.24.23 1.73-3.01 1.49-6.82-.64-9.96-.34-.42-.69-.77-1.06-1.08.39-.12.77-.3 1.14-.55 2.39-2.03 3.02-5.64 1.63-9.46-1.2-2.49-2.75-3.71-4.68-3.96-.86-.03-1.61.18-2.4.7-.37.26-.69.56-.98.92-.01-.57-.04-1.15-.14-1.74-.82-3.55-2.68-5.63-5.21-6.11-.34-.02-.69-.02-1.03.04M517.94 532.83c.78 7.44 4.73 13.6 10.08 16.41-.88-2.18-1.45-4.45-1.68-6.87-.43-8.81 3.96-14.44 10.72-13.74 1.04.18 2.02.49 3.02.96-2.54-5.67-6.54-9.55-11.42-10.52-6.75-.71-11.15 4.94-10.72 13.76"/><path fill="#ffd200" d="M471.35 438.6c.19 13.77 5.17 22.02 12.34 23.42 1.28.41 2.89 2.71 4.09 3.11 2.06.02 3.45-2.31 4.7-2.41 1.51.55 2.77 3.54 5.46 4.29 2.78.09 3.89-2.51 5.48-2.59 1.17.45 2.73 3.26 4.7 3.86 1.27-.03 2.75-1.83 4.09-1.85 7.22.82 12.15-5.89 12.34-19.62-.23-11.09-6.45-25.48-6.04-27.61.19.22 12.82 14.84 13.23 30.27-.48 24.67-17.91 27.82-18.27 27.89l4.11 13.29c-.22.01-5.36.44-9.12 3.56-4.47 4.69-4.67 17.84-4.67 27.37.01 11.05.36 15.47 3.19 19.03 3.21 3.63 5.1 4.62 5.34 7.82-.25 2.82-2.2 3.5-5.46 4.93-3.48 1.84-3.86 4.86-8.92 4.39-4.99-1.11-5.46-4.24-8.9-7.15-3.23-2.42-5.21-3.77-5.46-6.61.24-3.18 2.12-3.51 5.34-6.17 2.84-2.69 3.18-6.98 3.19-18.05 0-9.48-.21-22.75-4.67-28.81-3.74-4.25-8.96-6.32-9.12-6.38l4.11-12.02c-.32-.16-17.79-8.77-18.27-33.48.41-15.43 13-26.04 13.23-26.23.43 2.35-5.8 14.67-6.04 25.75m19.67 104.67c-3.78-.47-5.63.08-5.87 1.61.24 1.58 2.12 2.71 5.87 3.4 1.05.08 1.93-.4 2.05-2.17-.12-1.8-1.02-2.6-2.05-2.84m13.86 2.14c-1.05-.07-1.93.43-2.05 2.21.12 1.79 1.01 2.56 2.05 2.8 3.78.48 5.63-.04 5.87-1.58-.24-1.57-2.12-2.74-5.87-3.43"/><path fill="#ffd200" d="m497.97 418.58 2.01 8.08 5.43-2.72-2.57 7.06 5.65 3.62-5.65 1.88 2.57 7.81-5.43-4.35-2.04 7.4-2.02-8.03-5.43 2.68 2.58-7.02-5.65-3.63 5.65-1.88-2.58-7.85 5.43 4.4 2.05-7.45M472.75 475.29l-9.35 8.05-.11.18-.2-.26-10.35-10.42c.16-.06 6.34-2.22 10.49-6.95 3.96 6.26 9.37 9.32 9.52 9.4M543.16 486.67c-.07.03-6.74 3.73-10.36 7.31l-.19.19-.11-.2c-3.45-5.59-9.29-10.86-9.35-10.91.21-.05 5.52-1.39 9.51-6.5 4.13 5.95 10.39 10.04 10.5 10.11M483.27 495.47l2.27 3.45-2.27 2.78-2.29-3.49 2.29-2.74M512.63 500.01l2.29 3.45-2.29 2.78-2.27-3.48 2.27-2.75M486.35 509.48c1.47 3.33 1.33 7.93 1.32 14.73-.35 6.86-3.51 8.65-3.73 8.79-.04-16.28-1.2-20.38-1.87-25.41l4.28 1.89M513.83 512.5c-.67 4.83-1.83 8.55-1.87 24.83-.19-.17-3.39-3.06-3.73-9.94-.01-6.82-.14-11.45 1.32-14.32l4.28-.57M468.75 511.71c.1.63.12 1.22.08 1.81-.04.49-.13.91-.25 1.34-.64-.4-1.28-.64-1.99-.76-1.82-.17-3.14.51-4.33 2.02-.28-.39-.52-.79-.73-1.26-.23-.52-.42-1.08-.53-1.68-.39-3.23.69-5.49 2.91-6.18.27-.05.54-.05.81-.03 1.96.37 3.39 1.99 4.03 4.74M474.71 522.82c-.4.27-.79.4-1.22.48-.36.04-.68.01-1.04-.06.01-.91-.08-1.82-.29-2.77-.63-2.39-1.72-4.08-3.21-5.3.16-.44.34-.84.58-1.21.28-.41.58-.76.95-1.04 2.1-1.17 4.09-.23 5.51 2.58.14.34.26.71.35 1.06.56 2.66.01 4.88-1.63 6.26M469.46 532.92c-.35-.47-.62-.97-.84-1.52-.18-.45-.3-.9-.39-1.37.64-.17 1.22-.48 1.8-.95 1.4-1.3 2.13-3.04 2.36-5.29.37.12.72.27 1.08.51.4.28.77.6 1.12 1.05 1.65 2.46 1.83 5.39.5 7.76-.19.26-.39.49-.6.68-1.65 1.3-3.35 1.04-5.03-.87M460.24 528.06c.19-.56.42-1 .71-1.41.24-.33.5-.57.79-.79.39.8.85 1.52 1.41 2.18 1.53 1.61 2.99 2.17 4.66 2.02.08.51.12 1.01.1 1.53-.03.57-.1 1.14-.26 1.68-1.06 2.74-2.93 3.54-5.2 2.23-.26-.18-.5-.4-.72-.64-1.54-1.84-2.11-4.28-1.49-6.8M459.8 514.96c.47.12.87.34 1.28.64.33.25.61.54.88.88-.4.66-.7 1.42-.93 2.3-.47 2.25-.26 4.43.52 6.54-.33.21-.65.35-1.02.44-.42.08-.83.1-1.29 0-2.29-.82-3.67-3.19-3.7-6.38.02-.38.07-.74.14-1.08.67-2.48 2.06-3.65 4.12-3.34M470.46 522.68c-.19 3.08-1.59 4.78-3.87 4.69-2.24-.59-3.68-2.76-3.86-5.86.18-3.08 1.59-4.79 3.86-4.69 2.24.58 3.68 2.75 3.87 5.86M534.4 525.41c-6.55 1.02-10.82 7.51-10.36 16.88-2.04-2.77-3.4-5.87-3.8-9.45-.3-7.01 2.86-11.13 8.42-10.6 2.12.41 3.94 1.46 5.74 3.17"/><path fill="#1A1A1A" opacity=".2" d="M8 195.25c170.83-85.22 341.03-54.42 513.26-27.97 155.21 23.84 312.16 44.57 470.74-34.53v672c-170.83 85.22-341.03 54.42-513.26 27.97C323.53 808.88 166.58 788.15 8 867.25v-672m31.25 19.39v604.5c306.56-128.26 611.18 96.04 921.5-33.78v-604.5c-306.56 128.26-611.18-96.04-921.5 33.78"/></svg>