<svg xmlns="http://www.w3.org/2000/svg" viewBox="0 0 128 128" style="enable-background:new 0 0 128 128" xml:space="preserve"><radialGradient id="a" cx="63.6" cy="2880.9" r="56.96" gradientTransform="translate(0 -2818)" gradientUnits="userSpaceOnUse"><stop offset=".5" style="stop-color:#fde030"/><stop offset=".92" style="stop-color:#f7c02b"/><stop offset="1" style="stop-color:#f4a223"/></radialGradient><path style="fill:url(#a)" d="M63.6 118.8c-27.9 0-58-17.5-58-55.9S35.7 7 63.6 7c15.5 0 29.8 5.1 40.4 14.4 11.5 10.2 17.6 24.6 17.6 41.5s-6.1 31.2-17.6 41.4c-10.6 9.3-25 14.5-40.4 14.5z"/><path style="fill:#eb8f00" d="M111.49 29.67c5.33 8.6 8.11 18.84 8.11 30.23 0 16.9-6.1 31.2-17.6 41.4-10.6 9.3-25 14.5-40.4 14.5-18.06 0-37-7.35-48.18-22.94 10.76 17.66 31 25.94 50.18 25.94 15.4 0 29.8-5.2 40.4-14.5 11.5-10.2 17.6-24.5 17.6-41.4 0-12.74-3.47-24.06-10.11-33.23z"/><path style="fill:#422b0d" d="m48.6 54.7-.2.2-.5.5c-.2.2-.4.3-.7.6-.32.26-.65.49-1 .7-.4.2-.8.5-1.2.7s-.9.4-1.4.6c-.49.18-.99.31-1.5.4-.53.09-1.06.12-1.6.1h-.9c-.24.02-.48-.02-.7-.1-.51-.09-1.01-.22-1.5-.4-.48-.16-.95-.36-1.4-.6-.4-.2-.8-.5-1.2-.7-.7-.5-1.3-1-1.7-1.3l-.6-.6-.2-.2a3.622 3.622 0 0 0-4.6-.2 2.68 2.68 0 0 0-.8 3.2l.2.3c.11.28.25.54.4.8.61 1.03 1.35 1.97 2.2 2.8.59.58 1.23 1.12 1.9 1.6.79.55 1.62 1.02 2.5 1.4.96.44 1.97.77 3 1l1.7.3c.3 0 .7.1.8.1h.8c1.11 0 2.21-.1 3.3-.3 1.04-.21 2.04-.55 3-1 .88-.38 1.71-.85 2.5-1.4.7-.45 1.34-.99 1.9-1.6.49-.45.93-.95 1.3-1.5.2-.2.3-.5.5-.7s.3-.4.4-.6c.17-.24.31-.51.4-.8l.1-.2a2.79 2.79 0 0 0-1.42-3.67c-.12-.05-.25-.1-.38-.13a3.007 3.007 0 0 0-3.4.7zm44.9 0-.2.2-.5.5c-.2.2-.4.3-.7.6-.32.26-.65.49-1 .7-.4.2-.8.5-1.2.7s-.9.4-1.4.6c-.49.18-.99.31-1.5.4-.53.09-1.06.12-1.6.1h-.9c-.24.01-.47-.03-.7-.1-.51-.09-1.01-.22-1.5-.4-.48-.16-.95-.36-1.4-.6-.4-.2-.8-.5-1.2-.7-.7-.5-1.3-1-1.7-1.3l-.6-.6-.2-.2a3.622 3.622 0 0 0-4.6-.2 2.68 2.68 0 0 0-.8 3.2l.2.3c.11.28.25.54.4.8.61 1.03 1.35 1.97 2.2 2.8.59.58 1.23 1.12 1.9 1.6.79.55 1.62 1.02 2.5 1.4.96.44 1.97.77 3 1l1.7.3c.3 0 .7.1.8.1h.8c1.11 0 2.21-.1 3.3-.3 1.04-.21 2.04-.55 3-1 .88-.38 1.71-.85 2.5-1.4.72-.43 1.36-.97 1.9-1.6.49-.45.93-.95 1.3-1.5.2-.2.3-.5.5-.7s.3-.4.4-.6c.17-.24.31-.51.4-.8l.1-.2a2.79 2.79 0 0 0-1.42-3.67c-.12-.05-.25-.1-.38-.13a3.007 3.007 0 0 0-3.4.7z"/><path style="fill:#5f7aff" d="M77.2 21.6a3.54 3.54 0 0 0-1.1-.4c-.4-.2-.9-.3-1.3-.5l-2.1-.6c-.8-.3-1.7-.5-2.5-.8-1.6-.5-3.6-1.8-4.6.5-.27.49-.41 1.04-.4 1.6 0 .8.6 1.2 1.3 1.5.74.33 1.51.59 2.3.8.25.13.52.19.8.2.2 0 .4.1.4.3s-.2.2-.3.3-.4.3-.6.4l-.3.2c-.54.4-1.11.77-1.7 1.1-.4.3-.9.6-1.3.9-.22.1-.42.23-.6.4-.59.4-1.16.84-1.7 1.3l-.2.2c-.54.43-.93 1.03-1.1 1.7-.1.9.6 1.3 1.4 1.7l.9.3c1.05.39 2.12.73 3.2 1 .8.3 1.7.5 2.5.8 1.6.5 3.6 1.8 4.6-.5.27-.49.41-1.04.4-1.6-.1-.71-.61-1.3-1.3-1.5-.74-.33-1.51-.59-2.3-.8-.2 0-.3-.1-.5-.2s-.3-.1-.4-.1c-.2-.2.2-.4.3-.5.42-.23.82-.5 1.2-.8.42-.27.82-.57 1.2-.9.2-.1.4-.3.6-.4.4-.3.9-.6 1.3-.9 1.1-.9 3.6-2 2.8-3.7-.21-.4-.52-.75-.9-1zm19.9-9.5a5.64 5.64 0 0 0-1.2-.4c-.5-.1-1-.3-1.5-.4-.8-.2-1.6-.3-2.3-.5-.9-.2-1.9-.5-2.8-.7-1.8-.4-4.1-1.6-5 1-.24.57-.35 1.18-.3 1.8.1.9.8 1.3 1.6 1.5.82.28 1.65.51 2.5.7.3.1.6.1.9.2s.4.1.4.3-.2.3-.3.4-.4.3-.6.5-.2.1-.3.2c-.6.5-1.2.9-1.8 1.4L85 19.2c-.2.1-.4.3-.6.4-.6.5-1.2 1-1.7 1.5-.1.1-.2.1-.2.2-.61.5-1 1.22-1.1 2 0 1 .8 1.4 1.7 1.8l1 .3c1.15.36 2.32.66 3.5.9.9.2 1.9.5 2.8.7 1.8.4 4.1 1.6 5-1 .24-.57.35-1.18.3-1.8-.1-.9-.8-1.3-1.6-1.5-.85-.29-1.72-.53-2.6-.7-.2 0-.4-.1-.6-.1s-.4 0-.5-.1.2-.4.3-.5c.4-.3.8-.6 1.3-1l1.3-1c.22-.19.45-.36.7-.5.49-.34.95-.71 1.4-1.1 1.1-1.1 3.8-2.4 2.7-4.3-.13-.56-.5-1.03-1-1.3zM123.6 9c-.38-.64-.93-1.17-1.6-1.5-.52-.21-1.05-.38-1.6-.5-.65-.21-1.32-.38-2-.5-1-.3-2.1-.5-3.1-.7-1.2-.3-2.5-.7-3.7-1-2.4-.6-5.4-2.2-6.7 1.3-.33.76-.46 1.58-.4 2.4a2.43 2.43 0 0 0 2.1 2c1.12.36 2.25.66 3.4.9.4.1.8.2 1.1.3s.6.1.6.4c-.04.22-.19.41-.4.5-.3.2-.5.4-.8.6-.11.12-.25.23-.4.3-.8.6-1.6 1.2-2.3 1.8l-1.8 1.5c-.25.22-.52.42-.8.6-.8.6-1.5 1.3-2.3 2l-.3.3a3.76 3.76 0 0 0-1.4 2.6c0 1.3 1.1 1.9 2.3 2.4.42.18.85.31 1.3.4h.1c1.5.5 3.1.8 4.7 1.2l3.7.9c2.4.6 5.5 2.2 6.7-1.3.33-.76.46-1.58.4-2.4a2.43 2.43 0 0 0-2.1-2c-1.1-.42-2.24-.76-3.4-1-.3-.1-.5-.1-.8-.2-.22 0-.42-.07-.6-.2-.3-.3.2-.6.4-.7.59-.4 1.16-.84 1.7-1.3.6-.5 1.2-.9 1.7-1.4.32-.2.63-.44.9-.7.64-.44 1.25-.95 1.8-1.5 1.5-1.3 5-3.1 3.6-5.5z"/><path style="fill:#422b0d" d="M55.7 99.3c-3.83-.07-6.88-3.24-6.81-7.07.02-1.29.41-2.55 1.11-3.63 3.1-4.8 8-7.3 14-7.3s10.9 2.5 14 7.3c1.39 2.1 1.5 4.79.3 7a7.005 7.005 0 0 1-6 3.7c-.79.02-1.57-.11-2.3-.4-1.93-.67-3.96-1.01-6-1-2.04-.02-4.07.32-6 1-.74.27-1.52.41-2.3.4z"/></svg>