<svg xmlns="http://www.w3.org/2000/svg" viewBox="0 0 128 128" style="enable-background:new 0 0 128 128" xml:space="preserve"><radialGradient id="a" cx="63" cy="-2091.1" r="56.96" gradientTransform="matrix(1 0 0 -1 0 -2028)" gradientUnits="userSpaceOnUse"><stop offset=".5" style="stop-color:#fde030"/><stop offset=".92" style="stop-color:#f7c02b"/><stop offset="1" style="stop-color:#f4a223"/></radialGradient><path style="fill:url(#a)" d="M63 119c-27.9 0-58-17.5-58-55.9S35.1 7.2 63 7.2c15.5 0 29.8 5.1 40.4 14.4C114.9 31.8 121 46.2 121 63.1s-6.1 31.2-17.6 41.4C92.8 113.8 78.4 119 63 119z"/><linearGradient id="b" gradientUnits="userSpaceOnUse" x1="63" y1="1457" x2="63" y2="1345.2" gradientTransform="translate(0 -1338)"><stop offset="0" style="stop-color:#f4a223"/><stop offset=".381" style="stop-color:#f7c02b"/><stop offset=".748" style="stop-color:#fde030;stop-opacity:0"/></linearGradient><path style="fill:url(#b)" d="M63 119c-27.9 0-58-17.5-58-55.9S35.1 7.2 63 7.2c15.5 0 29.8 5.1 40.4 14.4C114.9 31.8 121 46.2 121 63.1s-6.1 31.2-17.6 41.4C92.8 113.8 78.4 119 63 119z"/><path style="fill:#eb8f00" d="M110.89 29.87c5.33 8.6 8.11 18.84 8.11 30.23 0 16.9-6.1 31.2-17.6 41.4-10.6 9.3-25 14.5-40.4 14.5-18.06 0-37.04-7.35-48.18-22.94C23.58 110.72 43.81 119 63 119c15.4 0 29.8-5.2 40.4-14.5C114.9 94.3 121 80 121 63.1c0-12.74-3.47-24.06-10.11-33.23z"/><radialGradient id="c" cx="35.545" cy="72.576" r="19.444" gradientTransform="matrix(.9791 0 0 .9301 -3.756 10.846)" gradientUnits="userSpaceOnUse"><stop offset="0" style="stop-color:#ed7770"/><stop offset=".9" style="stop-color:#ed7770;stop-opacity:0"/></radialGradient><circle style="opacity:.8;fill:url(#c)" cx="31.05" cy="78.35" r="17.5"/><radialGradient id="d" cx="101.637" cy="72.576" r="19.444" gradientTransform="matrix(.9791 0 0 .9301 -3.756 10.846)" gradientUnits="userSpaceOnUse"><stop offset="0" style="stop-color:#ed7770"/><stop offset=".9" style="stop-color:#ed7770;stop-opacity:0"/></radialGradient><circle style="opacity:.8;fill:url(#d)" cx="95.75" cy="78.35" r="17.5"/><circle style="fill:#fff" cx="82.04" cy="58.16" r="18.53"/><circle style="fill:#422b0d" cx="81.88" cy="58.16" r="8.04"/><path style="fill:#896024" d="M81.1 52.69c-1.07-.56-2.59-.02-3.49 1.7-.9 1.72-.46 3.27.61 3.83s2.59.02 3.49-1.7c.9-1.72.46-3.27-.61-3.83z"/><path style="fill:#422b0d" d="M70 92.41c-.56 0-1.12.12-1.66.36-5.96 2.72-11.34.17-11.56.06-1.98-.96-4.37-.16-5.35 1.81-.98 1.97-.2 4.35 1.76 5.34.36.18 8.92 4.42 18.47.07A4 4 0 0 0 70 92.41z"/><linearGradient id="e" gradientUnits="userSpaceOnUse" x1="48.154" y1="75.909" x2=".527" y2="123.909" gradientTransform="scale(-1 1) rotate(-55.383 -55.813 191.123)"><stop offset="0" style="stop-color:#fff176"/><stop offset="1" style="stop-color:#ffc400"/></linearGradient><path style="fill:url(#e)" d="M76.68 97.9c-1.46-1.9-4.02-6.07-8.8-12.22-3.34-4.29-15.77-12.94-19.08-17.47-1.71-2.34-3.15-4.69-2.23-6.42 3.06-5.77 6.93-.85 6.93-.85s-8.84-4.91-3.11-10.09c2.51-2.26 4.94-1.99 10.12 1.87 0 0 22.27 15.35 24.14 14.07 1.86-1.29-4.14-25.54-4.44-33.36-.16-4.22-.34-7.65 3.56-8.7 5.68-1.54 6.35 6.44 6.24 5.29s1.53-4.16 5.61-4.96c3.16-.63 4.72 3.41 5.74 9.46 1.02 6.05 6.61 28.07 9.29 29.92 0 0 .94-11.93 6.74-16.18 2.63-1.93 7.22-2.7 7.79.56.33 1.92.33 5.24-1.19 10.15-1.31 4.21-1.22 14.66-.76 22.35.39 6.49 1.99 16.95-12.5 24.92-15.9 8.73-27.64-.05-34.05-8.34z"/><path style="fill:#eb8f00" d="M79.53 33.75c-.35-3.34-.51-6.02 1.84-8.25 2.59-2.47 5.47-2.42 6.92-.95.61.62 1.23 1.59 1.84 3.05.94-2.41 2.69-3.48 5.16-3.84 2.87-.42 5.29 1.68 6.33 6.21.62 2.69 7.14 28.2 8.41 29.62 0 0 .02-9.3 8.64-13.4 2.36-1.12 5.12-1.02 7.22 1.22s-.48 6.31-2.16 16.97c-.91 5.78-.65 12.64-.65 12.64s-2.74-3.68-1.4-16.56c.5-4.83 3.87-9.86 1.44-11.66-1.57-1.16-3.16-1.39-6.13 1.35-6.11 5.64-4.6 14.79-4.94 15.93-.34 1.14-1.49 1.8-3.53-3.61-2.03-5.4-7.29-25.43-8.91-31.6-1.31-4.98-3.14-5.39-5.42-4.18-2.84 1.5-2 6.24-1.59 7.79.34 1.28 3.6 18.82 5.39 24.87.38 1.28 1.37 3.26 1.24 4.17-.15 1-3.58 2.94-4.2-2.23-.68-5.67-4.96-26.41-4.96-26.41s-.67-4.28-1.9-6.97c-.56-1.23-2.28-2.65-5.12-.41-2.43 1.92-1.09 7.71-1.09 7.71l4.62 28.09s.73 3.29-.65 4.56c-1.6 1.48-4.39-.65-4.39-.65s-19.29-12.73-22.3-14.37c-3-1.64-4.85-3.55-7.69-1.72-.82.53-2.46 2.84.29 5.21s11.91 9.7 22.66 16.79c.62.42 5.21 1.67 3.3 4.76-1.9 3.09-5.06-1.58-5.62-2.01-7.15-5.57-15.28-11.96-20.04-14.55-3.58-1.95-5.73 2.12-2.35 5.87 2.21 2.46 5.63 5.66 9.6 9.01 3.88 3.27 7.09 6.55 8.77 8.75 4.11 5.36 5.9 8.38 8.69 12.3 11.9 14.34 24.49 13.81 38.02 6.33-1.76 2.01-25.49 19.29-42.38-7.45-1.53-2.28-3.63-5.4-6.68-9.39-1.49-1.95-4.78-4.95-8.33-8.29S43.56 66.27 45.27 61.46c1.17-3.28 4.1-3.44 4.1-3.44s-4.38-5.13 1.29-9.15c3.08-2.18 7.76 1.14 7.76 1.14l22.1 14.21s.95.71 2.14 1.31c1.59.79 1.48-1.54 1.39-2.1-.88-5.49-4.24-26.97-4.52-29.68z"/><radialGradient id="f" cx="58.725" cy="87.697" r="71.786" gradientTransform="scale(1 -1) rotate(38.842 248.132 -31.05)" gradientUnits="userSpaceOnUse"><stop offset=".27" style="stop-color:#fff176"/><stop offset="1" style="stop-color:#ffc400"/></radialGradient><path style="fill:url(#f)" d="M56.81 39.61c-4.11-1.2-6.83 5.6-6.83 5.6s.77-4.32 1.27-8.1c.32-2.42-.74-6.19-3.39-7.19-2.66-.99-5.83 1.76-6.64 4.05l-3.19 8.94s1.53-2.93-1.02-7.57c-.87-2-3.2-2.91-5.2-2.04-.38.16-.72.38-1.03.66a10.27 10.27 0 0 0-2.83 4.88c-1.95 6.9-7.48 24.93-10.37 26.91-1.13.77-1.35.68-2.96-5.88-.81-4.06-3.38-7.54-7.03-9.5-2.11-1.13-5.86 1.11-5.59 3.62.18 1.86 2.02 5.32 3.05 9.45 1.64 6.82 1.6 17.8 1.68 18.8.61 7.33 1.76 20.98 16 25.86 12.61 4.33 25.57-5.43 30.18-12.97C61.75 80.8 66.36 63.2 66.43 62.86c.81-3.6.75-7.87-2.11-9.51-3.52-2.04-5.9 2.77-5.9 2.77 1.12-3.1 1.74-6.36 1.82-9.65-.06-3.3-.66-6.04-3.43-6.86z"/><path style="fill:#eb8f00" d="M61.9 46.43c-.04-2.12-.13-7.08-4.62-8.41-1.6-.45-3.17-.28-4.55.5.67-3.33-.32-9.04-5.27-10.41-1.84-.51-4.27-.12-6.41 2.61-1.55 1.97-2.12 4.74-2.12 4.74-.13-.28-2.03-5.71-8.04-2.59-2.42 1.26-3.68 4.53-4.2 6.65-3.37 11.88-9.29 25.38-9.54 24.37.08-6.68-4.04-13.16-8.91-15.04-2.11-1.13-7.53 1.13-7.07 4.65.38 2.89 3.32 8.13 4.08 13.58.59 4.21.7 20.26 3.2 26.23 0 0-.38-4.36-.6-10.77-.24-6.83-.36-15.83-1.2-19.5-.73-3.28-2.45-6.53-3.01-9.23-.16-1.18 1.17-3.51 4.41-2.07s5.03 4.91 5.97 9.62c1.29 5.25.61 6.05 2.1 6.23 4.99.61 11.71-23.34 13.43-28.35.39-1.56 1.21-2.98 2.31-4.04 2.09-2.23 4.62 1.16 4.62 1.16 1.52 3.24 1.1 3.58.23 8.02-.62 3.16-3.43 13.55-6.05 19.3 0 0 .88.94 2.46-1.28 1.58-2.22 5.53-13.73 7.07-20.67 0 0 1.75-9.3 4.68-10.55 2.98-1.27 4.11.59 4.64 2.8s.1 5.73-1.12 10.66c-2.19 8.85-6.23 21.76-6.23 21.76s.87.72 2.18-1.14c2.65-3.79 7.01-20.51 7.01-20.51.31-1.33 2.41-4.5 5-3.55 1.29.39 2.3 1.93 2.2 6.05-.1 4.94-3.51 16.16-7.08 25.18 0 0 1.18.44 2.49-1.64s5.13-12.67 6-14.03c.87-1.36 1.75-2.68 3.66-1.92 2.5 1.18 2.47 3.72 1.57 7.7-.04.17-4.43 18.93-13.37 32.99-4.72 7.43-12.9 12.15-25.6 13.41 9.97 2.03 23.2-4.13 28.47-12.89 8.88-14.74 13.69-32.62 13.72-32.78.65-2.88 2-8.89-3.48-11.47-1.31-.52-2.51-.53-3.57-.23.32-1.67.5-3.39.54-5.14z"/></svg>