<svg xmlns="http://www.w3.org/2000/svg" viewBox="0 0 128 128" style="enable-background:new 0 0 128 128" xml:space="preserve"><path style="fill:#2f7889" d="M82.3 64.16s2.21 3.59 6.71 3.59 8.65-.14 8.65-.14 3.86-.92 5.41-3.45H82.3z"/><path style="fill:#eee" d="M99.86 65.38h-14.5c-2.63 0-4.8-2.08-4.9-4.72L78.47 8.05a3.428 3.428 0 0 1 3.43-3.56h21.78a3.43 3.43 0 0 1 3.43 3.59l-2.36 52.62a4.883 4.883 0 0 1-4.89 4.68z"/><path style="fill:#fff" d="M84.83 4.49h-2.16c-1.95 0-3.51 1.62-3.43 3.56l1.99 52.61c0 3.5 3.76 4.72 3.76 4.72 1.82.01 2.26-3.2 2.31-4.74l1.64-51.91a4.114 4.114 0 0 0-4.11-4.24z"/><path style="fill:#eee" d="M102.12 72.19c-.48-3.02-.93-4.58-2.58-4.58H23.52c-1.59 0-2.81 1.58-2.52 3.3 1.74 10.38 8.2 18.98 16.9 23.14 2.38 10.45-5.15 17.54-6.35 26.64-.19 1.44.9 2.28 2.3 2.28h55.88c1.34 0 2.4-.75 2.31-2.15 0 0-4.36-17.46-4.85-21.17-.49-3.71-.09-8.91 12.09-19.65 1.89-1.66 3.32-4.79 2.84-7.81z"/><path style="fill:none;stroke:#69a1ba;stroke-width:1.9835;stroke-miterlimit:10" d="M78.65 12.83h28.25"/><path style="fill:#b7d5e5" d="M83.44 60.55s-1.92-50.54-1.99-52.61 1-3.03 1.46-3.45h-1c-1.95 0-3.51 1.62-3.43 3.56l1.99 52.61c.36 3.33 2.38 5.08 6.42 4.72-2.92-1.37-3.42-3.9-3.45-4.83z"/><path style="fill:#69a1ba" d="M102.88 3.47C99.15 3.14 81.9 4.49 81.9 4.49s-.16.47 2.87.66 12.62.14 14.97.14c2.35 0 4.71.83 4.47 3.74l-2.47 53.25c-.07 1.41-2.44 3.01-3.37 3.11l1.87.01c2.53-.2 4.4-2.23 4.51-4.69l2.36-52.62c.09-1.97-.59-4.29-4.23-4.62z"/><path style="fill:#b7d5e5" d="M31.72 70.11h32.11c8.25 0 11.91-2.31 11.91-2.31H22.42c-1.61 0 2.16 2.31 9.3 2.31z"/><path style="fill:#2f7889" d="M72.62 63.07H24.84c-2.39 0-3.43 1.44-3.88 2.73-.33.95.38 1.95 1.35 1.95h52.82c.98 0 1.69-1.02 1.34-1.97-.47-1.28-1.51-2.71-3.85-2.71z"/><path style="fill:none;stroke:#eee;stroke-width:2.0672;stroke-linecap:round;stroke-miterlimit:10" d="M26.55 65.41h8.28"/><path style="fill:#b7d5e5" d="M99.72 67.62H84.03c-2.45 0-4.38 2.01-4.37 4.46.03 4.31-.37 8.49-3.93 12.72-3.66 4.35-5.82 6.28-4.23 12.3 0 0 3.41 18.18 3.88 20.26.87 3.9-4.25 6.07-4.25 6.07h18.59c1.34 0 2.39-.9 2.46-2.54 0 0 .05-.93-.33-2.54 0 0-3.17-14.91-3.64-19.49-.6-5.92 4.42-10.6 8.11-14.06 5.83-5.47 6.21-9.25 6.22-11.22.02-4.78-1.18-5.96-2.82-5.96z"/><path style="fill:#69a1ba" d="M48.23 94.64c.04-.66 1.69-.5 2.01-.5 20.66-.09 26.01-12.32 27.26-16.65a1.68 1.68 0 0 1 1.93-1.18c.96.18 1.58 1.13 1.33 2.07-1.31 4.97-7.08 18.63-30.89 17.11-.22-.01-1.67-.2-1.64-.85z"/><path style="fill:#b7d5e5" d="M33.22 114.71c1.14-4.19 5.66-10.97 4.65-19.19-5.11-2.51-10.63-9.58-13.18-13.89 0 0-.49-.75 0-.91.36-.12.9.44.9.44 5.81 7.46 11.72 10.81 14.56 12.09 1.06.48 1.74 1.57 1.63 2.74-.78 7.82-5.72 14.88-7.35 18.24-.45.89-1.43 1.28-1.21.48z"/><path style="fill:#69a1ba" d="M31.53 121.06c0 1.44 1.09 2.36 2.32 2.36h55.88c1.27 0 2.45-.91 2.45-2.4l-60.65.04zm67.93-53.44s.64 4.75.64 5.69c0 1.79.45 4.3-4.42 8.87-.65.61-1.41 1.24-2.2 1.91-3.55 2.97-8.86 8.11-7.47 14.33.48 2.14 1.73 5.17 2.49 6.75.59 1.23.73 0 .73 0s-.8-4.26-1.01-6.31c-.6-5.92 5.8-11.05 9.5-14.51 5.83-5.46 5.36-9.08 5.36-11.05 0-.8-.14-2.37-.28-3.66a2.256 2.256 0 0 0-2.25-2.02h-1.09z"/><path style="fill:#fff" d="M33.05 83.4c-4.92-6.12 2.63-9.21 5.07-5.24 2.86 4.67 3.9 6.7 5.34 8.5.58.73 1.25 1.47 1.84 2.1.58.61.06 1.61-.78 1.5-6.82-.88-9.82-4.8-11.47-6.86zm10.27 34.25H40.4c-1.27 0-2.25-1.15-2.02-2.39.6-3.31 2.31-6.16 3.59-8.81.79-1.65 2.11-4.97 2.59-7.53a2.036 2.036 0 0 1 2.18-1.65l2.31.2c1.22.11 2.07 1.26 1.82 2.46-.73 3.57-2.98 7.64-3.65 9.31-.89 2.2-1.54 5.03-1.9 6.78-.2.95-1.03 1.63-2 1.63z"/></svg>