<svg xmlns="http://www.w3.org/2000/svg" viewBox="0 0 128 128" style="enable-background:new 0 0 128 128" xml:space="preserve"><path style="fill:#004f7c" d="M125.61 101.91s-6.89-23.37-10.89-33.76c-5.03-13.06-16.45-38.69-18.97-39.87-.36-.17-.71-.29-1.05-.38l-15.54-5.69h-30.3l-15.5 5.68c-.36.09-.73.21-1.11.39-2.52 1.19-13.91 26.73-18.97 39.87-4 10.39-10.89 33.76-10.89 33.76-.34 1.07.07 2.23 1.02 2.83 2.07 1.29 6.33 3.32 13.69 4.2 1.1.13 2.15-.48 2.58-1.5 1.17-2.81 15.64-37.48 17.1-41.41l-3.83 45.06c-.08 1.04.61 1.97 1.62 2.2 3.54.81 13.57 2.4 29.46 2.4 15.88 0 25.91-1.6 29.46-2.4 1.01-.23 1.7-1.16 1.62-2.2l-3.82-44.97c1.45 3.9 15.9 38.5 17.06 41.31a2.473 2.473 0 0 0 2.58 1.5c7.35-.88 11.62-2.91 13.69-4.2.93-.59 1.34-1.75.99-2.82z"/><circle style="fill:#00273d" cx="55.56" cy="64.85" r="2.73"/><circle style="fill:#00273d" cx="69.7" cy="64.85" r="2.73"/><circle style="fill:#00273d" cx="55.56" cy="79.86" r="2.73"/><circle style="fill:#00273d" cx="69.7" cy="79.86" r="2.73"/><circle style="fill:#00273d" cx="55.56" cy="94.86" r="2.73"/><circle style="fill:#00273d" cx="69.7" cy="94.86" r="2.73"/><circle style="fill:#b5840d" cx="55.56" cy="63.64" r="2.73"/><circle style="fill:#b5840d" cx="69.7" cy="63.64" r="2.73"/><circle style="fill:#b5840d" cx="55.56" cy="78.64" r="2.73"/><circle style="fill:#b5840d" cx="69.7" cy="78.64" r="2.73"/><circle style="fill:#b5840d" cx="55.56" cy="93.64" r="2.73"/><circle style="fill:#b5840d" cx="69.7" cy="93.64" r="2.73"/><path style="opacity:.5;fill:#2686c6" d="m47.4 72.6-2.34-1.04c-.81-.36-1.75.08-1.99.94l-5.22 18.72c-.19.68.14 1.41.79 1.71l2.12.98c.81.37 1.76-.06 2-.91l5.44-18.66c.21-.71-.14-1.45-.8-1.74zm33.89 0 2.34-1.04c.81-.36 1.75.08 1.99.94l5.22 18.72c.19.68-.14 1.41-.79 1.71l-2.12.98c-.81.37-1.76-.06-2-.91l-5.44-18.66c-.21-.71.14-1.45.8-1.74z"/><path style="fill:#00273d" d="M76.82 47.94c-1.09-2.43-1.53-3.88-1.29-4.79.5-1.93 2.32-3.18 4.05-4.17-.1-.07-7.83-25.63-7.83-25.63H56.32l-9.26 27.09c6.53.22 18.99 7.86 23.81 13.09 2.3 2.49 4.1 5.39 5.88 8.28.49-2.91 2.31-8.88.07-13.87z"/><path style="fill:#004f7c" d="m54.39 13.3-8.57 7.86s-.92 7.35-.81 11.78c.12 4.8.69 7.43 3.87 6.14s7.67-3.45 8.79-4.01c1.12-.56 2.23-.95 1.53.84s-1.38 5.33-1.46 5.64c-.36 1.34-.58 2.32 3.1 3.12 3.68.8 14.3 3.64 14.3 3.64s-14.4-16.46-16.31-19.73c-2.34-4-2.47-9.45-2.34-12.39a2.18 2.18 0 0 1 2.18-2.09h10.38c1.15 0 2.1.89 2.18 2.03.19 2.9.38 8.13-.46 10.3-.78 2.01-2.96 3.73-4.68 4.99-1.24.9-1.03 2.06-.34 2.79l4.33 5.05s1.02-4.76 1.63-4.99c.61-.23 3.87 2.96 6.69 3.98 1.92.7 2.82-1.37 3.02-2.57.2-1.19 1.27-10.82 1.03-12.47-.25-1.64-1.23-3.14-2.32-3.84-.83-.53-5.07-4.3-7.09-6.1-.69-.62-1.99-.96-2.92-.96H57.94c-1.56.01-2.85.36-3.55.99z"/><path style="fill:#2686c6" d="M82.56 21.56c-1.03-1.49-2.14-2.02-3.53-3.15.86 1.03 1.64 2.16 2 3.45.66 2.62-.36 11.77-.67 13.64-.17 1-.98 1.89-1.95 1.57-.95-.32-1.33-.55-5.21-3.71-1.5-1.22-2.47-1.22-3.1.63-.56 1.63-1.2 3.88-1.2 3.88l1.97 2.31s.94-3.89 1.22-4.99c4.5 3.44 6.32 4.24 7.53 4.09 2.34-.28 2.73-2.76 2.85-3.44.43-3.13.5-6.33.78-9.48.1-1.39.26-3.43-.69-4.8zM72.95 46.9c-2.92-1.48-8.44-2.42-11.94-3.27-1.19-.29-2.39-.58-2.23-1.47.17-.7.73-3.22 1.11-4.33.38-1.11 1.27-3.34.05-4.22-.92-.67-2.14-.01-2.14-.01-.06.04-5.42 2.79-8.47 4.05-1.28.53-2.34.27-2.62-1.63-.94-6.38-1.06-12.14 2.1-17.55-.75.76-2.13 1.67-2.91 2.39-1.62 1.47-2.21 10.86-1.09 16.97.4 2.19 1.99 3.35 4.94 1.95 2.82-1.34 8.4-3.9 8.4-3.9s-1.31 4.76-1.51 6.48c-.19 1.72.63 2.65 3.92 3.35 2.14.46 6.82 1.01 9.6 2.11 3.35 1.33 4.3 1.75 6.66 4.71-.75-2.62-1.47-4.42-3.87-5.63z"/><path style="fill:#2686c6" d="m75.33 115.39-5.87.26s1.65-.98 4.35-1.49c2.51-.47 2.1-2.4 2.1-4.09V58.02c0-8.28-2.9-8.75-5.42-10.1l2.47-1.03c.24.13 5.09 1.5 5.09 11.13v53.09c0 1.89.17 4.28-2.72 4.28zM56.77 22.06s-1.37-2.81-1.7-5.38c-.37-2.95.66-4.01 3.09-4.36 2.63-.38 9.16-.21 10.76-.15 1.36.04 3.5.15 4 2.39.49 2.16-1.52 7.51-1.52 7.51s-.04-5.5-.15-5.92c-.11-.42-.32-1.4-2.33-1.7-4.34-.65-6.55-.33-9.58-.42-2.76-.08-2.79 1.37-2.82 3.59-.02 2.21.25 4.44.25 4.44z"/><path style="fill:#00273d" d="M38.27 55.44c-.08-6.29-2.62-18.33-5.72-23.81a.969.969 0 0 1-.02-.92c.37-.7 1.36-.7 1.73 0 4.11 7.84 6.29 19.91 4.82 26.37.01 0-.77 1.26-.81-1.64zm51.46 0c.08-6.29 2.62-18.33 5.72-23.81.16-.29.17-.63.02-.92a.975.975 0 0 0-1.73 0c-4.11 7.84-6.29 19.91-4.82 26.37-.01 0 .77 1.26.81-1.64z"/></svg>