<svg xmlns="http://www.w3.org/2000/svg" viewBox="0 0 128 128" style="enable-background:new 0 0 128 128" xml:space="preserve"><ellipse transform="rotate(-10.978 18.207 101.413)" style="fill:#616161" cx="18.19" cy="101.39" rx="7.4" ry="10.85"/><path style="fill:none;stroke:#616161;stroke-width:6;stroke-miterlimit:10" d="M15.41 60.04c-.64 13.15.36 27.76 2.01 41.81"/><ellipse transform="rotate(-79.018 109.802 101.39)" style="fill:#616161" cx="109.81" cy="101.39" rx="10.85" ry="7.4"/><path style="fill:none;stroke:#616161;stroke-width:6;stroke-miterlimit:10" d="M112.59 60.04c.64 13.15-.36 27.76-2.01 41.81"/><path style="fill:#616161" d="M113.93 66.61c-5.17-.24-9.46-4.12-10.13-9.25-.75-5.81-2.68-12.52-7.52-18.96-7.61-10.11-18.75-15.46-32.23-15.46-9.45 0-22.73 2.68-32.34 15.46-4.9 6.52-6.81 13.37-7.54 19.27-.61 4.89-4.57 8.68-9.5 8.91l-.6.03c-3.46.16-6.32-2.7-6.12-6.15.48-8.43 2.6-23.4 11.05-34.64C29.58 11.74 45.58 4 64.05 4c18.4 0 34.36 7.74 44.94 21.8 8.46 11.25 10.57 26.23 11.06 34.65.2 3.46-2.66 6.32-6.12 6.16z"/><path style="fill:#424242" d="M38.73 123.29c-9.72 1.35-20.87-5.82-23.12-22.41-2.24-16.52 5.61-26.56 13.57-28.1l9.55 50.51z"/><path style="fill:#757575" d="m39.29 69.36-8.46 1.45a8.6 8.6 0 0 0-6.8 6.73c-.94 4.61-1.54 11.98.4 22.03 1.95 10.04 5.26 16.65 7.87 20.58 1.92 2.9 5.4 4.36 8.82 3.69l8.46-1.45c4.09-.79 5.1-13.31 2.25-27.95-2.84-14.64-8.45-25.87-12.54-25.08z"/><ellipse transform="rotate(-10.978 45.677 95.658)" style="opacity:.5;fill:#424242" cx="45.66" cy="95.64" rx="6.29" ry="24.95"/><linearGradient id="a" gradientUnits="userSpaceOnUse" x1="142.597" y1="234.485" x2="145.527" y2="234.485" gradientTransform="rotate(-10.978 -627.855 670.484)"><stop offset=".202" style="stop-color:#212121"/><stop offset="1" style="stop-color:#212121;stop-opacity:0"/></linearGradient><path style="fill:url(#a)" d="M49.85 94.83c1.78 9.16 2.17 16.79.88 17.04s-3.79-6.97-5.56-16.13c-1.78-9.16-2.17-16.79-.88-17.04s3.78 6.97 5.56 16.13z"/><path style="fill:#424242" d="M89.27 123.29c9.72 1.35 20.87-5.82 23.12-22.41 2.24-16.52-5.61-26.56-13.57-28.1l-9.55 50.51z"/><path style="fill:#757575" d="m88.71 69.36 8.46 1.45a8.6 8.6 0 0 1 6.8 6.73c.94 4.61 1.54 11.98-.4 22.03-1.95 10.04-5.26 16.65-7.87 20.58a8.595 8.595 0 0 1-8.82 3.69l-8.46-1.45c-4.09-.79-5.1-13.31-2.25-27.95 2.84-14.64 8.45-25.87 12.54-25.08z"/><ellipse transform="rotate(-79.018 82.337 95.639)" style="opacity:.5;fill:#424242" cx="82.34" cy="95.64" rx="24.95" ry="6.29"/><linearGradient id="b" gradientUnits="userSpaceOnUse" x1="152.929" y1="236.49" x2="155.859" y2="236.49" gradientTransform="scale(-1 1) rotate(-10.982 -697.156 1390.947)"><stop offset=".202" style="stop-color:#212121"/><stop offset="1" style="stop-color:#212121;stop-opacity:0"/></linearGradient><path style="fill:url(#b)" d="M78.15 94.83c-1.78 9.16-2.17 16.79-.88 17.04s3.79-6.97 5.56-16.13c1.78-9.16 2.17-16.79.88-17.04s-3.78 6.97-5.56 16.13z"/><path style="fill:#424242" d="M119.09 62.1c-2.83 1.92-6.32-.24-7.39-3.16-1.24-7.28-3.69-15.73-8.49-22.7-8.99-13.79-24.1-20.7-39.21-20.71-15.11.01-30.22 6.92-39.21 20.71-4.8 6.97-7.24 15.43-8.49 22.7-1.07 2.92-4.56 5.08-7.39 3.16-.23-.16-.58-.56-.94-.78.28 3.05 2.94 5.42 6.1 5.28l.87-.04c6.18.05 8.63-3.88 9.2-8.63.71-5.95 2.6-12.92 7.58-19.53C41.31 25.65 54.55 22.95 64 22.94c9.45.01 22.69 2.71 32.28 15.46 4.9 6.52 6.81 13.37 7.54 19.27.62 4.95 3.02 8.94 9.77 8.92l.33.02c3.16.15 5.82-2.23 6.1-5.28-.35.21-.7.61-.93.77z"/><path style="fill:#757575" d="M14.65 41.61c-.93-.66-1.66-1.39-.33-6.41 1.61-6.05 9.08-17.76 24.13-25.52 2.79-1.44 9.57-3.59 11.64.14 1.96 3.54-7.51 6.12-10.85 7.91-8.74 4.7-15.05 11.33-18.44 16.57-1.08 1.67-3.93 8.87-6.15 7.31z"/></svg>