<svg xmlns="http://www.w3.org/2000/svg" viewBox="0 0 128 128" style="enable-background:new 0 0 128 128" xml:space="preserve"><path style="fill:#f2a600" d="M87.6 22.7v-3c-.1-3.8-.7-8.3-5.5-10.2-1-.3-2-.5-2.9-.5h-5s-2.4 3.3-4 5L58 27.4c-1.1 1.2-3 .7-3.4-.8l-3.9-14.7c-1.2-4.2-2.9-6.3-6-7.5-.6-.3-1.4-.4-2.2-.4h-4.7s-1.7 2-3.4 3.7L8.3 31.2c-1.5 1.4-1.7 3.7-.4 5.3l4.5 10.2c4-.1 4 0 5.1 0s2.2-.3 3.1-1.1L34 33.9c1.1-1.1 3-.5 3.3 1l4.2 17.6c.5 2.2 4.1 7.3 4.1 7.3h5.1c2.7 0 5.4-1.2 7.2-3.3L67 45.8c.6-.7 1.6-.3 1.8.5 2.4 20.2 36.9 77.6 36.9 77.6h5c1.1 0 2.2-.4 3-1.2L126 110c1.5-1.6 1.5-4.1-.1-5.7C95.7 75.5 87.5 36 87.6 22.7z"/><path style="fill:#ffcc32" d="M82.6 22.7v-3c-.1-3.8-.7-8.3-5.5-10.2-3.8-1.5-7.7 0-11.8 4.5L53.1 27.4c-1.1 1.2-3 .7-3.4-.8l-3.9-14.7c-1.2-4.2-2.9-6.3-6-7.5-3-1.1-7.3.3-10.4 3.3L3.3 31.2c-1.5 1.4-1.7 3.7-.4 5.3l6.7 8.7c1.5 1.9 4.2 2.1 5.9.4L29 33.9c1.1-1.1 3-.5 3.3 1l4.2 17.6c.8 3.5 3.5 6.2 7 7 3.4.8 7.1-.4 9.4-3L62 45.8c.6-.7 1.6-.3 1.8.5 2.5 20.6 17.4 54.9 39.2 76.5 1.6 1.6 4.1 1.5 5.7-.1L121 110c1.5-1.6 1.5-4.1-.1-5.7C90.8 75.5 82.5 36 82.6 22.7z"/><circle style="fill:#fff170" cx="102.4" cy="95" r="3.3"/><path style="fill:#fff170" d="M96 90.6c-1 0-2-.5-2.6-1.4-1.3-2.1-6.58-11.69-10.07-20.23-1.44-3.68-4.27-10.35-6.39-18.63-1.57-6.13-2.67-14.25-2.98-16.87-.63-5.31-.74-10.69-1.23-10.8-1.6-.5-2.53 3.03-4.03 3.43-2.4.7-4.5-1.9-3.5-4.2 1.1-2.3 3.74-4.41 5.34-5.59 1.6-1.18 3.2-1.49 4.7-.99 2.9 1 2.99 4.37 3.34 8.56.33 3.87 1.35 14.84 3.6 24.6 1.56 6.79 4.89 14.63 6.61 18.41 2.41 5.29 8.4 17.2 9.7 19.3.9 1.4.4 3.3-1 4.1-.39.21-.99.31-1.49.31zM45.52 24.61c-1.43-7.05-2.05-9-3.01-12.44-.75-2.72-3.77-4.57-6.96-3.25-2.25.92-5.82 4.29-7.12 5.39-1.3 1.2-3.52 3.62-1.91 5.35 1.61 1.73 4.19.01 5.02-.6.82-.6 1.91-1.67 3.39-2.79 1.01-.77 2.24-.17 2.54 1.03 1.24 6.19 1.95 8.25 2.25 9.46.36 1.43 1.31 4.6 4.24 3.7s1.86-4.05 1.56-5.85z"/></svg>