<svg xmlns="http://www.w3.org/2000/svg" viewBox="0 0 128 128" style="enable-background:new 0 0 128 128" xml:space="preserve"><path style="fill:#f44336" d="M116.87 32.29H11.13L4 49.96h120z"/><path style="fill:#ff7555" d="M99.9 26.61H28.1c-1.34 0-2.68.24-3.93.72l-13.05 4.96h105.75l-13.05-4.96c-1.25-.48-2.58-.72-3.92-.72z"/><path style="fill:#c62828" d="M119.97 117.61H8.03c-2.23 0-4.03-1.8-4.03-4.03V49.96h120v63.62c0 2.23-1.8 4.03-4.03 4.03z"/><path style="fill:none;stroke:#a80707;stroke-width:2.1329;stroke-miterlimit:10" d="M4 70.1h120"/><path style="fill:#a80707" d="M41.05 65.28H24.53c-.94 0-1.71.66-1.71 1.47v9.71c0 .81.76 1.47 1.71 1.47h2.45v5.06c0 2.16 2.03 3.91 4.54 3.91h2.55c2.5 0 4.54-1.75 4.54-3.91v-5.06h2.45c.94 0 1.71-.66 1.71-1.47v-9.71c-.02-.81-.78-1.47-1.72-1.47z"/><path style="fill:#558ea0" d="M39.88 75.92H25.69c-.6 0-1.08-.48-1.08-1.08V64.58c0-.6.48-1.08 1.08-1.08h14.18c.6 0 1.08.48 1.08 1.08v10.26c.01.6-.48 1.08-1.07 1.08z"/><path style="fill:none;stroke:#332424;stroke-width:2.8301;stroke-miterlimit:10" d="M28.02 70.03h9.53"/><path style="fill:#82aec0" d="M37.55 68.62h-9.53v-5.31a2.87 2.87 0 0 1 2.87-2.87h3.8a2.87 2.87 0 0 1 2.87 2.87v5.31zm-9.53 2.66h9.53v10.58a2.87 2.87 0 0 1-2.87 2.87h-3.8a2.87 2.87 0 0 1-2.87-2.87V71.28z"/><path style="fill:#a1d5e5" d="M35.83 79.59c.43 0 .94.36 1.06 1 .06.36-.14 1.1-.42 1.34-.51.43-1.19.71-1.9.88-1.1.27-2.3.32-3.39.03-1.09-.28-2.23-.83-2.56-1.74-.5-1.39 1.37-1.49 7.21-1.51z"/><path style="fill:#a80707" d="M103.47 65.28H86.95c-.94 0-1.71.66-1.71 1.47v9.71c0 .81.76 1.47 1.71 1.47h2.45v5.06c0 2.16 2.03 3.91 4.54 3.91h2.55c2.5 0 4.54-1.75 4.54-3.91v-5.06h2.45c.94 0 1.71-.66 1.71-1.47v-9.71c-.01-.81-.77-1.47-1.72-1.47z"/><path style="fill:#558ea0" d="M102.31 75.92H88.12c-.6 0-1.08-.48-1.08-1.08V64.58c0-.6.48-1.08 1.08-1.08h14.18c.6 0 1.08.48 1.08 1.08v10.26c0 .6-.48 1.08-1.07 1.08z"/><path style="fill:none;stroke:#332424;stroke-width:2.8301;stroke-miterlimit:10" d="M90.45 70.03h9.53"/><path style="fill:#82aec0" d="M99.98 68.62h-9.53v-5.31a2.87 2.87 0 0 1 2.87-2.87h3.8a2.87 2.87 0 0 1 2.87 2.87v5.31zm-9.53 2.66h9.53v10.58a2.87 2.87 0 0 1-2.87 2.87h-3.8a2.87 2.87 0 0 1-2.87-2.87V71.28z"/><path style="fill:#a1d5e5" d="M98.55 79.59c.3.01.85.1 1.05.69s-.2 1.21-.71 1.64-1.19.71-1.9.88c-1.1.27-2.3.32-3.39.03-1.09-.28-2.07-.9-2.56-1.74-.78-1.33 1.83-1.74 7.51-1.5z"/><path style="fill:#424242" d="M90.53 27.05c-.47-.63-2.01-1.27-2.46-1.53-3.01-1.79-2.7-6.72-4.72-9.92-1.8-2.86-5.01-5.2-8.39-5.2H56.09c-3.38 0-6.59 2.35-8.39 5.2-2.02 3.2-1.71 8.13-4.72 9.92-.44.26-1.99.91-2.46 1.53-.58.78 0 1.6 0 1.6h5.46c2.67 0 4.17-4.49 4.4-5.1.91-2.5 2.57-6.19 5.71-6.19h18.87c3.14 0 4.8 3.7 5.71 6.19.22.61 1.72 5.1 4.4 5.1h5.46s.58-.82 0-1.6z"/><path style="fill:#616161" d="M51.22 13.39c1.43-1.19 3.28-1.9 5.14-1.88.51.01 1.04.07 1.47.35.43.28.73.81.6 1.31-.14.53-.69.84-1.2 1.04-1.85.72-3.99.88-5.46 2.2-1.01.91-1.54 2.22-2.26 3.37-.35.56-.82 1.13-1.48 1.2-.23.02-.48-.03-.63-.2-.26-.3-.1-.76.07-1.11.55-1.14.87-2.34 1.46-3.45.62-1.14 1.43-1.92 2.29-2.83z"/><path style="fill:#a1d5e5" d="M33.2 63.45c-1.28.05-2.52.72-3.16 1.72-.15.23-.36.51-.64.45-.22-.05-.31-.28-.36-.48-.21-.84-.28-1.81.21-2.58.51-.81 1.5-1.28 2.46-1.4 1.94-.23 3.38-.32 3.71.89.39 1.43-1.2 1.36-2.22 1.4zm62.38 0c-1.28.05-2.52.72-3.16 1.72-.15.23-.36.51-.64.45-.22-.05-.31-.28-.36-.48-.21-.84-.28-1.81.21-2.58.51-.81 1.5-1.28 2.46-1.4 1.94-.23 3.38-.32 3.71.89.4 1.43-1.2 1.36-2.22 1.4z"/></svg>