<svg xmlns="http://www.w3.org/2000/svg" viewBox="0 0 128 128" style="enable-background:new 0 0 128 128" xml:space="preserve"><path style="fill:#c9e3e6" d="M85.49 24.13c17.85 1.07 20.95.08 24.19 0 3.25-.08 3.1 1.39 3.1 3.1l.44 40.38c0 .66.13 1.41.34 2.22l-7.83 24.98c-1.31.65-1.98 1.09-2.67 1.61-1.1.82-22.8 20.96-25.82 23.9-3.02 2.93-13.31 7.08-20.05-1.1-5.77-7-2.45-16.08 0-18.95S81.35 73.71 82.73 69.5c1.13-3.46-.03-32.96-.33-42.19-.06-1.74-.25-3.38 3.09-3.18z"/><path style="fill:#5fb2de" d="M117.62 83.98c.46-6.42-3.52-11.24-4.3-15.25-3.14 2.47-9.37 6.33-13.35 8.34-1.36.69-1.79 2.39-1.26 3.83 1.36 3.72 4.16 10.02 6.52 14.16 0 0 1.55-.97 4.11-1.87 2.56-.91 7.86-3.3 8.28-9.21zm-62.27 19.45c-1.7 4.09-2.5 10.52 1.84 15.78 5.27 6.39 12.7 5.26 17.14 3.06 0 0-.31-5.37-5.81-11.87-5.5-6.51-13.17-6.97-13.17-6.97z"/><path style="fill:#f44336" d="M96 38.92c-6.26 0-10.89-.59-13.22-.96l-.2-5.12c.13.03 12.4 2.76 30.25-.33l.05 5.03c-6.37 1.03-12.1 1.38-16.88 1.38zm0 9.23c-6.05 0-10.59-.55-12.99-.93l-.14-5.01c2.95.52 14.61 2.21 30.05-.47l.05 5.02c-6.4 1.04-12.16 1.39-16.97 1.39z"/><path style="fill:#c9e3e6" d="M39.85 4.02c17.85 1.07 20.95.08 24.19 0 3.25-.08 3.1 1.39 3.1 3.1l.44 40.38c0 .66.13 1.41.34 2.22L60.09 74.7c-1.31.65-1.98 1.09-2.67 1.61-1.1.82-22.8 20.96-25.82 23.9-3.02 2.93-13.31 7.08-20.05-1.1-5.77-7-2.45-16.08 0-18.95C14 77.28 35.72 53.6 37.09 49.39c1.13-3.46-.03-32.96-.33-42.19-.06-1.74-.25-3.38 3.09-3.18z"/><path style="fill:#5fb2de" d="M71.98 63.87c.46-6.42-3.52-11.24-4.3-15.25-3.14 2.47-9.37 6.33-13.35 8.34-1.36.69-1.79 2.39-1.26 3.83 1.36 3.72 4.16 10.02 6.52 14.16 0 0 1.55-.97 4.11-1.87 2.56-.91 7.86-3.3 8.28-9.21zM9.71 83.32c-1.7 4.09-2.5 10.52 1.84 15.78 5.27 6.39 12.7 5.26 17.14 3.06 0 0-.31-5.37-5.81-11.87-5.49-6.51-13.17-6.97-13.17-6.97z"/><path style="fill:#f44336" d="M50.37 18.81c-6.26 0-10.89-.59-13.22-.96l-.2-5.12c.13.03 12.4 2.76 30.25-.33l.05 5.03c-6.38 1.03-12.1 1.38-16.88 1.38zm0 9.23c-6.05 0-10.59-.55-12.99-.93l-.14-5.01c2.95.52 14.61 2.21 30.05-.47l.05 5.02c-6.41 1.04-12.17 1.39-16.97 1.39z"/></svg>