<svg xmlns="http://www.w3.org/2000/svg" viewBox="0 0 128 128" style="enable-background:new 0 0 128 128" xml:space="preserve"><path style="fill:#d61029" d="M86.69 14.12 3.91 103.43s-.67.51-.67 1.37c0 1.04 3.1 3.83 4 3.87.9.04 1.63-.78 1.63-.78l77.02-78.47.8-15.3zm15.41 28.29-85.07 74.88s-.84.75-.63 1.76c.17.87 2.49 3.42 3.27 3.48 1.03.08 1.67-.52 1.67-.52l85.89-71.02-5.13-8.58z"/><path style="fill:#474c4f" d="M117.49 29.36c-1.19.24-22.25 19.09-22.25 19.09l6.23 7.31s22.09-17.8 22.5-18.81c.41-1.02-.47-2.07-2.77-4.51s-3.04-3.22-3.71-3.08zM94.55 6.47c-1.15 0-18.34 18.95-18.34 18.95l6.87 6.87s18.18-18.19 18.31-19.2c.14-1.01-.88-2.01-3.18-4.16-1.88-1.75-2.71-2.46-3.66-2.46z"/></svg>