<svg xmlns="http://www.w3.org/2000/svg" viewBox="0 0 128 128" style="enable-background:new 0 0 128 128" xml:space="preserve"><path style="fill:#5e6268" d="M57.9 96.09c-2.2 0-37.28 9.47-37.87 9.67-.77.27-1.03 1.26.24 1.61 1.27.35 59.54 16.41 60.12 16.41s31.84-14.53 32.41-14.76c.58-.23.25-1.92-1.35-2.28-1.07-.24-50.67-10.65-53.55-10.65z"/><path style="fill:#c8c8c8" d="m33.18 110.95 38.77-12.34 6.15 1.24-38.58 12.74z"/><path style="fill:#c8c8c8" d="M40.59 110.09c-1.21-.57-17.63-5.18-17.63-5.18l4.69-1.24s17.57 4.43 17 4.57c-.56.14-4.06 1.85-4.06 1.85zm8.41-3.42-16.75-4.2 4.87-1.3 17.66 4.29zm9.13-2.92-16.12-3.88L47 98.6l15.9 3.94zm-7.38-6.09 16.07 3.74 3.35-1.43-15.12-3.34zm39.11 13.07-4.9 2.13 6.03 1.44 5.2-2.14zm-10.42-2.36-5.03 1.98 6.77 1.62 4.7-2.14zm-3.35-.76-6.99-1.58-5.06 1.86 6.67 1.58z"/><path style="fill:#006ca8" d="M37.74 38.58s2.37-2.55 2.78-2.72c.4-.17 3.36-.17 4.05-.12.69.06.66.55.08 1.56-.69 1.22-3.02 5.08-3.02 5.08l-3.89-3.8zm38.69 10.26L86.84 38.4s.13-3.97.36-4.64c.11-.34 2.67.07 3.01.3.66.44 3.19 5.11 3.19 5.11l-4.6 12.69-12.37-3.02z"/><path style="fill:#5d6268" d="M74.14 67v6.26s-2.07 1.26-1.98 3.49c.08 1.99 1.58 3.62 3.59 3.81 2.01.19 4.05-1.21 4.1-3.49.05-2.24-1.4-3.22-1.4-3.22v-6.12L74.14 67zm14.51 2.24.05 1.68s-1.45 1.07-1.26 3.03c.19 1.96 1.54 3.08 3.41 3.08s3.27-1.26 3.22-3.55c-.04-2.1-2.24-3.17-2.24-3.17l-3.18-1.07zm14.07 4.23s-.05 4.44.28 4.67c.33.23 1.73.14 1.73.14s-2.15 1.03-1.96 3.36c.16 2.01 1.4 3.36 3.83 3.36s3.87-1.35 3.83-3.6c-.05-2.66-2.66-3.32-2.66-3.32s1.03-.05 1.03-.28-.05-4.48-.05-4.48l-6.03.15z"/><path style="fill:#999b9a" d="M49.94 67.18c-3.71.25-5.06 2.45-5.06 4.39s0 4.3 2.79 6.16c3.02 2.01 7.12 4.06 10.97 5.39 3.66 1.26 8.48.31 8.42-5.39-.04-3.18.39-6.81-4.08-7.52-2.97-.47-6.87-2.59-6.87-2.59l-6.17-.44z"/><path style="fill:#5d6268" d="M63 71.78c-1.26-.04-2.46 1.83-2.57 4.51-.11 2.91.51 5.6 2.23 5.6 1.71 0 2.46-3.03 2.46-5.43-.01-2.34-.41-4.62-2.12-4.68z"/><path style="fill:#c8c8c8" d="M24.67 41.3c-.46.07-1.26 1.04-1.04 1.85.22.81 1.42 4.43 12.03 10.92s23.58 10.81 31 12.77 20.7 5.36 33.06 6.8c12.36 1.44 23.38 1.75 23.79-2.16.41-3.91-6.28-7.83-6.28-7.83l-.93-1.54s0-1.96-2.78-4.33-9.17-5.15-23.17-8.45c-14.01-3.3-37.18-7.62-46.86-8.24s-17.75.05-18.82.21z"/><path style="fill:#014eac" d="M26.97 42.4c.72.66 3.85.93 10.33 1.63 6.48.7 10.81 1.19 10.81.79 0-.61-5.03-3.47-7.02-4.58-1.98-1.11-15.52-21.47-15.99-21.59s-4.67-.88-5.02-.47c-.35.41 6.19 23.58 6.89 24.22z"/><path style="fill:#006ca8" d="M25.8 43.8c-.7 0-19.67 2.33-20.95 2.45-1.28.12-1.87.76-1.81 1.4s.76 1.05 3.39 1.05 23.17-.76 23.87-.82c.7-.06 1.34-1.69-.53-2.68-1.87-.99-3.97-1.4-3.97-1.4zM11.01 69.21c.8.18 17.67-1.68 23-2.55 9.29-1.52 16.56-3.43 17.15-4.11.47-.54 1.07-2.04 2.22-2.04s5.67.79 10.13 1.51c6.04.98 11.81 2.49 12.7 2.93.89.44 1.24 2.84-2.58 3.55-3.82.71-17.5 3.2-28.42 4.44-10.92 1.24-34.55 3.92-37.39 1.69-1.24-.98-1.95-8.72-1.28-9.39.09-.09 2.71-.14 3.43.1.3.1 1.04 3.87 1.04 3.87z"/><path style="fill:#e1e1e1" d="M51.92 44.29c-.81.74.05 1.6 2.83 2.16s12.93 2.52 19.31 3.76c6.39 1.24 19.16 4.07 20.65 4.33 1.49.26 2.27-.21 2.42-.82.15-.62-.46-1.29-3.66-1.96-2.87-.6-10.25-2.32-19.01-4.02s-17.72-3.35-19.06-3.55c-1.31-.21-2.86-.47-3.48.1zm47.34 10.35c-.15 1 .49 1.44 2.42 2.01 2.43.72 3.45.69 3.76-.26.36-1.08-1-1.71-2.83-2.27-1.86-.56-3.2-.51-3.35.52z"/><path style="fill:#385662" d="M108.27 63.35c-.93-.05-1.7.36-1.7 1.13s.36 1.44 1.65 1.7 4.53.62 7.11-.15 2.65-1.93 2.65-1.93-.39-.52-.75-1.05c-.33-.48-.95-1.19-.95-1.19s-1.1 1.13-3.21 1.39c-2.12.25-3.87.15-4.8.1zm-68.7-14.39c-1.04-.06-1.3.84-1.3 1.59s.13 1.78 1.13 1.85c1 .06 1.36-.81 1.36-1.59s-.08-1.79-1.19-1.85zm7.1 2.27c-.75-.03-1.3.45-1.36 1.62s.39 1.82 1.2 1.91c.81.1 1.36-.71 1.36-1.85 0-.97-.32-1.65-1.2-1.68zm6.75 1.65c-.78-.03-1.2.84-1.2 1.65 0 .75.19 1.75 1.17 1.82.78.05 1.39-.68 1.36-1.72-.04-1.04-.39-1.72-1.33-1.75zm22.69 5.02c-1.04-.06-1.3.84-1.3 1.59s.13 1.78 1.13 1.85c1 .06 1.36-.81 1.36-1.59s-.09-1.78-1.19-1.85zm7.58 1.67c-.75-.03-1.3.45-1.36 1.62-.06 1.17.39 1.82 1.2 1.91s1.36-.71 1.36-1.85c0-.97-.32-1.64-1.2-1.68zm7.62 2c-.78-.03-1.2.84-1.2 1.65 0 .75.19 1.75 1.17 1.82.78.05 1.39-.68 1.36-1.72s-.39-1.72-1.33-1.75zm-30.65-6.96c-1.04-.06-1.3.84-1.3 1.59 0 .75.13 1.78 1.13 1.85 1 .06 1.36-.81 1.36-1.59s-.09-1.79-1.19-1.85zm7.46 1.5c-.78-.03-1.2.84-1.2 1.65 0 .75.19 1.75 1.17 1.82.78.05 1.39-.68 1.36-1.72-.03-1.04-.39-1.72-1.33-1.75z"/></svg>