<svg xmlns="http://www.w3.org/2000/svg" viewBox="0 0 128 128" style="enable-background:new 0 0 128 128" xml:space="preserve"><path style="fill:#858585" d="M119.88 74.83s-2.21-4.43-2.67-7.6c-.56-3.87-1.29-6.06-1.62-8.66-.44-3.44-1.55-5-2.11-5.91l-.42 5.21s-2.28 4.91.07 10.28c3.14 7.17 3.24 6.76 3.24 6.76l3.51-.08z"/><path style="fill:#5d6265" d="M115.1 87.08c-2.33-3.14-2.87-5.56-2.25-8.94.63-3.46 1.89-6.18 5.28-5.98 2.39.14 4.01 2.11 3.45 5.98-.36 2.45-2.02 3.62-1.41 6.12.84 3.45 3.15 3.82 3.6 4.65.45.82-5.31 2.7-8.67-1.83z"/><path style="fill:#858585" d="M52.17 84.83 41.4 89.05s3.24 4.15 3.38 5.56c.14 1.41.14 8.24-.07 9.08-.21.84-3.45 5.49-2.39 6.69 1.06 1.2 4.29 1.62 7.04 1.34s4.79-2.46 4.93-3.45c.14-.99.28-6.97.42-8.45s1.9-11.97 1.9-11.97l-4.44-3.02zm43.15.42-7.18 4.01s.63 3.38.21 5.28-2.39 3.87-1.48 5c.92 1.13 4.58 1.06 6.41.92s3.66-1.13 3.94-2.11c.28-.99.35-12.67.35-12.67l-2.25-.43zM57.52 59 27.39 72.3l-11.54-5.63s-.36 2.32-.21 3.73c.28 2.6 1.69 10.14 12.53 11.76 10.84 1.62 18.86-3.73 18.86-3.73l20.48-10.7L57.52 59z"/><path style="fill:#adadb7" d="M47.66 25.37s-11.91-1.5-19.29 5.35-7 17.08-7 19.9.38 4.69-.66 6.48c-1.04 1.78-4.87 5.14-4.94 9.64-.06 3.58 29.05 3.12 29.05 3.12s5.11-.47 7.85-3c2.74-2.53 4.09-5.68 4.09-5.68s1.35 5.09-2.69 8.66c-2.74 2.42-6.4 2.56-6.4 2.56s-.47 3.85-5.01 7.13c-3.84 2.78-8.41 2.82-8.41 2.82S36.5 88.72 47 91.63c10.49 2.91 13.9 2.72 13.9 2.72s1.51 9.57 1.61 11.36c.09 1.78-.66 10.61-.19 11.45.47.84 3.5 3.28 6.43 3 2.93-.28 4.16-3.47 4.16-4.79 0-1.31-.47-7.98-.57-9.29-.09-1.31.85-9.85.85-9.85s4.82.47 10.78-1.22c5.96-1.69 9.26-6.48 13.52-6.66s7.37 3.47 7.28 7.41c-.09 3.94-1.89 7.79-1.13 8.92s2.55 1.88 5.2 1.78c2.65-.09 4.92-1.41 5.2-2.44.28-1.03.57-12.67.66-14.55.09-1.88 2.65-12.86 3.03-19.99.38-7.13-1.04-15.58-4.54-19.8-3.5-4.22-7.94-6.01-9.64-6.48-1.7-.47-7.1-.9-8.79-1.69-8.04-3.75-11.63-14.36-26.66-18.3-8.49-2.22-18.09 1.4-20.44 2.16z"/><path style="fill:#dfdfdf" d="M28 60.29c-9.85-.56-12.15 4.13-12.39 7.7-.28 4.22 3.73 10.61 11.08 12.01 8.92 1.69 17.13-.66 18.11-8.92C45.74 63.2 34 60.63 28 60.29z"/><path style="fill:#333" d="M48.65 53.34c0 2.23-1.41 4.13-2.86 4.04-1.42-.09-2.58-1.81-2.58-4.04s1.17-3.82 2.58-4.04c1.83-.28 2.86 1.81 2.86 4.04z"/><ellipse style="fill:#333" cx="25.48" cy="50.29" rx="2.47" ry="3.8"/><ellipse transform="rotate(-26.285 35.013 72)" style="fill:#333" cx="35.02" cy="72" rx="3.19" ry="2.26"/><ellipse transform="rotate(-42.212 22.257 69.927)" style="fill:#333" cx="22.26" cy="69.93" rx="2.2" ry="3.19"/><path style="fill:#b79277" d="M39.92 25.63s-2.8-3.4-9.67-2.04c-4.84.96-7.19 5.33-9.67 8.26-2.06 2.44-5.65 3.05-7.51 1.13-1.38-1.43-1.16-2.88-.91-3.96.56-2.37 3.12-3.68 3.25-4.58.19-1.31-5.89-1.69-8.8 2.82s-1.9 12.39 2.6 15.2c4.5 2.82 9.01 4.32 15.02-.94s10.68-11.94 11.94-13.21c2.39-2.4 3.75-2.68 3.75-2.68zm7.79.87s2.88-1.76 6.99-1.08c4.65.77 9.15 7.09 10.65 8.78 1.5 1.69 5.91 6.87 12.58 4.81 2.99-.93 4.17-3 4.62-5.36.55-2.9-.04-5.2-.39-6.31-.29-.92-1.34-2.63-.07-3.54.87-.63 2.39.14 3.24 1.55.84 1.41 2.75 7.44 1.81 11.57S80.76 49.4 72.59 49.31s-18.96-3.47-23.37-8.73-4.14-12.11-1.51-14.08z"/><path style="fill:#895a4e" d="M21.43 47.24s-1.77.93-4.39 1.09c-2.7.16-5.95-.29-9.36-3.7-1.69-1.69-3.03-5.23-3.33-7.34-.68-4.71 1.64-8.92 1.64-8.92s-.72 13.34 10.28 13.9c7.41.38 12.86-8.17 14.92-10.04s3-1.31 3-1.31-2.34 5.3-5.26 8.26c-2.96 3-6.62 4.62-7.04 5.12-.41.48-.46 2.94-.46 2.94zm26.84-21.02c.65-.67-5.26 1.22-4.6 7.32.66 6.1 8.96 12.81 14.64 15.3 6.85 3 17.08 4.22 23.56.19 6.48-4.04 7.88-12.48 6.76-17.36-1.13-4.88-4.13-8.35-5.73-7.88-.94.28.8 2.05 1.92 5.02.78 2.05.9 5.11.7 6.8-.42 3.68-1.78 6.28-3.59 8.19-2.33 2.45-6.03 4.13-11.83 3.73-4.87-.34-9.42-2.13-12.91-4.26-4.23-2.57-7.19-5.75-8.27-7.19-1.96-2.64-3.84-6.58-.65-9.86z"/></svg>