<svg xmlns="http://www.w3.org/2000/svg" version="1.0" viewBox="0 0 1000 1000"><path fill="#75b2dd" d="M8 195.25c170.83-85.22 341.03-54.42 513.26-27.97 155.21 23.84 312.16 44.57 470.74-34.53v672c-170.83 85.22-341.03 54.42-513.26 27.97C323.53 808.88 166.58 788.15 8 867.25v-672"/><path fill="#fff" d="m500 231.2-16 61.43 24.62 14.19L500 231.2"/><path fill="#fff" d="m500 231.2 16 66.38-24.62 6.58L500 231.2"/><path fill="#fff" d="m549.25 285.15-51.79-7.91v33.6l51.79-25.69"/><path fill="#fff" d="m549.25 285.15-41.9 33.14-15.22-29.54 57.12-3.6"/><path fill="#fff" d="m530.45 357.45-16-66.36-24.65 6.57 40.65 59.79"/><path fill="#fff" d="m530.45 357.45-41.9-45.97 15.2-24.83 26.7 70.8"/><path fill="#fff" d="m469.55 348.08 41.9-33.06-15.2-29.53-26.7 62.59"/><path fill="#fff" d="m469.55 348.08 16-61.46 24.65 14.2-40.65 47.26"/><path fill="#fff" d="m450.75 270.12 41.9 45.89 15.22-24.83-57.12-21.06"/><path fill="#fff" d="m450.75 270.12 51.79 7.91v33.6l-51.79-41.51M707.16 524.05c-16.25-7.48-32.51-15.4-49.25-23.92l-8.01 31.23c18.9-1.92 37.79-4.27 57.26-7.31"/><path fill="#fff" d="M707.16 524.05c-16.26 6.22-32.51 12.01-49.25 17.61l-8.01-32.68c18.9 5.46 37.79 10.51 57.26 15.07"/><path fill="#fff" d="M671.37 585.9v-67.2l-25.89-2.25 25.89 69.45"/><path fill="#fff" d="m671.37 585.9-30.45-57.06 20.95-17.82 9.5 74.88"/><path fill="#fff" d="m613.47 555.76 49.25-15.7-8-32.69-41.25 48.39"/><path fill="#fff" d="m613.47 555.76 30.45-51.02 20.95 21.62-51.4 29.4"/><path fill="#fff" d="m613.47 476.74 30.45 57.7 20.95-17.83-51.4-39.87"/><path fill="#fff" d="m613.47 476.74 49.25 25.82-8 31.29-41.25-57.11"/><path fill="#fff" d="m671.37 458.09-30.45 51.66 20.95 21.7 9.5-73.36"/><path fill="#fff" d="M671.37 458.09v67.2l-25.89-2.25 25.89-64.95M500 768.8l16-61.43-24.62-14.19L500 768.8"/><path fill="#fff" d="m500 768.8-16-66.38 24.62-6.58L500 768.8"/><path fill="#fff" d="m450.75 714.85 51.79 7.91v-33.6l-51.79 25.69"/><path fill="#fff" d="m450.75 714.85 41.9-33.14 15.22 29.54-57.12 3.6"/><path fill="#fff" d="m469.55 642.55 16 66.36 24.65-6.57-40.65-59.79"/><path fill="#fff" d="m469.55 642.55 41.9 45.97-15.2 24.83-26.7-70.8"/><path fill="#fff" d="m530.45 651.92-41.9 33.06 15.2 29.53 26.7-62.59"/><path fill="#fff" d="m530.45 651.92-16 61.46-24.65-14.2 40.65-47.26"/><path fill="#fff" d="m549.25 729.88-41.9-45.89-15.22 24.83 57.12 21.06"/><path fill="#fff" d="m549.25 729.88-51.79-7.91v-33.6l51.79 41.51M292.84 475.95c16.25 7.48 32.51 15.4 49.25 23.92l8.01-31.23c-18.9 1.92-37.79 4.27-57.26 7.31"/><path fill="#fff" d="M292.84 475.95c16.26-6.22 32.51-12.01 49.25-17.61l8.01 32.68c-18.9-5.46-37.79-10.51-57.26-15.07"/><path fill="#fff" d="M328.63 414.1v67.2l25.89 2.25-25.89-69.45"/><path fill="#fff" d="m328.63 414.1 30.45 57.06-20.95 17.82-9.5-74.88"/><path fill="#fff" d="m386.53 444.24-49.25 15.7 8 32.69 41.25-48.39"/><path fill="#fff" d="m386.53 444.24-30.45 51.02-20.95-21.62 51.4-29.4"/><path fill="#fff" d="m386.53 523.26-30.45-57.7-20.95 17.83 51.4 39.87"/><path fill="#fff" d="m386.53 523.26-49.25-25.82 8-31.29 41.25 57.11"/><path fill="#fff" d="m328.63 541.91 30.45-51.66-20.95-21.7-9.5 73.36"/><path fill="#fff" d="M328.63 541.91v-67.2l25.89 2.25-25.89 64.95"/><path fill="#1A1A1A" opacity=".2" d="M8 195.25c170.83-85.22 341.03-54.42 513.26-27.97 155.21 23.84 312.16 44.57 470.74-34.53v672c-170.83 85.22-341.03 54.42-513.26 27.97C323.53 808.88 166.58 788.15 8 867.25v-672m31.25 19.39v604.5c306.56-128.26 611.18 96.04 921.5-33.78v-604.5c-306.56 128.26-611.18-96.04-921.5 33.78"/></svg>