<svg xmlns="http://www.w3.org/2000/svg" viewBox="0 0 128 128" style="enable-background:new 0 0 128 128" xml:space="preserve"><path style="fill:#427687" d="M116 4H12c-4.42 0-8 3.58-8 8v104c0 4.42 3.58 8 8 8h104c4.42 0 8-3.58 8-8V12c0-4.42-3.58-8-8-8z"/><path style="fill:#8cafbf" d="M121.7 6.3A8.403 8.403 0 0 0 116 4H12c-4.42 0-8 3.58-8 8v104c.02 2.12.84 4.16 2.3 5.7l16.8-16.8h76A5.91 5.91 0 0 0 105 99V23l16.7-16.7z"/><path style="opacity:.5;fill:#b4e1ed;enable-background:new" d="M39.7 12.9c0-2.3-1.6-3-10.8-2.7-7.7.3-11.5 1.2-13.8 4s-2.9 8.5-3 15.3c0 4.8 0 9.3 2.5 9.3 3.4 0 3.4-7.9 6.2-12.3 5.4-8.7 18.9-10.6 18.9-13.6z"/><path style="fill:#fafafa" d="M64.9 79.2h-7c-.88 0-1.64.63-1.8 1.5L53 97.3c-.16.87-.92 1.5-1.8 1.5h-4.3c-1.01 0-1.82-.81-1.82-1.82 0-.09.01-.19.02-.28L48 81.3c.15-.99-.53-1.92-1.52-2.08-.09-.01-.19-.02-.28-.02h-7c-.99.01-1.79-.79-1.8-1.78V73.5c-.01-.99.79-1.79 1.78-1.8h9.12c.88 0 1.64-.63 1.8-1.5l2.1-11.4c.15-.99-.53-1.92-1.52-2.08-.09-.01-.19-.02-.28-.02h-7.6c-.99.01-1.79-.79-1.8-1.78V51c-.01-.99.79-1.79 1.78-1.8h9.72c.88 0 1.64-.63 1.8-1.5l3.2-16.9c.16-.87.92-1.5 1.8-1.5h4.3c1.01 0 1.82.81 1.82 1.82 0 .09-.01.19-.02.28l-3 15.6c-.18.96.45 1.89 1.41 2.07.13.02.26.03.39.03h7.1c.88 0 1.64-.63 1.8-1.5l3.2-16.9c.16-.87.92-1.5 1.8-1.5h4.3c1.01 0 1.82.81 1.82 1.82 0 .09-.01.19-.02.28L81.1 47c-.18.96.45 1.89 1.41 2.07.13.02.26.03.39.03h5.9c.99-.01 1.79.79 1.8 1.78v3.92c.01.99-.79 1.79-1.78 1.8H80.8c-.88 0-1.64.63-1.8 1.5l-2.1 11.4c-.15.99.53 1.92 1.52 2.08.09.01.19.02.28.02h6.6c.99-.01 1.79.79 1.8 1.78v3.92c.01.99-.79 1.79-1.78 1.8H76.6c-.88 0-1.64.63-1.8 1.5l-3.1 16.6c-.16.87-.92 1.5-1.8 1.5h-4.3c-1.01 0-1.82-.81-1.82-1.82 0-.09.01-.19.02-.28l2.8-15.3c.24-.88-.27-1.8-1.16-2.04-.17-.05-.36-.07-.54-.06zM60 71.6h7c.88 0 1.64-.63 1.8-1.5l2.1-11.4c.15-.99-.53-1.92-1.52-2.08-.09-.01-.19-.02-.28-.02h-7c-.88 0-1.64.63-1.8 1.5l-2.1 11.4c-.15.99.53 1.92 1.52 2.08.09.01.19.02.28.02z"/></svg>