<svg xmlns="http://www.w3.org/2000/svg" viewBox="0 0 128 128" style="enable-background:new 0 0 128 128" xml:space="preserve"><path style="fill:#fdd083" d="M40.77 61.97s-9.24 3.88-8.98 4.97c.26 1.1 1.87 3.68 2.84 5.88.69 1.57 2 4.26 1.74 6.59s-1.55 6.46-1.55 6.46l13.83 11.69s2.53-2.72 6.51-3.94c3.87-1.19 6.8-.44 8.28-.32 2.52.19 6.2.52 6.72.26 1.09-.54-14.41-20.54-14.41-20.54L40.77 61.97z"/><path style="fill:#f3a25a" d="M42.04 73.01S33.8 86.39 28.43 93.95s-9.95 13.12-10.6 13.83c-.65.71-4.07 3.49-3.88 5.04.19 1.55 4.01 4.07 7.82 6.78 3.81 2.71 6.98 5.56 8.4 5.04s5.33-7.62 7.75-11.11c4.5-6.48 21.13-29.89 21.13-29.89L42.04 73.01z"/><path style="fill:#fdd083" d="M41.01 82.38c.39 0 .15 3.3 3.18 5.17 3.04 1.87 5.41 1.42 5.74 1.81.14.16-3.36 5.24-7.43 11.05-5.21 7.44-10.99 15.29-11.5 16.09-.71 1.1-2.84 2.91-5.11 1.49-2.23-1.4-4.63-3.24-5.47-4.6-.84-1.36.04-2.64 1.33-4.32.71-.92 5.81-7.93 10.79-14.93 4.1-5.74 8.15-11.76 8.47-11.76z"/><path style="fill:#ff4f28" d="m31.79 66.95 36.68 26.79s10.24 1.25 17.06-2.22 14.5-8.67 21.91-22.39c7.66-14.19 14.72-40.22-10.53-56.33s-47.77 3.95-54.35 11.73-12.64 17-13.17 28.01c-.49 9.94 2.4 14.41 2.4 14.41z"/><path style="fill:#ee3e23" d="M53.72 47.69c11.17-.01 18.01-9.86 16.71-21.03S55.27 14.27 55.27 14.27L37.34 31.3l-1.22 1.87c-.01.01.93 14.54 17.6 14.52z"/><path style="fill:#d8cdc9" d="M40.19 7.01c-6.37 4.69-9.29 14.75-3.99 22.74 4.69 7.07 16.74 10.43 25.19 3.18 8.87-7.61 5.78-19.65 1.14-24.29-6.2-6.19-16.15-6.19-22.34-1.63z"/><path style="fill:#eaebeb" d="M41.66 9.95c-4.16 4.07-5.22 12.06.08 16.05 4.92 3.71 11.66 3.26 15.49-1.3 3.99-4.75 2.2-12.88-1.55-15.41-3.04-2.04-9.45-3.83-14.02.66z"/><path style="fill:#feffff" d="M40.67 23.37c1.86-.19 2.1-1.84 2.51-5.02.38-2.94 3.25-6.41 5.76-6.97 2.71-.6 4.3-.63 4.29-2.34-.02-2.03-4.01-3.61-8.56-1.56-4.62 2.08-6.97 7.62-6.97 11.24 0 3.69 1.19 4.83 2.97 4.65z"/></svg>