<svg xmlns="http://www.w3.org/2000/svg" viewBox="0 0 128 128" style="enable-background:new 0 0 128 128" xml:space="preserve"><path style="fill:#546e7a" d="M21.96 95.36V83.09h16.99a20.9 20.9 0 0 1-.91-4H21.96V63.5h19.25c.68-1.33 1.46-2.66 2.35-4h-21.6V44.58h35.55c.67-.54 1.31-1.06 1.89-1.5l-.52-2.5H21.96V25.66h33.83a46.8 46.8 0 0 1-.49-4H3.48v77.69h52.44c-2.81-.97-5.41-2.33-7.72-4H21.96zm59.69 4h42.87v-4H84.86c-1.09.94-2.24 1.77-3.44 2.46.07.45.15.97.23 1.54zm6.3-73.7h36.57v-4H87.99c.1 1.36.08 2.7-.04 4zm.26 37.84h36.32v-4H83.54c1.75 1.02 3.31 2.35 4.67 4zm36.31-18.92v-4H82.16c-.95 1.41-1.96 2.75-2.99 4h45.35zm0 38.51v-4h-31.4c-.08 1.46-.3 2.79-.6 4h32z"/><path style="fill:#546e7a" d="M87.18 67.19c-4.49-7.14-11.23-7.45-16.23-6.99l-1.85-9.41c8.86-8.39 19.57-20.29 14.8-34.37-4.07-12-10.39-12.14-13.55-12.14s-15.54.84-11.3 22.49l3.69 17.57C57.3 48.29 39.7 62.38 40.92 77.75c.84 11.88 13.23 21.08 26.64 20.2 1.41-.08 4.49-.3 5.64-.39 0 0 3.08 10.71-1.54 16.99-2.84 3.86-7.59 5.05-11.72 3.61a8.17 8.17 0 0 0 4.51-7.3c-.41-10.83-15.94-10.83-16.35 0 0 7.81 5.34 12.85 16.5 12.85 4.49 0 8.84-3.26 11.09-6.21 5.94-7.78 2.32-21.37 2.32-21.37 7.78-3.17 17.01-14.91 9.17-28.94zM71.43 12.75c4.02-1.71 10.35 1.44 8.96 8.84-1.28 6.8-7.6 13.83-13.21 19.45l-2.23-11.36c-1.54-9.49 1.44-14.79 6.48-16.93zm-5.35 48.54c-7.06 2.29-10.8 8.55-9.55 16.06 1.27 7.59 5.38 9.85 8.82 10.96.06.02 2.44.68 2.67-.81.12-.74-.74-1.17-1.53-1.67-.64-.4-1.38-1.16-2.09-1.86-3.95-3.91-3.69-11.35 3.23-14.37l4.63 23.14c-10.28 2.31-21.34-3.27-21.72-14.35-.63-10.83 5.76-17.09 14.3-24.38l1.24 7.28zm17.31 22.04c-.8 2.58-2.54 5.53-6.37 7.71l-4.09-22.5c9.62-.35 12.2 8.86 10.46 14.79z"/></svg>