<svg xmlns="http://www.w3.org/2000/svg" viewBox="0 0 128 128" style="enable-background:new 0 0 128 128" xml:space="preserve"><path style="fill:#d68b52" d="M64 14c27.57 0 50 22.43 50 50s-22.43 50-50 50-50-22.43-50-50 22.43-50 50-50m0-10C30.86 4 4 30.86 4 64s26.86 60 60 60 60-26.86 60-60S97.14 4 64 4z"/><path style="fill:#784d30" d="M64 14.03c27.55 0 49.97 22.41 49.97 49.97S91.55 113.97 64 113.97 14.03 91.55 14.03 64 36.45 14.03 64 14.03m0-2.97c-29.24 0-52.94 23.7-52.94 52.94s23.7 52.94 52.94 52.94 52.94-23.7 52.94-52.94S93.24 11.06 64 11.06z"/><path style="fill:#a65f3e" d="M111.18 77.49 73.83 65.35l38.35-12.46a3.002 3.002 0 0 0-1.85-5.71L71.97 59.65l23.99-33.02c.97-1.34.68-3.22-.66-4.19a3.002 3.002 0 0 0-4.19.66L67.12 56.12V14.84c0-1.66-1.34-3-3-3s-3 1.34-3 3v41.28L37.04 22.98a2.993 2.993 0 0 0-4.19-.66 2.993 2.993 0 0 0-.66 4.19l24.08 33.14-38.6-12.54a3.002 3.002 0 0 0-1.85 5.71l38.59 12.54-37.67 12.23a3.002 3.002 0 0 0-1.93 3.78 2.994 2.994 0 0 0 3.78 1.92l37.67-12.24-22.9 31.52c-.97 1.34-.68 3.22.66 4.19.53.39 1.15.57 1.76.57.93 0 1.84-.43 2.43-1.24l22.9-31.53v38.39c0 1.66 1.34 3 3 3s3-1.34 3-3v-38.4l22.96 31.6c.59.81 1.5 1.24 2.43 1.24a2.993 2.993 0 0 0 2.42-4.76l-22.96-31.6 37.35 12.14c.31.1.62.15.93.15 1.26 0 2.44-.81 2.85-2.07.52-1.56-.34-3.25-1.91-3.76zM64 73.68c-4.51 0-8.16-3.66-8.16-8.16 0-4.51 3.66-8.16 8.16-8.16s8.16 3.66 8.16 8.16c0 4.51-3.65 8.16-8.16 8.16z"/><path style="fill:#d68b52" d="M64 55.03c-5.79 0-10.48 4.69-10.48 10.48C53.52 71.31 58.21 76 64 76s10.48-4.69 10.48-10.48S69.79 55.03 64 55.03zm0 13.46a2.97 2.97 0 1 1 0-5.94 2.97 2.97 0 0 1 0 5.94z"/><path style="fill:#784d30" d="M64 62.54a2.97 2.97 0 1 1 0 5.94 2.97 2.97 0 0 1 0-5.94m0-2c-2.74 0-4.97 2.23-4.97 4.97s2.23 4.97 4.97 4.97 4.97-2.23 4.97-4.97-2.23-4.97-4.97-4.97z"/></svg>