<svg xmlns="http://www.w3.org/2000/svg" viewBox="0 0 128 128" style="enable-background:new 0 0 128 128" xml:space="preserve"><path style="fill:#427687" d="M116.46 3.96h-104c-4.42 0-8 3.58-8 8v104c0 4.42 3.58 8 8 8h104c4.42 0 8-3.58 8-8v-104c0-4.42-3.58-8-8-8z"/><path style="fill:#8cafbf" d="M122.16 6.26a8.403 8.403 0 0 0-5.7-2.3h-104c-4.42 0-8 3.58-8 8v104c.02 2.12.84 4.16 2.3 5.7l16.8-16.8h76a5.91 5.91 0 0 0 5.9-5.9v-76l16.7-16.7z"/><path style="fill:#fafafa" d="M85.06 47.46c.06 3.12-.81 6.18-2.5 8.8-1.72 2.6-4.1 4.71-6.9 6.1a19.29 19.29 0 0 1 8.1 6.7c1.89 2.84 2.87 6.19 2.8 9.6 0 5.9-2 10.6-6 14.1s-9.3 5.2-16 5.2-12-1.7-16-5.2-6-8.2-6-14c-.02-3.45.99-6.83 2.9-9.7 1.96-2.94 4.74-5.23 8-6.6-2.8-1.39-5.18-3.5-6.9-6.1a15.669 15.669 0 0 1-2.5-8.8c0-5.7 1.8-10.3 5.5-13.6s8.7-5 14.9-5c6.2 0 11.3 1.7 15 5s5.6 7.8 5.6 13.5zm-9.8 30.6c.12-2.99-.96-5.91-3-8.1a10.188 10.188 0 0 0-7.8-3c-2.91-.15-5.74.94-7.8 3-2 2-2.9 4.7-2.9 8.1-.12 2.91.92 5.76 2.9 7.9 1.9 2 4.6 3 8 3 2.92.16 5.78-.89 7.9-2.9 1.8-1.9 2.7-4.6 2.7-8zm-1.4-30.2c.11-2.63-.78-5.2-2.5-7.2a8.697 8.697 0 0 0-6.8-2.8c-2.55-.13-5.03.86-6.8 2.7-1.77 2.05-2.66 4.7-2.5 7.4-.16 2.67.74 5.29 2.5 7.3a8.746 8.746 0 0 0 6.7 2.7c2.55.13 5.03-.86 6.8-2.7 1.78-2.04 2.71-4.69 2.6-7.4z"/><path style="opacity:.5;fill:#b4e1ed;enable-background:new" d="M40.16 12.86c0-2.3-1.6-3-10.8-2.7-7.7.3-11.5 1.2-13.8 4s-2.9 8.5-3 15.3c0 4.8 0 9.3 2.5 9.3 3.4 0 3.4-7.9 6.2-12.3 5.4-8.7 18.9-10.6 18.9-13.6z"/></svg>