<svg xmlns="http://www.w3.org/2000/svg" viewBox="0 0 128 128" style="enable-background:new 0 0 128 128" xml:space="preserve"><g style="opacity:.85"><path style="fill:#b7855f" d="M4 33.83h120V95.8H4z"/></g><linearGradient id="a" gradientUnits="userSpaceOnUse" x1="18.198" y1="78.961" x2="87.209" y2="57.926"><stop offset="0" style="stop-color:#424242"/><stop offset=".394" style="stop-color:#44545b"/><stop offset=".517" style="stop-color:#455a64"/><stop offset=".741" style="stop-color:#445157"/><stop offset="1" style="stop-color:#424242"/></linearGradient><path style="fill:url(#a)" d="M124 34.96V18.24H4v16.73h11.98v59.71H4v17.09h120v-17.1h-11.98V34.96H124zm-10.65-8.94c0-.91.74-1.65 1.65-1.65h2.18c.91 0 1.65.74 1.65 1.65v4.01c0 .91-.74 1.65-1.65 1.65H115c-.91 0-1.65-.74-1.65-1.65v-4.01zm-98.7 4.01c0 .91-.74 1.65-1.65 1.65h-2.18c-.91 0-1.65-.74-1.65-1.65v-4.01c0-.91.74-1.65 1.65-1.65H13c.91 0 1.65.74 1.65 1.65v4.01zm0 73.59c0 .91-.74 1.65-1.65 1.65h-2.18c-.91 0-1.65-.74-1.65-1.65V99.6c0-.91.74-1.65 1.65-1.65H13c.91 0 1.65.74 1.65 1.65v4.02zm98.7-4.02c0-.91.74-1.65 1.65-1.65h2.18c.91 0 1.65.74 1.65 1.65v4.01c0 .91-.74 1.65-1.65 1.65H115c-.91 0-1.65-.74-1.65-1.65V99.6zm-11.58-73.58c0-.91.74-1.65 1.65-1.65h2.18c.91 0 1.65.74 1.65 1.65v4.01c0 .91-.74 1.65-1.65 1.65h-2.18c-.91 0-1.65-.74-1.65-1.65v-4.01zm-11.57 0c0-.91.74-1.65 1.65-1.65h2.18c.91 0 1.65.74 1.65 1.65v4.01c0 .91-.74 1.65-1.65 1.65h-2.18c-.91 0-1.65-.74-1.65-1.65v-4.01zm-11.58 0c0-.91.74-1.65 1.65-1.65h2.18c.91 0 1.65.74 1.65 1.65v4.01c0 .91-.74 1.65-1.65 1.65h-2.18c-.91 0-1.65-.74-1.65-1.65v-4.01zm-11.57 0c0-.91.74-1.65 1.65-1.65h2.18c.91 0 1.65.74 1.65 1.65v4.01c0 .91-.74 1.65-1.65 1.65H68.7c-.91 0-1.65-.74-1.65-1.65v-4.01zm-11.58 0c0-.91.74-1.65 1.65-1.65h2.18c.91 0 1.65.74 1.65 1.65v4.01c0 .91-.74 1.65-1.65 1.65h-2.18c-.91 0-1.65-.74-1.65-1.65v-4.01zm-11.57 0c0-.91.74-1.65 1.65-1.65h2.18c.91 0 1.65.74 1.65 1.65v4.01c0 .91-.74 1.65-1.65 1.65h-2.18c-.91 0-1.65-.74-1.65-1.65v-4.01zm-11.58 0c0-.91.74-1.65 1.65-1.65h2.18c.91 0 1.65.74 1.65 1.65v4.01c0 .91-.74 1.65-1.65 1.65h-2.18c-.91 0-1.65-.74-1.65-1.65v-4.01zm-11.57 0c0-.91.74-1.65 1.65-1.65h2.18c.91 0 1.65.74 1.65 1.65v4.01c0 .91-.74 1.65-1.65 1.65H22.4c-.91 0-1.65-.74-1.65-1.65v-4.01zm5.48 77.6c0 .91-.74 1.65-1.65 1.65H22.4c-.91 0-1.65-.74-1.65-1.65V99.6c0-.91.74-1.65 1.65-1.65h2.18c.91 0 1.65.74 1.65 1.65v4.02zm11.57 0c0 .91-.74 1.65-1.65 1.65h-2.18c-.91 0-1.65-.74-1.65-1.65V99.6c0-.91.74-1.65 1.65-1.65h2.18c.91 0 1.65.74 1.65 1.65v4.02zm11.58 0c0 .91-.74 1.65-1.65 1.65h-2.18c-.91 0-1.65-.74-1.65-1.65V99.6c0-.91.74-1.65 1.65-1.65h2.18c.91 0 1.65.74 1.65 1.65v4.02zm11.57 0c0 .91-.74 1.65-1.65 1.65h-2.18c-.91 0-1.65-.74-1.65-1.65V99.6c0-.91.74-1.65 1.65-1.65h2.18c.91 0 1.65.74 1.65 1.65v4.02zm11.58 0c0 .91-.74 1.65-1.65 1.65H68.7c-.91 0-1.65-.74-1.65-1.65V99.6c0-.91.74-1.65 1.65-1.65h2.18c.91 0 1.65.74 1.65 1.65v4.02zm11.57 0c0 .91-.74 1.65-1.65 1.65h-2.18c-.91 0-1.65-.74-1.65-1.65V99.6c0-.91.74-1.65 1.65-1.65h2.18c.91 0 1.65.74 1.65 1.65v4.02zm11.58 0c0 .91-.74 1.65-1.65 1.65h-2.18c-.91 0-1.65-.74-1.65-1.65V99.6c0-.91.74-1.65 1.65-1.65h2.18c.91 0 1.65.74 1.65 1.65v4.02zm11.57 0c0 .91-.74 1.65-1.65 1.65h-2.18c-.91 0-1.65-.74-1.65-1.65V99.6c0-.91.74-1.65 1.65-1.65h2.18c.91 0 1.65.74 1.65 1.65v4.02zm.79-8.95H19.96V34.96h88.08v59.71z"/><path style="fill:none;stroke:#757575;stroke-width:.9587;stroke-miterlimit:10" d="M4.66 18.24H124"/><linearGradient id="b" gradientUnits="userSpaceOnUse" x1="27.017" y1="80.859" x2="88.012" y2="54.936"><stop offset="0" style="stop-color:#ffcc80;stop-opacity:0"/><stop offset=".486" style="stop-color:#ffcc80;stop-opacity:.4"/><stop offset="1" style="stop-color:#ffcc80;stop-opacity:0"/></linearGradient><path style="fill:url(#b)" d="M20.29 35.15h88.08v59.71H20.29z"/></svg>