<svg xmlns="http://www.w3.org/2000/svg" viewBox="0 0 128 128" style="enable-background:new 0 0 128 128" xml:space="preserve"><path style="fill:#464c4f" d="M3.93 71.05s.08 5.36.08 6.41c0 1.05.37 2.66 2.97 2.66s111.67.23 113.4.16c2.37-.1 2.94-2.38 3-4.36.06-1.98.03-5.4.03-5.4l-27.08-8.89-78.53 4.08-13.87 5.34z"/><path style="fill:#616266" d="M7.71 46.91c-2.47-.06-3.51.85-3.7 3.02-.19 2.16-.14 20.11-.07 21.65s1.05 3.77 4.08 3.77 110.5.25 112.11.19c1.61-.06 3.15-1.55 3.28-4.45.12-2.91.06-19.29.12-20.96.06-1.67-.68-3.03-3.77-3.09-3.09-.07-109.51-.07-112.05-.13z"/><path style="fill:#9a9a9a" d="M10.71 63.36c2.41.19 4.05-3.23 7.81-5.64s8.39-1.93 8.49-4.73c.1-2.8-13.26-3.38-16.11-.43-2.84 2.94-3.03 10.58-.19 10.8z"/></svg>