<svg xmlns="http://www.w3.org/2000/svg" viewBox="0 0 128 128" style="enable-background:new 0 0 128 128" xml:space="preserve"><path style="fill:#427687" d="M116 4H12c-4.42 0-8 3.58-8 8v104c0 4.42 3.58 8 8 8h104c4.42 0 8-3.58 8-8V12c0-4.42-3.58-8-8-8z"/><path style="fill:#8cafbf" d="M109.7 4H11.5A7.555 7.555 0 0 0 4 11.5v97.9c-.01 4.14 3.34 7.49 7.48 7.5h98.12c4.14.01 7.49-3.34 7.5-7.48V11.5c.09-4.05-3.13-7.41-7.18-7.5h-.22z"/><path style="opacity:.5;fill:#b4e1ed;enable-background:new" d="M39.7 12.9c0-2.3-1.6-3-10.8-2.7-7.7.3-11.5 1.2-13.8 4s-2.9 8.5-3 15.3c0 4.8 0 9.3 2.5 9.3 3.4 0 3.4-7.9 6.2-12.3 5.4-8.7 18.9-10.6 18.9-13.6z"/><path style="fill:#fafafa" d="M40.95 80.3h-8.66L18.32 56h-.2c.28 4.29.42 7.35.42 9.18V80.3h-6.09V48.18h8.59L35 72.24h.15c-.22-4.17-.33-7.13-.33-8.85V48.18h6.13V80.3zm25.46 0h-18.5V48.18h18.5v5.58H54.72v7.05H65.6v5.58H54.72v8.28h11.69v5.63zm39.12 0h-7.76l-4.35-16.88c-.16-.6-.44-1.84-.82-3.72-.39-1.88-.61-3.15-.67-3.79-.09.79-.31 2.06-.66 3.81s-.62 3-.81 3.75L86.13 80.3H78.4l-8.2-32.12h6.7l4.11 17.53c.72 3.24 1.24 6.04 1.56 8.42.09-.84.29-2.13.6-3.88.32-1.75.61-3.11.89-4.08l4.68-18h6.44l4.68 18c.21.81.46 2.04.77 3.69.31 1.66.54 3.08.7 4.26.15-1.14.38-2.57.7-4.27.32-1.71.62-3.09.88-4.14L107 48.18h6.7l-8.17 32.12z"/></svg>