<svg xmlns="http://www.w3.org/2000/svg" viewBox="0 0 128 128" style="enable-background:new 0 0 128 128" xml:space="preserve"><path style="fill:#bae2fd" d="M64 19.06c-26.11 0-44.26 6.14-53.07 9.99a10.17 10.17 0 0 0-6.1 9.33v77.24c0 3.97 3.22 7.2 7.2 7.2h103.94c3.97 0 7.2-3.22 7.2-7.2V38.38c0-4.05-2.39-7.71-6.1-9.33-8.81-3.85-26.96-9.99-53.07-9.99z"/><path style="fill:#77abc0" d="M38.79 63.9s-.98 2.34 4.63 1.41c4.18-.69 20.04-10.46 22.28-10.46 2.23 0 19.61 16.4 24.81 9.66 2.47-3.2-23.79-23.24-23.79-23.24l-4.41-.11L38.79 63.9z"/><path style="fill:#de7340" d="M56.43 72.7s-7.49 9.7-8.62 21.7c-.62 6.55-1.49 27.23-1.49 27.23s-.51 2.37 4.72 2.35c4.23-.02 21.48.02 26.18.02 5.17 0 4.8-2.38 4.8-2.38s-.55-18.06-1.3-25.96c-1.01-10.71-9.24-20.93-9.24-22.57 0-1.15 6.95-9.6 9.88-14.38l-17.2-16.92-13.77 13.75c.99 4.55 6.04 17.16 6.04 17.16z"/><path style="fill:#f3ab47" d="M80.2 92.45c-7.48-5.54-22-13.45-26.34-15.78-.64 1.1-1.33 2.39-2.03 3.85 10.23 5.06 20.89 11.05 29.11 17.76-.07-.95-.14-1.83-.21-2.6-.11-1.09-.3-2.17-.53-3.23zm1.48 19.7c-10.69-8.2-25.78-17.2-33.4-20.97 0 0-.22 1.31-.31 1.96-.15 1.05-.26 2.63-.26 2.63 7.72 4.03 23.6 13.35 34.19 22.04-.05-1.43-.14-3.42-.22-5.66zm-34.99 1.4c5.62 3.45 11.84 7.47 16.32 10.43 2.65 0 5.36.01 7.76.01-6.08-4.16-15.31-10.14-23.84-15.33-.08 1.69-.17 3.35-.24 4.89zm24.72-59.08s-1.01-1.1-1.99-1.66c-.98-.56-2.06-.99-2.06-.99-4.61 2.97-10.38 7.55-14.29 12.06.6 1.65 1.21 3.28 1.75 4.68 4.1-5.58 11.4-10.89 16.59-14.09z"/><path style="fill:#874d36" d="M52 60.86s6.22-9.87 12.91-9.46c8.52.51 12.45 13.12 12.45 13.12l3.59-5.06-15.83-16.82c-.41-.02-1.34.03-1.77.04l-12.9 13.4c.25 1.11 1.55 4.78 1.55 4.78z"/><path style="fill:#e8f6ff" d="M102.73 20.65s-5.22-6.69-10.08-8.15c-3.91-1.18-2.91 2.27-7.75 10.12-4.03 6.54-16.95 16.2-20.74 19.17-3.78-2.97-16.7-12.63-20.74-19.17-4.83-7.84-3.83-11.3-7.75-10.12-4.86 1.47-10.08 8.15-10.08 8.15-2.9 3.76-3.65 8.7-2.15 13.11l13 28.84c.86 2.9 4.83 3.65 6.98 1.4l20.74-21.28L84.9 63.99c2.15 2.26 6.12 1.5 6.98-1.4l13-28.84c1.5-4.4.75-9.34-2.15-13.1z"/><path style="fill:#77abc0" d="M84.01 22.38c-1.42 2.39-11.96 13.01-19.72 18.13-.1.07-.47.07-.57 0-7.76-5.12-18.3-15.74-19.72-18.13-1.42-2.39 1.15-3.26 2.37-3.41 0 0 6.99-1.18 17.64-1.29 10.65.12 17.64 1.29 17.64 1.29 1.21.14 3.78 1.01 2.36 3.41z"/><path style="fill:#bae2fd" d="M96.92 12.75c-3.18-3.01-6.05-5.67-10.27-6.76-3.89-1.01-7.95-1.4-11.94-1.67C71.14 4.09 67.57 4 64 4c-3.57 0-7.14.09-10.71.33-4 .27-8.05.66-11.94 1.67-4.23 1.09-7.09 3.75-10.27 6.76-4.38 4.14-6.37 8.49-7.6 11.79 2.57-3.72 5.84-7.73 9.65-10.03.8-.48 3.98-3.15 5.66.42 1.34 2.85 2.01 4.82 3.99 7.65 6.25 8.89 18.02 17.74 20.73 19.65.29.21.68.21.98 0 2.71-1.91 14.95-11.12 20.73-19.65 1.81-2.66 2.66-4.8 3.99-7.65 1.67-3.57 4.86-.9 5.66-.42 3.81 2.3 7.08 6.31 9.65 10.03-1.22-3.3-3.22-7.65-7.6-11.8zM82.67 22.83c-1.33 2.23-11.16 12.14-18.4 16.92-.1.06-.44.06-.53 0-7.24-4.78-17.08-14.69-18.4-16.92-1.33-2.23 1.07-3.05 2.21-3.18 0 0 6.52-1.1 16.46-1.21 9.94.11 16.46 1.21 16.46 1.21 1.13.13 3.52.94 2.2 3.18z"/><path style="fill:#874d36" d="m71.55 72.62-.06.84c-2.77 1.62-5.13 2.03-7.87 2.11-2.74.08-5.37-.75-7.73-2.15l.46-.96c1.76-1.5 4.45-1.82 6.73-1.83 6.15-.01 8.47 1.99 8.47 1.99z"/></svg>