<svg xmlns="http://www.w3.org/2000/svg" viewBox="0 0 128 128" style="enable-background:new 0 0 128 128" xml:space="preserve"><path style="fill:#e0bb95" d="M56.6 12.19c23.03-6 50.65 13.56 44.91 46.11-4.6 26.05-16.46 34.14-28.93 44.4-5.77 4.75-12.36 19.53-25.13 18.09-15.34-1.72-18.14-14.15-17.68-22.98.73-13.96 2.77-22.02 1.84-31.97-2.57-27.56 1.26-47.47 24.99-53.65z"/><path style="fill:#cca47a" d="M74.93 78.17c-2.11 8.54-8 9.09-13.67 11.86-4.38 2.14-5.93 3.84-9.21 7.47-2.85 3.15-9.36 2.71-12.95-2.59-1.23-1.81-1.64-6.45.5-9.87 4.72-7.56.07-11.61.81-15.41.8-4.06 4.8-4.46 7.26-2.82 3.8 2.52 5.91 5.6 7.2 7.63 1.1 1.72 3.02 2.34 3.04-1.5.04-9.37-17.17-21.51-10.33-37.47C52.69 23.54 63.7 20.1 75.2 25.35c11.33 5.17 19.44 16.02 18.53 28.99-.44 6.17-3.17 12.16-7.55 16.53.94-.94.35-21.3-9.04-25.84C72.92 43 66.9 44.6 65.5 49.04c-.87 2.77.17 5.81 1.73 8.26s3.63 4.55 5.13 7.05c2.76 4.59 3.62 9.54 2.57 13.82z"/><path style="fill:#ba8f63" d="M41.09 67.84c-.31.49-.55 1.08-.69 1.79-.74 3.79 3.9 7.84-.81 15.41-1.52 2.44-1.74 5.48-1.31 7.69 2.34.91 5.57.98 9.37-2.49 2.42-2.2 3.19-5.81 2.68-8.96-1.32-8.08-5.33-8.62-9.24-13.44z"/><path style="fill:#ba8f63" d="M78.64 89.47c13.43-18.02 19.15-31.04 13.55-49.64-2.47-8.22-11.2-15.8-18.89-18.2-6.9-2.16-14.72-.88-20.41 3.33-3.56 2.63-10.52 11.43-9.32 21.84.96 8.39 4.48 12.3 7.38 15.17 4.88 4.84 6.56 8.33 6.56 8.33-.19-2.19-.12-3.72-3.72-9.01-2.13-3.13-5.74-7.69-6.57-14.91-.16-1.41-.12-2.73.05-4 1.91 3.46 7.14 8.72 17 16.03 15.48 11.47 8.31 25.03 2.86 27.29-3.96 1.64-8.06 2.78-11.25 5.81-1.37 1.3-2.43 3-2.67 4.87 4.53-5.83 10.52-5.41 16.42-8.36 5.06-2.53 7-4.94 7.83-12.24.67-5.89-1.42-11.56-5.42-15.9-2.69-2.91-15.29-12.59-17.25-15.82-2.34-3.86-3.62-9.78.58-14.59 4.77-3.53 11.33-4.59 17.13-2.78 6.52 2.04 14.61 9.24 16.74 16.28 3.88 12.89-.66 22.83-6.89 35.06-3.68 7.27-3.71 11.44-3.71 11.44z"/></svg>