<svg xmlns="http://www.w3.org/2000/svg" viewBox="0 0 128 128" style="enable-background:new 0 0 128 128" xml:space="preserve"><path style="fill:#e4c5b1" d="M4.28 26.26s-2.93-4.1-3.06-6.56c-.12-2.23 2.81-1.64 5.98-1.64s75.69-.12 77.79-.12 3.63-.47 2.93 2.93c-.55 2.66-2.18 5.38-2.18 5.38l-42.11 2-39.35-1.99z"/><path style="fill:#858687" d="m91.39 55.49-.03 5.2 5.38-.75v-4.46l17.18-.04v4.2l5.42.17v-4.37s1.37-.06 2.33-.06c1.31 0 1.59-1.2 1.59-1.64s-.22-1.64-2.13-1.58c-1.91.05-15.93-1.36-15.93-1.36l-16.15 1.47s-1.36.08-1.36 1.5c0 1.47.79 1.73 2.09 1.73.93 0 1.61-.01 1.61-.01z"/><path style="fill:#e0dfde" d="M120.63 30.84H90.14c-.65 0-.93.49-.98 1.53-.05 1.04-.11 19.91-.11 19.91l32.56-.05s.05-19.36.11-20.13c.06-.77-.43-1.26-1.09-1.26z"/><path style="fill:#ffa627" d="m92.27 33.51-.06 16.36h26.29l.17-16.36z"/><path style="fill:#eb2901" d="M92.24 41.57s4.61-4.46 8.87-4.13c4.25.33 3.55 4.91 6.16 4.8 2.62-.11 11.39-6.92 11.39-6.92l-.07 4.39s-7.62 6.62-12.09 6.46c-4.47-.16-3.54-4.38-6.27-4.58-3.14-.23-8.02 5.12-8.02 5.12l.03-5.14z"/><path style="fill:#c4aa9d" d="M89.45 123.67h32.67c.99 0 1.78-.99 1.78-2.47 0-1.48.07-55.09.07-55.09l-17.74-2.66-17.49 2.92-1.76 41.21 2.47 16.09z"/><path style="fill:#e4c5b1" d="m88.74 66.37 35.23-.03s1.39-4.26 1.65-5.39c.26-1.14.79-2.36-1.57-2.45-2.36-.09-34.65.02-34.65.02l-.66 7.85z"/><path style="fill:#987869" d="m89.43 58.53.01 65.15s-82.03.1-83.41.1-1.78-.99-1.78-3.16V26.26l81.49-.03v32.32l3.69-.02z"/><path style="fill:#c6a99d" d="M4.25 30.07h81.5v66.39H4.26c0 .01-.12-66.5-.01-66.39z"/><path style="fill:#765f57" d="M19.08 123.75s.17-21.83.13-22.12c-.04-.26 12.35-.16 24.9-.16 13.05.01 26.29-.07 26.25.08-.07.3-.08 22.14-.08 22.14l-51.2.06z"/><path style="fill:#464b4e" d="M7.85 106.51h6.92v14.79H7.85z"/><path style="fill:#a7d0d6" d="M9.15 107.84h4.39V120H9.15z"/><path style="fill:#464b4e" d="M75.06 106.88h6.76v14.33h-6.76z"/><path style="fill:#a7d0d6" d="M76.42 108.24h4.14v11.61h-4.14z"/><path style="fill:#385661" d="m75.2 100.18 6.55.05s2.1 6.93 2.34 7.66c.25.76-.2 1.36-1.41 1.41-.96.04-8.58 0-9.24-.05-.66-.05-.91-.81-.56-1.82.2-.54 2.32-7.25 2.32-7.25zm-67.16-.31h6.76s1.68 5.76 2.02 7.07c.3 1.16-.45 2.02-1.26 2.02s-8.48-.05-9.03-.05-1.21-1.01-.76-2.47c.45-1.48 2.27-6.57 2.27-6.57z"/><path style="fill:#464b4e" d="m36.3 123.73-13.34.02.17-15.71H36.3zm15.8-.02-13.38.02v-15.59H52.1zm14.69-.01-12.43.01.01-15.52h12.41z"/><path style="fill:#a8cfd6" d="M65.47 123.7s-2.82.02-5.01.02-4.68-.01-4.68-.01v-14.16h9.69v14.15zm-14.59.02s-3.02.05-5.65.04l-5.45-.02v-14.18h11.1v14.16zm-16.13.02s-3.86.04-6.03.03c-1.86-.01-4.28-.01-4.28-.01v-14.24h10.35l-.04 14.22z"/><path style="fill:#464b4e" d="M8.19 34.63h7.48v17.74H8.19zm0 22.46h7.39v16.16H8.19zm-.26 20.52h7.72v15.94H7.93zm19.51-43.43H38.3V93.5H27.44zm13.17.1h11.03v59.17H40.61zm13.76-.15h10.26v59.12H54.37z"/><path style="fill:#a8cfd6" d="M29.35 36.74h7.24v54.89h-7.24zm13.17.2h7.34v54.79h-7.34zm-32.48-.4h3.92v13.67h-3.92zm-.19 22.42h4.01v12.17H9.85zm.09 20.81h4.02v11.66H9.94zm46.43-42.83h6.54v54.49h-6.54z"/><path style="fill:#464b4e" d="M74.86 34.64h7.48v17.74h-7.48zM74.84 57h7.39v16.16h-7.39zm-.24 20.61h7.72v15.94H74.6z"/><path style="fill:#a8cfd6" d="M76.71 36.54h3.92v13.67h-3.92zm-.21 22.32h4.01v12.17H76.5zm.11 20.91h4.02v11.66h-4.02z"/><path style="fill:#464b4e" d="M93.86 105.25h25.72v16.06H93.86z"/><path style="fill:#a7d0d6" d="M95.4 106.28h22.73v13.67H95.4z"/><path style="fill:#385661" d="M93.9 100.49s-2.01 7.22-2.17 7.71.11.98.98.98h28.44c.6 0 .81-.65.54-1.79-.27-1.14-2.12-7.06-2.12-7.06l-25.67.16z"/><path style="fill:#464b4e" d="M95.47 84.46h8.96v9.74h-8.96zm-.03-14.96h8.96v9.7h-8.96z"/><path style="fill:#a8cfd6" d="M96.94 85.87h5.97v6.75h-5.97zm0-14.9h5.97v6.57h-5.97z"/><path style="fill:#464b4e" d="M108.76 84.43h8.96v9.74h-8.96zm-.03-14.96h8.96v9.7h-8.96z"/><path style="fill:#a8cfd6" d="M110.22 85.85h5.97v6.74h-5.97zm0-14.91h5.97v6.57h-5.97z"/></svg>