<svg xmlns="http://www.w3.org/2000/svg" viewBox="0 0 128 128" style="enable-background:new 0 0 128 128" xml:space="preserve"><path transform="rotate(-83.886 107.358 52.046)" style="fill:#504f4f" d="M93.21 51.05h28.28v2H93.21z"/><circle style="fill:#504f4f" cx="41.84" cy="64" r="21.84"/><radialGradient id="a" cx="88" cy="75.167" r="21.412" gradientTransform="rotate(180 64.918 64)" gradientUnits="userSpaceOnUse"><stop offset="0" style="stop-color:#eee"/><stop offset="1" style="stop-color:#bdbdbd"/></radialGradient><circle style="fill:url(#a)" cx="41.84" cy="64" r="10"/><circle style="opacity:.2;fill:none;stroke:#eee;stroke-width:.9412;stroke-miterlimit:10;enable-background:new" cx="41.84" cy="64" r="18"/><circle style="opacity:.2;fill:none;stroke:#eee;stroke-miterlimit:10;enable-background:new" cx="41.84" cy="64" r="14.62"/><circle style="fill:#504f4f" cx="89.84" cy="64" r="17.15"/><radialGradient id="b" cx="39.667" cy="74.667" r="21.006" gradientTransform="rotate(180 64.918 64)" gradientUnits="userSpaceOnUse"><stop offset="0" style="stop-color:#eee"/><stop offset="1" style="stop-color:#bdbdbd"/></radialGradient><circle style="fill:url(#b)" cx="89.84" cy="64" r="10"/><circle style="opacity:.2;fill:none;stroke:#eee;stroke-miterlimit:10;enable-background:new" cx="89.84" cy="64" r="13.53"/><path style="fill:#595858" d="M4 32v64c0 2.21 1.79 4 4 4h112c2.21 0 4-1.79 4-4V32c0-2.21-1.79-4-4-4H8c-2.21 0-4 1.79-4 4zm36 46c0 1.1-.9 2-2 2H20c-2.21 0-8-7.16-8-16s5.79-16 8-16h18c1.1 0 2 .9 2 2v28zm68 2H90c-1.1 0-2-.9-2-2V50c0-1.1.9-2 2-2h18c2.21 0 8 7.16 8 16s-5.79 16-8 16z"/><path style="fill:#787676" d="M11.85 38.15h104v2h-104zm0 4h104v2h-104zM12 88h104v2H12zm0 4h104v2H12zm0-8h104v2H12z"/><g style="opacity:.2"><path style="fill:#424242" d="M82 48c1.1 0 2 .9 2 2v28c0 1.1-.9 2-2 2H46c-1.1 0-2-.9-2-2V50c0-1.1.9-2 2-2h36m0-2H46c-2.21 0-4 1.79-4 4v28c0 2.21 1.79 4 4 4h36c2.21 0 4-1.79 4-4V50c0-2.21-1.79-4-4-4z"/></g><radialGradient id="c" cx="63.5" cy="79.5" r="21.844" gradientTransform="matrix(1 0 0 -1 0 128)" gradientUnits="userSpaceOnUse"><stop offset="0" style="stop-color:#ef5350"/><stop offset="1" style="stop-color:#e53935"/></radialGradient><path style="fill:url(#c)" d="M84 50c0-1.1-.9-2-2-2H46c-1.1 0-2 .9-2 2v6h40v-6z"/><radialGradient id="d" cx="63.333" cy="72.833" r="28.404" gradientTransform="matrix(1 0 0 -1 0 128)" gradientUnits="userSpaceOnUse"><stop offset="0" style="stop-color:#fafafa"/><stop offset="1" style="stop-color:#eee"/></radialGradient><path style="fill:url(#d)" d="M44 56v22c0 1.1.9 2 2 2h36c1.1 0 2-.9 2-2V56H44z"/><path style="fill:#bdbdbd" d="M77 66H51c-.55 0-1-.45-1-1v-2c0-.55.45-1 1-1h26c.55 0 1 .45 1 1v2c0 .55-.45 1-1 1zm0 8H51c-.55 0-1-.45-1-1v-2c0-.55.45-1 1-1h26c.55 0 1 .45 1 1v2c0 .55-.45 1-1 1z"/><path style="fill:#424242" d="M64 28H7.89C5.74 28 4 29.74 4 31.89v12.26h4.73l.06-8h110.54l-.06 8H124V31.88c0-2.14-1.74-3.88-3.88-3.88H64z"/></svg>