<svg xmlns="http://www.w3.org/2000/svg" viewBox="0 0 1000 1000"><path fill="#f93" d="M8 195.25c170.83-85.22 341.03-54.42 513.26-27.97 155.21 23.84 312.16 44.57 470.74-34.53v672c-170.83 85.22-341.03 54.42-513.26 27.97C323.53 808.88 166.58 788.15 8 867.25v-672"/><path fill="#fff" d="M8 419.25c170.83-85.22 341.03-54.42 513.26-27.97 155.21 23.84 312.16 44.57 470.74-34.53v224c-170.83 85.22-341.03 54.42-513.26 27.97C323.53 584.88 166.58 564.15 8 643.25v-224"/><path fill="#128807" d="M8 643.25c170.83-85.22 341.03-54.42 513.26-27.97 155.21 23.84 312.16 44.57 470.74-34.53v224c-170.83 85.22-341.03 54.42-513.26 27.97C323.53 808.88 166.58 788.15 8 867.25v-224"/><path fill="#008" d="M587.47 512.94c-.29 49.84-38.93 83.89-87.47 76.66-48.5-7.8-87.19-52.98-87.47-102.54.29-49.84 38.93-83.89 87.47-76.66 48.5 7.8 87.19 52.98 87.47 102.54"/><path fill="#fff" d="M576.53 511.44c-.28 43.6-34.03 73.25-76.53 66.96-42.46-6.86-76.25-46.42-76.53-89.84.28-43.6 34.03-73.25 76.53-66.96 42.46 6.86 76.25 46.42 76.53 89.84"/><path fill="#008" d="M515.31 502.37c-.28 8.84-6.63 14.37-15.31 13.31-8.64-1.62-15.03-9.16-15.31-18.05.28-8.84 6.63-14.37 15.31-13.31 8.64 1.62 15.03 9.16 15.31 18.05M579.67 522.62c-.47 2.21-2.03 3.22-4.29 2.78-2.19-.78-3.41-2.59-3.29-4.86.47-2.19 2.03-3.2 4.29-2.77 2.19.79 3.41 2.58 3.29 4.85"/><path fill="#008" d="m500 578.4 2.62-46.63-.31-2.77-2.31-20.04-.32 2.67-2.3 19.32L500 578.4M574.24 542.63c-1.03 1.91-2.84 2.43-5 1.41-1.99-1.33-2.75-3.33-2.07-5.41 1.03-1.91 2.85-2.43 5-1.41 2 1.32 2.76 3.32 2.07 5.41M480.19 572.67l14.42-42.52 2.75-19.2.37-2.65-.99 2.39-7.2 17.29-9.35 44.69M563.75 559.75c-1.51 1.49-3.47 1.48-5.36-.05-1.67-1.79-1.93-3.85-.71-5.6 1.51-1.49 3.47-1.48 5.37.05 1.66 1.78 1.92 3.85.7 5.6M461.73 562.02l25.24-35.53 7.61-17.06 1.05-2.35-13.21 16.02-20.69 38.92M548.92 572.78c-1.88.97-3.86.41-5.37-1.53-1.22-2.12-.96-4.09.71-5.39 1.89-.96 3.86-.41 5.37 1.53 1.22 2.11.96 4.09-.71 5.39M445.88 547.2l34.33-26.18 13.61-15.64-17.32 11.27-30.62 30.55M530.75 580.79c-2.13.38-3.98-.69-5-2.88-.69-2.32.07-4.07 2.07-4.81 2.13-.38 3.98.68 5 2.88.7 2.31-.06 4.06-2.07 4.81M433.72 529.2l41.08-15.08 17.63-10.81-2.46.69-17.79 5.06-38.46 20.14M510.49 583.24c-2.23-.23-3.82-1.73-4.29-4.04-.12-2.33 1.08-3.74 3.29-3.89 2.23.23 3.83 1.73 4.29 4.04.12 2.33-1.08 3.75-3.29 3.89M426.07 509.21l45.04-2.95 17.96-4.61 2.48-.64-19.16-.13-2.64-.02-43.68 8.35M489.51 579.99c-2.19-.81-3.41-2.64-3.29-4.9.47-2.2 2.03-3.18 4.29-2.71 2.18.81 3.41 2.63 3.29 4.9-.47 2.2-2.03 3.18-4.29 2.71M423.47 488.56l45.92 9.41 2.65.08 19.21.6-19.21-5.32-2.65-.73-45.92-4.04M469.25 571.32c-1.99-1.35-2.76-3.36-2.07-5.44 1.03-1.9 2.84-2.4 5-1.36 1.99 1.35 2.75 3.36 2.07 5.44-1.03 1.9-2.85 2.4-5 1.36M426.07 468.63l43.68 21.19 2.64.79 19.16 5.76-17.96-10.14-2.48-1.39-45.04-16.21M451.08 557.84c-1.67-1.79-1.92-3.85-.71-5.6 1.52-1.49 3.48-1.46 5.37.07 1.67 1.8 1.92 3.86.71 5.61-1.51 1.48-3.48 1.46-5.37-.08M433.72 450.8l38.46 31.56 2.45 1.45 17.8 10.54-15.49-14.28-2.14-1.97-41.08-27.3M436.25 540.48c-1.23-2.12-.97-4.09.7-5.4 1.89-.98 3.86-.43 5.37 1.51 1.22 2.11.96 4.08-.71 5.39-1.88.97-3.86.42-5.36-1.5M445.88 436.33l30.62 39.77 2.1 2.01 15.22 14.6-11.96-17.44-1.65-2.4-34.33-36.54M425.76 520.38c-.7-2.3.06-4.06 2.07-4.83 2.13-.41 3.98.64 5 2.83.69 2.3-.07 4.05-2.07 4.82-2.14.4-3.98-.64-5-2.82M461.73 426.23l20.69 45.24 1.6 2.43 11.61 17.66-7.61-19.4-1.05-2.68-25.24-43.25M420.33 498.86c-.12-2.32 1.08-3.76 3.29-3.94 2.24.2 3.83 1.67 4.29 3.98.12 2.33-1.08 3.76-3.29 3.94-2.23-.2-3.82-1.67-4.29-3.98M480.19 421.21l9.35 47.58 1 2.69 7.19 19.51-2.74-20.05-.38-2.76-14.42-46.97M420.33 477.38c.47-2.21 2.03-3.22 4.29-2.78 2.19.78 3.41 2.59 3.29 4.86-.47 2.19-2.03 3.2-4.29 2.77-2.19-.79-3.41-2.58-3.29-4.85M500 421.6l-2.62 46.63.31 2.77 2.31 20.04.32-2.67 2.3-19.32L500 421.6M425.76 457.37c1.03-1.91 2.84-2.43 5-1.41 1.99 1.33 2.75 3.33 2.07 5.41-1.03 1.91-2.85 2.43-5 1.41-2-1.32-2.76-3.32-2.07-5.41M519.81 427.33l-14.42 42.52-2.75 19.2-.37 2.65.99-2.39 7.2-17.29 9.35-44.69M436.25 440.25c1.51-1.49 3.47-1.48 5.36.05 1.67 1.79 1.93 3.85.71 5.6-1.51 1.49-3.47 1.48-5.37-.05-1.67-1.78-1.92-3.85-.7-5.6M538.27 437.98l-25.24 35.53-7.61 17.06-1.05 2.35 13.21-16.02 20.69-38.92M451.08 427.22c1.88-.97 3.86-.41 5.37 1.53 1.22 2.12.96 4.09-.71 5.39-1.89.96-3.86.41-5.37-1.53-1.22-2.11-.96-4.09.71-5.39M554.12 452.8l-34.33 26.18-13.61 15.64 17.32-11.27 30.62-30.55M469.25 419.21c2.13-.38 3.98.69 5 2.88.69 2.32-.07 4.07-2.07 4.81-2.13.38-3.98-.68-5-2.88-.7-2.31.06-4.06 2.07-4.81M566.28 470.8l-41.08 15.08-17.63 10.81 2.46-.69 17.79-5.06 38.46-20.14M489.51 416.76c2.23.23 3.82 1.73 4.29 4.04.12 2.33-1.08 3.74-3.29 3.89-2.23-.23-3.83-1.73-4.29-4.04-.12-2.33 1.08-3.75 3.29-3.89M573.93 490.79l-45.04 2.95-17.96 4.61-2.48.64 19.16.13 2.64.02 43.68-8.35M510.49 420.01c2.19.81 3.41 2.64 3.29 4.9-.47 2.2-2.03 3.18-4.29 2.71-2.18-.81-3.41-2.63-3.29-4.9.47-2.2 2.03-3.18 4.29-2.71M576.53 511.44l-45.92-9.41-2.65-.08-19.21-.6 19.21 5.32 2.65.73 45.92 4.04M530.75 428.68c1.99 1.35 2.76 3.36 2.07 5.44-1.03 1.9-2.84 2.4-5 1.36-1.99-1.35-2.75-3.36-2.07-5.44 1.03-1.9 2.85-2.4 5-1.36M573.93 531.37l-43.68-21.19-2.64-.79-19.16-5.76 17.96 10.14 2.48 1.39 45.04 16.21M548.92 442.16c1.67 1.79 1.92 3.85.71 5.6-1.52 1.49-3.48 1.46-5.37-.07-1.67-1.8-1.92-3.86-.71-5.61 1.51-1.48 3.48-1.46 5.37.08M566.28 549.2l-38.46-31.56-2.45-1.45-17.8-10.54 15.49 14.28 2.14 1.97 41.08 27.3M563.75 459.52c1.23 2.12.97 4.09-.7 5.4-1.89.98-3.86.43-5.37-1.51-1.22-2.11-.96-4.08.71-5.39 1.88-.97 3.86-.42 5.36 1.5M554.12 563.67 523.5 523.9l-2.1-2.01-15.22-14.6 11.96 17.44 1.65 2.4 34.33 36.54M574.24 479.62c.7 2.3-.06 4.06-2.07 4.83-2.13.41-3.98-.64-5-2.83-.69-2.3.07-4.05 2.07-4.82 2.14-.4 3.98.64 5 2.82M538.27 573.77l-20.69-45.24-1.6-2.43-11.61-17.66 7.61 19.4 1.05 2.68 25.24 43.25M579.67 501.14c.12 2.32-1.08 3.76-3.29 3.93-2.24-.19-3.83-1.66-4.29-3.97-.12-2.33 1.08-3.76 3.29-3.94 2.23.2 3.82 1.67 4.29 3.98M519.81 578.79l-9.35-47.58-1-2.69-7.19-19.51 2.74 20.05.38 2.76 14.42 46.97"/><path fill="#1A1A1A" opacity=".2" d="M8 195.25c170.83-85.22 341.03-54.42 513.26-27.97 155.21 23.84 312.16 44.57 470.74-34.53v672c-170.83 85.22-341.03 54.42-513.26 27.97C323.53 808.88 166.58 788.15 8 867.25v-672m31.25 19.39v604.5c306.56-128.26 611.18 96.04 921.5-33.78v-604.5c-306.56 128.26-611.18-96.04-921.5 33.78"/></svg>