<svg xmlns="http://www.w3.org/2000/svg" viewBox="0 0 128 128" style="enable-background:new 0 0 128 128" xml:space="preserve"><path style="fill:#868686" d="M31.1 76.99s-3.75 3.47-4.97 6.95c-1.22 3.47-3.28 11.92-4.13 12.67s-3.66 2.06-4.69 2.53c-1.03.47-3.28.94-3.28 2.53s2.06 1.6 5.63 1.03 4.88-.75 5.54-1.6 4.32-14.17 4.88-15.02c.56-.84 1.6-3.19 4.79-5.63s6.85-5.44 6.85-5.44l-6.01-3.75-4.61 5.73z"/><path style="fill:#151413" d="M12.56 44.94s-1.08-2.53-4.13-1.74c-2.68.7-4.13 4.74-3.38 6.62s2.86 2.72 2.86 2.72l4.65-7.6z"/><path style="fill:#5d6265" d="M15 16.03c-.75.08-1.97 5.02-5.54 4.32-2.64-.52-2.13-4.22 1.22-6.05 3-1.64 4.93-.99 6.76-.33 2.7.97 5.4 3.94 6.71 7.41 1.31 3.47 2.87 7.83 3.52 12.95.66 5.21.28 5.4.28 5.4l-2.53.19s.47-1.31-.47-6.99c-.53-3.21-1.83-7.25-3-10.23-1.32-3.33-4.04-6.99-6.95-6.67zm21.35 3.48c-.69-.12-2.44 2.3-4.9.88-2.18-1.26-1.15-4.5 2.09-4.82 2.07-.21 4.68 1.28 5.96 2.58 1.97 2.02 3.43 5.35 4.08 8.73.68 3.49.6 6.76-.84 11.5-1.55 5.07-3.38 7.18-3.38 7.18l-1.97-2.02s1.36-1.88 2.82-5.91c1.06-2.94 1.69-6.19.99-10-.66-3.53-2.88-7.79-4.85-8.12z"/><path style="fill:#5d6265" d="M15.24 40.95C10.1 43.35 3.44 51.14 4.63 60.1c.94 7.04 6.1 14.36 16.05 16.61 9.95 2.25 16.05-.94 16.05-.94l4.97-.75 4.32 6.01 12.86.09 8.45-3.47s5.89 8.38 7.83 11.33c1.94 2.96 8.38 8.17 8.38 8.17s1.74 1.3 3.53 2.3c1.69.94 9.81 4.88 17.2 5.23 12.92.62 16.81-2.98 17.63-4.01.4-.51.83-2.52 1-3.59.13-.84 1.51-8.79.47-15.02-.84-5.07-3.57-14.08-13.8-23.09s-24.12-11.26-32.85-6.19c-8.23 4.78-11.07 11.73-11.07 11.73s-2.63-6.96-9.76-7.88c-5.82-.75-8.35 2.25-8.35 2.25s.56-12.67-12.2-18.4c-9.33-4.17-17.29-.84-20.1.47z"/><path style="fill:#afafae" d="M52.31 58.78c-2.81.76-3.94 3.85-2.91 5.73 1.03 1.88 2.98 2.65 5.16 2.06 2.82-.75 3.94-3.28 3.28-5.16-.65-1.87-3.09-3.28-5.53-2.63zm24.21 4.42c1.31 2.63 5.21 2.7 8.82.47 3.94-2.44 4.13-5.91 2.72-7.6-1.94-2.33-5.91-1.97-8.35-.38-2.44 1.59-4.9 4.08-3.19 7.51z"/><path style="fill:#0a0a0a" d="M19.93 49.63c-1.49 2.52-1.89 6.93 1.88 8.59 4.32 1.9 6.99-1.2 7.98-3.66.94-2.35 1.09-6.34-2.25-7.7-3.5-1.42-6.13.28-7.61 2.77z"/><path style="fill:#44484e" d="M8.48 62.02c.13 1.32 0 2.16-.75 2.67-.93.64-1.67.32-1.67.32s-1.27-1.23-1.57-3.7c-.17-1.37.05-3.38.05-3.38s3.7 1.7 3.94 4.09z"/><path style="fill:#4d4d4d" d="M44.43 68.5c.63.21-.42 6.55.14 7.53.56.99 4.72 3.66 10.42 2.96 5.7-.7 8.24-4.26 9.15-6.26.58-1.26 1.13-3.31 1.55-3.38.42-.07 3.38 4.65 5.42 7.18 2.04 2.53 3.31 4.58 7.39 8.59s9.36 7.11 9.36 7.11-1.1 1.39-1.99 2.49l-2.11 2.58s-6.42-4.86-9.62-8.97c-3.12-4.01-6.4-8-6.9-7.07-.25.46 1.89 3.4 2.78 5.03 1.27 2.32 2.64 4.58 3.17 5.81.51 1.19 2.69 6.77 3.77 10.42.7 2.39 1.15 5.25 1.34 5.42.53.46 3.87 3.73 4.72 4.5.84.77 2.39 2.46 1.27 3.66-1.13 1.2-3.59-.6-4.15-1.02s-5.98-3.98-6.62-4.75c-.63-.77-1.56-5.16-1.97-6.83-.46-1.87-3.17-8.31-3.59-9.57-.42-1.27-2.96-5.68-3.66-6.65-1.09-1.51-1.9-3.52-3.59-3.03-.84.25-1.58.39-2.29.7-.14.92-.25 13.34-.46 14.47-.21 1.13-.84 10.28-.77 11.12.07.84 4.08 6.12 4.58 6.76.49.63.63 1.9-.21 2.6-.84.7-3.17.28-3.8-.21-.63-.49-4.79-4.65-5.14-5.84-.35-1.2-.28-12.32-.28-14.15s.42-14.08.14-14.64c-.42-.07-1.16 0-3.55-.49-1.37-.28-2.5-.95-2.92-.99-.21.39-3.87 9.15-4.58 11.76-.7 2.6-3.66 15.63-4.01 16.26-.35.63-3.17 3.2-6.26 4.22-1.62.53-6.55 1.76-7.53.49-.99-1.27 2.75-3.8 4.72-4.86 1.97-1.06 4.29-2.46 4.58-2.75.28-.28 2.46-12.88 2.75-14.36s5-12.67 4.93-13.16c-2.18-1.9-4.01-5.28-4.01-5.28s2.71-1.06 4.68-2.89c1.55-1.5 3.15-4.51 3.15-4.51z"/><path style="fill:#4d4d4d" d="M91.05 94.24s-1.35 1.82-2.21 2.89c-1.1 1.36-2.09 2.18-2.09 2.18s4.76 2.33 7.61 3.35c4.42 1.57 7.13 1.74 7.13 1.74s1.35-1.6 2.2-2.63c1.13-1.36 2.06-2.82 2.06-2.82s-4.8-.58-8.17-1.74c-4.52-1.54-6.53-2.97-6.53-2.97zm18.87 5.3s-1.27 1.88-2.16 3.15c-.7 1-1.74 2.02-1.74 2.02s6.81.21 10.45-.95c2-.64 4.45-1.72 5.34-2.89.65-.84 1.17-4.36 1.17-4.36s-2.18 2.39-6.57 2.86c-3.27.36-6.49.17-6.49.17z"/><path style="fill:#838383" d="M105.76 98.95s.45.06 1.93.29c2.03.31 2.27.26 2.27.26s4.53-7.64 6.69-14.11c2.23-6.7 2.46-14.92 2.46-14.92s-1.2-1.97-1.67-2.67-1.64-2.21-1.64-2.21-.76 11.57-3.1 18.82c-2.79 8.66-6.94 14.54-6.94 14.54zm-17.9-6.73s6.86-9.87 9.22-16.82c1.06-3.12 2.57-9.4 2.96-12.07.79-5.49.28-10.31.28-10.31s1.03.37 2.29 1.06c.77.42 1.69 1.06 1.69 1.06s.66 3.81-.39 9.57c-.81 4.47-1.96 8.91-3.41 13.02-2.22 6.26-9.42 16.54-9.42 16.54l-3.22-2.05z"/></svg>