<svg xmlns="http://www.w3.org/2000/svg" viewBox="0 0 128 128" style="enable-background:new 0 0 128 128" xml:space="preserve"><path style="fill:#c62828" d="M12.53 53.05c-4.57.01-8.28 3.72-8.28 8.29v38.38a8.297 8.297 0 0 0 8.28 8.28h5.55V53l-5.55.05zm103.19 0c4.57.01 8.28 3.72 8.28 8.29v38.38c-.01 4.57-3.71 8.28-8.28 8.29h-5.55v-55l5.55.04z"/><path style="fill:#90a4ae" d="m113.17 54.41-.12-10c-.03-4.3-3.53-7.77-7.83-7.75H67.05V23.25c5.11-1.69 7.89-7.2 6.2-12.31-1.69-5.11-7.2-7.89-12.31-6.2s-7.89 7.2-6.2 12.31a9.743 9.743 0 0 0 6.2 6.2v13.46H22.78c-4.28.01-7.75 3.47-7.78 7.75v71.78c.03 4.28 3.5 7.74 7.78 7.76h82.44c4.3.01 7.8-3.46 7.83-7.76v-7.37h.12V54.41z"/><path style="fill:#c62828" d="M64 18c-2.21 0-4-1.79-4-4s1.79-4 4-4 4 1.79 4 4-1.79 4-4 4z"/><linearGradient id="a" gradientUnits="userSpaceOnUse" x1="64.005" y1="22.44" x2="64.005" y2="35.55" gradientTransform="matrix(1 0 0 -1 0 130)"><stop offset=".12" style="stop-color:#e0e0e0"/><stop offset=".52" style="stop-color:#fff"/><stop offset="1" style="stop-color:#eaeaea"/></linearGradient><path style="fill:url(#a)" d="M44.15 94.45h39.71c3.46 0 6.27 2.81 6.27 6.27v.57c0 3.46-2.81 6.27-6.27 6.27H44.15c-3.46 0-6.27-2.81-6.27-6.27v-.57c0-3.46 2.81-6.27 6.27-6.27z"/><linearGradient id="b" gradientUnits="userSpaceOnUse" x1="54.85" y1="22.44" x2="54.85" y2="35.53" gradientTransform="matrix(1 0 0 -1 0 130)"><stop offset="0" style="stop-color:#333"/><stop offset=".55" style="stop-color:#666"/><stop offset="1" style="stop-color:#333"/></linearGradient><path style="fill:url(#b)" d="M53.67 94.47h2.36v13.09h-2.36z"/><linearGradient id="c" gradientUnits="userSpaceOnUse" x1="64.06" y1="22.44" x2="64.06" y2="35.53" gradientTransform="matrix(1 0 0 -1 0 130)"><stop offset="0" style="stop-color:#333"/><stop offset=".55" style="stop-color:#666"/><stop offset="1" style="stop-color:#333"/></linearGradient><path style="fill:url(#c)" d="M62.88 94.47h2.36v13.09h-2.36z"/><linearGradient id="d" gradientUnits="userSpaceOnUse" x1="73.15" y1="22.44" x2="73.15" y2="35.53" gradientTransform="matrix(1 0 0 -1 0 130)"><stop offset="0" style="stop-color:#333"/><stop offset=".55" style="stop-color:#666"/><stop offset="1" style="stop-color:#333"/></linearGradient><path style="fill:url(#d)" d="M71.97 94.47h2.36v13.09h-2.36z"/><linearGradient id="e" gradientUnits="userSpaceOnUse" x1="82.8" y1="22.44" x2="82.8" y2="35.53" gradientTransform="matrix(1 0 0 -1 0 130)"><stop offset="0" style="stop-color:#333"/><stop offset=".55" style="stop-color:#666"/><stop offset="1" style="stop-color:#333"/></linearGradient><path style="fill:url(#e)" d="M81.62 94.47h2.36v13.09h-2.36z"/><linearGradient id="f" gradientUnits="userSpaceOnUse" x1="45.2" y1="22.46" x2="45.2" y2="35.55" gradientTransform="matrix(1 0 0 -1 0 130)"><stop offset="0" style="stop-color:#333"/><stop offset=".55" style="stop-color:#666"/><stop offset="1" style="stop-color:#333"/></linearGradient><path style="fill:url(#f)" d="M44.02 94.45h2.36v13.09h-2.36z"/><path style="fill:#c62828" d="M64 85.33h-5.33c-.55 0-1-.45-1-1 0-.16.04-.31.11-.45l2.74-5.41 2.59-4.78a.996.996 0 0 1 1.76 0l2.61 5 2.71 5.19c.25.49.06 1.09-.43 1.35-.14.07-.29.11-.45.11L64 85.33z"/><radialGradient id="g" cx="42.64" cy="63.19" r="11.5" gradientTransform="matrix(1 0 0 -1 0 130)" gradientUnits="userSpaceOnUse"><stop offset=".48" style="stop-color:#fff"/><stop offset=".77" style="stop-color:#fdfdfd"/><stop offset=".88" style="stop-color:#f6f6f6"/><stop offset=".96" style="stop-color:#ebebeb"/><stop offset="1" style="stop-color:#e0e0e0"/></radialGradient><circle style="fill:url(#g)" cx="42.64" cy="66.81" r="11.5"/><linearGradient id="h" gradientUnits="userSpaceOnUse" x1="30.14" y1="63.19" x2="55.14" y2="63.19" gradientTransform="matrix(1 0 0 -1 0 130)"><stop offset="0" style="stop-color:#333"/><stop offset=".55" style="stop-color:#666"/><stop offset="1" style="stop-color:#333"/></linearGradient><circle style="fill:none;stroke:url(#h);stroke-width:2;stroke-miterlimit:10" cx="42.64" cy="66.81" r="11.5"/><radialGradient id="i" cx="84.95" cy="63.22" r="11.5" gradientTransform="matrix(1 0 0 -1 0 130)" gradientUnits="userSpaceOnUse"><stop offset=".48" style="stop-color:#fff"/><stop offset=".77" style="stop-color:#fdfdfd"/><stop offset=".88" style="stop-color:#f6f6f6"/><stop offset=".96" style="stop-color:#ebebeb"/><stop offset="1" style="stop-color:#e0e0e0"/></radialGradient><path style="fill:url(#i)" d="M85 55.28c-6.35 0-11.5 5.15-11.5 11.5s5.15 11.5 11.5 11.5 11.5-5.15 11.5-11.5c-.01-6.35-5.15-11.49-11.5-11.5z"/><linearGradient id="j" gradientUnits="userSpaceOnUse" x1="72.45" y1="63.22" x2="97.45" y2="63.22" gradientTransform="matrix(1 0 0 -1 0 130)"><stop offset="0" style="stop-color:#333"/><stop offset=".55" style="stop-color:#666"/><stop offset="1" style="stop-color:#333"/></linearGradient><path style="fill:none;stroke:url(#j);stroke-width:2;stroke-miterlimit:10" d="M85 55.28c-6.35 0-11.5 5.15-11.5 11.5s5.15 11.5 11.5 11.5 11.5-5.15 11.5-11.5c-.01-6.35-5.15-11.49-11.5-11.5z"/></svg>