<svg xmlns="http://www.w3.org/2000/svg" viewBox="0 0 128 128" style="enable-background:new 0 0 128 128" xml:space="preserve"><path style="fill:#e8a631" d="M63.01 99.87s-3.81 9.69-5.89 13.34c-1.64 2.88-8.27 3.66-12.32 4.7-3.52.9-8.08.88-8.52 2.86-.44 1.99 1.06 3.04 4.62 3.17 3.57.13 29.37 0 31.18 0 1.81 0 3.12-2.31-.6-4.86-3.27-2.24-4.53-2.43-3.21-5.33 1.32-2.91 7.45-12.4 7.45-12.4l-12.71-1.48z"/><path style="fill:#78a3ad" d="M32.6 20.99s2.14 2.89 1.94 5.53c-.13 1.7 0 4.31-8.22 7.7-9.96 4.11-14.95 8.54-14.88 16.34.1 10.95 6.68 16.59 9.6 18.77s1.45 8.31 8.92 15.56c10.7 10.39 16.65 9.05 22.19 11.52 2.09.93 2.36.98 4.89 4.52 1.95 2.73 6.24 7.08 12.11 7.08 7.55 0 8.7-6.36 11.65-7.74s24.08-3.17 26.48-20.66c1.88-13.7-13.48-35.13-38.45-40.65-11.21-2.48-18.35.69-22.16 1.64-.92.23-3.19 1.16-3.19 1.16-.71-1.85 2.54-3.61 4.87-5.73 2.68-2.44 5.72-5.08 7.19-7.69C62.97 15.07 51.94.93 38.7 4.59c-4.72 1.3-6.1 16.4-6.1 16.4z"/><path style="fill:#e0e0e0" d="M91.63 50.13s-1.61-6.25 3.05-9.16c3.37-2.12 7.08-1.82 9.48.63 1.27-1.09 2.63-2.18 4.25-2.59 4.57-1.18 9.42 0 11.71 4.32 3.11 5.86.39 8.93-3.35 12.49 0 0 4.51 2.03 4.68 9.28.15 6.42-2.22 13.06-11.37 15.65-3.56 1.01-13.92 1.72-17.87-5.73-1.9-3.59-.26-5.72.55-6.74 2.75-3.47 7.14-1.68 7.14-1.68.38-10.28-8.27-16.47-8.27-16.47z"/><path style="fill:#bdbdbd" d="M113.36 66.39c0-6.63-6.72-6.58-6.72-6.58s5.09 1.71 2.54 6.59c-1.36 2.61-5.44 1.77-7.4-.25-1.05-1.08-2.33-4.25-2.33-4.25s.45 2.85.45 4.67c0 0-4.39-1.8-7.14 1.68-.14.17-.3.39-.47.63 3.33-3.11 6.72-.56 8.6 1.59 2.33 2.67 5.22 2.78 7.37 2.31 2.51-.55 5.1-2.44 5.1-6.39zm3.87-10.56c7.68-4.76 2.9-12.52 2.9-12.52s1.36 5.72-2.72 8.09c-2.36 1.37-6.23 1.15-6.95-2.82-.46-2.54 2.44-3.71 2.44-3.71s-2.2-.56-3.98.86c-2.12 1.69-2.6 4.73-1.26 7.09 2 3.54 6.31 4.65 9.57 3.01z"/><path style="fill:#546e7a" d="M72.8 79.56c1.49-2.98 4.74-7.62 1.55-14.8-.54-1.22-1.6-1.58-1.65-.36-.05 1.22.72 3.91.72 5.54 0 1.44.13 3.19-.79 4.34-.25.31-2.66-.48-5.74-5.38-.22-.36-.92-1.46-1.48-1.02-.11.08-.61.93.54 3.64 1.42 3.34 5.32 4.81 3.88 10.13-.17.63-3.86-.93-6.76-5.32-.63-.96-1.12-1.68-1.83-1.52-.72.15-.13 2.16.31 3.2 1.29 3.07 3.16 4.49 5.03 5.61 3.86 2.3 4.46 4.56 4.35 4.93-.11.37-5.09 2.09-10.15-2.31-6.6-5.74-6.23-14.97-6.39-17.6-.21-3.59.04-6.54-2.86-9.37-1.56-1.52-3.95-1.49-4.6-1.34-.29.07-.73.42-.73.87 0 .31.21.78.85.97 2.97.9 4.23 2.13 4.25 9.05.07 19.26 11.09 22.96 16.79 23.19 3.52.14 6.4-1.56 6.59-2.31.19-.74-.98-2.06-1.53-3.58-1.61-4.32-.53-6.22-.35-6.56z"/><path style="fill:#e0e0e0" d="M20.71 7.08c4.35 1.63 7.76 2.47 10.67 1.75 2.51-.63 5.8-5.37 8.52-3.38.87.63 1.61 1.42 2.2 2.32 1.82 2.77 2.68 5.46 2.39 9.51-.09 1.27-1.73 9.82-7.39 10.24-2.04.15-3.98-.89-5.49-2.27s-2.83-2.7-5.41-4.29c-3.55-2.19-6.91-2.5-10.82-3.96l5.33-9.92z"/><path style="fill:#e8a631" d="M15.33 5.39c1.9-.57 4.99-.23 7.12 2.14 5.32 5.95-.39 11.32-3.5 11.45-4.17.18-4.66-1.02-7-1.79-1.84-.6-3.15.3-4.43 1.05-.67.39-1.55-.2-1.35-.95 2.21-8.02 5.37-10.77 9.16-11.9z"/><ellipse transform="rotate(-53.991 36.994 13.725)" style="fill:#212121" cx="36.99" cy="13.73" rx="2.65" ry="2.01"/><path style="fill:#424242" d="M31.2 17.98c-1.71-.63-8.9-2.44-14.03-2.74-4.5-.26-7.47 1.83-7.6 1.88-.15.06-.27.15-.37.25.76-.29 1.6-.43 2.62-.21 1.19-.36 2.98-.73 5.16-.58 5.16.35 15.75 3.46 15.86 3.49.08.02 1.71.66 1.6.1.01.01-.01-1-3.24-2.19z"/></svg>