<svg xmlns="http://www.w3.org/2000/svg" viewBox="0 0 1000 1000"><path fill="#d52b1e" d="M992 804.75c-170.83 85.22-341.03 54.42-513.26 27.97C323.53 808.88 166.58 788.15 8 867.25v-672c170.83-85.22 341.03-54.42 513.26-27.97 155.21 23.84 312.16 44.57 470.74-34.53v672"/><path fill="#fff" d="M336 478.59c215.4 17.76 434.28 100.76 656-9.84v-336c-170.83 85.22-341.03 54.42-513.26 27.97C323.53 136.88 166.58 116.15 8 195.25c108.24 56.84 216.45 159.95 328 283.34"/><path fill="#0039a6" d="M336 478.59c-108.09-8.82-216.66-2.88-328 52.66v-336c108.32-54.04 216.41-61.77 328-52.66v336"/><path fill="#fff" d="m172 229.05-25.34 83.92c12.87 1.94 25.73 4.33 38.99 7.24L172 229.05"/><path fill="#fff" d="m172 229.05 25.34 76.98a775.455 775.455 0 0 0-38.99 17.91L172 229.05"/><path fill="#fff" d="M249.98 281.43c-27.06.41-54.11 2.25-82 6.22v42c27.07-17.72 54.12-33.52 82-48.22"/><path fill="#fff" d="M249.98 281.43c-21.89 16.63-43.78 34.19-66.34 53.59l-24.1-30.68c29.85-9.8 59.69-17.2 90.44-22.91"/><path fill="#fff" d="M94.02 303.55c21.89 9.94 43.77 21.41 66.34 34.64l24.1-37.25c-29.85-1.64-59.68-1.08-90.44 2.61"/><path fill="#fff" d="M94.02 303.55c27.07-7.86 54.11-13.36 82-16.99v42c-27.07-10.35-54.12-18.82-82-25.01"/><path fill="#fff" d="m220.22 376.39-25.34-77.93a772.653 772.653 0 0 0-39.03 18.07c21.23 18.57 42.48 38.37 64.37 59.86"/><path fill="#fff" d="M220.22 376.39c-21.9-15.04-43.79-29.02-66.34-42.01l24.07-37.53 42.27 79.54"/><path fill="#fff" d="M123.78 389.74a1341.01 1341.01 0 0 1 66.34-60.31l-24.06-30.95-42.28 91.26"/><path fill="#fff" d="m123.78 389.74 25.34-85.03c12.88 2 25.76 4.45 39.03 7.41a2076.472 2076.472 0 0 0-64.37 77.62"/><path fill="#1A1A1A" opacity=".2" d="M8 195.25c170.83-85.22 341.03-54.42 513.26-27.97 155.21 23.84 312.16 44.57 470.74-34.53v672c-170.83 85.22-341.03 54.42-513.26 27.97C323.53 808.88 166.58 788.15 8 867.25v-672m31.25 19.39v604.5c306.56-128.26 611.18 96.04 921.5-33.78v-604.5c-306.56 128.26-611.18-96.04-921.5 33.78"/></svg>