<svg xmlns="http://www.w3.org/2000/svg" viewBox="0 0 128 128" style="enable-background:new 0 0 128 128" xml:space="preserve"><path style="fill:#855c54" d="M36.26 36.96s.28-15.35-1.27-20.55c-1.55-5.21-9.43-5.91-9.43-5.91s2.11-7.6 9.01-6.76 10.91 7.81 13.44 14.15c5.63 14.08 6.69 33.15 6.69 33.15L37.95 91.3l-16.89-4.93 15.2-49.41z"/><path style="fill:#606468" d="m62.44 69.77 2.11-2.82s5.49 2.39 9.29 2.11c3.8-.28 13.51-2.11 13.51-2.11l.42 15.91-26.33-4.65 1-8.44z"/><path style="fill:#865b52" d="M96.09 53.44s-.7-11.97-.7-16.75-2.67-21.26 8.02-20.98c8.16.21 6.05 12.25 6.05 12.25l-2.96 3.52s4.44 23.21 6.19 29.28c3.52 12.15-.84 15.77-.84 15.77L95.1 78.64l.99-25.2z"/><path style="fill:#727f39" d="M11.2 6.41c-4.81 1.35-4.08 5.77-3.94 7.6s1.13 2.11 3.24 2.25c2.11.14 18.02 2.96 21.54 3.94 3.52.99 12.67 2.96 20.41 3.66s30.13 4.22 32.24 4.79c2.11.56 6.34 2.25 16.33 3.52 10 1.27 15.06 2.53 15.77 1.83.7-.7.42-9.01-.42-10.28s-14.92-3.38-19.71-3.52c-4.79-.14-7.6.28-7.6.28s-11.26-2.25-17.03-3.66-15.91-2.53-22.81-3.1c-6.9-.56-20.84-2.53-20.84-2.53s-6.34-2.72-8.45-3.52c-1.19-.44-4.22-2.52-8.73-1.26z"/><path style="fill:#865b52" d="m66.95 17.11-9.01 54.76s6.76.99 8.31-.84c1.55-1.83 4.04-7.56 4.36-16.89.16-4.5-.14-18.16-.14-18.16s6.05 15.2 7.6 19.85c1.55 4.65 5.07 21.26 5.07 21.26l9.15-8.87-19-48.01-6.34-3.1z"/><path style="fill:#f8eac0" d="M28.09 5.85c1.96.6-.77 3.1-1.27 3.94s-.92 2.18-.92 2.18 2.01-2.32 3.38-3.38c1.55-1.2 3.79-1.88 4.79-.77 1.34 1.48-.14 2.04-1.76 3.24-.54.4-1.3 1.05-1.99 1.88-.95 1.14-1.86 2.47-2.31 3.12-.77 1.13-1.97 2.18-3.17 1.76-.77-.27-.42-2.75-.42-2.75s-.07 1.34-1.2.7c-1.13-.63-1.06-4.2-.07-6.41 1.01-2.21 3.11-4.07 4.94-3.51z"/><path style="fill:#f8eac0" d="M32.53 16.2c2.82-2.89 7.88-4.15 5.98-5.77s-5.56.14-7.95 2.75-3.17 6.05-1.9 6.41c1.26.34 2.2-1.68 3.87-3.39zm68.44 2.65c-1.95.27-.46 2.71-.05 3.71.56 1.36.94 3.53 1.13 5.82.28 3.43 1.66 3.33 2.39 1.88.52-1.03.61-2.67.61-3.85 0-1.93-.47-2.86-.21-2.86.42 0 .96 2.53 1.06 4.18.11 1.92-.2 3.85.84 3.99 1.41.19 2.21-1.6 2.3-3.85.07-1.77-.15-3.57 0-3.57.14 0 .75 1.78.8 4.13.03 1.36-.28 3.8.8 3.71 1.38-.12 2.21-4.46 1.69-7.41-.42-2.41-2.06-5.07-3.38-5.3-1.31-.23-.94 1.69-.94 1.69s-.75-2.25-2.67-2.39c-1.76-.13-1.69 1.53-1.69 1.53s-.99-1.64-2.68-1.41z"/><path style="fill:#ae9580" d="M115.57 66.01c-3.23.43-7.13 6.48-7.13 6.48s-5.16-10.89-9.39-17.36-14.17-23.56-15.39-27.6-1.06-7.21.33-7.37c1.27-.14.52-.75.52-.75s.58-4.5-3.66-6.24c-3.66-1.5-6.76.94-6.76.94s-1.69-2.16-6.29-2.16-9.24 2.02-11.64 9.48C54.15 27.69 54 39.45 53.9 43.58c-.09 4.13-1.69 13.42-5.25 19.62-3.57 6.19-8.63 12.76-9.2 16.05s.66 7.51-2.06 7.32c-2.72-.19-4.6-3.1-2.44-7.6s6.29-9.57 6.29-9.57l6.29-20.46 3.66 1.69c1.03-4.32 2.16-11.17-9.29-16.61S11.97 32.78 7.96 47.38c-1.31 4.79-1.41 9.49-1.41 13.23 0 6.34 1.84 14.7 3.66 20.84 2.72 9.2 7.19 15.97 8.68 18.54 3.1 5.35 8.77 11.42 9.67 11.07 1-.39 1.22-2.63 1.22-2.63s2.16 2.82 6.57 6.01 10.98 7.79 12.39 7.23c1.41-.56-.56-3.38-.56-3.38s5.02 2.72 10.04 4.04c3.94 1.03 12.58 1.31 12.48 0s-3.19-2.63-2.82-3.57c.38-.94 1.78 1.7 10.8 1 6.58-.52 18.29-3.9 24.86-13.85s10.32-17.46 12.76-22.43 5.43-9.34 5.91-11.54c.49-2.17.49-6.87-6.64-5.93zM83 70.42c-.44 1.32-4.6 2.72-8.92 2.82-4.32.09-8.17-1.22-9.29-3.19-1.13-1.97 1.5-5.07 2.44-11.17s.47-17.46.56-24.5c.09-7.04 2.16-13.98 2.16-13.98s.19 6.57.66 9.48c.42 2.6 1.31 5.44 2.63 9.1.97 2.69 5.35 10.7 7.41 17.46 2.07 6.76 3.01 12.01 2.35 13.98z"/><path style="fill:#feeac7" d="M33.07 42.17c-6.01-.38-4.5-2.72-9.85-3-5.35-.28-12.02 6.47-12.11 14.08-.09 8.07 5.35 18.58 19.8 19.24 5.53.25 8.45-.61 8.45-.61 3.85-5.44 7.27-9.85 9.57-14.27 1.44-2.76 1.92-5.02 2.39-7.37.42-2.1.2-4.06-2.77-6.85-6.09-5.73-10.52-.91-15.48-1.22z"/><path style="fill:#5c6268" d="m19.37 46.68 3.45 5.88s-2.65 1.11-4.34 2.8c-1.69 1.69-5.58 6.22-5.58 6.22s-1.24-2.79-1.57-4.95c-.33-2.16-.21-3.94-.21-3.94s1.6-1.78 3.75-3.28 4.5-2.73 4.5-2.73zm24.02 1.03-3.66 5.07s2.49 2.02 4.18 3.89 3.33 3.89 3.33 3.89 1.03-1.13 2.11-3.43c.93-1.98 1.27-3.8 1.27-3.8s-2.39-2.25-3.71-3.14-3.52-2.48-3.52-2.48z"/><ellipse style="fill:#010605" cx="21.18" cy="49.59" rx="3.44" ry="3.43"/><ellipse style="fill:#010605" cx="41.93" cy="50.39" rx="3.36" ry="3.29"/><path style="fill:#010605" d="M31.94 48.41c-3.54-.41-5.54 2.06-5.54 2.06s.8 1.31 1.83 2.77c.4.57 1.27 1.88 1.27 2.3 0 .42-1.87.82-3.14.75-2.44-.14-3.47-2.06-4.55-1.27-1.08.8.23 2.72 1.5 3.33 1.27.61 2.77.96 4.27.8 1.74-.19 3.61-1.22 3.61-1.22s2.18 1.55 3.14 1.78c2.53.61 4.13.09 5.49-.94.85-.65 1.81-2.39 1.13-2.82-1.5-.94-2.21 1.41-4.36 1.41-2.16 0-3.57-1.69-3.57-1.69s1.1-1.29 1.64-1.74c.8-.66 2.25-2.35 2.25-2.35s-.93-2.7-4.97-3.17z"/><path style="fill:#cdac93" d="M34.99 101.63c-1.01 1.25-6.01-3.52-7.6-5.54s-4.13-5.16-2.39-6.57c1.74-1.41 4.04 3 5.49 4.97s5.11 6.39 4.5 7.14zm5.35-1.13c-2.17 2.31 2.06 6.01 5.68 8.63s9.29 3.99 9.85 3.19c.56-.8-3.94-2.96-7.74-6.01s-6.33-7.36-7.79-5.81zm11.73 3.24c-.77 1.78 3.24 5.16 9.06 6.1 5.82.94 11.95-.57 11.78-2.02-.14-1.22-3.33-.09-11.12-1.78-5.98-1.3-8.78-4.46-9.72-2.3zm8.78-5.4c-.22 1.44 3 3.05 7.93 2.82s8.26-2.44 8.07-3.43-4.69.23-8.21.28c-3.52.05-7.32-2.72-7.79.33zm4.6 15.96c-.05 2.46 7.29 2.12 11.92.47 5.68-2.02 8.68-6.66 7.84-7.51-.84-.84-3.85 3.05-9.71 4.5-2.71.67-10 .1-10.05 2.54z"/></svg>