<svg xmlns="http://www.w3.org/2000/svg" viewBox="0 0 128 128" style="enable-background:new 0 0 128 128" xml:space="preserve"><path style="fill:#82aec0" d="M113.88 94.05c-1.36-1.16-3.17-2.53-5.46-4.26-8.49-6.44-24.2-18.37-50.96-45.03 2.06-3.75 3.23-7.95 3.36-12.37.24-7.56-2.69-14.97-8.04-20.32-8.84-8.84-22.55-10.61-33.34-4.3-.49.29-.79.82-.79 1.39s.31 1.1.8 1.38l16.61 9.59c1.64 8.29-3.12 16.57-11.18 19.35L8.22 29.84c-.49-.28-1.1-.29-1.59 0-.49.28-.8.8-.81 1.37-.09 8.13 3.4 15.85 9.58 21.18 5.12 4.42 11.52 6.62 17.92 6.62 3.59 0 7.17-.72 10.54-2.11 24.21 24.32 35.66 41.18 42.52 51.29 2.4 3.54 4.14 6.1 5.63 7.77 4.56 5.1 9.52 7.86 14.36 7.99.12 0 5.33.8 10.83-4.7 3.46-3.46 5.14-7.25 4.98-11.24-.2-4.74-2.99-9.44-8.3-13.96zm-9.07 18.92c-3.39 0-6.15-2.75-6.15-6.15s2.75-6.15 6.15-6.15 6.15 2.75 6.15 6.15-2.76 6.15-6.15 6.15z"/><path style="fill:#2f7889" d="M61.13 48.38c-1.2-1.18-2.42-2.39-3.67-3.63 2.06-3.75 3.23-7.95 3.36-12.37.09-3-.32-5.96-1.17-8.79-.76-1.25-1.96-2.59-2.72-1.78.31 9.82-2.54 20.05-9.37 27.11-3.39 3.5-7.8 6.03-12.53 7.23-2.34.59-4.76.85-7.17.72-1.41-.08-5.39-1.55-6.19-.47v.05c3.67 1.71 7.65 2.56 11.63 2.56 3.59 0 7.17-.72 10.54-2.11 7.83 7.87 14.32 14.95 19.76 21.28-2.72-5.14-10.74-14.63-12.88-18.25-.48-.82-1.16-2.92.37-4.81 2.17-2.65 6.58-5.11 10.04-6.74z"/><path style="fill:#b9e4ea" d="M70.01 66.91s3.73-1.64 9.25 2.83c5.52 4.48 26.76 22.54 28.55 24.93 1.79 2.39-5.42-.04-7.96-.48-2.53-.45-29.84-27.28-29.84-27.28zM43.32 12c3.08 2.21 5.84 4.82 8.73 7.28.74.63 1.83 1.27 2.6.66.83-.66.31-1.98-.32-2.84-5.46-7.5-15.65-12.86-25.5-10.73C34.03 8.04 38.7 8.7 43.32 12z"/><path style="fill:#2f7889" d="M18.83 37.74c1.21.72 2.89 1.7 3.86 1.97 1.17.32 4.46-.95 5.42-1.72-3.94-2.57-8.34-5.45-12.29-8.02-.45-.29-.9-.59-1.41-.75-.62-.19-1.28-.18-1.92-.14-.9.04-5.3-.11-5.81.67-.52.79 1.31 1.54 1.9 1.9 3.41 2.04 6.84 4.05 10.25 6.09z"/></svg>