<svg xmlns="http://www.w3.org/2000/svg" viewBox="0 0 128 128" style="enable-background:new 0 0 128 128" xml:space="preserve"><path style="fill:#464c4f" d="M5.17 40.07s.26 3.02 1.97 3.41 9.57-2.75 19.27-2.88c9.7-.13 16.12 1.57 16.12 1.57l6.82-6.95-40.38 1.05-3.8 3.8zm22.55 30.99s-2.1 15.02 7.86 27.87c5.96 7.69 15.92 14.03 27.53 14.16 15.98.17 26.31-7.6 31.72-16.12 7.11-11.19 6.11-24.61 5.96-25.67-.28-1.89-6.74.24-6.74.24L80.94 92.11l-24.12 4.98s-19.4-10.23-20.06-12.06c-.65-1.83-9.04-13.97-9.04-13.97z"/><path style="fill:#606265" d="M123.81 21.98c-.66-.66-12.39-4.06-31.4-2.36-19.32 1.73-29.3 7.47-29.3 7.47s-15.08-8.52-32.25-8.78c-17.17-.26-25.56 4.72-26.35 5.5-.59.59.66 16.26.66 16.26s10.74-3.14 21.11-3.02c11.01.13 17.17 2.49 17.17 2.49s-14.63 9.65-15.8 32.51c-.92 17.96 13.95 35 36.05 35.39 22.15.39 37.02-17.93 37.08-35.36.06-14.95-13.95-30.97-13.95-30.97l36.45-3.31s1.06-4.14 1.18-8.36c.08-2.88 0-6.81-.65-7.46zM64.13 93.2c-7.42-.12-17.77-6.75-17.05-20.19C48 55.73 65.75 47.5 65.75 47.5s16.47 11.14 16.82 24.36c.46 17.51-11.02 21.46-18.44 21.34z"/><path style="fill:#464c4f" d="M123.29 37.81s-.58 3.31-2.32 3.89-21.79-1.07-34.92.93c-9.45 1.43-21.5 5.2-26.33 9.28C47.77 62 47.07 72.99 47.07 72.99s-.72-16.65 16.59-26.77c12.85-7.51 28.89-8.7 39.91-8.93 10.44-.22 19.72.52 19.72.52z"/><path style="fill:#9b9a9b" d="M7.15 27.74c-.64 1.91 0 7.38 3.25 7.38 2.29 0 2.42-3 7.31-5.83 4.73-2.73 7.09-3.25 6.65-5.69s-6.74-2-10.63-.74c-2.75.9-5.92 2.89-6.58 4.88zm82.31-3.16c-.15 2.14 1.98 3.01 4.29 2.88 3.22-.18 4.23-1.24 4.29-3.05.06-1.58-1.91-2.5-4.46-2.37-2.25.11-4 .9-4.12 2.54zm-11.38.12c-1.79.4-14.21 3.66-25.68 11.8-8.53 6.05-13.02 12.17-14.58 15.67-1.19 2.68-1.49 4.66-.1 5.75.87.68 2.53.11 3.57-1.49 1.49-2.28 6.15-10.41 15.77-16.46 12.47-7.84 20.18-9.41 22.11-10.01 3.17-.99 4.36-2.08 4.26-3.87-.09-1.79-2.27-2.08-5.35-1.39zm7.54 61.95c-2.55-1.12-4.14 3.2-6.93 5.78-2.44 2.25-7.2 3.15-6.81 5.46.45 2.63 5 1.78 9.76-2.38 5.07-4.43 6.04-7.96 3.98-8.86z"/></svg>