<svg xmlns="http://www.w3.org/2000/svg" viewBox="0 0 1000 1000"><path fill="#fff" d="M8 195.25c170.83-85.22 341.03-54.42 513.26-27.97 155.21 23.84 312.16 44.57 470.74-34.53v672c-170.83 85.22-341.03 54.42-513.26 27.97C323.53 808.88 166.58 788.15 8 867.25v-672"/><path fill="#005293" d="m254 223.34-25.34 80.55c12.87 3.73 25.74 7.8 39.01 12.33L254 223.34"/><path fill="#005293" d="m254 223.34 25.34 80.07c-12.87 4-25.74 8.28-39.01 13.06L254 223.34"/><path fill="#005293" d="M331.98 284.31c-27.06-2.11-54.12-3.26-82-2.88v42c27.07-14.23 54.12-27.02 82-39.12"/><path fill="#005293" d="M331.98 284.31c-21.89 14.58-43.78 29.79-66.34 46.42L241.54 297c29.85-5.84 59.69-9.85 90.44-12.69"/><path fill="#005293" d="m302.19 376.31-25.34-80.76a908.855 908.855 0 0 0-38.98 13.15c21.22 21.43 42.45 43.79 64.32 67.61"/><path fill="#005293" d="M302.19 376.31c-21.9-17.35-43.79-33.96-66.34-49.99l24.11-34.41 42.23 84.4"/><path fill="#005293" d="M205.81 377.37c21.9-18.01 43.79-34.91 66.34-51.38l-24.11-33.97-42.23 85.35"/><path fill="#005293" d="m205.81 377.37 25.34-81.39c12.86 3.76 25.72 7.87 38.98 12.42-21.23 21.84-42.45 44.49-64.32 68.97"/><path fill="#005293" d="M176.02 286.56c21.89 13.47 43.78 28.17 66.34 44.39l24.1-34.17c-29.85-5.28-59.69-8.93-90.44-10.22"/><path fill="#005293" d="M176.02 286.56c27.07-3.48 54.11-5.08 82-5.2v42c-27.07-13.75-54.12-26.1-82-36.8M8 531.25C170.66 450.1 332.46 474.06 500 500v336c-161.81-25.05-325.35-51.88-492 31.25v-336"/><path fill="#d21034" d="M500 164c161.81 25.05 325.35 51.88 492-31.25v336C829.34 549.9 667.54 525.94 500 500V164M746 608.66l-25.34 79.7c12.88 4.57 25.75 8.87 39.01 12.93L746 608.66"/><path fill="#d21034" d="m746 608.66 25.34 79.21a870.687 870.687 0 0 1-39.01 13.66L746 608.66"/><path fill="#d21034" d="M823.98 661.53c-27.07 3.47-54.11 5.08-82 5.2v42c27.06-13.98 54.11-29.33 82-47.2"/><path fill="#d21034" d="M823.98 661.53c-21.9 19.11-43.78 36.99-66.34 54.34l-24.1-33.76c29.85-4.88 59.68-11.4 90.44-20.58"/><path fill="#d21034" d="m794.19 758.54-25.34-78.37a907.422 907.422 0 0 1-38.98 13.5c21.23 22.33 42.45 43.84 64.32 64.87"/><path fill="#d21034" d="M794.19 758.54c-21.89-14.57-43.78-30.24-66.34-47.34l24.11-34.02 42.23 81.36"/><path fill="#d21034" d="M697.81 759.6c21.89-15.23 43.78-31.2 66.34-48.74l-24.11-33.57-42.23 82.31"/><path fill="#d21034" d="m697.81 759.6 25.34-79c12.86 4.53 25.73 8.77 38.98 12.77-21.23 22.74-42.45 44.54-64.32 66.23"/><path fill="#d21034" d="M668.02 663.78c21.89 18 43.78 35.37 66.34 52.3l24.1-34.19c-29.84-4.33-59.68-10.48-90.44-18.11"/><path fill="#d21034" d="M668.02 663.78c27.06 2.11 54.12 3.26 82 2.88v42c-27.06-13.49-54.12-28.42-82-44.88"/><path fill="#1A1A1A" opacity=".2" d="M8 195.25c170.83-85.22 341.03-54.42 513.26-27.97 155.21 23.84 312.16 44.57 470.74-34.53v672c-170.83 85.22-341.03 54.42-513.26 27.97C323.53 808.88 166.58 788.15 8 867.25v-672m31.25 19.39v604.5c306.56-128.26 611.18 96.04 921.5-33.78v-604.5c-306.56 128.26-611.18-96.04-921.5 33.78"/></svg>