<svg xmlns="http://www.w3.org/2000/svg" viewBox="0 0 128 128" style="enable-background:new 0 0 128 128" xml:space="preserve"><path style="fill:#f3ab47" d="M88.24 9.65v-2.3c0-1.85 1.5-3.35 3.35-3.35h22.62c1.85 0 3.35 1.5 3.35 3.35v8.26c1.2 0 2.17.97 2.17 2.17V92.1H8.26V18.81c0-1.77 1.43-3.2 3.2-3.2h70.81c3.3 0 5.97-2.67 5.97-5.96z"/><path style="fill:#de7340" d="M8.26 34.42v-4.43c0-1.62 1.31-2.94 2.94-2.94h105.6c1.62 0 2.94 1.31 2.94 2.94v4.43H8.26z"/><path style="fill:#ffca28" d="M78.66 24.78v-2.3c0-1.85-1.5-3.35-3.35-3.35H52.69a3.35 3.35 0 0 0-3.35 3.35v2.3c0 3.29-2.67 5.96-5.96 5.96H11.46c-1.77 0-3.2 1.43-3.2 3.2v75.94h111.47V33.94c0-1.77-1.43-3.2-3.2-3.2H84.62c-3.29 0-5.96-2.67-5.96-5.96z"/><path style="fill:#f3ab47" d="M8.26 49.66v-4.54c0-1.62 1.31-2.94 2.94-2.94h105.6c1.62 0 2.94 1.31 2.94 2.94v4.43l-111.48.11z"/><path style="fill:#ffe36c" d="M39.76 39.9v-2.3c0-1.85-1.5-3.35-3.35-3.35H13.79a3.35 3.35 0 0 0-3.35 3.35v8.26c-1.2 0-2.17.97-2.17 2.17v73.13c0 1.56 1.27 2.83 2.83 2.83h105.81c1.56 0 2.83-1.27 2.83-2.83v-72.1c0-1.77-1.43-3.2-3.2-3.2H45.72c-3.29 0-5.96-2.67-5.96-5.96z"/><path style="fill:#f44336" d="M39.76 39.9v-2.3c0-1.85-1.5-3.35-3.35-3.35H13.79a3.35 3.35 0 0 0-3.35 3.35v8.26h35.29c-3.3 0-5.97-2.67-5.97-5.96z"/><path style="fill:#0288d1" d="M78.66 24.78v-2.3c0-1.85-1.5-3.35-3.35-3.35H52.69a3.35 3.35 0 0 0-3.35 3.35v2.3c0 3.29-2.67 5.96-5.96 5.96h41.25c-3.3 0-5.97-2.67-5.97-5.96z"/><path style="fill:#7cb342" d="M117.56 15.07V7.35c0-1.85-1.5-3.35-3.35-3.35H91.59a3.35 3.35 0 0 0-3.35 3.35v2.3c0 2.41-1.44 4.49-3.5 5.42h32.82z"/></svg>