<svg xmlns="http://www.w3.org/2000/svg" viewBox="0 0 128 128" style="enable-background:new 0 0 128 128" xml:space="preserve"><path style="fill:#427687" d="M116 4H12c-4.42 0-8 3.58-8 8v104c0 4.42 3.58 8 8 8h104c4.42 0 8-3.58 8-8V12c0-4.42-3.58-8-8-8z"/><path style="fill:#8cafbf" d="M109.7 4H11.5A7.555 7.555 0 0 0 4 11.5v97.9c-.01 4.14 3.34 7.49 7.48 7.5h98.12c4.14.01 7.49-3.34 7.5-7.48V11.5c.09-4.05-3.13-7.41-7.18-7.5h-.22z"/><path style="fill:#fafafa" d="m106.6 41-24-24a3.996 3.996 0 0 0-5.64.44c-.61.71-.95 1.62-.96 2.56v14c0 1.1-.9 2-2 2H54c-1.1 0-2-.9-2-2V20a4 4 0 0 0-6.6-3l-24 24a3.994 3.994 0 0 0 0 6l24 24a3.996 3.996 0 0 0 5.64-.44c.61-.71.95-1.62.96-2.56V54c0-1.1.9-2 2-2h20c1.1 0 2 .9 2 2v14a4 4 0 0 0 6.6 3l24-24a3.863 3.863 0 0 0 0-6z"/><path style="opacity:.5;fill:#b4e1ed;enable-background:new" d="M39.7 12.9c0-2.3-1.6-3-10.8-2.7-7.7.3-11.5 1.2-13.8 4s-2.9 8.5-3 15.3c0 4.8 0 9.3 2.5 9.3 3.4 0 3.4-7.9 6.2-12.3 5.4-8.7 18.9-10.6 18.9-13.6z"/><path style="fill:#fafafa" d="M56.52 97.71c0 4.61-1.14 8.15-3.43 10.63s-5.56 3.71-9.83 3.71-7.54-1.24-9.83-3.71S30 102.31 30 97.68s1.15-8.17 3.44-10.62c2.29-2.44 5.58-3.67 9.85-3.67s7.55 1.23 9.82 3.69c2.27 2.47 3.41 6.01 3.41 10.63zm-20.32 0c0 3.11.59 5.45 1.77 7.03s2.95 2.36 5.29 2.36c4.71 0 7.06-3.13 7.06-9.39 0-6.27-2.34-9.41-7.03-9.41-2.35 0-4.12.79-5.31 2.37-1.19 1.59-1.78 3.93-1.78 7.04zm49.42 13.96h-7.5L66.01 90.61h-.17c.24 3.72.36 6.37.36 7.96v13.1h-5.27V83.83h7.45l12.09 20.85h.13c-.19-3.62-.29-6.18-.29-7.67V83.83h5.31v27.84zm4.57-2.72c0-.6.09-1.1.26-1.51.17-.41.41-.75.71-1s.66-.44 1.07-.55a4.998 4.998 0 0 1 2.58 0c.4.11.75.3 1.06.55s.54.59.72 1c.18.41.27.92.27 1.51 0 .57-.09 1.06-.27 1.47s-.42.74-.72 1.01-.66.46-1.06.58c-.4.12-.82.18-1.27.18-.47 0-.91-.06-1.31-.18-.41-.12-.76-.31-1.07-.58-.3-.27-.54-.6-.71-1.01-.17-.41-.26-.9-.26-1.47zm5.69-6.51h-4.65l-.97-18.61h6.59l-.97 18.61z"/></svg>