<svg xmlns="http://www.w3.org/2000/svg" xmlns:xlink="http://www.w3.org/1999/xlink" viewBox="0 0 128 128" style="enable-background:new 0 0 128 128" xml:space="preserve"><path style="fill:#ef5350" d="M110.97 59.19v-.04c.01.02.04.06.04.06s2.39 14.4 2.39 17.32c0 17.6-23.26 24.66-48.67 24.67V45.87c19.26.12 30.09 4.58 37.26 8.29 3.36 1.74 8.98 5.03 8.98 5.03zm-93.94 0v-.04c-.01.02-.04.06-.04.06S14.6 73.6 14.6 76.52c0 17.6 23.26 24.66 48.67 24.67V45.87c-19.26.12-30.09 4.58-37.26 8.29-3.36 1.74-8.98 5.03-8.98 5.03z"/><linearGradient id="a" gradientUnits="userSpaceOnUse" x1="85.689" y1="83.356" x2="85.689" y2="30.624" gradientTransform="matrix(1 0 0 -1 0 128)"><stop offset=".255" style="stop-color:#b71c1c"/><stop offset="1" style="stop-color:#d32f2f"/></linearGradient><path style="fill:url(#a)" d="M100.29 48.38c2.62 2.85 7.14 6.77 7.85 10.51 1.13 5.96 1.15 15.17 1.15 16.98 0 8.92-7.34 14.68-16.83 18.72-14.29 6.08-30.37-4.13-30.37-19.12V61.96c0-19.12 24.66-28.2 37.9-13.91.1.12.2.23.3.33z"/><linearGradient id="b" gradientUnits="userSpaceOnUse" x1="42.851" y1="83.356" x2="42.851" y2="30.624" gradientTransform="matrix(1 0 0 -1 0 128)"><stop offset=".255" style="stop-color:#b71c1c"/><stop offset="1" style="stop-color:#d32f2f"/></linearGradient><path style="fill:url(#b)" d="M28.02 48.38c-2.62 2.85-6.52 6.77-7.23 10.51-1.13 5.96-1.31 14.71-1.31 16.52 0 8.92 6.88 15.15 16.38 19.18 14.29 6.08 30.37-4.13 30.37-19.12V61.96c0-19.12-24.66-28.2-37.9-13.91-.11.12-.21.23-.31.33z"/><path style="fill:#312d2d" d="M99.25 82.68C96.77 68.31 91.19 40.33 64 39.28c-27.19 1.05-32.77 29.03-35.25 43.4-2.38 13.83-.65 25.66 7.85 34.86 3.69 4 11.43 4.01 11.43 4.01l15.97-.02 15.97.02s7.74-.01 11.43-4.01c8.49-9.21 10.23-21.03 7.85-34.86z"/><radialGradient id="c" cx="63.762" cy="44.312" r="51.329" gradientTransform="matrix(0 1 .6878 0 33.283 19.926)" gradientUnits="userSpaceOnUse"><stop offset=".831" style="stop-color:#454140;stop-opacity:0"/><stop offset="1" style="stop-color:#454140"/></radialGradient><path style="fill:url(#c)" d="M99.25 82.68C96.77 68.31 91.19 40.33 64 39.28c-27.19 1.05-32.77 29.03-35.25 43.4-2.38 13.83-.65 25.66 7.85 34.86 3.69 4 11.43 4.01 11.43 4.01l15.97-.02 15.97.02s7.74-.01 11.43-4.01c8.49-9.21 10.23-21.03 7.85-34.86z"/><linearGradient id="d" gradientUnits="userSpaceOnUse" x1="12" y1="17.925" x2="116" y2="17.925" gradientTransform="matrix(1 0 0 -1 0 128)"><stop offset="0" style="stop-color:#f44336"/><stop offset=".359" style="stop-color:#e73b32"/><stop offset="1" style="stop-color:#c62828"/></linearGradient><path style="fill:url(#d)" d="M64.14 96.08H64c-25.65.03-52 7.1-52 24.99v3h104v-3c0-16.86-26.1-24.99-51.86-24.99z"/><path style="fill:#edc391" d="M64 90.16h-9.08v9.98c0 4.51 3.7 8.17 8.26 8.17h1.65c4.56 0 8.26-3.66 8.26-8.17v-9.98H64z"/><linearGradient id="e" gradientUnits="userSpaceOnUse" x1="64" y1="43.917" x2="64" y2=".083" gradientTransform="matrix(1 0 0 -1 0 128)"><stop offset="0" style="stop-color:#ffeb3b"/><stop offset=".635" style="stop-color:#ffdd12"/><stop offset="1" style="stop-color:#ffd600"/></linearGradient><path style="fill:url(#e)" d="M94 124.07v-6.1a2.48 2.48 0 0 0-2.48-2.48H66v-5.06l13.36-6.18c2.95-1.36 5.03-4.24 5.51-7.6l1.69-12.03-15.62 8.86c-4.05 2.42-6.71 6.69-7.22 11.46h-.17c-.51-4.77-3.17-9.05-7.22-11.46l-14.9-9.46 1.18 12.29c.34 3.54 2.47 6.62 5.56 8.05l13.27 6.13v4.98H36.48a2.48 2.48 0 0 0-2.48 2.48v6.1c0 .02 60 .02 60 .02z"/><path style="fill:#312d2d" d="M22.56 47.89c0-21.24 82.87-21.24 82.87 0S86.89 83.38 64 83.38 22.56 69.13 22.56 47.89z"/><radialGradient id="f" cx="64" cy="104.299" r="42.61" gradientTransform="matrix(1 0 0 -.7313 0 132.507)" gradientUnits="userSpaceOnUse"><stop offset=".831" style="stop-color:#454140;stop-opacity:0"/><stop offset="1" style="stop-color:#454140"/></radialGradient><path style="fill:url(#f)" d="M22.56 47.89c0-21.24 82.87-21.24 82.87 0S86.89 83.38 64 83.38 22.56 69.13 22.56 47.89z"/><path style="fill:#f9ddbd" d="M63.66 16.1c-17.2 0-33.13 12.79-33.13 39.91 0 21.79 13.49 34.67 25.23 38.83 2.8.99 5.5 1.49 7.9 1.49 2.38 0 5.07-.49 7.85-1.47 11.76-4.14 25.28-17.03 25.28-38.84 0-27.13-15.93-39.92-33.13-39.92z"/><path style="fill:#312d2d" d="M99.29 42.04c0-5.25 2.97-31.91-35.86-31.91S25.46 42.71 25.46 42.71s.47 7.46 2.47 14.71 4.09 10.62 4.09 10.62-.1-4.16.32-9.1c.42-4.94.31-11.88 6.4-13.25C61.11 40.66 73.76 28.8 73.76 28.8c3.29 7.18 13.58 14.19 17.27 16.86 3.03 2.19 4.53 21.79 4.53 21.79s3.73-5.12 3.73-25.41z"/><path style="fill:#dba689" d="M67.81 68.06c-.11-.04-.21-.07-.32-.08H60.5c-.11.01-.21.04-.32.08-.63.26-.98.91-.68 1.61.3.7 1.69 2.66 4.49 2.66 2.8 0 4.2-1.96 4.49-2.66.31-.7-.03-1.36-.67-1.61z"/><ellipse style="fill:#312d2d" cx="47.75" cy="58.87" rx="4.87" ry="5.04"/><ellipse style="fill:#312d2d" cx="80.25" cy="58.87" rx="4.87" ry="5.04"/><path style="fill:#454140" d="M54.99 49.82c-.93-1.23-3.07-3.01-7.23-3.01s-6.31 1.79-7.23 3.01c-.41.54-.31 1.17-.02 1.55.26.35 1.04.68 1.9.39s2.54-1.16 5.35-1.18c2.81.02 4.49.89 5.35 1.18.86.29 1.64-.03 1.9-.39.28-.38.38-1.01-.02-1.55zm32.49 0c-.93-1.23-3.07-3.01-7.23-3.01s-6.31 1.79-7.23 3.01c-.41.54-.31 1.17-.02 1.55.26.35 1.04.68 1.9.39s2.54-1.16 5.35-1.18c2.81.02 4.49.89 5.35 1.18.86.29 1.64-.03 1.9-.39.29-.38.39-1.01-.02-1.55z"/><path style="fill:#444" d="M72.32 76.14c-3.15 1.87-13.47 1.87-16.61 0-1.81-1.07-3.65.57-2.9 2.21.74 1.61 6.37 5.36 11.23 5.36s10.42-3.75 11.16-5.36c.75-1.64-1.08-3.29-2.88-2.21z"/><radialGradient id="g" cx="64" cy="96.242" r="34.638" gradientTransform="matrix(1 0 0 -1 0 128)" gradientUnits="userSpaceOnUse"><stop offset="0" style="stop-color:#f44336"/><stop offset=".299" style="stop-color:#eb3e33"/><stop offset=".784" style="stop-color:#d3302c"/><stop offset=".998" style="stop-color:#c62828"/></radialGradient><path style="fill:url(#g)" d="M64.41 8.08c-46.76 0-43.24 47.35-43.24 47.35s12.21-11.01 43.5-11.01 42.1 9.99 42.1 9.99 4.4-46.33-42.36-46.33z"/><defs><path id="h" d="M64.41 8.08c-46.76 0-43.24 47.35-43.24 47.35s12.21-11.01 43.5-11.01 42.1 9.99 42.1 9.99 4.4-46.33-42.36-46.33z"/></defs><clipPath id="i"><use xlink:href="#h" style="overflow:visible"/></clipPath><path style="clip-path:url(#i);fill:#c62828" d="m47.12 10.43 6.95-2.35v23.75c-1.41-10.26-3.43-17.69-6.95-21.4z"/><defs><path id="j" d="M64.41 8.08c-46.76 0-43.24 47.35-43.24 47.35s12.21-11.01 43.5-11.01 42.1 9.99 42.1 9.99 4.4-46.33-42.36-46.33z"/></defs><clipPath id="k"><use xlink:href="#j" style="overflow:visible"/></clipPath><path style="clip-path:url(#k);fill:#c62828" d="m81.71 10.43-6.95-2.35v23.75c1.41-10.26 3.43-17.69 6.95-21.4z"/><path style="fill:#e53935" d="M69.62 42.99h-10.6c-2.82 0-5.1-2.28-5.1-5.1V9.18c0-2.82 2.28-5.1 5.1-5.1h10.6c2.82 0 5.1 2.28 5.1 5.1v28.7c0 2.83-2.28 5.11-5.1 5.11z"/><linearGradient id="l" gradientUnits="userSpaceOnUse" x1="46.507" y1="102.838" x2="81.494" y2="102.838" gradientTransform="matrix(1 0 0 -1 0 128)"><stop offset="0" style="stop-color:#ffee58"/><stop offset=".366" style="stop-color:#fee84f"/><stop offset=".961" style="stop-color:#fdd937"/><stop offset="1" style="stop-color:#fdd835"/></linearGradient><path style="fill:url(#l)" d="M79.76 25.59c-3.86-6.68 1.03-9.56 1.03-9.56l-4.11-5.25s-3.26 1.02-6.69.51c-3.31-.49-5.81-3.26-5.98-3.45v-.02l-.01.01-.01-.01v.02c-.17.19-2.67 2.96-5.98 3.45-3.43.51-6.69-.51-6.69-.51l-4.11 5.25s4.89 2.88 1.03 9.56-1.49 13.78 9.34 15.06c2.87.34 5.74 1.52 5.74 1.52l.16.04v.29l.52-.14.52.15v-.29l.16-.04s2.88-1.19 5.74-1.52c10.83-1.29 13.2-8.39 9.34-15.07z"/><ellipse style="fill:#6d4c41" cx="64" cy="25.66" rx="12.51" ry="11.84"/><path style="fill:#ffeb3b" d="M62.81 19.17c-.56-.51-.85-1.27-.75-2-.37.43-.54 1.01-.59 1.43-.21 1.93 2.03 2.54 2.07 2.5.07-.09.21-.33.04-.8-.26-.7.42-1.09.42-1.09s-.26.56-.07.8c.3.38.57.36.7.55.14.2-.02.51-.16.58 1.01-.08 1.81-.95 2.02-1.88.21-.93-.06-1.9-.46-2.78-.06.71-.79 1.3-1.55 1.27.22-.27.57-1.02.35-1.84-.22-.82-1.51-1.26-1.51-1.26s.36.37.38 1.12c0 .77-1.76 1.65-.89 3.4zm6.49 13.59-9.93-9.68-1.79 1.27 9.96 9.66c.14.14.38.22.63.22.26 0 .53-.07.74-.22.29-.2.5-.54.53-.83.02-.2-.06-.34-.14-.42z"/><path style="fill:#ffeb3b" d="M60.21 22.03c-.14-.1-.42-.12-.58-.14.03-.06.33-.69.75-.81.35-.1.26-.54-.06-.65-.7-.23-2.15-.2-3.37.88-.14.12-1.97 1.79-2.88 2.65-.06.05-.13.09-.23.11-.54.14-.88.64-.74 1.13.13.47.44 1.2 1.16 1.68.68.46 1.91.76 1.94.76.51 0 .95-.22 1.1-.67.09-.27-.12-.43.17-.78 0 0 2.92-2.6 3.21-3 .29-.41.05-.78-.47-1.16zM58.7 32.76l9.93-9.68 1.79 1.27-9.96 9.66c-.14.14-.38.22-.63.22-.26 0-.53-.07-.74-.22-.29-.2-.51-.54-.53-.83-.02-.2.06-.34.14-.42z"/><path style="fill:#ffeb3b" d="M67.79 22.03c.14-.1.42-.12.58-.14-.03-.06-.33-.69-.75-.81-.35-.1-.26-.54.06-.65.7-.23 2.15-.2 3.37.88.14.12 1.97 1.79 2.88 2.65.06.05.13.09.23.11.54.14.88.64.74 1.13-.13.47-.44 1.2-1.16 1.68-.68.46-1.91.76-1.94.76-.5 0-.95-.22-1.1-.67-.09-.27.12-.43-.17-.78 0 0-2.92-2.6-3.21-3-.29-.41-.05-.78.47-1.16z"/><path style="fill:#ef5350" d="M64.14 38.33c-.24 0-.46 0-.69.01-17.4.09-28.3 3.36-35.11 7.29-10.02 5.77-11.22 12.96-11.3 13.52v.04l3.5 1.9s2.37-4.81 5.52-6.94c7.59-5.13 18.07-8.17 37.41-8.29.24 0 .47-.01.72-.01v-7.52c-.03.01-.04 0-.05 0z"/><path style="fill:#ef5350" d="M64.02 38.33c.24 0 .46 0 .69.01 17.4.09 28.3 3.36 35.11 7.29 10.02 5.77 11.22 12.96 11.3 13.52v.04l-2.65 1.9s-3.22-4.81-6.36-6.94c-7.59-5.13-18.07-8.17-37.41-8.29-.24 0-.47-.01-.72-.01v-7.52c.03.01.03 0 .04 0z"/></svg>