<svg xmlns="http://www.w3.org/2000/svg" viewBox="0 0 1000 1000"><path fill="#fff" d="M8 195.25c170.83-85.22 341.03-54.42 513.26-27.97 155.21 23.84 312.16 44.57 470.74-34.53v672c-170.83 85.22-341.03 54.42-513.26 27.97C323.53 808.88 166.58 788.15 8 867.25v-672"/><path fill="#006233" d="M8 195.25C170.66 114.1 332.46 138.06 500 164v672c-161.81-25.05-325.35-51.88-492 31.25v-672"/><path fill="#d21034" d="M642.13 435.42c-37.03-68.97-112.84-112.85-184.47-104.18-71.84 9.19-121.32 70.82-121.55 147.36.22 75.96 49.68 146.45 121.55 177.19 72.32 30.46 146.67 10.42 184.47-52.37-35.33 41.3-92.83 49.86-145.87 22.82-52.68-27.33-87.53-82.55-87.74-139.71.21-57.4 35.05-102.9 87.74-113.92 52.63-10.55 110.98 15.01 145.87 62.81m5.47 84.53c-48.7-20.95-97.41-44.7-147.6-69.23l91.84 142.32V434L500 549.28c48.71-8.72 97.42-17.4 147.6-29.33"/><path fill="#1A1A1A" opacity=".2" d="M8 195.25c170.83-85.22 341.03-54.42 513.26-27.97 155.21 23.84 312.16 44.57 470.74-34.53v672c-170.83 85.22-341.03 54.42-513.26 27.97C323.53 808.88 166.58 788.15 8 867.25v-672m31.25 19.39v604.5c306.56-128.26 611.18 96.04 921.5-33.78v-604.5c-306.56 128.26-611.18-96.04-921.5 33.78"/></svg>