<svg xmlns="http://www.w3.org/2000/svg" viewBox="0 0 128 128" style="enable-background:new 0 0 128 128" xml:space="preserve"><path style="fill:#bf8400" d="m26.87 62.99 5.68-19.87L80.18 99.3l-15.51 1.5z"/><path style="fill:#eaa700" d="M4 5.86V124h118.14c.69 0 1.03-.83.54-1.32L5.32 5.32C4.83 4.83 4 5.17 4 5.86zM28.62 60.1l41.37 40.7H28.62V60.1z"/><path style="fill:#bf8400" d="M26.87 101.81 4 124h118.14c.69 0 1.03-.83.54-1.32l-5.3-5.3-90.51-15.57z"/><linearGradient id="a" gradientUnits="userSpaceOnUse" x1="30.678" y1="97.322" x2="81.288" y2="46.712"><stop offset=".546" style="stop-color:#fdd835"/><stop offset=".776" style="stop-color:#f9a825"/></linearGradient><path style="fill:url(#a)" d="M7.12 8.81v111.36c0 .39.31.7.7.7h111.36c.62 0 .94-.76.5-1.2L8.32 8.32c-.44-.44-1.2-.13-1.2.49zm21.77 52.5 37.8 37.8h-37.8v-37.8z"/><path style="fill:#795548" d="M10.05 19.82c-.5.5-.5 1.32 0 1.82l1.01 1.01c.5.5 1.32.5 1.82 0l4.89-4.89-2.83-2.83-4.89 4.89z"/><linearGradient id="b" gradientUnits="userSpaceOnUse" x1="51.754" y1="109.918" x2="53.311" y2="108.36" gradientTransform="translate(-37.775 -91.197)"><stop offset="0" style="stop-color:#5d4037;stop-opacity:0"/><stop offset="1" style="stop-color:#5d4037"/></linearGradient><path style="fill:url(#b)" d="m14.94 14.94-2.35 2.35 2.82 2.82 2.35-2.35z"/><path style="fill:#795548" d="M28.85 38.62c-.5.5-.5 1.32 0 1.82l1.01 1.01c.5.5 1.32.5 1.82 0l4.89-4.89-2.83-2.83-4.89 4.89z"/><linearGradient id="c" gradientUnits="userSpaceOnUse" x1="70.553" y1="128.717" x2="72.111" y2="127.16" gradientTransform="translate(-37.775 -91.197)"><stop offset="0" style="stop-color:#5d4037;stop-opacity:0"/><stop offset="1" style="stop-color:#5d4037"/></linearGradient><path style="fill:url(#c)" d="m33.74 33.73-2.35 2.35 2.82 2.83 2.35-2.35z"/><path style="fill:#795548" d="M47.65 57.42c-.5.5-.5 1.32 0 1.82l1.01 1.01c.5.5 1.32.5 1.82 0l4.89-4.89-2.83-2.83-4.89 4.89z"/><linearGradient id="d" gradientUnits="userSpaceOnUse" x1="89.353" y1="147.517" x2="90.91" y2="145.959" gradientTransform="translate(-37.775 -91.197)"><stop offset="0" style="stop-color:#5d4037;stop-opacity:0"/><stop offset="1" style="stop-color:#5d4037"/></linearGradient><path style="fill:url(#d)" d="m52.54 52.53-2.36 2.35 2.83 2.83 2.35-2.35z"/><path style="fill:#795548" d="M66.45 76.22c-.5.5-.5 1.32 0 1.82l1.01 1.01c.5.5 1.32.5 1.82 0l4.89-4.89-2.83-2.83-4.89 4.89z"/><linearGradient id="e" gradientUnits="userSpaceOnUse" x1="108.152" y1="166.316" x2="109.709" y2="164.758" gradientTransform="translate(-37.775 -91.197)"><stop offset="0" style="stop-color:#5d4037;stop-opacity:0"/><stop offset="1" style="stop-color:#5d4037"/></linearGradient><path style="fill:url(#e)" d="m71.33 71.33-2.35 2.35 2.83 2.83 2.35-2.35z"/><path style="fill:#795548" d="M85.25 95.02c-.5.5-.5 1.32 0 1.82l1.01 1.01c.5.5 1.32.5 1.82 0l4.89-4.89-2.83-2.83-4.89 4.89z"/><linearGradient id="f" gradientUnits="userSpaceOnUse" x1="126.951" y1="185.115" x2="128.509" y2="183.558" gradientTransform="translate(-37.775 -91.197)"><stop offset="0" style="stop-color:#5d4037;stop-opacity:0"/><stop offset="1" style="stop-color:#5d4037"/></linearGradient><path style="fill:url(#f)" d="m90.13 90.13-2.35 2.35 2.83 2.83 2.35-2.35z"/><path style="fill:#795548" d="M104.05 113.82c-.5.5-.5 1.32 0 1.82l1.01 1.01c.5.5 1.32.5 1.82 0l4.89-4.89-2.83-2.83-4.89 4.89z"/><linearGradient id="g" gradientUnits="userSpaceOnUse" x1="145.751" y1="203.915" x2="147.308" y2="202.357" gradientTransform="translate(-37.775 -91.197)"><stop offset="0" style="stop-color:#5d4037;stop-opacity:0"/><stop offset="1" style="stop-color:#5d4037"/></linearGradient><path style="fill:url(#g)" d="m108.93 108.93-2.35 2.35 2.83 2.83 2.35-2.35z"/><path style="fill:#795548" d="M34.04 51.49c-.5.5-.5 1.32 0 1.82l1.75 1.75c.5.5 1.32.5 1.82 0l8.23-8.23-3.57-3.57-8.23 8.23z"/><linearGradient id="h" gradientUnits="userSpaceOnUse" x1="80.15" y1="137.919" x2="81.425" y2="136.644" gradientTransform="translate(-37.775 -91.197)"><stop offset="0" style="stop-color:#5d4037;stop-opacity:0"/><stop offset="1" style="stop-color:#5d4037"/></linearGradient><path style="fill:url(#h)" d="m42.77 42.76-2.36 2.35 3.57 3.57 2.35-2.35z"/><path style="fill:#795548" d="M52.84 70.29c-.5.5-.5 1.32 0 1.82l1.75 1.75c.5.5 1.32.5 1.82 0l8.23-8.23-3.57-3.57-8.23 8.23z"/><linearGradient id="i" gradientUnits="userSpaceOnUse" x1="98.949" y1="156.718" x2="100.225" y2="155.443" gradientTransform="translate(-37.775 -91.197)"><stop offset="0" style="stop-color:#5d4037;stop-opacity:0"/><stop offset="1" style="stop-color:#5d4037"/></linearGradient><path style="fill:url(#i)" d="m61.56 61.56-2.35 2.35 3.57 3.57 2.35-2.35z"/><path style="fill:#795548" d="M15.24 32.69c-.5.5-.5 1.32 0 1.82l1.75 1.75c.5.5 1.32.5 1.82 0l8.23-8.23-3.57-3.57-8.23 8.23z"/><linearGradient id="j" gradientUnits="userSpaceOnUse" x1="61.35" y1="119.12" x2="62.626" y2="117.844" gradientTransform="translate(-37.775 -91.197)"><stop offset="0" style="stop-color:#5d4037;stop-opacity:0"/><stop offset="1" style="stop-color:#5d4037"/></linearGradient><path style="fill:url(#j)" d="m23.97 23.96-2.35 2.35 3.56 3.57 2.35-2.35z"/><path style="fill:#795548" d="M71.64 89.09c-.5.5-.5 1.32 0 1.82l1.75 1.75c.5.5 1.32.5 1.82 0l8.23-8.23-3.57-3.57-8.23 8.23z"/><linearGradient id="k" gradientUnits="userSpaceOnUse" x1="117.749" y1="175.518" x2="119.024" y2="174.242" gradientTransform="translate(-37.775 -91.197)"><stop offset="0" style="stop-color:#5d4037;stop-opacity:0"/><stop offset="1" style="stop-color:#5d4037"/></linearGradient><path style="fill:url(#k)" d="m80.36 80.36-2.35 2.35 3.57 3.57 2.35-2.35z"/><path style="fill:#795548" d="M90.44 107.89c-.5.5-.5 1.32 0 1.82l1.75 1.75c.5.5 1.32.5 1.82 0l8.23-8.23-3.57-3.57-8.23 8.23z"/><linearGradient id="l" gradientUnits="userSpaceOnUse" x1="136.548" y1="194.317" x2="137.823" y2="193.042" gradientTransform="translate(-37.775 -91.197)"><stop offset="0" style="stop-color:#5d4037;stop-opacity:0"/><stop offset="1" style="stop-color:#5d4037"/></linearGradient><path style="fill:url(#l)" d="m99.16 99.16-2.35 2.35 3.57 3.57 2.35-2.35z"/></svg>