<svg xmlns="http://www.w3.org/2000/svg" viewBox="0 0 128 128" style="enable-background:new 0 0 128 128" xml:space="preserve"><path style="fill:#b7d5e5" d="m20.92 18.75 87.86-2.28v88.5c0 6.29-19.67 11.39-43.93 11.39s-43.93-5.1-43.93-11.39"/><ellipse style="fill:#e0e0e0" cx="64" cy="16.89" rx="44.91" ry="11.39"/><ellipse style="fill:#82aec0" cx="64" cy="16.89" rx="18.65" ry="4.73"/><ellipse style="fill:#2f7889" cx="64" cy="16.68" rx="15.26" ry="3.51"/><path style="fill:#b7d5e5" d="M64 5.5c-2.12 0-5.2.07-6.23.11-1.04.04-.94.6 0 .65.94.05 14.84.75 22.45 1.6 10.97 1.22 19.72 3.66 23.25 5.82 1.23.75 4.53 2.07 2.93 5.37-.42.86-1.53 2.57-7.03 4.86-2.07.86 7.35 1.48 9.41-.64 0 0 .13-4.41.13-6.37 0-6.3-20.11-11.4-44.91-11.4z"/><path style="fill:#fff" d="M84.13 39.89s-12.3-5.12-36.42-8.71c-23.98-3.57-27.37-11.63-27.37-11.63v84.19c3.03 12.92 40.2 13.56 51.51 14.83 5.94.67 14.41 5.12 14.41 5.12 3.13-6.18-3.34-24.41-3.67-29.11-.54-7.65 2.72-7.49 2.72-15.05s-2.81-10.27-3.72-19.51c-.91-9.24 2.68-10.71 2.54-20.13z"/><path style="fill:#eee" d="M46.29 33.48c23.26 3.83 37.84 6.42 37.84 6.42-.51-.21-12.17-5.62-36.19-9.2-22.48-3.35-25.54-10.23-28.85-13.29 0 0 .73 11.71 27.2 16.07z"/><path style="fill:#81b6cc" d="M81.99 47.33c-1.34 3.45-2.87 7.36-2.36 12.57.47 4.83 1.42 8.05 2.26 10.89 1.54 4.19 2.66 8.73.28 15.45-2.17 6.14-2.65 12.79 1 22.44.49 1.3 2.95 8.22 3.32 15.81 0 0 .01 0 .01.01 0 0 2.01-5.67.71-12.11-1.67-8.28-3.62-9.26-3.86-15.04-.32-7.95 2.88-9.66 3.15-17.5.3-8.9-2.92-10.66-3.86-20.25-.9-9.2 2.95-10.83 1.49-19.71-.49 2.42-.97 4.42-2.14 7.44z"/><path style="fill:#b7d5e5" d="M72.89 117.37c-1.79-.32-4.2-.39-6.97-.6-7.84-.61-18.57-1.44-27.72-3.52-11.81-2.68-15.3-6.14-16.08-8.66 0 0 .31-70.81.12-74.91-.26-5.73-3.15-12.27-3.15-12.27v87.58c3.14 13.4 41.72 14.08 53.46 15.4 6.16.69 10.87 2.53 13.96 4.12 0-.01-.52-4.8-13.62-7.14z"/><path style="fill:#81b6cc" d="M106.67 27.12c-.14 3.96-.92 77.86-.92 77.86-.04.49-10.99 7.77-20.61.21l1.37 9.7c13.3-1.96 22.28-5.66 22.28-9.91l.13-88.1c-.01.01-2.04 4.11-2.25 10.24z"/></svg>