<svg xmlns="http://www.w3.org/2000/svg" viewBox="0 0 128 128" style="enable-background:new 0 0 128 128" xml:space="preserve"><path style="fill:#f9ddbd" d="M115.61 123.26c4.57 0 5.41-3.57 4.48-6.25-.9-2.6-3.6-4.7-8.89-6.86-10.27-4.18-24.73-7.85-24.73-9.13s6.2-.34 14.29-1.77c6.14-1.09 6.72-3.29 7.5-7.11.93-4.52-2.24-7.94-2.24-7.94s5.45-2 5.45-8.22c0-6.22-6.28-9.01-6.28-9.01s2.57-1.57 3.23-5.23c.82-4.51-2.47-8.51-6.94-11.5-3.77-2.52-8.55-4.78-12.1-6.15-3.05-1.18-5.34-2.01-12.83-1.92-6.03.07-8.98-.11-9.44-2.04-.35-1.44.9-2.93 2.15-6.55 1.55-4.46 5.53-15.96-1.7-26.22-2.78-3.94-9.98-3.88-11.44-2.51-2.78 2.61.84 7.83-1.09 17.18-1.33 6.45-2.93 10.85-9.48 15.82-3.78 2.87-12.16 7.64-18.63 15.64-2.4 2.96-9.88 2.4-14.06 1.82-1.67-.23-3.24.88-3.57 2.54-3.32 16.54-1.07 33.83.05 40.5a3.182 3.182 0 0 0 3.37 2.65c3.73-.26 10.05-.66 12.01-.44 3.95.44 12.08 6.36 23.22 9.51 9.89 2.8 23.96 5.39 30.25 5.74s32.95 7.45 37.42 7.45z"/><path style="fill:#ffd29c" d="M79.8 42.19v.16c3.83.01 7.28 3.6 7.14 7.43-.17 4.46-6.4 6.29-4.03 12.6.48 1.29 6.31 3.42 4.88 9.83-1.17 5.25-5.54 4.88-5.54 7.51 0 4.46 5.21 7.44 5.58 12.52s-2.24 5.89-2.06 7.65c.13 1.3.7 1.77.7 1.12 0-1.28 6.2-.34 14.29-1.77 6.14-1.09 6.72-3.29 7.5-7.11.93-4.52-2.24-7.94-2.24-7.94s5.45-2 5.45-8.22c0-6.22-6.28-9.01-6.28-9.01s2.57-1.57 3.23-5.23c.82-4.51-2.47-8.51-6.94-11.5-3.77-2.52-8.55-4.78-12.1-6.15-2.55-.99-4.59-1.73-9.58-1.89z"/><path style="fill:#edbd82" d="M82.05 81.07c-.09-2.11.05-2.69 1.16-2.97 1.11-.28 3.14.51 3.14.51 8.18-.69 17.01 1.05 19.68 5.58 0 0-13-.95-17.88-.69-3.83.21-5.99.25-6.1-2.43zm23.15-14.1c-7.99-2.79-17.33-3.29-20.09-3.29-3.92 0-3.17-5.96-1.5-7.08 1.15-.47 2.51 1.18 3.58 1.57 3.18 1.17 16.62 1.91 18.01 8.8zm.51 55.96c-14.67-2.6-34.22-7.76-49.74-9.76-11.42-1.47-17.81-5.89-22.62-8.37-2.71-1.4-4.85-2.51-7-3.05-5.69-1.44-10.07-.63-13.62-.76-3.55-.13 4.27-5.12 14.59-3.09 2.62.51 5.03 1.91 7.85 3.37 4.86 2.51 10.8 6.25 21.65 8.02 6.08 1 15.31 2.02 23.98 4.2 6.84 1.71 25.86 7.77 32.48 8.58 3.39.42 6.38-.5 6.39-.5 0 0-.57 1.36-2.88 2.05-2.46.74-5.35.33-11.08-.69zM71.53 42.1c-2.08.3-6.6-1.05-4.72-5.59 3.2-7.72 3.46-10.39 3.33-18.15-.1-5.56-1.82-9.31-3.11-11.58 0 0 10.38 7 5.13 28.87-.77 3.18-.63 6.45-.63 6.45zm33.62 55.73s-2.36 1.45-5.54 2.56c-3.19 1.11-8.49 2.04-10.59 2.05s-4.6-2.21-2.8-3.04c1.79-.82 18.93-1.57 18.93-1.57z"/></svg>