<svg xmlns="http://www.w3.org/2000/svg" viewBox="0 0 128 128" style="enable-background:new 0 0 128 128" xml:space="preserve"><path style="fill:#8e24aa" d="M116 4H12c-4.42 0-8 3.58-8 8v104c0 4.42 3.58 8 8 8h104c4.42 0 8-3.58 8-8V12c0-4.42-3.58-8-8-8z"/><path style="fill:#ab47bc" d="M109.7 4H11.5A7.555 7.555 0 0 0 4 11.5v97.9c-.01 4.14 3.34 7.49 7.48 7.5h98.12c4.14.01 7.49-3.34 7.5-7.48V11.5c.09-4.05-3.13-7.41-7.18-7.5h-.22z"/><path style="opacity:.65;fill:#b982ca;enable-background:new" d="M39.7 12.9c0-2.3-1.6-3-10.8-2.7-7.7.3-11.5 1.2-13.8 4s-2.9 8.5-3 15.3c0 4.8 0 9.3 2.5 9.3 3.4 0 3.4-7.9 6.2-12.3 5.4-8.7 18.9-10.6 18.9-13.6z"/><path style="fill:#fafafa" d="M19 33.6a2.994 2.994 0 0 1-2.93-3.06c.03-1.34.94-2.49 2.23-2.84l42.1-11.3c2.4-.6 4.9-.6 7.3 0l42.1 11.3a3 3 0 0 1 2.58 3.37 3 3 0 0 1-3.98 2.43L66.2 22.3c-1.44-.4-2.96-.4-4.4 0L19.7 33.5c-.22.08-.46.12-.7.1z"/><path style="opacity:.3;fill:#b982ca;enable-background:new" d="M39.7 12.9c0-2.3-1.6-3-10.8-2.7-7.7.3-11.5 1.2-13.8 4s-2.9 8.5-3 15.3c0 4.8 0 9.3 2.5 9.3 3.4 0 3.4-7.9 6.2-12.3 5.4-8.7 18.9-10.6 18.9-13.6z"/><path style="fill:#fafafa" d="M87.5 102.8H72.3c-.33 0-.59-.26-.59-.59 0-.21.11-.41.29-.51 0 0 9.5-5.6 9.6-5.6 3.4-1.8 5.5-5.4 4.5-9.2l-7.8-27.1c-1.15-4.19-5.48-6.66-9.67-5.51-.01 0-.02.01-.03.01-1.21.36-2.34.98-3.3 1.8-.29.2-.56.44-.8.7L54.2 66.9a1.817 1.817 0 0 1-2.7-.1l-9.6-11.4a3.668 3.668 0 0 0-5.2-.5 3.562 3.562 0 0 0-.49 5c.03.04.06.07.09.1l13.1 15.6c.2.2.3.5.5.7.6.57 1.38.92 2.2 1h.6c.83-.02 1.64-.3 2.3-.8.22-.21.43-.45.6-.7l7.3-7.3c.33-.36.89-.37 1.24-.04.13.12.22.27.26.44l5.7 19.9c.47 1.6-.18 3.32-1.6 4.2l-17.1 10.4-.1.1c-.1.1-.3.2-.4.3l-.3.3-.3.3-.3.3c-.11.11-.17.25-.2.4-.12.1-.2.24-.2.4-.1.1-.1.3-.2.4s-.1.3-.1.4c.01.14-.02.28-.1.4v1.4c0 .2.1.3.1.4s.1.3.1.4.2.3.2.5c.01.08.05.15.1.2 0 .06.04.1.1.1.07.15.18.29.3.4.1.1.2.2.2.3.11.12.25.23.4.3l.3.3c.11.11.25.17.4.2.1.1.2.1.4.2s.3.1.5.2.3.1.4.1c.14-.01.28.02.4.1.17-.02.35.02.5.1h34.1a4.665 4.665 0 0 0 4.6-5.1 4.784 4.784 0 0 0-4.8-4z"/><circle style="fill:#fafafa" cx="63.2" cy="43" r="9"/></svg>