<svg xmlns="http://www.w3.org/2000/svg" viewBox="0 0 128 128" style="enable-background:new 0 0 128 128" xml:space="preserve"><path style="fill:#82aec0" d="M4 63.96h119.99v36.13H4z"/><path style="fill:#757575" d="M4.18 69.37H124v3.53H4.18z"/><path style="fill:#607d8b" d="M4 99.54v2.94l7.15 8.75V124H37.1v-12.77l7.15-8.75h39.49l7.15 8.75V124h25.96v-12.77l7.15-8.75v-2.94z"/><path style="fill:#82aec0" d="M112.74 124H94.99v-7.89c0-2.7 2.19-4.89 4.89-4.89h7.96c2.7 0 4.89 2.19 4.89 4.89V124zM33 124H15.25v-7.89c0-2.7 2.19-4.89 4.89-4.89h7.96c2.7 0 4.89 2.19 4.89 4.89V124z"/><path style="fill:#455a64" d="M13.51 64s9.91 2.05 15.06 9.04c4.17 5.65 6.37 9.45 17.48 9.45H124V63.95L13.51 64z"/><path style="fill:#e0e0e0" d="m28.96 62.51-11.77-5.86c-3.43-2.23-4.64-4.38-4.5-7.14.13-2.66 1.26-5.91 2.46-9.77C19.52 25.69 29.73 4 53.75 4h70.24v58.15l-95.03.36z"/><path style="fill:#f44336" d="m28.68 62.51 95.32-.36V49.51H64.66c-4.75 0-8.03-5.06-6.41-9.84 2.96-8.76 9.08-17.97 20.82-17.97H124V11.42H73.14c-13.38 0-22.27 14.59-26.88 26.5-2.73 7.04-9.19 11.59-16.3 11.59H12.69c-.15 2.08.46 3.93 2.33 5.68.52.5 13.66 7.32 13.66 7.32z"/><path style="fill:#c62828" d="M13.51 53.34s.82 1.87 4.11 3.6c5.44 2.87 11.06 5.67 11.06 5.67l95.32-.36v-5.11H33.1c-7.57 0-19.59-3.8-19.59-3.8z"/><path style="fill:#e0e0e0" d="M124 79.17H48.52c-10.26 0-14.22-4.05-17.27-11.29-.74-1.76-2.67-5.62-2.67-5.62H124v16.91z"/><path style="fill:#bdbdbd" d="M36.1 70.67c-.69-1.08-1.42-2.64-1.94-3.84-.36-.83.21-1.78 1.06-1.78h88.77v-2.8H27.97s2.25 3.15 3.27 5.62c2.92 7.04 6.79 11.03 16.38 11.27-4.87-1.18-8.44-3.69-11.52-8.47z"/><path style="fill:#fff" d="M100.38 67.55 42.84 69.3s-5.12.15-5.83-1.83c-.54-1.5.44-2.41 3.83-2.41s42.92.22 42.92.22 11.09.05 16.62 2.27z"/><path style="fill:#bae2fd" d="M124 36.97V17.43l-69.47.58c-8.91 7.2-12.03 13.67-14.47 18.95H124z"/><path style="fill:#37474f" d="M124 16.62H55.52c-6.29 0-13.76 13.07-16.97 19.33-.75 1.47.24 3.26 1.8 3.26H124V16.62zM43.26 36.2c-.57 0-1-.24-.68-1.18.19-.55 5.12-10.6 10.78-14.24.51-.33 1.16.06 1.16.69v13.91c0 .45-.34.81-.76.81h-10.5zm13.14-.82V20.44c0-.45.34-.81.76-.81h19.12c.42 0 .76.36.76.81v14.94c0 .45-.34.81-.76.81H57.16c-.42.01-.76-.36-.76-.81zm22.51 0V20.44c0-.45.34-.81.76-.81H98.8c.42 0 .76.36.76.81v14.94c0 .45-.34.81-.76.81H79.67c-.42.01-.76-.36-.76-.81zm42.4.82h-19.12c-.42 0-.76-.36-.76-.81V20.44c0-.45.34-.81.76-.81h19.12c.42 0 .76.36.76.81v14.94c-.01.45-.34.82-.76.82z"/><path style="fill:#bae2fd" d="M27.4 34.99c9.92-14.91 17.9-22.8 17.9-22.8l-12.45-.05-2.48.86c-8.15 7.58-12.65 18.48-15.22 26.75-.01 0 7.55 2.3 12.25-4.76z"/><path style="fill:#37474f" d="M29.22 36.2C39.16 20.31 47.15 13.05 50.55 11c.31-.18.5-.87-.61-.87H34.05c-1.16.83-2.59 1.84-3.69 2.87l11.07.07c.47 0 .58.58.24.92-3.12 3.19-6.09 5.64-14.32 17.95-2.51 3.76-5.05 4.32-7.07 4.74-1.16.24-2.93.3-4.24.31-1.1 2.85-2.71 8.76-2.71 8.76 3.03.31 9.52.63 15.89-9.55z"/><path style="fill:#bdbdbd" d="M124 6.22V4H53.48c-6.49 0-10.49 1.63-10.49 1.63l81.01.59z"/><path style="fill:#ffca28" d="M21.44 38.4c-.71-.79-2.23-.57-3.39.48-1.16 1.05-1.52 2.54-.81 3.33s2.23.57 3.39-.48c1.16-1.05 1.52-2.54.81-3.33z"/></svg>