<svg xmlns="http://www.w3.org/2000/svg" viewBox="0 0 128 128" style="enable-background:new 0 0 128 128" xml:space="preserve"><path style="fill:#607d8b" d="M77.07 58.9H47.63s10.04-7.95 10.04-40.47h9.58c0 30.98 9.82 40.47 9.82 40.47z"/><path style="fill:#607d8b" d="M85.42 64.34H39.5c-1.62 0-2.93-1.31-2.93-2.93s1.31-2.93 2.93-2.93h45.92c1.62 0 2.93 1.31 2.93 2.93s-1.31 2.93-2.93 2.93z"/><path style="fill:#37474f" d="M62.79 55.18c-4.4 0-8.42-.5-11.54-1.33-1.35 2.57-2.56 4-3.18 4.64H76.7c-.54-.64-1.63-2.07-2.88-4.51-3.04.75-6.86 1.2-11.03 1.2z"/><path style="fill:#9e9e9e" d="M124 34.65 4 8.5V4.41l120 26.14z"/><path style="fill:#607d8b" d="M92.91 15.53 34.85 4.04c-1.12-.23-2.2.58-2.26 1.73-.13 2.46-1.09 5.97 4.88 7.19 6.71 1.37 13.96 3.35 13.96 3.35a7.54 7.54 0 0 1 6.02 6.96c.06 1.16.89 2.14 2.03 2.37l4.15.85c1.14.23 2.28-.34 2.8-1.39 1.48-3 4.84-4.74 8.26-4.04 0 0 7.45 1.01 14.15 2.38 5.98 1.22 7.98 1.44 7.98 1.44s1.62-7.99-3.91-9.35z"/><circle style="fill:#37474f" cx="51.27" cy="13.43" r="5.32"/><circle style="fill:#37474f" cx="39.67" cy="11.07" r="5.32"/><circle style="fill:#37474f" cx="87.87" cy="20.9" r="5.32"/><circle style="fill:#37474f" cx="76.26" cy="18.53" r="5.32"/><circle style="fill:#82aec0" cx="50.81" cy="15.72" r="5.32"/><circle style="fill:#82aec0" cx="39.2" cy="13.35" r="5.32"/><circle style="fill:#82aec0" cx="87.75" cy="23.26" r="5.32"/><circle style="fill:#82aec0" cx="76.14" cy="20.89" r="5.32"/><path style="fill:none;stroke:#94d1e0;stroke-width:2;stroke-miterlimit:10" d="M35.89 12.36c.25-.74.77-1.39 1.44-1.8a3.32 3.32 0 0 1 2.26-.44m7.89 4.42c.82-1.23 2.32-1.98 3.8-1.91m21.52 6.52c.58-1.45 2.19-2.41 3.75-2.24m8.08 4.66c.68-1.41 2.49-2.17 3.98-1.67"/><path style="fill:#82aec0" d="M29.23 62.2h65.44c7.2 0 11.65 3.41 11.65 3.41H18.48s3.98-3.41 10.75-3.41z"/><path style="fill:#01579b" d="M62.38 123.28v-3.41m45.6 0h-45.6v3.41h35.55c6.77 0 10.05-3.41 10.05-3.41z"/><path style="fill:#0288d1" d="M108.5 65.73H16.26l-7.8 5.78.14 35.84c0 7.47 8.19 12.65 8.19 12.65h91.2s8.19-5.17 8.19-12.65l.14-35.84-7.82-5.78z"/><path style="fill:#01579b" d="M16.78 119.87h45.6v3.41H26.83c-6.76 0-10.05-3.41-10.05-3.41z"/><path style="fill:#e0e0e0" d="M116.31 82.76s-.02-10.3-.02-11.33c0-2.14-6.86-5.79-8.67-5.79H17.26c-1.81 0-8.67 3.65-8.67 5.79 0 1.02-.02 11.33-.02 11.33H30.7s6.24 9.19 31.61 9.19 31.97-9.19 31.97-9.19h22.03z"/><path style="fill:#37474f" d="M93.93 104.49V79.77c0-1.58 1.28-2.85 2.85-2.85h19.53l-.18 30.43H96.78a2.85 2.85 0 0 1-2.85-2.86z"/><path style="fill:#bae2fd" d="M95.59 102.42V81.61c0-1.19.95-2.15 2.13-2.15l18.57-.09-.15 25.2H97.72a2.149 2.149 0 0 1-2.13-2.15z"/><path style="fill:#0288d1;stroke:#01579b;stroke-width:2;stroke-miterlimit:10" d="M82.37 120.87H63.95c-.82 0-1.48-.66-1.48-1.48V75.37c0-.95.77-1.72 1.72-1.72h18.2c1.9 0 3.45 1.54 3.45 3.45v40.31c-.02 1.91-1.56 3.46-3.47 3.46z"/><path style="fill:#37474f" d="M80.17 76.88h-11.9c-1.47 0-2.66 1.19-2.66 2.66v25.01c0 1.47 1.19 2.66 2.66 2.66h11.9c1.47 0 2.66-1.19 2.66-2.66V79.54a2.672 2.672 0 0 0-2.66-2.66z"/><path style="fill:#bae2fd" d="M79.05 79.49h-9.67c-1.1 0-2 .9-2 2v21.1c0 1.1.9 2 2 2h9.67c1.1 0 2-.9 2-2v-21.1a2 2 0 0 0-2-2z"/><path style="fill:#0288d1;stroke:#01579b;stroke-width:2;stroke-miterlimit:10" d="M42.55 120.87h18.43c.82 0 1.48-.66 1.48-1.48V75.37c0-.95-.77-1.72-1.72-1.72h-18.2a3.45 3.45 0 0 0-3.45 3.45v40.31a3.468 3.468 0 0 0 3.46 3.46z"/><path style="fill:#fafafa" d="M15.91 68.63c2.23-2.23 5.12-2 6.93-2h16.45c.93 0 1.4 1.13.74 1.78l-.22.22a7.712 7.712 0 0 1-5.61 2.26l-13.83-.32c-.58-.01-6.69.29-4.46-1.94z"/><path style="fill:#37474f" d="M30.88 104.49V79.77c0-1.58-1.28-2.85-2.85-2.85H8.5l.18 30.43h19.35c1.57 0 2.85-1.28 2.85-2.86z"/><path style="fill:#bae2fd" d="M29.22 102.42V81.61c0-1.19-.95-2.15-2.13-2.15l-18.57-.09.15 25.2h18.42c1.17-.01 2.13-.97 2.13-2.15z"/><path style="fill:#37474f" d="M44.64 76.88h11.9c1.47 0 2.66 1.19 2.66 2.66v25.01c0 1.47-1.19 2.66-2.66 2.66h-11.9c-1.47 0-2.66-1.19-2.66-2.66V79.54c0-1.47 1.19-2.66 2.66-2.66z"/><path style="fill:#bae2fd" d="M45.75 79.49h9.67c1.1 0 2 .9 2 2v21.1c0 1.1-.9 2-2 2h-9.67c-1.1 0-2-.9-2-2v-21.1c0-1.1.9-2 2-2z"/></svg>