<svg xmlns="http://www.w3.org/2000/svg" viewBox="0 0 128 128" style="enable-background:new 0 0 128 128" xml:space="preserve"><path style="fill:#89847e" d="m11.15 102.66 1.35 1.63s7.62 10.04 27.04 16.36c16.3 5.3 35.67 4.54 49.92-.42 19.75-6.88 27.06-19.78 27.06-19.78l-105.37 2.21z"/><path style="fill:#cfc6bd" d="M7.08 89.38s-1.36 3.21-.37 7.07c.97 3.78 8.15 18.61 56.52 19 43.86.36 57.02-16.11 56.89-22.17-.09-4.02-5.97-14.5-36.91-16.2S31.69 78.9 31.69 78.9L7.08 89.38z"/><path style="fill:#a2e4fd" d="M63.97 81.95c-18.88-.23-46.41 4.41-48.85 11.33-2.01 5.71 6.58 11.33 24.24 13.77s48.73.37 54.82-1.95 16.93-6.82 16.93-6.82l2.56-3.78s.24-2.07-1.46-3.65-7.8-8.41-48.24-8.9z"/><path style="fill:#e4dcd5" d="M115.85 92.55c1.21-.13 1.31 2.63-1.31 5.14s-17.8 13.38-50.78 13.5-57.29-8.54-57.21-19.65c.09-11.84 41.5-16.67 55.6-14.75 14.1 1.91-2.39 2.27-2.39 2.27S41.22 79.03 26 83.23c-7.04 1.94-12.9 4.18-13.02 7.77-.12 3.58 10.28 14.58 49.7 15.17s52.1-13.5 53.17-13.62z"/><path style="fill:#fff" d="M27.87 87.24c-.58.33 0 1.29-.71 1.95-.71.67-4.03 2.09-4.33 4.62-.48 4 7.14 4.86 7.86 4.43.71-.43-2.71-3.24-2.05-4.9.78-1.95 3.09-3.24 3.09-4.57 0-1.34-2.77-2.14-3.86-1.53zm9.43-1.61c0 .52 1.14.95 1.14 1.71 0 1.05-4.81 3.38-4.24 7.57.53 3.85 4.29 5.72 6.19 6.52 2.38 1 8.16 1.36 7.9.14-.19-.9-4.48-1.33-6.9-4.05-2.14-2.39-2.17-5.1.1-7.28 2.95-2.86 1.1-4.95-.86-5.29-2.13-.35-3.33.2-3.33.68z"/><path style="fill:#4fc0fa" d="M64.04 86.17c-12.33.18-19.13 3.04-19.03 7.45.11 4.9 9.05 7.37 19.38 7.43 11.12.07 17.62-3.38 17.85-7.14.24-3.76-6.08-7.92-18.2-7.74zm21.47-.21c-.16.16-1.09 1.41 1.03 3.8 1.65 1.86 2.17 3.75 1.68 6.41s1.2 4.95 4.95 4.95 4.46-1.2 4.46-1.52c0-.33-2.73-1.32-3.37-4.73-.76-4.02-2.28-6.68-4.57-8.1-2.37-1.47-3.83-1.17-4.18-.81zm9.89 3.09c-.01.55 3.48 2.23 3.7 4.51s-.76 3.75-.11 4.13 6.13-.76 6.09-4.84c-.06-4.72-9.63-5.86-9.68-3.8z"/><path style="fill:#a2e4fd" d="m30.29 56.65 2.84 31.58 2.84-.28-1.01-30.11zm61.14 1.92c0 1.92-.09 26.45-.09 26.45l3.02.55 1.65-29.66c0 .01-4.58.92-4.58 2.66z"/><path style="fill:#89847e" d="M28.64 56.28s3.48 7.05 12.17 12.17c8.7 5.13 15.26 3.89 15.47 11.53.15 5.49-1.1 6.5-2.29 7.78-1.15 1.23-3.3 2.2-3.3 4.3 0 2.11 2.1 4.85 13.3 4.91 11.83.07 12.72-3.18 12.6-5.28-.12-2.06-2.81-3.68-3.72-5.15-.78-1.25-1.1-3.64-1.04-6.2.21-7.89 5.27-6.51 14.19-11.81 11-6.53 12.26-12.54 12.26-12.54l-69.64.29z"/><path style="fill:#cfc6bd" d="m30.33 49.1 9.66-5.08 19.04-2.29 10.94-2.06s6.84.44 11.62 1.22c4.38.72 8.37 2.03 8.37 2.03l.46 2.01 3.48.27s3.11-.09 5.49 2.75c2.53 3.02 2.01 6.68-3.84 10.43-5.79 3.71-30.75 4.76-30.75 4.76l-28.56-6.22-5.91-7.82z"/><path style="fill:#a2e4fd" d="M34.32 53.17s-1.92-8.6 29.93-8.79 31.39 8.7 31.39 8.7l-7.6 6.41-23.07 3.02-26.82-4.03-3.83-5.31z"/><path style="fill:#a2e4fd" d="M36.44 50.32s-.92-1.12-1.63-1.47-2.24-1.02-2.24-1.02.66-1.32 1.88-1.83 2.19-.61 3.56-.1 1.98 2.44 1.98 2.44l-3.55 1.98zm53.94-1.93s1.22-1.64 2.03-2.14c.92-.56 2.19-1.02 2.19-1.02s-1.53-1.53-3.76-1.32c-2.24.2-4.07 3-4.07 3l3.61 1.48z"/><path style="fill:#e2ddd7" d="M39.58 46.13c.56.06 5.43-1.81 8.7-2.33 6.58-1.04 10.97-.96 10.97-.96l.21-2.73s-5.5-.42-13.18 1.09c-4.99.98-8.21 2.47-8.21 2.47l1.51 2.46zm54.85.88c-.68.65 1.94 1.83 1.23 4.02-.83 2.55-7.24 8.33-31.95 8.47-24.78.14-29.14-6.39-30.35-8.27-1.35-2.11 1.22-4-1.68-4.23-2.48-.2-5.82 1.97-5.55 5.23.26 3.14 5.96 13.47 37.97 13.47 30.73 0 36.09-10.56 36.36-13.71.27-3.18-4.5-6.44-6.03-4.98z"/><path style="fill:#fffffd" d="M51.4 48.3c.6.49-2.79 2.13-2.84 4.04-.04 1.91 3.22 3.52 2.75 4.17-.67.93-9.54-.68-9.36-3.99.23-4.13 8.21-5.24 9.45-4.22z"/><path style="fill:#4fc0fa" d="M51.87 52.64c-.11 1.92 3.08 3.87 12.57 3.91 9.86.04 11.92-1.98 11.71-4.17-.19-1.94-4.92-2.75-11.9-2.88-6.25-.12-12.23.56-12.38 3.14zm26.16-3.36c-.35.55 2.65 1.66 2.6 3.59-.04 1.93-2.24 3.45-1.75 3.9s7.94-.31 7.9-4.08c-.05-3.77-8.04-4.54-8.75-3.41z"/><path style="fill:#89847e" d="m58.73 53.04-.04-7.85s-2.78-2.69-3.99-5.7c-1.21-3.01-1.35-5.34-.9-6.24s3.32-1.35 3.32-1.35l7.72 2.24s8.84-2.24 9.29-1.88c.45.36.81 3.92-.18 6.86-1.3 3.86-3.86 5.97-3.86 5.97l.04 8.39s-1.39 1.4-5.83 1.44c-5.16.05-5.57-1.88-5.57-1.88z"/><path style="fill:#a9a299" d="M64.03 28.5c-8.17.04-10.23 4.76-10.23 4.76s2.2 3.1 10.5 3.19c8.66.09 9.89-4.09 9.89-4.09s-2.54-3.9-10.16-3.86z"/><path style="fill:#a2e4fd" d="M73.15 58.85s6.16.34 7.13 4.32c.97 3.98.65 23.22.65 23.22l3.98-2.03s1.13-18.96 1.45-21.88c.24-2.2.98-6.77.98-6.77l-5.36 1.62-8.83 1.52zm-31.02-1.29s-.64.76-.97 2.76c-.49 2.92.32 10.15.65 14.45.32 4.3.81 10.31.81 10.31l3.17-.81s.24-11.2.57-15.34 1.7-7.39 4.14-8.44 5.2-1.87 5.2-1.87l-12.42-2.44-1.15 1.38zm22.16-25.24c2.84 0 2.92-2.03 2.92-3.17 0-1.14 1.3-14.21 9.82-14.45 8.04-.23 9.51 19.49 9.61 24.37.09 4.16.08 10.28.08 10.28l3.85-.79s3.08-37.98-12.81-38.97c-7.29-.46-10.63 5.6-10.63 5.6s-.24-7.06-.41-9.09-1.79-2.6-2.84-2.52c-1.06.08-2.35.97-2.52 2.52-.16 1.54-.08 9.01-.08 9.01s-4.13-6.41-9.66-6.33c-6.01.08-12.74 7.14-14.61 21.75-1.87 14.61-.32 21.35-.32 21.35l3.78-2.97s-.21-15.29 1.57-22.03S47 14.07 51.31 14.07s6.9 4.62 8.68 9.24c.97 2.52 1.12 5.34 1.14 6.17.03 1.51.48 2.84 3.16 2.84z"/><path style="fill:none" d="m239.88 30.86.38.37"/></svg>