<svg xmlns="http://www.w3.org/2000/svg" viewBox="0 0 128 128" style="enable-background:new 0 0 128 128" xml:space="preserve"><path style="opacity:.8;fill:#9fe1ea" d="M106.64 52.3c0-5.39-.1-9.76-2.52-14.7-1.47-3.01-7.34-11.23-8.51-12.26H33.04c-1.17 1.03-7.04 9.25-8.51 12.26-2.42 4.93-2.52 9.31-2.52 14.7 0 7.73.03 56.22-.01 57.05-.11 2.72 1.83 4.85 4.93 6.84 9.95 6.38 28.64 7.81 37.39 7.81s27.44-1.43 37.39-7.81c3.11-1.99 5.04-4.12 4.93-6.84-.03-.83 0-49.32 0-57.05z"/><ellipse style="opacity:.6;fill:#1492c4" cx="64" cy="110.45" rx="35.86" ry="8.47"/><path style="opacity:.6;fill:#1492c4" d="m33.05 25.09-3 4.03s18 13.26 52.75 7.91c19.58-3.01 14.68-8.85 14.68-8.85l-2.82-4.33-61.61 1.24z"/><g style="opacity:.8"><path style="fill:#fff" d="M40.99 91.6c.64 8.18-8.75 11.52-11.34 3.32-.86-2.73-.43-5.67-.16-8.52.65-6.69.49-13.45-.46-20.1-.9-5.85-2.01-19.47 3.88-22.44 2.58-1.3 4.62-.67 6.57.32 2.85 1.66 3.18 5.58 3.1 8.87-.15 5.66-.76 11.3-1.2 16.94-.48 6.23-1.89 10.85-1.17 15.84.27 1.92.69 3.85.78 5.77z"/></g><path style="fill:#e2a610" d="M99.79 12.1H28.17s-.82 2.18-.77 5.9c.07 6.72 1.94 7.26 4.36 8.4 5.89 2.77 17.12 4.68 32.17 4.68s26.28-1.9 32.17-4.68c2.42-1.14 4.29-1.68 4.36-8.4.04-3.72-.67-5.9-.67-5.9z"/><ellipse style="fill:#9e740b" cx="64" cy="12.47" rx="35.86" ry="8.47"/><path style="fill:#ffe36c" d="M40.94 20.94c5.35.65 6.23.65 6.72 2.27.22.75.05 1.63-.53 2.14-2.79 2.46-9.47 1.28-12.23-.8-.98-.74-2.23-2.74-.71-4.09 1.43-1.26 4.5.21 6.75.48z"/></svg>