<svg xmlns="http://www.w3.org/2000/svg" viewBox="0 0 128 128" style="enable-background:new 0 0 128 128" xml:space="preserve"><ellipse transform="rotate(-1.507 101.145 63.828)" style="fill:#874d36" cx="101.21" cy="63.87" rx="6.14" ry="6.39"/><ellipse transform="rotate(-1.507 100.561 63.136)" style="fill:#d1593f" cx="100.63" cy="63.18" rx="5.24" ry="5.45"/><path style="fill:#ff7759" d="M101.06 60.5c.42 1.56-1.14 2.85-2.44 2.71-1.18-.13-2.28-1.41-1.45-2.96 1.09-2.01 3.49-1.23 3.89.25z"/><ellipse transform="rotate(-2.922 110.772 56.615)" style="fill:#874d36" cx="110.83" cy="56.63" rx="6.08" ry="6.33"/><ellipse transform="rotate(-2.922 110.074 56.01)" style="fill:#d1593f" cx="110.13" cy="56.03" rx="5.19" ry="5.41"/><path style="fill:#ff7759" d="M110.11 53.12c.78 1.33-.47 2.97-1.8 3.2-1.2.2-2.6-.69-2.13-2.35.61-2.18 3.18-2.12 3.93-.85z"/><ellipse style="fill:#874d36" cx="118.01" cy="34.86" rx="5.99" ry="6.24"/><ellipse style="fill:#d1593f" cx="117.19" cy="34.5" rx="5.11" ry="5.32"/><path style="fill:#ff7759" d="M117.29 32.43c.46 1.55-1.08 2.88-2.38 2.77-1.18-.1-2.31-1.36-1.51-2.92 1.03-2.05 3.45-1.32 3.89.15z"/><ellipse style="fill:#874d36" cx="112.86" cy="24.02" rx="5.95" ry="6.2"/><ellipse style="fill:#d1593f" cx="112.3" cy="23.48" rx="5.08" ry="5.29"/><path style="fill:#ff7759" d="M112.33 21.78c.56 1.6-.86 3.05-2.15 2.99-1.17-.06-2.37-1.32-1.69-2.99.88-2.17 3.31-1.51 3.84 0z"/><ellipse style="fill:#874d36" cx="103.47" cy="16.53" rx="5.92" ry="6.17"/><ellipse style="fill:#d1593f" cx="102.95" cy="16.03" rx="5.05" ry="5.26"/><path style="fill:#ff7759" d="M102.72 13.94c.72 1.5-.57 3.09-1.88 3.19-1.19.08-2.53-1.01-2.01-2.73.68-2.23 3.21-1.88 3.89-.46z"/><ellipse style="fill:#874d36" cx="92.61" cy="12.34" rx="5.89" ry="6.14"/><ellipse style="fill:#d1593f" cx="92.12" cy="11.78" rx="5.03" ry="5.24"/><path style="fill:#ff7759" d="M92.08 9.96c.28 1.59-.82 2.77-2.38 2.77-1.27 0-2.29-1.76-1.33-3.23 1.16-1.79 3.41-1.23 3.71.46z"/><ellipse style="fill:#874d36" cx="80.99" cy="10.78" rx="5.87" ry="6.12"/><ellipse style="fill:#d1593f" cx="80.17" cy="10.17" rx="5.01" ry="5.22"/><path style="fill:#ff7759" d="M80.3 8.44c.47 1.61-1.05 2.98-2.35 2.85-1.18-.12-2.31-1.43-1.53-3.04 1.02-2.1 3.44-1.33 3.88.19z"/><ellipse style="fill:#874d36" cx="69.29" cy="10.75" rx="5.86" ry="6.1"/><ellipse style="fill:#d1593f" cx="68.85" cy="10.05" rx="5" ry="5.21"/><path style="fill:#ff7759" d="M68.66 8.08c.68 1.46-.64 3.01-1.94 3.09-1.19.07-2.49-1-1.93-2.66.72-2.17 3.23-1.82 3.87-.43z"/><ellipse style="fill:#874d36" cx="58" cy="12.21" rx="5.85" ry="6.09"/><ellipse style="fill:#d1593f" cx="57.26" cy="11.65" rx="4.99" ry="5.2"/><path style="fill:#ff7759" d="M57.48 9.69c.46 1.55-1.08 2.88-2.38 2.77-1.18-.1-2.31-1.36-1.51-2.92 1.04-2.05 3.46-1.32 3.89.15z"/><ellipse style="fill:#874d36" cx="46.91" cy="14.49" rx="5.85" ry="6.09"/><ellipse style="fill:#d1593f" cx="46.48" cy="13.65" rx="4.99" ry="5.2"/><path style="fill:#ff7759" d="M42.54 13.31c-.36-1.75 1.38-2.82 2.6-2.72 1.12.09 2.16 1.55 1.17 3.08-1.36 2.09-3.46 1.17-3.77-.36z"/><ellipse style="fill:#874d36" cx="36.38" cy="19.27" rx="5.85" ry="6.09"/><ellipse style="fill:#d1593f" cx="35.83" cy="18.48" rx="4.99" ry="5.2"/><path style="fill:#ff7759" d="M36.37 16.83c.08 1.67-1.58 2.73-2.87 2.37-1.12-.31-2.1-1.79-1.03-3.21 1.33-1.77 3.83-.74 3.9.84z"/><ellipse style="fill:#874d36" cx="26.97" cy="26.42" rx="5.86" ry="6.1"/><ellipse style="fill:#d1593f" cx="26.52" cy="25.79" rx="5" ry="5.21"/><path style="fill:#ff7759" d="M28.04 23.12c.26 1.66-1.74 2.54-3.08 2.37-1.24-.15-2.27-1.58-1.05-2.95 1.65-1.86 3.9-.87 4.13.58z"/><ellipse transform="rotate(-16.544 19.35 35.557)" style="fill:#874d36" cx="19.35" cy="35.56" rx="5.87" ry="6.12"/><ellipse transform="rotate(-16.544 18.876 34.764)" style="fill:#d1593f" cx="18.87" cy="34.76" rx="5.01" ry="5.22"/><path style="fill:#ff7759" d="M20.16 32.37c.08.89-.45 1.77-1.17 2.26-.7.48-1.62.58-2.42.33a2.047 2.047 0 0 1-.78-3.1c1.07-1.63 4.15-1.93 4.37.51z"/><ellipse transform="rotate(-16.096 13.825 46.146)" style="fill:#874d36" cx="13.82" cy="46.15" rx="5.89" ry="6.14"/><ellipse transform="rotate(-16.096 13.377 45.34)" style="fill:#d1593f" cx="13.37" cy="45.34" rx="5.03" ry="5.24"/><path style="fill:#ff7759" d="M15.17 43.56c-.2.87-.98 1.54-1.82 1.78-.81.23-1.72.05-2.4-.44-.5-.36-1.31-1.98.22-3.19s4.55-.54 4 1.85z"/><ellipse transform="rotate(-9.97 10.57 57.697)" style="fill:#874d36" cx="10.56" cy="57.7" rx="5.92" ry="6.17"/><ellipse transform="rotate(-9.97 10.188 56.916)" style="fill:#d1593f" cx="10.18" cy="56.92" rx="5.05" ry="5.26"/><path style="fill:#ff7759" d="M12.47 55.13c-.37.81-1.27 1.31-2.14 1.38-.84.06-1.69-.3-2.26-.92-.41-.45-.88-2.21.86-3.08s4.56.39 3.54 2.62z"/><ellipse style="fill:#874d36" cx="9.95" cy="70.1" rx="5.95" ry="6.2"/><ellipse style="fill:#d1593f" cx="9.88" cy="69.1" rx="5.08" ry="5.29"/><path style="fill:#ff7759" d="M12.2 67.4c-.27.86-1.09 1.46-1.95 1.63-.83.16-1.72-.1-2.37-.64-.49-.41-1.13-2.16.53-3.32 1.56-1.11 4.54-.09 3.79 2.33z"/><ellipse style="fill:#874d36" cx="12.39" cy="81.97" rx="5.99" ry="6.24"/><ellipse style="fill:#d1593f" cx="12.53" cy="81.01" rx="5.11" ry="5.32"/><path style="fill:#ff7759" d="M14.44 78.62c-.29 1.41-1.4 1.71-2.26 1.91-2.1.49-3.97-1.31-2.1-3.13 1.13-1.11 4.89-1.36 4.36 1.22z"/><ellipse style="fill:#874d36" cx="18.32" cy="91.72" rx="6.03" ry="6.28"/><ellipse style="fill:#d1593f" cx="18.39" cy="90.8" rx="5.15" ry="5.36"/><path style="fill:#ff7759" d="M20.8 88.6c-.08.9-.83 1.72-1.69 1.9-1.46.31-4.2-.32-2.53-3.15.96-1.64 4.48-1.67 4.22 1.25z"/><ellipse style="fill:#874d36" cx="28.28" cy="98.84" rx="6.08" ry="6.33"/><ellipse style="fill:#d1593f" cx="28.11" cy="97.87" rx="5.19" ry="5.41"/><path style="fill:#ff7759" d="M29.93 95.63c-.13.89-.86 1.58-1.68 1.91-1.21.49-4.26.03-2.74-3.1.81-1.67 4.82-1.58 4.42 1.19z"/><ellipse style="fill:#874d36" cx="39.61" cy="101.12" rx="6.14" ry="6.39"/><ellipse style="fill:#d1593f" cx="39.5" cy="100.13" rx="5.24" ry="5.45"/><path style="fill:#ff7759" d="M41.47 97.55c-.12.89-.58 1.34-1.66 1.92-1.64.89-4.33-.63-2.93-3.08.96-1.67 4.97-1.69 4.59 1.16z"/><ellipse style="fill:#874d36" cx="51.06" cy="98.89" rx="6.19" ry="6.45"/><ellipse style="fill:#d1593f" cx="50.76" cy="97.92" rx="5.29" ry="5.51"/><path style="fill:#ff7759" d="M53.13 95.85c-.11.9-.82 1.65-1.65 1.93-.82.28-1.75.13-2.5-.31-.64-.37-1.17-1.03-1.18-1.79 0-.41.28-.89.53-.9 1.05-1.95 5.17-1.89 4.8 1.07z"/><ellipse style="fill:#874d36" cx="63.02" cy="95.73" rx="6.26" ry="6.52"/><ellipse style="fill:#d1593f" cx="62.6" cy="94.96" rx="5.34" ry="5.56"/><path style="fill:#ff7759" d="M64.26 92.59c-.01.91-.62 1.74-1.41 2.11-.79.37-1.73.32-2.54-.02-.7-.3-1.42-1.47-1.18-2.38.67-2.52 5.15-2.78 5.13.29z"/><ellipse style="fill:#874d36" cx="74.83" cy="95.53" rx="6.33" ry="6.59"/><ellipse style="fill:#d1593f" cx="74.45" cy="94.58" rx="5.4" ry="5.63"/><path style="fill:#ff7759" d="M76.5 92.39c-.15.9-.79 1.67-1.62 1.96s-1.83.41-2.81-.28c-.64-.45-1.28-1.58-.75-2.61 1.1-2.18 5.66-1.97 5.18.93z"/><ellipse style="fill:#874d36" cx="87.06" cy="82.42" rx="6.26" ry="6.52"/><ellipse transform="rotate(-71.119 86.409 81.782)" style="fill:#d1593f" cx="86.41" cy="81.78" rx="5.56" ry="5.34"/><path style="fill:#ff7759" d="M86.71 80.38c-.36 1.77-2.31 2.37-3.36 1.65-.95-.66-1.29-2.45.14-3.64 1.87-1.55 3.56.32 3.22 1.99z"/><ellipse style="fill:#874d36" cx="117.83" cy="46.79" rx="6.03" ry="6.28"/><ellipse style="fill:#d1593f" cx="117.19" cy="46.5" rx="5.15" ry="5.36"/><path style="fill:#ff7759" d="M116.94 44.2c.46 1.55-.91 3.27-2.21 3.16-1.18-.1-2.31-1.36-1.51-2.92 1.04-2.04 3.28-1.71 3.72-.24z"/><ellipse style="fill:#874d36" cx="86.64" cy="94.67" rx="6.33" ry="6.59"/><ellipse style="fill:#d1593f" cx="86.06" cy="93.7" rx="5.4" ry="5.63"/><path style="fill:#ff7759" d="M86.97 90.73c.3.84.01 1.86-.61 2.51-.62.65-1.53.97-2.4.97-.78 0-1.85-.62-1.79-2.15.08-2.46 3.75-4.27 4.8-1.33z"/><path style="fill:#874d36" d="M82.48 97.94c.47.51 1.75.88 2.39.63 1.27-.5 1.23-1.67 3.18-2.84 1.25-.75 1.78-.58 2.82-1.06.75-.35.57-1.29.51-1.9 0 0 2.35 3.66-2.22 6.4-4.53 2.71-6.68-1.23-6.68-1.23z"/><ellipse style="fill:#874d36" cx="92.6" cy="71.76" rx="6.19" ry="6.45"/><ellipse style="fill:#d1593f" cx="91.75" cy="71.3" rx="5.29" ry="5.51"/><path style="fill:#ff7759" d="M92.16 68.53c.26 1.59-1.07 2.76-2.38 2.77-1.29.01-2.51-1.48-1.51-2.92 1.39-2.02 3.65-1.37 3.89.15z"/><path style="fill:#ffca28" d="M91.19 95.91c-2.41-.26-4.56 1.98-4.79 4.29-.47 4.73 4.78 6.41 4.78 6.41.45.21 1.61.75 2.92 2.83 4.54 7.24 11.83 12.96 20.33 13.88 2.76.3 9.35-14.38 4.15-16.31-1.56-.58-3.29-.32-4.93-.11-3.02.39-6.09.6-9.1.13-2.23-.35-7.07-2.6-8.16-4.9 0-.01-.27-5.69-5.2-6.22z"/><path style="fill:none;stroke:#ffca28;stroke-width:2.5229;stroke-linecap:round;stroke-miterlimit:10" d="M94.44 103.33c3.66 2.46 8.37 3.27 12.64 2.19 4.04-1.03 7.93-3.68 12.01-2.83m-26.13 4.27c.21 4.56.86 9.29 4.5 12.05 3.35 2.55 7.88 3.34 11.98 1.33"/><path style="fill:#e2a610" d="M116.62 107.37c-1.55.87-1.07 5.34-1.15 6.28-.28 3.33-2.65 2.4-3.64 5.41-.52 1.57-.29 4.04 1.58 4.24 6.42.69 7.55-6.32 7.71-7.92.67-6.44-2.09-9.36-4.5-8.01z"/><path style="fill:#e2a610" d="M115.59 114.36c-6.91 0-13.86-2.26-18.62-7.04-1.94-1.95-.79-2.57-.28-2.11 5.55 4.98 13.68 7.69 21.31 6.98l.19 2.05c-.85.09-1.72.12-2.6.12zm.12 5.98c-5.01-.82-10.92-3.41-13.84-5.81-1.83-1.5-2.16-2.45-2.16-2.45 4.21 3.42 10.82 5.66 16.17 6.53l-.17 1.73zm-23.88-13.38s.47-1.22 2.11-2.55c1.95-1.59 2.87-1.63 2.87-1.63-.29-.45-.4-2.12-1.12-3.46 0 0 .2 2.08-2.58 4.07-1.82 1.3-5.06 1.28-5.06 1.28 1.37 1.42 3.78 2.29 3.78 2.29z"/></svg>