<svg xmlns="http://www.w3.org/2000/svg" viewBox="0 0 128 128" style="enable-background:new 0 0 128 128" xml:space="preserve"><path style="fill:#c0b699" d="M8.63 103.7v4.15c0 1.82.02 2.95.02 2.95l54.55-.57.09-5.12-54.66-1.41zm58.09 2.2-.04 4.45 26.42 3.57 27.6-3.45.08-5.3-22.77-4.87-25.12 3.44z"/><path style="fill:#db0d2a" d="M8.71 117.68c-.02.35-.04 1.2.49 1.24.34.03 8.15 0 8.15 0l.01-9.07s-7.58-.02-7.93-.01c-.44.01-.71.09-.75.97-.06.9.07 6.08.03 6.87z"/><path style="fill:#044fab" d="m17.33 109.86.01 9.06h4.12v-9.08z"/><path style="fill:#fcde97" d="M21.44 109.85h10.4v9.02h-10.4z"/><path style="fill:#db0d2a" d="M31.84 109.84h9.44v9.01h-9.44z"/><path style="fill:#7cda87" d="M41.28 109.86h3.88v8.98h-3.88z"/><path style="fill:#fcde96" d="M45.14 109.86h9.32v8.96h-9.32z"/><path style="fill:#db0d2a" d="M62.85 109.86h-8.42v8.93h7.99c.43 0 .77-.35.77-.77v-7.81a.34.34 0 0 0-.34-.35zm12.35 8.83v-8.61h-8.17c-.18 0-.37-.02-.35.33.02.35 0 7.07 0 7.47s.22.77 1.03.79c.81.02 7.49.02 7.49.02z"/><path style="fill:#034dad" d="M75.2 110.09h3.79v8.6H75.2z"/><path style="fill:#fcde96" d="M78.99 110.11h9.83v8.58h-9.83z"/><path style="fill:#da0e28" d="M88.8 110.08h9.79v8.61H88.8z"/><path style="fill:#ff5117" d="M98.59 110.11h4.18v8.58h-4.18z"/><path style="fill:#fcde96" d="M102.77 110.11h9.26v8.56h-9.26z"/><path style="fill:#db0d2a" d="M120.37 110.11h-8.35v8.56h7.15c.85 0 1.54-.69 1.54-1.54v-6.68c0-.19-.15-.34-.34-.34z"/><path style="fill:#2f2f2f" d="M82.26 23.15c-.72.86-3.69 1.35-8.23 6.03-3.39 3.49-7.31 9.57-7.09 17.3.21 7.37 9.08 11.77 12.27 13.83 2.78 1.79 6.52 4.18 6.52 4.18l16.81-1.91s5.26-3.12 9.36-6.67c3.69-3.19 5.14-4.76 5.39-9.86.28-5.81-2.42-12.56-8.3-17.8-3.9-3.47-6.38-4.04-7.23-4.82-.85-.78-.14-7.65-9.5-7.87-9-.21-9.64 7.17-10 7.59z"/><path style="fill:#0a1237" d="M32.94 90.63s-14.87 13.61-13.2 13.81 4.94 1.01 8.37 1.46c2.94.39 6.55.5 6.55.5s6.85-9.93 6.65-10.23c-.2-.3-8.37-5.54-8.37-5.54zm12.1 16.08s1.61 0 2.92-.05 2.72-.5 2.72-.5l-1.36-7.26-7.61 1.56 3.33 6.25z"/><path style="fill:#db0d2a" d="m78.82 90.71-4.98 14.21s4.49 2.04 18.87 2.29c12.99.22 21.24-3.1 21.24-3.1l-9.15-18.79-25.98 5.39z"/><path style="fill:#172d86" d="M40.14 56.24c-7.27-.13-14.54 2.51-19.64 12.03-4.8 8.97-5.52 15.01-8.32 18.23-4.79 5.5-9.29 5.11-10.27 9.91-.65 3.2.75 9.37 11.26 9.69 11.74.35 18.29-10.64 19-11.44.71-.8 1.56-2.3 2.01-2.12s.47 13.87.47 13.87 2.1.85 5.29.85 5.09-.54 5.09-.54l.31-5.22s1.64 2.61 5.33 4.66c2.44 1.36 9.18 3.23 12.49.65 3.12-2.43 3.01-9.93 3.01-9.93l1.68-9.49c1.14 1.29 1.41 1.52-3.92-5.85-4.08-5.64-6.12-14.35-12.21-20.66-2.91-3.02-6.61-4.55-11.58-4.64z"/><path style="fill:#ff4f1c" d="M92.69 57.17c-3.72-.11-10.19.44-15.51 7-4.98 6.14-5.76 15.78-8.86 18.88-3.1 3.1-3.24 6.41-3.68 12.26-.29 3.8-.91 9.85 1.55 11.32 2.17 1.29 5.95.64 10.65-2.91s9.17-12.35 9.17-12.35l13.71-.15s2.88 5.2 6.29 8.94c3.11 3.41 7.51 6.15 12.39 6.21 7.38.08 10.99-8.78 2.93-15.87-3.36-2.95-5.82-7.11-7.18-10.02-3.28-7-3.45-10.92-6.74-15.34-5.42-7.26-11.71-7.89-14.72-7.97z"/><path style="fill:#091238" d="M29.61 58.98s-.09 7.32.35 7.49c.44.18 19.4.29 19.69 0 .29-.29.35-8.29.35-8.29l-20.39.8zm17.73 22.45c1.86-1.94 3.33-4.28 4.48-4.59 1.37-.37 1.83.86 1.49 2.09-.34 1.23-1.54 3.4-4.83 4.58-2.61.94-5.21 1.22-5.21 1.22s2.38-1.53 4.07-3.3zm-17.27-6.45c-.07.11-4.59 3.12-7 4.28-2.01.97-4.14-.04-5.51 1.53-.87.99-1.23 3.61 1.08 3.02 2.31-.6 5.07-2.76 7.04-3.99 1.97-1.23 3.57-1.72 3.57-1.72l.82-3.12z"/><path style="fill:#db0d2a" d="M27.34 87.51s-1.91 3.24-6.63 5.72c-7.71 4.05-14.89.61-15.84 4.18-.63 2.34 2.89 5.94 8.97 5.55s9.14-2.94 12.15-6.32c1.83-2.04 3.93-6.59 4.61-9.45.32-1.36 1.19-3.81 1.19-3.81l-4.45 4.13zm15.41 3.3s1.11 5.8 4.73 9.18c3.47 3.24 6.71 4.49 10.88 4.41s4.81-2.66 4.45-4.25c-.36-1.59-2.07-2.98-5.2-3.5-3.14-.52-5.52-1.51-7.63-2.78s-4.45-3.26-4.45-3.26l-2.78.2z"/><path style="fill:#f9df96" d="M29.24 78.12V65.27h4.93v14.15z"/><path style="fill:#d9cbc7" d="M27.34 87.51s1.4-2.4 1.66-5.06c.26-2.67.24-4.33.24-4.33s3.51-.95 5.41.65c1.53 1.28 1.26 4.85-1.43 6.79-2.68 1.95-5.88 1.95-5.88 1.95zm18.86 3.63s-1.1-.73-2.46-3.06c-1.06-1.83-.48-3.33-.48-3.33s-3.72 0-5.84 1.51c-2.14 1.53-2.32 3.22-1.8 4.17.77 1.41 3.02 1.49 5.57 1.33 2.54-.17 5.01-.62 5.01-.62z"/><path style="fill:#d8cdc7" d="m85.39 58.2-.75.29s6.98 7.51 7.67 7.46c.69-.05 7.23-7.32 7.23-7.32l-1.27-.57-6.65-1.01-6.23 1.15z"/><path style="fill:#db0d2a" d="M102.15 60.06s-3.45 3.32-3.11 9.24 3.32 11.89 3.32 11.89 1.9 2.37 5.54 3.45c3.41 1.01 5.78.48 4.52-1.62-1.11-1.85-4.52-.78-7.41-2.43-2-1.15-1.82-10.34-1.82-10.34s.33-2.88 1.16-4.59c.83-1.71 1.51-2.4 1.51-2.4s-1.14-1.21-1.79-1.77c-.84-.73-1.92-1.43-1.92-1.43zm-19.76-.45s1.92 1.31 2.95 5.16c1.2 4.51.58 6.72.58 6.72l-3.9 8.92s-2.69 2.73-5.38 4.26-3.68 1.39-4.3.49c-.63-.9-.09-2.55 2.73-3.27 2.82-.72 4.48-1.75 5.42-2.69.94-.94 1.48-8.38 1.48-8.38s-.05-3.05-1.03-5.42c-.86-2.08-2.02-3.15-2.02-3.15s.98-.94 1.73-1.49c.69-.51 1.74-1.15 1.74-1.15z"/><path style="fill:#7ed989" d="M85.54 84.73c-.74-.37-7.22 5.63-10.88 7.96-2.57 1.64-4.94 2.44-6.69 5.1-1.23 1.86-1.38 5.52 1.17 5.73 2.71.23 5.58-2.08 9.5-6.53 3.98-4.51 7.74-11.84 6.9-12.26zm14.39.32c-.26.41 4.51 9.08 8.92 13.27 3.79 3.6 7.91 5.63 11.57 4.94 3.66-.69 3.61-6.21-.42-8.81s-9.08-4.35-11.73-5.57c-1.91-.89-7.97-4.42-8.34-3.83z"/><path style="fill:#f9df96" d="M92.71 88.02c.8 0 16.4-10.14 16.61-10.83.21-.69-5.15-10.56-16.67-10.3-11.25.26-16.03 9.5-16.03 9.98s15.29 11.15 16.09 11.15z"/><path style="fill:#f2edec" d="M83.99 30.8s-5.38 4.72-5.28 14.22c.09 8.24 5.35 15.37 13.34 15.44 7.99.07 13.64-6.23 13.61-15.37-.04-9.96-5.71-13.91-5.71-13.91s-3.47 1.81-7.83 1.76-8.13-2.14-8.13-2.14z"/><path style="fill:#fbc21f" d="M96.81 19.92s1.25 1.51 1.29 4.16c.04 2.76-2.28 5.59-6.18 5.48-3.9-.11-6.11-2.87-6.11-5.59 0-2.88 1.43-4.05 1.43-4.05s-1.84-2.1-2.39-4.01-.13-3.29.88-3.94c1.95-1.25 3.68 1.55 3.68 1.55s-.04-4.05 2.69-4.12c2.87-.07 2.65 4.16 2.65 4.16s2.06-2.83 4.01-1.62c1.23.77.96 3.04.29 4.64-.81 1.95-2.24 3.34-2.24 3.34z"/><path style="fill:#d7ccc7" d="M23.98 39.55s-4.28-.23-4.09 5.24c.17 4.95 4.9 5.13 4.9 5.13l-.81-10.37zm29.95.64s4.26-.75 4.26 4.44c0 5.3-4.61 5.59-4.61 5.59l-.52-5.99.87-4.04z"/><path style="fill:#868686" d="M30.49 15.42v5.36l-8.35.17v3.34s6.11-.28 16.42-.23c11.69.06 16.93 0 16.93 0l.06-3.34-7.03.06-.06-5.36H30.49z"/><path style="fill:#2f2f2f" d="M39.79 63.17c11.19-.05 14.53-8.54 14.88-16.19.36-7.88.22-14 .22-15.83 0-3.21-1.75-5.91-4.3-6.71-2.55-.8-4.81-.73-4.81-.73s.29-7.07-.07-9.48-1.44-5.51-6.44-5.47c-4.96.04-6.32 3.79-6.39 5.98-.06 1.76.07 8.97.07 8.97s-3.82-.22-6.14.94c-1.86.93-3.57 2.87-3.66 6.72-.08 3.28-.19 13.95.54 18.09.66 3.85 3.99 13.77 16.1 13.71z"/><path style="fill:#f2edec" d="M28.93 34.54h20.44s-.18 2.29.62 3.9c.96 1.92 2.03 2.71 2.03 2.71s1.07 7.4-1.36 13.05c-1.61 3.75-5.25 6.81-11.33 6.82-5.64.01-9.71-3.46-11.6-6.99-2.75-5.14-1.98-11.75-1.98-11.75s1.64-1.13 2.48-3.56.7-4.18.7-4.18z"/><path style="fill:#2f2f2f" d="M46.31 42.59c-1.44.04-3.19-.98-3.94.18-.87 1.37.76 3.44 3.97 3.44s5.15-2.37 3.94-3.63c-1.21-1.25-2.57-.03-3.97.01zm-14.19-.07c-1.19 0-3.14-1.41-4.11 0-.81 1.19.55 3.77 4.03 3.66 3.48-.11 5.1-1.96 4.22-3.37-.92-1.48-2.73-.29-4.14-.29z"/><path style="fill:#db0d2a" d="M39.25 50.89c-3.16-.04-4.17.39-4.24 1.14-.11 1.33 1.15 2.69 4.06 2.71 3.54.02 4.36-1.64 4.31-2.64-.03-.91-.79-1.17-4.13-1.21z"/><path style="fill:#848485" d="M46.97 37.33c.03 1.01-1.04 1.89-2.55 1.8-1.33-.08-1.95-1.32-1.26-2.21s1.85-.92 2.43-.82c.69.13 1.36.54 1.38 1.23zm-15.31.38c-.06.82 1.13 1.39 2.3 1.42s2.3-.63 2.27-1.45c-.03-.82-1.07-1.39-2.14-1.39s-2.36.57-2.43 1.42z"/><path style="fill:#2f2f2f" d="M99.38 42c-1.44.04-3.2-.79-3.94.37-.87 1.37.76 3.37 3.97 3.44 3.36.08 5.15-2.37 3.94-3.63s-2.57-.22-3.97-.18zm-14.18-.07c-1.19 0-3.09-1.15-4.05.26-.81 1.19.55 3.62 4.03 3.66 3.52.04 5.1-1.96 4.22-3.37-.92-1.48-2.79-.55-4.2-.55z"/><path style="fill:#db0d2a" d="M92.2 50.43c-3-.04-3.75.43-3.93 1.25-.28 1.31 1.05 2.66 3.96 2.68 3.54.02 4.27-1.61 3.96-2.68-.24-.86-.65-1.22-3.99-1.25z"/><path style="fill:#848485" d="M99.89 36.53c.03 1.01-1.04 1.89-2.55 1.8-1.33-.08-1.95-1.32-1.26-2.21s1.85-.92 2.43-.82c.69.13 1.36.54 1.38 1.23zm-15.44 0c-.11.88.97 1.66 2.13 1.76 1.16.1 2.33-.56 2.35-1.45.02-.89-.99-1.56-2.06-1.62s-2.3.4-2.42 1.31z"/></svg>