<svg xmlns="http://www.w3.org/2000/svg" viewBox="0 0 128 128" style="enable-background:new 0 0 128 128" xml:space="preserve"><linearGradient id="a" gradientUnits="userSpaceOnUse" x1="63.874" y1="4.412" x2="63.874" y2="35.688" gradientTransform="matrix(1 0 0 -1 0 128)"><stop offset="0" style="stop-color:#b3b3b3"/><stop offset=".033" style="stop-color:#b7b7b7"/><stop offset=".374" style="stop-color:#d9d9d9"/><stop offset=".559" style="stop-color:#e6e6e6"/></linearGradient><path style="fill:url(#a)" d="M64.4 92.2h-.13c-25.82.04-52.19 9.31-52.19 31.37v.37h103.58v-.37c.01-20.8-25.33-31.37-51.26-31.37z"/><path style="fill:#a6a6a6" d="M89.12 123.94v-8.7c0-2.19-1.79-3.99-3.99-3.99H44.69c-2.19 0-3.99 1.79-3.99 3.99v8.7h48.42z"/><path style="fill:#757575" d="M116.17 123.94v-.35c0-5.12-2.25-8.34-3.4-11.25l-8.06 2.81 3.29 8.8h8.17zm-95.66 0c.19-1.03.3-2.08.3-3.16 0-4.02-1.62-7.73-4.43-10.77-2.73 3.6-4.2 7.67-4.2 12.22v1.71h8.33z"/><linearGradient id="b" gradientUnits="userSpaceOnUse" x1="63.983" y1="36.167" x2="63.983" y2="18.139" gradientTransform="matrix(1 0 0 -1 0 128)"><stop offset=".004" style="stop-color:#e6e6e6"/><stop offset=".333" style="stop-color:#d9d9d9"/><stop offset=".941" style="stop-color:#b7b7b7"/><stop offset="1" style="stop-color:#b3b3b3"/></linearGradient><path style="fill:url(#b)" d="M97.45 102.5c-11.44 4.91-23.94 7.24-36.38 6.81a84.918 84.918 0 0 1-18.15-2.61c-3.09-.79-6.14-1.76-9.12-2.89-2.67-1.02-5.37-2.03-7.34-4.2-1.75-1.93-2.85-4.62-2.26-7.24.59-2.6 2.58-4.82 5.02-5.83 2.79-1.16 5.77-.89 8.5.24 2.8 1.17 5.66 2.17 8.58 2.96 11.9 3.23 24.63 3.12 36.48-.3 1.69-.49 3.36-1.04 5.01-1.66 1.63-.61 3.21-1.45 4.92-1.8 2.92-.6 6.24.03 8.51 2.05 2.3 2.05 3.34 5.28 2.34 8.23-.97 2.86-3.38 5.07-6.11 6.24z"/><ellipse style="fill:#4c4c4c" cx="64" cy="52.94" rx="49.17" ry="48.69"/><ellipse style="fill:#212121" cx="64" cy="52.94" rx="46.44" ry="45.96"/><path style="fill:#ab872f" d="M95.3 80.11c-1.12-2.04.31-4.11 2.74-6.68 3.86-4.07 8.07-13.51 4.16-23.1.02-.05-.77-1.67-.75-1.72l-1.61-.08c-.52-.07-18.17-.11-35.85-.11s-35.33.04-35.85.11c0 0-2.38 1.75-2.36 1.8-3.9 9.59.3 19.03 4.16 23.1 2.43 2.57 3.86 4.64 2.74 6.68-1.08 1.98-4.32 2.27-4.32 2.27s.75 2.03 2.54 3.12c1.66 1.01 3.7 1.25 5.11 1.28 0 0 5.52 7.63 19.93 7.63h16.04c14.42 0 19.93-7.63 19.93-7.63 1.41-.03 3.45-.27 5.11-1.28 1.8-1.09 2.54-3.12 2.54-3.12s-3.18-.29-4.26-2.27z"/><radialGradient id="c" cx="101.142" cy="45.824" r="21.003" gradientTransform="matrix(1 0 0 .4912 -24.064 59.667)" gradientUnits="userSpaceOnUse"><stop offset=".728" style="stop-color:#bfa055;stop-opacity:0"/><stop offset="1" style="stop-color:#bfa055"/></radialGradient><path style="fill:url(#c)" d="M63.99 94.41v-8.47l25.63-2.03 2.33 2.87s-5.52 7.63-19.93 7.63h-8.03z"/><radialGradient id="d" cx="80.457" cy="48.947" r="6.207" gradientTransform="matrix(-.9057 .4238 -.3144 -.6719 186.026 77.84)" gradientUnits="userSpaceOnUse"><stop offset=".663" style="stop-color:#bfa055"/><stop offset="1" style="stop-color:#bfa055;stop-opacity:0"/></radialGradient><path style="fill:url(#d)" d="M91.89 83.08c-3.84-5.83 4.68-8 4.68-8s.01 0 .01.01c-1.48 1.84-2.15 3.44-1.29 5.03 1.08 1.98 4.32 2.27 4.32 2.27s-4.41 3.9-7.72.69z"/><radialGradient id="e" cx="96.543" cy="66.506" r="27.263" gradientTransform="matrix(-.0746 -.9972 .8311 -.0622 33.61 161.905)" gradientUnits="userSpaceOnUse"><stop offset=".725" style="stop-color:#bfa055;stop-opacity:0"/><stop offset="1" style="stop-color:#bfa055"/></radialGradient><path style="fill:url(#e)" d="M102.22 50.33c3.81 9.29-.2 18.85-3.96 22.88-.52.55-2.7 2.7-3.2 4.42 0 0-8.56-11.93-11.11-18.95-.52-1.42-.99-2.87-1.05-4.38-.05-1.13.13-2.47.78-3.43.8-1.18 18.08-1.52 18.08-1.52.01 0 .46.98.46.98z"/><radialGradient id="f" cx="46.342" cy="66.506" r="27.263" gradientTransform="matrix(.0746 -.9972 -.8311 -.0622 98.155 111.844)" gradientUnits="userSpaceOnUse"><stop offset=".725" style="stop-color:#bfa055;stop-opacity:0"/><stop offset="1" style="stop-color:#bfa055"/></radialGradient><path style="fill:url(#f)" d="M25.8 50.33c-3.81 9.29.2 18.85 3.95 22.88.52.55 2.7 2.7 3.2 4.42 0 0 8.56-11.93 11.11-18.95.52-1.42.99-2.87 1.05-4.38.05-1.13-.13-2.47-.78-3.43-.8-1.18-1.73-.86-3.08-.86-2.59 0-13.89-.66-14.77-.66.01 0-.68.98-.68.98z"/><radialGradient id="g" cx="50.941" cy="45.824" r="21.003" gradientTransform="matrix(-1 0 0 .4912 101.883 59.667)" gradientUnits="userSpaceOnUse"><stop offset=".728" style="stop-color:#bfa055;stop-opacity:0"/><stop offset="1" style="stop-color:#bfa055"/></radialGradient><path style="fill:url(#g)" d="M64.03 94.41v-8.47L38.4 83.91l-2.33 2.87s5.52 7.63 19.93 7.63h8.03z"/><radialGradient id="h" cx="30.256" cy="48.947" r="6.207" gradientTransform="matrix(.9057 .4238 .3144 -.6719 -12.537 99.116)" gradientUnits="userSpaceOnUse"><stop offset=".663" style="stop-color:#bfa055"/><stop offset="1" style="stop-color:#bfa055;stop-opacity:0"/></radialGradient><path style="fill:url(#h)" d="M36.13 83.08c3.84-5.83-4.68-8-4.68-8s-.01 0-.01.01c1.48 1.84 2.15 3.44 1.29 5.03-1.08 1.98-4.32 2.27-4.32 2.27s4.41 3.9 7.72.69z"/><path style="fill:#c48e6a" d="M89.18 54.03H38.82c-5.43 0-9.87 4.73-9.87 10.52s4.44 10.52 9.87 10.52h50.36c5.43 0 9.87-4.73 9.87-10.52s-4.44-10.52-9.87-10.52z"/><path style="fill:#e0bb95" d="M64 17.75c-16.04 0-30.89 17.15-30.89 41.83 0 24.55 15.3 36.68 30.89 36.68s30.89-12.14 30.89-36.68c0-24.68-14.85-41.83-30.89-41.83z"/><path style="fill:#ab872f" d="M55.87 53.67c-.9-1.19-2.98-2.92-7.02-2.92s-6.12 1.73-7.02 2.92c-.4.53-.3 1.13-.02 1.5.26.34 1.01.66 1.85.38.83-.28 2.47-1.13 5.2-1.15 2.73.02 4.36.86 5.2 1.15.83.28 1.59-.03 1.85-.38.26-.36.36-.97-.04-1.5zm30.3 0c-.9-1.19-2.98-2.92-7.02-2.92s-6.12 1.73-7.02 2.92c-.4.53-.3 1.13-.02 1.5.26.34 1.01.66 1.85.38.83-.28 2.46-1.13 5.2-1.15 2.73.02 4.36.86 5.2 1.15.83.28 1.59-.03 1.85-.38.25-.36.35-.97-.04-1.5z"/><ellipse style="fill:#5d4037" cx="48.85" cy="61.75" rx="4.54" ry="4.7"/><ellipse style="fill:#5d4037" cx="79.15" cy="61.75" rx="4.54" ry="4.7"/><path style="fill:#c48e6a" d="M67.56 70.27c-.1-.04-.2-.06-.3-.08h-6.52c-.1.01-.2.04-.3.08-.59.24-.92.85-.64 1.5s1.58 2.48 4.19 2.48c2.62 0 3.91-1.83 4.19-2.48.29-.65-.03-1.26-.62-1.5z"/><path style="fill:#6d4c41" d="M71.76 77.72c-2.93 1.75-12.56 1.75-15.49 0-1.69-1-3.41.53-2.71 2.06.69 1.5 5.94 5 10.48 5s9.72-3.49 10.41-5c.69-1.53-1.01-3.06-2.69-2.06z"/><path style="fill:#ab872f" d="M100.8 32.05c-2.24-3.39-7.27-7.94-11.77-8.24-.72-4.34-5.36-8.01-9.85-9.43-12.15-3.85-20.06.47-24.31 2.79-.88.48-6.58 3.64-10.57 1.37-2.5-1.42-2.45-5.27-2.45-5.27s-7.83 2.98-5.15 11.29c-2.69.11-6.22 1.25-8.08 5.02-2.22 4.5-1.43 8.26-.79 10.06-2.32 1.96-5.23 6.15-3.23 11.57 1.5 4.09 7.51 5.97 7.51 5.97-.42 7.35.95 11.88 1.67 13.72.13.32.58.29.67-.04.91-3.64 4.01-16.34 3.7-18.56 0 0 10.42-2.07 20.36-9.38 2.02-1.49 4.21-2.76 6.55-3.69 12.48-4.97 15.09 3.51 15.09 3.51s8.65-1.66 11.26 10.35c.98 4.5 1.65 11.71 2.2 16.75.04.36.52.43.67.1.88-2 2.62-5.97 3.04-10.02.15-1.42 3.99-3.31 5.64-9.42 2.18-8.16-.54-16-2.16-18.45z"/><radialGradient id="i" cx="80.548" cy="79.47" r="32.723" gradientTransform="matrix(.3076 .9515 .706 -.2282 -.336 -9.978)" gradientUnits="userSpaceOnUse"><stop offset=".699" style="stop-color:#bfa055;stop-opacity:0"/><stop offset="1" style="stop-color:#bfa055"/></radialGradient><path style="fill:url(#i)" d="M97.26 59.96c.15-1.42 3.99-3.31 5.64-9.42.18-.65.32-1.31.46-1.98 1.34-7.43-1.07-14.25-2.56-16.51-2.07-3.14-6.52-7.25-10.74-8.09-.37-.05-.72-.09-1.07-.11 0 0 .3 1.97-.5 3.55-1.03 2.04-3.13 2.52-3.13 2.52 11 11 10.22 20.2 11.9 30.04z"/><radialGradient id="j" cx="48.645" cy="115.151" r="8.58" gradientTransform="matrix(.8813 .4726 .5603 -1.045 -58.744 110.194)" gradientUnits="userSpaceOnUse"><stop offset=".58" style="stop-color:#bfa055"/><stop offset="1" style="stop-color:#bfa055;stop-opacity:0"/></radialGradient><path style="fill:url(#j)" d="M57.53 15.78c-1.01.49-1.89.97-2.66 1.39-.88.48-6.58 3.64-10.57 1.37-2.46-1.4-2.45-5.12-2.45-5.26-1.13 1.44-4.55 11.74 5.44 12.42 4.31.3 6.96-3.46 8.54-6.64.56-1.15 1.46-2.83 1.7-3.28z"/><radialGradient id="k" cx="45.2" cy="107.323" r="7.875" gradientTransform="matrix(1 0 0 -1.2233 0 151.966)" gradientUnits="userSpaceOnUse"><stop offset=".702" style="stop-color:#bfa055;stop-opacity:0"/><stop offset="1" style="stop-color:#bfa055"/></radialGradient><path style="fill:url(#k)" d="M41.81 13.29c-.01.01-.03.01-.06.02h-.01c-.86.36-7.57 3.47-5.06 11.26l7.15 1.15c-6.32-6.41-2-12.44-2-12.44l-.02.01z"/><radialGradient id="l" cx="44.117" cy="93.422" r="14.77" gradientTransform="matrix(-.9657 -.2598 -.2432 .9037 109.44 -38.386)" gradientUnits="userSpaceOnUse"><stop offset=".66" style="stop-color:#bfa055;stop-opacity:0"/><stop offset="1" style="stop-color:#bfa055"/></radialGradient><path style="fill:url(#l)" d="m41.11 25.28-4.42-.71c-.17 0-.76.05-1.08.1-2.49.35-5.42 1.63-7 4.92-1.71 3.54-1.66 6.59-1.2 8.62.13.68.41 1.45.41 1.45s2.19-2.07 7.39-2.21l5.9-12.17z"/><radialGradient id="m" cx="40.613" cy="79.16" r="15.507" gradientTransform="matrix(.9907 .1363 .1915 -1.3921 -14.778 153.503)" gradientUnits="userSpaceOnUse"><stop offset=".598" style="stop-color:#bfa055;stop-opacity:0"/><stop offset="1" style="stop-color:#bfa055"/></radialGradient><path style="fill:url(#m)" d="M27.61 39.83c-2.18 1.93-5.11 6.24-2.95 11.58 1.63 4.03 7.43 5.78 7.43 5.78 0 .02 1.16.36 1.76.36l1.36-20.11c-2.78 0-5.45.83-7.18 2.04.01.03-.43.32-.42.35z"/><radialGradient id="n" cx="64.775" cy="120.5" r="26.001" gradientTransform="matrix(1 0 0 -1 0 128)" gradientUnits="userSpaceOnUse"><stop offset=".005" style="stop-color:#f2f2f2"/><stop offset=".422" style="stop-color:#e5e5e5"/><stop offset="1" style="stop-color:#ccc"/></radialGradient><path style="fill:url(#n)" d="M64.01 22.61c21.75 0 40.51 12.81 49.16 31.29 0-.24.02-.49.02-.73C113.19 26.02 91.17 4 64.01 4c-27.46 0-49.6 22.38-49.18 49.18 0 .24.02.49.02.73 8.65-18.49 27.41-31.3 49.16-31.3z"/></svg>