<svg xmlns="http://www.w3.org/2000/svg" viewBox="0 0 128 128" style="enable-background:new 0 0 128 128" xml:space="preserve"><path style="fill:#b6885a" d="M107.35 61.36c0 23.37-10.81 42.28-42.76 42-35.15-.3-43.32-15.47-43.52-40.33-.19-23.37 13.44-44.79 42.56-44.79 27.34 0 43.72 19.75 43.72 43.12z"/><path style="fill:#ffcd88" d="M64.4 44.12c7.46-.23 15.54-10.47 24.5-2.28 8.22 7.51 1.72 14.46 1.93 21.56.17 5.88 5.97 10.14 1.32 19.07-3.75 7.2-14.41 12.31-27.19 12.07-16.44-.3-26.5-5.17-29.24-13.29-2.67-7.91 3.07-12.28 2.76-18.36-.3-6.09-6.78-15.39 1.65-21.51 11.46-8.32 16.35 2.98 24.27 2.74z"/><path style="fill:#393531" d="M55.75 57.5c.45 4.45-2.01 7.43-5 7.73-2.99.3-5.71-2.37-6.08-5.97-.37-3.6 1.12-7.11 4.92-7.41 3-.24 5.73 1.43 6.16 5.65zm26.48.49c-.13 5.12-3.3 6.76-6.13 6.55s-4.72-3.38-4.47-6.75c.25-3.38 2.51-6.58 6.09-6.24 2.83.27 4.61 2.48 4.51 6.44zm-18.13 6.3c3.88.08 5.3.08 5.17 2.02-.08 1.22-2.59 3.65-5.02 3.69-2.05.04-5.1-2.02-5.29-3.8-.21-2.02 1.33-1.99 5.14-1.91z"/><path style="fill:#b6885a" d="M104.92 51.82s14-.71 13.8 12.68c-.2 13.39-12.17 15.12-14.81 15.02-2.64-.1 1.01-27.7 1.01-27.7zm-81.87-.61S9.25 50.8 8.75 64.3s12.38 15.42 15.62 15.83c3.24.4-1.32-28.92-1.32-28.92z"/><path style="fill:#ffcd88" d="M22.23 74.65c.36-.13-.26-4.64-.51-9.03-.23-4.13-.09-8.15-.2-8.32-.41-.61-8.12-.3-8.12 7.91s8.02 9.74 8.83 9.44zm83.19-17.76c.54-.36 8.88-.2 8.62 8.12-.23 7.33-7.61 9.59-8.52 8.98-.47-.32.02-3.55.1-8.07.08-4.19-.49-8.83-.2-9.03z"/><path style="fill:#b6885b" d="M30.76 91.79c5.91-4.36 8.75-7.15 12.99-13.7C48 71.5 54.27 70.06 56.9 70.26c2.64.2 2.76 2.36 2.76 2.36l-.2 2.64 7.81-1.52s2.23-2.43 6.39-1.62 6.9 2.64 11.06 7.81 7 9.23 8.72 10.45c1.72 1.22 12.33 6.51 15.62 8.52 4.16 2.54 7.3 7.3 3.86 13.39-3.08 5.44-12.99 4.77-14.1 4.46s-10.86-5.38-14.3-9.03c-3.45-3.65-8.72-6.39-13.09-7.2s-11.87-.51-14.51 0c-2.64.51-9.33 3.55-12.88 6.49-3.55 2.94-7.61 7-9.84 8.01-2.23 1.01-9.33 2.84-12.38 2.03s-8.2-4.36-8.12-10.15c.1-7 5.68-8.83 9.54-10.55 3.86-1.72 5.59-3.14 7.52-4.56z"/><path style="fill:#865b52" d="M55.69 79.31c.45 1.67 6.1-3.2 9.13-3.42 5.1-.38 8.85 1.6 9.36 7.99.51 6.39-2.64 11.97-11.87 13.8s-11.44 2.38-15.6 5.83S32.99 115.13 26.39 115c-7.71-.15-10.8-4.18-11.19-3.35-.38.85 4.01 6.62 11.39 6.62 7.48 0 9.99-2.74 14.61-6.39 3.99-3.16 10.75-8.83 10.75-8.83s4.66.92 12.33.99c7.99.08 11.82-1.09 11.82-1.09s3.81 2.08 6.7 4.67c4.24 3.8 9.45 8.07 14.43 9.51 5.17 1.5 9.64.66 12.48-1.37 2.84-2.03 1.8-1.85-1.04-.94-2.84.91-9.78 1-14.41-1.57-4.79-2.66-11.21-9.74-15.67-12.17-4.46-2.44-9.59-2.49-9.59-2.49s10.35-4.77 8.83-15.42-10.3-11.08-12.94-10.78c-1.53.18-4.11 1.34-4.11 1.34s.34-3.02-2.82-3.32c-1.71-.16 1.41.91.91 2.85-.58 2.34-3.49 4.94-3.18 6.05z"/></svg>