<svg xmlns="http://www.w3.org/2000/svg" viewBox="0 0 128 128" style="enable-background:new 0 0 128 128" xml:space="preserve"><path style="fill:#b7d5e5" d="M106 24.79H22.15c-1.92 0-3.48 1.56-3.48 3.48v57.59c0 1.92 1.56 3.48 3.48 3.48H106c1.92 0 3.48-1.56 3.48-3.48V28.27c0-1.92-1.55-3.48-3.48-3.48z"/><radialGradient id="a" cx="48.408" cy="13.024" r="75.465" gradientTransform="matrix(1 0 0 1.0843 0 -10.19)" gradientUnits="userSpaceOnUse"><stop offset="0" style="stop-color:#2f7889"/><stop offset="1" style="stop-color:#424242"/></radialGradient><path style="fill:url(#a)" d="M104.75 83.2H23.4l.96-52.27h79.43z"/><path style="fill:#2f7889" d="M121.09 123.82H7.59c-.43 0-.83-.03-1.2-.09-2.88-.44-4.21-4.18-2.5-6.74l.39-.59h119.59l.4.6c1.86 2.78.12 6.76-3.04 6.81-.04.01-.09.01-.14.01z"/><path style="fill:#eee" d="M106.84 90.41H20.6c-1.27 0-2.54.77-3.25 1.99l-14 25.48c-.59.88-.01 2.12.99 2.12H123.8c1 0 1.58-1.24.99-2.12l-14.71-25.63c-.7-1.08-1.97-1.84-3.24-1.84z"/><path style="fill:#b7d5e5" d="M86.36 115.52H41.8l2.85-7.98h39.07z"/><g style="opacity:.57"><path style="fill:#69a1ba" d="m72.69 94.84-.27-2.2h-3.44l.13 2.2zm-5.55 0-.14-2.2h-3.45v2.2zm26.47 0-.81-2.2h-3.26l.68 2.2zm-5.25 0-.68-2.2h-3.32l.54 2.2zm-5.18 0-.54-2.2h-3.37l.41 2.2zm18.93 0-.95-2.2h-6.71l.82 2.2zm-24.5 0-.41-2.2h-3.41l.28 2.2zm-43.85 0 .68-2.2h-3.26l-.81 2.2zm16.75 0 .27-2.2h-3.41l-.4 2.2zm-11.16 0 .54-2.2h-3.32l-.67 2.2zm-11.18 0 .81-2.2H25.8l-.95 2.2zm16.76 0 .41-2.2h-3.37l-.54 2.2zm11.15 0 .14-2.2h-3.44l-.27 2.2zm5.57 0v-2.2H58.2l-.14 2.2zm22.13 8.89H44.36l-.75 2.2h41.08zm18.37 2.2-1.21-2.2h6.54l.95 2.2zm-15.4 0-.83-2.2h6.29l.96 2.2zm8.64 0-.96-2.2h4.31l1.1 2.2zm-69.72 0 1.21-2.2h-6.54l-.95 2.2zm15.4 0 .83-2.2h-6.29l-.96 2.2zm-8.65 0 .97-2.2h-4.31l-1.11 2.2zm-2.71-7.42.82-2.19h-6.67l-.95 2.19zm68.24 0-.81-2.19h6.66l.95 2.19zm-1.7 0-.96-2.19h-3.85l.82 2.19zm-10.02 0-.65-2.19h3.85l.78 2.19zm-6.04 0-.47-2.19h3.85l.6 2.19zm-6.04 0-.28-2.19h3.84l.43 2.19zm-6.03 0-.11-2.19h3.85l.24 2.19zm-6.04 0 .07-2.19H66l.06 2.19zm-6.04 0 .25-2.19h3.85l-.11 2.19zm-6.03 0 .42-2.19h3.85l-.29 2.19zm-6.04 0 .6-2.19h3.85l-.47 2.19zm-6.04 0 .78-2.19h3.85l-.64 2.19zm-6.03 0 .95-2.19h3.85l-.82 2.19zm-2.2 3.71.81-2.2h-8.75l-.95 2.2zm66.17 0-.77-2.2h-4.17l.64 2.2zm-10.94 0-.48-2.2h4.16l.62 2.2zm-6.65 0-.32-2.2h4.17l.45 2.2zm-6.64 0-.17-2.2h4.17l.3 2.2zm-6.64 0-.01-2.2h4.16l.15 2.2zm-6.64 0 .14-2.2h4.17l-.01 2.2zm-6.65 0 .3-2.2h4.17l-.17 2.2zm-6.64 0 .46-2.2h4.16l-.32 2.2zm-6.64 0 .61-2.2h4.17l-.48 2.2zm-6.65 0 .77-2.2h4.17l-.63 2.2zm65.69 0-.82-2.2h8.75l.95 2.2z"/></g><path style="fill:#b7d5e5" d="M124.73 117.88 110.39 92.4c-.71-1.07-1.98-1.84-3.25-1.84 0 0 1.22 1.1 1.59 1.63l12.59 23.59c.56 1.02-.18 2.26-1.34 2.26H7.96c-1.15 0-1.89-1.23-1.35-2.24l11.95-23.18c.35-.6 1.88-1.99 1.88-1.99h-.45c-1.27 0-2.54.77-3.25 1.99L3.28 117.88c-.59.88-.01 2.12.99 2.12h119.46c1.01 0 1.59-1.24 1-2.12z"/><path style="fill:none;stroke:#eee;stroke-width:2.9357;stroke-linecap:round;stroke-miterlimit:10" d="M25.97 28.02h13.21"/><path style="fill:#75a7bc" d="M109.37 30.11c0-1.04-1.01-1.12-1.01.11v55.8c0 1.34-1.09 2.43-2.43 2.43H22.08c-1.34 0-2.43-1.09-2.43-2.43v-55.8c0-1.23-1.01-1.15-1.01-.11l-.95 55.91c0 2.42 1.24 4.39 4.39 4.39h83.85c2.73 0 4.39-1.97 4.39-4.39l-.95-55.91z"/></svg>