<svg xmlns="http://www.w3.org/2000/svg" viewBox="0 0 128 128" style="enable-background:new 0 0 128 128" xml:space="preserve"><path style="fill:#95c7ec" d="M116.62 124.26H11.32c-4.15 0-7.52-3.37-7.52-7.52V11.44c0-4.15 3.37-7.52 7.52-7.52h105.3c4.15 0 7.52 3.37 7.52 7.52v105.3c.01 4.15-3.36 7.52-7.52 7.52z"/><path style="fill:#10203d" d="m10.43 117.67.26-108.4 108-.53-.39 108.8z"/><path style="fill:#2865ab" d="M49.7 22.01c-1.08.95-8.23 1.19-14.86.53-6.63-.66-13.8-.13-17.12 1.72s-7.16 5.57-7.16 5.57l-.4 52.67 6.76-9.75s-.34 10.57 1.47 25.27c1.37 11.12 4.64 19.5 4.64 19.5h84.65s3.35-14.61 3.98-22.02c.9-10.65.13-20.3.13-20.3l6.5 7.7.27-52.14s-3.4-4.36-10.34-6.38c-8.49-2.47-19.6-2.16-24.42-2.25-1.61-.03-3.85.13-4.38-.66s-.4-12.21-.4-12.21l-28.66-.25s.4 12.07-.66 13z"/><radialGradient id="a" cx="65.452" cy="68.352" r="75.143" gradientTransform="matrix(1 -.00943 .00686 .7275 -.466 19.247)" gradientUnits="userSpaceOnUse"><stop offset=".591" style="stop-color:#7ac4d9"/><stop offset=".775" style="stop-color:#4fa4c6"/><stop offset=".851" style="stop-color:#3c95bd"/><stop offset="1" style="stop-color:#327db5"/></radialGradient><path style="fill:url(#a)" d="M55.28 24.85s.93-4.01 1.08-8.49c.15-4.48 0-7.41 0-7.41l16.36-.15s-.46 4.79-.46 7.25.31 7.25.93 8.18 4.7.26 8.38 2.01c4.21 2.01 5.46 6.03 5.46 6.03l18.42-.64 6.89 3.13s2.32 2.01 2.93 4.79.86 6.99.86 6.99l2.74 3.93-.62 16.36s-7.1-8.18-8.34-9.42c-1.23-1.23-2.62-4.32-4.17-1.23-1.54 3.09 2.93 6.79 2.62 20.84-.31 14.05-2.01 24.08-6.17 23.15-4.17-.93-1.54-7.1-2.16-15.44s-2.16-20.37-7.56-31.95S76.27 37.2 73.8 37.82c-2.47.62-1.54 18.52-1.23 25.01.31 6.48 2.93 14.97 7.1 20.84 4.17 5.87 9.42 6.95 10.96 13.12s-.15 9.11-.15 9.11 5.71.15 8.49 2.93 4.79 8.95 4.79 8.95H25.8s.31-8.8 7.56-13.74 13.12-4.17 13.12-4.17l4.17-5.4 5.4-18.37s.31-17.13.31-23 .31-12.66-.15-13.74c-.46-1.08-5.4-2.78-5.4-2.78s-10.03 4.48-14.51 14.2-6.02 21.76-6.64 33.03c-.62 11.27.77 17.75-2.16 17.29s-7.56-9.72-7.41-26.09c.15-16.36 3.4-20.68 1.54-21.61-1.85-.93-4.09 2.44-7.41 6.64-2.32 2.93-3.86 4.48-3.86 4.48V47.23s2.62-2.32 2.78-4.48.31-6.64 4.79-9.11 23.15-1.7 23.15-1.7 1.7-3.4 6.33-5.71 7.87-1.38 7.87-1.38z"/><path style="fill:#fcfdfd" d="M58.2 9s-.24 4.33.77 4.9c1.01.58 2.74.19 5.77.19 3.03 0 4.23.43 5.14-.24.91-.67.34-5.24.34-5.24L58.2 9z"/><path style="fill:#004ca5" d="m9.56 8.25-.19 110.6 109.86.15.4-111.19-110.07.44zm1.8 108.63L11.22 10.2l106.14-.53.13 106.94-106.13.27z"/><path style="fill:#daebf5" d="M114.8 6.94c-.59 1.02-.42 4.76.34 5.27s4.5.08 5.1-.42c.59-.51.25-4.59-.42-5.18-.68-.6-4.59-.4-5.02.33zM7.96 7.62c-1.15 1.15-.68 4.59.08 5.18.76.59 4.42.68 5.27-.08.85-.76.76-4.59-.25-5.44s-4.08-.68-5.1.34zm-.17 107.1c-.59.71-.59 4.59.17 5.27s4.5.68 5.01.25.76-4.59.08-5.18c-.67-.6-4.84-.85-5.26-.34zm106.84.17c-.73.42-.51 4.93.17 5.52.91.8 4.59.51 5.18-.17.59-.68.76-4.59.25-5.18-.5-.6-4.58-.77-5.6-.17z"/><path style="fill:#fefefe" d="M16.63 34.31c1.02 2.51 7.39 0 7.39 0s4.93-.59 11.73.25 20.65 6.2 20.65 6.2-2.12 1.78-5.78.51c-3.65-1.27-5.1-3.99-6.2-3.31-1.1.68-.59 4.93 4.59 6.97s9.26.25 9.26.25l.25 6.88s-1.44-1.02-3.31-1.1-15.55.93-17.08-3.57 2.89-7.05 3.91-7.82c1.02-.76 1.61-2.21.34-2.8-1.27-.59-9.01 1.95-9.52 8.84s8.58 10.11 13.6 10.62 9.77.42 10.54.17c.76-.25 1.7-1.02 1.7-1.02s.59 18.61 1.02 20.99c.42 2.38 1.95 5.35 4.84 5.1s3.57-3.74 3.82-6.03 1.53-19.29 1.53-19.29 1.02 1.19 2.29 1.19 11.81 1.02 17.42-1.53c5.61-2.55 7.73-6.71 6.8-12.07s-7.14-7.31-8.33-6.37c-1.19.93.68 2.72 1.53 3.57.85.85 3.99 6.97-.93 9.26-4.93 2.29-15.21 1.19-16.4 1.44-1.19.25-2.04 1.53-2.04 1.53l.25-7.65s7.39 1.78 11.39-1.95 3.23-5.78 1.95-6.03c-1.27-.25-2.12 3.23-5.1 4.08-2.97.85-6.88.51-6.88.51s5.52-3.91 15.47-6.2c9.94-2.29 18.44-1.27 18.44-1.27s4.04 3.43 6.91 1.16c2.87-2.27-1.21-6.43-4.02-6.69s-10.28-1.17-21.76 1.7C75 33.8 67.86 38.48 67.86 38.48s-4.93.42-7.9-.93c-2.97-1.36-10.7-5.66-23.12-7.9-8.92-1.61-15.89-1.44-17.68-.76-1.05.39-3.98 1.85-2.53 5.42z"/><path style="fill:#fdfffe" d="M45.72 29.69c-.07 1.17 1.16 2.07 2.13 2.07s2.5-1.52 5.18-1.89c2.68-.37 3.23.18 3.96-.12s1.28-1.58.24-2.44c-1.04-.85-4.57-.79-6.46-.37s-4.99 1.72-5.05 2.75z"/><path style="fill:#fefefe" d="M58.16 32.43c.06 1.28-.03 2.96 1.71 3.6 1.16.43 1.77 0 4.57-.12 2.8-.12 3.9.43 5.43-.61s1.28-4.45.3-5.24c-.84-.68-4.45-.43-5.73-.43-1.28 0-6.47-1.16-6.28 2.8zm.61-9.81c-.68.6-.61 4.39.3 5.12.91.73 9.2.24 10 .24s1.46-.67 1.4-2.99c-.06-2.32-.12-3.11-3.11-2.99-2.99.13-7.56-.29-8.59.62zm.12-6.83c-.52.63-1.16 4.02-.24 4.69.91.67 3.84.12 5.73.12 1.89 0 4.63.61 5.67-.49s.55-4.39-.43-4.88c-.98-.49-3.23.06-5.36.06-2.14.02-4.76-.23-5.37.5z"/><path style="fill:#fdfffe" d="M72.73 28.05c0 1.1.49 1.52 2.07 1.52s2.93.06 3.78.55c.85.49.98 1.22 1.89 1.28s3.05 0 2.93-1.34c-.12-1.34-2.62-2.56-4.69-2.93s-5.98-.79-5.98.92zM32.64 50.71c-1.26-.97-3.42 1.26-4.14 2.07-.72.81-4.5 5.4-.54 10.7s11.84 5.23 17.18 4.77c7.2-.63 13.67-3.69 12.68-6.93-.75-2.45-8.13 2.77-16.73 1.89-7.91-.81-10.61-2.61-10.7-6.57-.09-3.91 4.23-4.4 2.25-5.93zM71.05 61.5c-.92 1.37-.1 3.12 3.51 4.59 5.31 2.16 19.34 5.94 25.72-.63 6.39-6.57.27-15.83-2.61-15.02-3.67 1.03 4.41 6.84-.99 10.61-4.37 3.06-11.33 2.25-17 1.35-5.28-.83-7.37-2.78-8.63-.9z"/><path style="fill:#fdfffe" d="M70.69 68.16c-.96 1.11.54 4.95 6.48 8.36 5.94 3.42 12.51 5.68 20.33 3.96 8.31-1.83 8.54-12.86 4.68-13.31-3.13-.36 1.39 6.06-6.12 7.47-7.2 1.35-14.39-1.89-17.09-3.24-2.71-1.35-6.57-5.22-8.28-3.24zm-.31 5.98c-1.28.96-1.25 2.45-.17 5.93.85 2.74 5.02 15.8 11.86 23.39 6 6.65 9.73 6.39 9.7 4.62-.06-3.14-1.43-2-6.96-9.58-4-5.49-7.36-12.49-7.36-12.49s3.33 3.12 6.67 5.48c3.31 2.34 6.62 3.37 7.53 3.08s.63-2.74-.11-3.99c-.66-1.12-2.05-1.43-4.85-3.14-3.5-2.14-7.02-5.36-10.1-8.27-3.08-2.92-5.07-5.88-6.21-5.03z"/><path style="fill:#fdfffe" d="M92.93 94.56c.68.51 4.97.38 7.59-1.71 4.22-3.37 4.51-6.38 4.51-9.98 0-2.4-1.03-4.16-1.88-3.82s-.89 5.6-3.48 8.5c-2.8 3.14-5.25 1.94-6.79 2.68-1.38.65-.87 3.65.05 4.33zm-.25 11.92c-.42.48-.2 2.53.42 3.38.6.82 6.47 1.28 8.88-2.35 2.57-3.88 2.46-12.85.46-12.66-1.83.17-.91 7.7-3.94 9.81-3.03 2.11-4.74.57-5.82 1.82zM25.77 64.84c-1.71.29-1.79 5.55-1.03 8.9.86 3.76 4.73 7.81 12.55 7.47 9.41-.41 16.83-6.85 18.25-7.99 1.43-1.14 3.25-3.42 2.45-4.51-.8-1.08-2.68-.46-5.13.86-2.45 1.31-11.29 5.93-16.09 5.65-4.79-.29-7.02-2-7.99-4.91-.96-2.9-1.36-5.75-3.01-5.47zm32.29 9.87c-1.29-.52-2.51.8-4.22 2.57s-7.59 7.47-11.18 9.98c-1.8 1.26-3.59 1.65-3.99 2.85s-.08 3.44.74 3.71c1.6.51 6.1-2.97 7.99-4.34s4.22-3.88 4.22-3.88-2.05 7.24-7.19 13.23c-4.83 5.64-5.53 4.79-6.85 6.56-1.31 1.77-1.31 3.19-1.31 3.19s-.17 2.57 1.77 1.88c1.94-.68 6.27-2.97 10.27-8.56s6.5-10.95 8.1-15.46c1.59-4.48 3.36-11.04 1.65-11.73zm-31.95 4.11c-1.6-.74-3.57 2.36-2.51 7.36 1.08 5.13 4.28 7.19 7.64 8.1 3.9 1.06 6.1.91 5.99-1.6-.11-2.51-2.4-2.34-3.94-2.68-1.54-.34-4.9-1.3-5.88-4.79-1.18-4.28-.18-5.87-1.3-6.39z"/><path style="fill:#fefefe" d="M27.41 94.55c-1.04-.09-2 1.48-2 5.02 0 4.26 1.67 8.37 4.57 10.17 2.37 1.48 4.04 1.72 5.15 1.48 1.48-.32 1.55-4.12.58-4.64s-2.99-.03-4.96-2.32c-1.55-1.8-2.5-3.8-2.32-6.44.14-1.85-.25-3.2-1.02-3.27z"/></svg>