<svg xmlns="http://www.w3.org/2000/svg" viewBox="0 0 128 128" style="enable-background:new 0 0 128 128" xml:space="preserve"><path style="fill:#c33" d="M113.8 65.4c-.2-.1-.4-.2-.6-.2h-4.9s6.7 7.5 6.7 10.7c0 15.5-21.5 28.1-48 28.1S19 91.4 19 75.9c0-3.2.9-6.3 2.7-9.2.4-.7-.2-1.6-1-1.5h-4.9S7 79.4 7 87.9c0 20 26.9 36.1 60 36.1s60-16.1 60-36.1c0-8.5-4.9-16.3-13.2-22.5z"/><path style="fill:#c33" d="M54.4 83.9h4.9c.2 0 .4 0 .7-.2 6.6-4.5 23.6-18.9 13.5-41.3-7.2-16.1-4.6-30.8-2.9-37.1.2-.7-.4-1.4-1-1.4h-5s-16.8 20.9-8.8 41.9c6.4 17.1-1.4 38.1-1.4 38.1zm-29.1 0s4.2-.1 4.9-.1c.2 0 .5 0 .7-.2 5.9-4 21.1-16.8 12.1-36.9-6.5-14.4-4.2-27.6-2.6-33.2.2-.6-.3-1.2-.8-1.2h-5S20 31.1 27.1 49.8c5.7 15.3-1.8 34.1-1.8 34.1z"/><path style="fill:#f44336" d="M108.8 65.4c-.9-.6-2 .4-1.5 1.3 1.7 2.9 2.7 6 2.7 9.2 0 15.5-21.5 28.1-48 28.1S14 91.4 14 75.9c0-3.2.9-6.3 2.7-9.2.5-.9-.6-1.9-1.5-1.3C7 71.6 2 79.4 2 87.9c0 20 26.9 36.1 60 36.1s60-16.1 60-36.1c0-8.5-4.9-16.3-13.2-22.5z"/><path style="fill:#f44336" d="M53.3 82.6c-.2.9.8 1.7 1.6 1.2 6.6-4.5 23.6-18.9 13.5-41.3-7.2-16.1-4.6-30.8-2.9-37.1.3-1-.9-1.8-1.7-1.1C57.4 9.7 42.8 25 50.7 46c6.5 16.9 4.1 30.9 2.6 36.6zm-28.9.1c-.2.8.7 1.5 1.5 1 5.9-4.1 21.2-16.9 12.1-37-6.5-14.4-4.2-27.6-2.6-33.2.2-.9-.8-1.6-1.5-1-5.8 4.9-18.9 18.6-11.8 37.3 5.8 15.3 3.6 27.9 2.3 32.9z"/><path style="fill:#c33" d="M84.2 83.9s4.3-.1 4.8 0c.2 0 .5 0 .7-.2 5.9-4.1 21.2-16.9 12.1-37-6.5-14.4-4.2-27.6-2.6-33.2.2-.6-.3-1.2-.8-1.2h-5S78.9 31 86 49.8c5.7 15.3-1.8 34.1-1.8 34.1z"/><path style="fill:#f44336" d="M83.2 82.7c-.2.8.7 1.5 1.5 1 5.9-4.1 21.2-16.9 12.1-37-6.5-14.4-4.2-27.6-2.6-33.2.2-.9-.8-1.6-1.5-1C87 17.4 73.8 31.1 81 49.8c5.7 15.3 3.6 27.9 2.2 32.9z"/><path style="fill:#ff8a80" d="M28.02 47.32c-.9-.31-1.69-1.07-2.14-2-1.55-3.22-2.41-6.47-2.18-10.07.15-2.5.51-5.09 1.56-7.47.52-1.09 2-4.46 3.59-4.02.5.11.89.62.98 1.12.18.9-.53 1.59-.95 2.28-1.42 2.36-1.52 5.57-1 8.21.58 2.95 5.62 7.92 3.2 10.92-.93 1.16-2.06 1.38-3.06 1.03zm58.34 0c-.9-.31-1.69-1.07-2.14-2-1.55-3.22-2.41-6.47-2.18-10.07.15-2.5.51-5.09 1.56-7.47.52-1.09 2-4.46 3.59-4.02.5.11.89.62.98 1.12.18.9-.53 1.59-.95 2.28-1.42 2.36-1.52 5.57-1 8.21.58 2.95 5.62 7.92 3.2 10.92-.93 1.16-2.07 1.38-3.06 1.03zm-29.84-4.5c-.13 0-.26-.01-.41-.03-3.37-.48-3.92-9.02-3.77-11.53.15-2.5.51-5.09 1.56-7.47.52-1.09 2-4.46 3.59-4.02.5.11.89.62.98 1.12.18.9-.53 1.59-.95 2.28-1.57 2.62-1.66 6-1.09 8.92.35 1.76 4.22 10.81.09 10.73zm-42.06 58.79c-.79 1.4-.29 3.19 1 4.14 4.23 3.11 18.94 12.74 40.34 13.95 25.58 1.44 37.07-5.97 37.07-5.97s1.75-.65 1.05-1.78-3.1.1-3.1.1-24.9 6.31-44.22 1.22c-20.36-5.37-24.82-9.95-26.91-11.82-.95-.85-2.25-1.28-3.5-1.05-.58.11-1.13.36-1.51.87l-.22.34z"/></svg>