<svg xmlns="http://www.w3.org/2000/svg" viewBox="0 0 128 128" style="enable-background:new 0 0 128 128" xml:space="preserve"><path style="fill:#424242" d="M124 107.2c-41.55 17.8-78.49-17.79-120 0V20.8c41.51-17.79 78.45 17.8 120 0v86.4z"/><linearGradient id="a" gradientUnits="userSpaceOnUse" x1="5.371" y1="105.342" x2="122.371" y2="22.841" gradientTransform="matrix(1 0 0 -1 0 128)"><stop offset="0" style="stop-color:#fff;stop-opacity:0"/><stop offset=".801" style="stop-color:#090909;stop-opacity:.9151"/><stop offset="1" style="stop-color:#000"/></linearGradient><path style="opacity:.3;fill:url(#a);enable-background:new" d="M124 107.2c-41.55 17.8-78.49-17.79-120 0V20.8c41.51-17.79 78.45 17.8 120 0v86.4z"/><linearGradient id="b" gradientUnits="userSpaceOnUse" x1="4.821" y1="64.002" x2="120.172" y2="64.002"><stop offset=".001" style="stop-color:#bfbebe"/><stop offset=".234" style="stop-color:#212121;stop-opacity:0"/><stop offset=".803" style="stop-color:#212121;stop-opacity:0"/><stop offset="1" style="stop-color:#bfbebe"/></linearGradient><path style="opacity:.2;fill:url(#b)" d="M124 107.2c-41.55 17.8-78.49-17.79-120 0V20.8c41.51-17.79 78.45 17.8 120 0v86.4z"/><linearGradient id="c" gradientUnits="userSpaceOnUse" x1="66.837" y1="16.011" x2="61.035" y2="114.159"><stop offset=".001" style="stop-color:#bfbebe"/><stop offset=".197" style="stop-color:#212121;stop-opacity:0"/><stop offset=".75" style="stop-color:#212121;stop-opacity:0"/><stop offset="1" style="stop-color:#bfbebe"/></linearGradient><path style="opacity:.2;fill:url(#c)" d="M124 107.2c-41.55 17.8-78.49-17.79-120 0V20.8c41.51-17.79 78.45 17.8 120 0v86.4z"/><path style="fill:#fff" d="M37.44 68.83c1.68.78 3.51.18 4.08-1.41 4.45 2.28 6.67 3.58 11.12 6.28 3.1-.21 4.64-.27 7.74-.38-6.91-4.4-10.37-6.62-17.29-10.28.57-1.58-.34-3.59-2.02-4.44s-3.51-.18-4.08 1.43c-.32.9-.17 1.9.31 2.75-.86.23-1.57.85-1.88 1.76-.57 1.62.34 3.51 2.02 4.29zm51.12 17.85c-1.68-.82-3.51-.26-4.08 1.31-4.45-2.37-6.67-3.71-11.12-6.45-3.1.17-4.64.23-7.74.33 6.91 4.41 10.37 6.68 17.29 10.48-.57 1.56.34 3.59 2.02 4.48s3.51.27 4.08-1.33c.32-.89.17-1.9-.31-2.75a2.61 2.61 0 0 0 1.88-1.71c.57-1.62-.34-3.54-2.02-4.36z"/><path style="fill:#fff" d="M84.48 78.74c.57 1.8 2.39 3.05 4.08 2.73 1.68-.31 2.59-2.04 2.02-3.8a3.93 3.93 0 0 0-1.88-2.23c.48-.71.62-1.68.31-2.66-.57-1.77-2.39-2.96-4.08-2.71s-2.59 1.86-2.02 3.67c-13.78 1.45-27.65.98-41.39 2.94-.57-1.78-2.39-2.99-4.08-2.64-1.68.36-2.59 2.11-2.02 3.85a3.8 3.8 0 0 0 1.88 2.18c-.48.73-.62 1.69-.31 2.67.57 1.75 2.39 2.89 4.08 2.61s2.59-1.92 2.02-3.71c13.76-1.72 27.63-1.24 41.39-2.9zM71.64 38.99c-5.39-4.43-11.89-6.49-17.29-5.11-5.41 1.38-10.46 6.12-5.34 19.27 0 0-2.74 8.24 5.95 8.65 0 0 1.39.16 1.3 2.23v.99c0 .64.52 1.3 1.15 1.48.01 0 .02.01.03.01.64.19 1.15-.18 1.15-.81v-.96c.56.16.83.25 1.39.41v.96c0 .64.52 1.3 1.15 1.5h.01c.64.19 1.15-.17 1.15-.8v-.96l1.39.42v.96c0 .64.52 1.31 1.15 1.5.64.19 1.15-.17 1.15-.8v-.96l1.39.42v.96c0 .64.52 1.31 1.15 1.49.01 0 .02.01.03.01.64.19 1.15-.18 1.15-.81v-.99c-.09-2.12 1.3-1.48 1.3-1.48 8.7 4.57 5.95-5.42 5.95-5.42 5.15-10.58.1-17.72-5.31-22.16zm-14.67 16.7c-2.4-.7-4.35-3.17-4.35-5.58s1.95-3.83 4.35-3.13c2.41.7 4.35 3.24 4.35 5.64.01 2.41-1.94 3.77-4.35 3.07zm7.48 6.9c-.89-.71-1.92-1.02-2.81-.85-.35.07-.57-.11-.57-1.1 0-.64.02-1.19.06-1.66.1-1.1.93-1.7 1.91-1.41.99.3 1.81 1.4 1.91 2.56.04.49.06 1.06.06 1.7 0 .98-.21 1.04-.56.76zm4.71-3.26c-2.4-.71-4.35-3.25-4.35-5.66s1.95-3.76 4.35-3.05 4.35 3.21 4.35 5.61c0 2.41-1.95 3.82-4.35 3.1z"/></svg>