<svg xmlns="http://www.w3.org/2000/svg" viewBox="0 0 128 128" style="enable-background:new 0 0 128 128" xml:space="preserve"><path style="fill:#ffca28" d="M43.22 12.9c0 6.72.73 52.62.73 52.62 0 3.65.1 4.33-1.24 3.32-1.34-1.01-2.66-4.87-12.18-7.43-7.12-1.92-16.06 1.01-18.37 5.35-1.03 1.93-1.2 5.91 2.13 7.39 3.19 1.42 9.61 1.57 14.97 5.64 6.56 4.98 6.81 9.11 11.03 16.8 3.36 6.14 11.6 10.87 13.37 14.27 1.29 2.46 1.23 5.62 1.09 8.78-.05 1.21.75 2.3 1.93 2.59 2.82.71 8.72 1.78 18.57 1.78 9.73 0 15.6-1.04 18.47-1.75 1.22-.3 2.04-1.44 1.92-2.69-.31-3.34-.76-6.9.22-9.43 1.34-3.48 5.77-8.32 9.38-14.42 8.45-14.28 7.51-29.28 6.79-37.88-.55-6.65-4.69-15.01-10.16-16.26-2.8-.64-4.77.08-6.82 1.78-.48.39-1.2.05-1.39-.54-.82-2.54-2.56-6.46-7.75-6.8-4.25-.28-6.05 2.21-7.55 3.56-.45.4-.92.07-1.12-.5-.83-2.43-3.87-6.66-8.52-6.51-5.37.17-7.4 4.26-8.35 7.26-.17.54-1.4-3.08-1.44-3.65 0 0-1.17-14.88-2.23-21.28-1-6.07-2.61-11.73-8.5-10.7-2.47.4-4.98 1.97-4.98 8.7z"/><path style="fill:#ffb300" d="M59.04 52.97c1.57-2.26 4.25-6.51 9.05-6.74 4.63-.22 6.3 3.52 8.64 3.93 3.19.55 3.56-1.72 7.99-1.48 4.25.23 5.08 3.1 8.08 3.51 1.91.26 3.6-1.8 8.22-1.43 1.92.15 5.91 2.08 7.39 5.68 1.08 2.64 3.13-2.15 2.73-3.55-1.3-4.54-4.16-10.06-9.15-11.3l-.14-.03c-2.8-.64-4.77.08-6.82 1.78-.48.39-1.2.05-1.39-.54-.82-2.54-2.56-6.46-7.75-6.8-4.25-.28-6.05 2.21-7.55 3.56-.45.4-.92.07-1.12-.5-.83-2.43-3.87-6.66-8.52-6.51-5.37.17-7.4 4.26-8.35 7.26-.04.2-1.97 10.55-1.31 13.16z"/><path style="fill:#eda600" d="M42.9 69.71c-1.56.37-2.86-1.08-3.68-1.81-2.55-2.3-5.52-3.76-7.73-4.52-8.08-2.77-14.23-.23-17.68 1.3 0 0 7.33-7.72 19.34-4.76 4.05 1 6.92 2.87 9.49 5.28 2.15 2.01 1.71 4.17.26 4.51zm69.13-11.89c-.46-5.51-3.08-12-7.04-14.86-.4-.29-.89.21-.57.59 1.7 2.04 3.91 6.01 4.35 13.23 1.04 17.08-.43 27.84-6.09 37.4-1.56 2.63-3.31 5.07-4.86 7.23-2.07 2.88-3.32 4.73-4.11 7.04-2.15 6.3 1.94 11.1 1.94 11.1-.31-3.34-.76-6.9.22-9.43 1.34-3.48 5.77-8.32 9.38-14.42 8.45-14.27 7.5-29.27 6.78-37.88zM61.24 45.14c.35 5.89-2.15 8.52-2.15 8.52s-.9-1.52-1.8-7.9c0 0-2.18-30.29-2.73-34.97-.69-5.92-5.09-6.75-5.09-6.75s6.83-1.1 8.18 7.25c1.02 6.23 3.24 27.96 3.59 33.85zm29.73 3.4c-.18 2.4.44 3.4 1.78 3.65s1.98-1.2 1.89-3.93c-.21-6.9-3.07-11.62-7.41-12.03 0 0 4.47 2.5 3.74 12.31zm-16.29-1.98c-.08 2.16.73 3.4 2.29 3.57s2.1-1.51 2.08-3.12c-.09-6.93-3.6-14-9.04-14.38 0 0 5.11 2.65 4.67 13.93z"/></svg>