<svg xmlns="http://www.w3.org/2000/svg" viewBox="0 0 128 128" style="enable-background:new 0 0 128 128" xml:space="preserve"><path style="fill:#ab872f" d="M50.77 4.87c-41.01 0-40.68 37.92-40.68 38.52 0 24.56 1.88 59.25 11.71 72.9 3.9 5.41 11.43 5.71 11.43 5.71l16.97-.03 16.97.03s7.54-.3 11.43-5.71c9.83-13.65 11.71-48.34 11.71-72.9 0-.6 1.47-38.52-39.54-38.52z"/><radialGradient id="a" cx="50.203" cy="67.561" r="47.531" gradientTransform="matrix(1 0 0 -1.1901 0 140.841)" gradientUnits="userSpaceOnUse"><stop offset=".794" style="stop-color:#bfa055;stop-opacity:0"/><stop offset="1" style="stop-color:#bfa055"/></radialGradient><path style="fill:url(#a)" d="M50.77 4.87c-41.01 0-40.68 37.92-40.68 38.52 0 24.56 1.88 59.25 11.71 72.9 3.9 5.41 11.43 5.71 11.43 5.71l16.97-.03 16.97.03s7.54-.3 11.43-5.71c9.83-13.65 11.71-48.34 11.71-72.9 0-.6 1.47-38.52-39.54-38.52z"/><linearGradient id="b" gradientUnits="userSpaceOnUse" x1="4" y1="18.16" x2="96" y2="18.16" gradientTransform="matrix(1 0 0 -1 0 128)"><stop offset=".003" style="stop-color:#448aff"/><stop offset=".404" style="stop-color:#3b7dff"/><stop offset="1" style="stop-color:#2962ff"/></linearGradient><path style="fill:url(#b)" d="M50.12 95.72H50c-22.55.03-46 7.28-46 25.06v3.18h92v-3.18c0-16.76-23.23-25.06-45.88-25.06z"/><path style="fill:#c48e6a" d="M50 92.37h-9.08v9.98c0 4.51 3.7 8.17 8.26 8.17h1.65c4.56 0 8.26-3.66 8.26-8.17v-9.98H50z"/><path style="fill:#e0bb95" d="M50.2 16.04c-17.2 0-33.13 12.79-33.13 39.91 0 21.78 13.49 34.67 25.23 38.83 2.8.99 5.5 1.49 7.9 1.49 2.38 0 5.07-.49 7.85-1.47 11.76-4.14 25.28-17.03 25.28-38.84 0-27.13-15.93-39.92-33.13-39.92z"/><path style="fill:#c48e6a" d="M54.01 68.06c-.1-.04-.21-.07-.32-.08H46.7c-.11.01-.21.04-.32.08-.63.26-.98.91-.68 1.61.3.7 1.69 2.66 4.49 2.66s4.19-1.96 4.49-2.66c.32-.7-.03-1.36-.67-1.61z"/><ellipse style="fill:#5d4037" cx="34.96" cy="58.87" rx="4.87" ry="5.04"/><ellipse style="fill:#5d4037" cx="65.45" cy="58.87" rx="4.87" ry="5.04"/><path style="fill:#ab872f" d="M41.19 49.82c-.93-1.23-3.07-3.01-7.23-3.01s-6.31 1.79-7.23 3.01c-.41.54-.31 1.17-.02 1.55.26.35 1.04.68 1.9.39s2.54-1.16 5.35-1.18c2.81.02 4.49.89 5.35 1.18.86.29 1.64-.03 1.9-.39.28-.38.39-1.01-.02-1.55zm32.49 0c-.93-1.23-3.07-3.01-7.23-3.01s-6.31 1.79-7.23 3.01c-.41.54-.31 1.17-.02 1.55.26.35 1.04.68 1.9.39s2.54-1.16 5.35-1.18c2.81.02 4.49.89 5.35 1.18.86.29 1.64-.03 1.9-.39.29-.38.39-1.01-.02-1.55z"/><path style="fill:#6d4c41" d="M58.27 76.14c-3.15 1.87-13.47 1.87-16.61 0-1.81-1.07-3.65.57-2.9 2.21.74 1.61 6.37 5.36 11.23 5.36s10.42-3.75 11.16-5.36c.75-1.64-1.07-3.29-2.88-2.21z"/><linearGradient id="c" gradientUnits="userSpaceOnUse" x1="104" y1="17.136" x2="116.986" y2="17.136" gradientTransform="matrix(1 0 0 -1 0 128)"><stop offset=".003" style="stop-color:#448aff"/><stop offset=".404" style="stop-color:#3b7dff"/><stop offset="1" style="stop-color:#2962ff"/></linearGradient><path style="fill:url(#c)" d="M116.88 122.48c0-6.76-3.88-20-11.75-24.71L104 123.96h12.97l-.09-1.48z"/><path style="fill:#9e9e9e" d="m117.96 54.76-11.11-.32c-4.2-.09-7.67 3.39-7.75 7.79l-.64 36.36 3.8.09.64-36.36c.04-2.19 1.78-3.94 3.87-3.9l11.11.32.08-3.98z"/><path style="fill:#504f4f" d="m106.64 60.12-1.49-.02c-1.11-.02-2-.97-1.99-2.13l.02-2.21c.01-1.16.92-2.09 2.03-2.07l1.49.02c1.11.02 2 .97 1.99 2.13l-.02 2.21c-.01 1.15-.92 2.08-2.03 2.07z"/><path style="fill:#616161" d="m103.09 122.96.39-32.79c.01-1.05-1.33-1.92-3-1.95s-3.03.81-3.04 1.86l-.39 32.87h6.04z"/><path style="fill:#504f4f" d="m104.77 123.96.31-28.96c.02-1.88-1.33-3.42-3.01-3.45l-3.26-.04c-1.68-.02-3.07 1.48-3.08 3.36l-.31 29.08 9.35.01z"/><path style="fill:#40c4ff" d="M112.5 61.47c-2.73 0-5.66-1.72-5.66-5.49 0-4.14 3.19-5.24 5.08-5.24 4.5 0 9.17 3.78 10.85 5.28-1.73 1.52-6.54 5.45-10.27 5.45z"/><path style="fill:#2962ff" d="M111.92 51.57c3.69 0 7.59 2.79 9.57 4.44-2.28 1.91-6.15 4.62-8.99 4.62-1.79 0-4.82-.98-4.82-4.66 0-3.47 2.66-4.4 4.24-4.4m0-1.68c-2.56 0-5.92 1.67-5.92 6.08 0 4.42 3.5 6.33 6.5 6.33 5 0 11.5-6.29 11.5-6.29s-6.08-6.12-12.08-6.12z"/><path style="fill:#84ffff" d="M112.62 53.64c3.51 1.22 5.22 2.32 5.22 2.32s-1.12 1.22-4.74 2.01c-2.69.59-4.44-.41-4.42-2.13.04-1.71 2.13-2.83 3.94-2.2z"/><path style="fill:#f44336" d="M113.87 110.02c-.14-1.42-.63-2.77-1.1-3.9-1.47-3.57-3.14-6.35-6.95-9.16-3.87-2.86-8.13-3.43-10.05-3.11-2.16.35-3.54 1.2-4.11 2.52-.43 1.01-.27 2.03-.01 2.79-1.1.38-2.58 1.13-3.05 2.48-.56 1.58-.11 2.86.54 3.74-.94.6-2.11 1.55-2.45 2.74-.45 1.59 1.01 3.35 1.99 4.32-.48.64-1.05 1.5-1.18 2.13-.68 3.36 3.68 5.24 6.36 5.82.43.09.86-.1 1.08-.48l.92-1.6c3.43 1.06 8.44 2.48 10.53 2.48.29 0 .52-.03.68-.08 1.93-.67 3.18-2.24 4.28-3.62.17-.21.34-.43.51-.64 1.51-1.82 2.23-4.16 2.01-6.43z"/><path style="fill:#f5f5f5" d="m52.68 123.96 6.65-19.42H39.44l7.88 19.42z"/><linearGradient id="d" gradientUnits="userSpaceOnUse" x1="36.943" y1="32.046" x2="36.943" y2="2.807" gradientTransform="matrix(1 0 0 -1 0 128)"><stop offset="0" style="stop-color:#1565c0"/><stop offset=".682" style="stop-color:#0d47a1"/><stop offset="1" style="stop-color:#0d47a1"/></linearGradient><path style="fill:url(#d)" d="M35.71 108.42c.33 0 .65.16.85.45l10.18 15.09h.58l-6.4-28.01-7.47 1.15-6.89 14.85 8.77-3.46c.13-.05.25-.07.38-.07z"/><linearGradient id="e" gradientUnits="userSpaceOnUse" x1="36.943" y1="32.046" x2="36.943" y2="2.807" gradientTransform="rotate(180 50 64)"><stop offset="0" style="stop-color:#1565c0"/><stop offset=".682" style="stop-color:#0d47a1"/><stop offset="1" style="stop-color:#0d47a1"/></linearGradient><path style="fill:url(#e)" d="M64.29 108.42c-.33 0-.65.16-.85.45l-10.18 15.09h-.58l6.4-28.01 7.47 1.15 6.89 14.85-8.77-3.46c-.13-.05-.25-.07-.38-.07z"/><path style="fill:#ab872f" d="M50.77 4.87c-41.01 0-40.68 37.92-40.68 38.52 0 7.76.19 16.53.75 25.32l6.72-.02c-.06-2.92 1.99-21.97 8.08-23.34C48 40.34 60.66 29.48 60.66 29.48c3.29 7.18 13.58 14.19 17.27 16.86 3.03 2.19 3.96 18.55 3.9 22.38h7.71c0-.05.02-.1.02-.16.56-8.75.74-17.46.74-25.17.01-.6 1.48-38.52-39.53-38.52z"/><radialGradient id="f" cx="50.536" cy="63.537" r="49.788" gradientTransform="matrix(1 0 0 -1.2135 0 141.568)" gradientUnits="userSpaceOnUse"><stop offset=".794" style="stop-color:#bfa055;stop-opacity:0"/><stop offset="1" style="stop-color:#bfa055"/></radialGradient><path style="fill:url(#f)" d="M50.77 4.87c-41.01 0-40.68 37.92-40.68 38.52 0 7.76.19 16.53.75 25.32l6.72-.02c-.06-2.92 1.99-21.97 8.08-23.34C48 40.34 60.66 29.48 60.66 29.48c3.29 7.18 13.58 14.19 17.27 16.86 3.03 2.19 3.96 18.55 3.9 22.38h7.71c0-.05.02-.1.02-.16.56-8.75.74-17.46.74-25.17.01-.6 1.48-38.52-39.53-38.52z"/><path style="opacity:.74;fill:#423f3e;enable-background:new" d="M78.7 21.66H21.3V6.32s7.49-2.28 28.78-2.28c13.15 0 28.62 2.44 28.62 2.44v15.18z"/><path style="fill:#807978" d="M12 44.04H8c-2.21 0-4-1.79-4-4v-8c0-2.21 1.79-4 4-4h4c2.21 0 4 1.79 4 4v8c0 2.21-1.79 4-4 4zm80 0h-4c-2.21 0-4-1.79-4-4v-8c0-2.21 1.79-4 4-4h4c2.21 0 4 1.79 4 4v8c0 2.21-1.79 4-4 4z"/><path style="fill:#807978" d="M49.6 32.82c-13.33 0-31.06 6.41-39.1 10.97v9.88c7.55-6.43 22.78-11.47 39.1-11.47 16.5 0 29.01 6.26 39.82 11.62.05-2.14.36-10.19-.69-12.75-8.05-4.66-25.64-8.25-39.13-8.25z"/><linearGradient id="g" gradientUnits="userSpaceOnUse" x1="50" y1="123.627" x2="50" y2="76.458" gradientTransform="matrix(1 0 0 -1 0 128)"><stop offset="0" style="stop-color:#bdbdbd"/><stop offset="1" style="stop-color:#757575"/></linearGradient><path style="fill:url(#g)" d="M89.96 31.57a9.535 9.535 0 0 0-.68-3.12L81.47 9.1c-.58-1.18-1.64-2.18-3.03-3.04-.21-.13-.47.04-.47.29v9.07c0 .96-.78 1.75-1.73 1.75H23.75c-.96 0-1.73-.78-1.73-1.75V6.18c0-.18-.18-.29-.32-.2-1.46.88-2.57 1.91-3.17 3.13l-7.8 19.35c-.4 1-.63 2.05-.68 3.12L6 56.18s.02.15.08.38c.15.62.57 1.86 1.67 2.48 0 0 11.21-19.36 40.58-21.58 1.11-.08 2.23-.08 3.34 0 29.37 2.22 40.58 21.58 40.58 21.58 1.1-.62 1.52-1.86 1.67-2.48.06-.23.08-.38.08-.38l-4.04-24.61z"/><path style="fill:#807978" d="M67.59 28.06c-.55 0-1-.34-1-.76v-4.7c0-.42.45-.76 1-.76s1 .34 1 .76v4.7c0 .41-.45.76-1 .76zm-9.33 1.85c-.55 0-1-.34-1-.76v-8.4c0-.42.45-.76 1-.76s1 .34 1 .76v8.4c0 .41-.44.76-1 .76zM50 28.41c-.55 0-1-.34-1-.76v-5.4c0-.42.45-.76 1-.76s1 .34 1 .76v5.4c0 .42-.45.76-1 .76zm-17.59-.35c-.55 0-1-.34-1-.76v-4.7c0-.42.45-.76 1-.76s1 .34 1 .76v4.7c0 .41-.45.76-1 .76zm9.33 1.85c-.55 0-1-.34-1-.76v-8.4c0-.42.45-.76 1-.76s1 .34 1 .76v8.4c0 .41-.45.76-1 .76z"/><linearGradient id="h" gradientUnits="userSpaceOnUse" x1="50" y1="94.72" x2="50" y2="68.779" gradientTransform="matrix(1 0 0 -1 0 128)"><stop offset="0" style="stop-color:#bdbdbd"/><stop offset="1" style="stop-color:#757575"/></linearGradient><path style="fill:url(#h)" d="M7.75 59.04S19.28 38.95 50 37.35c30.72 1.6 42.25 21.69 42.25 21.69 1.1-.62 1.52-1.86 1.67-2.48-2.9-5.7-12.64-17.79-36.45-22.74-3.44-.72-11.33-.72-14.77 0C18.89 38.77 8.97 50.86 6.08 56.56c.15.62.57 1.86 1.67 2.48z"/></svg>