<svg xmlns="http://www.w3.org/2000/svg" viewBox="0 0 128 128" style="enable-background:new 0 0 128 128" xml:space="preserve"><path style="fill:#875b52" d="M13.63 58.55c-1.64.09-2.24.89-2.27 5.58-.02 2.76.26 56.44.18 57.65-.11 1.65 1.13 2.16 2.85 2.15.27 0 99.57-.18 99.78-.17 1.21.01 1.3-.95 1.38-2.59.09-1.64.96-60.95.96-61.9 0-.95 0-1.73-1.73-1.81-.46-.02-2.29.05-4.84-.03-3.29-.11-5.35-3.05-9.09-3.16-4.35-.14-10.18 2.56-10.18 2.56L69.31 30.02s-.01-6.39-.15-8.64c-.17-2.76-2.16-4.49-5.18-4.41-3.28.09-5.2 1.9-5.27 4.58-.09 3.11-.17 8.21-.17 8.21L36.42 58.02l-8.72 3.27s-5.37-2.7-9.87-2.73c-2.1-.03-3.83-.03-4.2-.01zm2.62-30.51 10.74 4.84 9.73-4.95s-2.19-2.65-2.14-2.99c.06-.34 3.25-1.73 3.2-6.91-.06-6.43-8.51-14.21-10.98-14.21S15.57 11.34 15.57 17.7c0 4.89 2.97 7.21 2.97 7.72 0 .5-2.29 2.62-2.29 2.62zm74.39-.11s2.58-2.65 2.58-3.06c0-1.01-3.55-2.03-3.25-7.97.29-5.8 8.67-13.44 11.13-13.39 2.57.05 10.98 8.41 10.83 13.9-.15 5.49-3.08 7.13-3.03 7.75.05.62 2.41 2.57 2.41 2.57s-12.67 6.52-12.72 6.36c-.05-.16-7.95-6.16-7.95-6.16z"/><path style="fill:#e4c5b0" d="M35.8 67.91s27.12-34.68 28.03-34.68c.91 0 27.51 32.47 27.51 32.47l.52 27.24-56.32-1.98.26-23.05z"/><path style="fill:#b79277" d="m16.42 123.94-.18-95.89 20.46-.11s.29 60.38.68 60.64c.4.26 52.37.4 52.76 0 .4-.4.48-60.65.48-60.65l20.68-.21-.57 96.07-94.31.15z"/><path style="fill:#e4c5b0" d="M20.12 62.87h13.35v32.01h-13.6zm74.41-2.35h13.1v32.76h-13.1zm-3.88-29.53 20.67-.02-.18 25.95-20.59-.23zm-74.39-.03 20.46-.03.18 26.5-20.59.15z"/><path style="fill:#69769c" d="M24.53 51.6V36.61h4.9V51.5c-.01 0-4.8.2-4.9.1zm.02 19.47 4.91-.13v15.2h-4.98zm74.36-35.69h4.98V50.7h-5.04zm-.13 33.36h4.72v15.13h-4.98c.01.01.46-15.13.26-15.13z"/><path style="fill:#865c50" d="M38.03 123.89s.03-20.01.11-22.6c.07-2.24 1.26-6.99 7.41-6.99 6.01 0 7.06 4.41 7.06 7.2 0 2.24.03 22.42.03 22.42l-14.61-.03zm19.38-.06s-.22-19.6-.13-22.33c.14-3.92 2.18-7.46 7.15-7.59 5.31-.14 7.54 3.54 7.68 7.1s.19 22.82.19 22.82-14.89-.03-14.89 0zm19.36 0s-.07-20.21-.07-22.51c0-2.8 2.1-7.27 6.99-7.27 5.31 0 7.34 4.06 7.34 7.34s.04 22.44.04 22.44h-14.3z"/><path style="fill:#504644" d="M63.44 50.34c-9.04.15-17.31 6.61-17.4 18-.08 10.18 7.82 17.4 18 17.55 11.32.17 17.93-7.98 18-18.08.09-9.65-6.9-17.67-18.6-17.47z"/><path style="fill:#ff8c02" d="M65.39 84.69c-.31.56-1.26.63-1.59.08L49.29 61.35c-.65-1.21-.13-2.69.35-2.68l27.85.13c.5 0 1.5.77.56 2.95L65.39 84.69zM54.02 61.36l10.49 17.33 9.59-17.23-20.08-.1z"/><path style="fill:#ff8c02" d="m49.14 76.07 14.8-23.23 14.78 23.07c.19.32.38 1.6-.69 1.64l-28 .21c-1.14-.19-1.06-1.39-.89-1.69zm14.81-19.31L53.94 73.84l20.29-.06-10.28-17.02z"/><path style="fill:#ffd324" d="m64.09 83.26-14.74-23.8c-.25-.4.04-.92.51-.91l27.75.17c.5 0 .81.54.57.97L65.13 83.23a.6.6 0 0 1-1.04.03zm-11.7-22.69 12.15 19.62 10.8-19.47-22.95-.15z"/><path style="fill:#ffd324" d="m49.19 75.91 14.27-24.2c.18-.3.62-.3.8 0l14.33 24.02c.18.31-.04.7-.39.7l-28.6.18c-.37 0-.59-.39-.41-.7zm14.28-20.28L52.7 73.89c-.18.31.04.7.4.7l21.58-.13c.36 0 .58-.39.39-.7L64.26 55.63a.46.46 0 0 0-.79 0z"/></svg>