<svg xmlns="http://www.w3.org/2000/svg" viewBox="0 0 128 128" style="enable-background:new 0 0 128 128" xml:space="preserve"><path style="fill:#37474f" d="M42.04 114.98c3.78-3.56 7.55-7.12 11.33-10.68a23.153 23.153 0 0 0-8.48-3.22c-1.25-.21-2.58-.3-3.73.21-1.89.84-2.76 3.02-3.24 5.03a29.65 29.65 0 0 0-.8 6.7"/><path style="fill:#a65f3e" d="m25.61 92.32 1.24 15c.05.81.46 1.57 1.14 2.02 5.19 3.51 10.22 5.26 12.72 5.98.83.24 1.64-.39 1.64-1.25V101.9l-16.74-9.58z"/><path style="fill:#de7340" d="M31.73 68.61c-.93 6.07-8.31 15.7-4.8 25.07 1.91 5.1 14.83 8.85 22.42 13.99 5.48 3.71 16.03 12.89 23.46 14.91 7.68 2.1 11.85 1.67 24.23-1.02 12.4-2.69 12.55-10.77 12.55-10.77s-.38-8.32-3.36-10.79c-5.04-4.19-10.42-3.58-14.59-5.78-5.62-2.96-13.09-13.08-18.7-24.29s2.19-56.31 2.19-56.31L30.1 7.6s2.56 54.94 1.63 61.01z"/><path style="fill:#a65f3e" d="M109.59 110.8s-4.45 4.59-13.4 6.81c0 0-12 3.88-22.31 1.07-4.78-1.3-11.86-6.64-17.03-10.54-2.01-1.51-3.74-2.82-5.22-3.82-3.08-2.08-6.76-3.92-10.38-5.6C26.63 91.91 26.08 88.77 26 87.8c0 0-1.44 1.94 0 5.72 1.93 5.09 15.77 9.01 23.37 14.15 5.48 3.71 16.2 12.36 23.46 14.91 8.38 2.95 19.63.55 23.18-.48 11.66-3.38 13.96-6.05 14.57-8.74.43-2.01-.99-2.56-.99-2.56z"/><path style="fill:#f29657" d="M40.06 77.44c-.92 1.77-1.84 3.55-2.76 5.32-.38.73-.78 1.49-1.38 2.01s-1.49.76-2.16.35c-.82-.5-1.03-1.68-1.04-2.71-.06-3.83 1.06-10.26 4.21-12.61 1.49-1.11 3.21-.6 4.14 1.12 1.13 2.13-.02 4.62-1.01 6.52zm45.81 37.01c-4.8-1.19-3.33-4.89.36-5.72 3.15-.71 5.65.56 11.21-1.21 3.39-1.08 4.84 1.78 2.83 3.26-4.52 3.32-11.37 4.42-14.4 3.67z"/><path style="fill:#263238" d="M31.09 6.33c1.5-2.35 10.13-2.73 22.34-.99S73.61 9 74.41 12.44c.88 3.78-8.3 3.7-19.28 3.05-5.33-.32-6.9 3.17-6.9 3.17s-1.25-4.37-3.59-4.87C35.8 11.9 29.28 9.17 31.09 6.33z"/><path style="fill:#874d36" d="m46.06 79.46-1.65-.53c-.6-.19-.94-.83-.76-1.43.62-2.07 1.95-6.63 2.52-9.39.89-4.31.9-46.14.07-49.45h3.99c.93 7.47.58 45.14-.07 49.98-.38 2.84-1.93 7.87-2.65 10.08-.19.6-.84.93-1.45.74z"/><path style="fill:#ffb685" d="M40.97 4c-4.65 0-8.89.56-10.55 2.4-1.48 2.33 2.5 4.18 4.07 4.77 8.55 3.21 11.01 2.37 11.75 7.47.13.91.9 1.47 1.84 1.47.29 0 .6-.05.91-.17 2.54-.92 1.46-3.85 7.79-3.85.34 0 .71.01 1.09.03 3.04.14 6.08.34 8.75.34 5 0 8.68-.69 8.5-3.76-.27-4.81-9.1-5.99-21.7-7.78C50.17 4.51 45.39 4 40.97 4zm7.59 12.84s-.82-3.04-3.79-4.24c-1.89-.76-10.09-3.6-11.09-4.54-1.88-1.78 2.39-1.95 7.34-1.96h.06c12.91 0 29.35 2.57 31.5 5.53.78 1.07-1.2 2.86-6.19 2.86-.43 0-.88-.01-1.36-.04-3.07-.18-6.14-.45-9.22-.58-.28-.01-.55-.02-.8-.02-5.9.01-6.45 2.99-6.45 2.99z"/><path style="fill:#f2aa7b" d="M39.92 4.26z"/><path style="fill:#3e2723" d="m46.65 25.02-.09-2.4 3.71-3.54.17 2.23z"/><path style="fill:#874d36" d="m49.5 20.79-4.14 3.79c-.82.75-2.12.51-2.62-.48l-1.5-2.98c-.52-1.03.14-2.26 1.28-2.4l5.82-.54c.64-.06 1.25.29 1.52.88.27.58.13 1.29-.36 1.73z"/></svg>