<svg xmlns="http://www.w3.org/2000/svg" viewBox="0 0 128 128" style="enable-background:new 0 0 128 128" xml:space="preserve"><path style="fill:#c33" d="M116 4H12c-4.42 0-8 3.58-8 8v104c0 4.42 3.58 8 8 8h104c4.42 0 8-3.58 8-8V12c0-4.42-3.58-8-8-8z"/><path style="fill:#f44336" d="M109.7 4H11.5A7.555 7.555 0 0 0 4 11.5v97.9c-.01 4.14 3.34 7.49 7.48 7.5h98.12c4.14.01 7.49-3.34 7.5-7.48V11.5c.09-4.05-3.13-7.41-7.18-7.5h-.22z"/><path style="fill:#ff8a80" d="M39.7 12.9c0-2.3-1.6-3-10.8-2.7-7.7.3-11.5 1.2-13.8 4s-2.9 8.5-3 15.3c0 4.8 0 9.3 2.5 9.3 3.4 0 3.4-7.9 6.2-12.3 5.4-8.7 18.9-10.6 18.9-13.6z"/><g style="opacity:.2"><path style="fill:#424242" d="M88.3 22c1.05 0 1.9.85 1.9 1.9v4.8c0 1.05.85 1.9 1.9 1.9h9c1.05 0 1.9.85 1.9 1.9v3.6a1.9 1.9 0 0 1-1.9 1.9h-9a1.9 1.9 0 0 0-1.9 1.9v4.8c0 1.05.85 1.9 1.9 1.9h11.6c1.05 0 1.9.85 1.9 1.9v3.8a1.9 1.9 0 0 1-1.9 1.9H80.8a1.9 1.9 0 0 0-1.9 1.9v2.8c0 1.05.85 1.9 1.9 1.9H101c1.05 0 1.9.85 1.9 1.9v34.5c0 3.9-.7 6.1-3.5 7.3-2.5 1-6.2 1.1-11.8 1.1-.91.01-1.7-.62-1.9-1.5-.2-1-.5-2-.8-3a1.91 1.91 0 0 1 1.8-2.5h.1c3.1.1 5.7.1 6.6.1 1.2 0 1.6-.4 1.6-1.5V70.4a1.9 1.9 0 0 0-1.9-1.9H79.8a1.9 1.9 0 0 0-1.9 1.9v12.9c0 1.05.85 1.9 1.9 1.9h2.4a1.9 1.9 0 0 0 1.9-1.9v-8.5c0-1.05.85-1.9 1.9-1.9h1.5c1.05 0 1.9.85 1.9 1.9v18.6a1.9 1.9 0 0 1-1.9 1.9H86a1.9 1.9 0 0 1-1.9-1.9 1.9 1.9 0 0 0-1.9-1.9H67.5a1.9 1.9 0 0 0-1.9 1.9v1.7a1.9 1.9 0 0 1-1.9 1.9h-1.5a1.9 1.9 0 0 1-1.9-1.9V74.8c0-1.05.85-1.9 1.9-1.9h1.5c1.05 0 1.9.85 1.9 1.9v8.5c0 1.05.85 1.9 1.9 1.9h2a1.9 1.9 0 0 0 1.9-1.9V70.4a1.9 1.9 0 0 0-1.9-1.9H57a1.9 1.9 0 0 0-1.9 1.9V104a1.9 1.9 0 0 1-1.9 1.9h-3.8a1.9 1.9 0 0 1-1.9-1.9V62.9c0-1.05.85-1.9 1.9-1.9h19.2a1.9 1.9 0 0 0 1.9-1.9v-2.8a1.9 1.9 0 0 0-1.9-1.9H46.1a1.9 1.9 0 0 1-1.9-1.9v-3.8c0-1.05.85-1.9 1.9-1.9h11.5a1.9 1.9 0 0 0 1.9-1.9V40a1.9 1.9 0 0 0-1.9-1.9H49a1.9 1.9 0 0 1-1.9-1.9v-3.6c0-1.05.85-1.9 1.9-1.9h8.6a1.9 1.9 0 0 0 1.9-1.9V24c0-1.05.85-1.9 1.9-1.9h4.1c1.05 0 1.9.85 1.9 1.9v4.8c0 1.05.85 1.9 1.9 1.9h10.6a1.9 1.9 0 0 0 1.9-1.9V24c0-1.05.85-1.9 1.9-1.9l4.6-.1M69.5 46.6h10.6a1.9 1.9 0 0 0 1.9-1.9V40a1.9 1.9 0 0 0-1.9-1.9H69.5a1.9 1.9 0 0 0-1.9 1.9v4.8a1.814 1.814 0 0 0 1.9 1.8M31.4 23.4c.28.01.55.07.8.2 4.58 2.11 8.91 4.72 12.9 7.8a2 2 0 0 1 .3 2.7l-2.8 3.6a1.829 1.829 0 0 1-2.7.2c-3.69-3-7.68-5.61-11.9-7.8a1.882 1.882 0 0 1-.6-2.9l2.6-3.1c.3-.48.84-.75 1.4-.7m-4.8 24.5c.24-.02.48.02.7.1 4.78 1.74 9.37 3.95 13.7 6.6.87.54 1.14 1.67.61 2.55-.03.05-.07.11-.11.15l-2.7 4c-.39.49-.97.79-1.6.8-.41.02-.8-.12-1.1-.4a64.381 64.381 0 0 0-12.6-6.8c-1-.46-1.44-1.65-.97-2.66.02-.05.05-.1.07-.14l2.3-3.4c.44-.48 1.05-.77 1.7-.8m12.7 23.8c.43-.01.86.13 1.2.4l3.6 2.7c.72.52.98 1.49.6 2.3-3.7 8.6-8.2 18-12.3 25.9a1.75 1.75 0 0 1-1.7 1c-.39-.01-.76-.11-1.1-.3l-4.3-2.9a1.931 1.931 0 0 1-.6-2.6c3.8-6.6 8.8-16.3 12.9-25.4.33-.65.98-1.07 1.7-1.1"/></g><path style="fill:#fafafa" d="M36.2 61.8A64.381 64.381 0 0 0 23.6 55c-1-.46-1.44-1.65-.97-2.66.02-.05.05-.1.07-.14l2.3-3.4c.53-.72 1.46-1 2.3-.7 4.78 1.74 9.37 3.95 13.7 6.6.87.54 1.14 1.67.61 2.55-.03.05-.07.11-.11.15l-2.7 4c-.61.83-1.77 1.01-2.6.4zM24.7 98.3c4.69-8.25 8.96-16.72 12.8-25.4a2.004 2.004 0 0 1 2.9-.8l3.6 2.7c.72.52.98 1.49.6 2.3-3.7 8.6-8.2 18-12.3 25.9-.55.96-1.77 1.29-2.73.74-.02-.01-.05-.03-.07-.04l-4.3-2.9a2 2 0 0 1-.5-2.5zm15.1-60.4c-3.69-3-7.68-5.61-11.9-7.8a1.882 1.882 0 0 1-.6-2.9l2.6-3.1c.55-.69 1.51-.9 2.3-.5 4.58 2.11 8.91 4.72 12.9 7.8a2 2 0 0 1 .3 2.7l-2.8 3.6c-.75.76-1.95.84-2.8.2zm39 18.4v2.8c0 1.05.85 1.9 1.9 1.9H101c1.05 0 1.9.85 1.9 1.9v34.5c0 3.9-.7 6.1-3.5 7.3-2.5 1-6.2 1.1-11.8 1.1-.91.01-1.7-.62-1.9-1.5-.2-1-.5-2-.8-3-.35-.97.15-2.04 1.12-2.39.25-.09.51-.13.78-.11 3.1.1 5.7.1 6.6.1 1.2 0 1.6-.4 1.6-1.5v-27a1.9 1.9 0 0 0-1.9-1.9H79.8a1.9 1.9 0 0 0-1.9 1.9v12.9c0 1.05.85 1.9 1.9 1.9h2.4a1.9 1.9 0 0 0 1.9-1.9v-8.5c0-1.05.85-1.9 1.9-1.9h1.5c1.05 0 1.9.85 1.9 1.9v18.6a1.9 1.9 0 0 1-1.9 1.9H86a1.9 1.9 0 0 1-1.9-1.9 1.9 1.9 0 0 0-1.9-1.9H67.5a1.9 1.9 0 0 0-1.9 1.9v1.7a1.9 1.9 0 0 1-1.9 1.9h-1.5a1.9 1.9 0 0 1-1.9-1.9V74.8c0-1.05.85-1.9 1.9-1.9h1.5c1.05 0 1.9.85 1.9 1.9v8.5c0 1.05.85 1.9 1.9 1.9h2a1.9 1.9 0 0 0 1.9-1.9V70.4a1.9 1.9 0 0 0-1.9-1.9H57a1.9 1.9 0 0 0-1.9 1.9V104a1.9 1.9 0 0 1-1.9 1.9h-3.8a1.9 1.9 0 0 1-1.9-1.9V62.9c0-1.05.85-1.9 1.9-1.9h19.2a1.9 1.9 0 0 0 1.9-1.9v-2.8a1.9 1.9 0 0 0-1.9-1.9H46.1a1.9 1.9 0 0 1-1.9-1.9v-3.8c0-1.05.85-1.9 1.9-1.9h11.5a1.9 1.9 0 0 0 1.9-1.9V40a1.9 1.9 0 0 0-1.9-1.9H49a1.9 1.9 0 0 1-1.9-1.9v-3.6c0-1.05.85-1.9 1.9-1.9h8.6a1.9 1.9 0 0 0 1.9-1.9V24c0-1.05.85-1.9 1.9-1.9h4.1c1.05 0 1.9.85 1.9 1.9v4.8c0 1.05.85 1.9 1.9 1.9h10.6a1.9 1.9 0 0 0 1.9-1.9V24c0-1.05.85-1.9 1.9-1.9H88c1.05 0 1.9.85 1.9 1.9v4.8c0 1.05.85 1.9 1.9 1.9h9c1.05 0 1.9.85 1.9 1.9v3.6a1.9 1.9 0 0 1-1.9 1.9h-9a1.9 1.9 0 0 0-1.9 1.9v4.8c0 1.05.85 1.9 1.9 1.9h11.6c1.05 0 1.9.85 1.9 1.9v3.8a1.9 1.9 0 0 1-1.9 1.9H80.7c-1.07.05-1.9.93-1.9 2zm-9.3-9.7h10.6a1.9 1.9 0 0 0 1.9-1.9v-4.8a1.9 1.9 0 0 0-1.9-1.9H69.5a1.9 1.9 0 0 0-1.9 1.9v4.8c-.03 1.02.76 1.87 1.78 1.9h.12z"/></svg>