<svg xmlns="http://www.w3.org/2000/svg" viewBox="0 0 1000 1000"><path fill="#00247d" d="M8 195.25c170.83-85.22 341.03-54.42 513.26-27.97 155.21 23.84 312.16 44.57 470.74-34.53v672c-170.83 85.22-341.03 54.42-513.26 27.97C323.53 808.88 166.58 788.15 8 867.25v-672"/><path fill="#fff" d="M8 195.25a522.336 522.336 0 0 1 55.01-23.64c63.03 20.3 126.03 54.42 190.99 98.17 63.04-43.59 126.06-79.31 190.99-114.15L500 164v37.57c-63.04 33.29-126.06 66.47-190.99 107.14 63.01 46.6 126.04 99.32 190.99 153.72V500l-55.01-8.37C381.98 439.37 318.94 388.71 254 344.91c-63.03 43.64-126.07 94.93-190.99 162.7-18.16 6.59-36.3 14.3-55.01 23.64v-37.57C71.05 419.16 134.05 360.26 198.99 310c-63-37.29-126.07-65.25-190.99-77.18v-37.57"/><path fill="#cc142b" d="M8 195.25C89.19 210.18 170.33 251 254 307.34c-12.1.12-24.2.51-36.67 1.27C148.29 265.74 79.15 233.38 8 220.29v-25.04m246 112.09V282.3c69.1-47.77 138.16-86.08 209.33-123.93L500 164c-81.19 42.88-162.39 85.54-246 143.34m246 167.62V500c-81.14-67.98-162.35-136.23-246-192.66 12.1-.1 24.2.08 36.67.52 69.07 49.71 138.15 107.46 209.33 167.1M254 307.34v25.05c-69.09 47.83-138.18 104.85-209.33 182.26A530.33 530.33 0 0 0 8 531.25c81.2-95.98 162.36-165.99 246-223.91"/><path fill="#fff" d="M295 140.03v112c67.66 2.82 135.29 13.18 205 23.97v112c-67.64-10.47-135.31-21.06-205-23.97v112c-27.06-1.1-54.12-1.02-82 .86v-112c-67.64 4.66-135.32 19.6-205 54.36v-112c67.69-33.77 135.27-49.56 205-54.36v-112c27.07-1.82 54.12-1.99 82-.86"/><path fill="#cc142b" d="M278.6 139.51v134.4c73.07 1.67 146.11 12.83 221.4 24.49v67.2c-73.04-11.31-146.14-22.77-221.4-24.49v134.4c-16.24-.35-32.47-.24-49.2.47v-134.4C156.36 344.79 83.25 359.31 8 396.85v-67.2c73.11-36.47 146.09-51.95 221.4-55.27v-134.4c16.24-.69 32.47-.83 49.2-.47"/><path fill="#fff" d="M746 306.54v25.42l37.23-26.73c-12.29.76-24.57 1.18-37.23 1.31"/><path fill="#fff" d="m753.11 336.33-10.94-20.45a793.36 793.36 0 0 0 41.06-10.65l-30.12 31.1"/><path fill="#fff" d="M746 306.54v25.42l-37.23-25.97c12.29.45 24.57.65 37.23.55"/><path fill="#fff" d="m738.89 336.45 10.94-20.64c-13.55-2.89-27.1-6.14-41.06-9.82l30.12 30.46"/><path fill="#fff" d="m757.5 317.76-17.7 8.08 29.21 39.9-11.51-47.98"/><path fill="#fff" d="m738.89 336.45 10.94-20.64 19.18 49.93-30.12-29.29"/><path fill="#fff" d="m734.5 317.97 17.7 7.76-6.2-56.14-11.5 48.38"/><path fill="#fff" d="m757.5 317.76-17.7 8.08 6.2-56.25 11.5 48.17"/><path fill="#fff" d="m734.5 317.97 17.7 7.76-29.21 40.45 11.51-48.21"/><path fill="#fff" d="m753.11 336.33-10.94-20.45-19.18 50.3 30.12-29.85"/><path fill="#cc142b" d="M746 312.14v16.8l24.6-17.44-24.6.64"/><path fill="#cc142b" d="m750.7 331.83-7.23-13.51 27.13-6.82-19.9 20.33"/><path fill="#cc142b" d="M746 312.14v16.8l-24.6-16.97 24.6.17"/><path fill="#cc142b" d="m741.3 331.92 7.23-13.65-27.13-6.3 19.9 19.95"/><path fill="#cc142b" d="m753.6 319.58-11.7 5.32 19.3 26.45-7.6-31.77"/><path fill="#cc142b" d="m741.3 331.92 7.23-13.65 12.67 33.08-19.9-19.43"/><path fill="#cc142b" d="m738.4 319.71 11.7 5.12-4.1-37.1-7.6 31.98"/><path fill="#cc142b" d="m753.6 319.58-11.7 5.32 4.1-37.17 7.6 31.85"/><path fill="#cc142b" d="m738.4 319.71 11.7 5.12-19.3 26.79 7.6-31.91"/><path fill="#cc142b" d="m750.7 331.83-7.23-13.51-12.67 33.3 19.9-19.79"/><path fill="#fff" d="M843.44 416.03v22.62c10.93-9.27 21.86-18.86 33.13-29.12a565.57 565.57 0 0 1-33.13 6.5"/><path fill="#fff" d="m849.77 441.54-9.74-16.67c12.06-4.65 24.11-9.69 36.54-15.34l-26.8 32.01"/><path fill="#fff" d="M843.44 416.03v22.62a856.719 856.719 0 0 1-33.13-18.17c10.94-1.16 21.87-2.61 33.13-4.45"/><path fill="#fff" d="m837.12 443.63 9.73-19.88c-12.06-.69-24.11-1.77-36.54-3.27l26.81 23.15"/><path fill="#fff" d="m853.68 424.4-15.75 9.65 25.99 31.41-10.24-41.06"/><path fill="#fff" d="m837.12 443.62 9.73-19.87 17.07 41.71-26.8-21.84"/><path fill="#fff" d="m833.21 427.77 15.75 4.47-5.52-49.09-10.23 44.62"/><path fill="#fff" d="m853.68 424.4-15.75 9.65 5.51-50.9 10.24 41.25"/><path fill="#fff" d="m833.21 427.77 15.75 4.47-25.99 39.96 10.24-44.43"/><path fill="#fff" d="m849.77 441.54-9.74-16.67-17.06 47.33 26.8-30.66"/><path fill="#cc142b" d="M843.44 421.63v14l20.5-17.77c-6.76 1.37-13.53 2.62-20.5 3.77"/><path fill="#cc142b" d="m847.36 437.43-6.03-10.33c7.46-2.89 14.92-5.93 22.61-9.24l-16.58 19.57"/><path fill="#cc142b" d="M843.44 421.63v14l-20.5-11.01 20.5-2.99"/><path fill="#cc142b" d="m839.53 438.72 6.02-12.31c-7.46-.44-14.92-1.03-22.61-1.79l16.59 14.1"/><path fill="#cc142b" d="m849.78 426.84-9.75 5.95 16.08 19.52-6.33-25.47"/><path fill="#cc142b" d="m839.53 438.72 6.02-12.31 10.56 25.9-16.58-13.59"/><path fill="#cc142b" d="m837.11 428.92 9.75 2.75-3.42-30.38-6.33 27.63"/><path fill="#cc142b" d="m849.78 426.84-9.75 5.95 3.41-31.5 6.34 25.55"/><path fill="#cc142b" d="m837.11 428.92 9.75 2.75-16.09 24.81 6.34-27.56"/><path fill="#cc142b" d="m847.36 437.43-6.03-10.33-10.56 29.38 16.59-19.05"/><path fill="#fff" d="M632.32 456.5v25.42l37.23-21.97-37.23-3.45"/><path fill="#fff" d="m639.43 487.13-10.94-21.73 41.05-5.45-30.11 27.18"/><path fill="#fff" d="M632.32 456.5v25.42l-37.23-29.87 37.23 4.45"/><path fill="#fff" d="m625.21 485.6 10.94-19.38-41.06-14.17 30.12 33.55"/><path fill="#fff" d="m643.82 469.1-17.7 5.99 29.21 43.45-11.51-49.44"/><path fill="#fff" d="m625.21 485.6 10.94-19.38 19.18 52.32-30.12-32.94"/><path fill="#fff" d="m620.81 466.63 17.71 9.79-6.2-56.87-11.51 47.08"/><path fill="#fff" d="m643.82 469.1-17.7 5.99 6.2-55.54 11.5 49.55"/><path fill="#fff" d="m620.81 466.63 17.71 9.79-29.21 37.2 11.5-46.99"/><path fill="#fff" d="m639.43 487.13-10.94-21.73-19.18 48.22 30.12-26.49"/><path fill="#cc142b" d="M632.32 462.1v16.8l24.6-14.39-24.6-2.41"/><path fill="#cc142b" d="m637.02 482.35-7.23-14.37 27.13-3.47-19.9 17.84"/><path fill="#cc142b" d="M632.32 462.1v16.8l-24.6-19.65 24.6 2.85"/><path fill="#cc142b" d="m627.62 481.34 7.23-12.81-27.13-9.28 19.9 22.09"/><path fill="#cc142b" d="m639.92 470.44-11.7 3.95 19.3 28.76-7.6-32.71"/><path fill="#cc142b" d="m627.62 481.34 7.23-12.81 12.67 34.62-19.9-21.81"/><path fill="#cc142b" d="m624.72 468.81 11.69 6.46-4.09-37.58-7.6 31.12"/><path fill="#cc142b" d="m639.92 470.44-11.7 3.95 4.1-36.7 7.6 32.75"/><path fill="#cc142b" d="m624.72 468.81 11.69 6.46-19.3 24.62 7.61-31.08"/><path fill="#cc142b" d="m637.02 482.35-7.23-14.37-12.68 31.91 19.91-17.54"/><path fill="#fff" d="M746 707.92v28.22c13.64-9.44 27.27-19.24 41.33-29.79-13.64.92-27.28 1.43-41.33 1.57"/><path fill="#fff" d="m753.89 740.98-12.14-22.69c15.04-3.47 30.08-7.37 45.58-11.94l-33.44 34.63"/><path fill="#fff" d="M746 707.92v28.22l-41.33-28.93c13.64.56 27.28.82 41.33.71"/><path fill="#fff" d="m738.11 741.13 12.14-22.92c-15.04-3.2-30.08-6.84-45.58-11l33.44 33.92"/><path fill="#fff" d="m758.77 720.37-19.65 8.97 32.42 44.26-12.77-53.23"/><path fill="#fff" d="m738.11 741.13 12.14-22.92 21.29 55.39-33.43-32.47"/><path fill="#fff" d="m733.23 720.6 19.65 8.62L746 666.9l-12.77 53.7"/><path fill="#fff" d="m758.77 720.37-19.65 8.97L746 666.9l12.77 53.47"/><path fill="#fff" d="m733.23 720.6 19.65 8.62-32.42 44.86 12.77-53.48"/><path fill="#fff" d="m753.89 740.98-12.14-22.69-21.29 55.79 33.43-33.1"/><path fill="#cc142b" d="M746 713.52v19.6l28.7-20.42c-9.47.46-18.94.73-28.7.82"/><path fill="#cc142b" d="m751.48 736.49-8.43-15.76c10.44-2.43 20.89-5.07 31.65-8.03l-23.22 23.79"/><path fill="#cc142b" d="M746 713.52v19.6l-28.7-19.87c9.47.25 18.94.35 28.7.27"/><path fill="#cc142b" d="m740.52 736.59 8.43-15.92a871.868 871.868 0 0 1-31.65-7.42l23.22 23.34"/><path fill="#cc142b" d="m754.87 722.19-13.65 6.22 22.52 30.82-8.87-37.04"/><path fill="#cc142b" d="m740.52 736.59 8.43-15.92 14.79 38.56-23.22-22.64"/><path fill="#cc142b" d="m737.13 722.35 13.65 5.97-4.78-43.28-8.87 37.31"/><path fill="#cc142b" d="m754.87 722.19-13.65 6.22 4.78-43.37 8.87 37.15"/><path fill="#cc142b" d="m737.13 722.35 13.65 5.97-22.52 31.24 8.87-37.21"/><path fill="#cc142b" d="m751.48 736.49-8.43-15.76-14.79 38.83 23.22-23.07"/><path fill="#1A1A1A" opacity=".2" d="M8 195.25c170.83-85.22 341.03-54.42 513.26-27.97 155.21 23.84 312.16 44.57 470.74-34.53v672c-170.83 85.22-341.03 54.42-513.26 27.97C323.53 808.88 166.58 788.15 8 867.25v-672m31.25 19.39v604.5c306.56-128.26 611.18 96.04 921.5-33.78v-604.5c-306.56 128.26-611.18-96.04-921.5 33.78"/></svg>