<svg xmlns="http://www.w3.org/2000/svg" viewBox="0 0 1000 1000"><path fill="red" d="M8 195.25c170.83-85.22 341.03-54.42 513.26-27.97 155.21 23.84 312.16 44.57 470.74-34.53v672c-170.83 85.22-341.03 54.42-513.26 27.97C323.53 808.88 166.58 788.15 8 867.25v-672"/><path fill="#060" d="M8 195.25c130.03-64.87 259.66-62.82 393.6-45.62v672C272 804.99 141.49 800.66 8 867.25v-672"/><path fill="#ff0" d="M529.91 608.83c-40.27-7.71-216.41-138.65-264.07-181.77-8.86-8.01-13.89-13.94-14.22-17.4l12.55-21.48c17.96 26.33 259.05 201.72 277.6 200.9l-11.86 19.75"/><path d="M530.13 609.32c-.1.03-.18.03-.3-.02-11.81-2.3-33.09-13.54-64.29-33.88-27.67-18.1-58.68-40.3-93.01-65.51-33.16-24.36-61.16-45.26-84.01-63.34-24.64-19.54-36.75-31-37.37-36.87 0-.1.02-.19.07-.28l12.54-21.49c.19-.27.36-.32.65-.16.06.04.1.08.15.14 5.43 7.96 21.8 21.63 49.55 42.96l89 66.76c33.95 25.11 63.63 46.65 89.04 63.7 27.84 18.62 44.08 27.46 49.52 27.26a.6.6 0 0 1 .37.1c.09.08.15.19.19.36.02.12.01.22-.05.33l-11.81 19.67c-.04.16-.11.23-.24.27m-.49-1.02 11.26-18.75c-6.43-.73-22.65-9.68-49.17-27.43-25.43-17.06-55.13-38.61-89.11-63.72l-89.05-66.77c-27.14-20.85-43.47-34.44-49.37-42.57l-12.1 20.71c.81 5.62 12.79 16.85 36.97 36.04 22.84 18.08 50.81 38.98 83.95 63.33 34.31 25.21 65.29 47.39 92.94 65.48 30.87 20.14 51.96 31.31 63.68 33.68"/><path fill="#ff0" d="M397.49 495.44c-77.21-57.84-139.85-98.23-135.96-110.17l.26-.55 1.93-3.44h.22c-.04 1.66.38 3.59.99 4.79 8.98 15.84 67.11 55.95 134.17 106.14 67.18 50.25 120.9 84.72 141.65 94.03 3.67 1.52 5.52 1.4 6.64.16.01.07-1.26 2.33-1.96 3.49l-.25.42c-5.67 3.48-70.28-36.9-147.69-94.87m128.21 114.7c-18.68-5.11-74.43-42.45-141.31-91.39-78.02-57.08-140.76-98.91-134.43-110.14l1.89-3.45.37.12c-4.25 15.14 101.37 86.52 128.79 106.26l5.2 3.77c77.3 58.27 140.49 97.67 146.95 91.03l-2.08 3.35h-.01c-.99 1.38-2.28 1.24-5.37.45"/><path d="M261.09 385.1a.31.31 0 0 1 .06-.13l.22-.46.02-.03 1.92-3.44c.11-.17.22-.24.42-.24h.24c.16.02.26.06.34.15.07.09.1.2.1.36-.06 1.78.23 3.18.92 4.53 7.42 13.09 51.75 44.4 134.01 105.99 30.93 23.14 60.3 44.22 88.11 62.54 23.88 15.68 41.67 26.14 53.43 31.43 3.36 1.4 5.04 1.46 6.12.27.09-.11.18-.15.32-.16.25.01.39.11.51.35.04.1.05.19.04.29-.01.05-.02.12-.05.19a3.7 3.7 0 0 1-.15.33c-.12.23-.3.55-.54.97l-1.29 2.15-.25.41c-.03.05-.07.09-.11.12-3.12 1.86-18.46-5.88-47.43-24.22-31.41-19.95-65.01-43.86-100.81-70.68l-98.42-72.4c-27.36-20.57-39.6-32.3-37.73-38.32m270.36 224.94c-.94 1.18-2.55 1.36-5.81.57-9.4-2.59-26.92-12.24-52.8-29.13-26.06-17.06-55.63-38.15-88.69-62.34l-98.88-72.39c-27.27-20.84-38.89-32.53-35.71-38.39l1.88-3.43c.14-.23.29-.29.55-.23l.37.12c.15.05.24.11.3.22.05.1.05.22.01.37v.01c-3.56 11.99 39.09 41.29 128.58 105.73l5.21 3.78c36.82 27.77 70.14 51.48 100.01 69.96 28.27 17.42 43.17 24.18 46.32 21.1.21-.22.39-.21.66.02.21.23.24.4.11.64l-2.08 3.35c-.01.01-.02.03-.03.04M261.96 385.47c-1.62 5.56 10.49 16.94 37.39 37.18l98.38 72.41c35.77 26.8 69.34 50.7 100.72 70.63 28.38 17.98 43.38 25.71 46.36 24.24l.21-.35 1.07-1.77c-1.38.23-3.05-.09-5.47-1.13-11.81-5.31-29.65-15.8-53.58-31.51-27.84-18.33-57.24-39.43-88.19-62.58-82.4-61.67-126.84-93.05-134.33-106.28-.59-1.11-.92-2.26-1.04-3.63l-1.27 2.27-.25.52m268.71 223.92c.01-.02.02-.05.04-.06l1.11-1.79c-5.62.74-20.56-6.32-45.74-21.83-29.9-18.5-63.27-42.24-100.12-70.02l-5.18-3.77c-86.3-62.11-128.96-91.71-129.24-105.21l-1.17 2.13s-.01.01-.01.02c-2.87 5.32 8.65 16.62 35.45 37.12l98.82 72.39c33.04 24.18 62.58 45.27 88.62 62.31 25.79 16.82 43.2 26.43 52.5 28.99 2.87.7 4.23.61 4.92-.28"/><path fill="#ff0" d="M401.88 433.97c-57.29-7.58-101.64-14.8-145.17-33.36l7.16-13.45c23.61 16.15 70.78 24.29 137.59 33.53 56.76 6.1 117.68 8.46 138.83-.15l7.59 13.76c-35.35 9.05-96.3 5.64-146-.33"/><path d="M401.93 434.45h-.05c-31.44-4.16-57.38-8.17-77.83-12.52-24.61-5.28-47.08-12.17-67.53-20.88-.01 0-.02-.01-.04-.02-.14-.08-.21-.16-.25-.27-.03-.12-.01-.23.06-.38l7.17-13.46c0-.01.01-.02.02-.03.09-.14.18-.21.29-.23.12-.02.22.01.36.1 21.54 14.73 67.25 23.75 137.33 33.45 29.59 3.18 57.15 5.25 82.73 5.58 27.35.29 45.8-1.61 55.87-5.71.28-.1.45-.02.63.27l7.59 13.76c.01.02.02.05.03.08.06.16.06.28.02.38-.05.1-.13.16-.28.2-16.67 4.28-39.15 6.08-67.72 5.56-25.25-.51-51.37-2.63-78.4-5.88m-.05-.96c27.01 3.24 53.1 5.36 78.33 5.86 28.2.52 50.43-1.23 66.97-5.39l-7.06-12.81c-10.26 4.03-28.69 5.9-55.8 5.61-25.62-.32-53.22-2.4-82.85-5.59h-.01c-69.81-9.65-115.56-18.67-137.42-33.32l-6.67 12.52c20.24 8.59 42.47 15.39 66.81 20.62 20.4 4.34 46.28 8.34 77.66 12.49l.04.01"/><path fill="#ff0" d="M549.92 434.89c-1.51 1.79-23.96 6.39-58.01 7.22-22.96.02-52.83-1.68-90.21-6.43-35.47-4.55-64.46-9.74-86.4-14.15-35.53-7.98-53.78-15.41-60.62-18.2.64-1.32 1.07-2.25 1.69-3.49 19.54 7.83 37.91 13.17 59.5 17.95 21.79 4.4 50.43 9.59 85.73 14.12 37.2 4.72 66.74 6.14 89.57 6.2 34.87-.44 53.41-4.9 56.31-7.92l2.45 4.7h-.01m-6.66-13.8c-3.92 2.5-22.37 6.42-55.46 6.78-22.02-.18-49.95-1.71-85.71-6.27-33.96-4.35-61.7-9.26-82.8-13.8-33.49-6.77-51.25-14.54-57.72-16.94l1.96-3.38c5.1 2.62 22.14 9.45 56.13 16.71 20.86 4.4 48.64 9.23 82.43 13.57 35.59 4.52 63.21 5.95 85.09 6.13 33.25.34 50.81-5.51 53.67-7.28l2.41 4.48"/><path d="M550.25 435.29c-1.21 1.16-6.57 2.55-16.97 4.11-12.32 1.78-26.06 2.84-41.29 3.19-28.36.02-58.43-2.38-90.29-6.43-30.52-3.91-59.34-8.71-86.46-14.16-22.92-5.13-42.89-10.97-60-17.92l-.74-.3c-.29-.14-.36-.31-.26-.62l.02-.04.71-1.48.98-2.02c.15-.26.31-.32.59-.23 18.05 7.23 37.82 13.15 59.4 17.93 27.16 5.48 55.71 10.27 85.66 14.11 30.11 3.82 59.93 6.1 89.5 6.19 15.85-.19 29.19-1.16 40.1-2.93 9.21-1.57 14.23-3.18 15.91-4.85.1-.11.19-.16.31-.16.11.01.22.06.35.18.05.05.08.1.11.15l2.45 4.7c.14.28.11.44-.08.58m-6.79-13.71c-6.62 4.17-24.86 6.46-55.59 6.78-27.79-.23-56.36-2.53-85.78-6.27-30.63-3.93-58.25-8.52-82.87-13.81-19.76-3.99-38.09-9.26-55.1-15.92l-2.71-1.05c-.3-.13-.38-.3-.28-.62.01-.02.02-.05.03-.08l1.96-3.38c.17-.26.34-.31.62-.18 11.72 6.01 30.28 11.19 55.98 16.66 24.31 5.14 51.76 9.64 82.37 13.56 28.8 3.67 57.12 5.9 85.02 6.13 14.32.17 27.01-.75 38.17-2.79 7.97-1.51 12.93-3 15.28-4.42.13-.08.23-.1.35-.08.11.04.21.11.31.26.01.02.02.03.03.05l2.42 4.48c.04.09.06.17.06.26-.01.26-.08.37-.27.42m5.9 13.18-1.97-3.78c-2.18 1.64-7.28 3.2-15.92 4.67-10.95 1.78-24.33 2.76-40.23 2.95-29.62-.1-59.48-2.38-89.64-6.21-29.99-3.84-58.59-8.64-85.8-14.12-21.5-4.77-41.2-10.65-59.21-17.82l-.78 1.61-.48 1.02.26.1c17.05 6.93 36.94 12.76 59.77 17.88 27.09 5.44 55.86 10.23 86.34 14.14 31.81 4.04 61.82 6.44 90.13 6.42 15.19-.36 28.9-1.4 41.19-3.19 9.8-1.46 15.03-2.73 16.34-3.67m-6.72-13.88-1.93-3.59c-2.58 1.4-7.52 2.84-15.14 4.28-11.22 2.05-23.95 2.97-38.33 2.8-27.94-.23-56.3-2.46-85.15-6.13-30.65-3.93-58.15-8.44-82.5-13.58-25.51-5.43-44.05-10.59-55.89-16.55l-1.44 2.49 2.19.86c16.94 6.65 35.21 11.9 54.91 15.87 24.57 5.29 52.14 9.87 82.72 13.79 29.38 3.74 57.91 6.03 85.65 6.27 14.94-.16 27.8-.99 38.62-2.54 8.5-1.26 13.8-2.61 16.29-3.97"/><path fill="#ff0" d="M239.04 485.14v-.01l-.13-15.1c21.81 13.6 89.87 26.88 161.85 36.7 72.96 9.85 152.99 10.15 162.7-3.27l.78 16.93c-28.81 11.31-104.16 8.17-162.85.57-63.78-8.8-132.42-20.38-162.35-35.82"/><path d="m238.57 485.06-.13-15.01c.01-.1.03-.18.08-.27.19-.28.37-.32.65-.16 11.31 7.04 31.83 12.85 62.02 19.36 30.48 6.54 63.67 12.37 99.57 17.27 36.17 4.9 71.15 7.68 105.05 7.26 33.99-.5 52.63-4.02 57.25-10.37.1-.12.21-.17.38-.16.16.02.26.06.35.15.08.1.13.21.14.37l.78 16.94c0 .21-.07.33-.25.41-13.75 5.4-37.02 7.94-70.35 7.57-30.89-.41-61.79-2.97-92.72-6.98-34.03-4.69-65.31-10.01-93.84-15.81-31.19-6.38-53.97-12.47-68.66-20.03-.13-.03-.2-.08-.26-.18-.08-.11-.1-.21-.06-.36m.94-.23c14.6 7.48 37.22 13.52 68.17 19.86 28.49 5.79 59.73 11.1 93.72 15.79 30.89 4.01 61.73 6.56 92.58 6.96 33.01.37 56.09-2.11 69.78-7.4l-.71-15.28c-5.94 5.93-24.58 9.25-57.08 9.73-33.96.41-69-2.38-105.21-7.28-35.96-4.9-69.2-10.74-99.72-17.28-29.68-6.4-50.08-12.13-61.65-19.04l.12 13.94"/><path fill="#ff0" d="M565.81 502.76v4.01c-4.57 4.58-30.84 8.53-64.67 8.95-25.6.04-58.89-2.31-100.47-7.62-39.47-5.07-70.96-10.61-95.36-15.71-38.65-7.84-63.16-16.82-68.23-19.67l.02-4.68c14.72 9.28 55.27 17.7 68.75 20.67 24.25 5.09 55.54 10.59 94.82 15.64 41.39 5.29 74.48 7.62 99.92 7.59 24.36.1 58.14-4.04 65.22-9.19v.01m-.01 18.27c-4.58 4.59-30.85 8.54-64.68 8.96-25.6.04-58.88-2.31-100.47-7.62-39.47-5.07-70.95-10.61-95.36-15.71-38.64-7.84-63.16-16.83-68.22-19.67l.02-4.68c14.71 9.28 55.27 17.7 68.74 20.67 24.25 5.08 55.54 10.59 94.82 15.64 41.39 5.29 74.49 7.62 99.93 7.58 24.35.11 58.13-4.03 65.22-9.18v4.01"/><path d="M566.27 517.09v4.01c-.01.12-.04.21-.11.29-2.4 2.36-9.29 4.44-21.57 6.23-12.26 1.71-26.71 2.66-43.39 2.86-29.96.04-63.44-2.89-100.55-7.63-35.1-4.51-66.91-9.76-95.43-15.72-16.86-3.41-32.44-7.26-46.79-11.66-10.56-3.27-17.7-5.88-21.6-8.06a.463.463 0 0 1-.24-.41l.03-4.68c.02-.33.14-.47.47-.49.1 0 .17.02.26.07 10.84 6.91 33.5 12.87 68.56 20.61 28.27 5.93 59.85 11.15 94.74 15.63 36.89 4.71 70.14 7.61 99.86 7.58 12.64.06 25.64-.76 39.06-2.53 14.01-1.91 22.41-4.12 25.81-6.49.08-.15.2-.19.43-.16.31.07.44.22.46.55m.01-14.27v4.01c0 .12-.03.21-.1.3-2.4 2.35-9.3 4.44-21.58 6.22-12.26 1.72-26.71 2.66-43.39 2.86-29.96.04-63.44-2.89-100.54-7.63-35.12-4.51-66.93-9.76-95.44-15.72-16.85-3.41-32.43-7.26-46.79-11.66-10.55-3.27-17.69-5.88-21.6-8.06a.474.474 0 0 1-.23-.41l.02-4.68c.02-.33.15-.47.47-.49.1 0 .18.02.26.07 10.85 6.92 33.52 12.88 68.56 20.61 28.27 5.93 59.85 11.15 94.75 15.63 36.9 4.72 70.15 7.62 99.85 7.58 12.65.06 25.65-.76 39.06-2.53 14.06-1.92 22.47-4.13 25.85-6.52.07-.1.14-.14.26-.15.15-.03.26.01.4.15.13.11.19.23.19.42m-.95 15.14c-3.88 2.28-12.24 4.38-25.51 6.19-13.46 1.78-26.49 2.6-39.17 2.54-29.77.04-63.06-2.87-100-7.59-34.94-4.49-66.57-9.71-94.89-15.65-34.42-7.59-56.99-13.49-68.21-20.28l-.01 3.53c3.89 2.12 10.88 4.66 21.16 7.85 14.3 4.39 29.84 8.23 46.66 11.63 28.47 5.95 60.24 11.2 95.29 15.71 37.06 4.73 70.49 7.65 100.4 7.62 16.65-.2 31.05-1.15 43.28-2.85 11.89-1.73 18.61-3.71 21-5.88v-2.82m.01-14.27c-3.88 2.28-12.23 4.38-25.51 6.2-13.45 1.77-26.49 2.6-39.16 2.53-29.76.04-63.06-2.86-100-7.59-34.94-4.48-66.58-9.71-94.9-15.65-34.4-7.58-56.97-13.48-68.2-20.27l-.02 3.52c3.89 2.12 10.89 4.66 21.17 7.85 14.31 4.39 29.85 8.23 46.66 11.63 28.45 5.95 60.21 11.2 95.29 15.71 37.06 4.73 70.49 7.65 100.39 7.62 16.65-.2 31.06-1.15 43.29-2.85 11.88-1.73 18.61-3.7 20.99-5.87v-2.83"/><path fill="#ff0" d="M258.31 553.9c12.49 3.1 72.86 23.49 142.94 33.02 44.51 5.53 120.35 5.48 142.89-1.85l-9.49 13.95c-33.04 11.33-79.23 7.82-132.72 2.54-53.07-5.35-112.33-23.18-134.36-32.79l-9.26-14.87"/><path d="M401.26 586.44c22.27 2.78 48.8 4.14 79.61 3.96 31.01-.23 51.9-2.15 63.07-5.8.17-.04.3-.01.45.1.27.23.31.42.15.69l-9.49 13.95c-.05.07-.11.11-.19.15-15.28 5.23-34.77 7.72-58.83 7.62-18.98-.13-43.65-2.07-74.09-5.07-24.29-2.44-50.54-7.71-78.86-15.08-23.68-6.2-42.21-11.87-55.69-17.75a.51.51 0 0 1-.22-.19l-9.25-14.86a.479.479 0 0 1-.06-.37c.04-.16.1-.26.19-.33.11-.05.22-.06.37-.03l6.45 1.75c49.77 14.01 95.16 25.67 136.37 31.25l.01.01h.01m-.01.96c-41.29-5.59-86.77-17.27-136.62-31.29l-5.28-1.45 8.54 13.72c13.41 5.84 31.83 11.48 55.36 17.64 28.26 7.36 54.44 12.63 78.66 15.05 30.4 3 55.04 4.93 73.99 5.07 23.9.1 43.25-2.37 58.43-7.54l8.57-12.61c-11.56 3.38-32.08 5.16-61.88 5.38-30.85.19-57.42-1.18-79.74-3.97h-.03"/><path fill="#ff0" d="m546.55 583.59-3.22 5c-8.31 1.78-30.64 4.99-63.4 4.7-21.6-.29-34.92.22-77.87-4.44-80.37-12.52-132.5-28.64-144.79-32.53l-1.83-3.59c46.59 12.13 94.17 24.71 146.63 32.4 39.28 4.18 55.91 4.03 77.33 4.32 38.18-.26 57.36-3.67 63.16-4.67-.07-.11-.16-.24-.25-.37l4.13-.97v.01l.11.14m-12.6 18.31c-15.51 3.2-39.85 5.29-50.17 5.45-21.05 1.16-53.56-.5-82.45-4.17-62.06-8.96-113.17-23.69-136.94-34.29l-1.93-3.41.32-.51 3.27 1.32c42.52 15.81 90.36 26.28 135.63 33.24 28.78 3.77 57.54 4.68 80.83 4.02 35.75-1.87 50.08-5.14 54.58-6.96l1.12-.47c-1.4 1.97-2.82 3.91-4.26 5.78"/><path d="m546.84 583.27.06.09c.13.2.14.35.03.53l-3.21 5c-.07.09-.13.14-.24.16-16.06 3.43-37.15 4.95-63.49 4.7l-9.12-.07c-21.46-.14-44.38-1.72-68.8-4.37h-.02c-55-8.55-103.34-19.43-144.92-32.55a.453.453 0 0 1-.26-.23l-1.83-3.59c-.13-.29-.08-.46.19-.62.11-.05.2-.07.32-.04 52.05 13.56 100.85 25.69 146.51 32.38h.01c23.33 2.49 46.81 4 70.48 4.25l6.78.08c24.57-.16 45.35-1.63 62.46-4.56l.05-.01c-.03-.17.02-.28.18-.41.04-.02.08-.04.13-.06l4.03-.94a.35.35 0 0 1 .14-.06c.05 0 .1.01.15.02.07.01.12.03.17.06.08.05.14.13.2.24m-8.23 12.69c.11.26.09.4-.07.53-1.45 2.05-2.86 3.96-4.22 5.74-.06.07-.12.11-.22.13-16.57 3.44-33.28 5.22-50.24 5.46-24.39 1.35-51.85-.27-82.53-4.17-28.71-4.14-56.33-9.8-82.88-16.69-22.45-5.85-40.49-11.52-54.24-17.64a.574.574 0 0 1-.21-.2l-1.93-3.4c-.09-.18-.08-.31.01-.48l.32-.51c.14-.22.29-.27.54-.19l3.26 1.32h.01c38.14 14.2 83.32 25.18 135.48 33.21 25.54 3.36 52.44 4.81 80.75 4.01 28.68-1.49 46.69-3.81 54.43-6.92l1.08-.46c.02-.01.05-.03.08-.03.28-.07.44.01.58.29m4.39-11.22c.06.3-.02.44-.31.5l-.63.11c-17.15 2.94-37.98 4.41-62.6 4.57l-6.79-.08c-23.71-.25-47.23-1.76-70.59-4.25h-.02c-45.45-6.66-93.99-18.7-145.75-32.16l1.27 2.5c41.45 13.09 89.64 23.94 144.48 32.46 24.38 2.64 47.26 4.21 68.68 4.35l9.13.08c26.19.25 47.17-1.26 63.16-4.65l2.6-4.04-2.63.61m-6.18 12.48c-8.07 3.06-26.02 5.33-54.23 6.8-28.36.8-55.31-.67-80.92-4.03-52.26-8.04-97.54-19.05-135.77-33.27h-.01l-2.86-1.15 1.68 2.96c13.66 6.08 31.59 11.72 53.9 17.54a763.94 763.94 0 0 0 82.72 16.65c30.62 3.9 58.02 5.51 82.35 4.17h.02c16.87-.24 33.49-2 49.97-5.42l3.15-4.25"/><path fill="#ff0" d="M401.02 319.93c89.59 11.81 162.56 99.42 162.84 189.93-.29 92.59-73.22 152.95-162.84 141.72-89.61-11.77-161.96-85.23-162.24-175.74.29-92.59 72.6-167.09 162.24-155.91m146.26 183.53c-4.47-40.12-12.83-67.18-32.19-94.25-29.82-41.2-72.28-66.18-109.09-72.14-32.07-4.93-69.6 3.06-98.6 26.22-28.7 23.27-48.28 59.15-51.28 110.87.76 45.77 19.28 79.23 42.34 107.1 11.78 14.04 55.62 47.82 102.16 53.17 41.86 4.44 77.1-6.68 104.25-29.04 19.09-15.98 42.44-54.44 42.41-101.93"/><path d="M401.02 319.45c22.06 2.9 43.03 10.3 63.32 22.07 19.53 11.47 36.76 26.01 51.94 43.7 15.1 17.77 26.75 37.06 35.13 58.19 8.58 21.95 12.86 43.97 12.92 66.51-.06 22.55-4.34 43.33-12.92 62.75-8.39 18.69-20.01 34.42-35.13 47.55-15.2 13.03-32.37 22.14-51.94 27.7-20.29 5.63-41.25 6.91-63.32 4.14-22.05-2.89-43.01-9.53-63.23-19.92-19.47-10.13-36.63-22.9-51.73-38.72-15.03-15.91-26.6-33.41-34.93-53.21-8.51-20.57-12.75-41.8-12.82-64.36.07-22.54 4.31-44.11 12.82-64.9 8.33-20.02 19.9-37.55 34.93-52.54 15.13-14.9 32.23-25.77 51.73-32.67 20.25-7 41.14-9.05 63.23-6.29m0 .96c-21.97-2.74-42.74-.71-62.87 6.25-19.38 6.85-36.38 17.65-51.43 32.45-14.94 14.9-26.44 32.31-34.72 52.2-8.47 20.66-12.69 42.1-12.75 64.51.07 22.43 4.29 43.55 12.75 64 8.28 19.7 19.78 37.11 34.72 52.93 15.02 15.75 32.08 28.45 51.43 38.53 20.11 10.34 40.95 16.94 62.87 19.82 21.95 2.75 42.79 1.48 62.95-4.12 19.46-5.53 36.53-14.59 51.65-27.54 15.03-13.06 26.58-28.7 34.93-47.28 8.53-19.3 12.78-39.96 12.84-62.37-.06-22.41-4.32-44.3-12.84-66.13-8.33-21-19.91-40.19-34.93-57.86-15.1-17.59-32.23-32.04-51.65-43.44-20.17-11.7-41.02-19.06-62.95-21.95m146.73 183.12c.04 21.89-4.6 42.74-14.03 63-8.06 17.07-17.49 30.02-28.52 39.26-29.56 24.34-64 33.44-104.57 29.12-20.72-2.35-42.01-10.19-64.34-23.41-17.35-10.38-29.97-20.15-38.19-29.93-27.78-33.62-41.82-68.4-42.45-107.4v-.03c2.76-47.86 19.76-85.51 51.45-111.24 14.03-11.22 29.98-19.15 48.28-23.81 17.29-4.28 34.03-5.05 50.63-2.5 19.38 3.14 38.36 10.76 57.39 22.88 20.44 13.19 37.7 29.64 52.06 49.48 9.48 13.28 16.7 27.32 21.79 42.38 4.7 14.2 8.2 31.53 10.5 52.15v.05m-.94-.11c-2.29-20.53-5.77-37.77-10.44-51.9-5.05-14.95-12.22-28.88-21.64-42.06-14.27-19.72-31.41-36.07-51.73-49.18-18.91-12.05-37.77-19.61-57.01-22.73-16.5-2.54-33.12-1.77-50.31 2.48-18.18 4.63-34.03 12.5-47.98 23.64-31.47 25.54-48.36 62.93-51.11 110.5.63 38.76 14.6 73.35 42.22 106.79 8.14 9.69 20.66 19.39 37.91 29.71 22.18 13.15 43.33 20.94 63.89 23.28 40.33 4.29 74.56-4.76 103.94-28.95 10.94-9.18 20.3-22.03 28.32-38.99 9.36-20.14 13.97-40.85 13.94-62.59"/><path fill="#ff0" d="M401.45 319.42c89.67 11.84 162.1 99.6 162.38 190.4-.29 92.88-72.68 153.58-162.38 142.31-89.68-11.79-162.1-85.53-162.38-176.33.29-92.88 72.66-167.6 162.38-156.38M242.65 475.7c.28 88.7 71.48 161.28 158.8 172.77 87.35 10.96 158.52-48.51 158.81-139.17-.28-88.73-71.5-174.68-158.81-186.22-87.36-10.92-158.51 61.93-158.8 152.62"/><path d="M401.45 318.94c22.08 2.91 43.04 10.33 63.29 22.12 19.48 11.49 36.65 26.06 51.77 43.78 15.03 17.81 26.62 37.15 34.96 58.34 8.52 22 12.77 44.09 12.83 66.71-.06 22.62-4.31 43.48-12.83 62.96-8.35 18.76-19.91 34.56-34.96 47.75-15.14 13.09-32.25 22.24-51.77 27.84-20.25 5.66-41.19 6.95-63.29 4.17-22.06-2.89-43.04-9.55-63.28-19.98-19.49-10.17-36.66-22.98-51.78-38.86-15.04-15.97-26.62-33.52-34.95-53.39-8.52-20.63-12.77-41.94-12.83-64.57.06-22.61 4.31-44.26 12.83-65.11 8.34-20.08 19.91-37.66 34.95-52.69 15.15-14.94 32.27-25.84 51.78-32.76 20.26-7.03 41.17-9.08 63.28-6.31m0 .96c-21.98-2.75-42.77-.71-62.92 6.26-19.4 6.88-36.41 17.71-51.47 32.55-14.95 14.94-26.46 32.4-34.76 52.36-8.47 20.72-12.69 42.23-12.75 64.71.06 22.51 4.29 43.69 12.75 64.21 8.29 19.77 19.81 37.24 34.76 53.12 15.03 15.8 32.1 28.55 51.47 38.66 20.13 10.38 40.99 17 62.92 19.88 21.97 2.76 42.79 1.48 62.92-4.15 19.41-5.57 36.42-14.67 51.48-27.68 14.96-13.12 26.45-28.82 34.75-47.47 8.47-19.37 12.7-40.1 12.76-62.6-.06-22.49-4.29-44.45-12.76-66.32-8.28-21.07-19.81-40.3-34.75-58.01-15.04-17.62-32.11-32.11-51.48-43.53-20.13-11.72-40.97-19.09-62.92-21.99M242.18 475.71c.06-22.07 4.24-43.2 12.6-63.56 8.19-19.59 19.54-36.74 34.28-51.41 14.84-14.58 31.58-25.21 50.66-31.97 19.81-6.86 40.2-8.87 61.73-6.17 21.5 2.84 41.94 10.08 61.74 21.62 19.04 11.24 35.84 25.49 50.65 42.85 14.74 17.44 26.1 36.37 34.28 57.09 8.37 21.54 12.54 43.13 12.61 65.21-.07 22.09-4.24 42.46-12.61 61.51-8.19 18.33-19.53 33.77-34.28 46.67-14.84 12.81-31.58 21.78-50.65 27.27-19.79 5.55-40.22 6.84-61.74 4.13-21.48-2.82-41.95-9.34-61.73-19.58-19.05-9.98-35.85-22.57-50.66-38.15-14.74-15.68-26.09-32.9-34.28-52.36-8.36-20.22-12.54-41.05-12.6-63.15m.94-.02c.06 21.96 4.21 42.68 12.53 62.79 8.13 19.36 19.42 36.49 34.08 52.08 14.72 15.51 31.42 28.03 50.36 37.96 19.66 10.18 40 16.66 61.36 19.47 21.39 2.69 41.69 1.41 61.37-4.11 18.96-5.47 35.6-14.38 50.36-27.11 14.66-12.83 25.93-28.18 34.08-46.4 8.32-18.93 12.46-39.18 12.53-61.13-.06-21.96-4.21-43.42-12.53-64.83-8.13-20.6-19.44-39.42-34.08-56.76-14.73-17.26-31.43-31.43-50.36-42.6-19.68-11.47-40-18.67-61.37-21.49-21.4-2.68-41.67-.68-61.36 6.13-18.96 6.71-35.61 17.27-50.36 31.75-14.66 14.58-25.94 31.61-34.08 51.08-8.32 20.24-12.47 41.23-12.53 63.17"/><path fill="#ff0" d="M401.58 333.26c81.79 10.83 148.46 91.21 148.74 174.44-.29 84.81-66.92 140.58-148.74 130.33-81.79-10.79-148.45-79.45-148.73-162.65.28-84.84 66.91-152.33 148.73-142.12M256.42 475.35c.28 81.24 65.33 148.48 145.16 159.02 79.86 10 144.88-44.47 145.17-127.2-.28-81.28-65.34-159.67-145.17-170.25-79.87-9.96-144.87 55.66-145.16 138.43"/><path d="M401.58 332.78c20.15 2.66 39.29 9.43 57.83 20.22 17.84 10.52 33.58 23.87 47.46 40.13 13.8 16.35 24.45 34.09 32.11 53.52 7.84 20.2 11.75 40.43 11.81 61.12-.06 20.7-3.97 39.75-11.81 57.59-7.68 17.16-18.29 31.59-32.11 43.68-13.91 11.99-29.58 20.4-47.46 25.56-18.54 5.22-37.67 6.44-57.83 3.91-20.13-2.65-39.29-8.78-57.83-18.44-17.84-9.41-33.57-21.29-47.45-36-13.81-14.81-24.44-31.05-32.11-49.37-7.84-19.05-11.75-38.62-11.81-59.32.06-20.68 3.97-40.4 11.81-59.39 7.67-18.26 18.3-34.2 32.11-47.84 13.9-13.54 29.58-23.4 47.45-29.68 18.56-6.35 37.66-8.21 57.83-5.69m0 .96c-20.04-2.5-39.02-.66-57.46 5.65-17.76 6.23-33.34 16.02-47.16 29.47-13.72 13.55-24.28 29.37-31.91 47.51-7.79 18.86-11.67 38.45-11.73 59 .06 20.57 3.95 40.02 11.73 58.95 7.62 18.22 18.19 34.37 31.91 49.1 13.8 14.62 29.43 26.43 47.16 35.8 18.42 9.6 37.46 15.69 57.46 18.33 20.03 2.51 39.04 1.3 57.47-3.89 17.76-5.13 33.33-13.49 47.15-25.4 13.74-12.02 24.28-26.36 31.92-43.41 7.78-17.72 11.67-36.65 11.73-57.22-.06-20.56-3.95-40.66-11.73-60.73-7.62-19.31-18.2-36.94-31.92-53.19-13.79-16.16-29.42-29.42-47.15-39.88-18.43-10.72-37.45-17.44-57.47-20.09M255.95 475.35c.06-20.19 3.88-39.42 11.53-57.92 7.49-17.79 17.86-33.31 31.34-46.58 13.57-13.18 28.87-22.78 46.32-28.88 18.11-6.18 36.75-7.99 56.44-5.53 19.66 2.6 38.34 9.19 56.45 19.72 17.41 10.27 32.77 23.29 46.32 39.16 13.47 15.96 23.86 33.28 31.34 52.26 7.65 19.72 11.47 39.46 11.53 59.66-.07 20.2-3.88 38.8-11.53 56.2-7.5 16.74-17.85 30.82-31.34 42.63-13.58 11.7-28.87 19.9-46.32 24.95-18.1 5.09-36.77 6.29-56.45 3.83-19.65-2.59-38.35-8.58-56.44-18.03-17.42-9.21-32.77-20.83-46.32-35.23-13.48-14.49-23.86-30.38-31.34-48.29-7.65-18.63-11.47-37.75-11.53-57.95m.94-.01c.06 20.08 3.85 39.07 11.45 57.58 7.44 17.81 17.75 33.62 31.14 48.02 13.47 14.31 28.72 25.87 46.03 35.03 17.97 9.39 36.55 15.34 56.07 17.91 19.55 2.46 38.1 1.26 56.08-3.8 17.34-5.02 32.53-13.17 46.02-24.8 13.41-11.73 23.69-25.72 31.15-42.35 7.6-17.29 11.39-35.76 11.45-55.83-.06-20.07-3.85-39.69-11.45-59.28-7.44-18.85-17.76-36.06-31.15-51.92-13.46-15.78-28.72-28.71-46.02-38.91-17.99-10.46-36.54-17-56.08-19.59-19.56-2.44-38.07-.65-56.07 5.49-17.34 6.06-32.54 15.58-46.03 28.67-13.39 13.18-23.69 28.58-31.14 46.25-7.6 18.38-11.39 37.47-11.45 57.53"/><path fill="#ff0" d="m408.13 319.62.06 334.26-13.96-1.79-.02-334.26 13.92 1.79"/><path d="M408.13 319.14c.32.06.45.21.47.54l.06 334.26c-.02.33-.14.45-.47.42l-13.96-1.79c-.33-.06-.46-.21-.47-.54l-.02-334.26c.02-.33.14-.44.47-.42l13.92 1.79m-.47.9-12.98-1.67.02 333.29 13.02 1.68-.06-333.3"/><path fill="#ff0" d="m396.49 316.22.01 338.1-3.58-.45v-338.1l3.57.45m13.79 1.78.03 338.1-3.55-.47-.03-338.1 3.55.47"/><path d="m392.92 315.29 3.57.44c.33.06.45.21.47.54l.01 338.11c-.02.33-.15.44-.47.42l-3.58-.45c-.32-.06-.45-.2-.46-.54V315.77c-.01-.02-.01-.04-.01-.06.02-.33.15-.44.47-.42m13.81 1.76 3.55.47c.32.06.45.2.46.54l.04 338.1c-.02.34-.15.45-.47.42l-3.55-.47c-.32-.06-.45-.2-.47-.54l-.03-338.05v-.05c.02-.34.15-.45.47-.42m-13.33-.74v337.14l2.63.33-.01-337.14-2.62-.33m13.8 1.76.03 337.14 2.61.35-.04-337.14-2.6-.35"/><path fill="#ff0" d="m563.94 516.27-26.22-17.2-41-16.38-59.04-15.64c-26.52-3.82-53.04-7.3-80.36-10.04-27.6 1.69-55.2 4.24-83.64 8.33-11.62 5.16-23.25 10.55-35.23 16.42V469.4l13.91-10.84c22.74-5.79 45.46-10.56 68.88-14.68 31.93.53 63.86 2.51 96.76 5.28l80.36 20.35 55.76 23.61 9.82 10.8v12.35"/><path d="M564.41 516.34c0 .08-.01.14-.04.21-.17.27-.34.3-.63.13l-26.18-17.18-40.92-16.34-58.99-15.63c-26.5-3.82-52.99-7.3-80.29-10.04-27.57 1.69-55.14 4.23-83.55 8.31-11.6 5.15-23.2 10.54-35.17 16.39-.06.03-.12.04-.19.05-.32-.01-.45-.14-.47-.47v-12.36c.01-.17.07-.28.19-.39l13.91-10.85c.05-.04.11-.06.17-.08 22.74-5.79 45.46-10.56 68.88-14.69.03 0 .06-.01.09-.01 31.93.54 63.85 2.51 96.76 5.29.02 0 .04 0 .07.01l80.36 20.34c.02.01.05.02.07.03l55.76 23.61c.08.03.14.08.2.14l9.82 10.8c.1.12.15.23.15.38v12.35m-.94-.91v-11.37l-9.58-10.55-55.62-23.54-80.28-20.33c-31.91-2.69-63.81-4.73-96.68-5.28-22.69 3.99-45.37 8.7-68.75 14.64l-13.64 10.62V481a1031.89 1031.89 0 0 1 34.57-16.11l.12-.03c27.6-3.97 55.2-6.59 83.64-8.33h.07c26.52 2.65 53.04 6.1 80.36 10.04.02 0 .03 0 .05.01l59.04 15.64c.02.01.04.01.06.02l41 16.38c.03.01.07.03.1.05l25.54 16.76"/><path fill="#ff0" d="M401.53 445.76c38.36 4.91 75.54 14.6 105.07 25.02 30.55 11.03 51.71 21.94 59.21 31.71l-.01 4.33c-9.06-12.07-37.53-24.39-59.88-32.48-29.31-10.34-66.24-19.95-104.39-24.82-40.33-5.07-77.43-4.38-106.39.16-22.73 3.55-53.93 13.31-58.08 22.94v-4.52c2.45-6.44 25.35-17.02 57.38-22.22 29.17-4.6 66.52-5.21 107.09-.12m-.01 14.27c38.35 4.9 75.54 14.59 105.06 25.01 30.56 11.04 51.72 21.94 59.22 31.71l-.01 4.34c-9.07-12.08-37.54-24.39-59.89-32.48-29.31-10.34-66.24-19.95-104.38-24.83-40.34-5.07-77.62-4.39-106.58.16-23.51 3.88-53.51 13.35-57.89 22.94v-4.52c2.44-6.48 24.89-16.77 57.37-22.22 29.18-4.6 66.52-5.21 107.1-.11"/><path d="M401.53 445.28c37.61 4.81 72.64 13.56 105.16 25.04 32.5 11.74 52.07 22.23 59.48 31.91.08.1.11.2.11.33l-.01 4.33c-.01.33-.14.45-.47.41-.15-.02-.25-.09-.36-.22-7.32-9.83-26.94-20.44-59.62-32.28-32.22-11.37-66.96-20.04-104.28-24.8-38.79-4.88-74.11-4.89-106.31.16-13.14 2.04-25.1 5.09-36.01 9.06-13.02 4.88-19.91 9.41-21.72 13.56-.06.16-.14.24-.24.3-.11.04-.22.04-.37-.01-.2-.09-.28-.21-.3-.44v-4.52c.01-.05.01-.1.03-.16 1.36-3.45 6.95-7.38 17.83-11.91 11.1-4.5 24.34-8.13 39.9-10.64 32.13-5.07 67.73-5.07 107.15-.12h.03m-.01 14.27h.01c37.61 4.81 72.63 13.55 105.14 25.03 32.5 11.74 52.07 22.23 59.48 31.91.08.11.11.21.12.33l-.01 4.34c-.02.33-.15.44-.47.41a.53.53 0 0 1-.36-.23c-7.32-9.82-26.94-20.44-59.62-32.28-32.24-11.37-66.97-20.03-104.29-24.8-38.93-4.89-74.31-4.9-106.49.16-13.59 2.23-25.59 5.35-36.11 9.21-12.71 4.78-19.52 9.26-21.44 13.43-.14.3-.31.37-.62.27-.19-.09-.27-.21-.28-.43v-4.52c0-.05.01-.1.02-.16 1.35-3.47 6.89-7.37 17.66-11.84 10.9-4.4 24.21-8.06 40.07-10.71 32.17-5.08 67.78-5.08 107.19-.12m.05-13.3h-.03c-39.37-4.95-74.93-4.95-107.01.1-15.5 2.5-28.69 6.11-39.74 10.58-10.52 4.38-15.93 8.08-17.26 11.24v2.61c2.9-3.94 9.78-8.12 21.38-12.46 10.95-4 22.95-7.06 36.14-9.11 32.26-5.07 67.64-5.06 106.48-.18 37.39 4.78 72.19 13.46 104.48 24.86 31.71 11.48 51.27 21.89 59.33 31.6v-2.89c-7.36-9.45-26.72-19.77-58.83-31.37-32.46-11.45-67.41-20.18-104.94-24.98m-.05 14.26h-.02c-39.34-4.95-74.89-4.95-106.99.11-15.81 2.63-29.06 6.28-39.91 10.66-10.41 4.31-15.76 7.98-17.08 11.15v2.66c2.93-3.94 9.71-8.09 21.08-12.37 10.56-3.88 22.61-7.01 36.25-9.25 32.24-5.08 67.68-5.07 106.67-.17 37.38 4.77 72.17 13.45 104.47 24.85 31.72 11.49 51.27 21.9 59.33 31.61l.01-2.9c-7.37-9.45-26.73-19.76-58.84-31.36-32.46-11.46-67.42-20.19-104.97-24.99"/><path fill="#ff0" d="M400.75 372.89c60.38 7.52 113.22 25.52 137.26 41.63l8.79 16.91c-20.77-14.44-77.95-36.4-145.96-43.44-56.15-6.79-114.1-4.33-144.61 12.33l10.5-17.98c25.16-12.99 81.41-16.06 134.02-9.45"/><path d="M400.75 372.41c29.67 3.68 57.08 9.79 82.32 17.66 24.43 7.7 42.73 15.74 55.15 24.05.08.06.14.13.19.22l8.8 16.91c.15.32.1.49-.17.63-.16.06-.29.04-.46-.06-11.59-8.05-29.89-16.16-55.14-24.31-28.57-9.15-58.73-15.75-90.59-19.03-69.91-8.45-117.49-2.46-144.4 12.27-.3.14-.47.09-.64-.2a.49.49 0 0 1 .01-.47l10.5-17.99c.05-.08.11-.13.19-.18 11.8-6.09 30.6-10.62 56.83-12.41 24-1.56 49.73-.57 77.33 2.9.03 0 .05 0 .08.01m.08.97c-.03 0-.05 0-.08-.01-27.59-3.47-53.3-4.47-77.28-2.91-26.04 1.78-44.7 6.24-56.41 12.25l-9.58 16.39c27.32-14.24 74.57-19.9 143.34-11.59 31.92 3.29 62.14 9.9 90.77 19.07 24.33 7.86 42.26 15.69 54 23.47l-7.92-15.22c-12.33-8.22-30.5-16.19-54.75-23.83-25.16-7.85-52.5-13.94-82.09-17.62"/><path fill="#ff0" d="M495.81 406.39c24.79 8.61 47.98 19.21 51.56 23.44l2.6 5.11c-8.26-6.63-28.49-15.82-54.67-25-26.28-9.07-59.52-15.95-93.81-20.29-38.94-5.11-69.1-5.65-95.07-2.44-27.51 3.9-46.34 11.52-51.16 15.1l2.55-5.01c9.16-4.78 23.59-10.5 47.93-13.78 26.86-3.56 57.34-2.36 95.81 2.34 34.48 4.37 67.75 11.57 94.26 20.53m-94.27-34.78c32.99 4.18 65.52 11.12 90.94 19.68 20.08 7.16 39.69 16.43 47.07 23.01l3.82 6.78c-6.72-8.29-30.76-19-52.44-26.34-25.21-8.31-56.4-14.93-89.39-19.48-34.69-4.32-66.55-5.1-91.44-1.94-23.73 3.34-38.88 8.71-45.43 12.9l3.35-5.16c9-4.69 23.3-8.81 41.5-11.45 25.08-3.2 57.13-2.36 92.02 2"/><path d="M401.55 385.38c37.81 4.79 69.26 12.06 94.35 20.55 12.38 4.29 23.64 8.74 33.81 13.34 10.33 4.72 16.13 8.1 18 10.29.03.03.05.06.06.09l2.61 5.11c.08.16.1.27.07.38-.03.11-.1.19-.24.25-.18.07-.32.04-.49-.09-8.49-6.82-26.54-15.1-54.51-24.9-23.49-8.12-54.73-15.33-93.72-20.27-38.02-4.99-69.58-5.57-94.99-2.44-12.52 1.76-23.84 4.32-34.04 7.6-8.59 2.83-14.13 5.35-16.92 7.4-.27.19-.45.16-.66-.09-.11-.18-.13-.32-.04-.51l2.56-5.01c.05-.09.11-.15.2-.21 12.26-6.38 28.17-11.15 48.06-13.83 22.86-3.03 54.71-2.69 95.87 2.34h.02m91.01 5.45c23.98 8.54 39.59 16.22 47.27 23.13.05.04.09.09.12.14l3.81 6.78c.16.32.12.49-.14.64-.24.11-.41.06-.6-.17-6.2-7.74-23.33-16.39-52.17-26.15-22.7-7.49-52.48-14.37-89.32-19.46-36.87-4.6-67.22-5.01-91.34-1.94-22.41 3.14-37.35 7.75-45.27 12.83-.28.16-.45.12-.65-.15-.1-.19-.1-.34.01-.53l3.35-5.16c.05-.07.1-.12.17-.16 9.1-4.75 22.87-8.78 41.63-11.5 24.1-3.08 54.7-2.67 92.1 1.99h.01c36.7 4.66 67.04 11.62 91.02 19.71m54.42 39.23c-1.79-2.04-7.45-5.3-17.54-9.91-10.13-4.58-21.36-9.02-33.71-13.3-25.03-8.47-56.42-15.72-94.16-20.51 47.98 13.5 95.97 28.82 145.41 43.72m-145.44-57.97c-37.34-4.66-67.89-5.07-91.93-2-18.6 2.69-32.25 6.66-41.26 11.34l-2.14 3.29c8.4-4.7 22.88-8.94 43.81-11.87 24.17-3.08 54.58-2.67 91.52 1.93 36.89 5.09 66.72 11.99 89.47 19.5 25.71 8.69 42.26 16.59 50.14 23.77l-1.95-3.47c-7.59-6.78-23.05-14.37-46.81-22.83-23.92-8.07-54.2-15.01-90.85-19.66"/><path fill="#ff0" d="M482.21 566.57c-29.95-10.28-59.78-15.48-80.72-17.93-100.43-11.52-133.59 11.62-137.21 16.94l-7.53-12.57c26.25-19.42 79.97-27.68 145.29-18.26 33.65 4.93 62.67 11.75 87.11 20.34l-6.94 11.48"/><path d="M482.43 567.06c-.03.01-.06.02-.09.02-.1.01-.18-.01-.3-.08-23.8-8.17-50.61-14.35-80.54-17.88-43.56-5.03-78.3-3.88-104.77 2.28-18.11 4.33-28.49 9.33-32.06 14.45-.2.26-.37.3-.65.12a.467.467 0 0 1-.14-.14l-7.53-12.57c-.14-.27-.11-.44.13-.64 12.96-9.58 32.15-16.65 58.14-20.22 25.83-3.42 54.87-2.84 87.42 1.87 35.2 5.16 64.26 12.3 87.2 20.36.31.13.42.3.37.62-.01.05-.03.1-.05.14l-6.91 11.43c-.05.13-.12.2-.22.24m-.47-1.07 6.46-10.67c-22.79-7.94-51.57-14.99-86.39-20.09-32.49-4.7-61.47-5.28-87.23-1.87-25.62 3.51-44.56 10.42-57.42 19.78l6.93 11.57c4.08-5.1 14.53-10.03 32.18-14.25 26.55-6.18 61.36-7.34 105-2.31 29.88 3.53 56.67 9.7 80.47 17.84"/><path fill="#ff0" d="M402.18 532.51c29.05 4.32 58.97 10.27 88.14 20.65l-2 3.3c-26.31-9.37-51.45-15.12-85.97-20.14-37.39-4.73-76.71-5.78-112.79 3.6-11.97 3.2-31.12 10.27-32.32 16.38l-1.91-3.46c.88-5.52 17.48-12.34 33.39-16.6 36.36-9.49 75.78-8.48 113.46-3.73m-1.27 14.28c28.03 4.04 55.48 9.39 82.06 18.51l-1.93 3.18c-24.67-8.42-50.92-14.2-80.03-17.82-37.29-5.04-74.64-4.97-107.49 3.31-10.64 2.67-26.95 9-29.17 14.71l-1.91-3.24c.82-3.37 10.71-10.16 30.2-15.15 37.53-9.47 72.52-7.81 108.27-3.5"/><path d="M490.4 552.72c.31.12.4.28.36.59-.01.05-.03.09-.05.13l-2 3.31c-.13.18-.26.22-.48.15-22.46-7.99-51.08-15.05-85.88-20.12-45.32-5.71-82.65-4.22-112.67 3.59-20.97 5.61-31.18 11.17-31.99 15.98-.05.32-.19.43-.5.41a.416.416 0 0 1-.34-.23l-1.91-3.46a.475.475 0 0 1-.06-.26c.68-5.09 11.46-11.05 33.71-17.01 30.4-7.96 68.04-9.49 113.59-3.75h.04c36.45 5.44 65.84 12.72 88.18 20.67m-89.41-6.38c34.11 4.93 61.45 11.45 82.06 18.52.3.12.4.29.36.6-.01.05-.03.09-.05.13l-1.92 3.18c-.12.18-.25.22-.48.16-23-7.86-49.62-14.03-79.95-17.81-41.38-5.58-76.97-4.37-107.37 3.3-6.34 1.58-12.22 3.62-17.73 6.13-6.78 3.19-10.17 5.82-11.13 8.27-.11.3-.26.38-.56.3a.452.452 0 0 1-.25-.2l-1.91-3.24c-.06-.1-.08-.2-.06-.32.54-2.08 2.98-4.33 8.29-7.32 5.86-3.15 13.2-5.91 22.23-8.2 28.87-7.29 64.8-8.75 108.39-3.52.03.01.06.01.08.02m1.18-13.37c-45.45-5.72-83.01-4.2-113.32 3.72-21.65 5.79-32.21 11.42-33.06 16.05l1.3 2.35c2.18-4.9 12.58-10.33 32.34-15.62 30.1-7.84 67.52-9.34 112.93-3.62 34.7 5.06 63.26 12.09 85.72 20.06l1.54-2.53c-22.23-7.85-51.37-15.03-87.45-20.41m-1.32 14.27c-43.47-5.21-79.3-3.76-108.09 3.5-8.96 2.27-16.24 5-22.04 8.12-4.89 2.74-7.18 4.75-7.8 6.5l1.37 2.32c1.48-2.45 4.98-5.03 11.24-7.98 5.56-2.52 11.48-4.58 17.86-6.18 30.48-7.69 66.16-8.92 107.61-3.32 30.25 3.77 56.83 9.92 79.81 17.73l1.45-2.4c-20.49-6.98-47.6-13.4-81.33-18.28h-.02c-.02 0-.04 0-.06-.01"/><path fill="#ff0" d="m545.23 586.52-12.1 17.41-34.77-36.98-90.2-75.43c-33.55-23.27-67.11-45.74-101.68-67.02-17.42-7.03-34.84-13.6-52.79-19.73l11.25-21.39 3.82-2.11 32.8 9.38c35.71 20.58 71.43 43.18 108.24 67.49l62.32 49.32 52.48 46.74 21.32 28.42-.69 3.9"/><path d="m545.63 586.84-12.11 17.41c-.19.24-.36.25-.64.05-.03-.02-.04-.04-.06-.06l-34.75-36.96-90.15-75.38c-33.54-23.26-67.08-45.71-101.63-66.97-17.41-7.02-34.82-13.58-52.75-19.71-.31-.12-.39-.28-.3-.6a.3.3 0 0 1 .04-.08l11.25-21.39c.04-.09.1-.15.18-.2l3.83-2.1c.11-.06.21-.07.33-.04l32.8 9.37c.04.02.07.03.1.05 35.72 20.59 71.44 43.2 108.24 67.51.02.01.03.01.04.02l62.32 49.33.02.02 52.48 46.74c.03.02.06.05.08.08l21.32 28.43c.1.14.13.26.11.41l-.69 3.9c-.01.06-.03.12-.06.17m-.84-.57.63-3.58-21.14-28.19-52.42-46.68-62.29-49.3c-35.7-23.56-71.4-46.24-108.18-67.43l-32.57-9.3-3.53 1.94-10.92 20.76c17.24 5.91 34.49 12.39 52.26 19.56a.3.3 0 0 1 .08.04c33.55 20.66 67.1 43.06 101.68 67.04.01.01.02.02.03.02l90.2 75.44c.02.01.04.03.05.04l34.36 36.55 11.76-16.91"/><path fill="#ff0" d="m547.71 586.61-2.35 3.3c.23-.45.24-.82.21-1.73l-.01-.59c-.2-19.1-102.06-102.04-134.2-125.55-73.15-52.66-124.23-78.35-142.69-78.97h-.38c-1.68.01-4.21.11-6.15 1.59-.3.26-.46.54-.54.68-.04.08-.05.1-.04.01l2.34-4.36c11.15-8.14 67.64 19.81 148.29 77.37 78.79 58.39 140.74 117.51 135.52 128.25M251.79 405.29h-.01.01c10.26-6.75 76.3 24.95 148.51 78.7 71.55 53.66 138.21 114.54 132.74 122.9l-2.01 2.94-.91.59c.29-.27 1.06-1.24-.12-4.89-3.07-10.11-51.01-58.51-131.02-118.27-78.63-57.93-141.96-86.52-149.24-77.93l2.05-4.04m293.3 185.01.27-.39c-.07.13-.15.25-.27.39"/><path d="m548.1 586.94-.01.01-2.47 3.48c-.05.08-.1.15-.15.21-.21.23-.39.23-.66 0-.23-.24-.26-.42-.11-.67l.12-.17c.2-.37.29-.89.28-1.68l-.01-.59v-.02c-.07-8.16-17.98-28.09-54.81-60.73-27.5-24.31-53.88-45.88-79.16-64.35-76.22-54.88-123.24-78.24-142.45-78.88l-.37.01c-2.9.05-4.65.52-5.85 1.46l-.02.02c-.15.13-.29.29-.41.52a.59.59 0 0 1-.24.27c-.3.14-.47.08-.64-.2a.717.717 0 0 1-.05-.21v-.12c.01-.06.03-.12.06-.19l2.34-4.36c.03-.06.07-.11.13-.15 10.5-7.71 59.54 13.65 148.81 77.38 40.14 29.73 73.25 57.55 99.35 82.14 27.32 25.85 39.06 40.93 36.36 46.75l-.03.06s-.01 0-.01.01M251.33 405.16c.04-.18.12-.28.29-.33 5.13-3.1 21.91 1.49 51.38 16.45 29.68 15.17 62.16 35.97 97.54 62.33 37.82 28.36 69.6 54.97 95.34 78.57 28.26 26.02 40.37 40.55 37.56 45.02l-.01.01-2.01 2.93c-.03.05-.06.08-.1.11l-.81.53c-.04.02-.08.05-.12.07 0 .01-.01.01-.01.02-.27.13-.44.07-.65-.2-.18-.3-.16-.48.08-.66l.02-.01.08-.05c.59-.61.51-1.81-.35-4.31 0-.01 0-.02-.01-.03-1.79-5.75-13.73-19-36.53-40.16-25.32-23.44-56.75-49.79-94.29-77.81-38.29-28.22-72.03-49.46-101.33-64.02-28.57-14.07-43.9-17.84-47.29-13.99-.11.13-.2.19-.32.21-.11.01-.22-.03-.34-.13-.2-.18-.24-.34-.13-.59l2.01-3.96m294.71 182.93 1.21-1.71c.03-.08.06-.14.11-.19 2.22-5.48-9.45-20.14-36.16-45.4-26.06-24.55-59.15-52.34-99.25-82.04-88.67-63.28-137.35-84.72-147.69-77.44l-1.16 2.17c1.32-.56 2.96-.86 5.19-.89h.38c19.38.63 66.54 24.06 142.92 79.07 25.31 18.5 51.71 40.09 79.24 64.42 37.07 32.85 55.11 53.07 55.2 61.57v.01l.01.43M252.15 405.62l-1.15 2.26c5.73-2.08 21.04 2.18 46.78 14.88 29.34 14.58 63.11 35.85 101.44 64.12 37.56 28.05 69.02 54.43 94.37 77.89 22.93 21.28 34.99 34.71 36.86 40.67.45 1.3.7 2.35.77 3.21l1.42-2.08.01-.01c2.5-4.01-9.52-18.1-37.34-43.69-25.71-23.58-57.46-50.17-95.26-78.5-35.34-26.32-67.79-47.09-97.43-62.23-29.15-14.78-45.63-19.4-50.47-16.52"/><path fill="#fff" d="M304.18 494.95c.14 27.5 10.92 52.35 28.63 72 17.9 19.52 41.74 33.21 68.57 36.8 27.04 3.34 51.03-4.03 68.91-19.38 17.68-15.55 28.46-38.37 28.61-65.96h-.01V385.38c-64.25-10.03-128.53-20.12-194.73-23.62l.02 133.19"/><path d="M303.64 495.49h-.01l-.02-134.32c64.63 3.38 129.24 13.34 195.83 23.73v133.04h.01v.56c-.13 27.74-9.58 49.48-28.77 66.32-19.39 16.67-42.11 22.87-69.3 19.5-26.68-3.55-49.4-15.66-68.96-37-19.06-21.13-28.53-44.47-28.78-71.83m1.09-.51c.13 27.28 9.49 50.56 28.47 71.61 19.35 21.11 41.8 33.09 68.18 36.6 26.89 3.33 49.35-2.81 68.52-19.28 18.85-16.55 28.19-37.85 28.45-65.02V385.85c-63.9-9.97-127.81-19.98-193.64-23.49l.02 132.62"/><path fill="red" d="M307.82 495.33v.08c.15 26.29 10.56 50.25 27.52 69.1 17.14 18.7 40.26 31.68 65.95 35.12 25.89 3.19 48.84-3.87 65.96-18.55 16.93-14.88 27.24-36.68 27.39-63.07h-.01V388.94c-61.6-9.54-123.22-19.01-186.69-22.54l-.12 128.93m149.28-73.52v82.14l-.06 8.68c-.01 2.29-.15 4.87-.4 7.05-1.65 12.87-7.32 23.04-15.98 30.75-10.31 8.84-23.89 13.13-39.44 11.28-15.41-2.13-28.75-10.09-39.08-21.52-10.41-11.89-16.31-26.63-16.44-41.83l-.03-90.76c36.77 3.4 73.54 8.47 111.43 14.21"/><path d="m457.51 422.21.01 81.8-.07 8.5v.18c-.01 2.52-.14 4.88-.39 7.11-1.63 12.71-6.85 22.74-16.1 30.98-11.2 9.61-24.09 13.24-39.74 11.36-15.18-2.08-28.02-9.11-39.37-21.68-11.05-12.58-16.45-26.24-16.57-42.14l-.02-91.19c36.96 3.42 73.92 8.51 112.01 14.28l.65.76-.41.04m-.89 90.79v-.01l.07-9.1-.01-81.71c-36.49-5.53-72.99-10.62-110.59-14.12l.02 90.34c.12 15.66 5.44 29.12 16.33 41.51 11.18 12.4 23.82 19.33 38.78 21.37 15.42 1.86 28.12-1.72 39.15-11.19 9.12-8.12 14.26-18 15.86-30.52.23-2.07.36-4.25.39-6.57m-148.38-17.65v.08c.12 26.16 9.13 48.52 27.39 68.8 18.44 20.14 40.05 31.57 65.66 34.98 25.77 3.19 47.29-2.7 65.67-18.48 18.09-15.88 27.04-36.29 27.26-62.35V389.31c-61.33-9.5-122.68-18.92-185.87-22.46l-.11 128.5-.83-.04.11-129.36c61.89 3.42 123.76 12.75 187.53 22.63v129.5c-.12 26.49-9.15 47.24-27.51 63.35-18.54 15.91-40.25 21.85-66.25 18.63-25.83-3.44-47.64-14.97-66.25-35.28-18.42-20.44-27.51-43-27.63-69.4v-.07l.83.04"/><path fill="#ff0" d="M319.91 400.83c.66-9.32 6.34-10.92 6.69-11.03.37.13 6.48 2.77 6.92 12.12l-13.61-1.09"/><path fill="#ff0" d="m314.37 389.15-1.12 10.59 6.79.45c.54-8.87 6.17-9.75 6.67-9.78.47.14 6.08 2.34 6.72 10.76l6.8.57-1.23-10.85-24.63-1.74"/><path d="m314.06 388.17.49.57 24.82 1.76 1.33 11.7-7.67-.64-.01-.41c-.18-3.48-1.15-5.92-3.23-8.19-1.46-1.44-2.38-2.05-3.05-2.13h-.06l-.05-.02c-.65-.1-1.53.31-3.02 1.5-2.08 1.9-3.02 4.21-3.16 7.91v.42l-7.66-.51 1.17-11.03v-.4l.04.01.06-.54m13.99 2.29c.65.42 1.4 1.04 2.29 1.92 2.17 2.36 3.22 4.88 3.48 8.41l5.95.49-1.13-10-10.59-.82m-13.37-.33-.97 9.22 5.93.39c.22-3.74 1.24-6.12 3.43-8.11.79-.63 1.47-1.08 2.07-1.37l-10.36-.67v.66l-.1-.12"/><path fill="#ff0" d="m312.79 399.76 27.8 2.03c.61.12 1.01.64 1.06 1.41-.05.77-.44 1.21-1.06 1.22l-27.8-2.04c-.61-.09-1.01-.6-1.06-1.37.05-.77.44-1.23 1.06-1.25"/><path d="m312.79 399.34 27.8 2.03c.43.06.75.25 1.06.64.27.38.4.75.41 1.23-.01.48-.14.83-.41 1.16-.31.33-.62.46-1.06.44l-27.8-2.04c-.43-.04-.75-.22-1.06-.6-.27-.37-.4-.74-.41-1.22.01-.47.14-.83.41-1.17.31-.34.62-.48 1.06-.47m0 .84c-.45 0-.63.23-.65.85.01.27.07.48.22.67.13.17.26.25.43.26l27.8 2.04c.45.01.63-.21.65-.83-.02-.63-.2-.88-.65-.96l-27.8-2.03"/><path fill="#ff0" d="M322.9 400.36c.4-5.63 3.45-6.76 3.73-6.87.25.14 3.45 1.82 3.87 7.43l-7.6-.56"/><path d="M322.49 400.33c.08-2.51.68-4.24 1.97-5.79 1.01-1.09 1.65-1.5 2.19-1.47.55.12 1.22.64 2.2 1.81 1.35 1.75 1.97 3.59 2.06 6.07v.42l-8.01-.59v-.42l-.41-.03m.83-.36 6.76.5c-.15-2.07-.71-3.61-1.83-5.07-.83-.99-1.33-1.42-1.62-1.49h-.04l-.03-.01c-.23 0-.66.34-1.49 1.24-1.08 1.29-1.62 2.75-1.75 4.83"/><path fill="#ff0" d="m313.38 384.65 26.65 1.96c.59.11.97.58 1.02 1.27-.05.69-.43 1.09-1.02 1.1l-26.65-1.96c-.59-.09-.97-.55-1.02-1.24.05-.69.43-1.11 1.02-1.13"/><path d="m313.38 384.23 26.65 1.96c.99.14 1.38.61 1.43 1.73-.05 1.11-.44 1.5-1.43 1.48l-26.65-1.96c-.99-.12-1.38-.57-1.43-1.69.02-.44.14-.77.41-1.09.3-.31.6-.43 1.02-.43m0 .84c-.16 0-.28.05-.41.19-.13.15-.19.31-.2.54.02.53.19.75.61.8l26.65 1.96c.42.01.59-.19.61-.71a.991.991 0 0 0-.2-.58c-.13-.15-.25-.22-.41-.24l-26.65-1.96"/><path fill="#ff0" d="m313.94 387.07 25.48 1.87c.57.11.93.58.98 1.27-.05.69-.4 1.09-.98 1.1l-25.48-1.87c-.56-.09-.93-.55-.97-1.24.04-.69.4-1.11.97-1.13"/><path d="m313.94 386.65 25.48 1.87c.96.14 1.34.61 1.39 1.73-.01.44-.13.76-.38 1.07-.3.31-.59.43-1.01.41l-25.48-1.87c-.41-.04-.7-.21-1-.56-.25-.34-.37-.69-.38-1.13.05-1.11.42-1.52 1.38-1.52m0 .84c-.15 0-.26.05-.37.18-.13.16-.19.32-.19.55.02.53.17.75.56.8l25.48 1.87c.15 0 .26-.04.38-.17.13-.15.18-.31.19-.55-.02-.53-.18-.75-.57-.81l-25.48-1.87"/><path fill="#ff0" d="m322.17 369.82 2.02.14v1.47l1.46.1v-1.49l2.07.16v1.49l1.47.11v-1.5l2.06.16v3.38c-.05.55-.39.81-.9.8l-7.24-.53c-.51-.08-.88-.43-.93-.95l-.01-3.34"/><path d="m322.17 369.4 2.43.17v1.47l.64.04v-1.49l2.89.22v1.49l.65.05v-1.5l2.88.22v3.8c-.02.4-.14.67-.41.92-.27.21-.53.29-.9.27l-7.24-.53c-.93-.11-1.29-.49-1.34-1.4l-.01-3.76.24.02.17.01m.41.87.01 2.92c.02.32.16.46.52.5l7.24.53c.34.01.47-.1.49-.41v-2.96l-1.24-.1v1.5l-2.29-.17v-1.5l-1.25-.09v1.49l-2.28-.16v-1.47l-1.2-.08"/><path fill="#ff0" d="m329.75 374.89.46 10.87-7.06-.54.47-10.81 6.13.48"/><path d="m330.16 374.9.47 11.32-7.91-.61.5-11.65 6.53.51v.42l.41.01m-.8.38-5.35-.42-.43 9.97 6.2.48-.42-10.03"/><path fill="#ff0" d="m321.14 379.29.22 5.86-6.77-.44.19-5.83 6.36.41"/><path d="m321.55 379.3.23 6.3-7.61-.5.21-6.67 6.76.44v.34l.41.09m-1.01.37-5.36-.35-.17 5 5.92.38-.18-5.02-.21-.01"/><path fill="#ff0" d="m338.54 380.62.22 5.86-6.77-.55.19-5.83 6.36.52"/><path d="m338.95 380.64.23 6.3-7.61-.62.21-6.67 6.76.55v.33l.41.11m-1.01.35-5.36-.44-.17 4.99 5.92.49-.18-5.02-.21-.02"/><path fill="#ff0" d="m313.53 374.57 1.97.12v1.47l1.44.09v-1.5l2.01.14v1.49l1.45.1v-1.5l2.01.14v3.38c-.04.55-.37.81-.88.81l-7.08-.46c-.51-.08-.87-.42-.91-.94l-.01-3.34"/><path d="m313.53 374.15 2.38.15v1.46l.62.04v-1.5l2.83.2v1.49l.63.04v-1.5l2.83.2v3.8c-.01.39-.13.66-.39.91-.27.22-.54.3-.9.29l-7.08-.46c-.91-.11-1.27-.48-1.32-1.38l-.01-3.77.17.01.24.02m.41.86.01 2.92c.01.32.15.46.5.5l7.08.46c.33 0 .45-.11.47-.42v-2.96l-1.19-.08v1.5l-2.27-.16v-1.49l-1.19-.08v1.5l-2.26-.15v-1.46l-1.15-.08"/><path fill="#ff0" d="m330.93 375.77 1.97.16v1.46l1.44.12v-1.5l2.01.17v1.5l1.45.12v-1.5l2.01.17v3.38c-.04.55-.38.8-.88.79l-7.08-.57c-.51-.08-.87-.44-.92-.96v-3.34"/><path d="m330.93 375.35 2.38.19v1.47l.62.05v-1.5l2.83.24v1.49l.63.05v-1.5l2.83.25v3.79c-.01.4-.13.67-.4.91-.26.21-.53.29-.89.27l-7.08-.57c-.91-.12-1.28-.5-1.33-1.41v-3.76l.17.01.24.02m.41.87v2.92c.02.33.16.46.51.51l7.08.57c.33.02.45-.09.47-.41v-2.96l-1.19-.1v1.5l-2.27-.19v-1.49l-1.19-.1v1.49l-2.26-.18v-1.46l-1.15-.1M326 378.04c.11-1.06 1.28-.96 1.42.1v2.58l-1.42-.1v-2.58M317.25 381.18c.14-1.01 1.24-.95 1.36.09v2l-1.36-.09v-2M334.71 382.45c.13-1.01 1.23-.92 1.35.11v2l-1.35-.11v-2"/><path fill="#ff0" d="M319.91 478.65c.66-9.33 6.34-10.92 6.69-11.04.37.13 6.48 2.78 6.92 12.12l-13.61-1.08"/><path fill="#ff0" d="m314.37 466.97-1.12 10.59 6.79.45c.54-8.88 6.17-9.75 6.67-9.79.47.15 6.08 2.35 6.72 10.77l6.8.56-1.23-10.84-24.63-1.75v.01"/><path d="m314.06 465.98.49.57 24.82 1.77 1.33 11.69-7.67-.63-.01-.41c-.18-3.48-1.15-5.92-3.23-8.2-1.46-1.43-2.38-2.05-3.05-2.13h-.06l-.05-.01c-.65-.11-1.53.31-3.02 1.49-2.08 1.91-3.02 4.22-3.16 7.92v.41l-7.66-.5 1.17-11.04v-.39h.04l.06-.54m13.99 2.3c.65.41 1.4 1.04 2.29 1.91 2.17 2.36 3.22 4.88 3.48 8.41l5.95.49-1.13-9.99-10.59-.82m-13.37-.33-.97 9.22 5.93.39c.22-3.74 1.24-6.12 3.43-8.11.79-.64 1.47-1.08 2.07-1.37l-10.36-.67v.66l-.1-.12"/><path fill="#ff0" d="m312.79 477.57 27.8 2.04c.61.12 1.01.64 1.06 1.41-.05.77-.44 1.21-1.06 1.22l-27.8-2.04c-.61-.1-1.01-.6-1.06-1.37.05-.77.44-1.23 1.06-1.26"/><path d="m312.79 477.15 27.8 2.04c.43.06.75.24 1.06.63.27.38.4.76.41 1.24-.01.48-.14.82-.41 1.16-.31.33-.62.46-1.06.44l-27.8-2.04c-.43-.04-.75-.22-1.06-.6-.27-.37-.4-.74-.41-1.22.01-.48.14-.83.41-1.17.31-.35.62-.48 1.06-.48m0 .84c-.45.01-.63.24-.65.86.01.27.07.47.22.67.13.17.26.24.43.26l27.8 2.04c.45.01.63-.22.65-.83-.02-.63-.2-.89-.65-.96l-27.8-2.04"/><path fill="#ff0" d="M322.9 478.18c.4-5.64 3.45-6.76 3.73-6.87.25.14 3.45 1.82 3.87 7.43l-7.6-.56"/><path d="M322.49 478.15c.08-2.51.68-4.24 1.97-5.79 1.01-1.09 1.65-1.5 2.19-1.47.55.11 1.22.64 2.2 1.81 1.35 1.75 1.97 3.58 2.06 6.07v.42l-8.01-.59v-.42l-.41-.03m.83-.36 6.76.5c-.15-2.07-.71-3.62-1.83-5.08-.83-.98-1.33-1.41-1.62-1.48h-.04l-.03-.01c-.23 0-.66.34-1.49 1.23-1.08 1.3-1.62 2.76-1.75 4.84"/><path fill="#ff0" d="m313.38 462.47 26.65 1.96c.59.1.97.58 1.02 1.27-.05.69-.43 1.09-1.02 1.09l-26.65-1.95c-.59-.09-.97-.55-1.02-1.25.05-.68.43-1.1 1.02-1.12"/><path d="m313.38 462.05 26.65 1.96c.99.14 1.38.61 1.43 1.72-.05 1.11-.44 1.51-1.43 1.48l-26.65-1.95c-.99-.12-1.38-.58-1.43-1.69.02-.45.14-.77.41-1.09.3-.31.6-.44 1.02-.43m0 .84c-.16 0-.28.05-.41.18a.86.86 0 0 0-.2.55c.02.53.19.75.61.8l26.65 1.95c.42.01.59-.18.61-.71a.961.961 0 0 0-.2-.57c-.13-.15-.25-.22-.41-.24l-26.65-1.96"/><path fill="#ff0" d="m313.94 464.89 25.48 1.87c.57.11.93.57.98 1.27-.05.69-.4 1.09-.98 1.1l-25.48-1.87c-.56-.09-.93-.55-.97-1.25.04-.69.4-1.1.97-1.12"/><path d="m313.94 464.47 25.48 1.87c.96.14 1.34.61 1.39 1.72-.01.45-.13.77-.38 1.08-.3.31-.59.42-1.01.41l-25.48-1.87c-.41-.05-.7-.21-1-.56-.25-.35-.37-.69-.38-1.13.05-1.11.42-1.52 1.38-1.52m0 .84c-.15 0-.26.05-.37.18-.13.15-.19.32-.19.55.02.53.17.74.56.8l25.48 1.87c.15 0 .26-.05.38-.17.13-.15.18-.32.19-.55-.02-.53-.18-.75-.57-.81l-25.48-1.87"/><path fill="#ff0" d="m322.17 447.64 2.02.14v1.46l1.46.11v-1.5l2.07.16v1.49l1.47.11v-1.49l2.06.16v3.38c-.05.55-.39.8-.9.8l-7.24-.53c-.51-.08-.88-.43-.93-.95l-.01-3.34"/><path d="m322.17 447.22 2.43.17v1.46l.64.05v-1.5l2.89.22v1.49l.65.05v-1.49l2.88.22v3.8c-.02.4-.14.66-.41.91-.27.21-.53.3-.9.28l-7.24-.53c-.93-.11-1.29-.49-1.34-1.4l-.01-3.76.24.02v-.01l.17.02m.41.87.01 2.92c.02.32.16.46.52.5l7.24.53c.34.01.47-.1.49-.42v-2.96l-1.24-.09v1.5l-2.29-.18v-1.49l-1.25-.1v1.5l-2.28-.16v-1.47l-1.2-.08"/><path fill="#ff0" d="m329.75 452.71.46 10.87-7.06-.55.47-10.8 6.13.48"/><path d="m330.16 452.72.47 11.32-7.91-.62.5-11.64 6.53.51v.42l.41.01m-.8.38-5.35-.42-.43 9.97 6.2.48-.42-10.03"/><path fill="#ff0" d="m321.14 457.11.22 5.85-6.77-.43.19-5.84 6.36.42"/><path d="m321.55 457.12.23 6.29-7.61-.49.21-6.67 6.76.44v.33l.41.1m-1.01.37-5.36-.35-.17 4.99 5.92.39-.18-5.02-.21-.01"/><path fill="#ff0" d="m338.54 458.44.22 5.86-6.77-.55.19-5.83 6.36.52"/><path d="m338.95 458.46.23 6.29-7.61-.61.21-6.67 6.76.55v.33l.41.11m-1.01.35-5.36-.44-.17 4.99 5.92.48-.18-5.02-.21-.01"/><path fill="#ff0" d="m313.53 452.38 1.97.13v1.47l1.44.09v-1.5l2.01.13v1.5l1.45.1v-1.5l2.01.14v3.38c-.04.55-.37.8-.88.81l-7.08-.46c-.51-.08-.87-.43-.91-.94l-.01-3.34v-.01"/><path d="m313.53 451.96 2.38.16v1.46l.62.04v-1.5l2.83.19v1.5l.63.04v-1.5l2.83.2v3.8c-.01.39-.13.66-.39.91-.27.21-.54.3-.9.29l-7.08-.46c-.91-.11-1.27-.48-1.32-1.39l-.01-3.76.17.01.24.01m.41.87.01 2.92c.01.32.15.46.5.5l7.08.46c.33 0 .45-.11.47-.42v-2.96l-1.19-.09v1.5l-2.27-.15v-1.49l-1.19-.09v1.5l-2.26-.14v-1.47l-1.15-.07"/><path fill="#ff0" d="m330.93 453.59 1.97.16v1.46l1.44.12v-1.5l2.01.17v1.49l1.45.12v-1.5l2.01.18v3.38c-.04.55-.38.8-.88.79l-7.08-.57c-.51-.09-.87-.44-.92-.96v-3.34"/><path d="m330.93 453.17 2.38.19v1.47l.62.04v-1.5l2.83.24v1.5l.63.05v-1.5l2.83.24v3.8c-.01.4-.13.66-.4.91-.26.21-.53.29-.89.27l-7.08-.57c-.91-.12-1.28-.51-1.33-1.41v-3.76l.17.01.24.02m.41.87v2.92c.02.32.16.46.51.51l7.08.57c.33.01.45-.1.47-.41v-2.96l-1.19-.1v1.5l-2.27-.19v-1.5l-1.19-.1v1.5l-2.26-.18v-1.47l-1.15-.09M326 455.85c.11-1.05 1.28-.95 1.42.11v2.58l-1.42-.1v-2.59M317.25 459c.14-1.01 1.24-.95 1.36.09v1.99l-1.36-.09V459M334.71 460.27c.13-1.01 1.23-.92 1.35.11v2l-1.35-.11v-2"/><path fill="#ff0" d="M349.53 562.04c-6.01-7.61-3.4-12.94-3.25-13.27.34-.17 6.13-2.56 12.9 4.38l-9.65 8.89"/><path fill="#ff0" d="m337.78 557.05 6.6 8.89 4.79-4.49c-5.77-7.18-2.7-11.91-2.4-12.3.45-.23 5.55-2.57 11.83 3.49l4.8-4.46-8.3-7.52-17.32 16.38v.01"/><path d="m336.9 556.52.71.08 17.45-16.5 8.96 8.11-5.41 5.02-.29-.32c-2.53-2.57-4.85-3.75-7.78-4-1.95-.06-2.96.13-3.46.55l-.04.04-.04.03c-.5.38-.79 1.34-.94 3.31-.05 2.94.95 5.41 3.4 8.34l.29.33-5.4 5.05-6.88-9.26-.27-.3.03-.03-.33-.45m10.78-8.28c.72-.15 1.63-.22 2.82-.18 3.05.26 5.47 1.44 8.09 3.99l4.2-3.9-7.66-6.92-7.45 7.01m-9.01 9.33 5.74 7.74 4.19-3.92c-2.43-3.02-3.42-5.6-3.36-8.68.08-1.05.21-1.89.41-2.54l-7.29 6.92.46.5-.15-.02"/><path fill="#ff0" d="m344.09 566.28 19.58-18.31c.48-.36 1.09-.24 1.66.33.5.63.55 1.26.16 1.72l-19.58 18.27c-.48.37-1.09.26-1.66-.3-.5-.62-.56-1.26-.16-1.71"/><path d="m343.79 565.95 19.59-18.3c.32-.28.65-.36 1.12-.28.44.1.78.3 1.12.66.32.38.48.75.54 1.2.03.49-.08.81-.38 1.11l-19.58 18.27c-.33.28-.65.37-1.13.3-.43-.09-.77-.29-1.11-.65-.32-.37-.49-.73-.54-1.18-.03-.49.08-.82.37-1.13m.59.65c-.3.32-.26.63.16 1.12.19.2.38.31.61.36.2.03.34 0 .47-.11l19.58-18.28c.29-.32.25-.62-.16-1.12-.45-.47-.74-.54-1.08-.27l-19.58 18.3"/><path fill="#ff0" d="M351.17 559.55c-3.62-4.61-2.42-7.69-2.32-7.96.28-.08 3.5-1.1 7.67 2.95l-5.35 5.01"/><path d="M350.88 559.82c-1.67-1.98-2.49-3.77-2.72-5.87-.09-1.56.05-2.34.42-2.7.44-.31 1.23-.38 2.69-.19 2.08.38 3.76 1.35 5.54 3.21l.3.33-5.65 5.27-.29-.32-.29.27m.29-.87 4.77-4.46c-1.53-1.49-2.97-2.28-4.71-2.6-1.23-.16-1.84-.14-2.09.02l-.02.02-.02.02c-.15.16-.2.74-.12 2.02.18 1.76.85 3.28 2.19 4.98"/><path fill="#ff0" d="m334.02 554.33 18.77-17.71c.46-.35 1.03-.26 1.54.24.44.57.48 1.15.1 1.59l-18.77 17.68c-.46.36-1.03.28-1.54-.22-.45-.55-.48-1.14-.1-1.58"/><path d="m333.73 554.01 18.77-17.71c.74-.61 1.31-.53 2.12.29.73.89.76 1.48.1 2.18l-18.77 17.68c-.74.62-1.31.55-2.12-.26-.3-.35-.45-.69-.49-1.12-.01-.46.1-.77.39-1.06m.58.64c-.11.11-.16.24-.15.43.02.21.1.38.25.56.38.39.64.43.96.17l18.77-17.69c.28-.3.25-.57-.1-.99a.923.923 0 0 0-.53-.3c-.18-.02-.31.01-.43.11l-18.77 17.71"/><path fill="#ff0" d="m336.06 555.77 17.96-16.91c.44-.33.99-.24 1.5.27.45.56.5 1.14.14 1.56l-17.96 16.88c-.44.34-.99.25-1.51-.25-.44-.56-.49-1.13-.13-1.55"/><path d="m335.77 555.45 17.96-16.92c.71-.58 1.28-.5 2.08.33.3.35.45.69.5 1.11.02.45-.08.75-.36 1.04l-17.96 16.88c-.3.27-.61.35-1.05.29-.4-.08-.72-.26-1.04-.58-.73-.88-.76-1.46-.13-2.15m.58.64c-.1.1-.13.22-.13.4.03.21.11.38.26.56.38.39.63.44.93.2l17.96-16.89c.09-.1.13-.22.12-.4a.981.981 0 0 0-.25-.56c-.39-.4-.64-.46-.93-.22l-17.96 16.91"/><path fill="#ff0" d="m329.54 536.73 1.42-1.35 1.01 1.11 1.04-.98-1.04-1.14 1.46-1.38 1.03 1.13 1.04-.98-1.04-1.14 1.45-1.38 2.34 2.58c.36.45.31.89-.03 1.26l-5.09 4.85c-.4.31-.88.31-1.27-.05l-2.32-2.52v-.01"/><path d="m329.25 536.41 1.71-1.62 1.01 1.11.46-.44-1.04-1.13 2.04-1.93 1.03 1.13.46-.44-1.04-1.13 2.03-1.94 2.63 2.9c.27.32.38.61.37 1-.03.35-.14.61-.39.86l-5.1 4.85c-.69.58-1.19.56-1.85-.09l-2.61-2.85.16-.15v-.01l.13-.12m.87.37 2.02 2.21c.24.23.43.23.7 0l5.09-4.85c.23-.23.24-.42.03-.67l-2.04-2.26-.88.83 1.04 1.14-1.62 1.54-1.03-1.14-.88.83 1.04 1.14-1.61 1.54-1.02-1.12-.84.81"/><path fill="#ff0" d="m338.01 535.09 7.83 7.99-5 4.66-7.17-8.57 4.34-4.08"/><path d="m338.28 534.8 8.15 8.32-5.6 5.23-7.73-9.24 4.62-4.34.29.32.27-.29m-.26.87-3.79 3.56 6.63 7.91 4.38-4.1-7.22-7.37"/><path fill="#ff0" d="m335.42 544.67 4.2 4.31-4.76 4.52-3.92-4.56 4.48-4.27"/><path d="m335.7 544.38 4.51 4.64-5.36 5.09-4.48-5.22 4.76-4.54.23.26.34-.23m-.41 1.01-3.78 3.6 3.35 3.91 4.17-3.96-3.6-3.69-.14.14"/><path fill="#ff0" d="m347.68 533.09 4.2 4.35-4.77 4.48-3.91-4.61 4.48-4.22"/><path d="m347.96 532.8 4.51 4.68-5.36 5.04-4.48-5.27 4.76-4.49.23.26.34-.22m-.41 1.01-3.78 3.55 3.35 3.95 4.17-3.91-3.6-3.73-.14.14"/><path fill="#ff0" d="m327.13 546.57 1.39-1.32 1.01 1.11 1.02-.97-1.04-1.13 1.42-1.35 1.04 1.13 1.01-.97-1.04-1.14 1.43-1.35 2.34 2.57c.35.45.31.89-.02 1.25l-4.99 4.75c-.38.31-.86.31-1.26-.05l-2.31-2.52v-.01"/><path d="m326.84 546.26 1.68-1.6 1.01 1.11.43-.42-1.03-1.14 2-1.9 1.03 1.13.44-.41-1.04-1.14 2.01-1.9 2.63 2.89c.26.31.37.6.37.98-.03.36-.14.61-.39.86l-4.99 4.75c-.68.58-1.17.56-1.83-.09l-2.61-2.84.12-.12.17-.16m.87.36 2.02 2.2c.24.24.42.24.68.02l4.99-4.76c.22-.23.22-.4.02-.65l-2.05-2.26-.85.81 1.04 1.13-1.59 1.52-1.04-1.13-.84.8 1.03 1.14-1.59 1.51-1.01-1.11-.81.78"/><path fill="#ff0" d="m339.39 534.9 1.39-1.31 1.01 1.13 1.01-.96-1.03-1.15 1.42-1.34 1.04 1.15 1.01-.96-1.04-1.15 1.43-1.33 2.34 2.59c.35.46.31.89-.02 1.25l-4.99 4.7c-.39.31-.86.3-1.26-.06l-2.32-2.55.01-.01"/><path d="m339.1 534.58 1.67-1.58 1.02 1.12.44-.41-1.04-1.15 2-1.88 1.03 1.14.44-.41-1.04-1.15 2.01-1.88 2.62 2.92c.27.31.38.61.38.99-.03.35-.14.61-.39.86l-4.99 4.69c-.68.58-1.17.55-1.83-.11l-2.62-2.87.13-.12.17-.16m.87.37 2.02 2.23c.24.23.42.24.68.02l4.99-4.7c.22-.23.22-.4.02-.66l-2.05-2.27-.85.79 1.04 1.15-1.59 1.5-1.04-1.14-.84.79 1.03 1.15-1.59 1.5-1.01-1.12-.81.76M337.74 540.21c-.65-.88.16-1.67 1-.95l1.78 1.97-1 .95-1.78-1.97M334.17 548.91c-.6-.86.15-1.61.96-.91l1.38 1.52-.96.91-1.38-1.52M346.47 537.28c-.61-.87.14-1.61.95-.9l1.39 1.53-.96.9-1.38-1.53"/><path fill="#ff0" d="M394.88 408.22c.66-9.3 6.33-10.56 6.69-10.66.36.15 6.48 3.14 6.92 12.49l-13.61-1.83"/><path fill="#ff0" d="m389.34 396.21-1.12 10.52 6.79.85c.54-8.85 6.17-9.4 6.68-9.4.46.17 6.08 2.69 6.71 11.13l6.81.91-1.23-10.91-24.64-3.1"/><path d="m389.03 395.21.49.6 24.82 3.13 1.33 11.76-7.67-1.03-.01-.41c-.18-3.48-1.15-5.99-3.23-8.37-1.46-1.51-2.39-2.18-3.05-2.29l-.05-.01-.06-.01c-.65-.14-1.53.22-3.02 1.32-2.09 1.79-3.02 4.04-3.16 7.74v.41l-7.66-.95 1.17-10.97v-.39h.04l.06-.53m13.99 3.1c.65.44 1.4 1.11 2.29 2.03 2.17 2.48 3.22 5.06 3.48 8.6l5.95.79-1.13-10.05-10.59-1.37m-13.37-1.1-.97 9.16 5.93.74c.22-3.74 1.24-6.04 3.43-7.91.79-.59 1.47-1 2.08-1.26l-10.37-1.26v.65l-.1-.12"/><path fill="#ff0" d="m387.76 406.72 27.8 3.57c.61.15 1.01.69 1.06 1.46-.05.77-.44 1.19-1.06 1.17l-27.8-3.57c-.61-.14-1.01-.67-1.06-1.44.05-.77.44-1.2 1.06-1.19"/><path d="m387.76 406.3 27.8 3.57c.43.08.75.28 1.06.68.27.4.4.78.41 1.26-.01.48-.14.82-.41 1.14-.31.32-.62.43-1.06.39l-27.8-3.57c-.43-.07-.75-.27-1.06-.67-.27-.38-.4-.76-.41-1.24.01-.48.14-.82.41-1.15.31-.33.62-.44 1.06-.41m0 .84c-.45-.02-.63.2-.65.82.01.27.07.47.22.68.13.18.26.26.43.29l27.8 3.57c.45.03.63-.19.65-.8-.02-.63-.2-.9-.65-.99l-27.8-3.57"/><path fill="#ff0" d="M397.87 407.92c.4-5.63 3.44-6.57 3.73-6.66.24.15 3.45 2.02 3.87 7.64l-7.6-.98"/><path d="M397.46 407.87c.08-2.51.68-4.21 1.97-5.68 1.01-1.04 1.65-1.41 2.19-1.35.55.14 1.22.71 2.21 1.93 1.34 1.82 1.96 3.69 2.05 6.18v.42l-8.01-1.03v-.42l-.41-.05m.83-.32 6.76.87c-.15-2.07-.71-3.65-1.83-5.17-.83-1.03-1.33-1.49-1.62-1.57l-.04-.01h-.03c-.23-.02-.66.3-1.48 1.15-1.09 1.23-1.63 2.65-1.76 4.73"/><path fill="#ff0" d="m388.36 391.65 26.64 3.43c.59.13.97.63 1.02 1.32-.05.69-.42 1.07-1.02 1.04l-26.64-3.42c-.6-.13-.98-.61-1.03-1.3.05-.69.43-1.08 1.03-1.07"/><path d="m388.36 391.23 26.64 3.43c.98.19 1.38.68 1.43 1.8-.06 1.1-.44 1.48-1.43 1.4l-26.64-3.42c-.99-.18-1.38-.66-1.44-1.77.02-.45.14-.77.41-1.07.3-.29.6-.4 1.03-.37m0 .84a.521.521 0 0 0-.42.16c-.13.15-.19.31-.2.53.03.53.19.76.62.84l26.64 3.42c.42.03.58-.15.61-.68-.01-.22-.07-.4-.2-.58-.13-.16-.25-.23-.41-.26l-26.64-3.43"/><path fill="#ff0" d="m388.91 394.11 25.49 3.27c.56.13.92.62.97 1.32-.05.69-.4 1.07-.97 1.05l-25.49-3.28c-.56-.12-.93-.6-.97-1.3.04-.69.4-1.08.97-1.06"/><path d="m388.91 393.69 25.49 3.27c.95.19 1.33.68 1.38 1.79-.01.45-.13.76-.38 1.06-.3.29-.59.4-1 .36l-25.49-3.28c-.41-.06-.7-.25-1-.61a2.01 2.01 0 0 1-.38-1.16c.05-1.11.42-1.49 1.38-1.43m0 .84a.417.417 0 0 0-.37.15c-.13.15-.19.31-.19.54.02.53.17.76.56.83l25.49 3.28c.14.01.25-.03.37-.15.13-.15.18-.31.19-.54-.02-.53-.17-.76-.56-.84l-25.49-3.27"/><path fill="#ff0" d="m397.15 377.34 2.01.25v1.47l1.47.19v-1.5l2.06.27v1.49l1.47.19v-1.49l2.06.26v3.38c-.05.56-.38.79-.9.76l-7.24-.93c-.51-.11-.88-.48-.93-1l-.01-3.34h.01"/><path d="m397.15 376.92 2.42.31v1.46l.65.08v-1.49l2.88.37v1.49l.65.09v-1.5l2.88.38v3.8c-.02.4-.13.66-.41.89-.26.2-.53.27-.9.23l-7.24-.93c-.92-.17-1.29-.57-1.34-1.47l-.01-3.76.24.02.18.03m.4.89.01 2.92c.02.32.16.47.52.53l7.24.93c.34.03.47-.08.49-.39v-2.96l-1.24-.16v1.5l-2.29-.3v-1.49l-1.24-.17v1.5l-2.29-.29v-1.47l-1.2-.15"/><path fill="#ff0" d="m404.72 382.83.46 10.89-7.06-.93.47-10.78 6.13.82"/><path d="m405.13 382.86.47 11.34-7.91-1.05.51-11.61 6.52.87v.42l.41.03m-.8.33-5.35-.71-.43 9.95 6.2.82-.42-10.06"/><path fill="#ff0" d="m396.11 386.75.22 5.87-6.77-.84.19-5.82 6.36.79"/><path d="m396.52 386.78.23 6.31-7.61-.94.22-6.66 6.75.84v.33l.41.12m-1 .31-5.37-.66-.16 4.98 5.91.73-.18-5.02-.2-.03"/><path fill="#ff0" d="m413.51 389.01.22 5.88-6.77-.9.19-5.82 6.36.84"/><path d="m413.92 389.05.23 6.31-7.61-1.01.21-6.65 6.76.89v.34l.41.12m-1.01.3-5.36-.71-.17 4.98 5.92.79-.18-5.03-.21-.03"/><path fill="#ff0" d="m388.5 381.58 1.97.24v1.46l1.44.18v-1.5l2.01.26v1.49l1.45.18v-1.5l2.02.26-.01 3.38c-.04.55-.37.79-.88.76l-7.08-.88c-.5-.1-.87-.47-.92-.99v-3.34"/><path d="m388.5 381.16 2.38.29v1.46l.62.08v-1.5l2.83.36v1.49l.63.08v-1.5l2.84.36-.01 3.8c-.01.4-.13.66-.39.89-.27.2-.53.27-.9.24l-7.08-.88c-.91-.16-1.27-.55-1.33-1.46v-3.76l.17.02h.01l.23.03m.41.89v2.92c.02.32.16.46.51.52l7.08.88c.33.02.45-.08.47-.39v-2.96l-1.19-.15v1.49l-2.27-.28v-1.49l-1.19-.15v1.49l-2.26-.28v-1.46l-1.15-.14"/><path fill="#ff0" d="m405.9 383.77 1.97.26v1.47l1.44.19v-1.5l2.01.28v1.49l1.45.19v-1.5l2.01.28v3.38c-.04.55-.37.78-.88.75l-7.08-.94c-.5-.11-.87-.49-.92-1.01v-3.34"/><path d="m405.9 383.35 2.38.32v1.46l.62.08v-1.5l2.83.39v1.49l.63.09v-1.5l2.83.38v3.8c-.01.4-.13.66-.39.89-.27.2-.53.26-.9.23l-7.08-.94c-.91-.17-1.28-.57-1.33-1.48v-3.76l.17.02.24.03m.41.9v2.92c.02.32.16.46.51.53l7.08.94c.33.03.45-.08.47-.39v-2.96l-1.19-.16v1.5l-2.27-.31v-1.49l-1.19-.16v1.49l-2.26-.3v-1.46l-1.15-.15M400.97 385.77c.11-1.06 1.28-.88 1.42.18v2.58l-1.42-.18v-2.58M392.23 388.41c.14-1.01 1.23-.86 1.35.17v2l-1.35-.17v-2M409.68 390.65c.14-1.01 1.23-.85 1.35.18v2l-1.35-.18v-2"/><path fill="#ff0" d="M482.95 420.81c-.65-9.41-6.37-12.35-6.7-12.53-.39.05-6.47 1.24-6.91 10.53l13.61 2"/><path fill="#ff0" d="m488.49 410.34 1.12 10.83-6.79-1.03c-.54-8.93-6.19-11.14-6.68-11.28-.49.04-6.07.91-6.71 9.23l-6.81-1.04 1.23-10.55 24.64 3.84"/><path d="m488.8 409.42-.49.47-24.82-3.87-1.33 11.38 7.67 1.17.01-.41c.18-3.48 1.14-5.64 3.23-7.45 1.46-1.1 2.37-1.51 3.05-1.44l.05.02.06-.01c.63.05 1.54.67 3.02 2.18 2.07 2.35 3.02 4.92 3.16 8.62v.42l7.65 1.16-1.16-11.29v-.39l-.04-.01-.06-.55m-13.99-.8c-.66.26-1.4.71-2.29 1.38-2.18 1.88-3.22 4.1-3.48 7.61l-5.95-.91 1.13-9.72 10.59 1.64m13.37 2.63.97 9.43-5.93-.9c-.22-3.75-1.26-6.41-3.43-8.87-.79-.81-1.48-1.42-2.08-1.84l10.37 1.62v.66l.1-.1"/><path fill="#ff0" d="m490.06 421.28-27.79-4.25c-.62-.03-1.01.39-1.06 1.15.05.78.45 1.32 1.06 1.48l27.79 4.25c.63.04 1.02-.38 1.07-1.14-.05-.78-.45-1.33-1.07-1.49"/><path d="m490.06 420.86-27.79-4.25c-.44-.05-.75.06-1.06.38-.27.31-.4.65-.41 1.13.01.48.14.86.41 1.26.31.41.63.61 1.06.7l27.79 4.25c.45.05.75-.05 1.07-.37.27-.31.39-.65.41-1.13-.01-.48-.14-.87-.41-1.26-.31-.41-.63-.62-1.07-.71m0 .84c.46.11.64.38.66 1-.01.27-.07.46-.22.63-.14.13-.26.18-.44.16l-27.79-4.25c-.45-.1-.63-.37-.65-.99.02-.62.2-.84.65-.8l27.79 4.25"/><path fill="#ff0" d="M479.96 419.68c-.4-5.68-3.47-7.56-3.73-7.71-.28.09-3.45.98-3.87 6.54l7.6 1.17"/><path d="M480.37 419.74c-.08-2.51-.68-4.4-1.97-6.24-1.01-1.31-1.67-1.87-2.19-1.96-.56-.01-1.21.36-2.21 1.3-1.35 1.46-1.96 3.12-2.05 5.61v.42l8.01 1.23v-.42l.41.06m-.83-.55-6.76-1.04c.15-2.05.7-3.44 1.83-4.65.84-.8 1.32-1.12 1.62-1.11h.07c.21.05.67.5 1.48 1.57 1.08 1.53 1.63 3.14 1.76 5.23"/><path fill="#ff0" d="m489.47 406.06-26.64-4.08c-.6-.04-.97.34-1.02 1.03.05.69.43 1.19 1.02 1.33l26.64 4.08c.6.04.98-.33 1.03-1.02-.05-.7-.44-1.2-1.03-1.34"/><path d="m489.47 405.64-26.64-4.08c-.99-.1-1.38.28-1.43 1.38.05 1.12.45 1.62 1.43 1.82l26.64 4.08c1 .1 1.38-.27 1.44-1.38-.02-.44-.14-.8-.41-1.18-.3-.37-.61-.56-1.03-.64m0 .84c.17.03.29.11.42.27.13.18.19.36.2.58-.03.53-.19.71-.62.67l-26.64-4.08c-.42-.09-.59-.32-.61-.85.01-.23.07-.39.2-.53.13-.12.25-.16.41-.14l26.64 4.08"/><path fill="#ff0" d="m488.92 408.35-25.49-3.9c-.57-.03-.92.35-.97 1.04.04.69.41 1.19.97 1.33l25.49 3.9c.57.03.93-.34.97-1.03-.04-.7-.41-1.19-.97-1.34"/><path d="m488.92 407.93-25.49-3.9c-.96-.08-1.33.29-1.38 1.4.01.44.13.79.38 1.16.3.38.59.57 1 .65l25.49 3.9c.41.05.7-.05 1-.34.25-.29.37-.6.38-1.05-.05-1.11-.43-1.61-1.38-1.82m0 .84c.14.03.25.11.37.26.13.18.19.37.19.6-.02.52-.17.7-.56.67l-25.49-3.9c-.14-.03-.25-.11-.37-.26-.13-.18-.18-.36-.19-.59.02-.53.17-.71.56-.68l25.49 3.9"/><path fill="#ff0" d="m480.68 389.29-2.01-.3v1.46l-1.47-.22v-1.5l-2.06-.31v1.49l-1.47-.22v-1.5l-2.06-.32v3.39c.05.56.39.89.9 1.01l7.24 1.11c.52.03.88-.23.93-.74l.01-3.34-.01-.01"/><path d="m480.68 388.87-2.42-.36v1.46l-.65-.1v-1.5l-2.88-.43v1.49l-.65-.1v-1.5l-2.88-.44v3.8c.02.4.14.7.41 1.01.26.27.54.42.9.49l7.24 1.11c.93.09 1.29-.2 1.34-1.1l.01-3.76-.24-.04-.18-.03m-.4.78-.01 2.92c-.02.32-.16.42-.52.39l-7.24-1.11c-.34-.07-.47-.22-.49-.53v-2.96l1.24.19v1.49l2.29.35v-1.49l1.24.19v1.49l2.29.35v-1.46l1.2.18"/><path fill="#ff0" d="m473.11 392.65-.46 10.77 7.06 1.05-.47-10.91-6.13-.91"/><path d="m472.7 392.57-.48 11.21 7.92 1.18-.51-11.76-6.52-.97v.42l-.41-.08m.8.56 5.35.79.43 10.07-6.2-.93.42-9.93"/><path fill="#ff0" d="m481.72 399-.22 5.81 6.77 1.04-.19-5.87-6.36-.98"/><path d="m481.31 398.92-.23 6.24 7.61 1.18-.22-6.72-6.75-1.04v.33l-.41.01m1 .59 5.37.83.16 5.03-5.91-.92.18-4.97.2.03"/><path fill="#ff0" d="m464.32 396.34-.22 5.81 6.77 1.03-.19-5.88-6.36-.96"/><path d="m463.91 396.26-.23 6.24 7.61 1.16-.22-6.72-6.75-1.02v.33l-.41.01m1.01.59 5.36.81.17 5.03-5.92-.9.18-4.97.21.03"/><path fill="#ff0" d="m489.33 395.94-1.97-.3v1.46l-1.44-.22v-1.5l-2.01-.3v1.49l-1.45-.22v-1.5l-2.02-.31.01 3.38c.04.56.38.89.88 1.01l7.08 1.09c.51.04.87-.23.91-.74l.01-3.34"/><path d="m489.33 395.52-2.38-.36v1.46l-.62-.1v-1.5l-2.83-.42v1.49l-.63-.1v-1.5l-2.84-.43.01 3.8c.01.39.13.69.39 1 .27.27.54.42.9.49l7.08 1.09c.92.09 1.27-.2 1.32-1.1l.01-3.76-.18-.03-.23-.03m-.41.77-.01 2.92c-.01.32-.15.43-.5.39l-7.08-1.09c-.33-.07-.46-.21-.47-.53l-.01-2.96 1.2.19v1.5l2.27.34v-1.49l1.19.18v1.5l2.26.35v-1.47l1.15.17"/><path fill="#ff0" d="m471.93 393.26-1.97-.29v1.46l-1.44-.22v-1.5l-2.01-.3v1.5l-1.45-.22v-1.5l-2.01-.3v3.38c.04.55.38.89.88 1l7.08 1.08c.51.03.87-.23.91-.75l.01-3.34"/><path d="m471.93 392.84-2.38-.35v1.46l-.62-.1v-1.5l-2.83-.42v1.5l-.63-.1v-1.5l-2.83-.42v3.79c.01.4.13.7.39 1.01.27.27.54.41.9.48l7.08 1.08c.92.09 1.27-.21 1.32-1.1l.01-3.76-.17-.03-.24-.04m-.41.78-.01 2.92c-.01.32-.15.42-.5.39l-7.08-1.08c-.33-.07-.45-.21-.47-.52v-2.96l1.19.18v1.5l2.27.34v-1.5l1.19.18v1.5l2.26.34v-1.46l1.15.17M476.86 396.65c-.11-1.04-1.28-1.28-1.42-.21v2.58l1.42.21v-2.58M485.6 401.75c-.13-1.02-1.22-1.25-1.35-.21v1.99l1.35.21v-1.99M468.15 399.07c-.13-1.02-1.22-1.24-1.35-.21v2l1.35.2v-1.99"/><path fill="#ff0" d="M482.95 498.62c-.65-9.4-6.37-12.34-6.7-12.53-.39.05-6.47 1.25-6.91 10.53l13.61 2"/><path fill="#ff0" d="m488.49 488.16 1.12 10.83-6.79-1.04c-.54-8.93-6.19-11.13-6.68-11.27-.49.04-6.07.9-6.71 9.22l-6.81-1.03 1.23-10.55 24.64 3.83v.01"/><path d="m488.8 487.24-.49.47-24.82-3.87-1.33 11.38 7.67 1.16.01-.4c.18-3.48 1.14-5.65 3.23-7.45 1.46-1.11 2.37-1.51 3.05-1.44l.05.01h.06c.63.04 1.54.66 3.02 2.18 2.07 2.35 3.02 4.92 3.16 8.61v.42l7.65 1.17-1.16-11.29v-.39l-.04-.01-.06-.55m-13.99-.81c-.66.27-1.4.71-2.29 1.39-2.18 1.88-3.22 4.1-3.48 7.6l-5.95-.9 1.13-9.73 10.59 1.64m13.37 2.64.97 9.43-5.93-.9c-.22-3.76-1.26-6.41-3.43-8.87-.79-.82-1.48-1.42-2.08-1.84l10.37 1.62v.66l.1-.1"/><path fill="#ff0" d="m490.06 499.1-27.79-4.25c-.62-.04-1.01.39-1.06 1.15.05.77.45 1.32 1.06 1.48l27.79 4.25c.63.03 1.02-.38 1.07-1.15-.05-.77-.45-1.32-1.07-1.48"/><path d="m490.06 498.68-27.79-4.25c-.44-.05-.75.06-1.06.37-.27.32-.4.66-.41 1.14.01.48.14.86.41 1.26.31.41.63.61 1.06.7l27.79 4.25c.45.05.75-.06 1.07-.37.27-.32.39-.65.41-1.13-.01-.48-.14-.87-.41-1.26-.31-.41-.63-.62-1.07-.71m0 .84c.46.1.64.38.66 1-.01.27-.07.45-.22.62-.14.14-.26.19-.44.17l-27.79-4.25c-.45-.11-.63-.38-.65-1 .02-.62.2-.83.65-.79l27.79 4.25"/><path fill="#ff0" d="M479.96 497.49c-.4-5.67-3.47-7.55-3.73-7.71-.28.09-3.45.99-3.87 6.55l7.6 1.16"/><path d="M480.37 497.55c-.08-2.5-.68-4.4-1.97-6.23-1.01-1.31-1.67-1.87-2.19-1.96-.56-.01-1.21.36-2.21 1.3-1.35 1.45-1.96 3.11-2.05 5.6v.43l8.01 1.22v-.42l.41.06m-.83-.54-6.76-1.04c.15-2.05.7-3.44 1.83-4.65.84-.8 1.32-1.12 1.62-1.12l.04.01h.03c.21.05.67.5 1.48 1.57 1.08 1.53 1.63 3.14 1.76 5.23"/><path fill="#ff0" d="m489.47 483.87-26.64-4.08c-.6-.03-.97.35-1.02 1.03.05.7.43 1.2 1.02 1.34l26.64 4.08c.6.04.98-.34 1.03-1.03-.05-.69-.44-1.19-1.03-1.34"/><path d="m489.47 483.45-26.64-4.08c-.99-.09-1.38.28-1.43 1.39.05 1.12.45 1.61 1.43 1.82l26.64 4.08c1 .1 1.38-.28 1.44-1.38-.02-.45-.14-.8-.41-1.18-.3-.37-.61-.57-1.03-.65m0 .84c.17.04.29.12.42.27.13.19.19.36.2.59-.03.53-.19.71-.62.67l-26.64-4.08c-.42-.09-.59-.32-.61-.86.01-.22.07-.38.2-.52.13-.12.25-.16.41-.15l26.64 4.08"/><path fill="#ff0" d="m488.92 486.17-25.49-3.9c-.57-.03-.92.35-.97 1.04.04.69.41 1.18.97 1.33l25.49 3.9c.57.03.93-.35.97-1.03-.04-.7-.41-1.19-.97-1.34"/><path d="m488.92 485.75-25.49-3.9c-.96-.09-1.33.29-1.38 1.39.01.45.13.8.38 1.17.3.38.59.57 1 .65l25.49 3.9c.41.04.7-.05 1-.34.25-.29.37-.61.38-1.05-.05-1.12-.43-1.61-1.38-1.82m0 .84c.14.03.25.11.37.26.13.18.19.36.19.59-.02.53-.17.71-.56.68l-25.49-3.9c-.14-.03-.25-.11-.37-.26-.13-.18-.18-.36-.19-.59.02-.53.17-.71.56-.68l25.49 3.9"/><path fill="#ff0" d="m480.68 467.11-2.01-.3v1.46l-1.47-.23v-1.49l-2.06-.31v1.49l-1.47-.23v-1.49l-2.06-.32v3.38c.05.56.39.9.9 1.01l7.24 1.11c.52.04.88-.23.93-.74l.01-3.34h-.01"/><path d="m480.68 466.69-2.42-.37v1.47l-.65-.1v-1.5l-2.88-.43v1.49l-.65-.1v-1.5l-2.88-.44v3.8c.02.4.14.7.41 1.01.26.27.54.42.9.48l7.24 1.11c.93.1 1.29-.19 1.34-1.09l.01-3.76-.24-.04-.18-.03m-.4.78-.01 2.92c-.02.32-.16.42-.52.38l-7.24-1.11c-.34-.06-.47-.21-.49-.53v-2.95l1.24.18v1.5l2.29.35v-1.49l1.24.19v1.49l2.29.35v-1.46l1.2.18"/><path fill="#ff0" d="m473.11 470.47-.46 10.77 7.06 1.05-.47-10.91-6.13-.91"/><path d="m472.7 470.39-.48 11.2 7.92 1.19-.51-11.76-6.52-.97v.42l-.41-.08m.8.56 5.35.79.43 10.07-6.2-.93.42-9.93"/><path fill="#ff0" d="m481.72 476.81-.22 5.81 6.77 1.05-.19-5.88-6.36-.98"/><path d="m481.31 476.73-.23 6.25 7.61 1.17-.22-6.71-6.75-1.05v.34h-.41m1 .6 5.37.82.16 5.03-5.91-.91.18-4.98.2.04"/><path fill="#ff0" d="m464.32 474.16-.22 5.8 6.77 1.04-.19-5.88-6.36-.97v.01"/><path d="m463.91 474.08-.23 6.24 7.61 1.16-.22-6.72-6.75-1.03v.34l-.41.01m1.01.59 5.36.81.17 5.03-5.92-.9.18-4.98.21.04"/><path fill="#ff0" d="m489.33 473.75-1.97-.3v1.47l-1.44-.22v-1.5l-2.01-.31v1.5l-1.45-.22v-1.5l-2.02-.31.01 3.38c.04.56.38.89.88 1l7.08 1.1c.51.03.87-.23.91-.74l.01-3.34v-.01"/><path d="m489.33 473.33-2.38-.36v1.47l-.62-.1v-1.5l-2.83-.43v1.5l-.63-.1v-1.5l-2.84-.43.01 3.8c.01.39.13.69.39 1 .27.27.54.42.9.48l7.08 1.1c.92.09 1.27-.2 1.32-1.1l.01-3.76-.18-.03-.23-.04m-.41.78-.01 2.92c-.01.32-.15.42-.5.39l-7.08-1.1c-.33-.06-.46-.2-.47-.52l-.01-2.96 1.2.18v1.5l2.27.35v-1.49l1.19.18v1.49l2.26.35v-1.46l1.15.17"/><path fill="#ff0" d="m471.93 471.08-1.97-.3v1.47l-1.44-.22v-1.5l-2.01-.3v1.49l-1.45-.21v-1.5l-2.01-.31v3.38c.04.56.38.9.88 1.01l7.08 1.07c.51.04.87-.23.91-.74l.01-3.34"/><path d="m471.93 470.66-2.38-.36v1.47l-.62-.1v-1.5l-2.83-.42v1.49l-.63-.09v-1.5l-2.83-.43v3.8c.01.4.13.7.39 1 .27.28.54.42.9.49l7.08 1.07c.92.1 1.27-.2 1.32-1.1l.01-3.76-.17-.02v-.01l-.24-.03m-.41.78-.01 2.92c-.01.32-.15.42-.5.38l-7.08-1.07c-.33-.07-.45-.21-.47-.53v-2.95l1.19.17v1.5l2.27.35v-1.5l1.19.18v1.5l2.26.34v-1.47l1.15.18M476.86 474.47c-.11-1.05-1.28-1.28-1.42-.22v2.58l1.42.22v-2.58M485.6 479.56c-.13-1.01-1.22-1.24-1.35-.21v2l1.35.21v-2M468.15 476.89c-.13-1.02-1.22-1.25-1.35-.21v2l1.35.2v-1.99"/><path fill="#ff0" d="M453.33 575.13c6-6.16 3.4-12.11 3.25-12.49-.35-.25-6.13-4.02-12.9 1.23l9.65 11.26"/><path fill="#ff0" d="m465.08 572.94-6.6 7.33-4.79-5.64c5.77-5.78 2.7-11.26 2.4-11.72-.45-.35-5.56-3.91-11.84.59l-4.79-5.64 8.3-5.46 17.32 20.54"/><path d="m465.96 572.62-.71-.08-17.45-20.7-8.96 5.89 5.41 6.36.29-.24c2.54-1.96 4.81-2.57 7.78-2.1 1.93.41 2.97.85 3.46 1.39l.04.05.04.04c.49.5.79 1.54.94 3.54.05 2.99-.93 5.17-3.41 7.52l-.28.25 5.4 6.36 6.87-7.63.28-.24-.03-.04.33-.37m-10.79-10.84c-.71-.33-1.63-.61-2.81-.86-3.09-.49-5.46.09-8.09 2l-4.2-4.94 7.66-5.03 7.44 8.83m9.02 11.48-5.74 6.38-4.19-4.93c2.44-2.45 3.42-4.74 3.36-7.87-.08-1.07-.21-1.94-.41-2.64l7.29 8.65-.46.39.15.02"/><path fill="#ff0" d="m458.77 580.68-19.58-23.1c-.48-.48-1.09-.51-1.66-.08-.5.5-.56 1.12-.16 1.67l19.58 23.09c.48.48 1.09.51 1.66.09.5-.5.56-1.12.16-1.67"/><path d="m459.06 580.42-19.58-23.09c-.32-.35-.65-.52-1.12-.56-.44-.01-.78.11-1.12.39-.32.3-.49.61-.54 1.06-.03.47.08.83.38 1.21l19.58 23.08c.32.35.65.52 1.12.56.45.01.78-.1 1.12-.38.32-.3.48-.61.54-1.05.03-.48-.08-.84-.38-1.22m-.58.51c.3.39.26.69-.16 1.08-.19.16-.37.22-.61.21a.636.636 0 0 1-.47-.22l-19.58-23.08c-.3-.4-.25-.69.16-1.08.45-.36.74-.36 1.08 0l19.58 23.09"/><path fill="#ff0" d="M451.69 572.24c3.62-3.73 2.42-7.09 2.32-7.4-.29-.15-3.5-1.94-7.68 1.08l5.36 6.32"/><path d="M451.98 572.58c1.68-1.58 2.49-3.13 2.72-5.21.09-1.53-.05-2.35-.42-2.8-.44-.41-1.24-.68-2.69-.85-2.11-.12-3.75.42-5.54 1.86l-.3.25 5.65 6.66.29-.25.29.34m-.29-.94-4.77-5.62c1.54-1.13 2.94-1.56 4.71-1.45 1.22.13 1.84.3 2.09.53l.02.02.02.03c.15.19.2.79.12 2.04-.19 1.74-.84 3.07-2.19 4.45"/><path fill="#ff0" d="m468.84 571.1-18.77-22.18c-.46-.47-1.03-.51-1.54-.14-.44.46-.48 1.03-.1 1.56l18.77 22.18c.46.47 1.03.52 1.54.14.44-.45.48-1.03.1-1.56"/><path d="m469.13 570.85-18.77-22.19c-.74-.79-1.31-.85-2.12-.22-.73.71-.76 1.3-.1 2.15l18.77 22.18c.74.8 1.31.86 2.12.24.3-.28.45-.58.49-1.01.01-.44-.1-.79-.39-1.15m-.58.51c.11.14.16.28.15.46-.02.21-.1.36-.25.5-.38.3-.64.29-.96-.05l-18.77-22.18c-.28-.37-.25-.63.1-.97.16-.13.32-.18.53-.17.18.02.31.09.43.22l18.77 22.19"/><path fill="#ff0" d="m466.8 572.07-17.96-21.22c-.44-.44-.99-.47-1.51-.1-.44.46-.49 1.02-.13 1.53l17.96 21.21c.44.44.99.48 1.51.1.44-.45.49-1.01.13-1.52"/><path d="m467.09 571.82-17.96-21.22c-.72-.76-1.28-.81-2.08-.19-.3.28-.45.58-.5.99-.02.44.08.78.36 1.13l17.96 21.21c.3.33.61.49 1.05.54.41.01.72-.09 1.03-.35.74-.7.77-1.28.14-2.11m-.58.5c.09.13.13.26.12.43-.02.21-.1.36-.25.5-.39.3-.64.3-.93-.02l-17.96-21.2a.652.652 0 0 1-.12-.44c.02-.2.1-.35.25-.5.38-.3.63-.29.93.02l17.96 21.21"/><path fill="#ff0" d="m473.32 554.54-1.42-1.67-1.01.87-1.04-1.22 1.04-.9-1.46-1.72-1.03.9-1.04-1.23 1.04-.9-1.46-1.72-2.33 2.03c-.36.37-.31.83.03 1.28l5.09 6.03c.4.41.88.52 1.27.25l2.32-1.99v-.01"/><path d="m473.61 554.29-1.71-2.02-1.01.88-.46-.54 1.04-.9-2.04-2.4-1.03.89-.46-.54 1.04-.9-2.03-2.4-2.63 2.28c-.27.25-.38.51-.38.91.03.35.15.65.4.96l5.1 6.03c.69.75 1.19.84 1.85.34l2.61-2.24-.16-.2-.13-.15m-.87.16-2.02 1.75c-.24.17-.43.13-.7-.16l-5.09-6.04c-.23-.29-.24-.47-.03-.68l2.04-1.77.88 1.03-1.04.9 1.62 1.91 1.03-.89.88 1.03-1.04.9 1.61 1.9 1.02-.87.84.99"/><path fill="#ff0" d="m464.85 550.93-7.83 6.13 4.99 5.86 7.18-6.89-4.34-5.1"/><path d="m464.57 550.58-8.14 6.37 5.6 6.58 7.73-7.43-4.62-5.42-.29.25-.28-.35m.27.93 3.79 4.44-6.63 6.36-4.38-5.15 7.22-5.65"/><path fill="#ff0" d="m467.44 561.12-4.2 3.32 4.76 5.65 3.92-3.66-4.48-5.31"/><path d="m467.16 560.77-4.51 3.57 5.36 6.35 4.48-4.19-4.76-5.63-.23.2-.34-.3m.41 1.1 3.78 4.48-3.35 3.13-4.17-4.93 3.59-2.85.15.17"/><path fill="#ff0" d="m455.18 546.62-4.2 3.34 4.76 5.63 3.92-3.67-4.48-5.3"/><path d="m454.9 546.27-4.51 3.59 5.36 6.34 4.48-4.2-4.76-5.63-.23.2-.34-.3m.41 1.1 3.78 4.47-3.35 3.14-4.17-4.92 3.6-2.85.14.16"/><path fill="#ff0" d="m475.73 564.93-1.39-1.64-1.01.88-1.02-1.2 1.04-.9-1.42-1.67-1.04.89-1.01-1.2 1.03-.9-1.42-1.68-2.34 2.03c-.35.36-.31.81.02 1.25l4.99 5.91c.38.4.86.5 1.26.23l2.31-1.99v-.01"/><path d="m476.02 564.68-1.68-1.98-1.01.88-.44-.52 1.04-.9-2-2.36-1.04.9-.43-.52 1.04-.9-2.01-2.37-2.63 2.28c-.26.25-.37.51-.37.9.02.35.14.64.39.95l4.99 5.91c.68.74 1.17.82 1.83.33l2.61-2.25-.12-.15-.17-.2m-.87.17-2.02 1.74c-.24.18-.42.14-.68-.14l-4.99-5.91c-.22-.28-.22-.46-.02-.66l2.05-1.78.84 1-1.03.9 1.59 1.88 1.04-.89.84.99-1.04.9 1.6 1.89 1.01-.88.81.96"/><path fill="#ff0" d="m463.47 550.42-1.39-1.64-1.01.88-1.02-1.2 1.04-.9-1.42-1.67-1.04.9-1.01-1.2 1.04-.91-1.43-1.67-2.34 2.03c-.35.37-.31.82.02 1.26l4.99 5.89c.38.4.86.5 1.25.23l2.32-2"/><path d="m463.76 550.17-1.68-1.98-1.01.88-.44-.52 1.04-.9-2-2.35-1.03.89-.44-.52 1.04-.9-2.01-2.36-2.63 2.29c-.26.25-.37.51-.37.89.03.36.14.65.39.96l4.99 5.89c.68.74 1.17.83 1.83.33l2.61-2.26-.12-.14-.17-.2m-.87.16-2.02 1.75c-.24.18-.42.14-.68-.14l-4.99-5.9c-.22-.28-.22-.46-.02-.66l2.05-1.78.85 1-1.04.9 1.59 1.88 1.04-.9.84 1-1.04.9 1.6 1.88 1.01-.88.81.95M465.12 556.11c.65-.72-.17-1.7-1-1.18l-1.79 1.55 1 1.18 1.79-1.54v-.01M468.69 565.65c.6-.72-.15-1.65-.96-1.13l-1.38 1.2.95 1.13 1.39-1.2M456.39 551.11c.61-.72-.15-1.65-.95-1.13l-1.39 1.2.96 1.13 1.38-1.2"/><path fill="#039" d="M389.52 488.15v.01c.13 3.84 1.4 7.1 3.63 10.01 2.43 2.78 5.2 4.48 8.7 5.09 3.56.3 6.25-.67 8.69-2.83 2.24-2.34 3.48-5.22 3.61-9.08v-18.09l-24.58-3.19-.05 18.08"/><path fill="#fff" d="M397.6 477.95c-.12 1.45-1 2.25-2.44 2.19-1.42-.3-2.32-1.33-2.44-2.8.12-1.46 1.01-2.25 2.44-2.19 1.42.29 2.32 1.33 2.44 2.8M411.24 479.74c-.12 1.45-1 2.24-2.44 2.17-1.42-.31-2.32-1.35-2.43-2.82.11-1.45 1-2.25 2.43-2.18 1.42.31 2.33 1.36 2.44 2.83M404.41 485.54c-.12 1.46-1.01 2.25-2.44 2.18-1.42-.3-2.32-1.34-2.44-2.81.12-1.45 1-2.25 2.44-2.18 1.42.3 2.32 1.34 2.44 2.81M397.6 491.69c-.12 1.46-1 2.25-2.44 2.19-1.42-.29-2.32-1.33-2.44-2.8.12-1.45 1.01-2.25 2.44-2.19 1.42.3 2.32 1.33 2.44 2.8M411.23 493.45c-.12 1.45-1.01 2.24-2.44 2.17-1.42-.31-2.32-1.35-2.44-2.82.12-1.45 1-2.24 2.44-2.17 1.42.3 2.32 1.35 2.44 2.82"/><path fill="#039" d="M389.52 444.45v.01c.13 3.83 1.4 7.1 3.63 10 2.43 2.78 5.2 4.49 8.7 5.09 3.56.3 6.25-.67 8.69-2.83 2.24-2.34 3.48-5.22 3.61-9.08v-18.09l-24.58-3.19-.05 18.09"/><path fill="#fff" d="M397.6 434.24c-.12 1.46-1 2.25-2.44 2.19-1.42-.29-2.32-1.33-2.44-2.8.12-1.45 1.01-2.25 2.44-2.19 1.42.29 2.32 1.33 2.44 2.8M411.24 436.03c-.12 1.45-1 2.24-2.44 2.17-1.42-.3-2.32-1.35-2.43-2.82.11-1.45 1-2.24 2.43-2.17 1.42.3 2.33 1.35 2.44 2.82M404.41 441.84c-.12 1.45-1.01 2.24-2.44 2.18-1.42-.3-2.32-1.34-2.44-2.81.12-1.46 1-2.25 2.44-2.19 1.42.3 2.32 1.35 2.44 2.82M397.6 447.99c-.12 1.45-1 2.25-2.44 2.19-1.42-.3-2.32-1.33-2.44-2.8.12-1.46 1.01-2.26 2.44-2.2 1.42.3 2.32 1.34 2.44 2.81M411.23 449.74c-.12 1.46-1.01 2.24-2.44 2.17-1.42-.3-2.32-1.34-2.44-2.81.12-1.46 1-2.25 2.44-2.18 1.42.31 2.32 1.35 2.44 2.82"/><path fill="#039" d="M355.41 484.38v.01c.13 3.84 1.4 7.07 3.63 9.92 2.43 2.73 5.2 4.37 8.7 4.9 3.55.23 6.25-.8 8.69-3.01 2.24-2.38 3.48-5.28 3.61-9.15v-18.09l-24.58-2.66-.05 18.08"/><path fill="#fff" d="M363.49 473.99c-.12 1.46-1 2.28-2.44 2.25-1.42-.26-2.32-1.28-2.44-2.75.12-1.45 1.01-2.27 2.44-2.24 1.42.26 2.32 1.28 2.44 2.74M377.13 475.5c-.12 1.45-1 2.26-2.44 2.22-1.42-.28-2.32-1.3-2.43-2.77.11-1.46 1-2.27 2.43-2.23 1.42.28 2.32 1.31 2.44 2.78M370.3 481.44c-.12 1.46-1.01 2.27-2.44 2.23-1.42-.27-2.32-1.28-2.44-2.75.12-1.46 1-2.27 2.44-2.24 1.42.27 2.32 1.29 2.44 2.76M363.49 487.74c-.12 1.46-1 2.27-2.44 2.24-1.42-.26-2.32-1.27-2.44-2.74.12-1.46 1.01-2.28 2.44-2.25 1.42.26 2.32 1.28 2.44 2.75M377.11 489.21c-.11 1.46-1 2.26-2.43 2.22-1.42-.28-2.32-1.3-2.44-2.77.12-1.46 1-2.27 2.44-2.22 1.42.27 2.32 1.3 2.43 2.77"/><path fill="#039" d="M423.54 492.61v.01c.13 3.84 1.4 7.12 3.63 10.06 2.43 2.82 5.21 4.57 8.7 5.23 3.56.36 6.25-.58 8.69-2.71 2.24-2.31 3.49-5.17 3.62-9.03v-18.09l-24.59-3.55-.05 18.08"/><path fill="#fff" d="M431.62 482.54c-.12 1.45-1 2.23-2.44 2.15-1.42-.32-2.32-1.37-2.43-2.84.11-1.46 1-2.24 2.43-2.16 1.42.32 2.33 1.38 2.44 2.85M445.26 484.52c-.11 1.45-1 2.23-2.44 2.14-1.41-.32-2.32-1.38-2.43-2.85.11-1.46 1-2.23 2.43-2.14 1.42.32 2.33 1.38 2.44 2.85M438.43 490.23c-.12 1.46-1 2.24-2.44 2.15-1.42-.32-2.32-1.38-2.44-2.85.12-1.45 1-2.23 2.44-2.15 1.42.33 2.32 1.38 2.44 2.85M431.62 496.28c-.12 1.46-1 2.24-2.44 2.15-1.42-.32-2.32-1.37-2.43-2.84.11-1.45 1-2.24 2.43-2.15 1.42.32 2.33 1.37 2.44 2.84M445.25 498.23c-.12 1.46-1 2.23-2.44 2.14-1.42-.32-2.32-1.38-2.44-2.85.12-1.45 1-2.23 2.44-2.14 1.42.32 2.32 1.38 2.44 2.85"/><path fill="#039" d="M389.52 531.47v.01c.13 3.84 1.4 7.1 3.63 10 2.43 2.78 5.2 4.49 8.7 5.1 3.56.3 6.25-.67 8.69-2.84 2.24-2.34 3.48-5.21 3.61-9.08v-18.09l-24.58-3.18-.05 18.08"/><path fill="#fff" d="M397.6 521.27c-.12 1.45-1 2.25-2.44 2.19-1.42-.3-2.32-1.33-2.44-2.8.12-1.46 1.01-2.26 2.44-2.2 1.42.3 2.32 1.34 2.44 2.81M411.24 523.05c-.12 1.46-1 2.25-2.44 2.18-1.42-.31-2.32-1.35-2.43-2.82.11-1.46 1-2.25 2.43-2.18 1.42.31 2.33 1.35 2.44 2.82M404.41 528.86c-.12 1.46-1.01 2.25-2.44 2.18-1.42-.3-2.32-1.34-2.44-2.81.12-1.45 1-2.25 2.44-2.18 1.42.3 2.32 1.34 2.44 2.81M397.6 535.01c-.12 1.46-1 2.25-2.44 2.19-1.42-.29-2.32-1.33-2.44-2.8.12-1.46 1.01-2.25 2.44-2.19 1.42.29 2.32 1.33 2.44 2.8M411.23 536.76c-.12 1.46-1.01 2.25-2.44 2.18-1.42-.31-2.32-1.35-2.44-2.82.12-1.46 1-2.25 2.44-2.18 1.42.31 2.32 1.35 2.44 2.82"/><path fill="#1A1A1A" opacity=".2" d="M8 195.25c170.83-85.22 341.03-54.42 513.26-27.97 155.21 23.84 312.16 44.57 470.74-34.53v672c-170.83 85.22-341.03 54.42-513.26 27.97C323.53 808.88 166.58 788.15 8 867.25v-672m31.25 19.39v604.5c306.56-128.26 611.18 96.04 921.5-33.78v-604.5c-306.56 128.26-611.18-96.04-921.5 33.78"/></svg>