<svg xmlns="http://www.w3.org/2000/svg" viewBox="0 0 128 128" style="enable-background:new 0 0 128 128" xml:space="preserve"><path style="fill:#8e24aa" d="M116 4H12c-4.42 0-8 3.58-8 8v104c0 4.42 3.58 8 8 8h104c4.42 0 8-3.58 8-8V12c0-4.42-3.58-8-8-8z"/><path style="fill:#ab47bc" d="M109.7 4H11.5A7.555 7.555 0 0 0 4 11.5v97.9c-.01 4.14 3.34 7.49 7.48 7.5h98.12c4.14.01 7.49-3.34 7.5-7.48V11.5c.09-4.05-3.13-7.41-7.18-7.5h-.22z"/><path style="opacity:.3;fill:#fafafa;enable-background:new" d="M39.7 12.9c0-2.3-1.6-3-10.8-2.7-7.7.3-11.5 1.2-13.8 4s-2.9 8.5-3 15.3c0 4.8 0 9.3 2.5 9.3 3.4 0 3.4-7.9 6.2-12.3 5.4-8.7 18.9-10.6 18.9-13.6z"/><circle style="fill:#fafafa" cx="64" cy="64" r="6"/><path style="fill:#fafafa" d="M93.3 64 107 41.5c.28-.48.11-1.09-.36-1.37a.942.942 0 0 0-.44-.13H78.7L64.8 16.5a1.003 1.003 0 0 0-1.7 0L49.3 40H21.8a.997.997 0 0 0-1.03.97c-.01.19.04.37.13.53L34.7 64 20.9 86.5a1.002 1.002 0 0 0 .9 1.5h27.6l13.8 23.5a1.003 1.003 0 0 0 1.7 0L78.7 88h27.6c.52.03.96-.37.98-.89a.953.953 0 0 0-.18-.61L93.3 64zm4-18-7.5 12.2L82.3 46h15zm-11 18-11 18H52.7l-11-18 11-18h22.6l11 18zM64 26.6 71.6 40H56.4L64 26.6zM30.7 46h15l-7.5 12.2L30.7 46zm0 36 7.5-12.2L45.7 82h-15zM64 101.4 56.4 88h15.3L64 101.4zm25.8-31.6L97.3 82h-15l7.5-12.2z"/></svg>