<svg xmlns="http://www.w3.org/2000/svg" viewBox="0 0 128 128" style="enable-background:new 0 0 128 128" xml:space="preserve"><path style="fill:#ba8d68" d="M36.96 26.58c-.15 1.07 2.09 1.58 2.28 1.76.22.21.33.65.45 1.18.08.38.18.82.33 1.26l.01.02c.5 1.47 1.48 3.34 4.99 3.36 2.31.01 1.77.07 2.49.09 1.45.04 2.43 2.39 2.43 2.39s1.27 4.93 5.16 3.42c4.43-1.71 5.42-4.28 5.42-4.28s-4.46-5.41-1.6-8.17c.21-.2.17-.54.27-.81.42-1.02.75-2.32.98-3.73.06-.37.12-.75.17-1.13v-.01c.23-1.86.28-3.83.15-5.55-.09-1.42-.33-2.68-.68-3.59 0-.01-.01-.01-.01-.02-.09-.19-.17-.37-.27-.53-.05-.1-.11-.18-.16-.26-.16-.21-.32-.43-.49-.63-2.54-3.04-7-5.21-10.96-4.99-.52.03-1.03.09-1.53.22-.35.09-.69.18-1.02.29-4.39 1.45-6.58 5.13-6.97 9.53-.01.06-.01.12-.01.18-.02.26-.03.53-.03.79 0 .1-.01.19-.01.28 0 1.26.16 2.45.44 3.34.05.14.4 1.17.44 1.5.29 1.25-2.07 2.67-2.27 4.09z"/><path style="fill:#5d4037" d="M39.69 29.51c.08.38.18.82.33 1.26l.01.02c.84-.01 1.65-.26 2.32-.83.73-.63.16-1.22-.69-.79-.47.24-1.3.38-1.97.34z"/><ellipse transform="rotate(-5.73 43.015 22.923)" style="fill:#49362e" cx="43.01" cy="22.93" rx="1.1" ry="1.7"/><path style="fill:#613e31" d="M41.98 20.49c-1.07.33-1.33-.37-.99-.95.26-.43.9-.78 2.16-.55 1.19.22 1.69.89 2.01 1.3.33.41.29.83.02.87-.35.04-1.87-1.08-3.2-.67z"/><path style="fill:#543930" d="M76.63 17.26C71.56 11.64 72.58 4.18 63.8 4.65 58 4.96 53 12.2 52.97 14.32c-.07 4.1 5.31 2.41 7.14 2.61 2.7.29 6.52 8.62 14.5 9.35 10.8.99 14.96-4.97 14.96-4.97s-8.06 1.37-12.94-4.05z"/><radialGradient id="a" cx="-20.939" cy="-31.614" r="14.408" gradientTransform="matrix(.8464 -.9913 -.9408 -.6975 53.513 -22.492)" gradientUnits="userSpaceOnUse"><stop offset=".526" style="stop-color:#6d4c41;stop-opacity:0"/><stop offset="1" style="stop-color:#6d4c41"/></radialGradient><path style="fill:url(#a)" d="M74.54 14.37C71.63 9.39 71.13 4.26 63.8 4.65 58 4.96 53 12.2 52.97 14.32c-.07 4.1 5.31 2.41 7.14 2.61 2.69.29 14.43-2.56 14.43-2.56z"/><radialGradient id="b" cx="-7.747" cy="-42.866" r="15.408" gradientTransform="matrix(-.7995 1.0233 1.0193 .639 122.907 51.19)" gradientUnits="userSpaceOnUse"><stop offset="0" style="stop-color:#6d4c41"/><stop offset=".526" style="stop-color:#6d4c41;stop-opacity:0"/></radialGradient><path style="fill:url(#b)" d="M76.63 17.26c-1.27-1.4-2.24-3.06-3.1-4.78-.76-1.53-1.34-2.92-3.4-2.98-3.26-.09-7.18 2.35-9.08 5.65-.57.99-.76 1.77-.06 2.26.5.35 1.01.62 1.46 1.06 1.02.98 1.96 2.04 2.98 3.02 2.45 2.35 5.36 4.44 9.18 4.79 10.8.99 14.96-4.97 14.96-4.97s-8.06 1.37-12.94-4.05z"/><radialGradient id="c" cx="-14.396" cy="-33.16" r="8.802" gradientTransform="matrix(-.7967 1.025 2.6437 1.6413 148.844 84.532)" gradientUnits="userSpaceOnUse"><stop offset=".526" style="stop-color:#6d4c41;stop-opacity:0"/><stop offset="1" style="stop-color:#6d4c41"/></radialGradient><path style="fill:url(#c)" d="M84.05 25.15s-8.28 3.17-14.52-.5c-2.5-1.47-4.21-3.1-5.25-4.3-.91-1.04-4.96-4.84-7.14-4.84 0 0 15.55-.35 26.91 9.64z"/><path style="fill:#543930" d="M60.35 8.66c-2.53-2.68-6.45-4.22-10.49-4.13-3.52.07-8.25 1.27-11 4.39-1.65 1.88-2.54 4.26-2.07 6.8.28 1.53 1.61 2.23 1.61 2.23s1.21-3.61 4.84-2.97c3.82.67 5.41-.21 5.41-.21-1.05 3.07.17 4.63 1.22 5.5.6.5 1.16 1.09 1.48 1.44.17.18.29.16.34-.05.11-.49.33-1.38.51-1.8.6-1.42 1.75-1.01 1.75-1.01 1.55.43 2.31 3.5-.05 5.51-.06.05-.22.17-.1.48 1.21 3.09 4.95 2.94 5.17 2.81 0 0 .01 0 .01-.01.02-.01.03-.02.05-.03.48-.26.75-.7.79-1.28.17-2.12 1.04-2.79 1.63-3.75.69-1.1 1.47-2.36 1.73-5.69.25-3.17-.73-6.01-2.83-8.23z"/><radialGradient id="d" cx="53.368" cy="113.923" r="12.557" gradientTransform="scale(1 -1) rotate(4.002 1916.455 1.057)" gradientUnits="userSpaceOnUse"><stop offset=".526" style="stop-color:#6d4c41;stop-opacity:0"/><stop offset="1" style="stop-color:#6d4c41"/></radialGradient><path style="fill:url(#d)" d="M60.35 8.66c-2.53-2.68-6.45-4.22-10.49-4.13-3.52.07-8.25 1.27-11 4.39-1.65 1.88-2.54 4.26-2.07 6.8.28 1.53 1.61 2.23 1.61 2.23s1.21-3.61 4.84-2.97c3.82.67 5.41-.21 5.41-.21-1.05 3.07.17 4.63 1.22 5.5.6.5 1.16 1.09 1.48 1.44.17.18.29.16.34-.05.11-.49.33-1.38.51-1.8.6-1.42 1.75-1.01 1.75-1.01 1.55.43 2.31 3.5-.05 5.51-.06.05-.22.17-.1.48 1.21 3.09 4.95 2.94 5.17 2.81 0 0 .01 0 .01-.01.02-.01.03-.02.05-.03.48-.26.75-.7.79-1.28.17-2.12 1.04-2.79 1.63-3.75.69-1.1 1.47-2.36 1.73-5.69.25-3.17-.73-6.01-2.83-8.23z"/><path style="fill:#91674d" d="m37.61 61.87-.37-1.34c-.07-.24-.3-.4-.55-.36-3.61.49-12.1 1.71-12.86 2.4-.43.39-.58.9-.43 1.4.17.56.71 1.01 1.31 1.09.36.06.83.08 1.23.1-.04.2-.03.39.02.58.11.38.4.65.78.73.17.04.35.05.55.05 2.97 0 9.33-3.64 10.08-4.08.21-.12.3-.35.24-.57z"/><linearGradient id="e" gradientUnits="userSpaceOnUse" x1="32.579" y1="64.553" x2="47.509" y2="75.995" gradientTransform="matrix(1 0 0 -1 0 128)"><stop offset="0" style="stop-color:#ba8d68"/><stop offset="1" style="stop-color:#a47b62"/></linearGradient><path style="fill:url(#e)" d="m48.81 42.81-6.25 11.81c-.01 0-.01.01-.02.01L31.8 60.34c-1.84.88-.01 5.63 1.86 5.63.16 0 .32-.04.48-.11l12.27-4.92-.01-.02c.76-.34 1.37-.9 1.76-1.59l.03.02 7.12-13.09-6.5-3.45z"/><linearGradient id="f" gradientUnits="userSpaceOnUse" x1="38.188" y1="64.556" x2="24.235" y2="63.672" gradientTransform="matrix(1 0 0 -1 0 128)"><stop offset="0" style="stop-color:#ba8d68"/><stop offset="1" style="stop-color:#a47b62"/></linearGradient><path style="fill:url(#f)" d="M36.71 60.51c-1.26-1.48-2.21-1.4-3.52-1.11-.3.07-.61.15-.95.24-.96.25-2.16.56-4.09.79-2.57.3-5.7.18-5.73.18-.05-.01-.1 0-.15.01-.56.14-.98.53-1.13 1.03-.14.47-.02.96.32 1.32.96 1.02 4.46 1.21 6.58 1.08.6-.04 1.65-.08 2.49-.11.12-.03.21.09.23.14.02.05.05.15-.03.25-.39.45-.89.86-1.48 1.2-.75.43-1.11.9-1.08 1.43.02.53.44.98 1.19 1.32.22.1.47.14.75.14 1.75 0 4.43-1.72 5.34-2.61 1.13-1.12 2.51-3.84 1.26-5.3z"/><path style="fill:#4300d9" d="m55.53 38.9-1.07-.54a5.04 5.04 0 0 0-2.33-.57c-1.89 0-3.71 1.04-4.62 2.84l-4.91 9.69 10.29 5.22 4.91-9.69c1.29-2.55.27-5.66-2.27-6.95z"/><path style="fill:#91674d" d="M85.91 82.61 71.26 60.95l-10.82 7.9 17.4 22.12h.01c.95 1.3 2.35 2.07 3.83 2.27l-.01.06 26.81 3.36 1.63-8.75-24.2-5.3z"/><path style="fill:#bdbdbd" d="m102.53 86.24-1.76 9.44 7.7.96 1.63-8.75z"/><linearGradient id="g" gradientUnits="userSpaceOnUse" x1="59.182" y1="51.798" x2="53.693" y2="19.612" gradientTransform="matrix(1 0 0 -1 0 128)"><stop offset="0" style="stop-color:#a47b62"/><stop offset="1" style="stop-color:#ba8d68"/></linearGradient><path style="fill:url(#g)" d="M60.54 61.51 47.89 82.62a17.258 17.258 0 0 0-2.35 10.78l2.74 24.78 7.61.02.86-27.53 15.1-21.97-11.31-7.19z"/><path style="fill:#e0e0e0" d="m47.21 108.22.77 8.43 7.9.02.39-8.43z"/><path style="fill:#646464" d="M72.21 60.08a7.96 7.96 0 0 0-6.44-3.26c-1.63 0-3.27.5-4.69 1.53-3.55 2.59-4.33 7.58-1.74 11.13l8.97 11.66 12.27-8.96-8.37-12.1z"/><path style="fill:#7c7c7c" d="M70.56 58.26a8.032 8.032 0 0 0-4.28-1.24c-2.63 0-5.21 1.31-6.73 3.69l-7.57 12.61 12.82 8.15 8.21-12.21c2.36-3.71 1.26-8.64-2.45-11z"/><linearGradient id="h" gradientUnits="userSpaceOnUse" x1="49.085" y1="77.46" x2="74.217" y2="77.46" gradientTransform="matrix(1 0 0 -1 0 128)"><stop offset="0" style="stop-color:#651fff"/><stop offset=".705" style="stop-color:#5914f2"/><stop offset="1" style="stop-color:#530eeb"/></linearGradient><path style="fill:url(#h)" d="M74.16 61.37c-1.95-7.87-5.37-15.74-8.89-23.61-1.18-2.97-4.22-4.74-7.24-4.74-.86 0-1.71.14-2.52.44-4.97 1.84-7.53 6.41-5.97 11.9 2.3 8.12 3.44 12.94 4.29 20.93.11 1.03 1.01 1.77 2.03 1.77.18 0 .36-.02.55-.07 5.19-1.38 11.04-2.83 16.32-4.23 1.04-.28 1.69-1.34 1.43-2.39z"/><linearGradient id="i" gradientUnits="userSpaceOnUse" x1="62.761" y1="76.96" x2="96.922" y2="76.96" gradientTransform="matrix(1 0 0 -1 0 128)"><stop offset=".007" style="stop-color:#a47b62"/><stop offset="1" style="stop-color:#ba8d68"/></linearGradient><path style="fill:url(#i)" d="M96.6 59.9c-.32-.8-.8-1.59-1.41-2.6-.47-.77-3.99-4.78-5.45-5.48-.88-1.48-5.73-7.51-7.9-10.19-.51-.63-1.19-1.1-1.97-1.36l-14.28-4.5a.5.5 0 0 0-.63.33l-2.18 7.08a.5.5 0 0 0 .33.62l13.05 4.03c2.11 2.03 7.18 6.92 7.88 7.6.35 1.17.27 2.65.21 3.96-.07 1.42-.13 2.54.33 3.16.44.59.94.62 1.2.59.69-.09 1.19-.74 1.41-1.28.29-.7.28-1.42.27-1.95v-.3c.62.42.85 2.05 1.03 3.37.24 1.7.44 3.17 1.47 3.35.05.01.1.01.15.01.21 0 .4-.08.56-.23.51-.48.55-1.74.51-2.65.07.31.09.62.11.93.06.77.14 1.81 1.23 1.85.33.01.55-.11.73-.34.31-.38.37-1.03.33-1.69.26.52.57.82 1.06.66.18-.06.44-.21.61-.59.16-.35.22-.83.2-1.33.06.06.12.11.2.14.12.05.3.06.42.02.2-.07.47-.23.65-.63.31-.63.25-1.62-.12-2.58z"/><path style="fill:#4300d9" d="M62.33 33.2c-.47-.14-.96-.21-1.43-.21-2.25 0-4.31 1.47-4.97 3.74l-.36 1.23c-.79 2.74.79 5.61 3.53 6.4l10.54 3.04 3.22-11.17-10.53-3.03z"/><path style="fill:#4568ad" d="M55.96 115.82h-7.93l-5.48 2.07c-1.54.6-2.55 2.06-2.57 3.69l-.01 1.27c0 .55.45 1 1.01 1l15.76-.02c.64 0 1.16-.51 1.16-1.15v-2.8c.01-1.89-1.94-4.06-1.94-4.06z"/><path style="fill:#325599" d="m116.29 87.43-2.75-.51c-.21-.04-.41-.05-.62-.05-1.76 0-3.76 1.22-3.76 1.22l-1.46 7.8 1.03 5.76c.3 1.62 1.55 2.89 3.16 3.2l1.24.24c.06.01.13.02.19.02.47 0 .9-.34.99-.83l2.89-15.5c.12-.63-.29-1.23-.91-1.35z"/><radialGradient id="j" cx="19.318" cy="74.983" r="12.764" gradientTransform="translate(0 2)" gradientUnits="userSpaceOnUse"><stop offset=".017" style="stop-color:#fb8c00"/><stop offset=".442" style="stop-color:#f47900"/><stop offset=".838" style="stop-color:#d95a1e"/></radialGradient><path style="fill:url(#j)" d="M35.35 80.96c0 6.34-5.3 11.49-11.83 11.49S11.7 87.3 11.7 80.96 17 69.47 23.52 69.47c6.54 0 11.83 5.14 11.83 11.49z"/><radialGradient id="k" cx="17.033" cy="55.322" r="21.549" gradientTransform="matrix(1 0 0 -1 0 128)" gradientUnits="userSpaceOnUse"><stop offset=".017" style="stop-color:#ffa726"/><stop offset=".494" style="stop-color:#fc950d"/><stop offset=".838" style="stop-color:#fb8c00"/></radialGradient><path style="fill:url(#k)" d="M23.83 92.44c-.1.01-.21.01-.31.01-1.16 0-2.29-.17-3.34-.47h-.01c-1.43-1.98-4.09-6.5-3.93-12.54.01-.46.04-.94.09-1.42.05-.62.15-1.24.27-1.88.07-.38.16-.76.26-1.15l.03-.09c.11-.46.26-.88.43-1.26h.01c.14-.35.29-.66.46-.95h.01c.8-1.41 1.85-2.29 2.64-2.81.93-.25 1.91-.39 2.91-.4-1.01.37-2.8 1.24-4.04 3.18-.21.31-.4.66-.55 1.03h-.01c-.15.33-.28.7-.4 1.09a8.08 8.08 0 0 0-.28 1.24c-.1.63-.17 1.23-.2 1.83-.03.48-.03.96 0 1.43.24 6.3 4.13 11.19 5.96 13.16z"/><radialGradient id="l" cx="17.033" cy="55.322" r="21.549" gradientTransform="matrix(1 0 0 -1 0 128)" gradientUnits="userSpaceOnUse"><stop offset=".017" style="stop-color:#ffa726"/><stop offset=".494" style="stop-color:#fc950d"/><stop offset=".838" style="stop-color:#fb8c00"/></radialGradient><path style="fill:url(#l)" d="M29.46 71.03c-3.44-.05-6.28 2.42-10.69 2.65h-.01c-.22.01-.43.02-.66.02-.29 0-.53-.02-.76-.07h-.01c-1.09-.2-1.45-.86-1.56-1.34.3-.26.62-.5.94-.72-.03.44.15.94 1.09 1.11h.01c.21.03.45.04.74.04.24 0 .5-.03.77-.07 2.53-.36 5.95-2.1 6.99-2.43.3-.09.62-.15.91-.17.79.25 1.54.57 2.24.98z"/><radialGradient id="m" cx="17.033" cy="55.322" r="21.549" gradientTransform="matrix(1 0 0 -1 0 128)" gradientUnits="userSpaceOnUse"><stop offset=".017" style="stop-color:#ffa726"/><stop offset=".494" style="stop-color:#fc950d"/><stop offset=".838" style="stop-color:#fb8c00"/></radialGradient><path style="fill:url(#m)" d="M32.81 88.07c-.53.66-1.14 1.26-1.82 1.81-.92-1.65-2.7-4.3-6.03-7.39-1.88-1.75-4.42-3.17-7.08-3.22-.3-.02-.61-.01-.91.02-.26.02-.5.07-.73.15-2.65.79-3.25 4.31-3.36 6.51-.51-1.02-.88-2.12-1.06-3.28.64-1.7 1.96-4.05 4.51-4.65.21-.05.42-.09.65-.11.3-.03.61-.05.9-.06 3.48-.07 6.04 1.64 8.49 3.43 3.33 2.4 5.44 5.27 6.44 6.79z"/><radialGradient id="n" cx="17.033" cy="55.322" r="21.549" gradientTransform="matrix(1 0 0 -1 0 128)" gradientUnits="userSpaceOnUse"><stop offset=".017" style="stop-color:#ffa726"/><stop offset=".494" style="stop-color:#fc950d"/><stop offset=".838" style="stop-color:#fb8c00"/></radialGradient><path style="fill:url(#n)" d="M35.35 80.81v.15c0 .9-.1 1.76-.31 2.6-3.14-2.91-9.53-7.8-16.96-7.55a15.952 15.952 0 0 0-1.47.12c-2.25.31-3.67 1.17-4.53 1.95.18-.69.43-1.35.73-1.98.95-.5 2.29-1 4.09-1.21.19-.03.38-.04.57-.06l.89-.06c8.26-.38 14.52 3.99 16.99 6.04z"/></svg>