<svg xmlns="http://www.w3.org/2000/svg" viewBox="0 0 1000 1000"><path fill="#cf142b" d="M8 195.25c170.83-85.22 341.03-54.42 513.26-27.97 155.21 23.84 312.16 44.57 470.74-34.53v672c-170.83 85.22-341.03 54.42-513.26 27.97C323.53 808.88 166.58 788.15 8 867.25v-672"/><path fill="#00247d" d="M8 195.25c170.83-85.22 341.03-54.42 513.26-27.97 155.21 23.84 312.16 44.57 470.74-34.53v448c-170.83 85.22-341.03 54.42-513.26 27.97C323.53 584.88 166.58 564.15 8 643.25v-448"/><path fill="#fc0" d="M8 195.25c170.83-85.22 341.03-54.42 513.26-27.97 155.21 23.84 312.16 44.57 470.74-34.53v224c-170.83 85.22-341.03 54.42-513.26 27.97C323.53 360.88 166.58 340.15 8 419.25v-224"/><path fill="#fff" d="m538.92 414.26-12.83 22.78 14.48 10.08-1.65-32.86"/><path fill="#fff" d="m538.92 414.26 3.8 28.3-16.23-.12 12.43-28.18"/><path fill="#fff" d="m561.24 441.24-26.91-8.86-2.85 16.11 29.76-7.25"/><path fill="#fff" d="m561.24 441.24-24.56 8.63-7.19-16.18 31.75 7.55"/><path fill="#fff" d="m510.04 424.27 18.99 23.06 11.8-9.88-30.79-13.18"/><path fill="#fff" d="m510.04 424.27 26.92 8.99-2.85 16.11-24.07-25.1"/><path fill="#fff" d="m546.16 468.09-3.81-28.3-16.24-.12 20.05 28.42"/><path fill="#fff" d="m546.16 468.09-18.99-23.02 11.8-9.87 7.19 32.89"/><path fill="#fff" d="m514.51 457.56 24.57-8.53-7.19-16.18-17.38 24.71"/><path fill="#fff" d="m514.51 457.56 12.83-22.76 14.49 10.09-27.32 12.67M612.07 451.64l-20.32 16.17 10.98 13.9 9.34-30.07"/><path fill="#fff" d="m612.07 451.64-5.69 26.69-16.04-5.55 21.73-21.14"/><path fill="#fff" d="m625.14 483.24-23.67-16.84-8.2 13.49 31.87 3.35"/><path fill="#fff" d="m625.14 483.24-27.19-.37-1.71-16.92 28.9 17.29"/><path fill="#fff" d="m580.11 450.94 11.12 27.08 14.98-4.91-26.1-22.17"/><path fill="#fff" d="m580.11 450.94 23.67 17.12-8.2 13.5-15.47-30.62"/><path fill="#fff" d="m601.26 502.4 5.68-26.68-16.04-5.55 10.36 32.23"/><path fill="#fff" d="m601.26 502.4-11.12-27.03 14.98-4.9-3.86 31.93"/><path fill="#fff" d="m573.43 482.21 27.18.72L598.9 466l-25.47 16.21"/><path fill="#fff" d="m573.43 482.21 20.31-15.98 10.97 13.9-31.28 2.08M671.7 508.83l-25.35 8.31 6.15 16.15 19.2-24.46"/><path fill="#fff" d="m671.7 508.83-14.49 22.57-13.91-10.21 28.4-12.36"/><path fill="#fff" d="m673.94 541.83-17.57-22.87-12.56 9.62 30.13 13.25"/><path fill="#fff" d="m673.94 541.83-26.53-9.02 3.97-15.92 22.56 24.94"/><path fill="#fff" d="m640.52 498.11 1.9 28.12 16.36.35-18.26-28.47"/><path fill="#fff" d="m640.52 498.11 17.57 23.1-12.57 9.64-5-32.74"/><path fill="#fff" d="m644.15 551.6 14.48-22.4-13.91-10.19-.57 32.59"/><path fill="#fff" d="m644.15 551.6-1.91-28.13 16.36.36-14.45 27.77"/><path fill="#fff" d="m623.49 524.19 26.52 9.53 3.97-15.93-30.49 6.4"/><path fill="#fff" d="m623.49 524.19 25.35-7.84 6.14 16.14-31.49-8.3M710.61 580.05l-27.31-.38.57 16.83 26.74-16.45"/><path fill="#fff" d="m710.61 580.05-21.53 16.23-10.1-13.87 31.63-2.36"/><path fill="#fff" d="m701.76 611.34-9.35-26.77-15.41 4.78 24.76 21.99"/><path fill="#fff" d="M701.76 611.34 679.1 594.4l9.17-13.34 13.49 30.28"/><path fill="#fff" d="m683.98 560.33-7.54 26.42 15.77 5.62-8.23-32.04"/><path fill="#fff" d="m683.98 560.33 9.35 26.86-15.42 4.8 6.07-31.66"/><path fill="#fff" d="m669.65 610.52 21.54-15.8-10.1-13.86-11.44 29.66"/><path fill="#fff" d="m669.65 610.52 7.53-26.36 15.77 5.61-23.3 20.75"/><path fill="#fff" d="m658.66 578.69 22.66 17.39 9.17-13.36-31.83-4.03"/><path fill="#fff" d="m658.66 578.69 27.32 1.06.56 16.82-27.88-17.88M289.39 531.69l21.53 18.24 10.1-12.6-31.63-5.64"/><path fill="#fff" d="m289.39 531.69 27.31 2.34-.57 16.75-26.74-19.09"/><path fill="#fff" d="m316.02 514.6-9.35 25.76 15.42 6.7-6.07-32.46"/><path fill="#fff" d="m316.02 514.6 7.54 27.42-15.77 3.64 8.23-31.06"/><path fill="#fff" d="m298.24 563.68 22.66-14.37-9.17-14.51-13.49 28.88"/><path fill="#fff" d="m298.24 563.68 9.35-25.84 15.41 6.71-24.76 19.13"/><path fill="#fff" d="m341.34 536.77-27.32-3.01-.56 16.76 27.88-13.75"/><path fill="#fff" d="m341.34 536.77-22.66 13.92-9.17-14.49 31.83.57"/><path fill="#fff" d="m330.35 566.8-7.53-27.47-15.77 3.65 23.3 23.82"/><path fill="#fff" d="m330.35 566.8-21.54-18.67 10.1-12.63 11.44 31.3M328.3 464.8l14.49 24.93 13.91-7.6-28.4-17.33"/><path fill="#fff" d="m328.3 464.8 25.35 12.68-6.15 14.99-19.2-27.67"/><path fill="#fff" d="m359.48 459.6-17.57 19.79 12.57 11.96 5-31.75"/><path fill="#fff" d="m359.48 459.6-1.9 27.74-16.36-2.7 18.26-25.04"/><path fill="#fff" d="m326.06 497.47 26.53-4.52-3.97-16.68-22.56 21.2"/><path fill="#fff" d="m326.06 497.47 17.57-20.03 12.56 11.98-30.13 8.05"/><path fill="#fff" d="m376.51 489.34-25.35-13.13-6.14 15.01 31.49-1.88"/><path fill="#fff" d="m376.51 489.34-26.52 4.02-3.97-16.67 30.49 12.65"/><path fill="#fff" d="m355.85 512.37 1.91-27.75-16.36-2.7 14.45 30.45"/><path fill="#fff" d="m355.85 512.37-14.48-25.09 13.91-7.62.57 32.71M387.93 419.48l5.69 28.09 16.04-1.44-21.73-26.65"/><path fill="#fff" d="m387.93 419.48 20.32 21.31-10.98 11.06-9.34-32.37"/><path fill="#fff" d="m419.89 427.06-23.67 10.88 8.2 15.6 15.47-26.48"/><path fill="#fff" d="m419.89 427.06-11.12 24.08-14.98-8.76 26.1-15.32"/><path fill="#fff" d="m374.86 448.03 27.19 6.21 1.71-16.48-28.9 10.27"/><path fill="#fff" d="m374.86 448.03 23.67-11.16 8.2 15.6-31.87-4.44"/><path fill="#fff" d="m426.57 460.19-20.31-21.5-10.97 11.08 31.28 10.42"/><path fill="#fff" d="m426.57 460.19-27.18-6.58 1.71-16.48 25.47 23.06"/><path fill="#fff" d="m398.74 472.92 11.12-24.14-14.98-8.76 3.86 32.9"/><path fill="#fff" d="m398.74 472.92-5.68-28.11 16.04-1.43-10.36 29.54M461.08 402.32l-3.8 27.15 16.23 4.8-12.43-31.95"/><path fill="#fff" d="m461.08 402.32 12.83 26.67-14.48 5.69 1.65-32.36"/><path fill="#fff" d="m489.96 421.17-26.92.73 2.85 16.98 24.07-17.71"/><path fill="#fff" d="m489.96 421.17-18.99 17.22-11.8-13.46 30.79-3.76"/><path fill="#fff" d="m438.76 422.69 24.56 15.92 7.19-14.01-31.75-1.91"/><path fill="#fff" d="m438.76 422.69 26.91-.86 2.85 16.97-29.76-16.11"/><path fill="#fff" d="m485.49 453.07-12.83-26.7-14.49 5.7 27.32 21"/><path fill="#fff" d="m485.49 453.07-24.57-16.03 7.19-14.01 17.38 30.04"/><path fill="#fff" d="m453.84 453.97 18.99-17.27-11.8-13.46-7.19 30.73"/><path fill="#fff" d="m453.84 453.97 3.81-27.15 16.24 4.79-20.05 22.36"/><path fill="#1A1A1A" opacity=".2" d="M8 195.25c170.83-85.22 341.03-54.42 513.26-27.97 155.21 23.84 312.16 44.57 470.74-34.53v672c-170.83 85.22-341.03 54.42-513.26 27.97C323.53 808.88 166.58 788.15 8 867.25v-672m31.25 19.39v604.5c306.56-128.26 611.18 96.04 921.5-33.78v-604.5c-306.56 128.26-611.18-96.04-921.5 33.78"/></svg>