<svg xmlns="http://www.w3.org/2000/svg" viewBox="0 0 128 128" style="enable-background:new 0 0 128 128" xml:space="preserve"><path style="fill:#f9ddbd" d="M101.03 11.32c-4.05-.6-7.07 3.42-9.66 9.5-1.86 4.36-12.08 32.01-12.08 32.01-.32.91-1.84.78-1.99-.17-1.19-7.71-4.34-25.25-6.24-35.42-2-10.68-5.64-13.52-9.31-13.07-6.32.78-5.46 10.55-4.8 17.55.66 7 2.19 28.82 4.37 44.51.39 2.79 32.09 5.78 32.09 5.78.01-6.19 7.74-32.66 10.61-44.29 1.89-7.7 2.78-15.54-2.99-16.4z"/><path style="fill:#f9ddbd" d="M58.76 121.64c-8.89-.03-22.58-1.92-31.31-17.93-5.35-9.81-7.03-22.13-5.92-33.14.72-7.18 3.07-12.86 7.48-14.95 6.29-2.98 10.92 1 10.92 1s-1.61-9.92 5.95-12.34c9.72-3.12 12.55 7.12 12.55 7.12L92.7 66.02s-.01 17.53-1.12 27.79c-3.04 28.27-23.93 27.86-32.82 27.83z"/><path style="fill:#ffd29c" d="m44.94 65.4-1.57 3.98c.84 6.71-7.17 11.02-11.22 8.34-.42 1.97-.86 5.92 3.14 11.05 2.63 3.38 8.17 6.59 12.06 8.38 4.66 2.14 8.07 4.22 9.12 8.37.29-5.92 3.28-11.66 7.97-15.3 1.27-.99 2.67-1.83 3.84-2.93l-1.06-3.25c-5.79 1.59-15.94.05-18.44-5.4-.6-1.31-2.35-8.78 3.82-8.94 10.8-.28 18.78-4.77 18.78-4.77-6.52-1.58-8.79-4.44-9.18-5.06-.28-.45-3.28-.26-3.73-.01 0 0-.34 4.04-5.64 5.81-4.44 1.49-7.23-.19-7.89-.27z"/><path style="fill:#edbd82" d="m59.04 68.94 3.91-.67c0-16.41-7.52-21.56-7.52-21.56 2 5.56 3.7 14.18 3.61 22.23zm-10.83 8.78c-.49-4.24-2.76-14.45-5.98-18.66-3.22-4.21-6.94-4.31-6.94-4.31 8.34 10.47 8.74 15.75 8.83 21.34.05 2.81-.55 6.29-3.82 7.28-2.16.65-4.98.95-11.58-11.55-.82-1.55-2.02-2.4-2.99-2.83-.59-.26-1.22.3-1.01.91 3.29 9.44 7.94 17.63 13.93 17.64.9 0 1.8-.36 2.83-.47 6.64-.7 6.73-9.35 6.73-9.35zm27.05-28.69c-1.23-4.75-3.41-15.27-5.09-27.79-1.12-8.37-2.14-12.28-3.94-14.55s-4.63-2.51-4.48-2.51c7.14-1.29 9.84 4.84 11.1 12.21 2.12 12.42 5.29 34.83 5.9 36.97 0-.01-2.09 1.06-3.49-4.33z"/><path style="fill:#edbd82" d="M102.72 11.89c2.48 3.4 1.39 9.52.56 13.03-.7 2.95-7.87 26.77-10.58 37.09-.52 1.96-1.18 4.27-1.3 7.69-.12 3.43-.37 10.87-.37 10.87-1.19-2.58-3.64-5.63-5.26-7.76-11.16-14.44-14.91-5.84-31.6-5.11-12.56.09-9.98 17.65 5.78 18.67 0 0 4.22.51 5.86-.2-8.12 3.48-11.9 12.65-10.87 26.05.66 1.91 2.75-18.63 14.37-23.26.79-.32 1.45 1.13 3.59 3.13.62.58 2.33 1.72 3.4 1.86 1.07.14.52-1 .37-1.17-1.83-2.09-5.87-8.72-6.25-9.53-.42-.91-1.87-1.6-3.11-1.35-17.64 3.6-17.52-7.33-16.73-8.82.79-1.5 2.05-1.47 3.75-1.54 7.95-.34 12.71-2 15.61-2.91 5.65-2.38 12.08 4.38 16.73 11.92 1.29 2.01 2.89 4.94 3.2 12.41.3 7.27-3.61 26.19-27.95 27.87-11.39.79-17.19-1.82-23.34-5.27-2.4-1.35-4.4-3.2-4.78-3.55s-.58-.26-.37.08c.21.34 7.09 11.87 27.3 11.91 11.5.02 20.77-3.84 26.47-11.42 3.98-5.29 6.15-10.21 6.8-19.24.21-2.95.83-15.62.98-21.93.06-2.64.98-6.7.98-6.7.36-2.3 8.78-33.78 8.78-33.78s1.34-4.68 1.88-8.65c1.14-8.17-3.9-10.39-3.9-10.39z"/></svg>