<svg xmlns="http://www.w3.org/2000/svg" viewBox="0 0 128 128" style="enable-background:new 0 0 128 128" xml:space="preserve"><path style="fill:#ffa8a7" d="M70.52 93.98c0 1.5.44 5.26.44 6.76s.94 4.5 5.02 4.93c6.31.65 7.86-2.64 8.59-6.48.99-5.21.41-11.4.41-11.4l-14.46 6.19z"/><path style="fill:#ffd2b1" d="M119.79 19.65c1.78-.38 4.13.19 4.22-1.6.11-2.16-2.63-3.57-5.91-2.63-3.27.93-4.32 3.75-4.32 3.75s-3.71-1.73-6.95.84c-3.66 2.91-3.94 9.01-3.94 9.01l5.16 4.97s.13-5.76.94-7.88c1.03-2.72 2.82-2.25 2.82-2.25s-1.97 5.44.75 8.73c3.26 3.94 10.51 2.25 9.48-4.41-.61-3.96-4.41-6.38-4.41-6.38s.82-1.87 2.16-2.15zm-2.72 11.17c-2.99.34-2.06-4.88-1.5-6.38 2.44 1.03 3.94 6.09 1.5 6.38z"/><path style="fill:#ffd2b1" d="M45.97 24.86c18.19-7.4 54.05-9.08 66.17 10.28 12.25 19.57 3.8 32.1 2.39 35.62-2.02 5.05-3.8 11.54-4.22 14.92-.5 3.97-1.13 14.22-1.55 16.33-.42 2.11-4.08 5.21-7.88 4.93-3.8-.28-6.9-2.67-7.18-4.93-.28-2.25.84-7.88-1.83-9.85-2.67-1.97-10.7-.7-15.49 1.83s-27.4 14.32-52.65 3.24C-1.61 86.1 4.3 62.02 10.5 54.98s5.49-8.45 5.49-8.45-6.19 1.55-3.8-3.38 8.59-13.09 9.71-13.8c1.13-.7 4.79-1.83 6.76-.56 1.97 1.27 1.97 3.1 1.97 3.1s3.24-2.11 15.34-7.03z"/><path style="fill:#ffd2b1" d="M20.77 93.84s.28 9.85.42 12.25.47 6.29.84 8.17c.42 2.11 2.12 3.32 5.49 3.52 4.65.28 6.9-1.69 7.32-3.38.42-1.69.84-16.89.84-16.89l-14.91-3.67zM47.1 98.2s-.04 4.93.14 9.85c.14 3.8.14 8.17.56 9.29.7 1.87 4.08 2.96 7.04 3.1 3.24.15 5.42-1.48 6.76-2.82.7-.7.7-4.22.84-9.29.08-2.96.28-11.68.28-11.68L47.1 98.2z"/><path style="fill:#e6508f" d="M62.82 43.58c-.75-1.63-4.58 0-5.54 2.44-1.22 3.1 0 6.1 1.78 9.48 1.22 2.31 6.76 9.48 13.14 7.98 7.42-1.75 5.35-13.33 5.07-14.64-.28-1.31-1.17-3.06-2.72-2.82-1.78.28-.93 3.24-.84 5.44.09 2.44.19 6.57-2.72 7.23-3.11.7-5.31-1.34-7.04-4.13-1.69-2.72-3.66-4.79-3.1-7.32.35-1.56 2.53-2.44 1.97-3.66zm-38.01-3.1c-1.42-.55-3.1 1.6-4.69 2.91s-4.5 3-5.63 1.6c-1.17-1.47 2.52-5.32 4.69-9.01 1.88-3.19 3.64-6.85 6.1-7.04 3.66-.28.81-1.92-1.88-1.41-1.97.38-4.69 2.16-6.19 5.16S8.57 43.3 10.92 46.77c2.7 4 8.63 2.16 11.26 0 2.63-2.16 4.32-5.63 2.63-6.29z"/><path style="fill:#ff7d86" d="M29.5 69.2c-5.16-.94-13.38.5-13.98 6.29-.47 4.5 2.44 9.95 11.92 12.01 9.48 2.06 14.17-1.5 14.64-6.57.47-5.06-4.88-10.32-12.58-11.73z"/><path style="fill:#2d2d2b" d="M26.22 77.27c.2 2.27-.42 3.91-1.78 4.04-1.36.12-3.27-1.48-3.47-3.75-.2-2.27.4-4.13 2.16-4.13 1.36 0 2.88 1.57 3.09 3.84z"/><ellipse transform="rotate(-84.601 32.352 78.955)" style="fill:#2d2d2b" cx="32.35" cy="78.96" rx="3.94" ry="2.62"/><ellipse transform="rotate(-84.347 52.655 66.237)" style="fill:#2d2d2b" cx="52.65" cy="66.23" rx="4.83" ry="4.1"/><ellipse transform="rotate(-84.347 22.846 60.194)" style="fill:#2d2d2b" cx="22.84" cy="60.19" rx="4.78" ry="4.23"/></svg>