<svg xmlns="http://www.w3.org/2000/svg" viewBox="0 0 128 128" style="enable-background:new 0 0 128 128" xml:space="preserve"><path style="fill:#b7d118" d="M64.52 22.23c-9.49-.12-13.06 5.54-16.3 12.69-2.48 5.47-4.33 13.61-9.49 20.63s-17.84 16.09-16.3 34.86c1.55 18.77 14.33 32.4 42.19 32.9 28.47.52 41.62-18.87 41.26-38.37-.31-16.5-14.77-26.09-19.7-35.07-7.53-13.72-4.64-27.43-21.66-27.64z"/><path style="fill:#865c51" d="M57.39 6.32c-.21.79 1.29 7 2.03 9.94.98 3.9 2.14 8.86 2.93 11.26.42 1.28 1.53 1.76 2.54 1.67 1.04-.09 2.31-.89 2.31-2.26-.01-2.55.07-10.04.12-13.02s.39-8.99.35-9.86c-.02-.42-2.49-.86-5.4-.43-2.93.43-4.76 2.26-4.88 2.7z"/><path style="fill:#e4f57d" d="M55.29 37.87c-2.64-.22-3.3 3.03-4.32 7.08-1.03 4.05-3.24 9.13-5.73 12.97-4.22 6.52-8.54 9.94-11.18 16.37-2.47 6-2.73 13.85 2.92 14.69 6.54.97 7.38-7.8 8.37-11.45 1.03-3.78 2.59-7.35 5.24-11.78 1.94-3.25 6.28-12.13 7.02-18.53.76-6.49.86-9.08-2.32-9.35z"/><path style="fill:#e4dc9f" d="M79.31 71.94c-1.31-1.26-3.18-.7-3.96.13-.74.78-1.34 2.61-.08 3.91 1.26 1.31 3.13.7 4.04-.17 1-.96 1.13-2.78 0-3.87zm4.78 2.96c-1.15 1.29-.83 3.05.09 3.83.91.78 2.68.64 3.61-.48 1.13-1.35.44-3.05-.22-3.61-.65-.57-2.39-.96-3.48.26zm7.53 3.66c-1.47 1.27-.79 3.1-.16 3.77.87.91 2.68.85 3.59-.11.91-.96 1.17-2.83.03-3.7-1.12-.88-2.51-.79-3.46.04zm-13.05-16.1c-1.04 1.14-.78 2.87.04 3.61s2.82 1.3 3.92-.35c.87-1.31.17-2.78-.61-3.44-.83-.69-2.48-.78-3.35.18zm-8.62.17c-1.23 1.39-.42 2.97.35 3.74.87.87 2.65 1.09 3.61.04.96-1.04.87-2.61 0-3.74-.87-1.13-3-1.13-3.96-.04zm5.7-13.53c-1.13-.61-2.13.09-2.65.78-.52.7-.48 2.18.35 2.74.83.57 2.39.64 3.05-.48.6-1.04.4-2.42-.75-3.04z"/></svg>