<svg xmlns="http://www.w3.org/2000/svg" viewBox="0 0 128 128" style="enable-background:new 0 0 128 128" xml:space="preserve"><path style="fill:#194fa5" d="M116 4H12c-4.42 0-8 3.58-8 8v104c0 4.42 3.58 8 8 8h104c4.42 0 8-3.58 8-8V12c0-4.42-3.58-8-8-8z"/><path style="fill:#2262dd" d="M109.7 4H11.5A7.555 7.555 0 0 0 4 11.5v97.9c-.01 4.14 3.34 7.49 7.48 7.5h98.12c4.14.01 7.49-3.34 7.5-7.48V11.5c.09-4.05-3.13-7.41-7.18-7.5h-.22z"/><path style="opacity:.65;fill:#68abe6;enable-background:new" d="M39.7 12.9c0-2.3-1.6-3-10.8-2.7-7.7.3-11.5 1.2-13.8 4-1.9 2.3-2.3 5.6-2.6 8.4-.2 2.2-2.2 14.9 3.5 11.2.68-.45 1.23-1.07 1.6-1.8 1.2-2.1 1.9-3.5 3.3-5.6 5.3-8.6 18.8-10.5 18.8-13.5z"/><path style="opacity:.3;fill:#68abe6;enable-background:new" d="M39.7 12.9c0-2.3-1.6-3-10.8-2.7-7.7.3-11.5 1.2-13.8 4-1.9 2.3-2.3 5.6-2.6 8.4-.2 2.2-2.2 14.9 3.5 11.2.68-.45 1.23-1.07 1.6-1.8 1.2-2.1 1.9-3.5 3.3-5.6 5.3-8.6 18.8-10.5 18.8-13.5z"/><circle style="fill:#fff" cx="62.38" cy="25.47" r="9.35"/><path style="fill:#fff" d="m83.73 68.08-8.67-25.25c-1.13-3.49-6.4-6.13-12.74-6.13-6.32 0-11.58 2.63-12.74 6.1l-8.56 25.29c-.59 1.75.3 3.66 1.98 4.27 1.68.61 3.52-.31 4.1-2.06l5.15-16.47c.09-.28.5-.22.5.08v5.35h-.02l-5.94 24.43c-.26 1.06.51 2.09 1.56 2.09h3.59c.45 0 .8.37.8.84v14.9c0 2.19 1.54 4.14 3.64 4.35 2.4.23 4.42-1.72 4.42-4.17V87.44c0-.93.72-1.67 1.61-1.67.89 0 1.61.75 1.61 1.67v14.06c0 2.19 1.54 4.14 3.64 4.35 2.4.23 4.42-1.72 4.42-4.17V86.61c0-.46.36-.84.8-.84h3.54c1.05 0 1.82-1.03 1.56-2.09l-5.92-24.34v-5.42c0-.3.4-.36.5-.08l5.07 16.45c.59 1.75 2.42 2.66 4.1 2.06 1.7-.61 2.59-2.52 2-4.27z"/></svg>