<svg xmlns="http://www.w3.org/2000/svg" viewBox="0 0 128 128" style="enable-background:new 0 0 128 128" xml:space="preserve"><path style="fill:#427687" d="M116 4H12c-4.42 0-8 3.58-8 8v104c0 4.42 3.58 8 8 8h104c4.42 0 8-3.58 8-8V12c0-4.42-3.58-8-8-8z"/><path style="fill:#8cafbf" d="M109.7 4H11.5A7.555 7.555 0 0 0 4 11.5v97.9c-.01 4.14 3.34 7.49 7.48 7.5h98.12c4.14.01 7.49-3.34 7.5-7.48V11.5c.09-4.05-3.13-7.41-7.18-7.5h-.22z"/><path style="fill:#fafafa" d="M66.83 42.66A3.75 3.75 0 0 1 64 48.89H50.78c-1.04 0-1.89.85-1.89 1.89v32.1c0 4.54 1.42 11 11.33 11.33l12.56 14c-2.87.76-5.82 1.13-8.78 1.11-16.71 0-30.21-11.8-30.21-26.44v-32.1c0-1.04-.85-1.89-1.89-1.89H18.68a3.751 3.751 0 0 1-3.77-3.73c0-.92.33-1.81.94-2.5L38.51 20a3.781 3.781 0 0 1 5.66 0l22.66 22.66z"/><path style="fill:#fafafa" d="M61.17 85.34A3.75 3.75 0 0 1 64 79.11h13.22c1.04 0 1.89-.85 1.89-1.89v-32.1c0-4.54-1.42-10.86-11.33-11.33l-12.56-14c2.87-.76 5.82-1.13 8.78-1.11 16.71 0 30.21 11.8 30.21 26.44v32.1c0 1.04.85 1.89 1.89 1.89h13.22c2.08 0 3.76 1.69 3.76 3.76 0 .91-.33 1.78-.93 2.47L89.49 108a3.781 3.781 0 0 1-5.66 0L61.17 85.34z"/><path style="opacity:.5;fill:#b4e1ed;enable-background:new" d="M39.7 12.9c0-2.3-1.6-3-10.8-2.7-7.7.3-11.5 1.2-13.8 4s-2.9 8.5-3 15.3c0 4.8 0 9.3 2.5 9.3 3.4 0 3.4-7.9 6.2-12.3 5.4-8.7 18.9-10.6 18.9-13.6z"/></svg>