<svg xmlns="http://www.w3.org/2000/svg" viewBox="0 0 128 128" style="enable-background:new 0 0 128 128" xml:space="preserve"><path style="fill:#c33" d="M116 4H12c-4.42 0-8 3.58-8 8v104c0 4.42 3.58 8 8 8h104c4.42 0 8-3.58 8-8V12c0-4.42-3.58-8-8-8z"/><path style="fill:#f44336" d="M109.7 4H11.5A7.555 7.555 0 0 0 4 11.5v97.9c-.01 4.14 3.34 7.49 7.48 7.5h98.12c4.14.01 7.49-3.34 7.5-7.48V11.5c.09-4.05-3.13-7.41-7.18-7.5h-.22z"/><path style="fill:#ff8a80" d="M39.7 12.9c0-2.3-1.6-3-10.8-2.7-7.7.3-11.5 1.2-13.8 4s-2.9 8.5-3 15.3c0 4.8 0 9.3 2.5 9.3 3.4 0 3.4-7.9 6.2-12.3 5.4-8.7 18.9-10.6 18.9-13.6z"/><path style="fill:#fafafa" d="M30.32 36.87H42.2l20.62 54.89H51.4l-4.6-13.11H25.79l-4.6 13.11H9.77l20.55-54.89zm13.11 32.28-4.83-13.8-1.99-6.59H36l-2 6.59-4.91 13.8h14.34zm26.83-32.28h21.47c3.07 0 5.89.64 8.47 1.92 2.58 1.28 4.61 3.02 6.1 5.21 1.48 2.2 2.22 4.6 2.22 7.21 0 2.76-.68 5.15-2.03 7.17-1.35 2.02-3.13 3.56-5.33 4.64v.61c2.86 1.02 5.14 2.65 6.82 4.87 1.69 2.22 2.53 4.89 2.53 8.01 0 3.02-.81 5.69-2.42 8.01-1.61 2.33-3.78 4.12-6.52 5.37-2.74 1.25-5.76 1.88-9.09 1.88H70.26v-54.9zm20.7 22.39c2.25 0 4.05-.63 5.41-1.88 1.35-1.25 2.03-2.82 2.03-4.72 0-1.84-.65-3.39-1.96-4.64-1.3-1.25-3.03-1.88-5.17-1.88H80.61v13.11h10.35zm1.15 23.07c2.5 0 4.46-.65 5.87-1.96 1.41-1.3 2.11-3 2.11-5.1s-.72-3.81-2.15-5.14c-1.43-1.33-3.48-1.99-6.13-1.99h-11.2v14.18h11.5z"/></svg>