<svg xmlns="http://www.w3.org/2000/svg" viewBox="0 0 128 128" style="enable-background:new 0 0 128 128" xml:space="preserve"><path style="fill:#232020" d="M52.81 24.87c-60.57 0-38.8 75.78-28.98 89.43 3.9 5.41 11.43 5.71 11.43 5.71l16.97-.03 16.97.03s7.54-.3 11.43-5.71c9.84-13.65 32.75-89.43-27.82-89.43z"/><radialGradient id="a" cx="52.505" cy="55.562" r="44.245" gradientTransform="matrix(1 0 0 -1 0 128)" gradientUnits="userSpaceOnUse"><stop offset=".794" style="stop-color:#444140;stop-opacity:0"/><stop offset="1" style="stop-color:#444140"/></radialGradient><path style="fill:url(#a)" d="M52.81 24.87c-60.57 0-38.8 75.78-28.98 89.43 3.9 5.41 11.43 5.71 11.43 5.71l16.97-.03 16.97.03s7.54-.3 11.43-5.71c9.84-13.65 32.75-89.43-27.82-89.43z"/><path style="fill:#e59600" d="M51.47 37.93C25.35 37.24-5.38 8.76 5.01 39.2c5.98 17.5 26.2 26.03 46.46 25.77 20.26.26 40.48-8.26 46.46-25.77 10.39-30.44-20.34-1.96-46.46-1.27z"/><path style="fill:#3c2b24" d="M51.72 90.68H42.8v10.68c0 4.83 3.63 8.74 8.11 8.74h1.62c4.48 0 8.11-3.92 8.11-8.74V90.68h-8.92z"/><linearGradient id="b" gradientUnits="userSpaceOnUse" x1="51.72" y1="4" x2="51.72" y2="29.982" gradientTransform="matrix(1 0 0 -1 0 128)"><stop offset="0" style="stop-color:#709e3b"/><stop offset=".328" style="stop-color:#73a13e"/><stop offset=".595" style="stop-color:#7dab47"/><stop offset=".839" style="stop-color:#8dbc57"/><stop offset="1" style="stop-color:#9ccc65"/></linearGradient><path style="fill:url(#b)" d="M95.73 120.81c0-17.79-25.56-21.89-34.66-22.78l-7.67 10.54h-3.33l-7.55-10.56c-9.85.93-18.23 3.27-24.28 6.78-6.98 4.05-10.51 9.44-10.51 16.01v3.2h88.02v-3.19z"/><linearGradient id="c" gradientUnits="userSpaceOnUse" x1="51.791" y1="3.482" x2="51.791" y2="28.074" gradientTransform="matrix(1 0 0 -1 0 128)"><stop offset="0" style="stop-color:#1e88e5"/><stop offset="1" style="stop-color:#1565c0"/></linearGradient><path style="fill:url(#c)" d="m83.64 120.08-7.17-5.52.25-.39-25.99.49-23.87-.49.25.39-7.17 5.52-.17 3.92h64.04z"/><linearGradient id="d" gradientUnits="userSpaceOnUse" x1="28.334" y1="4.008" x2="28.334" y2="27.385" gradientTransform="matrix(1 0 0 -1 0 128)"><stop offset="0" style="stop-color:#1e88e5"/><stop offset="1" style="stop-color:#1565c0"/></linearGradient><path style="fill:url(#d)" d="m33.78 107.13-.11-7.82s-5.79 1.2-7.87 2.1l-2.92 6.6 3.78 5.86 7.12-6.74z"/><linearGradient id="e" gradientUnits="userSpaceOnUse" x1="65.915" y1="4.008" x2="65.915" y2="27.385" gradientTransform="rotate(180 70.581 64)"><stop offset="0" style="stop-color:#1e88e5"/><stop offset="1" style="stop-color:#1565c0"/></linearGradient><path style="fill:url(#e)" d="m69.8 107.13.11-7.82s5.79 1.2 7.87 2.1l2.92 6.6-3.79 5.86-7.11-6.74z"/><path style="fill:#bdbdbd" d="m72.97 115.61 5.17.98a2.56 2.56 0 0 0 2.98-2.03 2.56 2.56 0 0 0-2.03-2.98l-5.17-.98a2.56 2.56 0 0 0-2.98 2.03c-.26 1.39.64 2.72 2.03 2.98zm-42.36 0-5.17.98c-1.38.26-2.72-.65-2.98-2.03a2.56 2.56 0 0 1 2.03-2.98l5.17-.98a2.56 2.56 0 0 1 2.98 2.03c.26 1.39-.64 2.72-2.03 2.98z"/><linearGradient id="f" gradientUnits="userSpaceOnUse" x1="43.175" y1="27.731" x2="43.175" y2="12.954" gradientTransform="matrix(1 0 0 -1 0 128)"><stop offset="0" style="stop-color:#aed581"/><stop offset="1" style="stop-color:#8bc34a"/></linearGradient><path style="fill:url(#f)" d="M42.38 98.03c-2.61.25-5.11.61-7.5 1.05l-.25 20.95 17.09-11.53-9.34-10.47z"/><linearGradient id="g" gradientUnits="userSpaceOnUse" x1="60.265" y1="29.912" x2="60.265" y2="12.478" gradientTransform="matrix(1 0 0 -1 0 128)"><stop offset="0" style="stop-color:#aed581"/><stop offset="1" style="stop-color:#8bc34a"/></linearGradient><path style="fill:url(#g)" d="M68.56 99.11c-2.96-.56-5.59-.89-7.49-1.08l-9.34 10.48 17.09 11.53-.26-20.93z"/><path style="fill:#70534a" d="M51.72 17.3c-17.14 0-33.01 12.74-33.01 39.76 0 21.7 13.44 34.54 25.14 38.68 2.79.99 5.48 1.49 7.87 1.49 2.37 0 5.05-.49 7.82-1.47 11.71-4.12 25.18-16.97 25.18-38.7.01-27.02-15.86-39.75-33-39.76z"/><ellipse style="fill:#1a1717" cx="36.17" cy="60.01" rx="4.84" ry="5.01"/><ellipse style="fill:#1a1717" cx="66.77" cy="60.01" rx="4.84" ry="5.01"/><path style="fill:#1a1717" d="M59.85 77.04c-3.13 1.86-13.39 1.86-16.52 0-1.8-1.07-3.63.57-2.89 2.2.73 1.61 6.33 5.33 11.17 5.33s10.36-3.72 11.1-5.33c.75-1.64-1.06-3.27-2.86-2.2zM43.36 51.13c-.91-1.21-3.02-2.96-7.1-2.96s-6.19 1.75-7.1 2.96c-.4.53-.3 1.15-.02 1.52.26.35 1.02.67 1.87.38s2.49-1.14 5.26-1.16c2.76.02 4.41.87 5.26 1.16.85.29 1.61-.03 1.87-.38.26-.37.36-.99-.04-1.52zm30.43 0c-.91-1.21-3.02-2.96-7.1-2.96s-6.19 1.75-7.1 2.96c-.4.53-.3 1.15-.02 1.52.26.35 1.02.67 1.87.38s2.49-1.14 5.26-1.16c2.76.02 4.41.87 5.26 1.16s1.61-.03 1.87-.38c.26-.37.36-.99-.04-1.52z"/><path style="fill:#33251f" d="M55.26 69.09c-.1-.04-.21-.07-.32-.08H48c-.11.01-.21.04-.32.08-.63.26-.98.91-.68 1.6.3.69 1.68 2.64 4.47 2.64s4.17-1.95 4.47-2.64c.3-.69-.05-1.34-.68-1.6z"/><path style="fill:#232020" d="M91.58 66.72h-7.71c.06-3.83.09-15.69-3.9-19.38-3.35-3.1-13.98-9.67-17.27-16.86 0 0-12.66 11.86-35.02 16.89-6.09 1.37-8.13 16.42-8.08 19.33l-7.72.02c-.02-.33-3.36-41.85 40.93-41.85s38.77 41.8 38.77 41.85z"/><radialGradient id="h" cx="52.935" cy="61.378" r="41.45" gradientTransform="matrix(1 0 0 -1 0 128)" gradientUnits="userSpaceOnUse"><stop offset=".843" style="stop-color:#444140;stop-opacity:0"/><stop offset="1" style="stop-color:#444140;stop-opacity:.8"/></radialGradient><path style="fill:url(#h)" d="M91.58 66.72h-7.71c.06-3.83.09-15.69-3.9-19.38-3.35-3.1-13.98-9.67-17.27-16.86 0 0-12.66 11.86-35.02 16.89-6.09 1.37-8.13 16.42-8.08 19.33l-7.72.02c-.02-.33-3.36-41.85 40.93-41.85s38.77 41.8 38.77 41.85z"/><linearGradient id="i" gradientUnits="userSpaceOnUse" x1="51.471" y1="120.426" x2="51.471" y2="96.641" gradientTransform="matrix(1 0 0 -1 0 128)"><stop offset=".003" style="stop-color:#fff59d"/><stop offset=".553" style="stop-color:#fee565"/><stop offset=".996" style="stop-color:#fdd835"/></linearGradient><path style="fill:url(#i)" d="M77.49 29.04C72.67 17.05 67.93 7.59 61.86 6.86c-1.62-.19-5.86-.73-10.15-.74-4.45 0-8.95.54-10.62.74-6.07.73-10.81 10.19-15.64 22.17-2.62 6.5 54.66 6.5 52.04.01z"/><linearGradient id="j" gradientUnits="userSpaceOnUse" x1="51.47" y1="101.453" x2="51.47" y2="72.425" gradientTransform="matrix(1 0 0 -1 0 128)"><stop offset=".003" style="stop-color:#fff59d"/><stop offset=".553" style="stop-color:#fee565"/><stop offset=".996" style="stop-color:#fdd835"/></linearGradient><path style="fill:url(#j)" d="M91.57 24.72c-9.43 1.71-25.18 3.7-39.53 3.76H50.9c-14.35-.06-30.1-2.05-39.53-3.76-8.14-1.48-8.43 3.84-8.43 3.84s2.58-3.19 7.11 1.23c7.03 6.86 18.48 17.75 40.77 17.84.22 0 .43-.01.65-.01.22 0 .43.01.65.01 22.3-.1 33.74-10.98 40.77-17.84 4.53-4.42 7.11-1.23 7.11-1.23s-.29-5.32-8.43-3.84z"/><path style="fill:#78909c" d="M51.47 20.37c-15.18 0-25.05 6.55-25.05 6.55s14.37 1.47 25.05 1.47 25.05-1.47 25.05-1.47-9.87-6.55-25.05-6.55z"/><path style="fill:none;stroke:#d18100;stroke-width:5;stroke-miterlimit:10" d="M107.48 109.01V124"/><path style="fill:#636363" d="M108.64 116.76h-2.32c-1.39 0-2.51 0-2.51-2.51v-12.01h7.33v12.01c.01 2.13-1.12 2.51-2.5 2.51z"/><path style="fill:#616161" d="M116.73 99.5c-1.84 0-7.74.06-9.07.06-2.12 0-7.74-.19-10.03-.19-7.48 0-7.54-26.69-7.54-26.69v24.71c0 6.69 3.42 8.83 9.42 9.05h15.38c5.42 0 7.35-3.71 7.35-8.15l-.38-4.86c-.02.01-1.47 6.07-5.13 6.07z"/><linearGradient id="k" gradientUnits="userSpaceOnUse" x1="106.778" y1="19.532" x2="106.778" y2="78.202" gradientTransform="matrix(1 0 0 -1 0 128)"><stop offset="0" style="stop-color:#757575"/><stop offset=".482" style="stop-color:#9e9e9e"/></linearGradient><path style="fill:url(#k)" d="M123.37 38.4c-.11-.42-.73-.41-.83.01l-1.15 4.68-2 52.18s-.01.27-.01.41c0 1.54-1.19 2.64-2.73 2.64s-2.81-1.12-2.81-2.66c0-.22.6-52.38.6-52.38l-1.19-5.13c-.11-.42-.72-.42-.83-.01l-1.35 5.05-.62 52.15c0 1.7-1.03 2.99-2.73 2.99s-3.08-1.38-3.08-3.08l-.3-52.17-1.18-4.94c-.11-.41-.71-.41-.83 0l-1.5 5.15.03 51.86c0 1.76-1.22 3.19-2.98 3.19-1.96 0-3.4-1.43-3.4-3.19l-2.04-52.06-1.34-4.97c-.11-.42-.6-.34-.72.07l-1.37 5 1.6 53.63c0 4.52 2.88 7.94 8.88 8.17h15.38c5.42 0 7.5-3.73 7.5-8.17l2.16-53.4-1.16-5.02z"/></svg>