<svg xmlns="http://www.w3.org/2000/svg" viewBox="0 0 128 128" style="enable-background:new 0 0 128 128" xml:space="preserve"><path style="fill:#543930" d="M34.99 4.2C7.99 4.2 8.2 29.17 8.2 29.57c0 16.17 1.24 39.02 7.71 48.01 2.57 3.56 7.53 3.76 7.53 3.76l11.18-.02 11.18.02s4.96-.2 7.53-3.76c6.47-8.99 7.71-31.84 7.71-48.01-.01-.4.96-25.37-26.05-25.37z"/><radialGradient id="a" cx="93.38" cy="87.209" r="31.303" gradientTransform="matrix(1 0 0 -1.1901 -58.76 144.577)" gradientUnits="userSpaceOnUse"><stop offset=".794" style="stop-color:#6d4c41;stop-opacity:0"/><stop offset="1" style="stop-color:#6d4c41"/></radialGradient><path style="fill:url(#a)" d="M34.99 4.2C7.99 4.2 8.2 29.17 8.2 29.57c0 16.17 1.24 39.02 7.71 48.01 2.57 3.56 7.53 3.76 7.53 3.76l11.18-.02 11.18.02s4.96-.2 7.53-3.76c6.47-8.99 7.71-31.84 7.71-48.01-.01-.4.96-25.37-26.05-25.37z"/><linearGradient id="b" gradientUnits="userSpaceOnUse" x1="1004" y1="4.703" x2="1004" y2="60.569" gradientTransform="rotate(180 519 64)"><stop offset="0" style="stop-color:#530eeb"/><stop offset="1" style="stop-color:#651fff"/></linearGradient><path style="fill:url(#b)" d="M4 77.03V124h60V88.4c0-12.19-9.05-19.62-20.8-21.73-.09-.02-.17-.04-.26-.05-.5-.09-1.01-.16-1.51-.23-.49-.07-.98-.14-1.47-.19-.49-.06-.98-.11-1.47-.15-.03 0-.06 0-.09-.01l-1.4-.09c-1.03-.07-2.06-.1-3.07-.1-4.53 0-8.92.57-13.07 1.55C14.05 69.02 7.84 72.23 4 77.03z"/><path style="fill:#e59600" d="M34.62 74.16c-3.87 0-7-3.13-7-7v-6.42h14v6.42c0 3.87-3.13 7-7 7z"/><linearGradient id="c" gradientUnits="userSpaceOnUse" x1="1030" y1="4.419" x2="1030" y2="32.047" gradientTransform="rotate(180 519 64)"><stop offset=".604" style="stop-color:#ffca28"/><stop offset="1" style="stop-color:#ffb300"/></linearGradient><path style="fill:url(#c)" d="M12 96v28H4V96z"/><path style="fill:#ffca28" d="M34.62 11.85c-11.36 0-21.88 8.45-21.88 26.36 0 14.39 8.91 22.9 16.67 25.64 1.85.65 3.63.98 5.22.98 1.57 0 3.35-.33 5.19-.97 7.76-2.73 16.7-11.25 16.7-25.65-.02-17.92-10.54-26.36-21.9-26.36z"/><path style="fill:#795548" d="M40.11 51.54c-2.08 1.24-8.89 1.24-10.97 0-1.19-.71-2.41.38-1.92 1.46.49 1.07 4.21 3.54 7.42 3.54s6.88-2.47 7.37-3.54c.5-1.09-.7-2.17-1.9-1.46z"/><path style="fill:#e59600" d="M37.14 46.2a.802.802 0 0 0-.21-.05h-4.62c-.07.01-.14.03-.21.05-.42.17-.65.6-.45 1.06s1.12 1.76 2.97 1.76 2.77-1.3 2.97-1.76c.2-.46-.03-.89-.45-1.06z"/><ellipse style="fill:#404040" cx="23.89" cy="40.13" rx="3.22" ry="3.33"/><ellipse style="fill:#404040" cx="45.35" cy="40.13" rx="3.22" ry="3.33"/><path style="fill:#6d4c41" d="M28.67 34.15c-.61-.81-2.03-1.99-4.78-1.99s-4.17 1.18-4.78 1.99c-.27.36-.2.77-.01 1.02.17.23.69.45 1.26.26.57-.19 1.68-.77 3.54-.78 1.86.01 2.97.59 3.54.78.57.19 1.08-.02 1.26-.26.17-.24.24-.66-.03-1.02zm21.46 0c-.61-.81-2.03-1.99-4.78-1.99s-4.17 1.18-4.78 1.99c-.27.36-.2.77-.01 1.02.17.23.69.45 1.26.26.57-.19 1.68-.77 3.54-.78 1.86.01 2.97.59 3.54.78.57.19 1.08-.02 1.26-.26.17-.24.24-.66-.03-1.02z"/><path style="fill:#543930" d="M34.99 4.2C7.99 4.2 8.2 29.17 8.2 29.57c0 5.11.12 10.88.5 16.68l7.76 15.53s-1.34-12.17-1.49-20.42c-.02-1.06-.2-3.72.31-6.04.79-1.96 1.83-3.48 3.17-3.78C33.17 28.22 41.5 20.41 41.5 20.41c2.17 4.73 8.94 9.35 11.38 11.1.69.5 1.21 2.11 1.6 4.11.21 2.07.13 4.34.11 5.67l-2.01 20.44 7.95-15.48c0-.03.01-.07.02-.1.37-5.76.49-11.5.49-16.58-.01-.4.96-25.37-26.05-25.37z"/><radialGradient id="d" cx="93.6" cy="84.558" r="32.788" gradientTransform="matrix(1 0 0 -1.2135 -58.76 146.055)" gradientUnits="userSpaceOnUse"><stop offset=".794" style="stop-color:#6d4c41;stop-opacity:0"/><stop offset="1" style="stop-color:#6d4c41"/></radialGradient><path style="fill:url(#d)" d="M34.99 4.2C7.99 4.2 8.2 29.17 8.2 29.57c0 5.11.12 10.88.5 16.68l4.42-.01c-.04-1.92 1.31-13.81 5.32-14.71C33.17 28.21 41.5 20.4 41.5 20.4c2.17 4.73 8.94 9.35 11.38 11.1 2 1.44 2.61 12.22 2.57 14.74h5.08c0-.03.01-.07.02-.1.37-5.76.49-11.5.49-16.58-.01-.39.96-25.36-26.05-25.36z"/><path style="fill:#543930" d="M93.75 4.2c-27.01 0-26.79 24.97-26.79 25.37 0 16.17 1.24 39.02 7.71 48.01 2.57 3.56 7.53 3.76 7.53 3.76l11.18-.02 11.18.02s4.96-.2 7.53-3.76c6.47-8.99 7.71-31.84 7.71-48.01-.01-.4.96-25.37-26.05-25.37z"/><radialGradient id="e" cx="93.379" cy="87.209" r="31.303" gradientTransform="matrix(1 0 0 -1.1901 0 144.577)" gradientUnits="userSpaceOnUse"><stop offset=".794" style="stop-color:#6d4c41;stop-opacity:0"/><stop offset="1" style="stop-color:#6d4c41"/></radialGradient><path style="fill:url(#e)" d="M93.75 4.2c-27.01 0-26.79 24.97-26.79 25.37 0 16.17 1.24 39.02 7.71 48.01 2.57 3.56 7.53 3.76 7.53 3.76l11.18-.02 11.18.02s4.96-.2 7.53-3.76c6.47-8.99 7.71-31.84 7.71-48.01-.01-.4.96-25.37-26.05-25.37z"/><path style="fill:#a0f" d="M124 77.03V124H64V88.4c0-12.19 9.05-19.62 20.8-21.73.09-.02.17-.04.26-.05.5-.09 1.01-.16 1.51-.23.49-.07.98-.14 1.47-.19.49-.06.98-.11 1.47-.15.03 0 .06 0 .09-.01l1.4-.09c1.03-.07 2.06-.1 3.07-.1 4.53 0 8.92.57 13.07 1.55 6.81 1.62 13.02 4.83 16.86 9.63z"/><path style="fill:#e59600" d="M93.38 74.16c-3.87 0-7-3.13-7-7v-6.42h14v6.42c0 3.87-3.13 7-7 7z"/><linearGradient id="f" gradientUnits="userSpaceOnUse" x1="120" y1="4.419" x2="120" y2="32.047" gradientTransform="matrix(1 0 0 -1 0 128)"><stop offset=".604" style="stop-color:#ffca28"/><stop offset="1" style="stop-color:#ffb300"/></linearGradient><path style="fill:url(#f)" d="M116 96v28h8V96z"/><path style="fill:#ffca28" d="M93.38 11.85c-11.36 0-21.88 8.45-21.88 26.36 0 14.39 8.91 22.9 16.67 25.64 1.85.65 3.63.98 5.22.98 1.57 0 3.35-.33 5.18-.97 7.76-2.73 16.7-11.25 16.7-25.65-.01-17.92-10.53-26.36-21.89-26.36z"/><path style="fill:#795548" d="M98.87 51.54c-2.08 1.24-8.89 1.24-10.97 0-1.19-.71-2.41.38-1.92 1.46.49 1.07 4.21 3.54 7.42 3.54s6.88-2.47 7.37-3.54c.5-1.09-.7-2.17-1.9-1.46z"/><path style="fill:#e59600" d="M95.9 46.2a.802.802 0 0 0-.21-.05h-4.62c-.07.01-.14.03-.21.05-.42.17-.65.6-.45 1.06.2.46 1.12 1.76 2.97 1.76s2.77-1.3 2.97-1.76c.2-.46-.03-.89-.45-1.06z"/><ellipse style="fill:#404040" cx="82.65" cy="40.13" rx="3.21" ry="3.33"/><ellipse style="fill:#404040" cx="104.11" cy="40.13" rx="3.21" ry="3.33"/><path style="fill:#6d4c41" d="M87.43 34.15c-.61-.81-2.03-1.99-4.78-1.99s-4.17 1.18-4.78 1.99c-.27.36-.2.77-.01 1.02.17.23.69.45 1.26.26.57-.19 1.68-.77 3.54-.78 1.86.01 2.97.59 3.54.78.57.19 1.08-.02 1.26-.26.17-.24.24-.66-.03-1.02zm21.46 0c-.61-.81-2.03-1.99-4.78-1.99s-4.17 1.18-4.78 1.99c-.27.36-.2.77-.01 1.02.17.23.69.45 1.26.26.57-.19 1.68-.77 3.54-.78 1.86.01 2.97.59 3.54.78.57.19 1.08-.02 1.26-.26.17-.24.24-.66-.03-1.02z"/><path style="fill:#543930" d="M93.75 4.2c-27.01 0-26.79 24.97-26.79 25.37 0 5.11.12 10.88.5 16.68l7.76 15.53s-1.34-12.17-1.49-20.42c-.02-1.06-.2-3.72.31-6.04.79-1.96 1.83-3.48 3.17-3.78 14.72-3.31 23.06-11.12 23.06-11.12 2.17 4.73 8.94 9.35 11.38 11.1.69.5 1.21 2.11 1.6 4.11.21 2.07.13 4.34.11 5.67l-2.01 20.44 7.95-15.48c0-.03.01-.07.02-.1.37-5.76.49-11.5.49-16.58-.02-.41.95-25.38-26.06-25.38z"/><radialGradient id="g" cx="93.6" cy="84.558" r="32.788" gradientTransform="matrix(1 0 0 -1.2135 0 146.055)" gradientUnits="userSpaceOnUse"><stop offset=".794" style="stop-color:#6d4c41;stop-opacity:0"/><stop offset="1" style="stop-color:#6d4c41"/></radialGradient><path style="fill:url(#g)" d="M93.75 4.2c-27.01 0-26.79 24.97-26.79 25.37 0 5.11.12 10.88.5 16.68l4.42-.01c-.04-1.92 1.31-13.81 5.32-14.71 14.72-3.31 23.06-11.12 23.06-11.12 2.17 4.73 8.94 9.35 11.38 11.1 2 1.44 2.61 12.22 2.57 14.74h5.07c0-.03.01-.07.02-.1.37-5.76.49-11.5.49-16.58 0-.4.97-25.37-26.04-25.37z"/><radialGradient id="h" cx="64" cy="33.024" r="27.104" gradientTransform="matrix(1 0 0 -1.4568 0 143.084)" gradientUnits="userSpaceOnUse"><stop offset=".594" style="stop-color:#212121"/><stop offset="1" style="stop-color:#616161;stop-opacity:.05"/></radialGradient><path style="opacity:.4;fill:url(#h);enable-background:new" d="M91 65.95V124H37V65.98c.22 0 .45.01.67.01 1.75.12 3.5.33 5.27.63C54.82 68.67 64 76.12 64 88.4c0-12.19 9.05-19.62 20.8-21.73.1-.02.2-.03.3-.05.49-.08.98-.16 1.47-.23s.98-.14 1.47-.19c.49-.06.98-.11 1.47-.15.03 0 .06 0 .09-.01l1.4-.09z"/><path style="fill:#b2ebf2" d="M60.9 121.96c0-9.84-12.51-13.14-16.87-13.14h-9.38c-4.35 0-16.88 3.3-16.88 13.14 0 0-.01.79-.03 2.02h43.19c-.02-1.01-.03-2.02-.03-2.02z"/><path style="fill:#e59600" d="M39.33 116.29a4.69 4.69 0 0 1-4.69-4.69V108h9.39v3.6c0 2.59-2.1 4.69-4.7 4.69zm14.75-27.1H24.59c-3.18 0-5.78 2.5-5.78 5.56s2.6 5.56 5.78 5.56h29.48c3.18 0 5.78-2.5 5.78-5.56s-2.6-5.56-5.77-5.56z"/><path style="fill:#ffca28" d="M39.33 66.25c-9.33 0-17.96 9.8-17.96 23.89 0 14.02 8.9 20.96 17.96 20.96s17.96-6.93 17.96-20.96c.01-14.09-8.63-23.89-17.96-23.89z"/><path style="fill:#795548" d="M43.66 100.87c-1.64.97-7 .97-8.64 0-.94-.56-1.9.3-1.51 1.15.38.84 3.31 2.79 5.84 2.79s5.42-1.95 5.8-2.79c.4-.85-.55-1.7-1.49-1.15z"/><path style="fill:#e59600" d="M41.32 96.71a.471.471 0 0 0-.17-.04h-3.63c-.06.01-.11.02-.17.04-.33.13-.51.47-.35.84.16.36.88 1.38 2.34 1.38s2.18-1.02 2.34-1.38c.15-.37-.03-.71-.36-.84z"/><ellipse style="fill:#404040" cx="30.79" cy="94.05" rx="2.53" ry="2.62"/><ellipse style="fill:#404040" cx="47.88" cy="94.05" rx="2.53" ry="2.62"/><path style="fill:#6d4c41" d="M26.84 89.39c.1-.13.13-.21.31-.39.4-.42 1.18-.92 1.94-1.18.73-.25 1.07-.25 1.62-.25.85 0 1.37.18 1.62.25.35.12.68.28 1.01.46.55.33 1.74 1.14 1.38 1.87-.4.81-1.01.51-1.56.3-.24-.07-1.32-.5-2.46-.5-.62 0-.88.07-1.05.09-.73.12-1.28.35-1.38.38-.38.15-.65.37-1.08.2-.45-.19-.64-.79-.35-1.23zm24.99 0c-.1-.13-.13-.21-.31-.39-.4-.42-1.18-.92-1.94-1.18-.73-.25-1.07-.25-1.62-.25-.85 0-1.37.18-1.62.25-.35.12-.68.28-1.01.46-.55.33-1.74 1.14-1.38 1.87.4.81 1.01.51 1.56.3.24-.07 1.32-.5 2.46-.5.62 0 .88.07 1.04.09.73.12 1.28.35 1.38.38.38.15.65.37 1.08.2.46-.19.65-.79.36-1.23z"/><path style="fill:#543930" d="M39.44 64.15c-19.93 0-21.32 16.28-20.51 23.4.7 6.29 3.99 7.84 3.99 7.84s-.65-5.49.4-9.47c.83-3.16 2.8-5.5 2.8-5.5s3.59 3.12 10.3 5.15c3.23.98 7.37.49 7.37.49l-2.32-4.1s3.8 2.79 6.16 3.32c3.03.68 5.25.39 5.25.39l-1.11-4.33s1.92 1.26 3.37 4.71c1.44 3.45.55 9.34.55 9.34s3.47-1.54 4.02-7.84c.7-7.9-.43-23.4-20.27-23.4z"/><radialGradient id="i" cx="39.352" cy="33.247" r="23.081" gradientTransform="matrix(0 1.1138 -.9718 0 71.567 42.172)" gradientUnits="userSpaceOnUse"><stop offset=".794" style="stop-color:#6d4c41;stop-opacity:0"/><stop offset="1" style="stop-color:#6d4c41"/></radialGradient><path style="fill:url(#i)" d="M39.44 64.15c-19.93 0-21.32 16.28-20.51 23.4.7 6.29 3.99 7.84 3.99 7.84s-.65-5.49.4-9.47c.83-3.16 2.8-5.5 2.8-5.5s3.59 3.12 10.3 5.15c3.23.98 7.37.49 7.37.49l-2.32-4.1s3.8 2.79 6.16 3.32c3.03.68 5.25.39 5.25.39l-1.11-4.33s1.92 1.26 3.37 4.71c1.44 3.45.55 9.34.55 9.34s3.47-1.54 4.02-7.84c.7-7.9-.43-23.4-20.27-23.4z"/><path style="fill:#b2ebf2" d="M110.23 121.96c0-9.84-12.51-13.14-16.87-13.14h-9.38c-4.35 0-16.88 3.3-16.88 13.14 0 0-.01.79-.03 2.02h43.18l-.02-2.02z"/><path style="fill:#e59600" d="M88.67 116.29a4.69 4.69 0 0 1-4.69-4.69V108h9.39v3.6a4.705 4.705 0 0 1-4.7 4.69zm14.73-27.1H73.93c-3.18 0-5.78 2.5-5.78 5.56s2.6 5.56 5.78 5.56h29.47c3.18 0 5.78-2.5 5.78-5.56s-2.6-5.56-5.78-5.56z"/><path style="fill:#ffca28" d="M88.67 66.25c-9.33 0-17.96 9.8-17.96 23.89 0 14.02 8.9 20.96 17.96 20.96s17.96-6.93 17.96-20.96c0-14.09-8.64-23.89-17.96-23.89z"/><path style="fill:#795548" d="M92.99 100.87c-1.64.97-7 .97-8.64 0-.94-.56-1.9.3-1.51 1.15.38.84 3.31 2.79 5.84 2.79s5.42-1.95 5.8-2.79c.4-.85-.55-1.7-1.49-1.15z"/><path style="fill:#e59600" d="M90.65 96.71a.471.471 0 0 0-.17-.04h-3.63c-.06.01-.11.02-.17.04-.33.13-.51.47-.36.84s.88 1.38 2.34 1.38 2.18-1.02 2.34-1.38c.16-.37-.02-.71-.35-.84z"/><ellipse style="fill:#404040" cx="80.12" cy="94.05" rx="2.53" ry="2.62"/><ellipse style="fill:#404040" cx="97.21" cy="94.05" rx="2.53" ry="2.62"/><path style="fill:#6d4c41" d="M76.17 89.39c.1-.13.13-.21.31-.39.39-.42 1.18-.92 1.94-1.18.73-.25 1.07-.25 1.62-.25.85 0 1.37.18 1.62.25.35.12.68.28 1.01.46.55.33 1.74 1.14 1.38 1.87-.4.81-1.01.51-1.56.3-.24-.07-1.32-.5-2.46-.5-.62 0-.88.07-1.04.09-.73.12-1.28.35-1.38.38-.38.15-.65.37-1.07.2a.837.837 0 0 1-.37-1.23zm24.99 0c-.1-.13-.13-.21-.31-.39-.39-.42-1.18-.92-1.94-1.18-.73-.25-1.07-.25-1.62-.25-.85 0-1.37.18-1.62.25-.35.12-.68.28-1.01.46-.55.33-1.74 1.14-1.38 1.87.4.81 1.01.51 1.56.3.24-.07 1.32-.5 2.46-.5.62 0 .88.07 1.04.09.73.12 1.28.35 1.38.38.38.15.65.37 1.07.2.47-.19.66-.79.37-1.23z"/><path style="fill:#543930" d="M88.77 64.15c-19.93 0-21.32 16.28-20.51 23.4.71 6.29 3.99 7.84 3.99 7.84s-.64-5.49.4-9.47c.83-3.16 2.8-5.5 2.8-5.5s3.6 3.12 10.3 5.15c3.23.98 7.37.49 7.37.49l-2.32-4.1s3.8 2.79 6.16 3.32c3.03.68 5.25.39 5.25.39l-1.11-4.33s1.93 1.26 3.37 4.71c1.44 3.45.55 9.34.55 9.34s3.46-1.54 4.02-7.84c.7-7.9-.42-23.4-20.27-23.4z"/><radialGradient id="j" cx="39.352" cy="33.247" r="23.081" gradientTransform="matrix(0 1.1138 -.9718 0 120.898 42.172)" gradientUnits="userSpaceOnUse"><stop offset=".794" style="stop-color:#6d4c41;stop-opacity:0"/><stop offset="1" style="stop-color:#6d4c41"/></radialGradient><path style="fill:url(#j)" d="M88.77 64.15c-19.93 0-21.32 16.28-20.51 23.4.71 6.29 3.99 7.84 3.99 7.84s-.64-5.49.4-9.47c.83-3.16 2.8-5.5 2.8-5.5s3.6 3.12 10.3 5.15c3.23.98 7.37.49 7.37.49l-2.32-4.1s3.8 2.79 6.16 3.32c3.03.68 5.25.39 5.25.39l-1.11-4.33s1.93 1.26 3.37 4.71c1.44 3.45.55 9.34.55 9.34s3.46-1.54 4.02-7.84c.7-7.9-.42-23.4-20.27-23.4z"/></svg>