<svg xmlns="http://www.w3.org/2000/svg" viewBox="0 0 128 128" style="enable-background:new 0 0 128 128" xml:space="preserve"><linearGradient id="a" gradientUnits="userSpaceOnUse" x1="64" y1="84.257" x2="64" y2="123.663"><stop offset="0" style="stop-color:#00bfa5"/><stop offset=".515" style="stop-color:#00b29a"/><stop offset="1" style="stop-color:#00ab94"/></linearGradient><path style="fill:url(#a)" d="M105.85 103.24c-2.11-4.78-8.32-19.66-15.93-23.1-8.26-3.72-25.92.7-25.92.7s-17.4-4.23-25.66-.5c-7.61 3.43-14.08 18.12-16.2 22.9-2.11 4.78-3.8 11.35-1.13 15.38 2.68 4.03 5.93 5.38 11.92 5.38h61.11c7.94 0 10.26-1.34 12.93-5.38 2.68-4.03.99-10.6-1.12-15.38z"/><linearGradient id="b" gradientUnits="userSpaceOnUse" x1="26.31" y1="99.818" x2="53.27" y2="99.818"><stop offset=".5" style="stop-color:#ba8d68"/><stop offset="1" style="stop-color:#a47b62"/></linearGradient><path style="fill:url(#b)" d="M52.88 101.03c.38-.12.5-.57.28-.9-1.54-2.32-5.72-6.76-10.76-7.79-3.25-.67-6.42-.31-9.15.38-2.4.61-5.09 2.23-5.79 3.2-1.64 2.28.37 3.17.37 3.17s-2.01 1.41-1.41 2.97c.72 1.84 3.24.9 3.24.9s-1.28 1.17-.09 2.53c.99 1.14 3.37.35 3.37.35s-.39.9.77 1.57c1.57.91 3.92-1.18 5.54-1.83.88-.35 2.62-.96 3.67-1.34 3.24-1.15 7.24-1.96 9.96-3.21z"/><path style="fill:#00796b" d="M47.95 124c11.25-1.44 31.69-10.89 32.27-11.4.58-.51.2-1.99.2-1.99s12.52-5.18 13.2-4.26.36 1.24-.57 1.87c-.66.44-11.06 4.66-15.73 7.67-7.33 4.71-14.24 8.06-14.24 8.06l-15.13.05z"/><linearGradient id="c" gradientUnits="userSpaceOnUse" x1="68.578" y1="104.21" x2="94.07" y2="104.21"><stop offset=".5" style="stop-color:#ba8d68"/><stop offset="1" style="stop-color:#a47b62"/></linearGradient><path style="fill:url(#c)" d="M68.58 98.96s7.59 3.01 11.85 11.65c0 0 1.88-.24 4.34-1.06s3.35-1.65 4.92-1.93c1.57-.28 3.96-.34 4.26-.87.8-1.42-2.11-6.15-7.32-7.79-8.22-2.59-18.05 0-18.05 0z"/><path style="fill:#91674d" d="M31.3 106.12c.35-.46 1.2-1.23 1.7-1.66 1.55-1.35 3.77-2.52 6.16-3.2.28-.08.58.08.66.37.08.28-.08.58-.37.66-2.93.83-4.95 2.02-6.51 3.57 0 0-.27.08-.78.2-.38.08-.86.06-.86.06zm-3.39-2.93c2.72-3.21 5.75-4.16 9.1-5.02.28-.07.58.1.65.39s-.1.58-.39.65c-3.16.81-5.56 1.77-7.62 3.76 0 0-.31.14-.73.2-.55.08-1.01.02-1.01.02zm-.88-4.79c1.9-1.7 4.35-2.88 7.63-3.67.29-.06.58.11.65.4a.54.54 0 0 1-.4.65c-3.04.73-5.32 1.8-7.07 3.34 0 0-.27-.09-.46-.24-.19-.17-.35-.48-.35-.48z"/><path style="fill:#99674f" d="M71.81 77.11H56.19v8.59c0 3.88 3.18 7.03 7.11 7.03h1.42c3.92 0 7.11-3.15 7.11-7.03l-.02-8.59zM87.51 43H40.49c-5.07 0-9.21 4.42-9.21 9.82s4.15 9.82 9.21 9.82H87.5c5.07 0 9.21-4.42 9.21-9.82.01-5.4-4.13-9.82-9.2-9.82z"/><path style="fill:#ba8d68" d="M64 9.14c-14.97 0-28.84 16.01-28.84 39.05 0 22.92 14.29 34.25 28.84 34.25S92.84 71.1 92.84 48.19C92.84 25.15 78.97 9.14 64 9.14z"/><path style="fill:#49362e" d="M54.1 50.21c0 1.33-.58 2.53-1.49 3.33H47.1c-.91-.8-1.49-2-1.49-3.33 0-2.43 1.9-4.39 4.24-4.39 2.35 0 4.25 1.96 4.25 4.39zm28.28 0c0 1.33-.58 2.53-1.49 3.33h-5.51c-.91-.8-1.49-2-1.49-3.33 0-2.43 1.9-4.39 4.24-4.39 2.35 0 4.25 1.96 4.25 4.39z"/><path style="fill:#99674f" d="M67.32 58.17c-.09-.03-.18-.06-.28-.07h-6.08a.96.96 0 0 0-.28.07c-.55.22-.85.79-.59 1.4.26.61 1.47 2.31 3.91 2.31 2.44 0 3.66-1.71 3.91-2.31.26-.61-.04-1.18-.59-1.4z"/><path style="fill:#5d4037" d="M72.25 70.09c-.41-1.47-4.05-4.81-8.5-4.81-4.48 0-7.61 3.65-7.99 4.8-.02.07-.09.28.06.4.2.15.45-.01 1.21-.5 1.36-.88 3.9-2.51 6.8-2.51 2.74 0 5.29 1.54 6.81 2.46.71.43 1.1.67 1.35.67.07 0 .13-.02.18-.06.17-.13.11-.37.08-.45z"/><path style="fill:#91674d" d="M63.9 71.88c2.46 0 4.54 1.34 4.34.62-.21-.72-2.13-2.51-4.48-2.51-2.35 0-4.01 1.91-4.21 2.51-.19.61 1.89-.62 4.35-.62z"/><path style="fill:#543930" d="M63.9 3.15h-.02c-39.26.21-31.22 45.04-31.22 45.04s1.76 4.62 2.56 6.66c.12.3.54.26.61-.05.84-3.75 3.86-17.04 5.38-21.08.9-2.38 3.37-3.77 5.87-3.31 3.85.7 9.98 1.56 16.74 1.56h.14c6.76 0 12.89-.86 16.74-1.56 2.5-.45 4.97.93 5.87 3.31 1.51 4.03 4.51 17.24 5.36 21.05.07.31.5.34.61.04l2.58-6.62S103.16 3.36 63.9 3.15z"/><radialGradient id="d" cx="63.89" cy="88.754" r="32.909" gradientTransform="matrix(1 0 0 -1.1282 0 140.486)" gradientUnits="userSpaceOnUse"><stop offset=".794" style="stop-color:#6d4c41;stop-opacity:0"/><stop offset="1" style="stop-color:#6d4c41"/></radialGradient><path style="fill:url(#d)" d="M95.12 48.19s8.04-44.83-31.21-45.04h-.02a44.097 44.097 0 0 0-5.18.31h-.03l-.23.03c-33.04 4.16-25.78 44.7-25.78 44.7l2.57 6.63c.11.29.54.26.61-.04.85-3.79 3.85-17.03 5.37-21.06.9-2.38 3.37-3.77 5.87-3.31 3.85.7 9.98 1.56 16.74 1.56h.14c6.76 0 12.89-.86 16.74-1.56 2.5-.45 4.97.93 5.87 3.31 1.52 4.04 4.54 17.36 5.37 21.1.07.31.49.34.6.05.79-2.04 2.57-6.68 2.57-6.68z"/><path style="fill:#613e31" d="M43.32 42.91c2.75-3.9 9.21-4.03 12.45-.71.56.57 1.16 1.33.73 2.16-.47.93-1.42.78-2.21.46-2.1-.85-4.26-1.23-6.52-.77-.98.2-1.81.61-2.74.93-1.24.44-2.51-.87-1.71-2.07zm39.75 2.17c-1.93-.84-3.88-1.32-6.01-1.08-.96.11-1.92.36-2.82.72-.71.28-1.49.75-2.23.24-2.11-1.46 1.64-3.83 2.74-4.31 2.39-1.03 5.23-.94 7.54.27.91.48 1.91 1.17 2.45 2.08.68 1.12-.34 2.63-1.67 2.08z"/></svg>