<svg xmlns="http://www.w3.org/2000/svg" viewBox="0 0 128 128" style="enable-background:new 0 0 128 128" xml:space="preserve"><path style="fill:#7e57c2" d="M119.65 102.09H8.35c-2.4 0-4.35-1.95-4.35-4.35V30.28c0-2.41 1.95-4.37 4.37-4.37h111.27c2.41 0 4.37 1.95 4.37 4.37v67.46a4.368 4.368 0 0 1-4.36 4.35z"/><path style="fill:#b39ddb" d="M119.78 89.91H8.22A4.22 4.22 0 0 1 4 85.69V30.28c0-2.41 1.95-4.37 4.37-4.37h111.27c2.41 0 4.37 1.95 4.37 4.37v55.41a4.236 4.236 0 0 1-4.23 4.22z"/><path style="fill:#5e35b1" d="M106.45 33.1c.86 5.4 5.14 9.68 10.54 10.54v28.54c-5.4.86-9.68 5.14-10.54 10.54H21.42c-1.1-5.11-5.26-9.05-10.42-9.87V44.31c5.63-.89 10.03-5.49 10.63-11.21h84.82m1.84-2h-88.6c.01.22.02.44.02.67 0 5.91-4.79 10.7-10.7 10.7V74.7c5.68 0 10.33 4.43 10.68 10.03h88.61c0-5.91 4.79-10.7 10.7-10.7V41.8c-5.92 0-10.71-4.79-10.71-10.7z"/><circle style="opacity:.5;fill:#7e57c2" cx="84.78" cy="57.91" r="18.5"/><path style="fill:#ffecb3" d="M53 25.91h22.01v76.18H53z"/><path style="fill:#ffc06c" d="M53 89.91h22.01v12.18H53z"/><path style="fill:#fff" d="M32.28 60.34c-.47 0-.85.39-.83.86l.17 4.68c0 1.96-.3 3.62-.9 4.97-.25.56.13 1.2.75 1.2h16.21c.46 0 .83.38.83.84l-.01 2.29c0 .46-.37.83-.83.83H23.33c-.46 0-.83-.37-.83-.83v-2.29c0-.46.37-.83.83-.83h.96c.09 0 .19-.01.28-.04.61-.2 1.11-.81 1.5-1.84.42-1.1.65-2.45.68-4.07v-.2l-.17-4.76a.828.828 0 0 0-.83-.8h-2.52c-.46 0-.83-.37-.83-.83v-2.29c0-.46.37-.83.83-.83h2.34c.47 0 .85-.39.83-.86l-.2-5.69c0-3.34 1.03-6.01 3.08-8.01 2.06-2 4.76-3 8.12-3 3.19 0 5.72.89 7.58 2.67 1.68 1.6 2.6 3.69 2.77 6.26.03.47-.36.86-.83.86H43.8c-.43 0-.82-.32-.86-.75-.13-1.45-.65-2.63-1.57-3.52-1.07-1.04-2.53-1.57-4.39-1.57-1.76 0-3.19.65-4.28 1.94-1.09 1.3-1.64 2.99-1.64 5.1l.2 5.76c.02.45.38.8.83.8h6.4c.46 0 .83.37.83.83v2.29c0 .46-.37.83-.83.83h-6.21z"/></svg>