<svg xmlns="http://www.w3.org/2000/svg" viewBox="0 0 128 128" style="enable-background:new 0 0 128 128" xml:space="preserve"><path style="fill:#007689" d="M42.94 66.62c-3.05-.53-6.06-.77-9.02-.77-4.52 0-8.91.57-13.06 1.55C14.05 69.02 7.84 72.23 4 77.03V124h60V88.4c0-12.28-9.18-19.73-21.06-21.78z"/><path style="fill:#e59600" d="M33.46 74.12c-3.87 0-7-3.13-7-7V60.7h14v6.42c0 3.87-3.13 7-7 7z"/><linearGradient id="a" gradientUnits="userSpaceOnUse" x1="8" y1="4.675" x2="8" y2="32.594" gradientTransform="matrix(1 0 0 -1 0 128)"><stop offset=".604" style="stop-color:#ffca28"/><stop offset="1" style="stop-color:#ffb300"/></linearGradient><path style="fill:url(#a)" d="M4 96v28h8V96z"/><path style="fill:#e59600" d="M51.48 34.74H15.43c-3.89 0-7.07 3.39-7.07 7.53s3.18 7.53 7.07 7.53h36.05c3.89 0 7.07-3.39 7.07-7.53s-3.18-7.53-7.07-7.53z"/><path style="fill:#ffca28" d="M33.46 8.11c-11.48 0-22.11 12.28-22.11 29.94 0 17.57 10.95 26.26 22.11 26.26s22.11-8.69 22.11-26.26c0-17.66-10.63-29.94-22.11-29.94z"/><path style="fill:#795548" d="M39.01 51.54c-2.1 1.25-8.99 1.25-11.09 0-1.21-.72-2.44.38-1.94 1.48.49 1.08 4.25 3.58 7.5 3.58s6.96-2.5 7.45-3.58c.51-1.1-.71-2.2-1.92-1.48z"/><path style="fill:#e59600" d="M36 46.2a.537.537 0 0 0-.21-.05h-4.67c-.07.01-.14.03-.21.05-.42.17-.66.61-.45 1.08.2.47 1.13 1.78 3 1.78s2.8-1.31 3-1.78c.2-.47-.03-.91-.46-1.08z"/><ellipse style="fill:#404040" cx="22.62" cy="40.17" rx="3.25" ry="3.37"/><ellipse style="fill:#404040" cx="44.3" cy="40.17" rx="3.25" ry="3.37"/><path style="fill:#6d4c41" d="M17.62 34.51s1.78-2.35 4.97-2.35 5.01 2.38 5.01 2.38a1.04 1.04 0 0 1-1.18 1.59s-.97-.44-1.88-.66-1.91-.29-2.9-.18c-1.5.17-2.73.81-2.73.81-.95.39-1.87-.73-1.29-1.59zm31.68 0s-1.78-2.35-4.97-2.35-5.01 2.38-5.01 2.38a1.04 1.04 0 0 0 1.18 1.59s.97-.44 1.88-.66 1.91-.29 2.9-.18c1.5.16 2.72.81 2.72.81.96.39 1.87-.73 1.3-1.59z"/><path style="fill:#543930" d="M33.54 4.2h-.02C3.78 4.36 9.87 38.33 9.87 38.33s1.33 3.5 1.94 5.05c.09.22.41.2.46-.04.64-2.84 2.92-12.91 4.07-15.97.68-1.8 2.55-2.85 4.45-2.51 2.91.53 7.56 1.18 12.68 1.18h.12c5.12 0 9.76-.65 12.68-1.18 1.9-.34 3.77.71 4.45 2.51 1.15 3.05 3.42 13.06 4.06 15.94.05.24.38.26.47.03l1.95-5.02c-.01.01 6.08-33.96-23.66-34.12z"/><radialGradient id="b" cx="33.529" cy="95.612" r="24.934" gradientTransform="matrix(1 0 0 -1.1282 0 140.257)" gradientUnits="userSpaceOnUse"><stop offset=".794" style="stop-color:#6d4c41;stop-opacity:0"/><stop offset="1" style="stop-color:#6d4c41"/></radialGradient><path style="fill:url(#b)" d="M57.19 38.33S63.28 4.36 33.54 4.2h-.02c-.46 0-.92.01-1.36.03-.89.04-1.74.11-2.56.2h-.02c-.06.01-.11.02-.17.02C4.36 7.61 9.87 38.33 9.87 38.33l1.95 5.03c.09.22.41.2.46-.03.64-2.87 2.92-12.9 4.07-15.95.68-1.8 2.55-2.85 4.45-2.51 2.91.53 7.56 1.18 12.68 1.18h.12c5.12 0 9.76-.65 12.68-1.18 1.9-.34 3.77.71 4.45 2.51 1.15 3.07 3.44 13.15 4.07 15.98.05.23.37.26.46.03.59-1.55 1.93-5.06 1.93-5.06z"/><linearGradient id="c" gradientUnits="userSpaceOnUse" x1="-424.712" y1="4.703" x2="-424.712" y2="60.23" gradientTransform="rotate(180 -165.356 64)"><stop offset="0" style="stop-color:#009e89"/><stop offset="1" style="stop-color:#00bfa5"/></linearGradient><path style="fill:url(#c)" d="M85.06 66.62c3.05-.53 6.06-.77 9.02-.77 4.53 0 8.91.57 13.06 1.55 6.81 1.62 13.02 4.83 16.86 9.63V124H64V88.4c0-12.28 9.18-19.73 21.06-21.78z"/><path style="fill:#e59600" d="M94.54 74.12c3.87 0 7-3.13 7-7V60.7h-14v6.42c0 3.87 3.14 7 7 7z"/><linearGradient id="d" gradientUnits="userSpaceOnUse" x1="120" y1="4.675" x2="120" y2="32.594" gradientTransform="matrix(1 0 0 -1 0 128)"><stop offset=".604" style="stop-color:#ffca28"/><stop offset="1" style="stop-color:#ffb300"/></linearGradient><path style="fill:url(#d)" d="M124 96v28h-8V96z"/><path style="fill:#e59600" d="M76.52 34.74h36.05c3.89 0 7.07 3.39 7.07 7.53s-3.18 7.53-7.07 7.53H76.52c-3.89 0-7.07-3.39-7.07-7.53s3.18-7.53 7.07-7.53z"/><path style="fill:#ffca28" d="M94.54 8.11c11.48 0 22.11 12.28 22.11 29.94 0 17.57-10.95 26.26-22.11 26.26s-22.11-8.69-22.11-26.26c0-17.66 10.63-29.94 22.11-29.94z"/><path style="fill:#795548" d="M88.99 51.54c2.1 1.25 8.99 1.25 11.09 0 1.21-.72 2.44.38 1.94 1.48-.49 1.08-4.25 3.58-7.5 3.58s-6.96-2.5-7.45-3.58c-.5-1.1.71-2.2 1.92-1.48z"/><path style="fill:#e59600" d="M92 46.2c.07-.03.14-.05.21-.05h4.67c.07.01.14.03.21.05.42.17.66.61.46 1.08-.2.47-1.13 1.78-3 1.78s-2.8-1.31-3-1.78c-.21-.47.02-.91.45-1.08z"/><ellipse style="fill:#404040" cx="105.38" cy="40.17" rx="3.25" ry="3.37"/><ellipse style="fill:#404040" cx="83.7" cy="40.17" rx="3.25" ry="3.37"/><path style="fill:#6d4c41" d="M110.38 34.51s-1.79-2.35-4.97-2.35-5.01 2.38-5.01 2.38a1.04 1.04 0 0 0 1.18 1.59s.97-.44 1.88-.66c.91-.22 1.91-.29 2.9-.18 1.5.17 2.73.81 2.73.81.95.39 1.87-.73 1.29-1.59zm-31.68 0s1.79-2.35 4.97-2.35 5.01 2.38 5.01 2.38a1.04 1.04 0 0 1-1.18 1.59s-.97-.44-1.88-.66c-.91-.22-1.91-.29-2.9-.18-1.5.16-2.72.81-2.72.81-.96.39-1.87-.73-1.3-1.59z"/><path style="fill:#543930" d="M94.46 4.2h.02c29.74.16 23.65 34.13 23.65 34.13s-1.33 3.5-1.94 5.05c-.09.22-.41.2-.46-.04-.64-2.84-2.92-12.91-4.07-15.97a3.994 3.994 0 0 0-4.45-2.51c-2.92.53-7.56 1.18-12.68 1.18h-.12c-5.12 0-9.76-.65-12.68-1.18-1.9-.34-3.77.71-4.45 2.51-1.15 3.05-3.42 13.06-4.06 15.94-.05.24-.38.26-.46.03l-1.95-5.02c0 .01-6.09-33.96 23.65-34.12z"/><radialGradient id="e" cx="-425.183" cy="95.612" r="24.934" gradientTransform="matrix(-1 0 0 -1.1282 -330.712 140.257)" gradientUnits="userSpaceOnUse"><stop offset=".794" style="stop-color:#6d4c41;stop-opacity:0"/><stop offset="1" style="stop-color:#6d4c41"/></radialGradient><path style="fill:url(#e)" d="M70.81 38.33S64.72 4.36 94.46 4.2h.02c.46 0 .92.01 1.36.03.89.04 1.74.11 2.56.2h.03c.06.01.11.02.17.02 25.04 3.15 19.53 33.87 19.53 33.87l-1.95 5.03c-.09.22-.41.2-.46-.03-.64-2.87-2.92-12.9-4.07-15.95a3.994 3.994 0 0 0-4.45-2.51c-2.92.53-7.56 1.18-12.68 1.18h-.12c-5.12 0-9.76-.65-12.68-1.18-1.9-.34-3.77.71-4.45 2.51-1.15 3.07-3.44 13.15-4.07 15.98-.05.23-.37.26-.46.03-.59-1.54-1.93-5.05-1.93-5.05z"/><radialGradient id="f" cx="63.979" cy="33.024" r="27.104" gradientTransform="matrix(1 0 0 -1.4568 0 143.084)" gradientUnits="userSpaceOnUse"><stop offset=".594" style="stop-color:#212121"/><stop offset="1" style="stop-color:#616161;stop-opacity:.05"/></radialGradient><path style="opacity:.4;fill:url(#f);enable-background:new" d="M64 88.4c0-12.28-9.67-19.73-21.55-21.78-1.84-.32-3.47-.53-5.47-.64V124h54V65.95c-2 .11-3.93.33-5.9.67C73.2 68.67 64 76.12 64 88.4z"/><path style="fill:#e1bee7" d="M85.57 122.08c0-9.84-12.51-13.14-16.87-13.14h-9.38c-4.35 0-16.88 3.3-16.88 13.14 0 0-.01.79-.03 2.02h43.18l-.02-2.02z"/><path style="fill:#e59600" d="M64 116.4c-2.6 0-4.57-1.92-4.57-4.29v-2.38h9.54v2.38c0 2.37-2.36 4.29-4.97 4.29z"/><path style="fill:#543930" d="m45.47 111.17.62-2.92-5.39 1.35s-.38-5.2 4.26-8.2c5.09-3.29 10.94.22 10.94.22s-.58 3.93-4.06 7.3c-2.35 2.26-6.37 2.25-6.37 2.25zm37.1 0-.62-2.92 5.39 1.35s.38-5.2-4.26-8.2c-5.09-3.29-10.94.22-10.94.22s.58 3.93 4.06 7.3c2.34 2.26 6.37 2.25 6.37 2.25z"/><radialGradient id="g" cx="79.92" cy="22.53" r="8.88" gradientTransform="matrix(.8651 .5016 .3314 -.5715 3.314 78.255)" gradientUnits="userSpaceOnUse"><stop offset=".525" style="stop-color:#6d4c41;stop-opacity:0"/><stop offset="1" style="stop-color:#6d4c41"/></radialGradient><path style="fill:url(#g)" d="m82.57 111.17-.62-2.92 5.39 1.35s.38-5.2-4.26-8.2c-5.09-3.29-10.94.22-10.94.22s.58 3.93 4.06 7.3c2.34 2.26 6.37 2.25 6.37 2.25z"/><radialGradient id="h" cx="1249.884" cy="22.53" r="8.88" gradientTransform="matrix(-.8651 .5016 -.3314 -.5715 1136.707 -508.615)" gradientUnits="userSpaceOnUse"><stop offset=".525" style="stop-color:#6d4c41;stop-opacity:0"/><stop offset="1" style="stop-color:#6d4c41"/></radialGradient><path style="fill:url(#h)" d="m45.33 111.17.62-2.92-5.39 1.35s-.38-5.2 4.26-8.2c5.09-3.29 10.94.22 10.94.22s-.58 3.93-4.06 7.3c-2.35 2.26-6.37 2.25-6.37 2.25z"/><path style="fill:#e59600" d="M78.95 89.31H49.48c-3.18 0-5.78 2.5-5.78 5.56s2.6 5.56 5.78 5.56h29.47c3.18 0 5.39-2.5 5.39-5.56s-2.21-5.56-5.39-5.56z"/><path style="fill:#ffca28" d="M64 66.37c-9.33 0-17.57 9.8-17.57 23.9 0 14.02 9.87 20.96 17.57 20.96s17.57-6.93 17.57-20.96c0-14.11-8.24-23.9-17.57-23.9z"/><path style="fill:#795548" d="M68.34 101.15c-1.64.97-7 .97-8.64 0-.94-.56-1.9.3-1.51 1.15.38.84 3.31 2.79 5.84 2.79s5.42-1.95 5.8-2.79c.4-.86-.55-1.71-1.49-1.15z"/><path style="fill:#e59600" d="M66 96.82a.471.471 0 0 0-.17-.04H62.2c-.06.01-.11.02-.17.04-.33.13-.51.47-.35.84.16.36.88 1.38 2.34 1.38s2.18-1.02 2.34-1.38c.15-.37-.03-.71-.36-.84z"/><ellipse style="fill:#404040" cx="55.47" cy="94.16" rx="2.53" ry="2.62"/><ellipse style="fill:#404040" cx="72.56" cy="94.16" rx="2.53" ry="2.62"/><path style="fill:#6d4c41" d="M51.52 89.5c.1-.13.13-.21.31-.39.4-.42 1.18-.92 1.94-1.18.73-.25 1.07-.25 1.62-.25.85 0 1.37.18 1.62.25.35.12.68.28 1.01.46.55.33 1.74 1.14 1.38 1.87-.4.81-1.01.51-1.56.3-.24-.07-1.32-.5-2.46-.5-.62 0-.88.07-1.04.09-.73.12-1.28.35-1.38.38-.38.15-.65.37-1.08.2-.46-.19-.65-.79-.36-1.23zm24.99 0c-.1-.13-.13-.21-.31-.39-.39-.42-1.18-.92-1.94-1.18-.73-.25-1.07-.25-1.62-.25-.85 0-1.37.18-1.62.25-.35.12-.68.28-1.01.46-.55.33-1.74 1.14-1.38 1.87.4.81 1.01.51 1.56.3.24-.07 1.32-.5 2.46-.5.62 0 .88.07 1.04.09.73.12 1.28.35 1.38.38.38.15.65.37 1.07.2.48-.19.66-.79.37-1.23z"/><path style="fill:#543930" d="M79.58 70.01c-2.33-2.43-4.56-3.32-4.78-3.35-2.71-1.24-6.2-2.25-10.72-2.25-19.88 0-21.23 16.2-20.43 23.33.71 6.29 4.37 7.84 4.37 7.84l-.6-7.11s7.11-2.18 11.04-4.83c3.87-2.61 5.48-4.39 5.48-4.39s1.2 1.28 5.44 4.34c4.4 3.18 11.04 4.92 11.04 4.92l-.51 7.07s3.85-1.54 4.4-7.84c.7-7.89-.25-12.62-4.73-17.73z"/><radialGradient id="i" cx="70.071" cy="48.949" r="21.111" gradientTransform="matrix(1.0432 0 0 -.7737 -9.203 116.922)" gradientUnits="userSpaceOnUse"><stop offset=".699" style="stop-color:#6d4c41;stop-opacity:0"/><stop offset="1" style="stop-color:#6d4c41"/></radialGradient><path style="fill:url(#i)" d="M79.58 70.01c-2.33-2.43-4.56-3.32-4.78-3.35-2.71-1.24-6.2-2.25-10.72-2.25-19.88 0-21.23 16.2-20.43 23.33.71 6.29 4.37 7.84 4.37 7.84l-.6-7.11s7.11-2.18 11.04-4.83c3.87-2.61 5.48-4.39 5.48-4.39s1.2 1.28 5.44 4.34c4.4 3.18 11.04 4.92 11.04 4.92l-.51 7.07s3.85-1.54 4.4-7.84c.7-7.89-.25-12.62-4.73-17.73z"/></svg>