<svg xmlns="http://www.w3.org/2000/svg" viewBox="0 0 128 128" style="enable-background:new 0 0 128 128" xml:space="preserve"><path style="fill:#92cbeb" d="M58.34 54.22c0-1.38-.23-2.12-4.31-2.77-3.13-.5-42.38 1.42-44.74 1.57-4.56.3-6.33 2.15-6.29 5.51.03 2.93 3.39 5.44 4.19 6.65.8 1.21.74 2.34-.25 3.61-.76.98-3.98 2.32-3.98 6.01 0 4.53 2.96 6.81 6.33 7.11 5.3.46 29.57.88 35.81 1.32 3.01.21 4.85 1.55 7.86 1.77 1.38 0 5.38-3.33 5.38-4.71V54.22z"/><path style="fill:#d5ebf5" d="M123.05 62.41c0-29.26-17.72-30.7-17.72-30.7.01-.28.93-17.3-16-20.97-13.78-2.99-22.57 2.55-26.97 7.53-8.25-4.31-20.1-3.01-25.55 6.03-2.87 4.77-2.51 12.09-.62 17.32 1.9 5.27 5.67 8.53 9.4 12.7 10.75 12.04 6.93 16.63 1.37 24.09-3.44 4.61-11.04 18.41.64 31.19 8.22 8.99 26.28 3.96 26.28 3.96 1.33.4 13.18 9.59 26.35.87 14.06-9.31 8.57-26.77 8.57-26.77s14.25-7.07 14.25-25.25z"/><path style="fill:#92cbeb" d="M70.17 86.73c.79-.23.83-1.33.04-1.59-3.5-1.14-9.82-3.82-13.56-9.16-3.63-5.18-5.82-17.51 1.69-23.07 11.04-8.19 9.27-17.49 6.49-20.94-2.9-3.6-10.66-2.9-10.54 3.39.02 1.16.36 2.3.85 3.35 1.28 2.76 3.27 6.9.5 9.61-1.32 1.29-3.25 1.68-5.06 1.33-4.28-.83-7.53-4.17-9.24-8.05-4.94-11.23-.75-18 5.14-23.86.31-.31-.01-.84-.43-.7-7.37 2.41-11.01 8.42-11.3 15.14-.21 4.94.78 9.9 3.4 14.09 2.02 3.23 5.42 6.01 7.68 9.07 1.76 2.38 5.31 5.32 4.75 8.59-.54 3.16-2.93 5.95-4.83 8.37-5.41 6.89-8.2 16.21-5.98 24.68 4.11 15.68 16.32 17.62 20.36 17.83.32.02.43-.44.14-.55-4.12-1.56-6.55-3.17-7.52-3.96-7.62-6.25-9.41-17.08-5.84-26.29.26-.68.68-1.3 1.26-1.75 2.5-1.94 4.35 1.77 8.56 3.86 4.87 2.41 10.33 1.5 13.44.61zm33.38-51.11c3.05-2.98 1.49-13.48-2.97-18.37-1.26-1.38-3.56-.32-3.39 1.54.27 3.12.8 7.67-1.02 12.36-1.05 2.71-.11 5.04 1.63 5.84.85.39 3.26 1.07 5.75-1.37z"/><path style="fill:#61bfe8" d="M122.24 68.5c.43-1.87.67-3.62.78-5.21.05-.76-1.01-.97-1.24-.25-1.3 4.16-4.13 9.6-10.27 12.86-2.01 1.07-4.23 1.71-6.27 2.72-2.63 1.31-6.19 2.57-6.13 6.08.09 4.83 7.74 5.22 13.52.48 5.19-4.27 8.26-10.82 9.61-16.68zm-19.68 44.27c.56-.44.08-1.3-.59-1.07-6.25 2.1-13.41 1.51-19.17-1.74-1.25-.71-4.38-2.99-7.65-3.24-2.07-.16-3.92 1.45-3.78 3.52.09 1.4.91 2.68 1.95 3.62 2.8 2.53 7.02 3.6 10.68 4.03 4.57.54 9.43-.21 13.71-2.15 1.97-.89 3.6-1.98 4.85-2.97z"/><path style="fill:#92cbeb" d="M18.64 43.28c3.67-1.49 7.08-3.9 9.08-7.32 2-3.41 2.38-7.92.34-11.31s-6.72-5.15-10.26-3.38c-2.63 1.32-3.35 3.83-2.05 6.8 1.06 2.42 2.91 2.84 2.55 5.99-.46 4.06-5.48 7.54-7.86 8.54-2.02.84-5.54 3.39-1.15 3.08 3.09-.2 6.49-1.24 9.35-2.4z"/><path style="fill:#61bfe8" d="M29.42 100.96c1 2.53 2.42 9.07-3.44 9.89-4.7.66-7.42-4.48-8.48-9.01-1.42-6.06-6.66-9.21-9.06-11.47a.77.77 0 0 1 .48-1.33c4.34-.33 15.78.02 20.5 11.92z"/><path style="fill:#92cbeb" d="M70.49 15.43c-1.32 1.07-2.63 2.54-3.81 3.76-.42.43-2.42 3.07-4.35 1.4-.93-.81-.03-2.78.27-3.33 1.16-2.12 4.73-5.98 12.17-7.56 2.46-.52 9.58-.41 9.58.3 0 .96-8.29.88-13.86 5.43z"/><path style="fill:#039be5" d="M34.66 60.25H3.37c.47 1.12 1.29 2.14 2.07 3h29.22c.83 0 1.5-.67 1.5-1.5s-.67-1.5-1.5-1.5zm8.76 8.86H6.63c-1 .89-3 1.71-3.46 4.17h40.25c1.38 0 2.5-1.13 2.5-2.51s-1.12-1.66-2.5-1.66z"/></svg>