<svg xmlns="http://www.w3.org/2000/svg" viewBox="0 0 128 128" style="enable-background:new 0 0 128 128" xml:space="preserve"><path style="fill:#b9e4ea" d="M103.21 74.61c-.15-6.22-12.52-49.4-15.37-56.09-3.4-7.99-7.1-15.2-23.84-14.46-14.71.64-27.51 2.88-36.49 17.88-6.85 11.44 12.2 66.52 17.32 71.38 1.88 1.79 5.97 2.62 10.78 2.92 2.3 6.91 5.54 16.37 7.03 19.38 0 0 18.21-1.56 22.18-2.12 6.69-.95 7.18-6.9 5.67-12.39-.62-2.25-1.59-5.07-2.51-7.63 7.23-1.84 11.08-4.61 13.09-8.23 1.79-3.22 2.23-7.07 2.14-10.64z"/><path style="fill:#82aec0" d="M89.1 84.63c-9.42 1-13.64-.06-16.51-2.52-1.06-.91-1.69-2.22-1.52-3.6.56-4.61 1.03-7.35-1.04-14.78l-9.55-36.51c-3.54-15.4-16.27-17.13-26.65-11.14-7.08 4.09-10.51 11.35-8.49 20.32l12.58 48.11c1.57 6.01 4.11 9.25 7.54 10.5 1.08.75 2.64 1.27 4.52 1.63 1.22 3.24 2.93 7.75 4.43 11.55 2.13 5.38 4.22 7.42 8.23 7.42 4.01 0 8.38-2.98 6.84-9.02-.76-3.01-1.72-6.42-2.62-9.52 4.96-.29 9.38-.74 11.63-.85 18.21-.86 23.83-9.04 24.58-17.08 0 .02-3.46 4.37-13.97 5.49z"/><ellipse transform="rotate(-10.597 61.61 106.614)" style="fill:#2f7889" cx="61.6" cy="106.61" rx="4.25" ry="5.62"/><path style="fill:#424242" d="M35.43 35.63a2.194 2.194 0 0 0-2.26-3.76l-7.47 4.49 1.13 4.44 8.6-5.17zm3.53 7.55a2.194 2.194 0 0 0-3.01-.75l-7.56 4.54 1.13 4.44 8.69-5.22c1.03-.62 1.37-1.97.75-3.01zm2.78 10.57a2.194 2.194 0 0 0-3.01-.75l-7.64 4.59 1.13 4.44 8.77-5.27c1.03-.63 1.37-1.98.75-3.01zm2.78 10.56a2.194 2.194 0 0 0-3.01-.75l-7.72 4.64 1.13 4.44 8.85-5.32c1.04-.62 1.37-1.97.75-3.01zm2.78 10.56a2.194 2.194 0 0 0-3.01-.75l-7.8 4.69 1.13 4.44 8.94-5.37c1.03-.62 1.36-1.97.74-3.01z"/><path style="fill:#2f7889" d="M57.13 19.11c-4.46 1.58-13.72 7.49-13.72 7.49a2.194 2.194 0 0 0-.75 3.01 2.2 2.2 0 0 0 3.01.75s8.73-6.01 13.48-7.03c3.59-.77 11.95-.96 11.95-.96l-1.18-4.26c-.01-.01-10.69.25-12.79 1zm3.2 10.99c-4.49 1.5-13.85 7.23-13.85 7.23a2.18 2.18 0 0 0-.8 2.99c.4.69 1.12 1.08 1.86 1.1.38.01.78-.09 1.13-.29 0 0 8.84-5.84 13.6-6.78 3.6-.71 11.97-.93 11.97-.93l-1.1-4.28s-10.69.25-12.81.96zm3.21 10.99c-4.52 1.42-13.98 6.97-13.98 6.97a2.2 2.2 0 0 0-.86 2.98 2.202 2.202 0 0 0 2.98.86s8.94-5.68 13.72-6.52c3.62-.64 11.99-.9 11.99-.9l-1.02-4.3s-10.7.24-12.83.91zm3.21 10.99c-4.54 1.33-14.11 6.71-14.11 6.71a2.186 2.186 0 0 0-.91 2.96c.37.71 1.08 1.12 1.82 1.17.38.02.78-.06 1.14-.25 0 0 9.04-5.51 13.84-6.27 3.63-.57 12.02-.87 12.02-.87l-.94-4.32c-.01 0-10.72.24-12.86.87zm3.21 10.99c-4.57 1.25-14.24 6.46-14.24 6.46a2.194 2.194 0 0 0-.97 2.95c.36.71 1.06 1.14 1.8 1.2.38.03.78-.04 1.15-.23 0 0 9.15-5.35 13.96-6.02 3.64-.51 12.04-.84 12.04-.84l-.87-4.34s-10.72.23-12.87.82zM87.67 18.1h-6.95l1.17 4.26h7.33c-.35-1.21-1.39-3.72-1.55-4.26zm-2.62 15.32 7.69.15c-.43-1.49-.87-2.88-1.28-4.23l-7.57-.2 1.16 4.28zm3.17 11.05 7.67-.08c-.4-1.44-.8-2.8-1.2-4.21h-7.63l1.16 4.29zm3.16 11.05h7.56c-.37-1.41-.77-2.85-1.16-4.31h-7.56l1.16 4.31zm3.16 11.06h7.18c-.32-1.34-.66-2.79-1.05-4.33h-7.29l1.16 4.33zM60.87 13.59c-1.89-1.91-2.05-4.09-5.89-6.04-4.26-2.17-9.08-.69-9.08-.69s7.88-3.09 11.97-1.73c3.47 1.15 5.53 3.87 6.37 6.1.54 1.43.18 2.4-.89 2.97-.33.18-1.48.41-2.48-.61zm6.9-4.41c-2.41-5.14-7.21-4.95-7.21-4.95s5.02-.69 7.22.31c2.49 1.13 3.69 2.47 4.7 5.26.41 1.14.62 2.97-1.39 3.21-1.75.22-2.67-2.45-3.32-3.83zm7.92-.28c-2.11-4.6-6.61-4.78-6.61-4.78s8.43-.42 10.98 5.9c.45 1.12.35 2.51-.85 2.62-1.8.17-2.88-2.36-3.52-3.74zm-8.93 88.22c2.44-1.25 4.41-3.27 6.07-5.46 1.86-2.44 3.08-4.15 3.95-7.09.66-2.24.86-5.98.62-8.31-.27-2.58 0-3.94 1.95-4.22 1.2-.17 2.67.73 3.05 3.9.43 3.6.2 5.87-1.2 9.74-1.24 3.42-3.3 5.9-6.05 8.25-3.73 3.19-8.03 3-8.39 3.19zm11.73-.89s10.92-6.4 9.47-18.58c-.26-2.19-1.27-6.14 1.43-6.47 1.2-.15 3.1 1.04 3.26 6.04.33 10.48-5.01 15.18-7.24 16.65-3.13 2.04-6.92 2.36-6.92 2.36z"/><path style="fill:#2f7889" d="M88.46 94.84s5.08-3.16 7.02-8.44c.98-2.65 1.5-4.89 1.36-9.03-.08-2.2-1.68-6.19 1.05-6.22 2.25-.02 3.01 3.63 3.15 5.68.28 4.04-1.22 7.93-3.58 11.62-3.18 4.95-9 6.39-9 6.39z"/><path style="fill:#82aec0" d="m69.04 124-1.72-8.77 8.06-.74s2.14-2.67 2-4.96c-.14-2.29-1.15-5.44-1.15-5.44l8.3-1s1.29 4.41 1.01 6.45c-.29 2.15-2.25 4.16-2.25 4.16l2.48 10.3H69.04z"/><path style="fill:#424242" d="M42.66 29.61a2.2 2.2 0 0 0 3.01.75s8.73-6.01 13.48-7.03c.04-.01.1-.02.14-.03-.63-1.58-1.38-2.96-2.23-4.16-4.49 1.62-13.65 7.46-13.65 7.46a2.186 2.186 0 0 0-.75 3.01zm3.82 7.72a2.18 2.18 0 0 0-.8 2.99c.4.69 1.12 1.08 1.86 1.1.38.01.78-.09 1.13-.29 0 0 8.83-5.84 13.6-6.78.03-.01.06-.01.08-.02l-1.16-4.45c-.36.07-.65.14-.86.21-4.49 1.51-13.85 7.24-13.85 7.24zm3.08 10.73a2.2 2.2 0 0 0-.86 2.98 2.202 2.202 0 0 0 2.98.86s8.76-5.56 13.57-6.49l-1.16-4.45c-.22.04-.4.09-.54.13-4.53 1.41-13.99 6.97-13.99 6.97zm3.08 10.73a2.186 2.186 0 0 0-.91 2.96c.37.71 1.08 1.12 1.82 1.17.38.02.78-.06 1.14-.25 0 0 8.58-5.22 13.46-6.19l-1.17-4.46c-.08.02-.16.04-.23.06-4.54 1.33-14.11 6.71-14.11 6.71zm17.23 4.3c-4.6 1.29-14.15 6.43-14.15 6.43a2.194 2.194 0 0 0-.97 2.95c.36.71 1.06 1.14 1.8 1.2.38.03.78-.04 1.15-.23 0 0 8.03-4.69 13-5.84-.19-1.29-.41-2.58-.65-3.87l-.18-.64z"/><path style="fill:#fff" d="M56.09 18.55c-3.53-4.73-5.28-3.76-7.68-4.84-2.12-.96-.98-2.17 0-2.68 1.41-.74 4.08-.81 5.87.19 1.68.94 3.5 1.82 4.26 6.03.32 1.71-1.69 2.31-2.45 1.3zm8.01 6.69c-.67-1.99-2.21-2.6-4.09-2.02-.87.27-1.01.91-.44 2.7 1.04 3.27 1.35 4.25 3.17 3.75 1.55-.42 2.11-2.21 1.36-4.43zm-.45 8.87c-1.27.32-1.59.96-.93 3.05.78 2.46 2.2 2.11 2.82 1.91.95-.31 1.78-1.39 1.54-3-.14-.88-.67-2.66-3.43-1.96z"/><path style="fill:#2f7889" d="M66.76 97.12c.03-.02.1-.03.18-.04-.04 0-.08 0-.12.01-.02 0-.03.02-.06.03z"/><path style="fill:#424242" d="M81.21 85.68c.09-.25.16-.47.24-.71-1.82-.08-3.32-.3-4.6-.65l-.06.25c-.87 2.95-2.09 4.65-3.95 7.09-1.65 2.17-3.6 4.17-6.01 5.43.04 0 .08 0 .12-.01.9-.13 4.79-.23 8.21-3.15 2.75-2.35 4.81-4.83 6.05-8.25zm10.7-1.46c-.88.16-1.8.3-2.8.41-.6.06-1.17.12-1.73.16-2.22 7.53-8.89 11.44-8.89 11.44s3.79-.32 6.92-2.37c1.65-1.09 5-3.96 6.5-9.64z"/><path style="fill:#2f7889" d="M88.46 94.84s.75-.19 1.84-.65c-.53.18-1.07.36-1.64.52-.13.08-.2.13-.2.13z"/><path style="fill:#424242" d="M97.45 88.45c1.52-2.38 2.68-4.84 3.24-7.38-1.02.64-2.41 1.34-4.23 1.97-.24 1.16-.56 2.22-.98 3.35-1.72 4.67-5.89 7.67-6.82 8.31.57-.16 1.11-.34 1.64-.52 1.98-.81 5.11-2.54 7.15-5.73z"/></svg>