<svg xmlns="http://www.w3.org/2000/svg" viewBox="0 0 128 128" style="enable-background:new 0 0 128 128" xml:space="preserve"><path style="fill:#ffe36c" d="M13.47 98.62c-.73-1.25-1.01-4.32-.72-8.05.85-9.17 7.29-39.12 54.28-39.12 46.35 0 53.96 28.49 55.18 37.22.87 6.16-.01 8.77-.65 9.8l-5.01 5.1-98.64.55-4.44-5.5z"/><path style="fill:#82aec0" d="M67.03 52.45c10.31 0 19.41 1.46 27.05 4.34 6.37 2.4 11.8 5.82 16.12 10.16 8.36 8.38 10.5 18.09 11.03 21.87.84 5.95-.04 8.31-.46 9.05l-4.63 4.72-97.74.55-4.1-5.06c-.5-.92-.85-3.52-.56-7.37.44-4.74 2.23-13.91 9.28-22.13 9.16-10.71 23.96-16.13 44.01-16.13m0-2c-48.5 0-54.48 31.45-55.28 40.05-.1 1.3-.45 6.54.9 8.7l4.79 5.93 99.53-.56 5.37-5.47c.84-1.27 1.75-4.2.85-10.57-1.47-10.56-10.69-38.08-56.16-38.08z"/><path style="fill:#82aec0" d="M13.45 102.5c1.1 0 2 .8 2.1 1.9.1.6-.1 1.1-.4 1.5s-.9.7-1.4.8h-.2c-1.1 0-2-.8-2.1-1.9-.1-1.2.7-2.2 1.9-2.3h.1m0-3h-.6c-2.8.3-4.8 2.8-4.5 5.6.3 2.6 2.5 4.5 5.1 4.5h.6c2.8-.3 4.8-2.8 4.5-5.6-.3-2.6-2.5-4.5-5.1-4.5z"/><path style="fill:#ffc107" d="M118.49 95.86c-.9-8.6-2.4-38.8-50.9-38.8s-50 30.3-50.8 38.9c-.1 1.3-4.8 2.6-4.1 3.7l12.5 20.3c1.55 2.66 4.16 3.15 6.36 3.15l28.34-.65c5.4-.1 9.31-.15 14.71-.05l29.3.7c3.07.19 4.74-1.49 5.99-3.15l12.5-20.4c.9-1.1-3.8-2.4-3.9-3.7z"/><path style="fill:#82aec0" d="m9.39 122.45-3.86-1.51c-1.73-.63-2.69-2.57-1.96-4.29l5.09-8c.7-1.52 2.42-2.3 3.97-1.8 1.55.51 2.54 2.15 2.12 3.81l-1.25 9.61c-.43 1.76-2.38 2.82-4.11 2.18z"/><path style="fill:#94d1e0" d="M10.5 108.43s-4.48 6.93-4.95 8.02c-.47 1.09-1.07 2.74 2.37 3.86.54.17 2.62-7.95 3.07-9.67.46-1.72-.49-2.21-.49-2.21z"/><path style="fill:#f2a600" d="M118.49 95.86c-.36-3.42-.81-10.26-4.28-17.25-1.93-3.82-4.99-3.01-6.42-.7-1.77 2.86-5.23 10.74-2.68 16 1.84 3.77 2.92 7.3 3.53 10.38 1.22 6.13-3.48 11.85-9.74 11.85H36.96c-6.2 0-10.87-5.61-9.76-11.71.58-3.17 1.46-6.76 2.81-10.52 2.23-6.23-.91-13.14-2.68-16-1.42-2.29-4.47-2.72-5.76-.36-3.99 7.4-4.45 14.81-4.78 18.42-.1 1.3-4.8 2.6-4.1 3.7l12.5 20.3c1.55 2.66 4.16 3.15 6.36 3.15l28.34-.65c5.4-.1 9.31-.15 14.71-.05l29.3.7c3.07.19 4.74-1.49 5.99-3.15l12.5-20.4c.9-1.11-3.8-2.41-3.9-3.71z"/></svg>