<svg xmlns="http://www.w3.org/2000/svg" viewBox="0 0 128 128" style="enable-background:new 0 0 128 128" xml:space="preserve"><path style="fill:#ffe5b2" d="M11.7 110.26c6.03 4.72 17.15-.33 17.15-.33l12.74-4.41 66.47-42.3 8.98-11.6s7.75-6.97 7.68-13.07c-.07-6.06-3.27-8.98-8.33-9.47-5.06-.49-13.88 1.47-13.88 1.47s-2.57-8.3-7.49-11.78c-.13-.09-.12-.72-.25-.8-1.22-.78-2.4-1.15-4.04-1.02-1.65.13-3.14.46-4.4.89-1.09.37-2.03 1.52-2.85 2.01-3.06 1.81-4.33 3.35-4.33 3.35L65.1 19.77l-5.87-4.67s-2.36-.86-5.36-.08c-2.69.7-4.14 1.89-4.84 2.46-.3.25-3.52 13.72-3.52 13.72l-22.54 3.1s-1.96.82-3.59 3.43c-1.63 2.61-2.21 7.1-2.21 7.1l2.7 15.76-12.01 6.69s-1.59 1.55-2.74 4.65c-1.14 3.1-.97 5.6-.9 6.94.06 1.03 9.11 9.5 9.11 9.5l-5.55 14.05c0 .01.16 4.91 3.92 7.84z"/><path style="fill:#face90" d="M55.18 50.94C38.11 61.26 36.23 77.4 36.89 88.01s3.43 18.13 3.43 18.13 20.25-3.27 40.51-17.31 27.28-25.64 27.28-25.64-8.21-10.04-20.09-15.84c-13.18-6.44-25.82-.66-32.84 3.59zm39.63-33s-5.41 16.68 4.44 20.98c12.84 5.61 17.17-9.87 17.17-9.87s-5.87-.73-9.32-2.42c-6.08-2.98-12.29-8.69-12.29-8.69zm-35.77-2.86s.25 15.53 13.54 17.39c13.29 1.86 13.79-14.66 13.79-14.66s-4.09 1.99-11.05 1.99c-5.84 0-7.95-2.24-10.68-3.35-3.53-1.44-5.6-1.37-5.6-1.37zM23.05 34.21s10.84 13.83 23.49 5.15c10.68-7.33 2.52-21.85 2.52-21.85s-6.87 8.86-10.46 10.8c-6.81 3.67-15.55 5.9-15.55 5.9zm-5.74 9.81S32.97 54 27.26 64.07c-5.71 10.06-19.39 3.18-19.39 3.18s7.45-5.09 8.94-8.69-.74-10.07.5-14.54zm2.53 44.11c.41 6.35-9.21 12.54-12 14.27-.62-3.99 1.39-8.32.89-12.54-.51-4.26-4.79-7.5-4.46-11.02 3.74.18 15.03.97 15.57 9.29z"/><path style="fill:#fff" d="M61.08 41.61c.56 1.55 2.63 1.4 5.3.73 2.56-.64 4.02-1.01 4.02-2.56 0-2.02-3.02-2.47-4.93-2.01-1.92.46-5.12 1.83-4.39 3.84zm-3.74 2.01c.55 2.47-9.5 5.89-15.72 14.25-9.78 13.16-7.4 22.84-10.05 23.39-2.51.52-3.23-9.8.15-17.56s9.23-14.04 13.65-17.16c5.29-3.74 11.42-5.37 11.97-2.92z"/></svg>