<svg xmlns="http://www.w3.org/2000/svg" viewBox="0 0 128 128" style="enable-background:new 0 0 128 128" xml:space="preserve"><path style="fill:#e0bb95" d="M105.06 68.86c-7.62 1.78-14.3 6.26-15.32 7.78-.25.37-.85.05-1.69-.74.15-17.88.22-46.04-.57-59.9-.55-9.65-4.14-11.72-7.33-11.96-5.05-.39-6.93 2.52-7.65 11.57-1.13 14.27-1.06 29.37-1.68 32.4 0 0-2.15-7.78-10.02-8.93-8.52-1.24-9.96 9.96-9.96 9.96s-5.11-7.75-13.13-4.69c-6.68 2.55-6.75 11.71-6.75 11.71-2.94 1.3-6.42-14.55-9.39-30.78-1.67-9.16-12.97-6.07-13.06 2.51-.14 12.92 4.91 50.88 5.48 55.01 2.41 17.29 9.35 41.2 39.23 41.2 15.32 0 22.21-2.79 30.74-12.36 6.67-7.49 9.53-16.6 22.16-25.02 9.18-6.12 15.38-4.96 15.37-10.96 0-4.49-5.09-9.45-16.43-6.8z"/><path style="fill:#cca47a" d="M50.32 66.89c.18-.33 2.8-2.15 3.46-1.08 4.45 7.14 13.1 5.91 15.39-1.39.27-.86 2 13.51-6.73 17-2.61 1.04-6.12 1.09-7.99-1.01-1.57-1.76-3.22-1.47-6.74.66-2.43 1.47-7.3.39-9.25-1.67-1.95-2.06-3.3-4.36-4.14-7.08-.26-.83-.33-2.14.62-2.58.35-.15 9.93 7.26 15.38-2.85z"/><path style="fill:#ba8f63" d="M88.09 14.93c-.65-11.8-8.23-10.9-8.23-10.9s4.97 2.4 5.28 11c.3 8.33.76 38.1 1.11 56.56 0 5.26-7.33 5.24-14.74 7.71-.88.29-1.55-.59-1.19-1.44 1.24-2.92 4.15-8.96 2.21-22.76-.68-4.86-1.99-8.34-2.96-10.11-3.43-6.27-10.13-6-10.13-6s4.81 1.17 6.96 6.64c1.46 3.7 5 14.57 1.3 27.54-.86 3.02-3.03 6.59-8.26 6.14-1.24-.11-4.44-.88-4.68-3.75-.17-2.06-.03-4.74-.14-7.19-.17-3.88-1.54-13.74-2.96-18.31-.9-2.9-3.98-6.41-10.61-6.5 0 0 2.98.41 5.97 5.88.66 1.21 1.69 3.88 2.44 7.89.5 3.68 1.94 14.57.06 18.46-1.65 3.4-8.57 4.75-11.3 1.45-4.96-6-6.72-25.22-6.72-25.22s-.62 1.32-.98 3.57c-2.47-2.69-4.83-16.19-8.03-29.92-.89-3.83-3.33-7.13-8.29-5.72 0 0 4.42.45 5.37 6.26 1.36 8.28 4.1 19.78 5.51 25.81 1.29 5.5 3.12 7.28 5.21 7.82v.08c.18 3.31.62 8.78 1.85 13.02 2.16 7.4 4.06 8.34 5.96 9.49 4.33 2.61 11.86.86 14.21-2.05 1.4 1.69 3.5 2.79 5.92 3.02.16.02 1.52-.01 2.9-.08.85-.04 1.27 1 .64 1.57-2.92 2.67-5.31 6.17-6.92 11.28-1.21 3.83-1.59 6.8-1.64 8.92-.02.86 1.18 1.06 1.43.24.36-1.2.77-2.5 1.18-3.6 1.45-3.9 4.41-15.82 20.61-19.83 3.05-.76 6.85-1.11 9.96-2.67v.07s.23-.14.58-.37c1.03-.59 1.97-1.33 2.76-2.3.06-.08.11-.18.15-.3.08-.1.16-.19.24-.29 0 0-1.25-47.13-2.03-61.11zm27.51 64.65c-3.35.95-8.37 2.61-12.13 5.12-8.85 5.9-12.77 11.65-16.25 17.21-1.73 2.77-3.37 5.38-5.48 7.75-7.95 8.93-13.84 12.06-28.28 12.42-3.7.09-8.17 1.29-8.17 1.29 2.44.41 5.08.63 7.92.63 15.32 0 22.21-2.79 30.74-12.36 6.67-7.49 9.53-16.6 22.16-25.02 8.76-5.84 14.79-5.07 15.32-10.2.02 0-1.08 1.82-5.83 3.16z"/></svg>