<svg xmlns="http://www.w3.org/2000/svg" viewBox="0 0 128 128" style="enable-background:new 0 0 128 128" xml:space="preserve"><linearGradient id="a" gradientUnits="userSpaceOnUse" x1="65.602" y1="34.343" x2="65.602" y2="8.107" gradientTransform="matrix(1 0 0 -1 0 130)"><stop offset="0" style="stop-color:#a47b62"/><stop offset=".5" style="stop-color:#ba8d68"/></linearGradient><path style="fill:url(#a)" d="M74.61 91.68h-7.43l.83 27.79-9.03.96c-1.44.34-2.39.86-2.39 1.72s1.16 1.53 2.39 1.53H70.9c1.57 0 2.83-1.35 2.83-2.93v-.07l.88-29z"/><linearGradient id="b" gradientUnits="userSpaceOnUse" x1="92.621" y1="51.055" x2="120.807" y2="39.195" gradientTransform="matrix(1 0 0 -1 0 130)"><stop offset="0" style="stop-color:#a47b62"/><stop offset=".5" style="stop-color:#ba8d68"/></linearGradient><path style="fill:url(#b)" d="M122.35 87.78c-.39-.19-2.64-1.1-3.29-1.35-.24-.09-.18-.46.12-.38l1.99.45c.49.11.9.05 1.08-.37.23-.53-.07-.99-.62-1.15l-3.25-1.07s-2.07-.72-2.93-1.01a2.68 2.68 0 0 0-2.06.16l-9.88-5.1c-.28-.15-.57-.28-.89-.35l-16.77-4.03c-2.01-.43-4.06.87-4.48 2.9s.82 4.03 2.78 4.45l16.75 3.11 9.93 3.89c.1 1.5 1.15 2.17 1.54 2.7.54.71 1.38 2.29 1.29 2.96-.06.43.65.76.94.67.35-.11.62-.57.6-1.24-.01-.38-.09-1.31-.43-1.74-.14-.18.01-.41.18-.36h.02c1 .59 4.57 2.9 4.57 2.9.49.3 1.07.22 1.3-.32.18-.42-.06-.87-.47-1.11 0 0-2.19-1.62-2.86-2.15-.14-.11-.07-.39.18-.28s3.81 1.81 3.81 1.81c.43.2.86.19 1.11-.2.31-.48.03-1.02-.49-1.26l-3.96-1.98c-.19-.11-.13-.47.14-.36 0 0 2.98 1.1 3.41 1.26.43.17 1.01.17 1.22-.38.23-.53-.11-.85-.58-1.07z"/><linearGradient id="c" gradientUnits="userSpaceOnUse" x1="90.493" y1="42.976" x2="77.919" y2="61.03" gradientTransform="matrix(1 0 0 -1 -10.55 127.849)"><stop offset="0" style="stop-color:#00bfa5"/><stop offset=".47" style="stop-color:#00b29a"/><stop offset="1" style="stop-color:#009e89"/></linearGradient><path style="fill:url(#c)" d="M85.63 72.74c-.5-.14-1.07-.47-1.57-1.19l-7.44-10.9-18.5 12.4 7.67 11.24c.58.8.54 2.01.56 2.93l.21 8.38h8.55l.12-8.22s1.47-.96 3.69-2.77 4.33-3.29 4.33-3.29l8.67 1.83 1.76-8.47-8.05-1.94z"/><linearGradient id="d" gradientUnits="userSpaceOnUse" x1="70.426" y1="85.986" x2="78.1" y2="123.242" gradientTransform="matrix(1 0 0 -1 0 130)"><stop offset="0" style="stop-color:#a47b62"/><stop offset=".5" style="stop-color:#ba8d68"/></linearGradient><path style="fill:url(#d)" d="M85.51 6.34c.02-.97-.7-1.05-1.95-1.16l-9.64-.85c-1.62-.14-3.06 1.08-3.2 2.74l-.39 3.7h-.03l-2.86 22.22-6.74 22.7 11.69 3.07 5.04-23.38 1.5-22.35.95-.32c.51.05 2.05.49 2.42-.24.29-.58-.12-.88-.28-.93.17.05.83.17 1.05-.36.28-.69-.44-.97-.44-.97s.94.23 1.22-.43c.31-.72-.61-1.02-.61-1.02s1.15.26 1.34-.44c.16-.57-.17-.84-.48-.96.7.08 1.39-.19 1.41-1.02z"/><linearGradient id="e" gradientUnits="userSpaceOnUse" x1="45.7" y1="70.899" x2="8.723" y2="83.178" gradientTransform="matrix(1 0 0 -1 0 130)"><stop offset="0" style="stop-color:#a47b62"/><stop offset=".5" style="stop-color:#ba8d68"/></linearGradient><path style="fill:url(#e)" d="M36.66 50.48s-19.27-7.12-21.14-8.22c-1.87-1.1-2.98-1.74-2.98-1.74-1.5-.67-2.78.02-3.45 1.53L5.4 51.04c-.51 1.17-.67 1.85.18 2.3.72.39 1.29.22 1.56-.46-.05.34.11.44.68.58.69.17 1.04-.85 1.04-.85s-.19.83.58.9c.71.06.98-.97.98-.97s-.16.84.58.92c.56.06.79-.81.83-1-.03.17-.12.84.52.85.81.02.98-1.67 1.19-2.15l.36-.83 20.29 9.93.02-.05c.16.07.3.15.47.2v.01l22.31 7.88 3.47-11.69c-.02 0-23.77-6.12-23.8-6.13z"/><path style="fill:#99674f" d="M76.54 81.63a2.922 2.922 0 0 1 4.16.34l1.76 2.1-4.49 3.89-1.76-2.1c-1.06-1.26-.91-3.16.33-4.23zm4.82 17.84 1.63-1.27 8.84-6.86 1.63-1.27c1.31-1.01 1.51-3 .45-4.41s-2.99-1.74-4.3-.72l-1.63 1.27-8.84 6.86-1.63 1.27c-1.31 1.01-1.51 3-.45 4.41s2.99 1.74 4.3.72z"/><path style="fill:#7c7c7c" d="M77.34 61.66 74 56.74l2.44-10.66-13.26-3.48-3.55 12.57-11.47-3.24-4.01 13.26L55.38 69l3.42 5.06z"/><path style="fill:#ba8d68" d="M79.75 84.9c-3.82 2.97-5.16 8.57-.47 14.6 3.76 4.84 8.99 5.38 12.32 4.28.79-.26 1.48-.62 2.01-1.03.53-.41 1.04-.99 1.49-1.68 1.9-2.95 2.68-8.15-1.09-13-4.69-6.05-10.44-6.14-14.26-3.17z"/><path style="fill:#5d4037" d="M81.37 90.81c.38-.96 2.67-2.74 3.69-2.87.59-.07.71-.76.26-.99-.44-.23-2.34-.09-3.42.75s-1.67 2.63-1.56 3.12c.13.5.82.54 1.03-.01z"/><path style="fill:#99674f" d="M83.77 91.83c.03-.01.06-.02.08-.04l1.55-1.21a.334.334 0 0 0-.07-.55 1.4 1.4 0 0 0-1.46.18c-.62.48-.59 1.16-.54 1.37.06.22.26.31.44.25z"/><ellipse transform="rotate(-37.843 89.819 90.406)" style="fill:#49362e" cx="89.82" cy="90.41" rx="1.37" ry="1.42"/><ellipse transform="rotate(-37.843 82.594 96.019)" style="fill:#49362e" cx="82.59" cy="96.02" rx="1.37" ry="1.42"/><path style="fill:#613e31" d="M89.77 93.67c.42.11 1.2.14 2.13-.58.93-.72 1.09-1.49 1.09-1.92 0-.19-.13-.31-.26-.35-.12-.03-.35.03-.49.24s-.36.7-.99 1.19c-.63.48-1.15.58-1.39.66-.24.08-.36.29-.36.41 0 .15.09.3.27.35zm-7.22 5.62c.42.11 1.2.14 2.13-.58s1.09-1.49 1.09-1.92c0-.19-.13-.31-.26-.35-.12-.03-.35.03-.49.24s-.36.7-.99 1.19c-.63.48-1.15.58-1.39.66-.24.08-.36.29-.36.41 0 .14.08.3.27.35z"/><path style="fill:#543930" d="M95.38 105.07c0-.01 0-.01 0 0 0-.01.01-.01 0 0 9.95-7.77-.91-17.59-.91-17.59s-1.36-.83-1.96-1.19c-.09-.05-.19.04-.15.13.52 1.12 2.37 5.09 2.78 6.42.24.78-.12 1.62-.84 2-1.11.58-2.84 1.56-4.56 2.89-.01 0-.01.01-.02.01s-.01.01-.02.01a31.172 31.172 0 0 0-3.95 3.68c-.55.61-1.45.74-2.14.31-1.18-.73-4.53-3.5-5.5-4.3-.08-.07-.19.01-.17.11l.65 2.19s6.77 12.98 16.79 5.33z"/><radialGradient id="f" cx="7012.487" cy="-2262.866" r="10.566" gradientTransform="matrix(-.7913 .6114 .6898 .8928 7198.072 -2171.744)" gradientUnits="userSpaceOnUse"><stop offset=".794" style="stop-color:#6d4c41;stop-opacity:0"/><stop offset="1" style="stop-color:#6d4c41"/></radialGradient><path style="fill:url(#f)" d="M78.59 99.74s6.76 12.98 16.79 5.32l.45-.36c.29-.24.56-.49.81-.73l.01-.01c.02-.02.03-.04.05-.05 7.58-7.55-2.23-16.43-2.23-16.43l-1.96-1.18c-.09-.05-.19.04-.15.13.53 1.13 2.36 5.09 2.77 6.41.24.78-.12 1.62-.84 2-1.11.58-2.84 1.56-4.56 2.89-.01 0-.01.01-.02.01s-.01.01-.02.01a31.172 31.172 0 0 0-3.95 3.68c-.55.61-1.45.74-2.14.31-1.18-.73-4.57-3.52-5.51-4.31-.08-.06-.19.01-.16.11.2.68.66 2.2.66 2.2z"/></svg>