<svg xmlns="http://www.w3.org/2000/svg" viewBox="0 0 128 128" style="enable-background:new 0 0 128 128" xml:space="preserve"><radialGradient id="a" cx="63.6" cy="1400.9" r="56.96" gradientTransform="translate(0 -1338)" gradientUnits="userSpaceOnUse"><stop offset=".5" style="stop-color:#fde030"/><stop offset=".92" style="stop-color:#f7c02b"/><stop offset="1" style="stop-color:#f4a223"/></radialGradient><path style="fill:url(#a)" d="M63.6 118.8c-27.9 0-58-17.5-58-55.9S35.7 7 63.6 7c15.5 0 29.8 5.1 40.4 14.4 11.5 10.2 17.6 24.6 17.6 41.5s-6.1 31.2-17.6 41.4c-10.6 9.3-25 14.5-40.4 14.5z"/><linearGradient id="b" gradientUnits="userSpaceOnUse" x1="63.6" y1="1456.8" x2="63.6" y2="1345" gradientTransform="translate(0 -1338)"><stop offset=".16" style="stop-color:#f4a223"/><stop offset=".33" style="stop-color:#f7c02b"/><stop offset=".81" style="stop-color:#fde030;stop-opacity:0"/></linearGradient><path style="fill:url(#b)" d="M63.6 118.8c-27.9 0-58-17.5-58-55.9S35.7 7 63.6 7c15.5 0 29.8 5.1 40.4 14.4 11.5 10.2 17.6 24.6 17.6 41.5s-6.1 31.2-17.6 41.4c-10.6 9.3-25 14.5-40.4 14.5z"/><path style="fill:#eb8f00" d="M111.49 29.67c5.33 8.6 8.11 18.84 8.11 30.23 0 16.9-6.1 31.2-17.6 41.4-10.6 9.3-25 14.5-40.4 14.5-18.06 0-37-7.35-48.18-22.94 10.76 17.66 31 25.94 50.18 25.94 15.4 0 29.8-5.2 40.4-14.5 11.5-10.2 17.6-24.5 17.6-41.4 0-12.74-3.47-24.06-10.11-33.23z"/><radialGradient id="c" cx="43.235" cy="-153.882" r="19.473" gradientTransform="matrix(.98 0 0 -.93 -15.12 -74.95)" gradientUnits="userSpaceOnUse"><stop offset="0" style="stop-color:#ed7770"/><stop offset=".08" style="stop-color:#ed7770;stop-opacity:.96"/><stop offset=".22" style="stop-color:#ed7770;stop-opacity:.85"/><stop offset=".39" style="stop-color:#ed7770;stop-opacity:.68"/><stop offset=".59" style="stop-color:#ed7770;stop-opacity:.43"/><stop offset=".81" style="stop-color:#ed7770;stop-opacity:.13"/><stop offset=".9" style="stop-color:#ed7770;stop-opacity:0"/></radialGradient><circle style="opacity:.8;fill:url(#c);enable-background:new" cx="27.25" cy="68.16" r="17.5"/><radialGradient id="d" cx="117.833" cy="-153.882" r="19.473" gradientTransform="matrix(.98 0 0 -.93 -15.12 -74.95)" gradientUnits="userSpaceOnUse"><stop offset="0" style="stop-color:#ed7770"/><stop offset=".08" style="stop-color:#ed7770;stop-opacity:.96"/><stop offset=".22" style="stop-color:#ed7770;stop-opacity:.85"/><stop offset=".39" style="stop-color:#ed7770;stop-opacity:.68"/><stop offset=".59" style="stop-color:#ed7770;stop-opacity:.43"/><stop offset=".81" style="stop-color:#ed7770;stop-opacity:.13"/><stop offset=".9" style="stop-color:#ed7770;stop-opacity:0"/></radialGradient><circle style="opacity:.8;fill:url(#d);enable-background:new" cx="100.36" cy="68.16" r="17.5"/><path style="fill:#422b0d" d="m49.56 49.12-.15-.2-.41-.54-.53-.58c-.22-.24-.48-.49-.73-.75s-.56-.5-.84-.72c-.26-.2-.54-.39-.84-.54-.2-.11-.42-.2-.65-.25a.739.739 0 0 0-.21 0h.1-.55c-.15 0 0 0 0 0h.08c.08 0 0 0 0 0a.205.205 0 0 0-.11 0c-.23.05-.45.13-.66.25-.29.16-.58.34-.84.54-.28.22-.57.47-.83.72-.53.51-1 1-1.3 1.39l-.52.6-.23.27a4.231 4.231 0 0 1-5.62.61 3.532 3.532 0 0 1-1.47-3.47s.07-.41.26-1.12c.31-1.01.73-1.99 1.25-2.91.86-1.5 2.01-2.8 3.38-3.84.92-.71 1.95-1.27 3.05-1.66.3-.12.61-.21.92-.29.33-.09.66-.17 1-.23l.61-.09.51-.05h1.85c.34 0 .67.09 1 .14 1.79.33 3.48 1.07 4.92 2.18 1.38 1.04 2.53 2.34 3.38 3.84.31.52.58 1.07.8 1.64.19.44.35.88.48 1.34.07.24.13.48.16.72v.25c.3 2.05-1.12 3.95-3.17 4.25-.05.01-.09.01-.14.02-1.49.24-3-.34-3.95-1.52zm37.5 0-.16-.2-.43-.54-.53-.58c-.22-.24-.48-.49-.73-.75s-.56-.5-.84-.72c-.26-.2-.54-.39-.84-.54-.2-.11-.42-.2-.65-.25a.739.739 0 0 0-.21 0h.1-.55c-.15 0 0 0 0 0h.08c.08 0 0 0 0 0a.205.205 0 0 0-.11 0c-.23.05-.45.13-.66.25-.29.15-.57.34-.83.54-.29.22-.57.46-.84.72-.53.51-1 1-1.3 1.39L78 49l-.22.27a4.244 4.244 0 0 1-5.63.61 3.532 3.532 0 0 1-1.47-3.47s.07-.41.27-1.12c.3-1.02.72-1.99 1.25-2.91.85-1.5 2-2.8 3.37-3.84.91-.7 1.92-1.26 3-1.66.3-.12.61-.21.92-.29.33-.09.66-.17 1-.23l.62-.09.5-.05h1.85c.34 0 .67.09 1 .14.64.11 1.28.28 1.89.51 1.08.39 2.09.95 3 1.66 1.38 1.04 2.53 2.34 3.38 3.84.31.52.58 1.07.8 1.64.19.44.35.88.48 1.34.07.24.13.48.16.72v.25a3.754 3.754 0 0 1-3.09 4.31c-.03 0-.05.01-.08.01-1.49.24-3-.34-3.94-1.52z"/><radialGradient id="e" cx="63.06" cy="56.06" r="65.06" gradientTransform="matrix(1 0 0 -1 0 130)" gradientUnits="userSpaceOnUse"><stop offset=".27" style="stop-color:#fff176"/><stop offset="1" style="stop-color:#ffc400"/></radialGradient><path style="fill:url(#e)" d="M94.8 78.85c-2.22-3.18-8 .07-8 .07s3-2.61 5.5-5c1.6-1.53 3-4.79 1.69-7S88.87 64.85 87 66l-7.33 4.5s2.75-1.2 3.58-5.92a3.58 3.58 0 0 0-2.51-4.4c-.36-.1-.73-.14-1.1-.12-1.73.15-3.38.79-4.77 1.84-5.3 3.76-19.45 13.35-22.62 13.1-1.23-.1-1.34-.29 1.25-5.83 1.74-3.32 1.9-7.25.44-10.7-.85-2-4.77-2.55-6-.62-.93 1.42-1.6 4.9-3.22 8.4C42 72 35.73 79.72 35.22 80.48c-3.73 5.52-10.68 15.81-3.4 27.35 6.44 10.22 21.14 10.7 28.67 8 14.39-5.1 27.64-14.9 27.89-15.1 2.62-2.08 5-5.13 3.92-7.91-1.33-3.44-5.74-1.4-5.74-1.4 2.55-1.55 4.84-3.5 6.77-5.78 1.83-2.36 2.96-4.64 1.47-6.79z"/><path style="fill:#eb8f00" d="M94.52 86.56c1.18-1.52 3.94-5.07 1.52-8.56-.87-1.23-2.08-2-3.49-2.24 2.37-1.97 4.91-6.57 2.2-10.35-1.01-1.41-2.94-2.51-6.01-1.8-2.21.51-4.19 2.14-4.19 2.14.07-.27 1.81-5.18-4.2-6.4-2.42-.49-5.17 1.11-6.75 2.3-9.13 6.48-20.98 12.64-20.58 11.79 3.85-4.67 4.63-11.58 2.26-15.68-.84-1.99-5.96-3.48-7.63-.74-1.37 2.25-2.28 7.63-4.84 11.91-1.98 3.31-11.02 14.7-12.65 20.34 0 0 2.21-3.29 5.7-7.94 3.71-4.96 8.75-11.38 10.24-14.45 1.35-2.73 1.98-6 3.12-8.22.56-.93 2.83-1.81 4.29 1.05s.76 6.32-1.26 10.19c-2.08 4.44-3 4.61-2.06 5.59 3.18 3.27 21.53-9.82 25.6-12.38a7.738 7.738 0 0 1 3.93-1.54c2.74-.39 2.6 3.45 2.6 3.45-.77 3.15-1.26 3.15-4.4 5.79C75.69 72.68 67.8 78.42 62.68 81c0 0 .09 1.17 2.46.5 2.38-.67 11.71-6.54 16.74-10.57 0 0 6.52-5.57 9.3-4.79 2.82.8 2.57 2.76 1.68 4.62-.88 1.86-3.19 4.1-6.85 6.89-6.58 5-16.77 11.82-16.77 11.82s.21 1 2.19.43c4.03-1.17 16.61-10.49 16.61-10.49.98-.76 4.26-1.81 5.54.34.69 1.01.53 2.66-1.89 5.52-2.88 3.43-11.67 9.41-19.31 13.75 0 0 .58.98 2.69.26 2.1-.72 10.83-6.03 12.21-6.49s2.76-.9 3.68.73c1.09 2.25-.37 4.03-3.26 6.33-.14.05-13.9 10.8-28.2 15.65-7.56 2.56-16.01 1.24-25.7-5.09 5.88 7.1 18.72 10.27 27.43 7.09 14.65-5.36 28.21-15.25 28.32-15.34 2.1-1.67 6.47-5.13 4.06-10.08-.63-1.11-1.47-1.8-2.39-2.19 1.17-1.01 2.27-2.12 3.3-3.33z"/></svg>