<svg xmlns="http://www.w3.org/2000/svg" viewBox="0 0 128 128" style="enable-background:new 0 0 128 128" xml:space="preserve"><path style="fill:#464c4f" d="M4.79 72.01s.02 3.76.05 4.45c.05 1.34.79 1.95 2.25 1.92 1.46-.04 42.08.43 42.08.43l.66-12.75-45.04 5.95zm70.6-1.73 2.55 8.21s41.06 0 42.57.08c1.51.08 2.31-.48 2.39-1.91.08-1.44.22-7.22.22-7.22L94.36 65.5l-18.97 4.78zm-27.99 43.8s-.03 5.5-.04 6.62c-.02 2.11.52 3.87 4.75 3.87s21.37-.08 23.12-.16 3.14-1.03 3.22-3.02c.08-1.99.53-9.57-.27-9.49-.8.08-18.58.08-18.58.08l-12.2 2.1z"/><path style="fill:#616266" d="M7.87 48.59c-2.39.09-3.03.96-3.11 3.59-.08 2.63 0 17.3 0 18.66s.08 3.35 1.83 3.43c1.75.08 40.82.08 40.82.08v39.7c0 2.15 1.59 4.86 5.9 5.18s16.82.16 19.77.16c2.95 0 5.34-1.12 5.5-3.67.16-2.55.16-41.38.16-41.38s38.98-.23 40.9-.24c2.71-.01 3.43-1.51 3.51-5.18.08-3.67-.16-15.07-.16-17.06 0-1.99-1.28-3.19-4.31-3.03-3.03.16-40.34-.16-40.34-.16V6.76c0-1.91-.74-3-3.99-2.97-2.23.02-21.95-.04-23.63-.08-2.12-.05-3.09 1.43-3.07 3.82.02 2.31-.16 41.22-.16 41.22s-37.47-.24-39.62-.16z"/><path style="fill:#9a9a9a" d="M9.7 53.14c-1.59 1.75-1.91 12.12.96 12.12 3.21 0 2.15-5.02 6.54-6.7s6.44-2.55 6.54-4.38c.15-2.96-12.28-2.98-14.04-1.04zM65.5 9.02c.13 2.11-5.3 3.01-7.43 5.05-2.14 2.04-3.5 5.3-5.1 5.25-1.6-.05-2.72-3.06-2.33-6.46s3.26-5.44 7.53-5.73 7.23.29 7.33 1.89z"/></svg>