<svg xmlns="http://www.w3.org/2000/svg" viewBox="0 0 1000 1000"><path fill="#007934" d="M8 195.25c171.17-85.38 341.69-54.3 514.26-27.81C677.13 191.2 833.79 211.71 992 132.75v672c-171.17 85.38-341.69 54.3-514.26 27.81C322.87 808.8 166.21 788.29 8 867.25v-672"/><path fill="#fff" d="M307.48 140.63c127.05 6.99 254.12 39.54 385.04 46.74v672c-127.05-6.99-254.12-39.54-385.04-46.74v-672"/><path fill="#007934" d="m503.55 209.22-2.58 37.75-9.46.48c.18.16 6.18 6.01 7.72 11.29.16.87.1 1.46-.16 1.96-.09.15-.22.3-.34.41-2.29 1.4-7.2 0-7.53-.11.1.14 7.12 9.72 8.03 12.95.01.07.03.14.03.22v.21c-.01.04-.05.11-.06.16-.06.14-.15.3-.25.42-2.23 1.66-9.65 1.31-10.02 1.28.17.2 8.74 10.25 9.74 15.5.45 4.69.08 7.25 0 7.73-1-1.3-15.06-19.41-24.95-16.61-.49.28-.74.54-.87.84-.05.15-.06.34-.04.5 1.02 2.8 13.89 7.97 23.55 20.44-1.19 2.34-25.85-12.6-27.78-5.83 1.29 1.91 28.06 12.19 30.65 17.18-10.72-1.26-30.68-7.77-30.65-3.2-1.43 5 19.38 5.43 29.22 11.13 2.64 4.89 2.5 7.75-2.28 7.8-9.38-7.28-28.28-14.46-28.96-7.15v.04c.01.01.03.04.03.05.01.02.02.06.03.09.04.04.11.1.16.15 2.46 1.66 20.59 4.26 27.87 11.38-10.51 1.19-42.85-12.59-43.83-8.37 1.14 2.56 6.19 11.88 15.46 13.35 9.55 1.23 29.86 9.68 31.83 13.85.04.13.04.25.03.34-1.25 2.12-27.43-12.14-38.45-7.41-10.12 5.51 30.38 7.59 38.11 17.16 6.31 9.73-13.48-2.76-13.75-2.93-.4-.13-28.22-9.35-32.95-7.7-4.27 2.3-9.11 7.53-9.18 7.61.23.61 2.66 7.33 5.73 7.05.45-.17.71-.17.9-.08h.03c0 .01.03.05.03.05.01.01.03.04.03.05.01.01.03.03.03.04.01.01.03.04.04.05.01.04.02.13.03.17-.12 1.24-1.9 4.18-1.96 4.28.23.11 39.7 19.32 49.03 32.34 8.3 13.08-50.78-25.89-51.02-26.04-.31.11-23.78 8.11 1.43 13.05-2.44 5.54.92 9.02 1.43 9.55.38.16 41.78 18.49 46.72 28.52 3.73 10.01-28.65-13.27-36.39-19.59-7.79-5.76-26.6-1.47-28.34.72a.19.19 0 0 0-.03.08c-.01 0 0 .03 0 .04-.01.01 0 .07 0 .08v.04c0 .01-.01.04 0 .05 0 .01.02.04.03.04v.05c.01.03.04.1.06.13 0 .01.02.04.03.05 1.66 2.05 9.66 6.12 10.48 9.36v.04c0 .18-.03.38-.09.54-1.67 2.51-11.17 2.83-12.23 5.26 0 .05-.02.12-.03.17.59 2.87 53.17 26.27 67.95 44.82 13.96 18.66-42.03-25.83-42.13-25.91.24.49 2.81 5.67 0 7.4-3.37.41-14.08-23.29-32.69-12.1-2.59 5.76 15.44 12.64 20.93 14.25-1.75 5.71-3.04 7.24 3.74 14.19.75.75 1.17 1.2 1.34 1.42l.03.05.03.05v.08h-.03c-.01 0-.03-.01-.03-.01-.99-.54-13.51-10.65-14.72-11.34-.01 0-.05-.01-.06-.01h-.03c.06.78 1.43 10.33 1.43 10.34-6.62-7.98-13.74-10.94-21.22-4.88 0 .71.07 6.72 7.16 12.25-3.79 10.7 4.33 8.48 18.35 20.88-20.58-9.84-21.92 2.72-7.46 8.27 14.93 5.21 54.26 13.28 64.21 31.44 2.01 3.96 2.44 5.56 2.14 6.2-2.01.88-15.73-14.24-18.2-15.65 0 0-.02-.01-.03 0 0 0-.02.03-.03.03-.02.05-.07.13-.09.2-.4 1.53-1 8.09-1 8.13-6.16-5.78-11.73-10.8-19.04-14.05-.49 1.5-.53 3.67-1.02 5.17-6.74-7.56-12.37-12.75-22.06-14.94l-1.15 6.08c-.22-.38-7.73-14.29-23.8-3.29-7.95 7.45 32.35 7.74 40.13 18.9 6.52 11.27 1.71 11.82 1.43 11.87l-17.17-11.04c-.53-.21-19.74-7.53-26.1-2.46-4.71 5.61 82.72 33.11 86.26 50.82 1.3 9.14-20.77-12.46-40.69-23.71l-2.3 8.57c-.61-.89-8.07-11.5-16.61-14.85 0 .01-.03.03-.03.04v.09c.1 1.28 1.74 10.63 1.74 10.64-.44-.34-21.56-16.6-33.22-11.2-10.28 6.19 38 16.47 43.55 24.37.5.86.69 1.41.68 1.79-.01.06-.04.15-.06.2-1.79 1.39-15.32-7.63-17.54-4.44-2.68 3.93-25.17-11.78-25.79-5.84.55 6.36 3.34 10.03 3.45 10.17.61.16 49.83 13.62 52.45 22.26.8 8.18-27.52-8.44-28.09-8.77-.18.36-2.5 5-.59 8.45.09.12.16.23.18.28v.04h-.03c-1.39-1.08-16.48-16.93-15.62-5.98-6.64-4.56-22.05-16.84-20.34-8.49 2.91 8.15 44.38 25.45 46.07 26.15-1.75-.06-18.29-.58-18.29 5.97-24.3-23.07-23.95-11.32-23.52-10.2v.04c-1.51-.59-30.72-14.29-7.43 6.08 12.71 10.98 15.6 14.89 15.8 16.34v.13c0 .04-.02.09-.03.12 0 .01-.03.03-.03.04-.01.02-.02.06-.03.08-.01.01-.03.03-.03.04l-.04.04s-.02.03-.03.04c0 0-.02.03-.03.03-.55.3-1.62.05-2.02-.01-.01 0-.05-.01-.06-.01-.01.01-.03.04-.03.04l.03.05c.3.84 2.02 7.75 2.08 9.02 0 .02-.02.06-.03.08v.04h-.03v.04l-.03-.01h-.03c-1.06-.65-16.72-13.53-22.03-15.24-5.72-1.18-30.86 5.71-3.73 25.62 27.75 19.27 44.23 2.15 59.6 6.38 15.39 4.7 22.1 9.05 20.94 15.58-1.96 6.07-14.89-23.63-30.36-1.69-17.04-6.98-28.03-11.04-19.6 6.96-27.62-17.25-44.2-1.82-9.68 10.38 34.27 5.6 54.83-3.41 55.04-3.5.21.54 5.34 14.62 14.06 6.44 8.15-7.83 8.54 3.46 8.83 5.16.01.01.03.03.03.04v.05h.03c.6-.2 7.99-3.45 8-3.46l2.02.32v93.41l27.78 4.67c-.03-.28-8.55-82.35-4.01-92.84 5.02-9.71 8.95-8.09 9.45-7.89.37.21 17.73 9.58 20.07 9.25.02-.01.07-.02.09-.03.02-.01.05-.02.07-.03.03-.02.09-.08.12-.11.01 0 .03-.03.03-.04 1.33-2.06.04-8.45 9.15-6.54 2.52-1.46 2.03-6.88 3.58-8.52.03-.02.09-.05.12-.07.07-.03.17-.06.25-.09.11-.02.25-.03.37-.03 3.55.42 57.28 28.66 70.21 9.89-3.69-11.22-13.66-2.8-16.92-2.34-2.88-.64-13.07-8.2-19.78-2.5-6.1-6.39-31.57-14.07-31.8-14.13-2.35-4.7 61.17 10.31 65.92 7.4 7.15-10.03-13.89-10.66-17.76-7.92-6.43-5.77-13.5-6.34-18.48-3.54-2.75-7.42-23.18-7.43-35.4-11.19-3.72-3.75-3.19-5.05-.59-6.72 24.75 5.1 49.36 12.72 74.22 14.04 6.28-11.45-8.07-17.01-17.76-8.31-5.87-12.49-16.3-2.87-24.08-4.66-7.27-2.75-4.19-13.56 5.44-10.93 9.88 3.13 25.88 2.46 29.53-2.98 2.94-5.74-1.71-11.63-17.49-8.32-5.7-7.38-16.56-2.37-22.33-.61-7.62-6.26-23.8-4.2-29.84-3.07-4.74-5.82 28.85-8.19 29.53-8.25 13.6 1.42 21.16-.69 25.51-1.74 20.28-12.71-.02-16.16-11.05-7.06-6.96-7.62-12.81-1.39-19.04.77-5.94 1.71-15.75 1.98-17.36 1.21-.01-.01-.05-.04-.06-.05 0 0-.03-.04-.03-.05l-.03-.05v-.08c.01-.02.02-.06.03-.08 1.13-1.55 16.19-12.26 16.3-12.34.02 0 20.05.68 24.08.48 2.86-.45 10.43-4.45 11.01-6.65-.31-1.29-3.45-1.54-14.46.75-9.75-.17-15.47-1.58-19.2-1.77-6.09-1.76-8.35-2.91-9.02-3.72-.02-.04-.05-.11-.06-.14a.533.533 0 0 1 .06-.41c.02-.03.07-.09.09-.12 1.85-1.1 10.67-1.21 10.95-1.21.4.01 28.42-.06 30.86-1.63l.04-.04c.01-.02.02-.06.03-.08 0-.01.02-.03.03-.04-.2-15.84-23.97-11.91-25.23-11.79-.75-11.03-22.1-3.59-23.77-3.34h-.03c-.98-.98-1.37-1.78-1.49-2.58-.02-.3 0-.61.06-.88.87-2.25 3.82-3.48 4.01-3.56 6.49-1.08 15.47-.71 18.2-2.89.6.07 17.02 1.97 19.91-4.01-5.05-16.54-37.17-2.41-42.12.07-.92-.17-1.4-.5-1.71-1.05-.91-3.48 5.46-11.28 6-11.94.01 0 .03-.03.03-.03 1.46-.21 27.2 1.49 40.38-20.18.26-14.06-14.9 5.84-15.18 6.18-1.67-18.49-17.14-1.68-26.94-1-9.47-.29-9.71-6.79-3.14-7.47 6.82-.14 13.74 1.52 17.76-11.5 4.38-12.76 14.2 2.43 16.93-1.98 1.38-4.97-3.31-9.24-4.02-9.87.32-.41 8.02-9.95-5.16-12.01-13.35-1.53-30.54-6.59-30.92-6.71.98-.36 14.28-5.04 27.19-3.14 13.25 1.71 5.94-11.52-6.6-13.76-12.68-2.05-19.06-8.45-19.19-8.58l21.49-7.83-1.43-8.35c.32-.31 12.37-11.28-5.16-11.25l-19.79.64-35.8 1.96h-.03c-.49-.24-3.54-2.12-4.45-4.03l-.07-.22-.03-.26c0-.08-.01-.21 0-.3.26-.97 1.15-1.7 3.99-2.29 9.43-1.71 41.26-5.48 46.44-2.72.67.38 1.05.38 1.37.11 1.59-2.45-4.12-16.66-19.16-21.42-17.4-4.65-27.58 1.48-27.78 1.6-.46-.3-10.71-6.6-.87-10.28 10.59-2.68 26.37 5.49 26.66 5.64.38-.1 17.9-4.23 3.14-10.05-15.26-5.17-19.93-.42-26.94-.97-1.87-5.09 22.96-2.35 25.51-5.83-3.31-7.2-18.91-3.09-28.94-4.42-4.08-3.31-4.34-6.55.29-8.53 9.83 1.04 19.09 3.16 28.93 4.16-.26-7.18-.02-15.6-.28-22.77-12.57-4.76-27.06-2.03-34.13-3.41 2.58-7.24 28.29-5.53 31.82-7.04 5.33-9.67-25.22-4.23-26.62-4.07-5.66-2.4-5.32-6.49-1.75-9.22 8.8.18 26.31 5.67 25.54-2.09-1.65-7.22-12.49-5.37-17.79-4.49-5 .57-11.91-1.44-12.04-1.48-2.19-6.19 27.05.91 27.81-3.51-1.09-5.01-19.27-4.63-26.38-5.23-4.22-5.7 23.16-4.34 25.2-4.66.01-.01.03-.04.03-.04.34-12.51-19.5-3.42-24.08-3.7-.71-.13-1.18-.41-1.58-.87a3.11 3.11 0 0 1-.25-.38c-1.15-2.64-.21-6.99-.16-7.21.18-.08 7.19-3.56 8-4.47 0 0 .02-.03.03-.03v-.09c-.01 0-.03-.04-.03-.04a.972.972 0 0 0-.1-.15c-1.06-1.03-6-4.06-6.75-4.38h-.03s-.03-.04-.03-.05a.219.219 0 0 1-.03-.05s-.03-.03-.03-.04c-.22-1.23.09-8.75.09-8.82.19-.16 5.56-5.12 6.35-7.51V266.34a.318.318 0 0 1-.03-.09v-.04c-.01-.01-.03-.04-.03-.05-.01-.02-.03-.03-.04-.05-.01-.02-.02-.07-.03-.09l-.03-.04c-.02-.03-.06-.07-.09-.1l-.06-.05c-1.87-.88-7.43.65-7.75.74v-7.77c.41-.01 4.92-.04 6.03-3.38.03-.2.02-.4 0-.59 0-.07-.01-.19-.03-.26-.03-.15-.09-.34-.15-.49-.01-.02-.05-.07-.06-.09-1.64-2.29-6.09-3.42-6.35-3.47l-2.86-41.3m-5.1 132.63v5.37c-.21-.05-6.09-1.6-7.62-3-.01-.01-.03-.04-.03-.05-.01 0-.03-.04-.03-.04-.01-.01-.03-.04-.04-.05 0-.01-.02-.04-.03-.05-.01-.02-.02-.06-.03-.09v-.04c0-.01-.03-.04-.03-.05v-.21c.01-.03.02-.09.03-.12 0-.01.03-.03.03-.04.02-.03.04-.08.06-.11l.04-.04c.01-.02.04-.06.06-.08.04-.04.1-.1.15-.14 2.37-1.49 6.32-1.1 7.31-1.19.01-.01.03 0 .04 0 0 0 .02-.03.03-.04 0 0 .02.01.03.01 0-.01.03-.04.03-.04m9.11 8.55c.65.11 12.19 2.3 13.91 4.51.01.02.02.07.03.09.01.03.03.1.03.13v.09c0 .03.01.09 0 .12 0 .03-.02.09-.03.13-1.68 2.4-13.14 2.33-13.69 2.32l-.25-7.39m-.71 10.5h.03s.02 0 .03.01c.95.36 5.64 1.57 6.6 2.7 0 .02.02.04.03.05v.04c0 .01.02.04.03.05V363.96c0 .01-.03.03-.03.04v.04c-.01.02-.02.06-.03.08l-.04.04s.01.03 0 .04c-1.45 1.47-5.6 1.38-6.12 1.33h-.04s.01-.04 0-.04c0-.01-.02-.04-.03-.05-.15-.67-.43-4.53-.43-4.54m-38.36 8.2c4.16.4 12.18 2.91 27.56 11 .02.45.25 5.87.19 6.74 0 .01-.03.03-.03.04v.04l-.03.04c-.41-.25-27.77-14.92-30.37-15.44-.06-.01-.15-.02-.21-.03a3.95 3.95 0 0 1-.19-.07c-.07-.04-.16-.12-.22-.16-.02-.02-.07-.04-.09-.06-.01-.01-.03-.04-.03-.05-.08-.09-.17-.22-.22-.33-.01 0-.03-.03-.03-.04a.318.318 0 0 1-.03-.09v-.04a.47.47 0 0 1-.03-.09V370.35c0-.05.02-.12.03-.17.04-.11.1-.24.18-.35.5-.5 1.42-.85 3.52-.73m14.31 18.12c4.37.67 14.97 5.34 15.52 5.44.04 1.23.29 6.49-.06 7.63 0 .01-.02.03-.03.04 0 .01-.02.03-.03.04-.01 0-.03.03-.03.04-.01 0-.05.02-.06.03-.01 0-.03-.01-.04-.01-.01 0-.04 0-.06-.01h-.03c-1.24-.67-15.85-9.54-17.05-12.39v-.17c.01-.1.05-.2.1-.28 0-.01.02-.03.03-.04 0-.01.02-.03.03-.04.34-.26.88-.35 1.71-.28m43.3 21.47c4.44.62 6.87 1.33 6.07 3.03-3.59 4.06-23.3 4.96-23.74 4.98l-.37-8.68c.47-.01 10.96-.15 18.04.67m-59.35 17.73c3.59.38 11.64 4.15 30.02 17.5l.12 6.23c-.21-.12-30.52-17.64-32.04-19.79-.58-1.36-1.48-3.89 1.9-3.94m60.66 18.59c.98.1 1.56.31 1.84.66 0 .01.02.04.03.05.01.03.02.1.03.13 0 .03.03.1.03.13-.02.18-.11.39-.28.63-3.39 3.79-18 5.92-18.35 5.97v-5.7h.03c.71-.03 12.05-2.09 16.67-1.87m-67.88-9.67c4.7.46 14.95 5.26 38.45 23.93.01.17.16 5.37.13 5.85h-.04l-37.33-23.48-4.76-2.99c-.07-.48-.63-3.28 3.55-3.31m77.49 36.19c1.23.13 1.9.37 2.15.74.02.05.03.13.03.18-.01.17-.1.35-.31.58-4.19 3.79-26.85 5.79-28.06 5.81-.01 0-.03-.01-.03-.01h-.03l-.03-.05a.318.318 0 0 1-.03-.09c-.01-.01 0-.03 0-.04-.01-.02-.03-.07-.04-.09-.07-1.09.33-4.65.38-5.18v-.04h.03l.03.05h.03c1.51.07 19.53-2.31 25.88-1.86m-69.18 3.51c7.07 1 28.09 16.89 29.27 17.65h.03c-.06.58-.16 5.34-.22 6.09 0 .02.01.08 0 .09l-.03-.01c-1.08-.85-29.17-20.69-30.95-20.26-.71-2.8-.04-3.59 1.9-3.56m62.59 13.1c1.49.16 2.47.41 2.86.69.04.05.08.1.09.14v.09c0 .02.01.07 0 .08 0 .01-.02.03-.03.04a.87.87 0 0 1-.09.11c-2.6 2.06-21.91 4.55-22.21 4.58l-.1-5.55c.6-.05 13.49-.64 19.48-.18m-1.62 17.21c1.46.17 2.34.42 2.64.78l.04.05c0 .01-.01.06 0 .08 0 .01.02.04.03.05-.01.01-.03.03-.03.04-.01.01 0 .06 0 .08l-.04.04a.3.3 0 0 1-.06.11c-.02.03-.07.09-.09.12-2.57 1.99-18.89 4.41-19.16 4.45l-.47-5.78c.48.03 11.83-.5 17.14-.02m-71.74-9.62c4.16.34 14.18 4.08 39.36 20.34l.84 6.81-42.97-25.46c.01 0 0-.03 0-.04.01-.03 0-.12 0-.21.02-.17.09-.41.22-.64.35-.47.93-.86 2.55-.81v.01m55.04 22.94c.71.21 7.17 1.82 8.8 3.29 0 .01.02.04.03.05l.03.05c.01.01.03.04.03.05.01.02.02.06.03.09.01 0 .03.04.04.04.01.04.02.1.03.13V522.59c-.01.01-.03.06-.03.07-.01.01 0 .04 0 .05-.01.01-.03.06-.04.08-1.66 1.88-7.95 1.84-8.4 1.83l-.52-5.95m16.95 15.61c1.71.24 2.7.63 3.05 1.31.1.5-.12 1.02-.9 1.81-6.41 5.56-18.76 5.07-19.07 5.06v-7.36c0 .01.02.01.03.01.76-.05 11.45-1.34 16.89-.83m16.64 9.36c2.13.26 2.89.78 3.24 1.5a1.583 1.583 0 0 1 .09.6c-.12.85-.71 1.69-1.24 2.31-2.44 2.15-34.33 11.28-34.56 11.35 0-.01-.18-9.31-.13-10.12 19.06-4.87 28.27-6 32.6-5.64m-21.03 23.1c2.15.24 3.57.64 4.17 1.35.03.05.07.13.1.18.01.04.02.1.03.14v.12c0 .06.01.15 0 .21-.03.13-.09.27-.16.4-3.33 3.01-15.87 1.81-16.3 1.77v-4.61c2.54.22 8.18.09 12.16.44m13.54 9.62c.67.09.99.26 1.08.54.01.02.01.06 0 .09-.04.22-.21.49-.62.83-5.75 4.2-25.45 6.61-25.69 6.64 0-.01.27-3.61.37-4.47.58-.04 19.97-3.98 24.85-3.63h.01m11.38 7.49c2.47.38 4.11 1.08 5.26 2.25l.03.01V586.28c-.23 1.27-1.58 5.13-6.97 6.78-6.84-1.48-34.81 5.18-35.53 5.33h-.03v-.09c.02-.73.38-4.58.38-4.59 9.97-6.39 27.3-10.98 36.86-9.86m-72.45 11.21c.06.01.12.02.19.03 12.29 3.94 16.67 10.45 18.1 13.31-3.29 4.96-20.96-10.15-19.75-13.06.26-.24.68-.36 1.46-.28m70.15 11.85c.5.07.9.25 1.24.57.13.14.25.32.35.51.11.29.19.64.21 1.05-1.88 2.18-7.41.48-8.3.19.43-.21 4.08-2.3 6.5-2.32m-26.22 14.11c.93.11 1.61.34 2.08.74.05.06.11.14.15.2.02.02.05.07.07.09.01.03.04.1.06.14.01.03.02.09.03.13.07.34.04.74-.16 1.24-2.61 4.28-9.79 1.69-10.32 1.5v-3.43c0 .01.03.01.03.01.48.01 5.1-.78 8.06-.62m-49.53 5.25c2.62.46 4.76 2.74 7.22 5.08 5.42-.37 15.95 3.56 16.11 3.62v6.51c0 .01-.02.03-.03.04-.01 0-.03-.01-.03-.01-1.29-.06-13.26-2.75-16.52-5.5-2.57-.74-8.43-5.85-9.36-8.53-.01-.02-.03-.07-.04-.09 0-.03.01-.1 0-.13v-.08c.01-.02 0-.07 0-.09.01-.01 0-.03 0-.04l.04-.08v-.04c.94-.51 1.75-.7 2.61-.66m55.53 11.77c2.05.26 2.73 1.02 1.27 3.87-4.92 7.33-15.02 2.73-15.49 2.52l-.46-5.23c3.97.61 11.11-1.28 14.68-1.16m-41.75 10.41c4.58.68 9.3 3.54 9.43 3.62.26.75 2.06 6.36.37 8.63-.08.06-.16.12-.25.17-3.03 1.1-13.97-3.47-15.27-10.34 1.58-1.8 3.38-2.22 5.72-2.08m-46.57-3.79c4.21.6 8.59 4.25 9.27 4.82h.03l-.15 6.23c-.24-.13-7.76-4.31-10.77-10.9.53-.12 1.07-.18 1.62-.15m78.68 12.81c4.87.84 9.78 2.97 10.98 5.24.14.48.1.89-.19 1.36-2.99 2.94-14.66-1.76-15.24-2v-4.56c1.18-.26 2.71-.27 4.45-.04"/><path fill="#1A1A1A" opacity=".2" d="M8 195.25c171.17-85.38 341.69-54.3 514.26-27.81C677.13 191.2 833.79 211.71 992 132.75v672c-171.17 85.38-341.69 54.3-514.26 27.81C322.87 808.8 166.21 788.29 8 867.25v-672m31.25 19.39v604.5c306.5-128.29 611.18 96.04 921.5-33.78v-604.5c-306.5 128.29-611.18-96.04-921.5 33.78"/></svg>