<svg xmlns="http://www.w3.org/2000/svg" viewBox="0 0 128 128" style="enable-background:new 0 0 128 128" xml:space="preserve"><path style="fill:#543930" d="M94.14 69.08c-1.07-1.95.3-3.94 2.63-6.4 3.71-3.91 7.74-12.96 3.99-22.16.02-.05-.74-1.6-.72-1.65l-1.54-.08c-.49-.07-17.43-.11-34.39-.11s-33.89.04-34.39.11c0 0-2.28 1.68-2.26 1.73-3.75 9.2.29 18.25 3.99 22.16 2.33 2.46 3.7 4.45 2.63 6.4-1.04 1.9-4.14 2.18-4.14 2.18s.72 1.94 2.44 2.99c1.59.97 3.55 1.2 4.91 1.23 0 0 5.29 7.32 19.12 7.32h15.4c13.83 0 19.12-7.32 19.12-7.32 1.35-.03 3.31-.26 4.91-1.23 1.72-1.05 2.44-2.99 2.44-2.99s-3.09-.28-4.14-2.18z"/><radialGradient id="a" cx="97.929" cy="20.029" r="20.996" gradientTransform="matrix(.9596 0 0 .4713 -17.3 61.618)" gradientUnits="userSpaceOnUse"><stop offset=".728" style="stop-color:#6d4c41;stop-opacity:0"/><stop offset="1" style="stop-color:#6d4c41"/></radialGradient><path style="fill:url(#a)" d="M64.11 82.79v-8.12l24.58-1.95 2.24 2.75s-5.29 7.32-19.12 7.32h-7.7z"/><radialGradient id="b" cx="76.672" cy="67.371" r="6.205" gradientTransform="matrix(-.8691 .4067 -.3017 -.6447 183.472 80.317)" gradientUnits="userSpaceOnUse"><stop offset=".663" style="stop-color:#6d4c41"/><stop offset="1" style="stop-color:#6d4c41;stop-opacity:0"/></radialGradient><path style="fill:url(#b)" d="M90.87 71.93c-3.69-5.59 4.49-7.68 4.49-7.68l.01.01c-1.42 1.77-2.06 3.31-1.23 4.82 1.04 1.9 4.14 2.18 4.14 2.18s-4.23 3.75-7.41.67z"/><radialGradient id="c" cx="105.916" cy="66.233" r="27.254" gradientTransform="matrix(-.0716 -.9569 .7975 -.0597 35.844 156.524)" gradientUnits="userSpaceOnUse"><stop offset=".725" style="stop-color:#6d4c41;stop-opacity:0"/><stop offset="1" style="stop-color:#6d4c41"/></radialGradient><path style="fill:url(#c)" d="M100.79 40.52c3.65 8.91-.19 18.08-3.79 21.94-.49.53-2.59 2.59-3.07 4.23 0 0-8.21-11.45-10.66-18.18-.49-1.36-.95-2.76-1.01-4.2-.04-1.08.12-2.37.75-3.29.76-1.13 17.35-1.46 17.35-1.46-.01.02.43.96.43.96z"/><radialGradient id="d" cx="55.845" cy="68.766" r="27.254" gradientTransform="matrix(.0716 -.9569 -.7975 -.0597 98.025 108.763)" gradientUnits="userSpaceOnUse"><stop offset=".725" style="stop-color:#6d4c41;stop-opacity:0"/><stop offset="1" style="stop-color:#6d4c41"/></radialGradient><path style="fill:url(#d)" d="M27.48 40.52c-3.65 8.91.19 18.08 3.79 21.94.49.53 2.59 2.59 3.07 4.23 0 0 8.21-11.45 10.66-18.18.49-1.36.95-2.76 1.01-4.2.04-1.08-.12-2.37-.75-3.29-.76-1.13-1.66-.83-2.96-.83-2.48 0-13.32-.63-14.16-.63 0 .02-.66.96-.66.96z"/><radialGradient id="e" cx="50.132" cy="20.029" r="20.996" gradientTransform="matrix(-.9596 0 0 .4713 99.702 61.618)" gradientUnits="userSpaceOnUse"><stop offset=".728" style="stop-color:#6d4c41;stop-opacity:0"/><stop offset="1" style="stop-color:#6d4c41"/></radialGradient><path style="fill:url(#e)" d="M64.15 82.79v-8.12l-24.58-1.95-2.24 2.75s5.29 7.32 19.12 7.32h7.7z"/><radialGradient id="f" cx="24.842" cy="66.162" r="6.205" gradientTransform="matrix(.8691 .4067 .3017 -.6447 -9.796 100.616)" gradientUnits="userSpaceOnUse"><stop offset=".663" style="stop-color:#6d4c41"/><stop offset="1" style="stop-color:#6d4c41;stop-opacity:0"/></radialGradient><path style="fill:url(#f)" d="M37.39 71.93c3.69-5.59-4.49-7.68-4.49-7.68l-.01.01c1.42 1.77 2.06 3.31 1.23 4.82-1.04 1.9-4.14 2.18-4.14 2.18s4.23 3.75 7.41.67z"/><linearGradient id="g" gradientUnits="userSpaceOnUse" x1="64" y1="84.257" x2="64" y2="123.663"><stop offset=".249" style="stop-color:#f78c1f"/><stop offset="1" style="stop-color:#ed6d23"/></linearGradient><path style="fill:url(#g)" d="M105.85 103.24c-2.11-4.78-8.32-19.66-15.93-23.1-8.26-3.72-25.92.7-25.92.7s-17.4-4.23-25.66-.5c-7.61 3.43-14.08 18.12-16.2 22.9-2.11 4.78-3.8 11.35-1.13 15.38 2.68 4.03 5.93 5.38 11.92 5.38h61.11c7.94 0 10.26-1.34 12.93-5.38 2.68-4.03.99-10.6-1.12-15.38z"/><linearGradient id="h" gradientUnits="userSpaceOnUse" x1="26.31" y1="99.818" x2="53.27" y2="99.818"><stop offset=".5" style="stop-color:#ba8d68"/><stop offset="1" style="stop-color:#a47b62"/></linearGradient><path style="fill:url(#h)" d="M52.88 101.03c.38-.12.5-.57.28-.9-1.54-2.32-5.72-6.76-10.76-7.79-3.25-.67-6.42-.31-9.15.38-2.4.61-5.09 2.23-5.79 3.2-1.64 2.28.37 3.17.37 3.17s-2.01 1.41-1.41 2.97c.72 1.84 3.24.9 3.24.9s-1.28 1.17-.09 2.53c.99 1.14 3.37.35 3.37.35s-.39.9.77 1.57c1.57.91 3.92-1.18 5.54-1.83.88-.35 2.62-.96 3.67-1.34 3.24-1.15 7.24-1.96 9.96-3.21z"/><path style="fill:#a53e11" d="M47.95 124c11.25-1.44 31.69-10.89 32.27-11.4.58-.51.2-1.99.2-1.99s12.52-5.18 13.2-4.26.36 1.24-.57 1.87c-.66.44-11.06 4.66-15.73 7.67-7.33 4.71-14.24 8.06-14.24 8.06l-15.13.05z"/><linearGradient id="i" gradientUnits="userSpaceOnUse" x1="68.578" y1="104.21" x2="94.07" y2="104.21"><stop offset=".5" style="stop-color:#ba8d68"/><stop offset="1" style="stop-color:#a47b62"/></linearGradient><path style="fill:url(#i)" d="M68.58 98.96s7.59 3.01 11.85 11.65c0 0 1.88-.24 4.34-1.06s3.35-1.65 4.92-1.93c1.57-.28 3.96-.34 4.26-.87.8-1.42-2.11-6.15-7.32-7.79-8.22-2.59-18.05 0-18.05 0z"/><path style="fill:#91674d" d="M31.3 106.12c.35-.46 1.2-1.23 1.7-1.66 1.55-1.35 3.77-2.52 6.16-3.2.28-.08.58.08.66.37.08.28-.08.58-.37.66-2.93.83-4.95 2.02-6.51 3.57 0 0-.27.08-.78.2-.38.08-.86.06-.86.06zm-3.39-2.93c2.72-3.21 5.75-4.16 9.1-5.02.28-.07.58.1.65.39s-.1.58-.39.65c-3.16.81-5.56 1.77-7.62 3.76 0 0-.31.14-.73.2-.55.08-1.01.02-1.01.02zm-.88-4.79c1.9-1.7 4.35-2.88 7.63-3.67.29-.06.58.11.65.4a.54.54 0 0 1-.4.65c-3.04.73-5.32 1.8-7.07 3.34 0 0-.27-.09-.46-.24-.19-.17-.35-.48-.35-.48z"/><path style="fill:#99674f" d="M71.81 77.11H56.19v8.59c0 3.88 3.18 7.03 7.11 7.03h1.42c3.92 0 7.11-3.15 7.11-7.03l-.02-8.59zM87.51 43H40.49c-5.07 0-9.21 4.42-9.21 9.82s4.15 9.82 9.21 9.82H87.5c5.07 0 9.21-4.42 9.21-9.82.01-5.4-4.13-9.82-9.2-9.82z"/><path style="fill:#ba8d68" d="M64 9.14c-14.97 0-28.84 16.01-28.84 39.05 0 22.92 14.29 34.25 28.84 34.25S92.84 71.1 92.84 48.19C92.84 25.15 78.97 9.14 64 9.14z"/><path style="fill:#49362e" d="M54.1 50.21c0 1.33-.58 2.53-1.49 3.33H47.1c-.91-.8-1.49-2-1.49-3.33 0-2.43 1.9-4.39 4.24-4.39 2.35 0 4.25 1.96 4.25 4.39zm28.28 0c0 1.33-.58 2.53-1.49 3.33h-5.51c-.91-.8-1.49-2-1.49-3.33 0-2.43 1.9-4.39 4.24-4.39 2.35 0 4.25 1.96 4.25 4.39z"/><path style="fill:#613e31" d="M56.24 42.47c-.8-1.06-2.64-2.59-6.22-2.59-3.58 0-5.43 1.54-6.22 2.59-.35.46-.27 1.01-.02 1.33.22.3.89.58 1.63.34.74-.25 2.19-1 4.6-1.02 2.42.02 3.86.77 4.6 1.02.74.25 1.41-.03 1.63-.34.27-.32.35-.86 0-1.33zm27.96 0c-.8-1.06-2.64-2.59-6.22-2.59-3.58 0-5.43 1.54-6.22 2.59-.35.46-.27 1.01-.02 1.33.22.3.89.58 1.63.34.74-.25 2.19-1 4.6-1.02 2.42.02 3.86.77 4.6 1.02.74.25 1.41-.03 1.63-.34.27-.32.35-.86 0-1.33z"/><path style="fill:#99674f" d="M67.32 58.17c-.09-.03-.18-.06-.28-.07h-6.08a.96.96 0 0 0-.28.07c-.55.22-.85.79-.59 1.4.26.61 1.47 2.31 3.91 2.31 2.44 0 3.66-1.71 3.91-2.31.26-.61-.04-1.18-.59-1.4z"/><path style="fill:#5d4037" d="M72.25 70.09c-.41-1.47-4.05-4.81-8.5-4.81-4.48 0-7.61 3.65-7.99 4.8-.02.07-.09.28.06.4.2.15.45-.01 1.21-.5 1.36-.88 3.9-2.51 6.8-2.51 2.74 0 5.29 1.54 6.81 2.46.71.43 1.1.67 1.35.67.07 0 .13-.02.18-.06.17-.13.11-.37.08-.45z"/><path style="fill:#91674d" d="M63.9 71.88c2.46 0 4.54 1.34 4.34.62-.21-.72-2.13-2.51-4.48-2.51-2.35 0-4.01 1.91-4.21 2.51-.19.61 1.89-.62 4.35-.62z"/><path style="fill:#543930" d="M98.6 21.99c-2.1-3.18-6.81-7.44-11.03-7.72-.68-4.06-5.02-7.5-9.23-8.83-11.38-3.61-18.79.44-22.77 2.61-.83.45-6.17 3.41-9.9 1.29-2.34-1.34-2.3-4.94-2.3-4.94s-7.33 2.79-4.83 10.58c-2.52.1-5.82 1.17-7.57 4.7-2.08 4.21-1.34 7.74-.74 9.42-2.17 1.84-4.9 5.76-3.03 10.84 1.41 3.83 7.03 5.59 7.03 5.59-.4 6.89.89 11.13 1.57 12.85.12.3.55.27.62-.04.85-3.41 3.76-15.31 3.47-17.38 0 0 9.76-1.94 19.07-8.79 1.9-1.4 3.95-2.58 6.13-3.45C76.79 24.06 79.23 32 79.23 32s8.1-1.56 10.55 9.7c.92 4.22 1.54 10.97 2.06 15.69.04.33.49.4.62.1.82-1.87 2.45-5.59 2.84-9.39.14-1.33 3.73-3.1 5.28-8.83 2.08-7.64-.47-14.98-1.98-17.28z"/><radialGradient id="j" cx="73.996" cy="84.904" r="31.946" gradientTransform="matrix(.2952 .913 .6775 -.219 .264 -11.545)" gradientUnits="userSpaceOnUse"><stop offset=".699" style="stop-color:#6d4c41;stop-opacity:0"/><stop offset="1" style="stop-color:#6d4c41"/></radialGradient><path style="fill:url(#j)" d="M95.28 48.13c.14-1.33 3.73-3.1 5.28-8.83.16-.61.3-1.23.43-1.85 1.25-6.96-1-13.35-2.4-15.46-1.94-2.94-6.11-6.79-10.06-7.58-.34-.05-.68-.08-1-.1 0 0 .28 1.85-.47 3.32-.96 1.91-2.93 2.36-2.93 2.36C94.44 30.3 93.7 38.92 95.28 48.13z"/><radialGradient id="k" cx="46.81" cy="127.639" r="8.376" gradientTransform="matrix(.8457 .4535 .5376 -1.0027 -58.47 110.764)" gradientUnits="userSpaceOnUse"><stop offset=".58" style="stop-color:#6d4c41"/><stop offset="1" style="stop-color:#6d4c41;stop-opacity:0"/></radialGradient><path style="fill:url(#k)" d="M58.06 6.75c-.94.46-1.77.91-2.49 1.3-.83.45-6.17 3.41-9.9 1.29-2.3-1.31-2.3-4.8-2.3-4.92-1.06 1.35-4.26 11 5.1 11.64 4.04.28 6.52-3.24 8-6.22.53-1.09 1.36-2.67 1.59-3.09z"/><radialGradient id="l" cx="164.65" cy="55.006" r="25.749" gradientTransform="matrix(-.8999 -.3785 -.2094 .5071 227.384 53.015)" gradientUnits="userSpaceOnUse"><stop offset=".699" style="stop-color:#6d4c41;stop-opacity:0"/><stop offset="1" style="stop-color:#6d4c41"/></radialGradient><path style="fill:url(#l)" d="M77.16 5.09c6.3 1.7 9.37 4.91 10.39 9.19.3 1.26.66 12.97-21.71-.34-8.32-4.95-6.05-8.05-5.07-8.41 3.81-1.37 9.34-2.35 16.39-.44z"/><radialGradient id="m" cx="45.733" cy="119.915" r="7.688" gradientTransform="matrix(.9596 0 0 -1.1738 2.628 152.094)" gradientUnits="userSpaceOnUse"><stop offset=".702" style="stop-color:#6d4c41;stop-opacity:0"/><stop offset="1" style="stop-color:#6d4c41"/></radialGradient><path style="fill:url(#m)" d="M43.34 4.41c-.01.01-.03.01-.05.02-.8.34-7.09 3.25-4.74 10.54l6.7 1.08c-5.93-6-1.88-11.65-1.88-11.65s-.02.01-.03.01z"/><radialGradient id="n" cx="44.198" cy="92.57" r="14.419" gradientTransform="matrix(-.9266 -.2493 -.2334 .8672 108.055 -44.898)" gradientUnits="userSpaceOnUse"><stop offset=".66" style="stop-color:#6d4c41;stop-opacity:0"/><stop offset="1" style="stop-color:#6d4c41"/></radialGradient><path style="fill:url(#n)" d="m42.68 15.64-4.14-.67c-.16 0-.71.05-1.01.09-2.33.32-5.08 1.53-6.56 4.61-1.6 3.32-1.55 6.17-1.12 8.07.12.64.39 1.35.39 1.35s2.05-1.94 6.92-2.07l5.52-11.38z"/><radialGradient id="o" cx="40.051" cy="91.014" r="15.138" gradientTransform="matrix(.9506 .1308 .1838 -1.3358 -12.58 154.054)" gradientUnits="userSpaceOnUse"><stop offset=".598" style="stop-color:#6d4c41;stop-opacity:0"/><stop offset="1" style="stop-color:#6d4c41"/></radialGradient><path style="fill:url(#o)" d="M30.03 29.27c-2.04 1.81-4.78 5.84-2.76 10.85 1.53 3.77 6.96 5.41 6.96 5.41 0 .02 1.09.34 1.65.34l1.27-18.84c-2.6 0-5.11.78-6.73 1.91.02.03-.4.31-.39.33z"/></svg>