<svg xmlns="http://www.w3.org/2000/svg" viewBox="0 0 128 128" style="enable-background:new 0 0 128 128" xml:space="preserve"><path style="fill:#37474f" d="M30.61 103.51c.41-.39 6.81-6.68 10.54-10.2 0 0-8.01-3.25-10.98-3.74l-1.66 14.68c1.01.15 1.69-.35 2.1-.74z"/><path style="fill:#546e7a" d="M104.75 90.37s4.96 1.49 7.82 3.76c2.87 2.27.38 6.37.38 6.37-6.35-2.06-12.52-2.76-12.52-2.76l4.32-7.37z"/><path style="fill:#874d36" d="m5.26 74.46.18 20.98c.01.66.3 1.29.82 1.7 7.98 6.26 18 7.08 22.27 7.12 1.17.01 2.12-.9 2.19-2.06l.58-10.65c17.83 4.35 20.57 19.57 37.59 25.95 25.06 9.4 49.72 4 53.63-3.4 0 0 .81-5.56-.55-7.99-.54-.97-112.55-32.87-116.71-31.65z"/><path style="fill:#ffcc80" d="M117.98 113.68c-4.25 2.96-24.45 8.27-47.5 0-13.64-4.89-18.31-18.34-33.39-24.96-5.17-2.27-12.51-4.12-17.95-5.65-5.43-1.53-10.86-4.25-13.89-9.02.18-2.68 2.93-3.54 5.49-4.34 12.16-3.78 25.44-.87 37.21 3.98C63.5 80.1 70.75 89.13 82.81 93.2c9.12 3.08 18.78 4.1 28.12 6.42 13.31 3.29 13.79 9.36 7.05 14.06z"/><path style="fill:#de7340" d="M22.63 69.98c7.36 0 15.62 1.87 24.57 5.56C54.8 78.67 60.29 82.4 65.61 86c5.29 3.59 10.3 6.98 16.57 9.1 5.74 1.94 11.73 3.09 17.52 4.2 3.55.68 7.22 1.39 10.76 2.26 5.71 1.41 9.36 3.52 9.75 5.65.26 1.4-.97 3.16-3.37 4.84-1.9 1.33-9.55 4.06-21.07 4.06-8.36 0-16.64-1.45-24.6-4.31-6.45-2.31-10.86-6.76-15.53-11.48-4.87-4.92-9.91-10-17.73-13.44-4.4-1.94-10.16-3.52-15.23-4.92-1.04-.29-2.04-.56-2.98-.83-6.97-1.97-12.43-5.09-12.43-7.11 0-.25.26-2.44 9.63-3.66l.32-.04c1.74-.22 3.56-.34 5.41-.34m0-2c-1.91 0-3.81.12-5.69.37-2.09.28-11.71 1.33-11.68 5.7 0 4.47 9.89 7.89 13.89 9.02 5.43 1.53 12.78 3.38 17.95 5.65 15.07 6.63 19.75 20.07 33.39 24.96a75.035 75.035 0 0 0 25.28 4.42c11.29 0 19.66-2.64 22.22-4.42 6.74-4.7 6.26-10.77-7.04-14.06-9.34-2.31-19-3.34-28.12-6.42-12.06-4.07-19.3-13.1-34.86-19.51-8.03-3.31-16.75-5.71-25.34-5.71z"/><path style="fill:#de7340" d="M87.99 118.11s.52-9.04 4.27-14.08c2.93-3.93 9.26-7.58 15.02-9.35 2.51-.77 6.42-.8 6.42-.8-4.41-3.52-17.74-9.08-22.87-9.08-9.8-.01-18.84 5.21-22.71 11.91-2.32 4.02-2.68 10.33-2.22 13.73-.01 0 3.39 5.68 22.09 7.67z"/><path style="fill:#753d29" d="M86.99 118.19c-.04-.44-.91-12.79 10.49-20.59 6.59-4.51 11.01-4.99 14.8-4.39 4.12.65 1.71 7.28 1.71 7.28l-2.33-.69s1.58-4.37-.45-4.62c-1.21-.15-6.76.1-12.61 4.1-10.38 7.11-9.65 18.34-9.62 18.73l-1.99.18z"/><path style="fill:#f2aa7b" d="M72.56 97.32c5.24-4.63 5.72-.73 10.02-.09 1.09.16 2.21.17 3.3.36 2.92.45 3.65 2.83 2.26 5.27-1.07 1.85-2.49 4.48-4.85 4.59-.82-.02-1.56-.48-2.28-.88-2.72-1.49-5.27-1.64-8.37-1.61-5.33.06-2.2-5.77-.08-7.64z"/></svg>