<svg xmlns="http://www.w3.org/2000/svg" viewBox="0 0 128 128" style="enable-background:new 0 0 128 128" xml:space="preserve"><path style="fill:#eaa700" d="m31.22 4.78 92.16 92.16c.87.87.87 2.29 0 3.17l-21.84 21.84c-.87.87-2.29.87-3.17 0L6.21 29.79c-.87-.87-.87-2.29 0-3.17L28.05 4.78c.87-.88 2.29-.88 3.17 0z"/><path style="fill:#bf8400" d="m31.22 4.78 88.04 88.04c.87.87-19.07 19.47-19.95 20.34l1.01 9.41s-1.08.25-1.95-.63L6.21 29.79c-.87-.87-.87-2.29 0-3.17L28.05 4.78c.87-.88 2.29-.88 3.17 0z"/><linearGradient id="a" gradientUnits="userSpaceOnUse" x1="58.7" y1="72.594" x2="58.7" y2="40.297" gradientTransform="scale(-1 1) rotate(-45 -8.302 213.424)"><stop offset=".546" style="stop-color:#fdd835"/><stop offset=".893" style="stop-color:#f9a825"/></linearGradient><path style="fill:url(#a)" d="m31.22 4.78 89.69 89.69 2.86 2.86s-2.7.14-5.99 3.42-16.4 16.4-16.4 16.4c-.87.87-2.29.87-3.17 0L8.52 27.47c-.87-.87-.87-2.29 0-3.17L28.05 4.78c.87-.88 2.29-.88 3.17 0z"/><path style="fill:#795548" d="M72.17 56.85a.79.79 0 0 1-1.12 0l-1.71-1.71a.79.79 0 0 1 0-1.12l5.14-5.14 2.83 2.83-5.14 5.14z"/><linearGradient id="b" gradientUnits="userSpaceOnUse" x1="74.444" y1="51.812" x2="75.653" y2="50.509"><stop offset="0" style="stop-color:#5d4037;stop-opacity:0"/><stop offset="1" style="stop-color:#5d4037"/></linearGradient><path style="fill:url(#b)" d="m77.73 51.29-1.99 1.99-2.83-2.83 1.99-1.99z"/><path style="fill:#795548" d="M53.34 38.02a.79.79 0 0 1-1.12 0l-1.71-1.71a.79.79 0 0 1 0-1.12l5.14-5.14 2.83 2.83-5.14 5.14z"/><linearGradient id="c" gradientUnits="userSpaceOnUse" x1="55.618" y1="32.986" x2="56.827" y2="31.683"><stop offset="0" style="stop-color:#5d4037;stop-opacity:0"/><stop offset="1" style="stop-color:#5d4037"/></linearGradient><path style="fill:url(#c)" d="m58.9 32.46-1.99 1.99-2.83-2.82 1.99-2z"/><path style="fill:#795548" d="M41.32 31.92a.79.79 0 0 1-1.12 0l-2.42-2.42a.79.79 0 0 1 0-1.12l8.52-8.52 3.54 3.54-8.52 8.52z"/><linearGradient id="d" gradientUnits="userSpaceOnUse" x1="46.193" y1="23.584" x2="47.418" y2="22.265"><stop offset="0" style="stop-color:#5d4037;stop-opacity:0"/><stop offset="1" style="stop-color:#5d4037"/></linearGradient><path style="fill:url(#d)" d="m49.84 23.4-1.99 1.99-3.54-3.53 2-1.99z"/><path style="fill:#795548" d="M91 75.67a.79.79 0 0 1-1.12 0l-1.71-1.71a.79.79 0 0 1 0-1.12l5.14-5.14 2.83 2.83L91 75.67z"/><linearGradient id="e" gradientUnits="userSpaceOnUse" x1="93.27" y1="70.638" x2="94.479" y2="69.335"><stop offset="0" style="stop-color:#5d4037;stop-opacity:0"/><stop offset="1" style="stop-color:#5d4037"/></linearGradient><path style="fill:url(#e)" d="m96.55 70.11-1.99 2-2.83-2.83 2-1.99z"/><path style="fill:#795548" d="M109.82 94.5a.79.79 0 0 1-1.12 0l-1.71-1.71a.79.79 0 0 1 0-1.12l5.14-5.14 2.83 2.83-5.14 5.14z"/><linearGradient id="f" gradientUnits="userSpaceOnUse" x1="112.095" y1="89.463" x2="113.304" y2="88.161"><stop offset="0" style="stop-color:#5d4037;stop-opacity:0"/><stop offset="1" style="stop-color:#5d4037"/></linearGradient><path style="fill:url(#f)" d="m115.38 88.94-1.99 1.99-2.83-2.83 1.99-1.99z"/><path style="fill:#795548" d="M60.15 50.75a.79.79 0 0 1-1.12 0l-2.42-2.42a.79.79 0 0 1 0-1.12l8.52-8.52 3.54 3.54-8.52 8.52z"/><linearGradient id="g" gradientUnits="userSpaceOnUse" x1="65.019" y1="42.41" x2="66.244" y2="41.092"><stop offset="0" style="stop-color:#5d4037;stop-opacity:0"/><stop offset="1" style="stop-color:#5d4037"/></linearGradient><path style="fill:url(#g)" d="m68.67 42.23-1.99 1.99-3.54-3.53 1.99-2z"/><path style="fill:#795548" d="M78.98 69.57a.79.79 0 0 1-1.12 0l-2.42-2.42a.79.79 0 0 1 0-1.12l8.52-8.52 3.54 3.54-8.52 8.52z"/><linearGradient id="h" gradientUnits="userSpaceOnUse" x1="83.847" y1="61.238" x2="85.072" y2="59.919"><stop offset="0" style="stop-color:#5d4037;stop-opacity:0"/><stop offset="1" style="stop-color:#5d4037"/></linearGradient><path style="fill:url(#h)" d="m87.5 61.06-2 1.99-3.53-3.54 1.99-1.99z"/><path style="fill:#795548" d="M97.8 88.4a.79.79 0 0 1-1.12 0l-2.42-2.42a.79.79 0 0 1 0-1.12l8.52-8.52 3.54 3.54-8.52 8.52z"/><linearGradient id="i" gradientUnits="userSpaceOnUse" x1="102.671" y1="80.062" x2="103.896" y2="78.744"><stop offset="0" style="stop-color:#5d4037;stop-opacity:0"/><stop offset="1" style="stop-color:#5d4037"/></linearGradient><path style="fill:url(#i)" d="m106.32 79.88-1.99 1.99-3.54-3.53 1.99-1.99z"/><path style="fill:#795548" d="M34.52 19.19a.79.79 0 0 1-1.12 0l-1.71-1.71a.79.79 0 0 1 0-1.12l5.14-5.14 2.83 2.83-5.14 5.14z"/><linearGradient id="j" gradientUnits="userSpaceOnUse" x1="36.792" y1="14.16" x2="38.001" y2="12.857"><stop offset="0" style="stop-color:#5d4037;stop-opacity:0"/><stop offset="1" style="stop-color:#5d4037"/></linearGradient><path style="fill:url(#j)" d="m40.08 13.64-2 1.99-2.82-2.83 1.99-1.99z"/><path style="fill:#795548" d="M34.52 19.19a.79.79 0 0 1-1.12 0l-1.71-1.71a.79.79 0 0 1 0-1.12l5.14-5.14 2.83 2.83-5.14 5.14z"/><linearGradient id="k" gradientUnits="userSpaceOnUse" x1="36.792" y1="14.16" x2="38.001" y2="12.857"><stop offset="0" style="stop-color:#5d4037;stop-opacity:0"/><stop offset="1" style="stop-color:#5d4037"/></linearGradient><path style="fill:url(#k)" d="m40.08 13.64-2 1.99-2.82-2.83 1.99-1.99z"/></svg>