<svg xmlns="http://www.w3.org/2000/svg" viewBox="0 0 1000 1000"><path fill="#078930" d="M8 195.25c170.83-85.22 341.03-54.42 513.26-27.97 155.21 23.84 312.16 44.57 470.74-34.53v672c-170.83 85.22-341.03 54.42-513.26 27.97C323.53 808.88 166.58 788.15 8 867.25v-672"/><path fill="#FFF" d="M8 195.25c170.83-85.22 341.03-54.42 513.26-27.97 155.21 23.84 312.16 44.57 470.74-34.53v470.4c-170.83 85.22-341.03 54.42-513.26 27.97C323.53 607.28 166.58 586.55 8 665.65v-470.4"/><path d="M8 195.25c170.83-85.22 341.03-54.42 513.26-27.97 155.21 23.84 312.16 44.57 470.74-34.53v201.6c-170.83 85.22-341.03 54.42-513.26 27.97C323.53 338.48 166.58 317.75 8 396.85v-201.6"/><path fill="#DA121A" d="M8 430.45c170.83-85.22 341.03-54.42 513.26-27.97 155.21 23.84 312.16 44.57 470.74-34.53v201.6c-170.83 85.22-341.03 54.42-513.26 27.97C323.53 573.68 166.58 552.95 8 632.05v-201.6"/><path fill="#0F47AF" d="M8 195.25c140.66 40.71 281.08 159.74 426.07 294.8C293.48 580.83 152.57 681.08 8 867.25v-672"/><path fill="#FCDD09" d="M71.32 504.69c47 4.8 93.95 17.11 142.39 35.32-29.05-52.64-58.1-103.38-88.02-152.94v204.56l88.02-177.96c-46.99 24.03-93.97 53.01-142.39 91.02"/><path fill="#1A1A1A" opacity=".2" d="M8 195.25c170.83-85.22 341.03-54.42 513.26-27.97 155.21 23.84 312.16 44.57 470.74-34.53v672c-170.83 85.22-341.03 54.42-513.26 27.97C323.53 808.88 166.58 788.15 8 867.25v-672m31.25 19.39v604.5c306.56-128.26 611.18 96.04 921.5-33.78v-604.5c-306.56 128.26-611.18-96.04-921.5 33.78"/></svg>