<svg xmlns="http://www.w3.org/2000/svg" viewBox="0 0 128 128" style="enable-background:new 0 0 128 128" xml:space="preserve"><radialGradient id="a" cx="119.387" cy="354.849" r="7.386" gradientTransform="matrix(.9353 -.3538 .3569 .9436 -221.39 -255.643)" gradientUnits="userSpaceOnUse"><stop offset=".376" style="stop-color:#80deea;stop-opacity:0"/><stop offset="1" style="stop-color:#80deea;stop-opacity:.8"/></radialGradient><circle style="fill:url(#a)" cx="14.41" cy="36.14" r="5.6"/><radialGradient id="b" cx="126.484" cy="353.512" r="7.386" gradientTransform="matrix(.9353 -.3538 .3569 .9436 -221.387 -255.632)" gradientUnits="userSpaceOnUse"><stop offset=".376" style="stop-color:#80deea;stop-opacity:0"/><stop offset="1" style="stop-color:#80deea;stop-opacity:.8"/></radialGradient><circle style="fill:url(#b)" cx="20.57" cy="32.38" r="5.6"/><path style="fill:#ba8d68" d="M38.99 70.04s-1.37-4.86.36-6.33c.66-.56.92-.46 2.88-1.91 3.35-2.48 3.37-4.75 2.83-6.51-.16-.54-.37-1.04-.56-1.48-.26-.61-.45-1.1-.39-1.48.05-.3 1.85-2.37.97-3.29-1.18-1.23-4.46-.97-5.06-2.37-.19-.34-.57-1.59-.62-1.76-.47-1.4-1.49-3.15-2.84-4.71-3.72-4.3-8.87-6.3-14.61-3.92-5.14 2.15-8.81 8.77-8.79 14.34.01 3.57 5.97 9.64 10.49 12.13 2.17 1.19 3.45 2.83 4.2 4.42l11.14 2.87z"/><path style="fill:#5d4037" d="M42.24 56.09c1.04.09 1.99-.23 2.81-.8-.16-.54-.37-1.04-.56-1.48-.62.51-1.52.93-2.13 1.04-1.13.17-1.26 1.15-.12 1.24z"/><path style="fill:#49362e" d="M38.65 48.97c-.11-.07-.42-.14-.51.09-.49 1.24-1.52 1.42-2.7 1.66-.16.03-.35.1-.39.26-.06.22.07.39.27.49.78.39 2.19.2 3.02-.23.51-.26.81-.68.75-1.26-.08-.61-.21-.85-.44-1.01z"/><path style="fill:#613e31" d="M35.99 46.91c1.32-.23 1.22-1.12.53-1.55-.51-.31-1.39-.35-2.61.58-1.15.87-1.31 1.86-1.44 2.48s.13 1.04.45.93c.43-.14 1.44-2.15 3.07-2.44z"/><path style="fill:#543930" d="M9.94 52.07c-.52-4.08 1.63-6.59 2.38-7.33-.26-1.45-.71-7.2 7.58-10.15 2.02-.72 3.86-.59 5.48-.47.7.05 1.36.1 1.93.06.47-.03 1.2-.23 1.64-.71 1-1.08-.42-2.72-.42-2.72s4.97-1.6 5.44 3.8c1.87-.17 3.45 1.04 4.55 2.39 1.5 1.85 1.58 4.35.1 6.32 0 0-1.43-3.51-6.08-.69-1.44.88-2.85 1.96-4.53 2.17-.64.08-1.31.02-1.95.05-.12.06-.19.1-.19.1-1.27 1.96 3.46 4.89 2.83 8.49-.13.71-.56.71-.56.71l-1.46-.73c-1.06-.47-2-.87-2.66-.28-1.97 1.73.65 5.51 3.8 4.92.31-.06 2.17 4.74-3.34 7.79-2.85 1.58-5.16-.23-5.16-.23s1.38-.37 1.07-1.55c-.16-.61-1.05-1.06-2.38-1.36-3.83-.87-4.36-4-4.43-5.02-.81-.52-3.24-2.36-3.64-5.56z"/><radialGradient id="c" cx="-2458" cy="315.332" r="8.223" gradientTransform="matrix(-.6527 .7576 -1.0911 -.94 -1236.884 2217.762)" gradientUnits="userSpaceOnUse"><stop offset=".45" style="stop-color:#6d4c41;stop-opacity:0"/><stop offset="1" style="stop-color:#6d4c41"/></radialGradient><path style="fill:url(#c)" d="M13.59 57.65c-.1-.06 1.91 1.59 5.36-.78 1.5-.83 5.58 1.62 4.71 5.21-.77 3.18-4.33 3.49-4.33 3.49s.46-.1.92-.62c.3-.34.16-.9.16-.92-.16-.61-1.05-1.06-2.38-1.36-3.84-.86-4.37-4-4.44-5.02z"/><radialGradient id="d" cx="-2472.845" cy="327.358" r="8.335" gradientTransform="matrix(-.9319 .3627 -.4578 -1.1759 -2136.078 1334.273)" gradientUnits="userSpaceOnUse"><stop offset=".45" style="stop-color:#6d4c41;stop-opacity:0"/><stop offset="1" style="stop-color:#6d4c41"/></radialGradient><path style="fill:url(#d)" d="M9.94 52.07c-.27-2.15.19-4.34 1.4-6.14.18-.26.61-.89.99-1.19.23.89.72 1.71 1.53 2.39.03.02 1.12 1.09 2.78 1.51-.19 1.55.15 3.12.51 4.65.31 1.33.69 2.78 1.8 3.58-.72.34-1.72 1.15-3.25 1.28-1.46.12-2.82-.89-3.78-1.94-1.05-1.15-1.79-2.58-1.98-4.14z"/><radialGradient id="e" cx="-2482.571" cy="317.249" r="17.155" gradientTransform="matrix(-.9387 .3448 -.2592 -.7055 -2222.892 1125.08)" gradientUnits="userSpaceOnUse"><stop offset=".45" style="stop-color:#6d4c41;stop-opacity:0"/><stop offset="1" style="stop-color:#6d4c41"/></radialGradient><path style="fill:url(#e)" d="M13.86 47.13c-2.13-1.77-2.04-4.53-.93-6.95 1.3-2.84 4.12-4.57 6.96-5.58 2.02-.72 3.86-.59 5.48-.47.7.05 1.36.1 1.93.06.47-.03 1.2-.23 1.64-.71 1-1.08-.42-2.72-.42-2.72s4.97-1.6 5.44 3.8c1.87-.17 3.45 1.04 4.55 2.39 1.5 1.85 1.58 4.35.1 6.32 0 0-1.43-3.51-6.08-.69-1.44.88-2.85 1.96-4.53 2.17-1.48.18-2.25-.25-3.57.58-1.42.89-3.06 2.53-4.69 3.13-3.28 1.23-5.84-1.3-5.88-1.33z"/><radialGradient id="f" cx="-2459.86" cy="284.794" r="9.235" gradientTransform="matrix(-.7283 .6851 -.4405 -.4683 -1644.076 1879.7)" gradientUnits="userSpaceOnUse"><stop offset=".45" style="stop-color:#6d4c41;stop-opacity:0"/><stop offset="1" style="stop-color:#6d4c41"/></radialGradient><path style="fill:url(#f)" d="M23.66 62.09c.4-1.58-.29-3.44.74-5.21.84.84 2.08 1.39 3.42 1.14.31-.06 2.17 4.74-3.34 7.79-2.85 1.58-5.16-.23-5.16-.23s3.52-.31 4.34-3.49z"/><radialGradient id="g" cx="147.797" cy="474.424" r="4.358" gradientTransform="rotate(-19.519 -1192.168 601.909)" gradientUnits="userSpaceOnUse"><stop offset=".261" style="stop-color:#80deea;stop-opacity:0"/><stop offset="1" style="stop-color:#80deea;stop-opacity:.8"/></radialGradient><circle style="fill:url(#g)" cx="28.09" cy="34.05" r="3.93"/><radialGradient id="h" cx="136.596" cy="482.251" r="4.358" gradientTransform="rotate(-19.519 -1192.168 601.909)" gradientUnits="userSpaceOnUse"><stop offset=".261" style="stop-color:#80deea;stop-opacity:0"/><stop offset="1" style="stop-color:#80deea;stop-opacity:.8"/></radialGradient><circle style="fill:url(#h)" cx="20.15" cy="45.17" r="3.93"/><radialGradient id="i" cx="5.494" cy="41.884" r="7.287" gradientTransform="rotate(-45.757 10.913 32.602)" gradientUnits="userSpaceOnUse"><stop offset=".261" style="stop-color:#80deea;stop-opacity:0"/><stop offset="1" style="stop-color:#80deea;stop-opacity:.8"/></radialGradient><circle style="fill:url(#i)" cx="13.58" cy="43.04" r="6.57"/><radialGradient id="j" cx="14.809" cy="44.189" r="7.502" gradientTransform="rotate(-45.757 10.913 32.602)" gradientUnits="userSpaceOnUse"><stop offset=".261" style="stop-color:#80deea;stop-opacity:0"/><stop offset="1" style="stop-color:#80deea;stop-opacity:.8"/></radialGradient><circle style="fill:url(#j)" cx="21.73" cy="37.98" r="6.76"/><path style="opacity:.8;fill:#fff" d="M10.75 45.1c.04.25.07.51.01.75-.06.24-.24.47-.49.53-1.9.44-2.93-4.32-1.76-5.36.78-.69 2.02-.22 2 .78-.02 1.17.05 2.12.24 3.3zm9.42-9.93a5.81 5.81 0 0 0-1.31 2.38c-.08.3-.14.61-.3.87-.16.26-.46.47-.76.41-.3-.05-.51-.35-.62-.63-.65-1.71.86-3.52 2-4.65.4-.39.94-.87 1.46-.41.74.67.01 1.5-.47 2.03zm-8.02-1.25c-.44.36-.72.88-1 1.37-.12.21-.27.45-.51.49-.21.04-.43-.09-.54-.27-.12-.18-.15-.4-.15-.62-.02-1.4 1-2.54 2.27-3.02.5-.18 1.01-.11 1.15.5.18.8-.73 1.15-1.22 1.55z"/><path style="fill:#bdbdbd" d="M117.34 17.56c.12-4.96-2.09-9.62-5.95-11.85-5.8-3.35-12.44-1.66-15.71 4l-1.53 2.59 3.44 1.95 1.33-2.33c2.22-3.85 6.58-4.98 10.43-2.76 2.49 1.44 4.12 4.35 4.03 8.32v61.58l3.97-.02V17.56z"/><radialGradient id="k" cx="54.093" cy="77.204" r="5.6" gradientTransform="matrix(.9874 .0919 -.0919 .9874 18.778 -8.803)" gradientUnits="userSpaceOnUse"><stop offset=".22" style="stop-color:#80deea;stop-opacity:0"/><stop offset="1" style="stop-color:#80deea;stop-opacity:.8"/></radialGradient><circle style="fill:url(#k)" cx="64.96" cy="72.32" r="5"/><radialGradient id="l" cx="231.897" cy="464.235" r="6.332" gradientTransform="rotate(31.553 855.557 59.243) scale(.9916)" gradientUnits="userSpaceOnUse"><stop offset=".261" style="stop-color:#80deea;stop-opacity:0"/><stop offset="1" style="stop-color:#80deea;stop-opacity:.8"/></radialGradient><circle style="fill:url(#l)" cx="112.47" cy="73.52" r="5.66"/><radialGradient id="m" cx="64.413" cy="77.757" r="8.834" gradientTransform="matrix(.9874 .0919 -.0919 .9874 18.778 -8.803)" gradientUnits="userSpaceOnUse"><stop offset=".304" style="stop-color:#80deea;stop-opacity:0"/><stop offset="1" style="stop-color:#80deea;stop-opacity:.8"/></radialGradient><circle style="fill:url(#m)" cx="75.14" cy="73.25" r="7.89"/><radialGradient id="n" cx="76.107" cy="73.007" r="10.587" gradientTransform="matrix(.9874 .0919 -.0919 .9874 18.778 -8.803)" gradientUnits="userSpaceOnUse"><stop offset=".261" style="stop-color:#80deea;stop-opacity:0"/><stop offset="1" style="stop-color:#80deea;stop-opacity:.8"/></radialGradient><circle style="fill:url(#n)" cx="86.95" cy="70.12" r="9.46"/><radialGradient id="o" cx="90.785" cy="76.468" r="10.9" gradientTransform="matrix(.9874 .0919 -.0919 .9874 18.778 -8.803)" gradientUnits="userSpaceOnUse"><stop offset=".261" style="stop-color:#80deea;stop-opacity:0"/><stop offset="1" style="stop-color:#80deea;stop-opacity:.8"/></radialGradient><circle style="fill:url(#o)" cx="101.12" cy="74.88" r="9.74"/><radialGradient id="p" cx="195.786" cy="343.28" r="9.645" gradientTransform="matrix(.8557 .5011 -.5055 .8633 104.112 -334.33)" gradientUnits="userSpaceOnUse"><stop offset=".376" style="stop-color:#80deea;stop-opacity:0"/><stop offset="1" style="stop-color:#80deea;stop-opacity:.8"/></radialGradient><circle style="fill:url(#p)" cx="97.94" cy="59.69" r="8.07"/><path style="fill:#78909c" d="M100.53 9.89c-.6-1.22-2.31-2.16-3.44-2.16-.79 0-1.18.5-1.71 1.41-.52.9-.21 2.06.69 2.58l1.64.94c.9.52 2.06.21 2.58-.69.52-.9.57-1.41.24-2.08z"/><path style="fill:#bdbdbd" d="M98.06 10.6c-4.32-2.49-10.18-.43-12.69 3.85 0 0 2.53 3.31 7.25 5.95s8.45 3.11 8.45 3.11c2.45-4.31 1.31-10.41-3.01-12.91z"/><path style="fill:#78909c" d="M99.05 25.62s-3.61-.59-8.16-3.4-6.71-5.18-6.71-5.18c-.74-.77-1.22-1.68-.69-2.59.52-.91 1.94-1.38 2.59-.69 0 0 1.94 2.54 6.73 5.19 5.17 2.86 8.14 3.39 8.14 3.39 1.17.27 1.22 1.68.69 2.59-.52.91-1.9.93-2.59.69z"/><path style="fill:#dfecf5" d="M88.97 13.18c.43-1.51 2.8-2.56 4.43-2.76 1.58-.2 2.54.29 2.53 1.12-.01.79-.93 1.04-1.59 1.03-2.33-.05-3.23.46-3.63.69-1.74.98-1.78.08-1.74-.08z"/><radialGradient id="q" cx="71.058" cy="52.781" r="6.27" gradientTransform="matrix(.9874 .0919 -.0919 .9874 18.778 -8.803)" gradientUnits="userSpaceOnUse"><stop offset=".376" style="stop-color:#80deea;stop-opacity:0"/><stop offset="1" style="stop-color:#80deea;stop-opacity:.8"/></radialGradient><circle style="fill:url(#q)" cx="83.27" cy="48.95" r="6.01"/><path style="opacity:.8;fill:#fff" d="M78.98 48.21c.5-.02.92-.77 1.82-1.46.82-.62 2.01-.92 2.73-.96.4-.02.97-.15 1.2-.57.13-.24-.08-1.42-1.76-1.19-1.98.27-3.72 1.57-4.16 2.75-.28.78-.31 1.44.17 1.43z"/><path style="fill:#eee" d="M13.06 75.92c5.32 20.33 4.89 36.85 23.12 36.85l66.2.48c20.91-.25 14.58-27.44 19.51-37.18-16.68 1.77-31.8 2.05-50.2.83-13.07-.86-24.37-9.25-36.93-12.07-8.67-1.31-18.27-3.35-26.74-.5 2.12 3.66 3.81 7.55 5.04 11.59z"/><path style="fill:#b7d5e5" d="M114.23 82.29c-2.66 1.54-2.83 7.53-2.54 10.72.8 8.98-.04 14.4-4.26 16.32-.01-.33-.07-.7-.24-1.12-.56-1.4-1.84-2.64-3.35-2.65-2.92-.02-3.89 1.13-5.56 2.39-1.2.91-2.72 2.02-4.9 2.27l-48.63-.35c-1.97-.12-3.66-1.23-4.86-2.14-1.88-1.43-2.51-1.91-4.95-2.41-1.48-.3-2.79.65-3.34 2.05-.31.77-.35 1.4-.19 1.91-11.91-1.61-11.32-27.76-17.74-40.29-2.08-4.06-5.03-3.56-4.82-3.19 1.74 3.23 3.16 6.63 4.23 10.14 5.32 20.33 4.89 36.85 23.12 36.85l66.2.48c14.95-.18 16.86-14.27 17.89-31.59.07-1.45-4.82-.11-6.06.61z"/><path style="fill:#69a1ba" d="M10.41 69.03c4.95-1.03 10.06-.11 11.59.22 14.95 3.23 24.77 9.51 42.52 13.43 19.71 4.35 42.22 3.06 55.68.1 0 0 .52-3.58.97-4.95 0 0-27.73 3.6-46.03 1.35-19.12-2.35-41.06-13.02-53.83-14.58-9.66-1.18-12.82.78-12.82.78l1.92 3.65z"/><path style="fill:#bdbdbd" d="M33 105.34c-2.41-.3-2.84 2.8-2.84 2.8s-1.45-1.82-3.85-1.24c-1.47.36-1.99 2.2-1.35 2.68 1.14.86 4.95 2.78 3.81 5.5-.44 1.06-1.65 1.37-2.81 1.89-2.66 1.2-3.7 3.18-3.96 4.45-.06.3-.08.77.6 1.13s1.93.7 5.12.7 5.43-.59 5.78-1.06c1.16-1.58-1-4.69 1.41-7.77.98-1.26 1.76-1.04 4.22-1.62.6-.14.49-1.67-.34-2.66-.64-.77-2.63-1.15-3.9-.46 0 0 1.09-3.97-1.89-4.34z"/><path style="fill:#78909c" d="M39.61 110c-1.54-1.68-3.73-.82-4.12-.61.29-.16.14-1.65.1-1.9-.18-1.18-1.23-2.03-2.45-2.13 2.45 1.26.96 4.72.96 4.72s.72-.23 1.76-.43c1.19-.22 2.69.13 2.85 1.7.08.75-1.22 1.02-1.68 1.16-3.38 1-3.66 2.73-4.01 4.02-.34 1.25.55 3.35-.12 4.61-.88 1.66-4.34 1.73-6.9 1.38-1.98-.27-4-1.1-4-1.1s-.12 1 .6 1.41c3.39 1.92 9.51 1.14 11.33.08.27-.16.45-.38.51-.69.09-.52.16-1.46-.21-2.95-.38-1.54-.18-3.21.88-4.48.93-1.11 1.75-1.27 4.15-1.54 1.54-.17 1.22-2.31.35-3.25z"/><path style="fill:#dfecf5" d="M26.48 117.41c1.4-.47 3.15-.44 2.94.63-.12.61-.85.93-1.64 1.17-.83.24-2.45.34-2.58-.24-.16-.73.42-1.28 1.28-1.56z"/><path style="fill:#b7d5e5" d="M87.99 81.1c-7.04 0-21.7 0-39-6.67-10.29-3.96-27.25-11.19-41.46-8.05-1.61.35-3.19-.66-3.55-2.27-.35-1.6.66-3.19 2.27-3.55 16.03-3.53 33.97 4.41 45 8.36 16.89 6.05 30.55 6.2 37.05 6.22 10.93-.03 21.62-.23 32.22-2.43 1.61-.34 3.18.7 3.52 2.31.33 1.61-.7 3.18-2.31 3.52-11.14 2.31-22.16 2.53-33.41 2.55-.12.01-.22.01-.33.01z"/><path style="fill:#fff" d="M31.2 77.94c1.24 2.33 1.37 5.09 1.18 7.72s-.66 5.26-.49 7.9c.15 2.34 2.16 6.24 2.3 7.65.1.95-.77 1.81-1.73 1.9-.95.09-1.87-.38-2.65-.94-3.24-2.35-4.95-6.29-5.88-10.19-1.26-5.3-2.6-10.34-3.27-12.08-1.94-5.02 1.27-7.27 5.09-6.29 2.3.6 4.33 2.24 5.45 4.33z"/><path style="fill:#bdbdbd" d="M105.01 105.34c2.41-.3 2.84 2.8 2.84 2.8s1.45-1.82 3.85-1.24c1.47.36 1.74 2.3 1.23 2.75-1.21 1.04-4.83 2.71-3.69 5.43.44 1.06 1.65 1.37 2.81 1.89 2.66 1.2 3.7 3.18 3.96 4.45.06.3.08.77-.6 1.13-.68.36-1.93.7-5.12.7s-5.43-.59-5.78-1.06c-1.16-1.58 1-4.69-1.41-7.77-.98-1.26-1.76-1.04-4.22-1.62-.6-.14-.49-1.67.34-2.66.64-.77 2.63-1.15 3.9-.46 0 0-1.09-3.97 1.89-4.34z"/><path style="fill:#78909c" d="M98.4 110c1.54-1.68 3.73-.82 4.12-.61-.29-.16-.14-1.65-.1-1.9.18-1.18 1.23-2.03 2.45-2.13-2.45 1.26-.96 4.72-.96 4.72s-.72-.23-1.76-.43c-1.19-.22-2.69.13-2.85 1.7-.08.75 1.22 1.02 1.68 1.16 3.38 1 3.66 2.73 4.01 4.02.34 1.25-.55 3.35.12 4.61.88 1.66 4.34 1.73 6.9 1.38 1.98-.27 4-1.1 4-1.1s.12 1-.6 1.41c-3.39 1.92-9.51 1.14-11.33.08-.27-.16-.45-.38-.51-.69-.09-.52-.16-1.46.21-2.95.38-1.54.18-3.21-.88-4.48-.93-1.11-1.75-1.27-4.15-1.54-1.54-.17-1.22-2.31-.35-3.25z"/><path style="fill:#dfecf5" d="M107.83 117.35c-.83.7-1.61 2.08-.96 2.85.27.32 1.15-.42 1.36-.6.55-.49 1.02-.84 1.59-1.31.25-.21.46-.5.39-.82-.16-.72-1.69-.7-2.38-.12z"/><path style="opacity:.8;fill:#fff" d="M82.14 68.06c-.3.21-.61.42-.97.49s-.77-.01-1-.29c-1.78-2.17 3.71-6.54 5.8-5.69 1.38.56 1.58 2.46.27 3.09-1.52.71-2.7 1.4-4.1 2.4z"/><path style="fill:#fff" d="M93.55 59.15c-.44-.07-.84-.43-1.01-.85-.21-.54-.12-1.15.07-1.69.46-1.31 1.54-2.41 2.86-2.84.36-.12.74-.19 1.12-.13.61.1 1.13.58 1.29 1.18.42 1.59-1.24 1.72-2.12 2.48-.63.54-.96 1.67-1.87 1.85a.97.97 0 0 1-.34 0zm-80.2 3.5c-.33 1.36 1.1 1.59 5.85 1.57 5.72-.02 9.73 1.83 9.18.59-.4-.9-4.46-3.05-7.87-3.37-2.08-.2-6.74-.46-7.16 1.21z"/></svg>