<svg xmlns="http://www.w3.org/2000/svg" viewBox="0 0 1000 1000"><path fill="#3f9c35" d="M8 195.25c170.83-85.22 341.03-54.42 513.26-27.97 155.21 23.84 312.16 44.57 470.74-34.53v672c-170.83 85.22-341.03 54.42-513.26 27.97C323.53 808.88 166.58 788.15 8 867.25v-672"/><path fill="#ed2939" d="M8 195.25c170.83-85.22 341.03-54.42 513.26-27.97 155.21 23.84 312.16 44.57 470.74-34.53v448c-170.83 85.22-341.03 54.42-513.26 27.97C323.53 584.88 166.58 564.15 8 643.25v-448"/><path fill="#00b9e4" d="M8 195.25c170.83-85.22 341.03-54.42 513.26-27.97 155.21 23.84 312.16 44.57 470.74-34.53v224c-170.83 85.22-341.03 54.42-513.26 27.97C323.53 360.88 166.58 340.15 8 419.25v-224"/><path fill="#fff" d="M557.4 508.72c-.24 55.99-32.84 95.53-73.8 89.54-40.92-6.63-73.56-55.73-73.8-111.56.24-56 32.84-96.02 73.8-90.04 40.92 6.64 73.56 56.22 73.8 112.06"/><path fill="#ed2939" d="M561.5 509.31c-.24 46.67-27.33 79.65-61.5 74.69-34.12-5.61-61.26-46.71-61.5-93.31.24-46.67 27.33-79.65 61.5-74.69 34.12 5.61 61.26 46.71 61.5 93.31"/><path fill="#fff" d="m565.6 453.9 7.84 31.24 21.15-10.86-10.05 27.55 22.06 13.58-22.06 7.85 10.05 30.22-21.15-16.6-7.84 29.02-7.84-31.26-21.15 10.58 10.05-27.37-22.06-14.05 22.06-7.38-10.05-30.39 21.15 16.87 7.84-29"/><path fill="#1A1A1A" opacity=".2" d="M8 195.25c170.83-85.22 341.03-54.42 513.26-27.97 155.21 23.84 312.16 44.57 470.74-34.53v672c-170.83 85.22-341.03 54.42-513.26 27.97C323.53 808.88 166.58 788.15 8 867.25v-672m31.25 19.39v604.5c306.56-128.26 611.18 96.04 921.5-33.78v-604.5c-306.56 128.26-611.18-96.04-921.5 33.78"/></svg>