<svg xmlns="http://www.w3.org/2000/svg" viewBox="0 0 128 128" style="enable-background:new 0 0 128 128" xml:space="preserve"><path style="fill:#f77e00" d="M116 4H12c-4.42 0-8 3.58-8 8v104c0 4.42 3.58 8 8 8h104c4.42 0 8-3.58 8-8V12c0-4.42-3.58-8-8-8z"/><path style="fill:#ff9800" d="M109.7 4H11.5A7.555 7.555 0 0 0 4 11.5v97.9c-.01 4.14 3.34 7.49 7.48 7.5h98.12c4.14.01 7.49-3.34 7.5-7.48V11.5c.09-4.05-3.13-7.41-7.18-7.5h-.22z"/><path style="opacity:.3;fill:#fff;enable-background:new" d="M39.7 12.9c0-2.3-1.6-3-10.8-2.7-7.7.3-11.5 1.2-13.8 4-1.9 2.3-2.3 5.6-2.6 8.4-.2 2.2-2.2 14.9 3.5 11.2.68-.45 1.23-1.07 1.6-1.8 1.2-2.1 1.9-3.5 3.3-5.6 5.3-8.6 18.8-10.5 18.8-13.5z"/><path style="fill:#fafafa" d="M61.36 69.28c-13.59.02-21.02 8.56-23.08 11.35-.36.49-.35 1.18.03 1.66l3.81 4.83c.49.62 1.39.61 1.86-.02 2.1-2.78 7.93-9.16 17.37-9.19 9.44.02 15.27 6.4 17.37 9.19.48.64 1.37.65 1.86.02l3.81-4.83c.38-.48.39-1.17.03-1.66-2.04-2.78-9.47-11.33-23.06-11.35z"/><path style="fill:#fafafa" d="M61.36 48.82c-14.07.01-26.71 6-35.66 15.67-.44.48-.46 1.25-.05 1.76l3.62 4.58c.46.58 1.29.62 1.78.07 7.51-8.34 18.24-13.46 30.31-13.47 12.07.01 22.8 5.13 30.31 13.47.49.55 1.32.51 1.78-.07l3.62-4.58c.41-.51.39-1.28-.05-1.76-8.95-9.67-21.59-15.66-35.66-15.67z"/><path style="fill:#fafafa" d="M61.36 28.97c-18.61.01-35.64 7.45-48.24 19.45-.49.47-.54 1.29-.11 1.83l3.61 4.57c.44.56 1.22.61 1.73.12 11.2-10.73 26.36-17.34 43.01-17.35 16.65.01 31.81 6.63 43.01 17.35.51.49 1.29.44 1.73-.12l3.61-4.57c.43-.54.38-1.36-.11-1.83-12.6-12-29.63-19.44-48.24-19.45z"/><circle style="fill:#fafafa" cx="61.41" cy="96.87" r="8.84"/></svg>