<svg xmlns="http://www.w3.org/2000/svg" viewBox="0 0 1000 1000"><path fill="#003893" d="M8 195.25c170.83-85.22 341.03-54.42 513.26-27.97 155.21 23.84 312.16 44.57 470.74-34.53v672c-170.83 85.22-341.03 54.42-513.26 27.97C323.53 808.88 166.58 788.15 8 867.25v-672"/><path fill="#fff" d="M8 531.25c170.83-85.22 341.03-54.42 513.26-27.97 155.21 23.84 312.16 44.57 470.74-34.53v168c-170.83 85.22-341.03 54.42-513.26 27.97C323.53 640.88 166.58 620.15 8 699.25v-168"/><path fill="#cf2027" d="M8 587.25c170.83-85.22 341.03-54.42 513.26-27.97 155.21 23.84 312.16 44.57 470.74-34.53v56c-170.83 85.22-341.03 54.42-513.26 27.97C323.53 584.88 166.58 564.15 8 643.25v-56"/><path fill="#f7d116" d="M377 365.04 368.06 396l13.76 6.74-4.82-37.7"/><path fill="#f7d116" d="m377 365.04 8.94 33-13.76 3.6 4.82-36.6"/><path fill="#f7d116" d="m404.52 391.62-28.94-3.53v16.8l28.94-13.27"/><path fill="#f7d116" d="m404.52 391.62-23.41 16.86-8.51-14.56 31.92-2.3"/><path fill="#f7d116" d="m394.01 427.85-8.94-33.05-13.76 3.62 22.7 29.43"/><path fill="#f7d116" d="m394.01 427.85-23.41-22.5 8.5-12.63 14.91 35.13"/><path fill="#f7d116" d="m359.99 423.98 23.41-17.17-8.5-14.57-14.91 31.74"/><path fill="#f7d116" d="m359.99 423.98 8.94-31.01 13.76 6.74-22.7 24.27"/><path fill="#f7d116" d="m349.48 385.39 23.41 22.15 8.51-12.62-31.92-9.53"/><path fill="#f7d116" d="m349.48 385.39 28.94 3.03v16.8l-28.94-19.83M377 701.04 368.06 732l13.76 6.74-4.82-37.7"/><path fill="#f7d116" d="m377 701.04 8.94 33-13.76 3.6 4.82-36.6"/><path fill="#f7d116" d="m404.52 727.62-28.94-3.53v16.8l28.94-13.27"/><path fill="#f7d116" d="m404.52 727.62-23.41 16.86-8.51-14.56 31.92-2.3"/><path fill="#f7d116" d="m394.01 763.85-8.94-33.05-13.76 3.62 22.7 29.43"/><path fill="#f7d116" d="m394.01 763.85-23.41-22.5 8.5-12.63 14.91 35.13"/><path fill="#f7d116" d="m359.99 759.98 23.41-17.17-8.5-14.57-14.91 31.74"/><path fill="#f7d116" d="m359.99 759.98 8.94-31.01 13.76 6.74-22.7 24.27"/><path fill="#f7d116" d="m349.48 721.39 23.41 22.15 8.51-12.62-31.92-9.53"/><path fill="#f7d116" d="m349.48 721.39 28.94 3.02v16.81l-28.94-19.83M542.15 528.16l-28.94-4.42v16.8l28.94-12.38"/><path fill="#f7d116" d="m542.15 528.16-23.42 16.19-8.5-14.91 31.92-1.28"/><path fill="#f7d116" d="m531.63 564.14-8.94-33.33-13.76 3.08 22.7 30.25"/><path fill="#f7d116" d="m531.63 564.14-23.41-23.35 8.51-12.28 14.9 35.63"/><path fill="#f7d116" d="m497.61 558.9 23.42-16.13-8.51-14.91-14.91 31.04"/><path fill="#f7d116" d="m497.61 558.9 8.95-30.57 13.76 7.31-22.71 23.26"/><path fill="#f7d116" d="m487.1 519.71 23.41 23.37 8.51-12.28-31.92-11.09"/><path fill="#f7d116" d="m487.1 519.71 28.94 4.47v16.8l-28.94-21.27"/><path fill="#f7d116" d="m514.62 500.75-8.94 30.57 13.76 7.32-4.82-37.89"/><path fill="#f7d116" d="m514.62 500.75 8.95 33.33-13.76 3.07 4.81-36.4M266.9 600.87c-9.55-.07-19.1.02-28.94.32v16.8l28.94-17.12"/><path fill="#f7d116" d="m266.9 600.87-23.41 19.92-8.51-13.34c10.54-2.4 21.07-4.57 31.92-6.58"/><path fill="#f7d116" d="m256.39 638.42-8.95-31.85-13.76 5.57 22.71 26.28"/><path fill="#f7d116" d="m256.39 638.42-23.42-19.24 8.51-13.86 14.91 33.1"/><path fill="#f7d116" d="m222.37 639.42 23.41-20.61-8.51-13.37-14.9 33.98"/><path fill="#f7d116" d="m222.37 639.42 8.94-32.38 13.76 4.77-22.7 27.61"/><path fill="#f7d116" d="m211.85 602.5 23.42 18.53 8.5-13.84a720.134 720.134 0 0 0-31.92-4.69"/><path fill="#f7d116" d="M211.85 602.5c9.55-.66 19.1-1.12 28.94-1.39v16.8l-28.94-15.41"/><path fill="#f7d116" d="m239.38 577.93-8.95 32.27 13.76 4.76-4.81-37.03"/><path fill="#f7d116" d="m239.38 577.93 8.94 31.75-13.76 5.56 4.82-37.31M479.07 743.87l-8.95-33.33-13.76 3.11 22.71 30.22"/><path fill="#f7d116" d="m479.07 743.87-23.42-23.31 8.51-12.31 14.91 35.62"/><path fill="#f7d116" d="m445.04 738.74 23.42-16.25-8.51-14.88-14.91 31.13"/><path fill="#f7d116" d="m445.04 738.74 8.95-30.63 13.76 7.26-22.71 23.37"/><path fill="#f7d116" d="m434.53 699.65 23.41 23.19 8.51-12.31-31.92-10.88"/><path fill="#f7d116" d="m434.53 699.65 28.94 4.27v16.8l-28.94-21.07"/><path fill="#f7d116" d="m462.06 680.49-8.95 30.61 13.77 7.27-4.82-37.88"/><path fill="#f7d116" d="M462.06 680.49 471 713.8l-13.76 3.11 4.82-36.42"/><path fill="#f7d116" d="m489.58 707.92-28.94-4.43v16.8l28.94-12.37"/><path fill="#f7d116" d="m489.58 707.92-23.41 16.16-8.51-14.88 31.92-1.28M308.96 451.98l-8.95-32.42-13.76 4.66 22.71 27.76"/><path fill="#f7d116" d="m308.96 451.98-23.42-20.77 8.51-13.29 14.91 34.06"/><path fill="#f7d116" d="m274.93 450.71 23.42-19.02-8.51-13.93-14.91 32.95"/><path fill="#f7d116" d="m274.93 450.71 8.95-31.75 13.76 5.69-22.71 26.06"/><path fill="#f7d116" d="m264.42 413.02 23.41 20.2 8.51-13.27a916.029 916.029 0 0 0-31.92-6.93"/><path fill="#f7d116" d="m264.42 413.02 28.94.65v16.8l-28.94-17.45"/><path fill="#f7d116" d="M291.94 390.4 283 422.06l13.76 5.68-4.82-37.34"/><path fill="#f7d116" d="m291.94 390.4 8.95 32.33-13.77 4.65 4.82-36.98"/><path fill="#f7d116" d="m319.47 415.06-28.94-1.5v16.8l28.94-15.3"/><path fill="#f7d116" d="m319.47 415.06-23.41 18.47-8.51-13.91 31.92-4.56M274.93 722.54l23.42-19.02-8.51-13.93-14.91 32.95"/><path fill="#f7d116" d="m274.93 722.54 8.95-31.75 13.76 5.69-22.71 26.06"/><path fill="#f7d116" d="m264.42 684.85 23.41 20.2 8.51-13.27a916.029 916.029 0 0 0-31.92-6.93"/><path fill="#f7d116" d="m264.42 684.85 28.94.65v16.8l-28.94-17.45"/><path fill="#f7d116" d="M291.94 662.23 283 693.89l13.76 5.68-4.82-37.34"/><path fill="#f7d116" d="m291.94 662.23 8.95 32.33-13.77 4.65 4.82-36.98"/><path fill="#f7d116" d="m319.47 686.89-28.94-1.5v16.8l28.94-15.3"/><path fill="#f7d116" d="m319.47 686.89-23.41 18.47-8.51-13.91 31.92-4.56"/><path fill="#f7d116" d="m308.96 723.81-8.95-32.41-13.76 4.65 22.71 27.76"/><path fill="#f7d116" d="m308.96 723.81-23.42-20.77 8.51-13.29 14.91 34.06M445.04 466.91l23.42-16.25-8.51-14.87-14.91 31.12"/><path fill="#f7d116" d="m445.04 466.91 8.95-30.63 13.76 7.26-22.71 23.37"/><path fill="#f7d116" d="m434.53 427.82 23.41 23.19 8.51-12.31-31.92-10.88"/><path fill="#f7d116" d="m434.53 427.82 28.94 4.27v16.8l-28.94-21.07"/><path fill="#f7d116" d="m462.06 408.66-8.95 30.62 13.77 7.26-4.82-37.88"/><path fill="#f7d116" d="m462.06 408.66 8.94 33.31-13.76 3.11 4.82-36.42"/><path fill="#f7d116" d="m489.58 436.09-28.94-4.43v16.8l28.94-12.37"/><path fill="#f7d116" d="m489.58 436.09-23.41 16.16-8.51-14.88 31.92-1.28"/><path fill="#f7d116" d="m479.07 472.04-8.95-33.33-13.76 3.11 22.71 30.22"/><path fill="#f7d116" d="m479.07 472.04-23.42-23.31 8.51-12.31 14.91 35.62M211.85 498.67l23.42 18.53 8.5-13.84a720.134 720.134 0 0 0-31.92-4.69"/><path fill="#f7d116" d="M211.85 498.67c9.55-.66 19.1-1.12 28.94-1.39v16.8l-28.94-15.41"/><path fill="#f7d116" d="m239.38 474.1-8.95 32.28 13.76 4.75-4.81-37.03"/><path fill="#f7d116" d="m239.38 474.1 8.94 31.76-13.76 5.55 4.82-37.31"/><path fill="#f7d116" d="M266.9 497.04c-9.55-.07-19.1.02-28.94.32v16.8l28.94-17.12"/><path fill="#f7d116" d="m266.9 497.04-23.41 19.92-8.51-13.34c10.54-2.4 21.07-4.57 31.92-6.58"/><path fill="#f7d116" d="m256.39 534.59-8.95-31.85-13.76 5.57 22.71 26.28"/><path fill="#f7d116" d="m256.39 534.59-23.42-19.24 8.51-13.86 14.91 33.1"/><path fill="#f7d116" d="m222.37 535.59 23.41-20.61-8.51-13.37-14.9 33.98"/><path fill="#f7d116" d="m222.37 535.59 8.94-32.38 13.76 4.77-22.7 27.61M487.1 623.54l23.41 23.37 8.51-12.28-31.92-11.09"/><path fill="#f7d116" d="m487.1 623.54 28.94 4.47v16.8l-28.94-21.27"/><path fill="#f7d116" d="m514.62 604.58-8.94 30.57 13.76 7.32-4.82-37.89"/><path fill="#f7d116" d="m514.62 604.58 8.95 33.33-13.76 3.07 4.81-36.4"/><path fill="#f7d116" d="m542.15 631.99-28.94-4.42v16.8l28.94-12.38"/><path fill="#f7d116" d="m542.15 631.99-23.42 16.19-8.5-14.91 31.92-1.28"/><path fill="#f7d116" d="m531.63 667.97-8.94-33.32-13.76 3.06 22.7 30.26"/><path fill="#f7d116" d="m531.63 667.97-23.41-23.35 8.51-12.28 14.9 35.63"/><path fill="#f7d116" d="m497.61 662.73 23.42-16.13-8.51-14.91-14.91 31.04"/><path fill="#f7d116" d="m497.61 662.73 8.95-30.57 13.76 7.31-22.71 23.26"/><path fill="#1A1A1A" opacity=".2" d="M8 195.25c170.83-85.22 341.03-54.42 513.26-27.97 155.21 23.84 312.16 44.57 470.74-34.53v672c-170.83 85.22-341.03 54.42-513.26 27.97C323.53 808.88 166.58 788.15 8 867.25v-672m31.25 19.39v604.5c306.56-128.26 611.18 96.04 921.5-33.78v-604.5c-306.56 128.26-611.18-96.04-921.5 33.78"/></svg>