<svg xmlns="http://www.w3.org/2000/svg" viewBox="0 0 1000 1000"><path fill="#fff" d="M8 195.25c170.83-85.22 341.03-54.42 513.26-27.97 155.21 23.84 312.16 44.57 470.74-34.53v672c-170.83 85.22-341.03 54.42-513.26 27.97C323.53 808.88 166.58 788.15 8 867.25v-672"/><path fill="#4e5b31" d="M514.32 733.77c-.19-.13-.23-.18-.37-.34l-.14-.15c-.35-.39-.94-1.07-1.73-2.11l-5.13-7.16-6.75-9.84-.87-1.29-8.49-4-6.2-3.92 3.31-3.3 11.38 6.75 8.5 3.1 15.7 14.25-.01.01c-.03.02-2.28 1.61-4.52 3.34-1 .77-2.25 1.78-3.15 2.63-.41.4-.77.79-1.02 1.12-.14.2-.23.39-.27.48l.97-.47 1.06 1.01-2.15-.13-.1.01-.02.01m-58.31-26.9c-7.48-1.21-14.62-4.29-21.76-9.42v-.01c.03-.05.94-1.57 3.15-3.02 2.26-1.3 5.82-2.51 12.13-1.75l.13.02c7.38 1.18 16.2 4.99 26.65 11.6-.5.26-8.34 4.13-20.3 2.58l.01.02-.01-.02m-32.11-11.94c-1.42-.25-2.53-.88-3.47-1.97-.7-.93-1.19-1.99-1.56-3.44-.49-2.37-.39-4.53-.38-4.77.59-.16 1.15-.22 1.71-.17l.12.02c2.85.64 4.73 2.96 5.84 5.67.51 1.5.59 2.56.3 3.47-.43.89-1.28 1.29-2.56 1.18v.01m56.5 1.65c-19.05-5.88-26.88-13.82-30.43-19.82-3.45-6.53-2.91-11.34-2.88-11.58v-.01l.02-.01c.01 0 1.14-.12 2.9.1 5.23.84 17.71 5.28 30.39 31.31l.01.01-.02-.01.01.01m-38.9-9.7c-8.2-1.27-14.14-3.51-18.35-6.87-2.32-2.04-3.43-3.85-4.03-5.18-.49-1.22-.63-2.15-.65-2.36.28-.08 3.47-1 8.49-.67.42.04.84.09 1.28.15 6.41.98 15.6 4.37 25.86 15.83l.01.01h-.02c-4.59-.09-8.82-.39-12.6-.92l.01.01m-39.26-6.96c-8.71-1.21-20.07-5.24-27.62-13.52l-.01-.01.02-.01c.12-.01 7.99-1.08 16.97-.31l1.61.18c8.12 1.09 14 3.42 18.24 7.09 1.45 1.34 2.14 2.38 2.38 3.43.1.92-.26 1.63-1.15 2.25-1.99 1.12-5.01 1.45-9.78.98l-.66-.07v-.01m-27.71-17.91c-1.1-.18-1.97-.7-2.71-1.61-.54-.78-.91-1.68-1.21-2.96-.41-2.15-.32-4.11-.32-4.15v-.02c.41-.14.84-.2 1.33-.16h.01c1.29.21 2.17.92 2.83 1.61.79.91 1.42 1.99 1.84 3.17.39 1.24.44 2.13.2 2.97-.29.68-.91 1.18-1.97 1.14v.01m63.99 6.85c-1.41-.26-2.52-.89-3.46-1.99-.7-.93-1.19-2-1.56-3.45-.49-2.37-.4-4.53-.38-4.77.59-.16 1.15-.21 1.71-.16l.12.02c2.85.66 4.73 2.99 5.84 5.7.51 1.51.59 2.56.3 3.48-.43.89-1.29 1.28-2.56 1.16l-.01.01m-31.17-5.64c-17.29-3.03-25.99-8.84-30.59-13.49-2.49-2.66-3.87-5-4.64-6.62-.67-1.52-.94-2.61-.99-2.84l.02-.01c.03 0 1.61-.36 4.25-.17l.4.04c5.96.74 17.39 4.55 31.55 23.08v.02-.01m18.69.76c-13.9-4.27-21.56-11.11-25.83-16.44-4.25-5.65-5.61-10.2-5.7-10.51.04 0 1.7-.2 4.27.02l.57.06.6.09c7.19 1.16 19.3 5.92 26.08 26.77l.02.01h-.01m-71.07-15.42c-4.55-.49-8.9-1.42-13.08-2.81-7.3-2.66-10.22-5.48-11.69-7.71-.73-1.25-1.01-2.24-1.12-2.92-.08-.63-.05-1.12-.04-1.2l.04-.01c.06-.02 4.77-.92 11.44-.56l.79.06c3.21.31 6.32.9 9.36 1.77 11.55 3.81 17.37 12.85 17.55 13.14l.01.01h-.01c-.11.02-5.52.88-13.26.23h.01m32.13-8.44c-1.43-.23-2.53-.83-3.46-1.88-.69-.89-1.18-1.96-1.56-3.44-.49-2.35-.4-4.5-.38-4.73.59-.17 1.15-.24 1.71-.2l.12.02c2.85.58 4.73 2.87 5.84 5.56.49 1.44.57 2.49.26 3.43-.43.92-1.26 1.32-2.52 1.24h-.01m-24.16-6.11c-.15-.06-6.44-2.48-13.08-7.15-6.2-4.57-13.22-11.67-14.38-22.35v-.01h.01c.01 0 .56-.08 1.4-.06.11.01.24.01.37.02 1.93.22 5.33 1.05 10 4.89 5.69 5.1 10.89 13.23 15.69 24.67l-.01-.01m15.78 1.13c-.08-.04-4.53-2.49-10.35-7.97-5.37-5.24-12.72-14.16-18.28-27.97.03-.02 1.23-.51 3.16-.51.11.01.22.01.33.02l.51.06c2.76.43 6.45 1.87 11.1 7.25 5.08 6.29 9.6 15.94 13.56 29.11l.01.03-.03-.01-.01-.01m-40.88-5.31c-5.36-.75-6.93-3.3-7.61-4.8-.79-2.21-.61-4.12-.6-4.2v-.02c.86-.14 1.75-.19 2.62-.15l.18.01c4.3.55 7.22 2.69 8.84 5.04.33.55 1.02 1.88.43 3.08-.68.86-1.78 1.16-3.86 1.04m-11.68-16c-2.95-.23-7.42-.76-12.18-1.89-4.76-1.45-7.2-5.21-8.76-8.73-1.46-3.7-1.96-7.04-1.97-7.11h.02c14.61 1.34 21.24 6.05 24.57 9.89 3.19 4.15 3.48 7.63 3.51 8.02h-.01c-.02 0-2.06.02-5.18-.19v.01m15.12-14.27c-.02-.03-1.65-2.28-3.31-5.02-1.76-2.98-3.16-5.8-3.31-8.21-.05-2.26-.53-7.05-.83-9.72l-.82-6.51.01.01c.74.34 8.54 4.11 9.09 12.62-.05 8.39-.81 16.73-.82 16.82v.02h-.01v-.01m-11.29-1.72c-.09-.01-.18-.02-.27-.04-2.6-.73-7.05-3-12.11-6.26-5.57-3.68-10-7.37-12.71-10.58-2.37-3.09-3.74-7.32-4.24-13.35-.23-4.21.06-7.66.1-8.01.46-.13.92-.18 1.44-.16 1.98.22 3.89 1.11 6.76 3.23 2.16 1.69 4.53 3.88 7.1 6.6 4.35 4.75 7.83 9.41 7.87 9.46l.03.05c.29.55 2.74 5.33 4.71 9.93 1.22 2.94 1.9 5.02 2.22 6.6.15.92.18 1.46-.01 2-.1.21-.25.38-.42.46-.16.06-.3.08-.48.07h.01"/><path fill="#4e5b31" d="M485.68 729.33c.19-.06.23-.09.37-.21l.14-.11c.35-.28.94-.78 1.73-1.57 1.45-1.48 3.41-3.65 5.13-5.58l6.75-7.75.87-1.03 8.49-1.36 6.2-2.01-3.31-4.32-11.38 3.23-8.5.47-15.7 9.41.01.01c.03.03 2.28 2.3 4.52 4.73 1 1.08 2.25 2.47 3.15 3.6.41.52.77 1.03 1.02 1.43.14.25.23.47.27.57l-.97-.77-1.06.68 2.15.54.1.03.02.01m58.31-8.99c7.52 1.03 14.61.04 21.76-3.05v-.01c-.02-.03-.95-1.84-3.15-3.92-2.25-1.93-5.87-4.2-12.13-5.3l-.13-.02c-7.41-1-16.2.15-26.65 3.56.47.39 8.42 6.72 20.3 8.74l-.01.01.01-.01m32.11-2.64c1.44.15 2.52-.17 3.47-1.01.71-.74 1.19-1.65 1.56-3.01.49-2.22.39-4.43.38-4.67-.59-.32-1.16-.53-1.71-.63l-.12-.02c-2.9-.15-4.71 1.62-5.84 4.04-.51 1.36-.59 2.39-.3 3.4.42.99 1.3 1.65 2.56 1.89v.01m-56.5-15.06c19.1-.03 26.86-5.64 30.43-10.61 3.45-5.5 2.91-10.46 2.88-10.73v-.02l-.02-.01c-.01 0-1.15-.45-2.9-.75-5.26-.72-17.7-.04-30.39 22.1l-.01.02.02-.01-.01.01m38.9 1.99c8.24 1.12 14.13.55 18.35-1.65 2.34-1.4 3.42-2.88 4.03-4.06.49-1.09.63-1.98.65-2.18-.27-.16-3.52-1.96-8.49-3.02-.42-.08-.84-.15-1.28-.22-6.44-.83-15.59-.09-25.86 8.32l-.01.01h.02c4.6 1.29 8.83 2.23 12.6 2.8h-.01m39.26 3.87c8.77 1.04 20.03-.21 27.62-6.83l.01-.01-.02-.01c-.1-.04-8.02-2.89-16.97-4.31l-1.61-.22c-8.15-.93-13.99-.16-18.24 2.38-1.46.97-2.14 1.79-2.38 2.8-.1.87.27 1.7 1.15 2.56 1.99 1.64 5.04 2.79 9.78 3.55l.66.11v-.02m27.71-11.21c1.11.08 1.97-.24 2.71-1 .55-.66.91-1.47 1.21-2.69.41-2.05.32-4.04.32-4.08v-.02c-.41-.24-.84-.38-1.33-.46h-.01c-1.31-.07-2.17.44-2.83.98a7.28 7.28 0 0 0-1.84 2.76c-.39 1.15-.44 2.02-.2 2.93.29.73.92 1.38 1.97 1.57v.01m-63.99-9.81c1.44.15 2.51-.16 3.46-.99.71-.74 1.19-1.65 1.56-3.01.49-2.21.4-4.42.38-4.66-.59-.33-1.15-.54-1.71-.64l-.12-.02c-2.9-.17-4.71 1.59-5.84 4.01-.51 1.35-.59 2.38-.3 3.39.43 1 1.31 1.66 2.56 1.91l.01.01m31.17 3c17.32 1.5 25.99-2.36 30.59-5.96 2.5-2.11 3.86-4.12 4.64-5.58.67-1.37.94-2.41.99-2.63l-.02-.01c-.03-.01-1.62-.72-4.25-1.12l-.4-.05c-5.98-.61-17.39.52-31.55 15.34v.01m-18.69-4.33c13.95-.39 21.54-5.25 25.83-9.5 4.26-4.58 5.6-8.76 5.7-9.07-.04-.02-1.72-.63-4.27-1.06l-.57-.08-.6-.07c-7.21-.68-19.3.81-26.08 19.78h-.02.01m71.07 1.81c4.57.41 8.9.28 13.08-.39 7.33-1.39 10.21-3.77 11.69-5.78.74-1.14 1.01-2.09 1.12-2.75.08-.62.05-1.11.04-1.2l-.04-.02c-.05-.02-4.79-1.63-11.44-2.41l-.79-.08c-3.22-.24-6.33-.22-9.36.09-11.61 1.62-17.34 9.28-17.55 9.57l-.01.01.01.01c.11.04 5.54 2.08 13.26 2.95h-.01m-32.13-15.48c1.45.12 2.53-.21 3.46-1.05.7-.74 1.18-1.67 1.56-3.07.49-2.23.4-4.41.38-4.65-.59-.31-1.15-.5-1.71-.59l-.12-.02c-2.89-.09-4.71 1.72-5.84 4.16-.49 1.32-.57 2.34-.26 3.36.43 1.02 1.27 1.64 2.52 1.86h.01m24.16-.68c.17-.03 6.43-1.14 13.08-4.56 6.22-3.41 13.21-9.28 14.38-19.82v-.01h-.01c-.01-.01-.57-.18-1.4-.29l-.37-.04c-1.95-.11-5.33.15-10 3.14-5.71 4.07-10.88 11.13-15.69 21.59l.01-.01m-15.78-2.32c.1-.03 4.52-1.44 10.35-5.66 5.39-4.1 12.7-11.47 18.28-24.28-.03-.02-1.24-.74-3.16-1.11-.11-.02-.22-.03-.33-.04l-.51-.04c-2.79-.11-6.45.58-11.1 4.99-5.09 5.23-9.6 13.83-13.56 26.11l-.01.04.03-.01h.01m40.88 2.87c5.39.14 6.92-2.17 7.61-3.58.79-2.08.61-4.02.6-4.1v-.03c-.86-.27-1.75-.46-2.62-.55l-.18-.02c-4.33-.14-7.2 1.49-8.84 3.57-.33.5-1.03 1.7-.43 3.01.68.97 1.79 1.48 3.86 1.7m11.68-14.17c2.96.2 7.42.29 12.18-.25 4.78-.88 7.2-4.36 8.76-7.74 1.45-3.55 1.96-6.84 1.97-6.91h-.02c-14.66-.15-21.2 3.43-24.57 6.82-3.19 3.67-3.48 7.07-3.51 7.48h.01c.02.01 2.07.35 5.18.6m-15.12-16.69c.02-.03 1.65-1.99 3.31-4.45 1.76-2.7 3.16-5.26 3.31-7.66.05-2.27.53-6.97.83-9.59l.82-6.38h-.01c-.76.24-8.54 2.67-9.09 11.1.05 8.4.81 16.88.82 16.98v.01h.01v-.01m11.29.13h.27c2.62-.34 7.03-1.94 12.11-4.55 5.58-2.96 9.99-6.16 12.71-9.1 2.37-2.85 3.74-6.93 4.24-12.92.23-4.19-.06-7.67-.1-8.03-.46-.17-.92-.26-1.44-.3-1.99.03-3.89.72-6.76 2.53-2.16 1.44-4.53 3.35-7.1 5.75a121.8 121.8 0 0 0-7.87 8.4l-.03.04c-.3.52-2.74 4.94-4.71 9.24-1.22 2.77-1.9 4.73-2.22 6.27-.15.89-.18 1.43.01 2 .1.23.25.42.42.53.16.08.3.12.48.14h-.01"/><path fill="#d57800" d="m803 302.26-2.58 1.29-1.01.5-3.12.09-2.92 1.67-5.18 4.01-.23.19-1.93.65-1.8-.68-1.02.54-.35 2.17-.97 1.6-1.19.93-4.14.67-3.48 2.01-4.54-1.05-2.11.93-4.48 4.29-2.29 1.18-.8-.03-3.04-.08-1.28.45-1.92 1.94-3.62.34-1.13.82-1.77 3.67-1.92 2.04-1.09.24-1.19-.44-.89.16-.41 2.34-.87.98-2.42.85-1.94 1.65-1.7.88-2.28-.07-.52-.01-2.27 1.26-4.27.31-1.78 1.7-.39.36-.83.5-1.35.8-.34.2-1.63-.35-1.91.73-.78-1.24-1.32.77-1.76.02-2.18-1.07-1.67-.82-1.21.14-.43 2.15-.04.23-1.28 1.69-2.38 1.39-.33.42-2.72 3.47-5.16 5.3-4.36 2.04-4.53 1.14-3.17 2.47-8.31 3.65-13.11 5.65-2.68.65-3.85.29-6.86 1.95-6.06 1.28-.34.07-1.19.25-8.54 1.76-3.98-.87-2.35.62-6.13-1.4-4.26-.42-2.7.26-5.07 1.87-8.56 3.13-2.82 2.29-4.41 1.77-5.15.99.01-2.22-.03-.1-1.79.34-1.29.24-4.18.09-2.33-.32-1.44-.63-.22.04-8.55 1.68-9.54-.43-4.77.87-3.56-.59-2.23.35-4.37-.11-1.56-.66-.35-.15-12.85-1.38-5.87-1.58-2.8.22-4.7-2.34-6.85-1.87-1.61-.74-3.6-1.65-1.63.71-1.22-.06-2.91-1.53-1.05-.19-2.41.51-1.39-.57-1.28-1.25-3.02-.93-1.84-1.87-10.28-.18-2.79-1.27-9.35-4.21-1.49-.15-1.85 1.15-2.79.62-2.42.28-3.29-.37-3.83-1.59-3.94-2.54-1.46-.57-3.25-.13-.99-.05-5.98-4.14-7.7-6.02-5.22-3.29-1.96-.59-.27.91.98 3.28.33 3.15-.1 2.86-.05 1.77.48 1.66 1.89 2.4.78 2.26.58 6-.01 6-.91 9.45-.31 1.42-1.1 4.81-1 4.42-3.87 11.61-1.07 1.36-2.61 1.47-5.93 3.35-4.36 2.02-1.38.41-3.54-.17-2.21-.39-2.75-1.87-2.69-1.04-3.54-3.02-3.93-1.29-4.31-3.05-1.12-1.51-2.34-.48-3.26-1.36v-.01l-1.19-.49-.83-.34-4.15-.55-3.87-2.23-2.04-.71-2.78-.41-2.91 1.1h-.01l-1.47.56-1.87-.93-1.35-.04-1.53 2.23-.23.35-1.05.48-1.31-.14-1.03-.11-1.11.4-1.5.54-1.32.48-.64.23-.01-.01-.4.05-.71.06-.87.1-1.54-1.04-.82-.56-1.38-.4-.74.49-.14 2.57-.68 1.49-2.14 1.78-2.18 1.81-1.52 2.18-4.02 9.12-2.52 3.63-.78.83-2.63 2.81-2.34 1.72-5.38 3.97-5.09 1.7-4.39.72-2.13-.08-4.04-.71-3.64-1.26-3.99-2.68-4.37-3.71-6.34-6.52-.89-.56-.19-.13-2-1.34-1.48.03-.58.97-.31 1.42-.27 1.25-.73 7.13.06.41.38 2.94 4.81 6.93 1.48 3.68.25.42.99 1.73.76 1.31.07.13 1.65 5.06-1.16 2.82.58 1.91-1.46 1.14-.26 1.63 4.32 5.63.94 2.47-1.06 3.37-1.67 1.83-.47.51.23 1.44 1.99 1.87 3.38 3.16 1.8 4.62 1.37 1.27 1.59-.3.89.72 1.34.02 1.32 1.4.85.45 1.36.74 1.06 1.47.24 4.39 1.99 5.52.03 2.95.01.42 1.24 2.24.39 1.73-.66 4.53 1.58 1.53 1.72-.28 1.1.23 1.78 1.61 2.15 3.47 2.11-.21 1.33.73 6.46 6.35 1.46.85.08.05 1.05.61 1.31 1.44 2.03-1.25h.23l2.2-.05.97.74 1.87 1.42 2.44.14 5.29 2.08 2.32.79 4.66 3.36 1.98 1.42 1.17 1.08 1.56 1.44 3.11 1.65 2.67.91 1.44.49 1.09.53.03-.06h.01l-.02.07 5.77 2.84 3.13 1.06 2.9 1.4 2.11 1.01 1.54.19 2.19-1.64 2.12.11 1.75.64 1.72-.1 2.72-1.4.53-.75 1.92-.71 6.5-.05 1.9.86 4.88-1.57 3.27 1.34 2.89-.68 6.32 2.26 1.68 1.43 1.87 2.45.23.04 2.09.32-.87 1.38 2.76 3.33 2.49 4.2.17.53 1.81 5.7 1.35 2.11.94 2.83.04 1.76-1.46.94-.24.62-.08.23.29.78.56-.24 1.05-.45 1.27-.02 2.26.56 1.49.37 2.36-.87 1.56-.57 2.51 1.46 2.75.36 1.16.7 3.27 1.99 1.68.41.61-.33.4-.9-.21-1.14-1.25-1.67-2.76-3.69-1.14-1.85-.86-2.58-.27-3.17-.19-2.13.34-2.73.75-.88.54-2.13h.01l.15-.55 1.53-1.87 4.07-2.09 4.38-3.36 3.46-1.83 3.56-1.05.09-.43.4.23 9.07-1.8.15.01 4.03-.11 27.25 6.16 1.01-.16.91-2.47.49-.41.33-.27 2.99-.88 1.4.01 3.89 1.58 1.59.65 2.55-1.07 1.81.31 3.74-1.51 2.3.41.88-.22 4.5-2.62 4.33-.61 1.12-.44.4-.16 4.44-1.73 2.82-1.79 2.43-.96 2.67-.31 6.97.54 1.41-2.19 3 .03 1.81-1.83 2.07-.56 1.49-1.97 1.24-1.66 1.74-.78 5.58.44 6.61 1.77.87-.42 1.49-5.26 1.57-.8 4.21-5.71.01-2.29.01-1.91.69-2.63-.47-4.99.56-4.9 2.61-5.97 2.31-2.25 3.72-2.08 1.89-.6 2.68-.11v-.01l.39-.02.68-.03 9.22 1.04c.15-.02 3.33.36 3.36.36l3.07.33 7.78 2.33.55.16 2.63 1.17 3.03 2.75 3.21 3.57.61.66 2.08 1.12.62.35 1.72-.1 2.45-1.05 1.84-1.41 2.52-1.16.06-.08 1.42-2.04.04-.04.03.01v-.01l-.02-.01.56-.82 4.86-1.47 5.72.18.64-.3.36-.16 1.51-1.69 1.41.11 3.43 1.56 2.41-.29 1.92.94 1.48-.07 2.81-.12 3.01 2.39 1.75.35 6.19 4.13.32.07.17.05.35.08.73-.18 1.09-.25.15-.04.14.2.7 1.06.96.2 1.15-1.49-.46-.73-.17-.27-2.21-.6-1.98-3.6 1.89-1.96-2.97-3.91-.49-.65-.17-.28-1.02-1.66-5.19-8.46-6.76-6.03v.01l-2.37-2.13-.01-.01-.83-.74-3.61-4.05-2.58-3.73-.34-.78-.53-1.24-1.55-3.58-2.69-2.37-2.19-2.65-.11-.15-4.53-6.73-.74-1.13-1.07-.73-2.26-.24-.21-.24-.13-.15.08-.08 1.08-.99 1.21-.2.52-1.16-2.3-7.07-.02-.24-.17-2.2 1.88-9.73.24-1.19 3.2-6.36 1.98-1.48 2.17-4.16 1.85-2.62 1.78-1.61.31-.16 3.21-1.71 2.69-.16 2.57-.16 4.48 1.77 4.27.23.83-.03 1.93-.09 3.19-.81 1.5-.85.78-1.17 1.62-5.48.53-1.75 1-1.87 5.8-6.5 4.39-3.92 9.86-6.95 4.82-2.78 2.47-1.42 22-9.6 5.72-5.93 2.98-3.1 5.27-3.67 6.17-2.69 5.31-4.44 1.15-1.52 1.46-4.87 1.22-.34 1.1-2.47.31-.71 4.33-3.29.49-.27 16.83-9.57 2.44.17 1.31-2.11 4.9-1.22.9-.23 1.2-.72 1.03-1.88v-.35l.14-4.8 1.05-1.39.57-3.2.53-.78.56-.81 1.39-1.12-.24-.58.02.04"/><path fill="#1A1A1A" opacity=".2" d="M8 195.25c170.83-85.22 341.03-54.42 513.26-27.97 155.21 23.84 312.16 44.57 470.74-34.53v672c-170.83 85.22-341.03 54.42-513.26 27.97C323.53 808.88 166.58 788.15 8 867.25v-672m31.25 19.39v604.5c306.56-128.26 611.18 96.04 921.5-33.78v-604.5c-306.56 128.26-611.18-96.04-921.5 33.78"/></svg>