<svg xmlns="http://www.w3.org/2000/svg" xmlns:xlink="http://www.w3.org/1999/xlink" viewBox="0 0 128 128" style="enable-background:new 0 0 128 128" xml:space="preserve"><path style="fill:#ef5350" d="M110.97 59.11v-.04c.01.02.04.06.04.06s2.39 14.4 2.39 17.32c0 17.6-23.26 24.66-48.67 24.67V45.78c19.26.12 30.09 4.58 37.26 8.29 3.36 1.74 8.98 5.04 8.98 5.04zm-93.94 0v-.04c-.01.02-.04.06-.04.06s-2.39 14.4-2.39 17.32c0 17.6 23.26 24.66 48.67 24.67V45.78c-19.26.12-30.09 4.58-37.26 8.29-3.36 1.74-8.98 5.04-8.98 5.04z"/><linearGradient id="a" gradientUnits="userSpaceOnUse" x1="85.689" y1="83.438" x2="85.689" y2="30.707" gradientTransform="matrix(1 0 0 -1 0 128)"><stop offset=".255" style="stop-color:#b71c1c"/><stop offset="1" style="stop-color:#d32f2f"/></linearGradient><path style="fill:url(#a)" d="M100.29 48.3c2.62 2.85 7.14 6.77 7.85 10.51 1.13 5.96 1.15 15.17 1.15 16.98 0 8.92-7.34 14.68-16.83 18.72-14.29 6.08-30.37-4.13-30.37-19.12V61.88c0-19.12 24.66-28.2 37.9-13.91l.3.33z"/><linearGradient id="b" gradientUnits="userSpaceOnUse" x1="42.851" y1="83.438" x2="42.851" y2="30.707" gradientTransform="matrix(1 0 0 -1 0 128)"><stop offset=".255" style="stop-color:#b71c1c"/><stop offset="1" style="stop-color:#d32f2f"/></linearGradient><path style="fill:url(#b)" d="M28.02 48.3c-2.62 2.85-6.52 6.77-7.23 10.51-1.13 5.96-1.31 14.71-1.31 16.52 0 8.92 6.88 15.14 16.38 19.18 14.29 6.08 30.37-4.13 30.37-19.12V61.88c0-19.12-24.66-28.2-37.9-13.91-.11.11-.21.22-.31.33z"/><linearGradient id="c" gradientUnits="userSpaceOnUse" x1="12" y1="18.009" x2="116" y2="18.009" gradientTransform="matrix(1 0 0 -1 0 128)"><stop offset="0" style="stop-color:#f44336"/><stop offset=".359" style="stop-color:#e73b32"/><stop offset="1" style="stop-color:#c62828"/></linearGradient><path style="fill:url(#c)" d="M64.14 96H64c-25.65.03-52 7.1-52 24.99v3h104v-3C116 104.12 89.9 96 64.14 96z"/><path style="fill:#3c2c23" d="M98.9 79.85c-1.25-2.27.34-4.58 3.06-7.44 4.31-4.54 7-15.07 2.64-25.76.03-.06-.86-1.86-.83-1.92l-1.79-.09c-.57-.08-18.26-.12-37.97-.12s-37.4.04-37.97.12c0 0-2.65 1.95-2.63 2.01-4.35 10.69-1.66 21.21 2.64 25.76 2.71 2.86 4.3 5.17 3.06 7.44-1.21 2.21-4.81 2.53-4.81 2.53s.83 2.26 2.83 3.48c1.85 1.13 4.13 1.39 5.7 1.43 0 0 6.15 8.51 22.23 8.51h17.9c16.08 0 22.23-8.51 22.23-8.51 1.57-.04 3.85-.3 5.7-1.43 2-1.22 2.83-3.48 2.83-3.48s-3.61-.32-4.82-2.53z"/><radialGradient id="d" cx="99.638" cy="45.85" r="23.419" gradientTransform="matrix(1 0 0 .4912 -21.055 59.629)" gradientUnits="userSpaceOnUse"><stop offset=".728" style="stop-color:#554138;stop-opacity:0"/><stop offset="1" style="stop-color:#554138"/></radialGradient><path style="fill:url(#d)" d="M63.99 95.79v-9.44l28.57-2.26 2.6 3.2s-6.15 8.51-22.23 8.51l-8.94-.01z"/><radialGradient id="e" cx="76.573" cy="49.332" r="6.921" gradientTransform="matrix(-.9057 .4238 -.3144 -.6719 186.513 79.36)" gradientUnits="userSpaceOnUse"><stop offset=".663" style="stop-color:#554138"/><stop offset="1" style="stop-color:#554138;stop-opacity:0"/></radialGradient><path style="fill:url(#e)" d="M95.1 83.16c-4.28-6.5 5.21-8.93 5.21-8.93l.01.01c-1.65 2.05-2.4 3.84-1.43 5.61 1.21 2.21 4.81 2.53 4.81 2.53s-4.91 4.36-8.6.78z"/><radialGradient id="f" cx="94.421" cy="68.91" r="30.388" gradientTransform="matrix(-.0746 -.9972 .8311 -.0622 33.575 157.534)" gradientUnits="userSpaceOnUse"><stop offset=".725" style="stop-color:#554138;stop-opacity:0"/><stop offset="1" style="stop-color:#554138"/></radialGradient><path style="fill:url(#f)" d="M104.62 46.65c4.25 10.35 1.78 21.01-2.41 25.51-.57.62-3.01 3.01-3.57 4.92 0 0-9.54-13.31-12.39-21.13-.57-1.58-1.1-3.2-1.17-4.88-.05-1.26.14-2.76.87-3.83.89-1.31 18.16-1.7 18.16-1.7 0 .01.51 1.11.51 1.11z"/><radialGradient id="g" cx="44.222" cy="68.91" r="30.388" gradientTransform="matrix(.0746 -.9972 -.8311 -.0622 98.192 107.475)" gradientUnits="userSpaceOnUse"><stop offset=".725" style="stop-color:#554138;stop-opacity:0"/><stop offset="1" style="stop-color:#554138"/></radialGradient><path style="fill:url(#g)" d="M23.4 46.65c-4.24 10.35-1.77 21.01 2.41 25.5.58.62 3.01 3.01 3.57 4.92 0 0 9.54-13.31 12.39-21.13.58-1.58 1.1-3.2 1.17-4.88.05-1.26-.14-2.76-.87-3.83-.89-1.31-1.93-.96-3.44-.96-2.88 0-13.49-.74-14.47-.74.01.02-.76 1.12-.76 1.12z"/><radialGradient id="h" cx="49.439" cy="45.85" r="23.419" gradientTransform="matrix(-1 0 0 .4912 98.878 59.629)" gradientUnits="userSpaceOnUse"><stop offset=".728" style="stop-color:#554138;stop-opacity:0"/><stop offset="1" style="stop-color:#554138"/></radialGradient><path style="fill:url(#h)" d="M64.03 95.79v-9.44l-28.57-2.26-2.6 3.2s6.15 8.51 22.23 8.51l8.94-.01z"/><radialGradient id="i" cx="26.374" cy="49.332" r="6.921" gradientTransform="matrix(.9057 .4238 .3144 -.6719 -13.024 100.635)" gradientUnits="userSpaceOnUse"><stop offset=".663" style="stop-color:#554138"/><stop offset="1" style="stop-color:#554138;stop-opacity:0"/></radialGradient><path style="fill:url(#i)" d="M32.92 83.16c4.28-6.5-5.21-8.93-5.21-8.93l-.01.01c1.65 2.05 2.4 3.84 1.43 5.61-1.21 2.21-4.81 2.53-4.81 2.53s4.91 4.36 8.6.78z"/><path style="fill:#7a4c32" d="M64 90.08h-9.08v9.98c0 4.51 3.7 8.17 8.26 8.17h1.65c4.56 0 8.26-3.66 8.26-8.17v-9.98H64z"/><linearGradient id="j" gradientUnits="userSpaceOnUse" x1="64" y1="44" x2="64" y2=".165" gradientTransform="matrix(1 0 0 -1 0 128)"><stop offset="0" style="stop-color:#ffeb3b"/><stop offset=".635" style="stop-color:#ffdd12"/><stop offset="1" style="stop-color:#ffd600"/></linearGradient><path style="fill:url(#j)" d="M94 123.98v-6.1a2.48 2.48 0 0 0-2.48-2.48H66v-5.06l13.36-6.18c2.95-1.36 5.03-4.24 5.51-7.6l1.69-12.03-15.62 8.87c-4.05 2.42-6.71 6.69-7.22 11.46h-.17c-.51-4.77-3.17-9.05-7.22-11.46l-14.9-9.46 1.18 12.29c.34 3.54 2.47 6.62 5.56 8.05l13.27 6.13v4.98H36.48a2.48 2.48 0 0 0-2.48 2.48v6.1h60z"/><path style="fill:#7a4c32" d="M91.55 50.43H36.9c-5.89 0-10.71 5.14-10.71 11.41S31 73.26 36.9 73.26h54.65c5.89 0 10.71-5.14 10.71-11.41s-4.82-11.42-10.71-11.42z"/><path style="fill:#a56c43" d="M64.22 11.07c-17.4 0-33.52 18.61-33.52 45.4 0 26.64 16.61 39.81 33.52 39.81S97.74 83.1 97.74 56.46c0-26.78-16.11-45.39-33.52-45.39z"/><path style="fill:#42312c" d="M55.02 50.15c-.93-1.23-3.07-3.01-7.23-3.01s-6.31 1.79-7.23 3.01c-.41.54-.31 1.17-.02 1.55.26.35 1.04.68 1.9.39s2.54-1.16 5.35-1.18c2.81.02 4.49.89 5.35 1.18.86.29 1.64-.03 1.9-.39.28-.38.39-1.01-.02-1.55zm32.87 0c-.93-1.23-3.07-3.01-7.23-3.01s-6.31 1.79-7.23 3.01c-.41.54-.31 1.17-.02 1.55.26.35 1.04.68 1.9.39s2.54-1.16 5.35-1.18c2.81.02 4.49.89 5.35 1.18.86.29 1.64-.03 1.9-.39.29-.38.39-1.01-.02-1.55z"/><ellipse style="fill:#42312c" cx="47.79" cy="58.81" rx="4.93" ry="5.1"/><ellipse style="fill:#42312c" cx="80.66" cy="58.81" rx="4.93" ry="5.1"/><path style="fill:#875334" d="M68.08 68.06c-.11-.04-.21-.07-.32-.08h-7.08c-.11.01-.22.04-.32.08-.64.26-.99.92-.69 1.63.3.71 1.71 2.69 4.55 2.69s4.25-1.99 4.55-2.69c.31-.71-.05-1.37-.69-1.63z"/><path style="fill:#473530" d="M72.75 76.14c-3.18 1.89-13.63 1.89-16.81 0-1.83-1.09-3.7.58-2.94 2.24.75 1.63 6.44 5.42 11.37 5.42s10.55-3.79 11.3-5.42c.76-1.66-1.09-3.33-2.92-2.24z"/><path style="fill:#3c2c23" d="M63.99 25.08C31.68 25.08 23 38.6 25.17 44.51c1.64 4.45 4.09 7.97 4.09 7.97-.46 8.01 1.03 12.94 1.82 14.94.14.35.63.32.72-.04.99-3.97 4.36-17.8 4.03-20.21 0 0 11.35-2.25 22.17-10.22 2.2-1.62 4.59-3 7.13-4.01 13.59-5.41 16.43 3.82 16.43 3.82s9.42-1.81 12.26 11.27c1.07 4.9 1.79 12.75 2.4 18.24.04.39.57.47.72.11.95-2.18 2.85-6.5 3.3-10.91.18-1.55 4-30.39-36.25-30.39z"/><radialGradient id="k" cx="64" cy="96.325" r="34.638" gradientTransform="matrix(1 0 0 -1 0 128)" gradientUnits="userSpaceOnUse"><stop offset="0" style="stop-color:#f44336"/><stop offset=".299" style="stop-color:#eb3e33"/><stop offset=".784" style="stop-color:#d3302c"/><stop offset=".998" style="stop-color:#c62828"/></radialGradient><path style="fill:url(#k)" d="M64.41 8C17.66 8 21.18 55.35 21.18 55.35s12.21-11.01 43.5-11.01 42.1 9.99 42.1 9.99S111.17 8 64.41 8z"/><defs><path id="l" d="M64.41 8C17.66 8 21.18 55.35 21.18 55.35s12.21-11.01 43.5-11.01 42.1 9.99 42.1 9.99S111.17 8 64.41 8z"/></defs><clipPath id="m"><use xlink:href="#l" style="overflow:visible"/></clipPath><path style="clip-path:url(#m);fill:#c62828" d="M47.12 10.35 54.07 8v23.75c-1.41-10.26-3.43-17.69-6.95-21.4z"/><defs><path id="n" d="M64.41 8C17.66 8 21.18 55.35 21.18 55.35s12.21-11.01 43.5-11.01 42.1 9.99 42.1 9.99S111.17 8 64.41 8z"/></defs><clipPath id="o"><use xlink:href="#n" style="overflow:visible"/></clipPath><path style="clip-path:url(#o);fill:#c62828" d="M81.71 10.35 74.76 8v23.75c1.41-10.26 3.43-17.69 6.95-21.4z"/><path style="fill:#e53935" d="M69.62 42.91h-10.6c-2.82 0-5.1-2.28-5.1-5.1V9.1c0-2.82 2.28-5.1 5.1-5.1h10.6c2.82 0 5.1 2.28 5.1 5.1v28.7c0 2.82-2.28 5.11-5.1 5.11z"/><linearGradient id="p" gradientUnits="userSpaceOnUse" x1="46.507" y1="102.92" x2="81.494" y2="102.92" gradientTransform="matrix(1 0 0 -1 0 128)"><stop offset="0" style="stop-color:#ffee58"/><stop offset=".366" style="stop-color:#fee84f"/><stop offset=".961" style="stop-color:#fdd937"/><stop offset="1" style="stop-color:#fdd835"/></linearGradient><path style="fill:url(#p)" d="M79.76 25.5c-3.86-6.68 1.03-9.56 1.03-9.56l-4.11-5.25s-3.26 1.02-6.69.51c-3.31-.49-5.81-3.26-5.98-3.45v-.01l-.01.01-.01-.01v.02c-.17.19-2.67 2.96-5.98 3.45-3.43.51-6.69-.51-6.69-.51l-4.11 5.25s4.89 2.88 1.03 9.56-1.49 13.78 9.34 15.06c2.87.34 5.74 1.52 5.74 1.52l.16.04v.29l.52-.14.52.15v-.29l.16-.04s2.88-1.19 5.74-1.52c10.83-1.29 13.2-8.39 9.34-15.08z"/><ellipse style="fill:#6d4c41" cx="64" cy="25.58" rx="12.51" ry="11.84"/><path style="fill:#ffeb3b" d="M62.81 19.09c-.56-.51-.85-1.27-.75-2-.37.43-.54 1.01-.59 1.43-.21 1.93 2.03 2.54 2.07 2.5.07-.09.21-.33.04-.8-.26-.7.42-1.09.42-1.09s-.26.56-.07.8c.3.38.57.36.7.55.14.2-.02.51-.16.58 1.01-.08 1.81-.95 2.02-1.88s-.06-1.9-.46-2.78c-.06.71-.79 1.3-1.55 1.27.22-.27.57-1.02.35-1.84-.22-.82-1.51-1.26-1.51-1.26s.36.37.38 1.12c0 .77-1.76 1.64-.89 3.4zm6.49 13.59L59.37 23l-1.79 1.27 9.96 9.66c.14.14.38.22.63.22.26 0 .53-.07.74-.22.29-.2.5-.54.53-.83a.496.496 0 0 0-.14-.42z"/><path style="fill:#ffeb3b" d="M60.21 21.94c-.14-.1-.42-.12-.58-.14.03-.06.33-.69.75-.81.35-.1.26-.54-.06-.65-.7-.23-2.15-.2-3.37.88-.14.12-1.97 1.79-2.88 2.65-.06.05-.13.09-.23.11-.54.14-.88.64-.74 1.13.13.47.44 1.2 1.16 1.68.68.46 1.91.76 1.94.76.51 0 .95-.22 1.1-.67.09-.27-.12-.43.17-.78 0 0 2.92-2.6 3.21-3 .29-.4.05-.77-.47-1.16zM58.7 32.68 68.63 23l1.79 1.27-9.96 9.66c-.14.14-.38.22-.63.22-.26 0-.53-.07-.74-.22-.29-.2-.51-.54-.53-.83-.02-.21.06-.34.14-.42z"/><path style="fill:#ffeb3b" d="M67.79 21.94c.14-.1.42-.12.58-.14-.03-.06-.33-.69-.75-.81-.35-.1-.26-.54.06-.65.7-.23 2.15-.2 3.37.88.14.12 1.97 1.79 2.88 2.65.06.05.13.09.23.11.54.14.88.64.74 1.13-.13.47-.44 1.2-1.16 1.68-.68.46-1.91.76-1.94.76-.5 0-.95-.22-1.1-.67-.09-.27.12-.43-.17-.78 0 0-2.92-2.6-3.21-3-.29-.4-.05-.77.47-1.16z"/><path style="fill:#ef5350" d="M64.14 38.25c-.24 0-.46 0-.69.01-17.4.09-28.3 3.36-35.11 7.29-10.02 5.77-11.22 12.96-11.3 13.52v.04l3.5 1.9s2.37-4.81 5.52-6.94c7.59-5.13 18.07-8.17 37.41-8.29.24 0 .47-.01.71-.01v-7.52h-.04z"/><path style="fill:#ef5350" d="M64.02 38.25c.24 0 .46 0 .69.01 17.4.09 28.3 3.36 35.11 7.29 10.02 5.77 11.22 12.96 11.3 13.52v.04l-2.65 1.9s-3.22-4.81-6.36-6.94c-7.59-5.13-18.07-8.17-37.41-8.29-.24 0-.47-.01-.72-.01v-7.52h.04z"/></svg>