<svg xmlns="http://www.w3.org/2000/svg" viewBox="0 0 128 128" style="enable-background:new 0 0 128 128" xml:space="preserve"><path style="fill:#c8a68f" d="m62.58 29.28-43.9 42.86 5.47 22.79-5.99 20.98 26.83 1.69 48.46.13 15.5-1.04.79-45.2-45.08-44.04z"/><path style="fill:#9e7b65" d="m19.4 64.59-3.51 4.68 5.72 24.18-5.07 22.49 3.9.26 6.11-20.02-5.46-22.88 43.55-40.03 43.02 42.37v40.04l3.51-.26L111 69 70.23 25.86 63.08 23z"/><path style="fill:#ab5832" d="m19.16 53.94.11-20.08 12.72-5.56-.27 16.99z"/><path style="fill:#2e1914" d="m12.55 64.36-2.77 5.11 6.17-.07s47.6-45.11 48.6-45.15c1.21-.05 46.39 45.83 46.39 45.83l5.95-.02-49.42-53.27-7.26-.48-12.54 12.64-2.1 8.16-6.25.25-26.77 27z"/><path style="fill:#553a30" d="M4 68.19c-.78.95-.01 1.45.62 1.45s7.44-.16 7.44-.16l50.49-48.74s1.15-1.18 1.97-1.14c.89.04 2.04 1.17 2.04 1.17l50.28 49.29s5.73.02 6.64-.21c.99-.24.49-1.05-.73-2.49-.85-1.01-51.73-51.25-52.57-52.12-2.5-2.58-3.72-4.08-6.08-3.98-2.37.1-3.77 1.85-6.14 4.03-.23.21-13.58 12.57-13.58 12.57l1.08 9.11-5.93-3.65c.01 0-35.33 34.63-35.53 34.87z"/><path style="fill:#3e2723" d="M44.31 74.53H25.98c-1.57 0-2.85 1.28-2.85 2.85V97c0 1.57 1.28 2.85 2.85 2.85h18.33c1.57 0 2.85-1.28 2.85-2.85V77.38c0-1.58-1.28-2.85-2.85-2.85z"/><path style="fill:#36292b" d="M50.34 111.73s-.15-24.74 0-30.99c.15-6.24 6.01-11.64 12.8-11.41 8.4.29 12.72 5.01 13.03 11.1.31 6.09.31 31.68.31 31.68l-26.14-.38z"/><path style="fill:#523833" d="M53.47 113.07s-.12-26.36 0-31.24c.15-6.05 4.71-9.23 10.01-8.93 6.17.35 9.22 3.63 9.46 8.4.24 4.76.24 31.79.24 31.79l-19.71-.02z"/><path style="fill:#362729" d="M69.99 91.58c-.02-4.34-.06-8.17-.12-9.34-.16-3.15-2.4-5.6-6.75-5.75-3.51-.12-6.4 2.62-6.48 5.85-.03 1.19-.02 4.93 0 9.19l13.35.05zm-13.32 4.87c.04 5.81.09 11.16.09 11.16l13.27.04s0-5.33-.02-11.14l-13.34-.06z"/><path style="fill:#886a57" d="M70.03 93.81c-.05 1.41.52 2.55 2.19 2.55s2.28-.78 2.4-2.29c.1-1.35-.83-2.55-2.4-2.45-1.56.11-2.15 1.2-2.19 2.19z"/><path style="fill:#3e2723" d="M100.63 74.53H93.3v6.15l-3.06.07v-6.22H82.3c-1.57 0-2.85 1.28-2.85 2.85v8.47h5.42l-.04 3.21h-5.38V97c0 1.57 1.28 2.85 2.85 2.85h18.32c1.57 0 2.85-1.28 2.85-2.85V77.38a2.84 2.84 0 0 0-2.84-2.85z"/><path style="fill:#2e1914" d="M33.74 51.01s6.67 2.03 7.16 2.6 2.93 7.81 3.33 8.13c.41.33 14.07 1.55 14.23 1.14.25-.62-11.31-5.61-11.31-5.61s.73-5.13.57-5.62c-.16-.49-8.13-5.37-8.13-5.37l-5.85 4.73zm10.34-9.05s8.86 7.66 9.68 6.93c.81-.73-3.9-12.85-3.9-12.85l-5.78 5.92z"/><path style="fill:#3e2723" d="M101.45 101.35c.1.28.77 2.44.77 2.44s-9.37.52-9.65.8-3.99 5.46-4.55 6.1c-.55.65-.47 1.5.92.48s5.3-3.81 5.3-3.81 11.55-.58 11.84-.92c.15-.18-.74-3.24-.74-3.24s4.61-2.87 5.79-3.85c.41-.34-.02-4.41-.02-4.41l-9.66 6.41z"/><path style="fill:#6d4c41" d="M83.65 94.95c.18-.12 9-10.86 9-10.86l8.46-8.34 4.2 3.48s-4.98 6.72-7.02 8.94-3.6 3.6-5.34 5.46c-1.74 1.86-5.04 6.18-5.04 6.18l-4.32-3.9.06-.96z"/><path style="fill:#885c51" d="M82.21 94.89s6.36-7.26 9.24-10.74c2.88-3.48 8.26-9.58 8.26-9.58l2.09 1.75s-5.14 5.08-7.24 7.36c-2.1 2.28-5.28 6-6.66 7.62s-3.72 5.16-3.72 5.16l-1.97-1.57z"/><path style="fill:#865c51" d="M51.02 73.6s-1.07 1.23-1.5 2.34-1.44 4.08-1.44 4.08l9.84 5.22 9.42 1.74 1.44-3.6s-8.46-4.86-10.62-5.76c-2.16-.91-7.14-4.02-7.14-4.02z"/><path style="fill:#6e4d42" d="M76.39 94.28s1.85-5.89 2.03-5.94c.18-.05-9.64-4.97-9.64-4.97l-10.86 1.86s7.5 3.6 9.78 4.8c2.28 1.2 8.69 4.25 8.69 4.25z"/><path style="fill:#865c51" d="m49.69 110.56 3.54-.75 11.59-8.74s-7.38 1.08-9.96 1.62-6.84 1.26-6.84 1.26.6 3.12.84 3.84c.24.71.83 2.77.83 2.77z"/><path style="fill:#6d4c41" d="m78.01 105.08-.42-6-16.31 2.52s-4.5 4.2-5.82 5.4c-1.32 1.2-2.28 2.82-2.28 2.82s8.7-1.92 13.08-2.82c4.38-.9 11.75-1.92 11.75-1.92z"/><path style="fill:#865c51" d="m26.61 75.57-.78 13.38 5.7.78 2.76-4.5.12-9.48zm9.66.42-.24 9.18 5.7-.42 2.94-4.86v-4.08z"/><path style="fill:#6d4c41" d="m25.71 96.93.12-7.98 8.46-3.72.12 11.52zm10.26.54.06-12.3.04-.98 8.6-4.2s.11 5.12-.07 8.06.24 9.3.06 9.42c-.08.05-2.03.31-3.96.3-2.34-.02-4.73-.3-4.73-.3z"/><path style="fill:#865c51" d="M38.85 102.01c-.2.46-.4 4.35.05 4.55.46.2 7.99-.05 8.14-.2s.15-4.25-.15-4.55c-.3-.31-7.88-.15-8.04.2zM30.31 65.4c-.51.66-.35 4.85-.1 5.21.26.37 3.04.35 5.81.32 2.02-.03 4.23.03 4.51-.27.33-.35.27-1.72.35-2.83.08-1.13.19-2.12-.46-2.48-.46-.25-2.66-.15-4.6-.15-2.83 0-5.3-.07-5.51.2zm47.6-9.35c-.62.45-.58 4.62-.22 4.98.36.36 10.17.5 10.53.07.36-.43.36-4.62 0-4.98-.36-.36-9.81-.43-10.31-.07zm8.94 8.73c-.23.53-.29 4.11.07 4.76.36.65 10.55.52 10.77.23.22-.29.34-5.06.13-5.28-.22-.21-10.54-.72-10.97.29zm19.59 13.8c-.31.52-.31 4.42.18 4.91s5.58.36 5.85.04c.27-.31.18-4.6-.09-4.91-.27-.31-5.63-.58-5.94-.04zm-1.57 29.91c-.46.64-.4 4.2.04 4.37s5.98.18 6.34-.13c.36-.31.31-4.06.18-4.28-.13-.23-6.33-.27-6.56.04z"/><path style="fill:#728035" d="M78.6 119.19c.33 1 2.11.78 2.11.78s15.34-.11 18.57-.11c3.22 0 11.67-.22 11.67-.22s6.11-8.56 4.89-9.12c-1.22-.56-15.79 5.23-15.79 5.23s3.56-6.23 2.89-7c-.67-.78-10.53 2.74-12.67 3.67-8.78 3.77-11.67 6.77-11.67 6.77zm-68.04-5.33c-.16.94 3.22 3.34 4.78 4.67 1.43 1.23 3.45 2.33 3.45 2.33s9.23.11 14.68-.11 11.23.11 12.67-.11-.22-4.89-3.67-9.23c-3.45-4.34-5.89-6.11-6.67-5.67-.78.44.56 5.56.56 5.56s-11.67-4.45-12.12-3c-.44 1.45 2.33 6.34 2.33 6.34s-6.78-1.22-9.67-1.33-6.23-.12-6.34.55z"/><path style="fill:#858585" d="M80.95 118.94s.39-6.47 0-7.01-18.47-.16-21.82-.16-13.25-.16-13.64.31c-.39.47-.08 7.48-.08 7.48l5.69 3.51 29.85-4.13z"/><path style="fill:#5e6367" d="M45.41 124.24v-4.68s6.55-.55 16.99-.78c10.44-.23 18.55.16 18.55.16s-.47 2.73-.62 3.59c-.16.86-.86 1.79-.86 1.79l-34.06-.08z"/></svg>