<svg xmlns="http://www.w3.org/2000/svg" viewBox="0 0 128 128" style="enable-background:new 0 0 128 128" xml:space="preserve"><path style="fill:#e6a467" d="M28.93 111.74s-2.91-4.72 0-8.61l68.72-1.75s5.43 3.11 1.62 10.36c-2.28 4.32-15.74 7.38-35.17 7.38s-33.34-4.09-35.17-7.38z"/><path style="fill:#f7cf92" d="M28.83 103.12c0-1.61 10.11-9.97 10.11-9.97 6.36-3.13 44.25-2.35 50.12 0 0 0 10.11 8.06 10.11 9.97 0 3.21-15.86 7.26-35.28 7.26s-35.06-4.04-35.06-7.26z"/><linearGradient id="a" gradientUnits="userSpaceOnUse" x1="77.472" y1="63.264" x2="89.207" y2="63.264"><stop offset=".038" style="stop-color:#0091ea"/><stop offset="1" style="stop-color:#01579b"/></linearGradient><path style="fill:url(#a)" d="M38.94 29.23v62.23c0 1.15.67 2.2 1.73 2.67 2.75 1.23 9.32 3.17 23.33 3.17s20.58-1.94 23.33-3.17a2.932 2.932 0 0 0 1.73-2.67V29.23H38.94z"/><path style="fill:#0d47a1" d="M38.94 31.02v-2.09l50.12 2.09c0 3.46-11.22 6.27-25.06 6.27s-25.06-2.81-25.06-6.27z"/><radialGradient id="b" cx="43.638" cy="105.54" r="9.026" gradientTransform="matrix(.8601 -.4656 .9849 1.8193 -97.398 -67.042)" gradientUnits="userSpaceOnUse"><stop offset=".59" style="stop-color:#784d30;stop-opacity:0"/><stop offset=".834" style="stop-color:#784d30"/></radialGradient><path style="opacity:.32;fill:url(#b)" d="M38.75 93.31c-1.8 4.76-.62 9.68 1.99 14.05 2.61 4.37 6.48 7.82 10.36 11.13-2.55.14-5.04-.87-7.22-2.2-6.36-3.91-10.38-10.42-11.06-17.85"/><path style="fill:#0091ea" d="M73.81 125c-7.7 0-14.74-1.01-20.87-3.03-10.43-3.43-17.65-9.61-20.32-17.4C28.34 92.09 37.71 69 42.75 56.6c1.29-3.17 2.3-5.67 2.71-7.04a1.464 1.464 0 1 1 2.81.83c-.45 1.51-1.49 4.07-2.8 7.31-4.89 12.05-13.99 34.47-10.06 45.92 4.35 12.68 24.29 23.74 58.69 16.81.79-.15 1.8-.15 2.14.58.38.81-.35 1.57-1.15 1.73-7.49 1.51-14.63 2.26-21.28 2.26z"/><path style="fill:#c87d5e" d="M38.94 29.23s-5.82-3-10.08-7.4l69.41.92c-2.68 3.97-9.22 8.11-9.22 8.11s-4.55 2.25-25.49 2.25-24.62-3.88-24.62-3.88z"/><path style="fill:#e6a467" d="M28.86 21.83c-2.82-2.33-1.3-10.02.51-11.01 5.75-3.15 58.88-4.13 68.75-.45 3.44 1.29 3.05 8.66 1.08 11.46-2.55 3.61-15.74 5.82-35.17 5.82s-30.85-2.25-35.17-5.82z"/><ellipse style="fill:#f7cf92" cx="64" cy="12.02" rx="35.17" ry="7.02"/><ellipse style="fill:#784d30" cx="64" cy="10.78" rx="8.14" ry="2.47"/><linearGradient id="c" gradientUnits="userSpaceOnUse" x1="39.281" y1="38.468" x2="60.864" y2="38.468"><stop offset=".019" style="stop-color:#40c4ff;stop-opacity:0"/><stop offset=".49" style="stop-color:#40c4ff"/><stop offset=".994" style="stop-color:#40c4ff;stop-opacity:1.624770e-05"/></linearGradient><path style="fill:url(#c)" d="M39.28 37.8v-3.41c4.53 2.9 10.08 4.87 21.58 4.92l-.32 3.18c-10.63.4-17.51-1.28-21.26-4.69z"/><linearGradient id="d" gradientUnits="userSpaceOnUse" x1="39.224" y1="46.932" x2="60.864" y2="46.932"><stop offset=".019" style="stop-color:#40c4ff;stop-opacity:0"/><stop offset=".49" style="stop-color:#40c4ff"/><stop offset=".994" style="stop-color:#40c4ff;stop-opacity:1.624770e-05"/></linearGradient><path style="fill:url(#d)" d="m39.28 46.34-.05-3.51c4.34 2.87 10.03 4.88 21.64 4.94l-.26 3.18c-10.85.52-17.7-1.48-21.33-4.61z"/><linearGradient id="e" gradientUnits="userSpaceOnUse" x1="39.167" y1="55.395" x2="60.864" y2="55.395"><stop offset=".019" style="stop-color:#40c4ff;stop-opacity:0"/><stop offset=".49" style="stop-color:#40c4ff"/><stop offset=".994" style="stop-color:#40c4ff;stop-opacity:1.624770e-05"/></linearGradient><path style="fill:url(#e)" d="m39.27 54.88-.11-3.61c4.15 2.85 9.98 4.89 21.7 4.95l-.2 3.18c-11.06.65-17.87-1.66-21.39-4.52z"/><linearGradient id="f" gradientUnits="userSpaceOnUse" x1="39.11" y1="63.859" x2="60.864" y2="63.859"><stop offset=".019" style="stop-color:#40c4ff;stop-opacity:0"/><stop offset=".49" style="stop-color:#40c4ff"/><stop offset=".994" style="stop-color:#40c4ff;stop-opacity:1.624770e-05"/></linearGradient><path style="fill:url(#f)" d="m39.27 63.43-.16-3.71c3.96 2.82 9.94 4.9 21.75 4.96l-.15 3.18c-11.27.77-18.04-1.86-21.44-4.43z"/><linearGradient id="g" gradientUnits="userSpaceOnUse" x1="39.053" y1="72.323" x2="60.864" y2="72.323"><stop offset=".019" style="stop-color:#40c4ff;stop-opacity:0"/><stop offset=".49" style="stop-color:#40c4ff"/><stop offset=".994" style="stop-color:#40c4ff;stop-opacity:1.624770e-05"/></linearGradient><path style="fill:url(#g)" d="m39.27 71.97-.21-3.8c3.77 2.79 9.89 4.91 21.81 4.98l-.09 3.18c-11.49.88-18.23-2.07-21.51-4.36z"/><linearGradient id="h" gradientUnits="userSpaceOnUse" x1="38.997" y1="80.787" x2="60.864" y2="80.787"><stop offset=".019" style="stop-color:#40c4ff;stop-opacity:0"/><stop offset=".49" style="stop-color:#40c4ff"/><stop offset=".994" style="stop-color:#40c4ff;stop-opacity:1.624770e-05"/></linearGradient><path style="fill:url(#h)" d="m39.26 80.51-.26-3.9c3.58 2.77 9.85 4.92 21.87 4.99l-.03 3.18c-11.71 1-18.42-2.26-21.58-4.27z"/><linearGradient id="i" gradientUnits="userSpaceOnUse" x1="38.94" y1="89.251" x2="60.888" y2="89.251"><stop offset=".019" style="stop-color:#40c4ff;stop-opacity:0"/><stop offset=".49" style="stop-color:#40c4ff"/><stop offset=".994" style="stop-color:#40c4ff;stop-opacity:1.624770e-05"/></linearGradient><path style="fill:url(#i)" d="m39.26 89.05-.32-4c3.39 2.74 9.8 4.93 21.92 5l.02 3.18c-11.9 1.13-18.58-2.45-21.62-4.18z"/><linearGradient id="j" gradientUnits="userSpaceOnUse" x1="68.194" y1="38.434" x2="89.2" y2="38.434"><stop offset="0" style="stop-color:#01579b;stop-opacity:0"/><stop offset="1" style="stop-color:#01579b"/></linearGradient><path style="fill:url(#j)" d="M89.06 37.44v-3.08c-4.53 2.9-10.2 4.9-21.71 4.95l.32 3.18c11.19.2 17.46-1.14 21.39-5.05z"/><linearGradient id="k" gradientUnits="userSpaceOnUse" x1="68.384" y1="46.905" x2="89.106" y2="46.905"><stop offset="0" style="stop-color:#01579b;stop-opacity:0"/><stop offset="1" style="stop-color:#01579b"/></linearGradient><path style="fill:url(#k)" d="m89.04 46.04.02-3.23c-4.46 2.81-10.1 4.89-21.71 4.95l.32 3.18c11.02.36 17.57-1.3 21.37-4.9z"/><linearGradient id="l" gradientUnits="userSpaceOnUse" x1="68.573" y1="55.379" x2="89.011" y2="55.379"><stop offset="0" style="stop-color:#01579b;stop-opacity:0"/><stop offset="1" style="stop-color:#01579b"/></linearGradient><path style="fill:url(#l)" d="m89.03 54.64.03-3.37c-4.39 2.72-10 4.89-21.71 4.95l.31 3.18c10.86.52 17.69-1.47 21.37-4.76z"/><linearGradient id="m" gradientUnits="userSpaceOnUse" x1="68.762" y1="63.854" x2="88.917" y2="63.854"><stop offset="0" style="stop-color:#01579b;stop-opacity:0"/><stop offset="1" style="stop-color:#01579b"/></linearGradient><path style="fill:url(#m)" d="m89.01 63.24.05-3.52c-4.32 2.63-9.89 4.89-21.71 4.95l.31 3.18c10.69.68 17.8-1.63 21.35-4.61z"/><linearGradient id="n" gradientUnits="userSpaceOnUse" x1="68.951" y1="72.331" x2="88.823" y2="72.331"><stop offset="0" style="stop-color:#01579b;stop-opacity:0"/><stop offset="1" style="stop-color:#01579b"/></linearGradient><path style="fill:url(#n)" d="m88.99 71.85.07-3.66c-4.25 2.54-9.79 4.88-21.71 4.95l.31 3.18c10.52.83 17.91-1.81 21.33-4.47z"/><linearGradient id="o" gradientUnits="userSpaceOnUse" x1="69.141" y1="80.808" x2="88.728" y2="80.808"><stop offset="0" style="stop-color:#01579b;stop-opacity:0"/><stop offset="1" style="stop-color:#01579b"/></linearGradient><path style="fill:url(#o)" d="m88.97 80.45.09-3.81c-4.19 2.45-9.69 4.88-21.71 4.95l.31 3.18c10.35.99 18.03-1.97 21.31-4.32z"/><linearGradient id="p" gradientUnits="userSpaceOnUse" x1="69.33" y1="89.285" x2="88.634" y2="89.285"><stop offset="0" style="stop-color:#01579b;stop-opacity:0"/><stop offset="1" style="stop-color:#01579b"/></linearGradient><path style="fill:url(#p)" d="m88.96 89.05.1-3.95c-4.12 2.36-9.59 4.88-21.71 4.95l.31 3.18c10.18 1.15 18.14-2.14 21.3-4.18z"/></svg>