<svg xmlns="http://www.w3.org/2000/svg" viewBox="0 0 128 128" style="enable-background:new 0 0 128 128" xml:space="preserve"><path style="fill:#232020" d="M103.04 58.65c0 1.3-.01 2.63-.02 3.98 0 .68-.01 1.36-.02 2.04l-.03 2.08a385.698 385.698 0 0 1-.8 19.44c-.05.77-.11 1.55-.17 2.32-.06.73-.11 1.47-.18 2.2a226.924 226.924 0 0 1-.51 5.35c-.04.4-.08.79-.13 1.19-.16 1.43-.33 2.86-.52 4.26-.07.56-.15 1.12-.23 1.67-.31 2.23-.67 4.41-1.06 6.53-.12.62-.24 1.25-.36 1.86-.16.77-.32 1.53-.48 2.28-.12.54-.24 1.07-.37 1.59a78.877 78.877 0 0 1-1.4 5.18c-.16.54-.33 1.07-.51 1.59-.11.32-.21.64-.33.95-.09.27-.18.54-.28.8H32.42c-.1-.26-.19-.53-.28-.8-.11-.31-.22-.63-.33-.95-.13-.38-.25-.76-.37-1.15-.09-.27-.17-.55-.25-.82-.51-1.67-.98-3.44-1.4-5.28-.17-.72-.33-1.45-.49-2.18-.01-.05-.02-.1-.03-.16-.15-.73-.3-1.46-.44-2.2-.08-.39-.15-.78-.22-1.18-.1-.53-.19-1.06-.28-1.6-.08-.45-.16-.9-.23-1.36-.09-.54-.17-1.09-.26-1.64-.62-4.17-1.12-8.52-1.51-12.95a325.822 325.822 0 0 1-.76-10.88c-.07-1.43-.14-2.86-.2-4.28-.01-.41-.03-.82-.04-1.23-.11-2.9-.19-5.77-.23-8.55l-.03-2.08c-.01-.68-.02-1.36-.02-2.04-.01-1.35-.02-2.68-.02-3.98 0-.6-.32-38.73 39.56-38.73s38.45 38.13 38.45 38.73z"/><radialGradient id="a" cx="64.037" cy="58.721" r="43.451" gradientTransform="matrix(1 0 0 -1.1901 0 139.16)" gradientUnits="userSpaceOnUse"><stop offset=".794" style="stop-color:#444140;stop-opacity:0"/><stop offset="1" style="stop-color:#444140"/></radialGradient><path style="fill:url(#a)" d="M103.04 58.65c0 1.3-.01 2.63-.02 3.98 0 .68-.01 1.36-.02 2.04l-.03 2.08a385.698 385.698 0 0 1-.8 19.44c-.05.77-.11 1.55-.17 2.32-.06.73-.11 1.47-.18 2.2a226.924 226.924 0 0 1-.51 5.35c-.04.4-.08.79-.13 1.19-.16 1.43-.33 2.86-.52 4.26-.07.56-.15 1.12-.23 1.67-.31 2.23-.67 4.41-1.06 6.53-.12.62-.24 1.25-.36 1.86-.16.77-.32 1.53-.48 2.28-.12.54-.24 1.07-.37 1.59a78.877 78.877 0 0 1-1.4 5.18c-.16.54-.33 1.07-.51 1.59-.11.32-.21.64-.33.95-.09.27-.18.54-.28.8H32.42c-.1-.26-.19-.53-.28-.8-.11-.31-.22-.63-.33-.95-.13-.38-.25-.76-.37-1.15-.09-.27-.17-.55-.25-.82-.51-1.67-.98-3.44-1.4-5.28-.17-.72-.33-1.45-.49-2.18-.01-.05-.02-.1-.03-.16-.15-.72-.3-1.45-.44-2.2-.08-.39-.15-.78-.22-1.18-.1-.53-.19-1.06-.28-1.6-.08-.45-.16-.9-.23-1.36-.09-.54-.17-1.09-.26-1.64-.62-4.17-1.12-8.52-1.51-12.95a325.822 325.822 0 0 1-.76-10.88c-.07-1.43-.14-2.86-.2-4.28-.01-.41-.03-.82-.04-1.23-.11-2.9-.19-5.77-.23-8.55l-.03-2.08c-.01-.68-.02-1.36-.02-2.04-.01-1.35-.02-2.68-.02-3.98 0-.6-.32-38.73 39.56-38.73s38.45 38.13 38.45 38.73z"/><linearGradient id="b" gradientUnits="userSpaceOnUse" x1="64.227" y1="52.497" x2="64.227" y2="1.658" gradientTransform="matrix(1 0 0 -1 0 128)"><stop offset="0" style="stop-color:#651fff"/><stop offset=".705" style="stop-color:#5914f2"/><stop offset="1" style="stop-color:#530eeb"/></linearGradient><path style="fill:url(#b)" d="M113.05 91.9C99.03 77.41 68.83 76.36 64.5 76.28v-.01h-.54v.01c-4.33.08-34.54 1.13-48.55 15.62-10.21 10.56-8 20.8-5.88 23.81 4.01 5.68 14.75 8.25 14.75 8.25h79.9s10.74-2.57 14.75-8.25c2.12-3.01 4.33-13.25-5.88-23.81z"/><radialGradient id="c" cx="63.888" cy="19.656" r="38.651" gradientTransform="matrix(1 0 0 -.4142 0 116.495)" gradientUnits="userSpaceOnUse"><stop offset=".771" style="stop-color:#000"/><stop offset="1" style="stop-color:#000;stop-opacity:0"/></radialGradient><path style="opacity:.2;fill:url(#c);enable-background:new" d="M64 92.7c-27.26 0-36.19 11.06-36.19 11.06l11.02 6.17c.78.53 1.07 1.54.68 2.39l-.55 1.23L54.04 124h19.92l15.08-10.45-.55-1.23c-.39-.85-.1-1.86.68-2.39l10.8-6.3c0 .01-8.71-10.93-35.97-10.93z"/><path style="fill:#3c2b24" d="M64 87.08h-9.08v9.98c0 4.51 4.29 8.17 9.08 8.17s9.08-3.66 9.08-8.17v-9.98H64z"/><linearGradient id="d" gradientUnits="userSpaceOnUse" x1="61.808" y1="9.227" x2="40.443" y2="9.227" gradientTransform="matrix(1 0 0 -1 0 128)"><stop offset=".5" style="stop-color:#70534a"/><stop offset="1" style="stop-color:#5c4037"/></linearGradient><path style="fill:url(#d)" d="m38.96 113.56 3.31.2c1.22 0 2.42.18 3.58.53 3.6 1.1 11.54 3.87 15.85 4.97 1.06.27 1.79 1.22 1.79 2.32 0 .66-.27 1.26-.7 1.69-.44.44-1.04.71-1.7.71H34.56l4.4-10.42z"/><linearGradient id="e" gradientUnits="userSpaceOnUse" x1="67.808" y1="9.227" x2="88.322" y2="9.227" gradientTransform="matrix(1 0 0 -1 0 128)"><stop offset=".5" style="stop-color:#70534a"/><stop offset="1" style="stop-color:#5c4037"/></linearGradient><path style="fill:url(#e)" d="m89.04 113.56-3.31.2c-1.22 0-2.42.18-3.58.53-3.6 1.1-11.53 3.87-15.84 4.97-1.07.27-1.8 1.22-1.8 2.32 0 .66.27 1.26.7 1.69.44.44 1.04.71 1.7.71h26.46l-4.33-10.42z"/><path style="fill:#70534a" d="M64 25.31c-16.67 0-32.1 16.21-32.1 39.54 0 23.2 15.9 34.67 32.1 34.67s32.1-11.47 32.1-34.67c0-23.33-15.44-39.54-32.1-39.54z"/><path style="fill:#33251f" d="M67.69 83.76c-.1-.04-.21-.06-.31-.07h-6.77c-.1.01-.21.03-.31.07-.61.23-.95.81-.66 1.42s1.64 2.35 4.36 2.35c2.72 0 4.07-1.73 4.36-2.35.29-.61-.05-1.19-.67-1.42z"/><ellipse style="fill:#1a1717" cx="47.56" cy="74.81" rx="4.93" ry="4"/><ellipse style="fill:#1a1717" cx="80.44" cy="74.81" rx="4.93" ry="4"/><path style="fill:#1a1717" d="M54.99 65.82c-.93-1.23-3.07-3.01-7.23-3.01s-6.31 1.79-7.23 3.01c-.41.54-.31 1.17-.02 1.55.26.35 1.04.68 1.9.39s2.54-1.16 5.35-1.18c2.81.02 4.49.89 5.35 1.18.86.29 1.64-.04 1.9-.39.28-.38.38-1.01-.02-1.55zm32.49 0c-.93-1.23-3.07-3.01-7.23-3.01s-6.31 1.79-7.23 3.01c-.41.54-.31 1.17-.02 1.55.26.35 1.04.68 1.9.39s2.54-1.16 5.35-1.18c2.81.02 4.49.89 5.35 1.18.86.29 1.64-.04 1.9-.39.29-.38.39-1.01-.02-1.55z"/><path style="fill:#232020" d="M32.42 81.72c.54-5.83 2.74-18.92 7.73-20.08C61.9 56.59 74.2 44.66 74.2 44.66c3.2 7.23 13.21 14.27 16.8 16.95 2.46 1.83 3.49 13.59 3.74 19.67l7.08 2.84h.47c0-.05.02-.1.02-.16.55-8.79.73-17.55.73-25.31 0-.6 1.43-38.73-38.45-38.73S25.03 58.05 25.03 58.65c0 7.8.18 16.62.73 25.47h.88l5.78-2.4z"/><radialGradient id="f" cx="64.361" cy="48.158" r="48.438" gradientTransform="matrix(1 0 0 -1.2135 0 138.286)" gradientUnits="userSpaceOnUse"><stop offset=".794" style="stop-color:#444140;stop-opacity:0"/><stop offset="1" style="stop-color:#444140"/></radialGradient><path style="fill:url(#f)" d="M32.42 81.72c.54-5.83 2.74-18.92 7.73-20.08C61.9 56.59 74.2 44.66 74.2 44.66c3.2 7.23 13.21 14.27 16.8 16.95 2.46 1.83 3.49 13.59 3.74 19.67l7.08 2.84h.47c0-.05.02-.1.02-.16.55-8.79.73-17.55.73-25.31 0-.6 1.43-38.73-38.45-38.73S25.03 58.05 25.03 58.65c0 7.8.18 16.62.73 25.47h.88l5.78-2.4z"/><path style="fill:none;stroke:#b0bec5;stroke-width:4;stroke-linecap:round;stroke-miterlimit:10" d="M52.56 15.99 49.86 5.9m-12.9 16.68-6.66-6.54m60.01 7.38 7.39-7.38m-22.26-.05 2.7-10.09"/></svg>