<svg xmlns="http://www.w3.org/2000/svg" viewBox="0 0 128 128" style="enable-background:new 0 0 128 128" xml:space="preserve"><path style="fill:#5731a5" d="m55.78 36.45-18.82 2.8-20.35-10.74S14.86 39.04 26.87 43.1c10.81 3.65 24.45 3.39 38.4 3.61 14.41.22 23.31-.32 26.49 2.33 1.8 1.5.67 4.46.67 4.46s7.06-1.01 7.06-1.37-.09-8.75-.8-9.02c-.71-.27-23.57-6.52-23.57-6.52l-9.21-.06c-4.91-.04-9.94-.07-10.13-.08z"/><path style="fill:#5731a5" d="m25.7 32.19-2.32-6.61 5-2.32 9.92 3.66 7.24.63s-.09 2.51-7.41 2.16c-8.03-.39-9.03-1.82-10.06-.96-.99.82-.6 2.49.38 3.41 2.01 1.88 6.53 2.95 6.53 2.95l-9.28-2.92zm2.06 29.66s-1.61 2.77-1.16 6.7c.45 3.93 3.39 8.22 10.09 10.27s18.85 3.75 28.68 4.73 18.4 2.14 20.37 3.13c1.97.98 1.34 3.13 1.61 3.39.27.27 3.57 1.34 4.38.89.8-.45.63-8.4.63-8.4l-16.62-8.31s-3.77-.49-10.14-1.13c-5.66-.58-9.19-1.17-9.19-1.17s-14.79.52-15.51-.2c-.72-.7-13.14-9.9-13.14-9.9zm27.8 43.91 19.27 2.63 4.82 4.38 8.4 4.91 3.39 4.02s-.34 2.19-2.41 1.34c-1.97-.8-2.23-3.66-7.95-5.99s-10.45-2.32-15.99-2.68-16.79-1.7-21.89-3.57c-4.17-1.54-7.68-4.46-7.86-9.02-.22-5.45 4.71-7.5 4.71-7.5l4.04 10.63 11.47.85z"/><path style="fill:#7855bd" d="M61.21 24.67v95.41c0 2.33.78 4.36 4.19 4.34 3.98-.02 4.28-2.16 4.26-3.87-.02-1.97-.08-96.03-.08-96.03l-8.37.15zM34.9 34.88c-7.85-1.59-10.67-5.35-9.54-8.08.94-2.27 4.03-1.95 5.43-1.32.97.43 4.04 2.51 8.15 2.79s6.59-.72 6.59-.72.3-.76-1.09-.88c-2.07-.18-3.56-.07-3.48-1.18.07-.95 1.98-1.11 3.85-1.32 2.49-.28 4.11-.65 4.22-1.33.08-.48-3.08-8.38-14.24-7.95-10.93.42-18.42 6.77-18.28 15.05.11 6.41 8.37 9.94 16.94 11.39 8.6 1.46 22.34 1.44 22.34 1.44v-6.33c.01-.01-12.32.19-20.89-1.56zm.18-13.44c.03-1.26.58-2.57 2.25-2.5 1.45.06 1.93 1.51 1.9 2.64-.03 1.13-.8 2.29-2.09 2.19-1.29-.09-2.1-1.14-2.06-2.33z"/><path style="fill:#5731a5" d="M61.21 24.67v4.1s1.29 1.49 4.27 1.42 4.12-1.15 4.12-1.15l.03-4.16s4.26-.87 6.1-5.1c1.69-3.89 1.06-7.86 1.06-7.86L55 11.81s-.94 4.5.81 8.21c1.87 3.97 5.4 4.65 5.4 4.65z"/><path style="fill:#7855bc" d="M65.69 20.17c9.17.24 11.15-7.72 11.15-7.72s-.68-8.93-11.04-9.12c-9-.17-10.68 7.9-10.81 8.48s2.09 8.14 10.7 8.36z"/><path style="fill:#5731a5" d="M104.93 47.44s.74 2.08-.25 7.17c-.32 1.62-2.55 7.18-12.76 8.77-9.69 1.51-22.35 1.65-22.35 1.65v3.91s-2.35.35-4.44.35-3.89-.48-3.89-.48v-3.78s-14.13.13-16.55.13c-1.3 0-4.36.33-4.36 2.5 0 2.79 4.72 4.24 4.72 4.24s-9.48.78-9.57.09c-.09-.7.96-12.18.96-12.18l30.35-2.35s26.09-.26 27.31-.7c1.22-.43 10.83-9.32 10.83-9.32zm-57.97 55.77s-.73-2.65 2.87-2.69c2.5-.02 11.37.15 11.37.15v5.3l8.45.02-.01-5.16s17.31.51 22.76-2.27c7.17-3.65 7.48-7.9 7.4-11.6-.09-3.7-7.68 1.37-7.68 1.37l-8 6.17-27.78.45-13.6 2.75-.26 6.8 4.48-1.29z"/><path style="fill:#7957bb" d="m74.75 112.81.08-4.42s6.37 1.03 10.05 3.82c5.93 4.52 6.44 8.36 6.57 9.49.13 1.13-3.58-3.02-5.1-4.21-5.79-4.51-11.6-4.68-11.6-4.68z"/><path style="fill:#7855bc" d="m55.68 110.46-.08-4.71s-9.84-1.18-9.87-4.33c-.02-2.59 1.93-3.47 8.75-3.2 6.69.26 30.89 1.39 39.22-3.19 3.68-2.02 6.05-4.6 6.1-7.93.04-2.74-1.19-5.24-4.39-7.45-6.13-4.23-19.68-5.37-19.68-5.37l-.16 6.52s12.63 1.4 12.99 6.46c.31 4.28-18.35 4.78-23.58 4.75-8.47-.05-28.41-1.86-28.26 7.4.12 6.9 8.15 9.36 13.72 10.23 2.98.44 5.24.82 5.24.82z"/><path style="fill:#7855bd" d="m55.55 79.16.85-7.21s-3.07-.39-6.29-.79c-5.04-.63-11.68-2.12-11.58-5.01.19-5.52 9.96-4.73 20.31-4.59 17.51.23 32.28-.87 37.43-2.1 7.78-1.87 9.11-6.7 8.87-10.82-.2-3.55-1.68-5.82-4.45-7.83-2.39-1.73-5.79-2.7-9.38-3.21-5.61-.8-16.21-1.03-16.21-1.03l.08 6.63s13.04.26 16.03 1.4c4.9 1.87 3.66 8.09-1.63 9.1s-14.67 1.24-24.74 1.48c-6.35.15-26.62-1.94-34.36 3.77-1.83 1.35-3.3 3.14-3.39 5.5-.36 9.28 12.89 11.8 21.36 13.5 4.06.82 7.1 1.21 7.1 1.21z"/></svg>