<svg xmlns="http://www.w3.org/2000/svg" viewBox="0 0 128 128" style="enable-background:new 0 0 128 128" xml:space="preserve"><radialGradient id="a" cx="63.6" cy="1696.9" r="56.96" gradientTransform="translate(0 -1634)" gradientUnits="userSpaceOnUse"><stop offset=".5" style="stop-color:#fde030"/><stop offset=".92" style="stop-color:#f7c02b"/><stop offset="1" style="stop-color:#f4a223"/></radialGradient><path style="fill:url(#a)" d="M63.6 118.8c-27.9 0-58-17.5-58-55.9S35.7 7 63.6 7c15.5 0 29.8 5.1 40.4 14.4 11.5 10.2 17.6 24.6 17.6 41.5s-6.1 31.2-17.6 41.4c-10.6 9.3-25 14.5-40.4 14.5z"/><path style="fill:#eb8f00" d="M111.49 29.67c5.33 8.6 8.11 18.84 8.11 30.23 0 16.9-6.1 31.2-17.6 41.4-10.6 9.3-25 14.5-40.4 14.5-18.06 0-37-7.35-48.18-22.94 10.76 17.66 31 25.94 50.18 25.94 15.4 0 29.8-5.2 40.4-14.5 11.5-10.2 17.6-24.5 17.6-41.4 0-12.74-3.47-24.06-10.11-33.23z"/><linearGradient id="b" gradientUnits="userSpaceOnUse" x1="63.6" y1="1752.8" x2="63.6" y2="1641" gradientTransform="translate(0 -1634)"><stop offset=".39" style="stop-color:#40c0e7;stop-opacity:0"/><stop offset="1" style="stop-color:#5f7aff"/></linearGradient><path style="fill:url(#b)" d="M63.6 118.8c-27.9 0-58-17.5-58-55.9S35.7 7 63.6 7c15.5 0 29.8 5.1 40.4 14.4 11.5 10.2 17.6 24.6 17.6 41.5s-6.1 31.2-17.6 41.4c-10.6 9.3-25 14.5-40.4 14.5z"/><path style="fill:#422b0d" d="M44 49.94c-4.19 0-8 3.54-8 9.42s3.81 9.41 8 9.41c4.2 0 8-3.54 8-9.41s-3.76-9.42-8-9.42z"/><path style="fill:#896024" d="M43.65 53.87a2.874 2.874 0 0 0-3.82 1.34c-.53 1.11-.29 2.44.6 3.3 1.42.68 3.13.08 3.82-1.34.53-1.11.29-2.44-.6-3.3z"/><path style="fill:#422b0d" d="M82.4 49.94c-4.19 0-8 3.54-8 9.42s3.81 9.41 8 9.41c4.19 0 8-3.54 8-9.41s-3.81-9.42-8-9.42z"/><path style="fill:#896024" d="M82 53.87a2.874 2.874 0 0 0-3.82 1.34c-.53 1.11-.29 2.44.6 3.3 1.42.68 3.13.08 3.82-1.34.53-1.11.29-2.44-.6-3.3z"/><path style="fill:#422b0d" d="M52.7 103c-3.35 0-6.45-1.74-8.2-4.6a8 8 0 0 1 .4-8.9c4.3-6 10.9-9.2 19.1-9.2s14.8 3.2 19.1 9.2a8 8 0 0 1 .4 8.9 9.606 9.606 0 0 1-8.2 4.6c-1.05-.01-2.1-.18-3.1-.5a26.56 26.56 0 0 0-16.4 0c-1 .31-2.05.48-3.1.5zm30.7-71.69h-.1c-1.01.08-1.9-.67-1.99-1.68-.08-1.01.67-1.9 1.68-1.99 1.93-.29 3.9-.27 5.83.05 5.23.8 9.96 3.56 13.22 7.73 1.49 2-1.14 3.9-2.79 2.4-4.4-3.89-9.98-6.18-15.85-6.51zm-38.55 0H45c1.02.02 1.85-.79 1.87-1.81.02-.92-.66-1.72-1.57-1.85-1.93-.29-3.9-.27-5.83.05-5.24.79-9.97 3.56-13.23 7.73-1.48 2 1.15 3.9 2.79 2.4a26.23 26.23 0 0 1 15.82-6.52z"/></svg>