<svg xmlns="http://www.w3.org/2000/svg" viewBox="0 0 128 128" style="enable-background:new 0 0 128 128" xml:space="preserve"><linearGradient id="a" gradientUnits="userSpaceOnUse" x1="77.018" y1="71.379" x2="77.018" y2="109.706" gradientTransform="translate(0 2)"><stop offset="0" style="stop-color:#ffb300"/><stop offset=".5" style="stop-color:#ffca28"/></linearGradient><path style="fill:url(#a)" d="M87.45 86.8c-1.78-1.92-4.11-4.42-6.15-6.58-3.96-4.17-8.8-7.29-8.8-7.29l-8.05 8.64s3.13 5.76 7.12 9.19c1.95 1.68 4.39 3.39 6.38 4.71-.3.99-.6 2.28-.73 3.82-.38 4.78.36 11.08.39 11.78.12 3.66.16 6.37.16 6.37l6.34-.02L89.39 94c.58-2.57-.14-5.27-1.94-7.2z"/><linearGradient id="b" gradientUnits="userSpaceOnUse" x1="50.982" y1="71.379" x2="50.982" y2="109.706" gradientTransform="translate(0 2)"><stop offset="0" style="stop-color:#ffb300"/><stop offset=".5" style="stop-color:#ffca28"/></linearGradient><path style="fill:url(#b)" d="M55.49 72.93s-4.84 3.12-8.79 7.3c-2.04 2.16-4.37 4.66-6.15 6.58a7.983 7.983 0 0 0-1.94 7.2l5.28 23.42 6.34.02s.04-2.71.16-6.37c.02-.7.77-7 .39-11.78-.12-1.54-.43-2.83-.73-3.82 1.99-1.32 4.43-3.03 6.38-4.71 3.99-3.43 7.12-9.19 7.12-9.19l-8.06-8.65z"/><path style="fill:#e0e0e0" d="m42.29 111.07 1.61 6.35 6.34.02.14-6.37z"/><path style="fill:#4568ad" d="M52.42 119.94c-.01-1.92-1.66-4.1-1.66-4.1h-7.75l-5.98 2.11a4.036 4.036 0 0 0-2.56 3.75v1.28c0 .56.45 1.02 1.01 1.02l15.79-.05c.64 0 1.16-.52 1.16-1.17l-.01-2.84z"/><path style="fill:#e0e0e0" d="m77.61 111.07.17 6.37 6.33-.02 1.6-6.35z"/><path style="fill:#4568ad" d="M90.97 117.95 85 115.84h-7.75s-1.66 2.18-1.66 4.11l-.01 2.84c0 .64.52 1.16 1.16 1.17l15.78.04c.56 0 1.01-.45 1.01-1.02v-1.28c0-1.66-1.02-3.14-2.56-3.75z"/><linearGradient id="c" gradientUnits="userSpaceOnUse" x1="80.671" y1="41.656" x2="93.508" y2="20.633" gradientTransform="translate(0 2)"><stop offset="0" style="stop-color:#ffb300"/><stop offset=".5" style="stop-color:#ffca28"/></linearGradient><path style="fill:url(#c)" d="m96.26 23.12-4.54-2.29c-3.63 3.56-5.35 6.61-6.97 11.92-3.43 1.63-6.39 4.62-8.31 7.71-2.04 2.81-3.32 4.37-4.79 7.16-1.11 2.12-.31 4.48 1.7 5.95.95.7 1.72 1 2.47 1 .84 0 1.64-.39 2.62-1.05 2.07-1.18 4.88-4.3 6.68-6.62l-.05-.03c2.29-2.85 4.6-6.87 5.75-10.67 3.22-3.36 5.44-7.77 5.44-13.08z"/><linearGradient id="d" gradientUnits="userSpaceOnUse" x1="47.197" y1="41.477" x2="34.267" y2="20.733" gradientTransform="translate(0 2)"><stop offset="0" style="stop-color:#ffb300"/><stop offset=".5" style="stop-color:#ffca28"/></linearGradient><path style="fill:url(#d)" d="M56.35 47.63c-1.47-2.79-2.75-4.35-4.79-7.16-1.92-3.09-4.88-6.08-8.31-7.71-1.63-5.33-3.35-8.37-6.98-11.93l-4.53 2.3c0 5.31 2.22 9.71 5.44 13.08 1.15 3.79 3.45 7.82 5.75 10.67l-.05.03c1.8 2.32 4.61 5.44 6.68 6.62.98.66 1.78 1.05 2.62 1.05.75 0 1.52-.31 2.47-1 2-1.47 2.81-3.84 1.7-5.95z"/><linearGradient id="e" gradientUnits="userSpaceOnUse" x1="64" y1="44.123" x2="64" y2="69.62" gradientTransform="translate(0 2)"><stop offset="0" style="stop-color:#00bfa5"/><stop offset=".705" style="stop-color:#00b29a"/><stop offset="1" style="stop-color:#00ab94"/></linearGradient><path style="fill:url(#e)" d="M76.44 40.46c-1.79 2.46-2.99 3.97-4.25 6.18-1.23-.32-2.62-.5-4.16-.5h-8.17c-1.51 0-2.86.18-4.06.49-1.26-2.21-2.46-3.72-4.25-6.18l-8.67 6.45c1.8 2.32 5.68 6.62 5.68 6.62.83 4.06 5.61 20.2 5.61 20.2h20.27l5.17-20.28s3.75-4.28 5.51-6.53l-8.68-6.45z"/><path style="fill:#e59600" d="M60.53 46.84c0 1.66 1.41 3.01 3.15 3.01h.63c1.74 0 3.15-1.35 3.15-3.01v-3.67h-6.93v3.67zm-4.99-8.24c-1.55 0-2.82-1.36-2.82-3.03s1.26-3.03 2.82-3.03h16.92c1.55 0 2.82 1.36 2.82 3.03s-1.26 3.03-2.82 3.03H55.54z"/><path style="fill:#ffca28" d="M64 19.95c-5.36 0-10.32 5.73-10.32 13.97 0 8.2 5.11 12.25 10.32 12.25s10.32-4.05 10.32-12.25c0-8.24-4.96-13.97-10.32-13.97z"/><path style="fill:#e59600" d="m65.19 37.49-.1-.03H62.9c-.03 0-.07.01-.1.03-.2.08-.31.29-.21.51.09.22.53.83 1.41.83.88 0 1.31-.61 1.41-.83a.38.38 0 0 0-.22-.51z"/><path style="fill:#795548" d="M66.6 39.97c-.99.59-4.22.59-5.2 0-.57-.34-1.15.18-.91.69.23.51 2 1.68 3.52 1.68s3.27-1.17 3.5-1.68-.34-1.03-.91-.69z"/><ellipse style="fill:#404040" cx="58.98" cy="34.62" rx="1.5" ry="1.56"/><ellipse style="fill:#404040" cx="69.02" cy="34.62" rx="1.5" ry="1.56"/><path style="fill:#6d4c41" d="M56.71 31.97c.97-1.37 3.24-1.42 4.38-.25.2.2.41.47.26.76-.17.33-.5.27-.78.16-.74-.3-1.5-.43-2.29-.27-.34.07-.64.21-.96.33-.45.15-.89-.31-.61-.73zm14 .73c-.68-.29-1.36-.47-2.11-.38-.34.04-.67.13-.99.25-.25.1-.52.26-.78.08-.74-.51.58-1.35.96-1.52.84-.36 1.84-.33 2.65.09.32.17.67.41.86.73.24.41-.12.94-.59.75z"/><path style="fill:#543930" d="M64 18.04h-.01c-13.83.07-11 15.87-11 15.87s.62 1.63.9 2.35c.04.1.19.09.22-.02.3-1.32 1.36-6.01 1.9-7.43a1.86 1.86 0 0 1 2.07-1.17c1.36.25 3.51.55 5.9.55h.06c2.38 0 4.54-.3 5.9-.55.88-.16 1.75.33 2.07 1.17.53 1.42 1.59 6.08 1.89 7.42.02.11.18.12.22.02l.91-2.33c-.03 0 2.81-15.8-11.03-15.88z"/><radialGradient id="f" cx="64" cy="29.27" r="11.597" gradientTransform="matrix(1 0 0 1.1282 0 -1.867)" gradientUnits="userSpaceOnUse"><stop offset=".794" style="stop-color:#6d4c41;stop-opacity:0"/><stop offset="1" style="stop-color:#6d4c41"/></radialGradient><path style="fill:url(#f)" d="M75 33.92s2.83-15.8-11-15.87h-.02c-.22 0-.43.01-.63.01-.41.02-.81.05-1.19.09h-.01c-.03 0-.05.01-.08.01-11.65 1.47-9.08 15.75-9.08 15.75l.91 2.34c.04.1.19.09.21-.01.3-1.33 1.36-6 1.89-7.42a1.86 1.86 0 0 1 2.07-1.17c1.36.25 3.51.55 5.9.55h.06c2.38 0 4.54-.3 5.9-.55.88-.16 1.75.33 2.07 1.17.54 1.42 1.6 6.12 1.89 7.43.02.11.17.12.21.02.28-.72.9-2.35.9-2.35z"/><radialGradient id="g" cx="35.39" cy="19.198" r="5.677" gradientTransform="translate(0 2)" gradientUnits="userSpaceOnUse"><stop offset="0" style="stop-color:#ffb300"/><stop offset=".5" style="stop-color:#ffca28"/></radialGradient><path style="fill:url(#g)" d="M40.26 17.16c-.9-.53-5.17-1.2-8.12-1.2-1.62 0-2.83.21-2.83.76l-.01 3.43c-.01 3.45 2.24 6.27 5.96 6.28h.01c6.74 0 7.27-7.94 4.99-9.27z"/><path style="fill:#eda600" d="M40.02 20.82c-.04.13-.39.26-.77.36h-.01c-.44.11-.96.33-1.93.6-1.35.38-1.46 2.19-1.46 2.19-.25-.94.39-2.59 1.28-2.97v-.01c.42-.2.89-.31 1.39-.39.08-.01.28-.02.53-.01h.01c.45.01 1.01.07.96.23z"/><linearGradient id="h" gradientUnits="userSpaceOnUse" x1="64" y1="13.379" x2="64" y2="19.437" gradientTransform="translate(0 2)"><stop offset="0" style="stop-color:#bdbdbd"/><stop offset="1" style="stop-color:#757575"/></linearGradient><path style="fill:url(#h)" d="M124 18.5c0 1.38-.73 2.5-1.64 2.5H5.64C4.74 21 4 19.88 4 18.5S4.74 16 5.64 16h116.71c.91 0 1.65 1.12 1.65 2.5z"/><radialGradient id="i" cx="-102.258" cy="115.861" r="24.348" gradientTransform="matrix(0 .9016 .507 0 -37.874 100.877)" gradientUnits="userSpaceOnUse"><stop offset=".396" style="stop-color:#9e9e9e"/><stop offset=".79" style="stop-color:#646464"/></radialGradient><path style="fill:url(#i)" d="M20.92 32.99c3.31 0 6-2.69 6-6V10.14c0-3.31-2.69-6-6-6s-6 2.69-6 6v16.85c0 3.31 2.68 6 6 6z"/><radialGradient id="j" cx="-1251.918" cy="123.75" r="24.348" gradientTransform="matrix(0 .9016 -.507 0 169.876 1137.497)" gradientUnits="userSpaceOnUse"><stop offset=".396" style="stop-color:#9e9e9e"/><stop offset=".79" style="stop-color:#646464"/></radialGradient><path style="fill:url(#j)" d="M107.08 32.99c-3.31 0-6-2.69-6-6V10.14c0-3.31 2.69-6 6-6s6 2.69 6 6v16.85c0 3.31-2.68 6-6 6z"/><radialGradient id="k" cx="-172.46" cy="114.075" r="3.543" gradientTransform="matrix(1.3333 0 0 -2.3062 240.163 275.933)" gradientUnits="userSpaceOnUse"><stop offset=".441" style="stop-color:#9e9e9e"/><stop offset=".985" style="stop-color:#646464"/></radialGradient><path style="fill:url(#k)" d="M10 27.22c2.21 0 4-1.79 4-4v-9.31c0-2.21-1.79-4-4-4s-4 1.79-4 4v9.31c0 2.21 1.79 4 4 4z"/><radialGradient id="l" cx="-1204.1" cy="114.075" r="3.543" gradientTransform="matrix(-1.3333 0 0 -2.3062 -1487.734 275.933)" gradientUnits="userSpaceOnUse"><stop offset=".441" style="stop-color:#9e9e9e"/><stop offset=".985" style="stop-color:#646464"/></radialGradient><path style="fill:url(#l)" d="M118 27.22c-2.21 0-4-1.79-4-4v-9.31c0-2.21 1.79-4 4-4s4 1.79 4 4v9.31c0 2.21-1.79 4-4 4z"/><path style="fill:#646464" d="M38.61 21h-9.33l-.8-5h10.13z"/><linearGradient id="m" gradientUnits="userSpaceOnUse" x1="34.798" y1="14.626" x2="34.903" y2="11.312" gradientTransform="translate(0 2)"><stop offset="0" style="stop-color:#ffb300"/><stop offset=".5" style="stop-color:#ffca28"/></linearGradient><path style="fill:url(#m)" d="m41.22 15.04-.29 1.55-.06.34-.14.75-.08.44a1.88 1.88 0 0 1-2.18 1.5c-.46-.08-.85-.32-1.12-.68-.33.3-.76.47-1.23.47-.28 0-1.16-.39-1.31-.54a.689.689 0 0 1-.11-.13c-.04.03-.08.07-.12.1-.02.01-.59.35-1.17.34-.54-.01-1.08-.34-1.24-.5-.16.23-.38.43-.64.57-.18.11-.38.18-.6.21-.1.02-.2.03-.3.03-.4 0-.79-.13-1.11-.37-.42-.3-.69-.74-.76-1.24l-.13-.85v-.01l-.17-1.09c-.08-.5.04-1 .34-1.41.3-.42.74-.69 1.24-.76.12-.02.24-.03.36-.02.03 0 .07 0 .1.01.32.02.64.13.92.33.04.03.07.06.1.08.06-.23.18-.45.33-.63.04-.06.08-.11.13-.16.06-.07.11-.1.13-.12.01 0 .01-.01.01-.01.3-.26.69-.42 1.12-.44.14-.01.28 0 .41.02.1.02.19.05.28.08.26.08.49.21.69.39.06-.08.13-.16.2-.23.1-.1.21-.19.32-.26.06-.04.13-.07.19-.11.25-.12.53-.18.82-.17.32 0 .63.08.91.24.05.02.09.05.13.08.1.07.19.15.28.24.16.16.29.35.38.55.12-.18.28-.35.47-.48.04-.03.09-.06.14-.08.2-.11.41-.19.63-.22.21-.03.42-.03.63.01.5.09.92.37 1.21.78.28.42.38.91.29 1.4z"/><path style="fill:#7c7c7c" d="m75.45 74.12-.7-1.96H53.78l-.38 2-9 7.91L54.44 92.5s6.79-5.67 7.4-6.21c.67-.6 1.48-.67 1.97-.68.49.01 1.3.08 1.97.68.61.55 7.4 6.21 7.4 6.21L83.6 82.07l-8.15-7.95z"/><path style="fill:#eda600" d="M41.03 16.12c-.35.9-2.25.04-2.97-.33-.11-.88-.22-1.46-.22-1.46v.01c.03.5-.47.86-.94.68-.53-.21-1.14-.38-1.58-.36-.17.01-.31.04-.44.08-.12-.39-.19-.65-.19-.65v.11c-.02.34-.18.66-.46.85-1.09.71-1.37 2.05-.08 3.48-.44.3-1.13.28-1.52-.12-.5-.5-.71-2.09-1-3.27.09.84.34 2.34.22 2.92-.15.7-.85 1.14-1.55.97-.61-.15-1.33-.64-1.68-1.99l.13.85c.07.5.34.94.76 1.24.32.24.71.37 1.11.37.1 0 .2-.01.3-.03.19-.03.36-.09.52-.17.01-.01.03-.01.04-.02.01-.01.03-.01.04-.02.42-.23.63-.55.64-.57.05.08.57.51 1.2.51.87 0 1.21-.35 1.21-.35.08.05.16.09.24.12.06.02 2.4.81 2.31 1.7-.01.11 0 .22.01.33v.05c.03.26.09.51.18.74l.01-.01c.24-.19.82-.03.87-.37.19-1.29.14-2.83.02-4.15l2.52.42.3-1.56z"/><linearGradient id="n" gradientUnits="userSpaceOnUse" x1="35.008" y1="18.332" x2="40.307" y2="15.679" gradientTransform="translate(0 2)"><stop offset="0" style="stop-color:#ffb300"/><stop offset=".469" style="stop-color:#ffca28"/></linearGradient><path style="fill:url(#n)" d="M41.51 19.38c-.49-2.69-3.74-3.81-4.96-4.24-.15-.05-2.38-.58-2.65 1.4-.12.86.53 1.8 1.36 2.12 2.27.87 2.26 1.35 2.26 1.67-.01.83.45 2.4 1.17 2.87.15.1.32.16.48.16.1 0 .2-.02.3-.06 1.41-.59 2.32-2.35 2.04-3.92z"/><radialGradient id="o" cx="39.39" cy="19.198" r="5.677" gradientTransform="matrix(-1 0 0 1 132.12 2)" gradientUnits="userSpaceOnUse"><stop offset="0" style="stop-color:#ffb300"/><stop offset=".5" style="stop-color:#ffca28"/></radialGradient><path style="fill:url(#o)" d="M87.86 17.16c.9-.53 5.17-1.2 8.12-1.2 1.62 0 2.83.21 2.83.76l.01 3.43c.01 3.45-2.24 6.27-5.96 6.28h-.01c-6.74 0-7.28-7.94-4.99-9.27z"/><path style="fill:#eda600" d="M88.1 20.82c.04.13.39.26.77.36h.01c.44.11.96.33 1.93.6 1.35.38 1.46 2.19 1.46 2.19.25-.94-.39-2.59-1.28-2.97v-.01c-.42-.2-.89-.31-1.39-.39-.08-.01-.28-.02-.53-.01h-.01c-.45.01-1.01.07-.96.23z"/><path style="fill:#646464" d="M89.51 16h10.13l-.8 5h-9.33z"/><linearGradient id="p" gradientUnits="userSpaceOnUse" x1="38.798" y1="14.626" x2="38.903" y2="11.312" gradientTransform="matrix(-1 0 0 1 132.12 2)"><stop offset="0" style="stop-color:#ffb300"/><stop offset=".5" style="stop-color:#ffca28"/></linearGradient><path style="fill:url(#p)" d="m86.9 15.04.29 1.55.06.34.14.75.08.44a1.88 1.88 0 0 0 2.18 1.5c.46-.08.85-.32 1.12-.68.33.3.76.47 1.23.47.28 0 1.16-.39 1.31-.54.04-.04.08-.08.11-.13.04.03.08.07.12.1.02.01.59.35 1.17.34.54-.01 1.07-.34 1.24-.5.16.23.38.43.64.57.18.11.38.18.6.21.1.02.2.03.3.03.4 0 .79-.13 1.11-.37.42-.3.69-.74.76-1.24l.13-.85v-.01l.17-1.09c.08-.5-.04-1-.34-1.41-.3-.42-.74-.69-1.24-.76-.12-.02-.24-.03-.36-.02-.03 0-.07 0-.1.01-.32.02-.64.13-.92.33-.04.03-.07.06-.1.08-.06-.23-.18-.45-.33-.63a1.01 1.01 0 0 0-.13-.16c-.06-.07-.11-.1-.13-.12-.01 0-.01-.01-.01-.01-.3-.26-.69-.42-1.12-.44-.14-.01-.28 0-.41.02-.1.02-.19.05-.28.08-.26.08-.49.21-.69.39-.06-.08-.13-.16-.2-.23-.1-.1-.21-.19-.32-.26-.06-.04-.13-.07-.19-.11-.25-.12-.53-.18-.82-.17-.32 0-.63.08-.91.24-.05.02-.09.05-.13.08-.1.07-.19.15-.28.24-.16.16-.29.35-.38.55-.12-.18-.28-.35-.47-.48a.638.638 0 0 0-.14-.08c-.2-.11-.41-.19-.63-.22-.21-.03-.42-.03-.63.01-.5.09-.92.37-1.21.78-.28.42-.38.91-.29 1.4z"/><path style="fill:#eda600" d="M87.09 16.12c.35.9 2.25.04 2.97-.33.11-.88.22-1.46.22-1.46v.01c-.03.5.47.86.94.68.53-.21 1.14-.38 1.58-.36.17.01.31.04.44.08.12-.39.19-.65.19-.65v.11c.02.34.18.66.46.85 1.09.71 1.37 2.05.08 3.48.44.3 1.13.28 1.52-.12.5-.5.71-2.09 1-3.27-.09.84-.34 2.34-.22 2.92.14.7.85 1.14 1.55.97.61-.15 1.33-.64 1.68-1.99l-.13.85c-.07.5-.34.94-.76 1.24-.32.24-.71.37-1.11.37-.1 0-.2-.01-.3-.03-.19-.03-.36-.09-.52-.17-.01-.01-.03-.01-.04-.02-.01-.01-.03-.01-.04-.02a1.82 1.82 0 0 1-.64-.57c-.05.08-.57.51-1.2.51-.87 0-1.21-.35-1.21-.35-.08.05-.16.09-.24.12-.07.02-2.39.81-2.31 1.7.01.11 0 .22-.01.33v.05c-.03.26-.09.51-.18.74l-.01-.01c-.24-.19-.82-.03-.87-.37-.19-1.29-.14-2.83-.02-4.15l-2.52.42-.3-1.56z"/><linearGradient id="q" gradientUnits="userSpaceOnUse" x1="39.008" y1="18.332" x2="44.307" y2="15.679" gradientTransform="matrix(-1 0 0 1 132.12 2)"><stop offset="0" style="stop-color:#ffb300"/><stop offset=".469" style="stop-color:#ffca28"/></linearGradient><path style="fill:url(#q)" d="M86.61 19.38c.49-2.69 3.74-3.81 4.96-4.24.15-.05 2.38-.58 2.65 1.4.12.86-.53 1.8-1.36 2.12-2.27.87-2.26 1.35-2.26 1.67.01.83-.45 2.4-1.17 2.87-.15.1-.32.16-.48.16-.1 0-.2-.02-.3-.06-1.41-.59-2.32-2.35-2.04-3.92z"/></svg>