<svg xmlns="http://www.w3.org/2000/svg" viewBox="0 0 128 128" style="enable-background:new 0 0 128 128" xml:space="preserve"><path style="fill:#995e32" d="M38.64 57.97s-11.59 3.86-13.36 8.83c-1.53 4.29-.29 13.96 1.68 17.43 6.19 10.9 16.73 23.25 16.93 26.54l.86 8.8c0 1.67 1.19 3.1 2.83 3.4 2.68.49 9.69 1.04 18.51 1.04 8.92 0 11.96-.56 14.7-1.06 1.65-.3 2.85-1.73 2.85-3.4 0 0 .11-5.58.39-7.4s1.4-2.93 1.4-2.93 15.53-15.59 16.94-29.53c.77-7.83-63.73-21.72-63.73-21.72z"/><path style="fill:#a56c43" d="M38.36 44.43c-1.33 4.63-4.08 10.44-5.03 28.92-.33 6.38 1.72 8.11 5.66 10.04 3.26 1.6 6.28-.97 9.23-.77s4.87 3.76 10 3.88c5.4.13 6.78-2.4 9.75-2.47 4.09-.1 4.47 2.8 9.88 2.8 5.84 0 5.95-2.48 8.83-2.71 3.85-.31 4.29 1.94 8.07 1.48 4.37-.54 5.01-3.22 4.96-6.51-.12-7.15.01-30.89-7.03-31.26-3.67-.19-5.38 1.35-6.51 3.38-.23.41-.91.06-.91.06s-.52-7.79-7.07-8c-5.96-.2-8.16 4.02-8.16 4.02s-1.05-31.8-1.72-36.25c-.67-4.45-2.43-6.92-6.3-6.98-3.86-.06-5.75 2.73-6.28 7.1l-2.09 31.76s-1.93-4.88-6.76-5.43c-3.68-.44-7.15 2.17-8.52 6.94z"/><path style="fill:#875334" d="M50.68 63.16c-.82.12-1.33-.04-1.78-.18-.44-.14-1-1.04-.9-1.81.47-3.43 1.64-11.79 1.99-16.75.28-4.07-.84-6.28-.84-6.28 2.81.91 4.49 4.77 4.49 4.77l-1.6 18.61c-.06.7-.54 1.52-1.36 1.64zm17.46.5c-.84.03-1.51-.97-1.54-1.81 0 0-.41-47.73-1.15-52.79-.33-2.28-1.39-3.59-2.37-4.34-.36-.27-.06-.84.38-.7 1.85.56 4.24 2.24 4.95 7.12.9 6.21 1.03 9.86 1.33 19.73l.95 30.86c.03.83-.69 1.86-1.52 1.89l-1.03.04zm15.44-.8c-.26-1.33-.5-8.53-1.57-14-.53-2.67-2.05-5.32-2.05-5.32s3.87.73 5.28 6.27c.88 3.44 2.02 11.81 2.02 13.05s-3.29 1.97-3.68 0zm-2.03 59.85s.87-10.46 1.77-12.02c.9-1.55 5.78-7.28 9.48-13.21 3.82-6.11 5.91-12.13 6.54-14.36 1.03-3.69-.17-16.1-2.33-26.49-.6-2.87-1.21-5-1.82-5.94-1.85-2.85-3.8-2.8-3.8-2.8s1.75-.41 3.72.63c2.39 1.26 2.87 2.28 3.7 4.61 4.75 13.3 4.82 29.07 4.45 31.09-.35 1.93-2.17 6.69-6.92 13.64-4.3 6.29-10.22 12.46-10.56 12.9-.99 1.26-1.86 5.92-2.01 8.74-.14 2.62-2.22 3.21-2.22 3.21zm-50.3-51.73a1.83 1.83 0 0 1-1.11-1.83c.33-4.01.56-5.38 1.6-7.03 1.15-1.82 2.95-2.44 2.95-2.44-.5 3.9-.71 6.37-.94 9.75a1.818 1.818 0 0 1-2.5 1.55z"/></svg>