<svg xmlns="http://www.w3.org/2000/svg" viewBox="0 0 128 128" style="enable-background:new 0 0 128 128" xml:space="preserve"><path style="fill:#312d2d" d="M88.97 42.85c-.03-.02-2.58-1.67-3.14-4.46-.36-1.79.18-4.06.76-6.45 1.1-4.55 2.35-9.7-2.4-13.25-5.17-3.86-11.15-.46-11.21-.43a.5.5 0 0 0-.25.44l.02 1.77c0 .24.17.44.4.49.03.01 3.23.69 4.09 3.19.66 1.94.62 4.18.58 6.56-.06 3.18-.12 6.46 1.58 9.2 2.22 3.58 4.83 4.4 6.76 4.4 1.62 0 2.76-.58 2.78-.59.16-.08.26-.24.27-.42 0-.19-.09-.35-.24-.45z"/><radialGradient id="a" cx="79.224" cy="99.207" r="13.177" gradientTransform="matrix(1 0 0 -1 0 130)" gradientUnits="userSpaceOnUse"><stop offset=".526" style="stop-color:#454140;stop-opacity:0"/><stop offset="1" style="stop-color:#454140"/></radialGradient><path style="fill:url(#a)" d="M86.6 31.94c-.05.19-.09.38-.14.57l-8.72-5.87c-.08-.87-.23-1.71-.5-2.49-.86-2.5-4.06-3.19-4.09-3.19a.503.503 0 0 1-.4-.49l-.02-1.77c0-.18.09-.34.25-.43.06-.04 6.05-3.43 11.22.42 4.74 3.55 3.49 8.7 2.4 13.25z"/><radialGradient id="b" cx="88.671" cy="89.037" r="15.836" gradientTransform="matrix(1 0 0 -1 0 130)" gradientUnits="userSpaceOnUse"><stop offset="0" style="stop-color:#454140"/><stop offset=".526" style="stop-color:#454140;stop-opacity:0"/></radialGradient><path style="fill:url(#b)" d="M89.2 43.3c-.01.18-.11.34-.27.42-.03.01-1.16.59-2.78.59-1.93 0-4.54-.82-6.76-4.4-1.7-2.74-1.64-6.02-1.58-9.19.02-1.42.05-2.8-.08-4.08l8.72 5.87c-.52 2.18-.96 4.23-.63 5.89.57 2.79 3.12 4.44 3.14 4.46.15.09.24.26.24.44z"/><path style="fill:#f9ddbd" d="M72.59 18.83c-2.37-4.24-8-7.71-12.82-7.14-5.4.64-8.46 4.37-9.44 9.23-.36 1.76-.38 3.53-.14 4.8.03.15.28 1.26.28 1.6.14 1.33-2.47 2.52-2.84 3.97-.28 1.09 1.98 1.89 2.15 2.09.85 1.02-.78 5.69 5.47 6.4 2.18.25 3.54-.12 4.3-.06 1.8.15 2.8 6.11 2.8 6.11l9.21-5.57s-3.07-4.51-.39-9.14c2.59-3.68 2.94-9.56 1.42-12.29z"/><path style="fill:#444" d="M50.31 36.04c.87.09 1.74-.08 2.5-.59.83-.56.31-1.25-.63-.9-.57.21-1.36.29-2.07.13l.2 1.36z"/><path style="fill:#312d2d" d="M73.18 15.79c-2.24-3.03-6.04-5.08-10.16-5.49-3.58-.36-8.54.28-11.72 3.12-1.91 1.7-3.1 4.02-2.94 6.66.1 1.59 1.68 2.41 1.68 2.41l.08-.13s.01-.02.03-.05l.14-.25c.5-.8 1.66-2.93 4.72-1.95 3.78 1.21 5.52.45 5.52.45-1.45 2.99 1.06 6.62 1.34 7.02.15.21.28.2.35-.01.17-.49.5-1.36.74-1.77.78-1.37 1.9-.81 1.91-.81 1.53.62 1.92 3.84-.72 5.59-.06.04-.21.14-.16.47.12.81 1.53 3.12 3.85 3.8.31.09.58.15.83.18 1.32.15 2.08-.36 2.28-1.34.43-2.14.93-2.74 1.65-3.64.83-1.04 1.78-2.22 2.45-5.57.64-3.16-.01-6.17-1.87-8.69z"/><radialGradient id="c" cx="61.566" cy="107.147" r="15.616" gradientTransform="matrix(1 0 0 -1 0 130)" gradientUnits="userSpaceOnUse"><stop offset=".526" style="stop-color:#454140;stop-opacity:0"/><stop offset="1" style="stop-color:#454140"/></radialGradient><path style="fill:url(#c)" d="M73.18 15.79c-2.24-3.03-6.04-5.08-10.16-5.49-3.58-.36-8.54.28-11.72 3.12-1.91 1.7-3.1 4.02-2.94 6.66.1 1.59 1.68 2.41 1.68 2.41l.08-.13s.01-.02.03-.05l.14-.25c.5-.8 1.66-2.93 4.72-1.95 3.78 1.21 5.52.45 5.52.45-1.45 2.99 1.06 6.62 1.34 7.02.15.21.28.2.35-.01.17-.49.5-1.36.74-1.77.78-1.37 1.9-.81 1.91-.81 1.53.62 1.92 3.84-.72 5.59-.06.04-.21.14-.16.47.12.81 1.53 3.12 3.85 3.8.31.09.58.15.83.18 1.32.15 2.08-.36 2.28-1.34.43-2.14.93-2.74 1.65-3.64.83-1.04 1.78-2.22 2.45-5.57.64-3.16-.01-6.17-1.87-8.69z"/><ellipse transform="rotate(-89.209 53.763 28.259)" style="fill:#312d2d" cx="53.76" cy="28.26" rx="1.77" ry="1.15"/><path style="fill:#454140" d="M52.99 25.61c-1.15.22-1.34-.55-.91-1.1.32-.41 1.03-.71 2.31-.32 1.21.36 1.64 1.12 1.93 1.59.29.46.21.89-.08.9-.39 0-1.83-1.34-3.25-1.07z"/><path style="fill:#4568ad" d="M43.43 116.74c.6.19 1.25-.14 1.44-.74l.85-2.67c.58-1.81-.59-4.47-.59-4.47l-6.64-2.14-6.61.05c-1.63.1-3.04 1.19-3.55 2.74l-.39 1.2c-.17.53.12 1.09.65 1.26l14.84 4.77z"/><path style="fill:#7c7c7c" d="m83.14 67.06-17.02 3.62-.13 2.55-7.94.18c-4.88.48-11.67.17-14.27 10.49l-6.89 22.59 9.85 3.43s7.9-21.46 8.4-21.43c.5.02 15.14.81 24.77-.5 9.6-1.29 3.23-20.93 3.23-20.93z"/><radialGradient id="d" cx="67.56" cy="75.887" r="19.484" gradientTransform="scale(1 -1) rotate(18.161 475.103 10.053)" gradientUnits="userSpaceOnUse"><stop offset=".364" style="stop-color:#651fff"/><stop offset=".812" style="stop-color:#5914f2"/><stop offset="1" style="stop-color:#530eeb"/></radialGradient><path style="fill:url(#d)" d="M64.09 72.18c1.55-12.08-1.22-12.23-3.31-20.12-1.06-4 .37-8.61 1.95-10.5 3.47-3.15 7.2-3.97 10.19-1.2 5.89 5.48 12.5 26.92 12.5 26.92-4.71 8.68-21.33 4.9-21.33 4.9z"/><path style="fill:#c62828" d="M78.47 93.17h4v7.14h-4z"/><path style="fill:#424242" d="m43.24 119.99-15.98-5.19a2.216 2.216 0 0 1-1.42-2.79c.38-1.16 1.63-1.8 2.79-1.42l15.98 5.19c1.16.38 1.8 1.63 1.42 2.79a2.216 2.216 0 0 1-2.79 1.42z"/><path style="fill:#78909c" d="M49.54 111.63c-3.61 0-6.53 2.93-6.53 6.53 0 3.61 2.93 6.53 6.53 6.53 3.61 0 6.53-2.93 6.53-6.53.01-3.6-2.92-6.53-6.53-6.53z"/><path style="fill:#f44336" d="M93.62 59.87c-1.81 0-1.81 1.94-1.81 2.59l-.25 29.21-32.67-1.77c-9.36 0-13.66 3.58-17.04 14.18l-4.78 13.87c-.17.5-.14 1.05.09 1.53s.64.84 1.15 1.01c.21.07.43.11.65.11.85 0 1.61-.54 1.89-1.35l3.55-10.29c1.84.6 3.14 2.35 3.14 4.32v4.88c0 1.1.9 2 2 2s2-.9 2-2v-4.88c0-3.68-2.38-6.94-5.84-8.1 2.84-8.85 5.68-11.28 13.07-11.29l32.85 1.91c1.25 0 1.92-.14 2.63-.96.79-.95.8-2.47.8-2.48l.38-30.19c0-2-1.13-2.3-1.81-2.3z"/><path style="fill:#424242" d="M49.52 120.33c-.99 0-1.8-.66-1.96-1.65l-.33-3.35c-.08-.53.37-1 .95-1h2.54c.57 0 1.01.45.96.97l-.12 3.39c0 .9-1.05 1.64-2.04 1.64zm43.45-57.49c0-2.46-1.34-2.85-3.55-2.85h-1.64c-2.31.03-2.69 1.07-3.11 2.57-.75 2.67-2.18 16.77-1.07 20.67.03.1.08.22.12.32l-28.96-.85c-1.73 0-3.19.63-3.77 4.09 0 0-.11.44.09 2.12.2 1.68 1.31 2.44 2.76 2.51l38.84 1.88-.05-.13c.06.05.1.08.1.08l.24-30.41z"/><path style="fill:#212121" d="M70.79 92.15c2.22-2.9 5.67-4.56 10.02-4.35 5.04.23 8.15 3.31 9.74 5.4l3.4.07c.07-3.89.26-13.9.26-13.9-2.54-4.26-29.74-11.62-38.87 12.08l15.45.7z"/><path style="fill:#f44336" d="m92.66 93.95 1.81-.56c0-2.09-.26-15.91-.26-15.91-2.67-4.46-31.97-12.63-40.07 15.72l5.24-.02 8.37.49c2.02-4.53 7.42-7.66 13.19-7.4 8.58.4 11.72 7.68 11.72 7.68z"/><radialGradient id="e" cx="76.47" cy="100.306" r="1.107" gradientTransform="translate(4)" gradientUnits="userSpaceOnUse"><stop offset="0" style="stop-color:#78909c"/><stop offset=".562" style="stop-color:#617a86"/><stop offset="1" style="stop-color:#546e7a"/></radialGradient><path style="fill:url(#e)" d="M80.47 101.41c-.61 0-1.11-.5-1.11-1.11s.5-1.11 1.11-1.11 1.11.5 1.11 1.11-.5 1.11-1.11 1.11z"/><path style="fill:#82aec0" d="M80.47 99.7c.33 0 .61.27.61.61 0 .33-.27.61-.61.61s-.61-.27-.61-.61c0-.34.28-.61.61-.61m0-1a1.609 1.609 0 1 0 0 3.22 1.609 1.609 0 1 0 0-3.22z"/><path style="fill:none;stroke:#82aec0;stroke-linecap:round;stroke-miterlimit:10" d="M80.47 79.6v41.42m14.64-35.36-29.28 29.29m29.28 0L65.83 85.66m-6.07 14.65h41.42"/><path style="fill:#78909c" d="M80.47 75.91c-13.47 0-24.39 10.92-24.39 24.39S67 124.7 80.47 124.7s24.39-10.92 24.39-24.39-10.92-24.4-24.39-24.4zm0 44.14c-10.9 0-19.74-8.84-19.74-19.74 0-10.9 8.84-19.74 19.74-19.74 10.9 0 19.74 8.84 19.74 19.74 0 10.9-8.84 19.74-19.74 19.74z"/><path style="fill:#546e7a" d="M80.47 83.58c9.22 0 16.73 7.5 16.73 16.73s-7.5 16.73-16.73 16.73-16.73-7.5-16.73-16.73 7.51-16.73 16.73-16.73m0-1c-9.79 0-17.73 7.94-17.73 17.73s7.94 17.73 17.73 17.73 17.73-7.94 17.73-17.73-7.94-17.73-17.73-17.73z"/><circle style="fill:#757575" cx="80.47" cy="100.31" r="4.11"/><path style="fill:none;stroke:#757575;stroke-linecap:round;stroke-miterlimit:10" d="m27.82 110.93 9.45 3.04"/><path style="fill:#c62828" d="M92.86 76.21s1.49.66 2.35 1.81l.07-3.51c-.96-.96-2.39-1.17-2.39-1.17l-.03 2.87zM54.7 91.41l-.69 2.95s-1.28.12-2.23-.66c-1.64-1.35-1.45-2.12-1.45-2.12.45-.35 1.73-.78 1.73-.78s.72.35 1.38.49 1.26.12 1.26.12z"/><path style="opacity:.8;fill:none;stroke:#94d1e0;stroke-width:2;stroke-linecap:round;stroke-miterlimit:10" d="M59.54 93.59c1.51-4.89 4.89-9.53 9.79-12.21"/><linearGradient id="f" gradientUnits="userSpaceOnUse" x1="85.935" y1="62.921" x2="73.935" y2="71.293" gradientTransform="matrix(1 0 0 -1 0 130)"><stop offset=".5" style="stop-color:#f9ddbd"/><stop offset="1" style="stop-color:#ffd29c"/></linearGradient><path style="fill:url(#f)" d="m74.85 47.14-5.16 5.54 9.88 6.89-3.68 13.42 4.41 1.78s5.14-11.34 6.1-13.23c1.58-3.14 1.44-5.08-.53-7.32-1.05-1.18-11.02-7.08-11.02-7.08z"/><linearGradient id="g" gradientUnits="userSpaceOnUse" x1="74.226" y1="48.68" x2="75.343" y2="51.285" gradientTransform="matrix(1 0 0 -1 0 130)"><stop offset="0" style="stop-color:#f9ddbd"/><stop offset="1" style="stop-color:#ffd29c"/></linearGradient><path style="fill:url(#g)" d="M80.63 73.49c-.23-.18-.43-.35-.62-.51-.39-.33-.76-.64-1.35-1.01-.72-.44-4.15.93-4.93 1.22-.26.1-.5.19-.72.29-.3.13-.53.36-.63.63-.04.05-.08.11-.12.2-.01.04-.02.07-.02.11 0 .01-.25 1.5-.65 2.31-.16.31-.07.84.26.96 0 0-.19.77-.33 1.16-.17.46-.12.61-.14.82-.04.36.1.63.36.8.32.21.44.08.59.19s.1.29.14.5c.11.56.58.71.77.73.62.06.8-.33.91-.33.2.01.24.18.26.31.06.28.36.43.64.52.73.08 1.26-.54 1.28-.44.08.37.72.65 1.09.5.31-.13.5.12 2.35-2.72.37-.5.97-1.84 1.37-3.12l.19-.61c.3-.96.03-1.94-.7-2.51z"/><linearGradient id="h" gradientUnits="userSpaceOnUse" x1="75.552" y1="52.205" x2="73.319" y2="48.298" gradientTransform="matrix(1 0 0 -1 0 130)"><stop offset=".5" style="stop-color:#f9ddbd"/><stop offset="1" style="stop-color:#ffd29c"/></linearGradient><path style="fill:url(#h)" d="M78.94 71.88c-1.76-.67-6.6 1.02-6.72 2.61-.03.36.46.92.9.73 0 0 0 .43.03.53.14.54.76.57.95.6.35.05.52.13.53.48.01.33.23.7.52.87.32.18.57.22.96.12.18-.05.28.06.34.24.08.25.28.59.49.69.39.2.64.16.92.15.18 0 .26.02.38.16.09.12.08.59.39.76 1.39.73 2.2-2.24 2.73-3.97.39-1.26-.43-3.21-2.42-3.97z"/><path style="fill:#3615af" d="m74.92 57.53 5.87-9.39-8.35-5.22a5.54 5.54 0 0 0-7.63 1.76 5.54 5.54 0 0 0 1.76 7.63l8.35 5.22z"/></svg>