<svg xmlns="http://www.w3.org/2000/svg" viewBox="0 0 128 128" style="enable-background:new 0 0 128 128" xml:space="preserve"><linearGradient id="a" gradientUnits="userSpaceOnUse" x1="9.98" y1="-831.352" x2="123.28" y2="-945.122" gradientTransform="matrix(1 0 0 -1 -4 -826.11)"><stop offset="0" style="stop-color:#81d4fa"/><stop offset="1" style="stop-color:#0094d6"/></linearGradient><path style="fill:url(#a)" d="M116.46 123.96h-104c-4.42 0-8-3.58-8-8v-104c0-4.42 3.58-8 8-8h104c4.42 0 8 3.58 8 8v104c0 4.42-3.58 8-8 8z"/><g style="opacity:.2"><path style="fill:#424242" d="M116.46 3.96h-104c-4.42 0-8 3.58-8 8v104c0 4.42 3.58 8 8 8h104c4.42 0 8-3.58 8-8v-104c0-4.42-3.58-8-8-8z"/></g><path style="fill:#427687" d="M116.46 3.96h-104c-4.42 0-8 3.58-8 8v104c0 4.42 3.58 8 8 8h104c4.42 0 8-3.58 8-8v-104c0-4.42-3.58-8-8-8z"/><path style="fill:#8cafbf" d="M122.16 6.26a8.403 8.403 0 0 0-5.7-2.3h-104c-4.42 0-8 3.58-8 8v104c.02 2.12.84 4.16 2.3 5.7l16.8-16.8h76a5.91 5.91 0 0 0 5.9-5.9v-76l16.7-16.7z"/><path style="fill:#fafafa" d="m88.26 35.56-27 61.2c-.3.67-.97 1.1-1.7 1.1h-8c-1.03.01-1.88-.81-1.89-1.85 0-.3.06-.59.19-.85l25.1-54.5a1.887 1.887 0 0 0-1.7-2.7h-30.9a1.9 1.9 0 0 1-1.9-1.9v-5.5c0-1.05.85-1.9 1.9-1.9h44.2c1.05 0 1.9.85 1.9 1.9v4.1c-.05.31-.11.61-.2.9z"/><path style="opacity:.5;fill:#b4e1ed;enable-background:new" d="M40.16 12.86c0-2.3-1.6-3-10.8-2.7-7.7.3-11.5 1.2-13.8 4s-2.9 8.5-3 15.3c0 4.8 0 9.3 2.5 9.3 3.4 0 3.4-7.9 6.2-12.3 5.4-8.7 18.9-10.6 18.9-13.6z"/></svg>