<svg xmlns="http://www.w3.org/2000/svg" viewBox="0 0 128 128" style="enable-background:new 0 0 128 128" xml:space="preserve"><path style="fill:#ab872f" d="M97.2 85.95c-1.19-1.91.33-3.85 2.92-6.26 4.11-3.82 8.59-12.67 4.43-21.66.03-.05-.82-1.56-.79-1.62l-1.71-.08c-.55-.07-19.36-.1-38.18-.1s-37.63.03-38.18.1c0 0-2.53 1.64-2.51 1.69-4.16 8.99.32 17.84 4.43 21.66 2.59 2.4 4.11 4.35 2.92 6.26-1.16 1.86-4.6 2.13-4.6 2.13s.8 1.9 2.71 2.92c1.77.95 3.94 1.17 5.45 1.2 0 0 5.88 7.16 21.23 7.16h17.1c15.36 0 21.23-7.16 21.23-7.16 1.5-.03 3.68-.25 5.45-1.2 1.91-1.02 2.71-2.92 2.71-2.92s-3.46-.27-4.61-2.12z"/><radialGradient id="a" cx="59.28" cy="33.278" r="19.152" gradientTransform="matrix(1.1681 0 0 .5051 8.547 71.071)" gradientUnits="userSpaceOnUse"><stop offset=".728" style="stop-color:#bfa055;stop-opacity:0"/><stop offset="1" style="stop-color:#bfa055"/></radialGradient><path style="fill:url(#a)" d="M63.85 99.35v-7.94l27.29-1.9 2.48 2.69s-5.88 7.16-21.23 7.16l-8.54-.01z"/><radialGradient id="b" cx="40.417" cy="36.125" r="5.66" gradientTransform="matrix(-1.058 .4358 -.3673 -.6909 155.858 92.297)" gradientUnits="userSpaceOnUse"><stop offset=".663" style="stop-color:#bfa055"/><stop offset="1" style="stop-color:#bfa055;stop-opacity:0"/></radialGradient><path style="fill:url(#b)" d="M93.57 88.73c-4.09-5.47 4.98-7.5 4.98-7.5s.01 0 .01.01c-1.58 1.72-2.29 3.23-1.37 4.72 1.16 1.86 4.6 2.13 4.6 2.13s-4.69 3.65-8.22.64z"/><radialGradient id="c" cx="55.085" cy="52.136" r="24.86" gradientTransform="matrix(-.0872 -1.0254 .9708 -.064 36.879 128.315)" gradientUnits="userSpaceOnUse"><stop offset=".725" style="stop-color:#bfa055;stop-opacity:0"/><stop offset="1" style="stop-color:#bfa055"/></radialGradient><path style="fill:url(#c)" d="M104.57 58.03c4.06 8.71-.21 17.67-4.21 21.45-.55.52-2.88 2.53-3.41 4.14 0 0-9.11-11.19-11.84-17.77-.55-1.33-1.05-2.69-1.12-4.11-.05-1.06.14-2.32.83-3.22.85-1.1 19.26-1.43 19.26-1.43l.49.94z"/><radialGradient id="d" cx="90.914" cy="52.136" r="24.86" gradientTransform="matrix(.0872 -1.0254 -.9708 -.064 87.74 165.054)" gradientUnits="userSpaceOnUse"><stop offset=".725" style="stop-color:#bfa055;stop-opacity:0"/><stop offset="1" style="stop-color:#bfa055"/></radialGradient><path style="fill:url(#d)" d="M23.17 58.03c-4.06 8.71.21 17.67 4.21 21.45.55.52 2.88 2.53 3.41 4.14 0 0 9.11-11.19 11.84-17.77.55-1.33 1.05-2.69 1.12-4.11.05-1.06-.14-2.32-.83-3.22-.85-1.1-1.84-.81-3.28-.81-2.75 0-14.79-.62-15.73-.62-.01.02-.74.94-.74.94z"/><radialGradient id="e" cx="95.108" cy="33.278" r="19.152" gradientTransform="matrix(-1.1681 0 0 .5051 161.046 71.071)" gradientUnits="userSpaceOnUse"><stop offset=".728" style="stop-color:#bfa055;stop-opacity:0"/><stop offset="1" style="stop-color:#bfa055"/></radialGradient><path style="fill:url(#e)" d="M63.89 99.35v-7.94l-27.29-1.9-2.48 2.69s5.88 7.16 21.23 7.16l8.54-.01z"/><radialGradient id="f" cx="76.246" cy="36.125" r="5.66" gradientTransform="matrix(1.058 .4358 .3673 -.6909 -66.022 76.683)" gradientUnits="userSpaceOnUse"><stop offset=".663" style="stop-color:#bfa055"/><stop offset="1" style="stop-color:#bfa055;stop-opacity:0"/></radialGradient><path style="fill:url(#f)" d="M34.18 88.73c4.09-5.47-4.98-7.5-4.98-7.5s-.01 0-.01.01c1.58 1.72 2.29 3.23 1.37 4.72-1.16 1.86-4.6 2.13-4.6 2.13s4.69 3.65 8.22.64z"/><path style="fill:#c48e6a" d="M90.17 60.44H37.83c-5.64 0-10.26 4.47-10.26 9.94s4.62 9.94 10.26 9.94h52.33c5.64 0 10.26-4.47 10.26-9.94s-4.61-9.94-10.25-9.94z"/><linearGradient id="g" gradientUnits="userSpaceOnUse" x1="64.227" y1="52.524" x2="64.227" y2="1.685" gradientTransform="matrix(1 0 0 -1 0 128)"><stop offset="0" style="stop-color:#f78c1f"/><stop offset=".482" style="stop-color:#f47f12"/><stop offset="1" style="stop-color:#ef6c00"/></linearGradient><path style="fill:url(#g)" d="M113.05 91.87C99.03 77.39 68.83 76.33 64.5 76.26v-.01h-.54v.01c-4.33.08-34.54 1.13-48.55 15.62-10.21 10.56-8.01 20.8-5.88 23.81 4.01 5.68 14.75 8.25 14.75 8.25h79.9s10.74-2.57 14.75-8.25c2.12-3.02 4.33-13.26-5.88-23.82z"/><radialGradient id="h" cx="63.888" cy="19.681" r="38.652" gradientTransform="matrix(1 0 0 -.4142 0 116.479)" gradientUnits="userSpaceOnUse"><stop offset=".771" style="stop-color:#000"/><stop offset="1" style="stop-color:#000;stop-opacity:0"/></radialGradient><path style="opacity:.2;fill:url(#h);enable-background:new" d="M64 92.68c-27.26 0-36.19 11.06-36.19 11.06l11.02 6.17c.78.53 1.07 1.54.68 2.39l-.55 1.23 15.08 10.45h19.92l15.08-10.45-.55-1.23c-.39-.85-.1-1.86.68-2.39l10.8-6.3S91.26 92.68 64 92.68z"/><path style="fill:#c48e6a" d="M64 87.05h-9.08v9.98c0 4.51 4.29 8.17 9.08 8.17s9.08-3.66 9.08-8.17v-9.98H64z"/><linearGradient id="i" gradientUnits="userSpaceOnUse" x1="61.808" y1="9.253" x2="40.443" y2="9.253" gradientTransform="matrix(1 0 0 -1 0 128)"><stop offset=".5" style="stop-color:#e0bb95"/><stop offset="1" style="stop-color:#cca47a"/></linearGradient><path style="fill:url(#i)" d="m38.96 113.54 3.31.2c1.22 0 2.42.18 3.58.53 3.6 1.1 11.54 3.87 15.85 4.97 1.06.27 1.79 1.22 1.79 2.32 0 .66-.27 1.26-.7 1.69-.44.44-1.04.71-1.7.71H34.56l4.4-10.42z"/><linearGradient id="j" gradientUnits="userSpaceOnUse" x1="67.808" y1="9.253" x2="88.322" y2="9.253" gradientTransform="matrix(1 0 0 -1 0 128)"><stop offset=".5" style="stop-color:#e0bb95"/><stop offset="1" style="stop-color:#cca47a"/></linearGradient><path style="fill:url(#j)" d="m89.04 113.54-3.31.2c-1.22 0-2.42.18-3.58.53-3.6 1.1-11.53 3.87-15.84 4.97-1.07.27-1.8 1.22-1.8 2.32 0 .66.27 1.26.7 1.69.44.44 1.04.71 1.7.71h26.46l-4.33-10.42z"/><path style="fill:#e0bb95" d="M64 25.28c-16.67 0-32.1 16.21-32.1 39.54 0 23.2 15.9 34.67 32.1 34.67s32.1-11.47 32.1-34.67c0-23.33-15.44-39.54-32.1-39.54z"/><path style="fill:#c48e6a" d="M67.69 83.73c-.1-.04-.21-.06-.31-.07h-6.77c-.1.01-.21.03-.31.07-.61.23-.95.81-.66 1.42S61.28 87.5 64 87.5c2.72 0 4.07-1.73 4.36-2.35.29-.61-.05-1.19-.67-1.42z"/><ellipse style="fill:#5d4037" cx="47.56" cy="74.78" rx="4.93" ry="4"/><ellipse style="fill:#5d4037" cx="80.44" cy="74.78" rx="4.93" ry="4"/><path style="fill:#ab872f" d="M54.99 65.79c-.93-1.23-3.07-3.01-7.23-3.01s-6.31 1.79-7.23 3.01c-.41.54-.31 1.17-.02 1.55.26.35 1.04.68 1.9.39s2.54-1.16 5.35-1.18c2.81.02 4.49.89 5.35 1.18.86.29 1.64-.04 1.9-.39.28-.38.38-1.01-.02-1.55zm32.49 0c-.93-1.23-3.07-3.01-7.23-3.01s-6.31 1.79-7.23 3.01c-.41.54-.31 1.17-.02 1.55.26.35 1.04.68 1.9.39s2.54-1.16 5.35-1.18c2.81.02 4.49.89 5.35 1.18.86.29 1.64-.04 1.9-.39.29-.38.39-1.01-.02-1.55z"/><path style="fill:none;stroke:#b0bec5;stroke-width:4;stroke-linecap:round;stroke-miterlimit:10" d="m52.56 15.96-2.7-10.09m-12.9 16.69-6.66-6.55m60.01 7.39 7.39-7.39m-22.26-.05 2.7-10.09"/><path style="fill:#ab872f" d="M105.34 44.43c-3.44-11.02-13.92-11.04-13.92-11.04-1.67-4.03-8.77-18.05-29.45-11.64-4.74 1.47-8.5 1.55-10.59-.09-3.23-2.54-2.92-6.04-2.92-6.04s-8.16 2-6.92 9.76c-2.53.15-6.83 1.2-10.16 6.08-2.73 4-2.79 8.17-2.59 10.29-2.42.99-5.77 3.58-6.28 8.88-.13 1.3.01 2.51.28 3.61.7 2.79 2.49 5.18 4.84 6.84l3.08 2.17s-.12 7.57 2.44 12.31c0 0 3.2-8.83 4.92-12.69 7.66.69 17-1.81 24.54-7.31 2.33-1.7 8.1-4.15 10.93-4.42 7.1-.67 9.36 6.06 9.36 6.06s5.25-.56 7.49 3.5c1.46 2.64 3.95 15.18 3.95 15.18s1.92-5.04 2.69-10.56c4.55-1.62 7.88-5.54 8.76-10.28.58-3.15.71-6.87-.45-10.61z"/><radialGradient id="k" cx="114.644" cy="41.921" r="31.792" gradientTransform="matrix(.2872 .963 .8507 -.1599 10.23 -49.765)" gradientUnits="userSpaceOnUse"><stop offset=".699" style="stop-color:#bfa055;stop-opacity:0"/><stop offset="1" style="stop-color:#bfa055"/></radialGradient><path style="fill:url(#k)" d="M97.04 65.31c1.62-.7 10.39-3.54 9.12-16.56-1.46-15.09-14.38-15.31-14.74-15.35 0 0-.28 1.78-1.23 3.1-1.23 1.7-4.49 2.33-4.49 2.33 10.78 10.5 10.26 17.73 11.34 26.48z"/><radialGradient id="l" cx="81.416" cy="49.901" r="7.556" gradientTransform="matrix(.9328 .6493 .8071 -1.0016 -61.056 13.351)" gradientUnits="userSpaceOnUse"><stop offset=".58" style="stop-color:#bfa055"/><stop offset="1" style="stop-color:#bfa055;stop-opacity:0"/></radialGradient><path style="fill:url(#l)" d="M63.33 21.36c-1.09.3-8.28 3.13-11.94.3-3.13-2.42-2.94-5.89-2.92-6.01-1.35 1.17-6.3 10.29 3.78 12.47 4.35.94 7.58-2.17 9.64-4.9.74-1 1.13-1.48 1.44-1.86z"/><radialGradient id="m" cx="185.923" cy="113.502" r="24.892" gradientTransform="matrix(-1.0854 -.4537 -.3587 .6072 308.796 52.731)" gradientUnits="userSpaceOnUse"><stop offset=".699" style="stop-color:#bfa055;stop-opacity:0"/><stop offset="1" style="stop-color:#bfa055"/></radialGradient><path style="fill:url(#m)" d="M78.76 21.13c7.04 2 11.01 8.45 12.67 12.26.55 1.26-3.23 12.9-27.2-1.66-8.92-5.42-5.76-8.8-4.56-9.19 4.66-1.49 10.63-3.81 19.09-1.41z"/><radialGradient id="n" cx="78.597" cy="42.93" r="7.01" gradientTransform="matrix(1.1438 .1731 .1946 -1.2861 -47.422 64.695)" gradientUnits="userSpaceOnUse"><stop offset=".702" style="stop-color:#bfa055;stop-opacity:0"/><stop offset="1" style="stop-color:#bfa055"/></radialGradient><path style="fill:url(#n)" d="M48.44 15.64c-.01 0-.03.01-.06.01h-.01c-.38.16-8 2.1-6.83 9.72l7.2 2.21c-5.53-6.98-.27-11.96-.27-11.96s-.02.02-.03.02z"/><radialGradient id="o" cx="97.175" cy="89.168" r="15.034" gradientTransform="matrix(-1.1288 -.2235 -.2358 .973 179.498 -30.301)" gradientUnits="userSpaceOnUse"><stop offset=".66" style="stop-color:#bfa055;stop-opacity:0"/><stop offset="1" style="stop-color:#bfa055"/></radialGradient><path style="fill:url(#o)" d="M46.06 26.33s-6.07-3.59-13.15 3.21c-5.3 5.1-4.12 12.21-4.12 12.21s2.3-1.29 7.9-.75l9.37-14.67z"/><radialGradient id="p" cx="63.978" cy="-8.978" r="14.021" gradientTransform="matrix(1.0803 .3858 .5514 -1.6832 -24.22 14.899)" gradientUnits="userSpaceOnUse"><stop offset=".598" style="stop-color:#bfa055;stop-opacity:0"/><stop offset="1" style="stop-color:#bfa055"/></radialGradient><path style="fill:url(#p)" d="M22.72 53.89c1.2 6.09 7.7 8.92 8.3 9.03L36.7 41c-11.85-1.44-15.17 6.85-13.98 12.89z"/></svg>