<svg xmlns="http://www.w3.org/2000/svg" viewBox="0 0 128 128" style="enable-background:new 0 0 128 128" xml:space="preserve"><path style="fill:#f3ab47" d="M94.41 28.78c-3.04-3.49-7.2-4.23-8.46-5.53-1.83-1.9-1.02-4.23-1.02-4.23H43.07s.81 2.33-1.02 4.23c-1.26 1.3-5.42 2.05-8.46 5.53-2.6 2.98-5.73 3.42-4.22 31.98 1.99 37.8 15.53 58.41 15.53 58.41S51.73 124 64 124s19.1-4.82 19.1-4.82 13.54-20.61 15.53-58.41c1.5-28.56-1.62-29.01-4.22-31.99z"/><path style="fill:#b24938" d="M64.3 27.12c11.14 0 18.6-1.92 22.47-3.27-.34-.19-.62-.39-.82-.6-1.83-1.9-1.02-4.23-1.02-4.23s1.61-.68 2.57-2.21l-1.53-3.58H45.56l-2.29 1.41-.59 4.17c.24.13.4.2.4.2s.81 2.33-1.02 4.23c-.01.01 5.05 3.88 22.24 3.88z"/><path style="fill:#d85a41" d="M64.73 49.31c-17.63 0-30.42-4.42-35.65-6.59l.38-3.24c4.3 1.85 17.3 6.71 35.26 6.71 17.97 0 30.03-4.84 33.97-6.68l.32 3.29c-4.99 2.21-16.92 6.51-34.28 6.51zm-.24 68.47c-11.99 0-20.33-4.43-23.78-6.67l-1.77-4.72c.09.07 10.96 8.39 25.55 8.39 14.61 0 24.7-8.32 24.78-8.39l-2.08 4.95c-3.43 2.32-11.13 6.44-22.7 6.44z"/><path style="fill:#d85a41" d="M64.73 58.85c-18.03 0-30.5-4.36-35.65-6.55v-3.42c3.75 1.71 16.59 6.86 35.65 6.86 18.95 0 30.82-5.09 34.29-6.81v3.47c-4.92 2.22-16.55 6.45-34.29 6.45z"/><path style="opacity:.55;fill:#fff9c4" d="M35.15 57.76c1.94.6 5.72 1.66 9.85 2.21.57.08.95.62.85 1.18-.46 2.62-1.38 10.29.22 24.76 1.27 11.56 2.74 20.05 3.37 23.46.13.68-.58 1.19-1.19.88l-3.19-1.64c-.57-.29-1.01-.76-1.27-1.34-2.73-6.03-9.13-26.01-9.95-48.51-.03-.69.64-1.2 1.31-1zm-.4-6.68V47.2c0-.55.55-.93 1.06-.73.88.35 2.28.83 4.04 1.22 2.17.48 4.38.86 5.53 1.05.47.08.82.48.82.96v4.33s-3.84-.84-7.12-1.6-4.33-1.35-4.33-1.35zm-.91-18.34c0 2.51 1.87 3.43 8.76 4.85 4.65.96 6.08.56 8.73-1.48 2.48-1.92 5.22-5.7 5.22-5.7-3.26-.38-6.26-1.15-9.47-1.83-2.89-.61-5.94-2.27-8.72-.75-1.57.85-4.52 2.86-4.52 4.91z"/><path style="fill:#ffbc6c" d="M39.8 10.98C39.8 9.85 50.64 4 64 4s24.2 5.64 24.2 6.98c0 3.43-10.83 6.21-24.2 6.21s-24.2-2.78-24.2-6.21z"/><path style="fill:#e5912c" d="M88.2 10.98c0 3.43-10.83 6.21-24.2 6.21-13.36 0-24.2-2.78-24.2-6.21v4.08c0 1.17.23 2.59 1.65 3.32 1.76.9 3.58 1.29 4.57 1.55 4.85 1.24 11.23 1.93 17.98 1.93s13.13-.68 17.98-1.93c.99-.25 2.78-.71 4.57-1.55 1.42-.66 1.65-2.15 1.65-3.32v-4.08z"/><path style="opacity:.55;fill:#fff9c4" d="M60.44 5.28c1.16-.17 1.81 1.06.87 1.66-1.72 1.09-3.59 2.43-4.83 3.69-2.74 2.8-3.83 4.54-3.83 4.54-7.97-1.38-10.94-3.4-10.94-3.4s4.93-2.83 9.63-4.52c2.43-.87 6.11-1.53 9.1-1.97z"/></svg>