<svg xmlns="http://www.w3.org/2000/svg" viewBox="0 0 128 128" style="enable-background:new 0 0 128 128" xml:space="preserve"><path style="fill:#8e24aa" d="M116.46 3.96h-104c-4.42 0-8 3.58-8 8v104c0 4.42 3.58 8 8 8h104c4.42 0 8-3.58 8-8v-104c0-4.42-3.58-8-8-8z"/><path style="fill:#ab47bc" d="M110.16 3.96h-98.2a7.555 7.555 0 0 0-7.5 7.5v97.9c-.01 4.14 3.34 7.49 7.48 7.5h98.12c4.14.01 7.49-3.34 7.5-7.48V11.46c.09-4.05-3.13-7.41-7.18-7.5h-.22z"/><path style="opacity:.3;fill:#fafafa;enable-background:new" d="M40.16 12.86c0-2.3-1.6-3-10.8-2.7-7.7.3-11.5 1.2-13.8 4s-2.9 8.5-3 15.3c0 4.8 0 9.3 2.5 9.3 3.4 0 3.4-7.9 6.2-12.3 5.4-8.7 18.9-10.6 18.9-13.6z"/><path style="fill:#fafafa" d="M108.16 59.26a.889.889 0 0 0-.7-.3h-5.2c-.51-.02-.92-.4-1-.9a40.176 40.176 0 0 0-8.9-21.5.929.929 0 0 1 .1-1.3l3.7-3.7c.2-.18.31-.43.3-.7 0-3.7-3.5-4.6-5.3-2.8l-3 3a.94.94 0 0 1-1.3.1 40.176 40.176 0 0 0-21.5-8.9c-.5-.08-.88-.49-.9-1v-5.3c.01-.27-.1-.52-.3-.7-2.6-2.6-5.7-.8-5.7 1.7v4.2c-.02.51-.4.92-.9 1-7.89.78-15.37 3.88-21.5 8.9-.39.33-.97.28-1.3-.1l-3.7-3.7a.889.889 0 0 0-.7-.3c-3.7 0-4.6 3.5-2.8 5.3l3 3c.38.34.42.91.1 1.3a40.176 40.176 0 0 0-8.9 21.5c-.08.5-.49.88-1 .9h-5.3c-.27-.01-.52.1-.7.3-2.6 2.6-.8 5.7 1.7 5.7h4.2c.51.02.92.4 1 .9.78 7.89 3.88 15.37 8.9 21.5.33.39.28.97-.1 1.3l-3.7 3.7c-.2.18-.31.43-.3.7 0 3.7 3.5 4.6 5.3 2.8l3-3a.94.94 0 0 1 1.3-.1 40.176 40.176 0 0 0 21.5 8.9c.5.08.88.49.9 1v5.2c-.01.27.1.52.3.7 2.6 2.6 5.7.8 5.7-1.7v-4.2c.02-.51.4-.92.9-1 7.89-.78 15.37-3.88 21.5-8.9.39-.33.97-.28 1.3.1l3.7 3.7c.18.2.43.31.7.3 3.7 0 4.6-3.5 2.8-5.3l-3-3a.94.94 0 0 1-.1-1.3 40.176 40.176 0 0 0 8.9-21.5c.08-.5.49-.88 1-.9h4.2c2.6.1 4.4-3 1.8-5.6zm-43.7-31.1c0-.55.44-1 .99-1.01.04 0 .07 0 .11.01a35.48 35.48 0 0 1 17.6 7.3c.44.34.52.96.19 1.4-.03.03-.06.07-.09.1l-12.2 12.2c-.32.33-.83.37-1.2.1a17.64 17.64 0 0 0-4.5-1.9c-.47-.1-.81-.52-.8-1-.1.1-.1-17.1-.1-17.2zm-24.7 6.3c5.06-3.98 11.11-6.5 17.5-7.3a.992.992 0 0 1 1.09.89c0 .03.01.07.01.11v17.2c.01.48-.33.9-.8 1-1.59.38-3.11 1.02-4.5 1.9-.38.24-.87.2-1.2-.1l-12.1-12.2c-.41-.37-.45-1-.09-1.41l.09-.09zm-5.8 5.8c.34-.44.96-.52 1.4-.19.03.03.07.06.1.09l12.2 12.2c.33.32.37.83.1 1.2a17.64 17.64 0 0 0-1.9 4.5c-.1.47-.52.81-1 .8h-17.1c-.55 0-1-.44-1.01-.99 0-.04 0-.07.01-.11a34.44 34.44 0 0 1 7.2-17.5zm1.5 43.4a.996.996 0 0 1-1.41 0c-.03-.03-.06-.06-.09-.1a35.047 35.047 0 0 1-7.3-17.6.992.992 0 0 1 .89-1.09c.03 0 .07-.01.11-.01h17.2c.48-.01.9.33 1 .8.38 1.59 1.02 3.11 1.9 4.5.24.38.2.87-.1 1.2 0 .1-12.2 12.3-12.2 12.3zm23 12.1c0 .55-.44 1-.99 1.01-.04 0-.07 0-.11-.01-6.4-.76-12.46-3.29-17.5-7.3-.44-.34-.52-.96-.19-1.4.03-.03.06-.07.09-.1l12.2-12.2c.32-.33.83-.37 1.2-.1 1.41.84 2.92 1.48 4.5 1.9.47.1.81.52.8 1v17.2zm3-22.8c-6.08 0-11-4.92-11-11s4.92-11 11-11 11 4.92 11 11-4.93 11-11 11zm21.7 16.5a35.047 35.047 0 0 1-17.6 7.3.992.992 0 0 1-1.09-.89c0-.03-.01-.07-.01-.11v-17.3c-.01-.48.33-.9.8-1 1.59-.38 3.11-1.02 4.5-1.9.38-.24.87-.2 1.2.1l12.2 12.3c.4.42.4 1.08 0 1.5zm5.8-5.8c-.34.44-.96.52-1.4.19-.03-.03-.07-.06-.1-.09l-12.2-12.2a.916.916 0 0 1-.1-1.2 17.64 17.64 0 0 0 1.9-4.5c.1-.47.52-.81 1-.8h17.2c.55 0 1 .44 1.01.99 0 .04 0 .07-.01.11-.8 6.39-3.33 12.44-7.3 17.5zm6.3-24.7h-17.3c-.48.01-.9-.33-1-.8-.38-1.59-1.02-3.11-1.9-4.5-.24-.38-.2-.87.1-1.2l12.3-12.2a.996.996 0 0 1 1.5.1c3.98 5.06 6.5 11.11 7.3 17.5a1.1 1.1 0 0 1-1 1.1z"/></svg>