<svg xmlns="http://www.w3.org/2000/svg" viewBox="0 0 128 128" style="enable-background:new 0 0 128 128" xml:space="preserve"><linearGradient id="a" gradientUnits="userSpaceOnUse" x1="48.373" y1="71.256" x2="65.03" y2="49.223" gradientTransform="rotate(170.984 63.3 64.455)"><stop offset="0" style="stop-color:#a47b62"/><stop offset=".402" style="stop-color:#ba8d68"/></linearGradient><path style="fill:url(#a)" d="M71.96 53s-3.53 11.93-5 15.33l-4.39 11.02c-.7 1.55-.08 3.58 1.39 4.43 1.69.97 4.14.24 4.95-1.53l12.54-26.41-1.01-3.46-8.48.62z"/><path style="fill:#7c7c7c" d="M105.56 74.61v48.08h-5.65l-7.87-38.21c-.04-.24-.24-.41-.46-.41s-.42.17-.46.41l-7.87 38.21H77.6V74.61h27.96z"/><path style="fill:#424242" d="M102.61 124h4.45c.82-.02 1.41-.96 1.17-1.78-.74-2.5-2.99-4.32-5.62-4.32-2.68 0-4.96 1.9-5.66 4.46-.22.82.39 1.63 1.21 1.63 0 .01 4.45.01 4.45.01zm-22.05 0h-4.45c-.82-.02-1.41-.96-1.17-1.78.74-2.5 2.99-4.32 5.62-4.32 2.68 0 4.96 1.9 5.66 4.46.22.82-.39 1.63-1.21 1.63 0 .01-4.45.01-4.45.01z"/><linearGradient id="b" gradientUnits="userSpaceOnUse" x1="23.735" y1="74.508" x2="4.276" y2="41.407" gradientTransform="rotate(180 63.732 64)"><stop offset="0" style="stop-color:#a47b62"/><stop offset=".401" style="stop-color:#ba8d68"/></linearGradient><path style="fill:url(#b)" d="m100.1 54.1 9.7-.6s4.5 10 6 13.33c0 0 4.24 6.32 6.17 9.17 1.88 1.92 2.36 2.62 3.04 5.19.75 2.83.4 4.38.04 5.06-.35.69-2.25 2.46-3.42 1.38-1.24-1.15-1.15-5.22-2.31-4.94-.6.15.16 1.36.23 2.56s-.85 1.41-1.5 1.08c-.33-.17-1.85-2.71-1.85-2.71l-.65-4.21-15.13-21.23-.32-4.08z"/><linearGradient id="c" gradientUnits="userSpaceOnUse" x1="66.865" y1="50.923" x2="70.29" y2="56.52" gradientTransform="matrix(1 0 0 -1 0 128)"><stop offset="0" style="stop-color:#a47b62"/><stop offset="1" style="stop-color:#ba8d68;stop-opacity:0"/></linearGradient><path style="fill:url(#c)" d="m66.37 69.83-1.78 4.46 1.44 2.76 3.91 3.07 3.67-7.74z"/><linearGradient id="d" gradientUnits="userSpaceOnUse" x1="35.917" y1="84.186" x2="35.917" y2="50" gradientTransform="rotate(180 63.732 64)"><stop offset="0" style="stop-color:#00bfa5"/><stop offset=".705" style="stop-color:#00b29a"/><stop offset="1" style="stop-color:#00ab94"/></linearGradient><path style="fill:url(#d)" d="M80.94 44.87c2.42-.64 6.65-1.06 10.65-1.06 4-.01 8.19.42 10.61 1.06 7.55 2.01 9.42 5.56 11.67 11.65l-8.28 3.2V78h-28V59.72l-8.37-3.2c2.25-6.09 4.17-9.64 11.72-11.65z"/><path style="fill:#99674f" d="M91.54 40.72h-5v5.3c0 2.4 2.04 4.34 4.54 4.34H92c2.51 0 4.54-1.94 4.54-4.34v-5.3h-5zM79.1 33.63c-2.36 0-4.28-2.07-4.28-4.6s1.92-4.6 4.28-4.6h24.48c2.36 0 4.28 2.07 4.28 4.6s-1.92 4.6-4.28 4.6H79.1z"/><path style="fill:#ba8d68" d="M91.39 43.5c-6.98 0-14.5-5.42-14.5-17.32 0-9.53 5.54-19.82 14.5-19.82s14.5 10.28 14.5 19.82c0 11.9-7.52 17.32-14.5 17.32z"/><path style="fill:#613e31" d="m102.09 24.06-.17-.23c-.03-.03-.05-.07-.09-.11-.05-.05-.1-.09-.16-.15-.06-.05-.12-.11-.19-.17-.07-.06-.14-.1-.21-.15s-.15-.1-.24-.15c-.09-.05-.17-.09-.27-.14-.09-.05-.19-.09-.3-.13s-.2-.08-.32-.12c-.22-.06-.45-.13-.68-.16-.24-.05-.48-.05-.73-.06-.25.01-.49.02-.73.06-.24.03-.47.1-.68.16-.11.04-.21.08-.32.12s-.2.08-.3.13c-.09.05-.18.1-.27.14l-.24.15-.21.15c-.06.05-.12.11-.17.15-.05.05-.1.09-.15.14-.04.05-.08.09-.11.13-.13.16-.2.26-.2.26a.71.71 0 0 0 .16.98.7.7 0 0 0 .64.09l.13-.04s.08-.03.21-.09c.03-.01.07-.03.11-.05.04-.01.08-.03.13-.05.09-.04.19-.08.32-.11.06-.02.11-.04.17-.06.06-.01.12-.03.19-.05.03-.01.06-.02.1-.03.03-.01.07-.01.1-.02.07-.01.14-.03.21-.04.14-.02.3-.05.45-.05.15-.02.31-.01.46-.02.15.01.31 0 .46.02.15.01.3.04.45.05.07.01.14.03.21.04.03.01.07.01.1.02s.06.02.1.03c.06.02.13.03.19.05s.12.04.17.06c.06.02.11.03.16.05.05.02.09.03.13.04s.08.03.12.04c.04.02.09.04.13.06.16.08.26.12.26.12.37.15.8-.02.95-.39.09-.22.06-.48-.07-.67zm-20.63 1.07s.09-.04.26-.12c.04-.02.08-.05.13-.06.04-.01.08-.02.12-.04.04-.01.08-.03.13-.04.05-.02.1-.03.16-.05.06-.02.11-.04.17-.06.06-.02.12-.03.19-.05.03-.01.06-.02.1-.03.03-.01.07-.01.1-.02.07-.01.14-.03.21-.04.14-.02.3-.05.45-.05.15-.02.31-.02.46-.02.15.01.31 0 .46.02.15.01.3.04.45.05.07.01.14.03.21.04.03.01.07.01.1.02s.06.02.1.03c.06.02.13.03.19.05s.12.04.17.06c.11.03.22.07.32.11.05.02.09.04.13.05.04.02.07.03.11.05.13.06.21.09.21.09l.12.04a.702.702 0 0 0 .81-1.07l-.2-.26c-.03-.04-.07-.08-.11-.13-.04-.04-.09-.09-.15-.14a2.59 2.59 0 0 0-.38-.3c-.07-.05-.15-.1-.24-.15-.09-.05-.17-.09-.27-.14-.09-.05-.19-.09-.3-.13s-.2-.08-.32-.12c-.22-.06-.45-.13-.68-.16-.24-.05-.48-.05-.73-.06-.25.01-.49.02-.73.06-.24.03-.47.1-.68.16-.11.04-.21.08-.32.12-.1.04-.2.08-.3.13-.09.05-.18.1-.27.14l-.24.15-.21.15c-.07.06-.13.11-.19.17-.06.05-.11.1-.16.15a.73.73 0 0 0-.09.11c-.11.14-.17.23-.17.23a.72.72 0 0 0 .19 1c.21.14.48.15.69.06z"/><ellipse style="fill:#49362e" cx="98.7" cy="28.12" rx="2.21" ry="2.29"/><ellipse style="fill:#49362e" cx="83.98" cy="28.12" rx="2.21" ry="2.29"/><path style="fill:#5d4037" d="M87.77 35.95c1.43.85 6.1.85 7.53 0 .82-.49 1.66.26 1.32 1-.34.74-2.88 2.43-5.09 2.43s-4.72-1.7-5.06-2.43c-.35-.74.48-1.48 1.3-1z"/><path style="fill:#99674f" d="M89.81 32.37c.05-.02.09-.03.14-.04h3.17c.05.01.09.02.14.04.29.11.45.41.31.73-.13.32-.77 1.21-2.03 1.21s-1.9-.89-2.03-1.21c-.15-.31.02-.61.3-.73z"/><path style="fill:#543930" d="M91.55 4.01s-.01 0 0 0h-.01c-19.47.1-15.48 22.34-15.48 22.34s2.19 3.85 2.18 3.77c-.07-3.11 1.17-8.61 2.06-10.95a2.598 2.598 0 0 1 2.91-1.64c1.91.34 4.95.77 8.3.77h.08c3.35 0 6.39-.43 8.3-.77 1.24-.23 2.47.46 2.91 1.64.88 2.34 2.13 7.84 2.06 10.95 0 .08 2.18-3.77 2.18-3.77s3.98-22.24-15.49-22.34z"/><radialGradient id="e" cx="91.542" cy="105.227" r="16.362" gradientTransform="matrix(1 0 0 -1.1282 0 141.438)" gradientUnits="userSpaceOnUse"><stop offset=".794" style="stop-color:#6d4c41;stop-opacity:0"/><stop offset="1" style="stop-color:#6d4c41"/></radialGradient><path style="fill:url(#e)" d="M107.03 26.35s3.99-22.24-15.48-22.34h-.02c-.3 0-.6.01-.89.02-.58.03-1.14.07-1.68.13h-.02c-.04.01-.07.01-.11.01-16.38 2.07-12.78 22.18-12.78 22.18s2.19 3.85 2.18 3.77c-.07-3.11 1.17-8.61 2.06-10.95a2.598 2.598 0 0 1 2.91-1.64c1.91.34 4.95.77 8.3.77h.08c3.35 0 6.39-.43 8.3-.77 1.24-.23 2.47.46 2.91 1.64.88 2.34 2.13 7.84 2.06 10.95-.01.08 2.18-3.77 2.18-3.77z"/><path style="fill:#7c7c7c" d="M22.53 74.61v48.08h5.65l7.87-38.21c.04-.24.24-.41.46-.41s.42.17.46.41l7.87 38.21h5.65V74.61H22.53z"/><path style="fill:#424242" d="M25.48 124h-4.45c-.82-.02-1.41-.96-1.17-1.78.74-2.5 2.99-4.32 5.62-4.32 2.68 0 4.96 1.9 5.66 4.46.22.82-.39 1.63-1.21 1.63 0 .01-4.45.01-4.45.01zm22.05 0h4.45c.82-.02 1.41-.96 1.17-1.78-.74-2.5-2.99-4.32-5.62-4.32-2.68 0-4.96 1.9-5.66 4.46-.22.82.39 1.63 1.21 1.63 0 .01 4.45.01 4.45.01z"/><linearGradient id="f" gradientUnits="userSpaceOnUse" x1="65.262" y1="74.507" x2="45.803" y2="41.406" gradientTransform="matrix(1 0 0 -1 -40.898 128)"><stop offset="0" style="stop-color:#a47b62"/><stop offset=".397" style="stop-color:#ba8d68"/></linearGradient><path style="fill:url(#f)" d="m27.99 54.1-9.7-.6s-4.5 10-6 13.33c0 0-4.24 6.32-6.17 9.17-1.88 1.92-2.36 2.62-3.04 5.19-.75 2.83-.4 4.38-.04 5.06s2.25 2.46 3.42 1.38c1.24-1.15 1.15-5.22 2.31-4.94.6.15-.16 1.36-.23 2.56s.85 1.41 1.5 1.08c.33-.17 1.85-2.71 1.85-2.71l.65-4.21 15.13-21.24.32-4.07z"/><linearGradient id="g" gradientUnits="userSpaceOnUse" x1="143.186" y1="53.383" x2="123.586" y2="86.725" gradientTransform="scale(-1 1) rotate(-4.985 40.38 2284.562)"><stop offset="0" style="stop-color:#a47b62"/><stop offset=".401" style="stop-color:#ba8d68"/></linearGradient><path style="fill:url(#g)" d="m46.93 57.48 14.15 23.51s-1.53 2.62-.39 4.91c1.6 1.15 2.32-2.27 2.94-2.36 1.19-.18 3.08 4.56 4.34 4.56 2.41 1.04 3.53-2.18 3.57-4.08.91-3.31-5.37-6.79-5.37-6.79-1.68-3-4.67-9.8-4.67-9.8-1.21-3.45-4.82-13.8-4.82-13.8l-9.71-.25-.04 4.1z"/><path style="fill:#543930" d="M36.67 4.01c-18.18 0-18.03 16.81-18.03 17.08 0 10.89.83 26.27 5.19 32.32 1.73 2.4 5.07 2.53 5.07 2.53l7.52-.01 7.52.01s3.34-.13 5.07-2.53c4.36-6.05 5.19-21.43 5.19-32.32 0-.27.65-17.08-17.53-17.08z"/><radialGradient id="h" cx="36.418" cy="99.357" r="21.072" gradientTransform="matrix(1 0 0 -1.1901 0 146.887)" gradientUnits="userSpaceOnUse"><stop offset=".794" style="stop-color:#6d4c41;stop-opacity:0"/><stop offset="1" style="stop-color:#6d4c41"/></radialGradient><path style="fill:url(#h)" d="M36.67 4.01c-18.18 0-18.03 16.81-18.03 17.08 0 10.89.83 26.27 5.19 32.32 1.73 2.4 5.07 2.53 5.07 2.53l7.52-.01 7.52.01s3.34-.13 5.07-2.53c4.36-6.05 5.19-21.43 5.19-32.32 0-.27.65-17.08-17.53-17.08z"/><linearGradient id="i" gradientUnits="userSpaceOnUse" x1="77.364" y1="84.186" x2="77.364" y2="50" gradientTransform="matrix(1 0 0 -1 -40.898 128)"><stop offset="0" style="stop-color:#651fff"/><stop offset=".705" style="stop-color:#5914f2"/><stop offset="1" style="stop-color:#530eeb"/></linearGradient><path style="fill:url(#i)" d="M47.08 44.87c-2.42-.64-6.65-1.06-10.65-1.06-4-.01-8.19.42-10.61 1.06-7.55 2.01-9.42 5.56-11.67 11.65l8.28 3.2V78h28V59.72l8.37-3.2c-2.26-6.09-4.18-9.64-11.72-11.65z"/><path style="fill:#99674f" d="M36.47 40.72h5v5.3c0 2.4-2.03 4.34-4.55 4.34h-.91c-2.51 0-4.55-1.94-4.55-4.34v-5.3h5.01z"/><path style="fill:#ba8d68" d="M36.45 8.39c7.63 0 14.69 5.67 14.69 17.7 0 9.66-5.98 15.38-11.19 17.22-1.24.44-2.44.66-3.5.66s-2.25-.22-3.48-.65c-5.21-1.83-11.21-7.55-11.21-17.23 0-12.03 7.06-17.7 14.69-17.7z"/><path style="fill:#5d4037" d="M32.73 35.99c1.4.83 5.97.83 7.37 0 .8-.48 1.62.25 1.29.98-.33.72-2.82 2.38-4.98 2.38-2.16 0-4.62-1.66-4.95-2.38-.34-.73.47-1.46 1.27-.98z"/><path style="fill:#99674f" d="M34.73 32.4c.05-.02.09-.03.14-.04h3.1c.05.01.1.02.14.04.28.11.44.4.3.72s-.75 1.18-1.99 1.18-1.86-.87-1.99-1.18.02-.6.3-.72z"/><ellipse style="fill:#49362e" cx="43.62" cy="28.33" rx="2.16" ry="2.24"/><ellipse style="fill:#49362e" cx="29.21" cy="28.33" rx="2.16" ry="2.24"/><path style="fill:#613e31" d="M40.42 24.32c.41-.54 1.36-1.34 3.21-1.34s2.8.79 3.21 1.34c.18.24.14.52.01.69-.12.16-.46.3-.84.17-.38-.13-1.13-.51-2.37-.52-1.25.01-1.99.39-2.37.52-.38.13-.73-.01-.84-.17a.528.528 0 0 1-.01-.69zm-14.41 0c.41-.54 1.36-1.34 3.21-1.34 1.84 0 2.8.79 3.21 1.34.18.24.14.52.01.69-.12.16-.46.3-.84.17-.38-.13-1.13-.51-2.37-.52-1.25.01-1.99.39-2.37.52-.4.12-.75-.02-.86-.18a.54.54 0 0 1 .01-.68z"/><path style="fill:#543930" d="M36.67 4.01c-18.18 0-18.03 16.81-18.03 17.08 0 3.44.08 7.33.33 11.23l2.98-.01c-.02-1.29.88-9.3 3.58-9.9 9.91-2.23 15.52-7.49 15.52-7.49 1.46 3.18 6.02 6.29 7.66 7.47 1.35.97 1.76 8.22 1.73 9.92h3.42c0-.02.01-.05.01-.07.25-3.88.33-7.74.33-11.16 0-.26.65-17.07-17.53-17.07z"/><radialGradient id="j" cx="36.566" cy="97.573" r="22.073" gradientTransform="matrix(1 0 0 -1.2135 0 148.833)" gradientUnits="userSpaceOnUse"><stop offset=".794" style="stop-color:#6d4c41;stop-opacity:0"/><stop offset="1" style="stop-color:#6d4c41"/></radialGradient><path style="fill:url(#j)" d="M36.67 4.01c-18.18 0-18.03 16.81-18.03 17.08 0 3.44.08 7.33.33 11.23l2.98-.01c-.02-1.29.88-9.3 3.58-9.9 9.91-2.23 15.52-7.49 15.52-7.49 1.46 3.18 6.02 6.29 7.66 7.47 1.35.97 1.76 8.22 1.73 9.92h3.42c0-.02.01-.05.01-.07.25-3.88.33-7.74.33-11.16 0-.26.65-17.07-17.53-17.07z"/><path style="fill:#ba8d68" d="M67.34 86.4c-.16-.07-.32-.11-.5-.11-.04 0-.07.01-.11.02l.05-.1c.28-.62.04-1.36-.55-1.66-.16-.08-.33-.12-.51-.12-.07 0-.14.02-.21.03.25-.6.03-1.31-.53-1.61-.17-.09-.35-.14-.54-.14-.26 0-.51.1-.71.26-.07-.37-.29-.72-.66-.91-.17-.09-.35-.13-.53-.13-.46 0-.87.27-1.07.7l-.92 1.96c-.29.62-.05 1.39.58 1.71.17.09.35.13.54.13.19 0 .36-.06.52-.14.01.1 0 .2.03.29.1.32.3.58.58.73.17.09.35.14.54.14.21 0 .4-.06.57-.16.06.39.27.76.63.94.16.08.33.12.51.12.16 0 .31-.04.44-.11.08.38.3.72.65.89.16.07.32.11.5.11.47 0 .9-.29 1.09-.74l.18-.42c.3-.63.03-1.39-.57-1.68z"/><path style="fill:#91674d" d="M67.56 86.32c.54-1.78-1.46-2.21-1.46-2.21.28-1.01-1.32-2.17-2.31-1.59-1.48-1.48-2.52-.13-2.66.81 0 0 .74-1.13 1.51-.77.52.24.51.74.35 1.22-.25.75-.46 1.51-.46 1.51s.56-.95 1.04-1.56c.16-.21.67-.63 1.21-.33.54.29.55.96.47 1.2-.26.82-.93 1.92-.93 1.92s.5-.51.92-.99c.33-.38.61-.62 1.11-.39.54.25.51.86.35 1.17-.33.66-.76 1.45-.76 1.45s.78-1.19 1.59-.52c.51.43.06 1.48.12 1.42 1.44-1.46-.09-2.34-.09-2.34z"/></svg>