<svg xmlns="http://www.w3.org/2000/svg" viewBox="0 0 1000 1000"><path fill="#fff" d="M8 195.25c170.83-85.22 341.03-54.42 513.26-27.97 155.21 23.84 312.16 44.57 470.74-34.53v672c-170.83 85.22-341.03 54.42-513.26 27.97C323.53 808.88 166.58 788.15 8 867.25v-672"/><path fill="#00ab39" d="M8 531.25c170.83-85.22 341.03-54.42 513.26-27.97 155.21 23.84 312.16 44.57 470.74-34.53v336c-170.83 85.22-341.03 54.42-513.26 27.97C323.53 808.88 166.58 788.15 8 867.25v-336"/><path d="M704.32 272.06c-2.66-.41-5.01-.09-7.92 1.05-5.59 2.42-12.43 7.77-24.22 16.12-26.8 18.71-56.65 18.19-92.71 14.09-75.04-8.5-108.69 3.57-125.46 25.45-16.14 21.68-14.3 50.47-16.2 71.69-1.39 14.5-4.02 26.33-14.32 38.75 2.79-6.8 3.6-11.65 3-15.71-.91-4.27-2.99-7.09-5.69-9.8-2.67-2.54-5.5-4.81-7.87-7.56-1.75-2.24-2.87-4.82-3.61-8.17 3.23-1.47 6.25-1.11 9.35 1.01 3.58 2.93 5.77 7.71 4.21 15.23-.02.32.2.56.46.8.04.13-.03.25.05.36.33.29.67.34 1.02.14l.1-.09s-.02-.03 0-.05c7.23-6.99 10.22-12.68 10.85-18.25.38-5.61-1.56-10.2-4.46-14.67-2.91-4.29-6.49-8.23-9.13-11.89-2.53-3.67-3.81-6.59-3.41-10.12 1.2-1.05 2.25-1.69 3.24-2 2.27-.49 3.74.2 5.45 1.97 1.54 1.81 2.77 4.3 3.61 7.09.72 2.81.97 5.55.7 7.64-.01.05.05.06.05.11-.08.4.06.75.41 1 .38.23.73.21 1.02-.06.03-.06.05-.09.1-.15.01-.03.02-.06.05-.09 4.77-6.91 6.66-12.79 6.85-18.44-.04-5.7-1.76-10.48-4.36-14.97-2.69-4.34-5.98-8.14-9.04-11.43-2.97-3.17-5.42-5.83-6.8-8.01-.01-.6.01-1.31 0-1.89 2.43-1.32 5.07-1.76 8.02-.87 3.14 1.27 5.55 3.61 7 8.9.02.04.08.03.1.06.08.45.32.8.77.9.47.03.76-.24.8-.72v-.06c.25-10.25-1.55-18.48-5.18-25.24-3.56-6.19-8.35-10.48-14.51-13.53.26-.37.48-.69.82-1.09 2.08-2.49 4.86-5.36 7.61-8.69 5.49-6.84 10.47-15.25 9.54-27.23-.01-.1-.11-.18-.15-.28-.04-.12-.02-.23-.1-.33a1.04 1.04 0 0 0-.62-.3c-.13.01-.13.16-.25.23-.13.04-.26.06-.36.16-5.33 5.97-14.09 6.71-23.91 6.8 1.09-1.92 2.47-4.48 3.76-7.61 1.42-3.66 2.37-7.09 1.98-10.1v-.05c-.01-.08.01-.18 0-.26-.06-.24-.16-.42-.36-.57-.21-.15-.43-.22-.65-.2-.08.02-.09.1-.15.14a.74.74 0 0 0-.36.16c-6.09 5.71-16.85 8.2-26.72 9.83-4.86.79-9.37 1.4-12.79 2.08-1.71.36-3.12.75-4.21 1.21-.7.32-1.21.7-1.63 1.19-6.78-2.23-13.13-3.87-18.83-4.73-10.4-1.43-18.59-.82-24.37 1.07-2.9 1.05-4.95 2.32-6.46 3.95-1.41 1.78-1.92 3.54-1.57 5.77.53 2.01 1.96 3.88 4.11 5.97-14.8-7.19-27.27-10.19-37.67-10.57-4.26-.09-8.14.2-11.67.75-7.06 1.25-12.46 3.47-16.55 5.81-3.16 1.91-5.06 3.59-6.41 5.05-.16.13-.35.17-.51.32-.02.03-.06.03-.1.06-.04.07.02.13 0 .21-.07.09-.23.23-.3.32-.03.01-.08.03-.09.05v.05c-.05.06-.17.16-.22.22-.2.36-.19.72.05 1.04.3.28.66.32 1.02.14 1.89-1.15 3.96-2.15 6.2-3.06.1.03.21.05.29.05 1.87.06 3.72.45 5.55 1.13 1.93.79 3.75 1.76 5.13 2.63 1.36.9 2.3 1.7 2.48 1.86.03.03.06.07.09.1.99.64 2.33 1.3 3.66 1.93-2.79 6.11-3.81 13.63-3.8 24.98-.51.1-.89.2-1.48.3-3.02.42-6.92.67-11.27.47-6.17-.4-12.88-1.82-19.18-4.9 1.01.16 2.05.43 3.05.48 4.68.01 8.5-.96 11.62-2.66.45-.09 1-.15 1.37-.28.33-.15.48-.42.5-.79-.02-.24-.18-.36-.36-.52-.06-.08-.05-.21-.14-.26-4.55-1.8-28.08-12.54-48.24-36.68-.01-.02-.03-.03-.05-.05-.01-.02-.03-.03-.05-.05-.2-.22-.45-.31-.77-.25-.42.15-.65.49-.65.95 0 .1.02.21.05.31.96 12.64 4.8 41.51 29.19 65.04.29.24.62.28.97.11.31-.21.44-.52.41-.9-.58-3.19-.9-5.36-1.48-8.58-.01-.05-.07-.06-.1-.1.01-4.2-.3-7.05-.75-9.45 7.46 6.54 14.92 9.39 22.24 10.37 9.23 1.03 17.51-.69 23.04-1.51.28-.04.59-.1.87-.14-.03 5.45-1.93 11.98-5.18 17.7-1.92 3.18-4.05 5.82-6.35 7.8-2.43 1.9-4.6 2.81-6.96 2.76h-.04c-.4.11-.62.39-.66.8-.17.15-.35.18-.36.42.05.48.33.79.8.82 9.99-.02 18.32.36 27.37.07h.05c1.16-.11 1.65.05 1.68.06-.02.08-.05.18-.15.36-.65 1-2.5 2.89-4.72 5.04-.27.26-.34.56-.2.93.16.35.43.54.8.54.05 0 .12-.04.17-.04.21.17.44.22.7.19.1-.04.17-.08.25-.11.34-.08.59-.19.92-.28 5.97-.49 13.03-1.5 18.69-5.18-.12.6-.33 1.44-.51 1.93-.23.49-.59 1.01-1.28 1.71-.08.08-.31.26-.41.35-.94.71-1.63 1.31-2.83 2.12-.07.03-.09.05-.15.1-.28.2-.38.51-.31.87.1.36.31.57.65.65.07.02.15.03.22.01l.1.01c.04 0 .11-.04.14-.04 6.31-.51 16.75-4.64 24.73-12.48 4.11 1.03 6.48 3.01 8.38 5.23.95 1.18 1.68 2.23 2.43 3.04.32.29.69.48 1.07.65-.05.38-.29.73-.25 1.08.24.79.68 1.36 1.31 1.83-2.88 5.35-3.68 8.88-3.34 11.46.31 1.47.86 2.41 1.52 3.16-3.91 2.67-6.99 5.46-8.67 8.17-.85 1.56-1.2 2.89-.92 4.33.12.39.38.7.61 1.04-.3 0-.56-.09-.92-.02h-.05c-3.9 1.79-7.42 5.13-9.6 8.77-.99 1.88-1.49 3.55-1.42 5.26.09.74.37 1.36.77 1.98-4.88 2.43-9.26 7.6-11.89 12.64-1.26 2.62-1.93 4.85-1.82 6.86.13 1.02.49 1.83 1.26 2.47-.16.17-.28.28-.46.46-.08.08-.16.1-.24.19-4.92 2.59-8.02 8.08-9.55 13.51-.68 2.75-.9 5.13-.56 7.11.18.69.57 1.21.97 1.75-.27.18-.57.3-.82.5-1.46 1.3-2.51 2.74-2.89 3.29l-.04.05c-2.82 3.84-4.02 9.54-3.92 14.79.13 2.61.58 4.82 1.47 6.6.35.59.83.98 1.31 1.4-.05.06-.24.19-.29.25l-.05.04c-2.81 3.85-4.01 9.55-3.92 14.8.14 2.63.6 4.82 1.48 6.6.49.87 1.06 1.52 1.83 1.99.4.19.86.12 1.31.14-.1.16-.43.53-.5.62-.01.02-.02.07-.05.1-.46.48-.74 1.01-1.02 1.8-.12.39-.2.9-.3 1.35-1.93 3.44-3.08 1.71-4.16.15-7.62-16.35-14.89-25.94-22.24-62.75-1.52-6.4-15.05-16.39-19.15-42.23-.43-6.23 7.56-18.3-4.06-22.28-.03-.01-.06 0-.09.01-8.7-15.44-24.4-8.69-27.52-3.14-.24.32-.24.67-.07.99.23.29.5.36.87.26 2.6-.59 8.04.95 8.63 5.17-3.28 9.24.66 15.36-1.51 15.18-1.02-13.51-14.29-12.26-15.24-12.08-.01.02 0 .05 0 .07l-6.44-.2c-21.42 2.79-15.5 17.7-14.12 20.89.25.26.65.31 1.16.23.5-.13.79-.35.92-.69-.57-6.02 3.46-6.68 8.68-4.93 3.49 11.84 9.43 11.73 10.61 11.68v.06h.09c9.01 1.43 11.57 6.82 11.8 10.72-2.95-.9-6.19-1.2-11.12.06-3.52-2.99-9.27-3.73-11.53-3.98-1.35.04-7.24 1.53-10.42 5.78l-1.01-.05c-13.24 6.61-7.87 20.3-3.3 22.04.21.23.45.28.77.17.28-.16.38-.4.4-.74-1.73-4.73.58-7.16 4.26-6.28 5.33 5.17 11.2 6.64 24.17-1.67.21.08 4.52 1.7 9.09 3.17.05 5.6 5.43 14.66 9.64 21.76-1.36 5.7-3.49 11.29-4.71 13.49-.03.02-.08.08-.11.11-5.23 4.68-9.41 14.15-7.51 22.97-1.97 4.39-7.04 7.12-7.51-1.12-.31-.21-.6-.23-.92-.03-.3.24-.41.55-.35.92-1.57 6.03 6.62 20.95 20.82 12.04l2.78-3.37c4.72-.51 9.13-6.22 11.07-11.79 6.94 42.79 23.04 85.98 29.8 100.24-5.44 15.69-19.21 15.18-24.37 10.18-.05-.03-.08-.06-.14-.1-.39-.27-.8-.18-1.12.18-.27.42-.24.82.1 1.16 9.03 9.01 13.7 11.76 22.55 11.89 19.41-.28 25.82-11.44 27.52-16.89 16.18-3.12 28.72-12.65 33.36-13.39.7.71 1.72 1.96 2.37 2.58 3.96 3.45 7.02 5.34 9.91 6.04 1.41.24 2.57.13 3.75-.32 1.19 2.44 2.73 4.38 4.83 6.15-.81 5.78-1.57 17.62-5.63 32.52-4.34 15.4-12.25 33.19-27.68 50.07-6.3 2.03-10.79-1.92-14.16-4.85-2.73-2.47-9.31-10.13-10.77-14.15-1.5-4.74-3.12-7.86-5.48-10.44-2.59-2.4-6.21-3.31-9.44-3.72.03.01-.07 0-.1 0-1.12.06-1.87 0-2.59.07-9.8-7.34-18.33 4.82-17.57 13.15.04.35.23.6.61.71.39.08.71-.03.97-.31 1.65-2.96 4.65-2.24 6.9.46-.26 2.99-.04 5.88 2.94 9.86-3.12.26-6.55 1.14-10.71 5.8-16.13 2.74-13.06 20.45-8.38 23.94.17.34.45.49.82.45.34-.08.56-.31.65-.68-4.84-7.24 1.82-9.74 5.89-6.88 1.23 3.08 5.04 5.73 8.79 7.66-.23 1-1.18 4.49-.97 5.59-17.04 10.37-1.47 26.13 2.74 25.56.34-.09.62-.12.92-.31.28-.23.38-.57.3-.94-2.39-4.35-2.66-8.45 1.73-7.48 2.41 1.4 6.35 2.09 8.73 2.22 5.54 0 8.44-3.25 15.38-9.98 4.36-3.72 6.99-1.96 9.76-.33.3 1.27.71 2.49 2.08 3.25 2.12.88 6.31 1.57 8.94 1.7 14.17.3 21.93-2.08 28.42-3.84 6.5-1.71 12.27-2.36 17.73-1.95 5.07.48 8.33 1.79 13.86 4.28 2.78 1.33 7.17 3.83 9.35 4.26 3.65.11 5.02-1.19 6.03-2.58 5.38-.12 6.5 2.04 3.56 7.96-.08.37.06.73.34.98.33.24.62.24.92.07 5.68-1.99 21.59-15.25-.24-27.62-3.53-3.53-7.65-6.38-11.12-6.98-3.44-.27-6.77.58-10.32 1.04-3.54.38-6.94.69-8.12.64-4.53-.67-4.71-3.06-5.18-8.42-.12-5.37 10-21.81 14.78-27.88 9.3-11.52 21.62-24.3 30.52-32.55 26.46 2.75 15.84 16.74 11.31 19.51-.35.21-.45.55-.29 1.02.2.42.53.63.95.59.1-.02.16-.05.26-.08 9.77-1.46 18.43-6.68 21.73-12.6.2-.33 6.56-10.98 1.02-22.63-.27-.65-.58-1.51-.87-2.21 3.41-1.44 7.11-6.08 7.51-7.03 4.89 1.94 20.81 3.48 22.96-6.04 8.24 1.84 21.42-1.11 22.44-9.86 1.06 1.01 2.81 1.35 5.13 1.33 1.39 7.8 11.32 15.7 14.27 14.97 1.61 12.6 15.68 20.17 20.47 19.01-.11 3.15 9.88 9.7 14.77 10.5-8.67 22.53-23.6 46.45-44.59 54.11-5.66-1.62-13.5-6.51-17.15-9.51-2.88-2.43-6.28-5.41-8.65-9.39-2.22-4.01-2.09-3.89-4.46-6.65-2.65-2.79-6.91-5.1-8.62-5.38-1.15-.01-2.87.5-4.58 1.39-20.69-6.41-18.66 8.28-16.86 14.33.04.34.24.63.61.81.39.14.72.06.97-.18.42-7.9 4.14-7.19 6.75-3.24-.03.13-.07.22-.05.36 1.17 3.02.73 4.25.25 5.33-2.35-.06-4.5.2-7.3 1.81-18.34-4.1-16.31 15.64-10.72 19.34.17.37.45.56.82.59.34-.03.56-.22.65-.58-2.65-5.61 4.37-11.44 6.86-2.48v.05c-.21.27-.26.57-.1.93.69 3.05 3.59 6.04 6.64 8.09-.59.81-1.53 1.43-1.87 2.91-18.99 4.69-8.55 22.05-2.79 25.72.3.24.64.29.95.14.3-.19.38-.47.32-.84-1.63-3.1-1.23-8.05 6.85-6.22.99 2.49 3.93 3.88 6.86 4.47 5.58.6 15.33-5.08 20.71-7.34 5.17-1.76 12.86.21 15.14.72 1.13 1.1 2.62 2.12 6.34 2.76 19.22 2.5 22.48-7.14 41.89-4.15 9.08 1.77 28.77 14.58 35.85 6.16 3.11-.39 4.43 1.92 1.02 5.38-.21.27.04.71.34.99.31.21.56.01.92.08 5.91 1.01 22.6-14.72.2-24.63-.1-.21-.1-.36-.35-.62-.63-.62-3.37-3.75-10.17-5-7.04-.79-11.81 1.46-14.27 1.92-5.04.31-3.39-2.97-2.73-4.54 5.91-13.32 32.93-35.78 45.44-45 1.25-.36 2.72-.94 4.53-1.86 12.57-2.55 15.7 9.34 3.54 12.84-.48.56-.54 1.23-.2 1.98.43.7 1.03 1.04 1.77.99 28.78-4.71 24.6-20.93 24.54-21.34.53-16.73-18-25.71-21.54-27.85-5.29-6.82-6.43-10.3-6.13-14.69.35-2.31 1.6-5.09 4.56-3.56 5 4.5 9.84 7.02 11.84 4.35-2.49 4.04 18.79 19.67 21.93 14.55 2.86 10.33 18.19 11.11 21.92 8.73 5.49 9.86 21 8.63 21.64 6.94-.07 3.72 14.1 9.26 21.73 4.42l.31.8c5.57 7.3 8.92 16.58 12.79 33.08 3.78 16.55 3.08 29.26-1.98 42.4-.37.43-1.54.47-3.2.38-4.12-1.83-6.46-3.19-9.28-5.58-2.67-2.34-5.75-5.53-8.14-9.01-2.15-4.08-3.71-7.19-6.03-9.81-2.59-2.46-6.33-3.76-9.55-4.35l-.1-.01c-1.39.07-2.48.41-3.56 1.07-15.68-5.51-22.59 9.58-21.02 15.64.05.36.29.64.67.8.39.12.71.02.95-.23 2.05-4 8.19-5.26 11.24-1.37.34 1.72.22 2.83-.12 3.65-3.36.16-6.81.83-10.66 5.15-17.97.18-11.98 17.75-8.21 23.28.17.36.45.54.8.54.36-.04.61-.24.72-.62-.09-5.53 4.33-10.77 8.43-6 1.88 2.8 5.13 4.85 7.81 5.79-20.34 8.56-6.14 22.92-.25 26.15.31.22.6.23.92.07.28-.21.42-.49.34-.86-2.35-4.7-1.3-9.96 3.71-8.42.42 3.55 6.37 6 9.91 6.45 5.55.2 11.19-3.75 16.54-6.53 5.2-2.36 16.66-2.26 19.14-2.23 8.31 7.82 22.7 6.1 31.49 3.26 9.04-3.16 15.86-8.2 22.94-8.89 9.83.04 16.77 10.59 25.44.18 5.75-2.75 6.95 3.19 4.48 8.14-.09.37.01.65.31.84.31.17.64.15.95-.09 5.88-3.31 19.65-17.53.26-25.83.53-2.99-7.31-9.2-14.92-9.06-9.16.96-21.92 14.8-27.52-12.35-1.2-6.64-4.91-54.52-5.18-59.17 1.82-1.22 3.99-2.48 5.74-2.6 2.13-.17 3.79-.34 5.93 2.71 1.99 3.34 3.33 7.59-1.47 14.61-.05.11.06.19.05.32-.06.15-.17.27-.15.42.03.1.14.12.2.19.04.09-.01.2.04.27.07.04.13-.03.22-.01.06.04.07.13.15.15.31.06.58-.04.82-.28 12.26-13.25 15.08-26.35 11.97-35.49-3.54-9.06-12.04-15.04-19.5-15.25-8.88-.14-18.25-5.08-26.7-13.09-8.25-8.07-13.35-17.02-16.71-25.51-.61-1.54-1.4-3.05-2.09-4.56 53.57-17.69 68.71-63.92 68.8-90.32-.14-18.71-7.42-33.68-18.07-45.04-.1-4.5.98-10.1 2.69-15.22 1-2.86 2.09-5.44 3-7.29.4-.79.72-1.35 1.02-1.83.26 1.07.49 2.07 1.11 3.66.92 2.26 2.11 4.9 3.46 7.59 2.77 5.41 5.99 10.59 8.73 12.93.25.18.52.19.82.06.27-.17.45-.4.51-.72 2.24-27.46 11.33-66.61 40.55-107.04.02-.02.04-.03.05-.06.02-.01 0-.03 0-.05.12-.07.2-.13.31-.2.37-.27.51-.64.41-1.05-.17-.38-.49-.55-.91-.45-.05.02-.1.04-.15.07-.02.01-.05 0-.05.01-6.69 4.14-12.72 8.02-18.19 11.68-47.48 30.87-56.01 47.1-82.7 67.9-.32.25-.43.6-.32 1.01.17.36.47.54.87.53 13.11-.52 24.21-3.54 34.53-9.17-2.62 4.42-5.63 9.77-8.53 14.55-1.72 2.78-3.38 5.22-4.73 6.87-.68.8-1.26 1.41-1.72 1.73-.23.15-.24.1-.36.12-7.14-3.32-14.35-5.22-21.47-5.45-26.56-.32-44.26 15.69-44.69 37.59.16 23.47 17.23 41.36 34.94 41.31 6.17-.18 13.97-1.62 21.27-6.38 5.26-3.66 9.64-8.9 12.49-16.59.06.62.19 1.21.2 1.84-.14 12.6-4.59 20.83-12.23 26.8-7.76 5.72-18.21 8.47-30.36 8.32-11.79-.38-23.78-7.39-40.87-15.86-17.11-8.43-39-17.79-70.49-22.54-9.51-1.38-18.23-1.6-25.84 1.23-.47.2-.89.52-1.36.75 4.08-4.38 8.81-7.99 14.61-10.52 13.9-5.72 30.87-5.53 46.62 2.6 1.67 1 3.64 2.23 5.07 3.01 1.21.61 1.86.72 2.9 1.14.25 2.01.24 3.44-.05 4.18-.19.37-.4.49-.67.62-.15.05-.34.06-.56.09-.33.04-.67.08-1.21-.08-.3-.07-.55-.02-.75.19-.2.22-.25.51-.17.82-.03.39.13.71.46.94.22.12.41.12.61.22 1.34 1.39 2.53 2.06 3.92 1.99 1.67-.33 2.9-1.35 4.05-2.85 1.07-1.49 1.83-3.17 2.3-4.84.02-.19.02-.34.04-.52 1.33-1.51 2.15-3.36 1.82-6.05-.63-2.82-2.53-5.49-6.64-8.36-.07-.08-.07-.2-.16-.27-.14-.14-.94-1.09-1.67-2.64-.68-1.56-1.35-3.65-1.87-6.06-.98-4.88-1.24-10.77 0-16.7 2.78-11.91 11.06-22.29 34.76-23.11.12-.01.17-.11.27-.13 4.57 1.25 8.59 2.12 11.72 2.33.5.02.87-.05 1.33-.06.22.26.42.48.61.82.34.68.53 1.34.46 2.22-.15.69-.66 1.49-1.33 2.38-.05.02-.05.03-.1.05a.78.78 0 0 0-.56.48c-.09.28-.06.53.1.8v.1h.05v.05c.1.32.32.52.61.61.33.07.63-.03.96-.04 1.5.51 2.74.54 4.07-.22 1.66-1.18 2.92-2.91 3.81-5.06.78-2.24 1.04-4.39.41-6.58-.57-1.42-1.63-2.35-3.15-3.17-18.57-21.27-17.79-44.98-10.51-65.04 3.74-9.97 9.04-18.73 14.36-25.4 5.46-6.64 11.16-11.15 14.12-12.24.15-.04-.1.13.05.06 1.19.11 2.34.21 3.45-.04 1.65-.47 3.07-1.22 4.42-2.21.06.08.01.21.1.26.45.14.8-.03 1.02-.44l.05-.05c.15-.09.41-.2.7-.3.63-.18 1.36-.27 1.89-.21.27.05.45.14.56.22.1.08.15.12.19.32.04.45-.13 1.43-1.06 3.12-.02.03-.03.01-.05.05v.1c-.11.22-.13.44-.05.68.02.02.03.04.05.06v.05h.05c.01.04.03.07.05.1.01.02.03.04.05.06.01.02.03.03.06.05.05.05.13.08.2.11.03.02.06.04.1.06H719.97c.03 0 .07.01.1 0 .08 0 .16-.01.24-.04.07-.03.1-.08.15-.1.03-.02.04-.04.07-.05 1.52-.33 2.86-1.12 4.21-2.48 1.43-1.6 2.52-3.45 3.13-5.5.53-2.16.43-4.07-.95-5.77-1.35-1.26-3.27-1.8-6.24-1.9-.58-1.22-1.41-2.16-2.69-2.84-1.23-.53-2.71-.69-4.43-.71l-1.12-.35c-3.05-2.06-5.51-3.24-8.12-3.81M295.9 310.35c5.59.34 10.92 1.55 16.09 4.17-1.14.85-2.42 1.42-4.12 1.76-3.23.48-7.09.13-10.95-.75-3.83-.97-7.35-2.39-9.81-3.72-.73-.43-1.09-.77-1.58-1.15 3.41-.31 6.87-.45 10.37-.31m427.92 132.48c2.03.13 4.17.58 6.45 1.41 1.67.68 3.3 1.69 4.92 2.71-.23.29-.4.63-.51.99-3.18 10.77-8.14 13.56-12.74 13.55-4.61-.46-7.81-3.48-8.12-8.18.14-5.77 1.82-8.01 4.77-9.54 1.49-.64 3.19-.97 5.23-.94m-306.94-8.52c1.23 0 2.09.32 2.95 1.1.81.83 1.42 1.99 1.73 4.05.03.11.15.14.21.25.02.3.07.58.34.77.11.05.16-.02.27-.02-1.45 1.62-2.84 3.22-4.58 4.87-2.72-1.54-4.95-3.51-7-6.91 1.82-2.43 3.9-3.85 6.08-4.11"/><path fill="#d21034" d="M704.69 274.96c-10.04 9.75-19.85 16.41-33.87 24.17-24.73 13.45-53.2 14.4-89.17 11.45-72.98-5.98-104.28 2.33-119.67 21.32-14.75 18.84-12.44 45.77-16.2 73.38-1.25 8.67-3.83 18.66-8.43 26.98-4.06 7.04-9.32 12.23-16.65 14.77 20.06-16.16 20.29-33.89 21.98-44.55 2.98-18.9-.16-46.45 14.22-67.73 15.05-21.54 46.79-34.69 122.93-27.3 31.26 3.03 50.25 1.98 63.52-.69 13.22-2.8 20.58-7.06 28.22-11.29 7.83-4.45 14.38-11.34 20.67-16.03 3.24-2.33 6.2-3.91 9.39-4.56 1-.14 2.03-.01 3.06.08m8.82 4.56c1.42 0 2.51.14 3.15.41.71.37.97.71 1.16 1.23.27 1.14-.14 2.94-1.51 4.99-1.51 1.95-3.48 3.44-5.79 4.16-2.47.35-6.02-1.31-6.85-1.94-.31-.29-.67-.27-1.07-.31l-1.18-1.41a.823.823 0 0 0-.7-.35.89.89 0 0 0-.46.19c-35.83 31.71-66.35 35.37-116.72 32.14-17.16-1.1-44.01-1.69-67.24.64-11.63 1.22-22.27 3.17-30.46 6.23-8.27 3.26-13.58 7.31-15.04 13.39-.03.28.04.53.22.77.2.23.43.35.7.37l.31-.01c.39.56.83.91 1.48.96 4.27.3 16.57 2.13 33.19 5.33 16.62 3.24 37.67 7.81 59.86 13.14 42.68 10.29 89.63 22.95 117.3 36.74.55.71 1.04 1.44 1.62 2.15-.01.01.01.03 0 .05-.78.34-2.41.46-4.97.1-5.01-.83-12.9-3.25-22.5-6.6-19.14-6.72-45.08-16.98-68.85-22.76-40.5-9.81-64.76-19.48-120.18-28.11l-.19-.03c-.07.01-.12.02-.17.03-.24.1-.31.2-.5.34-.2.14-.45.34-.71.58-.53.49-1.13 1.14-1.72 2.04-1.17 1.94-2 4.39-1.67 7.96.03.31.19.57.44.74.12.08.29.12.41.18.18.22.21.52.46.64 4.75 1.61 15.59 6.71 29.55 13.97 13.94 7.27 31.04 16.7 48.84 26.9 34.69 19.9 71.64 42.29 92.46 58.18 1.46 1.34 3.5 3.2 4.58 4.71.26.41.46.77.56 1.04.06.29.04.45 0 .59-.16.18-.9.44-1.94.63-8.26-2.78-21.17-11.28-36.24-22.1-16.43-11.82-35.17-25.8-52.71-35.88-30.91-17.65-68.25-40.41-85.86-47.11-.06-.02-.14-.05-.21-.08-.26.01-.31.25-.46.45-.12-.03-.23-.05-.34-.05-.1.02-.18.07-.27.13-1.27.72-2.06 1.45-2.54 2.54-.35 1.12-.25 2.23.26 3.6 1.15 2.62 3.56 5.72 7.37 10.27 7.57 9.03 20.26 23.41 36.5 47.35 28.07 41.52 41.15 61.44 46.81 71.18 2.82 4.96 3.63 7.23 3.76 8.15.02.44-.02.5-.2.66-.14.09-.46.25-.76.41-2.29-.47-3.49-1.05-4.88-2.5-1.33-1.58-2.77-4.05-4.92-8.18-4.28-8.22-11.53-22.55-28.28-47.69-10.21-15.24-22.55-31.86-33.01-45.71-10.32-13.69-18.65-24.53-21.22-28.48l-.2-.61c-.09-.22-.21-.39-.41-.54-.52-.26-1.04-.26-1.47-.05-.38.23-.65.53-.92.95-.48.86-.86 2-1.27 3.48-.76 2.98-1.49 7.11-2.08 11.46-.54 4.36-.98 8.93-1.26 12.7-.26 3.63-.37 6.23-.31 7.65v.32c.02.13.08.24.14.37.81 6.56 3.44 12.34 7.02 20.47 3.68 8.4 8.1 19.23 12.19 35.89 3.41 14.1 6.81 28.67 8.48 39.66.8 5.53 1.11 10.08.9 13.22-.14 1.61-.41 2.73-.8 3.49-.45.74-.81.97-1.48.99l-.05-.01c-.99.07-1.28-.07-1.67-.53-.35-.48-.68-1.41-.97-3.02-.47-3.17-.71-8.54-1.52-16.51-1.68-15.9-5.97-42.18-20.57-83.36-.03-.12-.05-.21-.1-.33-.04-.08-.14-.06-.2-.13-.09-.16-.1-.32-.26-.41-.12-.06-.14.02-.24.01-.07-.02-.09-.12-.17-.12-.06 0-.07.09-.15.13-.11.02-.27-.03-.34 0-.2.12-.34.25-.46.4-.26.32-.53.69-.82 1.24-.55 1.1-1.21 2.69-1.98 4.72-1.5 4.11-3.35 9.97-5.12 16.89-2.31 9.21-4.37 20.28-5.54 31.6l-.2-4.59c-.15-4.16-.13-8.16.15-11.48.17-1.63.44-3.04.77-4.24.14-.53.32-.86.51-1.29.24-.63.49-1.3.8-1.71.03-.03-.01-.07 0-.1.02-.05.03-.08.05-.11.16-.27.17-.57 0-.89-.04-.04-.11-.03-.15-.08-.19-.2-.4-.39-.65-.39a.66.66 0 0 0-.46.13c-6.47 5.42-10.56 9.39-13.86 16.03-1.53 3.25-2.83 7.13-4.02 12.05l.51-8.98c.22-2.51.55-4.37.8-5.08.14-.31.08-.65-.14-.96-.25-.29-.52-.38-.86-.32-.13.02-.19.11-.26.21-.07-.01-.13-.08-.2-.08-.06.01-.11.02-.16.03-4.11 1.44-9.9 4.84-15.02 9.54-2.36 2.25-4.4 4.73-6.1 7.42 1.33-5.18 2.45-7.12 3.55-9.16.35-.43.62-.72 1.02-1.28.14-.27.14-.55 0-.84-.09-.16-.25-.24-.41-.32 0-.02-.03 0-.05-.01-.09-.06-.15-.16-.24-.18-.09-.01-.13.02-.22.02-.13-.05-.21-.17-.34-.15-.1.02-.12.14-.21.18-22.59-.68-35.94 6.29-44.07 15.28-5.25 6.09-7.85 12.47-9.23 18.21 1.18-14.89 9.5-27.49 22.07-31.48 7.13-2.01 16.66-2.27 25.34-2.77 8.49-.51 15.54-1.35 19.4-4.96 10.25-2.45 17.48-10.86 22.8-20.65 5.17-9.86 8.11-20.4 9.18-26.14 4.34-24.59.24-51.47 13.61-70.4 6.95-9.41 17.95-16.56 37.33-20.54 19.37-3.81 46.47-3.99 85.2-.17 31.28 3.04 50.15.89 63.25-2.82 13.05-3.84 20.23-9.04 27.88-13.16 4.25-2.34 11.69-8.25 19.5-13.34 3.93-2.52 7.91-4.73 11.58-6.2 1.6-.61 3.07-.95 4.51-1.21m-301.7-33.28c-1.25 2.86-2.82 5.62-4.62 7.97-1.41 1.75-2.71 3.22-3.71 4.23-.49.5-.9.86-1.16 1.1-.05.06-.07.11-.1.15-.02.01-.03.03-.05.04l-.11.04c-.01 0-.03-.01-.05-.01-.09.07-.15.15-.2.24-5.58.02-10.89.24-15.43 1.54-.6.2-1.03.6-1.58.85-3.33-1.53-6.29-2.58-9.44-3.81 0-.03.04-.02.05-.05.13-.38.5-.76 1.42-1.2.91-.39 2.18-.72 3.76-1.03 3.14-.58 7.36-1.08 11.77-1.78 7.31-1.23 14.55-3.34 19.45-8.28m310.9 37.66c.8.15 1.35.4 1.77.71.8.69 1.02 1.43.92 2.63-.18 1.03-.77 2.13-1.58 3.27.13-.83.32-1.61.05-2.3-.81-1.42-2.08-2.01-3.7-2.43.28-.64.59-1.23.75-1.87.63-.02 1.31-.08 1.79-.01m-290.49-27.35c-2.98 14.6-10.55 22.65-18.27 27.72-4.15 2.61-8.11 4.41-11.12 5.75-1.52.67-2.78 1.23-3.71 1.78-.46.28-.81.58-1.11.9-.32.34-.54.69-.56 1.24.04.49.33.84.8.94l7.77.9 2.74.3c3.66 8.62 5.15 19.98 4.92 33.01-.33 13.93-2.46 29.26-5.47 43.92-3.05 14.74-6.55 31-6.55 45.53.08 7.31 1.04 13.97 3.45 20.02 2.1 4.86 5.03 8.95 9.25 12.48-.86 1.16-2.07 1.98-4.27 2.62-2.59.62-5.88.95-9.54 1.11-7.33.26-15.85.07-22.14 1.19-4.34.89-13.25 4.64-20.57 12.65-5.96 6.87-9.78 16.36-8.18 29.34-.12.24-.19.48-.1.73l.46 1.14c.32 1.99.47 3.79 1.06 5.91v.05c.16.49.54.73 1.02.69.44-.12.65-.46.56-.94 0-.03.01-.08 0-.12-.03-.12-.02-.23-.05-.37-.13-.66-.16-1.29-.26-1.96 1.55.89 3.42 1.49 5.85 1.84-2.92 6.7-5.04 14.36-6.46 22.72-1.58-2.51-3.71-4.81-6.74-7.18.23-.91.39-1.82.39-2.84-.19-4.94-3.08-10.51-10.1-17.93.51-.78.95-1.55 1.28-2.47 1.29-4.34.39-9.55-3.66-17.35 2.53-4.32 2.58-10.44-1.11-20.82-.04-.06-.11-.06-.17-.11.37-.32.75-.57 1.07-.92 3.09-3.85 3.86-9.41 1.33-19-.02-.03-.05-.04-.05-.05.64-.46 1.26-.93 1.82-1.54 2.96-3.53 4.1-8.79 2.85-17.97 1.14-.5 2.13-1.07 3.04-1.99 2.72-3.1 3.87-8.05 3.24-16.88 2.07-.56 3.77-1.37 5.29-2.76 2.72-2.91 3.85-7.12 3-14.38 1.4-.55 2.64-1.17 3.75-2.3 2.44-2.85 3.65-7.06 3.3-14.1.97-.32 1.83-.62 2.49-1.23 1.6-1.8 1.99-4.12 1.99-8.1-.07-3.27-.42-8.11-.71-13.59 1.19-1.84 2.06-3.8 2.48-6.54.47-4.21 0-9.44-1.63-16.29 2.01-5 3.22-10.6 2.91-17.86 1.54.68 3.13 1.15 5.28 1.05 2.53-.27 5.33-1.3 8.98-3.53.09-.05.17-.07.25-.12.07-.04.1-.05.15-.09.34-.26.42-.64.21-1.08-.27-.4-.65-.57-1.06-.43-.05.02-.07.07-.1.09-.88.38-1.73.86-2.4 1.19-.73.33-1.15.36-1.57.18-3.63-1.71-4.38-.38-14.63-10.02a.875.875 0 0 0-.56-.27c-.28 0-.49.08-.65.3-.13.23-.15.5-.05.78.05.13.14.26.19.38.04.03.04.04.07.06 1.05 2.24 2.77 4.37 4.66 6.25.78.73 1.19.94 1.88 1.51-2.32-.84-4.2-1.82-5.74-2.7-.34-.16-.64-.15-.92.06-.22.25-.26.57-.14.93 4.27 11.26 1.2 23.07-6.45 30.96-7.81 7.54-19.01 10.31-32.24 3.14-.18-.36-.48-.53-.87-.53-.2.05-.32.17-.46.34-.02.02-.08.01-.1.04-1.75 2.99-3.3 5.58-6.44 8.48-2.02 1.72-4.95 3.58-8.63 5.57 1.59-1.52 2.66-2.87 3.44-4.32 1.45-3.07 1.49-5.83 1.33-9.7-.04-.41-.25-.69-.6-.82-.39-.09-.71.03-.92.37-2.5 4.29-9.36 10.07-21.13 14.27 4.95-4.17 7.85-8.19 8.29-12.72-.01-.37-.16-.66-.46-.86-.34-.15-.65-.11-.92.12-6.63 5.46-17.49 7-28.54 7.66 2.43-1.22 4.67-2.84 6.86-5.16 4.13-4.69 7.42-11.48 9.59-20.77 7.75 4.75 14.43 6.47 20.42 6.46 6.79-.24 11.93-2.38 15.84-4.46-.1 1.69-.19 3.13-.21 5.27.03.44.26.75.67.89.41.08.73-.08.9-.47 3.6-8.57 5.26-13.74 4.87-18.44-.64-4.7-3.25-8.14-8.31-13.09a.894.894 0 0 0-.67-.25c-.36.07-.58.31-.66.69l-.29 3.23c-10.04-1.41-20.53-11.36-42.35 4.77-.48-9.79.11-15.97 2.58-21.31 1.03.15 2.02.16 3.05.02 2.12-.42 3.82-1.43 5.38-3.69 1.25-2.13 2.01-5 2.39-9.13 13.02 1.05 27.72 4.3 43.82 10.23.05.02.1.05.15.07.41.08.73-.09.92-.46.02-.09-.04-.17-.05-.26.02-.04.07-.01.1-.05.1-.41-.05-.77-.41-1.02-.04-.02-.07-.04-.1-.06-.05-.02-.07-.05-.1-.06a51.077 51.077 0 0 1-6.45-3.89c-1.14-1.15-2.03-2.27-2.44-3.42-.65-2.88.29-5.15 4.02-7.46 7.42-3.98 24.21-4.39 52.23 8.34-1.05 1.31-1.93 2.69-2.59 4.52-.1.38 0 .74.31 1.03.35.24.7.23 1.02.01 8.2-7.02 18.86-7.03 29.75-7.28 9.78-.25 18.58-1.29 25.03-8.23m-8.02 11.8c-.17 0-.32.04-.46.14-7.05 4.62-12.97 5.6-19.8 5.97-5.73.3-8.12 1.93-9.64 2.81-.38.19-.66.31-.87.36-.22.04-.34.02-.56-.07-.43-.23-1.23-.91-2.54-2.56-.28-.28-.58-.37-.9-.27-.32.14-.47.41-.46.78.02.1.11.32.15.44.01.02.03.03.05.06.36 1.43 1.12 3.33 2.18 5.39.59 1.12 1.22 2.21 1.78 3.1.57.9 1.03 1.55 1.63 2.04.21.15.41.21.65.18.24-.05.4-.19.51-.4 2.26-4.52 4.07-6.96 5.63-8.35 1.66-1.28 2.64-1.37 3.72-1.08.99.36 1.89 1.14 2.79 1.98.43.42.84.82 1.26 1.17.47.35.89.63 1.53.62.22-.01.41-.08.55-.24 2.6-3.29 7.39-6.58 13.3-10.49.3-.2.41-.5.32-.89-.15-.39-.44-.63-.82-.69m-219.6-8.79c9.64 12.98 22 24.85 39.92 34.3-7.44.81-12.78-.45-17.58-3.27-5.99-3.81-10.42-9.81-14.83-16.57l-.05-.1c-.21-.29-.5-.4-.85-.31-.27.09-.44.26-.56.51-.11.26-.12.49 0 .73 0 .03.03.03.05.05 6.01 12.61 10.77 18.3 13.81 22.5 2.73 3.91 3.74 6.34 3.3 12.2-7.24-5.38-12.75-14.3-16.67-24.21-3.79-9.94-5.72-19.44-6.54-25.83m482.91 46.56c-4.73 6.53-9.28 14.13-12.64 23.04-6.7 18.42-8.07 40.55 4.77 61.36-28.79-13.01-72.62-24.7-112.76-34.37-22.28-5.36-43.4-9.88-60.06-13.12-14.98-2.88-24.5-4.28-30.11-4.86 2.74-4.23 8.65-7.54 17.51-10.01 9.76-2.6 22.17-4.11 34.72-4.96 25.1-1.61 50.72-.74 56.11-.22 39.97 3.96 67.77-1.69 86.98-9.26 6.15-2.48 11.06-5.03 15.48-7.6m-356.53-41.91c-1.33-.18-2.83-.16-4.72.12-.41.1-.62.4-.61.84.15 1.34.67 2.24 1.47 3.04.81.73 1.7 1.29 2.69 1.98 2.03 1.48 4.03 3.25 5.89 7.95.15.33.38.52.71.58.34.02.59-.12.77-.4.31-.69.43-1.26.56-1.58.03-.08.1-.09.14-.14.28.32.57.62 1.02 1.13.32.37.72.75 1.26 1 .59.2 1.17.21 1.89.05 6.5-1.46 10.83-2.03 13.91-2 3.14.15 4.61.78 6.05 2.08.34.24.7.27 1.01.05.28-.27.32-.64.15-1.03-.05-.08-.09-.1-.15-.17-3.36-5.15-6.33-6.99-9.75-7.84-3.39-.64-6.67-.46-10.52-1.34-3.86-1.05-6-2.2-8.21-3.2-1.13-.49-2.24-.9-3.56-1.12m.92 2.58c1.74.47 5.79 2.15 7.26 2.38-.79 3.6.77 4.96 2.64 6.19-5.26-.38-9.47-7.61-9.9-8.57m-50.48-2.62c.13 1.72.14 4.15-.51 6.26-.5 1.33-1.08 2.13-2.18 2.62-1.16.37-2.61.29-5.12-.83h-.06c-1.65-.9-6.4-3.26-11.57-4.76-1.22-.3-2.4-.33-3.6-.47 6.63-2 14.2-3 23.04-2.82m68.55 6.69c2.65.14 4.52 1.48 2.28 2.84-2.63 1.19-6.36 2.48-9.09 1.68 2.5-.21 3.09-2.44 2.09-4.69-.83-.31 2.12.17 4.72.17m11.53 9.78c-4.4-.53-7.08-.57-9.2-.24-2.11.46-3.45 1.22-5.07 2.25-.28.2-.41.49-.36.86.09.35.33.57.66.69 1.59.47 2.41.74 2.75.93.15.11.18.17.3.34.11.18.26.43.46.89.13.32.37.52.7.59.35.02.6-.12.77-.4 1.18-2.31 2.07-3.25 3.4-3.86 1.24-.43 2.91-.46 5.28-.36.19.02.21-.03.41-.01v-.05c.01 0 .03 0 .05.01.37-.11.59-.37.6-.78-.04-.41-.28-.7-.65-.85-.04-.01-.04 0-.05-.01h-.05m462.2 44.9c-30.83 40.51-38.24 79.15-40.33 91.72-4.19-7.13-8.9-14.58-5.98-24.99v-.06c7.5-18.82 9.98-21.66 29.6-49.68.02-.03.03-.03.05-.06.23-.42.2-.84-.1-1.14-.36-.24-.78-.17-1.12.16-.01.02-.03.04-.05.06-.03.03-.03.02-.04.05-.08.1-.14.19-.22.29 0 0-.03-.01-.05 0-21.12 20.19-30.77 32.7-39.09 41.29-7.85 7.96-14.55 12.12-28.69 14.32 26.15-22.75 37.89-41.62 86.02-71.96m-407.11-28.82c.23.1.21.04.46.16 2.06 1.1 4.57 2.76 7.2 5.23 4.17 4.19 7.92 10.38 9.65 20-1.61-2.64-3.44-4.43-5.64-5.72-3.59-1.83-7.02-2.38-9.39-2.72-.21-1.99-.35-4.17-.61-6 2.92.26 5.38.67 8.48 4.06.35.35.76.43 1.11.21.33-.29.35-.71.1-1.14a.317.317 0 0 0-.05-.06c-3.75-5.48-7.1-8.21-10.51-8.94l-.8-5.08m-190.31-3.07c.6.3 1.22.45 1.84.7 9.29 6.51 17.02 10.23 24.66 11.57 8.03 1.21 15.47-.03 24.18-3.07h.05c1.85-.73 5.3-1.54 9.54-2.11 4.23-.5 9.17-.75 14.07-.59 4.9.22 9.62.88 13.5 2.04 2.71.91 4.53 2.03 6.05 3.37-7.66-2.11-14.83-3.09-23.71-3.03-.23 0-.4.08-.56.23-.3.28-.57.46-.56 1.13.04.35.28.65.51.81.22.13.39.15.56.18.66.1 1.38.03 2.42-.05 2.11-.17 5.07-.37 8.19-.01 3.09.43 4.51.63 11.46 3.35.5.57.76 1.21.97 1.95-.25-.11-.53-.24-.9-.37-.81-.28-1.91-.61-3.27-1-2.73-.74-6.47-1.61-10.71-2.33-8.54-1.39-18.74-1.97-27.1.31h-.05c-7.29 2.82-16.5 4.19-25.85 2.82-8.86-1.5-17.05-5.46-23.71-13.4-.54-.82-1.04-1.68-1.58-2.5m568.93 61.41c-16.59 21.94-25.29 39.51-29.91 51.88-2.71 7.4-4.16 12.89-5.23 16.08-.5 1.37-.93 2.02-1.22 2.38-2.14-1.72-4.28-3.32-6.54-4.78.04-.78.1-1.58.56-2.98.63-1.84 1.6-4.1 2.88-6.76 2.64-5.3 6.54-12.04 11.44-19.52 7.38-11.18 17.05-23.99 28.02-36.3m-375.79-23.62c5.27 4.4 10.2 9.28 13.16 15.92 2.2 5.47 2.96 11.63 1.28 19.76-.61-4.17-2.12-7.49-4.63-10.19-2.23-2.09-4.59-3.32-7.31-3.84-1.81-.22-3.45.1-5.19.75l1.33-8.87c.74-.08 1.66 0 2.99.62 1.47.76 3.1 1.92 4.67 3.27 1.55 1.38 2.96 2.91 4.02 4.38 1.03 1.53 1.58 2.8 1.67 3.8.05.48.34.8.81.91.49.01.79-.25.82-.73-.11-1.26-.64-2.47-1.43-3.81-.23-.52-.27-.92-.56-1.44-1.17-1.92-2.66-3.91-4.26-5.8-1.63-1.86-3.36-3.57-4.87-4.86-1.23-1.01-2.19-1.66-3.2-2 .28-2.75.56-5.48.7-7.87m-57.87-3.94c1.68 4.64 2.04 7.94 1.47 10.72-.87 2.94-2.43 4.75-5.03 6.39-4.54 2.53-10.87 3.36-16.91 3.86-.62-.23-1.66-.5-1.98-.69-.31-.26-.39-.45-.45-.61-.06-.16-.06-.27 0-.47.03-.06.11-.13.15-.19.26-.32.35-.53.85-.94.96-.68 2.28-1.51 3.83-2.44 3.06-1.83 6.93-4.2 10.8-7.36 2.63-2.27 5.04-5.05 7.27-8.27m108.25 17.68c61.51 11.83 77.76 18.99 118.35 29.3 28.05 7.15 53.79 17.54 72.4 23.86.13.04.23.08.36.13-18.23 3.32-26.25 13.54-28.94 24.99-1.38 6.63-1.08 13.09 0 18.53.4 1.82.94 3.23 1.47 4.71-21.73-15.83-55.88-36.53-88.49-55.23-17.85-10.22-35.02-19.68-49-26.98-12.09-6.28-20.95-10.48-26.82-12.81-.42-2.31-.41-4.61.67-6.5m-4.72 14.47c.76.24 1.6.55 3.15 1.25 1.96.93 4.46 2.19 7.41 3.75l21.78 12.05 51.79 29.9c16.84 9.74 40.46 27.25 59.81 40.66l2.69 1.84c-.95-.15-1.69-.38-2.69-.48-6.54-.57-14.12-.24-21.78 1.6-14.8 3.76-28.75 13.12-34.03 33.66-.55-.92-.89-1.59-1.52-2.59-8.58-13.41-23.69-34.21-44.31-64.41-12.79-18.65-25.38-32.82-33.52-42.71-4.08-4.99-6.93-8.9-8.22-11.61-.58-1.33-.67-2.17-.56-2.91m-104.7-12.01c.92 5.35.96 9.03.35 11.59-.85 2.75-2.08 3.95-4.32 4.86-3.27 1.05-8.3.84-14.05.62-2.18-.59-3.36-1.38-4.17-2.46-.74-1.2-.93-2.45-.77-4.03.55-3.09 2.35-6.06 4.17-7.76l.1.01c.59.06.68 0 1.67.2.16-.01.2-.14.31-.24 6.84.08 12.52-.41 16.71-2.79m329.63 53.79c.1.14.27.24.36.39.46 1.05.44 2.17-.07 3.55a8.396 8.396 0 0 1-2.64 3.4c-.05.05-.09.02-.15.05.63-.81 1.05-1.63 1.22-2.59.14-1.14.02-2.23-.3-3.32.19-.09.44-.17.61-.27.41-.33.66-.78.97-1.21m-227.37-27.55c.4.29.53.27 1.06.78 2.47 2.52 6.12 7.19 10.42 13.21 8.53 12.02 19.77 29.26 30.67 44.94 11.25 16.28 20.33 34.28 28.32 47.94 1.29 2.18 2.49 4 3.7 5.91-3.84-1.71-8.01-3.2-12.79-4.03-2.55-.4-5.18-.61-7.87-.59-10.38.29-20.64 4.45-28.95 16.09-1.75-10.77-5.33-24.44-9.74-40.08-6.49-22.88-10.27-31.69-12.89-37.39-2.64-5.65-4.01-8.09-5.95-18.29.02-.03.06-.05.05-.09-.27-4.35.45-12.3 1.57-18.92.59-3.31 1.27-6.25 1.89-8.25.19-.57.33-.85.51-1.23m-48.4-4.1c1.09 1.75 2.48 3.43 4.28 5.25 2.69 2.66 5.71 5.58 8.17 8.98 2.41 3.57 3.94 7.27 3.9 12.28-.22 3.78-1.87 8.1-4.72 13.21.32-2.59.21-4.79-.56-6.88-1.53-3.47-3.98-5.97-6.79-8.12-2.81-2-5.68-3.49-7.62-4.54-.46-.25-.66-.37-.97-.55.61-2.12 1.28-3.43 2.24-4.1 1.41-.69 2.83-.47 4.71.39 1.79.9 3.56 2.27 5.09 3.78 1.47 1.55 2.5 3.12 2.83 3.89.22.46.59.68 1.02.62.42-.14.61-.5.51-.98 0-.01.01-.03 0-.05a.313.313 0 0 0-.05-.1c-2.56-6.67-6.63-9.06-9.6-11.54-1.45-1.3-2.39-2.38-2.93-4.33-.35-1.68-.22-3.98.49-7.21m-194.91-9.02c6.15-.41 10.14 1.65 12.74 5.88-.75.54-1.37.57-2.49.82-.98-2.4-4.14-4.55-7.66-5.12-.29-.15-.57-.17-.87 0-.27.21-.41.48-.41.81.06.34.26.58.57.69 2.59 1.16 4.73 1.82 4 4.2-1.21.07-1.95.13-2.93.1-.45-2.43-4.58-4.2-9.4-5.81 2.34-.85 4.43-1.34 6.45-1.57m136.67 6.9c.34 6.41-.77 9.55-2.83 11.55-2.34 1.77-5.13 2.08-8.84 1.75-3.46-.45-7.15-1.43-10.4-2.09-.11-.18-.17-.35-.36-.4l-.1-.01c-1-.17-1.62-.45-2.03-.78-.4-.39-.56-.76-.61-1.36.02-1.2.68-2.75 1.87-4.45 1.24-1.64 2.77-3.14 4.31-4.21 1.44-.91 2.51-1.14 3.32-1.08 5.49.51 10.71 1.04 13.95 1.16.69.02 1.12-.06 1.72-.08m368.23 48.75c24.23.79 53.92 24.26 54.27 60.12-.1 24.57-13.94 68.51-66.01 85.35-14.69-29.9-42.16-57.18-77.98-73.7a.737.737 0 0 0-.51-.11c-.38.08-.62.31-.65.71.01.41.23.73.6.9 39 18.04 64.75 49.8 77.74 82.96 3.53 8.85 11.87 20.83 20.3 29.08 8.63 8.17 17.99 13.13 27.52 13.27 6.59.13 13.25 3.39 16.56 11.8 2.32 6.78 2.15 14.98-3.77 24.79.92-4.31.19-7.36-1.21-9.79-2.62-3.68-6.93-4.9-10.35-4.81-5.6.53-8.76 2.97-16.4 7.21-.42.26-.55.68-.36 1.15.25.16 2.7.46 5.64.51.38 4.54 7.08 52.09 8.12 58.85 5.66 32.89 27.09 16.23 31.32 16.19 7.36.8 8.81 2.49 11.27 4.76-2.57.94-4.33 7.86-3.25 13.25-9.31 7.1-17.95-1.84-24.83-1.96-7.7.74-16.05 6.14-24.88 9.18-8.15 2.74-12.02 4.62-22.23-.18 1.57-.44 3.46-.96 3.6-.98.22-.02.43 0 .56 0 .15-.01.18-.01.36-.06.33-.02.57-.18.71-.51.12-.33.08-.61-.15-.89-.26-.24-.53-.32-.87-.22.1-.01-.03-.01-.15 0h-.51l-1.67.02-5.08-.04-9.55-.26c-4.4-.07-10.42.99-15.79 3.58-5.3 2.77-9.1 5.8-14.01 5.64-2.84-.28-5.44-.96-7.97-2.96 1.18-4.63.96-10.13-2.29-15.56l-.81-.11c5.64-.59 7.64-2.96 11.37-3.02 4.34.46 4.4 9.17 27.08-4.56.27-.16.43-.38.44-.72a1.02 1.02 0 0 0-.44-.8.828.828 0 0 0-.87.08c-19.97 8.37-13.95 1.99-24.18 1.57-9.81.04-10.1 2.92-15.99 2.6-3.24-.44-6.37-2.06-7.41-3.64 2.22-.89 3.05-7.6 1.98-12.14.03-.16.13-.32.15-.4.08-.38-.07-.7-.36-.97 1.55-1.42 4.63-1.81 7.97-1.63 2.86.46 6.7 3.18 11.19 5.49 4.59 1.96 8.22-.79 13.85 2.9.44.24.84.14 1.12-.26.21-.44.09-.86-.31-1.16-1.87-1.3-6.02-5.61-10.45-8.02-2.88-1.35-6.11-2.34-9.2-3.1-2.35-2.42-5.46-5.79-5.38-6.3 1.09-.64 2.13-1.46 3.1-2.55.94-1.14 1.66-2.37 1.99-3.84.13-.96-.07-1.33-.41-2.02.08-.3.19-.48.29-.92 1.21-1.28 1.87-1.79 3.61-1.89 2.69.54 4.08 1.49 6.35 3.84 2.17 2.41 4.48 5.75 6.65 9.76 3.29 5.92 7.35 9.34 11.73 12.53-1.4 1.12-3.02 2.38-3.15 2.43-.22-.03-.37-.1-.75.07-.44.23-.57.61-.41 1.09.22.46.6.66 1.06.52.1 0 .28.01.51.07.46.11 1.1.33 1.87.55 1.55.43 3.58.97 5.69 1.38 2.15.36 4.28.52 6.3.25 2.08-.39 3.69-1.15 4.82-2.97 6.65-12.55 6.08-30.82 2.23-47.65-4.04-16.67-15.46-39.15-15.89-39.6-.92-5.91-13.15-22.19-16.6-19.17.05-.63.14-1.17-.05-1.88-.36-1.07-.89-2.27-1.62-3.5-1.55-2.44-3.68-5.02-6-7.27-2.4-2.23-4.71-3.83-7-4.51-1.2-.24-2.22-.2-3.2.35-.23.18-.33.58-.51.8-.39-1.23-.99-2.44-1.87-3.81-1.7-2.42-3.96-4.93-6.41-7.09-2.52-2.12-4.98-3.66-7.25-4.39-1.18-.29-2.18-.35-3.15.04-.08.05-.09.18-.15.25-.32-.95-.76-1.88-1.43-2.97-1.64-2.42-3.99-5.03-6.7-7.27-2.85-2.19-5.65-3.66-8.53-4-1.62-.05-2.87.41-4.17 1.44-.12-1.87-.58-3.67-1.47-5.55-1.78-3.37-4.42-6.46-7.46-8.99-3.19-2.46-6.22-3.99-9.14-4.3-1.47-.04-2.64.29-3.71 1.17l-.04.04c-.36-2.01-1-3.79-2.19-5.49-2.28-2.88-5.32-5.07-8.69-6.75-3.4-1.53-6.59-2.28-9.33-2.2-1.39.11-2.45.4-3.36 1.13-.21.2-.35.45-.51.7-.08-.17-.03-.36-.15-.54-.8-1.07-1.85-2.1-3.15-3.1-2.66-1.9-6.02-3.56-9.49-4.65-1.74-.5-3.45-.85-5.07-.98-1.65-.07-3.05.07-4.38.53-1.64.74-2.52 1.99-3.15 3.89-.95-1.64-2.07-2.89-3.75-3.84-2.95-1.41-6.28-1.93-9.74-1.86-3.45.22-6.44.99-8.7 2.32-.6.44-.9 1.02-1.31 1.58-.45-.46-.75-.97-1.33-1.34-2.49-1.41-5.73-2.28-9.23-2.62-3.56-.21-6.68.16-9.13 1.53-1.2.79-1.98 1.7-2.4 3.09-.01.1.01.22 0 .32-.78-.59-1.46-1.15-2.49-1.55-3.15-.99-6.97-1.28-10.76-.87-3.83.56-6.9 1.66-8.89 3.85-.78 1.07-1.12 2.2-1.07 3.66-.6-.31-1.09-.72-1.77-.96-3.23-.81-6.87-.73-10.41-.03-3.55.85-6.29 2.13-8.07 4.21-.55.78-.81 1.63-.92 2.58-1.01-.6-2.01-1.14-3.2-1.43-3.32-.6-6.77-.24-10.1.83-3.33 1.23-5.8 2.86-7.21 5.25-.29.59-.47 1.2-.56 1.85-1.2-.37-2.4-.61-3.64-.64-.85-.37.76-3.22 2.83-6.8 1.31-1.55 2.42-3.04 3.96-4.71.46-.07.69-.39.62-.89-.16-.48-.56-.79-1.02-.78-.11 0-.21.02-.31.06-7.91 2.88-14.28 11.44-19.09 22.22-4.64 10.77-7.33 23.04-7.26 33.06v.1c1.24 9.8 4.54 14.99 6.7 19.8 2.08 4.9 2.87 8.99-.77 18.15.01.02.02.04 0 .05-2.39 4.61-2.71 5.71-9.28 8.22 6.89-14.61-15.4-26.65-41.03-15.39-.31.11-.46.33-.51.68 0 .34.13.61.41.82.3.2.58.2.87.06 1.82-.16 2.97-.09 4.61-.18 2.85 6.84-10.03 18.14-18.73 29.87-4.57 6.26-16.11 21.61-16.45 29.69.11 8.13 1.82 11.65 7.97 12.41 1.61.15 4.51.53 8.02.21 3.52-.46 8.65-1.67 11.84-1.45 3.18.41 4.93.88 8.12 3.79-1.11.78-6.85 10.45-3.2 15.95-.56.69-3.09.79-4.16.71-1.79-.35-6.51-2.76-9.24-4.04-5.43-2.47-7.81-4.03-13.46-4.61-5.87-.37-14.59 1.16-21.03 2.88-6.39 1.74-11.92 2.88-25.94 2.55-1.79-.09-3.72-.58-5.48-1.14 2.4-3.6 3.68-4.49 3.85-4.56.15.01.18-.01.37-.03.34 0 .61-.17.75-.48.12-.32.03-.62-.2-.9-.25-.25-.53-.34-.87-.25.12-.03-.03-.02-.14-.01-.12-.01-.3-.03-.51-.03-.41-.02-.99-.02-1.68-.04-1.54.02-14.33 1.87-19.81 4.52-5.22 3.05-8.14 9.12-12.99 9.35-2.79-.08-3.73-.07-6.19-1.92 1.86-11.34-5.14-14.29-2.04-17.34 3.85.55 17.18 2.33 30.21-5.25.29-.15.46-.37.46-.71-.02-.34-.17-.63-.46-.81a.863.863 0 0 0-.85.07c-7.41 3.9-12.29-3.95-18.07-4.02-9.79.77-7.58 2.36-13.47 2.38-3.26-.2-6.37-1.55-7.41-3.03 2.15-4.66 5.08-10.3 3.56-13.93 1.37-1.64 2.89-1.9 6.2-1.91 2.8.32 4.25 2.56 8.67 4.76 15.88 8.49 11.05 2.13 23.21 7.03.43.23.84.13 1.11-.27.23-.54.38-1.98-1.11-2.35-13.62-2.86-17.33-8.19-20.47-11.52-1.08-.96-3.18-1.68-5.69-2.26-6.51-6.63-6.5-11.48-5.94-12.21 1.29-1.04 4.22-5.19 3.92-6.72 1.54-1.61 2.43-1.19 4.41-1.29 6.93.79 13.3 10.44 11.73 14.8.07.15 5.7 5.95 9.4 10.6 3.02 3.89 8.61 10.84 16.54 10.22.11.22.2.4.41.49.31.1.59.05.82-.15 14.74-12.96 25.38-33.81 32.54-52.85 3.52-9.49 6.17-18.42 7.92-25.48 1.72-7.08 2.54-12.06 2.59-14.24-.06-11.01-2.46-28.74-2.27-45.72.27-15.72 2.94-30.06 11.46-38.62 2.1-.21 4.27-.56 6.44-1.13 5.55-1.54 10.71-4.35 15.09-8.72.17 1.32.41 2.71.82 4.24.97 3.41 2.5 7.15 4.61 10.93 4.41 7.49 10.75 14.21 19.4 16.9h.05c.07.03.13.07.2.08.48.17.85.02 1.01-.43.02-.09-.08-.13-.09-.22-.01-.03-.05-.04-.05-.07-.04-.35-.09-.67-.41-.83-.09-.06-.17-.09-.25-.15-1.17-.39-1.76-.9-2.3-1.72-.46-.82-.74-1.84-.8-3.2 0-2.68.8-5.98 2.08-9.5 1.04-2.68 2.31-5.16 3.56-7.53 2.56 5.91 6.19 12.06 12.14 16.86 7.14 5.38 16.27 7.91 28.73 4.33.04 0 .07.03.1.02.1-.02.16-.04.26-.06.14-.1.14-.29.2-.44.11-.08.25-.06.31-.18.02-.11-.09-.21-.11-.32-.01-.01-.03.01-.05 0-.03-.28-.03-.54-.25-.73-9.17-6.09-11.62-11.64-11.99-17.22-.06-2.96.44-5.57 1.17-8.09 5 6.42 10.75 11.63 16 14.58 2.99 1.56 5.48 2.32 7.76 2.27 1.13-.11 1.92-.52 2.69-1.22.34 1.22.75 2.24 1.33 3.14.63.88 1.39 1.47 2.33 1.99.07 1.91-.23 3.08-.97 3.87-1.07.87-2.29.99-3.76.53l-.05-.01h-.04l-.05-.01-.1-.02-.1.04-.05-.01c-.05.01-.08.02-.11.04a.86.86 0 0 0-.2.18c-.03.02-.07.06-.1.09l-.05.09c-.08.17-.09.33-.05.52v.05c0 .03.02.08.05.12v.05l.05.11c.13.18.32.23.46.39.01.02.02.07.05.11.6.78 1.26 1.36 2.03 1.82.28.16.56.27.86.4.3.12.61.31.91.39.25.05.46-.11.71-.09.47.09.9.3 1.38.31 2.52-.11 4.91-.98 7.2-2.45 2.22-1.58 3.87-3.42 4.93-5.73.89-2.46.89-4.79-.65-7.37-.09-.11-.21-.09-.32-.15.25-1.89.34-3.98.2-6.42.93-2.44 2.69-5.19 5.74-8.05 3.41-3.01 7.83-5.75 13.15-7.61 10.29-3.3 22.84-2.71 36.77 6.56.21.25.45.6.66.83 1.16 1.19 2.28 1.9 3.44 2.72.26 2.25-.09 3.3-1.01 3.98-1.07.57-2.44.58-3.91.16-.06-.03-.13-.02-.19-.03a.842.842 0 0 0-.27-.04.69.69 0 0 0-.46.13c-.08.08-.14.18-.19.29v.05c-.05.19-.03.37.05.58v.05l.05.06v.05l.05.01c.1.14.21.23.31.36.6.84 1.26 1.48 2.03 2.04.32.22.62.38.95.56.43.21.84.36 1.28.51.46.17.89.44 1.36.55 2.39.37 4.59 0 6.71-.89 2.09-1.01 3.63-2.31 4.58-4.25.46-1.25.44-2.55.09-4.07.37-1.07.44-2.19.1-3.7-.33-1.18-1.1-2.76-1.82-4.3-.01-1.77.14-3.45.35-5.12 2.91-8.31 7.05-12.59 12.9-15.01 6.45-2.4 14.35-2.29 23.5-.99 30.8 4.65 51.85 13.69 68.7 22.03 16.84 8.38 29.26 15.97 42.81 16.39 12.86.16 24.27-2.71 33.16-9.31 8.75-6.87 14.06-16.99 14.22-30.91-.11-5.19-1.63-9.42-3.77-13.57-4.18-7.62-10.58-13.14-17.67-15.97-2.73-.99-5.36-1.58-8.02-1.74-2.68-.06-5.07.33-7.41 1.35-4.6 2.35-7.37 6.88-7.51 14.04.33 7.52 5.84 12.77 12.89 13.31 6.89.05 13.58-4.84 17.27-16.51 2.51 2.3 4.66 4.94 6.39 7.99-1.63 11.18-6.36 17.45-12.44 21.67-6.29 4.06-13.31 5.42-18.83 5.6-14.39-.02-29.63-15.15-29.82-35.96.4-19.05 15.38-33.16 39.82-32.89m-488.6-47.25c7.18 7.02.49 12.04 1.36 20.17 5.47 32.51 18.56 36.44 21.02 50.66 7.66 47.32 27.97 70.28 29.51 72.04.74 1.22 1.54 2.08 2.69 2.66-.39 3.81.45 9.47 2.38 15.11 1.99 5.35 4.71 9.83 8.59 12.27v.05c.24 4.35 1.72 9.46 4.21 14.19 2.6 4.59 5.81 8.11 9.94 9.72 1.51 1.73 2.45 2.51 3.82 4.01 2.7 8.07-18.91 14.9-29.2 17.73-3.82 10.23-14.92 17.78-23.92 17.8-6.48-.28-6.95-1.26-10.95-3.39 14.17-2.73 19.33-2.02 18.83-35.72-.01-.72-.04-1.31-.05-1.73-.02-.21-.04-.38-.05-.52 0-.07.01-.1 0-.17-.02-.05-.03-.08-.1-.25-.15-.39-.42-.59-.82-.6a.87.87 0 0 0-.61.36c-.13.23-.17.47-.1.74v.1c-7.08 20.25-25.43-59.05-29.5-88.17-.66-6.88 5.96-21.7 5.48-29.69.09-.3-1.49-.4-1.77-.27-.61 3.49-2.02 7.45-3.61 11.43-.02.02-.02.03-.05.05-.45.32-1.01.71-1.62 1.25-1.22 1.13-2.62 2.7-3.96 4.82-2.75 4.34-5.51 6.74-2.03 16.67.9 3.94-4.81 10.28-7.56 12.23-.46-6.06-8.84-7.12-11.07-6.25-.71-6.68 1.93-14.68 6.28-18.99 4.96-5.76 8.68-21.63 5.79-29.45-.32-.84-.98-1.23-1.87-1.06-.48.14-.85.44-1.11.88-.23.47-.25.89-.1 1.36.57 1.07.8 2.4.9 3.99 0 .02.01.05 0 .07-2.68 1.38-7.11-7.76-3.03-11.84.84.08 1.87.28 2.42.19.93-.32 1.43-1.07 1.33-2.06-.27-.93-.98-1.37-1.93-1.22-3.13.55-11.81-1.91-17.57-5.06-16.31 6.86-19.02 6.63-23.71 1.54 2.4-4.3.53-9.48.36-10.19 3.34-3.09 5.82-3.63 9.23-3.36 1.85.23 6.34 1.18 9.55 3.74 6.14-2.36 14.63 1.31 16.35 5.65.17.56.53.84 1.06 1.03.05.06.24.44.26.45.66.14 1.25-.09 1.73-.61.42-.56.49-1.15.24-1.79-1.17-4.34-5.76-23.02-19.94-22.56l-.07.01c-.3-.06-6.71-.85-7.46-8.96 2.83-1.46 8.21-6.12 8.19-11.42.1.03.13.01.24.03 7.12 1.85 10.15 8.51 10.37 12.27 2.94 1.81 12.31 3.98 15.18 30.31-.01.7.28 1.2.86 1.54.62.26 1.22.19 1.78-.24.5-.48.68-1.07.56-1.75-.63-6.43-1.69-11.5-3-15.79.12-7.43-1.29-12.22-6.3-18.65a.975.975 0 0 0-.14-.29c-2.51-4.57-2.85-8.59.14-12.47 5 .19 12.03-2.41 12.55-2.6m-42.2 7.61c1.98-.2 3.91-.19 5.74-.02.14.64.09 2.48-.05 3.83-.19.28-.48.61-.72.91-3.76-.44-9.58-2.44-12.53.95-.39.22-.62.46-.61.75.09.28.37.42.81.49.43.03.84-.07 1.16-.29 3.07-.94 6.7-.59 8.19 1.1-.4.3-.92.61-1.38.91-3.17-.43-7.29-.55-12.09 2.67.28-7.68 5.36-10.43 11.48-11.3m134.55 4.56c1.91.12 4.31.54 7.41 1.27 3.68.87 7.73 1.77 11.58 1.94.72 0 1.34-.16 2.03-.23 1.12 6.68.3 9.93-1.87 11.97-2.52 1.83-6.01 2.1-10.51 1.61-4.33-.61-9.05-1.78-13.05-2.58-.69-.13-1.2-.14-1.82-.23-.65-.17-1.27-.35-1.63-.58-.49-.38-.72-.74-.87-1.27-.2-1.1.09-2.52 1.02-4.27 1.84-3.09 4.94-6.02 7.71-7.63m-10.2 16.36c1.98.21 4.06.49 7.21 1.18 4.25.96 9.13 2 13.66 2.26.73.02 1.36-.14 2.07-.18.99 8.15-.22 11.68-2.74 13.8-2.7 1.79-6.29 1.87-11.02 1.21-4.54-.7-9.55-1.87-14.01-2.3-1.06-.05-1.95.14-2.95.2-.09-.03-.2-.09-.29-.12-.27-.04-.54.01-.82.01-.37-.31-.65-.57-.81-1.04-.29-1.29.02-3.16 1.07-5.43 1.95-3.79 5.36-7.39 8.63-9.59m89.26 12.86c5.61 1.98 10.3 5.4 13.45 10.18 2.78 4.66 3.67 9.72 2.03 15.82-.51-1.78-1.13-3.19-2.08-4.25-1.61-1.53-3.32-2.12-5.23-2.35-2.98-.14-5.47.58-7.15 1.15-.19-.78-.4-1.37-.56-2.23-.24-1.53-.33-3.5-.46-5.3.88-.16 2.17-.16 3.81.15 3.48.79 7.34 2.54 9.49 4.53.39.3.79.33 1.12.06.26-.35.24-.77-.05-1.17-4.81-4.78-8.19-6.24-10.76-7.27-1.27-.51-2.22-.94-3-1.54-.31-.31-.59-.95-.87-1.38.02-2.01.12-4.11.26-6.4m46.41 13.61c.37.13.92.46 1.63 1.4.67.98 1.4 2.38 2.18 4.09 1.48 3.46 3.08 8.11 4.51 13.1 2.81 9.95 5.14 21.18 6 26.76 2.81 19.04 2.98 31.09 3.71 38.67.07.76.2 1.31.29 1.97-1.29.58-2.61.7-4.51.16-2.29-.8-4.81-2.29-7.46-4.32-5.09-4.08-9.77-9.7-12.04-14.2-.01-.15-.02-.29-.1-.43-.2-.27-.42-.4-.72-.43h-.05c-.03-.01-.05-.06-.09-.07-.43-.04-.71.16-.82.55-.05.27-.05.27-.1.46-3.8 4.1-5.63 7.78-6.14 11.52-.29 4 .78 7.26 2.69 10.44 2.02 3.01 4.53 5.46 7.1 7.37 1.44.99 2.48 1.36 3.71 1.91-5.01-.04-10.91-.2-16.91-2.72-7.09-3.3-13.25-9.62-16.35-24.62-.01-.03-.07-.01-.1-.06.05-.19.18-.32.1-.51a.983.983 0 0 0-.85-.54c-.17.02-.29.07-.41.17-.03.01-.07.05-.1.08-6.19 4.27-9.98 11.07-11.43 17.77-.61 3.42-.6 6.37.15 9.09.07.18.23.28.31.45-6.27-4.71-10.01-9.63-12.29-15.19-2.54-6.79-2.68-13.83-1.78-21.2.19-.23.34-.43.46-.57.08-.07.14-.12.21-.19.08-.11.16-.2.2-.25.01-.01 0-.04 0-.05.05-.04.11-.07.14-.13.04-.03.05-.01.12-.25 0-.02.05-.1.05-.1v-.2l-.17-.39-.34-.31-.36-.15-.2.03s-.11.07-.16.08c-.15.08-.16.07-.2.09-.03-.01-.06-.06-.1-.06-.27 0-.47.12-.6.33-2.62 4.06-8.71 9.79-16.57 13.59-7.17 3.25-14.91 4.37-22.79 1.37 4.91-15.66 13.15-24.53 22.4-29.22 8.97-4.25 17.8-4.46 24.71-2.98 0 .05-.03.07-.05.1-1 3.83-1.57 8.94-1.67 14.92V481.64c.01.5.29.86.76.99.49.06.79-.19.86-.68v-.1c.05-.06.14-.02.15-.08 1.08-4.8 4.5-10.26 8.84-14.24 2.24-1.91 4.47-3.27 6.71-4.02 1.75-.47 3.17-.38 4.67.07-.17 1.49-.37 2.7-.46 4.44-.28 6.94-.15 15.28-.21 21.22v.2c.03.44.26.76.67.93l.05.01c.02.01.02.05.05.06.2.02.25-.15.41-.25.15-.08.31-.06.4-.21.01-.04 0-.07 0-.11.01-.03.04-.02.04-.04.02-.05.01-.12 0-.17 2.78-11.88 5.73-21.9 8.48-28.18 1.48-3.18 2.85-5.22 4.02-6.23.62-.45 1.04-.57 1.48-.51.33.07.68.34 1.11.78.02.07.02.11.05.21.16.53.34 1.39.51 2.44.32 2.07.68 4.94.97 8.14l1.41 19.15c.01.04 0 .09 0 .12.05.49.35.84.82.94.47.03.76-.22.82-.7 0-.05-.02-.09 0-.12.71-16.23 3.87-32.79 7.05-45.13 1.61-6.17 3.24-11.29 4.46-14.73.28-.76.43-1.09.67-1.68M182 415.65c.33.84.42 1.13.67 2.44-2.07.45-4.21 1.24-6.2 3.69-.19.25-.26.49-.19.76.08.28.26.43.55.45.28 0 .54-.15.71-.39 1.51-1.77 3.37-1.97 5.23-1.9-.05 1.32-.4 2.57-.97 3.98-2.14-.11-4.45.11-6.95 3.71-1.5-8.09 3.42-11.42 7.15-12.74m127.15 1.5c2.14-.05 4.41.16 6.81.53 4.73.77 9.74 2.08 14.26 2.61 1.49.14 2.83.01 4.22-.09.91 8.5-.49 12.59-3.36 15.19-3.1 2.34-7.26 2.79-12.43 2.56-5.04-.31-10.49-1.17-15.29-1.31-2.25-.02-4.28.17-6.15.65-.6-.3-.89-.64-1.07-1.46-.17-1.81.59-4.76 2.3-8.11 1.77-3.24 4.16-6.45 6.64-8.79.66-.57 1.24-.85 1.89-1.26.74-.15 1.38-.45 2.18-.52m329.87 47.99c.5.17 1.25.53 1.69.65-.25.86-.67 1.78-1.28 2.59-.14.14-.3.18-.46.32.26-.7.39-1.39.36-2.11-.05-.53-.19-.95-.31-1.45m-309.01-24.28c2.08 8.11 1.25 12.12-1.41 14.91-2.98 2.61-7.52 3.53-13.15 3.96-5.53.35-11.56.34-16.76 1.3-2.15.45-3.97 1.22-5.74 2.16-.33-.27-.65-.46-.92-.98-.69-1.84-.86-4.7-.51-8.03.46-3.27 1.35-6.66 2.44-9.33.59-1.31 1.18-2.44 1.77-3.22.28-.32.42-.31.68-.49 3.09-.66 6.49-.89 10.39-.66 5.34.41 11.06 1.18 16.21 1.22 2.53-.03 4.84-.28 7-.84m-3.44 21.04c2.03 3.93 3.13 6.99 3.54 9.42.3 2.64-.08 4.18-1.07 5.63-2.24 2.64-6.44 3.76-12.18 4.42-5.57.6-11.99.87-17.52 2.03-2.96.71-5.5 1.71-7.71 3.19-.42-.26-.8-.47-1.11-1.03-.71-1.65-.89-4.23-.57-7.3.43-3.02 1.31-6.12 2.39-8.61.57-1.23 1.14-2.22 1.72-2.96.36-.39.6-.46.92-.65 1.94-.65 3.96-1.18 6.3-1.5 5.46-.63 11.72-.58 17.41-1.09 2.83-.31 5.47-.77 7.88-1.55m227.97 40.49c-.23 2.86-1.65 4.26-4.01 4.95-1.23.25-2.37.16-3.61-.21-.17-.07-.33-.15-.51-.23-.32-.17-.57-.46-.85-.65 2.45.28 4.2-.02 5.52-1.08.83-.79 1.36-1.68 1.72-2.52.05-.07.04-.11.07-.19.55.06 1.11-.03 1.67-.07m-226.2-18.59c1.99 2.69 3.16 4.89 3.7 6.84.47 2.1.31 3.54-.41 5.09-1.67 2.96-5.21 5.11-10.25 7.1-4.93 1.84-10.81 3.48-16.25 5.2-2.97.97-5.71 2.02-8.17 3.17-2.88-.88-4.56-2.32-5.88-4.64-1.21-2.49-1.65-5.33-1.58-8.32.18-2.96.89-5.59 1.92-7.58.14-.22.27-.31.41-.5 2.67-1.5 5.89-2.34 9.81-2.82 5.61-.61 12.05-.53 17.76-1.13 3.37-.43 6.33-1.16 8.94-2.41m-110.69 6.72c.89.26 1.81.62 2.74 1-1.18 2.05-2.65 4.23-5.18 4.6-.33 0-.61.14-.8.42-.17.31-.16.65 0 .94.19.26.47.36.8.32 3.27-.44 5.78-2.96 7.68-5.06 1.1.61 2.03 1.2 2.78 1.84-3.27 3.12-9.42 7.65-16.54 1.76 4.51-.18 6.97-3.3 8.52-5.82m265.29 28.57c-.19 3.08-1.69 4.97-4.1 6.17-1.18.43-3.09.45-2.8.26 1.42-.37 2.32-1.12 3.1-2.09.7-.98 1.14-2.01 1.42-2.97.11-.39.09-.6.15-.92.86-.01 1.52-.23 2.23-.45m90.64 14.26c5.76.73 10.5 3.89 12.19 8.01l-.05.82-.26 3.89-.76 11.58-.96 14.98c-7.43 4.17-12.93-1.33-15.24-6.2l-2.64-14.7-1.99-11.44-.55-3.13c2.99-3.1 6.34-4.06 10.26-3.81m-22.28-1.6c3.09.65 5.65 2.14 7.97 5.25l.6 3.5 2.04 11.43 2.64 15.1c-2.61 3.27-12.29 4.28-16.76-1.61-.01-.13.07-.21.05-.32l-7.15-30.63c1.83-1.9 5.82-3.32 10.61-2.72m-220.63-28.2c3.96 2.86 6.57 5.34 8.28 7.6 1.64 2.35 2.19 4.13 2.18 5.93-.39 3.59-3.19 6.38-8.02 9.28-4.74 2.71-10.78 5.18-16.5 7.57-2.79 1.17-5.34 2.33-7.67 3.52-2.9.26-5.05-.42-7.25-2.16-2.21-2-3.94-4.69-5.23-7.78-1.16-3.12-1.74-6.22-1.73-8.93.1-1.81.5-3 1.12-4.04 9.96-3.86 22.03-5.48 30.72-8.73 1.56-.64 2.78-1.44 4.1-2.26m197.62 27.51c2.89.32 5.58 1.48 8.43 3.95l6.95 29.47c-2.5 4.98-10.14 5.36-14.05 2.8l-10.47-31.02c-.04-2.91 3.64-5.33 9.14-5.2m66.06 10.01c6.14 1.37 13.92 8.01 14.26 13.49l-7.1 27.91c-1.95 3.25-11.2.76-13.82-7.3 0-.02.01-.03 0-.05l.23-3.63.83-12.98.77-11.62.2-3.91c.02-.22.03-.33.05-.51 1.11-1.35 2.51-1.69 4.58-1.4m-83.07-6.59c1.5.27 2.66.85 3.76 1.67l10.82 32.07c-1.74 3.77-13.26 8.49-17.32 4.25l-10.77-32.24c.84-3.79 7.53-6.45 13.51-5.75m105.76 21.09c6.12.98 12.44 6.67 12.7 15.05l-11.22 27.43c-4.4.9-13.11-3.79-13.71-11.66l7.56-29.75c1.42-.83 2.87-1.22 4.67-1.07m-128-16.49c1.75.29 3.32 1.09 5.02 2.46l10.46 31.41c-1.76 5.61-11.47 10.22-16.35 4.84L475.84 547c.06-.14.1-.52.2-.38.64-2.51 6.28-7.93 13-7.54m-146.53-14.24c5.98 4.52 7.88 8.3 7.82 12.44-.4 4.15-2.88 7.98-6.9 11.83-6.35 5.75-14.92 10.01-22 12.92-1.71-.18-3.44-.88-5.42-2.39-2.21-1.84-4.31-4.22-6.06-6.86-1.67-2.69-2.81-5.37-3.29-7.61-.19-1.13-.18-2.02 0-2.77.19-.57.51-.88.92-1.21 10.05-4.06 22.29-7.33 30.3-12.24 1.9-1.24 3.33-2.59 4.63-4.11m125.77 21.22c1.65.06 2.99.51 4.31 1.28l12.79 31.92c-.37 8.04-14.36 12.58-18.38 8.96l-11.46-34.46c.22-3.46 6.49-7.46 12.74-7.7m169.43 26.52c5.93.98 12.83 4.96 13 10.44l-10.92 29.24c-6.16 3.29-16.9-7.33-17.73-11.82l11.19-27.14c1.13-.67 2.49-.94 4.46-.72m-191.47-21.19c1.95-.22 3.78.51 6.25 3.13l11.53 34.49c-.83 3.59-12.48 10.35-19.67 5.65-1.5-3.97-7.04-18.14-8.53-27.14.73-2.78 1.57-5.44 2.55-7.75 1.03-2.26 2.02-3.68 3.05-5.52 1.2-1.07 2.78-2.36 4.82-2.86M566.78 574c.04.06.05.2.1.27 1.02 2.58 13.93 7.01 16.15 7.17-.51 3.26 7.68 9.95 12.99 12.89 1.26 2.2 1.32 5.61 1.16 7.79-.36 5.39 1.15 11.8 8.43 17.77 5.09 3.79 20.31 11.24 20.88 24.54-.33 9.63-7.11 12.49-10.71 14.38 2.71-5.63-.03-11.11-6.35-13.33-4.34-1.17-15.16-3.22-24.53-3.64-.95.04-1.49.64-1.48 1.63.17.99.83 1.65 1.79 1.77 4.3 1.44 5.93 1.45 5.53 5.08-.01.11.09.18.1.28-15.1 10.24-46.52 36.12-47.78 47.79.05 3.53 2.89 6.99 7.47 7.61.67-.16 15.13-5.08 22.14 1.42-3.2 3.62-1.05 11.62-.97 12.38-8.41 4.57-17.7-4.83-33.72-7.61-15.94-2.28-28.88 5.83-39.2 4.7-1.34-.2-1.99-.54-2.78-.9.91-1.14 1.68-2.26 1.72-2.29.14-.02 1-.36 1.18-.4.33.02.55-.11.7-.42.11-.31.07-.61-.14-.91-.26-.27-.56-.39-.87-.34.09 0-.04-.02-.15-.02-.13-.02-.31-.06-.51-.08-.44.01-7.13.53-9.04.39-3.93-.45-11.94 1.06-17.31 3.15-3.67 1.18-10.22 7.46-20.82 3.87 1.09-4.55-.44-10.25-3.77-15.9.65-.11 1.56-1.23 2.2-2.45 15.47.06 13.84 7.22 17.47 2.15 2.5-3.23 3.34 6.62 22.74-6.45.27-.14.4-.34.4-.68-.02-.32-.18-.59-.46-.8-.29-.18-.54-.21-.81-.07-23 6.01-16.2.71-26.5-.59-9.82-.85-7.15 1.53-13.05.77-3.19-.8-6.17-3.65-7.15-5.35 2.4-.86 2.5-7.72.75-11.87 1.51-1.4 4.7-1.61 8.12-1.18 8.68 1.63 12.22 9.65 21.38 12.33 6.78.73 12.44-3.32 18.13.91.44.28.85.24 1.11-.13.16-.34.01-.66-.24-.98 40.28 6.86 69.34-77.12 63.3-88.34 0-.28-.1-.52-.3-.73-.07-.06-.12-.04-.21-.08-.89-3.02-2.41-6.41-6.54-8.77-.03-.07-.03-.32-.05-.37-1.08-1.73-3.13-9.28-11.22-12.05.44-1.99.69-3.46.8-4.49 4.32-.44 8.38-1.37 9.6-2.44 2.96 3.39 20.06 5.74 20.32 2.62m90.16 12.25c5.56.78 12.19 5.49 13.21 10.25l-9.04 23.41c-4.69 4.36-13.89.22-15.79-1.51-1-1.23-1.4-2.91-1.58-4.86l9.55-26.25c1.03-.76 2.09-1.14 3.65-1.04m-307.48-38.37c-.09 1.22-.22 2.48-.31 3.69-.4 7.3-.48 13.88-.61 20.05 0 .01-.04-.02-.05 0v.05c-1.32 4.43-2.95 6.73-5.01 8.13-2.21 1.17-4.24 1.14-6.91.13-4.85-2.18-9.89-7.74-13.76-15.33 9.91-2.84 19.57-8.24 25.73-15.29.38-.46.57-.95.92-1.43m181.73 26.71c-1.28 11.13-17.71 21.12-24.73 20.18-.02-.03-.05-.06-.05-.08-1.26-1.23-2.69-2.24-3.76-3.6-1.84-5.17 22.56-15.56 28.54-16.5m69.7 16.75c.07.11.15.22.21.33-.13.03-.26.08-.41.12.1-.21.1-.26.2-.45m-64.42-8.42c6.88 2.23 8.99 9.68 7 11.1.02.85-6.12 14.15-13.51 17.45-2.6.75-5.66-.18-7.82-.85-3.85-2.34-7.71-6.58-9.24-10.94 2.08-3.13 11.6-5.23 20.37-16.97 1.16-.08 2.2-.01 3.2.21m137.09 16.82c5.09-.45 13.72 4.99 14.61 12.48l-5.38 14.8c-3.88 2.16-17.38 1.53-18.27-4.47l8.53-22.53c.19-.08.3-.23.51-.28M434.2 579.53c3.03-.5 5.8 10.93 7.22 15.54l-.05.05c-.14.81-4.77 14.26-8.7-6.75l.97-8.13c.18-.22.39-.6.56-.71m113.49 18.43c.99 1.23 2.89 1.77 3.85 5.44-.88 5.75-2.45 12.49-4.87 19.84-3.7.64-9.29-2.13-13.15-4.9-.7-1.1-1.14-2.07-.66-3.41 7.95-4.51 11.78-13.18 13.2-16.64.71-.47 1.23-.79 1.63-.33m143.02 18.49c3.31.08 11.23 6.35 12.6 14.87l.19.53c-2.05 4.82-12.92 3.2-16.9-3.23l4.11-12.17m-342.46-37.48c-.09 3.4-.25 5.99-.41 8.28-.93-1.01-1.58-2.12-2.09-3.44.07-.07.15-.1.2-.18.85-1.25 1.6-2.78 2.3-4.66m112.96 77.52c2.31.44 2.95.94 5.18 3.51 2.12 2.6 3.82 6.43 7.78 11.28 3.82 4.32 13.53 11.1 19.45 13.73-2.06.35-4.16.5-6.3.54-5.69-2.41-11.95.35-21.29-8.81-1.41-1.23-4.58-2.55-8.02-3.68-2.2-2.14-6.5-6.45-6.49-6.93 2.62-3.9 4.92-7.1 4.52-8.58 1.24-1.27 2.79-1.42 5.17-1.06m-14.51-1.07c2.5-.04 4.85.94 6.9 2.28-.28.5-.52.98-.77 1.5-1.68-1.26-3.44-2.2-7.1-1.99-.36.02-.58.14-.71.42-.08.29 0 .61.25.87.27.24.58.3.92.24 2.97-.11 4.16 1.04 5.57 2.5-.27.58-.57 1.01-.85 1.46-2.09-1.85-7.6-6.48-9.85-.36.49-4.96 2.58-6.54 5.64-6.92m222.84 33.21c2.63.55 4.4 1.69 5.64 2.62.12.49.4.93.36 1.44-.04.15-.16.31-.21.45-2.22-1.49-5.43-3.02-9.64-2.56-.37.04-.59.18-.71.46-.1.3-.05.56.2.81.27.22.61.3.97.23 3.64-.25 5.52 2.25 7.41 4.03-.7.7-1.46 1.33-2.18 1.77-1.53-1.47-7.24-6.95-12.91-.26 3.31-8.21 7.2-9.52 11.07-8.99m-406.2-45.65c2.66-.27 4.22 1.41 5.38 2.91-.03.23-.17.56-.14.64.12.2.01.55-.1.94-1.66-.81-3.4-1.16-7.17-.36-.34.07-.58.23-.7.52-.09.31-.01.57.24.79.29.2.59.26.92.16 3.04-.58 3.96.31 5.28 1.55-.64.88-1.19 1.43-1.67 1.92-2.35-1.51-6.46-3.83-9.3 0 2.83-6.38 5.05-8.47 7.26-9.07m185.34 21.94c.01.04.06.12.05.12-.07-.02-.1.03-.16.03.03-.06.06-.11.11-.15m-11.28 11.19c.19.03.2.06.36.1.4.31 1.16.74 1.43 1 .35.44.48 1.02.7 1.56-2.44-.54-4.92-.72-7.56.89-.28.16-.38.4-.36.74.05.34.25.64.56.82.31.14.56.1.82-.1 2.68-1.47 4.99.15 7.25 1.41-.05.91-.2 1.57-.4 2.45-2.24-2.11-6.37-5.04-10.72-1.22-.16-8.01 4.59-8.13 7.92-7.65m222.45 37.81c.65.08.72.15 1.21.25.21 1.06.22 2.1.1 3.25-2.49-.48-5.19-.61-8.07 1.29-.27.17-.38.45-.36.81.06.34.21.56.51.72.32.11.63.07.87-.13 2.22-1.39 4.04-.55 6.1.47-.2.58-.35 1.09-.58 1.58-2.63-1.18-8.15-3.3-9.69 5.36-4.2-13.8 4.4-14.21 9.91-13.6m-83.84-4.1c.01.02-.01.25 0 .27 6.09 1.28 16.58 9.75 3.46 16.86 3.8-5.63-3.3-8.3-4.77-8.78-.04-.18.02-.4 0-.57 2.07.25 3.71-.3 7.46 3.75.21.27.35.54.66.66.33.08.56-.01.77-.26.16-.27.17-.55.05-.89-1.97-4-6.15-6.3-8.79-7.37.25-1.18.61-2.34 1.16-3.67M257 675.08c.16.93.15 1.89-.1 3.04-2.51-.33-5.29-.26-8.28 2.02-.27.2-.42.46-.4.8.06.33.25.59.56.71.32.1.61.02.85-.22 2.25-1.63 4.08-.96 6.15-.11-.49 1.16-.87 2.05-1.37 2.93-2.37-.99-5.69-2.1-9.5 1.3 1.78-9.93 7.92-10.74 12.09-10.47m543.69 53.26c3 .76 16.68 4.63 5.04 17.52 2.5-9.4-5.02-9.38-6.91-9.41-.01-.38.03-.82.05-1.26 2.39.01 4.79-.16 6.3 2.51.11.32.32.48.65.51.34 0 .62-.15.81-.44.17-.31.16-.61 0-.89-1.87-3.56-4.78-4.76-7.2-5.3.3-1.21.65-2.32 1.26-3.24m-130.13 7.85c.46.92.87 1.97 1.21 3.28-2.39.44-5.72 1.71-7.71 5.53-.16.28-.17.58 0 .89.19.28.47.42.81.43.32-.04.55-.21.67-.53 1.64-2.87 4.4-2.53 6.85-2.61.04.44.08.88.1 1.32-2.32.07-9.97.3-7.51 9.41-12.21-13.31 3.81-17.31 5.58-17.72m-224.58-29.42c.36.69.69 1.29 1.01 2.13-2.4.5-4.96 1.49-6.69 4.74-.16.27-.17.57 0 .89.19.3.47.45.8.49.33-.03.55-.18.68-.5 1.51-2.61 3.93-2.29 6.34-2.16.25 1.35.35 2.57.35 3.78-3.06-.9-8.27-1.03-10.61 3.78-4.9-6.69 1.31-12.32 8.12-13.15m-56.04-5.46c6.23 2.13 16.64 8.25 4.77 18.53 3.58-6.11-3.9-8.49-6.56-9.29-.2-.69-.23-1.42-.25-2.22 2.63.53 5.9.98 7.51 4 .12.35.34.56.66.67.33.06.61-.02.82-.26.15-.28.14-.58 0-.89-1.86-3.9-5.84-6.31-8.53-7.49.43-1.36.99-2.31 1.58-3.05m-126.55 3.87h.05c.58.97 1.1 1.53 1.58 2.73-2.24.96-4.35 2.33-5.84 5.38-.14.29-.11.6.05.89.2.27.44.39.77.35.33-.06.53-.25.66-.57 1.23-2.38 3.03-2.71 5.18-2.91.23 1.29.26 2.41.1 3.55-3.1-.07-7.24.27-5.19 7.63-7.37-10.06-1.86-16.49 2.64-17.05"/><path fill="#1A1A1A" opacity=".2" d="M8 195.25c170.83-85.22 341.03-54.42 513.26-27.97 155.21 23.84 312.16 44.57 470.74-34.53v672c-170.83 85.22-341.03 54.42-513.26 27.97C323.53 808.88 166.58 788.15 8 867.25v-672m31.25 19.39v604.5c306.56-128.26 611.18 96.04 921.5-33.78v-604.5c-306.56 128.26-611.18-96.04-921.5 33.78"/></svg>