<svg xmlns="http://www.w3.org/2000/svg" viewBox="0 0 128 128" style="enable-background:new 0 0 128 128" xml:space="preserve"><radialGradient id="a" cx="63.6" cy="2288.9" r="56.96" gradientTransform="translate(0 -2226)" gradientUnits="userSpaceOnUse"><stop offset=".5" style="stop-color:#fde030"/><stop offset=".92" style="stop-color:#f7c02b"/><stop offset="1" style="stop-color:#f4a223"/></radialGradient><path style="fill:url(#a)" d="M63.6 118.8c-27.9 0-58-17.5-58-55.9S35.7 7 63.6 7c15.5 0 29.8 5.1 40.4 14.4 11.5 10.2 17.6 24.6 17.6 41.5s-6.1 31.2-17.6 41.4c-10.6 9.3-25 14.5-40.4 14.5z"/><path style="fill:#eb8f00" d="M111.49 29.67c5.33 8.6 8.11 18.84 8.11 30.23 0 16.9-6.1 31.2-17.6 41.4-10.6 9.3-25 14.5-40.4 14.5-18.06 0-37-7.35-48.18-22.94 10.76 17.66 31 25.94 50.18 25.94 15.4 0 29.8-5.2 40.4-14.5 11.5-10.2 17.6-24.5 17.6-41.4 0-12.74-3.47-24.06-10.11-33.23z"/><g style="opacity:.9"><radialGradient id="b" cx="246.237" cy="-50.369" r="21.31" gradientTransform="matrix(.89 0 0 -.78 -117.55 32.61)" gradientUnits="userSpaceOnUse"><stop offset="0" style="stop-color:#ed7770"/><stop offset=".08" style="stop-color:#ed7770;stop-opacity:.97"/><stop offset=".21" style="stop-color:#ed7770;stop-opacity:.88"/><stop offset=".35" style="stop-color:#ed7770;stop-opacity:.74"/><stop offset=".52" style="stop-color:#ed7770;stop-opacity:.55"/><stop offset=".71" style="stop-color:#ed7770;stop-opacity:.29"/><stop offset=".9" style="stop-color:#ed7770;stop-opacity:0"/></radialGradient><ellipse style="fill:url(#b)" cx="101.65" cy="71.75" rx="17.44" ry="16"/></g><path style="fill:#e6e6e6" d="M122.24 44c-1.9-1.9-4.97-1.9-6.87 0L80.76 78.56l-4.93 4.94c3.75.55 7.43 1.46 11 2.73l3.47-3.48L111 62.31l1.24-1.1 10-10.38a4.878 4.878 0 0 0 0-6.83z"/><path style="fill:red" d="M109.05 58a3.223 3.223 0 0 0-4.56 0L78.1 83.89c2.37.43 4.7 1.01 7 1.73l24-23a3.238 3.238 0 0 0-.05-4.62z"/><path style="fill:#422b0d" d="M64.11 75.93A46.923 46.923 0 0 0 41 81.8c-2.63 1.39-.86 4.92 1.35 4.14A63.199 63.199 0 0 1 64 82.61c3.96-.01 7.92.29 11.83.89l4.93-4.94a54.12 54.12 0 0 0-16.65-2.63zm26.79 10.4c.87-.89.85-2.31-.03-3.18-.13-.13-.28-.24-.45-.34l-.1-.06-3.47 3.48c.61.22 1.13.43 1.55.61.86.36 1.85.16 2.5-.51z"/><path style="fill:#e6e6e6" d="m86.84 86.23 3.48-3.48-3.48 3.48z"/><path style="fill:#404040" d="m118.69 54.52-2.75-2.74a.87.87 0 1 1 1.23-1.23l2.72 2.72-1.2 1.25zm-5.07 5.27-1.52-1.53a.888.888 0 0 1 0-1.23.87.87 0 0 1 1.23 0l1.49 1.5-1.2 1.26zm-9.76 9.66L102.37 68a.87.87 0 1 1 1.23-1.23l1.5 1.46-1.24 1.22zM94 79.13l-1.38-1.39a.87.87 0 1 1 1.23-1.23l1.39 1.4L94 79.13zm15-14.71-2.71-2.76a.87.87 0 1 1 1.23-1.23l2.72 2.77-1.24 1.22zM99.23 74l-2.77-2.74a.87.87 0 1 1 1.23-1.23l2.78 2.75L99.23 74zm-9.84 9.68L86.72 81a.87.87 0 1 1 1.23-1.23l2.68 2.68-1.24 1.23z"/><path style="fill:#422b0d" d="M46 38.59a1.832 1.832 0 0 0 .14-3.66c-1.94-.25-3.91-.17-5.82.24-5.2.97-9.84 3.86-13 8.1-1.42 2.06 1.25 3.83 2.9 2.31 4.29-4.1 9.88-6.57 15.8-7m35.9.21c-1.01.04-1.86-.75-1.89-1.77-.04-1.01.75-1.86 1.76-1.89 1.94-.24 3.91-.16 5.82.25 5.2.97 9.84 3.87 13 8.11 1.42 2.06-1.25 3.82-2.9 2.31-4.29-4.1-9.87-6.57-15.79-7M44 45.94c-4.19 0-8 3.54-8 9.42s3.81 9.41 8 9.41c4.2 0 8-3.54 8-9.41s-3.76-9.42-8-9.42z"/><path style="fill:#896024" d="M43.65 49.87a2.874 2.874 0 0 0-3.82 1.34c-.53 1.11-.29 2.44.6 3.3 1.42.68 3.13.08 3.82-1.34.53-1.11.29-2.44-.6-3.3z"/><path style="fill:#422b0d" d="M82.4 45.94c-4.19 0-8 3.54-8 9.42s3.81 9.41 8 9.41c4.19 0 8-3.54 8-9.41s-3.81-9.42-8-9.42z"/><path style="fill:#896024" d="M82 49.87a2.874 2.874 0 0 0-3.82 1.34c-.53 1.11-.29 2.44.6 3.3 1.42.68 3.13.08 3.82-1.34.53-1.11.29-2.44-.6-3.3z"/><g style="opacity:.9"><radialGradient id="c" cx="162.921" cy="-52.749" r="21.297" gradientTransform="matrix(.89 0 0 -.78 -117.55 33.44)" gradientUnits="userSpaceOnUse"><stop offset="0" style="stop-color:#ed7770"/><stop offset=".08" style="stop-color:#ed7770;stop-opacity:.97"/><stop offset=".21" style="stop-color:#ed7770;stop-opacity:.88"/><stop offset=".35" style="stop-color:#ed7770;stop-opacity:.74"/><stop offset=".52" style="stop-color:#ed7770;stop-opacity:.55"/><stop offset=".71" style="stop-color:#ed7770;stop-opacity:.29"/><stop offset=".9" style="stop-color:#ed7770;stop-opacity:0"/></radialGradient><ellipse style="fill:url(#c)" cx="27.45" cy="74.44" rx="17.44" ry="16"/></g></svg>