<svg xmlns="http://www.w3.org/2000/svg" viewBox="0 0 128 128" style="enable-background:new 0 0 128 128" xml:space="preserve"><path style="fill:#8a2e08" d="M79.79 73.18 52.5 72.14l-4.87 46.76s7.48-.52 17.38-.52 18.25.7 18.25.7l-3.47-45.9z"/><path style="fill:#ff6110" d="m24.9 79.72-6.68-1.39s-1.64 10.59-3.15 17.15-4.02 15.43-4.02 15.43l15.88 7.89s14.37 1.26 14.62.76 10.84-25.09 10.84-25.09l2.52-9.46-30.01-5.29zm49.67 5.17 33.28-6.93 1.51 4.03s2.19 9.16 3.4 14.12c1.95 7.96 4.46 15.09 4.46 15.09l-14.93 9.24-15.38-.5-12.34-35.05z"/><path style="fill:#af0d03" d="M18.14 74.38c0 .23.16 1.9.08 3.12s-.31 2.72-.31 2.72.91.2 1.75.74 2.52 2.6 2.52 2.6 3.28-1.21 5.27-.46c3.06 1.15 4.36 3.98 4.36 3.98s3.13-2.91 6.96-2.29c3.74.6 5.2 4.13 5.2 4.13s2.81-2.27 5.27-2.14c2.91.15 3.98 2.29 3.98 2.29l4.36-8.79-32.41-5.89h-7.03z"/><path style="fill:#c9c9c9" d="m9.42 115.05 1.76-4.66s7.8 3.82 13.45 5.5 12.31 1.91 12.31 1.91-.08-2.64-2.53-4.55c-2.45-1.91-6.33-5.12-6.33-5.12l5.3-1.77 2.95-1.18 9.25 11.01-2.98 7.42s-6.5.84-16.89-1.83-16.29-6.73-16.29-6.73z"/><path style="fill:#af0d03" d="M73.94 78.74c.15.61.08 5.43.08 5.43l2.83 3.21s1.53-1.99 5.05-1.83c3.52.15 5.12 1.76 5.12 1.76s2.14-2.6 5.05-3.13c2.91-.54 5.73.99 5.73.99s1.99-3.67 4.89-4.51c2.91-.84 6.67 1.34 6.67 1.34l-1.55-9.44-28.51 2.05-5.36 4.13z"/><path style="fill:#c9c9c9" d="m116.91 110.24 1.83 4.66s-5.58 4.36-12.77 6.35c-7.19 1.99-17.19 2.79-17.19 2.79l-2.92-16.39 9.86-2.98 5.41 2.31s-4.79 4.03-6.1 5.88c-2.49 3.5-1.6 5.72-1.6 5.72s7.64-.69 13.53-3.21c5.9-2.54 9.95-5.13 9.95-5.13z"/><path style="fill:#d92f0a" d="M31.82 108.02s3.39 1.52 5.12 2.75c2.14 1.53 4.28 3.82 4.97 7.49.48 2.53.69 5.35.69 5.35s2.37 1.83 7.03-5.96 7.03-18.58 7.42-26.22c.38-7.64.23-9.4.23-9.4L50.4 93.34l-10.17 9.25-8.41 5.43z"/><path style="fill:#fffeff" d="M57.34 82.07s.8 6.94-8.55 15.55c-5.81 5.35-11.48 9.03-15.36 10.55-1.33.52-2.52.31-3.36.3-2.74-.04-2.23-.51-.7-1.29 1.8-.92 7.03-2.83 16.82-11.85 7.83-7.22 8.37-14.44 8.37-14.44l2.77-1.5v2.68z"/><path style="fill:#d92f0a" d="M89.16 124s-3.44 1.22-8.64-5.81c-5.2-7.03-6.8-19.49-7.03-23.47-.23-3.98-.15-11.47-.15-11.47l9.56 12s14.83 11.16 14.6 11.24-4.84 2.98-6.57 5.89C87.4 118.26 89.16 124 89.16 124z"/><path style="fill:#fff" d="M72.81 79.94s-.14 2.62.37 4.61c1.07 4.2 4.76 8.74 9.56 13 6.19 5.5 13.38 9.33 13.91 9.48.54.15 4.36.31 4.43-.08.03-.13.26-.7-.99-1.61-2.57-1.85-8.26-5.11-12.92-8.79-3.29-2.6-7.51-5.83-11.18-12.49-.67-1.21-.43-4.27-.43-4.27l-2.75.15z"/><path style="fill:#d92f0a" d="M21.97 57.28s-7.96 1.04-8.21 2.17c-.25 1.14.63 16.16.63 16.16s3.35-.62 5.04-.25 4.87 2.43 4.87 2.43l5.33-3.28 3.84 5.33s2.71-1.4 6.46-1.03 6.27 2.9 6.27 2.9l5.24-4.31 5.85 4.6s2.67-3.11 7.63-3.2c4.96-.09 7.96 3.56 7.96 3.56l6.55-5.71 6.46 4.96s2.53-2.06 5.43-2.71c2.9-.66 5.05.47 5.05.47l4.12-7.3 4.68 3.37s1.5-1.78 3.65-2.06 4.77-.37 4.77-.37-.19-10.11-.19-11.61-.56-3.93-1.22-4.4-6.55-1.78-6.55-1.78l-83.66 2.06z"/><path style="fill:#e1e1e1" d="m32.5 61.65-7.81 1.81-.4 14.34s2.38-.69 4.76-.44 4.41 2.5 4.41 2.5-.05-9.32.03-10.89.69-4.55 1.02-5.12c.33-.58-2.01-2.2-2.01-2.2zm20.56 3.05-7.13 2.61s-.19 6.6-.02 9.23c.16 2.63.28 5.19.28 5.19s3.25-1.08 5.89-.92c2.63.16 5.2 1.21 5.2 1.21l-.1-14.12-4.12-3.2zm19.58 2.96s.25 5.35.33 8.06c.08 2.71-.1 6.67-.1 6.67s3.88-1.98 6.93-2.23c3.04-.25 6.08 1.48 6.08 1.48s-.24-5.59-.57-9.7c-.23-2.87-1.07-5.35-1.07-5.35l-7.81-4.19-3.79 5.26zm23.72 11.73s2.59-2.85 4.65-3.51c2.06-.66 4.15-.42 4.15-.42s-.12-6.73-.45-9.78c-.33-3.04-.63-4.79-.63-4.79l-9.56-4.09.27 7.52s1.13 2.51 1.46 6.87c.32 4.36.11 8.2.11 8.2z"/><path style="fill:#ff6110" d="m64.42 29.82-11.54 5.14s-10.49 7.87-18.79 13.12-13.07 7.25-14.06 7.66c-1.58.66-4.14 1.44-5.25 2.2-1.84 1.28-1.07 1.88-.77 1.98s9.48 4.21 25.75 6.62 38.39 1.43 49.73-.77c11.33-2.2 22.69-8.76 22.69-8.76s-.95-1.59-7.24-4.32c-6.3-2.73-11.65-5.67-20.78-11.65s-11.33-8.92-11.33-8.92l-8.41-2.3z"/><path style="fill:#fff" d="M54.66 37.06s-12.7 13.01-28.34 23.82c-1.71 1.18-1.63 2.58-1.63 2.58s1.26.48 4.36 1.2c3.15.73 4.96.91 4.96.91s1.43-1.64 4.48-4.69c5.46-5.46 8.85-9.79 13.12-15.32 2.83-3.67 6.2-8.07 6.2-8.07l-3.15-.43zm5.46 1.68s-4.62 10.7-6.82 15.32c-1.04 2.17-3.36 6.19-5.46 9.55-1.83 2.93-1.91 3.71-1.91 3.71s4.11.59 6.1.59c1.99 0 5.14-.02 5.14-.02s1.58-4.71 3.26-14.15c.98-5.49 2.41-15.11 2.41-15.11l-2.72.11zm6.4.42s1.04 10.31 2.2 15.74c1.57 7.35 3.91 12.75 3.91 12.75s3.96-.16 6.16-.37 5.43-.7 5.43-.7-3.78-5.82-7.43-11.68c-2.41-3.88-6.93-12.91-7.66-16.37-.62-2.98-2.61.63-2.61.63zm5.66-1.89c0 .31 3.32 7.39 11.54 16.27 6.61 7.14 11.02 10.81 11.02 10.81s3.77-1.16 5.46-1.78c1.99-.73 3.88-1.68 3.88-1.68S95.16 54.7 89.91 50.4 77.42 40.12 75.43 37.39c-1.99-2.74-3.25-.12-3.25-.12z"/><path style="fill:#d92f0a" d="M64.31 22.69c-2.21.16-2.94 3.88-4.09 5.04-1.15 1.15-7.35 7.24-7.35 7.24s1.1 5.75 12.02 5.64c9.99-.11 11.89-4.84 11.89-4.84s-6.38-6.78-7.85-8.46c-1.47-1.69-1.68-4.83-4.62-4.62z"/><path style="fill:#ff6110" d="M64.68 17.83s1.89-.6 4.58-.29c2.74.32 4.56 1.21 7.41 1.15 4.36-.08 7.87-2.13 9.13-3.29s2.87-3.04 2.03-3.67c-.84-.63-4.42.32-8.42-1.26-3.53-1.39-5.3-5.02-10.31-5.6-4.31-.49-5.57 1.28-5.57 1.28l1.15 11.68z"/><path style="fill:#d92f0a" d="M63 4.89v19.67l3.15-.84-.31-18.83z"/></svg>