<svg xmlns="http://www.w3.org/2000/svg" viewBox="0 0 128 128" style="enable-background:new 0 0 128 128" xml:space="preserve"><path style="fill:#f6bc41" d="M119.02 7c-4.41-3.99-9.01-2.98-10.56-2.48-.33.11-.63.29-.88.54L6.06 104.96l16.95 16.95 100.33-103.4c.35-.37.58-.84.63-1.34.15-1.71-.1-5.79-4.95-10.17z"/><path style="fill:#a65f3e" d="M30.82 113.89c1.09-4.22-.25-9.17-3.91-12.83s-8.7-5.01-12.91-3.92l-7.93 7.81 16.95 16.95 7.8-8.01z"/><ellipse transform="rotate(-45.001 14.631 113.343)" style="fill:#f6bc41" cx="14.63" cy="113.34" rx="9.08" ry="11.99"/><ellipse transform="rotate(-45.001 14.631 113.343)" style="fill:#3e2723" cx="14.63" cy="113.34" rx="6.23" ry="8.23"/><ellipse transform="rotate(-45.821 30.038 92.326)" style="fill:#3e2723" cx="30.04" cy="92.33" rx="4.46" ry="4.57"/><path style="fill:#a65f3e" d="M28.64 90.88c1.55-1.49 4-1.48 5.62-.04a4.83 4.83 0 0 0-1-1.6c-1.75-1.82-4.61-1.91-6.38-.2-1.78 1.7-1.8 4.56-.05 6.38.46.47.99.83 1.56 1.07-1.39-1.68-1.3-4.12.25-5.61z"/><ellipse transform="rotate(-45.847 40.227 82.181)" style="fill:#3e2723" cx="40.23" cy="82.19" rx="4.31" ry="4.41"/><path style="fill:#a65f3e" d="M38.88 80.78c1.5-1.44 3.87-1.43 5.43-.04a4.5 4.5 0 0 0-.97-1.54c-1.69-1.76-4.45-1.84-6.17-.2-1.72 1.65-1.74 4.41-.05 6.16.44.46.96.8 1.5 1.03-1.33-1.61-1.24-3.97.26-5.41z"/><ellipse transform="rotate(-45.871 50.423 72.04)" style="fill:#3e2723" cx="50.43" cy="72.04" rx="4.16" ry="4.26"/><path style="fill:#a65f3e" d="M49.12 70.69c1.45-1.39 3.73-1.38 5.24-.04-.2-.54-.51-1.05-.94-1.49-1.63-1.69-4.3-1.78-5.95-.19-1.66 1.59-1.68 4.25-.05 5.95.43.44.92.77 1.45.99-1.28-1.55-1.2-3.83.25-5.22z"/><ellipse transform="rotate(-45.899 60.622 61.9)" style="fill:#3e2723" cx="60.62" cy="61.9" rx="4.01" ry="4.1"/><path style="fill:#a65f3e" d="M59.36 60.59c1.4-1.34 3.6-1.33 5.05-.04-.19-.52-.49-1.01-.9-1.43-1.57-1.63-4.14-1.71-5.74-.18-1.6 1.53-1.62 4.1-.05 5.73.41.43.89.74 1.4.96-1.24-1.5-1.16-3.7.24-5.04z"/><ellipse transform="rotate(-45.933 70.814 51.755)" style="fill:#3e2723" cx="70.81" cy="51.75" rx="3.86" ry="3.95"/><path style="fill:#a65f3e" d="M69.6 50.5c1.34-1.29 3.47-1.28 4.86-.03-.19-.5-.47-.97-.87-1.38-1.51-1.57-3.99-1.65-5.52-.17-1.54 1.48-1.56 3.95-.05 5.52.39.41.86.72 1.35.92-1.19-1.46-1.11-3.58.23-4.86z"/><ellipse transform="rotate(-45.97 81 41.608)" style="fill:#3e2723" cx="81" cy="41.61" rx="3.71" ry="3.8"/><path style="fill:#a65f3e" d="M79.84 40.4c1.29-1.24 3.33-1.23 4.67-.03-.18-.48-.46-.93-.83-1.33-1.45-1.51-3.83-1.58-5.31-.17-1.48 1.42-1.5 3.79-.05 5.3.38.39.82.69 1.29.89-1.14-1.39-1.06-3.42.23-4.66z"/><ellipse transform="rotate(-43.549 106.671 15.015)" style="fill:#3e2723" cx="106.67" cy="15.02" rx="3.42" ry="3.63"/><path style="fill:#a65f3e" d="M105.58 13.84c1.21-1.12 3.12-1.04 4.38.14-.17-.46-.43-.89-.78-1.28-1.36-1.47-3.59-1.63-4.98-.35-1.39 1.28-1.4 3.51-.04 4.98.36.38.77.68 1.21.88-1.07-1.34-1-3.25.21-4.37zm2.96 20.05s.68-5.63-4.64-10.95-10.09-4.34-10.09-4.34l-6.16 6.07s6.23-.11 10.43 4.09 4.7 11.04 4.7 11.04l5.76-5.91z"/><path style="fill:#de7340" d="m14.8 100.25 2.07-1.85c.41-.37.95-.56 1.5-.52 1.43.09 4.35.68 7.6 3.66.62.57.64 1.55.06 2.15-.73.75-1.7 1.76-2.41 2.5-.51.53-1.35.49-1.85-.05-1.96-2.11-4.62-3.21-6.49-3.76-.94-.27-1.21-1.48-.48-2.13zm77.35-77.31 2.95-2.71c.25-.22.8-.51 1.14-.48 1.51.14 3.92.64 7.26 3.97.81.81.83 1.69.16 2.39l-2.11 2.13c-.68.7-1.71.62-2.4-.07-1.98-1.97-4.58-3.09-6.37-3.59-.88-.26-1.31-1.03-.63-1.64z"/></svg>