<svg xmlns="http://www.w3.org/2000/svg" viewBox="0 0 1000 1000"><path fill="#ed1c24" d="M8 195.25c170.83-85.22 341.03-54.42 513.26-27.97 155.21 23.84 312.16 44.57 470.74-34.53v672c-170.83 85.22-341.03 54.42-513.26 27.97C323.53 808.88 166.58 788.15 8 867.25v-672"/><path fill="#fff" d="M8 363.25c170.83-85.22 341.03-54.42 513.26-27.97 155.21 23.84 312.16 44.57 470.74-34.53v336c-170.83 85.22-341.03 54.42-513.26 27.97C323.53 640.88 166.58 620.15 8 699.25v-336"/><path fill="#00a651" d="M495.52 331.31c-7.21 14.08-20.21 22.6-32.97 30.79-2.45 1.74-6.81 4.07-3.5 7.7 3.67-2.62 11.6 2.41 6.92 6.2-4.71 3.58-10.86 4.48-16.05 7.27-4.58 1.87-9.02 3.86-12.71 7.15.36 5.8 6.78 3.97 10.36 6.71 3.61 5.36-1.37 11.03-6.92 9.02-6.84-.48-11.12 4.44-13.84 10.01-5.46 7.43-14.99 8.7-23.03 12.34-4.51 2.14-8.88 4.55-13.1 7.18-5.16 3.68-.91 10.68 5.06 10.09 6.29-.08 11.74-3.84 18.27-1.82 5.86 3.29 7.36 10.61 5.49 16.14-1.65 4.14-4.96 6.74-7.91 9.8-4.81 4.18-10.63 6.44-17.15 7.23-6.28 1.48-11.61 4.57-15.83 9.37-4.72 4.34-9.44 8.7-14.84 12.24-1.31 4.6 2.84 8.28 7.16 8.94 8.51.12 14.34-5.86 21.6-8.8 6.34-1.61 12.67 5.18 11.6 11.74-.8 6.24-5.92 8.47-11.22 9.88-14.91 5.92-27.74 15.52-39.29 26.69-2.74 4.46-8.59 2.9-12.41 5.81-1.8 4.45 3.09 6.74 6.88 6.85 14.77-.55 28.41-5.29 41.49-10.73 4.83-1.83 9.4-4.25 14.42-5.56 5.05-.38 10.91 2.29 12.17 8.03-.35 5.9-5.4 8.17-10.09 9.97-13.78 5.53-28.81 7.89-43.52 11.24-5.73-1.53-9.38 6.85-3.61 9.88 6.48 2.72 13.09 1.89 19.69 2.28 20.18-.98 37.81-9.58 56.68-14.18 8.11-1.27 16.77 3.43 20.97 11.64 3.81 7.55 3.47 15.79-.57 21.97-6.61 13.31-16.29 24.65-29.56 31.13-8.39 2.97-17.87 3.5-25.11 8.89-5.98 2.1 2.6 11.14 4.72 4.72 4.24-4.96 10.71-5.68 17.26-5.08 9.65.24 19.41-.17 26.99-5.72 6.73-4.43 13.06-10.32 22.15-9.32 5.07 1.61 9.76 5.85 14.93 4.5 4.77-1.21 10.92.81 12.5 6.64 2.37 6.82 8.51 10.75 13.85 15.09 2.19 3.33 7.59 10.57 9.57 5-1.01-4.91.32-10.55 6.11-8.69 4.88 1.07 9.6 3.43 14.48 4.57 6.58 2.55 11.79 7.65 15.65 13.78 2.84 4.3 7.75 10.53 12.27 6.78 2.21-4.87-2.1-9.12-6.33-11.73-5.8-4.59-10.81-10.17-15.91-15.61-7.55-8.45-13.82-18.33-15.19-29.34-1.54-10.99-.75-21.7.6-32.2 2.12-6.69 9.92-8.92 16.29-4.53 8.51 5.29 16.79 11.83 26.5 12.78 14.03 2.18 28.28 1.49 42.01 7.1 13.22 5.99 22.87 18.16 35.76 24.46 3.25 1.88 6.24.74 7.67-2.43 1.15-3.04.39-6.13-2.3-8.31-15.1-16.69-35.46-26.55-52.9-40.77-5.47-2.63-6.38-10.7-1.41-13.21 6.96-3.93 15.74-.78 21.95 5.03 5.09 3.55 10.52 6.23 16.43 6.95 5.88-1.95 3.13-9.94-2.28-11.68-9.64-6.7-16.69-16.52-25.07-24.87-4.93-4.84-10.11-9.48-16.65-11.31-3.59-1.08-7.17-1.7-10.8-1.96-3.05-4.6.86-8.98 5.5-8.33 4.51.89 8.93 1.73 13.42 1.71 5.01.22 10.01.32 15.03.83 4.49 2.93 11.66-.35 8.5-6-4.17-3.85-9.66-4.44-14.56-6.75-8.4-3.79-16.93-7.14-25.58-10.08-5.99-1.72-5.32-8.68.02-9.43 3.55-.54 6.44 2.04 9.84 3.11 5.73 1.91 11.58 2.74 17.3 4.61 4.62-2.48 1.23-9.02-3.28-10.48-10.3-5.11-19.2-12.95-27.95-20.78-9.6-8.73-18.39-18.47-28.11-27.16-3.79-2.76-8.94-4.3-10.26-9.37.1-4.72 4.59-5.79 8.66-4.32 5.26 2.43 10.25 5.79 15.61 7.99 4.26 1.37 8.56 3.06 12.66 3.21 4.7-3.01-1.8-5.59-4.9-7.28-6.87-4.81-13.02-10.69-19.23-16.44-4.8-5.7 4.12-5.71 7.78-3.73 5.87 2.63 5.95-4.59 2.05-7.74-4.88-2.91-9.14-6.96-13.59-10.73-8.14-7.06-17.12-12.92-27.05-15.84-11.21-3.02-21.22-10.89-27.32-21.59-3.61-6.13-6.32-12.62-8.92-19.14m-36.41 58.15c5.56 1.71 4.98 10.75-.79 9.9-5.27-1.85-5.32-11.23.79-9.9m53.91 13.97c5.54.55 6.74 9.69 1.18 10.04-5.7-.57-8.02-11.02-1.18-10.04m-15.79-1.09c5.49 2.6 4.74 11.28-1.06 11.12-4.31.44-8.45 2.28-12.86-.31-3.06-4.6 1.27-8.63 5.35-9.58 2.93-.23 5.64-1.02 8.57-1.23m36.34 5.63c5.24 3.43 3.67 11.79-2.22 11.4-5.5-.69-7.8-9.1-2.88-11.16 1.67-.33 3.31-.53 5.1-.24m-61.3 1.71c3.81 4.93 1.73 11.21-3.29 12.71-3.81 1.72-8.06 5.21-12.26 1.02-1.7-5.3 2.88-7.81 6.26-10.16 2.86-1.8 5.76-3.2 9.29-3.57m45.62 28.77c5.5 4.17 3.02 13.19-3.46 12.13-5.04-2.71-4.54-10.47.71-11.01.99-.25 1.88-.66 2.75-1.12m-18.15-1.76c5.07 3.92 1.52 11.36-4.12 9.76-5.41-2.16-5.65-10.93.68-9.73 1.18.13 2.33.24 3.44-.03m39.13 11.25c6.17-.58 12.53 5.92 11.02 12.25-3 4.4-8.74 4.1-13.7 1.61-5.45-1.61-8.67-9.24-4.16-12.55 2.08-1.16 4.34-1.43 6.84-1.31m-86.61-11.69c5.16-1.36 9.63 6.32 5.87 9.88-3.14 3.69-9.31 4.27-12.84-.68-2.26-5.21 1.3-11.31 6.97-9.2m-22.37.6c5.56 1.84 8.93 7.01 11.11 12.36-.02 6.13-7.58 7.85-11.78 3.18-4.33-3.6-7.6-9.04-5.67-14.18 1.59-1.85 3.84-2.24 6.34-1.36m133.83 41.64c6.15-.16 10.06 9.03 5.17 12.43-5.15 3.3-13.29-3.05-11.35-9.27 1.42-2.17 3.49-3.18 6.18-3.16m-75.97-.38c4.84 2.04 3.51 9.43-1.25 9.05-4.79-2.3-3.98-9.71 1.25-9.05m-25.39.83c4.46-1.75 8.93 5.13 5.95 8.53-4.45 1.74-8.94-5.03-5.95-8.53m40.36 7.08c4.75 3.91 7.4 9.44 8.13 15.23-2.83 4.67-10.48 2.32-12.01-3.44-1.59-4.92-.18-9.65 3.88-11.79m14.09 10.74c5.9.23 4.17 11.33-1.18 6.78-1.56-2.61-.82-5.26 1.18-6.78m-88.47-4.27c4.36-.46 9.51 1.4 11.04 6.39.08 4.62-4.04 6.04-7.83 6.77-5.68 1.04-11.06 2.96-17.17 1.92-4.47-3.5-6.12-8.77-7.78-13.86 4.6-3.41 10.65-1.65 16.24-1.83 1.83.16 3.67.37 5.5.61m137.23 41.12c5.46-1.25 10.33 6.72 6.38 10.61-5.77 5.53-15.41 5.24-22.22-1.02-.42-5.91 4.44-8.81 9.58-9.12 2.08-.32 4.06-.79 6.26-.47m28.95 10.4c6.06.25 10.19 8.36 6.28 12.76-4.36 5.57-12.99 5.9-18.78.22-1.81-5.61 1.97-9.76 6.71-11.06 1.94-.62 3.8-1.4 5.79-1.92m-145.55-12.56c5.63.62 10.07 6.22 9.67 11.87 3.43 4.95-2.54 10.45-6.93 6.2-3.3-4.93-3.49-10.5-4.76-15.9.03-1.25.68-2.35 2.02-2.17m41.6 9.51c5.95-1.14 12.43 5.95 9.8 11.72-2.76 4.19-10.09 1.64-10.39-3.95-.03-2.67-.13-5.29.59-7.77m-20.24.61c5.87.03 10.44 7.33 7.65 12.28-5.73-.81-8.3-7.23-7.65-12.28"/><path fill="#1A1A1A" opacity=".2" d="M8 195.25c170.83-85.22 341.03-54.42 513.26-27.97 155.21 23.84 312.16 44.57 470.74-34.53v672c-170.83 85.22-341.03 54.42-513.26 27.97C323.53 808.88 166.58 788.15 8 867.25v-672m31.25 19.39v604.5c306.56-128.26 611.18 96.04 921.5-33.78v-604.5c-306.56 128.26-611.18-96.04-921.5 33.78"/></svg>