<svg xmlns="http://www.w3.org/2000/svg" viewBox="0 0 128 128" style="enable-background:new 0 0 128 128" xml:space="preserve"><path style="fill:#70534a" d="M99.68 78.34C90.23 65 81.51 41.93 79.33 36.44c-2.18-5.5-4.68-19.49-4.61-26.02.04-4.02-1.19-5.27-1.57-5.36-3.67-.9-5.68-1.14-7.17 1.82-.47.92-1 3.6-1.57 7.3-.51-3.18-1.27-5.75-2.37-7.3-1.91-2.71-3.5-2.72-7.17-1.82-.38.09-1.61 1.35-1.57 5.36.06 6.54-2.44 20.53-4.61 26.02-2.18 5.5-10.9 28.56-20.36 41.9-4.48 6.32-8.94 10.97-8.94 10.97l18.79 26.3s8.2-9.94 12.71-11.63C57.57 101.46 64 97.78 64 87.69c0 10.08 6.43 13.76 13.13 16.28 4.51 1.69 12.71 11.63 12.71 11.63l18.79-26.3c-.01.01-4.47-4.65-8.95-10.96z"/><path style="fill:#4a2f27" d="M81.16 40.94c-1.3-3.58-3.84-10.92-4.68-15.89-.82-4.82-1.46-9.52-1.73-10.79-.57-2.77-3.63-2.57-3.63-2.57-3.02-.04-4.13 1.83-4.78 2.46.05-.85.02-2.51.25-3.81.77-4.27 3.44-5.21 5.1-5.14.91.04 1.5-.1 1.21-.38-2.05-1.93-8.84-.56-8.84 5.37h-.15c0-5.93-6.79-7.3-8.84-5.37-.29.27.3.41 1.21.38 1.66-.07 4.34.88 5.1 5.14.23 1.3.2 2.96.25 3.81-.65-.63-1.76-2.51-4.78-2.46 0 0-3.06-.2-3.63 2.57-.26 1.28-.91 5.98-1.73 10.79-.87 5.13-3.68 13.12-5 16.72-.31.86.64 1.63 1.41 1.15.46-.29.9-.7 1.21-1.27 1.65-3.05 3.17-9.66 4.41-16.51.35-1.91 1.4-7.42 1.73-8.63.23-.84 1.18-1.75 2.05-1.7 1.49.09 2.6.2 3.95 4.15.9 2.63 1.28 7.3.73 14.95-.28 3.94-1.68 14.17-1.47 19.2.36 8.75 2.73 11.35 2.73 35.5 0 .99.74 1.4.74 1.4s.72-.4.74-1.4c.34-21.91 1.75-26.42 2.73-35.5.54-5.02-1.19-15.26-1.47-19.2-.55-7.65-.17-12.32.73-14.95 1.35-3.95 2.46-4.06 3.95-4.15.87-.05 1.82.86 2.05 1.7.33 1.21 1.38 6.73 1.73 8.63 1.25 6.86 2.73 12.81 4.37 15.85.23.42.51.75.82 1.02.75.63 1.87-.15 1.53-1.07z"/><path style="fill:#2686c6" d="M45.45 110.43c-11.9-11.9-15.76-17.44-20.6-26.87-1-1.95-4.02.01-4.02.01-3.59 3.33-6.63 4.82-10.52 7.37 9.24 23.69 23.39 32.99 23.44 33.06l11.47-9.84c1.08-.93 1.23-2.73.23-3.73zm37.1 0c11.9-11.9 15.76-17.44 20.6-26.87 1-1.95 4.02.01 4.02.01 3.59 3.33 6.63 4.82 10.52 7.37-9.24 23.69-23.39 32.99-23.44 33.06l-11.47-9.84c-1.08-.93-1.23-2.73-.23-3.73z"/></svg>