<svg xmlns="http://www.w3.org/2000/svg" viewBox="0 0 128 128" style="enable-background:new 0 0 128 128" xml:space="preserve"><path style="fill:#a15d38" d="M118.53 102.36H9.47l12-34.21h85.06z"/><path style="fill:#4e342e" d="M122.12 120.29V89.46l-15.2-41.58H21.08L5.88 89.46v30.83l17.58-50.21h81.08z"/><path style="fill:#f29657" d="M99.5 86.45c-6.33 0-4.93 11.47-17.1 11.47H43.3c-8.36 0-9.73-11.47-14.41-11.47H5v35.09C5 122.9 6.1 124 7.46 124h113.07c1.36 0 2.47-1.1 2.47-2.47V86.45H99.5z"/><path style="fill:#ffcc80" d="m122.87 85.94-13.76-38.7c-.34-1.02-1.3-1.7-2.37-1.7H21.26c-1.07 0-2.03.68-2.37 1.7L5.13 85.94a1.87 1.87 0 0 0 1.77 2.47h20.92c1.51 0 2.88.85 3.56 2.2 1.68 3.33 5.67 9.27 12.88 9.27h39.5c7.2 0 11.2-5.94 12.88-9.27a3.98 3.98 0 0 1 3.56-2.2h20.92c1.26 0 2.16-1.26 1.75-2.47zm-7.39-1.51h-15.3a7.91 7.91 0 0 0-7.11 4.4c-1.33 2.64-4.31 7.08-9.32 7.08h-39.5c-5.01 0-7.99-4.43-9.32-7.08a7.929 7.929 0 0 0-7.11-4.4h-15.3c-1.31 0-2.23-1.29-1.81-2.53l11.08-30.76c.33-.96 1.23-1.61 2.24-1.61h79.95c1.02 0 1.92.65 2.24 1.61L117.3 81.9c.42 1.24-.51 2.53-1.82 2.53z"/><path style="fill:#f44336" d="M76.63 28.62V4.9c0-.5-.4-.9-.9-.9H52.27c-.5 0-.9.4-.9.9v23.72c0 .5-.4.9-.9.9l-12.11-.03c-.76 0-1.18.89-.69 1.48l25.64 30.74a.9.9 0 0 0 1.38 0l25.64-30.74c.49-.59.07-1.48-.69-1.48l-12.11.03c-.49 0-.9-.4-.9-.9z"/></svg>