<svg xmlns="http://www.w3.org/2000/svg" viewBox="0 0 128 128" style="enable-background:new 0 0 128 128" xml:space="preserve"><path style="fill:#2167a1" d="M64 42.2c-8.44 0-14.92-2.41-19.25-7.16-3.62-3.97-7.65-11.75-6.29-26.26l.05-.54c.13-1.73 3.39-2.58 4.41-2.74h.03c1.52 0 2.94 1.17 5.33 6.97 2.71 6.55 8.88 10.79 15.73 10.79 5.19 0 12.53-.91 16.22-8.77.57-1.22 1.07-2.34 1.52-3.34 1.68-3.76 2.54-5.59 3.7-5.64.75.17 3.44 1.51 3.85 2.97.15 1.26 1.77 16.87-6.51 26.33-4.31 4.9-10.63 7.39-18.79 7.39z"/><path style="fill:#01579b" d="M43.03 7c.43.03 1.54.42 3.86 6.04 2.94 7.12 9.66 11.72 17.12 11.72 3.23 0 13.05 0 17.58-9.63.58-1.24 1.09-2.37 1.54-3.37.84-1.88 1.78-3.98 2.37-4.65.89.38 2.1 1.21 2.34 1.71.21 1.94 1.47 16.26-6.16 24.99-4 4.58-9.95 6.9-17.66 6.9-8 0-14.11-2.25-18.14-6.67-3.42-3.75-7.21-11.15-5.91-25.11 0-.24.02-.43.03-.57.17-.41 1.61-1.11 3.03-1.36m-.09-3h-.16s-5.52.78-5.78 4.12c-.25 3.35-4.55 35.58 27 35.58S90.77 8.19 90.77 8.19c-.59-2.51-4.56-4.18-5.24-4.19h-.04c-2.72 0-3.66 3.55-6.62 9.84-2.98 6.33-8.56 7.91-14.87 7.91s-11.92-4-14.34-9.86C47.29 6.15 45.54 4 42.94 4z"/><path style="fill:#56bfe6" d="M107.87 49.47c-.24-.38-2.87-3.35-5-7.59-5.46-10.88.42-26.52-4.83-36.07L85.22 4c1.24 7.24-1.17 15.76-1.62 17.72-1.04 4.48-5.69 15.81-19.6 15.81S45.44 26.2 44.4 21.72c-.45-1.96-2.86-10.48-1.62-17.72L29.97 5.81c-5.25 9.55.63 25.19-4.83 36.07-2.13 4.24-4.76 7.21-5 7.59 0 0 4.07 42.46-.39 69.36 6.92 2.03 25.59 3.05 44.26 3.05 18.67 0 37.34-1.02 44.26-3.05-4.47-26.89-.4-69.36-.4-69.36z"/><path style="fill:#ffca28" d="M100.38 20.67C80.99 44.42 46.75 68.01 21.77 82.68c.11 9.2-.11 19.13-1.01 28.11 23.16-12.41 60.41-35.99 86.5-62.07-.94-1.19-2.82-3.66-4.42-6.84-3.12-6.19-2.56-13.93-2.46-21.21z"/><path style="fill:#039be5" d="M98.05 36.75c.43 2.24 1.11 4.41 2.14 6.48.94 1.87 2.04 3.66 3.26 5.37.99 1.4 2.3 3.16 4.22 3.22 0 0 .13-.08.28-1.05.17-1.17-.07-1.3-.07-1.3-.24-.38-2.87-3.35-5-7.59-5.46-10.88.42-26.52-4.83-36.07-.47-.4-2.52-.59-2.75-.39 1.03 2.75 1.58 5.28 1.9 8.21.35 3.13.25 6.31.19 9.45-.09 4.57-.19 9.24.66 13.67zm-68.35 0c-.43 2.24-1.11 4.41-2.14 6.48-.94 1.87-2.04 3.66-3.26 5.37-.99 1.4-2.3 3.16-4.22 3.22 0 0-.13-.08-.28-1.05-.17-1.17.07-1.3.07-1.3.24-.38 2.87-3.35 5-7.59C30.33 31 24.45 15.36 29.7 5.81c.47-.4 2.52-.59 2.75-.39-1.03 2.75-1.58 5.28-1.9 8.21-.35 3.13-.25 6.31-.19 9.45.1 4.57.19 9.24-.66 13.67zM88.1 5.27c-.02-.37-.16-.62-.37-.8-.66-.52-2.52-.56-2.91-.47 1.24 7.24-1.17 15.76-1.62 17.72-1.02 4.44-5.6 15.58-19.2 15.8-13.6-.22-18.18-11.36-19.2-15.8-.45-1.96-2.86-10.48-1.62-17.72-.4-.09-2.25-.05-2.91.47-.22.18-.36.43-.37.8-.24 5.6.48 11.02 1.82 16.45.07.27.12.49.16.66 1.91 8.28 8.84 17.94 22.12 18.13 13.28-.19 20.21-9.84 22.12-18.13.04-.17.09-.39.16-.66 1.34-5.43 2.06-10.85 1.82-16.45z"/></svg>