<svg xmlns="http://www.w3.org/2000/svg" viewBox="0 0 128 128" style="enable-background:new 0 0 128 128" xml:space="preserve"><path style="fill:#b06542" d="m33.28 123.87 61.43.13c1.22 0 2.2-.89 2.2-1.99V6.12c0-1.1-.98-1.99-2.19-1.99L33.29 4c-1.22 0-2.2.89-2.2 1.99v115.88c0 1.1.98 2 2.19 2z"/><path style="fill:#874d36" d="M78.72 20.72v30.32H49.28V20.72h29.44m4.91-5H44.37v40.32h39.26V15.72z"/><path style="fill:#c87d5e" d="m83.63 15.9-5.1 4.82h.19v30.32H49.65l-5.28 5h39.26z"/><path style="fill:#874d36" d="M78.72 78.96v28.32H49.28V78.96h29.44m4.91-5H44.37v38.32h39.26V73.96z"/><path style="fill:#c87d5e" d="m83.63 74.14-5.1 4.82h.19v28.32H49.65l-5.28 5h39.26z"/><circle style="fill:#874d36" cx="44.18" cy="66" r="5.25"/><circle style="fill:#bdbdbd" cx="42.14" cy="64.45" r="5.25"/><path style="fill:#eee" d="M43.38 61.11c.13.65-.25.97-.79 1.36-.54.39-1.21.7-1.7 1.53-.35.59-.46 1.37-1.03 1.76-.56.38-1.2.31-1.5-.36-.43-.95-.44-2.6.77-3.95 1.16-1.29 3.93-1.98 4.25-.34z"/></svg>