<svg xmlns="http://www.w3.org/2000/svg" viewBox="0 0 128 128" style="enable-background:new 0 0 128 128" xml:space="preserve"><path style="fill:#312d2d" d="M5.43 74.62c.06-.26 4.95-29.34 30.8-27.08 15.04 1.31 25.48 11.52 25.6 26.61.04 5.32.22 14.51-.22 18.69-1.83 17.58-7.74 28.43-8.53 28.63-4.16 1.02-41.34 3.35-44.09-2.23-6.34-12.8-5-35.68-3.56-44.62z"/><linearGradient id="a" gradientUnits="userSpaceOnUse" x1="1210.798" y1="123.518" x2="1210.798" y2="110.865" gradientTransform="matrix(-1 0 0 1 1241.643 0)"><stop offset="0" style="stop-color:#530eeb"/><stop offset="1" style="stop-color:#651fff"/></linearGradient><path style="fill:url(#a)" d="M27.08 111.11h7.52c8.69-.66 21.56 3.24 24.47 12.89H2.61c2.91-9.64 15.78-13.55 24.47-12.89z"/><path style="fill:#edc391" d="M30.61 117.83a6.8 6.8 0 0 1-6.8-6.8v-4.54h13.61v4.54a6.816 6.816 0 0 1-6.81 6.8z"/><path style="fill:#f9ddbd" d="M37.51 55.63C25.36 54.14 13 61.79 10.64 80.95c-1.89 15.39 6.52 25.66 14.46 29.61 1.89.94 3.76 1.53 5.45 1.74 1.68.21 3.62.09 5.67-.36 8.66-1.9 19.33-9.84 21.23-25.25 2.35-19.16-7.79-29.57-19.94-31.06z"/><path style="fill:#dba689" d="M36.63 94.22a.584.584 0 0 0-.22-.08l-4.94-.61c-.08 0-.15.01-.23.03-.47.13-.77.56-.62 1.08.15.52.96 2.03 2.94 2.27 1.98.24 3.13-1.02 3.41-1.49.28-.47.09-.96-.34-1.2z"/><path style="fill:#454140" d="M29.03 80.21c-.55-.95-1.91-2.4-4.85-2.76s-4.61.71-5.37 1.5a.9.9 0 0 0-.15 1.09c.16.27.68.57 1.31.44.63-.13 1.89-.6 3.88-.37 1.99.26 3.1 1.02 3.68 1.3.58.28 1.16.12 1.38-.11a.91.91 0 0 0 .12-1.09zm23.2 2.85c-.55-.95-1.91-2.4-4.85-2.76s-4.61.71-5.37 1.5a.9.9 0 0 0-.15 1.09c.16.27.68.57 1.31.44.63-.13 1.89-.6 3.88-.37 1.99.26 3.1 1.02 3.68 1.3.58.28 1.16.12 1.38-.11.24-.24.37-.67.12-1.09z"/><ellipse transform="rotate(-82.998 46.345 88.832)" style="fill:#312d2d" cx="46.34" cy="88.83" rx="3.59" ry="3.46"/><ellipse transform="rotate(-82.998 23.135 85.983)" style="fill:#312d2d" cx="23.13" cy="85.98" rx="3.59" ry="3.46"/><path style="fill:#444" d="M39.11 100.32c-2.39 1.05-9.67.15-11.73-1.44-1.18-.92-2.63.08-2.24 1.31.38 1.2 4.03 4.34 7.47 4.76 3.44.42 7.69-1.74 8.35-2.82.67-1.09-.48-2.41-1.85-1.81z"/><path style="fill:#312d2d" d="M36.22 47.55C10.37 45.29 5.49 74.36 5.43 74.62c-.67 4.18-1.32 11.4-1.18 19.21l7.24.51c-.22-3.96 2.88-19.14 9.42-19.61 16.27-1.19 23.71-8.59 23.71-8.59 1.7 5.36 8.36 11.2 10.74 13.41 1.95 1.81.84 11.69.47 14.4h5.66l.12-1.09c.43-4.18.26-13.37.22-18.69-.13-15.11-10.57-25.31-25.61-26.62z"/><radialGradient id="b" cx="33.662" cy="88.578" r="30.737" gradientTransform="matrix(.9988 .0497 -.0666 1.3393 5.94 -31.722)" gradientUnits="userSpaceOnUse"><stop offset=".765" style="stop-color:#454140;stop-opacity:0"/><stop offset=".966" style="stop-color:#454140"/></radialGradient><path style="fill:url(#b)" d="M61.82 74.15c-.12-15.09-10.56-25.29-25.6-26.61C10.37 45.29 5.49 74.36 5.43 74.62c-1.34 8.35-2.6 28.87 2.4 41.97 5.33-4.24 13.28-5.94 19.25-5.48h7.52c6.52-.5 15.39 1.57 20.64 6.71 2.12-4.59 5.14-13.29 6.35-24.98.45-4.17.27-13.37.23-18.69z"/><path style="fill:#ef5592" d="M78.41 3.74C67.87 3.74 64 14.5 64 14.5S60.18 3.74 49.57 3.74c-7.97 0-17.07 6.32-13.71 20.68 3.36 14.36 28.16 32.26 28.16 32.26s24.72-17.9 28.08-32.26c3.36-14.36-5.08-20.68-13.69-20.68z"/><path style="fill:#da2e75" d="M47.94 4.81c8.27 0 12.38 8.89 13.71 12.5.19.51.91.53 1.12.03l1.21-2.83c-1.71-5.45-6.4-10.77-14.41-10.77-3.32 0-6.82 1.1-9.55 3.41 2.4-1.59 5.23-2.34 7.92-2.34zm30.47-1.07c-2.55 0-4.7.74-6.51 1.85 1.27-.49 2.68-.78 4.23-.78 7.8 0 14.77 5.91 11.62 19.58-2.7 11.73-18.5 25.96-23.32 31.39-.31.35-.41.91-.41.91s24.72-17.9 28.08-32.26c3.36-14.37-5.72-20.69-13.69-20.69z"/><path style="fill:#f386ab" d="M41.4 11.36c1.8-2.25 5.03-4.11 7.76-1.97 1.48 1.16.83 3.54-.49 4.54-1.93 1.46-3.6 2.34-4.77 4.63-.7 1.38-1.13 2.88-1.34 4.42-.08.61-.88.75-1.18.22-2.04-3.6-2.61-8.55.02-11.84zm28.91 4.73c-.85 0-1.44-.82-1.13-1.61a19.31 19.31 0 0 1 2.2-4.11c1.32-1.85 3.82-2.92 5.41-1.81 1.63 1.15 1.42 3.43.27 4.54-2.45 2.39-5.53 2.99-6.75 2.99z"/><path style="fill:#3c2c23" d="M122.57 74.62c-.06-.26-4.95-29.34-30.8-27.08-15.04 1.31-25.48 11.52-25.6 26.61-.04 5.32-.22 14.51.22 18.69 1.83 17.58 7.74 28.43 8.53 28.63 4.16 1.02 41.34 3.35 44.09-2.23 6.34-12.8 5-35.68 3.56-44.62z"/><linearGradient id="c" gradientUnits="userSpaceOnUse" x1="97.236" y1="123.518" x2="97.236" y2="110.865"><stop offset="0" style="stop-color:#9900e6"/><stop offset="1" style="stop-color:#a0f"/></linearGradient><path style="fill:url(#c)" d="M101 111.11h-7.52c-8.7-.66-21.57 3.25-24.48 12.89h56.46c-2.89-9.64-15.77-13.55-24.46-12.89z"/><path style="fill:#7a4c32" d="M97 117.83a6.8 6.8 0 0 1-6.8-6.8v-4.54h13.61v4.54a6.816 6.816 0 0 1-6.81 6.8z"/><path style="fill:#a56c43" d="M90.49 55.63c12.15-1.49 24.51 6.16 26.86 25.32 1.89 15.39-6.52 25.66-14.46 29.61-1.89.94-3.76 1.53-5.45 1.74-1.68.21-3.62.09-5.67-.36-8.66-1.9-19.33-9.84-21.23-25.25-2.34-19.16 7.8-29.57 19.95-31.06z"/><path style="fill:#875334" d="M91.37 94.22c.07-.04.14-.07.22-.08l4.94-.61c.08 0 .15.01.23.03.47.13.77.56.62 1.08-.15.52-.96 2.03-2.94 2.27-1.98.24-3.13-1.02-3.41-1.49-.28-.47-.09-.96.34-1.2z"/><path style="fill:#42312c" d="M98.97 80.21c.55-.95 1.91-2.4 4.85-2.76s4.61.71 5.37 1.5c.34.35.32.8.15 1.09-.16.27-.68.57-1.31.44-.63-.13-1.89-.6-3.88-.37-1.99.26-3.1 1.02-3.68 1.3-.58.28-1.16.12-1.38-.11a.91.91 0 0 1-.12-1.09zm-23.2 2.85c.55-.95 1.91-2.4 4.85-2.76s4.61.71 5.37 1.5c.34.35.32.8.15 1.09-.16.27-.68.57-1.31.44-.63-.13-1.89-.6-3.88-.37-1.99.26-3.1 1.02-3.68 1.3-.58.28-1.16.12-1.38-.11a.881.881 0 0 1-.12-1.09z"/><ellipse transform="rotate(-7.002 81.637 88.807)" style="fill:#42312c" cx="81.66" cy="88.83" rx="3.46" ry="3.59"/><ellipse transform="rotate(-7.002 104.84 85.958)" style="fill:#42312c" cx="104.87" cy="85.98" rx="3.46" ry="3.59"/><path style="fill:#473530" d="M88.89 100.32c2.39 1.05 9.67.15 11.73-1.44 1.18-.92 2.63.08 2.24 1.31-.38 1.2-4.03 4.34-7.47 4.76-3.44.42-7.69-1.74-8.35-2.82-.67-1.09.48-2.41 1.85-1.81z"/><path style="fill:#3c2c23" d="M123.74 94.36c.18-8.02-.48-15.47-1.17-19.74-.06-.26-4.95-29.34-30.8-27.08-15.04 1.31-25.48 11.52-25.6 26.61-.04 5.32-.22 14.51.22 18.69l.12 1.09h5.43c-.37-2.7-.42-5.33-.01-7.96 1.53-9.93 15.32-7.43 26.9-19.86 0 0 4.28 5.49 13.07 11.26 5.44 3.57 4.59 13 4.37 16.96l7.47.03z"/><radialGradient id="d" cx="1153.78" cy="88.555" r="30.737" gradientTransform="matrix(-.9988 .0497 .0666 1.3393 1240.799 -87.335)" gradientUnits="userSpaceOnUse"><stop offset=".765" style="stop-color:#554138;stop-opacity:0"/><stop offset=".966" style="stop-color:#554138"/></radialGradient><path style="fill:url(#d)" d="M66.18 74.13c.12-15.09 10.56-25.29 25.6-26.61 25.85-2.26 30.74 26.82 30.8 27.08 1.34 8.35 2.6 28.87-2.4 41.97-5.33-4.24-13.28-5.94-19.25-5.48h-7.52c-6.52-.5-15.39 1.57-20.64 6.71-2.12-4.59-5.14-13.29-6.35-24.98-.46-4.17-.28-13.37-.24-18.69z"/></svg>