<svg xmlns="http://www.w3.org/2000/svg" viewBox="0 0 128 128" style="enable-background:new 0 0 128 128" xml:space="preserve"><path style="fill:#427687" d="M116 4H12c-4.42 0-8 3.58-8 8v104c0 4.42 3.58 8 8 8h104c4.42 0 8-3.58 8-8V12c0-4.42-3.58-8-8-8z"/><path style="fill:#8cafbf" d="M109.7 4H11.5A7.555 7.555 0 0 0 4 11.5v97.9c-.01 4.14 3.34 7.49 7.48 7.5h98.12c4.14.01 7.49-3.34 7.5-7.48V11.5c.09-4.05-3.13-7.41-7.18-7.5h-.22z"/><g style="opacity:.2"><path style="fill:none" d="M26.3 105.3a4.14 4.14 0 0 1-2.5-.6.889.889 0 0 1-.4-.8c-.09-.6-.3-1.18-.6-1.7l1.8.6c2.6.8 3.4 1.3 3.6 1.5.08.12.12.26.1.4 0 .2 0 .2-.1.3-.61.23-1.25.33-1.9.3z"/></g><path style="fill:#fafafa" d="m77.6 17 24 24a3.994 3.994 0 0 1 .35 5.65c-.11.13-.23.24-.35.35l-24 24a3.996 3.996 0 0 1-5.64-.44c-.61-.71-.95-1.62-.96-2.56V54c0-1.1-.9-2-2-2H23c-2.21 0-4-1.79-4-4v-8c0-2.21 1.79-4 4-4h46c1.1 0 2-.9 2-2V20a4 4 0 0 1 6.6-3z"/><path style="opacity:.5;fill:#b4e1ed;enable-background:new" d="M39.7 12.9c0-2.3-1.6-3-10.8-2.7-7.7.3-11.5 1.2-13.8 4s-2.9 8.5-3 15.3c0 4.8 0 9.3 2.5 9.3 3.4 0 3.4-7.9 6.2-12.3 5.4-8.7 18.9-10.6 18.9-13.6z"/><path style="fill:#fafafa" d="M28.06 103.94c0 2.51-.9 4.49-2.71 5.94-1.81 1.45-4.33 2.17-7.55 2.17-2.97 0-5.6-.56-7.88-1.68v-5.48c1.88.84 3.47 1.43 4.77 1.77 1.3.34 2.49.51 3.57.51 1.29 0 2.29-.25 2.98-.74.69-.5 1.04-1.23 1.04-2.21 0-.55-.15-1.03-.46-1.46-.3-.42-.75-.83-1.34-1.23-.59-.39-1.79-1.02-3.61-1.88-1.7-.8-2.98-1.57-3.83-2.3s-1.53-1.59-2.04-2.57-.76-2.12-.76-3.43c0-2.46.83-4.4 2.5-5.81 1.67-1.41 3.98-2.11 6.92-2.11 1.45 0 2.83.17 4.14.51 1.31.34 2.69.83 4.12 1.45l-1.9 4.59c-1.49-.61-2.71-1.04-3.68-1.28-.97-.24-1.93-.36-2.87-.36-1.12 0-1.97.26-2.57.78s-.9 1.2-.9 2.04c0 .52.12.97.36 1.36.24.39.62.76 1.15 1.12.53.36 1.77 1.01 3.74 1.95 2.6 1.24 4.39 2.49 5.35 3.74.98 1.26 1.46 2.79 1.46 4.61zm28.56-6.23c0 4.61-1.14 8.15-3.43 10.63s-5.56 3.71-9.83 3.71-7.54-1.24-9.83-3.71-3.43-6.03-3.43-10.66 1.15-8.17 3.44-10.62c2.29-2.44 5.58-3.67 9.85-3.67s7.55 1.23 9.82 3.69c2.28 2.47 3.41 6.01 3.41 10.63zm-20.32 0c0 3.11.59 5.45 1.77 7.03s2.95 2.36 5.29 2.36c4.71 0 7.06-3.13 7.06-9.39 0-6.27-2.34-9.41-7.03-9.41-2.35 0-4.12.79-5.31 2.37-1.18 1.59-1.78 3.93-1.78 7.04zm48.44 0c0 4.61-1.14 8.15-3.43 10.63s-5.56 3.71-9.83 3.71c-4.27 0-7.54-1.24-9.83-3.71s-3.43-6.03-3.43-10.66 1.15-8.17 3.44-10.62c2.29-2.44 5.58-3.67 9.86-3.67 4.28 0 7.55 1.23 9.82 3.69s3.4 6.01 3.4 10.63zm-20.32 0c0 3.11.59 5.45 1.77 7.03s2.95 2.36 5.29 2.36c4.71 0 7.07-3.13 7.07-9.39 0-6.27-2.34-9.41-7.03-9.41-2.35 0-4.12.79-5.31 2.37-1.2 1.59-1.79 3.93-1.79 7.04zm47.86 13.96h-7.5L92.67 90.61h-.17c.24 3.72.36 6.37.36 7.96v13.1h-5.28V83.83h7.45l12.09 20.85h.13c-.19-3.62-.29-6.18-.29-7.67V83.83h5.31v27.84z"/></svg>