<svg xmlns="http://www.w3.org/2000/svg" viewBox="0 0 1000 1000"><path d="M8 195.25c170.83-85.22 341.03-54.42 513.26-27.97 155.21 23.84 312.16 44.57 470.74-34.53v672c-170.83 85.22-341.03 54.42-513.26 27.97C323.53 808.88 166.58 788.15 8 867.25v-672"/><path fill="#fff" d="M8 195.25c170.83-85.22 341.03-54.42 513.26-27.97 155.21 23.84 312.16 44.57 470.74-34.53v448c-170.83 85.22-341.03 54.42-513.26 27.97C323.53 584.88 166.58 564.15 8 643.25v-448"/><path fill="#ce1126" d="M8 195.25c170.83-85.22 341.03-54.42 513.26-27.97 155.21 23.84 312.16 44.57 470.74-34.53v224c-170.83 85.22-341.03 54.42-513.26 27.97C323.53 360.88 166.58 340.15 8 419.25v-224"/><path fill="#007a3d" d="m303.2 403.61-21.96 68.4c13.72 4.93 27.45 10.17 41.59 15.86l-19.63-84.26"/><path fill="#007a3d" d="m303.2 403.61 21.96 70.58c-13.72 3.58-27.45 7.43-41.59 11.73l19.63-82.31"/><path fill="#007a3d" d="M370.79 459.45c-23.45-2.57-46.9-4.57-71.07-5.71v44.8c23.46-13.69 46.91-26.5 71.07-39.09"/><path fill="#007a3d" d="m370.79 459.45-57.49 37.81-25.71-37.45c27.46-1.25 54.91-1.23 83.2-.36"/><path fill="#007a3d" d="M235.61 453.24c18.97 13.48 37.94 27.71 57.49 43.01l25.71-34.89c-27.46-3.95-54.91-6.84-83.2-8.12"/><path fill="#007a3d" d="M235.61 453.24c23.46-.79 46.9-.43 71.07.85v44.8c-23.46-16.03-46.91-31.23-71.07-45.65"/><path fill="#007a3d" d="m344.97 538.25-21.96-70.99c-13.72 3.61-27.45 7.48-41.59 11.82l63.55 59.17"/><path fill="#007a3d" d="m344.97 538.25-57.49-46.39 25.7-35.04 31.79 81.43"/><path fill="#007a3d" d="M261.43 534.21c18.98-14.1 37.95-27.52 57.49-40.78l-25.7-37.61-31.79 78.39"/><path fill="#007a3d" d="m261.43 534.21 21.96-68.92c13.72 4.96 27.45 10.23 41.59 15.95-20.97 16.78-41.94 34.16-63.55 52.97M696.8 450.79l-21.96 67.9c13.73 5.55 27.45 10.84 41.59 15.96l-19.63-83.86"/><path fill="#007a3d" d="m696.8 450.79 21.96 70.07c-13.73 4.22-27.45 8.11-41.59 11.84l19.63-81.91"/><path fill="#007a3d" d="M764.39 501.77c-23.46.79-46.9.43-71.07-.85v44.8c23.45-13.54 46.9-27.9 71.07-43.95"/><path fill="#007a3d" d="M764.39 501.77c-18.98 14.76-37.95 28.77-57.49 42.57l-25.71-37.6c27.46-.36 54.91-1.8 83.2-4.97"/><path fill="#007a3d" d="m629.21 495.56 57.49 47.77 25.71-35.04c-27.45-3.07-54.91-7.41-83.2-12.73"/><path fill="#007a3d" d="M629.21 495.56c23.45 2.57 46.9 4.57 71.07 5.71v44.8c-23.45-15.88-46.9-32.63-71.07-50.51"/><path fill="#007a3d" d="m738.57 583.58-21.96-69.55c-13.73 4.18-27.45 8.04-41.59 11.74 20.97 19.78 41.95 38.96 63.55 57.81"/><path fill="#007a3d" d="M738.57 583.58c-18.97-14.14-37.94-28.96-57.49-44.8l25.7-34.88 31.79 79.68"/><path fill="#007a3d" d="M655.03 579.54c18.97-12.43 37.94-25.29 57.49-39.19l-25.7-37.45-31.79 76.64"/><path fill="#007a3d" d="m655.03 579.54 21.96-67.48c13.73 5.52 27.45 10.79 41.59 15.87-20.98 17.73-41.95 34.71-63.55 51.61"/><path fill="#1A1A1A" opacity=".2" d="M8 195.25c170.83-85.22 341.03-54.42 513.26-27.97 155.21 23.84 312.16 44.57 470.74-34.53v672c-170.83 85.22-341.03 54.42-513.26 27.97C323.53 808.88 166.58 788.15 8 867.25v-672m31.25 19.39v604.5c306.56-128.26 611.18 96.04 921.5-33.78v-604.5c-306.56 128.26-611.18-96.04-921.5 33.78"/></svg>