<svg xmlns="http://www.w3.org/2000/svg" viewBox="0 0 128 128" style="enable-background:new 0 0 128 128" xml:space="preserve"><path style="fill:#427687" d="M116 4H12c-4.42 0-8 3.58-8 8v104c0 4.42 3.58 8 8 8h104c4.42 0 8-3.58 8-8V12c0-4.42-3.58-8-8-8z"/><path style="fill:#8cafbf" d="M121.7 6.3A8.403 8.403 0 0 0 116 4H12c-4.42 0-8 3.58-8 8v104c.02 2.12.84 4.16 2.3 5.7l16.8-16.8h76A5.91 5.91 0 0 0 105 99V23l16.7-16.7z"/><path style="opacity:.5;fill:#b4e1ed;enable-background:new" d="M39.7 12.9c0-2.3-1.6-3-10.8-2.7-7.7.3-11.5 1.2-13.8 4s-2.9 8.5-3 15.3c0 4.8 0 9.3 2.5 9.3 3.4 0 3.4-7.9 6.2-12.3 5.4-8.7 18.9-10.6 18.9-13.6z"/><path style="fill:#fafafa" d="m51.4 67.7-20.3-5.9a1.724 1.724 0 0 1-1.26-2.09l.06-.21 3.3-10c.3-.94 1.3-1.46 2.23-1.16.06.02.11.04.17.06l20 7.7c.95.37 2.01-.11 2.38-1.05.09-.24.13-.49.12-.75l-1-23.1c-.04-1 .73-1.85 1.74-1.9H69.6c.97-.03 1.78.74 1.81 1.71 0 .06 0 .12-.01.19l-1 23.6c-.05 1.02.74 1.88 1.75 1.92.25.01.51-.03.75-.12L92.5 49c.95-.36 2 .12 2.36 1.07.02.04.03.09.04.13l3.2 10.2c.28.98-.28 2.01-1.26 2.29-.01 0-.02.01-.04.01l-20.7 5.9a1.991 1.991 0 0 0-1.15 2.58c.04.11.09.22.15.32l13.5 17.9c.59.83.41 1.98-.4 2.6l-8.6 6.3c-.87.61-2.08.39-2.69-.48 0-.01-.01-.01-.01-.02L65 78.7a1.821 1.821 0 0 0-3.1 0L50.1 97.2a1.83 1.83 0 0 1-2.53.55c-.02-.02-.05-.03-.07-.05l-8.7-6.1a1.733 1.733 0 0 1-.4-2.6l14-18.4c.57-.95.26-2.18-.68-2.75-.1-.06-.21-.11-.32-.15z"/></svg>