<svg xmlns="http://www.w3.org/2000/svg" viewBox="0 0 128 128" style="enable-background:new 0 0 128 128" xml:space="preserve"><radialGradient id="a" cx="63.6" cy="2931.01" r="56.96" gradientTransform="translate(0 -2868.11)" gradientUnits="userSpaceOnUse"><stop offset=".5" style="stop-color:#fde030"/><stop offset=".919" style="stop-color:#f7c02b"/><stop offset="1" style="stop-color:#f4a223"/></radialGradient><path style="fill:url(#a)" d="M63.6 118.8c-27.9 0-58-17.5-58-55.9S35.7 7 63.6 7c15.5 0 29.8 5.1 40.4 14.4 11.5 10.2 17.6 24.6 17.6 41.5s-6.1 31.2-17.6 41.4c-10.6 9.3-25 14.5-40.4 14.5z"/><path style="fill:#eb8f00" d="M111.49 29.67c5.33 8.6 8.11 18.84 8.11 30.23 0 16.9-6.1 31.2-17.6 41.4-10.6 9.3-25 14.5-40.4 14.5-18.06 0-37.04-7.35-48.18-22.94 10.76 17.66 30.99 25.94 50.18 25.94 15.4 0 29.8-5.2 40.4-14.5 11.5-10.2 17.6-24.5 17.6-41.4 0-12.74-3.47-24.06-10.11-33.23z"/><path style="fill:#eee" d="M28.19 91.17c-7.35 3.63-13.9 3.06-13.9 3.06 2.05 3.76 4.08 5.57 6.09 7.56 0 0 3.71.33 8.23-1.64s6.93-12.61-.42-8.98zm.31-21.95c-13.75-.93-22.82-9.4-22.82-9.4-.46 4.97.23 9.7.23 9.7s6.51 8.11 22.33 9c12.05.68 11.74-8.52.26-9.3zm70.43 21.95c7.35 3.63 13.9 3.06 13.9 3.06-2.05 3.76-4.08 5.57-6.09 7.56 0 0-3.71.33-8.23-1.64-4.52-1.98-6.93-12.61.42-8.98zm-.31-21.95c13.75-.93 22.82-9.4 22.82-9.4.46 4.97-.23 9.7-.23 9.7s-6.51 8.11-22.33 9c-12.05.68-11.75-8.52-.26-9.3z"/><path style="fill:#f5f5f5" d="M100.98 96.87V79.19l-.01-8.55c-.07-1.74-1.16-2.32-3.39-3.13-5-1.82-20.14-6.33-33.58-6.34h-.02c-13.44 0-28.59 4.52-33.58 6.34-2.23.81-3.31 1.39-3.39 3.13L27 79.19v17.68c0 .55-.16 3.3 3.16 4.9 3.69 1.78 18.76 7.35 33.83 7.35s30.15-5.57 33.83-7.35c3.32-1.6 3.16-4.35 3.16-4.9z"/><path style="fill:gray" d="M30.4 67.5c-.76.13-1.44.49-1.88.98-.42.51-.65 1.11-.69 1.77-.06.63.01 1.4.05 2.14l.13 2.26c.2 3.02.31 6.06.35 9.1.03 3.04-.01 6.08-.2 9.13-.05.77-.08 1.51-.16 2.31-.09.76-.16 1.47-.16 2.18-.02 1.41.2 2.88 1.43 3.89-.76-.19-1.46-.74-1.93-1.43s-.76-1.49-.96-2.29c-.19-.8-.27-1.61-.35-2.37-.09-.73-.14-1.5-.22-2.26-.29-3.04-.43-6.08-.46-9.13-.03-3.05.04-6.1.32-9.16.15-1.55.25-3.02.73-4.7.29-.82.84-1.63 1.6-2.08a3.18 3.18 0 0 1 2.4-.34zm67 0c.75-.2 1.62-.11 2.39.33.76.45 1.31 1.26 1.6 2.08.48 1.68.58 3.15.73 4.7.28 3.06.35 6.11.32 9.16s-.17 6.09-.46 9.13c-.07.75-.13 1.53-.22 2.26-.08.76-.16 1.58-.35 2.37-.2.79-.49 1.59-.96 2.29-.47.69-1.17 1.24-1.93 1.43 1.23-1.01 1.45-2.48 1.43-3.89 0-.72-.07-1.42-.16-2.18-.08-.79-.11-1.54-.16-2.31-.19-3.05-.23-6.09-.2-9.13.04-3.04.15-6.07.35-9.1l.13-2.26c.04-.74.11-1.51.05-2.14-.04-.66-.26-1.26-.69-1.77-.43-.48-1.1-.84-1.87-.97z"/><path style="fill:#422b0d" d="M44.67 41.94c-4.19 0-8 3.54-8 9.42s3.81 9.42 8 9.42c4.19 0 8-3.54 8-9.42s-3.81-9.42-8-9.42z"/><path style="fill:#896024" d="M44.28 45.87c-1.03-.72-2.58-.49-3.58.95-1 1.45-.67 2.97.36 3.69 1.03.72 2.58.49 3.58-.95 1-1.45.67-2.97-.36-3.69z"/><path style="fill:#422b0d" d="M83.02 41.94c-4.19 0-8 3.54-8 9.42s3.81 9.42 8 9.42c4.19 0 8-3.54 8-9.42s-3.81-9.42-8-9.42z"/><path style="fill:#896024" d="M82.63 45.87c-1.03-.72-2.58-.49-3.58.95-1 1.45-.67 2.97.36 3.69 1.03.72 2.58.49 3.58-.95 1.01-1.45.68-2.97-.36-3.69z"/></svg>