<svg xmlns="http://www.w3.org/2000/svg" viewBox="0 0 128 128" style="enable-background:new 0 0 128 128" xml:space="preserve"><path style="fill:#fe6a1f" d="M99.73 65.37c1.38 1.78 3.08 5.61 4.66 11.35S108.45 88.1 112.8 88c4.35-.1 3.96-3.45 4.66-4.78.44-.83 1.17-2.83 5.33-.56 4.15 2.27 2.55 4.3 1.83 5.97-.78 1.81-4.19 8.01-12.26 7.78-7.47-.22-10.53-3.91-13.4-9.45-2.87-5.54.77-21.59.77-21.59z"/><path style="fill:#323130" d="M102.15 91.93s1.89-.48 3.86-2.3c1.68-1.55 3.08-3.23 3.08-3.23s-1-1.19-1.78-2.45c-1.15-1.87-1.67-3.38-1.67-3.38l-7.42 5.19s1.19 1.94 1.82 3.19c.84 1.72 2.11 2.98 2.11 2.98z"/><path style="fill:#fe6a1f" d="M21.31 40.22s-.21-7.42 5.24-8.61c5.93-1.29 7.91 5.24 7.91 5.24L31.1 41.1l-9.79-.88zm49.16 51.04s2.7 7.13 2.97 9.79c.52 5.23-4.04 6.16-3.56 9.89.32 2.45 2.46 3.07 7.32 3.07 6.13 0 9.1-2.87 9.1-2.87l2.18-26.31-18.4 2.18.39 4.25zm-42.06-7.45s-2.81 7.07-5.64 10.61c-2.82 3.52-7.75 7.83-7.38 13.91.23 3.72 2.43 5.37 4.95 5.87 2.61.52 5.62-.18 7.01-3.44 1.38-3.26 1.38-5.74 1.38-5.74s6-6.5 7.88-8.48c1.88-1.98 5.38-5.07 5.38-5.07l-13.58-7.66z"/><path style="fill:#333132" d="M26.26 99.94c1.11-1.54-.31-3.02-1.26-3.86-1.26-1.11-2.34-1.56-2.34-1.56l-2.15 2.56s1.3.85 2.26 1.74c.81.75 2.52 2.46 3.49 1.12zm-2.01-7.64s1.63 1.11 2 1.48 1.97 1.48 2.63.74c.99-1.09-.17-2.67-.93-3.6-.65-.81-1.88-1.92-1.88-1.92l-1.82 3.3z"/><path style="fill:#bb5d42" d="M22.84 108.58c-1.63.89-2.37 2.56-1.78 4.01.54 1.33 3.12 2 5.42.04 1.17-1 1.48-3.3.78-4.04-.7-.74-2.63-.98-4.42-.01zm-3.89 2.08c-.97 0-2.34.69-1.89 2 .33.96 3.11 1.84 3.6.19.37-1.26-.97-2.19-1.71-2.19z"/><path style="fill:#ff9613" d="m26.95 79.79-5.34-2.97s-7.29.46-11.77-2.27c-4.19-2.56-7.02-6.13-7.62-10.09s-.51-7.81.19-9.1c.69-1.29 1.99-1.58 3.77-2.27s4.46-2.31 4.46-2.31.39-3.14 2.24-5.78c2.77-3.96 4.77-4.27 5.76-4.77.99-.49 10.78-.99 10.78-.99l2.37-.2 2.97-5.14s3.86-2.77 8.51-.49 4.85 7.91 4.55 9.89c-.3 1.98-.99 3.56-.89 4.25.05.35 2.1 2.08 3.96 3.96 1.82 1.83 3.13 3.4 3.89 3.86.77.46 10.25-1.14 21.44-.3 11.31.85 18.73 3 22.89 8.94 4.15 5.93 4.2 12.43 3.02 19.35s-4.95 13.85-5.34 14.94c-.4 1.09-.4 8.8-.4 10.78 0 1.98.72 10.39-5.74 10.5-3.68.06-7.23.66-8.72-2.41-1.48-3.07-.26-6.75-.26-6.75l2.94-3.21-.4-5.64-5.93-5.74-1.09-4.35-11.37.49s-9.3 1.48-9.89 2.18-2.08 10.19-2.57 15.03c-.49 4.85-2.74 9.52-4.33 10.21-1.58.69-4.64 1.82-8.79.89-3.79-.85-4.53-4.49-2.26-7.46 1.45-1.91 2.86-2.6 2.86-2.6s-.26-5.49-.41-10.46c-.11-3.64-.05-7.07-.3-7.53-.59-1.09-8.33-11.15-8.33-11.15l-4.85-1.29z"/><path style="fill:#323130" d="M110.94 87.66s-.11 3.2-.45 4.56c-.59 2.41-1.52 3.82-1.52 3.82s2.08.6 4.97.45c2.71-.15 4.55-1.32 4.55-1.32s-1.36-3.09-1.73-4.06c-.37-.96-1.52-3.75-1.52-3.75s-.63.37-1.93.56a4.9 4.9 0 0 1-2.37-.26zm5.75-1.96s2.08.59 3.86 1.41c1.78.82 3.86 2.08 3.86 2.08s2-4.01 2.37-6.82c.26-2.01-.42-4.59-2.45-5.34-2.6-.96-5.19.89-6.16 3.86s-1.48 4.81-1.48 4.81z"/><path style="fill:#fd6a1f" d="M43.69 44.97s2.45-5.64-1.11-7.57c-3.56-1.93-5.64 3.41-5.64 3.41a117.283 117.283 0 0 0 6.75 4.16z"/><path style="fill:#fff" d="M11.05 52.84s-4.04 1.11-6.12 2.49c-1.24.82-1.5 2.44-1.56 4.23-.19 6.08 3.49 12.31 9.16 14.21 6.65 2.22 10.39.59 10.39.59s-2.74-4.23-4.3-6.08-2.89-3.12-3.41-4.08-1.11-5.3-1.93-7.23c-.82-1.95-2.23-4.13-2.23-4.13z"/><path style="fill:#323332" d="M10.16 58.7S4 60.7 4 60.93c0 .22-.07 3.19.37 3.56.45.37 1.63 1.04 2.67 1.19 1.04.15 2.3.07 2.89.59.33.28.59 2.3-2.37 2.97s-5.42-2.52-6.08-4.75c-.67-2.23-.67-6.97 1.04-9.27 1.2-1.64 6.23 1.25 7.64 3.48z"/><path style="fill:#fe6a1f" d="M43.5 114.3c-1.13-.12-1.77.56-1.87 3.08-.09 2.23.7 3.17 1.64 3.3 1.49.22.69-1.93.74-2.82.1-1.49 1.24-3.38-.51-3.56zm-4.89-.56c-.7-.41-2 .11-2.02 2.94-.01 2.29 1.52 3.45 2.53 3.18.56-.15-.25-2.17-.48-2.93-.39-1.27 1.38-2.37-.03-3.19z"/><path style="fill:#bb5d42" d="M46.73 119.86c-.19.78 4.5-.11 6.08-3.82s2.37-11.97 2.72-15.13c.35-3.17 1.24-5.89 1.58-6.08.35-.2 3.87-.99 9.46-1.63 4.92-.57 9.24-.89 9.24-.89s.25 2.92 2.72 5.44 4.85 4.35 5.04 4.7c.2.35.27 4.39-.05 5.24-.07.2-3.9 3.02-3.78 6.84.1 3.36 3.02 4.83 4.75 5.03 1.73.2 2.46.14 1.37-.51-1.09-.64-3.97-1.08-3.93-4.67.05-4.71 3.57-5.85 3.72-6.74.15-.89-.15-6.08-.3-6.43-.15-.35-3.75-3.55-4.95-5.04-2.11-2.63-1.53-5.44-1.98-5.84-.45-.4-8.15-.06-12.12.4-2.8.32-10.09 1.21-11.62 2.97-.49.56-1.7 11.88-1.88 13.3-.3 2.34-.38 6.16-1.93 8.75-1.3 2.2-3.89 3.07-4.14 4.11z"/><path style="fill:#fe6a1f" d="M84.71 116.71c.05 2.03.73 3.19 2.21 3.09 1.48-.1.18-2.23.1-2.92-.15-1.29 1.07-3.05.15-3.26-1.48-.35-2.5 1.31-2.46 3.09z"/><path style="fill:#313130" d="M22.65 53.99c.17 1.89-.54 3.62-2.05 3.92-1.51.31-3.04-.39-3.44-2.88-.38-2.35.72-3.63 2.23-3.93s3.06.68 3.26 2.89z"/><path style="fill:#33312f" d="M22.92 47.2c1.93-.26 1.56-2.27 1.26-3.66s-.79-2.32-.79-2.32 1.64-.28 2.46.07c.33.14.63.45.95.82 1.78 2.03 1.1 5.6 2.83 5.8 1.73.2 1.77-2.49 1.67-4.17-.1-1.68-.35-2.52-.1-2.97.25-.45 1.52-.13 1.63-.45.32-.95 1.04-3.46 2.18-4.75 1.14-1.29 2.96-2.58 5.12-2.55 1.51.02 3.23.48 2.89.22-1.03-.8-6.08-2.6-9.5-.1-2.88 2.11-3.36 4.99-3.36 4.99s-2.05-.15-5.54.11c-2.59.19-4.89 1.02-6.14 1.63-2.47 1.2-3.65 2.67-3.65 2.67s1.94-.86 2.56-1.04c1.52-.45 2.44.27 3.23 2.15.47 1.15.82 3.75 2.3 3.55zm6.59 5.15c-.89-.07-.91 1.31-1.03 2.71-.2 2.37-.27 4.79-.45 5.08-.3.49-1.89 2.65-2.78 3.63-.45.49-1.96 1.87-1.53 2.57.94 1.53 6.92-2.32 7.47-5.69.5-3.08.3-8.15-1.68-8.3z"/><path style="fill:#33312f" d="M33.23 63.44c-.15.45-1.98 2.31-4.08 3.75-2.18 1.48-4.36 2.16-3.68 3.15.84 1.24 4.4.05 6.33-.84 1.55-.72 4.3-2.9 4.9-4.45.49-1.29.25-5.64-.49-8.06-.74-2.42-1.89-5.14-2.82-4.23-.53.52-.03 2.37.11 4.9.14 2.67-.16 5.44-.27 5.78z"/><path style="fill:#333132" d="M40.61 104.35s2.57-.73 4.15-.63c1.58.1 5.04.45 5.64.15.97-.49-2.49-3.21-5.55-3.51s-4.46.06-4.46.06l.22 3.93zm-.26-7.97s.8-.9 3.82-.85c3.02.05 6.32.48 6.22-.56-.1-1.04-4.59-3.15-6.53-3.26-1.19-.07-3.88.3-3.88.3l.37 4.37z"/><path style="fill:#fdedcc" d="M27.84 78.5s3.39-3.52 5.24-5.04c2.77-2.27 7.12-5.93 7.22-11.57.1-5.64-2.57-10.29-3.07-11.18-.49-.89-1.98-3.86-.3-5.04 1.68-1.19 3.84-.89 7.52 3.07 3.86 4.15 8.11 12.17 8.11 12.17s-2.27 6.33-7.12 9.99c-1.78 1.34-3.68 1.91-4.99 2.97-2.26 1.83-3.15 4.36-3.41 6.87-.79 7.52 1.69 7.46 2.65 9.38.68 1.38.83 5.17.67 5.3-.84.71-3.71-2.37-4.2-2.87-.49-.49-2.08-2.18-2.08-2.18s-.1 1.78-.79 1.78c-.94 0-3.46-2.57-4.75-5.24s-2.77-5.14-4.15-7.12c-.6-.86-2.94-2.92-2.94-2.92s.87-.94 2.55-.64c1.66.29 3.84 2.27 3.84 2.27z"/><path style="fill:#33312f" d="M42.23 54.47c-1.5.77.75 8.27-.35 11.08-.55 1.4-2.37 4.9-1.09 5.64 1.29.74 5.29-3.17 5.84-5.59s-2.47-12.12-4.4-11.13zm-.99 28.04c0 2.18 7.16 1.93 7.16 1.93s4.52 4.01 5.5 3.31c1.19-.84.74-2.03-.2-3.51-1.48-2.33-2.37-3.66-4.01-4.35-1.48-.63-4.4.22-5.93.59-1.92.47-2.52 1.32-2.52 2.03zm9.6-14.99c-.89 1.09.31 2.07 1.43 3.81 1.06 1.64 3.39 4.75 3.39 4.75s-.32 7.02.57 7.66c1.04.74 2.37-1.38 3.02-3.17s.69-4.06.54-5.44c-.15-1.38-1.09-3.61-4.46-6.02-2.58-1.83-4.05-2.13-4.49-1.59zm4.69-12.11s2.03 3.12 3.12 6.08c1.09 2.97 2.16 6.19 2.55 8.56.21 1.27.87 4.01 1.85 4.15.99.15 1.68-2.64 1.97-5.75.3-3.23-.09-7.85-.63-9.93s-1.19-3.65-1.19-3.65-1.81-.03-4.01.09c-1.92.1-3.66.45-3.66.45zm13.9-.65s1.08 4.08 1.3 9.9c.15 3.81.63 10.42 1.78 10.42 1.48 0 2.82-5.03 3.41-10.72s.45-9.35.45-9.35-1.8-.2-3.38-.26c-1.96-.06-3.56.01-3.56.01zm13.13 20.4c2 .26 3.89-5.61 4.78-9.27s1.47-8.75 1.47-8.75-1.58-.45-3.21-.82c-1.88-.43-3.56-.63-3.56-.63s.33 3.41.25 8.96c-.05 2.97-.95 10.36.27 10.51zm11.72-15.65s-.67 7.41-1.11 8.94c-.45 1.53-4.27 7.01-3.49 7.9 1.02 1.17 6.05-2.93 7.53-6.19s1.72-6.52 1.72-6.52-.57-1.09-2.24-2.46c-1.3-1.07-2.41-1.67-2.41-1.67zm-37.2 35.35s4.54-6.47 5.63-9.33c1.09-2.87 3.02-7.58 4.7-8.01 1.73-.45 1.23 4.11.15 7.67-1.04 3.41-2.87 8.21-2.87 8.21s-1.86.3-3.45.54c-3.26.49-4.16.92-4.16.92zm12.31-2s3.39-6.45 4.3-9.09c.57-1.64 1.77-6.21 3.3-6.16s1.43 3.86.99 6.18c-.45 2.32-2.18 8.51-2.18 8.51s-1.36.11-2.82.26c-1.2.12-3.59.3-3.59.3zm11.32-3.61c.25.83 7.03.42 9.27-1.06 4.27-2.83 6.45-10.41 4.97-10.31-1.48.1-5.98 5.14-7.57 6.18-1.58 1.03-7.17 3.55-6.67 5.19zM77 95.64s6.34 1.08 10.09.19c3.34-.79 6.23-4.49 7.27-3.89 1.04.59-.3 5.64-5.04 7.27-4.59 1.58-8.16.89-8.16.89s-1.6-1.15-2.37-2.08C77.59 96.6 77 95.64 77 95.64z"/></svg>