<svg xmlns="http://www.w3.org/2000/svg" viewBox="0 0 128 128" style="enable-background:new 0 0 128 128" xml:space="preserve"><path style="fill:#df9047" d="m63.29 84.78-10.04 1.03s1.13 13.98.94 15.02c-.19 1.03-2.72 9.76-3 10.32s-4.21 3.91-3.47 6.01c.59 1.67 3.19 2.16 5.91 2.25 2.63.09 5.44-.84 5.91-1.78.47-.94.69-3.55.69-3.55s3.72-8.74 4-12.21c.28-3.48-.94-17.09-.94-17.09zm24.87 2.82s2.06 11.45 1.78 12.86c-.28 1.41-2.53 9.1-2.53 9.1s-2.98 2.85-2.12 5.36c.65 1.89 4.11 1.78 6.26 1.83 2.96.07 4.72-.92 5.46-2.29.61-1.12.26-3.5.26-3.5s2.53-9.48 2.63-11.45c.09-1.97-2.82-17.46-2.82-17.46l-8.92 5.55z"/><path style="fill:#d27856" d="M43.12 31.86s9.09 2.52 9.75 3.46c.66.94 1.13 8.73-.94 10.98-2.06 2.25-5.29 2.45-5.29 2.45l-10.66 8.81 16.99 19.52 16.14 9.76S67.04 97.4 55.03 97.91c-8.82.38-12.39-4.04-12.39-4.04s-9.29.28-13.61-4.13c-4.93-5.04-4.79-12.11-4.79-12.11s-5.89-2.05-7.32-8.07c-2.82-11.83 4.88-17.64 4.97-18.11.09-.47-2.16-3.19-2.16-7.41 0-3.52.56-6.95.56-6.95l22.83-5.23z"/><path style="fill:#e09147" d="m18.1 36.4-6.69 6.12s2.5.53 5.56-.18c.87-.2 2.25-.95 2.25-.95s2.75 1.9 4.5 2.82 4.22 1.97 4.22 1.97-.49 6.34-.42 7.6 9.15 6.26 9.15 6.26l6.69-1.76 5.03-7.92s-.04-5.88.81-7.43c.84-1.55 3.94-5.56 4.86-9.78.92-4.22.49-6.55.49-6.55s4.05-2.64 4.47-5.31-.35-3.94-.35-3.94l-15.24 7.71L18.1 36.4z"/><path style="fill:#f6b03e" d="M35.34 15.14s-11.47 3.45-12.95 4.29c-1.48.84-2.46 1.55-4.29 1.62-1.83.07-9.64.77-12.18 6.9S3.85 40.52 8.1 42.24c4.86 1.97 11.12-2.46 11.12-2.46s8.45 4.43 13.51 5.56c5.07 1.13 7.77.9 8.87.7 1.97-.35 6.98-4.26 8.45-8.59 1.62-4.79 1.69-12.67 1.69-12.67s10.03-3.98 6.12-9.15c-3-3.98-15.27 4.22-15.27 4.22l-7.25-4.71z"/><path style="fill:#f6b03e" d="M37.67 54.91c5 .07 10.77-6.05 10.77-6.05s-.07 6.69 1.76 8.94c2.39 2.94 7.39 1.13 7.39 1.13s-.14-4.58 2.18-7.95c2.32-3.38 4.15-4.15 4.15-4.15s-.56-10.63.28-13.16c.84-2.53 13.16-10.56 13.16-10.56l11.68 5.14 9.78-5.84s8.17 5.49 8.94 8.8.7 5.35 1.2 8.87c.23 1.62.35 6.34.35 6.34s5.49 3.31 7.53 8.73 3.01 12.83 3.31 15.91c.35 3.59.99 8.87 1.69 10.28.7 1.41 3.1 4.08 1.62 5.14s-4.43-1.83-5.7-4.22-3.73-10.21-3.73-10.21.42 5.07-.63 9.36c-.45 1.84-1.48 5.63-1.48 5.63s3.03 10.63 2.96 12.81c-.07 2.18-2.96 12.74-2.96 12.74s.7 3.66-.99 5.56c-1.18 1.32-2.75 1.69-7.25 1.83-2.89.09-5.72-.56-5.56-3.1.18-2.78 3.94-6.41 4.15-6.48.21-.07 2.39-9.08 2.39-10.35 0-1.27-4.5-13.66-4.5-13.66s-4.15 2.67-10.49 3.1c-6.34.42-10.35.42-10.35.42s.63 9.5.42 12.18c-.21 2.67-1.76 6.55-2.18 9.43-.42 2.89-.52 9.01-3.48 9.5-2.11.35-9.85.95-11.54-.99-1.99-2.28 3.17-6.58 3.17-6.58s1.44-5 2.08-7.18c.58-2.01.84-3.98.99-5.46s-1.69-12.6-1.69-12.6-4.01.14-11.4 0-17.25-2.82-23.51-13.59-4.58-22.38-4.58-22.38 3.45 2.58 10.07 2.67z"/><path style="fill:#b78958" d="m8.1 37.2.09-3.75s6.66-.66 5.68-3.43c-.81-2.27-6.48.42-6.48.42s-.47-4.46-1.97-2.67c-1.5 1.78.42 4.04.42 4.04l-.09 4.32s-.89-2.25-1.74-1.08.33 3.24 2.21 4.6c1.62 1.18 3.38 1.88 5.73 1.55 2.5-.35 4.73-2.72 3.19-3.71-1.54-.99-2.02 1.31-4.55.89-2.67-.45-2.49-1.18-2.49-1.18z"/><path style="fill:#34302f" d="M41.52 26.03c.78.9-1.98 4.46-5.77 3.24-3.39-1.09-4.74-3-4.32-3.99.42-.99 4.79.09 5.73.19.93.09 3.75-.14 4.36.56z"/><path style="fill:#34302f" d="M32.63 27.07s-.67.6-1.48.74c-.81.14-2.22.21-2.11 1.13.11.92 1.44 1.34 3.41.39 1.39-.67 2.25-1.65 2.25-1.65l.49.46s-1.11 1.42-1.69 1.72c-.95.49-2.39.58-1.97 1.76.49 1.37 2.53.21 3.52-.56 1.24-.97 1.72-2.29 1.72-2.29l.84.11s-.39 1.09-.77 1.62c-.39.53-2.18 1.65-.92 2.75 1.13.97 2.5-1.06 3.06-2.22.56-1.16.77-3.17.77-3.17l-7.12-.79z"/><path style="fill:#d27856" d="M51.53 15.28c-.04-.11-4.15-8.96-17.53-8.17-10.82.65-15.1 5.92-12.66 11.45 2.1 4.75 6.93 2.92 6.93 2.92s-.83 4.36 4.65 5.6c6.41 1.44 11.33-6.56 13.01-7.24 3.14-1.28 5.6-4.56 5.6-4.56z"/><path style="fill:#df9047" d="M75.61 12.12c-10.49.35-11.76 22.52-11.62 23.08.08.31 1.18-.75 2.25-1.97.87-.99 1.56-2.22 2.89-1.9 2.96.7 1.75 6.77 5.35 7.46 3.31.63 2.82-6.26 5.35-6.12 3.8.21 1.69 10.7 7.39 10.42 4.51-.22 1.48-9.57 4.93-10.42 3.37-.82 4.68 6.86 7.53 5.91 3.8-1.27.28-8.31 2.89-9.36 2.6-1.06 3.45 6.12 5.63 5 .62-.32-2.11-22.11-12.39-21.82-7.46.21-9.71 12.1-9.71 12.1s-2.46-12.65-10.49-12.38z"/></svg>