<svg xmlns="http://www.w3.org/2000/svg" viewBox="0 0 128 128" style="enable-background:new 0 0 128 128" xml:space="preserve"><path style="fill:#82aec0" d="m82.92 85.78 24.6-28.53-2.84-7.27c-3.17 1.75-10.05 5.55-11.09 6.07-.28.14-.5.35-.65.62 0 0-9.22 18.29-10.72 21.26-1.63 3.22-1.79 4.58-1.56 5.61.22.91 2.26 2.24 2.26 2.24z"/><path style="fill:#de3e31" d="M121.92 36.82c-4.33-2.52-10.18-.54-13.06 4.42-1.15 1.98-1.41 4.38-1.49 5.28-.11 1.24-2.21 2.85-2.87 3.32a.31.31 0 0 0-.1.36l3.07 6.86c.08.18.3.23.46.11l.82-.63c2.22-1.38 4.12-1.09 4.85-.91 3.97.98 8.52-1.08 10.95-5.27 2.87-4.96 1.7-11.02-2.63-13.54zm-8.36 14.37c-2.6-1.51-3.3-5.15-1.57-8.12 1.73-2.98 5.24-4.16 7.84-2.65 2.6 1.51 3.3 5.15 1.57 8.12-1.73 2.97-5.24 4.16-7.84 2.65z"/><circle style="fill:#b9e4ea" cx="97.78" cy="59.97" r="2.03"/><circle style="fill:#b9e4ea" cx="97.78" cy="59.97" r="2.03"/><path style="fill:#2f7889" d="m99.56 52.73 1.09-.52 4.87 7.37-1.31 1.51-1.85 2.15zm-7.51 5.73-1.73 3.44 1.11 9.29 2.23 2.24z"/><path style="fill:#543930" d="M87.63 55.73c0-10.47-1.68-20.87-6.04-30.27-12.98-27.96-55.93-28.5-70.97-.84C.15 43.9 6.05 74.31 19.16 91.83c3.05 4.08 17.86 31.84 63.71 31.84 31.16 0 37.6-39.92 14.45-49.55-8.78-3.34-9.69-6.2-9.69-18.39z"/><radialGradient id="a" cx="70.517" cy="37.538" r="42.9" gradientTransform="matrix(1 0 0 -.8639 0 125.052)" gradientUnits="userSpaceOnUse"><stop offset=".794" style="stop-color:#444140;stop-opacity:0"/><stop offset="1" style="stop-color:#444140"/></radialGradient><path style="fill:url(#a)" d="M82.88 123.67c-25.85 0-41.84-8.83-51.41-17.26L88.06 64.4c.82 5.27 3.11 7.38 9.27 9.72 23.14 9.63 16.71 49.55-14.45 49.55z"/><linearGradient id="b" gradientUnits="userSpaceOnUse" x1="51.565" y1="34.203" x2="51.565" y2="6.432" gradientTransform="matrix(1 0 0 -1 0 130)"><stop offset="0" style="stop-color:#651fff"/><stop offset=".705" style="stop-color:#5914f2"/><stop offset="1" style="stop-color:#530eeb"/></linearGradient><path style="fill:url(#b)" d="M99.13 121.06V124H4v-18.08c5.09-3.53 12.01-6.05 19.75-7.66 6.82-1.43 14.3-2.15 21.73-2.25.55-.01 1.1-.01 1.65-.01h.14c25.6 0 51.86 8.3 51.86 25.06z"/><path style="fill:#e59600" d="M56.22 90.08v9.98c0 4.51-3.72 8.17-9.09 8.17-5.36 0-9.08-3.66-9.08-8.17v-9.98h18.17z"/><path style="fill:#70534a" d="M80.38 55.95c0 6.12-1.07 11.55-2.86 16.27-4.39 11.57-13.15 18.94-21.3 22.17-.38.14-.75.28-1.12.41-2.78.98-5.47 1.47-7.85 1.47-.94 0-1.93-.08-2.95-.23a27.274 27.274 0 0 1-6.25-1.76c-11.41-4.61-23.93-17.34-23.93-38.33 0-27.12 15.93-39.91 33.13-39.91s33.13 12.79 33.13 39.91z"/><path style="fill:#1a1717" d="M55.67 76.14c-3.19 1.89-13.63 1.89-16.81 0-1.83-1.09-3.7.58-2.94 2.24.75 1.63 6.44 5.42 11.37 5.42s10.55-3.79 11.3-5.42c.75-1.66-1.09-3.33-2.92-2.24z"/><path style="fill:#33251f" d="M51.11 68.06c-.11-.04-.21-.07-.32-.08h-7.08c-.11.01-.22.04-.32.08-.64.26-.99.92-.69 1.63.3.71 1.71 2.69 4.55 2.69s4.25-1.99 4.55-2.69c.3-.71-.05-1.37-.69-1.63z"/><ellipse style="fill:#1a1717" cx="30.81" cy="58.81" rx="4.93" ry="5.1"/><ellipse style="fill:#1a1717" cx="63.69" cy="58.81" rx="4.93" ry="5.1"/><path style="fill:#1a1717" d="M38.24 49.82c-.93-1.23-3.07-3.01-7.23-3.01s-6.31 1.79-7.23 3.01c-.41.54-.31 1.17-.02 1.55.26.35 1.04.68 1.9.39.86-.29 2.54-1.16 5.35-1.18 2.81.02 4.49.89 5.35 1.18.86.29 1.64-.03 1.9-.39.28-.38.38-1.01-.02-1.55zm32.49 0c-.93-1.23-3.07-3.01-7.23-3.01s-6.31 1.79-7.23 3.01c-.41.54-.31 1.17-.02 1.55.26.35 1.04.68 1.9.39s2.54-1.16 5.35-1.18c2.81.02 4.49.89 5.35 1.18.86.29 1.64-.03 1.9-.39.29-.38.39-1.01-.02-1.55z"/><path style="fill:#543930" d="m77.35 72.67-.65-12.05c.06-3.83.48-12.84-2.55-15.03-3.7-2.66-13.99-9.67-17.28-16.86 0 0-12.65 11.86-35.01 16.89-6.09 1.37-5.15 12.18-5.15 15.09 0 5.56 1.06 11.26 2.24 15.89 1.51 5.89 3.22 10.07 3.22 10.07s-2.82-2.23-5.85-5.14c-3.54-6.94-6.1-14.96-7.3-23.08-1.84-12.46-.34-23.97 4.24-32.39C19.59 14.41 32.27 7.18 46.35 7.18c14.46 0 26.92 7.49 32.51 19.54 3.83 8.25 5.77 18.01 5.77 29.01 0 4.42.12 7.86.77 10.64l-8.05 6.3z"/><radialGradient id="c" cx="50.917" cy="74.287" r="53.265" gradientTransform="matrix(0 -1 -.8459 0 111.759 106.812)" gradientUnits="userSpaceOnUse"><stop offset=".841" style="stop-color:#444140;stop-opacity:0"/><stop offset="1" style="stop-color:#444140"/></radialGradient><path style="fill:url(#c)" d="M77.35 72.67c1.79-4.72 3.03-10.6 3.03-16.72 0-27.12-15.93-39.91-33.13-39.91S14.12 28.83 14.12 55.95c0 20.99 12.52 33.72 23.93 38.33v2.05c-4.92.34-9.76.98-14.3 1.93-2.4-3.05-3.84-5.44-4.58-6.43C6.05 74.31.16 43.9 10.63 24.62c15.03-27.66 57.99-27.12 70.96.84 4.36 9.4 6.04 19.8 6.04 30.27 0 3.63.08 6.43.43 8.67l-10.71 8.27z"/><path style="fill:#82aec0" d="m94.06 89.52-2.43-37.6 6.59-4.22c1.44 3.24 4.73 10.61 5.25 11.66.14.28.18.58.14.89 0 0-3.67 20.15-4.26 23.42-.65 3.55-1.33 4.73-2.14 5.42-.72.6-3.15.43-3.15.43z"/><path style="fill:#b9e4ea" d="m93.19 64.11-.85-1.19 1.72 26.6s2.32-.65 2.21-4.5l-1.33-15.78a9.284 9.284 0 0 0-1.75-5.13z"/><circle style="fill:#b9e4ea" cx="97.76" cy="59.97" r="2.03"/><path style="fill:#de3e31" d="M82.21 36.18c-.58 4.81 1.81 9.2 5.56 10.81.69.3 2.38 1.21 3.32 3.65l.27 1c.05.19.26.28.43.18l6.58-3.62c.12-.07.18-.21.14-.35-.24-.78-.94-3.32-.28-4.38.48-.77 1.72-2.84 1.99-5.11.69-5.7-2.79-10.8-7.76-11.4-4.98-.61-9.57 3.52-10.25 9.22zm3.6.43c.41-3.42 3.17-5.9 6.15-5.53 2.98.36 5.07 3.42 4.66 6.84-.41 3.42-3.17 5.9-6.15 5.53-2.99-.36-5.07-3.42-4.66-6.84z"/><path style="fill:#82aec0" d="m82.92 85.78 24.6-28.53-2.84-7.27c-3.17 1.75-10.05 5.55-11.09 6.07-.28.14-.5.35-.65.62 0 0-9.22 18.29-10.72 21.26-1.63 3.22-1.79 4.58-1.56 5.61.22.91 2.26 2.24 2.26 2.24z"/><path style="fill:#de3e31" d="M121.92 36.82c-4.33-2.52-10.18-.54-13.06 4.42-1.15 1.98-1.41 4.38-1.49 5.28-.11 1.24-2.21 2.85-2.87 3.32a.31.31 0 0 0-.1.36l3.07 6.86c.08.18.3.23.46.11l.82-.63c2.22-1.38 4.12-1.09 4.85-.91 3.97.98 8.52-1.08 10.95-5.27 2.87-4.96 1.7-11.02-2.63-13.54zm-8.36 14.37c-2.6-1.51-3.3-5.15-1.57-8.12 1.73-2.98 5.24-4.16 7.84-2.65 2.6 1.51 3.3 5.15 1.57 8.12-1.73 2.97-5.24 4.16-7.84 2.65z"/><circle style="fill:#b9e4ea" cx="97.78" cy="59.97" r="2.03"/><circle style="fill:#b9e4ea" cx="97.78" cy="59.97" r="2.03"/><path style="fill:#2f7889" d="m99.56 52.73 1.09-.52 4.87 7.37-1.31 1.51-1.85 2.15zm-7.51 5.73-1.73 3.44 1.11 9.29 2.23 2.24z"/><path style="fill:#232020" d="M87.63 55.73c0-10.47-1.68-20.87-6.04-30.27-12.98-27.96-55.93-28.5-70.97-.84C.15 43.9 6.05 74.31 19.16 91.83c3.05 4.08 17.86 31.84 63.71 31.84 31.16 0 37.6-39.92 14.45-49.55-8.78-3.34-9.69-6.2-9.69-18.39z"/><radialGradient id="d" cx="70.517" cy="37.538" r="42.9" gradientTransform="matrix(1 0 0 -.8639 0 125.052)" gradientUnits="userSpaceOnUse"><stop offset=".794" style="stop-color:#444140;stop-opacity:0"/><stop offset="1" style="stop-color:#444140"/></radialGradient><path style="fill:url(#d)" d="M82.88 123.67c-25.85 0-41.84-8.83-51.41-17.26L88.06 64.4c.82 5.27 3.11 7.38 9.27 9.72 23.14 9.63 16.71 49.55-14.45 49.55z"/><linearGradient id="e" gradientUnits="userSpaceOnUse" x1="51.565" y1="34.203" x2="51.565" y2="6.432" gradientTransform="matrix(1 0 0 -1 0 130)"><stop offset="0" style="stop-color:#651fff"/><stop offset=".705" style="stop-color:#5914f2"/><stop offset="1" style="stop-color:#530eeb"/></linearGradient><path style="fill:url(#e)" d="M99.13 121.06V124H4v-18.08c5.09-3.53 12.01-6.05 19.75-7.66 6.82-1.43 14.3-2.15 21.73-2.25.55-.01 1.1-.01 1.65-.01h.14c25.6 0 51.86 8.3 51.86 25.06z"/><path style="fill:#3c2b24" d="M56.22 90.08v9.98c0 4.51-3.72 8.17-9.09 8.17-5.36 0-9.08-3.66-9.08-8.17v-9.98h18.17z"/><path style="fill:#70534a" d="M80.38 55.95c0 6.12-1.07 11.55-2.86 16.27-4.39 11.57-13.15 18.94-21.3 22.17-.38.14-.75.28-1.12.41-2.78.98-5.47 1.47-7.85 1.47-.94 0-1.93-.08-2.95-.23a27.274 27.274 0 0 1-6.25-1.76c-11.41-4.61-23.93-17.34-23.93-38.33 0-27.12 15.93-39.91 33.13-39.91s33.13 12.79 33.13 39.91z"/><path style="fill:#1a1717" d="M55.67 76.14c-3.19 1.89-13.63 1.89-16.81 0-1.83-1.09-3.7.58-2.94 2.24.75 1.63 6.44 5.42 11.37 5.42s10.55-3.79 11.3-5.42c.75-1.66-1.09-3.33-2.92-2.24z"/><path style="fill:#33251f" d="M51.11 68.06c-.11-.04-.21-.07-.32-.08h-7.08c-.11.01-.22.04-.32.08-.64.26-.99.92-.69 1.63.3.71 1.71 2.69 4.55 2.69s4.25-1.99 4.55-2.69c.3-.71-.05-1.37-.69-1.63z"/><ellipse style="fill:#1a1717" cx="30.81" cy="58.81" rx="4.93" ry="5.1"/><ellipse style="fill:#1a1717" cx="63.69" cy="58.81" rx="4.93" ry="5.1"/><path style="fill:#1a1717" d="M38.24 49.82c-.93-1.23-3.07-3.01-7.23-3.01s-6.31 1.79-7.23 3.01c-.41.54-.31 1.17-.02 1.55.26.35 1.04.68 1.9.39.86-.29 2.54-1.16 5.35-1.18 2.81.02 4.49.89 5.35 1.18.86.29 1.64-.03 1.9-.39.28-.38.38-1.01-.02-1.55zm32.49 0c-.93-1.23-3.07-3.01-7.23-3.01s-6.31 1.79-7.23 3.01c-.41.54-.31 1.17-.02 1.55.26.35 1.04.68 1.9.39s2.54-1.16 5.35-1.18c2.81.02 4.49.89 5.35 1.18.86.29 1.64-.03 1.9-.39.29-.38.39-1.01-.02-1.55z"/><path style="fill:#232020" d="m77.35 72.67-.65-12.05c.06-3.83.48-12.84-2.55-15.03-3.7-2.66-13.99-9.67-17.28-16.86 0 0-12.65 11.86-35.01 16.89-6.09 1.37-5.15 12.18-5.15 15.09 0 5.56 1.06 11.26 2.24 15.89 1.51 5.89 3.22 10.07 3.22 10.07s-2.82-2.23-5.85-5.14c-3.54-6.94-6.1-14.96-7.3-23.08-1.84-12.46-.34-23.97 4.24-32.39C19.59 14.41 32.27 7.18 46.35 7.18c14.46 0 26.92 7.49 32.51 19.54 3.83 8.25 5.77 18.01 5.77 29.01 0 4.42.12 7.86.77 10.64l-8.05 6.3z"/><radialGradient id="f" cx="50.917" cy="74.287" r="53.265" gradientTransform="matrix(0 -1 -.8459 0 111.759 106.812)" gradientUnits="userSpaceOnUse"><stop offset=".841" style="stop-color:#444140;stop-opacity:0"/><stop offset="1" style="stop-color:#444140"/></radialGradient><path style="fill:url(#f)" d="M77.35 72.67c1.79-4.72 3.03-10.6 3.03-16.72 0-27.12-15.93-39.91-33.13-39.91S14.12 28.83 14.12 55.95c0 20.99 12.52 33.72 23.93 38.33v2.05c-4.92.34-9.76.98-14.3 1.93-2.4-3.05-3.84-5.44-4.58-6.43C6.05 74.31.16 43.9 10.63 24.62c15.03-27.66 57.99-27.12 70.96.84 4.36 9.4 6.04 19.8 6.04 30.27 0 3.63.08 6.43.43 8.67l-10.71 8.27z"/><path style="fill:#82aec0" d="m94.06 91.52-2.43-39.6 6.59-4.22c1.44 3.24 4.73 10.61 5.25 11.66.14.28.18.58.14.89 0 0-3.67 22.15-4.26 25.42-.65 3.55-1.33 4.73-2.14 5.42-.72.6-3.15.43-3.15.43z"/><circle style="fill:#b9e4ea" cx="97.76" cy="59.97" r="2.03"/><path style="fill:#de3e31" d="M82.21 36.18c-.58 4.81 1.81 9.2 5.56 10.81.69.3 2.38 1.21 3.32 3.65l.27 1c.05.19.26.28.43.18l6.58-3.62c.12-.07.18-.21.14-.35-.24-.78-.94-3.32-.28-4.38.48-.77 1.72-2.84 1.99-5.11.69-5.7-2.79-10.8-7.76-11.4-4.98-.61-9.57 3.52-10.25 9.22zm3.6.43c.41-3.42 3.17-5.9 6.15-5.53 2.98.36 5.07 3.42 4.66 6.84-.41 3.42-3.17 5.9-6.15 5.53-2.99-.36-5.07-3.42-4.66-6.84z"/></svg>