<svg xmlns="http://www.w3.org/2000/svg" viewBox="0 0 128 128" style="enable-background:new 0 0 128 128" xml:space="preserve"><path style="fill:#427687" d="M116 4H12c-4.4 0-8 3.6-8 8v104c0 4.4 3.6 8 8 8h104c4.4 0 8-3.6 8-8V12c0-4.4-3.6-8-8-8z"/><path style="fill:#8cafbf" d="M109.7 4H11.5C7.4 4 4 7.4 4 11.5v97.9c0 4.2 3.4 7.5 7.5 7.5h98.1c4.2 0 7.5-3.4 7.5-7.5V11.5c.2-4.1-3.3-7.5-7.4-7.5z"/><path style="opacity:.5;fill:#b4e1ed;enable-background:new" d="M39.7 12.9c0-2.3-1.6-3-10.8-2.7-7.7.3-11.5 1.2-13.8 4s-2.9 8.5-3 15.3c0 4.8 0 9.3 2.5 9.3 3.4 0 3.4-7.9 6.2-12.3 5.4-8.7 18.9-10.6 18.9-13.6z"/><path style="fill:#fff" d="M36.73 23.08h6.99l12.12 32.27h-6.72l-2.7-7.71H34.07l-2.7 7.71h-6.72l12.08-32.27zm7.71 18.97-2.84-8.11-1.17-3.88h-.36l-1.17 3.88-2.88 8.11h8.42zm-11.05 59.87a16.502 16.502 0 0 1-6.11-6.08c-1.49-2.57-2.23-5.42-2.23-8.54s.74-5.97 2.23-8.54 3.52-4.6 6.11-6.09c2.58-1.49 5.44-2.23 8.56-2.23 4.87 0 8.89 1.76 12.08 5.27l-4.28 4.15c-2.07-2.43-4.66-3.65-7.75-3.65-2.01 0-3.85.46-5.5 1.37-1.65.92-2.95 2.22-3.9 3.9s-1.42 3.62-1.42 5.81c0 2.19.47 4.13 1.42 5.81s2.25 2.98 3.9 3.9 3.49 1.37 5.5 1.37c3.4 0 6.23-1.41 8.52-4.24l4.33 4.1c-1.59 1.92-3.48 3.39-5.66 4.39-2.18 1.01-4.59 1.51-7.23 1.51-3.13.03-5.99-.72-8.57-2.21zm40.37-78.84h12.62c1.8 0 3.46.38 4.98 1.13 1.52.75 2.71 1.77 3.58 3.07.87 1.29 1.31 2.7 1.31 4.24 0 1.62-.4 3.03-1.19 4.21-.8 1.19-1.84 2.1-3.13 2.73v.36c1.68.6 3.02 1.56 4.01 2.86.99 1.31 1.49 2.88 1.49 4.71 0 1.77-.47 3.34-1.42 4.71s-2.22 2.42-3.83 3.15c-1.61.74-3.39 1.1-5.34 1.1H73.76V23.08zm12.17 13.16c1.32 0 2.38-.37 3.18-1.1.8-.74 1.19-1.66 1.19-2.77 0-1.08-.38-1.99-1.15-2.73-.77-.74-1.78-1.1-3.04-1.1h-6.26v7.71h6.08v-.01zm.68 13.57c1.47 0 2.62-.38 3.45-1.15.83-.77 1.24-1.77 1.24-3s-.42-2.24-1.26-3.02c-.84-.78-2.04-1.17-3.61-1.17h-6.58v8.34h6.76zM74.02 71.16h10.91c3.36 0 6.29.68 8.79 2.03 2.49 1.35 4.42 3.24 5.77 5.68 1.35 2.43 2.03 5.24 2.03 8.43s-.68 6-2.03 8.43-3.28 4.33-5.77 5.68-5.42 2.03-8.79 2.03H74.02V71.16zm10.64 26.5c3.49 0 6.14-.92 7.98-2.77 1.83-1.85 2.75-4.38 2.75-7.6 0-3.21-.92-5.75-2.75-7.59-1.83-1.85-4.49-2.77-7.98-2.77h-4.55v20.73h4.55z"/></svg>