<svg xmlns="http://www.w3.org/2000/svg" viewBox="0 0 128 128" style="enable-background:new 0 0 128 128" xml:space="preserve"><path style="fill:#194fa5" d="M116 4H12c-4.42 0-8 3.58-8 8v104c0 4.42 3.58 8 8 8h104c4.42 0 8-3.58 8-8V12c0-4.42-3.58-8-8-8z"/><path style="fill:#2262dd" d="M109.7 4H11.5A7.555 7.555 0 0 0 4 11.5v97.9c-.01 4.14 3.34 7.49 7.48 7.5h98.12c4.14.01 7.49-3.34 7.5-7.48V11.5c.09-4.05-3.13-7.41-7.18-7.5h-.22z"/><path style="fill:none" d="M43.3 25.5h.2v-.2zm8.6-.2v.2h.2z"/><path style="fill:#fafafa" d="M51.6 37.7V25.6h6c1.35.01 2.45-1.07 2.46-2.42.01-.58-.19-1.14-.56-1.58l-7.7-9.2-.4-.4c-.4-.45-.92-.76-1.5-.9a3.554 3.554 0 0 0-4.2 1.3c0 .1-.1.1-.2.1l-7.6 9.2c-.86 1.04-.72 2.57.32 3.44.44.37 1.01.57 1.58.56h5.9v12.1c0 1.66 1.34 3 3 3a3.15 3.15 0 0 0 2.9-3.1zm32.2-23.9.1 12.1h6a2.437 2.437 0 0 1 2.46 2.42c.01.58-.19 1.14-.56 1.58l-7.7 9.2c-.1.2-.3.3-.4.4-.4.42-.87.76-1.4 1-1.53.54-3.24.01-4.2-1.3-.1 0-.1-.1-.2-.2l-7.6-9.2c-.86-1.04-.72-2.57.32-3.44.44-.37 1.01-.57 1.58-.56h5.9L78 13.7c0-1.66 1.34-3 3-3a3.16 3.16 0 0 1 2.8 3.1zM103.4 46h-77a7.844 7.844 0 0 0-7.9 7.8v51.7a7.844 7.844 0 0 0 7.8 7.9h77.1c4.34.03 7.87-3.46 7.9-7.8V53.9a7.995 7.995 0 0 0-7.9-7.9zm-1 58.6H27.6V55.1h74.8v49.5z"/><path style="fill:#fafafa" d="M44.7 65.2a3.807 3.807 0 0 0 1.3-5.1c-.87-1.68-2.95-2.33-4.63-1.46-.09.05-.19.1-.27.16l1.8 3.2-1.8-3.2a3.807 3.807 0 0 0-1.3 5.1c1 1.71 3.19 2.29 4.9 1.3zm-7.8 19.6h.9v15.1c-.02 1.25.97 2.28 2.22 2.3h.08a2.34 2.34 0 0 0 2.3-2.3V84.8h.8v15.1c-.02 1.25.97 2.28 2.22 2.3h.08a2.34 2.34 0 0 0 2.3-2.3V84.8h.8a2.22 2.22 0 0 0 2.2-2.2V68.8a2.22 2.22 0 0 0-2.2-2.2H36.9a2.22 2.22 0 0 0-2.2 2.2v13.8a2.22 2.22 0 0 0 2.2 2.2zm29.7-19.7a3.807 3.807 0 0 0 1.3-5.1c-.87-1.68-2.95-2.33-4.63-1.46-.09.05-.19.1-.27.16l1.8 3.2-1.8-3.2a3.807 3.807 0 0 0-1.3 5.1c.87 1.68 2.95 2.33 4.63 1.46.09-.05.18-.1.27-.16zm-7.7 19.6h.8v15.1c-.02 1.25.97 2.28 2.22 2.3H62a2.34 2.34 0 0 0 2.3-2.3V84.7h.8v15.1a2.34 2.34 0 0 0 2.3 2.3 2.396 2.396 0 0 0 2.3-2.3V84.7h1a2.22 2.22 0 0 0 2.2-2.2V68.8a2.22 2.22 0 0 0-2.2-2.2H58.9a2.22 2.22 0 0 0-2.2 2.2v13.8a2.143 2.143 0 0 0 2.2 2.1zm29.7-19.6a3.807 3.807 0 0 0 1.3-5.1c-.87-1.68-2.95-2.33-4.63-1.46-.09.05-.19.1-.27.16l1.8 3.2-1.8-3.2a3.807 3.807 0 0 0-1.3 5.1 3.39 3.39 0 0 0 4.55 1.5c.12-.06.24-.13.35-.2zm-7.9 19.6h.9v15a2.3 2.3 0 0 0 4.6 0v-15h.8v15.1a2.3 2.3 0 0 0 4.6 0V84.7h.9a2.22 2.22 0 0 0 2.2-2.2V68.8a2.22 2.22 0 0 0-2.2-2.2H80.7a2.22 2.22 0 0 0-2.2 2.2v13.8a2.143 2.143 0 0 0 2.2 2.1z"/><path style="fill:#68abe6" d="M39.7 12.9c0-2.3-1.6-3-10.8-2.7-7.7.3-11.5 1.2-13.8 4s-2.9 8.5-3 15.3c0 4.8 0 9.3 2.5 9.3 3.4 0 3.4-7.9 6.2-12.3 5.4-8.7 18.9-10.6 18.9-13.6z"/></svg>