<svg xmlns="http://www.w3.org/2000/svg" viewBox="0 0 128 128" style="enable-background:new 0 0 128 128" xml:space="preserve"><path style="fill:#e59600" d="m74.8 24.13-.79-.21-1.21 4.42c.3.08.6.13.91.13.97 0 1.89-.47 2.23-1.72.5-1.85-1.14-2.62-1.14-2.62zm-18.76-5.15c.01.01-.03 0-.11 0-.41 0-1.76.12-2.19 1.68-.45 1.63.63 2.62 1.88 2.97l1.21-4.43-.79-.22zm12.7 9.77-3.62 10.06-8.01-1.84 4.42-20.79z"/><linearGradient id="a" gradientUnits="userSpaceOnUse" x1="55.007" y1="21.594" x2="75.498" y2="21.594"><stop offset=".5" style="stop-color:#ffca28"/><stop offset="1" style="stop-color:#ffb300"/></linearGradient><path style="fill:url(#a)" d="M68.75 9.44c-7.41-2.03-10.92 3.18-13.14 11.25-2.3 8.37 2.49 12.01 6.46 13.1 3.91 1.07 9.92.46 12.24-7.96 2.22-8.08 1.85-14.36-5.56-16.39z"/><radialGradient id="b" cx="66.166" cy="119.542" r="12.522" gradientTransform="scale(1 -1) rotate(-3.084 -2548.383 42.89)" gradientUnits="userSpaceOnUse"><stop offset="0" style="stop-color:#6d4c41"/><stop offset="1" style="stop-color:#543930"/></radialGradient><path style="fill:url(#b)" d="M68.5 32.37c.8-2.87 3.43-2.83 5.33-4.08l1.35-2.65s1.53-1.51 2.64-4.85c1.15-3.44.32-9.22-7.87-12.12l-.22-.07c-.06-.02-.22-.06-.22-.06-8.29-2.59-12.42 1.54-13.56 4.97-1.11 3.34-.8 5.45-.8 5.45l.12 3.16s2.77 3.47 1.55 6.36c-1.81 4.29 10.28 8.95 11.68 3.89z"/><radialGradient id="c" cx="64.287" cy="115.105" r="11.183" gradientTransform="matrix(-.3473 .9378 .7718 .2858 -2.116 -67.62)" gradientUnits="userSpaceOnUse"><stop offset=".372" style="stop-color:#6d4c41;stop-opacity:0"/><stop offset=".888" style="stop-color:#6d4c41"/></radialGradient><path style="fill:url(#c)" d="M68.5 32.33c.8-2.87 3.43-2.83 5.33-4.08l1.35-2.65s1.53-1.51 2.64-4.85c1.15-3.44.32-9.22-7.87-12.12l-.22-.07c-.06-.02-.22-.06-.22-.06-8.29-2.59-12.42 1.54-13.56 4.97-1.11 3.34-.8 5.45-.8 5.45l.12 3.16s2.77 3.47 1.55 6.36c-1.81 4.29 10.28 8.95 11.68 3.89z"/><path style="fill:#eda600" d="m41.86 22.42-2.74-1.7 1.54-2.5s3.92 1.76 4.25 2.4c.31.63-.41 1.5-.41 1.5-.96 1.37-1.77.83-2.64.3z"/><path style="fill:#616161" d="M63.39 88.82a5.593 5.593 0 0 1-1.93-3.49l-1.58-11.18c1.28-3.67-.57-14.36-9.24-14.36-1.11 0-2.34.18-3.68.57-2.17.63-4.84 7.79-4.84 7.79l8.44 25.79c.22.82.61 1.6 1.16 2.31.79 1 1.82 1.71 2.94 2.11l21.76 11.49 3.67-7-16.7-14.03z"/><path style="fill:#325599" d="m84.35 102.44-2.42-1.63c-.97-.66-2.39-.79-3.41-.79-.72 0-1.23.07-1.23.07l-4.08 6.02-1.88 6.63c-.37 1.66.3 3.38 1.7 4.35l1.09.74c.18.12.38.18.59.18.33 0 .66-.16.86-.46l9.1-13.45c.37-.55.23-1.29-.32-1.66z"/><path style="fill:#7c7c7c" d="m41.2 62.28-4.72 22.26c-.77 3.61-.91 7.33-.42 11l2.95 22.18 7.33-.02s1.87-24.72 1.89-24.76l6.26-18.98.23-.33c1.93-2.05 2.71-6.93 2.71-6.93L41.2 62.28z"/><path style="fill:#4568ad" d="M47.04 114.97H39.2l-7.06 2.33a4.49 4.49 0 0 0-2.85 4.15l-.01 1.42c0 .62.5 1.13 1.12 1.13l17.51-.02c.71 0 1.29-.58 1.29-1.29v-3.15c.01-2.14-2.16-4.57-2.16-4.57z"/><path style="fill:#504f4f" d="M96.68 58.74s4.66 2.6 5.18 3.72c.38.83.45 3.77.24 5.65-.2 1.89-1.1 2.29-1.1 2.29s-1.58 1.05-3.28 1.32c-1.71.27-1.79-1.27-1.79-1.27s-.35-2.81-.18-3.73.83-2.61 1.76-3.75c.42-.51-.26-.95-.26-.95l-1.86-1.42 1.29-1.86z"/><path style="fill:#201284" d="m37.38 37.86 4.53-8.74-6.84-3.6-5.85 11.29a5.407 5.407 0 0 0 0 4.98 7.366 7.366 0 0 0 5.17 3.85l20.62 3.89 1.38-9.78-19.01-1.89z"/><linearGradient id="d" gradientUnits="userSpaceOnUse" x1="39.325" y1="52.51" x2="68.119" y2="52.51"><stop offset="0" style="stop-color:#651fff"/><stop offset=".705" style="stop-color:#5914f2"/><stop offset="1" style="stop-color:#530eeb"/></linearGradient><path style="fill:url(#d)" d="M67.22 37.39c-.62-1.38-1.48-2.3-2.49-2.66l-5.94-1.92c-4.08-1.47-8.32 2.59-9.67 5.9-3.44 6.2-6.67 14.92-9.58 25.91-.39 1.29-.25 2.66.39 3.85.64 1.2 1.71 2.07 3.01 2.46h.02c1.83.48 7.31 1.6 11.92 1.6 2.37 0 4.52-.3 5.81-1.13.75-.48 1.2-1.11 1.33-1.92.95-9.05 2.25-16.65 5.5-24.31.9-2.2.77-5.4-.3-7.78z"/><radialGradient id="e" cx="69.012" cy="42.141" r="9.838" gradientUnits="userSpaceOnUse"><stop offset="0" style="stop-color:#6d4c41"/><stop offset="1" style="stop-color:#543930"/></radialGradient><path style="fill:url(#e)" d="M78.9 51.91s-9.12.62-15.74-5.12c-2.55-2.2-3.59-4.83-3.91-7.23-.05-.36-.09-.72-.1-1.07-.07-1.14.01-2.21.15-3.12.06-.38.13-.74.19-1.06.27-1.19.57-1.93.57-1.93s5.57-.89 8.4 7.46c.01.04.03.08.04.12.06.19.12.39.18.59.54 1.77 1.41 3.35 2.45 4.73.4.54.82 1.04 1.25 1.51 3 3.32 6.52 5.12 6.52 5.12z"/><radialGradient id="f" cx="79.202" cy="30.174" r="21.794" gradientUnits="userSpaceOnUse"><stop offset=".849" style="stop-color:#6d4c41"/><stop offset="1" style="stop-color:#6d4c41;stop-opacity:0"/></radialGradient><path style="fill:url(#f)" d="M78.9 51.91s-9.12.62-15.74-5.12c-2.55-2.2-3.59-4.83-3.91-7.23-.05-.36-.09-.72-.1-1.07-.07-1.14.01-2.21.15-3.12.06-.38.13-.74.19-1.06.27-1.19.57-1.93.57-1.93s5.57-.89 8.4 7.46c.01.04.03.08.04.12.06.19.12.39.18.59.54 1.77 1.41 3.35 2.45 4.73.4.54.82 1.04 1.25 1.51 3 3.32 6.52 5.12 6.52 5.12z"/><path style="opacity:.4;fill:#212121;enable-background:new" d="m72.38 46.79-12.75-8-.48-.3-6.69-4.2s2.75-1.86 3.68-1.81c.26.01 1.57.75 3.35 1.83.21.13.43.26.65.4 1.78 1.09 5.43 3.38 8.36 5.25.06.19.12.39.18.59.54 1.77 1.41 3.35 2.45 4.73.4.54.82 1.04 1.25 1.51z"/><path style="fill:#7c7d7d" d="m95.39 60.6 1.29-1.86-50.03-34.72-1.73 2.51z"/><path style="fill:#504f4f" d="m44.92 26.53 1.73-2.51-15.17-10.41a1.521 1.521 0 0 0-1.72 2.51l15.16 10.41z"/><path style="fill:#eda600" d="M46.73 21.82c-.33-.49-.91-.74-1.49-.63-.6.11-1 .62-1.22.97-.03.04-.25.33-.42.7-.53.08-1.07.21-1.39.31l-3.08 1.38c-.18.08-.29.25-.3.44l-.08 2.12c0 .06.01.11.02.16.18.64 1.46 1.5 2.1 1.76.16.06.36.13.56.13.12 0 .24-.02.36-.09.21-.11.29-.29.69-1.23.2-.46.56-1.31.63-1.42.95-.53 2-.72 2.07-.74.1-.03.2-.08.29-.15.22-.11.3-.32.3-.34.09-.16.15-.35.17-.5l.09-.27c.26-.77.76-1.39.8-1.44.2-.31.16-.77-.1-1.16z"/><linearGradient id="g" gradientUnits="userSpaceOnUse" x1="39.889" y1="16.4" x2="37.098" y2="23.934"><stop offset=".35" style="stop-color:#ffca28"/><stop offset="1" style="stop-color:#ffb300"/></linearGradient><path style="fill:url(#g)" d="M44.07 17.72c-.92-.79-1.2.07-1.8-.22s-.31-.69-.86-.91c-.91-.36-1.25.22-1.73.04-.5-.18-.25-.54-.94-.69-.78-.17-.97.4-1.51.16-.53-.25-.45-.45-1.02-.58-.61-.14-1.07.01-1.66.88-1.56 2.29-2.42 7.02-2.42 7.02l6.77 3.45s4.35-5.42 4.91-6.32c.54-.89 1.18-2.03.26-2.83z"/><path style="fill:#4300d9" d="M59.27 40.58c0 2.8-2.1 4.87-4.2 5.33-.08.06-1.2.08-1.37.06l-23.24-.8c-1.14.08-2.29-.3-3.18-1.09a4.402 4.402 0 0 1-1.26-4.75l5.46-16.88c.04-.14.14-.25.27-.3a.53.53 0 0 1 .41 0l7.63 3.52c.24.11.35.38.26.62l-3.5 9.8 17.14-.9c.03-.01.1-.01.18-.01.35-.02 1.03-.01 1.09.04 1.51.28 3.03 1.38 3.79 3.02.33.69.52 1.48.52 2.34z"/><path style="opacity:.4;fill:#212121;enable-background:new" d="m58.75 38.24-4.88-3.06c.35-.02 1.03-.01 1.09.04 1.51.28 3.03 1.38 3.79 3.02z"/><ellipse transform="rotate(-86.09 67.441 12.671)" style="fill:#1976d2" cx="67.44" cy="12.67" rx="8.66" ry="10.64"/><radialGradient id="h" cx="67.901" cy="118.001" r="15.401" gradientTransform="matrix(1 0 0 -1 0 130)" gradientUnits="userSpaceOnUse"><stop offset=".17" style="stop-color:#42a5f5"/><stop offset=".457" style="stop-color:#3798eb"/><stop offset=".983" style="stop-color:#1976d2"/></radialGradient><path style="fill:url(#h)" d="M75.03 10.83c4.85 5.52 3.59 11.46-.08 16.19-3.91 5.05-13.87 3.1-18.13-1.86s-3.3-11.37 1.28-15.3 12.61-3.95 16.93.97z"/><ellipse transform="rotate(-79.682 67.337 13.285)" style="fill:#0665b2" cx="67.34" cy="13.28" rx="1.21" ry="1.4"/></svg>