<svg xmlns="http://www.w3.org/2000/svg" viewBox="0 0 128 128" style="enable-background:new 0 0 128 128" xml:space="preserve"><path style="fill:#232020" d="M85.16 13.43c-2.25-3.73-6.52-5.88-11.13-5.61-4.61.27-8.6 2.92-10.39 6.9-1.1 2.42-1.55 5.36-1.38 8.98.16 3.42-.03 4.3-2.4 5.91-3.5 2.39-5.02 5.82-3.98 8.94.99 2.98 4.04 4.88 7.93 5.04.38.02.76.01 1.16 0 8.24-.38 14.41-3.86 18.35-10.35.1-.17.18-.29.24-.38 3.42-5.03 5.15-13.55 1.6-19.43z"/><radialGradient id="a" cx="73.497" cy="106.806" r="16.775" gradientTransform="matrix(-.4968 .8679 .6936 .397 35.959 -79.88)" gradientUnits="userSpaceOnUse"><stop offset=".782" style="stop-color:#444140;stop-opacity:0"/><stop offset="1" style="stop-color:#444140"/></radialGradient><path style="fill:url(#a)" d="M86.74 24.95c-.42 3.2-2.33 6.67-3.18 7.9-.06.09-.13.22-.24.38-3.94 6.49-10.11 9.98-18.35 10.36-.39.02-.77.02-1.15.01-3.89-.16-7.06-2.03-7.93-5.05-1.18-4.11 1.52-7.24 3.14-8.32 2.49-1.66 3.49-2.47 3.29-5.92 1.42 13.1 23.73 3.91 24.32 1.22.03-.19.07-.38.1-.58z"/><linearGradient id="b" gradientUnits="userSpaceOnUse" x1="79.567" y1="78.796" x2="51.086" y2="40.649" gradientTransform="matrix(1 0 0 -1 0 128)"><stop offset="0" style="stop-color:#a52714"/><stop offset=".529" style="stop-color:#d23f31"/><stop offset="1" style="stop-color:#ed4132"/></linearGradient><path style="fill:url(#b)" d="M88.03 32.22c.6-.37 1.38-.22 1.78.36 2.1 3.04 7.69 13.17 5.57 32.47C94 77.58 86.9 95.67 84.49 101.53a1.32 1.32 0 0 1-2.12.47c-2.42-2.21-8.33-5.94-19.09-3.44-3.41.79-14.05 11.45-22.6 1.85-5.28-5.93-1.43-9.41-1.38-17.94.05-10.98-11-14.35-14.61-16.15-.92-.46-.99-1.73-.13-2.29 4.19-2.72 10.07-4 17.46-9.88C51.4 46.7 51.48 39.72 53.4 37.3c.97-1.22 8.61-4.65 8.61-4.65s5.34 1.42 5.6 1.52l9.53 4.21c.38.14.81.1 1.16-.12l9.73-6.04z"/><radialGradient id="c" cx="74.878" cy="64.465" r="18.579" gradientTransform="matrix(.9362 .3515 .6811 -1.8142 -39.132 154.169)" gradientUnits="userSpaceOnUse"><stop offset="0" style="stop-color:#212121"/><stop offset=".999" style="stop-color:#212121;stop-opacity:0"/></radialGradient><path style="fill:url(#c)" d="M90.44 73.86c5.41-16.75 1.49-30.51 1.49-30.51s-15.88 5.61-15.92 6.26-10.32 25.11-10.32 25.11S58.2 94.97 48.7 104.4c6.81-.74 12.32-5.31 14.58-5.83 7.09-1.65 12.06-.59 15.33.96 1.79-2.85 8.03-13.9 11.83-25.67z"/><linearGradient id="d" gradientUnits="userSpaceOnUse" x1="44.406" y1="72.733" x2="59.1" y2="47.365" gradientTransform="matrix(1 0 0 -1 0 128)"><stop offset="0" style="stop-color:#212121"/><stop offset=".999" style="stop-color:#212121;stop-opacity:0"/></linearGradient><path style="fill:url(#d)" d="m67.97 43.79-5.07-2.3s-8.04 18.35-12.11 24.68c-4.08 6.33-11.5 16.3-11.5 16.3.01 8.53-3.9 12.02 1.39 17.95.35.4.72.75 1.08 1.08 3.39-4.07 8.99-12.02 13.19-17.98C66.3 67.41 67.97 43.79 67.97 43.79z"/><linearGradient id="e" gradientUnits="userSpaceOnUse" x1="76.007" y1="86.415" x2="75.835" y2="66.737" gradientTransform="matrix(1 0 0 -1 0 128)"><stop offset="0" style="stop-color:#42a5f5"/><stop offset="1" style="stop-color:#1e88e5"/></linearGradient><path style="fill:url(#e)" d="M103.54 24.53c-1.01-2.75-5.95-10.64-5.95-10.64l-5.74 2.75 2.28 9.86-10.27 8.55a34.85 34.85 0 0 0-12.95-.52c-2.94-.22-11.3-.12-14.46 7.57L51.87 53l-3.71 1.29c-1.03 2.15 2.35 4.09 4.5 5.11 2.15 1.03 4 .23 5.76-2.04 1.05-1.36 3.49-5.17 5.27-8 .4 3.03.68 6.73.7 11.23l8.33 4.01 10.14.43c3.7-8.37 5.61-14.74 6.58-19.25 3.35-3.78 12.03-13.6 13.15-15.16 1.38-1.92 1.96-3.34.95-6.09z"/><g style="opacity:.29"><path style="fill:none" d="M103.54 24.53c-1.01-2.75-5.95-10.64-5.95-10.64l-5.74 2.75 2.28 9.86-10.27 8.55a34.85 34.85 0 0 0-12.95-.52c-2.94-.22-11.3-.12-14.46 7.57L51.87 53l-3.71 1.29c-1.03 2.15 2.35 4.09 4.5 5.11 2.15 1.03 4 .23 5.76-2.04 1.05-1.36 3.49-5.17 5.27-8 .4 3.03.68 6.73.7 11.23l8.33 4.01 10.14.43c3.7-8.37 5.61-14.74 6.58-19.25 3.35-3.78 12.03-13.6 13.15-15.16 1.38-1.92 1.96-3.34.95-6.09z"/></g><linearGradient id="f" gradientUnits="userSpaceOnUse" x1="50.366" y1="75.209" x2="43.808" y2="89.442" gradientTransform="matrix(1 0 0 -1 0 128)"><stop offset="0" style="stop-color:#a52714"/><stop offset=".529" style="stop-color:#d23f31"/><stop offset="1" style="stop-color:#db4437"/></linearGradient><path style="fill:url(#f)" d="M41.61 38.79c.59-1.08 2.44-1.82 3.77-2.23.81-.25 1.67.17 1.99.94l1.97 4.72c.24.58.13 1.25-.29 1.73l-1.85 2.08c.68.92 1.53 1.66 2.51 2.25 1.67 1.01 3.34.97 3.51 1.11 2.12 1.71 3.7 3.71 2.46 6.99-1.23 3.26-5.47 2.26-5.47 2.26s-4.35-3.06-7.15-9.7c-.91-2.13-2.68-7.92-1.45-10.15z"/><g style="opacity:.29"><path style="fill:none" d="M41.61 38.79c.59-1.08 2.44-1.82 3.77-2.23.81-.25 1.67.17 1.99.94l1.97 4.72c.24.58.13 1.25-.29 1.73l-1.85 2.08c.68.92 1.53 1.66 2.51 2.25 1.67 1.01 3.34.97 3.51 1.11 2.12 1.71 3.7 3.71 2.46 6.99-1.23 3.26-5.47 2.26-5.47 2.26s-4.35-3.06-7.15-9.7c-.91-2.13-2.68-7.92-1.45-10.15z"/></g><linearGradient id="g" gradientUnits="userSpaceOnUse" x1="55.129" y1="43.807" x2="50.129" y2="36.057" gradientTransform="matrix(1 0 0 -1 0 128)"><stop offset=".001" style="stop-color:#851f10"/><stop offset=".841" style="stop-color:#a52714"/></linearGradient><path style="fill:url(#g)" d="M52.68 83.01s-5.54 5.15-5.95 7.46c-.68 3.83 2.56 7.37 4.24 6 3.65-2.96 4.64-6.63 6.45-9.29 1.8-2.66-2.34-6.6-4.74-4.17z"/><linearGradient id="h" gradientUnits="userSpaceOnUse" x1="69.79" y1="55.762" x2="60.641" y2="35.221" gradientTransform="matrix(1 0 0 -1 0 128)"><stop offset="0" style="stop-color:#42a5f5"/><stop offset="1" style="stop-color:#1e88e5"/></linearGradient><path style="fill:url(#h)" d="m71.4 66.93-.25.68c-.45-1.66-1.51-3.18-2.95-3.95 0 0-5.78-1.91-7.23.78 0 0-6.93 10.92-8.03 13.96-1.11 3.04-1.07 5.52 1.53 7.13 2.1 1.29 4.92.67 7.5-2.26 1.16-1.32 3.84-5.35 5.88-8.48.32-.5 1.09-.11.88.45l-12.12 31.91 5.41 3.44s16.1-25.73 18.47-30.65C82.86 75 83.7 67.79 83.7 67.79l-12.3-.86z"/><g style="opacity:.4"><path style="fill:#212121" d="m61.24 64.05 2-3.26c.28-.63 1-.89 1.58-.56 6.62 3.79 10.14 4.78 17.67 4.34.69-.04 1.26.58 1.21 1.33l-.26 3.51s-2.76 1.56-11.19-.23c-5.98-1.26-11.01-5.13-11.01-5.13z"/></g><linearGradient id="i" gradientUnits="userSpaceOnUse" x1="62.701" y1="65.385" x2="84.321" y2="60.66" gradientTransform="matrix(1 0 0 -1 0 128)"><stop offset="0" style="stop-color:#d32f2f"/><stop offset=".23" style="stop-color:#f44336"/><stop offset=".742" style="stop-color:#f44336"/><stop offset="1" style="stop-color:#d32f2f"/></linearGradient><path style="fill:url(#i)" d="M83.08 69.11c-8.48.45-13.79-1.08-21.19-5.01-.58-.31-.81-1.02-.53-1.62l1.19-2.52c.3-.63 1.07-.89 1.69-.56 7.09 3.78 10.86 4.78 18.94 4.34.74-.04 1.36.59 1.29 1.33l-.23 2.9c-.05.62-.55 1.11-1.16 1.14z"/><path style="fill:#fdd835" d="m75.57 67.15-2.31 1.53c-.46.3-1.07.18-1.37-.28l-1.53-2.31a.985.985 0 0 1 .28-1.37l2.31-1.53a.985.985 0 0 1 1.37.28l1.53 2.31c.3.45.18 1.07-.28 1.37z"/><path style="fill:#e53935" d="M70.48 45.19c1.28-.56 3.66-1.34 7.09-1.47.22-.01.43-.01.63-.01 3.09 0 4.98.84 5.95 1.44l-6.94 7.46-6.73-7.42z"/><path style="fill:#fdd835" d="M78.21 44.74c1.89 0 3.28.34 4.25.71l-5.23 5.62-4.95-5.45c1.27-.4 3.06-.79 5.33-.87.21 0 .4-.01.6-.01m0-2.07c-.22 0-.44 0-.67.01-5.77.21-8.73 2.2-8.73 2.2l8.4 9.25 8.48-9.12c-.01.01-2.19-2.34-7.48-2.34z"/><linearGradient id="j" gradientUnits="userSpaceOnUse" x1="77.247" y1="83.092" x2="77.247" y2="73.237" gradientTransform="matrix(1 0 0 -1 0 128)"><stop offset="0" style="stop-color:#0d47a1;stop-opacity:0"/><stop offset="1" style="stop-color:#0d47a1"/></linearGradient><path style="opacity:.42;fill:url(#j);enable-background:new" d="M68.81 44.88s2.96-1.99 8.73-2.2c5.77-.21 8.15 2.33 8.15 2.33l-8.48 9.12-8.4-9.25z"/><linearGradient id="k" gradientUnits="userSpaceOnUse" x1="66.098" y1="27.458" x2="43.784" y2="5.144" gradientTransform="matrix(1 0 0 -1 0 128)"><stop offset="0" style="stop-color:#a52714"/><stop offset=".529" style="stop-color:#d23f31"/><stop offset="1" style="stop-color:#ed4132"/></linearGradient><path style="fill:url(#k)" d="M57.86 97.77s-1.61 9.66-5.58 15.98c-1.94 2.57-5.1 4.68-6.74 9.09-.75 2.03 3.63 3.96 7.04 2.09 2.05-1.13 5.15-8.03 5.15-8.03 2.74-4.98 10.9-12.92 10.9-12.92-1.57-7.3-10.77-6.21-10.77-6.21z"/><path style="fill:#ed4132" d="M53.4 37.29s5.69-7.18 15.85-5.13c7.55 1.52 5.96 6.37 5.96 6.37s-3.81.03-7.24-.76c-3.47-.8-6.56-2.41-8.4-2.22l-6.17 1.74z"/><path style="fill:#ed4132" d="M75.21 38.53s.47-4.91 3.79-6.1 10.76-2.29 10.76-2.29-2.33 4.56-4.13 6c-3.8 3.04-10.42 2.39-10.42 2.39z"/><path style="opacity:.4;fill:#212121;enable-background:new" d="M57.13 40.69s3.26-2.94 8.22-1.75c7.14 1.71 9.86-.41 9.86-.41s5.25 1.89 10.22-.5c3.41-1.64 4.34-7.89 4.34-7.89l-1.17 1.32s-4.38 4.77-8.74 6.06c-3.19.95-4.64 1.01-4.64 1.01s-11.76-4.03-14.44-2.91c-2.7 1.12-3.65 5.07-3.65 5.07z"/><path style="fill:#3c2b24" d="m75.01 31.25-3.3.09.1 2.56c0 3.23 3.45 4.61 3.45 4.61s3.15-1.69 3.15-4.66l-.1-2.69-3.3.09z"/><path style="fill:#70534a" d="M75.03 34.35c4.91-.13 9.31-5.51 9.1-13.06-.21-7.51-4.99-11.1-9.76-10.97-4.77.13-9.35 3.97-9.15 11.48.21 7.56 4.9 12.68 9.81 12.55z"/><ellipse transform="rotate(-1.564 70.157 24.467)" style="fill:#1a1717" cx="70.15" cy="24.47" rx="1.39" ry="1.44"/><ellipse transform="rotate(-1.564 79.428 24.216)" style="fill:#1a1717" cx="79.42" cy="24.21" rx="1.39" ry="1.44"/><path style="fill:#1a1717" d="M77.24 29.42c-.88.56-3.83.64-4.74.13-.52-.29-1.04.19-.81.65.22.45 1.86 1.48 3.25 1.44 1.39-.04 2.95-1.15 3.14-1.62.2-.46-.33-.92-.84-.6z"/><path style="fill:#33251f" d="M75.76 26.87a.292.292 0 0 0-.09-.02l-2 .06c-.03 0-.06.01-.09.03-.18.08-.27.27-.18.47s.5.75 1.3.72c.8-.02 1.18-.59 1.26-.79.08-.22-.02-.41-.2-.47z"/><path style="fill:#1a1717" d="M72.21 21.79c-.27-.34-.9-.84-2.09-.81s-1.79.56-2.04.92c-.11.16-.08.34.01.44.08.1.3.19.55.1s.72-.35 1.52-.38c.8-.02 1.29.22 1.54.3.25.08.47-.02.54-.13a.38.38 0 0 0-.03-.44zm9.28-.25c-.27-.34-.9-.84-2.09-.81-1.19.03-1.79.56-2.04.92-.11.16-.08.34.01.44.08.1.3.19.55.1s.72-.35 1.52-.38c.8-.02 1.29.22 1.54.3.25.08.47-.02.54-.13.06-.11.09-.29-.03-.44z"/><path style="fill:#232020" d="M62.1 27.48c.16-3.78.09-6.4.28-8.01.16-1.37 1.76-11.19 11.65-11.65 11.3-.52 12.92 10.81 12.92 10.81l.07 4.4s-.25 2.15-1.33 4.77c-1.1 2.63-2.86 3.33-2.54 2 .35-1.47.7-3.48.61-5.42-.04-.85.09-4.01-1.71-4.32-6.57-1.16-10.41-4.45-10.41-4.45-.86 2.13-3.76 4.32-4.8 5.13-.86.68-.61 3.29-.54 4.41l.63 5.08c-1.1-.63-4.21-1.6-4.83-2.75z"/><linearGradient id="l" gradientUnits="userSpaceOnUse" x1="98.368" y1="103.919" x2="84.559" y2="124.805" gradientTransform="matrix(1 0 0 -1 0 128)"><stop offset="0" style="stop-color:#a52714"/><stop offset=".529" style="stop-color:#d23f31"/><stop offset="1" style="stop-color:#db4437"/></linearGradient><path style="fill:url(#l)" d="M92.68 25.08c-.14-.93-1.91-15.14-5.23-15.88 0 0-1.76.02-3.56.18-1.41.05-2.35-.32-2.62-1.22-.33-.68.01-2.2.58-3.9.57-1.71 1.59-1.92 2.4-1.94 1.57-.04 4.25 1.55 7.93 4.73 7.08 6.12 10.95 15.35 10.95 15.35-.14.01-4.7 6.24-10.45 2.68z"/><g style="opacity:.29"><path style="fill:none" d="M92.68 25.08c-.14-.93-1.91-15.14-5.23-15.88 0 0-1.76.02-3.56.18-1.41.05-2.35-.32-2.62-1.22-.33-.68.01-2.2.58-3.9.57-1.71 1.59-1.92 2.4-1.94 1.57-.04 4.25 1.55 7.93 4.73 7.08 6.12 10.95 15.35 10.95 15.35-.14.01-4.7 6.24-10.45 2.68z"/></g></svg>