<svg xmlns="http://www.w3.org/2000/svg" viewBox="0 0 128 128" style="enable-background:new 0 0 128 128" xml:space="preserve"><path style="fill:#4c5125" d="M22.65 95.37c2.59.63 10.94 3.67 22.79.27 8.8-2.52 22-9.81 22.91-10.39 15.63-10.04 36.02-16.2 45.27-18.62 1.13-.3 1.73-2.43 1.44-3.59-.12-.49-33.1-.61-55.14 10.68S22.65 95.37 22.65 95.37z"/><path style="fill:#784d30" d="M82.43 114.18c7.34-11.24.54-34.92-2.25-41.06L69.04 77.5c1.2 2.65 9.45 22.35 1.1 40.08l12.29-3.4z"/><path style="fill:#8d6e63" d="M63.19 119.45c-6.38-3.46-12.04-15.13-12.04-15.13l9.57-6.66c3.22 6.05 6.47 11.15 13 16.69 2.42 2.05 7.52 1.65 7.52 1.65s-8.25 7.27-18.05 3.45z"/><path style="fill:#784d30" d="m61.41 118.16 9.67-4.82-6.5-8.3-.92 1.16 2.21 6.06-6.96 3.46z"/><path style="fill:none;stroke:#bcaaa4;stroke-width:2;stroke-miterlimit:10" d="M80.18 73.12c3.68 7.68 9.32 35.43 1.34 41.57-3.88 2.98-11.09.36-21.82-18.5"/><path style="fill:#90a4ae" d="m66.55 102.37-7.1-12.7c-.37-.66-1.2-.89-1.86-.53l-12.77 7.11c-.66.37-.9 1.2-.53 1.86l3.55 6.35s2.36 4.23 3.55 6.35c.37.66 1.2.89 1.85.53l12.77-7.11c.67-.37.91-1.2.54-1.86zm-8.9-9.86 2.05 3.67-9.99 5.55-2.05-3.67 9.99-5.55zm-6.5 11.81 9.99-5.55 2.05 3.67-9.99 5.55-2.05-3.67z"/><path style="fill:#8d6e63" d="M58.14 93.39c-3.38-5.53-7.96-12.75-7.71-14.66l-11.79-1.39c-.55 4.03 4.48 9.8 7.57 17.81.69 1.78 1.74 3.43 2.92 2.86l9.01-4.62z"/><path style="fill:#784d30" d="m45.11 92.56 8.57-4.3-1.42-3.67-8.53 5.25zm2.11 4.56 9.36-4.75 1.08.12.49.9-9.02 4.62s-.53.37-1.31-.22c-.22-.16-.6-.67-.6-.67z"/><path style="fill:#8d6e63" d="M53.2 107.98s-4.18-7.49-4.21-7.54c-.03-.05 9.89-5.72 9.89-5.72l3.4 8.21-9.08 5.05zm10.5-2.45 2.17 6.73-10.14 3.73-1.76-5.04z"/><path style="fill:#bcaaa4" d="M54.95 91.08c-2.85-5.96-4.48-11.53-4.22-13.41l1.96.26c-.22 1.62 2.46 9.45 4.97 14.62-.01.01-2.07-.14-2.71-1.47zm6.43 12.34s-2.82-5.55-3.3-6.62c-.48-1.07.8-2.08.8-2.08l4.31 7.71-1.81.99zm-3.26 13.34-2.39-.77 8.93-4.27-1.84-5.7 1.76-.98 2.5 7.77z"/><path style="fill:#506b3f" d="M117.73 57.92c-14.6-3.96-12.23-6.63-16.17-14.48C89.43 19.28 72.26 5.39 47.35 7.69 18.88 10.31 1.68 34.15 4.25 62.08c.66 7.15 1.96 13.04 4.59 19.61v.01c2.66 7.57-.94 12.03-2.57 13.62-1.63 1.58-3.45 4 .15 5.27 3.99 1.41 13.27 3.93 34.07-7.84 20.96-11.87 26.58-15.54 42.37-20 13.23-3.74 32.29-5.81 38.71-7.91 3.73-1.21 3.68-4.88-3.84-6.92z"/><linearGradient id="a" gradientUnits="userSpaceOnUse" x1="12.717" y1="98.709" x2="121.466" y2="59.164"><stop offset=".102" style="stop-color:#828e51"/><stop offset=".93" style="stop-color:#9b9e5a"/></linearGradient><path style="fill:url(#a)" d="M120.78 59.01s2.21 1.85-.55 3.11c-2.81.84-7.98 1.73-13.91 2.75-7.9 1.36-16.86 2.9-24.26 4.99-14.64 4.14-20.85 7.67-37.45 17.1-1.74.99-3.59 2.04-5.59 3.17-10.19 5.77-18.71 8.7-25.32 8.7-1.43 0-4.95-.33-6.65-1.12-1.4-.65-.77-2.39-.77-2.39-2.54 2.5-2.72 4.26.15 5.27 1.53.54 3.83 1.24 7.27 1.24 5.53 0 13.97-1.82 26.8-9.09 20.96-11.87 26.58-15.54 42.37-20 13.23-3.74 32.29-5.81 38.71-7.91 2.26-.74 3.11-2.38 1.76-4.02 0 .02-.83-1.12-2.56-1.8z"/><path style="fill:#757f40" d="M13.93 52.59c3.04 1.32 3.92-2.03 4.26-3.29 1.17-4.3 3.17-12.4 14.69-20.71 2.91-2.1 5.59-4.88 2.09-7.53-3.05-2.31-8.04.17-10.45 2.02-3.76 2.89-7.02 6.55-9.02 10.84C8.96 48 12.86 52.13 13.93 52.59z"/><path style="fill:#4e342e" d="M70.59 81.45c2.93-1.51 10.02-4.31 10.02-4.31-.31-1.35-1.22-3.36-1.22-3.36-3.43.8-10.35 3.71-10.35 3.71l1.55 3.96z"/></svg>