<svg xmlns="http://www.w3.org/2000/svg" viewBox="0 0 128 128" style="enable-background:new 0 0 128 128" xml:space="preserve"><linearGradient id="a" gradientUnits="userSpaceOnUse" x1="41.441" y1="113.507" x2="39.066" y2="116.674"><stop offset=".083" style="stop-color:#000"/><stop offset="1" style="stop-color:#000;stop-opacity:0"/></linearGradient><path style="opacity:.6;fill:url(#a)" d="m35.54 113.91 7.22 5.45v-6l-6.59-.43z"/><linearGradient id="b" gradientUnits="userSpaceOnUse" x1="41.441" y1="83.465" x2="39.066" y2="86.632"><stop offset=".083" style="stop-color:#000"/><stop offset="1" style="stop-color:#000;stop-opacity:0"/></linearGradient><path style="opacity:.6;fill:url(#b)" d="m35.54 83.87 7.22 5.45v-6l-6.59-.44z"/><linearGradient id="c" gradientUnits="userSpaceOnUse" x1="41.441" y1="53.423" x2="39.066" y2="56.59"><stop offset=".083" style="stop-color:#000"/><stop offset="1" style="stop-color:#000;stop-opacity:0"/></linearGradient><path style="opacity:.6;fill:url(#c)" d="m35.54 53.83 7.22 5.45v-6l-6.59-.44z"/><linearGradient id="d" gradientUnits="userSpaceOnUse" x1="41.441" y1="23.382" x2="39.066" y2="26.549"><stop offset=".083" style="stop-color:#000"/><stop offset="1" style="stop-color:#000;stop-opacity:0"/></linearGradient><path style="opacity:.6;fill:url(#d)" d="m35.54 23.79 7.22 5.45v-6l-6.59-.44z"/><path transform="rotate(-180 90.223 64)" style="fill:#9e673c" d="M85.24 3.99h9.97v120.02h-9.97z"/><path transform="rotate(90 97.457 63.988)" style="fill:#e6a467" d="M37.46 60.69h120v6.61h-120z"/><path style="opacity:.6;fill:#784d30" d="m92.46 113.91-7.22 5.45v-6l6.6-.43zm0-30.04-7.22 5.45v-6l6.6-.44zm0-30.04-7.22 5.45v-6l6.6-.44zm0-30.04-7.22 5.45v-6l6.6-.44z"/><path style="fill:#ffcc80" d="m92.63 19.25-57.51.21.62-1.54 4.99-3.67c.21-.16.47-.25.73-.25l43.39.38c.28 0 .56.1.78.28l6.52 3.3.48 1.29z"/><path style="fill:#e6a467" d="M91.61 24.03H36.17c-.58 0-1.04-.47-1.04-1.04v-4.13c0-.58.47-1.04 1.04-1.04h55.44c.58 0 1.04.47 1.04 1.04v4.13c0 .58-.47 1.04-1.04 1.04z"/><path style="fill:#ffcc80" d="m92.63 109.18-57.51.21.62-1.54 4.99-3.67c.22-.16.47-.24.73-.24l43.39.38c.28 0 .56.1.78.28l6.52 3.3.48 1.28z"/><path style="fill:#e6a467" d="M91.61 113.97H36.17c-.58 0-1.04-.47-1.04-1.04v-4.13c0-.58.47-1.04 1.04-1.04h55.44c.58 0 1.04.47 1.04 1.04v4.13c0 .58-.47 1.04-1.04 1.04z"/><path style="fill:#ffcc80" d="m92.63 79.21-57.51.21.62-1.54 4.99-3.67c.22-.16.47-.24.73-.24l43.39.38c.28 0 .56.1.78.28l6.52 3.3.48 1.28z"/><path style="fill:#e6a467" d="M91.61 83.99H36.17c-.58 0-1.04-.47-1.04-1.04v-4.13c0-.58.47-1.04 1.04-1.04h55.44c.58 0 1.04.47 1.04 1.04v4.13c0 .58-.47 1.04-1.04 1.04z"/><path style="fill:#ffcc80" d="m92.63 49.23-57.51.21.62-1.54 4.99-3.67c.22-.16.47-.24.73-.24l43.39.38c.28 0 .56.1.78.28l6.52 3.3.48 1.28z"/><path style="fill:#e6a467" d="M91.61 54.01H36.17c-.58 0-1.04-.47-1.04-1.04v-4.13c0-.58.47-1.04 1.04-1.04h55.44c.58 0 1.04.47 1.04 1.04v4.13c0 .58-.47 1.04-1.04 1.04z"/><path transform="rotate(-180 32.223 64)" style="fill:#9e673c" d="M27.24 3.99h9.97v120.02h-9.97z"/><path transform="rotate(90 39.457 63.988)" style="fill:#e6a467" d="M-20.54 60.69h120v6.61h-120z"/></svg>