<svg xmlns="http://www.w3.org/2000/svg" viewBox="0 0 128 128" style="enable-background:new 0 0 128 128" xml:space="preserve"><radialGradient id="a" cx="64" cy="-2088.9" r="56.96" gradientTransform="matrix(1 0 0 -1 0 -2026)" gradientUnits="userSpaceOnUse"><stop offset=".5" style="stop-color:#fde030"/><stop offset=".919" style="stop-color:#f7c02b"/><stop offset="1" style="stop-color:#f4a223"/></radialGradient><path style="fill:url(#a)" d="M64 118.8c-27.9 0-58-17.5-58-55.9S36.1 7 64 7c15.5 0 29.8 5.1 40.4 14.4C115.9 31.6 122 46 122 62.9s-6.1 31.2-17.6 41.4c-10.6 9.3-25 14.5-40.4 14.5z"/><path style="fill:#eb8f00" d="M111.89 29.67c5.33 8.6 8.11 18.84 8.11 30.23 0 16.9-6.1 31.2-17.6 41.4-10.6 9.3-25 14.5-40.4 14.5-18.06 0-37.04-7.35-48.18-22.94C24.58 110.52 44.81 118.8 64 118.8c15.4 0 29.8-5.2 40.4-14.5C115.9 94.1 122 79.8 122 62.9c0-12.74-3.47-24.06-10.11-33.23z"/><path style="fill:#422b0d" d="M35.34 94.66c-.42 3.53 3.44 3.91 3.44 3.91s28 1.15 36.81 1.16c5.18.01 4.34-5.21-.78-9.08-3.09-2.34-8.07-4.84-19.75-4.84-9.02 0-19.25 4.92-19.72 8.85zm9.38-60.51s1.86-1.07 3.5.26c.91.74 1.37 2.13.37 3.14-4 5.02-14.48 7.99-19.57 6.51a1.83 1.83 0 0 1-1.18-2.32 1.83 1.83 0 0 1 2.03-1.25c6.59-.73 10.9-2.9 14.85-6.34zm25.2-.57s-1.86-1.07-3.5.26c-.91.74-1.37 2.13-.37 3.14 4 5.02 14.48 7.99 19.57 6.51a1.83 1.83 0 0 0 1.18-2.32 1.83 1.83 0 0 0-2.03-1.25c-6.59-.73-10.9-2.9-14.85-6.34z"/><path style="fill:#fff" d="M37.69 96.1c-2.03.3-4.06.54-6.1.74-2.65.25-5.46.39-7.84-.81-1.11-.56-2.07-1.39-3.17-1.95-2.74-1.4-6.15-1.02-8.88.41-2.37 1.23-4.39 3.3-5.11 5.87s.08 5.62 2.26 7.16c3.77 2.66 1.55 3.37 2.57 7.08 1.09 4 5.62 7.03 9.66 5.87 1.45-.42 2.67-1.65 4.11-1.93 1.57-.31 3.19.57 4.76.56 3.3-.02 5.62-3.51 5.96-6.8.17-1.6.03-3.22.3-4.8.85-4.9 5.31-8.17 8.94-11.56 1.73-1.62-1.67-.82-2.26-.7-1.73.33-3.47.61-5.2.86z"/><path style="fill:#92cbeb" d="M6.59 100.35c.72-2.57 2.75-4.64 5.11-5.87 2.73-1.42 6.14-1.81 8.88-.41.13.07.26.15.39.23-1.15-.15-2.3-.29-3.49-.18-1.73.15-3.47.74-4.75 1.92-.5.46-.92 1.01-1.28 1.59-.93 1.5-1.45 3.35-1.02 5.06.34 1.34 1.52 2.84 2.97 3.06 1.6.24 3.04-1.24 4.71-1.03.72.09 1.49.85 1.09 1.46-.24.36-.74.41-1.17.49-1.37.25-2.59 1.22-3.15 2.5-.28.63-.4 1.32-.4 2.01-.01 2.58 1.77 5.08 4.21 5.91 1.58.53 3.37.35 4.84-.41.7-.36 1.1-1.07 1.8-1.41.69-.33 1.69-.38 2.44-.34.81.04 1.61.18 2.42.12 1.92-.15 3.32-1.46 4.12-3.12.91-1.9.56-3.72.82-5.76.22-1.76 1.08-3.4 2.19-4.79 1.06-1.33 2.35-2.52 3.66-3.6.68-.56 1.46-.98 2.22-1.44.28-.17 2.01-1.45 2.24-1.34.26.12.25.39-.32.92-3.63 3.39-8.09 6.66-8.94 11.56-.28 1.58-.14 3.21-.3 4.8-.35 3.29-2.66 6.78-5.96 6.8-1.57.01-3.19-.87-4.76-.56-1.44.28-2.66 1.51-4.11 1.93-4.03 1.17-8.56-1.87-9.66-5.87-1.02-3.71 1.21-4.42-2.57-7.08-2.15-1.53-2.95-4.58-2.23-7.15z"/><path style="fill:#f48fb1" d="M46.02 98.85s4.56-3.54 10.95-3.63c7.81-.11 14.64 4.47 14.64 4.47l-25.59-.84z"/><path style="fill:none;stroke:#422b0d;stroke-width:5;stroke-linecap:round;stroke-miterlimit:10" d="M68.51 58.4H89.3m-64.04 0h20.79"/><path style="fill:#422b0d" d="M28.93 58.97c-.05.47-.08.94-.08 1.44 0 5.88 3.35 9.43 7.04 9.43s7.04-3.55 7.04-9.43c0-.5-.03-.98-.08-1.44H28.93zm43.6-.57c-.09.64-.14 1.31-.14 2.02 0 5.88 3.35 9.43 7.04 9.43s7.04-3.55 7.04-9.43c0-.71-.05-1.38-.14-2.02h-13.8z"/><path style="fill:#eb8f00" d="M67.19 106.24c-1.96.44-3.63.55-5.28.64-1.64.07-3.22.06-4.79-.01-1.57-.07-3.14-.2-4.74-.39-1.62-.21-3.21-.43-5.16-.81l-.11-.28c1.59-.69 3.28-1.08 4.99-1.29 1.71-.22 3.43-.29 5.15-.23 1.72.09 3.43.31 5.11.64 1.69.33 3.34.8 4.94 1.44l-.11.29z"/></svg>