<svg xmlns="http://www.w3.org/2000/svg" viewBox="0 0 1000 1000"><path fill="#ce1126" d="M8 195.25c170.83-85.22 341.03-54.42 513.26-27.97 155.21 23.84 312.16 44.57 470.74-34.53v672c-170.83 85.22-341.03 54.42-513.26 27.97C323.53 808.88 166.58 788.15 8 867.25v-672"/><path fill="#fff" d="M8 363.25c170.83-85.22 341.03-54.42 513.26-27.97 155.21 23.84 312.16 44.57 470.74-34.53v336c-170.83 85.22-341.03 54.42-513.26 27.97C323.53 640.88 166.58 620.15 8 699.25v-336"/><path fill="#ff9c10" d="m462.76 479.19-23.91-4.24v-9.68l23.91 13.92M438.85 460.43V444.3c-.21-.01-2.5.01-2.39-3.17.49-4.26 7.53 3.28 15.5 11.58 3.94 4.1 7.92 8.2 10.89 10.77l-.19 12.88-23.81-15.93M360.82 505.04c-1.04-7.45-1.59-14.99-1.61-22.64.01-3.85.15-7.65.41-11.41l50.14 8.38v31.87l-48.94-6.2M360.63 461.38c1.66-11.73 4.6-22.79 8.7-33.18l40.83 21.38.4 22.64-49.93-10.84M373.05 419.73c4.98-10.24 11.07-19.53 18.2-27.83l22.89 23.13c-.22.16-3.21 2.26-3.3 5.07.13 1.25 1.03 1.99 2.15 2.87 1.14.89 2.04 1.63 2.12 2.89-.45 2.59-3.43 2.59-3.87 4.96.19 2.51 3.38 5.37 3.58 5.54l-5.85 5.41-35.92-22.04M640.3 508.41c.23 3.07.38 6.15.46 9.25l-3.52 25.8-52.99-6.41-.4-31.11 56.45 2.47M638.53 498.74l-53.86.07-.41-23.05 45.3-13.83c.19.48.43.95.62 1.43 2.34 6.62 4.29 13.32 5.84 20.1 1.11 5.07 1.84 10.16 2.51 15.28M607.04 420.9a181.59 181.59 0 0 1 18.46 31.21l-40.43 16.51c-.66-3.06-1.85-5.79-4.36-7.89 2.21-1.2 3.61-3.63 1.85-6.26-.26-.32-.64-.66-1.05-1.01-1.13-.97-2.06-1.77-1.29-3.01l.59-.62c1.62-1.72 3.08-3.32 2.19-5.99-.68-1.98-2.32-3.83-2.54-5.82l26.58-17.12M532.08 490.56l23.1-6.84-.4 9.23-22.7-2.39M532.06 485.51l-.09-10.5 3.61-2.74c6.33-4.8 19.09-14.42 22.48-16.66-.25 4.13-2.38 6.67-2.49 6.8v15.33l-23.51 7.77M398.58 384.15c7.53-7.2 15.82-13.32 24.9-18.3l39.28 68.08-.1 23.68-22.61-25.53c-.24-.05-2.89-.58-3.21-2.91.35-2.78 2.77-1.66 3.09-5.26-.42-3.57-3.81-4.06-4.24-6.82.3-2.8 2.54-1.87 2.83-5.88-.31-3.3-2.7-3.75-7.03-4.52l-2.99-.56c-5.9-1.2-10.63-1.48-11.72.88l-18.2-22.86M463.21 352.98l3.97 8.01c-5.1 3.21-5.67 62.11-5.67 62.7l-28.27-62.55c9.44-3.97 19.42-6.71 29.97-8.16M557.17 374.93c2.72 1.68 5.4 3.43 8.03 5.25l-33.21 55.18.05-25.66c-.03-.63.16-1.31.39-2.02.51-1.6.91-2.79-1.31-3.49a69.24 69.24 0 0 1-11.07-2.06l11.78-39.91 1.31.53c2.76 1.18 5.49 2.46 8.19 3.83 5.34 2.62 10.64 5.35 15.84 8.35M573.1 386c9.89 7.76 18.94 16.53 27.07 26.17l-14.37 13.01c-.89.45-1.76 1.38-2.66 2.42-1.7 1.95-2.95 3.42-4.77 1.77-3.03-1.19-5.97-1.49-9.08-1.72-1.75-.13-3.49-.28-5.23-.59-3.73-.79-8.41.3-5.99 5.21 3.36 2.09 2.92 6.35-.38 7.48-1.88 1.56-.78 2.63.61 4.03 1.11 1.12 1.94 1.96 1.28 3.06l-27.54 22.71.05-24.98L573.1 386"/><path fill="#083d9c" d="M467 621.61c.3.03.59.08.89.13l.44.07c14.27 2.53 18.41 13.92 28.29 16.69 5.09 1.05 9.39-.85 14.37-3.18 4.99-2.34 10-4.57 16.28-4.01 12.44 1.79 27.77 14.14 27.93 14.27l-29.5 5.76c-5.15.19-10.38.09-15.71-.32-10.38-1.63-20.75-3.42-31.14-6.11-12.55-3.97-24.5-9.48-35.78-16.33 5.22-3.18 14.36-7.66 23.93-6.97"/><path fill="#083d9c" d="M466.91 619.87c.24.03.58.08 1.01.15l.41.07c5.83 1.01 11.69 4.21 18.26 10.06 4.29 3.81 7.54 5.89 10.19 6.66 3.06.61 7.24-.32 13.34-3.1 7.08-3.25 12.57-4.55 17.09-4.13 8.68 1.12 18.1 5.89 28.92 14.7l1.62 1.33c-17.72 5.73-37.08 7.35-57.75 4.23-20.99-3.33-40.72-11.13-58.66-22.34 9.27-5.83 17.54-8.27 25.57-7.63m.19 3.48c-6.77-.52-13.75 1.37-21.69 5.96a163.83 163.83 0 0 0 24.16 11.15c10.1 3.24 25.23 6.47 45.48 9.61l.23.04c2.47.05 4.84.07 7.13.04l28.9-5.62c-9.01-6.83-16.81-10.54-23.98-11.48-3.93-.34-8.88.87-15.46 3.88-6.73 3.08-11.59 4.07-15.4 3.27-3.27-.92-7.08-3.31-11.88-7.58-5.97-5.31-11.17-8.18-16.26-9.08l-.47-.08c-.35-.06-.61-.09-.76-.11M412.96 605.26c-2.37-2.3-4.68-4.65-6.94-7.06 7.39-2.12 25.53-6.83 31.64-6.45 3.6.48 8.16 3.17 13.25 6.31 5.75 3.55 11.7 7.1 17.03 7.87 9.98.88 17.51-5.56 30.67-4.16 6.32.93 10.31 3.57 14.52 6.48 4.6 3.17 9.02 6.11 16.56 6.78 6.52.3 8.86-1.15 11.45-2.84 3.16-2.05 6.04-3.87 16.43-2.27 14.07 2.62 26.28 13.69 31.82 19.43l-3.28 2.31c-57.13-7.97-114.28-18.22-173.15-26.4"/><path fill="#083d9c" d="m590.63 628.42-2.44 1.79c-2.07-2.13-4.44-4.32-7.15-6.59-8.3-6.8-15.94-10.71-23.5-12.08-6.64-1.02-11.46-.35-15.42 2.08-3.73 2.32-7.57 3.27-12.3 3.05-5.38-.47-10.99-2.74-17.43-7.1-5.34-3.62-9.76-5.58-13.73-6.17-4.57-.49-10.11.19-17.02 2.15-5.89 1.68-10.31 2.3-13.64 2.01-3.83-.54-9.61-3.14-17.75-8.13-6.31-3.86-10.35-5.74-12.5-6.05-4.57-.33-14.62 1.59-30.45 6.19l-2.56-2.76c16.95-5 27.79-7.06 32.84-6.69 2.68.35 7.2 2.41 13.99 6.56 7.68 4.71 12.99 7.14 16.31 7.62 2.92.24 6.97-.35 12.49-1.92 7.29-2.07 13.22-2.78 18.2-2.24 4.52.66 9.46 2.82 15.29 6.78 5.9 3.99 10.93 6.04 15.7 6.47 4.1.19 7.37-.63 10.6-2.62 4.56-2.82 10.05-3.61 17.45-2.46 8.18 1.47 16.39 5.65 25.2 12.86 2.98 2.5 5.57 4.9 7.82 7.25M584.1 633c-55.81-7.83-111.63-17.79-169.13-25.84l-3.94-3.79c58.41 8.06 116.84 18.6 177.03 26.94-1.3.92-2.62 1.82-3.96 2.69M391.38 580.29c-1.87-2.63-3.68-5.31-5.43-8.04l3.22-1.67c6.31-3.31 14-7.16 19.81-6.61 9.49 1.62 18.39 14.25 28.28 16.82 4.89.89 8.5-1.05 12.79-3.48 4.66-2.63 9.33-5.16 16.29-4.3 13.09 2.32 20.78 14.54 31.08 16.47 10.39 1.29 21.08-7.32 31.47-6.44 5.37.79 10.56 4.45 15.82 8.29 4.97 3.63 9.56 6.82 14.06 7.47 9.18.59 17.1-8.9 28.28-8.14 10.56 2.58 21.21 11.18 24.47 17.48-1.15 1.42-2.32 2.81-3.51 4.17-71.48-9.09-142.97-22.68-216.63-32.02"/><path fill="#083d9c" d="m612.66 606.7-2.06 2.57c-.75-1.78-2.53-4.02-5.75-7.05-5.77-5.21-11.52-8.4-17.84-9.94-3.71-.22-8.42 1.11-14.72 4.23-5.91 2.93-10.19 4.13-13.45 3.92-3.34-.46-8.14-2.92-14.91-7.81-6.84-4.94-11.67-7.45-14.98-7.95-3.23-.27-7.99.72-14.77 3.19-7.5 2.73-12.9 3.73-16.76 3.24-3.6-.67-8.25-3.13-14.44-7.78-6.85-5.14-12.22-7.91-16.64-8.69-4.35-.53-9.22.75-15.38 4.15-5.81 3.2-10.13 4.3-13.82 3.61-3.56-.91-8.34-3.75-14.74-8.9-6.13-4.91-10.42-7.37-13.42-7.9-3.59-.34-9.69 1.66-18.96 6.46-1.15.6-2.21 1.13-3.18 1.59l-1.81-2.84 3.3-1.7c9.79-5.08 16.45-7.18 20.65-6.76 3.64.61 8.51 3.34 15.16 8.68 5.95 4.79 10.23 7.38 13.25 8.17 2.93.52 6.57-.49 11.75-3.34 6.71-3.71 12.18-5.1 17.2-4.47 5 .87 10.91 3.87 18.25 9.39 5.7 4.28 9.81 6.5 12.83 7.09 3.34.41 8.27-.55 15.31-3.11 7.2-2.62 12.41-3.67 16.1-3.34 3.91.57 9.29 3.3 16.66 8.62 6.25 4.51 10.48 6.73 13.21 7.13 2.7.16 6.47-.94 11.9-3.63 6.85-3.39 12.1-4.81 16.4-4.5l.09.01.1.02c6.97 1.66 13.32 5.16 19.61 10.84 2.72 2.56 4.62 4.78 5.86 6.8m-5.96 7.07c-70.62-9.03-141.25-22.41-214.02-31.69l-2.56-3.57c72.32 9.11 144.64 22.92 219.16 32.34l-2.58 2.92M472.46 569.44c-.48-.59 9.51-14.16 25.36-12.63 14.24 1.54 25.35 19.63 25.33 20.42l-50.69-7.79"/><path fill="#083d9c" d="M474.05 571.3v.01l-1.59-.25c-1-.2-1.45-.68-1.61-1.73-.02-.2-.01-.39.03-.6v-1.15l.49.07c.31-.49.73-1.05 1.26-1.69 1.52-1.78 3.26-3.42 5.31-5.01 6.43-4.72 12.72-6.54 19.79-5.77 6.45.6 12.56 4.08 19.2 11.02 2.09 2.26 3.96 4.58 5.65 7.02 1.97 3 2.41 4.46 1.69 5.33l-.46.4-49.76-7.65m1.16-3.06 45.1 6.93-.23-.34a60.284 60.284 0 0 0-5.25-6.53c-5.99-6.24-11.32-9.32-16.88-9.85h-.04l-.05-.01c-6.32-.68-11.94.97-17.82 5.26-1.86 1.44-3.45 2.93-4.83 4.54M627.29 582.93c-1.14 2.37-2.32 4.68-3.56 6.96l-58.99-7.67c.22-.1 8.6-4.15 11.42-8.71 4.41 3.26 3.34 5.24 12.25 7.04 4.64.64 8.85-1.2 13.34-3.3 4.41-2.06 8.43-3.84 12.77-3.3 4.26.92 8.84 4.83 12.77 8.98"/><path fill="#083d9c" d="m627.96 581.48-1.39 2.93c-5.04-5.41-8.87-8.15-12.12-8.85-2.62-.31-6.36.66-11.9 3.19-6.27 2.87-10.77 3.9-14.21 3.41-4.59-.92-7.72-2.45-10.2-4.9-.51-.53-.99-1-1.45-1.42-1.5 1.93-3.58 3.7-6.56 5.53l54.42 6.99-1.68 3.05-63.98-8.41 5.05-2.3c5.79-2.7 9.16-5.29 10.81-8.12l.74-1.39 1.43.99c1.05.75 2.15 1.72 3.34 2.96 1.9 1.85 4.4 3.03 8.22 3.8 2.82.37 6.75-.58 12.48-3.2 6.07-2.77 10.39-3.82 13.63-3.4 3.81.78 8.04 3.63 13.37 9.14M376.27 554.99c-1.78-3.66-3.43-7.38-4.97-11.16 3.08-2.01 6.03-3.29 9.05-3.24 4.3.49 8.37 3.26 12.76 6.41 4.48 3.22 8.76 6.16 13.35 6.74 8.95.58 7.8-1.66 12.24-3.73 2.78 5.25 11.28 11.81 11.43 11.92l-53.86-6.94"/><path fill="#083d9c" d="m377.13 556.71-1.68-3.43 49.29 6.27c-2.96-2.64-5.08-5.03-6.56-7.35-.46.29-.95.63-1.45 1.02-2.49 1.79-5.59 2.46-10.2 2.15-3.4-.41-7.96-2.64-14.21-7.07-5.53-3.91-9.31-5.77-11.9-6.08-2.46-.04-5.03.91-8.47 3.21l-1.28-3.18c3.75-2.38 6.71-3.36 9.6-3.29 3.21.35 7.57 2.44 13.64 6.73 5.72 4.06 9.7 6.06 12.48 6.42 3.85.25 6.3-.25 8.22-1.59 1.19-.92 2.28-1.58 3.34-2.04l1.43-.6.74 1.59c1.62 3.25 5.05 6.84 10.8 11.17l5.06 3.75-58.85-7.68M366.99 531.9c-1.32-4.18-2.49-8.4-3.51-12.69 3.65 3.55 9.74 8.53 16.01 9.24 3.68.1 7.31-1.54 11.46-3.52 6.41-3.08 12.89-6.05 20.81-2.53.57 8.57 3.55 15.73 3.58 15.81l-48.35-6.31"/><path fill="#083d9c" d="M367.54 533.59c-1.85-5.63-3.41-11.35-4.68-17.17 5.88 6.6 11.11 9.85 16.56 10.4 2.22.04 5.62-.99 10.72-3.39 9.33-4.36 16.33-5.11 22.13-2.5l1.02.5.05 1.11c.32 5.51 1.44 10.45 3.43 15.17l1.09 2.49-50.32-6.61m-.47-3.3 45.85 5.95c-1.43-4.06-2.31-8.25-2.67-12.8-4.77-1.59-10.6-.7-18.5 2.98-5.56 2.61-9.45 3.75-12.19 3.66-5.11-.5-9.88-2.88-15.11-7.62l2.62 7.83M629.67 568.48l-49.4-5.75c.05-.09 3.01-6.36 3.59-14.83 7.88-1.39 14.41 3.26 20.81 7.91 4.13 3 7.82 5.53 11.46 6.28 9.39 1.03 18.46-7.72 18.72-7.98l-5.18 14.37"/><path fill="#083d9c" d="m629.69 570.1-51.93-6.07 1.08-2.19c2-4.18 3.12-8.79 3.44-14.24l.05-1.1 1.02-.21c5.77-1.04 12.8 1.55 22.12 8.22 5.1 3.65 8.54 5.5 10.73 5.97 5.78.77 11.26-1.59 17.49-7.6l2.66 1.93-5.49 15.24-1.05.06-.12-.01m-1.14-3.36 2.62-7.27c-5.24 3.63-9.96 4.94-15.11 4.24-2.71-.55-6.64-2.62-12.19-6.6-7.89-5.65-13.76-8.08-18.49-7.77-.37 4.47-1.25 8.41-2.68 12.08l45.85 5.32M485.11 548.46c-.02.02-.03.02-.05 0h.05c.02-.04.05-.18.08-.4.3-1.98 1.07-7.5 12.22-6.16 13.1 2.49 12.75 9.3 12.74 9.64l-25.04-3.08"/><path fill="#083d9c" d="M485.61 550.15c-.6.14-1.07-.05-1.67-.71l-3.03-3.55 2.9.66c1.5-5.46 5.58-7.35 13.6-6.27 6.11 1.05 9.94 3.03 12.52 6.36 1.29 1.89 1.83 3.48 1.81 5.23l-.08 1.47-26.05-3.19m1.5-3.06 21.16 2.59c-.19-.43-.44-.88-.78-1.35-1.95-2.44-4.96-3.91-10.08-4.81-5.91-.77-8.88.27-10.3 3.57m-2.36-.33.34.08.37.05a1.19 1.19 0 0 0-.71-.13"/><path fill="#ce1126" d="m524.1 485.92-52.19-22.17-.4-94.03c4.86-11.12 9.48-20.92 50.99-8.68-42.28-2.64-22.26 46.4 1.6 49.45v75.43"/><path fill="#630810" d="M471.5 465.26c-.8-.39-1.14-.88-1.18-1.75v-.07l-.39-93.96c0-.22.04-.42.12-.61 3.42-7.61 7.38-11.95 12.53-13.84 8.1-2.59 21.21-1.17 40.15 4.44.86.31 1.24.78 1.35 1.7.03 1.13-.36 1.54-1.46 1.51-9.55-.63-15.76 1.13-19.79 5.54-3.21 3.97-4.08 8.67-2.79 15.26 1.44 6.22 4.28 11.61 8.86 16.75 4.92 5.24 9.67 7.93 15.12 8.63.02 0 .05 0 .08.01 1.09.23 1.52.74 1.58 1.86v75.43c0 .14-.02.27-.05.4-.16.52-.36.8-.69.97-.35.13-.71.1-1.25-.11l-52.19-22.16m1.99-2.52 49.02 20.83v-71.68c-5.69-1.16-10.69-4.19-15.76-9.6-5.05-5.68-8.21-11.66-9.79-18.56-1.53-7.64-.46-13.21 3.37-17.89 2.86-3.15 6.46-5.05 11.53-6.06-12.84-3.03-21.91-3.52-27.91-1.62-4.36 1.64-7.77 5.4-10.85 12.12l.39 92.46"/><path fill="#ce1126" d="M483.5 533.7c-13.21 51.76-57.43 34.79-65.62-7.15l-.71-83.77c.47-1.58 4.44-1.98 4.96-3.99-.05-.99-.67-1.71-1.54-2.65-1.07-1.17-2.09-2.35-2.36-4.35.03-1.07.9-1.43 2.05-1.89 1.19-.47 2.12-.86 2.21-2.02-.15-1.35-1.18-2.44-2.39-3.63-1.14-1.12-2.01-2.04-2.07-3.09.55-1.96 3.06-3.21 3.41-5.51-.08-1.63-1.1-2.83-1.98-3.8-1.06-1.18-1.48-1.59 1.96-1.17l8.69 1.04c.03 0 3.12.52 3.86.6-.29.22-.74.48-1.28.78-1.79 1-3.71 2.14-3.82 4.01.76 2.88 5.23 3.46 6.03 6.6-.01 1.47-1 1.84-2.35 2.34-1.37.5-2.46.92-2.61 2.51.59 3.18 4.47 2.78 4.96 5.93-.13 1.73-1.23 2.33-2.54 3.01-1.18.62-2.03 1.08-2.07 2.32.48 2.58 3.36 4.45 3.55 4.57-.01.55-.96 80.46.87 82.11 7.56 14.35 36.93 24.28 48.79 7.2"/><path fill="#630810" d="M482.05 532.8c.36-.79.85-.96 1.83-.62.52.23.84.49 1.06.85.18.38.22.77.1 1.29v.01c-3.21 12.7-8.1 21.57-14.99 27.36-6.54 5.17-13.27 6.8-21.33 5.17-7.63-1.79-14.12-6.03-20.24-13.26-6.13-7.55-10.1-16.33-12.16-26.95-.02-.1-.03-.2-.03-.3l-.3-41.93-.41-41.87c.12-1.24.98-2.11 3.1-3.05 1.28-.54 1.81-.84 1.87-.97-.03-.16-.33-.58-1.03-1.35-1.79-2.01-2.64-3.67-2.87-5.48 0-1.49.8-2.43 2.9-3.34.93-.37 1.32-.58 1.36-.66-.07-.4-.6-1.12-1.82-2.34-1.84-1.88-2.6-3.21-2.64-4.49 0-.05.01-.1.01-.15.19-.97.79-1.97 2-3.25.93-.98 1.34-1.61 1.4-2.08-.04-.6-.47-1.36-1.49-2.51-1.33-1.56-1.55-2.49-.83-3.43.6-.52 1.71-.66 3.85-.4l5.94.71 2.75.33c.28.04.52.13.77.29.04.01 1.04.13 3.04.31.52.07.89.28 1.25.71.36.47.51.85.51 1.25-.04.39-.22.7-.62 1.03-.24.18-.72.48-1.45.89-2.19 1.25-3.06 2.02-3.13 2.63.09.36.66.86 1.98 1.67 2.61 1.65 3.77 3.09 4.05 4.94.02 1.79-.87 2.84-3.23 3.79-1.16.44-1.64.78-1.73 1.17.09.38.52.78 1.51 1.33 2.36 1.39 3.33 2.71 3.46 4.61-.12 1.81-1.04 3.03-3.27 4.28-.94.49-1.31.77-1.35.95.16 1.08.9 1.97 2.62 3.06.64.43.91.9.93 1.64-.82 53.48-.82 79.84-.28 80.36.43.2.72.48.96.92 3.81 7.31 10.63 11.87 21.52 14.39 11.47 2.38 19.17.02 24.43-7.51m-2.19 7.43c-5.75 4.24-12.87 5.29-22.46 3.29-12.04-2.78-19.71-8.02-24.08-16.44l.35-.15c-1.62-5.68-2.16-32.83-1.43-81.77-2.26-1.71-3.28-3.31-3.53-5.46.02-1.53.79-2.57 2.79-3.68 1.25-.68 1.76-1.19 1.82-1.76-.05-.36-.45-.74-1.45-1.3-2.34-1.37-3.34-2.68-3.52-4.57v-.06c.14-1.8 1.11-2.88 3.5-3.84 1.03-.39 1.44-.64 1.47-.87-.11-.49-.73-1.08-2.18-1.97-2.49-1.58-3.59-2.93-3.85-4.64-.01-1.34.58-2.43 2.08-3.76l-1.98-.24-5.63-.67c.87 1.33 1.25 2.43 1.26 3.57-.1 1.29-.74 2.5-2.19 4.03-.7.74-1.08 1.24-1.2 1.56.09.19.56.73 1.48 1.64 1.97 2.01 2.83 3.49 2.96 4.92-.07 1.51-.92 2.46-3.06 3.38-.61.24-.98.43-1.16.55l-.04-.11c.13.92.68 1.9 1.85 3.21 1.42 1.59 2.02 2.78 2.06 3.97-.16 1.44-1.14 2.43-3.53 3.5-.69.29-1.14.5-1.35.64l-.09-.19.41 41.81.3 41.78c1.95 9.92 5.64 18.07 11.31 25.08 5.55 6.55 11.35 10.36 18.17 11.98 7.12 1.42 13.07-.03 18.93-4.65 5.09-4.29 8.98-10.36 11.99-18.78"/><path fill="#ce1126" d="M513.2 538.3c11.88 20.76 41.18 19.7 48.79 7.44 1.9-1.16.88-81.22.87-81.86.23-.08 3.06-1.05 3.55-3.56-.03-1.22-.84-1.95-1.93-2.88-1.22-1.04-2.26-1.98-2.38-3.73.49-3.14 4.08-1.39 4.66-4.54-.13-1.61-1.15-2.41-2.4-3.33-1.23-.91-2.16-1.63-2.16-3.09.66-3.12 3.63-2.36 4.23-5.24-.03-2.19-1.48-3.71-2.82-5.03-.26-.24-.49-.47-.68-.68.75.13 3.63.47 3.66.47l8.69 1.41c3.43.53 3.03.82 1.97 1.71-.9.74-1.9 1.62-1.99 3.26.34 2.31 2.88 4.4 3.41 6.44-.06 1.06-.92 1.71-2.07 2.52-1.22.87-2.23 1.64-2.39 2.97.09 1.17 1.04 1.84 2.21 2.64 1.15.77 2.02 1.39 2.05 2.45-.27 1.96-1.27 2.82-2.36 3.69-.88.72-1.49 1.24-1.54 2.23.49 2.04 4.52 3.76 4.96 5.36l-.7 83.58c-8.25 39.96-52.41 43.65-65.63-12.23"/><path fill="#630810" d="M511.66 538.44c-.2-1.14.11-1.62 1.17-1.78.97-.04 1.47.28 1.83 1.19 5.23 9.1 13 13.88 24.43 14.95 10.93.76 17.68-1.8 21.51-8.04.24-.38.52-.56.97-.65.55-.37.53-26.69-.29-80.43.02-.75.28-1.13.93-1.37 1.74-.61 2.46-1.26 2.62-2.32-.03-.2-.39-.61-1.25-1.35-2.08-1.85-2.96-3.37-3.07-5.15.12-1.89 1.02-2.9 3.28-3.63.92-.28 1.31-.55 1.39-.94-.08-.45-.54-.98-1.61-1.79-2.14-1.67-2.97-3.03-2.95-4.74.23-1.67 1.06-2.78 2.89-3.85.89-.51 1.27-.9 1.34-1.37-.02-.91-.66-1.97-2.24-3.57-.35-.34-.59-.59-.74-.75-.78-.91-.81-1.53-.11-2.3.37-.33.73-.44 1.25-.36 1.88.37 2.83.52 2.88.53.24-.08.47-.1.73-.07l4.18.69 4.51.72c2.13.33 3.26.78 3.85 1.46.73 1.14.5 2.01-.83 3.2-1.02.87-1.44 1.49-1.48 2.1.05.48.46 1.24 1.39 2.47 1.21 1.6 1.82 2.79 2 3.8.01.05.01.1.01.15-.04 1.29-.78 2.38-2.64 3.76-1.23.89-1.75 1.44-1.81 1.84.03.09.43.41 1.35 1.04 2.09 1.48 2.9 2.66 2.9 4.14-.23 1.77-1.06 3.16-2.87 4.69-.7.58-1 .9-1.03 1.06.05.13.6.6 1.87 1.48 2.1 1.52 2.98 2.66 3.1 3.91l-.41 41.75-.3 41.85c0 .1-.01.2-.03.29-2.06 10.1-6.01 17.73-12.16 23.57-6.13 5.51-12.56 7.86-20.23 7.39-8.02-.76-14.82-4.45-21.33-11.59-6.88-7.88-11.8-18.34-15-31.98m5.18 7.5c3 9.31 6.93 16.64 11.99 22.45 5.84 6.39 11.85 9.67 18.94 10.35 6.86.4 12.59-1.71 18.16-6.69 5.69-5.41 9.36-12.48 11.31-21.91l.3-41.7.41-41.7-.09.17c-.21-.19-.66-.53-1.35-1.01-2.37-1.72-3.37-3.03-3.53-4.49.05-1.19.64-2.18 2.06-3.39 1.19-.99 1.72-1.8 1.85-2.7l-.04.1c-.17-.17-.55-.46-1.16-.87-2.12-1.5-2.98-2.72-3.06-4.23.13-1.43.98-2.62 2.97-4.1.92-.66 1.38-1.05 1.48-1.23-.13-.35-.51-.96-1.21-1.88-1.44-1.93-2.09-3.36-2.19-4.64.02-1.16.39-2.13 1.26-3.22l-4.2-.68-3.97-.65c.91 1.45 1.28 2.65 1.24 3.94-.2 1.55-.98 2.6-2.74 3.63-.97.55-1.4 1.03-1.49 1.62.02.29.41.71 1.37 1.44 2.16 1.67 3.08 3.08 3.2 4.83v.06c-.17 1.85-1.1 2.85-3.34 3.59-.92.28-1.28.54-1.33.91.06.6.54 1.28 1.7 2.29 1.86 1.65 2.6 2.94 2.61 4.42-.25 2.12-1.24 3.38-3.53 4.45.74 49.16.19 76.17-1.43 81.37l.35.25c-4.38 7.2-11.99 10.2-24.08 9.36-9.55-.89-16.72-4.14-22.46-10.14M469.92 535.23l-17.92-2.7c4.2-4.56 11.84-8.24 11.95-8.29l17.13 2.21c-2.98 5.21-6.66 6.97-11.16 8.78"/><path fill="#630810" d="m471.01 537.46-.99-2.03.08 2.17-.18-.64v.62l-22.61-3.39 2.88-3.37c2.93-3.3 7-6.16 12.59-8.77l.51-.24 21.55 2.79-1.72 3.23c-2.33 4.1-6.13 7.15-12.11 9.63m-1.67-4.66c3.1-1.35 5.44-2.82 7.31-4.58l-12.05-1.55c-2.86 1.37-5.26 2.8-7.3 4.31l12.04 1.82M525.29 543.77c-4.46-3.17-8.2-6.13-11.15-12.21l17.12 3.03c.07.05 7.79 6.12 11.95 11.89l-17.92-2.71"/><path fill="#630810" d="M524.2 545.66c-5.93-4.28-9.8-8.58-12.11-13.35l-1.72-3.76 21.55 3.81.51.39c5.57 4.29 9.68 8.41 12.59 12.56l2.88 4.22-22.61-3.42v-.42l-.12.4.06-2.22-1.03 1.79m1.67-4.15 12.04 1.83c-2.04-2.12-4.45-4.28-7.3-6.52l-12.05-2.12c1.86 2.3 4.23 4.53 7.31 6.81M438.85 511.33l117.92 18.28c1.58.33 2.21 1.06 2.28 2.69-.02.81-.19 1.3-.57 1.67-.43.33-.93.43-1.72.33l-117.92-18.29c-1.58-.32-2.21-1.05-2.29-2.68.03-.81.2-1.3.58-1.67.43-.33.93-.43 1.72-.33M446.25 484.71l13.94 21.03c.89 1.49.77 2.36-.45 3.22-1.31.71-2.18.46-3.2-.94L442.59 487c-.89-1.48-.76-2.35.45-3.22 1.32-.72 2.19-.46 3.21.93"/><path fill="#630810" d="m442.66 503.04 15.14-16.31c1.09-1.03 1.96-.98 3.23.19 1.16 1.29 1.24 2.19.29 3.35l-15.14 16.3c-1.09 1.03-1.95.98-3.23-.18-1.16-1.28-1.24-2.18-.29-3.35"/><path fill="#630810" d="m454.68 486.23-.4 11.63c-.05.81-.24 1.29-.63 1.65-.43.31-.94.39-1.74.26-1.57-.37-2.18-1.12-2.2-2.75l.39-11.64c.05-.8.24-1.28.63-1.64.44-.31.95-.39 1.74-.27 1.58.38 2.18 1.13 2.21 2.76M468.56 488.05l13.94 21.1c.89 1.48.77 2.35-.45 3.21-1.31.71-2.18.45-3.2-.95l-13.95-21.09c-.89-1.48-.76-2.35.45-3.21 1.32-.71 2.19-.46 3.21.94"/><path fill="#630810" d="m464.97 506.37 15.14-16.24c1.09-1.03 1.96-.98 3.23.2 1.16 1.28 1.24 2.19.29 3.35l-15.14 16.23c-1.09 1.03-1.96.97-3.23-.2-1.16-1.28-1.24-2.19-.29-3.34"/><path fill="#630810" d="m476.99 489.61-.4 11.63c-.05.81-.24 1.29-.63 1.64-.43.31-.94.39-1.74.26-1.57-.38-2.18-1.14-2.2-2.76l.39-11.64c.05-.8.24-1.28.63-1.64.44-.3.95-.38 1.74-.26 1.58.39 2.18 1.14 2.21 2.77M491.27 491.54l13.94 21.12c.89 1.49.77 2.35-.45 3.21-1.32.71-2.19.45-3.21-.96l-13.94-21.11c-.89-1.49-.77-2.36.45-3.22 1.32-.7 2.18-.44 3.21.96"/><path fill="#630810" d="m487.68 509.85 15.14-16.21c1.08-1.03 1.95-.98 3.23.2 1.16 1.29 1.24 2.19.28 3.35l-15.14 16.21c-1.08 1.02-1.95.97-3.22-.21-1.16-1.28-1.24-2.19-.29-3.34"/><path fill="#630810" d="m499.69 493.11-.39 11.64c-.05.8-.24 1.28-.63 1.64-.44.3-.94.38-1.74.25-1.58-.38-2.18-1.14-2.21-2.76l.4-11.64c.05-.8.24-1.28.63-1.64.44-.3.94-.38 1.74-.25 1.57.38 2.18 1.14 2.2 2.76M514.77 495.18l13.94 21.1c.89 1.48.77 2.35-.45 3.21-1.31.71-2.18.45-3.2-.95l-13.95-21.1c-.88-1.49-.76-2.36.46-3.22 1.31-.7 2.18-.45 3.2.96"/><path fill="#630810" d="m511.19 513.48 15.14-16.22c1.08-1.03 1.95-.98 3.22.2 1.16 1.28 1.24 2.19.29 3.34l-15.14 16.23c-1.08 1.03-1.95.97-3.23-.2-1.16-1.29-1.24-2.19-.28-3.35"/><path fill="#630810" d="m523.2 496.74-.4 11.63c-.05.81-.23 1.29-.63 1.65-.43.3-.94.38-1.74.25-1.57-.38-2.18-1.14-2.2-2.76l.4-11.64c.04-.8.23-1.28.63-1.64.43-.3.94-.38 1.73-.25 1.58.38 2.18 1.14 2.21 2.76M537.48 498.65l13.94 21.04c.89 1.48.77 2.35-.45 3.22-1.31.71-2.18.46-3.2-.94l-13.95-21.05c-.89-1.49-.77-2.36.45-3.22 1.32-.71 2.19-.45 3.21.95"/><path fill="#630810" d="m533.89 516.96 15.14-16.28c1.09-1.03 1.95-.98 3.23.19 1.16 1.27 1.24 2.18.29 3.34l-15.14 16.29c-1.09 1.03-1.96.98-3.23-.19-1.16-1.28-1.24-2.19-.29-3.35"/><path fill="#630810" d="m545.91 500.18-.4 11.64c-.05.8-.24 1.28-.63 1.64-.43.31-.94.39-1.74.26-1.57-.37-2.18-1.13-2.21-2.75l.4-11.64c.05-.8.24-1.28.63-1.64.44-.31.95-.39 1.74-.26 1.58.37 2.18 1.13 2.21 2.75"/><path fill="#1A1A1A" opacity=".2" d="M8 195.25c170.83-85.22 341.03-54.42 513.26-27.97 155.21 23.84 312.16 44.57 470.74-34.53v672c-170.83 85.22-341.03 54.42-513.26 27.97C323.53 808.88 166.58 788.15 8 867.25v-672m31.25 19.39v604.5c306.56-128.26 611.18 96.04 921.5-33.78v-604.5c-306.56 128.26-611.18-96.04-921.5 33.78"/></svg>