<svg xmlns="http://www.w3.org/2000/svg" viewBox="0 0 128 128" style="enable-background:new 0 0 128 128" xml:space="preserve"><path style="fill:#ef5592" d="M78.41 3.74C67.87 3.74 64 14.5 64 14.5S60.18 3.74 49.57 3.74c-7.97 0-17.07 6.32-13.71 20.68 3.36 14.36 28.16 32.26 28.16 32.26s24.72-17.9 28.08-32.26c3.36-14.36-5.08-20.68-13.69-20.68z"/><path style="fill:#da2e75" d="M47.94 4.81c8.27 0 12.38 8.89 13.71 12.5.19.51.91.53 1.12.03l1.21-2.83c-1.71-5.45-6.4-10.77-14.41-10.77-3.32 0-6.82 1.1-9.55 3.41 2.4-1.59 5.23-2.34 7.92-2.34zm30.47-1.07c-2.55 0-4.7.74-6.51 1.85 1.27-.49 2.68-.78 4.23-.78 7.8 0 14.77 5.91 11.62 19.58-2.7 11.73-18.5 25.96-23.32 31.39-.31.35-.41.91-.41.91s24.72-17.9 28.08-32.26c3.36-14.37-5.72-20.69-13.69-20.69z"/><path style="fill:#f386ab" d="M41.4 11.36c1.8-2.25 5.03-4.11 7.76-1.97 1.48 1.16.83 3.54-.49 4.54-1.93 1.46-3.6 2.34-4.77 4.63-.7 1.38-1.13 2.88-1.34 4.42-.08.61-.88.75-1.18.22-2.04-3.6-2.61-8.55.02-11.84zm28.91 4.73c-.85 0-1.44-.82-1.13-1.61a19.31 19.31 0 0 1 2.2-4.11c1.32-1.85 3.82-2.92 5.41-1.81 1.63 1.15 1.42 3.43.27 4.54-2.45 2.39-5.53 2.99-6.75 2.99z"/><path style="fill:#232020" d="M5.43 74.62c.06-.26 4.95-29.34 30.8-27.08 15.04 1.31 25.48 11.52 25.6 26.61.04 5.32.22 14.51-.22 18.69-1.83 17.58-7.74 28.43-8.53 28.63-4.16 1.02-41.34 3.35-44.09-2.23-6.34-12.8-5-35.68-3.56-44.62z"/><linearGradient id="a" gradientUnits="userSpaceOnUse" x1="1210.798" y1="123.518" x2="1210.798" y2="110.865" gradientTransform="matrix(-1 0 0 1 1241.643 0)"><stop offset="0" style="stop-color:#530eeb"/><stop offset="1" style="stop-color:#651fff"/></linearGradient><path style="fill:url(#a)" d="M27.08 111.11h7.52c8.69-.66 21.56 3.24 24.47 12.89H2.61c2.91-9.64 15.78-13.55 24.47-12.89z"/><path style="fill:#3c2b24" d="M30.61 117.83a6.8 6.8 0 0 1-6.8-6.8v-4.54h13.61v4.54a6.816 6.816 0 0 1-6.81 6.8z"/><path style="fill:#70534a" d="M37.51 55.63C25.36 54.14 13 61.79 10.64 80.95c-1.89 15.39 6.52 25.66 14.46 29.61 1.89.94 3.76 1.53 5.45 1.74 1.68.21 3.62.09 5.67-.36 8.66-1.9 19.33-9.84 21.23-25.25 2.35-19.16-7.79-29.57-19.94-31.06z"/><path style="fill:#33251f" d="M36.63 94.22a.584.584 0 0 0-.22-.08l-4.94-.61c-.08 0-.15.01-.23.03-.47.13-.77.56-.62 1.08.15.52.96 2.03 2.94 2.27 1.98.24 3.13-1.02 3.41-1.49.28-.47.09-.96-.34-1.2z"/><path style="fill:#1a1717" d="M29.03 80.21c-.55-.95-1.91-2.4-4.85-2.76s-4.61.71-5.37 1.5a.9.9 0 0 0-.15 1.09c.16.27.68.57 1.31.44.63-.13 1.89-.6 3.88-.37 1.99.26 3.1 1.02 3.68 1.3.58.28 1.16.12 1.38-.11a.91.91 0 0 0 .12-1.09zm23.2 2.85c-.55-.95-1.91-2.4-4.85-2.76s-4.61.71-5.37 1.5a.9.9 0 0 0-.15 1.09c.16.27.68.57 1.31.44.63-.13 1.89-.6 3.88-.37 1.99.26 3.1 1.02 3.68 1.3.58.28 1.16.12 1.38-.11.24-.24.37-.67.12-1.09z"/><ellipse transform="rotate(-82.998 46.345 88.832)" style="fill:#1a1717" cx="46.34" cy="88.83" rx="3.59" ry="3.46"/><ellipse transform="rotate(-82.998 23.135 85.983)" style="fill:#1a1717" cx="23.13" cy="85.98" rx="3.59" ry="3.46"/><path style="fill:#1a1717" d="M39.11 100.32c-2.39 1.05-9.67.15-11.73-1.44-1.18-.92-2.63.08-2.24 1.31.38 1.2 4.03 4.34 7.47 4.76 3.44.42 7.69-1.74 8.35-2.82.67-1.09-.48-2.41-1.85-1.81z"/><path style="fill:#232020" d="M36.22 47.55C10.37 45.29 5.49 74.36 5.43 74.62c-.67 4.18-1.32 11.4-1.18 19.21l7.24.51c-.22-3.96 2.88-19.14 9.42-19.61 16.27-1.19 23.71-8.59 23.71-8.59 1.7 5.36 8.36 11.2 10.74 13.41 1.95 1.81.84 11.69.47 14.4h5.66l.12-1.09c.43-4.18.26-13.37.22-18.69-.13-15.11-10.57-25.31-25.61-26.62z"/><radialGradient id="b" cx="33.662" cy="88.578" r="30.737" gradientTransform="matrix(.9988 .0497 -.0666 1.3393 5.94 -31.722)" gradientUnits="userSpaceOnUse"><stop offset=".765" style="stop-color:#444140;stop-opacity:0"/><stop offset=".966" style="stop-color:#444140"/></radialGradient><path style="fill:url(#b)" d="M61.82 74.15c-.12-15.09-10.56-25.29-25.6-26.61C10.37 45.29 5.49 74.36 5.43 74.62c-1.34 8.35-2.6 28.87 2.4 41.97 5.33-4.24 13.28-5.94 19.25-5.48h7.52c6.52-.5 15.39 1.57 20.64 6.71 2.12-4.59 5.14-13.29 6.35-24.98.45-4.17.27-13.37.23-18.69z"/><linearGradient id="c" gradientUnits="userSpaceOnUse" x1="97.236" y1="123.518" x2="97.236" y2="110.865"><stop offset="0" style="stop-color:#009e89"/><stop offset="1" style="stop-color:#00bfa5"/></linearGradient><path style="fill:url(#c)" d="M101 111.11h-7.52c-8.7-.66-21.57 3.25-24.48 12.89h56.46c-2.89-9.64-15.77-13.55-24.46-12.89z"/><path style="fill:#edc391" d="M97 117.83a6.8 6.8 0 0 1-6.8-6.8v-4.54h13.61v4.54a6.816 6.816 0 0 1-6.81 6.8zm15-38.17-5.18.64-28.03 3.44-5.18.64c-4.14.51-7.08 4.53-6.54 8.94.54 4.41 4.37 7.6 8.51 7.09l5.18-.64 28.03-3.44 5.18-.64c4.14-.51 7.08-4.53 6.54-8.94-.54-4.4-4.37-7.59-8.51-7.09z"/><path style="fill:#f9ddbd" d="M89.33 53.67c-12.22 1.5-21.94 15.96-19.63 34.77 2.3 18.71 15.09 26.52 26.97 25.07 11.88-1.46 22.4-12.14 20.11-30.85-2.31-18.81-15.23-30.49-27.45-28.99z"/><path style="fill:#454140" d="M74.86 84.31c1.85-3.44 7.08-4.19 10.05-1.82.51.41 1.07.96.81 1.68-.29.8-1.08.77-1.75.59-1.79-.48-3.59-.57-5.38.03-.77.26-1.41.67-2.13 1.03-.97.48-2.13-.45-1.6-1.51zM107.69 82c-1.65-.49-3.28-.69-4.99-.28a9.4 9.4 0 0 0-2.22.87c-.55.3-1.14.75-1.79.42-1.86-.97.95-3.28 1.8-3.78 1.84-1.08 4.16-1.28 6.15-.53.79.3 1.67.76 2.2 1.44.67.84-.01 2.16-1.15 1.86z"/><ellipse transform="rotate(-7.002 80.837 89.317)" style="fill:#312d2d" cx="80.86" cy="89.34" rx="3.49" ry="3.61"/><ellipse transform="rotate(-7.002 104.188 86.45)" style="fill:#312d2d" cx="104.22" cy="86.47" rx="3.49" ry="3.61"/><path style="fill:#dba689" d="M96.04 94.06a.97.97 0 0 0-.23-.03l-4.97.61c-.07.02-.15.05-.22.09-.43.24-.62.73-.34 1.21.27.47 1.43 1.74 3.43 1.5 1.99-.24 2.81-1.76 2.96-2.28.15-.53-.15-.97-.63-1.1z"/><path style="fill:#444" d="M99.94 99.35c-2.07 1.61-9.41 2.51-11.81 1.45-1.38-.61-2.55.72-1.87 1.83.66 1.08 4.99 3.25 8.45 2.83 3.46-.42 7.08-3.57 7.47-4.78.39-1.24-1.05-2.25-2.24-1.33z"/><path style="fill:#312d2d" d="M88.81 49.43h-.02c-31.89 4.1-20.88 39.74-20.88 39.74s1.89 3.58 2.75 5.16c.12.23.47.16.49-.1.31-3.13.44-14.24 1.27-17.67.49-2.03 2.36-3.39 4.44-3.28 5.19.28 13.86-.41 13.88-.42 5.5-.67 11.38-1.99 14.44-2.94 1.99-.62 4.14.26 5.1 2.11 1.63 3.12 5.39 13.57 6.46 16.57.09.25.44.23.5-.03l1.43-5.64c.01 0 2.07-37.24-29.86-33.5z"/><radialGradient id="d" cx="117.789" cy="8.938" r="26.951" gradientTransform="matrix(.9925 -.1219 .1375 1.1198 -25.63 84.027)" gradientUnits="userSpaceOnUse"><stop offset=".794" style="stop-color:#454140;stop-opacity:0"/><stop offset="1" style="stop-color:#454140"/></radialGradient><path style="fill:url(#d)" d="M118.68 82.93s2.06-37.25-29.87-33.5h-.02c-.5.06-.98.13-1.46.21a34.325 34.325 0 0 0-2.75.57c-.06.02-.12.03-.18.05-26.45 6.68-16.49 38.91-16.49 38.91l2.75 5.13c.12.23.46.16.49-.1.31-3.16.44-14.22 1.27-17.65a4.3 4.3 0 0 1 4.44-3.28c3.2.18 8.26.27 13.76-.4l1.05-.01c.02 0 .04 0 .06-.01 5.5-.67 10.39-1.99 13.45-2.94 1.99-.62 4.14.26 5.1 2.11 1.64 3.14 5.42 13.66 6.47 16.61.09.24.43.23.5-.02.45-1.73 1.43-5.68 1.43-5.68z"/></svg>