<svg xmlns="http://www.w3.org/2000/svg" viewBox="0 0 128 128" style="enable-background:new 0 0 128 128" xml:space="preserve"><path style="fill:#1f87fd" d="M65.79 57.85c-2.04 2.3-1.21 5.16-.07 6.57 2.13 2.64 5.29 2.79 6.97 6.12 1.48 2.93.59 8.25-5.96 8.69s-13.05-4.88-14.43-11.2c-1.71-7.85.63-16.61 9.88-21.1s21.4-2.18 28.11 5.01c6.94 7.42 11.86 17.04 8.54 30.96s-17.9 25.82-40.73 23.45c-18.8-1.95-36.11-18.96-35.28-44.64.81-25.02 21.6-40.36 41.13-43.45 20.19-3.19 34.42 5.47 42.73 12.08 5.17 4.12 9.62 8.72 10.9 10.13 1.78 1.96 4.48 2.06 4.85-1.08.49-4.15-2.09-9.81-8.11-16.91-6.02-7.09-23.48-20.88-52.14-18.2C18.08 8.39 2.89 47.62 5.9 72.01s20.3 51.23 60.24 52.07c24.42.51 43.29-14.96 49.16-35.43 3.25-11.33 2.23-25.66-4.64-36.82-9.23-14.97-19.76-21.05-34.16-22.5-11.53-1.16-22.47 2.17-29.67 8.64-14.7 13.2-15.15 37.01.17 48.95 8.09 6.31 17.73 7.47 25.14 5.18 5.09-1.57 9.53-4.28 12.14-9.34 3.1-6.02 2.8-11.93.66-16.56-1.77-3.84-5.52-7.07-8.79-8.72-4.93-2.47-8.44-1.79-10.36.37z"/></svg>