<svg xmlns="http://www.w3.org/2000/svg" viewBox="0 0 128 128" style="enable-background:new 0 0 128 128" xml:space="preserve"><path style="fill:#f2a600" d="m57.16 8.42-52 104c-1.94 4.02-.26 8.85 3.75 10.79 1.08.52 2.25.8 3.45.81h104c4.46-.04 8.05-3.69 8.01-8.15a8.123 8.123 0 0 0-.81-3.45l-52-104a8.067 8.067 0 0 0-14.4 0z"/><path style="fill:#ffcc32" d="m53.56 15.72-48.8 97.4c-1.83 3.77-.25 8.31 3.52 10.14.99.48 2.08.74 3.18.76h97.5a7.55 7.55 0 0 0 7.48-7.62 7.605 7.605 0 0 0-.78-3.28l-48.7-97.4a7.443 7.443 0 0 0-9.93-3.47 7.484 7.484 0 0 0-3.47 3.47z"/><g style="opacity:.2"><path style="fill:#424242" d="M64.36 34.02c4.6 0 8.3 3.7 8 8l-3.4 48c-.38 2.54-2.74 4.3-5.28 3.92a4.646 4.646 0 0 1-3.92-3.92l-3.4-48c-.3-4.3 3.4-8 8-8m0 64c3.31 0 6 2.69 6 6s-2.69 6-6 6-6-2.69-6-6 2.69-6 6-6"/></g><linearGradient id="a" gradientUnits="userSpaceOnUse" x1="68" y1="-1808.36" x2="68" y2="-1887.05" gradientTransform="matrix(1 0 0 -1 -3.64 -1776.09)"><stop offset="0" style="stop-color:#424242"/><stop offset="1" style="stop-color:#212121"/></linearGradient><path style="fill:url(#a)" d="M64.36 34.02c4.6 0 8.3 3.7 8 8l-3.4 48c-.38 2.54-2.74 4.3-5.28 3.92a4.646 4.646 0 0 1-3.92-3.92l-3.4-48c-.3-4.3 3.4-8 8-8z"/><linearGradient id="b" gradientUnits="userSpaceOnUse" x1="64.36" y1="-1808.36" x2="64.36" y2="-1887.05" gradientTransform="matrix(1 0 0 -1 0 -1772.11)"><stop offset="0" style="stop-color:#424242"/><stop offset="1" style="stop-color:#212121"/></linearGradient><circle style="fill:url(#b)" cx="64.36" cy="104.02" r="6"/><path style="fill:#fff170" d="M53.56 23.02c-1.2 1.5-21.4 41-21.4 41s-1.8 3 .7 4.7c2.3 1.6 4.4-.3 5.3-1.8s19.2-36.9 19.9-38.6c.6-1.87.18-3.91-1.1-5.4-1.3-1.2-2.6-1-3.4.1z"/><circle style="fill:#fff170" cx="31.36" cy="75.33" r="3.3"/></svg>