<svg xmlns="http://www.w3.org/2000/svg" viewBox="0 0 128 128" style="enable-background:new 0 0 128 128" xml:space="preserve"><radialGradient id="a" cx="65.025" cy="5.037" r="105.925" gradientUnits="userSpaceOnUse"><stop offset=".21" style="stop-color:#01b3f7"/><stop offset=".457" style="stop-color:#01b3f7"/></radialGradient><path style="fill:url(#a)" d="M113.28 28.59C98.3 7.63 73.88 5.55 64.05 5.4c-9.5-.14-29.7 3.02-44.46 18.19C8.64 34.84 3.32 48.85 3.52 65.04c.18 14.67 5.21 26.76 14.4 37.78 13.57 16.27 32.85 20.49 46.33 20.49.38 0 .76 0 1.14-.01 13.14-.35 35.87-4.12 49.44-26.33 6-9.82 9.39-21.26 9.53-32.21.23-17.66-6.84-30.25-11.08-36.17zm3.9 31.27-11.5-.03c-.36-8.24-1.77-15.29-3.78-21.3l8.77.03c2.86 5.14 5.8 12.33 6.51 21.3zM10.82 67.6l11.99.03c.48 6.73 1.58 14.21 3.95 21.55h-9.75c-3.66-6.51-5.72-13.68-6.19-21.58zm57.04-55.86c3.54 1.33 13.82 6.04 21.36 18.76l-21.41-.06.05-18.7zm-7.05.29v18.39l-22.01-.06c8.24-12.98 19.93-17.6 22.01-18.33zm0 26.39v21.31l-30.23-.07c.2-8.44 1.78-15.47 4.13-21.31l26.1.07zM22.52 59.63l-11.61-.03c.69-7.72 3.13-14.89 6.99-21.31l8.13.02c-2.09 6.01-3.45 13.07-3.51 21.32zm8.23 8.02 30.06.07v21.46H35c-2.16-5.87-3.71-12.97-4.25-21.53zm30.06 29.53v19.18c-4.06-1.3-14.65-5.84-22.15-19.18h22.15zm6.86 19.32.14-19.32H90c-6.85 13.28-17.1 18.07-22.33 19.32zm.14-27.32V67.74l29.63.07c-.35 8.5-1.78 15.54-3.84 21.37H67.81zm0-29.44v-21.3l25.36.07c2.28 5.83 3.88 12.85 4.26 21.3l-29.62-.07zm37.48-29.19-6.69-.02c-2.43-4.89-5.22-8.85-7.98-12.03 5.18 2.75 10.29 6.62 14.67 12.05zM37.5 18.97a55.794 55.794 0 0 0-7.99 11.35l-5.78-.02c.69-.79 1.4-1.57 2.13-2.33 3.7-3.78 7.66-6.73 11.64-9zM23.43 98.15c-.28-.32-.55-.65-.83-.97h7.33c2.14 4.47 4.88 8.74 8.38 12.6-5.37-2.88-10.55-6.73-14.88-11.63zm67.06 12.18c3-3.65 6.72-8.09 8.78-13.15h6.52c-4.04 5.09-10.33 10.34-15.3 13.15zm20.47-21.15h-8.67c2.24-7.35 3.16-14.78 3.41-21.35l11.51.03c-.68 9.13-3.63 16.39-6.25 21.32z"/><path style="fill:#188aff" d="m93.65 39.75-25.85-.08.01-2.5 24.93.12zm-32.84-.1-26.58-.06.95-2.47 25.63.03zm0 29.31-29.98-.05-.19-2.51 30.17.06zm36.58.07-29.58-.06v-2.5l29.7.11zm19.7.05-11.46.01.11-2.52 11.58.03zm-5.79-29.36-8.99.05-.8-2.42 8.56.06zM60.81 98.41l-21.44-.01-1.4-2.34 22.88-.14zm28.56-.07-21.58.07.02-2.5 22.85.07zm-58.85.02-6.79.12-2.01-2.28 7.81-.01zm-7.63-29.5-12-.01-.18-2.51 12.04.06zm2.73-29.31-8.44-.04 1.38-2.43 7.89-.02zm79.11 58.91-6.02-.05 1.06-2.36 6.9.04zM38.84 30.31l.01-.09c.2-.29 3.45-7.47 9.64-12.71 6.29-5.33 12.12-6.93 12.37-7l-.05 2.65c-.06.02-5.2 1.31-11.16 6.11-7.02 5.65-10.76 10.98-10.81 11.04zm50.39.2c-.03-.05-2.51-4.47-9.45-10.16-5.51-4.51-11.86-7.34-11.93-7.37l.03-2.6c.3.12 6.88 2.97 12.52 8.03 6.36 5.7 8.66 11.69 8.78 11.91l.05.19zm16.04.01c-.03-.04-3.38-3.13-7.04-6.05-3.46-2.77-5.91-3.93-5.95-3.96l-2.54-3.11c.2.1 5.83 2.92 9.4 6.02 3.53 3.07 5.94 6.8 6.06 6.95l.07.15zm-81.53-.22.03-.1c.11-.13 2.1-3.23 5.56-6.46 4.21-3.92 8.89-5.73 9.05-5.82l-2.24 2.6c-.04.02-1.8.64-6.19 4.17-3.5 2.82-6.18 5.58-6.21 5.61z"/><path style="fill:#188aff" d="M64.11 124.55c-41.05 0-54.65-34.41-54.79-34.75l.12.24c.14.33 15.32 32.01 54.67 32.01h.13c21.16-.04 34.42-8.85 41.83-16.24 8.05-8.03 12.3-15.49 12.33-15.57l.05-.1c-.13.34-11.93 34.33-54.2 34.41h-.14z"/></svg>