<svg xmlns="http://www.w3.org/2000/svg" viewBox="0 0 128 128" style="enable-background:new 0 0 128 128" xml:space="preserve"><path style="fill:#b0bec5" d="M19.47 75.87 13.9 64l5.57-11.87c.71-1.52.71-3.29 0-4.81L13.9 35.46l5.57-11.87c1.16-2.46.38-5.39-1.86-6.94-.68-.42-1.46-.64-2.26-.65-1.8.04-3.41 1.12-4.12 2.78l-6.7 14.27a5.697 5.697 0 0 0 0 4.81l5.57 11.87-5.57 11.86a5.72 5.72 0 0 0 0 4.82l5.57 11.86-5.57 11.87a5.697 5.697 0 0 0 0 4.81l6.7 14.27a4.583 4.583 0 0 0 4.12 2.78c.8-.01 1.58-.23 2.26-.65a5.549 5.549 0 0 0 1.86-6.94L13.9 92.54l5.57-11.86c.71-1.52.71-3.29 0-4.81zm89.06 0L114.1 64l-5.57-11.87a5.697 5.697 0 0 1 0-4.81l5.57-11.86-5.57-11.87a5.549 5.549 0 0 1 1.86-6.94c.68-.42 1.46-.64 2.26-.65 1.8.04 3.41 1.12 4.12 2.78l6.7 14.27c.71 1.52.71 3.29 0 4.81l-5.57 11.87 5.57 11.86a5.72 5.72 0 0 1 0 4.82l-5.57 11.86 5.57 11.87c.71 1.52.71 3.29 0 4.81l-6.7 14.27a4.583 4.583 0 0 1-4.12 2.78c-.8-.01-1.58-.23-2.26-.65a5.549 5.549 0 0 1-1.86-6.94l5.57-11.87-5.57-11.86a5.697 5.697 0 0 1 0-4.81z"/><path style="fill:#424242" d="M87.4 124H40.6c-4.7 0-8.6-3.8-8.6-8.6V12.6C32 7.9 35.9 4 40.6 4h46.8c4.7 0 8.6 3.8 8.6 8.6v102.9c0 4.7-3.9 8.5-8.6 8.5z"/><path d="M86.77 120.11H39.93c-2.15 0-3.89-1.74-3.89-3.89V19.65c0-2.14 1.74-3.88 3.88-3.88h48.15c2.15 0 3.89 1.74 3.89 3.89v95.93c0 .93-1.4 4.52-5.19 4.52z"/><path style="fill:#212121" d="M73.65 11.59h-19.2c-.7 0-1.2-.6-1.2-1.2s.6-1.2 1.2-1.2h19.1c.7 0 1.2.6 1.2 1.2s-.5 1.2-1.1 1.2z"/><path style="fill:#757575" d="M87.4 6c3.64 0 6.6 2.96 6.6 6.6v102.9c0 3.58-2.96 6.5-6.6 6.5H40.6c-3.64 0-6.6-2.96-6.6-6.6V12.6C34 9.02 37.02 6 40.6 6h46.8m0-2H40.6C35.9 4 32 7.9 32 12.6v102.8c0 4.8 3.9 8.6 8.6 8.6h46.8c4.7 0 8.6-3.8 8.6-8.5V12.6C96 7.8 92.1 4 87.4 4z"/><path style="fill:#eab56e" d="M48.35 29.96h-6.36c-.73 0-1.32-.59-1.32-1.32v-6.36c0-.73.59-1.32 1.32-1.32h6.36c.73 0 1.32.59 1.32 1.32v6.36c0 .73-.59 1.32-1.32 1.32z"/><path style="fill:#fb8c00" d="M60.9 29.96h-6.36c-.73 0-1.32-.59-1.32-1.32v-6.36c0-.73.59-1.32 1.32-1.32h6.36c.73 0 1.32.59 1.32 1.32v6.36c0 .73-.59 1.32-1.32 1.32z"/><path style="fill:#ff80ab" d="M73.45 29.96H67.1c-.73 0-1.32-.59-1.32-1.32v-6.36c0-.73.59-1.32 1.32-1.32h6.36c.73 0 1.32.59 1.32 1.32v6.36c0 .73-.59 1.32-1.33 1.32z"/><path style="fill:#0288d1" d="M86.01 29.96h-6.36c-.73 0-1.32-.59-1.32-1.32v-6.36c0-.73.59-1.32 1.32-1.32h6.36c.73 0 1.32.59 1.32 1.32v6.36c0 .73-.59 1.32-1.32 1.32z"/><path style="fill:#00bfa5" d="M48.35 44.12h-6.36c-.73 0-1.32-.59-1.32-1.32v-6.36c0-.73.59-1.32 1.32-1.32h6.36c.73 0 1.32.59 1.32 1.32v6.36c0 .73-.59 1.32-1.32 1.32z"/><path style="fill:#81d4fa" d="M60.9 44.12h-6.36c-.73 0-1.32-.59-1.32-1.32v-6.36c0-.73.59-1.32 1.32-1.32h6.36c.73 0 1.32.59 1.32 1.32v6.36c0 .73-.59 1.32-1.32 1.32z"/><path style="fill:#fb8c00" d="M73.45 44.12H67.1c-.73 0-1.32-.59-1.32-1.32v-6.36c0-.73.59-1.32 1.32-1.32h6.36c.73 0 1.32.59 1.32 1.32v6.36c0 .73-.59 1.32-1.33 1.32z"/><path style="fill:#eab56e" d="M86.01 44.12h-6.36c-.73 0-1.32-.59-1.32-1.32v-6.36c0-.73.59-1.32 1.32-1.32h6.36c.73 0 1.32.59 1.32 1.32v6.36c0 .73-.59 1.32-1.32 1.32z"/><path style="fill:#fb8c00" d="M48.35 58.28h-6.36c-.73 0-1.32-.59-1.32-1.32V50.6c0-.73.59-1.32 1.32-1.32h6.36c.73 0 1.32.59 1.32 1.32v6.36c0 .73-.59 1.32-1.32 1.32z"/><path style="fill:#ff80ab" d="M60.9 58.28h-6.36c-.73 0-1.32-.59-1.32-1.32V50.6c0-.73.59-1.32 1.32-1.32h6.36c.73 0 1.32.59 1.32 1.32v6.36c0 .73-.59 1.32-1.32 1.32z"/><path style="fill:#00bfa5" d="M73.45 58.28H67.1c-.73 0-1.32-.59-1.32-1.32V50.6c0-.73.59-1.32 1.32-1.32h6.36c.73 0 1.32.59 1.32 1.32v6.36c0 .73-.59 1.32-1.33 1.32z"/><path style="fill:#0288d1" d="M86.01 58.28h-6.36c-.73 0-1.32-.59-1.32-1.32V50.6c0-.73.59-1.32 1.32-1.32h6.36c.73 0 1.32.59 1.32 1.32v6.36c0 .73-.59 1.32-1.32 1.32zM48.35 72.44h-6.36c-.73 0-1.32-.59-1.32-1.32v-6.36c0-.73.59-1.32 1.32-1.32h6.36c.73 0 1.32.59 1.32 1.32v6.36c0 .73-.59 1.32-1.32 1.32z"/><path style="fill:#81d4fa" d="M60.9 72.44h-6.36c-.73 0-1.32-.59-1.32-1.32v-6.36c0-.73.59-1.32 1.32-1.32h6.36c.73 0 1.32.59 1.32 1.32v6.36c0 .73-.59 1.32-1.32 1.32zm-12.55 42.48h-6.36c-.73 0-1.32-.59-1.32-1.32v-6.36c0-.73.59-1.32 1.32-1.32h6.36c.73 0 1.32.59 1.32 1.32v6.36c0 .72-.59 1.32-1.32 1.32z"/><path style="fill:#0288d1" d="M60.9 114.92h-6.36c-.73 0-1.32-.59-1.32-1.32v-6.36c0-.73.59-1.32 1.32-1.32h6.36c.73 0 1.32.59 1.32 1.32v6.36c0 .72-.59 1.32-1.32 1.32z"/><path style="fill:#00bfa5" d="M73.45 114.92H67.1c-.73 0-1.32-.59-1.32-1.32v-6.36c0-.73.59-1.32 1.32-1.32h6.36c.73 0 1.32.59 1.32 1.32v6.36c0 .72-.59 1.32-1.33 1.32z"/><path style="fill:#ff80ab" d="M86.01 114.92h-6.36c-.73 0-1.32-.59-1.32-1.32v-6.36c0-.73.59-1.32 1.32-1.32h6.36c.73 0 1.32.59 1.32 1.32v6.36c0 .72-.59 1.32-1.32 1.32z"/></svg>