<svg xmlns="http://www.w3.org/2000/svg" viewBox="0 0 128 128" style="enable-background:new 0 0 128 128" xml:space="preserve"><radialGradient id="a" cx="63.6" cy="2288.9" r="56.96" gradientTransform="translate(0 -2226)" gradientUnits="userSpaceOnUse"><stop offset=".5" style="stop-color:#fde030"/><stop offset=".92" style="stop-color:#f7c02b"/><stop offset="1" style="stop-color:#f4a223"/></radialGradient><path style="fill:url(#a)" d="M63.6 118.8c-27.9 0-58-17.5-58-55.9S35.7 7 63.6 7c15.5 0 29.8 5.1 40.4 14.4 11.5 10.2 17.6 24.6 17.6 41.5s-6.1 31.2-17.6 41.4c-10.6 9.3-25 14.5-40.4 14.5z"/><path style="fill:#eb8f00" d="M111.49 29.67c5.33 8.6 8.11 18.84 8.11 30.23 0 16.9-6.1 31.2-17.6 41.4-10.6 9.3-25 14.5-40.4 14.5-18.06 0-37-7.35-48.18-22.94 10.76 17.66 31 25.94 50.18 25.94 15.4 0 29.8-5.2 40.4-14.5 11.5-10.2 17.6-24.5 17.6-41.4 0-12.74-3.47-24.06-10.11-33.23z"/><path style="fill:#422b0d" d="m104.75 79.63-11.6-3a3.996 3.996 0 0 0-5 3.58l-.56 7.45L81 83.9a4.007 4.007 0 0 0-5.46 1.49c-.09.16-.17.33-.24.51l-2.66 6.84-5.22-6.13a4.009 4.009 0 0 0-3.13-1.41h-.55c-1.2-.02-2.35.49-3.13 1.41l-5.22 6.13-2.69-6.82a3.993 3.993 0 0 0-5.19-2.24c-.17.07-.34.15-.51.24l-6.63 3.76-.56-7.45a4.005 4.005 0 0 0-4.28-3.7c-.24.02-.48.06-.72.12l-11.6 3a4 4 0 1 0 1.7 7.82c.1-.02.2-.05.29-.08l7-1.8.67 9c.15 2.2 2.06 3.87 4.27 3.71.61-.04 1.2-.22 1.73-.53l8.1-4.59 3.41 8.76a3.985 3.985 0 0 0 3.06 2.49c.22.04.45.06.67.06 1.16-.01 2.25-.53 3-1.41l7.08-8.28.3.79 6.37 7.41c.75.88 1.84 1.4 3 1.41.22 0 .45-.02.67-.06a3.985 3.985 0 0 0 3.06-2.49L81 93.1l8.1 4.59a4.003 4.003 0 0 0 6-3.18l.67-9 7 1.8c2.12.63 4.35-.57 4.98-2.68.63-2.12-.57-4.35-2.68-4.98-.1-.03-.2-.05-.29-.08l-.03.06zM34 57.4 46.21 55l-12.55-5.17-.42-.23a4.185 4.185 0 0 1-1.75-5.66c.26-.49.61-.92 1.03-1.27a5.99 5.99 0 0 1 6.88-.3l21.27 13c.52.19.78.77.59 1.28-.13.35-.44.6-.81.65l-22.91 8.6c-.15.06-.32.11-.48.16-3 .84-6.33-.89-6.79-3.78-.36-2.17 1.34-4.21 3.73-4.88zm62.65-.25-12.17-2.36L97 49.58l.41-.23a4.188 4.188 0 0 0 .73-6.93 5.99 5.99 0 0 0-6.88-.3L70 55.16a.998.998 0 0 0 .21 1.93l22.91 8.6.49.16c3 .84 6.32-.89 6.79-3.78.38-2.21-1.33-4.25-3.75-4.92z"/><path style="fill:#f5f5f5" d="M57.67 64.62C41 75.25 20.43 77.64 6.17 80.55c-1.88.38-3 3.12-1.56 7.26 2.73 7.9 7.93 7.77 6.53 11.44-4.14 10.87 4.3 15.55 11.59 15.68 9.86.19 8.91 3.48 13 6.69 3.91 3.06 8.66.94 8.66.94 18.33-11.11 25.4-36.44 25.39-48.7-.01-9.41-7.05-12.47-12.11-9.24z"/><path style="fill:#bdbdbd" d="M6.17 80.55c-.7.23-1.26.76-1.52 1.45-.26.63-.38 1.32-.35 2 .05 1.4.39 2.78 1 4.05.55 1.29 1.27 2.51 2.13 3.62.91 1.09 1.91 2.09 3 3 .67.54 1.24 1.18 1.69 1.91.12.24.22.49.3.74.07.27.11.54.12.82 0 .26-.02.53-.06.79l-.18.71-.54 2c-.12.66-.2 1.33-.25 2-.1 1.25.07 2.51.49 3.7a7.64 7.64 0 0 0 2.08 2.91c.95.83 2.05 1.47 3.23 1.9 1.21.48 2.49.78 3.79.89.33.05.67.07 1 .07h1c.77 0 1.53 0 2.32.1 1.66.09 3.29.45 4.84 1.06.85.36 1.64.83 2.36 1.41.64.55 1.23 1.15 1.77 1.8.79 1.03 1.71 1.95 2.75 2.74.88.62 1.92.99 3 1.07.58.04 1.16.01 1.74-.08.29 0 .59-.11.87-.18s.61-.19.76-.24l-.22.11c3.86-2.4 7.34-5.38 10.3-8.83.38-.44.77-.85 1.13-1.3l1-1.38 1-1.37c.34-.47.63-1 1-1.44.64-1 1.31-1.9 1.87-2.92s1.21-2 1.71-3c2.18-4.14 3.99-8.46 5.41-12.92 1.48-4.49 2.49-9.13 3-13.83.25 4.8-.16 9.6-1.22 14.29-.24 1.18-.55 2.34-.84 3.51s-.7 2.31-1 3.47-.81 2.27-1.21 3.41-1 2.23-1.42 3.35-1.07 2.18-1.6 3.28-1.17 2.13-1.79 3.19c-.31.52-.62 1-.95 1.56l-1.06 1.51-1 1.5c-.37.49-.78 1-1.16 1.44-3.08 3.89-6.8 7.22-11 9.87l-.11.06h-.11c-.43.18-.87.33-1.32.46-.42.11-.84.21-1.27.28-.87.15-1.75.2-2.63.15-.91-.06-1.81-.23-2.67-.52-.87-.31-1.69-.74-2.44-1.28-1.31-.99-2.49-2.14-3.49-3.44-.38-.48-.81-.93-1.26-1.34-.42-.34-.89-.63-1.39-.84-1.18-.45-2.43-.74-3.69-.84-.66-.09-1.36-.12-2.06-.16l-1.15-.08c-.4 0-.8-.06-1.2-.13-1.61-.22-3.18-.65-4.67-1.29a12.96 12.96 0 0 1-4.17-2.72 10.828 10.828 0 0 1-2.7-4.33c-.48-1.62-.61-3.32-.39-5 .11-.77.27-1.52.48-2.27.25-.73.54-1.49.79-2.18.2-.36.24-.8.09-1.19A5.94 5.94 0 0 0 9 96.15a21.195 21.195 0 0 1-2.87-3.53 16.76 16.76 0 0 1-1.9-4.15c-.5-1.44-.7-2.96-.59-4.47.07-.77.32-1.51.72-2.17.38-.68 1.05-1.14 1.81-1.28z"/><path style="fill:#b3b3b3" d="M30.5 90.78c-2.85.71-5.75 1.22-8.67 1.51a2.677 2.677 0 0 1-2.76-2.58c-.04-1.33.9-2.49 2.22-2.72 12.76-1.3 19-3.91 29.38-10.76 2.88-1.86 5.56-4 8-6.41a35.884 35.884 0 0 1-10.76 13.07C42.88 86.7 37.48 89 30.5 90.78zm11.71 13.09a2.55 2.55 0 0 1-2.92-1.1c-.79-1.22-.47-2.85.71-3.69a51.45 51.45 0 0 0 14.72-14.16c1.92-2.85 4.77-8 4.77-8-.34 2.92-.93 5.8-1.78 8.61-3.49 10.97-13.04 17.56-15.5 18.34z"/></svg>