<svg xmlns="http://www.w3.org/2000/svg" viewBox="0 0 128 128" style="enable-background:new 0 0 128 128" xml:space="preserve"><path style="fill:#5f989e" d="M42.09 113.09s-.45 4.18.3 5.52c.75 1.34 4.63 5.82 21.19 6.12s21.19-4.48 21.78-5.37c.6-.9 0-5.82 0-5.82l-43.27-.45z"/><path style="fill:#bacdd2" d="M64.77 31.77c-26.43-.78-39.39 10.3-39.69 16.56-.22 4.68.3 32.38.75 41.03s2.09 15.07 6.71 20.14c4.2 4.61 12.09 10.15 31.63 10.3 19.1.15 26.41-6.42 30.14-10.15 3.73-3.73 5.97-9.1 6.86-18.35.8-8.23.6-39.09.45-42.82-.25-6.25-11.64-15.96-36.85-16.71z"/><path style="fill:#dcedf6" d="M33.43 64.82c-4.63-.56-3.8 21.21-1.67 29.64 1.82 7.19 5.93 12.97 9.26 11.3 2.59-1.3-1.9-9.79-3.11-19.28-1.66-13.06-.15-21.14-4.48-21.66z"/><path style="fill:#eef9ff" d="M31.58 49.63c-.93 6.02 8.98 14.25 31.3 14.45 21.12.19 32.98-7.96 32.98-13.7 0-6.02-9.91-12.87-32.79-12.97-22.6-.09-30.69 7.01-31.49 12.22z"/><path style="fill:#7db240" d="M34.78 56.44c4.5 4.06 13.73 7.52 28.11 7.65 13.84.12 23.7-3.34 28.85-7.35-2.18-3.86-10.06-8.27-28.76-8.77-17.51-.47-26.12 5.65-28.2 8.47z"/><path style="fill:#aad876" d="M78.16 62.57c4.51-1.02 8.21-2.48 11.04-4.13.94-.55-3.81-7.13-22.24-7.5-4.38-.09-7.28.5-7.32 1.67-.09 2.78 7.38 1.4 11.95 3.89 3.93 2.13 5.74 4.25 6.57 6.07z"/><path style="opacity:.6;fill:#dcedf6" d="M61.2 16c-.5-.3-4.32 1.54-7.89 3.61-4.83 2.8-9.5 7.24-8.2 14.93 1.52 9.02 15.1 11.48 16.02 10.74.93-.74-6.52-7.91-5.63-14.92.95-7.52 7.74-13.15 5.7-14.36z"/><path style="opacity:.6;fill:#dcedf6" d="M71.28 2.06c-2.56 2.84 4.79 4.62 1.68 10.92S60.45 22.8 60.45 31.87s10.92 14.86 12.09 13.94c1.18-.92-2.22-7.67 3.19-13.85 5.88-6.72 11.59-13.18 8.14-22.17C80.85 1.9 72.79.38 71.28 2.06z"/></svg>