<svg xmlns="http://www.w3.org/2000/svg" viewBox="0 0 128 128" style="enable-background:new 0 0 128 128" xml:space="preserve"><path style="fill:#c62828" d="M41.01 114.68 30.84 83.46l15.02.89.74 8.78c.92 1.73 3.09 2.52 4.01 4.25.47.89.55 1.94.42 2.94-.27 2.07-1.36 4.31-.3 6.12 1.25 2.13 4.37 2.74 4.27 5.67-.1 2.68-12.69 6.32-13.99 2.57z"/><path style="fill:#f44336" d="m39.49 121.41-.95.33a7.179 7.179 0 0 1-9.14-4.43L17.6 83.28h16.26c.58 1.66.78 2.27 1.37 3.93.54 1.51 1.28 2.26.8 3.86-.48 1.58-.88 3.38-.06 4.92.92 1.73 3.09 2.52 4.01 4.25.47.89.55 1.94.42 2.94-.27 2.07-1.36 4.31-.3 6.12 1.25 2.13 4.37 2.74 4.27 5.67-.09 2.68-2.36 5.57-4.88 6.44z"/><path style="fill:#a12524" d="M39.78 106.18c-.38 1.56.55 1.77 1.49 1.79 2.29.06 5.31-.86 6.8-1.53.57-.25 1.1-.58 1.58-.95.36-.28.6-.69.63-1.14.07-1.31.57-2.7.74-4.03.07-.55.07-1.12-.02-1.66-.07-.43-.57-.65-.95-.44-.96.53-2.67 1.41-3.81 1.64-2.26.46-3.65.42-4.63.44-.73.01-1.31.66-1.21 1.38.07.5.06 1.01 0 1.5-.13.98-.38 2.01-.62 3zm4.59 8.78c-1.34 4.26-4.68 5.74-8.17 5.97-3.38.23-5.72-1.66-5.72-1.66 4.84 7.28 17.26 2.75 19.78 1.37 3.85-2.11 4.49-4.25 4.74-8.28.02-.25-.4-1.1-1.19-.46-1.2.96-2.56 1.31-4.08 1.62-1.87.38-2.87.27-3.63.32-.98.06-1.47.28-1.73 1.12z"/><path style="fill:#c62828" d="m17.6 83.28 3.13 9.08s1.91-4.25 9.51-3.47c5.15.53 6.69 2.33 6.69 2.33l.33-7.68-19.66-.26z"/><path style="fill:#e0e0e0" d="M103.16 110.64S69.35 85.61 41.24 84.86c-12.09-.32-20.86-.35-22.97-.35C11.65 84.52 4 75.11 4 58.55s8.61-27.73 15.23-27.73c.98 0 11.45.62 24.11.26 29.78-.84 59.82-24.62 59.82-24.62v104.18z"/><path style="fill:#bdbdbd" d="M80.14 73.46c-1.13 2.02-1.15 6.62-.85 10.88.22 3.05-2.83 5.31-5.68 4.19-19.44-7.58-35.4-6.9-35.4-6.9l.77 3.17 2.25.06c16.98.45 36.04 9.76 48.47 17.07 0 0-3.84-5.52-5.8-13.06-2.03-7.86-3.76-15.41-3.76-15.41z"/><path style="fill:#f44336" d="M34.27 58.55c0-9.45 3.09-20.05 6.96-27.42-11.69.24-21.07-.31-22-.31C12.61 30.82 4 41.99 4 58.55s7.65 25.96 14.28 25.96c2.11 0 10.88.03 22.97.35.07 0 .15.01.22.01-4.48-8.04-7.2-16.9-7.2-26.32z"/><ellipse style="fill:#2f7889" cx="103.16" cy="58.55" rx="20.84" ry="52.09"/><linearGradient id="a" gradientUnits="userSpaceOnUse" x1="103.164" y1="103.827" x2="103.164" y2="45.222"><stop offset="0" style="stop-color:#353738"/><stop offset="1" style="stop-color:#353738;stop-opacity:0"/></linearGradient><path style="fill:url(#a)" d="M83.24 43.31c-.59 4.82-.91 9.94-.91 15.25 0 28.77 9.33 52.09 20.84 52.09s20.84-23.32 20.84-52.09c0-5.31-.32-10.42-.91-15.25H83.24z"/><path style="fill:#e0e0e0" d="M103.16 113.64c-13.59 0-23.84-23.68-23.84-55.09 0-31.41 10.25-55.09 23.84-55.09S124 27.15 124 58.55c0 31.41-7.25 55.09-20.84 55.09zm0-104.18c-8.44 0-17.84 20.16-17.84 49.09s9.4 49.09 17.84 49.09S121 87.48 121 58.55s-9.4-49.09-17.84-49.09z"/><path style="fill:#fff" d="M89.56 23.24c-.9 2.44-4.15 7.85-5.65 25.65-.05.6-.38 3.24-1.85 3.24-.98 0-1.27-1.48-1.27-3.52 0-7.95 1.32-16.72 4.39-25.38 1.74-4.89 5.63-3.35 4.38.01z"/><radialGradient id="b" cx="101.207" cy="60.248" r="20.918" gradientTransform="matrix(1 0 0 1.7015 0 -42.264)" gradientUnits="userSpaceOnUse"><stop offset=".416" style="stop-color:#82aec0"/><stop offset="1" style="stop-color:#7fa9bb;stop-opacity:0"/></radialGradient><path style="fill:url(#b)" d="m85.9 46.49 18.9 2.2v19.9l-18.76 3.38c-1.24-15.73-.14-25.48-.14-25.48z"/><ellipse style="fill:#e0e0e0" cx="104.8" cy="58.65" rx="4.72" ry="9.95"/><path style="fill:#353738" d="m38.23 87.4-.75 1.3 3.21 6.27c.39.76 1.23 1.18 2.07 1.02l5.42-1.09s1.51-2.15 1.8-2.64c.29-.49.18-.78.18-.78L44 92.66c-.01 0-5.57-5.2-5.77-5.26z"/><path style="fill:#616161" d="m42.33 91.96-4.16-4.53 7.49-.03 4.24 3.67c.51.54.18 1.21-.55 1.33l-4.21.66c-1.06.16-2.13-.25-2.81-1.1z"/><path style="fill:#fff" d="M57.51 37.53c6.34-.84 12.6-2.77 17.96-6.26-3.11 8.35-4.59 18.41-3.44 27.26-2.96-1.46-5.95-2.92-9.11-3.86-2.64-.78-5.37-1.19-8.1-1.51-6.87-.83-13.23-.96-20.14-.83.2 0 .75-4.67 1.59-8.15.84-3.48 1.7-5.5 1.7-5.5s13.53-.35 19.54-1.15z"/><path style="fill:#ff7555" d="M35.28 38.25c-9.7.29-20.53.42-20.53.42s-4.89 4.26-5.76 13.65c0 0 11.55 0 22.04.19.74-6.76 2.92-11.75 4.25-14.26z"/></svg>