<svg xmlns="http://www.w3.org/2000/svg" viewBox="0 0 128 128" style="enable-background:new 0 0 128 128" xml:space="preserve"><linearGradient id="a" gradientUnits="userSpaceOnUse" x1="64" y1="96" x2="64" y2="130.861"><stop offset=".004" style="stop-color:#00bfa5"/><stop offset="1" style="stop-color:#009e89"/></linearGradient><path style="fill:url(#a)" d="M116 121c0-16.7-26.3-25-51.9-25H64c-25.5 0-52 7.3-52 25.1v3h102.5v-.1h1.5v-3z"/><path style="fill:#709921" d="M73.1 90.1H54.9v10c0 4.5 3.7 8.2 8.3 8.2h1.7c4.6 0 8.3-3.7 8.3-8.2l-.1-10zm18.2-39.7H36.7c-5.9 0-10.7 5.1-10.7 11.4s4.8 11.4 10.7 11.4h54.7c5.9 0 10.7-5.1 10.7-11.4-.1-6.2-4.9-11.4-10.8-11.4z"/><path style="fill:#82cc2b" d="M64 11.1c-17.4 0-33.5 18.6-33.5 45.4 0 26.6 16.6 39.8 33.5 39.8s33.5-13.2 33.5-39.8c0-26.8-16.1-45.4-33.5-45.4z"/><radialGradient id="b" cx="63.9" cy="37.3" r="0" gradientUnits="userSpaceOnUse"><stop offset="0" style="stop-color:#b34141"/><stop offset=".995" style="stop-color:#5e1011"/></radialGradient><path style="fill:url(#b)" d="M63.9 37.3z"/><radialGradient id="c" cx="64.959" cy="44.516" r="40.065" gradientUnits="userSpaceOnUse"><stop offset=".594" style="stop-color:#802828"/><stop offset="1" style="stop-color:#bd5151"/></radialGradient><path style="fill:url(#c)" d="M102.4 36.9c-.6-.5-1.3-1.1-2.1-1.5-.2-1.1-.3-2.1-.6-3.2 2.2-2.2 4.3-4.5 6.2-7-1.1 1.4-3.1 2.2-5.3 2.2-.7 0-1.5-.1-2.3-.3h-.1c-1.7-5.2-4.4-10.3-8.7-14.3 1.2-.4 2.4-.8 3.6-1.3-.3.1-7.4-1.8-7.6-1.9C86.9 8 87.9 6 88.2 3.9c-.9 2.1-3.2 3.2-5.3 4-.1 0-.2.1-.2.1-4.8-2.4-11-3.9-18.7-4-12.7.1-21.1 4.2-26.6 10-.2-.1-4.9-2.4-6.8-3.9.6 2.4 1.08 4.73 3.8 6.2-5.8 1.5-7.5 3.8-8.5 5.5 2.1-.8 4.3-1 6.5-1-2.5 4.6-3.9 9.6-4.6 14.3-2.6 1.5-4.5 4.2-5.1 7.1 1.3-1.1 2.9-2 4.5-2.5-.7 9.1.6 16.3.6 16.3s3.21 8.8 3.31 8.8c-.2-7.2 4.49-20.1 6.59-25.5.9-2.4 3.2-3.9 5.7-3.9.4 0 .7 0 1.1.1 4.4.8 11.5 1.8 19.4 1.8h.2c7.8 0 14.9-1 19.4-1.8.4-.1.7-.1 1.1-.1 2.5 0 4.8 1.5 5.7 3.9 2.1 5.5 6.82 18.3 6.62 25.5.1 0 3.28-8.8 3.28-8.8s1.2-6.5.7-14.9c1.2.3 2.7.8 4.4 1.9-.1-1.7-.5-4-2.9-6.1z"/><path style="fill:#709921" d="M78.6 79.7c-.4-.4-.8-1-.8-1.6.1-1 1-1.6 1.9-2 1.7-.8 3.4-1.7 5.3-1.9.7-.1 1.5-.1 2.1.3.7.5 1.1 1.4 1 2.3s-.5 1.7-1.1 2.3c-2.4 2.9-5.7 3.2-8.4.6zm2.8 4.3c.3.3.4.8.3 1.3-.1.6-.6 1-1.1 1.5-.4.3-.7.6-1.2.8s-1 0-1.3-.4c-.1-.3-.1-.6-.1-.8-.1-1.4.3-3.4 2.1-3.2.5.1 1 .4 1.3.8zm-38.9-6.2c-.4.1-.9 0-1.3-.4-.5-.4-.6-1-.8-1.6-.1-.5-.2-1-.1-1.4s.5-.9 1-.9c.2 0 .5.1.7.2 1.2.6 2.9 1.9 1.8 3.3-.4.4-.8.7-1.3.8zm4.7-37.4c.8-.1 1.8 0 2.4.5.8.7.8 2.1.1 3-.6.9-1.7 1.4-2.7 1.7-.6.2-1.3.4-1.9.2-.9-.2-1.6-.9-2-1.7-1.5-3.1 1.4-3.5 4.1-3.7z"/><path style="fill:#597718" d="M60.1 71.2c.1 0 .2.1.3.1h7.1c.1 0 .2 0 .3-.1.6-.3 1-.9.7-1.6s-1.7-2.7-4.5-2.7-4.2 2-4.5 2.7c-.3.6 0 1.3.6 1.6z"/><path style="fill:#333" d="M74.5 83c0 3.2-4.7 3.8-10.5 3.8s-10.5-.6-10.5-3.8 4.7-7.8 10.5-7.8 10.5 4.6 10.5 7.8z"/><path style="fill:#f05455" d="M64 86.8c3.5 0 6.7-.2 8.6-1.1-.2-2.9-4-5.2-8.6-5.2s-8.4 2.3-8.6 5.2c1.9.9 5.1 1.1 8.6 1.1z"/><path style="fill:#4e6b17" d="M46.9 69.1c-4.9 0-8.8-4.5-8.8-10.1s4-10.1 8.8-10.1c4.9 0 8.8 4.5 8.8 10.1s-3.9 10.1-8.8 10.1z"/><path style="fill:#709921" d="M46.9 50.3c4.2 0 8.32 4.09 8.32 8.99s-3.03 9.21-8.19 9.21-8.37-4.63-8.37-9.53 4.14-8.67 8.24-8.67m0-2.7c-5.6 0-10.2 5.1-10.2 11.4s4.5 11.4 10.2 11.4c5.6 0 10.2-5.1 10.2-11.4s-4.6-11.4-10.2-11.4z"/><ellipse style="fill:#fff" cx="47.1" cy="56.8" rx="7.9" ry="8.2"/><path style="fill:#709921" d="M47.1 49.7c3.7 0 6.8 3.2 6.8 7.1s-3 7.1-6.8 7.1-6.8-3.2-6.8-7.1 3.1-7.1 6.8-7.1m0-2.2c-5 0-9 4.2-9 9.3s4 9.3 9 9.3 9-4.2 9-9.3-4-9.3-9-9.3z"/><path style="fill:#4e6b17" d="M80.7 69.1c-4.9 0-8.8-4.5-8.8-10.1s4-10.1 8.8-10.1c4.9 0 8.8 4.5 8.8 10.1s-3.9 10.1-8.8 10.1z"/><path style="fill:#709921" d="M80.7 50.3c4.2 0 8.32 4.09 8.32 8.99s-3.03 9.21-8.19 9.21c-5.15 0-8.37-4.63-8.37-9.53s4.14-8.67 8.24-8.67m0-2.7c-5.6 0-10.2 5.1-10.2 11.4S75 70.4 80.7 70.4c5.6 0 10.2-5.1 10.2-11.4s-4.6-11.4-10.2-11.4z"/><ellipse style="fill:#fff" cx="80.9" cy="56.8" rx="7.9" ry="8.2"/><path style="fill:#709921" d="M80.9 49.7c3.7 0 6.8 3.2 6.8 7.1s-3 7.1-6.8 7.1-6.8-3.2-6.8-7.1 3.1-7.1 6.8-7.1m0-2.2c-5 0-9 4.2-9 9.3s4 9.3 9 9.3 9-4.2 9-9.3-4-9.3-9-9.3z"/><path style="fill:#82cc2b" d="M40.62 104.26c-.6-.7-1.31-.91-2-1-1.05-.14-1.95.11-2.46.87-.89 1.33-1.2 3.89-3.71 4.17-1.64.18-1.93-5.48-1.95-7.67-.07-7.76.4-11.27.59-11.94.2-.68.35-1.89.78-2.59 1.58-.03 2.72-1.32 2.85-2.9.13-1.71-2.93-4.5-6.32-2.09-1.7 1.21-3.7 4.7-3.9 14.7 0 0-.38 1.51-1.12-.35s-1.99-5.3-.41-9.3c1.03.02 2.13-.92 2.18-2.53.07-2.02-1.76-2.91-3.08-2.77s-3.94.76-4.88 4.5c-.54 2.14-.47 4.34-.47 4.34s-2.46.57-2.72.79c-.68.59-2.42 1.68-2.21 5.71.09 1.79.72 4.02.72 4.02s-1.39.72-1.93 1.38c-.81.98-1.47 2.08-1.79 3.3-.56 2.19-.35 4.42.31 6.56.41 1.34.98 2.64 1.63 3.89.43.83 1.06 1.6 1.32 2.52.12.43.1.81.02 1.2-.08.42-.84 3.88-1.09 5.14h14.08c.1-.43.27-.95.38-1.38.23-.87 2.07-1.36 2.8-1.76 4.6-2.49 9.43-6.34 12.13-11.29.91-1.66 1.45-4.12.25-5.52zm-22.95-4.62-.78-4.22 1.06-.39s.53 1.38.85 3.29-1.13 1.32-1.13 1.32z"/><path style="fill:#709921" d="M22.03 117.39c-.14.03.88-2.91-1.49-5.67-2.04-2.37-4.99-1.4-4.99-1.4s2.39.42 4.15 2.38c1.76 1.97 2.33 4.69 2.33 4.69zm-6.53-16.27c.73.59 1.31 1.49 1.19 2.42-.14 1.1-1.24 1.88-2.35 2s-2.19-.26-3.22-.69c.76 1.48 2.25 1.49 2.25 1.49s.86 3.63 1.31 3.8l.09-3.58s2.1.33 2.96-2.48c.54-1.78-.38-3.15-1.67-3.74-1.29-.59-3.12-.05-3.12-.05s1.82.23 2.56.83zm1.77-10.63c.8.29 1.53.77 1.61 1.71.1 1.1-.81 2.1-1.86 2.46s-2.2.22-3.29.02c.93 1.05 2.17.94 2.29 1.19.16.34.07 2.19.76 3.24.35.53 1.25.62 1.25.62s-1.02-1.59-.83-3.92c0 0 .84-.23 1.44-.61.92-.58 1.3-1.67 1.38-2.7.14-1.86-1.61-2.64-2.88-2.77-1.9-.2-3.14.77-3.14.77s2.37-.34 3.27-.01zm-5.2 28.61c1.45.95 3.68 1.33 5.22 1.17-1.93-.47-4.57-2.28-5.87-3.78.26.44.51.88.64 1.37.12.43.1.81.02 1.2 0 .01-.01.03-.01.04zm8.47 2.75c.95.84 3.12 1.33 4.84 1.18l.06-.21c.15-.57.98-.97 1.75-1.3-1.69.58-4.88.59-6.65.33zm-.55-36.46c-.02.03-.02.07-.01.1.09.71.49 1.38 1.07 1.8.42.3.92.46 1.43.48.11-.53.26-1.06.48-1.62-.97.03-1.94-.23-2.75-.76-.06-.03-.17-.07-.22 0zm8.88-.69c-.01.94.5 1.82 1.19 2.46.35.33.77.61 1.23.78.14-.62.3-1.33.59-1.83-.45-.01-.9-.12-1.31-.3-.63-.27-1.17-.69-1.7-1.11zm6.77 20.41c-.6 1.33-1.21 2.96-3.19 3.18-.22.02-.41-.06-.59-.22.12 1.6.33 3.53.03 5.01 2.08-2.12 3.67-4.61 3.75-7.97z"/><path style="fill:#82cc2b" d="M87.96 109.77c2.7 4.95 7.53 8.8 12.13 11.29.73.4 2.58.89 2.8 1.76.11.43.28.95.38 1.38h14.08c-.26-1.26-1.01-4.72-1.09-5.14-.07-.38-.09-.77.02-1.2.25-.92.88-1.68 1.32-2.52.65-1.25 1.22-2.54 1.63-3.89.66-2.14.87-4.38.31-6.56-.32-1.23-.98-2.33-1.79-3.3-.54-.65-1.93-1.38-1.93-1.38s.63-2.23.72-4.02c.21-4.03-1.53-5.12-2.21-5.71-.26-.23-2.72-.79-2.72-.79s.07-2.2-.47-4.34c-.94-3.74-3.56-4.36-4.88-4.5-1.32-.14-3.15.75-3.08 2.77.06 1.6 1.15 2.55 2.18 2.53 1.58 4 .34 7.45-.41 9.3-.74 1.85-1.12.35-1.12.35-.2-10-2.2-13.49-3.9-14.7-3.39-2.41-6.45.38-6.32 2.09.12 1.58 1.27 2.87 2.85 2.9.44.7.59 1.91.78 2.59.19.66.66 4.18.59 11.94-.02 2.19-.31 7.86-1.95 7.67-2.51-.28-2.81-2.84-3.71-4.17-.51-.76-1.41-1-2.46-.87-.69.09-1.4.3-2 1-1.19 1.41-.66 3.87.25 5.52zm21.58-11.45c.32-1.91.85-3.29.85-3.29l1.06.39-.78 4.22s-1.46.58-1.13-1.32z"/><path style="fill:#709921" d="M106.3 117.39c.14.03-.88-2.91 1.49-5.67 2.04-2.37 4.99-1.4 4.99-1.4s-2.39.42-4.15 2.38c-1.75 1.97-2.33 4.69-2.33 4.69zm6.53-16.27c-.73.59-1.31 1.49-1.19 2.42.14 1.1 1.24 1.88 2.35 2 1.1.13 2.19-.26 3.22-.69-.76 1.48-2.25 1.49-2.25 1.49s-.86 3.63-1.31 3.8l-.09-3.58s-2.1.33-2.96-2.48c-.54-1.78.38-3.15 1.67-3.74 1.29-.59 3.12-.05 3.12-.05s-1.81.23-2.56.83zm-1.77-10.63c-.8.29-1.53.77-1.61 1.71-.1 1.1.81 2.1 1.86 2.46s2.2.22 3.29.02c-.93 1.05-2.17.94-2.29 1.19-.16.34-.07 2.19-.76 3.24-.35.53-1.25.62-1.25.62s1.02-1.59.83-3.92c0 0-.84-.23-1.44-.61-.92-.58-1.3-1.67-1.38-2.7-.14-1.86 1.61-2.64 2.88-2.77 1.9-.2 3.14.77 3.14.77s-2.37-.34-3.27-.01zm5.21 28.61c-1.45.95-3.68 1.33-5.22 1.17 1.93-.47 4.57-2.28 5.87-3.78-.26.44-.51.88-.64 1.37-.12.43-.1.81-.02 1.2 0 .01 0 .03.01.04zm-8.48 2.75c-.95.84-3.12 1.33-4.84 1.18l-.06-.21c-.15-.57-.98-.97-1.75-1.3 1.69.58 4.88.59 6.65.33zm.55-36.46c.02.03.02.07.01.1-.09.71-.49 1.38-1.07 1.8-.42.3-.92.46-1.43.48-.11-.53-.26-1.06-.48-1.62.97.03 1.94-.23 2.75-.76.07-.03.18-.07.22 0zm-8.87-.69c.01.94-.5 1.82-1.19 2.46-.35.33-.77.61-1.23.78-.14-.62-.3-1.33-.59-1.83.45-.01.9-.12 1.31-.3.62-.27 1.17-.69 1.7-1.11zm-6.78 20.41c.6 1.33 1.21 2.96 3.19 3.18.22.02.41-.06.59-.22-.12 1.6-.33 3.53-.03 5.01-2.07-2.12-3.67-4.61-3.75-7.97z"/></svg>