<svg xmlns="http://www.w3.org/2000/svg" viewBox="0 0 128 128" style="enable-background:new 0 0 128 128" xml:space="preserve"><path style="fill:#6d4a37" d="m45.69 90.46 16.05 9.57s27.17 9.85 30.69 9.57c3.52-.28 18.93-1.62 19.22-2.89.32-1.43-4.01-6.69-4.01-6.69s11.68-6.33 11.54-7.88c-.21-2.39-4.5-4.5-4.5-4.5s8.22-11.33 7.81-12.39c-.99-2.53-6.69-2.46-6.69-2.46s8.02-8.62 7.74-10.07c-.56-2.89-11.54-3.94-11.54-3.94s5.7-5.49 4.72-7.53c-1.04-2.16-14.57-3.17-14.57-3.17s5.51-8.05 4.79-9.01c-1.97-2.6-18.86-1.27-18.86-1.27s2.32-7.25 1.06-7.88c-.92-.46-14.43 5.49-14.43 5.49s-.14-6.76-2.25-6.34c-2.11.42-13.09 12.46-13.09 12.46s-5.28-7.81-6.26-7.81-7.25 7.88-7.25 7.88-3.66-8.45-5.49-8.45-7.74 13.23-7.74 13.23-6.41-7.18-7.39-6.62c-.99.56-2.25 5.84-2.53 8.66-.28 2.82-.77 6.97-.77 6.97s-5.14-1.48-5.84-2.04c-.7-.56-3.31-2.53-4.29-1.76-.67.53 1.27 5.77 2.67 8.45 1.81 3.44 5.77 8.31 5.77 8.31l25.44 22.11z"/><path style="fill:#f7bb86" d="M43.96 77.74 30.28 96.09s-.68 5.09-1.34 6.41c-.66 1.31-6.29 6.78-3.85 8.56 2.44 1.78 8.31 1.22 10.23-1.31 2.14-2.82 4.69-8.17 4.69-8.17s6.38-2.25 8.17-4.97c1.78-2.72 2.35-5.26 2.35-6.48s.38-4.5.28-5.91-1.41-7.04-1.41-7.04l-5.44.56z"/><path style="fill:#865b52" d="M17.96 59.77s8.31-3.38 13.66-2.39 14.5 7.32 19.01 13.94 8.59 13.8 15.06 18.86c6.48 5.07 11.54 10 19.29 13.09 7.74 3.1 15.06 2.32 17.6 2.18s8.45.07 8.45-.63-4.5-8.17-4.5-8.17 11.54-4.65 11.97-5.63-5.21-5.91-5.21-5.91 8.45-10.28 8.17-10.98c-.28-.7-8.73-3.38-8.73-3.38s9.57-7.6 9.57-9.15c0-1.55-10.98-3.1-11.83-4.5-.84-1.41 5.49-5.49 5.49-6.48s-16.61-3.52-16.89-4.36c-.28-.84 6.9-6.9 6.48-7.88-.42-.99-12.25-1.69-15.06-1.69-2.82 0-6.05.7-6.76 0-.7-.7 4.65-5.21 5.35-6.48.7-1.27-6.05 1.13-9.71 2.11-3.66.99-7.04 3.38-7.88 2.39-.84-.99 2.67-5.49.99-5.63-1.69-.14-7.18 4.08-8.87 5.91-1.69 1.83-4.93 5.21-4.93 5.21s-3.66-5.26-4.08-4.79c-.56.63-3.94 6.48-4.93 6.76-.99.28-7.04-7.74-7.74-7.74s-7.32 12.25-7.32 12.25-6.48-5.35-7.46-5.77c-.87-.37-2.67 13.8-2.67 13.8s-4.5-.42-6.48-1.13-5.91-3.24-6.19-1.97 1.83 4.22 3.1 5.63 3.05 2.53 3.05 2.53z"/><path style="fill:#fed3b4" d="M42.45 72.3s-4.2-8.38-13.02-9.5-13.44 8.09-15.88 9.31-7.79.66-8.54 5.07 1.78 9.39 6.76 13.05c4.97 3.66 10.79 6.29 20.08 6.38 9.29.09 14.29-7.71 15.11-12.86.38-2.35.38-5.16.38-5.16s6.66-1.78 8.73-9.85c2.06-8.07-5.64-8.6-9.39-4.13-3.38 4.03-4.23 7.69-4.23 7.69z"/><path style="fill:#f6ba84" d="M56.11 102.78s-18.3 10.98-16.54 11.9c1.76.92 3.1 1.83 7.39 0 4.29-1.83 11.97-7.18 11.97-7.18s5.28 1.55 10.42 1.76 14.29.63 14.29.63l4.43-5.49-27.38-6.26-4.58 4.64z"/><path style="fill:#ffd1b7" d="M59.49 90.81c5.84 1.13 12.39 3.24 17.39 5.35 5 2.11 15.79 7.09 15.98 11.97.14 3.66-2.53 5.98-4.58 6.69-2.34.81-10.14 1.9-13.09.35-2.96-1.55-3.73-4.22 0-6.19 3.73-1.97 8.87-1.83 8.52-3.66-.35-1.83-7.39.28-13.44-.28-5.33-.5-12.46-1.06-12.46-1.06s-4.61 4.21-7.46 6.76c-3.31 2.96-6.16 5.76-10.35 4.5-3.52-1.06-4.79-3.24-3.31-4.65 1.48-1.41 3.45-2.89 4.01-3.59.56-.7 1.41-2.6 1.41-2.6s-1.06-1.13-1.9-2.18c-.84-1.06-1.2-1.9-1.2-1.9s5.28-2.89 7.25-4.86c1.97-1.97 3.8-5.42 3.8-5.7s3.81-.03 9.43 1.05z"/><path style="fill:#000304" d="M30.7 75.4c.12 2.05.92 4.29 3.66 4.29 2.75 0 3.17-2.53 2.96-4.79s-1.34-4.22-3.45-4.15c-2.12.07-3.31 2.25-3.17 4.65z"/><path style="fill:#f27cb6" d="M45.2 74.34c1.23 1.81 3.8.56 5.42-1.27s2.47-3.88 1.2-5.28c-1.48-1.62-3.94.14-5.07 1.41-1.13 1.27-2.61 3.59-1.55 5.14z"/><path style="fill:#4b4c4d" d="M10.5 82.15s2.96-2.67 3.1-4.08c.14-1.41-1.41-2.39-4.08-3.1-2.67-.7-4.58-.99-4.86 1.97-.28 2.96 1.76 4.08 1.76 4.08s-.49.84-.84 1.06-.5.95-.35 1.27c.49 1.06 1.2.63 1.62.49.42-.14.99-.77.99-.77s1.34 4.36 4.5 5.42c3.26 1.09 5.98-1.27 6.69-1.97.7-.7.35-2.75-1.62-1.83-1.68.78-1.48 1.69-3.94 1.27s-2.97-3.81-2.97-3.81z"/><path style="fill:#f47dad" d="M27.06 106.98c.76.53.05 2.3-.38 2.67-.42.38-1.45 1.78-2.53 1.03-1.08-.75-.28-2.49.38-3.1s1.59-1.26 2.53-.6zm13.56 3.1c.94.69.47 2.16-.42 2.86-.89.7-2.45 1.94-3.43.89-1.13-1.22.94-2.91 1.41-3.28.47-.38 1.55-1.13 2.44-.47zm3.81 1.64c.86.74.29 1.82-.52 2.63-.89.89-2.39 1.69-3.28.94-.89-.75.66-2.44 1.27-2.91s1.54-1.51 2.53-.66zm30.26-.57c-.71.55-2.11 1.97-.99 3 1.13 1.03 2.82-.42 3.33-.99.52-.56 1.41-1.6.56-2.53-.83-.93-2.05-.13-2.9.52zm2.44 4.46c.73.82 2.11.05 3-.84.42-.42 1.22-1.64.33-2.44-.59-.53-1.88-.14-2.86.84s-1.17 1.65-.47 2.44z"/><path style="fill:#9d6c5b" d="M37.03 50.34c-1.48 3.52 2.25 5.07 3.73 2.04 1.48-3.03 2.89-6.34 3.66-9.15.63-2.28-1.06-3.17-2.53-.84-1.48 2.32-3.81 5.45-4.86 7.95z"/><path style="fill:#c5886f" d="M56.81 47.52c-1.93 1.6-6.51 6.85-7.88 8.73-2.32 3.17 1.69 5.84 3.73 3.03 2.04-2.82 5.28-8.31 6.34-9.92 1.05-1.63-.5-3.25-2.19-1.84z"/><path style="fill:#6f4b3b" d="M60.33 42.45c-1.33 1.27.14 4.08 2.6 2.25s3.8-2.96 5.07-4.29c1.27-1.34.35-2.82-1.62-1.9s-4.57 2.54-6.05 3.94z"/><path style="fill:#9d6c5b" d="M64.56 48.16c-2.96 2.38.42 5.91 3.03 3.8 2.6-2.11 7.46-6.83 9.29-8.73s.71-4.01-1.97-2.25c-2.26 1.47-7.47 4.85-10.35 7.18z"/><path style="fill:#c5886f" d="M62.23 63.08c-3.03 2.39-.09 6.15 3.31 3.31 3.45-2.89 8.31-7.04 10.56-9.36 1.98-2.04.07-3.94-2.53-2.11-2.28 1.59-7.58 5.19-11.34 8.16z"/><path style="fill:#9d6c5b" d="M84.83 55.19c-3.66 2.04-1.2 5.21 1.62 3.66 2.21-1.21 9.08-5.7 10.07-6.62s.39-2.56-1.27-1.97c-1.97.71-8.1 3.64-10.42 4.93z"/><path style="fill:#6f4b3b" d="M81.73 45.9c-2.89 2.18-.21 5.56 2.32 3.66 1.93-1.44 7.32-7.18 8.17-8.17s.07-2.39-1.48-1.34c-1.34.92-6.51 3.97-9.01 5.85z"/><path style="fill:#c5886f" d="M93.49 59.49c-2.36 1.32-21.07 11.58-23.65 13.3-3.38 2.25-.56 6.97 2.75 4.79C75.3 75.8 93.8 63.12 95.26 62.16c2.45-1.62 1.11-4.29-1.77-2.67zM83.35 79.06c-3.66 1.55-1.76 5.42 1.41 4.22 3.17-1.2 12.88-5.21 15.13-6.55 2.25-1.34 1.2-3.73-.84-3.03-2.04.71-11.79 3.7-15.7 5.36z"/><path style="fill:#6f4b3b" d="M100.39 63.99c-2.53 1.48-.63 4.01 1.62 3.03 1.68-.73 4.5-2.18 5.49-2.89.99-.7.63-2.75-1.41-2.11-1.41.44-3.77.85-5.7 1.97z"/><path style="fill:#c5886f" d="M92.15 87.29c-2.8.54-2.09 4.84.84 4.36 3.94-.63 11.17-2.98 12.53-3.31 1.76-.42 2.18-3.31-1.34-2.82-3.16.46-8.72 1.14-12.03 1.77zm5.91 8.38c-2.82-.14-2.96 3.73.28 3.73 2.18 0 3.66-.14 5.14-.42 1.82-.35 1.9-2.53-.35-2.82-1.47-.18-3.3-.4-5.07-.49z"/><path style="fill:#9d6c5b" d="M105.45 76.95c-2.04.84-1.06 3.66 1.13 2.96 1.79-.58 3.59-1.41 5.14-2.25 1.29-.7.7-2.67-.92-2.32-1.62.34-3.86.99-5.35 1.61z"/></svg>