<svg xmlns="http://www.w3.org/2000/svg" viewBox="0 0 128 128" style="enable-background:new 0 0 128 128" xml:space="preserve"><path style="fill:#8b5738" d="M23.36 116.32v-7.42c7.4-1.9 67.86 0 81.28 0v7.42c0 4.24-18.2 7.68-40.64 7.68s-40.64-3.44-40.64-7.68z"/><ellipse style="fill:#ffb17a" cx="64" cy="108.48" rx="40.64" ry="7.68"/><ellipse style="fill:#cc8552" cx="64" cy="108.48" rx="40.64" ry="7.68"/><path style="opacity:.75;fill:#81d4fa" d="M69.96 65.49c-.75-.31-1.07-.92-1.07-1.73 0-.81.25-1.39.98-1.64 4.61-1.86 27.77-10.73 27.77-38.36l-.18-4.82-66.98-.08-.12 5.07c0 26.79 23.08 36.25 27.68 38.11.75.31 1.22.82 1.22 1.73s-.39 1.39-1.13 1.64c-4.61 1.86-27.77 10.73-27.77 38.36a6.95 6.95 0 0 0 5.34 6.5c5.04 1.19 14.38 2.57 30.53 2.57 13.91 0 21.7-1.01 26.03-2.03 3.08-.73 5.29-3.44 5.36-6.6l.01-.61c.01-26.79-23.06-36.25-27.67-38.11z"/><path style="opacity:.39;fill:#1d44b3" d="m97.46 18.94-66.98-.08-.11 4.52S37.62 27.1 64 27.1s33.63-3.72 33.63-3.72l-.17-4.44z"/><path style="fill:#8b5738" d="M23.36 17.94v-7.87c7.18-.96 70.91 0 81.28 0v7.87c0 3.36-18.2 6.08-40.64 6.08s-40.64-2.72-40.64-6.08z"/><ellipse style="fill:#cc8552" cx="64" cy="10.08" rx="40.64" ry="6.08"/><path style="fill:#ffca28" d="M90.59 108.57c.92-.27 1.42-1.31.97-2.16-3.14-5.94-16.54-6.11-21.61-17.27-3.38-7.45-3.57-17.81-3.67-22.24-.14-5.99 2.85-7.28 2.85-7.28 14.16-5.7 24.57-18.86 25.17-30.61.06-1.17-22.18 9.17-29.83 10.66-14.14 2.76-28.23-.87-28.31-.37 5.24 11.47 15.79 17.46 22.86 20.32 1.68.69 4.46 3.3 4.37 11.14-.07 5.61-.77 20.4-10.44 26.69-3.64 2.37-11.69 5.84-13.19 9.61-.33.83.14 1.77 1.01 1.99 2.76.7 11.18 1.93 24.27 1.93 10.29.01 20.45-.93 25.55-2.41z"/><path style="fill:#e2a610" d="M42.37 43.29c5.36 2.77 17.12 6.72 22.92 4.72s28.23-16.01 29-19c.96-3.7-26 5.71-35.49 7.91-6.43 1.49-18.71.72-21.47 1.3-2.75.57.11 2.52 5.04 5.07z"/><g style="opacity:.6"><path style="fill:#fff" d="M45.79 37.66c1.26 2.94 3.56 9.61.56 10.75-3 1.15-7.39-3.11-9.47-7.39s-1.89-9.96 1.25-10.05c3.14-.09 5.99 2.8 7.66 6.69z"/></g><g style="opacity:.6"><path style="fill:#fff" d="M42.9 80.6c-3.13 3.66-5.48 8.58-4.59 13.33.94 5.01 5.6 3.63 7.22 2.36 5.16-4.05 3.75-9.24 7.74-15.07.68-1 3.52-4.13 3.12-6.1-.24-1.17-2.96-1.77-7.91.71-2.18 1.1-3.97 2.9-5.58 4.77z"/></g></svg>