<svg xmlns="http://www.w3.org/2000/svg" viewBox="0 0 1000 1000"><path fill="#4189DD" d="M8 195.25c171.17-85.38 341.69-54.3 514.26-27.81C677.13 191.2 833.79 211.71 992 132.75v672c-171.17 85.38-341.69 54.3-514.26 27.81C322.87 808.8 166.21 788.29 8 867.25v-672"/><path fill="#F9D616" d="M8 643.25c171.17-85.38 341.69-54.3 514.26-27.81C677.13 639.2 833.79 659.71 992 580.75v37.33c-171.17 85.39-341.69 54.3-514.26 27.82C322.87 622.13 166.21 601.63 8 680.58v37.34c171.17-85.39 341.69-54.3 514.26-27.82 154.87 23.77 311.53 44.27 469.74-34.68v37.33c-171.17 85.38-341.69 54.3-514.26 27.81C322.87 696.8 166.21 676.29 8 755.25v-112"/><path fill="#D21034" d="m176.56 270.44-22.78-72.21L131 278.19c-24.35 12.92-48.69 27.56-73.8 44.9 24.36-1.43 48.7-.79 73.8 1.77l22.78 71.24 22.78-78.99c24.36-10.81 48.7-20.1 73.8-28.39-24.36-7.35-48.71-13.54-73.8-18.28"/><path fill="#FFF" d="M179.47 267.09c27.48 5.32 54.95 12.55 83.28 21.56-27.49 8.63-54.96 18.66-83.28 31.08l-25.69 89.06-25.7-80.32c-27.49-2.63-54.95-3.05-83.27-.54 27.5-19.82 54.96-36.9 83.27-52.1l25.7-90.29 25.69 81.55m-6.41 4.9-19.28-61.1-19.86 69.67c-21.24 11.15-42.47 23.59-64.37 38.07 21.25-.62 42.47.28 64.37 2.63l19.86 62.18 19.86-68.93c21.25-9.54 42.48-17.91 64.36-25.52-21.24-6.04-42.48-11.16-64.36-15.18l-.58-1.82"/><path fill="#1A1A1A" opacity=".2" d="M8 195.25c171.17-85.38 341.69-54.3 514.26-27.81C677.13 191.2 833.79 211.71 992 132.75v672c-171.17 85.38-341.69 54.3-514.26 27.81C322.87 808.8 166.21 788.29 8 867.25v-672m31.25 19.39v604.5c306.5-128.29 611.18 96.04 921.5-33.78v-604.5c-306.5 128.29-611.18-96.04-921.5 33.78"/></svg>