<svg xmlns="http://www.w3.org/2000/svg" viewBox="0 0 128 128" style="enable-background:new 0 0 128 128" xml:space="preserve"><path style="fill:#f9ddbd" d="M112.94 41.21c4.74 1.26 6.27 8.56 6.06 12.15-.24 3.96-2.78 10.33-6.5 10.91 1.36 1.25 2.95 4.82 2.02 10.42-.96 5.81-5.47 10.43-10.25 9.72-.6-.09-10.65-1.16-17.85-2.3-7.2-1.14-7.55-.25-7.55-.25 5.88 12.73 10.18 43.04-10.67 42.12-5.18-1.06 2.41-17.18-8.11-31.32-2.87-3.86-7.1-7.58-13.3-10.8-3.29-2.09-6.41-5.06-8.22-7.53-2.24-3.05-3-5.51-6.03-6.77-7.63-3.16-14.74-2.35-18.06-1.66-1.16.24-2.28-.46-2.61-1.6-5.98-20.51-1.1-37.47.78-42.77.35-1 1.37-1.6 2.42-1.46 5.08.69 9.08.71 15.26.12 5.94-.56 9.25-4.99 13.71-7.93C54.11 4.86 68.8 5.4 82.58 5.75c2.97.07 5.85-.36 8.64-.72 1.41-.36 2.91-.65 4.54-.87 6.25-.85 9.23 1.49 10.81 5.51 1.38 3.52.81 7.27-2.28 10.66.66-.15 1.27-.28 1.79-.37 6.05-1.1 9.57 4.13 10.42 9.6.71 4.57-.74 9.89-3.56 11.65z"/><path style="fill:#ffd29c" d="M90.18 43.28s-3.33 1.92-3.88 4.53-.64 3.91-.72 5.88c-.12 3.27 2.92 5.36 2.92 5.36l.21 3.87s-3.07 1.95-3.83 2.56c-1.18.95-1.88 4.49-1.71 6.3.12 1.27 1.61 3.69 1.61 3.69-7.2-.43-7.53-8.82-7.46-11.62.1-3.31-1.35-7.8-3.43-11.3-2.68-4.5-12.12-10.49-12.6-10.75 5.5-2.26 8.81-8.81 10.09-13.74.63-2.42 3.34-13.7 5.14-15.44.47-.67 4.97-3.63 8.03-4.12 0 0-2.94 3.22-1.39 8.46 1.23 4.16 5.15 5.13 5.15 5.13l1.74 2.97s-2.49 2.31-3.04 4.52c-.47 1.89-.85 6.21.66 8.15.68.88 2.71 1.95 2.71 1.95l-.2 3.6z"/><path style="fill:#edbd82" d="M107.82 42.67c-13.6.35-24.98 1.05-24.98 1.05s-4.04.14-4.44 7.21c-.31 5.5 3.57 7.03 5.61 7.46 4.25.37 17.86 2.43 22.19 3.1 4.55.71 6.31 2.76 6.31 2.76s-2.06 1.08-5.71.57c-3.66-.51-14.32-1.5-21.23-2.19-1.08-.11-3.54.75-4.59 4.46-.99 3.47.65 6.15 1.59 6.97 1.63 1.41 10.41 5.25 17.17 7.02 8.03 2.11 12.87-1.45 12.87-1.45-1.56 4.89-6.94 5.64-11.91 5.28-3.7-.26-19.71-2.95-21.73-3.16-.61-.06-4.33-4.4-4.48-10.8-.08-3.3.97-6.92-1.14-12.72C69.36 47.29 60.98 43.42 60.77 43c-.21-.42-.1-1.04.34-1.2 1.41-.09 2.84.48 4.15.97 3.07 1.68 6.05 3.58 8.91 5.63.43-4.09 2.25-6.49 4.38-7.66-2.89-3.63-2.39-13.72 1.08-16.2-2.15-1.24-3.24-3.39-3.81-5.66-1.14-4.56.21-6.6 2.02-8.71 0 0 2.81-2.25 5.79-3.63S93.04 4 94.51 4.4c0 0-11.18 3.99-13.68 6.93-.48.56-2.75 3.17-.02 8.67.73 1.47 3.82 2.46 5.94 2.32.75-.05 5.43-1.12 13.83-2.79 5.68-1.14 6.69-5.97 6.69-5.97s.88 7.4-5.13 8.8c-5.71 1.33-13.92 3.16-16.18 3.74s-4.89 2.79-4.8 7.68c.07 4.25 2.59 5.72 4.06 5.81s13.5-.31 22.17-.45c3.69 0 5.68 2.01 5.68 2.01s-1.48 1.42-5.25 1.52zM34.57 28.64c-.02.59.64 1.13 1.34-.36 1.5-3.2 4.34-8.21 8.65-11.86 6.93-5.86 12.23-7.49 17.08-9.18.62-.22.36-1.16-.29-1.09-7 .72-13.09 2.69-18.75 6.95-6.64 5.01-7.92 12.25-8.03 15.54zm31.73 92.59c.1.69.65.62.84-.06.35-1.21 2.37-9.47 1.07-17.93-.71-4.61-2.76-9.38-5.23-12.7-2.09-2.81-7.16-7.64-14.72-11.37-5.51-2.72-7.25-8.05-9.14-10.47-2.37-3.03-4.81-5.51-12.73-6.28-5.12-.5-9.49 1.21-11.65 2.48-.54.31-.23 1.01.38.91 1.58-.25 4.07-.53 5.69-.53 3.37 0 7.47.52 11.73 2.29 3.03 1.25 4.17 3.47 6.03 6.77 2.02 3.58 4.66 5.67 7.95 7.76 6.21 3.22 10.7 6.7 13.57 10.56 8.18 11 5.41 23.2 6.21 28.57z"/></svg>