<svg xmlns="http://www.w3.org/2000/svg" viewBox="0 0 128 128" style="enable-background:new 0 0 128 128" xml:space="preserve"><linearGradient id="a" gradientUnits="userSpaceOnUse" x1="71.344" y1="36.678" x2="87.765" y2="40.597"><stop offset=".038" style="stop-color:#0091ea"/><stop offset="1" style="stop-color:#01579b"/></linearGradient><path style="fill:url(#a)" d="M61.25 37.89c9.85-3.61 20.04-7.33 28.5-8.86 1.23-.22 2.43-.4 3.58-.52 2.06-2.28 4.95-3.17 6.69-5.08-3.22-.11-6.72.17-10.5.85-8.99 1.62-19.44 5.44-29.54 9.14-16.17 5.92-31.45 11.82-40.69 7.93-2.26-.95-4.91-2.17-6.49-6.7-3.35-9.55 6.53-21.73 15.59-23.95C46.3 6.3 49.17 23.68 49.17 23.68s1.19-.49.81-3.94c-.73-6.61-4.65-15.45-20.62-13.97C16.96 6.92 4.61 21.88 8.08 35.43c1.2 4.69 3.71 8.07 7.47 10.05 10.22 5.39 27.46-.92 45.7-7.59z"/><path style="fill:#bdbdbd" d="M121.22 6.51c-2.76-2.6-6.57-3.26-11.93-.15-3.36 1.95-7.24 5.49-12.15 10.58-8.17 8.49-74.33 82.43-91.03 101.72-2.32 2.67-2.36 4.29-1.84 4.81.52.52 1.94.39 4.75-1.95 19.22-16.04 92.96-81.16 102.27-90.43 4.16-4.14 7.67-7.88 9.18-9.67 5.14-6.12 4.02-11.82.75-14.91zM96.85 36.37c-1.41 1.41-3.11 2.22-4.31 1.02-1.2-1.2-1.03-3.34.38-4.75l17.78-17.78c1.41-1.41 3.55-1.58 4.75-.38 1.2 1.2.59 2.7-.82 4.12L96.85 36.37z"/><path style="opacity:.75;fill:#b9e4ea" d="M100.15 18.07c5.55-5.91 9.5-9.56 12.82-11.06 6.17-2.78 9.13.42 8.85.11-2.64-2.85-6.27-4.14-12.09-1-3.45 1.86-7.26 5.27-12.59 10.82-8.16 8.51-74.57 82.64-91.03 101.72-2.31 2.68-2.49 4.44-1.66 4.88 16.74-19.14 87.63-96.88 95.7-105.47z"/><linearGradient id="b" gradientUnits="userSpaceOnUse" x1="102.241" y1="24.389" x2="110.843" y2="32.406"><stop offset=".193" style="stop-color:#2f7889"/><stop offset=".838" style="stop-color:#2f7889"/></linearGradient><path style="fill:url(#b)" d="M117.95 13.2c-2.57-1.58-4.9-.9-7.36 1.53 0 0 .19-.1.48-.19 1.4-1.15 3.32-1.24 4.44-.12 1.2 1.2.53 2.77-.88 4.18L96.85 36.37c-1.41 1.41-3.05 2.16-4.25.96-1.2-1.2-1.03-3.34.38-4.75l.57-.57s-6.17 4.07-2.18 8.16c2.11 2.16 5.88.95 7.38-.6l18.99-19.51c1.51-1.54 2.79-5.27.21-6.86z"/><linearGradient id="c" gradientUnits="userSpaceOnUse" x1="74.302" y1="36.728" x2="74.116" y2="20.365"><stop offset=".038" style="stop-color:#0091ea"/><stop offset="1" style="stop-color:#01579b"/></linearGradient><path style="fill:url(#c)" d="M114.96 28.88c-5.15-5.3-13.16-5.3-13.16-5.3l-4.68 4.68c7-.35 11.15 1.27 14.79 4.8 4.21 4.07 5.44 10.41 4.8 14.9-3.5 24.25-36.15 28.3-36.48 28.33-28.88 3.34-44.56-8.49-53.03-20.18 0 0-.97 6.48 5.24 12.1 8.05 7.3 19.47 13.62 38.37 13.62 3.4 0 7.01-.21 10.85-.65 13.04-1.51 36.59-8.92 39.93-32.06.81-5.6-.64-14.08-6.63-20.24z"/></svg>