<svg xmlns="http://www.w3.org/2000/svg" viewBox="0 0 128 128" style="enable-background:new 0 0 128 128" xml:space="preserve"><path style="opacity:.45;fill:#3bbcf7;enable-background:new" d="M103.04 23.41c4.24 11.31 3 25-8 32s-22 12-31 21c-4.28 4.28-19.36 20.49-19.38 47.5h57.91c.16-.17.3-.34.46-.5 6.9-4.47 14.13-8.6 20.96-13.21V3.91H87.52c4.6 5.12 12.22 10.69 15.52 19.5z"/><path style="opacity:.45;fill:#83d3f7;enable-background:new" d="M4 46.58v77.33h13.54c-3.61-5.52-6.13-11.42-4.5-18.5 2-10 12.01-13.98 20-18 22.56-11.36 27.25-29.5 28-50 .46-12.69-4.17-24.66-12.88-33.5H12.17c19.12 24-6.85 41.92-8.17 42.67z"/><radialGradient id="a" cx="63.868" cy="7.796" r="55.102" gradientTransform="matrix(1 0 0 -.4628 0 123.81)" gradientUnits="userSpaceOnUse"><stop offset=".877" style="stop-color:#eceff1"/><stop offset="1" style="stop-color:#b0bec5"/></radialGradient><path style="fill:url(#a)" d="M64.13 95.91H64c-25.49.03-52 7.28-52 25.06v2.94h104v-2.94c0-16.75-26.26-25.06-51.87-25.06z"/><linearGradient id="b" gradientUnits="userSpaceOnUse" x1="64.322" y1="31.565" x2="64.322" y2="1.211" gradientTransform="matrix(1 0 0 -1 0 128)"><stop offset=".5" style="stop-color:#ffca28"/><stop offset="1" style="stop-color:#ffb300"/></linearGradient><path style="fill:url(#b)" d="M64.04 95.75c-29.63 0-21.57 19.55-16.57 28.17h34.32c4.63-8.62 11.87-28.17-17.75-28.17z"/><path style="fill:#eceff1" d="M50.04 103.91c1.92-6.37 13.37-6.54 12.51-6.36.53-.07 2.11-.07 2.64 0-.85-.19 10.59-.01 12.51 6.36 1.92 6.35-2.16 13.62-5.7 20h13.92c4.07-8.93 7.49-20.18 3.7-25.58-4.48-6.39-11.34-8.67-25.63-8.67s-21.39 2.28-25.88 8.67c-3.79 5.4-.37 16.66 3.7 25.58h13.92c-3.53-6.37-7.6-13.65-5.69-20z"/><radialGradient id="c" cx="84.423" cy="20.398" r="9.304" gradientTransform="matrix(.9946 .1042 .2204 -2.1033 -4.04 141.705)" gradientUnits="userSpaceOnUse"><stop offset=".668" style="stop-color:#b0bec5"/><stop offset="1" style="stop-color:#eceff1;stop-opacity:0"/></radialGradient><path style="fill:url(#c)" d="M89.36 123.84h-3.28c3.92-8.6 7.24-19.36 4.09-24.96 1.24.31 2.46.65 3.64 1.02 1.93 6.72-1.07 16.26-4.45 23.94z"/><radialGradient id="d" cx="753.091" cy="20.398" r="9.304" gradientTransform="matrix(-.9946 .1042 -.2204 -2.1033 796.816 72.032)" gradientUnits="userSpaceOnUse"><stop offset=".668" style="stop-color:#b0bec5"/><stop offset="1" style="stop-color:#eceff1;stop-opacity:0"/></radialGradient><path style="fill:url(#d)" d="M38.39 123.84h3.28c-3.92-8.6-7.24-19.36-4.09-24.96-1.24.31-2.46.65-3.64 1.02-1.93 6.72 1.07 16.26 4.45 23.94z"/><linearGradient id="e" gradientUnits="userSpaceOnUse" x1="64.001" y1="20.586" x2="64.001" y2="38.503" gradientTransform="matrix(1 0 0 -1 0 128)"><stop offset=".5" style="stop-color:#ffca28"/><stop offset="1" style="stop-color:#ffb300"/></linearGradient><path style="fill:url(#e)" d="M54.92 89.99v9.98c0 4.51 3.7 8.17 8.26 8.17h1.65c4.56 0 8.26-3.66 8.26-8.17v-9.98H54.92z"/><path style="fill:#eda600" d="M54.94 104.73c-.27-.96-.38-1.93-.45-2.89l-.23-2.89c-.14-1.93-.26-3.85-.33-5.78-.02-.55.41-1.02.97-1.04s1.02.41 1.03.96v.07c-.07 1.93-.19 3.85-.33 5.78l-.23 2.89c-.05.97-.16 1.93-.43 2.9zm18.12 0c-.27-.96-.38-1.93-.45-2.89l-.23-2.89c-.14-1.93-.26-3.85-.32-5.78-.02-.55.41-1.02.96-1.04s1.02.41 1.04.96v.07c-.07 1.93-.19 3.85-.32 5.78l-.23 2.89c-.07.97-.17 1.93-.45 2.9z"/><path style="fill:#e59600" d="M91.2 50.43H36.55c-5.89 0-10.71 5.14-10.71 11.41s4.82 11.41 10.71 11.41H91.2c5.89 0 10.71-5.14 10.71-11.41S97.1 50.43 91.2 50.43z"/><path style="fill:#ffca28" d="M63.88 11.07c-17.4 0-33.52 18.61-33.52 45.4 0 26.64 16.61 39.81 33.52 39.81S97.4 83.1 97.4 56.46c0-26.78-16.12-45.39-33.52-45.39z"/><path style="fill:#795548" d="M72.3 76.14c-3.18 1.89-13.63 1.89-16.81 0-1.83-1.09-3.7.58-2.94 2.24.75 1.63 6.44 5.42 11.37 5.42s10.55-3.79 11.3-5.42c.75-1.66-1.09-3.33-2.92-2.24z"/><path style="fill:#e59600" d="M67.74 68.06c-.11-.04-.21-.07-.32-.08h-7.08c-.11.01-.22.04-.32.08-.64.26-.99.92-.69 1.63.3.71 1.71 2.69 4.55 2.69s4.25-1.99 4.55-2.69c.3-.71-.05-1.37-.69-1.63z"/><path style="fill:#404040" d="M47.51 60.3c-2.06 0-3.9-.5-5.18-1.29-.55-.34-.87-.14-.77.5.37 2.48 2.9 4.4 5.95 4.4 3.06 0 5.58-1.92 5.95-4.4.1-.64-.22-.84-.77-.5-1.28.79-3.12 1.29-5.18 1.29zm32.61 0c-2.06 0-3.9-.5-5.18-1.29-.55-.34-.87-.14-.77.5.38 2.48 2.9 4.4 5.95 4.4s5.58-1.92 5.95-4.4c.1-.64-.22-.84-.77-.5-1.27.79-3.12 1.29-5.18 1.29z"/><path style="fill:#6d4c41" d="M39.9 50.73c3.18-4.51 10.66-4.66 14.41-.82.65.67 1.34 1.53.85 2.5-.54 1.07-1.65.9-2.56.53-2.43-.98-4.94-1.42-7.55-.89-1.13.23-2.1.7-3.17 1.08-1.44.49-2.91-1.01-1.98-2.4zm46.06 2.4c-2.23-.97-4.49-1.53-6.95-1.25-1.12.13-2.22.42-3.26.83-.83.33-1.72.86-2.58.28-2.45-1.69 1.89-4.44 3.17-4.99 2.76-1.19 6.05-1.08 8.72.31 1.06.55 2.21 1.35 2.84 2.4.79 1.31-.39 3.05-1.94 2.42z"/><path style="fill:#543930" d="M63.9 3.91h-.04c-45.44.25-36.13 52.15-36.13 52.15s2.04 5.35 2.97 7.71c.13.34.63.3.71-.05.97-4.34 4.46-19.73 6.22-24.41a6.08 6.08 0 0 1 6.8-3.83c4.45.81 11.55 1.81 19.37 1.81h.16c7.82 0 14.92-1 19.37-1.81 2.9-.53 5.76 1.08 6.79 3.83 1.75 4.66 5.22 19.96 6.2 24.36.08.36.58.39.71.05l2.98-7.67c.02 0 9.32-51.89-36.11-52.14z"/><radialGradient id="f" cx="63.879" cy="81.017" r="38.092" gradientTransform="matrix(1 0 0 -1.1282 0 138.385)" gradientUnits="userSpaceOnUse"><stop offset=".794" style="stop-color:#6d4c41;stop-opacity:0"/><stop offset="1" style="stop-color:#6d4c41"/></radialGradient><path style="fill:url(#f)" d="M100.03 56.05s9.31-51.9-36.13-52.14h-.04c-.71 0-1.4.02-2.08.05-1.35.06-2.66.16-3.92.31h-.04c-.09.01-.17.03-.26.04-38.24 4.82-29.83 51.74-29.83 51.74l2.98 7.68c.13.34.62.31.7-.05.98-4.39 4.46-19.71 6.22-24.37a6.08 6.08 0 0 1 6.8-3.83c4.45.81 11.55 1.81 19.37 1.81h.16c7.82 0 14.92-1 19.37-1.81 2.9-.53 5.76 1.08 6.79 3.83 1.76 4.68 5.25 20.1 6.21 24.42.08.36.57.39.7.05.94-2.35 3-7.73 3-7.73z"/><path style="opacity:.45;fill:#fff;enable-background:new" d="M48.04 60.66c-6-5-16.19-7.77-20.88-5.77-2.11.9-3.1 2.56-1.06 5.95 3.94 6.56 9.81 13.44 3.44 20.94C21.04 92.04 9.42 90.16 4 104.31v19.6h26.63c1.25-27.5 24.29-23.94 25.5-42.79.69-10.69-3.09-16.46-8.09-20.46z"/><path style="opacity:.35;fill:#fff;enable-background:new" d="M124 42.8c-16.29-24.22-42.01-20.4-39.29-16.68 2.16 2.96 8.5 7.79 12.37 15.88 2.58 5.39 4.54 11.94 2.07 17.38C91.7 75.74 77.7 78.74 70.37 85.24c-4.96 4.39-14.41 14.66-11 38.67h21.58s2.23-13.06 25.49-21.37C119.88 97.75 124 87.32 124 87.32V42.8z"/></svg>