<svg xmlns="http://www.w3.org/2000/svg" viewBox="0 0 128 128" style="enable-background:new 0 0 128 128" xml:space="preserve"><path style="fill:#e63d00" d="M98.9 79.85c-1.25-2.27.34-4.58 3.06-7.44 4.31-4.54 9-15.07 4.64-25.76.03-.06-.86-1.86-.83-1.92l-1.79-.09c-.57-.08-20.26-.12-39.97-.12-19.71 0-39.39.04-39.97.12 0 0-2.65 1.95-2.63 2.01-4.35 10.69.33 21.22 4.64 25.76 2.71 2.86 4.3 5.17 3.06 7.44-1.21 2.21-4.81 2.53-4.81 2.53s.83 2.26 2.83 3.48c1.85 1.13 4.13 1.39 5.7 1.43 0 0 6.15 8.51 22.23 8.51h17.9c16.08 0 22.23-8.51 22.23-8.51 1.57-.04 3.85-.3 5.7-1.43 2-1.22 2.83-3.48 2.83-3.48s-3.61-.32-4.82-2.53z"/><radialGradient id="a" cx="98.752" cy="83.601" r="23.419" gradientTransform="matrix(1 0 0 -.4912 -19.283 124.665)" gradientUnits="userSpaceOnUse"><stop offset=".699" style="stop-color:#f98b25;stop-opacity:0"/><stop offset="1" style="stop-color:#f98b25"/></radialGradient><path style="fill:url(#a)" d="M63.99 95.79v-9.44l28.57-2.26 2.6 3.2s-6.15 8.51-22.23 8.51l-8.94-.01z"/><radialGradient id="b" cx="76.573" cy="78.668" r="6.921" gradientTransform="matrix(-.9057 .4238 .3144 .6719 146.27 -6.644)" gradientUnits="userSpaceOnUse"><stop offset="0" style="stop-color:#f98b25"/><stop offset=".872" style="stop-color:#f98b25;stop-opacity:0"/></radialGradient><path style="fill:url(#b)" d="M95.1 83.16c-4.28-6.5 5.21-8.93 5.21-8.93l.01.01c-1.65 2.05-2.4 3.84-1.43 5.61 1.21 2.21 4.81 2.53 4.81 2.53s-4.91 4.36-8.6.78z"/><radialGradient id="c" cx="90.93" cy="59.279" r="30.399" gradientTransform="matrix(-.0746 -.9972 -.8311 .0622 143.343 146.269)" gradientUnits="userSpaceOnUse"><stop offset=".699" style="stop-color:#f98b25;stop-opacity:0"/><stop offset="1" style="stop-color:#f98b25"/></radialGradient><path style="fill:url(#c)" d="M106.62 46.65c4.25 10.35-.22 21.01-4.41 25.51-.58.62-3.01 3.01-3.57 4.92 0 0-9.54-13.31-12.39-21.13-.58-1.58-1.1-3.2-1.17-4.88-.05-1.26.14-2.76.87-3.82.89-1.31 20.16-1.7 20.16-1.7l.51 1.1z"/><radialGradient id="d" cx="41.534" cy="62.645" r="30.399" gradientTransform="matrix(.0746 -.9972 .8311 .0622 -13.63 100.166)" gradientUnits="userSpaceOnUse"><stop offset=".699" style="stop-color:#f98b25;stop-opacity:0"/><stop offset="1" style="stop-color:#f98b25"/></radialGradient><path style="fill:url(#d)" d="M21.4 46.65c-4.24 10.35.23 21.01 4.41 25.5.58.62 3.01 3.01 3.57 4.92 0 0 9.54-13.31 12.39-21.13.58-1.58 1.1-3.2 1.17-4.88.05-1.26-.14-2.76-.87-3.82-.89-1.31-1.93-.96-3.44-.96-2.88 0-15.49-.74-16.47-.74.01.01-.76 1.11-.76 1.11z"/><radialGradient id="e" cx="48.885" cy="83.538" r="23.419" gradientTransform="matrix(-1 0 0 -.4912 97.77 124.572)" gradientUnits="userSpaceOnUse"><stop offset=".699" style="stop-color:#f98b25;stop-opacity:0"/><stop offset="1" style="stop-color:#f98b25"/></radialGradient><path style="fill:url(#e)" d="M64.03 95.79v-9.44l-28.57-2.26-2.6 3.2s6.15 8.51 22.23 8.51l8.94-.01z"/><radialGradient id="f" cx="26.374" cy="78.668" r="6.921" gradientTransform="matrix(.9057 .4238 -.3144 .6719 27.22 14.632)" gradientUnits="userSpaceOnUse"><stop offset="0" style="stop-color:#f98b25"/><stop offset=".944" style="stop-color:#f98b25;stop-opacity:0"/></radialGradient><path style="fill:url(#f)" d="M32.93 83.16c4.28-6.5-5.21-8.93-5.21-8.93l-.01.01c1.65 2.05 2.4 3.84 1.43 5.61-1.21 2.21-4.81 2.53-4.81 2.53s4.9 4.36 8.6.78z"/><linearGradient id="g" gradientUnits="userSpaceOnUse" x1="64" y1="94.565" x2="64" y2="122.11"><stop offset="0" style="stop-color:#f78c1f"/><stop offset=".494" style="stop-color:#f37f21"/><stop offset="1" style="stop-color:#ed6d23"/></linearGradient><path style="fill:url(#g)" d="M64.13 94.68H64c-25.49.03-51.13 7.5-51.13 25.28V124h102.27v-4.04c-.01-16.76-25.41-25.28-51.01-25.28z"/><path style="fill:#7a4c32" d="M54.92 90.08v9.98c0 4.51 3.7 8.17 8.26 8.17h1.65c4.56 0 8.26-3.66 8.26-8.17v-9.98H54.92zm36.41-39.65H36.67c-5.89 0-10.71 5.14-10.71 11.41s4.82 11.41 10.71 11.41h54.65c5.89 0 10.71-5.14 10.71-11.41s-4.81-11.41-10.7-11.41z"/><path style="fill:#a56c43" d="M64 11.07c-17.4 0-33.52 18.61-33.52 45.39 0 26.64 16.61 39.81 33.52 39.81S97.52 83.1 97.52 56.46c0-26.78-16.12-45.39-33.52-45.39z"/><ellipse style="fill:#42312c" cx="47.56" cy="58.81" rx="4.93" ry="5.1"/><ellipse style="fill:#42312c" cx="80.44" cy="58.81" rx="4.93" ry="5.1"/><path style="fill:#42312c" d="M54.98 49.82c-.93-1.23-3.07-3.01-7.23-3.01s-6.31 1.79-7.23 3.01c-.41.54-.31 1.17-.02 1.55.26.35 1.04.68 1.9.39.86-.29 2.54-1.16 5.35-1.18 2.81.02 4.49.89 5.35 1.18.86.29 1.64-.03 1.9-.39.29-.38.39-1.01-.02-1.55zm32.5 0c-.93-1.23-3.07-3.01-7.23-3.01s-6.31 1.79-7.23 3.01c-.41.54-.31 1.17-.02 1.55.26.35 1.04.68 1.9.39.86-.29 2.54-1.16 5.35-1.18 2.81.02 4.49.89 5.35 1.18.86.29 1.64-.03 1.9-.39.29-.38.39-1.01-.02-1.55z"/><path style="fill:#875334" d="M67.86 68.06c-.11-.04-.21-.07-.32-.08h-7.07c-.11.01-.22.04-.32.08-.64.26-.99.92-.69 1.63.3.71 1.71 2.69 4.55 2.69s4.25-1.99 4.55-2.69c.29-.71-.06-1.37-.7-1.63z"/><path style="fill:#473530" d="M72.42 76.14c-3.19 1.89-13.63 1.89-16.81 0-1.83-1.09-3.7.58-2.94 2.24.75 1.63 6.45 5.42 11.37 5.42s10.55-3.79 11.3-5.42c.75-1.66-1.09-3.33-2.92-2.24z"/><path style="fill:#e63d00" d="M104.07 25.11c-2.44-3.7-7.91-8.64-12.82-8.97-.79-4.72-5.84-8.72-10.73-10.27-13.23-4.19-21.84.51-26.46 3.04-.96.53-7.17 3.97-11.51 1.5-2.72-1.55-2.67-5.74-2.67-5.74s-8.53 3.25-5.61 12.29c-2.93.12-6.77 1.36-8.8 5.47-2.42 4.9-1.56 8.99-.86 10.95-2.52 2.14-5.69 6.69-3.52 12.6 1.64 4.45 8.17 6.5 8.17 6.5-.46 8.01 1.03 12.94 1.82 14.94.14.35.63.32.72-.04.99-3.96 4.37-17.8 4.03-20.21 0 0 11.35-2.25 22.17-10.22 2.2-1.62 4.59-3 7.13-4.02 13.59-5.41 16.44 3.82 16.44 3.82s9.42-1.81 12.26 11.27c1.07 4.9 1.8 12.75 2.4 18.24.04.39.57.47.73.11.95-2.18 2.85-6.5 3.3-10.91.16-1.55 4.34-3.6 6.14-10.26 2.39-8.88-.56-17.42-2.33-20.09z"/><radialGradient id="h" cx="84.625" cy="41.474" r="35.633" gradientTransform="matrix(.3076 .9515 -.706 .2282 87.873 -48.513)" gradientUnits="userSpaceOnUse"><stop offset=".699" style="stop-color:#f98b25;stop-opacity:0"/><stop offset="1" style="stop-color:#f98b25"/></radialGradient><path style="fill:url(#h)" d="M100.22 55.5c.16-1.55 4.34-3.6 6.14-10.26.19-.71.35-1.43.5-2.15 1.46-8.09-1.16-15.52-2.79-17.98-2.26-3.42-7.1-7.89-11.7-8.81-.4-.05-.79-.1-1.16-.12 0 0 .33 2.15-.54 3.86-1.12 2.22-3.41 2.75-3.41 2.75 11.98 11.98 11.12 22 12.96 32.71z"/><radialGradient id="i" cx="47.28" cy="4.2" r="9.343" gradientTransform="matrix(.8813 .4726 -.5603 1.045 7.966 -22.532)" gradientUnits="userSpaceOnUse"><stop offset=".393" style="stop-color:#f98b25"/><stop offset="1" style="stop-color:#f98b25;stop-opacity:0"/></radialGradient><path style="fill:url(#i)" d="M56.95 7.39c-1.09.53-2.06 1.06-2.89 1.51-.96.53-7.17 3.97-11.51 1.5-2.67-1.52-2.67-5.58-2.67-5.72-1.23 1.57-4.95 12.78 5.93 13.53 4.69.32 7.58-3.77 9.3-7.23.61-1.27 1.58-3.1 1.84-3.59z"/><radialGradient id="j" cx="160.312" cy="62.538" r="35.41" gradientTransform="matrix(-.9378 -.3944 .2182 -.5285 206.795 119.58)" gradientUnits="userSpaceOnUse"><stop offset=".709" style="stop-color:#f98b25;stop-opacity:0"/><stop offset="1" style="stop-color:#f98b25"/></radialGradient><path style="fill:url(#j)" d="M79.16 5.47c7.32 1.98 10.89 5.71 12.08 10.68.35 1.46.77 15.08-25.23-.4-9.67-5.76-7.03-9.36-5.9-9.77 4.42-1.6 10.85-2.73 19.05-.51z"/><radialGradient id="k" cx="46.369" cy="15.962" r="13.099" gradientTransform="matrix(1 0 0 1.2233 0 -3.564)" gradientUnits="userSpaceOnUse"><stop offset=".786" style="stop-color:#f98b25;stop-opacity:0"/><stop offset="1" style="stop-color:#f98b25"/></radialGradient><path style="fill:url(#k)" d="M39.84 4.68c-.01.01-.03.01-.06.02h-.01c-.93.39-8.24 3.78-5.51 12.26l7.78 1.25c-6.89-6.98-2.17-13.55-2.17-13.55s-.02.01-.03.02z"/><radialGradient id="l" cx="38.153" cy="25.442" r="16.083" gradientTransform="matrix(-.9657 -.2598 .2432 -.9037 68.81 58.347)" gradientUnits="userSpaceOnUse"><stop offset=".503" style="stop-color:#f98b25;stop-opacity:0"/><stop offset="1" style="stop-color:#f98b25"/></radialGradient><path style="fill:url(#l)" d="m39.07 17.73-4.81-.77c-.19 0-.83.06-1.18.11-2.71.38-5.9 1.78-7.63 5.36-1.86 3.86-1.81 7.17-1.3 9.38.15.74.45 1.58.45 1.58s2.38-2.26 8.05-2.41l6.42-13.25z"/><radialGradient id="m" cx="36.39" cy="42.915" r="16.886" gradientTransform="matrix(.9907 .1363 -.1353 .9837 6.148 -4.259)" gradientUnits="userSpaceOnUse"><stop offset=".699" style="stop-color:#f98b25;stop-opacity:0"/><stop offset="1" style="stop-color:#f98b25"/></radialGradient><path style="fill:url(#m)" d="M24.37 33.58c-2.37 2.1-5.56 6.79-3.21 12.61 1.78 4.39 8.09 6.29 8.09 6.29 0 .02 1.26.39 1.91.39l1.48-21.9c-3.03 0-5.94.91-7.82 2.22.03.04-.46.36-.45.39z"/></svg>