<svg xmlns="http://www.w3.org/2000/svg" viewBox="0 0 128 128" style="enable-background:new 0 0 128 128" xml:space="preserve"><path style="fill:#4bddff" d="M61 97.49s-7.74 2.43-20.13-.47C28.49 94.12 11.49 83.18 7 62.88s3.61-43.8 26.23-54.67 43.25 2.22 43.25 2.22l10.08 7.24 6.47 10.9 3.07 10.56-.8 14.42-4.98 12.72-7.38 9.2-13.29 9.54L61 97.49z"/><path style="fill:#fff11b" d="M61.44 4.22c-.56.08-.24.87.39 1.03s5.37.95 9.87 3.24c4.5 2.29 14.02 9.57 17.54 17 5.25 11.07 5.5 20.18 2.52 31.6-2.38 9.13-12.12 27.81-36.02 26.98-23.49-.81-34.7-24.76-29.74-39.41 4.94-14.6 15.45-23.18 30.25-20.96 16.86 2.53 22.09 16.82 19.2 26.86C72.56 60.6 61.2 69.6 49.97 63.86c-10-5.11-7.84-16.28-4.88-19.23 3.17-3.15 8.64-5.12 12.66-.98 3.56 3.66 1.47 7.67-.25 8.79-1.54 1-1.88 0-1.88 1.13S57 57.59 57 57.59l5.65-1.51 4.39-7.78-.88-13.05-17.7-.38-11.8 4.39-3.64 18.07 10.67 14.31 14.56 2.38 14.93-5.4L81.6 55.7l.5-23.22-10.42-10.03-16.82-7.66-15.69 2.89L19.6 33.99l-3.01 27.86L27.25 78.8l14.93 11.04 25.6 4.27 21.84-17.32 8.53-15.69 1.26-10.67s0-8.79-.88-13.66c-.89-4.87-6.75-14.66-12.4-20.59C77.13 6.74 62.94 4 61.44 4.22z"/><path style="fill:#fdb3d1" d="M98.97 37.45c-.37-.71-.79-.79-.66.2s.62 10.82-1.2 19.24C94.89 67.2 83.83 89.45 56.86 88.85c-26.98-.6-38.24-24.73-36.6-39.61 1.49-13.52 8.3-24.86 24.68-29.74 17.36-5.16 36.8 8.86 35.29 26.64-1.49 17.59-18.07 30.25-33.36 21.34-16.49-9.6-7.74-31.94 6.13-30.58 11.42 1.12 10.83 10.93 10.17 13.45-1.11 4.29-4.58 4.45-4.58 4.45l6.89-.94 2.21-10.93-2.51-9.03-11.33-4.41-12.43 3.31-9.13 11.63-1.7 12.33 7.12 12.43 7.22 5.92 14.84 2.21 13.84-5.72 9.23-10.83 4.51-15.94-3.11-12.64-5.42-8.42-9.43-7.82-20.16-5.72-19.15 6.12-12.53 15.74-5.01 23.37 5.21 18.05 9.43 11.63 16.65 8.92 20.86 1 16.85-7.32S93.6 74.53 95.7 71.84c2.1-2.69 5.29-12.02 5.29-20.59-.01-7.48-1.51-12.82-2.02-13.8z"/><path style="fill:#ff2d8a" d="M94.81 73.77c.34-.65 1.22-2.08.83-2.24-.39-.17-2.85 3.61-5.23 6.07-3 3.1-9.67 12.99-28.64 15.43-18.97 2.45-32.76-8.33-39.78-18.45-5.75-8.29-14.16-32.15 5.09-49.88 22.47-20.68 48.21-7.02 54.78 6.77 5.39 11.32 2.87 33.67-14.89 41.21-20.71 8.79-33.19-9.22-33.07-19.38.15-12.78 9.31-21.72 19.17-20.71 14.55 1.5 13.31 14.55 11.49 17.76-1.91 3.37-5.22 5.07-8.12 3.3-1.56-.95.38-6.09-3.17-6.98s-7.05 1.06-5.39 7.27c1.39 5.2 6.56 6.36 9.41 6.32 3.86-.06 14.81-2.42 13.74-17.14-1.1-15.26-20.93-20.39-32.73-10.49s-13.45 30.16 1.9 41.58S80.12 78.6 87.23 56.9s-5.24-45.88-32.9-47.91-45.02 23-43.9 45.11c.97 19.27 12.52 35.21 32.31 41.55s33.32-1.97 35.9-3.68c4.6-3.05 10.59-10.01 13.02-13.45 1.49-2.09 2.82-4.11 3.15-4.75z"/><path style="fill:#f4b043" d="m85.59 80.61-5.95 5.49s33.32 35.56 34.4 36.57c1.08 1.01 2.78 2.16 4.33 1.78 1.55-.39 2.47-1.31 2.47-1.31l-10.21-11.83-20.1-25.82-4.94-4.88z"/><path style="fill:#f5c977" d="m87.57 89.1 2.97-3.62s29.33 30.83 30.1 31.45c.77.62 1.82 2.54 1.62 3.93a5.467 5.467 0 0 1-1.23 2.7L87.57 89.1z"/><path style="fill:#fff" d="M25.52 16.89c-7.47 6.31-13.86 16.45-11.18 18.15 2.88 1.84 6.02-7.3 14.05-14.19 8.12-6.98 17.79-7.64 16.05-11.13-1.47-2.93-13.38 2.49-18.92 7.17zM14.34 37.34c-2.88-.69-4.2 4.01-4.49 6.31-.24 1.93-.19 5.69 1.91 5.92 2.58.29 2.96-3.44 3.34-5.64.39-2.2 1.63-6.02-.76-6.59z"/></svg>