<svg xmlns="http://www.w3.org/2000/svg" viewBox="0 0 1000 1000"><path fill="#fff" d="M8 195.25c170.83-85.22 341.03-54.42 513.26-27.97 155.21 23.84 312.16 44.57 470.74-34.53v672c-170.83 85.22-341.03 54.42-513.26 27.97C323.53 808.88 166.58 788.15 8 867.25v-672"/><path fill="#0038a8" d="M372.44 220.79C575.93 243.4 782.5 311.92 992 207.42v74.66c-205.14 102.34-408.33 36.85-619.56 13.38v-74.67M372.44 370.12C575.93 392.74 782.5 461.26 992 356.75v74.67c-205.14 102.34-408.33 36.85-619.56 13.37v-74.67M8 568.58c170.83-85.22 341.03-54.42 513.26-27.96 155.21 23.84 312.16 44.57 470.74-34.54v74.67c-170.83 85.22-341.03 54.42-513.26 27.97C323.53 584.88 166.58 564.15 8 643.25v-74.67M8 717.92c170.83-85.23 341.03-54.42 513.26-27.97 155.21 23.84 312.16 44.57 470.74-34.53v74.66c-170.83 85.23-341.03 54.42-513.26 27.97C323.53 734.21 166.58 713.48 8 792.58v-74.66"/><path fill="#fcd116" d="m181.99 366.95 12.06 17.14c-50.3 42.75-19.46 59.31-54.45 78.22 21.55-26.15-3.26-22.98 14.98-71.95l27.41-23.41"/><path fill="#7B3F00" d="m182.97 366.13 12.72 18.09-.95.81c-17.23 14.57-27.95 31.3-32.65 49.78-1.8 7.03-3.69 11.96-5.69 15.13-3.39 4.96-8.68 9.25-16.43 13.45l-4.92 2.63 3.71-4.44c7-8.58 9.68-16.89 8.42-26.28-1.96-13.75.08-28.67 6.27-45.23l.47-1.2 2.23.56-.48 1.2c-6.01 16.11-8 30.58-6.12 43.91 1.16 8.54-.68 16.18-5.76 24.01 4.89-3.14 8.32-6.28 10.72-9.79 1.8-2.89 3.54-7.52 5.24-14.22 4.75-18.73 15.48-35.73 32.66-50.59l-11.44-16.2-.66-.93 2-1.62.66.93"/><path fill="#7B3F00" d="m181.99 366.95-7.95 6.64.33.18c-13.49 24.8-15.86 42.81-17.82 56.77-1.03 7.03-1.96 12.92-4.16 18.36-1.57 3.5-3.58 6.61-6.52 9.68 24.78-17.02 1.6-34.85 48.18-74.49l-12.06-17.14"/><path fill="#7B3F00" d="m182.13 366.15 12.65 18.01-.4.34c-11.48 9.69-19.76 19.37-25.11 28.91-3.03 5.56-5.63 12.6-7.84 21.32-1.52 5.97-2.98 10.2-4.37 12.9-2.43 4.31-5.94 7.96-10.97 11.43l-4.27 2.85 3.68-3.72c2.77-2.86 4.82-5.88 6.38-9.43 1.49-3.69 2.88-9.69 4.12-18.2l.15-1c1.4-9.89 2.95-17.9 4.63-24.07 2.91-10.45 7.17-20.9 12.86-31.44l-.62-.29 8.64-7.22.47-.39m-7.11 7.27.11.06-.29.53c-5.78 10.61-10.09 21.14-13.01 31.65-1.65 6.12-3.2 14.06-4.63 23.88-.05.46-.1.78-.14.99-1.25 8.61-2.66 14.71-4.19 18.51-.98 2.26-2.15 4.34-3.57 6.34 2.96-2.58 5.14-5.19 6.81-8.15 1.35-2.59 2.77-6.72 4.26-12.6 2.23-8.85 4.87-16.02 7.95-21.69 5.38-9.55 13.61-19.22 24.96-28.89l-11.44-16.3-6.82 5.67"/><path fill="#7B3F00" d="M174.37 373.77c-8.79 16.15-14.66 34.73-17.71 55.82-2.49 16.8-7.85 27.56-16.55 33.7l-1.02-2c7.91-5.64 12.83-15.74 15.2-31.68 3.1-21.43 9.08-40.35 18.04-56.84l2.04 1"/><path fill="#fcd116" d="M190.22 329.52c-7.94.84-15.87 1.83-24.05 3.02l24.05 132.5 24.06-137.57c-7.94.53-15.88 1.2-24.06 2.05v135.52-135.52"/><path fill="#7B3F00" d="M189.02 328.42c8.82-.94 17.63-1.69 26.71-2.28l-25.51 145.77-25.51-140.39c8.02-1.19 16.04-2.21 24.31-3.1m2.4 2.21v120.62l21.4-122.45-21.4 1.83m-2.4 120.87V330.88c-7.06.76-14.12 1.64-21.39 2.68l21.39 117.94"/><path fill="#7B3F00" d="M190.22 329.52v135.52l24.06-137.57c-7.94.53-15.88 1.2-24.06 2.05"/><path fill="#fcd116" d="m159.21 353.43-4.23 22.49c-60.92.69-52.11 38-86.99 32.44 30.69-10.6 13.11-24.97 58.38-54.72 10.84-.41 21.67-.48 32.84-.21"/><path fill="#7B3F00" d="m160.37 353.51-4.44 23.67-1.13-.03c-21.13.21-39.04 7.26-54.67 20.76-5.91 5.14-10.46 8.43-13.81 10.02-5.48 2.36-11.52 2.9-18.88 1.75l-4.59-.79 5.17-1.77c9.87-3.46 17.24-9.37 22.96-18.75 8.38-13.9 19.88-25.93 34.92-35.78l1.13-.7.91 2.08-1.13.7c-14.63 9.55-25.79 21.17-33.89 34.59-5.22 8.53-11.64 14.37-19.94 18.35 4.99.27 9.14-.37 13.01-2 3.04-1.47 7.3-4.59 12.94-9.49 15.85-13.73 33.91-21 55.1-21.46l3.98-21.26.25-1.24 2.33.08-.22 1.27"/><path fill="#7B3F00" d="m159.21 353.43-9.55-.15.11.39c-25.37 11.03-39.21 25.53-50 36.69-5.41 5.63-10.09 10.39-15.09 13.94-3.36 2.23-6.67 3.76-10.5 4.7 26.31.38 24.36-32.43 80.8-33.08l4.23-22.49"/><path fill="#7B3F00" d="m159.83 352.88-4.41 23.6-.51.01c-14.04.12-25.74 2.66-35.61 7.3-5.69 2.81-12.13 7.26-19.5 13.62-5.03 4.37-8.85 7.3-11.51 8.84-4.45 2.34-9 3.4-14.29 3.34l-4.45-.09 4.67-1.07c3.56-.86 6.85-2.33 10.24-4.59 3.41-2.39 8.39-7 14.98-13.84l.76-.77c7.68-7.94 14.13-13.91 19.39-18.13a133.73 133.73 0 0 1 29.52-17.72l-.18-.68 10.35.19.55-.01m-9.41.98v.11l-.51.24c-10.89 4.69-20.75 10.61-29.77 17.74-5.21 4.17-11.63 10.1-19.28 17.99l-.76.78c-6.67 6.89-11.73 11.57-15.24 14.04-2.16 1.45-4.3 2.59-6.49 3.49 3.51-.43 6.59-1.39 9.66-3.01 2.57-1.48 6.29-4.33 11.23-8.62 7.46-6.47 14-10.99 19.79-13.85 9.88-4.68 21.55-7.25 35.49-7.41l4.01-21.38-8.13-.12"/><path fill="#7B3F00" d="M149.77 353.67c-16.55 7.18-32.84 19.03-49.24 35.92-13.06 13.41-23.72 19.97-32.94 20.07l.8-2.59c8.4-.1 18.3-6.31 30.68-19.06 16.67-17.21 33.25-29.29 50.12-36.62l.58 2.28"/><path fill="#fcd116" d="m190.22 329.52-17.02-15.4a3812.925 3812.925 0 0 0-76.53 129.12c36.5-36.27 72.98-68.25 110.57-97.83l-17.02-15.89c-30.87 34.88-61.74 72.08-93.55 113.72 30.88-40.42 61.75-77.79 93.55-113.72"/><path fill="#7B3F00" d="m190.22 327.77 18.88 17.65c-38.67 30.31-77.32 64.04-117.17 104.05 26.78-47.52 53.55-92.71 81.13-137.24l17.16 15.54m0 3.5a2026.196 2026.196 0 0 0-83.27 100.34c32.48-31.56 64.94-59.82 98.4-86.24l-15.13-14.1m-84.95 99.07c27.48-35.47 54.94-68.57 83.24-100.64l-15.13-13.67a3826.562 3826.562 0 0 0-68.11 114.31"/><path fill="#7B3F00" d="m190.22 329.52 17.02 15.89-17.02-15.89c-30.87 34.88-61.74 72.08-93.55 113.72 36.5-36.27 72.98-68.25 110.57-97.83l-17.02-15.89"/><path fill="#fcd116" d="m154.58 325.93-18 15.69c-36.19-43.25-56.75-5.06-68.59-36.97 22.19 15.13 22.64-12.71 67.57-3.26l19.02 24.54"/><path fill="#7B3F00" d="m155.27 326.82-18.99 16.54-.69-.83c-12.61-15.11-27.17-22.62-44.61-22.29-6.62.13-11.1-.33-13.88-1.47-4.35-2.09-7.59-6.26-10.24-13.35l-1.61-4.47 3.61 2.54c7.05 4.74 14.66 4.97 24.09.9 13.85-6.07 27.93-7.49 43.08-4.25l1.09.26-.91 2.46-1.09-.26c-14.76-3.12-28.43-1.73-41.84 4.12-8.59 3.71-15.69 4.13-22.41 1.23 2.2 4.32 4.61 6.91 7.69 8.4 2.54 1.03 6.73 1.44 13.04 1.32 17.65-.33 32.44 7.17 45.27 22.21l17.05-14.89.99-.84 1.35 1.83-.99.84"/><path fill="#7B3F00" d="m154.58 325.93-5.5-7.19-.22.37c-22.45-9.76-39.46-7.82-52.85-6.01-6.7.87-12.31 1.65-17.23 1.01-3.22-.59-5.82-1.71-8.31-3.9 12.32 21.47 32.34-8.87 66.11 31.41l18-15.69"/><path fill="#7B3F00" d="m155.34 325.95-18.91 16.44-.29-.35c-8.39-10.08-16.68-16.61-25.29-19.93-5.03-1.83-11.47-2.76-19.68-2.6-5.63.12-9.51-.12-11.92-.77-3.89-1.27-6.77-3.77-9.29-8.13l-2.01-3.67 2.95 2.75c2.34 2.07 4.84 3.25 8.09 3.83 3.35.43 8.97.06 17.1-1.01.19-.03.51-.07.94-.12 9.45-1.23 17.01-1.53 22.78-1.18 9.79.69 19.3 3.07 28.87 7.19l.36-.7 5.98 7.82.32.43m-6.23-6.21-.07.13-.47-.22c-9.64-4.2-19.23-6.61-29.09-7.28-5.72-.34-13.22-.05-22.59 1.15a10 10 0 0 1-.95.12c-8.23 1.09-13.94 1.48-17.38 1.03-2.07-.34-3.86-.93-5.58-1.81 2.04 2.41 4.13 3.85 6.82 4.73 2.31.63 6.09.88 11.62.77 8.34-.17 14.89.77 20.01 2.63 8.61 3.36 16.9 9.85 25.26 19.82l17.12-14.9-4.7-6.17"/><path fill="#7B3F00" d="M148.86 319.11c-14.66-6.38-31.78-8.75-51.94-6.16-16.07 2.03-25.6.05-29.99-7.4l2.15-1.8c4.03 6.8 12.96 8.58 28.21 6.67 20.48-2.61 37.88-.16 52.81 6.38l-1.24 2.31"/><path fill="#fcd116" d="M190.22 329.52v-24.64c-43.66 12.75-87.3 30.12-132.29 55.27 43.68-8.15 87.29-9.62 132.29-5.99v-24.64c-43.66 4.61-87.3 13.86-132.29 30.63 43.68-16.29 87.3-25.87 132.29-30.63"/><path fill="#7B3F00" d="M191.42 328.16v27.37c-46.27-3.83-92.52-2.48-140.2 7.18 46.3-26.63 92.53-45.62 140.2-59.45v24.9m-2.4 2.72c-38.87 4.19-77.7 12.05-117.75 25.72 38.87-6.04 77.7-6.95 117.75-3.81v-21.91M71.27 354.14c38.88-13.27 77.7-21.41 117.75-25.72V306.5c-38.86 11.42-77.7 26.51-117.75 47.64"/><path fill="#7B3F00" d="M190.22 329.52v24.64-24.64c-43.66 4.61-87.3 13.86-132.29 30.63 43.68-8.15 87.29-9.62 132.29-5.99v-24.64"/><path fill="#fcd116" d="M170.87 300.1c-7.02-.45-14.05-.78-21.28-.98 9.36-63.86-26.4-50.13-9.99-87.24-.1 31.21 18.42 10.67 37.17 53.8l-5.9 34.42"/><path fill="#7B3F00" d="M170.62 301.33c-7.4-.47-14.8-.8-22.42-.99l.22-1.19c3.27-22.23.5-40.16-8.45-54.42-3.43-5.4-5.28-9.59-5.84-12.97-.65-5.42.73-11.96 4.38-20.23l2.37-5.17-.08 5.32c.02 10.2 3.52 16.91 11.05 21.49 11.18 6.68 19.72 17.22 26.05 31.88l.44 1.1-2.22 1.22-.44-1.11c-6.17-14.23-14.43-24.43-25.26-30.86-6.88-4.16-10.6-9.86-11.77-18.22-1.91 5.51-2.57 9.92-2.15 13.76.53 3.06 2.29 6.99 5.54 12.16 9.08 14.49 12.01 32.57 8.93 54.81 6.64.19 13.28.49 20.12.93l1.17.1-.44 2.45-1.2-.06"/><path fill="#7B3F00" d="m170.87 300.1 1.71-10.02-.4.17c-6.37-25.22-16.72-37.61-24.74-47.3-4.04-4.83-7.31-8.92-9.26-13.69-1.16-3.22-1.61-6.46-1.28-10.5-8.95 28.68 21.41 20.84 12.69 80.36 7.02.19 14.04.51 21.28.98"/><path fill="#7B3F00" d="M171.31 300.67c-7.38-.47-14.75-.8-22.34-.99l.07-.53c2.19-14.78 2.14-26.79-.11-36.46-1.42-5.6-4.17-11.68-8.38-18.41-2.91-4.61-4.63-8.1-5.36-10.72-.96-4.33-.6-9.06 1.2-14.88l1.57-4.87-.51 4.88c-.32 3.76.07 7 1.24 10.24 1.32 3.28 4.3 7.72 9.18 13.6l.55.69c5.68 6.84 9.93 12.76 12.83 17.71 4.86 8.43 8.61 17.91 11.33 28.59l.7-.28-1.9 10.86-.07.57m.58-9.71-.11.02-.14-.51c-2.7-10.81-6.46-20.37-11.34-28.83-2.87-4.9-7.1-10.78-12.75-17.59l-.55-.68c-4.94-5.95-7.97-10.46-9.33-13.82-.76-2.07-1.21-4.14-1.39-6.37-.7 3.77-.7 6.9-.03 9.9.7 2.53 2.37 5.94 5.21 10.47 4.29 6.81 7.08 12.99 8.53 18.69 2.27 9.69 2.36 21.67.22 36.33 6.67.18 13.34.48 20.22.92l1.46-8.53"/><path fill="#7B3F00" d="M172.18 290.25c-4.14-16.41-12.13-31.99-24.2-46.62-9.55-11.65-12.6-21.78-9.51-31.94l2.26.38c-2.8 9.24.14 18.64 9.18 29.73 12.27 14.9 20.39 30.8 24.6 47.54l-2.33.91"/><path fill="#fcd116" d="m190.22 329.52 17.02-18.98c-36.49-23.04-72.98-43.01-110.57-58.97 25.25 30.18 50.51 62.4 76.53 97.42l17.02-19.47c-30.87-28.37-61.75-54.42-93.55-77.95 30.87 22.83 61.74 48.71 93.55 77.95"/><path fill="#7B3F00" d="m191.94 329.34-18.88 21.57c-26.78-36-53.55-70.15-81.13-102.82 38.67 16.02 77.32 36.88 117.17 62.16l-17.16 19.09m-3.43.36c-27.47-25.18-54.94-48.51-83.24-69.98 22.47 27.28 44.95 56.14 68.11 87.3l15.13-17.32m-81.56-72.14c27.47 20.92 54.95 44.19 83.27 70.21l15.13-16.9c-32.48-20.4-64.95-38.36-98.4-53.31"/><path fill="#7B3F00" d="m190.22 329.52-17.02 19.47 17.02-19.47c-30.87-28.37-61.75-54.42-93.55-77.95 25.25 30.18 50.51 62.4 76.53 97.42l17.02-19.47"/><path fill="#fcd116" d="m198.46 292.2-12.06-17.22c48.37-41.62 19.87-61.08 54.44-73.95-21.62 22.59 3.1 23.43-14.98 69.78l-27.4 21.39"/><path fill="#7B3F00" d="m197.47 293-12.71-18.14.94-.81c17.23-14.82 27.94-30.39 32.66-48.5 1.8-6.86 3.68-11.59 5.68-14.53 3.41-4.59 8.66-8.22 16.44-11.14l4.92-1.76-3.72 3.78c-7.01 7.39-9.68 15.38-8.42 24.95 1.97 14.06-.09 28.61-6.27 44.39l-.47 1.14-2.22-.82.47-1.15c6.01-15.39 8.01-29.52 6.12-43.14-1.16-8.7.68-16.12 5.76-23.17-4.9 2.4-8.31 5.08-10.71 8.31-1.81 2.69-3.55 7.11-5.25 13.64-4.76 18.32-15.47 34.08-32.65 49.05l11.44 16.34.66.95-2.01 1.56-.66-.95"/><path fill="#7B3F00" d="m198.46 292.2 7.94-6.31-.32-.2c13.46-24.02 15.84-41.46 17.82-55.29 1.02-6.92 1.96-12.7 4.15-17.86 1.58-3.31 3.58-6.14 6.53-8.78-24.84 13.4-2.84 32.16-48.18 71.22l12.06 17.22"/><path fill="#7B3F00" d="m198.31 293-12.64-18.09.4-.34c11.47-9.84 19.75-19.03 25.11-28.2 3.03-5.35 5.63-12.16 7.83-20.67 1.52-5.83 2.98-9.91 4.38-12.45 2.44-4.06 5.91-7.26 10.97-10l4.26-2.2-3.68 3.15c-2.77 2.46-4.8 5.18-6.38 8.54-1.49 3.5-2.87 9.33-4.12 17.71l-.14.97c-1.41 9.74-2.95 17.58-4.63 23.59-2.91 10.16-7.18 20.22-12.87 30.44l.62.32-8.63 6.85-.48.38m7.11-7-.11-.06.29-.51c5.79-10.31 10.1-20.46 13.01-30.7 1.66-5.96 3.2-13.74 4.63-23.4.05-.45.1-.78.15-.98 1.24-8.48 2.65-14.41 4.19-18.01.98-2.14 2.15-4.06 3.57-5.87-2.98 2.18-5.14 4.51-6.82 7.29-1.34 2.44-2.77 6.41-4.26 12.14-2.23 8.64-4.86 15.56-7.94 21-5.39 9.17-13.61 18.33-24.97 28.11l11.44 16.39 6.82-5.4"/><path fill="#7B3F00" d="M206.08 285.69c8.78-15.68 14.65-33.59 17.71-54.35 2.49-16.53 7.83-26.68 16.54-31.38l1.02 2.17c-7.93 4.31-12.83 13.79-15.19 29.46-3.11 21.08-9.09 39.27-18.04 55.21l-2.04-1.11"/><path fill="#fcd116" d="M190.22 329.52c7.94-.83 15.88-1.5 24.06-2.05L190.22 194l-24.05 138.54c7.94-1.16 15.87-2.16 24.05-3.02V194v135.52"/><path fill="#7B3F00" d="M191.42 330.63c-8.81.91-17.62 2.01-26.71 3.36l25.51-146.86 25.51 141.48c-8.02.52-16.04 1.17-24.31 2.02m-2.4-2.21V207.79L167.63 331.1c7.06-1.02 14.12-1.9 21.39-2.68m2.4-120.88v120.62l21.4-1.82-21.4-118.8"/><path fill="#7B3F00" d="M190.22 329.52c-7.94.84-15.87 1.83-24.05 3.02 7.94-1.16 15.87-2.16 24.05-3.02V194l-24.05 138.54c7.94-1.16 15.87-2.16 24.05-3.02"/><path fill="#fcd116" d="m221.24 307.22 4.22-22.02c59.84 6.59 55.01-27.62 87-9.48-29.89-1.86-14.74 17.31-58.39 36.51a758.473 758.473 0 0 0-32.83-5.01"/><path fill="#7B3F00" d="m220.07 307.03 4.45-23.2 1.13.17c21.12 2.33 39.05-.47 54.66-9.26 5.93-3.36 10.42-5.11 13.82-5.53 5.46-.45 11.49 1.25 18.87 5.43l4.6 2.71-5.18-.4c-9.94-.56-17.2 2.72-22.96 10.23-8.39 11.15-19.84 19.61-34.91 26.21l-1.13.45-.91-2.26 1.13-.46c14.65-6.44 25.76-14.65 33.89-25.46 5.25-6.87 11.56-10.44 19.93-11.19-5.01-2.23-9.15-3.1-13.01-2.82-3.08.41-7.27 2.06-12.93 5.24-15.84 8.89-33.91 11.84-55.11 9.68l-3.97 20.81-.26 1.21-2.33-.32.22-1.24"/><path fill="#7B3F00" d="m221.24 307.22 9.54 1.3-.1-.41c25.43-7.55 39.06-17.71 50-25.71 5.43-3.99 10.06-7.19 15.09-8.98 3.37-1.05 6.62-1.35 10.49-.81-25.58-10.28-24.78 18.75-80.8 12.59l-4.22 22.02"/><path fill="#7B3F00" d="m220.62 307.71 4.41-23.12.51.05c14.03 1.56 25.77 1.34 35.6-.96 5.7-1.45 12.14-4.2 19.5-8.34 5.06-2.85 8.83-4.49 11.52-5.13 4.44-.82 8.95-.24 14.28 1.89l4.45 1.85-4.67-.78c-3.6-.52-6.84-.27-10.24.78-3.43 1.2-8.36 4.07-14.97 8.9l-.77.54c-7.67 5.64-14.12 9.95-19.39 12.91-8.96 4.98-18.74 8.98-29.52 12.19l.18.71-10.35-1.45-.54-.04m9.4.13v-.11l.51-.17c10.9-3.21 20.77-7.22 29.77-12.23 5.22-2.94 11.64-7.23 19.28-12.85l.77-.54c6.68-4.89 11.7-7.81 15.23-9.05 2.17-.68 4.28-1.05 6.49-1.13-3.54-.89-6.58-1.02-9.66-.45-2.59.61-6.27 2.2-11.22 4.98-7.46 4.2-13.99 7-19.79 8.47-9.86 2.33-21.57 2.58-35.5 1.05l-4.01 20.93 8.13 1.1"/><path fill="#7B3F00" d="M230.68 308.11c16.55-4.91 32.86-13.2 49.23-25.17 13.09-9.48 23.66-12.06 32.95-8.35l-.8 2.27c-8.47-3.36-18.28-.86-30.69 8.09-16.64 12.14-33.24 20.54-50.11 25.53l-.58-2.37"/><path fill="#fcd116" d="m190.22 329.52 17.02 15.89 76.54-114.94c-36.49 24.86-72.98 51.97-110.58 83.65l17.02 15.4c30.88-34.85 61.75-67.35 93.56-99.05-30.88 30.77-61.75 63.15-93.56 99.05"/><path fill="#7B3F00" d="m190.22 331.27-18.88-17.05c38.68-32.72 77.34-61.53 117.17-88.45L207.39 347.3l-17.17-16.03m0-3.5c27.49-31.02 54.97-60.17 83.28-88.71-32.47 22.52-64.94 46.91-98.4 74.99l15.12 13.72m84.95-86.97c-27.46 27.67-54.93 56.66-83.23 88.54l15.12 14.14 68.11-102.68"/><path fill="#7B3F00" d="m190.22 329.52-17.02-15.4 17.02 15.4c30.88-34.85 61.75-67.35 93.56-99.05-36.49 24.86-72.98 51.97-110.58 83.65l17.02 15.4"/><path fill="#fcd116" d="m225.86 335.24 18.01-12.99c36.21 49.85 56.87 20.81 68.59 57.19-21.03-22.92-23.13.85-67.57-16.78l-19.03-27.42"/><path fill="#7B3F00" d="m225.17 334.27 18.99-13.71.69.96c12.59 17.39 27.23 28.37 44.61 33.79 6.6 2.08 11.1 4.22 13.89 6.42 4.3 3.7 7.6 9.28 10.24 17.4l1.6 5.14-3.61-4.03c-7.04-7.59-14.68-10.7-24.09-9.73-13.79 1.57-27.95-.68-43.07-6.68l-1.1-.47.91-2.29 1.1.46c14.73 5.86 28.47 8.05 41.83 6.55 8.57-.91 15.68 1.3 22.42 6.9-2.19-5.15-4.66-8.78-7.69-11.39-2.54-1.97-6.76-3.95-13.05-5.91-17.59-5.47-32.46-16.43-45.26-33.75l-17.06 12.33-.98.72-1.35-1.99.98-.72"/><path fill="#7B3F00" d="m225.86 335.24 5.51 7.9.22-.35c22.45 12.93 39.47 15.63 52.84 18.03 6.71 1.26 12.29 2.45 17.24 4.93 3.16 1.77 5.84 3.96 8.31 7.12-12.2-26.14-32.33-4.18-66.11-50.62l-18.01 12.99"/><path fill="#7B3F00" d="m225.1 335.13 18.91-13.63.3.4c8.36 11.58 16.71 20.01 25.29 25.59 5.01 3.17 11.49 5.95 19.68 8.49 5.61 1.75 9.5 3.42 11.92 4.97 3.83 2.68 6.79 6.41 9.29 11.73l2 4.48-2.95-3.94c-2.31-2.97-4.88-5.19-8.09-6.96-3.36-1.68-8.97-3.36-17.09-4.88l-.95-.17c-9.43-1.7-17.01-3.35-22.78-5.07-9.75-2.98-19.32-7.16-28.86-12.61l-.37.65-5.97-8.58-.33-.47m6.23 7 .07-.11.48.28c9.61 5.55 19.25 9.78 29.08 12.76 5.72 1.7 13.24 3.35 22.6 5.07.43.06.75.12.94.17 8.22 1.53 13.93 3.23 17.39 4.97 2.04 1.11 3.86 2.4 5.57 3.95-2.01-3.16-4.18-5.48-6.81-7.33-2.32-1.49-6.11-3.12-11.63-4.84-8.3-2.57-14.9-5.38-20-8.59-8.59-5.6-16.93-13.98-25.26-25.43l-17.13 12.33 4.7 6.77"/><path fill="#7B3F00" d="M231.59 342.79c14.62 8.42 31.82 14.22 51.93 17.9 16.01 3.01 25.64 9.11 29.99 18.29l-2.15.91c-3.98-8.34-13.02-13.93-28.2-16.79-20.43-3.73-37.92-9.61-52.81-18.17l1.24-2.14"/><path fill="#fcd116" d="M190.22 329.52v24.64c43.67-12.68 87.31-20.66 132.3-25.93-43.66-11.15-87.32-19.65-132.3-23.35v24.64c43.67-4.54 87.31-4.4 132.3-1.29-43.66-3.02-87.31-3.39-132.3 1.29"/><path fill="#7B3F00" d="M189.02 330.88v-27.37c46.27 3.72 92.52 12.72 140.2 25.21-46.27 5.13-92.53 13.12-140.2 27.06v-24.9m2.4-2.72c38.87-3.96 77.71-4.23 117.76-2-38.87-9.4-77.72-16.54-117.76-19.91v21.91m117.76.46c-38.87-2.16-77.71-2.08-117.76 2.01v21.91c38.88-11.2 77.72-18.7 117.76-23.92"/><path fill="#7B3F00" d="M190.22 329.52v-24.64 24.64c43.67-4.54 87.31-4.4 132.3-1.29-43.66-11.15-87.32-19.65-132.3-23.35v24.64"/><path fill="#fcd116" d="m209.57 359.57 21.29 3.11c-9.31 62.24 26.41 54.45 9.98 88.78.1-31.23-18.46-13.92-37.17-57.79l5.9-34.1"/><path fill="#7B3F00" d="m209.83 358.36 22.41 3.3-.22 1.16c-3.27 21.8-.48 39.99 8.46 55.72 3.42 5.98 5.28 10.55 5.83 14.01.66 5.58-.73 11.81-4.37 19.44l-2.37 4.77.07-5.3c-.01-10.16-3.52-17.57-11.04-23.12-11.18-8.1-19.73-19.18-26.06-34.09l-.44-1.12 2.23-1.12.43 1.12c6.17 14.53 14.45 25.31 25.26 33.17 6.86 5.07 10.61 11.49 11.77 20.02 1.91-5.18 2.58-9.45 2.15-13.38-.52-3.14-2.29-7.41-5.54-13.11-9.06-15.92-12.01-34.25-8.93-56.12l-20.11-2.89-1.17-.18.44-2.42 1.2.14"/><path fill="#7B3F00" d="m209.57 359.57-1.71 9.91.4-.14c6.36 25.54 16.72 38.98 24.75 49.82 4.02 5.4 7.31 10.06 9.25 15.16 1.17 3.42 1.61 6.76 1.28 10.73 9-27.21-21.36-24.31-12.68-82.37l-21.29-3.11"/><path fill="#7B3F00" d="m209.14 358.97 22.34 3.24-.08.53c-2.19 14.47-2.13 26.49.11 36.47 1.43 5.79 4.17 12.26 8.39 19.68 2.9 5.09 4.63 8.93 5.35 11.67.97 4.52.6 9.17-1.2 14.66l-1.57 4.59.51-4.79c.33-3.69-.07-7.02-1.24-10.46-1.31-3.48-4.3-8.47-9.18-15.05l-.55-.76c-5.67-7.63-9.93-14.01-12.82-19.23-4.86-8.9-8.62-18.64-11.34-29.48l-.69.24 1.89-10.75.08-.56m-.59 9.67.11-.01.15.52c2.69 10.97 6.45 20.8 11.33 29.75 2.87 5.18 7.11 11.53 12.76 19.14l.55.77c4.92 6.65 7.97 11.73 9.33 15.31.75 2.21 1.2 4.36 1.38 6.62.7-3.63.7-6.77.04-9.9-.7-2.63-2.38-6.37-5.22-11.36-4.28-7.51-7.08-14.08-8.52-19.97-2.28-10-2.37-21.98-.22-36.35l-20.23-2.95-1.46 8.43"/><path fill="#7B3F00" d="M208.26 369.34c4.14 16.66 12.14 32.75 24.2 49.06 9.57 13.04 12.59 23.88 9.51 33.44l-2.26-.76c2.78-8.72-.12-18.77-9.18-31.11-12.26-16.55-20.39-32.89-24.6-49.86l2.33-.77"/><path fill="#fcd116" d="m190.22 329.52-17.02 19.47c36.49 21 72.97 45.45 110.58 73.15l-76.54-111.6-17.02 18.98c30.87 28.4 61.74 59.15 93.56 92.62-30.88-32.48-61.75-63.36-93.56-92.62"/><path fill="#7B3F00" d="m188.51 329.7 18.88-21.08c26.77 37.56 53.54 76.79 81.12 118.52-38.66-28.71-77.33-54.95-117.17-77.75l17.17-19.69m3.43-.36c27.46 25.36 54.93 52.57 83.23 82.08l-68.11-98.93-15.12 16.85m81.56 83.76c-27.49-28.56-54.97-55.79-83.28-81.83l-15.12 17.28c32.47 18.8 64.93 40.31 98.4 64.55"/><path fill="#7B3F00" d="m190.22 329.52 17.02-18.98-17.02 18.98c30.87 28.4 61.74 59.15 93.56 92.62l-76.54-111.6-17.02 18.98"/><path fill="#fcd116" d="M234.32 326.45c-.28 25.18-19.56 45.4-44.1 48.24-24.56 2.31-43.82-13.73-44.1-38.84.28-25.2 19.57-48.62 44.1-51.5 24.57-2.27 43.82 16.98 44.1 42.1"/><path fill="#7B3F00" d="M235.52 326.41c-.12 12.96-4.42 23.69-13.26 33.4-9.03 9.55-19.4 14.67-32.04 16.12-12.66 1.21-23-1.72-32.03-9.35-8.86-7.81-13.15-17.53-13.27-30.51.12-12.93 4.42-24.45 13.27-35.12 9.03-10.52 19.39-16.37 32.03-17.84 12.67-1.19 23 2.48 32.04 11.07 8.85 8.77 13.14 19.28 13.26 32.23m-2.4.08c-.12-12.27-4.18-22.19-12.58-30.47-8.55-8.11-18.3-11.56-30.32-10.44-11.98 1.39-21.78 6.91-30.32 16.85-8.38 10.07-12.45 20.94-12.57 33.2.12 12.3 4.17 21.51 12.57 28.93 8.55 7.25 18.31 10.04 30.32 8.9 11.98-1.37 21.79-6.24 30.32-15.31 8.39-9.21 12.46-19.37 12.58-31.66"/><path fill="#7B3F00" d="M222.69 308.9c-2.97 3.13-4.28-1.93-14.43-1.54-10.09 1.2-11.51 6.71-13.23 6.07-.97-1.64 7.98-8.92 11.63-10.05 3.51-.48 12.06 2 16.03 5.52m-11.62 4.42c2.53 2.82.57 7.21-2.41 7.98-3.14-.18-7.56-3.9-5.61-7.77l8.02-.21"/><path fill="#7B3F00" d="M197.84 318.09c.7-5.01 4.19-6.08 10.82-6.65 6.44-.12 9.2 4.06 11.63 5.39-2.8-.14-5.21-3.5-11.63-3.34-6.41.5-6.41.51-10.82 5.01v-.41m1.2 1.12c1.85-2.14 3.43 1.66 8.02 1.8 4.48-.46 6.71-1.71 9.62-3.96 2.72-1.96-4 4.65-8.42 5.51-4.83.14-9.86-1.38-9.22-3.35"/><path fill="#7B3F00" d="M212.67 320.6c4.96-3.63 2.19-6.79 0-7.81 1.04 1.09 3.68 4.26 0 7.81m-22.45 26.58c2.4-.33 3.22-1.08 6.42-1.46 3.3-.06 10.69 3.2 15.23 1.63-9.28 4.32-5.57 1.57-21.65 3.11l-2 .22 2-3.5m23.25 3.75c-1.6-2.76-1.19-1.98-4.41-6.26 3.24 2.32 3.93 3.36 4.41 6.26m-23.25 6.1c10.03-1.13 8.39-2.87 21.65-9.68-9.62 2.04-11.64 5.22-21.65 6.4l-2 .21 2 3.07m0-15.19c2.77-.49 3.64-2.23 6.82-2.73 3.37-.2 7.4.62 9.62 2.05.43.02-1.24-2.86-4.41-3.34-3.07-.69-2.15-5.03-5.61-6.06.12 1.62 1.07 1.14 1.6 3.54-.38 2.09-3.25 2.33-4.41.42.55 3.25-1.41 3.41-3.61 3.66v2.46M157.75 315.77c2.97 2.48 4.31-2.86 14.43-4.61 10.15-.95 11.47 4.31 13.23 3.28.99-1.88-7.97-7.25-11.62-7.61-3.46.26-12.08 4.59-16.04 8.94m11.63 1.93c-2.53 3.36-.6 7.33 2.4 7.47 3.13-.84 7.56-5.51 5.61-8.95l-8.01 1.48"/><path fill="#7B3F00" d="M182.61 319.69c-.71-4.89-4.18-5.2-10.83-4.37-6.38 1.23-9.23 6.03-11.62 7.87 2.74-.73 5.27-4.63 11.62-5.82 6.42-.86 6.41-.84 10.83 2.73v-.41m-1.21 1.37c-1.84-1.75-3.45 2.39-8.02 3.49-4.5.49-6.7-.28-9.62-1.92-2.67-1.35 3.91 3.8 8.42 3.72 4.84-.88 9.85-3.49 9.22-5.29"/><path fill="#7B3F00" d="M167.77 325.32c-4.97-2.58-2.18-6.33 0-7.8-1.03 1.31-3.68 5.03 0 7.8m22.45 21.86c-2.41.17-3.2-.4-6.41-.12-3.26.64-10.76 5.45-15.24 4.84 9.28 2.36 5.57.39 21.65-1.44l2.01-.2-2.01-3.08m-23.25 8.65c1.61-3.1 1.19-2.24 4.41-7.19-3.22 2.99-3.93 4.2-4.41 7.19m23.25 1.2c-10.06.98-8.37-1.11-21.65-5.13 9.64.01 11.61 2.77 21.65 1.85l2.01-.21-2.01 3.49m0-15.19c-2.81.09-3.6-1.46-6.81-1.3-3.34.5-7.42 2.18-9.62 4.07-.5.13 1.29-3.14 4.41-4.26 2.97-1.3 2.23-5.52 5.61-7.25-.13 1.63-1.08 1.39-1.61 3.89.39 2.04 3.27 1.61 4.41-.51-.55 3.38 1.42 3.11 3.61 2.9v2.46M190.22 360.73c-2 .31-7.23 1.86 0 1.23 7.2-.88 2.02-1.34 0-1.23"/><path fill="#1A1A1A" opacity=".2" d="M8 195.25c170.83-85.22 341.03-54.42 513.26-27.97 155.21 23.84 312.16 44.57 470.74-34.53v672c-170.83 85.22-341.03 54.42-513.26 27.97C323.53 808.88 166.58 788.15 8 867.25v-672m31.25 19.39v604.5c306.56-128.26 611.18 96.04 921.5-33.78v-604.5c-306.56 128.26-611.18-96.04-921.5 33.78"/></svg>