<svg xmlns="http://www.w3.org/2000/svg" viewBox="0 0 128 128" style="enable-background:new 0 0 128 128" xml:space="preserve"><radialGradient id="a" cx="60.528" cy="14.792" r="72.962" gradientUnits="userSpaceOnUse"><stop offset=".501" style="stop-color:#5c727d"/><stop offset=".841" style="stop-color:#484d4f"/></radialGradient><path style="fill:url(#a)" d="M97.93 47.42s-5.2-4.33-6.94-6.07c-3.18-3.18-10.26-10.26-30.78-10.26-14.02 0-23.99 4.48-29.62 10.69-4.7 5.18-11.99 9.97-11.99 9.97l-2.02 17.77 10.55 16.62s2.75 6.79 11.27 8.53c10.58 2.15 11.42-2.46 22.98-2.17 9.54.24 12.72 3.47 20.95 2.6 8.4-.88 13.44-8.38 14.74-10.98 1.3-2.6 10.55-19.65 10.55-19.65l-9.69-17.05zM90.7 71.11c-1.22 5.85-3.18 8.09-3.18 8.09l-49.27 2.6s-3.61-4.91-5.78-9.54c-2.17-4.62-2.24-9.15-1.16-13.58 1.47-6.03 8.2-11.09 8.2-11.09l45.41.11s2.85 1.83 5.06 6.94c2.31 5.35 1.54 12.59.72 16.47z"/><path style="fill:#4485f6" d="M66.84 110.47s11.03-.87 21.17-10.41c15.45-14.53 20.07-39.62 21.4-50.35 1.6-12.93-2.17-23.8-2.17-23.8l8.24-2.75s3.77 10.8 2.17 29.41c-1.26 14.65-8.24 40.51-22.66 53.67-12.9 11.77-29.29 13.5-29.29 13.5l1.14-9.27z"/><path style="fill:#484d4f" d="M107.58 56.92s1.98.59 3.32.92c2.17.53 6.15 1.46 6.51 2.25.74 1.65-1.47 11.02-3.07 11.14-1.6.11-5.26-.8-6.64-1.72-1.38-.92-.12-12.59-.12-12.59z"/><path style="fill:#1664c0" d="M81.35 103.71s-1.67-1.13-3.1 0c-1.41 1.11-.9 2.93-.06 4.48.84 1.55 3.88 5.97 4.78 6.75.9.78 2.24.82 3.06.33 1.57-.94 1.04-2.73 1.04-2.73s1.43 1.27 3.12.33c1.78-.99 1.17-2.83 1.17-2.83s1.76.94 3.29-.23c1.42-1.09 1.07-2.64 1.07-2.64s1.63.62 3.09-.94c1.29-1.38.49-2.96.49-2.96s1.33.49 2.38-.75c1.2-1.43.33-2.99-.33-3.65s-5.21-5.28-7.06-6.05c-.64-.27-1.69-.32-2.44.36-1.19 1.07-.26 2.6-.26 2.6s-1.44-.95-2.64.13c-1.25 1.13-.38 2.92-.38 2.92s-1.53-1.44-3.05-.36c-1.2.86-.48 2.69-.48 2.69s-1.47-1.27-2.93-.18c-1.43 1.07-.76 2.73-.76 2.73z"/><path style="fill:#7fdafb" d="M96.97 8.04c-.24 1.7 6.29 16.33 6.61 17.09.52 1.24 3.76 4.79 8.9 2.49 4.39-1.96 3.33-6.82 3.14-7.53-.72-2.68-5.17-16.56-6.81-16.89-1.37-.28-11.65 3.46-11.84 4.84z"/><path style="fill:#5c727f" d="M54.4 107.42s.06 12.53.11 13.86c.06 1.33.83 2.55 2.38 2.61 1.55.06 8.48 0 9.48-.06s1.84-1.15 1.94-3.1c.11-2.11.22-14.13.22-14.13l-14.13.82z"/><path style="fill:#484d4f" d="M47.47 99.61c-.17.22.5 9.48 13.86 9.31 13.36-.17 14.3-9.04 14.19-9.48s-27.89-.06-28.05.17z"/><path style="fill:#4383f4" d="M14.96 55.1s1.08-7.01 4.41-10.13c2.5-2.34 5.72-3.28 9.42-3.55 3.7-.28 59.89-.26 64.24-.18 5.08.09 9.38 2.9 11.55 5.55 2.54 3.1 3.49 9.01 3.49 10.58s-9.13-9.01-9.13-9.01l-17.24-1.7-53.18-.81-13.56 9.25z"/><path style="fill:#000202" d="M33.26 87.03s4.36 3.16 13.67 2.18c9.19-.97 11.73-11.13 11.73-11.13l7.26 2.9s2.3 5.93 8.59 7.62 12.6-.78 12.6-.78l-13.93-8.41-6.89-11.01-9.4-.1-7.05 11.35-7.62 5.81-8.96 1.57z"/><path style="fill:#5c727d" d="M61.54 71.64c-2.39 0-3.35 4.21-4.88 7.46-1.53 3.25-3.63 7.17-2.2 8.51s3.06 1.15 6.98 1.24c4.02.1 6.12-.1 7.08-1.91.9-1.7-.99-5.01-2.2-7.94-1.34-3.24-2.68-7.36-4.78-7.36z"/><linearGradient id="b" gradientUnits="userSpaceOnUse" x1="60.628" y1="76.665" x2="61.01" y2="46.106"><stop offset=".191" style="stop-color:#27a0e2"/><stop offset=".426" style="stop-color:#80c7ee;stop-opacity:.8729"/><stop offset=".746" style="stop-color:#fff;stop-opacity:.7"/></linearGradient><path style="opacity:.8;fill:url(#b)" d="m34.39 80.61-12.4-3.56-6.58-15.2 5.17-11S34.27 45.78 35.67 46s30.72.11 32.45.22 30.29.54 30.51.86c.22.32 7.87 1.51 7.65 7.87s-1.29 14.98-1.51 15.74-2.26 7.65-4.2 8.08c-1.94.43-10.46.86-10.46.86l-17.35-2.5-11.2-12.59-9.59 9.59-17.58 6.48z"/><path style="fill:#1565c4" d="m18.34 72.37.55-4.9s4.29 6.21 8.78 8.41c5 2.44 10.13 3.51 16.88.36 6.15-2.86 8.52-11.11 11.35-13.83.96-.92 2.62-2.2 5.78-2.11 2.12.06 4.05.9 4.92 1.67 3.8 3.39 6.02 11.89 10.52 14.38 5.68 3.14 12.49 3.12 18.12-.39 5.64-3.51 8.23-7.21 8.23-7.21l-.28 7.76-8.97 9.06-16.72-2.11-6.1-6.38-7.12-9.06s-7.21 0-7.39.28c-.18.28-6.56 9.8-6.56 9.8l-6.75 6.47s-11 1.02-11.92.28-10.07-5.55-10.07-5.55l-3.25-6.93z"/><path style="fill:#81d7ff" d="M101.87 47.3c-3.38-1.87-8.19-2.8-14.88-2.69-6.68.11-55.19-.32-58.21-.22-3.02.11-6.58 1.19-8.84 2.8-4.6 3.29-5.92 9.7-6.14 16.82-.27 8.51 4.62 24 22.3 24.1 12.78.07 16.37-8.43 19.58-13.67 1.48-2.41 2.65-5.07 5.86-4.98 3.45.1 4.27 2.56 5.36 4.49 3.1 5.53 6.12 14.42 20.08 14.34 15.52-.08 21.47-15.08 21.77-24.77.25-8.72-3.11-14.13-6.88-16.22zm1.4 16.71c-.43 7.65-4.43 18.62-16.06 19.08-10.89.43-13.8-6.04-15.42-8.3s-4.5-6.78-6.05-8.1c-2.16-1.83-7.19-1.2-8.7.1-1.92 1.64-4.03 5.14-6.28 8.36-3.77 5.39-6.24 7.52-13.89 7.84s-13.91-4.2-16.39-11.53c-2.92-8.63-1.29-16.06 3.67-19.73 2.4-1.77 4.64-2.48 7.01-2.59 2.37-.11 55.84-.32 61.77.22s10.77 7 10.34 14.65z"/></svg>