<svg xmlns="http://www.w3.org/2000/svg" viewBox="0 0 128 128" style="enable-background:new 0 0 128 128" xml:space="preserve"><circle style="fill:#c33" cx="64" cy="64" r="60"/><circle style="fill:#f44336" cx="60.1" cy="63.1" r="56.1"/><path style="fill:#fafafa" d="M97.95 87.2c-1.19-.43-2.36-.93-3.5-1.5-.22-.1-.46-.17-.7-.2-.85-.02-1.57.65-1.6 1.5-.3 8-.7 9.6-2.2 9.6h-4.8c-1.7 0-2-.5-2-3.2V65.6c.02-.87.73-1.58 1.6-1.6h7.7c.85.02 1.57-.65 1.6-1.5V30.3c-.07-.84-.76-1.49-1.6-1.5l-39.2.1c-.81-.02-1.48.63-1.5 1.44V62.7c.02.82.68 1.48 1.5 1.5h5.5c.83 0 1.5.67 1.5 1.5v.1c-.9 14.6-3.4 24.9-15.8 31.3a1.475 1.475 0 0 0-.5 2.4c1.14 1.15 2.14 2.43 3 3.8.31.42.78.68 1.3.7.24-.02.48-.09.7-.2 14.9-7.6 18.2-20.4 19.2-38.2.02-.82.68-1.48 1.5-1.5h4c.87.02 1.58.73 1.6 1.6v27.9c0 7.5 1.6 9.9 8.5 9.9h6.9c5.8 0 7.6-3.3 8.3-14.7.12-.71-.31-1.39-1-1.6zm-37.1-30.5c-.82-.02-1.48-.68-1.5-1.5V37.8c.02-.82.68-1.48 1.5-1.5h23.5c.85-.02 1.57.65 1.6 1.5v17.4c-.07.84-.76 1.49-1.6 1.5h-23.5z"/><path style="opacity:.65;fill:#ff8a80;enable-background:new" d="M24.35 29.7c4.5-7.1 14.1-13 24.1-14.8 2.5-.4 5-.6 7.1.2 1.6.6 2.9 2.1 2 3.8-.7 1.4-2.6 2-4.1 2.5a44.64 44.64 0 0 0-23 17.4c-2 3-5 11.3-8.7 9.2-3.9-2.3-3.1-9.5 2.6-18.3z"/><path style="fill:#fafafa" d="M46.45 76.9c.47-.01.91-.23 1.2-.6l3-4c.47-.6.43-1.45-.1-2-2.3-2.4-7.1-7.3-10.1-10.2-.51-.55-.59-1.36-.2-2a78.346 78.346 0 0 0 8.4-16.3c.21-.67-.03-1.39-.6-1.8l-2.7-1.8c-.26-.19-.58-.29-.9-.3h-6v-7.5c.02-.85-.65-1.57-1.5-1.6h-4.7c-.84.07-1.49.76-1.5 1.6v7.7h-10.3c-.82.02-1.48.68-1.5 1.5v4.3c-.02.81.63 1.48 1.44 1.5h16.16c.86-.01 1.57.67 1.59 1.53 0 .27-.06.53-.19.77a68.47 68.47 0 0 1-19.6 22.5c-.64.45-.85 1.3-.5 2 .8 1.66 1.5 3.36 2.1 5.1.3.86 1.23 1.31 2.09 1.01.15-.05.29-.12.41-.21 2.03-1.62 3.97-3.36 5.8-5.2.26-.34.67-.53 1.1-.5.82.02 1.48.68 1.5 1.5v28.7c-.02.85.65 1.57 1.5 1.6h4.7c.84-.07 1.49-.76 1.5-1.6V72.4c-.01-.87.68-1.58 1.55-1.59.49-.01.95.21 1.25.59 1.4 1.7 2.7 3.4 3.8 4.9.32.39.8.61 1.3.6z"/><path style="opacity:.3;fill:#ff8a80;enable-background:new" d="M24.35 29.7c4.5-7.1 14.1-13 24.1-14.8 2.5-.4 5-.6 7.1.2 1.6.6 2.9 2.1 2 3.8-.7 1.4-2.6 2-4.1 2.5a44.64 44.64 0 0 0-23 17.4c-2 3-5 11.3-8.7 9.2-3.9-2.3-3.1-9.5 2.6-18.3z"/></svg>