<svg xmlns="http://www.w3.org/2000/svg" viewBox="0 0 1000 1000"><path fill="#078930" d="M8 195.25c170.83-85.22 341.03-54.42 513.26-27.97 155.21 23.84 312.16 44.57 470.74-34.53v672c-171.58-31.54-342.84-180.04-515.93-324.79C321.78 350.95 165.73 224.25 8 195.25"/><path fill="#FCDD09" d="M8 195.25c171.58 31.54 342.84 180.04 515.93 324.79C678.22 649.05 834.27 775.75 992 804.75c-170.83 85.22-341.03 54.42-513.26 27.97C323.53 808.88 166.58 788.15 8 867.25v-672"/><path fill="#DA121A" d="m500 388 64.27 212.32-168.25-150.01c68.62 8.63 137.25 21.27 207.96 30.16-55.53 34.35-111.04 66.08-168.25 100.43L500 388"/></svg>