<svg xmlns="http://www.w3.org/2000/svg" viewBox="0 0 128 128" style="enable-background:new 0 0 128 128" xml:space="preserve"><path style="fill:#543930" d="M53.12 3.45c-41.01 0-40.68 37.92-40.68 38.52 0 24.56 1.88 59.25 11.71 72.9 3.9 5.41 11.43 5.71 11.43 5.71l16.97-.03 16.97.03s7.54-.3 11.43-5.71c9.83-13.65 11.71-48.34 11.71-72.9 0-.6 1.47-38.52-39.54-38.52z"/><radialGradient id="a" cx="52.551" cy="68.978" r="47.532" gradientTransform="matrix(1 0 0 -1.1901 0 141.11)" gradientUnits="userSpaceOnUse"><stop offset=".794" style="stop-color:#6d4c41;stop-opacity:0"/><stop offset="1" style="stop-color:#6d4c41"/></radialGradient><path style="fill:url(#a)" d="M53.12 3.45c-41.01 0-40.68 37.92-40.68 38.52 0 24.56 1.88 59.25 11.71 72.9 3.9 5.41 11.43 5.71 11.43 5.71l16.97-.03 16.97.03s7.54-.3 11.43-5.71c9.83-13.65 11.71-48.34 11.71-72.9 0-.6 1.47-38.52-39.54-38.52z"/><radialGradient id="b" cx="53.328" cy=".282" r="68.219" gradientTransform="matrix(1 0 0 -.6035 0 127.888)" gradientUnits="userSpaceOnUse"><stop offset=".559" style="stop-color:#f5f5f5"/><stop offset="1" style="stop-color:#c6c6c6"/></radialGradient><path style="fill:url(#b)" d="M51.92 96.45c-23.62.07-48.11 7.33-48.11 25.05v3.04h96.23v-3.04c0-17.72-24.5-24.98-48.12-25.05z"/><linearGradient id="c" gradientUnits="userSpaceOnUse" x1="87.922" y1="13.052" x2="102.38" y2="11.137" gradientTransform="matrix(1 0 0 -1 0 128)"><stop offset="0" style="stop-color:#9e9e9e;stop-opacity:0"/><stop offset=".788" style="stop-color:#9e9e9e"/></linearGradient><path style="fill:url(#c)" d="m90.03 105.14-5.82 19.41h15.83v-3.04c0-7.05-3.87-12.43-10.01-16.37z"/><path style="fill:#99674f" d="M52 92.53h-9.08v9.98c0 4.51 3.7 8.17 8.26 8.17h1.65c4.56 0 8.26-3.66 8.26-8.17v-9.98H52z"/><linearGradient id="d" gradientUnits="userSpaceOnUse" x1="52.21" y1="22.296" x2="52.21" y2="3.267" gradientTransform="matrix(1 0 0 -1 0 128)"><stop offset=".003" style="stop-color:#80cbc4"/><stop offset=".333" style="stop-color:#73c6be"/><stop offset=".941" style="stop-color:#51b8ae"/><stop offset="1" style="stop-color:#4db6ac"/></linearGradient><path style="fill:url(#d)" d="M62.78 105.7H41.64l2.42 18.85h16.56z"/><linearGradient id="e" gradientUnits="userSpaceOnUse" x1="38.665" y1="10.657" x2="38.665" y2="30.86" gradientTransform="matrix(1 0 0 -1 0 128)"><stop offset=".335" style="stop-color:#e0e0e0"/><stop offset=".668" style="stop-color:#d0d0d0"/><stop offset=".987" style="stop-color:#bdbdbd"/></linearGradient><path style="fill:url(#e)" d="M43.05 96.77c-5.92.43-8.69.94-8.69.94l-3.13 7.3 5.25 4.39-4.88 6.15 7.12 9h7.38l-3.05-27.78z"/><linearGradient id="f" gradientUnits="userSpaceOnUse" x1="38.553" y1="10.657" x2="38.553" y2="30.86" gradientTransform="rotate(180 52.079 64)"><stop offset=".335" style="stop-color:#e0e0e0"/><stop offset=".668" style="stop-color:#d0d0d0"/><stop offset=".987" style="stop-color:#bdbdbd"/></linearGradient><path style="fill:url(#f)" d="M61.22 96.77c5.92.43 8.69.94 8.69.94l3.13 7.3-5.25 4.39 4.88 6.15-7.12 9h-7.38l3.05-27.78z"/><path style="fill:#80cbc4" d="M122.32 74.01c1.14 7.79-.11 16.87-.11 16.87l-10.26-.9s-.39-5.91 0-5.92l10.37-10.05z"/><linearGradient id="g" gradientUnits="userSpaceOnUse" x1="97.973" y1="22.785" x2="123.716" y2="19.374" gradientTransform="matrix(1 0 0 -1 0 128)"><stop offset=".437" style="stop-color:#f5f5f5"/><stop offset="1" style="stop-color:#c6c6c6"/></linearGradient><path style="fill:url(#g)" d="M111.99 88.35c-6.66-.81-9.59-1.6-9.59-1.6l-11.34 37.8h28.19l4.14-36.21s-3.15 1.01-11.4.01z"/><linearGradient id="h" gradientUnits="userSpaceOnUse" x1="118.567" y1="75.431" x2="96.091" y2="22.72" gradientTransform="matrix(1 0 0 -1 0 128)"><stop offset="0" style="stop-color:#b3e5fc;stop-opacity:.8"/><stop offset=".083" style="stop-color:#aee3fc;stop-opacity:.8165"/><stop offset=".674" style="stop-color:#8dd8fa;stop-opacity:.9349"/><stop offset="1" style="stop-color:#81d4fa"/></linearGradient><path style="opacity:.86;fill:url(#h);enable-background:new" d="M110.49 113.13c-2.27 1.4-9.11.12-15.75-2.25-5.12-1.83-9.23-4.16-9.27-4.17-.53-.25-5.5-2.95-5.5-5.74 0-2.32 1.96-3.89 2.44-4.43l.1-.1 17.46-17.59 13.14-31.8.02-.01s2.36-.81 5.67.49 5.01 3.46 5.01 3.46l-.02.01-11.85 32.62s.03 23.38 0 25.39c-.04 2.72-.36 3.45-1.45 4.12z"/><radialGradient id="i" cx="112.423" cy="39.875" r="25.366" gradientTransform="scale(1 -1) rotate(-13.308 -444.826 -16.588)" gradientUnits="userSpaceOnUse"><stop offset="0" style="stop-color:#ce93d8"/><stop offset=".205" style="stop-color:#ca8ad5"/><stop offset=".537" style="stop-color:#bf73cc"/><stop offset=".95" style="stop-color:#ad4cbe"/><stop offset="1" style="stop-color:#ab47bc"/></radialGradient><path style="opacity:.8;fill:url(#i);enable-background:new" d="M106.89 111.57c-5.64-2.2-17.38-6.85-23.03-9.14-1.53-.63-1.93-2.6-.77-3.77l7.43-7.49 19.51-.94v19.19c.01 1.62-1.62 2.74-3.14 2.15z"/><path transform="rotate(-67.282 100.372 100.67)" style="fill:#fff" d="M99.37 97.27h2v6.8h-2z"/><path transform="rotate(-67.282 102.394 95.226)" style="fill:#fff" d="M101.39 91.82h2v6.8h-2z"/><path transform="rotate(-67.282 104.419 89.79)" style="fill:#fff" d="M103.42 86.39h2v6.8h-2z"/><path transform="rotate(-67.282 106.442 84.35)" style="fill:#fff" d="M105.44 80.95h2v6.8h-2z"/><path transform="rotate(-67.282 108.464 78.906)" style="fill:#fff" d="M107.46 75.5h2v6.8h-2z"/><path transform="rotate(-67.287 110.487 73.472)" style="fill:#fff" d="M109.48 70.07h2v6.8h-2z"/><path transform="rotate(-67.287 112.509 68.03)" style="fill:#fff" d="M111.5 64.63h2v6.8h-2z"/><path transform="rotate(-67.287 115.02 61.705)" style="fill:#fff" d="M114.01 58.3h2v6.8h-2z"/><path transform="rotate(-67.287 117.045 56.267)" style="fill:#fff" d="M116.04 52.86h2v6.8h-2z"/><path style="fill:#80cbc4" d="M98.74 80.1s-2.53-2.14-2.52-4.09c.01-1.56 1.89-3.04 1.89-3.04s-1.8-2.77-1.14-4.28c.94-2.14 3.41-2.55 3.41-2.55s-1.12-2.79.65-4.43c1.26-1.17 4.9-.68 4.9-.68s.36-4.58 4.82-3.43c1.74.45 7.91 3.99 10.21 11.46 1.44 4.67 2 6.06 1.54 13.06-.2 2.97-7.71 2.97-10.54 1.95-7.05-2.54-9.05-5.64-10.02-5.62-.98.01-3.2 1.65-3.2 1.65z"/><path style="fill:#26a69a" d="M99.61 71.23c-.72.13-1.28.71-1.44 1.43l-.07.31 4.18-1.43c-.98-.46-1.95-.44-2.67-.31zm5.08-4.81c-.57-.63-1.23-.99-1.82-1.2-.94-.33-1.98.07-2.5.92l4.32.28zm3.29-6.05c-.73-.29-1.6-.07-2.04.58-.01.02-.02.04-.03.05 1.78.22 4.45 1.34 4.45 1.34-.54-1.06-1.56-1.65-2.38-1.97z"/><ellipse transform="rotate(-68.482 95.977 105.65)" style="fill:#8f5d9b" cx="95.98" cy="105.65" rx="3.35" ry="14.43"/><ellipse transform="rotate(-68.507 118.364 49.346)" style="fill:#81d4fa" cx="118.37" cy="49.35" rx="3.09" ry="5.73"/><path style="fill:#ba8d68" d="M52.11 16.04c-17.2 0-33.13 12.79-33.13 39.91 0 21.78 13.49 34.67 25.23 38.83 2.8.99 5.5 1.49 7.9 1.49 2.38 0 5.07-.49 7.85-1.47 11.76-4.14 25.28-17.03 25.28-38.84 0-27.13-15.93-39.92-33.13-39.92z"/><path style="fill:#99674f" d="M55.86 68.26c-.11-.04-.21-.07-.32-.08h-7.08c-.11.01-.22.04-.32.08-.64.26-.99.92-.69 1.63.3.71 1.71 2.69 4.55 2.69s4.25-1.99 4.55-2.69c.3-.7-.05-1.37-.69-1.63z"/><path style="fill:#5d4037" d="M60.53 76.35c-3.19 1.89-13.63 1.89-16.81 0-1.83-1.09-3.7.58-2.94 2.24.75 1.63 6.44 5.42 11.37 5.42s10.55-3.79 11.3-5.42c.75-1.67-1.09-3.33-2.92-2.24z"/><path style="fill:#613e31" d="M43.77 49.97c-.93-1.23-3.07-3.01-7.23-3.01s-6.31 1.79-7.23 3.01c-.41.54-.31 1.17-.02 1.55.26.35 1.04.68 1.9.39s2.54-1.16 5.35-1.18c2.81.02 4.49.89 5.35 1.18.86.29 1.64-.03 1.9-.39.29-.37.39-1-.02-1.55zm31.15 0c-.93-1.23-3.07-3.01-7.23-3.01s-6.31 1.79-7.23 3.01c-.41.54-.31 1.17-.02 1.55.26.35 1.04.68 1.9.39s2.54-1.16 5.35-1.18c2.81.02 4.49.89 5.35 1.18.86.29 1.64-.03 1.9-.39.28-.37.38-1-.02-1.55z"/><ellipse style="fill:#49362e" cx="36.54" cy="59.02" rx="4.93" ry="5.1"/><ellipse style="fill:#49362e" cx="67.68" cy="59.02" rx="4.93" ry="5.1"/><linearGradient id="j" gradientUnits="userSpaceOnUse" x1="51.654" y1="83.691" x2="51.654" y2="59.498" gradientTransform="matrix(1 0 0 -1 0 128)"><stop offset=".203" style="stop-color:#b3e5fc;stop-opacity:.5"/><stop offset="1" style="stop-color:#b3e5fc;stop-opacity:.2"/></linearGradient><path style="fill:url(#j)" d="M31.1 44.31h42.65l5.79 5.1v15.03s-3.94 5.5-13.44 3.19-8.23-8.05-13.88-8.05-8.25 9.17-20.62 8.92c0 0-6.38-.56-7.56-4.56l-.27-16.61 7.33-3.02z"/><linearGradient id="k" gradientUnits="userSpaceOnUse" x1="80.209" y1="72.219" x2="80.209" y2="84.847" gradientTransform="matrix(1 0 0 -1 0 128)"><stop offset="0" style="stop-color:#bdbdbd"/><stop offset="1" style="stop-color:#e0e0e0"/></linearGradient><path style="fill:url(#k)" d="M88.28 54.76c.01.67-.19 1.32-.57 1.87l-5.47 8.05c-2.06 2.85-9.3 4.43-9.3 4.43l8.18-9.14-1.56-11.5-7.43-5.8s3.07.3 5.24.3 4.33 1.39 5.44 2.16l4.02 2.77c.88.61 1.4 1.6 1.41 2.67l.04 4.19z"/><linearGradient id="l" gradientUnits="userSpaceOnUse" x1="24.041" y1="72.386" x2="24.041" y2="84.508" gradientTransform="matrix(1 0 0 -1 0 128)"><stop offset="0" style="stop-color:#bdbdbd"/><stop offset="1" style="stop-color:#e0e0e0"/></linearGradient><path style="fill:url(#l)" d="M15.97 54.76c-.01.67.19 1.32.57 1.87L22 64.68c2.06 2.85 9.3 4.43 9.3 4.43l-8.18-9.14 1.56-11.5 7.43-5.8s-3.07.3-5.24.3-4.33 1.39-5.44 2.16l-4.02 2.77c-.88.61-1.4 1.6-1.41 2.67l-.03 4.19z"/><radialGradient id="m" cx="52.111" cy="71.87" r="22.896" gradientTransform="matrix(0 1 1.4084 0 -49.11 4.017)" gradientUnits="userSpaceOnUse"><stop offset="0" style="stop-color:#f5f5f5"/><stop offset=".676" style="stop-color:#eee"/><stop offset="1" style="stop-color:#e0e0e0"/></radialGradient><path style="fill:url(#m)" d="M71.58 45.63c1.1 0 2.93.35 4.48 1.34 2.1 1.34 2.16 2.89 2.18 3.4.03.77.06 1.51.1 2.25.1 2.31.2 4.49.2 6.61 0 4.35-3.91 7.38-9.5 7.38-3.95 0-8.42-3.33-10.46-5.57-1.6-1.75-3.96-2.76-6.48-2.76-2.52 0-4.88 1.01-6.48 2.76-2.04 2.24-6.51 5.57-10.46 5.57-5.59 0-9.5-3.03-9.5-7.38 0-2.13.1-4.31.2-6.61.03-.74.07-1.49.1-2.25.02-.51.08-2.06 2.18-3.4 1.55-.99 3.38-1.34 4.48-1.34h38.96m0-3H32.64c-3.58 0-9.44 2.3-9.66 7.62-.13 3.2-.3 6.1-.3 8.99 0 6 5.21 10.38 12.5 10.38 5 0 10.15-3.78 12.67-6.55 1.08-1.18 2.67-1.78 4.26-1.78s3.19.6 4.26 1.78c2.53 2.77 7.67 6.55 12.67 6.55 7.29 0 12.5-4.38 12.5-10.38 0-2.88-.17-5.79-.3-8.99-.21-5.32-6.07-7.62-9.66-7.62z"/><path style="fill:#543930" d="M53.12 3.45c-41.01 0-40.68 37.92-40.68 38.52 0 7.76.19 16.53.75 25.32l6.72-.02c-.06-2.92 1.99-20.97 8.08-22.34C50.35 39.9 63 28.04 63 28.04c3.29 7.18 13.58 14.19 17.27 16.86 3.03 2.19 3.96 18.55 3.9 22.38h7.71c0-.05.02-.1.02-.16.56-8.75.74-17.46.74-25.17.02-.58 1.49-38.5-39.52-38.5z"/><radialGradient id="n" cx="52.885" cy="64.954" r="49.788" gradientTransform="matrix(1 0 0 -1.2135 0 141.87)" gradientUnits="userSpaceOnUse"><stop offset=".794" style="stop-color:#6d4c41;stop-opacity:0"/><stop offset="1" style="stop-color:#6d4c41"/></radialGradient><path style="fill:url(#n)" d="M53.12 3.45c-41.01 0-40.68 37.92-40.68 38.52 0 7.76.19 16.53.75 25.32l6.72-.02c-.06-2.92 1.99-20.97 8.08-22.34C50.35 39.9 63 28.04 63 28.04c3.29 7.18 13.58 14.19 17.27 16.86 3.03 2.19 3.96 18.55 3.9 22.38h7.71c0-.05.02-.1.02-.16.56-8.75.74-17.46.74-25.17.02-.58 1.49-38.5-39.52-38.5z"/></svg>