<svg xmlns="http://www.w3.org/2000/svg" viewBox="0 0 1000 1000"><path fill="#da0000" d="M8 195.25c170.83-85.22 341.03-54.42 513.26-27.97 155.21 23.84 312.16 44.57 470.74-34.53v672c-170.83 85.22-341.03 54.42-513.26 27.97C323.53 808.88 166.58 788.15 8 867.25v-672"/><path fill="#fff" d="M8 195.25c170.83-85.22 341.03-54.42 513.26-27.97 155.21 23.84 312.16 44.57 470.74-34.53v448c-170.83 85.22-341.03 54.42-513.26 27.97C323.53 584.88 166.58 564.15 8 643.25v-448"/><path fill="#239f40" d="M8 195.25c170.83-85.22 341.03-54.42 513.26-27.97 155.21 23.84 312.16 44.57 470.74-34.53v224c-170.83 85.22-341.03 54.42-513.26 27.97C323.53 360.88 166.58 340.15 8 419.25v-224"/><path fill="#fff" d="m77.97 380.01-13.12 4.49v-15.68l17.5-5.9v-10.46l4.37-1.36v20.91l4.37-1.33v-20.9l4.38-1.29v20.91l4.37-1.24v-20.9l4.37-1.2v26.13c-7.21 1.95-14.43 4.06-21.86 6.41v-10.46l-13.12 4.36v5.23l8.74-2.95v5.23m-56.85 22.45v-15.68c7.22-3.35 14.43-6.51 21.87-9.57v10.45l13.12-5.17v-5.23l-8.75 3.4v-5.22l13.12-5.04v15.68a536.45 536.45 0 0 0-21.87 8.63v-10.46L25.49 390v10.45l-4.37 2.01m0-26.13a517.234 517.234 0 0 1 56.85-22.46v5.23a517.015 517.015 0 0 0-56.85 22.45v-5.22m8.75 16.93 4.37-1.91v5.22l-4.37 1.92v-5.23M21.12 407.69c13-6.04 25.98-11.44 39.36-16.38v10.45a523.565 523.565 0 0 0-39.36 16.38v-10.45m43.73-17.97c13-4.63 25.98-8.69 39.36-12.3v10.45a523.494 523.494 0 0 0-39.36 12.31v-10.46M21.12 631.69c13-6.04 25.98-11.44 39.36-16.38v10.45a523.565 523.565 0 0 0-39.36 16.38v-10.45m43.73-17.97c13-4.63 25.98-8.69 39.36-12.3v10.45a523.494 523.494 0 0 0-39.36 12.31v-10.46M77.97 651.05l-13.12 4.49v-15.68l17.5-5.9V623.5l4.37-1.36v20.9l4.37-1.32v-20.9l4.38-1.29v20.91l4.37-1.24v-20.9l4.37-1.2v26.13c-7.21 1.95-14.43 4.06-21.86 6.41v-10.46l-13.12 4.36v5.23l8.74-2.95v5.23M21.12 673.5v-15.68c7.22-3.35 14.43-6.51 21.87-9.57v10.45l13.12-5.17v-5.23l-8.75 3.4v-5.22l13.12-5.04v15.68a536.45 536.45 0 0 0-21.87 8.63v-10.46l-13.12 5.75v10.45l-4.37 2.01m0-26.13a517.234 517.234 0 0 1 56.85-22.46v5.23a517.015 517.015 0 0 0-56.85 22.45v-5.22m8.75 16.93 4.37-1.91v5.22l-4.37 1.92v-5.23M165.44 359.53l-13.12 2.1v-15.68l17.49-2.73v-10.46l4.38-.59v20.9l4.37-.56V331.6l4.37-.52v20.9l4.38-.49v-20.91l4.37-.46v26.13c-7.22.74-14.43 1.61-21.87 2.65v-10.46l-13.12 2v5.22l8.75-1.36v5.23m-56.85 11.51v-15.68c7.22-1.87 14.43-3.58 21.86-5.19v10.46l13.12-2.65v-5.23l-8.74 1.73v-5.23l13.12-2.53v15.68c-7.22 1.31-14.43 2.76-21.87 4.41v-10.45l-13.12 3.11v10.45l-4.37 1.12m0-26.14c18.77-4.85 37.52-8.63 56.85-11.51v5.23c-18.76 2.79-37.52 6.51-56.85 11.51v-5.23m8.74 18.72 4.38-1.04v5.23l-4.38 1.03v-5.22M108.59 376.26c12.99-3.36 25.97-6.21 39.36-8.63v10.45c-12.99 2.36-25.98 5.17-39.36 8.64v-10.46m43.73-9.41c12.99-2.22 25.98-3.99 39.36-5.37v10.45c-12.99 1.34-25.97 3.08-39.36 5.38v-10.46M108.59 600.26c12.99-3.36 25.97-6.21 39.36-8.63v10.45c-12.99 2.36-25.98 5.17-39.36 8.64v-10.46m43.73-9.41c12.99-2.22 25.98-3.99 39.36-5.37v10.45c-12.99 1.34-25.97 3.08-39.36 5.38v-10.46M165.44 630.57l-13.12 2.1v-15.68l17.49-2.73V603.8l4.38-.59v20.9l4.37-.56v-20.91l4.37-.52v20.9l4.38-.49v-20.91l4.37-.46v26.13c-7.22.74-14.43 1.61-21.87 2.65v-10.46l-13.12 2v5.22l8.75-1.36v5.23m-56.85 11.51V626.4c7.22-1.87 14.43-3.58 21.86-5.19v10.46l13.12-2.65v-5.23l-8.74 1.73v-5.23l13.12-2.53v15.68c-7.22 1.31-14.43 2.76-21.87 4.41V627.4l-13.12 3.11v10.45l-4.37 1.12m0-26.14c18.77-4.85 37.52-8.63 56.85-11.51v5.23c-18.76 2.79-37.52 6.51-56.85 11.51v-5.23m8.74 18.72 4.38-1.04v5.23l-4.38 1.03v-5.22M252.91 352.9l-13.12.25v-15.68l17.49-.28v-10.46h4.37v20.9l4.38.02v-20.91l4.37.04v20.91l4.37.07v-20.91l4.38.09v26.13l-21.87-.2v-10.46l-13.12.18v5.23l8.75-.15v5.23m-56.86 2.92v-15.68l21.87-1.7v10.45l13.12-.66V343l-8.75.42v-5.23l13.12-.58v15.68l-21.86 1.11v-10.45l-13.12 1.01v10.46l-4.38.4m0-26.14c18.77-1.77 37.52-2.7 56.86-2.91v5.22c-18.77.21-37.52 1.1-56.86 2.92v-5.23m8.75 20.14 4.37-.34v5.23l-4.37.34v-5.23M196.05 361.04c12.99-1.22 25.98-2.05 39.36-2.52v10.45c-12.99.46-25.97 1.26-39.36 2.53v-10.46m43.74-2.66c12.99-.36 25.97-.38 39.36-.08v10.45c-12.99-.29-25.98-.29-39.36.08v-10.45M196.05 585.04c12.99-1.22 25.98-2.05 39.36-2.52v10.45c-12.99.46-25.97 1.26-39.36 2.53v-10.46m43.74-2.66c12.99-.36 25.97-.38 39.36-.08v10.45c-12.99-.29-25.98-.29-39.36.08v-10.45M252.91 623.94l-13.12.25v-15.68l17.49-.28v-10.46h4.37v20.9l4.38.02v-20.91l4.37.04v20.91l4.37.07v-20.91l4.38.09v26.13l-21.87-.2v-10.46l-13.12.18v5.22l8.75-.14v5.23m-56.86 2.92v-15.68l21.87-1.7v10.45l13.12-.66v-5.23l-8.75.42v-5.23l13.12-.58v15.68l-21.86 1.11v-10.45L200.43 616v10.46l-4.38.4m0-26.14c18.77-1.77 37.52-2.7 56.86-2.91v5.22c-18.77.21-37.52 1.1-56.86 2.92v-5.23m8.75 20.14 4.37-.34v5.23l-4.37.34v-5.23M340.37 356.5l-13.12-1.05v-15.68l17.5 1.44v-10.46l4.37.4v20.91l4.37.41v-20.9l4.38.43v20.9l4.37.45v-20.91l4.37.46v26.14l-21.86-2.15v-10.46l-13.12-1.1v5.23l8.74.72v5.22m-56.85-3.32V337.5l21.87.88v10.46l13.12.77v-5.22l-8.75-.54v-5.23l13.12.84v15.68l-21.87-1.29v-10.46l-13.12-.53v10.46l-4.37-.14m0-26.13c18.76.53 37.52 1.67 56.85 3.32v5.23c-18.76-1.61-37.52-2.77-56.85-3.32v-5.23m8.75 21.19 4.37.18v5.23l-4.37-.18v-5.23M283.52 358.41c12.99.37 25.98 1.02 39.36 1.95v10.46a943.46 943.46 0 0 0-39.36-1.96v-10.45m43.73 2.27 39.36 3.58v10.46l-39.36-3.59v-10.45M283.52 582.41c12.99.37 25.98 1.02 39.36 1.95v10.46a943.46 943.46 0 0 0-39.36-1.96v-10.45m43.73 2.27 39.36 3.58v10.46l-39.36-3.59v-10.45M340.37 627.54l-13.12-1.05v-15.68l17.5 1.44v-10.46l4.37.4v20.91l4.37.41v-20.9l4.38.43v20.9l4.37.45v-20.91l4.37.46v26.14l-21.86-2.15v-10.46l-13.12-1.1v5.23l8.74.72v5.22m-56.85-3.32v-15.68l21.87.88v10.46l13.12.77v-5.22l-8.75-.54v-5.23l13.12.84v15.68l-21.87-1.29v-10.46l-13.12-.53v10.46l-4.37-.14m0-26.13c18.76.53 37.52 1.67 56.85 3.32v5.23c-18.76-1.61-37.52-2.77-56.85-3.33v-5.22m8.75 21.19 4.37.18v5.23l-4.37-.18v-5.23M427.84 366.71l-13.12-1.81v-15.68l17.49 2.43V341.2l4.38.63v20.9l4.37.64v-20.91l4.37.64V364l4.38.65v-20.91l4.37.65v26.13l-21.87-3.19v-10.45l-13.12-1.84v5.23l8.75 1.22v5.22m-56.85-7.2v-15.68l21.86 2.56v10.45l13.12 1.67v-5.22l-8.74-1.13v-5.23l13.12 1.71v15.68l-21.87-2.79v-10.45l-13.12-1.54V360l-4.37-.49m0-26.13 56.85 7.2v5.23l-56.85-7.21v-5.22m8.74 21.89 4.38.51v5.23l-4.38-.51v-5.23M370.99 364.74l39.36 4.8V380l-39.36-4.81v-10.45m43.73 5.39 39.36 5.62v10.45l-39.36-5.62v-10.45M370.99 588.74l39.36 4.8V604l-39.36-4.81v-10.45m43.73 5.39 39.36 5.62v10.45l-39.36-5.62v-10.45M427.84 637.75l-13.12-1.81v-15.68l17.49 2.43v-10.45l4.38.63v20.9l4.37.63v-20.9l4.37.64v20.9l4.38.65v-20.91l4.37.65v26.13l-21.87-3.19v-10.45l-13.12-1.84v5.23l8.75 1.22v5.22m-56.85-7.2v-15.68l21.86 2.56v10.45l13.12 1.67v-5.22l-8.74-1.13v-5.23l13.12 1.71v15.68l-21.87-2.79v-10.45l-13.12-1.54v10.46l-4.37-.49m0-26.13 56.85 7.2v5.23l-56.85-7.21v-5.22m8.74 21.89 4.38.51v5.23l-4.38-.51v-5.23M515.31 379.91l-13.12-2.02v-15.68l17.49 2.7v-10.46l4.37.67v20.91l4.38.67v-20.91l4.37.67v20.91l4.37.66v-20.91l4.38.66v26.13l-21.87-3.32v-10.46l-13.12-2.02v5.23l8.75 1.35v5.22m-56.86-8.73V355.5l21.87 3.33v10.45l13.12 2.02v-5.22l-8.75-1.35v-5.23l13.12 2.03v15.68l-21.86-3.37v-10.46l-13.12-2v10.46l-4.38-.66m0-26.13 56.86 8.73v5.23l-56.86-8.74v-5.22m8.75 22.22 4.37.67v5.23l-4.37-.67v-5.23M458.45 376.41l39.36 6.02v10.46l-39.36-6.03v-10.45m43.74 6.7 39.36 6.03v10.45l-39.36-6.02v-10.46M458.45 600.41l39.36 6.02v10.46l-39.36-6.03v-10.45m43.74 6.7 39.36 6.03v10.45l-39.36-6.02v-10.46M515.31 650.95l-13.12-2.02v-15.68l17.49 2.7v-10.46l4.37.67v20.91l4.38.67v-20.91l4.37.67v20.91l4.37.66v-20.91l4.38.66v26.13l-21.87-3.32v-10.46l-13.12-2.02v5.23l8.75 1.35v5.22m-56.86-8.73v-15.68l21.87 3.33v10.45l13.12 2.02v-5.22l-8.75-1.35v-5.23l13.12 2.03v15.68l-21.86-3.37v-10.46l-13.12-2v10.46l-4.38-.66m0-26.13 56.86 8.73v5.23l-56.86-8.74v-5.22m8.75 22.22 4.37.67v5.23l-4.37-.67v-5.23M602.77 392.48l-13.12-1.7V375.1l17.5 2.25v-10.46l4.37.54v20.9l4.37.53v-20.91l4.38.51v20.91l4.37.5v-20.91l4.37.49v26.13l-21.86-2.55v-10.46l-13.12-1.67v5.23l8.74 1.12v5.23m-56.85-7.91v-15.68l21.87 3.19v10.45l13.12 1.84v-5.23l-8.75-1.21v-5.23l13.12 1.81v15.68l-21.87-3.06v-10.45l-13.12-1.91v10.45l-4.37-.65m0-26.13 56.85 7.91v5.22l-56.85-7.91v-5.22m8.75 22.2 4.37.64v5.22l-4.37-.64v-5.22M545.92 389.8l39.36 5.62v10.45l-39.36-5.62V389.8m43.73 6.2 39.36 4.81v10.45l-39.36-4.8V396M545.92 613.8l39.36 5.62v10.45l-39.36-5.62V613.8m43.73 6.2 39.36 4.81v10.45l-39.36-4.8V620M602.77 663.52l-13.12-1.7v-15.68l17.5 2.25v-10.46l4.37.54v20.9l4.37.53v-20.91l4.38.51v20.91l4.37.5V640l4.37.49v26.13l-21.86-2.55v-10.46l-13.12-1.67v5.23l8.74 1.12v5.23m-56.85-7.91v-15.68l21.87 3.19v10.45l13.12 1.84v-5.23l-8.75-1.21v-5.23l13.12 1.81v15.68l-21.87-3.06v-10.45l-13.12-1.91v10.45l-4.37-.65m0-26.13 56.85 7.91v5.22l-56.85-7.91v-5.22m8.75 22.2 4.37.63v5.23l-4.37-.64v-5.22M690.24 400.79l-13.12-.83v-15.68l17.49 1.07V374.9l4.38.21v20.91l4.37.2v-20.91l4.37.18v20.91l4.38.15v-20.91l4.37.14v26.13l-21.87-.88v-10.45l-13.12-.78v5.23l8.75.53v5.23m-56.85-4.73v-15.68l21.86 2.15v10.45l13.12 1.1v-5.22l-8.74-.72v-5.23l13.12 1.05v15.68l-21.87-1.83v-10.46l-13.12-1.29v10.46l-4.37-.46m0-26.14c18.76 2 37.52 3.63 56.85 4.74v5.22c-18.76-1.07-37.52-2.67-56.85-4.73v-5.23m8.74 21.82 4.38.43v5.22l-4.38-.43v-5.22M633.39 401.28l39.36 3.59v10.45l-39.36-3.58v-10.46m43.73 3.9c12.99.91 25.98 1.58 39.36 1.96v10.45c-12.99-.37-25.98-1.02-39.36-1.95v-10.46M633.39 625.28l39.36 3.59v10.45l-39.36-3.58v-10.46m43.73 3.9c12.99.91 25.98 1.58 39.36 1.96v10.45c-12.99-.37-25.98-1.02-39.36-1.95v-10.46M690.24 671.83l-13.12-.83v-15.68l17.49 1.07v-10.45l4.38.21v20.91l4.37.2v-20.91l4.37.18v20.91l4.38.15v-20.91l4.37.14v26.13l-21.87-.88v-10.45l-13.12-.78v5.23l8.75.53v5.23m-56.85-4.73v-15.68l21.86 2.15v10.45l13.12 1.1v-5.22l-8.74-.72v-5.23l13.12 1.05v15.68l-21.87-1.83v-10.46l-13.12-1.29v10.46l-4.37-.46m0-26.14c18.76 2 37.52 3.63 56.85 4.74v5.22c-18.76-1.07-37.52-2.67-56.85-4.73v-5.23m8.74 21.82 4.38.43v5.22l-4.38-.43v-5.22M777.71 401.22l-13.12.58v-15.68l17.49-.83v-10.45l4.37-.28v20.91l4.38-.31v-20.91l4.37-.34v20.91l4.37-.37v-20.91l4.38-.4v26.14l-21.87 1.69v-10.45l-13.12.66v5.23l8.75-.41v5.22m-56.86.8v-15.68l21.87.21V397l13.12-.17v-5.23l-8.75.14v-5.23l13.12-.25v15.68l-21.86.29v-10.45l-13.12-.12v10.45l-4.38-.09m0-26.13c18.77.42 37.52.23 56.86-.8v5.23c-18.77.99-37.52 1.23-56.86.8v-5.23m8.75 21.06 4.37.04v5.23l-4.37-.04v-5.23M720.85 407.25c12.99.29 25.98.29 39.36-.08v10.45c-12.99.36-25.97.38-39.36.08v-10.45m43.74-.22c12.99-.46 25.97-1.26 39.36-2.53v10.46a670.571 670.571 0 0 1-39.36 2.52v-10.45M720.85 631.25c12.99.29 25.98.29 39.36-.08v10.45c-12.99.36-25.97.38-39.36.08v-10.45m43.74-.22c12.99-.46 25.97-1.26 39.36-2.53v10.46a670.571 670.571 0 0 1-39.36 2.52v-10.45M777.71 672.26l-13.12.58v-15.68l17.49-.83v-10.45l4.37-.28v20.91l4.38-.31v-20.91l4.37-.34v20.91l4.37-.37v-20.91l4.38-.4v26.14l-21.87 1.69v-10.45l-13.12.66v5.23l8.75-.41v5.22m-56.86.8v-15.68l21.87.21v10.45l13.12-.18v-5.22l-8.75.14v-5.23l13.12-.25v15.68l-21.86.29v-10.45l-13.12-.12v10.45l-4.38-.09m0-26.13c18.77.42 37.52.23 56.86-.8v5.23c-18.77.99-37.52 1.23-56.86.8v-5.23m8.75 21.06 4.37.04v5.23l-4.37-.04v-5.23M865.17 390.16l-13.12 2.53v-15.68l17.5-3.45v-10.45l4.37-.96v20.9l4.37-.99v-20.91l4.38-1.03v20.9l4.37-1.07v-20.91l4.37-1.12v26.14a558.18 558.18 0 0 1-21.86 5.18v-10.45l-13.12 2.64v5.23l8.74-1.73v5.23m-56.85 8.68v-15.68c7.22-.74 14.43-1.61 21.87-2.64v10.45l13.12-1.99v-5.23l-8.75 1.36v-5.22l13.12-2.1v15.68c-7.22 1.23-14.43 2.33-21.87 3.32v-10.45l-13.12 1.59v10.45l-4.37.46m0-26.13c18.76-1.94 37.52-4.72 56.85-8.68v5.22c-18.76 3.85-37.52 6.69-56.85 8.69v-5.23m8.75 19.95 4.37-.53v5.23l-4.37.52v-5.22M808.32 404.07c12.99-1.34 25.97-3.08 39.36-5.38v10.46a594.511 594.511 0 0 1-39.36 5.37v-10.45m43.73-6.15c12.99-2.36 25.98-5.17 39.36-8.64v10.46a539.331 539.331 0 0 1-39.36 8.63v-10.45M808.32 628.07c12.99-1.34 25.97-3.08 39.36-5.38v10.46a594.511 594.511 0 0 1-39.36 5.37v-10.45m43.73-6.15c12.99-2.36 25.98-5.17 39.36-8.64v10.46a539.331 539.331 0 0 1-39.36 8.63v-10.45M865.17 661.2l-13.12 2.53v-15.68l17.5-3.45v-10.45l4.37-.96v20.9l4.37-.99v-20.91l4.38-1.03v20.9l4.37-1.07v-20.91l4.37-1.12v26.14a558.18 558.18 0 0 1-21.86 5.18v-10.45l-13.12 2.64v5.23l8.74-1.73v5.23m-56.85 8.68V654.2c7.22-.74 14.43-1.61 21.87-2.64v10.45l13.12-1.99v-5.23l-8.75 1.36v-5.22l13.12-2.1v15.68c-7.22 1.23-14.43 2.33-21.87 3.32v-10.45l-13.12 1.59v10.45l-4.37.46m0-26.13c18.76-1.94 37.52-4.72 56.85-8.68v5.22c-18.76 3.85-37.52 6.69-56.85 8.69v-5.23m8.75 19.95 4.37-.53v5.23l-4.37.52v-5.22M952.64 363.98l-13.12 5.03v-15.68c5.77-2.13 11.54-4.37 17.49-6.8v-10.46l4.38-1.82v20.91l4.37-1.87v-20.9l4.37-1.92v20.91l4.38-1.96v-20.91l4.37-2.01v26.13c-7.22 3.36-14.43 6.52-21.87 9.58v-10.46l-13.12 5.18v5.22l8.75-3.4v5.23m-56.85 18.92v-15.68c7.21-1.95 14.43-4.05 21.86-6.4v10.45l13.12-4.36v-5.23l-8.74 2.95v-5.22l13.12-4.49v15.68a533.35 533.35 0 0 1-21.87 7.26v-10.45l-13.12 3.84v10.45l-4.37 1.2m0-26.13a515.78 515.78 0 0 0 56.85-18.93v5.23a515.955 515.955 0 0 1-56.85 18.92v-5.22m8.74 18.47 4.38-1.28v5.22l-4.38 1.29v-5.23M895.79 388.13c12.99-3.51 25.97-7.54 39.36-12.31v10.46c-13 4.63-25.98 8.69-39.36 12.3v-10.45m43.73-13.89c12.99-4.8 25.97-10.16 39.36-16.38v10.45c-13 6.04-25.98 11.44-39.36 16.38v-10.45M895.79 612.13c12.99-3.51 25.97-7.54 39.36-12.31v10.46c-13 4.63-25.98 8.69-39.36 12.3v-10.45m43.73-13.89c12.99-4.8 25.97-10.16 39.36-16.38v10.45c-13 6.04-25.98 11.44-39.36 16.38v-10.45M952.64 635.02l-13.12 5.03v-15.68c5.77-2.13 11.54-4.37 17.49-6.8v-10.46l4.38-1.82v20.91l4.37-1.87v-20.9l4.37-1.92v20.91l4.38-1.96v-20.91l4.37-2.01v26.13c-7.22 3.36-14.43 6.52-21.87 9.58v-10.46l-13.12 5.18v5.22l8.75-3.4v5.23m-56.85 18.92v-15.68c7.21-1.95 14.43-4.05 21.86-6.4v10.45l13.12-4.36v-5.23l-8.74 2.95v-5.22l13.12-4.49v15.68a533.35 533.35 0 0 1-21.87 7.26v-10.45l-13.12 3.84v10.45l-4.37 1.2m0-26.13a515.78 515.78 0 0 0 56.85-18.93v5.23a515.955 515.955 0 0 1-56.85 18.92v-5.22m8.74 18.47 4.38-1.28v5.22l-4.38 1.29v-5.23"/><path fill="#da0000" d="M461.47 564.34c29.35 15.53 60.38 5.95 75.68-23.68 14.88-29.87 9.06-70.13-14.06-97.78 14.84 28.87 16 62.7 3.03 88.68-13.32 25.82-37.84 38.15-64.65 32.78"/><path fill="#da0000" d="M543.46 562.21c18.99-10.53 29.19-34.09 26.31-60.63-3.25-26.49-18.82-49.4-40.13-59.26 14.93 15.86 24.64 36.97 27.36 59.56 2.5 22.63-2.3 44.03-13.54 60.33M500 584l-3.51-84.54 3.51-65.59c2.24 3.92 4.98 7.09 8.3 9.61v49.37l-2.83 83L500 584M498.59 428.38l1.41 1.8c3.29 5.57 8.3 7.75 13.13 5.71 4.56-2.56 6.34-8.15 4.59-14.44-.98 4.76-3.7 7.52-7.81 7.96-4.15-.03-7.63-2.51-9.91-7.08l-1.41 6.05"/><path fill="#da0000" d="M538.53 576.17c-29.29 6.66-60.43-12.76-75.68-46.93-14.87-34.33-9.08-72.9 14.06-93.48-14.84 24.32-16 57.8-3.03 87.74 13.28 29.82 37.9 49.96 64.65 52.67"/><path fill="#da0000" d="M456.54 548.9c-18.97-16.19-29.18-42.62-26.31-68.31 3.26-25.64 18.77-44.03 40.13-47.4-14.95 11.33-24.63 29.52-27.36 51.38-2.5 21.87 2.31 44.68 13.54 64.33M500 584l3.51-83.46-3.51-66.67c-2.26 3.26-4.94 5.53-8.3 7.04v49.37l2.83 83.88L500 584M501.41 428.82l-1.41 1.36c-3.29 4.56-8.29 5.19-13.13 1.65-4.54-3.96-6.33-10.14-4.59-15.86.97 5.01 3.75 8.68 7.81 10.38 4.19 1.26 7.62-.13 9.91-4.02l1.41 6.49"/><path fill="#1A1A1A" opacity=".2" d="M8 195.25c170.83-85.22 341.03-54.42 513.26-27.97 155.21 23.84 312.16 44.57 470.74-34.53v672c-170.83 85.22-341.03 54.42-513.26 27.97C323.53 808.88 166.58 788.15 8 867.25v-672m31.25 19.39v604.5c306.56-128.26 611.18 96.04 921.5-33.78v-604.5c-306.56 128.26-611.18-96.04-921.5 33.78"/></svg>