<svg xmlns="http://www.w3.org/2000/svg" viewBox="0 0 1000 1000"><defs><linearGradient id="a" x1="826.45" y1="419.932" x2="786.124" y2="396.11" gradientUnits="userSpaceOnUse" gradientTransform="matrix(.82 .06346 0 1.12 8 134.654)"><stop stop-color="#a43907" stop-opacity=".996" offset="0"/><stop stop-color="#fff" offset="1"/></linearGradient><linearGradient id="b" x1="851.569" y1="436.067" x2="763.033" y2="419.673" gradientUnits="userSpaceOnUse" gradientTransform="matrix(.82 .06284 0 1.12 8 135.158)"><stop stop-color="#a43907" stop-opacity=".996" offset="0"/><stop stop-color="#fff" offset="1"/></linearGradient><linearGradient id="c" x1="1016.15" y1="398.539" x2="974.919" y2="400.941" gradientUnits="userSpaceOnUse" gradientTransform="matrix(.82 -.10646 0 1.12 8 289.426)"><stop stop-color="#a43907" stop-opacity=".996" offset="0"/><stop stop-color="#fff" offset="1"/></linearGradient><linearGradient id="d" x1="1033.335" y1="421.219" x2="945.904" y2="428.645" gradientUnits="userSpaceOnUse" gradientTransform="matrix(.82 -.09953 0 1.12 8 282.549)"><stop stop-color="#a43907" stop-opacity=".996" offset="0"/><stop stop-color="#fff" offset="1"/></linearGradient><linearGradient id="e" x1="1023.357" y1="445.132" x2="776.646" y2="445.132" gradientUnits="userSpaceOnUse" gradientTransform="matrix(.82 -.00733 0 1.12 8 195.251)"><stop stop-color="#a43907" stop-opacity=".996" offset="0"/><stop stop-color="#fff" offset="1"/></linearGradient><linearGradient id="f" x1="783.43" y1="462.503" x2="1144.088" y2="465.421" gradientUnits="userSpaceOnUse" gradientTransform="matrix(.82 -.07047 0 1.12 8 254.155)"><stop stop-color="#a43907" stop-opacity=".996" offset="0"/><stop stop-color="#fff" offset="1"/></linearGradient><linearGradient id="g" x1="1032.128" y1="442.287" x2="1002.941" y2="444.033" gradientUnits="userSpaceOnUse" gradientTransform="matrix(.82 -.13315 0 1.12 8 316.29)"><stop stop-color="#a43907" stop-opacity=".996" offset="0"/><stop stop-color="#fff" offset="1"/></linearGradient><linearGradient id="h" x1="775.747" y1="471.718" x2="803.908" y2="476.185" gradientUnits="userSpaceOnUse" gradientTransform="matrix(.82 .0732 0 1.12 8 126.89)"><stop stop-color="#a43907" stop-opacity=".996" offset="0"/><stop stop-color="#fff" offset="1"/></linearGradient><linearGradient id="i" x1="803.177" y1="466.888" x2="755.308" y2="440.32" gradientUnits="userSpaceOnUse" gradientTransform="matrix(.82 .07902 0 1.12 8 122.316)"><stop stop-color="#a43907" stop-opacity=".996" offset="0"/><stop stop-color="#fff" offset="1"/></linearGradient></defs><path fill="#00247d" d="M8 195.25c170.83-85.22 341.03-54.42 513.26-27.97 155.21 23.84 312.16 44.57 470.74-34.53v672c-170.83 85.22-341.03 54.42-513.26 27.97C323.53 808.88 166.58 788.15 8 867.25v-672"/><path fill="#fff" d="M8 195.25a522.336 522.336 0 0 1 55.01-23.64c63.03 20.3 126.03 54.42 190.99 98.17 63.04-43.59 126.06-79.31 190.99-114.15L500 164l11 31.75c-66.67 35.23-133.33 69.95-201.99 112.96C375.65 358 442.31 414.13 511 471.65l-22 56.7c-77.52-64.91-155.09-129.54-235-183.44-77.56 53.7-155.14 118.96-235 211.05L8 531.25v-37.57C71.05 419.16 134.05 360.26 198.99 310c-63-37.29-126.07-65.25-190.99-77.18v-37.57"/><path fill="#cf142b" d="M254 307.34c12.1-.1 24.2.08 36.67.52 71.49 51.45 142.99 111.53 216.66 173.24L500 500c-81.14-67.98-162.35-136.23-246-192.66v25.05c-78.77 54.54-157.56 121-238.67 215.3L8 531.25c81.2-95.98 162.36-165.99 246-223.91-12.1.12-24.2.51-36.67 1.27C148.29 265.74 79.15 233.38 8 220.29v-25.04C89.19 210.18 170.33 251 254 307.34V282.3c69.1-47.77 138.16-86.08 209.33-123.93L500 164c-81.19 42.88-162.39 85.54-246 143.34"/><path fill="#fff" d="M295 140.03v112c94.72 3.95 189.4 22.81 287 36.17v112c-94.68-12.96-189.44-32.1-287-36.17v168c-27.06-1.1-54.12-1.02-82 .86v-168c-67.64 4.66-135.32 19.6-205 54.36v-112c67.69-33.77 135.27-49.56 205-54.36v-112c27.07-1.82 54.12-1.99 82-.86"/><path fill="#cf142b" d="M278.6 139.51v134.4c100.14 2.28 200.21 22.57 303.4 36.69v67.2c-100.08-13.7-200.27-34.34-303.4-36.69v190.4c-16.24-.35-32.47-.24-49.2.47v-190.4C156.36 344.79 83.25 359.31 8 396.85v-67.2c73.11-36.47 146.09-51.95 221.4-55.27v-134.4c16.24-.69 32.47-.83 49.2-.47"/><path fill="#00247d" d="M8 531.25C170.66 450.1 332.46 474.06 500 500V164c161.81 25.05 325.35 51.88 492-31.25v672c-170.83 85.22-341.03 54.42-513.26 27.97C323.53 808.88 166.58 788.15 8 867.25v-336"/><path fill="url(#a)" d="M685.69 666.04c-.23-.53-6.83-15.22-12.83-15.31-5.9 1.2-11.12 9.9-11.67 10.73-.63-.22-8.46-13.01-8.55-14.08.47-1 8.99-27.9 13.61-29.37 5.1-.47 14.17 3.13 14.74 4.31l4.7 43.72"/><path fill="#fff" d="M681.5 669.29a56.497 56.497 0 0 0-3.69-6.9c-2.24-3.48-3.5-4.87-4.27-4.96-2.33.47-4.87 2.91-8.3 8.22-.21.34-.38.59-.49.75l-.01.01c-2.42 2.88-4.35 2.74-7.22-.52-.38-.47-.84-1.11-1.39-1.92-.91-1.36-1.98-3.04-3.21-5.05-1.22-2.02-2.23-3.77-3.05-5.27-2.25-4.4-2.64-7.4-1.42-10.23l.02-.05.61-1.8c2.34-6.87 4.34-12.28 5.99-16.25 3.83-8.97 7.06-13.27 10.33-14 2.8-.35 6.26.15 10.89 1.63 6.55 2.32 9.39 5.18 9.62 9.68l4.64 42.68-9.05 3.98m-2.93-23.14-2.07-19.38c-.61-.25-1.3-.5-2.06-.75-2.99-.97-5.16-1.4-6.74-1.39-.23.3-.5.71-.82 1.25-.9 1.55-1.97 3.76-3.19 6.67-1.47 3.55-3.28 8.44-5.41 14.7l2.04 3.46.65 1.05c3.93-4.78 7.41-7.15 11.21-7.74 2.19-.15 4.09.47 6.39 2.13m-21.1 3.39c-.53 1.43-.96 2.34-1.27 2.8a7.6 7.6 0 0 0 1.27-2.8m18.75-25.68c-.1-1.06-.15-1.69-.15-1.88 0 .68.05 1.3.15 1.88"/><path fill="url(#b)" d="M701.24 650.21c-.03 1.35-2.53 41.79-12.44 56-10.47 13.99-26.1 21.24-32.28 18.72-5.73-3.4-18.91-45.25-19.05-45.71.32.49 13.7 20.72 24.5 18.97 10.51-2.95 16.61-26.7 18.66-39.14 1.82-12.15.4-36.03.39-36.08l20.22 27.24"/><path fill="#fff" d="M706.16 650.42c-.03 5.3-.85 13.47-2.53 24.58-2.7 17.39-6.43 29.23-11.27 36.06-5.35 7.22-11.65 12.81-19.28 17.03-7.85 4.15-13.42 5.09-17.88 3.19-5.4-2.78-12.72-18.97-22.24-49.86l8.07-6.48c2.14 3.22 4.64 6.35 7.57 9.45 5.41 5.54 9.13 7.65 12.25 7.16 3.23-.97 6.12-4.85 9.29-12.74 2.49-6.47 4.38-13.6 5.69-21.52 1.14-7.42 1.26-18.72.29-34.06l8.28-4.92 20.22 27.16 1.54 4.95m-9.92 2.34-9.62-12.96c.07 8.55-.33 15.52-1.18 20.98-1.49 9.09-3.67 17.33-6.56 24.85-4.58 11.48-9.61 17.55-15.8 19.19-4.04.79-7.96-.27-12.83-3.53 1.85 4.9 3.49 8.89 4.93 12 .95 2.01 1.77 3.55 2.46 4.64.21.33.39.58.54.77 2.2.54 5.49-.35 10.85-3.16 6.47-3.57 11.75-8.2 16.21-14.19 3.54-5.01 6.44-14.66 8.75-29.53 1.25-8.27 1.99-14.62 2.25-19.06"/><path fill="url(#c)" d="M806.33 664.56c.23-.52 6.85-15.48 12.84-15.85 5.91.92 11.11 9.32 11.66 10.14.61-.25 8.46-13.55 8.56-14.61-.48-.97-8.98-27.34-13.61-28.58-5.09-.19-14.19 3.82-14.75 5l-4.7 43.9"/><path fill="#fff" d="m810.52 667.65-9.05-3.64 4.64-42.84c.23-4.52 3.08-7.48 9.62-10.08 4.63-1.68 8.1-2.36 10.89-2.16 3.28.56 6.5 4.67 10.34 13.41 1.64 3.86 3.64 9.14 5.98 15.85l.62 1.76.01.05c1.22 2.74.83 5.77-1.42 10.33-.82 1.55-1.83 3.37-3.05 5.47-1.23 2.09-2.29 3.84-3.21 5.25a29.6 29.6 0 0 1-1.39 2c-2.87 3.44-4.8 3.69-7.22.94l-.01-.02c-.11-.15-.28-.38-.49-.71-3.43-5.14-5.96-7.46-8.29-7.81-.77.12-2.04 1.57-4.28 5.15a59.67 59.67 0 0 0-3.69 7.05m2.93-23.26c2.3-1.75 4.21-2.47 6.4-2.42 3.8.41 7.27 2.6 11.21 7.16l.64-1.09 2.04-3.58c-2.13-6.13-3.94-10.92-5.4-14.39-1.23-2.84-2.29-4.99-3.2-6.5-.32-.52-.59-.92-.82-1.2-1.57.07-3.75.6-6.74 1.7-.76.29-1.45.58-2.06.85l-2.07 19.47m21.1 2.32c.23 1 .63 1.86 1.28 2.72-.32-.45-.75-1.33-1.28-2.72M815.8 622c.1-.59.15-1.21.15-1.89 0 .2-.05.82-.15 1.89"/><path fill="url(#d)" d="M790.78 649.24c.03 1.36 2.53 41.75 12.44 55.61 10.51 13.65 26.07 20.1 32.28 17.19 5.71-3.74 18.91-46.58 19.05-47.07-.33.54-13.7 21.78-24.5 20.64-10.52-2.36-16.61-25.88-18.66-38.23-1.81-12.07-.39-36.02-.39-36.06l-20.22 27.92"/><path fill="#fff" d="m785.86 649.59 1.54-4.99 20.22-27.82 8.28 4.59c-.97 15.38-.85 26.67.3 34.04 1.3 7.86 3.19 14.91 5.68 21.25 3.18 7.75 6.05 11.47 9.29 12.25 3.11.32 6.84-2.02 12.26-7.93 2.92-3.31 5.43-6.63 7.57-10.01l8.07 5.82c-9.53 31.7-16.86 48.4-22.25 51.52-4.46 2.18-10.03 1.56-17.88-2.22-7.63-3.87-13.92-9.22-19.27-16.27-4.84-6.67-8.58-18.4-11.28-35.72-1.67-11.06-2.5-19.21-2.53-24.51m9.92 2.05c.26 4.44 1 10.76 2.25 18.99 2.31 14.8 5.21 24.35 8.75 29.23 4.47 5.82 9.74 10.23 16.21 13.48 5.36 2.54 8.65 3.24 10.85 2.57.15-.2.34-.47.55-.81.68-1.13 1.5-2.72 2.45-4.79 1.44-3.2 3.09-7.3 4.93-12.32-4.87 3.59-8.8 4.88-12.83 4.32-6.2-1.31-11.21-7.14-15.79-18.43-2.9-7.4-5.08-15.55-6.57-24.58-.84-5.43-1.25-12.38-1.17-20.95l-9.63 13.29"/><path fill="url(#e)" d="M654.93 641.01c-4.63 7.39-7.15 13.11-9.1 17.38-1.83 4.43-.79 10.37 3.69 19.8 5.02 9.95 44.52 51.27 96.5 51.18 52.09-.85 91.31-43.89 96.49-54.53 4.49-9.74 5.49-15.76 3.66-20.05-1.94-4.13-4.44-9.68-9.07-16.77-.28 11.58-32.77 59.86-91.08 60.82-58.32.09-90.81-46.48-91.09-57.83"/><path fill="#fff" d="m651.13 636.4 8.72 5.04c.15 1.48 1.53 4.32 4.66 9.02 4.29 6.26 9.77 12.23 16.6 18.03 18.83 15.66 40.18 23.73 64.91 23.63 24.73-.34 46.06-8.85 64.9-25.29 6.83-6.07 12.31-12.32 16.6-18.8 3.13-4.87 4.51-7.8 4.66-9.28l8.72-5.59c2.94 4.47 5.9 9.84 8.89 16.17l.6 1.28c2.9 6.53 1.72 15.29-3.84 27.39-1.86 3.8-5.48 8.72-11.11 14.81-6.36 6.76-13.5 13.09-21.53 18.97-22.22 16.03-44.59 24-67.89 24.31-23.3.1-45.68-7.45-67.9-22.53-8.03-5.54-15.17-11.48-21.52-17.86-5.64-5.75-9.26-10.39-11.12-14.06-5.56-11.71-6.76-20.37-3.87-27.12l.52-1.13c3.02-6.61 6.02-12.25 9-16.99m2.98 17.35c-1.16 2.28-2.34 4.72-3.53 7.32l-.52 1.17c-.68 2 .32 5.8 3.5 12.48v.01c1.17 2.21 3.92 5.61 8.55 10.31 5.88 5.88 12.53 11.38 20.05 16.53 20.93 14.12 41.97 21.17 63.86 21.08 21.89-.3 42.92-7.73 63.85-22.69 7.52-5.45 14.17-11.28 20.06-17.49 4.62-4.96 7.38-8.54 8.54-10.83 3.17-6.87 4.16-10.74 3.48-12.71l-.63-1.33c-1.15-2.45-2.28-4.74-3.41-6.88-.96 1.81-2.08 3.71-3.35 5.7-4.94 7.55-11.15 14.72-18.79 21.57-20.35 17.93-43.29 27.21-69.75 27.57-26.45.11-49.43-8.69-69.76-25.71-7.64-6.51-13.84-13.34-18.78-20.59-1.28-1.92-2.4-3.75-3.37-5.51"/><path fill="url(#f)" d="m834.77 715.94 8.94-22.51-4.48-3.79c-1.63 5.67-6.12 8.32-7.19 15.04-.42 6.87 3.33 12.7 2.73 11.26"/><path fill="#fff" d="M839.64 717.15a9.95 9.95 0 0 1-.61 1.95c-1.36 2.89-2.78 3.95-5.13 3.82a3.81 3.81 0 0 1-1.7-.69c-.54-.4-1.03-.97-1.54-1.77-.56-.94-1.1-2.03-1.62-3.3-1.69-4.39-2.28-8.5-1.86-12.87.57-4.1 2.26-8.12 5.35-12.62 1.22-1.75 1.86-2.88 2.04-3.49l7.58-4.41 4.48 3.77 1.35 8.52-8.34 21.09m-9.02-3.76c-.77 2.05-.88 3.81-.36 5.83.11.36.23.67.36.93v-6.76"/><path fill="url(#g)" d="M842.88 708.66c.09-.58 1.42-8.92-3.5-9.99-5.22.36-7.48 5.95-7 3.83.94-2.9 3.71-6.13 4.28-15.63.33-9.52-.38-14.36-.39-14.38.1-.57 1.89-11.72 10.11-12.18 8.17.78 8.53 8.64 8.56 12.37-.08 3.36-.76 5.1-.78 5.14l-11.28 30.84"/><path fill="#fff" d="M838.08 707.95c.12-.81.15-1.63.07-2.48-.69.21-1.39.77-2.28 1.85-1.25 1.52-2.33 2.26-3.6 2.5-2.68.18-3.98-1.03-4.77-4.43-.18-1.02-.19-2.02-.05-3.12.08-.48.2-1.02.36-1.62.31-1.03.83-2.34 1.61-3.98 1.38-3.05 2.12-6.06 2.33-9.45.21-5.75.1-9.92-.29-12.63l.01-2.82c.52-3.04 1.43-5.91 2.81-8.82 3.39-6.57 7.29-9.39 12.83-9.41 5.29.34 8.6 2.66 10.95 7.8 1.15 2.91 1.74 6.23 1.8 10.4-.05 3.43-.52 6.19-1.43 8.61l-11.21 30.75-9.14-3.15m5.37-15.11 6.37-17.4.19-.49-.15.35c.1-.47.15-1.03.16-1.73-.16-4.41-1.35-6.15-4.36-6.49-1.51.04-2.47.74-3.41 2.51-.4.85-.71 1.66-.93 2.46.38 3.67.48 8.46.25 14.43-.08 1.88-.27 3.71-.57 5.52.92.16 1.7.43 2.45.84"/><path fill="url(#h)" d="m657.25 718.79-8.94-21.93 4.48-4.09c1.63 5.58 6.12 7.92 7.19 14.59.41 6.83-3.33 12.92-2.73 11.43"/><path fill="#fff" d="m652.38 720.31-8.34-20.51 1.35-8.63 4.48-4.08 7.57 3.93c.19.6.83 1.69 2.04 3.36 3.1 4.33 4.79 8.25 5.35 12.33.42 4.34-.16 8.48-1.85 12.97-.53 1.3-1.07 2.42-1.63 3.39-.5.83-1 1.42-1.53 1.86-.54.41-1.08.66-1.7.79-2.36.26-3.77-.7-5.14-3.5-.27-.64-.47-1.27-.6-1.91m6.79.31 2.23 2.14c.13-.27.25-.59.36-.96.53-2.1.4-3.9-.43-5.96l-.03-.08-2.13 4.86"/><path fill="url(#i)" d="M649.14 712.03c-.09-.57-1.4-8.83 3.49-10.22 5.25.02 7.49 5.48 7 3.4-.94-2.86-3.7-5.9-4.27-15.37-.33-9.5.38-14.39.39-14.41-.1-.56-1.87-11.63-10.11-11.5-8.16 1.37-8.53 9.31-8.56 13.03.08 3.36.76 5.04.78 5.08l11.28 29.99"/><path fill="#fff" d="m653.94 711-9.15 3.78-11.2-29.85c-.91-2.35-1.38-5.06-1.43-8.49.06-4.17.65-7.55 1.8-10.55 2.35-5.34 5.67-7.95 10.95-8.67 5.55-.39 9.43 2.18 12.83 8.55 1.38 2.83 2.29 5.64 2.81 8.65l.01 2.83c-.39 2.73-.5 6.9-.29 12.64.2 3.38.95 6.35 2.33 9.32.78 1.59 1.3 2.88 1.6 3.89.17.59.29 1.12.37 1.6.14 1.09.13 2.1-.05 3.12-.79 3.45-2.1 4.73-4.77 4.7-1.28-.17-2.35-.83-3.6-2.28-.89-1.03-1.58-1.54-2.29-1.71-.07.86-.04 1.67.08 2.47m-5.37-14.75c.75-.46 1.54-.78 2.45-1a44.8 44.8 0 0 1-.57-5.48v-.01c-.23-5.95-.13-10.74.25-14.44-.22-.79-.53-1.58-.93-2.4-.95-1.71-1.9-2.34-3.41-2.27-3.01.55-4.2 2.4-4.36 6.81.01.7.06 1.26.16 1.72l-.15-.34.19.48 6.37 16.93"/><path fill="url(#a)" d="M685.69 666.04c-.23-.53-6.83-15.22-12.83-15.31-5.9 1.2-11.12 9.9-11.67 10.73-.63-.22-8.46-13.01-8.55-14.08.47-1 8.99-27.9 13.61-29.37 5.1-.47 14.17 3.13 14.74 4.31l4.7 43.72"/><path d="M685.06 666.53a64.249 64.249 0 0 0-4.15-7.76c-3.32-5.06-5.64-7.05-7.95-7.04-3.43.59-6.82 3.65-10.95 10.04-.15.24-.25.38-.29.43v.01c-.42.47-.82.35-1.5-.45-.28-.35-.65-.86-1.11-1.54-.86-1.27-1.87-2.86-3.04-4.78-3.22-5.38-4.28-7.93-3.97-8.8v-.01h-.02l.18-.5.64-1.86c6.11-17.9 10.37-26.55 13.22-27.27 2.3-.26 5.26.19 9.38 1.5 4.29 1.49 6.01 2.59 6.23 3.87l4.69 43.56-1.36.6m-.59-4.8-4.22-39.46c-.08-.07-1.63-.68-5.02-1.81-3.95-1.26-6.74-1.69-8.86-1.45-2.33.63-6.24 8.94-12.13 26.21l-.81 2.3.06.15c.19.39.47.94.85 1.64.74 1.37 1.69 3 2.84 4.9 1.15 1.89 2.14 3.45 2.98 4.69.36.52.65.93.87 1.23 4.32-6.6 7.97-9.79 11.72-10.41 2.84-.09 5.59 2.17 9.26 7.77.88 1.41 1.7 2.82 2.46 4.24m-31.1-14.05c-.1.25-.17.39-.2.44.11-.15.17-.29.2-.44"/><path fill="url(#b)" d="M701.24 650.21c-.03 1.35-2.53 41.79-12.44 56-10.47 13.99-26.1 21.24-32.28 18.72-5.73-3.4-18.91-45.25-19.05-45.71.32.49 13.7 20.72 24.5 18.97 10.51-2.95 16.61-26.7 18.66-39.14 1.82-12.15.4-36.03.39-36.08l20.22 27.24"/><path d="M701.98 650.24c-.03 4.91-.83 12.7-2.44 23.42-2.54 16.32-5.92 27.23-10.21 33.28-4.97 6.69-10.84 11.88-17.97 15.82-6.92 3.65-11.56 4.55-15.03 3.12-2.64-1.46-6.61-9.22-12.17-24.41-2.69-7.42-5.15-14.73-7.37-21.92l1.21-.97c2.34 3.51 5.05 6.92 8.2 10.27 6.45 6.61 11.26 9.13 15.6 8.34 4.49-1.25 8.28-6.06 12.05-15.48 2.67-6.91 4.68-14.51 6.06-22.92 1.24-7.99 1.38-19.86.38-35.78l1.24-.74 20.22 27.23.23.74m-1.48.36-18.58-25.02c.84 14.8.63 26-.57 33.73-1.41 8.59-3.46 16.36-6.19 23.43-3.98 9.95-8.1 15.09-13.02 16.44-4.77.9-9.98-1.77-16.78-8.76a84.295 84.295 0 0 1-5.69-6.67c1.8 5.57 3.73 11.21 5.8 16.93 5.36 14.63 9.03 22.03 11.25 23.3 3.13 1.26 7.44.37 14.03-3.1 6.96-3.85 12.68-8.89 17.52-15.4 4.08-5.77 7.34-16.36 9.82-32.3 1.55-10.27 2.34-17.78 2.41-22.58"/><path fill="url(#c)" d="M806.33 664.56c.23-.52 6.85-15.48 12.84-15.85 5.91.92 11.11 9.32 11.66 10.14.61-.25 8.46-13.55 8.56-14.61-.48-.97-8.98-27.34-13.61-28.58-5.09-.19-14.19 3.82-14.75 5l-4.7 43.9"/><path d="m806.96 665.03-1.36-.55 4.7-43.74c.21-1.28 1.93-2.45 6.22-4.13 4.12-1.5 7.09-2.1 9.38-1.96 2.86.57 7.11 8.99 13.23 26.5l.63 1.81.18.5h-.02c.31.84-.75 3.48-3.97 9.05-1.17 2-2.18 3.65-3.04 4.97-.46.71-.83 1.24-1.11 1.61-.68.83-1.08.98-1.5.53-.04-.06-.14-.19-.29-.42-4.13-6.17-7.51-9.05-10.95-9.48-2.3.09-4.63 2.19-7.95 7.39a66.846 66.846 0 0 0-4.15 7.92m.59-4.82c.76-1.45 1.58-2.89 2.46-4.34 3.67-5.74 6.43-8.13 9.26-8.17 3.76.44 7.4 3.44 11.72 9.8.22-.31.52-.74.87-1.28.84-1.29 1.83-2.91 2.98-4.87s2.1-3.65 2.85-5.07c.38-.73.65-1.29.84-1.7l.06-.15-.81-2.25c-5.89-16.9-9.79-25-12.13-25.51-2.11-.13-4.91.45-8.86 1.89-3.38 1.28-4.94 1.95-5.02 2.02l-4.22 39.63m31.1-15.62c.03.15.09.29.2.43-.03-.05-.1-.19-.2-.43"/><path fill="url(#d)" d="M790.78 649.24c.03 1.36 2.53 41.75 12.44 55.61 10.51 13.65 26.07 20.1 32.28 17.19 5.71-3.74 18.91-46.58 19.05-47.07-.33.54-13.7 21.78-24.5 20.64-10.52-2.36-16.61-25.88-18.66-38.23-1.81-12.07-.39-36.02-.39-36.06l-20.22 27.92"/><path d="m790.04 649.3.23-.75 20.22-27.91 1.24.69c-1 15.95-.86 27.82.38 35.75 1.39 8.36 3.4 15.88 6.06 22.67 3.78 9.24 7.55 13.85 12.05 14.86 4.34.53 9.15-2.27 15.6-9.34 3.15-3.58 5.87-7.19 8.2-10.9l1.21.88c-2.22 7.38-4.68 14.88-7.36 22.49-5.57 15.59-9.55 23.62-12.17 25.24-3.48 1.64-8.12 1-15.04-2.31-7.14-3.6-12.99-8.55-17.97-15.07-4.29-5.9-7.67-16.71-10.2-32.96-1.62-10.67-2.42-18.43-2.45-23.34m1.48.32c.08 4.8.86 12.28 2.41 22.5 2.48 15.87 5.74 26.35 9.83 31.98 4.84 6.34 10.55 11.15 17.51 14.66 6.59 3.15 10.9 3.79 14.03 2.33 2.21-1.39 5.89-9.03 11.25-24.05 2.07-5.86 4.01-11.65 5.8-17.36-1.73 2.4-3.62 4.76-5.69 7.1-6.8 7.48-12.02 10.46-16.77 9.84-4.94-1.08-9.05-6.01-13.03-15.79-2.72-6.95-4.78-14.63-6.19-23.16-1.2-7.69-1.41-18.87-.57-33.71l-18.58 25.66"/><path fill="url(#e)" d="M654.93 641.01c-4.63 7.39-7.15 13.11-9.1 17.38-1.83 4.43-.79 10.37 3.69 19.8 5.02 9.95 44.52 51.27 96.5 51.18 52.09-.85 91.31-43.89 96.49-54.53 4.49-9.74 5.49-15.76 3.66-20.05-1.94-4.13-4.44-9.68-9.07-16.77-.28 11.58-32.77 59.86-91.08 60.82-58.32.09-90.81-46.48-91.09-57.83"/><path d="m654.36 640.32 1.31.76c.13 3.05 1.94 7.23 5.85 13.13 4.57 6.67 10.35 13.01 17.53 19.11 19.46 16.23 41.51 24.62 66.97 24.51 25.47-.35 47.48-9.18 66.96-26.25 7.18-6.4 12.97-13.04 17.53-19.97 3.91-6.12 5.72-10.44 5.85-13.48l1.31-.84c2.8 4.29 5.64 9.45 8.52 15.57l.61 1.3c1.97 4.6.85 11.29-3.68 21.16-1.56 3.15-4.82 7.49-10.03 13.11-6.15 6.52-13.09 12.63-20.9 18.33-21.67 15.57-43.47 23.31-66.17 23.62-22.7.1-44.51-7.24-66.18-21.91-7.81-5.37-14.75-11.13-20.9-17.29-5.21-5.31-8.46-9.42-10.02-12.47-4.55-9.58-5.68-16.17-3.72-20.9l.52-1.15c2.92-6.38 5.8-11.81 8.64-16.34m.12 3.04c-2.46 4.12-4.96 8.92-7.49 14.46l-.52 1.15c-1.63 4.02-.53 9.88 3.66 18.7 1.46 2.83 4.58 6.76 9.63 11.91 6.09 6.08 12.95 11.77 20.69 17.09 21.47 14.53 43.08 21.79 65.57 21.7 22.49-.31 44.09-7.97 65.57-23.38 7.73-5.64 14.59-11.68 20.68-18.12 5.05-5.44 8.18-9.58 9.63-12.51 4.18-9.08 5.27-15.04 3.64-18.95l-.62-1.31c-2.49-5.29-4.95-9.87-7.37-13.76-.78 3.29-2.7 7.38-5.98 12.53-4.66 7.09-10.56 13.87-17.86 20.38-19.71 17.29-41.96 26.24-67.69 26.6-25.72.11-48.01-8.39-67.7-24.82-7.3-6.21-13.19-12.68-17.85-19.5-3.29-4.96-5.21-8.92-5.99-12.17"/><path fill="url(#f)" d="m834.77 715.94 8.94-22.51-4.48-3.79c-1.63 5.67-6.12 8.32-7.19 15.04-.42 6.87 3.33 12.7 2.73 11.26"/><path d="M835.59 715.91c.03.24-.01.47-.11.71-.2.44-.42.59-.77.58a.702.702 0 0 1-.27-.11c-.12-.1-.27-.29-.47-.6-.41-.68-.81-1.51-1.22-2.49-1.26-3.33-1.71-6.27-1.44-9.38.43-2.79 1.68-5.67 4.07-9.19 1.73-2.5 2.72-4.44 3.15-6l1.14-.67 4.48 3.79.2 1.28-8.76 22.08m-.92-1.68 8.07-20.36-3.21-2.72c-.64 1.61-1.66 3.45-3.14 5.6-2.15 3.16-3.26 5.66-3.62 7.98-.23 2.65.17 5.2 1.29 8.14.2.5.4.95.61 1.36m-.53 1.79a1.4 1.4 0 0 0 0 .5v-.5"/><path fill="url(#g)" d="M842.88 708.66c.09-.58 1.42-8.92-3.5-9.99-5.22.36-7.48 5.95-7 3.83.94-2.9 3.71-6.13 4.28-15.63.33-9.52-.38-14.36-.39-14.38.1-.57 1.89-11.72 10.11-12.18 8.17.78 8.53 8.64 8.56 12.37-.08 3.36-.76 5.1-.78 5.14l-11.28 30.84"/><path d="M842.16 708.56c.23-1.51.27-2.99.14-4.53-.38-2.9-1.22-4.08-3.03-4.35-2.15.01-3.9 1.04-6.06 3.63-.41.51-.69.74-.92.8-.41.03-.62-.16-.74-.69-.03-.17-.03-.35 0-.56.02-.15.07-.36.15-.64.18-.6.55-1.51 1.14-2.76 1.84-4.01 2.83-8.05 3.08-12.53.24-6.26.1-10.93-.37-14.12v-.43c.39-2.24 1.07-4.38 2.12-6.59 2.4-4.56 4.96-6.42 8.82-6.49 6.24.43 9.03 4.39 9.19 13.24-.03 2.43-.33 4.24-.88 5.67l-11.27 30.82-1.37-.47m1.64-4.55 9.71-26.55.03-.07c.41-1.06.64-2.52.66-4.58-.16-7.69-2.53-11.06-7.93-11.48-3.26.09-5.35 1.6-7.41 5.45-.89 1.89-1.49 3.72-1.83 5.6.47 3.36.6 8.13.37 14.44-.25 4.54-1.21 8.69-2.97 12.79 1.76-1.41 3.28-1.99 5.07-1.95 2.57.36 3.74 1.95 4.26 5.86l.04.49"/><path fill="url(#h)" d="m657.25 718.79-8.94-21.93 4.48-4.09c1.63 5.58 6.12 7.92 7.19 14.59.41 6.83-3.33 12.92-2.73 11.43"/><path d="m656.43 718.81-8.76-21.5.2-1.3 4.48-4.09 1.14.59c.43 1.54 1.42 3.41 3.14 5.81 2.4 3.37 3.65 6.17 4.07 8.95.28 3.08-.17 6.05-1.43 9.45-.41 1.01-.81 1.86-1.23 2.57-.19.33-.35.53-.46.63-.09.06-.17.1-.27.12-.36.04-.57-.1-.78-.53-.09-.23-.13-.45-.1-.7m.92-1.74c.2-.42.41-.88.61-1.39 1.12-3.01 1.52-5.59 1.29-8.22-.36-2.3-1.47-4.73-3.62-7.76-1.49-2.06-2.5-3.83-3.14-5.4l-3.21 2.93 8.07 19.84m.19 1.99.33.32c.06-.29.03-.54-.08-.82l-.02-.03-.23.53"/><path fill="url(#i)" d="M649.14 712.03c-.09-.57-1.4-8.83 3.49-10.22 5.25.02 7.49 5.48 7 3.4-.94-2.86-3.7-5.9-4.27-15.37-.33-9.5.38-14.39.39-14.41-.1-.56-1.87-11.63-10.11-11.5-8.16 1.37-8.53 9.31-8.56 13.03.08 3.36.76 5.04.78 5.08l11.28 29.99"/><path d="m649.86 711.88-1.38.57-11.26-29.97c-.55-1.39-.85-3.17-.88-5.6.16-8.85 2.96-13.06 9.19-13.95 3.87-.21 6.42 1.47 8.82 5.88 1.05 2.15 1.73 4.25 2.12 6.47v.43c-.47 3.21-.61 7.89-.38 14.14.26 4.47 1.25 8.44 3.09 12.35.59 1.21.96 2.1 1.14 2.69.08.27.13.48.15.63.03.21.03.39 0 .56-.13.54-.33.73-.74.73-.23-.04-.51-.26-.93-.74-2.15-2.47-3.89-3.39-6.05-3.26-1.81.38-2.65 1.63-3.03 4.55-.13 1.55-.09 3.03.14 4.52m-1.64-4.43.04-.49c.52-3.94 1.7-5.63 4.26-6.16 1.8-.15 3.3.33 5.07 1.64-1.76-4-2.72-8.07-2.97-12.61-.24-6.29-.1-11.07.37-14.46-.35-1.87-.94-3.65-1.83-5.48-2.06-3.72-4.14-5.09-7.42-4.95-5.39.81-7.76 4.4-7.92 12.09.02 2.06.25 3.5.66 4.53l.03.07 9.71 25.82M675.01 677.45l-4.24-4.3-.49 1.03.84 1.01.07.57-5.34 11.17-.39.09-.93-.8-.5 1.03 4.24 4.33c1.54 1.51 2.63 2.18 4.07 2.17 1.89-.24 3.21-1.36 4.52-3.92 2.03-4.68 1.49-8.7-1.85-12.38m-1.76-.04.84.86c2.26 2.57 2.45 5.17.62 9.35-2.1 4.01-3.72 4.66-6.24 2.41l-.84-.86 5.62-11.76M676.44 698.51l8.42 6.31 1.41-4.13-1.06-.8-1.11 2.25-.33.22-3.63-2.72 2.04-6 2.04 1.53.11.48-.41 1.78.93.69 1.82-5.35-.92-.69-.73 1.54-.33.16-2.03-1.52 1.87-5.49 3.12 2.32.1.45-.46 2.21 1.1.82 1.23-3.63-7.9-5.88-.38 1.13.91.83.14.51-4.19 12.28-.38.18-.99-.61-.39 1.13M687.6 705.65c.94 1.07 1.95 1.88 3.01 2.46 2.92 1.26 4.64.24 5.53-2.78.29-1.52.08-2.96-.65-4.45-.79-1.41-1.53-2.26-1.96-2.98-.7-1.29-.95-2.16-.74-3.34.41-1.39 1.19-1.88 2.48-1.33.54.29.87.59 1.13.96l.16.46-.3 2.7 1.19.61.9-3.98c-.95-1.08-1.89-1.86-2.92-2.42-2.55-1.06-4.17 0-5 2.82-.24 1.26-.13 2.56.39 3.97.55 1.27 1.19 2.1 1.75 2.93.98 1.56 1.32 2.62 1.07 4-.41 1.4-1.23 1.86-2.66 1.24-.52-.28-.96-.64-1.38-1.1l-.13-.48.4-3.08-1.25-.65-1.02 4.44M696.4 710.78l4.94 2.52.28-1.21-1.08-.68-.18-.53 2.98-13.11.34-.22 1.14.44.27-1.21-4.94-2.49-.28 1.2 1.07.68.18.48-2.98 13.11-.35.26-1.12-.44-.27 1.2M707.02 697.45l-.19 1.24.98.47.22.45-2.05 13.54-.34.31-1.02-.21-.19 1.24 4.79 1.63.19-1.24-1.02-.48-.21-.5.87-5.72.29.1c1.72.71 1.96 1.73 2.15 4.41.08 1.34.11 2.47.8 3.82.37.64.89 1.1 1.64 1.38.53.17 1.12.29 1.73.36l.19-1.22-.22-.07c-1.17-.43-1.54-.89-1.74-2.45-.11-1.39-.1-2.78-.41-4.09-.31-.97-.76-1.58-1.55-2.17 2.1-.02 3.1-.96 3.58-3.38.3-2.98-.63-4.6-3.33-5.68l-5.16-1.74m3.26 2.63.78.26c1.68.7 2.26 1.9 2.02 4.09-.46 2.41-1.29 3.03-3.2 2.51a5.27 5.27 0 0 1-.61-.23l1.01-6.63M717.78 719.16l9.32.82.15-4.67-1.18-.09-.39 2.73-.24.4-4.02-.35.22-6.78 2.25.2.23.39.12 1.89 1.02.09.19-6.05-1.02-.09-.23 1.86-.26.35-2.25-.2.2-6.21 3.45.3.21.36.19 2.32 1.21.1.14-4.1-8.75-.77-.04 1.28 1.05.23.27.39-.44 13.9-.3.39-1.06.03-.04 1.28M734.16 704.66l-.03 4.62 1.23.03.3-2.79.29-.33 2.14.04-.1 14.21-.31.41-1.16.11v1.28l5.32.08.01-1.28-1.15-.14-.3-.42.09-14.21 2.14.02.27.35.28 2.8 1.23.01.03-4.63-10.28-.16M744.99 705.15l.02 1.28 1.03.1.29.41.18 13.87-.28.42-1.03.17.01 1.28 5.04-.18-.01-1.28-1.07-.09-.29-.41-.09-6.58 5.15-.2.09 6.58-.27.43-1.06.17.01 1.28 5.03-.23-.02-1.28-1.03-.08-.29-.4-.18-13.87.28-.43 1.03-.18-.02-1.28-5.02.23.02 1.28 1.07.09.27.4.07 5.72-5.15.21-.07-5.72.28-.43 1.07-.17-.02-1.28-5.04.17M759.18 722.01l9.53-1.52-.29-4.64-1.21.2-.13 2.8-.2.45-4.12.66-.42-6.75 2.31-.37.27.32.29 1.85 1.05-.17-.38-6.03-1.04.17-.07 1.9-.22.4-2.31.37-.38-6.18 3.53-.56.25.3.41 2.24 1.24-.2-.25-4.08-8.95 1.4.08 1.28 1.09-.04.31.32.86 13.85-.25.46-1.08.29.08 1.28M772.7 701.28l.14 1.26 1.12-.18.34.27 1.59 13.66-.25.5-1.09.44.14 1.26 5.28-1.52-.15-1.25-1.15.2-.35-.32-.67-5.77.32-.09c1.95-.43 2.44.34 3.37 2.68.45 1.18.77 2.17 1.83 2.98.56.34 1.19.43 2.04.21.58-.18 1.2-.44 1.85-.76l-.14-1.23-.25.07c-1.3.35-1.79.18-2.41-1.13-.49-1.19-.86-2.47-1.53-3.46-.58-.7-1.18-.96-2.15-1.01 2.09-1.32 2.88-2.85 2.71-5.33-.51-2.92-1.85-3.8-4.91-3.09l-5.68 1.61m4 .38.86-.25c1.92-.41 2.79.31 3.15 2.48.18 2.46-.5 3.58-2.55 4.29-.21.06-.44.12-.68.17l-.78-6.69M788.48 714.09l5.42-2.74-.27-1.2-1.24.5-.38-.25-2.93-13.11.21-.49 1.18-.73-.27-1.2-5.41 2.7.27 1.2 1.22-.46.37.2 2.93 13.11-.2.54-1.17.72.27 1.21M799.74 698.78l.26 1.21 1.37-.58.37.2 1.07 5c-.46.3-.8.5-.98.6-3.02 1.25-4.83-.13-6.01-4.69-.79-4.54.18-7.42 2.91-9.1.55-.26 1.03-.39 1.59-.38l.37.3.9 2.42 1.33-.69-.9-4.17c-1.47.19-2.77.57-4 1.17-4.09 2.37-5.75 6.48-4.83 11.78 1.38 5.26 4.17 7.15 8.24 5.39 1.33-.73 2.57-1.73 3.86-3.13l-1.23-5.71.22-.5 1.03-.67-.26-1.2-5.31 2.75M802.55 688.05l.4 1.11 1.03-.69.4.14 4.39 11.95-.14.58-.94.92.4 1.1 4.79-3.96-.4-1.1-1.06.74-.4-.14-2.09-5.66 4.9-4.05 2.08 5.64-.12.57-.98.96.41 1.1 4.77-4.01-.41-1.09-1.02.72-.4-.13-4.39-11.88.14-.59.94-.93-.41-1.09-4.77 3.96.41 1.1 1.05-.73.39.15 1.81 4.91-4.89 4.04-1.81-4.92.14-.58.97-.95-.4-1.1-4.79 3.91M814.54 677.36l1.66 3.78 1.12-1.09-.74-2.53.14-.53 1.95-1.9 5.11 11.57-.13.61-1.01 1.14.46 1.04 4.87-4.79-.46-1.03-1.11.93-.42-.06-5.11-11.55 1.95-1.91.37.04 1.28 2 1.12-1.11-1.66-3.75-9.39 9.14"/><path fill="#0072c4" d="M746.01 690.8c-.07-.03-93.43-39.76-93.32-185.75l.73-189.94c61.1 5.54 122.23 6.63 185.18-3.09l.73 188.8c.05 70.33-21.94 118.77-44.84 148.53-23.97 31.16-48.45 41.44-48.48 41.45"/><path fill="#fff" d="M745.31 694.03c-4.04-1.64-9.01-4.38-15.03-8.37-11.91-8.04-22.76-18.09-32.73-30.19-31.79-39.01-47.44-89.76-47.32-150.67l.74-193.28c62.72 5.82 125.46 7.03 190.08-3.25l.74 192.14c.13 60.84-15.52 113.08-47.31 153.43-9.96 12.52-20.82 22.94-32.73 31.35-6.01 4.18-10.99 7.07-15.03 8.82l-.35.15-.72.01-.34-.14m.69-6.74c3.66-1.68 8.17-4.32 13.58-8.07 11.53-8.11 22.03-18.15 31.68-30.21 30.64-38.75 45.73-88.99 45.61-147.79l-.72-185.47c-59.51 8.93-118.97 8.37-180.29 2.94l-.71 186.6c-.12 58.84 14.97 107.73 45.6 145.23 9.64 11.67 20.14 21.35 31.67 29.11 5.42 3.58 9.92 6.09 13.58 7.66"/><path fill="#bcbcbc" d="M666.3 359.24c.15-.07 1.27-1.33 2.33-2.59 1.44-.91 2.83-2.14 4.28-3.01 1.14-.72 3.25-1.35 4.28-1.91 1.32-.89 2.33-1.85 3.5-3.65.15-2.48.36-4.24.39-7.19 1.54-.92 2.92-1.8 4.28-2.51 1.92-.71 2.39-1.57 4.27-1.96 1.29-.45 3.22-.38 5.06-.28 1.9.28 3.18 1.9 4.89 2.56 2.07 1.27 2.99 2.06 4.67 4.1.93 1.68 1.53 2.91 3.09 4.24 1.24.97 2.45 2.23 3.88 2.92 1.65 1.32 2.97 2.14 4.28 4.02 1.08 1.2 1.67 2.76 2.72 3.96 1.3 1.5 2.52 2.81 3.89 3.98 1.78 1.62 3.24 2.62 6.02 2.46 1.45-.1 2.94-.25 4.67.15 1.93.01 3.72.03 5.44.58 1.98.04 3.59.35 5.44.54 1.76.41 3.5.52 5.45.51 1.72.52 3.51.5 5.44.46l5.45-.13 5.44-.18c2-.06 3.96 0 5.44.34 1.97-.11 3.65-.42 5.45-.81 2.11-.16 3.72-.68 5.83-.89l6.61-.43c1.76.5 3.78.86 5.06 1.84 1.53.55 2.35 1.37 3.89 1.91 1.24.77 2.89 1.91 3.88 3.54 1.08 1.5 2.2 3.6 3.12 5.82 1.02 2.06 1.52 4.4 2.33 6.99.43 2.5.72 4.86.78 7.69.37 2.38.39 5.01.39 7.74-.41 2.59-.6 5.39-1.17 7.89-.1 2.72-.46 5.21-.78 7.3-.36 2.31-.71 3.81-.78 6.74v7.78c-.16 2.56-.52 4.48-.77 7.29-.93 2.53-1.84 5.44-2.73 8.59-1.27 1.4-2.38 3.19-3.11 4.72-.84.85-1.25 1.81-1.16 2.32 1.49.77 1.2 2 1.16 4.9.2 2.13.39 4.76.78 7.15.18 2.65.57 4.2 1.17 6.01.62.99.72.54-.78.62-1.25 1.24-2.14.81-2.72-1.43-.87-1.48-1.19-3.16-1.56-5.98-.23-2.58-.57-4.99-1.16-6.57-.28-3.11-.76-3.03-3.12-3.09-1.2-1.22-2.45-1.44-4.66-1.33-2.14.12-2.27-.13-2.34 2.93v7.77c-.41 2.27-1.12 4.17-1.55 6.21-1.1 1.29-1.83 3.16-3.11 4.63-.74 2.58-1.51 3-3.5 3.52-.69-1.11-1.74-2.57-2.33-3.77 1.15-2.52 1.95-3 2.72-5.69.82-2.26 1.31-3.71 1.94-5.66-.86-1.69-1.53-2.46-2.33-4.87-.61-1.34-1.5-4.15-1.95-6.01-1.33-.49-3.2-.65-4.27-1.47-1.9-.22-2.42 2.04-4.67 2.4l-5.44.18c-2.4.24-3.02 1.72-5.06 1.79-.63.2-2.04-.03-4.28.07-1.69.72-3.53.62-5.44.62-1.98-.07-3.57-.62-5.06-1.09-1.79-.66-3.56-1.31-5.44-1.67-2.33.01-3.07.23-4.67 1.62-1.17 1.01-2.99 3.16-4.27 4.38-.5 1.85-.9 4.93-1.56 7.2-.45 2.15-1.05 3.52-1.55 5.52-.53 1.88-.99 3.78-1.17 6.64-.2 3.72-.68 3.29-2.33 2.17-.7-1.56-1.7-3.32-2.34-5.06.38-2.82.72-4.21.78-7.2-.48-2.17-1.17-2.11-2.33-.62 0 2.97.01 5.06-.78 6.64-.5 2.31-1.13 3.2-2.33 4.37-.7 2.05-1.82 2.89-3.11 3.78-.16-.16-.02-.71 0-2.22-.8-2.63-.15-4.61-.07-7.78.01-2.82-.04-4.65.5-7.2-.09-2.7-.87-5.29-1.21-7.27-.76-2.15-1.14-3.03-3.11-4.01-1.45-.84-3.26-1.93-4.28-3.52-1.17-2.06-1.85-2.86-3.5-4.05-1.78-1.01-2.65-1.82-3.89-2.98-1.24-1.88-2.1-2.72-2.72-5.14-.71-1.8-1-4.91-1.56-7.31-.17-2.46-.65-4.73-1.16-6.74-.25-2.45-.53-4.24-1.17-6.73-.24-2.29-.69-4.71-1.17-7.29.01-2.73-.01-5.35-.38-7.8v-7.77c-.26-2.27-.44-5.54-.78-7.27-.03-3.04-.26-4.72-.78-6.72-.89-2.07-.98-2.82-2.33-3.48-1.13 1.66-2.53 2.2-4.67 2.46-1.45-.52-3.4-1.03-5.06-2.03-1.55-.69-2.61-1.55-3.88-2.52-.7-1.51-1.53-3.21-2.34-4.63-.27-2.92-.66-4.45-.78-7.28.01-2.09 0-1.04 1.56-3.77"/><path fill="#fefefe" d="M689.33 380.84c2.47-1.15 7.77-6.09 10.96-9.51 3.94-2.65 10.28.37 11.04-7.72-.62 2.47-4.55 8.48-6.66 12.17-3.88 4.12 1.57 7.63 3.29 2.44 2.43-5.77 5.3-11.07 9.97-13.44-.86 4.23-1.35 7.91.55 11.8.56-1.91.89-9.1.83-3.1-1.01 3.58 1.86 13.51 2.27 5.76.67-4.6.65 4.97 1.47 6.96 2.58 5.76 2.23-5.24 2.64-7.92.42-4.39.52-3.23.08-.05-.52 3.91.35-8.26.68-1.53.26 3.72-.21 12.99 2.48 5.57 2.04-4.5 2.45-4.6.29-.57-.76 1.32 3.07-8.16 1.71-1.43-.09 5.06.17 12.04 1.98 15.46 1.21-2.91.58-15.31 2.14-6.62.46 2.84-.13 9.29 2.45 4.2 2.64-4.34 3.98-7.83 3.8-13.72.42-3.08 1.41-7.61 2.81-2.5-.5 6.88 4.14 11.16 3.79 17.77 2.19-5.28 1.27-12.35-.27-17.34.24-5.62 5.74-2.49 4.69 2.66.09 3.64 3.25 12.81 3.9 4.23.68-4.09 1.99-4.52 1.8.07.77 3 3.38 11.5 3.31 3.99.19-4.18-.34-8.38.87-12.37.9 2.6.98 6.11 2.2 1.5 2.04.54 1.18 8.07 3.85 10.46 1.29 3.17 3.84 8.13 3.29 1.38.24-3.89-1.59-10.97-.92-12.25 2.98 5.3 4.36 12.02 8.35 16.24 3.93 1.83.71-7.1.27-10.22-2.1-1.92-4.42-8.2-.94-3.21 2.21 4.68 7.61 8.32 9.58 9.36-1.78-1.58-3.29-2.22-.37.05 2.16.33-1.19-6.85-2.57-8.73-1.54-2.88-6.05-6.16-5.06-8.41 4.23 1.4 5.57 7.08 8.16 11.17 1.76 1.83 5.26 5.41 3.36-.33 1.62.01 6.73 7.33 5.83.66-1.33-3.19-5.76-8.25-5.71-8.76 1.81 3.42.67 1.01-.73-.8 5.27.78 8.25 7.03 11.61 11.51.36 2.15 1.74 12.5-.01 5.79-3.5-.76 1.4 8.32-2.4 8.18-.41-2.48-3.27-7.58-1.87-2.44 2.56 7.52.77 15.97.92 24.09.06 3.98-.07 7.94-.27 11.92.18-2.94.37-7.82.01-1.4-.29 3.79-1.49-5.46-2.94-6.71-.34-2.17-1.32-11.87-2.69-5.91.23 6.1 3.89 11.69.86 17.4-1.09 1.76-1.63 5.53-2.34 1.42-1.64-5.08-2.82-10.29-5.62-14.4-1.33-3.25-5.15-10.86-4.26-2.61.71 3.75 1.16 7.49 1.03 11.43-1.67-5.67-3.86-10.92-6.05-16.15.37 2.5 2.6 13.02.61 6.23-1.43-5.78-3.5-10.93-7.64-13.53-.5.51 2.14 9.21 1.27 10.03-.53-3.74-2.33-9.89-4.71-9.09.18 5.9 1.71 11.26.85 17.32-.07 5.6-2.72-5.4-3.58-7.25-4.57-2.47.45 9.31-3.02 4.8-2.72-2.66-3.98-5.18-3.85-10.11-4.91-.47-3.21 5.68-3.3 10.21-.49 3.35-1.76 8.7-3.04 9.96-.5-4.49-.15-9.18-.26-13.76.62-2.95.26-8.94-2.42-6.14-.24 6.08 2.17 13.23-.78 18.31-2.11 2.05-4.5-3.44-7.86-2.3-3.5-2.99-2.45-10.7-4.8-15.31-3.06-2.65-1.27 13.92-3.04 5.95.56-5.53-5.57-7.77-4.72-1.86 1.73 2.71 2.08 5.55 1.89 9.01.29 3.95-1.38 5.03-2.11.65-.69-4.78-5.78-7.04-5.03-.58-3.69-2 .22 10.33-4.1 6.68-4.67-3.79-6.98 2.94-12.03 1.75-3.09.51-8.81 1.32-5.32-4.07 3.75-3.4 5.12-11.52 10.46-7.15 4.06-.41 8.01-3.76 11.39-7.34 2.28-2.73 1.85-8.19-1.78-4.82-3.18 5.36-10.03 5.18-12.73 4.67 2.77-2.83 8.76-3.07 7.58-8.34-2.92.69-6.63 4.79-8.56 2.19 1.03-1.46 3.83-4.68.45-3.45-4.45 1.62-8.85 1.08-13.41.34-3.7-6.22 5.62-4.02 6.34-7.92-1.36-.11-4.99.46-3.48-1.65 3.83.31 6.96.72 9.83-3.76 1.9-2.41 6.5-6.76 5.68-8.89-4.2 3.28-8 7.86-13.27 4.85 3.86-4.46-1.33-4.76-4.4-4.58-2.05.31-7.48-2.33-2.79-2.2 3.27.46 6.39-4.23 1.46-3.92-1.07-.43-2.13-.31-3.22-.42M665.52 370.29c-.25-2.9-.92-5.79-.68-8.68 1.09-1.96 2.44-3.37 3.79-4.96 2.41-1.69 4.66-3.53 7.35-4.37 1.9-.76 3.39-2.18 4.71-4.2.46-2.65-.22-6.19 1.24-7.71 2.13-1.38 4.34-2.33 6.5-3.61 2.43-.83 4.77-.87 7.28-.39 1.94 1.22 3.89 2.37 5.82 3.63 1.72 1.33 2.98 3.21 4.19 5.32 1.43 1.74 3.07 2.94 4.71 4.22 1.31.42.92 2.29.05 2.41-.94 3.36-3.51.52-4.38-1.7.62-1.07.18 2.75-.71 3.15-1.86.6-1.77-2.87-2.02-4.81.13-1.38-.44-2.97-.97-.88-.94 2.14 1.15 5.42-1.33 4.61-2.11-.48-3.98-.99-5.87.59-1.12 2.07 1.3 2.89 2.47 3.98 1.42 1.5 2.81.3 4.38.03 2.15-.76 4.08-.28 6.09 1.06.65 2.74-.76 4.77-2.49 5.94-1.6 1.04-3.19 1.46-4.93 1.69-2.4.46-2.11 3.86-4.44 4.49-1.64.79-3.21.9-4.95.55-.1-1.26 1.48-3.05 1.85-4.91 1.38-2.85-2.11-2.47-1.93.29 0 1.89-2.46 4.49-1.68 1.36.16-1.88 1.3-4.05-.84-3.18-1.39-.09-3.4-.31-2.98 2.28-1.59.31-3.24.22-4.65-.83-.99-2.9-2.86-4.06-4.61-1.78-1.74 2.25-3.27-.74-5 .19.18 2.61 1.73 3.8 3.55 4.05 1.72-.1 3.39-.32 5.14.11 1.28 2.79-1.29 3.17-2.96 2.81-1.96-.37-3.74-1.73-5.73-1.83-.99-.09-3.08.99-1.08 1.57 1.78.54 4.32.61 3.95 3.84-1.25.54-2.62-.13-4.02.42-.94-.25-3.03.35-1.85-.48-.78-1.68-2.01-2.78-2.97-4.27"/><path fill="#bcbcbc" d="M674.21 357.86c-.1.04-.89.71-1.65 1.45-1.19.83-2.51 2.18-3.3 2.9-.63.66-.64.91-1.38 1.07 1.32-.19 1.88-.55 3.03-1.34 1.49-.15 2.72-.46 3.57-1.31.62-.45.01-1.79-.27-2.77M686.86 340.25c.11.08.5 1.21 1.09 2.03.41 1.54.73 2.61.83 4.37.36-1.9.87-3.42 1.1-5.44-.43-1.1-.46-1.49-1.65-1.66 0 1.01.09.43-1.37.7M691.8 340.93v.39c0-1.06 0-.52.28 1.59.42 1.36.54 2.74.55 4.74.71-.76 1.29-2.09 1.65-3.45-.04-3.09-.28-2.94-2.48-3.27M701.98 386.6l.27.01c-.78-.03-.38.03 1.1-1.13.94-.91 1.74-2.06 3.03-2.63 1.31-1.37 2.24-1.98 3.57-2.61.69-.46 1.15-1.04 1.93-.33-.23 1.98-.45 2.6-1.65 3.48-.69 1.09-1.59 1.7-2.48 2.27-.96.51-1.78.54-2.2 1.87-1.52.86-1.65.73-3.57-.93M707.2 398.2c.47-.53 2.23-2.88 3.03-3.81.94-1.71 1.85-2.96 2.75-3.84.84-1.64 1.78-2.77 2.47-4.24.76-1.3 1.34-2.4 2.2-3.87-.01 1.75-.04 3.96.28 5.12-.03 2.38-.2 3-.83 4.69-.65 1.4-1.09 2.21-2.47 3.07-1.27.89-1.98 1.23-3.03 2.26-.78.66-1.6 1.3-2.47 1.87-.77.44-.46.29-1.93-1.25M698.68 406.87l.27.01c-.78-.04-.38.03 1.1-1.13 1.23-1.61 2.09-2.14 3.58-2.98 1.16-.1 2.41-.44 3.3-1.04.7-.2 1.08-.65 1.65.06.88 1.74 1.07 2.12-.28 3.13-.71.77-1.79 1.49-2.75 1.86-.77.72-1.98.79-3.3 1.04-1.17-.04-1.68.07-2.2-.89l2.2.89c-1.14-.04-1.71.06-3.57-.95M710.5 407.36v-.4c0 1.09-.02.53.55-1.55 1.05-2.23 1.43-3.25 2.75-3.84.71-1.03 1.66-1.3 3.03-1.87.42 1.24.14 2.52 0 3.93-.43 1.44-1.31 2.46-1.93 3.48-.86.85-1.21 1.52-2.47 1.88-1.02-.04-.53-.03-1.93-1.63"/><path fill="#c4c4c2" d="M678.33 355.8c-.53-.15 1-.77 1.65-1.07.47-1.36.83-2.22 1.65-3.03 1.41.3 2 .82 2.75 2.14 1.14.58 1.6 1.28 3.03 1.76.59.68 1.21.77 0 1.18-.92.56-1.91.65-3.3.58-1.45.09-2.4.44-3.3.96-1.83-.12-1.57-.01-2.48-2.52"/><path d="M677.95 356.42a.7.7 0 0 1-.14-.16c-.18-.28-.21-.54-.12-.87a.85.85 0 0 1 .17-.31c.1-.11.27-.24.52-.38.24-.14.64-.33 1.19-.59.55-1.48 1.11-2.43 1.74-3.05l.16-.15.21.04c1.31.29 2.2.95 3.03 2.25.32.18.69.42 1.12.74.62.46 1.16.75 1.67.91l.15.05.12.15c.08.09.19.21.35.35.48.47.62.85.5 1.34-.13.34-.42.56-1.01.76-.83.49-1.89.69-3.48.62-1.17.08-2.13.36-3.08.9l-.11.07-.13-.01-.19-.01c-1.23-.15-1.93-.75-2.49-2.14l-.18-.51m1.07-.4.11.3c.32.8.74 1.14 1.49 1.23h.06c1.05-.57 2.11-.87 3.38-.95h.05c1.29.06 2.17-.07 2.83-.39-.51-.21-1.04-.52-1.62-.95-.44-.33-.8-.56-1.09-.7l-.18-.08-.11-.21c-.58-.98-1.21-1.5-2.15-1.77-.44.53-.87 1.35-1.3 2.58l-.1.28-.21.09-.16.08c-.43.2-.77.36-1 .49"/><path d="M683.56 354.97c-.07 1.15-.57 1.83-1.38 1.87-.8-.14-1.31-.9-1.37-2.05.06-1.15.56-1.83 1.37-1.87.8.14 1.31.89 1.38 2.05"/><path fill="#005121" d="m686.86 464.74 1.09.07c-3.33-.21-1.53-.35 4.4 6.53 2.43-2.78 2.38-3.12 4.4 1.8 1.26 2.61 1.52.01 3.3-2.98.89 5.97 1.25 11.49 4.4 6.48 3.59.11 6.71 0 8.8 1.89 2.37 5.78 1.22-.64 3.3 1.67 4.81.46 4.82-5.33 10.03-7.46 3.45 5.58 4.64 1.74 8.8-1.48 3.15 1.74 5.58 7.38 6.47 1.4 2.53-5.76 2.67-5.33 4.4-.02 2.58 2.64 3.38-1.19 5.5-3.22 3.89 2.98 7.6 3.29 13.2 1.23 1.18 5.04 3.05 3.02 5.5 1.36 4.95 2.73 6.45 3.43 12.09-.63 2.7-4.46 1.41-.31 3.3 2.93 4.07-2.16 3-2.36 7.7-2.13 4.8-.41 5.09-.57 6.6-5.26 2.46 3.38 3.12 5.37 6.6.95 5.07-.23 3.62.54 6.6-2.27 2.42 6.62 2.56 2.07 5.5 4.08-1.92 6.69-4.48 9.94-7.7 13.44-2.13 5.38-3.52 10.53-7.7 13.34-3.17 4.78-6.38 7.76-9.9 11.85-4.85 1.99-9.96 2.3-15.4 2.6l-15.39.66-15.4.33-15.4.01c-3.4 2.22-8.59 3.35-13.2 4.48-5.16-.13-10.69-.37-14.3-2.05-2.42-3.43-6.4-7.47-8.8-11.41-2.12-2.95-2.57-7.93-4.4-11.23-1.73-4.64-2.53-11.61-4.39-15.96v-11"/><path fill="#002b0e" d="m684.08 465.66 1.43-1.13c0-.03.01-.06.02-.08.13-.41.41-.61 1-.73l1.12-.89v.87l.31.02v1.58c1.54 1.48 2.99 3.01 4.38 4.61 1.28-1.37 2.04-1.78 2.72-1.53.55.38 1.31 1.66 2.39 4.26.05.13.1.24.14.33.11-.21.27-.54.48-.98.53-1.11.99-1.96 1.38-2.57l1.05-1.62.33 2.18.2 1.37c.5 3.29.93 5.21 1.24 5.94.11.22.19.3.26.29.32-.15.72-.63 1.29-1.62l.24-.42.39.01 1.48.04c4.14.17 6.44.81 7.81 2.1l.14.15.08.22c.27.71.47 1.23.62 1.55.27-.54.52-.85.8-1.01.54-.23.96-.07 1.52.56 1.46.04 2.66-.76 4.18-2.84 1.85-2.57 3.48-3.96 5.31-4.64l.5-.16.32.57c1 1.73 1.7 2.42 2.45 2.46.5-.09 1.29-.63 2.57-1.85 1.13-1.08 2.06-1.87 2.78-2.4l.28-.2.31.12c.79.36 1.83 1.17 3.23 2.58 1 1.02 1.57 1.47 1.83 1.53.16-.05.28-.54.4-1.8l.02-.22.08-.19c1.47-3.32 2.4-4.62 3.24-4.71.73.22 1.47 1.5 2.51 4.57.47.53.78.67 1.13.52.28-.17.72-.69 1.38-1.66.79-1.17 1.43-1.93 1.94-2.36l.4-.32.4.33c3.55 2.67 7.31 3.03 12.58 1.12l.79-.31.19 1.07c.31 1.61.66 2.27 1.21 2.39.43 0 1.17-.35 2.39-1.18l.8-.55.32-.21.32.18c2.65 1.44 4.39 2.09 5.52 2.17 1.5-.07 3.27-.84 5.76-2.63.91-1.52 1.51-2.17 2.02-2.27.63.03.98.59 1.27 2.07.21 1.16.47 2.03.79 2.68.5-.27 1.05-.58 1.64-.92 1.46-.78 3.25-1.1 5.82-1.01 2.29-.2 3.57-.5 4.14-.87.47-.44 1.02-1.56 1.69-3.67l.48-1.54.83 1.11.76 1.05c1.02 1.4 1.67 2.04 2.08 2.18.66.03 1.41-.58 2.64-2.22l.23-.33.33-.02c.82-.04 1.71-.07 2.69-.09.98-.04 1.74-.37 2.54-1.09l.94-.89.78-.72.36 1.1c.58 1.72 1.04 2.67 1.42 3.06.16.11.38.11.78-.02 1.2-.35 2.07-.17 3.04.62l.49.43-.22.79c-1.42 5-3.93 9.46-7.84 13.83l-1.01 2.66c-2.22 5.77-4.39 9.14-6.83 10.88-1.46 2.16-3.59 4.81-6.47 7.99-1.5 1.63-2.62 2.89-3.39 3.79l-.13.16-.17.07c-3.1 1.27-7.82 2.17-14.52 2.58l-1.08.06c-15.18.82-30.36 1.14-46 1.01-2.02 1.25-5.56 2.57-10.94 3.9l-2.29.56-.08.02-.08-.01-.71-.01c-7-.22-11.46-.98-13.85-2.11l-.18-.09-.13-.2c-.66-.94-1.87-2.47-3.64-4.57-2.51-2.99-4.2-5.25-5.16-6.83-.89-1.22-1.76-3.24-2.63-6.35-.66-2.42-1.26-4.02-1.79-4.92l-.06-.09-.04-.11c-.58-1.53-1.29-4.12-2.11-7.83-.87-3.97-1.63-6.62-2.26-8.07l-.13-.28V466c-.06-.08-.12-.15-.17-.23l-1.81-.11m3.57 1.95v7.86c.68 1.68 1.46 4.43 2.33 8.36.76 3.47 1.41 5.87 1.93 7.28.64 1.13 1.32 2.92 2.03 5.52.79 2.81 1.52 4.56 2.23 5.5l.05.07.05.08c.88 1.46 2.52 3.65 4.99 6.59 1.7 2.01 2.9 3.53 3.63 4.54 2.27.99 6.51 1.67 13.15 1.87l.63.02 2.23-.54c5.4-1.33 8.84-2.62 10.68-3.82l.17-.12c15.31.13 30.62-.15 46.39-1l1.08-.06c6.44-.39 10.99-1.24 13.96-2.41l3.31-3.7c2.89-3.17 4.99-5.79 6.37-7.88l.13-.19.17-.11c2.14-1.45 4.08-4.48 6.17-9.88l1.12-2.94.09-.21.14-.16c3.48-3.85 5.77-7.72 7.16-12.01-.42-.17-.82-.18-1.31-.03-1.46.35-2.42-.48-3.53-3.05l-.17.17c-1.12 1-2.16 1.45-3.49 1.51-.83.01-1.59.03-2.3.07-1.56 1.97-2.64 2.68-3.8 2.57-.76-.22-1.64-1.01-2.89-2.7-.66 1.71-1.27 2.73-1.91 3.29-.81.54-2.32.94-4.9 1.17h-.08c-2.33-.09-3.91.17-5.14.82-.82.48-1.57.89-2.23 1.24l-.48.24-.34-.47c-.65-.95-1.13-2.26-1.49-4.16l-.62 1.08-.11.19-.15.12c-2.82 2.05-4.87 2.94-6.7 3.02-1.27-.09-3.09-.73-5.75-2.15l-.44.31c-1.5 1.02-2.49 1.43-3.22 1.42-1.16-.19-1.83-1.01-2.39-2.95-5.16 1.68-8.95 1.27-12.62-1.27-.32.35-.71.87-1.19 1.58-.83 1.23-1.47 1.92-1.98 2.23-1.04.47-1.84.18-2.91-1.09l-.11-.15-.07-.2c-.76-2.36-1.19-3.44-1.24-3.5-.11.07-.65 1.09-1.66 3.44-.33 2.5-.89 3.44-2.05 3.48-.59-.1-1.42-.68-2.7-1.96-1.04-1.06-1.84-1.73-2.42-2.09-.62.48-1.38 1.15-2.3 2.03-1.54 1.46-2.58 2.11-3.4 2.24-1.21-.03-2.2-.79-3.46-2.74-1.35.66-2.61 1.84-4.04 3.84-2.03 2.76-3.67 3.72-5.8 3.46l-.28-.06-.19-.28c-.03-.04-.05-.07-.07-.1l-.05.1c-.5 1.05-.93 1.34-1.57 1.09-.48-.31-1-1.13-1.66-2.79-1.11-.87-3.11-1.34-6.68-1.47l-1.11-.03c-.7 1.11-1.28 1.7-1.87 1.95-.85.22-1.4-.11-2.01-1.22-.39-.88-.84-2.73-1.33-5.71l-.21.45c-.57 1.16-.99 1.77-1.33 2.01-.81.37-1.35-.05-2.03-1.58-.85-2.09-1.36-3.09-1.52-3.24-.06.02-.46.41-1.28 1.35l-.38.44-.52.58-.52-.62a63.981 63.981 0 0 0-4.19-4.54"/><path fill="#005121" d="M793.54 478.47v1.57c.01-4.37.08-2.1-2.2 6.45-.57 2.08-1.44 2.57-3.3 3.38l5.5-11.4"/><path fill="#002b0e" d="M794.34 478.4V479.98l-.56.04c-.54 2.37-1.11 4.63-1.69 6.77-.54 1.89-1.65 3.09-3.85 4.12l-.4-2.08c1.63-.74 2.42-1.51 2.74-2.62l.01-.02.01-.03c.61-2.26 1.2-4.64 1.77-7.15.39-1.64.74-2.24 1.28-2.22.38.13.56.57.66 1.62l.03-.01"/><path fill="#005121" d="m783.64 485.45 1.1-.07c-4.14 5.79-6.67 8.42-7.7 14.59l7.7-14.59c-4.14 5.79-6.67 8.42-7.7 14.59l6.6-14.52"/><path fill="#002b0e" d="m783.64 484.36 3.04-.2-1.33 1.89-7.67 14.53-1.42-.78c.63-3.69 2.51-7.67 5.97-12.46l1.41-1.94v-1.04"/><path fill="#005121" d="M768.24 478.39c0 .21-.29 5.5-1.1 7.89l1.1-7.89"/><path fill="#002b0e" d="M769.04 478.35c-.04 3.74-.45 6.44-1.21 8.45l-1.38-1.03c.62-1.66.96-4.01 1-7.35l1.59-.07M764.64 489.51v1.58l-1.59.05v-1.57l1.59-.06M755.05 479.27l1.1-.02v2.17l-1.1.02v-2.17"/><path fill="#005121" d="M693.45 479.26c.37.27 2.79 4.97 5.5 8.13-.73 4.67-1.61 9.69 0 14.14l-5.5-22.27"/><path fill="#002b0e" d="M693.45 478.17c.42.1 1.02.81 2.01 2.5 1.61 2.79 2.93 4.71 3.97 5.87l.4.43-.1.67-.19 1.25c-.87 5.81-.8 9.64.1 12.13l-1.38 1.01c-1.1-2.98-1.23-7.31-.28-13.67l.09-.58c-1.07-1.3-2.35-3.21-3.85-5.81-.42-.73-.7-1.2-.84-1.43-.1-.15-.17-.25-.22-.31.07.07.15.1.29.11v-2.17"/><path fill="#005121" d="M702.25 489.11c.36.27 2.78 4.95 5.5 8.08l-5.5-8.08c.36.27 2.78 4.95 5.5 8.08v1.57c-.02-4.96-.13-9.8 1.1-12.52 1.26 3.17 2.54 7.64 3.3 3.25 6.21-.27 9.15-2.46 13.2-4.38-.02 2.28-.27 1.25 1.1 3.16l-24.2.84"/><path fill="#002b0e" d="M702.25 488.02c.16.02.33.13.57.37h.01l.04.05c.34.4.78 1.03 1.31 1.93l2.77 4.07c.11-4.54.55-7.33 1.25-8.86l.73-1.36.61 1.51.49 1.22c.56 1.41.98 2.38 1.26 2.92l.08-.57.1-.88.65-.01c3.18-.15 6.47-1.09 10.34-3.02 1.14-.59 2.02-1.02 2.63-1.3l1.06-.49v1.53l-.02.95c0 .18.03.29.1.39.28.35.55.71.79 1.06l-1.14 1.49c-.22-.32-.46-.64-.72-.96-.31-.41-.49-.85-.58-1.42l-1.53.78c-3.79 1.9-7.07 2.88-10.25 3.14-.16.75-.36 1.23-.62 1.54-.6.58-1.06.5-1.73-.29-.34-.46-.84-1.46-1.5-3.07-.28 1.74-.43 4.35-.41 7.91v.01l.01.02v2.11l-1.59-.06-.01-1.04c-1.09-1.29-2.39-3.22-3.94-5.88l-.03-.05-2.59-3.82 1.86.08"/><path fill="#005121" d="m801.24 479.39 1.1-.1c-1.97 2.75-3.71 7.78-5.5 11.48l4.4-11.38"/><path fill="#002b0e" d="m801.24 478.3 3.22-.3-1.6 2.06c-.79 1.09-1.92 3.3-3.39 6.81-.87 2.07-1.53 3.56-1.98 4.48l-1.3-1.16c.43-.86 1.06-2.29 1.9-4.3 1.26-3 2.31-5.15 3.15-6.54v-1.05M756.15 476.11l8.8-.26v2.17l-8.8.26v-2.17"/><path fill="#fff" d="M684.27 487.53c-13.25-.35-17.6 17.19-30.84 16.49-.25-.03-.5-.08-.74-.11v1.14c-.03 13.09.72 25.33 2.07 36.85 12.21-.59 16.73-16.95 29.51-16.61 13.18 1.32 17.68 19.47 30.87 20.36 13.21-.11 17.66-17.98 30.87-18.59 13.21.37 17.65 18.17 30.87 17.99 13.17-1.2 17.71-19.47 30.87-21.29 12.77-.82 17.26 15.18 29.41 15.11 1.44-11.92 2.2-24.58 2.17-38.06v-.04c-.25.06-.49.12-.74.16-13.26 1.55-17.58-15.79-30.84-14.93-13.16 1.81-17.7 20.04-30.87 21.24-13.22.19-17.66-17.57-30.87-17.94-13.21.6-17.66 18.43-30.87 18.55-13.19-.9-17.69-19.01-30.87-20.32M684.27 561.23c-10.32-.28-15.21 10.06-23.15 14.75 2.79 10.65 6.12 20.38 9.82 29.36 3.91-3.68 7.64-6.46 13.33-6.31 13.18 1.32 17.68 19.43 30.87 20.32 13.21-.11 17.66-17.94 30.87-18.55 13.21.37 17.65 18.14 30.87 17.95 13.17-1.2 17.71-19.43 30.87-21.25 5.57-.36 9.24 2.12 13.08 5.52 3.7-9.13 7.05-19.02 9.85-29.76-7.83-4.34-12.69-14.22-22.93-13.56-13.16 1.82-17.7 20.05-30.87 21.24-13.22.19-17.66-17.57-30.87-17.94-13.21.61-17.66 18.44-30.87 18.55-13.19-.89-17.69-19.01-30.87-20.32M746.01 636.7c-13.21.61-17.66 18.48-30.87 18.59-12.44-.84-17.23-17.09-28.79-20.06 15.72 24.68 33.19 39.49 45.28 47.57 4.34-3.71 8.1 4.74 14.38 5.25 6.23-.62 9.97-9.19 14.29-5.6 11.95-8.33 29.21-23.52 44.85-48.54-11.17 3.74-16.04 19.66-28.27 20.78-13.22.19-17.66-17.62-30.87-17.99"/><path fill="#522108" d="M664.02 568.91c8.65-3.38 12.65-4.57 13.34-4.05l10.12 14.6 10.53 15.06-17.37 3.85-17.03-29.3.41-.16m.61.63 16.25 27.94 15.91-3.52-9.74-13.95-10.13-14.61c-.46-.23-4.18.97-12.29 4.14M703.35 607.63c.25-4.36 3.28-18.67 9.2-43.11l.59.28c-5.91 24.38-8.93 38.62-9.18 42.91l-.61-.08M706.42 608.13l3.5-21.57 3.54-21.57.61.21-3.55 21.57-3.5 21.57-.6-.21M708.83 608.31l2.91-21.57 2.95-21.69.6.17-2.94 21.69-2.92 21.57-.6-.17"/><path fill="#522108" d="M706.11 595.6c1.01-.01 2.43-.44 4.48-1.43l.22.8c-2.13 1.02-3.61 1.46-4.7 1.47v-.84M706.72 591.18c.16-.51 1.5-1.06 4.84-1.85l.12.82c-2.91.68-4.32 1.05-4.35 1.06l-.61-.03M707.58 584.72l4.9-1.04.11.83-4.9 1.05-.11-.84M710.09 579.96c0-.16-.02-.24-.07-.27.07.04.18.07.33.1.27.06.65.11 1.13.16.56.05 1.11.08 1.67.1v.84c-.56-.02-1.13-.05-1.7-.1-1.37-.16-1.91-.39-1.98-.85l.62.02M757.91 636.89c-.27-7.37-3.86-31.97-10.84-73.97l.59-.19c6.99 42.05 10.58 66.69 10.86 74.11l-.61.05M754.3 634.94l-4.13-35.66-4.19-35.68.6-.14 4.19 35.68 4.13 35.66-.6.14M750.68 629.44l-3.05-32.81-3.1-33.03.6-.11 3.1 33.03 3.05 32.81-.6.11"/><path fill="#522108" d="M757.66 628.18c-1.26-1.31-3.53-2.82-7.15-4.65l.22-.77c3.67 1.86 6 3.41 7.32 4.78l-.39.64M755.32 617.23c-1.32-.07-3.03-.87-5.57-2.73l.29-.73c2.45 1.8 4.07 2.57 5.28 2.63v.83M753.93 608.52c-.14-.25-1.65-.97-5.2-2.3l.16-.79c3.89 1.47 5.46 2.37 5.65 3.08l-.61.01M753.44 598.52l-5.79-1.99.15-.8 5.79 1.99-.15.8M751.28 589.14c-.08.57-.7.86-2.27 1.05-.67.07-1.34.1-2.01.11v-.82c2.54-.04 3.57-.17 3.68-.33l.6-.01M749.9 581.25c-.47.04-1.73.48-3.89 1.41l-.18-.79c2.22-.95 3.54-1.4 4.07-1.45v.83M786.01 604.99c-1.29.02-3.02-.5-5.54-1.75l.23-.78c2.44 1.21 4.1 1.72 5.31 1.7v.83"/><path fill="#522108" d="M788.61 619.4c-.29-5.47-3.86-23.56-10.84-54.5l.58-.27c6.99 31 10.57 49.14 10.86 54.68l-.6.09M784.99 618.16l-4.13-26.36-4.18-26.36.59-.21 4.19 26.37 4.13 26.35-.6.21M781.38 614.24l-3.06-24.29-3.09-24.45.59-.17 3.1 24.45 3.05 24.28-.59.18"/><path fill="#522108" d="M784.63 598.47c-.1-.08-1.68-.54-5.19-1.35l.12-.82c3.91.93 5.48 1.54 5.67 2.13l-.6.04M784.15 591.16l-5.79-1.21.12-.82 5.78 1.21-.11.82M781.98 584.17c-.16.63-1.32.98-4.28 1.17v-.82c2.48-.14 3.62-.28 3.67-.32l.61-.03M780.59 578.47c-.47.05-1.75.44-3.91 1.23l-.14-.79c2.21-.81 3.54-1.21 4.05-1.27v.83"/><path fill="#dd8b59" d="m742.25 627.33 1.08-129.67c.23-.04 2.97-.43 3.26-.03 0 .61-.57 129.04-.72 129.67-.65.51-3.61 1.07-3.62.03"/><path fill="#522108" d="m741.95 627.24.54-64.75.54-65.2.27-.04c.55-.09 1.1-.16 1.64-.21.49-.04.87-.05 1.16-.03.55.06.76.23.79.62l-.22 64.84c-.19 43.17-.46 64.76-.58 65.12-.33.38-.99.6-2.29.72-.54.04-.94.01-1.25-.07-.22-.07-.36-.16-.47-.3-.16-.21-.19-.42-.13-.7m.6.09v.09l-.03.08.16-.07c.26.07.61.09 1.09.06 1.13-.1 1.68-.25 1.88-.47l.41-64.55.23-64.61a4.58 4.58 0 0 0-.23-.03c-.26-.01-.62 0-1.08.04-.45.04-.9.09-1.35.16l-.54 64.47-.54 64.83"/><path fill="#dd8b59" d="m777.7 502.34-.64 96.63-.09 12.41-2.53 4.26.73-113.17 2.53-.13"/><path fill="#522108" d="m778 502.33-.36 54.51-.37 54.67-3.14 5.29.74-114.73 3.13-.16v.42m-.61.44-1.92.1-.72 111.61 1.92-3.24.37-54.37.35-54.1"/><path fill="#dd8b59" d="M714.76 602.16c.28-3.1.36-96.58.36-96.59l-2.17-.58-.36 95.55 2.17 1.62"/><path fill="#522108" d="m714.99 602.8-2.7-2.02.36-96.29 2.77.74v.35c0 62.36-.15 94.57-.36 96.66l-.07.56m-.49-1.3.32-95.59-1.57-.42-.36 94.82 1.61 1.19"/><path fill="#dd8b59" d="M701.02 566.51c1.51-.06 25.94-4.86 26.04-4.88l-.36 5.68-24.24 2.88-1.44-3.68"/><path fill="#522108" d="M701.02 566.1c.95-.01 9.6-1.37 25.99-4.88l.38-.08-.41 6.54-24.69 2.95-1.78-4.55.51.02m.48.8 1.13 2.86 23.79-2.83.3-4.81c-14.61 3.13-23.02 4.53-25.22 4.78"/><path fill="#dd8b59" d="M701.38 536.57c1.81.2 29.24-9.86 29.66-10.02 0 .2-.12 3.36-.37 3.62l-25.74 8.84-3.55 1.17v-3.61"/><path fill="#522108" d="M701.45 536.17c.99.21 10.66-2.65 29.5-10.01l.39-.16v.56c0 .61-.02 1.22-.05 1.83-.09 1.52-.27 2.11-.62 2.19-.2.04-9.93 3.63-29.21 10.01l-.39.12v-4.69l.38.15m.23.83v2.66c19.09-6.32 28.73-9.86 28.99-9.91.01-.02.06-.86.06-2.65-17.23 6.72-26.88 9.7-29.05 9.9"/><path fill="#dd8b59" d="M702.46 521.63c-.26 2.11.35 4.62.36 4.67l23.51-10.66c.09-.2.99-2.29 0-2.58-1.75.33-23.36 9.19-23.87 8.57"/><path fill="#522108" d="M702.76 521.74c0 .01-.01.02-.01.03.03-.14.01-.26-.07-.38-.05-.05-.08-.08-.13-.09.03 0 .07 0 .15-.01.19-.03.48-.1.89-.21.74-.22 1.85-.58 3.32-1.11l9.74-3.69c6.15-2.4 9.35-3.57 9.68-3.63.42.03.63.22.75.71.06.3.04.66-.05 1.12-.1.46-.24.91-.43 1.37l-.06.14-23.89 10.83-.11-.38c-.47-1.83-.59-3.35-.39-4.81.01-.06.02-.12.04-.19l.57.3m-.06.38c-.11 1.11-.02 2.29.31 3.66l23.12-10.48c.14-.35.24-.71.32-1.06.06-.3.08-.52.05-.66-.02-.07-.06-.1-.17-.11-.27.06-3.42 1.22-9.5 3.6l-9.75 3.7c-1.48.53-2.6.9-3.35 1.12-.43.12-.74.19-.95.22-.03 0-.05.01-.08.01"/><path fill="#dd8b59" d="M733.57 515.21c.75-.19 24.09-10.99 24.23-11.06.02.21.19 4.37 0 4.65l-19.62 8.49-2.44 1.03-2.17-3.11"/><path fill="#522108" d="M733.57 514.8c.45-.08 8.47-3.44 24.14-11.04l.35-.17.04.51.14 2.34c.03.7.03 1.24.02 1.65-.05.77-.17 1.08-.46 1.13-.2.05-7.51 3.35-21.97 9.5l-.18.07-2.79-4 .71.01m.58.65 1.68 2.4 21.79-9.4c.02-.1.03-.23.03-.39.02-.38.01-.89-.01-1.56l-.1-1.78c-13.46 6.52-21.25 9.91-23.39 10.73m23.5-7.01c.08-.03.13-.05.15-.05-.07 0-.12.02-.15.05"/><path fill="#dd8b59" d="M731.76 528.63c-.03.22-.52 4.37-.36 4.64l30.74-11.67v-3.1a923.966 923.966 0 0 1-30.38 10.13"/><path fill="#522108" d="M731.5 528.28c10.21-3.2 20.42-6.59 30.95-10.32v3.94l-15.59 6.14-15.42 5.65h-.04c-.23-.03-.33-.18-.39-.55-.01-.16-.02-.36-.01-.62.02-.4.07-.95.14-1.64l.32-2.34.04-.26m.52.69-.28 2.05c-.07.66-.12 1.18-.14 1.55v.2l15.1-5.53 15.14-5.95v-2.26c-9.84 3.47-19.68 6.75-29.82 9.94"/><path fill="#dd8b59" d="M732.84 565.32v3.61l26.05-5.4-.73-2.56-25.32 4.35"/><path fill="#522108" d="m732.54 564.95 25.82-4.43.95 3.34-26.77 5.54v-4.45m.61.73v2.78l25.32-5.25-.5-1.79-24.82 4.26"/><path fill="#dd8b59" d="m762.87 567.55.36 3.09c.33-.07 25.49-6.09 26.04-6.52 0-.7-.09-3.36-.36-3.59-.72.18-25.32 7.15-26.04 7.02"/><path fill="#522108" d="m762.57 567.62-.15-1.3.67.94c.15.02 7.01-1.55 20.89-5.68l4.93-1.46c.35.05.52.57.62 1.95.03.57.04 1.24.04 2.03-.25.52-8.58 3.17-26.3 6.95l-.29.06-.41-3.49m.64.24.27 2.31c17.02-3.63 25.44-6 25.49-6.03 0-.76-.02-1.42-.05-1.97-.02-.45-.06-.8-.1-1.05l.09-.18-4.83 1.45c-11.97 3.56-18.92 5.21-20.87 5.47"/><path fill="#dd8b59" d="m762.5 534.5.37 3.6c10.14-4.25 20.29-8.71 30.74-13.56.05-.21.58-2.9.36-3.13-1.13.43-29.85 14.2-31.47 13.09"/><path fill="#522108" d="m762.21 534.56.55-.29c.51.42 9.17-2.76 27.15-11.36 2.63-1.26 3.98-1.89 4.06-1.92.22 0 .32.12.39.42.02.13.02.28.01.48-.02.28-.07.66-.15 1.14-.09.54-.2 1.07-.32 1.61l-.05.21a891.117 891.117 0 0 1-31.24 13.79l-.4-4.08m.64.32.27 2.69c9.98-4.19 19.96-8.58 30.25-13.35.1-.45.19-.89.26-1.33.07-.42.12-.74.14-.97l-3.69 1.77c-15.84 7.58-24.86 10.95-27.23 11.19"/><path fill="#dd8b59" d="M765.76 517.86c-.02.19-.25 2.86 0 3.1.66-.19 22.26-8.96 22.79-9.48.18-.73 2.06-3.46.36-3.12-2.43.99-21.69 10.54-23.15 9.5"/><path fill="#522108" d="m765.59 516.73.43.9c.5.38 6.11-1.7 18.13-7.46 2.81-1.35 4.37-2.09 4.7-2.21.41-.14.65-.12.86.03.2.22.26.49.19.94-.08.35-.3.94-.71 1.79-.23.48-.34.72-.34.74-.23.42-3.69 2.24-11.48 5.44-7.46 3.02-11.31 4.41-11.61 4.47-.28-.02-.4-.25-.45-.85-.02-.28-.01-.65.01-1.13.04-.53.08-1.06.14-1.59l.13-1.07m.43 1.56c-.04.38-.07.76-.09 1.14-.03.44-.03.77-.02 1.01l-.15.1c.25-.05 4.05-1.43 11.45-4.43l11.04-4.61c.01-.19.15-.58.44-1.21.37-.76.56-1.27.62-1.53l.05-.07c-.05-.03-.16-.01-.39.07-.3.12-1.86.85-4.64 2.19-10.51 5.04-16.5 7.25-18.31 7.34"/><path fill="#fecf3e" d="M716.57 528.34c3.01-1.83 1.33-4.77 1.81-5.12.9.26 3 2.38 4.7.63 1.48-2.55 2.44-7.57 1.81-7.72-.91.54-16.07 7.72-19.62 7.97 2.39 1.41 8.2 5.1 11.3 4.24"/><path fill="#522108" d="M716.67 528.73c-1.87.61-4.97-.38-10.39-3.58l-1.12-.67.1-.79c1.45-.08 4.93-1.2 10.74-3.74 5.07-2.25 7.95-3.68 8.75-4.18.14-.09.24-.1.37-.03.11.07.18.17.24.35.05.18.07.44.06.78-.04.6-.14 1.35-.33 2.29-.52 2.35-1.1 3.93-1.79 4.98-.93 1.09-2.04 1.08-4.09-.08-.31-.18-.53-.3-.67-.37l.05.34c.3 2.51-.23 3.81-1.92 4.7m-.2-.78c1.34-.71 1.77-1.75 1.53-3.76-.06-.36-.08-.61-.08-.75.02-.44.15-.61.46-.63.18.02.52.17 1.07.5 1.77 1.01 2.7 1.07 3.41.25.62-.95 1.16-2.42 1.65-4.64.17-.87.27-1.57.3-2.11l.22-.31c-.83.53-3.73 1.97-8.83 4.24-4.64 2.02-7.85 3.19-9.74 3.63l.05.03c5.29 3.11 8.23 4.08 9.96 3.55"/><path fill="#fecf3e" d="M766.85 520.92c.14.47 1.63 5.49 3.61 5.02 1.79-1.2 3.6-3.24 3.62-3.27.12.39 1.3 4.57 3.98 3.93 2.44-1.61 3.9-6.65 3.98-6.95.12.04 2.4.74 3.61.29.87-1.02 2.48-8.66 2.54-8.95l-21.34 9.93"/><path fill="#522108" d="m766.44 520.67 22.16-10.31-.12.7c-1.06 5.88-1.94 8.6-2.73 9.27-.81.36-1.85.33-3.52-.18-1.11 3.87-2.33 5.86-4.09 6.84-1.9.68-3.03-.3-4.19-3.64-1.15 1.28-2.24 2.24-3.37 2.96-1 .47-1.77-.13-2.86-2.23-.45-.96-.84-1.95-1.16-3l-.12-.41m.81.49c.28.85.6 1.66.98 2.45.88 1.72 1.45 2.24 2.12 1.95 1.17-.76 2.32-1.79 3.54-3.2l.32-.38.15.53c1.02 3.26 1.99 4.25 3.61 3.7 1.61-.92 2.75-2.85 3.78-6.67l.1-.38.27.09c1.69.56 2.71.63 3.43.31.55-.5 1.28-2.85 2.22-7.94l-20.52 9.54"/><path fill="#fecf3e" d="M764.68 571.11c-.13 1.25 1.64 3.29 3.61 3.48 1.87-.44 2.42-3.4 2.9-2.71.35 1.38.31 5.21 5.06 3.89 4.62-2.23 4.69-6.13 4.7-6.46-.09.11-1.36 1.46 1.81 1.96 3.48-.44 6.16-6.58 6.15-7.12-.66.17-23.23 7.08-24.23 6.96"/><path fill="#522108" d="m764.54 570.55.28.18c.36.07 6.79-1.48 19.74-5.62l4.35-1.38c.15 0 .23.07.3.25.03.08.03.17.03.27-.01.1-.04.21-.08.35-.07.23-.19.53-.34.89-.4.88-.86 1.73-1.41 2.59-1.76 2.61-3.1 3.61-4.68 3.6-.8-.09-1.36-.25-1.78-.5-.09.29-.2.58-.32.88-.94 2-2.21 3.22-4.31 4.11-3.01.95-4.42 0-5.27-3.49l-.08-.41c-.06.1-.14.24-.24.42-.89 1.55-1.6 2.2-2.44 2.31-.98-.01-1.81-.42-2.81-1.4-.99-1.09-1.29-1.85-1.08-2.66l.14-.39m16.6-.13c.3.2.81.35 1.66.44 1.36 0 2.56-.92 4.17-3.31.52-.81.96-1.63 1.33-2.46.07-.14.12-.28.17-.4l-3.8 1.23c-11.53 3.68-18.1 5.36-19.75 5.57.06.37.34.81.94 1.44.88.87 1.6 1.23 2.43 1.24.64-.09 1.2-.64 1.96-1.96.22-.4.38-.64.47-.75.15-.15.27-.19.41-.16.15.05.24.17.33.39.04.13.1.38.18.76.72 2.96 1.93 3.75 4.54 2.92 1.92-.81 3.08-1.91 3.93-3.7.14-.35.26-.68.35-1.01a.977.977 0 0 1-.12-.42c-.03-.47.09-.84.43-1.24l.49-.55v.85c-.01.36-.05.73-.12 1.12"/><path fill="#fecf3e" d="M764.68 537.53c-.12.18-3.33 5.64-2.54 13.51 1.15 7.91 2.62 14.1 2.9 14.37.35-.4 4.44-9.89 8.68-11.21 4.54-.28 12.05 4.81 12.3 4.98-.01-.02-1-12.31-.73-18.03.67-5.78 6.42-15.81 6.51-15.96l-27.12 12.34"/><path fill="#522108" d="m764.45 537.26.22.26-.08-.39h.01l28.09-12.79-.66 1.1c-4.05 6.88-6.09 11.94-6.44 15.72-.2 3.79.02 9.75.73 17.95l.07.81-.52-.37c-5.42-3.77-9.16-5.27-12.13-4.94-2.2.59-4.55 3.44-7.67 9.61-.55 1.09-.86 1.55-1.03 1.6-.74-.27-1.76-4.65-3.19-14.69-.4-3.38-.12-6.51.88-9.9.54-1.65 1.11-2.95 1.72-3.97m.4.62c-.55.94-1.07 2.14-1.57 3.67-.95 3.22-1.22 6.2-.84 9.4 1.36 9.56 2.24 13.8 2.6 14.05l.02-.22.51-1.01c3.24-6.39 5.72-9.35 8.12-9.98 2.99-.34 6.69 1.07 11.96 4.66-.66-7.85-.86-13.6-.66-17.32.34-3.75 2.22-8.6 5.94-15.09l-26.08 11.84"/><path fill="#fecf3e" d="M702.1 570.7c.28.41.03 4.17 2.89 3.74 2.89-1.15 3.57-3.32 3.62-3.48.07.43.69 5.13 4.7 5.33 4.02-.98 6-6.15 6.15-6.54.04.34.26 4.2 2.9 3.16 2.46-1.77 3.21-4.92 3.25-5.1l-22.79 3.95-.72-1.06"/><path fill="#522108" d="M702.1 570.28c.08.01.15.05.22.14l.61.9 5.51-.9.28-1 .12.94 10.72-1.86.09-.24.02.22 6.35-1.17-.12.61c-.6 2.61-1.62 4.19-3.42 5.37-1.31.67-2.05.35-2.78-1.2a6.97 6.97 0 0 1-.36-1.12c-1.64 3.67-3.36 5.29-6 5.73-1.87.07-3.02-.68-4.12-2.71-.3-.63-.53-1.25-.7-1.89-.74 1.33-1.76 2.14-3.45 2.74-1.13.29-1.78.04-2.39-.92-.28-.52-.5-1.29-.67-2.4-.04-.24-.06-.4-.08-.48l-.54-.79.71.03m6.85.89c.14.81.39 1.58.77 2.37.94 1.75 1.94 2.4 3.56 2.34 2.65-.47 4.33-2.24 5.91-6.32l.06-.17-10.3 1.78m10.78-1.87.03.41c.07.72.22 1.37.46 1.98.52 1.1 1.06 1.33 2.01.84 1.48-.96 2.36-2.21 2.95-4.23l-5.45 1m-16.99 2.89c.12.56.26.96.41 1.24.43.66.91.83 1.77.6 1.67-.59 2.62-1.39 3.24-2.72l-5.42.88"/><path fill="#fecf3e" d="M702.1 540.22c-.19.1-2.97 1.31-2.17 10.75 1.23 9.52 3.6 14.37 3.98 14.64.28-.3 3.42-8.18 7.59-10.04 4.64-.89 11.62 4.71 11.94 4.97 0-.04-.62-8.25.36-16.01 1.28-7.77 4.65-13.27 4.7-13.36-.15.06-25.24 8.9-26.4 9.05"/><path fill="#522108" d="M702.05 539.8h.05c.71-.05 9.45-2.74 26.32-9.02l.98-.37-.67 1.04c-2.35 3.79-3.85 8.03-4.63 13.16-.68 5.14-.8 10.38-.36 15.88l.07.84-.52-.44c-5.19-4.22-8.72-5.67-11.71-4.92-2.17.88-4.24 3.45-6.73 8.6-.48 1-.76 1.41-.94 1.45-.47-.15-1.06-1.29-1.99-4.07-1.03-3.24-1.79-6.85-2.29-10.93-.41-4.09-.16-6.94.72-9.16.53-1.12 1.03-1.72 1.65-2.04l.05-.02m.11.83c-.46.25-.86.76-1.29 1.68-.81 2.04-1.04 4.72-.64 8.61.49 4.01 1.24 7.54 2.24 10.71.8 2.43 1.26 3.46 1.44 3.57l-.01-.18.44-.91c2.58-5.33 4.76-8 7.09-8.95 3.06-.76 6.54.58 11.64 4.59-.37-5.29-.23-10.35.44-15.3.73-4.82 2.08-8.86 4.14-12.53-15.93 5.92-24.41 8.55-25.49 8.71"/><path fill="#fecf3e" d="M734.29 516.77c1.56.96 3.83 5.13 5.43 4.66 1.4-1.14 3.59-4.1 3.62-4.14-.02.47-.39 5.57 2.53 5.14 2.83-1.43 3.22-4.92 3.25-5.2.17.11 1.98 1.34 3.98-.06 1.86-2.17 3.35-8.76 2.89-9.36-.92.25-20.79 9.03-21.7 8.96"/><path fill="#522108" d="M734.37 516.37c.03.01.06.02.1.04.51-.06 5.21-1.85 14.28-5.88 4.63-2.07 7.03-3.08 7.24-3.13.29.02.41.21.46.69.02.26 0 .59-.05 1.02-.11.83-.32 1.79-.62 2.92-.84 2.93-1.65 4.62-2.52 5.49-1.31 1.03-2.39 1.12-3.9.33-.46 2.71-1.44 4.13-3.42 4.98-.81.26-1.34.14-1.89-.44-.37-.47-.63-1.1-.83-2.03-.12-.66-.19-1.33-.21-2.03-1.26 1.69-2.29 2.81-3.15 3.47-.81.39-1.81-.28-3.63-2.53-1.03-1.29-1.67-1.94-2.01-2.1v-.02c-.03 0-.05-.01-.07-.02l.22-.76m.8.59c.39.4.88.96 1.47 1.7 1.59 1.98 2.4 2.63 2.94 2.4.93-.71 2.08-2.01 3.54-4.06l.58-.84-.06 1.16c-.05.99.01 1.92.17 2.83.15.76.36 1.26.64 1.61.37.39.75.47 1.34.27 1.84-.8 2.7-2.17 3.03-4.84l.05-.6.39.28c1.45.92 2.47.9 3.68-.05.76-.76 1.49-2.32 2.27-5.07.29-1.08.49-1.99.59-2.77.04-.31.06-.54.06-.71l-6.93 3.05c-7.27 3.23-11.84 5.04-13.76 5.64"/><path fill="#fecf3e" d="M733.57 531.74c-.15 1.08-3.37 9.22-2.53 17.03 1.18 7.95 3.31 14.72 3.61 15.01.3-.22 5.92-7.89 10.49-9.83 5.13-1.04 11.09 4.65 11.22 5-.27-.32-1.71-7.47-1.81-13.39.2-5.73 5.4-23.3 5.42-23.38l-26.4 9.56"/><path fill="#522108" d="m733.27 531.42 27.22-9.87-.24.78c-3.59 11.8-5.33 19.45-5.4 23.22.02 2.54.27 5.44.76 8.74.33 2.09.55 3.41.66 3.96l.09.09c.1.1.16.19.21.25.04.08.07.15.09.22.03.16.01.28-.07.4-.07.1-.13.14-.23.15-.1-.01-.18-.08-.28-.26-.03-.03-.06-.07-.1-.11-.18-.19-.42-.42-.73-.7-.85-.74-1.75-1.42-2.73-2.06-3.12-1.89-5.25-2.42-7.31-1.88-2.35.93-5.3 3.57-9.27 8.48-.74.93-1.14 1.32-1.29 1.36-.37-.15-.93-1.52-1.82-4.87-.89-3.49-1.58-6.97-2.09-10.48-.49-4.13.16-9.12 2.07-15.47.3-.99.45-1.52.46-1.63v-.32m22.33 26.19c-.18-.79-.37-1.83-.58-3.13-.5-3.37-.75-6.32-.77-8.92.07-3.79 1.74-11.29 5.21-22.76l-25.64 9.28c-.08.34-.23.88-.46 1.62-1.86 6.19-2.49 11.03-2.03 14.99.51 3.47 1.19 6.91 2.07 10.36.69 2.62 1.11 4.03 1.22 4.28.05-.05.11-.12.18-.2l.73-.91c4.04-5 7.09-7.71 9.54-8.67 2.2-.58 4.46-.04 7.71 1.93 1.01.66 1.93 1.36 2.81 2.12l.01.01"/><path fill="#fecf3e" d="M733.57 568.94c.11.78 1.03 3.77 3.62 4.15 2.53-.37 2.86-3.35 2.89-3.62-.02.48-.34 5.57 3.62 5.67 3.98-1.09 5.32-5.87 5.42-6.25.04.23.29 2.8 3.62 1.5 3.44-1.98 7.21-6.64 7.23-6.89-1.06.23-25.16 6.7-26.4 5.44"/><path fill="#522108" d="m733.27 568.93.59-.12c.39.46 7.77-.8 23.49-5.02 1.69-.46 2.56-.69 2.62-.7.17.01.25.09.31.29.02.12.02.22-.02.34-.02.08-.07.17-.13.27-.1.17-.26.38-.47.66-.49.61-1.07 1.28-1.77 2.02-1.97 2.03-3.6 3.34-5.05 4.1-1.56.71-2.48.64-3.33-.21-.15-.18-.27-.36-.38-.57-1.22 3.47-2.76 5.03-5.4 5.56-1.91.14-2.9-.65-3.62-2.9-.09-.33-.16-.67-.22-1.01-.61 1.27-1.37 1.8-2.7 1.86-1.24-.08-2.1-.65-2.99-2.04-.62-1.05-.9-1.84-.93-2.53m.66.45c.12.42.35.93.73 1.56.77 1.18 1.49 1.67 2.53 1.73 1.57-.11 2.28-1 2.59-3.25l.6.09c-.04.98.06 1.9.3 2.85.59 1.84 1.4 2.49 2.99 2.37 2.62-.54 4.08-2.21 5.17-5.97l.58.06c.06.43.21.77.49 1.1.65.65 1.41.68 2.73.08 1.39-.74 2.97-2.01 4.89-3.98.65-.69 1.2-1.32 1.66-1.9l-1.74.47c-13.5 3.63-21.25 4.98-23.52 4.79"/><path fill="#dd8b59" d="M702.1 605.31s3.61 53.71 45.21 52.46c41.59-2.67 53.17-56.3 53.17-56.32l-18.08.32c-.46.42-14.4 25.15-32.56 25.49-18.13-.48-23.79-6.7-27.85-12-3.9-5.34-7.58-13.07-7.59-13.11l-20.98-12.77 1.08 11.43 7.6 4.5"/><path fill="#522108" d="m701.82 605.58-7.59-4.49-1.18-12.38 21.55 13.12.05.11c2.44 5.21 4.94 9.51 7.55 13.03 2.73 3.49 5.47 5.97 8.54 7.73 4.86 2.56 11.04 3.96 19.11 4.14 10.63-.04 20.82-7.83 31.59-24.26.54-.83.84-1.18.96-1.22l9.05-.11 9.44-.23-.12.52c-2 8.95-5.64 18-11.04 27.32-11.05 18.61-24.84 28.3-42.41 29.32-17.61.65-30.06-7.98-38.47-25.97-2.53-5.63-4.46-11.73-5.83-18.47-.62-3.24-1.02-5.95-1.2-8.16m.58-.3c.17 2.21.57 4.95 1.21 8.27 1.35 6.65 3.25 12.68 5.75 18.24 8.3 17.71 20.56 26.2 37.95 25.56 17.38-1 31.02-10.58 41.96-28.98 5.24-9.05 8.8-17.83 10.81-26.5l-8.65.21-9.03.1v.15l-.52.78c-10.88 16.63-21.23 24.52-32.04 24.56-8.15-.19-14.4-1.61-19.32-4.2-3.14-1.81-5.95-4.34-8.73-7.91-2.63-3.54-5.15-7.86-7.6-13.08l-20.4-12.42.99 10.47 7.6 4.5.02.25"/><path fill="#dd8b59" d="M814.4 596.58c-.34-1.52-1.26-6.73-1.26-6.73v-6.2l2.01-6.5c-.11.03-31.35 9.62-31.47 9.72-.15 4.08-.13 8.17-.2 12.25 10.21-.59 20.4-1.42 30.92-2.54"/><path fill="#522108" d="M814.81 596.95a640.551 640.551 0 0 1-31.64 2.6l.1-6.55.1-6.12v-.02c.02-.27.1-.39.3-.42.11-.01.17.02.23.08l.01.02c2.43-1.06 12.77-3.95 31.19-9.79l.54-.18-2.19 7.13v6.07c.59 3.44 1.01 5.66 1.23 6.65l.13.53m-30.83-10.1-.1 6.13-.09 5.71c9.97-.59 19.93-1.39 30.2-2.48l-1.14-6.24-.01-.04v-6.33l1.81-5.88c-20.5 6.49-30.56 9.07-30.67 9.13m0 0v-.01.01"/><path fill="#dd8b59" d="m808.44 584.15-.72 10.92 5.06-.53-.36-10.81-3.98.42"/><path fill="#522108" d="m808.17 583.77 4.54-.49.39 11.64-5.71.6.75-11.38.03-.37m.55.77-.67 10.09 4.42-.47-.34-9.99-3.41.37"/><path fill="#dd8b59" d="m803.02 585.2-.37 11.4 3.26-.83.36-10.88-3.25.31"/><path fill="#522108" d="m802.73 584.81 3.86-.37-.39 11.67-3.86.98.37-11.88.02-.4m.58.78-.34 10.51 2.65-.67.34-10.1-2.65.26"/><path fill="#dd8b59" d="M797.59 597.05v-8.78l3.26-1.84.36 8.75-3.62 1.87"/><path fill="#522108" d="m797.29 588 3.84-2.16.39 9.61-4.23 2.19V588m.6 8.46 3-1.55-.32-7.88-2.68 1.51v7.92"/><path fill="#dd8b59" d="m791.44 597.02.73-7.8 3.61.23.36 8.24-4.7-.67"/><path fill="#522108" d="m791.14 596.99.76-8.2 4.17.26.4 9.1-5.37-.76.04-.4m.64-.33 4.04.56-.32-7.37-3.07-.2-.65 7.01"/><path fill="#dd8b59" d="m784.57 597.5.36-6.74 3.62-.76v7.75l-3.98-.25"/><path fill="#522108" d="m784.27 597.49.38-7.08 4.2-.89v8.66l-4.6-.28.02-.41m.62-.38 3.36.21v-6.84l-3.04.64-.32 5.99"/><path fill="#dd8b59" d="M780.95 601.86c11.34-.34 22.68-.95 34.36-1.92l.37-3.66a644.61 644.61 0 0 1-35.45 2.52l.72 3.06"/><path fill="#522108" d="m780.73 602.28-.92-3.87c11.95-.52 23.9-1.35 36.21-2.58l-.44 4.5c-11.43.96-22.86 1.59-34.63 1.94l-.22.01m.44-.84c11.19-.33 22.36-.94 33.88-1.89l.28-2.82a646.869 646.869 0 0 1-34.69 2.47l.53 2.24"/><path fill="#dd8b59" d="M782.4 588.86c4.13-.46 33.72-11.15 34-11.26.08-.4.93-4.76 0-5.17-.82.21-20.99 8.08-29.84 11.3l-4.16 1.51v3.62"/><path fill="#522108" d="M782.1 589.29v-4.36l.23-.09h.01c22.01-7.93 33.32-12.67 34.06-12.82.44-.01.65.28.76 1.07.04.47.02 1.1-.05 1.9-.1.89-.24 1.79-.42 2.69l-.05.25-.18.07c-20.04 7.8-31.39 11.04-34.06 11.27l-.3.02m.6-.87c3.11-.43 14.26-3.68 33.46-11.15.15-.78.26-1.55.35-2.33.07-.72.08-1.27.05-1.66-.04-.31-.08-.43-.16-.43-.69.14-11.89 4.84-33.7 12.7v2.87"/><path fill="#dd8b59" d="m663.04 568.7 27.49 21.04-.73 2.54c-.11-.08-26.02-19.41-26.4-19.93.03-.59.26-2.46-.36-3.65"/><path fill="#522108" d="m663.17 568.35 27.73 21.21-.93 3.3-.3-.21c-17.81-12.9-26.39-19.83-26.58-20.33.01-.08.02-.24.04-.48.1-1.46-.01-2.33-.31-2.87l.35-.62m.52 1.32c.09.63.11 1.39.04 2.31-.02.21-.03.34-.03.39.08.12 8.61 6.79 25.94 19.34l.51-1.79-26.46-20.25"/><path fill="#dd8b59" d="M675.7 563.99c.07 1.56 3.97 33.33 3.98 33.34.19.05 2.28.59 2.53.17l-4.34-32.84-2.17-.67"/><path fill="#522108" d="m675.39 563.48 2.73.85 2.24 16.7 2.15 16.45v.04c-.02.39-.21.55-.68.58-.22.01-.52-.02-.91-.08-.43-.07-.86-.17-1.29-.28l-.22-.06-.03-.3c-2.66-21.22-3.96-32.36-3.99-33.41v-.49m.64 1.04 3.91 32.46c.34.09.68.16 1.02.22.36.06.63.08.83.08l.11.19-2.14-16.33-2.15-16.14-1.58-.48M730.97 624.65c.29-5.76 3.87-24.86 10.86-57.49l.59.24c-6.98 32.57-10.55 51.61-10.84 57.31l-.61-.06M734.59 625.21l4.13-28.73 4.19-28.75.61.16-4.19 28.75-4.13 28.73-.61-.16M737.44 625.32l3.44-28.71 3.48-28.87.6.13-3.47 28.87-3.44 28.72-.61-.14"/><path fill="#522108" d="M731.47 617.35c1.3-1.05 3.65-2.29 7.32-3.77l.17.81c-3.61 1.46-5.91 2.66-7.15 3.67l-.34-.71M734.17 608.72c1.21-.06 2.87-.69 5.3-2.1l.25.77c-2.52 1.46-4.26 2.11-5.55 2.17v-.84M734.95 602.7c.19-.61 1.76-1.35 5.67-2.55l.13.83c-3.52 1.05-5.09 1.63-5.19 1.72h-.61M735.92 594.24l5.78-1.61.13.83-5.79 1.61-.12-.83M738.82 587.68c.06.04 1.18.12 3.67.11v.84c-.67 0-1.34-.02-2.01-.06-1.58-.13-2.2-.38-2.28-.89h.62M739.6 580.82c.51.03 1.84.36 4.05 1.07l-.15.82c-2.16-.69-3.44-1.02-3.9-1.05v-.84M761.67 623.99c.29-5.56 3.87-24.07 10.86-55.78l.58.21c-6.98 31.65-10.55 50.11-10.84 55.61l-.6-.04M765.29 622.26l4.13-26.77 4.19-26.78.59.14-4.19 26.79-4.13 26.77-.59-.15M768.91 618.01l3.05-24.59 3.09-24.77.6.11-3.1 24.77-3.05 24.59-.59-.11"/><path fill="#522108" d="M762.17 616.94c1.29-1.07 3.65-2.36 7.31-3.93l.16.79c-3.61 1.55-5.91 2.8-7.15 3.83l-.32-.69M764.86 608.52c1.21-.11 2.88-.78 5.31-2.24l.23.75c-2.51 1.5-4.25 2.2-5.54 2.32v-.83M765.64 602.71c.19-.6 1.77-1.39 5.67-2.7l.12.8c-3.5 1.16-5.09 1.79-5.18 1.87l-.61.03M766.61 594.52l5.79-1.79.12.8-5.79 1.79-.12-.8M769.51 588.09c.05.03 1.18.05 3.67-.06v.83c-2.97.1-4.13-.12-4.28-.74l.61-.03M770.29 581.45c.51 0 1.84.27 4.05.85l-.14.81c-2.16-.57-3.44-.83-3.91-.84v-.82M726.97 618.77c-.29-5.54-3.86-24.05-10.84-55.75l.58-.22c6.99 31.75 10.57 50.33 10.86 55.93l-.6.04M723.35 617.21l-4.13-26.86-4.18-26.87.59-.16 4.19 26.87 4.13 26.86-.6.16M719.74 612.96l-3.06-24.69-3.09-24.85.59-.13 3.1 24.86 3.05 24.68-.59.13"/><path fill="#522108" d="M726.74 612.34c-1.24-1.01-3.54-2.24-7.15-3.73l.16-.79c3.67 1.52 6.02 2.77 7.32 3.83l-.33.69M724.37 604.05c-1.28-.1-3.03-.77-5.54-2.24l.24-.75c2.43 1.42 4.1 2.07 5.3 2.16v.83M722.99 597.37c-.09-.09-1.68-.69-5.19-1.8l.13-.8c3.9 1.25 5.47 2.02 5.66 2.61l-.6-.01M722.51 589.97l-5.79-1.7.12-.81 5.78 1.7-.11.81M720.34 582.76c-.16.63-1.32.87-4.28.82v-.82c2.49.06 3.62.02 3.67-.01l.61.01M718.95 576.9c-.47.02-1.75.31-3.91.92l-.14-.8c2.21-.64 3.53-.93 4.05-.94v.82"/><path fill="#b6b6b4" d="M692.7 589.86c-.56-.14-6.48-1.79-6.88.64.62 2.54 3.41 5.43 3.98 6.95.21 2.01-.94 6.58 1.09 6.78 2.31-.59 4.12-2.23 4.34-3.9l-.36-8.8-2.17-1.67"/><path fill="#522108" d="m692.79 589.47 2.37 1.81.01.23.36 8.83c-.05.96-.48 1.77-1.49 2.72-.98.84-1.95 1.33-3.1 1.58-.89.09-1.3-.35-1.52-1.63-.07-.62-.06-1.67.05-3.19.09-1.23.1-1.97.05-2.26-.12-.38-.57-1.12-1.47-2.32-1.53-2.07-2.3-3.55-2.52-4.68-.08-.9.23-1.35 1.14-1.66.6-.16 1.39-.19 2.46-.1 1.19.12 2.39.34 3.61.66l.05.01m-.19.78c-1.18-.3-2.33-.51-3.48-.63-1.02-.08-1.75-.05-2.3.09-.53.17-.72.37-.7.73.19.94.9 2.28 2.34 4.22.97 1.3 1.48 2.16 1.63 2.68.07.4.08 1.25-.02 2.6-.1 1.44-.12 2.41-.06 2.95.13.72.35.97.83.93 1.06-.23 1.95-.68 2.86-1.46.83-.78 1.18-1.39 1.23-2.05l-.35-8.54-1.98-1.52M700.65 604.31c.76.1 3.88 1.05 9.47 2.98l.12.04 8.74 16.92-.49.47-8.61-16.67c-5.48-1.89-8.52-2.82-9.23-2.91v-.83"/><path fill="#522108" d="M707.02 606.78c.04.07.13.32.26.76 2.16 7.39 5.25 13.68 9.42 19.19 8.28 10.5 18.73 15.65 32.42 15.62 14.53-.36 25.61-7.18 34.32-20.77 4.23-6.84 6.99-13.43 8.44-20.05l.58.18c-1.48 6.75-4.28 13.45-8.57 20.39-8.83 13.79-20.05 20.71-34.77 21.08-13.85.03-24.43-5.2-32.83-15.86-4.24-5.6-7.38-11.99-9.57-19.5l-.13-.43-.01-.06.44-.55"/><path fill="#522108" d="M797.87 602.36c-2.84 8.89-6.92 17.67-12.35 26.42-11.13 17.52-22.89 25.37-36.42 24.21-13.99-1.51-23.99-5.91-30.86-13.08-3.77-4.17-6.65-9.71-8.83-17.11-1.68-5.93-3-11.33-3.98-16.21l.58-.19c.98 4.85 2.3 10.22 3.97 16.12 2.14 7.25 4.94 12.67 8.63 16.75 6.78 7.06 16.67 11.4 30.54 12.9 13.33 1.13 24.92-6.61 35.92-23.91 5.38-8.68 9.44-17.37 12.24-26.19l.56.29M788.26 560.97c.19-1.04.71-11.86 1.43-32.54l.61-.01c-.73 20.76-1.26 31.65-1.46 32.76l-.58-.21M813.61 574.51l-22.43-48.54.52-.47 22.43 48.53-.52.48M745.56 499.19c.02-.29.1-.41.32-.44.05 0 .11 0 .18.02.09.03.22.09.39.17.3.14.73.37 1.29.69 1.05.61 2.34 1.39 3.86 2.34 3.94 2.5 5.62 3.81 5.78 4.26l19.88 37.15 19.97 36.24v.82c-.26-.15-7.05-11.89-20.46-36.55-13.35-24.59-19.91-37.31-19.99-37.65l-10.61-7.05h-.61M777.46 505.07l10.24 5.65L791 522l-.56.34-3.21-10.98-10.02-5.52.25-.77M714.4 505.45c.07-.01.12-.03.18-.09.08-.08.11-.18.11-.32 0-.07-.01-.13-.04-.19a10.742 10.742 0 0 0 .33.42l1.21 1.43 3.86 4.35 5.75 6.33.09.09 1.47 10.51-.6.15-1.42-10.21-5.67-6.23-3.87-4.36-1.22-1.45c-.15-.19-.26-.33-.33-.43a.789.789 0 0 1-.1-.16.573.573 0 0 1 .05-.59c.07-.05.12-.08.2-.08v.83M674.85 578.02c3.33-1.91 16.69-16.34 40.07-44.86l.41.62c-23.43 28.59-36.84 43.07-40.23 45.01l-.25-.77M665.37 569.1l19.5-22.09 19.92-23 .4.63-19.92 23.02-19.5 22.09-.4-.65"/><path fill="#522108" d="m731.66 532.04 37.26 87.77-.53.44-37.25-87.81.52-.4M764.55 568.26c.74 3.43 1.65 6.98 2.73 10.66 2.24 7.38 4.13 11.31 5.86 12.65 2.89 1.98 6.02 4.55 9.44 7.79l-.36.69c-3.39-3.22-6.5-5.78-9.37-7.73-1.85-1.44-3.83-5.5-6.13-13.07-1.09-3.71-2-7.29-2.75-10.74l.58-.25"/><path fill="#522108" d="M764.06 568.76c.52 4.06 1.21 8.3 2.08 12.72 1.79 8.89 3.52 13.95 5.23 15.9 2.89 2.98 5.79 6.1 8.7 9.38l-.4.65c-2.9-3.27-5.79-6.39-8.67-9.37-1.82-2.06-3.62-7.26-5.45-16.32-.87-4.45-1.56-8.72-2.09-12.8l.6-.16M734.05 567.44c.74 5.67 1.82 11.66 3.25 17.98 2.95 12.67 6.11 20.26 9.64 23.57l15.92 14.13-.34.7-15.91-14.14c-3.65-3.41-6.89-11.15-9.89-24.01-1.44-6.37-2.52-12.39-3.26-18.09l.59-.14"/><path fill="#522108" d="M733.67 566.82c1.57 4.47 3.46 9.29 5.68 14.45 4.49 10.32 8.33 17 11.59 20.45 5.33 5.41 11.55 10.56 18.76 15.44l-.28.75c-7.24-4.91-13.49-10.09-18.85-15.52-3.32-3.52-7.2-10.29-11.74-20.7-2.22-5.18-4.12-10.02-5.71-14.52l.55-.35M703.27 568.09c.75 2.01 1.53 5.64 2.29 11.06.87 6.11 1.79 9.69 2.73 11.27 1.92 2.87 4.35 7.42 7.27 13.73l-.51.43c-2.9-6.26-5.3-10.77-7.19-13.61-1.03-1.7-2-5.42-2.89-11.69-.75-5.34-1.51-8.88-2.22-10.82l.52-.37"/><path fill="#522108" d="M703.99 568.61c.38.9 1.33 3.75 2.82 8.61 2.47 8.1 4.2 13.03 5.13 14.92v.01l.01.02c1.24 2.74 7.93 13.15 20.22 30.84l-.44.56c-12.3-17.7-19.01-28.16-20.29-30.98-.96-1.95-2.7-6.93-5.19-15.07-1.47-4.82-2.41-7.63-2.77-8.49l.51-.42"/><path d="M725.8 624.5c-.13 2.27-1.13 3.67-2.72 3.82-1.58-.21-2.58-1.65-2.71-3.93.13-2.27 1.13-3.66 2.71-3.82 1.59.22 2.59 1.66 2.72 3.93"/><path fill="#522108" d="M725.99 624.5c-.1 2.87-.89 3.98-2.91 4.09-2.01-.19-2.8-1.33-2.9-4.2.03-1.18.29-2.07.85-2.91.62-.81 1.21-1.15 2.05-1.17.85.06 1.44.42 2.06 1.25.56.87.82 1.77.85 2.94m-.39 0c-.09-2.51-.77-3.49-2.52-3.66-.72.02-1.24.31-1.77 1.02-.49.73-.72 1.51-.74 2.53.02 1.03.25 1.82.74 2.58.53.72 1.05 1.04 1.77 1.09 1.75-.1 2.43-1.06 2.52-3.56"/><path d="M739.18 632.88c-.11 1.97-.98 3.2-2.35 3.35-1.37-.16-2.24-1.39-2.35-3.36.11-1.97.98-3.2 2.35-3.35 1.37.16 2.24 1.39 2.35 3.36"/><path fill="#522108" d="M739.38 632.88c-.1 2.51-.79 3.49-2.55 3.62-1.76-.14-2.45-1.12-2.55-3.64.03-1.02.26-1.81.75-2.55.54-.72 1.06-1.02 1.8-1.06.74.04 1.26.35 1.8 1.07.49.75.72 1.53.75 2.56m-.39 0c-.08-2.15-.67-2.98-2.16-3.1-.62.03-1.06.29-1.52.9-.42.64-.61 1.3-.64 2.19.03.88.22 1.55.64 2.19.46.61.9.87 1.52.91 1.49-.11 2.08-.95 2.16-3.09"/><path d="M756.18 634.75c-.11 1.98-.98 3.23-2.35 3.41-1.38-.13-2.24-1.34-2.35-3.31.11-1.97.98-3.22 2.35-3.4 1.38.13 2.24 1.34 2.35 3.3"/><path fill="#522108" d="M756.38 634.75c-.03 1.03-.26 1.82-.75 2.57-.54.74-1.06 1.06-1.8 1.11-1.76-.1-2.45-1.07-2.55-3.58.03-1.03.26-1.82.75-2.57.54-.73 1.06-1.05 1.8-1.1 1.76.1 2.45 1.06 2.55 3.57m-.39.01c-.03-.88-.22-1.55-.64-2.18-.46-.6-.9-.85-1.52-.87-1.49.14-2.08.99-2.16 3.13.03.88.22 1.55.64 2.18.46.61.9.86 1.52.88 1.49-.15 2.08-1 2.16-3.14"/><path d="M771.19 626.25c-.03 1.07-.39 1.93-1.07 2.55-.75.54-1.45.56-2.2.09-.68-.57-1.04-1.39-1.07-2.47.03-1.08.39-1.93 1.07-2.54.75-.54 1.45-.57 2.2-.09.68.56 1.04 1.37 1.07 2.46"/><path fill="#522108" d="M771.39 626.24c-.03.88-.24 1.56-.7 2.23-.5.63-.99.91-1.67.97-.68 0-1.16-.24-1.67-.83-.46-.63-.67-1.29-.69-2.18.02-.89.23-1.56.69-2.23.5-.63.99-.91 1.67-.97 1.64.05 2.28.85 2.37 3.01m-.39.01c-.08-1.78-.61-2.45-1.98-2.49-1.36.15-1.9.87-1.97 2.66.07 1.78.6 2.45 1.97 2.49.57-.05.98-.28 1.4-.81.38-.55.56-1.11.58-1.85"/><path d="M782.59 615.57c-.1 1.98-.84 3.25-1.99 3.48-1.17-.09-1.9-1.28-1.99-3.25.09-1.97.83-3.24 1.99-3.47 1.16.09 1.89 1.27 1.99 3.24"/><path fill="#522108" d="M782.78 615.56c-.08 2.52-.68 3.54-2.18 3.76-.65-.01-1.09-.29-1.56-1-.41-.71-.61-1.49-.63-2.51.08-2.51.68-3.52 2.19-3.74.64 0 1.08.28 1.55.99.41.71.61 1.49.63 2.5m-.39.02c-.06-2.14-.55-2.94-1.79-2.98-1.24.18-1.73 1.05-1.8 3.19.02.89.19 1.56.54 2.18.39.58.74.81 1.26.81 1.23-.18 1.73-1.05 1.79-3.2"/><path fill="#ff0101" d="M712.78 505.62c-1.5.95-18.89 6.17-16.64 6.02 3.14-.02 16.18 5.52 16.64 4.31-.23-1.6-.02-9.26 0-10.33"/><path fill="#522108" d="m712.6 505.28.48-.44v.79l-.04 1.54c-.15 5.03-.11 7.88.02 8.67.07.37-.01.57-.29.72-.13.05-.3.07-.54.05-.38-.03-.95-.14-1.72-.34-.95-.26-2.75-.83-5.4-1.72-5.23-1.77-8.1-2.52-8.93-2.5-.2.03-.32.02-.4-.02a.402.402 0 0 1-.17-.26.52.52 0 0 1 .04-.37c.03-.06.06-.1.11-.14.04-.02.08-.05.15-.08.18-.08.56-.22 1.14-.42l4.69-1.55c6.9-2.27 10.43-3.65 10.86-3.93m-.14.96c-1.28.58-4.78 1.88-10.56 3.78l-4.27 1.4c1.54.36 4.07 1.13 7.61 2.32 2.64.9 4.43 1.46 5.37 1.72.74.2 1.28.3 1.63.33l.25.28c-.15-.88-.21-3.82-.06-8.96l.03-.87"/><path fill="#ff0101" d="M743.52 498.29c-3.3.98-8.42 3.35-10.85 5.67 1.01.3 11.11 4.2 11.58 3.63-.23-1.06-.47-7.73-.73-9.3"/><path fill="#522108" d="M743.52 497.88v.41l.29-.12c.11.55.24 2.14.37 4.82.12 2.65.26 4.1.34 4.42.09.29.05.46-.14.64-.08.06-.17.09-.3.1-.16.01-.39-.02-.71-.08-.54-.12-1.33-.34-2.37-.68-1.26-.41-3.25-1.12-5.99-2.15-1.52-.57-2.3-.85-2.34-.86-.18-.02-.26-.11-.3-.34-.03-.17 0-.29.1-.41.03-.03.06-.06.11-.1.06-.04.16-.1.3-.19l1.12-.64 3.58-1.94c2.91-1.54 4.76-2.45 5.55-2.77l-.02-.11h.41m-.22.93-10.63 4.74c.1.02.92.3 2.5.89 2.73 1.03 4.72 1.73 5.97 2.15 1.03.33 1.8.55 2.32.66.17.04.31.06.42.07-.1-.72-.2-2.14-.3-4.28-.1-2.11-.2-3.52-.28-4.23"/><path fill="#ff0101" d="M774.99 502.6c-1.41.78-12.25 4.68-10.85 5.62 2.65.71 9.88 3.79 10.49 3.18 0-1.12.18-8.15.36-8.8"/><path fill="#522108" d="m774.85 502.24.36.64c-.11.33-.27 3.06-.28 8.51-.01.32-.12.48-.39.57-.12.04-.28.04-.49.02-.33-.04-.81-.15-1.45-.34-.78-.25-2.17-.74-4.18-1.5-2.35-.89-3.79-1.38-4.33-1.51a.677.677 0 0 1-.32-.14c-.16-.14-.21-.3-.18-.55.05-.23.18-.42.46-.65.37-.27 1-.63 1.94-1.1 1.13-.54 3.09-1.41 5.89-2.61 1.86-.8 2.84-1.25 2.97-1.34m-.29 1.02-2.51 1.11c-2.8 1.2-4.75 2.06-5.87 2.6-.77.38-1.32.69-1.68.92.71.21 2.07.69 4.1 1.46 2 .75 3.38 1.24 4.15 1.48.61.18 1.06.29 1.37.33.08.01.15.01.21.01.01-3.96.1-6.59.23-7.91"/><path fill="#be1017" d="M736.91 541.39c1.11.19 1.79 1.24 1.84 2.85-.14 1.61-.87 2.57-2 2.63-1.11-.19-1.79-1.24-1.84-2.86.14-1.6.87-2.56 2-2.62"/><path fill="#522108" d="M736.92 540.97c.64.07 1.08.36 1.54 1.01.4.68.59 1.38.58 2.28-.14 2.19-.76 3.01-2.3 3.03-1.53-.2-2.1-1.1-2.12-3.3.04-.89.26-1.57.71-2.19.49-.6.95-.84 1.59-.83m-.03.84c-.47-.01-.8.17-1.16.61-.33.46-.49.95-.52 1.61 0 .66.13 1.17.43 1.67.33.48.66.7 1.13.75 1.12-.02 1.58-.62 1.68-2.22-.01-1.62-.44-2.27-1.56-2.42"/><path fill="#be1017" d="M749.93 536.55c1.11.18 1.79 1.21 1.84 2.82-.14 1.61-.87 2.59-1.99 2.67-1.12-.18-1.8-1.22-1.85-2.83.14-1.61.87-2.58 2-2.66"/><path fill="#522108" d="M749.94 536.13c.64.06 1.08.34 1.54.99.41.67.59 1.37.58 2.27-.14 2.19-.76 3.02-2.3 3.07-1.52-.18-2.1-1.06-2.12-3.26.05-.9.27-1.58.71-2.21.49-.61.95-.86 1.59-.86m-.02.84c-.47.01-.81.19-1.17.63-.33.47-.49.96-.52 1.62.01 1.62.44 2.26 1.56 2.4 1.12-.04 1.58-.65 1.69-2.26 0-.66-.14-1.17-.44-1.66-.33-.47-.66-.68-1.12-.73"/><path fill="#be1017" d="M743.42 546.47c1.11.19 1.79 1.23 1.84 2.84-.14 1.61-.87 2.57-2 2.65-1.11-.19-1.79-1.24-1.84-2.85.14-1.6.87-2.57 2-2.64"/><path fill="#522108" d="M743.43 546.05c.64.06 1.08.35 1.54 1 .41.68.59 1.37.58 2.27-.04.9-.26 1.58-.71 2.21-.49.61-.95.85-1.59.85-1.52-.2-2.1-1.09-2.12-3.28.04-.9.26-1.58.71-2.21.49-.6.95-.84 1.59-.84m-.02.84c-1.13.03-1.59.63-1.69 2.24 0 .66.13 1.17.43 1.66.33.48.66.7 1.13.74 1.12-.02 1.58-.63 1.68-2.24-.01-1.61-.43-2.26-1.55-2.4"/><path fill="#be1017" d="M743.42 531.52c1.11.19 1.79 1.23 1.84 2.84-.14 1.61-.87 2.58-2 2.65-1.11-.19-1.79-1.23-1.84-2.84.14-1.61.87-2.57 2-2.65"/><path fill="#522108" d="M743.43 531.1c1.53.2 2.1 1.08 2.12 3.28-.04.9-.26 1.57-.71 2.2-.49.61-.95.85-1.59.85-1.52-.19-2.1-1.08-2.12-3.28.04-.9.26-1.57.71-2.2.49-.61.95-.85 1.59-.85m-.02.85c-.48 0-.81.17-1.17.62-.33.46-.49.95-.52 1.61 0 .66.13 1.17.43 1.67.33.48.66.69 1.13.74 1.12-.03 1.58-.63 1.68-2.24.01-.66-.13-1.17-.43-1.67-.33-.47-.66-.69-1.12-.73"/><path fill="#be1017" d="M743.42 539c1.11.18 1.79 1.22 1.84 2.84-.14 1.6-.87 2.57-2 2.64-1.11-.18-1.79-1.23-1.84-2.84.14-1.61.87-2.57 2-2.64"/><path fill="#522108" d="M743.43 538.57c.64.07 1.08.36 1.54 1.01.41.67.59 1.37.58 2.27-.14 2.19-.76 3.02-2.3 3.06-.64-.07-1.08-.36-1.54-1.01-.4-.68-.59-1.38-.58-2.28.04-.9.26-1.57.71-2.2.49-.6.95-.85 1.59-.85m-.02.85c-1.13.03-1.59.63-1.69 2.24.01 1.61.44 2.26 1.56 2.4 1.12-.03 1.58-.63 1.68-2.24.01-.66-.13-1.17-.43-1.66-.33-.48-.66-.69-1.12-.74"/><path fill="#1A1A1A" opacity=".2" d="M8 195.25c170.83-85.22 341.03-54.42 513.26-27.97 155.21 23.84 312.16 44.57 470.74-34.53v672c-170.83 85.22-341.03 54.42-513.26 27.97C323.53 808.88 166.58 788.15 8 867.25v-672m31.25 19.39v604.5c306.56-128.26 611.18 96.04 921.5-33.78v-604.5c-306.56 128.26-611.18-96.04-921.5 33.78"/></svg>