<svg xmlns="http://www.w3.org/2000/svg" viewBox="0 0 1000 1000"><path fill="#00785E" d="M8 195.25c170.83-85.22 341.03-54.42 513.26-27.97 155.21 23.84 312.16 44.57 470.74-34.53v672c-170.83 85.22-341.03 54.42-513.26 27.97C323.53 808.88 166.58 788.15 8 867.25v-672"/><path fill="#FBD116" d="m500 290.7-21.18 63.52 55.46-32.73-68.56-10.54 55.46 49.82L500 290.7"/><path fill="#FFF" d="M500 628.28c-46.21-7.16-92.44-14.35-140.05-19.21l-5.2-6.12c47.93 4.7 95.86 12.08 145.25 19.73 1.15.68 1.81 1.68 1.95 2.95-.03 1.38-.68 2.27-1.95 2.65m0-43.88c.85-1.71 2.22-5.15 1.68-10.31a22.2 22.2 0 0 0-1.68-5.59c-7.97 6.45-22.56 16.14-44.41 19.78-10.21 1.59-20.91 1.71-32.12.2-28.48-3.95-56.95-7.42-86.28-9.87 2.55 4.04 5.21 8 7.99 11.89 27.53 2.49 55.05 5.9 83.41 9.9 27.36 3.73 51.92-2.32 71.41-16m-149.78-54.73c-4.2 1.21-8.56 1.82-13.25 1.77 20.47 25.22 49.91 43.11 83.08 47.82 31.6 4.2 59.54-4.59 79.95-23.01 3.41-23.67 5.89-50.96 6.21-81.51.32-35.57-2.37-67.85-6.21-95.7-9.1 6.99-25.7 22.12-33.86 48.37-2.94 9.86-4.53 20.4-4.58 31.69.1 23.45 6.91 45.97 18.71 65.97-14.5-21.58-23.03-46.68-23.15-72.94.08-17.43 3.85-33.15 10.62-46.94-4.69-5.89-8.18-12.5-10.29-19.73-9.1 15.26-14.25 33.35-14.34 53.75.11 25.37 8.08 49.62 21.7 70.69-23.92-29.11-57.1-49.83-94.3-54.06-2-.22-3.98-.38-5.95-.5 3.72 4.02 6.8 8.5 9.23 13.46 37 4.35 70.01 24.98 93.87 53.91-22.78-22.81-51.63-38.65-83.48-42.57-17.83-2.03-34.57-.11-50.09 5.19 16.03 44.1 56.2 78.51 103.73 85.59 3.07.43 6.11.73 9.12.93-6.41.21-12.97-.13-19.71-1.04-30.01-4.36-56.91-19.52-77.01-41.14M500 674.12l-72.58-10.89c22.53 12.28 46.91 21.03 72.58 25.07.63-1.18 1.57-3.35 1.71-6.67-.08-3.5-1.08-6.12-1.71-7.51m0-34.3c-42.23-6.53-84.46-13.09-127.96-17.92 3.47 3.42 7.02 6.74 10.68 9.97 38.7 4.57 77.4 10.53 117.28 16.7.37-.34 1.59-1.56 1.74-4.1a8.258 8.258 0 0 0-1.74-4.65m0 17.5-104.82-15.18a260.78 260.78 0 0 0 19.75 13.77L500 668.52c.53-.8 1.54-2.61 1.58-5.62-.16-2.68-1.06-4.63-1.58-5.58"/><path fill="#FBD116" d="m362.3 375.15-20.04 42.13 41.48-19.27-47.08-10.7 34.69 36.51-9.05-48.67M396.62 320.46l13.87 48.27 15.45-43.85-38.86 22.8 47.44 7.14-37.9-34.36"/><path fill="#FFF" d="M500 628.28c46.21 7.15 92.44 14.34 140.05 19.2 1.76-1.66 3.5-3.35 5.2-5.08-47.93-4.7-95.86-12.08-145.25-19.72-1.17.32-1.81 1.1-1.95 2.34.03 1.37.7 2.5 1.95 3.26m0-43.88c-.84-1.96-2.21-5.89-1.68-10.83.38-2.2 1.04-3.84 1.68-5.07 7.93 8.87 22.62 23.22 44.41 33.37 10.22 4.65 20.92 7.89 32.12 9.5 28.48 3.95 56.95 7.42 86.28 9.87-2.55 3.61-5.21 7.11-7.99 10.5-27.53-2.48-55.05-5.9-83.41-9.89-27.3-3.98-51.96-17.78-71.41-37.45m149.78-14.41c4.21 2 8.57 3.39 13.25 4.12-20.59 21.93-49.79 33.39-83.08 28.98-31.52-4.49-59.6-22.17-79.95-46.84-3.41-24.73-5.89-52.79-6.21-83.43-.32-35.68 2.37-67.13 6.21-93.78 9.07 9.77 25.72 30.13 33.86 58.78 2.94 10.76 4.53 21.8 4.58 33.08-.1 23.46-6.91 43.88-18.71 60.27 14.51-17.14 23.03-39.64 23.15-65.9-.07-17.43-3.85-34.31-10.62-50.15 4.7-4.49 8.17-9.98 10.29-16.62 9.1 17.98 14.25 37.6 14.34 57.99-.11 25.38-8.07 47.27-21.7 64.23 23.98-21.92 57.03-32.65 94.3-28.71 1.99.23 3.98.49 5.95.78a41.544 41.544 0 0 0-9.23 11.46c-37.07-3.95-69.95 6.67-93.87 28.41 22.81-15.91 51.57-23.12 83.48-19.45 17.79 2.17 34.6 7.46 50.09 15.26-16.19 41.93-56.04 67.92-103.73 61.27-3.07-.46-6.11-1.04-9.12-1.73 6.42 2.1 12.98 3.66 19.71 4.63 30.11 4.08 56.82-4.75 77.01-22.65M500 674.12l72.58 10.9c-22.55 5.94-46.87 7.19-72.58 3.28-.63-1.36-1.57-3.87-1.71-7.2.08-3.51 1.07-5.78 1.71-6.98m0-34.3c42.23 6.54 84.46 13.1 127.96 17.93-3.47 2.65-7.02 5.15-10.68 7.53-38.7-4.57-77.4-10.53-117.28-16.71-.35-.43-1.6-2.1-1.74-4.64.15-2.54 1.37-3.76 1.74-4.11m0 17.5 104.82 15.19a162.31 162.31 0 0 1-19.75 8.63L500 668.52a13.15 13.15 0 0 1-1.58-6.11c.16-2.66 1.06-4.29 1.58-5.09"/><path fill="#FBD116" d="m637.7 413.08 20.04 45.96-41.48-27.87c15.54-.12 31.07-.46 47.08-1.14l-34.69 29.78 9.05-46.73M603.38 350.48l-13.87 44.67-15.45-48.07 38.86 32.96-47.44-5.45 37.9-24.11"/><path fill="#1A1A1A" opacity=".2" d="M8 195.25c170.83-85.22 341.03-54.42 513.26-27.97 155.21 23.84 312.16 44.57 470.74-34.53v672c-170.83 85.22-341.03 54.42-513.26 27.97C323.53 808.88 166.58 788.15 8 867.25v-672m31.25 19.39v604.5c306.56-128.26 611.18 96.04 921.5-33.78v-604.5c-306.56 128.26-611.18-96.04-921.5 33.78"/></svg>