<svg xmlns="http://www.w3.org/2000/svg" viewBox="0 0 128 128" style="enable-background:new 0 0 128 128" xml:space="preserve"><path style="fill:#ffb300" d="M121.54 95.58c-1.52-.9-3.97-1.22-6.43-1.19-3.01.04-10.67 1.46-10.67 1.46 1.54-1.58 8.64-2.3 9.33-4 .41-1.03-.81-5.5-7.32-5.39-8.37.14-14.3 3.46-14.3 3.46s4.06-3.56 4.65-4.27c1.48-1.76-.54-4.75-5.64-3.9-3.57.6-7.52 2.95-12.85 6.62-4.26 2.93-13.78 6.45-21.18 5.15 4 .71 29.24 10.01 29.24 10.01 8.43-.09 18.18.01 25.73 1.36l8.15-2.36c4.77-1.32 4.62-4.96 1.29-6.95zm-67.78-2.7h.01-.01zm.98 0z"/><path style="fill:#ffca28" d="M115.68 105.69c-9.95-4.12-26.79-1.15-33.1-4-8.75-3.95-16.81-6.3-21.59-7.85-4.78-1.55-14.3-2.69-16.2-4.82 1.05-4.35 4.78-9.05 7.25-11.61 5.33-5.51 8.7-9.43 8.29-14.08-.38-4.38-4.44-7.02-7.84-3.78-1.94 1.85-7.98 8.72-21.09 14.65-3.47 1.57-6.66 3.91-10.79 7.71-7.1 6.54-12.98 6.95-12.98 6.95s-.71.58-1.1 1.62C5.6 92.97 4 98.4 4 106.45c0 7.03 1.22 11.68 2.15 14.22.58 1.58 1.2 2.37 1.2 2.37s4.58 1.07 13.51.69c9.43-.4 26.64-1.21 40.57-4.81 17.86-4.61 42.91-2.47 54.06-1.43 1.58.15 4.43.53 5.8-.68 1.16-1.02.83-2.56.86-3.6.08-2.65-3.12-5.46-6.47-7.52z"/><path style="fill:#eda600" d="M119.03 116c-17.3-4.36-42.51-3.73-58.35.01-17.83 4.73-43.79 5.46-54.73 4.08.18 8.34 44.84 1.28 55.48-1.17 15.05-4.16 40.55-2.86 54.06-1.43 1.95.12 5.58.81 6.41-1.66-.78.62-1.92.36-2.87.17zM45.05 89.26s.05-1.3 1.02-3.27c1.08-2.19 3.62-6.15 5.98-8.59 5.33-5.51 8.73-9.43 8.29-14.08-.27-2.86-1.89-4.24-1.91-3.98-.02.26.33.96.44 2.32.09 1.2.33 2.57-2.02 6.21-1.34 2.08-3.58 4.24-6.89 7.53-3.77 3.75-5.21 5.97-5.9 8.99-.73 3.22.3 4.34.99 4.87zm8.71 3.62zm0 0s.01 0 0 0c.01 0 .01 0 0 0zm.98 0zm0 0zm31.63 10.66c8.4-.09 18.75-.14 26.29 1.2 1.82-.53 7.59-2.2 7.59-2.2 2.65-.74 3.78-2.19 3.69-3.67 0-.01 0-.01-.01-.02 0 0-10.13 3.09-15.41 2.75-6.38-.42-11.81-.42-14.65-.28-1.88.09-6.98.28-4.83-.71 4.36-2.2 11.68-4.01 15.46-4.79 1.63-1.55 8.48-2.32 9.27-3.95.17-.35.03-.9.02-.93-1.71.86-6.67 1.08-10.97 2.34-3.3.97-8.51 2.93-12.28 4.57-3.34 1.46-7.28 1.98-9.57.84-1.23-.61-1.01-2.28.84-3.4 2.78-1.68 6.95-4.05 10.45-5.44.63-.55 4-3.53 4.55-4.17.6-.71.67-2.09-.17-2.67 0 0-.21 1.71-5.47 4.41-3.58 1.84-7.12 3.3-12.33 6.98-2.77 1.96-5.4 1.67-9.64.52-2.79-.76-5.05-.85-7.45-1.14-.23.01-.47.02-.7.02 6.02 1.73 25.32 9.74 25.32 9.74z"/></svg>