<svg xmlns="http://www.w3.org/2000/svg" viewBox="0 0 128 128" style="enable-background:new 0 0 128 128" xml:space="preserve"><path style="fill:#a15d38" d="M92.25 43.43s3.5-9.84 6.82-13.94 7.73-7.48 12.86-8.73c-3.54-4.08-13.67-6.2-20.92 1.56-7.25 7.76-9.39 19.31-9.39 19.31l10.63 1.8z"/><path style="fill:#f7a54b" d="M104.07 15.02s11.9 1.27 16.29 8.73c2.9 4.93 4.62 15.72.85 28.42-3.65 12.31-1.91 2.69-1.91 2.69l-9.4-5.22s5.17-19.69 1.92-26.41c-3.56-7.38-10.54-6.8-10.54-6.8l2.79-1.41z"/><path style="fill:#a15d38" d="M19.96 35.4c-1-13.92 3.34-14.59 5.58-16.65-5.21-3.06-11.09-1.19-13.63.81C6.33 23.95 11 46.4 11 46.4l10.1-4.13c-.01 0-.99-4.74-1.14-6.87z"/><path style="fill:#894f36" d="m15.84 51.28-9.17-1.11 10 55.76c0 9.98 20.95 18.06 46.79 18.06s46.79-8.09 46.79-18.06l9.05-55.38-103.46.73z"/><path style="fill:#e39744" d="m34.73 67.23 2.67 52.81c.01.79-.75 1.35-1.5 1.12l-2.68-.8a1.51 1.51 0 0 1-1.07-1.4l-4.02-52.67 6.6.94zm24.22 2.59 1.92 53.63c.01.6.5 1.09 1.1 1.09l3.76.05c.6 0 1.08-.49 1.09-1.09l-.19-53.69h-7.68z"/><path style="fill:#ce843a" d="m90.13 120.07.65-51.51 7.3-1.33-2.88 51.97c-.02.42-.3.78-.71.9l-3.08.94c-.64.19-1.28-.3-1.28-.97zM13.4 63.47l7.64 50.2c.07.48.34.9.74 1.16l2.16 1.41a.738.738 0 0 0 1.14-.68L20.5 65.34l-7.1-1.87z"/><path style="fill:#e39744" d="m51.79 69.82.31 53.21c-.02.41-.39.72-.8.67l-4.14-.42a.7.7 0 0 1-.6-.69l-2.27-52.77h7.5z"/><path style="fill:#ce843a" d="m75.41 68.56 1.3 54.32c.01.51.45.89.95.82l4.07-.55c.41-.05.71-.4.73-.81l.47-55.12-7.52 1.34zm31.29-2.67-5.43 50.25c-.06.53.75.53 1.21.26l1.75-1.05c.22-.13.37-.35.41-.61L112.32 64l-5.62 1.89z"/><path style="fill:#ffba5f" d="M28.9 74.3c.03.59-.57 1-1.11 1.01-2.25.06-5.41.01-10.93-1.83-3.13-1.04-5.08-2.21-6.25-3.34-1.07-1.03-1.36-2.35-1.39-2.92-.03-.71-.34-4.07-.31-5.42l19.7 7.35c.08 1.77.29 5.15.29 5.15zm30.36 4.08c0 .59-.71 1.21-1.27 1.41-1.73.64-6.23 1.59-11.99.99-5.26-.55-7.97-1.92-9.73-3.02-.56-.35-.95-.97-.98-1.56l-.2-4.46 24.14 2.59c.02 1.79.02 2.27.03 4.05zm31.32-2.42c-.03.59-.41 1.21-.98 1.56-1.76 1.11-3.88 2.43-9.12 3.17-5.24.73-11.23.04-12.96-.58-.55-.2-1.25-.91-1.25-1.51.01-1.79.07-2.62.08-4.41l24.41-2.69c.02 0-.1 2.68-.18 4.46zm26.89-11.73c-.04.99-.11 1.98-.22 2.96-.05.47-.13.98-.46 1.31-.45.44-3.49 3.09-7.59 4.56-5.32 1.91-8.83 2.48-10.52 2.33-.54-.05-1.03-.48-1-1.07.08-1.43.11-2.37.18-3.57l19.61-6.52z"/><path style="fill:#ffd58a" d="M60.01 99.47c.03.59-.39 1.15-.96 1.37-1.78.71-6.48 1.83-11.97 1.34-5.5-.49-7.81-2.12-9.69-3.15-.6-.33-1.12-1.03-1.17-1.62l-.26-4.83c-.08-.92.64-1.23 1.63-.86 2.18.81 4.1 1.85 8.95 2.27 4.85.42 9.17.09 11.28-.36.96-.2 1.99.53 2.04 1.45l.15 4.39z"/><path style="fill:#ffba5f" d="M90.4 96.88c-.03.59-.41 1.57-1.5 2.27-1.81 1.17-4.22 2.26-9.69 2.99-5.47.74-10.15-.26-11.95-.88-.58-.2-.96-.72-.95-1.31.01-1.79.01-2.68.02-4.46 0-.92.92-1.64 1.88-1.48 2.13.35 6.39.57 11.22-.07 4.83-.64 7.04-1.72 9.18-2.63.97-.41 1.85.06 1.8.98l-.01 4.59zM114 86.43c-.27 2.26-.5 3.38-1.29 4.08 0 0-1.72 2-5.53 3.41-2.91 1.08-8.84 2.48-9.89 2.15-.46-.15-.78-.46-.75-1.05.09-1.78.13-2.67.22-4.46.05-.92.86-1.87 1.67-1.96 1.93-.22 7.32-1.8 8.75-2.47 3.06-1.44 5.84-3.32 5.84-3.32.52-.35.88-.16.98.14.28.84.12 2.49 0 3.48z"/><path style="fill:#ffd58a" d="M60.73 120.32c0 .59-.45 1.37-1.57 1.46 0 0-4.61.74-10.68.09-5.54-.59-9.97-2.79-9.97-2.79-.84-.48-1.24-1.12-1.27-1.71l-.19-4.72c-.04-.92.69-1.37 1.62-.96 2.06.9 5.17 1.99 9.8 2.48 5.38.57 8.42.4 9.83.38 1.41-.02 2.2.31 2.24 1.39l.19 4.38z"/><path style="fill:#ffba5f" d="M90.16 117.28c-.03.59-.45 1.17-1.01 1.53-1.76 1.11-4.8 2.64-10.03 3.38-5.23.74-9.86 0-11.59-.63-.55-.2-.91-.72-.91-1.31.01-1.79.01-2.68.02-4.46 0-.92.88-1.64 1.8-1.48 2.03.35 6.28.31 10.89-.33s7.02-1.64 9.07-2.55c.93-.41 1.85.05 1.81.97l-.05 4.88zm19.87-14.38c.52-.27 1.01.05.99.74-.04 1.62-.3 3.78-1.99 5.68-.79.89-5.95 6.02-12.82 6.51-.81.06-.75-1.31-.75-1.31l.21-3.74c.05-.92.68-1.75 1.75-1.96.99-.2 3.85-.92 7.34-2.59 1.67-.81 3.01-2.13 5.27-3.33z"/><path style="fill:#ffd58a" d="M45.2 87.94c.05.59-.36 1.23-1.17 1.43-1.68.41-6.85.35-12.07-.79s-8.85-4.03-8.85-4.03c-.58-.4-.92-.97-1-1.55l-.45-4.94c-.1-1.09.96-.87 1.9-.38 2.09 1.06 2.93 1.76 7.53 2.74 4.6.99 10.19 1.69 12.17 1.5.9-.09 1.71.35 1.82 1.51l.12 4.51zm30.77.85c0 .75-.87 1.25-1.46 1.53-1.84.87-5.72 2.09-11.25 2.09-5.52 0-8.48-1.14-10.08-1.95-.58-.29-1.28-1.04-1.28-1.72l-.04-4.86c-.02-.92 1.04-1.13 2.02-.85 2.16.63 4.51 1.18 9.38 1.18 4.87 0 7.91-.98 10.13-1.3 2.21-.32 2.48.59 2.47 1.51l.11 4.37z"/><path style="fill:#ffba5f" d="M104.93 82.32s-.12 1.13-1.1 1.9c-1.73 1.36-4.15 2.68-8.69 3.82-5.18 1.31-9.52 1.4-11.2 1-.54-.13-1.02-.59-1-1.18.05-1.78.15-4.53.15-4.53.03-.92 1.02-1.68 1.92-1.64 1.99.08 6.08-.33 10.53-1.84 4.02-1.37 6.37-2.52 8.39-3.7.92-.53 1.64-.04 1.58.88l-.58 5.29zm11.04-9.92c0 1.65-.36 5.1-.96 6.27-.42.81-1.04 1.07-1.84 1.44-.7.33-3.22 1.53-3.09-.17l.74-4.73c.11-1.39.77-1.83 1.93-2.29.59-.23 1.21-.4 1.78-.7 1.56-.81 1.44.06 1.44.18z"/><path style="fill:#ffd58a" d="M46 108.68c.04 1.09-1.45 1.53-2.34 1.62-2.14.21-7.01-.21-11.65-1.76-4.01-1.34-6.8-3.19-7.25-3.73-.45-.54-.78-1.19-.83-1.78l-.46-4.23c-.09-.99.69-1.54 1.6-1.09 2.05 1 4.34 2.37 8.59 3.65 4.44 1.34 8.34 1.73 10.21 1.67 1.5-.05 1.93.53 1.97 1.45.09 1.8.08 2.42.16 4.2zm30.33 1.03c0 .74-.53 1.19-1.16 1.47-1.97.87-5.8 2.27-11.7 2.27-5.3 0-8.52-1.22-10.21-1.92-.64-.26-1.24-.76-1.25-1.35v-4.99c-.02-.92 1.05-1.32 2.09-1.04 2.31.63 4.31 1.19 9.37 1.1 5.2-.09 8.57-.6 10.88-1.2 1.3-.34 2.01.31 1.99 1.23l-.01 4.43z"/><path style="fill:#ffba5f" d="M102.72 102.47c-.04.59-.22 1.47-.72 1.9 0 0-2.97 2.96-8.18 4.44-4.66 1.32-8.79 1.43-10.3 1.04-.48-.13-.79-.59-.78-1.18.05-1.78.07-2.68.12-4.46.02-.92.81-1.75 1.62-1.72 1.79.08 5.62-.63 9.7-1.88 4.08-1.25 5.71-2.76 7.54-3.95.83-.54 1.61-.23 1.53.83l-.53 4.98zm9.26-9.01c.54-.12.78.21.78.61 0 1.99-.34 3.85-.97 5.48-.36.92-3.37 2.86-4.31 2.87-.69 0-.81-.34-.77-.93l.75-4.82c.07-.92.55-1.59 1.4-1.84.86-.24 2.72-1.28 3.12-1.37zm-99.21-5.29s.13 1.39.98 2.19c.98.92 2.06 1.72 3.23 2.39 3.82 2.23 7.17 3.18 11.53 3.66.09.01 1.8-.35 1.77-.94-.09-1.78-.13-2.67-.22-4.46-.05-.92-.86-1.87-1.67-1.96-3.19-.36-6.05-1.42-8.96-2.73a31.46 31.46 0 0 1-3.54-1.87c-.6-.37-1.19-.76-1.76-1.18-.45-.33-1.32-1.29-1.61-1.18-.29.12-.38.13-.38.9 0 1.39.63 5.18.63 5.18zm3.52 14.92c-.52-.27-.65.52-.52 1.09.35 1.59.52 3.69 1.72 5.44 1.79 2.63 10.23 6.99 12.87 6.74.58-.05 1.19-.71 1.04-1.44l-.21-4.2c-.05-.92-.98-1.59-2.08-1.88-1.45-.37-5.86-2.05-12.82-5.75zm-5.88-29.33c0 1.7.28 4.42.94 5.47.55.88 2.48 2.11 3.78 2.22.52.04 1.16-.32 1.14-.91 0 0-.45-3.06-.64-4.26-.19-1.2-.33-1.77-1.35-2.06-1.44-.4-2.43-1.36-2.93-1.56-.69-.26-.94.19-.94 1.1zm4.08 19.49c-.19-.14-.47.04-.5.28-.18 2.03.23 4.08.7 6.07.25 1.05 1.03 1.68 1.91 2.12.77.39 1.44.55 1.87.52.42-.03.91-.28.77-.99l-.64-4.35s-.04-1.72-1.33-2.08c-1.06-.3-1.83-.85-2.78-1.57z"/><path style="fill:#f7a54b" d="M5.9 60.13 3.46 49.39h120l-2.44 10.74c0 7.53-25.77 13.63-57.56 13.63S5.9 67.66 5.9 60.13z"/><ellipse style="fill:#ffcc80" cx="63.46" cy="49.39" rx="60" ry="11.92"/><ellipse style="fill:#784d30" cx="63.46" cy="47.68" rx="49.46" ry="7.68"/><path style="fill:#d68b52" d="M63.46 39.99C36.15 39.99 14 43.43 14 47.68c0 1.48 2.71 2.86 7.39 4.04 8.07-2.4 23.89-4.04 42.07-4.04 18.19 0 34 1.63 42.07 4.04 4.68-1.17 7.39-2.56 7.39-4.04 0-4.25-22.14-7.69-49.46-7.69z"/><path style="fill:#894f36" d="M63.46 72.7c-22.56 0-47.68-4.21-57.28-11.22 0 0 .48 2.62 3.34 4.27 6.25 3.61 17.61 6.75 33.63 8.21.33 1.12 1.63 3.32 6.74 3.32 4.67 0 6.58-1.39 7.37-2.52 2.02.05 4.08.08 6.21.08 25.58 0 44.97-4.12 53.91-8.86 0 0 1.06-.62 1.73-1.51s1.25-2.24 1.25-2.24c-3.16 2.76-23.51 10.47-56.9 10.47z"/><path style="fill:#ffcc80" d="M58.03 72.78s.67 2.55-10.72 2.44c-3.84-.04-5.89-1.18-6.98-4.22-6.15-17.13-11.02-34.77-13.77-41.06-5.12-11.72-15.39-11.51-15.39-11.51 1.28-1.13 5.06-2.33 6.36-2.46 4.74-.48 11.36-1.51 17.07 2.78 8.05 6.05 20.3 52.11 20.57 52.75.28.64 2.38.75 2.86 1.28z"/><path style="fill:#f7a54b" d="m11.54 43.41-3.03 1.25c-.95-5.13-3.24-20.26 1.74-25.42 3.97-4.11 9.98-.75 12.66 3.03 1.64 2.32 3.65 7.68 3.65 7.68s-3.46-7.3-9.41-9.25c-2.15-.7-4.08.22-4.6.77-3.09 3.2-2.35 14.36-1.01 21.94z"/><path style="fill:#ffd58a" d="M80.41 97.76c.07 1.02.43 3.97-1.21 4.39-.77.2-7.31.97-11.95-.81-.57-.22-.96-.72-.95-1.31.01-1.79.01-2.68.02-4.46 0-.92.75-1.78 1.72-1.62 1.59.26 3.84.3 5.45.33 1.56.03 2.63-.07 5.18-.26 1.25-.1 1.65 2.38 1.74 3.74zm-.39 20.48c.16 2.36-.3 3.68-1.71 4.08-.92.26-8.3.5-10.78-.75-.52-.26-.91-.72-.91-1.31.01-1.79.01-2.68.02-4.46 0-.92.87-1.56 1.8-1.48 2.06.18 3.76.16 5.51.12 1.71-.04 3.78-.25 3.78-.25 1.37-.17 2.12 1.56 2.29 4.05zM17.8 87.72c-.12 1.77.06 3.33.26 4.4.18.98.85 1.79 1.77 2.16.79.32 1.8.7 2.7.96 2.12.59 3.68.96 6.01 1.15.83.07 1.89-.23 1.89-1.11l-.29-4.27c-.05-.92-.6-1.77-1.6-1.92-3.01-.45-5.88-1.56-8.73-2.47-1.29-.41-1.95.14-2.01 1.1zm3.96 19.59c.01 1.45.23 2.79.61 4.32.53 2.16 1.72 2.75 3.63 3.55 1.52.64 3.66 1.51 5.12 1.35.57-.07.9-.59.75-1.31l-.21-4.2c-.05-.92-.35-1.56-1.75-1.96-3.19-.92-6.12-2.23-7.37-2.78-.43-.2-.78.44-.78 1.03z"/><path style="fill:none;stroke:#ffcc80;stroke-width:3.0272;stroke-miterlimit:10" d="M82.01 39.28c0-.21 6.31-22.05 19.26-22.85 18.03-1.13 10.66 27.44 10.66 27.44"/></svg>