<svg xmlns="http://www.w3.org/2000/svg" viewBox="0 0 128 128" style="enable-background:new 0 0 128 128" xml:space="preserve"><path style="fill:#fff" d="M4 4h120v120H4z"/><path style="fill:none;stroke:#b0bec5;stroke-width:2;stroke-miterlimit:10" d="M124 24.35H5.57M124 43.67H5.47M124 62.99H5.36M124 82.31H5.26M124 101.64H5.15"/><path style="fill:#9ccc65" d="M38.72 121.91H21.89V55.38c0-1.36 1.1-2.46 2.46-2.46h11.91c1.36 0 2.46 1.1 2.46 2.46v66.53z"/><path style="fill:#f44336" d="M72.42 121.91H55.58V74.84c0-1.36 1.1-2.46 2.46-2.46h11.91c1.36 0 2.46 1.1 2.46 2.46v47.07z"/><path style="fill:#0091ea" d="M103.64 121.91H91.73c-1.36 0-2.46-1.1-2.46-2.46V25.86c0-1.36 1.1-2.46 2.46-2.46h11.91c1.36 0 2.46 1.1 2.46 2.46v93.59c0 1.36-1.1 2.46-2.46 2.46z"/><path style="fill:#b0bec5" d="M124 120H8V4H4v120h120z"/><path style="fill:#b0bec5" d="M122 6v116H6V6h116m2-2H4v120h120V4z"/></svg>