<svg xmlns="http://www.w3.org/2000/svg" viewBox="0 0 128 128" style="enable-background:new 0 0 128 128" xml:space="preserve"><path style="fill:#4a2f27" d="M63.82 82.52c1.35-3.88 2.35-17.89-13.01-24.39-13.92-5.89-31.76 2.97-33.75 5.03-3.4 3.54-5.94 33.34-5.94 33.34a46.1 46.1 0 0 0-.19 6.75c.09 1.93.38 4.05 1.83 5.34.9.8 2.12 1.14 3.32 1.2 3.03.16 5.88-1.31 8.42-2.98 2.5 4.36 4.84 8.43 5.43 9.34 1.37 2.15 2.87 3.41 4.39 3.61 3.14.4 8.2-.82 8.49-7.2.21-4.65-2.57-9.17-2.57-9.17 2.84-.39 10.63 9.97 13.27 12.03 1.98 1.54 5.19 1.71 7.26.29 1.85-1.28 3.37-3.01 2.35-7.33-1.37-5.79-5.86-10.23-8.79-11.91 0 0 8.14-10.07 9.49-13.95z"/><path style="fill:#70534a" d="M116.13 71.94c-2.56.21-7.4-.13-9.8-1.26-9.54-4.48-41.39-25.12-41.39-25.12-3.46-1.88-14.28-3.32-18.58-2.25l-27.79 9.67c-5.93 1.08-10.68 5.09-10.54 13.7.02 1.25.16 3.83.22 5.18.25 3.2.93 11.45-.96 16.54-2.12 5.73-3.72 10.8-.55 12.19 6.27 2.76 10.2-.23 11.94-2.99 4.44-7.02 6.58-18.8 6.7-23.35a9.22 9.22 0 0 0-.13-1.81c0-.03 0-.07.01-.1 0 0 17.76-.02 27.62-2.69 0 0 4.06 5.47 2.93 12.76-.61 3.96 26.73 37.44 36.46 37.44s8.85-1.16 16.19-1.16c3.36 0 6.76 2.17 8.59 1.16 3.03-1.66 6.01-10.8 6.01-25.9s-2.91-22.34-6.93-22.01z"/><path style="fill:#4a2f27" d="M58.1 77.79c.34-1.09 1.03-3.18 2-5.37 1.41-3.17 20.74-16.64 20.74-16.64-2.42-1.76-9.11-5.89-9.11-5.89S58.78 61.28 54.27 68.44c-.23.36-6.82-5.5-9.73-5.33-2.91.17-10.5 3.11-14.93 5.43-1.16.61-2.57.23-3.33-.84-.71-1.01-1.6-1.98-2.36-2.57-.72-.57-2.03-1.16-3.3-1.48-.75-.18-1.21.78-.62 1.28 2.84 2.43 4.91 6.06 5.21 9.35l.83 4.23c2.39-.3 26.39 2.83 26.39 2.83s12.2.51 12.46-.1c.19-.44-3.44-2.65-6.79-3.45z"/><path style="fill:#78909c" d="m26.05 112.84-11.44 6.69c-1.5.88-3.33-.44-2.98-2.14l2.73-12.97c.27-1.26.79-2.46 1.55-3.51L82.74 9.43c.8-1.11 2.14-1.7 3.49-1.53 1.41.18 3.36.8 5.69 2.47 2.33 1.68 3.53 3.33 4.15 4.61a3.74 3.74 0 0 1-.35 3.8l-66.83 91.48a9.346 9.346 0 0 1-2.84 2.58z"/><path style="fill:#78909c" d="m32.12 105.83-12.66-9.79-3.55 4.86a9.238 9.238 0 0 0-1.55 3.51l-2.73 12.97c-.36 1.7 1.47 3.02 2.98 2.14l11.44-6.69a9.22 9.22 0 0 0 2.84-2.58l3.23-4.42z"/><path style="fill:#70534a" d="M84.88 83.7s-29.05-6.29-39.2-2.14c-5.01 2.05-11.1 7.39-14.33 8.27-3.23.88-6.42 1.68-9.11 2.44-6.53 1.82-5.4 11.78 1.25 15.11 5.87 2.93 7.29 1.04 12.43.42 7.7-.93 9.97-2.18 13.17-2.59 4.59-.59 14.32.69 18.09 2.84 3.22 1.83 11.71 11.93 25.35 11.93 14.8-.16 15.92-6.81 21.57-15.37 1.04-1.59-29.22-20.91-29.22-20.91z"/><path style="fill:#4a2f27" d="M113.63 116.48c-1.46-.41-3.27-.93-5.19-.93-3.65 0-5.5.28-7.28.56-1.42.22-2.89.44-5.53.55h-.08l-.08.01c-.97.09-1.95.14-2.94.15-9.59 0-17.46-5.33-21.56-8.73-1.29-1.07-5.49-4-9.17-5.06-8.25-2.38-16.76-.11-18.16.26-2.04.53-7.47 3.05-12.21 3.64-2.14.27-7.29.01-10.83-5.23-1.62-2.4-1.18-5.76-.33-8.53-1.9 2.15-3.49 5.05-8.65 6.31-1.59.39-4.18.3-5.68-.38-.15-.07-.7-.33-.67.01.02.32.38.76.59.99 2.68 2.96 8 3.43 11.6.25.21 2.88 1.88 5.89 4.94 7.74 5.8 3.51 12.95 1.62 15.35 1.04 5.75-1.38 7.37-3.18 10.57-3.57 1.83-.22 8.73-1.25 15.58 1.87 6.15 2.8 14.99 12.54 28.63 12.54 1.16-.01 2.22-.07 3.22-.16 6.14-.24 6.38-1.1 12.69-1.1 2.73 0 5.48 1.43 7.4 1.43.45 0 .85-.08 1.19-.27 1.02-.56 2.03-1.98 2.93-4.18-3.11 2.47-5.59 1-6.33.79z"/><path style="fill:#82aec0" d="M41.93 72.61c.76.53 1.79.37 2.35-.37 6.46-8.5 42.04-56.66 44.06-59.26 1.3-1.67-2.6-4.47-4.47-2.2L41.5 70.21c-.54.78-.35 1.86.43 2.4z"/></svg>