<svg xmlns="http://www.w3.org/2000/svg" viewBox="0 0 128 128" style="enable-background:new 0 0 128 128" xml:space="preserve"><path style="fill:#fce8b2" d="M110.65 19.14c-.29-.13.43-1.31-10.57-1.61-.96-.03-4.13 1.66-7.75 1.71-3.75.05-6.1-1.51-7.36-2.72-.56-.54-1.45-.4-1.85.26-.71 1.19-2.06 2.73-4.54 3.62-2.87 1.03-5.46-.09-6.92-1-.61-.38-1.43-.11-1.7.56-.64 1.59-2.09 4.05-5.22 5.23-2.85 1.08-5.14.18-6.55-.74a1.17 1.17 0 0 0-1.79.77c-.39 2.09-1.33 5.18-3.61 6.41-2.72 1.46-5.33.52-6.98-.46-.76-.46-1.74.02-1.81.91-.16 2.39-.82 6.11-3.18 8.2-2.55 2.26-6.4 1.65-8.53 1.07-.75-.2-1.47.36-1.48 1.14-.02 1.89-.33 4.96-1.93 6.67-2.15 2.29-5.65 2.88-5.65 2.88L73.31 101c1.17-1.25 7.92-10.42 26.08-13.62 1.73-.31 9.52-1.32 10.27-1.82 1.02-.69.02-7.39.07-9.03l.39-14.2c.25-9.26.51-18.52.76-27.78.09-3.22.18-6.45.26-9.67.03-1.16.21-2.41.1-3.57-.12-1.46.06-1.88-.59-2.17z"/><path style="fill:#ffbd66" d="M31.26 41.57c-.26.21-.44.54-.45.92-.02 1.89-.33 4.96-1.93 6.67-.06.06-.12.11-.17.17l48.47 47.72-45.92-55.48zM44.71 31.1c-.38.16-.67.51-.71.98-.16 2.39-.82 6.11-3.18 8.2l-.15.12c11.92 15.48 40.57 53.09 40.57 53.09L44.71 31.1zm11.69-5.88c-.39 2.09-1.33 5.18-3.61 6.41-.08.04-.15.06-.23.1C60.07 46.04 77.3 78.45 84.6 92.16l.6-.3L57.01 24.4c-.3.16-.54.45-.61.82zm13.56-5.26c-.62 1.56-2.04 3.94-5.03 5.15 5.39 14.95 18.61 50.29 24.14 65.06.22-.08.45-.16.67-.25L71.02 19.24c-.45.01-.88.27-1.06.72zm13.16-3.18c-.71 1.19-2.06 2.73-4.54 3.62-.15.05-.3.08-.45.12l14.31 68.5c.44-.13.89-.27 1.35-.39l-9.97-72.39c-.29.08-.54.26-.7.54zm16.41.84c-1.33.34-4.1 1.58-7.2 1.62-.38.01-.74-.02-1.1-.04 1.15 17.13 3.54 52.75 4.91 68.83.25-.06.51-.11.77-.17.12-3.94.17-9.04.17-9.04l2.45-61.2z"/><path style="fill:#6d4c41" d="M78.41 97.6c-.46 0-.91-.19-1.23-.56L30.52 42.87c-.58-.68-.51-1.7.17-2.28.68-.58 1.7-.51 2.28.17l46.67 54.17a1.616 1.616 0 0 1-1.23 2.67zm3.92-2.58c-.55 0-1.08-.28-1.38-.78L43.03 31.82a1.62 1.62 0 0 1 .54-2.22 1.62 1.62 0 0 1 2.22.54l37.92 62.42a1.62 1.62 0 0 1-1.38 2.46zm2.45-2.9L55.77 25.35c-.35-.82.02-1.77.84-2.13.82-.35 1.77.02 2.13.84l29.01 66.77s.42 1.34-.91 1.98c-1.37.67-2.06-.69-2.06-.69zm5.73-.56c-.71 0-1.36-.47-1.56-1.18l-19.6-70.12c-.24-.86.26-1.75 1.12-1.99.86-.24 1.75.26 1.99 1.12l19.6 70.12a1.613 1.613 0 0 1-1.55 2.05zm3.73-1.12c-.79 0-1.49-.59-1.6-1.4l-10-72.17c-.12-.89.5-1.7 1.38-1.82.88-.13 1.7.5 1.82 1.38l10 72.17c.12.88-.5 1.7-1.38 1.82-.07.01-.14.02-.22.02z"/><path style="fill:#cf381a" d="M96.48 87.37c-.03 1.33.99 2.44 2.32 2.51l15.38.59a8.38 8.38 0 0 0 8.6-8.16l1.46-55.94a8.38 8.38 0 0 0-8.16-8.6l-15.11-.57a2.585 2.585 0 0 0-2.72 2.51l-1.77 67.66zm-29.57 22.19-9.75 10.07a4.395 4.395 0 0 1-6.22.1L5.1 75.34a4.395 4.395 0 0 1-.1-6.22l9.75-10.07a4.395 4.395 0 0 1 6.22-.1l45.83 44.39c1.75 1.69 1.8 4.47.11 6.22z"/><path style="fill:#822322" d="M9.83 69.85a3.999 3.999 0 0 0 .09 5.66 3.98 3.98 0 0 0 3.35 1.07c-.13 1.19.25 2.42 1.18 3.31a3.98 3.98 0 0 0 3.35 1.07c-.13 1.19.25 2.42 1.18 3.31a3.98 3.98 0 0 0 3.35 1.07c-.13 1.19.25 2.42 1.18 3.31a3.98 3.98 0 0 0 3.35 1.07c-.13 1.19.25 2.42 1.18 3.31s2.16 1.24 3.35 1.07c-.13 1.19.25 2.42 1.18 3.31a3.98 3.98 0 0 0 3.35 1.07c-.13 1.19.25 2.42 1.18 3.31s2.16 1.24 3.35 1.07c-.13 1.19.25 2.42 1.18 3.31s2.16 1.24 3.35 1.07c-.13 1.19.25 2.42 1.18 3.31s2.16 1.24 3.35 1.07c-.13 1.19.25 2.42 1.18 3.31a3.999 3.999 0 0 0 5.66-.09l9.8-10.12-46.46-45-9.86 10.13z"/><path style="fill:#fff3e0" d="M10.64 69.01a3.999 3.999 0 0 0 .09 5.66 3.98 3.98 0 0 0 3.35 1.07c-.13 1.19.25 2.42 1.18 3.31a3.98 3.98 0 0 0 3.35 1.07c-.13 1.19.25 2.42 1.18 3.31a3.98 3.98 0 0 0 3.35 1.07c-.13 1.19.25 2.42 1.18 3.31a3.98 3.98 0 0 0 3.35 1.07c-.13 1.19.25 2.42 1.18 3.31a3.98 3.98 0 0 0 3.35 1.07c-.13 1.19.25 2.42 1.18 3.31s2.16 1.24 3.35 1.07c-.13 1.19.25 2.42 1.18 3.31a3.98 3.98 0 0 0 3.35 1.07c-.13 1.19.25 2.42 1.18 3.31s2.16 1.24 3.35 1.07c-.13 1.19.25 2.42 1.18 3.31a3.98 3.98 0 0 0 3.35 1.07c-.13 1.19.25 2.42 1.18 3.31a3.999 3.999 0 0 0 5.66-.09l9.8-10.12-46.46-45-9.86 10.13z"/><path style="fill:#ffcc80" d="m13.38 66.11 46.45 44.99 7.06-7.22-46.46-45z"/><path style="fill:#6d4238" d="m24.06 66.79-7.11 7.34c-.31.32-.83.33-1.15.02l-1.13-1.1a.818.818 0 0 1-.02-1.15l7.11-7.34c.31-.32.83-.33 1.15-.02l1.13 1.1c.32.31.33.83.02 1.15zm3.09 3-7.11 7.34c-.31.32-.83.33-1.15.02l-1.13-1.1a.818.818 0 0 1-.02-1.15l7.11-7.34c.31-.32.83-.33 1.15-.02l1.13 1.1c.32.31.33.82.02 1.15zm6.18 5.99-7.11 7.34c-.31.32-.83.33-1.15.02l-1.13-1.1a.818.818 0 0 1-.02-1.15l7.11-7.34c.31-.32.83-.33 1.15-.02l1.13 1.1a.8.8 0 0 1 .02 1.15zm3.1 2.99-7.11 7.34c-.31.32-.83.33-1.15.02l-1.13-1.1a.818.818 0 0 1-.02-1.15l7.11-7.34c.31-.32.83-.33 1.15-.02l1.13 1.1c.32.32.33.83.02 1.15zm3.09 3-7.11 7.34c-.31.32-.83.33-1.15.02l-1.13-1.1a.818.818 0 0 1-.02-1.15l7.11-7.34c.31-.32.83-.33 1.15-.02l1.13 1.1c.32.31.33.83.02 1.15zm6.18 5.99-7.1 7.34c-.31.32-.83.33-1.15.02l-1.13-1.1a.818.818 0 0 1-.02-1.15l7.11-7.34c.31-.32.83-.33 1.15-.02l1.13 1.1c.32.31.33.83.01 1.15zm3.1 2.99-7.11 7.34c-.31.32-.83.33-1.15.02l-1.13-1.1a.818.818 0 0 1-.02-1.15l7.11-7.34c.31-.32.83-.33 1.15-.02l1.13 1.1c.32.32.33.83.02 1.15zm6.18 6-7.11 7.34c-.31.32-.83.33-1.15.02l-1.13-1.1a.818.818 0 0 1-.02-1.15l7.11-7.34c.31-.32.83-.33 1.15-.02l1.13 1.1a.8.8 0 0 1 .02 1.15zm3.1 2.99-7.11 7.34c-.31.32-.83.33-1.15.02l-1.13-1.1a.818.818 0 0 1-.02-1.15l7.11-7.34c.31-.32.83-.33 1.15-.02l1.13 1.1c.32.31.33.83.02 1.15zm3.09 3-7.11 7.34c-.31.32-.83.33-1.15.02l-1.13-1.1a.818.818 0 0 1-.02-1.15l7.11-7.34c.31-.32.83-.33 1.15-.02l1.13 1.1c.32.31.33.82.02 1.15z"/><path style="fill:#cf381a" d="m74.47 101.75-8.25 8.52a3 3 0 0 1-4.24.07L14.14 63.99a3 3 0 0 1-.07-4.24l8.25-8.52a3 3 0 0 1 4.24-.07L74.41 97.5a3.003 3.003 0 0 1 .06 4.25z"/><path style="fill:#ff5722" d="m69.98 100.06-5.52 5.7a3 3 0 0 1-4.24.07L16.7 63.68a3 3 0 0 1-.07-4.24l5.52-5.7a3 3 0 0 1 4.24-.07L69.9 95.82a2.973 2.973 0 0 1 .08 4.24zm41.28-13.21-6.8-.15a6.162 6.162 0 0 1-6.02-6.29l1.24-56.1c.08-3.4 2.89-6.09 6.29-6.02l6.8.15c3.4.08 6.09 2.89 6.02 6.29l-1.24 56.1a6.162 6.162 0 0 1-6.29 6.02z"/><circle style="fill:#6d4238" cx="104.18" cy="44.61" r="2.18"/><circle style="fill:#6d4238" cx="103.95" cy="53.93" r="2.18"/><circle style="fill:#6d4238" cx="103.72" cy="63.25" r="2.18"/><circle style="fill:#6d4238" cx="103.49" cy="72.56" r="2.18"/><circle style="fill:#6d4238" cx="114.38" cy="35.18" r="2.18"/><circle style="fill:#6d4238" cx="114.15" cy="44.5" r="2.18"/><circle style="fill:#6d4238" cx="113.92" cy="53.81" r="2.18"/><circle style="fill:#6d4238" cx="113.68" cy="63.13" r="2.18"/><circle style="fill:#6d4238" cx="109.28" cy="39.9" r="2.18"/><circle style="fill:#6d4238" cx="109.05" cy="49.21" r="2.18"/><circle style="fill:#6d4238" cx="108.82" cy="58.53" r="2.18"/><circle style="fill:#6d4238" cx="108.59" cy="67.85" r="2.18"/></svg>