<svg xmlns="http://www.w3.org/2000/svg" viewBox="0 0 128 128" style="enable-background:new 0 0 128 128" xml:space="preserve"><path style="fill:#d43330" d="M14.77 37.29s-1.13 1.31-1.88 3.75-.42 4.93-.42 4.93 3.77 1.97 10.07 2.25c5.19.23 7.95-.7 11.9-3.59s10.66 1.76 13.69 3.17c3.03 1.41 30 11.83 30 11.83l19.62 1.22s.75-2.16 0-7.32-5.44-9.29-9.1-10.79c-3.66-1.5-6.01-1.69-6.01-1.69L58.69 26.97s-6.6-.46-13.33 1.03C40.3 29.13 29.6 38.89 23.4 38.7s-8.63-1.41-8.63-1.41z"/><path style="fill:#f44236" d="m58.64 20.82-2.6-13.91S57.28 5 59.77 4.58s4.36.8 4.36.8l2.35 16.1h1.88l1.78-14.55s1.03-1.22 4.18-.73c2.91.46 3.39 1.77 3.39 1.77l-1.6 14.96-16.8 7.09-7.41-.89-9.34-13.66s.28-2.3 2.58-3.61 3.94-1.08 3.94-1.08l8.92 13 .8-.8-.16-2.16z"/><path style="fill:#f44236" d="M74.83 42.31s2.04-1.08 4.46-1.31 3.33.05 3.33.05 3.5-4.58 0-12.74-14.83-10.28-21.02-8.24-13.87 6.9-14.71 16.75c-.84 9.85-1.13 14.92-1.13 14.92l5.98 3.1 23.49-3.68-.4-8.85z"/><path style="fill:#d43330" d="M68.17 27.18s1.83.84 4.97-.28c3.75-1.34 10.7-3.31 13.37-4.58s4.93-3.66 6.48-4.08c1.55-.42 5.39-.21 7.22 3.59s-1.45 7.11-1.45 7.11l-17.18 4.22-6.34 6.9-1.55 6.9v5.91l28.56 21.83s.44 7.31-3.5 18.57-7.45 18.73-8.99 21.55-1.47 6.34-5.52 8.02c-4.05 1.69-12.22-2.67-21.65-6.76-9.43-4.08-21.4-11.68-26.04-17.74s-8.59-12.39-9.71-21.82 3.1-19.15 7.74-21.68c4.65-2.53 15.63-1.97 15.63-1.97s.64-1.27 5.03-2.67 7.35-1.83 7.35-1.83l-1.13-7.46.79-8.51 5.92-5.22z"/><path style="fill:#fe5f5f" d="M80.61 56.95s3.66-3.52 9.01-2.96 10.5 6.19 11.76 10.98c1.27 4.79 1.24 11.17 0 15.77-1.08 4.03-6.09 14.08-12.75 14.08-3.1 0-4.03-2.48-4.24-3.63-.21-1.16 1.61 7.85-2.94 9.68-4.33 1.74-3.75-1.13-3.75-1.13l1.92-4.5s-8.21-14.9-12.01-19.55c-3.8-4.65-15.58-13.96-15.16-18.32.42-4.36 1.55-6.19 5.77-7.04 4.22-.84 9.29 0 9.29 0l8.06 4.09 5.04 2.53z"/><path style="fill:#ff6a65" d="M50.9 65.35s-2.44 4.32-5.73 0c-3.28-4.32-6.01-8.35-5.73-17.64.28-9.29.75-13.98-.47-18.86-1.22-4.88-1.61-7.68-1.61-7.68l-3.27 3.09-3.11.74-2.06-1.12s-1.78.28-1.12 1.03 3.09 3.95 4.12 6c1.36 2.72 2.72 11.92-.12 17.55-3.42 6.79-4.58 12.39-3.75 18.12.62 4.27 5.22 9.76 5.22 9.76l3.42 2.44 7.7-.66 6.01-6.29.5-6.48z"/><path style="fill:#ff8f8c" d="M36.45 16.03c-3.05-.45-7.36 1.74-8.62 4.65-1.18 2.7-.57 5.58 2.88 5.02 3.45-.56 5.2-2.4 5.84-2.96s2.41 6.06 2.82 10c.42 3.94.06 13.04 0 16.26-.08 4.41 1.18 16.02 5.2 18.36 2.8 1.63 4.97-.55 6.8-.79l-.75-6.17-2.96-9.22s-.31-.4-1.08-2.35c-.77-1.95-.82-14.92-2.23-21.52-.9-4.21-3.88-10.68-7.9-11.28z"/><path style="fill:#a62714" d="M95.81 20.84c-.57.89-.49 4.22-.49 4.22s-8.8 2.65-12.95 4.95c-4.15 2.3-8.76 5.79-10.1 11.35s.49 9.39.49 9.39-2.73-1.26-4.97-2.04c-1.92-.67-3.78-1.06-3.78-1.06s-.16-4.36-.51-5.7c-.35-1.34-1.2-2.89-1.2-4.58s1.01-4.72 2.35-6.57c1.2-1.66 3.92-3.49 3.92-3.49s-.14-.2-1.22-.24c-2.23-.1-5.26 2.35-6.66 6.01-1.41 3.66-.77 9.19-.7 11.61.05 1.62.14 3.23.14 3.23s-2.82.36-4.89.93c-2.08.56-5.6 3.1-5.6 3.1s-1.13-.8-1.9-1.99c-.75-1.16-1.61-4.19-1.61-4.19s.48 6.05 1.61 9.07c1.13 3.03 2.96 10.31 2.04 14.08-1.27 5.21-4.97 8.05-9.34 8.12s-7.59-2.79-9.48-6.19c-1.41-2.55-3.12-8.72-3.12-8.72s-.67 2.46-.57 4.61c.1 2.15 1.13 7.28 5.4 10.7 3.78 3.03 6.69 2.95 8.94 2.81 4.15-.26 9.27-4.39 10.46-9.6s-.05-9.97-.4-11.52c-.35-1.55-1.13-4.29-1.13-4.29s3.52-3.73 7.67-4.5 11.26 1.55 14.36 3.52c3.1 1.97 10.61 8.33 10.18 13.05s-3.43 7.95-4.62 9.48c-1.57 2.02-3.64 3.43-3.17 4.43.67 1.43 2.75-.14 4.29-1.34 1.55-1.2 3.59-3.8 4.58-5.42.99-1.62 1.83-4.34 1.83-4.34s2.53 2.2 3.38 5.98c.84 3.78-.42 8.78 1.2 8.5 1.62-.28 2.17-4.86 1.83-9.08-.34-4.14-2.89-6.91-4.29-8.35-1.4-1.44-2.11-2.77-2.11-2.77s-2.57-6.54-5.73-9.16c-4.08-3.38-5.02-10.97-3.07-14.43 2.54-4.51 6.11-7 10.21-7.88 5.77-1.24 8.61-1.06 11.25-1.31 2.31-.22 3.4-2.84 3.05-5.73s-1.69-5.01-3.2-5.67c-1.22-.54-2.02.48-2.37 1.02z"/><path style="fill:#a62714" d="M39.32 79.34s2.15 6.69 2.15 9.57-.25 5.95-2.15 7.53c-1.89 1.57 2.43 1.76 3.74-.51 1.73-3.01 1.23-5.12 1.23-5.12l2.02 2.27s2.1 5.9 5.07 9.41c3.24 3.82 5.73 4.53 9.43 4.53 3.88 0 4.29-1.71 2.72-1.83-1.67-.12-4.99-.18-7.32-1.66-2.32-1.48-3.45-3.15-4.98-5.66-.69-1.13-1.97-4.27-1.97-4.27s3.18 1.41 4.36 0c1.01-1.2-3.33-1.91-4.55-2.58-2.06-1.13-3.19-2.96-4.15-4.78-.88-1.68-2.6-6.91-2.6-6.91h-3zm42.36-4.51s.23 6.19-.14 10.28c-.38 4.08-1.17 8.07-2.82 10.7-1.11 1.78-3.09 3.38-3.61 4.46-.56 1.14.61 1.87 1.83 1.17s3.33-2.77 4.32-4.83c.52-1.08 1.74-4.08 1.74-4.08s1.27 4.93 2.06 6.34c.8 1.41 2.02 4.32 3.28 3.75s-.11-2.83-.47-3.8c-.45-1.2-1.5-4.04-2.06-6.43s-.9-10.55-.9-12.71-.28-7.05-.7-8.83-2.53 3.98-2.53 3.98z"/><path style="fill:#f44236" d="M29.51 22.93c.56 1.19 2.47.85 4.8-.85 2.45-1.79 2.88-3.54 1.72-4.35-1.09-.77-3.17-.08-4.59 1.01-1.59 1.22-2.59 2.76-1.93 4.19z"/></svg>