<svg xmlns="http://www.w3.org/2000/svg" viewBox="0 0 1000 1000"><path fill="#e41e20" d="M992 132.75c-170.83 85.22-341.03 54.42-513.26 27.97C323.53 136.88 166.58 116.15 8 195.25v672c170.83-85.22 341.03-54.42 513.26-27.97 155.21 23.84 312.16 44.57 470.74-34.53v-672"/><path d="M526.08 667.62c5.37 6.53-25.57 32.47-26.08 32.89-.52-.6-31.43-36.07-26.08-40.93 6.16-4.31 13.13-12.96 13.28-22.93-.84-7.5-5.4-12.27-9.16-4.04-5 9.38-14.76 23.42-29.19 12.16-6.07-5.55-6.19-11.25 2.39-9.64 10.61.72 16.7-3.56 21.57-17.1.59-7.72-2.33-7.92-7.27-3.69-6.34 5.9-17.91 13.73-31.54 6.69-7.39-4.3-9.52-10.12 1.7-10.37 10.76 1.49 19.1-3.54 27.89-12.34 4.29-5.27-1.81-11.06-6.43-7.4-3.82 2.64-8.91 7.11-13.44 7.5-5.3.14-11.46-1.23-18.73-5.79-7.54-7.42-5.28-11.09 4.13-11.01 1.64.32 3.11.71 4.51 1.1 4.89 1.34 8.62 2.3 15.96-1.11 16.87-8.51 29.83-20.62 32.13-37.8 1.05-11.41-4.82-15.45-10.41-15.18-14.56 1.78-24.01 25.66-34.12 38.76-3.58 3.56-6.06 3.26-8.46 1.7-4.04-3.88-7.25-7.05-11.3-11.29-.05 0-29.53 1.26-45.72 4.43l17.95 8.18c7.15-2.48 14.58 1.97 15 8.4 6.36 5.36 5.9 9.78 3.13 14.46-.89-3.72-1.58-7.55-6.64-9.15-7.61 1.66-15.27-2.97-15.7-8.58l-21.18-10.34-21.39 9.51c-.38 7.91-7.45 9.51-15.83 6.91-3.84 2.18-6.12 5.62-7.54 9.84-2.31-6.42-1.86-10.18 1.85-13.15-1.69-8.22 8.91-14.39 18.17-8.92l15.39-7.04-26.34-2.99c-3.58 4.85-13.59 4.43-17.33-1.16-2.88-.9-4.94-1.39-10.46 2.08 1.91-6.2 4.83-8.4 9.93-8.3 4.31-6.07 16.77-5.22 19.31 2.14l27.43 3.16-16.28-12.6c-6.44 2.64-14.19-1.42-16.31-7.91-2.61-2.98-5.24-4.3-11.29-2.93 3.26-4.97 7.1-6.12 15.02-2.16 7.48-4.19 15.82 2.12 14.9 7.44l21.66 16.2c15.75-2.8 44.18-6.17 44.19-6.17-3.4-3.85-6.82-7.48-10.21-11.36-1.02-2.39.49-4.08 3.24-4.46 25.55-1.84 39.73-9.2 48.76-32.87 3.24-10.06-3.84-13.97-7.03-8.2-3.84 8.44-7.98 17.18-19.37 23.29-4.25 1.7-15.23-1.17-8.72-7 7.23-4.72 10.16-6.65 13.8-19.9-.42-7.12-6.98-10.91-11.56-5.02-4.41 13.15-4.95 18.8-12.9 26.67-6.31 5.91-13.8 9.19-17.93 8.8-7.22-1.31-14-8.61-4.73-13.28 13.98-3.87 18.83-10.08 21.02-16.87 2.1-11.98-.04-17.71-7.82-12.98-10.79 10.36-31.43 29.88-42.24 39.05-12.36 7.62-25.73 6.81-37.06-2.85-6.15-7.65-4.23-14.41 5.83-12.47 22.54 3.23 39.09-5.42 57.88-32.05 3.53-6.27 4.82-14.92-3.39-9.25-9.41 10.95-22.68 19.55-35.32 22.98-12.83 3.09-22.74.17-27.04-3.87-4.66-5.35-3.8-16.09 4.83-13.23 7.08 2.77 16.54 4.02 26.85 1.29 10.22-2.99 20.6-9.94 31.93-22.56 3.71-7.65 2.73-13.84-5.18-11.01-18.61 12.91-41.85 22.65-54.2 14.86-8.76-6.3-9.19-19.06 2.24-17.92 22.94 4.46 31.19.67 53.25-15.44 4.72-3.41 4.9-11.62-3.29-7.18-18.6 9.25-43.24 11.51-53.34 5.11-8.61-6.27-7.81-21.63 7.37-15.28 12.17 7.82 24.94 8.59 51.6-6.45 6.39-5.01 1.95-11.57-3.78-9.68-21.56 9.19-51.88 11.56-60.32-12.26-2.84-9.39 2.26-13.91 10.86-7.33 18.58 17.27 38.74 11.64 50.6 4.77 3.36-1.85 9.39-9.77-1.29-9.74-27.97 2.85-54.74-4.21-60.07-23.2-2.58-6.52 2.44-16.38 12.9-6.98 13.49 13.46 27.26 15.18 45.12 17.05 9.03-1.3 9.08-9.81 1.55-12.54-14.05-1.41-27.7-8.38-38.85-15.22-10.91-6.95-19.57-15.59-22.62-27.37-1.34-10.61 8.2-20.54 14.95-9.34 9.46 16.74 29.66 33.27 52.6 38.83l.04-.06c1.43-2.1 3.95-5.77 7.83-4.42 6.69 3.3 14.67 7.62 22.9 12.43 17.85 10.5 24.89 15.32 22.97 28.98-1.87 14.45 9.19 24.68 19.13 23.92 8.54-1.16 12.89-7.3 11.56-20.33-1.46-10.39-11.67-23.76-23.66-32.1-7.78-5.17-19.3-9.14-33.33-13.95-8.67-2.91-12.61-6.29-13.35-9.79.15.12 5.73 4.5 15.14 5.4 4.59.12 7.12-1.13 8.47-2.92-2.1-.62-5.17-.94-8.57-1.23-1.91-.16-3.9-.33-5.82-.57-7.33-1.04-22.89-4.48-27.65-14.34-1.01-6.48 2.65-6.92 6.93-2.57 4.3 4.94 6.07 8.71 14.64 11.41l.74.22c5.05 1.49 9.98 2.87 16.45 2.36-4.02-4.95-9.65-9.71-14.95-9.84-1.8.17-3.77 1.23-5.73 3.72-1.01-7.11.76-14.24 19.93-8.74.25-5.24 10.63-5.85 17.88-4.84 3.93.76 11.71 4 17.53 7.45 9.09 4.01 18.02 7.27 28.59 9.67-6.14 4.05-7.26 4.22-13.4 7.5 9.29 4.89 16.31 12.57 19.68 17.62-.14-.03-10.67-1.7-13.55-1.2 11.35 4.92 16.3 7.6 22.37 14.34-2.11.03-5.21.17-6.58.4-1.38.38-1.05 1.13.1 2.21 2.36 2.23 12.54 14.85 15.44 18.02 2.91-2.28 13.07-11.74 15.44-13.25 1.16-.73 1.47-1.38.1-2.17-1.37-.66-4.47-1.76-6.58-2.43 6.08-4.89 10.99-6 22.37-7.47-2.92-1.4-13.43-2.94-13.55-2.96 3.4-4.05 10.33-9.51 19.68-11.6-6.14-5.15-7.25-5.65-13.4-11.59 10.59.85 19.5.28 28.59-1.05 5.82-1.74 13.57-2.74 17.53-2.38 7.23 1.03 17.63 4.54 17.88 9.77 19.14-.39 20.95 6.93 19.93 13.86-1.94-2.94-3.97-4.53-5.73-5.15-5.35-1.22-10.92 2.05-14.95 5.94 6.49 2.25 11.4 2.14 16.45 1.93l.74-.04c8.6-.57 10.34-3.93 14.64-7.87 4.29-3.36 7.93-2.07 6.93 4.15-4.81 8.9-20.25 8.53-27.65 7.68-1.91-.26-3.91-.61-5.82-.95-3.4-.61-6.49-1.11-8.57-1.06 1.33 2.12 3.93 4.1 8.47 5.18 9.47 1.59 14.97-1.44 15.14-1.53-.75 3.34-4.65 5.74-13.35 6.39-14.04 1.14-25.56 1.82-33.33 4.74-12.04 4.88-22.19 15.07-23.66 25.09-1.32 12.59 3.05 20.11 11.56 23.79 9.96 3.72 21-3.33 19.13-18.35-1.93-14.29 5.12-16.91 22.97-22.66 8.23-2.63 16.21-4.95 22.9-6.64 3.83-.43 6.41 3.84 7.83 6.25l.04.07c23.01-.31 43.07-13.38 52.6-28.85 6.75-10.23 16.28.88 14.95 11.3-3.06 11.46-11.69 19.01-22.62 24.25-11.19 5.07-24.74 9.47-38.85 7.77-7.57 1.06-7.44 9.61 1.55 12.88 17.88 2.04 31.63 2.74 45.12-8.76 10.46-7.89 15.49 2.46 12.9 8.7-5.4 18.56-32.03 21.79-60.07 12.74-10.77-2.44-4.62 6.87-1.29 9.45 11.92 9.56 31.97 19.25 50.6 4.57 8.6-5.37 13.7-.31 10.86 8.74-8.57 23.16-38.63 15.82-60.32 1.77-5.76-3.19-10.16 2.37-3.78 8.83 26.58 21.01 39.51 22.17 51.6 16.14 15.11-4.16 16.09 11.07 7.37 16.29-10.26 5.17-34.57-1.11-53.34-14.56-8.22-6.27-8 2-3.29 6.45 21.86 20.85 30.49 26.48 53.25 25.18 11.33.39 11.1 13.01 2.24 18.21-12.47 6.21-35.46-7.45-54.2-24.59-7.93-4.62-8.89 1.33-5.18 9.83 11.32 15.2 21.73 24.31 31.93 29.16 10.34 4.6 19.76 4.77 26.85 2.95 8.58-1.72 9.53 9.03 4.83 13.85-4.31 3.52-14.18 5.15-27.04-.17-12.61-5.62-25.91-17.03-35.32-30.11-8.23-7.57-6.92 1.38-3.39 8.47 18.74 30.89 35.4 43.04 57.88 42.96 10.01-.55 12.03 6.33 5.83 13.25-11.35 8.22-24.67 6.88-37.06-3.15-10.77-11.23-31.4-35.39-42.24-48.51-7.79-6.69-9.93-1.55-7.82 10.98 2.17 7.29 7.08 14.93 21.02 22.08 9.21 6.8 2.54 12.58-4.73 12.15-4.08-.6-11.64-5.76-17.93-13.31-7.95-9.95-8.5-15.78-12.9-30.12-4.55-7.1-11.13-5.24-11.56 1.8 3.63 14.26 6.58 17.07 13.8 23.74 6.51 7.59-4.46 7.48-8.72 4.59-11.36-9.26-15.55-19.32-19.37-28.83-3.15-6.62-10.3-4.99-7.03 6.13 8.99 26.22 23.26 38.07 48.76 46.5 2.73 1.08 4.25 3.18 3.24 5.29-3.39 3.01-6.81 5.76-10.21 8.71l44.19 16.77 21.66-11.98c-.92-5.5 7.43-10.32 14.9-5 7.91-2.78 11.76-1.16 15.02 4.21-6.06-2.12-8.68-1.18-11.29 1.42-2.14 6.23-9.85 9.09-16.31 5.33l-16.28 9.56 27.43 1.7c2.53-6.94 15.03-6.05 19.31.47 5.09.48 8.02 2.97 9.93 9.34-5.52-4-7.58-3.75-10.46-3.19-3.77 5.19-13.74 4.25-17.33-1.16l-26.34-1.59 15.39 9.86c9.26-3.89 19.85 3.78 18.17 11.72 3.7 3.47 4.16 7.29 1.85 13.4-1.41-4.38-3.72-8.17-7.54-10.9-8.37 1.35-15.45-1.52-15.83-9.47l-21.39-13.65-21.18 5.58c-.43 5.55-8.07 8.3-15.7 4.69-5.1.3-5.75 3.9-6.64 7.42-2.77-5.43-3.24-9.93 3.13-13.64.43-6.35 7.84-8.85 15-4.62l17.95-4.01c-16.11-6.72-45.71-15.79-45.72-15.79-4.05 3.14-7.26 5.42-11.3 8.16-2.38.87-4.88.47-8.46-4.12-10.08-15.97-19.65-42.74-34.12-48.92-5.6-1.98-11.46.22-10.41 11.99 2.29 17.82 15.3 34.05 32.13 47.53 7.34 5.58 11.08 5.69 15.96 5.75 1.4.02 2.87.04 4.51.18 9.38 2.57 11.7 6.84 4.13 12.17-7.27 2.53-13.4 2.13-18.73.44-4.46-1.7-9.66-7.74-13.44-11.49-4.6-5.02-10.74-1.13-6.43 5.46 8.77 11.43 17.18 19 27.89 20.59 11.14 3.44 9.16 8.65 1.7 10.86-13.58 3.13-25.21-8.21-31.54-16.01-4.92-5.71-7.87-6.47-7.27 1.48 4.86 14.98 11 21.18 21.57 23.6 8.5.92 8.51 6.56 2.39 10.34-14.4 6.99-24.19-10.06-29.19-20.97-3.74-9.32-8.31-6.07-9.16 1.22.14 9.94 7.15 20.85 13.28 27.01m-95.23-375.64c-5.23-.58-7.79.31-8.13 2.41.33 2.22 2.93 4.11 8.13 5.04 5.26.57 7.76-.43 8.09-2.58-.32-2.17-2.86-3.95-8.09-4.87m138.3 20.82c-5.26-.57-7.76.43-8.09 2.54.32 2.2 2.86 3.99 8.09 4.91 5.23.55 7.79-.6 8.13-2.76-.33-2.16-2.93-3.8-8.13-4.69"/><path fill="#1A1A1A" opacity=".2" d="M8 195.25c170.83-85.22 341.03-54.42 513.26-27.97 155.21 23.84 312.16 44.57 470.74-34.53v672c-170.83 85.22-341.03 54.42-513.26 27.97C323.53 808.88 166.58 788.15 8 867.25v-672m31.25 19.39v604.5c306.56-128.26 611.18 96.04 921.5-33.78v-604.5c-306.56 128.26-611.18-96.04-921.5 33.78"/></svg>