<svg xmlns="http://www.w3.org/2000/svg" viewBox="0 0 1000 1000"><path fill="red" d="M8 195.25c170.83-85.22 341.03-54.42 513.26-27.97 155.21 23.84 312.16 44.57 470.74-34.53v672c-170.83 85.22-341.03 54.42-513.26 27.97C323.53 808.88 166.58 788.15 8 867.25v-672"/><path fill="#fff" d="M254 139.34c162.36-1.34 324.72 50.7 492 49.32v672c-162.36 1.34-324.72-50.7-492-49.32v-672"/><path fill="red" d="m499.99 227-33.57 80.35c-4.13 8.63-10.36 6.86-17.45.62l-24.31-20.68 18.12 133.93c3.47 24.62-8.13 22.7-14.44 11.55l-42.42-70.41-6.88 32.12c-1.04 4.46-4.06 8.05-9.52 6.72-17.7-7-35.4-13.68-53.63-20.08l14.08 70.94c3.09 15.98 5.27 22.17-3.04 25.88l-19.12 11.04 92.32 111.21c3.64 4.59 5.37 11.34 4.2 17.7l-8.08 35.18c31.79-1.03 60.27-4.16 92.07-3.92 3.03.52 7.17 6.71 7.49 11.52L491.6 792.7l15.46 2.39-2.44-132.77c.29-4.78 3.99-9.95 7.06-9.56 31.79 9.58 60.29 21.38 92.07 30.42l-8.08-37.25c-1.18-6.7.55-12.94 4.2-16.61 30.46-29.91 60.93-60.54 92.32-93.64l-19.12-13.5c-8.31-4.95-6.12-10.86-3.04-26.34l14.08-68.97c-17.7 3.96-35.39 7.47-53.63 10.73-5.42.14-8.48-4.18-9.52-8.85L614.08 395l-42.42 59.3c-6.34 9.41-17.9 7.84-14.44-15.7l18.11-128.76-24.3 13.69c-7.09 4.14-13.33 4.01-17.45-5.85L499.99 227"/><path fill="#1A1A1A" opacity=".2" d="M8 195.25c170.83-85.22 341.03-54.42 513.26-27.97 155.21 23.84 312.16 44.57 470.74-34.53v672c-170.83 85.22-341.03 54.42-513.26 27.97C323.53 808.88 166.58 788.15 8 867.25v-672m31.25 19.39v604.5c306.56-128.26 611.18 96.04 921.5-33.78v-604.5c-306.56 128.26-611.18-96.04-921.5 33.78"/></svg>