<svg xmlns="http://www.w3.org/2000/svg" viewBox="0 0 1000 1000"><path fill="#C1272D" d="M8 195.25c170.83-85.22 341.03-54.42 513.26-27.97 155.21 23.84 312.16 44.57 470.74-34.53v672c-170.83 85.22-341.03 54.42-513.26 27.97C323.53 808.88 166.58 788.15 8 867.25v-672"/><path fill="#006A44" d="M8 195.25c170.83-85.22 341.03-54.42 513.26-27.97 155.21 23.84 312.16 44.57 470.74-34.53v448c-170.83 85.22-341.03 54.42-513.26 27.97C323.53 584.88 166.58 564.15 8 643.25v-448"/><path fill="#FDB913" d="M8 195.25c170.83-85.22 341.03-54.42 513.26-27.97 155.21 23.84 312.16 44.57 470.74-34.53v224c-170.83 85.22-341.03 54.42-513.26 27.97C323.53 360.88 166.58 340.15 8 419.25v-224"/><path fill="#1A1A1A" opacity=".2" d="M8 195.25c170.83-85.22 341.03-54.42 513.26-27.97 155.21 23.84 312.16 44.57 470.74-34.53v672c-170.83 85.22-341.03 54.42-513.26 27.97C323.53 808.88 166.58 788.15 8 867.25v-672m31.25 19.39v604.5c306.56-128.26 611.18 96.04 921.5-33.78v-604.5c-306.56 128.26-611.18-96.04-921.5 33.78"/></svg>