<svg xmlns="http://www.w3.org/2000/svg" shape-rendering="geometricPrecision" text-rendering="geometricPrecision" image-rendering="optimizeQuality" viewBox="0 0 1000 1000"><path fill="#C62139" d="M8 195.25c327.5-163.36 652.78 101.94 984-62v672c-169.22 83.71-337.69 54.48-508.27 28.22C326.91 809.32 168.24 787.28 8 867.25v-672"/><path fill="#00297B" d="M32.09 214.72c310.79-135.63 619.85 97.17 935.82-39.52v610.47c-159.9 69.21-319.19 42.49-480.36 17.62-150.18-23.18-301.98-45.04-455.46 21.9V214.72"/><path fill="#92DBFC" d="M500.24 339.3c.25.26 76.47 78.66 76.89 171.16-.42 93.07-76.66 150.11-76.89 150.28-.23-.27-76.95-87.03-77.37-173.32.42-86.85 77.16-147.95 77.37-148.12"/><path fill="#008CE7" d="M568.99 562.17c-20.09 62.17-68.59 98.45-68.75 98.57-.08-.09-47.92-54.37-68.48-119.44l137.23 20.87"/><path fill="#9C8431" d="m573.92 543.83-1.56 13.35c-.34 1.74-1.11 3.74-1.5 5.46l-84.88-13.15 3.99-12.29c.58.13 70.58 16.11 83.95 6.63"/><path fill="#FFDE52" d="M472.01 622.99c3.32-2.39 5.35-3.96 8.55-3.79 2.92.23 4.78-.47 6.87-1.34 2.34-.96 4.5-1.78 8.27-1.33 8.05 2.92 18.48 1.72 24.94.89l.13-.02c11.12-2.05 5.97-12.01-.89-17.02-5.64-3.59-15.64-2.82-22.16-6.54-4.5-3.55-1.09-6.05 1.75-6.77 2.03-.06 4.02.67 6.39 1.62.74.3 1.51.6 2.31.89 5.88 1.49 13.09 1.95 18.25 1.76 10.57-.68 10.13-4.22 15.23-3.79 3.84.24 6.41-.65 9.1-2.58.88-.64 1.79-1.48 2.71-2.36 2.32-2.2 4.33-4.01 6.99-3.74l2.12.42c-22.54 51.67-62.2 81.36-62.33 81.45 0-.01-12.87-14.64-28.23-37.75m-25.64-44.96c3.68.76 7.08 2.21 10.43 4.87 5.87 4.66 9.05 5.18 15.34 6.26 6.45 1.41 11.68 7.73 18.66 9.35 12.91 2.8 18.47 11.14 8.33 9.94-2.04-.39-5.06-1.54-8.28-2.83-4.33-1.73-8.75-3.37-11.62-3.46-7.61-.18-11.69-.05-17.38 4.66-5.28-8.89-10.56-18.55-15.48-28.79"/><path fill="#8C4200" d="M523.26 590.71c-1.56-7.72-6.12-15.44-9.45-22.46-5.49-11.01-11.42-22.87-14.82-37.57-4.07-18.51-3.78-52.97-3.48-79.52l.13-20.15c-.02-.15-.15-.52-.34-.98-.36-.9-.73-1.92-.61-2.43 1.72-3.17 5.66-5.86 6.22-4.24.01.57.19 1.17.39 1.79.15.47.29.93.36 1.38.39 3.22.29 3.29.06 3.5-.06.05-.12.1-.19.21-.11.11-.61.22-.67.52l-.05 5.72c-.26 27.94-.59 74.82 3.92 93.07 4.64 17.89 14.09 37.34 21.02 47.27 4.6 6.18 9.64 8.73 14.75 15.6 4.86 7.79-2.89 12.71-8.77 10.45-5.66-2.75-7-5.05-8.47-12.16"/><path clip-rule="evenodd" fill="#fff" d="m461.94 506.23-.55-.17c-1.75-.6-3.46-1.71-4.88-3.19-1.88-2.24-3.06-5.06-3.58-8.77-.1-1.03-.09-3.55 0-4.53.4-2.74 1.15-4.9 2.26-6.58.35-.47.98-1.16 1.37-1.49.98-.75 2.11-1.24 3.4-1.48.91-.15 1.46-.15 2.55-.03 1.54.2 2.55.53 3.78 1.2 1.55.94 2.66 2.07 3.56 3.64.55 1.09 1.25 3.26 1.41 4.28.03.57-.11.88-.49 1.06-.12.04-.71.18-1.31.3-1.24.23-1.38.21-1.67-.11-.18-.23-.24-.38-.4-1.04-.08-.28-.25-.84-.4-1.25-.24-.64-.33-.82-.64-1.27-.32-.45-.45-.59-.92-.96-1.09-.79-2.15-1.14-3.53-1.18-1.02.04-1.99.36-2.71.89-1.47 1.39-2.21 3.73-2.22 7.2.28 4.72 1.55 6.99 4.72 8.5.62.22 1.86.41 2.52.38.96-.11 2.24-.56 3.05-1.05l.28-.18v-2.88l-2.44-.39-2.45-.39-.15-.17c-.09-.09-.2-.26-.26-.38-.11-.21-.11-.23-.11-1.92s0-1.72.11-1.89c.06-.1.18-.23.27-.3l.15-.12 4.19.65 4.19.65.15.16c.08.09.2.27.26.41l.11.24.01 4.41c.01 4.72-.01 4.87-.22 5.2-.07.09-.35.34-.64.57-2.08 1.54-4 2.25-6.24 2.32-.57-.02-2.17-.24-2.53-.34M483.84 509.81c-2.25-.63-3.74-1.62-5.05-3.3-1.17-1.73-1.73-3.51-2.04-6.65-.07-.86-.08-1.75-.08-8.64.01-7.43.03-7.68.1-7.9.06-.12.17-.28.26-.36l.17-.14 1.44.21c1.39.2 1.44.21 1.65.36.13.11.25.27.32.41l.11.24.02 7.97c.02 7.02.04 8.03.09 8.6.2 1.48.37 2.01.9 2.79.71.95 1.33 1.33 2.67 1.62 1.24.22 2 .17 2.75-.14.83-.45 1.16-1.08 1.48-2.92.1-.68.1-.78.14-8.64.04-8.86 0-8.19.39-8.46l.17-.14 1.5.23c1.67.26 1.62.24 1.89.74l.13.24.01 7.14c0 7.17-.04 8.66-.17 9.99-.39 2.9-1.07 4.41-2.52 5.72-.49.4-.68.53-1.16.76-.75.35-1.55.53-2.53.57-.51 0-2.12-.19-2.64-.3M503.44 512.45c-.07-.03-.2-.18-.32-.33-.23-.35-.29-.6-.23-.97l7.29-22.8c.24-.34.28-.35 1.95-.08 1.67.26 1.71.28 1.95.69l3.91 12.65c3.32 10.89 3.76 12.47 3.79 12.75-.01.37-.1.56-.36.78-.16.11-.16.11-1.82-.15l-1.67-.25-.18-.21c-.23-.27-.22-.23-1.3-3.98l-.94-3.22c-.06-.1-.23-.14-3.33-.63-3.11-.48-3.26-.5-3.32-.41l-.93 3.08c-.5 1.64-.95 3.06-.99 3.17-.06.1-.17.23-.25.29-.16.12-.17.12-1.65-.11-.82-.12-1.54-.25-1.6-.27m10.62-10.27-1.88-6.68c-.02-.07-.03-.05-.07.08l-1.91 6.17c.01.01.86.18 1.95.36l1.98.3-.07-.23M529.09 516.38c-.21-.14-.42-.44-.5-.75l-.01-12.24.03-11.98.13-.2c.26-.38.22-.38 2.5-.03 1.9.29 2.04.33 2.21.45.09.08.21.23.26.35l2.35 9.12 2.27 8.92 2.34-8.16 2.44-8.4c.26-.43.23-.42 2.31-.11 1.78.27 1.85.29 2.03.43.09.09.22.26.29.39l.12.25-.02 12.06c-.01 11.38-.04 12.06-.1 12.24-.05.1-.16.25-.26.33l-.18.15-1.45-.23c-1.43-.21-1.44-.21-1.6-.38-.08-.09-.2-.25-.26-.37l-.11-.22-.02-6.92-.01-6.92-.25.88-1.92 6.69c-1.6 5.6-1.68 5.8-1.85 6.03-.12.14-.25.22-.35.24-.09 0-.69-.07-1.35-.17-1.14-.18-1.19-.19-1.4-.35-.12-.1-.25-.26-.31-.38l-1.97-7.51-1.9-7.31-.05 6.95c0 7.77.03 7.25-.36 7.49l-.19.13-1.36-.2c-.74-.11-1.41-.24-1.5-.28v.01"/><path clip-rule="evenodd" fill="#BD0728" d="M461.81 505.15c-2.53-.86-4.52-2.41-6-4.67-1.1-1.93-1.79-4.16-2.09-6.76-.06-.85-.06-2.79.01-3.58.35-2.77 1.16-5.03 2.35-6.71 2.41-2.67 6.11-3.16 9.92-1.28 2.24 1.39 3.41 3.08 4.27 6.22.11.43.17.78.17.8l-2.05.4c-.08-.01-.12-.09-.25-.58-.37-1.38-.89-2.48-1.46-3.21-1.42-1.51-3.01-2.17-5.23-2.16-1.43.12-2.62.73-3.49 1.77-1.14 1.64-1.68 3.48-1.81 6.31-.03 2.79.35 4.82 1.22 6.76 1.78 3.12 4.62 4.59 7.91 4.11.98-.25 1.99-.71 2.77-1.27l.34-.26.01-2.22v-2.22l-2.74-.42-2.74-.43v-2.72l3.92.61 3.92.6-.01 4.34-.01 4.33-.43.34c-1.84 1.38-3.48 2.05-5.42 2.25-.72.03-2.34-.16-3.08-.35M483.52 508.67c-1.82-.59-3.08-1.45-4.14-2.82-.88-1.29-1.37-2.65-1.67-4.72-.18-1.46-.2-2.19-.2-9.81l.01-7.46 1.2.19 1.2.19.01 7.95c.01 8.47.01 8.33.26 9.64.41 1.74 1.24 2.92 2.63 3.74 1.16.55 2.5.77 3.8.6 1.52-.33 2.18-1.06 2.66-2.96.3-1.42.3-1.27.33-9.7l.03-7.75 1.2.19 1.2.18-.01 7.2-.07 8.14c-.28 3.72-.94 5.32-2.68 6.69-.72.48-1.59.77-2.64.88-.46.01-2.59-.24-3.12-.37M503.81 511.15l3.56-11.18 3.46-10.86 1.3.19 1.3.19 3.72 12.22 3.76 12.35c.02.11-.04.11-1.32-.09l-1.36-.21-.24-.82-1.06-3.71-.83-2.88-3.91-.63-3.91-.63-1.02 3.4-1.01 3.39-1.28-.2-1.27-.2.11-.33m11.49-7.6-1.18-4.22-1.59-5.82-.45-1.74c-.01 0-.1.34-.2.85-.32 1.62-.62 2.71-1.73 6.29l-1.13 3.66c-.01.11.11.13 3.13.6s3.14.49 3.15.38M529.41 503.67l.02-11.76 1.81.3 1.81.3 2.45 9.74 2.62 10.49c.1.41.19.71.19.72l.67-2.38 2.73-9.64 2.07-7.29 1.62.23 1.63.23-.02 11.75-.02 11.76-1.15-.17-1.14-.18.01-9.87-.01-7.94c0-.63.02-1.26-.02-1.88l-2.53 8.75-2.69 9.4-.2.71-1.09-.16-1.08-.17-2.64-10.35-2.68-10.46c-.06.96-.03 1.92-.04 2.88l-.02 7.06-.02 10.04-1.15-.17-1.14-.18.01-11.76"/><path fill="#109421" d="M449.19 415.31c-.89-.52-4.84 2.38-5.18 2.64.15-1.77 9.57-14.07 22.89-14.67 11.58.49 17.91 4.41 22.3 7.21l1.36.86c1.08.27.73-.77.71-.85-.85-2.11-3.22-3.08-4.37-4.44l.75-.21c.85-.22 1.88-.53 1.91-.57-.07-.02-3.66-1.76-4.18-2.26.04-.1 1.49-1.57 1.53-1.62-.18-.12-4.78-3.42-5.02-3.94l2.23-.61c-.03-.02-2.18-1.26-3.43-2.59.03-.17 1.44-1.13 1.53-1.19-2.28-1.26-3.48-1.66-3.78-2.22l.83-1.78c-.04-.03-2.79-1.9-3.84-3.19 0-.04.17-.08.46-.15.46-.12.94-.24.99-.42-.09-.6-.93-1.8-1.76-2.93-.78-1.04-1.28-1.71-1.09-1.86 5.37 1.29 10.33 5.66 13.11 9.66 1.79 2.7 8.51 12.65 10.1 14.47.89.82 1.35.52.84-1.46-.33-.99-1.05-1.98-1.76-2.9-.71-.92-1.22-1.63-1.24-2.2.1-.39.52-.34 1.08-.27.58.07 1 .12.97-.36-.13-.42-.85-1.31-1.74-2.35-1.5-1.75-2.77-3.25-2.23-3.88.35-.19.8-.18 1.29-.16.77.04 1.31.07 1.37-.7-.09-.45-1.04-1.54-2.18-2.76-1.23-1.31-2.28-2.52-2.36-3.04.08-.38.53-.56 1.11-.77.62-.24 1.11-.42 1.13-.88-.35-1.18-3.29-4.23-3.62-5.38.01-.4.37-.55.83-.74.47-.18.82-.33.81-.74-.48-1.34-3.55-3.34-3.93-4.58.25.05 2.86.66 3.08-.26-.41-1.11-4.21-5-4.55-5.99.18.03 2.09.27 2.31-.31-.07-.62-.55-1.61-1.07-2.6-.64-1.21-1.08-2.09-.79-2.42.36-.1.8.6 1.48 1.67 1.25 2.01 2.42 4.04 3.65 1.54.05.04.33 1.33.6 2.88.26 1.47.52 2.66.56 2.69 1.6-1.97 2.06-2.8 2.25-2.81.11.23-.14 2.72.99 8.61.11.24.4-.17.82-.72.48-.63.87-1.17 1.07-.88.18.87.2 5.88.68 7.43.38.61.87-.05 1.46-.79.5-.64.85-1.12.98-.5.19 1.7.08 3.33-.07 4.89-.15 1.67-.25 3.15.05 4.51.18.43.61-.1 1.15-.75.52-.61.89-1.09 1.02-.68.21 1.48.08 2.82-.08 4.19-.15 1.21-.26 2.37-.13 3.55.09.31.39-.04.77-.46.38-.42.66-.76.74-.44.14 1.93.03 3.72-.13 5.7l-.09 1.2c-.16 2.32-.26 5.17.73 2.65 3.88-11.03 20.24-18.95 27.33-14.34-.38.07-4.76.76-4.24 1.59 1.11.75 1.83 1.49 1.93 1.62-.12.02-4.62 1.04-4.68 1.08 1.14 1.41 2.72 3.17 2.72 3.17-.19.41-1.19.1-2.6-.35-1.56-.49-2.83-.87-3.2-.39 0 .17.53.77 1.19 1.47.69.73 1.24 1.35 1.23 1.52-.28.24-1.11.06-2.37-.26-2.12-.53-4.18-1.01-5.03.17-.17.58.43 1.24 1.17 2.02.71.74 1.21 1.27.9 1.65-.01 0-3.53-.12-4.32-.05-.3.14.22.59.96 1.27.92.84 1.71 1.54 1.31 1.89-1.43.51-5.63.56-8.72 3.46-.37.82 2.47.56 7.02-.05 5.34-.6 11.36.54 12.98.97 8.45 2.62 12.82 7.11 14.29 11.4-.01-.01-2.42-2.01-4.61-3.13-.22.11.06 2.26.08 2.45-.83-.63-2.05-3.05-3.13-3.76-.38.07-.61 2.39-.63 2.6-.57-1.63-3.12-3.25-3.26-3.34-.14-.37-.1.39-.09 1.27.01 1.03.07 2.04-.14 1.68-.79-1.65-2.22-3.16-3.16-3.21.04.21.67 3.03.34 2.89-1.23-1.61-2.95-2.37-4.7-3.83-.23-.11-.02.67.2 1.61.21.91.41 1.63.2 1.51l-.26-.24c-1.27-1.17-2.36-2.11-3.66-2.37 0 .01-.01.25 0 .61.01 1.1-.01 2.6-.17 2.68-1.71-.69-3.5-1.17-3.97.6-.5.84-4.28 1.33-4.56 1.36 9 1.67 19.41 7.96 25.7 17.36 3.54 6.14 3.07 17.52 2.91 17.96-.16-.08-.47-1.27-.81-2.79-.31-1.44-.66-2.78-.83-3-.29-.17-.48.17-.75.64-.32.58-.58 1.05-1.04.63-.24-.45-1.31-4.66-1.57-5.16-.26-.22-.43.16-.67.69-.34.75-.62 1.41-1.16.45-.29-.92-.46-4.41-.74-4.92-.33-.22-.57.21-.91.79-.36.62-.62 1.11-.97.66-.33-.79-.9-4.94-1.18-5.52-.29-.23-.43.39-.64 1.17-.19.74-.32 1.3-.56 1.06-.78-1.34-.84-3.44-1.5-4.34-.39-.26-.53.53-.74 1.52-.2.95-.33 1.69-.68 1.34-.83-1.39-1.19-3.95-1.81-5.38-.21-.35-.27.2-.4.94-.16.95-.28 1.85-.71 1.39-.32-.51-.67-1.64-.99-2.78-.39-1.4-.7-2.4-1.03-2.46-.36.33-.68 3.52-.73 3.65-.5-.21-1.02-1.54-1.61-3.19-.63-1.76-1.17-3.13-1.71-3.25-.33.32-.77 3.87-.79 4.06-.46-.08-1.21-1.14-2.11-2.49-1.1-1.66-1.94-2.94-2.5-2.59-.14.33-.13 2.6-.13 2.66-.12.07-.53-.26-1.19-.8-.73-.6-1.6-1.28-2.16-1.49-1.72-.33.07 1.61 1.52 3.32.58.68 1.02 1.23 1.11 1.42-.17.06-2.01.72-1.94 1.17 1.66 1.79 4.32 2.86 4.92 4.26-.02.05-.21.11-.57.22-1.01.29-2.3.65-1.95 1.49 1.41 1.91 3.67 3.07 4.58 4.45-.19-.02-2.36-.37-2.17.4.43.72.98 1.32 1.52 1.89.84.88 1.45 1.57 1.52 2.54-.02.05-.25.07-.62.1-.76.05-1.56.1-1.48.48.9 1.69 1.75 2.21 2.39 3.91-.16-.04-1.82-.46-1.89.42.81 4.31 2.52 5.99 2.6 6.07-.02.2-.36.2-.82.2-.47-.01-.84-.01-.86.21.48 4.37.52 8.47.19 9.09.01-.16.2-3.47-1.45-6.08-.3-.21-2.38-.47-2.45-.48-.06-.2-.04-1.54.03-2.93.06-1.16.1-2.26.07-2.56-.12-.33-.45.02-.86.42-.35.35-.6.61-.66.36-.07-1.1-.06-2.19-.03-3.29.03-1.35.05-2.67-.11-3.99-.07-.06-.56.31-1.16.77-.54.41-.91.71-.95.64.25-2.74.2-4.28-.04-6.3-.07-.12-.57-.16-1.16-.2-.53-.03-.9-.06-.91-.15.63-1.45.92-2.86.81-4.2-.05-.1-.36-.09-.75-.08-.38.01-.67.02-.71-.07.03-.02.42-.16.27-2.81-.06-.19-.51-.25-1.09-.31-.58-.07-1.02-.13-1.09-.31-.11-2.8.11-5.27.11-5.28-.18.11-2.01-.3-2.18-.37l.06-.62c.09-.87.14-1.57-.04-2.21-.93-1.6-4.39-1.93-5.58.03-.23.8-.36 2.79-.92 3.63-.01-.01-.1-.09-.24-.24-.55-.61-1.39-1.53-1.7-1.28-.05.19.06 1.33.22 2.58.17 1.3.28 2.54.23 2.76-.16.13-.49-.38-.94-1.05-.48-.71-.84-1.27-1.02-1.11-.14.57-.38 6.59-.54 7.21l-1.44-2.18c-.35 1.04-.23 4.8-.22 4.88-.19-.13-.44-.76-.69-1.46-.31-.88-.53-1.59-.74-1.15-.25 1.46.59 6.44.6 6.55-.2.31-.44-.18-.74-.77-.29-.56-.49-1-.61-.53-.17 1.16-.16 2.42-.12 3.65l.02.61c-.02.29-.21.11-.47-.1-.29-.24-.51-.44-.57-.12-.15 2.32.07 7.35.08 7.4-.06.07-.2-.21-.44-.69-.53-1.02-1.1-2.25-1.5-1.44-.55 1.99-1.57 7.9-1.79 9.5-.12-1.78-1.02-7.56-1.19-7.89-.79-.3-2.47-.59-2.59-.65-.22-.55.33-1.69 1.05-3.1.68-1.31 1.23-2.45 1.12-3.05-.3-.5-1.28-.69-1.63-.64.38-.71 2.53-5.26 2.71-6.33-.14-.56-1.29-.89-1.61-.91.11-.12.55-.72 1.09-1.48 1.03-1.42 2.41-3.26 2.76-3.53.64-.59-1.51-.79-1.66-.81.04-.28.6-.79 1.41-1.48 1.47-1.24 2.85-2.36 1.86-3.08-.3-.13-.52-.15-.78-.17-.27-.02-.55-.04-.98-.2l4.37-5.74c.64-1.03.39-2.09.11-2.21-.15.05-.76.56-1.51 1.23-1.26 1.13-2.55 2.2-2.96 2.14-.17-.21-.26-1.42-.31-2.71-.05-1.32-.05-2.3-.29-2.08-.85 1.37-2.71 4.43-4.31 6.29 0-.28.06-3.28-.79-3.13-1.2 1.06-3.38 5.84-3.44 5.98-.21.04-.29-.71-.41-1.71-.13-1.04-.21-1.83-.43-1.76-.42.4-2.1 4.35-3.5 6.01-.13.03-.26-.6-.42-1.43-.16-.8-.27-1.4-.39-1.34-1.39 2.02-2.19 4.84-2.2 4.89-.18.13-.33-.4-.53-1.09-.2-.68-.34-1.2-.51-1.05-.95 1.61-2.45 5.89-2.46 5.92-.14-.01-.23-.63-.35-1.44-.11-.78-.21-1.39-.33-1.43-1.88.8-3.48 4.54-3.57 4.77-.28-.95.08-3.59 1.48-6.97 4.36-9.53 11.27-15.47 20.69-18.99.55-.24.58-.55-.03-.82-1.4-.4-3.23-.14-4.81.14-.69.12-1.28.21-1.7.23l-.36-3.17c-.01-.2-.8.3-1.95.98-1.38.82-2.52 1.49-2.66 1.3.01-.95-.19-3.39-.85-3.61-.13.06-1.14.84-2.29 1.76-1.65 1.32-3.13 2.45-3.26 2.4l-.01-.96c-.02-1.58 0-2.3-.38-1.93l-3.78 4.71c.01-.03.16-3.29.02-4.05-.49-.08-4.68 4.12-5 4.45 0 0-.09-2.29-.11-3.39-.05-.02-.69.54-1.66 1.41-1.45 1.31-3.02 2.63-3.25 2.64 0-.05-.04-2.56-.3-3.29m32.84 50.75c0-.01.01-.14.04-.38.01.3.01.43-.04.38m-3.25-15.64c-.02-.04 0-.06.05-.07-.03.05-.04.07-.05.07m1.12-7.3s.01-.01.03-.01c-.02.02-.03.02-.03.01"/><path fill="#8C4200" d="M498.87 422.02c.82 2.05.54 3.87-.73 4.93-1.45.75-2.87.08-3.92-1.84-.81-2.04-.53-3.87.74-4.93 1.45-.74 2.87-.08 3.91 1.84"/><path fill="#8C4200" d="M498.5 425.06c1.2-1.83 2.81-2.09 4.47-.72 1.45 1.65 1.77 3.86.84 5.89-1.2 1.83-2.81 2.09-4.47.71-1.45-1.65-1.76-3.86-.84-5.88"/><path fill="#8C4200" d="M494.58 427.63c1.28-1.95 3-2.23 4.77-.76 1.55 1.76 1.89 4.12.9 6.28-1.28 1.96-3 2.23-4.77.77-1.55-1.76-1.89-4.12-.9-6.29"/><path d="m471.52 561.92 4.17.64v3.96l-4.17-.64v-3.96"/><path fill="#8C4200" d="M450.68 561.33c.08.02 27.3 6.57 44.16 4.79.11.12 1.26 1.3-.61 4.14-2.35 2.54-6.92 2.56-9.97 2.75-.02.04-.61 1.81-.63 2.84.24 1.02 1.65 1.16 2.63 1.09l.84-.08c-.04.21-.36 3.4-10.76 2.6-3.75-.4-14.12-1.86-16.98-6.34.03.01 2.02.45 2.59.39.44-.38.15-2.7-.06-3.34-.41-.26-6.97-1.34-10.98-6.01-.91-1.44-1.32-2.74-1.36-3.25.01 0 1.11.41 1.13.42m14.27 9.45c-.24 1.62-.19 2.68.59 3.24 5.39 1.84 14.53 2.59 15.35 2.06.32-.81.18-2.78.17-2.84-8.66-.24-16.06-2.45-16.11-2.46"/><path fill="#FDF9FF" d="M454.49 560.2c.12-.15 9.91-12.09 7.05-41.35.14.07 10.34 5.08 21.37 26.53.03.04 3.04 4.49 6.85 19.42l-35.27-4.6"/><path fill="#C62139" d="M500.28 319.37c.26.27 86 88.4 86.42 192.27-.42 104.68-86.21 168.88-86.42 169.04-.26-.29-86.56-97.8-86.98-194.7.43-97.69 86.77-166.45 86.98-166.61m-.04 19.93c-.21.17-76.95 61.27-77.37 148.12.42 86.29 77.14 173.05 77.37 173.32.23-.17 76.47-57.21 76.89-150.28-.42-92.5-76.64-170.9-76.89-171.16"/><path fill="#1A1A1A" opacity=".2" d="M8 195.25c327.5-163.36 652.78 101.94 984-62v672c-169.22 83.71-337.69 54.48-508.27 28.22C326.91 809.32 168.24 787.28 8 867.25v-672m31.25 19.39v604.5c305.93-128.05 610.31 95.71 921.5-33.4v-604.5c-306.78 127.34-611.41-96.33-921.5 33.4"/></svg>