<svg xmlns="http://www.w3.org/2000/svg" viewBox="0 0 128 128" style="enable-background:new 0 0 128 128" xml:space="preserve"><path style="fill:#543930" d="M98.9 79.85c-1.25-2.27.34-4.58 3.06-7.44 4.31-4.54 4.65-7.69 2.3-14.72-10.92-22.46-76.97-19.86-80.61 0-2.59 5.44-1.9 10.18 2.41 14.72 2.71 2.86 4.3 5.17 3.06 7.44-1.21 2.21-4.81 2.53-4.81 2.53s.83 2.26 2.83 3.48c1.85 1.13 4.13 1.39 5.7 1.43 0 0 6.15 8.51 22.23 8.51h17.89c16.08 0 22.23-8.51 22.23-8.51 1.57-.04 3.85-.3 5.7-1.43 2-1.22 2.83-3.48 2.83-3.48s-3.61-.32-4.82-2.53z"/><radialGradient id="a" cx="99.638" cy="45.85" r="23.419" gradientTransform="matrix(1 0 0 .4912 -21.055 59.629)" gradientUnits="userSpaceOnUse"><stop offset=".728" style="stop-color:#6d4c41;stop-opacity:0"/><stop offset="1" style="stop-color:#6d4c41"/></radialGradient><path style="fill:url(#a)" d="M63.99 95.79v-9.44l28.57-2.26 2.6 3.2s-6.15 8.51-22.23 8.51l-8.94-.01z"/><radialGradient id="b" cx="76.573" cy="49.332" r="6.921" gradientTransform="matrix(-.9057 .4238 -.3144 -.6719 186.513 79.36)" gradientUnits="userSpaceOnUse"><stop offset=".663" style="stop-color:#6d4c41"/><stop offset="1" style="stop-color:#6d4c41;stop-opacity:0"/></radialGradient><path style="fill:url(#b)" d="M95.1 83.16c-4.28-6.5 5.21-8.93 5.21-8.93l.01.01c-1.65 2.05-2.4 3.84-1.43 5.61 1.21 2.21 4.81 2.53 4.81 2.53s-4.91 4.36-8.6.78z"/><radialGradient id="c" cx="91.953" cy="61.037" r="29.445" gradientTransform="matrix(-.0746 -.8535 .8311 -.0532 42.403 150.055)" gradientUnits="userSpaceOnUse"><stop offset=".725" style="stop-color:#6d4c41;stop-opacity:0"/><stop offset="1" style="stop-color:#6d4c41"/></radialGradient><path style="fill:url(#c)" d="M104.22 58.1c2.86 6.35 1.35 10.9-1.75 13.75-.43.39-3.54 3.89-3.95 5.1 0 0-7.07-8.44-9.18-13.4-.43-1-.81-2.03-.87-3.1-.04-.8.11-1.75.64-2.43.66-.83 11.47-7.25 11.47-7.25 0 .01 3.64 7.33 3.64 7.33z"/><radialGradient id="d" cx="33.471" cy="66.9" r="23.942" gradientTransform="matrix(.0617 -.7148 -.6874 -.0446 79.05 92.535)" gradientUnits="userSpaceOnUse"><stop offset=".725" style="stop-color:#6d4c41;stop-opacity:0"/><stop offset="1" style="stop-color:#6d4c41"/></radialGradient><path style="fill:url(#d)" d="M23.64 57.68c-2.9 6.07-1.34 10.64 2.18 14.49.44.48 2.9 3.01 3.35 4.38 0 0 8.04-9.43 10.39-15.04.48-1.13.91-2.3.97-3.5.04-.9-.12-1.98-.72-2.74-.74-.94-5.17-7.64-6.42-7.64-2.37 0-9.75 10.05-9.75 10.05z"/><radialGradient id="e" cx="49.439" cy="45.85" r="23.419" gradientTransform="matrix(-1 0 0 .4912 98.878 59.629)" gradientUnits="userSpaceOnUse"><stop offset=".728" style="stop-color:#6d4c41;stop-opacity:0"/><stop offset="1" style="stop-color:#6d4c41"/></radialGradient><path style="fill:url(#e)" d="M64.03 95.79v-9.44l-28.57-2.26-2.6 3.2s6.15 8.51 22.23 8.51l8.94-.01z"/><radialGradient id="f" cx="26.374" cy="49.332" r="6.921" gradientTransform="matrix(.9057 .4238 .3144 -.6719 -13.024 100.635)" gradientUnits="userSpaceOnUse"><stop offset=".663" style="stop-color:#6d4c41"/><stop offset="1" style="stop-color:#6d4c41;stop-opacity:0"/></radialGradient><path style="fill:url(#f)" d="M32.92 83.16c4.28-6.5-5.21-8.93-5.21-8.93l-.01.01c1.65 2.05 2.4 3.84 1.43 5.61-1.21 2.21-4.81 2.53-4.81 2.53s4.91 4.36 8.6.78z"/><linearGradient id="g" gradientUnits="userSpaceOnUse" x1="64" y1="4.26" x2="64" y2="31.047" gradientTransform="matrix(1 0 0 -1 0 128)"><stop offset=".001" style="stop-color:#e3e3e3"/><stop offset="1" style="stop-color:#c9c9c9"/></linearGradient><path style="fill:url(#g)" d="M116 120.99V124H12v-3.01c0-14.66 17.69-22.05 38.2-24.25 4.52-.5 9.17-.73 13.8-.74h.14c4.59 0 9.2.26 13.66.78 20.58 2.4 38.2 10.36 38.2 24.21z"/><path style="fill:#b9bbbd" d="M77.8 96.78v7.12c0 5.47-5.61 9.91-12.54 9.91h-2.51c-6.93 0-12.55-4.44-12.55-9.92v-7.15c4.52-.5 9.17-.73 13.8-.74h.14c4.59 0 9.2.26 13.66.78z"/><path style="fill:#b9bbbd" d="M61.78 111.5h4.54V124h-4.54z"/><path style="fill:#99674f" d="M73.08 90.08H54.92v9.98c0 4.51 3.7 8.17 8.26 8.17h1.65c4.56 0 8.26-3.66 8.26-8.17v-9.98h-.01zm18.25-39.65H36.67c-5.89 0-10.71 5.14-10.71 11.41s4.82 11.41 10.71 11.41h54.65c5.89 0 10.71-5.14 10.71-11.41s-4.81-11.41-10.7-11.41z"/><path style="fill:#ba8d68" d="M64 11.07c-17.4 0-33.52 18.61-33.52 45.39 0 26.64 16.61 39.81 33.52 39.81S97.52 83.1 97.52 56.46c0-26.78-16.12-45.39-33.52-45.39z"/><ellipse style="fill:#49362e" cx="47.56" cy="58.81" rx="4.93" ry="5.1"/><ellipse style="fill:#49362e" cx="80.44" cy="58.81" rx="4.93" ry="5.1"/><path style="fill:#613e31" d="M54.98 49.82c-.93-1.23-3.07-3.01-7.23-3.01s-6.31 1.79-7.23 3.01c-.41.54-.31 1.17-.02 1.55.26.35 1.04.68 1.9.39s2.54-1.16 5.35-1.18c2.81.02 4.49.89 5.35 1.18s1.64-.03 1.9-.39c.29-.38.39-1.01-.02-1.55zm32.5 0c-.93-1.23-3.07-3.01-7.23-3.01s-6.31 1.79-7.23 3.01c-.41.54-.31 1.17-.02 1.55.26.35 1.04.68 1.9.39s2.54-1.16 5.35-1.18c2.81.02 4.49.89 5.35 1.18s1.64-.03 1.9-.39c.29-.38.39-1.01-.02-1.55z"/><path style="fill:#99674f" d="M67.86 68.06c-.11-.04-.21-.07-.32-.08h-7.07c-.11.01-.22.04-.32.08-.64.26-.99.92-.69 1.63s1.71 2.69 4.55 2.69 4.25-1.99 4.55-2.69c.29-.71-.06-1.37-.7-1.63z"/><path style="fill:#5d4037" d="M72.42 76.14c-3.19 1.89-13.63 1.89-16.81 0-1.83-1.09-3.7.58-2.94 2.24.75 1.63 6.45 5.42 11.37 5.42s10.55-3.79 11.3-5.42c.75-1.66-1.09-3.33-2.92-2.24z"/><path style="fill:#543930" d="M104.07 25.11c-2.44-3.69-7.91-8.64-12.82-8.97-.79-4.72-59.9-8.23-56.99.82-2.93.12-6.77 1.36-8.8 5.47-2.42 4.9-1.56 8.99-.86 10.95-2.52 2.14-5.69 6.69-3.52 12.6 1.64 4.45 8.17 6.5 8.17 6.5-.46 8.01 1.03 12.94 1.82 14.93.14.35.63.32.72-.04.99-3.97 4.36-17.8 4.03-20.21 0 0 11.35-2.25 22.17-10.22 2.2-1.62 4.59-3 7.13-4.01 13.59-5.41 16.43 3.82 16.43 3.82s9.42-1.81 12.26 11.27c1.07 4.9 1.79 12.75 2.4 18.24.04.39.57.47.72.11.95-2.18 2.85-6.5 3.3-10.91.16-1.55 4.34-3.6 6.14-10.26 2.42-8.88-.53-17.42-2.3-20.09z"/><path style="fill:#b9bbbd" d="M107.67 43.89s-6.08-8.44-32.83-16.69C53.68 20.67 33 20.89 24.41 22.01c0 0-.27.23-.97 1.25 0 0 25.34-2.79 53.64 7.57 10.4 3.81 24.27 8.57 30.01 16.47l.58-3.41z"/><path style="fill:none" d="M64.98 39.18c-24.5-5.1-39.73-6.41-44.54-1.87-.65-6.69 1.14-11.28 3.04-13.89 2.18-3.01 6.41-7.14 9.49-9.25C43.88 6.67 53.2 4 64.02 4c10.59 0 23.57 6.24 33.19 12.73 3.09 2.09 5.18 3.69 7.36 6.69 8.29 11.42-.32 34.26-.32 34.26s-10.6-12.54-39.27-18.5z"/><linearGradient id="h" gradientUnits="userSpaceOnUse" x1="64.041" y1="3.573" x2="64.041" y2="55.333" gradientTransform="translate(0 .677)"><stop offset=".017" style="stop-color:#eee"/><stop offset=".328" style="stop-color:#e3e3e3"/><stop offset=".879" style="stop-color:#c5c5c5"/><stop offset="1" style="stop-color:#bdbdbd"/></linearGradient><path style="fill:url(#h)" d="M60.58 40.53c24.61-4.54 39.81-7.4 47.59-3.08.65-6.69-1.56-11.53-3.6-14.03C95.88 12.75 74.69 4 63.87 4c-10.59 0-30.5 5.09-40.55 19.42-8.11 11.55.32 34.26.32 34.26s8.19-11.85 36.94-17.15z"/><path style="fill:#b9bbbd" d="M20.23 43.89s6.08-8.44 32.83-16.69c21.15-6.52 41.84-6.31 50.42-5.19 0 0 .27.23.97 1.25 0 0-25.34-2.79-53.64 7.57-10.4 3.81-24.27 8.57-30.01 16.47l-.57-3.41z"/><path style="fill:#c4c6c7" d="M108.17 36.73c0 .24 0 .48-.01.72-.01 1.87-.16 3.74-.39 5.55-.14 1.17-.32 2.3-.52 3.4-1.16 6.39-3 11.28-3 11.28S93.99 45.55 66.37 39.47c-.46-.09-.92-.19-1.39-.29-1.56-.33-3.09-.64-4.58-.93-.85-.17-1.69-.33-2.52-.49-20.35-3.88-33.11-4.53-37.44-.45-.65-6.69 1.14-11.28 3.04-13.89.11-.15.22-.3.34-.45.33-.44.7-.89 1.1-1.36 2.3-2.69 5.55-5.73 8.05-7.44 6.82-4.69 13.01-7.49 19.34-8.93h.01c2.96-.67 5.95-1.05 9.04-1.18.42-.02.85-.03 1.26-.04.42-.02.84-.02 1.25-.02.33 0 .67.01 1.01.02 1.72.05 3.5.26 5.31.6.35.06.71.13 1.07.21 8.87 1.91 18.43 6.83 25.95 11.9 1.55 1.05 2.84 1.97 4.02 3 .08.06.15.13.22.2 1.09.99 2.1 2.08 3.12 3.49 2.1 2.89 3.12 6.53 3.46 10.34.09.98.13 1.98.14 2.97z"/><path style="fill:#b9bbbd" d="M107.77 43c-.14 1.17-.32 2.3-.52 3.4-6.5-7.26-19.69-11.8-29.75-15.49-24.85-9.09-47.48-8.37-53.68-7.94.33-.44.7-.89 1.1-1.36 9.72-.95 29.78-.76 50.27 5.56C96.14 33.63 104.81 40.2 107.77 43z"/><linearGradient id="i" gradientUnits="userSpaceOnUse" x1="64.068" y1="123.717" x2="64.068" y2="74.035" gradientTransform="matrix(1 0 0 -1 0 128)"><stop offset=".017" style="stop-color:#eee"/><stop offset=".328" style="stop-color:#e3e3e3"/><stop offset=".879" style="stop-color:#c5c5c5"/><stop offset="1" style="stop-color:#bdbdbd"/></linearGradient><path style="fill:url(#i)" d="m108.23 36.76-.06-.03c-6.53-3.23-38.64-.76-47.77 1.52-.23.06-.45.11-.65.17-34.91 9.97-36.07 18.75-36.11 19.24v.02l-.01-.01c-.05-.16-.58-1.61-1.22-3.88-.57-1.97-1.22-4.55-1.73-7.44-.19-1.09-.36-2.23-.51-3.4-.41-3.46-.55-7.15-.06-10.63.17-1.28.43-2.53.79-3.73v-.01c.55-1.87 1.34-3.61 2.42-5.16C30.61 13.03 41.73 7.5 52.31 5.24h.01c2.68-.57 5.34-.94 7.89-1.12l1.15-.06c.42-.02.85-.03 1.26-.04.42-.02.84-.02 1.25-.02.33 0 .67.01 1.01.02.42.02.86.04 1.3.07 1.28.11 2.62.28 4.01.53.35.06.71.13 1.07.21 3.64.73 7.56 1.94 11.42 3.51.96.39 1.9.8 2.85 1.24h.01c5.93 2.7 11.56 6.21 15.69 10.15.08.06.15.13.22.2.58.55 1.12 1.12 1.64 1.69.4.45.78.9 1.13 1.35.12.15.24.3.35.45 1.64 2.17 3.57 5.4 3.75 10.37.04.93.01 1.92-.09 2.97z"/><path style="fill:#b9bbbd" d="M104.22 22.97c-5.99-.42-28.79-1.23-53.83 7.94-10.04 3.68-23.19 8.21-29.71 15.44-.19-1.09-.36-2.23-.51-3.4 3-2.81 11.69-9.35 32.54-15.78 20.56-6.34 40.71-6.51 50.38-5.55.4.45.78.9 1.13 1.35zm4.01 13.79-.06-.03c0 .24 0 .48-.01.72-4.9-.34-22.72-1.09-41.79 2.02-4.33.71-8.72 1.62-13.04 2.77-10.32 2.76-23.17 8.2-29.69 15.42l-.01.01c-.05-.16-.58-1.61-1.22-3.88 3.88-3.19 14.31-10.76 29.55-14.67 1.92-.49 3.9-.95 5.92-1.36 20.39-4.18 44.69-4.44 50.15-4l.29.03c.04.93.01 1.92-.09 2.97zM85.53 9.58c-8.88.07-25.34 1.72-39.92 7.78-7.18 2.99-20.88 10.43-25.5 14.96.17-1.28.43-2.53.79-3.73v-.01c2.46-2.3 9.23-7.75 22.97-13.12 14.92-5.83 31.1-7.53 38.81-7.12.96.39 1.9.8 2.85 1.24z"/></svg>