<svg xmlns="http://www.w3.org/2000/svg" viewBox="0 0 128 128" style="enable-background:new 0 0 128 128" xml:space="preserve"><path style="fill:#a3673e" d="M76.1 124.17H59.47V4h11.96c.69 0 1.36.29 1.83.8l2.45 2.65c.25.27.39.62.39.99v115.73z"/><path style="fill:#bf855e" d="M72.53 124.17H55.9V5.36c0-.75.61-1.36 1.36-1.36h13.91c.75 0 1.36.61 1.36 1.36v118.81z"/><linearGradient id="a" gradientUnits="userSpaceOnUse" x1="66" y1="81.626" x2="66" y2="96.647"><stop offset=".167" style="stop-color:#424242"/><stop offset=".944" style="stop-color:#424242;stop-opacity:0"/></linearGradient><path style="fill:url(#a)" d="m76.1 83-20.2.02v15L76.1 98z"/><linearGradient id="b" gradientUnits="userSpaceOnUse" x1="66" y1=".007" x2="66" y2="13.477" gradientTransform="rotate(180 66 11.51)"><stop offset=".232" style="stop-color:#424242"/><stop offset=".943" style="stop-color:#424242;stop-opacity:0"/></linearGradient><path style="fill:url(#b)" d="M55.9 22.02 76.1 22V7l-20.2.02z"/><linearGradient id="c" gradientUnits="userSpaceOnUse" x1="63.5" y1="90.335" x2="63.5" y2="28.308"><stop offset=".373" style="stop-color:#9e9e9e"/><stop offset="1" style="stop-color:#bdbdbd"/></linearGradient><path style="fill:url(#c)" d="M108.54 89.63H22.25c-.35 0-.69-.09-.99-.26l-3.97-2.23c-.52-.29-.85-.85-.85-1.45v-71.7c0-.54.44-.99.99-.99h89.1c.48 0 .96.16 1.34.45l1.89 1.45c.5.38.79.98.79 1.6v71.1c.01 1.13-.9 2.03-2.01 2.03z"/><path style="fill:#f5f5f5" d="M106.27 86.67H17.45c-.56 0-1.01-.45-1.01-1.01V14.01c0-.56.45-1.01 1.01-1.01h88.82c.56 0 1.01.45 1.01 1.01v71.65c0 .56-.45 1.01-1.01 1.01z"/><path style="fill:none;stroke:#616161;stroke-width:9;stroke-linecap:round;stroke-miterlimit:10" d="M40.24 38.25h43.04m-42.56 22.5h43.04"/><linearGradient id="d" gradientUnits="userSpaceOnUse" x1="61.861" y1="23.216" x2="61.861" y2="-6.021"><stop offset=".202" style="stop-color:#f5f5f5"/><stop offset="1" style="stop-color:#bdbdbd"/></linearGradient><path style="fill:url(#d)" d="M106.31 26.56h-88.9a.97.97 0 0 1-.97-.97V13.97c0-.54.44-.97.97-.97h88.89c.54 0 .97.44.97.97v11.62c.01.54-.43.97-.96.97z"/><linearGradient id="e" gradientUnits="userSpaceOnUse" x1="49.861" y1="34.691" x2="49.861" y2="5.454" gradientTransform="rotate(-90 49.86 49.835)"><stop offset=".507" style="stop-color:#bdbdbd;stop-opacity:0"/><stop offset="1" style="stop-color:#bdbdbd"/></linearGradient><path style="fill:url(#e)" d="M30.01 13.99v71.69c0 .55-.44.99-.99.99H17.43c-.55 0-.99-.44-.99-.99V13.99c0-.55.44-.99.99-.99h11.59c.54 0 .99.44.99.99z"/></svg>