<svg xmlns="http://www.w3.org/2000/svg" viewBox="0 0 128 128" style="enable-background:new 0 0 128 128" xml:space="preserve"><path style="fill:#ffc022" d="M114.11 70.76C112.31 44.78 94.44 26.3 64 26.3S15.69 44.78 13.89 70.76c-1.05 15.14 5.05 28.01 17.09 36.21 0 0 12.21 9.88 33.02 10.14 20.81-.26 33.02-10.14 33.02-10.14 12.03-8.2 18.14-21.07 17.09-36.21z"/><path style="opacity:.47;fill:#ff7043" d="M54.12 45.02c1.13.96 3.42.82 4.75-.72 1.61-1.87 3.29-8.17 2.24-17.91-4.67.17-9.09.84-13.21 1.97 3.33 5.46 4.13 14.88 6.22 16.66zm19.76 0c-1.13.96-3.42.82-4.75-.72-1.61-1.87-3.29-8.17-2.24-17.91 4.67.17 9.09.84 13.21 1.97-3.33 5.46-4.13 14.88-6.22 16.66z"/><path style="fill:#ffc022" d="M16.38 60.19c-5.26-36.84 8.59-52.2 15.33-55.51 2.13-1.04 4.36-.91 6.1.6 3.19 2.77 1.55 11.99 9.96 23.09"/><path style="fill:#ffd1d1" d="M25.37 44.52c-1.13 1.34-2.29.17-2.36-1.58-.49-12.24 3.45-21.32 6.7-25.58 1.13-1.48 3.48-.96 3.86.87.73 3.54 2.17 8.62 4.88 12.86.56.87.33 2.03-.53 2.6-1.89 1.27-5.1 3.51-7.64 5.71-1.76 1.51-3.51 3.45-4.91 5.12z"/><path style="fill:#ffc022" d="M111.62 60.19c5.26-36.84-8.59-52.2-15.33-55.51-2.13-1.04-4.36-.91-6.1.6-3.19 2.77-1.55 11.99-9.96 23.09"/><path style="fill:#ffd1d1" d="M102.63 44.52c1.13 1.34 2.29.17 2.36-1.58.49-12.24-3.45-21.32-6.7-25.58-1.13-1.48-3.48-.96-3.86.87-.73 3.54-2.17 8.62-4.88 12.86-.56.87-.33 2.03.53 2.6 1.89 1.27 5.1 3.51 7.64 5.71 1.76 1.51 3.51 3.45 4.91 5.12z"/><path d="M55.96 68.97c-.05-2.86 4.06-4.24 7.95-4.3s8.07 1.2 8.12 4.06c.05 2.86-4.86 6.64-7.95 6.64-3.08 0-8.07-3.54-8.12-6.4z"/><path style="fill:#fffde7" d="M86.82 68.76c-5.2 0-9.65-3.87-10.59-9.21-.51-2.92.1-5.85 1.73-8.26 1.62-2.39 4.04-3.97 6.82-4.46.59-.1 1.18-.15 1.77-.15 5.2 0 9.65 3.87 10.59 9.21.51 2.92-.1 5.85-1.73 8.26-1.62 2.39-4.04 3.97-6.82 4.46-.58.1-1.17.15-1.77.15z"/><path style="fill:#ef6c00" d="M86.56 48.18c4.47 0 8.3 3.35 9.11 7.97.44 2.53-.09 5.07-1.5 7.16-1.39 2.05-3.46 3.41-5.84 3.82-.5.09-1.01.13-1.51.13-4.47 0-8.3-3.35-9.11-7.97-.44-2.53.09-5.07 1.5-7.16 1.39-2.05 3.46-3.41 5.84-3.82.5-.08 1.01-.13 1.51-.13m0-3c-.67 0-1.35.06-2.03.18-6.59 1.15-10.97 7.62-9.77 14.45 1.07 6.12 6.25 10.45 12.06 10.45.67 0 1.35-.06 2.03-.18 6.59-1.15 10.97-7.62 9.77-14.45-1.06-6.12-6.25-10.45-12.06-10.45z"/><path style="fill:#fffde7" d="M40.62 68.76c-.59 0-1.19-.05-1.77-.15-2.78-.49-5.21-2.07-6.82-4.46-1.63-2.41-2.24-5.34-1.73-8.26.93-5.34 5.39-9.21 10.59-9.21.59 0 1.19.05 1.77.15 5.77 1.01 9.6 6.71 8.55 12.72-.94 5.34-5.39 9.21-10.59 9.21z"/><path style="fill:#ef6c00" d="M40.88 48.18c.5 0 1.01.04 1.51.13 2.38.42 4.45 1.77 5.84 3.82 1.41 2.08 1.94 4.62 1.5 7.16-.81 4.62-4.64 7.97-9.11 7.97-.5 0-1.01-.04-1.51-.13-4.95-.87-8.24-5.79-7.33-10.98.8-4.62 4.63-7.97 9.1-7.97m0-3c-5.81 0-10.99 4.33-12.06 10.45-1.19 6.83 3.18 13.3 9.77 14.45.68.12 1.36.18 2.03.18 5.81 0 10.99-4.33 12.06-10.45 1.19-6.83-3.18-13.3-9.77-14.45-.68-.12-1.36-.18-2.03-.18z"/><path d="m65.98 80.55-3.95.03c0 2.82-1.22 4.86-3.23 7-2.84 3.02-5.48 6.59-5.48 12 0 7.96 4.79 12.59 10.68 12.59s10.68-4.63 10.68-12.59c0-5.42-2.61-8.84-5.5-12.01-1.83-2.01-3.2-4.19-3.2-7.02z"/><path style="fill:none;stroke:#000;stroke-width:4;stroke-linecap:round;stroke-miterlimit:10" d="M64 70.02v19.82"/><path style="fill:none;stroke:#9e9e9e;stroke-width:3;stroke-linecap:round;stroke-miterlimit:10" d="m108.72 83.22 14.48 1.67m-17.66-15.63 14.08-14.51m-11.6 20.62 16.48-6.11M19.28 83.22 4.8 84.89m17.66-15.63L8.38 54.75m11.6 20.62L3.5 69.26"/><path style="fill:#ff9b17" d="M105.06 87.29c-.08 1.08-.24 2.15-.46 3.2-1.63 7.66-2.96 13.88-.47 21.49 1.36 4.16 3.19 8.31 5.53 12.02H84.37s-6.18-26.67-7.56-33.66c-2.38-12.09 14.16-23.38 24.04-14.94 3.55 3.04 4.54 7.5 4.21 11.89z"/><path style="fill:#ef6c00" d="M81.11 91.67c-2.36-11.16 8.34-18.79 19.01-15.12.84.29 2.14.91 2.31.83.35-.16-.71-1.24-1.58-1.97-9.88-8.45-26.43 2.84-24.04 14.94 1.38 6.98 7.56 33.66 7.56 33.66h4.38c-1.27-5.25-6.36-26.27-7.64-32.34z"/><path style="fill:#ff9b17" d="M22.94 87.29c.08 1.08.24 2.15.46 3.2 1.63 7.66 2.96 13.88.47 21.49-1.36 4.16-3.19 8.31-5.53 12.02h25.29s6.18-26.67 7.56-33.66c2.38-12.09-14.16-23.38-24.04-14.94-3.55 3.04-4.54 7.5-4.21 11.89z"/><path style="fill:#ef6c00" d="M46.89 91.67c2.36-11.16-8.34-18.79-19.01-15.12-.84.29-2.14.91-2.31.83-.35-.16.71-1.24 1.58-1.97 9.88-8.45 26.43 2.84 24.04 14.94-1.37 6.98-7.56 33.65-7.56 33.65h-4.38c1.27-5.24 6.36-26.26 7.64-32.33z"/></svg>