<svg xmlns="http://www.w3.org/2000/svg" viewBox="0 0 128 128" style="enable-background:new 0 0 128 128" xml:space="preserve"><path style="fill:#ffeac9" d="m16.08 63.57 8.45-3.94s-2.06-3.38-2.82-5.26c-.75-1.88-2.06-6.19-4.32-6.19s-3.38 5.26-3.19 8.45c.19 3.19 1.88 6.94 1.88 6.94z"/><path style="fill:#543731" d="M108.13 56.67s2.82-.77 5.7-.28 7.18 2.25 8.09 1.9c.92-.35 1.27-1.9.35-2.82s-14.5-1.9-14.5-1.9l.36 3.1zm.49 14.74 1.81 3.64s4.08 26.4 4.79 26.4c.7 0 2.43.03 2.79-1.64.75-3.47.66-9.39-.66-15.39-1-4.59-3.1-8.45-3.1-8.45s2.13.54 3.75 1.31c1.97.94 4.83 2.67 5.54 2.53.7-.14-.19-3.38-.61-4.08-.42-.71-14.31-4.32-14.31-4.32zM94.45 89.05l.68 7.98 5 14.36s.58-.07 1.6 0c1.92.14 1.17-5.02.33-9.53-.84-4.5-4.11-11.94-4.11-11.94l-3.5-.87zM79.9 101.53l-4.13.66-2.63 17.69s1.5.82 2.49.19c.99-.63 2.39-3.66 3.05-8.63.75-5.63 1.22-9.91 1.22-9.91z"/><path style="fill:#865b52" d="M69.77 26.59s-10.92-1.8-18.21 1.69c-7.84 3.75-13.26 12.2-19.1 19.45-5.3 6.58-10.18 10.96-13 11.71-2.82.75-8.63 1.69-8.63 1.69l-1.5 19.9s-.19 4.5 1.69 5.63 5.82 3.19 7.13 3.19c1.31 0 5.63.56 5.63.56s.19 2.44 3.94 3.94 12.01 3.19 15.96 5.44 14.64 9.2 17.64 11.83c3 2.63 10.75 9.18 12.95 8.45 1.13-.38 2.21-16.66 3-17.08s8.56 4.32 13.51 6.01c5.09 1.74 9.39 2.93 9.95 2.44.82-.72-.19-6.57-1.5-10.32s-3.8-8.89-2.86-10.02 17.67 11.54 19.22 10.28c.77-.63.54-10.41-.73-16.82-1.41-7.11-3.99-10-3.5-10.84.43-.73 4.86.38 7.3 1.6 1.94.97 4.39 2.7 4.79 2.16.56-.75-3.4-8.59-6.03-12.34-3.94-5.63-8.99-9.43-8.99-10 0-.56 3.34-.59 6.59-.21 3.4.4 7.39 2.06 7.67 1.53.28-.54-1.5-4.32-5.63-8.45-4.13-4.13-13.33-7.7-13.33-7.7l-5.26-16.52s1.07-2.44.38-4.5c-.73-2.16-2.48-2.67-2.63-3.19-.14-.52 4.13-4.32.38-7.51s-14.83 4.32-18.96 8.26c-4.12 3.92-7.87 9.74-7.87 9.74z"/><path style="fill:#543731" d="M90.46 27.11s6.18-4.13 14.5-5.77c9.29-1.83 14.34-1.27 16.4-1.27 2.32 0 2.82 1.13 1.69 4.29s-3.33 9.75-6.76 14.92c-3.73 5.63-6.97 9.22-12.11 11.61-5.14 2.39-16.15 5.15-16.82 1.9-.42-2.04 1.64-2.35 5.42-5.07 4.01-2.89 7.53-6.48 6.12-9.08s-6.97-.92-12.11 2.53c-5 3.35-8.59 8.73-11.61 5.77-3.03-2.96 1.9-8.73 3.66-10.77 1.76-2.04 6.34-5.7 6.34-5.7s-2.82-.84-4.79-1.2c-1.97-.35-6.76-1.69-6.76-1.69s5.98-1.2 10.07-1.06c4.09.17 6.76.59 6.76.59z"/><path style="fill:#ffeaca" d="M38.44 89.4s-2.25-6.41-1.76-12.32 2.11-10.14 4.79-9.85c2.67.28 4.01 5.98 4.72 8.52.7 2.53 1.41 4.15 1.83 4.65s2.89 3.03 2.89 3.03l-6.05 5-6.42.97z"/><path style="fill:#503430" d="M51.75 83.21c.96 1.23.34 3.18-2.04 5-2.39 1.83-6.72 3.54-13.63 4.5-5.37.75-9.17.33-11.03-.05-2.18-.44-3.07-1.15-3.07-1.15s-3.68-.54-6.87-1.95c-2.91-1.28-5.96-3.61-5.73-4.36.42-1.35 5.63 2.37 9.01 3.14s8.02.84 12.74.63c4.72-.21 9.6-1.38 12.67-2.82 4.36-2.02 6.47-4.84 7.95-2.94z"/><path style="fill:#ffd3b0" d="M10.43 60.26c-2.93-.51-5.92 5.08-5.98 10.44-.07 5.58 1.27 8.42 1.97 10.32s2.21 5.02 4.88 5.02c2.52 0 10.36-5.02 10.61-11.22.27-7.1-5.43-13.5-11.48-14.56z"/><ellipse style="fill:#47302d" cx="13.52" cy="72.09" rx="2.18" ry="4.15"/><path style="fill:#47302d" d="M7.96 70.44c-.11 2.29-1.07 4.35-2.11 4.3s-1.43-2.4-1.31-4.69c.11-2.29.7-3.9 1.74-3.85s1.79 1.95 1.68 4.24z"/><ellipse transform="rotate(-81.368 61.794 56.808)" style="fill:#090a0b" cx="61.8" cy="56.81" rx="6.31" ry="4.3"/><ellipse transform="rotate(-66.665 59.984 54.175)" style="fill:#fffcff" cx="59.98" cy="54.17" rx="2.92" ry="1.69"/><path style="fill:#b79277" d="M71.88 97.82c.92.07 2.01-14.33-3.87-11.76-6.76 2.96 2.95 11.69 3.87 11.76zm13.68-13.43c.49-.77-5.19-11.53-8.31-7.18-3.92 5.48 7.72 8.11 8.31 7.18zM93.4 68.8c.19-.46-7.75-10.35-10.03-4.16-1.68 4.52 9.68 4.99 10.03 4.16zm8.89 15.43c.28-.49-5.36-11.22-8.59-6.41-3.03 4.51 8.3 6.9 8.59 6.41zM87.01 99.97c.69-.44-2.75-10.98-6.55-7.74-3.77 3.22 5.78 8.24 6.55 7.74z"/></svg>