<svg xmlns="http://www.w3.org/2000/svg" viewBox="0 0 128 128" style="enable-background:new 0 0 128 128" xml:space="preserve"><path style="fill:#474d50" d="M90.39 80.18s12.95-10.56 14.71-11.83c1.3-.93 3.02-2.13 4.58-.42 1.51 1.65-.07 3.78-1.27 4.93-1.62 1.55-15.06 12.67-15.06 12.67l-2.96-5.35z"/><path style="fill:#474d50" d="M98.27 65.47c-2.08.6-1.9 3.03-1.62 5.42.28 2.39.35 6.48.35 6.48l4.58-4.79s-.21-1.69-.21-3.17-.42-4.71-3.1-3.94zM37.1 77.65S25.06 67.44 24.01 66.39c-1.41-1.41-3.73-2.39-5.21-.63-1.47 1.75-.39 3.76.92 5.07 2.46 2.46 15.2 13.23 15.2 13.23l2.18-6.41z"/><path style="fill:#474d50" d="M27.81 72.65s.28-3.59.42-5.07c.14-1.48.99-4.08 3.38-3.17 2.01.77 1.62 3.1 1.34 5-.2 1.32-.99 6.05-.99 6.05l-4.15-2.81zM67.23 4.23c-8.74-.53-15.55 1.06-15.84 2.33s-.35 19.64-.35 19.64-12.1.5-12.32 3.59c-.21 3.03 6.55 5.14 24.64 5.63s26.67.06 27.1-3.38c.49-3.94-10.49-4.58-10.49-4.58S82.5 8.74 82.15 8.17 76.52 4.8 67.23 4.23z"/><path style="fill:#a42718" d="M65.54 21.83c-6.75-.27-14.5.42-14.5.42v3.94s6.19-.42 13.87-.21 15.06 1.48 15.06 1.48l.49-3.8s-5.98-1.48-14.92-1.83z"/><path style="fill:#e0e0e0" d="M43.23 69.84s-6.03-5.79-5.35-18.51c.7-13.09 9.85-18.16 12.53-18.93 2.67-.77 8.66-1.27 14.85-.99 6.19.28 14.29 1.2 15.77 1.83s10 6.34 10.07 19.38c.07 12.3-6.83 18.21-6.83 18.21s12.55 8.92 14.05 21.02c1.5 12.11-4.31 22.54-14.36 28.06-11.45 6.29-31.63 7.13-44.02-2.53-8.85-6.91-11.92-17.55-10.32-27.12 1.97-11.85 13.61-20.42 13.61-20.42z"/><path style="fill:#303030" d="M51.84 45.93c-2.91-.52-3.99 1.92-4.18 3.71-.19 1.78.44 4.21 2.39 4.55 2.11.38 3.8-1.17 4.08-4.09.26-2.55-.93-3.93-2.29-4.17zm21.07 4.27c-.22 2.64 1.43 4.22 3.24 4.27 1.88.05 3.29-1.57 3.44-4.31.14-2.53-1.27-3.8-3.2-3.81-1.98-.01-3.29 1.64-3.48 3.85zM56.43 60.47c-1.13.95.07 2.83 2.53 3.94 2.57 1.16 6.9 1.51 10.31-.21 1.76-.89 2.71-2.46 1.79-3.24-.77-.65-1.83-.22-2.9.35-1.11.6-2.99 1-4.49.95-1.5-.05-3.45-.81-4.15-1.23-1.12-.66-2.01-1.47-3.09-.56z"/><path style="fill:#ffa72b" d="M60.05 52.54c-.14.56 2.6 7.33 3.91 7.19 1.3-.14 3.45-7.23 3.27-7.75-.18-.53-2.32-.77-3.55-.74s-3.49.74-3.63 1.3z"/><path style="fill:#303030" d="M59.37 84.1c0 3.45 2.97 3.85 4.3 3.82 1.96-.05 3.66-1.48 3.55-3.87s-1.38-3.49-3.76-3.61c-2.13-.1-4.09 1.43-4.09 3.66zm.59 14.48c-.04 2.12 3.16 3.23 4.88 2.97 2.12-.32 3.73-2.85 2.97-5.09-.85-2.49-3.45-2.49-4.77-2.23-1.33.26-3.03 1.43-3.08 4.35z"/></svg>