<svg xmlns="http://www.w3.org/2000/svg" viewBox="0 0 128 128" style="enable-background:new 0 0 128 128" xml:space="preserve"><path style="fill:#82aec0" d="M103.27 123.99s5.29.61 13.72-7.81 6.45-12.8 6.45-12.8l-18.51-20.2-21.56 22.54 19.9 18.27z"/><path style="fill:#2f7889" d="m122.01 101.81-2.55-2.78c-2.03 5.97-5 11.56-8.78 16.56-1.09 1.44-3.21 1.58-4.51.33l-.31-.3a3.027 3.027 0 0 1-.27-4.06 62.327 62.327 0 0 0 9.61-17.19l-2.88-3.14a58.555 58.555 0 0 1-9.06 17.22c-1.09 1.44-3.21 1.58-4.51.32a3.027 3.027 0 0 1-.27-4.06 62.67 62.67 0 0 0 9.9-17.78l-2.43-2.68-21.3 22.66 18.59 17.07s2.82.46 8.15-3.07c-.01-.02 5.47-2.92 10.62-19.1z"/><path style="fill:#82aec0" d="m100.84 52.4 10.85 10.85a5.55 5.55 0 0 1 1.55 4.79l-2.38 14.7c-.19 1.15-.73 2.2-1.55 3.02l-23.19 23.19c-.82.82-1.88 1.36-3.03 1.55l-14.69 2.37c-1.75.28-3.53-.29-4.78-1.55l-10.85-10.85 48.07-48.07z"/><path style="fill:#b9e4ea" d="m81.98 54.91 16.35-3.35c1.97-.4 3.72 1.34 3.32 3.32l-3.12 15.24a6.592 6.592 0 0 1-1.79 3.33L73.81 96.37c-.91.91-2.07 1.53-3.33 1.79l-15.24 3.12c-1.97.4-3.72-1.34-3.32-3.32l3.35-16.35c.11-.54.38-1.03.77-1.42l24.52-24.52c.39-.38.88-.65 1.42-.76z"/><path style="fill:#82aec0" d="M62.49 86.04s6.53 3.92 17.41-6.95 5.95-16.21 5.95-16.21L64.8 40.5 39.74 66.26l22.75 19.78z"/><path style="fill:#2f7889" d="m84.64 61.6-3.04-3.23a69.025 69.025 0 0 1-9.65 18.97c-1.26 1.75-3.79 1.94-5.34.45l-.33-.32a3.564 3.564 0 0 1-.37-4.71 73.474 73.474 0 0 0 10.64-19.75l-3.43-3.64a68.774 68.774 0 0 1-9.88 19.59c-1.26 1.74-3.79 1.93-5.34.44a3.553 3.553 0 0 1-.36-4.71A73.585 73.585 0 0 0 68.48 44.4l-2.76-2.95-25.16 25.53 21.93 19.06s1.71 1.19 5.69.42c3.71-.72 6.98-3.31 6.98-3.31s-.53-.05-.83-.3c-.3-.26-.77-1.07-.19-1.85 4.44-5.89 8-12.42 10.5-19.4z"/><path style="fill:#82aec0" d="m58.95 4.97 11.18 11.18a7.7 7.7 0 0 1 2.18 6.55l-2.23 15.51c-.24 1.65-1 3.18-2.18 4.36L42.91 67.55a7.71 7.71 0 0 1-4.34 2.18L23 72.01a7.7 7.7 0 0 1-6.57-2.18L5.26 58.66 58.95 4.97z"/><path style="fill:#b9e4ea" d="M39.74 7.45 56.3 4.06c2.1-.43 3.95 1.42 3.52 3.52l-3.5 17.12c-.29 1.44-1 2.75-2.04 3.79L28.85 53.92a7.424 7.424 0 0 1-3.79 2.04L7.94 59.47c-2.1.43-3.95-1.42-3.52-3.52l3.39-16.56a9.39 9.39 0 0 1 2.56-4.75L35 10.01a9.32 9.32 0 0 1 4.74-2.56z"/><path style="fill:#2f7889" d="M17.27 59.53c-4.4 1.59-6.51 4.64-6.51 4.64l5.66 5.66a7.73 7.73 0 0 0 6.57 2.18l15.58-2.28-10.83-10.84s-6.07-.95-10.47.64zm57.62 41.04s-7.95 0-12.77 1.42c-2.6.77-3.97 1.97-4.69 3.13l6.19 6.19a5.531 5.531 0 0 0 4.78 1.55l14.69-2.37c.49-.08.96-.24 1.41-.44l-9.61-9.48z"/><path style="fill:#94d1e0" d="M59.62 15.42c-1.4 5.82.17 14.28.17 14.28l9.58 10.8c.35-.72.6-1.49.71-2.3l2.23-15.51a7.69 7.69 0 0 0-2.18-6.55l-6.28-6.28c-.01 0-3.11.91-4.23 5.56zm45.4 41.17c-.91 1.25-2.39 2.94-3.32 6.39-1.05 3.87-.35 12.26-.35 12.26l9.02 9.02c.23-.48.4-.99.49-1.52l2.38-14.7c.28-1.75-.29-3.53-1.55-4.79l-6.67-6.66z"/></svg>