<svg xmlns="http://www.w3.org/2000/svg" viewBox="0 0 128 128" style="enable-background:new 0 0 128 128" xml:space="preserve"><path style="fill:#65a21b" d="m70.35 64.45-6.17-2.49-6.84 4.52s1.79 1.57 1.79 3.79c0 2.22-1.28 17.46-.03 27.49 1.11 8.88 4.16 15.27 6.8 18.74 2.64 3.47 7.91 7.22 9.44 7.22 1.53 0 5.14-2.91 6.38-6.94 1.25-4.03-7.22-2.78-7.22-2.78s-6.44-3.54-8.05-15.54c-1.24-9.2-.79-19.56-.69-23.46.15-5.83 4.59-10.55 4.59-10.55zM28.91 34.59s1.43-4.12-5.65-3.15c-2.94.4-11.34 2.76-12.5 12.41-.97 8.05 3.67 12.07 3.52 14.08-.19 2.68-8.52 6.57-7.63 17.63.85 10.5 10.92 14.32 15.78 12.65 8.88-3.06 6.48-53.62 6.48-53.62zm25.9-8.3S45.77 13.7 48.82 9.68c2.55-3.36 6.32-6.01 12.87-5.74 9.08.37 12.22 8.33 14.07 8.61.85.13 6.66-4.86 14.99-2.91s9.58 9.16 9.99 11.1-45.93 5.55-45.93 5.55zm45.66 32.33s13.32-12.91 16.38-10.27c3.05 2.64 4.99 7.63 4.58 11.94-.83 8.74-5.55 9.99-5.41 11.1s3.33 1.8 3.19 10.13c-.12 7.17-7.05 15.41-16.62 16.1-9.58.7-4.89-34.41-2.12-39z"/><path style="fill:#8bc02b" d="M60.12 57.46c2.07-1.66-1.01-3.28-4.06-7.16C53 46.41 44.82 35.74 44.68 22.95c-.07-5.97 1.94-10.55 4.22-13.39 2.09-2.61 5.83-2.66 8.27-2.43 11.8 1.11 14.34 14.08 16.79 14.57 2.08.42 9.1-9.08 20.14-7.31 7.5 1.2 9.86 12.6 3.98 21.11-6.8 9.85-18.57 17.04-22.32 18.98-3.75 1.94-4.58 2.87-3.89 4.54s3.21-.15 5.41-1.8c8.74-6.52 18.6-12.77 26.09-13.05s11.8 2.22 13.46 4.16c1.67 1.94 2.36 9.02 0 13.6-2.33 4.53-8.33 7.77-8.47 8.88-.14 1.11 5.69 5.97 4.72 14.85-.64 5.82-3.75 9.58-5.83 10.96-2.08 1.39-10.87 2.46-17.21-.83-6.94-3.61-14.57-13.32-17.9-18.74-3.33-5.41-5.7-11.05-9.02-11.24-4.86-.28-10.55 9.99-23.32 17.07-9.53 5.28-17.63 7.08-21.79 5.41s-6.36-9.56-5.97-14.71c.85-10.93 11.26-12.6 11.26-14.68s-6.66-6.25-6.11-15.82c.47-8.07 4.3-10.96 5.69-11.52 1.39-.56 10.13-.97 16.38 3.61s10.83 12.77 13.6 15.96c2.78 3.19 5.18 8 7.26 6.33z"/><path style="fill:#bbd046" d="M59.36 38.11s-2.47-2.16-4.7-.41c-1.85 1.45-.82 5.01.72 7.05 1.53 2.04 3.41 3.7 5.42 2.76 1.98-.93 1.12-4.7 1.12-4.7s1.53 1.68 3.78 1.64c3.33-.06 4.6-2.76 4.6-2.76s0 2.04 2.25 3.37 4.7.31 4.7.31-1.02 1.94.2 3.07c1.23 1.12 2.86.31 4.8-2.15 1.94-2.45 2.96-5.01.92-6.34s-4.7.31-4.7.31 1.67-5.34-1.53-6.64c-2.46-1-3.99 1.23-3.99 1.23s-.82-3.07-3.78-3.07-3.88 2.86-3.88 2.86-2.25-2.04-4.19-.82-1.74 4.29-1.74 4.29zm21.01 24.02c.44 2.11 2.33 2.11 2.33 2.11s-1.45.15-1.74 1.6.29 1.96.29 1.96-2.4-.58-3.49 1.31c-.8 1.38 0 2.76 0 2.76s-1.45-.22-2.54 1.45.87 5.44 3.42 7.41c2.91 2.25 6.63 4.17 8.14 1.45 1.45-2.62-1.09-5.31-1.09-5.31s2.91 1.02 4.07-1.16c.92-1.73-.15-3.2-.15-3.2s1.16.07 1.53-1.53c.64-2.8-2.54-3.56-2.54-3.56s5.5.37 5.67-4.51c.15-4.22-5.02-3.85-5.02-3.85s1.55-2.37 0-3.63c-3.57-2.9-9.46 3.88-8.88 6.7zm-29.66-6.25c.73-1.53.07-3.49-3.05-5.82-3.32-2.47-5.23-2.4-6.25-1.38-1.02 1.02-.36 2.54-.36 2.54s-2.11.29-2.25 2.11c-.15 1.82 1.45 2.47 1.45 2.47s-2.47.51-2.47 2.91 1.82 3.05 1.82 3.05-3.71 1.6-2.54 4.22c1.23 2.76 6.91 2.18 6.91 2.18s-6.4 4.87-3.63 7.85c2.76 2.98 13.08-3.52 10.83-7.63-1.31-2.4-3.71-1.53-3.71-1.53s1.53-1.53 1.45-3.34c-.07-1.82-2.69-2.98-2.69-2.98s1.24-.65 1.31-1.6c.07-.95-.8-2.04-.8-2.04s3.18.66 3.98-1.01z"/></svg>