<svg xmlns="http://www.w3.org/2000/svg" viewBox="0 0 128 128" style="enable-background:new 0 0 128 128" xml:space="preserve"><linearGradient id="a" gradientUnits="userSpaceOnUse" x1="64" y1="40" x2="64" y2="5.66" gradientTransform="matrix(1 0 0 -1 0 128)"><stop offset="0" style="stop-color:#f78c1f"/><stop offset=".482" style="stop-color:#f47f12"/><stop offset="1" style="stop-color:#ef6c00"/></linearGradient><path style="fill:url(#a)" d="M80.74 88.51c-2.85-.54-30.62-.54-33.47 0C29.22 91.94 16 100.9 16 117.88V124h96v-6.12c0-16.98-13.22-25.94-31.26-29.37z"/><path style="fill:#ab872f" d="M99.02 86.36c-1.25-2.23.34-4.5 3.06-7.3 4.31-4.46 9-14.78 4.64-25.26.03-.06-.86-1.83-.83-1.88l-1.79-.09c-.57-.08-20.26-.12-39.97-.12-19.71 0-39.4.04-39.97.12 0 0-2.65 1.91-2.63 1.97-4.35 10.49.33 20.81 4.64 25.26 2.71 2.81 4.3 5.07 3.06 7.3-1.21 2.17-4.81 2.48-4.81 2.48s.83 2.22 2.83 3.41c1.85 1.1 4.13 1.36 5.7 1.4 0 0 6.15 8.35 22.23 8.35h17.9c16.08 0 22.23-8.35 22.23-8.35 1.57-.04 3.85-.3 5.7-1.4 2-1.19 2.83-3.41 2.83-3.41s-3.61-.32-4.82-2.48z"/><radialGradient id="b" cx="99.519" cy="37.887" r="23.419" gradientTransform="matrix(1 0 0 .4818 -20.817 70.36)" gradientUnits="userSpaceOnUse"><stop offset=".728" style="stop-color:#bfa055;stop-opacity:0"/><stop offset="1" style="stop-color:#bfa055"/></radialGradient><path style="fill:url(#b)" d="M64.11 102v-9.26l28.57-2.22 2.6 3.13S89.13 102 73.05 102h-8.94z"/><radialGradient id="c" cx="76.454" cy="41.369" r="6.921" gradientTransform="matrix(-.9057 .4157 -.3144 -.659 184.02 80.681)" gradientUnits="userSpaceOnUse"><stop offset=".663" style="stop-color:#bfa055"/><stop offset="1" style="stop-color:#bfa055;stop-opacity:0"/></radialGradient><path style="fill:url(#c)" d="M95.22 89.61c-4.28-6.38 5.21-8.75 5.21-8.75l.01.01c-1.65 2.01-2.4 3.77-1.43 5.5 1.21 2.17 4.81 2.48 4.81 2.48s-4.91 4.27-8.6.76z"/><radialGradient id="d" cx="94.39" cy="60.948" r="30.399" gradientTransform="matrix(-.0746 -.9781 .8311 -.061 40.222 162.038)" gradientUnits="userSpaceOnUse"><stop offset=".725" style="stop-color:#bfa055;stop-opacity:0"/><stop offset="1" style="stop-color:#bfa055"/></radialGradient><path style="fill:url(#d)" d="M106.74 53.79c4.25 10.16-.22 20.61-4.41 25.02-.57.61-3.01 2.95-3.57 4.83 0 0-9.54-13.05-12.39-20.72-.57-1.55-1.1-3.14-1.17-4.79-.05-1.23.14-2.7.87-3.75.89-1.29 20.16-1.67 20.16-1.67 0 .01.51 1.08.51 1.08z"/><radialGradient id="e" cx="44.429" cy="60.948" r="30.399" gradientTransform="matrix(.0746 -.9781 -.8311 -.061 91.766 113.172)" gradientUnits="userSpaceOnUse"><stop offset=".725" style="stop-color:#bfa055;stop-opacity:0"/><stop offset="1" style="stop-color:#bfa055"/></radialGradient><path style="fill:url(#e)" d="M21.52 53.79c-4.25 10.16.22 20.61 4.41 25.02.58.61 3.01 2.95 3.57 4.83 0 0 9.54-13.05 12.39-20.72.58-1.55 1.1-3.14 1.17-4.79.05-1.23-.14-2.7-.87-3.75-.89-1.29-1.93-.94-3.44-.94-2.88 0-15.49-.72-16.47-.72.01 0-.76 1.07-.76 1.07z"/><radialGradient id="f" cx="49.558" cy="37.887" r="23.419" gradientTransform="matrix(-1 0 0 .4818 99.116 70.36)" gradientUnits="userSpaceOnUse"><stop offset=".728" style="stop-color:#bfa055;stop-opacity:0"/><stop offset="1" style="stop-color:#bfa055"/></radialGradient><path style="fill:url(#f)" d="M64.15 102v-9.26l-28.57-2.22-2.6 3.13S39.13 102 55.21 102h8.94z"/><radialGradient id="g" cx="26.493" cy="41.369" r="6.921" gradientTransform="matrix(.9057 .4157 .3144 -.659 -10.509 101.449)" gradientUnits="userSpaceOnUse"><stop offset=".663" style="stop-color:#bfa055"/><stop offset="1" style="stop-color:#bfa055;stop-opacity:0"/></radialGradient><path style="fill:url(#g)" d="M33.04 89.61c4.28-6.38-5.21-8.75-5.21-8.75l-.01.01c1.65 2.01 2.4 3.77 1.43 5.5-1.21 2.17-4.81 2.48-4.81 2.48s4.91 4.27 8.6.76z"/><path style="fill:#c48e6a" d="M54.92 93.85v9.98c0 4.51 4.33 8.17 9.08 8.17s9.08-3.66 9.08-8.17v-9.98H54.92zm36.41-35.42H36.67c-5.89 0-10.71 5.14-10.71 11.41s4.82 11.41 10.71 11.41h54.65c5.89 0 10.71-5.14 10.71-11.41.01-6.27-4.81-11.41-10.7-11.41z"/><path style="fill:#e0bb95" d="M64 19.07c-17.4 0-33.52 18.61-33.52 45.39 0 26.64 16.61 39.81 33.52 39.81S97.52 91.1 97.52 64.46c0-26.78-16.12-45.39-33.52-45.39z"/><path style="fill:#c48e6a" d="M67.81 78.06c-.11-.04-.21-.07-.32-.08H60.5c-.11.01-.21.04-.32.08-.63.26-.98.91-.68 1.61.3.7 1.69 2.66 4.49 2.66 2.8 0 4.2-1.96 4.49-2.66.31-.7-.03-1.36-.67-1.61z"/><path style="fill:#6d4c41" d="M56.67 91.77c4.63-1.45 10.27-1.38 14.66 0 .8.25 1.2-.57.65-1.41-.78-1.18-3.67-3.46-7.98-3.46s-7.2 2.28-7.98 3.46c-.55.85-.15 1.67.65 1.41z"/><path style="fill:#5d4037" d="M43.33 68.26c.01-.52.1-1.02.22-1.5.97-.13 2.01-.33 3.15-.67a9.873 9.873 0 0 0 3.91-2.24c1.07 1.01 1.76 2.62 1.72 4.43-.06 3.06-2.13 5.54-4.62 5.53-2.48 0-4.44-2.49-4.38-5.55zm41.34 0c-.01-.52-.1-1.02-.22-1.5-.97-.13-2-.33-3.15-.67a9.873 9.873 0 0 1-3.91-2.24c-1.07 1.01-1.76 2.62-1.71 4.43.07 3.06 2.13 5.54 4.62 5.53 2.47 0 4.43-2.49 4.37-5.55z"/><path style="fill:#ab872f" d="M55.29 58.42c-1.19-1.04-3.75-2.4-8.12-1.63-4.37.77-6.31 2.93-7.07 4.31-.34.61-.12 1.21.24 1.53.34.3 1.21.48 2.06.03.85-.45 2.47-1.61 5.42-2.15 2.96-.5 4.87.04 5.83.17.95.13 1.71-.34 1.93-.73.23-.43.23-1.07-.29-1.53zm32.61 2.71c-.76-1.38-2.7-3.54-7.07-4.31s-6.93.59-8.12 1.63c-.53.46-.52 1.1-.29 1.52.22.4.97.86 1.93.73.95-.13 2.87-.67 5.82-.17 2.95.54 4.56 1.71 5.42 2.15s1.72.27 2.06-.03c.36-.32.58-.91.25-1.52z"/><path style="fill:#ab872f" d="M104.19 32.67c-2.44-3.62-7.91-8.48-12.82-8.8-.79-4.63-5.84-8.55-10.73-10.07-13.23-4.11-21.84.5-26.47 2.97-.96.51-7.17 3.89-11.51 1.47-2.72-1.52-2.67-5.63-2.67-5.63s-8.52 3.18-5.61 12.06c-2.93.12-6.77 1.33-8.8 5.36-2.42 4.8-1.56 8.82-.86 10.74-2.52 2.1-5.69 6.56-3.52 12.36 1.64 4.36 8.17 6.37 8.17 6.37-.46 7.85 1.03 12.69 1.82 14.65.14.34.63.31.72-.04.99-3.89 4.36-17.45 4.03-19.82 0 0 11.35-2.21 22.17-10.02 2.2-1.59 4.59-2.95 7.13-3.94 13.59-5.31 16.43 3.74 16.43 3.74s9.42-1.77 12.26 11.06c1.07 4.81 1.79 12.5 2.4 17.89.04.38.57.46.72.11.95-2.14 2.85-6.38 3.3-10.7.16-1.52 4.34-3.53 6.14-10.06 2.42-8.71-.53-17.08-2.3-19.7z"/><radialGradient id="h" cx="82.138" cy="76.984" r="35.633" gradientTransform="matrix(.3076 .9333 .706 -.2238 2.52 -9.158)" gradientUnits="userSpaceOnUse"><stop offset=".699" style="stop-color:#bfa055;stop-opacity:0"/><stop offset="1" style="stop-color:#bfa055"/></radialGradient><path style="fill:url(#h)" d="M100.34 62.48c.16-1.52 4.34-3.53 6.14-10.06.19-.69.35-1.4.5-2.11 1.46-7.94-1.16-15.22-2.79-17.63-2.26-3.35-7.1-7.74-11.69-8.64-.4-.05-.79-.1-1.16-.12 0 0 .33 2.1-.54 3.79-1.12 2.18-3.41 2.69-3.41 2.69 11.97 11.74 11.11 21.57 12.95 32.08z"/><radialGradient id="i" cx="47.399" cy="115.837" r="9.343" gradientTransform="matrix(.8813 .4635 .5603 -1.0249 -59.276 108.914)" gradientUnits="userSpaceOnUse"><stop offset=".58" style="stop-color:#bfa055"/><stop offset="1" style="stop-color:#bfa055;stop-opacity:0"/></radialGradient><path style="fill:url(#i)" d="M57.07 15.3c-1.1.52-2.06 1.04-2.9 1.48-.96.51-7.17 3.89-11.51 1.47-2.67-1.49-2.67-5.47-2.67-5.61-1.23 1.54-4.95 12.54 5.93 13.27 4.69.32 7.58-3.69 9.3-7.09.62-1.25 1.59-3.04 1.85-3.52z"/><radialGradient id="j" cx="166.967" cy="66.191" r="28.721" gradientTransform="matrix(-.9378 -.3868 -.2182 .5183 239.305 59.091)" gradientUnits="userSpaceOnUse"><stop offset=".699" style="stop-color:#bfa055;stop-opacity:0"/><stop offset="1" style="stop-color:#bfa055"/></radialGradient><path style="fill:url(#j)" d="M79.28 13.41c7.32 1.94 10.89 5.6 12.08 10.48.35 1.43.77 14.79-25.23-.39-9.67-5.65-7.03-9.18-5.9-9.59 4.42-1.57 10.84-2.68 19.05-.5z"/><radialGradient id="k" cx="43.648" cy="107.313" r="8.575" gradientTransform="matrix(1 0 0 -1.1998 0 149.278)" gradientUnits="userSpaceOnUse"><stop offset=".702" style="stop-color:#bfa055;stop-opacity:0"/><stop offset="1" style="stop-color:#bfa055"/></radialGradient><path style="fill:url(#k)" d="M39.96 12.63c-.01.01-.03.01-.06.02h-.01c-.93.39-8.24 3.7-5.51 12.02l7.78 1.23c-6.88-6.85-2.17-13.29-2.17-13.29s-.02.01-.03.02z"/><radialGradient id="l" cx="42.468" cy="92.176" r="16.083" gradientTransform="matrix(-.9657 -.2549 -.2432 .8863 105.896 -35.502)" gradientUnits="userSpaceOnUse"><stop offset=".66" style="stop-color:#bfa055;stop-opacity:0"/><stop offset="1" style="stop-color:#bfa055"/></radialGradient><path style="fill:url(#l)" d="m39.19 25.44-4.81-.76c-.19 0-.83.06-1.18.1-2.71.37-5.9 1.74-7.63 5.26-1.86 3.78-1.81 7.04-1.3 9.2.15.73.45 1.54.45 1.54s2.38-2.21 8.05-2.36l6.42-12.98z"/><radialGradient id="m" cx="38.653" cy="76.646" r="16.886" gradientTransform="matrix(.9907 .1337 .1915 -1.3654 -14.315 150.087)" gradientUnits="userSpaceOnUse"><stop offset=".598" style="stop-color:#bfa055;stop-opacity:0"/><stop offset="1" style="stop-color:#bfa055"/></radialGradient><path style="fill:url(#m)" d="M24.49 40.98c-2.37 2.06-5.56 6.66-3.21 12.37 1.77 4.3 8.09 6.17 8.09 6.17 0 .02 1.26.39 1.91.39l1.48-21.48c-3.03 0-5.94.89-7.82 2.17.03.04-.46.35-.45.38z"/></svg>