<svg xmlns="http://www.w3.org/2000/svg" version="1.0" viewBox="0 0 1000 1000"><path fill="#ce1126" d="M8 195.25c170.83-85.22 341.03-54.42 513.26-27.97 155.21 23.84 312.16 44.57 470.74-34.53v672c-170.83 85.22-341.03 54.42-513.26 27.97C323.53 808.88 166.58 788.15 8 867.25v-672"/><path fill="#007a5e" d="M90.66 256.57c271.45-80.76 541.82 85.38 818.68 3.02v483.84c-271.45 80.76-541.82-85.38-818.68-3.02V256.57"/><path fill="#fcd116" d="M90.66 256.57c271.45-80.76 541.82 85.38 818.68 3.02-271.08 240.9-541.45 234.47-818.68 480.82 271.45-80.76 541.82 85.38 818.68 3.02C638.49 663.97 368.2 338 90.66 256.57"/><path fill="#ce1126" d="M570.85 510.65c-.27 44.82-31.5 75.78-70.85 69.99-39.31-6.39-70.58-46.59-70.85-91.29.27-44.82 31.5-75.78 70.85-69.99 39.31 6.39 70.58 46.59 70.85 91.29"/><path fill="#fcd116" d="m500 426.08-20.07 67.2 30.88 16.2-10.81-83.4"/><path fill="#fcd116" d="m500 426.08 20.07 73.4-30.88 6.65L500 426.08"/><path fill="#fcd116" d="m561.77 486.51-64.95-9.85v36.96l64.95-27.11"/><path fill="#fcd116" d="m561.77 486.51-52.55 35.52-19.08-32.85 71.63-2.67"/><path fill="#fcd116" d="M538.17 565.66 518.1 492.3l-30.88 6.64 50.95 66.72"/><path fill="#fcd116" d="m538.17 565.66-52.54-51.53 19.09-26.95 33.45 78.48"/><path fill="#fcd116" d="m461.83 553.94 52.54-35.36-19.09-32.86-33.45 68.22"/><path fill="#fcd116" d="m461.83 553.94 20.07-67.24 30.88 16.2-50.95 51.04"/><path fill="#fcd116" d="m438.23 467.81 52.55 51.37 19.08-26.95-71.63-24.42"/><path fill="#fcd116" d="m438.23 467.81 64.95 9.84v36.96l-64.95-46.8M303.2 143.77l-11.86 41.02 18.25 7.61-6.39-48.63"/><path fill="#fcd116" d="m303.2 143.77 11.86 42.21-18.25 5.78 6.39-47.99"/><path fill="#fcd116" d="M339.7 176.44c-12.67-1.08-25.33-1.95-38.38-2.58v21.84l38.38-19.26"/><path fill="#fcd116" d="m339.7 176.44-31.05 23.47-11.28-18.23c13.97-2.02 27.94-3.74 42.33-5.24"/><path fill="#fcd116" d="m325.76 224.17-11.86-42.33-18.25 5.8 30.11 36.53"/><path fill="#fcd116" d="m325.76 224.17-31.05-27.45 11.28-17.14 19.77 44.59"/><path fill="#fcd116" d="m280.64 221.94 31.05-24.37-11.28-18.26-19.77 42.63"/><path fill="#fcd116" d="m280.64 221.94 11.86-41.17 18.25 7.63-30.11 33.54"/><path fill="#fcd116" d="m266.7 172.88 31.05 26.49 11.28-17.11c-13.97-3.42-27.94-6.55-42.33-9.38"/><path fill="#fcd116" d="M266.7 172.88c12.67.1 25.33.49 38.38 1.16v21.84l-38.38-23M500 167.36l-11.86 39.71 18.25 9.57-6.39-49.28"/><path fill="#fcd116" d="m500 167.36 11.86 43.38-18.25 3.92 6.39-47.3"/><path fill="#fcd116" d="m536.5 203.15-38.38-5.9v21.84l38.38-15.94"/><path fill="#fcd116" d="m536.5 203.15-31.05 20.91-11.28-19.41 42.33-1.5"/><path fill="#fcd116" d="m522.56 249.86-11.86-43.37-18.25 3.93 30.11 39.44"/><path fill="#fcd116" d="m522.56 249.86-31.05-30.47 11.28-15.92 19.77 46.39"/><path fill="#fcd116" d="m477.44 242.9 31.05-20.88-11.28-19.42-19.77 40.3"/><path fill="#fcd116" d="m477.44 242.9 11.86-39.72 18.25 9.57-30.11 30.15"/><path fill="#fcd116" d="m463.5 191.93 31.05 30.44 11.28-15.92-42.33-14.52"/><path fill="#fcd116" d="m463.5 191.93 38.38 5.9v21.84l-38.38-27.74M696.8 190.95l-11.86 40.88 18.25 7.71-6.39-48.59"/><path fill="#fcd116" d="m696.8 190.95 11.86 42.06-18.25 5.89 6.39-47.95"/><path fill="#fcd116" d="M733.3 222.21c-12.67-.11-25.33-.5-38.38-1.17v21.84l38.38-20.67"/><path fill="#fcd116" d="m733.3 222.21-31.05 24.86-11.28-18.24a918.49 918.49 0 0 0 42.33-6.62"/><path fill="#fcd116" d="M719.36 270.82 707.5 228.9l-18.25 5.87 30.11 36.05"/><path fill="#fcd116" d="m719.36 270.82-31.05-26.99 11.28-17.07 19.77 44.06"/><path fill="#fcd116" d="m674.24 268.58 31.05-23.9-11.28-18.2-19.77 42.1"/><path fill="#fcd116" d="m674.24 268.58 11.86-40.75 18.25 7.7-30.11 33.05"/><path fill="#fcd116" d="m660.3 218.64 31.05 27.88 11.28-17.11c-13.97-3.26-27.94-6.82-42.33-10.77"/><path fill="#fcd116" d="M660.3 218.64c12.67 1.08 25.33 1.95 38.38 2.59v21.84l-38.38-24.43M303.2 721.69l-11.86 41.02 18.25 7.61-6.39-48.63"/><path fill="#fcd116" d="m303.2 721.69 11.86 42.21-18.25 5.78 6.39-47.99"/><path fill="#fcd116" d="M339.7 754.36c-12.67-1.08-25.33-1.95-38.38-2.58v21.84l38.38-19.26"/><path fill="#fcd116" d="m339.7 754.36-31.05 23.47-11.28-18.23c13.97-2.02 27.94-3.74 42.33-5.24"/><path fill="#fcd116" d="m325.76 802.09-11.86-42.33-18.25 5.8 30.11 36.53"/><path fill="#fcd116" d="m325.76 802.09-31.05-27.45 11.28-17.14 19.77 44.59"/><path fill="#fcd116" d="m280.64 799.86 31.05-24.37-11.28-18.26-19.77 42.63"/><path fill="#fcd116" d="m280.64 799.86 11.86-41.17 18.25 7.63-30.11 33.54"/><path fill="#fcd116" d="m266.7 750.8 31.05 26.49 11.28-17.11c-13.97-3.42-27.94-6.55-42.33-9.38"/><path fill="#fcd116" d="M266.7 750.8c12.67.1 25.33.49 38.38 1.16v21.84l-38.38-23M500 745.28l-11.86 39.71 18.25 9.57-6.39-49.28"/><path fill="#fcd116" d="m500 745.28 11.86 43.38-18.25 3.92 6.39-47.3"/><path fill="#fcd116" d="m536.5 781.07-38.38-5.9v21.84l38.38-15.94"/><path fill="#fcd116" d="m536.5 781.07-31.05 20.91-11.28-19.41 42.33-1.5"/><path fill="#fcd116" d="m522.56 827.78-11.86-43.37-18.25 3.93 30.11 39.44"/><path fill="#fcd116" d="m522.56 827.78-31.05-30.47 11.28-15.92 19.77 46.39"/><path fill="#fcd116" d="m477.44 820.82 31.05-20.88-11.28-19.42-19.77 40.3"/><path fill="#fcd116" d="m477.44 820.82 11.86-39.72 18.25 9.57-30.11 30.15"/><path fill="#fcd116" d="m463.5 769.85 31.05 30.44 11.28-15.92-42.33-14.52"/><path fill="#fcd116" d="m463.5 769.85 38.38 5.9v21.84l-38.38-27.74M696.8 768.87l-11.86 40.88 18.25 7.71-6.39-48.59"/><path fill="#fcd116" d="m696.8 768.87 11.86 42.06-18.25 5.89 6.39-47.95"/><path fill="#fcd116" d="M733.3 800.13c-12.67-.11-25.33-.5-38.38-1.17v21.84l38.38-20.67"/><path fill="#fcd116" d="m733.3 800.13-31.05 24.86-11.28-18.24a918.49 918.49 0 0 0 42.33-6.62"/><path fill="#fcd116" d="m719.36 848.74-11.86-41.92-18.25 5.87 30.11 36.05"/><path fill="#fcd116" d="m719.36 848.74-31.05-26.99 11.28-17.07 19.77 44.06"/><path fill="#fcd116" d="m674.24 846.5 31.05-23.9-11.28-18.2-19.77 42.1"/><path fill="#fcd116" d="m674.24 846.5 11.86-40.75 18.25 7.7-30.11 33.05"/><path fill="#fcd116" d="m660.3 796.56 31.05 27.88 11.28-17.11c-13.97-3.26-27.94-6.82-42.33-10.77"/><path fill="#fcd116" d="M660.3 796.56c12.67 1.08 25.33 1.95 38.38 2.59v21.84l-38.38-24.43"/><path fill="#ce1126" d="M141.33 487.01c9 17.09 26.04 34.44 41.16 40.06.15-19.19-5.73-42.8-13.84-61.24l-27.32 21.18"/><path fill="#fcd116" d="M126.3 425.67c13.64 30.67-34.45 105.55 43.6 112.38-9.46-13.61-15.48-36.47-13.29-56.57 16.26 4.6 32.89 22.75 39.98 37.93 19.91-86.24-51.73-72.16-70.29-93.74"/><path fill="#1A1A1A" opacity=".2" d="M8 195.25c170.83-85.22 341.03-54.42 513.26-27.97 155.21 23.84 312.16 44.57 470.74-34.53v672c-170.83 85.22-341.03 54.42-513.26 27.97C323.53 808.88 166.58 788.15 8 867.25v-672m31.25 19.39v604.5c306.56-128.26 611.18 96.04 921.5-33.78v-604.5c-306.56 128.26-611.18-96.04-921.5 33.78"/></svg>