<svg xmlns="http://www.w3.org/2000/svg" viewBox="0 0 128 128" style="enable-background:new 0 0 128 128" xml:space="preserve"><linearGradient id="a" gradientUnits="userSpaceOnUse" x1="64" y1="155.558" x2="64" y2="-.244"><stop offset=".043" style="stop-color:#3367d6"/><stop offset=".279" style="stop-color:#3446b3"/><stop offset=".521" style="stop-color:#352893"/><stop offset="1" style="stop-color:#1a237e"/></linearGradient><path style="fill:url(#a)" d="M116 124H12c-4.42 0-8-3.58-8-8V12c0-4.42 3.58-8 8-8h104c4.42 0 8 3.58 8 8v104c0 4.42-3.58 8-8 8z"/><path style="fill-rule:evenodd;clip-rule:evenodd;fill:#fff176" d="M116.54 13.88a8.94 8.94 0 0 1-5.78-6.08.395.395 0 0 0-.76-.02 8.948 8.948 0 0 1-6.06 5.82.38.38 0 0 0-.02.73c2.81.93 4.99 3.22 5.79 6.06.11.39.63.4.76.02.92-2.82 3.2-5 6.05-5.8.37-.1.38-.61.02-.73z"/><path style="fill-rule:evenodd;clip-rule:evenodd;fill:#fff9c4" d="M16.39 20.52a6.466 6.466 0 0 1-4.17-4.38.285.285 0 0 0-.55-.01 6.44 6.44 0 0 1-4.37 4.19c-.26.07-.27.44-.01.53a6.43 6.43 0 0 1 4.17 4.37c.08.28.46.29.55.01a6.41 6.41 0 0 1 4.36-4.18c.27-.08.28-.44.02-.53z"/><circle style="fill-rule:evenodd;clip-rule:evenodd;fill:#7986cb" cx="117.67" cy="45.25" r="3.19"/><circle style="opacity:.58;fill-rule:evenodd;clip-rule:evenodd;fill:#7baaf7" cx="112.03" cy="33.99" r="2.41"/><circle style="opacity:.7;fill-rule:evenodd;clip-rule:evenodd;fill:#7baaf7" cx="32.37" cy="94.4" r="2.41"/><path style="fill:none" d="M98.01-.06h.14m-.14 0h.14"/><circle style="fill:#ffe558" cx="64" cy="53.62" r="44.56"/><path style="fill:#ffcd40" d="M62.94 13.95c.15 1.29-2.65 2.34-6.02 2.95-3.37.61-6.25.57-6.71-.65-.46-1.22 1.92-3.28 5.6-3.95 3.67-.68 6.98.36 7.13 1.65zM31.96 77.93c.08-.14.82-.38 1.73.38s3.6 3.02 4.67 3.88c1.07.86.12 1.7-.73 1.6-4.11-.47-6.56-4.38-5.67-5.86zM45.31 88.2c.03-.14.54-.55 1.5-.22.96.33 3.78 1.31 4.89 1.67 1.11.36.61 1.31-.1 1.49-3.42.88-6.55-1.49-6.29-2.94zm6.82-4.29c.57.38 1.16.99.95 1.62-.2.57-.93.76-1.55.81-2.05.16-4.14-.24-6-1.09-1.31-.6-4.75-2.49-4.39-4.25.49-2.49 9.53 1.95 10.99 2.91zm50.48-36.6c-.19.14-2.5.23-3.22-1.32s-2.85-6.14-3.71-7.92c-.87-1.78 2.07-2.57 3.12-1.95 5.06 2.97 5.87 9.68 3.81 11.19zm-5.94-14.42c-.11.16-.98.37-1.93-.63s-3.75-3.99-4.87-5.13c-1.12-1.14.06-2.06 1.02-1.85 4.64.98 6.97 5.93 5.78 7.61zM79.5 17.34c-.03.15-.59.59-1.58.2-.99-.39-3.9-1.56-5.05-1.99-1.15-.43-.58-1.47.17-1.65 3.62-.85 6.8 1.86 6.46 3.44z"/><radialGradient id="b" cx="64" cy="53.616" r="49.253" gradientUnits="userSpaceOnUse"><stop offset=".758" style="stop-color:#fff9c4;stop-opacity:0"/><stop offset=".992" style="stop-color:#fff9c4"/></radialGradient><circle style="fill:url(#b)" cx="64" cy="53.62" r="44.56"/><path style="fill:#ba793e" d="m105.08 124-2.6-29.6h-31.9l-2.5 29.6z"/><path style="fill:#784d30" d="M69.52 107.08h34.08l-.87-9.95H70.36z"/><path style="fill:#784d30" d="M69.54 107.08h34.08l-.87-9.95H70.38z"/><circle style="fill:#fff7eb" cx="86.44" cy="65.28" r="10.67"/><circle style="fill:#fff7eb" cx="77.31" cy="77.2" r="10.67"/><radialGradient id="c" cx="95.572" cy="77.2" r="10.667" gradientUnits="userSpaceOnUse"><stop offset=".536" style="stop-color:#fcebcd"/><stop offset=".718" style="stop-color:#fdf1d7"/><stop offset="1" style="stop-color:#fff8e1"/></radialGradient><circle style="fill:url(#c)" cx="95.57" cy="77.2" r="10.67"/><circle style="fill:#fff7eb" cx="95.57" cy="77.2" r="10.67"/><circle style="fill:#fff7eb" cx="71.16" cy="88.16" r="10.67"/><circle style="fill:#fff7eb" cx="101.72" cy="88.16" r="10.67"/><circle style="fill:#fff7eb" cx="86.44" cy="88.16" r="10.67"/><path style="opacity:.26;fill:#ea7554" d="M107.05 89.63c-3.04-.08-5.28-1.36-6.98-2.98-2.73-3.11-.67-6.7 1.81-8.05 1.93-1.05 4.17-.19 4.17-.19-4.73-3.27-7.4.44-12.75-1.35-3.35-1.12-4.07-4.1-3.35-7.01 1.1-4.45 7.02-3.43 7.02-3.43s-.81-1.13-2.97-1.14c-2.74-.01-4.72.79-6.02 1.6-.94.59-2.13.59-3.07 0-1.31-.82-3.28-1.62-6.02-1.6-2.16.01-2.97 1.14-2.97 1.14s5.92-1.03 7.02 3.43c.72 2.91 0 5.89-3.35 7.01-5.35 1.79-8.02-1.92-12.75 1.35 0 0 2.24-.86 4.17.19 2.48 1.35 4.55 4.94 1.81 8.05-1.7 1.62-3.94 2.9-6.98 2.98-4.43.12-5.34-1.36-5.34-1.36.05 2.27.61 3.44.61 3.44h50.68s.56-1.17.61-3.44c-.01 0-.92 1.48-5.35 1.36zm-20.46-.03c-4.72 0-9.27-1.73-8.59-5.55.62-3.46 3.73-6.55 8.44-6.55s8.18 3.07 8.63 6.55c.5 3.82-3.77 5.55-8.48 5.55z"/><path style="opacity:.26;fill:#ea7554" d="M107.05 89.63c-3.04-.08-5.28-1.36-6.98-2.98-2.73-3.11-.67-6.7 1.81-8.05 1.93-1.05 4.17-.19 4.17-.19-4.73-3.27-7.4.44-12.75-1.35-3.35-1.12-4.07-4.1-3.35-7.01 1.1-4.45 7.02-3.43 7.02-3.43s-.81-1.13-2.97-1.14c-2.74-.01-4.72.79-6.02 1.6-.94.59-2.13.59-3.07 0-1.31-.82-3.28-1.62-6.02-1.6-2.16.01-2.97 1.14-2.97 1.14s5.92-1.03 7.02 3.43c.72 2.91 0 5.89-3.35 7.01-5.35 1.79-8.02-1.92-12.75 1.35 0 0 2.24-.86 4.17.19 2.48 1.35 4.55 4.94 1.81 8.05-1.7 1.62-3.94 2.9-6.98 2.98-4.43.12-5.34-1.36-5.34-1.36.05 2.27.61 3.44.61 3.44h50.68s.56-1.17.61-3.44c-.01 0-.92 1.48-5.35 1.36zm-20.46-.03c-4.72 0-9.27-1.73-8.59-5.55.62-3.46 3.73-6.55 8.44-6.55s8.18 3.07 8.63 6.55c.5 3.82-3.77 5.55-8.48 5.55z"/><path style="fill:#ba793e" d="M114.88 102.95h-56.6c-1.54 0-2.79-1.25-2.79-2.79v-8.45h62.18v8.45c0 1.55-1.25 2.79-2.79 2.79z"/><path style="fill:none;stroke:#ffb74d;stroke-width:2;stroke-linecap:round;stroke-miterlimit:10" d="M56.36 91.71h60.44"/><path style="opacity:.38;fill:#1a237e" d="m114.02 92.63-5.61-1.87c1.75-8.4-3.84-11.96-6.43-12.34.04-.31.06-.62.06-.93 0-3.99-1.16-10.05-7.49-10.76.04-.33.07-.66.07-1 0-4.36-3.53-7.89-7.89-7.89-.05 0-.1.01-.14.01-.05 0-.1-.01-.14-.01-4.36 0-7.89 3.53-7.89 7.89 0 .34.03.67.07 1-6.33.7-7.49 6.76-7.49 10.76 0 .32.02.63.06.93-2.59.38-8.18 3.94-6.43 12.34l-5.61 1.87-.01 7.54c0 1.54 1.02 2.79 2.28 2.79h10.79L70.97 124h31.22l-1.25-21.05h10.79c1.26 0 2.28-1.25 2.28-2.79l.01-7.53z"/><path style="fill:#4e342e" d="M89.9 112.12c-.29-1.83-1.63-3.27-3.36-3.27s-3.08 1.35-3.36 3.27c-1.54.38-2.79.38-2.79 2.4 0 2.21 3.75 5.86 6.25 5.86s6.05-3.65 6.05-5.86c0-2.02-1.15-2.02-2.79-2.4z"/><path style="fill:#212121" d="M89.2 112.34c-.23-1.44-1.29-2.58-2.66-2.58s-2.43 1.06-2.66 2.58c-1.21.3-2.2.3-2.2 1.9 0 1.75 2.96 4.63 4.94 4.63 1.97 0 4.78-2.89 4.78-4.63 0-1.59-.91-1.59-2.2-1.9z"/><path style="fill:#97a53b" d="M12.76 124c-.02-.34-1.81-31.36 15.94-68.89l1.88.34c-16.51 37.35-14.34 68.18-14.32 68.52l-3.5.03z"/><path style="fill:#97a53b" d="M18.93 124h-2.67c.03-.28 1.37-26.67 15.65-49.13l1.71 1.08C21.45 97.75 18.96 123.73 18.93 124z"/><path style="fill:#668424" d="M31.98 102.42c2.32-1.67 5.83-3.62 8.52-2.65 1.6.58 2.83 1.88 3.93 3.19 2.94 3.48 4.94 7.92 7.94 11.35 3.99 4.57 11.64 6.61 11.64 6.61s-10.03 1.99-14.44-2.42c-4.64-4.65-4.63-5.79-7.1-9.53-1.1-1.67-4.72-6.09-7.28-5.83-2.56.26-8.57 17.87-11 20.86h-4.47s.86-6.85 3.37-11.95c1.94-3.93 5.32-7.07 8.89-9.63z"/><path style="fill:#97a53b" d="M12.43 124h2.56s-4.94-38.43 3.43-64.52c3.34-10.42 11.53-22.36 15.14-27.33.25-.35-.21-.76-.54-.48C-.71 60.52 9.44 110.96 12.43 124z"/><path style="fill:#668424" d="M7.3 58.01c-.92 13.84.25 29.86.25 29.86s.24-16.21 3.87-25.27c0 0 1.07-16.14 5.93-29.56 4.71-12.99 13.11-21.88 12.47-22.11-1.3-.48-20.28 13.2-22.52 47.08z"/><path style="fill:#fff" d="M56.07 14.9c-5.7 2.14-10.55 6.17-14.35 10.92-3.8 4.75-6.62 10.21-9.08 15.77-2.45 5.55-4.89 12.03-5.38 17.32-.15 1.6 1.32 1.61 2.29.34 3.82-5 7.66-13.49 19.88-18.6 4.01-1.68 8.29-4.34 6.75-6.17-.44-.52-1.62-1.1-3.62-.63-2.41.57-5.19 2.03-6.3 2.65-.31.17-.78.14 0-.51 1.45-1.22 5.24-3.72 11.51-5.26 1.32-.32 2.93-1.35 2.09-2.33-.87-1.01-2.55-1.14-4.69-.45-8.05 2.61-12.88 5.94-17.03 11.25-.26.33-.78 0-.58-.37 2.05-3.83 4.45-6.64 8.67-9.54 5.28-3.63 19.02-6.69 20.33-7.47 2.01-1.2 2.42-2.05 2.47-2.82.12-1.79-1.84-2.11-3.27-1.84-8.13 1.49-15.86 5.15-22.04 10.63-.17.15-.38.06-.15-.23 6.21-7.76 11.96-9.73 15.55-11.34.76-.34 1.92-.97.79-1.85-.92-.72-2.92.18-3.84.53zM29.7 83.17c-.87.52-1.92-.31-1.61-1.28 1.4-4.4 3.55-9.8 8.24-17 5.7-8.76 12.86-15.33 16.71-16.26 3.6-.87 3.18 1.36 2.17 1.95-3.09 1.8-6.77 4.07-9.4 6.49-3.42 3.16-5.47 6.56-6.29 8.06-.27.5-.01.29.19.04 5.02-6.13 13.37-12.22 21.54-14.27 1.55-.39 3.96-.79 5.46-.25.76.27 1.51.88 1.53 1.69.02.87-.93 1.88-3.15 2.72-5.23 1.98-15.39 6.6-18.83 10.04 0 0-.49.78 1.74-.55 1.68-1.01 5.52-3.43 9.72-3.64 3.44-.17 3.35 3.3-2.87 5.31-3.91 1.26-7.4 2.61-10.67 4.04-2.84 1.23-6.16 3.25-7.73 4.69-1.22 1.13-1.1 1.2-.56.85 0 0 4.92-2.86 5.68-1.32.43.88-.74 1.82-1.56 2.35-2.98 1.94-7.53 4.68-10.31 6.34z"/></svg>