<svg xmlns="http://www.w3.org/2000/svg" viewBox="0 0 128 128" style="enable-background:new 0 0 128 128" xml:space="preserve"><path style="fill:#c87d5e" d="M63.13 84.17h18.31V124H63.13z"/><path style="fill:#874d36" d="M81.45 94.23c-1.64-2.66-3.81-4.93-6.55-6.41-1.7-.92-3.58-1.45-5.49-1.64h-3.19c-1.04.1-2.08.3-3.08.6v20.13c.89-1.36 2.37-2.34 3.97-2.72 2.79-.65 5.75.42 8.01 2.17s3.95 4.13 5.6 6.46l.74 1.04V94.23z"/><path style="fill:#1976d2" d="M97.55 25.09H28.94s23.58 2.89 23.58 22.78l.12 50.48h66.52c2.67 0 4.83-2.16 4.83-4.83V51.54c.01-14.61-11.83-26.45-26.44-26.45z"/><ellipse style="fill:#0d47a1" cx="74.21" cy="54.06" rx="8.14" ry="9.16"/><path style="fill:#0d47a1" d="m107.81 50.04-37.63.03v8.17h28.25v14.08c0 3.25 1.41 3.63 7.55 3.63s7.94-.38 7.94-3.63V56.15c-.01-3.37-2.74-6.11-6.11-6.11z"/><path style="fill:#c62828" d="m110.44 46.87-37.63.03v8.17h28.25v14.08c0 3.25 1.41 3.63 7.55 3.63s7.94-.38 7.94-3.63V52.98c0-3.37-2.74-6.11-6.11-6.11z"/><path style="fill:#f44336" d="m112.76 46.87-41.56.03v8.17h32.18v14.08c0 3.25 1.41 3.63 7.55 3.63s7.94-.38 7.94-3.63V52.98c-.01-3.37-2.74-6.11-6.11-6.11z"/><path style="fill:#ff7555" d="M111.98 52.15c-1.99-.07-20.01-1.37-23.39-1.6-4.09-.28-4.51-2.64-.79-2.64h24.37c3.93 0 4.14 4.39-.19 4.24z"/><path style="fill:#82aec0" d="m72.81 42.44.07 18.31h-3.55c-4.05 0-7.33-4.1-7.33-9.16s3.28-9.16 7.33-9.16c4.04.01 3.48.01 3.48.01z"/><ellipse style="fill:#e0e0e0" cx="73.4" cy="51.59" rx="7.33" ry="9.16"/><path style="fill:#fff" d="M69.02 51.86c.44.22.97-.02 1.35-.34 1.16-.97 1.6-2.57 2.67-3.63.94-.94 2.37-1.86 1.25-3.25-.81-1-2.2-.88-3.25-.37-2.49 1.19-4.25 6.47-2.02 7.59z"/><path style="fill:#4fc3f7" d="m26.17 25.09-.47 73.24 28.51.01c1.17 0 2.13-.95 2.13-2.13V47.86c0-12.29-7.66-22.3-21.15-22.76-.32-.01-8.69-.01-9.02-.01z"/><path style="fill:#1976d2" d="M26.12 25.09C10.35 25.09 4 34.8 4 47.86v47.89a2.58 2.58 0 0 0 2.58 2.58l42.57.01c1.17 0 2.13-.95 2.13-2.13V47.86c-.01-13.06-9.39-22.77-25.16-22.77z"/><path style="fill:#0d47a1" d="M33.19 46.01H22.31a2.09 2.09 0 0 1-2.09-2.09v-6.65h15.07v6.65a2.104 2.104 0 0 1-2.1 2.09z"/><path style="fill:#4fc3f7" d="M34.54 36.05H18.82c-1.04 0-2.51.6-2.51 2.44v3.02c0 1.04.85 1.89 1.89 1.89h11.13c1.04 0 1.89-.85 1.89-1.89v-.75c0-1.01.82-1.83 1.83-1.83h1.5c.46 0 .83-.37.83-.83v-1.22c0-.45-.38-.83-.84-.83z"/><path style="opacity:.57;fill:#fff" d="M30.38 37.77c-.17.29-.47.49-.8.49H17.33s.09-1.63 1.47-1.63h12.48c.11 0 .15.15.06.21-.53.36-.81.68-.96.93z"/></svg>