<svg xmlns="http://www.w3.org/2000/svg" viewBox="0 0 128 128" style="enable-background:new 0 0 128 128" xml:space="preserve"><path style="fill:#d06f1d" d="m66.65 45.55 5.25-6.89s1.05-1.62 2.04-1.51c.98.11 2.58 3.23 6.52 2.92 4.16-.33 8.08-1.41 8.08-1.41l3.28 4.6-.56 3.02s-1.24 3.72-.54 6.19c.61 2.17 2.74 3.53 2.77 4.52.05 1.31-63.05 63.62-63.71 64.06s-7.22-.44-7.88-.77-11.38-12.58-11.38-12.58-.45-5.4.1-6.38c.07-.12.47-.52.79-.77 4.56-3.55 21.78-10.45 35-23.48 5.69-5.62 20.24-31.52 20.24-31.52z"/><path style="fill:#af570c" d="M111.76 16.54v-4.66s2.07-4.34 2.57-4.98 4.57-1.43 7.43 1.64c2.86 3.07 2.34 6.06 2.07 6.5-.31.5-5.47 3.67-5.47 3.67l-6.6-2.17z"/><path style="fill:#eb8b34" d="M71.91 38.65c.41-.2 2.89 3.58 5.88 3.73 2.99.15 7.98-.15 7.98-.15l2.53 3.91-.15 2.68s-.61 2.91 0 4.75 1.69 2.76 1.84 3.45c.15.69-59.59 60.88-60.12 61.04-.54.15-6.82.08-7.28-.3s-9.17-10.17-9.55-10.86c-.38-.69-1.8-5.47-1.64-6.32.13-.83 59.99-61.67 60.51-61.93z"/><path style="fill:#474c4f" d="M84.17 39.46c0-.23 27.13-27.06 27.13-27.06l6.6 6.9-26.96 27.45s-8.4 1.39-8.32 1.01c.08-.39 1.55-8.3 1.55-8.3z"/><path style="fill:#e0e0e0" d="m98.9 24.69 3.13-3.12 6.9 6.87-3.21 3.27zm6.07-6.02 6.81 6.85 6.98-7.03s-6.72-7.01-6.91-6.81c-.16.16-6.88 6.99-6.88 6.99z"/><path style="fill:#af570c" d="M56.39 73.69c.59.64 2.28-.77 3.46-1.69.49-.38 8.97-7.14 16.61-13.61s14.72-11.43 14.77-12.02-6.41-6.87-7.06-6.91c-.66-.04-6.28 6.34-12.24 13.62-6.63 8.1-13.49 16.57-13.72 16.86-1.18 1.56-2.28 3.25-1.82 3.75z"/><path style="fill:#a52415" d="M8.77 32.14c-5.74 5.11-7.2 15.21-.6 21.98 5.59 5.74 14.73 6.42 21.38.08 6.07-5.8 4.53-16.16.91-20.39-5.31-6.2-15.5-7.19-21.69-1.67z"/><path style="fill:#d26051" d="M16.73 30.68c-1.77-.21-6.56.86-8.77 6.12-2.01 4.79-.71 8.27.27 8.54 1.61.45 2.9-6.08 6.46-8.43s5.75-.82 6.24-2.14c.35-.92-.53-3.65-4.2-4.09z"/><path style="fill:#8b200b" d="M6.46 52.03c.38-.13 8.91-3.75 13.68-7.42 7.26-5.59 9.44-11.7 9.44-11.7s1.36 1.06 2.35 3.05c.71 1.44 1.31 3.73 1.27 3.97-.08.51-5.27 6.14-10.52 10.19S11.04 56.5 11.04 56.5s-1.96-1.43-2.89-2.38c-.99-1.03-1.69-2.09-1.69-2.09z"/><path style="fill:#fde7c4" d="M5.45 50.37s7.23-1.67 13.86-7.05c6.45-5.24 9.49-11.15 9.49-11.15s.71.52 1.21 1.02.86 1.07.86 1.07-1.73 5.47-10.19 11.98c-7.47 5.76-13.74 6.5-13.74 6.5s-.53-.58-.93-1.29c-.28-.53-.56-1.08-.56-1.08zm3.88 4.83s6.81-1.54 13.36-6.93c8.22-6.76 9.88-10.81 9.88-10.81s.41 1.1.56 1.76c.19.82.31 1.8.31 1.8s-2.32 4.75-8.83 9.75c-6.46 4.97-11.88 6.58-11.88 6.58s-1.11-.5-1.85-.95c-.61-.36-1.55-1.2-1.55-1.2z"/></svg>