<svg xmlns="http://www.w3.org/2000/svg" viewBox="0 0 128 128" style="enable-background:new 0 0 128 128" xml:space="preserve"><path style="fill:#c62828" d="M120.44 34.72C115.11 28.18 96.41 16.23 64 16.23S12.89 28.18 7.56 34.72 1.97 48.87 2.23 54.28c.01.3.06.75.15 1.27.63 3.61 1.72 6.2 16.52 6.2 15.79 0 17.54-3.89 17.64-6.74.16-4.64.71-10.79 2.8-12.09 2.47-1.52 4.58-6.93 24.67-7.24 20.09.32 22.2 5.72 24.67 7.24 2.1 1.3 2.64 7.44 2.8 12.09.1 2.85 1.85 6.74 17.64 6.74 14.79 0 15.89-2.6 16.52-6.2.09-.52.13-.97.15-1.27.24-5.41-.01-13.01-5.35-19.56z"/><path style="fill:#912221" d="M109.11 65.76c-9.45 0-20.34-1.1-20.63-9.64a2.99 2.99 0 0 1 2.89-3.1 3.008 3.008 0 0 1 3.1 2.89c.04 1.16 1.55 3.85 14.64 3.85 15.53 0 16.73-6.08 16.73-6.08.99 2.44 3.28 11.21-16.73 12.08zm-90.23-1c9.45 0 20.34-1.1 20.63-9.64a2.99 2.99 0 0 0-2.89-3.1 3.008 3.008 0 0 0-3.1 2.89c-.04 1.16-1.55 3.85-14.64 3.85-15.53 0-16.73-6.08-16.73-6.08-.96 2.22-3.28 11.21 16.73 12.08zm79.16-34.64c-5.26-2.18-15.79-5.14-34.04-5.14s-28.77 2.96-34.04 5.14c-1.73.71-1.89 3.07-.29 4.04 2.99 1.82 6.71 5.29 7.67 11.62.03.21.09.4.15.59.42-1.64 1-2.92 1.83-3.43 2.47-1.52 4.58-6.93 24.67-7.24 20.09.32 22.2 5.72 24.67 7.24.83.51 1.41 1.79 1.83 3.43.06-.19.12-.38.15-.59.96-6.32 4.68-9.8 7.67-11.62 1.61-.97 1.46-3.33-.27-4.04z"/><path style="fill:#f44336" d="M119.54 46.36c-2.05-5.01-3.8-7.1-9.62-9.4-2.1-.83-3.36-2.37-2.84-3.65.52-1.28 1.88-1.73 4.05-1.16 6.09 1.58 10.73 7.29 10.74 13.99-.01 3.12-1.53 2.17-2.33.22zM10.41 36.32c.38 1.27 2.86.21 5.87-.03 4.17-.33 5.4.97 7.25 2.91 1.55 1.63 3.77 1.66 4.59.55.83-1.11.34-2.34-1.09-4.07-1.06-1.29-5.63-4.36-12.38-2.54-1.53.43-4.64 1.84-4.24 3.18z"/><path style="fill:#c62828" d="M18.89 95.61v21.29c0 3.92 3.38 7.1 7.54 7.1h75.14c4.16 0 7.54-3.18 7.54-7.1V95.12l-90.22.49z"/><path style="fill:#ff4638" d="M108.89 92.03s-7.81-36.32-9.07-42.74-3.45-8.31-7.15-8.37c-2.49-.04-5.12-1.75-5.56-4.82-.44-3.03-.54-4.81-.72-6.15-.18-1.34-.13-3.3-2.05-3.3h-3.81c-1.7 0-1.84.33-2.12 2.73-.28 2.41-.66 7.05-1.6 9.37-.81 1.99-2.95 2.17-4.17 2.17H55.35c-1.21 0-3.36-.18-4.17-2.17-.94-2.32-1.33-6.97-1.6-9.37-.28-2.41-.42-2.73-2.12-2.73h-3.81c-1.91 0-1.86 1.96-2.05 3.3-.18 1.34-.28 3.12-.72 6.15-.45 3.07-3.07 4.78-5.56 4.82-3.7.06-5.89 1.95-7.15 8.37S19.1 92.03 19.1 92.03c-1.05 7.07 1.4 10.03 14.08 10.03H94.8c12.7 0 15.15-2.96 14.09-10.03z"/><path style="fill:#4e342e" d="m88.5 58.82-3.72-6.07-8.24-1.42-3 1.79c-.7.42-1.57.39-2.25-.05l-1.55-1.02-11.41.09-1.19.86c-.69.5-1.62.53-2.34.09l-2.74-1.68-12.56 7.41-4.47 25.5.21 4.61c.04.94.82 1.68 1.76 1.68h54.01c.94 0 1.72-.74 1.76-1.68l.21-4.61-4.48-25.5z"/><path style="fill:#f5f5f5" d="M78.64 72.46h10.31c.97 0 1.71-.88 1.54-1.83l-.95-5.45c-.13-.75-.78-1.29-1.54-1.29H78c-.94 0-1.66.82-1.55 1.75l.65 5.45c.08.78.75 1.37 1.54 1.37zM59.39 60.4h9.35c.89 0 1.61-.75 1.56-1.64l-.31-5.95a1.56 1.56 0 0 0-1.56-1.48H59.7c-.83 0-1.52.65-1.56 1.48l-.31 5.95c-.05.89.67 1.64 1.56 1.64zm10.36 16.57H58.38c-.83 0-1.52.65-1.56 1.48l-.28 5.45c-.05.89.67 1.64 1.56 1.64h11.93c.89 0 1.61-.75 1.56-1.64l-.28-5.45a1.56 1.56 0 0 0-1.56-1.48zm-10.96-4.51h10.54c.89 0 1.61-.75 1.56-1.64l-.28-5.45a1.56 1.56 0 0 0-1.56-1.48h-9.98c-.83 0-1.52.65-1.56 1.48l-.28 5.45c-.04.89.67 1.64 1.56 1.64zm-10.28 4.51H37.63c-.76 0-1.41.55-1.54 1.29l-.95 5.45c-.17.96.57 1.83 1.54 1.83h11.19c.79 0 1.46-.59 1.55-1.38l.65-5.45c.1-.92-.62-1.74-1.56-1.74zm-9.46-4.51h10.43c.79 0 1.46-.59 1.55-1.38l.65-5.45c.11-.93-.61-1.75-1.55-1.75H40.01c-.76 0-1.41.55-1.54 1.29l-.95 5.45c-.18.96.56 1.84 1.53 1.84zM77.26 60.4h9.66c.97 0 1.71-.88 1.54-1.83l-1.04-5.95c-.13-.75-.78-1.29-1.54-1.29h-9.33c-.94 0-1.66.82-1.55 1.75l.71 5.95c.09.78.76 1.37 1.55 1.37zm-24.84-1.38.71-5.95c.11-.93-.61-1.75-1.55-1.75h-9.46c-.76 0-1.41.55-1.54 1.29l-1.04 5.95c-.17.96.57 1.83 1.54 1.83h9.79c.79.01 1.46-.58 1.55-1.37zm25.64 19.7.65 5.45c.09.79.76 1.38 1.55 1.38h11.06c.97 0 1.71-.88 1.54-1.83l-.95-5.45c-.13-.75-.78-1.29-1.54-1.29H79.61c-.93-.01-1.66.81-1.55 1.74z"/></svg>