<svg xmlns="http://www.w3.org/2000/svg" viewBox="0 0 1000 1000"><path fill="#00247d" d="M8 195.25c170.83-85.22 341.03-54.42 513.26-27.97 155.21 23.84 312.16 44.57 470.74-34.53v672c-170.83 85.22-341.03 54.42-513.26 27.97C323.53 808.88 166.58 788.15 8 867.25v-672"/><path fill="#fff" d="M8 195.25a522.336 522.336 0 0 1 55.01-23.64c63.03 20.3 126.03 54.42 190.99 98.17 63.04-43.59 126.06-79.31 190.99-114.15L500 164l11 31.75c-66.67 35.23-133.33 69.95-201.99 112.96C375.65 358 442.31 414.13 511 471.65l-22 56.7c-77.52-64.91-155.09-129.54-235-183.44-77.56 53.7-155.14 118.96-235 211.05L8 531.25v-37.57C71.05 419.16 134.05 360.26 198.99 310c-63-37.29-126.07-65.25-190.99-77.18v-37.57"/><path fill="#cf142b" d="M254 307.34c12.1-.1 24.2.08 36.67.52 71.49 51.45 142.99 111.53 216.66 173.24L500 500c-81.14-67.98-162.35-136.23-246-192.66v25.05c-78.77 54.54-157.56 121-238.67 215.3L8 531.25c81.2-95.98 162.36-165.99 246-223.91-12.1.12-24.2.51-36.67 1.27C148.29 265.74 79.15 233.38 8 220.29v-25.04C89.19 210.18 170.33 251 254 307.34V282.3c69.1-47.77 138.16-86.08 209.33-123.93L500 164c-81.19 42.88-162.39 85.54-246 143.34"/><path fill="#fff" d="M295 140.03v112c94.72 3.95 189.4 22.81 287 36.17v112c-94.68-12.96-189.44-32.1-287-36.17v168c-27.06-1.1-54.12-1.02-82 .86v-168c-67.64 4.66-135.32 19.6-205 54.36v-112c67.69-33.77 135.27-49.56 205-54.36v-112c27.07-1.82 54.12-1.99 82-.86"/><path fill="#cf142b" d="M278.6 139.51v134.4c100.14 2.28 200.21 22.57 303.4 36.69v67.2c-100.08-13.7-200.27-34.34-303.4-36.69v190.4c-16.24-.35-32.47-.24-49.2.47v-190.4C156.36 344.79 83.25 359.31 8 396.85v-67.2c73.11-36.47 146.09-51.95 221.4-55.27v-134.4c16.24-.69 32.47-.83 49.2-.47"/><path fill="#00247d" d="M8 531.25C170.66 450.1 332.46 474.06 500 500V164c161.81 25.05 325.35 51.88 492-31.25v672c-170.83 85.22-341.03 54.42-513.26 27.97C323.53 808.88 166.58 788.15 8 867.25v-336"/><path fill="#fff" d="M638.96 348.32c69.5 7.1 139.04 9.02 210.64-3.51l-.25 204.77c1.56 81.57-35.66 141.65-104.9 165.43-49.21-16.45-105.37-56.32-105.73-159.66l.25-207.03h-.01"/><path fill="#00a2bd" d="M643.62 354.96c66.42 6.55 132.88 8.2 201.31-3.17L844.69 548c1.48 78.2-34.08 135.31-100.25 158.1-47.05-15.77-100.69-53.72-101.05-152.75l.24-198.39h-.01"/><path d="M643.62 353.95c66.67 6.57 133.37 8.21 202.05-3.3l-.24 197.21v.02c1.45 76.7-31.81 135.42-100.82 159.21l-.18.06-.17-.06c-29.68-10-52.31-25.64-68.39-45.35-22.1-27.51-33.09-63.73-33.23-108.46l.24-198.39.74.07v-1.01m.75 2.1-.24 197.37c.13 44.11 10.95 79.78 32.71 106.85 15.86 19.43 38.24 34.88 67.6 44.79 68.11-23.54 100.94-81.32 99.51-156.91v-.01l.23-195.21c-65.96 10.87-131.85 9.78-199.81 3.12"/><path fill="#a53d08" d="M843.37 571.46c-7.6 76.93-49.65 115.67-98.94 133.64-43.68-15.77-90.06-45.23-99.42-130.21 65.45 6.26 130.93 7.7 198.36-3.43"/><path d="m736.46 396.63-.28-24.73 14.31.12.14 24.53c12.92-.21 25.84-.74 39.15-1.69l.14 19.16c-12.97.99-25.93 1.61-39.29 1.88l-.31 226.04-13.96.2-.18-226.35c-12.88.01-25.75-.29-39.02-.88l.01-19.55c12.97.7 25.93 1.15 39.29 1.27"/><path fill="#ff9a08" d="M697.96 590.99c-.33-.08-5.92-1.36-7.48-10.31-.62-9.07 9.15-16.18 10.38-17 1.2-.5 14.28-4.85 17.08-21.65 2.7-14.36 5.06-14.21 6.16-14.16.14.01.24.01.31-.02 18.15 3.26 29.79 46.26 30.59 77.74.49 31.31-9.23 51.58-11.05 53.21-2.37.55-42.48-66.79-43.09-67.82l1.41-1.04c-2.19.96-4.27 1.05-4.31 1.05m6.81-2.89 35.83 51.5c12.29-19.25 3.73-87.45-12.5-101.02-2.03 8.35-5.34 17.8-8.81 21.12-2.46 2.16-5.92 4.45-9.43 6.7-8.01 5.12-15.05 9.45-11.01 13.66 1.75-2.78 4.85-4.96 7.03 1.07.65 3.55-.01 5.5-1.32 7.12l.21-.15m-2.5 1.84c.83-.42 1.6-.95 2.29-1.69l-2.29 1.69"/><path d="M700.48 591.19c-.82.21-1.64.32-2.51.34l-.03.01-.03-.01c-1.14-.29-2.23-.87-3.47-1.89-2.43-2.23-3.74-4.88-4.36-8.88-.36-4.1 1.02-7.79 4.56-12.1 2.09-2.38 4.05-4.15 6.04-5.47l.02-.01.02-.01c.04-.02.15-.06.32-.13 9.66-3.97 14.89-10.74 16.51-21.12v-.02c1.87-10.08 3.86-14.42 6.56-14.57l.16.01.09-.05.09.02c8.67 1.55 15.79 10.65 22.15 28.54 5.45 15.8 8.37 32.24 8.8 49.71.25 13.45-1.29 26.03-4.63 37.98-2.64 9.17-4.81 14.14-6.62 15.73-1.51.77-15.81-20.78-43.6-67.96l-.07-.12m4.83-3.09 35.28 50.71c2.7-4.54 4.42-11.38 5.18-21.11.65-9.31.3-19.49-1.05-30.67-1.41-11.17-3.55-20.99-6.41-29.58-3.07-8.94-6.33-14.74-9.99-18.05-2.75 11.13-5.63 17.79-8.81 20.76-1.65 1.45-4.78 3.71-9.48 6.73-5.12 3.3-8.4 5.67-9.98 7.16-1.18 1.2-1.8 2.15-2.03 3.07-.13.81.08 1.44.74 2.19 1.03-1.58 2.03-2.32 3.43-2.57 1.93-.07 3.05 1.07 4.06 4.2l.01.02v.03c.59 3.09.29 5.18-.95 7.11m-3.23 1.35 2.27-1.67c1.34-1.72 1.69-3.6 1.16-6.49-.83-2.58-1.72-3.52-3.22-3.47-1.29.23-2.19.97-3.12 2.57l-.22.4-.31-.29c-1.22-1.18-1.62-2.24-1.39-3.71.29-1.16 1-2.28 2.32-3.63 1.62-1.53 4.94-3.93 10.11-7.25 4.66-3 7.76-5.24 9.39-6.67 3.08-2.89 5.92-9.57 8.65-20.83l.15-.64.43.34c3.98 3.34 7.46 9.4 10.73 18.88 2.89 8.68 5.04 18.58 6.47 29.85 1.37 11.27 1.72 21.55 1.06 30.96-.81 10.29-2.68 17.49-5.66 22.17l-.29.43-35.89-51.59c-.53.53-1.13.98-1.85 1.4-.14.08-.29.16-.44.23l-.97.72c27.31 46.33 41.19 67.63 42.3 67.17 1.64-1.47 3.7-6.25 6.27-15.17 3.3-11.81 4.82-24.25 4.58-37.55-.43-17.32-3.32-33.62-8.73-49.29-6.21-17.49-13.1-26.38-21.44-27.93-.09.02-.21.03-.35.02-2.27.18-4 4.24-5.76 13.75-1.68 10.79-7.09 17.84-17.05 21.92l-.27.11c-1.91 1.27-3.82 2.99-5.84 5.3-3.33 4.06-4.62 7.43-4.3 11.12.56 3.66 1.76 6.08 3.96 8.12 1.14.92 2.13 1.46 3.14 1.72 1.47-.05 2.77-.37 4.11-1"/><path d="m731.29 541.51.22 91.65h-.79l-.23-91.65h.8"/><path fill="#ff9a08" d="m726.87 543.14.2 73.44.02 9.82-.22-83.26"/><path d="m727.27 543.14.11 41.63.11 41.63-.79-.01-.11-41.63-.12-41.63.8.01M722.91 555.11l.23 66.18-.8-.01-.22-66.18.79.01M719.34 559.76l.22 54.74-.79-.01-.22-54.75.79.02M715.55 562.1v46.2l-.8-.02v-46.21l.8.03M711.41 565.63v36.59l-.79-.02v-36.6l.79.03M707.84 568.4v28.05l-.79-.03v-28.05l.79.03"/><path fill="#ffdf00" d="m704.51 593.52 36.95 58.53c.17.3.16.51-.04.77-.22.23-.37.22-.56-.05l-36.95-58.56c-.17-.3-.16-.51.04-.76.21-.23.36-.21.56.07M743.62 557.74c2.79 8.43 4.95 18.49 6.49 30.34 2.97 23.79 1.22 44.21-5.27 61.73-.27.61-.53.73-1.01.44-.22-.16-.34-.33-.41-.57-.04-.24-.02-.48.09-.79 6.34-17.1 8.05-37.09 5.14-60.44-1.52-11.68-3.64-21.58-6.38-29.86-.19-.65-.09-1.02.37-1.34.24-.14.4-.17.58-.09.17.1.29.27.4.58M699.16 582.76c.24-.83.54-1.55.92-2.2.4-.67.78-1.05 1.23-1.26.69-.24 1.19-.07 1.82.64.37.5.39.89.08 1.43-.18.26-.32.37-.51.39-.18 0-.34-.09-.54-.32-.15-.18-.26-.23-.37-.2-.16.08-.33.27-.54.62-.29.5-.52 1.05-.7 1.68-.21.64-.47.79-.96.55-.47-.3-.59-.67-.43-1.33M697.44 570.99c-1.05 1.26-1.95 2.66-2.75 4.32-1.38 3.21-1.42 5.3-.22 7.33.34.54.33.94-.02 1.43-.19.23-.34.32-.52.32-.19-.02-.34-.14-.53-.4-1.74-2.85-1.74-5.7.03-9.81.88-1.83 1.87-3.38 3.03-4.76.2-.22.35-.3.54-.29.18.04.33.16.51.43.32.56.3.96-.07 1.43"/><path fill="#008021" d="M750.74 444.01c2.57-3.07 3.7-4.55 5.3-4.46 1.61.24 3.55.04 5.17-.62 1.8-.68 8.89-2.03 12.3-.96 1.12.18 2.39.84 4.66 3.23 2.26 2.51 5.22 6.46 4.32 18.73-1.03 12.18-.74 17.33-1.18 24.13-.9 12.32-2.7 21.53-6.27 21.34 4.63 11.1 5.3 20.67 8.28 28.28 3.01 7.67 4.9 23.15 3.78 40.45-1.19 17.29-4.33 55.74 5.44 80.99-1.98 1.59-5.36.48-9.22-4.53-3.71-4.91-4.96-4.69-8.04-1.48-9.14 10.05-17.17 21.09-29.79 10.22-2.85-2.73-3.66-5.51-1.66-13.55 5.15-19.81 7.66-46.76 6.91-59.5V444.01"/><path d="m750.63 443.84.75-.89c2.27-2.66 3.63-3.66 4.69-3.62 1.82.29 3.38.1 5.09-.61 1.12-.46 2.94-.88 5.59-1.23 3.19-.37 5.31-.26 6.79.26 1.34.24 2.78 1.21 4.74 3.28 3.64 4.19 5.04 10.12 4.37 18.92-.42 4.99-.72 10.49-.88 16.5-.08 3.33-.19 5.87-.3 7.62-.48 6.62-1.2 11.73-2.14 15.46-1.2 4.23-2.32 5.91-3.99 6.12 1.69 4.15 3.37 9.74 5.01 16.86 1.2 5.18 2.25 8.84 3.11 11.05 1.57 4.02 2.75 9.5 3.51 16.69.74 7.62.84 15.55.29 23.89l-.18 2.64c-1.05 15.18-1.45 27.51-1.21 37.03.51 17.18 2.78 30.82 6.81 41.2l.07.16-.12.13c-1.04.95-2.17 1.04-4.05.28-1.9-.92-3.59-2.41-5.38-4.82-1.78-2.41-3.03-3.49-4.15-3.75-1.02-.03-2.09.61-3.67 2.27l-2.32 2.56c-5.49 6.06-9.61 9.62-12.6 11.1-5.18 2.2-9.75 1.17-15.06-3.42-1.55-1.48-2.38-2.97-2.75-4.92-.25-2.17.05-5.01 1.03-8.89 2.45-9.41 4.35-20.17 5.7-32.36 1.21-11.31 1.6-20.3 1.2-27.05V443.91l.05-.07m.27.27v142.17c.41 6.78.02 15.8-1.2 27.14-1.35 12.21-3.26 23.01-5.72 32.44-.95 3.8-1.25 6.56-1.01 8.65.35 1.82 1.13 3.23 2.61 4.64 5.22 4.51 9.7 5.52 14.79 3.37 2.94-1.47 7.03-5 12.49-11.02l2.32-2.56c1.66-1.75 2.8-2.41 3.91-2.37 1.21.27 2.52 1.39 4.35 3.86 1.76 2.37 3.4 3.83 5.26 4.73 1.68.68 2.7.64 3.63-.1-4.02-10.42-6.28-24.06-6.79-41.21-.24-9.54.16-21.89 1.21-37.09l.19-2.64c.54-8.31.44-16.21-.3-23.79-.75-7.14-1.91-12.57-3.47-16.54-.87-2.24-1.92-5.92-3.13-11.13-1.68-7.31-3.4-12.99-5.14-17.15l-.17-.4.34.07c1.65.06 2.74-1.51 3.95-5.79.93-3.69 1.65-8.77 2.13-15.34.11-1.75.21-4.28.3-7.6.16-6.02.45-11.53.88-16.54.65-8.63-.71-14.43-4.26-18.53-1.92-2.02-3.31-2.96-4.58-3.19h-.02l-.02-.01c-1.43-.51-3.52-.61-6.68-.24-2.63.35-4.42.75-5.51 1.2-1.76.73-3.37.93-5.24.63-.95-.03-2.24.95-4.43 3.51l-.69.83"/><path fill="#ffe1cf" d="M759.26 431.72c.62 2.84.89 6.14-.06 9.53-1.03 3.39-1.22 7 .47 11.77 3.1-5.39 6.62-4.74 9.22-7.9 2.32-3.49 2.95-6.18 4.62-7.15-1.92-2.11-4.25-4.08-3.91-10.32.86-6.29 6.52-11.28 1.19-20.56-4.05-5.74-8.66-4.09-11.3-1.62-1.07 1.18-1.96 2.69-2.36 3.77-.26 1.11-.04 3.37-.77 4.87-.6.98-1.31 1.94-2.13 2.79-.54.6-.82 1.24-.29 2.18.25.34.62.43 1.1.63-.27.73-.58 1.46-.87 1.99-.26.54-.16.93.18 1.36-.36 1.97.33 2.12-.18 3.61-.56 1.38-1.12 2.62.71 4.18.66.39 2.94 1.04 4.38.87"/><path d="M759.15 431.97c-1.74.25-3.02-.02-4.34-.92-.89-.7-1.28-1.36-1.36-2.26.01-.52.17-1.19.53-2.1l.05-.13c.17-.46.21-.92.12-1.48-.11-.67-.1-1.3.01-1.94-.37-.55-.41-.99-.12-1.57.24-.43.49-1 .76-1.72l-.15-.06c-.43-.18-.69-.35-.84-.56-.29-.49-.38-.92-.29-1.43.09-.39.28-.73.62-1.08.75-.78 1.44-1.68 2.09-2.75.31-.58.5-1.53.56-3.04.03-.89.1-1.47.19-1.78.51-1.39 1.27-2.62 2.42-3.86 1.58-1.54 3.13-2.23 5.23-2.34 2.63.11 4.43 1.24 6.28 3.99 1.75 2.97 2.46 5.54 2.37 8.43-.16 1.67-.75 3.88-1.88 6.78-.96 2.46-1.48 4.27-1.63 5.52-.23 3.74.74 6.56 3.25 9.47l.59.66.24.26-.3.12c-.66.35-1.37 1.28-2.31 3.15-.83 1.69-1.57 2.99-2.23 3.94-.73.95-1.88 1.83-3.68 2.76-2.65 1.4-4.33 2.96-5.53 5.12l-.15.3-.12-.32c-1.53-4.27-1.67-7.98-.48-11.97.8-2.76.84-5.62.1-9.19m.27-.32c.81 3.76.77 6.77-.07 9.68-1.11 3.77-1.01 7.24.35 11.27 1.25-2.09 2.94-3.63 5.53-4.99 1.75-.9 2.85-1.75 3.55-2.64.64-.94 1.37-2.22 2.19-3.88.86-1.71 1.56-2.69 2.22-3.18l-.38-.41c-2.6-3.02-3.6-5.97-3.37-9.88.16-1.31.69-3.16 1.67-5.67 1.11-2.85 1.69-5 1.85-6.61.08-2.76-.61-5.23-2.3-8.1-1.78-2.65-3.51-3.74-6.03-3.84-2.03.1-3.52.77-5.04 2.25-1.1 1.19-1.83 2.36-2.31 3.68-.07.26-.13.78-.16 1.61-.07 1.61-.28 2.65-.64 3.31-.67 1.1-1.38 2.03-2.15 2.83-.27.28-.43.55-.5.84-.06.35.01.65.23 1.02.1.14.31.27.68.42.15.05.27.1.35.14l.17.08-.08.23c-.32.86-.61 1.53-.88 2.03-.18.38-.14.67.16 1.05l.08.1-.03.14c-.13.61-.14 1.2-.04 1.84.11.67.06 1.23-.15 1.81l-.05.12c-.34.84-.48 1.43-.49 1.86.06.73.4 1.29 1.18 1.9 1.3.87 2.55 1.12 4.28.84l.13-.03.05.18"/><path fill="#ffe1cf" d="M736.26 464.12c-3.37.87-8.58-.69-12.65-.31-1.89.1-3.04-.93-2.95-3.46.22-2.44.41-6.1.11-9.52-.44-5.37 1.3-12.49 3.9-20.59 2.61-8.07 3.83-12.51 3.91-16.33.02-2.66.25-5.12 1.83-6.76 1.19-1.12 1.47-2.07 1.89-2.97 1.09-2.02 1.84-2.47 2.07-1.28.05.75-.12 1.35-.59 2.34 1.09-1.18 2.85-2.62 3.28-3.01.55-.53 2.28-2.3 2.63-.52.88-.56 1.33-.53 1.6.07.2.68.09.91-.33 1.42.65-.01 1.2 1.11.09 2.5.69-.13 1.16 1 .15 2.42-1.17 1.34-2.35 2.29-2.84 3.32-.57 1.09-3.18 3.84-4.34 4.62-1.11.73-1.18 1.46-1.19 3.79-.07 24.87-2.11 22.83-2.18 28.8-.02 1.73-.24 2.92.94 2.6 1.22-.49 2.88-1.12 4.67-1.18v14.05"/><path d="M736.3 464.33c-1.26.36-3.36.39-6.63 0-2.82-.35-4.79-.44-6.04-.3-1.01.1-1.69-.12-2.35-.78-.64-.76-.88-1.62-.79-2.93.33-3.69.36-6.8.12-9.46-.37-4.43.87-11.19 3.91-20.72 2.58-8.05 3.82-13.39 3.89-16.23.07-3.66.66-5.69 1.91-6.95.61-.56 1.11-1.29 1.57-2.3.12-.27.21-.48.28-.61.53-1.04.98-1.62 1.43-1.92.26-.14.43-.14.62-.01.17.15.26.37.31.76.03.45-.03.94-.22 1.53.5-.49 1.16-1.08 1.99-1.78.36-.31.58-.51.66-.58.57-.54 1.05-.92 1.47-1.15.38-.2.65-.25.9-.18.26.1.4.29.48.66.37-.21.65-.3.92-.3.35.04.55.21.71.61.14.48.11.86-.11 1.3.24.13.39.38.5.87.09.6-.02 1.09-.38 1.64.05.03.09.06.13.09.17.16.28.37.34.67.12.74-.06 1.33-.61 2.03-.28.33-.7.77-1.26 1.33-.87.88-1.36 1.5-1.55 1.92-.24.55-.86 1.37-1.95 2.54-1.08 1.13-1.89 1.83-2.47 2.19-.72.51-1.04 1.53-1.08 3.58-.03 11.17-.59 19.23-1.64 24.33-.35 1.7-.53 3.18-.55 4.48l-.01.71c-.01.79.02 1.27.08 1.48.1.27.29.32.67.18l.11-.04c1.94-.76 3.42-1.11 4.6-1.15l.17.01v14.44l-.13.04m-.2-.39v-13.65c-1.13.07-2.53.42-4.34 1.12l-.12.05c-.58.2-.86.08-1.06-.43-.08-.28-.12-.82-.11-1.68l.01-.7c.02-1.34.2-2.85.56-4.6 1.05-5.05 1.61-13.08 1.63-24.2.05-2.26.43-3.39 1.28-3.99.56-.34 1.35-1.03 2.4-2.13 1.06-1.13 1.64-1.91 1.87-2.4.21-.48.73-1.15 1.64-2.07.55-.55.96-.99 1.23-1.3.45-.57.6-1.03.52-1.58-.04-.19-.11-.32-.21-.41-.1-.09-.19-.1-.3-.06l-.15-.38c.48-.55.64-1 .56-1.55-.1-.46-.24-.61-.52-.56l-.61.17.47-.56c.33-.41.41-.73.29-1.15-.09-.23-.21-.33-.42-.35-.26 0-.56.11-.96.38l-.21.15-.02-.33c-.03-.35-.11-.51-.28-.58-.18-.04-.39 0-.7.16-.39.23-.85.58-1.4 1.1-.08.08-.31.28-.68.6-1.23 1.05-2.08 1.85-2.59 2.4l-.24-.29c.43-.92.6-1.6.57-2.19-.03-.23-.08-.36-.15-.43-.09-.05-.18-.04-.33.04-.39.26-.8.8-1.29 1.77-.06.12-.15.32-.27.58-.48 1.07-1.02 1.85-1.67 2.45-1.15 1.17-1.7 3.09-1.76 6.57-.07 2.91-1.32 8.31-3.92 16.42-3.02 9.45-4.25 16.13-3.89 20.47.25 2.7.22 5.86-.11 9.59-.08 1.13.12 1.87.66 2.52.58.57 1.19.77 2.11.67 1.27-.14 3.27-.05 6.11.3 3.11.38 5.16.37 6.4.06"/><path fill="#ffe1cf" d="M736.97 517.73c5.43-3.52 11.42-5.08 14.66-6.23 3.19-1.3 8.23-4.68 10.76-6.56 2.45-1.92 4.55-4.25 5.91-5.05 1.48-.8 2.89-2.07 3.9-4.53 4.6-12.55 7.02-22.44 7.1-31.04-.09-5.93-.84-11.53-5.09-7.17-3.77 4.6-7.75 12.7-8.98 18.79-1.73 9.09-3.01 11.1-3.43 12.87-.49 1.77-1.59 1.83-3.31 2.36-6.99 2.34-8.59 3.71-13.83 9.11-5.24 5.34-10.88 10-14.67 12.88-3.82 2.87-4.42 3.17-5.32 5.49-.84 2.34-1.61 4.06-2.3 5.12-.69 1.11-.88 2.21-.77 3.54.06 1.06-.22 5.88-.29 7.5-.03 1.65.21 1.98.71 2.12.52.05 1.05-.2 1.36-2.15-.04 1.94 1.52 1.3 1.83-.13.16 2.09 1.81.92 2.13-1.02.17 1.36 1.43.46 1.71-.22.35-1.61.68-3.36 1.12-4.66.7-1.93 1.49-4.19 2.78-5.63 1.43-1.65.95-3.08 4.02-5.39"/><path d="M737.01 517.95c-1.27.93-2.14 1.99-2.79 3.43-.38.88-.76 1.49-1.17 1.92-.75.82-1.55 2.32-2.46 4.79l-.27.76c-.23.64-.52 1.77-.86 3.42l-.25 1.21c-.14.5-.43.79-1.03 1.03-.28.08-.47.07-.66-.04a.642.642 0 0 1-.13-.1c-.21.72-.54 1.16-1.13 1.49-.35.17-.59.16-.85-.02-.1-.09-.18-.2-.25-.35-.22.39-.5.6-.98.71-.33.05-.54-.02-.74-.26l-.09-.12c-.31 1.04-.68 1.4-1.35 1.33-.64-.2-.88-.84-.86-2.35l.12-2.21c.17-3.04.21-4.78.18-5.25-.13-1.51.12-2.63.81-3.72.64-.99 1.4-2.64 2.28-5.07.6-1.44 1.89-2.91 4.23-4.72l1.15-.87c5.46-4.15 10.32-8.43 14.65-12.86 2.79-2.86 4.87-4.75 6.27-5.75 1.79-1.16 4.26-2.27 7.62-3.4.19-.06.45-.14.81-.24 1.46-.46 2.13-1.02 2.38-1.95.08-.37.27-.99.59-1.86 1.09-3.11 2.04-6.75 2.84-11.01.6-3 1.73-6.29 3.51-10.05 1.8-3.64 3.62-6.54 5.53-8.85 1.04-1.18 1.81-1.68 2.6-1.73.72.06 1.2.47 1.69 1.46.66 1.61 1.03 4.01 1.06 7.59-.07 7.94-2.39 18.24-7.11 31.14-.9 2.23-2.1 3.61-4 4.65-.48.27-1.37.99-2.71 2.25-1.34 1.27-2.4 2.2-3.17 2.79-4.64 3.43-8.19 5.54-10.8 6.57-.45.17-1.25.44-2.39.81-5.38 1.77-9.38 3.54-12.24 5.41l-.03.02m.12-.58c2.87-1.83 6.83-3.56 12.08-5.29l2.38-.8c2.58-1.02 6.11-3.12 10.72-6.53.77-.59 1.82-1.5 3.15-2.77 1.36-1.28 2.28-2.02 2.79-2.3 1.81-.99 2.95-2.3 3.81-4.42 4.69-12.83 7-23.06 7.08-30.94-.04-3.48-.39-5.82-1.02-7.35-.42-.86-.82-1.21-1.42-1.26-.7.05-1.41.51-2.38 1.61-1.89 2.29-3.69 5.15-5.47 8.76-1.75 3.72-2.88 6.96-3.46 9.91-.81 4.29-1.76 7.97-2.87 11.1-.31.85-.49 1.44-.56 1.78-.3 1.11-1.05 1.77-2.64 2.28l-.8.23c-3.33 1.12-5.78 2.23-7.54 3.37-1.38.99-3.45 2.86-6.23 5.7-4.34 4.45-9.21 8.74-14.68 12.91l-1.15.87c-2.28 1.75-3.53 3.16-4.1 4.52-.89 2.47-1.67 4.16-2.33 5.18-.62.98-.84 1.99-.73 3.35.04.51 0 2.28-.18 5.35l-.11 2.2c-.03 1.22.14 1.73.57 1.88.64.04.96-.49 1.18-1.97l.32.08c-.04.38 0 .62.12.79.12.14.25.18.47.15.58-.15.83-.46.92-1.14l.32.04c0 .42.06.65.21.8.16.11.31.11.56-.01.65-.39.94-.91 1.03-1.84l.33.03c.01.23.05.35.15.43.12.06.25.07.45 0 .47-.18.7-.39.79-.72l.26-1.21c.35-1.67.64-2.83.87-3.5l.28-.75c.93-2.53 1.77-4.09 2.56-4.95.37-.39.72-.96 1.08-1.79.69-1.53 1.61-2.64 2.96-3.62l.23-.16"/><path fill="#ffe1cf" d="M775.28 649.11c.38 1.75.98 3.75 1.24 4.94.19 1.21-.15 1.59-.41 2.28-1.21 3.67-2.51 9.32-2.79 12.41-.18 1.8-.97 3.5-1.41 4.59-.43 1.25-.28 1.99.77 3.12.65.41 1.96-.21 2.3-1.41.7.73 1.55.43 2.13-.83.63.64 1.33.2 2.01-1.08.61.35 1.23-.48 1.6-1.22.91.43 1.62-.16 1.74-2.45.02-.46.21-1.21.45-1.76.21-.57.31-1.54.29-2.44.01-.92.4-2.65.95-3.98.59-1.37 1.41-3.49 1.12-5.64-.45-1.92-.94-1.73-1.54-4.51-1.4-1.91-3.02-4.01-4.9-4.31-1.86.12-2.85 1.58-3.55 2.29"/><path d="m775.12 649.18-.03-.16.1-.09c.08-.08.23-.24.44-.48 1.2-1.28 2.14-1.82 3.21-1.85 1.31.18 2.78 1.41 4.94 4.29l.07.08.03.04.01.06c.2 1 .49 1.87.88 2.66.31.63.52 1.23.65 1.84.23 1.53-.1 3.32-1.13 5.82-.65 1.53-.93 2.75-.93 3.85.03 1.16-.08 1.97-.32 2.57-.27.63-.4 1.16-.42 1.64-.03 1.16-.23 1.89-.63 2.42-.39.44-.73.52-1.22.31-.19.38-.41.68-.67.94-.38.33-.64.41-.93.29-.32.59-.63.96-1.02 1.19-.41.21-.69.19-1-.06-.27.55-.58.86-1.02 1.06-.44.14-.74.09-1.07-.18-.19.48-.51.83-1.05 1.15-.68.34-1.08.36-1.43.06-1.02-1.12-1.25-2.07-.82-3.4l.29-.7c.68-1.63 1.02-2.86 1.11-3.8.3-3.63 1.2-7.72 2.8-12.48.04-.12.1-.27.19-.47.24-.58.3-1.09.21-1.66-.08-.37-.25-1.06-.52-2.08-.35-1.28-.59-2.23-.72-2.86m.35.01c.13.62.35 1.51.67 2.68.28 1.03.46 1.74.53 2.12.12.7.05 1.31-.24 2.01-.08.18-.14.32-.18.42-1.57 4.72-2.47 8.76-2.76 12.34-.1 1-.46 2.3-1.16 3.99l-.28.68c-.35 1.08-.15 1.88.73 2.83.25.21.56.18 1.11-.11.56-.33.83-.66.93-1.15l.06-.4.22.28c.28.34.54.42.95.28.41-.18.68-.48.91-1.05l.11-.27.15.2c.24.28.47.32.82.15.35-.22.65-.58.95-1.18l.09-.19.13.12c.2.14.4.09.71-.18.26-.27.48-.58.66-.96l.08-.18.13.08c.41.23.68.19.99-.15.32-.44.49-1.07.52-2.08.02-.57.17-1.17.47-1.88.19-.51.29-1.25.27-2.31-.01-1.19.29-2.49.97-4.11.99-2.38 1.31-4.06 1.1-5.46-.12-.56-.32-1.12-.61-1.71-.4-.82-.7-1.71-.92-2.74l-.03-.05c-2.1-2.8-3.51-3.99-4.73-4.17-.98.04-1.86.54-2.99 1.75-.15.18-.27.31-.36.4"/><path fill="#ffe1cf" d="M741.64 663.88c2.02 2.21 5.01 2.27 7.98-1.52-.96-.57-2.96-1.85-3.96-2.87-1.34 1.84-2.79 3.7-4.02 4.39"/><path d="m741.52 664.04-.18-.26.25-.11c.8-.45 2.07-1.78 3.95-4.33h.01l.1-.15.12.13c.72.75 1.98 1.68 3.92 2.83l.21.12-.16.24c-1.37 1.89-2.68 2.8-4.45 3.11-1.67.14-2.74-.31-3.77-1.58m.42-.09c.92 1 1.87 1.35 3.32 1.23 1.61-.28 2.82-1.08 4.08-2.74-1.74-1.05-2.93-1.93-3.66-2.65-1.69 2.27-2.91 3.58-3.74 4.16"/><path fill="#870f00" d="M758.37 406.87c.97-5.74 3.38-5.66 5.5-5.17.84.21 2.58.34 4.43-.32 3.75-1.23 5.87-.01 5.8 4.75.96 1.06 1.83 3.02 1.77 5.08-.14 2.01.1 2.65 1.42 2.91 1.51.38 3.79 1.98 2.24 5.37 1.82 1.65 2.96 4.72 2.19 7.54-1.23 2.59-3.49 3.06-4.96.93-1.48.87-3.23 1.08-4.73-.66-1.11 1.47-2.91 1.42-3.55.15-.47-1.3-1.08-1.88-1.95-2.26-.91-.71-.97-3.57.41-4.38-.16-1.09-.08-2.19.24-2.83.31-.67.07-1.53-.77-2.48-.82-1.1-1.42-4-.71-6.11-1.66.49-4.28-.96-5.2-2.33-.74-1.27-1.44-1.32-2.13-.19"/><path d="M758.21 406.84c.37-2.72 1.08-4.19 2.39-5.11.95-.51 1.93-.59 3.31-.24 1.46.35 2.78.26 4.35-.33 1.96-.72 3.24-.67 4.47.13 1.18 1.01 1.63 2.36 1.54 4.73 1.36 1.49 1.88 3.01 1.76 5.21-.1 1.72.25 2.44 1.28 2.67.98.18 1.69.65 2.4 1.63.77 1.27.79 2.37.06 3.89.89.79 1.52 1.8 2.03 3.29.5 1.72.51 3.06.07 4.42-.58 1.39-1.3 2.07-2.53 2.37-1.2.17-1.94-.18-2.64-1.26-2 1.16-3.27.99-4.67-.61-.51.67-1.08.96-1.96 1.01-.96-.03-1.44-.33-1.74-1.09-.4-1.12-.94-1.74-1.85-2.15-.59-.3-.82-.96-.79-2.38.09-1.32.4-1.99 1.06-2.36-.17-1.29-.06-2.14.31-2.82.12-.24.14-.51.03-.91-.15-.44-.39-.83-.78-1.25-.48-.55-.8-1.4-1.03-2.8-.17-1.26-.13-2.26.12-3.15-.72.13-1.52-.03-2.65-.55-1.24-.65-1.96-1.26-2.38-1.99-.33-.59-.61-.85-.97-.91-.35 0-.61.2-.89.72l-.3-.16m.42-.67c.26-.25.49-.34.8-.34.47.08.82.39 1.21 1.1.37.65 1.05 1.22 2.23 1.82 1.28.6 2.09.71 2.78.43l.42-.21-.23.53c-.34.88-.43 1.89-.24 3.28.21 1.29.5 2.06.91 2.54.43.47.71.92.88 1.43.15.57.13.98-.09 1.37-.32.6-.39 1.39-.2 2.64l.04.22-.17.05c-.6.25-.87.81-.96 2.01-.03 1.17.14 1.7.57 1.93 1 .45 1.6 1.14 2.05 2.39.23.58.63.81 1.45.83.85-.05 1.37-.34 1.82-1.03l.12-.19.13.17c1.33 1.65 2.56 1.82 4.54.62l.12-.09.08.15c.63 1.05 1.3 1.39 2.42 1.24 1.11-.27 1.75-.88 2.27-2.12.4-1.23.38-2.45-.08-4.03-.51-1.49-1.15-2.48-2.05-3.22l-.16-.13.12-.2c.73-1.39.74-2.38.05-3.52-.65-.9-1.29-1.33-2.19-1.5-1.25-.27-1.68-1.12-1.56-3.15.11-2.06-.39-3.48-1.71-4.88l-.07-.07.01-.13c.11-2.24-.3-3.5-1.37-4.42-1.15-.75-2.36-.79-4.23-.1-1.62.61-2.99.71-4.51.33-1.3-.33-2.22-.26-3.1.22-1.08.74-1.7 1.92-2.1 4.03M759.24 431.5c.74-.18 1.54-.59 2.51-1.32.96-.71 1.66-1.01 2.31-1.01l-.03.45c-.58 0-1.22.28-2.13.95-1 .76-1.83 1.18-2.62 1.37l-.04-.44M754.46 422.9c.1.11.27.26.53.45.27.18.64.3 1.2.38l.19.03-.04.44-.18-.02c-.61-.09-1.02-.23-1.33-.44-.28-.2-.47-.37-.59-.51l.22-.33M755.09 419.5c.43.21.75.47 1.03.84l-.23.31c-.24-.32-.53-.54-.91-.73l.11-.42"/><path d="M760.27 406.98c-.39-.55-.45-1.06-.18-1.78.29-.64.69-1.04 1.37-1.35 1.84-.62 3.27.02 5.19 2.36.82.97 1.62 1.12 2.9.56l.11.42c-1.42.62-2.31.44-3.24-.65-1.81-2.22-3.16-2.84-4.87-2.27-.59.28-.94.62-1.18 1.15-.18.5-.15.85.12 1.23l-.22.33M765.66 409.18c3.06-.95 4.51-.39 5.39 2.1.28.84.7 1.33 1.46 1.69.97.47 1.59 1.15 2.09 2.32.8 1.98 1.53 3.31 2.25 4.14 1.02 1 1.7.97 2.57-.09l.23.3c-1.02 1.26-1.82 1.3-3.01.15-.75-.88-1.51-2.24-2.33-4.28-.46-1.06-1.02-1.68-1.91-2.11-.85-.41-1.33-.98-1.65-1.95-.8-2.24-2.15-2.73-5.01-1.84l-.08-.43M771.9 427.44c-.69-1.35-.84-2.73-.47-4.59-.66-1.26-.66-2.65.04-4.75l.29.19c-.66 1.97-.65 3.23-.02 4.36l.06.09-.03.12c-.37 1.76-.25 3.04.39 4.3l-.26.28M767.11 420.79c.18 1.65.83 2.41 2.34 2.77l-.05.44c-1.69-.39-2.41-1.27-2.62-3.16l.33-.05M776.63 428.1c-.56-1.08-.75-2.5-.57-4.66l.33.05c-.18 2.03-.01 3.35.5 4.32l-.26.29"/><path d="M768.29 412.29c-.02 1.97.45 3.03 1.61 3.76l.06.03.03.08c.71 2.02 1.69 2.69 3.62 2.45l.03.44c-2.07.26-3.14-.46-3.93-2.62-1.26-.82-1.76-1.99-1.75-4.15l.33.01M774 406.31c-1.98-1.92-3.6-2.88-5.3-3.21l.04-.44c1.76.33 3.43 1.32 5.46 3.29l-.2.36M759.8 453.15c-2.32 4.6-3.08 9.68-2.33 16.04l.09.68c.68 5.32 1.01 9.3 1.02 12.01-.11 4.86-.93 8.01-2.58 10.32l-.22-.33c1.58-2.21 2.37-5.26 2.47-9.98-.01-2.68-.33-6.65-1.01-11.93l-.09-.68c-.76-6.5.01-11.68 2.39-16.39l.26.26M775.01 505.62c-3.96-.85-6.42-.38-8.62 1.63-2.75 2.54-5.01 2.8-8.21.92l.15-.4c3.07 1.8 5.23 1.56 7.87-.88 2.29-2.08 4.82-2.58 8.88-1.71l-.07.44"/><path d="M769.34 505.63c-2.28.92-3.23 3.32-3.36 8.72 0 1.28-.07 3.43-.2 6.47-.3 7.31-.26 12.88.08 16.76l-.32.07c-.35-3.91-.39-9.5-.08-16.85.13-3.02.19-5.17.2-6.44.12-5.64 1.16-8.21 3.62-9.16l.06.43M765.03 508.3l-.35.13c-.91.37-1.45.77-1.79 1.29-.46.95-.66 2.42-.57 4.74l-.33.04c-.09-2.44.13-4 .65-5.04.38-.61.97-1.06 1.96-1.46l.35-.13.08.43M756.85 514.78c.05-1.94.29-3.46.72-4.7.59-1.46 1.16-1.93 2.08-1.72l-.08.43c-.74-.16-1.21.24-1.71 1.49-.4 1.18-.63 2.63-.68 4.5h-.33M773.87 514.82c.03-3.6-.22-6.08-.7-7.66-.4-1.08-.84-1.57-1.5-1.75-.13-.01-.27-.02-.41-.02l-.01-.44c.17-.01.33-.01.49.02 1.21.17 1.93.68 2.51 1.77.78 1.81 1.43 5.42 1.9 11.17.38 4.57 1.21 9.44 2.53 14.67l1.25 5.11c1.63 7.42 2.67 20.09 3.05 38.16.23 10.8.66 17.55 1.2 20.37l-.31.14c-.55-2.85-.98-9.64-1.21-20.47-.39-18.04-1.42-30.67-3.04-38.05l-1.25-5.09c-1.33-5.27-2.16-10.17-2.54-14.77-.47-5.69-1.11-9.23-1.86-10.99-.28-.55-.61-.93-1.08-1.21.21.31.4.69.57 1.18.5 1.65.77 4.18.74 7.85l-.33.01M770.94 517.14c2.58 10.22 3.97 19.9 4.21 29.22.21 11.99-1.33 25.27-4.66 39.99l5.71 19.74c3.05 10.09 4.73 16.63 5.15 19.72l-.32.09c-.42-3.05-2.09-9.56-5.13-19.63l-5.74-19.83-.02-.07.02-.07c3.33-14.7 4.87-27.95 4.66-39.91-.24-9.27-1.62-18.91-4.19-29.09l.31-.16M756.44 559.63c.16-.95.13-2.1-.13-3.61-.67-3.96-.49-8.89.6-15.13 1.06-6.03 1.19-9.71.61-11.65l.29-.21c.63 2.03.49 5.83-.58 11.96-1.08 6.17-1.25 11.02-.6 14.92.27 1.58.3 2.81.13 3.83l-.32-.11"/><path d="M757.82 537.58c-.23 1.82-.03 5.2.74 10.37 1.12 7.6 1.23 12.89.44 16.27l-.31-.14c.77-3.31.66-8.51-.45-16.03-.78-5.24-.98-8.67-.74-10.56l.32.09M753.45 565.89c.01 1.6.13 4.21.37 7.86.3 4.75.41 8.15.34 10.22-.05 2.93.62 6.18 2.16 10.15l1.13 2.91c4.13 11.21 6.87 19.53 8.26 25.06 2.02 8.29 2.88 16.35 2.63 24.44-.01.44 0 1.26.02 2.44.05 5.55-.55 8.43-1.87 9.76l-.16-.38c1.19-1.25 1.75-3.97 1.7-9.36-.02-1.19-.02-2.01-.01-2.47.25-8.03-.61-16.04-2.62-24.28-1.39-5.5-4.12-13.81-8.24-25l-1.12-2.9c-1.57-4.05-2.26-7.37-2.21-10.39.07-2.05-.03-5.42-.34-10.16-.24-3.65-.36-6.28-.37-7.9h.33M753.48 663.44c.84-.04 1.46-.92 2.2-3.21.64-2.28 1.34-6.5 2.04-12.76.82-7.83.97-14.29.49-19.49l.32-.07c.48 5.24.33 11.74-.49 19.62-.7 6.3-1.4 10.55-2.06 12.86-.81 2.51-1.52 3.46-2.53 3.5l.03-.45M759.95 641.44c.55 6.39.08 12.08-1.43 17.43l-.3-.16c1.49-5.28 1.95-10.89 1.41-17.2l.32-.07"/><path d="M764.45 630.15c.99 7.65 1.02 14.27.11 20.11l-.32-.09c.9-5.77.87-12.33-.12-19.93l.33-.09M762.08 650.28l.16 2.46c.41 6.29.11 9.06-.87 9.74l-.09-.43c.79-.61 1.03-3.21.63-9.26l-.16-2.48.33-.03M770.92 612.37c1.37 2.98 3.31 9.3 5.77 19.1 2.56 10.19 4.47 15.88 5.68 17.57l-.23.33c-1.25-1.73-3.18-7.49-5.76-17.74-2.46-9.77-4.38-16.06-5.73-19l.27-.26M774.41 645.94l-.02-.33c-.21-3.92-.64-6.17-1.24-7.23l.24-.31c.65 1.14 1.11 3.47 1.33 7.5l.01.32-.32.05M727.17 533.62l.02-.79c.05-2.15.46-3.88 1.25-5.53l.27.26c-.76 1.57-1.14 3.23-1.2 5.28l-.01.81-.33-.03M725.05 534.64l.02-1.03c.09-2.75.19-4.45.3-5.14.17-.85.53-1.62 1.14-2.44l.23.33c-.57.76-.9 1.46-1.05 2.22-.1.66-.21 2.33-.29 5.05l-.03 1.03-.32-.02M723.21 534.77l-.01-2.62c.01-2.75.33-4.74.98-6.28l.28.24c-.62 1.47-.93 3.38-.93 6.04l.01 2.63-.33-.01M739.78 401.89c-.36.34-1.93 1.93-4.69 4.79l-.2-.36c2.77-2.86 4.34-4.46 4.71-4.8l.18.37M740.99 403.42c-.29.13-1.51 1.25-3.75 3.62l-1.26 1.34-.2-.36 1.26-1.33c2.29-2.42 3.55-3.56 3.89-3.71l.06.44M741.12 405.91c-.33.22-1.05.93-2.16 2.17-.92 1.03-1.62 1.76-2.07 2.2l-.19-.36c.45-.44 1.13-1.16 2.05-2.19 1.14-1.26 1.88-1.99 2.23-2.23l.14.41M733.87 405.42c-.14.16-.45.53-.91 1.15-.39.53-.66.87-.79 1.01l-.21-.35c.13-.13.38-.46.77-.98.47-.63.79-1.02.95-1.19l.19.36M774.86 675.2c-.38-.69-.35-1.76.18-3.64l.3.16c-.48 1.69-.53 2.62-.24 3.17l-.24.31M776.99 674.37c-.31-.55-.25-1.69.29-3.88l.31.13c-.5 2-.58 3.01-.37 3.42l-.23.33M779.05 673.33c-.27-.18-.39-.51-.42-1.14.01-.61.13-1.28.4-2.06l.3.18c-.25.72-.37 1.31-.37 1.85.01.44.08.66.23.76l-.14.41M780.66 672.12c-.22-.11-.32-.34-.34-.82.01-.46.11-1.1.33-1.97l.31.14c-.21.81-.31 1.4-.31 1.81 0 .25.04.37.12.41l-.11.43M757.45 411.98c.94 1.48 1.66 1.36 1.9 2.31.17.99.27 1.06.44 1.35.11.3-.37.23-.68.09-.3-.13-.96-.12-1.4-.1-.45-.04-.89-.57-.61-.73.31-.1.27-.21.23-.52-.03-.33.17-.75.3-.87.13-.1.05-.08-.08-.48-.12-.42-.31-1.34-.1-1.05M757.97 410.56c1.04.19 2.5.8 3.52 2.13.66 1.04.16.8-.23.83-.4.01-1-.27-1.41-.87-.41-.61-1.36-1.29-1.95-1.53-.33-.15-.66-.6.07-.56"/><path fill="#1A1A1A" opacity=".2" d="M8 195.25c170.83-85.22 341.03-54.42 513.26-27.97 155.21 23.84 312.16 44.57 470.74-34.53v672c-170.83 85.22-341.03 54.42-513.26 27.97C323.53 808.88 166.58 788.15 8 867.25v-672m31.25 19.39v604.5c306.56-128.26 611.18 96.04 921.5-33.78v-604.5c-306.56 128.26-611.18-96.04-921.5 33.78"/></svg>