<svg xmlns="http://www.w3.org/2000/svg" viewBox="0 0 128 128" style="enable-background:new 0 0 128 128" xml:space="preserve"><path style="fill:#427687" d="M116 4H12c-4.42 0-8 3.58-8 8v104c0 4.42 3.58 8 8 8h104c4.42 0 8-3.58 8-8V12c0-4.42-3.58-8-8-8z"/><path style="fill:#8cafbf" d="M109.7 4H11.5A7.555 7.555 0 0 0 4 11.5v97.9c-.01 4.14 3.34 7.49 7.48 7.5h98.12c4.14.01 7.49-3.34 7.5-7.48V11.5c.09-4.05-3.13-7.41-7.18-7.5h-.22z"/><path style="fill:#fafafa" d="m47.4 71-24-24a3.994 3.994 0 0 1-.35-5.65c.11-.13.23-.24.35-.35l24-24a3.996 3.996 0 0 1 5.64.44c.61.71.95 1.62.96 2.56v14c0 1.1.9 2 2 2h46c2.21 0 4 1.79 4 4v8c0 2.21-1.79 4-4 4H56c-1.1 0-2 .9-2 2v14a4 4 0 0 1-6.6 3z"/><path style="opacity:.5;fill:#b4e1ed;enable-background:new" d="M39.7 12.9c0-2.3-1.6-3-10.8-2.7-7.7.3-11.5 1.2-13.8 4s-2.9 8.5-3 15.3c0 4.8 0 9.3 2.5 9.3 3.4 0 3.4-7.9 6.2-12.3 5.4-8.7 18.9-10.6 18.9-13.6z"/><path style="fill:#fafafa" d="M41.28 111.67H25.25V83.83h16.03v4.84H31.15v6.11h9.43v4.84h-9.43v7.18h10.13v4.87zm32.65 0h-7.5L54.32 90.61h-.17c.24 3.72.36 6.37.36 7.96v13.1h-5.27V83.83h7.45l12.09 20.85h.13c-.19-3.62-.29-6.18-.29-7.67V83.83h5.31v27.84zm30.11-14.19c0 4.58-1.3 8.09-3.91 10.53-2.61 2.44-6.38 3.66-11.3 3.66h-7.88V83.83h8.74c4.54 0 8.07 1.2 10.59 3.6s3.76 5.75 3.76 10.05zm-6.13.16c0-5.98-2.64-8.97-7.92-8.97h-3.14v18.13h2.53c5.68 0 8.53-3.06 8.53-9.16z"/></svg>