<svg xmlns="http://www.w3.org/2000/svg" viewBox="0 0 128 128" style="enable-background:new 0 0 128 128" xml:space="preserve"><path style="fill:#fff" d="M64.6 22.97 52.64 9.69l1.17-2.97s3.18-1.94 10.89-1.94 10.2 1.94 10.2 1.94l1.08 3.75-11.38 12.5z"/><path style="fill:#ffb6d7" d="M122.46 24.47c-15.01-2.54-29.82-6.74-43.3-13.82L74.9 6.72s-6 5.8-10.64 10.81c-4.19-4.52-9.45-9.41-9.45-9.41-1.47-.33-4.34 2.02-4.34 2.02C30 19.88 20.54 21.94 5.53 24.47 2.68 46.98 3.81 70 8.88 92.13c.22.96.48 1.98 1.22 2.64.73.65 1.76.79 2.73.91 6.07.72 12.16 1.26 18.26 1.61-.27-11.45-.48-23.98 1.97-35.16 1.88-8.62 5.51-13.65 7.6-15.64.27 5.76.21 73.61.21 73.61 0 .79.53 1.47 1.3 1.65 4.45 1.08 20.15 4.08 43.57-.09.81-.14 1.41-.86 1.41-1.68 0 0 .02-69.28-.21-73.89 0 0 6.61 3.7 8.51 16.91 1.62 11.33 1.75 22.84 1.48 34.29 6.1-.36 12.19-.9 18.26-1.61.97-.11 2-.26 2.73-.91.74-.65 1-1.68 1.22-2.64 5.05-22.13 6.18-45.15 3.32-67.66z"/><path style="fill:#df86ac" d="m87.07 54.12-46.27.53.05 6.45c.02 3.87 1.76 4.19 4.04 4.38 3.8.32 10.22-.21 20.06-.32 8.91-.1 14.74.51 18.09.28 2.34-.16 4.28-1.29 4.11-4.46l-.08-6.86zm-4.81 7.49c-1.73.67-9.75.16-17.72.23-8.49.07-16.97.68-18.63.05-1.5-.57-2.55-1.44-3.25-2.69 1.78-.15 9.45-.77 20.17-.89 11.33-.13 21.24.34 22.69.42-.67 1.22-1.62 2.24-3.26 2.88z"/><radialGradient id="a" cx="62.827" cy="31.176" r="93.333" gradientTransform="matrix(1 0 0 1.1201 0 -3.744)" gradientUnits="userSpaceOnUse"><stop offset=".395" style="stop-color:#f06292;stop-opacity:0"/><stop offset="1" style="stop-color:#f06292;stop-opacity:.8"/></radialGradient><path style="fill:url(#a)" d="M122.46 24.47c-15.01-2.54-29.82-6.74-43.3-13.82l-3.37-3.12L64.2 19.46 54.82 8.12l-4.34 2.02c-20.47 9.74-29.93 11.8-44.94 14.33a194.165 194.165 0 0 0 3.34 67.66c.22.96.48 1.98 1.22 2.64.73.65 1.76.79 2.73.91 6.07.72 12.16 1.26 18.26 1.61-.27-11.45-.48-23.98 1.97-35.16 1.88-8.62 5.51-13.65 7.6-15.64.27 5.76.21 73.61.21 73.61 0 .79.53 1.47 1.3 1.65 4.45 1.08 20.15 4.08 43.57-.09.81-.14 1.41-.86 1.41-1.68 0 0 .02-69.28-.21-73.89 0 0 6.61 3.7 8.51 16.91 1.62 11.33 1.75 22.84 1.48 34.29 6.1-.36 12.19-.9 18.26-1.61.97-.11 2-.26 2.73-.91.74-.65 1-1.68 1.22-2.64 5.05-22.13 6.18-45.15 3.32-67.66z"/><path style="fill:#fdf0f7" d="M67.14 20.71c-2.77 2.97-5.24 7.52-5.24 7.52 1.12.27 4.33.3 6.16-1.54 1.09-1.11 1.63-2.44 1.56-3.65 0-.05.07-.07.08-.01.2.87.52 1.84 1.31 2.7 1.85 2.02 3.76 2.03 5.06 2.11.32.02.51-.34.34-.6-.33-.49-.49-1-.57-1.4-.07-.33.29-.59.58-.41.33.21.72.51 1.02.94.19.27.6.2.69-.11.33-1.12.55-3.25-1.26-5.72a5.23 5.23 0 0 0-1.72-1.53c-.14-.08-.14-.28.02-.34.49-.19 1.34-.55 2.08-1.11 2.17-1.63 1.54-3.83 1.94-4.85.12-.3-.14-.51-.46-.52-.67-.01-1.94.15-2.23.3-.02-.01-4.09 2.57-9.36 8.22z"/><path style="fill:#f48fb1" d="M68.06 20.24c.8.09 1.18.75 1.34 1.16.04.09.17.09.2 0 .17-.57.6-1.69 1.34-2.13.78-.47 1.89-.59 2.48-.62.12-.01.17-.16.07-.23-.42-.33-1.09-1.02-1.12-2.1l-4.31 3.92z"/><circle style="fill:#ec407a" cx="71.72" cy="21.27" r=".72"/><circle style="fill:#ec407a" cx="74.36" cy="21.02" r=".75"/><circle style="fill:#ec407a" cx="74.52" cy="17.08" r=".66"/><path style="fill:#ec407a" d="M66.62 23.27c.17.38.61.55.99.39.38-.17.55-.61.39-.99s-.61-.55-.99-.39c-.38.17-.56.61-.39.99z"/><path style="fill:#2167a1" d="M70.22 9.02c.57-.61.86-1.06-.01-1.27 0 0-1.72-.49-5.24-.49-3.52 0-6.37.38-5.94 1.31.3.66 3.23 3.22 4.53 4.77 0 0-1.67 2.11-2.11 2.68-1.19 1.53.97.94.97.94 2.62-2.96 7.01-7.09 7.8-7.94z"/><path style="fill:#2686c6" d="M78.5 9.78 75.63 6c-.39-.51-.95-.86-1.58-.99-1.59-.32-5.04-.87-10.18-.86-4.16.01-8.03 1.1-9.67 1.64-.53.17-.99.52-1.32.97l-2.3 3.22c-.32.45-.28 1.05.11 1.44 2 2.06 7.99 8.23 9.7 10.31-2.93 3.41-5.71 6.91-8.02 10.22 2.52.41 4.75.67 6.18 1.15 5.41-7.3 16.26-18.67 19.8-21.8.45-.38.51-1.05.15-1.52zm-5.89-1.17c-.31.33-6.81 7.11-8.41 8.85-1.67-2-3.44-3.9-5.2-5.82-2.59-2.82-3.35-3.78-2.58-4.52.64-.61 4.42-1.21 7.78-1.22 5.21-.01 7.23.5 8.29 1.12.9.54.43 1.26.12 1.59z"/><path style="fill:#2167a1" d="M58.68 19.8s1.2-2.08 3.49-4.68l2.03 2.35-3.8 4.27-1.72-1.94z"/><path style="fill:#fce4ec" d="M36.69 38.29c.47-.59.98-1.73.34-2.3-.57-.51-1.64-.04-2.23.6-.42-.63-1.34-1.45-2.07-1.02-.64.38-.55 1.48-.16 2.24-.73.19-1.86.82-1.67 1.68.17.79 1.44 1.02 2.31.79-.07.73.16 2.12 1.07 2.21.77.08 1.37-.97 1.45-1.84.72.24 1.88.34 2.21-.42.31-.71-.46-1.57-1.25-1.94z"/><path style="fill:#df86ac" d="M39.73 47.44c-3.27 4.54-7.96 22.43-7.96 22.43-.57-18.74 4.03-33.74 10.1-46.47.23-.47.93-.24.85.28-1.89 11.29-.82 20.75-2.99 23.76zm48.57 0c3.27 4.54 7.96 22.43 7.96 22.43.57-18.74-4.03-33.74-10.1-46.47-.23-.47-.93-.24-.85.28 1.9 11.29.83 20.75 2.99 23.76z"/><path style="fill:#82aec0" d="M87.54 32.57c-.41-2.41-2.17-3.25-4.22-3.61-9.5-1.67-18.06 3.12-18.06 3.12-6.25-3.02-19.6-4.08-23.91-1.76-3.64 1.96-.42 4.57-.42 4.57h45.51c.01 0 1.29-1.19 1.1-2.32z"/><path style="fill:#f5f5f5" d="M87.54 32.57c-.22-1.07-2.15-2.17-4.22-2.46-5.72-.8-9.46-.44-17.87 3.59l-3.77.22 2.08-1.04c-6.25-3.02-19.06-3.27-22.41-1.4-2.97 1.65-.28 3.47-.28 3.47h45.49c.01-.01 1.18-1.41.98-2.38z"/><path style="fill:#82aec0" d="M85.89 57.18s-12.44-.93-23.51-.93-20.61.93-20.61.93c-.79 0-1.43-.64-1.43-1.43V36.06c0-.79.64-1.43 1.43-1.43 0 0 8.42-.93 20.89-.93s23.23.93 23.23.93c.79 0 1.43.64 1.43 1.43v19.68c0 .8-.64 1.44-1.43 1.44z"/><path style="fill:none;stroke:#2167a1;stroke-width:3;stroke-linecap:round;stroke-miterlimit:10" d="M40.6 45.27s12.04-.68 23.01-.68 23.79.68 23.79.68"/><path style="fill:#2167a1" d="M60.12 44.28s.63-2.81 3.14-2.81c2.51 0 3.13 3.02 3.13 3.02l2.66.2s-.53 3.54-4.47 3.85c-5.02.4-4.46-4.26-4.46-4.26z"/><path style="fill:#fce4ec" d="M81.37 95.07c-.23.02-.41-.2-.34-.42.45-1.3 1.4-5.03-.85-8.79-.22-.37-.79-.37-.97.02-.35.73-.85 1.28-1.27 1.66-.35.32-.91.06-.9-.41.01-.54.11-1.21.41-1.87.19-.42-.17-.87-.61-.76-1.57.39-4.29 1.63-5.96 5.54-.19.45-.36 1.13-.46 1.6-.05.21-.3.29-.46.14-1.03-.97-4.25-3.5-9.2-2.37-.42.1-.6.63-.29.93.59.56.96 1.21 1.19 1.73.19.44-.23.89-.67.73a4.89 4.89 0 0 1-1.68-.99c-.32-.3-.85-.08-.88.35-.12 1.61.21 4.59 3.43 7.41.84.74 1.71 1.2 2.6 1.49.18.06.17.31-.01.36-.85.24-1.73.64-2.64 1.32-3.04 2.28-3.92 5.63-4.2 7.41-.07.44.39.77.78.56.72-.39 1.45-.55 2.02-.61.47-.05.78.49.49.87-.33.43-.82.93-1.46 1.29-.39.21-.34.78.07.95 1.49.61 4.43 1.22 8.1-.97 1.9-1.13 2.83-2.71 3.45-4.42.03-.07.23-.17.2.25-.1 1.2-.1 2.45.44 4.01 1.23 3.59 3.95 5.31 5.56 6.13.39.2.85-.13.77-.57-.15-.8-.07-1.55.05-2.11.1-.46.7-.59.97-.2.31.45.63 1.06.77 1.77.09.44.63.59.92.25 1.04-1.23 2.53-3.84 1.58-8.01a7.39 7.39 0 0 0-1.44-3.02c-.11-.14-.02-.33.16-.32.79.05 2.43.1 3.52-.23.96-.28 1.82-.67 2.57-1.09 0-2.65 0-5.52-.01-8.53-1.05-.56-2.37-1-4.04-1.15-.49-.04-1.22.02-1.71.07z"/><path style="fill:#f48fb1" d="M76.08 100.59c.12-1.1.93-2.1 1.54-2.71.08-.08-.01-.2-.11-.15-.91.49-2.37 1.11-3.41.77-1-.33-1.82-1.51-2.19-2.45-.04-.1-.19-.06-.18.04.13 1.18.67 2.41-.13 3.45-.69.9-2.12 1.03-2.96 1.05-.11 0-.13.16-.02.19.89.25 2.18.71 2.69 1.4.67.91.35 2.72.27 3.33-.03.27.13.27.24.09s.69-1.95 2.35-2.41c2-.55 3.53.71 3.8.88.27.17.41 0 .18-.2-.69-.59-2.23-1.92-2.07-3.28z"/><path style="fill:#ec407a" d="M68.95 96.59a1.05 1.05 0 0 0-1.31.69c-.17.55.14 1.14.69 1.31a1.046 1.046 0 1 0 .62-2zm4.07-3.94c-.49-.15-1 .12-1.15.61-.15.49.12 1 .61 1.15.49.15 1-.12 1.15-.61.15-.49-.12-1-.61-1.15zm3.29 2.07a1.05 1.05 0 0 0-1.31.69c-.17.55.14 1.14.69 1.31s1.14-.14 1.31-.69c.17-.56-.14-1.14-.69-1.31zm3.19 5.65a1.05 1.05 0 0 0-1.31.69c-.17.55.14 1.14.69 1.31.55.17 1.14-.14 1.31-.69s-.14-1.14-.69-1.31zm1.01-3.24c-.49-.15-1 .12-1.15.61-.15.49.12 1 .61 1.15.49.15 1-.12 1.15-.61.15-.49-.13-1-.61-1.15zm-4.2 8.14a1.05 1.05 0 0 0-1.31.69c-.17.55.14 1.14.69 1.31s1.14-.14 1.31-.69a1.05 1.05 0 0 0-.69-1.31zm-7.51.5c-.49-.15-1 .12-1.15.61-.15.49.12 1 .61 1.15.49.15 1-.12 1.15-.61a.92.92 0 0 0-.61-1.15zm-.9-3.9a1.05 1.05 0 0 0-1.31.69c-.17.55.14 1.14.69 1.31s1.14-.14 1.31-.69a1.05 1.05 0 0 0-.69-1.31z"/><path style="fill:#fce4ec" d="M9.59 24.81c.82 1.06 4.05 3.65 8.54 1.99 1.71-.63 2.65-1.58 3.35-2.77.09-.15.31-.06.27.11-.24 1.01-.36 2.15-.08 3.4.83 3.71 3.13 5.04 4.64 6.03.37.24.86-.04.83-.48a5.4 5.4 0 0 1 .28-2.09.54.54 0 0 1 .99-.09c.25.47.51 1.11.57 1.83.04.45.57.67.9.35 1.17-1.12 2.85-3.53 2.44-7.77-.14-1.41-.69-2.24-1.06-2.97-.11-.23.08-.48.33-.44.8.15 2.24.31 3.66-.02 3.36-.79 4.12-3.5 5.27-4.43.34-.28.23-.83-.2-.94-.58-.14-1.8-.56-2.59-.72-10.53 4.28-18.06 6.13-27.1 7.78-.53.4-1.22 1-1.04 1.23z"/><path style="fill:#f48fb1" d="M22.05 22.92c.41.06 1.42-1.6 3.92-2.03 1.73-.3 3.47.25 4.37.6.19.08.37-.14.27-.31 0 0-.95-.76-1.39-2.21-2.31.77-4.51 1.43-6.68 2.01-.08 1.19-.84 1.89-.49 1.94z"/><path style="fill:#ec407a" d="M32.2 18.74a.92.92 0 0 0-1.23.5c-.21.48.01 1.05.49 1.26a.92.92 0 0 0 1.23-.5.975.975 0 0 0-.49-1.26z"/><circle style="fill:#ec407a" cx="25.35" cy="23.82" r="1.04"/><ellipse style="fill:#ec407a" cx="28.87" cy="24.64" rx=".94" ry=".96"/><path style="fill:#ec407a" d="M18.09 22.67c-.06.52.32 1 .83 1.05a.93.93 0 0 0 1.03-.85.95.95 0 0 0-.82-1.05c-.2.05-.39.09-.59.14-.24.15-.42.4-.45.71z"/><path style="fill:#fce4ec" d="M121.63 55.02c-.6-.18-1.17-.26-1.72-.25.25-.3.49-.65.71-1.05 1.44-2.66.97-5.37.58-6.75-.1-.34-.54-.43-.75-.15-.39.52-.87.88-1.26 1.11-.33.19-.72-.1-.64-.47.1-.42.28-.93.61-1.4.21-.29-.01-.7-.36-.68-1.29.06-3.6.6-5.52 3.39-.63.92-.93 1.84-1.03 2.76-.27-.82-.69-1.66-1.48-2.5-2.08-2.19-4.81-2.58-6.24-2.63a.43.43 0 0 0-.37.67c.37.53.56 1.1.66 1.54.08.37-.32.66-.64.46a3.8 3.8 0 0 1-1.14-1.02.428.428 0 0 0-.76.14c-.34 1.24-.54 3.61 1.52 6.29 1.26 1.64 2.87 2.17 4.56 2.48-1.16-.12-2.45-.15-3.95.57-2.73 1.3-3.94 3.78-4.43 5.12-.12.33.18.66.52.56.62-.19 1.22-.2 1.67-.16.38.04.53.5.25.75-.32.28-.77.59-1.32.77-.34.11-.4.57-.1.77 1.08.71 3.26 1.63 6.45.5 1.09-.38 1.88-.98 2.51-1.69-.03.4-.02.83.04 1.29.39 3 2.38 4.91 3.5 5.8.28.22.69.03.69-.32.01-.65.19-1.22.37-1.64.15-.35.64-.35.79 0 .17.39.33.92.33 1.5 0 .36.42.56.7.33 1-.8 2.56-2.6 2.47-5.98-.02-.65-.13-1.23-.3-1.76.21.06.43.12.67.16 1.63.3 3.08.04 4.27-.38.17-2.38.3-4.76.39-7.14-.63-.38-1.36-.73-2.25-.99z"/><path style="fill:#f48fb1" d="M117.2 55.81c-.84.25-2.39.95-3.45.22-.86-.6-1.21-2.08-1.23-2.39-.02-.31-.24-.36-.26-.01-.03.35.13 1.98-.91 2.82-.65.52-2.1.58-2.39.57-.29-.01-.31.24 0 .25.09 0 1.69.62 2.18 1.76.49 1.14-.42 3.02-.58 3.4-.16.38.17.29.3.08.13-.2 1.14-1.94 2.66-2.07 1.45-.12 2.83.94 2.83.94.33.17.51-.05.25-.28 0 0-1.8-1.35-1.5-2.77.32-1.49 2.04-2.22 2.26-2.33.21-.09.12-.27-.16-.19z"/><path style="fill:#ec407a" d="M115.4 53.41c-.45-.08-.88.21-.97.67s.21.88.67.97.88-.21.97-.67-.22-.89-.67-.97zm3.62 2.77a.73.73 0 0 0-.85.58c-.07.4.19.78.58.85.4.07.78-.19.85-.58a.73.73 0 0 0-.58-.85zm-1.16 2.32c-.45-.08-.88.21-.97.67s.21.88.67.97.88-.21.97-.67-.22-.89-.67-.97z"/><circle transform="rotate(-7.678 112.641 63.008)" style="fill:#ec407a" cx="112.68" cy="63.03" r=".73"/><circle transform="rotate(-7.678 115.42 63.693)" style="fill:#ec407a" cx="115.46" cy="63.71" r=".83"/><circle transform="rotate(-7.678 108.935 60.127)" style="fill:#ec407a" cx="108.98" cy="60.15" r=".83"/><circle transform="rotate(-7.365 107.382 54.74)" style="fill:#ec407a" cx="107.42" cy="54.75" r=".73"/><path style="fill:#ec407a" d="M110.34 53.11c-.45-.08-.88.21-.97.67s.21.88.67.97.88-.21.97-.67-.22-.89-.67-.97z"/><path style="fill:#fce4ec" d="M28.04 43.36a3.2 3.2 0 0 1-1.22-.14c-.26-.08-.3-.44-.06-.58.27-.15.65-.31 1.07-.35.26-.03.38-.35.19-.54-.66-.67-2.1-1.67-4.56-1.34-.47.06-.89.19-1.26.36.03-.16.05-.33.07-.5.17-2.21-.96-3.89-1.63-4.7a.314.314 0 0 0-.55.13c-.11.47-.32.85-.51 1.12-.16.23-.51.15-.57-.12-.06-.31-.09-.71-.01-1.12a.315.315 0 0 0-.45-.35c-.84.42-2.23 1.48-2.69 3.92-.08.46-.1.88-.05 1.27-.24-.16-.51-.31-.82-.44-2.05-.85-4-.29-4.97.1-.24.1-.27.43-.05.56.41.25.71.57.91.83.17.22-.02.54-.29.5-.31-.04-.7-.13-1.07-.34-.24-.13-.52.06-.48.32.14.93.63 2.74 2.9 3.77 1.01.46 1.92.52 1.92.52s-.7.34-1.54 1.29c-1.47 1.66-1.51 3.71-1.44 4.76.02.26.32.39.52.22.36-.31.76-.5 1.07-.6.26-.09.5.18.39.43-.13.28-.34.63-.65.91-.2.18-.1.5.16.54.93.15 2.69.14 4.48-1.59 1.34-1.29 1.52-2.87 1.52-2.87s.02 1.15.66 2.19c1.16 1.89 3.06 2.59 4.08 2.84.25.06.47-.19.37-.42a3.05 3.05 0 0 1-.24-1.21c0-.28.33-.43.53-.24.23.21.49.52.67.91.11.24.45.25.57.02.43-.84.95-2.51-.13-4.75-.5-1.05-1.43-1.7-1.43-1.7s.6-.05.94-.13c2.16-.52 3.4-2.11 3.97-3 .11-.21-.06-.5-.32-.48z"/><path style="fill:#f48fb1" d="M15.49 45.97c0-.24 1.49-.22 1.94-1.01s-.69-2.68-.5-2.77c.19-.09.88 1.6 1.87 1.66.99.06 2.01-1.56 2.21-1.34.2.21-.94 1.17-.78 2.23s2.18 1.59 2.05 1.85c-.13.26-1.9-.53-2.69-.09s-.81 1.71-1.1 1.71-.11-1.36-.73-1.87c-.62-.49-2.27-.13-2.27-.37z"/><circle style="fill:#ec407a" cx="15.49" cy="43.98" r=".61"/><circle style="fill:#ec407a" cx="17.55" cy="40.58" r=".61"/><circle style="fill:#ec407a" cx="19.27" cy="42.18" r=".56"/><circle style="fill:#ec407a" cx="22.29" cy="45.01" r=".56"/><circle style="fill:#ec407a" cx="22.61" cy="42.98" r=".61"/><circle style="fill:#ec407a" cx="20.58" cy="48" r=".61"/><circle style="fill:#ec407a" cx="16.49" cy="49.22" r=".61"/><circle style="fill:#ec407a" cx="15.56" cy="47.39" r=".56"/><path style="fill:#fdf0f7" d="M60.75 77.31c-.45-.37-1.24-.67-1.69-.82-.13-.04-.16-.21-.05-.3.71-.54 2.6-2.18 2.81-4.71.02-.26-.24-.44-.46-.31-.41.24-.83.34-1.16.39-.27.04-.46-.27-.3-.49.18-.25.45-.55.81-.77.23-.14.2-.51-.06-.56-2.86-.63-4.88.88-5.48 1.41-.09.08-.22.04-.26-.07-.27-.78-1.29-3.2-3.54-3.78-.25-.06-.49.09-.44.35.1.46.07.9.01 1.23-.05.27-.4.36-.56.13-.19-.25-.39-.6-.48-1.01-.06-.26-.4-.34-.55-.12-.93 1.37-.9 2.78-.68 4.05.23 1.33 1.09 2.34 1.03 2.45-.07.12-.99-.28-2.78-.07-1.13.13-2.37.48-3.2 1.57-.16.2-.06.5.19.52.47.05.88.21 1.17.37.24.13.21.49-.05.58-.3.1-.69.18-1.11.15a.32.32 0 0 0-.29.49c.52.78 1.74 2.02 4.21 2.17.82.05 1.5-.12 2.11-.4-.41.48-.78 1.06-1 1.87-.58 2.13.21 3.98.72 4.9.12.22.45.21.56-.02.19-.44.47-.77.71-1 .2-.19.53-.05.53.22 0 .31-.04.71-.2 1.1-.1.24.13.51.38.42 3.65-1.26 3.68-4.8 3.55-6.1-.01-.13.15-.19.23-.09.71.88 2.72 2.84 6.14 2.16.25-.05.34-.37.15-.54-.35-.32-.59-.69-.73-.99-.12-.25.11-.52.38-.44.3.09.66.26.98.53.2.17.51.04.52-.23.05-.95-.2-2.67-2.12-4.24z"/><path style="fill:#f48fb1" d="M50.96 78.9c-.17-.19 1.47-1.05 1.52-1.78.07-.9-1.51-1.97-1.38-2.12.13-.15 1.57.76 2.26.48.88-.34 1.03-1.53 1.22-1.53s-.18 1.39.27 2.05c.47.7 2.28.32 2.28.52s-1.71.37-2.24 1.1c-.41.58.14 2.09-.12 2.09s-.58-1.25-1.41-1.47c-.81-.23-2.23.85-2.4.66z"/><circle style="fill:#ec407a" cx="50.46" cy="77.11" r=".61"/><circle style="fill:#ec407a" cx="51.07" cy="73.58" r=".61"/><circle style="fill:#ec407a" cx="53.38" cy="73.58" r=".53"/><circle style="fill:#ec407a" cx="56.43" cy="75.07" r=".53"/><circle style="fill:#ec407a" cx="56.19" cy="72.97" r=".61"/><circle style="fill:#ec407a" cx="56.7" cy="78.62" r=".61"/><circle style="fill:#ec407a" cx="53.66" cy="81.27" r=".61"/><circle style="fill:#ec407a" cx="52.1" cy="79.83" r=".53"/><path style="fill:#fce4ec" d="M56.96 122.86c.18-.17 1.02-.46 1.79-.43.24.01.45-.21.38-.44-.59-1.98-2.42-3.69-4.3-4.53-1.82-.81-3.88-.94-5.85-.59-.18-.32-.02-.04-.2-.36.74-.82 1.41-1.68 1.82-2.74.99-2.58.18-5.32-1.24-7.57-.23-.37-.8-.37-1.01.01-.38.69-.89 1.21-1.31 1.56-.37.3-.92.03-.88-.45.04-.54.16-1.21.49-1.86.21-.41-.14-.87-.58-.77-1.32.27-3.45 1.1-5.19 3.58 0 7.08-.01 11.83-.01 11.83 0 .79.53 1.47 1.3 1.65 2.34.57 7.79 1.66 15.84 1.97-.64-.41-1.14-.78-1.05-.86z"/><path style="fill:#f48fb1" d="M45.1 120.44c.33-.67 1.36-2.01 1.6-2.18.24-.17.06-.35-.18-.22-.83.45-2.78 1.18-4.23.69-.58-.2-1.04-.69-1.42-1.26v2.61c0 .79.53 1.47 1.3 1.65.7.17 1.69.39 2.95.62-.26-.61-.33-1.27-.02-1.91z"/><path style="fill:#ec407a" d="M42.92 111.76a.79.79 0 1 0 .48 1.01.783.783 0 0 0-.48-1.01zm1.39 3.52a1.04 1.04 0 0 0-1.33.64c-.19.54.09 1.14.64 1.33.54.19 1.14-.09 1.33-.64.19-.54-.1-1.13-.64-1.33zm5.12 5.08a.844.844 0 0 0-1.08.52c-.16.44.08.93.52 1.08.44.16.93-.08 1.08-.52a.86.86 0 0 0-.52-1.08z"/><path style="fill:#fdf0f7" d="M105.61 35.04c.8-.78 1.71-2.24.93-3.18-.71-.87-2.36-.44-3.37.35-.46-1.01-1.61-2.45-2.79-1.99-1.05.41-1.14 2.12-.71 3.32-1.11.13-2.79.78-2.72 2.04.06 1.09 1.57 1.71 2.82 1.7-.24 1.08-.17 2.99 1.08 3.31 1.15.3 2.3-1.21 2.58-2.49.91.59 2.88 1.21 3.61.08.62-.96-.35-2.44-1.43-3.14z"/><path style="fill:#fce4ec" d="M107.99 78.28c.8-.78 1.71-2.24.93-3.18-.71-.87-2.36-.44-3.37.35-.46-1.01-1.61-2.45-2.79-1.99-1.05.41-1.14 2.12-.71 3.32-1.11.13-2.79.78-2.72 2.04.06 1.09 1.57 1.71 2.82 1.7-.24 1.08-.17 2.99 1.08 3.31 1.15.3 2.3-1.21 2.58-2.49.91.59 2.88 1.21 3.61.08.62-.97-.35-2.45-1.43-3.14zm-84.62-9.63c.69-.87 1.45-2.55.5-3.39-.84-.75-2.41-.05-3.28.88-.62-.93-1.97-2.13-3.05-1.49-.94.55-.81 2.17-.23 3.29-1.07.28-2.74 1.2-2.46 2.47.26 1.16 2.13 1.5 3.39 1.16-.11 1.08.23 3.12 1.57 3.25 1.14.11 2.01-1.42 2.14-2.71 1.06.36 2.77.5 3.26-.61.45-1.04-.68-2.31-1.84-2.85zm93.34 19.44c.47-.59.98-1.73.34-2.3-.57-.51-1.64-.04-2.23.6-.42-.63-1.34-1.45-2.07-1.02-.64.38-.55 1.48-.16 2.24-.73.19-1.86.82-1.67 1.68.17.79 1.44 1.02 2.31.79-.07.73.16 2.12 1.07 2.21.77.08 1.37-.97 1.45-1.84.72.24 1.88.34 2.21-.42.31-.71-.46-1.58-1.25-1.94z"/><path style="fill:#fdf0f7" d="M72.88 75.64c.47-.59.98-1.73.34-2.3-.57-.51-1.64-.04-2.23.6-.42-.63-1.34-1.45-2.07-1.02-.64.38-.55 1.48-.16 2.24-.73.19-1.86.82-1.67 1.68.17.79 1.44 1.02 2.31.79-.07.73.16 2.12 1.07 2.21.77.08 1.37-.97 1.45-1.84.72.24 1.88.34 2.21-.42.3-.71-.47-1.58-1.25-1.94z"/><path style="fill:#fce4ec" d="M14.62 59.9c.47-.59.98-1.73.34-2.3-.57-.51-1.64-.04-2.23.6-.42-.63-1.34-1.45-2.07-1.02-.64.38-.55 1.48-.16 2.24-.73.19-1.86.82-1.67 1.68.17.79 1.44 1.02 2.31.79-.07.73.16 2.12 1.07 2.21.77.08 1.37-.97 1.45-1.84.72.24 1.88.34 2.21-.42.31-.71-.47-1.57-1.25-1.94z"/></svg>