<svg xmlns="http://www.w3.org/2000/svg" viewBox="0 0 128 128" style="enable-background:new 0 0 128 128" xml:space="preserve"><path style="fill:#616161" d="m103.97 27.79-1.6 2.63s.86 2.9 6.37 4.82c5.51 1.92 13.96 1.6 13.96 1.6s1.83-1.16 1.14-3.11c-.69-1.94-2.28-1.25-4.57-4.23-2.28-2.97-2.17-4.69-5.26-5.94-3.08-1.26-6.63-1.26-8.23.69-1.58 1.95-1.81 3.54-1.81 3.54z"/><path style="fill:#ffca28" d="M107.85 23.8c-1.71-1.03-5.14-6.17-6.51-9.43S97.1 7.91 91.4 7.86c-5.36-.05-7.41 1.87-10.11 6.85-2.55 4.72-37.53 69.41-37.53 69.41s0-5.48 1.71-14.05 4.31-12.46 5.58-14.75c1.08-1.43 1.68-2.98 1.68-4.61 0-6.97-10.91-12.62-24.37-12.62C14.91 38.09 4 43.74 4 50.71c0 1.72.67 3.36 1.87 4.85l.12.15c.92 1.12 7.14 8.9 6.54 13.56-.65 5.03-3.62 26.28.95 37.24 4.57 10.97 15.25 14.49 24.73 13.03 8.13-1.26 15.71-5.72 23.48-22.63s28.79-71.49 28.79-71.49 1.6-5.28 3.43-2.77c1.83 2.51 4.57 6.4 8.45 7.77 3.88 1.37 4.97-1.66 5.48-2.34.53-.69 1.73-3.26.01-4.28z"/><ellipse style="fill:#dd7341" cx="28.37" cy="48.84" rx="16.98" ry="6.97"/><circle style="fill:#fb8c00" cx="57.3" cy="70.21" r="5.79"/><circle style="fill:#fb8c00" cx="63.46" cy="57.01" r="5.58"/><circle style="fill:#fb8c00" cx="69.62" cy="43.81" r="5.37"/><circle style="fill:#fb8c00" cx="75.78" cy="30.61" r="5.16"/><path style="fill:#fff9c4" d="M26.19 62.63c.38.06.77.13 1.08.35.54.38.68 1.11.74 1.77.39 4.74-1.73 9.27-3.34 13.75-2.45 6.8-3.81 14.03-3.56 21.25.18 4.99 1.35 10.31 4.59 13.96.29.32-.1.81-.47.57-4.01-2.53-6.5-7.26-7.88-11.92a43.892 43.892 0 0 1-1.68-15.5c.34-4.79 1.47-9.5 1.65-14.29.07-1.77-.01-3.54-.29-5.29-.28-1.76-.85-3.34-1.49-4.99-.36-.92.16-1.29 1.05-1.27 1.18.03 2.36.38 3.51.61 2.02.41 4.06.68 6.09 1z"/></svg>