<svg xmlns="http://www.w3.org/2000/svg" viewBox="0 0 128 128" style="enable-background:new 0 0 128 128" xml:space="preserve"><linearGradient id="a" gradientUnits="userSpaceOnUse" x1="64" y1="32.226" x2="64" y2="5.434" gradientTransform="matrix(1 0 0 -1 0 128)"><stop offset="0" style="stop-color:#00bfa5"/><stop offset=".47" style="stop-color:#00b29a"/><stop offset="1" style="stop-color:#009e89"/></linearGradient><path style="fill:url(#a)" d="M64.13 96H64c-25.49.03-52 7.28-52 25.06V124h104v-2.94C116 104.3 89.74 96 64.13 96z"/><path style="fill:#edc391" d="M91.33 50.43H36.67c-5.89 0-10.71 5.14-10.71 11.41s4.82 11.41 10.71 11.41h54.65c5.89 0 10.71-5.14 10.71-11.41s-4.81-11.41-10.7-11.41zM54.92 90.08v9.98c0 4.51 3.46 8.17 9.08 8.17s9.08-3.66 9.08-8.17v-9.98H54.92z"/><path style="fill:#f9ddbd" d="M64 11.07c-17.4 0-33.52 18.61-33.52 45.4 0 26.64 16.61 39.81 33.52 39.81S97.52 83.1 97.52 56.46c0-26.78-16.12-45.39-33.52-45.39z"/><path style="fill:#444" d="M72.32 76.14c-3.15 1.87-13.47 1.87-16.61 0-1.81-1.07-3.65.57-2.9 2.21.74 1.61 6.37 5.36 11.23 5.36s10.42-3.75 11.16-5.36c.75-1.64-1.08-3.29-2.88-2.21z"/><path style="fill:#dba689" d="M67.86 68.06c-.11-.04-.21-.07-.32-.08h-7.08c-.11.01-.22.04-.32.08-.64.26-.99.92-.69 1.63.3.71 1.71 2.69 4.55 2.69s4.25-1.99 4.55-2.69c.3-.71-.05-1.37-.69-1.63z"/><path style="fill:#312d2d" d="M47.63 60.3c-2.06 0-3.9-.5-5.18-1.29-.55-.34-.87-.14-.77.5.37 2.48 2.9 4.4 5.95 4.4 3.06 0 5.58-1.92 5.95-4.4.1-.64-.22-.84-.77-.5-1.28.79-3.12 1.29-5.18 1.29zm32.62 0c-2.06 0-3.9-.5-5.18-1.29-.55-.34-.87-.14-.77.5.38 2.48 2.9 4.4 5.95 4.4s5.58-1.92 5.95-4.4c.1-.64-.22-.84-.77-.5-1.28.79-3.13 1.29-5.18 1.29z"/><path style="fill:#454140" d="M40.02 50.73c3.18-4.51 10.66-4.66 14.41-.82.65.67 1.34 1.53.85 2.5-.54 1.07-1.65.9-2.56.53-2.43-.98-4.94-1.42-7.55-.89-1.13.23-2.1.7-3.17 1.08-1.44.49-2.91-1.01-1.98-2.4zm46.06 2.4c-2.23-.97-4.49-1.53-6.95-1.25-1.12.13-2.22.42-3.26.83-.83.33-1.72.86-2.58.28-2.45-1.69 1.89-4.44 3.17-4.99 2.76-1.19 6.05-1.08 8.72.31 1.06.55 2.21 1.35 2.84 2.4.79 1.31-.39 3.05-1.94 2.42z"/><path style="fill:#312d2d" d="M64.02 4.21h-.04c-45.43.25-36.13 52.14-36.13 52.14s2.04 5.35 2.97 7.71c.13.34.63.3.71-.05.97-4.34 4.46-16.73 6.22-21.4a6.075 6.075 0 0 1 6.79-3.83c4.45.81 11.55 1.81 19.37 1.81h.16c7.82 0 14.92-1 19.37-1.81 2.9-.53 5.76 1.08 6.79 3.83 1.75 4.66 5.22 16.96 6.2 21.36.08.36.58.39.71.05l2.98-7.67c.03 0 9.34-51.89-36.1-52.14z"/><radialGradient id="b" cx="64.001" cy="80.718" r="38.092" gradientTransform="matrix(1 0 0 -1.1282 0 138.347)" gradientUnits="userSpaceOnUse"><stop offset=".794" style="stop-color:#454140;stop-opacity:0"/><stop offset="1" style="stop-color:#454140"/></radialGradient><path style="fill:url(#b)" d="M100.15 56.35s9.31-51.9-36.13-52.14h-.04c-.71 0-1.4.02-2.08.05-1.35.06-2.66.16-3.92.31h-.04c-.09.01-.17.03-.26.04-38.24 4.82-29.83 51.74-29.83 51.74l2.98 7.68c.13.34.62.31.7-.05.98-4.38 4.46-16.71 6.22-21.37a6.075 6.075 0 0 1 6.79-3.83c4.45.81 11.55 1.81 19.37 1.81h.16c7.82 0 14.92-1 19.37-1.81 2.9-.53 5.76 1.08 6.79 3.83 1.76 4.68 5.25 17.1 6.21 21.42.08.36.57.39.7.05.96-2.36 3.01-7.73 3.01-7.73z"/><linearGradient id="c" gradientUnits="userSpaceOnUse" x1="31.152" y1="124.3" x2="31.152" y2="65.662" gradientTransform="matrix(1 0 0 -1 0 128)"><stop offset=".599" style="stop-color:#f9ddbd"/><stop offset="1" style="stop-color:#ffd29c"/></linearGradient><path style="fill:url(#c)" d="M43.28 35.44c-.88 1.44-3.02 2.36-4.78 2.36-.33 0-.64-.03-.93-.1-1.27-.28-2.88-.76-4.38-.76-.69 0-1.36.1-1.96.37a5.303 5.303 0 0 0-3.14 4.85l-.27 15.99c-.25 3.31-1.06 5.67-3.79 5.67-2.13 0-2.89-1.32-3-2.67l-2.13-18.6L18.36 27c0-.07 2.01-11.85 2.01-11.85L20.86 4h13.92l-2.41 14.21c-.42 2.98.99 6.43 2.4 8.33 2.29 3.11 5.25 3.51 5.93 3.69 1.86.26 2.51.89 2.92 1.7.44.85.5 2.09-.34 3.51z"/><linearGradient id="d" gradientUnits="userSpaceOnUse" x1="96.843" y1="124.163" x2="96.843" y2="65.698" gradientTransform="matrix(1 0 0 -1 0 128)"><stop offset=".599" style="stop-color:#f9ddbd"/><stop offset="1" style="stop-color:#ffd29c"/></linearGradient><path style="fill:url(#d)" d="m109.63 27-.52 15.55-2.14 18.6c-.11 1.35-.87 2.67-3 2.67-2.73 0-3.54-2.36-3.79-5.67l-.26-15.99c0-2.1-1.24-4-3.15-4.85-.6-.27-1.27-.37-1.96-.37-1.5 0-3.1.48-4.37.76-.29.07-.61.1-.93.1-1.76 0-3.91-.92-4.78-2.36-.86-1.42-.8-2.66-.36-3.51.42-.81 1.06-1.44 2.93-1.7.68-.18 3.63-.58 5.93-3.69 1.41-1.9 2.81-5.35 2.39-8.33L93.22 4h13.91l.5 11.15s2 11.72 2 11.85z"/></svg>