<svg xmlns="http://www.w3.org/2000/svg" viewBox="0 0 128 128" style="enable-background:new 0 0 128 128" xml:space="preserve"><path style="fill:#fff" d="m109.3 53.2 6.6-10.4-9.1-4c-1.3-.4-2.4-1.2-3.1-2.5s-.7-2.8-.2-4.2l5.2-14.5L93 26c-1.3.6-2.8.5-4 0s-2.1-1.5-2.5-2.7l-4-7.8-6.7 6.3c-1.9 1.6-4.5 1.5-6.4 0L54.5 9.6l-7.2 12.1c-1.2 2.3-4.1 3.2-6.5 2.1l-18.3-8.7 4.1 14.5c.4 1.3.2 2.8-.6 4-.7 1.2-1.9 2-3.3 2.2L15.9 37l3.1 5.6c.8 1 1.1 2.3.9 3.6-.2 1.4-1 2.7-2.2 3.4l-9.3 6 12.4 6.1c1.5.7 2.5 2 2.8 3.5s-.1 3-1.1 4.2l-5.4 7.8 7.8 1.3c1.6.2 3 1.2 3.8 2.6.8 1.5.8 3.2 0 4.7L12 115.7l30.9-21.5c1.2-.9 2.8-1.1 4.2-.7s2.6 1.5 3.2 2.9l.1.3 1.9 6.4L67 94c1.6-1.1 3.8-1.1 5.4-.1l11.7 7.1 1.6-6.7c.2-1.4 1.1-2.7 2.3-3.4 1.3-.8 2.9-.9 4.3-.4l16.9 6.3-5.4-15.8c-.6-1.3-.5-2.8.1-4.1.6-1.3 1.8-2.3 3.2-2.6l13.1-3.9-10.7-10.9c-1.6-1.6-1.6-4.4-.2-6.3z"/><path style="fill:#2f2f2f" d="m126 67.9-11.5-11.6 7.3-11.5.1-.1c.8-1.3.8-3 .2-4.4-.6-1.3-1.7-2.2-3.1-2.6l-9.5-4.2 5.8-16.1c.8-1.8.4-3.9-1-5.4s-3.6-1.9-5.5-1.1l-17.2 9.2-4.4-8.6c-.5-1.4-1.5-2.3-2.8-2.7-1.5-.5-3.3 0-4.6 1.1l-7.1 6.7L57.5 4.2c-1.2-1-2.7-1.4-4.2-1.1s-2.7 1.2-3.4 2.5L42.6 18 23 8.7c-1.8-.8-3.8-.6-5.3.7s-2.1 3.2-1.6 5.1l4.4 15.7-7.3 1.2c-1.7.3-3.2 1.5-3.8 3.2-.6 1.5-.3 3.3.7 4.6l3.3 6-9.9 6.4c-1.5 1-2.4 2.8-2.2 4.6s1.3 3.3 2.9 4l12.9 6.3-6.1 8.9c-1.1 1.3-1.5 2.9-.9 4.4.6 1.6 2.2 2.8 4.2 3l8.4 1.4-18.3 32.6c-1.1 2-.7 4.5 1 6.1.9.8 2.1 1.3 3.3 1.3 1 0 2-.3 2.8-.9L45 100l1.9 6.3.1.3c.6 1.4 1.7 2.4 3.2 2.9 1.4.4 2.9.2 4.1-.7l15.4-9.4 12.4 7.5c1.4.9 3.2 1.1 4.7.4s2.6-2.1 2.8-3.7l1.6-6.9 17.9 6.7c1.9.7 4 .2 5.3-1.3 1.3-1.4 1.7-3.5.9-5.3l-5.8-16.9 13.8-4.1c1.6-.4 2.9-1.6 3.4-3.2.7-1.6.4-3.4-.7-4.7zm-18.9 6.5c-1.4.4-2.6 1.3-3.2 2.6-.6 1.3-.7 2.8-.1 4.1l5.4 15.8-16.9-6.3c-1.4-.5-3-.4-4.3.4-1.2.8-2.1 2-2.3 3.4l-1.6 6.7L72.4 94c-1.7-1.1-3.8-1.1-5.4.1l-14.8 9-1.9-6.4-.1-.3c-.6-1.4-1.7-2.4-3.2-2.9s-3-.2-4.2.7l-30.9 21.5 16.7-29.9c.8-1.5.8-3.2 0-4.7-.8-1.4-2.2-2.4-3.8-2.6L17 77.2l5.4-7.8c1-1.2 1.4-2.7 1.1-4.2-.3-1.6-1.4-2.9-2.8-3.5L8.4 55.6l9.3-6c1.2-.8 2-2 2.2-3.4.2-1.3-.2-2.6-.9-3.6L15.9 37l6.9-1.2c1.4-.2 2.6-1.1 3.3-2.2.7-1.2.9-2.6.6-4l-4.1-14.5 18.3 8.7c2.4 1.1 5.2.2 6.5-2.1l7.2-12.1 14.9 12.2c1.8 1.6 4.5 1.6 6.4 0l6.7-6.2 4 7.8c.4 1.2 1.4 2.2 2.5 2.7 1.3.6 2.8.6 4 0l15.7-8.4-5.2 14.5c-.6 1.3-.5 2.9.2 4.2.6 1.2 1.7 2.1 3.1 2.5l9.1 4-6.6 10.4c-1.4 1.8-1.4 4.6.1 6.4l10.7 10.9-13.1 3.8z"/></svg>