<svg xmlns="http://www.w3.org/2000/svg" viewBox="0 0 128 128" style="enable-background:new 0 0 128 128" xml:space="preserve"><radialGradient id="a" cx="43.972" cy="29.066" r="90.951" gradientTransform="matrix(.6257 .78 -.5815 .4665 33.359 -18.792)" gradientUnits="userSpaceOnUse"><stop offset=".506" style="stop-color:#17a1f3"/><stop offset=".767" style="stop-color:#1b7ffa"/><stop offset=".962" style="stop-color:#1366f0"/><stop offset="1" style="stop-color:#1160ee"/></radialGradient><path style="fill:url(#a)" d="M3.14 64.68c.68 24.4 16.99 59.55 61.45 59.1 43.32-.44 60.76-36.3 59.4-62.06-1.37-25.76-21.66-57.46-61.79-57.23-40.14.22-59.8 33.96-59.06 60.19z"/><path style="fill:#7add8a" d="M90.52 93.68c-.63-.24-1.1.35-1.75 1.45-.65 1.1-1.35 2-1.8 2.35s-3.1 1.95-3.3 2.85c-.2.9 0 1.8 0 2.65 0 .85-.15 2.1-.15 2.65 0 .55-.6 1.05.2 1.85s1.4.3 1.95-.45 1.85-3.15 2.15-4.2c.2-.71.6-1.75.8-2.3.2-.55 1.85-3.2 2.1-4.2.26-1 .61-2.35-.2-2.65z"/><path style="fill:#bedc9d" d="M66.38 40.12c0 .36.26.73.93.73s.95-.42.9-.97c-.04-.51-.56-.67-1.01-.63-.36.03-.82.3-.82.87z"/><path style="fill:#95da93" d="M44.54 32.36c-.46-.02-1.2.41-1.25.82-.11.98-.42 2.84.32 2.95.68.1 1.03-1.09 1.14-1.54s.5-2.2-.21-2.23z"/><path style="fill:#7add8a" d="M41.06 16.97c-.89 0-1.48.76-1.62 1.22-.15.5-.05 1.87-.47 2.05-.57.24-1.48.06-2.08.25-.78.25-2.4 1.73-2.36 2.08.03.32.42 1.02 1.31 1.16.3.05.61-.05.69-.24.04-.1.25-.25.42-.19.24.08.21.56.4.61.19.05 2.2.08 2.44 0 .24-.08 1.49-.82 1.67-1.59.19-.77.26-2.41.33-3.75.07-1.15-.36-1.6-.73-1.6z"/><path style="fill:#fff" d="M38.28 9.2s-1.54 1.91-2.5 2.81c-.96.9-2.63 2.2-2.47 2.84.05.21.61.74 1.33.56.72-.19 2.02-1.01 3.5-1.54 1.49-.53 2.49-.58 2.79-.72.29-.13 3.56-1.75 4.83-2.31s6.13-1.96 7.27-2.36 1.99-.77 1.8-1.51c-.19-.74-2.44-.64-3.79-.64s-2.56-.4-2.56-.4-3.29.76-5.69 1.57c-2.38.81-4.51 1.7-4.51 1.7z"/><path style="fill:#7add8a" d="M69.22 8.02c-.38-.41-.11-.91.53-1.23.63-.32 2.19-1.39 2.19-1.39s12.49-.18 27.03 10.15C113 25.52 117.63 38.2 117.63 38.2s.41 1.6.12 2.13c-.29.54.04 3.32-.78 7.96-.82 4.64-1.18 6.06-1.13 8.16s.79 6.14-.79 6.45-1.99-2.15-2.83-3.99-2.31-4.14-2.68-4.93-.63-1.84-.63-1.84-.94.26-1.68-.21c-.73-.47-4.46-4.77-4.93-5.14s-1.68-.16-2.68.16-1.36.94-3.62.73-1.42-1.05-2.62-1.89-2.26 1.1-3.41 1.1c-1.15 0-1.89-.58-2.68-1.36s-1.73-1.68-2.2-1.84-1.63.16-1.15 1.31 1.36 1.26 2.15 2.05.68 1.26 1.1 1.89 2.52 2.05 2.99 1.94c.47-.1 1.36-.63 1.73-1.21s.26-1.21.94-1.31 1.26.89 2.2 1.63 1.99.73 2.26 2.05c.26 1.31-.79 5.35-1.73 6.4s-1.89 1.15-1.89 1.15l-2.1 1.78s0 .94-1.73 1.94-2.15.94-3.31 1.52-1.78 1.26-2.68 1.05-1.52-1.57-1.94-2.94c-.42-1.36-1.36-2.52-2.05-3.2s-1.21-.73-1.89-1.57-2.1-2.68-2.2-3.04-.1-.84-.47-1.36-1.1-.89-1.52-1.21c-.42-.31-.73-.73-.84-1.42s-1.15-1.52-1.68-2.15-1.15-1.78-1.73-1.36.1 1.31.79 2.47 1 1.94 1.15 2.73c.16.79-.05 1.31.52 1.68s1.21-.05 1.89 1.57.42 3.15 1.15 3.78.89.26 1.52 1.05.52 1.94 1.26 2.47 2.94 1.47 3.78 2.78.42 1.89 1.21 2.36 2.31.05 3.88-.47 3.73-2.2 4.62-1.94.68 3.57-.21 6.09-1.57 3.31-2.2 4.09-1.52 2.41-3.36 3.99-4.3 4.04-4.93 7.24c-.63 3.2.1 8.55 0 9.92s.05 2.2-.68 2.94-3.73 3.36-4.25 4.3-.16 2.1-.52 3.41-2.68 3.41-3.46 3.83-.58 1.21-2.41 2.78-2.41 2.1-3.2 2.2-5.09.31-6.72-.31c-1.63-.63-2.73-1.63-3.2-2.15s-.94-1.1-1.68-1.52c-.73-.42-1.57-1.31-2.15-2.1s-2.15-2.89-3.67-4.56-2.31-2.47-2.41-4.3 1.57-3.73 1.57-3.73-.47-3.25-1.84-5.67-3.2-2.83-4.3-5.3c-1.1-2.47-.58-4.41-.47-5.19s-.21-2.1-1.42-2.52c-1.21-.42-2.15.1-2.83-.26s-1.57-2.26-3.1-2.36-3.46 1.99-5.14 1.94c-1.68-.05-1.73-1.21-2.94-1.57s-1.63.89-2.62.68c-1-.21-2.41-1.63-3.2-2.89s-1.73-1.99-2.2-2.73-.63-1.26-.63-1.26-1.68-.05-2.15-2.68-.1-3.88.31-5.25c.42-1.36 1.57-5.04 1.68-6.3s-.16-2.15.1-2.83 1.57-1.73 2.15-2.73c.58-1 1.1-2.05 1.63-2.78s1.47-.1 2.73-1.73 1.05-1.89 1.05-1.89.31-1.73 1.26-2.89 1.94-1.73 2.62-1.84 1.63.21 2.31.21 1.52.16 2.1.05 2.31-1.47 3.57-1.78 2.36-.16 3.36-.37 2.73-.42 3.83.37 1.1 1.36 1 1.73-.79 1.26-.52 1.63 1.1.68 1.57.84 1.21.21 1.47.37.89.89 1.94 1.42 2.73 1.42 3.31 1.1.52-1.73 1.52-2.05c1-.31 2.41.05 3.94.31s7.82 1.73 8.5 1.52.47-.79 1.26-1 1.57-.16 1.89-.73.52-3.36.47-4.3-.05-2.1-.47-2.31-1.57 1.05-2.62 1.26-1.42-.16-1.89-.1-.89.79-1.52.58c-.63-.21-1.78-.84-2.41-1.47-.63-.63-1-1.73-.68-2.47s1.63-1.15 2.68-1.57c1.05-.42 2.26-.52 2.83-.73s.84-.47 1.57-.47.94.63 1.36.73 3.2.05 3.67-.05 2.52-1.05 2.47-1.78-1.52-.1-1.94-.52-1.99-2.47-3.25-2.52-2.1.89-3.04.89-1.42-.73-2.05-.63-1.68 1.05-2.31 1.68-1.1 1.21-1.21 1.47.47 1.42-.26 1.89-1.73.58-2.1.63-1.68-.16-1.94.68-.16 1.78.21 2.36.52 1.15-.16 1.73-1.26.73-1.68-.05c-.42-.79-.16-.84-.47-1.31s-1.21-1.94-1.57-3.04-.63-1.89-1.26-2.62-1.63-.79-2.31-1.42-1.31-1.52-1.31-1.52-.52.94.16 2.57 2.36 2.89 2.47 3.52-.16 1.68-.63 1.68-1.05-.52-1.73-1.31-1.89-1.63-2.52-2.2-1.36-3.04-1.73-3.1-1.15 1.42-2.31 1.78-2.15.42-2.15.42-.73 1.68-1.73 2.2-1.52.84-1.99 1.52-1.1 1.94-1.57 2.41c-.47.47-1.78.84-2.2 1s-1.31.42-1.57.42-1.68-.94-1.89-1.63c-.21-.68-.63-1.1-.63-1.57s1.21-2.36 1.52-3.25.52-1.84 1.36-2.52 1.15 0 2.41.05 2.78-.1 2.78-.1.16-.37.31-.73.52-.31.42-.58-1.31-1.05-1.42-1.63c-.1-.58.1-.79.52-1.05s.94-.73.94-.73.31-.42 1-.68 1.31.42 1.78.26c.47-.16 1.78-.84 2.31-1.47s1.15-1.31 1.68-1.63 1.84-.42 2.31-.73.47-1.05.89-1.21 1.05-.42 1.78.1 1.05 1.47 1.84 1.57 1.52-.21 1.84-.37 1-1.15 1.89-1.68c.89-.52 1.47-.84 1.94-1.36s.73-1 .73-1 1.36-.16 1.99-.31 2.31-.26 1.99-1.26-1.52-.42-2.41-.26-1.68.63-1.89.31.73-1.42.94-1.78.73-1 .05-1.42-1.42.73-1.84 1.26-1.15 1.42-1.15 1.42.16.79.16 1.26-.79 1.1-1.47 1.73-1.26 1.52-2.1 1.47-1.21-1.26-1.26-1.42 0-1-.26-1.05-.84 1.1-1.84.94-1.15-1.36-.58-2.52 1.68-1.47 2.52-1.89 1.57-.68 2.05-1.05.63-.68.94-1.05 2.83-2.2 4.35-2.89 2.52-1.15 3.25-1.26c.73-.1 1.63-.16 2.31.31.68.47 2.52 1.57 2.99 2.05s.84.89 1.84.68 3.67-1.21 3.99-1.52-.31-1.15-.63-1.21-1.43.22-1.92-.31z"/><radialGradient id="b" cx="64.332" cy="57.234" r="21.385" gradientTransform="matrix(.3201 -.9474 3.2189 1.0875 -140.493 55.94)" gradientUnits="userSpaceOnUse"><stop offset=".118" style="stop-color:#e3dda6"/><stop offset=".907" style="stop-color:#e3dda6;stop-opacity:.0832"/><stop offset=".978" style="stop-color:#e3dda6;stop-opacity:0"/></radialGradient><path style="fill:url(#b)" d="M41.23 82.05c.1-.79-.21-2.1-1.42-2.52-1.21-.42-2.15.1-2.83-.26s-1.57-2.26-3.1-2.36-3.46 1.99-5.14 1.94c-1.68-.05-1.73-1.21-2.94-1.57s-1.63.89-2.62.68c-1-.21-2.41-1.63-3.2-2.89s-1.73-1.99-2.2-2.73-.63-1.26-.63-1.26-1.68-.05-2.15-2.68-.1-3.88.31-5.25c.42-1.36 1.57-5.04 1.68-6.3s-.16-2.15.1-2.83 1.57-1.73 2.15-2.73c.58-1 1.1-2.05 1.63-2.78s1.47-.1 2.73-1.73 1.05-1.89 1.05-1.89.31-1.73 1.26-2.89 1.94-1.73 2.62-1.84 1.63.21 2.31.21 1.52.16 2.1.05 2.31-1.47 3.57-1.78 2.36-.16 3.36-.37 2.73-.42 3.83.37 1.1 1.36 1 1.73-.79 1.26-.52 1.63 1.1.68 1.57.84 1.21.21 1.47.37.89.89 1.94 1.42 2.73 1.42 3.31 1.1.52-1.73 1.52-2.05c1-.31 2.41.05 3.94.31s7.82 1.73 8.5 1.52.47-.79 1.26-1 1.57-.16 1.89-.73.52-3.36.47-4.3-.05-2.1-.47-2.31-1.57 1.05-2.62 1.26-1.42-.16-1.89-.1-.89.79-1.52.58c-.63-.21-1.78-.84-2.41-1.47-.63-.63-1-1.73-.68-2.47s1.63-1.15 2.68-1.57c1.05-.42 2.26-.52 2.83-.73s.84-.47 1.57-.47.94.63 1.36.73 3.2.05 3.67-.05 2.52-1.05 2.47-1.78-1.52-.1-1.94-.52-2-2.38-3.25-2.52c-2.91-.33-6.18-3.87-6.25-8.92-.07-5.05 2.54-7.7 4.2-8.08.99-.23 3.67-1.21 3.99-1.52s-.31-1.15-.63-1.21-1.42.22-1.92-.31c-.38-.41-.11-.91.53-1.23.63-.32 2.19-1.39 2.19-1.39s12.49-.18 27.03 10.15C113 25.52 117.63 38.2 117.63 38.2s.41 1.6.12 2.13c-.29.54.04 3.32-.78 7.96-.82 4.64-1.18 6.06-1.13 8.16s.79 6.14-.79 6.45-1.99-2.15-2.83-3.99-2.31-4.14-2.68-4.93-.63-1.84-.63-1.84-.94.26-1.68-.21c-.73-.47-4.46-4.77-4.93-5.14s-1.68-.16-2.68.16-1.36.94-3.62.73-1.42-1.05-2.62-1.89-2.26 1.1-3.41 1.1c-1.15 0-1.89-.58-2.68-1.36s-1.73-1.68-2.2-1.84-1.63.16-1.15 1.31 1.36 1.26 2.15 2.05.68 1.26 1.1 1.89 2.52 2.05 2.99 1.94c.47-.1 1.36-.63 1.73-1.21s.26-1.21.94-1.31 1.26.89 2.2 1.63 1.99.73 2.26 2.05c.26 1.31-.79 5.35-1.73 6.4s-1.89 1.15-1.89 1.15l-2.1 1.78s0 .94-1.73 1.94-2.15.94-3.31 1.52-1.78 1.26-2.68 1.05-1.52-1.57-1.94-2.94c-.42-1.36-1.36-2.52-2.05-3.2s-1.21-.73-1.89-1.57-2.1-2.68-2.2-3.04-.1-.84-.47-1.36-1.1-.89-1.52-1.21c-.42-.31-.73-.73-.84-1.42s-1.15-1.52-1.68-2.15-1.15-1.78-1.73-1.36.1 1.31.79 2.47 1 1.94 1.15 2.73c.16.79-.05 1.31.52 1.68s1.21-.05 1.89 1.57.42 3.15 1.15 3.78.89.26 1.52 1.05.52 1.94 1.26 2.47 2.94 1.47 3.78 2.78.42 1.89 1.21 2.36 2.31.05 3.88-.47 3.73-2.2 4.62-1.94.68 3.57-.21 6.09-1.57 3.31-2.2 4.09-1.52 2.41-3.36 3.99-4.3 4.04-4.93 7.24c0 0-9.24 6.9-18.84 5.68-10.11-1.31-20.61-10.75-20.55-11.15z"/><radialGradient id="c" cx="87.948" cy="42.632" r="18.619" gradientTransform="matrix(-.7604 -.6495 1.1303 -1.3232 106.636 156.165)" gradientUnits="userSpaceOnUse"><stop offset=".118" style="stop-color:#e3dda6"/><stop offset=".907" style="stop-color:#e3dda6;stop-opacity:.0832"/><stop offset=".978" style="stop-color:#e3dda6;stop-opacity:0"/></radialGradient><path style="fill:url(#c)" d="M41.23 82.05c.1-.79-.21-2.1-1.42-2.52-1.21-.42-2.15.1-2.83-.26s-1.57-2.26-3.1-2.36-3.46 1.99-5.14 1.94c-1.68-.05-1.73-1.21-2.94-1.57s-1.63.89-2.62.68c-1-.21-2.41-1.63-3.2-2.89s-1.73-1.99-2.2-2.73-.63-1.26-.63-1.26-1.68-.05-2.15-2.68-.1-3.88.31-5.25c.42-1.36 1.57-5.04 1.68-6.3s-.16-2.15.1-2.83 1.57-1.73 2.15-2.73c.58-1 1.1-2.05 1.63-2.78s1.47-.1 2.73-1.73 1.05-1.89 1.05-1.89.31-1.73 1.26-2.89 1.94-1.73 2.62-1.84 1.63.21 2.31.21 1.52.16 2.1.05 2.31-1.47 3.57-1.78 2.36-.16 3.36-.37 2.73-.42 3.83.37 1.1 1.36 1 1.73-.79 1.26-.52 1.63 1.1.68 1.57.84 1.21.21 1.47.37.89.89 1.94 1.42 2.73 1.42 3.31 1.1.52-1.73 1.52-2.05c1-.31 2.41.05 3.94.31s7.82 1.73 8.5 1.52.47-.79 1.26-1 1.57-.16 1.89-.73.52-3.36.47-4.3-.05-2.1-.47-2.31-1.57 1.05-2.62 1.26-1.42-.16-1.89-.1-.89.79-1.52.58c-.63-.21-1.78-.84-2.41-1.47-.63-.63-1-1.73-.68-2.47s1.63-1.15 2.68-1.57c1.05-.42 2.26-.52 2.83-.73s.84-.47 1.57-.47.94.63 1.36.73 3.2.05 3.67-.05 2.52-1.05 2.47-1.78-1.52-.1-1.94-.52-2-2.38-3.25-2.52c-2.91-.33-6.18-3.87-6.25-8.92-.07-5.05 2.54-7.7 4.2-8.08.99-.23 3.67-1.21 3.99-1.52s-.31-1.15-.63-1.21-1.42.22-1.92-.31c-.38-.41-.11-.91.53-1.23.63-.32 2.19-1.39 2.19-1.39s12.49-.18 27.03 10.15C113 25.52 117.63 38.2 117.63 38.2s.41 1.6.12 2.13c-.29.54.04 3.32-.78 7.96-.82 4.64-1.18 6.06-1.13 8.16s.79 6.14-.79 6.45-1.99-2.15-2.83-3.99-2.31-4.14-2.68-4.93-.63-1.84-.63-1.84-.94.26-1.68-.21c-.73-.47-4.46-4.77-4.93-5.14s-1.68-.16-2.68.16-1.36.94-3.62.73-1.42-1.05-2.62-1.89-2.26 1.1-3.41 1.1c-1.15 0-1.89-.58-2.68-1.36s-1.73-1.68-2.2-1.84-1.63.16-1.15 1.31 1.36 1.26 2.15 2.05.68 1.26 1.1 1.89 2.52 2.05 2.99 1.94c.47-.1 1.36-.63 1.73-1.21s.26-1.21.94-1.31 1.26.89 2.2 1.63 1.99.73 2.26 2.05c.26 1.31-.79 5.35-1.73 6.4s-1.89 1.15-1.89 1.15l-2.1 1.78s0 .94-1.73 1.94-2.15.94-3.31 1.52-1.78 1.26-2.68 1.05-1.52-1.57-1.94-2.94c-.42-1.36-1.36-2.52-2.05-3.2s-1.21-.73-1.89-1.57-2.1-2.68-2.2-3.04-.1-.84-.47-1.36-1.1-.89-1.52-1.21c-.42-.31-.73-.73-.84-1.42s-1.15-1.52-1.68-2.15-1.15-1.78-1.73-1.36.1 1.31.79 2.47 1 1.94 1.15 2.73c.16.79-.05 1.31.52 1.68s1.21-.05 1.89 1.57.42 3.15 1.15 3.78.89.26 1.52 1.05.52 1.94 1.26 2.47 2.94 1.47 3.78 2.78.42 1.89 1.21 2.36 2.31.05 3.88-.47 3.73-2.2 4.62-1.94.68 3.57-.21 6.09-1.57 3.31-2.2 4.09-1.52 2.41-3.36 3.99-4.3 4.04-4.93 7.24c0 0-9.24 6.9-18.84 5.68-10.11-1.31-20.61-10.75-20.55-11.15z"/><radialGradient id="d" cx="61.288" cy="118.76" r="17.892" gradientTransform="matrix(.2128 -.9771 1.9056 .4151 -178.069 129.348)" gradientUnits="userSpaceOnUse"><stop offset="0" style="stop-color:#e3dda6"/><stop offset=".818" style="stop-color:#e3dda6;stop-opacity:0"/></radialGradient><path style="fill:url(#d)" d="M59.38 116.57c-1.67-.52-2.73-1.63-3.2-2.15s-.94-1.1-1.68-1.52c-.73-.42-1.57-1.31-2.15-2.1s-2.15-2.89-3.67-4.56-2.31-2.47-2.41-4.3 1.57-3.73 1.57-3.73-.47-3.25-1.84-5.67-3.2-2.83-4.3-5.3c0 0 9.75-.92 17.91.92s21.02 9.26 21.02 9.26c-.1 1.36.05 2.2-.68 2.94s-3.73 3.36-4.25 4.3-.16 2.1-.52 3.41-2.68 3.41-3.46 3.83-.58 1.21-2.41 2.78-2.42 2.07-3.2 2.2c-.62.11-4.98.24-6.73-.31z"/><path style="fill:#4b9ced" d="M79.53 25.46c-.78-.08-2.09 1.49-2.13 2.2s.19 1.68.49 1.94 2.09 1.16 2.5 1.75.6 2.61 1.38 3.58 1.72 1.98 3.77 1.94 1.75-1.11 1.75-1.57c0-.78-2.43-3.43-3.4-4.37-.97-.93-2.61-1.68-2.91-2.39s.26-1.23.04-1.79c-.22-.55-.74-1.22-1.49-1.29z"/><path style="fill:#4186f1" d="M72.46 83.86c-.3-.39-1.65-.45-2.1-.16s-1.13 2.42-.94 2.78c.19.36 1.49.26 1.94.1s1.42-2.3 1.1-2.72z"/></svg>