<svg xmlns="http://www.w3.org/2000/svg" viewBox="0 0 1000 1000"><path fill="#ce1126" d="M8 195.25c170.83-85.22 341.03-54.42 513.26-27.97 155.21 23.84 312.16 44.57 470.74-34.53v672c-170.83 85.22-341.03 54.42-513.26 27.97C323.53 808.88 166.58 788.15 8 867.25v-672"/><path fill="#002b7f" d="M8 195.25C170.66 114.1 332.46 138.06 500 164v336c-161.81-25.05-325.35-51.88-492 31.25v-336"/><path fill="#fff" d="m254 153.34 16.89 71.05-44.22-43.16c18.04-.85 36.07-.99 54.66-.53l-44.22 44L254 153.34M178.83 242.16l16.9 69.15c-14.6-13.08-29.2-25.65-44.23-37.96 18.05-3.12 36.08-5.36 54.67-6.84l-44.23 49.01 16.89-73.36M330.88 226.18l15.83 67.91-41.46-44.15c16.91.89 33.82 2.22 51.25 3.94l-41.46 37.77 15.84-65.47M291.58 310.18l10.56 44.84-27.64-28.35c11.28.2 22.55.62 34.17 1.26l-27.64 26.31 10.55-44.06M254 372.58l21.12 88.86c-18.25-18.42-36.49-36.26-55.29-53.84 22.56-1.28 45.1-1.44 68.34-.68-18.24 17.5-36.49 35.55-55.29 54.92L254 372.58"/><path fill="#1A1A1A" opacity=".2" d="M8 195.25c170.83-85.22 341.03-54.42 513.26-27.97 155.21 23.84 312.16 44.57 470.74-34.53v672c-170.83 85.22-341.03 54.42-513.26 27.97C323.53 808.88 166.58 788.15 8 867.25v-672m31.25 19.39v604.5c306.56-128.26 611.18 96.04 921.5-33.78v-604.5c-306.56 128.26-611.18-96.04-921.5 33.78"/></svg>