<svg xmlns="http://www.w3.org/2000/svg" viewBox="0 0 128 128" style="enable-background:new 0 0 128 128" xml:space="preserve"><linearGradient id="a" gradientUnits="userSpaceOnUse" x1="53.806" y1="103.061" x2="53.806" y2="58.889" gradientTransform="matrix(1 0 0 -1 0 130)"><stop offset=".091" style="stop-color:#a47b62"/><stop offset=".512" style="stop-color:#ba8d68"/></linearGradient><path style="fill:url(#a)" d="M92.88 79.82c-.09 3.06-1.03 7.47-2.82 7.67l-4.98.26c-.97 0-1.49-1.23-1.55-2.06l.16-1.34c-.18-.04-.37-.11-.54-.23-.36-.24-1.05-.96-1.12-2-.07-1.08.51-2.18 1.74-3.26.2-.18.41-.33.62-.48.72-.52 1.24-.9 1.3-2.43.05-1.08-1.94-7.8-3.29-12.05l-4.1-9.23c-.51 12.23-1.8 18.07-1.81 18.13-.03.11-.09.2-.17.27L62.4 84.54c-.11.09-.24.13-.38.11a.474.474 0 0 1-.34-.19L52.1 71.71a.539.539 0 0 1-.1-.3V53.57c-1.93 1.65-5.73 4.84-8.61 6.28-1.82.92-9.51 1.99-15.57 2.8-1.38.19-2.76 0-3.93.23-.59.12-1.13.35-1.58.78-.55.53-1.44.83-2.42.98-2 .31-4.34-.06-4.73-.64-.67-.99-.39-3.56-.33-5.28.12-3.33 4.95-5.16 8.3-3.93 1.64-.26 11.22-2.8 16.28-4.16.95-.93 8.13-7.9 11-9.65 2.65-1.61 8.22-2.04 9.92-2.13l-.2-10.03c0-.15.06-.29.16-.38.11-.1.25-.15.4-.13l8.96 1.02c.25.03.44.24.44.5l.04 9.18c2.09.06 10.15.5 13.85 3.43 3.68 2.92 6.8 18.55 6.93 19.21v.01c.09.47 2.15 11.68 1.97 18.16z"/><path style="fill:#99674f" d="M74.82 21.44H55.18c-2.12 0-3.85 1.85-3.85 4.1 0 2.26 1.73 4.1 3.85 4.1h19.64c2.12 0 3.85-1.85 3.85-4.1 0-2.26-1.74-4.1-3.85-4.1z"/><path style="fill:#ba8d68" d="M65 7.3c-6.25 0-12.04 6.69-12.04 16.31 0 9.57 5.97 14.3 12.04 14.3s12.04-4.73 12.04-14.3C77.04 13.98 71.25 7.3 65 7.3z"/><ellipse style="fill:#49362e" cx="59.09" cy="24.45" rx="1.77" ry="1.83"/><ellipse style="fill:#49362e" cx="70.91" cy="24.45" rx="1.77" ry="1.83"/><path style="fill:#99674f" d="M66.39 27.77c-.04-.02-.08-.02-.12-.03h-2.54c-.04 0-.08.01-.12.03-.23.09-.36.33-.25.59.11.25.61.97 1.63.97s1.53-.71 1.63-.97c.12-.26 0-.5-.23-.59z"/><path style="fill:#5d4037" d="M68.02 30.68c-1.14.68-4.9.68-6.04 0-.66-.39-1.33.21-1.06.8s2.32 1.95 4.09 1.95 3.79-1.36 4.06-1.95c.27-.6-.39-1.19-1.05-.8z"/><radialGradient id="b" cx="65.093" cy="4.178" r="17.55" gradientTransform="translate(0 .677)" gradientUnits="userSpaceOnUse"><stop offset="0" style="stop-color:#40d7bc"/><stop offset="1" style="stop-color:#17a6a4"/></radialGradient><path style="fill:url(#b)" d="M65.01 4.77c-.01 0-.01 0 0 0H65C48.67 4.85 52.01 23.5 52.01 23.5l1.18 3.16s1.64-7.22 2.37-9.18c.37-.99 1.4-1.57 2.44-1.38 1.6.29 4.15.65 6.96.65h.06c2.81 0 5.36-.36 6.96-.65 1.04-.19 2.07.39 2.44 1.38.74 1.96 2.37 9.18 2.37 9.18.31-.31 1.18-3.16 1.18-3.16S81.33 4.85 65.01 4.77z"/><linearGradient id="c" gradientUnits="userSpaceOnUse" x1="62.931" y1="62.06" x2="80.843" y2="15.493" gradientTransform="matrix(1 0 0 -1 0 130)"><stop offset="0" style="stop-color:#00ecda"/><stop offset=".114" style="stop-color:#00e6d4"/><stop offset=".273" style="stop-color:#00d6c1"/><stop offset=".459" style="stop-color:#00bba4"/><stop offset=".5" style="stop-color:#00b49c"/><stop offset="1" style="stop-color:#00d9c5"/></linearGradient><path style="fill:url(#c)" d="M104.65 106.06c-.2.06-.4.11-.6.15-.63.13-1.28.17-1.92.17-.91 0-1.83-.08-2.74-.13-.63-.03-1.25-.05-1.88-.05-1.56 0-3.12.11-4.67.31-1.07.14-2.19.21-3.22.51-.26.08-2.6.98-2.69.98-.3 0-.19-1.34-.28-1.9-.13-.76-.33-1.47-.6-2.19-.98-2.65-3.24-4.39-4.36-6.93-.52-1.18-.77-2.53-.49-3.8.15-.68.68-2.43 1.05-2.83-.18.2-.58.29-.82.41-.64.32-1.24.72-1.78 1.18-1.29 1.11-2.2 2.61-2.95 4.13-1.56 3.13-2.51 7.04-1.96 10.55.48 3.05 2.2 5.85 3.96 8.32-1.87 1.51-4.11 2.91-6.4 2.91-.21 0-.42-.01-.63-.04-3.67-.44-5.67-1.94-5.67-7.94 0-19.75 12.5-16.44 10.5-37.56-.01-.11-.09-.15-.24-.15-1.19 0-6.69 3.11-13.65 3.11-.34 0-.69-.01-1.03-.02-8.04-.36-9.13-4.68-9.51-4.68-.02 0-.05.02-.07.06-2.06 3.82-3.21 9.12-4 13.38-3.25 17.46-.78 33.46 9.88 39.12 2.39 1.27 5.31 1.87 8.33 1.87 6.25 0 12.91-2.58 16.17-7.12 2.97 1.14 5.64 1.63 8.03 1.63 11.86 0 16.87-12.02 17.21-15.99-.45 1.27-1.66 2.14-2.97 2.54zM86.9 109h.05c-.02.01-.03.01-.05.01h-.27V109h.27z"/><path style="fill:#009984" d="M51.4 78.01s.03.15.1.37c.07.2.2.47.37.72.18.26.4.51.67.76.12.13.29.23.42.36.14.12.3.23.46.32.01.01.22.14.22.13.04.03.12.06.19.09.15.04.3.13.47.16.33.08.67.12.99.12.32-.01.62-.04.84-.09.23-.05.37-.09.37-.09l.08.08s-.08.1-.25.24c-.17.15-.43.34-.79.49-.35.15-.8.25-1.29.24-.48-.01-1.01-.15-1.44-.43-.87-.56-1.46-1.48-1.6-2.24-.15-.77.11-1.28.08-1.26l.11.03zm7.09 3.35s.12.06.32.17c.18.09.45.22.73.34.29.12.6.22.91.31.16.05.32.06.48.1.16.03.31.05.47.06.01.01.24.03.25.02.05.01.14 0 .22 0 .16-.02.32 0 .48-.02.32-.03.64-.09.94-.16.59-.15 1.1-.36 1.1-.36l.09.06s-.06.1-.19.25c-.13.16-.32.37-.6.58s-.63.41-1.04.56c-.41.14-.89.21-1.35.18-.94-.09-1.77-.61-2.24-1.11a3.37 3.37 0 0 1-.51-.66c-.1-.17-.15-.27-.15-.27l.09-.05zm1.97 3.76s.1.08.29.22c.16.12.41.29.66.45.27.16.56.31.85.45.15.07.31.11.45.18.15.06.3.1.45.13.01.01.23.06.25.06.05.01.13.02.21.03.16.01.32.05.48.05.32.02.65.01.96-.01.6-.05 1.14-.18 1.14-.18l.08.08s-.08.09-.23.22c-.15.14-.38.31-.68.48-.3.16-.69.31-1.12.39s-.91.07-1.36-.03c-.92-.23-1.65-.88-2.04-1.45-.2-.28-.33-.54-.4-.73-.08-.19-.11-.29-.11-.29l.12-.05zm4.96-2.79.35.08c.2.04.49.09.79.13.31.03.64.04.96.04.16 0 .33-.04.49-.04.16-.01.32-.04.46-.08.01 0 .24-.04.25-.05.05-.01.13-.04.2-.06.14-.06.31-.09.45-.17.3-.13.58-.28.85-.44.25-.16.49-.33.65-.46.17-.14.27-.22.27-.22l.11.03s-.03.11-.1.3-.19.46-.38.75c-.2.29-.47.59-.83.85-.35.26-.79.47-1.24.57-.93.2-1.88-.07-2.48-.42-.3-.17-.53-.36-.67-.5-.15-.14-.22-.23-.22-.23l.09-.08zM49.4 84.55c.01-.01.01.17.08.39.06.21.19.49.37.75.09.13.21.26.32.39.13.12.27.26.41.39.15.13.31.25.47.38.15.13.36.25.51.34.13.09.18.11.25.15.08.03.17.08.26.11.17.08.36.15.55.2.19.03.38.11.57.13s.37.05.55.06c.35.02.67 0 .91-.03s.39-.06.39-.06l.07.09s-.1.09-.3.23-.5.3-.89.42-.87.18-1.38.14-1.06-.18-1.53-.46c-.94-.57-1.65-1.49-1.82-2.31-.1-.4-.06-.76 0-.99.06-.24.12-.35.12-.35l.09.03zm6.13 3.25s.1.08.28.23c.16.13.39.31.64.48.26.17.54.34.83.5.14.08.3.13.44.2.15.07.3.12.45.16.01.01.23.08.24.08.05.02.13.03.21.05.16.02.31.07.48.08.32.04.65.05.96.04.3-.01.59-.04.8-.07.22-.03.35-.05.35-.05l.08.08s-.08.08-.24.21-.39.29-.71.44c-.62.3-1.58.49-2.49.21-.9-.28-1.6-.97-1.96-1.56-.18-.29-.3-.56-.36-.75-.07-.19-.09-.3-.09-.3l.09-.03zm6.72 2.05.3.19c.17.1.42.24.68.37.27.12.57.24.86.33.15.05.3.06.45.11.15.03.29.05.44.06.19.02.28.03.44.03.15-.02.3 0 .46-.02.31-.03.62-.09.91-.16.57-.15 1.07-.36 1.07-.36l.09.06s-.06.1-.18.25a3.456 3.456 0 0 1-1.58 1.14c-.4.14-.86.21-1.32.18-.93-.1-1.71-.65-2.14-1.17-.22-.26-.36-.5-.45-.68s-.13-.28-.13-.28l.1-.05zm-13.87 3.7s.03.15.09.35c.06.18.18.44.33.67.17.24.36.47.59.7.11.12.26.22.37.34.13.11.26.22.4.31a2.141 2.141 0 0 0 .35.22c.13.05.26.14.4.17.29.09.59.16.89.19.29.02.58.01.78-.02.22-.03.35-.05.35-.05l.08.08s-.08.09-.25.21c-.16.13-.42.29-.75.41-.34.12-.75.19-1.2.15-.44-.03-.92-.19-1.32-.47-.77-.57-1.28-1.44-1.37-2.15-.1-.72.16-1.18.14-1.17l.12.06zm4.75 3.01s.1.08.27.21c.15.11.38.27.61.43.24.15.51.3.77.43.13.07.28.11.4.18.13.06.27.1.4.14 0 .01.21.07.22.07.04.02.11.03.19.04.14.01.28.07.43.08.29.04.59.06.87.07.56 0 1.08-.07 1.08-.07l.08.08s-.08.08-.22.19c-.14.12-.36.27-.65.41-.57.28-1.47.45-2.31.2-.84-.26-1.48-.9-1.81-1.44-.17-.27-.28-.52-.34-.7s-.09-.28-.09-.28l.1-.04zm5.42 1.75s.1.07.28.18c.16.1.39.23.63.35.25.12.52.23.78.32.13.05.27.06.4.11.13.04.26.06.38.07.18.03.24.04.39.05.13-.01.27.02.41.01.28-.01.56-.03.84-.07.53-.09 1.02-.25 1.02-.25l.09.07s-.06.09-.18.22a3.139 3.139 0 0 1-1.51.98c-.38.11-.81.15-1.23.1-.85-.14-1.55-.7-1.92-1.19-.19-.25-.31-.48-.38-.65s-.1-.26-.1-.26l.1-.04zm-3.27-22.14s.11.1.29.26c.17.15.42.35.69.56.28.2.6.4.93.58.16.09.35.15.51.24.17.07.34.13.52.17.02.01.25.08.28.08.06.02.16.03.25.05.18.01.37.06.55.07.37.02.74.01 1.08-.02.34-.04.65-.09.88-.14.24-.05.37-.08.37-.08l.08.08s-.09.09-.26.24-.43.34-.77.51-.78.32-1.26.39-1.01.05-1.51-.09c-1.01-.29-1.8-1.05-2.21-1.69-.21-.32-.34-.62-.42-.83s-.11-.33-.11-.33l.11-.05zm8.97 1.86s.14.01.36.04c.21.03.52.08.83.15.32.05.65.1.97.12.16.02.33 0 .49.01s.36-.01.51-.01c.12 0 .22 0 .27-.01.07 0 .16-.02.23-.03.16-.02.31-.03.46-.07.14-.05.3-.06.44-.11s.28-.1.42-.16a6.903 6.903 0 0 0 .98-.57l.1.04s-.04.11-.13.28c-.09.18-.23.43-.46.69-.22.26-.54.52-.93.71s-.85.3-1.31.33c-.93.06-1.84-.26-2.4-.65-.57-.38-.9-.69-.9-.69l.07-.07zm-11.2 5.2s.11.1.29.26c.17.15.42.35.69.56.28.2.6.4.93.58.16.09.35.15.51.24.17.07.34.13.52.17.02.01.25.08.28.08.06.02.16.03.25.05.18.01.37.06.55.07.37.02.74.01 1.08-.02.34-.04.65-.09.88-.14.24-.05.37-.08.37-.08l.08.08s-.09.09-.26.24-.43.34-.77.51-.78.32-1.26.39-1.01.05-1.51-.09c-1.01-.29-1.8-1.05-2.21-1.69-.21-.32-.34-.62-.42-.83s-.11-.33-.11-.33l.11-.05zm5.23 9.93s.1.08.29.22c.16.12.41.29.66.45.27.16.56.31.85.45.15.07.31.11.45.18.15.06.3.1.45.13.01.01.23.06.25.06.05.01.13.02.21.03.16.01.32.05.48.05.32.02.65.01.96-.01.6-.05 1.14-.18 1.14-.18l.08.08s-.08.09-.23.22c-.15.14-.38.31-.68.48-.3.16-.69.31-1.12.39s-.91.07-1.36-.03c-.92-.23-1.65-.88-2.04-1.45-.2-.28-.33-.54-.4-.73-.08-.19-.11-.29-.11-.29l.12-.05zm-7.23-3.17s.1.1.27.29c.15.16.39.39.64.61.26.23.57.45.88.66.15.11.33.18.49.28.16.09.33.17.5.22.01.01.25.1.28.1.06.02.15.05.24.07.18.03.36.1.54.11.37.05.74.07 1.08.07.34-.01.65-.03.88-.07.24-.03.38-.05.38-.05l.07.09s-.1.09-.28.22-.46.3-.82.45c-.36.14-.8.26-1.29.28-.48.03-1.01-.05-1.5-.22-.98-.38-1.71-1.2-2.06-1.88-.18-.34-.29-.64-.35-.86s-.08-.34-.08-.34l.13-.03zm5.23 12.17s.1.08.29.22c.16.12.41.29.66.45.27.16.56.31.85.45.15.07.31.11.45.18.15.06.3.1.45.13.01.01.23.06.25.06.05.01.13.02.21.03.16.01.32.05.48.05.32.02.65.01.96-.01.6-.05 1.14-.18 1.14-.18l.08.08s-.08.09-.23.22c-.15.14-.38.31-.68.48-.3.16-.69.31-1.12.39s-.91.07-1.36-.03c-.92-.23-1.65-.88-2.04-1.45-.2-.28-.33-.54-.4-.73-.08-.19-.11-.29-.11-.29l.12-.05zm-7.23-2.17s.1.1.27.29c.15.16.39.39.64.61.26.23.57.45.88.66.15.11.33.18.49.28.16.09.33.17.5.22.01.01.25.1.28.1.06.02.15.05.24.07.18.03.36.1.54.11.37.05.74.07 1.08.07.34-.01.65-.03.88-.07.24-.03.38-.05.38-.05l.07.09s-.1.09-.28.22-.46.3-.82.45c-.36.14-.8.26-1.29.28-.48.03-1.01-.05-1.5-.22-.98-.38-1.71-1.2-2.06-1.88-.18-.34-.29-.64-.35-.86s-.08-.34-.08-.34l.13-.03zm3.64 4.7s.12.08.32.22c.19.12.47.29.76.46.31.16.65.31 1 .45.17.07.36.1.54.16.18.05.36.09.54.1.02.01.26.04.29.04.07.01.16.01.25.01.18-.01.37.02.56-.01.37-.03.73-.09 1.07-.17.33-.09.63-.18.85-.26.23-.09.36-.13.36-.13l.09.07s-.07.1-.22.27-.38.4-.7.62-.72.43-1.19.56c-.46.13-1 .18-1.51.12-1.04-.15-1.93-.79-2.43-1.37-.25-.29-.43-.56-.53-.76-.11-.2-.15-.31-.15-.31l.1-.07zm31.55 10.36s.28-.45.82-1.01 1.35-1.22 2.23-1.75c.89-.52 1.86-.92 2.61-1.11.75-.21 1.28-.23 1.28-.23s-.41.34-1.05.75c-.63.42-1.48.94-2.34 1.45-.86.5-1.72.99-2.4 1.34-.65.36-1.15.56-1.15.56zm6.12-.33s.37-.33.9-.74c.54-.42 1.23-.97 1.9-1.54.68-.56 1.34-1.15 1.85-1.6s.89-.75.89-.75-.1.48-.44 1.11c-.33.63-.93 1.4-1.66 2.01-.37.3-.76.58-1.16.79-.39.21-.77.38-1.12.49-.67.21-1.16.23-1.16.23zm5.85-.38s.07-.09.21-.24c.13-.14.32-.35.55-.6a22.313 22.313 0 0 0 2.78-3.74c.33-.56.58-.97.58-.97s.08.47-.04 1.16c-.05.35-.17.74-.34 1.15s-.42.81-.68 1.2c-.29.37-.61.72-.95 1s-.68.51-1 .66c-.65.33-1.11.38-1.11.38zm-15.58-1.14s.03-.13.11-.34c.07-.21.16-.5.28-.86a23.644 23.644 0 0 0 1.07-5.16c.07-.73.13-1.25.13-1.25s.27.45.45 1.22c.1.38.15.83.16 1.32s-.05 1.01-.14 1.53c-.12.51-.27 1.01-.48 1.46-.21.44-.43.84-.67 1.15-.49.63-.91.93-.91.93zm-1.04-2.45s-.16-.12-.39-.39-.52-.71-.71-1.3c-.2-.59-.31-1.31-.3-2.08.01-.39.04-.77.1-1.17.06-.39.13-.78.21-1.17.17-.77.35-1.51.48-2.21.12-.69.18-1.34.18-1.9-.01-.56-.08-1.03-.16-1.36s-.15-.52-.15-.52.14.14.33.44.42.77.55 1.37c.14.6.19 1.32.13 2.09-.05.76-.22 1.54-.37 2.3-.09.38-.17.75-.24 1.12-.06.36-.14.73-.18 1.07-.08.69-.09 1.34-.02 1.89.06.55.2 1.01.32 1.33.12.3.22.49.22.49z"/><linearGradient id="d" gradientUnits="userSpaceOnUse" x1="20.262" y1="69.25" x2="23.257" y2="69.588" gradientTransform="matrix(1 0 0 -1 0 130)"><stop offset="0" style="stop-color:#a47b62"/><stop offset=".575" style="stop-color:#ba8d68;stop-opacity:0"/></linearGradient><path style="fill:url(#d)" d="M23.89 62.88c-.59.12-1.13.35-1.58.78-.55.53-1.44.83-2.42.98l-.78.04.16-7.67s1.42 2.49 3.9 2.46l.72 3.41z"/><linearGradient id="e" gradientUnits="userSpaceOnUse" x1="13.504" y1="114.793" x2="26.062" y2="9.584" gradientTransform="matrix(1 0 0 -1 0 130)"><stop offset="0" style="stop-color:#a35b21"/><stop offset="1" style="stop-color:#7a2b00"/></linearGradient><path style="fill:url(#e)" d="M17.33 36.12c.25-.05.48-.1.58-.14 3.23-.6 5.04-3.34 4.73-7.1 0-.64-.13-1.38-.2-1.82-.02-.12-.03-.21-.04-.26l-1.01-3.92.34-.11c.24-.12.43-.34.51-.6.1-.32.03-.7-.19-1.06l-1.91-3.09c-.35-.57-.92-.64-1.3-.46-.18.08-.57.34-.58.99l-.02 3.64c0 .46.16.83.45 1.05.24.19.56.24.84.16l.11-.03.96 3.67c.17 1.47-.06 2.82-.65 3.8-.36.62-1.81 1.39-2.93 1.87l-1.91-11.84.3-.05c.27-.08.49-.27.6-.52.15-.31.13-.69-.04-1.08l-1.46-3.33c-.27-.62-.83-.77-1.23-.64-.18.06-.61.25-.71.9l-.53 3.59c-.07.45.04.85.3 1.11.22.22.53.32.81.28l.08-.01.97 12.01c-1.2-.12-2.81-.42-3.31-.93-.77-.78-1.35-2.15-1.53-3.6l.05-3.97.23-.01.13-.03c.27-.04.52-.2.67-.44.25-.38.18-.84.11-1.07l-.97-3.5c-.18-.64-.69-.85-1.12-.79-.19.03-.65.2-.83.82L6.6 23.15c-.13.44-.08.95.14 1.25.18.25.46.6.76.6h.11l-.05 3.69.01-.09c.01.05.01.14.02.25.03.45.08 1.2.23 1.78.59 3.77 2.98 5.98 6.2 5.81.15.02.34.03.57.02l9.72 85.31 2.75-.32-9.73-85.33z"/><path style="fill:#91674d" d="M83.69 84.36c.4-.48.86-.86 1.33-1.21.48-.34.97-.65 1.49-.92l.07-.04.05-.01c.29-.06.55-.08.85-.03.28.04.72.2.86.64.07.2.05.37.02.52-.04.13-.08.23-.12.34-.09.22-.19.44-.32.66-.09-.24-.12-.48-.16-.72-.02-.11-.02-.25-.04-.34-.02-.08-.04-.14-.07-.15-.04-.01-.1-.03-.27-.03-.15.01-.37.03-.52.07l.12-.05c-.5.3-1.03.55-1.57.78-.54.21-1.1.4-1.72.49z"/><linearGradient id="f" gradientUnits="userSpaceOnUse" x1="16.524" y1="102.142" x2="16.524" y2="59.909" gradientTransform="scale(1 -1) rotate(5.912 1278.61 1.884)"><stop offset=".264" style="stop-color:#ba8d68"/><stop offset="1" style="stop-color:#a47b62"/></linearGradient><path style="fill:url(#f)" d="M18.8 62.42c.2.74-.25 1.51-.99 1.71l-1.91.51c-.74.2-1.51-.25-1.71-.99-.2-.74.24-1.51.99-1.71l1.91-.51c.74-.21 1.51.24 1.71.99z"/><linearGradient id="g" gradientUnits="userSpaceOnUse" x1="16.023" y1="101.995" x2="16.023" y2="59.762" gradientTransform="scale(1 -1) rotate(5.445 1386.436 4.048)"><stop offset=".264" style="stop-color:#ba8d68"/><stop offset="1" style="stop-color:#a47b62"/></linearGradient><path style="fill:url(#g)" d="M18.65 60.29c.09.78-.45 1.47-1.23 1.56l-2.56.31c-.77.09-1.47-.45-1.56-1.23-.09-.78.45-1.47 1.23-1.56l2.56-.31c.76-.09 1.46.46 1.56 1.23z"/><linearGradient id="h" gradientUnits="userSpaceOnUse" x1="15.997" y1="101.516" x2="15.997" y2="59.284" gradientTransform="scale(1 -1) rotate(2.338 3204.81 6.538)"><stop offset=".264" style="stop-color:#ba8d68"/><stop offset="1" style="stop-color:#a47b62"/></linearGradient><path style="fill:url(#h)" d="M18.78 57.85v.11c.01.76-.59 1.38-1.35 1.4l-2.87.05c-.76.01-1.39-.59-1.4-1.35v-.11a1.38 1.38 0 0 1 1.35-1.4l2.87-.05c.77-.02 1.39.59 1.4 1.35z"/><linearGradient id="i" gradientUnits="userSpaceOnUse" x1="16.446" y1="100.71" x2="16.446" y2="58.477" gradientTransform="matrix(1 0 0 -1 0 130)"><stop offset=".264" style="stop-color:#ba8d68"/><stop offset="1" style="stop-color:#a47b62"/></linearGradient><path style="fill:url(#i)" d="M19.33 56.27c-.16.74-.88 1.22-1.63 1.07l-3.07-.64a1.49 1.49 0 0 1-.37-.14 1.39 1.39 0 0 1-.7-1.49c.16-.74.88-1.22 1.63-1.07l3.07.64c.75.15 1.22.88 1.07 1.63z"/><path style="fill:#91674d" d="M14.7 62.18c.52-.39 1.08-.56 1.65-.68.57-.09 1.16-.13 1.78.06-.52.4-1.08.57-1.65.68-.57.09-1.16.13-1.78-.06zm-.28-2.79c.55-.3 1.11-.37 1.67-.39.56.01 1.11.07 1.67.36-.55.3-1.11.38-1.67.39-.55 0-1.11-.07-1.67-.36zm3.45-1.93c-.67.14-1.29.06-1.89-.08-.6-.16-1.18-.37-1.71-.81.67-.14 1.29-.06 1.89.08.59.16 1.18.37 1.71.81z"/><path style="fill:#ba8d68" d="M15.49 57.95c-.48.93.7 1.72 1.37 1.79.67.07 1.1-.51 1.35-1.14.91-2.21 1.55-2.06 2.26-2.04.99.03 3.4.69 3.31-.65-.09-1.35-2.94-2.54-4.24-2.34-2.79.45-3.81 3.94-4.05 4.38z"/><path style="fill:#91674d" d="M23.16 59.47c-1.6.39-3.34-.8-3.93-2.34l-.06-.15-.03-.07c-.01-.03-.03-.06 0 0 .04.08.14.12.22.12.08.01.2-.1.21-.15l-.22.56c-.16.37-.32.72-.49 1.08-.3.66-.84 1.62-1.87 1.76-.96.13-2.01-.63-1.93-1.71.13-.82.36-1.59.77-2.3.79-1.4 2.17-2.49 3.72-2.69-1.54.34-2.73 1.53-3.29 2.9a7.8 7.8 0 0 0-.57 2.14c-.05.54.64 1.05 1.19.92.28-.04.55-.2.76-.44.22-.23.36-.56.54-.91.17-.34.33-.69.47-1.04l.22-.53c.04-.14.24-.32.42-.32.18-.02.37.08.47.24.05.1.05.12.06.13l.02.06.05.13c.25.67.68 1.27 1.23 1.72.28.22.61.39.95.52.35.14.71.19 1.09.37z"/><ellipse transform="rotate(-86.308 58.243 53.126)" style="fill:#91674d" cx="58.24" cy="53.12" rx=".88" ry=".75"/><ellipse transform="rotate(-86.308 72.785 53.137)" style="fill:#91674d" cx="72.78" cy="53.14" rx=".88" ry=".75"/><path style="fill:#613e31" d="M73.68 21.54s-.83-1.3-2.74-1.29c-1.91 0-2.74 1.3-2.74 1.3-.07.09-.11.21-.11.33 0 .31.25.57.57.57.07 0 .22-.05.24-.05 1.14-.48 2.04-.48 2.04-.48s.89 0 2.04.47c.01.01.17.05.24.05.31 0 .57-.25.57-.57a.719.719 0 0 0-.11-.33zm-11.9.03s-.83-1.3-2.74-1.29c-1.91 0-2.74 1.3-2.74 1.3-.07.09-.11.21-.11.33 0 .31.26.57.57.57.06 0 .22-.05.24-.05 1.15-.48 2.04-.48 2.04-.48s.89 0 2.04.47c.01.01.17.05.24.05.31 0 .57-.25.57-.57 0-.13-.04-.24-.11-.33z"/></svg>