<svg xmlns="http://www.w3.org/2000/svg" viewBox="0 0 128 128" style="enable-background:new 0 0 128 128" xml:space="preserve"><path style="fill:#ffca28" d="M77.49 31.28c.02 1.2-2.51 1.46-2.75 1.63-.27.2-.46.67-.66 1.24-.14.4-.3.88-.54 1.35l-.01.02c-.75 1.55-2.19 3.1-6.05 2.65-2.54-.29-2.79-.43-3.59-.5-1.6-.15-2.81 2.29-2.81 2.29s-2.79 5.76-6.87 3.59c-4.65-2.48-3.95-4.94-3.95-4.94s3.55-4.58 2.88-9.14a7.67 7.67 0 0 0-.19-.93c-.32-1.17-.52-2.66-.58-4.24-.02-.42-.03-.84-.03-1.27v-.01c0-2.08.2-4.26.58-6.14.29-1.55.72-2.91 1.24-3.86 0-.01.01-.01.01-.02.12-.2.24-.39.37-.55.07-.1.14-.18.21-.26.2-.21.4-.43.63-.63 3.21-3.01 8.42-4.8 12.75-4.02.57.1 1.12.24 1.66.45.38.14.74.29 1.08.46 4.64 2.19 6.57 6.53 6.39 11.44 0 .07-.01.13-.01.2-.01.29-.04.59-.07.87l-.03.31c-.17 1.39-.51 2.67-.93 3.62-.07.15-.6 1.24-.69 1.59-.47 1.33 1.94 3.21 1.96 4.8z"/><path style="fill:#795548" d="M74.09 34.15c-.14.4-.3.88-.54 1.35l-.01.02c-.92-.12-1.78-.51-2.44-1.23-.72-.79-.01-1.37.87-.78.49.33 1.38.59 2.12.64z"/><ellipse transform="rotate(-77.297 71.32 26.45)" style="fill:#404040" cx="71.32" cy="26.45" rx="1.88" ry="1.23"/><path style="fill:#6d4c41" d="M72.79 23.9c1.14.51 1.52-.23 1.22-.91-.22-.51-.89-.98-2.31-.9-1.34.08-1.98.75-2.39 1.17-.42.41-.44.87-.14.95.39.09 2.21-.94 3.62-.31z"/><radialGradient id="a" cx="50.523" cy="48.201" r="17.081" gradientTransform="translate(0 2)" gradientUnits="userSpaceOnUse"><stop offset=".364" style="stop-color:#651fff"/><stop offset=".812" style="stop-color:#5914f2"/><stop offset="1" style="stop-color:#530eeb"/></radialGradient><path style="fill:url(#a)" d="m36.1 65.44.59-2.34 7.95-16.9c1.67-3.55 4.62-8.05 9.23-9.33.88-.24 1.75-.37 2.59-.37 1.49 0 4.17.41 5.49 3.14l2.38 4.94-2.44 8.69-4.31 12.37-.42 1.79-21.06-1.99z"/><path style="fill:#7c7c7c" d="M35.13 72.23V69l1.43-5.47 21.41 2.76 15.82 3.06v2.88z"/><radialGradient id="b" cx="63.4" cy="42.36" r="40.429" gradientTransform="matrix(1 0 0 -.4605 0 105.147)" gradientUnits="userSpaceOnUse"><stop offset=".5" style="stop-color:#ff9800"/><stop offset=".765" style="stop-color:#fa8b00"/><stop offset=".995" style="stop-color:#f57c00"/></radialGradient><path style="fill:url(#b)" d="M7.61 73.15H119.2s-.13 17.86-10.14 24.98h-81.9c-.01 0-13.21-9.91-19.55-24.98z"/><path style="fill:#e65100" d="M124 72.14a4.517 4.517 0 0 1-4.52 4.5H8.51c-2.49 0-4.51-2.01-4.51-4.5s2.02-4.51 4.51-4.51H119.5c2.49 0 4.5 2.02 4.5 4.51z"/><path style="fill:#039be5" d="M3.99 93.58h120V124h-120z"/><path style="fill:#29b6f6" d="M124.01 85.38c-.01 0-.01.01-.02.01-2.64 0-4.84 6.03-10.66 6.03s-11.69-7.08-17.32-7.08c-5.65 0-8.96 6.2-14.67 7.08h-2.67c-5.71-.88-9.02-7.08-14.65-7.08-3.78 0-8.95 6.2-14.67 7.08h-2.67c-5.71-.88-9.02-7.08-14.65-7.08-5.64 0-8.95 6.2-14.67 7.08h-2.72c-4.22-.67-7.7-6.03-10.65-6.03v14.74H4v6.19c3.52-1.8 6.43-5.36 10.64-6.03h2.73c5.71.88 9.02 7.08 14.66 7.08s8.95-6.2 14.66-7.08h2.67c5.71.88 9.02 7.08 14.66 7.08 5.63 0 8.94-6.2 14.66-7.08h2.67c5.71.88 9.02 7.08 14.66 7.08 5.63 0 8.94-6.2 14.66-7.08h2.67c4.23.65 7.14 4.22 10.66 6.03v-6.19h.01V85.38z"/><path style="opacity:.2;fill:#3d3d3d;enable-background:new" d="m60.25 99.18 22.33-22.54 8.92-9.01h-9.35l-8.93 9.01-14.8 14.94z"/><path transform="rotate(-45.275 75.256 74.34)" style="fill:#ffa726" d="M50.76 71.02h49v6.65h-49z"/><path style="fill:#ea960f" d="m90.4 63.8-8.87-.48 9.86-10.24 5.26 4.29z"/><path style="fill:#ffd54f" d="M60.79 88.84a8.138 8.138 0 0 0-5.76-2.37c-2.11 0-4.22.81-5.82 2.43l-8.97 9.05c-3.18 3.21-3.16 8.4.06 11.58a8.172 8.172 0 0 0 5.76 2.37c2.11 0 4.22-.81 5.82-2.43l8.97-9.05c3.19-3.21 3.16-8.4-.06-11.58z"/><linearGradient id="c" gradientUnits="userSpaceOnUse" x1="70.022" y1="82.178" x2="87.743" y2="72.271" gradientTransform="matrix(1 0 0 -1 0 128)"><stop offset="0" style="stop-color:#ffb300"/><stop offset=".5" style="stop-color:#ffca28"/></linearGradient><path style="fill:url(#c)" d="M98.72 53.62c-.4-.5-1.89-1.06-2.5-1.28.04-.33-.04-.67-.27-.94l-1.39-1.7c-.17-.21-.4-.33-.64-.4-.11-.04-.22-.06-.34-.07-.04 0-.08-.01-.13-.01h-.03c-.07 0-.14.01-.2.03-.13.02-.25.06-.37.13 0 0-.01 0-.01.01h-.01s-.01 0-.01.01l-3.46 2.13-.26.16-11.68-.4-10.75-7.46c-.08-.05-.68-.47-.68-.47l-4.23 6.09h.01l12.08 8.39c.06.05.12.08.18.12.06.05.13.09.19.13.12.08.25.14.37.2l.27.12c.1.04.21.07.31.1.12.04.25.08.38.1.03.01.06 0 .08.01.19.03.38.06.58.06.03 0 .07-.01.1-.01h.04v.01l9.86.34-.02.06v.02s4.69 3.24 6.94 3.54c.42.1 1.13.26 1.76.26.5 0 .95-.1 1.15-.38.2-.28.08-.9.18-1.07.25-.43.88-.39 1.16-.96.04-.08.05-.18.06-.29.02-.32-.07-.75-.13-1.03-.03-.24.16-.57.37-.66.48-.2.72-.39.85-.79.04-.11.06-.22.06-.34.03-.32-.06-.65-.21-.96a.907.907 0 0 1-.1-.33c-.04-.34.07-.71.34-.9.2-.14.37-.48.36-.86-.01-.24-.08-.49-.26-.71z"/><path style="fill:#3615af" d="M61.56 37.8a5.783 5.783 0 0 0-3.39-1.1 5.809 5.809 0 0 0-3.41 10.52l9.64 6.95 6.8-9.42-9.64-6.95z"/><path style="fill:#543930" d="M39.76 24.7c1.28-8.11-2.47-13.89 3.9-19.12 4.19-3.45 10.65-.42 11.53 1.39 1.72 3.5-2.75 5.49-3.95 6.83-1.78 1.98-1.08 11.62-6.39 17.37-7.19 7.79-12.53 5.32-12.53 5.32s6.22-3.98 7.44-11.79z"/><radialGradient id="d" cx="-172.144" cy="128.554" r="15.057" gradientTransform="matrix(-.9543 -.2988 .3613 -1.1538 -161.925 117.092)" gradientUnits="userSpaceOnUse"><stop offset=".526" style="stop-color:#6d4c41;stop-opacity:0"/><stop offset="1" style="stop-color:#6d4c41"/></radialGradient><path style="fill:url(#d)" d="M40.06 20.86c.03-6.17-1.71-10.92 3.6-15.28 4.19-3.45 10.65-.42 11.53 1.39 1.72 3.5-2.75 5.49-3.95 6.83-1.77 1.98-11.18 7.06-11.18 7.06z"/><radialGradient id="e" cx="-158.358" cy="116.795" r="16.102" gradientTransform="matrix(.9352 .354 -.4368 1.1538 232.148 -49.567)" gradientUnits="userSpaceOnUse"><stop offset="0" style="stop-color:#6d4c41"/><stop offset=".526" style="stop-color:#6d4c41;stop-opacity:0"/></radialGradient><path style="fill:url(#e)" d="M39.76 24.7c.32-2.03.33-4.07.23-6.12-.08-1.82-.25-3.38 1.18-4.75 2.26-2.17 6-2.58 8.68-.95.81.49 1.25 1.04.96 1.91-.21.63-.46 1.18-.6 1.85-.31 1.5-.55 3.02-.87 4.52-.77 3.6-1.96 7.27-4.5 10.02-7.19 7.79-12.53 5.32-12.53 5.32s6.23-3.99 7.45-11.8z"/><radialGradient id="f" cx="-165.201" cy="126.29" r="8.83" gradientTransform="matrix(.9341 .3571 -1.1391 2.9792 339.716 -296.137)" gradientUnits="userSpaceOnUse"><stop offset=".526" style="stop-color:#6d4c41;stop-opacity:0"/><stop offset="1" style="stop-color:#6d4c41"/></radialGradient><path style="fill:url(#f)" d="M37.76 36.27s7.1-2.58 10-9.75c1.16-2.87 1.69-5.38 1.94-7.08.22-1.49.23-6.48 1.76-7.88"/><path style="fill:#543930" d="M54.5 9.27c3.1-2.56 7.55-3.72 11.91-3.09 3.79.55 8.76 2.47 11.33 6.21 1.54 2.25 2.19 4.95 1.34 7.64-.51 1.61-2.03 2.2-2.03 2.2s-.83-4.07-4.86-3.86c-4.23.22-5.83-.94-5.83-.94.74 3.47-.8 4.99-2.05 5.79-.71.46-1.4 1.03-1.79 1.36-.2.18-.34.14-.36-.1-.06-.55-.17-1.54-.31-2.02-.46-1.62-1.76-1.33-1.77-1.33-1.74.26-2.97 3.49-.68 5.97.06.06.22.22.05.53-1.71 3.19-5.75 2.53-5.97 2.36l-.01-.01c-.02-.01-.04-.03-.05-.04-.49-.35-.72-.86-.69-1.49.1-2.32-.75-3.16-1.27-4.28-.6-1.29-1.28-2.75-1.12-6.39.15-3.43 1.59-6.38 4.16-8.51z"/><radialGradient id="g" cx="-187.486" cy="132.73" r="13.707" gradientTransform="rotate(-169.035 -66.874 63.774)" gradientUnits="userSpaceOnUse"><stop offset=".526" style="stop-color:#6d4c41;stop-opacity:0"/><stop offset="1" style="stop-color:#6d4c41"/></radialGradient><path style="fill:url(#g)" d="M54.5 9.27c3.1-2.56 7.55-3.72 11.91-3.09 3.79.55 8.76 2.47 11.33 6.21 1.54 2.25 2.19 4.95 1.34 7.64-.51 1.61-2.03 2.2-2.03 2.2s-.83-4.07-4.86-3.86c-4.23.22-5.83-.94-5.83-.94.74 3.47-.8 4.99-2.05 5.79-.71.46-1.4 1.03-1.79 1.36-.2.18-.34.14-.36-.1-.06-.55-.17-1.54-.31-2.02-.46-1.62-1.76-1.33-1.77-1.33-1.74.26-2.97 3.49-.68 5.97.06.06.22.22.05.53-1.71 3.19-5.75 2.53-5.97 2.36l-.01-.01c-.02-.01-.04-.03-.05-.04-.49-.35-.72-.86-.69-1.49.1-2.32-.75-3.16-1.27-4.28-.6-1.29-1.28-2.75-1.12-6.39.15-3.43 1.59-6.38 4.16-8.51z"/></svg>