<svg xmlns="http://www.w3.org/2000/svg" viewBox="0 0 128 128" style="enable-background:new 0 0 128 128" xml:space="preserve"><path style="fill:#ba8d68" d="M102.27 34.74c-27.05 0-31.37 19.51-31.37 47.59 0 23.97 10.35 39.27 28.5 41.22 9.35 1 17.91-.79 24.6-5.64V40.6c-5.31-3.77-12.38-5.86-21.73-5.86z"/><path style="fill:#613e31" d="M72.9 77.19c3.34-4.73 11.18-4.89 15.1-.86.68.7 1.4 1.61.89 2.62-.57 1.12-1.73.94-2.69.55-2.55-1.03-5.17-1.49-7.91-.93-1.18.24-2.2.73-3.32 1.13-1.5.53-3.05-1.05-2.07-2.51zm47.23 2.52c-2.34-1.02-4.71-1.6-7.29-1.31-1.17.13-2.32.44-3.42.87-.87.34-1.81.9-2.7.29-2.57-1.77 1.99-4.65 3.32-5.23 2.9-1.25 6.35-1.14 9.15.32 1.11.58 2.32 1.42 2.98 2.52.82 1.37-.42 3.2-2.04 2.54z"/><path style="fill:#49362e" d="M108.65 85.64c-.67-.79-1.07-.16-1.2.36-.45 1.76.25 4.54 3.47 5.43 4.36 1.2 8.76-1.42 9.25-4.98.06-.44-.43-.77-.82-.55-1.31.72-2.93 2.23-6.3 1.88-3.28-.33-3.68-1.29-4.4-2.14zm-32.85 0c-.67-.79-1.07-.16-1.2.36-.45 1.76.25 4.54 3.47 5.43 4.36 1.2 8.76-1.42 9.25-4.98.06-.44-.43-.77-.82-.55-1.31.72-2.93 2.23-6.3 1.88-3.28-.33-3.68-1.29-4.4-2.14z"/><path style="fill:#5d4037" d="M91.65 114.85c-3.02.38-8.02-2.23-6.91-5.19.42-1.12 2.1-1.45 2.1-1.45s-2.76-3.12-1.34-4.76c1.91-2.21 5.07-.59 7.43-1.27.48-.14.99-.36 1.46-.2-.2.94-.76 1.62-1.95 2.04-1.34.47-2.8.2-3.54.83-.76.66-.11 1.59.87 2.17 1.39.82 3.47 1.24 3.37 1.9-.11.72-2.49.8-3.02.95-.48.14-1.18.32-1.39.83-.38.89.93 1.85 1.6 2.25.74.44 2.61.93 2.68.99.14.12.11.37-.02.51-.13.15-1.05.36-1.34.4z"/><path style="fill:#99674f" d="M89.65 93.53c.11-.04.22-.07.33-.09h7.33c.11.01.22.04.33.09.66.27 1.03.96.72 1.69-.31.73-1.77 2.79-4.71 2.79s-4.4-2.06-4.71-2.79c-.31-.73.05-1.42.71-1.69z"/><path style="fill:#543930" d="M106.04 28.41H106c-47.64.25-37.88 54.66-37.88 54.66s.61 3.94 1.53 5.65c1.1 2.06 1.85 2.81 1.92 1.64.07-1.16.01-19.44 1.85-24.35 1.09-2.89 4.08-4.56 7.12-4.02 7.58 1.35 9.78 1.28 14.5 1.32 8.41.07 18.46-.98 23.13-1.83 2.2-.4 4.38.39 5.82 1.94v-31.6c-4.78-2.1-10.68-3.37-17.95-3.41z"/><radialGradient id="a" cx="106.704" cy="74.359" r="39.619" gradientTransform="matrix(.9998 -.0217 .0243 1.1197 -1.78 -6.584)" gradientUnits="userSpaceOnUse"><stop offset=".668" style="stop-color:#6d4c41;stop-opacity:0"/><stop offset="1" style="stop-color:#6d4c41"/></radialGradient><path style="fill:url(#a)" d="M106.04 28.41H106c-47.64.25-37.88 54.66-37.88 54.66s.61 3.94 1.53 5.65c1.1 2.06 1.85 2.81 1.92 1.64.07-1.16.01-19.44 1.85-24.35 1.09-2.89 4.08-4.56 7.12-4.02 7.58 1.35 10.91 1.32 15.63 1.25 9.75-.13 17.32-.91 21.99-1.76 2.2-.4 4.38.39 5.82 1.94v-31.6c-4.77-2.1-10.67-3.37-17.94-3.41z"/><path style="fill:#f9ddbd" d="M25.73 34.74c27.05 0 31.37 19.51 31.37 47.59 0 23.97-10.35 39.27-28.5 41.22-9.35 1-17.91-.79-24.6-5.64V40.6c5.31-3.77 12.38-5.86 21.73-5.86z"/><path style="fill:#454140" d="M55.1 77.19c-3.34-4.73-11.18-4.89-15.1-.86-.68.7-1.4 1.61-.89 2.62.57 1.12 1.73.94 2.69.55 2.55-1.03 5.17-1.49 7.91-.93 1.18.24 2.2.73 3.32 1.13 1.5.53 3.05-1.05 2.07-2.51zM7.87 79.71c2.34-1.02 4.71-1.6 7.29-1.31 1.17.13 2.32.44 3.42.87.87.34 1.81.9 2.7.29 2.57-1.77-1.99-4.65-3.32-5.23-2.9-1.25-6.35-1.14-9.15.32-1.11.58-2.32 1.42-2.98 2.52-.82 1.37.42 3.2 2.04 2.54z"/><path style="fill:#312d2d" d="M19.35 85.64c.67-.79 1.07-.16 1.2.36.45 1.76-.25 4.54-3.47 5.43-4.36 1.2-8.76-1.42-9.25-4.98-.06-.44.43-.77.82-.55 1.31.72 2.93 2.23 6.3 1.88 3.28-.33 3.68-1.29 4.4-2.14zm32.85 0c.67-.79 1.07-.16 1.2.36.45 1.76-.25 4.54-3.47 5.43-4.36 1.2-8.76-1.42-9.25-4.98-.06-.44.43-.77.82-.55 1.31.72 2.93 2.23 6.3 1.88 3.28-.33 3.68-1.29 4.4-2.14z"/><path style="fill:#444" d="M36.35 114.85c3.02.38 8.02-2.23 6.91-5.19-.42-1.12-2.1-1.45-2.1-1.45s2.76-3.12 1.34-4.76c-1.91-2.21-5.07-.59-7.43-1.27-.48-.14-.99-.36-1.46-.2.2.94.76 1.62 1.95 2.04 1.34.47 2.8.2 3.54.83.76.66.11 1.59-.87 2.17-1.39.82-3.47 1.24-3.37 1.9.11.72 2.49.8 3.02.95.48.14 1.18.32 1.39.83.38.89-.93 1.85-1.6 2.25-.74.44-2.61.93-2.68.99-.14.12-.11.37.02.51.13.15 1.05.36 1.34.4z"/><path style="fill:#dba689" d="M38.35 93.53c-.11-.04-.22-.07-.33-.09h-7.33c-.11.01-.22.04-.33.09-.66.27-1.03.96-.72 1.69.31.73 1.77 2.79 4.71 2.79s4.4-2.06 4.71-2.79c.31-.73-.05-1.42-.71-1.69z"/><path style="fill:#312d2d" d="M21.96 28.41H22c47.64.25 37.88 54.66 37.88 54.66s-.61 3.94-1.53 5.65c-1.1 2.06-1.85 2.81-1.92 1.64-.07-1.16-.01-19.44-1.85-24.35-1.09-2.89-4.08-4.56-7.12-4.02-7.58 1.35-9.78 1.28-14.5 1.32-8.41.07-18.46-.98-23.13-1.83-2.2-.4-4.38.39-5.82 1.94v-31.6c4.78-2.1 10.68-3.37 17.95-3.41z"/><radialGradient id="b" cx="1218.284" cy="71.24" r="38.083" gradientTransform="matrix(-.9998 -.0217 -.0243 1.1197 1241.694 17.896)" gradientUnits="userSpaceOnUse"><stop offset=".668" style="stop-color:#454140;stop-opacity:0"/><stop offset="1" style="stop-color:#454140"/></radialGradient><path style="fill:url(#b)" d="M21.96 28.41H22c47.64.25 37.88 54.66 37.88 54.66s-.61 3.94-1.53 5.65c-1.1 2.06-1.85 2.81-1.92 1.64-.07-1.16-.01-19.44-1.85-24.35-1.09-2.89-4.08-4.56-7.12-4.02-7.58 1.35-10.91 1.32-15.63 1.25-9.75-.13-17.32-.91-21.99-1.76-2.2-.4-4.38.39-5.82 1.94v-31.6c4.77-2.1 10.67-3.37 17.94-3.41z"/><path style="fill:#ef5592" d="M78.41 3.74C67.87 3.74 64 14.5 64 14.5S60.18 3.74 49.57 3.74c-7.97 0-17.07 6.32-13.71 20.68 3.36 14.36 28.16 32.26 28.16 32.26s24.72-17.9 28.08-32.26c3.36-14.36-5.08-20.68-13.69-20.68z"/><path style="fill:#da2e75" d="M47.94 4.81c8.27 0 12.38 8.89 13.71 12.5.19.51.91.53 1.12.03l1.21-2.83c-1.71-5.45-6.4-10.77-14.41-10.77-3.32 0-6.82 1.1-9.55 3.41 2.4-1.59 5.23-2.34 7.92-2.34zm30.47-1.07c-2.55 0-4.7.74-6.51 1.85 1.27-.49 2.68-.78 4.23-.78 7.8 0 14.77 5.91 11.62 19.58-2.7 11.73-18.5 25.96-23.32 31.39-.31.35-.41.91-.41.91s24.72-17.9 28.08-32.26c3.36-14.37-5.72-20.69-13.69-20.69z"/><path style="fill:#f386ab" d="M41.4 11.36c1.8-2.25 5.03-4.11 7.76-1.97 1.48 1.16.83 3.54-.49 4.54-1.93 1.46-3.6 2.34-4.77 4.63-.7 1.38-1.13 2.88-1.34 4.42-.08.61-.88.75-1.18.22-2.04-3.6-2.61-8.55.02-11.84zm28.91 4.73c-.85 0-1.44-.82-1.13-1.61a19.31 19.31 0 0 1 2.2-4.11c1.32-1.85 3.82-2.92 5.41-1.81 1.63 1.15 1.42 3.43.27 4.54-2.45 2.39-5.53 2.99-6.75 2.99z"/></svg>