<svg xmlns="http://www.w3.org/2000/svg" viewBox="0 0 128 128" style="enable-background:new 0 0 128 128" xml:space="preserve"><path style="fill:#9c7866" d="M53.11 72.74s6.51-9.54 8.63-12.61c3.05-4.4 7.73-10.13 9.53-12.38S76 41.22 79 41.37c3 .15 3.84 3.18 4.13 4.43.53 2.25 2.7 10.96 3.9 17.86 1.2 6.9 3.15 18.76 3.15 18.76l-5.33-1.88s-4.4-16.68-5.25-20.86c-1-4.9-.58-6.4-1.2-7.2-.61-.78-4.41 7.27-6 10.06-3.6 6.3-6.68 11.03-6.68 11.03l-12.61-.83z"/><path style="fill:#ba967d" d="M25.86 63.3c-.47 0-.89-.31-1.03-.78-.03-.1-2.93-10.23-11.58-23.57-5.31-8.2-12.1-15.07-12.17-15.14-.41-.42-.41-1.09.01-1.51.42-.41 1.09-.41 1.51.01.07.07 7.01 7.1 12.45 15.48 8.84 13.64 11.72 23.74 11.84 24.16.16.57-.17 1.15-.74 1.31-.09.03-.19.04-.29.04zm4.81-.3c-.55 0-1.01-.42-1.06-.98-.01-.08-.75-8.61-2.54-18.05-1.61-8.51-5.02-17.44-5.05-17.53a1.068 1.068 0 0 1 1.99-.77c.03.09 3.51 9.2 5.16 17.89 1.81 9.56 2.56 18.18 2.57 18.27.05.59-.39 1.1-.97 1.15-.04.02-.07.02-.1.02z"/><path style="fill:#6c4d42" d="m47.18 73.79 7.05-3s3.3-.9 8.86-1.65c5.55-.75 10.66-.6 10.66-.6l-1.35 4.8s14.56 2.55 20.41 4.05 10.36 4.8 10.36 4.8 4.63-.65 7.65-1.95c4.35-1.88 9.98-6.3 9.76-5.18-.24 1.19-1.95 2.78-2.85 3.68-.9.9-2.85 2.78-2.85 2.78s1.95-.23 3.3-.83c1.35-.6 4.01-1.92 3.75-1.2-.6 1.65-4.2 4.73-7.65 5.93-3.45 1.2-9.01 2.18-9.01 2.18s.04 2.64-2.4 5.85c-2.85 3.75-12.76 8.41-24.32 7.65-11.56-.74-28.55-4.14-34.45-10.04-3-3-5.4-3.6-5.4-3.6s-3.3 5.4-9.98 5.55c-4.95.11-10.73-6.15-11.33-12.08-.78-7.61 29.79-7.14 29.79-7.14z"/><path style="fill:#52352a" d="M37.12 84.15s.83 3.08 4.35 5.7 11.08-2.66 12.76-11.11c1.35-6.8.15-8 .15-8s-2.85-4.15-9.83-5.43c-4.32-.79-7.65.08-7.65.08l.22 18.76z"/><path style="fill:#52352a" d="M74.57 69.59c-.38 1.06-3.03 7.67-6.9 10.28-3.9 2.63-8.26 3.98-12.68 3.9-4.43-.08-5.03-1.73-5.03-1.73l1.43-.38s6.7.05 10.91-1.83 6.58-3.62 8.61-6.5c1.43-2.03 2.1-3.6 2.7-4.58.39-.64 1.34-.21.96.84z"/><path style="fill:#b99680" d="M24.48 91.69s1.35.75 2.63 1.05c1.28.3 2.89.11 2.89.11s-3.83 5.7-4.88 7.35-3.38 4.04-4.88 4.49c-1.1.33-3.96.34-5.7.23-2.25-.15-5.18-.3-5.4-1.65-.13-.77.2-3.26 3.83-3.45 2.85-.15 4.58 1.65 5.03 1.2 1.04-1.06 6.48-9.33 6.48-9.33z"/><path style="fill:#040000" d="M16.93 69.29c-1.2-1.58-4.35-1.28-4.35 2.4 0 4.13 1.99 5.37 3.3 5.85 1.43.53 1.65-5.48 1.65-5.48s.6-1.19-.6-2.77z"/><path style="fill:#b99680" d="M28.12 58.49c-1.8 0-7.98.37-11.18 5.93-2.55 4.43-2.07 10.96-1.35 14.71.75 3.9 3.94 12.45 12.83 12.38 9.98-.08 18.29-19.6 8.93-29.64-3.08-3.31-7.43-3.38-9.23-3.38z"/><path style="fill:#020200" d="M32.8 70.34c-1.79-1.96-6.5-1.78-7.88 2.6-1.01 3.19.81 7.46 4.03 7.46 3.85 0 7.37-6.21 3.85-10.06z"/><path style="fill:#865e53" d="M44.51 66.66c-2.08.74-.67 3.39-.81 4.52-.14 1.13-1.18 2.95.54 3.9 1.98 1.08 4.53-.92 4.51-4.08s-2.08-5.11-4.24-4.34z"/><path style="fill:#b99680" d="M44.63 85.5c-2.07-1.18-4.8-.98-6.9 3.08-2.1 4.05-6.23 13.88-7.43 16.36-1.2 2.48-3.73 7.16-4.5 7.49-.53.23-1.43-1.95-5.4-1.58-3.98.38-6.08 4.8-4.8 5.33 1.28.53 4.05.6 7.05.53 2.7-.07 5.93-.3 6.83-.98.9-.68 4.53-5.2 6.6-8.61 3.15-5.18 6.68-11.26 8.33-14.48.86-1.72 2.84-5.64.22-7.14zm10.75 7.86c1.34 2 4.43 3.93 13.81-1.8 10.03-6.13 22.66-25.54 23.61-26.77 1.35-1.73 2.44-3.45 2.85-3 .55.6.53 3.68 1.58 7.05.87 2.78 6.55 20.38 7.23 22.56 1.25 4 4.46 15.81 5.53 17.02 1.2 1.35 4.65.68 7.08 1.38 2.07.6 5 2 6.2 1.2s.98-4.6-5.3-6.3c-4.38-1.19-4.53-.78-4.53-.78s-10.68-44.71-11.93-49.11c-1.22-4.3-1.88-4.8-3.15-4.88-2.71-.16-11.16 8.96-14.56 12.46S72.17 75.17 61.51 82.8c-1.63 1.17-8.33 7.28-6.13 10.56z"/><path style="fill:#d4785d" d="M100.81 53.63c-.26 0-.52-.13-.67-.36a.804.804 0 0 1 .23-1.11l2.9-1.9c.37-.24.87-.14 1.11.23.24.37.14.87-.23 1.11l-2.9 1.9c-.14.09-.29.13-.44.13zm.8 4c-.32 0-.62-.19-.74-.51-.16-.41.04-.88.45-1.04l4.1-1.6c.41-.16.87.04 1.03.45.16.41-.04.88-.45 1.04l-4.1 1.6c-.09.05-.19.06-.29.06zm1.1 4.01c-.36 0-.68-.24-.77-.61-.11-.43.15-.86.58-.97l4-1c.42-.1.86.15.97.58.11.43-.15.86-.58.97l-4 1c-.07.02-.13.03-.2.03zM81.1 43.43a.79.79 0 0 1-.62-.3.795.795 0 0 1 .12-1.12l2.6-2.1c.34-.28.85-.23 1.13.12.28.34.22.85-.12 1.12l-2.6 2.1c-.16.12-.33.18-.51.18zm1.7 3.4a.798.798 0 0 1-.24-1.56l3.8-1.2a.798.798 0 0 1 .48 1.52l-3.8 1.2c-.08.03-.16.04-.24.04zm1.2 3.9a.798.798 0 0 1-.08-1.59l3.7-.4c.43-.04.83.27.88.71.05.44-.27.83-.71.88l-3.7.4H84z"/><path style="fill:#9c7866" d="M45.38 90.56c.46 2.54 6.9 1.2 9.41.3 2.15-.77 6-2.7 7.4-2.5 1.4.2 7.2 11.01 8.41 13.41 1.2 2.4 4.5 8.51 5.4 10.16.79 1.45 1.7 3.15 3.3 3.65 1.6.5 3.15 1.25 4.65 1.83 1.48.57 4.38 3.59 6.23 2.03 1.95-1.65-.35-4.05-1.35-4.95-1-.9-2.17-1.75-4.05-2.4-2.18-.75-3.28-1.08-3.68-1.28-.4-.2-7.22-15.17-9.31-19.34-1.7-3.4-4.1-8.71-5.6-9.81-1.5-1.1-12.41 1.3-13.51 1.8s-1.63 1.66-3.9 3.5c-1.6 1.29-3.6 2.49-3.4 3.6z"/></svg>