<svg xmlns="http://www.w3.org/2000/svg" viewBox="0 0 128 128" style="enable-background:new 0 0 128 128" xml:space="preserve"><path style="fill:#a06841" d="m121.37 116.03-6.67 5.77c-2.57 2.22-6.47 1.93-8.67-.65L26.96 25.71l10.17-7.65 84.75 89.38a6 6 0 0 1-.51 8.59z"/><path style="fill:#7d5133" d="m34.19 34.43 18.82 22.72c2.93-4.42 4.43-9.72 5.63-16.41L40.47 21.58a16.545 16.545 0 0 0-3.71 4.29c-1.55 2.59-2.36 5.54-2.57 8.56z"/><path style="fill:#82aec0" d="M71.49 4.73c-17.27-.2-23.66 1.33-33.28 9.64-2.88 2.49-5.77 4.98-8.65 7.47-3.14 2.71-7.31 5.07-6.65 9.76.24 1.71.77 3.44.45 5.14-.31 1.6-2.17 2.4-3.5 1.49-1.24-.86-2.62-1.91-4.15-2.09-1.44-.16-2.95.29-4.03 1.25l-6.69 5.95s-.96 3.89 6.53 12.37 12.31 7.87 12.31 7.87l6.29-5.53c1.06-.93 1.6-2.29 1.58-3.7-.03-1.64-.99-2.91-1.56-4.39-.11-.28-.74-1.28.36-2.18.98-.85 2.99-.56 4.13-.25 1.15.31 2.24.8 3.4 1.1 2.25.59 3.3-.46 4.87-1.81 1.38-1.2 9.72-8.4 12.5-10.8 5.55-4.8-2.91-13.2-2.91-13.2-4-4.5 20.17-15.84 20.17-15.84 1.76-.63 1.22-2.22-1.17-2.25z"/><path style="fill:#2f7889" d="M38.02 48.63c.47.12.88.16 1.26.15v-.19c-.1-1.08-.69-2.05-1.28-2.95a64.488 64.488 0 0 0-13.69-15c-.44-.35-.9-.7-1.37-1-.1.61-.12 1.26-.02 1.97.24 1.71.77 3.44.45 5.14-.34 1.75-2.17 2.24-3.58 1.58 3.65 2.36 6.79 5.51 9.06 9.21.31.5.62 1.03.98 1.5.05-.49.27-.95.68-1.26.98-.85 2.99-.56 4.13-.25 1.13.31 2.23.8 3.38 1.1zm-20.59 2.11c5.24 5.48 8.19 11.17 6.59 12.71-1.61 1.54-7.16-1.66-12.41-7.14S3.38 44.89 4.98 43.35s7.21 1.91 12.45 7.39z"/><path style="fill:#b9e4ea" d="M37.85 22.4c4.17-1.78 7.89-5.58 12.74-9.77 1.39-1.2 3.15-2.33 4.95-3.18.67-.32.43-1.34-.32-1.32-2.5.04-4.73.8-6.92 1.75-3.07 1.33-5.77 3.36-8.39 5.44-1.79 1.43-6 4.98-8.65 7.22-.49.42-.11 1.07.54 1.08 1.88.01 2.93.11 6.05-1.22zM11.57 39.81c-1.76 1.98.48 2.52 4.44 5.79 2.79 2.31 5.75.17 5.78-1.99.02-1.94-.46-2.98-3.29-4.76-2.82-1.78-5.33-.84-6.93.96z"/></svg>