<svg xmlns="http://www.w3.org/2000/svg" viewBox="0 0 128 128" style="enable-background:new 0 0 128 128" xml:space="preserve"><path style="fill:#e0e0e0" d="M119.56 124H8.45c-2.45 0-4.44-1.99-4.44-4.44V8.44C4.01 5.99 6 4 8.45 4h111.11c2.45 0 4.44 1.99 4.44 4.44v111.12c0 2.45-1.99 4.44-4.44 4.44z"/><path style="fill:#751c00" d="M39.65 17.91H5.91a1.9 1.9 0 0 1-1.9-1.9V7.28c0-1.05.85-1.9 1.9-1.9h33.74c1.05 0 1.9.85 1.9 1.9V16c0 1.05-.85 1.91-1.9 1.91zm41.22 0H47.14a1.9 1.9 0 0 1-1.9-1.9V7.28c0-1.05.85-1.9 1.9-1.9h33.74c1.05 0 1.9.85 1.9 1.9V16a1.923 1.923 0 0 1-1.91 1.91zm41.23 0H88.36a1.9 1.9 0 0 1-1.9-1.9V7.28c0-1.05.85-1.9 1.9-1.9h33.74c1.05 0 1.9.85 1.9 1.9V16c0 1.05-.85 1.91-1.9 1.91zM39.65 53.27H5.91a1.9 1.9 0 0 1-1.9-1.9v-8.72c0-1.05.85-1.9 1.9-1.9h33.74c1.05 0 1.9.85 1.9 1.9v8.72a1.9 1.9 0 0 1-1.9 1.9zm41.22 0H47.14a1.9 1.9 0 0 1-1.9-1.9v-8.72c0-1.05.85-1.9 1.9-1.9h33.74c1.05 0 1.9.85 1.9 1.9v8.72c-.01 1.05-.86 1.9-1.91 1.9zm41.23 0H88.36a1.9 1.9 0 0 1-1.9-1.9v-8.72c0-1.05.85-1.9 1.9-1.9h33.74c1.05 0 1.9.85 1.9 1.9v8.72a1.9 1.9 0 0 1-1.9 1.9zM39.65 88.64H5.91a1.9 1.9 0 0 1-1.9-1.9v-8.72c0-1.05.85-1.9 1.9-1.9h33.74c1.05 0 1.9.85 1.9 1.9v8.72c0 1.04-.85 1.9-1.9 1.9zm41.22 0H47.14a1.9 1.9 0 0 1-1.9-1.9v-8.72c0-1.05.85-1.9 1.9-1.9h33.74c1.05 0 1.9.85 1.9 1.9v8.72a1.92 1.92 0 0 1-1.91 1.9zm41.23 0H88.36a1.9 1.9 0 0 1-1.9-1.9v-8.72c0-1.05.85-1.9 1.9-1.9h33.74c1.05 0 1.9.85 1.9 1.9v8.72c0 1.04-.85 1.9-1.9 1.9zM39.65 124H5.91a1.9 1.9 0 0 1-1.9-1.9v-8.72c0-1.05.85-1.9 1.9-1.9h33.74c1.05 0 1.9.85 1.9 1.9v8.72a1.9 1.9 0 0 1-1.9 1.9zm41.22 0H47.14a1.9 1.9 0 0 1-1.9-1.9v-8.72c0-1.05.85-1.9 1.9-1.9h33.74c1.05 0 1.9.85 1.9 1.9v8.72c-.01 1.05-.86 1.9-1.91 1.9zm41.23 0H88.36a1.9 1.9 0 0 1-1.9-1.9v-8.72c0-1.05.85-1.9 1.9-1.9h33.74c1.05 0 1.9.85 1.9 1.9v8.72a1.9 1.9 0 0 1-1.9 1.9zM19.52 23.06H4v12.53h15.52a1.9 1.9 0 0 0 1.9-1.9v-8.72c0-1.06-.85-1.91-1.9-1.91zm40.9 12.53H26.69a1.9 1.9 0 0 1-1.9-1.9v-8.72c0-1.05.85-1.9 1.9-1.9h33.74c1.05 0 1.9.85 1.9 1.9v8.72c-.01 1.05-.86 1.9-1.91 1.9zm40.9 0H67.59a1.9 1.9 0 0 1-1.9-1.9v-8.72c0-1.05.85-1.9 1.9-1.9h33.74c1.05 0 1.9.85 1.9 1.9v8.72c-.01 1.05-.86 1.9-1.91 1.9zm7.17-12.53a1.9 1.9 0 0 0-1.9 1.9v8.72c0 1.05.85 1.9 1.9 1.9H124V23.06h-15.51zM19.52 58.43H4v12.53h15.52a1.9 1.9 0 0 0 1.9-1.9v-8.72c0-1.06-.85-1.91-1.9-1.91zm40.9 12.52H26.69a1.9 1.9 0 0 1-1.9-1.9v-8.72c0-1.05.85-1.9 1.9-1.9h33.74c1.05 0 1.9.85 1.9 1.9v8.72c-.01 1.05-.86 1.9-1.91 1.9zm40.9 0H67.59a1.9 1.9 0 0 1-1.9-1.9v-8.72c0-1.05.85-1.9 1.9-1.9h33.74c1.05 0 1.9.85 1.9 1.9v8.72c-.01 1.05-.86 1.9-1.91 1.9zm7.17-12.52a1.9 1.9 0 0 0-1.9 1.9v8.72c0 1.05.85 1.9 1.9 1.9H124V58.43h-15.51zM19.52 93.79H4v12.53h15.52a1.9 1.9 0 0 0 1.9-1.9V95.7c0-1.06-.85-1.91-1.9-1.91zm40.9 12.53H26.69a1.9 1.9 0 0 1-1.9-1.9V95.7c0-1.05.85-1.9 1.9-1.9h33.74c1.05 0 1.9.85 1.9 1.9v8.72c-.01 1.05-.86 1.9-1.91 1.9zm40.9 0H67.59a1.9 1.9 0 0 1-1.9-1.9V95.7c0-1.05.85-1.9 1.9-1.9h33.74c1.05 0 1.9.85 1.9 1.9v8.72c-.01 1.05-.86 1.9-1.91 1.9zm7.17-12.53a1.9 1.9 0 0 0-1.9 1.9v8.72c0 1.05.85 1.9 1.9 1.9H124V93.79h-15.51z"/><path style="fill:#e04e2c" d="M39.65 16.53H5.91a1.9 1.9 0 0 1-1.9-1.9V5.9c0-1.05.85-1.9 1.9-1.9h33.74c1.05 0 1.9.85 1.9 1.9v8.72c0 1.05-.85 1.91-1.9 1.91z"/><path style="fill:#bf360c" d="M80.87 16.53H47.14a1.9 1.9 0 0 1-1.9-1.9V5.9c0-1.05.85-1.9 1.9-1.9h33.74c1.05 0 1.9.85 1.9 1.9v8.72a1.923 1.923 0 0 1-1.91 1.91z"/><path style="fill:#e04e2c" d="M122.1 16.53H88.36a1.9 1.9 0 0 1-1.9-1.9V5.9c0-1.05.85-1.9 1.9-1.9h33.74c1.05 0 1.9.85 1.9 1.9v8.72c0 1.05-.85 1.91-1.9 1.91zM39.65 51.89H5.91a1.9 1.9 0 0 1-1.9-1.9v-8.72c0-1.05.85-1.9 1.9-1.9h33.74c1.05 0 1.9.85 1.9 1.9v8.72a1.9 1.9 0 0 1-1.9 1.9zm41.22 0H47.14a1.9 1.9 0 0 1-1.9-1.9v-8.72c0-1.05.85-1.9 1.9-1.9h33.74c1.05 0 1.9.85 1.9 1.9v8.72c-.01 1.05-.86 1.9-1.91 1.9z"/><path style="fill:#bf360c" d="M122.1 51.89H88.36a1.9 1.9 0 0 1-1.9-1.9v-8.72c0-1.05.85-1.9 1.9-1.9h33.74c1.05 0 1.9.85 1.9 1.9v8.72a1.9 1.9 0 0 1-1.9 1.9z"/><path style="fill:#e04e2c" d="M39.65 87.26H5.91a1.9 1.9 0 0 1-1.9-1.9v-8.72c0-1.05.85-1.9 1.9-1.9h33.74c1.05 0 1.9.85 1.9 1.9v8.72c0 1.04-.85 1.9-1.9 1.9z"/><path style="fill:#bf360c" d="M80.87 87.26H47.14a1.9 1.9 0 0 1-1.9-1.9v-8.72c0-1.05.85-1.9 1.9-1.9h33.74c1.05 0 1.9.85 1.9 1.9v8.72a1.92 1.92 0 0 1-1.91 1.9z"/><path style="fill:#e04e2c" d="M122.1 87.26H88.36a1.9 1.9 0 0 1-1.9-1.9v-8.72c0-1.05.85-1.9 1.9-1.9h33.74c1.05 0 1.9.85 1.9 1.9v8.72c0 1.04-.85 1.9-1.9 1.9zm-82.45 35.36H5.91a1.9 1.9 0 0 1-1.9-1.9V112c0-1.05.85-1.9 1.9-1.9h33.74c1.05 0 1.9.85 1.9 1.9v8.72a1.9 1.9 0 0 1-1.9 1.9zm41.22 0H47.14a1.9 1.9 0 0 1-1.9-1.9V112c0-1.05.85-1.9 1.9-1.9h33.74c1.05 0 1.9.85 1.9 1.9v8.72c-.01 1.05-.86 1.9-1.91 1.9z"/><path style="fill:#bf360c" d="M122.1 122.62H88.36a1.9 1.9 0 0 1-1.9-1.9V112c0-1.05.85-1.9 1.9-1.9h33.74c1.05 0 1.9.85 1.9 1.9v8.72a1.9 1.9 0 0 1-1.9 1.9zM19.52 21.68H4v12.53h15.52a1.9 1.9 0 0 0 1.9-1.9v-8.72c0-1.06-.85-1.91-1.9-1.91z"/><path style="fill:#e04e2c" d="M60.42 34.21H26.69a1.9 1.9 0 0 1-1.9-1.9v-8.72c0-1.05.85-1.9 1.9-1.9h33.74c1.05 0 1.9.85 1.9 1.9v8.72c-.01 1.05-.86 1.9-1.91 1.9z"/><path style="fill:#ff7043" d="M101.32 34.21H67.59a1.9 1.9 0 0 1-1.9-1.9v-8.72c0-1.05.85-1.9 1.9-1.9h33.74c1.05 0 1.9.85 1.9 1.9v8.72c-.01 1.05-.86 1.9-1.91 1.9z"/><path style="fill:#e04e2c" d="M108.49 21.68a1.9 1.9 0 0 0-1.9 1.9v8.72c0 1.05.85 1.9 1.9 1.9H124V21.68h-15.51zM19.52 57.05H4v12.53h15.52a1.9 1.9 0 0 0 1.9-1.9v-8.72c0-1.06-.85-1.91-1.9-1.91z"/><path style="fill:#ff7043" d="M60.42 69.57H26.69a1.9 1.9 0 0 1-1.9-1.9v-8.72c0-1.05.85-1.9 1.9-1.9h33.74c1.05 0 1.9.85 1.9 1.9v8.72c-.01 1.05-.86 1.9-1.91 1.9z"/><path style="fill:#e04e2c" d="M101.32 69.57H67.59a1.9 1.9 0 0 1-1.9-1.9v-8.72c0-1.05.85-1.9 1.9-1.9h33.74c1.05 0 1.9.85 1.9 1.9v8.72c-.01 1.05-.86 1.9-1.91 1.9zm7.17-12.52a1.9 1.9 0 0 0-1.9 1.9v8.72c0 1.05.85 1.9 1.9 1.9H124V57.05h-15.51z"/><path style="fill:#bf360c" d="M19.52 92.41H4v12.53h15.52a1.9 1.9 0 0 0 1.9-1.9v-8.72c0-1.06-.85-1.91-1.9-1.91z"/><path style="fill:#e04e2c" d="M60.42 104.94H26.69a1.9 1.9 0 0 1-1.9-1.9v-8.72c0-1.05.85-1.9 1.9-1.9h33.74c1.05 0 1.9.85 1.9 1.9v8.72c-.01 1.05-.86 1.9-1.91 1.9zm40.9 0H67.59a1.9 1.9 0 0 1-1.9-1.9v-8.72c0-1.05.85-1.9 1.9-1.9h33.74c1.05 0 1.9.85 1.9 1.9v8.72c-.01 1.05-.86 1.9-1.91 1.9z"/><path style="fill:#ff7043" d="M108.49 92.41a1.9 1.9 0 0 0-1.9 1.9v8.72c0 1.05.85 1.9 1.9 1.9H124V92.41h-15.51z"/></svg>