<svg xmlns="http://www.w3.org/2000/svg" viewBox="0 0 128 128" style="enable-background:new 0 0 128 128" xml:space="preserve"><path style="fill:#ff5252" d="m104.2 85.65-78.53 3.87c.23 5.9.81 7.74.81 7.74s30.47 25.74 31.5 26.3c1.56.86 13.44.35 14.84-.7 1.12-.85 31.74-30.13 31.74-30.13s0-5.33-.36-7.08zM44.46 27.78s15.82 25.03 16.96 37.45c0 0-20.95-.79-38.55-6.8 0 0 4.48-22.08 21.59-30.65zm50.87 7.4c-16.27 8.23-29.94 30.8-29.94 30.8 5.03 2.77 40.9 3.62 40.9 3.62 1.72-8.07-10.96-34.42-10.96-34.42z"/><path style="fill:none;stroke:#d52b2b;stroke-width:3.5984;stroke-linecap:round;stroke-miterlimit:10" d="M44.46 27.78c-2.32-6.23-.23-11.21 4.56-13.44 7.07-3.28 12.59 1.85 15.19 2.75 8.06 2.77 17.15-2.66 25.27-.07 1.42.45 2.8 1.17 3.83 2.26 1.53 1.62 2.19 3.9 2.5 6.13.44 3.19-.87 9.19-1.23 10.7"/><path style="fill:none;stroke:#d52b2b;stroke-width:3.5984;stroke-linecap:round;stroke-miterlimit:10" d="M59.74 25.06c-.67 1.26-1.16 2.68-1.01 4.1s1.08 2.83 2.44 3.17c2.05.52 3.9-1.44 4.81-3.39 2.8-6.03 1.39-13.33 3.71-19.57 1.04-2.79 3.34-5.56 6.25-5.36.8.06 1.62.37 2.1 1.03 1.15 1.56-.2 3.72-1.54 5.11a67.47 67.47 0 0 1-8.96 7.77c-2.99 2.17-5.96 3.69-7.8 7.14z"/><path style="fill:none;stroke:#d52b2b;stroke-width:3.5984;stroke-linecap:round;stroke-miterlimit:10" d="M81.24 29.24c-1.35.06-2.66-.43-3.86-1.04-3.98-2.01-7.27-5.42-9.2-9.5"/><ellipse style="fill:#ffada6" cx="37.53" cy="40" rx="3.57" ry="3.65"/><ellipse style="fill:#ffada6" cx="47.8" cy="51.15" rx="3.57" ry="3.65"/><ellipse style="fill:#ffada6" cx="58.07" cy="62.31" rx="3.57" ry="3.65"/><ellipse style="fill:#ffada6" cx="89.52" cy="95.21" rx="3.57" ry="3.65"/><path style="fill:#ffada6" d="M100.16 90.26c.4-2.38 4.16-2.92 4.16-2.92.36 2.24.23 7.47.23 7.47-3.45-.12-4.73-2.56-4.39-4.55z"/><ellipse style="fill:#ffada6" cx="74.92" cy="55.9" rx="3.57" ry="3.65"/><ellipse style="fill:#ffada6" cx="84.82" cy="66.59" rx="3.57" ry="3.65"/><ellipse style="fill:#ffada6" cx="90.44" cy="51.98" rx="3.57" ry="3.65"/><ellipse style="fill:#ffada6" cx="100.71" cy="63.14" rx="3.57" ry="3.65"/><ellipse style="fill:#ffada6" cx="94.95" cy="39.76" rx="3.57" ry="3.65"/><ellipse style="fill:#ffada6" cx="34.42" cy="56.46" rx="3.57" ry="3.65"/><ellipse style="fill:#ffada6" cx="75.49" cy="99.76" rx="3.57" ry="3.65"/><path style="fill:#ffada6" d="M81.31 108.06c.36-1.98 2.23-3.29 4.16-2.92 1.94.37 2.86 1.57 2.49 3.56l-3.81 3.62c-1.92-.38-3.2-2.28-2.84-4.26z"/><ellipse style="fill:#ffada6" cx="50.03" cy="93.26" rx="3.57" ry="3.65"/><ellipse style="fill:#ffada6" cx="59.88" cy="103.4" rx="3.57" ry="3.65"/><ellipse style="fill:#ffada6" cx="70.15" cy="115.06" rx="3.57" ry="3.65"/><ellipse style="fill:#ffada6" cx="33.77" cy="95.71" rx="3.57" ry="3.65"/><ellipse style="fill:#ffada6" cx="44.04" cy="106.86" rx="3.57" ry="3.65"/><ellipse style="fill:#ffada6" cx="54.31" cy="118.01" rx="3.57" ry="3.65"/><path style="fill:none;stroke:#d52b2b;stroke-width:3.4449;stroke-miterlimit:10" d="M21.99 60.2c5.22-17.54 13.73-26.02 21.86-33.41 7.33 11.67 15.07 26.23 18.84 39.23m1.98-.76c8.27-11.78 18.5-22.29 30.22-31.08 5.82 10.95 9.39 18.91 12.34 34.57"/><path style="fill:#d52b2b" d="M108.06 75.97c-35.59-.08-64.25-3.79-88.39-10.91a.879.879 0 0 1-.59-1.1l1.97-6.58c.14-.46.62-.72 1.08-.59 23.33 6.88 51.19 10.47 85.94 10.55.48 0 .87.31.87 1.31v6.43c.01.5-.39.89-.88.89zm-56.73 45.5c-3.19-3.04-12.16-11.1-23.94-20.11 0 0-.37-.8-.61-1.88-.23-1.08-.3-2.22-.3-2.22s14.88 7.1 32.13 26.5c0 0-1.92-.09-3.54-.43-.2-.04-.38-.08-.56-.12-1.2-.29-2.29-.89-3.18-1.74zm27.47-1.23c-.82.94-1.85 1.68-3.03 2.09-.01.01-.03.01-.04.02-1.48.51-2.91.51-2.91.51s15.02-21.63 31.72-30.56c0 0 .13 1.18.01 2.52s-.39 1.99-.39 1.99c-9.11 5.26-22.06 19.67-25.36 23.43zM26.7 94.63c-.56-.05-.99-.53-.99-1.1l-.31-6.76c-.01-.67.56-1.19 1.22-1.13 6.02.61 33.25 2.18 75.81-4.92.63-.11 1.23.33 1.31.96l.81 6.73c.07.59-.34 1.14-.93 1.24-24.46 4.28-55.4 6.76-76.92 4.98z"/></svg>