<svg xmlns="http://www.w3.org/2000/svg" viewBox="0 0 128 128" style="enable-background:new 0 0 128 128" xml:space="preserve"><path style="fill:#504f4f" d="m104.02 24-80.05-.12C8.91 23.88 4 29.99 4 42.74v42.4C4 95.57 7.24 104 23.98 104l80.05.12c15.03 0 19.98-6.44 19.98-18.86v-42.4C124 28.85 118.68 24 104.02 24z"/><path style="fill:#8dcc47" d="M109.54 66.61c0 2.12-1.67 3.8-3.8 3.8H22.21c-2.12 0-3.8-1.67-3.8-3.8V41.92c0-2.12 1.67-3.8 3.8-3.8h83.53c2.12 0 3.8 1.67 3.8 3.8v24.69z"/><path style="opacity:.5;enable-background:new" d="M41.63 51.56 40 53.19c-.25.25-.66.25-.91 0l-1.63-1.63a.635.635 0 0 1-.19-.46v-4.54c0-.17.07-.33.19-.46l1.63-1.63c.25-.25.66-.25.91 0l1.63 1.63c.13.13.19.29.19.46v4.54c0 .18-.07.34-.19.46zm0 10.86L40 64.05c-.25.25-.66.25-.91 0l-1.63-1.63a.635.635 0 0 1-.19-.46v-4.54c0-.17.07-.33.19-.46l1.63-1.63c.25-.25.66-.25.91 0l1.63 1.63c.13.13.19.29.19.46v4.54c0 .18-.07.34-.19.46zm8.36-10.86-1.63 1.63c-.25.25-.66.25-.91 0l-1.63-1.63a.635.635 0 0 1-.19-.46v-4.54c0-.17.07-.33.19-.46l1.63-1.63c.25-.25.66-.25.91 0l1.63 1.63c.13.13.19.29.19.46v4.54c0 .18-.07.34-.19.46zm11.9 0-1.63 1.63c-.25.25-.66.25-.91 0l-1.63-1.63a.635.635 0 0 1-.19-.46v-4.54c0-.17.07-.33.19-.46l1.63-1.63c.25-.25.66-.25.91 0l1.63 1.63c.13.13.19.29.19.46v4.54c0 .18-.07.34-.19.46zm0 10.86-1.63 1.63c-.25.25-.66.25-.91 0l-1.63-1.63a.635.635 0 0 1-.19-.46v-4.54c0-.17.07-.33.19-.46l1.63-1.63c.25-.25.66-.25.91 0l1.63 1.63c.13.13.19.29.19.46v4.54c0 .18-.07.34-.19.46zM51.13 45.49l-1.63-1.63a.646.646 0 0 1 0-.91l1.63-1.63c.13-.13.29-.19.46-.19h4.55c.17 0 .33.07.46.19l1.63 1.63c.25.25.25.66 0 .91l-1.63 1.63c-.13.13-.29.19-.46.19h-4.55c-.18 0-.34-.07-.46-.19zm0 10.86-1.63-1.63a.646.646 0 0 1 0-.91l1.63-1.63c.13-.13.29-.19.46-.19h4.55c.17 0 .33.07.46.19l1.63 1.63c.25.25.25.66 0 .91l-1.63 1.63c-.13.13-.29.19-.46.19h-4.55c-.18 0-.34-.07-.46-.19zm0 10.86-1.63-1.63a.646.646 0 0 1 0-.91l1.63-1.63c.13-.13.29-.19.46-.19h4.55c.17 0 .33.07.46.19l1.63 1.63c.25.25.25.66 0 .91l-1.63 1.63c-.13.13-.29.19-.46.19h-4.55c-.18 0-.34-.07-.46-.19zm19.12-15.65-1.63 1.63c-.25.25-.66.25-.91 0l-1.63-1.63a.635.635 0 0 1-.19-.46v-4.54c0-.17.07-.33.19-.46l1.63-1.63c.25-.25.66-.25.91 0l1.63 1.63c.13.13.19.29.19.46v4.54c0 .18-.07.34-.19.46zm11.91 0-1.63 1.63c-.25.25-.66.25-.91 0l-1.63-1.63a.635.635 0 0 1-.19-.46v-4.54c0-.17.07-.33.19-.46l1.63-1.63c.25-.25.66-.25.91 0l1.63 1.63c.13.13.19.29.19.46v4.54c-.01.18-.08.34-.19.46zm0 10.86-1.63 1.63c-.25.25-.66.25-.91 0l-1.63-1.63a.635.635 0 0 1-.19-.46v-4.54c0-.17.07-.33.19-.46l1.63-1.63c.25-.25.66-.25.91 0l1.63 1.63c.13.13.19.29.19.46v4.54c-.01.18-.08.34-.19.46zM71.39 45.49l-1.63-1.63a.646.646 0 0 1 0-.91l1.63-1.63c.13-.13.29-.19.46-.19h4.55c.17 0 .33.07.46.19l1.63 1.63c.25.25.25.66 0 .91l-1.63 1.63c-.13.13-.29.19-.46.19h-4.55c-.18 0-.34-.07-.46-.19zm0 10.86-1.63-1.63a.646.646 0 0 1 0-.91l1.63-1.63c.13-.13.29-.19.46-.19h4.55c.17 0 .33.07.46.19l1.63 1.63c.25.25.25.66 0 .91l-1.63 1.63c-.13.13-.29.19-.46.19h-4.55c-.18 0-.34-.07-.46-.19zm0 10.86-1.63-1.63a.646.646 0 0 1 0-.91l1.63-1.63c.13-.13.29-.19.46-.19h4.55c.17 0 .33.07.46.19l1.63 1.63c.25.25.25.66 0 .91l-1.63 1.63c-.13.13-.29.19-.46.19h-4.55c-.18 0-.34-.07-.46-.19zm19.13-15.65-1.63 1.63c-.25.25-.66.25-.91 0l-1.63-1.63a.635.635 0 0 1-.19-.46v-4.54c0-.17.07-.33.19-.46l1.63-1.63c.25-.25.66-.25.91 0l1.63 1.63c.13.13.19.29.19.46v4.54c-.01.18-.08.34-.19.46zm11.89 0-1.63 1.63c-.25.25-.66.25-.91 0l-1.63-1.63a.635.635 0 0 1-.19-.46v-4.54c0-.17.07-.33.19-.46l1.63-1.63c.25-.25.66-.25.91 0l1.63 1.63c.13.13.19.29.19.46v4.54a.57.57 0 0 1-.19.46zM90.52 62.42l-1.63 1.63c-.25.25-.66.25-.91 0l-1.63-1.63a.635.635 0 0 1-.19-.46v-4.54c0-.17.07-.33.19-.46l1.63-1.63c.25-.25.66-.25.91 0l1.63 1.63c.13.13.19.29.19.46v4.54c-.01.18-.08.34-.19.46zm11.89 0-1.63 1.63c-.25.25-.66.25-.91 0l-1.63-1.63a.635.635 0 0 1-.19-.46v-4.54c0-.17.07-.33.19-.46l1.63-1.63c.25-.25.66-.25.91 0l1.63 1.63c.13.13.19.29.19.46v4.54a.57.57 0 0 1-.19.46zM91.66 45.49l-1.63-1.63a.646.646 0 0 1 0-.91l1.63-1.63c.13-.13.29-.19.46-.19h4.55c.17 0 .33.07.46.19l1.63 1.63c.25.25.25.66 0 .91l-1.63 1.63c-.13.13-.29.19-.46.19h-4.55c-.18 0-.35-.07-.46-.19zm0 10.86-1.63-1.63a.646.646 0 0 1 0-.91l1.63-1.63c.13-.13.29-.19.46-.19h4.55c.17 0 .33.07.46.19l1.63 1.63c.25.25.25.66 0 .91l-1.63 1.63c-.13.13-.29.19-.46.19h-4.55c-.18 0-.35-.07-.46-.19zm0 10.86-1.63-1.63a.646.646 0 0 1 0-.91l1.63-1.63c.13-.13.29-.19.46-.19h4.55c.17 0 .33.07.46.19l1.63 1.63c.25.25.25.66 0 .91l-1.63 1.63c-.13.13-.29.19-.46.19h-4.55c-.18 0-.35-.07-.46-.19z"/><path d="M106.07 94.58h-8.68c-3.87 0-5.85-3.04-5.85-6.9 0-3.87 1.98-6.9 5.85-6.9h8.68c3.87 0 5.85 3.04 5.85 6.9-.02 3.59-2 6.9-5.85 6.9z"/><path style="fill:#8bc34a" d="M105.59 90h-7.8c-2.04 0-1.99-1.02-1.99-2.32s-.05-2.32 1.99-2.32h7.8c2.04 0 2.08 1.02 2.08 2.32-.01 1.2-.05 2.32-2.08 2.32z"/><path d="M30.61 94.58h-8.68c-3.87 0-5.85-3.04-5.85-6.9 0-3.87 1.98-6.9 5.85-6.9h8.68c3.87 0 5.85 3.04 5.85 6.9 0 3.59-1.99 6.9-5.85 6.9z"/><circle style="fill:#f44336" cx="26.27" cy="87.68" r="4.16"/><path d="M80.91 94.58h-8.68c-3.87 0-5.85-3.04-5.85-6.9 0-3.87 1.98-6.9 5.85-6.9h8.68c3.87 0 5.85 3.04 5.85 6.9.01 3.59-1.98 6.9-5.85 6.9z"/><path style="fill:#eee" d="m74.54 83.52 6.89 4.16-6.89 4.16z"/><path d="M47.09 94.58h8.68c3.87 0 5.85-3.04 5.85-6.9 0-3.87-1.98-6.9-5.85-6.9h-8.68c-3.87 0-5.85 3.04-5.85 6.9-.01 3.59 1.98 6.9 5.85 6.9z"/><path style="fill:#eee" d="m53.46 83.52-6.89 4.16 6.89 4.16z"/><path d="M105.75 38.12c2.12 0 3.8 1.67 3.8 3.8V66.6c0 2.12-1.67 3.8-3.8 3.8H22.21c-2.12 0-3.8-1.67-3.8-3.8V41.92c0-2.12 1.67-3.8 3.8-3.8h83.54m0-5.18H22.21c-4.96 0-8.99 4.03-8.99 8.99v24.68c0 4.96 4.03 8.99 8.99 8.99h83.53c4.96 0 8.99-4.03 8.99-8.99V41.92c0-4.95-4.03-8.98-8.98-8.98z"/></svg>