<svg xmlns="http://www.w3.org/2000/svg" viewBox="0 0 128 128" style="enable-background:new 0 0 128 128" xml:space="preserve"><path style="fill:#94a61d" d="M5.35 78.58c.29 8.9 14.31 9.69 21.42 15 9.72 7.25 13.51 21.75 24.72 26.04s27.03 6.43 45.15 2.31 28.43-14.81 25.38-25.71c-3.79-13.51-20.76-26.7-54.38-30.32s-51.08 1.98-54.87 3.46c-3.79 1.48-7.58 4.12-7.42 9.22z"/><path style="fill:#b7d118" d="M20.84 75.45c.78 4.23 10.22 4.94 16.48 13.02s8.9 14.87 18.29 18.62c6.59 2.64 19.15 5.8 38.89-.33 21.75-6.76 17.44-28.13-16.48-35.26-32.13-6.76-58.33-2.31-57.18 3.95z"/><path style="fill:#4a4a29" d="M67.57 81.62c-6.13-.27-10.37 1.6-10.37 6.04 0 3.79 4.6 5.41 10.37 5.41 6.95 0 8.84-2.98 8.75-5.59-.1-2.97-2.24-5.57-8.75-5.86z"/><path style="fill:#f7c875" d="M66.59 3.75c-1.71 0-2.44 1.08-2.44 2.35v81s.71 1.05 2.61 1.05c1.89 0 2.62-1.05 2.62-1.05l-.36-81.72s-.35-1.63-2.43-1.63z"/><path style="fill:#ff4f28" d="M117.29 16.92c.26.44-3.01 4.02-7.77 6.68-6.13 3.43-16.96 8.21-22.37 10.28-5.41 2.07-10.32 3.77-13.08 5.32-2.06 1.16-4.51 4.69-5.05 4.24-.28-.24-.32-10.59-.43-20.36-.1-8.93.17-17.08.34-17.25.36-.36 1.17-.63 1.9 0s6.8 3.39 15.28 5.91 15.68 4.21 21.72 4.48c6.04.27 9.19.25 9.46.7z"/></svg>