<svg xmlns="http://www.w3.org/2000/svg" viewBox="0 0 128 128" style="enable-background:new 0 0 128 128" xml:space="preserve"><path style="fill:#616161" d="M73.38 97.83v23.39h44.68c2.98 0 5.78-1.74 6.92-4.22 2.38-5.19.66-18.75.66-18.75l-52.26-.42z"/><path style="fill:#616161" d="M87.07 97.83v23.39H15.2c-2.98 0-5.78-1.74-6.92-4.22-2.38-5.19-.66-18.75-.66-18.75l79.45-.42z"/><path style="fill:#e0e0e0" d="M42.31 41.57h61.91s2.86-21.25-3.42-37.66H38.89c4.95 15.36 3.42 37.66 3.42 37.66z"/><path style="fill:#bdbdbd" d="m42.12 46.55 61.54-.41.92-6.56H42.41z"/><path style="fill:#424242" d="M116.82 106.44H15.9c-6.54 0-9.36-2.74-8.81-8.81l4.52-48.61c.97-5.47 3.41-7.1 8.26-7.1h92.98c4.85 0 6.67 3.62 6.81 5.5l5.97 50.21c0 5.89-.55 8.81-8.81 8.81z"/><path d="M16 87.92c0 .47-2.3 6.27 4.7 11.23 3.23 2.29 19.01 2.56 20.67-9.11s1.7-39.34 1.7-43.9-11.01-4.62-14.61 3.29S16 87.92 16 87.92z"/><path style="fill:#616161" d="M26.98 98.01c-4.04 0-7.87-1.88-10.02-4.86-2.76-3.83-1.93-7.98-1.47-12.24 1.14-10.52 2.55-21.03 4.61-31.43 3.1-15.69 12.99-13.29 14.77-12.95 6.32 1.22 7.3 7.68 7 10.01-.51 4.06-2.71 5.53-2.91 5.84-.17.25-.19.56-.2.85 0 0-1.75 16.53-2.1 24.37-.03.63 1.2.92 2.05 3.26 1.25 3.44.69 8.29-1.18 11.49-2.01 3.43-6.14 5.66-10.55 5.66z"/><path style="fill:#424242" d="M26.98 98.01c-4.04 0-7.87-1.88-10.02-4.86-.6-.83-1.96-3.47-1.21-3.93.75-.46 1.72-.1 2.56.17 3.24 1.02 7.03 1.38 9.82-.55 2-1.39 3.14-3.75 3.7-6.12.33-1.4.52-2.91 1.43-4.03 2.09-2.6 4.66-.02 5.46 2.17 1.25 3.44.69 8.29-1.18 11.49-2.02 3.43-6.15 5.66-10.56 5.66z"/><path d="M82.51 57.32H52.09c-2.51 0-4.56-2.42-4.56-5.38v-.01c0-2.96 2.05-5.38 4.56-5.38H82.5c2.51 0 4.56 2.42 4.56 5.38v.01c.01 2.96-2.04 5.38-4.55 5.38z"/><path style="fill:#7cb342" d="M80.89 57.34H53.71c-2.57 0-4.67-1.49-4.67-4.52v-.01c0-3.03 2.1-4.52 4.67-4.52h27.16c2.57 0 4.67 1.49 4.67 4.52v.01c.01 3.03-2.09 4.52-4.65 4.52z"/><path d="M108.13 68.55H95.92c-1.52 0-2.76-1.24-2.76-2.76 0-1.52 1.24-2.76 2.76-2.76h12.21c1.52 0 2.76 1.24 2.76 2.76.01 1.52-1.24 2.76-2.76 2.76zm.49 9.71H96.41c-1.52 0-2.76-1.24-2.76-2.76s1.24-2.76 2.76-2.76h12.21c1.52 0 2.76 1.24 2.76 2.76a2.753 2.753 0 0 1-2.76 2.76zm.5 9.71H96.91c-1.52 0-2.76-1.24-2.76-2.76s1.24-2.76 2.76-2.76h12.21c1.52 0 2.76 1.24 2.76 2.76.01 1.51-1.24 2.76-2.76 2.76z"/><path style="fill:#90a4ae" d="M108.3 69.66H96.09c-1.52 0-2.76-1.24-2.76-2.76s1.24-2.76 2.76-2.76h12.21c1.52 0 2.76 1.24 2.76 2.76a2.753 2.753 0 0 1-2.76 2.76zm.5 9.71H96.59c-1.52 0-2.76-1.24-2.76-2.76s1.24-2.76 2.76-2.76h12.21c1.52 0 2.76 1.24 2.76 2.76.01 1.52-1.24 2.76-2.76 2.76zm.49 9.71H97.08c-1.52 0-2.76-1.24-2.76-2.76s1.24-2.76 2.76-2.76h12.21c1.52 0 2.76 1.24 2.76 2.76.01 1.51-1.23 2.76-2.76 2.76z"/><circle cx="95.91" cy="50.73" r=".88"/><circle cx="99.26" cy="50.73" r=".88"/><circle cx="102.61" cy="50.73" r=".88"/><circle cx="105.96" cy="50.73" r=".88"/><circle cx="95.91" cy="54.03" r=".88"/><circle cx="99.26" cy="54.03" r=".88"/><circle cx="102.61" cy="54.03" r=".88"/><circle cx="105.96" cy="54.03" r=".88"/><circle cx="99.26" cy="47.43" r=".88"/><circle cx="102.61" cy="47.43" r=".88"/><circle cx="99.26" cy="57.32" r=".88"/><circle cx="102.61" cy="57.32" r=".88"/><ellipse cx="53.84" cy="67.89" rx="3.79" ry="3.32"/><ellipse cx="66.86" cy="67.89" rx="3.79" ry="3.32"/><ellipse cx="79.88" cy="67.89" rx="3.79" ry="3.32"/><ellipse cx="53.03" cy="77.6" rx="3.79" ry="3.32"/><ellipse cx="66.86" cy="77.6" rx="3.79" ry="3.32"/><ellipse cx="80.7" cy="77.6" rx="3.79" ry="3.32"/><ellipse cx="52.21" cy="87.31" rx="3.79" ry="3.32"/><ellipse cx="66.86" cy="87.31" rx="3.79" ry="3.32"/><ellipse cx="81.52" cy="87.31" rx="3.79" ry="3.32"/><ellipse style="fill:#bdbdbd" cx="53.84" cy="66.34" rx="3.79" ry="3.32"/><ellipse style="fill:#bdbdbd" cx="66.86" cy="66.34" rx="3.79" ry="3.32"/><ellipse style="fill:#bdbdbd" cx="79.88" cy="66.34" rx="3.79" ry="3.32"/><ellipse style="fill:#bdbdbd" cx="53.03" cy="76.05" rx="3.79" ry="3.32"/><ellipse style="fill:#bdbdbd" cx="66.86" cy="76.05" rx="3.79" ry="3.32"/><ellipse style="fill:#bdbdbd" cx="80.7" cy="76.05" rx="3.79" ry="3.32"/><ellipse style="fill:#bdbdbd" cx="52.21" cy="85.76" rx="3.79" ry="3.32"/><ellipse style="fill:#bdbdbd" cx="66.86" cy="85.76" rx="3.79" ry="3.32"/><ellipse style="fill:#bdbdbd" cx="81.52" cy="85.76" rx="3.79" ry="3.32"/><ellipse cx="51.39" cy="97.02" rx="3.79" ry="3.32"/><ellipse cx="66.86" cy="97.02" rx="3.79" ry="3.32"/><ellipse cx="82.33" cy="97.02" rx="3.79" ry="3.32"/><ellipse style="fill:#bdbdbd" cx="51.39" cy="95.47" rx="3.79" ry="3.32"/><ellipse style="fill:#bdbdbd" cx="66.86" cy="95.47" rx="3.79" ry="3.32"/><ellipse style="fill:#bdbdbd" cx="82.33" cy="95.47" rx="3.79" ry="3.32"/><ellipse cx="103.19" cy="96.42" rx="4.48" ry="3.92"/><ellipse style="fill:#7cb342" cx="103.19" cy="95.23" rx="4.48" ry="3.92"/><g style="opacity:.8"><path style="fill:#757575" d="M98.51 33.9c-.03.71-.07 1.37-.11 1.98H50.69l.03-1.98h47.79zm.07-8.1c.02.67.03 1.34.04 1.98H50.66c-.02-.65-.04-1.31-.07-1.98h47.99zM98 17.7c.08.67.15 1.33.21 1.98H50.19c-.06-.66-.12-1.32-.19-1.98h48zm-1.4-8.1c.16.66.3 1.32.43 1.98H49.16c-.11-.66-.24-1.33-.37-1.98H96.6z"/></g><path d="m106.32 113.5-.37-1.44c-.43-.82-1.21-.93-1.73-.93H42.1c-.52 0-1.3.11-1.73.93L40 113.5c-.28 1.04.16 1.78 1.25 1.78h63.82c1.09 0 1.53-.74 1.25-1.78z"/><path style="fill:none;stroke:#757575;stroke-width:1.983;stroke-linecap:round;stroke-miterlimit:10" d="M18.86 116.24c9.96-2.08 8.4-20.77 8.4-20.77"/><path style="fill:#757575" d="M13.27 124.09c-.97-.03-1.94-.18-2.65-.8-.3-.26-.57-.6-.96-.65-.25-.03-.49.06-.72.13-1.2.36-2.56.09-3.53-.69-1.04-.84-.99-2.01-1.65-3.02-.83-1.27-1.88-2-1.44-3.75.08-.31.2-.62.16-.93-.03-.27-.18-.51-.3-.76-.88-1.8-.24-4.38 1.04-5.93 1.32-1.6 3.82-1.6 3.82-1.6l.3 5.05c1.78-.03 3.8 1.37 4.59 3.02.21.43.39.88.7 1.25.31.36.86.59 1.27.36.31-.18.45-.54.64-.84.79-1.22 2.55-1.33 3.96-.98.31.08.65.17.95.05.41-.17.57-.68.56-1.12-.02-.44-.16-.88-.13-1.32.06-1.05.99-1.8 1.77-2.5 2.2-2 .7-6.31 4.9-6.88 1.72-.23 3.07.84 3.65 2.19.52 1.21 1.05 3.18-.06 4.36-.08.08-.16.16-.2.26-.09.2 0 .43.07.64.6 1.81-.27 3.99-1.95 4.89.33 1.32-.04 2.79-.95 3.8s-2.33 1.53-3.68 1.34c.17 1.25-.62 2.51-1.72 3.11s-2.46.63-3.68.3c-.28-.08-.58-.17-.85-.06-.22.09-.36.29-.53.45-.64.6-1.6.66-2.48.68-.31-.05-.61-.04-.9-.05z"/><path style="fill:#424242" d="M30.13 108.69c.78-.76.66-1.85.66-1.85-.83.67-1.67-.55-1.92-.84-.92-1.12-2.5-1.65-3.9-1.3-.18.04-.37.12-.44.29-.1.3.26.53.56.64 1.51.6 2.82 1.68 3.71 3.04.2.31.37.65.42 1.01.28 2.21-1.73 4.15-1.73 4.15-.6-1.1-1.26-2.19-2.18-3.04-.92-.85-2.15-1.44-3.39-1.34.08 1.22 1.12 2.14 2.11 2.86.99.72 2.09 1.5 2.4 2.68.34 1.3-.41 2.64-1.36 3.58-.51.5-1.8.8-2.35.33-2.98-2.54-2.68-5.35-2.83-5.41-.09.21-1.62 1.75-.76 4.35.41 1.25 1.64 2.22 2.95 2.27-.84.72-1.82 1.28-2.88 1.61-.81.26-1.75.23-2.37-.36-.89-.84-.43-2.56-.9-4.05-.21-.65-.76-1.4-1.41-1.19-.46.15-.64.7-.69 1.19-.2 1.84.53 3.76 1.89 5-1.33.82-3.51.96-5.47-.53-.56-.42-.38-1.74-.06-2.37.52-1.02 2.44-2.79 2.41-3.56-.02-.55-.48-1.03-1.02-1.13-.54-.1-1.1.09-1.58.37-1.64.96-2.54 3.04-2.11 4.9.53 2.29-1.06 1.38-2.18.5-.69-.54-1.33-1.03-1.74-1.82-1.45-2.81-.06-4.9 2.43-6.32.13-.07.27-.16.32-.3.11-.31-.27-.56-.59-.61-.95-.15-1.91.33-2.58 1.02-.47.49-1.3 1.51-1.45 3.03-.18 1.8 1.67 3.55 1.67 3.55.32 1.4.61 2.19 1.65 3.02.97.78 2.34 1.05 3.53.69.24-.07.48-.17.72-.13.39.05.66.4.96.65.71.62 1.68.78 2.65.8.3.01.59 0 .88 0 .88-.02 1.84-.07 2.48-.68.17-.16.31-.36.53-.45.27-.11.57-.02.85.06 1.22.33 2.57.31 3.68-.3 1.11-.61 1.89-1.86 1.72-3.11a4.25 4.25 0 0 0 3.68-1.34 4.24 4.24 0 0 0 .95-3.8c1.68-.9 2.55-3.08 1.95-4.89-.07-.21-.15-.44-.07-.64.04-.07.12-.15.2-.23z"/><path style="fill:#757575" d="M35.77 38.27c.47.35.87.85.89 1.44.03.9-.83 1.56-1.64 1.95-1.91.93-4.09 1.31-6.2 1.1-.38-.04-.77-.1-1.12-.25-2.38-1.02-1.15-3.99.89-4.66 2.7-.88 5.31-.99 7.18.42z"/></svg>