<svg xmlns="http://www.w3.org/2000/svg" viewBox="0 0 1000 1000"><path fill="#006" d="M8 195.25c170.83-85.22 341.03-54.42 513.26-27.97 155.21 23.84 312.16 44.57 470.74-34.53v672c-170.83 85.22-341.03 54.42-513.26 27.97C323.53 808.88 166.58 788.15 8 867.25v-672"/><path fill="#BD1021" d="M8 531.25c327.64-275.35 653.12-120.44 984-398.5v672c-170.96 26.92-341.39-62.22-513.8-147.56C323.21 580.47 166.4 506.31 8 531.25"/><path fill="#FFF" d="M113.43 492.26C403.42 321.15 697.26 416.45 992 168.76v599.98c-294.44 46.37-578.48-248.6-878.57-276.48"/><path d="M762.21 561.87c6.5 1.17 6.33 8.81 6.33 9.34l23.23-.63c3.15-11.26 5.91-10.26 11.69-5.31 5.54 4.59 11.11 6.31 11.21 6.34 2.86-15.94 18.26-15.1 18.72-15.08 7.06-23.98 7.6-23.77 3.44-26.03-4.13-2.61-5.81-6.75-5.89-6.95-3.9-6.15-6-15.1-6.51-20.95-1.02-5.07-4.75 2.71-6.28 1.85-1.48-1.37-7.75.05-8.22.16 1.25 2.5-3.95 1.56-4.34 1.51.48.72.03 2.91 0 3.06-.88-.89-5.03-1.63-5.23-1.65-.5 1.41-1.49 3.02-1.49 3.03-2.74-1.1-7.47-.63-7.63-.61-7.56.61-11.82 3.76-14.05 5.64-2.14 1.8-9.46 7.4-15.69 15.62-6.37 8.18-9.38 7.44-9.57 7.41-2.27 9.18-16.2 19.93-16.44 20.12-2.84 2.91-9.25 4.05-13.45-.18-3.36-4.83-.19-11.52 0-11.92 1.45-3.53 2.67-3.38 2.9-15.76.32-8.43 6.33-14.84 12.94-24.64 7.9-11.91 19.05-31.71 19.06-31.73.3 6.07 2.3 6.85 2.47 6.93 2.28-6.17 5.3-11.2 5.32-11.22.2.51.6.82.62.84 2.51-4.66 3.97-6.57 3.98-6.58-1.13-.33-7.4.36-14.18 8.13-6.78 7.59-10.62 5.38-10.88 5.25-4.41-2.35-4.84-6.33-4.88-6.63-2.88-19.42 9.37-32.83 9.59-33.07-17.28-5.97-4.75-34.86 16.59-48.65 8.84-5.67 14-9.96 17.02-13.12 1.76-1.85 4.16-3.87 4.17-6.43 1.17 1.94 2.23 5.2 2.24 5.23.24-.32 1.84-3.37 14.13-12.05 12.29-8.72 18.26-15.85 18.27-15.86 1.46 4.03 1.24 6.87 1.23 6.95 33.67-20.67 66.79-65.66 66.98-65.92.8 2.96.46 7.59.45 7.68 5.53-8.17 25.28-30.23 25.34-30.29-.04 10.37-5.69 15.87-5.89 16.06.62 1.34 1.06 3.83 1.07 3.87 3.17-3.41 18.33-22.71 18.38-22.77 5.19 5.19.69 16.6.51 17.07 1.93-1.25 3.37-3.85 3.42-3.94.97 10.88-7.45 23.28-7.62 23.53 1.56-.66 4.13-3.4 4.2-3.49-2.14 12.98-18.39 31.43-18.55 31.61 2.17 2.67.26 6.52-1.91 9.28-2.26 2.74-5.17 6.94-4.48 8.59 1.6.36 8.08-7.49 8.57-8.11.7 5.08-8.03 17.24-8.29 17.6 6.86-1.25 24.85-17.94 25.22-18.3-1.72 10.45-8.46 20.16-17.15 27.42-8.6 7.1-8.2 7.46-8.19 7.53 2.04.58 12.93-6.8 13.46-7.17-3.98 12.2-15.88 23.12-16.04 23.27 3.72 2.59 7.84-2.67 12.73-8.76 4.71-5.78 10.98-11.54 17.99-17.25 7.26-5.54 11.74-5.19 11.94-5.18 6.14-4.52 10.5-3.27 10.76-3.2 11.32-2.99 12.25 1.31 12.33 1.61 1.28-.1 2.14.14 5.05 1.72 2.71 2.02 2.69 10.19 2.58 14.93-.21 4.4-.94 4.82-1.57 6.27-.53 1.5-.61 2.84-.62 4.52-.1 1.82-2.79 13.16-20.12 20.67-17.31 7-26.24 9.69-26.25 9.69-1.43.59-3.11 2.16-3.14 2.2-7.47 7.1-3.31-2.07-12.11 10.22-8.9 12.27-12.9 11.85-13.08 11.85-1.5 2.75-10.55 16.58-15.69 22.5-5.12 5.81-4.33 5.24.26 6.78 4.84 1.14 11.03-2.68 11.36-2.89-4.1 5.28-1.57 6.07-1.35 6.16 6.03-6.17 9.02-5.57 9.23-5.54 1.4 6.63-4.59 18.67-4.74 18.97 2.55-.36 7.28-2.04 7.32-2.06-1.39 5.09-5.87 11.17-9.45 13.91-3.46 2.56-2.93 2.89-1.83 5.56.89 2.76.18 5.69.14 5.81-6.27-3.72-6.32.66-6.35 1.03-.65 7.07-.6 16.87-.6 16.88-4.41-1.5-4.53 1.81-4.55 2.11-1.36 6.58-6.37 14.94-6.43 15.03-.49-3.85-2.65-4.21-2.84-4.25-2.98 7.88-7.78 13.22-7.85 13.29-.55 6.45.59 14.89.6 14.93-3.38-.2-4.37.07-5.01 1.24-.39 1.21.65 1.44.75 1.46 14.13-2.35 28.26-5.25 42.82-8.93.8-.1 2.88-.44 3.22 5.86-.32 6.4-3.47 7.62-3.74 7.73-15.47 3.92-30.93 7.07-46.86 9.6.01.1.16 1.58-2.24 3.93-2.52 1.95-1.71-1.49-2.32 6.31-1.39 7.71-9.54 1.45-10.02 1.11-1.62 3.28-5.13 7.81-5.15 7.84-2.22-8.38-4.09-10.57-7.63-2.7-2.64 7.99 5.55 5.44 6.06 5.31l7.62-2.73c15.13-5.52 47.97-19.68 50.37-20.67 3.24-1.19 5.96-1.79 7.63 3.5.59 5.58-6.12 8.25-6.65 8.47a612.835 612.835 0 0 1-56.43 20.21c-1.66 4.73-5.57 5.05-5.9 5.09.05 4.42-2.83 7.37-4.71 9.37-2.07 1.66-6.84 1.76-7.1 1.75-6.88 6.57-9.58 2.7-9.79 2.43-4.44 2.86-6.79 2.18-10.47.41-3.35-2.27-3.22-7.21-3.21-7.59-11.76 2.64-23.5 4.96-35.61 7.05-1.67.94-2.81 2.38-2.84 2.41.81 2.53-2.32 7.1-2.55 7.43 1.13 1.13 2.93 3.63 3.39 9.8-.14 6.51-5.32 7.52-2.72 12.04 3.36 4.16 8.29.73 14.71-3.76 6.35-4.17 12.09-4.19 14.86-4.32 2.7-.02 9.88 1.84 14.54 3.61 4.73 1.63 5.97.42 6.45-2.93.51-3.28 2.23-4.3 2.35-4.37-.42 3.28.61 4.4.68 4.48 1.83-.25 4.72-2.6 4.84-2.71-.48 2.4-2.41 3.98-2.52 4.07-4.15 4.7 1.48 2.46 1.68 2.39 12.36-4.79 16.59-5.18 19.85-5.21 3.21.25 18.22 6.21 18.27 6.22.43-2.23.17-7.13.17-7.19 3.9.98 5.34 3.31 5.43 3.46 1.29-2.66.55-5.78.51-5.95 11.95 7.49-2.14 14.13-6.56 16.87-3.92 2.74-3.92 4.61-3.92 4.76 3.35-1.98 5.59-2.91 8.35-3.74 2.75-.8 1.8-.38 8.35-3.48 6.81-2.82 9.7-.32 9.92-.13-5.51 1.84-7.03 4.06-7.11 4.18 3.14 2.9.41 5.71.16 5.99-5.45-6.94-9.01 1.7-9.24 2.21 1.96-.55 6.45-.17 8.15.68 1.14.7 3.69 1.9 6.92 3.23 4.59 1.73 3.67.34 7.23 1.2 3.37 1.5 2.28 5.57 2.19 5.95-1.79-3.36-4.57-3.92-4.76-3.97-.66 5.25-3.79 6.76-4.04 6.88 4.09-8.18-4.96-8.74-9.98-7.77-4.69 1.45-7.97 5.57-8.13 5.77 9.69 9.93 15.62 5.04 15.87 4.85-1.87 4.52-8.4 4.51-8.91 4.51 3.48 3.23 3.21 5.53 3.19 5.71-2.08-1.93-4.89-.39-11.77-4.91-7.05-4.43-12.44-1.93-12.72-1.8 6.04 8.9-2.04 15.32-2.41 15.62-2.86 3.42 1.04 5.63 1.4 5.85-4.25 1.13-4.66-3.48-4.71-3.91-2.31.17-5.14 3.59-5.33 3.82.72-5.81 5.34-3.83 6-9.88-.05-6.29-5.02-9.64-21.08-4.98-15.99 4.45-20.39-1.8-20.51-1.96-1.34.35-1.6 1.89-1.63 2.02 2.71 3.32 3.68 4.49 3.37 7.01-.32 2.5.75 3.08.84 3.14-2.9-.47-3.12-4.37-3.14-4.73-.12 1.95-.63 2.18-1.63 4.31-.81 2.27-.09 4.59-.05 4.71-1.41-1.52-3.23-2.87-1.35-7.41 1.09-3.68-3.05-6.91-3.42-7.2-2.43-2.25-6.79.09-7.17.29-11.06 3.06-16.93-5.32-17.15-5.63-1.26-.04-3.56-.79-3.59-.81-11.81 6.72-21.17-7.4-21.47-7.84-8.79 1.92-12.39-3.34-15.19-9.15-2.67-5.62-3.13-6.06-6.61-9.04-3.58-3.37-6.48-10.76-3.54-15.34 2.7-3.73 2.02-4.45 1.97-4.53-3.86-10.52 7.42-13.35 8.22-15.88.59-3.74 2.75-5.58 5.73-6 2.82-.17 2.79.12 4.66-2.42 2.21-2.23 5.1.41 5.38.65 1.03-1.06 6.55-6.81 12.38-4 5.8 2.99 9.77.88 10.04.74 3.8-1.17 35.95-9.16 35.98-9.17 2.12-4.59 3.57-9.36 12.39-13.27 8.85-3.97 15.49-11.98 15.58-12.11-1.78-1.96-4.04-1.67-5.54-1.7-1.4-.31-4.04-2.88-4.15-3-1.65 1.13-2.41.89-14.07 11.6-10.62 8.88-10.66-7.12-10.67-7.59l-22.63 1.35c-.71 6.64-3.85 9.12-4.03 9.27l-8.24.81c-4.4-3.76-4.65-13.9-4.65-14.29-25.04 1.18-38.52 12.15-38.74 12.33-28.33-20.55-50.2-27.11-50.27-27.13 34.26-2.47 52.32-15.07 52.35-15.09 19.19 15.92 36.43 16.13 36.66 16.13.99-9.41 5.06-11.62 5.27-11.74l5.21.25"/><path fill="#FFC221" d="M721.48 639.65c-7.02 5.8-5.92 8.51-5.24 10.49.62 1.93.67 3.4-1.23 6.15-1.9 2.68-1.76 3.5-1.75 3.55.59 9.53 5.03 11.64 7.28 14.05 1.62 2.11 4.61 8.11 4.64 8.16 3.92 7.2 7.35 7.34 10.42 7.37 2.87-.03 2.63-.3 1.16-2.09l-4.26-4.92c3.81 2.17 7.42 7.23 7.51 7.37 7.57 10.74 13.74 9.34 16.93 8.69 2.9-.85 2.46-2.75 2.43-2.93-.33-.3-2.9-.6-3.03-.61-10.96-1.68-14.08-10.68-14.2-11 6.94 8.77 16.61 10.29 20.07 10.1 3.19-.13 2.97.87 2.31 1.24-.7.21-1.62.07-3.1-.06-1.46-.05-1.45.35-1.12 1.22.47.81 1.61.87 3.45.74 1.66-.1.43.09 4.85 4.77 5.08 4.26 15.27.29 15.75.1-7.26-2.36-8.21-6.23-8.27-6.46-10.03 1.59-13.7-5.61-13.87-5.93-1.93-2.27-6.98-5.9-7.04-5.94-5.48-3.59-6.4-9.75-6.45-10.05 1.74 3.13 4.57 6.26 8.5 7.85 3.86 1.4 4.95 2.09 4.96 2.1-1.91.33-2.88-.33-2.95-.38-3.85-1.3-1.74.59-1.68.65 4.37 4.48 5.36 4.16 5.44 4.14 11.04.71 5.85-4.49 5.63-4.73 8.08 1.86 9.18-1.66 9.28-1.93 2.27 4.47 7.21 2.76 7.68 2.61-7.81 5.91-2.05 3.92-1.93 3.89 8.23-2.34 9.55-.13 9.68.06 2.39 2.51 4.26 2.07 4.41 2.04.01 0 1.45-.04 4.54.49 3.18.74 7.69 3.38 12.28 2.41 4.56-1.07 5.14.42 5.21.56-.97-.28-2.66-.41-6.28 2.04-3.67 2.49-9.3 3.74-18.21 1.75-8.79-2.07-9.37-1.78-9.42-1.77 2.1 2.11 3.78 4.76 4.32 6.86.54 2.02 1.79 2.03 1.9 2.04.85-2.7 3.11-3.96 3.25-4.04 1.89 1.97 6.27 4.46 6.34 4.5.44-1.54.02-2.39 0-2.44 3.72 3.86 6.99 2.47 7.28 2.36.97-1.31.75-3.45.73-3.58 1.35-.07 1.57.83 2.52 1.68 1.15.6 3.82-.11 3.98-.16-1.09-.67-1.86-2.65-1.9-2.76 4.85-4.43 13.68-4.11 14.01-4.09 6.84 1.29 6.1 6.53 6.05 6.99 1.38.84 3.21 3.23 3.26 3.29.49-2.33.07-4.34.05-4.4 3.08 1.99 3.8 6.22 3.84 6.51 3.12-6.66-3.12-11.33-3.5-11.63 3.54-1.06 7.26-1.31 9.64-1.28 2.45.15 5.48 1.14 8.38 3.7 3 2.45 7.4 3.02 7.59 3.04-.37-1.27-2.61-2.79-3.33-3.23-.57-.42-.83-1.36-.84-1.41 2.41.04 4-.5 4.04-.51-8.36-5.4-10.47-8.28-10.49-8.3 3.21-.33 4.77-2.85 4.88-3.03-6.66 1.22-6.81-.72-6.84-.89.94.18 3.67.52 7.77-1.18 4.09-1.66 9.34-1.89 9.44-1.89-3.36-5.39-13.55-2.55-17.46-1.55-3.57.82-4.86.49-4.9.48.57-.52 1.14-1.29 3.92-1.88 2.9-.52 5.3-.79 8.63-4.26 3.45-3.41 7.21-3.47 7.45-3.47-1.44-2.57-5.67-2.54-10.39 2.05-4.69 4.49-8.09 4.11-8.34 4.09 6.92-2.8 8.85-6.12 8.94-6.27-2.13-.16-3.22.77-7.4 2.68-4.26 1.64-5.18.18-5.27.05 4.62-4.41 7.72-6.51 7.73-6.52-3.91-.54-7.42-2.07-7.47-2.09-4.18 5.98-7.01 9.08-14.91 4.83-7.94-4.33-11.6-3.43-11.77-3.4 7.09-6.17 13.53-4.89 18.87-1.49 5.26 3.04 6.41.01 6.54-.25-1.56-1.23-1.39-2.26-1.38-2.34 12.52 6.3 17.51.32 20.4-2.93 2.33-3.34-.93-5.43-1.23-5.64-.63 5.72-5 8.7-9.27 7.85-3.95-1.17-7.62-2.82-13.32-5.2-5.88-2.18-12.67.24-19.49 3-6.73 2.6-7.43 1.88-8.11 1.17-.62-.84-.87-2.62-4.33-.59-3.69 1.91-11.09-1.95-16.26-3.39-5.14-1.15-12.77.15-19.99 5.63-7.19 5.4-10.24 4.33-12.52 3.05-2.16-1.59-3.23-4.5-1.16-8.07 2.23-3.32 2.4-4.11 2.25-8.77-.52-4.7-3.34-7.14-3.52-7.29 3.12-4.47 3.71-5.27 2.77-7.21-.88-1.87.46-1.85 2.35-2.96 1.69-1.15 1.05-1.24.56-2.65-.51-1.38-1.34-1.16-1.42-1.15-4.15.18-6.22-1.1-6.31-1.16-7.13-3.53-12.69 3.72-13.01 4.13-3.96-3.78-4.64-1.62-5.38-.44-.77 1-1.95 1.61-3.81 1.88-1.78.26-3.88 1.02-4.95 3.09-.04.09-.65 1.55.18 3.51.07.14.91 2-.85 4.74-1.96 2.62-2.5 3.15-1.99 5.67.54 2.55.38 4.27-.31 5.95-.04-.06-.77-1.34-.65-3.08.22-1.71.21-2.64-.05-3.58-.04.05-1.75 2.46-2.22 4.27-.04-.16-.64-2.6 1.94-6.46 2.8-3.8 3.79-5.36 3.19-6.95-.77-.9-2.39.47-3.03.98"/><path d="M729.21 680.85c-.17-.19-3.05-3.45-2.99-8.53.4-4.94.33-5.51-.03-6.57-.04.03-.56.46-.6 2.4-.01 1.82-.2 3.64-.3 4.01-.02-.04-1.83-4.04-2.47-4.9.02-.14.43-4.1-.37-6.12-1.07-1.86-1.83-1.97-3.03-1.45-1.6.94-2.6 2.5 2.48 8.62.04.05 1.8 2.13 3.28 6.82 1.55 4.68 3.45 5.41 4.03 5.72M746.06 667.24c0-.06-.16-2.7 1.57-7.73 1.67-5.11.77-8.45.33-9.82-.44-1.19-.65-.78 1.18-2.9 1.97-2.85-.56-5.66 2.87-10.51.01-.01 2.38-2.95 3.02-4.13-.01.01-3.98 2.94-6.54 4.47-2.99 1.78-11.85 7.82-10.27 12.55 2.14 4.45 1.95 4.64 1.6 6.49-.31-.24-5.38-4.01-3.81-11.12.02-.05.99-2.68 3.4-5.88 2.32-2.72.79.45 5.46-2.96.08-.07 3.42-3 5.53-6.98-.03.02-2.41 2.02-3.25 2.45-.22.06-4.93 1.45-7.4 4.4-2.3 3.24-6.33 8.17-5.12 14.27-.32-.07-4.83-.91-6.47-8.43-.17.31-9.53 15.89 10.73 24.14.03.02 3.72 1.27 7.17 1.69"/><path fill="#FFC221" d="M836.14 605.45c7.52-2.69 51.71-20.98 56-22.74 4.55-1.87 5.89-2.94 7.55 1.4.84 5.26-5.47 7.04-6.06 7.22a616.227 616.227 0 0 1-52.84 19.31c-2.64.69-3.12-.35-3.17-.44-.48-1.08-1.34-2.48-1.95-3.4-.05-.07-.63-.83.47-1.35"/><path fill="#5A3719" d="M727.9 645.11c-.08.26-5.61 16.09 16.76 20.58 0-.02.1-1.8.96-4.42.98-2.82 2.6-7.56 1-11.18-1.56-3.33 1.15-1.68 2.02-6.04.43-4.43-.28-3.78 1.24-6.67-.16.08-6.77 3.65-9.76 7.81-2.2 4.52 3.16 7.17-.11 12.09-.14-.07-2.89-1.55-4.99-6.2-.3 0-3.96.01-7.12-5.97"/><path d="M749.88 665.32c.22.25 5.38 6.05 12.16 6 6.73-.68 9.25-2.96 11.1-6.71.02.06 1.17 2.68 1.29 4.55.26-.29 5.42-6.28 15.58-1.8 9.79 4.85 6.89 3.63 9.02 3.75-.15-.02-4-.5-13.79 6.03-10.36 6.75-35.01 5.73-35.36-11.82"/><path fill="#5A3719" d="M740.68 636.37c.18.02 2.27.42 4.99-3.35-.14.04-3.13.94-4.99 3.35M721.83 666.72c-.34-.39-4.22-4.53-1.66-6 .16-.01 1.9-.4 1.66 6"/><path d="M822.8 693.04c.15-.35 2.41-5.8 9.59-7.32 7.14-.79 7.93 3.08 16.92 2.62-.33.19-10.43 5.59-18.27 3.24-4.16-1.17-7.2.57-8.24 1.46"/><path fill="#5A3719" d="M752.34 669.66c.37.29 10.19 8.24 20.13-1.38.01.02.73.99 1.45 3.31.26-.33 6.85-9.29 20.01-.52-.06 0-1.48-.04-7.62 3.88-8.34 5.25-27.02 8.98-33.97-5.29"/><path d="M793.43 676.67c.06 0 10.13.68 18.83-.84 5.52-1.13 10.72-3.12 8.19-.25-2.76 2.81-1.53 2.95 10.76-.29 12.12-3.02-.01 2.62 8.29 3.4-.3.25-20 17.2-46.07-2.02"/><path fill="#5A3719" d="M820.22 665.1c.29-.17 5.69-3.35 11.55-.96 5.51 2.82 4.74 3.11 8.41 3.09-.22.41-2.32 4.91-8.69 2.28-6.14-3.19-7.71-3.76-11.27-4.41M826.89 689.4c.29-.22 5.58-4.39 12.39-1.64.84.39 2.58 1.07 4.26 1.34-.23.12-4.76 2.6-10.09 1.5-2.14-.59-3.8-1.01-6.56-1.2M797.8 678.2c.16.01 12.92.28 20.24-2.33-.02.01-8.25 6.41 12.44 1.29.33-.09 4.13-1.29 4.03-.29-.57 1.12-.87 1.76 1.35 2.43-.24.18-15.08 11.57-38.06-1.1"/><path d="M732.28 665.36c.01.08.13 1.27 3.02 3.18 2.9 2 4.4 4.84 5.1 6.68.73 1.85 2.07 4.07 4.52 5.09-.46.13-9.71 2.72-14.9-4.41-.2-.34-3.16-4.88 2.14-10.54h.12"/><path fill="#5A3719" d="M813.22 693.88c-.07.01-4 .01-9.65-1.99-5.67-1.89-6.87 0-10.14-2.73-3.54-2.64-9.15-.67-10.65-.23-1.33.25-4.32.41-.34-3.7-.21 0-3.07-.01-4.65-2.14-.1.12-1.43 1.88-7.17 1.61.13.31 2.44 4.86-7.63 4.14.15.21 3 4.31 6.67 5.52 3.72.76 5.09.42 7.52-.64-.04.32-.58 3.8 4.03 5.56 4.68 1.41 5.68 2.45 8.07 3.66.01-.17.25-2.5-5.94-8.54.06-.01 3.29-.33 8.18.81 5.15 1.32 15.36 3.89 21.7-1.33M815.76 700.02c.08.23.91 2.77 4.11 1.99 3.3-1.17 7.97-2.79 13.13-.28.04-.38.82-5.33-9.06-4.89-.17.04-5.93 1.4-8.18 3.18M731.9 667.39c-.27.33-3.38 3.86-.35 8.73 3.49 3.97 7.77 3.76 10.37 3.62-.04-.02-1.32-1.09-2.64-3.6-1.2-2.62-1.34-4.09-3.87-5.86-2.68-1.72-2.99-2.13-3.51-2.89M727.9 645.11c-.08.26-5.61 16.09 16.76 20.58 0-.02.1-1.8.96-4.42.98-2.82 2.6-7.56 1-11.18-1.56-3.33 1.15-1.68 2.02-6.04.43-4.43-.28-3.78 1.24-6.67-.16.08-6.77 3.65-9.76 7.81-2.2 4.52 3.16 7.17-.11 12.09-.14-.07-2.89-1.55-4.99-6.2-.3 0-3.96.01-7.12-5.97"/><path d="M786.98 681.55c.14-.03 4.56-1.14 16.71 3.74 12.09 4.82 16.89 2.8 18.77 2.34-.24.2-6.49 5.39-17.24.45-9.33-4.58-9.85-2.63-18.24-6.53"/><path fill="#FFC221" d="M862.07 668.01c.1-.02 2.63-.55 4.34.02.04-.05 1.04-1.33 3.55-2.34-.15-.14-1.47-1.68-7.89 2.32M853.87 660.52c.16-.04 2.52-.71 3.57-2.64-.05-.08-1.38-1.98-3.49-2.9 0 .04.35 2.45-.08 5.54M761.7 628.18c-.03-.14-.45-1.62 2.36-2.48l40.22-10.43c.16-.01 1.78-.16 2.27 1.56.22 1.97-.19 3.3-9.25 5.65l-27.65 6.36-5.2 1.09c-.2.04-2.26.6-2.75-1.75"/><path fill="#FFC221" d="M798.16 623.89c.01.49.05 6.57 5.38 7.8 5.35.37 6.85-1.05 8.41-5.05.46-1.62 1.72-7.98-.36-9.06-.98-.09-2.44.19-3.68.96-1.92 1.35-3.28 2.51-2.88 3.8 1.29 2.57 1.49 3.03 1.05 3.34-1.39.49-2.15-.7-2.5-1.86-.24-1.39.64-2.17-2.81-1.23-1.53.42-2.49.47-2.61 1.3M820.54 616c2.73.69 2.49 7.57-.75 12.06-3.84 4.15-6.68 3.35-6.92 3.29-1.77-.82-1.58-.53-.18-3.53 1.28-3.03 1.81-6.41 1.2-9.04-.16-.84.36-1.44 1.32-1.88.05-.02 2.45-.89 5.33-.9"/><path fill="#FFC221" d="M822.93 616.4c.11.19 1.72 2.93-.49 9.65-.06.12-1.05 1.79 1.35 1.4 2.71-.88 7.41-4.65 7.29-9.36-.02-.08-.17-.96-1.61-.76-1.42.18-.27-.96.34-1.35.72-.42 2.29-1.34-2.36-5.06-.06-.06-.72-.77-1.72-.34-.88.53-3.03 2.1-3.29 4.2.05.85.48 1.6.49 1.62"/><path fill="#FFC221" d="M828.18 610c.16.13 3.51 3.17 3.81 4.33-.04 1.24-.34 2.51.66 2.39 1.32-.44 4.72-1.93 4.01-5.67-1.24-3.63-2.22-4.61-4.2-5.36-1.97-.49-2.37.57-4.05 2.6-.09.09-1.09 1.03-.23 1.71M807.46 617.75c.04-.23.57-2.55-2.8-3.55.1-.11 1.37-1.58 4.37-1.2 2.85.84 2.6 3 2.56 3.55-.05.01-2.19.2-4.13 1.2M814.94 616.3c.05-.02 3.94-1.28 5.75-1.33-.17-.45-1.74-5.16-7.27-3.11.09.14 1.69 2.62 1.52 4.44M821.75 613.99c.01-.12.05-1.67 3.39-4.1-.11-.12-1.55-1.69-3.93-1.41-2.62.69-3.1 1.83-3.14 1.91.16.06 2.6 1.02 3.68 3.6M823.08 607.56c.07.02 1.98.51 3.4 1.81.05-.09 2.02-3.04 3.66-4.09-.25-.14-2.97-1.72-7.06 2.28"/><path fill="#5A3719" d="M713.05 597.78c.32-.35 8.95-9.8 14.41-9.06 5.1 1.31 2.65.58 8.24-.72 5.72-1.16 11.43-1.93 13.84-1.67-.18-.16-6.71-6.24-19.06-6.57-.05.03-8.51 4.05-14.57 9.17-.29-.22-11.14-8.62-23.26-4.47.02.02 12.76 7.1 20.4 13.32"/><path fill="#FFC221" d="m811.23 613.02 1.54-.52c.19.32 2.37 3.67.71 4.37-1.44.13-.94-.46-1.16-1.77-.32-1.26-.77-1.75-1.09-2.08M799.62 614.5c-.05.09-.9 1.5.82 1.13 2.12-.6 1.71-.08 4.03-2.43.11-.16 1.31-1.97 4.09-1.19.14.04 2.08.65 4.07-.63 1.85-1.39 2.22-1.37 3.22-1.37.98.03.91.28 2.22-1.16 1.46-1.31 3.42-.89 5.01-2.55 1.6-1.71 3.08-.74 0-3.41-.03-.04-.6-.8-.62-1.61.04.01 1.17.35 2.22 1.4 1.13 1 2.47.52 2.88.25.01-.14.3-3.76 3.03-7.95 2.86-4.05 2.89-4.27 1.21-4.1-1.81.15-4.34-.14-5.47.75-1.08 1.17-9.33 9.33-14.21 11.41-5.01 1.88-9.14 4.09-12.5 11.46M669.5 573.15c.04.02 14.88 6.46 18.33 8.74.04-.26.69-3.01-6-6.46.15 0 16.31.58 34 11.78.26-.29 8.22-8.97 35.56-6.58 0 0 .07-3.27.24-5.79-.24-.01-18.72-.6-36.54-15.54-.02.01-15.66 10.18-45.59 13.85M752.68 585.75c-.81-20.92 4.65-22.81 4.82-22.87.01 0 2.74 0 5.75.48-.08.14-4.41 7.56-3.4 22.57.03.18.46 2.15-3.44 2.49-3.85-.2-3.73-2.46-3.73-2.67"/><path fill="#5A3719" d="M756.68 599.49c-.09-.12-2.59-3.83-3.14-8.49 0-.09-.08-1.05 2.8-1.13 2.92.01 3.2-.42 3.96 1.81.73 2.24 2.57 6.75 2.95 7.36l-6.57.45"/><path fill="#FFC221" d="M762.82 588.89c-.25-2.73-.34-5.05-.31-7.93.31-11.66 1.5-10.67 2.16-9.24l2.92-.03c-.07-.39-1.68-12.61-4.63-5.3-2.39 7.68-2.28 12.47-1.99 18.47.2 3.44.52 5.55.79 6.84l1.06-2.81"/><path fill="#5A3719" d="M795.78 587.06c.2.03 5.41.5-3 4.22.02.41.17 13.71 10.63 3.36.02-.02 6.07-5.72 10.2-8.45.14-.09 1.88-1.16 1.85-3.35 0-.19.19-2.29-2.02-1.81-.05.01-1.67.18-2.83-.19-.1-.14-1.08-1.62-2.02-.98-.98.79-2.53.58-1.23 2.9 1.54 2.26 1.89 1.69 2.66.85.8-.76 3.83-2.97.98 1.07-3.27 3.45-5.14-1.03-6.25-2.4l-8.97 4.78M767.59 590.37l-2.5.01c-.07.14-1.17 2.67-2.27-1.49l-1.06 2.8c.04.19 2.78 15.01 5.83-1.32"/><path fill="#FFC221" d="M764.04 572.85c-.01.1-1.09 9.93.34 16.18 8.94-.08 17.88-.33 27.09-.78 0-.01-.3-7.15.07-16.89l-3.85.28c0 .02-.43 8.07-.03 13.03l-.64.06c0-.02-.41-6.92.04-13.05l-3.18.21c0 .01-.45 7.47-.11 13.11l-.6.04c0-.02-.38-6.49.08-13.11l-3.14.19c0 .02-.5 6.75.04 13l-.75.03c0-.03-.54-6.78.04-12.99l-3.48.18c-.01.04-.75 6.31-.04 13.07l-.71.04c0-.04-.68-6.38.08-13.07l-3.48.16c0 .04-.71 7.14-.11 13.07l-.67.03c-.01-.03-.47-6.86.18-13.07l-3.25.13c0 .04-.76 6.04-.15 13.08l-.71.02c0-.02-.46-5.19.15-13.07l-3.21.12M792.66 589.53c-.01-.21-.48-17.77 1.8-22.9 2.62-4.8 3.01-4.05 7.4-.64 4.39 3.33 9.93 6.74 10.83 7.16.99.39 2.04.66 2.17 3.96.03 3.33.45 4.17-3.29.52-.59-.61-2.32-2.43-3.57-2.98-3.18-.98.53.94 2 3.15 1.09 1.83 1.74 1.58-.82 2.76-2.61 1.22-11.66 6.17-16.52 8.97"/><path d="M802.15 575.77c-.15-.26-1.77-2.87.53-4.21 2.54-.43 2.68 4.66 3.11 8.75.06 3.54-3.03-3.26-3.64-4.54M798.5 591.87c-.21.13-2.66 1.5-1.01 2.84 2.03.37 7.19-4.75 5.44-4.9-1.84.64-4.41 2.06-4.43 2.06M802.45 585.93c.19-.04 2.32-.57 2.08.98-.61 1.5-1.36.76-1.82.39-.5-.32-2.12-.89-.26-1.37"/><path fill="#FFC221" d="M816.19 579.77c.05.41.76 6.24 5.02 8.04.19.03 2.25.52 1.98-2.42 0-.01-.46-2.45-.78-3.47-.5-.99-2-1.45-2.28-1.55-.18-.14-.43-.73.78-.41 1.22.39 1.36.43 1.29-.71-.17-1.09-.72-.64-1.89-1.18-.39-.29.02-.62.49-.59.53.09 1.4.36 1.53-1.99.02-.1.23-1.21-1.08-1.28-1.45-.02-1.31-.74-.88-1.01.58-.06 1.8.94 2.38-1.34.18-2.48-1.83-.75-1.74-2.05.56-1.19 1.9.37 2.26-1.05.27-1.51 1.47-2.16-.87-2.41-1.14-.17-.1-.82 1.21-.82 1.4-.16 2.21-2.2 3.04-3.25.97-1.01 5.29-4.85-.71-3.15-6.06 2.35-7.73 6-8.22 7.07-.4.95-1.94 5.69-1.53 13.57M830.29 583.3c.84-.28 1.44-.13 1.78.58.76 2.62-1.06 2.04-2.56 4.22-1.29 2.2-1.3 1.86-3.1 1.34-1.76-.81-2.42-3.88-2.47-4.11-.12-1.14.51-1.29 1.51-1.29.05 0 2.9-.06 4.84-.74"/><path fill="#FFC221" d="M823.74 582.7c.01.06.11.74 1.15.8 1.11-.02 3.9-.16 5.79-1.1.04-.02.58-.24.36-1.8-.01-.08-.01-.92-1.63-.39-1.67.57-3.84.52-4.68.4-.82-.08-1.33.17-.99 2.09M823.49 577.73c0 .17-.04 1.96 1.55 2.26 1.65.04 3.56-.24 4.44-.55.72-.29 1.67-.72 1.88-2.03.11-1.36.36-2.19-1.63-1.34-2.07.87-4.29.82-4.61.78-.35-.07-1.45-.4-1.63.88M824.22 573.24c-.01.02-.35 1.03-.34 1.99.19.96 1.12 1.11 3.31.89 2.23-.31 3.78-.91 4.09-1.91.17-1.05.62-2.04-1.01-1.57-1.73.57-3.62.87-4.54.6-.87-.36-1.31-.43-1.51 0"/><path fill="#5A3719" d="M901.05 568.77c0 .08.04 1.91 1.12 3.64-19.18 4.65-38.33 8.14-58.08 10.66.03-.04.76-.83 1.06-3.99 18.45-2.4 36.89-5.72 55.9-10.31"/><path fill="#FFC221" d="M824.69 569.9c-.04.15-.44 1.86.54 2.33 1.11.25 2.77.41 5.21-.38.09-.01 1.08-.06 1.61-1.85.4-1.73.38-.91-3.01-1.26-.03-.01-1.04-.23 2.02-.72.08-.01 1.6-.22 1.98-.61.4-.6 2.45-2.96-.41-2.65-2.97.49-1.48-.42 0-.71 1.53-.18 1.91.09 2.45-.59.44-.69.08-.26-.77-1.21-.78-1-.26-.73.34-.22.61.53.89.65 1.58-.22.54-.98-.41-1.74 0-1.79.53.18.72 1.21 2.66-.23 2.12-1.49 4.28-1.29 5.18-.72.87.63 2.49 1.11 3.9-.71.96-2.05-1.23-2.68-.31-3.25 1.19-.38 1.82-.06 2.35-1.32.24-1.41-1.54-1.99.37-3.25 1.85-1.79.39-8.31-.39-9.5-.05.05-2.22 2.32-4.94 8.44-2.68 6.37-3.97 9.38-7.59 8.5-5.25-1.32-7.46 1.93-8.42 2.98-.92 1.31 2.33 1.12.35 1.52-2.19.39-2.18.59-2.41 1.1-.2.53-.05.83.36.84.41.07 1.22.89-.11 1.13-1.42.12-2.2-.03-1.9 1.87 0 .03.02.38.81.43.78.12 1.05.97-.4 1.28-.93.18-1.02.6-1.05.77M830.06 589.06c-.06.07-.99 1.03.39 1.06 1.49-.06 2.11.14 2.64-.93.63-1.09 2.2-.95 1.09-2.24-1.39-1.16-2.08-.39-4.12 2.11"/><path fill="#FFC221" d="M836.06 564.33c.34-.48 4.39-6.3 8.88-3.42 4.03 3.55 4.42 4.08 4.49 4.16.08.11.43.42-.62 1.97-1.03 1.55-.08 1.27 1.18.28 1.22-.95 1.28-.35 1.87.49.65.81 1.33 1.11-.49 1.53l-5.87 1.02c-.13.03-2.52.8-1.34-.98 1.33-1.91 1.18-3.33.47-3.52-.64.1-.12.84-.47 1.71-.5.82-1.33 1.53-2.33 1.73-.99.23-1.74 1.1-.28 1.73 1.43.63-.1 1.21-.95 1.36-.81.14-4.55 1-.73 1.15 3.66.08-.11.34 2.46 2.28 2.86 2.47 1 6.95-.3 8.09-.04.03-1.28 1.08.33.64 1.66-.55 2.47-1 1.38.4-1.33 1.74-3.2 5.33-6.65 3.2-.07-.04-1.38-.62 1.15-1.29 2.38-.66-1.87-.71-2.91-1.22-.94-.85-3.65-3.94-1.91-4.1 1.89.1 1.2-1.04.09-1.53-1.08-.59-1.39-2.47-.09-2.37 1.3.37 2.72.98 3.76.85.99-.28.74-.7-1.43-1.34-2.23-.6-2.96-.6-2.55-3.17.81-2.44 2.66.45 2.3-1.23-.79-1.7-2.42-.61-1.52-3.19 1.14-2.54 1.34-1.69 1.85-1.36.55.19 1.26-.05-.11-1.36-.78-.92.01-2.06.34-2.51"/><path d="M839.53 565.51c0-.06-.02-.74.84-.82.85-.05.67-.48.9-.75.34-.09 2.31.34.39 1.83-.85.47-1.81.41-2.13-.26"/><path fill="#FFC221" d="M844.16 571.81c-.12.11-1.46 1.27-.16 3.51 1.24 1.83 1.25 2.38 1.15 3.76 1.58 2.14 54.48-9.93 55.9-10.31 0-.18.07-4.64 2.3-8.33-.09.03-30.59 7.51-59.19 11.37"/><path fill="#5A3719" d="M902 567.16c.01-.16.36-3.98 1.91-6.06 1.04-.99 2.01-.95 2.68 2.25.43 4.91-1.84 8.94-3.56 8.02-1.2-1.54-1.04-4.06-1.03-4.21"/><path fill="#7B3C20" d="M837.82 598.92c.05-.06 3.54-4.91 4.29-6.95.45.35 9.35 7.81 9.47-.82 0 0 .06-2.4.31-4.75.28-.02 3.28-.19 4.21-4.26l-9.42 1.31c-.07 0-.89-.09-2.44 2.27-1.72 2.59-4.19 4.91-7.26 3.61-.09-.09-1.05-1.09-2.36.14-1.2 1.38-1.24 1.66-.27 2.81.99 1.24 2.94 4.62 3.47 6.64M859.49 568.19l-5.52.76c-.03-.04-2.07-3.39-5.94-7.11-.09-.04-1.05-.42 1.06-3.28 2.17-2.92 2.81-5.4 2.94-6.68.06-1.27-.18-2.87.7-1.73 1.27 1.66 5.98 6.72 7.37 4.97.8-2.26.96-3.25 1.1-3.91.14-.75.26-2.55 1.15-.78.88 1.85 1.31 1.26 1.4 6.51 0 .04.25 5.13.73 6.96-.51-.11-6.53-1.72-4.99 4.29M835.52 556.27c.34.19 3.76 2.32 6.28-2.13 2.19-4.74 3.31-5.54 1.91-9.53-1.37-4.08-.06-5.99 1.23-8.06 1.27-1.9 2.08-1.81 2.36-8.48.42-6.7 3.38-9.43 5.04-11.83 1.79-2.6 5.09-5.76-.45-6.45-6.08-.36-16.78-2.55-20.18-8.2-3.19-5.4-4.22-2.08-4.37-1.63-.07.36-.87 4.7 1.96 12.51 3.04 7.74 5.52 12.36 8.36 14.67 3.02 2.24 5.2 3.12 3.98 8.81-1.47 5.64-4.06 15.6-6.12 20.32"/><path fill="#5A3719" d="M851.05 536.53c.02.38.85 13.18 8.13 17.22.03-.1 1.48-5.62 1.01-10.91.16-.01 2.19-.12 3.08 1.16 0-.3.05-3.62-3.36-4.8-3.33-1.52-1.83-9.51-.56-11.38 1.16-1.42.85-2.86 0-4.45-.83-1.65-1.09-3.62 1.85-3.42 2.93.24 2.45-1.43.73-3.18-1.71-1.83-1.69-3.76.78-4.51 2.67-.86 6.3-4.12 4.09-5.14-2.51-.62-3.19-1.33.11-3.46 3.42-2.17 4.95-3.83 2.47-3.91-2.59.05-4.12-.57-1.74-1.8 2.27-1.46-.3-3.61-3.31-3.5-3.12.6-8.62 3.22-4.14-3.06 4.29-6.64-6.62.14-2.13-4.52 4.55-4.5-1.44-1.79-2.53-1.53-.89.11-.88.17-.55-1.67.22-1.89-.57-2.38-2.08-1.11-1.41 1.34-1.4 1.35-1.35-1.13-.13-2.36-1.58-.47-2.74.49-1.27 1.07-3.49 3.67-4.82 2.71-1.12-1.43-1.59-2.62-4.99.51-3.34 3.1-2.58.79-2.47-.53.14-1.4 1.38-5.89-3.25-.38-4.87 5.4-.44-4.95-4.43-1.26-3.62 4.15-3.91 4.71-4.54 3.24-.63-1.62-1.14-2.65-5.19 1.16-4.03 3.66-1.1-1.81-.47-3.2.47-1.37 2.46-9.11-1.23-2.78-.12.26-1.42 4.14-5.44-2.71-.27.52-3.43 7.35-4.99 4.71-1.12-3.24-1.9-3.44-3.31-1.17-1.26 2.17-.45.04-.89-1.87-.59-1.98-.78-4.86-7.51 2.03-6.33 7.27 2.17 1.62-2.75 4.98-5.14 3.53-17.19 13.16-6.05 10.63 10.54-2.42-4.66 5.47-1.57 7.56 3.77 1.46 2.7 5.78 17.15-.72 14.59-6.65 12.15-2.21 19.56-7.33 7.2-5.08-1.57 1.19 8.24.11 9.33-1.57 2.46-.43 3.59 2.35 2.18 2.64 10.1 7.66 18.16 7.59 7.92-.69 9.64-4.54 7.51.32-2.24 5.09-3.06 6.96-4.37 8.85-1.46 1.98-4.78 6.11-5.1 12.61-.44 6.48-5.76 8.44-3.93 15.23l5.33-8.03"/><path fill="#5A3719" d="M863.96 549.51c-.1-.08-1.61-1.29-1.75-4.42.08.01 1.15.08 1.75 1.06.31-.56 4.14-7.15-.88-9.33-5.25-2.09-2.78-8.11-.88-9.07 1.86-.49 2.11-1.08.61-3.64-1.52-2.5-1.44-2.58 1.64-3.96 3.03-1.45 2.66-2.07 1.28-2.9-1.34-.82-2.38-2.18-2.4-2.22.59-.48 7.87-6.3 5.86-8.74-2.56-1.82-.25-1.78 2.51-4.75 2.5-3.01 2.82-3.53 3.21-4.57-.05.02-2.44.81-4.3.8.16-.16 1.94-1.72 0-3.86-2.24-2.1-2.97-3.71-6.5-2.11-3.45 1.68-2.35.08-.97-2.21 1.27-2.32.76-3.09-1.72-3.21.01-.04.35-1.97 2.13-4.9-.19.06-4.46 1.16-6.24.58.07-.08 1.7-2.07 2.02-4.24-.08.04-2.54 1.5-5.83 1.82.06-.09 1.73-2.54 1.9-4.59-.1.05-5.42 2.86-8.25 5.91-.04 0-.52-.07-1.01-.82-.5-.82-.73-1.45-7.03 2.17.02-.1.81-3.73 2.21-5.66 1.39-1.89 1.4-4.59-8.45 5-.06-.04-1.2-.87-2.39-4.7-.03.05-2.17 4.22-3.7 5.93-.09.06-1.21.91-1.18-1.65.05-2.52-.91-.74-1.96.25-1 .98-1.62 2.72-1.18-2.49.32-5.34-1.21-6.06-1.34-6.13-.1.19-3.11 5.86-4.77 7.05-.03-.04-3.06-3.9-4.31-6.57-1.11-2.73-1.1-3.68-2.24 1.27-1.26 5.01-2.44 5.49-2.53 5.53-.05-.05-1.77-2.03-2.13-3.22-.01.03-.37 1.29-.95 1.98-.06-.09-1.51-2.47-1.62-6.44-.2.17-10.02 8.75-11.72 13.59-.06 0-9.78.04-13.96 1.11.04-.15 1.12-4.16 3.59-6.73-.19-.03-2.31-.24-2.69-3.86.06.01 2.01.21 3.36-.25.97-1.03-1.51-4.93 1.46-5.76 3.41-.12 5.12 1.64 3.87-4.03-1.39-5.83-.83-5.83-.79-5.85.41.3 5.21 3.69 6.56 2.97.74-1.44-.62-3.3 4.32-2.81 4.97.33 3.74-2.71 5.6-3.47 2.03-.23 2.95 1.35 1.8-10.94-.9-12.36 5.95 5.56 1.12-12.77-.06-.23-1.38-5.21-4.26-7.74-.06.28-.51 3.84-4.07.84-3.87-3.35-9.52-4.02-7.25-7.23 2.82-3.33 3.95-6.78 3.3-9.35-.24.33-3.03 4.5-9.05 1.98-4.68-1.94-5.37 2.12-10.14 1.36 0-.07.13-1.53 4-6.05 3.73-4.33-2.24 1.22-4.71 2.39-2.49.78-3.07.37 2.02-5.4 5.37-5.9 14.97-15.8 13.96-23.82.2.3 2.17 3.62 8.74.47 6.49-3.6 10.81-5.21 12.95-9.83 2.11-4.68 6.83-9.67 8.19-10.9 1.37-1.13 2.89-2.06 1.06 2.45-2.01 4.59-5.2 11.96-13.9 17.98-8.75 5.88-12.02 9.56-13.68 12.31-2 2.9-9.26 8.56-4.37 7.71 5.41-1.2 13.86-.82 9.92-2.26-4.54-.98-8.57 1.59-5.1-3.37 3.87-5.16 4.57-6.7 10.15-10.49 5.77-4.06 11.45-11.52 11.21-3.9-1.03 7.98-10.85 17.1-13.62 19.99-2.51 2.74-1.72 2.28-1.57 3.29 0 1.13-.43 3.05-1.46 4.25-1 1.15-.75 2.06-.45 4.28.22 2.23-.21 2.96.51 3.34.84.28 1.48.38 1.79 1.91.29 1.54.76 1.65 2.33 1.36 1.59-.29 2.36-.21 2.57 1 .24 1.2 1.38 2.67 1.71-1 .26-3.73 1.11-4.44-1.59-2.54-2.82 1.9-3.27 1.44-3.28-.35.02-1.73-.23-1.36-1.4-1.37-1.18-.27-1.49-2 .5-3.85 2.12-1.55 1.96-.23 4.57-3.29 2.52-3.19 2.56-3.92 2.94-5.34-.04-1.07-3.45 3.9-5.57 5.67-1.96 1.2-1.47-.57-1.1-3.74.75-3.26 4.9-7.04 7.37-7.7 2.59-.13 6.71.75 5.05 5.31-2.59 4.69-7.86 9.37-5.63 9.99 2.68-.04 2.98-1.21 4.56.32 1.29 1.96.2 5.3-.58 7.6-.78 2.11-2.18 4.6-2.81 5.23-.07-.18-2.46-6.34-2.69-1.13.02 5.49-.47 7.14 0 7.47.6.27 3.69 2.44 4.66 2.59.41.54-4.88 4.07-2.69 4.58 2.88-.22 6.46-2.21 8.26-6.2-.19-.05-5.04-1.29-7.51-3.7.35-.17 5.75-2.52 4.51-10.72.48.14 5.61 1.39 3.54 5.76-2.85 4.11-4.2 3.76-1.99 4.59 2.32.85 3.46 1.59 3.47 1.59.12.08 1.43.82.67 2.79-.9 2.11-.95 4.3-.16 4.43.96-.33 3.18-1.89 1.2-3.7-1.98-1.82 2.3-1.57.51-3.12-2.03-1.31-2.53-1.62-3.09-2.3.23-.73 25-24.39 12.28-15.27.16-.48 2.72-7.73 6.53-9.03 3.88-.18 4.01 3.11 1.93 6.92-2.16 3.66-3.63 8.23-8.63 10.41.32.18 6.84 3.54-1.32 12.96-.14.11-1.66 1.32-1.18 2.24 1.09.28 5.29-3.53 6.46-6.18.78-2.37 1.8-4.09 3.74-5.79 2.01-1.75 11.25-12 14.38-19.32 2.92-7.24 3.65-7.61 9.27-14.85 5.61-7.26 4.67-5.88 5.35-7.51.67-1.72 1.1-4.01 3.58-6.68 2.58-2.54 12.52-12.46 15.74-16.33 3.17-3.88 9.44-11.26 12.33-16.81 3.1-5.85 9.95-13.35 12.07-13.28 1.67.96-.07 4.51-4.56 10.62l-16.97 22.95c-1.91 2.46-10.96 13.32-14.38 15.05-3.37 1.54-3.12 2.82-5.12 6.43-2.09 3.51-6.84 10.86-8.41 12.96-1.74 2.2-5.11 6.35-5.64 8.95-.15 2.59.59 2.68-2.4 7.21-3.2 4.58-12.04 14.68-15.28 16.8.44.15 5.18 1.48 2.32 7.55-3.46 5.83-3.19 5.06-3.48 5.43.37-.12 8.17-3.18 2.54 7.13-.02.05-1.25 2.77 1.57-.36 2.77-3.77 1.74-7.05 1.35-7.85.14-.15 4.58-4.34 9.98-5.75 5.34-1.15 5.14-1.5.37-2.55.27-.48 3.05-5.62 6.28-4.04 2.77 2.43 2 3.85-1.09 6.81-3.11 2.7-7.42 4.62-10.83 7.61.35.03 5.86.39 9.71-3.57 3.46-4.02 3.55-2.57 4-1.92.46.61.77 1.51-.67 4.83-1.51 3.25-1.62 3.41-1.57 4.05.04.79-.13 2.5-3.18 3.96-3.16 1.45-4.28 3.06-3.4 5.05 1 2.21 1.08 6.21-1.53 6.73-2.53-.3-2.01-2.7-2.92-3.89-1.13-1.04-2.27-2.25-6.98 1.57-4.72 3.65-4.87.37-4.71-1.91-.24.3-2.63 3.56-5.42 1.05-2.23-3.08-.41-4.36 1.19-6.32 1.71-1.94 7.06-5.8 3.74-5.01-3.82 1.17-8.23 2.02-9.86-1.38-.82-3.58 2.29-3.54 3.17-3.33.76.45 2.8 2.49 3.14-.93.47-3.65 3.58-4.36 2.62-5.04-1.45-.26-3 1.81-3.67 2.93-.21-.35-2.43-4.23-7.02-2.49-4.13 2.3 1.23.95 2.54.93 1.08.44.52 2.88-3.4 8.42-3.77 5.2-2.2 3.73.75 3.23 3.25-.4 9.42-1.43 5.83 3.85-4.22 5.31-5.66 7.38-7.89 7.1-1.94-.8.09-2.58 1.2-3.66.9-.98 1.54-2.31-.53-1.12-2.08 1.29-2.64 1.54-4.33-2.15-1.56-3.67-1.01-2.68-.26-5.28.79-2.79 2.22-5.3.37-4.36-1.86 1.18-1.69 1.23-1.53-1.73-.09-2.98-1.96-3.31-2.13-3.35.03.12.75 2.71.07 4.8-.81 2.03-.85 2.55.49 2.97 1.43.48 2.49 1.6.78 3.69-1.81 1.91-1.62 1.69-.44 2.57 1.28.99 2.66 1.78 1.04 4.51-1.68 2.59-.37 1.78.6 1.61 1.06-.01 2.72.63 2.96 3.05.02 2.39-.13 2.91 2.79.38 3.37-2.55 8.19-3.09 8.67-.01-.13 3.14-.72 3.92 2.36.89 3.42-2.73 4.18 1.47 6.61-1 2.24-3.02 3.29-5.22 5.94-1.62 2.37 3.96 1.75 5.11-1.3 8.74-2.87 3.58 1.38.43 3.73-1.55 2.62-2.03 8.36-3.99 12.34-2.73 3.74 1.4 4.62.81 7.39-1.32 2.82-2.13 3.94-2.65 8.15.05 4.27 2.7 7.08 2.66 9.38 2.09-.06.05-4.52 3.35-9.6 5.14-5.15 1.73-7.5 3.41-8.64 4.71.16.1 2.79 1.85 3.66 4.84.13-.05 3.21-1.16 4.98-.8-.06.24-.72 3.17 1.19 4.77 2.17 1.31 3.33 1.55 1.95 4.36-1.28 2.88 2.1.71.15 4.74-2.2 3.98-2.74 5.72-2.88 8.53-.03 2.81.44 3.02-1.5 3.78-1.73.98.1 3-.56 7-1.23 3.76-6.05 4.65-6.2 14.19.02-.06 1.62-4.91 4.82-9.87 3.29-4.89 3.38-5.25 3.33-7.74-.09-2.44-.23-1.88 1.53-4.13 1.5-2.42-.53-3.31.97-6.53 1.67-3.13.3-2.14 2.28-5.39 1.77-3.35-1.51-2.48.3-5.91 1.41-3.59-4.4-4.47-2.99-7.05 2.2-2.41 5.54-5.29-6.35-2.58.15-.35 2.8-6.58 12.96-8.09-.08.1-2.42 3.15-2.87 5.77.01.01 1.15.49 1.86.58 0 .04-.43 1.88-2.31 4.65.2.11 4.98 2.84 6.2 4.97-.11.08-3.03 2.2-4.07 4.33.03.05 1.31 1.86 1.9 4.62-.26.03-3.26.29-4.11 4.09-.63 3.8-1.44 1.57-1.56 3.73 0 2.24.08 2.95-1.16 3.67-1.15.8-.32 2.11 0 3.4.22 1.21.56 3.83.45 4.79-.02 0-1.8.5-2.69 1 .03.33.38 4.75-1.61 6.44-2.04 1.43 1.05 1.41-1.16 2.67-2.3 1.12-2.03 1.18-4.86 8.77 0 0 2.41-2.4 4.94-5.2 2.39-2.89-.05-1.43 3.96-8.04 4.07-6.59 3.46-6.77 3.06-9.54-.32-2.84-.34-4.92 1.08-8.05 1.52-3.27 2-5.87 7.29-7.15-.08-.21-1.62-4.09-3.51-5.2.06-.07 2.55-2.84 5.23-4.06-.06-.08-2.38-3.07-7.18-5.81.03-.03 3.82-5.66 4.9-8.09-.05.02-1.79.76-3.29.75.02-.06.74-2.3 4.26-6.5.09.1 1.72 1.96 1.83 4.69.2-.2 6.06-5.95 9.61-6.87.03.14 1.62 5.41-6.77 19.19.06-.01 5.18-.84 7.51-1.79-.04.19-1.36 5.67-7.66 10.96-5.94 5.37 1.06 6.52-5.15 7.79-6.39 1.25-4.69 3.33-4.34 8.04.19 4.51.36 9.09.26 10.4-.4-.06-4.69-1-5.12 5.81-.17 6.96-2.52 8.9-3.25 9.77-.04-.04-1.51-1.39-3.81-2.08-.04.1-3.37 8.96-8.49 15.13"/><path fill="#7B3C20" d="M856.49 464.3c.11-.04 1.66-.62 4.82 1.25 3.29 1.34 5.73-3.34 2.63-4.66-3.19-.98-.16-2.65 3.09-.29 3.16 2.49 4.1.91 5.32-.63 1.23-1.47 2.34-2.21.39-3.81-1.92-1.66 1.3-1.22 2.97-.32 1.5 1.17 1 2.46.73 3.04-.14.56-.57 4.79 2.69.07 3.07-5.06 4.47-9.36 4.54-11.52.1.07 1.52.99 1.91 3.6.53 2.37 2.46-1.86 3.36-3.71.79-1.74 1.99-5.51 1.97-8.27.15.26 1.79 3.55 5.15-1.36 3.08-5.1 1.68-2.29 5.44-4.45 3.74-2.52 8.19-7.4 10.87-12.41 2.62-4.8 2.57-2.41 5.95-4.26 3.36-2.39 9.47-10.26 10.42-14.05.58-3.67.6-5.5-.45-4.14-.93 1.38-.6.52-1.96-.31-1.56-.37-3.32 2.45-3.47 2.7.15.12 1.86 1.33.5 2.93-1.62 1.68-3.05 4.6-6.05 4.76-3.09.37-5.86 5.23-6.06 5.6.19.17 2.33 1.9-.89 5.03-3.44 2.93-2.95 3.29-5.05 1.95-.05.1-3.83 7.25-5.83 9.38-.07.01-.92.13-1.68-.85-.03.05-2.48 4.25-3.64 5.45-.06-.05-1.5-1.48-2.92-1.87-.04.09-3.01 5.49-5.38 7.84-.03-.06-.75-1.54-2.3-2.53-.03.21-.91 6.34-5.94 11.67.02-.13.27-1.63-2.24-3.56-.11.15-6.47 8.65-8.91 10.25-2.46 1.05-.33-1.45.16-2.62.46-1.32 1.76-4.2-1.17-5.25-3.05-.47-2.64 1.24-3.25 1.98-.72.44-.69-.49-2.81.21-2.01.91-1.79 1.89-2.63 2.62-1.19.55-4.11.11-4.32 3.27.33 3.38 1.66 4.97-1.28 7.62-2.97 2.58 1.07 1.28 5.32-.35"/><path fill="#5A3719" d="M869.44 452.47c.04-.31.57-3.9-1.91-5.73.49-.21 16.36-6.73 4.15-13.27.61-.31 14.35-7.35 11.6-13.62-3.95-5.54-6.8-3.66-7.6-3.26-.11-.22 2.94-4.1 4.24-4.3 1.49.41 12.52 3.77 10.09-1.05-3.13-4.7-2.87-4.43-3.36-5.91.19-.04 3.79-.87 10.14 5.49.04-.07 1.16-2.12 1.12-5.46.16.02 4.14.58 5.72 1.84.02-.07.63-2.21.45-3.34.14.07 3.5 1.7 5.04 4.2.04-.07 1.6-2.56 2.02-5.02.13.03 3.55 1.06 4.71 2.27.04-.09 1.09-2.54.78-5.69.48.03 5.59.45 7.07-5.03.38 0 5.74-.4 2.19 4.45-5.31 5.95-.48-.81-5.89 5.99-4.25 5.6-6.43 10.18-8.49 10.29-1.59.38-3.02 5.48-5.25 3.84-2.06-2.17-2.02-1.06-3.42 2.42-1.46 3.36-3.58 7.01-3.58 7.02-.02-.01-1.06-.58-1.92-1.48-.01.01-1.27 3.04-2.79 5.56-.05-.06-1.25-1.77-3.2-2.77-.02.04-3.16 5.57-4.99 7.81-.07-.08-1.77-1.8-3.7-2.31-.01.25-.47 6.33-4.03 10.93-.05-.11-.79-1.81-3.2-2.76-.03.07-1.99 4.45-5.99 8.89"/><path fill="#5A3719" d="M860.52 444.21c-.14.19-1.81 2.36-.73 4.62 1.38 1.81 1.41-.41 3.09-1.24 2.01-.76 22.07-9.32 3.64-13.53.04-.05.78-1.04 4.04-2.23 3.68-1.42 14.45-7.71 9.53-12.65-5.88-3.79-9.79 3.73-5.44-3.67 3.39-6.55.94-8.19.73-8.36-.03.03-10.98 12.31-13.34 14.65-2.65 2.63-5.62 6-1.8 7.51 4.39.16 6.52-6.68 7.29-5.78-.18 1.8-7.52 9.89-7.01 12.78 1.2 3.01.95 5.1 3.09 4.36 2.21-.74 7.84-.35 3.19.61-4.75.95-6.19 2.82-6.28 2.93"/><path d="M868.04 428.42c-.04.04-1.92 2.11.61.78 2.91-1.65 7.03-3.86 6.62-5.64-1.31-1.24-4.03 1.11-7.23 4.86"/><path fill="#7B3C20" d="M901.33 390.66c.3-.09 9.3-2.77 13.62-.71 4 2.5 5.9 4.06 7.06 4.34-.03.37-.1 4.56-6.33 3.46 0 .04.26 2.25-.34 4.86-.06-.04-2.26-1.23-4.93-1.47-.01.03-.49 1.98-1.29 3.37-.12-.13-2.68-2.7-5.83-3.23 0 .02-.65 2.02-1.18 2.91-.14-.07-3.16-1.44-5.82-.91.01.08.39 2.53 0 3.84-.28-.21-6.73-5.21-13.23-3.14 0 .01 3.07 5.22 4.99 7.76-.52.06-11.92 1.71-10.54-8.11 1.95-9.68-.09-7.03 8.07-8.82 8.23-1.99 15.75-4.15 15.75-4.15"/><path fill="#5A3719" d="M842.19 429.32c-.1.14-1.29 1.67 0 3 1.83.5 6.08-4.22 7.12-5.44.76-.74 2.37-1.1 0 1.94-2.47 2.98-4.92 6.15-6.56 9.14.13-.07 8.1-4.54 13.79-11.94 5.34-7.51-.22-2.2 9.03-10.16 9.25-8.32 14.23-18.61 9.13-16.87-4.88 2.45-9.51 10.71-13.34 14.63-4.01 3.75-5.83 4.57-5.43 2.71.82-1.73 3.3-1.76 8.8-8.6 5.25-6.95 4.25-6.32 4.2-8.39-.06-2.27-1.82-6.45 6-14.21 8.11-7.67 32.52-33.9 35.09-41.69-.1.05-7.11 3.37-16.88 15.52-9.61 12.21-14.73 17.79-17.36 19.68-2.67 1.75-2.3.95-4.05 4.11-1.81 3.21-11.25 17.59-12.95 19.8-1.73 2.25-2.18 3.42-2.39 7.24-.42 1.77-10.76 14.71-14.2 19.53"/><path fill="#5A3719" d="M875.15 396.97c-.12.1-1.72 1.41-3.64.81-1.7-1.23-1.22-5.76 3.08-10.28 4.39-4.14 12.17-10.56 16.15-12.44-.02.16-.64 6.81-12.95 15.72.04.23.64 3.09-2.64 6.19"/><path fill="#AA5323" d="M879.53 391.52c0 .04.3 1.56 0 3.21.43-.05 22.43-2.61 34.92-25.6-.11.05-16.13 7.09-22.82 13.89.07-.13 4.15-7.73 16.32-17.3 12.23-9.62 17.08-18.29 18.27-22.68-.19.15-15.42 12.08-22.81 14.48-.05.02-1.38.39-2.86 1.84-1.39 1.55-11.36 13.83-13.9 16.23.2-.08 5.2-2.13 7.51-5.03-.08.3-3.94 14.78-14.63 20.96"/><path fill="#5A3719" d="M835.41 417.96c-.22.25-2.63 3.02-1.74 4.55 1.44 1.21 3.15 1.22 7.88-4.64 4.77-6.24 15.25-20.04 8.54-19.95-.52.06-8.15.75-8.54 8.09-.13 7.53-5.43 11.28-6.14 11.95M815.01 416.28c.43.32 5.2 3.63 3.64 8.06.41-.52 17.28-22.36 12.84-26.9-5.5-3.12-8.59 4.64-7.79 5.87 1.45.49 3.62-1.13 2.91.48-1.14 1.75-10.46 11.55-11.6 12.49"/><path fill="#5A3719" d="M810.36 410.09c.26.09 3.54 1.16 4.09 3.45.92 1.96 11.1-12.33 8.74-17.95-1.95-2.34-7.28-2.72-8.18 2.42.38 5 5.42-1.06 3.7 2.72-2.99 5.07-7.42 8.47-8.35 9.36M852.32 392.81c-.19.23-2.26 2.61-.26 4.01 2.37.8 3.59-1.34 4.82-3.13 1.19-1.62 6.47-8.26 7.96-12.06 1.43-3.8 3.13-5.28 5.21-7.57 2.06-2.24 16.11-15.22 25-28.27 8.73-13.12 5.13-9.3 14.18-18.85 9.12-9.7 14.87-17.87 16.93-26-.02.02-4.11 3.36-7.9 7.74-3.74 4.48-12.1 14.05-13.73 15.57-1.77 1.42-3.9 2.37-5.27 4.41-1.15 2.17-1.22 4.15-5.5 10.31-4.49 6.18-26.99 33.21-29.7 36.75-2.01 2.71-7.45 10.72-10.15 14.73l-1.59 2.36"/><path fill="#AA5323" d="M834.14 403c.11-.09 2.4-2 7.1-2.52 4.76-.91 22.67-27.45 28.25-33.96 5.27-6.02 21.78-26.37 24.14-29.99 2.13-3.66 2.76-6.78 4.56-9.18 2.03-2.21 3.66-2.63 8.22-7.37 4.71-5.08 25.47-28.96 24.74-39.24-.13.15-32.17 36.68-39.46 46.82-7.54 10.59-28 34.46-31.61 38.3-3.59 3.91-6.63 9.78-12.71 17.69-6.22 7.92-11.97 14.48-13.23 19.45"/><path fill="#AA5323" d="M827.42 394.63c.45-.12 5.33-1.46 6.72 2.18.04-.03 12.51-13.93 15.62-19.33 2.76-5.47-.89-1.87 6.28-9.7 7.18-7.82 31.15-36.22 34.75-41.36 3.49-4.98 9.92-12.2 15.17-18.53 5.5-6.54 25.18-26.28 23.4-37.15l-18.39 22.67c-3.51 3.87-4.63 2.86-8.22 7.38-3.47 4.66-10.89 14.05-12.33 16.63-1.48 2.66-12.87 17.49-18.46 23.89-5.65 6.35-18.12 18.82-24.22 26.97-6.08 8.25-17.8 23.26-20.32 26.35"/><path fill="#AA5323" d="M808.92 394.48c.2-.01 2.76-.15 3.9 1.25.31-.39 5.13-6.73 11.46-1.45.07-.08 21.3-23.11 23.84-28.66 2.31-5.37 5.57-6.12 14.12-16.16 8.48-10.08 13.72-14.87 19.36-22.13 5.57-7.33 10.37-15.2 14.35-19.92 4.25-4.93 13.77-16.44 12.48-24.08-.03.03-8.1 8.87-13.6 18.27-5.57 9.31-4.71 2.61-10.39 10.53-5.51 8.09-13.94 19.06-20.93 25.31-6.9 6.25-2.89 4.63-7.84 10.16-5.09 5.35-4.69 4.65-6.58 5.55-1.93 1.06-4.55 3.23-6.58 6.53-1.98 3.27-6.85 8.09-12.33 13.1-5.52 5.04-18.72 17.54-21.26 21.7"/><path fill="#AA5323" d="M815.46 378.41c-.07-.2-1-2.94.89-5.77 2.1-2.74 5.65-9.16 6.45-13.22.6-3.96.17-3.29 6.17-7.46 5.99-4.24 19.52-15.08 27.29-23.02 7.66-7.92 19.29-20.9 21.75-23.99 2.42-3.07 8.23-10.13 10.63-13.36.06.23.93 3.86-1.44 7.82-2.64 3.68-12.51 15.52-14.12 17.37-1.65 1.88-10.8 12.11-13.56 14.81-2.84 2.67-9.68 8.81-12.22 11.98-2.42 3.23-2.18 4.08-13.16 13.09-11.02 8.98-11.46 9.57-11.17 10.19.63.11 4.94-2.84 7.62-5.26 2.4-2.19 11.26-9.28 14.07-12.59 2.71-3.37 7.26-8.71 9.19-10.61 1.94-1.85 18.11-18.4 22.87-24.2 4.76-5.93 5.83-7.42 6.95-7.09 1.14.52 2.49.21.56 3.42-2.1 3.21-8.73 12.61-11.21 15.5-2.56 2.85-10.44 10.9-12.61 12.9-2.07 2.08-3.11 4.91-4.26 6.43-1.3 1.51-4.84 5.42-9.19 7.73-4.23 2.39-5.25 6.5-8.02 9.67-2.95 2.99-23.18 20.75-23.81 21.43.05-.1 1.08-1.76.33-5.77"/><path fill="#AA5323" d="M885.86 303.41c-.08.12-.99 1.49-.5 2.25 1.05.93 3.33 2.63 7.17-2.89 3.57-5.68 13.04-18.72 16.09-22.18 3.11-3.54 4.38-6.06 4.42-9.53-.01.02-14.53 15.1-27.18 32.35M905.93 296.17c.02-.07 2.32-5.6 7.73-12.23 5.51-6.52 13.63-16.29 14.86-18.35.13.19 1.75 2.14-2.36 7.56l-13.73 16.84c-1.05 1.42-2.71 3.49-6.5 6.18"/><path fill="#7B3C20" d="M794.21 371.76c-.46.39-5.44 4.49-3.92 7.58 2.5 2.49 5.17 1.58 6.78.61 1.38-.88 3.91-2.01 4.32-2.21.63-.32 5.31-2.8 7.06-6.3 1.49-3.51 4.9-7.73 7.79-10.94 2.87-3.34 3.74-5.91 3.48-8.03l-25.51 19.29M757.89 412.2c.25-.19 3.98-3.15 10.15-1.59-.01-.06-.34-1.86-1.18-2.94.31-.13 6.68-2.89 8.74-7.31 1.63-4.39 1.85-3.6 3.31-4.88 1.72-1.74 10.5-12.22 9.98-14.84-1.03-2.27-1.46-5.11-2.19-6.32-.02.04-2.05 3.84-11.43 10.7-9.52 6.73-19.73 11.76-27.52 25.82-7.55 14.3-6.86 22 2.46 25.69.19-.15 6.41-5.32 22.54-4.35 16.07 1.48 21.25 8.59 22.42 10.21 1.11 1.6 4.03 6.33 1.12 15.9.24.11 2.85 1.51 3.47-2.59.31-4.16.46-3.31 1.18-2.69.8.55 1.53.62 1.29-2.58-.37-3.28-1.57-10.08-2.91-12.57-1.35-2.34.1-1.43 1.12-.96 1.09.64 4.03 3.73 2.29-2.84-2.15-6.58-2.5-3.37-2.57-2.92-.1.45-.37 1.97-4.82-2-4.49-4.08-8.3-5.95-11.33-6.97-2.85-1.02-1.01-1.12.84-2.06 1.88-1 3.88-1.68 4.88-4.35-.09.03-1.64.6-4.93-.63-3.47-1.28-9.28-1.08-14.75 4.34.12-.64 1.53-7.35-3.08-7.56-4.82.63-7.85.64-13 6.05-.01-.32-.09-7.76 4.43-12.53 4.77-4.21 4.01-1.99 6.72-2.96 2.62-1.54 2.79-4.48 1.74-5.91.19.03 5.92 1.13 16.53-11.14-.14.26-5.56 9.87-12.34 12.63-.07.33-1.08 4.91-7.22 6.76-6.09 1.81-5.99 5.84-5.94 7.39"/><path fill="#5A3719" d="M740.2 460.99c.07-.58 3.02-23.84 19.95-26.77 14.93-1.88 19.45.08 22.5 1.25 3.41 1.28 9.57 3.25 7.36 6.88-2.95 3.3-4.29 2.93-4.41 2.91.24-.4 2.96-4.6.3-5.79-2.99-.39-3.19 1.61-3.63 3.9-.4 2.16-.68 4.46-2.05 6.27-.12-.17-1.33-2.06-3.63-.11-2.01 2.26-.38 2.11.56 1.77.94-.44 1.87-1.04 1.76.74-.33 1.95-1.43 4.76-4.93 7.67-3.52 2.68-3.33 2.53-7.51 3.6-4.26 1.18-7.95 3.43-13.42 9.81-5.67 6.24-10.86 4.39-12.37-2.7-.91-6.05-.49-9.38-.48-9.43"/><path d="M759.57 459.95c.11-.35 1.38-4.48-1.29-7.07-.47.11-8.31 1.98-11.54-1.4.13-.02 9.5-.97 15.69-4.22 5.87-3.68 4.29-5.38 2.13-6.03-2.37-.28-5.5.85-6.28 3.51-.07-.18-1-2.51.34-4.59 1.72-1.87 3.69-2.22 6-1.5 2.23.84 3.91 1.88 11.04-3.34.29.08 3.63 1.01 4.15 4.76.07 3.76-.3 5.23-.62 5.88-.37.67-.82 1.59-1.68 1.64-.92-.08-1.8-.27-2.97 2.33-1.06 2.68-1.77 4.8-3.49 6.69.13-.52 1.86-7.43-3.07-9.78-.15.12-4.19 3.29-7.51 3.86.28.37 3.75 4.69-.9 9.26"/><path fill="#5A3719" d="M768.88 444.9c-.14-.21-1.81-2.55.61-3.29 2.86-.16 5.64 1.78 5.33 4.2-.99 2.2-3.4 2.23-5.94-.91"/><path fill="#FFF" d="M914.56 381.59c-.34.26-4.3 2.89-.34 5.89 4.39 2.72 6.5 5.15 9.7 5.43 3.43.15 6.18.52 6.45 4.93-.13 4.41-.69 6.24-2.41 9.88-1.49 3.69.74 3.86 3.25 1.46 2.32-2.5 4.23-4.17 5.77-5.89 1.61-1.67 3.93-2.61 1.74-.06-2.4 2.48-4.67 4.14-1.74 3.32 3.13-1.02 20.51-7.49 24.61-10.72 3.96-3.33 8.28-5.86 9.08-12.76 0-.1.26-2.88 1.57-4.88 1.31-1.93 2.46-5.05.31-2.29-2.18 2.96-3.48 4.31-4.01 4.1-.4-.44-.49-.71.98-2.35 1.56-1.55 2.23-1.14 3.7-4.49 1.37-3.37 1.25-2.91.51-3.61-.87-.72-2.12-.79-1.52-2.49.71-1.83 1.67-5.82-1.77-2.22-3.28 3.88-9.82 12.46-12.72 14.8-2.97 2.22-5.3 4.31-9.3 7.04-4.04 2.73-6.5 4.82-10.84 9.63-4.54 4.54-3.84-.18-3.25-1.31.12.21 1.41 3.1 6.01-3.37 4.47-6.67 2.84-1.48 13.64-10.39 10.63-9.21 8.18-8.85 12.26-13.68 4.5-4.92 7.78-6.49 5.23-9.37-2.97-2.68-3.19-2.86-7.02 3.08-4.02 6.1-14.13 16.85-20.44 19.7.51-.49 23.34-23.02 21.63-25.03-2.54-.99-5.05-1.62-6.8-1.52-1.72.18-2.08-.13-6.01 3.75-3.89 3.94-4.54 4.69-5.65 5.32-1.14.63-4.28 2.74-8.97 7.64-4.61 4.91-7.03 7.1-10.12 10.68.06-.18 2.2-6.27 11.62-13.9 9.71-7.68 14.06-12.67 13.3-13.25-1.15-.16-3.28.2-5.19 1.25-1.81 1.04-1.26.34-7.06 5.62-5.75 5.29-3.34 3.68-8 6.71-4.64 3.07-6.58 5.03-8.9 7.16.03-.05.98-1.93 4.1-4.67 1.44-1.5-1.66-.96 2.72-2.83.37-.13.79-.17 1.26-.48 6.15-4.63 11.71-9.31 11.17-9.68-1.13.2-6.38 1.54-12.33 7.02-5.67 5.57-3.1 3.49-5.12 4.69-1.99 1.44-6.19 6.27-7.7 8.33-1.47 1.99-3.39 3.8-3.4 3.81"/><path fill="#5A3719" d="M773.39 441.15c.13.05 2.04.81 2.8 2.93.79 2 1.83-.96 1.91-2.02-.19-1.27-1.22-4.8-3.87-3.07-2.35 2.14-1.29 2.01-.84 2.16"/><path fill="#7B3C20" d="M767.14 483.88c.17-.11 4.66-2.94 8.8-3.09-.11-.56-1.54-6.88 1.23-6.48 2.78 1.14 2.05.75 2.58.6 0-.07.03-5.01-.56-7.07.03.01 2.83.67 5.77.62-.11-.3-2.42-6.81.28-12.39.11.28 1.67 4.29 5.4 5.64v-4.24c.11-.02 2.1-.4 3.96.61 1.98.37 2.95-12.87-1.96-16.35-.07.15-1.23 2.62-6.05 4.57-4.8 1.82-4.78 2.9-6.76 8.07-2.11 5.02-3.63 5.25-7.76 8.96-3.93 3.98-6.44 10.9-6.72 11.68.08.13 1.9 3.37 1.79 8.87"/><path fill="#999" d="M927.96 370.73c1.62-1.19-1.68-.91 2.71-2.83.38-.13.8-.17 1.26-.48 6.16-4.63 11.72-9.32 11.18-9.68-1.13.2-6.38 1.54-12.33 7.02-5.67 5.57-3.1 3.49-5.12 4.69-1.99 1.44-6.19 6.27-7.7 8.32-1.47 2-3.39 3.81-3.4 3.82-.34.26-4.3 2.89-.34 5.89 4.39 2.72 6.5 5.15 9.7 5.43 3.43.15 6.18.52 6.45 4.93-.13 4.41-.69 6.24-2.41 9.88-1.49 3.69.74 3.86 3.25 1.46 2.32-2.5 4.23-4.17 5.77-5.89 1.61-1.67 3.93-2.61 1.74-.06-2.4 2.48-4.67 4.14-1.74 3.32 3.13-1.02 20.51-7.49 24.61-10.72 3.96-3.33 8.28-5.86 9.08-12.76 0-.1.26-2.88 1.57-4.88 1.31-1.93 2.45-5.05.3-2.29-2.17 2.97-3.47 4.31-4 4.1-.4-.43-.5-.71.98-2.35 1.56-1.55 2.23-1.14 3.7-4.49 1.36-3.37 1.25-2.91.51-3.61-.4-.35-.95-.59-1.35-.91-.09-.06-.97-.72-2.33.84-1.37 1.68-6.76 7.03-8.95 8.49-2.19 1.36-4.45 3.5-8.44 7.74-4.27 4.59-10.02 11.71-11.59 7.48 0 0-2.85 2.48-3.49 3.12-4.61 4.42-3.94.31-3.25-1.32-.09.16-2.06 4.25-2.23 1.11.26-3.24 1.47-3.24 4.17-5.18 2.89-2.27 6.21-5.38 4.97-7.06-1.85-.8-3.35 2.81-5.33 5.01-2.16 1.98-5.18 4.01-6.18.67-.59-3.73-.53-5.8-5.63-4.79-5.13.83-4.81-2.8-3.49-5.42 1.4-2.45 2.68-5.61 7.35-8.6"/><path d="M944.04 398.45c.01-.01 7.93-7.86 15.14-13.3 7.29-5.3 1.57-.37.33.7-1.25 1.07-12.49 10.72-15.17 13.33-2.71 2.63-2.05 1.09-.3-.73M945.87 399.93c.4-.33 8.5-6.78 10.5-6.48 1.55 1.01.41.76-1.64 1.89-1.96 1.19-7.31 4.4-8.71 5-1.42.45-.16-.39-.15-.41M960.07 390.05c.13-.09 1.51-1.02 1.87-.37.09.8-.67 1.23-1.68 1.51-.97.19-1.71-.08-.19-1.14"/><path fill="#FFF" d="M726.16 536.63c-.01-.25-.11-10.29 3.59-15.95 3.93-5.37 22.79-32.46 25.9-40.17.12.12 2.22 2.2 2.58 6.57.03-.06 3.3-7.44 5.71-10.51.1.14 2.01 2.94 1.85 9.31.13-.1 4.52-3.23 11.72-3.91-.06.1-2.41 4.32-2.75 6.85.08-.02 9.8-1.84 15.03-1.26-.59.49-12.93 10.47-9.76 11.92 3.91.53 7.69-.52 7.79-.55-.14.2-4.27 5.95-11.21 7.9.42-.03 8.21-.41 10.48 1.89-.15.04-8.27 2.45-15.35 9.75-.04-.03-.58-.36-.69-3.01-.01.09-.28 2.24-2.17 4.68-1.99 2.3-6.62 7.27-8.41 9.69-1.91 2.7-4.88 6.88-8.47 7.12.06-.27.66-3.32-1.79-4.78-2.82-.99-5.28-.3-7.62 2.76-.02 0-9.17.27-12.11.71.14-.29 2.01-4.06 3.98-4.38 2.33.21 9.02 1.46 10.26-5.62.16-7.21-4.5-5.19-2.81-9.5 2.1-4.25 1.67-4.07 1.69-4.48-.07.06-1.6 1.32-2.75 5.12-1.03 3.86-1.8 6.58-5.38 10.47-3.64 3.84-5.08 6.01-6.16 8.66 0 0-1.66.31-3.15.72"/><path d="M931.71 400.08c.07.11 1.02 1.61.45 2.97-.77 1.32-1.6 2.48-1.23 3.91.03-.15.56-2.47 3.1-4.03 2.57-1.43 8.81-6.2 12.85-9.92 3.99-3.78 13.25-13.33 16.3-14.78-.1.02-2.14.21-10.52 8.63-8.33 8.42-15.17 13.32-17.85 14.8-2.52 1.25-.49-.3-3.1-1.58M925.58 388.6c.02.04.14.55.82.43.67-.28 1.4-1.3 1.57-1.53.15-.21.17-.46-.5-.8-.7-.3-.99-.26-1.55.43-.54.72-.74.98-.34 1.47"/><path fill="#FFF" d="M735 530.31c.03-.1.3-1.3 2.99-2.05 2.7-.79 2.77-2.22 2.47-3.13-.48-.77-1.79-.74.67-4.82.04.02.87.36 1.57 1.33.71 1.35 3.54 9.13-7.7 8.67"/><path fill="#999" d="M728.54 522.75c.79 6.93 6.46 4.67 6.93 4.51-2.41 2.53-3.86 4.34-4.91 6.06 0-3.49-3.51-4.27-3.83-4.35.37-2.12.94-4.28 1.81-6.22M753.51 484.87c.97-1.79 1.71-3.27 2.14-4.36.12.12 2.22 2.21 2.58 6.58.03-.07 3.31-7.44 5.72-10.52.09.14 2 2.94 1.85 9.31.13-.1 4.51-3.23 11.71-3.91-.06.1-2.41 4.33-2.75 6.85.08-.02 9.8-1.84 15.03-1.26-.59.49-12.93 10.47-9.76 11.92 3.91.53 7.69-.52 7.79-.55-.14.2-4.27 5.95-11.21 7.9.42-.03 8.21-.41 10.48 1.89-.01 0-2.45.73-5.85 2.49-.16-.18-2.39-2.75-9.8-2.26.05-.04 5.68-4.4 10.16-6.26-.16-.25-1.74-3.11-5.08-.02-.36-.33-5.68-5.07-1.09-10.68-.22-.05-3.31-.69-5.94 1.54.01-.23.23-3.68 2.73-5.89-.44-.07-6.33-1.1-8.63 5.76-.05-.1-1.15-2.73-.71-6.09-.08.07-3.98 3.46-6.09 7.18-.03-.25-.82-6.67-3.28-9.62M740.11 529.91c-1.28.4-2.87.57-5.11.4.02-.05.2-.83 1.62-1.59.03.08.38 1.05 3.49 1.19"/><path d="M752.68 503.02c.02.03 3.04 3.35 4.26 5.36.04-.04 2.73-2.85 3.92-5.09.08.07 2.07 1.92 3.03 4.89.06-.06 1.44-1.52 1.9-3.62.15.04 3.73 1.08 5.26 2.71.01-.05.48-5.18 0-8.48.06 0 2.68.24 4.44 1.05-.09-.26-1.4-3.02 6.42-8.21-.21.08-5.68 2.21-8.32 5.84-.14.01-2.41.19-3.7-.75 0 0 .13 5.26.05 7.79-.01 0-1.56-.76-4.59-1.65-.01.03-.77 1.67-1.24 2.16-.04-.05-1.78-2-2.74-4.61-.01 0-2.9 3.71-4.04 5.26-.11-.09-2.69-2.34-4.65-2.65"/><path fill="#FFC221" d="M734.63 556.76c.1.05 1.11.73 4.15-2.39 3.08-3.31 10.81-10.39 11.94-16.19.42-5.82-2.35-5.95-5.33-4.35-2.52 1.98-1.66 4.65-1.46 5.91.09 1.2.07 4.84-4.2 10.62l-5.1 6.4"/><path fill="#FFC221" d="M733.68 558.59c-.43-.26-6.09-3.4-.68-7.85 6.07-4.06 8.39-5.14 9.25-8.52.64-3.37.3-2.84-1.9-1.37-2.66 1.71-9.95 6.22-11.89 1.7.24.12 3.21 1.64 7.8-.96 4.57-2.89 7.57-3.57 5.1-4.93-3.01-.96-12.42.26-14.3.83-1.6.61-1.26.49-1.51 2.72-.39 2.26-2.14 6.84-2.8 8.26-.75 1.74-2.07 6.61.73 9.64 3.39 2.5 7.45 2.41 10.2.48"/><path d="M731.1 538.86c-.12.02-1.36.24-1.23 1.07.32.79.64.71 1.23.76.62.01 1.32-.36 1.51-.9 0-.57-.86-1.03-1.51-.93"/><path fill="#FFF" d="M733.28 556.58c-.23-.16-2.85-1.83.4-4.69 3.61-2.65 7.16-5.19 7.84-6.23 0 .01-1.71 3.24-8.24 10.92"/><path fill="#1A1A1A" opacity=".2" d="M8 195.25c170.83-85.22 341.03-54.42 513.26-27.97 155.21 23.84 312.16 44.57 470.74-34.53v672c-170.83 85.22-341.03 54.42-513.26 27.97C323.53 808.88 166.58 788.15 8 867.25v-672m31.25 19.39v604.5c306.56-128.26 611.18 96.04 921.5-33.78v-604.5c-306.56 128.26-611.18-96.04-921.5 33.78"/></svg>