<svg xmlns="http://www.w3.org/2000/svg" viewBox="0 0 128 128" style="enable-background:new 0 0 128 128" xml:space="preserve"><path style="fill:#312d2d" d="M64.35 21.84c-24.97 0-24.77 21.27-24.77 21.61 0 13.78 1.14 33.24 7.13 40.89 2.37 3.04 6.96 3.2 6.96 3.2L64 87.53l10.33.01s4.59-.17 6.96-3.2c5.99-7.66 7.13-27.12 7.13-40.89 0-.34.9-21.61-24.07-21.61z"/><radialGradient id="a" cx="64.001" cy="75.076" r="27.138" gradientTransform="matrix(1.0665 0 0 -1.1692 -4.258 140.784)" gradientUnits="userSpaceOnUse"><stop offset=".794" style="stop-color:#454140;stop-opacity:0"/><stop offset="1" style="stop-color:#454140"/></radialGradient><path style="fill:url(#a)" d="M64.35 21.84c-24.97 0-24.77 21.27-24.77 21.61 0 13.78 1.14 33.24 7.13 40.89 2.37 3.04 6.96 3.2 6.96 3.2L64 87.53l10.33.01s4.59-.17 6.96-3.2c5.99-7.66 7.13-27.12 7.13-40.89 0-.34.9-21.61-24.07-21.61z"/><linearGradient id="b" gradientUnits="userSpaceOnUse" x1="65.907" y1="53.169" x2="65.907" y2="15.419" gradientTransform="matrix(1 0 0 -1 0 128)"><stop offset=".364" style="stop-color:#651fff"/><stop offset=".812" style="stop-color:#5914f2"/><stop offset="1" style="stop-color:#530eeb"/></linearGradient><path style="fill:url(#b)" d="M114.41 89.14c-.06.14-.13.3-.21.47-1.84 4.26-6.73 16.14-8.98 19.6-1.69 2.59-4.5 3.59-7.24 3.59s-5.39-1.01-6.75-2.43c-2.88-3.01-4.73-5.32-4.73-5.32v18.45H40.93l.06-11.82.06-10.38s-4.03 1.09-8.69 2.21a7.9 7.9 0 0 1-1.87.22c-4.42 0-8.92-3.53-10.13-8.59-2.04-8.54-3.02-18.39-3.02-18.39 0-.12 0-.23.01-.34 0-.31.03-.56.06-.78.05-.32.13-.55.23-.73.33-.59 9.38-.81 9.49-.51.02.04.03.08.05.12l.22.68 3.92 12.35L37.64 82c2.16-1.62 4.22-3.77 8.24-5.48.02-.01.05-.02.08-.03.09-.03.18-.07.27-.11.37-.15.77-.3 1.18-.44.19-.06.38-.13.58-.19 1.14-.37 2.41-.7 3.85-.98 1.82-.36 3.91-.63 6.32-.8.16-.01 10.59-.02 10.76 0 2.43.17 4.58.46 6.5.87.03.01.05.01.08.02l1.13.26c.39.09.77.19 1.14.3 1.25.36 2.39.78 3.42 1.24.07.03.14.06.2.09.03.01.05.03.08.04 4.99 2.31 7.7 5.8 10.04 9.81 3.22 5.51 5.03 9.01 5.03 9.01l5.74-8.66.35-.53c.05-.05.12-.1.21-.15.18-.1 11.57 2.17 11.61 2.39.04.17.03.33-.04.48z"/><path style="fill:#edc391" d="M58.36 69.88v5.91c0 .07 0 .14.01.21.02.61.16 1.2.4 1.73.12.27.27.53.44.78.32.47.73.89 1.2 1.21a4.174 4.174 0 0 0 .86.49c.38.18.8.3 1.23.36.24.04.5.06.75.06h.98c.28 0 .56-.02.83-.07.44-.07.85-.2 1.24-.39l.01-.01h.01c.27-.12.52-.27.76-.45.46-.32.87-.73 1.19-1.19.17-.25.31-.5.44-.78.23-.54.38-1.13.4-1.75.01-.06.01-.13.01-.2v-5.91H58.36z"/><path style="fill:#212121" d="M65.04 77.76c1.21-.83 2.35-1.43 3.5-2.17.93-.59 2.5-1.69 3.97-1.13 1.25.48.8 2.18.8 4.41 0 2.62.44 4.14-.55 4.58-1.33.59-3.09-.45-4.55-1.09-.83-.36-3.21-1.45-3.61-2.08-.41-.63-.39-2.11.44-2.52z"/><ellipse transform="rotate(-11.678 68.2 78.149)" style="fill:#616161" cx="68.2" cy="78.15" rx="3.07" ry=".34"/><ellipse transform="rotate(-81.807 68.2 80.205)" style="fill:#616161" cx="68.2" cy="80.21" rx=".34" ry="3.06"/><path style="fill:#212121" d="M62.12 77.76c-1.21-.83-2.35-1.43-3.5-2.17-.93-.59-2.5-1.69-3.97-1.13-1.25.48-.8 2.18-.8 4.41 0 2.62-.44 4.14.55 4.58 1.33.59 3.09-.45 4.55-1.09.83-.36 3.22-1.45 3.62-2.08s.38-2.11-.45-2.52z"/><ellipse transform="rotate(-78.323 58.962 78.158)" style="fill:#616161" cx="58.96" cy="78.16" rx=".34" ry="3.07"/><ellipse transform="rotate(-8.19 58.965 80.208)" style="fill:#616161" cx="58.96" cy="80.21" rx="3.06" ry=".34"/><path style="fill:#212121" d="M66.24 79.34c0 1.52-1.19 2.39-2.66 2.39s-2.66-.87-2.66-2.39.67-2.74 2.66-2.74c1.92 0 2.66 1.23 2.66 2.74z"/><path style="fill:#dbdbdb" d="M21.52 76.4c-3.09 0-6.14-1.3-8.36-3.57-1.84-1.88-2.88-4.44-3.08-7.61-.06-1-.13-4.37 1.6-5.47.36-.23.74-.34 1.13-.34.49 0 .91.18 1.24.41.46-.97 1.27-1.92 2.53-1.92.09 0 .19 0 .29.02.63.07 1.1.29 1.42.51.34-.25.82-.48 1.41-.48h.13c1.01.06 1.53.53 1.79.92.26.38.35.82.36 1.22.26-.14.59-.25.98-.25.33 0 .66.08.99.24 1.54.75 1.28 2.13 1.1 3.04-.04.23-.09.47-.11.7-.15 1.64.61 2.95.78 3.21.17.17.34.33.5.49 1.41 1.36 2.62 2.53 1.79 5.36-.61 2.1-3.23 3.52-6.49 3.52z"/><path style="fill:#999898" d="M21.75 60.43c-.01 1.31-.27 2.47-.3 3.66-.03 1.17.16 2.34.74 3.29v.01c.13.21.06.49-.15.62-.2.12-.46.07-.59-.11-.86-1.12-1.05-2.56-.97-3.85.03-.65.15-1.3.36-1.91.19-.62.47-1.21.91-1.71zm-3.49-1.6c-.21.81-.39 1.56-.52 2.32-.11.76-.17 1.52-.16 2.29.04 1.53.42 3.04 1.04 4.45.1.23 0 .5-.23.6-.22.1-.47.01-.58-.2-.8-1.47-1.21-3.16-1.21-4.84-.01-.84.1-1.69.37-2.49.26-.8.68-1.56 1.29-2.13zm-3.67.65c-.24 1.6-.48 3.05-.43 4.56.06 1.49.42 2.97 1.19 4.21v.01c.13.21.06.49-.15.62-.2.12-.46.07-.6-.12-1.01-1.37-1.4-3.07-1.42-4.7-.01-.82.08-1.64.31-2.42.21-.79.56-1.55 1.1-2.16z"/><path style="fill:#dbdbdb" d="M109.37 89.87c-3.27 0-5.88-1.42-6.51-3.54-.83-2.83.38-4 1.79-5.36.16-.16.33-.32.5-.49.16-.25.92-1.57.78-3.2-.02-.23-.07-.47-.11-.7-.18-.92-.44-2.3 1.1-3.04.33-.16.66-.24.99-.24.39 0 .72.11.98.25.01-.4.1-.83.36-1.22.26-.38.77-.85 1.79-.92h.13c.59 0 1.07.23 1.41.48.33-.23.79-.44 1.42-.51.1-.01.2-.02.29-.02 1.26 0 2.07.95 2.53 1.92.34-.23.76-.41 1.24-.41.39 0 .77.12 1.13.34 1.73 1.1 1.67 4.46 1.6 5.47-.2 3.17-1.23 5.73-3.08 7.61-2.2 2.28-5.25 3.58-8.34 3.58z"/><path style="fill:#999898" d="M109.14 73.9c.44.5.72 1.09.92 1.7.21.61.32 1.26.36 1.91.08 1.29-.12 2.72-.97 3.85a.45.45 0 0 1-.64.08.452.452 0 0 1-.11-.59l.01-.01c.57-.95.77-2.11.74-3.29-.04-1.18-.3-2.34-.31-3.65zm3.49-1.61c.61.57 1.03 1.33 1.29 2.13.27.8.38 1.65.37 2.49 0 1.68-.41 3.37-1.21 4.84-.12.22-.39.3-.61.18a.456.456 0 0 1-.2-.58c.62-1.41 1-2.92 1.04-4.45.01-.76-.04-1.53-.16-2.29-.13-.76-.31-1.51-.52-2.32zm3.67.66c.54.61.89 1.37 1.11 2.15.23.78.32 1.61.31 2.43-.02 1.63-.41 3.33-1.42 4.7a.454.454 0 0 1-.75-.51v-.01c.76-1.24 1.13-2.71 1.19-4.21.05-1.5-.2-2.96-.44-4.55z"/><path style="fill:#f9ddbd" d="M64 72.29c10.78 0 20.76-11.53 20.76-28.12 0-16.5-10.29-24.66-20.76-24.66s-20.76 8.16-20.76 24.66c0 16.59 9.98 28.12 20.76 28.12z"/><path style="fill:#454140" d="M57.86 44.42c-.57-.75-1.88-1.85-4.43-1.85s-3.86 1.1-4.43 1.85c-.25.33-.19.72-.01.95.16.22.64.42 1.16.24.53-.18 1.56-.71 3.28-.73 1.72.01 2.75.55 3.28.73s1-.02 1.16-.24c.18-.23.24-.62-.01-.95zm20.69 0c-.57-.75-1.88-1.85-4.43-1.85s-3.86 1.1-4.43 1.85c-.25.33-.19.72-.01.95.16.22.64.42 1.16.24.53-.18 1.56-.71 3.28-.73 1.72.01 2.75.55 3.28.73s1-.02 1.16-.24c.18-.23.24-.62-.01-.95z"/><ellipse style="fill:#312d2d" cx="53.82" cy="49.04" rx="3.05" ry="3.16"/><ellipse style="fill:#312d2d" cx="74.18" cy="49.04" rx="3.05" ry="3.16"/><path style="fill:#dba689" d="M66.39 54.77a.734.734 0 0 0-.2-.05h-4.38c-.07.01-.13.02-.2.05-.4.16-.62.57-.43 1.01s1.06 1.67 2.82 1.67c1.76 0 2.63-1.23 2.82-1.67s-.03-.85-.43-1.01z"/><path style="fill:#444" d="M69.21 59.77c-1.97 1.17-8.44 1.17-10.41 0-1.13-.67-2.29.36-1.82 1.39.46 1.01 3.99 3.36 7.04 3.36s6.53-2.35 6.99-3.36c.48-1.03-.66-2.06-1.8-1.39z"/><radialGradient id="c" cx="23.095" cy="41.392" r="8.118" gradientTransform="translate(0 2)" gradientUnits="userSpaceOnUse"><stop offset=".008" style="stop-color:#ff3d00"/><stop offset=".999" style="stop-color:#dd2c00"/></radialGradient><circle style="fill:url(#c)" cx="24.61" cy="45.74" r="8.12"/><circle style="fill:#fff" cx="22.19" cy="43.16" r="2.43"/><radialGradient id="d" cx="103.84" cy="50.966" r="8.118" gradientTransform="translate(0 2)" gradientUnits="userSpaceOnUse"><stop offset=".009" style="stop-color:#00b0ff"/><stop offset=".999" style="stop-color:#0091ea"/></radialGradient><circle style="fill:url(#d)" cx="105.77" cy="55.59" r="8.12"/><circle style="fill:#fff" cx="103.35" cy="53.01" r="2.43"/><path style="fill:#312d2d" d="M88.39 42.04c0-3.1-.9-7.08-2.86-10.92 0 0-4.61-1.61-19.69-1.61s-23.07 2-23.07 2c-2.16 4.06-3.12 8.07-3.12 10.44 0 4.19.08 7.85.22 11.05h4.38c-.04-1.91-.14-9.18 3.84-10.08 14.62-3.28 22.89-11.04 22.89-11.04 2.15 4.7 8.88 9.28 11.29 11.02 1.98 1.43 1.71 7.32 1.67 9.83l4.12-.22c.22-4.34.33-8.26.33-10.47z"/><radialGradient id="e" cx="64.361" cy="73.98" r="28.684" gradientTransform="matrix(1 0 0 -.9072 0 121.133)" gradientUnits="userSpaceOnUse"><stop offset=".823" style="stop-color:#312d2d;stop-opacity:0"/><stop offset=".961" style="stop-color:#454140"/></radialGradient><path style="fill:url(#e)" d="M65.85 29.52c-12.25 0-23.07 2.69-23.07 2.69-2.27 3.81-2.93 7.7-3.12 9.75 0 4.19.08 7.84.22 11.04h4.38c-.04-1.91-.14-9.18 3.84-10.08 14.62-3.28 22.89-11.04 22.89-11.04 2.15 4.7 8.88 9.28 11.29 11.02 1.98 1.43 1.71 7.32 1.67 9.83l4.12-.22c.23-4.35.34-8.27.34-10.47-.12-2.06-.65-6.1-2.92-10.03-.02.01-7.54-2.49-19.64-2.49z"/><path style="fill:#212121" d="M36.17 33.3c0-3.08 12.48-3.79 27.85-3.79s27.83.71 27.83 3.79-12.46 6.26-27.84 6.26-27.84-3.17-27.84-6.26z"/><radialGradient id="f" cx="64.047" cy="114.112" r="32.614" gradientTransform="matrix(-1 0 0 .6829 128.094 -64.04)" gradientUnits="userSpaceOnUse"><stop offset="0" style="stop-color:#787676"/><stop offset=".861" style="stop-color:#3f3f3f"/></radialGradient><path style="fill:url(#f)" d="M84.07 28.49c-.45-7.39-2.98-11.94-11-15.41-2.91-1.26-6.23-1.82-9.27-1.87h-.06c-3.04.05-6.36.61-9.27 1.87-8.02 3.47-10.55 8.02-11 15.41l-.7 11.65h41.99l-.69-11.65z"/><path style="fill:#595858" d="M90.84 31.21c-1.49-.7-5.51-1.01-6.82-.92 0 0 6.19 1.5 5.89 2.57-.45 1.6-6.31 4.15-26.14 4.21-19.83-.07-25.69-2.62-26.14-4.21-.3-1.07 5.89-2.57 5.89-2.57-1.31-.1-5.32.22-6.82.92-1.27.59-2.12.99-2.12 2.6 0 4.26 5.59 5.68 7.36 6.26 6.03 1.97 21.8 2.49 21.8 2.49.01 0 15.81-.52 21.85-2.49 1.77-.58 7.36-2 7.36-6.26.01-1.62-.84-2.01-2.11-2.6z"/><path style="fill:#7c7c7c" d="M86.55 111.68v11.82H40.93v-11.82h4.95V76.52c.02-.01.05-.02.08-.03.09-.03.18-.07.27-.11.37-.15.77-.3 1.18-.44.19-.06.38-.13.58-.19 1.14-.37 2.41-.7 3.85-.98v36.91h23.58V74.84c.03.01.05.01.08.02l1.13.26c.39.09.77.19 1.14.3 1.25.36 2.39.78 3.42 1.24.07.03.14.06.2.09v34.93h5.16z"/><radialGradient id="g" cx="76.911" cy="7.362" r="8.118" gradientTransform="translate(0 2)" gradientUnits="userSpaceOnUse"><stop offset=".014" style="stop-color:#00e676"/><stop offset="1" style="stop-color:#00c853"/></radialGradient><circle style="fill:url(#g)" cx="78.7" cy="12.12" r="8.12"/><circle style="fill:#fff" cx="76.28" cy="9.55" r="2.43"/></svg>