<svg xmlns="http://www.w3.org/2000/svg" viewBox="0 0 1000 1000"><path fill="#039" d="M8 195.25c170.83-85.22 341.03-54.42 513.26-27.97 155.21 23.84 312.16 44.57 470.74-34.53v672c-170.83 85.22-341.03 54.42-513.26 27.97C323.53 808.88 166.58 788.15 8 867.25v-672"/><path fill="#fc0" d="m500 238.67-11.26 33.76 17.33 8.45-6.07-42.21"/><path fill="#fc0" d="m500 238.67 11.26 37.25-17.33 3.08 6.07-40.33"/><path fill="#fc0" d="m534.66 269.79-36.44-5.6v18.66l36.44-13.06"/><path fill="#fc0" d="m534.66 269.79-29.48 17.42-10.71-16.76 40.19-.66"/><path fill="#fc0" d="m521.42 309.51-11.26-37.24-17.33 3.09 28.59 34.15"/><path fill="#fc0" d="m521.42 309.51-29.48-26.5 10.71-13.44 18.77 39.94"/><path fill="#fc0" d="m465.34 259.13 36.44 5.61v18.67l-36.44-24.28"/><path fill="#fc0" d="m465.34 259.13 29.48 26.48 10.71-13.45-40.19-13.03"/><path fill="#fc0" d="m478.58 302.9 11.26-33.77 17.33 8.45-28.59 25.32"/><path fill="#fc0" d="m478.58 302.9 29.48-17.39-10.71-16.76-18.77 34.15M500 686.67l-11.26 33.76 17.33 8.45-6.07-42.21"/><path fill="#fc0" d="m500 686.67 11.26 37.25-17.33 3.08 6.07-40.33"/><path fill="#fc0" d="m534.66 717.79-36.44-5.6v18.66l36.44-13.06"/><path fill="#fc0" d="m534.66 717.79-29.48 17.42-10.71-16.76 40.19-.66"/><path fill="#fc0" d="m521.42 757.51-11.26-37.24-17.33 3.09 28.59 34.15"/><path fill="#fc0" d="m521.42 757.51-29.48-26.5 10.71-13.44 18.77 39.94"/><path fill="#fc0" d="m465.34 707.13 36.44 5.61v18.67l-36.44-24.28"/><path fill="#fc0" d="m465.34 707.13 29.48 26.48 10.71-13.45-40.19-13.03"/><path fill="#fc0" d="m478.58 750.9 11.26-33.77 17.33 8.45-28.59 25.32"/><path fill="#fc0" d="m478.58 750.9 29.48-17.39-10.71-16.76-18.77 34.15M281.33 438.24l-11.26 35.3 17.33 6.15-6.07-41.45"/><path fill="#fc0" d="m281.33 438.24 11.27 35.87-17.33 5.28 6.06-41.15"/><path fill="#fc0" d="M315.99 465.59c-12.02-.75-24.05-1.3-36.44-1.59v18.66l36.44-17.07"/><path fill="#fc0" d="m315.99 465.59-29.48 20.54-10.71-15.37c13.26-2 26.53-3.7 40.19-5.17"/><path fill="#fc0" d="m302.76 506.59-11.27-36-17.33 5.3 28.6 30.7"/><path fill="#fc0" d="m302.76 506.59-29.49-22.92 10.71-14.86 18.78 37.78"/><path fill="#fc0" d="M246.67 463.91c12.03-.22 24.05-.16 36.45.18v18.66c-12.03-6.48-24.06-12.72-36.45-18.84"/><path fill="#fc0" d="m246.67 463.91 29.49 21.96 10.71-14.83c-13.27-2.67-26.53-5.06-40.2-7.13"/><path fill="#fc0" d="m259.91 505.52 11.26-35.44 17.33 6.17-28.59 29.27"/><path fill="#fc0" d="m259.91 505.52 29.49-21.44-10.71-15.41-18.78 36.85M369.24 317.99l29.49-18.46-10.71-16.43-18.78 34.89"/><path fill="#fc0" d="m369.24 317.99 11.27-34.24 17.33 7.87-28.6 26.37"/><path fill="#fc0" d="m356.01 274.87 29.48 25.17 10.71-13.79-40.19-11.38"/><path fill="#fc0" d="m356.01 274.87 36.44 4.07v18.67l-36.44-22.74"/><path fill="#fc0" d="m390.67 252.93-11.27 34.16 17.33 7.87-6.06-42.03"/><path fill="#fc0" d="m390.67 252.93 11.26 36.92-17.33 3.62 6.07-40.54"/><path fill="#fc0" d="m412.09 323.22-29.49-25.67 10.71-13.8 18.78 39.47"/><path fill="#fc0" d="m412.09 323.22-11.26-36.99-17.33 3.64 28.59 33.35"/><path fill="#fc0" d="m425.33 283.29-29.49 18.02-10.71-16.41 40.2-1.61"/><path fill="#fc0" d="m425.33 283.29-36.45-4.78v18.66l36.45-13.88M332.05 396.47l-11.26-36.33-17.33 4.74 28.59 31.59"/><path fill="#fc0" d="m332.05 396.47-29.48-23.84 10.71-14.51 18.77 38.35"/><path fill="#fc0" d="m289.21 394.02 29.48-20.46-10.71-15.74-18.77 36.2"/><path fill="#fc0" d="m289.21 394.02 11.26-35.05 17.33 6.74-28.59 28.31"/><path fill="#fc0" d="m275.97 351.92 29.48 23.01 10.71-14.48c-13.26-3.09-26.53-5.94-40.19-8.53"/><path fill="#fc0" d="M275.97 351.92c12.03.24 24.05.72 36.44 1.45v18.67l-36.44-20.12"/><path fill="#fc0" d="m345.29 355.85-29.48 19.68-10.71-15.72c13.26-1.56 26.52-2.86 40.19-3.96"/><path fill="#fc0" d="m345.29 355.85-36.44-2.68v18.66l36.44-15.98"/><path fill="#fc0" d="m310.63 327.47 11.26 36.22-17.33 4.73 6.07-40.95"/><path fill="#fc0" d="m310.63 327.47-11.26 34.93 17.33 6.72-6.07-41.65M345.29 579.85l-36.44-2.68v18.66l36.44-15.98"/><path fill="#fc0" d="m345.29 579.85-29.48 19.68-10.71-15.72c13.26-1.56 26.52-2.86 40.19-3.96"/><path fill="#fc0" d="m332.05 620.47-11.26-36.33-17.33 4.74 28.59 31.59"/><path fill="#fc0" d="m332.05 620.47-29.48-23.84 10.71-14.51 18.77 38.35"/><path fill="#fc0" d="m289.21 618.02 29.48-20.46-10.71-15.74-18.77 36.2"/><path fill="#fc0" d="m289.21 618.02 11.26-35.05 17.33 6.74-28.59 28.31"/><path fill="#fc0" d="m310.63 551.47 11.26 36.22-17.33 4.73 6.07-40.95"/><path fill="#fc0" d="m310.63 551.47-11.26 34.93 17.33 6.72-6.07-41.65"/><path fill="#fc0" d="M275.97 575.92c12.03.24 24.05.72 36.44 1.45v18.67l-36.44-20.12"/><path fill="#fc0" d="m275.97 575.92 29.48 23.01 10.71-14.48c-13.26-3.09-26.53-5.94-40.19-8.53M425.33 671.27l-36.45-4.78v18.66l36.45-13.88"/><path fill="#fc0" d="m425.33 671.27-29.49 18.02-10.71-16.41 40.2-1.61"/><path fill="#fc0" d="m412.09 711.2-11.26-36.99-17.33 3.63 28.59 33.36"/><path fill="#fc0" d="m412.09 711.2-29.49-25.67 10.71-13.8 18.78 39.47"/><path fill="#fc0" d="m369.24 705.97 29.49-18.46-10.71-16.43-18.78 34.89"/><path fill="#fc0" d="m369.24 705.97 11.27-34.24 17.33 7.87-28.6 26.37"/><path fill="#fc0" d="m390.67 640.91 11.26 36.92-17.33 3.62 6.07-40.54"/><path fill="#fc0" d="m390.67 640.91-11.27 34.16 17.33 7.87-6.06-42.03"/><path fill="#fc0" d="m356.01 662.85 36.44 4.07v18.67l-36.44-22.74"/><path fill="#fc0" d="m356.01 662.85 29.48 25.17 10.71-13.79-40.19-11.38M718.67 487.09l11.26 35.72-17.33 5.38 6.07-41.1"/><path fill="#fc0" d="m718.67 487.09-11.27 35.15 17.33 6.26-6.06-41.41"/><path fill="#fc0" d="M684.01 511.33c12.02.76 24.05 1.3 36.44 1.6v18.67l-36.44-20.27"/><path fill="#fc0" d="m684.01 511.33 29.48 23.35 10.71-14.83c-13.26-2.51-26.53-5.33-40.19-8.52"/><path fill="#fc0" d="m697.24 553.82 11.27-35.02 17.33 6.24-28.6 28.78"/><path fill="#fc0" d="m697.24 553.82 29.49-20.97-10.71-15.34-18.78 36.31"/><path fill="#fc0" d="M753.33 513.02c-12.03.22-24.05.15-36.45-.18v18.67c12.03-5.84 24.05-11.92 36.45-18.49"/><path fill="#fc0" d="m753.33 513.02-29.49 21.93-10.71-15.38c13.27-1.84 26.53-3.98 40.2-6.55"/><path fill="#fc0" d="m740.09 554.89-11.26-35.57-17.33 5.36 28.59 30.21"/><path fill="#fc0" d="m740.09 554.89-29.49-22.45 10.71-14.8 18.78 37.25M630.76 354.44l-29.49-25.43 10.71-13.77 18.78 39.2"/><path fill="#fc0" d="m630.76 354.44-11.27-36.77-17.33 3.66 28.6 33.11"/><path fill="#fc0" d="m643.99 314.07-29.48 18.72-10.71-16.41 40.19-2.31"/><path fill="#fc0" d="M643.99 314.07 607.55 310v18.67l36.44-14.6"/><path fill="#fc0" d="m609.33 284.42 11.27 36.85-17.33 3.68 6.06-40.53"/><path fill="#fc0" d="m609.33 284.42-11.26 34.1 17.33 7.91-6.07-42.01"/><path fill="#fc0" d="m587.91 349.21 29.49-18.22-10.71-16.4-18.78 34.62"/><path fill="#fc0" d="m587.91 349.21 11.26-34.03 17.33 7.91-28.59 26.12"/><path fill="#fc0" d="m574.67 305.66 29.49 25.86 10.71-13.79-40.2-12.07"/><path fill="#fc0" d="m574.67 305.66 36.45 4.78v18.67l-36.45-23.45M667.95 439.93l11.26-34.68 17.33 6.8-28.59 27.88"/><path fill="#fc0" d="m667.95 439.93 29.48-20.05-10.71-15.69-18.77 35.74"/><path fill="#fc0" d="m710.79 442.39-29.48-23.44 10.71-14.45 18.77 37.89"/><path fill="#fc0" d="m710.79 442.39-11.26-35.97-17.33 4.8 28.59 31.17"/><path fill="#fc0" d="m724.03 401.01-29.48 20.88-10.71-15.73c13.26-1.42 26.52-3.1 40.19-5.15"/><path fill="#fc0" d="M724.03 401.01c-12.03-.24-24.05-.73-36.44-1.46v18.67l36.44-17.21"/><path fill="#fc0" d="m654.71 397.08 29.48 24.21 10.71-14.49c-13.26-2.95-26.52-6.17-40.19-9.72"/><path fill="#fc0" d="m654.71 397.08 36.44 2.68v18.66l-36.44-21.34"/><path fill="#fc0" d="m689.37 373.86-11.26 34.79 17.33 6.82-6.07-41.61"/><path fill="#fc0" d="m689.37 373.86 11.26 36.09-17.33 4.81 6.07-40.9M654.71 621.08l36.44 2.68v18.66l-36.44-21.34"/><path fill="#fc0" d="m654.71 621.08 29.48 24.21 10.71-14.49c-13.26-2.95-26.52-6.17-40.19-9.72"/><path fill="#fc0" d="m667.95 663.93 11.26-34.68 17.33 6.8-28.59 27.88"/><path fill="#fc0" d="m667.95 663.93 29.48-20.05-10.71-15.69-18.77 35.74"/><path fill="#fc0" d="m710.79 666.39-29.48-23.44 10.71-14.45 18.77 37.89"/><path fill="#fc0" d="m710.79 666.39-11.26-35.97-17.33 4.8 28.59 31.17"/><path fill="#fc0" d="m689.37 597.86-11.26 34.79 17.33 6.82-6.07-41.61"/><path fill="#fc0" d="m689.37 597.86 11.26 36.09-17.33 4.81 6.07-40.9"/><path fill="#fc0" d="M724.03 625.01c-12.03-.24-24.05-.73-36.44-1.46v18.67l36.44-17.21"/><path fill="#fc0" d="m724.03 625.01-29.48 20.88-10.71-15.73c13.26-1.42 26.52-3.1 40.19-5.15M574.67 693.64l36.45 4.78v18.67l-36.45-23.45"/><path fill="#fc0" d="m574.67 693.64 29.49 25.86 10.71-13.79-40.2-12.07"/><path fill="#fc0" d="m587.91 737.19 11.26-34.03 17.33 7.91-28.59 26.12"/><path fill="#fc0" d="m587.91 737.19 29.49-18.22-10.71-16.4-18.78 34.62"/><path fill="#fc0" d="m630.76 742.42-29.49-25.43 10.71-13.77 18.78 39.2"/><path fill="#fc0" d="m630.76 742.42-11.27-36.77-17.33 3.66 28.6 33.11"/><path fill="#fc0" d="m609.33 672.41-11.26 34.08 17.33 7.92-6.07-42"/><path fill="#fc0" d="m609.33 672.41 11.27 36.84-17.33 3.68 6.06-40.52"/><path fill="#fc0" d="m643.99 702.05-36.44-4.07v18.67l36.44-14.6"/><path fill="#fc0" d="m643.99 702.05-29.48 18.72-10.71-16.41 40.19-2.31"/><path fill="#1A1A1A" opacity=".2" d="M8 195.25c170.83-85.22 341.03-54.42 513.26-27.97 155.21 23.84 312.16 44.57 470.74-34.53v672c-170.83 85.22-341.03 54.42-513.26 27.97C323.53 808.88 166.58 788.15 8 867.25v-672m31.25 19.39v604.5c306.56-128.26 611.18 96.04 921.5-33.78v-604.5c-306.56 128.26-611.18-96.04-921.5 33.78"/></svg>