<svg xmlns="http://www.w3.org/2000/svg" viewBox="0 0 128 128" style="enable-background:new 0 0 128 128" xml:space="preserve"><path style="fill:#a06841" d="m120.57 116.83-6.59 5.7c-2.54 2.19-6.4 1.9-8.57-.64L37.07 40.63l10.16-9.33 73.85 77.04a5.925 5.925 0 0 1-.51 8.49z"/><path style="fill:#7d5133" d="M58.42 42.97 47.31 31.38 37.13 40.7l15.52 18.45c2.8-4.93 4.89-10.79 5.77-16.18z"/><path style="fill:#82aec0" d="M86.38 4.03C51.41 3.5 31.54 23.49 31.54 23.49S9.89 44.01 5.55 78.99c-.03.8-.01 1.51 1 1.73 1.28.28 1.59-.55 1.88-.99 4.18-8.7 13.4-25.99 32.42-43.61S78.23 10.45 87.23 6.95c.6-.21 1.01-.8 1.01-1.54 0-1.07-.89-1.39-1.86-1.38z"/><path style="fill:#a06841" d="m37.99 19.63-.63-.65a.713.713 0 0 0-.83-.13c-6.31 3.33-9.25 7.57-10.57 9.85-.15.26-.12.59.09.82.16.17.35.38.55.59.9.98 4.18-.58 7.33-3.47s4.96-6.03 4.06-7.01z"/><path style="fill:#2f7889" d="M39.89 30.9C13.53 54.46 7.69 80.6 7.69 80.6s.28-.08.56-.52c3.8-7.9 12.32-22.79 28.11-38.66 1.61 1.87 7.25 8.42 7.42 8.6.9.98 4.52-.75 7.84-3.81 3.32-3.06 5.29-6.33 4.39-7.31l-7.76-8.37c16.35-13.57 31.11-20.51 39-23.59.56-.2.74-.61.74-.61-.2.02-21.86 1.1-48.1 24.57z"/></svg>