<svg xmlns="http://www.w3.org/2000/svg" viewBox="0 0 128 128" style="enable-background:new 0 0 128 128" xml:space="preserve"><radialGradient id="a" cx="63.6" cy="1104.9" r="56.96" gradientTransform="translate(0 -1042)" gradientUnits="userSpaceOnUse"><stop offset=".5" style="stop-color:#fde030"/><stop offset=".92" style="stop-color:#f7c02b"/><stop offset="1" style="stop-color:#f4a223"/></radialGradient><path style="fill:url(#a)" d="M63.6 118.8c-27.9 0-58-17.5-58-55.9S35.7 7 63.6 7c15.5 0 29.8 5.1 40.4 14.4 11.5 10.2 17.6 24.6 17.6 41.5s-6.1 31.2-17.6 41.4c-10.6 9.3-25 14.5-40.4 14.5z"/><path style="fill:#eb8f00" d="M111.49 29.67c5.33 8.6 8.11 18.84 8.11 30.23 0 16.9-6.1 31.2-17.6 41.4-10.6 9.3-25 14.5-40.4 14.5-18.06 0-37-7.35-48.18-22.94 10.76 17.66 31 25.94 50.18 25.94 15.4 0 29.8-5.2 40.4-14.5 11.5-10.2 17.6-24.5 17.6-41.4 0-12.74-3.47-24.06-10.11-33.23z"/><path style="fill:#422b0d" d="M64 101c-8.54 0-14.63-6.29-16.47-9.78-.7-1.18-.83-2.62-.37-3.91.28-.77 1.02-1.29 1.84-1.31.28.01.55.06.81.16 4.3 1.69 8.07 4.14 14.24 4.14s10-2.45 14.24-4.14c.26-.1.53-.16.81-.16.81.04 1.51.55 1.79 1.31.46 1.29.33 2.73-.37 3.91C78.63 94.71 72.54 101 64 101zM49.51 54.37l-.2.2c-.16.18-.33.35-.51.5l-.69.57c-.29.22-.62.46-1 .7s-.77.47-1.2.69c-.44.22-.9.41-1.37.57-.49.15-.99.27-1.5.37-.52.08-1.04.12-1.57.12h-.88l-.7-.09c-.51-.1-1.01-.22-1.5-.37-.48-.18-.94-.39-1.39-.63-.43-.22-.83-.46-1.2-.69-.59-.39-1.14-.83-1.66-1.31l-.63-.58-.25-.25a3.53 3.53 0 0 0-4.57-.17 2.66 2.66 0 0 0-.78 3.25l.15.3c.13.29.28.57.44.84a13.83 13.83 0 0 0 4.09 4.32c.79.55 1.63 1.02 2.51 1.4.97.43 1.97.76 3 1 .55.1 1.06.2 1.73.26.31 0 .67.06.83.06h.78c1.12-.02 2.23-.13 3.33-.35 1.03-.24 2.03-.57 3-1 .88-.38 1.72-.85 2.51-1.4a13.94 13.94 0 0 0 3.25-3.07l.48-.67.4-.63c.15-.24.28-.5.39-.77l.11-.25c.6-1.43-.08-3.08-1.51-3.68-.1-.04-.2-.08-.3-.1-1.26-.4-2.65-.07-3.59.86zm45 0-.2.2c-.16.18-.33.35-.51.5l-.69.57c-.29.22-.62.46-1 .7s-.77.47-1.2.69c-.44.22-.9.41-1.37.57-.49.15-.99.27-1.5.37-.52.08-1.04.12-1.57.12h-.88l-.7-.09c-.51-.1-1.01-.22-1.5-.37-.48-.18-.94-.39-1.39-.63-.43-.22-.83-.46-1.2-.69-.59-.39-1.14-.83-1.66-1.31l-.63-.58-.25-.25a3.53 3.53 0 0 0-4.57-.17 2.66 2.66 0 0 0-.78 3.25l.15.3c.13.29.28.57.44.84a13.83 13.83 0 0 0 4.09 4.32c.79.55 1.63 1.02 2.51 1.4.98.43 2 .77 3.05 1 .55.1 1.06.2 1.73.26.31 0 .67.06.83.06h.78c1.12-.02 2.23-.13 3.33-.35 1.05-.23 2.07-.57 3.05-1 .88-.38 1.72-.85 2.51-1.4a13.94 13.94 0 0 0 3.25-3.07l.48-.67.4-.63c.15-.24.28-.5.39-.77l.11-.25c.6-1.43-.08-3.08-1.51-3.68-.1-.04-.2-.08-.3-.1a3.556 3.556 0 0 0-3.69.86zM28.42 43.28c-.7.73-1.87.76-2.6.05-.66-.63-.75-1.66-.22-2.4a17.9 17.9 0 0 1 4.07-4.17c4.19-3.23 9.44-4.76 14.71-4.27 2.48.31 2 3.48-.21 3.69-5.92.47-11.48 2.98-15.75 7.1m70.07 0c.7.73 1.87.76 2.6.05.66-.63.75-1.66.22-2.4a17.9 17.9 0 0 0-4.07-4.17 20.916 20.916 0 0 0-14.71-4.27c-2.48.31-2 3.48.21 3.69 5.92.47 11.48 2.98 15.75 7.1"/></svg>