<svg xmlns="http://www.w3.org/2000/svg" viewBox="0 0 128 128" style="enable-background:new 0 0 128 128" xml:space="preserve"><path style="fill:#bdbdbd" d="M22.75 20.03h82.2c1.6 0 2.9 1.3 2.9 2.9v82.2c0 1.6-1.3 2.9-2.9 2.9h-82.2c-1.6 0-2.9-1.3-2.9-2.9v-82.1a2.863 2.863 0 0 1 2.72-3h.18z"/><path style="fill:#e0e0e0" d="M22.65 20.03h74.9c1.53.03 2.77 1.27 2.8 2.8v74.9a2.862 2.862 0 0 1-2.8 2.8h-74.9a2.862 2.862 0 0 1-2.8-2.8v-74.8a2.824 2.824 0 0 1 2.74-2.9h.06z"/><path style="fill:#fff" d="M44.25 27.33c0-1.5-1-1.9-6.9-1.7-4.9.2-7.3.8-8.8 2.6s-1.9 5.4-1.9 9.8c0 3.1 0 5.9 1.6 5.9 2.2 0 2.2-5 4-7.9 3.3-5.5 12-6.7 12-8.7z"/></svg>