<svg xmlns="http://www.w3.org/2000/svg" viewBox="0 0 128 128" style="enable-background:new 0 0 128 128" xml:space="preserve"><path style="fill:#af0c1a" d="M60.23 50.47s-10.56 2.98-19.38 8.8c-7.26 4.78-13.83 12.04-13.83 12.04l1.88 17.76L34.1 93l21.81-19.63s3.1-8.1 4.21-13.65c.58-2.86.88-5.66.88-5.66l-.77-3.59zm8.96 2.22s2.21 8.35 3.02 11.66c.92 3.74 2.69 9.82 2.69 9.82l21.69 15.42 8.2-16.05s-4.61-5.72-7.09-8.71c-2.48-2.99-16.57-12.72-16.57-12.72l-11.94.58z"/><path style="fill:#ff605e" d="M13.32 98.51s.75-6.87 6.39-16.69 8.41-11.53 8.41-11.53 3.26-.76 6.15-1.11c3.12-.38 5.72-.09 5.72-.09s-3.93 4.78-6.15 9.39-3.59 8.97-1.96 9.82c1.62.85 3.43-5 6.92-10.33 3.67-5.62 6.47-8.38 6.47-8.38s2.8.09 5.72.96c3.23.96 5.02 2.6 5.02 2.6s-5.76 15.49-8.92 24.46-7.72 20.87-8.83 21.3c-1.11.43-3.04-3.02-4.24-5.75-1.2-2.73-5.29-17.25-5.55-16.99s-15.15 2.34-15.15 2.34zM74.89 74.1s2.51-1.69 4.56-2.38c2.05-.68 5.68-1.26 5.68-1.26s2.18 4.26 3.88 7.17c1.71 2.9 4.49 8.88 6.28 8.02 1.79-.85-.51-6.89-1.84-9.56-1.21-2.43-3.33-5.72-3.33-5.72s2.65-.34 7.51.6c4.87.94 7.17 2.56 7.17 2.56s4.5 6.68 6.92 10.76c3.22 5.44 7.26 14.68 7.26 14.68l-17.85 1.46-8.97 19.64s-1.24.08-1.93-.34c-.68-.43-3.91-9.3-5.66-14.5-2.75-8.21-9.68-31.13-9.68-31.13z"/><path style="fill:#dc0d28" d="M100.1 98.73c-.69.64-7.36 17.21-7.56 17.7-1.03 2.54-2.44 3.12-2.44 3.12s1.21 1.74 3.26 1.14c1.58-.46 9.1-18.27 9.1-18.27s13.59.13 15.57-.73c2.22-.96.92-2.77.92-2.77s-17.93-1.05-18.85-.19zm-86.75-.6s4.02-.73 7.72-1.71 8.44-2.37 8.44-2.37 3.74 10.22 4.86 13.65c1.12 3.43 4.04 11.1 4.04 11.1s-1.27 1.37-3.1.24c-1.71-1.06-4.98-10.1-5.84-12.5-1.1-3.04-2.53-7.55-2.53-7.55s-3.88 1.29-7.11 1.88c-3.23.59-5.42 1.02-6.28.16-.86-.85-.2-2.9-.2-2.9zm33.01-69.16-18.55-4.76L14.7 34.87l-5.44 26 2.97 5s3.22 2.46 12.28.44c9.06-2.03 29.52-9.91 29.52-9.91s2.61 1.08 4.95 1.4 6.33-.52 6.33-.52 5.02.82 8.01.61c2.98-.21 4.26-.53 4.26-.53s9.81 5.22 19.61 7.99 17.37 3.4 19.08 3.2c2.66-.32 3.94-4.8 3.94-4.8l-1.07-9.81-14.28-30.7-29.74 8.53-1.81 2.03-7.79-2.12-10.57 2.08-1.33-1.56-7.26-3.23z"/><path style="fill:#ff605e" d="M54.59 33.37s1.18-3.66 10.07-3.66c8.29 0 9.41 3.28 9.41 3.28s1.08 7.2.1 13.44c-.87 5.58-3.96 11.41-3.96 11.41s-2.05.51-5.22.6c-2.99.08-6.17-.67-6.17-.67S56 52.8 54.81 46.56c-1.14-6.04-.22-13.19-.22-13.19z"/><path style="fill:#fcc4bf" d="M59.9 45.07c1.7.34 2.67-4.23 3.74-5.48 1.68-1.95 5.66-1.57 5.59-4.18-.05-2.06-7.63-3.01-10.36.81-1.9 2.67-1.68 8.31 1.03 8.85z"/><path style="fill:#ff605e" d="M75.11 31.77s1.13 1.38 2.13 3.86c.74 1.82 1.54 4.48 1.54 4.48s3.68-3.21 6.83-4.95c3.14-1.74 18.15-7.07 18.54.2.31 5.91-10.75 5.79-15.94 7.9-3.65 1.48-8.62 4.28-8.62 4.28v6.02s2.4 2.56 8.02 3.03c5.62.47 20.03.3 22.87.42 5.91.25 7.98 2.9 7.98 6.05 0 3.14-1.11 4.43-.74 4.84.48.54 2.95-1.43 4.29-6.52 1.34-5.09 2.37-14.6 1.97-22.75-.47-9.63-2.37-22.52-6.67-24.92s-16.84.8-24.2 3.95c-12.38 5.3-18 14.11-18 14.11zm-24.74 7.97s.46-2.37 1.33-4.25c.68-1.47 1.93-3.28 1.93-3.28s-2.36-6.15-11.05-11.14-26.87-8.89-32.66-6.69c-2.88 1.09-5.67 8.48-6.52 19.7-.73 9.74.23 21.4 3.3 27.15 2.31 4.33 8.17 7.55 9.95 5.77.87-.87-5.77-3.89.56-7.87 3.67-2.3 10.69-2.1 16.78-2.5 6.09-.4 8.69-.1 11.89-.9 3.2-.8 5.19-2 5.19-2s-.75-2.5-.9-3.7c-.21-1.64-.34-2.98-.34-2.98s-2.11-1.19-7.65-2.11c-5.43-.91-14.35-.71-14.48-6.69-.17-7.59 8.59-5.69 12.68-4s9.49 4.99 9.99 5.49z"/></svg>