<svg xmlns="http://www.w3.org/2000/svg" viewBox="0 0 128 128" style="enable-background:new 0 0 128 128" xml:space="preserve"><path style="fill:#ef8720" d="M50.26 115.48c1.31-6.35 4.55-16.81 12.45-26.55C72.39 77 59.9 68.95 59.9 68.95S49.44 58.4 39.76 70.34c-7.89 9.74-17.45 15.07-23.39 17.67-4.69 2.05-7.37 7.08-6.3 12.08.97 4.54 3.89 9.98 10.94 15.69.2.16.38.29.58.44.19.16.35.32.55.48 7.05 5.71 12.97 7.44 17.61 7.45 5.11.01 9.47-3.66 10.51-8.67z"/><path style="fill:#ef8720" d="M114.73 61.7 85.19 37.75 55.64 13.8 38.71 55.56c-1.5 4.52-3.41 14.56 10.3 25.68s24.27 8.08 28.38 5.67l.04.04 37.3-25.25z"/><path style="fill:none;stroke:#424242;stroke-width:1.2121;stroke-linecap:round;stroke-miterlimit:10" d="M55.6 30.49c-.19 1.34.25 2.71.89 3.9 1.08 2 2.74 3.69 4.74 4.78m2.84 1.56c-.11.95.33 1.87.83 2.69 1.84 3.01 4.76 5.58 8.26 6.02m2.67 1.93c.66 2.14 2.04 4.05 3.86 5.34s4.09 1.96 6.32 1.86m2.97 1.51c-.09.53.1 1.06.35 1.53 1.22 2.25 3.81 3.39 6.31 3.93.89.19 1.88.31 2.68-.14m2.18.49c.86 1.42 2.51 2.16 4.14 2.51.67.14 1.48.18 1.92-.34M51.95 22.53c-.43.27-.54.85-.55 1.37a6.12 6.12 0 0 0 2.39 4.84"/><ellipse transform="rotate(-50.974 84.702 38.598)" style="fill:#ffcc80" cx="84.7" cy="38.6" rx="14.87" ry="40.95"/><path style="fill:#424242" d="m89.33 52.57-.14.26-3.55 6.46s1.76 1.13 1.99.54c.23-.6 4.28-4.93 4.28-4.93M56.75 16.42c-.49 1.15-1.69 1.8-2.52 3.27s-.37 1.92-.98 2.79c-.97 1.38-1.72 1-2.07.72-.82-.66-.7-2.64 1.29-5.2.38-.49 1.62-2.09 1.86-2.41"/><path style="fill:none;stroke:#424242;stroke-width:1.8182;stroke-linecap:round;stroke-miterlimit:10" d="M51.98 21.71S40.53 47.49 37.76 56.56c-1.79 5.87.83 13.37.83 13.37"/><path style="fill:#424242" d="m60.16 24.16.72 1.98s-.46.65-1.34 1.25c-.32.22-.65.44-.93.63-.51.34-.9.84-1.07 1.43-.13.46-.32.98-.58 1.22-.5.47-1.78 1.39-1.9 1.22s-1.11-1.73-1.11-1.73l2.49-3.34 2.3-3.11 1.42.45zm51.62 36.86c-1.03.72-1.41 2.02-2.68 3.14-1.27 1.12-1.8.75-2.53 1.54-1.15 1.24-.62 1.89-.27 2.17.82.66 2.72.14 4.82-2.34.4-.47 1.71-2.02 1.97-2.32"/><path style="fill:none;stroke:#424242;stroke-width:1.8182;stroke-linecap:round;stroke-miterlimit:10" d="M107.52 66.73S84.68 83.29 76.36 87.86c-6.26 3.43-15.28 1.27-15.28 1.27"/><path style="fill:#424242" d="m67.35 35.16 1.91 1.55-4.75 4.83-1.06-2.08zm35.24 24c-.79-.11-1.58.28-1.93.99-.06.13-.13.27-.19.41-.19.46-.38.93-.52 1.3-.17.43-.48.78-.9.99-.46.23-1.04.57-1.25.91-.36.59-1 2.03-.8 2.11.07.03.36.14.7.26.73.28 1.56.07 2.08-.52l1.9-2.15 2.57-2.89-.28-.49c-.3-.5-.81-.84-1.38-.92z"/><path style="fill:#ffcc80" d="M57.76 7.93c5.51-6.79 20.09-5.89 41.63 11.57s26.15 32.12 20.65 38.91c-5.51 6.79-23.36 1.44-40.76-12.65S52.25 14.72 57.76 7.93z"/><path style="fill:none;stroke:#e64a19;stroke-width:2.4243;stroke-linecap:round;stroke-miterlimit:10" d="M119.43 59.17c-5.51 6.79-23.36 1.44-40.76-12.65S51.64 15.48 57.15 8.69"/><ellipse transform="rotate(-50.974 91.068 30.491)" style="fill:#fef6e0" cx="91.07" cy="30.49" rx="12.58" ry="34.65"/><path style="fill:none;stroke:#424242;stroke-width:2.4243;stroke-linecap:round;stroke-miterlimit:10" d="M69.35 50.83a4.174 4.174 0 0 1 5.87-.61 4.174 4.174 0 0 1 .61 5.87c-1.26 1.55-19.85 19.53-25.51 25.17-.18.18-.46-.05-.32-.26 4.35-6.7 18.1-28.62 19.35-30.17z"/><path style="fill:#424242" d="M77.5 50.22c.22-.81.76-1.49 1.51-1.87.67-.34 1.43-.79 1.75-1.2.46-.57.37-1.4-.19-1.86L78.97 44c-.57-.46-1.29-.51-1.86.19-.39.48-.67 1.28-.84 1.97-.21.8-.76 1.48-1.49 1.86-.66.34-1.16.48-1.49.9-.46.57-.61 1.44-.05 2.15.56.72 1.05 1.02 1.59 1.29.71.35 1.59.13 2.1-.49.34-.42.38-.94.57-1.65z"/><path style="fill:none;stroke:#424242;stroke-width:1.8182;stroke-linecap:round;stroke-miterlimit:10" d="M86.78 65.62c3.57-2.8 2.86-4.94 1.07-6.39-1.79-1.45-4.13-.9-5.87.61-3.47 3.03-20.1 21.79-24.78 27.09-.16.18.08.44.27.29 5.96-4.37 27.75-20.37 29.31-21.6zm8.56 6.05c7.28-4.66 6.35-5.99 4.26-6.95-2.59-1.19-9.13 4.48-9.13 4.48l-28.1 20.97c2.64 1.12 31.02-17.26 32.97-18.5z"/><path style="fill:#424242" d="M103.05 63.63c1.3-1.43 2.09-.53 3.08-2.32.69-1.24.03-2.07-.74-2.54s-2.58-1.37-3.65-.01c0 0 1.16.59.61 1.79-.31.67-1.85 1.56-2.34 2.42-1.01 1.76-1.64 2.3-2.24 2.64-.35.19-.81.24-.48.66.45.58 1.27.94 1.96 1.15 1.05.32 2.2-.24 2.93-1.46.39-.65.03-1.41.87-2.33zM90.8 59.29c.16-.82.05-1.21.76-1.65.64-.39 1.49-.72 2.18-1.66.75-1.02-.44-2.18-1.39-2.8-.95-.62-1.77-1.15-3.02-.61 0 0 .81.75.32 2.14-.52 1.48-1.68 2.53-2.51 3.1-.94.64-1.5 1.48-1.5 1.48s.1.59.8 1.18c1.08.92 1.66.96 2.22 1 1.3.09 1.99-1.38 2.14-2.18zm25.7 3.26c.52-1.82-.19-2.8-1.85-3.04-1.81-.26-2.84 1.38-2.84 1.38s1.67.11.94 1.51c-.48.92-2.91 2.13-3.42 3.06-.81 1.48-2.73 2.99-2.75 3.12 0 0 2.67.45 4.45-1.22.92-.86.62-1.8 2.22-2.55 1.21-.57 2.99-1.33 3.25-2.26z"/><path style="fill:none;stroke:#424242;stroke-width:1.8182;stroke-linecap:round;stroke-miterlimit:10" d="M57.43 41.83c2-4.07 4.24-3.82 6.03-2.37s1.74 3.85.61 5.87c-2.25 4.03-17.16 24.18-21.38 29.85-.14.19-.44.02-.34-.2 3.05-6.74 14.2-31.37 15.08-33.15zm-7.7-7.12c3.05-8.09 4.55-7.45 5.92-5.6 1.7 2.29-2.49 9.86-2.49 9.86l-14.7 31.82c-1.63-2.34 10.46-33.92 11.27-36.08z"/><path style="fill:#424242" d="M56.01 25.5c1.13-1.57.08-2.15 1.63-3.49 1.07-.93 2.01-.46 2.64.2s1.87 2.24.76 3.56c0 0-.82-1.02-1.88-.22-.59.44-1.15 2.13-1.89 2.79-1.52 1.35-1.91 2.08-2.12 2.74-.12.38-.06.84-.55.61-.66-.32-1.19-1.05-1.53-1.68-.53-.97-.22-2.2.82-3.17.57-.52 1.39-.33 2.12-1.34zm6.76 11.1c.77-.33 1.19-.32 1.47-1.11.25-.71.39-1.61 1.17-2.48.84-.94 2.22-.02 3.03.78.8.81 1.49 1.49 1.22 2.83 0 0-.9-.63-2.16.13-1.34.82-2.12 2.16-2.51 3.1-.43 1.05-1.14 1.78-1.14 1.78s-.6.02-1.32-.54c-1.12-.87-1.33-1.49-1.4-2.01-.21-1.55.97-2.19 1.64-2.48zm-8.49-24.49c1.67-.89 2.78-.4 3.36 1.18.63 1.72-.47 3-.47 3s-.75-1.55-1.96-.55c-.8.66-1.48 3.29-2.29 3.98-1.28 1.09-2.36 3.29-2.48 3.34 0 0-.99-2.51.27-4.6.66-1.08 1.63-.98 2.03-2.7.31-1.29.68-3.19 1.54-3.65zm-9.26 73.98c-9.19-7.45-9.89-11.74-9.94-12.2-.09-.85.53-1.61 1.38-1.71.84-.09 1.59.5 1.7 1.33.03.16.87 3.73 8.82 10.17 8.36 6.78 13.51 7.28 13.56 7.29.85.07 1.49.81 1.42 1.66-.06.85-.79 1.49-1.64 1.43-.25-.02-6.06-.49-15.3-7.97z"/><path style="fill:#424242" d="M47.04 84.2C37.92 76.8 35.87 71.22 35.79 71c-.3-.8.1-1.69.9-2 .8-.3 1.69.1 1.99.89.04.1 1.94 4.66 10.25 11.4 8.37 6.78 14.11 7.61 14.17 7.62.85.11 1.45.89 1.34 1.73-.11.85-.87 1.45-1.72 1.34-.26-.02-6.54-.37-15.68-7.78z"/></svg>