<svg xmlns="http://www.w3.org/2000/svg" viewBox="0 0 128 128" style="enable-background:new 0 0 128 128" xml:space="preserve"><path style="fill:#2f7889" d="m43.34 65.46 2.67 50a2.18 2.18 0 0 0 4.36 0l2.67-50h-9.7z"/><path style="fill:#84b0c1" d="M48.09 95.01c-2.14.73-2.74 3.15-2.9 5.1 0 0 .59 10.01.82 15.36a2.18 2.18 0 0 0 4.36 0c.29-5.49.84-17.79.84-17.79s-.97-3.4-3.12-2.67z"/><path style="opacity:.75;fill:#81d4fa" d="M121.64 31.35s-15.54-7.26-31.3-15.34C78.3 9.84 63.69 3.6 48.48 3.6c-23.6 0-42.74 19.14-42.74 42.75s19.14 42.74 42.74 42.74 42.74-19.14 42.74-42.74c0-.86-.03-1.71-.08-2.56l25.04 5.87c2.68.58 5.89-2.99 7.16-7.59s.7-9.71-1.7-10.72z"/><path style="fill:#ab47bc" d="M11.13 48.89c0 18.87 18.29 35.1 37.36 35.1s37.36-16.84 37.36-35.1H11.13z"/><path style="fill:#992faf" d="m73.57 74.1-2.23-5.73-48.04 2.11-.57 3.08c2.77 2.6 5.94 4.78 9.4 6.45-1.08-1.61-2.19-4.11 1.53-3.55 0 0 6.5 1.05 14.85 1.05s16.24-1.2 16.24-1.2c3.33.02.89 3.22.89 3.22 2.87-1.46 5.54-3.29 7.93-5.43z"/><ellipse style="fill:#ea80fc" cx="48.49" cy="48.64" rx="37.36" ry="4.96"/><path style="fill:#84b0c1" d="M19.6 72.31 4.16 121.42a2.17 2.17 0 0 0 1.14 2.79c1.07.47 2.32.02 2.83-1.03l20.23-50.87H19.6zm57.52 0h-8.74l20.22 50.87a2.17 2.17 0 0 0 2.83 1.03 2.17 2.17 0 0 0 1.14-2.79L77.12 72.31z"/><path style="fill:#84b0c1" d="M48.2 75.3c-27.33 0-37.39-6.11-37.85-6.37-1.91-1.09-3.76-3.09-3.78-5.28-.01-2.67 1.88-3.3 1.88-3.3 4.12.98 15.05 7 39.75 7 24.98 0 40.62-7.07 40.72-7.13 0 0 1.66 1.25 1.65 3.69-.01 2.18-1.36 4.41-3.82 5.51-.5.23-11.28 5.88-38.55 5.88z"/><path style="fill:#2f7889" d="M77.19 72.52c6.39-1.46 9.31-2.98 9.56-3.09 1.58-.71 2.69-1.89 3.3-3.21.67-1.58.52-2.3.52-2.3-.11.05-17.39 7.98-42.37 7.98-24.7 0-37.47-6.76-41.59-7.74 0 0-.04.66.61 1.75.71 1.26 1.9 2.33 3.13 3.03.23.13 2.98 1.79 9.24 3.38l-1.32 4.2c.03.01.05.01.07.02.43-1.3 2.26-2.04 4.27-1.66 2.11.4 3.59 1.88 3.35 3.32.02 0 .03.01.05.01l1.7-4.27s7.96 1.38 20.48 1.38 20.85-1.31 20.85-1.31l1.71 4.29c.02 0 .05-.01.08-.01 0-.01-.01-.01-.01-.02-.28-1.45 1.22-2.95 3.35-3.36 2.11-.4 4.03.43 4.34 1.86h.01l-1.33-4.25z"/><g style="opacity:.6"><path style="fill:#fff" d="M80.91 15.35c5.63 2.18 35.22 16.21 37.67 17.47 3.03 1.56 1.87 7-2.04 5.8-5.66-1.75-28.04-14.89-32.48-17.4-11.24-6.36-8.77-8.05-3.15-5.87z"/></g><g style="opacity:.6"><path style="fill:#fff" d="M38.1 30.98c-2.3 3.35-4.75 6.34-6.37 10.14-1.62 3.8-2.57 7.84-3.93 11.73-.61 1.74-1.53 3.67-3.32 4.13-1.48.38-3.07-.46-3.97-1.7s-1.24-2.79-1.46-4.3c-1.03-7.24.03-15.29 2.75-21.94 1.9-4.63 5.46-9.14 10.67-10.64 6.75-1.94 10.88 5.62 6.33 11.45-.28.36-.45.77-.7 1.13z"/></g><path style="fill:#b9e4ea" d="M19.16 63.79c-3.96-1.17-6.31-2.03-6.9-.83-.69 1.4 1.47 3.23 13.6 5.52s19.89 1.62 23.17.2c3.28-1.42-5.25-1.42-8.26-1.61-9.53-.59-17.66-2.11-21.61-3.28z"/></svg>