<svg xmlns="http://www.w3.org/2000/svg" viewBox="0 0 128 128" style="enable-background:new 0 0 128 128" xml:space="preserve"><path style="fill:#d8cdc9" d="M88.61 88.38c-8.4-.24-18.14 5.66-18.1 18.23.03 10.51 8.41 17.15 17.86 17.08 9.1-.07 17.28-6.56 17.6-16.78.35-11.37-8.02-18.26-17.36-18.53z"/><path style="fill:#eaeaea" d="M80.98 113.02c4.22 1.99 11.65 1.74 14.9-3.99 3.81-6.7.46-14.43-4.46-16.07-4.84-1.62-11.48-.92-14.61 4.23-2.08 3.42-3.2 12.35 4.17 15.83z"/><path style="fill:#fff" d="M77.92 109.31c-2.45.72-5.88-8.59-.33-14.34 5.98-6.2 13.66-3.81 13.84-1.31.34 4.57-5.78 1.01-9.27 5.24-3.68 4.44-.35 9.27-4.24 10.41z"/><path style="fill:#1f87fd" d="M85.42 50.75c-.07-.2-5.72-2.44-5.99-2.44s-44.6 49.98-44.6 49.98l11.16 10.9L87.2 52.53l-1.78-1.78z"/><path style="fill:#004fad" d="M85.86 52.02s-9.43 13.11-16.47 22.75-18.26 24.12-18.26 24.12L46 109.19l1.67 1.23s4.73-6.14 10.54-14.13c5.1-7 11.08-15.58 14.62-20.61 4.13-5.86 19.45-28.46 19.45-28.46l-6.42 4.8z"/><path style="fill:#5f6165" d="m79.4 48.33 29.36-35.8s-.63-2.12-.55-3.06c.08-.94 2.92-5.62 5.18-5.89 3.3-.39 9.94 4.56 10.21 7.85.16 1.96-3.14 5.97-4.55 6.2-.86.14-2.75-.16-2.75-.16l-29.2 37.3-7.7-6.44z"/><path style="fill:#ea8d37" d="M17.39 95 21 88.2s3.84 2.14 3.99 6.31c.09 2.44-1.22 5.99-.05 7.68 1.51 2.18 4.63 1.87 4.63 1.87l15.64 2.74 3.08 3.08s-5.66 9.07-12.88 12.43c-5.93 2.76-14.1 2.48-19.81-1.38-4.43-2.99-5.45-5.25-5.45-5.25L17.39 95z"/><path style="fill:#ffa828" d="M36.03 96.93s-4.7 5.04-5.82 6.22-4.7 3.75-7.34-.39c-1.96-3.08.95-5.94.28-10.64-.67-4.7-5.1-5.68-7.73-5.49-2.35.17-9.79 1.47-10.36 14.06-.39 8.74 3.92 14.39 6.83 16.91 2.77 2.39 11.27 5.99 20.5 1.71 8.09-3.75 13.82-13.18 13.82-13.18l-10.18-9.2z"/><path style="fill:#605f66" d="m39.29 93.23-3.85 4.3 12.85 12.32 4.65-6.39z"/><path style="fill:#e2e0e4" d="m43.36 88.65-4.09 4.61 12.96 11.22 3.62-4.91zM79.4 48.33l3.73-4.55 7.58 6.38-3.55 4.63z"/><path style="fill:#848582" d="M86.17 43.44c.01.72.96 1.85 3.58.95 2.37-.82 1.68-2.63 2.8-3.88 1.12-1.25 2.31-.89 3.6-2.79s1-3.28 2.2-4.68c1.5-1.76 2.08-.59 3.43-2.32 1.21-1.55.35-2.44 1.4-3.81 1.3-1.7 1.69-.39 3.38-2.27 1.64-1.81.73-2.54 1.77-4.18.73-1.15 2.09-1.24 3-2.35 1.6-1.94 2.03-2.91.92-3.74-1.36-1.01-2.16.86-3.06 1.77-1.29 1.29-2.02.98-3.12 2.13-1.69 1.76-.67 2.7-1.92 4.26-1.25 1.55-2.29.73-3.54 2.29-1.25 1.55-.78 3.02-1.68 3.92-.91.91-1.64.6-2.89 1.94-1.74 1.86-.93 3.45-2.3 5.14-1.12 1.38-2.31.81-3.52 2.19s-1 2.79-1.55 3.28c-1.08.94-2.51.57-2.5 2.15z"/></svg>