<svg xmlns="http://www.w3.org/2000/svg" viewBox="0 0 128 128" style="enable-background:new 0 0 128 128" xml:space="preserve"><path style="fill:#f79226" d="M47.31 31.05c-1.5 3.85-3.17 14.51 1.72 24.42 3.99 8.11 7.36 9.1 8.81 13.94.76 2.53.27 13.77-.34 15.83-.61 2.06-3.73 8.2-3.87 17.75-.13 8.56 4.69 15.56 6.29 17.46 1.94 2.3 2.66 2.9 4.11 2.9.85 0 4.36-6.66 4.24-7.14-.12-.48-2.54-50.71-2.54-50.71l5.45-37.15-23.87 2.7z"/><path style="fill:#ffc516" d="M65.48 4.88c-3.14-.09-16.26 16.63-18.17 26.17-1.91 9.53 1.76 20.21 6.36 26.51S64.1 68.17 64.22 68.89c.12.73-.18 54.47-.18 54.47s.72.09 1.33-.34c.51-.36 2.17-2.09 4.35-5.73 2.36-3.94 4.59-9.27 4.6-15.2 0-9.94-4.23-15.65-4.47-18.68-.24-3.03.15-12.57.51-14.14.96-4.18 8.08-8.13 10.99-15.51 2.16-5.49 4.72-15.13-1.57-29.05-6.31-13.9-11.69-19.75-14.3-19.83z"/><path style="fill:#ffeda8" d="M63.79 11.31c-1.71.31-14.73 14.71-13.23 27.99C51.82 50.4 61 62.03 63.61 61.29c1.4-.4 1-12.63 1.12-24.6.12-12.61.25-25.6-.94-25.38z"/><path style="fill:#f79226" d="M79.97 31.55c-1.27-.29-.73 8.01-4.2 16.02-4.03 9.28-9.89 11.82-7.7 13.92 2.19 2.1 9.19-1.84 11.99-11.12 2.17-7.21 2.19-18.3-.09-18.82zm15.36 55.09s3.28 0 4.69 3.04c1.66 3.59-.53 13.92-12.08 13.39-11.38-.52-14.63-12.67-14.63-17.32 0-3 5.79-9.55 5.79-9.55l13.66-13.74 8.14-3.33 21.53 7.35s-12.73 19.9-13.37 19.61c-.42-.2-2.26-.78-2.39-2.8-.17-2.62 1.93-4.55 1.05-9.45-.53-2.96-3.94-7.35-11.29-5.69s-12.52 7.56-13.39 14.71c-1.31 10.77 4.51 11.03 4.51 11.03s5.82 1.31 5.91 1.05c.08-.28 1.87-8.3 1.87-8.3zm-78.13-.25s3.33-.22 3.33-3.37c0-2.72-3.33-11.47 2.45-14.09 5.78-2.63 13.83-.35 18.82 6.3 4.39 5.86 3.94 16.98-.79 18.12s-7.79-1.31-7.79-1.31l-1.66-5.66s-4.98 1.19-4.38 6.8c.53 4.9 4.41 10.27 12.96 9.89 9.89-.44 14.92-11.11 14.44-19.78-.41-7.62-13.76-18.97-14.18-19.09-1.58-.44-19.35-4.73-20.13-3.85S8.98 75.14 8.98 75.14l8.22 11.25z"/><path style="fill:#ffc516" d="M108.33 85.73c-.27-.2 5.57-6.77 4.9-13.92-.7-7.53-10.24-11.64-21.8-6.22-11.27 5.29-14.2 23.84-6.74 27.22 7.53 3.41 8.93-6.04 10.59-6.22 1.54-.16 5.75 6.3-.35 11.03-8.48 6.58-21.26-1.91-21.8-13.39-.44-9.28 2.19-22.11 17.49-30.04 9.63-4.99 18.72-3.68 24.79-.51 4.73 2.47 7.52 6.7 8.4 11.03 1.36 6.67-1.03 12.18-3.15 15.58-4.62 7.46-10.92 6.47-12.33 5.44zm-90.69.53c-.56.51-5.72.44-9.89-4.55-5.34-6.39-6.41-19.79 2.36-26.35 10.12-7.56 26.15-5.09 37.29 7.62 8.05 9.19 8.82 19.47 5.25 27.92-2.24 5.3-6.55 8.97-12.26 9.1-7.23.17-10.42-4.2-10.76-8.08-.25-2.79.72-5.34 2.01-5.57 1.99-.36 1.14 7.97 9.37 7 7.17-.84 12.08-13.92-.7-25.04-12.94-11.25-24.6-4.64-25.82 3.76-1.35 9.28 4.2 13.23 3.15 14.19z"/><path style="fill:#ffeda8" d="M76.91 75.58c.73.46 2.87-4.08 6.04-7.62 3.76-4.2 7.39-5.97 11.47-8.05 8.58-4.38 13.92-1.14 14.01-4.64.07-2.89-9.72-2.98-17.07.96C79.1 62.8 75.94 74.97 76.91 75.58z"/><path style="fill:#f79226" d="M43.47 78.12c-1.84-.09-2.98 1.66-2.98 3.59 0 2.1 1.66 3.68 4.29 3.76 2.63.09 35.98 0 38.17 0 2.19 0 3.06-2.01 3.15-3.76.09-1.75-1.31-3.24-3.06-3.33s-39.57-.26-39.57-.26z"/><path style="fill:#ffeda8" d="M43.82 81.27c1.75 0 37.47.18 38.87.09 1.4-.09 1.93-1.23 1.84-2.01-.09-.79-1.31-1.05-2.63-1.05-1.31 0-37.47-.35-38.43-.18-.96.18-1.49.88-1.4 1.58.08.69.52 1.57 1.75 1.57zM8.64 71.31c1.32.09 3.02-7.79 8.14-11.05 4.37-2.78 8.53-3.11 13.83-2.18s8.04 2.67 8.47 1.85c.66-1.26-10.78-9.92-22.76-5.69S6.79 71.18 8.64 71.31z"/></svg>