<svg xmlns="http://www.w3.org/2000/svg" viewBox="0 0 128 128" style="enable-background:new 0 0 128 128" xml:space="preserve"><path style="fill:#f77e00" d="M116 4H12c-4.42 0-8 3.58-8 8v104c0 4.42 3.58 8 8 8h104c4.42 0 8-3.58 8-8V12c0-4.42-3.58-8-8-8z"/><path style="fill:#ff9800" d="M109.7 4H11.5A7.555 7.555 0 0 0 4 11.5v97.9c-.01 4.14 3.34 7.49 7.48 7.5h98.12c4.14.01 7.49-3.34 7.5-7.48V11.5c.09-4.05-3.13-7.41-7.18-7.5h-.22z"/><path style="opacity:.75;fill:#ffbd52;enable-background:new" d="M39.7 12.9c0-2.3-1.6-3-10.8-2.7-7.7.3-11.5 1.2-13.8 4s-2.9 8.5-3 15.3c0 4.8 0 9.3 2.5 9.3 3.4 0 3.4-7.9 6.2-12.3 5.4-8.7 18.9-10.6 18.9-13.6z"/><path style="fill:#fafafa" d="M96 95.2c0 5.7-1.5 8.4-5.3 9.9s-9.8 1.8-18.8 1.8c-.87 0-1.64-.57-1.9-1.4-.53-1.7-1.17-3.37-1.9-5a1.999 1.999 0 0 1 1.8-2.8c6.2.2 11.9.1 13.9.1s2.8-.8 2.8-2.8V80.3c0-1.1-.9-2-2-2H45.2c-.91-.01-1.7.62-1.9 1.5-2.4 9.5-6.7 18.8-14.3 25.9-.76.75-1.98.74-2.73-.02a.572.572 0 0 1-.07-.08c-1.1-1.2-2.5-2.5-3.7-3.6-.83-.73-.9-2-.17-2.82.02-.03.05-.05.07-.08 13.2-12.6 14.5-30.3 14.5-44.6V26.8c0-1.1.9-2 2-2H94c1.1 0 2 .9 2 2v68.4zm-9.3-27.3V57.8c0-1.1-.9-2-2-2H47.9c-1.07 0-1.95.83-2 1.9-.1 3.2-.3 6.5-.6 10-.1 1.06.67 1.99 1.73 2.09.09.01.18.01.27.01h37.5a1.9 1.9 0 0 0 1.9-1.9zM46 35.3v10.1c0 1.1.9 2 2 2h36.8c1.1 0 2-.9 2-2V35.3c0-1.1-.9-2-2-2H47.9a1.92 1.92 0 0 0-1.9 1.94v.06z"/></svg>