<svg xmlns="http://www.w3.org/2000/svg" viewBox="0 0 1000 1000"><path fill="#fff" d="M8 195.25c170.83-85.22 341.03-54.42 513.26-27.97 155.21 23.84 312.16 44.57 470.74-34.53v672c-170.83 85.22-341.03 54.42-513.26 27.97C323.53 808.88 166.58 788.15 8 867.25v-672"/><path fill="#ce1126" d="M992 132.75c-245.87 122.66-488.33 3.43-741.28 6.63 49.79 21.54 99.57 48.01 150.88 77.44-49.79 15.79-99.58 33.46-150.88 56.96 49.79 21.54 99.57 48.01 150.88 77.45-49.79 15.78-99.58 33.45-150.88 56.95 49.79 21.54 99.57 48.01 150.88 77.45-49.79 15.78-99.58 33.45-150.88 56.95 49.79 21.54 99.57 48.01 150.88 77.45-49.79 15.78-99.58 33.45-150.88 56.95 49.79 21.54 99.57 48.01 150.88 77.44-49.79 15.79-99.58 33.46-150.88 56.96 243.36-3.08 490.96 118.24 741.28-6.63v-672"/><path fill="#1A1A1A" opacity=".2" d="M8 195.25c170.83-85.22 341.03-54.42 513.26-27.97 155.21 23.84 312.16 44.57 470.74-34.53v672c-170.83 85.22-341.03 54.42-513.26 27.97C323.53 808.88 166.58 788.15 8 867.25v-672m31.25 19.39v604.5c306.56-128.26 611.18 96.04 921.5-33.78v-604.5c-306.56 128.26-611.18-96.04-921.5 33.78"/></svg>