<svg xmlns="http://www.w3.org/2000/svg" viewBox="0 0 128 128" style="enable-background:new 0 0 128 128" xml:space="preserve"><path transform="rotate(45.001 23.817 104.856)" style="fill:#5a96a8" d="M19.35 96.45h8.93v16.82h-8.93z"/><path style="fill:none;stroke:#82aec0;stroke-width:5.9835;stroke-miterlimit:10" d="M112.43 34.79 74.39 72.83c-2.44 2.44-5.59 4.14-9.29 5.01 0 0-10.9 1.77-15.8 6.66"/><path style="fill:#82aec0" d="m28.02 101.82-1.78-1.78a5.782 5.782 0 0 1 0-8.18l17.5-17.5 9.96 9.96-17.5 17.5a5.782 5.782 0 0 1-8.18 0z"/><path style="fill:#757575" d="M15.15 122.87c-.33.35-.7.67-1.13.88-1.47.75-3.05-.36-4.12-1.34-1.99-1.82-3.94-3.8-4.96-6.3-.19-.47-.35-.98-.2-1.46.11-.37.39-.67.66-.95 1.39-1.45 2.92-2.98 4.9-3.3.73-.12 1.49-.06 2.2-.29 1-.31 1.58-1.47 2.55-1.71 1.34-.33 2.52 1.57 3.36 2.36.72.68 2.12 1.57 2.04 2.71-.1 1.47-2.19 2.14-2.5 3.64-.12.59 0 1.21-.11 1.81-.11.62-.47 1.17-.84 1.68-.45.63-.93 1.24-1.44 1.82-.14.15-.27.3-.41.45z"/><path style="fill:#424242" d="m18.43 113.84.75.75c.07.07.15.15.18.25.21.83-1.54 2.04-2.27 2.08-1.28.07-2.79-.97-3.61-1.87-1.35-1.47-1.97-3.5-.63-5.11.24-.29.58-.58.95-.52.24.04.43.22.6.4 1.35 1.34 2.69 2.68 4.03 4.02z"/><path style="fill:#b7855f" d="M78.29 64.97c-.15-.18-.29-.37-.44-.56-.93-1.16-2.08-2.15-3.37-2.88-1.08-.61-2.25-1.04-3.27-1.76-3.03-2.14-4.05-6.25-6.89-8.66-.63-.53-1.35-.98-1.87-1.62-2.12-2.58 2.28-6.97 4.89-4.5.52.49.85 1.13 1.2 1.74 1.07 1.85 2.72 2.13 4.4 3.15 1.8 1.1 3.37 2.61 4.52 4.38 1.41 2.17 2.36 4.87 4.6 6.15.57.33 1.22.55 1.67 1.04.83.92-.18 2.2-.78 2.81l-.95.96c-.66.66-1.97 1.18-2.93.52-.3-.21-.55-.48-.78-.77z"/><path style="fill:none;stroke:#82aec0;stroke-width:5.9835;stroke-miterlimit:10" d="M93.77 15.05 55.73 53.09c-2.44 2.44-4.14 5.59-5.01 9.29 0 0-1.77 10.9-6.66 15.8"/><path style="fill:#e6a467" d="M71.71 54.49c-.45-.39-.94-.75-1.45-1.05-.63-.37-.94-1.11-.7-1.76l.32-.88c.28-.77 1.18-1.1 1.93-.67.87.49 1.69 1.09 2.44 1.76.64.58.64 1.56.03 2.09l-.7.61c-.54.43-1.32.38-1.87-.1z"/><path style="fill:#2f7889" d="m91.66 12.91-1.99 2.01.22 8.2 5.54-5.2zm19.17 19.2-3.27 3.31c1.39 2.83.61 7.82.61 7.82L114.5 37l-3.67-4.89z"/><path style="fill:#b7855f" d="M110.28 34.07c-3.71-2.93-14.19-13.54-18.41-18.65-2.16-2.62-4.64-7.53-1.37-10.31 1.38-1.18 3.46-1.43 5.12-.7 3.3 1.46 3.2 5.49 5.05 8.09 1.58 2.23 3.81 4.11 5.76 5.99 2.22 2.13 4.48 4.22 6.7 6.35 1.06 1.02 1.94 1.63 3.42 2.03 1.74.47 3.76.67 5.08 2.04.69.72 1.08 1.67 1.36 2.62.26.91.43 1.86.31 2.8-.31 2.48-2.13 3.58-4.44 3.72-1.85.12-4.87-1.05-8.58-3.98z"/><path style="fill:#757575" d="M19.07 103.28s-1.1-.46-1.72.15-2.75 2.75-3.43 3.43c-.68.68-1.17 1.47-.25 3.23 1.11 2.12 3.06 3.73 4.53 4.52 1.57.84 2.08 1.01 3.27.23 1.18-.79 3.39-3.25 3.84-3.84s.37-1.7.37-1.7-.91.47-1.99.17-4.14-3.6-4.53-4.58c-.38-.97-.09-1.61-.09-1.61z"/><path style="fill:#e6a467" d="M95.09 7.68c-.07.83-.35 1.64-.5 2.46-.14.79-.17 1.61-.07 2.41.07.58.15 1.29-.32 1.63-.42.3-1.02.09-1.44-.23-.78-.59-1.28-1.49-1.67-2.38-.43-.98-.78-2.03-.75-3.11.03-1.14.74-3.1 1.97-3.48 1.81-.58 2.92 1.08 2.78 2.7z"/><path style="fill:#b9e4ea" d="M41.49 80.8c-.92-.82-4.25 2.26-8.35 6.36-4.09 4.09-6.87 7.31-6 8.18.87.87 4.83-2.1 8.92-6.19s7.23-6.75 5.43-8.35z"/></svg>