<svg xmlns="http://www.w3.org/2000/svg" viewBox="0 0 128 128" style="enable-background:new 0 0 128 128" xml:space="preserve"><linearGradient id="a" gradientUnits="userSpaceOnUse" x1="64.227" y1="52.497" x2="64.227" y2="1.658" gradientTransform="matrix(1 0 0 -1 0 128)"><stop offset="0" style="stop-color:#00bfa5"/><stop offset=".47" style="stop-color:#00b29a"/><stop offset="1" style="stop-color:#009e89"/></linearGradient><path style="fill:url(#a)" d="M113.05 91.9C99.03 77.41 68.83 76.36 64.5 76.28v-.01h-.54v.01c-4.33.08-34.54 1.13-48.55 15.62-10.21 10.56-8 20.8-5.88 23.81 4.01 5.68 14.75 8.25 14.75 8.25h79.9s10.74-2.57 14.75-8.25c2.12-3.01 4.33-13.25-5.88-23.81z"/><path style="fill:#99674f" d="M64 87.08h-9.08v9.98c0 4.51 4.29 8.17 9.08 8.17s9.08-3.66 9.08-8.17v-9.98H64z"/><radialGradient id="b" cx="63.888" cy="19.656" r="38.651" gradientTransform="matrix(1 0 0 -.4142 0 116.495)" gradientUnits="userSpaceOnUse"><stop offset=".771" style="stop-color:#000"/><stop offset="1" style="stop-color:#000;stop-opacity:0"/></radialGradient><path style="opacity:.2;fill:url(#b);enable-background:new" d="M64 92.7c-27.26 0-36.19 11.06-36.19 11.06l11.02 6.17c.78.53 1.07 1.54.68 2.39l-.55 1.23L54.04 124h19.92l15.08-10.45-.55-1.23c-.39-.85-.1-1.86.68-2.39l10.8-6.3c0 .01-8.71-10.93-35.97-10.93z"/><linearGradient id="c" gradientUnits="userSpaceOnUse" x1="61.808" y1="9.227" x2="40.443" y2="9.227" gradientTransform="matrix(1 0 0 -1 0 128)"><stop offset=".5" style="stop-color:#ba8d68"/><stop offset="1" style="stop-color:#a47b62"/></linearGradient><path style="fill:url(#c)" d="m38.96 113.56 3.31.2c1.22 0 2.42.18 3.58.53 3.6 1.1 11.54 3.87 15.85 4.97 1.06.27 1.79 1.22 1.79 2.32 0 .66-.27 1.26-.7 1.69-.44.44-1.04.71-1.7.71H34.56l4.4-10.42z"/><linearGradient id="d" gradientUnits="userSpaceOnUse" x1="67.808" y1="9.227" x2="88.322" y2="9.227" gradientTransform="matrix(1 0 0 -1 0 128)"><stop offset=".5" style="stop-color:#ba8d68"/><stop offset="1" style="stop-color:#a47b62"/></linearGradient><path style="fill:url(#d)" d="m89.04 113.56-3.31.2c-1.22 0-2.42.18-3.58.53-3.6 1.1-11.53 3.87-15.84 4.97-1.07.27-1.8 1.22-1.8 2.32 0 .66.27 1.26.7 1.69.44.44 1.04.71 1.7.71h26.46l-4.33-10.42z"/><path style="fill:none;stroke:#b0bec5;stroke-width:4;stroke-linecap:round;stroke-miterlimit:10" d="M52.56 15.99 49.86 5.9m-12.9 16.68-6.66-6.54m60.01 7.38 7.39-7.38m-22.26-.05 2.7-10.09"/><path style="fill:#99674f" d="M89.94 60.58H37.61c-5.64 0-10.26 4.47-10.26 9.94s4.62 9.94 10.26 9.94h52.33c5.64 0 10.26-4.47 10.26-9.94s-4.62-9.94-10.26-9.94z"/><path style="fill:#ba8d68" d="M63.77 25.42c-16.67 0-32.1 16.21-32.1 39.54 0 23.2 15.9 34.67 32.1 34.67s32.1-11.47 32.1-34.67c0-23.33-15.43-39.54-32.1-39.54z"/><path style="fill:#99674f" d="M67.47 83.88c-.1-.04-.21-.06-.31-.07h-6.77c-.1.01-.21.03-.31.07-.61.23-.95.81-.66 1.42s1.64 2.35 4.36 2.35c2.72 0 4.07-1.73 4.36-2.35.28-.62-.06-1.2-.67-1.42z"/><ellipse style="fill:#49362e" cx="47.34" cy="74.93" rx="4.93" ry="4"/><ellipse style="fill:#49362e" cx="80.21" cy="74.93" rx="4.93" ry="4"/><path style="fill:#613e31" d="M39.76 66.84c3.18-4.51 10.66-4.66 14.41-.82.65.67 1.34 1.54.85 2.5-.54 1.07-1.65.9-2.56.53-2.43-.98-4.94-1.42-7.55-.89-1.13.23-2.1.7-3.17 1.07-1.44.51-2.91-1-1.98-2.39zm46.06 2.41c-2.23-.97-4.49-1.53-6.95-1.25-1.12.13-2.22.42-3.26.83-.83.33-1.72.86-2.58.28-2.45-1.69 1.89-4.44 3.17-4.99 2.76-1.19 6.05-1.08 8.72.31 1.06.55 2.21 1.35 2.84 2.4.79 1.3-.39 3.05-1.94 2.42z"/><path style="fill:#543930" d="M63.79 20.15h-.04c-43.44.22-34.54 47.16-34.54 47.16s1.95 4.84 2.84 6.98c.13.31.6.28.68-.05.93-3.93 4.27-17.84 5.95-22.07.99-2.49 3.73-3.94 6.5-3.47 4.26.73 11.04 1.63 18.52 1.63h.16c7.48 0 14.26-.9 18.52-1.63 2.77-.47 5.5.97 6.5 3.47 1.68 4.22 4.99 18.05 5.93 22.03.08.32.55.36.68.05l2.85-6.93c-.01-.02 8.89-46.95-34.55-47.17z"/><radialGradient id="e" cx="63.773" cy="79.174" r="36.418" gradientTransform="matrix(1 0 0 -1.0673 0 143.601)" gradientUnits="userSpaceOnUse"><stop offset=".794" style="stop-color:#6d4c41;stop-opacity:0"/><stop offset="1" style="stop-color:#6d4c41"/></radialGradient><path style="fill:url(#e)" d="M98.33 67.3s8.9-46.94-34.54-47.16h-.03c-.67 0-1.34.02-1.99.04-1.29.05-2.54.15-3.74.28h-.04l-.25.03C21.17 24.86 29.22 67.3 29.22 67.3l2.85 6.94c.13.31.6.28.67-.04.94-3.97 4.27-17.83 5.94-22.04.99-2.49 3.88-3.94 6.64-3.47 4.24.73 11 1.63 18.46 1.63h.16c7.46 0 14.21-.9 18.46-1.63 2.76-.47 5.49.97 6.47 3.47 1.68 4.23 5.02 18.18 5.94 22.08.08.32.54.35.67.05.89-2.13 2.85-6.99 2.85-6.99z"/></svg>