<svg xmlns="http://www.w3.org/2000/svg" viewBox="0 0 128 128" style="enable-background:new 0 0 128 128" xml:space="preserve"><path style="fill:#543930" d="M64.57 4.87c-41.01 0-40.68 35.92-40.68 36.52 0 24.56 1.88 59.25 11.71 72.9 3.9 5.41 11.43 5.71 11.43 5.71l16.97-.02 16.97.02s7.54-.3 11.43-5.71c9.83-13.65 11.71-48.34 11.71-72.9-.01-.6 1.47-36.52-39.54-36.52z"/><radialGradient id="a" cx="64" cy="68.51" r="46.963" gradientTransform="matrix(1 0 0 -1.1901 0 141.022)" gradientUnits="userSpaceOnUse"><stop offset=".794" style="stop-color:#6d4c41;stop-opacity:0"/><stop offset="1" style="stop-color:#6d4c41"/></radialGradient><path style="fill:url(#a)" d="M64.57 4.87c-41.01 0-40.68 35.92-40.68 36.52 0 24.56 1.88 59.25 11.71 72.9 3.9 5.41 11.43 5.71 11.43 5.71l16.97-.02 16.97.02s7.54-.3 11.43-5.71c9.83-13.65 11.71-48.34 11.71-72.9-.01-.6 1.47-36.52-39.54-36.52z"/><path style="fill:#99674f" d="M73.78 89.18H54.1v19.48c0 4.89 4.01 8.85 8.95 8.85h1.79c4.94 0 8.95-3.97 8.95-8.85V89.18h-.01z"/><path style="fill:#ba8d68" d="M63.95 16.23c-17.2 0-33.13 12.79-33.13 39.91 0 21.79 13.49 34.67 25.23 38.83 2.8.99 5.5 1.49 7.9 1.49 2.38 0 5.07-.49 7.85-1.47 11.76-4.14 25.28-17.03 25.28-38.84 0-27.13-15.93-39.92-33.13-39.92z"/><path style="fill:#99674f" d="M67.76 68.24c-.1-.04-.21-.07-.32-.08h-6.99c-.11.01-.21.04-.32.08-.63.26-.98.91-.68 1.61s1.69 2.66 4.49 2.66c2.8 0 4.19-1.96 4.49-2.66.31-.69-.03-1.35-.67-1.61z"/><ellipse style="fill:#49362e" cx="47.7" cy="59.06" rx="4.87" ry="5.04"/><ellipse style="fill:#49362e" cx="80.2" cy="59.06" rx="4.87" ry="5.04"/><path style="fill:#613e31" d="M54.93 50.01C54 48.78 51.86 47 47.7 47s-6.31 1.79-7.23 3.01c-.41.54-.31 1.17-.02 1.55.26.35 1.04.68 1.9.39s2.54-1.16 5.35-1.18c2.81.02 4.49.89 5.35 1.18s1.64-.03 1.9-.39c.29-.38.39-1.01-.02-1.55zm32.5 0C86.5 48.78 84.36 47 80.2 47s-6.31 1.79-7.23 3.01c-.41.54-.31 1.17-.02 1.55.26.35 1.04.68 1.9.39s2.54-1.16 5.35-1.18c2.81.02 4.49.89 5.35 1.18s1.64-.03 1.9-.39c.29-.38.39-1.01-.02-1.55z"/><path style="fill:#5d4037" d="M72.27 76.33c-3.15 1.87-13.46 1.87-16.61 0-1.81-1.07-3.65.57-2.9 2.21.74 1.61 6.37 5.36 11.23 5.36s10.42-3.75 11.16-5.36c.75-1.64-1.08-3.29-2.88-2.21z"/><path style="fill:#212121" d="M114.45 120.99c0-14.61-21.75-21.54-40.72-23.1l-8.6 11.03c-.28.36-.72.58-1.18.58-.46 0-.9-.21-1.18-.58l-8.61-11.05c-10.55.81-40.71 4.75-40.71 23.12V124h101v-3.01z"/><radialGradient id="b" cx="63.95" cy="5.397" r="54.167" gradientTransform="matrix(1 0 0 -.5247 0 125.435)" gradientUnits="userSpaceOnUse"><stop offset=".598" style="stop-color:#212121"/><stop offset="1" style="stop-color:#616161"/></radialGradient><path style="fill:url(#b)" d="M114.45 120.99c0-14.61-21.75-21.54-40.72-23.1l-8.6 11.03c-.28.36-.72.58-1.18.58-.46 0-.9-.21-1.18-.58l-8.61-11.05c-10.55.81-40.71 4.75-40.71 23.12V124h101v-3.01z"/><path style="fill:#543930" d="M64.57 4.87c-41.01 0-40.68 35.92-40.68 36.52 0 7.76.19 16.53.75 25.32l6.72-.02c-.06-2.92 1.99-20.97 8.08-22.34 22.36-5.03 35.01-16.89 35.01-16.89 3.29 7.18 13.58 14.19 17.27 16.86 3.03 2.19 4.26 18.55 4.2 22.38h7.41c0-.05.02-.1.02-.16.56-8.75.74-17.46.74-25.17.01-.58 1.49-36.5-39.52-36.5z"/><radialGradient id="c" cx="64.333" cy="65.404" r="49.771" gradientTransform="matrix(1 0 0 -1.2135 0 141.967)" gradientUnits="userSpaceOnUse"><stop offset=".794" style="stop-color:#6d4c41;stop-opacity:0"/><stop offset="1" style="stop-color:#6d4c41"/></radialGradient><path style="fill:url(#c)" d="M64.57 4.87c-41.01 0-40.68 35.92-40.68 36.52 0 7.76.19 16.53.75 25.32l6.72-.02c-.06-2.92 1.99-20.97 8.08-22.34 22.36-5.03 35.01-16.89 35.01-16.89 3.29 7.18 13.58 14.19 17.27 16.86 3.03 2.19 4.26 18.55 4.2 22.38h7.41c0-.05.02-.1.02-.16.56-8.75.74-17.46.74-25.17.01-.58 1.49-36.5-39.52-36.5z"/><path style="fill:#e8ad00" d="M116.62 53.3c-1.24 0-2.25.96-2.25 2.14v9.2c0 1.18 1.01 2.14 2.25 2.14s2.25-.96 2.25-2.14v-9.2c0-1.18-1.01-2.14-2.25-2.14zm-4.5 0c-1.24 0-2.25.96-2.25 2.14v9.2c0 1.18 1.01 2.14 2.25 2.14s2.25-.96 2.25-2.14v-9.2c0-1.18-1.01-2.14-2.25-2.14z"/><path style="fill:#ffca28" d="M114.37 53.3c-1.24 0-2.25.96-2.25 2.14v11.19c0 1.18 1.01 2.14 2.25 2.14s2.25-.96 2.25-2.14V55.44c0-1.18-1.01-2.14-2.25-2.14z"/><ellipse style="fill:#ffca28" cx="114.37" cy="52.07" rx="2.76" ry="2.63"/><path style="fill:#504f4f" d="M114.37 52.04c-.55 0-1-.45-1-1v-38c0-.55.45-1 1-1s1 .45 1 1v38c0 .55-.45 1-1 1z"/><linearGradient id="d" gradientUnits="userSpaceOnUse" x1="63.366" y1="128.333" x2="63.366" y2="99.693" gradientTransform="matrix(1 0 0 -1 0 128)"><stop offset=".003" style="stop-color:#424242"/><stop offset=".472" style="stop-color:#353535"/><stop offset="1" style="stop-color:#212121"/></linearGradient><path style="fill:url(#d)" d="M115.37 12c-30.83-7.75-52-8-52-8s-21.17.25-52 8v.77c0 1.33.87 2.5 2.14 2.87 3.72 1.1 12.09 3.32 17.15 4.33-.08.08-1.29 1.89-2.05 3.35 0 0 9.39 6.12 34.76 8.68 25.37-2.56 36.65-8.5 36.65-8.5-.88-1.81-1.92-3.34-1.92-3.34 4.5-.74 11.46-3.3 15.18-4.48 1.25-.4 2.09-1.55 2.09-2.86V12z"/><linearGradient id="e" gradientUnits="userSpaceOnUse" x1="63.366" y1="128.167" x2="63.366" y2="97.167" gradientTransform="matrix(1 0 0 -1 0 128)"><stop offset=".003" style="stop-color:#616161"/><stop offset=".324" style="stop-color:#505050"/><stop offset=".955" style="stop-color:#242424"/><stop offset="1" style="stop-color:#212121"/></linearGradient><path style="fill:url(#e)" d="M63.37 4s-21.17.25-52 8c0 0 35.41 9.67 52 9.38 16.59.29 52-9.38 52-9.38-30.84-7.75-52-8-52-8z"/><linearGradient id="f" gradientUnits="userSpaceOnUse" x1="13.259" y1="110.001" x2="114.087" y2="110.001" gradientTransform="matrix(1 0 0 -1 0 128)"><stop offset=".001" style="stop-color:#bfbebe"/><stop offset=".3" style="stop-color:#212121;stop-opacity:0"/><stop offset=".7" style="stop-color:#212121;stop-opacity:0"/><stop offset="1" style="stop-color:#bfbebe"/></linearGradient><path style="opacity:.4;fill:url(#f);enable-background:new" d="M115.37 12c-30.83-7.75-52-8-52-8s-21.17.25-52 8v.77c0 1.33.87 2.5 2.14 2.87 3.72 1.1 12.09 3.21 17.15 4.35 0 0-1.07 1.49-2.05 3.33 0 0 9.39 6.12 34.76 8.68 25.37-2.56 36.65-8.5 36.65-8.5-.88-1.81-1.92-3.34-1.92-3.34 4.5-.74 11.46-3.3 15.18-4.48 1.25-.4 2.09-1.55 2.09-2.86V12z"/></svg>