<svg xmlns="http://www.w3.org/2000/svg" viewBox="0 0 1000 1000"><path fill="#da1a35" d="M8 195.25c170.83-85.22 341.03-54.42 513.26-27.97 155.21 23.84 312.16 44.57 470.74-34.53v672c-170.83 85.22-341.03 54.42-513.26 27.97C323.53 808.88 166.58 788.15 8 867.25v-672"/><path fill="#FFF" d="M8 195.25c225.61 109.32 450.08 421.69 683.06 664.04 99.2 5.51 198.75-3.57 300.94-54.54-225.61-109.32-450.08-421.69-683.06-664.04-99.2-5.51-198.75 3.57-300.94 54.54"/><path d="M58.15 173.4c225.43 137.78 450.11 458.61 683.06 687.29 66.2-.22 132.44-8.7 200.64-34.09-225.43-137.78-450.11-458.61-683.06-687.29-66.2.22-132.44 8.7-200.64 34.09"/><path fill="#1A1A1A" opacity=".2" d="M8 195.25c170.83-85.22 341.03-54.42 513.26-27.97 155.21 23.84 312.16 44.57 470.74-34.53v672c-170.83 85.22-341.03 54.42-513.26 27.97C323.53 808.88 166.58 788.15 8 867.25v-672m31.25 19.39v604.5c306.56-128.26 611.18 96.04 921.5-33.78v-604.5c-306.56 128.26-611.18-96.04-921.5 33.78"/></svg>