<svg xmlns="http://www.w3.org/2000/svg" viewBox="0 0 128 128" style="enable-background:new 0 0 128 128" xml:space="preserve"><path style="fill:#9c9c9c" d="M87.86 3.74s-.54-.99-2.8-.59c-2.49.43-7.82 4.48-9.52 14.44s-3.36 40.77-2.21 42.79c2.13 3.74 6.51 6.73 6.61 8.85.07 1.58-.41 38.27-.76 40.88s-2.22 9.75-2.46 11.56c-.24 1.79.82 3.17 1.93 3.28 1.82.17 7.28.22 7.28.22L87.86 3.74zM54.45 48.17s-1.26-30.73-1.35-31.91c-.05-.72-.41-1.76-1.31-1.72-.58.02-.93.65-.93 1.54 0 1.53-.54 27.44-.53 28.89.03 2.09-2.35 1.64-2.3.1.05-1.53-.17-27.37-.26-28.7-.07-1-.28-1.65-1.11-1.65-.82 0-1.15.62-1.29 1.7-.31 2.3-.56 27.35-.61 28.73-.06 1.72-2.32 1.7-2.32-.14 0-1.84.12-27.16.12-28.7 0-.81-.44-1.55-1.22-1.53-.66.02-1.13.76-1.18 1.43-.1 1.43-1 27.24-1.07 28.52-.11 2.02-2.58 2.07-2.58-.13 0-2.2.88-26.71.93-28.24.03-.96-.5-1.65-.93-1.65-1 0-1.25 1.05-1.37 1.8-.26 1.64-2.1 16.09-2.54 21.47-.44 5.38-1.26 15.12.35 18.43 1.96 4.01 5.91 4.93 5.91 4.93s-.66 44.62-1.06 47.54c-.57 4.2-3.26 11.46-3 13.13s1.21 2.65 2.97 2.74 5.3.55 6.3.28c.43-.12.61-27.62.61-27.62l.44-43.23 9.33-6.01z"/><path style="fill:#c8c8c8" d="m35.12 50.76 19.25 2.31s-.39 3.85-1.98 5.87c-1.99 2.53-4.51 2.73-4.51 2.73s.29 45.82.71 49.03c.42 3.2 3.14 11.06 2.27 12.73-.77 1.49-2.65 1.85-6.72 1.72-4.28-.14-5.5-.04-5.67-2.94-.17-2.9 2.44-8.23 2.56-11.92s.59-50.68.59-50.68-4.66-.55-6.38-4.53c-1.34-3.11-.12-4.32-.12-4.32zm49.81 13.58-6.13-1.33s4.12 3.46 4.2 6.13c.08 2.67.24 40.4-.17 42.66s-3.64 10.93-2.16 12.5c1.01 1.06 4.34.84 6.2.84s3.4-.08 4.2-1.21c.81-1.13.44-4.16.01-6.43-.49-2.64-1.06-5.01-1.06-6.18 0-2.1-1.37-51.02-1.37-51.02l-3.72 4.04z"/><path style="fill:#e0e0e0" d="M87.22 3.49c-1.7.05-5.77 1.85-7.95 9.72-1.7 6.15-2.09 13.53-2.51 26.63-.5 15.76.16 20.7.65 21.1s8.09 3.56 8.09 3.56l3.15-4.2s-.49-51.02-.49-53.13.3-3.72-.94-3.68zm-52.64 44.8s-.05 3.71 0 4.06c.05.35 7.9 1.01 10.98 1.06 3.08.05 8.83-.31 8.83-.31s.1-1.24.1-2.67c0-1.24-.04-2.28-.04-2.28l-19.87.14z"/><path style="fill:#fdfdfd" d="M36.35 55.85c2.49.58 7.91-1.71 7.11-2.6-.86-.97-8.78-1.75-8.88-1.01-.1.74.45 3.3 1.77 3.61zm11.77 66.02c.64-1.19.15-4.79-.15-6.69-.3-1.9-.55-3.37-1.37-3.25-.67.1-.67.85-.67 2.42 0 1.57.12 4.12-.47 4.69-.6.57-2.77 1.8-2.55 2.97s1.77 1.12 2.9 1.07c.72-.01 1.79-.23 2.31-1.21zm40.11-6.51c-.72-.05-.77 1.22-.77 2.57 0 1.35-.4 2.35-1 2.75-.6.4-2.17 1.25-2.07 2.02.1.77.87.95 3.1.85 2.22-.1 2.17-1.67 2.1-3.27-.09-1.6-.31-4.85-1.36-4.92zM77.4 60.52c-.6.26 1.23 2.52 3.31 4.31 2.15 1.85 3.05 2.42 5.24 2.3 2.2-.12 3.32-6.08 1.95-6.61-1.37-.52-1.77 1.66-3.55 1.96s-5.86-2.44-6.95-1.96z"/></svg>