<svg xmlns="http://www.w3.org/2000/svg" viewBox="0 0 128 128" style="enable-background:new 0 0 128 128" xml:space="preserve"><path style="fill:#d36337" d="M6.9 57.44c.35-.6 1.12-.8 1.72-.43L76.1 98.39c1.04.64 1.45 1.88.77 3.05-.68 1.17-1.95 1.44-3.03.86L4.18 64.4a1.23 1.23 0 0 1-.48-1.7l3.2-5.26z"/><path style="fill:#f29657" d="m6.84 57.37-3.13 5.32c-.21.36-.34 1.17.09 1.4.42.22 1.46-.17 2.82-2.43.85-1.41 1.64-2.84 1.64-2.84S52.1 85.74 52.1 85.73l-2.28-3.46L8.7 57.04c-.6-.36-1.51-.28-1.86.33z"/><path style="fill:#d36337" d="m64.98 93.75-13.82 7.65s2.8 8.83 12.89 8.83 13.1-9.42 13.1-9.42l-12.17-7.06z"/><path style="fill:#f29657" d="m66.58 94.43 41.08-48.96-3.02-2.53-34.75 41.41L88.36 33.6l-3.7-1.35-18.68 51.32V28.95h-3.95v54.61L43.36 32.25l-3.71 1.35 18.47 50.75-34.75-41.41-3.02 2.53 41.08 48.96z"/><path style="fill:#ff0303" d="M64 63.47c12.23 0 22.68 7.6 26.9 18.33l32.28-20.4c-11.23-21.2-33.51-35.64-59.17-35.64-26.59 0-49.5 14.48-60.31 36.94 0 0-.68 1.08.48 1.7l32.67 17.77c4.17-10.84 14.84-18.7 27.15-18.7z"/><path style="fill:#db0000" d="m6.96 56.76 32.1 20.95c1.05-1.75 2.27-3.38 3.65-4.87L10.4 51.75a64.297 64.297 0 0 0-3.44 5.01zm16.05-17.57 22.97 30.62c1.59-1.26 3.3-2.37 5.13-3.29L28.03 35.76c-1.73 1.06-3.4 2.21-5.02 3.43zm21.22-10.61 11 36.27c1.92-.62 3.92-1.02 5.98-1.23L50.13 27.13c-2 .4-3.97.88-5.9 1.45zM68.1 25.9l-2.06 37.65c2.08.14 4.09.52 6.02 1.08l2.08-38.09c-1.98-.31-4-.52-6.04-.64zm23.28 5.7L76.54 66.33c1.86.9 3.6 1.99 5.22 3.25l15.05-35.24c-1.76-.99-3.58-1.9-5.43-2.74zm19.52 13.34L85.03 72.56c1.41 1.5 2.66 3.14 3.72 4.91l26.29-28.07a64.646 64.646 0 0 0-4.14-4.46z"/><path style="fill:#ffcc80" d="M124.27 62.85c.35.6.13 1.37-.48 1.7L54.21 102.3c-1.08.58-2.35.31-3.03-.86-.68-1.17-.27-2.41.77-3.05l67.65-41.38c.59-.37 1.37-.17 1.72.43l2.95 5.41z"/><path style="fill:#f29657" d="m124.37 62.84-3.04-5.37c-.21-.36-.85-.88-1.26-.62-.4.25-.58 1.35.7 3.66.8 1.44 1.64 2.84 1.64 2.84s-70.99 38.46-70.98 38.47c.56.71 1.71 1.09 2.78.5.2-.11 69.51-37.7 69.51-37.7.61-.34 1-1.18.65-1.78z"/><circle style="fill:#d36337" cx="64" cy="94.1" r="1.53"/></svg>