<svg xmlns="http://www.w3.org/2000/svg" viewBox="0 0 128 128" style="enable-background:new 0 0 128 128" xml:space="preserve"><path style="fill:#82aec0" d="M61 55.99c-.39 1.82-1.3 6.86-1.5 8.69-.26 2.32-.22 5.44.04 7.95.2 1.96 1.52 10.39 2.08 13.94.15.95-.37 1.87-1.26 2.22-2.87 1.16-9.69 3.66-19.13 5.47-8.61 1.65-14.05 2.32-16.65 2.58-1.04.1-1.99-.58-2.21-1.61-1.24-5.71-5.39-24.15-10.31-37.67-.63-1.73-7.57-22.37-7.57-22.37-1.12-3.08-.34-6.07 2.59-7.27 3.01-1.24 5.23.17 6.36 2.84l4.61 12.39c.22.52.7 1.45 1.24 1.3.58-.17.73-.68.58-1.25-.99-3.89-5.05-16.67-5.53-19.12-.66-3.39.36-6.24 3.47-7.05 3.11-.81 5.8 1.41 6.49 3.94.69 2.53 5.62 19.67 5.62 19.67.42 1.16 1.57.35 1.46-.26L27.2 17.5c-.82-4.79 1.7-7.69 4.86-7.82 2.54-.1 5.3 1.14 6.12 5.3l4.02 23.89c.28 1.05 1.23.97 1.14-.27l-1.36-20.62c-.28-4.88 1.76-6.43 4.33-6.59 3.85-.24 5.43 1.99 5.76 6.28.17 2.23 1.83 19.14 1.83 19.14.02.27.05.72.05.72 1.11-1.35 2.56-2.71 4.86-2.74 2.09-.03 3.78.43 4.79 4.31.87 3.39-1.57 12.11-2.6 16.89z"/><path style="fill:#2f7889" d="M47.77 55.79c-.42-6.23.23-17.77 5.96-20.5l.2 2.23c-3.49 4.81-4.51 18.91-4.58 20.86-.07 1.96-1.33 1.1-1.58-2.59zM28.85 96.3s-1.55-.19-2.35-2.34-2.74-11.9-2.82-12.73c-.17-1.74.28-1.75.57-1.74.38.02.83.6 1.28 2.45.8 3.28 3.32 14.36 3.32 14.36zm7.76-1.22s-1.55-.19-2.35-2.34-2.69-11.67-2.78-12.49c-.19-1.78.14-1.86.35-1.95.4-.17.94.27 1.46 2.42.79 3.28 3.32 14.36 3.32 14.36zm7.03-1.41s-1.55-.19-2.35-2.34c-.62-1.66-2.23-8.54-2.77-11.94-.21-1.33-.03-2.38.55-2.39.26-.01.67-.3 1.26 2.31.73 3.29 3.31 14.36 3.31 14.36zm12.75-3.41s1.31-.84 1.11-3.12c-.16-1.76-1.63-8.69-2.58-12-.16-.55-.66-1.77-1.32-1.6-.66.17-.63.87-.32 2.32.69 3.29 3.11 14.4 3.11 14.4zm-7.33 2.08s1.31-.84 1.11-3.12c-.15-1.7-1.52-8.17-2.47-11.6-.33-1.19-.51-2.22-1.35-2.23-.72-.01-.71 1.14-.4 2.55.29 1.41 3.11 14.4 3.11 14.4z"/><path style="fill:#82aec0" d="M66.81 80.03c.38 1.82 1.24 6.87 1.44 8.7.24 2.32.17 5.44-.11 7.95-.21 1.84-1.44 9.38-2.07 13.22a2.92 2.92 0 0 0 1.81 3.21c3.18 1.27 9.66 3.6 18.41 5.34 8.27 1.65 14.07 1.91 17.1 1.89a2.954 2.954 0 0 0 2.88-2.39c1.16-6.06 4.63-22.95 9.49-35.96.64-1.72 7.75-22.31 7.75-22.31 1.14-3.07.39-6.07-2.53-7.29-3-1.26-5.23.13-6.39 2.79l-5.32 12.96c-.22.52-.62.68-.91.57-.29-.11-.31-.41-.15-.99 1.02-3.88 5.01-17.58 5.51-20.02.59-2.87-.48-5.54-3.58-6.38-3.1-.83-5.68.9-6.39 3.43-.71 2.53-5.73 20.88-5.73 20.88-.16.62-1.36.42-1.11-.63l4.92-23.36c.75-4.63-1.06-7.05-4.32-7.67-3.25-.62-5.91.86-6.72 5.49 0 0-4.23 23.54-4.38 24.18-.19.77-1.36.66-1.17-.33l1.86-21.82c.09-4.44-2.25-5.97-5.12-6.01-4.01-.05-5.61 2.81-5.95 6.73-.19 2.23-1.98 19.41-1.98 19.41s-1.99-2.56-4.63-2.49c-1.26.03-4.33.67-4.54 4.85-.17 2.96.94 11.27 1.93 16.05z"/><path style="fill:#2f7889" d="M70.99 79.54c-.89-6.29.25-20.05.25-20.05 1.41.28 2.79 2.13 2.79 2.13L72.6 82.24s-1.03 1.4-1.61-2.7zm.86 34.98s-1.34-.79-1.23-3.08c.09-1.84 1.49-9.31 2.27-12.48.45-1.84 1-1.77 1.24-1.74.42.04.71.68.35 2.79-.57 3.34-2.63 14.51-2.63 14.51zm7.69 2.41s-1.34-.79-1.23-3.08c.09-1.84 1.46-9.29 2.27-12.46.47-1.83 1.02-1.79 1.26-1.76.41.06.67.52.33 2.79-.52 3.34-2.63 14.51-2.63 14.51zm6.91 1.55s-1.34-.79-1.23-3.08c.09-1.84 1.94-11.01 2.27-12.47.33-1.46.65-2.01 1.17-1.93.52.08.84.49.42 2.97-.57 3.34-2.63 14.51-2.63 14.51zm13.04 1.67s1.54-.26 2.25-2.43c.58-1.77 2.07-9.32 2.42-12.52.08-.75.02-2.08-.46-2.2-.4-.1-.89.03-1.4 2.68-.62 3.32-2.81 14.47-2.81 14.47zm-7.41-.75s1.54-.26 2.25-2.43 2.32-12.42 2.38-13.25c.08-1.22-.28-1.55-.74-1.44-.47.1-.8 1.3-1.07 2.66a4939.8 4939.8 0 0 0-2.82 14.46z"/></svg>