<svg xmlns="http://www.w3.org/2000/svg" viewBox="0 0 128 128" style="enable-background:new 0 0 128 128" xml:space="preserve"><path style="fill:#757575" d="M53.02 84.65h70.01V124H53.02z"/><path style="fill:#bdbdbd" d="M123.03 124H2.9V84.65h56.87z"/><path style="fill:#ffca28" d="m123.03 113.16-45.22-22.4-.35-1.49 45.57 18.23z"/><path style="fill:none;stroke:#616161;stroke-width:3;stroke-miterlimit:10" d="M106.67 36.66h9.9m-9.9 10.13h9.9"/><path style="fill:#37474f" d="M86.85 30.14h22.64v22.91H86.85z"/><path style="fill:none;stroke:#ffca28;stroke-miterlimit:10" d="M86.85 37.77h22.64m-22.64 7.64h22.64"/><path style="fill:#fffde7" d="M88.24 32.75h5.69v1.75h-5.69zm.7 15.93h4.29v1.75h-4.29zm14.4-.18h4.29V50h-4.29zm-.97-15.63h4.29v1.5h-4.29zm2.79 8.05h2.47v1.33h-2.47zm-4.02-.08h2.47v1.5h-2.47zm-12.9-.12h7.89v1.75h-7.89z"/><path style="fill:#9e9e9e" d="M107.58 30.14c1.05 0 1.9.85 1.9 1.9v19.1a1.9 1.9 0 0 1-1.9 1.9H88.75a1.9 1.9 0 0 1-1.9-1.9v-19.1c0-1.05.85-1.9 1.9-1.9h18.83m0-2H88.75c-2.15 0-3.9 1.75-3.9 3.9v19.1c0 2.15 1.75 3.9 3.9 3.9h18.83c2.15 0 3.9-1.75 3.9-3.9v-19.1c.01-2.15-1.74-3.9-3.9-3.9zm11.49 69.65s-2.13 2.71-5 0V29.66s1.8-1.02 5 0v68.13z"/><path style="fill:#e0e0e0" d="m18.13 123.98-5 .02 5.8-23.37 2.64 2.02z"/><path style="fill:#616161" d="M21.76 124h-5.08l5.33-22.84 2.64 2.02z"/><path style="fill:#e0e0e0" d="m74.43 123.98 5 .02-15.66-23.37-2.64 2.02z"/><path style="fill:#616161" d="M70.25 124h5.07l-15.18-22.84-2.65 2.02z"/><path style="opacity:.4;fill:#212121" d="M12.99 100.95s-6.87 5.3-5.82 8.83c1.05 3.52 14.25 8.21 33.3 8.21 23.78 0 38.06-4.98 39.65-8.89 1.59-3.91-6.97-9.39-6.97-9.39l-60.16 1.24z"/><path style="fill:#455a64" d="m20.82 100.78.63 4.46s9.86.78 22.19.78S65.37 105 65.37 105v-5.09l-44.55.87z"/><path style="fill:#455a64" d="M27.86 93.3H59.4l-3.44 14.96H30.74zm-7.79.55v-.05s-4.74-.08-5.1.87c-.35.95-1.17 7.92.18 14.2.15.69.54 1.41 1.21 1.41h1.8c.67 0 1.35-.35 2.45 1.95.94 1.97 2.77 1.63 2.77.63V93.85h-3.31zm46.95 0v-.05s4.74-.08 5.1.87c.35.95 1.17 7.92-.18 14.2-.15.69-.54 1.41-1.21 1.41h-1.8c-.67 0-1.35-.35-2.45 1.95-.94 1.97-2.77 1.63-2.77.63V93.85h3.31z"/><path style="fill:#ffca28" d="M80.22 88.18V41.09c0-2.73-2.21-4.94-4.94-4.94H11.43c-2.73 0-4.94 2.21-4.94 4.94v47.09l-2.6 6.59s7.86 6.01 39.35 6.01 39.59-6.01 39.59-6.01l-2.61-6.59z"/><path style="fill:#82aec0" d="M53.02 17.08H34.43c-.92 0-1.67-.75-1.67-1.67 0-.92.75-1.67 1.67-1.67h18.59c.92 0 1.67.75 1.67 1.67 0 .93-.75 1.67-1.67 1.67z"/><path style="fill:none;stroke:#82aec0;stroke-width:3;stroke-miterlimit:10" d="M37.05 20.66 35.02 6.12M50.21 20.5l1.67-14.76"/><path style="fill:#82aec0" d="M57.59 9.64a.79.79 0 0 1-1.04-.01c-.85-.74-2.47-1.74-3.34-2.02-.47-.15-2.5-.66-8.94-.66-5.86 0-9.87.33-10.8.65-.87.3-2.31 1.43-3.08 2.24a.9.9 0 0 1-1.13.16c-.48-.28-.65-.93-.36-1.42.75-1.28 2.18-3.48 3.7-4.01 2.18-.76 10.1-.8 11.66-.8 3.36 0 7.78.14 9.76.79 1.56.51 3.04 2.78 3.74 3.93.24.37.16.87-.17 1.15z"/><path style="fill:#eee" d="M6.48 31.2v24.98h73.74V31.76l-35.3-7.21z"/><path style="fill:#9e9e9e" d="m3.85 31.2 2.64 2.58s13.33-4.42 36.74-4.42 36.99 4.15 36.99 4.15l2.6-2.64c-1.45-6.29-7.26-11.22-24.39-11.22H25.85c-13.8 0-20.56 6.43-22 11.55z"/><path style="fill:#bdbdbd" d="M3.85 31.2s16.09-5.38 39.38-5.38 39.59 5.06 39.59 5.06c-1.45-6.29-7.29-13.21-24.39-14.36-16.44-1.11-18.3-1.11-32.58 0-13.75 1.07-20.55 8.39-22 14.68z"/><path style="fill:#82aec0" d="M82.82 100.78s-8.97 3-39.59 3-39.35-3-39.35-3v-6.01s18.83 3 39.56 3 39.38-3 39.38-3v6.01z"/><circle style="fill:#fffde7" cx="60.65" cy="84.09" r="4.96"/><circle style="fill:#fffde7" cx="26.02" cy="84.09" r="4.96"/><path style="fill:#37474f" d="M38.32 20h10.06c2.4 0 4.34 1.94 4.34 4.34v2.97c0 2.4-1.94 4.34-4.34 4.34H38.32c-2.4 0-4.34-1.94-4.34-4.34v-2.97c0-2.4 1.95-4.34 4.34-4.34z"/><path style="fill:#ffca28" d="M41.05 22.27h4.59c2.08 0 3.77 1.59 3.77 3.54s-1.69 3.54-3.77 3.54h-4.59c-2.08 0-3.77-1.49-3.77-3.54s1.68-3.54 3.77-3.54z"/><path style="fill:#bae2fd" d="M17.88 39.63c17.75-3.3 33.22-3.29 50.9 0v30.3c-17.69 3.29-33.15 3.3-50.9 0v-30.3z"/><path style="fill:#37474f" d="M43.33 73.84c-6.21 0-17.92-.7-23.62-1.11a3.541 3.541 0 0 1-3.29-3.54V41.21c0-1.69 1.19-3.15 2.85-3.48 3.62-.71 10.96-1.71 23.57-1.71 12.87 0 20.68 1.04 24.51 1.75a3.54 3.54 0 0 1 2.89 3.49V69.2c0 1.86-1.43 3.4-3.29 3.54-5.7.41-17.4 1.1-23.62 1.1zm-21.72-5.57c14.58 1.3 28.59 1.18 43.42-.03 1.32-.11 2.31-1.29 2.31-2.62v-21.7c0-1.28-.93-2.39-2.2-2.6-15.1-2.49-28.5-2.49-43.6 0a2.64 2.64 0 0 0-2.2 2.6v21.73c-.01 1.32.96 2.51 2.27 2.62z"/><path style="fill:#6fbff0" d="M41.5 39.46v.02c.71-.01 1.41-.02 2.11-.02H41.5zm3 0h-.89c.3 0 .6.01.89 0z"/><path style="opacity:.66;fill:#82aec0" d="M67.33 43.93c0-1.29-.93-2.39-2.2-2.6-7.24-1.19-14.08-1.81-20.91-1.86-.3 0-.59-.01-.89-.01-.7 0-1.41.01-2.11.02-6.42.11-12.88.72-19.69 1.84a2.64 2.64 0 0 0-2.2 2.6v3.71c2.3-.67 10.59-2.39 22.37-2.55l-.01 24.12c1 .01 2 .01 3 0l.02-24.11c12.18.12 20.36 1.38 22.62 1.83v-2.99z"/><path style="opacity:.66;fill:#82aec0" d="M34.86 58.85c-1.31-.31-2.87-.12-2.87-.12-.96 0-2.36.73-2.98 1.55-.42.54-1.25.59-1.69.06-.71-.85-1.75-1.47-2.74-1.47 0 0-2.49-.49-4.12.41-.41.23-.79.4-1.12.56v5.82c0 1.32 1.08 2.51 2.39 2.63 5.92.52 11.36.79 17.19.86-.01-1.44-.07-4.7-.53-6.71-.59-2.62-2.22-3.28-3.53-3.59zm30.41.02c-.21-.05-.44-.09-.67-.12-.01-.06-.03-.12-.03-.2-.04-1.14.42-1.26.61-2.07.09-.39.21-.78.21-1.19 0-1.68-1.18-3.05-2.63-3.05-.54 0-1.08.18-1.49.54-1.51 1.33-1.14 3.13-.94 3.7.26.72.96 1.65 1.06 2.44-.76.24-1.73.78-2.45 1.49-.55.55-1.45.52-1.96-.06-.76-.88-1.11-1.15-2.39-1.48 0 0-1.14-.28-2.56-.14-1.42.14-3.67 1.19-4.3 3.26-.42 1.38-.57 5.77-.61 7.16 5.86-.11 11.76-.4 17.8-.89 1.33-.11 2.42-1.3 2.42-2.63v-5.78c-.58-.48-1.33-.82-2.07-.98z"/></svg>