<svg xmlns="http://www.w3.org/2000/svg" viewBox="0 0 128 128" style="enable-background:new 0 0 128 128" xml:space="preserve"><path style="fill:#4d4d4d" d="M57.19 51.56s-6-7.8-5.26-18.21c.87-12.08 7.32-22.71 20.28-26.65s25.15-.38 25.15-.38l-2.06 4.69s14.08 3.28 16.14 4.41c2.06 1.13 7.51 7.23 8.07 15.49s-2.75 14.96-4.32 17.27c-1.99 2.93-5.63 5.26-7.13 5.26s1.5-3.19 1.88-6.95c.38-3.75-.54-4.6-.54-4.6s-.8 3.39-1.41 5.21c-.35 1.06-1.76 4.22-2.11 2.89-.35-1.34-.56-10.42-4.43-12.32-1.67-.82-4.93-2.25-12.32 3.73-8.21 6.65-9.57 19.85-9.57 19.85s2.89 3.38 3.24 4.22c.35.84 3.82 4.99 2.32 15.91-.99 7.18-2.75 15.42-3.45 17.39-.7 1.97-1.34 5.42-4.29 6.83-1.82.87-5.98.99-6.48-1.06-.49-2.04 1.34-3.8.99-5.63-.35-1.83-2.53-3.17-6.12-.63-3.59 2.53-6.26 5.28-7.81 8.73-1.55 3.45-3.1 8.59-5.98 12.18-2.89 3.59-5.35 4.22-9.43 3.66-4.52-.62-2.32-2.89-1.55-4.43.77-1.55.35-3.96.07-4.72-.7-1.9-2.53-2.11-2.53-2.11s.28 4.79-1.9 6.34-5.21 3.1-8.66 1.97c-3.45-1.13-1.27-3.1-.28-5.21s.35-2.96.07-3.73c-.28-.77-1.06-3.1-1.41-4.22-.35-1.13-.7-3.03-.7-3.03s-4.36 1.69-10.49-1.34c-3.81-1.88-3.94-5.07-3.66-6.69.27-1.54 1.62-2.46 1.62-2.46s-.77-7.6.42-11.05 2.82-4.36 2.82-4.36-2.37-6.47 2.11-8.02c4.86-1.69 6.83 3.45 6.83 3.45s2.18-.56 5.49.63c3.31 1.2 4.72 2.18 4.93 1.83.21-.35 5.42-14.92 5.42-14.92s5.7-5.77 7.11-6.62c1.37-.87 2.83-1.87 8.93-2.6z"/><path style="fill:#ddd" d="M20.28 90.32c.84.51 4.29-3.66 8.8-6.69 4.5-3.03 7.6-2.67 7.6-2.67s3.41-2.91 7.39-.92c4.08 2.04 2.6 7.88 2.6 7.88s8.17-13.44 13.23-17.95c5.07-4.5 10.91-6.12 15.06-6.19s7.81 1.69 7.81 1.69-1.5-3.28-6.55-7.53c-5.77-4.86-11.66-3.53-17.46-.63-5.49 2.75-12.67 9.78-13.8 10.98-1.13 1.2-3.94 4.15-3.94 4.15s.35-5 1.76-8.66c1.26-3.27 4.07-6.64 6.12-8.31 2.96-2.39 5.07-3.45 5.07-3.45s-3.94.07-9.5 3.87c-6.5 4.44-8.66 10.56-9.22 11.76-.56 1.2-1.62 4.36-1.69 6.34-2.04-1.41-7.25-.92-7.25-.92s-2.65 3.61-4.15 7.11c-1.3 3.1-2.68 9.65-1.88 10.14z"/><path style="fill:#ddd" d="M70.75 55.12s-3.17-.99-5.14-1.48c-1.97-.49-3.73-.99-3.73-.99s-4.86-6.69-5-16.75c-.14-10.07 4.65-18.09 4.65-18.09l2.67 8.02s3.25-9.16 9.92-14.01C82.37 5.85 91 3.31 99.82 6.91c9.32 3.79 11.97 7.6 12.39 8.09.42.49 2.39 3.45 2.39 3.45s-9.28-4.12-15.56-3.17c-6.48.99-10.56 2.82-15.27 7.11-4.72 4.29-6.12 8.24-6.12 8.24s4.22-.68 5.91-.63c2.6.07 4.58.77 4.58.77s-8.45 3.38-12.32 9.78-5.41 13.88-4.65 14.64c.07.08-.42-.07-.42-.07z"/><path style="fill:#ffa7a6" d="M13.95 94.33c-.53.38.87 6.1 1.48 6.26.77.21 4.79-2.82 4.79-3.52 0-.7-2.53-1.62-3.38-1.97-.85-.35-2.4-1.12-2.89-.77z"/><path style="fill:#141414" d="M33.54 90.2c0 1.59-1.31 3.12-3.28 2.93-1.57-.15-2.44-1.34-2.44-2.93s1.33-3.12 2.91-3.12c1.96 0 2.81 1.53 2.81 3.12zm-14.22-6.03c0 1.59-1.22 3-2.77 2.77-1.11-.17-1.78-1.13-1.78-2.72s.8-2.7 1.97-2.82c1.92-.18 2.58 1.18 2.58 2.77zm-.99-7.79c.13.13 1.42-.56 2.53-.99 1.15-.44 2.18-.72 2.25-.94.14-.42-1.08-3.52-3.66-2.44-2.57 1.09-1.4 4.09-1.12 4.37zm20.7 6.9c0-.58 3.57-2.3 5.02.52 1.45 2.82-1.6 4.93-2.06 4.79-.26-.08-.81-1.53-1.55-2.91-.58-1.08-1.41-2.11-1.41-2.4z"/></svg>