<svg xmlns="http://www.w3.org/2000/svg" viewBox="0 0 128 128" style="enable-background:new 0 0 128 128" xml:space="preserve"><path style="fill:#70534a" d="M77.49 31.28c.02 1.18-2.48 1.44-2.71 1.61-.27.2-.45.66-.64 1.22-.15.38-.3.81-.5 1.25l-.05.1c-.74 1.53-2.16 3.06-5.97 2.62-2.52-.29-2.75-.42-3.54-.49-1.58-.15-2.77 2.26-2.77 2.26s-2.75 5.69-6.78 3.54c-4.6-2.45-4.32-3.94-4.32-3.94s4.41-6.09 3.07-10.88c-1.27-4.57-.45-13.72 1.77-16.14 3.46-3.75 10.05-5.91 14.84-4.15 5.35 1.97 7.56 6.54 7.38 11.74-.07 1.88-.47 3.7-1.03 4.94-.07.15-.59 1.22-.68 1.57-.47 1.32 1.91 3.18 1.93 4.75z"/><path style="fill:#1a1717" d="M74.14 34.11c-.15.38-.3.81-.5 1.25l-.05.1c-.91-.12-1.76-.5-2.41-1.21-.71-.78-.01-1.35.86-.77.5.34 1.36.6 2.1.63z"/><ellipse transform="rotate(-77.297 71.396 26.513)" style="fill:#1a1717" cx="71.4" cy="26.51" rx="1.86" ry="1.21"/><path style="fill:#1a1717" d="M72.84 23.99c1.12.5 1.5-.23 1.2-.9-.22-.5-.88-.97-2.28-.89-1.32.08-1.95.74-2.36 1.15-.41.4-.43.86-.14.94.39.1 2.19-.92 3.58-.3z"/><radialGradient id="a" cx="50.523" cy="48.201" r="17.081" gradientTransform="translate(0 2)" gradientUnits="userSpaceOnUse"><stop offset=".364" style="stop-color:#00bfa5"/><stop offset=".812" style="stop-color:#00b29a"/><stop offset="1" style="stop-color:#00ab94"/></radialGradient><path style="fill:url(#a)" d="m36.1 65.44.59-2.34 7.95-16.9c1.67-3.55 4.62-8.05 9.23-9.33.88-.24 1.75-.37 2.59-.37 1.49 0 4.17.41 5.49 3.14l2.38 4.94-2.44 8.69-4.31 12.37-.42 1.79-21.06-1.99z"/><path style="fill:#7c7c7c" d="M35.13 72.23V69l1.43-5.47 21.41 2.76 15.82 3.06v2.88z"/><radialGradient id="b" cx="63.4" cy="42.36" r="40.429" gradientTransform="matrix(1 0 0 -.4605 0 105.147)" gradientUnits="userSpaceOnUse"><stop offset=".5" style="stop-color:#ff9800"/><stop offset=".765" style="stop-color:#fa8b00"/><stop offset=".995" style="stop-color:#f57c00"/></radialGradient><path style="fill:url(#b)" d="M7.61 73.15H119.2s-.13 17.86-10.14 24.98h-81.9c-.01 0-13.21-9.91-19.55-24.98z"/><path style="fill:#e65100" d="M124 72.14a4.517 4.517 0 0 1-4.52 4.5H8.51c-2.49 0-4.51-2.01-4.51-4.5s2.02-4.51 4.51-4.51H119.5c2.49 0 4.5 2.02 4.5 4.51z"/><path style="fill:#039be5" d="M3.99 93.58h120V124h-120z"/><path style="fill:#29b6f6" d="M124.01 85.38c-.01 0-.01.01-.02.01-2.64 0-4.84 6.03-10.66 6.03s-11.69-7.08-17.32-7.08c-5.65 0-8.96 6.2-14.67 7.08h-2.67c-5.71-.88-9.02-7.08-14.65-7.08-4.35 0-8.95 6.2-14.67 7.08h-2.67c-5.71-.88-9.02-7.08-14.65-7.08-5.64 0-8.95 6.2-14.67 7.08h-2.72c-4.22-.67-7.7-6.03-10.65-6.03v14.74H4v6.19c3.52-1.8 6.43-5.36 10.64-6.03h2.73c5.71.88 9.02 7.08 14.66 7.08s8.95-6.2 14.66-7.08h2.67c5.71.88 9.02 7.08 14.66 7.08 5.63 0 8.94-6.2 14.66-7.08h2.67c5.71.88 9.02 7.08 14.66 7.08 5.63 0 8.94-6.2 14.66-7.08h2.67c4.23.65 7.14 4.22 10.66 6.03v-6.19h.01V85.38z"/><path style="opacity:.2;fill:#3d3d3d;enable-background:new" d="m60.25 99.18 22.33-22.54 8.92-9.01h-9.35l-8.93 9.01-14.8 14.94z"/><path transform="rotate(-45.275 75.256 74.34)" style="fill:#ffa726" d="M50.76 71.02h49v6.65h-49z"/><path style="fill:#ea960f" d="m90.4 63.8-8.87-.48 9.86-10.24 5.26 4.29z"/><path style="fill:#ffd54f" d="M60.79 88.84a8.138 8.138 0 0 0-5.76-2.37c-2.11 0-4.22.81-5.82 2.43l-8.97 9.05c-3.18 3.21-3.16 8.4.06 11.58a8.172 8.172 0 0 0 5.76 2.37c2.11 0 4.22-.81 5.82-2.43l8.97-9.05c3.19-3.21 3.16-8.4-.06-11.58z"/><linearGradient id="c" gradientUnits="userSpaceOnUse" x1="86.526" y1="73.38" x2="66.992" y2="80.356" gradientTransform="matrix(1 0 0 -1 0 128)"><stop offset=".598" style="stop-color:#70534a"/><stop offset="1" style="stop-color:#5c4037"/></linearGradient><path style="fill:url(#c)" d="M98.72 53.62c-.4-.5-1.89-1.06-2.5-1.28.04-.33-.04-.67-.27-.94l-1.39-1.7c-.17-.21-.4-.33-.64-.4-.11-.04-.22-.06-.34-.07-.04 0-.08-.01-.13-.01h-.03c-.07 0-.14.01-.2.03-.13.02-.25.06-.37.13 0 0-.01 0-.01.01h-.01s-.01 0-.01.01l-3.46 2.13-.26.16-11.68-.4-10.75-7.46c-.08-.05-.68-.47-.68-.47l-4.23 6.09h.01l12.08 8.39c.06.05.12.08.18.12.06.05.13.09.19.13.12.08.25.14.37.2l.27.12c.1.04.21.07.31.1.12.04.25.08.38.1.03.01.06 0 .08.01.19.03.38.06.58.06.03 0 .07-.01.1-.01h.04v.01l9.86.34-.02.06v.02s4.69 3.24 6.94 3.54c.42.1 1.13.26 1.76.26.5 0 .95-.1 1.15-.38.2-.28.08-.9.18-1.07.25-.43.88-.39 1.16-.96.04-.08.05-.18.06-.29.02-.32-.07-.75-.13-1.03-.03-.24.16-.57.37-.66.48-.2.72-.39.85-.79.04-.11.06-.22.06-.34.03-.32-.06-.65-.21-.96a.907.907 0 0 1-.1-.33c-.04-.34.07-.71.34-.9.2-.14.37-.48.36-.86-.01-.24-.08-.49-.26-.71z"/><path style="fill:#04a287" d="M61.56 37.8a5.783 5.783 0 0 0-3.39-1.1 5.809 5.809 0 0 0-3.41 10.52l9.64 6.95 6.8-9.42-9.64-6.95z"/><path style="fill:#232020" d="M54.81 9.39c2.99-2.52 7.79-3.63 12.06-3.02 2.87.41 5.5 1.46 7.62 3.03.04.03 4.07 3.07 4.65 5.41.62 2.51-.61 3.66-.9 3.85-.45.3-1.27.02-1.27.02-1.64-.45-6.87-1.85-9.67-1.84-.44 0-.94.04-1.21.39-.12.15-.4 1.22-.45 1.4-.67 2.4-.78 3.97-1.82 5.35-.17.22-.73.45-.73.45l-.68-1.73c-.45-1-.87-1.87-1.71-1.88-2.49-.02-3.02 4.31-.42 5.88 0 0-1.17 3.24-4.35 3.2-2.78-.03-3.02-.7-3.06-1.76-.1-2.3-.52-3.37-.96-4.5-.52-1.34-1.06-2.72-.98-6.03.09-3.3 1.43-6.15 3.88-8.22z"/><radialGradient id="d" cx="397.378" cy="76.302" r="17.424" gradientTransform="matrix(-.9976 -.0688 .0679 -.9839 455.958 124.71)" gradientUnits="userSpaceOnUse"><stop offset=".526" style="stop-color:#444140;stop-opacity:0"/><stop offset="1" style="stop-color:#444140"/></radialGradient><path style="fill:url(#d)" d="M54.81 9.39c2.99-2.52 7.79-3.63 12.06-3.02 2.87.41 5.5 1.46 7.62 3.03.04.03 4.07 3.07 4.65 5.41.62 2.51-.61 3.66-.9 3.85-.45.3-1.27.02-1.27.02-1.64-.45-6.87-1.85-9.67-1.84-.44 0-.94.04-1.21.39-.12.15-.4 1.22-.45 1.4-.67 2.4-.78 3.97-1.82 5.35-.17.22-.73.45-.73.45l-.68-1.73c-.45-1-.87-1.87-1.71-1.88-2.49-.02-3.02 4.31-.42 5.88 0 0-1.17 3.24-4.35 3.2-2.78-.03-3.02-.7-3.06-1.76-.1-2.3-.52-3.37-.96-4.5-.52-1.34-1.06-2.72-.98-6.03.09-3.3 1.43-6.15 3.88-8.22z"/></svg>