<svg xmlns="http://www.w3.org/2000/svg" viewBox="0 0 128 128" style="enable-background:new 0 0 128 128" xml:space="preserve"><path style="fill:#f3ab47" d="M117.14 64.48s-7.12 4.14-16.96 5.96c-8.1 1.5-24.81 3.1-36.45 3.1s-30.2-1.1-37.44-2.39c-8.89-1.58-15.95-6.43-15.95-6.43s-3.43 12.46 15.24 16.3c16.74 3.44 47.16 6.51 74.67 0 23.09-5.47 16.89-16.54 16.89-16.54z"/><path style="fill:#a65f3e" d="M123.91 79.16c-1.12-5.65-6.4-14.43-6.4-14.43s-3.49 8.24-17.86 12.15c-5.61 1.52-20.78 3.29-35.76 3.53-14.98-.24-29.37-1.38-34.98-2.9-14.38-3.91-18.56-12.78-18.56-12.78s-5.42 8.77-6.5 14.43C1.6 90.93 7.44 97.47 25.94 102.04c8.87 2.19 24.2 3.34 39.5 3.37 15.3-.02 30.63-1.18 39.5-3.37 18.52-4.58 21.27-11.26 18.97-22.88z"/><path style="fill:#f29657" d="M16.28 78.37c.18.64-.08 1.3-.31 1.92-1.2 3.32-1.64 7.46-.74 10.88.19.71.52 1.61.86 2.4.28.66-.35 1.28-1.04 1.09-1.35-.38-4.25-2.19-6.27-6.31-1.58-3.21-1.27-6.92-.55-10.32.33-1.59 1.6-5.31 3.62-3.85.55.4 4.27 3.65 4.43 4.19z"/><path style="fill:#874d36" d="M76.05 81.02s1.95 9.84.47 16.54c-1.63 7.33-3.16 7.72-3.16 7.72s10.96-.15 13.8-.69l-7.4-23.82-3.71.25zm-12.31-5.48c-28.01.21-40.62-3.3-41.03-3.38l-2.79 2.05s10.84 6.05 44.14 6.05 45.47-6.98 45.47-6.98l-4.4-2.02c-.6.12-16.36 4.09-41.39 4.28z"/><path style="fill:#f3ab47" d="m100.33 123.51 9.02-5.13c1.59-1.01 1.35-2.31.78-3.51-2.46-5.13-9.29-15.41-13.27-21.07-4.01-5.69-14.59-14.18-14.59-14.18l-3.22 1.79s3.56 13.66 5.27 18.98c2.84 8.8 9.29 17.78 12.61 22.61.8 1.17 2.05 1.27 3.4.51z"/><path style="fill:none;stroke:#f3ab47;stroke-width:4;stroke-miterlimit:10" d="m59.76 44.12 42.87 74.59"/><path style="fill:#bdbdbd" d="m62.79 45.4-3.43 2.02c-1.17-1.9-2.4-2.47-3.75-2.73-.74-.14-1.44-.79-1.63-1.6-.19-.81.16-1.58 1.07-2.11l3.96-2.36c.86-.51 1.79-.57 2.51-.02.63.48.88 1.51.57 2.54-.41 1.43-.02 2.45.7 4.26z"/><path style="fill:#f3ab47" d="M117.51 64.73c-.28-.45-.63-.09-.63-.09-.03.09-3.08 8.68-18.22 11.89-5.72 1.21-19.86 2.63-34.76 2.88-13.9-.23-28.84-1.46-34.77-2.87-13.57-3.24-18.61-11.72-18.78-11.8 0 0-.65.25-.05 1.77s5.51 8.92 18.36 11.98c6.15 1.46 20.95 2.69 35.23 2.93 15.06-.25 29.4-1.54 35.18-2.92 14-3.35 17.58-10.56 18-11.35s.71-1.97.44-2.42z"/><path style="fill:#f3ab47" d="M65.72 79.6h-3.16l.56-4.46h2.14zm-24.92-.82-10.37-1 4.6-4.17 10.13.79zm47.1-.18 9.67-1.73-4.22-4.05-9.94.98z"/></svg>