<svg xmlns="http://www.w3.org/2000/svg" viewBox="0 0 128 128" style="enable-background:new 0 0 128 128" xml:space="preserve"><path style="fill:#78909c" d="m49.24 24.95 1.7-8.53c1.13-5.59 1.8-9.5 4.9-11.32 2.04-1.19 4.35-1.42 6.69-.66 5.91 1.91 6.42 13.03 7 27.86l-4.34-3.14c-.3-10.78-.4-19.57-3.95-20.72-1.21-.39-2.28-.29-3.28.29-2.01 1.18-2.03 4.2-2.9 8.52l-1.7 8.52-4.12-.82zm67.68 90.58s-.33 1.06-2.1 1.06-2.1-1.06-2.1-1.06v-11.55l4.2 2.09v9.46zm-52.18-1.67s-.55 1.24-2.1 1.24-2.1-1.24-2.1-1.24V94.01l4.2 5.88v13.97z"/><path style="fill:#82aec0" d="m89.84 113.55 28.06-7.03s-.78-2.15-2.21-2.55l-28.93 7.57 3.08 2.01z"/><path style="fill:#78909c" d="M87.49 122.94s-.33 1.06-2.1 1.06-2.1-1.06-2.1-1.06v-11.02l4.2 2.09v8.93z"/><path style="fill:#82aec0" d="m119.23 106.15-.33-8.49c0-1.99-1.08-3-2.33-3.71s-4.04-1.4-4.04-1.4c-8.35-2.89-12.76-7.83-15.66-16.48-2.21-6.59-10.53-29.47-15.37-41.51-2.35-5.86-6.52-10.19-11.75-12.21-4-1.54-14.15-3.07-15.28-3.31l-4.12.33-1.59 7.98c3.98.82 15.06 3.05 17.52 4 2.7 1.04 4.92 3.46 6.27 6.8 4.78 11.9 13 34.48 15.17 40.98 3.94 11.76 11.76 19.33 23.29 22.51l5.02 1.82.08 3.57 3.12-.88z"/><path style="fill:#2f7889" d="M116.77 98.63a4.47 4.47 0 0 0-3.22-4.06l-2.95-1c-8.35-2.89-12.76-7.78-15.66-16.43-2.21-6.59-10.53-29.47-15.37-41.51-2.35-5.86-6.52-10.19-11.75-12.21-4-1.54-16.34-3.82-17.48-4.06l-1.82 9.16c3.98.82 13.37 2.95 15.83 3.89 2.7 1.04 4.92 3.46 6.27 6.8 4.78 11.9 13 34.48 15.17 40.98 3.94 11.76 11.76 19.33 23.29 22.51l7.83 1.27-.14-5.34z"/><path style="fill:#546e7a" d="M60.54 94.01v6.48c1.24 1.95 2.64 3.71 4.2 5.3v-5.9l-4.2-5.88zm22.75 17.91v3.36l4.2 1.06v-2.32z"/><path style="fill:#b9e4ea" d="M73.72 105.52c.22-.33 21.96-6.37 21.96-6.37 1.29-.3 2.63-.13 3.8.5 1.66.89 5.09 2.04 9.25 3.29.69.21.67 1.19-.02 1.38l-22.72 6.45-12.27-5.25z"/><path style="fill:#78909c" d="M41.23 86.23s-.24.98-1.92 1.1c-1.91.14-2.4-.88-2.25-1.64l11.4-58.14 4.12.82-11.35 57.86z"/><path style="fill:#78909c" d="M46.96 39.69 20.3 46.32l-.59 2.98 26.53-6.6s1.65-.25 1.85-1.52c.17-1.13-.53-1.66-1.13-1.49zm-2.24 11.97-26.78 6.66-.59 2.98L44 54.67s1.65-.25 1.85-1.52c.18-1.13-.53-1.65-1.13-1.49zm-2.23 11.97-26.9 6.68-.59 2.98 26.77-6.66s1.65-.25 1.85-1.52c.17-1.12-.53-1.64-1.13-1.48zM40.25 75.6l-27.03 6.71-.59 2.98 26.9-6.68s1.65-.25 1.85-1.52c.18-1.12-.53-1.65-1.13-1.49z"/><path style="fill:#546e7a" d="m46.04 39.92-17.5 4.41c1.43.38 2.63.73 3.35 1.01.52.2 1.04.4 1.54.6l12.02-3.05-1.77 9.03-4.09 1.02c.31.83.63 1.69.96 2.59l2.54-.64-.83 4.28c.89 2.44 1.82 5.05 2.76 7.72l7.55-38.51-4.12-.82-2.41 12.36z"/><path style="fill:#94d1e0" d="M87.5 111.65s-9.71.37-18.28-8.2c-9.87-9.87-26.48-58.15-31.39-60.92-7.69-4.34-14.32-8.7-14.32-8.7l24.69-6.28s10.45 1.55 16.42 4.07c1.49.63 4.37 2.02 6.87 8.44 4.11 10.58 10.03 28.12 15.23 40.16 3 6.95 5.48 11.39 7.98 13.32 11.12 8.56 22.06 10.44 22.06 10.44l-29.26 7.67z"/><path style="fill:#66b7c4" d="M97.13 95.33c-.35-.26-1.93-1.51-2.28-1.78-2.5-1.92-4.97-6.37-7.98-13.32-5.2-12.03-11.12-29.58-15.23-40.16-.72-1.86-1.61-3.25-2.36-4.37l-25.04 6.34 22.46 58.08c.7 1.02 1.37 1.9 2.03 2.64l28.4-7.43z"/><path style="fill:#b0f2f7" d="m90.14 113.44-.32-8.49a3.772 3.772 0 0 0-2.95-3.54l-2.28-.51c-8.31-2.29-13.76-6.64-16.66-15.29-2.21-6.6-10.53-29.48-15.37-41.51-2.35-5.86-6.52-10.19-11.75-12.21-4-1.54-14-3.62-15.25-3.88l-3.37.52.33 8.69c4.43.92 12.37 2.72 14.82 3.67 2.7 1.04 4.92 3.46 6.27 6.8 4.78 11.89 13 34.47 15.17 40.98 3.94 11.76 11.76 19.33 23.29 22.5l5.39.86.08 2.17 2.6-.76z"/><path style="fill:#94d1e0" d="M87.25 107.27a4.482 4.482 0 0 0-3.33-4.15l-1.62-.43c-8.31-2.29-13.76-7.61-16.66-16.26-2.21-6.6-10.53-29.48-15.37-41.51-2.35-5.86-6.52-10.19-11.75-12.21-4-1.54-15.08-3.86-16.34-4.12l-1.96 9.44c4.43.92 12.37 2.72 14.82 3.67 2.7 1.04 5.28 1.95 6.05 3.91 4.72 11.91 13.21 37.37 15.39 43.87 3.94 11.76 11.76 19.33 23.29 22.5l7.76 2.2-.28-6.91z"/><path style="fill:#78909c" d="M12.98 93.47s-.28 1.07-2.13 1.2c-.55.04-.98-.05-1.3-.19-.58-.24-.87-.9-.75-1.51l13.17-67.41c1.13-5.59 1.8-9.5 4.9-11.32 2.04-1.19 4.35-1.42 6.69-.66 6.16 1.99 6.6 16.53 7.23 32.41 0 0-1.51.37-2.69-.23s-1.19-1.89-1.19-1.89c-.49-11.84-.53-24.96-4.64-26.29-1.21-.39-2.28-.29-3.28.29-2.01 1.18-2.03 4.2-2.9 8.52L12.98 93.47z"/><path style="fill:#546e7a" d="M112.79 107.81v1.85l4.13-.89v-1.97z"/><path style="fill:#cfd8dc" d="M25.45 18.79c-.48-.24-.48-1.01-.24-1.47.86-1.63 2.6-2.68 4.43-2.86.9-.09 1.05.1 1.17.43.17.48-.35.82-.85.95-1.47.41-2.55 1.28-3.1 2.35-.37.73-.93.84-1.41.6z"/></svg>