<svg xmlns="http://www.w3.org/2000/svg" viewBox="0 0 128 128" style="enable-background:new 0 0 128 128" xml:space="preserve"><path d="M112.18 123.94v-4.31c0-13.44-23.76-19.9-47.19-19.87-23.28.02-47.19 5.64-47.19 19.87v4.31h94.38z"/><path style="fill:#edc391" d="M64 90.08h-9.08v9.98c0 4.51 3.7 8.17 8.26 8.17h1.65c4.56 0 8.26-3.66 8.26-8.17v-9.98H64zm27.33-39.65H36.67c-5.89 0-10.71 5.14-10.71 11.41s4.82 11.41 10.71 11.41h54.65c5.89 0 10.71-5.14 10.71-11.41s-4.81-11.41-10.7-11.41z"/><path style="fill:#f9ddbd" d="M64 11.07c-17.4 0-33.52 18.61-33.52 45.4 0 26.64 16.61 39.81 33.52 39.81S97.52 83.1 97.52 56.46c0-26.78-16.12-45.39-33.52-45.39z"/><linearGradient id="a" gradientUnits="userSpaceOnUse" x1="52.995" y1="91.082" x2="52.995" y2="55.013" gradientTransform="matrix(1 0 0 -1 0 128)"><stop offset="0" style="stop-color:#1de9b6"/><stop offset=".189" style="stop-color:#19ddaf"/><stop offset=".529" style="stop-color:#10be9c"/><stop offset=".978" style="stop-color:#018c7d"/><stop offset="1" style="stop-color:#00897b"/></linearGradient><path style="fill:url(#a)" d="m45.78 33.3 27.81-5.41-15.31 20.1 10.09-2.12-30.24 36.41 1.88-15.25-7.61 3.12z"/><ellipse style="fill:#312d2d" cx="47.56" cy="58.81" rx="4.93" ry="5.1"/><ellipse style="fill:#312d2d" cx="80.44" cy="58.81" rx="4.93" ry="5.1"/><path style="fill:#454140" d="M39.99 50.73c2.99-4.23 9.78-4.63 13.67-1.48.62.5 1.44 1.2 1.68 1.98.4 1.27-.82 2.26-2.01 1.96-.76-.19-1.47-.6-2.22-.83-1.18-.36-2.36-.53-3.59-.55-1.86-.03-3.05.22-4.72.92-.71.3-1.29.75-2.1.41-.92-.39-1.27-1.58-.71-2.41zm46.06 2.4c-.29-.13-.57-.3-.86-.41-1.83-.7-3.01-.87-4.72-.92-1.58-.05-2.64.1-4.04.69-.79.34-1.84.98-2.74.71-1.32-.4-1.28-1.84-.56-2.76.86-1.08 2.04-1.9 3.29-2.44 2.9-1.26 6.44-1.08 9.17.55.89.53 1.86 1.26 2.4 2.18.79 1.3-.4 3.03-1.94 2.4z"/><path style="fill:#dba689" d="M67.86 68.06c-.11-.04-.21-.07-.32-.08h-7.08c-.11.01-.22.04-.32.08-.64.26-.99.92-.69 1.63.3.71 1.71 2.69 4.55 2.69s4.25-1.99 4.55-2.69c.3-.71-.05-1.37-.69-1.63z"/><path style="fill:#444" d="M72.42 76.14c-3.18 1.89-13.63 1.89-16.81 0-1.83-1.09-3.7.58-2.94 2.24.75 1.63 6.44 5.42 11.37 5.42s10.55-3.79 11.3-5.42c.75-1.66-1.09-3.33-2.92-2.24z"/><linearGradient id="b" gradientUnits="userSpaceOnUse" x1="111.373" y1="46.913" x2="118.472" y2="46.913" gradientTransform="matrix(1 0 0 -1 0 128)"><stop offset=".5" style="stop-color:#f9ddbd"/><stop offset="1" style="stop-color:#ffd29c"/></linearGradient><path style="fill:url(#b)" d="m114.06 86.8.09-.01c1.72.18 3.27-.87 3.47-2.36l.83-6.02c.2-1.49-1.04-2.85-2.75-3.03-1.72-.18-3.27.87-3.47 2.36l-.83 6.02c-.2 1.49.94 2.86 2.66 3.04z"/><linearGradient id="c" gradientUnits="userSpaceOnUse" x1="99.409" y1="47.125" x2="123.999" y2="47.125" gradientTransform="matrix(1 0 0 -1 0 128)"><stop offset=".5" style="stop-color:#f9ddbd"/><stop offset="1" style="stop-color:#ffd29c"/></linearGradient><path style="fill:url(#c)" d="M112.4 100.06c-4.97.15-10.43-.91-12.08-5.94-.88-2.69-.66-5.45-.1-8.03.62-2.86.67-4.31.47-6.57-.14-1.66-1.19-14.62-1.19-14.62s-.64-2.36 1.48-3.04c2.33-.89 3.19 1.68 3.19 1.68l2.52 17.84 10.98 1.25s.43-.71.67-2.49c.11-.76-.03-2.17.09-3.07.57-4.16 1.27-9.19 1.34-9.61.12-.72.9-1.78 2.39-1.57 1.5.2 1.89 1.31 1.82 2.03-.07.73-.61 6.56-.61 6.56-.16 2.8-.32 5.89-.06 8.68l.21 2.24c.34 3.61-.19 7.4-1.76 10.22-1.62 2.95-4.39 4.29-9.36 4.44z"/><linearGradient id="d" gradientUnits="userSpaceOnUse" x1="105.897" y1="47.131" x2="112.666" y2="47.131" gradientTransform="scale(1 -1) rotate(1.289 5796.513 -23.529)"><stop offset=".5" style="stop-color:#f9ddbd"/><stop offset="1" style="stop-color:#ffd29c"/></linearGradient><path style="fill:url(#d)" d="M108.82 87.02c1.73.04 3.19-1.14 3.27-2.64l.34-6.91c.07-1.5-1.26-2.75-2.99-2.8-1.73-.04-3.19 1.14-3.27 2.64l-.34 6.91c-.08 1.51 1.26 2.76 2.99 2.8z"/><linearGradient id="e" gradientUnits="userSpaceOnUse" x1="108.857" y1="44.086" x2="106.857" y2="28.691" gradientTransform="matrix(1 0 0 -1 0 128)"><stop offset=".5" style="stop-color:#f9ddbd"/><stop offset="1" style="stop-color:#ffd29c"/></linearGradient><path style="fill:url(#e)" d="M114.05 82.79c-1.93-.34-4.32-.77-6.61-.89-.32-.02-.64-.03-.96-.04-3.01-.05-5.2 1.63-6.29 5.4-.04.12-.07.24-.11.37-.06.22-.12.46-.17.72v.03c-.07.34-.14.69-.19 1.07-.19 1.25-.07 2.45.22 3.42.79 3.46 3.22 5.1 3.22 5.1s6.29 3.15 7.73 0-.65-7.55-.65-7.55l-2.92-1.73c.61-.75 1.5-1.07 3.25-.97.55.03 1.22.1 2.04.18.08.01 1.08.12 1.15.12 1.11.06 1.98-.28 2.66-1.04.88-.99.77-2.67.84-3.47-.79-.08-2.14-.53-3.21-.72z"/><linearGradient id="f" gradientUnits="userSpaceOnUse" x1="35.968" y1="25.388" x2="35.968" y2="-.312" gradientTransform="matrix(1 0 0 -1 0 128)"><stop offset=".004" style="stop-color:#666"/><stop offset=".012" style="stop-color:#656565"/><stop offset=".274" style="stop-color:#484747"/><stop offset=".53" style="stop-color:#343131"/><stop offset=".776" style="stop-color:#272324"/><stop offset="1" style="stop-color:#231f20"/></linearGradient><path style="fill:url(#f)" d="m54.41 123.94-.87-21.59c-3.41 1.41-6.85 2.1-10.46 2.1-5.9 0-11.08-1.9-15.23-3.43-2.84-1.04-5.3-1.95-7.15-1.95-2.26 0-3.18 1.97-3.18 6.81v18.06h36.89z"/><linearGradient id="g" gradientUnits="userSpaceOnUse" x1="3073.015" y1="25.388" x2="3073.015" y2="-.312" gradientTransform="rotate(180 1583.123 64)"><stop offset=".004" style="stop-color:#666"/><stop offset=".012" style="stop-color:#656565"/><stop offset=".274" style="stop-color:#484747"/><stop offset=".53" style="stop-color:#343131"/><stop offset=".776" style="stop-color:#272324"/><stop offset="1" style="stop-color:#231f20"/></linearGradient><path style="fill:url(#g)" d="M111.83 123.94v-18.06c0-4.83-.92-6.81-3.18-6.81-1.83 0-4.39.88-7.34 1.91-4.41 1.53-9.9 3.43-16.04 3.43-3.72 0-7.22-.68-10.64-2.07l.12 21.6h37.08z"/><linearGradient id="h" gradientUnits="userSpaceOnUse" x1="40.56" y1="13.667" x2="40.56" y2="-.009" gradientTransform="matrix(1 0 0 -1 0 128)"><stop offset=".004" style="stop-color:#666"/><stop offset=".266" style="stop-color:#717273"/><stop offset=".649" style="stop-color:#7c7e81"/><stop offset="1" style="stop-color:#808285"/></linearGradient><path style="fill:url(#h)" d="M57.97 123.94 56.24 112l-33.09 6.22 4.11 5.72z"/><linearGradient id="i" gradientUnits="userSpaceOnUse" x1="41.627" y1="28.833" x2="41.627" y2="1.331" gradientTransform="matrix(1 0 0 -1 0 128)"><stop offset="0" style="stop-color:#00bfa5"/><stop offset=".275" style="stop-color:#00bba2"/><stop offset=".545" style="stop-color:#00af99"/><stop offset=".812" style="stop-color:#009c89"/><stop offset="1" style="stop-color:#00897b"/></linearGradient><path style="fill:url(#i)" d="M39.64 123.94h18.27l-2.96-27.03-29.61 7.2 12.83 17.72z"/><linearGradient id="j" gradientUnits="userSpaceOnUse" x1="87.311" y1="13.667" x2="87.311" y2="-.009" gradientTransform="matrix(1 0 0 -1 0 128)"><stop offset=".004" style="stop-color:#666"/><stop offset=".266" style="stop-color:#717273"/><stop offset=".649" style="stop-color:#7c7e81"/><stop offset="1" style="stop-color:#808285"/></linearGradient><path style="fill:url(#j)" d="m100.88 123.94 4.02-5.6L71.36 112l-1.64 11.94z"/><linearGradient id="k" gradientUnits="userSpaceOnUse" x1="86.126" y1="28.833" x2="86.126" y2="1.331" gradientTransform="matrix(1 0 0 -1 0 128)"><stop offset="0" style="stop-color:#00bfa5"/><stop offset=".275" style="stop-color:#00bba2"/><stop offset=".545" style="stop-color:#00af99"/><stop offset=".812" style="stop-color:#009c89"/><stop offset="1" style="stop-color:#00897b"/></linearGradient><path style="fill:url(#k)" d="m87.1 123.94 2.54-3.65 12.82-17.72-29.35-5.66-3.32 27.03z"/><linearGradient id="l" gradientUnits="userSpaceOnUse" x1="110.326" y1="29.982" x2="110.326" y2="-8.423" gradientTransform="matrix(1 0 0 -1 0 128)"><stop offset=".004" style="stop-color:#666"/><stop offset=".631" style="stop-color:#393637"/><stop offset="1" style="stop-color:#231f20"/></linearGradient><path style="fill:url(#l)" d="m121.76 123.94-.15-26-22.72.08.02 25.92z"/><circle style="fill:#e6e7e8" cx="99.72" cy="107.95" r="4.11"/><circle style="fill:#00bfa5" cx="110.32" cy="107.92" r="4.11"/><circle style="fill:#808285" cx="120.93" cy="107.88" r="4.11"/><path style="fill:#312d2d" d="M64 4.03h-.04c-45.43.24-36.12 52.14-36.12 52.14s2.04 5.35 2.97 7.71c.13.34.63.3.71-.05.97-4.34 4.46-19.73 6.22-24.41a6.075 6.075 0 0 1 6.79-3.83c4.45.81 11.55 1.81 19.37 1.81h.16c7.82 0 14.92-1 19.37-1.81 2.9-.53 5.76 1.08 6.79 3.83 1.75 4.66 5.22 19.96 6.2 24.36.08.36.58.39.71.05l2.98-7.67c.02.01 9.33-51.89-36.11-52.13z"/><radialGradient id="m" cx="63.983" cy="80.901" r="38.093" gradientTransform="matrix(1 0 0 -1.1282 0 138.37)" gradientUnits="userSpaceOnUse"><stop offset=".794" style="stop-color:#454140;stop-opacity:0"/><stop offset="1" style="stop-color:#454140"/></radialGradient><path style="fill:url(#m)" d="M100.13 56.17S109.44 4.27 64 4.03h-.04c-.71 0-1.4.02-2.08.05-1.35.06-2.66.16-3.92.31h-.04c-.09.01-.17.03-.26.04-38.24 4.81-29.82 51.74-29.82 51.74l2.98 7.68c.13.34.62.31.7-.05.98-4.39 4.46-19.71 6.22-24.37a6.075 6.075 0 0 1 6.79-3.83c4.45.81 11.55 1.81 19.37 1.81h.16c7.82 0 14.92-1 19.37-1.81 2.9-.53 5.76 1.08 6.79 3.83 1.76 4.68 5.25 20.1 6.21 24.42.08.36.57.39.7.05.95-2.36 3-7.73 3-7.73z"/><path style="fill:#5d5f61" d="M34.42 87.9 11.7 97.29l-.34-.66c-.07.06-.14.12-.23.17l-1.25.73v26.41H6.75V99.33a1.794 1.794 0 0 1-1.65-3.18l4.22-2.46c.15-.09.31-.14.47-.18l-.63-1.26 21.19-12.73c-.04.37-.05.74-.04 1.12a8.984 8.984 0 0 0 4.11 7.26z"/><circle style="fill:#434444" cx="39.28" cy="80.35" r="7.97"/><path style="fill:#727475" d="m35.6 87.41-1.18.49c-2.39-1.54-4-4.19-4.11-7.26-.01-.38 0-.75.04-1.12l1.1-.65a7.72 7.72 0 0 0-.14 1.74c.1 2.98 1.82 5.52 4.29 6.8z"/><path style="fill:#434444" d="M42.94 87.44c-.42.22-.86.39-1.31.53l-.01-.01c-.39-.21-.79-.48-1.19-.81-1.4-1.13-2.75-2.83-3.84-4.82-.09-.17-.19-.34-.27-.51-1.49-2.9-2.11-5.76-1.88-7.82.36-.28.75-.52 1.16-.74.91-.48 1.94-.77 3.02-.86l.41-.03c.47-.02.94.01 1.4.08 3.76.53 6.7 3.7 6.83 7.63a7.77 7.77 0 0 1-.94 4.01c-.28.55-.64 1.06-1.05 1.51-.66.75-1.44 1.38-2.33 1.84z"/><path style="fill:#5d5f61" d="M41.06 86.38c-1.41-1.13-2.78-2.91-3.84-5.01-1.74-3.41-2.15-6.46-1.61-8.1-.41.21-.8.46-1.16.74-.23 2.05.4 4.91 1.88 7.82.08.17.18.35.27.51 1.09 1.99 2.44 3.69 3.84 4.82.41.32.81.6 1.19.81l.01.01c.45-.14.89-.31 1.31-.53-.58-.18-1.22-.53-1.89-1.07z"/><path style="fill:#edbd82" d="M118.39 77.58c-.18 1.35-1.35 5.21-1.35 5.21-1.5-.61-2.87-1.04-4.12-1.34-.12-.89-.41-3.05-.52-4.34-.25 1.06-.9 3.18-1.16 4.01-1.78-.28-3.28-.26-4.53-.06-.08-.69-.38-3.07-.54-3.75-.12.6-.22 1.91-.34 2.52-.11.56-.25 1.17-.32 1.48-1.31.36-2.27.91-2.96 1.43-.53.36-.99.79-1.32 1.34l-.1.15c.96-.87 2.29-1.35 3.53-1.65 3.41-.82 7.86-.51 11.07.91 1.32.59 1.58 1.6.71 2.73-1.27 1.67-3.45.91-5.2.76-1.52-.13-4.04.06-4.49 1.93 3.4.53 4.61 4.26 4.52 7.29 1.26-2.8.44-5.83-2.57-7.8 1.93-1.06 8.31 2.03 9.27-2.89.42-2.21.48-6.89.42-7.93z"/></svg>