<svg xmlns="http://www.w3.org/2000/svg" viewBox="0 0 128 128" style="enable-background:new 0 0 128 128" xml:space="preserve"><path style="fill:#f77e00" d="M116 4H12c-4.42 0-8 3.58-8 8v104c0 4.42 3.58 8 8 8h104c4.42 0 8-3.58 8-8V12c0-4.42-3.58-8-8-8z"/><path style="fill:#ff9800" d="M109.7 4H11.5A7.555 7.555 0 0 0 4 11.5v97.9c-.01 4.14 3.34 7.49 7.48 7.5h98.12c4.14.01 7.49-3.34 7.5-7.48V11.5c.09-4.05-3.13-7.41-7.18-7.5h-.22z"/><path style="opacity:.75;fill:#ffbd52;enable-background:new" d="M39.7 12.9c0-2.3-1.6-3-10.8-2.7-7.7.3-11.5 1.2-13.8 4s-2.9 8.5-3 15.3c0 4.8 0 9.3 2.5 9.3 3.4 0 3.4-7.9 6.2-12.3 5.4-8.7 18.9-10.6 18.9-13.6z"/><path style="fill:#fafafa" d="M102.1 37v15.7c0 1.1-.9 2-2 2h-4.2c-1.1 0-2-.9-2-2v-8.4c0-.5-.4-.9-.9-.9H34.7c-.5 0-.9.4-.9.9v8.4c0 1.1-.9 2-2 2h-3.9c-1.1 0-2-.9-2-2V37c0-.5.4-.9.9-.9h9.6c.51 0 .93-.42.93-.93 0-.16-.04-.33-.13-.47a63.166 63.166 0 0 0-4.5-6.5 2.06 2.06 0 0 1 .8-3.1l3.7-1.5c.8-.3 1.7-.1 2.3.5 2 2.3 5.7 8 7.4 10.6.55.85 1.49 1.37 2.5 1.4H59c.55-.03.97-.5.95-1.05 0-.08-.02-.17-.05-.25a62.353 62.353 0 0 0-4.7-8.7c-.59-.89-.35-2.09.54-2.68.14-.09.3-.17.46-.22 1.2-.4 2.6-.9 3.6-1.3.84-.3 1.77-.02 2.3.7 1.8 2.6 5.8 9.3 7.4 12.1.46.79 1.29 1.28 2.2 1.3h6.9c.27.03.53-.09.7-.3 2.86-3.79 5.47-7.76 7.8-11.9a2.16 2.16 0 0 1 2.3-1l4.8 1.5c1.05.33 1.64 1.46 1.3 2.51-.07.21-.17.41-.3.59-1.9 2.5-3.8 4.9-5.6 7.1-.33.38-.28.96.1 1.28.17.14.38.22.6.22h10.8c.55 0 1 .45 1 1zM66.8 71.5c-.7 1.6-1.3 3.3-1.9 4.8-.17.52.11 1.09.64 1.26.05.02.11.03.16.04h28.1c1.1 0 2 .9 2 2v24.6c0 1.1-.9 2-2 2h-4.6c-1.1 0-2-.9-2-2v-.3c0-.5-.4-.9-.9-.9H42.1c-.5 0-.9.4-.9.9v.4c0 1.1-.9 2-2 2H35c-1.1 0-2-.9-2-2V79.5c0-1.1.9-2 2-2h20.3c.42-.02.78-.3.9-.7.5-1.6.9-3.2 1.3-4.8a.934.934 0 0 0-.64-1.16c-.08-.02-.17-.04-.26-.04H41.9c-1.1 0-2-.9-2-2V51.3c0-1.1.9-2 2-2H86c1.1 0 2 .9 2 2v17.6c0 1.1-.9 2-2 2H67.6a.76.76 0 0 0-.8.6zM86.3 85H42.1c-.5 0-.9.4-.9.9v8.7c0 .5.4.9.9.9h44.2c.5 0 .9-.4.9-.9v-8.7c0-.5-.4-.9-.9-.9zM48.7 64.5h30c.5 0 .9-.4.9-.9v-7c0-.5-.4-.9-.9-.9h-30c-.5 0-.9.4-.9.9v7c.05.48.42.85.9.9z"/></svg>