<svg xmlns="http://www.w3.org/2000/svg" viewBox="0 0 128 128" style="enable-background:new 0 0 128 128" xml:space="preserve"><circle style="fill:#c33" cx="64" cy="64" r="60"/><circle style="fill:#f44336" cx="60.1" cy="63.1" r="56.1"/><path style="opacity:.65;fill:#ff8a80;enable-background:new" d="M24.35 29.7c4.5-7.1 14.1-13 24.1-14.8 2.5-.4 5-.6 7.1.2 1.6.6 2.9 2.1 2 3.8-.7 1.4-2.6 2-4.1 2.5a44.64 44.64 0 0 0-23 17.4c-2 3-5 11.3-8.7 9.2-3.9-2.3-3.1-9.5 2.6-18.3z"/><path style="opacity:.3;fill:#ff8a80;enable-background:new" d="M24.35 29.7c4.5-7.1 14.1-13 24.1-14.8 2.5-.4 5-.6 7.1.2 1.6.6 2.9 2.1 2 3.8-.7 1.4-2.6 2-4.1 2.5a44.64 44.64 0 0 0-23 17.4c-2 3-5 11.3-8.7 9.2-3.9-2.3-3.1-9.5 2.6-18.3z"/><path style="fill:#fafafa" d="M63.1 30.2c4.58 3.2 8.95 6.67 13.1 10.4a2 2 0 0 0 2.8-.2l2.6-3.3c.64-.78.55-1.93-.2-2.6-4.35-3.72-8.96-7.13-13.8-10.2-.82-.48-1.87-.31-2.5.4-.6.8-1.5 1.8-2.3 2.7-.06.06-.11.13-.16.2-.59.84-.39 2.01.46 2.6zM49.55 72.4c-.35 1.13-.74 2.25-1.15 3.3-.34 1.02.19 2.12 1.2 2.5l2.7.9c.99.33 2.07-.21 2.4-1.2 2.4-6.7 4-16.5 4.8-24.5a1.99 1.99 0 0 0-1.5-2l-2.4-.6a.908.908 0 0 0-.23-.03c-1.05-.09-1.98.68-2.07 1.73a119.39 119.39 0 0 1-2.8 16.9s-.21.69-.42 1.4c-.17.59-.44 1.36-.53 1.6z"/><path style="fill:#fafafa" d="M100.3 77.6c-1.73-7.88-4.21-15.59-7.4-23a1 1 0 0 0-1.1-.5l-2.8.8a1.006 1.006 0 0 1-1.1-1.3c2.77-6.9 5.18-13.94 7.2-21.1.01-.05.03-.11.04-.16.19-1.04-.49-2.04-1.54-2.24l-4-.8c-.99-.19-1.96.42-2.2 1.4-3.24 12.63-8.08 24.8-14.4 36.2a1 1 0 0 1-1.8-.5V44.88a1.836 1.836 0 0 0-1.9-1.78h-3.9a1.9 1.9 0 0 0-1.9 1.9v35.4c.02.44-.12.86-.4 1.2a80.32 80.32 0 0 1-14.3 13.7 1.87 1.87 0 0 0 0 3c1.1.9 2.4 1.9 3.3 2.8.71.61 1.75.66 2.5.1 2.6-2.01 5.08-4.18 7.4-6.5.16-.17.39-.27.63-.29.51-.02.95.37.97.89.6 6 3 7.8 10 7.8h11c6.8 0 8.9-3.5 9.8-14.9.03-.87-.49-1.67-1.3-2-.99-.33-1.96-.73-2.9-1.2-.24-.12-.51-.2-.78-.21-1.06-.06-1.96.75-2.02 1.81-.4 7.6-1 9.3-3.5 9.3h-9.4c-3 0-3.4-.6-3.4-4.2v-7.2c.03-.4.17-.78.4-1.1 5.42-7.43 10.05-15.41 13.8-23.8.1-.2.26-.37.46-.46.5-.24 1.1-.03 1.34.46 2.45 6.44 4.39 13.06 5.8 19.8.01.05.02.11.04.16a1.922 1.922 0 0 0 2.36 1.34c1.1-.4 2.6-.8 3.7-1.1.93-.29 1.49-1.24 1.3-2.2zm-50.37-5.9c.08-.39-.42-1.08-.42-1.08l-.6-.8c-.04-.04-.08-.07-.11-.12-2.3-3.3-6.6-9.3-8.5-11.8-.11-.18-.18-.39-.2-.6v-.4c0-.55.45-1 1-1H48a1.9 1.9 0 0 0 1.9-1.9v-3.7a1.9 1.9 0 0 0-1.9-1.9h-6.6c-.55 0-1-.45-1-1V34.7c.02-.42.3-.78.7-.9a61.45 61.45 0 0 0 6.8-2.1 1.894 1.894 0 0 0 .8-2.9c-.8-1.1-1.8-2.5-2.5-3.4a1.91 1.91 0 0 0-2.3-.6c-5.2 2.3-12.7 4.3-19.6 5.8a1.83 1.83 0 0 0-1.4 2.5c.4.9.7 1.8 1 2.7.27.9 1.17 1.46 2.1 1.3 1.9-.3 3.8-.7 5.7-1.1.07-.02.15-.02.22-.02.5.01.89.43.88.92v10.4c0 .55-.45 1-1 1h-8.4c-1.03.05-1.85.87-1.9 1.9v3.7c0 1.05.85 1.9 1.9 1.9h7.2c.09 0 .17.01.26.04.5.14.79.66.64 1.16-2.7 8.4-7.1 17.6-11.4 23.4-.48.61-.52 1.45-.1 2.1.7 1.2 1.5 2.5 2.1 3.8.16.35.42.65.75.85.88.53 2.02.24 2.55-.65 2.15-3.52 4.02-7.2 5.6-11a.997.997 0 0 1 1.8.4v26.2c0 1.05.85 1.9 1.9 1.9h3.82c1.02-.03 1.81-.88 1.78-1.9V71.4c.05-.26.19-.49.41-.64a.996.996 0 0 1 1.39.24c.7 1.4 1.3 2.8 1.9 4 .6 1.3 2 1.37 3 .4l2.38-2.19c.13-.2.49-1.22.55-1.51z"/></svg>