<svg xmlns="http://www.w3.org/2000/svg" viewBox="0 0 128 128" style="enable-background:new 0 0 128 128" xml:space="preserve"><path style="fill:#a7d0d6" d="M3.83 65.39V32.27s8.03-.69 14.38 2.89S32.19 48.79 35.07 51.1c2.89 2.31 6.81 6.24 8.78 6.93 1.96.69 5.13.81 7.05 1.85 2.77 1.5 3.81 3.81 3.81 3.81l1.79 7.57-50.3-3.18-2.37-2.69zm120.37-.71V37.01s-4.34-.35-11.5 6.35c-7.16 6.7-12.94 12.82-16.29 13.98-3.35 1.16-11.98 1.65-15.48 2.43-5.2 1.16-8.09 4.97-8.09 4.97l13.75 3.81 37.61-3.87z"/><path style="fill:#7db240" d="m124.2 63.68.01 52.99c0 4.15-3.37 7.52-7.52 7.52H11.38c-4.15 0-7.52-3.37-7.52-7.52l-.03-52.28 120.37-.71z"/><path style="fill:#528d30" d="m3.84 54.85.01 32.5s4.65.1 8.27.01c3.63-.1 8.11-.76 8.69-2 .57-1.24-2.77-17.94-4.87-18.04s-5.06 9.93-5.06 9.93-1.79-22.49-7.04-22.4zm26.13-4.05c-1.43 0-6.36 15.29-5.44 16.42 1.72 2.1 10.12 1.62 10.88-.1.44-.97-3.34-16.32-5.44-16.32zm56.89 16.23c.59 1.61 9.26 1.72 9.64 0 .31-1.4-2.28-15.46-4.58-15.46-2-.01-5.73 13.64-5.06 15.46zm22.81-9.55c-1.24-.08-5.15 8.02-4.77 9.26s7.06 1.05 7.06 1.05-.67 2.58.57 3.44c1.24.86 9.45 1.15 10.31.19.86-.95-2.1-19.76-4.96-19.95-1.62-.11-4.49 11.07-4.49 11.07s-2.29-4.96-3.72-5.06z"/><path style="fill:#dad0c5" d="m52.18 64.09 22.92-.16s2.34 1.82 2.89 3.31c.55 1.49.24 1.89 1.41 3.14s3.3 2.49 4.88 4.77c1.57 2.28 1.9 5.28 2.91 6.94 2.37 3.9 6.22 6.41 7.86 8.88 3.3 4.97 2.45 8.76 4.92 13.03 2.52 4.35 6.56 5.71 8.42 9.76 2.47 5.39 1.45 10.42 1.45 10.42l-95.91.04s.08-5.35 2.59-9.67c2.52-4.32 5.94-5.14 8.06-8.76s1.1-7.24 3.97-11.29c3.39-4.79 5.95-4.3 8.1-7.86 1.11-1.84 1.91-5.13 4.3-7.92 2.83-3.3 4.97-3.94 6.31-6.38 1.34-2.44 1.26-4.01 2.36-5.97 1.08-1.95 2.56-2.28 2.56-2.28z"/><path style="fill:#88857c" d="M53.44 66.25s-.52 2.1.39 2.26c1.1.19 19.44.33 20.07.06.65-.28.28-1.86.28-1.86l-20.74-.46zm-4.3 6.55-.08.9s-.21 1.2 1.58 1.41c1.45.17 24.21.06 25.37 0 1.17-.06 2.4-1.1 2.47-1.82s-15.12-2.6-15.12-2.6L49.14 72.8zm-3.7 7.96-.78.78s-.32 1.56 1.1 2.01c.73.23 9.64-.09 18.69-.13 8.65-.04 17.59.15 18.09.12 1.16-.05 1.71-1.82 1.11-2.72-.13-.2-10.34-2.95-19.92-2.92-9.45.03-18.29 2.86-18.29 2.86zm-7.4 9.34s-1.06 1.5-.06 2.66c1.24 1.44 16.61.19 27.71.39s21.48-.19 22.32-.39c.84-.19 1.04-2.53 1.04-2.53l-24.66-4.41-26.35 4.28zm-7.14 12.07c.26-.04-1.17 2.73.13 3.76s22.52.78 32.77.78 28.81-.52 30.37-.84c1.56-.32 2.47-2.14 1.95-3.18s-3.5-2.21-3.5-2.21l-47.83-.91c0 .01-14.34 2.67-13.89 2.6zm-6.07 15.06-5.4 1.69s-.24 3.3.44 4.27c.57.82 1.24 1.04 1.24 1.04l80.06-.04s3.13-.12 4.63-1.99c1.28-1.6.72-3.96.72-3.96l-46.03-5.47-35.66 4.46z"/><path style="fill:#543529" d="m54.71 64.83-1.2.12s-.13.47-.1 1.23c.02.55.3.79.63.9.33.1 20.18.1 20.18.1s.27-1.71.23-2.14c-.04-.43-.82-1.11-.82-1.11l-18.92.9zm-4.79 5.68s-.64.41-.76 1.53c-.13 1.15.16 1.76.97 1.8.81.04 13.88-.09 13.88-.09s13.58-.17 14.14-.26c.56-.09.64-1.71.09-2.22-.55-.5-28.32-.76-28.32-.76zm-5.19 8.61s-.51 1.78-.07 2.42c.44.64 38.36.31 38.71.24.34-.07.69-1.72.14-2.41-.55-.69-20.56-1.31-20.56-1.31l-18.22 1.06zm-6.71 10.09c-.06-.01-.32.79-.23 1.37.15.89.47 1.3 1.57 1.23 1.39-.08 15.16-.17 25.68-.1s23-.45 23.55-.66c.55-.21.9-1.65.44-2.47-.38-.68-25.05-1.52-25.05-1.52l-25.96 2.15zm-6.29 9.28s-1.38 2.61-1.1 4.4 1.1 1.65 2.96 1.65 21.24-.07 31.35 0c10.11.07 27.78-.14 29.08-.21s1.87-1.79 1.79-2.82c-.21-2.49-2.2-4.88-2.2-4.88l-61.88 1.86zm67.24 15.2 5.5 1.9s1.79 1.56 2.02 2.5c.23.94-.47 2.54-1.27 2.91-.8.38-44.01.33-44.01.33s-39.59.3-40.18.15c-.6-.15-1.42-.99-1.61-2.06-.19-1.07.41-2.27.79-3.01.37-.75 9.71-2.69 9.71-2.69l69.05-.03z"/><path style="fill:#b88956" d="M25.62 109.73c-.97.37-4.74 5.61-5.41 6.66-.67 1.05.67 1.94 1.87 1.94s84.09.11 84.28-.39c.34-.9-1.54-2.83-3.11-4.74-2.34-2.82-3.55-4.04-3.55-4.04l-74.08.57zm8.78-13.88c-.72.18-1.85 1.07-2.67 2.64-.82 1.57.21 2.95.21 2.95l62.31-.04s1.52-1.43.18-3.67-2.42-2.33-2.42-2.33l-57.61.45zm6.91-10.44c-.93.26-3.34 3.57-3.35 3.8-.04.54 50.86.2 51.18-.14.32-.34-2.03-3.93-3.21-4.21-.67-.16-43.37.2-44.62.55zm5.53-8.84c-.43.09-2.69 2.35-2 2.97.33.3 10.08.19 19.27.14 9.97-.05 19.59.22 19.56-.01-.06-.46-2.01-2.75-2.7-3.1-.7-.35-33.1-.21-34.13 0zm4.09-7.25c-.42.11-1.75 1.81-1.59 2.12.16.31 28.94.41 29.14.17.17-.2-1.25-2.17-1.71-2.25-.48-.08-25.41-.15-25.84-.04zm2.57-4.36c0 .19 20.97.36 20.97.08 0-.29-.35-1.32-.86-1.4-.51-.08-18.17-.12-19.14.08-.51.1-.97 1.05-.97 1.24z"/><path style="fill:#88857c" d="m61.47 65.58-21.6 58.29-4.98-.08-1.86-1.86 25.18-58 3.01-.51c0 .02.67.78.25 2.16zm27 56.58S66.12 65.87 66 65.31c-.16-.71.08-1.58.36-1.81.27-.23 2.84.22 2.84.22l26.61 58.13.91 2.15-8.47-.11.22-1.73z"/><path style="fill:#c8c9c6" d="M34.33 121.84c.31-1.13 23.73-58.1 24.04-58.56.43-.63 3.06-.24 2.9.27-.16.51-22.37 57.69-22.79 58.59s-.98 1.19-2.44 1.19-2.04-.33-1.71-1.49zm56.63.72c-.77-1.54-24.69-58.64-24.59-59.05.09-.38 2.21-.6 2.73 0 .55.65 25.72 58.33 25.88 58.6.16.28.06 1.57-1.7 1.57-1.77 0-2.32-1.12-2.32-1.12z"/></svg>