<svg xmlns="http://www.w3.org/2000/svg" viewBox="0 0 128 128" style="enable-background:new 0 0 128 128" xml:space="preserve"><path style="fill:#c8c8c8" d="M7.26 32.16s-3.57-5.64-4.27-7.15c-.9-1.94.09-2.41 3.45-2.43 2.15-.01 22.8 0 22.8 0h18.68s-.14-6.72 0-7.08c.14-.35 31.57-.07 31.71 0 .14.07.07 7.08.07 7.08h43.05c.99 0 2.02.91 1.15 2.64s-3.29 5.07-3.29 5.07l-.27 87.63-6.95 3.88-100.77-.4-5.35-3.07-.01-86.17z"/><path style="fill:#e1e1e1" d="M28.96 119.32V29.81l32.94-5.02 36.34 5.31v89.22l-34.12 1.77z"/><path style="fill:#9a9a9a" d="m28.97 22.57 69.32.01-.05 7.52-69.28-.29zm-21.7 95.76 39.99-.27s-.05-30.91 0-32.15c.03-.9.25-1.64 1.4-1.72s27.82-.08 28.81-.08c.98 0 1.72.57 1.72 1.97v31.93s41.17-.38 41.15-.07c-.03.31.05 4.58.05 5.16 0 .57-.25 1.4-1.81 1.4H8.6c-.66 0-1.31-.66-1.31-1.48s-.02-4.69-.02-4.69z"/><path style="fill:#6ca4ab" d="M54.73 32.93h17.96v10.64H54.73zm-.09 17.28h18.14v10.22H54.64zm-.17 17.29h18.31v10.98H54.47zm27.25-34.23c-.09.26 0 10.56 0 10.56l10.96-.03s.15-10.4-.06-10.61-10.82-.18-10.9.08zm.17 16.6.08 10.47 10.39-.08.17-10.22zm.51 17.71s-.26 10.13-.09 10.39 10.05.26 10.39 0c.34-.26 0-10.3 0-10.3l-10.3-.09zm.05 16.91.08 10.53s9.81.23 10.04 0 .46-10.3.15-10.53c-.31-.23-10.27 0-10.27 0zm.28 17.15.14 10.46s9.67.08 9.88-.07.22-10.01.08-10.31-10.1-.08-10.1-.08zm21.75 10.3c.12.15 10.43.15 10.43.15s.32-10.3-.05-10.45c-.27-.12-10.47-.27-10.61-.15-.32.29.14 10.34.23 10.45zm-.15-26.93c-.16.4-.3 10.53-.08 10.61.23.08 10.08.15 10.38 0 .3-.15.53-10.23.23-10.46s-10.38-.52-10.53-.15zm-.22-6.69c.27.34 10 .3 10.3.15.3-.15.15-9.93-.08-10.3s-10-.15-10.23.08-.29 9.69.01 10.07zm.3-27.53c-.19.38 0 9.78.15 10.08.15.3 9.93.3 10.08.08.15-.23.23-9.85.08-10.08-.16-.23-10.16-.38-10.31-.08zm.22-7.07c.27.27 10.08.08 10.3 0 .23-.08.15-10 .08-10.38-.08-.38-10.15-.15-10.46 0-.29.15-.29 10 .08 10.38zM33.85 32.9c-.09.26 0 10.56 0 10.56l10.9-.17s.21-10.26 0-10.47c-.21-.22-10.81-.18-10.9.08zm.25 17.27s-.27 10.21.07 10.38c.34.17 10.1.26 10.44 0 .34-.26.06-10.48.06-10.48l-10.57.1zm.17 17.43c-.19.14-.26 10.13-.09 10.39.17.26 10.05.26 10.39 0 .34-.26.26-10.05 0-10.3s-9.96-.34-10.3-.09zm-.34 17.04c-.27.27-.15 10.3.08 10.53s10.04 0 10.04 0l.15-10.53s-9.97-.3-10.27 0zm.06 16.73v10.55l9.82-.09.22-10.38zm-21.13 10.46 10.3-.08.07-10.48s-10.38-.27-10.6.11c-.22.37.23 10.45.23 10.45zm-.15-26.93c-.16.4-.3 10.53-.08 10.61.23.08 10.08.15 10.38 0 .3-.15.53-10.23.23-10.46s-10.38-.53-10.53-.15zm-.23-6.69c.27.34 10 .3 10.3.15.3-.15.15-9.93-.08-10.3-.23-.38-10-.15-10.23.08-.21.21-.29 9.69.01 10.07zm.3-27.53c-.19.38 0 9.78.15 10.08.15.3 9.93.3 10.08.08.15-.23.23-9.85.08-10.08-.15-.23-10.16-.38-10.31-.08zm.23-7.07c.27.27 10.08.08 10.3 0 .23-.08.15-10 .08-10.38s-10.15-.15-10.46 0c-.3.15-.3 10 .08 10.38z"/><path style="fill:#e1e1e1" d="M51.76 118.36c-.07-.07-.21-19.97.07-20.33.29-.36 22.84-.14 23.05.07s.14 20.12.07 20.26-23.19 0-23.19 0z"/><path style="fill:#536f7b" d="M53.88 99.97h8.47v16.66h-8.47zm10.65-.03h8.65v16.66h-8.65z"/></svg>