<svg xmlns="http://www.w3.org/2000/svg" viewBox="0 0 1000 1000"><path fill="#ED2939" d="M90.63 194.87c272.45-162.63 542.89 102.17 818.74-61.74v672c-139.48 82.92-278.21 55.29-418.77 29.21-131.84-24.46-265.22-47.86-399.97 32.53v-672"/><path fill="#FAE042" d="M90.63 194.87c180.95-108.01 359.57-27.82 545.83-9.43v672c-179.03-17.67-361.58-100.49-545.83 9.43v-672"/><path d="M90.63 194.87c90.17-53.82 180.04-61.39 272.91-52.22v672c-89.93-8.88-180.27-3.05-272.91 52.22v-672"/><path fill="#1A1A1A" opacity=".2" d="M90.63 194.87C363.2 32.3 633.52 297.04 909.37 133.13v672c-138.87 82.49-276.84 55.56-416.77 29.58-132.5-24.59-266.54-48.63-401.97 32.16v-672m31.25 16.87v604.5c251.36-121.09 501.07 94.44 756.24-28.05v-604.5C626.09 304.63 376.41 89.2 121.88 211.74"/></svg>