<svg xmlns="http://www.w3.org/2000/svg" viewBox="0 0 128 128" style="enable-background:new 0 0 128 128" xml:space="preserve"><path style="fill:#c33" d="M64 4C30.86 4 4 30.86 4 64s26.86 60 60 60 60-26.86 60-60S97.14 4 64 4zm50 60a49.367 49.367 0 0 1-11.3 31.6L32.4 25.3A49.367 49.367 0 0 1 64 14c27.61 0 50 22.39 50 50zM14 64a49.367 49.367 0 0 1 11.3-31.6l70.3 70.3A49.367 49.367 0 0 1 64 114c-27.61 0-50-22.39-50-50z"/><circle style="fill:#f44336" cx="60.1" cy="63.1" r="56.1"/><path style="fill:#fff" d="M95.6 102.7A49.367 49.367 0 0 1 64 114c-27.61 0-50-22.39-50-50a49.367 49.367 0 0 1 11.3-31.6l7.1-7.1A49.367 49.367 0 0 1 64 14c27.61 0 50 22.39 50 50a49.367 49.367 0 0 1-11.3 31.6"/><path style="fill:#231f20" d="M95.6 102.7A49.367 49.367 0 0 1 64 114c-27.61 0-50-22.39-50-50a49.367 49.367 0 0 1 11.3-31.6l7.1-7.1A49.367 49.367 0 0 1 64 14c27.61 0 50 22.39 50 50a49.367 49.367 0 0 1-11.3 31.6"/><path style="fill:#414042" d="M96.4 103.2c-20.49 16.74-50.66 13.7-67.4-6.79-14.41-17.63-14.41-42.97 0-60.61l6.8-6.8a47.305 47.305 0 0 1 30.3-10.8c26.45 0 47.9 21.44 47.9 47.9a47.93 47.93 0 0 1-10.8 30.3"/><path style="fill:#e2a610" d="M58.7 34.4c0-4.2 3.4-7.6 7.6-7.6 4.2 0 7.6 3.4 7.6 7.6S70.5 42 66.3 42s-7.6-3.4-7.6-7.6zm4.4 0c0 1.77 1.43 3.2 3.2 3.2s3.2-1.43 3.2-3.2-1.43-3.2-3.2-3.2a3.154 3.154 0 0 0-3.2 3.12v.08z"/><path style="fill:#9e740b" d="M72.8 30.5c.12.89-.37 1.75-1.2 2.1-.78.48-1.75.56-2.6.2.28.48.42 1.04.4 1.6 0 1.77-1.43 3.2-3.2 3.2-1.77 0-3.2-1.43-3.2-3.2a3.1 3.1 0 0 1 .3-1.4c-1.43.72-3.11.8-4.6.2-.08.39-.12.8-.1 1.2 0 4.2 3.4 7.6 7.6 7.6s7.6-3.4 7.6-7.6c-.02-1.36-.37-2.7-1-3.9z"/><path style="fill:#ffca28" d="M33.6 80.8c4-3.9 6.4-5.2 7.5-10.9s.2-17.6 4.6-25.4c4.1-7.1 11.5-10.1 18.8-10.1h1c7.3 0 14.7 3 18.8 10.1 4.4 7.8 3.6 19.7 4.6 25.4s3.5 7 7.5 10.9c1.7 1.7 3.8 4.4 3.8 6.1s-.9 2.4-3 3.2C91.3 92.6 83.4 95 65 95s-26.3-2.4-32.3-4.9c-2.1-.9-3-1.5-3-3.2s2.2-4.5 3.9-6.1z"/><path style="fill:#4e342e" d="M94.2 87c0-2.6-13.1-4.7-29.2-4.7S35.8 84.4 35.8 87s13.1 5.7 29.2 5.7 29.2-3.1 29.2-5.7z"/><path style="fill:#e2a610" d="M82.5 49.6c.21.82.38 1.66.5 2.5.7 4.1.6 8.4.9 12.6.5 5.6 1.4 8.6 3.7 11.2.17.22.14.53-.08.7-.12.09-.27.13-.42.1-3-.5-5.5-.9-8.2-2.8-4.1-2.7-5.2-7.9-5.2-12.5 0-6.9.1-13.5-.5-16a20.94 20.94 0 0 0-2.6-7.1c-1.8-2.6 5.1 1 6.1 1.8 3.2 2.3 4.9 5.9 5.8 9.5z"/><path style="fill:#fff59d" d="M45.6 58.8c-.1-4.5 0-9.1 1.7-13.1 1.11-2.47 2.91-4.55 5.2-6 1.8-1.1 5.5-2.3 6.8.2.27.49.41 1.04.4 1.6 0 1.9-1 3.7-1.9 5.4-2.9 5-4.1 10.4-5.6 15.9-.53 2.32-1.48 4.52-2.8 6.5-.9 1.3-6.2 6-5 1.8.94-4.03 1.35-8.16 1.2-12.3z"/><path style="fill:#e2a610" d="M70.3 86.1c0-1-.6-1.6-1.8-2-2.55-.87-5.33-.76-7.8.3-2 1.1-.6 7 4.2 7s5.4-4.6 5.4-5.3z"/><path style="fill:#fff59d" d="M46.9 77.2c-5.2.9-8.9 2.9-10.5 4.4-1.3 1.3-1.3 2.2 1 1.2 3.83-1.43 7.83-2.37 11.9-2.8 8.2-.8 13.2-.8 14.1-.8 2 0 2.1-1.5-1.8-2-4.87-.7-9.83-.7-14.7 0zm16 13c.65.51 1.52.66 2.3.4.79-.27 1.2-1.14.93-1.92-.01-.03-.02-.05-.03-.08-.15-.3-.4-.55-.7-.7-.71-.53-1.48-.97-2.3-1.3-.32-.11-.66-.18-1-.2-.34 0-.65.19-.8.5-.5 1.2.6 2.6 1.6 3.3z"/><path style="opacity:.8;fill:#231f20;enable-background:new" d="M23.4 35.6 95 102.1l2-1.9-66.4-66.8"/><path style="fill:#f44336" d="M103.9 96.8 25.3 18.9 18.2 26l78.6 77.9"/><path style="fill:#ff8a80" d="M45 10.9c1.7-.4 4.2-1.6 5.9-1.1 1.09.3 1.75 1.4 1.5 2.5a2.61 2.61 0 0 1-2 1.5c-3.9.97-7.68 2.35-11.3 4.1A52.018 52.018 0 0 0 21 33.7c-1.9 2.7-3.4 5.5-5.8 7.8-.21.23-.49.37-.8.4a.736.736 0 0 1-.5-.1c-1.2-.5-1.4-1.1-1.2-2.3.18-1.01.52-1.99 1-2.9 1.01-1.76 2.11-3.46 3.3-5.1 1.89-2.91 4.11-5.59 6.6-8 6.8-6.3 15.6-11.1 21.4-12.6z"/><path style="fill:#c33" d="m32.4 25.3-2 2 71.1 71.1 1.8-2.2z"/></svg>