<svg viewBox="0 0 128 128" xmlns="http://www.w3.org/2000/svg"><radialGradient id="a" cx="-93.049" cy="31.863" r="62.124" gradientUnits="userSpaceOnUse"><stop stop-color="#6D4C41" offset="0"/><stop stop-color="#543930" offset="1"/></radialGradient><path d="M-49.51 109.13c7.32-9.2 7.98-22.04 7.98-36.24 0-27.97-23.95-50.65-53.49-50.65s-53.49 22.68-53.49 50.65c0 14.23.66 27.09 8.02 36.29.1.05.16.07.16.05-.11-4.87.78-11.51 2.06-17.98.46-2.3.96-4.57 1.49-6.74 2.92-.52 5.14-3 5.14-5.99 0-1.12-.33-2.15-.87-3.05.71.27 1.47.43 2.28.43 2.91 0 5.33-1.94 6.04-4.56a6.25 6.25 0 0 0 5.52 3.27c3.3 0 5.98-2.5 6.22-5.65h.03c.41 2.98 3.01 5.29 6.18 5.29 2.47 0 4.59-1.41 5.61-3.43.98 2.12 3.16 3.61 5.71 3.61 2.42 0 4.5-1.35 5.54-3.31a6.266 6.266 0 0 0 5.44 3.13c3.16 0 5.75-2.29 6.18-5.26h.03c.26 3.14 2.93 5.62 6.22 5.62a6.25 6.25 0 0 0 5.52-3.27c.71 2.62 3.13 4.56 6.04 4.56 1.1 0 2.11-.3 3-.78-.53.9-.86 1.93-.86 3.04 0 2.81 1.96 5.16 4.62 5.86 2.08 8.34 3.82 18.38 3.68 25.11z" fill="url(#a)"/><path d="M-141.69 99.62c-.05-1.23-.13-2.46-.25-3.69-.13-1.41.03-2.33-1.22-3.31-1.06-.83-2.49-1.11-3.79-.78-1.09.28-1.95.99-2.43 1.93-.51.94-.58 2.13-.18 3.26.45 1.13 1.26 1.97 2.28 2.35.5.19 1.03.27 1.56.24-.74.05-1.24 1.9-1.24 2.45 0 .95.47 1.92 1.19 2.52.66.55 1.47.89 2.22 1.31s1.49.96 1.83 1.75c-.4-.9-.06-2.61.02-3.56.13-1.48.06-3 .01-4.47zm94.14 0c.05-1.23.13-2.46.25-3.69.13-1.41-.03-2.33 1.22-3.31 1.06-.83 2.49-1.11 3.79-.78 1.09.28 1.95.99 2.43 1.93.51.94.58 2.13.18 3.26-.45 1.13-1.26 1.97-2.28 2.35-.5.19-1.03.27-1.56.24.74.05 1.24 1.9 1.24 2.45 0 .95-.47 1.92-1.19 2.52-.66.55-1.47.89-2.22 1.31s-3.47 2.45-3.82 3.24c.4-.9 1.01-5.92.92-6.88-.12-1.48.98-1.17 1.04-2.64z"/><path d="M-147.34 92.36c2.64-.48 4.45-2.74 4.21-5.14-.2-1.96-1.72-3.58-3.72-4.06 2.12-.75 3.49-2.77 3.22-4.95-.3-2.51-2.66-4.39-5.32-4.14s-4.62 2.58-4.3 5.24c.24 2 1.7 3.54 3.53 4-1.93.71-3.27 2.62-3.05 4.85.27 2.78 2.8 4.68 5.43 4.2z"/><path d="M-148.5 74.05c1.34 0 2.54-.55 3.43-1.36.92-.79 1.52-1.82 1.58-2.98.04-.58-.1-1.15-.28-1.69-.16-.53-.44-1.03-.81-1.48-.46-.56-1.08-1.03-1.79-1.38.95-.11 1.81-.47 2.48-.98.23-.17.43-.36.62-.57.2-.2.4-.42.56-.65.32-.46.55-.99.64-1.57.26-2.29-1.19-4.72-3.79-5.47a4.705 4.705 0 0 0-3.72.55c-1.05.7-1.79 1.9-2.05 3.3-.12.7-.11 1.39.04 2.02.2.64.51 1.22.91 1.71.41.5.91.9 1.48 1.18-.78.11-1.53.39-2.16.88-.51.39-.94.89-1.28 1.47-.32.58-.46 1.25-.51 1.97-.08 1.43.4 2.75 1.23 3.66.86.88 2.09 1.39 3.42 1.39z"/><path d="M-136.39 40.11c-1.1-.81-2.38-1.06-3.61-.77-1.23.28-2.4 1.07-3.17 2.26-.7 1.24-.8 2.66-.43 3.84.19.6.5 1.15.92 1.63-.78-.19-1.58-.21-2.36 0-1.17.37-2.25 1.27-2.89 2.55-.31.64-.53 1.29-.54 1.96 0 .67.13 1.32.37 1.91a4.536 4.536 0 0 0 2.68 2.57c1.25.46 2.58.41 3.67 0 .55-.2 1.04-.5 1.45-.88.42-.37.82-.8 1.08-1.32.53-1.04.53-2.23.12-3.38-.21-.69-.6-1.35-1.13-1.92.93.25 1.88.24 2.71.02 1.15-.28 2-1.02 2.67-1.97.63-.99.74-2.2.46-3.38-.28-1.21-.91-2.32-2-3.12z"/><path d="M-125.09 26.67c-1.26-.19-2.66.1-3.72 1.06-1.08.92-1.69 2.16-1.77 3.38-.04.62.07 1.25.3 1.85-1.7-1.13-4.05-1-5.81.52-2.02 2.06-1.97 5.17.06 6.91 2.04 1.74 4.98 1.8 6.59.14 1.44-1.22 1.75-3.41.94-5.33 1.81 1.28 4.25 1.41 5.76.05.89-.78 1.48-1.78 1.62-2.99.15-1.19-.09-2.5-.84-3.61a4.53 4.53 0 0 0-3.13-1.98z"/><path d="M-106.87 19.68c-1.12-.54-2.51-.64-3.85-.19-.66.24-1.26.55-1.72 1.03-.46.47-.82 1.02-1.05 1.61-.24.59-.35 1.22-.32 1.86-.47-.64-1.07-1.16-1.8-1.48a5.18 5.18 0 0 0-1.89-.44c-.65.02-1.31.18-1.96.47-1.29.59-2.23 1.61-2.64 2.77-.39 1.23-.27 2.56.37 3.73s1.67 1.98 2.76 2.36c1.13.45 2.33.5 3.41.01.54-.25 1-.61 1.37-1.05.4-.4.71-.88.94-1.42.28-.68.4-1.45.36-2.24 1.29 1.83 3.48 2.54 5.42 1.93 1.12-.39 1.96-1.31 2.5-2.37.54-1.04.74-2.34.4-3.64-.32-1.28-1.17-2.37-2.3-2.94z"/><path d="M-87.39 19.03c-.44-.46-.98-.85-1.59-1.12-.61-.24-1.29-.34-1.99-.31-1.41.06-2.65.66-3.46 1.58-.41.45-.72 1.01-.9 1.63-.63-1.94-2.55-3.29-4.86-3.17-.71.01-1.36.26-1.93.59s-1.07.76-1.45 1.26c-.77 1-1.1 2.27-.88 3.59.23 1.32.94 2.44 1.85 3.19.46.38.97.66 1.51.83s1.11.2 1.71.2c1.9-.08 3.5-1.61 4.06-3.61.09.3.21.59.34.86.28.57.64 1.07 1.07 1.49.85.83 1.93 1.31 3.12 1.24.3-.01.59-.08.87-.14.28-.05.55-.14.82-.25.52-.22 1.01-.56 1.43-.98.85-.84 1.45-2.03 1.54-3.36a4.6 4.6 0 0 0-1.26-3.52z"/><path d="M-71.63 22.08c-.66-.25-1.35-.28-2.01-.19-.65.09-1.27.3-1.81.62s-1.01.75-1.38 1.26c.03-2.08-1.32-4.08-3.59-4.57-1.38-.31-2.73-.16-3.78.6-1.05.73-1.77 1.85-1.98 3.17s.12 2.59.75 3.57c.64.95 1.55 1.81 2.7 2.07 1.14.3 2.35-.05 3.35-.57.63-.36 1.19-.89 1.64-1.53-.04.96.18 1.87.59 2.63.27.51.63.96 1.07 1.31.43.37.91.7 1.47.88 1.12.37 2.33.2 3.43-.35 1.08-.54 2.02-1.41 2.54-2.65 1.11-2.53-.29-5.3-2.99-6.25z"/><path d="M-52.91 36.13c-.14-1.25-.71-2.59-1.9-3.38-1.15-.83-2.51-1.13-3.72-.91-.61.1-1.19.35-1.71.72.7-1.92.01-4.16-1.89-5.5-1.18-.78-2.61-.91-3.82-.61-1.22.31-2.25 1.11-2.88 2.3a5.357 5.357 0 0 0-.49 3.67c.25 1.18.92 2.12 1.91 2.77 1.53 1.1 3.74.88 5.41-.35-.35.89-.46 1.84-.35 2.72.15 1.18.7 2.21 1.68 2.88 1.79 1.45 4.75 1.16 6.59-.79.89-1 1.29-2.25 1.17-3.52z"/><path d="M-50.86 53.71c.32.49.75.89 1.24 1.21.45.34.97.58 1.54.74 1.14.3 2.46.24 3.66-.36 1.2-.59 2.04-1.63 2.4-2.88.09-.31.15-.63.18-.96.01-.32-.02-.64-.07-.97-.12-.65-.36-1.3-.74-1.9-.76-1.21-1.86-2-3.16-2.17-.64-.1-1.28-.06-1.9.1.52-.6.88-1.3 1.03-2.08.23-1.23.03-2.68-.89-3.77-.88-1.12-2.11-1.79-3.34-1.93-1.24-.14-2.55.32-3.53 1.21-1 .91-1.5 2.06-1.68 3.25-.17 1.2.06 2.37.79 3.29.77.89 1.72 1.51 2.9 1.69.72.12 1.5.06 2.26-.15-.63.71-1.04 1.54-1.2 2.37-.22 1.15-.14 2.34.51 3.31z"/><path d="M-44.83 55.49c-1.25.48-2.19 1.4-2.73 2.43-.49 1.02-.75 2.2-.46 3.33.28 1.13 1.16 2 2.13 2.61.61.37 1.34.61 2.12.7-.86.43-1.56 1.05-2.04 1.77-.32.48-.54 1-.65 1.54-.08.54-.19 1.12-.08 1.69.19 1.15.9 2.13 1.89 2.84 1.01.7 2.23 1.16 3.57 1.02 1.34-.12 2.49-.74 3.22-1.77.74-1.01 1.09-2.39.88-3.8-.07-.71-.42-1.34-.79-1.88-.39-.54-.87-.98-1.4-1.31-.54-.33-1.14-.54-1.77-.62.71-.37 1.32-.89 1.76-1.56.73-1.08.85-2.44.49-3.83-.37-1.38-1.22-2.48-2.42-3.02a4.584 4.584 0 0 0-3.72-.14z"/><path d="M-40.27 82.68c1.99-.52 3.51-2.27 3.55-4.44.04-2.66-2.13-4.79-4.8-4.79-2.68 0-4.84 2.08-4.89 4.61-.04 2.04 1.32 3.81 3.27 4.49-2.18.53-3.73 2.41-3.72 4.53.02 2.41 2.06 4.53 4.73 4.74 2.67.2 4.99-1.98 4.96-4.75a4.668 4.668 0 0 0-3.1-4.39z"/><path d="M-204.48 109.18c-7.36-9.2-8.02-22.06-8.02-36.29 0-27.97 23.95-50.65 53.49-50.65s53.49 22.68 53.49 50.65c0 13.99-.64 26.65-7.64 35.81" fill="none" stroke="#3F2720" stroke-dasharray="0.9,7" stroke-linecap="round" stroke-miterlimit="10" stroke-width="8"/><radialGradient id="b" cx="-316.02" cy="27.737" r="66.138" gradientUnits="userSpaceOnUse"><stop stop-color="#6D4C41" offset="0"/><stop stop-color="#543930" offset="1"/></radialGradient><path d="M-263.42 82.68c1.99-.52 3.51-2.27 3.55-4.44.04-2.66-2.13-4.79-4.8-4.79v-.02c.15 0 .3.02.46 0 1.34-.12 2.49-.74 3.22-1.77.74-1.01 1.09-2.39.88-3.8-.07-.71-.42-1.34-.79-1.88-.39-.54-.87-.98-1.4-1.31-.54-.33-1.14-.54-1.77-.62.71-.37 1.32-.89 1.76-1.56.73-1.08.85-2.44.49-3.83-.37-1.38-1.22-2.48-2.42-3.02a4.608 4.608 0 0 0-3.66-.16c0-.01-.01-.02-.01-.03.12-.05.25-.08.37-.14 1.2-.59 2.04-1.63 2.4-2.88.09-.31.15-.63.18-.96.01-.32-.02-.64-.07-.97-.12-.65-.36-1.3-.74-1.9-.76-1.21-1.86-2-3.16-2.17-.64-.1-1.28-.06-1.9.1.52-.6.88-1.3 1.03-2.08.23-1.23.03-2.68-.89-3.77-.88-1.12-2.11-1.79-3.34-1.93s-2.53.32-3.51 1.2l-.02-.02c.11-.1.22-.18.33-.29.9-.98 1.3-2.24 1.18-3.5-.14-1.25-.71-2.59-1.9-3.38-1.15-.83-2.51-1.13-3.72-.91-.61.1-1.19.35-1.71.72.7-1.92.01-4.16-1.89-5.5-1.18-.78-2.61-.91-3.82-.61-1.21.31-2.24 1.11-2.87 2.28-.01 0-.01-.01-.02-.01.07-.13.15-.25.21-.39 1.11-2.52-.29-5.29-2.99-6.24-.66-.25-1.35-.28-2.01-.19-.65.09-1.27.3-1.81.62s-1.01.75-1.38 1.26c.03-2.08-1.32-4.08-3.59-4.57-1.38-.31-2.73-.16-3.78.6a4.733 4.733 0 0 0-1.97 3.13h-.03c.02-.14.06-.27.07-.41.09-1.33-.39-2.57-1.27-3.49-.44-.46-.98-.85-1.59-1.12-.61-.24-1.29-.34-1.99-.31-1.41.06-2.65.66-3.46 1.58-.41.45-.72 1.01-.9 1.63-.63-1.94-2.55-3.29-4.86-3.17-.71.01-1.36.26-1.93.59s-1.07.76-1.45 1.26c-.77.99-1.09 2.25-.88 3.56h-.03c-.02-.14-.03-.28-.07-.42-.34-1.28-1.2-2.37-2.32-2.94-1.12-.54-2.51-.64-3.85-.19-.66.24-1.26.55-1.72 1.03-.46.47-.82 1.02-1.05 1.61-.24.59-.35 1.22-.32 1.86-.47-.64-1.07-1.16-1.8-1.48a5.18 5.18 0 0 0-1.89-.44c-.65.02-1.31.18-1.96.47-1.29.59-2.23 1.61-2.64 2.77-.38 1.22-.27 2.54.36 3.7-.01 0-.02.01-.02.01-.07-.12-.12-.25-.2-.37a4.549 4.549 0 0 0-3.14-1.98c-1.26-.19-2.66.1-3.72 1.06-1.08.92-1.69 2.16-1.77 3.38-.04.62.07 1.25.3 1.85-1.7-1.13-4.05-1-5.81.52-2.01 2.06-1.97 5.17.06 6.9l-.02.02c-.11-.1-.21-.21-.34-.3-1.1-.81-2.38-1.06-3.61-.77-1.23.28-2.4 1.07-3.17 2.26-.7 1.24-.8 2.66-.43 3.84.19.6.5 1.15.92 1.63-.78-.19-1.58-.21-2.36 0-1.17.37-2.25 1.27-2.89 2.55-.31.64-.53 1.29-.54 1.96 0 .67.13 1.32.37 1.91.48 1.17 1.4 2.08 2.64 2.55 0 .01-.01.02-.01.03-.13-.05-.25-.11-.38-.15a4.705 4.705 0 0 0-3.72.55c-1.05.7-1.79 1.9-2.05 3.3-.12.7-.11 1.39.04 2.02.2.64.51 1.22.91 1.71.41.5.91.9 1.48 1.18-.78.11-1.53.39-2.16.88-.51.39-.94.89-1.28 1.47-.32.58-.46 1.25-.51 1.97-.08 1.43.4 2.75 1.23 3.66.86.89 2.09 1.39 3.42 1.39v.02c-.15 0-.3-.02-.46 0-2.66.25-4.62 2.58-4.3 5.24.24 2 1.7 3.54 3.53 4-1.93.71-3.27 2.62-3.05 4.85a4.67 4.67 0 0 0 4.59 4.25c-.5.35-.92.8-1.2 1.35-.51.94-.58 2.13-.18 3.26.45 1.13 1.26 1.97 2.28 2.35.5.19 1.03.27 1.56.24-.74.05-1.24 1.9-1.24 2.45 0 .95.47 1.92 1.19 2.52.66.55 1.47.89 2.22 1.31s1.49.96 1.83 1.75c-.04-.08-.06-.18-.08-.27.42.62.86 1.22 1.33 1.81.1.05.16.07.16.05-.11-4.87.78-11.51 2.06-17.98.46-2.3.96-4.57 1.49-6.74 2.92-.52 5.14-3 5.14-5.99 0-1.12-.33-2.15-.87-3.05.71.27 1.47.43 2.28.43 2.91 0 5.33-1.94 6.04-4.56a6.25 6.25 0 0 0 5.52 3.27c3.3 0 5.98-2.5 6.22-5.65h.03c.41 2.98 3.01 5.29 6.18 5.29 2.47 0 4.59-1.41 5.61-3.43.98 2.12 3.16 3.61 5.71 3.61 2.42 0 4.5-1.35 5.54-3.31a6.266 6.266 0 0 0 5.44 3.13c3.16 0 5.75-2.29 6.18-5.26h.03c.26 3.14 2.93 5.62 6.22 5.62a6.25 6.25 0 0 0 5.52-3.27c.71 2.62 3.13 4.56 6.04 4.56 1.1 0 2.11-.3 3-.78-.53.9-.86 1.93-.86 3.04 0 2.81 1.96 5.16 4.62 5.86 2.06 8.34 3.81 18.38 3.67 25.11.12-.15.22-.31.34-.46.83-.94 2.84-2.43 3.48-2.78.75-.42 1.56-.76 2.22-1.31.72-.6 1.19-1.57 1.19-2.52 0-.55-.5-2.4-1.24-2.45.53.04 1.06-.04 1.56-.24 1.01-.38 1.83-1.21 2.28-2.35.39-1.13.32-2.32-.18-3.26a3.749 3.749 0 0 0-2.43-1.93c-.1-.03-.2-.04-.3-.06 0-.02.01-.03.01-.05.15.02.3.06.46.08 2.67.2 4.99-1.98 4.96-4.75-.04-2.08-1.34-3.75-3.12-4.39z" fill="url(#b)"/><path d="M-258.65 77.84c.03-1.76-.53-3.42-1.6-4.78 1.13-1.59 1.63-3.68 1.34-5.74-.12-1.06-.54-2.09-1.29-3.16-.25-.35-.51-.66-.8-.95.69-1.51.82-3.32.35-5.17-.52-1.94-1.68-3.53-3.24-4.5.13-.46.22-.95.27-1.44l.01-.08v-.08c.02-.5-.02-1.02-.11-1.57a8.46 8.46 0 0 0-1.13-2.93c-.87-1.37-2.03-2.39-3.37-2.97.09-1.86-.47-3.64-1.61-5.01-1.17-1.47-2.79-2.48-4.54-2.85-.26-2.29-1.39-4.24-3.12-5.41-1.23-.87-2.62-1.37-4.06-1.46-.5-1.57-1.54-3-3.02-4.04l-.08-.06c-1.22-.8-2.66-1.22-4.17-1.22-.38 0-.76.03-1.14.08-.88-1.83-2.51-3.27-4.51-3.98-.73-.28-1.52-.41-2.33-.41-.35 0-.71.03-1.07.08-.39.05-.77.14-1.15.25a7.44 7.44 0 0 0-4.38-2.82c-.61-.14-1.26-.21-1.89-.21-1.23 0-2.39.28-3.41.83a7.911 7.911 0 0 0-2.39-1.67l-.14-.06c-.86-.34-1.82-.52-2.83-.52-.1 0-.2 0-.31.01-1.52.06-2.97.54-4.16 1.36a7.852 7.852 0 0 0-4.41-1.33c-.12 0-.25 0-.37.01-1.08.03-2.18.35-3.26.96-.65.38-1.24.83-1.74 1.35-.01 0-.02-.01-.03-.01a7.84 7.84 0 0 0-3.4-.78c-.9 0-1.79.15-2.65.44l-.06.02c-.75.27-1.86.75-2.81 1.74-.27.27-.51.56-.73.87-.61-.17-1.24-.28-1.88-.3h-.22c-1.04.04-2.06.28-3.03.72-1.72.79-3.11 2.13-3.88 3.76-.35-.05-.71-.07-1.06-.07-1.83 0-3.56.65-4.88 1.82a7.96 7.96 0 0 0-2.41 3.62c-1.68.12-3.31.8-4.64 1.95l-.09.08-.09.09c-1.3 1.33-2.1 3.05-2.27 4.83-.02 0-.03.01-.05.01-1.97.44-3.77 1.71-4.91 3.49l-.1.16a7.813 7.813 0 0 0-.99 4.26c-1.55.73-2.87 2.01-3.68 3.63-.56 1.14-.83 2.18-.84 3.21 0 .79.11 1.54.31 2.26l-.01.01-.04.03c-1.69 1.12-2.88 3-3.28 5.16-.19 1.09-.17 2.15.06 3.17l.02.1.03.1c.12.39.27.77.44 1.13-.45.46-.85.98-1.18 1.55l-.04.08c-.5.91-.78 1.93-.86 3.14-.1 1.86.41 3.66 1.41 5.08a7.448 7.448 0 0 0-1.5 5.49 7.43 7.43 0 0 0 1.57 3.79 7.514 7.514 0 0 0-1.11 4.73 7.573 7.573 0 0 0 3.02 5.36c-.28 1.26-.2 2.62.25 3.91l.04.12c.51 1.29 1.32 2.35 2.35 3.11-.03.25-.05.47-.05.67.01 1.81.84 3.58 2.23 4.74.72.6 1.48.99 2.08 1.3.18.09.36.18.53.28.43.24.67.5.67.5 1.18 2.14 2.61 2.84 2.61 2.84s-.07-4.34-.04-4.26c-.34-.76-1.05-1.29-1.78-1.7s-1.51-.73-2.15-1.27c-.7-.58-1.17-1.52-1.15-2.44.02-1.25 1.04-2.37.96-2.37-.43 0-.86-.08-1.27-.24-.98-.36-1.77-1.18-2.21-2.27-.38-1.1-.31-2.25.18-3.16.27-.53.67-.97 1.16-1.31-2.24-.01-4.21-1.72-4.45-4.12-.21-2.17 1.08-4.01 2.96-4.71a4.553 4.553 0 0 1-3.42-3.88c-.31-2.58 1.59-4.84 4.17-5.08.05 0-1.61-.19-2.87-1.37-.87-.82-1.27-2.16-1.19-3.55.05-.69.19-1.34.5-1.91.33-.56.75-1.05 1.24-1.42.61-.47 1.33-.75 2.09-.85-.55-.28-1.04-.66-1.44-1.15a4.83 4.83 0 0 1-.89-1.66c-.14-.61-.16-1.27-.04-1.96.25-1.36.97-2.52 1.99-3.2.73-.45 1.56-.7 2.41-.7.4 0 .8.05 1.19.16.13.04-1.47-.81-2.17-2.36-.25-.56-.36-1.2-.36-1.85.01-.65.22-1.28.52-1.9.63-1.24 1.66-2.11 2.8-2.47.37-.1.75-.15 1.12-.15.39 0 .78.05 1.16.15-.41-.46-.71-.99-.89-1.58-.35-1.15-.26-2.52.42-3.72.75-1.15 1.88-1.93 3.07-2.19.31-.07.63-.11.95-.11.88 0 1.76.28 2.55.86.12.09-2.2-3.52.29-6.42.96-.83 2.1-1.24 3.21-1.24.86 0 1.71.25 2.43.73-.23-.58-.33-1.19-.29-1.79.07-1.19.66-2.39 1.71-3.28.83-.75 1.88-1.08 2.9-1.08.24 0 .48.02.71.05 1.22.18 2.32.84 3.04 1.91.08.12-.5-2.06-.13-3.24.4-1.12 1.31-2.12 2.56-2.69.62-.28 1.27-.43 1.9-.45.64.03 1.27.17 1.83.43.7.32 1.29.82 1.74 1.44-.02-.62.08-1.23.31-1.8s.57-1.1 1.02-1.56c.45-.47 1.02-.76 1.67-1a5.18 5.18 0 0 1 1.67-.28c.73 0 1.44.16 2.06.46 1.09.55 1.92 1.6 2.25 2.85.04.14-.01-1.76.94-3.04.37-.49.85-.9 1.41-1.22s1.19-.56 1.87-.57c.09 0 .18-.01.27-.01 2.12 0 3.86 1.28 4.44 3.08.18-.6.47-1.14.87-1.58.79-.89 1.99-1.47 3.36-1.53h.21c.61 0 1.19.09 1.73.31.59.27 1.11.64 1.54 1.09.86.9 1.32 2.09 1.23 3.39-.01.14.86-1.93 1.87-2.63.7-.5 1.52-.73 2.4-.73.41 0 .84.05 1.26.15 2.21.47 3.52 2.42 3.48 4.43.36-.5.81-.91 1.34-1.22.52-.31 1.12-.52 1.75-.6.21-.03.43-.05.64-.05.43 0 .88.07 1.3.23 2.61.92 3.97 3.6 2.9 6.05-.06.14.81-1.07 2.6-1.82.36-.15.77-.14 1.18-.14.86 0 1.74.22 2.52.73 1.85 1.3 2.51 3.48 1.83 5.34.51-.35 1.07-.6 1.66-.69.25-.04.5-.07.76-.07.96 0 1.96.31 2.84.95 1.15.77 1.71 2.07 1.84 3.28.12 1.23-.27 2.45-1.14 3.4-.1.1 1.62-.88 2.68-.88.14 0 .28.01.42.02 1.19.13 2.38.79 3.23 1.87.89 1.06 1.09 2.45.86 3.65-.15.75-.5 1.43-1 2.01.37-.1.76-.15 1.15-.15.23 0 .46.02.69.05 1.26.16 2.32.94 3.06 2.11.37.59.61 1.22.72 1.85.05.32.08.63.07.94-.03.32-.09.63-.18.93a4.456 4.456 0 0 1-2.33 2.79c-.12.06.73-.13 1.26-.13.67 0 1.33.15 1.94.45 1.16.52 1.99 1.58 2.35 2.93.34 1.34.23 2.67-.48 3.71-.43.65-1.02 1.16-1.71 1.51.61.08 1.19.28 1.72.6.52.32.98.75 1.36 1.27.37.52.7 1.13.77 1.82.2 1.37-.14 2.7-.86 3.69-.7 1-3.21 1.73-3.25 1.73-.1 0 4.36.8 4.35 4.66-.01 2.11-1.51 3.81-3.44 4.31a4.5 4.5 0 0 1 3 4.25c.03 2.56-2.03 4.61-4.47 4.61-.11 0 1.32.45 1.86 1.89.37.97.56 2.06.18 3.16-.44 1.1-1.23 1.91-2.21 2.27-.41.16-.84.24-1.27.24-.08 0 1.67 2.69-.19 4.81-1 1.14-3.87 1.92-4.53 2.44l-.16 5.43s.64-1.27 1.49-2 2.86-2.17 3.04-2.26c.61-.31 1.37-.71 2.08-1.3 1.39-1.16 2.23-2.93 2.23-4.74 0-.2-.01-.42-.04-.67 1.02-.75 1.83-1.82 2.35-3.11l.04-.12c.56-1.62.54-3.34-.03-4.84a7.576 7.576 0 0 0 2.64-5.85 7.48 7.48 0 0 0-1.16-3.99 7.22 7.22 0 0 0 1.68-4.49z" fill="#3F2720"/><path d="M128 0h-4c-.55 0-1 .45-1 1s.45 1 1 1h4V0zm-12 0h-4c-.55 0-1 .45-1 1s.45 1 1 1h4c.55 0 1-.45 1-1s-.45-1-1-1zm-12 0h-4c-.55 0-1 .45-1 1s.45 1 1 1h4c.55 0 1-.45 1-1s-.45-1-1-1zM92 0h-4c-.55 0-1 .45-1 1s.45 1 1 1h4c.55 0 1-.45 1-1s-.45-1-1-1zM80 0h-4c-.55 0-1 .45-1 1s.45 1 1 1h4c.55 0 1-.45 1-1s-.45-1-1-1zM68 0h-4c-.55 0-1 .45-1 1s.45 1 1 1h4c.55 0 1-.45 1-1s-.45-1-1-1zM56 0h-4c-.55 0-1 .45-1 1s.45 1 1 1h4c.55 0 1-.45 1-1s-.45-1-1-1zM44 0h-4c-.55 0-1 .45-1 1s.45 1 1 1h4c.55 0 1-.45 1-1s-.45-1-1-1zM32 0h-4c-.55 0-1 .45-1 1s.45 1 1 1h4c.55 0 1-.45 1-1s-.45-1-1-1zM20 0h-4c-.55 0-1 .45-1 1s.45 1 1 1h4c.55 0 1-.45 1-1s-.45-1-1-1zM8 0H4c-.55 0-1 .45-1 1s.45 1 1 1h4c.55 0 1-.45 1-1s-.45-1-1-1zM1 3c-.55 0-1 .45-1 1v4c0 .55.45 1 1 1s1-.45 1-1V4c0-.55-.45-1-1-1zm0 12c-.55 0-1 .45-1 1v4c0 .55.45 1 1 1s1-.45 1-1v-4c0-.55-.45-1-1-1zm0 12c-.55 0-1 .45-1 1v4c0 .55.45 1 1 1s1-.45 1-1v-4c0-.55-.45-1-1-1zm0 12c-.55 0-1 .45-1 1v4c0 .55.45 1 1 1s1-.45 1-1v-4c0-.55-.45-1-1-1zm0 12c-.55 0-1 .45-1 1v4c0 .55.45 1 1 1s1-.45 1-1v-4c0-.55-.45-1-1-1zm0 12c-.55 0-1 .45-1 1v4c0 .55.45 1 1 1s1-.45 1-1v-4c0-.55-.45-1-1-1zm0 12c-.55 0-1 .45-1 1v4c0 .55.45 1 1 1s1-.45 1-1v-4c0-.55-.45-1-1-1zm0 12c-.55 0-1 .45-1 1v4c0 .55.45 1 1 1s1-.45 1-1v-4c0-.55-.45-1-1-1zm0 12c-.55 0-1 .45-1 1v4c0 .55.45 1 1 1s1-.45 1-1v-4c0-.55-.45-1-1-1zm0 12c-.55 0-1 .45-1 1v4c0 .55.45 1 1 1s1-.45 1-1v-4c0-.55-.45-1-1-1zm0 12c-.55 0-1 .45-1 1v4h2v-4c0-.55-.45-1-1-1zm11 3H8c-.55 0-1 .45-1 1s.45 1 1 1h4c.55 0 1-.45 1-1s-.45-1-1-1zm12 0h-4c-.55 0-1 .45-1 1s.45 1 1 1h4c.55 0 1-.45 1-1s-.45-1-1-1zm12 0h-4c-.55 0-1 .45-1 1s.45 1 1 1h4c.55 0 1-.45 1-1s-.45-1-1-1zm12 0h-4c-.55 0-1 .45-1 1s.45 1 1 1h4c.55 0 1-.45 1-1s-.45-1-1-1zm12 0h-4c-.55 0-1 .45-1 1s.45 1 1 1h4c.55 0 1-.45 1-1s-.45-1-1-1zm12 0h-4c-.55 0-1 .45-1 1s.45 1 1 1h4c.55 0 1-.45 1-1s-.45-1-1-1zm12 0h-4c-.55 0-1 .45-1 1s.45 1 1 1h4c.55 0 1-.45 1-1s-.45-1-1-1zm12 0h-4c-.55 0-1 .45-1 1s.45 1 1 1h4c.55 0 1-.45 1-1s-.45-1-1-1zm12 0h-4c-.55 0-1 .45-1 1s.45 1 1 1h4c.55 0 1-.45 1-1s-.45-1-1-1zm12 0h-4c-.55 0-1 .45-1 1s.45 1 1 1h4c.55 0 1-.45 1-1s-.45-1-1-1zm7-3c-.55 0-1 .45-1 1v4h2v-4c0-.55-.45-1-1-1zm0-12c-.55 0-1 .45-1 1v4c0 .55.45 1 1 1s1-.45 1-1v-4c0-.55-.45-1-1-1zm0-12c-.55 0-1 .45-1 1v4c0 .55.45 1 1 1s1-.45 1-1v-4c0-.55-.45-1-1-1zm0-12c-.55 0-1 .45-1 1v4c0 .55.45 1 1 1s1-.45 1-1v-4c0-.55-.45-1-1-1zm0-12c-.55 0-1 .45-1 1v4c0 .55.45 1 1 1s1-.45 1-1v-4c0-.55-.45-1-1-1zm0-12c-.55 0-1 .45-1 1v4c0 .55.45 1 1 1s1-.45 1-1v-4c0-.55-.45-1-1-1zm0-12c-.55 0-1 .45-1 1v4c0 .55.45 1 1 1s1-.45 1-1v-4c0-.55-.45-1-1-1zm0-12c-.55 0-1 .45-1 1v4c0 .55.45 1 1 1s1-.45 1-1v-4c0-.55-.45-1-1-1zm0-12c-.55 0-1 .45-1 1v4c0 .55.45 1 1 1s1-.45 1-1v-4c0-.55-.45-1-1-1zm0-12c-.55 0-1 .45-1 1v4c0 .55.45 1 1 1s1-.45 1-1v-4c0-.55-.45-1-1-1zm0-12c-.55 0-1 .45-1 1v4c0 .55.45 1 1 1s1-.45 1-1V4c0-.55-.45-1-1-1z"/><radialGradient id="c" cx="67.121" cy="28.86" r="65.349" gradientUnits="userSpaceOnUse"><stop stop-color="#6D4C41" offset="0"/><stop stop-color="#543930" offset="1"/></radialGradient><path d="M122.77 80.75c.02-.35.03-.7.04-1.06.09-2.4-1.81-4.41-4.29-4.62v-.09c2.46-.36 4.23-2.49 3.97-4.89l-.12-1.06c-.28-2.22-2.21-3.87-4.48-3.95-.01-.09-.03-.17-.05-.26 2.07-.91 3.21-3.12 2.58-5.28-.1-.35-.21-.69-.31-1.04-.65-2.08-2.73-3.37-4.9-3.2-.04-.11-.09-.22-.14-.33 1.73-1.28 2.34-3.59 1.33-5.55-.17-.32-.33-.64-.51-.96-1.04-1.92-3.32-2.83-5.42-2.28-.07-.11-.15-.22-.22-.33a4.362 4.362 0 0 0 .16-5.66c-.23-.29-.47-.58-.7-.86-1.42-1.69-3.85-2.14-5.79-1.2-.1-.1-.19-.19-.29-.28 1.04-1.83.65-4.16-1.07-5.57-.29-.24-.59-.47-.88-.71-1.73-1.35-4.15-1.32-5.84-.08-.13-.09-.27-.18-.4-.27.57-1.97-.33-4.13-2.29-5.14-.33-.17-.66-.34-1-.51-1.92-.95-4.2-.5-5.6.94-.2-.08-.39-.17-.59-.25.04-1.96-1.25-3.78-3.3-4.38-.37-.11-.73-.21-1.1-.31-2.01-.55-4.06.26-5.16 1.82l-.72-.15c-.37-2.06-1.95-4.05-4.05-4.26-.37-.04-.75-.07-1.13-.1-2.18-.18-4.35 1.4-5.14 3.37-.1 0-.2-.01-.31-.01h-.02c-.71-2.06-2.84-3.47-4.97-3.3-.38.03-.75.07-1.13.1-2.1.21-4.03 2.16-4.55 4.2-.26.05-.51.11-.76.16-1.1-1.58-3.16-2.39-5.18-1.84-.37.1-.74.2-1.1.31-2.07.61-3.36 2.45-3.3 4.42-.19.08-.37.16-.56.24-1.4-1.47-3.7-1.93-5.63-.97-.33.17-.67.34-1 .51-1.98 1.02-2.88 3.21-2.28 5.2-.12.08-.24.16-.37.25-1.7-1.28-4.15-1.32-5.89.05-.3.23-.59.47-.88.71-1.74 1.42-2.12 3.79-1.04 5.62l-.26.26c-1.95-.98-4.42-.53-5.85 1.17-.24.28-.47.57-.7.86-1.39 1.74-1.25 4.14.21 5.72l-.2.29c-2.12-.59-4.44.31-5.49 2.26l-.51.96c-1.02 1.97-.38 4.31 1.41 5.58-.04.1-.09.2-.13.3-2.21-.21-4.33 1.08-4.99 3.19-.11.34-.21.69-.31 1.04-.64 2.19.54 4.43 2.66 5.32-.01.08-.03.15-.04.23-2.3.05-4.29 1.7-4.57 3.95l-.12 1.06c-.26 2.43 1.55 4.59 4.06 4.91v.07c-2.52.17-4.47 2.2-4.38 4.63.01.35.03.7.04 1.06.12 2.4 2.2 4.24 4.66 4.27 0 .03 0 .06.01.09-2.42.48-4.06 2.66-3.71 5.03.05.34.84 4.33 4.52 4.81-2.36 1.06-2.44 3.84-1.28 5.93 1.01 1.81 6.27 5.97 6.96 6.7v-.02c.38.55.77 1.09 1.2 1.62.1.05.16.07.16.05-.11-4.87.78-11.51 2.06-17.98.46-2.3.96-4.57 1.49-6.74 2.92-.52 5.14-3 5.14-5.99 0-1.12-.33-2.15-.87-3.05.71.27 1.47.43 2.28.43 2.91 0 5.33-1.94 6.04-4.56a6.25 6.25 0 0 0 5.52 3.27c3.3 0 5.98-2.5 6.22-5.65h.03c.41 2.98 3.01 5.29 6.18 5.29 2.47 0 4.59-1.41 5.61-3.43.98 2.12 3.16 3.61 5.71 3.61 2.42 0 4.5-1.35 5.54-3.31a6.266 6.266 0 0 0 5.44 3.13c3.16 0 5.75-2.29 6.18-5.26h.03c.26 3.14 2.93 5.62 6.22 5.62a6.25 6.25 0 0 0 5.52-3.27c.71 2.62 3.13 4.56 6.04 4.56 1.1 0 2.11-.3 3-.78-.53.9-.86 1.93-.86 3.04 0 2.81 1.96 5.16 4.62 5.86 2.06 8.34 3.81 18.38 3.67 25.11.54-.68 1.03-1.39 1.51-2.11 1.59-1.39 5.49-4.61 6.35-6.14 1.16-2.07 1.08-4.82-1.23-5.9 2.21-.07 4.13-1.63 4.48-3.8.06-.34.11-.69.16-1.04.35-2.34-1.25-4.49-3.62-5.01 0-.04 0-.08.01-.12 2.41-.08 4.44-1.9 4.56-4.27z" fill="url(#c)"/><path d="M203.84 105.11c-1.23 1.03-2.75 1.44-4.33 1.11-1.54-.33-3.06-1.45-3.93-3.12-.45-.83-.64-1.72-.71-2.56-.04-.84.12-1.66.41-2.37.59-1.44 1.82-2.5 3.34-2.97 1.54-.48 3.09-.31 4.39.16.66.23 1.22.57 1.71.96.51.38.88.87 1.17 1.4.57 1.08.6 2.33.26 3.65-.33 1.3-1.09 2.71-2.31 3.74z"/><path d="M199.3 95.52c-1.47.64-3.06.64-4.46-.01-1.36-.65-2.52-1.95-3-3.63s-.2-3.36.61-4.64c.79-1.29 2.13-2.2 3.7-2.49a6.2 6.2 0 0 1 4.35.82c1.25.74 2.16 1.86 2.55 3.19.38 1.33.15 2.65-.5 3.85-.7 1.2-1.76 2.27-3.25 2.91z"/><path d="M196.69 84.67c-3.2.33-6.04-2.15-6.15-5.43-.11-3.26 2.51-5.82 5.72-5.83 3.22-.01 5.81 2.48 5.9 5.44.1 2.95-2.28 5.49-5.47 5.82z"/><path d="M196.81 73.92c-1.6.16-3.11-.33-4.26-1.26-1.15-.91-1.82-2.51-1.88-4.27-.12-1.78.79-3.37 1.89-4.41 1.15-1.05 2.61-1.54 4.23-1.32 1.58.22 2.94 1.04 3.94 2.09 1 1.06 1.54 2.31 1.52 3.65.09 1.35-.49 2.55-1.5 3.54-.98 1.04-2.33 1.84-3.94 1.98z"/><path d="M197.34 62.76c-1.57-.36-2.81-1.31-3.52-2.67-.36-.68-.58-1.45-.65-2.27-.03-.41-.05-.84.02-1.25.08-.41.2-.83.37-1.24.33-.82.8-1.54 1.35-2.13s1.2-1.03 1.95-1.29c1.47-.53 3.06-.42 4.47.34s2.41 1.98 2.93 3.25c.23.63.42 1.3.48 1.97.05.67-.04 1.32-.29 1.94-.13.31-.29.6-.48.87-.18.27-.35.54-.58.78-.44.48-.99.87-1.63 1.18-1.27.62-2.86.88-4.42.52z"/><path d="M201.58 52.97c-1.49-.6-2.6-1.73-3.13-3.17-.26-.71-.41-1.52-.34-2.32.09-.78.34-1.59.77-2.36.42-.77.97-1.43 1.6-1.93.68-.47 1.42-.8 2.17-.97 1.51-.35 3.07-.05 4.35.9 1.29.95 2.1 2.33 2.45 3.72.17.7.22 1.39.14 2.05-.04.33-.12.65-.23.96-.08.33-.2.65-.36.95-.31.61-.75 1.1-1.28 1.48-.54.38-1.18.66-1.8.88-1.28.42-2.85.41-4.34-.19z"/><path d="M207.43 43.47c-1.21-1.06-1.9-2.54-1.86-4.04.03-1.49.66-3.13 1.96-4.29 1.34-1.11 2.98-1.62 4.46-1.47 1.52.18 2.92 1.03 3.83 2.33.93 1.32 1.24 2.83 1.13 4.22-.09 1.44-.62 2.73-1.68 3.6-1.01.91-2.3 1.36-3.74 1.28-1.44-.1-2.9-.57-4.1-1.63z"/><path d="M215.72 36.73c-1.06-1.21-1.54-2.71-1.37-4.21.08-.75.33-1.5.72-2.2.38-.72.96-1.32 1.68-1.79 1.44-.95 3.09-1.36 4.61-.98 1.52.37 2.8 1.32 3.57 2.73s.91 2.99.61 4.38c-.15.7-.43 1.31-.78 1.91s-.8 1.12-1.36 1.52c-.57.4-1.19.64-1.86.74-.64.14-1.31.17-1.99.06a6.618 6.618 0 0 1-3.83-2.16z"/><path d="M225.17 30.77c-.64-1.47-.62-3.07 0-4.49s1.91-2.47 3.55-3.03c1.63-.6 3.35-.24 4.64.52 1.31.78 2.22 2.06 2.54 3.63.31 1.57 0 3.14-.68 4.38-.68 1.26-1.75 2.08-3.05 2.58-1.3.46-2.73.17-3.98-.43a6.34 6.34 0 0 1-3.02-3.16z"/><path d="M235.51 28.06c-.47-1.53-.31-3.12.44-4.47.76-1.27 2.11-2.25 3.79-2.63.42-.1.84-.15 1.25-.16.41 0 .82.07 1.21.16.78.19 1.51.52 2.13.97a5.27 5.27 0 0 1 2.2 3.84c.15 1.59-.34 3.12-1.16 4.31-.83 1.2-1.99 2.01-3.35 2.25-1.36.35-2.7.02-3.88-.78-.59-.41-1.12-.9-1.57-1.46-.46-.59-.82-1.27-1.06-2.03z"/><path d="M246.55 26.31c-.01-1.62.63-3.07 1.75-4.06 1.11-1 2.72-1.6 4.43-1.48 1.71.23 3.17 1.09 4.08 2.28.92 1.16 1.25 2.78.94 4.35-.32 1.58-1.19 2.82-2.31 3.76-1.11.91-2.44 1.39-3.81 1.19-1.39-.09-2.6-.77-3.53-1.88-.91-1.11-1.54-2.57-1.55-4.16z"/><path d="M257.15 27.82c.15-1.6.91-2.98 2.11-3.87a5.813 5.813 0 0 1 4.53-1.04c1.68.39 3.07 1.39 3.88 2.66.81 1.29.98 2.95.51 4.46a6.224 6.224 0 0 1-2.72 3.45c-1.21.75-2.63 1.15-3.97.85-1.33-.35-2.49-1.04-3.26-2.22-.79-1.16-1.23-2.68-1.08-4.29z"/><path d="M267.99 30.54c.62-1.48 1.77-2.56 3.22-3.08.72-.25 1.52-.39 2.31-.32.78.09 1.58.35 2.34.76.76.42 1.4.96 1.9 1.57.48.64.79 1.39.96 2.14.34 1.5.03 3.05-.9 4.36s-2.28 2.15-3.63 2.51c-.68.18-1.35.21-2.02.15-.68-.04-1.34-.21-1.94-.55-.6-.33-1.1-.8-1.5-1.35-.41-.54-.74-1.12-.95-1.79-.41-1.33-.41-2.91.21-4.4z"/><path d="M277.09 36.15c.79-1.4 2.05-2.37 3.54-2.74.76-.2 1.53-.21 2.29-.03.77.17 1.54.5 2.26.99 1.47.94 2.25 2.55 2.44 4.06.19 1.53-.27 3.03-1.35 4.21s-2.55 1.84-3.98 2.04c-1.45.21-2.79-.11-3.9-.9-1.16-.75-1.81-1.95-2.02-3.36-.25-1.34-.07-2.87.72-4.27z"/><path d="M285.89 43.03c1.19-1.08 2.68-1.56 4.19-1.38.75.09 1.51.34 2.22.74.35.2.7.44 1.02.71.3.29.57.63.82.99.96 1.47 1.36 3.12.98 4.63-.38 1.52-1.36 2.78-2.78 3.53s-2.99.9-4.33.61-2.64-.91-3.36-2.05c-.19-.28-.33-.58-.45-.89-.14-.29-.25-.6-.33-.92-.15-.64-.16-1.33-.06-2.03.2-1.4.89-2.86 2.08-3.94z"/><path d="M291.6 52.06c1.33-.9 2.88-1.19 4.37-.83.74.18 1.47.52 2.12 1.01.6.52 1.12 1.18 1.52 1.97s.63 1.62.71 2.42c.03.82-.13 1.64-.42 2.36-.57 1.46-1.7 2.57-3.21 3.09s-3.12.4-4.45-.1c-.67-.25-1.27-.6-1.76-1.03-.47-.44-.92-.95-1.26-1.54-.32-.59-.48-1.23-.5-1.88-.01-.33.02-.66.08-1 .03-.33.09-.65.19-.97a6.59 6.59 0 0 1 2.61-3.5z"/><path d="M296.18 62.22c1.54-.38 3.2-.12 4.38.79 1.21.89 2.16 2.38 2.39 4.14.11 1.77-.45 3.42-1.45 4.54-1 1.11-2.5 1.68-4.09 1.7-1.62.01-3.03-.68-4.13-1.6-1.11-.91-1.83-2.07-1.89-3.41-.18-1.32.23-2.6 1.12-3.73.91-1.12 2.09-2.04 3.67-2.43z"/><path d="M296.86 72.88c3.19-.29 6.05 1.99 6.27 5.23.23 3.25-2.33 6.03-5.55 6.03-1.61.01-3.06-.6-4.15-1.56-1.08-.96-1.8-2.26-1.9-3.74-.2-2.96 2.13-5.67 5.33-5.96z"/><path d="M297.03 84.11c1.6.13 2.99.89 3.94 2.07.92 1.18 1.39 2.79 1.1 4.5s-1.28 3.14-2.59 3.96c-1.29.83-2.91 1.02-4.43.54-1.54-.49-2.72-1.48-3.52-2.63-.78-1.15-1.15-2.47-.92-3.83s1.02-2.55 2.18-3.39a6.266 6.266 0 0 1 4.24-1.22z"/><path d="M294.67 94.54c1.58.31 2.88 1.2 3.67 2.53.76 1.32.96 3.09.31 4.84-.33.87-.86 1.64-1.44 2.26-.64.61-1.36 1.07-2.1 1.35-1.55.54-3.15.35-4.48-.53-1.34-.88-2.22-2.23-2.69-3.52-.22-.64-.37-1.3-.41-1.94a4 4 0 0 1 .05-.92c.03-.31.1-.61.21-.9.44-1.14 1.34-2.02 2.55-2.62 1.25-.55 2.74-.87 4.33-.55z"/><path d="M124.77 80.85c.32-2.19-.48-4.28-1.51-5.47a.797.797 0 0 1-.03-1c.95-1.26 1.34-2.84 1.26-4.52-.11-2.46-1.17-4.22-2.4-5.24a.798.798 0 0 1-.19-.97c.73-1.4 1.14-3.5.65-5.12-.71-2.33-2.13-3.56-3.56-4.37a.782.782 0 0 1-.36-.91c.47-1.54.35-3.75-.37-5.3-1.08-2.33-2.77-3.06-4.36-3.59a.784.784 0 0 1-.53-.82c.16-1.61-.29-3.72-1.27-5.13-1.33-1.92-3.55-2.52-5.23-2.72a.786.786 0 0 1-.68-.69c-.18-1.62-.82-3.34-2.01-4.63-1.5-1.62-4.37-1.95-6.06-1.81-.36.03-.7-.19-.81-.53-.51-1.56-1.53-3.17-3.05-4.12-2.33-1.46-4.6-1.05-6.24-.55-.35.1-.72-.06-.91-.37-.83-1.43-1.31-2.53-3.56-3.41-3.11-1.21-4.76-.21-6.21.48-.35.17-.77.05-1-.26-1.03-1.47-2.23-2.6-4.13-3.01-3.71-.79-5.05.57-6.46 1.7-.29.23-.69.2-1 0-1.68-1.13-3.12-2.24-5.96-1.94-3.47.37-3.73 1.8-4.96 3.38a.79.79 0 0 1-.98.22c-1.48-.77-3.73-1.65-6.29-.78-2.23.76-2.85 2.19-3.67 3.61-.18.31-.56.47-.91.37-1.63-.49-4.24-.41-5.78.47-1.96 1.12-2.97 2.64-3.49 4.2-.11.34-.45.56-.81.53-1.69-.15-3.86-.03-5.24 1.1-2.08 1.73-2.66 3.73-2.84 5.35-.04.36-.33.65-.68.69-1.68.2-3.9.86-4.93 2.27-1.29 1.75-1.73 3.98-1.57 5.59.04.36-.19.71-.53.82-1.58.53-3.15 1.05-4.19 3.09-.9 1.76-1.01 4.26-.54 5.79.11.35-.05.74-.36.92-1.43.81-2.72 1.79-3.43 3.71-.73 1.98-.19 4.38.55 5.79.17.33.09.74-.2.97-1.24 1.03-2.1 2.49-2.3 4.14-.05.36-.09.73-.13 1.1-.18 1.68.3 3.26 1.25 4.51.22.29.21.71-.03.99a6.319 6.319 0 0 0-1.54 4.38c.01.36.03.73.05 1.09.08 1.62.78 3.08 1.86 4.17.26.27.31.69.1 1a6.31 6.31 0 0 0-.99 4.43c.21 1.39 1.1 3.72 3.05 5.2-.1.21-.19.43-.27.66-.56 1.69-.3 3.77.69 5.55.83 1.49 3.18 3.57 5.93 5.94.29.25 1.73 1.64 2.87 2.74.53.52 1.42.12 1.4-.62l-.07-2.85c0-.13-.03-.25-.09-.37-1.73-3.51-6.09-3.51-7.04-7.7-.32-1.4.34-2.64.94-3.43.33-.44.15-1.04-.35-1.27-3.28-1.45-3.11-4.38-3.11-4.46-.03-1.7 1.53-3.25 2.64-4.13.46-.36.39-1.07-.12-1.36-1.3-.75-3.22-2.22-3.3-4.35-.08-1.99 1.51-3.41 2.75-4.2a.825.825 0 0 0-.04-1.42c-1.24-.72-2.78-2.08-2.67-4.38.1-2.11 2.14-3.27 3.69-3.84.59-.22.72-1.01.22-1.4-1.1-.89-2.29-2.45-1.68-4.85.63-2.47 2.73-3.29 4.3-3.55.63-.11.93-.83.53-1.33-.89-1.11-1.77-2.9-.83-5.13 1.02-2.41 3-2.58 4.33-2.38.58.09 1.05-.44.92-1.01-.35-1.55-.58-4.09.93-5.9 1.41-1.69 3.76-1.42 5.25-1.01a.817.817 0 0 0 1.02-.93c-.28-1.55-.35-3.98 1.48-5.33 1.55-1.15 3.77-.57 5.1-.05.52.21 1.1-.15 1.13-.71.1-1.57.55-4.17 2.44-4.96 1.88-.78 4.02.34 5.19 1.13.44.3 1.05.11 1.23-.4.54-1.48 1.03-3.85 3.73-4.67 2.61-.8 4.29.67 5.47 1.74.44.39 1.12.22 1.33-.33.55-1.48 1.51-3.57 3.93-4.06 2.49-.51 4.34 1.51 5.24 2.81.32.45.98.47 1.32.04.97-1.25 2.9-3.19 5.26-2.94 2.42.26 3.76 2.77 4.35 4.24.2.51.83.7 1.27.37 1.22-.92 3.47-2.37 5.52-1.76 1.92.57 2.92 2.72 3.37 4.15.18.56.84.76 1.31.4 1.18-.91 3.32-2.03 5.72-.8 2.02 1.03 2.34 3.33 2.32 4.79-.01.58.55.99 1.1.8 1.42-.48 3.8-.94 5.39.5 1.59 1.43 1.47 3.76 1.2 5.22-.11.58.41 1.06.99.95 1.52-.3 4-.38 5.55 1.66 1.35 1.79.77 4 .22 5.29-.22.52.11 1.09.67 1.15 1.43.16 3.72.7 4.51 2.46.76 1.69-.18 3.68-.95 4.9-.32.5-.01 1.16.58 1.26 1.52.25 3.79.96 4.23 2.95.44 2.02-1.07 4.12-2.13 5.3-.4.44-.22 1.13.33 1.33 1.48.54 3.72 1.68 3.9 3.71s-1.5 3.72-2.7 4.66c-.47.37-.39 1.1.14 1.38 1.42.75 3.51 2.21 3.52 4.29.01 2.09-1.97 3.73-3.32 4.6a.822.822 0 0 0-.03 1.37c1.05.76 2.37 2.18 2.06 4.35-.31 2.19-1.72 3.15-3.67 3.49-.57.1-.84.76-.54 1.25.69 1.12 1.46 2.92.8 4.71-.53 1.42-4.2 4.15-5.89 5.56-.18.15-.29.38-.29.62l-.06 6.54c-.01.76.92 1.13 1.43.58 2.1-2.25 6-6.51 8.38-9.67 2.04-2.7 1.18-5.79.7-7.05-.13-.33-.03-.7.24-.92 1.31-1.02 2.36-2.68 2.61-5.12.17-1.61-.17-3.16-1.01-4.44-.2-.31-.15-.72.11-.98 1.11-1.11 1.65-2.58 1.89-4.18z" fill="#3F2720"/><path d="M442.25 80.85c.02-.36.03-.73.05-1.08.07-1.9-.71-3.64-2.02-4.87 1.23-1.32 1.9-3.12 1.69-5.03-.04-.37-.08-.73-.13-1.09a6.455 6.455 0 0 0-2.81-4.55c1-1.51 1.34-3.41.8-5.26-.1-.36-.21-.72-.32-1.08-.57-1.82-1.93-3.26-3.63-4.02.71-1.69.69-3.65-.2-5.37-.17-.33-.35-.67-.53-1-.92-1.7-2.56-2.88-4.41-3.31a6.33 6.33 0 0 0-1.28-5.26c-.24-.3-.49-.6-.73-.89-1.26-1.5-3.13-2.34-5.04-2.39a6.439 6.439 0 0 0-2.37-4.93c-.3-.25-.61-.5-.92-.74a6.861 6.861 0 0 0-5.45-1.33c-.4-1.82-1.6-3.43-3.4-4.36-.34-.18-.68-.35-1.02-.52-1.78-.89-3.85-.92-5.64-.19a6.61 6.61 0 0 0-4.18-3.62c-.38-.11-.76-.22-1.14-.32-1.85-.5-3.79-.2-5.36.77-1.01-1.75-2.71-3.19-4.89-3.41-.39-.04-.77-.08-1.16-.11-1.94-.16-3.95.66-5.42 2.06-1.4-1.38-3.36-2.16-5.36-1.99-.39.03-.78.07-1.16.11-2.07.21-4.07 1.57-5.29 3.44a6.818 6.818 0 0 0-5.51-.87c-.38.1-.77.21-1.15.32a6.614 6.614 0 0 0-4.18 3.62c-1.78-.72-3.85-.69-5.64.2-.34.17-.68.34-1.03.52a6.541 6.541 0 0 0-3.38 4.36c-1.89-.35-3.88.09-5.46 1.33-.31.24-.62.49-.92.74a6.45 6.45 0 0 0-2.38 4.93c-1.91.05-3.77.89-5.04 2.39-.25.29-.49.59-.73.89-1.23 1.54-1.66 3.46-1.29 5.26-1.84.43-3.48 1.6-4.4 3.31-.18.33-.35.66-.52.99-.9 1.74-.92 3.69-.21 5.38-1.71.76-3.06 2.19-3.63 4.03-.11.35-.22.71-.32 1.07-.54 1.84-.19 3.75.82 5.27-1.53 1.03-2.6 2.66-2.84 4.54-.05.36-.09.73-.13 1.1-.21 1.91.45 3.71 1.68 5.02a6.34 6.34 0 0 0-2 4.87c.01.36.03.73.05 1.09.09 1.85.99 3.5 2.36 4.63-1.11 1.36-1.66 3.13-1.39 4.97.21 1.39 1.1 3.72 3.05 5.2-.1.21-.19.43-.27.66-.56 1.69-.3 3.77.69 5.55.83 1.49 3.18 3.57 5.93 5.94.5.43 4.32 4.14 4.32 4.14l-.12-5.06c-1.67-3.69-6.15-3.61-7.12-7.88-.54-2.36 1.73-4.29 1.73-4.29-4.46-1.21-4.25-4.78-4.25-4.86-.04-2.64 3.72-4.9 3.72-4.9s-4.39-1.69-4.51-4.94 4.19-4.97 4.19-4.97-4.33-1.24-4.14-5.03c.17-3.42 5.42-4.33 5.42-4.33s-4.22-1.68-3.18-5.76 6.1-3.66 6.1-3.66-3.72-2.54-2.11-6.35 5.65-2.02 5.65-2.02-1.79-4.5.53-7.27c2.19-2.62 6.64-.52 6.64-.52s-1.71-4.67 1.12-6.76c2.34-1.73 6.21.46 6.21.46s-.31-5.04 2.46-6.18 6.08 1.81 6.08 1.81 1.23-4.82 4.07-5.74 6.14 2.91 6.14 2.91.97-4.81 4.59-5.55 5.87 3.84 5.87 3.84 2.51-4.3 5.96-3.93 4.71 5.31 4.71 5.31c.14.03 3.48-3.33 6.43-2.46 2.95.88 3.7 5.45 3.7 5.45s3.03-3.57 6.7-1.7c3.07 1.57 2.21 6.08 2.21 6.08s4.19-2.17 6.6.01c2.44 2.2.85 6.54.85 6.54s4.52-1.83 6.88 1.29c2.05 2.7-.33 6.37-.33 6.37s4.54-.12 5.73 2.53c1.19 2.64-1.77 6.02-1.77 6.02s4.96.04 5.62 3.08-3.08 6.25-3.08 6.25 4.92 1.05 5.18 4.09c.27 3.12-3.85 5.45-3.85 5.45s4.79 1.72 4.81 4.88-4.52 5.28-4.52 5.28 3.73 1.55 3.23 5.04c-.38 2.66-2.38 3.51-5.03 3.63 0 0 2.69 2.94 1.61 5.82-.56 1.5-4.66 4.49-6.18 5.81l-.08 9.03s6.45-6.71 9.84-11.21c2.58-3.43.51-7.48.45-7.62 1.53-.98 2.81-2.72 3.1-5.47.19-1.83-.28-3.61-1.4-4.97 1.38-1.16 2.29-2.81 2.38-4.66z" fill="#FF623E"/></svg>