<svg xmlns="http://www.w3.org/2000/svg" viewBox="0 0 128 128" style="enable-background:new 0 0 128 128" xml:space="preserve"><path style="fill:#ffca28" d="M64.85 111.68c9.18-1.14 27.36-3.73 30.71-4.6 5.2-1.34 7.88-3.36 7.95-6.93.07-4.16-2.97-5.49-7.67-5.2l-27.29 2.31c.19-1.14.62-1.09.8-2.36.6.09 1.24.07 1.83-.01L107.59 92c6.16-.97 8.48-3.32 7.66-7.8-.56-3.06-4.02-4.68-9-4.78l-35.63.71c.05-.81.1-1.62.14-2.43 1.99.31 40.81.05 46.34-.62 5.05-.61 6.91-2.9 6.91-5.73 0-3.76-2-6.54-8.17-7.1-7.26-.66-43.21-1.8-43.23-1.45-.67-.1-1.4-.12-2.07 0-.02-.91-.04-1.79-.07-2.65l34.37 1.41c6.54.13 9.38-1.99 9.68-5.34.33-3.68-1.35-5.88-7.44-6.93-14.63-2.52-40.88-4.53-53.93-5.33-3.49-.08-2.27-1.72-2.27-1.72C63.95 34.9 69.6 21.3 61.9 15.91c-1.08-.76-4.23-1.03-7.57 2.32-2.46 2.47-5.8 5.58-12.7 10.28C25.46 39.51 4 43.12 4 74.56c0 17.51 7.3 28 19.01 32.97 14.7 6.24 31.56 5.43 41.84 4.15z"/><path style="fill:#eda600" d="M105.51 60.27c-4.14-.13-33.08-1.43-34.88-1.68-1.79-.25-3.14-1.92-4.69-1.22-1.09.49.47 3.29 1.36 4.33.84.98 1.75 1.29 3.18 1.29s33.63.66 33.63.66c8.04 0 10.23-3.22 10.4-6.99-.71 1.89-3.74 3.78-9 3.61zm10.28 16c-5.25.47-43.78-.02-45.09-.19s-2.25-1.05-3.47.05c-.93.84-.88 2.65-.47 3.81.58 1.62 3.22.2 5.07.21 1.85 0 38.14.13 43.68-.49 6.88-.78 8.4-4.45 8.4-7.28.01-.01-1.29 3.28-8.12 3.89zm-6.98 14.19s-41.61 2.76-41.7 2.74c0 0-2.26-.45-3.44 3.23-.3.92-.54 2.3.76 2.4.73.05 2.5-1.27 3.1-1.35l40.09-3.51c5.44-.72 8.02-3.53 7.78-7.93 0 0-.5 3.42-6.59 4.42z"/><path style="fill:#eda600" d="M64.85 111.68c9.18-1.14 27.31-3.92 30.71-4.6 6.42-1.27 8.12-3.61 7.95-6.93 0-.05-.8 2.76-6.69 3.81-3.33.59-20.1 2.81-31.04 4.21-15.53 1.99-28.73 1.12-41.2-4.33-8.86-3.87-14.32-10.28-17.48-19.21C5.14 79.13 4 74.56 4 74.56c0 17.51 7.3 28 19.01 32.97 14.7 6.24 31.56 5.43 41.84 4.15zM50.52 37.85c-3.45 2.7-3.94 4.79-1.13 5.94 2.38.98 1.27-.51 1.27-.92 0-.33.21-.61.21-.61 9.03-5.08 14.52-13.14 14.52-19.42 0-1.25-.23-2.43-.69-3.5-.7 11.37-10.73 15.82-14.18 18.51zm2.58 16.82c-1.24-.68-1.51-2.01.49-2.22 2.45-.25 5.68-.08 7.03.15 1.15.2 1.76.77.58 1.67-.77.59-5.82 1.65-8.1.4z"/><path style="fill:#eda600" d="M52.58 87.38c-1.11-.87-1.17-2.1.84-2.11 2.65-.01 5.5.49 6.97.92 1.12.34 1.61 1.04.31 1.74-.86.46-6.07 1.05-8.12-.55zm-1.29 16.18c-1.06-.93-1.04-2.29.96-2.06 2.45.29 4.13.51 5.28.75 1.15.24 1.73 1.09.38 1.71-.88.41-4.67 1.32-6.62-.4zm2-32.03c-1.33-.88-1.51-2.3.76-2.45 2.93-.2 6.24-.01 7.95.42 1.29.32 1.91 1.03.5 1.93-.92.59-6.75 1.72-9.21.1z"/></svg>