<svg xmlns="http://www.w3.org/2000/svg" viewBox="0 0 128 128" style="enable-background:new 0 0 128 128" xml:space="preserve"><path style="fill:#455a64" d="M60.77 100.94h63.2v16.21h-63.2z"/><ellipse style="fill:#455a64" cx="93.63" cy="110.84" rx="13.12" ry="13.16"/><ellipse style="fill:#607d8b" cx="93.63" cy="110.84" rx="8.76" ry="8.78"/><path style="fill:#455a64" d="M90.51 110.84c0 1.73 1.4 3.13 3.12 3.13s3.12-1.4 3.12-3.13h-6.24z"/><path style="fill:#0277bd" d="m20.07 97.68-10.01 16.51c-1.51 2.34.5 2.96 1.83 2.96h54.08c.98 0 1.77-.6 2.61-1.25 3.62-2.78 5.38-5.06 13.91-5.06h41.5V97.68H20.07z"/><path style="fill:#004f84" d="m20.07 97.68-6.89 11.36s5.2-3.92 19.56-3.92h91.27v-7.44H20.07z"/><path style="fill:#e0e0e0" d="M105.67 8.94 30.41 54.95C17.47 65.9 10.51 75.7 7.3 79.86c-6.06 7.85.31 14.37 1.52 15.28 1.21.91 9.55 6.4 23.91 6.4H124V4c-5.28 1.12-11.43 2.7-18.33 4.94z"/><path style="fill:#37474f" d="m30.41 54.95 10.56-10.8c1.11-1.23 3.8-1.66 3.8-1.66l56.47-32.07 4.7-1.58c-1.61 8.53-9.44 20.55-33.44 32.27-20.25 9.9-42.09 13.84-42.09 13.84z"/><path style="fill:#bae2fd" d="M44.78 42.49s13.13-11.18 23.16-17.42c17.83-11.1 33.31-14.64 33.31-14.64-2.51 8.25-8.12 15.65-30.68 25.78-19.37 8.69-25.79 6.28-25.79 6.28z"/><ellipse transform="rotate(-44.928 27.331 67.822)" style="fill:#e2a610" cx="27.33" cy="67.82" rx="8.04" ry="4.02"/><path style="fill:#ffca28" d="M33.34 62.54c-.01-.03-.03-.04-.05-.07-1.64 0-3.84.98-5.91 2.81-3.32 2.91-5.07 6.86-3.92 8.82.01.03.03.04.05.07 1.64 0 3.84-.98 5.91-2.81 3.32-2.91 5.07-6.86 3.92-8.82z"/><path style="fill:#0277bd" d="M94.02 68.83c-33.76 0-60.98 12.03-73.25 16.35-8 2.82-13.31 1.97-16.05 1.03-.31 4.88 1.73 7.25 4 9.16 2.46 2.07 9.65 6.17 24.01 6.17H124V68.83H94.02z"/><path style="fill:#82aec0" d="M94.02 68.83c-33.76 0-60.98 12.03-73.25 16.35-8 2.82-13.31 1.97-16.05 1.03-.15 2.4.27 4.19 1 5.62 2.92.69 10.11 1.34 17.38-.68 19.17-5.34 35.88-11.91 69.64-11.91h31.27V68.83H94.02z"/></svg>