<svg xmlns="http://www.w3.org/2000/svg" viewBox="0 0 128 128" style="enable-background:new 0 0 128 128" xml:space="preserve"><path style="fill:#ffe558" d="M30.31 95.25a50.53 50.53 0 0 0 17.33-3.6c1.79-.72 3.58-1.47 5.28-2.37.66-.35 1.49-.69 1.97-1.29.43-.54.51-1.27.73-1.91.87-2.54 2.99-2.75 3.47-2.99 1.3-.66 3.8-2.51 3.07-4.22-.47-1.09-7.77-4.5-6.28-10.76.73-3.05 2.98-1.7 10.24-4.34 3.11-1.13 5.66-3.46 7.63-6.12 6.55-8.81 7.17-17.68 4.12-28-2.42-8.2-6.93-15.73-12.99-21.76-1.53-1.52-.31-4.12 1.83-3.87 30.88 3.59 54.62 30.54 53.1 62.71-1.45 30.56-26.09 55.44-56.63 57.17-23.08 1.3-43.53-10.4-54.71-28.46-1.13-1.83.69-4.04 2.71-3.3 5.93 2.19 12.39 3.3 19.13 3.11z"/><path style="fill:#ffe558" d="M30.31 95.25a50.53 50.53 0 0 0 17.33-3.6c1.79-.72 3.58-1.47 5.28-2.37.66-.35 1.49-.69 1.97-1.29.43-.54.51-1.27.73-1.91.87-2.54 2.99-2.75 3.47-2.99 1.3-.66 3.8-2.51 3.07-4.22-.47-1.09-7.77-4.5-6.28-10.76.73-3.05 2.98-1.7 10.24-4.34 3.11-1.13 5.66-3.46 7.63-6.12 6.55-8.81 7.17-17.68 4.12-28-2.42-8.2-6.93-15.73-12.99-21.76-1.53-1.52-.31-4.12 1.83-3.87 30.88 3.59 54.62 30.54 53.1 62.71-1.45 30.56-26.09 55.44-56.63 57.17-23.08 1.3-43.53-10.4-54.71-28.46-1.13-1.83.69-4.04 2.71-3.3 5.93 2.19 12.39 3.3 19.13 3.11z"/><path style="fill:#fbc02d" d="M16.68 103.59c12.13 10.53 30.16 16.12 44.5 15.31 30.54-1.73 55.18-26.61 56.63-57.17.41-8.73-1.3-17.54-4.69-25.67 4.74 9.11 7.22 19.58 6.69 30.67-1.45 30.56-26.09 55.44-56.63 57.17-23.08 1.3-43.53-10.4-54.71-28.46-.35-.56-.42-1.16-.28-1.7 2.24 3.64 5.14 6.93 8.49 9.85z"/><radialGradient id="a" cx="44.647" cy="28.696" r="40.935" gradientTransform="matrix(-1 0 0 1.0553 128 -1.586)" gradientUnits="userSpaceOnUse"><stop offset="0" style="stop-color:#fff7b3"/><stop offset="1" style="stop-color:#fff7b2;stop-opacity:0"/></radialGradient><path style="fill:url(#a)" d="M66.71 4.02s12.22 10.15 16.64 22.49c3.63 10.14 6.27 30.8-17.73 39.31l17.21 16.73c.6-.5-.05-6.82 10.78-12.14 3.32-1.63 10.67 1.46 14.15.23 16.74-5.93 7.71-29.92 6.57-32.09C96.64 4.62 66.71 4.02 66.71 4.02z"/><path style="fill:#5d4037" d="M87.32 69.06c-3.5.61-6.3-2.29-6.68-5.53-.3-2.59.73-4.97 1.96-6.02 5.14-4.39 15.08.01 14.81 8.69-.02.56-.22 1.15-.67 1.49-.38-.73-1.07-4.05-4.08-5.4-.22-.1-.51-.1-.71.04-.27.19.38 5.86-4.63 6.73zM65.86 93.19c6.52 0 10.05-2.89 11.61-4.88.54-.68.38-1.67-.32-2.18-.47-.34-1.1-.39-1.61-.11-4.83 2.67-11.37 3.17-16.86.31-1.09-.57-1.85-1.94-2.59-1.22-.75.72-.51 2.48.28 3.59 1.28 1.83 3.87 4.49 9.49 4.49z"/><path style="fill:#f2a600" d="M62.25 79.83c.06-.32.04-.64-.1-.96-.47-1.09-7.77-4.5-6.28-10.76.08-.32.17-.58.29-.81l.03.02c.48 2.75 2.43 5.11 4.85 6.51.73.42 1.5.77 2.16 1.29.66.52 1.21 1.26 1.25 2.1.06 1.07-.75 2.06-1.74 2.47-.15.07-.3.1-.46.14z"/><radialGradient id="b" cx="-2352.885" cy="72.755" r="16.135" gradientTransform="matrix(.9201 -.3918 .3131 .7354 2233.814 -902.55)" gradientUnits="userSpaceOnUse"><stop offset="0" style="stop-color:#fbc02d"/><stop offset="1" style="stop-color:#fbc02d;stop-opacity:0"/></radialGradient><path style="fill:url(#b)" d="M82.83 82.55c1.55 3.75 7.63 4.79 13.58 2.32 5.95-2.46 9.52-7.5 7.97-11.24-1.55-3.75-7.63-4.79-13.58-2.32-5.95 2.46-9.52 7.49-7.97 11.24z"/></svg>