<svg xmlns="http://www.w3.org/2000/svg" viewBox="0 0 128 128" style="enable-background:new 0 0 128 128" xml:space="preserve"><linearGradient id="a" gradientUnits="userSpaceOnUse" x1="64" y1="35.779" x2="64" y2="8.02" gradientTransform="matrix(1 0 0 -1 0 130)"><stop offset="0" style="stop-color:#00bfa5"/><stop offset=".705" style="stop-color:#00b29a"/><stop offset="1" style="stop-color:#00ab94"/></linearGradient><path style="fill:url(#a)" d="M114.39 119.87v4.07H13.61v-4.07c0-12.39 12.12-19.81 27.92-23.2 7.01-1.52 14.75-2.23 22.47-2.24h.12c7.66 0 15.31.79 22.24 2.37 15.89 3.6 28.03 11.32 28.03 23.07z"/><path style="fill:#3c2b24" d="M72.89 90.06H55.1v9.98c0 4.51 3.62 8.17 8.09 8.17h1.62c4.46 0 8.09-3.66 8.09-8.17l-.01-9.98zm18.45-39.64H36.69c-5.89 0-10.71 5.14-10.71 11.41 0 6.28 4.82 11.41 10.71 11.41h54.65c5.89 0 10.71-5.14 10.71-11.41 0-6.28-4.82-11.41-10.71-11.41z"/><path style="fill:#70534a" d="M64.02 10.05c-17.4 0-33.52 18.61-33.52 45.39 0 26.64 16.61 39.81 33.52 39.81s33.52-13.17 33.52-39.81c0-26.78-16.12-45.39-33.52-45.39z"/><path style="fill:#1a1717" d="M39.84 50.73c3.18-4.51 10.66-4.66 14.41-.82.65.67 1.34 1.53.85 2.5-.54 1.07-1.65.9-2.56.53-2.43-.98-4.94-1.42-7.55-.89-1.13.23-2.1.7-3.17 1.08-1.44.49-2.91-1.01-1.98-2.4zm46.45 2.4c-2.23-.97-4.49-1.53-6.95-1.25-1.12.13-2.22.42-3.26.83-.83.33-1.72.86-2.58.28-2.45-1.69 1.89-4.44 3.17-4.99 2.76-1.19 6.05-1.08 8.72.31 1.06.55 2.21 1.35 2.84 2.4.79 1.31-.39 3.05-1.94 2.42z"/><ellipse style="fill:#1a1717" cx="47.39" cy="58.8" rx="4.93" ry="5.1"/><ellipse style="fill:#1a1717" cx="80.65" cy="58.8" rx="4.93" ry="5.1"/><path style="fill:#33251f" d="M67.87 68.04c-.11-.04-.21-.07-.32-.08h-7.07c-.11.01-.22.04-.32.08-.64.26-.99.92-.69 1.63s1.71 2.69 4.55 2.69 4.25-1.99 4.55-2.69c.3-.71-.06-1.37-.7-1.63z"/><path style="fill:#1a1717" d="M72.44 76.13c-3.19 1.89-13.63 1.89-16.81 0-1.83-1.09-3.7.58-2.94 2.24.75 1.63 6.45 5.42 11.37 5.42S74.6 80 75.35 78.37c.76-1.67-1.09-3.33-2.91-2.24z"/><path style="fill:#232020" d="M102.02 42.16c.79-1.08 1.06-2.81.67-4.38-.31-1.26-1-2.21-1.95-2.7.33-.46.93-1.5.94-2.96.03-2.33-.94-4.03-2.97-5.19.71-3.29-1.28-6.77-4.45-7.77-.04-1.71-.78-3.4-2.06-4.65-1.21-1.18-2.74-1.84-4.33-1.85-.5-1.6-1.65-2.99-3.18-3.83-1.47-.8-3.11-1.01-4.63-.59-1.75-2.79-5.49-3.81-8.36-2.28-1.73-1.77-4.41-2.39-6.73-1.53-.25.1-.67.32-.97.49-.3-.17-.71-.39-.97-.49-2.32-.86-5-.24-6.73 1.53-2.87-1.53-6.61-.51-8.36 2.28-1.53-.42-3.16-.22-4.63.59-1.53.84-2.68 2.22-3.18 3.83-1.59.01-3.12.66-4.33 1.85-1.27 1.25-2.02 2.93-2.06 4.65-3.16 1-5.16 4.48-4.45 7.77-2.02 1.16-3 2.86-2.97 5.19.02 1.45.62 2.5.94 2.96-.95.5-1.64 1.45-1.95 2.7-.39 1.57-.12 3.3.67 4.38-1.88 2.29-1.73 5.55.4 8.05-.74 1.34-.98 2.89-.43 4.84.79 2.51 2.84 2.88 2.84 2.88-1.21 2.79.93 6.79 2.6 7.36 0 0 1.67-23.26 7.2-30.22.59.59 1.7 1.67 3.86 1.23 1.88-.38 2.65-1.02 3.19-2.09.18.94.7 1.81 1.54 2.4 1.71 1.2 4.1.79 5.31-.92.13-.18.23-.38.32-.57.46 1.57 1.54 2.81 3.27 3.05 1.71.23 3.32-.59 4.2-1.95.4.67 1.57 2.34 3.7 2.34 2.14 0 3.38-1.67 3.78-2.34.88 1.36 2.49 2.19 4.2 1.95 1.73-.24 2.74-1.48 3.2-3.05.09.2.19.39.32.57a3.832 3.832 0 0 0 5.31.92 3.78 3.78 0 0 0 1.54-2.4c.53 1.06 1.48 2.26 4.15 1.95 2.09-.24 2.9-1.67 2.9-1.67 4.66 5.61 7.26 30.8 7.26 30.8 1.35-.49 3.09-3.94 3.14-6.99 1.4-.83 2.35-2.06 2.67-3.9.33-1.84-.11-2.85-.85-4.19 2.15-2.5 2.3-5.76.42-8.05z"/><radialGradient id="b" cx="64.534" cy="43.771" r="40.508" gradientUnits="userSpaceOnUse"><stop offset=".725" style="stop-color:#444140;stop-opacity:0"/><stop offset="1" style="stop-color:#444140"/></radialGradient><path style="fill:url(#b)" d="M102.02 42.16c.79-1.08 1.06-2.81.67-4.38-.31-1.26-1-2.21-1.95-2.7.33-.46.93-1.5.94-2.96.03-2.33-.94-4.03-2.97-5.19.71-3.29-1.28-6.77-4.45-7.77-.04-1.71-.78-3.4-2.06-4.65-1.21-1.18-2.74-1.84-4.33-1.85-.5-1.6-1.65-2.99-3.18-3.83-1.47-.8-3.11-1.01-4.63-.59-1.75-2.79-5.49-3.81-8.36-2.28-1.73-1.77-4.41-2.39-6.73-1.53-.25.1-.67.32-.97.49-.3-.17-.71-.39-.97-.49-2.32-.86-5-.24-6.73 1.53-2.87-1.53-6.61-.51-8.36 2.28-1.53-.42-3.16-.22-4.63.59-1.53.84-2.68 2.22-3.18 3.83-1.59.01-3.12.66-4.33 1.85-1.27 1.25-2.02 2.93-2.06 4.65-3.16 1-5.16 4.48-4.45 7.77-2.02 1.16-3 2.86-2.97 5.19.02 1.45.62 2.5.94 2.96-.95.5-1.64 1.45-1.95 2.7-.39 1.57-.12 3.3.67 4.38-1.88 2.29-1.73 5.55.4 8.05-.74 1.34-.98 2.89-.43 4.84.79 2.51 2.84 2.88 2.84 2.88-1.21 2.79.93 6.79 2.6 7.36 0 0 1.67-23.26 7.2-30.22.59.59 1.7 1.67 3.86 1.23 1.88-.38 2.65-1.02 3.19-2.09.18.94.7 1.81 1.54 2.4 1.71 1.2 4.1.79 5.31-.92.13-.18.23-.38.32-.57.46 1.57 1.54 2.81 3.27 3.05 1.71.23 3.32-.59 4.2-1.95.4.67 1.57 2.34 3.7 2.34 2.14 0 3.38-1.67 3.78-2.34.88 1.36 2.49 2.19 4.2 1.95 1.73-.24 2.74-1.48 3.2-3.05.09.2.19.39.32.57a3.832 3.832 0 0 0 5.31.92 3.78 3.78 0 0 0 1.54-2.4c.53 1.06 1.48 2.26 4.15 1.95 2.09-.24 2.9-1.67 2.9-1.67 4.66 5.61 7.26 30.8 7.26 30.8 1.35-.49 3.09-3.94 3.14-6.99 1.4-.83 2.35-2.06 2.67-3.9.33-1.84-.11-2.85-.85-4.19 2.15-2.5 2.3-5.76.42-8.05z"/></svg>