<svg xmlns="http://www.w3.org/2000/svg" viewBox="0 0 128 128" style="enable-background:new 0 0 128 128" xml:space="preserve"><path style="fill:#91674d" d="M76.11 99.04c8.25-11.67 2.65-17.16.84-19.12S42.76 92.44 42.76 92.44 58.39 80.8 65.6 73.42c8-8.19 4.8-13.08 4.38-14.8C65.12 38.87 19.81 71.1 19.81 71.1s3.84-2.85 8.62-6.15c6.06-4.18 13.12-10.69 9.3-18.98-1.07-2.33-16.77-1.56-33.73 6.19V124h50.85c8.6-9.59 18.45-20.98 21.26-24.96z"/><path style="fill:#ba8d68" d="M59.05 109.76s7.45-6.79 4.26-6.91c-5.28-.2-10.89-5.31-10.52-8.99.53-5.22 15.08.17 16.63-1.8 2.33-2.95 4.51-6.03 6.51-9.21.23-.36.46-.74.52-1.17.13-.9-.8-1.79-1.38-2.35-5.08-4.98-9.54-5.62-20.21 2.55-7.68 5.89-35.75 29.24-50.86 41.85v.27h40.66l14.39-14.24zM36.37 43.11c-.1-.33-.54-.7-.76-.97-.49-.59-1.03-1.14-1.62-1.64-1.21-1.02-1.63-5.27-8.04-4.37-2.96.41-12.54 5.22-21.95 10.24v26.15c9.99-6.18 13.24-8.14 15.58-10.17 2.79-2.42-7.74-1.31-6.91-12.3.28-3.66 19.39-3.16 22.98-5.89.26-.2.71-.51.75-.87 0-.06-.01-.12-.03-.18zm28.35 12.11c-.31-.48-.64-.95-.98-1.41-.72-.95-1.55-1.82-2.48-2.56-1.54-1.23-2.46-.86-4.12-1.91-2.21-1.41-8.32 2.73-22.37 11.08C26.55 65.3 14.59 73.14 4 80.24v32.61C23.88 97.5 50.04 77.39 52.14 75.37c2.01-1.94-11.08-1.88-9.28-12.02.26-1.47 12.72 5.01 13.37 3.66 1.24-2.57 2.76-5.01 4.54-7.23.69-.86 1.45-1.71 2.44-2.18.55-.26 1.18-.42 1.57-.87.4-.47.23-1.05-.06-1.51z"/><path style="fill:#f44336" d="M42.2 35.28c2.88 4.09 2.01 8.62-5.12 14.98-5.21 4.65-8.7 6.5-13.79 7.56-4.52.94-7.6-1.53-10.33-6.49-2.18-3.97-.72-6.15.28-7.47 3.02-3.99 10.63-7.43 14.72-8.95 6.52-2.42 12.19-2.55 14.24.37zm27.64 27.04c-3.46 3.2-8.88 7.62-13.62 8.94-2.22.62-6.77 1.05-11.3-4.42-4.48-5.4-1.61-8.89-.56-10.23 3.28-4.19 8.81-7.27 13.67-9.51 6.02-2.77 11.85-3.8 14.95-1.19 4.1 3.44 3.45 10.33-3.14 16.41zm9.39 11.75c5.02 3.35 2.01 11.09-.84 14.88-3.07 4.09-7.22 8.85-10.79 10.44-2.51 1.12-6.56 2.16-12.07-2.44-4.55-3.81-3.05-9.05-1.51-11.63 2.43-4.07 6.87-7.05 11.91-10.05 5.58-3.31 10.34-3.18 13.3-1.2z"/><path style="fill:#c62828" d="M78.39 88.95c2.14-2.86 4.38-7.95 3.21-11.73-2.07 2.48-14.36 17.07-20 19.31-2.43.97-5 1.23-5 1.23l-.01.01c4.97 3.64 8.66 2.66 11.01 1.62 3.57-1.58 7.72-6.35 10.79-10.44zm-2.87-36.79c-4.27 3.28-19.7 14.8-24.66 15.93-2.16.49-3.39.66-4.2.54 3.73 3.36 7.57 3.18 9.56 2.63 4.74-1.33 10.16-5.75 13.62-8.94 3.67-3.39 5.49-7.02 5.68-10.16zm-56.37 3.07c-1.38.21-2.39.33-3.14.33 2.02 2.02 4.35 2.86 7.29 2.25 5.09-1.06 8.58-2.91 13.79-7.56 3.64-3.25 5.64-6.01 6.35-8.49-6.54 4.27-19.96 12.8-24.29 13.47z"/><path style="fill:#ff7555" d="M18.02 44.54c2.34-2.69 7.62-6.89 14.27-8.82 3-.87 3.89 2.11 1.88 2.93-4.27 1.75-12.69 6.43-13.83 7.08-2.36 1.32-3.95.68-2.32-1.19zM48.5 57.95c3.67-4.23 6.83-6.47 13.16-9.67 1.39-.7 3.33-.82 4.14-.33 1.63.98 1.74 2.33-.28 3.36-8.91 4.56-11.21 6.51-14.98 8.51-2.18 1.16-3.24-.48-2.04-1.87zm16.02 22.42c4.29-3.74 7.04-4.83 7.92-4.16 1.57 1.19.37 2.67-1.15 3.84s-9.59 7.64-10.81 8.58c-1.22.94-3 1.36-2.27-.59.61-1.63 2.99-4.78 6.31-7.67z"/><path style="fill:#546e7a" d="M81.15 28.99c-1.54 4.53 5.16 10.91 14.98 14.26 9.82 3.35 19.03 2.39 20.57-2.14.77-2.27 6.88-37.11 6.88-37.11H94.12c-4.47 8.6-11.96 22.01-12.97 24.99z"/><ellipse transform="rotate(-71.174 98.63 35.812)" style="fill:#202020" cx="98.62" cy="35.81" rx="5.34" ry="15.54"/><path style="fill:#546e7a" d="M90.47 67.03c.23-.42 1.02-2.3 1.22-2.57.87-1.14 1.58-1.25 2.25-2.97.57-1.45 8.48-23.91 8.48-23.91s.53-2.44-2.88-3.6c-3.4-1.16-4.48 1.1-4.48 1.1s-7.46 21.08-8.28 23.48c-.69 2.04.04 2.6-.44 3.89-.08.23-.93 1.75-1.11 2.03l5.24 2.55z"/><path style="fill:#f44336" d="M87.81 61.34c-.58.02-1.13-.07-1.97.9-1.58 1.79-3.89 3.76-7.51 5.14-1.13.43-2.66 1.18-2.6 2.39.13 2.67 5.1 6.17 8.81 5.18 3.3-.88 6.29-6.55 6.52-7.69.23-1.14.64-2.59.34-3.48-.46-1.36-2.16-2.48-3.59-2.44z"/><path style="fill:#c62828" d="M78.76 71c.5.18.98-.26 1.47-.48.72-.33 1.57-.14 2.3.17.73.31 1.42.73 2.2.89 1.16.24 2.39-.17 3.35-.88.95-.71 2.8-5.6 3.39-6.63.06.29.14.74.07 1.27-.54 4.21-4.03 9.12-6.83 9.82-1.09.27-2.74.31-3.84.09-1.11-.22-2.41-.83-3.34-1.48-.93-.65-1.58-1.48-2.09-2.5-.25-.5-.16-1.26.13-1.78.2-.37.6-.59 1.01-.62.48-.04.99.19 1.27.59.29.41.29.98.64 1.35.06.08.16.15.27.19z"/><path style="fill:#ff7555" d="M83.54 69.81c-2.94 2.21-4.3 1.68-4.86 1.43-.57-.25-.99-.9-.82-1.5.18-.64.87-.95 1.48-1.21 1.4-.59 3.25-1.2 4.53-2.03 4.53-2.91 3.58-4.43 4.47-4.16s-.24 2.74-1.48 4.38c-.95 1.24-2.39 2.39-3.32 3.09z"/><path style="fill:#78909c" d="M87.77 26.04c1.57-.2 4.33-.07 6.41.22.73.1 1.44-.28 1.74-.95C97.9 21 101.94 11.6 102.7 9.39c.74-2.17-6.41-3.19-8.04-.49-1.95 3.24-7.57 14.79-7.57 14.79-.87 1.4-.65 2.53.68 2.35zm-.22 33.71c-.56-.2-.88-.86-.69-1.46 1.32-4.08 6.62-19.09 7.47-20.98 1-2.2 3.71-1.69 3.17 0-.46 1.44-6.82 17.48-8.42 21.76-.22.62-.97.88-1.53.68z"/></svg>