<svg xmlns="http://www.w3.org/2000/svg" viewBox="0 0 128 128" style="enable-background:new 0 0 128 128" xml:space="preserve"><path style="fill:#f77e00" d="M116.46 4h-104c-4.42 0-8 3.58-8 8v104c0 4.42 3.58 8 8 8h104c4.42 0 8-3.58 8-8V12c0-4.42-3.58-8-8-8z"/><path style="fill:#ff9800" d="M110.16 4h-98.2a7.555 7.555 0 0 0-7.5 7.5v97.9c-.01 4.14 3.34 7.49 7.48 7.5h98.12c4.14.01 7.49-3.34 7.5-7.48V11.5c.09-4.05-3.13-7.41-7.18-7.5h-.22z"/><path style="opacity:.75;fill:#ffbd52;enable-background:new" d="M40.16 12.9c0-2.3-1.6-3-10.8-2.7-7.7.3-11.5 1.2-13.8 4s-2.9 8.5-3 15.3c0 4.8 0 9.3 2.5 9.3 3.4 0 3.4-7.9 6.2-12.3 5.4-8.7 18.9-10.6 18.9-13.6z"/><path style="fill:#fafafa" d="M104.46 64V38.3c0-1.8-1.7-2.9-3-2l-37 24.4V38.3c.13-1.13-.69-2.15-1.82-2.28-.45-.05-.9.05-1.28.28L21.46 62a2.529 2.529 0 0 0 0 4.1l39.8 25.7c.98.58 2.24.26 2.82-.72.23-.39.33-.84.28-1.28V67.3l37 24.4c1.4.9 3-.2 3-2l.1-25.7z"/></svg>