<svg xmlns="http://www.w3.org/2000/svg" viewBox="0 0 128 128" style="enable-background:new 0 0 128 128" xml:space="preserve"><path style="fill:#464c4f" d="M3.8 50.1C2.15 53 1.61 57.49 7.03 62.6 12 67.3 25.94 80.43 38.8 80.1c14.67-.39 19.69-14.67 25.99-14.41 3.89.16 7.65 5.03 12.72 9.67 3.38 3.09 7.8 6.25 14.03 6.25 9.14 0 17.31-6.14 23.92-12.48 5.13-4.92 8.4-10.58 8.9-13.22 1.07-5.57-2.58-6.24-2.58-6.24L93.36 73.53 62.87 54.62 37.26 69.67 9.21 52.05 3.8 50.1z"/><path style="fill:#606265" d="M6.37 47.72c-4.16 2.53-3.45 5.5-2.66 6.91 2.87 5.08 11.02 11.54 17.54 15.93 6.2 4.17 12.4 6.61 20.39 5.85 9.84-.93 14.01-14.62 23.26-14.73 8.14-.1 15.41 16.47 26.84 16.47 10.66 0 23.93-14.05 26.26-16.86 2.33-2.81 6.49-8.62 6.2-9.4-.29-.78-1.82-5.39-8.88-4.74-5.01.46-10.82 8.32-13.89 10.84-2.71 2.23-6.78 5.42-10.27 5.23-7.7-.41-11.92-16.47-25.87-16.57-14.25-.1-18.8 16.03-27.71 16.47-5.91.29-17.29-12.55-21.01-15.03-4.08-2.71-7.97-1.73-10.2-.37z"/><path style="fill:#9a9a99" d="M15.96 50.68c-.15 1-3.34 1.26-4.65 2.07-1.47.91-2.07 3.39-4.4 2.58-1.91-.67-2.12-3.89 1.52-6.27 3.64-2.37 7.78-.1 7.53 1.62zm35.5 5.97c-4.96 4.9-8.89 8.34-7.02 10.21 1.59 1.59 5.87-2.89 9.75-6.47 4.32-3.98 10.34-7.25 7.88-9.4-2.02-1.78-6.52 1.61-10.61 5.66zm65.06-6.1c-1.29-.89-3.35-.1-5.65 2.05-2.32 2.17-5.91 5.97-9 8.63-4.15 3.57-6.55 3.71-5.48 5.63 1.06 1.92 5.42.26 11.18-4.7 5.16-4.45 11.73-9.69 8.95-11.61z"/></svg>