<svg xmlns="http://www.w3.org/2000/svg" viewBox="0 0 1000 1000"><path fill="#003580" d="M992 132.75c-170.83 85.22-341.03 54.42-513.26 27.97C323.53 136.88 166.58 116.15 8 195.25v672c174.38-206.12 348.39-290.94 524.18-384.27 151.81-80.6 304.89-167.1 459.82-350.23"/><path fill="#009543" d="M8 867.25c170.83-85.22 341.03-54.42 513.26-27.97 155.21 23.84 312.16 44.57 470.74-34.53v-672C817.62 338.87 643.61 423.69 467.82 517.02 316.01 597.62 162.93 684.12 8 867.25"/><path fill="#fff" d="M205.11 813.47C140.07 818.76 75.01 833.82 8 867.25V732.64c260.57-308 519.59-342.24 786.89-546.11 65.04-5.29 130.1-20.35 197.11-53.78v134.61c-260.57 308-519.59 342.24-786.89 546.11"/><path fill="#d21034" d="M155.82 819.49C107.03 827.62 58.27 842.17 8 867.25V766.3c276.95-327.36 552.35-345.13 836.18-585.79 48.79-8.13 97.55-22.68 147.82-47.76V233.7C715.05 561.06 439.65 578.83 155.82 819.49"/><path fill="#ffce00" d="m204.8 436.52 16.98-48.23c-11.21.62-22.41 1.51-33.96 2.75l16.98 45.48M95.47 344.1c15.17 1.39 30.33 3.5 45.96 6.38v-34.77a794.171 794.171 0 0 0-45.96 28.39M204.8 212.52l-16.98 48.7c11.21-1.21 22.41-2.11 33.96-2.75l-16.98-45.95M314.13 324.03c-15.17-6.66-30.33-12.98-45.96-19.05v34.78c15.17-5.59 30.34-10.76 45.96-15.73M150.13 428.48l37.69-37.44c-9.71-4.67-19.41-9.12-29.41-13.43l-8.28 50.87M110.12 284.11l31.31 31.6 16.98-33.14c-15.94-.22-31.87.24-48.29 1.54M259.47 225.34l-37.69 33.13 29.41 16.41 8.28-49.54M299.48 379.25l-31.31-39.49-16.98 30.15c15.94 2.61 31.87 5.71 48.29 9.34M110.12 396.11a630.804 630.804 0 0 1 48.29-18.5l-16.98-27.13-31.31 45.63M150.13 234.49l8.28 48.08 29.41-21.35c-12.44-9.22-24.88-18.07-37.69-26.73"/><path fill="#ffce00" d="M299.48 267.25c-15.93 2.07-31.87 4.55-48.29 7.63l16.98 30.1 31.31-37.73M259.47 419.34l-8.28-49.43-29.41 18.38 37.69 31.05"/><path fill="#ffce00" d="M264.93 322.34c-.28 34.3-26.71 60.81-60.13 63.78-33.43 2.45-59.85-19.48-60.13-53.65.28-34.3 26.72-66.53 60.13-69.55 33.44-2.39 59.85 25.25 60.13 59.42"/><path fill="#003580" d="M270.4 322.39c-.12 18.72-6.4 34.07-19.21 47.52-13 13.3-28.15 20.22-46.39 21.81-18.26 1.37-33.39-3.07-46.39-14.11-12.82-11.24-19.09-25.35-19.21-44.09.12-18.65 6.4-35.58 19.21-50.95 13-15.22 28.15-23.63 46.39-25.25 18.27-1.34 33.38 4.59 46.39 17.56 12.82 13.15 19.09 28.84 19.21 47.51m-10.93-.06c-.13-15.58-5.33-28.51-16.01-39.39-10.87-10.7-23.41-15.52-38.66-14.42-15.22 1.37-27.8 8.25-38.66 20.78-10.67 12.69-15.88 26.61-16.01 42.18.13 15.64 5.32 27.47 16.01 37.02 10.86 9.35 23.42 13.14 38.66 12.02 15.22-1.35 27.8-7.19 38.66-18.39 10.67-11.35 15.88-24.17 16.01-39.8"/><path fill="#1A1A1A" opacity=".2" d="M8 195.25c170.83-85.22 341.03-54.42 513.26-27.97 155.21 23.84 312.16 44.57 470.74-34.53v672c-170.83 85.22-341.03 54.42-513.26 27.97C323.53 808.88 166.58 788.15 8 867.25v-672m31.25 19.39v604.5c306.56-128.26 611.18 96.04 921.5-33.78v-604.5c-306.56 128.26-611.18-96.04-921.5 33.78"/></svg>