<svg xmlns="http://www.w3.org/2000/svg" viewBox="0 0 128 128" style="enable-background:new 0 0 128 128" xml:space="preserve"><path style="fill:#ffc022" d="M110.47 59.02c9.51-24.83 3.65-43.83.29-49.28-1.33-2.16-3.89-2.76-6.25-2.02C98.29 9.68 81.5 23.4 74.08 42.6M17.53 59.02c-9.51-24.83-3.65-43.83-.29-49.28 1.33-2.16 3.89-2.76 6.25-2.02C29.71 9.68 46.5 23.4 53.92 42.6"/><path style="fill:#ffc022" d="M114.11 70.76C112.31 44.78 94.44 26.3 64 26.3S15.69 44.78 13.89 70.76c-1.05 15.14 5.05 28.01 17.09 36.21 0 0 12.21 9.88 33.02 10.14 20.81-.26 33.02-10.14 33.02-10.14 12.03-8.2 18.14-21.07 17.09-36.21z"/><path style="opacity:.47;fill:#ff7043" d="M54.12 45.02c1.13.96 3.42.82 4.75-.72 1.61-1.87 3.29-8.17 2.24-17.91-4.67.17-9.09.84-13.21 1.97 3.33 5.46 4.13 14.88 6.22 16.66zm19.76 0c-1.13.96-3.42.82-4.75-.72-1.61-1.87-3.29-8.17-2.24-17.91 4.67.17 9.09.84 13.21 1.97-3.33 5.46-4.13 14.88-6.22 16.66z"/><path style="fill:none;stroke:#9e9e9e;stroke-width:3;stroke-linecap:round;stroke-miterlimit:10" d="m122.41 64.63-16.92 8.33m19.02 3.87-18.15 3.16m16.05 12.98-16.92-5.78M5.59 64.63l16.92 8.33M3.49 76.83l18.15 3.16M5.59 92.97l16.92-5.78"/><path d="M32.56 70.26c-.3 0-.6-.06-.89-.19a2.21 2.21 0 0 1-1.14-2.92c.35-.8 3.6-7.85 9.35-7.85 5.68 0 9.17 6.74 9.55 7.51.54 1.1.09 2.43-1.01 2.97s-2.17-.12-2.97-1.01c-.97-1.08-3.08-3.5-5.57-3.5-2.5 0-4.58 2.59-5.28 3.65-.51.77-1.19 1.34-2.04 1.34zm62.88 0c.3 0 .6-.06.89-.19a2.21 2.21 0 0 0 1.14-2.92c-.35-.8-3.6-7.85-9.35-7.85-5.68 0-9.17 6.74-9.55 7.51-.54 1.1-.09 2.43 1.01 2.97s2.17-.12 2.97-1.01c.97-1.08 3.08-3.5 5.57-3.5 2.5 0 4.58 2.59 5.28 3.65.51.77 1.19 1.34 2.04 1.34zm-39.48 6.72c-.05-2.86 4.06-4.24 7.95-4.3 3.89-.07 8.07 1.2 8.12 4.06s-4.86 6.64-7.95 6.64-8.07-3.54-8.12-6.4z"/><path d="M63.33 105.03a1.997 1.997 0 0 1-1.73-2.24c.14-1.09 1.13-1.73 2.24-1.73 4.68 0 5.7-1.02 5.74-2.02.05-1.34-1.5-2.24-3.88-2.91-1.15-.32-1.96-.99-1.91-2.19.04-1.17.91-1.7 2.05-1.93.98-.2 1.94-.56 2.8-.8 1.66-.46 2.67-2.9-.43-4.78-2.41-1.46-6.07-3.14-8.91-4.93.87.16 6.51-.4 7.67.32 1.35.85 3.88 2.38 5.27 3.17 1.43.82 2.35 2.4 2.35 4.04 0 3.84-3.92 5.29-3.92 5.29 2.33 1.49 2.92 3.28 2.92 4.71 0 1.7-.52 3.32-1.85 4.23-3.27 2.24-7.89 1.84-8.41 1.77z"/><radialGradient id="a" cx="40.133" cy="82.219" r="16.984" gradientTransform="matrix(.9791 0 0 .9333 .584 14.137)" gradientUnits="userSpaceOnUse"><stop offset="0" style="stop-color:#ed7770"/><stop offset="1" style="stop-color:#ed7770;stop-opacity:0"/></radialGradient><circle style="fill:url(#a)" cx="39.88" cy="90.87" r="15.29"/><radialGradient id="b" cx="90.431" cy="82.219" r="16.984" gradientTransform="matrix(.9791 0 0 .9333 .584 14.137)" gradientUnits="userSpaceOnUse"><stop offset="0" style="stop-color:#ed7770"/><stop offset="1" style="stop-color:#ed7770;stop-opacity:0"/></radialGradient><circle style="fill:url(#b)" cx="89.12" cy="90.87" r="15.29"/><path style="fill:#ffd1d1" d="M92.16 36.23c-1.54-1.29-1.5-3.37-.6-5.16 2.16-4.31 7.33-8.78 9.16-10.23 3-2.38 5.32-3.18 6.21.65 1.65 7.08 1.52 16.69-.25 21.99-.62 1.87-2.54 2.86-4.02 1.57l-10.5-8.82zm-56.32 0c1.54-1.29 1.5-3.37.6-5.16-2.16-4.31-7.33-8.78-9.16-10.23-3-2.38-5.32-3.18-6.21.65-1.65 7.08-1.52 16.69.25 21.99.62 1.87 2.54 2.86 4.02 1.57l10.5-8.82z"/></svg>