<svg xmlns="http://www.w3.org/2000/svg" viewBox="0 0 1000 1000"><path fill="#fff" d="M8 407.04c170.84-85.22 341.03-54.42 513.26-27.97 155.19 23.84 312.19 44.59 470.74-34.53v248.41c-170.17 84.89-339.71 54.67-511.26 28.28C324.85 597.25 167.28 576.04 8 655.45V407.04"/><path fill="#ce1126" d="M8 195.25c170.83-85.22 341.03-54.42 513.25-27.97 155.2 23.84 312.2 44.59 470.75-34.53v223.89c-170.84 85.22-341.03 54.42-513.26 27.97C323.55 360.77 166.55 340.01 8 419.14V195.25"/><path d="M8 643.36c169.84-84.72 339.05-54.78 510.26-28.43 156.21 24.05 314.11 45.51 473.73-34.06v223.88c-170.83 85.22-341.03 54.42-513.25 27.97C323.55 808.88 166.55 788.13 8 867.25V643.36"/><path fill="#007a3d" d="M597.03 472.94c-1.35-.94-2.79-2.25-3.34-3.02-.71-1.19-.35-1.15 2.78.11 5.73 2.21 8.94 2.06 12.68-.54l3.14-2.33 3.68 2.37c2.12 1.3 4.12 2.16 4.81 2.17 1.78-.61 4.58-3.98 4.8-5.74.03-1.88 1.28-1.23 2.15.88 1.26 4.47-.55 8.15-4.47 9.11-1.91.22-3.49-.11-6.37-1.43-3.49-1.63-3.97-1.66-5.75-.54-4.15 2.48-8.99 2.14-14.11-1.04M610.75 461.81c-1.31-2.25-2.75-8.48-2.44-10.33.51-1.37.89-1.55 2.19-1.02 2.21 1.14 2.64 2.46 2.38 7.8-.33 4.32-.79 5.22-2.13 3.55M449.11 433.35c-.05 3.45 5.41 11.64 8.28 13.89-1.88.44-4.1-.02-5.83.54-9.45 8.27-43.84 37.94-50.28 45.38 18.68 2.76 39.38 5.12 56.89 6.93.39-12.95 11.7-11.92 20.07-15.35 4.49 7.22 14.12 8.51 15.84 18.67l.02 43.28c-52.82-8.16-106.69-16.32-159.51-20.61-3.08 12.63-13.75 20.98-29.58 16.42 5.04-4.82 12.66-6.32 15.85-13.11 2.23-15.55-4.79-25.48-9.65-34.72 7.87-2.48 9.03-3.11 17.05-8.02-5.13 17.05 14.22 16.65 29.57 17.74.48-6.2.17-12.48-4.22-14.21 5.74-1.6 6.66-2.21 15.84-9.19v23.53c35.64 3.89 74.08 9.24 110.47 14.83.08-7.76 1.78-18.37-3.79-19.77-5.4.07-.29 14.18-4.47 14.46l-85.31-11.91-.08-14.98c3.6-3.25 3.17-3.12 27.89-25.12 2.48-2.19 19.78-15.87 34.95-28.68M662.33 461.77c5.94 3.85 10.71 8.54 17.96 11.09-1.06 2.97-3.3 4.14-4.23 7.28v66c8.2 2.1 9.82-2 13.73-4.53 1.23 10.63 7.41 21.33 7.4 29.61l-34.86-2.34V461.77M615.86 492.37c.09-.06 12.42-9.58 12.68-9.93v57.59l9.13.96-.28-64.62c3.81-3.42 10.75-8.27 12.78-11.88v103.15c-25.73-2.42-73.69-8.71-80.07-9.62-1.18-21.92-1.44-43.27 22.98-35.67v-8.74c-.92-1.49-1.91.01-2.39-1.9 3.88-3.45 5.18-4.27 15.66-12.34l.19 38.04 9.23 1.13.01-5.22.08-40.95m-30.06 41.81c2.18 2.81 7 3.62 7.28-.89-1.63-3.6-7.96-3.59-7.28.89"/><path fill="#007a3d" d="M358.91 540.46c-.23 2.92-2.01 4.56-4.89 4.52-2.85-.51-4.66-2.53-4.89-5.47.23-2.93 2.02-4.59 4.89-4.55 2.85.52 4.66 2.55 4.89 5.5M504.91 441.36c5.93 4.28 10.71 9.34 17.96 12.51-1.07 2.88-3.31 3.84-4.24 6.92v66c8.22 2.79 9.81-1.14 13.74-3.31 1.22 10.72 7.41 22.07 7.39 30.33l-34.86-5.34.01-107.11"/><path fill="#1A1A1A" opacity=".2" d="M8 195.25c171.17-85.38 341.69-54.3 514.26-27.81C677.13 191.2 833.79 211.71 992 132.75v672c-171.17 85.38-341.69 54.3-514.26 27.81C322.87 808.8 166.21 788.29 8 867.25v-672m31.25 19.39v604.5c306.5-128.29 611.18 96.04 921.5-33.78v-604.5c-306.5 128.29-611.18-96.04-921.5 33.78"/></svg>