<svg xmlns="http://www.w3.org/2000/svg" viewBox="0 0 128 128" style="enable-background:new 0 0 128 128" xml:space="preserve"><linearGradient id="a" gradientUnits="userSpaceOnUse" x1="63.993" y1="116.358" x2="63.993" y2="-25.177" gradientTransform="matrix(1 0 0 -1 0 128)"><stop offset="0" style="stop-color:#eee"/><stop offset="1" style="stop-color:#bdbdbd"/></linearGradient><path style="fill:url(#a)" d="M63.79 9C-.15 9 3.84 124 3.84 124h120.32S127.74 9 63.79 9z"/><linearGradient id="b" gradientUnits="userSpaceOnUse" x1="63.998" y1="33.398" x2="63.998" y2="-.149" gradientTransform="matrix(1 0 0 -1 0 128)"><stop offset=".178" style="stop-color:#fafafa"/><stop offset=".828" style="stop-color:#e0e0e0"/></linearGradient><path style="fill:url(#b)" d="M113.13 98.06a7.992 7.992 0 0 0-6.3-3.05c-.62 0-1.25.07-1.86.22-2.28.54-4.82 1.34-6.42 2.48-1.12.79-2.43 1.24-3.76 1.24-.61 0-1.21-.09-1.81-.28-8.69-2.8-19.11-4.22-29.56-4.22h-.13c-10.2.01-20.42 1.21-29.04 3.78-.57.17-1.15.25-1.73.25-1.19 0-2.38-.35-3.37-1.05-1.55-1.09-4.03-1.83-6.25-2.31a8.017 8.017 0 0 0-7.98 2.87c-2.95 3.74-6.98 9.54-6.98 13.4 0 3.77 3.32 6.57 3.32 8.5V124h103v-4.11c0-1.64 5.78-4.22 5.78-8.5.01-3.84-3.96-9.58-6.91-13.33z"/><path style="fill:#7a4c32" d="M78.43 99.5c-3.93-2.33-3.59-8.08-3.59-8.08-.52-1.67-2.94-1.34-4.69-1.34H57.86c-1.75 0-4.17-.33-4.69 1.34 0 0 .33 5.75-3.59 8.08-3.07 1.82-6.54 4.53-6.54 8.31 0 5.38.04 2.77.1 3.67.05.73 10.46 1.01 20.87.93 10.41.08 20.82-.2 20.87-.93.06-.9.1 1.71.1-3.67-.01-3.78-3.48-6.49-6.55-8.31z"/><path style="fill:#c2185b" d="M54.51 111.97c-1.21-2.95-4.94.24-10.26 2.42-5.32 2.19-10.22 2.54-9 5.49.45 1.09 1.79 2.67 3.56 4.11h14.07c2.27-3.9 2.52-9.86 1.63-12.02z"/><ellipse transform="rotate(-22.33 44.84 114.522)" style="fill:#ec407a" cx="44.84" cy="114.52" rx="10.42" ry="4.17"/><ellipse transform="rotate(-22.33 45.82 115.31)" style="fill:#d81b60" cx="45.82" cy="115.31" rx="4.01" ry="1.61"/><path style="fill:#c2185b" d="M74.72 109.38c.27-1.35 0-2.33 0-2.33-1.54-2-6.45-1.94-11.45-2.1-4.69-.15-9.37-.74-11.2.82-.65.55-.42 1.99-.38 2.88.18 3.86 4.52 14.77 10.72 15.34h1.04c8.3-.67 10.51-10.9 11.27-14.61zM63.44 124H62.4c.11.01.22.03.33.03.24.01.48-.01.71-.03z"/><ellipse transform="rotate(-88.206 63.266 107.06)" style="fill:#ec407a" cx="63.27" cy="107.06" rx="4.12" ry="11.52"/><ellipse transform="rotate(-88.206 63.278 107.813)" style="fill:#d81b60" cx="63.28" cy="107.81" rx="1.48" ry="4.14"/><path style="fill:#c2185b" d="M92.17 119.89c1.21-2.95-3.68-3.31-9-5.49s-9.05-5.38-10.26-2.42c-.89 2.16-.64 8.12 1.64 12.03h14.07c1.77-1.46 3.1-3.04 3.55-4.12z"/><ellipse transform="rotate(-67.67 83.067 114.64)" style="fill:#ec407a" cx="83.07" cy="114.64" rx="5.51" ry="10.42"/><ellipse transform="rotate(-67.67 83.067 115.754)" style="fill:#d81b60" cx="83.07" cy="115.76" rx="2.25" ry="4.25"/><path style="fill:#2e7d32" d="M61.74 121c-2.37-4.36-9.38-5.13-9.38-5.13s-2.12 4.21-1.59 8.13h11.81c-.08-1.04-.32-2.07-.84-3z"/><path style="fill:#43a047" d="M49.62 122.43C45.16 120.25 39 123.7 39 123.7s.02.11.06.31h12.65c-.59-.64-1.28-1.19-2.09-1.58z"/><path style="fill:#2e7d32" d="M77.07 118.89s-6.99.77-9.37 5.11h10.92c-.39-2.79-1.55-5.11-1.55-5.11z"/><path style="fill:#43a047" d="M73.12 116.56s-7.05-.25-10.02 3.73c-.82 1.1-1.23 2.4-1.42 3.71h12.04c.68-3.59-.6-7.44-.6-7.44zm6.17 6.24c-.64.31-1.19.73-1.7 1.2h12.24c-.71-.38-6.37-3.25-10.54-1.2z"/><path style="fill:#7a4c32" d="M91.33 50.43H36.67c-5.89 0-10.71 5.14-10.71 11.41s4.82 11.41 10.71 11.41h54.65c5.89 0 10.71-5.14 10.71-11.41s-4.81-11.41-10.7-11.41z"/><path style="fill:#a56c43" d="M64 11.07c-17.4 0-33.52 18.61-33.52 45.4 0 26.64 16.61 39.81 33.52 39.81S97.52 83.1 97.52 56.46c0-26.78-16.12-45.39-33.52-45.39z"/><path style="fill:#42312c" d="M39.98 50.73c2.99-4.23 9.78-4.63 13.67-1.48.62.5 1.44 1.2 1.68 1.98.4 1.27-.82 2.26-2.01 1.96-.76-.19-1.47-.6-2.22-.83-1.37-.43-2.36-.55-3.59-.55-1.82-.01-2.99.22-4.72.92-.71.29-1.29.75-2.1.41-.92-.39-1.27-1.58-.71-2.41zm46.06 2.4c-.29-.13-.57-.29-.86-.41-1.78-.74-2.79-.93-4.72-.92-1.7.01-2.71.24-4.04.69-.81.28-1.84.98-2.74.71-1.32-.4-1.28-1.84-.56-2.76.86-1.08 2.04-1.9 3.29-2.44 2.9-1.26 6.44-1.08 9.17.55.89.53 1.86 1.26 2.4 2.18.79 1.3-.4 3.03-1.94 2.4z"/><ellipse style="fill:#42312c" cx="47.56" cy="58.81" rx="4.93" ry="5.1"/><ellipse style="fill:#42312c" cx="80.44" cy="58.81" rx="4.93" ry="5.1"/><path style="fill:#473530" d="M72.42 76.14c-3.18 1.89-13.63 1.89-16.81 0-1.83-1.09-3.7.58-2.94 2.24.75 1.63 6.44 5.42 11.37 5.42s10.55-3.79 11.3-5.42c.75-1.66-1.09-3.33-2.92-2.24z"/><path style="fill:#875334" d="M67.86 68.06c-.11-.04-.21-.07-.32-.08h-7.08c-.11.01-.22.04-.32.08-.64.26-.99.92-.69 1.63.3.71 1.71 2.69 4.55 2.69s4.25-1.99 4.55-2.69c.3-.71-.05-1.37-.69-1.63z"/><path style="fill:#3c2c23" d="M64.01 4.03h-.04c-45.43.24-36.12 52.14-36.12 52.14s2.04 5.35 2.97 7.71c.13.34.63.3.71-.05.97-4.34 4.46-19.73 6.22-24.41a6.075 6.075 0 0 1 6.79-3.83c4.45.81 11.55 1.81 19.37 1.81h.16c7.82 0 14.92-1 19.37-1.81 2.9-.53 5.76 1.08 6.79 3.83 1.75 4.66 5.22 19.96 6.2 24.36.08.36.58.39.71.05l2.98-7.67c.02.01 9.33-51.89-36.11-52.13z"/><radialGradient id="c" cx="63.994" cy="80.901" r="38.092" gradientTransform="matrix(1 0 0 -1.1282 0 138.37)" gradientUnits="userSpaceOnUse"><stop offset=".794" style="stop-color:#554138;stop-opacity:0"/><stop offset="1" style="stop-color:#554138"/></radialGradient><path style="fill:url(#c)" d="M100.14 56.17s-2.05 5.37-2.98 7.73c-.13.33-.62.3-.7-.06-.96-4.32-4.45-19.73-6.22-24.42-1.03-2.75-3.89-4.36-6.79-3.83C79 36.4 71.9 37.4 64.08 37.4h-.17c-7.83 0-14.92-1-19.37-1.81a6.091 6.091 0 0 0-6.8 3.83c-1.75 4.67-5.23 19.99-6.21 24.38-.08.35-.57.38-.71.05l-2.97-7.68s-2.16-12.03.67-24.54c.87-3.8 2.19-7.65 4.18-11.21 4.38-7.86 11.99-14.36 24.98-15.99.09-.01.18-.03.27-.04h.03c1.26-.15 2.56-.25 3.92-.31.68-.03 1.37-.05 2.08-.05h.03c16.89.09 26.22 7.32 31.26 16.37 2 3.56 3.33 7.41 4.19 11.22 2.84 12.51.68 24.55.68 24.55z"/><linearGradient id="d" gradientUnits="userSpaceOnUse" x1="63.99" y1="113.799" x2="63.99" y2="103.315" gradientTransform="matrix(1 0 0 -1 0 128)"><stop offset=".253" style="stop-color:#fff"/><stop offset="1" style="stop-color:#e0e0e0"/></linearGradient><path style="fill:url(#d)" d="M99.46 31.62c-3.31-2.03-16.93-9.63-35.46-9.63-18.58 0-32.22 7.64-35.48 9.64.87-3.8 2.19-7.65 4.18-11.21 3.07-1.53 14.5-6.58 31.3-6.58 16.73 0 28.13 5 31.27 6.56 2 3.56 3.33 7.41 4.19 11.22z"/></svg>