<svg xmlns="http://www.w3.org/2000/svg" viewBox="0 0 128 128" style="enable-background:new 0 0 128 128" xml:space="preserve"><linearGradient id="a" gradientUnits="userSpaceOnUse" x1="132.526" y1="67.368" x2="19.038" y2="22.531" gradientTransform="matrix(1 0 0 -1 0 128)"><stop offset=".017" style="stop-color:#0288d1"/><stop offset="1" style="stop-color:#29b6f6"/></linearGradient><path style="fill:url(#a)" d="M67.5 56.17C40.75 72.32 4 82.77 4 82.77V124h120V4c-3.17 4.5-22.83 31.83-56.5 52.17z"/><linearGradient id="b" gradientUnits="userSpaceOnUse" x1="22.569" y1="6.881" x2="120.974" y2="75.704" gradientTransform="matrix(1 0 0 -1 0 128)"><stop offset=".013" style="stop-color:#1c3aa9;stop-opacity:0"/><stop offset=".258" style="stop-color:#1c3aa9;stop-opacity:.9998"/><stop offset=".724" style="stop-color:#1c3aa9;stop-opacity:.9998"/><stop offset=".764" style="stop-color:#1c3aa9;stop-opacity:.9998"/><stop offset="1" style="stop-color:#1c3aa9;stop-opacity:0"/></linearGradient><path style="opacity:.65;fill:url(#b);enable-background:new" d="M117.9 66.75c2.22-2.47 2.29-4.54 1.52-5.03-.42-.26-1.9-1.01-3.84-.34-3.03 1.04-7.81 3.1-7.81 3.1s3.68-5.79 6.04-11.01c2.27-5.03-2.03-5.94-9.38 1.13-1.79 1.73-7.73 7.6-7.73 7.6s2.65-5.48 3.04-7.24c.29-1.34-.63-2.29-2.53-.9-4.35 3.19-14.3 14.91-15.51 14.56-1.21-.35.43-5.31-1.37-5.09-1.74.21-3.46 3.32-4.24 4.48-1.3 1.92-2.15 3.03-4.16 4.17-.98.55-2.06.86-3.18.99-3.7.4-5-1.55-6.87-.82-3.25 1.26-2.53 4.79-4.95 4.52-.58-.07-1.68-.41-2.27-.41-2.42 0-7.98 6.35-12.68 11.75-18.19 11.3-25.26 21.91-21.05 28.03 5.57 8.09 23.2 3.5 39.18-6.16 5.66-3.42 11.86-8.06 17.67-12.84 2.96-.96 5.93-1.88 8.88-2.82 5.86-1.89 3.72-2.74 4.82-3.77 2.43-2.28 7.94.67 9.7-3.38.42-.97-1.25-1.2-.52-2.17.89-1.16 6.01-2.43 8.2-3.13 10.25-3.3 8.64-6.09 4.32-6.36-1.22-.08-5.87.3-5.87.3s7.14-5.33 10.59-9.16z"/><linearGradient id="c" gradientUnits="userSpaceOnUse" x1="111.458" y1="76.164" x2="121.763" y2="76.164" gradientTransform="matrix(1 0 0 -1 0 128)"><stop offset="0" style="stop-color:#1c3aa9"/><stop offset=".911" style="stop-color:#1c3aa9;stop-opacity:.0889"/><stop offset="1" style="stop-color:#1c3aa9;stop-opacity:0"/></linearGradient><path style="opacity:.65;fill:url(#c);enable-background:new" d="M111.46 56.15s4.25-9.01 8.16-8.63c7.79.77-8.16 8.63-8.16 8.63z"/><linearGradient id="d" gradientUnits="userSpaceOnUse" x1="103.417" y1="42.503" x2="118.303" y2="42.503" gradientTransform="matrix(1 0 0 -1 0 128)"><stop offset="0" style="stop-color:#1c3aa9"/><stop offset=".911" style="stop-color:#1c3aa9;stop-opacity:.0889"/><stop offset="1" style="stop-color:#1c3aa9;stop-opacity:0"/></linearGradient><path style="opacity:.65;fill:url(#d);enable-background:new" d="M103.42 84.99s10.43-2.25 13.43-1.06c3 1.18 1.13 3.62-3.34 3.48s-10.09-2.42-10.09-2.42z"/><linearGradient id="e" gradientUnits="userSpaceOnUse" x1="76.49" y1="90.693" x2="112.694" y2="119.957" gradientTransform="scale(1 -1) rotate(1.387 7214.64 -42.65)"><stop offset="0" style="stop-color:#e3f2fd"/><stop offset="1" style="stop-color:#90caf9"/></linearGradient><path style="fill:url(#e)" d="M33.94 95.1s14.17-18.56 17.75-18.67c.58-.02 1.91.3 2.49.34 2.44.19 2.6-3.69 5.8-5.06 1.85-.79 2.21 1.49 5.89.96 1.11-.16 2.18-.51 3.14-1.09 1.97-1.21 2.79-2.35 4.02-4.31.74-1.18 2.35-4.35 4.08-4.62 1.79-.28.32 4.73 1.54 5.04 1.22.31 10.76-11.74 15-15.08 1.85-1.45 2.81-.54 2.56.81-.33 1.77-2.79 7.34-2.79 7.34s5.74-6.08 7.47-7.86c7.1-7.32 11.44-6.55 9.33-1.45-2.18 5.3-5.66 11.21-5.66 11.21s4.7-2.22 7.7-3.36c1.92-.73 3.43-.03 3.85.21.79.46.79 2.54-1.35 5.08-3.33 3.95-10.27 9.5-10.27 9.5s4.63-.54 5.85-.5c4.33.12 6.03 2.86-4.1 6.5-2.16.78-7.24 2.22-8.09 3.41-.7.99.98 1.16.59 2.15-1.62 4.1-7.23 1.34-9.58 3.7-1.07 1.07 1.11 1.85-4.69 3.94-6.83 2.46-13.85 4.69-20.32 7.97L33.94 95.1z"/><path style="fill:#e3f2fd" d="M111.81 55.39s2.92-9.52 6.85-9.7c7.81-.37-6.85 9.7-6.85 9.7zm-8.3 29.6s10.01-3.66 13.15-2.91 1.62 3.43-2.82 3.91c-4.45.48-10.33-1-10.33-1z"/><linearGradient id="f" gradientUnits="userSpaceOnUse" x1="36.393" y1="169.542" x2="102.171" y2="196.241" gradientTransform="scale(1 -1) rotate(4.497 3552.913 -62.05)"><stop offset="0" style="stop-color:#fff176"/><stop offset="1" style="stop-color:#ffeb3b"/></linearGradient><path style="fill:url(#f)" d="M17.56 113.17c5.25 8.3 23.37 4.26 40.05-4.93 17.41-9.59 40.04-29.64 42.65-33.23 2.75-3.79 3.26-7.69 2.29-8.91-1.46-1.83-6.95-2.73-12.45-.91-5.32 1.76-33.2 11.76-45.26 18.03-22.33 11.63-31.56 23.19-27.28 29.95z"/><linearGradient id="g" gradientUnits="userSpaceOnUse" x1="54.776" y1="77.394" x2="19.52" y2="61.354" gradientTransform="scale(1 -1) rotate(1.387 7214.64 -42.65)"><stop offset="0" style="stop-color:#00bfa5"/><stop offset=".457" style="stop-color:#65eeae"/><stop offset="1" style="stop-color:#b9f6ca"/></linearGradient><path style="fill:url(#g)" d="M103 68.25c.05-.96-.1-1.72-.44-2.15-.65-.81-2.14-1.42-4.02-1.71-11.02 5.47-58.1 28.47-77.64 37.5-1.38.64-2.53 1.37-3.16 3.17-1.42 3.36-1.72 5.68-.18 8.11 1.98 3.12 6.3 4.93 12.29 4.46 0 0 .45-1.34 1.61-2.11 1.16-.76 71.54-47.27 71.54-47.27z"/><linearGradient id="h" gradientUnits="userSpaceOnUse" x1="94.755" y1="105.493" x2="30.825" y2="68.2" gradientTransform="scale(1 -1) rotate(1.387 7214.64 -42.65)"><stop offset="0" style="stop-color:#b9f6ca"/><stop offset="1" style="stop-color:#fffde7"/></linearGradient><path style="fill:url(#h)" d="M100.46 64.85c-8.06 4.26-63.04 32.77-81.3 42.28-1.11.58-2.62 2.17-2.62 2.17s-.23 1.91 1.02 3.88c.82 1.28 2.27 2.57 3.95 3.3 0 0 .79-1.45 1.52-1.89l79.53-48.48c-.41-.52-1.15-.94-2.1-1.26z"/><linearGradient id="i" gradientUnits="userSpaceOnUse" x1="-1.128" y1="598.374" x2="55.304" y2="620.033" gradientTransform="matrix(.9519 -.2355 -.0828 -.8139 95.16 586.607)"><stop offset="0" style="stop-color:#1c3aa9;stop-opacity:.1"/><stop offset="1" style="stop-color:#1c3aa9"/></linearGradient><path style="opacity:.53;fill:url(#i);enable-background:new" d="M85.61 76.22c-2.06-3.71-12.95-1.59-24.32 4.72-11.37 6.32-18.92 14.45-16.86 18.16 2.06 3.71 12.95 1.59 24.32-4.72s18.93-14.45 16.86-18.16z"/><linearGradient id="j" gradientUnits="userSpaceOnUse" x1="267.157" y1="855.183" x2="270.329" y2="863.888" gradientTransform="scale(1 -1) rotate(26.468 2186.995 -75.949)"><stop offset=".6" style="stop-color:#a56c43"/><stop offset="1" style="stop-color:#8d5738"/></linearGradient><path style="fill:url(#j)" d="M50.03 87.66c-.28.75-1.5 2.19-1.39 4.21.13 2.45.4 7.25.53 7.61.31.86.83.85 1.14.75.62-.19.38-1.3.38-1.3s.07 1.47.9 1.28c1.08-.26.44-1.56.41-1.72.05.18.56 1.86 1.14 1.71 1.02-.27.44-1.93.44-1.93s.26 2.04 1.27 1.71c1.11-.37.53-1.93.53-1.93s.5 1.51.7 1.77c.53.69 1.78-.03 1.79-.81.01-.63-.76-1.76-1.08-2.98-.83-3.18-1.38-5.34-.97-6.72"/><linearGradient id="k" gradientUnits="userSpaceOnUse" x1="64.308" y1="189.865" x2="64.008" y2="179.435" gradientTransform="scale(1 -1) rotate(4.129 3703.606 -45.03)"><stop offset=".602" style="stop-color:#a56c43"/><stop offset="1" style="stop-color:#8d5738"/></linearGradient><path style="fill:url(#k)" d="M55.66 90.19c.28-2.94 7.3-10.63 7.3-10.63 2.05-2.65 2.22-4.59 2.02-6.98l-1.39-14.62-11.43.83 2.34 16.65C50.8 81 52 84.03 49.38 88.87"/><path style="fill:#875334" d="M85.08 64.23c.9-1.82 1.09-3.57.56-5.08a5.02 5.02 0 0 0-2.6-2.88c-1.4-.65-11.75-3.98-12.19-4.12a.384.384 0 0 0-.43.16l-4.75 8.14c-.06.1-.07.21-.03.31.04.1.12.18.22.22l10.73 3.62-4.16 10.35c-.39.99-.35 2.08.1 2.9.29.54.73.89 1.23 1 1.48.29 2.89.42 4.25.54 1.15.1 2.24.2 3.36.39 1.04.18 1.75.24 2.24.24.66 0 .93-.11 1.09-.24.1-.07.22-.21.24-.43.04-.45-.11-.77-.32-.99.09-.13.18-.33.13-.61-.07-.47-.35-.75-.63-.9.02-.09.02-.18 0-.29-.04-.31-.1-.69-5.51-2.76.65-1.06 1.6-2.38 2.61-3.77 1.53-2.05 3.07-4.18 3.86-5.8z"/><path style="fill:#7c7c7c" d="M53.1 49.94s-3.08 4.39-2.12 11.43c.38 2.76 2.77 12.01 2.77 12.01s10.69-.32 13.87-4.94c0 0-2.9-4.24-2.6-7.01l9.14 2.26s5.65-5.68 4.27-10.84c0 0-5.5-.35-8.43-3.71-1.06-1.22-16.9.8-16.9.8z"/><linearGradient id="l" gradientUnits="userSpaceOnUse" x1="28.844" y1="80.097" x2="59.124" y2="80.097" gradientTransform="matrix(1 0 0 -1 0 128)"><stop offset=".598" style="stop-color:#a56c43"/><stop offset="1" style="stop-color:#8d5738"/></linearGradient><path style="fill:url(#l)" d="M57.46 39.49c-.05.13-.15.22-.27.27l-13.28 5.55c-.6 1.2-1.8 3.15-2.97 5.04-1.11 1.8-2.16 3.5-2.43 4.14-.14.33-.03 1.09.08 1.81.07.41.13.84.17 1.28.12 1.22-.82 3.63-1.49 3.85-.27.09-.59.02-.89-.17-.37-.23-.61-.6-.66-.98-.04-.39.02-.84.07-1.26.03-.18.05-.36.07-.54-.95.96-1.52 1.72-2.02 2.41-.28.38-.48 1.08-.66 1.71-.29 1.04-.55 1.95-1.13 2.22-.28.14-.55.2-.8.2-.05 0-.1 0-.15-.01-.13-.01-.25-.04-.36-.09s-.25-.13-.38-.25c-.14-.13-.28-.32-.39-.58l-.09-.06c-.2-.13-.47-.36-.68-.72-.15-.24-.27-.55-.33-.92-.07-.47.02-1.23.05-1.45-.02-.32-.04-1.73.91-3.57.49-.95 1.11-1.81 1.72-2.63.62-.84 1.25-1.71 1.73-2.66.38-.77 1.42-3.43 2.43-6 .47-1.2.93-2.38 1.32-3.36 1.01-2.52 2.79-3.64 2.87-3.69.26-.18 6.85-4.76 8.8-5.97 1.64-1.01 7.05-2.55 9.26-2.23.38.06.69.27.89.61.99 1.71-.99 7.01-1.39 8.05z"/><path style="fill:#875334" d="M32.92 58.24c-1.29 1.66-1.7 4.71-1.82 6.77-.13-.01-.25-.04-.36-.09s-.25-.13-.38-.25c.15-2.13.61-5.15 1.97-6.89a.39.39 0 0 1 .53-.07c.16.13.19.37.06.53zm-1.38-.51c-.98.97-1.49 4.56-1.66 6.3-.2-.13-.47-.36-.68-.72.2-1.74.7-5.02 1.82-6.11.15-.15.39-.14.53 0 .14.15.14.39-.01.53zM101.8 39c-1.05-.42-2.8-.81-3.88-.94-.53-.07-1.61.07-2.86.23-1.38.18-2.95.38-3.58.26-.09-.02-.44-.07-.94-.15-1.74-.26-6.29-.96-7.1-1.28-.49-.44-4.22-3.81-6-4.95-1.25-.8-2.84-1.61-5.76-.97a.38.38 0 0 0-.29.46c.04.19.22.31.41.3l.49 6.35c-.13.01-.25.08-.31.19-.1.19-.03.42.15.52.04.02 4.12 2.23 7.19 3.58 2.24.99 3.46.95 5.44.81 1.01-.08 4.42-.35 7.09-.75.27.28.89.74 2.21.9.04.01.1.01.18.01.85 0 3.54-.35 3.93-.42.56-.11.98-.6.96-1.13-.01-.37-.26-.8-.93-.88-.18-.02-.35-.05-.51-.08l.81-.21c.02 0 1.8-.04 2.33-.01.64.03 1.24-.04 1.46-.77a.89.89 0 0 0-.49-1.07z"/><linearGradient id="m" gradientUnits="userSpaceOnUse" x1="59.075" y1="150.527" x2="71.74" y2="155.677" gradientTransform="scale(1 -1) rotate(2.011 5574.247 -51.988)"><stop offset="0" style="stop-color:#651fff"/><stop offset=".705" style="stop-color:#5914f2"/><stop offset="1" style="stop-color:#530eeb"/></linearGradient><path style="fill:url(#m)" d="M81.43 33.84s-4.15-3.74-8.51-4.31c-1.3-.17-4.04-.82-4.95-.89 0 0 1.64 1.86.88 3.46-.7 1.47-2.49 3.36-5.26 1.72-2.78-1.64 1.14-5.49 1.14-5.49-1.73.14-7.13 1.36-9.39 1.86-3.74.82-9.46 2.58-9.46 2.58-.97 5.12 4.01 10.01 4.01 10.01l3.38-.86c.27 3.8-1.37 10-2.47 13.29 0 0 2.86 2.95 12-.73 4.38-1.76 7.56-5.06 8.92-7.14 1.45-2.22 2.68-4.21 3.57-7.57 4.85-.99 6.14-5.93 6.14-5.93z"/><path style="fill:#a56c43" d="M71.48 25.96c-.76 1.07-1.81 2.38-2.07 4.22-.18 1.28-.61 3.64-2.65 4.31-3.48 1.15-4.68-1.87-4.68-1.87-.49 0-.97-.02-1.44-.09-3.12-.4-4.03-1.81-4.39-3.11-.11-.4-.17-.79-.22-1.14-.09-.5-.16-.91-.37-1.12-.17-.16-2.21-.67-2.06-1.64.2-1.29 2.39-2.56 2.15-3.7-.03-.31-.34-1.25-.38-1.38-.32-1.09-.44-2.64-.28-4.2.46-4.32 2.82-7.84 7.48-8.85 4.16-.9 9.37 1.66 11.79 5.17 1.54 2.25-.61 10.18-2.88 13.4z"/><path style="fill:#473530" d="M58.47 28.71c-.57.47-1.49.69-2.22.71-.11-.4-.17-.79-.22-1.14.61.03 1.4-.1 1.81-.3.78-.38 1.31.18.63.73z"/><ellipse transform="rotate(-4.656 59.194 22.28)" style="fill:#42312c" cx="59.19" cy="22.29" rx="1.01" ry="1.55"/><path style="fill:#42312c" d="M58.4 20.24c-.92.46-1.26-.14-1.03-.71.17-.42.7-.84 1.87-.83 1.1.02 1.65.55 2.01.87.35.32.39.7.15.78-.33.1-1.87-.68-3-.11z"/><path style="opacity:.28;fill:#0d47a1;enable-background:new" d="M102.56 66.1c-.61-.76-1.92-1.36-3.63-1.67 0 0 2.06.81 2.43 2.7.37 1.89.07 3.17-2.71 6.7-2.46 3.12-24.85 23.21-42 32.65-10.45 5.75-21.06 9.19-28.39 9.19-4.47 0-7.92-1.53-9.43-3.89-1.12-1.74-1.43-4.26-1.1-6.69-1.5 3.1-1.57 5.85-.16 8.07 1.99 3.14 5.81 4.51 10.7 4.51 8.05 0 18.98-3.72 29.36-9.44C75.04 98.64 97.67 78.59 100.28 75c2.74-3.78 3.25-7.67 2.28-8.9z"/><radialGradient id="n" cx="87.276" cy="114.671" r="9.896" gradientTransform="matrix(1 0 0 -1 0 128)" gradientUnits="userSpaceOnUse"><stop offset="0" style="stop-color:#554138"/><stop offset="1" style="stop-color:#3c2c23"/></radialGradient><path style="fill:url(#n)" d="M74.52 11.05c.88-2.45 4-4.13 7.65-2.74 1.96.75 3.33 1.6 4.87 2.11 9.7 3.19 12.99-2.85 12.99-2.85s-.17 2.34-1.65 4.88c-1.99 3.41-6.07 7.22-12.65 6.58-6.43-.63-9.39-3.62-9.39-3.62l-1.82-4.36z"/><path style="fill:#3c2c23" d="M66.94 22.09c.11-.44.33-1.25.5-1.63.58-1.28 1.63-.88 1.64-.88 1.42.42 2.05 3.24-.16 5.01-.05.04-.18.14-.1.43.18.71.86 1.99 1.77 2.27.7.22 1.56-1.05 2.77-2.71 1.28-1.74 2.93-4.05 3.37-6.68 1.15-6.9-5.17-10.98-11.1-10.99-5.34-.01-12.38 2.65-11.82 9.42.1 1.24 1.25 1.47 1.25 1.47s.79-2.72 4.26-1.98c3.49.75 4.98-.07 4.98-.07-1.04 2.77.06 4.22 1 5.03.54.46 1.04 1.02 1.33 1.34.14.18.26.16.31-.03z"/><radialGradient id="o" cx="65.321" cy="110.884" r="12.558" gradientTransform="matrix(1 0 0 -1 0 128)" gradientUnits="userSpaceOnUse"><stop offset=".526" style="stop-color:#554138;stop-opacity:0"/><stop offset="1" style="stop-color:#554138"/></radialGradient><path style="fill:url(#o)" d="M66.94 22.09c.11-.44.33-1.25.5-1.63.58-1.28 1.63-.88 1.64-.88 1.42.42 2.05 3.24-.16 5.01-.05.04-.18.14-.1.43.18.71.86 1.99 1.77 2.27.7.22 1.56-1.05 2.77-2.71 1.28-1.74 2.93-4.05 3.37-6.68 1.15-6.9-5.17-10.98-11.1-10.99-5.34-.01-12.38 2.65-11.82 9.42.1 1.24 1.25 1.47 1.25 1.47s.79-2.72 4.26-1.98c3.49.75 4.98-.07 4.98-.07-1.04 2.77.06 4.22 1 5.03.54.46 1.04 1.02 1.33 1.34.14.18.26.16.31-.03z"/><radialGradient id="p" cx="86.334" cy="117.819" r="13.365" gradientTransform="matrix(.9973 -.0734 -.051 -.6932 6.242 98.187)" gradientUnits="userSpaceOnUse"><stop offset=".85" style="stop-color:#554138;stop-opacity:0"/><stop offset="1" style="stop-color:#554138"/></radialGradient><path style="fill:url(#p)" d="M100.05 7.53s-.17 2.34-1.65 4.87c-1.99 3.42-6.07 7.22-12.64 6.58-6.43-.63-9.39-3.62-9.39-3.62l-.04-.1c19.99 2.74 23.49-7 23.7-7.69.02-.03.02-.04.02-.04z"/><radialGradient id="q" cx="88.666" cy="121.769" r="13.102" gradientTransform="matrix(1 0 0 -.5831 0 77.235)" gradientUnits="userSpaceOnUse"><stop offset=".658" style="stop-color:#554138"/><stop offset="1" style="stop-color:#554138;stop-opacity:0"/></radialGradient><path style="fill:url(#q)" d="M100.03 7.57c-.21.69-3.71 10.43-23.7 7.69l-.95-2.25-.84-2c.89-2.45 4.01-4.13 7.66-2.74 1.96.75 3.33 1.6 4.86 2.11.02.01.05.02.07.02 9.17 2.99 12.58-2.3 12.9-2.83z"/></svg>