<svg xmlns="http://www.w3.org/2000/svg" viewBox="0 0 1000 1000"><path fill="#00267f" d="M8 195.25c170.83-85.22 341.03-54.42 513.26-27.97 155.21 23.84 312.16 44.57 470.74-34.53v672c-170.83 85.22-341.03 54.42-513.26 27.97C323.53 808.88 166.58 788.15 8 867.25v-672"/><path fill="#ffc726" d="M336 142.59c108.23 8.92 216.47 33.62 328 42.82v672c-108.23-8.92-216.47-33.62-328-42.82v-672"/><path d="M500 337.21c-10.7 28.23-21.58 57.24-44.77 77.65 7.3-1.3 19.76-1.55 27.96-.16v125.25l-34.52.02c-1.23-.51-1.6-2.19-1.64-5.03-3.38-39.39-12.3-73.35-22.63-108.63-1.19-5.15-13.62-23.5-3.73-19.66 1.64.64 14.02 7.81 12.58 4.87-18.55-22.15-45.12-39.6-71.3-46.61-2.4-.7-3.51.09-1.6 3.16 34.63 58.22 63.41 126.68 63.31 203.08 13.46 1.75 46.02-1.28 59.53.68v88.36l17.02 2.63 3.89-246.19-4.1-79.42"/><path d="M500 337.21c10.68 31.48 21.59 64.02 44.77 91.35-7.29-3.48-19.8-7.53-27.96-8.66v125.24l34.52 10.48c1.26-.15 1.6-1.7 1.64-4.54 3.38-38.42 12.3-69.74 22.63-102.13 1.21-4.93 13.51-19.74 3.74-18.64-1.77.21-13.98 3.78-12.59 1.34 18.53-16.84 45.1-27.16 71.3-28.74 2.4-.2 3.51.81 1.6 3.48-34.63 51.14-63.41 111.02-63.31 187.6-13.42-2-46.05-14.76-59.53-16.97v88.37l-17.01-2.63-3.9-247.39 4.1-78.16"/><path fill="#1A1A1A" opacity=".2" d="M8 195.25c170.83-85.22 341.03-54.42 513.26-27.97 155.21 23.84 312.16 44.57 470.74-34.53v672c-170.83 85.22-341.03 54.42-513.26 27.97C323.53 808.88 166.58 788.15 8 867.25v-672m31.25 19.39v604.5c306.56-128.26 611.18 96.04 921.5-33.78v-604.5c-306.56 128.26-611.18-96.04-921.5 33.78"/></svg>