<svg xmlns="http://www.w3.org/2000/svg" viewBox="0 0 128 128" style="enable-background:new 0 0 128 128" xml:space="preserve"><path style="fill:#2f7889" d="M119.3 32.62 107.02 18c-7.12-8.48-19.81-9.58-28.29-2.46s-9.58 19.81-2.46 28.29l12.29 14.63c7.12 8.48 19.81 9.58 28.29 2.46s9.57-19.82 2.45-28.3zm-24 21.8c-1.88-2.24-2.7-4.99-2.72-7.73-.02-3.14-1.97-6.62-5.57-7.26-2.71-.48-4.18.04-5.61-1.56-4.7-5.25-3.33-13.75 2.88-17.92 4.57-3.07 10.72-2.73 14.75.79 2.01 1.76 1.48 3.93 1.8 7.41.33 3.52 2.33 5.59 6.28 6.41 3.19.67 6.2 2.36 8.09 5.44 2.8 4.55 2.05 10.69-1.77 14.66-5.16 5.41-13.6 5.16-18.13-.24zm-73 49.16 13.05 15.53c.36.43.9.68 1.47.68.46 0 .91-.16 1.26-.46l4.86-4.15c.39-.33.64-.8.69-1.31.05-.52-.1-1.02-.44-1.42l-5.21-6.2c-.45-.53-.38-1.33.15-1.78l3.13-2.63c.53-.45 1.33-.38 1.78.15l5.21 6.2c.36.43.9.68 1.47.68.46 0 .91-.16 1.26-.46l4.96-4.17c.82-.69.94-1.91.25-2.73l-13-15.48-20.89 17.55z"/><path style="fill:#90a4af" d="m117.03 29.99-12.29-14.63c-7.12-8.48-19.81-9.58-28.29-2.46s-9.58 19.81-2.46 28.29l2.95 3.51-6.4 5.38-.07-.09-4.98-2.59c-.47-.25-1.05-.18-1.46.16l-2.61 2.19a1.3 1.3 0 0 0-.46 1.2c.33 2.39 1.98 5.52 1.98 5.52L4.22 105.8s-1.13 1.55 1.77 5 4.62 2.6 4.62 2.6l11.7-9.83 11.96 14.24c.36.43.9.68 1.47.68.46 0 .91-.16 1.26-.46l4.86-4.15c.39-.33.64-.8.69-1.31.05-.52-.1-1.02-.44-1.42l-5.21-6.2c-.45-.53-.38-1.33.15-1.78l3.13-2.63c.53-.45 1.33-.38 1.78.15l5.21 6.2c.36.43.9.68 1.47.68.46 0 .91-.16 1.26-.46l4.96-4.17c.82-.69.94-1.91.25-2.73L43.2 86.02l26.13-21.96s2.44 1.82 5.08 2.83c.45.17.96.09 1.33-.22l2.55-2.14c.41-.35.57-.91.41-1.42l-1.76-5.44 6.4-5.38 2.95 3.51c7.12 8.48 19.81 9.58 28.29 2.46 8.47-7.11 9.57-19.8 2.45-28.27zm-5.86 22.05c-5.18 5.4-13.62 5.14-18.15-.25a11.638 11.638 0 0 1-2.72-7.73 4.77 4.77 0 0 0-4.03-4.8c-2.71-.43-5.27-1.78-7.15-4.01-4.53-5.39-3.33-13.75 2.88-17.92 4.57-3.07 10.74-2.75 14.75.79 2.71 2.39 4 5.65 3.97 8.91-.02 2.48 1.68 4.5 4.12 4.91 3.22.53 6.2 2.36 8.09 5.44 2.81 4.55 2.06 10.68-1.76 14.66z"/><path style="fill:#2f7889" d="m62.94 56.46-2.38 2s2.73 1.81 3.24 4.5c.52 2.7-.69 6.32-.69 6.32l6.21-5.22s-1.11-.67-3.15-3.24c-2.03-2.57-3.23-4.36-3.23-4.36zM76.95 44.7l-1.94 1.63s2.67 2.28 3.01 5.01c.34 2.73-1.08 6.34-1.08 6.34l6.4-5.38-6.39-7.6z"/><path style="fill:#b9e4ea" d="M64.97 48.43c.48.16 5.3 2.67 5.3 2.67l5.12 9.72s-3.4-1.22-6.45-5.66-3.97-6.73-3.97-6.73zm29.01-34.39c-.33.06-.68.03-1.01-.1-3.15-1.23-6.8-1.02-9.79.57a1.864 1.864 0 0 1-1.75-3.29c3.93-2.09 8.75-2.37 12.9-.75.96.38 1.43 1.46 1.05 2.41-.24.63-.78 1.05-1.4 1.16z"/><path style="fill:#2f7889" d="M24.29 104.58c-.66-.79-1.14-1.47-.36-2.13L41.12 88c1.17-.98 1.76-1.01 2.42-.22.66.79.61 1.45-.58 2.67L26.32 105.3c-.78.66-1.37.06-2.03-.72z"/><path style="fill:#b9e4ea" d="M8.9 106.3c-.31-1.45 1.34-2.75 1.87-3.19l36.35-30.54c.82-.69 1.44-.76 1.64.25.14.71-1.91 2.62-2.44 3.07l-35.17 31.09c-.53.43-1.95.72-2.25-.68z"/></svg>