<svg xmlns="http://www.w3.org/2000/svg" viewBox="0 0 128 128" style="enable-background:new 0 0 128 128" xml:space="preserve"><radialGradient id="a" cx="83.965" cy="20.935" r="104.531" gradientUnits="userSpaceOnUse"><stop offset=".244" style="stop-color:#e1f5fe"/><stop offset=".402" style="stop-color:#cfeefc"/><stop offset=".716" style="stop-color:#a0ddf8"/><stop offset=".957" style="stop-color:#78cef5"/></radialGradient><path style="fill:url(#a)" d="M11.57 11.44h104.9v104.9H11.57z"/><linearGradient id="b" gradientUnits="userSpaceOnUse" x1="54.325" y1="46.243" x2="48.872" y2="25.222"><stop offset=".113" style="stop-color:#fff;stop-opacity:0"/><stop offset=".868" style="stop-color:#fff"/></linearGradient><path style="fill:url(#b)" d="M90.95 11.44 11.53 50.19l.09 45.86 89.3-84.61z"/><linearGradient id="c" gradientUnits="userSpaceOnUse" x1="83.469" y1="77.035" x2="58.667" y2="51.154"><stop offset=".113" style="stop-color:#fff;stop-opacity:0"/><stop offset=".868" style="stop-color:#fff"/></linearGradient><path style="fill:url(#c)" d="m105.56 11.44-80.1 105.1 48.94-.2 42.07-96.42v-8.48z"/><linearGradient id="d" gradientUnits="userSpaceOnUse" x1="63.902" y1="68.618" x2="44.204" y2="42.012"><stop offset=".229" style="stop-color:#fff;stop-opacity:0"/><stop offset=".719" style="stop-color:#fff"/></linearGradient><path style="fill:url(#d)" d="M11.61 93.25 98 11.44h11.23L22 116.56l-10.43-.22z"/><path style="fill:#d68b52" d="M4 7.53v112.93a3.53 3.53 0 0 0 3.53 3.53h112.93a3.53 3.53 0 0 0 3.53-3.53V7.53A3.53 3.53 0 0 0 120.46 4H7.53A3.53 3.53 0 0 0 4 7.53zm54.01 52.66H17.14c-1.15 0-2.08-.93-2.08-2.08V16.56c0-1.15.93-2.08 2.08-2.08h40.87c1.15 0 2.08.93 2.08 2.08v41.56c0 1.14-.93 2.07-2.08 2.07zm52.76 0H69.9c-1.15 0-2.08-.93-2.08-2.08V16.56c0-1.15.93-2.08 2.08-2.08h40.87c1.15 0 2.08.93 2.08 2.08v41.56c0 1.14-.93 2.07-2.08 2.07zm-52.76 53.34H17.14c-1.15 0-2.08-.93-2.08-2.08V69.89c0-1.15.93-2.08 2.08-2.08h40.87c1.15 0 2.08.93 2.08 2.08v41.56c0 1.15-.93 2.08-2.08 2.08zm52.76 0H69.9c-1.15 0-2.08-.93-2.08-2.08V69.89c0-1.15.93-2.08 2.08-2.08h40.87c1.15 0 2.08.93 2.08 2.08v41.56c0 1.15-.93 2.08-2.08 2.08z"/><path style="fill:#ffccbc" d="M69.15 58.63V17.89l-3.18-4.18v48.1h48.1l-4.17-3.17z"/><path style="fill:#b25b47" d="M65.97 13.71v10.46l3.18-3.19v-3.09h40.75v40.75l4.17 3.17v-48.1z"/><linearGradient id="e" gradientUnits="userSpaceOnUse" x1="65.793" y1="27.07" x2="70.129" y2="31.406"><stop offset="0" style="stop-color:#b25b47"/><stop offset="1" style="stop-color:#b25b47;stop-opacity:0"/></linearGradient><path style="fill:url(#e)" d="M65.97 22.8v15.29l3.18-3.18V19.59z"/><path style="fill:#ffccbc" d="M18.1 17.89h40.75v40.75H18.1V17.89m-4.17-4.18v48.1h48.1v-48.1h-48.1z"/><path style="fill:#b25b47" d="M13.93 13.71v17.98l4.17-3.17V17.97l.04-.08h40.71v40.75l3.18 3.17v-48.1z"/><linearGradient id="f" gradientUnits="userSpaceOnUse" x1="14.14" y1="34.577" x2="18.746" y2="39.184"><stop offset="0" style="stop-color:#b25b47"/><stop offset="1" style="stop-color:#b25b47;stop-opacity:0"/></linearGradient><path style="fill:url(#f)" d="M13.93 30.41V45.7l4.17-3.18V27.2z"/><path style="fill:#ffccbc" d="M109.9 110.11H69.15V69.36h40.75v40.75m4.17 4.18v-48.1h-48.1v48.1h48.1z"/><path style="fill:#b25b47" d="M66.04 66.19h-.07v8.1h3.18v-4.93h40.75v40.67l4.17 4.17V66.19z"/><linearGradient id="g" gradientUnits="userSpaceOnUse" x1="64.633" y1="80.088" x2="69.867" y2="85.322"><stop offset="0" style="stop-color:#b25b47"/><stop offset="1" style="stop-color:#b25b47;stop-opacity:0"/></linearGradient><path style="fill:url(#g)" d="M65.97 73.77v18.5l3.18-3.19V73.77z"/><path style="fill:#ffccbc" d="M58.85 84.37v25.74l-40.75-.08V69.36h40.69l3.17-3.17H13.93v48.01l48.1-.1V81.09z"/><path style="fill:#b25b47" d="M61.96 66.19H13.93v16.83l4.17-.03V69.36h40.75v11.57h3.18V66.19z"/><linearGradient id="h" gradientUnits="userSpaceOnUse" x1="57.511" y1="86.809" x2="62.745" y2="92.043"><stop offset="0" style="stop-color:#b25b47"/><stop offset="1" style="stop-color:#b25b47;stop-opacity:0"/></linearGradient><path style="fill:url(#h)" d="M58.85 80.49v18.5l3.18-3.19V80.49z"/><linearGradient id="i" gradientUnits="userSpaceOnUse" x1="12.968" y1="88.761" x2="18.481" y2="94.274"><stop offset="0" style="stop-color:#b25b47"/><stop offset="1" style="stop-color:#b25b47;stop-opacity:0"/></linearGradient><path style="fill:url(#i)" d="M13.93 82.55v18.51l4.17-3.19V82.55z"/></svg>