<svg xmlns="http://www.w3.org/2000/svg" viewBox="0 0 128 128" style="enable-background:new 0 0 128 128" xml:space="preserve"><linearGradient id="a" gradientUnits="userSpaceOnUse" x1="98.149" y1="210.735" x2="107.764" y2="200.86" gradientTransform="rotate(-7.904 -853.05 480.157)"><stop offset=".225" style="stop-color:#814d3c"/><stop offset="1" style="stop-color:#51362d"/></linearGradient><path style="fill:url(#a)" d="M78.4 73.18 50.21 48.36l-.9.62-7.02 11.22s-6.29 2.84-7.05 2.65c-.75-.19-9.46-9.52-10.68-9.93-1.22-.41-4.7.14-6.48.46-1.42.26-6.11.9-5.72 2.76.22 1.06 2.05 1.68 4.55 1.33 2.29-.32 4.43-.54 4.43-.54s10.54 11.04 12.21 11.53c1.67.5 7.74-.78 10.39-1.59 2.65-.8 8.87-3.12 8.87-3.12l-2.65 3.93s-9.81 8.41-10.09 10.05c-.28 1.64 5.56 14.93 5.78 16.5.22 1.57-.73 5.19-.59 9.38.15 4.19-.17 10.65 1.9 9.48 1.35-.77 2.1-8.43 2.64-12.43.37-2.77.84-6.51.73-8.39-.11-1.87-3.68-11.84-3.75-12.34-.07-.5 6.32-3.71 7.07-4.54.76-.83 2.54-3.7 2.54-3.7l3.1 4.51s-4.97 13.98-4.69 15.97c.28 2 8.77 7.64 10.78 9.54 2.01 1.9 2.92 3.79 3.9 6.14 1.41 3.37 3.97 8.17 5.4 10.08 1.31 1.76 5.23 4.76 6.52 5.08 2.63.65-1.95-6.22-4.84-12.36-2.89-6.14-3.82-9.72-4.6-11.14-.78-1.42-9.32-7.41-9.44-8.27-.12-.86 4.63-9.13 4.63-9.13l11.25-8.93z"/><linearGradient id="b" gradientUnits="userSpaceOnUse" x1="68.826" y1="161.757" x2="68.826" y2="220.988" gradientTransform="rotate(-8.748 -774.789 432.973)"><stop offset=".201" style="stop-color:#cf7756"/><stop offset=".253" style="stop-color:#c87354"/><stop offset=".553" style="stop-color:#a15e47"/><stop offset=".794" style="stop-color:#8a523f"/><stop offset=".944" style="stop-color:#814d3c"/></linearGradient><path style="fill:url(#b)" d="M36.75 41.47s-.64 2.49-1.51 3.97c-.14.25-12.56-8.68-21.29-3.25-13.48 8.37 1.56 33.8.01 45.79-1.08 8.37-3.95 10.19-4.81 9.77-1.36-.66 2.77-4.12 1.36-15.16-1.6-12.48-12.87-33.18-.16-42.61 12.38-9.19 26.4 1.49 26.4 1.49z"/><linearGradient id="c" gradientUnits="userSpaceOnUse" x1="460.22" y1="-63.101" x2="469.836" y2="-72.976" gradientTransform="scale(-1 1) rotate(82.102 122.686 -317.568)"><stop offset=".228" style="stop-color:#814d3c"/><stop offset="1" style="stop-color:#51362d"/></linearGradient><path style="fill:url(#c)" d="M73.55 78.02 48.73 49.84l.62-.9 11.22-7.02s2.84-6.29 2.65-7.05c-.19-.75-9.52-9.46-9.93-10.68-.41-1.22.14-4.7.46-6.48.26-1.42.9-6.11 2.76-5.72 1.06.22 1.68 2.05 1.33 4.55-.32 2.29-.54 4.43-.54 4.43s11.04 10.54 11.53 12.21c.5 1.67-.78 7.74-1.59 10.39-.8 2.65-3.12 8.87-3.12 8.87l3.93-2.65s8.41-9.81 10.05-10.09c1.64-.28 14.93 5.56 16.5 5.78s5.19-.73 9.38-.59c4.19.15 10.65-.17 9.48 1.9-.77 1.35-8.43 2.1-12.43 2.64-2.77.37-6.51.84-8.39.73-1.87-.11-11.84-3.68-12.34-3.75-.5-.07-3.71 6.32-4.54 7.07-.83.76-3.7 2.54-3.7 2.54l4.51 3.1s13.98-4.97 15.97-4.69c2 .28 7.64 8.77 9.54 10.78 1.9 2.01 3.79 2.92 6.14 3.9 3.37 1.41 8.17 3.97 10.08 5.4 1.76 1.31 4.76 5.23 5.08 6.52.65 2.63-6.22-1.95-12.36-4.84-6.14-2.89-9.72-3.82-11.14-4.6-1.42-.78-7.41-9.32-8.27-9.44-.86-.12-9.13 4.63-9.13 4.63l-8.93 11.24z"/><linearGradient id="d" gradientUnits="userSpaceOnUse" x1="434.912" y1="-106.689" x2="434.912" y2="-47.458" gradientTransform="scale(-1 1) rotate(81.252 126.654 -319.667)"><stop offset=".201" style="stop-color:#cf7756"/><stop offset=".253" style="stop-color:#c87354"/><stop offset=".554" style="stop-color:#a15e47"/><stop offset=".795" style="stop-color:#8a523f"/><stop offset=".945" style="stop-color:#814d3c"/></linearGradient><path style="fill:url(#d)" d="M41.84 36.38s2.49-.64 3.97-1.51c.25-.14-8.68-12.56-3.25-21.29 8.37-13.48 33.8 1.56 45.79.01 8.37-1.08 10.19-3.95 9.77-4.81-.66-1.38-4.12 2.76-15.16 1.35-12.48-1.59-33.17-12.87-42.61-.15-9.19 12.38 1.49 26.4 1.49 26.4z"/><path style="fill:#cf7756" d="M105.69 118.48c-.63.08-1.25-.29-1.47-.9l-2.82-7.87c-.26-.72.12-1.51.83-1.77.72-.26 1.51.12 1.77.83l2.82 7.87c.26.72-.12 1.51-.83 1.77-.1.04-.2.06-.3.07zm13.25-13.24c.08-.63-.29-1.25-.9-1.47l-7.87-2.82c-.72-.26-1.51.12-1.77.83-.26.72.12 1.51.83 1.77l7.87 2.82c.72.26 1.51-.12 1.77-.83.03-.11.06-.2.07-.3zM42.78 57.91s-5.38-4.9-7.04-9.18c-1.46-3.77-1.8-7.46 2.12-11.32 4.36-4.29 8.78-3.66 13.15-1.61 3.53 1.65 7.98 6 7.98 6L42.78 57.91z"/><ellipse transform="rotate(-25.802 38.949 45.823)" style="fill:#2f2f2f" cx="38.95" cy="45.82" rx="2.3" ry="2.75"/><ellipse transform="rotate(-63.75 46.455 38.133)" style="fill:#2f2f2f" cx="46.45" cy="38.13" rx="2.3" ry="2.75"/><path style="fill:#2f2f2f" d="M42.56 37.68c-.16-1.08-2.65-.87-3.9.41-1.25 1.29-1.12 3.86-.03 3.91.91.04.77-1.53 1.67-2.44.9-.89 2.39-.98 2.26-1.88z"/><path style="fill:#734434" d="M62.89 43.2c-6.75-5.69-14.32-3.02-18.32.91-3.94 4.01-6.6 11.57-.91 18.32 6.59 7.83 12.43 6.12 12.43 6.12l8.23-4.69 4.69-8.23s1.7-5.84-6.12-12.43z"/><path style="fill:#cf7756" d="M59.99 62.34c-5.96-1.32-11.58 1.29-13.94 2.62 5.6 5.02 10.13 3.7 10.13 3.7l6.85-4.3s-1.13-1.59-3.04-2.02zm2.81-2.81c-1.32-5.96 1.29-11.58 2.62-13.94 5.02 5.6 3.7 10.13 3.7 10.13l-4.3 6.85c-.01.01-1.6-1.13-2.02-3.04z"/><linearGradient id="e" gradientUnits="userSpaceOnUse" x1="67.355" y1="124.77" x2="67.355" y2="69.962" gradientTransform="rotate(-45.001 56.46 71.496)"><stop offset=".319" style="stop-color:#cf7756"/><stop offset="1" style="stop-color:#814d3c"/></linearGradient><path style="fill:url(#e)" d="M78.09 56.62c-3.19-2.33-6.98-2.22-6.98-2.22s-3.9 6.85-6.63 9.72c-2.87 2.73-9.72 6.63-9.72 6.63s-.11 3.79 2.22 6.98c2.33 3.19 8.49 9.12 13.42 13.32 5.11 4.35 30.82 28.6 40.21 19.21S95.75 75.16 91.4 70.05c-4.19-4.95-10.12-11.1-13.31-13.43z"/><linearGradient id="f" gradientUnits="userSpaceOnUse" x1="439.861" y1="-54.746" x2="425.082" y2="-72.034" gradientTransform="scale(-1 1) rotate(88.55 110.666 -254.545)"><stop offset=".496" style="stop-color:#734434"/><stop offset="1" style="stop-color:#51362d"/></linearGradient><path style="fill:url(#f)" d="M96.93 105.98v-.16c-.02-.2-1.06-7.14-4.95-19.32-1.48-4.63-6.25-14.35-11.17-20.73-4.88-6.34-9.78-10.03-9.98-10.19-.68-.51-1.64-.37-2.15.31-.51.68-.37 1.64.31 2.15.05.04 4.78 3.62 9.39 9.6 4.5 5.84 9.13 15.28 10.7 19.86 3.61 10.49 4.79 18.51 4.79 18.55.07.84.81 1.47 1.65 1.41.78-.06 1.39-.71 1.41-1.48z"/><linearGradient id="g" gradientUnits="userSpaceOnUse" x1="168.939" y1="202.799" x2="154.16" y2="185.51" gradientTransform="rotate(-1.403 -4733.306 3638.771)"><stop offset=".496" style="stop-color:#734434"/><stop offset="1" style="stop-color:#51362d"/></linearGradient><path style="fill:url(#g)" d="M106.92 95.98h-.16c-.2-.02-7.14-1.06-19.32-4.95-4.63-1.48-14.35-6.25-20.73-11.17-6.34-4.88-10.03-9.78-10.19-9.98-.51-.68-.37-1.64.31-2.15.68-.51 1.64-.37 2.15.31.04.05 3.62 4.78 9.6 9.39 5.84 4.5 15.28 9.13 19.86 10.7 10.49 3.61 18.51 4.79 18.55 4.79.84.07 1.47.81 1.41 1.65-.05.79-.7 1.39-1.48 1.41z"/><path style="fill:#51362d" d="M68.83 51.86s-1.96 6.94-5.5 10.77c-3.33 3.61-10.44 6.28-10.44 6.28s-.01.91.34 1.55c.35.63.97 1.26 1.71 1.33 1.08.11 8.05-2.94 11.87-7.57s5.95-10.52 3.79-11.89c-1.18-.74-1.77-.47-1.77-.47z"/></svg>