<svg xmlns="http://www.w3.org/2000/svg" viewBox="0 0 1000 1000"><path fill="#ED2939" d="M8 195.25c170.83-85.22 341.03-54.42 513.26-27.97 155.21 23.84 312.16 44.57 470.74-34.53v672c-170.83 85.22-341.03 54.42-513.26 27.97C323.53 808.88 166.58 788.15 8 867.25v-672"/><path fill="#FFF" d="M8 195.25c86.65-43.23 173.14-56.91 262.4-55.88v268.8c-86.53-1-173.26 11.41-262.4 55.88v-268.8"/><path fill="#002395" d="M8 195.25c43.33-21.61 86.58-35.89 131.2-44.75v268.8C95.89 427.9 52.63 441.79 8 464.05v-268.8"/><path fill="#FFF" d="M8 460.69c128.94-64.33 257.5-62.85 390.32-46.04V149.21l6.56.84v272.16C274.2 405.21 142.6 400.27 8 467.41v-6.72M696.8 496.71l-78.72-87.43c51.95 6.06 103.91 9.66 157.44 6.99-25.98 27.92-51.96 54.36-78.72 80.44m-26.24 25.22-78.72-89.05v161.28l78.72-72.23m26.24 28.54c-25.98 25.31-51.96 49.56-78.72 73.85 51.95 6.06 103.91 9.66 157.44 6.99-25.97-25.31-51.95-52.09-78.72-80.84m26.24-25.95c25.98-26.09 51.95-53.37 78.72-83.23v161.28c-25.97-24.24-51.95-50.1-78.72-78.05"/><path fill="#1A1A1A" opacity=".2" d="M8 195.25c170.83-85.22 341.03-54.42 513.26-27.97 155.21 23.84 312.16 44.57 470.74-34.53v672c-170.83 85.22-341.03 54.42-513.26 27.97C323.53 808.88 166.58 788.15 8 867.25v-672m31.25 19.39v604.5c306.56-128.26 611.18 96.04 921.5-33.78v-604.5c-306.56 128.26-611.18-96.04-921.5 33.78"/></svg>