<svg xmlns="http://www.w3.org/2000/svg" viewBox="0 0 128 128" style="enable-background:new 0 0 128 128" xml:space="preserve"><path style="fill:#edbd82" d="m41.86 22.42-2.74-1.7 1.54-2.5s3.92 1.76 4.25 2.4c.31.63-.41 1.5-.41 1.5-.96 1.37-1.77.83-2.64.3z"/><path style="fill:#616161" d="M63.39 88.82a5.593 5.593 0 0 1-1.93-3.49l-1.58-11.18c1.28-3.67-.57-14.36-9.24-14.36-1.11 0-2.34.18-3.68.57-2.17.63-4.84 7.79-4.84 7.79l8.44 25.79c.22.82.61 1.6 1.16 2.31.79 1 1.82 1.71 2.94 2.11l21.76 11.49 3.67-7-16.7-14.03z"/><path style="fill:#325599" d="M78.52 100.02zm5.83 2.42-2.42-1.63c-.97-.66-2.39-.79-3.41-.79-.72 0-1.23.07-1.23.07l-4.08 6.02-1.88 6.63c-.37 1.66.3 3.38 1.7 4.35l1.09.74c.18.12.38.18.59.18.33 0 .66-.16.86-.46l9.1-13.45c.37-.55.23-1.29-.32-1.66z"/><path style="fill:#7c7c7c" d="m41.2 62.28-4.72 22.26c-.77 3.61-.91 7.33-.42 11l2.95 22.18 7.33-.02s1.87-24.72 1.89-24.76l6.26-18.98.23-.33c1.93-2.05 2.71-6.93 2.71-6.93L41.2 62.28z"/><path style="fill:#edbd82" d="m68.27 28.42-6.85-12.48a.506.506 0 0 0-.51-.25c-.21.03-.37.19-.42.39l-4.42 20.79a.507.507 0 0 0 .39.6l9.04 1.84a.502.502 0 0 0 .59-.38l2.23-10.15c.03-.13.01-.25-.05-.36z"/><path style="opacity:.4;fill:#212121;enable-background:new" d="m68.05 42.9-14.42-9.42s1.56-1.01 2.49-.96c.94.05 12.09 8.99 12.09 8.99l-.16 1.39z"/><path style="fill:#2e2f2f" d="m44.92 26.53 1.73-2.51-15.17-10.41a1.521 1.521 0 0 0-1.72 2.51l15.16 10.41zm51.76 32.21s4.66 2.6 5.18 3.72c.38.83.45 3.77.24 5.65-.2 1.89-1.1 2.29-1.1 2.29s-1.58 1.05-3.28 1.32c-1.71.27-1.79-1.27-1.79-1.27s-.35-2.81-.18-3.73.83-2.61 1.76-3.75c.42-.51-.26-.95-.26-.95l-1.86-1.42 1.29-1.86z"/><path style="fill:#4568ad" d="M47.04 114.97H39.2l-7.06 2.33a4.49 4.49 0 0 0-2.85 4.15l-.01 1.42c0 .62.5 1.13 1.12 1.13l17.51-.02c.71 0 1.29-.58 1.29-1.29v-3.15c.01-2.14-2.16-4.57-2.16-4.57z"/><path style="fill:#504f4f" d="M96.68 58.74s4.66 2.6 5.18 3.72c.38.83.45 3.77.24 5.65-.2 1.89-1.1 2.29-1.1 2.29s-1.58 1.05-3.28 1.32c-1.71.27-1.79-1.27-1.79-1.27s-.35-2.81-.18-3.73.83-2.61 1.76-3.75c.42-.51-.26-.95-.26-.95l-1.86-1.42 1.29-1.86z"/><path style="fill:#312d2d" d="M82.09 13.94s-.7.51-1.59.51c-.52 0-1.11-.17-1.66-.73-.72-.73-1.37-1.51-1.89-2.39s-1.1-1.78-1.98-2.3c-.37-.22-.68-.29-.98-.29-.45 0-.88.16-1.43.21h-.09c-.7 0-1.33-.69-1.96-1.02-1.58-.77-3.34-1.07-5.09-1.07-.15 0-.31 0-.46.01-3.33.1-4.37 2.7-7.33 3.56-2.29.67-5.73 2.14-5.96 6.62-.15 2.86 2.03 5.9 2.05 7.08.02 1.26-1.31 1.38-1.84 1.38-.13 0-.21-.01-.21-.01.85 2.3 2.29 2.68 3.3 2.68.38 0 .69-.05.9-.08 0 0 .33 1.37 1.64 2.37 1.26.96 2.4 1.15 3.08 1.15.41 0 .66-.07.66-.07s.72 1.75 4 2.12c.24.03.48.04.71.04 2.01 0 3.32-.98 3.32-.98.55.78 1.35 1.17 2.21 1.17.6 0 1.23-.19 1.82-.58 0 0-1.78-2.44.97-4.03 3.14-1.82 4.57-3.12 5.28-4.27 1.59-2.58.99-4.52-.19-6.8 1.36-.77 3.12-1.59 2.72-4.28z"/><radialGradient id="a" cx="102.193" cy="24.785" r="7.606" gradientTransform="matrix(.2628 -.9648 -.8041 -.2191 67.473 127.128)" gradientUnits="userSpaceOnUse"><stop offset=".725" style="stop-color:#454140;stop-opacity:0"/><stop offset="1" style="stop-color:#454140"/></radialGradient><path style="fill:url(#a)" d="M75.7 28.43c-.31.19-5.87-5.25-5.9-8.84-.01-.72.01-1.46.23-2.15.16-.52.4-1.18.9-1.43 5.82-2.86 8.44 2.21 8.44 2.21 3.11 5.25-.74 8.39-3.67 10.21z"/><radialGradient id="b" cx="86.034" cy="48.123" r="11.749" gradientTransform="matrix(.4964 .8681 .7235 -.4137 -12.033 -31.296)" gradientUnits="userSpaceOnUse"><stop offset=".725" style="stop-color:#454140;stop-opacity:0"/><stop offset="1" style="stop-color:#454140"/></radialGradient><path style="fill:url(#b)" d="M61.33 25.18c.07-.31 6.45-.78 8.68 1.42.45.44.89.91 1.19 1.47.22.42.51.96.35 1.42-1.82 5.35-6.93 4.09-6.93 4.09-5.23-.92-3.97-5.47-3.29-8.4z"/><radialGradient id="c" cx="64.022" cy="22.151" r="11.661" gradientTransform="matrix(.0746 -.9972 .8311 .0622 40.834 84.616)" gradientUnits="userSpaceOnUse"><stop offset=".797" style="stop-color:#454140;stop-opacity:0"/><stop offset="1" style="stop-color:#454140"/></radialGradient><path style="fill:url(#c)" d="M66.13 25.07c-2.37-.33-4.76-.08-4.8.11-.45 1.92-1.14 4.54-.08 6.37-.89.16-1.41-.02-1.41-.02-.34-.09-.64-.14-.93-.26-4.23-1.71-3.43-6.03-2.78-8.82.07-.32 7-.39 9.28 1.85.25.24.5.5.72.77z"/><radialGradient id="d" cx="102.511" cy="22.099" r="10.835" gradientTransform="matrix(-.2628 -.9648 .8041 -.2191 68.877 124.207)" gradientUnits="userSpaceOnUse"><stop offset=".725" style="stop-color:#454140;stop-opacity:0"/><stop offset="1" style="stop-color:#454140"/></radialGradient><path style="fill:url(#d)" d="M57.39 26.88c.31.19 5.28-8.28 5.32-11.87.01-.72-.01-1.46-.23-2.15-.16-.52-.41-1.17-.9-1.43-5.42-2.89-8.84 2.14-8.84 2.14-3.22 5.13 1.72 11.49 4.65 13.31z"/><radialGradient id="e" cx="100.01" cy="12.495" r="3.45" gradientTransform="matrix(-.494 .8695 -.645 -.3665 136.91 -68.543)" gradientUnits="userSpaceOnUse"><stop offset=".303" style="stop-color:#454140"/><stop offset="1" style="stop-color:#454140;stop-opacity:0"/></radialGradient><path style="fill:url(#e)" d="M79.37 18.22c3.51-1.62 2.7-4.05 2.72-4.28-.98.65-1.96.57-2.39.36-1.35-.65-2.46-2.58-2.46-2.58s-2.31 6.5 2.13 6.5z"/><radialGradient id="f" cx="112.841" cy="33.397" r="2.472" gradientTransform="matrix(.8156 .5786 .4292 -.6051 -53.545 -20.45)" gradientUnits="userSpaceOnUse"><stop offset=".303" style="stop-color:#454140"/><stop offset="1" style="stop-color:#454140;stop-opacity:0"/></radialGradient><path style="fill:url(#f)" d="M54 26.98c-2.11.01-2.27-1.38-2.33-1.48.63.09 1.27-.16 1.6-.37 1.1-.69-.18-2.87-.18-2.87s4.77 3.76.91 4.72z"/><radialGradient id="g" cx="133.038" cy="53.127" r="3.01" gradientTransform="matrix(-.9935 -.1137 .0843 -.737 201.366 85.75)" gradientUnits="userSpaceOnUse"><stop offset=".303" style="stop-color:#454140"/><stop offset="1" style="stop-color:#454140;stop-opacity:0"/></radialGradient><path style="fill:url(#g)" d="M70.59 32.87c1.56 1.41 2.61.49 2.72.45-.59-.92-.68-1.7-.44-2.49.38-1.24 2.43-2.15 2.43-2.15s-6.94.9-4.71 4.19z"/><ellipse transform="rotate(-86.09 66.893 12.671)" style="fill:#1976d2" cx="66.89" cy="12.67" rx="8.66" ry="10.64"/><radialGradient id="h" cx="67.353" cy="118.001" r="15.401" gradientTransform="matrix(1 0 0 -1 0 130)" gradientUnits="userSpaceOnUse"><stop offset=".17" style="stop-color:#42a5f5"/><stop offset=".457" style="stop-color:#3798eb"/><stop offset=".983" style="stop-color:#1976d2"/></radialGradient><path style="fill:url(#h)" d="M74.48 10.83c4.85 5.52 3.59 11.46-.08 16.19-3.91 5.05-13.87 3.1-18.13-1.86s-3.3-11.37 1.28-15.3 12.61-3.95 16.93.97z"/><ellipse transform="rotate(-79.682 66.79 13.285)" style="fill:#0665b2" cx="66.79" cy="13.28" rx="1.21" ry="1.4"/><path style="fill:#ed6d23" d="m37.38 37.86 4.53-8.74-6.84-3.6-5.85 11.29a5.407 5.407 0 0 0 0 4.98 7.366 7.366 0 0 0 5.17 3.85l20.62 3.89 1.38-9.78-19.01-1.89z"/><radialGradient id="i" cx="54.694" cy="54.92" r="17.432" gradientUnits="userSpaceOnUse"><stop offset=".364" style="stop-color:#f78c1f"/><stop offset=".678" style="stop-color:#f37f20"/><stop offset="1" style="stop-color:#ed6d23"/></radialGradient><path style="fill:url(#i)" d="M67.22 37.39c-.62-1.38-1.48-2.3-2.49-2.66l-5.94-1.92c-4.08-1.47-8.32 2.59-9.67 5.9-3.44 6.2-6.67 14.92-9.58 25.91-.39 1.29-.25 2.66.39 3.85.64 1.2 1.71 2.07 3.01 2.46h.02c1.83.48 7.31 1.6 11.92 1.6 2.37 0 4.52-.3 5.81-1.13.75-.48 1.2-1.11 1.33-1.92.95-9.05 2.25-16.65 5.5-24.31.9-2.2.77-5.4-.3-7.78z"/><path style="opacity:.4;fill:#212121;enable-background:new" d="m67.88 43.98-15.42-9.69s2.75-1.86 3.68-1.81c.94.05 11.75 7.16 12.05 7.56.31.39-.31 3.94-.31 3.94z"/><path style="fill:#7c7d7d" d="m95.39 60.6 1.29-1.86-50.03-34.72-1.73 2.51z"/><path style="fill:#504f4f" d="m44.92 26.53 1.73-2.51-15.17-10.41a1.521 1.521 0 0 0-1.72 2.51l15.16 10.41z"/><path style="fill:#edbd82" d="M46.73 21.82c-.33-.49-.91-.74-1.49-.63-.6.11-1 .62-1.22.97-.03.04-.25.33-.42.7-.53.08-1.07.21-1.39.31l-3.08 1.38c-.18.08-.29.25-.3.44l-.08 2.12c0 .06.01.11.02.16.18.64 1.46 1.5 2.1 1.76.16.06.36.13.56.13.12 0 .24-.02.36-.09.21-.11.29-.29.69-1.23.2-.46.56-1.31.63-1.42.95-.53 2-.72 2.07-.74.1-.03.2-.08.29-.15.22-.11.3-.32.3-.34.09-.16.15-.35.17-.5l.09-.27c.26-.77.76-1.39.8-1.44.2-.31.16-.77-.1-1.16z"/><linearGradient id="j" gradientUnits="userSpaceOnUse" x1="39.888" y1="16.4" x2="37.097" y2="23.934"><stop offset=".35" style="stop-color:#f9ddbd"/><stop offset="1" style="stop-color:#ffd29c"/></linearGradient><path style="fill:url(#j)" d="M44.06 17.72c-.92-.79-1.2.07-1.8-.22s-.31-.69-.86-.91c-.91-.36-1.25.22-1.73.04-.5-.18-.25-.54-.94-.69-.78-.17-.97.4-1.51.16-.53-.25-.45-.45-1.02-.58-.61-.14-1.07.01-1.66.88-1.56 2.29-2.42 7.02-2.42 7.02l6.77 3.45s4.35-5.42 4.91-6.32c.55-.89 1.19-2.03.26-2.83z"/><path style="fill:#f78c1f" d="M59.27 40.58c0 2.8-2.1 4.87-4.2 5.33-.08.06-1.2.08-1.37.06l-23.24-.8c-1.14.08-2.29-.3-3.18-1.09a4.402 4.402 0 0 1-1.26-4.75l5.46-16.88c.04-.14.14-.25.27-.3a.53.53 0 0 1 .41 0l7.63 3.52c.24.11.35.38.26.62l-3.5 9.8 17.14-.9c.03-.01.1-.01.18-.01.35-.02 1.03-.01 1.09.04 1.51.28 3.03 1.38 3.79 3.02.33.69.52 1.48.52 2.34z"/><path style="opacity:.4;fill:#212121;enable-background:new" d="m58.75 38.24-4.88-3.06c.35-.02 1.03-.01 1.09.04 1.51.28 3.03 1.38 3.79 3.02z"/></svg>