<svg xmlns="http://www.w3.org/2000/svg" viewBox="0 0 128 128" style="enable-background:new 0 0 128 128" xml:space="preserve"><path style="fill:#8e24aa" d="M116 4H12c-4.42 0-8 3.58-8 8v104c0 4.42 3.58 8 8 8h104c4.42 0 8-3.58 8-8V12c0-4.42-3.58-8-8-8z"/><path style="fill:#ab47bc" d="M109.7 4H11.5A7.555 7.555 0 0 0 4 11.5v97.9c-.01 4.14 3.34 7.49 7.48 7.5h98.12c4.14.01 7.49-3.34 7.5-7.48V11.5c.09-4.05-3.13-7.41-7.18-7.5h-.22z"/><path style="opacity:.3;fill:#fafafa;enable-background:new" d="M39.7 12.9c0-2.3-1.6-3-10.8-2.7-7.7.3-11.5 1.2-13.8 4s-2.9 8.5-3 15.3c0 4.8 0 9.3 2.5 9.3 3.4 0 3.4-7.9 6.2-12.3 5.4-8.7 18.9-10.6 18.9-13.6z"/><path style="fill:#fafafa;stroke:#fafafa;stroke-width:2;stroke-miterlimit:10" d="M105.8 55c-3.5-5-9.2-8.8-16.9-7.8-18.5 2.4-11 22.6-30.4 24.7-4.5.5-14.5-3.4-8.5-7.3 11.4-7.4 21.4-30.5-6-30.3-9 0-16.6 4.7-20.4 7.5-.2.2-.3.4-.1.6l4.3 6.9c.08.14.24.22.4.2.1 0 .1 0 .2-.1 3.4-2.1 11.4-6.7 16.7-7.2 15.5-1.5 15.9 20-9.2 21.3-2 .1 1.7 5.5 3 7.5 3.7 5.8 12.7 1.9 16.2 5.9 9.4 10.3-2.2 25.1-15 25.1-14.7 0-22.3-10.2-25.1-15.2a.487.487 0 0 0-.68-.14c-.15.1-.23.27-.22.44 3.7 21 18.3 24.9 27.5 24.9 8.6 0 17.6-4.6 21.3-13.9 3.8-9.7-4.5-21.3-2.1-23.7s15.1-1.3 19.1-10c3-6.6 10.8-14.6 18.1-12.3 4.9 1.5 8.7 9.5 7.9 21.5-.4 6.9-3.3 16.6-10.2 18.7-13.1 4-18.2-2-20.5-4.6-.2-.3-.7 0-.6.4C77 95.8 83.1 102 90.9 102c7.6 0 12.8-3.1 16.2-12.7 2.1-6.1 5.9-24-1.3-34.3z"/><path style="fill:#fafafa" d="M99.8 27.3a2.224 2.224 0 0 0-3.12-.45c-.1.07-.19.16-.28.25-2.5 2.5-6.8 5.9-17.1 6.9-13 1.3-24.8-10.9-20.5-3.6 2.4 4 10.6 9.5 22.6 9.5 7.8 0 15.3-3.7 20.4-6.9 1.01-.62 1.33-1.94.71-2.96-.16-.25-.36-.47-.61-.64a8.382 8.382 0 0 1-2.1-2.1z"/><path style="fill:#fafafa" d="m81.8 16.6 4.2 4.2c.77.73.81 1.96.07 2.73l-.07.07-4.2 4.2c-.73.77-1.96.81-2.73.07L79 27.8l-4.2-4.2c-.77-.73-.81-1.96-.07-2.73l.07-.07 4.2-4.2c.73-.77 1.96-.81 2.73-.07l.07.07z"/></svg>