<svg xmlns="http://www.w3.org/2000/svg" viewBox="0 0 1000 1000"><path fill="#ED0000" d="M8 195.25c170.83-85.22 341.03-54.42 513.26-27.97 155.21 23.84 312.16 44.57 470.74-34.53v672c-170.83 85.22-341.03 54.42-513.26 27.97C323.53 808.88 166.58 788.15 8 867.25v-672"/><path fill="#FFF" d="M8 329.65c170.83-85.22 341.03-54.42 513.26-27.97 155.21 23.84 312.16 44.57 470.74-34.53v134.4c-170.83 85.22-341.03 54.42-513.26 27.97C323.53 405.68 166.58 384.95 8 464.05v-134.4m0 268.8c170.83-85.22 341.03-54.42 513.26-27.97 155.21 23.84 312.16 44.57 470.74-34.53v134.4c-170.83 85.22-341.03 54.42-513.26 27.97C323.53 674.48 166.58 653.75 8 732.85v-134.4"/><path fill="#0050F0" d="M8 195.25C195.79 212.6 382.5 369.9 576.12 511.39 388.85 596.05 200.44 657.4 8 867.25v-672"/><path fill="#FFF" d="m197.37 366.15-33.79 110.62c17.16 3.13 34.32 7.03 52 11.78l-18.21-122.4"/><path fill="#FFF" d="m197.37 366.15 33.78 104.27c-17.15 6.42-34.3 13.46-51.98 21.52l18.2-125.79"/><path fill="#FFF" d="M301.36 441.71c-36.08-1.72-72.15-1.41-109.33 2.35v56c36.09-22.14 72.16-41.08 109.33-58.35"/><path fill="#FFF" d="M301.36 441.71c-29.19 20.33-58.38 41.99-88.47 66.41l-32.12-42.29c39.81-11.55 79.58-19.09 120.59-24.12"/><path fill="#FFF" d="M93.39 463.08c29.19 13.21 58.37 29.15 88.45 47.94l32.14-48.29c-39.8-4.09-79.58-4.63-120.59.35"/><path fill="#FFF" d="M93.39 463.08c36.1-10.53 72.15-16.85 109.33-20.02v56c-36.09-15.41-72.16-27.78-109.33-35.98"/><path fill="#FFF" d="m261.63 565.92-33.78-105.78c-17.16 6.5-34.32 13.63-52 21.78 28.3 25.79 56.61 53.64 85.78 84"/><path fill="#FFF" d="M261.63 565.92c-29.19-21.74-58.38-41.89-88.45-60.26l32.14-48.72 56.31 108.98"/><path fill="#FFF" d="M133.1 578.35c29.2-27.82 58.38-53.16 88.45-77.21l-32.12-42.72-56.33 119.93"/><path fill="#FFF" d="m133.1 578.35 33.78-112.49c17.16 3.23 34.32 7.22 52 12.04-28.3 31.13-56.61 64.03-85.78 100.45"/><path fill="#1A1A1A" opacity=".2" d="M8 195.25c170.83-85.22 341.03-54.42 513.26-27.97 155.21 23.84 312.16 44.57 470.74-34.53v672c-170.83 85.22-341.03 54.42-513.26 27.97C323.53 808.88 166.58 788.15 8 867.25v-672m31.25 19.39v604.5c306.56-128.26 611.18 96.04 921.5-33.78v-604.5c-306.56 128.26-611.18-96.04-921.5 33.78"/></svg>