<svg xmlns="http://www.w3.org/2000/svg" xmlns:xlink="http://www.w3.org/1999/xlink" width="350" height="200" version="1.0"><defs><radialGradient fy="112.769" fx="59.371" r="28.525" cy="112.769" cx="59.371" gradientUnits="userSpaceOnUse" id="g"><stop style="stop-color:#fff500" offset="0"/><stop style="stop-color:#eac102" offset="1"/></radialGradient><radialGradient fy="101.315" fx="59.181" r="68.014" cy="101.315" cx="59.181" gradientUnits="userSpaceOnUse" id="i"><stop style="stop-color:white" offset="0"/><stop style="stop-color:#e3e4e5" offset="1"/></radialGradient><radialGradient fy="101.362" fx="59.942" r="28.32" cy="101.362" cx="59.942" gradientUnits="userSpaceOnUse" id="h"><stop style="stop-color:#99ae6a" offset="0"/><stop style="stop-color:#00923f" offset="1"/></radialGradient><radialGradient fy="101.362" fx="182.03" r="28.32" cy="101.362" cx="182.03" gradientUnits="userSpaceOnUse" id="f"><stop style="stop-color:#75c5f0" offset="0"/><stop style="stop-color:#3aa0d9" offset=".761"/><stop style="stop-color:#007cc3" offset="1"/></radialGradient><radialGradient fy="100.803" fx="76.135" r="17.309" cy="100.803" cx="76.135" gradientUnits="userSpaceOnUse" id="d"><stop style="stop-color:#75c5f0" offset="0"/><stop style="stop-color:#0071bc" offset="1"/></radialGradient><radialGradient fy="154.432" fx="68.049" r="24.197" cy="154.432" cx="68.049" gradientUnits="userSpaceOnUse" id="c"><stop style="stop-color:#84c225" offset="0"/><stop style="stop-color:#00923f" offset="1"/></radialGradient><radialGradient fy="101.083" fx="57.878" r="25.429" cy="101.083" cx="57.878" gradientUnits="userSpaceOnUse" id="b"><stop style="stop-color:#75c5f0" offset="0"/><stop style="stop-color:#007cc3" offset="1"/></radialGradient><linearGradient y2="340.962" x2="312.959" y1="340.962" x1="276.074" gradientUnits="userSpaceOnUse" id="a"><stop style="stop-color:#a2abca" offset="0"/><stop style="stop-color:#002b5d" offset=".354"/><stop style="stop-color:#002b5d" offset=".5"/><stop style="stop-color:#002b5d" offset=".65"/><stop style="stop-color:#a2abca" offset="1"/></linearGradient><linearGradient y2="69.948" x2="133.359" y1="43.737" x1="127.653" gradientUnits="userSpaceOnUse" id="k"><stop style="stop-color:#75c5f0" offset="0"/><stop style="stop-color:#28166f" offset="1"/></linearGradient><linearGradient y2="49.049" x2="82.994" y1="71.492" x1="83.471" gradientUnits="userSpaceOnUse" id="j"><stop style="stop-color:#007cc3" offset="0"/><stop style="stop-color:#75c5f0" offset="1"/></linearGradient><linearGradient y2="106.69" x2="122.601" y1="82.214" x1="103.699" gradientUnits="userSpaceOnUse" id="e"><stop style="stop-color:#84c225" offset="0"/><stop style="stop-color:#00923f" offset="1"/></linearGradient><linearGradient xlink:href="#a" id="l" gradientUnits="userSpaceOnUse" gradientTransform="matrix(5.23954 0 0 5.23954 -1736.178 -1752.22)" x1="276.074" y1="340.962" x2="312.959" y2="340.962"/></defs><g style="fill:#fff"><path style="fill:#fff;fill-rule:evenodd;stroke:none;stroke-width:1px;stroke-linecap:butt;stroke-linejoin:miter;stroke-opacity:1" d="M-65-70.495v200h-350v-200h350z" transform="translate(415 70.495)"/></g><g transform="matrix(.69849 0 0 .69849 307.346 68.3)"><path style="fill:url(#l)" d="M-96.726 13.242c-.786-1.19-1.326 0-3.704-.461-2.589-.923-3.249-1.777-4.847-4.14-2.913-5.444-4.768-11.286-6.817-17.196-2.792-8.08-5.375-13.198-14.518-16.803-2.583-.86-3.841-.718-8.284-1.383 1.923-1.771 4.58-2.033 5.24-5.837-4.245.723-5.434-1.053-12.125 2.164 1.258-.786 2.515-2.62 3.374-3.867-4.437-.786-4.637.786-8.75 2.489-1.12-.126 1.593-2.824.404-2.557-1.394-.461-2.856 2.295-4.904 2.693-3.783.786-4.847-1.64-.268-2.164 2.311-.53 4.307-1.19 6.1-2.038 1.78-.86 2.383-1.913.728-3.28 1.053.45 2.053.45 3.049.393 1.121-.655.398-2.237-.53-2.96 2.118-.12 2.186-.388 3.448-.85.524-.848.792-1.775.928-2.755a7.391 7.391 0 0 0 2.117 0c.199 2.169 1.126 4.794 3.71 5.192-.2-1.451-.074-2.635.33-3.683.261-.655.125-.53.528-.189 2.85 4.134 5.24 6.293 9.678 8.331 2.777 1.577 2.777 3.678 1.724 5.643.125.2.393.461.796.461.985.2 1.787-.068 2.452-.723.126-.262.262-.524.33-.786 1.053.917 2.845 1.635 4.637 1.184.34-.46.34-1.121.267-1.776 5.366-2.693 4.9 7.424 8.42 8.404.194-.33.194-.79 0-1.509 1.782.194 2.976 2.358 6.167 2.756-1.33-1.64-1.933-2.106-2.19-4.008.398-.136.723-.2 1.132-.335 0-2.421-.54-4.454-3.249-4.852.325-.723.388-1.64.126-2.363-1.855.46-8.284 2.227-11.328-2.295 1.65-.597 3.17-3.023 2.782-4.407-1.461-.523-2.52.33-3.72.593-.199-.917-.592-1.84-1.524-2.615-.393-.34-.655-.34-.922 0-.063 4.323-5.77 5.832-6.435 2.945-.199-2.756.404-3.422 3.113-4.009-.592-.911-.854-1.509-.99-2.42-.063-.729.801-.2 1.466-.854-1.33-1.184-1.854-1.51-2.991-3.092.466 0 1.262-.33 1.33-.524-1.519-1.64-1.456-3.08-9.017-6.24-1.598-.655-3.112-.786-4.637-.974-2.719-.074-5.103 0-7.152.654-.99.393-2.578 1.048-3.914.713.592-1.44.666-2.95 0-4.59-.529-1.713-4.301-.325-5.57 2.494-.198.461-.198.592-.198 0 0-1.11-.126-3.023-2.112-4.333-2.19.398-2.992 2.164-3.914 4.265-.141.262-.33.53-.403.723-.797-1.509-1.331-2.164-1.797-2.295-.723.131-1.253 1.048-1.981 2.232-1.954 3.935-3.18 7.603-5.219 9.809-2.687 2.19-6.098 3.646-10.63 4.58-.116-1.672-.435-3.297-.975-4.806-1.205-3.416-3.4-6.077-6.335-7.68-6.67-3.632-15.509-.881-21.251 6.088-.723.387-1.467.775-2.306 1.12l-.125.048-.084.105c-1.153 1.336-2.08 2.798-2.866 4.307-.126.042-.241.11-.372.146l-.215.058-.063.09c-4.045-.934-6.906-2.165-7.896-3.553-2.195-2.269-3.453-6.199-5.486-10.312-.733-1.184-1.268-2.096-1.99-2.232-.467.131-1.06.786-1.787 2.295-.069-.194-.268-.456-.399-.723-.922-2.1-1.723-3.867-3.914-4.265-2.184 1.31-2.122 3.48-2.059 4.47 0 .712.074.455-.256-.205-.865-2.164-5.036-4.14-5.57-2.426-.655 1.64-.592 3.15 0 4.59-1.32.335-2.913-.32-3.909-.713-2.054-.654-4.443-.728-7.152-.654-1.524.188-3.05.32-4.642.974-7.555 3.16-7.493 4.595-9.012 6.24.063.194.86.524 1.326.524-1.122 1.583-1.656 1.908-2.982 3.092.66.655 1.525.125 1.457.854-.131.917-.398 1.509-.996 2.42 2.72.587 3.317 1.253 3.118 4.009-.66 2.887-6.36 1.378-6.429-2.945-.267-.34-.534-.34-.927 0-.928.775-1.331 1.698-1.53 2.615-1.195-.262-2.253-1.116-3.71-.593-.403 1.384 1.132 3.81 2.777 4.407-3.05 4.522-9.478 2.756-11.328 2.295-.267.723-.199 1.64.131 2.363-2.714.398-3.248 2.426-3.248 4.852.403.136.733.199 1.126.335-.262 1.902-.864 2.363-2.185 4.008 3.175-.398 4.375-2.562 6.162-2.756-.2.718-.2 1.174 0 1.51 3.505-.98 3.044-11.093 8.41-8.405-.064.655-.064 1.31.267 1.776 1.791.45 3.578-.267 4.642-1.184.063.262.199.524.33.786.66.655 1.456.917 2.457.723.393 0 .66-.262.791-.461-1.058-1.965-1.058-4.066 1.719-5.643 4.443-2.038 6.832-4.197 9.677-8.33.399-.341.268-.467.53.188.398 1.048.534 2.232.335 3.683 2.583-.398 3.51-3.023 3.71-5.192.529.068 1.2.13 2.122 0 .13.98.398 1.907.927 2.756 1.257.46 1.257.728 3.448.849-.933.723-1.656 2.305-.603 2.96.938.33 2.19.524 3.259.058-1.66 1.383-.996 2.504.791 3.353 2.054.791 4.25 1.378 5.963 1.315 4.841.456 4.05 3.28 0 2.562-2.054-.398-3.375-3.28-4.768-2.824-1.064.262.46 2.295-.66 2.489-4.108-1.703-3.715-3.275-8.153-2.489.86 1.247 2.117 3.08 3.374 3.867-6.69-3.217-7.885-1.441-12.124-2.164.66 3.809 3.316 4.066 5.234 5.837-4.433.665-5.7.529-8.284 1.383-9.148 3.605-11.789 8.729-14.513 16.803-2.054 5.905-3.904 11.752-6.827 17.196-1.583 2.363-2.248 3.217-4.831 4.14-2.39.46-2.992-.729-3.715.46-1.058 2.95.603 6.367 5.303 5.968-.399 3.16.392 3.28.256 7.158 3.715-.655 5.366-2.5 5.91-3.018.063 1.179.126 2.426.524 3.274 1.855-.057 3.51-1.44 4.045-2.095-1.2 3.348-2.127 4.202-6.23 4.925-.392 3.28 3.453 3.149 5.235 2.499-1.389 3.4 2.85 4.197 5.769 2.756.466.723.466 2.101-.205 3.668-4.045 6.491-12.59 16.342-9.138 24.82 5.366-2.243 8.546-10.773 9.867-12.869 1.854 2.75-10.07 16.866-6.167 22.514 1.126-2.169 2.52-2.295 4.579-3.809-8.488 12.208-10.48 26.57-9.347 36.756.204 2.043.665 3.94 1.524 5.836 1.452 3.155 9.934 13.723 5.439 16.421-.53.194-.603.524-.136 1.043 2.32 2.887 7.487 2.824 8.488-1.97 6.822 3.416 10.798-3.872 9.473-9.379-1.121 1.053-4.972-1.708-6.696 0 2.85-5.517-1.53-11.291-6.691-8.268-.53.262.13.723.33 1.037.398.666.398 1.85.073 2.442-.267.655-.864 1.373-1.797 1.572-2.248.068-4.443-.466-6.623-3.81-6.303-11.757 8.614-30.263 14.31-40.108 1.456-2.62 2.588-5.182 3.185-8.006.666 2.033 1.918 3.013 3.38 2.222-2.06-3.28-.137-11.024-3.118-15.357 4.841.592 4.71-6.11 3.647-7.341-2.054 3.018-4.836 1.96-5.303-.66.99-2.431 1.122-4.27.33-6.235-.597-2.426-2.053-4.988-2.247-6.23.796 1.703 3.641 2.824 4.574 4.003.398-2.5-1.457-4.72-4.375-11.815 1.724.188 3.578.393 4.302-1.834-2.846-.655-2.715-4.532-3.642-6.11 1.195.263 2.31.263 3.317-.198.199-1.51.529-5.649-3.783-10.108-1.65-1.11-.598-.848.739-.586 4.37 1.64 8.016-2.432 13.051-3.16 12.329-1.572 14.315 3.877 23.458 6.508 2.41-5.198 7.015-4.37 11.956-3.736.157.157.262.33.446.477l.005.005.136.13h.037l.01.006.042.026c2.159 1.567 7.425 6.492 8.97 8.038l4.202-3.191c1.934-1.404 4.307-2.835 6.969-4.16.765-.377 1.535-.713 2.3-1.053l8.394.036c7.356.86 16.232-1.572 17.966 3.422 9.143-2.625 11.129-8.08 23.452-6.508 5.046.728 8.693 4.8 13.063 3.16 1.325-.262 2.384-.524.728.586-4.307 4.46-3.977 8.599-3.778 10.108.99.46 2.117.46 3.322.199-.938 1.577-.807 5.454-3.652 6.109.734 2.227 2.583 2.017 4.312 1.834-2.929 7.094-4.773 9.316-4.375 11.815.928-1.179 3.778-2.295 4.574-4.003-.199 1.247-1.666 3.81-2.258 6.23-.796 1.965-.665 3.809.33 6.235-.46 2.62-3.238 3.683-5.302.66-1.059 1.236-1.2 7.933 3.646 7.34-2.986 4.334-1.063 12.072-3.185 15.358 1.52.786 2.787-.189 3.442-2.222.608 2.824 1.734 5.381 3.18 8.006 5.706 9.845 20.623 28.351 14.32 40.109-2.18 3.343-4.38 3.877-6.696 3.809-.86-.204-1.462-.917-1.718-1.572-.336-.592-.336-1.776.068-2.442.188-.314.79-.775.33-1.037-5.161-3.023-9.6 2.746-6.686 8.268-1.724-1.708-5.57 1.053-6.696 0-1.326 5.507 2.656 12.795 9.473 9.379.938 4.794 6.172 4.857 8.488 1.97.461-.519.398-.849-.13-1.043-4.58-2.698 3.976-13.266 5.438-16.42.859-1.892 1.32-3.794 1.52-5.837 1.126-10.18-.86-24.548-9.343-36.756 2.06 1.514 3.442 1.64 4.569 3.81 3.914-5.654-8.011-19.764-6.162-22.515 1.326 2.096 4.443 10.626 9.877 12.868 3.447-8.477-5.109-18.328-9.138-24.82-.67-1.566-.67-2.95-.204-3.667 2.918 1.44 7.152.644 5.774-2.756 1.781.65 5.627.78 5.229-2.5-4.103-.722-5.03-1.576-6.23-4.924.534.655 2.19 2.043 4.045 2.095.393-.848.46-2.095.53-3.274.528.524 2.184 2.363 5.899 3.018-.136-3.878.66-4.003.262-7.158 4.705.399 6.36-3.023 5.297-5.967z"/><path style="fill:#002b5d" d="M-250.658 7.714v114.552c0 15.76 12.9 28.545 28.827 28.545h19.638c5.077 0 9.2 4.071 9.2 9.106 0-5.035 4.114-9.106 9.191-9.106.272 0 .54.01.802.031v-.031h18.836c15.912 0 28.817-12.764 28.833-28.53V7.715h-115.327z"/><path style="fill:#0076bd" d="M-230.664 27.09h75.339v49.503h-75.339z"/><path style="fill:#cccdce" d="M-194.538 106.668v24.343h-28.251c-4.313-.467-7.692-3.998-7.875-8.347-.006-.136-.016-.257-.016-.388 0-.12.01-.256.016-.377V79.894h36.131v26.774"/><path style="fill:#ba9400" d="M-191.483 130.633V79.632h36.153l.005 41.874c.005.126.005.257.005.388 0 .126 0 .257-.005.382-.194 4.35-3.579 7.875-7.886 8.352h-28.272v.005z"/><path style="fill:#002b5d" d="m299.48 347.78-.073-.007a1.502 1.502 0 0 1-.325-.081l-.067-.026c-.005-.004-.008-.004-.011-.006a.195.195 0 0 1-.022-.008c-.194-.067-.384-.078-.484-.032a.152.152 0 0 0-.039.029s-.022.016-.032.035l-.005-.003c.001 0 .002.003.004.003v.001c-.062-.124-.323-.111-.552-.033l-.033.013-.049.019c-.107.042-.225.07-.347.086l-.072.008.035.062.005.009.051.076.007.013.017.022c.048.062.104.115.167.166.208.163.484.253.773.253.291 0 .563-.091.775-.255a.997.997 0 0 0 .166-.165c.007-.007.012-.016.017-.023.002-.005.006-.009.008-.011l.002-.004.004-.006.048-.066h-.004c0-.003.003-.005.003-.005l.033-.064z" transform="matrix(5.23954 0 0 5.23954 -1736.178 -1752.22)"/><path style="fill:#e53138" d="M299.139 348.049c-.191.15-.445.232-.712.232-.267 0-.52-.082-.712-.232a1.182 1.182 0 0 1-.109-.102h.042l.093.002a.155.155 0 0 0 .022.001l.044.002h.025l.038.004c.008 0 .017 0 .023.002a.386.386 0 0 1 .054.004l.03.002.017.001.026.003.017.003c.008 0 .015 0 .023.002.004 0 .008 0 .012.002a.07.07 0 0 1 .02.003.05.05 0 0 1 .012.002c.006 0 .011.001.016.003l.009.001c.004.002.011.002.014.003l.008.002.012.002.006.003c.003 0 .012.002.013.004.003 0 .03.019.03.019l.008.004c.038.021.11.033.191.033a.423.423 0 0 0 .195-.038h.001l.008-.004.001-.001.003-.002.016-.008a.548.548 0 0 1 .072-.02h.001l.053-.008h.002l.147-.015h.003l.095-.006h.003c.068-.003.147-.005.236-.006a.817.817 0 0 1-.108.103z" transform="matrix(5.23954 0 0 5.23954 -1736.178 -1752.22)"/><path style="fill:#e53138" d="M299.033 347.854a1.614 1.614 0 0 0-.105.006h-.008l-.085.007-.014.002-.066.007-.022.003c-.015.003-.032.005-.047.009a.147.147 0 0 0-.027.006l-.028.007a.105.105 0 0 0-.042.016l-.022.008c-.002.004-.01.005-.011.009l-.007.004-.003.001-.012.003-.012.003c-.005.002-.009.002-.016.003-.008.002-.015.002-.026.002-.004.002-.009.002-.014.002a.413.413 0 0 1-.184-.013c-.005-.005-.009-.01-.012-.011a.091.091 0 0 0-.023-.01l.006.001-.044-.017-.004-.001-.057-.014-.01-.003-.068-.01-.012-.002a1.71 1.71 0 0 0-.078-.008l-.013-.001-.086-.007h-.011c-.031-.002-.063-.003-.094-.006h-.004l-.202-.003h-.001c.073-.016.144-.035.212-.057l.051-.018.075-.031c.251-.085.414-.056.433-.017v.004l.004.012a.094.094 0 0 0 .085.055.09.09 0 0 0 .086-.06v-.001l.004-.007.001-.003a.066.066 0 0 1 .022-.019c.061-.03.216-.031.411.035l.015.008c.005 0 .008.002.013.005.019.007.041.018.068.027.075.029.158.049.24.065l-.256.009z" transform="matrix(5.23954 0 0 5.23954 -1736.178 -1752.22)"/><path style="fill:#002b5d" d="M-223.973 109.639c.964 0 1.791-.577 2.163-1.389-.54.435-1.304.734-2.163.734-.86 0-1.63-.299-2.16-.734a2.365 2.365 0 0 0 2.16 1.389z"/><path style="fill:#002b5d" d="m289.146 357.387.014.013h.1c-1.806.736 3.563.846 1.628 1.579 3.357-.536-1.771-1.038 1.502-1.582h-.027l1.396-1.384v-.499h-6.003v.499l.016.014 1.374 1.36z" transform="matrix(5.23954 0 0 5.23954 -1736.178 -1752.22)"/><path style="fill:#fff" d="M287.859 355.613h5.804v.36l-.058.055h-.228l-1.285 1.274h-.695l.787-1.323h-.39l-.609 1.323h-.849l-.608-1.323h-.392l.789 1.323h-.679l-1.284-1.274h-.246l-.057-.055v-.36z" transform="matrix(5.23954 0 0 5.23954 -1736.178 -1752.22)"/><path style="fill:#002b5d" d="m299.624 354.608-.729-.705-.135-.129.002-.012a.52.52 0 0 0-.151-.364.178.178 0 0 0 .054-.124c0-.09-.069-.162-.171-.193l.125-.123-.063-.061-.171.169a.331.331 0 0 0-.149.036.333.333 0 0 0-.148-.036l-.171-.169-.062.061.123.123c-.101.031-.171.102-.171.193 0 .046.02.088.054.124a.51.51 0 0 0-.147.333l-.179.172-.728.705a.666.666 0 0 0-.177.67l.01.036h.037c.219.004.464-.067.689-.202.096-.057.184-.125.265-.203l.014.053.003.013c0 .006.003.011.003.018l.005.021h.002c.026.093.087.211.113.25.024.035.105.124.105.124.107.099.23.151.36.151a.532.532 0 0 0 .36-.151l.002-.001.011-.008.092-.114a.894.894 0 0 0 .114-.25l.006-.021v-.003l.003-.013a.124.124 0 0 1 .004-.016l.004-.019c.072.063.148.122.231.17.225.135.47.206.688.202h.038l.011-.036a.677.677 0 0 0-.176-.671z" transform="matrix(5.23954 0 0 5.23954 -1736.178 -1752.22)"/><path style="fill:#ffd300" d="M298.235 353.328c.208 0 .373.147.415.34.007.031.019.058.019.089a.42.42 0 0 1-.071.234.478.478 0 0 1-.076.08c-.003.001-.004.005-.008.006-.008.007-.013.016-.021.023a.424.424 0 0 0-.258-.092.421.421 0 0 0-.258.092.435.435 0 0 1-.174-.343.43.43 0 0 1 .432-.429z" transform="matrix(5.23954 0 0 5.23954 -1736.178 -1752.22)"/><path style="fill:#fff" d="m297.705 354.376-.02.046-.017.044.003.001a.65.65 0 0 0-.038.155l-.003-.001-.005.063v.015l-.002.021c-.002.013-.002.027-.002.042v.013l-.012.015a1.483 1.483 0 0 1-.295.237 1.25 1.25 0 0 1-.598.186.574.574 0 0 1 .159-.535l.73-.705s.049-.046.116-.113a.511.511 0 0 0 .154.276l-.004.002.002.004a.687.687 0 0 0-.129.161c-.013.021-.022.048-.035.073h-.004z" transform="matrix(5.23954 0 0 5.23954 -1736.178 -1752.22)"/><path style="fill:#ffd300" d="M298.548 355.296c-.1.021-.205.034-.313.034-.108 0-.212-.013-.312-.034a.654.654 0 0 1-.147-.232c.033.01.066.021.102.03l.005.001c.034.009.07.014.107.02h.002c.034.006.072.01.109.013a2.095 2.095 0 0 0 .134.006c.038 0 .075-.002.112-.004.008 0 .016 0 .022-.002.036-.003.074-.007.109-.013h.001a.727.727 0 0 0 .109-.02l.003-.001c.038-.009.071-.02.103-.03a.643.643 0 0 1-.146.232zM298.257 354.769l-.007-.001h-.029l-.01.001-.074-.001a1.171 1.171 0 0 1-.411-.095l.001-.027c.008-.049.021-.097.035-.144a.63.63 0 0 0 .09.028c.002.001.005.001.007.003.03.007.059.013.09.018l.036.006c.024.003.047.008.073.009.039.004.079.007.12.009l.022.001.034.001.034-.001.022-.001c.042-.002.083-.005.121-.009.021-.001.042-.005.063-.007.015-.003.032-.004.046-.008a.76.76 0 0 0 .088-.018l.01-.003a.755.755 0 0 0 .088-.028.793.793 0 0 1 .037.172 1.172 1.172 0 0 1-.486.095z" transform="matrix(5.23954 0 0 5.23954 -1736.178 -1752.22)"/><path style="fill:#fff" d="M299.711 355.214a1.232 1.232 0 0 1-.595-.186 1.318 1.318 0 0 1-.268-.212l.002-.053a.493.493 0 0 0-.002-.042l-.003-.021v-.013l-.004-.065-.001.001a.929.929 0 0 0-.04-.155l.004-.003-.017-.042h-.001l-.02-.046a.64.64 0 0 0-.166-.234l.003-.004-.003-.002a.567.567 0 0 0 .078-.092.457.457 0 0 0 .066-.148l.082.078.73.705a.572.572 0 0 1 .155.534z" transform="matrix(5.23954 0 0 5.23954 -1736.178 -1752.22)"/><path d="m-209.036 71.07-.026.027v.015l.026-.042z"/><path style="fill:#002b5d" d="m-164.714 115.292.482 2.426a16.334 16.334 0 0 1-2.782 1.588l-1.52-1.384-.278-.262c-.272.131-.55.262-.885.341-.136.058-.273.058-.404.126-.408.136-.822.199-1.23.272l-.336.943-.34 1.017-.106.288a17.018 17.018 0 0 1-3.207-.005l-.23-.687-.34-1.016-.21-.54h-.267c-.545-.136-1.158-.272-1.771-.477-.141-.063-.21-.13-.335-.13-.063 0-.142-.074-.142-.074l-.817.744-.818.744-.11.09a15.755 15.755 0 0 1-2.766-1.578l.225-1.347.126-.67.068-.336s-.068 0-.068-.073c0 0-.068-.063-.126-.063-.141-.136-.277-.272-.419-.403-.13-.074-.204-.205-.335-.336a14.799 14.799 0 0 0-.267-.277 1.078 1.078 0 0 1-.205-.205c-.141-.13-.278-.262-.34-.403-.068 0-.068-.058-.068-.058h-.21l-.204.058-.33.073h-.074l-.477.131-.403.068-.618.142a16.002 16.002 0 0 1-1.604-2.714l.446-.592 1.09-1.279c-.273-.807-.54-1.624-.682-2.504l-.408-.136-.812-.268-1.012-.256a16.648 16.648 0 0 1-.083-1.635c0-.508.026-1.017.078-1.52l1.011-.366.812-.336.477-.136c.131-.875.34-1.76.676-2.562l-1.158-1.147-.456-.561a15.47 15.47 0 0 1 1.583-2.72l.65.105.403.142.477.068h.073l.33.068h.204l.278.063c.063-.131.2-.262.34-.398.064-.074.126-.142.205-.21.063-.13.194-.204.267-.33.136-.068.205-.204.336-.278l.419-.403c.057-.068.126-.068.126-.126.068 0 .068-.068.141-.068l-.141-.613-.126-.608-.236-1.137a17.851 17.851 0 0 1 2.72-1.561l.162.136.817.676.817.802c.08-.063.08-.063.142-.063.13-.063.199-.063.335-.136.613-.2 1.226-.341 1.771-.472h.267l.21-.466.34-1.012.315-.833a15.4 15.4 0 0 1 1.556-.083c.54 0 1.069.026 1.588.083l.078.351.34 1.017.273.88c.472.136.886.194 1.3.335.13 0 .262.063.403.063.335.137.613.21.886.273l.277-.2 1.562-1.351.015-.005c.97.435 1.881.964 2.735 1.566l-.565 2.358c.613.466 1.152 1 1.697 1.614.074.068.142.136.21.199l.608-.063 1.226-.278.592-.094c.597.838 1.126 1.74 1.561 2.683l-.173.178-.953 1.016-.545.535c.204.534.408 1.08.545 1.619.062.267.136.602.199.943l.754.272 1.551.566c.047.503.084 1.011.084 1.52 0 .555-.037 1.1-.084 1.64l-1.55.45-.755.2c-.063.413-.137.743-.2 1.079-.136.471-.272 1.016-.476 1.493l.477.461.953 1.153.168.194c-.446.958-.98 1.865-1.588 2.708l-.56-.141-1.226-.272-.54-.058c-.073.058-.21.13-.278.262-.524.555-1.069 1.022-1.608 1.493zm1.708-10.657c0-5.837-4.773-10.568-10.668-10.568-5.894 0-10.662 4.731-10.662 10.568 0 5.842 4.768 10.568 10.662 10.568 5.895-.005 10.668-4.726 10.668-10.568zM-217.23 105.29c-.535.445-1.3.733-2.159.733-.854 0-1.63-.288-2.159-.733a2.366 2.366 0 0 0 2.16 1.383c.963 0 1.791-.571 2.158-1.383zM-203.66 108.088a2.36 2.36 0 0 0 2.159-1.394c-.535.445-1.294.734-2.159.734-.86 0-1.63-.283-2.158-.734a2.372 2.372 0 0 0 2.158 1.394zM-223.858 106.7a2.39 2.39 0 0 0 2.169 1.393c.959 0 1.781-.576 2.159-1.394-.53.446-1.3.734-2.16.734-.864-.005-1.629-.288-2.168-.734zM-201.433 109.639c.97 0 1.797-.577 2.164-1.389-.53.435-1.305.734-2.164.734-.854 0-1.624-.299-2.159-.734a2.376 2.376 0 0 0 2.159 1.389z"/><path d="m-224.377 71.07.016.042-.005-.02-.01-.022z"/><path style="fill:#002b5d" d="m290.821 345.562-.012-.01h-.601c-.012-.045-.027-.086-.038-.137a2.26 2.26 0 0 1-.012-.739c.071-.462.285-.784.515-.784.281 0 .524.473.54 1.053l.099.001c.005-.065.008-.119.008-.169 0-.707-.311-1.258-.707-1.258-.322 0-.554.22-.652.607-.097-.387-.329-.607-.652-.607-.395 0-.706.551-.706 1.258 0 .051.002.105.007.169l.099-.001c.017-.58.259-1.053.54-1.053.231 0 .445.322.516.784a2.191 2.191 0 0 1-.011.739c-.011.052-.027.092-.039.137h-.599l-.014.01-.828.601-.021.016v.289l.021.014.1.073v.792l.02.016.074.052.057.042.014.008c-.007.026-.014.049-.019.075-.035.198-.026.372.02.452l.001.003a.347.347 0 0 0 .062.089l-.131.095-.04.03.03.04.24.324.029.038.039-.028.429-.313c.044.018.091.03.14.028a.407.407 0 0 0 .15-.044.356.356 0 0 0 .305.141.338.338 0 0 0 .207-.089.335.335 0 0 0 .209.089.36.36 0 0 0 .306-.141c.044.025.095.04.147.044.026 0 .049-.01.075-.016l.402.294.04.029.03-.038.239-.324.03-.04-.042-.029-.075-.057a.32.32 0 0 0 .099-.125c.048-.077.057-.254.021-.453-.007-.043-.018-.083-.028-.123l.007-.005.041-.031.031-.02.02-.016v-.791l.099-.074.02-.014v-.289l-.02-.016-.831-.598z" transform="matrix(5.23954 0 0 5.23954 -1736.178 -1752.22)"/><path style="fill:#ccd4e9" d="m289.746 345.779.02-.041c.006-.017.01-.039.016-.059l.009-.029c.01-.031.018-.063.027-.099.011-.04.026-.074.034-.12a2.376 2.376 0 0 0 .012-.772c-.081-.518-.327-.866-.613-.866-.171 0-.328.124-.439.329.109-.307.292-.507.5-.507.351 0 .575.318.603.853h.1c.027-.535.252-.853.602-.853.208 0 .392.2.501.507-.113-.205-.268-.329-.441-.329-.286 0-.532.349-.613.866a2.256 2.256 0 0 0 .013.772c.009.045.023.08.033.12l.027.099c.003.011.004.021.008.029.005.02.01.041.017.059.005.014.012.027.019.041.106.249.253.408.423.444l.021-.096c-.127-.026-.246-.155-.336-.349h.315l.14.101.446.324-.275.2-.312.224h-1.276l-.312-.224-.275-.2.446-.324.141-.101h.314c-.09.194-.209.323-.334.349l.02.096c.166-.036.314-.196.419-.444z" transform="matrix(5.23954 0 0 5.23954 -1736.178 -1752.22)"/><path style="fill:#ba9400" d="m288.75 348.476-.181-.246.111-.081a.35.35 0 0 0 .204.051c.043-.003.081-.019.12-.035.008-.004.02-.004.029-.009.006.007.014.01.021.017.015.017.034.029.053.044l-.357.259zM291.157 348.468l-.304-.221a.31.31 0 0 0 .102-.082c.011-.001.022 0 .035-.004a.34.34 0 0 0 .127.038.326.326 0 0 0 .149-.029l.072.053-.181.245z" transform="matrix(5.23954 0 0 5.23954 -1736.178 -1752.22)"/><path style="fill:#e53138" d="m291.376 347.942-.002.004v.003a.248.248 0 0 1-.096.109.255.255 0 0 1-.12.035c-.012 0-.022.008-.035.008l-.006-.003a.267.267 0 0 1-.115-.042c-.005-.003-.012-.003-.018-.007l-.046-.036-.028.05c-.002.006-.01.008-.012.013a.267.267 0 0 1-.094.092c-.013.007-.031.005-.044.01-.03.007-.058.022-.089.021-.039-.003-.071-.022-.104-.041-.012-.006-.026-.004-.036-.013l-.045-.036-.028.052a.261.261 0 0 1-.241.136.262.262 0 0 1-.177-.091l-.04-.044-.037.045a.264.264 0 0 1-.178.091.258.258 0 0 1-.24-.136l-.027-.052-.047.036a.266.266 0 0 1-.139.054c-.01 0-.018-.006-.028-.008a.242.242 0 0 1-.193-.107c-.006-.008-.014-.011-.02-.021l-.027-.05-.047.036c-.008.006-.021.006-.03.012a.244.244 0 0 1-.108.04h-.001c-.035.002-.066-.013-.099-.025a.258.258 0 0 1-.089-.056c-.022-.023-.049-.042-.062-.072l-.002-.003-.002-.004c-.029-.046-.042-.195-.006-.383l.007-.03c.007-.038.017-.072.025-.103a.844.844 0 0 1 .063-.162.996.996 0 0 0 .289.375l.062.05.018-.077a.96.96 0 0 1 .086-.25.928.928 0 0 0 .153.243c.041.047.086.092.134.132l.063.049.017-.077a.924.924 0 0 1 .086-.25.879.879 0 0 0 .153.241c.027.032.058.058.087.085.015.015.03.033.046.046l.01.02h.015c.012.008.02.02.033.032l.037.044.038-.044a.196.196 0 0 1 .033-.032h.013l.01-.02c.017-.013.03-.032.047-.046.029-.027.059-.051.086-.085a.894.894 0 0 0 .153-.241c.03.054.063.139.086.25l.017.077.063-.049a.972.972 0 0 0 .289-.375c.029.055.061.14.084.25l.014.059.004.019.061-.05c.023-.019.042-.042.064-.063.024-.022.049-.043.071-.069a.953.953 0 0 0 .154-.243.89.89 0 0 1 .048.115c.011.03.019.067.027.103.005.024.014.047.019.077.036.187.024.336-.007.382z" transform="matrix(5.23954 0 0 5.23954 -1736.178 -1752.22)"/><path style="fill:#fff0d9" d="m291.453 347.296-.01.006-.023.018a.488.488 0 0 0-.119-.198l-.064-.047-.014.077a.712.712 0 0 1-.162.293l-.063.066c-.033-.119-.085-.241-.15-.291l-.063-.049-.014.078a.707.707 0 0 1-.163.292 1.963 1.963 0 0 1-.063.066c-.033-.119-.084-.241-.149-.291l-.063-.048-.016.077a.694.694 0 0 1-.161.294 1.176 1.176 0 0 1-.131.125l-.003.002-.002.003a.062.062 0 0 1-.018.014.15.15 0 0 1-.018-.014v-.001l-.001-.002-.004-.002a1.155 1.155 0 0 1-.129-.125.703.703 0 0 1-.162-.294l-.014-.077-.065.048c-.065.049-.116.172-.15.291a1.32 1.32 0 0 1-.063-.066.715.715 0 0 1-.162-.292l-.014-.078-.065.049c-.064.049-.116.172-.15.291a1.963 1.963 0 0 1-.063-.066.712.712 0 0 1-.162-.293l-.014-.077-.064.047c-.05.038-.097.129-.134.242l-.04-.03-.053-.038v-.67l.629.458.014.008h1.693l.012-.008.632-.458v.67h-.002z" transform="matrix(5.23954 0 0 5.23954 -1736.178 -1752.22)"/><path style="fill:#fff0d9" d="m291.572 346.417-.021.016-.099.071-.677.491h-1.627l-.675-.491-.099-.071-.022-.016v-.188l.796-.579h.54a.202.202 0 0 1-.008.029h-.388l-.012.01-.154.111-.501.361-.056.042.056.04.328.237.327.236.012.009h1.341l.013-.009.326-.236.329-.237.055-.04-.055-.042-.5-.361-.155-.111-.013-.01h-.388c-.003-.007-.005-.02-.008-.029h.542l.794.579v.188h-.001z" transform="matrix(5.23954 0 0 5.23954 -1736.178 -1752.22)"/><path style="fill:#002b5d" d="M295.72 346.27a1.102 1.102 0 0 1-.07-.356l-.002-.013-.001-.056c.003-.15.035-.298.095-.433a.958.958 0 0 1 .365-.43c.072.076.147.146.229.196a.213.213 0 0 0 .185.013.116.116 0 0 0 .078-.088c.066.047.136.093.208.126a.34.34 0 0 0 .228.016c.092-.03.107-.091.107-.116a.322.322 0 0 0 .218-.045c.081-.047.082-.108.077-.134.018 0 .035 0 .051-.002a.335.335 0 0 0 .206-.1c.066-.071.044-.133.033-.157l-.005-.005c.082-.021.153-.046.216-.074a.343.343 0 0 0 .157-.166c.03-.075.008-.121-.012-.144.081-.054.157-.111.222-.174a.33.33 0 0 0 .09-.207c.005-.095-.048-.129-.075-.14.028-.038.052-.07.072-.103a.321.321 0 0 0 .033-.224c-.016-.072-.053-.099-.082-.11.043-.102.077-.205.096-.309a.309.309 0 0 0-.046-.222c-.037-.054-.075-.07-.105-.074a1.488 1.488 0 0 0 0-.189.322.322 0 0 0-.103-.203c-.073-.066-.135-.044-.157-.032-.017.009-.066.043-.061.125.002.491-.116.859-.374 1.148a.394.394 0 0 0 .017-.181c-.012-.07-.042-.097-.067-.108.036-.105.063-.208.078-.314a.36.36 0 0 0-.037-.216c-.027-.055-.057-.071-.082-.074a2.48 2.48 0 0 0 0-.193.364.364 0 0 0-.08-.199c-.058-.068-.111-.046-.129-.032-.017.011-.053.044-.046.121h-.002c.003.781-.225 1.253-.769 1.592a.428.428 0 0 1 .03-.033c.025-.021.056-.049.056-.094 0-.046-.039-.085-.073-.114a.946.946 0 0 1-.268-.355.168.168 0 0 0-.034-.056c-.002-.023-.002-.045-.005-.066l-.001-.013-.001-.003c-.005-.033-.008-.065-.015-.094-.091-.443-.463-.823-.98-1.004a.738.738 0 0 1 .082-.113c.208-.019.512-.115.75-.243l.043-.023-.023-.042-.13-.238c.088-.063.187-.122.306-.168l.003-.003c.04-.022.081-.042.117-.058.083-.041.118-.056.11-.091-.004-.024-.031-.031-.051-.032-.019-.029-.039-.034-.089-.024h.01a.152.152 0 0 0-.069.011l-.037.011c-.052.015-.128.039-.145.029.011-.12-.005-.139-.012-.147-.007-.006-.022-.021-.044-.019-.021.003-.029.021-.042.049a.741.741 0 0 1-.065.113l.005-.005c-.068.06-.083.106-.097.144v.003l-.02-.035-.023-.042-.043.023c-.002.001-.004.001-.005.003a.164.164 0 0 1-.011.003 1.655 1.655 0 0 1-.358.135c-.006 0-.011 0-.017.003l-.014.003c-.03.007-.061.005-.093.009.001-.107.006-.228.011-.341l.007-.165c.133-.027.244-.096.291-.214.081-.204-.057-.45-.309-.55a.548.548 0 0 0-.406-.002.346.346 0 0 0-.188.468c.013.026.035.049.053.074l-.002.001a9.845 9.845 0 0 0-.504.527c-.026-.017-.053-.029-.077-.046a1.473 1.473 0 0 1-.345-.323l-.03-.038-.039.031-.054.039-.032.026-.002-.006a.287.287 0 0 0-.056-.177l.002.006c-.02-.065-.026-.108-.033-.138-.004-.032-.008-.053-.028-.063-.019-.009-.04.002-.048.007-.011.005-.033.02-.057.15-.018.007-.098-.043-.147-.074l-.034-.025a.204.204 0 0 0-.067-.029l.007.003c-.05-.025-.07-.025-.098 0-.02-.005-.05-.008-.061.016-.016.032.013.061.087.124.033.031.071.062.104.098l.001.001.002.001c.098.077.179.16.248.242l-.153.117-.039.03.03.038c.18.229.402.417.657.561l.089.066c.069.052.107.117.102.175a.088.088 0 0 1-.047.074l-.066.016c-.477.125-.854.41-1.035.784a1.07 1.07 0 0 0-.113.477c0 .088.014.179.038.271h-.002l.003.008c-.332-.307-.48-.706-.477-1.259a.126.126 0 0 0-.06-.125c-.024-.011-.085-.034-.159.033a.327.327 0 0 0-.103.204c-.004.058-.003.122.001.189-.031.004-.071.02-.106.074a.318.318 0 0 0-.046.222c.019.104.052.208.096.31-.003 0-.006.005-.009.006-.159-.258-.235-.571-.233-.961.006-.081-.044-.115-.058-.125-.025-.011-.085-.033-.16.032a.321.321 0 0 0-.101.203c-.006.06-.004.122 0 .19-.031.004-.071.02-.106.075a.31.31 0 0 0-.045.221c.017.105.05.209.095.31-.029.011-.066.039-.082.109a.335.335 0 0 0 .032.226c.021.032.044.067.071.103-.025.01-.078.044-.073.138a.316.316 0 0 0 .09.208c.064.064.141.12.221.172-.02.026-.042.072-.011.146.03.069.093.137.157.166.063.027.133.052.214.072a.025.025 0 0 1-.005.008c-.01.023-.032.084.036.156a.337.337 0 0 0 .256.102c-.003.028-.003.087.074.136a.339.339 0 0 0 .219.042c.002.028.015.088.107.117a.337.337 0 0 0 .229-.015c.042-.02.082-.049.123-.073a.29.29 0 0 0 .16.021c0 .022.02.072.086.102.022.143.038.293.038.448 0 .193-.019.377-.053.554a1.099 1.099 0 0 0-.312.121c-.305.171-.506.47-.54.798l-.003.034.001.001-.003.067c0 .369.205.707.546.899.177.099.38.154.585.154.189 0 .363-.055.52-.132a.272.272 0 0 0-.024.024l-.005.008v.009c0 .013-.011.041-.021.075a1.253 1.253 0 0 0-.043.128H294v.003c0 .063-.032.084-.039.087l-.003.001c-.035.007-.059.022-.069.045-.005.012-.002.024 0 .034.002.018.01.033.03.042.048.02.151-.005.19-.037l.001-.003c.082-.018.128-.102.167-.18.023-.048.048-.097.073-.107h.005l.004-.005a.05.05 0 0 1 .017-.01c.01-.005.021-.015.032-.022.116.074.24.119.373.121.454.008.857-.438.98-1.085.025-.124.039-.245.04-.364l-.001-.142a2.06 2.06 0 0 0-.08-.479z" transform="matrix(5.23954 0 0 5.23954 -1736.178 -1752.22)"/><path style="fill:#cccdce" d="M296.042 344.908a1.037 1.037 0 0 0-.375.432l-.087-.003c-.034 0-.23-.007-.266-.009.085-.062.11-.064.17-.12.059-.055 0-.005 0-.008a.636.636 0 0 0 .234-.384.643.643 0 0 0-.112-.44l.002-.001h-.002l.003-.003c.096-.065.18-.14.253-.219.013.019.029.036.037.052.009.014.026.018.039.027a.168.168 0 0 0 .123.033h.013a.19.19 0 0 0 .075-.033.05.05 0 0 1 .011.001.84.84 0 0 1 .06.101.48.48 0 0 0-.101.116c-.01.014-.081.136-.012.216.015.02.049.043.107.041v.003a.1.1 0 0 1 .015.021c.016.022.035.042.054.065a1.15 1.15 0 0 0-.167.063c-.026.015-.05.033-.074.049z" transform="matrix(5.23954 0 0 5.23954 -1736.178 -1752.22)"/><path style="fill:#cccdce" d="M295.318 345.204c-.022.014-.042.03-.067.044-.022.013-.048.023-.072.034-.026.013-.052.027-.081.037l-.065-.131-.024-.052-.04-.082-.03-.061-.027-.058c.191-.083.394-.238.569-.43.017-.018.034-.035.049-.053.001-.002.002-.003.005-.004.017.032.036.064.048.096v.002l.012.028a.51.51 0 0 1 .025.227c-.02.131-.103.246-.226.347l-.006.005c-.021.019-.046.035-.07.051z" transform="matrix(5.23954 0 0 5.23954 -1736.178 -1752.22)"/><path style="fill:#fff0d9" d="M294.882 344.347c.001.017.008.03.02.042.037.029.107.023.208.016l.043-.006c.033-.001.05.003.05.003l.002.001h.004l.039.002a.13.13 0 0 1 .003.015l.004.015a.876.876 0 0 0-.06.015c-.042.011-.093.021-.142.037h.003c-.167.028-.305.08-.431.139l-.012-.088a.2.2 0 0 0 .081-.08.255.255 0 0 1 .113-.11l.003-.001.003-.003c.049-.046.077-.082.096-.106a.703.703 0 0 1-.026.099l-.001.005v.005z" transform="matrix(5.23954 0 0 5.23954 -1736.178 -1752.22)"/><path style="fill:#ccd4e9" d="m294.661 344.902-.007-.053-.021-.164c.125-.06.264-.114.432-.144h.005a1.36 1.36 0 0 1 .139-.036c.096-.024.135-.035.135-.069.003-.027-.024-.038-.044-.045-.014-.033-.032-.043-.087-.044h.007c-.002 0-.025-.008-.071-.003l-.044.003c-.055.006-.151.012-.163-.003.039-.126.028-.148.021-.158a.053.053 0 0 0-.039-.03c-.022 0-.035.017-.055.041-.018.024-.044.06-.094.106a.327.327 0 0 0-.131.127.137.137 0 0 1-.038.048l-.02-.15-.006-.042-.041-.001c-.062 0-.114-.003-.162-.01h-.019l-.014-.002a1.751 1.751 0 0 1-.327-.077.18.18 0 0 0-.034-.017 1.496 1.496 0 0 1-.204-.095v-.002l-.012-.013-.012-.015-.019-.004-.019-.002h-.01a.664.664 0 0 0-.095-.008.393.393 0 0 1-.016-.099.113.113 0 0 0 .057-.019c.043-.023.09-.066.096-.117a.803.803 0 0 0-.005-.156c.683.017 1.3.23 1.627.567a1.8 1.8 0 0 0 .1.147v.004c-.007.008-.012.016-.02.022-.188.224-.417.398-.626.476l-.051.02.023.048.025.05a.317.317 0 0 0-.092.015c-.069.003-.112-.003-.144-.004-.032-.003-.052-.006-.067.011-.014.017-.008.036-.005.046.004.013.012.036.132.095.003.018-.069.082-.11.119l-.033.029a.182.182 0 0 0-.047.057l.005-.008c-.037.043-.042.062-.027.095-.008.019-.021.051.003.065.011.005.023.005.041-.003a.453.453 0 0 0-.104.065c-.023.017-.042.037-.064.057a3.126 3.126 0 0 0-.13-.749c.137.024.279.035.424.032l.057-.003z" transform="matrix(5.23954 0 0 5.23954 -1736.178 -1752.22)"/><path style="fill:#ba9400" d="M293.416 343.85a.38.38 0 0 1-.016.185c.005.01-.014.032-.031.035-.036.01-.072.019-.109.031l-.146-.055c-.041-.043-.002-.139-.015-.167a.425.425 0 0 0-.033-.12c-.008-.016-.014-.033-.021-.052a.279.279 0 0 1-.017-.096.459.459 0 0 1 .049-.205.224.224 0 0 1 .136-.132.44.44 0 0 1 .271.02c.005.001.013.002.017.004a.417.417 0 0 0-.094.225.638.638 0 0 0-.008.138.797.797 0 0 0 .017.189z" transform="matrix(5.23954 0 0 5.23954 -1736.178 -1752.22)"/><path style="fill:#fff0d9" d="M293.523 343.861c-.007.007-.007.02-.012.029-.001-.02.005-.041.001-.06a.925.925 0 0 1-.013-.272.325.325 0 0 1 .071-.182.638.638 0 0 0 .056.175c.007.016.013.054.02.098.007.056.012.117.007.144-.002.019-.05.054-.069.054a.056.056 0 0 0-.061.014zM293.523 344.122c-.005.042-.001.035-.045.07-.005 0-.046-.03-.052-.029a.374.374 0 0 0 .082-.146c.001.006.022.06.015.105zM294.482 345.412c.003-.006.012-.017.024-.032l.003-.001v-.004s.009-.013.035-.038l.031-.027c.073-.066.129-.114.13-.161a.062.062 0 0 0-.016-.043l-.003-.003-.006-.003c-.047-.021-.072-.037-.089-.047.029.003.076.006.144.004l.005-.001.003-.001c.049-.015.082-.018.109-.015l.068.142c-.082.042-.166.084-.248.146l.003-.001a2.158 2.158 0 0 0-.125.076c-.018.011-.038.022-.054.033l-.008-.011-.006-.013z" transform="matrix(5.23954 0 0 5.23954 -1736.178 -1752.22)"/><path style="fill:#ccd4e9" d="M294.583 345.449a2.1 2.1 0 0 1 .123-.074l.001-.001h.001c.079-.06.16-.101.239-.14l.059.121a1.715 1.715 0 0 1-.188.051c-.027 0-.054.002-.077.003-.006 0-.011.003-.016.004a.44.44 0 0 0-.111.026c-.032.01-.061.029-.092.043.018-.01.034-.014.061-.033z" transform="matrix(5.23954 0 0 5.23954 -1736.178 -1752.22)"/><path style="fill:#fff0d9" d="M295.827 343.984c-.011-.009-.021-.023-.036-.028-.02-.01-.026-.021-.039-.05 0-.003-.002-.004-.003-.007a.551.551 0 0 0-.061-.116c-.006-.009-.008-.017-.012-.024.083.02.125.045.141.063a.087.087 0 0 1 .017.024.52.52 0 0 0 .032.116c0 .005.004.01.006.016a.865.865 0 0 0 .028.066c.009.01.014.018.023.027l-.005.005-.018-.033c-.016-.016-.034-.026-.049-.04l-.024-.019z" transform="matrix(5.23954 0 0 5.23954 -1736.178 -1752.22)"/><path style="fill:#cccdce" d="M296.495 345.101a.145.145 0 0 1-.121-.006 1.033 1.033 0 0 1-.193-.159.727.727 0 0 1 .138-.048c.058.055.116.109.185.16.031.015.028.039-.009.053zM297.56 343.766c.199-.184.335-.394.414-.639a2.24 2.24 0 0 0 .093-.689c-.007-.044.016-.051.053-.02a.233.233 0 0 1 .07.136c.022.265-.173.866-.173.906.103-.169.181-.364.238-.59.006-.043.029-.045.056-.005a.242.242 0 0 1 .034.151c-.045.241-.347.748-.354.787.099-.099.195-.214.285-.344.021-.04.044-.033.055.012a.237.237 0 0 1-.021.153c-.095.157-.411.484-.426.521.121-.07.244-.154.365-.256.03-.035.051-.022.049.026a.244.244 0 0 1-.06.142c-.131.126-.515.36-.541.391.089-.022.177-.049.271-.082.039-.023.056-.003.036.042a.223.223 0 0 1-.105.111c-.116.054-.457.171-.502.201.067.004.133.008.204.008.046-.007.054.014.021.052a.25.25 0 0 1-.137.069c-.108.008-.4.003-.44.01.082.032.168.06.26.085.044.005.046.03.005.057a.253.253 0 0 1-.151.03 2.49 2.49 0 0 1-.325-.107c-.079-.03-.146-.057-.156-.059.009.007.023.014.031.022.015.011.032.02.046.031l.071.046c.063.044.12.09.19.129.042.018.038.041-.009.056a.24.24 0 0 1-.153-.007c-.047-.022-.091-.055-.134-.082a1.27 1.27 0 0 1-.119-.084 1.935 1.935 0 0 1-.143-.129c-.005-.006-.013-.011-.02-.017-.016-.018-.03-.038-.046-.055-.017-.022-.032-.043-.05-.064l-.031-.038c-.017-.025-.035-.051-.052-.079-.004.003-.007.003-.011.005-.125.05-.046-.095-.043-.101.017-.028.043-.042.065-.064.024-.024.045-.054.075-.072.157-.098.367-.111.479-.153.157-.064.295-.134.418-.208.121-.07.225-.151.318-.235z" transform="matrix(5.23954 0 0 5.23954 -1736.178 -1752.22)"/><path style="fill:#cccdce" d="M297.253 343.077c.051-.205.074-.433.074-.688-.006-.043.012-.053.04-.02a.26.26 0 0 1 .056.137c.017.264-.136.866-.136.905.08-.169.142-.366.187-.589.003-.043.022-.045.044-.005.02.041.033.108.026.151-.035.241-.272.746-.278.787.078-.099.152-.213.224-.343.016-.039.034-.034.042.015a.271.271 0 0 1-.017.151 1.428 1.428 0 0 1-.118.196 2.426 2.426 0 0 1-.611.347c-.029.01-.078.021-.129.032-.107.024-.24.057-.354.125-.008-.015-.013-.033-.021-.047a.306.306 0 0 0 .085-.032.165.165 0 0 0 .069-.09c.449-.259.706-.588.817-1.032z" transform="matrix(5.23954 0 0 5.23954 -1736.178 -1752.22)"/><path style="fill:#ba9400" d="M296.129 343.417c.007.024.029.051.042.077.054.107.137.22.251.321.032.026.038.037.039.04l-.021.024c-.036.032-.089.079-.089.174 0 .001-.003.002-.003.005-.003.025-.011.044-.033.057a.22.22 0 0 1-.107.02h-.001c-.025.001-.041-.002-.064-.006l-.037-.007c-.01-.003-.026-.003-.034-.007-.029-.016-.061-.068-.088-.123a1.5 1.5 0 0 1-.04-.111l-.002-.006c-.004-.015-.009-.032-.011-.045-.012-.075-.087-.13-.217-.164-.003-.001-.006-.001-.01-.004-.027-.005-.054-.014-.087-.02-.011-.001-.013-.003-.013-.004v-.012c-.006-.05.057-.181.129-.283.039-.052.095-.072.173-.06a.387.387 0 0 1 .183.087.147.147 0 0 1 .04.047z" transform="matrix(5.23954 0 0 5.23954 -1736.178 -1752.22)"/><path style="fill:#ccd4e9" d="M296.068 343.173c.005.024.008.048.012.074a.461.461 0 0 0-.158-.06.268.268 0 0 0-.271.1c-.043.063-.186.277-.137.387.01.025.036.033.06.045a.188.188 0 0 0 .032.12.408.408 0 0 1 .052.097.21.21 0 0 0 .046.072c.012.013.022.025.042.036.012.006.023.019.035.029a.024.024 0 0 1 .011.008c-.009.012-.02.022-.032.034a1.448 1.448 0 0 1-.204.174l-.014-.017a.783.783 0 0 0-.09-.113c-.22-.37-.342-.865-.342-1.397 0-.081.004-.161.011-.241v-.03c.008-.074.016-.148.027-.22l.003-.029c.002.001.002.003.005.004.483.167.829.519.912.927z" transform="matrix(5.23954 0 0 5.23954 -1736.178 -1752.22)"/><path style="fill:#fff0d9" d="M295.862 341.316c.012-.034.024-.069.082-.118l.002-.003.002-.002c.034-.05.049-.084.062-.109 0 .02 0 .047-.004.086l-.001.006.002.004a.06.06 0 0 0 .027.035c.039.021.102 0 .191-.026l.038-.012c.029-.008.043-.008.044-.008h.006c.016-.002.03-.005.035-.004.001.003.003.005.004.011l.004.009-.048.025a1.72 1.72 0 0 0-.121.061l.003-.002a1.55 1.55 0 0 0-.311.17l-.04-.072a.164.164 0 0 0 .023-.051z" transform="matrix(5.23954 0 0 5.23954 -1736.178 -1752.22)"/><path style="fill:#0076bd" d="M294.709 340.362a.265.265 0 0 1 .144-.141.44.44 0 0 1 .334.004c.201.078.314.268.253.423-.031.082-.106.134-.199.157a.449.449 0 0 0 0-.09c-.002-.042-.014-.075-.025-.107v-.008l-.002-.002a.293.293 0 0 0-.039-.069c-.007-.008-.014-.017-.021-.023a.205.205 0 0 0-.056-.043l-.001-.002h-.005c-.003-.002-.008-.002-.013-.003a.24.24 0 0 0-.167 0 .4.4 0 0 0-.172.136c-.007-.012-.018-.02-.023-.031a.266.266 0 0 1-.008-.201z" transform="matrix(5.23954 0 0 5.23954 -1736.178 -1752.22)"/><path style="fill:#ba9400" d="M294.92 341.323a.656.656 0 0 1 .129-.213c.023-.019.041-.042.061-.066l.03-.023-.002.038c-.005.118-.01.245-.011.355-.048.006-.097.016-.147.016-.025 0-.05-.003-.076-.004.007-.034.004-.069.016-.103z" transform="matrix(5.23954 0 0 5.23954 -1736.178 -1752.22)"/><path style="fill:#fff0d9" d="M294.901 341.092a.146.146 0 0 1-.109-.001.147.147 0 0 1-.07-.084c-.007-.02-.003-.045-.006-.067-.001-.026-.004-.052 0-.082a.71.71 0 0 1 .029-.098c.002-.006.002-.013.005-.02l.001-.003c.011-.026.031-.043.047-.066a.326.326 0 0 1 .147-.125.135.135 0 0 1 .108.001c.004.002.006.006.01.009.032.02.05.05.061.075a.327.327 0 0 1-.006.185c-.008.029-.011.056-.023.084l-.006.007c-.013.025-.03.044-.046.064a.484.484 0 0 1-.056.063.238.238 0 0 1-.086.058z" transform="matrix(5.23954 0 0 5.23954 -1736.178 -1752.22)"/><path d="m-189.801 34.498.02-.031v.037l-.02-.006z"/><path style="fill:#fff0d9" d="M294.682 341.127c.02.02.042.038.068.052a.24.24 0 0 0 .151.01c-.02.034-.042.069-.056.108-.014.041-.014.082-.02.123a1.506 1.506 0 0 1-.25-.045c.03-.046.063-.09.083-.144.013-.034.017-.071.024-.104z" transform="matrix(5.23954 0 0 5.23954 -1736.178 -1752.22)"/><path style="fill:#ba9400" d="M294.614 340.876c0 .019.006.033.006.049a.619.619 0 0 1-.034.28c-.021.056-.058.101-.09.147a1.553 1.553 0 0 1-.234-.1c.09-.098.22-.24.352-.376z" transform="matrix(5.23954 0 0 5.23954 -1736.178 -1752.22)"/><path style="fill:#fff0d9" d="M293.209 340.746a1.385 1.385 0 0 0-.107-.1l-.046-.042.01-.01a.046.046 0 0 1 .01-.01.214.214 0 0 1 .036.015h.008c-.001 0 .016.005.044.025l.037.021c.082.055.144.093.189.083a.053.053 0 0 0 .037-.025l.004-.005.001-.004a.622.622 0 0 1 .024-.099.906.906 0 0 0 .033.14l.002.002.001.004a.242.242 0 0 1 .048.147c0 .017.002.031.004.046l-.028.021-.05.038a1.674 1.674 0 0 0-.259-.25l.002.003z" transform="matrix(5.23954 0 0 5.23954 -1736.178 -1752.22)"/><path style="fill:#ccd4e9" d="M293.046 342.933c.17-.348.524-.615.973-.73.023-.008.048-.013.07-.018l.007-.001.005-.003a.189.189 0 0 0 .104-.155c.008-.094-.043-.189-.142-.262l-.088-.067-.002-.001-.004-.003a2.08 2.08 0 0 1-.602-.497c.012-.011.063-.05.111-.086.016-.014.031-.023.045-.035l.053-.04.015-.012.049-.036.053-.042.013-.011c.063.074.196.208.335.305.026.017.055.031.081.047.034.021.065.042.101.059.072.037.146.069.223.095.016.006.031.014.048.017l.029.007c.061.018.124.032.186.042.034.006.068.008.102.011.028.004.055.005.081.006.03.003.06.007.09.007.05 0 .099-.011.147-.016l.097-.01c.039-.005.077-.005.114-.013l.021-.006.01-.003a1.71 1.71 0 0 0 .354-.126l.014.022a1.548 1.548 0 0 1 .096.171l.096.179a2.473 2.473 0 0 1-.689.209l-.018.001-.012.014a.82.82 0 0 0-.129.183l-.002.003-.007.007-.003.019-.003.004-.007.035.005-.02a3.54 3.54 0 0 0-.046.429l-.002.146c0 .063.002.125.005.187l.005.07.01.109c.003.03.008.06.012.089a1.606 1.606 0 0 0 .039.228c.04.196.099.378.172.544-.367-.263-.923-.422-1.525-.434a.212.212 0 0 0-.025-.066c-.01-.016-.032-.1-.048-.181l-.006-.046-.031-.016c-.01-.006-.246-.13-.441-.063a.323.323 0 0 0-.195.185c-.014.033-.02.061-.028.089-.004-.029-.013-.059-.013-.088a.92.92 0 0 1 .097-.432z" transform="matrix(5.23954 0 0 5.23954 -1736.178 -1752.22)"/><path style="fill:#cccdce" d="M292.029 342.964a.234.234 0 0 1 .033-.148c.027-.042.052-.039.056.005.06.224.138.419.239.589 0-.039-.194-.64-.174-.906a.24.24 0 0 1 .071-.136c.037-.032.061-.024.053.02 0 .255.028.483.093.688.096.298.283.542.561.75.012.026.03.049.043.072 0 .008.003.014.002.023a.314.314 0 0 0 .014.111l-.053-.013a2.434 2.434 0 0 1-.63-.363c-.09-.166-.274-.505-.308-.692zM293.215 344.981c-.008.001-.019-.001-.027-.001.027-.019.05-.046.075-.069.004.018.006.037.011.053-.02.006-.044.014-.059.017z" transform="matrix(5.23954 0 0 5.23954 -1736.178 -1752.22)"/><path style="fill:#cccdce" d="M293.309 344.739c-.023.023-.05.043-.073.065a.988.988 0 0 1-.177.142.854.854 0 0 1-.082.05c-.025.015-.048.034-.074.046a.246.246 0 0 1-.155.009c-.046-.015-.051-.039-.009-.056.055-.031.098-.066.147-.099.047-.032.095-.062.139-.093.016-.013.038-.024.054-.037a1.149 1.149 0 0 0-.096.036 4.053 4.053 0 0 1-.385.128.238.238 0 0 1-.152-.029c-.043-.025-.04-.048.005-.056.076-.02.146-.042.215-.07l.044-.014c-.008-.002-.031-.002-.057-.003-.1-.003-.296-.001-.381-.009a.228.228 0 0 1-.138-.069c-.034-.035-.023-.057.02-.052.071 0 .139-.002.205-.007-.044-.029-.385-.146-.503-.2a.226.226 0 0 1-.105-.112c-.018-.045-.001-.064.037-.042.094.033.184.06.271.082-.026-.03-.409-.264-.541-.391a.236.236 0 0 1-.06-.141c-.002-.048.02-.061.049-.027.122.102.243.188.365.258-.017-.039-.332-.363-.425-.521a.238.238 0 0 1-.022-.153c.01-.047.035-.053.054-.013.092.129.187.244.286.343-.007-.038-.31-.546-.354-.789a.237.237 0 0 1 .033-.149c.026-.041.051-.04.055.004.06.226.138.421.239.59 0-.04-.195-.642-.173-.906a.233.233 0 0 1 .07-.137c.037-.032.06-.022.054.021-.002.254.027.482.092.689.042.129.101.247.173.358.025.037.058.07.086.105.196.246.477.452.89.62.035.013.081.024.132.036a.711.711 0 0 1 .067.016.61.61 0 0 1 .071.017c.023.007.047.013.07.021a.504.504 0 0 1 .281.199c.001.003.015.028.021.054.011.039.011.078-.063.048a.04.04 0 0 1-.013-.005c-.015.026-.034.052-.051.077-.025.036-.055.07-.082.102l-.045.056a.073.073 0 0 1-.009.008zM293.038 346.387a1.14 1.14 0 0 1 .239-.1 1.732 1.732 0 0 1-.082.27c-.133.344-.325.539-.527.539a.29.29 0 0 1-.066-.006l-.018-.005c-.011-.002-.02-.008-.031-.011a.959.959 0 0 1 .485-.687z" transform="matrix(5.23954 0 0 5.23954 -1736.178 -1752.22)"/><path style="fill:#cccdce" d="M293.576 348.155c-.188 0-.374-.046-.536-.139a.935.935 0 0 1-.496-.814v-.027l.005.001.043.011c.007 0 .013.003.017.003.02.003.04.004.059.004.246 0 .472-.222.619-.602.044-.113.079-.235.105-.364l.015-.071h-.001a3.042 3.042 0 0 0 .015-.957c-.004-.035-.014-.063-.02-.099a2.828 2.828 0 0 0-.016-.08 2.727 2.727 0 0 0-.017-.088l-.022-.098c.012-.014.029-.025.043-.041.05-.055.095-.11.134-.167.006-.008.01-.016.016-.021l.001-.002c.058.002.092-.023.106-.041a.111.111 0 0 0 .026-.06.202.202 0 0 0-.019-.117.224.224 0 0 0-.018-.041.483.483 0 0 0-.106-.118c.02-.008.04-.014.057-.031a.145.145 0 0 0 .035-.061c.022.002.046.002.073.006h.007l.005.007.006.008.006.003c.088.051.176.09.263.122.071.026.147.038.223.053.042.009.083.025.127.031l.02.001a4.731 4.731 0 0 0 .142.01l.018.132h-.001.001v.002l.008.056.013.099.008.06.01.076c-.147 0-.291-.014-.425-.043l-.087-.017.028.08c.097.281.146.58.156.886a1.513 1.513 0 0 0-.178.25c-.015.026-.031.048-.044.075-.003.005-.003.01-.005.015a1.975 1.975 0 0 0-.179.8c-.008.456.128.862.344 1.134a1.038 1.038 0 0 1-.584.174z" transform="matrix(5.23954 0 0 5.23954 -1736.178 -1752.22)"/><path style="fill:#fff0d9" d="M294.35 348.189c-.01.006-.019.011-.026.017l-.004.002c-.039.022-.067.071-.095.131-.035.068-.074.146-.134.154l-.01.001-.006.007c-.022.02-.111.04-.132.029v-.001c0-.001.006-.006.029-.012.033-.006.084-.048.087-.136v-.003l.04-.118a.391.391 0 0 0 .021-.079.353.353 0 0 1 .123-.097.972.972 0 0 0 .113.101c-.004.001-.003.002-.006.004z" transform="matrix(5.23954 0 0 5.23954 -1736.178 -1752.22)"/><path style="fill:#cccdce" d="M295.667 347.235c-.116.599-.478 1.012-.883 1.005a.611.611 0 0 1-.339-.115.736.736 0 0 1-.142-.117l-.005-.002c-.021-.024-.041-.052-.06-.077-.202-.255-.332-.64-.324-1.073a1.91 1.91 0 0 1 .159-.729c.006-.015.011-.028.019-.042.006-.015.017-.033.023-.048a1.23 1.23 0 0 1 .32-.397.71.71 0 0 1 .301-.131l.015-.002c.023-.004.048-.004.074-.004h.004l.006-.003c.063-.011.13-.03.198-.053v.002l.028-.005.025-.001a2.58 2.58 0 0 1 .521-.007l.02.002c-.049.13-.076.266-.078.406v.061l.001.013a1.213 1.213 0 0 0 .077.382c.041.143.067.296.073.45.003.05.004.093.003.136a2.335 2.335 0 0 1-.036.349z" transform="matrix(5.23954 0 0 5.23954 -1736.178 -1752.22)"/><ellipse style="fill:#002b5d" ry=".205" rx=".058" cy="348.098" cx="298.832" transform="rotate(-108.585 67.973 1571.713) scale(5.23926)"/><path d="m-182.125 68.707-.053-.01-.031.02.084-.01z"/><path style="fill:#002b5d" d="M-206.007 106.7c-.53.445-1.3.733-2.164.733-.854 0-1.624-.283-2.159-.734a2.387 2.387 0 0 0 2.159 1.394 2.397 2.397 0 0 0 2.164-1.394zM-205.939 109.639c.959 0 1.787-.577 2.159-1.389-.54.435-1.31.734-2.159.734-.849 0-1.63-.299-2.164-.734a2.384 2.384 0 0 0 2.164 1.389zM-208.02 105.29a2.364 2.364 0 0 0 2.154 1.383c.97 0 1.792-.566 2.164-1.383-.529.445-1.31.733-2.164.733-.854 0-1.624-.288-2.153-.733zM-210.45 109.639a2.39 2.39 0 0 0 2.164-1.389c-.535.435-1.305.734-2.164.734-.854 0-1.63-.299-2.159-.734a2.382 2.382 0 0 0 2.159 1.389zM-214.961 109.639c.964 0 1.791-.577 2.163-1.389-.534.435-1.304.734-2.163.734-.855 0-1.62-.299-2.16-.734a2.382 2.382 0 0 0 2.16 1.389zM-219.462 109.639c.959 0 1.786-.577 2.158-1.389-.534.435-1.299.734-2.158.734-.854 0-1.63-.299-2.164-.734a2.384 2.384 0 0 0 2.164 1.389zM-212.719 105.29c-.534.445-1.294.733-2.164.733-.86 0-1.63-.288-2.153-.733a2.37 2.37 0 0 0 2.153 1.383 2.382 2.382 0 0 0 2.164-1.383zM-215.024 106.7c-.53.445-1.31.733-2.164.733-.86 0-1.625-.283-2.154-.734a2.373 2.373 0 0 0 2.154 1.394 2.386 2.386 0 0 0 2.164-1.394zM-208.213 105.29c-.53.445-1.305.733-2.164.733-.854 0-1.624-.288-2.159-.733a2.383 2.383 0 0 0 2.16 1.383 2.377 2.377 0 0 0 2.163-1.383zM-210.518 106.7c-.535.445-1.305.733-2.164.733-.854 0-1.625-.283-2.164-.734a2.394 2.394 0 0 0 2.164 1.394 2.386 2.386 0 0 0 2.164-1.394zM-115.41-42.297c.393-.52 1.194 1.247 1.131 3.217 5.36-1.51 3.841 0 1.384 1.833-3.04 1.384.932 1.32 2.326 3.883-.13.456-4.113-.136-3.573.325 4.432 3.086-1.855 1.315-3.123-.131.927 1.378-1.263 2.887-2.321 2.227 2.19-2.688.272-5.58-2.913-6.304 5.564.655 6.759-2.027 7.089-5.05zM-266.576-30.943c-1.059.66-3.249-.85-2.321-2.227-1.19 1.446-7.556 3.217-3.05.13.535-.46-3.453.132-3.578-.324 1.388-2.562 5.302-2.5 2.258-3.883-2.395-1.833-3.977-3.342 1.457-1.833-.137-1.965.654-3.736 1.12-3.217.33 3.023 1.457 5.705 7.032 5.05-3.185.723-5.108 3.61-2.918 6.304zM-265.319 127.705c-1.524 1.839-4.233 1.189-4.7.728 5.764-4.008-3.112-12.601-3.641-13.728 2.117 2.049 11.92 7.818 8.341 13zm-1.32-17.857c3.977-.387 5.501 4.27 4.108 8.074 5.24-1.891 5.307.729 7.953-.052-3.248 8.792-14.382.325-19.81-4.857 5.622 3.275 8.949.718 7.749-3.165zm4.375-65.83c-.865 3.28-5.365 1.772-4.705-1.31.592 1.505 2.709 2.563 4.705 1.31zm-14.78 17.129c.591-9.248 8.016-14.828 10.604-25.983.262.262.131.057.33.388-.922 7.22-3.112 19.632-10.935 25.595zm14.974-15.813c-1.719 2.295-3.312 3.212-6.026 2.43 2.122 3.68 6.89 1.442 6.026-2.43zm-10.862 23.227c2.316-7.21 9.735-12.858 7.823-17.977 1.32-.126 2.117-.393 2.777-.985 4.176 7.613-8.153 17.783-10.6 18.962zm18.485-24.93c1.19 5.25-5.57 6.24-6.832 1.305 1.797 1.708 5.245 1.839 6.832-1.305zm-4.506 6.88c5.167 14.764-17.568 35.183-18.49 49.89-2.651-9.777 15.975-32.883 18.49-49.89z"/><path style="fill:#cccdce" d="M-284.862 17.439c-1.394.13-2.646-1.253-2.85-2.767 10.541 1.98 16.106-25.134 16.84-27.162-1.536 11.48-5.77 29.928-13.99 29.928zm11.532 15.026c3.914-1.839 4.438-7.02 1.98-7.686 1.001.267-2.907 9.064-7.094 4.868 5.114.068 7.566-7.22 5.706-9.384-.199.455-1.257 4.26-3.846 4.59 1.86-5.387 2.919-10.113 3.977-15.761-.204-.063-3.573 15.305-9.997 15.043.985 0 10.6-18.449 11.255-28.294-.058 5.187-.325 14.964 1.53 21.2 2.976 12.475 8.42 15.692 8.215 21.46-5.13-3.316-6.11-4.804-5.89-9.483-.104.65-.282 1.341-.539 2.007-1.19 2.1-3.243 3.604-5.297 1.44zm13.832-4.38c-.303-.052-1.949 0-2.766-1.923.2 2.562.267 2.431.728 4.066-.262.655-.922.985-1.587.729-7.294-10.5-7.823-24.16-7.75-27.042.786 9.007 10.679 21.32 11.375 24.17zm.938-9.337c.068.985-1.32 1.84-3.112 1.048-4.213-1.21-8.85-13.643-9.127-21.498-.037-.272-.063-.492-.021-.555 0 .178.01.372.02.555.504 3.286 6.257 20.089 12.24 20.45zM-261.075.96c-1.325-.524-.99.33-1.325.461-2.196.226-6.02-5.643-6.943-8.88 1.719 10.515 10.29 14.408 10.789 19.05-.923.461-2.117-.063-2.908-.393-8.483-8.404-8.682-17.327-8.819-17.327-.864-6.23 2.458-15.357 8.41-16.143-2.447 2.688-7.545 8.73-3.773 12.47 1.724 1.64 6.225-.199 6.1-2.688 3.447 1.504.728 6.43-3.181 5.769 4.17-.33 6.429 2.887 7.02 5.78-4.16 1.01-10.573-3.752-12.38-9.872 1.692 6.817 6.968 11.129 12.522 10.458-.812 3.023-4.186 1.514-5.512 1.315z"/><path style="fill:#ccc" d="M-184.855-54.684c2.688 1.467 4.695 3.909 5.816 7.053 1.063 2.976 1.252 6.381.55 9.855a23.334 23.334 0 0 1-1.226 4.056l-.016.036-.016.047c-2.053 8.614-.586 16.128 3.38 18.187.162.084.32.157.482.22.131.052.272.1.414.136.189.058.367.1.56.126-.104.073-.199.157-.293.23-.398.31-.775.645-1.147 1.006-.31.3-.619.619-.907.949a14.837 14.837 0 0 0-1.807 2.593c-.189.336-.346.671-.477.98-.042.079-.1.157-.142.23-3.699-5.94-5.915-13.334-5.978-21.371a16.836 16.836 0 0 1 3.531-2.39l.32-.167v-.351c-.01-.624-.01-1.142-.01-1.609.01-.655.036-1.346.068-2.111l.026-.409-.393-.147a80.239 80.239 0 0 1-2.808-1.131c-7.645-3.317-14-8.001-16.998-12.533l-.193-.283c5.213-4.59 11.988-6.083 17.264-3.202zm-15.415 37.295a16.117 16.117 0 0 0-.084-1.137c0-.089-.02-.183-.042-.272 2.578-.576 5.025-1.593 7.079-2.971 2.106-1.42 3.778-3.175 4.805-5.088a.242.242 0 0 0 .036-.052c0-.016.01-.042.016-.052.388-.718.912-1.405 1.488-2.065.283 8.048 2.62 15.42 6.403 21.372-.21.278-.414.556-.645.828-1.31 1.52-2.881 2.693-4.29 3.233l-.132.042-.508.168c-2.185.738-4.558 1.74-6.89 2.887-3.495 1.74-6.654 3.693-8.96 5.57-1.828-1.913-4.18-3.951-6.88-5.9l-.062-.053s-.005 0-.021-.01c-.005 0-.016-.006-.016-.006-1.058-.738-.55-4.16 1.866-7.9.293-.451.607-.892.932-1.321 2.117-2.746 4.16-3.883 5.161-3.778l.577.058.062-.566c.063-.603.095-1.205.11-1.792.016-.404.01-.802-.005-1.195zm-6.99-30.1c.084-.038.153-.08.242-.11a26.71 26.71 0 0 0 2.226-1.075c.818-.44 1.567-.901 2.238-1.388 3.243 4.547 9.593 9.163 17.149 12.443.801.341 1.634.682 2.473 1.001-.021.613-.037 1.19-.053 1.745v1.3a17.961 17.961 0 0 0-2.667 1.765c-.482.372-.953.76-1.378 1.174-.995.964-1.833 2.022-2.441 3.138-.016.037-.026.063-.042.09l-.016.025c-.943 1.74-2.483 3.359-4.438 4.669-1.912 1.289-4.191 2.242-6.596 2.782-.053.021-.1.026-.152.037-.288.063-.577.11-.88.162a2.012 2.012 0 0 1-.11-.084c-.1-.094-.215-.183-.32-.277a14.453 14.453 0 0 1-.293-.241c-.949-.776-2.06-1.698-2.573-2.688-.178-.147-.367-.283-.55-.446-.21-.11-.404-.235-.608-.356.204.12.403.246.608.356.283.142.545.315.833.44l.13.053h.142c6.943-.424 11.79-2.992 13.665-7.23.728-1.646.964-3.474.686-5.45l-.026-.21-.157-.136c-4.25-3.746-9.667-7.235-15.671-10.112l-.304-.152-.268.189c-.104.068-.214.11-.314.173-.576.372-1.184.712-1.808 1-.246.116-.513.184-.765.289.608-.99 1.263-1.965 2.039-2.877zm-3.51 4.652c.22-.063.435-.152.64-.236.303-.11.607-.204.9-.325.545-.199 1.07-.435 1.583-.686.545-.273 1.09-.54 1.598-.87 5.716 2.761 10.882 6.088 14.954 9.64.199 1.693-.006 3.255-.624 4.648-1.682 3.794-6.13 6.11-12.543 6.544a16.252 16.252 0 0 1-3.39-2.116 13.848 13.848 0 0 1-2.41-2.52c-.08-.11-.142-.231-.22-.336-1.51-2.132-2.385-4.59-2.385-7.204.006-2.285.66-4.543 1.897-6.54zm35.98 32.108a11.813 11.813 0 0 0-1.446 2.07c-.147.267-.267.529-.367.76 0 0-.026.072-.042.11l-.057.099a16.587 16.587 0 0 1-2.039 2.923c-1.655 1.902-3.604 3.359-5.496 4.071l-.288.1c-.157.047-.31.094-.45.147-2.06.697-4.313 1.64-6.524 2.735-3.495 1.734-6.612 3.688-8.781 5.512 0 0-1.153.974-1.797 1.514l-1.593-1.73c-1.698-1.854-4.103-3.934-6.775-5.878-.021-.01-.052-.031-.052-.031s-.058-.042-.09-.068l-.005-.006-.146-.141h-.037c-2.824-2.353-1.389-7.571 1.31-11.763.194-.293.403-.587.618-.87.162-.22.325-.445.477-.676.959-1.393 4.674-4.542 6.963-5.344.005.325.016.655.005.99a18.83 18.83 0 0 1-.062 1.195c-1.625.194-3.71 1.745-5.612 4.213-.351.45-.676.922-.985 1.399-2.662 4.113-3.332 8.142-1.593 9.415.016.021.047.047.09.084l.03.01c2.82 2.044 5.256 4.155 7.074 6.136l.372.409.43-.357c2.263-1.912 5.517-3.956 9.148-5.758 2.284-1.127 4.621-2.106 6.759-2.835.157-.052.314-.104.477-.152l.162-.052c1.62-.618 3.348-1.907 4.79-3.563a15.835 15.835 0 0 0 1.802-2.599l.01-.02.01-.022a8.46 8.46 0 0 1 .446-.906 12.681 12.681 0 0 1 1.671-2.4c.964-1.121 2.049-2.043 3.128-2.667.131-.068.267-.136.393-.199.508-.236.943-.471 1.352-.65.618-.22.922-.392 3.652-1.32.524-.183 1.153-.34 1.367-.424l2.971.644c-2.132.619-4.128 1.54-6.198 2.494l-1.84.844c-1.063.471-2.236 1.41-3.232 2.557z"/><path style="fill:#ba9400" d="M-228.144-7.706c-.136 1.362-.136 4.328 2.028 5.926-4.134 3.673 1.776 5.177 1.776 5.177s-.042-2.447 3.065-3.081c2.913-.603 3.799-.037 5.9-.63-2.018-.177-4.26-.827-6.45-1.959-2.835-1.456-5.035-3.432-6.32-5.433zm-29.976-40.633c2.74-7.314 4.643-7.807 4.643-7.807-2.143-1.058-9.259 2.437-10.951 5.24 2.824.126-1.32 3.123-1.263 3.495 1.95-.257-.194 3.18.247 2.74 2.326.681 3.033 1.87 2.389 4.8 1.084-.179 3.16-3.694 4.935-8.468zm6.408-4.432c0-1.745 0-1.745.44-3.186-6.549.812-5.035 13.534-11.715 17.4 4.474-.314 7.372-7.728 8.88-7.041.63.995 1.002 2.426.881 3.557 2.337-.88 2.337-4.804 1.955-6.492.812-.12 1.257-.434 1.634-.99-.875-.503-1.446-1.063-2.075-3.248zm-32.233 19.716c-.33.53.125 1.053.194 1.64-2.583.985-3.05 1.907-3.18 4.202.665-.068 1.257-.13 2.058-.854-.267.53.063 1.383.33 1.645 2.788-1.97 2.846-5.386 5.764-6.303-.996.325-3.914.2-5.166-.33zM-170.923-.973c1.907-.163 4.045-.78 6.156-1.866 2.924-1.503 5.15-3.578 6.272-5.616-1.116-.095-5.617-.152-5.664 4.349-3.762-4.93-6.01-.42-6.01-.42s5.324 1.562-.754 3.553zm-45.196-3.553s-2.253-4.51-6.015.42c-.048-4.501-4.548-4.444-5.67-4.35 1.127 2.039 3.354 4.114 6.272 5.617 2.106 1.085 4.25 1.703 6.157 1.866-6.078-1.991-.744-3.553-.744-3.553zm117.16-22.687c-.203-2.295-.591-3.212-3.248-4.202.068-.587.545-1.11.205-1.64-1.263.53-4.176.655-5.172.33 2.982.912 2.982 4.333 5.769 6.303.33-.262.592-1.116.388-1.645.807.723 1.404.786 2.059.854zm-21.314-20.193c.069-.377-4.092-3.369-1.257-3.495-1.703-2.803-8.813-6.298-10.956-5.24 0 0 1.902.493 4.642 7.808 1.777 4.773 3.857 8.289 4.93 8.472-.628-2.929.064-4.118 2.385-4.8.445.43-1.698-3.002.256-2.745zm-14.35-8.551c.434 1.44.434 1.44.434 3.186-.629 2.185-1.257 2.745-2.075 3.243.378.56.818.875 1.64.99-.44 1.687-.44 5.612 1.955 6.492-.2-1.132.183-2.562.875-3.558 1.451-.686 4.406 6.728 8.88 7.042-6.68-3.861-5.16-16.583-11.71-17.395zM-158.15-7.706c-1.279 2.007-3.495 3.982-6.324 5.439-2.196 1.131-4.443 1.781-6.45 1.96.932.69 2.96.628 5.879 1.22 3.096.64 3.08 2.489 3.08 2.489s5.916-1.504 1.782-5.177c2.164-1.608 2.164-4.574 2.033-5.931z"/><path style="fill:#002b5d" d="M-129.195-23.85s6.292 3.794 7.723 8.479a24.353 24.353 0 0 0-3.61-.875c-10.102-1.646-28.614 1.136-39.402 2.4 1.263-.472 2.547-.844 3.883-1.043l.99-.152.037-1.006.01-.482.021-.477.005-.157.032-1.001-.985-.22-5.654-1.237-.141-.031-.304-.063-.299.079-.13.047c-.179.036-.404.13-1.394.524a133.064 133.064 0 0 1-3.176 1.21l-.031.005-.031.016c-.179.073-.336.13-.482.183l-.98.278c-.613.162-1.19.178-1.693.026-1.425-.408-2.572-2.2-3.117-4.925 3.987 1.069 7.183 1.362 7.183 1.362 1.855.2 5.104.456 8.279.33 17.295-.644 26.627-7.01 33.266-3.27zm-29.887-34.805c3.516 4.265-5.501 12.014-6.355 12.868 7.948-2.693 11.39-8.205 12.119-15.687 2.19.398 1.718 2.431 1.854 4.862.404.063 2.589-4.731 5.24-3.222-1.582 5.25-7.493 10.311-9.405 11.951 4.17-1.378 8.598-4.794 12.376-6.99 1.876-1.094 4.862-1.697 6.277-1.76 0 0 .608 2.028.655 2.295-3.825.094-6.592 5.276-6.592 5.276-5.7 9.83-18.773 10.092-26.533 8.955-2.598-.472-4.888-1.646-5.417-2.3 0 0-.11-.069-.268-.194 10.684-2.018 13.403-9.405 16.05-16.054zm-17.086 21.34c.252-1.252.404-2.494.44-3.72 1.132.409 2.53.86 4.228 1.305 5.8 1.724 22.185 3.28 28.965-7.739 0 0 2.357-4.705 5.988-4.647-.125 1.32-2.63 2.305-2.63 2.305l1.027 1.509c.34.519 1.75 1.556 2.227 1.85-.031.324-2.284.094-2.892-.032-1.452-.309-1.588.954-1.588.954-.33.854-4.569 1.514-4.768 1.708.666-.194 4.705-.33 4.705-.257 2.52 1.242-5.632 1.446-6.628 1.834 1.792.33 4.307.985 4.244 1.514 1.195 1.11-.728.917-3.971.524-3.196-.278-4.994 1.32-7.157 2.033 1.98.854 9.342-.786 8.147.65.262.403-8.22 2.368-9.61 3.683-1.063 1.776.792 2.824 3.05 2.688 2.845-.461 4.113-3.61 5.04-2.824 0 .922-4.914 5.842-11.804 5.119-4.239-.461-8.09-2.363-8.808-2.761 0 0-5.428-2.652-8.22-5.622.005-.021.005-.047.015-.074zm-1.294 4.333c.325-.806.602-1.63.843-2.446 20.676 16.656 33.481-.53 37.358 1.325-10.274 6.56-17.369 9.898-29.634 7.315-4.328-1.331-7.116-3.375-8.808-5.051.063-.372.147-.76.24-1.143zm12.685 7.671c20.34 1.844 19.287-7.943 33.926-6.69-10.93 5.841-25.779 12.925-41.487 10.038a53.162 53.162 0 0 1-5.78-1.383c-.235-1.73-.256-3.762.006-6.005 5.161 2.646 11.81 3.841 13.335 4.04zm-84.32-31.332c1.425.068 4.406.665 6.287 1.76 3.789 2.196 8.2 5.617 12.381 6.99-1.923-1.64-7.822-6.696-9.41-11.952 2.657-1.509 4.831 3.286 5.23 3.223.13-2.426-.33-4.464 1.86-4.863.722 7.482 4.17 12.994 12.124 15.688-.86-.855-9.877-8.604-6.356-12.869 2.546 6.403 5.198 13.476 14.943 15.776-.272.488-.524.996-.739 1.504a15.466 15.466 0 0 1-3.861 1.258c-7.75 1.137-20.827.875-26.517-8.955 0 0-2.772-5.182-6.597-5.276.058-.251.655-2.284.655-2.284zm15.42 25.49c2.258.136 4.113-.912 3.05-2.688-1.394-1.315-9.877-3.28-9.61-3.683-1.195-1.436 6.162.21 8.158-.65-2.164-.713-3.966-2.31-7.163-2.033-3.253.393-5.16.587-3.971-.524-.068-.529 2.447-1.184 4.239-1.514-.985-.388-9.143-.592-6.623-1.834 0-.068 4.04.063 4.705.257-.2-.194-4.443-.854-4.773-1.708 0 0-.126-1.263-1.583-.954-.607.12-2.86.356-2.887.032.472-.294 1.881-1.331 2.227-1.85l1.017-1.509s-2.484-.985-2.615-2.305c3.631-.058 5.989 4.647 5.989 4.647 6.78 11.019 23.164 9.457 28.964 7.739.482-.126.886-.252 1.32-.383a13.264 13.264 0 0 0-.565 3.815c0 .697.073 1.394.188 2.08-2.316 1.535-4.48 2.604-4.48 2.604-.728.398-4.574 2.3-8.818 2.761-6.884.723-11.794-4.197-11.794-5.119.912-.791 2.18 2.358 5.025 2.819zm-13.12-2.945c3.62-1.744 15.09 13.204 33.512 1.426a14.207 14.207 0 0 0 1.504 3.452 22.287 22.287 0 0 1-5.392 2.432c-12.25 2.583-19.35-.75-29.624-7.31zm-8.425 2.096c14.65-1.252 13.591 8.535 33.942 6.691 1.236-.168 5.857-1 10.316-2.73a15.372 15.372 0 0 0 2.437 2.557c.199.33.43.624.655.933-.021.403-.021.828-.079 1.2-1.493.45-3.427.953-5.78 1.383-15.707 2.892-30.546-4.192-41.491-10.034zm-1.661 8.153c6.654-3.736 15.986 2.625 33.276 3.275 3.18.125 6.43-.131 8.284-.33 0 0 3.201-.294 7.183-1.363.65-.194 1.195-.387 1.708-.576.042.042.08.094.121.136.178.163.372.304.56.456.66 1.106 1.787 2.043 2.699 2.803.335.267.644.519.885.75l.205.193.277-.047.163-.031c.005.089.026.157.031.24-2.87.829-6.774 4.423-7.738 5.738-5.015.12-12.35-1.231-12.35-1.231-10.793-1.268-29.289-4.045-39.407-2.4 0 0-1.76.262-3.604.875 1.425-4.695 7.707-8.488 7.707-8.488zm36.08 15.174c-5.093-2.74-9.175-.634-9.175-.634s-1.184 3.264-.147 5.522c.152.325.624 1.09 1.3 1.771-.55.875-.74 1.97-.498 3.165.031.178.089.367.13.54-2.147-1.2-6.71-3.464-12.71-3.862-5.25-.351-9.541 1.022-11.904 2.033l-.545-1.745c-.509-1.561-1.347-2.97-2.416-4.013a7.452 7.452 0 0 0-.849-.723 5.325 5.325 0 0 0 1.095-1.95c.304-1.006.252-2.017-.146-2.918-.425-.985-1.242-1.745-2.348-2.222l-2.609-1.12-.005.004c.02.042 1.708 3.144-1.069 3.967-1.713.513-2.808-1.467-2.578-2.625a15.14 15.14 0 0 1 2.541-1.048c.346-.11.734-.2 1.106-.294v-.01l.005.005c9.232-2.337 26.465.163 38.977 2.599 2.117.44 7.807.97 7.43.98-.802.02-4.28 1.11-5.586 2.578zM-132.25-.14c-2.363-1.011-6.654-2.384-11.915-2.033-5.994.403-10.552 2.662-12.716 3.861.057-.172.11-.361.136-.54.236-1.189.052-2.289-.498-3.164.676-.681 1.137-1.446 1.29-1.77 1.047-2.264-.142-5.523-.142-5.523s-4.077-2.107-9.17.634c-1.299-1.462-4.783-2.557-5.585-2.578-.377-.01 5.318-.54 7.43-.98 12.512-2.436 29.745-4.93 38.972-2.599l.01-.005-.005.01c.372.095.765.184 1.11.294.99.314 1.83.665 2.537 1.048.23 1.163-.86 3.138-2.573 2.625-2.777-.823-1.095-3.93-1.074-3.967l-.005-.005-2.605 1.121c-1.105.477-1.917 1.242-2.347 2.222-.388.901-.44 1.907-.13 2.918a5.297 5.297 0 0 0 1.084 1.95c-.299.22-.577.46-.849.723-1.069 1.042-1.902 2.446-2.415 4.013l-.54 1.745z"/><path style="fill:#cccdce" d="M-113.351 9.092c1.058 5.653 2.117 10.374 3.971 15.76-2.515-.33-3.641-4.139-3.777-4.59-1.923 2.165.602 9.453 5.632 9.385-4.176 4.196-8.021-4.6-7.02-4.868-2.516.666-1.992 5.847 1.99 7.686-2.059 2.164-4.113.655-5.307-1.44-.367-.949-.566-1.95-.666-2.809.367 5.303-.414 6.78-5.758 10.28-.278-5.769 5.16-8.986 8.142-21.46 1.923-6.236 1.598-16.013 1.598-21.2.592 9.845 10.196 28.293 11.208 28.293-6.372.273-9.82-15.1-10.013-15.037zm15.105 5.58c-.193 1.514-1.456 2.897-2.85 2.767-8.22 0-12.46-18.449-13.99-29.929.807 2.028 6.372 29.143 16.84 27.162zm-29.09-3.08c.44-4.643 9.013-8.536 10.726-19.052-.922 3.249-4.747 9.112-6.948 8.881-.33-.13.074-.985-1.32-.46-1.331.198-4.71 1.707-5.502-1.316 5.497.66 10.736-3.563 12.528-10.29-1.886 6.036-8.273 10.704-12.397 9.703.66-2.892 2.856-6.11 7.021-5.779-3.908.655-6.617-4.265-3.117-5.769-.126 2.489 4.385 4.323 6.099 2.688 3.714-3.74-1.389-9.782-3.778-12.47 5.968.786 9.216 9.913 8.357 16.143-.131 0-.33 8.928-8.75 17.327-.865.33-1.991.854-2.918.393zm0 7.156c5.926-.361 11.68-17.154 12.172-20.444.005-.189.021-.383.021-.56.042.062.026.282-.021.56-.278 7.854-4.852 20.277-9.117 21.492-1.724.791-3.117-.063-3.054-1.048zm.876 9.337c.696-2.84 10.662-15.158 11.38-24.17.126 2.882-.466 16.541-7.75 27.042-.654.261-1.246-.069-1.587-.729.466-1.64.53-1.504.734-4.066-.85 1.955-2.505 1.87-2.777 1.923z"/><path style="fill:#002b5d" d="M-113.026 68.56c-2.458-1.178-14.713-11.353-10.537-18.961.592.587 1.394.854 2.72.985-1.924 5.124 5.564 10.767 7.817 17.977zm-4.836-20.795c-2.72.78-4.307-.131-5.968-2.431-.917 3.872 3.919 6.11 5.968 2.43zm-5.827-3.746c1.986 1.252 4.103.199 4.768-1.31.66 3.08-3.914 4.59-4.768 1.31zm14.77 17.128c-7.749-5.968-10.002-18.375-10.861-25.595.194-.33 0-.126.267-.388 2.651 11.16 10.002 16.735 10.595 25.983zm-22.535-17.516c1.604 3.149 4.973 3.013 6.843 1.305-1.341 4.93-8.095 3.945-6.843-1.305zm4.449 6.88c2.583 17.007 21.136 40.108 18.558 49.89-.995-14.702-23.73-35.126-18.558-49.89zm11.066 77.922c-.462.456-3.18 1.105-4.7-.728-3.521-5.182 6.224-10.951 8.41-12.994-.598 1.12-9.474 9.714-3.71 13.722zm-7.488-10.51c-1.399-3.805.131-8.462 4.113-8.075-1.2 3.883 2.112 6.44 7.818 3.16-5.512 5.182-16.63 13.649-19.89 4.857 2.725.786 2.725-1.834 7.96.057z"/><circle style="fill:#002b5d" r=".134" cy="330.078" cx="296.355" transform="matrix(5.23954 0 0 5.23954 -1736.178 -1752.22)"/><circle style="fill:#002b5d" r=".134" cy="330.912" cx="296.573" transform="matrix(5.23954 0 0 5.23954 -1736.178 -1752.22)"/><circle style="fill:#002b5d" r=".134" cy="331.717" cx="296.915" transform="matrix(5.23954 0 0 5.23954 -1736.178 -1752.22)"/><path style="fill:#002b5d" d="M-200.506-29.895a21.308 21.308 0 0 0 1.808 3.285 12.632 12.632 0 0 0 2.546-1.305 18.505 18.505 0 0 1-1.582-2.855l-2.772.875zm-2.43-13.031c-.87-.467-1.75-.928-2.673-1.368a22.361 22.361 0 0 0-.901 4.344l2.95.388c.115-1.143.33-2.27.623-3.364zm3.955 7.828a16.543 16.543 0 0 1-.194-2.458c0-.115.01-.225.016-.346l-2.94-.272c-.005.204-.02.409-.02.618 0 .86.073 1.693.178 2.52l2.96-.062zm-1.949 4.139 2.83-.728a16.515 16.515 0 0 1-.692-2.369l-2.95.194c.199.99.471 1.955.812 2.903zm2.038-9.599a56.075 56.075 0 0 0-2.646-1.588c-.23.907-.393 1.845-.477 2.788l2.914.388c.042-.535.115-1.07.21-1.588zm-7.393 6.984a23.16 23.16 0 0 0 1.006 3.741l2.861-.738a20.799 20.799 0 0 1-.88-3.202l-2.987.2zm2.788-1.42a20.764 20.764 0 0 1-.163-2.562c0-.256.005-.508.016-.765l-2.96-.283c-.016.346-.027.697-.027 1.043 0 .886.053 1.766.147 2.636l2.987-.069zm-7.006.54a24.283 24.283 0 0 1-.204-3.102c0-.356.016-.707.031-1.069l2.667-.036c-.015.372-.036.739-.036 1.105 0 .928.057 1.84.167 2.746l-2.625.356zm3.39-9.52c-.943.524-1.964.948-3.039 1.268a26.26 26.26 0 0 0-.44 2.897l2.699-.225c.136-1.341.403-2.667.78-3.94zm11.946 8.787a14.48 14.48 0 0 1-.204-2.348l-2.546-.24c0 .073-.006.135-.006.22 0 .822.069 1.634.194 2.43l2.562-.062zm-12.49 1.744-2.641.351a24.814 24.814 0 0 0 1.278 4.527l2.473-.875a22.637 22.637 0 0 1-1.11-4.003zm-.645 5.675a14.184 14.184 0 0 0 3.657 2.347c.032-.005.047-.005.079-.005a23.54 23.54 0 0 1-1.478-2.809l-2.258.467zm11.396-4.234 2.452-.639c-.21-.54-.382-1.1-.519-1.677l-2.572.173c.157.734.372 1.452.639 2.143zm.943-6.565-1.907-.246c.031-.34.063-.67.115-1 .618.413 1.21.827 1.792 1.246zm-8.813 10.002c.44 1.048.97 2.049 1.556 3.018a20.56 20.56 0 0 0 3.05-.581c-.687-1.059-1.305-2.159-1.792-3.312l-2.814.875zm9.583-.073a8.055 8.055 0 0 0 1.672-1.996c-.23-.409-.44-.828-.634-1.258l-2.41.755c.387.87.843 1.703 1.372 2.499z"/><path style="fill:#afb6d1" d="M-190.697 22.668c.262 0 .508 0 .508.382 0 .183-.058.377-.115.503-.325.44-.828.56-1.142.634l-.063.618c.44 0 1.32-.125 2.022-.943.44-.555.566-1.31.566-1.692 0-1.07-.566-1.876-1.509-1.876-.77 0-1.341.566-1.341 1.31-.006.629.445 1.064 1.074 1.064zm-27.738-.19v-.69c-.828.057-1.074-.058-1.137-.755-.063-.257-.063-.692-.063-1.378v-1.829h.691l.509.88 1.262 2.19c.891 1.51.954 1.51 2.468 1.51h1.462v-.63c-.435-.057-.634-.319-1.263-1.257l-2.09-3.196c.445-.199 1.205-.503 1.645-1.257.32-.566.32-1.074.32-1.378 0-1.006-.503-1.756-1.2-2.07-.765-.377-1.645-.377-2.217-.377h-.382c-.634 0-1.708.063-1.96.063-.948 0-1.839-.063-2.724-.063v.691c1.011 0 1.011.19 1.069 1.881v5.334c-.058 1.441-.058 1.63-1.07 1.63v.691c1.07 0 1.777-.062 2.531-.062.755.01 1.452.073 2.149.073zm-1.137-9.404c.44 0 .822 0 1.137.063.188.057.45.188.576.314.32.31.56.875.56 1.562 0 1.01-.434 1.45-.497 1.514a1.51 1.51 0 0 1-.64.498c-.377.12-.827.12-1.136.12v-4.071zm-18.616.063v6.649c0 1.876-.068 2.007-1.205 2.007v.691c.827 0 1.64-.063 2.467-.063.833 0 1.593.063 2.416.063v-.691c-1.085 0-1.148-.252-1.148-1.698v-6.958h.954c.498 0 1.08 0 1.08.812 0 .194-.069.503-.132.817h.823l.634-2.756h-.634c-.126.116-.189.116-.383.189-.309.063-.948.063-1.388.063h-3.416c-.514 0-1.273 0-1.514-.063-.262 0-.33-.068-.446-.189h-.581c-.31 1.07-.378 1.504-.755 2.756h.817c.566-1.572 1.075-1.63 2.41-1.63zm-7.482 30.604v3.327h.634c.068-1.011.251-1.011 1.776-1.011h4.815c1.137 0 1.77 0 2.09.188.315.131.315.378.315.949h.691v-3.322h-.691c0 .555-.063.817-.315.995-.32.131-.885.131-1.833.131h-.514l-2.787.063h-1.84l1.84-1.378 2.787-2.195 2.347-1.755 1.075-.818v-.875c-.44.058-.823.058-1.075.058h-2.347c-.828 0-1.844-.058-2.787-.058-1.263 0-2.405 0-2.72-.068-.76-.057-.76-.309-.827-1.011h-.634v3.332h.634c0-1.068.12-1.189 1.839-1.189h3.798a41.59 41.59 0 0 0-2.09 1.561c-1.394 1.006-2.788 2.075-4.181 3.076zm84.361-21.262v-.692c-1.074 0-1.142-.125-1.142-2.19l-.063-5.02 6.21 7.902h.885c-.063-1.011-.063-1.44-.063-2.064 0-.126.063-5.905.125-6.723 0-.623.247-.749.755-.812h.257v-.629h-3.359v.63c1.08 0 1.2.125 1.2 1.822v3.757c-1.52-2.07-3.102-4.139-4.679-6.209h-3.358v.63c1.006.062 1.006.25 1.006 1.754v4.768c0 2.327-.063 2.327-1.132 2.384v.692c.754 0 1.263-.063 1.834-.063.508 0 1.016.063 1.524.063zm18.559 77.608h-5.13c-1.64 0-1.834 0-1.834-1.064h-.691c0 .802.063 1.567.063 2.316 0 .697 0 1.31-.063 2.065h.691c0-.87.063-.996 1.902-.996h5.198c1.64.063 1.897.063 1.897.996h.623v-6.707c-1.137-.32-1.446-.372-2.593-.754l-.252.754c.823.246 2.023.697 2.023 2.258.005 1.132-.247 1.132-1.834 1.132zm-.184-41.963c-1.896 0-2.661 1.252-3.358 2.504-.692 1.127-1.017 1.698-1.902 1.698-.823 0-1.394-.687-1.394-1.572 0-.435.126-.818.32-1.07.44-.874 1.388-1.13 2.153-1.309l-.188-.817c-1.137.188-1.452.251-2.531.445h-.063c-.246.807-.571 1.567-.571 2.75 0 .939.257 1.693.634 2.259.634.938 1.713 1.383 2.782 1.383 1.965 0 2.725-1.252 3.741-2.944.566-.823.89-1.253 1.52-1.253.697 0 1.2.556 1.2 1.441 0 .435-.19.87-.566 1.184-.446.446-.954.509-1.452.571l.126.802c1.137-.115 1.446-.115 2.395-.178.261-.823.387-1.388.387-2.384-.005-2.761-1.839-3.51-3.233-3.51zm2.217 16.494c0 1-.131 1-2.348 1.068h-4.495c-1.96 0-2.159 0-2.159-.822h-.691v2.824c.193.068.382.13.565.189.634.246 1.012.372 1.902.754l2.023.817c1.011.435 1.33.561 2.599 1.07-1.268.497-1.515.555-2.725 1.063l-2.97 1.184c-.446.189-.572.257-.829.32-.13.063-.309.125-.565.188v2.882h.691c.063-.697.126-.88 1.142-.88h1.4l4.112.183c2.217.136 2.28.2 2.348 1.07h.691c-.068-.556-.068-.991-.068-1.5 0-.434 0-.937.068-1.388h-.691c-.068.75-.194.823-1.708.823h-1.085l-3.736-.074c.702-.246.891-.304 1.515-.555l4.317-1.76c.566-.184.697-.247 1.388-.498v-.755c-.691-.251-.822-.314-1.461-.566l-3.789-1.577c-.896-.435-1.079-.498-2.095-.87h4.306c2.217 0 2.348.058 2.348 1.127h.691c-.068-.823-.068-1.577-.068-2.39 0-.623 0-1.252.068-1.943h-.691v.016zm-2.09 29.482-.195.634c.96.367 1.394.561 1.714 1.001.377.435.377.943.377 1.567 0 1.069-.377 1.126-1.268 1.126h-2.84c0-.309 0-1.31.063-1.503.126-.44.498-.509 1.132-.561v-.686c-.566.052-1.132.052-1.714.052-.503 0-1 0-1.52-.052v.686c1.143.052 1.211.189 1.211 2.064h-2.41c-1.263 0-1.33 0-1.33-.754 0-1.504.25-1.75 1.838-2.07l-.13-.691c-.818.057-1.263.125-1.96.183-.189 0-.372 0-.566.068 0 .692.063 4.014.063 4.7 0 .503 0 1.006-.063 1.886h.691c.063-.948.063-.948 2.28-1.006h4.82c1.703.058 1.829.058 1.897 1.006 0 .56-.257.996-.634 1.383-.954.813-2.599.933-3.862.933-1.718 0-2.667-.251-3.175-.503-.754-.314-1.326-.875-1.326-1.755h-.691c0 .754.194 1.572.566 2.32.697 1.442 2.221 2.51 4.626 2.51 3.726 0 5.187-2.451 5.187-4.893 0-1.514-.068-2.321-.068-3.642 0-1.131 0-2.258.068-3.384-1.325-.247-1.645-.299-2.782-.619zm-38.7-81.621h.31c1.016 0 2.341-.063 3.232-1.132a2.996 2.996 0 0 0 .634-1.813c0-1.006-.508-1.944-1.645-2.316-.44-.199-.949-.262-1.452-.32.184-.062.378-.062.634-.125.503-.183 1.703-.686 1.703-2.19 0-.508-.063-1.132-.697-1.698-.691-.56-1.582-.628-2.405-.628h-1.325c-.571 0-1.205.062-1.394.062-.88 0-1.582-.062-2.53-.062v.691c.565 0 1.01 0 1.079.629v7.335c-.068.755-.325.823-1.08.88v.692c.954-.063 1.708-.063 2.531-.063.372-.005 1.703.058 2.405.058zm-1.399-9.405c.634-.068 1.08 0 1.399.12.058 0 .126 0 .194.069.309.188.691.628.691 1.566 0 1.064-.382 1.51-.88 1.755-.382.121-.89.121-1.399.121v-3.631h-.005zm0 4.39c.571 0 1.016 0 1.399.053.31.073.56.194.754.314.32.257.697.755.697 1.83 0 .937-.256 1.377-.513 1.623-.184.189-.503.378-.938.446h-.262c-1.137 0-1.137-.56-1.137-1.64v-2.625zm39.653 52.695c0-.875-.755-1.63-1.645-1.63-.949 0-1.714.755-1.714 1.63 0 .938.765 1.697 1.714 1.697.89 0 1.645-.76 1.645-1.697zm-11.595-48.366v.691h.251c.508 0 1.017-.063 1.525-.063s1.011.063 1.525.063v-.691c-.257 0-.765 0-.765-.566 0-.44.382-1.504.697-2.38h2.724l.32 1.07c.256.68.382 1.184.382 1.367 0 .446-.445.509-.76.509v.691c.76 0 1.452-.063 2.212-.063.76 0 1.388.063 2.216.063v-.691c-.765 0-.828-.126-1.331-1.698l-2.085-6.209c-.252-.943-.378-1.195-.571-1.949l-1.709.555-.125.074-.503 1.44-1.017 2.442-.822 2.075-.63 1.561c-.575 1.258-.696 1.567-1.272 1.64-.074.069-.205.069-.262.069zm4.621-6.786.068-.304 1.011 3.322h-2.164l1.085-3.018zm-20.838 7.718h.126c2.725-.057 5.323-1.87 5.323-5.328 0-3.322-2.347-5.334-5.323-5.334h-.058c-2.598.057-5.318 1.755-5.318 5.334 0 3.699 2.536 5.328 5.25 5.328zm-1.902-8.462c.383-.686 1.017-1.315 2.033-1.383.702 0 1.268.314 1.656.812.629.812.817 2.012.875 3.322v.073c0 1.562-.058 3.128-1.011 4.134a2.22 2.22 0 0 1-1.525.624 2.206 2.206 0 0 1-1.52-.624c-.885-.937-1.01-2.572-1.01-3.824 0-1.625.256-2.63.502-3.134zm23.128 31.375c.953.183 1.325.314 2.284.566l.189-.692c-.886-.44-1.326-.624-1.714-1.069-.382-.44-.382-1-.382-1.692 0-1.122.445-1.19 1.268-1.19l2.918-.057c0 .377 0 1.44-.073 1.697-.12.435-.498.498-1.142.56v.75c.576-.068 1.142-.068 1.718-.068.503 0 1.017 0 1.515.068v-.75c-1.206-.062-1.206-.193-1.274-2.257h2.484c1.257.057 1.257.057 1.257.817 0 1.63-.188 1.95-1.765 2.248l.068.765c1.074-.126 1.446-.126 2.593-.257-.068-.807-.068-4.328-.068-5.077 0-.566 0-1.137.068-2.075h-.702c-.057 1.011-.057 1.08-2.274 1.08h-4.815c-1.776 0-1.902 0-1.902-1.08h-.697c0 1.635.068 2.588.068 3.961 0 1.252-.068 2.442-.068 3.7.137-.011.315.052.446.052zm0-15.682c-.372.691-.634 1.63-.634 2.756 0 1.32.325 2.441.634 3.384 0 .126.068.184.068.257.76-.073 1.08-.073 1.582-.073 1.52 0 1.703 0 1.845.88h.623v-4.58h-.692v.252c0 1.07-.115 1.07-1.964 1.07-.498 0-1.268 0-1.268-1.07 0-.817.513-2.137 2.536-2.635.696-.194 1.524-.194 2.095-.194.886 0 2.468.13 3.485.948.497.435.885 1.132.885 2.07 0 .822-.32 1.567-1.08 2.075-.502.309-1.016.435-1.582.492l.063.818c1.4-.131 1.714-.131 2.856-.131.309-1.059.629-2.316.629-3.7 0-3.51-2.463-5.265-5.25-5.265-1.782.016-3.815.77-4.831 2.646zm-.44 25.338v.823h2.09c.126 0 5.958 0 6.843.057.697.069.755.378.755 1.07h.702c-.069-.561-.069-1.127-.069-1.683 0-.513 0-1.074.069-1.64h-.702c0 1.064-.058 1.127-1.771 1.127l-3.804.058a172.11 172.11 0 0 1 6.277-4.637c-.069-.624-.069-1.2-.069-1.824 0-.508 0-1 .069-1.566h-.702c-.058 1-.252 1.058-1.771 1.058h-4.805c-2.342-.058-2.342-.058-2.41-1.121h-.697c.068.686.068 1.257.068 1.76 0 .56 0 1.069-.068 1.499h.697c.068-1.012.183-1.064 2.216-1.122h5.061l-7.534 5.77-.445.371zm-91.21 3.38c.32 0 .634.063 1.016.063.634 0 1.263-.063 1.771-.19.943-.319 1.771-.754 2.347-1.382.823-.996 1.268-2.248 1.268-3.637 0-1.32-.44-2.635-1.268-3.636-.634-.697-1.404-1.257-2.347-1.514-.57-.183-1.137-.241-1.77-.241-.383 0-.698 0-1.017.058-2.788.44-4.433 2.577-4.375 5.27.068 2.316 1.467 4.706 4.375 5.209zm0-7.718c.194 0 .445-.063.697-.063.696 0 1.393 0 2.09.13.823.116 1.52.373 2.085.876l.257.246c.247.372.372.812.372 1.252 0 .44-.125.875-.372 1.263a2.312 2.312 0 0 0-.256.252c-.503.487-1.331.749-2.086.87-.634.13-1.2.13-1.77.13h-1.017c-1.074-.13-1.708-.32-2.143-.513-.702-.367-1.404-.985-1.404-2.002 0-.691.32-1.252.827-1.629.692-.498 1.646-.744 2.72-.812zm76.025 91.901-1.891-2.95c.377-.125 1.069-.382 1.52-1.131.24-.503.24-.938.24-1.19 0-.938-.434-1.63-1.137-2.006-.628-.32-1.524-.32-1.96-.32h-.382c-.634.068-1.592.068-1.839.068-.817 0-1.64 0-2.536-.068v.634c.96 0 1.017.194 1.017 1.766v4.825c0 1.378-.063 1.562-1.017 1.562v.566h4.318v-.566c-.697 0-.954-.063-1.011-.687v-2.944l.565-.063.509.875 1.142 2.007c.76 1.378.88 1.378 2.331 1.378h1.337v-.566c-.063 0-.121-.063-.194-.063-.315-.126-.566-.372-1.012-1.127zm-3.033-3.63c-.131.24-.388.371-.571.429-.383.126-.76.126-1.074.126v-3.7c.377 0 .76 0 1.074.063.183 0 .382.116.57.247.247.246.436.749.436 1.44 0 .886-.372 1.316-.435 1.394zm-14.184 3.002-.136-.058-.56-.131c-.32.76-.703 1.823-2.343 1.823-1.079 0-1.142-.251-1.142-1.634v-4.643c0-1.572.063-1.63 1.074-1.692v-.634c-.754 0-1.514.068-2.342.068-.634 0-1.263 0-2.022-.068v.634c.89 0 1.006.063 1.006 1.692v4.7c0 1.51-.058 1.755-1.006 1.755v.566h6.78c.246-.88.309-1.189.56-1.938-.005-.126.058-.252.131-.44zm7.975.251-1.907-5.648c-.257-.88-.372-1.132-.571-1.813l-1.583.498-.068.057-.503 1.32-.885 2.254-.76 1.828-.634 1.441c-.508 1.252-.64 1.51-1.205 1.562h-.184v.634h3.034v-.634c-.194 0-.691.062-.691-.498 0-.377.382-1.378.634-2.196h2.525l.314 1.001c.2.629.315 1.07.315 1.263 0 .43-.378.43-.687.492v.566h4.045v-.634c-.691.006-.754-.047-1.19-1.493zm-5.004-1.939.948-2.703.121-.252.89 2.955h-1.959zm-65.96-71.77h.702c0-.561 0-1.012.634-1.064h7.403c.257 0 .445.052.576.115.247.13.247.445.315.948h.691c-.057-.948-.057-1.697-.057-2.51 0-.44.057-2.32.057-2.693 0-.943-.057-2.32-1.006-3.149-.068 0-.068-.052-.068-.052-.44-.32-1.142-.629-1.891-.629h-.383c-.885.126-1.64.629-1.964 1.63-.194.435-.247.943-.31 1.446 0-.194-.068-.377-.136-.634a2.443 2.443 0 0 0-.377-.75c-.314-.508-.88-.937-1.84-.937-.507 0-1.136.057-1.707.686-.508.692-.634 1.572-.634 2.384 0 .184 0 .755.073 1.31v1.383c-.005.886-.078 1.572-.078 2.515zm5.705-5.649c.19-.246.566-.566 1.268-.623.131-.063.32-.063.514-.063.948 0 1.383.246 1.64.492.063.074.126.136.194.194.125.246.246.56.246 1.006 0 .503-.12.75-.246.938-.32.189-.765.189-1.404.189h-2.652c-.005-.938-.005-1.625.44-2.133zm-4.689.566c.183-.314.634-.686 1.577-.686.828 0 1.336.183 1.588.565.32.435.32 1.064.32 1.693h-3.668c0-.755 0-1.263.183-1.572zm38.532 78.792-1.892-5.648c-.32-.88-.382-1.132-.576-1.813l-1.577.498-.126.057-.44 1.32-.886 2.254-.765 1.828-.634 1.441c-.57 1.378-.696 1.51-1.393 1.562v.062c-.45-.115-.634-.314-1.205-1.184l-1.897-2.95c.44-.125 1.137-.382 1.509-1.131.33-.503.33-.938.33-1.19 0-.938-.508-1.63-1.142-2.006-.697-.32-1.52-.32-2.033-.32h-.383c-.56.068-1.577.068-1.77.068-.886 0-1.709 0-2.531-.068v.634c.948 0 .948.194 1.01 1.766v4.825c-.062 1.378-.062 1.562-1.01 1.562v.566h4.301v-.566c-.691 0-.948-.063-1.01-.687-.064-.251-.064-.686-.064-1.315v-1.624l.64-.063.44.875 1.142 2.007c.822 1.31.885 1.31 2.342 1.378h4.37v-.634c-.252 0-.702.063-.702-.498 0-.377.32-1.378.639-2.195h2.525l.257 1c.257.63.382 1.07.382 1.263 0 .43-.44.43-.696.493v.566h4.05v-.634c-.702 0-.765-.12-1.205-1.499zm-12.476-3.254c-.194.241-.382.372-.639.43-.31.126-.692.126-1.011.126v-3.7c.382 0 .707 0 1.011.063.257 0 .445.116.576.247.315.246.509.749.509 1.44.005.886-.388 1.316-.446 1.394zm7.414 1.315 1.011-2.703.121-.252.885 2.955h-2.017zm16.777 3.5c-2.143 0-2.913-2.001-2.913-4.013 0-1 .189-2.321.954-3.254.372-.508 1.016-.822 1.96-.822 2.085 0 2.347 1.88 2.404 2.389l.765-.074c-.073-1.12-.13-1.435-.13-2.625-1.64-.382-2.338-.56-3.417-.56-3.673 0-4.946 2.63-4.946 4.951 0 2.83 1.587 4.831 4.694 4.831 1.452 0 2.274-.32 3.542-.75l.446-2.698-.702-.068c-.252 1.07-.624 2.693-2.657 2.693zm50.205-56.073c-2.97 0-3.793 0-4.558-.052-.89-.058-.954-.241-.954-1.001h-.691c.063.503.063.943.063 1.504 0 .508 0 .943-.063 1.64h.691c.063-.572.063-.828.509-.886.382-.131 1.65-.131 3.547-.131 1.965 0 2.153 0 2.662.079.32.052 1.268.11 1.77.801.069.137.32.503.32 1.064 0 .314 0 .697-.377 1.132-.126.125-.508.566-1.525.76-.697.115-1.456.115-3.358.115-.571 0-2.274 0-2.845-.053-.64-.136-.703-.377-.703-.938h-.691c.063.802.063 1.499.063 2.19 0 .692 0 1.378-.063 2.075h.691c.063-.885.252-.948 1.72-.948h3.415c2.028-.058 3.17-.058 3.988-1.121.445-.508.764-1.253.764-2.51 0-1.572-.513-2.195-.827-2.562-.954-1.085-2.348-1.085-3.548-1.158zm.509 29.425-.058.697c1.2.252 2.966.629 2.966 2.636 0 2.122-2.149 2.881-4.428 2.881-1.137 0-2.536-.183-3.547-.943-.571-.377-.954-.995-.954-1.938 0-2.133 2.096-2.316 2.6-2.384l-.058-.755c-1.148.052-1.525.126-2.667.126h-.189c-.445 1.63-.634 2.32-.634 3.39 0 1.184.315 2.127.817 2.882 1.012 1.498 2.908 2.132 4.69 2.132 3.039 0 5.323-1.698 5.323-4.773 0-1.441-.382-2.258-.885-3.51l-2.976-.44zm-12.271 21.833c-.818-1.834-1.394-2.703-1.525-3.337-.058-.681-.12-.996.576-1.247l-.256-.629-1.137.435-1.457.566.189.68c.44-.182.634-.371.828 0 .188.315.628 1.39 1.33 2.95.886 1.761 1.074 2.19 1.074 2.694 0 .314.19.691-.387 1.263-.12.125-.44.434-1.006.565-.315.053-.692.053-1.2-.13-.126-.137-.634-.315-1.006-1.258-.194-.566-.388-1.252-.702-2.887-.126-.56-.44-2.07-.44-2.635-.068-.566.246-.624.822-.75l-.13-.623c-.818.183-1.52.361-2.207.498-.639.125-1.21.251-1.844.309-.063.068-.126.068-.188.068l.125.629h.063c.828-.19.954.062 1.205 1.257l.64 3.07c.371 1.813.628 2.751 1.76 3.312.576.314 1.399.44 2.599.194 1.33-.257 1.902-.687 2.284-1.059.058-.078.126-.13.189-.194.822-1.069.57-2.137.126-3.143-.137-.168-.194-.42-.325-.598zm9.997-8.3-3.71-1.739c-1.66-.79-1.802-.922-1.399-1.63l-.629-.298c-.246.508-.372.928-.565 1.326-.194.393-.467.812-.655 1.21l.88 2.568-2.044-.268-.21-.02-1.084.948.378.524c.172-.205.277-.283.361-.315.257-.089.43.131.571.273l1.258 7.314c.068.45.246.959-.514 1.226l.299.687 2.614-1.342-.382-.665c-.482.267-.702.304-.97-.032l-1.079-5.501 3.306 1.284.425-.708-1.21-3.626c-.33-.916.534-.23-.168-.98l3.584 1.756c1.823.854 1.891.885 1.42 1.844l.634.299c.293-.765.618-1.441.948-2.122.262-.566.592-1.106.901-1.73l-.576-.277c-.435.917-.524.807-2.384-.005zm-56.482 11.617c-.692 0-1.195.56-1.195 1.252 0 .56.377 1.011 1.006 1.011.189 0 .44 0 .44.367 0 .068-.063.257-.12.44-.325.372-.765.509-1.08.566l-.063.56c.44-.062 1.263-.114 1.907-.874.378-.503.498-1.195.498-1.572-.005-.938-.498-1.75-1.393-1.75zm-39.04-31.06c.251.068.513.068.76.068h2.032c1.2 0 1.84.063 2.348.063h.188c.818.058.886.31.949 1.069h.639v-3.39h-.64c-.062.618-.062.87-.502.995-.126.068-.383.068-.634.068-.577.063-1.404.063-2.348.063h-.57c-1.394 0-1.897 0-2.217-.063h-.435c-.325-.068-1.268-.199-1.781-.943-.126-.12-.31-.503-.31-1.126 0-.315 0-.75.388-1.195.116-.183.435-.629 1.514-.812.194-.068.383-.068.634-.136h5.135c.189.068.315.068.44.068.634.068.692.44.634 1h.697v-4.636h-.64c-.062.88-.182 1.011-1.13 1.069h-5.136c-1.33.063-2.221.32-2.845 1.194-.445.566-.765 1.378-.765 2.699 0 1.692.446 2.373.823 2.824.744.88 1.76 1.058 2.772 1.121zm-3.348-13.287c.188.56.309.932.749 1.556a5.415 5.415 0 0 0 2.028 1.634c.193.063.382.126.57.2.514.178 1.148.24 1.777.24.314 0 .697 0 1.011-.062a5.321 5.321 0 0 0 2.347-.943c.19-.116.372-.315.566-.503.823-.818 1.446-2.075 1.446-3.7 0-2.006-.943-3.51-2.012-4.327-.193-.121-.382-.247-.576-.372a6.011 6.011 0 0 0-1.77-.63c-.378 0-.698-.062-1.08-.062a5.57 5.57 0 0 0-1.708.246c-.88.184-1.645.634-2.285 1.315-.382.378-.628.812-.88 1.253-.063.125-.063.32-.13.44-.383.503-.698 1.063-1.012 1.63-.886 1.382-1.708 2.692-2.086 3.63-.382.875-.508 1.892-.508 2.767 0 1.126.194 2.384.446 3.453h.628a6.9 6.9 0 0 1-.188-1.51c0-.754.125-1.377.32-1.886.371-1.116.76-1.802 2.347-4.37zm1.257-3.15c.503-.502 1.273-.749 2.09-.874.577-.126 1.2-.126 1.777-.126.314 0 .697 0 1.011.063.383 0 .692.063 1.011.13.252.058.828.19 1.336.436.315.183.566.44.823.76.31.434.31.927.31 1.183 0 .435-.127 1.127-.823 1.63-.126.063-.252.126-.315.189-.634.377-1.456.565-2.347.634h-1.394c-.314 0-.817 0-1.394-.063-.76-.12-1.587-.378-2.142-.938a2.042 2.042 0 0 1-.645-1.504c.005-.64.32-1.126.702-1.52zm-.314-61.527 2.405.943.068.063 2.09.817.634.246.944.378c.707.314 1.142.508 1.404.691.188.189.246.435.314.817h.692V34.21h-.692c0 .194 0 .634-.314.755h-.257c-.372 0-1.263-.31-2.085-.56-.131-.059-.194-.059-.315-.127v-2.693l.315-.068.76-.246c.701-.246 1.204-.372 1.393-.372h.194c.314.126.314.492.314.75h.692c0-.75-.058-1.442-.058-2.191 0-.754.058-1.388.058-2.2h-.692c0 .44-.063.623-.314.817-.257.13-.697.32-1.404.508l-.943.32-2.788.932-2.53.818c-.896.251-1.2.382-1.902.555l.57 1.829 1.447.482zm2.405-1.19 1.65-.508v2.143l-1.65-.566-1.645-.571 1.645-.498zm15.834-11.045c-.44.378-1.012.378-1.703.378-1.142 0-1.216-.378-1.273-1.247v-2.898c.314 0 1.456 0 1.713.126.44.13.503.445.566 1.069h.765c-.074-.566-.074-1.127-.074-1.698 0-.498 0-1 .074-1.504h-.765c-.068 1.19-.194 1.19-2.285 1.253v-2.447c0-1.247 0-1.247.818-1.247 1.65 0 1.97.251 2.29 1.755l.754-.063c-.126-1.069-.189-1.378-.252-2.51h-7.22v.692c1.017 0 1.08.063 1.08 2.258v4.773c0 1.688 0 1.819-1.08 1.876v.634h7.66c.32-1.31.383-1.572.697-2.698l-.697-.189c-.43.88-.623 1.315-1.068 1.687zm-18.496 69.686c0-.754.131-.754 1.65-1.31l1.012-.314 2.787-.875 2.347-.76.126-.063c.943-.309 1.205-.372 1.96-.623l-.571-1.824-1.452-.503h-.063l-2.347-.948h-.063l-2.09-.807-.634-.262-.954-.43c-1.525-.623-1.645-.686-1.713-1.503h-.765c.078.691.078 1.19.078 1.755 0 .503 0 1.069-.078 1.567h.765c0-.241-.058-.818.57-.818.383 0 1.274.32 2.091.63.069 0 .194.062.32.135v2.62l-.32.126-.817.257c-.702.183-1.147.372-1.325.372-.52 0-.52-.509-.577-.818h-.707c.078.76.078 1.504.078 2.196 0 .744 0 1.435-.078 2.184h.77v.016zm3.81-6.706 1.64.639 1.65.555-1.65.503-1.64.44v-2.137zm.052-10.354c-.503 0-.88.184-1.2.508-.315.315-.503.682-.503 1.195 0 .435.188.807.503 1.121.32.315.697.509 1.2.509.702 0 1.336-.44 1.587-1.127.058-.194.058-.325.058-.503 0-.189 0-.377-.058-.56-.251-.635-.885-1.143-1.587-1.143zm3.159 64.557c-.775-.828-.157-.844 1.037-1.614l4.171-2.473c1.373-.77 1.179-1.127 1.96-.393l.57-.32-1.681-1.608c-.461-.53-.875-.917-1.42-1.53l-.576.33c.597.655.917 1.037-.545 1.912l-4.113 2.599c-.891.55-1.378.786-1.782.655-.23-.037-.408-.21-.634-.435l-.534.545.545.519c.23.304.46.524 1.053 1.173 1.96 1.965 2.06 2.054 2.83 2.877 1.021-.592 1.283-.681 2.268-1.237l-.377-.613c-.697.372-1.64.697-2.772-.387zm11.695 3.667-1.022-5.847c-.189-.922-.215-1.174-.31-1.886l-1.64.283-.13.042-.629 1.241-1.2 2.112-1.006 1.703-.838 1.341c-.76 1.284-.896 1.389-1.603 1.357l-.084.624 3.013.424.083-.629c-.256-.026-.696-.026-.618-.592.058-.367.514-1.32.938-2.09l2.452.35.173 1.038c.152.66.22 1.106.194 1.3-.063.434-.508.371-.817.387l-.095.56 4.082.572.084-.629c-.682-.094-.729-.22-1.027-1.66zm-4.684-2.62 1.388-2.53.157-.23.456 3.043-2.001-.282zm-14.032-17.683c0-.75.131-.812 1.65-1.31l1.012-.314 2.787-.949 2.347-.744.126-.057c.943-.32 1.205-.388 1.96-.566l-.571-1.829-1.452-.555h-.063l-2.347-.88-.063-.063-2.09-.818-.634-.251-.954-.377c-1.525-.629-1.645-.755-1.713-1.504h-.765c.078.623.078 1.126.078 1.755 0 .503 0 1.001-.078 1.504h.765c0-.246-.058-.755.57-.755.383 0 1.274.252 2.091.572.069.052.194.052.32.115v2.698l-.32.068-.817.241c-.702.247-1.147.378-1.325.378-.52 0-.52-.435-.577-.755h-.707c.078.692.078 1.436.078 2.195 0 .687 0 1.378-.078 2.185h.77v.016zm3.81-6.712 1.64.566 1.65.566-1.65.503-1.64.503v-2.138zm.853 16.751c-.618.12-1.498.283-2.19.2-.707-.1-1.3-.347-1.593-1.143-.733-1.614 1.148-3.018 3.437-3.909.634-.251 1.32-.466 2.028-.608.608-.12 1.279-.21 1.897-.1a2.2 2.2 0 0 1 1.153.556c.178.189.293.351.403.645.723 1.624-1.362 2.65-1.813 2.871l.288.582c.676-.32 1.132-.535 1.604-.682.335-.146.712-.35 1.215-.534 0-.456-.031-.86-.042-1.174-.136-.697-.183-1.184-.43-1.729-.204-.361-.36-.702-.555-.98-.608-.78-1.467-1.205-2.441-1.336-1.337-.293-2.835 0-4.187.524-3.102 1.18-4.731 3.343-3.715 5.774.482 1.074 1.038 1.604 1.965 2.38l.053.036 3.133-.776-.21-.597zm36.562-109.391c.634 0 1.152-.063 1.781-.063.508 0 1.011.063 1.52.063v-.692c-.252 0-.76 0-.76-.566 0-.44.377-1.503.697-2.378h2.724l.32 1.069c.257.68.377 1.184.377 1.367 0 .445-.44.508-.765.508v.692c.708 0 1.462-.063 2.227-.063.692 0 1.383.063 2.143.063v-.692c-.686 0-.76-.125-1.257-1.697l-2.096-6.21c-.315-.942-.378-1.194-.566-1.948l-1.708.555-.126.073-.576 1.441-.949 2.442-.828 2.075-.628 1.561c-.634 1.441-.765 1.567-1.53 1.698-.503-.058-.687-.32-1.32-1.258l-2.023-3.196c.44-.199 1.195-.503 1.64-1.257.32-.566.32-1.074.32-1.378 0-1.006-.572-1.756-1.263-2.07-.697-.377-1.645-.377-2.159-.377h-.435c-.639 0-1.645.063-1.97.063-.88 0-1.77-.063-2.724-.063v.691c1.084 0 1.084.19 1.084 1.881v5.334c0 1.441-.068 1.63-1.084 1.63v.691c1.084 0 1.844-.062 2.536-.062.822 0 1.456.062 2.158.062v-.691c-.765.057-1.08-.058-1.08-.755-.067-.256-.067-.691-.067-1.378v-1.828h.634l.513.88 1.263 2.19c.88 1.51.948 1.51 2.53 1.51h1.447v.083zm4.637-7.472.063-.304 1.01 3.322h-2.153l1.08-3.018zm-9.19 1.515c-.194.246-.435.377-.687.497-.388.12-.765.12-1.147.12v-4.065c.445 0 .828 0 1.147.063.252.057.435.188.634.314.315.31.571.875.571 1.562-.005 1.006-.456 1.446-.518 1.509z"/><g transform="matrix(5.23954 0 0 5.23954 -1736.178 -1752.22)"><path style="fill:#002b5d" d="M291.454 351.313a.963.963 0 0 0-.715-.181c.114-.185.333-.347.595-.439l.048-.019-.019-.047a1.044 1.044 0 0 1-.047-.136l-.014-.05-.05.019a1.682 1.682 0 0 0-.686.445.942.942 0 0 0-.375-.808.963.963 0 0 0-.931-.127l-.027.009-.003.03a.942.942 0 0 0 .132.581 1.21 1.21 0 0 0-1.147.639l-.013.027.018.025c.185.262.466.438.779.493a1.528 1.528 0 0 0-.296 1.492l.01.027.029.005c.501.076.999-.088 1.351-.441.107.324.352.594.672.731l.027.013.023-.02a1.19 1.19 0 0 0 .365-1.349.964.964 0 0 0 .616-.025l.029-.01.002-.031a.938.938 0 0 0-.373-.853z"/><path style="fill:#6a9519" d="M291.73 352.125a.876.876 0 0 1-.621-.021l-.121-.053.059.119a1.093 1.093 0 0 1-.272 1.314 1.114 1.114 0 0 1-.613-.736l-.022-.09-.063.069a1.46 1.46 0 0 1-1.29.477 1.431 1.431 0 0 1 .28-1.362c.02-.024.041-.045.063-.07l.071-.073-.101-.009a1.118 1.118 0 0 1-.782-.443 1.11 1.11 0 0 1 .903-.561 1.05 1.05 0 0 1 .231.008l.119.018-.073-.096a.835.835 0 0 1-.172-.568.867.867 0 0 1 .805.125.844.844 0 0 1 .336.735l-.03.01-.008.002-.106.031a7.393 7.393 0 0 1 .154.099c.004 0 .006.004.009.005.004.004.007.008.012.009l.039.032.03-.041c.157-.208.393-.379.67-.486a.33.33 0 0 0 .019.049c-.286.111-.518.301-.63.513l-.016.031.024.026a.08.08 0 0 1 .013.013l.018.017.018.021.027-.004a.863.863 0 0 1 .685.156.839.839 0 0 1 .335.734z"/><ellipse style="fill:#522078" ry=".469" rx=".388" cy="352.935" cx="290.341"/><ellipse style="fill:#522078" ry=".469" rx=".388" cy="352.935" cx="291.117"/><ellipse style="fill:#522078" ry=".469" rx=".387" cy="352.123" cx="289.959"/><ellipse style="fill:#522078" ry=".469" rx=".388" cy="352.123" cx="290.735"/><ellipse style="fill:#522078" ry=".469" rx=".388" cy="353.742" cx="290.735"/><ellipse style="fill:#522078" ry=".468" rx=".388" cy="352.125" cx="291.51"/><ellipse style="fill:#522078" ry=".468" rx=".388" cy="351.313" cx="290.346"/><ellipse style="fill:#522078" ry=".468" rx=".388" cy="351.313" cx="291.123"/><ellipse style="fill:#522078" ry=".469" rx=".387" cy="351.314" cx="291.897"/><ellipse style="fill:#522078" ry=".469" rx=".387" cy="351.314" cx="289.571"/></g><path style="fill:#002b5d" d="m-159.187 69.996-1.257-3.012c-.519-1.226-1.944-1.808-3.186-1.316l-.723-.712a2.42 2.42 0 0 0-1.325-3.154l-3.086-1.268a2.465 2.465 0 0 0-3.191 1.31h-1.022a2.467 2.467 0 0 0-3.186-1.31l-3.086 1.268c-1.247.513-1.844 1.928-1.325 3.16l-.713.712c-1.247-.498-2.667.089-3.18 1.31l-1.258 3.012-.147.351h1.94l.062-.162.849-2.028a.752.752 0 0 0 .215.336c.146.146.403.262.644.199.147 0 .246-.079.367-.142l-.598 1.441-.146.351h1.97l.063-.162.57-1.347c.268-.644.22-1.325-.052-1.923.236-.225.456-.45.692-.68.592.261 1.284.308 1.928.041l3.092-1.273a2.425 2.425 0 0 0 1.34-1.389h.98c.22.613.687 1.122 1.337 1.389l3.086 1.273c.655.262 1.352.22 1.949-.047l.692.681a2.373 2.373 0 0 0-.053 1.928l.56 1.347.074.162h1.97l-.147-.35-.597-1.447c.12.068.236.162.398.162.262 0 .467-.073.613-.22.11-.1.173-.22.215-.34l.844 2.033.078.162h1.929l-.179-.346zm-18.469-5.554c.058-.12.157-.23.157-.393a.855.855 0 0 0-.22-.607c-.12-.116-.283-.137-.435-.168l2.269-.933c-.084.137-.189.252-.189.43 0 .22.11.513.346.634l-.068-.047a.941.941 0 0 0 .304.204l-2.164.88zm10.448-1.006c-.152.163-.289.44-.205.692a.735.735 0 0 0 .053.267l-2.075-.849a.98.98 0 0 0 .299-.204c.188-.178.277-.377.277-.581a.832.832 0 0 0-.094-.388l2.174.896c-.146.042-.304.052-.43.167z"/><path style="fill:#ba9400" d="M-178.133 64.343c.09-.084.115-.168.115-.299 0-.078-.005-.183-.068-.246-.089-.09-.157-.11-.298-.11-.131 0-.215.026-.299.11 0 0-.058.063-.11.11-.105.105-.246.241-.482.477-.183.188-.414.414-.655.65l-.367.356c-.188.194-.372.382-.566.566l-.361.361a26.46 26.46 0 0 0-.66.655c-.241.23-.388.383-.482.472-.042.042-.1.104-.1.104a.353.353 0 0 0-.12.294c0 .13.031.21.12.299.047.047.142.089.168.073l.031-.005h.053a.39.39 0 0 0 .293-.116l.22-.21.398-.403.64-.634.366-.366.901-.896.64-.634.623-.608z"/><path d="M-167.407 64.128c0-.031-.01-.052-.01-.084l.01.084z"/><path style="fill:#ba9400" d="M-181.14 68.042c0 .147-.026.288-.084.435l-.566 1.367h.87l.487-1.2c.189-.434.178-.906.032-1.315l-.74.713zM-184.001 67.177l-1.11 2.662h.822l.938-2.248c.12-.288.335-.492.618-.618.052-.02.105-.016.152-.031l.854-.854c-.922-.23-1.902.204-2.274 1.09zM-179.301 63.693c.016-.042.016-.11.036-.152.116-.293.336-.508.624-.629l2.835-1.163c.283-.11.597-.11.88 0a.502.502 0 0 1 .126.09h1.215a1.92 1.92 0 0 0-2.39-.834l-3.085 1.268a1.846 1.846 0 0 0-1.043 1.038c-.167.393-.157.817-.052 1.22l.854-.838zM-170.006 61.75c.288-.11.602-.11.885 0l2.83 1.162a1.1 1.1 0 0 1 .623.63c.026.041.026.094.037.146l.859.849c.11-.404.115-.833-.052-1.221a1.886 1.886 0 0 0-1.048-1.038l-3.086-1.267c-.902-.367-1.908.005-2.39.833h1.216a.717.717 0 0 1 .126-.095zM-163.792 68.037l-.723-.729c-.147.43-.163.896.02 1.331l.499 1.2h.859l-.56-1.367a.988.988 0 0 1-.095-.435zM-174.92 63.86l-2.83 1.164a1.107 1.107 0 0 1-.43.09l-.728.727c.419.137.885.158 1.33-.026l3.087-1.273c.44-.178.77-.519.969-.917h-1.027c-.105.1-.236.183-.372.236zM-167.177 65.024l-2.83-1.163a1.127 1.127 0 0 1-.382-.241h-1.016c.204.403.524.744.964.917l3.086 1.273c.44.183.922.162 1.347.02l-.729-.717a.975.975 0 0 1-.44-.089zM-160.92 67.177c-.373-.89-1.358-1.32-2.28-1.084l.86.854c.046.01.104.01.151.031.283.116.503.33.624.619l.943 2.247h.812l-1.11-2.667z"/><path style="fill:#ba9400" d="m-163.708 66.323-.357-.366-.57-.561-1.61-1.593c-.088-.089-.156-.11-.303-.11-.126 0-.21.026-.294.11-.052.053-.089.147-.078.168h-.005l.015.037v.041c0 .131.032.215.11.3l.603.58.655.656 1.273 1.262.65.634.613.619c.084.083.162.115.298.115.116 0 .2-.026.247-.073.089-.09.115-.163.115-.294a.376.376 0 0 0-.115-.299l-1.247-1.226zM-175.46 62.954l.03.032c.1.1.168.13.294.13h5.35c.12 0 .194-.03.288-.13.058-.058.126-.136.126-.22 0-.126-.032-.189-.126-.288-.094-.105-.168-.137-.288-.137h-5.35c-.12 0-.194.032-.293.131-.1.105-.126.168-.126.294 0 .068.042.157.063.173l.031.015z"/><circle style="fill:#002b5d" r=".134" cy="329.21" cx="296.216" transform="matrix(5.23954 0 0 5.23954 -1736.178 -1752.22)"/></g></svg>