<svg xmlns="http://www.w3.org/2000/svg" width="670" height="459" version="1.0"><path style="opacity:1;fill:#fff;fill-opacity:1;fill-rule:nonzero;stroke:none;stroke-width:.25;stroke-linecap:round;stroke-linejoin:round;stroke-miterlimit:4;stroke-dasharray:none;stroke-dashoffset:.99999998;stroke-opacity:1" d="M0 0h670v459H0z"/><path d="M502.473 459H670V0H502.473v459z" style="fill:#d90026;fill-opacity:1;stroke:none"/><path d="M0 459h166.322V0H0v459z" style="fill:#0a1f62;stroke:none;fill-opacity:1"/><path d="M286.746 336.374c-1.03 1.39-2.592 2.858-2.471 4.82l-.301.318c.47 7.484-.338 15.618.97 23.24.337 1.576 2.025 2.376 2.507 3.501l-.826.47c-4.55.246-9.582-.776-13.818-.15-.68-.06-.163-.602-.096-.903 1.597.03 2.018-1.33 2.91-2.413.362-.691-.193-1.666.482-2.207-.325-7.72-.042-15.534-.331-21.971-.645-1.649-1.983-3.736-3.664-4.23-.163-.45-.615-.45-.096-.992 5.23-.187 9.045.565 14.734.517M318.793 342.866c1.217 3.465 2.603 7.82 2.073 11.544-.06 4.091-1.953 7.545-3.851 11.004-3.031 3.772-8.786 4.355-12.902 3.531-4.044-.818-7.141-3.7-9.335-6.768-2.7-5.613-2.452-11.533-.68-17.41.367-.307.662-.614.578-1.143.078.072.15-.079.223-.163.428-1.21 1.085-2.292 1.97-3.525 2.013-1.703 3.713-3.796 6.515-4.007 1.199-.776 2.953-.283 4.465-.47 4.34.578 8.588 3.821 10.944 7.407M349.936 337.824c2.151 4.638 3.622 9.235 5.996 13.65.832.06.735-.914 1.109-1.383.976-3.435 2.579-6.72 3.561-10.155-.193-1.962-2.175-2.677-3.344-3.796l.217-.373c4.242-.247 7.972.114 12.757.246l.386.361c-1.043.86-2.248 1.342-3.212 2.268-3.965 6.077-5.159 13.903-8.123 20.635-.91 3.057-1.844 5.5-2.688 8.555-.524.385-.735 1.083-1.187 1.384-.94-1.336-1.03-2.172-1.905-3.814-2.09-5.487-4.429-11.497-6.9-16.9-1.066-.126-.506 1.071-1.18 1.384-2.827 6.197-5.948 12.411-8.769 18.536l-.301.234c-.862-1.203-1.278-2.996-1.693-4.584-2.833-7.899-5.972-16.015-9.022-23.523-.94-1.413-2.567-2.972-4.182-3.772-.235-.53-1.368-.186-1.386-1.034.446-.307 1.284-.175 1.82-.037 1.211-.024 3.188.012 4.17-.234 1.519.12 3.339.072 4.942.409 1.133-.247 3.11-.138 4.628-.163.295-.096.76.199.693.506-.747.692-2.097 1.185-2.224 2.478-.343 1.74.663 2.551.772 3.923.934 1.498 1.205 3.152 1.85 4.879.331 1.432 1.042 2.701 1.603 4.055 1.054-.331 1.404-1.69 1.838-2.611 2.103-4.675 4.495-9.728 6.29-14.09.61-.078.887-1.371 1.58-.782.705 1.04.97 2.63 1.904 3.748M378.795 335.297c4.086 9.68 9.148 18.963 13.228 28.492 1.325 1.565 2.495 2.972 4.41 3.688.32.686.17.909-.505 1.083-1.676.036-3.05-.385-4.628.096l-9.034.127c-.078-.307-.385-.373-.24-.68.891-.692 2.03-.95 2.386-2.021.283-.68-.03-1.366-.35-2.118l.145-.15-.928-1.186-10.016.223c-1.048.553-.79 2.057-.614 3.11-.049 1.366 3.224 1.75.897 2.858-4.254-.283-8.502-.187-12.45-.259-.235-.138-.09-.445-.168-.668 9.19-3.092 9.184-13.77 12.823-20.893 1.802-4.206 2.326-8.002 4.67-11.858l.38.156" style="fill:#d90026;stroke:none;fill-opacity:1"/><path d="M310.356 342.366c1.127 3.008.217 6.431.59 9.53.007 3.718.368 6.359-.078 10.083-.578 1.456-2.06 3.08-3.724 3.339-2.037.577-3.525-1.589-4.544-3.008-1.422-2.54-.361-6.191-.5-8.85.223-3.724-.928-8.086.73-11.762 1.253-1.774 2.91-2.1 4.742-1.774 1.079.74 2.073 1.179 2.784 2.442M381.646 359.5l-6.912-.259 2.922-9.505 3.99 9.764" style="fill:#fff;stroke:none"/><path style="fill:#0a1f62;stroke:none;fill-opacity:1" d="M365.73 161.475c.338 1.588 1.133 1.197 2.29 2.166.615.21 1.158.728 1.694 1.089l.15-.15c.772.817 1.537 1.172 2.754 1.148.543.518 1.525.343 2.218.788 4.508 1.42 9.889.987 14.577.355l-.156-.144c1.072.355 2.043-.27 3.188-.072 3.483-.289 8.026-.704 11.274-1.607 12.18-1.786 25.654-3.375 38.502-2.364 2.049.108 3.597 1.366 5.652 1.54 1.61.873 3.52 1.444 4.689 2.858 1.229.421 1.548 1.48 2.332 2.442 1.048 2.936 2.241 5.415 1.85 8.297-.169 2.502-1.32 5.264-3.574 6.449-1.253-1.95-3.561-3.255-5.628-3.97-.537-.223-1.453-.506-1.989-.789l-.53.012.15-.084c-.687-.138-1.307-.656-1.91-.41l.15-.15c-.385-.222-.987-.06-1.367-.048-.542-.445-1.446-.27-2.061-.637l-2.049.036-.006-.139c-8.111.331-16.397-.096-24.334 1.06v-.157c-9.328.355-19.157 2.178-27.557-.223-.97.704-1.682-.644-2.887-.162-.693-.355-1.603-.343-2.211-.482-.458-.144-.844-.355-1.374-.27v-.157c-.995-.27-2.073-1.01-3.056-.842-1.687-1.095-3.905-1.504-5.375-2.761-6.671-3.255-7.346-9.626-9.383-16.394l3.978 3.784" transform="matrix(1.15 0 0 1.15 -53.787 -24.828)"/><path style="fill:#000;stroke:none" d="M361.482 156.283c-.452.012-.548-.752-1.145-.505-.187.27-.084.565.054.878 0 0-.922.47-2.06.47-1.14 0-1.465-.29-1.465-.29-3.146-1.516-5.104-4.277-8.75-4.5-.856-.824-1.82.03-2.748-.625-2.037.421-3.96-.518-5.857-.554-1.218-.198-2.736-.541-3.96-.583-.319-.686-.982-.145-1.367-.506-.621-.45-1.748-.12-2.218-.788-9.485-3.35-17.572-11.96-19.615-22.067-.976.32-1.489 1.161-2 2.01-.127 1.209-.712 2.292-1.068 3.429-.825.403-.934-.963-1.398-1.33-.283-2.653-1.325-5.047-.85-7.94-.843-.434-.74.775-1.337 1.16-.518.776.199 2.353-1.006 2.762-1.808-2.84-.718-5.144-1.242-8.164-.982.024-.187 1.678-1.482 1.396-1.266-2.172-.802-5.132-.621-7.262.657-1.372 1.537-2.677 1.88-4.277-.771-.512-1.205.487-1.808.722-1.277.325-2.85 1.347-4.08.776.127-1.294 1.628-2.094 1.977-3.303-.464-.517-.982.162-1.506.325-1.507.722-3.248.986-4.99.956-.536-.45-1.157-.74-.717-1.504.976-.475 1.338-1.167 1.85-2.238-1.802.722-4.056 1.823-6.267 1.204-.53.078-.989.024-1.38-.506-.17-.908.735-1.155 1.096-1.919-.699-.584-1.355.415-2.042.355l-4.098-.06c-1.302-.433-.26-1.36.03-2.058.295-.3.747-.469.813-.998-1.368.036-2.338.59-3.615 1.227-1.133.313-1.899.114-2.875.584-.548-.89-2.043.198-2.217-.927l.964-1.095c-1.23-.644-2.344.59-3.556.614-1.59.114-3.483.541-5.092-.187-.084-.379.133-.992-.397-1.047-2.797.74-5.575 2.16-8.835 2.076-.307-.21-.843-.349-1.006-.656-.23-.517.446-.613.434-1.07-1.29.035-2.405.962-3.688 1.293-1.507.716-3.562.307-5.062 1.095-.766-.506-2.561.517-2.598-1.071-1.157-.74-2.03.8-3.248.752-2.495.577-5.568 2.16-7.804.626.223-.235-.012-.53-.24-.686-3.466 1.293-7.467 2.208-11.191 2.154-.681-.145-.549-.975-.934-1.354-1.663.493-3.086 1.281-4.749 1.624-2.404.74-5.435 1.101-7.954.397-.326-.902.801-1.221.789-2.07-3.471.921-6.99 2.96-10.865 2.822-1.754-.343-3.104.38-4.49-.433-.078-.222.067-.53-.168-.674.446-.62 1.265-1.089 2.018-1.407 2.833-2.329 5.08-3.676 8.07-6.016 5.23-3.442 10.756-7.731 15.59-12.231 1.343-.86 2.753-2.184 3.56-3.34-.228-.444-1.452-.643-.861-1.491 3.08-1.654 5.616-3.159 8.376-5.336.904-.325 1.495-1.173 2.405-1.27 2.898-2.64 7.195-4.012 10.413-5.992 4.218-1.528 8.19-3.886 12.576-4.662.284-.68.838.21 1.284-.259 3.61-1.6 7.485-1.221 10.883-2.124 2.061.548 4.61-.86 6.9-.084l.452-.234c6.14-.06 11.836-.037 18.296.505.771.596 1.904.337 2.748.553 1.753.494 3.814.903 5.345 1.619 3.453 1.738 6.177 4.644 5.652 8.59-.687 3.28-1.048 7.364 1.887 9.656.397.825.867 1.577 1.271 2.54.193 1.906.217 2.96.482 4.62.307.294.247.974.844.655 1.18-1.606 3.32-1.125 4.893-1.997 2.182-.421 4.146-1.07 6.436-.668 1.422-.637 2.73.247 4.164-.084 1.223.421 2.826.68 3.887.74 1.76.566 3.423.156 5.032.95 1.964-.27 3.585.825 5.26 1.023 1.893-.114 4.074 2.479 5.466.097 2.93-4.675 2.646-10.66.868-15.696-.452-3.315 1.507-7.382 4.73-9.12 3.598-2.13 7.768-1.914 11.529-3.737 2.5-.132 4.345-2.364 6.629-2.117 3.163-.975 6.134-.668 9.708-.434.687.211 1.374.578 2.211.62 1.838.8 3.737.686 5.352 1.775l.15-.139c4.116.963 8.648 3.135 12.914 4.103 1.917.783 3.911 1.655 5.894 2.148.542.74 1.826.41 2.519 1.083.458-.168.843.21 1.223.337 1.06-.09 2.061.565 2.905.776 3.043.307 6.032 1.835 8.774 2.166 1.313 1.023 4.013-.331 4.369 2.021 7.9 3.604 14.607 8.459 22.29 12.616.603-.012 1.073.505 1.38.8-.445.235-.283.836-.126 1.059 4.544 2.924 8.949 6.545 13.794 9.553 4.947 4.121 9.883 7.659 15.343 11.1-.133.752 1.307.578.638 1.342-1.054.024-2.513-.47-3.718-.06-.838-.139-2.043-.037-3.043-.47-.747.47-1.53-.577-2.278-.174-.548-.74-1.211.33-1.681-.41-1.447-.354-2.766-1.461-4.279-1.269.639 1.492 2.634 2.43 3.272 3.863l-.446.457c-2.35-.024-4.935-.187-6.912-.301-.391-.59-1.374-.343-1.988-.638-1.079-.728-2.52-.848-3.52-1.353-.729 1.227 2.935 2.13.826 3.08l-.229-.295c-.301.157-.904.554-1.368.18-1.53-.565-3.278-.836-4.803-1.401-2.145-.939-4.061-1.655-5.984-2.984-1.488 1.48-2.651.295-4.326.096-1.748-.036-3.58-.674-5.117-1.552-.837-.06-1.765-.872-2.44-.47.632 1.186 2.904 1.138 2.489 2.822-.904.163-1.82-.036-2.736-.096-.995-.505-2.055-.409-3.134-1.137-4.574-1.035-8.503-3.754-12.583-6.16-1.669-.355-3.055-1.222-4.447-2.184-2.067-.927-2.94-2.738-4.712-3.76l-.217.306c1.169 1.57 2.507 3.58 3.079 5.39.235.38.916.356.705.963-.669.777-1.29.187-2.049.049-1.62-1.023-3.754-1.589-5.212-2.232-.308-.21-.7-.825-1.236-.8-.5 1.209 1.26 1.937 1.663 2.983.085.38.32.686.477 1.047-1.127.566-2.278-.246-3.188-.15-1.531-.493-3.218-1.215-4.37-1.871-.373.156-.698-.668-.988.024.26 1.197 1.706 1.552 2.26 2.599-.428.842-1.494.632-2.338.74-.392-.614-1.277.024-1.597-.662-.91.096-1.832-.409-2.742-.385-1.53-.65-3.061-1.155-4.447-2.106-.38.169-.368.692-.133.849 1.537 1.095 2.11 2.833 3.797 3.615.012.53.03 1.366-.651 1.378-3.278-.68-6.725-2.045-9.497-3.724-.15 0-.38-.072-.452.078 1.175 1.72 2.808 3.574 3.386 5.535-1.5.872-2.826-.764-4.2-1.113-1.38-.728-2.452-1.233-3.76-1.961.494 1.726 1.82 3.513 2.694 5.24.47.668-.736 1.077-1.2.704a30.287 30.287 0 0 0-5.833-2.972c-.036 1.889 1.525 3.603.422 5.438-.205.837.657 2.256-.627 2.43-.554-1.419-2.187-3.122-3.194-4.018-.373.391.018 1.059.26 1.516.337 1.733.608 3.706.952 5.276-.29.764-.416 1.685-.94 2.226-1.543-1.179-2.58-3.658-4.28-4.83.585 2.255 2.02 5.558.555 7.94.085.38-.06.753-.355 1.071l-.609.012c-1.018-1.425-1.597-3.61-3.356-4.397-.374.39.018 1.058-.2 1.45-.108 1.973 1.82 3.356 2.544 5.167 2.82 3.875 4.971 8.447 8.611 11.774-.054 1.137-1.5.866-2.175 1.27-.53.162-1.296-.2-1.664.33-1.53-.722-2.97-.541-4.362-1.648-2.242 1.492-3.966-.813-6.292.222 5.062 2.389 4.357 8.459 9.497 10.847 1.399 1.564 2.664 3.88 2.333 5.932-.272 1.6-1.308 2.761-2.652 3.622l-3.88-4.007" transform="matrix(1.15 0 0 1.15 -53.787 -24.828)"/><path style="fill:#0a1f62;stroke:none;fill-opacity:1" d="M360.68 157.655c.14.319.03-.337 0 0 .03 1.45 1.278 2.93.778 4.373-1.53 2.774-3.971 5.625-4.737 8.976-1.096 1.913-2.12 3.61-2.603 5.746-1.085 2.514-1.56 4.957-2.037 7.46-.94 2.141-1.26 4.879-1.886 7.393-2.163 8.459-3.941 17.52-7.472 25.924-.404 2.442-1.724 4.512-2.278 6.87-3.483 7.123-6.527 13.699-11.01 20.539-4.104 6.461-9.292 12.255-15.644 16.568-1.284.554-2.55 1.492-4.062 1.75-1.187.94-2.193.049-3.706.392-2.362-.554-5.05-1.787-6.906-3.562-2.187-2.61-4.682-5.805-4.531-9.294 2.513.397 4.097.21 6.285-.602 1.657-.175 2.917-1.727 4.423-2.136.747-.692 2.019-1.48 2.832-2.328 2.369-2.785 5.49-5.661 7.467-9.187.44-.541 1.332-1.39 1.543-2.231 2.796-3.845 5.122-8.676 7.683-12.977 4.755-11.617 10.178-23.71 14.782-35.098.741-.999 1.157-2.605 1.663-3.748.157.072.23-.012.296-.078v-.463c.144.072.144-.067.217-.15-.235-.53.445-.386.44-.777l-.157-.138.367-.457-.078-.073.078-.012c.651-1.528 1.374-2.984 2.103-4.44l-.156-.144c.512-.842 1.18-1.606 1.464-2.605.15 0 .223-.084.295-.156.067-.542.742-1.011.88-1.607 2.387-5.288 5.556-9.601 9.714-13.632l3.948-.084" transform="matrix(1.15 0 0 1.15 -53.787 -24.828)"/><path style="fill:#a54a00;fill-opacity:1;stroke:none" d="M382.05 59.67a26.67 26.67 0 0 1 4.115.897c5.725 1.552 11.24 3.688 16.892 5.463 3.224 1.6 7.038 2.418 10.322 3.49.302-.151.693.432 1.224.198 2.977 1.07 6.327 1.528 9.081 2.527.476.896-.837.096-.97.703-1.127.331-2.182.885-3.387 1.06-4.754 1.389-8.262.703-12.83-.103-.463-.367-1.301-.5-1.916-.788-1.368-.12-2.519-.698-3.814-.897-.085-.529-.76-.138-1.145-.21-.38-.06-1.079-.878-1.91-.554-.163-.529-.91.012-1.218-.349-2.145-1.01-4.574-1.19-6.864-1.75-.464-.283-1.15-.494-1.687-.788-1.76-.65-3.736-.674-5.351-1.625-1.224-.349-3.785.458-3.984-1.582-.759-.048-.964.927-1.807.572-.356.92-1.272.86-2.02 1.257-1.21.33-2.5.132-3.645-.15l-1.898-.109c-1.796 1.18-4.104 3.267-6.412 1.883-.898.47-1.916-.872-2.73.21.325.903.892 2.63.241 3.935-.729 1.378-2.17 1.414-3.152 1.74.73 2.033.633 4.457-.928 6.003-.295.223-.753.235-.82.698 1.544 1.257.682 3.243.41 4.921-.855 2.208-5.043 1.847-3.989 5.005-.717 1.456-2.748 2.34-2.097 4.374-.753 3.64-5.857 2.84-5.616 6.859.175 1.058-.56 2.207-.988 3.278-1.278.638-2.02 1.564-3.532 1.667-.566 1.907-.434 4.41-2.772 4.987.928.89-1.205 3.886.91 3.531.223-.373.054-1.125.663-1.064.56 1.504 2.507 3.736 1.097 4.98-2.188.645-2.694-1.54-3.779-2.502l-.096-4.464-.681.012c-2.38 2.172-3.46 5.072-4.303 8.128-.85-.74-1.94-1.997-1.892-3.369-.157-.223-.386-.295-.693-.283-1.253 1.607-1.284 3.664-1.314 5.782-1.747-.415-2.241-2.142-3.266-3.49-.705-1.119-.801-2.256-1.59-3.375-1.194.482-1.164 1.998-1.67 3.069-.35 1.528.217 2.875-.283 4.325l-.458.012c-1.856-1.624-3.357-4.175-4.249-6.726-.753.169-1.494.945-1.699 1.86.241.667-.434 1.07-.5 1.6-.639 1.828.482 4.602-1.85 5.498-.958 1.372-1.53 2.527-2.182 3.983-.229.078-.307-.145-.464-.21-.132-2.66-.5-5.523.127-8.195.512-.842.639-1.829 1.458-2.538-.169-.752-.916-.199-1.211-.043-1.26 1.468-2.82 3.099-3.923 4.555l-.235-.29c-.458-3.633 1.277-7.531 3.561-10.54l-.385-.438c-1.94 1.708-3.803 3.338-5.117 5.558l-.53.012c-.41-4.758 1.922-9.06 5.2-11.935.145-.307-.162-.446-.24-.674-.597.625-.844-.277-1.519.036-1.94 1.552-3.875 3.339-6.364 4.079.422-1.528 1.688-2.846 2.49-4.302 1.41-1.233 1.675-3.218 3.958-2.665.368-.53 1.814-.565 1.338-1.54-.771-.517-1.434.566-2.193.59l-1.212.018c.85-2.828 3.17-4.157 5.322-6.486-.037-1.738-2.387-1.534-2.953-3.11-.573-1.961-1.899-3.598-2.176-5.643-1.488-2.31-5.405-4.416-3.194-7.424 1.049-.553-.18-1.432-.198-2.196-.175-1.203-.139-2.797.21-4.09-.705-.975-2.211-.26-2.904-1-2.591-.625-1.422-6.028-5.02-3.898-.693-.517-1.741.03-2.585-.33-2.567.444-4.628-3.304-7.003-.91-2.241 1.499-5.815 1.342-8.695 1.415-1.079-.728-2.604-1.083-3.833-1.589-1.784 1.553-4.116 2.443-6.538 2.87-2.037.421-3.954-.44-6.008-.698-3.99 1.528-7.328 5.09-11.468 6.546-2.176 1.107-4.194 2.364-6.599 3.327-2.706 1.407-5.34 2.388-8.286 2.984-1.585.33-2.651.198-4.327-.139-.988.024-2.579.21-3.055-.764 4.707-3.513 10.088-7.039 15.493-9.884 9.467-4.157 18.555-8.585 28.878-8.67 8.49-.342 16.3-.812 24.9.283.542.752 1.35-.469 1.747.494 4.038.667 8.54 1.552 10.3 5.757 2.434 3.652-2.857 8.092 1.012 11.419 1.73 2.845 3.549 6.052 3.398 9.625.32.824.874 1.877 1.645 2.316 1.543-2.165 4.864-3.29 7.208-3.573.97-.704 2.344-.505 3.55-.752 2.958.012 6.224.084 9.123.704.825-.331 1.76.565 2.585.246.09.53.838.049 1.145.355 3.893.819 7.008 1.21 10.323 3.333 1.199-.716 1.91-2.394 2.874-3.627 2.483-4.44 2.52-9.674.67-14.487-1.122-2.55.487-5.234 2.036-7.243 1.687-2.762 4.586-2.148 7.141-3.261.765.36 1.814-.193 2.489-.506 2.5-.354 5.134-1.401 7.46-2.586 1.447.336 2.393-1.354 3.622-.764 3.242-.975 6.972-.307 10.021.15" transform="matrix(1.15 0 0 1.15 -53.787 -24.828)"/><path style="fill:#a54a00;stroke:none" d="M272.952 68.509c-.205.986-1.489 1.245-2.001 2.244-1.645 1.022-3.833 1.6-5.743 1.185-.693-.433-1.079-.963-1.7-1.48.893-.704 2.345-.35 3.393-.903 2.055.103 3.863-3.796 6.05-1.034M290.566 68.815c1.2-.716 2.29.62 3.411-.234.157.222.844.517.398.974-1.645 1.023-3.532 1.444-5.418 2.022-2.272.27-1.723-2.4-2.953-3.195l.284-.998c1.223.655 2.898.703 4.278 1.431M285.106 68.93c.398.824 1.097 1.714 1.115 2.4.458.295 1.308 1.035.555 1.492-1.103 1.33-3.092.53-4.755.788-.464-.367-1.374-.27-1.464-1.023-.67-2.635 2.603-2.478 3.392-4.463l.67-.542c.831.199.011.902.481 1.348" transform="matrix(1.15 0 0 1.15 -53.787 -24.828)"/><path style="fill:#000;stroke:none" d="M395.144 65.146c-.518.475-1.283.258-1.802.721.211-.685 1.127-.403 1.5-.721l.158.156.144-.156" transform="matrix(1.15 0 0 1.15 -53.787 -24.828)"/><path style="fill:#a54a00;stroke:none" d="M282.353 68.003c-.507 1.071-1.935 1.787-2.682 2.407-1.272.86-2.176 1.179-3.682 1.6-1.14-.06-1.61-.8-2.091-1.775-.241-.668.361-1.07.5-1.6 2.374.932 5.315.259 7.497-.62l.458-.012M262.291 70.482c-1.241 1.997-3.193 3.182-5.206 4.746-5.448 4.278-12.517 7.238-19.248 8.224-1.205.482-2.567.355-3.79.235.741-.854 2.458-2.015 3.501-3.11 2.187-.578 3.604-1.739 5.791-2.328 4.875-2.527 9.6-5.355 14.156-8.495 1.368.048 3.5.307 4.796.728M380.037 68.436c-.043 1.438-.151 3.327-1.802 4.127-1.055.554-2.121.271-3.182.373.127-1.137 1.006-2.677-.301-3.712l-.476-.74c1.669-.036 2.995-1.877 4.616-.715.38-.15.988.282 1.145.667M371.546 68.629c.018.818-.193 1.654-.868 2.051-1.356.331-3.399.764-4.405-.126l-.163-.445c1.814-.494 3.501-3.189 5.436-1.48M390.378 72.6c1.24 1.185 1.73 2.773 3.043 3.723l-.073.15c2.41 2.6 4.689 6.185 6.72 8.718-7.9-.21-13.824-7.34-19.718-12.898.048-1.444 1.543-2.455.747-3.959.603.054 1.453.27 2.206.325 2.76 1.233 5.713.944 7.069 3.94" transform="matrix(1.15 0 0 1.15 -53.787 -24.828)"/><path style="fill:#a54a00;stroke:none" d="M374.318 70.53c-.283 1.07-.097 2.653-1.452 3.134-1.043.638-2.85 1.282-4.086.476-.163-.53-.175-1.143-.265-1.74.74-.92 1.747.031 2.56-.745 1.122-.692 1.555-1.841 1.682-3.062l1.555 1.937M273.09 71.39c.627.74 1.248 1.408 2.013 1.703 1.675.337 2.796-.602 4.152-.933.783.969-.65 1.462-.711 2.214-4.779 3.592-8.087 8.284-14.131 9.482-.217.541-.916-.049-1.127.553l-4.93.259c4.448-4.717 9.678-8.543 14.355-13.422l.53-.012-.15.156M294.031 70.927c-.337 2.057-.452 3.796.35 5.68-.88 1.383-2.941.89-4.303 1.076-1.464-1.1-2.019-2.076-1.603-3.826-.054-2.425 2.94-.975 4.05-2.364.687.21.97-.62 1.506-.566M297.478 72.6l1.917.788c-.205.914.668 2.935-.61 3.417-.373.096-.758-.133-.981.246-1.061-.12-2.146-.926-2.772-1.823-.254-1.36-.139-3.032.367-4.096.916.126 1.314 1.173 2.08 1.455M269.035 73.22c-5.346 5.42-11.01 10.094-18.278 11.165-1.585.102-3.32.596-4.694.259 3.423-2.966 7.846-5.409 11.197-8.284 2.097-1.258 4.423-2.6 6.207-4.23 1.253 1.558 3.886.752 5.568 1.09M365.062 70.578c.168.83-.037 1.901-.627 2.593-.91.168-2.03 1.023-2.58.048 1.043-.926-.343-1.81.007-3.02 1.211-.259 2.06.481 3.2.38M400.345 73.598c.602-.168.687.283.85.656 2.079 1.468 3.205 4.41 5.212 6.028.958 2.172 3.495 3.405 4.454 5.661-1.133.247-2.592-.325-3.809-.457-1.452-.644-3.061-1.294-4.297-2.244-1.072-.433-1.771-1.101-2.615-1.606-3.49-3.412-6.828-6.678-9.648-10.697.988-.024 2.133.403 3.278.602 1.917.95 4.646.812 6.575 2.057M367.72 74.314c.096.836-.103 2.046-.772 2.888-.964.776-2.712.824-3.785.234.055-.83-.114-1.666-.506-2.334 1.585-.343 3.158-1.281 3.345-3.02.072-.307.596-.47.831-.18.844.439.645 1.576.886 2.412M287.113 74.043c.796 1.643-1.314 2.443-1.976 3.303-4.93 3.664-8.84 8.597-15.91 8.14l-.307-.295c3.025-3.778 7.268-7.508 11.366-11.01 2.368.71 4.573.74 6.827-.138M387.847 81.822l.85.517-.151.15c.85.74 2.157 1.469 2.488 2.75-6.659.824-11.552-4.217-15.746-8.597l.096-2.352c1.453.421 2.869-.74 4.303-1.15l8.154 8.682M362.163 77.003c-.35 1.294-.856 2.292-2.133 2.924l-1.748-.102c.422-1.6.934-2.292.44-4.103.747-.554 1.41-1.396 2.477-1.27.548.825.645 1.727.964 2.551M374.18 74.464c-.194 1.685.078 3.646-1.875 4.512-1.067-.114-1.964.506-2.814-.15l-.609.012c-.15-.379-.765-.367-1.072-.674.433-.83.717-1.666.928-2.665.361-.68.837.295 1.368.12 1.596.2 2.711-.74 4.073-1.143M442.058 82.749c1.314.962 2.929 1.985 4.152 2.424l.62.656c-6.82.457-13.474-1.901-19.24-5.336-1.098-1.408-2.237-1.468-3.478-2.642-1.38-.8-2.76-1.455-4.074-2.49-.018-.836 1.14-.024 1.35-.716 1.977.259 3.212-2.413 5.068-.788 5.068 2.773 10.679 5.908 15.602 8.892M405.154 74.855c.837.211 1.458.867 2.362.62.47.53 1.898.12 2.597.776 3.634-.072 5.032 4.44 7.647 5.968 1.374.728 2.242 2.082 3.773 2.798.235.379.615.294.705.824-1.965.349-3.483.084-5.387-.175l-.007-.168c-4.88-1.173-8.677-4.807-11.883-8.826-.922-.505-1.17-1.63-1.868-2.147.223-.235.602-.163.837-.024.314.529.76.06 1.224.354M289.644 78.604c.765.282 1.82-.037 2.513.397-1.482 1.467-2.905 2.647-4.694 4.042-2.917 1.811-6.08 3.093-9.648 2.786 2.446-2.623 5.664-4.663 8.033-7.37.904-.174 1.096-1.69 2.175-1.185.464.602.934 1.035 1.621 1.33M299.798 77.851a13.085 13.085 0 0 0-.753 3.875c-.892.776-1.73.565-2.874.445-.386-.445-1.067-.433-1.531-.794-.476-.836-1.187-2.178-.295-3.104.632-2.293 2.277.246 3.404-.223.603-.247 1.519-.12 2.05-.199M421.075 77.683c2.615 1.462 4.248 3.4 6.629 4.482 2.41 2.816 6.882 2.418 9.298 5.252-5.984.656-12.77-.944-17.193-5.09-2-1.455-4.55-3.453-6.122-5.841 1.127-.41 2.651-.361 4.08-.776 1.144.27 2.157 1.402 3.308 1.973M376.74 80.553c1.874 2.454 4.568 4.217 6.605 6.894-.663 1.167-2.266.74-3.326.686-3.206-.764-5.442-2.455-7.708-5.288-.922-.506-1.705-1.552-2.254-2.443 1.591-.192 3.947-.084 4.58-2.153 1 .505 1.332 1.714 2.103 2.304M366.857 79.94c.097.907-.186 1.738-1.012 2.225-1.284.247-2.874.277-4.242.235-2.164-1.697 1.012-2.142 1.133-3.736 1.464 1.028 3.838-1.228 4.121 1.275M292.874 80.493c.47.836 1.187 2.256 2.332 2.526-.717 1.847-2.525 2.479-4.02 3.658-1.795 1.173-3.826 1.901-6.122 1.04.488-1.828 2.531-2.255 3.64-3.639l3.863-3.724h.452l-.145.139M228.406 82.598c1.899-.036 3.104-.517 4.785-.024.018.903-.904.47-1.344 1.01-5.737 4.97-9.955 9.85-16.307 14.301-1.578.8-2.838 2.268-4.652 2.527-2.308 1.865-5.478 2.689-8.34 3.898-2.043.036-4.61.704-6.599.145 1.477-1.998 4.411-3.213 6.195-4.916 8.009-4.873 16.072-11.033 22.683-17.542 1.223.505 2.422-.211 3.58.601M246.852 82.574c-1.645 1.33-3.224 1.81-4.405 3.501l-.15-.138c-4.936 3.58-9.624 7.55-14.246 11.37-.76.085-1.272.939-1.868 1.402-3.363 2.196-6.732 4.242-10.968 4.861-1.579.788-3.182.38-4.996.566.422-1.378 1.784-1.787 2.67-2.786a317.517 317.517 0 0 0 18.47-15.864c2.802-.138 5.442-1.023 8.178-1.01.361-.542 1.283-.025 1.73-.422a139.222 139.222 0 0 0 5.573-1.787l.012.307M375.873 89.438c-2.333.807-4.791-.427-6.792-1.744-1.543-.95-2.037-2.912-3.2-3.947-.096-.83.892-.776 1.338-1.245.29-.68.958-1.306.94-2.208 2.567 2.9 5.291 5.866 7.714 9.15M360.38 82.129c-.2 1.137-.03 1.973-.465 3.044-.904.162-1.488 1.312-2.555 1.113-.41-1.516.615-3.207-.253-4.476-.157-.445.133-.902.512-.987 1 .656 2.495-.367 2.76 1.306M256.97 83.868c.012.529-.735.842-.494 1.528 1.157.95 2.88-.217 4.11.655-2.82 2.798-5.574 5.204-8.407 7.695-2.67 2.707-5.423 5.198-9.039 6.473-.512 1.005-1.133.193-1.723 1.023-.675.18-1.133.259-1.886.427-1.356.337-3.02.903-4.249.09 5.864-6.04 13.185-11.28 19.284-16.79.747-.536 1.5-1.011 2.404-1.101M268.263 86.497c.603-.247.693.367 1 .505-4.398 3.67-8.303 8.898-13.402 11.894-3.242 1.047-5.857 2.7-9.43 2.478-.019-.836 1.114-1.01 1.096-1.913 3.339-3.495 7.069-6.455 10.86-9.944 1.482-1.396 3.278-2.503 4.38-4.182 1.748.037 3.773-1.155 5.587-1.491-.29.68-2.152 2.328-.097 2.653M299.611 83.08c1.019 1.42 2.248 2.304 2.96 3.573.023.987-1.206.325-1.652.866-1.362.187-2.133-.553-2.917-1.594-.482-1.131.627-2.448 1.61-2.846M297.267 83.513c-.584.998-.41 2.045-.012 3.104.32.53 1.013 1.047.952 1.799-2.073 2.244-5.4 2.773-8.37 2.382.874-1.606 2.362-3.092 3.857-4.103 1.115-1.077 1.928-2.01 3.043-3.17l.53-.012M252.155 85.708c-6.333 5.457-12.287 10.577-19.09 15.21-3.098.89-6.25 2.394-9.522 2.087 0-.15-.078-.223-.157-.29 3.423-3.188 7.07-6.454 10.878-9.107 3.055-2.714 6.719-5.216 9.78-7.557 3.037.15 5.376-.505 8.105-.716l.006.373M364.212 83.711c1.284 3.225 3.471 6.125 5.134 9.27-3.784.236-5.833-3.037-8.533-5.04-3.073-1.817 1.694-2.299.814-4.489.988.367 1.59.049 2.585.26M277.001 86.99c.621.59-.428 1.293-.795 1.75-5.122 5.265-10.582 12.28-18.717 11.708l-.006-.38c4.368-4.794 9.075-8.374 13.22-12.934l-.083-.457c1.669.03 3.404-.602 4.983-1.18.09.687.488 1.59 1.175 1.565.079.084.151 0 .223-.072M284.8 85.98c-.206 1.142-1.724 1.022-1.471 2.303.542.295 1.15.506 1.693.95-2.29 3.009-6.092 5.89-8.846 8.532-2.55 1.27-5.321 2.917-8.594 2.454.946-1.756 2.574-3.531 4.134-5.083 2.212-2.93 5.508-5.054 7.334-8.194 1.898.036 3.85-.842 5.75-.963M405.702 86.202c1.097 1.341 2.272 3.056 3.513 4.398l.012.373c1.013 1.576 2.483 2.905 3.508 4.482l-.151.138c1.09 1.197 2.338 2.761 3.35 4.019-2.356-.32-4.754-2.232-6.604-3.712l.144-.157c-3.163-2.346-5.357-5.486-7.478-8.693.38-.162.976-.632.512-1.083-.626-.806-2.006-1.468-1.958-2.527 1.62 1.107 3.314 2.13 5.146 2.762M393.602 84.656a32.727 32.727 0 0 0 6.496 1.9c2.977 4.326 5.966 9.187 8.647 13.747-1.29.025-2.525-.998-3.893-1.125-2.844-1.684-5.007-3.525-7.345-6.274-1.64-1.86-3.514-4.314-5.075-6.323-.09-.614 1.049-.704.651-1.456l-1.392-1.257c.832-.097 1.23.728 1.91.788M386.726 86.015l.006.157c1.283-.109 2.519.62 4.104.36 3.181 3.105 5.93 7.298 8.515 10.95.934 1.191 2.175 2.448 2.59 3.88-5.326-.565-9.424-4.115-13.016-8.579-1.175-1.564-2.796-2.887-3.82-4.536.65-1.528-1.398-1.63-1.73-2.689l-1.392-1.33c1.687.789 2.995 1.751 4.743 1.787M418.55 86.978c.687.367 1.368.204 2.356.259 6.966 6.052 13.023 12.363 20.459 19.167-3.339-.072-6.864-1.516-9.853-2.81-7.4-5.3-13.703-12.35-19.85-19.035 2.079 1.162 4.61 2.467 6.888 2.419M303.691 89.198c1.013 1.27.904 3.176 2.296 4.35-.657 1.082-1.741.258-2.573.433-.62-.74-1.922-1.312-1.88-2.678.596-.691.868-5.546 2.157-2.105M300.714 88.59c-.795 1.54 1.633 5.114-1.711 4.957-1.808.578-3.013.909-4.466.404 1.32-2.154 3.49-3.412 4.815-5.325.603-.024.681-.024 1.362-.036M358.596 87.237c1.795 2.165 3.38 5.3 5.11 7.923.012.53.62.74.56 1.347-4.254-.138-7.382-4.38-10.033-7.436 1.133-.318 2-2.231 3.23-1.576.217-.541.753-.162 1.133-.258" transform="matrix(1.15 0 0 1.15 -53.787 -24.828)"/><path style="fill:#a54a00;stroke:none" d="M289.487 88.837c-.44.607-.807 1.149-1.325 1.847.626.818 1.169 1.335 2.23 1.16.234.374.698.825.174 1.06-2.452 2.322-5.152 3.898-7.984 6.238-.748.47-1.802.939-2.779 1.27-1.361.174-2.934 1.113-4.242.246 2.953-3.55 6.237-5.98 9.202-9.379 1.181-1.383 2.519-2.773 4.345-2.442h.38M410.897 87.531c2.253-1.113 3.386 2.268 4.85 3.219 3.64 3.339 6.6 6.606 9.637 10.095 1.994 1.48 4.037 4.157 5.887 5.781-1.362-.12-2.44-.776-3.808-.89-3.369-1.227-5.671-2.527-8.455-4.753-3.429-4.006-8.316-8.976-11.01-14.071 1 .667 1.97-.12 2.899.62M427.131 87.333c.62.517 1.308.716 2.067.788 1.856 1.618 3.405 3.032 5.484 4.265 4.176 3.466 9.208 8.363 13.607 11.678.235.144.313.517.693.354l-.145.163c1.091 1.408 2.483 2.665 4.026 3.844l-.072.15c.006.157.235.157.385.145l-.144.162c.458.295.994.578 1.229 1.035-.73.987-1.597-.662-2.73-.33-.771-.59-1.983-.41-2.61-1.15-1.675-.493-2.988-1.293-4.519-2.093-8.015-5.511-14.469-12.34-21.748-19.156.675-.312.898-.469 1.73-.643.988.282 1.77 1.173 2.741.776M440.4 86.653c.465.445 1.369.199 1.911.644 1.585-.494 3.568.15 5.23-.115 8.684 4.735 16.356 11.996 24.515 17.188 1.326 1.48 2.923 1.835 4.026 3.327-7.069-.379-13.95-2.797-19.296-7.532-3.55-2.725-7.412-5.68-11.106-8.17-2.248-1.913-4.26-3.688-6.792-5.155.145-.307.982-.175 1.513-.187M379.512 89.198c1.519.204 3.194.39 4.544-.47 3.513 4.47 7.72 9.452 11.613 13.916v.222c-1.362.036-2.592-.848-3.803-.667l-.006-.157c-7.027-1.961-9.43-7.815-14.095-12.796l-1.157-.806c.825-.403 1.458.728 2.211.409l.693.349M372.028 90.588c1.838.631 3.489-.15 5.315.036 2.193 3.056 4.76 6.028 6.502 9.246 1.477 1.938 2.796 3.195 4.212 5.132-6.936-1.137-11.92-6.858-16.132-12.062-.77-.74-1.783-1.787-2.338-2.834l-.554-1.047c.85.59 2.067.86 2.995 1.516M356.01 93.957c1.58 2.773 4.116 4.163 5.315 6.936-.753.319-1.603-.343-2.277-.024-.772-.59-2.296-.926-3.074-1.75-2.067-.789-3.634-2.949-5.188-4.663.277-1.366 1.79-1.318 2.139-2.774.139-.601.12-1.365.416-1.738.566 1.504 2.181 2.442 2.67 4.025M440.075 89.096c4.791 4.054 9.89 7.953 15.126 11.394 1.615 1.33 3.248 2.966 4.87 4.151 1.85 1.552 3.934 2.936 5.567 4.795-1.428.481-2.965-.169-4.555-.048-3.038-.307-5.593-2.22-8.268-3.387-2.845-1.667-5.255-4.278-8.335-6.33-3.428-3.94-8.894-7.604-12.769-11.08 1.59-.332 2.748.553 4.333.21 1.518.12 2.935-1.047 4.031.295M294.64 91.749c-.127 1.143-1.555 1.774-1.603 2.917.693.584 1.452.572 2.218 1.011-3.797 3.183-7.563 7.965-13.125 6.955l.506-1.071c3.332-3.784 7.068-6.365 10.714-9.62.458-.096.826-.553 1.29-.192M303.824 95.346c1.133-.258 2.266-.59 3.399-.848.156.156.385.295.313.53-2.158 1.87-5.165 3.29-8.123 3.29l-.537-.36-.15.15c-.314-.38-.772-.434-.555-.975l3.043-3.176c.91.048 1.844 1.022 2.61 1.39M371.425 94.161c3.435 4.392 7.328 8.778 10.01 13.416-1.61-.644-3.224-1.594-4.851-2.996-3.749-1.36-4.882-4.512-7.666-6.955-.62-.667-1.253-1.714-2.097-2.153-.325-1.041-1.693-1.017-1.567-2.232 1.622 1.095 4.207 1.341 6.171.92" transform="matrix(1.15 0 0 1.15 -53.787 -24.828)"/><path style="fill:#a54a00;stroke:none" d="M298.358 95.076c.03 1.365-2.404 1.353-1.302 3.056.247.986 1.531.505 1.7 1.407-3.128 2.648-6.394 5.818-10.655 5.62l-.464-.446c1.85-2.166 4.002-4.41 6.473-6.136 1.259-1.161 2.904-2.407 4.248-3.501M359.162 95.791c3.664 4.23 7.605 7.557 10.293 12.351.723 1.8 1.53 3.899 1.042 5.956-1.066-.27-1.018-1.48-1.946-2.147-2.887-3.574-6.231-7.358-9.937-10.168 1.362.199 2.519.704 3.862.073l.67-.849-4.213-5.204.223-.012M375.692 108.684c-.066.541.548.74.331 1.36-1.994-.939-3.61-2.046-5.237-3.454-3.163-2.418-5.447-6.154-8.165-8.988 1.145.283 1.904.259 3.031-.06.223-.235.066-.608.133-.914l-.464-.433.295-.235c3.658 4.073 7.454 7.785 10.076 12.724M352.148 97.614c1.699 1.468 2.573 3.28 4.567 4.067.157.53 1.296.644 1.242 1.48-.368.385-1.055.175-1.513.493-.15-.457-.602-.222-.91-.282-1.681-.728-3.742-1.21-4.99-2.623-.614-.446-1.542-1.023-1.934-1.703.741-.776 2.019-1.48 1.989-2.69.76-.161 1.012 1.036 1.549 1.246M303.522 98.751c.392.686-.656 1.155-.644 1.835-.724 1.613-1.055 3.808-2.93 4.687-1.952 1.022-3.832 1.907-6.26 1.799 1.771-2.232 3.7-4.17 5.622-6.558.663-.842 1.338-1.396 2.326-1.27.681.06 1.049-.703 1.886-.493M347.941 99.75c1.284 2.996 6.52 3.116 6.008 7.37.012.445.175 1.432-.644 1.612-1.67.174-3.345-.012-4.357-1.27.928-2.526-.802-5.372-1.459-7.7l.452-.012M348.05 104.593c.476 1.047-.181 2.045-.235 3.032-1.447.036-3.031.15-4.267-.728 1.175-1.624 2.043-3.76 1.844-5.655.145-.373.67-.914 1.055-.547 1.012 1.113 1.344 2.544 1.603 3.898M366.863 114.417c.03 1.516 1.218 3.676.645 5.204-.928-.728-1.56-1.787-2.26-2.665-3.338-3.339-5.327-7.544-9.919-9.331-.403-1.059-.355-2.268-.759-3.243 1.519.036 3.513.987 4.622-.397 3.092 2.419 6.587 6.215 7.671 10.432M347.863 109.82c.337 1.517.229 3.713-.808 4.796-1.283.343-2.362-.397-3.434-.903-1.621-1.257.078-3.339-.718-4.915-.078-.3-.391-.668-.09-.902 1.543 1.33 4.02-.012 5.05 1.925M342.012 109.502c.024 1.215.144 3.104-1.049 4.03-1.211.26-1.452-.336-2.44-.535.8-1.39 2.211-2.707 1.795-4.361 1.049-.86 1.525.27 1.694.866M354.685 109.526l.518-.535c.32.667.68-.247.994.198 3.556 2.876 6.388 7.743 7.63 12.11-.218.686.035 1.968-.627 2.672-3.55-6.064-9.016-9.728-14.204-14.313l-.012-.68c1.627 1.547 3.808.819 5.7.548M358.342 120.517c-.132.903.326.975.193 1.877-1.458-.643-2.705-2.364-4.02-3.314-2.15-1.246-3.645-3.628-5.567-4.807-.17-.83.18-1.973.47-2.738 2.796 2.822 7.315 4.916 8.924 8.982M343.361 115.759c-.204.914.5 1.961-.319 2.737l-.976.47c.138-.753-.687-.2-1-.578-.398-1.059-.814-2.63-1.676-3.76 1.53.42 3.754-1.89 3.971 1.13M344.874 115.578c1.223.199 2.585.247 3.79-.162 2.562 2.292 4.297 5.288 4.598 8.85-.458-.157-.771-.59-1.157-.897-2.934-2.358-4.971-5.108-7.743-7.177l-.018-.68.53-.012v.078" transform="matrix(1.15 0 0 1.15 -53.787 -24.828)"/><path style="fill:#fff;stroke:none" d="M357.571 150.11c2.019-1.004 3.423-2.382 3.423-2.382-.645-1.726-1.217-3.61-2.682-4.488l.151-.072h-.301c-1.495-2.316-4.393-3.008-6.478-4.626-.766-.133-1.242-1.258-1.85-1.33-.362.848-.802 1.612-1.863 1.787-2.778-2.515-6.363-3.183-8.695-5.794-1.308-.728-2.007-1.552-3.092-2.502l.145-.15c-1.543-1.192-2.664-3.965-3.544-6.065l-1.404-1.107c-.277-.259-.572-.704-.988-.728l.145-.162c-1.459-.716-1.103-1.787-2.483-2.449-.271 1.45-.09 2.732-.06 4.103.084.445.566 1.576-.422 1.516-2.08-1.395-3.562-3.405-4.972-5.498l.067-.073c-.53-.36-.477-1.281-1.085-1.335-.802 1.456-.597 3.946-.567 5.306.097 1.293.953 2.033.898 3.243h-.446c-2.922-1.667-4.815-4.885-6.556-8.176-.518.692-.717 1.9-.771 2.737-1.121 4.488.361 9.692 2.645 13.362 2.808 3.862 6.321 8.344 11.01 10.654 2.332 2.611 6.195 2.292 8.955 3.748 5.013.12 9.063 1.39 13.848 1.438.633.385 2.019-.108 2.844.175 0 0 2.115-.097 4.134-1.12" transform="matrix(1.15 0 0 1.15 -53.787 -24.828)"/><path style="fill:#ffb30f;stroke:none" d="M358.33 150.502c-2.416 1.107-4.308 1.317-4.308 1.317-.29.608-.977.397-1.278.41-.301.083-.524.456-.217.679 1.995.872 3.845 2.046 5.532 3.068.543.367.91-.174 1.356-.493-.62-.812-1.916-1.01-2.923-1.823-.464-.517.205-1.149.651-1.372 1.073.421 2.073 1.011 3.08 1.739 2.446.854 3.85 2.725 5.266 4.885.977-.397 1.182-1.54 1.616-2.454.126-3.809-2.85-5.968-5.508-8.212 0 0-.85 1.137-3.267 2.244" transform="matrix(1.15 0 0 1.15 -53.787 -24.828)"/><path style="fill:#a54a00;stroke:none" d="M333.695 124.23c.344.384.284 1.197.627 1.582 1.41 2.081 2.676 4.56 4.978 5.727-2.513-4.2-3.833-8.934-4.472-13.927l-.494-1.655c-.837-.132-.59.843-1.187 1.161-.844 1.787-1.615 3.562-.928 5.662l1.476 1.45M350.267 125.992c-3.435-.836-6.128-2.587-7.647-5.968 1.14.042 1.495-1.167 1.856-1.931 2.772 1.823 4.586 4.97 5.791 7.9M336.467 119.772c1.11 2.02 1.838 4.054 3.315 5.606.096.987 1.163 1.27 1.633 1.86l-.15.162c1.88 2.677 6.279 2.515 6.598 6.672.693.505.566 1.426 1.03 2.021-.295.307-.361.848-.662.848-4.116-.74-6.557-4.782-8.672-7.85-1.193-2.467-2.308-4.862-2.899-7.575-.391-.53-.482-1.281-.422-1.745h.23" transform="matrix(1.15 0 0 1.15 -53.787 -24.828)"/><path style="fill:#a54a00;stroke:none" d="m346.91 128.633-.138.692c-3.887-.752-6.7-4.542-8.448-8.14.897-.409 2.283.32 2.94-.752 1.874 2.383 3.544 5.746 5.647 8.2M354.01 120.15c6.104 5.018 9.846 12.893 14.161 19.39-.747.385-1.886.337-2.73.127-5.2-1.847-6.689-7.424-9.135-11.762-2.176-2.304-1.633-5.192-2.604-7.742l.308-.012M355.432 129.584c2.272 3.29 3.616 5.757 5.67 9.27-1.054.554-2.585-.09-3.736-.595-2.712-2.671-4.242-6.497-6.213-9.945.211-.68 1.037-1.149.488-2.051-.325-.975-1.108-1.943-.976-2.858 1.64 2.16 4.17 3.159 4.767 6.179M349.623 127.67c.88 2.106 1.687 4.278 3.17 6.065.487 1.432 1.735 3.068 2.669 4.265l.012.295c-1.133.481-1.989-.553-3.05-.614-2.542-1.612-3.597-4.77-4.947-7.387.44-.764 1.103-1.54.784-2.365-1.073-.355-2.007-1.395-2.103-2.388.934.98 2.97.541 3.465 2.13" transform="matrix(1.15 0 0 1.15 -53.787 -24.828)"/><path style="fill:#000;stroke:none" d="M352.563 144.052c.615.29 1.603.56 2.001 1.312-.29.698-.73 1.305-1.488 1.402-2.206-.331-2.634-2.515-4.84-2.623-.307-.295-.24-.668.14-.764 1.451.427 2.747.71 4.187.673" transform="matrix(1.15 0 0 1.15 -53.787 -24.828)"/><path style="fill:#0a1f62;stroke:none;fill-opacity:1" d="M254.415 146.88c1.14.132 2.073 1.095 2.766 1.612.784 1.113 1.266 2.328.543 3.923-1.037 1.01-2.628 1.353-3.658 2.587-3.453 1.738-7.063 3.254-10.522 4.855-.916-.133-1.272.926-2.188.571-1.874 1.023-3.989 1.45-5.863 2.479-1.308-.806-.368-2.714-.85-3.995.338-1.973 2.2-.126 3.4-.752l.234.295c2.2.024 4.23-.776 6.123-1.125 2.254-1.035 5.682-.578 6.9-3.784l-.356-2.34c-1.856-1.553-3.826-1.354-6.556-1.372-1.194.938-5.388.198-4.327 3.513.711 1.27-1.32 2.064-.157 3.321-1.12.259-2.03.728-2.862.451-.989-.048-1.236-.8-2.369-.487.332-2.112 2.266-4.049 3.604-5.366 4.405-3.363 8.756-5.204 14.385-5.018.452.21 1.446.115 1.76.632" transform="matrix(1.15 0 0 1.15 -53.787 -24.828)"/><path style="fill:#0a1f62;stroke:none;fill-opacity:1" d="M249.377 152.607c-.186 1.75-2.067 2.395-3.344 2.948-.826.47-1.519-.036-2.188.728-1.145-.355-2.404 1.113-2.446-.776.199-1.444-.049-2.575.602-3.808.603-.084 1.368.198 1.73-.481 2.368.553 5.056-1.48 5.646 1.39M259.357 154.286c-.03 2.045.747 2.851.566 4.746.56 1.36-.47 2.9-.06 4.254-1.844 9.433-11.305 13.879-19.597 16.412-7.19 1.143-13.234 5.817-18.211 10.774-.368.307-.2 1.071-.958 1.095-1.555-1.642.09-2.653-1.013-4.452-.054-5.913-.422-12.266 3.278-16.742 1.64-1.33 3.658-2.587 5.394-3.23.518-.392 1.723-1.024 2.706-1.192.82-.554 2.12-.048 2.633-.963 2.416-.517 4.508-2.22 6.846-2.653l-.079-.156c.693.451 1.658-.716 2.41-.728 2.713-1.113 5.328-2.539 7.961-3.58 2.93-1.438 5.478-3.002 7.865-4.795.391.361-.055.765.253 1.21M291.247 182.212c2.429.097 5.604-.42 7.822.283 1.591-.174 3.646.072 5.177.728l.15-.162c1.706 2.009 1.453 4.44 1.513 6.942.373 3.243 1.669 6.937 2.272 10.258.186 1.504-1.121.403-1.724.71-.765-.205-1.753-.566-2.742-.614-1.536-.644-3.947.084-5.104-.644-.675.385-1.446-.27-2.049-.108-3.495-.15-6.683-.15-9.25.433-3.555.53-6.659.896-10.058 1.576-.596.626-1.59.108-2.193.506-4.604 1.082-8.877 3.525-13.396 5.065-.205.764-1.212.187-1.651.566-4.128 2.22-8.413 4.048-12.704 5.733-9.467 4.301-17.91 10.173-26.039 16.79-.922-.505-1.102-1.954-.976-2.941-.506-5.733-.169-11.124-.229-17.188-.217-3.17 4.255-3.279 5.725-5.427 2.23-2.244 5.779-2.93 8.081-5.252 4.954-2.61 9.353-6.196 14.86-7.676 1.646-1.023 3.243-.902 4.888-1.925.301 0 .687.138.904-.096l-.079-.15c1.447.047 2.778-1.342 4.303-1.072.597-.541 1.736-.577 2.483-1.125 1.06-.012 1.958-.637 3.248-.601 1.651-.939 4.236-.614 6.116-1.492.681-.012 1.501-.632 2.266-.494 1.272-.788 3.483-.162 4.375-1.16 1.603.42 2.953-.23 4.466-.626 3.338.144 4.845-.494 8.177-.789.537.367.91.133 1.362-.036M447.662 181.966c1.983.553 3.532 1.967 5.159 3.447-2.218 2.701-5.544 3.146-8.624 4.662-1.428.704-2.898-.776-4.284-1.42a79.22 79.22 0 0 1-4.508-1.491l.072-.157c-.68.012-1.15-.583-1.609-.8-.253-1.125 1.561-1.468 2.23-2.088 1.947-1.034 4.351-2.376 5.677-4.066 2.133.258 4.116.824 5.887 1.913" transform="matrix(1.15 0 0 1.15 -53.787 -24.828)"/><path style="fill:#0a1f62;stroke:none;fill-opacity:1" d="M231.817 185.726c-.578 1.293-.169 2.659.771 3.844 1.085 1.035 2.471 1.913 3.55 2.725 1.072.355 2.224.939 3.35.602.157.457.7.74.56 1.36-.903.469-2.18.872-3.157 1.425-3.375 1.583-6.508 4.157-9.973 5.144-1.459-.493-2.459-1.384-3.7-2.49-1.326-1.565-2.272-3.207-1.477-5.12 2.284-2.93 5.195-5.264 7.883-7.286.608-.012 1.934-1.787 2.193-.204M417.266 183.849c2.507-.06 4.411.349 6.846.53.464.36 1.374.348 2.061.48 3.893 1.125 7.472 1.727 11.01 3.85 4.435 1.8 8.9 4.573 12.468 7.761 1.15.728 2.543 2.052 3.176 3.11-.133.837-.175 2.118-.308 3.117-.331 2.196-.205 4.464-.922 6.45.018.763.049 1.973-.391 2.737-.055.914.283 2.574-.157 3.266-1.742.109-1.633-1.702-2.94-2.514a29.186 29.186 0 0 0-4.864-3.748l.15-.097c-.843-.505-1.916-.782-2.536-1.594l-.15.15c-2.689-1.69-5.22-2.689-8.13-3.91l-.145.15c-1.464-.878-3.591-.986-5.05-1.865-.307.012-.994-.354-1.374-.192-.458-.138-.988-.283-1.669-.114l.15-.157c-1.687-.716-3.657-.595-5.49-.938-2.434-.247-5.242-.259-7.676-.518-.211.542-.525.097-.832.024-5.99.133-11.667 1.095-17.018 2.798-2.489.59-4.502 2.292-6.99 2.888-3.357-4.097-4.665-8.303-8.232-11.948-.169-.987-.26-1.282-.042-2.046 2.53-1.865 5.405-2.539 8.105-3.97 1.512-.26 2.633-.879 4.08-.68 1.277-.788 2.416-.668 3.694-1.294.307.295 1.06.048 1.512-.27 3.7-.764 8.84-1.775 13.09-1.643 2.657.012 5.917-.132 8.58.187M303.89 201.65c.084.295.615.127.922.35.687.282 2.79-.819 2.597.92-2.856 4.536-9.334 3.393-14.089 4.488-4.622.397-9.419-.175-14.21-.602-.313-.596-1.283.108-1.68-.644-.748.62-1.152-.661-2.056-.258-.391-.446-.765-.21-1.23-.656-.15-.145-1.054.174-.915-.505.126-1.216 1.964-.428 2.706-1.27v.138c2.272-.42 3.917-1.07 6.351-1.269 1.121-.47 2.338-.577 3.845-.764 4.76-.938 9.4-.36 14.035-.307 1.368.12 2.284.247 3.724.38" transform="matrix(1.15 0 0 1.15 -53.787 -24.828)"/><path style="fill:#0a1f62;stroke:none;fill-opacity:1" d="M401.863 204.496c2.2 3.357 3.182 6.822 2.061 10.853l-1.139.024c-2.585-3.652-7.092-5.066-10.925-6.732-1.67-.036-3.357-.602-4.435-1.48-.169-.68.663-.776.958-1.161 3.091-.897 6.255-2.106 9.202-2.774.596-.168 1.874-.577 2.718-.45l1.554 1.72M438.647 206.938c2.94 2.359 5.942 4.266 8.66 7.087.988.5 1.988 1.09 2.615 1.986-.494 1.22-2.248.962-3.375 1.431-.162-.445-.988-.12-1.223-.42-.518.535-.615-.368-1.217-.049.072-.222-.157-.295-.314-.445-.15 0-.228.078-.222.15-1.386-.8-2.99-1.377-3.785-3.02-1.868-1.997-3.375-4.855-2.898-7.436.976-.403.94 1.27 1.76.716M308.964 211.306c1.404 5.114.283 9.463-.205 14.77-2.109.884-4.616.788-6.797 1.588-3.032.072-6.4 2.196-9.486 3.621-4.356 1.998-8.304 5.343-12.353 7.695-2.682 2.256-6.056 4.007-9.051 6.04-2.23 1.853-4.93 3.357-7.563 4.626-1.784 1.48-3.815 2.214-5.761 3.315-2.99 2.256-6.376 3.4-9.606 5.138-1.037 1.01-2.423.199-3.537 1.294-1.742.102-2.013-1.775-2.646-3.129-1.838-4.127-5.237-6.708-7.894-10.281.199-1.294 2.037-.506 3.019-.752.826-.554 2.037-.578 2.856-1.282l-.156-.138c1.217.198 1.88-.957 2.934-1.203 2.7-1.348 5.322-2.924 8.106-4.121.066-.53.452-.085.669-.391 2.549-1.336 4.387-4.11 7.02-5.228 2.302-2.244 5.303-3.827 8.063-5.86 4.574-2.671 9.347-6.642 14.155-8.651 1.796-1.245 3.526-2.112 5.701-3.147l-.156-.156c1.813-.493 3.694-1.21 5.43-1.546 2.102-1.035 4.585-2.07 7.008-2.214 2.796-.806 5.881-1.63 8.858-1.173.603.222 1.296.577 1.392 1.185" transform="matrix(1.15 0 0 1.15 -53.787 -24.828)"/><path style="fill:#0a1f62;stroke:none;fill-opacity:1" d="M394.644 211.083c2.995 1.685 5.237 3.375 7.641 5.68-.71 2.358-3.278 2.791-5.001 3.97-1.893.187-3.345-.234-5.17-.577-1.996-.939-4.063-1.727-6.359-2.515-.47-.656-1.831-.566-2.308-1.384l-.602.024c.072-.168-.085-.24-.085-.306-.457-.06-.988-.506-1.53-.494 0-.156-.072-.234-.15-.307-1.453-.493-3.068-1.443-4.448-2.16.295-.168.138-.39.138-.625 1.224.59 2.809.247 3.966.902.217-.457.452-.078.68-.012 1.363-.03 3.026-.15 4.092.06 1.278-.715 2.953-.36 4.074-1.233 1.296.283 2.326-1.1 3.7-.986l.295-.307c.163.53.687.144 1.067.282" transform="matrix(1.15 0 0 1.15 -53.787 -24.828)"/><path style="fill:#0a1f62;stroke:none;fill-opacity:1" d="M377.12 214.73a90.092 90.092 0 0 0 8.515 4.216c.838.127 1.766.855 2.525 1 1.23.577 2.224.926 3.453 1.666.916.282 1.91.565 2.905.764.524.222 1.675.8 2.434.788 2.76 1.149 6.267 1.9 9.088 2.376 1.223.421 2.976.764 4.501 1.113 3.206.836 5.484.788 8.907 1.161.988.048 2.211.487 3.037.084 1.681.873 4.092-.162 6.315.692 4.098.44 9.486-.054 13.505 0l.145-.138c.162.517.53-.012.759-.024 7.424-.62 15.692-.95 22.255-2.69l.548.68-.15.15c2.133 3.893 2.374 7.9 2.771 12.213l.235.223c-.35 1.36.29 2.713-.295 3.862-2.428-.09-4.646-.794-7.292-.288-.084-.452-.765-.133-1.217-.205-.078.084-.15.156-.15.235h-.223c0-.079-.079-.15-.157-.223-.597.391-2.037.505-2.724.283-1.519.036-2.868.752-4.387.553-.675.385-1.44.175-2.272.283-.452.084-.898.542-1.362.175-.367.613-1.29.024-1.657.565-2.278.06-4.309.788-6.514.602-1.428.325-2.953.288-4.544.325-4.02.012-10.003.601-14.192-.067-1.223-.427-2.434-.18-3.58-.45-.843-.434-2.578-.163-3.802-.596-.982.246-2.44-.404-3.73-.38-.765-.36-1.754-.409-2.597-.691-1.284.258-2.362-.482-3.423-.385-1.073-.427-2.218-.71-3.429-.752l-.006-.085c-1.139-.198-2.284-.318-3.278-.601-.53-.223-1.23-.812-2.055-.566-.536-.288-1.446-.349-2.067-.866-.38.012-1.145-.421-1.675-.259-1.754-.493-2.995-1.528-5.038-1.48-.62-.517-1.61-.577-2.38-1.083h-.38v-.138c-3.14-1.07-5.683-2.918-8.738-3.904-.247-.752-1.079-.656-1.621-1.035l.15-.138c-.693-.446-1.373-.656-2.217-.873-1.085-1.257-3.748-1.582-4.026-3.465 1.41-4.957 3.044-9.999 5.677-14.45 1.302.432 2.007 1.551 3.459 1.822M244.388 218.628c1.548 1.48 4.52 2.021 5.706 4.35.5 1.96.53 3.392-.873 4.944-1.344 1.083-2.82 2.858-4.707 3.363-.813 1.15-2.633 1.113-3.44 2.269-1.652.571-2.923 1.582-4.346 2.286-3.459 1.516-4.23-2.557-7.267-2.557-.307-.145-.392-.602-.693-.44l-.15.157c-.772-.674-1.604-.427-2.592-.626l-.006-.162c-.536-.199-1.217-.048-1.826-.108.066-.458-.53-.055-.687-.361-.223.234-.53.09-.832.174-.156-.15-.162-.445-.391-.53 4.043-2.514 6.7-5.895 10.744-8.338 2.543-1.72 4.863-3.212 7.72-4.337.223-.391.747-.614.735-1.155.994.367 1.916.872 2.91 1.083" transform="matrix(1.15 0 0 1.15 -53.787 -24.828)"/><path style="fill:#0a1f62;stroke:none;fill-opacity:1" d="M253.077 227.315c-.21.68.41 1.347.579 2.027.048 2.268-.127 4.693-1.754 6.702-2.627 1.197-4.555 3.279-7.267 4.254-3.14 2.183-6.55 2.418-10.076 4.157-.392-.518-1.904-.26-2.296-.939-.554-1.197-.663-2.635.446-3.934 1.338-1.095 3.296-1.823 4.863-2.996 1.748.198 2.766-1.956 4.586-1.992.217-.385.675-.313.97-.547l-.15-.145c1.964-.348 3.519-2.057 5.399-2.851 1.338-1.318 3.501-2.954 3.453-5.234l.223-.301c.765.433.253 1.36 1.024 1.799M307.421 227.561c-.265 5.072-5.056 8.128-8.792 10.866-.373.084-.53-.06-.693-.446-.271-2.033.874-5.396-2.41-6.076-.32-.902.74-.842 1.187-1.245.675-.385 1.67-.175 2.332-.879l.084.15c.826-.246 1.58-.565 2.49-.727 1.717-.95 3.916-1.083 5.796-1.643M372.962 232.705c.844.433 1.76.644 2.38 1.318.675.054 1.157.728 2.061.788.404 1.113 2.82.607 2.47 2.051-2.753 2.034-6.694 2.425-9.623.518-2.163-1.841-3.682-5.367-2.675-7.966 1.132-.258 2.073 1.162 2.922 1.823.838.446 1.76.867 2.459 1.468M304.21 236.796c-.615 2.972-2.074 5.806-1.7 8.754.018.818.874 1.937.211 2.863-1.76-.644-2.627 1.27-4.375 1.083l-2.959.138c-.994-.276-1.603-.336-2.079-1.311-.548-.975-.343-1.81-.217-3.104.814-1.011 1.693-2.232 2.899-2.798l-.012-.295c2.41-1.113 3.736-2.803 6.062-3.922.597-.542 1.494-1.173 2.17-1.408M465.41 243.48c1.223.421 2.97.541 3.458 1.81-.06.915-.873 1.842-1.699 2.233-3.085 1.059-7.183 1.305-10.04 2.418l-.458-.138c-1.494.716-2.766 1.81-4.037 2.821-1.079-.661.199-1.45.253-2.213 1.404-1.841 2.26-4.29 3.658-6.215 1.59-.187 2.573-.433 4.086-.62 1.217.127 3.115.235 4.399-.234l.307.288.072-.15M460.13 251.776c-1.73.867-1.988 2.858-1.946 4.663.705.896 1.41 1.943 2.561 2.683.536.198 1.675.03 1.235.95-.976.331-2.187.494-3.103.446v-.15c-.386-.217-.988-.049-1.368-.049-.09-.602-.838-.048-1.145-.421-1.832-.27-2.694-1.612-3.845-2.19l.145-.162c-1.006-.963-.416-1.649-.21-2.87 1.77-2.232 4.718-2.828 7.273-3.862.156.21.928.571.403.962" transform="matrix(1.15 0 0 1.15 -53.787 -24.828)"/><path style="fill:#fff;stroke:none" d="m383.032 226.322-.024-.012-5.972 5.018-.73-.337 1.157-7.238-.03-.012-4.405 5.571-2.115-.98 7.52-9.115 1.49.692-1.001 7.628 6.207-5.222 1.518.71-4.085 10.69-2.116-.974 2.586-6.419M389.275 233.608l-1.82 1.847-2.338-.776 8.75-9.013 1.723.578-.006 11.912-2.368-.788.012-2.43-3.953-1.318v-.012zm4.116-4.699-.03-.012-2.785 3.303 2.706.89.109-4.18M400.586 239.365l-2.278-.572 3.254-10.504 2.278.572-3.254 10.504M406.618 229.342l1.681.247 4.912 8.453.03.012 1.332-7.232 2.332.343-2.025 10.961-1.675-.258-4.912-8.447h-.03l-1.35 7.298-2.332-.355 2.037-11.022M423.154 242.223l-2.368-.073.355-9.036-2.44-.078.066-1.847 7.25.223-.073 1.859-2.44-.084-.35 9.036M430.813 240.063l-.982 2.298-2.489.012 4.664-11.196 1.838-.012 4.646 11.166-2.524.012-.94-2.292-4.213.012zm2.013-5.703h-.03l-1.314 3.976 2.875-.012-1.531-3.964M443.498 242.084l-2.362.103-.585-10.877 2.363-.109.584 10.883M445.794 230.846l1.694-.174 7.31 6.9.03-.012-.935-7.273 2.345-.235 1.422 11.022-1.682.174-7.321-6.9-.03.012.952 7.333-2.35.247-1.435-11.094M389.558 197.692l.03-.012.103-7.875 1.343-.343 4.64 6.714h.03l.115-7.731 2.387-.59-.687 11.69-1.676.415-4.417-6.3-.024.013-.114 7.412-1.67.403-6.99-9.8 2.392-.59 4.538 6.594M402.575 189.209l.403 2.358 3.718-.517.314 1.835-3.718.517.494 2.912 3.863-.541.319 1.834-6.201.86-1.844-10.762 6.189-.872.313 1.835-3.857.541M417.652 194.726l.03.012 4.056-6.99 1.362.258.765 7.875.03.012 3.995-6.852 2.423.445-6.496 10.143-1.706-.319-.771-7.4-.03-.012-3.82 6.57-1.706-.32-1.296-11.574 2.429.445.729 7.707M430.482 201.12l-2.266-.6 3.38-10.445 2.272.59-3.386 10.456M434.875 200.441l3.176.95-.651 1.751-5.418-1.624 3.833-10.336 2.242.668-3.182 8.591M440.762 202.661l3.086 1.149-.79 1.703-5.267-1.962 4.321-9.36 2.182.805-3.532 7.653M397.525 177.748h-2.7l-2.284-2.996h-.03l.066 2.948h-2.23l-.048-9.15 3.013.012c2.26 0 3.82.914 3.815 3.122 0 1.33-.808 2.647-2.344 2.882l2.742 3.182zm-5.014-4.415h.29c1.228.012 2.096-.331 2.096-1.589.006-1.281-.892-1.54-2.073-1.54h-.301l-.012 3.129M402.683 177.67h-2.025l-.024-10.378h2.025l.024 10.378M413.874 171.407l.006.26c.036 2.935-1.435 5.552-4.659 5.588-3.037.048-4.983-2.49-5.02-5.354-.036-2.966 1.905-5.523 5.002-5.571 1.766-.024 3.32.854 4.14 2.418l-1.777.987c-.428-.914-1.32-1.63-2.393-1.606-1.958.024-2.898 2.033-2.874 3.748.018 1.714 1.024 3.615 2.983 3.591 1.265-.012 2.314-1.125 2.338-2.382l-2.206.024-.018-1.648 4.478-.055M420.798 169.82l-.145-4.092 2.025-.072.373 10.378-2.03.084-.163-4.644-3.754.132.168 4.638-2.024.073-.374-10.378 2.025-.066.15 4.073 3.749-.127M430.38 175.775l-2.02.12-.524-8.59-2.09.126-.11-1.763 6.202-.373.108 1.75-2.091.127.524 8.603M440.027 167.677c-.41-.505-.928-.794-1.603-.764-.645.037-1.235.566-1.199 1.24.102 1.738 4.17.782 4.369 4.26.114 2.069-1.097 3.609-3.212 3.73-1.434.077-2.525-.687-3.308-1.848l1.235-1.341c.32.776 1.09 1.462 1.958 1.401.826-.048 1.296-.776 1.248-1.576-.06-1.07-1.067-1.317-1.898-1.576-1.362-.481-2.375-1.089-2.465-2.701-.096-1.715 1.103-3.17 2.85-3.28.916-.047 2.224.332 2.899 1l-.874 1.455M308.024 258.37l.133 2.334-1.94.896-.748-11.364 1.428-.644 8.015 8.05-1.97.89-1.634-1.654-3.284 1.492zm-.663-5.655-.024.012.524 3.904 2.248-1.023-2.748-2.893M309.253 247.884l1.025-1.029 9.009 1.221.018-.012-4.96-4.915 1.417-1.432 7.526 7.436-1.024 1.035-9.01-1.221-.011.024 5.001 4.945-1.416 1.45-7.575-7.502M317.346 238.793l1.688-2.34c1.747-2.43 4.754-2.75 7.147-1.022 2.368 1.69 2.995 4.686 1.265 7.086l-1.675 2.34-8.425-6.064zm8.178 3.382.193-.26c1.458-2.02.904-3.603-.766-4.806-1.831-1.311-3.459-1.053-4.802.8l-.193.27 5.568 3.996M330.345 226.888c-2.628-1.246-4.026-4.242-2.718-6.979 1.308-2.737 4.514-3.537 7.141-2.292 2.694 1.281 4.05 4.253 2.748 6.99-1.302 2.738-4.477 3.562-7.171 2.28zm.832-1.925c1.416.667 3.79.342 4.531-1.21.741-1.552-.494-3.61-1.91-4.277-1.525-.728-3.598-.307-4.363 1.293-.765 1.595.217 3.478 1.742 4.194M331.158 213.093l.802-1.853 5.345 2.286c1.175.505 2.875 1.107 3.562-.47.668-1.57-.94-2.382-2.116-2.887l-5.345-2.292.802-1.86 5.712 2.45c2.327.998 3.658 2.737 2.562 5.288-1.103 2.556-3.285 2.779-5.617 1.78l-5.713-2.442M346.718 200.297l-.856 2.292-4.809.908-.006.018 3.923 1.462-.705 1.89-9.738-3.61.958-2.557c.717-1.931 2.067-2.942 4.146-2.166 1.236.457 2.224 1.6 1.959 2.984l5.128-1.221zm-7.002 2.725.09-.247c.392-1.028.356-1.889-.832-2.322-1.199-.451-1.717.223-2.09 1.233l-.097.26 2.929 1.076M247.208 251.68l.024-.012-1.904-7.683 1.23-.613 6.236 5.583.024-.012-1.856-7.557 2.182-1.052 2.296 11.526-1.525.74-5.906-5.234-.03.024 1.784 7.244-1.53.752-9.299-8.122 2.175-1.059 6.099 5.475M257 239.78l1.314 2.088 3.284-1.655 1.007 1.613-3.285 1.654 1.616 2.575 3.404-1.715 1.013 1.607-5.472 2.761-5.954-9.505 5.478-2.762 1.006 1.613-3.41 1.726M272.415 240.99l-1.952 1.185-6.852-8.976 2.652-1.63c2.097-1.294 4.037-1.378 5.586.655 1.458 1.901 1.012 3.55-1.03 4.807l-.97.583 2.566 3.363v.012zm-3.676-4.82.398-.246c1.157-.704 1.61-1.318.717-2.49-.88-1.15-1.753-.861-2.838-.187l-.344.21 2.067 2.714M284.347 233.975l-2.416 1.371-5.098-2.286-.03.012 2.615 3.712-1.995 1.125-6.484-9.186 2.7-1.54c2.024-1.15 3.989-1.138 5.375.824.826 1.16.934 2.749-.295 3.736l5.628 2.232zm-8.43-2.16.259-.145c1.102-.62 1.669-1.36.873-2.478-.795-1.137-1.753-.903-2.814-.295l-.27.156 1.952 2.762M286.36 231.815l-2.037 1.077-6.165-9.385 2.037-1.083 6.165 9.39M293.802 226.172l.976 1.624-7.731 3.76-.097-10.24-3.97 1.932-.977-1.624 7.268-3.538.102 10.234 4.43-2.148M294.562 217.605l1.12 2.19 3.411-1.426.856 1.678-3.405 1.414 1.368 2.677 3.543-1.468.862 1.679-5.689 2.364-5.08-9.896 5.695-2.359.862 1.679-3.55 1.468M227.623 218.032l2.874-2.292.862 3.146-5.23 2.774-2.309-11.894 2.32-.445 1.483 8.711M235.439 216.36l-2.332.415-2.073-11.93 2.332-.397 2.073 11.912M236.457 201.494l2.899-.493c2.217-.361 4.152-.83 4.556 1.54.144.86-.296 2.46-.959 3.056 1.453.012 2.46.986 2.682 2.292.392 2.352-1.476 3.501-3.447 4.404l-3.718 1.13-2.013-11.93zm4.008 9.072.572-.186c1.019-.89 2.182-.554 1.916-2.106-.265-1.546-1.476-.692-2.645-.493l-.386.072.543 2.713zm-.838-4.5.283-.048c1.14-.187 1.64-.608 1.434-1.841-.204-1.221-.958-1.414-1.94-1.257l-.301.06.524 3.098M248.81 198.017l.561 2.61 3.676-1.54.428 2.022-3.676 1.528.687 3.194 3.82-1.853.435 2.01-6.129 2.358-2.555-11.846 6.135-1.997.433 2.01-3.82 1.504M265.546 203.118l-2.827.47-3.706-4.338-.03.012.802 4.819-2.333.39-1.988-11.953 3.157-.53c2.369-.397 4.177.38 4.598 2.942.26 1.516-.331 3.183-1.892 3.712l4.219 4.476zm-6.834-5.486.301-.049c1.284-.21 2.127-.74 1.886-2.208-.247-1.467-1.229-1.6-2.47-1.401l-.32.048.603 3.61M271.108 200.97l-2.32.458-1.94-9.86-2.4.469-.39-2.01 7.11-1.396.392 2.01-2.393.47 1.94 9.86M278.622 199.238l-2.35.283-1.452-12.02 2.35-.283 1.452 12.02M283.75 188.066l.133 2.665 3.76-.186.103 2.057-3.76.187.162 3.266 3.905-.186.097 2.045-6.262.32-.602-12.105 6.267-.307.097 2.057-3.905.187M296.767 187.904c-.374-.662-.904-1.107-1.687-1.198-.753-.084-1.537.41-1.627 1.186-.23 2.033 4.64 1.726 4.176 5.757-.277 2.406-1.977 3.946-4.435 3.664-1.658-.199-2.766-1.294-3.43-2.774l1.682-1.305c.217.968.964 1.883 1.97 1.997.959.108 1.646-.632 1.748-1.546.145-1.245-.964-1.727-1.862-2.214-1.476-.806-2.519-1.727-2.308-3.58.229-1.997 1.898-3.447 3.93-3.206 1.072.114 2.494.818 3.133 1.715l-1.29 1.504M225.026 176.425c-.374-2.882 1.187-5.703 3.892-6.125 2.712-.433 4.924 1.787 5.297 4.65.386 2.955-1.18 5.728-3.886 6.161-2.712.434-4.918-1.75-5.303-4.686zm1.862-.391c.205 1.552 1.645 3.35 3.181 3.104 1.543-.247 2.465-2.412 2.266-3.964-.217-1.667-1.573-3.159-3.157-2.912-1.591.258-2.507 2.117-2.29 3.772M234.053 166.998l2.013-.271.795 5.757c.175 1.27.536 3.044 2.242 2.81 1.705-.247 1.573-2.046 1.392-3.315l-.796-5.757 2.013-.271.85 6.16c.343 2.503-.458 4.548-3.218 4.921-2.76.392-4.092-1.36-4.435-3.874l-.856-6.148M252.095 172.412l-2.416.415-3.206-3.676h-.024l.723 4.121-2 .343-1.785-10.215 2.7-.47c2.019-.348 3.574.296 3.96 2.48.222 1.305-.266 2.73-1.598 3.2l3.646 3.796v.006zm-5.893-4.65.259-.048c1.102-.187 1.814-.644 1.597-1.89-.217-1.269-1.061-1.365-2.122-1.185l-.27.042.536 3.08" transform="matrix(1.15 0 0 1.15 -53.787 -24.828)"/></svg>