<svg xmlns="http://www.w3.org/2000/svg" xmlns:xlink="http://www.w3.org/1999/xlink" width="840" height="420"><path fill="#006400" d="M0 0h840v420H0z"/><path fill="#ffd200" d="M0 60h840v300H0z"/><path fill="#d40000" d="M0 120h840v180H0z"/><path d="M0 180h840v60H0z"/><path d="M0 0v420l280-210z" stroke="#000" stroke-width="20"/><path d="M0 0v420l280-210z" fill="#fff"/><path d="M106.52 104.415 161.98 275.1 16.785 169.61h179.469L51.06 275.1z" fill="#d40000"/><path d="m82.77 253.659 9.8-1.782 18.175-.713 6.683.624 14.968 2.495 1.158-1.515v-10.78l1.693-9.266 3.118-9.444 3.207-7.484 4.188-7.752 6.86 1.693h1.782l.178-1.336-14.344-12.296-15.057-11.493-21.65-16.215-1.96-.535-2.406-16.928-1.693-5.167-2.227-1.96-4.366-1.426-4.81.178-2.14 1.247-4.632 1.07-2.406.356-1.603 1.871-.179 2.406 6.683.178 1.692.713-.178.712-3.831.535-1.782.534 2.138 1.604 2.139.802 2.85 1.07.535 1.87.268 25.927-1.515 4.01-.535 7.483 2.228 8.999-5.613 6.326-3.119 5.702-.534 3.564-1.693 3.474-.267 2.228 1.158 2.316 4.277 14.255 2.227 11.672z" fill="#fc0"/><path d="M87.956 141.919c-1.715-.001-2.538.295-4.237 1.218-1.534.834-3.354 1.388-4.594 1.388-2.52 0-4.556 1.81-4.556 4.069v1.5l3.675-.113c10.534.353.917 1.324.15 1.463-2.616.474.58 2.607 3.656 3.637 3.31 1.108 3.169.467 3.169 14.982 0 11.917-.104 13.603-1.013 16.35-1.334 4.032-1.334 10.025 0 13.968.54 1.594.985 3.08.994 3.3.01.22-1.559 2.17-3.487 4.331-3.484 3.905-5.625 8.096-5.625 11.025 0 .675-.455 1.814-1.013 2.55-1.286 1.7-1.323 4.627-.075 5.738 1.295 1.153 6.642 21.793 6.656 25.688.005 1.42.26 1.411 8.381-.226 6.558-1.32 22.06-1.601 29.907-.543 3.624.488 7.841 1.2 9.375 1.594 4.83 1.24 4.563 1.495 4.575-4.332.017-9.008 1.66-17.576 5.137-26.737 1.582-4.168 5.741-12.631 6.844-13.931.109-.13 1.88.198 3.938.73 4.208 1.09 5.362.887 5.362-.937 0-1.044-4.296-4.625-25.331-21.094-14.174-11.096-25.8-19.837-26.381-19.837-.573 0-1.15-.294-1.275-.656-.126-.363-.794-4.652-1.5-9.544-.707-4.892-1.661-9.722-2.12-10.725-1.338-2.932-4.11-4.486-8.53-4.781a31.228 31.228 0 0 0-2.082-.075zm.15 1.05c.552-.007 1.173.016 1.931.056 6.641.349 7.898 2.181 9.638 13.987.675 4.583 1.232 8.82 1.237 9.432.008.795-.915 1.735-3.243 3.3-3.43 2.305-7.854 6.509-10.013 9.487l-1.294 1.763-.243-4.144c-.143-2.278-.142-7.594 0-11.813.294-8.719.065-9.58-2.794-10.537-2.334-.782-5.38-1.622-4.481-2.156.982-.584 1.891-.167 4.387-.788.884-.22.836-.182.694-.937-.256-1.36-1.584-1.984-5.344-1.781-2.952.159-3.331.082-3.131-.713.404-1.607 2.075-2.663 4.556-2.906 1.336-.131 3.284-.723 4.35-1.313 1.18-.652 2.095-.917 3.75-.937zm14.869 25.875c.14-.003.27 0 .394.019 1.702.267 50.793 38.649 50.793 39.712 0 .42-.393.758-.88.75-.489-.008-12.983-3.546-27.75-7.856-23.6-6.888-26.994-8.013-28.013-9.244-1.448-1.75-1.497-4.421-.132-6.225.558-.737 1.013-1.643 1.013-2.025 0-1.166-2.502 1.808-2.981 3.544-.56 2.03.483 5.425 2.006 6.525.602.434 5.1 1.98 9.994 3.431 8.352 2.476 8.913 2.742 9.356 4.125 1.065 3.32-2.443 7.174-7.519 8.269-1.637.353-3.718 1.317-5.156 2.4-5.716 4.306-9.695 6.85-13.031 8.287-1.962.845-3.857 1.8-4.2 2.138-.344.337-.844 1.873-1.125 3.412-.596 3.268-.85 3.769-1.819 3.769-.561 0-.611-.293-.225-1.35.713-1.949.635-4.444-.15-4.444-.415 0-.675.695-.675 1.857 0 1.014-.286 2.131-.656 2.493-.556.545-.626.142-.394-2.362.155-1.667.087-3.038-.15-3.038-.455 0-1.348 2.526-1.669 4.744-.188 1.3-.199 1.29-.618-.244-.328-1.198-.17-2.001.674-3.525.602-1.087 1.107-2.667 1.107-3.525 0-1.292.952-2.541 5.625-7.275 3.102-3.142 6.714-7.041 8.025-8.662 2.268-2.805 2.388-3.103 2.306-5.944-.047-1.642-.237-3.118-.412-3.3-.593-.616-1.382 2.559-1.07 4.294.284 1.568-.009 2.103-3.28 5.962-1.976 2.33-5.33 5.842-7.444 7.819-3.894 3.641-5.288 5.61-5.288 7.463 0 .562-.436 2.049-.975 3.3-.538 1.25-.836 2.528-.675 2.83.18.34.052.317-.319-.037-.438-.419-.474-1.195-.112-2.869.273-1.262.385-2.48.244-2.718-.544-.915-1.182.26-1.5 2.756-.183 1.432-.525 2.481-.769 2.325-.733-.471-.502-3.077.394-4.406.461-.685 1.037-2.317 1.275-3.638.666-3.704 2.257-6.645 5.793-10.65 1.783-2.018 3.244-3.745 3.244-3.844 0-.098-.475-1.588-1.05-3.3-1.33-3.957-1.417-9.985-.206-13.65 1.276-3.861 3.906-7.684 8.063-11.718 4.022-3.905 7.844-6.34 9.937-6.375zm15.019 32.175a.86.573 0 0 1 .993.562.86.573 0 0 1-1.706 0 .86.573 0 0 1 .713-.562zm2.475.319a.86.573 0 0 1 .019 0 .86.573 0 0 1 1.012.58.863.575 0 0 1-1.725 0 .86.573 0 0 1 .694-.58zm2.625.487a.86.573 0 0 1 .094 0 .86.573 0 0 1 .918.581.86.573 0 0 1-1.706 0 .86.573 0 0 1 .694-.581zm2.362.488a.86.573 0 0 1 .113 0 .86.573 0 0 1 .918.58.863.575 0 0 1-1.724 0 .86.573 0 0 1 .693-.58zm-6.3.58a.86.573 0 0 1 .019 0 .86.573 0 0 1 1.013.582.863.575 0 0 1-1.725 0 .86.573 0 0 1 .693-.581zm2.475.413a.86.573 0 0 1 1.013.563.863.575 0 0 1-1.725 0 .86.573 0 0 1 .712-.563zm5.194.206a.86.573 0 0 1 1.013.563.863.575 0 0 1-1.725 0 .86.573 0 0 1 .712-.563zm-2.737.038a.86.573 0 0 1 1.012.563.863.575 0 0 1-1.725 0 .86.573 0 0 1 .713-.563zm5.062.581c.076-.112 3.675.803 7.987 2.044l7.838 2.25-1.519 2.7c-.836 1.48-1.89 3.464-2.343 4.406-.92 1.913-1.247 1.946-5.963.863-5.215-1.198-13.46-2.336-21.844-3.019l-8.062-.656 3.037-1.144c1.673-.634 4.079-1.72 5.344-2.419 1.985-1.095 2.786-1.236 5.831-1.012 4.522.333 7.57-.502 8.7-2.382.473-.785.918-1.518.994-1.63zm-8.85.563a.86.573 0 0 1 .019 0 .86.573 0 0 1 1.012.581.863.575 0 0 1-1.725 0 .86.573 0 0 1 .694-.581zm5.644 0a.86.573 0 0 1 .019 0 .86.573 0 0 1 1.012.581.863.575 0 0 1-1.725 0 .86.573 0 0 1 .694-.581zm-8.1.075a.86.573 0 0 1 .112 0 .86.573 0 0 1 .919.581.863.575 0 0 1-1.725 0 .86.573 0 0 1 .694-.581zm5.344.094a.86.573 0 0 1 1.012.562.863.575 0 0 1-1.725 0 .86.573 0 0 1 .713-.563zm-6.563 1.18a.86.573 0 0 1 .019 0 .86.573 0 0 1 .993.582.86.573 0 0 1-1.706 0 .86.573 0 0 1 .694-.581zm2.456.038a.86.573 0 0 1 .094 0 .86.573 0 0 1 .919.582.86.573 0 0 1-1.706 0 .86.573 0 0 1 .693-.582zm2.625.094a.86.573 0 0 1 1.013.563.863.575 0 0 1-1.725 0 .86.573 0 0 1 .712-.563zm2.775.075a.86.573 0 0 1 .019 0 .86.573 0 0 1 .994.581.86.573 0 0 1-1.707 0 .86.573 0 0 1 .694-.581zm-20.306 8.081c3.431-.11 15.41.76 21.094 1.613 5.003.751 13.767 2.378 14.062 2.606.074.057-.677 2.455-1.687 5.325s-1.932 5.55-2.044 5.944c-.153.538-.769.622-2.475.356-8.331-1.299-32.336-1.18-41.569.206-5.249.789-6.02.731-5.569-.375.207-.507.646-2.094.976-3.543l.6-2.644 5.568-2.888c3.061-1.594 6.472-3.625 7.575-4.519 1.103-.893 2.254-1.78 2.569-1.968.099-.06.41-.097.9-.113zm-26.962 14.232c.25 0 .874.288 1.593.75.94.603 2.138 1.1 2.663 1.106 2.612.032 4.047 3.712 6.262 16.069.312 1.738.679 3.665.806 4.293.204 1.001-.082 1.225-2.325 1.725-2.834.632-3.525.678-3.525.3 0-1.061-2.818-13.72-4.05-18.187-.838-3.043-1.537-5.721-1.537-5.963 0-.03.015-.06.038-.075a.13.13 0 0 1 .075-.018zm28.612 1.856h2.869l-.957 1.087c-1.698 1.95-2.509 2.136-3.693.825-.596-.66-1.088-1.357-1.088-1.556 0-.199 1.292-.356 2.869-.356zm6.075 0h5.438l-1.2 1.312c-1.47 1.627-1.568 1.627-3.038 0l-1.2-1.312zm8.212 0h1.257c.683 0 1.938.14 2.793.319l1.557.318-1.444 1.256c-.79.692-1.513 1.254-1.613 1.238-.099-.016-.72-.74-1.368-1.594l-1.181-1.537zm8.457.375 1.256.319c.697.182 2.185.35 3.3.356h2.025l-1.519 1.293c-.836.713-1.643 1.303-1.8 1.313-.157.01-.962-.72-1.781-1.631l-1.481-1.65zm-30.206.168c.145.005.236.011.262.038.103.107-.321.827-.956 1.594l-1.163 1.387-1.462-1.2-1.463-1.219 2.438-.375c1.002-.156 1.906-.237 2.343-.225zm2.306.15c0-.05.728.586 1.612 1.407l1.613 1.5-2.982.168-2.98.17 1.368-1.576c.753-.868 1.369-1.619 1.369-1.668zm18.112 0c.214.015.42.137.675.357.442.38 1.02 1.137 1.294 1.668.429.833.299.946-.919.9-.776-.028-1.939-.204-2.587-.393l-1.181-.338 1.293-1.256c.684-.667 1.07-.961 1.425-.938zm-8.4.02c.561-.078.997.34 1.594 1.274.73 1.143.704 1.16-1.987 1.144l-2.72-.019 1.445-1.312c.714-.654 1.232-1.028 1.668-1.088zm16.969.187 1.238 1.219c1.355 1.323 1.594 2.132.6 1.987-.349-.05-1.607-.17-2.794-.281l-2.157-.207 1.557-1.35 1.556-1.368zm-35.137.675c.234 0 .958.572 1.593 1.275l1.144 1.275-2.456.337c-1.353.182-2.911.428-3.469.544-.753.157-.526-.26.881-1.613 1.042-1 2.072-1.818 2.306-1.818zm-3.75.075c.167-.003.319.016.45.037.83.135.75.348-.6 1.688l-1.557 1.537-.45-1.275c-.376-1.045-.266-1.343.6-1.687a4.85 4.85 0 0 1 1.556-.3zm45.956 1.762c.24-.015.291.18.15.563-.308.833-1.2 1.039-1.2.281 0-.259.346-.589.75-.75.123-.049.22-.089.3-.094zm-21.319 1.594c7.668 0 15.48.19 17.363.431 3.166.405 3.412.526 3.412 1.707 0 1.405-.428 1.472-4.556.73-1.255-.225-6.287-.703-11.194-1.068-8.518-.633-19.075-.291-28.481.919-1.942.25-2.4.154-2.4-.488 0-1.358 10.167-2.231 25.856-2.231zm-10.313 2.887h5.42l-1.2 1.313c-1.47 1.626-1.568 1.626-3.038 0l-1.181-1.313zm6.957 0 1.425 1.407c.783.78 1.425 1.503 1.425 1.594 0 .09-1.302.168-2.888.168h-2.887l1.462-1.594 1.463-1.575zm2.156 0h5.438l-1.2 1.313c-1.47 1.626-1.568 1.626-3.038 0l-1.2-1.313zm-12.825.075c.238.016.024.416-.694 1.425-.652.918-1.34 1.67-1.519 1.67-.177 0-.845-.607-1.5-1.332l-1.2-1.313h1.82c1 0 2.216-.163 2.7-.356.177-.07.314-.099.393-.094zm2.044.45 1.293 1.182c.715.652 1.374 1.23 1.463 1.275.09.044-1.086.162-2.625.262l-2.813.188 1.35-1.463 1.332-1.444zm17.362 0 1.463 1.594c1.593 1.73 1.434 1.804-2.194 1.106l-1.706-.318 1.219-1.2 1.218-1.181zm2.044 0h2.362c2.56 0 2.89.402 1.444 1.763-1.19 1.119-1.196 1.11-2.606-.45l-1.2-1.313zm-30.619.544c1.153-.01 1.118.099-.375 1.556-1.144 1.118-1.283 1.142-1.594.3-.372-1.008.52-1.843 1.97-1.856zm38.794.15c.39-.003 1.189.085 2.081.244l2.175.375-1.256 1.219-1.237 1.219-1.088-1.425c-.595-.787-1.01-1.5-.919-1.594.023-.024.114-.037.244-.038zM92.738 240c.307-.052.579.198 1.106.694 1.005.945 1.017 1.032.15 1.387-.506.208-1.608.392-2.438.413l-1.5.037 1.369-1.425c.674-.7 1.005-1.054 1.313-1.106zm34.087.281c.352-.02.632.282 1.125.975l.919 1.275h-2.1c-1.368 0-2.023-.218-1.894-.619.108-.337.639-.908 1.181-1.275.32-.216.558-.344.769-.356zm6.413 1.35c.112.026.13.21.13.544 0 .984-.818 1.629-1.218.956-.156-.261.054-.767.469-1.125.307-.264.506-.4.619-.375zm-25.932 1.2c8.67-.01 18.313.567 23.907 1.613l1.65.319v4.406c0 3.223-.157 4.403-.62 4.35-.348-.04-2.58-.499-4.95-1.031-7.15-1.608-15.235-2.23-24.337-1.857-4.6.19-9.414.535-10.706.769l-2.362.431-.582-3.675c-.32-2.016-.501-3.732-.412-3.825.089-.092 2.311-.468 4.95-.825 3.397-.458 8.26-.669 13.462-.675z"/><path id="a" d="M124.763 217.762c-2.965 0-5.082 2.188-5.082 5.27 0 4.8 5.397 7.125 8.663 3.73 3.265-3.394 1.037-9-3.581-9zm-.02 1.238c2.191-.087 4.07 1.618 4.07 4.088 0 2.89-3.346 4.906-5.925 3.562-2.76-1.437-2.554-6.057.318-7.294a4.283 4.283 0 0 1 1.538-.356z" fill="#000"/><use xlink:href="#a" x="-20.065" y="-.6"/><path d="M88.013 145.275a1.723 1.764 0 0 0-1.594 1.762 1.725 1.766 0 1 0 3.45 0 1.723 1.764 0 0 0-1.856-1.762zm.112.619a1.16 1.143 0 0 1 1.125 1.143 1.163 1.146 0 1 1-2.325 0 1.16 1.143 0 0 1 1.2-1.143z"/></svg>